{
  "jsonPath": "Rock/Country Rock/Ray Stevens/raindrops-keep-falln-on-my-head.json",
  "path": "Rock\\Country Rock\\Ray Stevens\\Raindrops Keep Falln on My Head.mid",
  "name": "Raindrops Keep Falln on My Head",
  "difficulty": "Advanced",
  "bpm": 112.00005973336519,
  "notes": [
    {
      "midi": 69,
      "hit": false,
      "t": 6428.568000000001,
      "d": 585.9371875000006,
      "v": 82
    },
    {
      "midi": 65,
      "hit": false,
      "t": 6428.568000000001,
      "d": 616.6291354166669,
      "v": 77
    },
    {
      "midi": 60,
      "hit": false,
      "t": 6428.568000000001,
      "d": 633.3701979166672,
      "v": 78
    },
    {
      "midi": 53,
      "hit": false,
      "t": 6428.568000000001,
      "d": 1883.3695312500004,
      "v": 76
    },
    {
      "midi": 60,
      "hit": false,
      "t": 7862.719020833335,
      "d": 119.97761458333298,
      "v": 94
    },
    {
      "midi": 60,
      "hit": false,
      "t": 8044.0805312500015,
      "d": 292.96859374999985,
      "v": 75
    },
    {
      "midi": 65,
      "hit": false,
      "t": 8046.870708333335,
      "d": 301.3391249999995,
      "v": 96
    },
    {
      "midi": 69,
      "hit": false,
      "t": 8049.660885416668,
      "d": 273.4373541666664,
      "v": 94
    },
    {
      "midi": 60,
      "hit": false,
      "t": 8574.214177083335,
      "d": 1339.2850000000017,
      "v": 89
    },
    {
      "midi": 69,
      "hit": false,
      "t": 8574.214177083335,
      "d": 1383.927833333335,
      "v": 95
    },
    {
      "midi": 64,
      "hit": false,
      "t": 8577.00435416667,
      "d": 1350.4457083333346,
      "v": 93
    },
    {
      "midi": 53,
      "hit": false,
      "t": 8579.794531250003,
      "d": 1063.0574687499993,
      "v": 68
    },
    {
      "midi": 69,
      "hit": false,
      "t": 10708.699645833336,
      "d": 1411.829604166669,
      "v": 87
    },
    {
      "midi": 63,
      "hit": false,
      "t": 10711.48982291667,
      "d": 1344.865354166668,
      "v": 82
    },
    {
      "midi": 60,
      "hit": false,
      "t": 10714.280000000004,
      "d": 1347.6555312500004,
      "v": 86
    },
    {
      "midi": 58,
      "hit": false,
      "t": 12848.765468750005,
      "d": 686.3835625000011,
      "v": 74
    },
    {
      "midi": 62,
      "hit": false,
      "t": 12851.55564583334,
      "d": 527.3434687500012,
      "v": 78
    },
    {
      "midi": 65,
      "hit": false,
      "t": 12851.55564583334,
      "d": 577.566656250001,
      "v": 84
    },
    {
      "midi": 70,
      "hit": false,
      "t": 12851.55564583334,
      "d": 851.0040104166674,
      "v": 73
    },
    {
      "midi": 62,
      "hit": false,
      "t": 13766.733729166674,
      "d": 128.34814583333355,
      "v": 33
    },
    {
      "midi": 58,
      "hit": false,
      "t": 13911.822937500006,
      "d": 602.678249999999,
      "v": 64
    },
    {
      "midi": 62,
      "hit": false,
      "t": 14268.965604166673,
      "d": 150.6695624999993,
      "v": 89
    },
    {
      "midi": 70,
      "hit": false,
      "t": 14268.965604166673,
      "d": 301.3391249999986,
      "v": 87
    },
    {
      "midi": 65,
      "hit": false,
      "t": 14268.965604166673,
      "d": 304.12930208333273,
      "v": 96
    },
    {
      "midi": 62,
      "hit": false,
      "t": 14818.63048958334,
      "d": 30.691947916666322,
      "v": 36
    },
    {
      "midi": 64,
      "hit": false,
      "t": 15008.362531250006,
      "d": 588.7273645833338,
      "v": 87
    },
    {
      "midi": 57,
      "hit": false,
      "t": 15008.362531250006,
      "d": 613.8389583333337,
      "v": 75
    },
    {
      "midi": 60,
      "hit": false,
      "t": 15011.15270833334,
      "d": 599.8880729166667,
      "v": 93
    },
    {
      "midi": 69,
      "hit": false,
      "t": 15011.15270833334,
      "d": 611.0487812499996,
      "v": 88
    },
    {
      "midi": 64,
      "hit": false,
      "t": 16074.21017708334,
      "d": 544.0845312500023,
      "v": 85
    },
    {
      "midi": 66,
      "hit": false,
      "t": 16074.21017708334,
      "d": 544.0845312500023,
      "v": 75
    },
    {
      "midi": 69,
      "hit": false,
      "t": 16074.21017708334,
      "d": 558.0354166666693,
      "v": 89
    },
    {
      "midi": 60,
      "hit": false,
      "t": 16074.21017708334,
      "d": 569.1961250000022,
      "v": 87
    },
    {
      "midi": 64,
      "hit": false,
      "t": 17140.057822916675,
      "d": 518.9729374999988,
      "v": 87
    },
    {
      "midi": 69,
      "hit": false,
      "t": 17140.057822916675,
      "d": 566.4059479166644,
      "v": 93
    },
    {
      "midi": 60,
      "hit": false,
      "t": 17142.84800000001,
      "d": 530.1336458333317,
      "v": 86
    },
    {
      "midi": 60,
      "hit": false,
      "t": 18211.48582291667,
      "d": 348.7721354166679,
      "v": 79
    },
    {
      "midi": 66,
      "hit": false,
      "t": 18211.48582291667,
      "d": 376.6739062500019,
      "v": 76
    },
    {
      "midi": 69,
      "hit": false,
      "t": 18217.06617708334,
      "d": 371.09355208333363,
      "v": 86
    },
    {
      "midi": 62,
      "hit": false,
      "t": 19280.12364583334,
      "d": 990.512864583332,
      "v": 89
    },
    {
      "midi": 67,
      "hit": false,
      "t": 19280.12364583334,
      "d": 1004.463749999999,
      "v": 96
    },
    {
      "midi": 70,
      "hit": false,
      "t": 19280.12364583334,
      "d": 1043.5262291666659,
      "v": 81
    },
    {
      "midi": 67,
      "hit": false,
      "t": 21255.56902083334,
      "d": 108.81690624999828,
      "v": 79
    },
    {
      "midi": 55,
      "hit": false,
      "t": 21425.76982291667,
      "d": 1244.418979166665,
      "v": 74
    },
    {
      "midi": 67,
      "hit": false,
      "t": 21777.33213541667,
      "d": 1113.280656250001,
      "v": 78
    },
    {
      "midi": 74,
      "hit": false,
      "t": 21969.85435416667,
      "d": 839.8433020833327,
      "v": 103
    },
    {
      "midi": 70,
      "hit": false,
      "t": 21969.85435416667,
      "d": 876.1156041666654,
      "v": 81
    },
    {
      "midi": 79,
      "hit": false,
      "t": 21969.85435416667,
      "d": 876.1156041666654,
      "v": 92
    },
    {
      "midi": 60,
      "hit": false,
      "t": 23568.62582291667,
      "d": 1135.6020729166667,
      "v": 70
    },
    {
      "midi": 70,
      "hit": false,
      "t": 23568.62582291667,
      "d": 1233.258270833332,
      "v": 81
    },
    {
      "midi": 67,
      "hit": false,
      "t": 23568.62582291667,
      "d": 1252.7895104166637,
      "v": 84
    },
    {
      "midi": 72,
      "hit": false,
      "t": 23568.62582291667,
      "d": 1252.7895104166637,
      "v": 96
    },
    {
      "midi": 77,
      "hit": false,
      "t": 23568.62582291667,
      "d": 1269.5305729166648,
      "v": 87
    },
    {
      "midi": 53,
      "hit": false,
      "t": 25558.022083333337,
      "d": 1835.9365208333365,
      "v": 61
    },
    {
      "midi": 69,
      "hit": false,
      "t": 25563.602437500005,
      "d": 758.9281666666648,
      "v": 70
    },
    {
      "midi": 65,
      "hit": false,
      "t": 25686.37022916667,
      "d": 834.2629479166644,
      "v": 76
    },
    {
      "midi": 72,
      "hit": false,
      "t": 25694.74076041667,
      "d": 1026.7851666666684,
      "v": 90
    },
    {
      "midi": 77,
      "hit": false,
      "t": 25728.22288541667,
      "d": 1138.3922500000008,
      "v": 89
    },
    {
      "midi": 69,
      "hit": false,
      "t": 26601.548312500003,
      "d": 94.86602083333491,
      "v": 41
    },
    {
      "midi": 65,
      "hit": false,
      "t": 26799.65088541667,
      "d": 482.7006354166697,
      "v": 63
    },
    {
      "midi": 69,
      "hit": false,
      "t": 27131.681958333338,
      "d": 69.75442708333503,
      "v": 84
    },
    {
      "midi": 69,
      "hit": false,
      "t": 27315.83364583334,
      "d": 239.95522916666596,
      "v": 86
    },
    {
      "midi": 72,
      "hit": false,
      "t": 27318.623822916674,
      "d": 251.11593749999884,
      "v": 90
    },
    {
      "midi": 77,
      "hit": false,
      "t": 27318.623822916674,
      "d": 262.2766458333317,
      "v": 92
    },
    {
      "midi": 53,
      "hit": false,
      "t": 27857.128000000004,
      "d": 1827.5659895833232,
      "v": 74
    },
    {
      "midi": 69,
      "hit": false,
      "t": 27865.498531250003,
      "d": 594.3077187499985,
      "v": 82
    },
    {
      "midi": 72,
      "hit": false,
      "t": 27865.498531250003,
      "d": 630.5800208333312,
      "v": 88
    },
    {
      "midi": 76,
      "hit": false,
      "t": 27865.498531250003,
      "d": 680.803208333331,
      "v": 94
    },
    {
      "midi": 69,
      "hit": false,
      "t": 28911.8149375,
      "d": 323.66054166666436,
      "v": 61
    },
    {
      "midi": 72,
      "hit": false,
      "t": 28917.395291666668,
      "d": 295.75877083333035,
      "v": 66
    },
    {
      "midi": 76,
      "hit": false,
      "t": 28925.765822916666,
      "d": 253.90611458333296,
      "v": 65
    },
    {
      "midi": 72,
      "hit": false,
      "t": 29461.479822916663,
      "d": 175.78115624999919,
      "v": 77
    },
    {
      "midi": 76,
      "hit": false,
      "t": 29461.479822916663,
      "d": 192.52221875000032,
      "v": 86
    },
    {
      "midi": 69,
      "hit": false,
      "t": 29461.479822916663,
      "d": 212.05345833333195,
      "v": 71
    },
    {
      "midi": 72,
      "hit": false,
      "t": 30016.725062499994,
      "d": 273.43735416666823,
      "v": 79
    },
    {
      "midi": 53,
      "hit": false,
      "t": 30016.725062499994,
      "d": 1291.8519895833379,
      "v": 75
    },
    {
      "midi": 75,
      "hit": false,
      "t": 30019.51523958333,
      "d": 231.5846979166672,
      "v": 73
    },
    {
      "midi": 69,
      "hit": false,
      "t": 30019.51523958333,
      "d": 248.32576041666834,
      "v": 72
    },
    {
      "midi": 75,
      "hit": false,
      "t": 30566.38994791666,
      "d": 276.22753125000236,
      "v": 50
    },
    {
      "midi": 72,
      "hit": false,
      "t": 30566.38994791666,
      "d": 290.17841666666936,
      "v": 64
    },
    {
      "midi": 69,
      "hit": false,
      "t": 30571.97030208333,
      "d": 265.06682291666584,
      "v": 60
    },
    {
      "midi": 65,
      "hit": false,
      "t": 32131.679291666667,
      "d": 591.517541666668,
      "v": 81
    },
    {
      "midi": 70,
      "hit": false,
      "t": 32131.679291666667,
      "d": 669.6425000000017,
      "v": 70
    },
    {
      "midi": 74,
      "hit": false,
      "t": 32131.679291666667,
      "d": 694.7540937500016,
      "v": 90
    },
    {
      "midi": 58,
      "hit": false,
      "t": 32131.679291666667,
      "d": 775.6692291666695,
      "v": 59
    },
    {
      "midi": 58,
      "hit": false,
      "t": 33211.47782291667,
      "d": 507.8122291666732,
      "v": 60
    },
    {
      "midi": 74,
      "hit": false,
      "t": 33551.87942708334,
      "d": 292.9685937499962,
      "v": 96
    },
    {
      "midi": 65,
      "hit": false,
      "t": 33554.66960416667,
      "d": 223.21416666666482,
      "v": 79
    },
    {
      "midi": 70,
      "hit": false,
      "t": 33733.240937500006,
      "d": 306.9194791666596,
      "v": 73
    },
    {
      "midi": 57,
      "hit": false,
      "t": 34274.53529166667,
      "d": 611.0487812499996,
      "v": 85
    },
    {
      "midi": 72,
      "hit": false,
      "t": 34280.115645833335,
      "d": 580.3568333333315,
      "v": 81
    },
    {
      "midi": 64,
      "hit": false,
      "t": 34282.90582291667,
      "d": 563.615770833334,
      "v": 96
    },
    {
      "midi": 69,
      "hit": false,
      "t": 34282.90582291667,
      "d": 577.5666562499973,
      "v": 92
    },
    {
      "midi": 66,
      "hit": false,
      "t": 35359.91417708334,
      "d": 505.0220520833318,
      "v": 72
    },
    {
      "midi": 74,
      "hit": false,
      "t": 35362.70435416667,
      "d": 538.5041770833341,
      "v": 95
    },
    {
      "midi": 69,
      "hit": false,
      "t": 35365.494531250006,
      "d": 452.0086874999979,
      "v": 92
    },
    {
      "midi": 64,
      "hit": false,
      "t": 36436.92253125001,
      "d": 563.615770833334,
      "v": 82
    },
    {
      "midi": 69,
      "hit": false,
      "t": 36439.71270833335,
      "d": 513.3925833333342,
      "v": 88
    },
    {
      "midi": 72,
      "hit": false,
      "t": 36439.71270833335,
      "d": 513.3925833333342,
      "v": 94
    },
    {
      "midi": 66,
      "hit": false,
      "t": 37502.770177083345,
      "d": 365.513197916669,
      "v": 75
    },
    {
      "midi": 74,
      "hit": false,
      "t": 37502.770177083345,
      "d": 371.0935520833373,
      "v": 102
    },
    {
      "midi": 69,
      "hit": false,
      "t": 37505.56035416668,
      "d": 334.8212500000009,
      "v": 96
    },
    {
      "midi": 65,
      "hit": false,
      "t": 38579.77853125002,
      "d": 1768.9722708333356,
      "v": 86
    },
    {
      "midi": 70,
      "hit": false,
      "t": 38579.77853125002,
      "d": 1810.824927083333,
      "v": 85
    },
    {
      "midi": 74,
      "hit": false,
      "t": 38582.568708333354,
      "d": 1794.0838645833355,
      "v": 97
    },
    {
      "midi": 65,
      "hit": false,
      "t": 41063.03613541669,
      "d": 66.96424999999726,
      "v": 100
    },
    {
      "midi": 70,
      "hit": false,
      "t": 41247.18782291668,
      "d": 259.4864687500012,
      "v": 110
    },
    {
      "midi": 65,
      "hit": false,
      "t": 41595.959958333355,
      "d": 100.44637499999953,
      "v": 90
    },
    {
      "midi": 72,
      "hit": false,
      "t": 41796.852708333354,
      "d": 309.709656250001,
      "v": 108
    },
    {
      "midi": 65,
      "hit": false,
      "t": 41802.43306250002,
      "d": 50.22318749999977,
      "v": 72
    },
    {
      "midi": 74,
      "hit": false,
      "t": 42335.35688541669,
      "d": 133.9285000000018,
      "v": 110
    },
    {
      "midi": 70,
      "hit": false,
      "t": 42862.700354166685,
      "d": 1353.2358854166669,
      "v": 82
    },
    {
      "midi": 72,
      "hit": false,
      "t": 42865.49053125002,
      "d": 1350.4457083333327,
      "v": 100
    },
    {
      "midi": 77,
      "hit": false,
      "t": 42865.49053125002,
      "d": 1389.5081875000033,
      "v": 99
    },
    {
      "midi": 67,
      "hit": false,
      "t": 42868.280708333354,
      "d": 1350.4457083333327,
      "v": 94
    },
    {
      "midi": 72,
      "hit": false,
      "t": 44999.976000000024,
      "d": 510.60240625000006,
      "v": 81
    },
    {
      "midi": 77,
      "hit": false,
      "t": 44999.976000000024,
      "d": 530.1336458333317,
      "v": 93
    },
    {
      "midi": 69,
      "hit": false,
      "t": 44999.976000000024,
      "d": 538.5041770833341,
      "v": 71
    },
    {
      "midi": 65,
      "hit": false,
      "t": 44999.976000000024,
      "d": 1911.2713020833326,
      "v": 61
    },
    {
      "midi": 53,
      "hit": false,
      "t": 44999.976000000024,
      "d": 2229.3514895833287,
      "v": 61
    },
    {
      "midi": 77,
      "hit": false,
      "t": 45892.83266666669,
      "d": 189.73204166666983,
      "v": 85
    },
    {
      "midi": 72,
      "hit": false,
      "t": 46085.354885416695,
      "d": 700.3344479166626,
      "v": 70
    },
    {
      "midi": 77,
      "hit": false,
      "t": 46425.756489583364,
      "d": 170.20080208333093,
      "v": 83
    },
    {
      "midi": 81,
      "hit": false,
      "t": 46609.90817708336,
      "d": 315.29001041666197,
      "v": 102
    },
    {
      "midi": 79,
      "hit": false,
      "t": 47145.62217708335,
      "d": 524.5532916666707,
      "v": 87
    },
    {
      "midi": 72,
      "hit": false,
      "t": 47145.62217708335,
      "d": 641.7407291666677,
      "v": 82
    },
    {
      "midi": 60,
      "hit": false,
      "t": 47145.62217708335,
      "d": 1459.2626145833347,
      "v": 94
    },
    {
      "midi": 79,
      "hit": false,
      "t": 48027.31813541669,
      "d": 488.2809895833343,
      "v": 85
    },
    {
      "midi": 72,
      "hit": false,
      "t": 48211.46982291669,
      "d": 320.87036458333023,
      "v": 87
    },
    {
      "midi": 67,
      "hit": false,
      "t": 48211.46982291669,
      "d": 387.8346145833275,
      "v": 54
    },
    {
      "midi": 76,
      "hit": false,
      "t": 48560.241958333354,
      "d": 94.86602083333128,
      "v": 66
    },
    {
      "midi": 78,
      "hit": false,
      "t": 48749.97400000002,
      "d": 186.94186458332842,
      "v": 80
    },
    {
      "midi": 59,
      "hit": false,
      "t": 48752.76417708335,
      "d": 223.21416666665755,
      "v": 81
    },
    {
      "midi": 71,
      "hit": false,
      "t": 48752.76417708335,
      "d": 226.00434374999168,
      "v": 84
    },
    {
      "midi": 70,
      "hit": false,
      "t": 49291.26835416668,
      "d": 320.8703645833375,
      "v": 74
    },
    {
      "midi": 58,
      "hit": false,
      "t": 49291.26835416668,
      "d": 2036.8292708333538,
      "v": 51
    },
    {
      "midi": 74,
      "hit": false,
      "t": 49294.05853125001,
      "d": 345.9819583333374,
      "v": 92
    },
    {
      "midi": 77,
      "hit": false,
      "t": 49294.05853125001,
      "d": 345.9819583333374,
      "v": 93
    },
    {
      "midi": 77,
      "hit": false,
      "t": 50186.915197916685,
      "d": 362.7230208333349,
      "v": 82
    },
    {
      "midi": 70,
      "hit": false,
      "t": 50365.48653125002,
      "d": 267.8570000000036,
      "v": 72
    },
    {
      "midi": 74,
      "hit": false,
      "t": 50700.30778125002,
      "d": 198.10257291667222,
      "v": 77
    },
    {
      "midi": 77,
      "hit": false,
      "t": 50887.249645833355,
      "d": 326.45071875000576,
      "v": 98
    },
    {
      "midi": 74,
      "hit": false,
      "t": 51247.18248958336,
      "d": 153.45973958333343,
      "v": 52
    },
    {
      "midi": 60,
      "hit": false,
      "t": 51420.17346875003,
      "d": 867.745072916674,
      "v": 86
    },
    {
      "midi": 72,
      "hit": false,
      "t": 51428.54400000003,
      "d": 602.6782500000045,
      "v": 85
    },
    {
      "midi": 67,
      "hit": false,
      "t": 51431.334177083365,
      "d": 566.4059479166681,
      "v": 89
    },
    {
      "midi": 76,
      "hit": false,
      "t": 51431.334177083365,
      "d": 616.6291354166679,
      "v": 87
    },
    {
      "midi": 76,
      "hit": false,
      "t": 52315.82031250004,
      "d": 136.71867708333593,
      "v": 76
    },
    {
      "midi": 72,
      "hit": false,
      "t": 52318.61048958337,
      "d": 136.71867708333593,
      "v": 75
    },
    {
      "midi": 60,
      "hit": false,
      "t": 52511.132708333374,
      "d": 828.6825937500034,
      "v": 68
    },
    {
      "midi": 67,
      "hit": false,
      "t": 53030.10564583338,
      "d": 209.26328125000146,
      "v": 71
    },
    {
      "midi": 72,
      "hit": false,
      "t": 53038.47617708338,
      "d": 256.6962916666671,
      "v": 81
    },
    {
      "midi": 76,
      "hit": false,
      "t": 53041.26635416671,
      "d": 424.1069166666639,
      "v": 73
    },
    {
      "midi": 67,
      "hit": false,
      "t": 53401.199197916714,
      "d": 92.07584374999715,
      "v": 71
    },
    {
      "midi": 57,
      "hit": false,
      "t": 53571.400000000045,
      "d": 1866.6284687500083,
      "v": 81
    },
    {
      "midi": 76,
      "hit": false,
      "t": 54107.114000000045,
      "d": 248.3257604166647,
      "v": 76
    },
    {
      "midi": 69,
      "hit": false,
      "t": 54109.90417708338,
      "d": 245.53558333333058,
      "v": 77
    },
    {
      "midi": 72,
      "hit": false,
      "t": 54109.90417708338,
      "d": 251.11593749999884,
      "v": 77
    },
    {
      "midi": 79,
      "hit": false,
      "t": 54115.48453125005,
      "d": 226.00434374999895,
      "v": 66
    },
    {
      "midi": 69,
      "hit": false,
      "t": 54469.83702083338,
      "d": 61.38389583333628,
      "v": 62
    },
    {
      "midi": 76,
      "hit": false,
      "t": 54469.83702083338,
      "d": 66.96425000000454,
      "v": 74
    },
    {
      "midi": 72,
      "hit": false,
      "t": 54469.83702083338,
      "d": 69.75442708333867,
      "v": 66
    },
    {
      "midi": 79,
      "hit": false,
      "t": 54469.83702083338,
      "d": 72.5446041666728,
      "v": 62
    },
    {
      "midi": 64,
      "hit": false,
      "t": 54659.56906250006,
      "d": 764.508520833333,
      "v": 49
    },
    {
      "midi": 69,
      "hit": false,
      "t": 55175.751822916725,
      "d": 220.4239895833307,
      "v": 62
    },
    {
      "midi": 72,
      "hit": false,
      "t": 55175.751822916725,
      "d": 449.2185104166638,
      "v": 75
    },
    {
      "midi": 76,
      "hit": false,
      "t": 55175.751822916725,
      "d": 507.81222916666593,
      "v": 68
    },
    {
      "midi": 79,
      "hit": false,
      "t": 55175.751822916725,
      "d": 719.8656874999942,
      "v": 76
    },
    {
      "midi": 69,
      "hit": false,
      "t": 55524.52395833339,
      "d": 106.02672916666779,
      "v": 73
    },
    {
      "midi": 57,
      "hit": false,
      "t": 55708.67564583339,
      "d": 1961.4944895833323,
      "v": 74
    },
    {
      "midi": 64,
      "hit": false,
      "t": 55722.626531250055,
      "d": 870.5352500000008,
      "v": 69
    },
    {
      "midi": 69,
      "hit": false,
      "t": 56247.17982291672,
      "d": 393.414968750003,
      "v": 26
    },
    {
      "midi": 76,
      "hit": false,
      "t": 56247.17982291672,
      "d": 412.94620833333465,
      "v": 68
    },
    {
      "midi": 79,
      "hit": false,
      "t": 56249.97000000005,
      "d": 496.6515208333367,
      "v": 71
    },
    {
      "midi": 72,
      "hit": false,
      "t": 56252.760177083386,
      "d": 390.6247916666689,
      "v": 51
    },
    {
      "midi": 64,
      "hit": false,
      "t": 56794.054531250054,
      "d": 792.410291666667,
      "v": 47
    },
    {
      "midi": 69,
      "hit": false,
      "t": 57137.24631250006,
      "d": 256.6962916666671,
      "v": 57
    },
    {
      "midi": 72,
      "hit": false,
      "t": 57137.24631250006,
      "d": 368.30337500000314,
      "v": 72
    },
    {
      "midi": 76,
      "hit": false,
      "t": 57137.24631250006,
      "d": 390.6247916666689,
      "v": 76
    },
    {
      "midi": 79,
      "hit": false,
      "t": 57137.24631250006,
      "d": 432.4774479166663,
      "v": 77
    },
    {
      "midi": 69,
      "hit": false,
      "t": 57670.17013541672,
      "d": 86.49548958333617,
      "v": 77
    },
    {
      "midi": 62,
      "hit": false,
      "t": 57857.11200000006,
      "d": 1953.12395833333,
      "v": 77
    },
    {
      "midi": 69,
      "hit": false,
      "t": 58222.62519791672,
      "d": 661.2719687500066,
      "v": 61
    },
    {
      "midi": 72,
      "hit": false,
      "t": 58401.196531250054,
      "d": 220.42398958333797,
      "v": 73
    },
    {
      "midi": 78,
      "hit": false,
      "t": 58403.98670833339,
      "d": 463.1693958333417,
      "v": 74
    },
    {
      "midi": 74,
      "hit": false,
      "t": 58406.77688541672,
      "d": 203.6829270833332,
      "v": 87
    },
    {
      "midi": 74,
      "hit": false,
      "t": 58761.12937500006,
      "d": 86.49548958333617,
      "v": 51
    },
    {
      "midi": 72,
      "hit": false,
      "t": 58763.9195520834,
      "d": 75.33478124999965,
      "v": 46
    },
    {
      "midi": 50,
      "hit": false,
      "t": 58942.49088541673,
      "d": 987.7226874999906,
      "v": 53
    },
    {
      "midi": 69,
      "hit": false,
      "t": 59302.42372916673,
      "d": 251.11593749999884,
      "v": 32
    },
    {
      "midi": 74,
      "hit": false,
      "t": 59469.83435416673,
      "d": 206.47310416666733,
      "v": 84
    },
    {
      "midi": 72,
      "hit": false,
      "t": 59469.83435416673,
      "d": 292.9685937499962,
      "v": 72
    },
    {
      "midi": 78,
      "hit": false,
      "t": 59472.62453125006,
      "d": 226.00434374999895,
      "v": 81
    },
    {
      "midi": 69,
      "hit": false,
      "t": 59810.23595833339,
      "d": 80.91513541666791,
      "v": 75
    },
    {
      "midi": 55,
      "hit": false,
      "t": 59994.38764583338,
      "d": 1861.04811458334,
      "v": 82
    },
    {
      "midi": 67,
      "hit": false,
      "t": 60365.48119791671,
      "d": 410.1560312500005,
      "v": 47
    },
    {
      "midi": 74,
      "hit": false,
      "t": 60530.10164583338,
      "d": 239.95522916666232,
      "v": 87
    },
    {
      "midi": 79,
      "hit": false,
      "t": 60530.10164583338,
      "d": 619.419312500002,
      "v": 68
    },
    {
      "midi": 70,
      "hit": false,
      "t": 60532.89182291672,
      "d": 223.21416666666482,
      "v": 50
    },
    {
      "midi": 74,
      "hit": false,
      "t": 60887.24431250005,
      "d": 150.6695624999993,
      "v": 71
    },
    {
      "midi": 70,
      "hit": false,
      "t": 60887.24431250005,
      "d": 159.0400937500017,
      "v": 41
    },
    {
      "midi": 67,
      "hit": false,
      "t": 60887.24431250005,
      "d": 164.62044791666995,
      "v": 52
    },
    {
      "midi": 62,
      "hit": false,
      "t": 61085.34688541672,
      "d": 664.0621458333335,
      "v": 54
    },
    {
      "midi": 67,
      "hit": false,
      "t": 61431.32884375005,
      "d": 262.27664583333535,
      "v": 51
    },
    {
      "midi": 70,
      "hit": false,
      "t": 61604.31982291672,
      "d": 172.99097916667233,
      "v": 59
    },
    {
      "midi": 79,
      "hit": false,
      "t": 61607.11000000005,
      "d": 192.52221875000396,
      "v": 85
    },
    {
      "midi": 74,
      "hit": false,
      "t": 61609.900177083386,
      "d": 181.36151041666744,
      "v": 95
    },
    {
      "midi": 60,
      "hit": false,
      "t": 62134.453468750056,
      "d": 181.36151041666744,
      "v": 92
    },
    {
      "midi": 76,
      "hit": false,
      "t": 62137.24364583339,
      "d": 136.71867708333593,
      "v": 89
    },
    {
      "midi": 67,
      "hit": false,
      "t": 62137.24364583339,
      "d": 153.45973958333343,
      "v": 83
    },
    {
      "midi": 72,
      "hit": false,
      "t": 62137.24364583339,
      "d": 172.99097916666506,
      "v": 91
    },
    {
      "midi": 70,
      "hit": false,
      "t": 62684.11835416673,
      "d": 220.4239895833307,
      "v": 84
    },
    {
      "midi": 74,
      "hit": false,
      "t": 62684.11835416673,
      "d": 292.9685937499962,
      "v": 100
    },
    {
      "midi": 58,
      "hit": false,
      "t": 62684.11835416673,
      "d": 309.7096562499937,
      "v": 91
    },
    {
      "midi": 77,
      "hit": false,
      "t": 62686.90853125006,
      "d": 265.0668229166622,
      "v": 98
    },
    {
      "midi": 60,
      "hit": false,
      "t": 63032.890489583384,
      "d": 1102.1199479166607,
      "v": 90
    },
    {
      "midi": 72,
      "hit": false,
      "t": 63038.47084375005,
      "d": 990.5128645833247,
      "v": 91
    },
    {
      "midi": 67,
      "hit": false,
      "t": 63038.47084375005,
      "d": 1035.1556979166562,
      "v": 82
    },
    {
      "midi": 76,
      "hit": false,
      "t": 63041.261020833386,
      "d": 973.7718020833272,
      "v": 93
    },
    {
      "midi": 58,
      "hit": false,
      "t": 64826.97435416671,
      "d": 287.38823958333523,
      "v": 76
    },
    {
      "midi": 70,
      "hit": false,
      "t": 64829.764531250046,
      "d": 212.05345833333558,
      "v": 78
    },
    {
      "midi": 74,
      "hit": false,
      "t": 64832.55470833338,
      "d": 172.99097916666506,
      "v": 94
    },
    {
      "midi": 77,
      "hit": false,
      "t": 64832.55470833338,
      "d": 175.78115624999919,
      "v": 87
    },
    {
      "midi": 60,
      "hit": false,
      "t": 65184.11702083338,
      "d": 1060.267291666678,
      "v": 89
    },
    {
      "midi": 67,
      "hit": false,
      "t": 65186.90719791671,
      "d": 973.7718020833345,
      "v": 74
    },
    {
      "midi": 72,
      "hit": false,
      "t": 65186.90719791671,
      "d": 979.3521562500027,
      "v": 88
    },
    {
      "midi": 76,
      "hit": false,
      "t": 65186.90719791671,
      "d": 1001.6735729166758,
      "v": 86
    },
    {
      "midi": 69,
      "hit": false,
      "t": 66450.85741666672,
      "d": 340.40160416666185,
      "v": 89
    },
    {
      "midi": 53,
      "hit": false,
      "t": 66450.85741666672,
      "d": 1877.7891770833376,
      "v": 74
    },
    {
      "midi": 65,
      "hit": false,
      "t": 66453.64759375005,
      "d": 337.611427083335,
      "v": 83
    },
    {
      "midi": 72,
      "hit": false,
      "t": 66453.64759375005,
      "d": 376.67390624999825,
      "v": 92
    },
    {
      "midi": 60,
      "hit": false,
      "t": 67561.34789583339,
      "d": 605.4684270833386,
      "v": 52
    },
    {
      "midi": 69,
      "hit": false,
      "t": 67823.62454166672,
      "d": 672.4326770833286,
      "v": 96
    },
    {
      "midi": 72,
      "hit": false,
      "t": 68035.67800000006,
      "d": 334.8212499999936,
      "v": 88
    },
    {
      "midi": 77,
      "hit": false,
      "t": 68356.54836458339,
      "d": 178.57133333332604,
      "v": 94
    },
    {
      "midi": 69,
      "hit": false,
      "t": 68571.39200000005,
      "d": 262.27664583333535,
      "v": 84
    },
    {
      "midi": 76,
      "hit": false,
      "t": 68571.39200000005,
      "d": 345.9819583333301,
      "v": 101
    },
    {
      "midi": 53,
      "hit": false,
      "t": 68571.39200000005,
      "d": 1869.4186458332842,
      "v": 70
    },
    {
      "midi": 69,
      "hit": false,
      "t": 68978.75785416672,
      "d": 89.28566666666302,
      "v": 50
    },
    {
      "midi": 72,
      "hit": false,
      "t": 69469.82902083338,
      "d": 496.65152083331486,
      "v": 96
    },
    {
      "midi": 76,
      "hit": false,
      "t": 69472.6191979167,
      "d": 507.8122291666514,
      "v": 93
    },
    {
      "midi": 69,
      "hit": false,
      "t": 69475.40937500003,
      "d": 507.8122291666514,
      "v": 84
    },
    {
      "midi": 72,
      "hit": false,
      "t": 70195.27506250002,
      "d": 186.94186458332115,
      "v": 97
    },
    {
      "midi": 69,
      "hit": false,
      "t": 70203.64559375001,
      "d": 175.78115624999919,
      "v": 92
    },
    {
      "midi": 53,
      "hit": false,
      "t": 70694.71676041668,
      "d": 491.0711666666757,
      "v": 82
    },
    {
      "midi": 69,
      "hit": false,
      "t": 70694.71676041668,
      "d": 630.5800208333385,
      "v": 90
    },
    {
      "midi": 72,
      "hit": false,
      "t": 70694.71676041668,
      "d": 680.8032083333383,
      "v": 98
    },
    {
      "midi": 75,
      "hit": false,
      "t": 70694.71676041668,
      "d": 689.1737395833334,
      "v": 93
    },
    {
      "midi": 69,
      "hit": false,
      "t": 71590.36360416668,
      "d": 44.64283333333151,
      "v": 52
    },
    {
      "midi": 69,
      "hit": false,
      "t": 72134.44813541668,
      "d": 53.01336458332662,
      "v": 86
    },
    {
      "midi": 69,
      "hit": false,
      "t": 72313.01946875,
      "d": 133.92849999999453,
      "v": 90
    },
    {
      "midi": 72,
      "hit": false,
      "t": 72315.80964583333,
      "d": 186.9418645833357,
      "v": 93
    },
    {
      "midi": 75,
      "hit": false,
      "t": 72315.80964583333,
      "d": 192.52221875000396,
      "v": 95
    },
    {
      "midi": 58,
      "hit": false,
      "t": 72865.47453125,
      "d": 683.5933854166651,
      "v": 73
    },
    {
      "midi": 70,
      "hit": false,
      "t": 72879.42541666667,
      "d": 290.17841666667664,
      "v": 87
    },
    {
      "midi": 65,
      "hit": false,
      "t": 72879.42541666667,
      "d": 309.70965625000827,
      "v": 92
    },
    {
      "midi": 74,
      "hit": false,
      "t": 72879.42541666667,
      "d": 315.2900104166765,
      "v": 100
    },
    {
      "midi": 70,
      "hit": false,
      "t": 73420.71977083334,
      "d": 530.1336458333244,
      "v": 89
    },
    {
      "midi": 65,
      "hit": false,
      "t": 73420.71977083334,
      "d": 580.3568333333242,
      "v": 90
    },
    {
      "midi": 74,
      "hit": false,
      "t": 73420.71977083334,
      "d": 605.4684270833241,
      "v": 102
    },
    {
      "midi": 65,
      "hit": false,
      "t": 74282.88448958333,
      "d": 290.1784166666621,
      "v": 118
    },
    {
      "midi": 58,
      "hit": false,
      "t": 74472.61653125,
      "d": 192.52221875000396,
      "v": 99
    },
    {
      "midi": 74,
      "hit": false,
      "t": 74637.23697916666,
      "d": 195.31239583334536,
      "v": 107
    },
    {
      "midi": 65,
      "hit": false,
      "t": 74659.55839583333,
      "d": 262.27664583333535,
      "v": 80
    },
    {
      "midi": 70,
      "hit": false,
      "t": 74796.27707291667,
      "d": 114.3972604166629,
      "v": 103
    },
    {
      "midi": 69,
      "hit": false,
      "t": 75019.49123958334,
      "d": 644.5309062500019,
      "v": 107
    },
    {
      "midi": 72,
      "hit": false,
      "t": 75019.49123958334,
      "d": 661.2719687500066,
      "v": 106
    },
    {
      "midi": 57,
      "hit": false,
      "t": 75019.49123958334,
      "d": 1015.6244583333173,
      "v": 98
    },
    {
      "midi": 72,
      "hit": false,
      "t": 75870.49525,
      "d": 136.71867708332138,
      "v": 88
    },
    {
      "midi": 69,
      "hit": false,
      "t": 75878.86578125,
      "d": 89.28566666666302,
      "v": 88
    },
    {
      "midi": 62,
      "hit": false,
      "t": 76082.54870833331,
      "d": 823.1022395833425,
      "v": 88
    },
    {
      "midi": 69,
      "hit": false,
      "t": 76422.95031249998,
      "d": 304.12930208334,
      "v": 89
    },
    {
      "midi": 74,
      "hit": false,
      "t": 76422.95031249998,
      "d": 376.6739062500128,
      "v": 96
    },
    {
      "midi": 72,
      "hit": false,
      "t": 77167.92759374999,
      "d": 228.79452083334036,
      "v": 96
    },
    {
      "midi": 76,
      "hit": false,
      "t": 77167.92759374999,
      "d": 234.37487500000861,
      "v": 98
    },
    {
      "midi": 69,
      "hit": false,
      "t": 77167.92759374999,
      "d": 298.54894791667175,
      "v": 88
    },
    {
      "midi": 57,
      "hit": false,
      "t": 77167.92759374999,
      "d": 770.0888750000013,
      "v": 89
    },
    {
      "midi": 79,
      "hit": false,
      "t": 77686.90053125,
      "d": 262.27664583333535,
      "v": 97
    },
    {
      "midi": 72,
      "hit": false,
      "t": 77686.90053125,
      "d": 438.05780208333454,
      "v": 95
    },
    {
      "midi": 69,
      "hit": false,
      "t": 77692.48088541666,
      "d": 379.46408333333966,
      "v": 85
    },
    {
      "midi": 76,
      "hit": false,
      "t": 78016.14142708333,
      "d": 114.3972604166629,
      "v": 83
    },
    {
      "midi": 69,
      "hit": false,
      "t": 78214.24399999999,
      "d": 304.12930208334,
      "v": 85
    },
    {
      "midi": 78,
      "hit": false,
      "t": 78214.24399999999,
      "d": 304.12930208334,
      "v": 94
    },
    {
      "midi": 62,
      "hit": false,
      "t": 78219.82435416666,
      "d": 731.026395833338,
      "v": 89
    },
    {
      "midi": 74,
      "hit": false,
      "t": 78228.19488541665,
      "d": 298.54894791667175,
      "v": 103
    },
    {
      "midi": 69,
      "hit": false,
      "t": 78763.90888541666,
      "d": 119.97761458333116,
      "v": 90
    },
    {
      "midi": 78,
      "hit": false,
      "t": 78763.90888541666,
      "d": 153.45973958332615,
      "v": 94
    },
    {
      "midi": 74,
      "hit": false,
      "t": 78763.90888541666,
      "d": 164.62044791666267,
      "v": 103
    },
    {
      "midi": 55,
      "hit": false,
      "t": 79135.00243749999,
      "d": 1665.735718750002,
      "v": 79
    },
    {
      "midi": 67,
      "hit": false,
      "t": 79260.56040624999,
      "d": 806.3611770833377,
      "v": 81
    },
    {
      "midi": 62,
      "hit": false,
      "t": 79271.72111458333,
      "d": 764.508520833333,
      "v": 87
    },
    {
      "midi": 70,
      "hit": false,
      "t": 79277.30146875,
      "d": 965.4012708333321,
      "v": 82
    },
    {
      "midi": 74,
      "hit": false,
      "t": 79285.67199999999,
      "d": 957.030739583337,
      "v": 100
    },
    {
      "midi": 79,
      "hit": false,
      "t": 79305.20323958332,
      "d": 1065.8476458333316,
      "v": 106
    },
    {
      "midi": 67,
      "hit": false,
      "t": 80170.15813541666,
      "d": 136.71867708333593,
      "v": 71
    },
    {
      "midi": 55,
      "hit": false,
      "t": 81425.73782291666,
      "d": 1830.35616666665,
      "v": 56
    },
    {
      "midi": 62,
      "hit": false,
      "t": 81434.10835416666,
      "d": 1824.7758124999818,
      "v": 52
    },
    {
      "midi": 70,
      "hit": false,
      "t": 81958.66164583333,
      "d": 253.90611458334024,
      "v": 85
    },
    {
      "midi": 79,
      "hit": false,
      "t": 81958.66164583333,
      "d": 253.90611458334024,
      "v": 104
    },
    {
      "midi": 74,
      "hit": false,
      "t": 81975.40270833333,
      "d": 200.89274999999907,
      "v": 100
    },
    {
      "midi": 70,
      "hit": false,
      "t": 82513.90688541667,
      "d": 234.37487499999406,
      "v": 79
    },
    {
      "midi": 77,
      "hit": false,
      "t": 82516.6970625,
      "d": 239.95522916666232,
      "v": 103
    },
    {
      "midi": 70,
      "hit": false,
      "t": 82829.19689583333,
      "d": 332.0310729166522,
      "v": 87
    },
    {
      "midi": 79,
      "hit": false,
      "t": 82837.56742708333,
      "d": 309.7096562499937,
      "v": 99
    },
    {
      "midi": 74,
      "hit": false,
      "t": 82837.56742708333,
      "d": 315.29001041666197,
      "v": 103
    },
    {
      "midi": 72,
      "hit": false,
      "t": 83571.38399999998,
      "d": 1369.9769479166716,
      "v": 89
    },
    {
      "midi": 67,
      "hit": false,
      "t": 83571.38399999998,
      "d": 1381.1376562500081,
      "v": 82
    },
    {
      "midi": 70,
      "hit": false,
      "t": 83571.38399999998,
      "d": 1381.1376562500081,
      "v": 70
    },
    {
      "midi": 77,
      "hit": false,
      "t": 83571.38399999998,
      "d": 1420.2001354166714,
      "v": 81
    },
    {
      "midi": 60,
      "hit": false,
      "t": 83571.38399999998,
      "d": 1506.6956250000076,
      "v": 73
    },
    {
      "midi": 65,
      "hit": false,
      "t": 85703.07929166665,
      "d": 809.1513541666791,
      "v": 74
    },
    {
      "midi": 53,
      "hit": false,
      "t": 85703.07929166665,
      "d": 1760.6017395833333,
      "v": 83
    },
    {
      "midi": 69,
      "hit": false,
      "t": 85708.65964583332,
      "d": 231.5846979166672,
      "v": 70
    },
    {
      "midi": 72,
      "hit": false,
      "t": 85708.65964583332,
      "d": 348.7721354166715,
      "v": 80
    },
    {
      "midi": 77,
      "hit": false,
      "t": 85708.65964583332,
      "d": 362.7230208333349,
      "v": 87
    },
    {
      "midi": 69,
      "hit": false,
      "t": 86247.16382291666,
      "d": 398.9953229166713,
      "v": 93
    },
    {
      "midi": 72,
      "hit": false,
      "t": 86414.57444791666,
      "d": 172.99097916667233,
      "v": 68
    },
    {
      "midi": 77,
      "hit": false,
      "t": 86573.61454166667,
      "d": 181.3615104166529,
      "v": 77
    },
    {
      "midi": 69,
      "hit": false,
      "t": 86780.08764583332,
      "d": 200.89274999998452,
      "v": 68
    },
    {
      "midi": 76,
      "hit": false,
      "t": 86782.87782291665,
      "d": 290.1784166666621,
      "v": 91
    },
    {
      "midi": 64,
      "hit": false,
      "t": 86782.87782291665,
      "d": 851.0040104166692,
      "v": 63
    },
    {
      "midi": 69,
      "hit": false,
      "t": 87145.60084374998,
      "d": 429.6872708333394,
      "v": 63
    },
    {
      "midi": 72,
      "hit": false,
      "t": 87340.91323958331,
      "d": 312.4998333333351,
      "v": 77
    },
    {
      "midi": 76,
      "hit": false,
      "t": 87686.89519791664,
      "d": 114.3972604166629,
      "v": 71
    },
    {
      "midi": 55,
      "hit": false,
      "t": 87854.30582291663,
      "d": 926.3387916666252,
      "v": 78
    },
    {
      "midi": 62,
      "hit": false,
      "t": 87871.04688541664,
      "d": 909.5977291666204,
      "v": 76
    },
    {
      "midi": 74,
      "hit": false,
      "t": 87879.41741666663,
      "d": 385.0444374999788,
      "v": 65
    },
    {
      "midi": 67,
      "hit": false,
      "t": 87884.9977708333,
      "d": 181.3615104166529,
      "v": 41
    },
    {
      "midi": 70,
      "hit": false,
      "t": 87884.9977708333,
      "d": 295.7587708333158,
      "v": 50
    },
    {
      "midi": 65,
      "hit": false,
      "t": 87893.3683020833,
      "d": 119.97761458333116,
      "v": 65
    },
    {
      "midi": 74,
      "hit": false,
      "t": 88429.08230208328,
      "d": 122.76779166665801,
      "v": 79
    },
    {
      "midi": 67,
      "hit": false,
      "t": 88429.08230208328,
      "d": 156.249916666653,
      "v": 70
    },
    {
      "midi": 70,
      "hit": false,
      "t": 88431.8724791666,
      "d": 133.92849999999453,
      "v": 69
    },
    {
      "midi": 70,
      "hit": false,
      "t": 88939.68470833325,
      "d": 298.54894791667175,
      "v": 72
    },
    {
      "midi": 72,
      "hit": false,
      "t": 88939.68470833325,
      "d": 306.91947916666686,
      "v": 80
    },
    {
      "midi": 65,
      "hit": false,
      "t": 88939.68470833325,
      "d": 318.0801875000034,
      "v": 77
    },
    {
      "midi": 60,
      "hit": false,
      "t": 88939.68470833325,
      "d": 820.3120624999865,
      "v": 84
    },
    {
      "midi": 70,
      "hit": false,
      "t": 89478.18888541659,
      "d": 223.21416666665755,
      "v": 70
    },
    {
      "midi": 72,
      "hit": false,
      "t": 89478.18888541659,
      "d": 239.95522916666232,
      "v": 82
    },
    {
      "midi": 65,
      "hit": false,
      "t": 89478.18888541659,
      "d": 242.74540624998917,
      "v": 74
    },
    {
      "midi": 72,
      "hit": false,
      "t": 89999.9519999999,
      "d": 510.6024062499928,
      "v": 81
    },
    {
      "midi": 77,
      "hit": false,
      "t": 89999.9519999999,
      "d": 530.1336458333244,
      "v": 93
    },
    {
      "midi": 69,
      "hit": false,
      "t": 89999.9519999999,
      "d": 538.5041770833195,
      "v": 71
    },
    {
      "midi": 65,
      "hit": false,
      "t": 89999.9519999999,
      "d": 1911.2713020833035,
      "v": 61
    },
    {
      "midi": 53,
      "hit": false,
      "t": 89999.9519999999,
      "d": 2229.3514895832923,
      "v": 61
    },
    {
      "midi": 77,
      "hit": false,
      "t": 90892.80866666656,
      "d": 189.73204166666255,
      "v": 85
    },
    {
      "midi": 72,
      "hit": false,
      "t": 91085.33088541655,
      "d": 700.3344479166553,
      "v": 70
    },
    {
      "midi": 77,
      "hit": false,
      "t": 91425.73248958321,
      "d": 170.20080208333093,
      "v": 83
    },
    {
      "midi": 81,
      "hit": false,
      "t": 91609.88417708321,
      "d": 315.29001041666197,
      "v": 102
    },
    {
      "midi": 79,
      "hit": false,
      "t": 92145.5981770832,
      "d": 524.5532916666707,
      "v": 87
    },
    {
      "midi": 72,
      "hit": false,
      "t": 92145.5981770832,
      "d": 641.740729166675,
      "v": 82
    },
    {
      "midi": 60,
      "hit": false,
      "t": 92145.5981770832,
      "d": 1459.2626145833347,
      "v": 94
    },
    {
      "midi": 79,
      "hit": false,
      "t": 93027.29413541654,
      "d": 488.2809895833343,
      "v": 85
    },
    {
      "midi": 72,
      "hit": false,
      "t": 93211.44582291653,
      "d": 320.8703645833448,
      "v": 87
    },
    {
      "midi": 67,
      "hit": false,
      "t": 93211.44582291653,
      "d": 387.83461458333477,
      "v": 54
    },
    {
      "midi": 76,
      "hit": false,
      "t": 93560.2179583332,
      "d": 94.86602083333128,
      "v": 66
    },
    {
      "midi": 78,
      "hit": false,
      "t": 93749.94999999987,
      "d": 186.9418645833357,
      "v": 80
    },
    {
      "midi": 59,
      "hit": false,
      "t": 93752.7401770832,
      "d": 223.2141666666721,
      "v": 81
    },
    {
      "midi": 71,
      "hit": false,
      "t": 93752.7401770832,
      "d": 226.00434374999895,
      "v": 84
    },
    {
      "midi": 70,
      "hit": false,
      "t": 94291.24435416653,
      "d": 320.8703645833157,
      "v": 74
    },
    {
      "midi": 58,
      "hit": false,
      "t": 94291.24435416653,
      "d": 2036.8292708333029,
      "v": 51
    },
    {
      "midi": 74,
      "hit": false,
      "t": 94294.03453124985,
      "d": 345.98195833331556,
      "v": 92
    },
    {
      "midi": 77,
      "hit": false,
      "t": 94294.03453124985,
      "d": 345.98195833331556,
      "v": 93
    },
    {
      "midi": 77,
      "hit": false,
      "t": 95186.8911979165,
      "d": 362.7230208333349,
      "v": 82
    },
    {
      "midi": 70,
      "hit": false,
      "t": 95365.46253124984,
      "d": 267.85699999998906,
      "v": 72
    },
    {
      "midi": 74,
      "hit": false,
      "t": 95700.28378124983,
      "d": 198.10257291667222,
      "v": 77
    },
    {
      "midi": 77,
      "hit": false,
      "t": 95887.22564583317,
      "d": 326.4507187499985,
      "v": 98
    },
    {
      "midi": 74,
      "hit": false,
      "t": 96247.15848958316,
      "d": 153.4597395833407,
      "v": 52
    },
    {
      "midi": 60,
      "hit": false,
      "t": 96420.14946874983,
      "d": 867.7450729166449,
      "v": 86
    },
    {
      "midi": 72,
      "hit": false,
      "t": 96428.51999999983,
      "d": 602.6782499999827,
      "v": 85
    },
    {
      "midi": 67,
      "hit": false,
      "t": 96431.31017708316,
      "d": 566.4059479166608,
      "v": 89
    },
    {
      "midi": 76,
      "hit": false,
      "t": 96431.31017708316,
      "d": 616.6291354166606,
      "v": 87
    },
    {
      "midi": 76,
      "hit": false,
      "t": 97315.7963124998,
      "d": 136.71867708332138,
      "v": 76
    },
    {
      "midi": 72,
      "hit": false,
      "t": 97318.58648958313,
      "d": 136.71867708332138,
      "v": 75
    },
    {
      "midi": 60,
      "hit": false,
      "t": 97511.10870833312,
      "d": 828.6825937499962,
      "v": 68
    },
    {
      "midi": 67,
      "hit": false,
      "t": 98030.08164583312,
      "d": 209.26328124999418,
      "v": 71
    },
    {
      "midi": 72,
      "hit": false,
      "t": 98038.45217708312,
      "d": 256.6962916666671,
      "v": 81
    },
    {
      "midi": 76,
      "hit": false,
      "t": 98041.24235416645,
      "d": 424.10691666667117,
      "v": 73
    },
    {
      "midi": 67,
      "hit": false,
      "t": 98401.17519791645,
      "d": 92.07584374998987,
      "v": 71
    },
    {
      "midi": 57,
      "hit": false,
      "t": 98571.37599999977,
      "d": 1866.6284687499574,
      "v": 81
    },
    {
      "midi": 76,
      "hit": false,
      "t": 99107.08999999976,
      "d": 248.32576041667198,
      "v": 76
    },
    {
      "midi": 69,
      "hit": false,
      "t": 99109.88017708309,
      "d": 245.53558333334513,
      "v": 77
    },
    {
      "midi": 72,
      "hit": false,
      "t": 99109.88017708309,
      "d": 251.1159375000134,
      "v": 77
    },
    {
      "midi": 79,
      "hit": false,
      "t": 99115.46053124976,
      "d": 226.0043437500135,
      "v": 66
    },
    {
      "midi": 69,
      "hit": false,
      "t": 99469.8130208331,
      "d": 61.38389583333628,
      "v": 62
    },
    {
      "midi": 76,
      "hit": false,
      "t": 99469.8130208331,
      "d": 66.96425000000454,
      "v": 74
    },
    {
      "midi": 72,
      "hit": false,
      "t": 99469.8130208331,
      "d": 69.7544270833314,
      "v": 66
    },
    {
      "midi": 79,
      "hit": false,
      "t": 99469.8130208331,
      "d": 72.54460416665825,
      "v": 62
    },
    {
      "midi": 64,
      "hit": false,
      "t": 99659.54506249975,
      "d": 764.5085208333185,
      "v": 49
    },
    {
      "midi": 69,
      "hit": false,
      "t": 100175.72782291641,
      "d": 220.4239895833307,
      "v": 62
    },
    {
      "midi": 72,
      "hit": false,
      "t": 100175.72782291641,
      "d": 449.2185104166565,
      "v": 75
    },
    {
      "midi": 76,
      "hit": false,
      "t": 100175.72782291641,
      "d": 507.8122291666514,
      "v": 68
    },
    {
      "midi": 79,
      "hit": false,
      "t": 100175.72782291641,
      "d": 719.865687499987,
      "v": 76
    },
    {
      "midi": 69,
      "hit": false,
      "t": 100524.49995833306,
      "d": 106.02672916666779,
      "v": 73
    },
    {
      "midi": 57,
      "hit": false,
      "t": 100708.65164583306,
      "d": 1961.4944895833469,
      "v": 74
    },
    {
      "midi": 64,
      "hit": false,
      "t": 100722.60253124972,
      "d": 870.5352499999863,
      "v": 69
    },
    {
      "midi": 69,
      "hit": false,
      "t": 101247.1558229164,
      "d": 393.4149687499885,
      "v": 26
    },
    {
      "midi": 76,
      "hit": false,
      "t": 101247.1558229164,
      "d": 412.9462083333201,
      "v": 68
    },
    {
      "midi": 79,
      "hit": false,
      "t": 101249.94599999972,
      "d": 496.6515208333294,
      "v": 71
    },
    {
      "midi": 72,
      "hit": false,
      "t": 101252.73617708305,
      "d": 390.6247916666616,
      "v": 51
    },
    {
      "midi": 64,
      "hit": false,
      "t": 101794.03053124972,
      "d": 792.4102916666889,
      "v": 47
    },
    {
      "midi": 69,
      "hit": false,
      "t": 102137.22231249973,
      "d": 256.6962916666671,
      "v": 57
    },
    {
      "midi": 72,
      "hit": false,
      "t": 102137.22231249973,
      "d": 368.30337500000314,
      "v": 72
    },
    {
      "midi": 76,
      "hit": false,
      "t": 102137.22231249973,
      "d": 390.6247916666762,
      "v": 76
    },
    {
      "midi": 79,
      "hit": false,
      "t": 102137.22231249973,
      "d": 432.47744791668083,
      "v": 77
    },
    {
      "midi": 69,
      "hit": false,
      "t": 102670.1461354164,
      "d": 86.49548958333617,
      "v": 77
    },
    {
      "midi": 62,
      "hit": false,
      "t": 102857.08799999974,
      "d": 1953.123958333308,
      "v": 77
    },
    {
      "midi": 69,
      "hit": false,
      "t": 103222.6011979164,
      "d": 661.2719687499775,
      "v": 61
    },
    {
      "midi": 72,
      "hit": false,
      "t": 103401.17253124973,
      "d": 220.4239895833307,
      "v": 73
    },
    {
      "midi": 78,
      "hit": false,
      "t": 103403.96270833306,
      "d": 463.16939583331987,
      "v": 74
    },
    {
      "midi": 74,
      "hit": false,
      "t": 103406.75288541638,
      "d": 203.68292708334047,
      "v": 87
    },
    {
      "midi": 74,
      "hit": false,
      "t": 103761.10537499972,
      "d": 86.49548958332161,
      "v": 51
    },
    {
      "midi": 72,
      "hit": false,
      "t": 103763.89555208305,
      "d": 75.33478124999965,
      "v": 46
    },
    {
      "midi": 50,
      "hit": false,
      "t": 103942.46688541638,
      "d": 987.7226875000051,
      "v": 53
    },
    {
      "midi": 69,
      "hit": false,
      "t": 104302.39972916637,
      "d": 251.11593749999884,
      "v": 32
    },
    {
      "midi": 74,
      "hit": false,
      "t": 104469.81035416637,
      "d": 206.47310416666733,
      "v": 84
    },
    {
      "midi": 72,
      "hit": false,
      "t": 104469.81035416637,
      "d": 292.9685937500035,
      "v": 72
    },
    {
      "midi": 78,
      "hit": false,
      "t": 104472.6005312497,
      "d": 226.0043437500135,
      "v": 81
    },
    {
      "midi": 69,
      "hit": false,
      "t": 104810.21195833305,
      "d": 80.91513541666791,
      "v": 75
    },
    {
      "midi": 55,
      "hit": false,
      "t": 104994.36364583304,
      "d": 1861.0481145832891,
      "v": 82
    },
    {
      "midi": 67,
      "hit": false,
      "t": 105365.45719791637,
      "d": 410.15603124999325,
      "v": 47
    },
    {
      "midi": 74,
      "hit": false,
      "t": 105530.07764583304,
      "d": 239.95522916666232,
      "v": 87
    },
    {
      "midi": 79,
      "hit": false,
      "t": 105530.07764583304,
      "d": 619.4193124999874,
      "v": 68
    },
    {
      "midi": 70,
      "hit": false,
      "t": 105532.86782291636,
      "d": 223.2141666666721,
      "v": 50
    },
    {
      "midi": 74,
      "hit": false,
      "t": 105887.2203124997,
      "d": 150.6695624999993,
      "v": 71
    },
    {
      "midi": 70,
      "hit": false,
      "t": 105887.2203124997,
      "d": 159.0400937499944,
      "v": 41
    },
    {
      "midi": 67,
      "hit": false,
      "t": 105887.2203124997,
      "d": 164.62044791666267,
      "v": 52
    },
    {
      "midi": 62,
      "hit": false,
      "t": 106085.32288541636,
      "d": 664.0621458333189,
      "v": 54
    },
    {
      "midi": 67,
      "hit": false,
      "t": 106431.30484374969,
      "d": 262.2766458333208,
      "v": 51
    },
    {
      "midi": 70,
      "hit": false,
      "t": 106604.29582291636,
      "d": 172.99097916664323,
      "v": 59
    },
    {
      "midi": 79,
      "hit": false,
      "t": 106607.08599999969,
      "d": 192.52221874997485,
      "v": 85
    },
    {
      "midi": 74,
      "hit": false,
      "t": 106609.87617708302,
      "d": 181.3615104166529,
      "v": 95
    },
    {
      "midi": 60,
      "hit": false,
      "t": 107134.42946874967,
      "d": 181.36151041666744,
      "v": 92
    },
    {
      "midi": 76,
      "hit": false,
      "t": 107137.219645833,
      "d": 136.71867708333593,
      "v": 89
    },
    {
      "midi": 67,
      "hit": false,
      "t": 107137.219645833,
      "d": 153.4597395833407,
      "v": 83
    },
    {
      "midi": 72,
      "hit": false,
      "t": 107137.219645833,
      "d": 172.99097916667233,
      "v": 91
    },
    {
      "midi": 70,
      "hit": false,
      "t": 107684.09435416634,
      "d": 220.4239895833307,
      "v": 84
    },
    {
      "midi": 74,
      "hit": false,
      "t": 107684.09435416634,
      "d": 292.9685937500035,
      "v": 100
    },
    {
      "midi": 58,
      "hit": false,
      "t": 107684.09435416634,
      "d": 309.70965625000827,
      "v": 91
    },
    {
      "midi": 77,
      "hit": false,
      "t": 107686.88453124967,
      "d": 265.06682291667676,
      "v": 98
    },
    {
      "midi": 60,
      "hit": false,
      "t": 108032.86648958302,
      "d": 1102.1199479166535,
      "v": 90
    },
    {
      "midi": 72,
      "hit": false,
      "t": 108038.44684374968,
      "d": 990.5128645833174,
      "v": 91
    },
    {
      "midi": 67,
      "hit": false,
      "t": 108038.44684374968,
      "d": 1035.155697916649,
      "v": 82
    },
    {
      "midi": 76,
      "hit": false,
      "t": 108041.23702083301,
      "d": 973.7718020833272,
      "v": 93
    },
    {
      "midi": 58,
      "hit": false,
      "t": 109826.95035416634,
      "d": 287.3882395833207,
      "v": 76
    },
    {
      "midi": 70,
      "hit": false,
      "t": 109829.74053124967,
      "d": 212.05345833332103,
      "v": 78
    },
    {
      "midi": 74,
      "hit": false,
      "t": 109832.530708333,
      "d": 172.99097916667233,
      "v": 94
    },
    {
      "midi": 77,
      "hit": false,
      "t": 109832.530708333,
      "d": 175.78115624999919,
      "v": 87
    },
    {
      "midi": 60,
      "hit": false,
      "t": 110184.093020833,
      "d": 1060.267291666678,
      "v": 89
    },
    {
      "midi": 67,
      "hit": false,
      "t": 110186.88319791632,
      "d": 973.7718020833418,
      "v": 74
    },
    {
      "midi": 72,
      "hit": false,
      "t": 110186.88319791632,
      "d": 979.35215625001,
      "v": 88
    },
    {
      "midi": 76,
      "hit": false,
      "t": 110186.88319791632,
      "d": 1001.673572916683,
      "v": 86
    },
    {
      "midi": 69,
      "hit": false,
      "t": 111450.83341666634,
      "d": 340.40160416666185,
      "v": 89
    },
    {
      "midi": 53,
      "hit": false,
      "t": 111450.83341666634,
      "d": 1877.7891770833376,
      "v": 74
    },
    {
      "midi": 65,
      "hit": false,
      "t": 111453.62359374967,
      "d": 337.611427083335,
      "v": 83
    },
    {
      "midi": 72,
      "hit": false,
      "t": 111453.62359374967,
      "d": 376.67390624999825,
      "v": 92
    },
    {
      "midi": 60,
      "hit": false,
      "t": 112561.323895833,
      "d": 605.4684270833386,
      "v": 52
    },
    {
      "midi": 69,
      "hit": false,
      "t": 112823.60054166634,
      "d": 672.4326770833286,
      "v": 96
    },
    {
      "midi": 72,
      "hit": false,
      "t": 113035.65399999967,
      "d": 334.8212499999936,
      "v": 88
    },
    {
      "midi": 77,
      "hit": false,
      "t": 113356.524364583,
      "d": 178.57133333332604,
      "v": 94
    },
    {
      "midi": 69,
      "hit": false,
      "t": 113571.36799999967,
      "d": 262.27664583333535,
      "v": 84
    },
    {
      "midi": 76,
      "hit": false,
      "t": 113571.36799999967,
      "d": 345.9819583333301,
      "v": 101
    },
    {
      "midi": 53,
      "hit": false,
      "t": 113571.36799999967,
      "d": 1869.4186458332842,
      "v": 70
    },
    {
      "midi": 69,
      "hit": false,
      "t": 113978.73385416633,
      "d": 89.28566666666302,
      "v": 50
    },
    {
      "midi": 72,
      "hit": false,
      "t": 114469.805020833,
      "d": 496.65152083331486,
      "v": 96
    },
    {
      "midi": 76,
      "hit": false,
      "t": 114472.59519791632,
      "d": 507.8122291666514,
      "v": 93
    },
    {
      "midi": 69,
      "hit": false,
      "t": 114475.38537499965,
      "d": 507.8122291666514,
      "v": 84
    },
    {
      "midi": 72,
      "hit": false,
      "t": 115195.25106249964,
      "d": 186.94186458332115,
      "v": 97
    },
    {
      "midi": 69,
      "hit": false,
      "t": 115203.62159374963,
      "d": 175.78115624999919,
      "v": 92
    },
    {
      "midi": 53,
      "hit": false,
      "t": 115694.69276041629,
      "d": 491.0711666666757,
      "v": 82
    },
    {
      "midi": 69,
      "hit": false,
      "t": 115694.69276041629,
      "d": 630.5800208333385,
      "v": 90
    },
    {
      "midi": 72,
      "hit": false,
      "t": 115694.69276041629,
      "d": 680.8032083333383,
      "v": 98
    },
    {
      "midi": 75,
      "hit": false,
      "t": 115694.69276041629,
      "d": 689.1737395833334,
      "v": 93
    },
    {
      "midi": 69,
      "hit": false,
      "t": 116590.33960416629,
      "d": 44.64283333333151,
      "v": 52
    },
    {
      "midi": 69,
      "hit": false,
      "t": 117134.4241354163,
      "d": 53.01336458332662,
      "v": 86
    },
    {
      "midi": 69,
      "hit": false,
      "t": 117312.99546874962,
      "d": 133.92849999999453,
      "v": 90
    },
    {
      "midi": 72,
      "hit": false,
      "t": 117315.78564583295,
      "d": 186.9418645833357,
      "v": 93
    },
    {
      "midi": 75,
      "hit": false,
      "t": 117315.78564583295,
      "d": 192.52221875000396,
      "v": 95
    },
    {
      "midi": 58,
      "hit": false,
      "t": 117865.45053124962,
      "d": 683.5933854166651,
      "v": 73
    },
    {
      "midi": 70,
      "hit": false,
      "t": 117879.40141666628,
      "d": 290.17841666667664,
      "v": 87
    },
    {
      "midi": 65,
      "hit": false,
      "t": 117879.40141666628,
      "d": 309.70965625000827,
      "v": 92
    },
    {
      "midi": 74,
      "hit": false,
      "t": 117879.40141666628,
      "d": 315.2900104166765,
      "v": 100
    },
    {
      "midi": 70,
      "hit": false,
      "t": 118420.69577083296,
      "d": 530.1336458333244,
      "v": 89
    },
    {
      "midi": 65,
      "hit": false,
      "t": 118420.69577083296,
      "d": 580.3568333333242,
      "v": 90
    },
    {
      "midi": 74,
      "hit": false,
      "t": 118420.69577083296,
      "d": 605.4684270833241,
      "v": 102
    },
    {
      "midi": 65,
      "hit": false,
      "t": 119282.86048958295,
      "d": 290.1784166666621,
      "v": 118
    },
    {
      "midi": 58,
      "hit": false,
      "t": 119472.59253124961,
      "d": 192.52221875000396,
      "v": 99
    },
    {
      "midi": 74,
      "hit": false,
      "t": 119637.21297916627,
      "d": 195.31239583334536,
      "v": 107
    },
    {
      "midi": 65,
      "hit": false,
      "t": 119659.53439583295,
      "d": 262.27664583333535,
      "v": 80
    },
    {
      "midi": 70,
      "hit": false,
      "t": 119796.25307291628,
      "d": 114.3972604166629,
      "v": 103
    },
    {
      "midi": 69,
      "hit": false,
      "t": 120019.46723958295,
      "d": 644.5309062500019,
      "v": 107
    },
    {
      "midi": 72,
      "hit": false,
      "t": 120019.46723958295,
      "d": 661.2719687500066,
      "v": 106
    },
    {
      "midi": 57,
      "hit": false,
      "t": 120019.46723958295,
      "d": 1015.6244583333173,
      "v": 98
    },
    {
      "midi": 72,
      "hit": false,
      "t": 120870.47124999962,
      "d": 136.71867708332138,
      "v": 88
    },
    {
      "midi": 69,
      "hit": false,
      "t": 120878.84178124962,
      "d": 89.28566666666302,
      "v": 88
    },
    {
      "midi": 62,
      "hit": false,
      "t": 121082.52470833293,
      "d": 823.1022395833425,
      "v": 88
    },
    {
      "midi": 69,
      "hit": false,
      "t": 121422.92631249959,
      "d": 304.12930208334,
      "v": 89
    },
    {
      "midi": 74,
      "hit": false,
      "t": 121422.92631249959,
      "d": 376.6739062500128,
      "v": 96
    },
    {
      "midi": 72,
      "hit": false,
      "t": 122167.90359374961,
      "d": 228.79452083334036,
      "v": 96
    },
    {
      "midi": 76,
      "hit": false,
      "t": 122167.90359374961,
      "d": 234.37487500000861,
      "v": 98
    },
    {
      "midi": 69,
      "hit": false,
      "t": 122167.90359374961,
      "d": 298.54894791667175,
      "v": 88
    },
    {
      "midi": 57,
      "hit": false,
      "t": 122167.90359374961,
      "d": 770.0888750000013,
      "v": 89
    },
    {
      "midi": 79,
      "hit": false,
      "t": 122686.87653124961,
      "d": 262.27664583333535,
      "v": 97
    },
    {
      "midi": 72,
      "hit": false,
      "t": 122686.87653124961,
      "d": 438.05780208333454,
      "v": 95
    },
    {
      "midi": 69,
      "hit": false,
      "t": 122692.45688541628,
      "d": 379.46408333333966,
      "v": 85
    },
    {
      "midi": 76,
      "hit": false,
      "t": 123016.11742708295,
      "d": 114.3972604166629,
      "v": 83
    },
    {
      "midi": 69,
      "hit": false,
      "t": 123214.21999999961,
      "d": 304.12930208334,
      "v": 85
    },
    {
      "midi": 78,
      "hit": false,
      "t": 123214.21999999961,
      "d": 304.12930208334,
      "v": 94
    },
    {
      "midi": 62,
      "hit": false,
      "t": 123219.80035416628,
      "d": 731.026395833338,
      "v": 89
    },
    {
      "midi": 74,
      "hit": false,
      "t": 123228.17088541627,
      "d": 298.54894791667175,
      "v": 103
    },
    {
      "midi": 69,
      "hit": false,
      "t": 123763.88488541628,
      "d": 119.97761458333116,
      "v": 90
    },
    {
      "midi": 78,
      "hit": false,
      "t": 123763.88488541628,
      "d": 153.45973958332615,
      "v": 94
    },
    {
      "midi": 74,
      "hit": false,
      "t": 123763.88488541628,
      "d": 164.62044791666267,
      "v": 103
    },
    {
      "midi": 55,
      "hit": false,
      "t": 124134.97843749961,
      "d": 1665.735718750002,
      "v": 79
    },
    {
      "midi": 67,
      "hit": false,
      "t": 124260.53640624961,
      "d": 806.3611770833377,
      "v": 81
    },
    {
      "midi": 62,
      "hit": false,
      "t": 124271.69711458294,
      "d": 764.508520833333,
      "v": 87
    },
    {
      "midi": 70,
      "hit": false,
      "t": 124277.27746874961,
      "d": 965.4012708333321,
      "v": 82
    },
    {
      "midi": 74,
      "hit": false,
      "t": 124285.64799999961,
      "d": 957.030739583337,
      "v": 100
    },
    {
      "midi": 79,
      "hit": false,
      "t": 124305.17923958294,
      "d": 1065.8476458333316,
      "v": 106
    },
    {
      "midi": 67,
      "hit": false,
      "t": 125170.13413541627,
      "d": 136.71867708333593,
      "v": 71
    },
    {
      "midi": 55,
      "hit": false,
      "t": 126425.71382291628,
      "d": 1830.35616666665,
      "v": 56
    },
    {
      "midi": 62,
      "hit": false,
      "t": 126434.08435416628,
      "d": 1824.7758124999818,
      "v": 52
    },
    {
      "midi": 70,
      "hit": false,
      "t": 126958.63764583295,
      "d": 253.90611458334024,
      "v": 85
    },
    {
      "midi": 79,
      "hit": false,
      "t": 126958.63764583295,
      "d": 253.90611458334024,
      "v": 104
    },
    {
      "midi": 74,
      "hit": false,
      "t": 126975.37870833295,
      "d": 200.89274999999907,
      "v": 100
    },
    {
      "midi": 70,
      "hit": false,
      "t": 127513.88288541629,
      "d": 234.37487499999406,
      "v": 79
    },
    {
      "midi": 77,
      "hit": false,
      "t": 127516.67306249961,
      "d": 239.95522916666232,
      "v": 103
    },
    {
      "midi": 70,
      "hit": false,
      "t": 127829.17289583295,
      "d": 332.0310729166522,
      "v": 87
    },
    {
      "midi": 79,
      "hit": false,
      "t": 127837.54342708294,
      "d": 309.7096562499937,
      "v": 99
    },
    {
      "midi": 74,
      "hit": false,
      "t": 127837.54342708294,
      "d": 315.29001041666197,
      "v": 103
    },
    {
      "midi": 72,
      "hit": false,
      "t": 128571.3599999996,
      "d": 1369.9769479166716,
      "v": 89
    },
    {
      "midi": 67,
      "hit": false,
      "t": 128571.3599999996,
      "d": 1381.1376562500081,
      "v": 82
    },
    {
      "midi": 70,
      "hit": false,
      "t": 128571.3599999996,
      "d": 1381.1376562500081,
      "v": 70
    },
    {
      "midi": 77,
      "hit": false,
      "t": 128571.3599999996,
      "d": 1420.2001354166714,
      "v": 81
    },
    {
      "midi": 60,
      "hit": false,
      "t": 128571.3599999996,
      "d": 1506.6956250000076,
      "v": 73
    },
    {
      "midi": 53,
      "hit": false,
      "t": 130703.05529166627,
      "d": 8.37053124999511,
      "v": 83
    },
    {
      "midi": 65,
      "hit": false,
      "t": 130703.05529166627,
      "d": 8.37053124999511,
      "v": 74
    },
    {
      "midi": 69,
      "hit": false,
      "t": 130708.63564583294,
      "d": 2.790177083326853,
      "v": 70
    },
    {
      "midi": 72,
      "hit": false,
      "t": 130708.63564583294,
      "d": 2.790177083326853,
      "v": 80
    },
    {
      "midi": 77,
      "hit": false,
      "t": 130708.63564583294,
      "d": 2.790177083326853,
      "v": 87
    },
    {
      "midi": 69,
      "hit": false,
      "t": 130714.2159999996,
      "d": 226.00434374999895,
      "v": 89
    },
    {
      "midi": 72,
      "hit": false,
      "t": 130714.2159999996,
      "d": 343.19178125000326,
      "v": 94
    },
    {
      "midi": 77,
      "hit": false,
      "t": 130714.2159999996,
      "d": 357.1426666666666,
      "v": 100
    },
    {
      "midi": 65,
      "hit": false,
      "t": 130714.2159999996,
      "d": 725.4460416666843,
      "v": 84
    },
    {
      "midi": 53,
      "hit": false,
      "t": 130714.2159999996,
      "d": 1749.4410312499822,
      "v": 90
    },
    {
      "midi": 65,
      "hit": false,
      "t": 131696.35833333293,
      "d": 541.2943541666318,
      "v": 70
    },
    {
      "midi": 69,
      "hit": false,
      "t": 131830.2868333329,
      "d": 340.40160416666185,
      "v": 86
    },
    {
      "midi": 72,
      "hit": false,
      "t": 131835.86718749956,
      "d": 326.45071875001304,
      "v": 94
    },
    {
      "midi": 76,
      "hit": false,
      "t": 131838.6573645829,
      "d": 312.4998333333351,
      "v": 94
    },
    {
      "midi": 55,
      "hit": false,
      "t": 132871.02288541626,
      "d": 2689.7307083333144,
      "v": 90
    },
    {
      "midi": 67,
      "hit": false,
      "t": 132876.6032395829,
      "d": 2633.927166666661,
      "v": 88
    },
    {
      "midi": 70,
      "hit": false,
      "t": 132876.6032395829,
      "d": 2636.7173437500023,
      "v": 76
    },
    {
      "midi": 65,
      "hit": false,
      "t": 132876.6032395829,
      "d": 2645.0878749999974,
      "v": 85
    },
    {
      "midi": 74,
      "hit": false,
      "t": 132876.6032395829,
      "d": 2645.0878749999974,
      "v": 94
    },
    {
      "midi": 65,
      "hit": false,
      "t": 139285.63999999958,
      "d": 1456.4724374999932,
      "v": 86
    },
    {
      "midi": 72,
      "hit": false,
      "t": 139285.63999999958,
      "d": 1459.2626145833347,
      "v": 89
    },
    {
      "midi": 69,
      "hit": false,
      "t": 139285.63999999958,
      "d": 1464.8429687499884,
      "v": 89
    },
    {
      "midi": 76,
      "hit": false,
      "t": 139285.63999999958,
      "d": 1492.744739583315,
      "v": 89
    },
    {
      "midi": 53,
      "hit": false,
      "t": 139285.63999999958,
      "d": 1623.8830624999828,
      "v": 90
    },
    {
      "midi": 51,
      "hit": false,
      "t": 141422.9156458329,
      "d": 1690.84731250006,
      "v": 85
    },
    {
      "midi": 67,
      "hit": false,
      "t": 141425.70582291624,
      "d": 1635.0437708333484,
      "v": 88
    },
    {
      "midi": 70,
      "hit": false,
      "t": 141425.70582291624,
      "d": 1648.9946562500263,
      "v": 86
    },
    {
      "midi": 74,
      "hit": false,
      "t": 141425.70582291624,
      "d": 1651.7848333333677,
      "v": 93
    },
    {
      "midi": 77,
      "hit": false,
      "t": 141425.70582291624,
      "d": 1662.9455416667042,
      "v": 87
    },
    {
      "midi": 51,
      "hit": false,
      "t": 143568.56182291626,
      "d": 131.13832291663857,
      "v": 106
    },
    {
      "midi": 70,
      "hit": false,
      "t": 143574.14217708292,
      "d": 114.39726041667745,
      "v": 107
    },
    {
      "midi": 77,
      "hit": false,
      "t": 143574.14217708292,
      "d": 119.97761458333116,
      "v": 107
    },
    {
      "midi": 74,
      "hit": false,
      "t": 143574.14217708292,
      "d": 128.34814583332627,
      "v": 107
    },
    {
      "midi": 67,
      "hit": false,
      "t": 143574.14217708292,
      "d": 131.13832291666768,
      "v": 107
    },
    {
      "midi": 51,
      "hit": false,
      "t": 143841.9991770829,
      "d": 164.62044791667722,
      "v": 105
    },
    {
      "midi": 74,
      "hit": false,
      "t": 143844.78935416625,
      "d": 114.39726041667745,
      "v": 98
    },
    {
      "midi": 70,
      "hit": false,
      "t": 143844.78935416625,
      "d": 122.76779166667257,
      "v": 106
    },
    {
      "midi": 67,
      "hit": false,
      "t": 143844.78935416625,
      "d": 125.55796875001397,
      "v": 96
    },
    {
      "midi": 77,
      "hit": false,
      "t": 143847.5795312496,
      "d": 97.65619791665813,
      "v": 87
    },
    {
      "midi": 76,
      "hit": false,
      "t": 144112.64635416624,
      "d": 1690.847312500031,
      "v": 93
    },
    {
      "midi": 53,
      "hit": false,
      "t": 144112.64635416624,
      "d": 1746.6508541666844,
      "v": 96
    },
    {
      "midi": 69,
      "hit": false,
      "t": 144115.43653124958,
      "d": 1651.7848333333386,
      "v": 102
    },
    {
      "midi": 65,
      "hit": false,
      "t": 144115.43653124958,
      "d": 1654.57501041668,
      "v": 103
    },
    {
      "midi": 72,
      "hit": false,
      "t": 144115.43653124958,
      "d": 1662.9455416666751,
      "v": 91
    },
    {
      "midi": 51,
      "hit": false,
      "t": 146258.29253124958,
      "d": 1947.5436041666544,
      "v": 105
    },
    {
      "midi": 77,
      "hit": false,
      "t": 146258.29253124958,
      "d": 1961.4944895833323,
      "v": 87
    },
    {
      "midi": 70,
      "hit": false,
      "t": 146258.29253124958,
      "d": 1964.2846666666737,
      "v": 108
    },
    {
      "midi": 67,
      "hit": false,
      "t": 146258.29253124958,
      "d": 1967.0748437500151,
      "v": 98
    },
    {
      "midi": 74,
      "hit": false,
      "t": 146258.29253124958,
      "d": 1967.0748437500151,
      "v": 101
    },
    {
      "midi": 51,
      "hit": false,
      "t": 148395.56817708293,
      "d": 114.39726041667745,
      "v": 111
    },
    {
      "midi": 70,
      "hit": false,
      "t": 148398.35835416627,
      "d": 122.76779166664346,
      "v": 111
    },
    {
      "midi": 74,
      "hit": false,
      "t": 148398.35835416627,
      "d": 128.34814583329717,
      "v": 105
    },
    {
      "midi": 67,
      "hit": false,
      "t": 148398.35835416627,
      "d": 131.13832291663857,
      "v": 97
    },
    {
      "midi": 77,
      "hit": false,
      "t": 148401.1485312496,
      "d": 114.39726041664835,
      "v": 92
    },
    {
      "midi": 77,
      "hit": false,
      "t": 148666.21535416623,
      "d": 111.60708333333605,
      "v": 85
    },
    {
      "midi": 70,
      "hit": false,
      "t": 148666.21535416623,
      "d": 114.39726041667745,
      "v": 106
    },
    {
      "midi": 67,
      "hit": false,
      "t": 148666.21535416623,
      "d": 119.97761458333116,
      "v": 89
    },
    {
      "midi": 74,
      "hit": false,
      "t": 148666.21535416623,
      "d": 119.97761458333116,
      "v": 95
    },
    {
      "midi": 51,
      "hit": false,
      "t": 148666.21535416623,
      "d": 175.78115624998463,
      "v": 105
    },
    {
      "midi": 53,
      "hit": false,
      "t": 148934.07235416622,
      "d": 1409.039427083364,
      "v": 95
    },
    {
      "midi": 65,
      "hit": false,
      "t": 148936.86253124956,
      "d": 622.2094895833288,
      "v": 104
    },
    {
      "midi": 72,
      "hit": false,
      "t": 148936.86253124956,
      "d": 675.22285416667,
      "v": 107
    },
    {
      "midi": 69,
      "hit": false,
      "t": 148936.86253124956,
      "d": 683.5933854166651,
      "v": 109
    },
    {
      "midi": 76,
      "hit": false,
      "t": 148936.86253124956,
      "d": 736.6067500000063,
      "v": 91
    },
    {
      "midi": 72,
      "hit": false,
      "t": 149846.46026041624,
      "d": 767.2986979166744,
      "v": 90
    },
    {
      "midi": 65,
      "hit": false,
      "t": 149849.25043749958,
      "d": 758.9281666666793,
      "v": 85
    },
    {
      "midi": 69,
      "hit": false,
      "t": 149849.25043749958,
      "d": 767.2986979166744,
      "v": 83
    },
    {
      "midi": 53,
      "hit": false,
      "t": 150527.2634687496,
      "d": 64.17407291667769,
      "v": 74
    },
    {
      "midi": 51,
      "hit": false,
      "t": 151068.55782291625,
      "d": 1462.052791666676,
      "v": 95
    },
    {
      "midi": 67,
      "hit": false,
      "t": 151068.55782291625,
      "d": 1598.7714687499974,
      "v": 91
    },
    {
      "midi": 74,
      "hit": false,
      "t": 151068.55782291625,
      "d": 1598.7714687499974,
      "v": 96
    },
    {
      "midi": 70,
      "hit": false,
      "t": 151068.55782291625,
      "d": 1621.0928854166705,
      "v": 103
    },
    {
      "midi": 51,
      "hit": false,
      "t": 153208.62364583294,
      "d": 103.23655208334094,
      "v": 109
    },
    {
      "midi": 67,
      "hit": false,
      "t": 153211.41382291628,
      "d": 114.39726041667745,
      "v": 98
    },
    {
      "midi": 70,
      "hit": false,
      "t": 153211.41382291628,
      "d": 114.39726041667745,
      "v": 112
    },
    {
      "midi": 74,
      "hit": false,
      "t": 153211.41382291628,
      "d": 122.76779166667257,
      "v": 108
    },
    {
      "midi": 51,
      "hit": false,
      "t": 153479.2708229163,
      "d": 178.57133333332604,
      "v": 108
    },
    {
      "midi": 67,
      "hit": false,
      "t": 153482.06099999964,
      "d": 131.13832291666768,
      "v": 98
    },
    {
      "midi": 70,
      "hit": false,
      "t": 153482.06099999964,
      "d": 131.13832291666768,
      "v": 109
    },
    {
      "midi": 74,
      "hit": false,
      "t": 153482.06099999964,
      "d": 139.5088541666628,
      "v": 101
    },
    {
      "midi": 72,
      "hit": false,
      "t": 153752.70817708297,
      "d": 747.7674583333428,
      "v": 105
    },
    {
      "midi": 76,
      "hit": false,
      "t": 153752.70817708297,
      "d": 758.9281666666793,
      "v": 98
    },
    {
      "midi": 69,
      "hit": false,
      "t": 153752.70817708297,
      "d": 764.508520833333,
      "v": 105
    },
    {
      "midi": 53,
      "hit": false,
      "t": 153752.70817708297,
      "d": 1939.1730729166884,
      "v": 100
    },
    {
      "midi": 65,
      "hit": false,
      "t": 154536.74793749963,
      "d": 114.39726041667745,
      "v": 82
    },
    {
      "midi": 72,
      "hit": false,
      "t": 154670.67643749964,
      "d": 789.6201145833475,
      "v": 110
    },
    {
      "midi": 76,
      "hit": false,
      "t": 154670.67643749964,
      "d": 789.6201145833475,
      "v": 95
    },
    {
      "midi": 69,
      "hit": false,
      "t": 154670.67643749964,
      "d": 803.5710000000254,
      "v": 93
    },
    {
      "midi": 65,
      "hit": false,
      "t": 155217.551145833,
      "d": 538.5041770833486,
      "v": 101
    },
    {
      "midi": 72,
      "hit": false,
      "t": 155493.778677083,
      "d": 170.20080208333093,
      "v": 85
    },
    {
      "midi": 76,
      "hit": false,
      "t": 155493.778677083,
      "d": 228.7945208333258,
      "v": 85
    },
    {
      "midi": 69,
      "hit": false,
      "t": 155630.49735416632,
      "d": 44.64283333334606,
      "v": 57
    },
    {
      "midi": 51,
      "hit": false,
      "t": 155895.564177083,
      "d": 1950.3337812499958,
      "v": 83
    },
    {
      "midi": 67,
      "hit": false,
      "t": 155895.564177083,
      "d": 1961.4944895833323,
      "v": 91
    },
    {
      "midi": 70,
      "hit": false,
      "t": 155895.564177083,
      "d": 1961.4944895833323,
      "v": 92
    },
    {
      "midi": 74,
      "hit": false,
      "t": 155895.564177083,
      "d": 1969.8650208333274,
      "v": 95
    },
    {
      "midi": 70,
      "hit": false,
      "t": 158030.049645833,
      "d": 83.70531250000931,
      "v": 103
    },
    {
      "midi": 67,
      "hit": false,
      "t": 158030.049645833,
      "d": 89.28566666666302,
      "v": 88
    },
    {
      "midi": 51,
      "hit": false,
      "t": 158030.049645833,
      "d": 106.02672916665324,
      "v": 108
    },
    {
      "midi": 74,
      "hit": false,
      "t": 158030.049645833,
      "d": 106.02672916665324,
      "v": 93
    },
    {
      "midi": 67,
      "hit": false,
      "t": 158295.11646874965,
      "d": 114.39726041667745,
      "v": 91
    },
    {
      "midi": 51,
      "hit": false,
      "t": 158295.11646874965,
      "d": 209.26328125002328,
      "v": 97
    },
    {
      "midi": 70,
      "hit": false,
      "t": 158297.906645833,
      "d": 114.39726041667745,
      "v": 112
    },
    {
      "midi": 74,
      "hit": false,
      "t": 158297.906645833,
      "d": 128.34814583335537,
      "v": 98
    },
    {
      "midi": 69,
      "hit": false,
      "t": 158565.763645833,
      "d": 725.4460416666698,
      "v": 94
    },
    {
      "midi": 72,
      "hit": false,
      "t": 158565.763645833,
      "d": 742.18710416666,
      "v": 98
    },
    {
      "midi": 76,
      "hit": false,
      "t": 158565.763645833,
      "d": 742.18710416666,
      "v": 82
    },
    {
      "midi": 53,
      "hit": false,
      "t": 158565.763645833,
      "d": 1534.5973958333489,
      "v": 96
    },
    {
      "midi": 69,
      "hit": false,
      "t": 159388.86588541634,
      "d": 192.52221875000396,
      "v": 95
    },
    {
      "midi": 74,
      "hit": false,
      "t": 159388.86588541634,
      "d": 226.0043437500135,
      "v": 98
    },
    {
      "midi": 65,
      "hit": false,
      "t": 159626.0309374997,
      "d": 887.2763124999765,
      "v": 93
    },
    {
      "midi": 77,
      "hit": false,
      "t": 159765.53979166635,
      "d": 164.62044791667722,
      "v": 102
    },
    {
      "midi": 69,
      "hit": false,
      "t": 159765.53979166635,
      "d": 181.36151041666744,
      "v": 93
    },
    {
      "midi": 69,
      "hit": false,
      "t": 160038.97714583302,
      "d": 223.2141666666721,
      "v": 80
    },
    {
      "midi": 74,
      "hit": false,
      "t": 160038.97714583302,
      "d": 270.64717708333046,
      "v": 103
    },
    {
      "midi": 53,
      "hit": false,
      "t": 160181.27617708303,
      "d": 362.7230208333058,
      "v": 96
    },
    {
      "midi": 72,
      "hit": false,
      "t": 160315.204677083,
      "d": 150.6695624999993,
      "v": 102
    },
    {
      "midi": 69,
      "hit": false,
      "t": 160449.13317708301,
      "d": 161.8302708333067,
      "v": 106
    },
    {
      "midi": 51,
      "hit": false,
      "t": 160708.61964583298,
      "d": 1244.4189791666577,
      "v": 91
    },
    {
      "midi": 70,
      "hit": false,
      "t": 160714.19999999963,
      "d": 689.1737395833479,
      "v": 103
    },
    {
      "midi": 67,
      "hit": false,
      "t": 160714.19999999963,
      "d": 786.829937500006,
      "v": 80
    },
    {
      "midi": 65,
      "hit": false,
      "t": 160716.99017708297,
      "d": 97.65619791665813,
      "v": 85
    },
    {
      "midi": 70,
      "hit": false,
      "t": 161643.32896874964,
      "d": 111.60708333333605,
      "v": 84
    },
    {
      "midi": 67,
      "hit": false,
      "t": 161646.11914583298,
      "d": 128.34814583332627,
      "v": 67
    },
    {
      "midi": 51,
      "hit": false,
      "t": 162845.89529166633,
      "d": 111.60708333333605,
      "v": 102
    },
    {
      "midi": 70,
      "hit": false,
      "t": 162848.68546874967,
      "d": 89.28566666666302,
      "v": 109
    },
    {
      "midi": 74,
      "hit": false,
      "t": 162848.68546874967,
      "d": 100.44637499999953,
      "v": 102
    },
    {
      "midi": 67,
      "hit": false,
      "t": 162848.68546874967,
      "d": 114.39726041664835,
      "v": 98
    },
    {
      "midi": 77,
      "hit": false,
      "t": 162851.475645833,
      "d": 86.49548958332161,
      "v": 85
    },
    {
      "midi": 51,
      "hit": false,
      "t": 163116.54246874966,
      "d": 178.57133333335514,
      "v": 98
    },
    {
      "midi": 70,
      "hit": false,
      "t": 163119.332645833,
      "d": 92.07584375000442,
      "v": 105
    },
    {
      "midi": 77,
      "hit": false,
      "t": 163119.332645833,
      "d": 106.02672916668234,
      "v": 87
    },
    {
      "midi": 74,
      "hit": false,
      "t": 163119.332645833,
      "d": 114.39726041667745,
      "v": 99
    },
    {
      "midi": 67,
      "hit": false,
      "t": 163119.332645833,
      "d": 117.18743750001886,
      "v": 91
    },
    {
      "midi": 53,
      "hit": false,
      "t": 163387.18964583302,
      "d": 1342.075177083345,
      "v": 96
    },
    {
      "midi": 65,
      "hit": false,
      "t": 163389.97982291636,
      "d": 1130.0217187499802,
      "v": 107
    },
    {
      "midi": 76,
      "hit": false,
      "t": 163389.97982291636,
      "d": 1409.0394270833349,
      "v": 95
    },
    {
      "midi": 69,
      "hit": false,
      "t": 163389.97982291636,
      "d": 1417.40995833333,
      "v": 106
    },
    {
      "midi": 72,
      "hit": false,
      "t": 163389.97982291636,
      "d": 1420.2001354166714,
      "v": 108
    },
    {
      "midi": 65,
      "hit": false,
      "t": 164595.33632291635,
      "d": 198.10257291668677,
      "v": 89
    },
    {
      "midi": 53,
      "hit": false,
      "t": 164854.82279166637,
      "d": 471.5399270833004,
      "v": 106
    },
    {
      "midi": 65,
      "hit": false,
      "t": 164983.1709374997,
      "d": 156.249916666653,
      "v": 88
    },
    {
      "midi": 69,
      "hit": false,
      "t": 164983.1709374997,
      "d": 172.99097916664323,
      "v": 85
    },
    {
      "midi": 72,
      "hit": false,
      "t": 164983.1709374997,
      "d": 172.99097916664323,
      "v": 89
    },
    {
      "midi": 76,
      "hit": false,
      "t": 164983.1709374997,
      "d": 172.99097916664323,
      "v": 84
    },
    {
      "midi": 76,
      "hit": false,
      "t": 165259.39846874968,
      "d": 117.18743749998976,
      "v": 95
    },
    {
      "midi": 72,
      "hit": false,
      "t": 165259.39846874968,
      "d": 119.97761458333116,
      "v": 88
    },
    {
      "midi": 69,
      "hit": false,
      "t": 165259.39846874968,
      "d": 128.34814583332627,
      "v": 89
    },
    {
      "midi": 65,
      "hit": false,
      "t": 165259.39846874968,
      "d": 139.5088541666628,
      "v": 82
    },
    {
      "midi": 65,
      "hit": false,
      "t": 165530.04564583304,
      "d": 1347.6555312499695,
      "v": 91
    },
    {
      "midi": 74,
      "hit": false,
      "t": 165530.04564583304,
      "d": 1369.9769479166425,
      "v": 93
    },
    {
      "midi": 51,
      "hit": false,
      "t": 165532.8358229164,
      "d": 1294.6421666666283,
      "v": 108
    },
    {
      "midi": 67,
      "hit": false,
      "t": 165532.8358229164,
      "d": 1342.0751770832867,
      "v": 104
    },
    {
      "midi": 70,
      "hit": false,
      "t": 165532.8358229164,
      "d": 1342.0751770832867,
      "v": 109
    }
  ]
}