{
  "jsonPath": "Unknown/Unknown/Ed Cobb/tainted-love.json",
  "path": "Unknown\\Unknown\\Ed Cobb\\Tainted Love.mid",
  "name": "Tainted Love",
  "difficulty": "Advanced",
  "bpm": 142.0000710000355,
  "notes": [
    {
      "midi": 67,
      "hit": false,
      "t": 1478.8725000000002,
      "d": 211.26750000000015,
      "v": 100
    },
    {
      "midi": 55,
      "hit": false,
      "t": 1690.1400000000003,
      "d": 422.53499999999985,
      "v": 100
    },
    {
      "midi": 67,
      "hit": false,
      "t": 1690.1400000000003,
      "d": 422.53499999999985,
      "v": 100
    },
    {
      "midi": 43,
      "hit": false,
      "t": 1690.1400000000003,
      "d": 422.53499999999985,
      "v": 100
    },
    {
      "midi": 55,
      "hit": false,
      "t": 2112.675,
      "d": 422.53499999999985,
      "v": 100
    },
    {
      "midi": 67,
      "hit": false,
      "t": 2112.675,
      "d": 422.53499999999985,
      "v": 100
    },
    {
      "midi": 43,
      "hit": false,
      "t": 2112.675,
      "d": 422.53499999999985,
      "v": 100
    },
    {
      "midi": 46,
      "hit": false,
      "t": 2535.21,
      "d": 422.53499999999985,
      "v": 100
    },
    {
      "midi": 46,
      "hit": false,
      "t": 2957.745,
      "d": 422.53499999999985,
      "v": 100
    },
    {
      "midi": 51,
      "hit": false,
      "t": 3380.2799999999997,
      "d": 422.53499999999985,
      "v": 100
    },
    {
      "midi": 51,
      "hit": false,
      "t": 3802.8149999999996,
      "d": 422.53499999999985,
      "v": 100
    },
    {
      "midi": 46,
      "hit": false,
      "t": 4225.349999999999,
      "d": 211.26749999999993,
      "v": 100
    },
    {
      "midi": 48,
      "hit": false,
      "t": 4436.617499999999,
      "d": 633.8024999999998,
      "v": 100
    },
    {
      "midi": 43,
      "hit": false,
      "t": 5070.419999999999,
      "d": 422.53499999999985,
      "v": 100
    },
    {
      "midi": 55,
      "hit": false,
      "t": 5070.42,
      "d": 422.53499999999985,
      "v": 100
    },
    {
      "midi": 67,
      "hit": false,
      "t": 5070.42,
      "d": 422.53499999999985,
      "v": 100
    },
    {
      "midi": 43,
      "hit": false,
      "t": 5492.954999999999,
      "d": 422.53499999999985,
      "v": 100
    },
    {
      "midi": 55,
      "hit": false,
      "t": 5492.955,
      "d": 422.53499999999985,
      "v": 100
    },
    {
      "midi": 67,
      "hit": false,
      "t": 5492.955,
      "d": 422.53499999999985,
      "v": 100
    },
    {
      "midi": 46,
      "hit": false,
      "t": 5915.489999999999,
      "d": 422.53499999999985,
      "v": 100
    },
    {
      "midi": 46,
      "hit": false,
      "t": 6338.024999999999,
      "d": 422.53499999999985,
      "v": 100
    },
    {
      "midi": 51,
      "hit": false,
      "t": 6760.559999999999,
      "d": 422.53499999999985,
      "v": 100
    },
    {
      "midi": 51,
      "hit": false,
      "t": 7183.094999999998,
      "d": 422.53499999999985,
      "v": 100
    },
    {
      "midi": 46,
      "hit": false,
      "t": 7605.629999999998,
      "d": 211.26749999999993,
      "v": 100
    },
    {
      "midi": 72,
      "hit": false,
      "t": 7605.63,
      "d": 845.0700000000006,
      "v": 100
    },
    {
      "midi": 48,
      "hit": false,
      "t": 7816.897499999998,
      "d": 633.8025000000007,
      "v": 100
    },
    {
      "midi": 43,
      "hit": false,
      "t": 8450.699999999999,
      "d": 422.53499999999985,
      "v": 100
    },
    {
      "midi": 74,
      "hit": false,
      "t": 8450.7,
      "d": 845.0699999999997,
      "v": 100
    },
    {
      "midi": 43,
      "hit": false,
      "t": 8873.234999999999,
      "d": 422.53499999999985,
      "v": 100
    },
    {
      "midi": 46,
      "hit": false,
      "t": 9295.769999999999,
      "d": 422.53499999999985,
      "v": 100
    },
    {
      "midi": 67,
      "hit": false,
      "t": 9295.77,
      "d": 633.8024999999998,
      "v": 100
    },
    {
      "midi": 46,
      "hit": false,
      "t": 9718.304999999998,
      "d": 422.53499999999985,
      "v": 100
    },
    {
      "midi": 70,
      "hit": false,
      "t": 9929.5725,
      "d": 211.26749999999993,
      "v": 100
    },
    {
      "midi": 51,
      "hit": false,
      "t": 10140.839999999998,
      "d": 422.53499999999985,
      "v": 100
    },
    {
      "midi": 67,
      "hit": false,
      "t": 10140.84,
      "d": 422.53499999999985,
      "v": 100
    },
    {
      "midi": 51,
      "hit": false,
      "t": 10563.374999999998,
      "d": 422.53499999999985,
      "v": 100
    },
    {
      "midi": 67,
      "hit": false,
      "t": 10563.375,
      "d": 422.53499999999985,
      "v": 100
    },
    {
      "midi": 46,
      "hit": false,
      "t": 10985.909999999998,
      "d": 211.26749999999993,
      "v": 100
    },
    {
      "midi": 70,
      "hit": false,
      "t": 10985.91,
      "d": 422.53499999999985,
      "v": 100
    },
    {
      "midi": 48,
      "hit": false,
      "t": 11197.177499999998,
      "d": 633.8024999999998,
      "v": 100
    },
    {
      "midi": 75,
      "hit": false,
      "t": 11408.445,
      "d": 422.53499999999985,
      "v": 100
    },
    {
      "midi": 43,
      "hit": false,
      "t": 11830.979999999998,
      "d": 422.53499999999985,
      "v": 100
    },
    {
      "midi": 43,
      "hit": false,
      "t": 12253.514999999998,
      "d": 422.53499999999985,
      "v": 100
    },
    {
      "midi": 46,
      "hit": false,
      "t": 12676.049999999997,
      "d": 422.53499999999985,
      "v": 100
    },
    {
      "midi": 74,
      "hit": false,
      "t": 12676.05,
      "d": 211.26749999999993,
      "v": 100
    },
    {
      "midi": 67,
      "hit": false,
      "t": 12887.3175,
      "d": 422.53499999999985,
      "v": 100
    },
    {
      "midi": 46,
      "hit": false,
      "t": 13098.584999999997,
      "d": 422.53499999999985,
      "v": 100
    },
    {
      "midi": 70,
      "hit": false,
      "t": 13309.852499999999,
      "d": 211.26749999999993,
      "v": 100
    },
    {
      "midi": 51,
      "hit": false,
      "t": 13521.119999999997,
      "d": 422.53499999999985,
      "v": 100
    },
    {
      "midi": 67,
      "hit": false,
      "t": 13521.119999999999,
      "d": 422.53499999999985,
      "v": 100
    },
    {
      "midi": 51,
      "hit": false,
      "t": 13943.654999999997,
      "d": 422.53499999999985,
      "v": 100
    },
    {
      "midi": 67,
      "hit": false,
      "t": 13943.654999999999,
      "d": 422.53499999999985,
      "v": 100
    },
    {
      "midi": 46,
      "hit": false,
      "t": 14366.189999999997,
      "d": 211.26749999999993,
      "v": 100
    },
    {
      "midi": 70,
      "hit": false,
      "t": 14366.189999999999,
      "d": 422.53499999999985,
      "v": 100
    },
    {
      "midi": 48,
      "hit": false,
      "t": 14577.457499999997,
      "d": 633.8024999999998,
      "v": 100
    },
    {
      "midi": 72,
      "hit": false,
      "t": 14788.724999999999,
      "d": 422.53499999999985,
      "v": 100
    },
    {
      "midi": 43,
      "hit": false,
      "t": 15211.259999999997,
      "d": 422.53499999999985,
      "v": 100
    },
    {
      "midi": 43,
      "hit": false,
      "t": 15633.794999999996,
      "d": 422.53499999999985,
      "v": 100
    },
    {
      "midi": 46,
      "hit": false,
      "t": 16056.329999999996,
      "d": 422.5350000000017,
      "v": 100
    },
    {
      "midi": 74,
      "hit": false,
      "t": 16056.329999999998,
      "d": 211.26749999999993,
      "v": 100
    },
    {
      "midi": 67,
      "hit": false,
      "t": 16267.597499999998,
      "d": 422.5350000000017,
      "v": 100
    },
    {
      "midi": 46,
      "hit": false,
      "t": 16478.864999999998,
      "d": 422.53499999999985,
      "v": 100
    },
    {
      "midi": 70,
      "hit": false,
      "t": 16690.1325,
      "d": 211.26750000000175,
      "v": 100
    },
    {
      "midi": 51,
      "hit": false,
      "t": 16901.399999999998,
      "d": 422.53499999999985,
      "v": 100
    },
    {
      "midi": 67,
      "hit": false,
      "t": 16901.4,
      "d": 211.26750000000175,
      "v": 100
    },
    {
      "midi": 67,
      "hit": false,
      "t": 17112.667500000003,
      "d": 422.53499999999985,
      "v": 100
    },
    {
      "midi": 51,
      "hit": false,
      "t": 17323.934999999998,
      "d": 422.53499999999985,
      "v": 100
    },
    {
      "midi": 67,
      "hit": false,
      "t": 17535.202500000003,
      "d": 211.26750000000175,
      "v": 100
    },
    {
      "midi": 46,
      "hit": false,
      "t": 17746.469999999998,
      "d": 211.26750000000175,
      "v": 100
    },
    {
      "midi": 70,
      "hit": false,
      "t": 17746.470000000005,
      "d": 422.53499999999985,
      "v": 100
    },
    {
      "midi": 48,
      "hit": false,
      "t": 17957.7375,
      "d": 633.8025000000016,
      "v": 100
    },
    {
      "midi": 72,
      "hit": false,
      "t": 18169.005000000005,
      "d": 422.53499999999985,
      "v": 100
    },
    {
      "midi": 43,
      "hit": false,
      "t": 18591.54,
      "d": 422.53499999999985,
      "v": 100
    },
    {
      "midi": 74,
      "hit": false,
      "t": 18591.540000000005,
      "d": 211.26750000000175,
      "v": 100
    },
    {
      "midi": 67,
      "hit": false,
      "t": 18802.807500000006,
      "d": 422.53499999999985,
      "v": 100
    },
    {
      "midi": 43,
      "hit": false,
      "t": 19014.075,
      "d": 422.53499999999985,
      "v": 100
    },
    {
      "midi": 67,
      "hit": false,
      "t": 19225.342500000006,
      "d": 422.53499999999985,
      "v": 100
    },
    {
      "midi": 43,
      "hit": false,
      "t": 19436.61,
      "d": 422.53499999999985,
      "v": 100
    },
    {
      "midi": 65,
      "hit": false,
      "t": 19647.877500000006,
      "d": 422.53499999999985,
      "v": 100
    },
    {
      "midi": 43,
      "hit": false,
      "t": 19859.145,
      "d": 422.53499999999985,
      "v": 100
    },
    {
      "midi": 65,
      "hit": false,
      "t": 20070.412500000006,
      "d": 211.26750000000175,
      "v": 100
    },
    {
      "midi": 46,
      "hit": false,
      "t": 20281.68,
      "d": 422.53499999999985,
      "v": 100
    },
    {
      "midi": 70,
      "hit": false,
      "t": 20281.680000000008,
      "d": 211.26750000000175,
      "v": 100
    },
    {
      "midi": 72,
      "hit": false,
      "t": 20492.94750000001,
      "d": 211.26750000000175,
      "v": 100
    },
    {
      "midi": 46,
      "hit": false,
      "t": 20704.215,
      "d": 422.53499999999985,
      "v": 100
    },
    {
      "midi": 74,
      "hit": false,
      "t": 20704.21500000001,
      "d": 211.26750000000175,
      "v": 100
    },
    {
      "midi": 74,
      "hit": false,
      "t": 20915.482500000013,
      "d": 633.8025000000016,
      "v": 100
    },
    {
      "midi": 46,
      "hit": false,
      "t": 21126.75,
      "d": 422.53499999999985,
      "v": 100
    },
    {
      "midi": 46,
      "hit": false,
      "t": 21549.285,
      "d": 422.53499999999985,
      "v": 100
    },
    {
      "midi": 77,
      "hit": false,
      "t": 21549.285000000014,
      "d": 211.26750000000175,
      "v": 100
    },
    {
      "midi": 74,
      "hit": false,
      "t": 21760.552500000016,
      "d": 845.0699999999997,
      "v": 100
    },
    {
      "midi": 43,
      "hit": false,
      "t": 21971.82,
      "d": 422.53499999999985,
      "v": 100
    },
    {
      "midi": 43,
      "hit": false,
      "t": 22394.355,
      "d": 422.53499999999985,
      "v": 100
    },
    {
      "midi": 67,
      "hit": false,
      "t": 22605.622500000016,
      "d": 845.0699999999997,
      "v": 100
    },
    {
      "midi": 46,
      "hit": false,
      "t": 22816.89,
      "d": 422.53499999999985,
      "v": 100
    },
    {
      "midi": 46,
      "hit": false,
      "t": 23239.425,
      "d": 422.53499999999985,
      "v": 100
    },
    {
      "midi": 70,
      "hit": false,
      "t": 23450.692500000016,
      "d": 211.26750000000175,
      "v": 100
    },
    {
      "midi": 51,
      "hit": false,
      "t": 23661.96,
      "d": 422.53499999999985,
      "v": 100
    },
    {
      "midi": 67,
      "hit": false,
      "t": 23661.960000000017,
      "d": 845.0699999999997,
      "v": 100
    },
    {
      "midi": 51,
      "hit": false,
      "t": 24084.495,
      "d": 422.53499999999985,
      "v": 100
    },
    {
      "midi": 46,
      "hit": false,
      "t": 24507.03,
      "d": 211.26750000000175,
      "v": 100
    },
    {
      "midi": 70,
      "hit": false,
      "t": 24507.030000000017,
      "d": 422.53499999999985,
      "v": 100
    },
    {
      "midi": 48,
      "hit": false,
      "t": 24718.2975,
      "d": 633.8025000000016,
      "v": 100
    },
    {
      "midi": 72,
      "hit": false,
      "t": 24929.565000000017,
      "d": 422.53499999999985,
      "v": 100
    },
    {
      "midi": 43,
      "hit": false,
      "t": 25352.100000000002,
      "d": 422.53499999999985,
      "v": 100
    },
    {
      "midi": 74,
      "hit": false,
      "t": 25352.100000000017,
      "d": 633.8025000000016,
      "v": 100
    },
    {
      "midi": 43,
      "hit": false,
      "t": 25774.635000000002,
      "d": 422.53499999999985,
      "v": 100
    },
    {
      "midi": 67,
      "hit": false,
      "t": 25985.90250000002,
      "d": 845.0699999999997,
      "v": 100
    },
    {
      "midi": 46,
      "hit": false,
      "t": 26197.170000000002,
      "d": 422.53499999999985,
      "v": 100
    },
    {
      "midi": 46,
      "hit": false,
      "t": 26619.705,
      "d": 422.53499999999985,
      "v": 100
    },
    {
      "midi": 70,
      "hit": false,
      "t": 26830.972500000018,
      "d": 211.26750000000175,
      "v": 100
    },
    {
      "midi": 51,
      "hit": false,
      "t": 27042.24,
      "d": 422.53499999999985,
      "v": 100
    },
    {
      "midi": 67,
      "hit": false,
      "t": 27042.24000000002,
      "d": 422.53499999999985,
      "v": 100
    },
    {
      "midi": 51,
      "hit": false,
      "t": 27464.775,
      "d": 422.53499999999985,
      "v": 100
    },
    {
      "midi": 46,
      "hit": false,
      "t": 27887.31,
      "d": 211.26750000000175,
      "v": 100
    },
    {
      "midi": 70,
      "hit": false,
      "t": 27887.31000000002,
      "d": 211.26750000000175,
      "v": 100
    },
    {
      "midi": 48,
      "hit": false,
      "t": 28098.577500000003,
      "d": 633.8025000000016,
      "v": 100
    },
    {
      "midi": 72,
      "hit": false,
      "t": 28098.57750000002,
      "d": 422.53499999999985,
      "v": 100
    },
    {
      "midi": 74,
      "hit": false,
      "t": 28521.11250000002,
      "d": 1056.3375000000015,
      "v": 100
    },
    {
      "midi": 43,
      "hit": false,
      "t": 28732.380000000005,
      "d": 422.53499999999985,
      "v": 100
    },
    {
      "midi": 43,
      "hit": false,
      "t": 29154.915000000005,
      "d": 422.53499999999985,
      "v": 100
    },
    {
      "midi": 46,
      "hit": false,
      "t": 29577.450000000004,
      "d": 422.53499999999985,
      "v": 100
    },
    {
      "midi": 67,
      "hit": false,
      "t": 29577.450000000023,
      "d": 633.8025000000016,
      "v": 100
    },
    {
      "midi": 46,
      "hit": false,
      "t": 29999.985000000004,
      "d": 422.53499999999985,
      "v": 100
    },
    {
      "midi": 70,
      "hit": false,
      "t": 30211.252500000024,
      "d": 211.26750000000175,
      "v": 100
    },
    {
      "midi": 51,
      "hit": false,
      "t": 30422.520000000004,
      "d": 422.53499999999985,
      "v": 100
    },
    {
      "midi": 67,
      "hit": false,
      "t": 30422.520000000026,
      "d": 422.53499999999985,
      "v": 100
    },
    {
      "midi": 51,
      "hit": false,
      "t": 30845.055000000004,
      "d": 422.53499999999985,
      "v": 100
    },
    {
      "midi": 70,
      "hit": false,
      "t": 31056.322500000028,
      "d": 422.53499999999985,
      "v": 100
    },
    {
      "midi": 46,
      "hit": false,
      "t": 31267.590000000004,
      "d": 211.26750000000175,
      "v": 100
    },
    {
      "midi": 48,
      "hit": false,
      "t": 31478.857500000006,
      "d": 633.8025000000016,
      "v": 100
    },
    {
      "midi": 72,
      "hit": false,
      "t": 31478.857500000027,
      "d": 422.53499999999985,
      "v": 100
    },
    {
      "midi": 74,
      "hit": false,
      "t": 31901.392500000027,
      "d": 422.53499999999985,
      "v": 100
    },
    {
      "midi": 43,
      "hit": false,
      "t": 32112.660000000007,
      "d": 422.53499999999985,
      "v": 100
    },
    {
      "midi": 74,
      "hit": false,
      "t": 32323.927500000027,
      "d": 422.53499999999985,
      "v": 100
    },
    {
      "midi": 43,
      "hit": false,
      "t": 32535.195000000007,
      "d": 422.5350000000035,
      "v": 100
    },
    {
      "midi": 74,
      "hit": false,
      "t": 32746.462500000027,
      "d": 422.53499999999985,
      "v": 100
    },
    {
      "midi": 43,
      "hit": false,
      "t": 32957.73000000001,
      "d": 422.5350000000035,
      "v": 100
    },
    {
      "midi": 72,
      "hit": false,
      "t": 33168.99750000003,
      "d": 211.26750000000175,
      "v": 100
    },
    {
      "midi": 43,
      "hit": false,
      "t": 33380.265000000014,
      "d": 422.5350000000035,
      "v": 100
    },
    {
      "midi": 74,
      "hit": false,
      "t": 33380.26500000003,
      "d": 422.5350000000035,
      "v": 100
    },
    {
      "midi": 46,
      "hit": false,
      "t": 33802.80000000002,
      "d": 422.5350000000035,
      "v": 100
    },
    {
      "midi": 74,
      "hit": false,
      "t": 33802.80000000003,
      "d": 422.5350000000035,
      "v": 100
    },
    {
      "midi": 46,
      "hit": false,
      "t": 34225.33500000002,
      "d": 422.5350000000035,
      "v": 100
    },
    {
      "midi": 74,
      "hit": false,
      "t": 34225.335000000036,
      "d": 422.5350000000035,
      "v": 100
    },
    {
      "midi": 46,
      "hit": false,
      "t": 34647.870000000024,
      "d": 422.5350000000035,
      "v": 100
    },
    {
      "midi": 74,
      "hit": false,
      "t": 34647.87000000004,
      "d": 422.5350000000035,
      "v": 100
    },
    {
      "midi": 46,
      "hit": false,
      "t": 35070.40500000003,
      "d": 422.5350000000035,
      "v": 100
    },
    {
      "midi": 43,
      "hit": false,
      "t": 35492.94000000003,
      "d": 422.5350000000035,
      "v": 100
    },
    {
      "midi": 43,
      "hit": false,
      "t": 35915.475000000035,
      "d": 422.5350000000035,
      "v": 100
    },
    {
      "midi": 70,
      "hit": false,
      "t": 36126.742500000044,
      "d": 633.802499999998,
      "v": 100
    },
    {
      "midi": 43,
      "hit": false,
      "t": 36338.01000000004,
      "d": 422.5350000000035,
      "v": 100
    },
    {
      "midi": 69,
      "hit": false,
      "t": 36760.54500000004,
      "d": 211.26750000000175,
      "v": 100
    },
    {
      "midi": 43,
      "hit": false,
      "t": 36760.54500000004,
      "d": 422.5350000000035,
      "v": 100
    },
    {
      "midi": 67,
      "hit": false,
      "t": 36971.812500000044,
      "d": 211.26750000000175,
      "v": 100
    },
    {
      "midi": 69,
      "hit": false,
      "t": 37183.080000000045,
      "d": 422.5350000000035,
      "v": 100
    },
    {
      "midi": 43,
      "hit": false,
      "t": 37183.080000000045,
      "d": 422.5350000000035,
      "v": 100
    },
    {
      "midi": 67,
      "hit": false,
      "t": 37605.61500000005,
      "d": 211.26750000000175,
      "v": 100
    },
    {
      "midi": 43,
      "hit": false,
      "t": 37605.61500000005,
      "d": 422.5350000000035,
      "v": 100
    },
    {
      "midi": 67,
      "hit": false,
      "t": 37816.88250000005,
      "d": 422.5350000000035,
      "v": 100
    },
    {
      "midi": 43,
      "hit": false,
      "t": 38028.15000000005,
      "d": 422.5350000000035,
      "v": 100
    },
    {
      "midi": 74,
      "hit": false,
      "t": 38239.417500000054,
      "d": 633.802499999998,
      "v": 100
    },
    {
      "midi": 43,
      "hit": false,
      "t": 38450.685000000056,
      "d": 422.5350000000035,
      "v": 100
    },
    {
      "midi": 72,
      "hit": false,
      "t": 38873.22000000005,
      "d": 211.26750000000175,
      "v": 100
    },
    {
      "midi": 46,
      "hit": false,
      "t": 38873.22000000006,
      "d": 422.5350000000035,
      "v": 100
    },
    {
      "midi": 70,
      "hit": false,
      "t": 39084.487500000054,
      "d": 422.5350000000035,
      "v": 100
    },
    {
      "midi": 46,
      "hit": false,
      "t": 39295.75500000006,
      "d": 422.5350000000035,
      "v": 100
    },
    {
      "midi": 74,
      "hit": false,
      "t": 39507.02250000006,
      "d": 633.802499999998,
      "v": 100
    },
    {
      "midi": 46,
      "hit": false,
      "t": 39718.290000000066,
      "d": 422.5350000000035,
      "v": 100
    },
    {
      "midi": 69,
      "hit": false,
      "t": 40140.825000000055,
      "d": 211.26750000000175,
      "v": 100
    },
    {
      "midi": 46,
      "hit": false,
      "t": 40140.82500000007,
      "d": 422.5350000000035,
      "v": 100
    },
    {
      "midi": 67,
      "hit": false,
      "t": 40352.09250000006,
      "d": 211.26750000000175,
      "v": 100
    },
    {
      "midi": 74,
      "hit": false,
      "t": 40563.36000000006,
      "d": 422.5350000000035,
      "v": 100
    },
    {
      "midi": 46,
      "hit": false,
      "t": 40563.36000000007,
      "d": 422.5350000000035,
      "v": 100
    },
    {
      "midi": 67,
      "hit": false,
      "t": 40985.89500000006,
      "d": 211.26750000000175,
      "v": 100
    },
    {
      "midi": 46,
      "hit": false,
      "t": 40985.89500000008,
      "d": 422.5350000000035,
      "v": 100
    },
    {
      "midi": 70,
      "hit": false,
      "t": 41197.162500000064,
      "d": 1056.3375000000015,
      "v": 100
    },
    {
      "midi": 46,
      "hit": false,
      "t": 41408.43000000008,
      "d": 422.5350000000035,
      "v": 100
    },
    {
      "midi": 46,
      "hit": false,
      "t": 41830.965000000084,
      "d": 422.5350000000035,
      "v": 100
    },
    {
      "midi": 51,
      "hit": false,
      "t": 42253.50000000009,
      "d": 422.5350000000035,
      "v": 100
    },
    {
      "midi": 67,
      "hit": false,
      "t": 42464.76750000007,
      "d": 422.5350000000035,
      "v": 100
    },
    {
      "midi": 75,
      "hit": false,
      "t": 42464.76750000007,
      "d": 422.5350000000035,
      "v": 100
    },
    {
      "midi": 51,
      "hit": false,
      "t": 42676.03500000009,
      "d": 422.5350000000035,
      "v": 100
    },
    {
      "midi": 67,
      "hit": false,
      "t": 42887.30250000007,
      "d": 633.802499999998,
      "v": 100
    },
    {
      "midi": 75,
      "hit": false,
      "t": 42887.30250000007,
      "d": 633.802499999998,
      "v": 100
    },
    {
      "midi": 51,
      "hit": false,
      "t": 43098.570000000094,
      "d": 422.5350000000035,
      "v": 100
    },
    {
      "midi": 67,
      "hit": false,
      "t": 43521.10500000007,
      "d": 211.26750000000175,
      "v": 100
    },
    {
      "midi": 75,
      "hit": false,
      "t": 43521.10500000007,
      "d": 211.26750000000175,
      "v": 100
    },
    {
      "midi": 51,
      "hit": false,
      "t": 43521.1050000001,
      "d": 422.5350000000035,
      "v": 100
    },
    {
      "midi": 67,
      "hit": false,
      "t": 43732.37250000007,
      "d": 422.5350000000035,
      "v": 100
    },
    {
      "midi": 75,
      "hit": false,
      "t": 43732.37250000007,
      "d": 422.5350000000035,
      "v": 100
    },
    {
      "midi": 51,
      "hit": false,
      "t": 43943.6400000001,
      "d": 422.5350000000035,
      "v": 100
    },
    {
      "midi": 67,
      "hit": false,
      "t": 44154.907500000074,
      "d": 422.5350000000035,
      "v": 100
    },
    {
      "midi": 75,
      "hit": false,
      "t": 44154.907500000074,
      "d": 422.5350000000035,
      "v": 100
    },
    {
      "midi": 51,
      "hit": false,
      "t": 44366.175000000105,
      "d": 422.5350000000035,
      "v": 100
    },
    {
      "midi": 67,
      "hit": false,
      "t": 44577.44250000008,
      "d": 422.5350000000035,
      "v": 100
    },
    {
      "midi": 77,
      "hit": false,
      "t": 44577.44250000008,
      "d": 422.5350000000035,
      "v": 100
    },
    {
      "midi": 51,
      "hit": false,
      "t": 44788.71000000011,
      "d": 422.5350000000035,
      "v": 100
    },
    {
      "midi": 67,
      "hit": false,
      "t": 44999.97750000008,
      "d": 211.26750000000175,
      "v": 100
    },
    {
      "midi": 75,
      "hit": false,
      "t": 44999.97750000008,
      "d": 211.26750000000175,
      "v": 100
    },
    {
      "midi": 51,
      "hit": false,
      "t": 45211.24500000011,
      "d": 422.5350000000035,
      "v": 100
    },
    {
      "midi": 63,
      "hit": false,
      "t": 45422.512500000084,
      "d": 211.26750000000175,
      "v": 100
    },
    {
      "midi": 72,
      "hit": false,
      "t": 45422.512500000084,
      "d": 211.26750000000175,
      "v": 100
    },
    {
      "midi": 63,
      "hit": false,
      "t": 45633.780000000086,
      "d": 422.5350000000035,
      "v": 100
    },
    {
      "midi": 72,
      "hit": false,
      "t": 45633.780000000086,
      "d": 422.5350000000035,
      "v": 100
    },
    {
      "midi": 48,
      "hit": false,
      "t": 45633.780000000115,
      "d": 422.5350000000035,
      "v": 100
    },
    {
      "midi": 63,
      "hit": false,
      "t": 46056.31500000009,
      "d": 211.26750000000175,
      "v": 100
    },
    {
      "midi": 72,
      "hit": false,
      "t": 46056.31500000009,
      "d": 211.26750000000175,
      "v": 100
    },
    {
      "midi": 48,
      "hit": false,
      "t": 46056.31500000012,
      "d": 422.5350000000035,
      "v": 100
    },
    {
      "midi": 63,
      "hit": false,
      "t": 46267.58250000009,
      "d": 633.802499999998,
      "v": 100
    },
    {
      "midi": 72,
      "hit": false,
      "t": 46267.58250000009,
      "d": 633.802499999998,
      "v": 100
    },
    {
      "midi": 48,
      "hit": false,
      "t": 46478.85000000012,
      "d": 422.5350000000035,
      "v": 100
    },
    {
      "midi": 63,
      "hit": false,
      "t": 46901.38500000009,
      "d": 211.26750000000175,
      "v": 100
    },
    {
      "midi": 72,
      "hit": false,
      "t": 46901.38500000009,
      "d": 211.26750000000175,
      "v": 100
    },
    {
      "midi": 48,
      "hit": false,
      "t": 46901.385000000126,
      "d": 422.5350000000035,
      "v": 100
    },
    {
      "midi": 63,
      "hit": false,
      "t": 47112.65250000009,
      "d": 422.5350000000035,
      "v": 100
    },
    {
      "midi": 74,
      "hit": false,
      "t": 47112.65250000009,
      "d": 422.5350000000035,
      "v": 100
    },
    {
      "midi": 48,
      "hit": false,
      "t": 47323.92000000013,
      "d": 422.5350000000035,
      "v": 100
    },
    {
      "midi": 63,
      "hit": false,
      "t": 47535.187500000095,
      "d": 422.5350000000035,
      "v": 100
    },
    {
      "midi": 72,
      "hit": false,
      "t": 47535.187500000095,
      "d": 422.5350000000035,
      "v": 100
    },
    {
      "midi": 48,
      "hit": false,
      "t": 47746.45500000013,
      "d": 422.5350000000035,
      "v": 100
    },
    {
      "midi": 63,
      "hit": false,
      "t": 47957.7225000001,
      "d": 422.5350000000035,
      "v": 100
    },
    {
      "midi": 72,
      "hit": false,
      "t": 47957.7225000001,
      "d": 422.5350000000035,
      "v": 100
    },
    {
      "midi": 48,
      "hit": false,
      "t": 48168.990000000136,
      "d": 422.5350000000035,
      "v": 100
    },
    {
      "midi": 63,
      "hit": false,
      "t": 48380.2575000001,
      "d": 422.5350000000035,
      "v": 100
    },
    {
      "midi": 74,
      "hit": false,
      "t": 48380.2575000001,
      "d": 422.5350000000035,
      "v": 100
    },
    {
      "midi": 48,
      "hit": false,
      "t": 48591.52500000014,
      "d": 422.5350000000035,
      "v": 100
    },
    {
      "midi": 63,
      "hit": false,
      "t": 49014.06000000011,
      "d": 422.5350000000035,
      "v": 100
    },
    {
      "midi": 67,
      "hit": false,
      "t": 49014.06000000011,
      "d": 422.5350000000035,
      "v": 100
    },
    {
      "midi": 74,
      "hit": false,
      "t": 49014.06000000011,
      "d": 422.5350000000035,
      "v": 100
    },
    {
      "midi": 48,
      "hit": false,
      "t": 49014.06000000014,
      "d": 422.5350000000035,
      "v": 100
    },
    {
      "midi": 63,
      "hit": false,
      "t": 49436.59500000011,
      "d": 422.5350000000035,
      "v": 100
    },
    {
      "midi": 67,
      "hit": false,
      "t": 49436.59500000011,
      "d": 422.5350000000035,
      "v": 100
    },
    {
      "midi": 74,
      "hit": false,
      "t": 49436.59500000011,
      "d": 422.5350000000035,
      "v": 100
    },
    {
      "midi": 48,
      "hit": false,
      "t": 49436.59500000015,
      "d": 422.5350000000035,
      "v": 100
    },
    {
      "midi": 63,
      "hit": false,
      "t": 49859.130000000114,
      "d": 422.5350000000035,
      "v": 100
    },
    {
      "midi": 67,
      "hit": false,
      "t": 49859.130000000114,
      "d": 422.5350000000035,
      "v": 100
    },
    {
      "midi": 74,
      "hit": false,
      "t": 49859.130000000114,
      "d": 422.5350000000035,
      "v": 100
    },
    {
      "midi": 48,
      "hit": false,
      "t": 49859.13000000015,
      "d": 422.5350000000035,
      "v": 100
    },
    {
      "midi": 63,
      "hit": false,
      "t": 50281.66500000012,
      "d": 422.5350000000035,
      "v": 100
    },
    {
      "midi": 67,
      "hit": false,
      "t": 50281.66500000012,
      "d": 422.5350000000035,
      "v": 100
    },
    {
      "midi": 74,
      "hit": false,
      "t": 50281.66500000012,
      "d": 422.5350000000035,
      "v": 100
    },
    {
      "midi": 48,
      "hit": false,
      "t": 50281.665000000154,
      "d": 422.5350000000035,
      "v": 100
    },
    {
      "midi": 63,
      "hit": false,
      "t": 50704.20000000012,
      "d": 422.5350000000035,
      "v": 100
    },
    {
      "midi": 67,
      "hit": false,
      "t": 50704.20000000012,
      "d": 422.5350000000035,
      "v": 100
    },
    {
      "midi": 74,
      "hit": false,
      "t": 50704.20000000012,
      "d": 422.5350000000035,
      "v": 100
    },
    {
      "midi": 48,
      "hit": false,
      "t": 50704.20000000016,
      "d": 422.5350000000035,
      "v": 100
    },
    {
      "midi": 63,
      "hit": false,
      "t": 51126.735000000124,
      "d": 422.5350000000035,
      "v": 100
    },
    {
      "midi": 67,
      "hit": false,
      "t": 51126.735000000124,
      "d": 422.5350000000035,
      "v": 100
    },
    {
      "midi": 74,
      "hit": false,
      "t": 51126.735000000124,
      "d": 422.5350000000035,
      "v": 100
    },
    {
      "midi": 48,
      "hit": false,
      "t": 51126.73500000016,
      "d": 422.5350000000035,
      "v": 100
    },
    {
      "midi": 63,
      "hit": false,
      "t": 51549.27000000013,
      "d": 211.26750000000175,
      "v": 100
    },
    {
      "midi": 67,
      "hit": false,
      "t": 51549.27000000013,
      "d": 211.26750000000175,
      "v": 100
    },
    {
      "midi": 74,
      "hit": false,
      "t": 51549.27000000013,
      "d": 211.26750000000175,
      "v": 100
    },
    {
      "midi": 48,
      "hit": false,
      "t": 51549.270000000164,
      "d": 422.5350000000035,
      "v": 100
    },
    {
      "midi": 63,
      "hit": false,
      "t": 51760.53750000013,
      "d": 211.26750000000175,
      "v": 100
    },
    {
      "midi": 67,
      "hit": false,
      "t": 51760.53750000013,
      "d": 211.26750000000175,
      "v": 100
    },
    {
      "midi": 74,
      "hit": false,
      "t": 51760.53750000013,
      "d": 211.26750000000175,
      "v": 100
    },
    {
      "midi": 48,
      "hit": false,
      "t": 51971.80500000017,
      "d": 422.5350000000035,
      "v": 100
    },
    {
      "midi": 70,
      "hit": false,
      "t": 52183.07250000013,
      "d": 633.802499999998,
      "v": 100
    },
    {
      "midi": 79,
      "hit": false,
      "t": 52183.07250000013,
      "d": 633.802499999998,
      "v": 100
    },
    {
      "midi": 43,
      "hit": false,
      "t": 52394.34000000017,
      "d": 422.5350000000035,
      "v": 100
    },
    {
      "midi": 43,
      "hit": false,
      "t": 52816.875000000175,
      "d": 422.5350000000035,
      "v": 100
    },
    {
      "midi": 46,
      "hit": false,
      "t": 53239.41000000018,
      "d": 422.5350000000035,
      "v": 100
    },
    {
      "midi": 67,
      "hit": false,
      "t": 53661.94500000013,
      "d": 211.26750000000175,
      "v": 100
    },
    {
      "midi": 46,
      "hit": false,
      "t": 53661.94500000018,
      "d": 422.5350000000035,
      "v": 100
    },
    {
      "midi": 67,
      "hit": false,
      "t": 53873.21250000013,
      "d": 211.26750000000175,
      "v": 100
    },
    {
      "midi": 70,
      "hit": false,
      "t": 54084.480000000134,
      "d": 211.26750000000175,
      "v": 100
    },
    {
      "midi": 51,
      "hit": false,
      "t": 54084.480000000185,
      "d": 422.5350000000035,
      "v": 100
    },
    {
      "midi": 67,
      "hit": false,
      "t": 54295.747500000136,
      "d": 1056.3375000000015,
      "v": 100
    },
    {
      "midi": 51,
      "hit": false,
      "t": 54507.01500000019,
      "d": 422.5350000000035,
      "v": 100
    },
    {
      "midi": 46,
      "hit": false,
      "t": 54929.55000000019,
      "d": 211.26750000000175,
      "v": 100
    },
    {
      "midi": 48,
      "hit": false,
      "t": 55140.817500000194,
      "d": 633.802499999998,
      "v": 100
    },
    {
      "midi": 43,
      "hit": false,
      "t": 55774.62000000019,
      "d": 422.5350000000035,
      "v": 100
    },
    {
      "midi": 43,
      "hit": false,
      "t": 56197.155000000195,
      "d": 422.5350000000035,
      "v": 100
    },
    {
      "midi": 70,
      "hit": false,
      "t": 56408.42250000014,
      "d": 422.5350000000035,
      "v": 100
    },
    {
      "midi": 46,
      "hit": false,
      "t": 56619.6900000002,
      "d": 422.5350000000035,
      "v": 100
    },
    {
      "midi": 67,
      "hit": false,
      "t": 56830.95750000014,
      "d": 422.5350000000035,
      "v": 100
    },
    {
      "midi": 46,
      "hit": false,
      "t": 57042.2250000002,
      "d": 422.5350000000035,
      "v": 100
    },
    {
      "midi": 70,
      "hit": false,
      "t": 57253.492500000146,
      "d": 211.26750000000175,
      "v": 100
    },
    {
      "midi": 67,
      "hit": false,
      "t": 57464.76000000015,
      "d": 845.0699999999997,
      "v": 100
    },
    {
      "midi": 51,
      "hit": false,
      "t": 57464.760000000206,
      "d": 422.5350000000035,
      "v": 100
    },
    {
      "midi": 51,
      "hit": false,
      "t": 57887.29500000021,
      "d": 422.5350000000035,
      "v": 100
    },
    {
      "midi": 70,
      "hit": false,
      "t": 58309.83000000015,
      "d": 422.5350000000035,
      "v": 100
    },
    {
      "midi": 46,
      "hit": false,
      "t": 58309.83000000021,
      "d": 211.26750000000175,
      "v": 100
    },
    {
      "midi": 48,
      "hit": false,
      "t": 58521.097500000214,
      "d": 633.802499999998,
      "v": 100
    },
    {
      "midi": 72,
      "hit": false,
      "t": 58732.36500000015,
      "d": 422.5350000000035,
      "v": 100
    },
    {
      "midi": 43,
      "hit": false,
      "t": 59154.90000000021,
      "d": 422.5350000000035,
      "v": 100
    },
    {
      "midi": 43,
      "hit": false,
      "t": 59577.435000000216,
      "d": 422.5350000000035,
      "v": 100
    },
    {
      "midi": 74,
      "hit": false,
      "t": 59788.70250000015,
      "d": 422.5350000000035,
      "v": 100
    },
    {
      "midi": 46,
      "hit": false,
      "t": 59999.97000000022,
      "d": 422.5350000000035,
      "v": 100
    },
    {
      "midi": 67,
      "hit": false,
      "t": 60211.237500000156,
      "d": 422.5350000000035,
      "v": 100
    },
    {
      "midi": 46,
      "hit": false,
      "t": 60422.50500000022,
      "d": 422.5350000000035,
      "v": 100
    },
    {
      "midi": 70,
      "hit": false,
      "t": 60633.77250000016,
      "d": 211.26750000000175,
      "v": 100
    },
    {
      "midi": 67,
      "hit": false,
      "t": 60845.04000000016,
      "d": 845.0699999999997,
      "v": 100
    },
    {
      "midi": 51,
      "hit": false,
      "t": 60845.04000000023,
      "d": 422.5350000000035,
      "v": 100
    },
    {
      "midi": 51,
      "hit": false,
      "t": 61267.57500000023,
      "d": 422.5350000000035,
      "v": 100
    },
    {
      "midi": 70,
      "hit": false,
      "t": 61690.11000000016,
      "d": 422.5350000000035,
      "v": 100
    },
    {
      "midi": 46,
      "hit": false,
      "t": 61690.11000000023,
      "d": 211.26750000000175,
      "v": 100
    },
    {
      "midi": 48,
      "hit": false,
      "t": 61901.377500000235,
      "d": 633.802499999998,
      "v": 100
    },
    {
      "midi": 72,
      "hit": false,
      "t": 62112.645000000164,
      "d": 422.5350000000035,
      "v": 100
    }
  ]
}