{
  "jsonPath": "Country/Nashville Sound/Ferlin Husky/a-fallen-star.json",
  "path": "Country\\Nashville Sound\\Ferlin Husky\\A Fallen Star.mid",
  "name": "A Fallen Star",
  "difficulty": "Advanced",
  "bpm": 75,
  "notes": [
    {
      "midi": 57,
      "hit": false,
      "t": 890,
      "d": 126.66666666666663,
      "v": 62
    },
    {
      "midi": 52,
      "hit": false,
      "t": 1140,
      "d": 126.66666666666674,
      "v": 62
    },
    {
      "midi": 57,
      "hit": false,
      "t": 1390,
      "d": 133.33333333333348,
      "v": 62
    },
    {
      "midi": 61,
      "hit": false,
      "t": 1666.6666666666667,
      "d": 140,
      "v": 62
    },
    {
      "midi": 57,
      "hit": false,
      "t": 1933.3333333333335,
      "d": 156.66666666666652,
      "v": 62
    },
    {
      "midi": 61,
      "hit": false,
      "t": 2183.3333333333335,
      "d": 106.66666666666652,
      "v": 62
    },
    {
      "midi": 64,
      "hit": false,
      "t": 2466.6666666666665,
      "d": 150,
      "v": 62
    },
    {
      "midi": 61,
      "hit": false,
      "t": 2700,
      "d": 123.33333333333348,
      "v": 62
    },
    {
      "midi": 64,
      "hit": false,
      "t": 2940,
      "d": 100,
      "v": 62
    },
    {
      "midi": 62,
      "hit": false,
      "t": 3223.3333333333335,
      "d": 2866.6666666666683,
      "v": 62
    },
    {
      "midi": 38,
      "hit": false,
      "t": 3233.3333333333335,
      "d": 956.6666666666665,
      "v": 62
    },
    {
      "midi": 66,
      "hit": false,
      "t": 3233.3333333333335,
      "d": 433.33333333333303,
      "v": 62
    },
    {
      "midi": 57,
      "hit": false,
      "t": 3240,
      "d": 326.6666666666665,
      "v": 62
    },
    {
      "midi": 66,
      "hit": false,
      "t": 3256.666666666667,
      "d": 143.33333333333348,
      "v": 62
    },
    {
      "midi": 69,
      "hit": false,
      "t": 3266.666666666667,
      "d": 123.33333333333348,
      "v": 60
    },
    {
      "midi": 74,
      "hit": false,
      "t": 3266.666666666667,
      "d": 123.33333333333348,
      "v": 58
    },
    {
      "midi": 66,
      "hit": false,
      "t": 3500.0000000000005,
      "d": 100,
      "v": 56
    },
    {
      "midi": 69,
      "hit": false,
      "t": 3500.0000000000005,
      "d": 123.33333333333348,
      "v": 44
    },
    {
      "midi": 74,
      "hit": false,
      "t": 3500.0000000000005,
      "d": 133.33333333333348,
      "v": 44
    },
    {
      "midi": 57,
      "hit": false,
      "t": 3666.6666666666665,
      "d": 150,
      "v": 52
    },
    {
      "midi": 66,
      "hit": false,
      "t": 3740.0000000000005,
      "d": 110,
      "v": 58
    },
    {
      "midi": 74,
      "hit": false,
      "t": 3740.0000000000005,
      "d": 126.66666666666652,
      "v": 48
    },
    {
      "midi": 69,
      "hit": false,
      "t": 3750.0000000000005,
      "d": 116.66666666666652,
      "v": 52
    },
    {
      "midi": 57,
      "hit": false,
      "t": 3923.333333333333,
      "d": 343.33333333333303,
      "v": 34
    },
    {
      "midi": 74,
      "hit": false,
      "t": 4006.666666666667,
      "d": 160,
      "v": 60
    },
    {
      "midi": 66,
      "hit": false,
      "t": 4016.666666666667,
      "d": 123.33333333333303,
      "v": 62
    },
    {
      "midi": 69,
      "hit": false,
      "t": 4016.666666666667,
      "d": 133.33333333333303,
      "v": 58
    },
    {
      "midi": 69,
      "hit": false,
      "t": 4023.333333333333,
      "d": 110,
      "v": 40
    },
    {
      "midi": 50,
      "hit": false,
      "t": 4033.3333333333335,
      "d": 73.33333333333348,
      "v": 62
    },
    {
      "midi": 66,
      "hit": false,
      "t": 4266.666666666667,
      "d": 106.66666666666697,
      "v": 60
    },
    {
      "midi": 69,
      "hit": false,
      "t": 4266.666666666667,
      "d": 133.33333333333394,
      "v": 58
    },
    {
      "midi": 74,
      "hit": false,
      "t": 4273.333333333334,
      "d": 100,
      "v": 54
    },
    {
      "midi": 69,
      "hit": false,
      "t": 4299.999999999999,
      "d": 83.33333333333303,
      "v": 50
    },
    {
      "midi": 57,
      "hit": false,
      "t": 4399.999999999999,
      "d": 100,
      "v": 48
    },
    {
      "midi": 69,
      "hit": false,
      "t": 4499.999999999999,
      "d": 90,
      "v": 50
    },
    {
      "midi": 66,
      "hit": false,
      "t": 4523.333333333334,
      "d": 143.33333333333303,
      "v": 58
    },
    {
      "midi": 74,
      "hit": false,
      "t": 4523.333333333334,
      "d": 143.33333333333303,
      "v": 52
    },
    {
      "midi": 69,
      "hit": false,
      "t": 4523.333333333334,
      "d": 150,
      "v": 54
    },
    {
      "midi": 42,
      "hit": false,
      "t": 4523.333333333334,
      "d": 233.33333333333303,
      "v": 62
    },
    {
      "midi": 66,
      "hit": false,
      "t": 4533.333333333332,
      "d": 73.33333333333394,
      "v": 54
    },
    {
      "midi": 57,
      "hit": false,
      "t": 4606.666666666666,
      "d": 143.33333333333394,
      "v": 54
    },
    {
      "midi": 69,
      "hit": false,
      "t": 4733.333333333333,
      "d": 73.33333333333394,
      "v": 50
    },
    {
      "midi": 66,
      "hit": false,
      "t": 4733.333333333333,
      "d": 123.33333333333394,
      "v": 60
    },
    {
      "midi": 66,
      "hit": false,
      "t": 4800,
      "d": 133.33333333333394,
      "v": 60
    },
    {
      "midi": 69,
      "hit": false,
      "t": 4800,
      "d": 156.66666666666697,
      "v": 56
    },
    {
      "midi": 74,
      "hit": false,
      "t": 4806.666666666667,
      "d": 126.66666666666697,
      "v": 54
    },
    {
      "midi": 45,
      "hit": false,
      "t": 4833.333333333334,
      "d": 533.3333333333339,
      "v": 62
    },
    {
      "midi": 57,
      "hit": false,
      "t": 4856.666666666667,
      "d": 116.66666666666697,
      "v": 54
    },
    {
      "midi": 69,
      "hit": false,
      "t": 4966.666666666667,
      "d": 100,
      "v": 42
    },
    {
      "midi": 66,
      "hit": false,
      "t": 4973.333333333334,
      "d": 100,
      "v": 52
    },
    {
      "midi": 66,
      "hit": false,
      "t": 5056.666666666667,
      "d": 110,
      "v": 58
    },
    {
      "midi": 69,
      "hit": false,
      "t": 5056.666666666667,
      "d": 133.33333333333394,
      "v": 54
    },
    {
      "midi": 74,
      "hit": false,
      "t": 5073.333333333334,
      "d": 110,
      "v": 52
    },
    {
      "midi": 57,
      "hit": false,
      "t": 5100.000000000001,
      "d": 106.66666666666697,
      "v": 50
    },
    {
      "midi": 66,
      "hit": false,
      "t": 5223.333333333335,
      "d": 76.66666666666697,
      "v": 54
    },
    {
      "midi": 66,
      "hit": false,
      "t": 5306.666666666668,
      "d": 126.66666666666697,
      "v": 58
    },
    {
      "midi": 69,
      "hit": false,
      "t": 5316.666666666668,
      "d": 116.66666666666697,
      "v": 54
    },
    {
      "midi": 57,
      "hit": false,
      "t": 5323.333333333335,
      "d": 116.66666666666697,
      "v": 52
    },
    {
      "midi": 74,
      "hit": false,
      "t": 5333.333333333335,
      "d": 83.33333333333303,
      "v": 46
    },
    {
      "midi": 66,
      "hit": false,
      "t": 5456.666666666669,
      "d": 93.33333333333303,
      "v": 58
    },
    {
      "midi": 57,
      "hit": false,
      "t": 5550.000000000002,
      "d": 123.33333333333303,
      "v": 50
    },
    {
      "midi": 42,
      "hit": false,
      "t": 5566.666666666668,
      "d": 256.66666666666697,
      "v": 62
    },
    {
      "midi": 66,
      "hit": false,
      "t": 5573.333333333335,
      "d": 126.66666666666697,
      "v": 62
    },
    {
      "midi": 69,
      "hit": false,
      "t": 5573.333333333335,
      "d": 126.66666666666697,
      "v": 58
    },
    {
      "midi": 74,
      "hit": false,
      "t": 5590.000000000002,
      "d": 110,
      "v": 52
    },
    {
      "midi": 66,
      "hit": false,
      "t": 5683.333333333335,
      "d": 83.33333333333394,
      "v": 52
    },
    {
      "midi": 69,
      "hit": false,
      "t": 5700.000000000002,
      "d": 56.66666666666697,
      "v": 40
    },
    {
      "midi": 57,
      "hit": false,
      "t": 5773.333333333336,
      "d": 126.66666666666697,
      "v": 50
    },
    {
      "midi": 66,
      "hit": false,
      "t": 5833.333333333335,
      "d": 99.99999999999909,
      "v": 60
    },
    {
      "midi": 69,
      "hit": false,
      "t": 5833.333333333335,
      "d": 106.66666666666606,
      "v": 56
    },
    {
      "midi": 74,
      "hit": false,
      "t": 5856.666666666668,
      "d": 43.33333333333303,
      "v": 40
    },
    {
      "midi": 69,
      "hit": false,
      "t": 5916.66666666667,
      "d": 73.33333333333303,
      "v": 44
    },
    {
      "midi": 66,
      "hit": false,
      "t": 5916.66666666667,
      "d": 149.9999999999991,
      "v": 62
    },
    {
      "midi": 57,
      "hit": false,
      "t": 6023.333333333336,
      "d": 126.66666666666606,
      "v": 52
    },
    {
      "midi": 69,
      "hit": false,
      "t": 6090.000000000001,
      "d": 110,
      "v": 62
    },
    {
      "midi": 66,
      "hit": false,
      "t": 6090.000000000001,
      "d": 116.66666666666697,
      "v": 62
    },
    {
      "midi": 45,
      "hit": false,
      "t": 6090.000000000001,
      "d": 176.66666666666697,
      "v": 62
    },
    {
      "midi": 74,
      "hit": false,
      "t": 6100.000000000001,
      "d": 83.33333333333303,
      "v": 56
    },
    {
      "midi": 57,
      "hit": false,
      "t": 6273.333333333335,
      "d": 160,
      "v": 52
    },
    {
      "midi": 62,
      "hit": false,
      "t": 6366.666666666668,
      "d": 140,
      "v": 62
    },
    {
      "midi": 66,
      "hit": false,
      "t": 6373.333333333335,
      "d": 160,
      "v": 62
    },
    {
      "midi": 69,
      "hit": false,
      "t": 6373.333333333335,
      "d": 160,
      "v": 62
    },
    {
      "midi": 38,
      "hit": false,
      "t": 6373.333333333335,
      "d": 1076.666666666667,
      "v": 62
    },
    {
      "midi": 62,
      "hit": false,
      "t": 6400.000000000002,
      "d": 90,
      "v": 56
    },
    {
      "midi": 66,
      "hit": false,
      "t": 6400.000000000002,
      "d": 150,
      "v": 62
    },
    {
      "midi": 69,
      "hit": false,
      "t": 6423.333333333335,
      "d": 110,
      "v": 60
    },
    {
      "midi": 62,
      "hit": false,
      "t": 6633.333333333335,
      "d": 106.66666666666697,
      "v": 52
    },
    {
      "midi": 66,
      "hit": false,
      "t": 6633.333333333335,
      "d": 106.66666666666697,
      "v": 58
    },
    {
      "midi": 69,
      "hit": false,
      "t": 6640.000000000002,
      "d": 100,
      "v": 54
    },
    {
      "midi": 69,
      "hit": false,
      "t": 6883.333333333335,
      "d": 116.66666666666697,
      "v": 56
    },
    {
      "midi": 66,
      "hit": false,
      "t": 6883.333333333335,
      "d": 133.33333333333394,
      "v": 56
    },
    {
      "midi": 62,
      "hit": false,
      "t": 6900.000000000002,
      "d": 133.33333333333394,
      "v": 54
    },
    {
      "midi": 62,
      "hit": false,
      "t": 6966.666666666669,
      "d": 306.66666666666697,
      "v": 62
    },
    {
      "midi": 69,
      "hit": false,
      "t": 7183.333333333336,
      "d": 139.9999999999991,
      "v": 62
    },
    {
      "midi": 62,
      "hit": false,
      "t": 7183.333333333336,
      "d": 149.9999999999991,
      "v": 60
    },
    {
      "midi": 66,
      "hit": false,
      "t": 7183.333333333336,
      "d": 149.9999999999991,
      "v": 62
    },
    {
      "midi": 50,
      "hit": false,
      "t": 7206.666666666669,
      "d": 93.33333333333303,
      "v": 62
    },
    {
      "midi": 66,
      "hit": false,
      "t": 7256.666666666669,
      "d": 243.33333333333394,
      "v": 62
    },
    {
      "midi": 69,
      "hit": false,
      "t": 7256.666666666669,
      "d": 343.33333333333394,
      "v": 62
    },
    {
      "midi": 69,
      "hit": false,
      "t": 7456.666666666669,
      "d": 110,
      "v": 54
    },
    {
      "midi": 66,
      "hit": false,
      "t": 7456.666666666669,
      "d": 116.66666666666697,
      "v": 56
    },
    {
      "midi": 62,
      "hit": false,
      "t": 7466.666666666669,
      "d": 106.66666666666697,
      "v": 54
    },
    {
      "midi": 62,
      "hit": false,
      "t": 7516.66666666667,
      "d": 216.66666666666606,
      "v": 62
    },
    {
      "midi": 42,
      "hit": false,
      "t": 7723.333333333336,
      "d": 243.33333333333303,
      "v": 62
    },
    {
      "midi": 69,
      "hit": false,
      "t": 7733.333333333336,
      "d": 133.33333333333303,
      "v": 60
    },
    {
      "midi": 62,
      "hit": false,
      "t": 7733.333333333336,
      "d": 140,
      "v": 58
    },
    {
      "midi": 66,
      "hit": false,
      "t": 7733.333333333336,
      "d": 150,
      "v": 58
    },
    {
      "midi": 67,
      "hit": false,
      "t": 7756.666666666669,
      "d": 176.66666666666697,
      "v": 62
    },
    {
      "midi": 71,
      "hit": false,
      "t": 7756.666666666669,
      "d": 333.33333333333394,
      "v": 62
    },
    {
      "midi": 65,
      "hit": false,
      "t": 8023.333333333336,
      "d": 143.33333333333303,
      "v": 62
    },
    {
      "midi": 69,
      "hit": false,
      "t": 8033.333333333336,
      "d": 140,
      "v": 60
    },
    {
      "midi": 62,
      "hit": false,
      "t": 8033.333333333336,
      "d": 150,
      "v": 60
    },
    {
      "midi": 66,
      "hit": false,
      "t": 8033.333333333336,
      "d": 166.66666666666606,
      "v": 62
    },
    {
      "midi": 45,
      "hit": false,
      "t": 8056.666666666669,
      "d": 699.9999999999973,
      "v": 62
    },
    {
      "midi": 69,
      "hit": false,
      "t": 8056.666666666669,
      "d": 66.66666666666697,
      "v": 54
    },
    {
      "midi": 66,
      "hit": false,
      "t": 8073.333333333336,
      "d": 160,
      "v": 56
    },
    {
      "midi": 74,
      "hit": false,
      "t": 8266.66666666667,
      "d": 133.33333333333394,
      "v": 54
    },
    {
      "midi": 71,
      "hit": false,
      "t": 8300.000000000004,
      "d": 166.66666666666606,
      "v": 58
    },
    {
      "midi": 62,
      "hit": false,
      "t": 8316.666666666668,
      "d": 123.33333333333212,
      "v": 54
    },
    {
      "midi": 66,
      "hit": false,
      "t": 8316.666666666668,
      "d": 133.33333333333212,
      "v": 58
    },
    {
      "midi": 69,
      "hit": false,
      "t": 8333.333333333334,
      "d": 100,
      "v": 50
    },
    {
      "midi": 69,
      "hit": false,
      "t": 8390.000000000004,
      "d": 126.66666666666606,
      "v": 60
    },
    {
      "midi": 66,
      "hit": false,
      "t": 8456.66666666667,
      "d": 133.33333333333394,
      "v": 62
    },
    {
      "midi": 62,
      "hit": false,
      "t": 8516.66666666667,
      "d": 200.00000000000182,
      "v": 62
    },
    {
      "midi": 66,
      "hit": false,
      "t": 8573.333333333334,
      "d": 143.33333333333212,
      "v": 60
    },
    {
      "midi": 62,
      "hit": false,
      "t": 8583.333333333334,
      "d": 123.33333333333212,
      "v": 56
    },
    {
      "midi": 69,
      "hit": false,
      "t": 8590,
      "d": 116.66666666666606,
      "v": 56
    },
    {
      "midi": 66,
      "hit": false,
      "t": 8800.000000000005,
      "d": 189.99999999999818,
      "v": 62
    },
    {
      "midi": 60,
      "hit": false,
      "t": 8806.666666666672,
      "d": 209.99999999999818,
      "v": 62
    },
    {
      "midi": 42,
      "hit": false,
      "t": 8833.333333333332,
      "d": 383.3333333333303,
      "v": 62
    },
    {
      "midi": 62,
      "hit": false,
      "t": 8839.999999999998,
      "d": 126.66666666666606,
      "v": 58
    },
    {
      "midi": 69,
      "hit": false,
      "t": 8839.999999999998,
      "d": 126.66666666666606,
      "v": 60
    },
    {
      "midi": 66,
      "hit": false,
      "t": 8839.999999999998,
      "d": 133.33333333333212,
      "v": 62
    },
    {
      "midi": 57,
      "hit": false,
      "t": 9056.66666666667,
      "d": 276.6666666666679,
      "v": 58
    },
    {
      "midi": 62,
      "hit": false,
      "t": 9089.999999999996,
      "d": 100,
      "v": 56
    },
    {
      "midi": 66,
      "hit": false,
      "t": 9089.999999999996,
      "d": 110,
      "v": 60
    },
    {
      "midi": 69,
      "hit": false,
      "t": 9099.999999999996,
      "d": 90,
      "v": 56
    },
    {
      "midi": 45,
      "hit": false,
      "t": 9306.666666666662,
      "d": 243.33333333333212,
      "v": 62
    },
    {
      "midi": 60,
      "hit": false,
      "t": 9323.333333333338,
      "d": 116.66666666666606,
      "v": 62
    },
    {
      "midi": 66,
      "hit": false,
      "t": 9323.333333333338,
      "d": 160,
      "v": 62
    },
    {
      "midi": 62,
      "hit": false,
      "t": 9333.333333333328,
      "d": 116.66666666666606,
      "v": 58
    },
    {
      "midi": 66,
      "hit": false,
      "t": 9333.333333333328,
      "d": 150,
      "v": 58
    },
    {
      "midi": 69,
      "hit": false,
      "t": 9339.999999999995,
      "d": 100,
      "v": 56
    },
    {
      "midi": 64,
      "hit": false,
      "t": 9600.000000000004,
      "d": 766.6666666666661,
      "v": 60
    },
    {
      "midi": 61,
      "hit": false,
      "t": 9616.66666666666,
      "d": 133.33333333333394,
      "v": 62
    },
    {
      "midi": 69,
      "hit": false,
      "t": 9616.66666666666,
      "d": 140,
      "v": 54
    },
    {
      "midi": 64,
      "hit": false,
      "t": 9616.66666666666,
      "d": 150,
      "v": 56
    },
    {
      "midi": 33,
      "hit": false,
      "t": 9616.66666666666,
      "d": 989.9999999999964,
      "v": 62
    },
    {
      "midi": 57,
      "hit": false,
      "t": 9616.66666666667,
      "d": 690,
      "v": 60
    },
    {
      "midi": 61,
      "hit": false,
      "t": 9623.333333333336,
      "d": 693.3333333333339,
      "v": 62
    },
    {
      "midi": 61,
      "hit": false,
      "t": 9883.333333333327,
      "d": 116.66666666666606,
      "v": 58
    },
    {
      "midi": 64,
      "hit": false,
      "t": 9883.333333333327,
      "d": 123.33333333333212,
      "v": 54
    },
    {
      "midi": 69,
      "hit": false,
      "t": 9899.999999999993,
      "d": 100,
      "v": 46
    },
    {
      "midi": 61,
      "hit": false,
      "t": 10139.999999999993,
      "d": 143.33333333333212,
      "v": 58
    },
    {
      "midi": 64,
      "hit": false,
      "t": 10149.999999999993,
      "d": 139.99999999999818,
      "v": 54
    },
    {
      "midi": 69,
      "hit": false,
      "t": 10156.666666666659,
      "d": 110,
      "v": 48
    },
    {
      "midi": 45,
      "hit": false,
      "t": 10423.333333333325,
      "d": 149.99999999999818,
      "v": 62
    },
    {
      "midi": 61,
      "hit": false,
      "t": 10433.333333333325,
      "d": 133.33333333333212,
      "v": 62
    },
    {
      "midi": 64,
      "hit": false,
      "t": 10433.333333333325,
      "d": 139.99999999999818,
      "v": 58
    },
    {
      "midi": 69,
      "hit": false,
      "t": 10439.99999999999,
      "d": 126.66666666666606,
      "v": 56
    },
    {
      "midi": 57,
      "hit": false,
      "t": 10490.000000000004,
      "d": 110,
      "v": 60
    },
    {
      "midi": 64,
      "hit": false,
      "t": 10490.000000000004,
      "d": 143.33333333333394,
      "v": 60
    },
    {
      "midi": 69,
      "hit": false,
      "t": 10490.000000000004,
      "d": 150,
      "v": 56
    },
    {
      "midi": 61,
      "hit": false,
      "t": 10500.000000000004,
      "d": 156.66666666666606,
      "v": 62
    },
    {
      "midi": 35,
      "hit": false,
      "t": 10683.333333333323,
      "d": 166.66666666666424,
      "v": 62
    },
    {
      "midi": 61,
      "hit": false,
      "t": 10699.999999999989,
      "d": 123.33333333333212,
      "v": 62
    },
    {
      "midi": 64,
      "hit": false,
      "t": 10699.999999999989,
      "d": 139.99999999999818,
      "v": 58
    },
    {
      "midi": 69,
      "hit": false,
      "t": 10706.666666666655,
      "d": 126.66666666666606,
      "v": 52
    },
    {
      "midi": 59,
      "hit": false,
      "t": 10733.333333333336,
      "d": 133.33333333333212,
      "v": 60
    },
    {
      "midi": 62,
      "hit": false,
      "t": 10740.000000000002,
      "d": 116.66666666666606,
      "v": 62
    },
    {
      "midi": 69,
      "hit": false,
      "t": 10740.000000000002,
      "d": 143.33333333333212,
      "v": 54
    },
    {
      "midi": 37,
      "hit": false,
      "t": 10973.333333333321,
      "d": 126.66666666666606,
      "v": 62
    },
    {
      "midi": 61,
      "hit": false,
      "t": 10973.333333333321,
      "d": 126.66666666666606,
      "v": 62
    },
    {
      "midi": 69,
      "hit": false,
      "t": 10983.333333333321,
      "d": 106.66666666666606,
      "v": 46
    },
    {
      "midi": 64,
      "hit": false,
      "t": 10983.333333333321,
      "d": 116.66666666666606,
      "v": 58
    },
    {
      "midi": 64,
      "hit": false,
      "t": 10990,
      "d": 133.33333333333394,
      "v": 60
    },
    {
      "midi": 69,
      "hit": false,
      "t": 10990,
      "d": 150,
      "v": 42
    },
    {
      "midi": 61,
      "hit": false,
      "t": 10990,
      "d": 166.66666666666606,
      "v": 62
    },
    {
      "midi": 69,
      "hit": false,
      "t": 11249.999999999987,
      "d": 140,
      "v": 62
    },
    {
      "midi": 66,
      "hit": false,
      "t": 11249.999999999987,
      "d": 166.66666666666606,
      "v": 62
    },
    {
      "midi": 62,
      "hit": false,
      "t": 11256.666666666653,
      "d": 143.33333333333394,
      "v": 62
    },
    {
      "midi": 38,
      "hit": false,
      "t": 11266.666666666653,
      "d": 683.3333333333321,
      "v": 62
    },
    {
      "midi": 69,
      "hit": false,
      "t": 11266.666666666666,
      "d": 666.6666666666661,
      "v": 62
    },
    {
      "midi": 66,
      "hit": false,
      "t": 11266.666666666666,
      "d": 706.6666666666661,
      "v": 62
    },
    {
      "midi": 62,
      "hit": false,
      "t": 11273.333333333332,
      "d": 676.6666666666661,
      "v": 62
    },
    {
      "midi": 62,
      "hit": false,
      "t": 11539.999999999987,
      "d": 126.66666666666606,
      "v": 60
    },
    {
      "midi": 66,
      "hit": false,
      "t": 11539.999999999987,
      "d": 143.33333333333212,
      "v": 60
    },
    {
      "midi": 69,
      "hit": false,
      "t": 11566.666666666653,
      "d": 100,
      "v": 54
    },
    {
      "midi": 66,
      "hit": false,
      "t": 11816.666666666653,
      "d": 139.99999999999818,
      "v": 62
    },
    {
      "midi": 69,
      "hit": false,
      "t": 11823.33333333332,
      "d": 110,
      "v": 58
    },
    {
      "midi": 62,
      "hit": false,
      "t": 11823.33333333332,
      "d": 116.66666666666606,
      "v": 60
    },
    {
      "midi": 66,
      "hit": false,
      "t": 12066.666666666664,
      "d": 200,
      "v": 62
    },
    {
      "midi": 62,
      "hit": false,
      "t": 12073.33333333333,
      "d": 133.33333333333394,
      "v": 62
    },
    {
      "midi": 69,
      "hit": false,
      "t": 12073.33333333333,
      "d": 166.66666666666788,
      "v": 62
    },
    {
      "midi": 38,
      "hit": false,
      "t": 12089.999999999985,
      "d": 150,
      "v": 62
    },
    {
      "midi": 62,
      "hit": false,
      "t": 12099.999999999985,
      "d": 133.33333333333394,
      "v": 62
    },
    {
      "midi": 69,
      "hit": false,
      "t": 12099.999999999985,
      "d": 140,
      "v": 62
    },
    {
      "midi": 66,
      "hit": false,
      "t": 12099.999999999985,
      "d": 166.66666666666606,
      "v": 62
    },
    {
      "midi": 64,
      "hit": false,
      "t": 12306.666666666664,
      "d": 133.33333333333212,
      "v": 58
    },
    {
      "midi": 69,
      "hit": false,
      "t": 12323.33333333333,
      "d": 133.33333333333212,
      "v": 42
    },
    {
      "midi": 61,
      "hit": false,
      "t": 12333.33333333333,
      "d": 156.66666666666606,
      "v": 62
    },
    {
      "midi": 37,
      "hit": false,
      "t": 12356.666666666652,
      "d": 126.66666666666606,
      "v": 62
    },
    {
      "midi": 64,
      "hit": false,
      "t": 12366.666666666652,
      "d": 166.66666666666606,
      "v": 62
    },
    {
      "midi": 69,
      "hit": false,
      "t": 12373.333333333318,
      "d": 126.66666666666606,
      "v": 58
    },
    {
      "midi": 59,
      "hit": false,
      "t": 12566.666666666664,
      "d": 139.99999999999818,
      "v": 62
    },
    {
      "midi": 62,
      "hit": false,
      "t": 12573.33333333333,
      "d": 133.33333333333212,
      "v": 62
    },
    {
      "midi": 35,
      "hit": false,
      "t": 12589.999999999984,
      "d": 133.33333333333212,
      "v": 62
    },
    {
      "midi": 69,
      "hit": false,
      "t": 12589.999999999996,
      "d": 100,
      "v": 58
    },
    {
      "midi": 66,
      "hit": false,
      "t": 12599.999999999996,
      "d": 150,
      "v": 62
    },
    {
      "midi": 62,
      "hit": false,
      "t": 12606.66666666665,
      "d": 126.66666666666606,
      "v": 62
    },
    {
      "midi": 69,
      "hit": false,
      "t": 12606.66666666665,
      "d": 143.33333333333212,
      "v": 60
    },
    {
      "midi": 33,
      "hit": false,
      "t": 12839.999999999982,
      "d": 176.66666666666606,
      "v": 62
    },
    {
      "midi": 69,
      "hit": false,
      "t": 12856.666666666648,
      "d": 160,
      "v": 62
    },
    {
      "midi": 61,
      "hit": false,
      "t": 12866.666666666648,
      "d": 150,
      "v": 62
    },
    {
      "midi": 64,
      "hit": false,
      "t": 12866.666666666648,
      "d": 166.66666666666606,
      "v": 62
    },
    {
      "midi": 57,
      "hit": false,
      "t": 12889.999999999996,
      "d": 150,
      "v": 62
    },
    {
      "midi": 61,
      "hit": false,
      "t": 12889.999999999996,
      "d": 160,
      "v": 62
    },
    {
      "midi": 64,
      "hit": false,
      "t": 12889.999999999996,
      "d": 160,
      "v": 62
    },
    {
      "midi": 69,
      "hit": false,
      "t": 12889.999999999996,
      "d": 160,
      "v": 62
    },
    {
      "midi": 38,
      "hit": false,
      "t": 15966.666666666648,
      "d": 1066.666666666666,
      "v": 62
    },
    {
      "midi": 69,
      "hit": false,
      "t": 15983.333333333314,
      "d": 133.33333333333394,
      "v": 62
    },
    {
      "midi": 66,
      "hit": false,
      "t": 15983.333333333314,
      "d": 140,
      "v": 62
    },
    {
      "midi": 62,
      "hit": false,
      "t": 15983.333333333314,
      "d": 150,
      "v": 60
    },
    {
      "midi": 66,
      "hit": false,
      "t": 16256.666666666648,
      "d": 100,
      "v": 54
    },
    {
      "midi": 69,
      "hit": false,
      "t": 16266.666666666648,
      "d": 66.66666666666606,
      "v": 48
    },
    {
      "midi": 62,
      "hit": false,
      "t": 16266.666666666648,
      "d": 100,
      "v": 48
    },
    {
      "midi": 66,
      "hit": false,
      "t": 16523.333333333314,
      "d": 93.33333333333576,
      "v": 54
    },
    {
      "midi": 62,
      "hit": false,
      "t": 16523.333333333314,
      "d": 116.66666666666788,
      "v": 48
    },
    {
      "midi": 69,
      "hit": false,
      "t": 16539.99999999998,
      "d": 60,
      "v": 46
    },
    {
      "midi": 50,
      "hit": false,
      "t": 16773.333333333314,
      "d": 60,
      "v": 56
    },
    {
      "midi": 66,
      "hit": false,
      "t": 16783.333333333314,
      "d": 116.66666666666788,
      "v": 62
    },
    {
      "midi": 62,
      "hit": false,
      "t": 16789.99999999998,
      "d": 110,
      "v": 60
    },
    {
      "midi": 69,
      "hit": false,
      "t": 16799.99999999998,
      "d": 100,
      "v": 62
    },
    {
      "midi": 66,
      "hit": false,
      "t": 17039.99999999998,
      "d": 93.33333333333212,
      "v": 52
    },
    {
      "midi": 62,
      "hit": false,
      "t": 17039.99999999998,
      "d": 100,
      "v": 50
    },
    {
      "midi": 42,
      "hit": false,
      "t": 17316.66666666665,
      "d": 233.33333333333576,
      "v": 62
    },
    {
      "midi": 66,
      "hit": false,
      "t": 17323.333333333318,
      "d": 133.33333333333576,
      "v": 56
    },
    {
      "midi": 69,
      "hit": false,
      "t": 17333.333333333318,
      "d": 116.66666666666788,
      "v": 56
    },
    {
      "midi": 62,
      "hit": false,
      "t": 17333.333333333318,
      "d": 123.33333333333576,
      "v": 56
    },
    {
      "midi": 66,
      "hit": false,
      "t": 17583.333333333318,
      "d": 150.00000000000364,
      "v": 56
    },
    {
      "midi": 69,
      "hit": false,
      "t": 17589.999999999985,
      "d": 126.66666666666788,
      "v": 54
    },
    {
      "midi": 62,
      "hit": false,
      "t": 17589.999999999985,
      "d": 143.33333333333576,
      "v": 54
    },
    {
      "midi": 45,
      "hit": false,
      "t": 17599.999999999985,
      "d": 700.0000000000109,
      "v": 62
    },
    {
      "midi": 62,
      "hit": false,
      "t": 17856.666666666653,
      "d": 116.66666666667152,
      "v": 48
    },
    {
      "midi": 66,
      "hit": false,
      "t": 17866.666666666653,
      "d": 100.00000000000364,
      "v": 56
    },
    {
      "midi": 69,
      "hit": false,
      "t": 17883.33333333332,
      "d": 56.66666666666788,
      "v": 44
    },
    {
      "midi": 62,
      "hit": false,
      "t": 18123.333333333325,
      "d": 110.00000000000364,
      "v": 50
    },
    {
      "midi": 66,
      "hit": false,
      "t": 18133.333333333325,
      "d": 90.00000000000364,
      "v": 56
    },
    {
      "midi": 69,
      "hit": false,
      "t": 18139.999999999993,
      "d": 66.66666666666788,
      "v": 46
    },
    {
      "midi": 62,
      "hit": false,
      "t": 18383.33333333333,
      "d": 116.66666666666788,
      "v": 56
    },
    {
      "midi": 66,
      "hit": false,
      "t": 18383.33333333333,
      "d": 116.66666666666788,
      "v": 60
    },
    {
      "midi": 42,
      "hit": false,
      "t": 18383.33333333333,
      "d": 200,
      "v": 62
    },
    {
      "midi": 69,
      "hit": false,
      "t": 18399.999999999996,
      "d": 73.33333333333212,
      "v": 56
    },
    {
      "midi": 66,
      "hit": false,
      "t": 18639.999999999996,
      "d": 83.33333333333576,
      "v": 52
    },
    {
      "midi": 69,
      "hit": false,
      "t": 18649.999999999996,
      "d": 66.66666666666788,
      "v": 50
    },
    {
      "midi": 62,
      "hit": false,
      "t": 18649.999999999996,
      "d": 83.33333333333576,
      "v": 50
    },
    {
      "midi": 66,
      "hit": false,
      "t": 18906.666666666664,
      "d": 126.66666666666788,
      "v": 56
    },
    {
      "midi": 62,
      "hit": false,
      "t": 18906.666666666664,
      "d": 133.33333333333576,
      "v": 54
    },
    {
      "midi": 69,
      "hit": false,
      "t": 18923.333333333332,
      "d": 93.33333333333212,
      "v": 52
    },
    {
      "midi": 45,
      "hit": false,
      "t": 18923.333333333332,
      "d": 150,
      "v": 62
    },
    {
      "midi": 62,
      "hit": false,
      "t": 19173.333333333332,
      "d": 143.33333333333212,
      "v": 56
    },
    {
      "midi": 66,
      "hit": false,
      "t": 19173.333333333332,
      "d": 150,
      "v": 56
    },
    {
      "midi": 69,
      "hit": false,
      "t": 19200,
      "d": 83.33333333333212,
      "v": 52
    },
    {
      "midi": 38,
      "hit": false,
      "t": 19200,
      "d": 1000,
      "v": 62
    },
    {
      "midi": 62,
      "hit": false,
      "t": 19456.666666666664,
      "d": 110,
      "v": 50
    },
    {
      "midi": 66,
      "hit": false,
      "t": 19456.666666666664,
      "d": 110,
      "v": 56
    },
    {
      "midi": 69,
      "hit": false,
      "t": 19466.666666666664,
      "d": 66.66666666666788,
      "v": 42
    },
    {
      "midi": 62,
      "hit": false,
      "t": 19716.666666666664,
      "d": 116.66666666666788,
      "v": 52
    },
    {
      "midi": 66,
      "hit": false,
      "t": 19716.666666666664,
      "d": 116.66666666666788,
      "v": 56
    },
    {
      "midi": 69,
      "hit": false,
      "t": 19733.333333333332,
      "d": 83.33333333333212,
      "v": 46
    },
    {
      "midi": 50,
      "hit": false,
      "t": 19983.333333333332,
      "d": 100,
      "v": 62
    },
    {
      "midi": 69,
      "hit": false,
      "t": 20000,
      "d": 100,
      "v": 60
    },
    {
      "midi": 62,
      "hit": false,
      "t": 20000,
      "d": 116.66666666666788,
      "v": 60
    },
    {
      "midi": 66,
      "hit": false,
      "t": 20000,
      "d": 116.66666666666788,
      "v": 62
    },
    {
      "midi": 66,
      "hit": false,
      "t": 20266.666666666668,
      "d": 83.33333333333212,
      "v": 50
    },
    {
      "midi": 62,
      "hit": false,
      "t": 20266.666666666668,
      "d": 90,
      "v": 48
    },
    {
      "midi": 69,
      "hit": false,
      "t": 20290,
      "d": 43.33333333333212,
      "v": 38
    },
    {
      "midi": 62,
      "hit": false,
      "t": 20523.333333333336,
      "d": 143.33333333333576,
      "v": 56
    },
    {
      "midi": 42,
      "hit": false,
      "t": 20523.333333333336,
      "d": 243.33333333333576,
      "v": 62
    },
    {
      "midi": 66,
      "hit": false,
      "t": 20533.333333333336,
      "d": 133.33333333333576,
      "v": 56
    },
    {
      "midi": 69,
      "hit": false,
      "t": 20540.000000000004,
      "d": 100,
      "v": 54
    },
    {
      "midi": 62,
      "hit": false,
      "t": 20790.000000000004,
      "d": 133.33333333333576,
      "v": 56
    },
    {
      "midi": 66,
      "hit": false,
      "t": 20790.000000000004,
      "d": 143.33333333333576,
      "v": 58
    },
    {
      "midi": 69,
      "hit": false,
      "t": 20806.66666666667,
      "d": 110,
      "v": 56
    },
    {
      "midi": 45,
      "hit": false,
      "t": 20806.66666666667,
      "d": 760.0000000000036,
      "v": 62
    },
    {
      "midi": 66,
      "hit": false,
      "t": 21066.66666666667,
      "d": 106.66666666666788,
      "v": 54
    },
    {
      "midi": 62,
      "hit": false,
      "t": 21066.66666666667,
      "d": 116.66666666666788,
      "v": 54
    },
    {
      "midi": 69,
      "hit": false,
      "t": 21083.33333333334,
      "d": 56.66666666666788,
      "v": 48
    },
    {
      "midi": 62,
      "hit": false,
      "t": 21340.000000000007,
      "d": 116.66666666666788,
      "v": 54
    },
    {
      "midi": 66,
      "hit": false,
      "t": 21340.000000000007,
      "d": 116.66666666666788,
      "v": 56
    },
    {
      "midi": 69,
      "hit": false,
      "t": 21366.666666666675,
      "d": 66.66666666666788,
      "v": 50
    },
    {
      "midi": 66,
      "hit": false,
      "t": 21616.666666666675,
      "d": 116.66666666666788,
      "v": 58
    },
    {
      "midi": 62,
      "hit": false,
      "t": 21616.666666666675,
      "d": 123.33333333333576,
      "v": 58
    },
    {
      "midi": 69,
      "hit": false,
      "t": 21633.333333333343,
      "d": 100,
      "v": 56
    },
    {
      "midi": 42,
      "hit": false,
      "t": 21633.333333333343,
      "d": 400,
      "v": 62
    },
    {
      "midi": 66,
      "hit": false,
      "t": 21883.333333333343,
      "d": 90,
      "v": 54
    },
    {
      "midi": 62,
      "hit": false,
      "t": 21883.333333333343,
      "d": 100,
      "v": 54
    },
    {
      "midi": 45,
      "hit": false,
      "t": 22133.333333333343,
      "d": 206.66666666666788,
      "v": 60
    },
    {
      "midi": 66,
      "hit": false,
      "t": 22150.00000000001,
      "d": 140,
      "v": 58
    },
    {
      "midi": 62,
      "hit": false,
      "t": 22156.66666666668,
      "d": 110,
      "v": 58
    },
    {
      "midi": 69,
      "hit": false,
      "t": 22156.66666666668,
      "d": 110,
      "v": 56
    },
    {
      "midi": 61,
      "hit": false,
      "t": 22433.333333333343,
      "d": 133.33333333333212,
      "v": 62
    },
    {
      "midi": 64,
      "hit": false,
      "t": 22433.333333333343,
      "d": 150,
      "v": 56
    },
    {
      "midi": 33,
      "hit": false,
      "t": 22433.333333333343,
      "d": 1000.0000000000073,
      "v": 62
    },
    {
      "midi": 69,
      "hit": false,
      "t": 22456.666666666675,
      "d": 93.33333333333212,
      "v": 46
    },
    {
      "midi": 61,
      "hit": false,
      "t": 22700.00000000001,
      "d": 106.66666666666788,
      "v": 56
    },
    {
      "midi": 64,
      "hit": false,
      "t": 22700.00000000001,
      "d": 123.33333333333576,
      "v": 48
    },
    {
      "midi": 69,
      "hit": false,
      "t": 22723.333333333343,
      "d": 76.66666666666788,
      "v": 38
    },
    {
      "midi": 61,
      "hit": false,
      "t": 22956.66666666668,
      "d": 116.66666666666788,
      "v": 54
    },
    {
      "midi": 69,
      "hit": false,
      "t": 22966.66666666668,
      "d": 106.66666666666788,
      "v": 42
    },
    {
      "midi": 64,
      "hit": false,
      "t": 22966.66666666668,
      "d": 116.66666666666788,
      "v": 52
    },
    {
      "midi": 45,
      "hit": false,
      "t": 23216.66666666668,
      "d": 106.66666666666788,
      "v": 60
    },
    {
      "midi": 64,
      "hit": false,
      "t": 23216.66666666668,
      "d": 150.00000000000364,
      "v": 56
    },
    {
      "midi": 69,
      "hit": false,
      "t": 23216.66666666668,
      "d": 150.00000000000364,
      "v": 54
    },
    {
      "midi": 61,
      "hit": false,
      "t": 23233.333333333347,
      "d": 116.66666666666788,
      "v": 58
    },
    {
      "midi": 61,
      "hit": false,
      "t": 23490.00000000002,
      "d": 110,
      "v": 52
    },
    {
      "midi": 64,
      "hit": false,
      "t": 23500.00000000002,
      "d": 100,
      "v": 54
    },
    {
      "midi": 69,
      "hit": false,
      "t": 23500.00000000002,
      "d": 100,
      "v": 40
    },
    {
      "midi": 37,
      "hit": false,
      "t": 23733.33333333335,
      "d": 216.66666666666788,
      "v": 62
    },
    {
      "midi": 61,
      "hit": false,
      "t": 23740.00000000002,
      "d": 150,
      "v": 58
    },
    {
      "midi": 64,
      "hit": false,
      "t": 23750.00000000002,
      "d": 140,
      "v": 54
    },
    {
      "midi": 69,
      "hit": false,
      "t": 23750.00000000002,
      "d": 140,
      "v": 48
    },
    {
      "midi": 61,
      "hit": false,
      "t": 24023.33333333335,
      "d": 133.33333333333576,
      "v": 58
    },
    {
      "midi": 40,
      "hit": false,
      "t": 24023.33333333335,
      "d": 733.333333333343,
      "v": 60
    },
    {
      "midi": 69,
      "hit": false,
      "t": 24033.33333333335,
      "d": 123.33333333333576,
      "v": 48
    },
    {
      "midi": 64,
      "hit": false,
      "t": 24040.00000000002,
      "d": 116.66666666666788,
      "v": 56
    },
    {
      "midi": 61,
      "hit": false,
      "t": 24283.333333333354,
      "d": 123.33333333333576,
      "v": 56
    },
    {
      "midi": 69,
      "hit": false,
      "t": 24300.000000000022,
      "d": 106.66666666666788,
      "v": 44
    },
    {
      "midi": 64,
      "hit": false,
      "t": 24300.000000000022,
      "d": 116.66666666666788,
      "v": 56
    },
    {
      "midi": 61,
      "hit": false,
      "t": 24533.333333333358,
      "d": 133.33333333333576,
      "v": 56
    },
    {
      "midi": 69,
      "hit": false,
      "t": 24540.000000000025,
      "d": 110,
      "v": 44
    },
    {
      "midi": 64,
      "hit": false,
      "t": 24540.000000000025,
      "d": 126.66666666666788,
      "v": 58
    },
    {
      "midi": 61,
      "hit": false,
      "t": 24800.000000000025,
      "d": 133.33333333333576,
      "v": 58
    },
    {
      "midi": 64,
      "hit": false,
      "t": 24800.000000000025,
      "d": 150.00000000000364,
      "v": 54
    },
    {
      "midi": 69,
      "hit": false,
      "t": 24806.666666666693,
      "d": 126.66666666666788,
      "v": 50
    },
    {
      "midi": 37,
      "hit": false,
      "t": 24823.33333333336,
      "d": 300,
      "v": 62
    },
    {
      "midi": 61,
      "hit": false,
      "t": 25073.33333333336,
      "d": 100,
      "v": 52
    },
    {
      "midi": 64,
      "hit": false,
      "t": 25083.33333333336,
      "d": 100,
      "v": 54
    },
    {
      "midi": 69,
      "hit": false,
      "t": 25100.00000000003,
      "d": 50,
      "v": 36
    },
    {
      "midi": 61,
      "hit": false,
      "t": 25333.33333333336,
      "d": 123.33333333333576,
      "v": 56
    },
    {
      "midi": 40,
      "hit": false,
      "t": 25333.33333333336,
      "d": 156.66666666666788,
      "v": 62
    },
    {
      "midi": 69,
      "hit": false,
      "t": 25340.00000000003,
      "d": 110,
      "v": 46
    },
    {
      "midi": 64,
      "hit": false,
      "t": 25340.00000000003,
      "d": 126.66666666666788,
      "v": 52
    },
    {
      "midi": 61,
      "hit": false,
      "t": 25606.666666666697,
      "d": 126.66666666666788,
      "v": 58
    },
    {
      "midi": 69,
      "hit": false,
      "t": 25606.666666666697,
      "d": 143.33333333333576,
      "v": 48
    },
    {
      "midi": 64,
      "hit": false,
      "t": 25623.333333333365,
      "d": 126.66666666666788,
      "v": 58
    },
    {
      "midi": 33,
      "hit": false,
      "t": 25633.333333333365,
      "d": 1233.3333333333358,
      "v": 62
    },
    {
      "midi": 69,
      "hit": false,
      "t": 25873.333333333365,
      "d": 110,
      "v": 42
    },
    {
      "midi": 61,
      "hit": false,
      "t": 25873.333333333365,
      "d": 116.66666666666788,
      "v": 56
    },
    {
      "midi": 64,
      "hit": false,
      "t": 25890.000000000033,
      "d": 110,
      "v": 56
    },
    {
      "midi": 61,
      "hit": false,
      "t": 26123.333333333365,
      "d": 126.66666666666788,
      "v": 54
    },
    {
      "midi": 69,
      "hit": false,
      "t": 26133.333333333365,
      "d": 100,
      "v": 40
    },
    {
      "midi": 64,
      "hit": false,
      "t": 26133.333333333365,
      "d": 116.66666666666788,
      "v": 54
    },
    {
      "midi": 45,
      "hit": false,
      "t": 26383.333333333365,
      "d": 116.66666666666788,
      "v": 62
    },
    {
      "midi": 69,
      "hit": false,
      "t": 26383.333333333365,
      "d": 116.66666666666788,
      "v": 48
    },
    {
      "midi": 61,
      "hit": false,
      "t": 26383.333333333365,
      "d": 133.33333333333576,
      "v": 60
    },
    {
      "midi": 64,
      "hit": false,
      "t": 26383.333333333365,
      "d": 140.00000000000364,
      "v": 58
    },
    {
      "midi": 61,
      "hit": false,
      "t": 26656.6666666667,
      "d": 116.66666666666788,
      "v": 56
    },
    {
      "midi": 69,
      "hit": false,
      "t": 26666.6666666667,
      "d": 100,
      "v": 40
    },
    {
      "midi": 64,
      "hit": false,
      "t": 26666.6666666667,
      "d": 116.66666666666788,
      "v": 54
    },
    {
      "midi": 61,
      "hit": false,
      "t": 26933.33333333337,
      "d": 106.66666666666788,
      "v": 58
    },
    {
      "midi": 69,
      "hit": false,
      "t": 26933.33333333337,
      "d": 106.66666666666788,
      "v": 46
    },
    {
      "midi": 64,
      "hit": false,
      "t": 26933.33333333337,
      "d": 123.33333333333576,
      "v": 54
    },
    {
      "midi": 37,
      "hit": false,
      "t": 26950.000000000036,
      "d": 183.33333333333576,
      "v": 62
    },
    {
      "midi": 61,
      "hit": false,
      "t": 27200.00000000004,
      "d": 123.33333333333212,
      "v": 60
    },
    {
      "midi": 64,
      "hit": false,
      "t": 27200.00000000004,
      "d": 133.33333333333212,
      "v": 56
    },
    {
      "midi": 69,
      "hit": false,
      "t": 27200.00000000004,
      "d": 133.33333333333212,
      "v": 48
    },
    {
      "midi": 40,
      "hit": false,
      "t": 27223.333333333372,
      "d": 676.6666666666715,
      "v": 62
    },
    {
      "midi": 61,
      "hit": false,
      "t": 27466.666666666704,
      "d": 106.66666666666788,
      "v": 60
    },
    {
      "midi": 69,
      "hit": false,
      "t": 27466.666666666704,
      "d": 123.33333333333576,
      "v": 44
    },
    {
      "midi": 64,
      "hit": false,
      "t": 27466.666666666704,
      "d": 133.33333333333576,
      "v": 56
    },
    {
      "midi": 61,
      "hit": false,
      "t": 27716.666666666708,
      "d": 116.66666666666788,
      "v": 56
    },
    {
      "midi": 64,
      "hit": false,
      "t": 27716.666666666708,
      "d": 123.33333333333576,
      "v": 56
    },
    {
      "midi": 69,
      "hit": false,
      "t": 27723.333333333376,
      "d": 110,
      "v": 42
    },
    {
      "midi": 61,
      "hit": false,
      "t": 27966.66666666671,
      "d": 123.33333333333212,
      "v": 60
    },
    {
      "midi": 64,
      "hit": false,
      "t": 27966.66666666671,
      "d": 133.33333333333212,
      "v": 56
    },
    {
      "midi": 69,
      "hit": false,
      "t": 27966.66666666671,
      "d": 133.33333333333212,
      "v": 52
    },
    {
      "midi": 37,
      "hit": false,
      "t": 28016.66666666671,
      "d": 523.3333333333321,
      "v": 62
    },
    {
      "midi": 61,
      "hit": false,
      "t": 28240.000000000044,
      "d": 116.66666666666788,
      "v": 56
    },
    {
      "midi": 69,
      "hit": false,
      "t": 28250.000000000044,
      "d": 106.66666666666788,
      "v": 44
    },
    {
      "midi": 64,
      "hit": false,
      "t": 28266.66666666671,
      "d": 100,
      "v": 56
    },
    {
      "midi": 40,
      "hit": false,
      "t": 28490.000000000044,
      "d": 133.33333333333212,
      "v": 52
    },
    {
      "midi": 69,
      "hit": false,
      "t": 28506.66666666671,
      "d": 116.66666666666424,
      "v": 54
    },
    {
      "midi": 61,
      "hit": false,
      "t": 28506.66666666671,
      "d": 133.33333333333212,
      "v": 62
    },
    {
      "midi": 64,
      "hit": false,
      "t": 28506.66666666671,
      "d": 133.33333333333212,
      "v": 56
    },
    {
      "midi": 68,
      "hit": false,
      "t": 28800.000000000044,
      "d": 116.66666666666788,
      "v": 60
    },
    {
      "midi": 62,
      "hit": false,
      "t": 28800.000000000044,
      "d": 123.33333333333576,
      "v": 58
    },
    {
      "midi": 64,
      "hit": false,
      "t": 28800.000000000044,
      "d": 140.00000000000364,
      "v": 54
    },
    {
      "midi": 40,
      "hit": false,
      "t": 28816.66666666671,
      "d": 1116.6666666666752,
      "v": 62
    },
    {
      "midi": 64,
      "hit": false,
      "t": 29066.666666666715,
      "d": 123.33333333333576,
      "v": 48
    },
    {
      "midi": 62,
      "hit": false,
      "t": 29083.333333333383,
      "d": 83.33333333333576,
      "v": 50
    },
    {
      "midi": 68,
      "hit": false,
      "t": 29100.00000000005,
      "d": 50,
      "v": 48
    },
    {
      "midi": 62,
      "hit": false,
      "t": 29333.333333333383,
      "d": 100,
      "v": 54
    },
    {
      "midi": 64,
      "hit": false,
      "t": 29333.333333333383,
      "d": 123.33333333333212,
      "v": 50
    },
    {
      "midi": 68,
      "hit": false,
      "t": 29350.00000000005,
      "d": 83.33333333333212,
      "v": 54
    },
    {
      "midi": 62,
      "hit": false,
      "t": 29600.000000000047,
      "d": 100.00000000000364,
      "v": 52
    },
    {
      "midi": 64,
      "hit": false,
      "t": 29600.000000000047,
      "d": 123.3333333333394,
      "v": 50
    },
    {
      "midi": 68,
      "hit": false,
      "t": 29606.666666666715,
      "d": 100.00000000000364,
      "v": 54
    },
    {
      "midi": 52,
      "hit": false,
      "t": 29623.333333333383,
      "d": 76.66666666666788,
      "v": 62
    },
    {
      "midi": 64,
      "hit": false,
      "t": 29866.66666666672,
      "d": 100.00000000000364,
      "v": 48
    },
    {
      "midi": 68,
      "hit": false,
      "t": 29873.333333333387,
      "d": 66.66666666666788,
      "v": 48
    },
    {
      "midi": 62,
      "hit": false,
      "t": 29873.333333333387,
      "d": 83.33333333333576,
      "v": 50
    },
    {
      "midi": 62,
      "hit": false,
      "t": 30133.33333333339,
      "d": 133.33333333333576,
      "v": 52
    },
    {
      "midi": 64,
      "hit": false,
      "t": 30133.33333333339,
      "d": 133.33333333333576,
      "v": 50
    },
    {
      "midi": 44,
      "hit": false,
      "t": 30133.33333333339,
      "d": 216.66666666666788,
      "v": 62
    },
    {
      "midi": 68,
      "hit": false,
      "t": 30150.00000000006,
      "d": 90,
      "v": 56
    },
    {
      "midi": 62,
      "hit": false,
      "t": 30400.00000000006,
      "d": 123.33333333333576,
      "v": 52
    },
    {
      "midi": 64,
      "hit": false,
      "t": 30400.00000000006,
      "d": 133.33333333333576,
      "v": 52
    },
    {
      "midi": 68,
      "hit": false,
      "t": 30416.666666666726,
      "d": 106.66666666666788,
      "v": 54
    },
    {
      "midi": 47,
      "hit": false,
      "t": 30416.666666666726,
      "d": 656.6666666666679,
      "v": 62
    },
    {
      "midi": 68,
      "hit": false,
      "t": 30656.666666666726,
      "d": 93.33333333333212,
      "v": 52
    },
    {
      "midi": 62,
      "hit": false,
      "t": 30656.666666666726,
      "d": 110,
      "v": 50
    },
    {
      "midi": 64,
      "hit": false,
      "t": 30656.666666666726,
      "d": 110,
      "v": 50
    },
    {
      "midi": 62,
      "hit": false,
      "t": 30923.333333333394,
      "d": 110,
      "v": 52
    },
    {
      "midi": 64,
      "hit": false,
      "t": 30923.333333333394,
      "d": 133.33333333333212,
      "v": 50
    },
    {
      "midi": 68,
      "hit": false,
      "t": 30923.333333333394,
      "d": 133.33333333333212,
      "v": 52
    },
    {
      "midi": 44,
      "hit": false,
      "t": 31190.000000000062,
      "d": 333.33333333333576,
      "v": 62
    },
    {
      "midi": 62,
      "hit": false,
      "t": 31200.000000000062,
      "d": 106.66666666666788,
      "v": 52
    },
    {
      "midi": 64,
      "hit": false,
      "t": 31200.000000000062,
      "d": 123.33333333333576,
      "v": 50
    },
    {
      "midi": 68,
      "hit": false,
      "t": 31200.000000000062,
      "d": 123.33333333333576,
      "v": 54
    },
    {
      "midi": 62,
      "hit": false,
      "t": 31466.66666666673,
      "d": 83.33333333333576,
      "v": 46
    },
    {
      "midi": 64,
      "hit": false,
      "t": 31466.66666666673,
      "d": 90.00000000000364,
      "v": 46
    },
    {
      "midi": 68,
      "hit": false,
      "t": 31473.333333333398,
      "d": 60,
      "v": 44
    },
    {
      "midi": 47,
      "hit": false,
      "t": 31716.666666666733,
      "d": 156.66666666666788,
      "v": 62
    },
    {
      "midi": 62,
      "hit": false,
      "t": 31733.3333333334,
      "d": 100,
      "v": 50
    },
    {
      "midi": 68,
      "hit": false,
      "t": 31733.3333333334,
      "d": 100,
      "v": 54
    },
    {
      "midi": 64,
      "hit": false,
      "t": 31733.3333333334,
      "d": 116.66666666666788,
      "v": 52
    },
    {
      "midi": 62,
      "hit": false,
      "t": 32000.00000000007,
      "d": 133.33333333333212,
      "v": 52
    },
    {
      "midi": 68,
      "hit": false,
      "t": 32000.00000000007,
      "d": 133.33333333333212,
      "v": 54
    },
    {
      "midi": 64,
      "hit": false,
      "t": 32000.00000000007,
      "d": 140,
      "v": 54
    },
    {
      "midi": 40,
      "hit": false,
      "t": 32000.00000000007,
      "d": 1256.6666666666679,
      "v": 62
    },
    {
      "midi": 64,
      "hit": false,
      "t": 32266.666666666737,
      "d": 123.33333333333576,
      "v": 48
    },
    {
      "midi": 62,
      "hit": false,
      "t": 32273.333333333405,
      "d": 100,
      "v": 50
    },
    {
      "midi": 68,
      "hit": false,
      "t": 32273.333333333405,
      "d": 100,
      "v": 50
    },
    {
      "midi": 62,
      "hit": false,
      "t": 32533.333333333405,
      "d": 106.66666666666788,
      "v": 50
    },
    {
      "midi": 68,
      "hit": false,
      "t": 32533.333333333405,
      "d": 106.66666666666788,
      "v": 50
    },
    {
      "midi": 64,
      "hit": false,
      "t": 32533.333333333405,
      "d": 116.66666666666788,
      "v": 50
    },
    {
      "midi": 62,
      "hit": false,
      "t": 32800.00000000007,
      "d": 123.33333333333576,
      "v": 54
    },
    {
      "midi": 64,
      "hit": false,
      "t": 32800.00000000007,
      "d": 133.33333333333576,
      "v": 54
    },
    {
      "midi": 68,
      "hit": false,
      "t": 32800.00000000007,
      "d": 133.33333333333576,
      "v": 54
    },
    {
      "midi": 52,
      "hit": false,
      "t": 32823.33333333341,
      "d": 76.66666666666424,
      "v": 62
    },
    {
      "midi": 62,
      "hit": false,
      "t": 33066.666666666744,
      "d": 106.66666666666424,
      "v": 50
    },
    {
      "midi": 68,
      "hit": false,
      "t": 33066.666666666744,
      "d": 116.66666666666424,
      "v": 50
    },
    {
      "midi": 64,
      "hit": false,
      "t": 33066.666666666744,
      "d": 133.33333333332848,
      "v": 50
    },
    {
      "midi": 62,
      "hit": false,
      "t": 33340.00000000007,
      "d": 110,
      "v": 48
    },
    {
      "midi": 64,
      "hit": false,
      "t": 33340.00000000007,
      "d": 126.66666666666424,
      "v": 50
    },
    {
      "midi": 68,
      "hit": false,
      "t": 33340.00000000007,
      "d": 126.66666666666424,
      "v": 52
    },
    {
      "midi": 44,
      "hit": false,
      "t": 33390.00000000007,
      "d": 176.66666666666424,
      "v": 62
    },
    {
      "midi": 62,
      "hit": false,
      "t": 33623.3333333334,
      "d": 126.66666666667152,
      "v": 54
    },
    {
      "midi": 68,
      "hit": false,
      "t": 33623.3333333334,
      "d": 133.33333333333576,
      "v": 56
    },
    {
      "midi": 64,
      "hit": false,
      "t": 33623.3333333334,
      "d": 143.33333333333576,
      "v": 54
    },
    {
      "midi": 47,
      "hit": false,
      "t": 33666.66666666674,
      "d": 683.3333333333285,
      "v": 62
    },
    {
      "midi": 62,
      "hit": false,
      "t": 33883.3333333334,
      "d": 90,
      "v": 50
    },
    {
      "midi": 68,
      "hit": false,
      "t": 33883.3333333334,
      "d": 90,
      "v": 54
    },
    {
      "midi": 64,
      "hit": false,
      "t": 33883.3333333334,
      "d": 116.66666666666424,
      "v": 52
    },
    {
      "midi": 62,
      "hit": false,
      "t": 34140.000000000065,
      "d": 110,
      "v": 48
    },
    {
      "midi": 64,
      "hit": false,
      "t": 34140.000000000065,
      "d": 116.66666666666424,
      "v": 50
    },
    {
      "midi": 68,
      "hit": false,
      "t": 34156.66666666673,
      "d": 93.33333333333576,
      "v": 54
    },
    {
      "midi": 62,
      "hit": false,
      "t": 34423.3333333334,
      "d": 110,
      "v": 56
    },
    {
      "midi": 64,
      "hit": false,
      "t": 34423.3333333334,
      "d": 126.66666666666424,
      "v": 54
    },
    {
      "midi": 68,
      "hit": false,
      "t": 34423.3333333334,
      "d": 126.66666666666424,
      "v": 58
    },
    {
      "midi": 44,
      "hit": false,
      "t": 34433.3333333334,
      "d": 466.66666666666424,
      "v": 62
    },
    {
      "midi": 64,
      "hit": false,
      "t": 34673.3333333334,
      "d": 116.66666666666424,
      "v": 50
    },
    {
      "midi": 62,
      "hit": false,
      "t": 34683.3333333334,
      "d": 90,
      "v": 52
    },
    {
      "midi": 68,
      "hit": false,
      "t": 34690.000000000065,
      "d": 83.33333333333576,
      "v": 52
    },
    {
      "midi": 62,
      "hit": false,
      "t": 34933.3333333334,
      "d": 116.66666666666424,
      "v": 56
    },
    {
      "midi": 68,
      "hit": false,
      "t": 34933.3333333334,
      "d": 133.33333333332848,
      "v": 56
    },
    {
      "midi": 64,
      "hit": false,
      "t": 34933.3333333334,
      "d": 149.99999999999272,
      "v": 54
    },
    {
      "midi": 45,
      "hit": false,
      "t": 34950.000000000065,
      "d": 223.33333333332848,
      "v": 62
    },
    {
      "midi": 64,
      "hit": false,
      "t": 35216.66666666673,
      "d": 150,
      "v": 56
    },
    {
      "midi": 69,
      "hit": false,
      "t": 35216.66666666673,
      "d": 166.66666666666424,
      "v": 54
    },
    {
      "midi": 61,
      "hit": false,
      "t": 35233.333333333394,
      "d": 123.33333333333576,
      "v": 62
    },
    {
      "midi": 33,
      "hit": false,
      "t": 35233.333333333394,
      "d": 973.3333333333139,
      "v": 62
    },
    {
      "midi": 61,
      "hit": false,
      "t": 35473.333333333394,
      "d": 143.33333333332848,
      "v": 56
    },
    {
      "midi": 64,
      "hit": false,
      "t": 35500.00000000006,
      "d": 116.66666666666424,
      "v": 52
    },
    {
      "midi": 69,
      "hit": false,
      "t": 35500.00000000006,
      "d": 133.33333333332848,
      "v": 46
    },
    {
      "midi": 61,
      "hit": false,
      "t": 35740.00000000005,
      "d": 133.33333333332848,
      "v": 56
    },
    {
      "midi": 64,
      "hit": false,
      "t": 35756.666666666715,
      "d": 126.66666666666424,
      "v": 52
    },
    {
      "midi": 69,
      "hit": false,
      "t": 35756.666666666715,
      "d": 133.33333333332848,
      "v": 46
    },
    {
      "midi": 61,
      "hit": false,
      "t": 36016.66666666671,
      "d": 140,
      "v": 62
    },
    {
      "midi": 45,
      "hit": false,
      "t": 36016.66666666671,
      "d": 150,
      "v": 62
    },
    {
      "midi": 64,
      "hit": false,
      "t": 36016.66666666671,
      "d": 150,
      "v": 58
    },
    {
      "midi": 69,
      "hit": false,
      "t": 36016.66666666671,
      "d": 150,
      "v": 56
    },
    {
      "midi": 35,
      "hit": false,
      "t": 36256.66666666671,
      "d": 176.66666666666424,
      "v": 62
    },
    {
      "midi": 61,
      "hit": false,
      "t": 36273.33333333337,
      "d": 133.33333333333576,
      "v": 58
    },
    {
      "midi": 69,
      "hit": false,
      "t": 36283.33333333337,
      "d": 133.33333333333576,
      "v": 50
    },
    {
      "midi": 64,
      "hit": false,
      "t": 36283.33333333337,
      "d": 140,
      "v": 56
    },
    {
      "midi": 37,
      "hit": false,
      "t": 36506.66666666671,
      "d": 133.33333333332848,
      "v": 62
    },
    {
      "midi": 69,
      "hit": false,
      "t": 36533.33333333337,
      "d": 106.66666666666424,
      "v": 46
    },
    {
      "midi": 64,
      "hit": false,
      "t": 36533.33333333337,
      "d": 116.66666666666424,
      "v": 56
    },
    {
      "midi": 61,
      "hit": false,
      "t": 36533.33333333337,
      "d": 133.33333333332848,
      "v": 60
    },
    {
      "midi": 66,
      "hit": false,
      "t": 36783.333333333365,
      "d": 166.66666666666424,
      "v": 62
    },
    {
      "midi": 69,
      "hit": false,
      "t": 36790.00000000003,
      "d": 143.33333333333576,
      "v": 58
    },
    {
      "midi": 62,
      "hit": false,
      "t": 36800.00000000003,
      "d": 133.33333333333576,
      "v": 62
    },
    {
      "midi": 38,
      "hit": false,
      "t": 36800.00000000003,
      "d": 649.9999999999854,
      "v": 62
    },
    {
      "midi": 62,
      "hit": false,
      "t": 37050.00000000003,
      "d": 133.33333333332848,
      "v": 58
    },
    {
      "midi": 66,
      "hit": false,
      "t": 37050.00000000003,
      "d": 149.99999999999272,
      "v": 62
    },
    {
      "midi": 69,
      "hit": false,
      "t": 37066.66666666669,
      "d": 100,
      "v": 50
    },
    {
      "midi": 66,
      "hit": false,
      "t": 37300.00000000002,
      "d": 166.66666666665697,
      "v": 62
    },
    {
      "midi": 69,
      "hit": false,
      "t": 37306.666666666686,
      "d": 126.66666666666424,
      "v": 48
    },
    {
      "midi": 62,
      "hit": false,
      "t": 37306.666666666686,
      "d": 143.33333333332848,
      "v": 56
    },
    {
      "midi": 38,
      "hit": false,
      "t": 37566.66666666668,
      "d": 173.33333333332848,
      "v": 62
    },
    {
      "midi": 66,
      "hit": false,
      "t": 37573.33333333334,
      "d": 166.66666666666424,
      "v": 62
    },
    {
      "midi": 62,
      "hit": false,
      "t": 37583.33333333334,
      "d": 133.33333333333576,
      "v": 62
    },
    {
      "midi": 69,
      "hit": false,
      "t": 37583.33333333334,
      "d": 140,
      "v": 62
    },
    {
      "midi": 37,
      "hit": false,
      "t": 37816.66666666667,
      "d": 149.99999999999272,
      "v": 62
    },
    {
      "midi": 69,
      "hit": false,
      "t": 37833.333333333336,
      "d": 116.66666666666424,
      "v": 54
    },
    {
      "midi": 62,
      "hit": false,
      "t": 37833.333333333336,
      "d": 133.33333333332848,
      "v": 62
    },
    {
      "midi": 66,
      "hit": false,
      "t": 37833.333333333336,
      "d": 133.33333333332848,
      "v": 62
    },
    {
      "midi": 35,
      "hit": false,
      "t": 38066.666666666664,
      "d": 133.33333333332848,
      "v": 62
    },
    {
      "midi": 62,
      "hit": false,
      "t": 38066.666666666664,
      "d": 149.99999999999272,
      "v": 62
    },
    {
      "midi": 66,
      "hit": false,
      "t": 38066.666666666664,
      "d": 173.33333333332848,
      "v": 62
    },
    {
      "midi": 69,
      "hit": false,
      "t": 38083.33333333333,
      "d": 116.66666666666424,
      "v": 56
    },
    {
      "midi": 33,
      "hit": false,
      "t": 38366.66666666666,
      "d": 173.33333333332848,
      "v": 62
    },
    {
      "midi": 61,
      "hit": false,
      "t": 38366.66666666666,
      "d": 173.33333333332848,
      "v": 62
    },
    {
      "midi": 64,
      "hit": false,
      "t": 38366.66666666666,
      "d": 183.33333333332848,
      "v": 62
    },
    {
      "midi": 69,
      "hit": false,
      "t": 38373.33333333332,
      "d": 166.66666666666424,
      "v": 62
    },
    {
      "midi": 61,
      "hit": false,
      "t": 40016.66666666665,
      "d": 1516.6666666666642,
      "v": 62
    },
    {
      "midi": 37,
      "hit": false,
      "t": 40023.333333333314,
      "d": 1466.6666666666642,
      "v": 62
    },
    {
      "midi": 65,
      "hit": false,
      "t": 40023.333333333314,
      "d": 1466.6666666666642,
      "v": 60
    },
    {
      "midi": 69,
      "hit": false,
      "t": 40033.333333333314,
      "d": 1456.6666666666642,
      "v": 60
    },
    {
      "midi": 69,
      "hit": false,
      "t": 41623.333333333314,
      "d": 133.33333333332848,
      "v": 62
    },
    {
      "midi": 66,
      "hit": false,
      "t": 41623.333333333314,
      "d": 159.99999999999272,
      "v": 62
    },
    {
      "midi": 38,
      "hit": false,
      "t": 41623.333333333314,
      "d": 1216.666666666657,
      "v": 62
    },
    {
      "midi": 62,
      "hit": false,
      "t": 41639.99999999998,
      "d": 126.66666666666424,
      "v": 62
    },
    {
      "midi": 62,
      "hit": false,
      "t": 41873.33333333331,
      "d": 116.66666666666424,
      "v": 54
    },
    {
      "midi": 66,
      "hit": false,
      "t": 41873.33333333331,
      "d": 126.66666666666424,
      "v": 58
    },
    {
      "midi": 69,
      "hit": false,
      "t": 41889.99999999997,
      "d": 93.33333333333576,
      "v": 48
    },
    {
      "midi": 62,
      "hit": false,
      "t": 42123.33333333331,
      "d": 126.66666666666424,
      "v": 52
    },
    {
      "midi": 66,
      "hit": false,
      "t": 42123.33333333331,
      "d": 126.66666666666424,
      "v": 58
    },
    {
      "midi": 69,
      "hit": false,
      "t": 42133.33333333331,
      "d": 100,
      "v": 50
    },
    {
      "midi": 62,
      "hit": false,
      "t": 42389.99999999997,
      "d": 133.33333333333576,
      "v": 56
    },
    {
      "midi": 66,
      "hit": false,
      "t": 42389.99999999997,
      "d": 143.33333333333576,
      "v": 56
    },
    {
      "midi": 69,
      "hit": false,
      "t": 42399.99999999997,
      "d": 106.66666666667152,
      "v": 56
    },
    {
      "midi": 50,
      "hit": false,
      "t": 42433.33333333331,
      "d": 106.66666666666424,
      "v": 62
    },
    {
      "midi": 62,
      "hit": false,
      "t": 42649.99999999997,
      "d": 116.66666666666424,
      "v": 50
    },
    {
      "midi": 66,
      "hit": false,
      "t": 42649.99999999997,
      "d": 116.66666666666424,
      "v": 54
    },
    {
      "midi": 69,
      "hit": false,
      "t": 42666.666666666635,
      "d": 73.33333333333576,
      "v": 50
    },
    {
      "midi": 66,
      "hit": false,
      "t": 42916.666666666635,
      "d": 123.33333333333576,
      "v": 56
    },
    {
      "midi": 62,
      "hit": false,
      "t": 42916.666666666635,
      "d": 133.33333333333576,
      "v": 50
    },
    {
      "midi": 69,
      "hit": false,
      "t": 42933.3333333333,
      "d": 83.33333333333576,
      "v": 48
    },
    {
      "midi": 42,
      "hit": false,
      "t": 42933.3333333333,
      "d": 233.33333333333576,
      "v": 62
    },
    {
      "midi": 62,
      "hit": false,
      "t": 43166.666666666635,
      "d": 133.33333333332848,
      "v": 52
    },
    {
      "midi": 66,
      "hit": false,
      "t": 43166.666666666635,
      "d": 133.33333333332848,
      "v": 54
    },
    {
      "midi": 69,
      "hit": false,
      "t": 43199.99999999997,
      "d": 73.33333333332848,
      "v": 48
    },
    {
      "midi": 45,
      "hit": false,
      "t": 43206.666666666635,
      "d": 716.666666666657,
      "v": 62
    },
    {
      "midi": 66,
      "hit": false,
      "t": 43433.3333333333,
      "d": 100,
      "v": 56
    },
    {
      "midi": 62,
      "hit": false,
      "t": 43433.3333333333,
      "d": 106.66666666666424,
      "v": 50
    },
    {
      "midi": 69,
      "hit": false,
      "t": 43456.666666666635,
      "d": 50,
      "v": 44
    },
    {
      "midi": 62,
      "hit": false,
      "t": 43689.99999999996,
      "d": 143.33333333332848,
      "v": 50
    },
    {
      "midi": 66,
      "hit": false,
      "t": 43699.99999999996,
      "d": 123.33333333332848,
      "v": 56
    },
    {
      "midi": 69,
      "hit": false,
      "t": 43706.66666666663,
      "d": 100,
      "v": 44
    },
    {
      "midi": 62,
      "hit": false,
      "t": 43956.66666666663,
      "d": 143.33333333333576,
      "v": 54
    },
    {
      "midi": 66,
      "hit": false,
      "t": 43966.66666666663,
      "d": 133.33333333333576,
      "v": 58
    },
    {
      "midi": 69,
      "hit": false,
      "t": 43973.33333333329,
      "d": 93.33333333333576,
      "v": 50
    },
    {
      "midi": 42,
      "hit": false,
      "t": 43973.33333333329,
      "d": 243.33333333333576,
      "v": 62
    },
    {
      "midi": 66,
      "hit": false,
      "t": 44223.33333333329,
      "d": 100,
      "v": 54
    },
    {
      "midi": 62,
      "hit": false,
      "t": 44223.33333333329,
      "d": 110,
      "v": 50
    },
    {
      "midi": 62,
      "hit": false,
      "t": 44473.33333333329,
      "d": 133.33333333332848,
      "v": 52
    },
    {
      "midi": 66,
      "hit": false,
      "t": 44483.33333333329,
      "d": 116.66666666666424,
      "v": 54
    },
    {
      "midi": 45,
      "hit": false,
      "t": 44483.33333333329,
      "d": 166.66666666666424,
      "v": 62
    },
    {
      "midi": 69,
      "hit": false,
      "t": 44499.999999999956,
      "d": 73.33333333333576,
      "v": 46
    },
    {
      "midi": 62,
      "hit": false,
      "t": 44739.999999999956,
      "d": 159.99999999999272,
      "v": 52
    },
    {
      "midi": 66,
      "hit": false,
      "t": 44749.999999999956,
      "d": 149.99999999999272,
      "v": 56
    },
    {
      "midi": 69,
      "hit": false,
      "t": 44766.66666666662,
      "d": 123.33333333332848,
      "v": 50
    },
    {
      "midi": 38,
      "hit": false,
      "t": 44773.333333333285,
      "d": 1249.9999999999927,
      "v": 62
    },
    {
      "midi": 62,
      "hit": false,
      "t": 45023.333333333285,
      "d": 109.99999999999272,
      "v": 52
    },
    {
      "midi": 66,
      "hit": false,
      "t": 45033.333333333285,
      "d": 99.99999999999272,
      "v": 58
    },
    {
      "midi": 69,
      "hit": false,
      "t": 45039.99999999995,
      "d": 66.66666666666424,
      "v": 46
    },
    {
      "midi": 62,
      "hit": false,
      "t": 45283.33333333328,
      "d": 116.66666666667152,
      "v": 50
    },
    {
      "midi": 66,
      "hit": false,
      "t": 45283.33333333328,
      "d": 116.66666666667152,
      "v": 56
    },
    {
      "midi": 69,
      "hit": false,
      "t": 45306.66666666661,
      "d": 60,
      "v": 48
    },
    {
      "midi": 62,
      "hit": false,
      "t": 45539.99999999995,
      "d": 143.33333333332848,
      "v": 56
    },
    {
      "midi": 50,
      "hit": false,
      "t": 45549.99999999995,
      "d": 83.33333333332848,
      "v": 62
    },
    {
      "midi": 66,
      "hit": false,
      "t": 45549.99999999995,
      "d": 133.33333333332848,
      "v": 58
    },
    {
      "midi": 69,
      "hit": false,
      "t": 45566.66666666661,
      "d": 106.66666666666424,
      "v": 54
    },
    {
      "midi": 62,
      "hit": false,
      "t": 45816.66666666661,
      "d": 106.66666666666424,
      "v": 50
    },
    {
      "midi": 66,
      "hit": false,
      "t": 45816.66666666661,
      "d": 116.66666666666424,
      "v": 56
    },
    {
      "midi": 69,
      "hit": false,
      "t": 45833.33333333328,
      "d": 83.33333333333576,
      "v": 48
    },
    {
      "midi": 62,
      "hit": false,
      "t": 46099.99999999994,
      "d": 116.66666666665697,
      "v": 56
    },
    {
      "midi": 66,
      "hit": false,
      "t": 46099.99999999994,
      "d": 123.3333333333212,
      "v": 58
    },
    {
      "midi": 69,
      "hit": false,
      "t": 46116.666666666606,
      "d": 83.33333333332848,
      "v": 50
    },
    {
      "midi": 42,
      "hit": false,
      "t": 46133.33333333327,
      "d": 199.99999999999272,
      "v": 62
    },
    {
      "midi": 62,
      "hit": false,
      "t": 46373.33333333326,
      "d": 133.33333333332848,
      "v": 54
    },
    {
      "midi": 66,
      "hit": false,
      "t": 46373.33333333326,
      "d": 133.33333333332848,
      "v": 56
    },
    {
      "midi": 69,
      "hit": false,
      "t": 46399.99999999993,
      "d": 100,
      "v": 52
    },
    {
      "midi": 45,
      "hit": false,
      "t": 46406.66666666659,
      "d": 759.9999999999927,
      "v": 62
    },
    {
      "midi": 66,
      "hit": false,
      "t": 46649.99999999993,
      "d": 89.99999999999272,
      "v": 52
    },
    {
      "midi": 62,
      "hit": false,
      "t": 46649.99999999993,
      "d": 106.66666666665697,
      "v": 52
    },
    {
      "midi": 69,
      "hit": false,
      "t": 46666.66666666659,
      "d": 56.66666666666424,
      "v": 44
    },
    {
      "midi": 62,
      "hit": false,
      "t": 46916.666666666584,
      "d": 116.66666666666424,
      "v": 56
    },
    {
      "midi": 66,
      "hit": false,
      "t": 46916.666666666584,
      "d": 116.66666666666424,
      "v": 56
    },
    {
      "midi": 69,
      "hit": false,
      "t": 46933.33333333325,
      "d": 83.33333333333576,
      "v": 52
    },
    {
      "midi": 62,
      "hit": false,
      "t": 47183.33333333325,
      "d": 133.33333333332848,
      "v": 58
    },
    {
      "midi": 66,
      "hit": false,
      "t": 47183.33333333325,
      "d": 139.99999999999272,
      "v": 60
    },
    {
      "midi": 69,
      "hit": false,
      "t": 47199.99999999991,
      "d": 100,
      "v": 54
    },
    {
      "midi": 42,
      "hit": false,
      "t": 47199.99999999991,
      "d": 499.9999999999927,
      "v": 62
    },
    {
      "midi": 62,
      "hit": false,
      "t": 47439.999999999905,
      "d": 126.66666666666424,
      "v": 54
    },
    {
      "midi": 66,
      "hit": false,
      "t": 47439.999999999905,
      "d": 126.66666666666424,
      "v": 56
    },
    {
      "midi": 69,
      "hit": false,
      "t": 47466.66666666657,
      "d": 66.66666666666424,
      "v": 50
    },
    {
      "midi": 66,
      "hit": false,
      "t": 47699.999999999905,
      "d": 156.66666666666424,
      "v": 56
    },
    {
      "midi": 62,
      "hit": false,
      "t": 47716.66666666657,
      "d": 116.66666666666424,
      "v": 54
    },
    {
      "midi": 69,
      "hit": false,
      "t": 47723.333333333234,
      "d": 93.33333333333576,
      "v": 52
    },
    {
      "midi": 45,
      "hit": false,
      "t": 47733.333333333234,
      "d": 216.66666666667152,
      "v": 62
    },
    {
      "midi": 61,
      "hit": false,
      "t": 47999.999999999905,
      "d": 123.33333333333576,
      "v": 62
    },
    {
      "midi": 69,
      "hit": false,
      "t": 47999.999999999905,
      "d": 123.33333333333576,
      "v": 52
    },
    {
      "midi": 64,
      "hit": false,
      "t": 47999.999999999905,
      "d": 133.33333333333576,
      "v": 56
    },
    {
      "midi": 33,
      "hit": false,
      "t": 47999.999999999905,
      "d": 1173.3333333333358,
      "v": 62
    },
    {
      "midi": 61,
      "hit": false,
      "t": 48256.66666666658,
      "d": 116.66666666666424,
      "v": 56
    },
    {
      "midi": 64,
      "hit": false,
      "t": 48256.66666666658,
      "d": 133.33333333332848,
      "v": 46
    },
    {
      "midi": 69,
      "hit": false,
      "t": 48283.33333333324,
      "d": 83.33333333333576,
      "v": 38
    },
    {
      "midi": 61,
      "hit": false,
      "t": 48523.33333333324,
      "d": 110,
      "v": 56
    },
    {
      "midi": 64,
      "hit": false,
      "t": 48523.33333333324,
      "d": 126.66666666666424,
      "v": 52
    },
    {
      "midi": 69,
      "hit": false,
      "t": 48539.999999999905,
      "d": 93.33333333333576,
      "v": 42
    },
    {
      "midi": 61,
      "hit": false,
      "t": 48783.33333333324,
      "d": 133.33333333333576,
      "v": 56
    },
    {
      "midi": 64,
      "hit": false,
      "t": 48783.33333333324,
      "d": 140,
      "v": 54
    },
    {
      "midi": 45,
      "hit": false,
      "t": 48799.999999999905,
      "d": 83.33333333333576,
      "v": 62
    },
    {
      "midi": 69,
      "hit": false,
      "t": 48799.999999999905,
      "d": 133.33333333333576,
      "v": 50
    },
    {
      "midi": 61,
      "hit": false,
      "t": 49056.66666666658,
      "d": 110,
      "v": 54
    },
    {
      "midi": 64,
      "hit": false,
      "t": 49056.66666666658,
      "d": 110,
      "v": 48
    },
    {
      "midi": 69,
      "hit": false,
      "t": 49066.66666666658,
      "d": 100,
      "v": 40
    },
    {
      "midi": 37,
      "hit": false,
      "t": 49299.999999999905,
      "d": 223.33333333332848,
      "v": 62
    },
    {
      "midi": 61,
      "hit": false,
      "t": 49306.66666666657,
      "d": 143.33333333332848,
      "v": 56
    },
    {
      "midi": 64,
      "hit": false,
      "t": 49316.66666666657,
      "d": 133.33333333332848,
      "v": 52
    },
    {
      "midi": 69,
      "hit": false,
      "t": 49333.333333333234,
      "d": 116.66666666666424,
      "v": 44
    },
    {
      "midi": 61,
      "hit": false,
      "t": 49589.9999999999,
      "d": 126.66666666666424,
      "v": 58
    },
    {
      "midi": 40,
      "hit": false,
      "t": 49589.9999999999,
      "d": 716.666666666657,
      "v": 62
    },
    {
      "midi": 64,
      "hit": false,
      "t": 49599.9999999999,
      "d": 133.33333333332848,
      "v": 54
    },
    {
      "midi": 69,
      "hit": false,
      "t": 49599.9999999999,
      "d": 133.33333333332848,
      "v": 46
    },
    {
      "midi": 61,
      "hit": false,
      "t": 49866.66666666656,
      "d": 106.66666666666424,
      "v": 56
    },
    {
      "midi": 64,
      "hit": false,
      "t": 49866.66666666656,
      "d": 123.33333333332848,
      "v": 52
    },
    {
      "midi": 69,
      "hit": false,
      "t": 49883.33333333323,
      "d": 90,
      "v": 38
    },
    {
      "midi": 61,
      "hit": false,
      "t": 50123.33333333323,
      "d": 110,
      "v": 52
    },
    {
      "midi": 69,
      "hit": false,
      "t": 50133.33333333323,
      "d": 116.66666666666424,
      "v": 44
    },
    {
      "midi": 64,
      "hit": false,
      "t": 50133.33333333323,
      "d": 133.33333333332848,
      "v": 50
    },
    {
      "midi": 64,
      "hit": false,
      "t": 50389.99999999989,
      "d": 143.33333333332848,
      "v": 54
    },
    {
      "midi": 61,
      "hit": false,
      "t": 50399.99999999989,
      "d": 116.66666666666424,
      "v": 56
    },
    {
      "midi": 69,
      "hit": false,
      "t": 50399.99999999989,
      "d": 123.33333333332848,
      "v": 42
    },
    {
      "midi": 37,
      "hit": false,
      "t": 50399.99999999989,
      "d": 199.99999999999272,
      "v": 62
    },
    {
      "midi": 61,
      "hit": false,
      "t": 50666.66666666655,
      "d": 90,
      "v": 52
    },
    {
      "midi": 64,
      "hit": false,
      "t": 50673.33333333321,
      "d": 93.33333333333576,
      "v": 48
    },
    {
      "midi": 69,
      "hit": false,
      "t": 50683.33333333321,
      "d": 50,
      "v": 38
    },
    {
      "midi": 64,
      "hit": false,
      "t": 50923.33333333321,
      "d": 143.33333333333576,
      "v": 50
    },
    {
      "midi": 61,
      "hit": false,
      "t": 50933.33333333321,
      "d": 123.33333333333576,
      "v": 58
    },
    {
      "midi": 69,
      "hit": false,
      "t": 50933.33333333321,
      "d": 123.33333333333576,
      "v": 46
    },
    {
      "midi": 40,
      "hit": false,
      "t": 50933.33333333321,
      "d": 166.66666666667152,
      "v": 62
    },
    {
      "midi": 61,
      "hit": false,
      "t": 51199.99999999988,
      "d": 133.33333333333576,
      "v": 58
    },
    {
      "midi": 64,
      "hit": false,
      "t": 51199.99999999988,
      "d": 133.33333333333576,
      "v": 56
    },
    {
      "midi": 69,
      "hit": false,
      "t": 51199.99999999988,
      "d": 133.33333333333576,
      "v": 48
    },
    {
      "midi": 33,
      "hit": false,
      "t": 51223.33333333322,
      "d": 1276.6666666666497,
      "v": 62
    },
    {
      "midi": 61,
      "hit": false,
      "t": 51466.666666666555,
      "d": 116.66666666666424,
      "v": 54
    },
    {
      "midi": 64,
      "hit": false,
      "t": 51466.666666666555,
      "d": 133.33333333332848,
      "v": 50
    },
    {
      "midi": 69,
      "hit": false,
      "t": 51483.33333333322,
      "d": 116.66666666666424,
      "v": 42
    },
    {
      "midi": 61,
      "hit": false,
      "t": 51723.33333333322,
      "d": 116.66666666666424,
      "v": 56
    },
    {
      "midi": 64,
      "hit": false,
      "t": 51723.33333333322,
      "d": 126.66666666666424,
      "v": 52
    },
    {
      "midi": 69,
      "hit": false,
      "t": 51723.33333333322,
      "d": 133.33333333332848,
      "v": 44
    },
    {
      "midi": 45,
      "hit": false,
      "t": 51973.33333333321,
      "d": 126.66666666666424,
      "v": 62
    },
    {
      "midi": 61,
      "hit": false,
      "t": 51983.33333333321,
      "d": 123.33333333332848,
      "v": 58
    },
    {
      "midi": 64,
      "hit": false,
      "t": 51989.999999999876,
      "d": 143.33333333332848,
      "v": 54
    },
    {
      "midi": 69,
      "hit": false,
      "t": 51989.999999999876,
      "d": 143.33333333332848,
      "v": 48
    },
    {
      "midi": 69,
      "hit": false,
      "t": 52256.66666666654,
      "d": 143.33333333332848,
      "v": 42
    },
    {
      "midi": 61,
      "hit": false,
      "t": 52266.66666666654,
      "d": 106.66666666666424,
      "v": 58
    },
    {
      "midi": 64,
      "hit": false,
      "t": 52266.66666666654,
      "d": 133.33333333332848,
      "v": 52
    },
    {
      "midi": 61,
      "hit": false,
      "t": 52506.66666666653,
      "d": 126.66666666666424,
      "v": 60
    },
    {
      "midi": 69,
      "hit": false,
      "t": 52506.66666666653,
      "d": 126.66666666666424,
      "v": 44
    },
    {
      "midi": 64,
      "hit": false,
      "t": 52506.66666666653,
      "d": 150,
      "v": 54
    },
    {
      "midi": 37,
      "hit": false,
      "t": 52533.3333333332,
      "d": 190,
      "v": 62
    },
    {
      "midi": 61,
      "hit": false,
      "t": 52783.3333333332,
      "d": 133.33333333333576,
      "v": 58
    },
    {
      "midi": 64,
      "hit": false,
      "t": 52783.3333333332,
      "d": 150,
      "v": 56
    },
    {
      "midi": 69,
      "hit": false,
      "t": 52783.3333333332,
      "d": 150,
      "v": 46
    },
    {
      "midi": 40,
      "hit": false,
      "t": 52806.66666666653,
      "d": 759.9999999999854,
      "v": 62
    },
    {
      "midi": 61,
      "hit": false,
      "t": 53066.66666666653,
      "d": 99.99999999999272,
      "v": 52
    },
    {
      "midi": 64,
      "hit": false,
      "t": 53066.66666666653,
      "d": 106.66666666665697,
      "v": 48
    },
    {
      "midi": 69,
      "hit": false,
      "t": 53073.3333333332,
      "d": 66.66666666666424,
      "v": 34
    },
    {
      "midi": 69,
      "hit": false,
      "t": 53306.666666666526,
      "d": 116.66666666666424,
      "v": 44
    },
    {
      "midi": 61,
      "hit": false,
      "t": 53306.666666666526,
      "d": 133.33333333332848,
      "v": 58
    },
    {
      "midi": 64,
      "hit": false,
      "t": 53306.666666666526,
      "d": 143.33333333332848,
      "v": 56
    },
    {
      "midi": 61,
      "hit": false,
      "t": 53573.33333333318,
      "d": 133.33333333332848,
      "v": 58
    },
    {
      "midi": 64,
      "hit": false,
      "t": 53573.33333333318,
      "d": 149.99999999999272,
      "v": 54
    },
    {
      "midi": 69,
      "hit": false,
      "t": 53589.99999999985,
      "d": 126.66666666666424,
      "v": 48
    },
    {
      "midi": 37,
      "hit": false,
      "t": 53606.66666666651,
      "d": 566.666666666657,
      "v": 62
    },
    {
      "midi": 61,
      "hit": false,
      "t": 53849.99999999984,
      "d": 123.33333333333576,
      "v": 56
    },
    {
      "midi": 64,
      "hit": false,
      "t": 53849.99999999984,
      "d": 140,
      "v": 52
    },
    {
      "midi": 69,
      "hit": false,
      "t": 53866.666666666504,
      "d": 83.33333333333576,
      "v": 48
    },
    {
      "midi": 61,
      "hit": false,
      "t": 54116.666666666504,
      "d": 116.66666666666424,
      "v": 58
    },
    {
      "midi": 64,
      "hit": false,
      "t": 54116.666666666504,
      "d": 133.33333333332848,
      "v": 52
    },
    {
      "midi": 69,
      "hit": false,
      "t": 54123.33333333317,
      "d": 100,
      "v": 52
    },
    {
      "midi": 40,
      "hit": false,
      "t": 54133.33333333317,
      "d": 106.66666666666424,
      "v": 62
    },
    {
      "midi": 64,
      "hit": false,
      "t": 54383.33333333317,
      "d": 166.66666666665697,
      "v": 58
    },
    {
      "midi": 68,
      "hit": false,
      "t": 54399.99999999983,
      "d": 106.66666666666424,
      "v": 62
    },
    {
      "midi": 62,
      "hit": false,
      "t": 54399.99999999983,
      "d": 133.33333333332848,
      "v": 56
    },
    {
      "midi": 40,
      "hit": false,
      "t": 54399.99999999983,
      "d": 1183.333333333314,
      "v": 62
    },
    {
      "midi": 62,
      "hit": false,
      "t": 54699.999999999825,
      "d": 100,
      "v": 52
    },
    {
      "midi": 64,
      "hit": false,
      "t": 54699.999999999825,
      "d": 106.66666666666424,
      "v": 50
    },
    {
      "midi": 68,
      "hit": false,
      "t": 54716.66666666649,
      "d": 83.33333333333576,
      "v": 54
    },
    {
      "midi": 62,
      "hit": false,
      "t": 54939.999999999825,
      "d": 126.66666666666424,
      "v": 52
    },
    {
      "midi": 64,
      "hit": false,
      "t": 54939.999999999825,
      "d": 133.33333333332848,
      "v": 52
    },
    {
      "midi": 68,
      "hit": false,
      "t": 54939.999999999825,
      "d": 133.33333333332848,
      "v": 54
    },
    {
      "midi": 62,
      "hit": false,
      "t": 55199.99999999982,
      "d": 133.33333333333576,
      "v": 54
    },
    {
      "midi": 64,
      "hit": false,
      "t": 55199.99999999982,
      "d": 140,
      "v": 52
    },
    {
      "midi": 68,
      "hit": false,
      "t": 55199.99999999982,
      "d": 140,
      "v": 54
    },
    {
      "midi": 52,
      "hit": false,
      "t": 55249.99999999982,
      "d": 73.33333333333576,
      "v": 62
    },
    {
      "midi": 62,
      "hit": false,
      "t": 55466.66666666648,
      "d": 100,
      "v": 50
    },
    {
      "midi": 68,
      "hit": false,
      "t": 55466.66666666648,
      "d": 100,
      "v": 50
    },
    {
      "midi": 64,
      "hit": false,
      "t": 55466.66666666648,
      "d": 116.66666666666424,
      "v": 48
    },
    {
      "midi": 62,
      "hit": false,
      "t": 55716.66666666648,
      "d": 116.66666666666424,
      "v": 52
    },
    {
      "midi": 68,
      "hit": false,
      "t": 55716.66666666648,
      "d": 116.66666666666424,
      "v": 50
    },
    {
      "midi": 64,
      "hit": false,
      "t": 55716.66666666648,
      "d": 133.33333333332848,
      "v": 48
    },
    {
      "midi": 44,
      "hit": false,
      "t": 55716.66666666648,
      "d": 223.33333333332848,
      "v": 62
    },
    {
      "midi": 62,
      "hit": false,
      "t": 55999.99999999981,
      "d": 106.66666666666424,
      "v": 48
    },
    {
      "midi": 64,
      "hit": false,
      "t": 55999.99999999981,
      "d": 116.66666666666424,
      "v": 48
    },
    {
      "midi": 68,
      "hit": false,
      "t": 55999.99999999981,
      "d": 116.66666666666424,
      "v": 52
    },
    {
      "midi": 47,
      "hit": false,
      "t": 56006.666666666475,
      "d": 666.6666666666642,
      "v": 62
    },
    {
      "midi": 62,
      "hit": false,
      "t": 56249.99999999981,
      "d": 106.66666666666424,
      "v": 50
    },
    {
      "midi": 64,
      "hit": false,
      "t": 56249.99999999981,
      "d": 116.66666666666424,
      "v": 50
    },
    {
      "midi": 68,
      "hit": false,
      "t": 56256.666666666475,
      "d": 83.33333333333576,
      "v": 48
    },
    {
      "midi": 62,
      "hit": false,
      "t": 56506.666666666475,
      "d": 126.66666666666424,
      "v": 52
    },
    {
      "midi": 64,
      "hit": false,
      "t": 56506.666666666475,
      "d": 133.33333333332848,
      "v": 50
    },
    {
      "midi": 68,
      "hit": false,
      "t": 56533.33333333314,
      "d": 100,
      "v": 54
    },
    {
      "midi": 44,
      "hit": false,
      "t": 56773.33333333314,
      "d": 266.66666666666424,
      "v": 62
    },
    {
      "midi": 64,
      "hit": false,
      "t": 56783.33333333314,
      "d": 133.33333333332848,
      "v": 52
    },
    {
      "midi": 68,
      "hit": false,
      "t": 56783.33333333314,
      "d": 133.33333333332848,
      "v": 54
    },
    {
      "midi": 62,
      "hit": false,
      "t": 56789.9999999998,
      "d": 110,
      "v": 54
    },
    {
      "midi": 68,
      "hit": false,
      "t": 57066.66666666647,
      "d": 66.66666666666424,
      "v": 44
    },
    {
      "midi": 62,
      "hit": false,
      "t": 57066.66666666647,
      "d": 90,
      "v": 48
    },
    {
      "midi": 64,
      "hit": false,
      "t": 57066.66666666647,
      "d": 100,
      "v": 48
    },
    {
      "midi": 47,
      "hit": false,
      "t": 57283.33333333313,
      "d": 156.66666666666424,
      "v": 62
    },
    {
      "midi": 62,
      "hit": false,
      "t": 57316.66666666647,
      "d": 116.66666666666424,
      "v": 52
    },
    {
      "midi": 64,
      "hit": false,
      "t": 57316.66666666647,
      "d": 123.33333333332848,
      "v": 52
    },
    {
      "midi": 68,
      "hit": false,
      "t": 57323.33333333313,
      "d": 83.33333333333576,
      "v": 52
    },
    {
      "midi": 62,
      "hit": false,
      "t": 57589.999999999796,
      "d": 133.33333333332848,
      "v": 54
    },
    {
      "midi": 64,
      "hit": false,
      "t": 57589.999999999796,
      "d": 143.33333333332848,
      "v": 52
    },
    {
      "midi": 68,
      "hit": false,
      "t": 57599.999999999796,
      "d": 116.66666666666424,
      "v": 54
    },
    {
      "midi": 40,
      "hit": false,
      "t": 57599.999999999796,
      "d": 1199.9999999999782,
      "v": 62
    },
    {
      "midi": 62,
      "hit": false,
      "t": 57866.66666666646,
      "d": 100,
      "v": 48
    },
    {
      "midi": 64,
      "hit": false,
      "t": 57866.66666666646,
      "d": 123.33333333333576,
      "v": 48
    },
    {
      "midi": 68,
      "hit": false,
      "t": 57883.333333333125,
      "d": 73.33333333333576,
      "v": 48
    },
    {
      "midi": 64,
      "hit": false,
      "t": 58106.66666666646,
      "d": 143.33333333332848,
      "v": 48
    },
    {
      "midi": 62,
      "hit": false,
      "t": 58116.66666666646,
      "d": 116.66666666666424,
      "v": 50
    },
    {
      "midi": 68,
      "hit": false,
      "t": 58133.333333333125,
      "d": 90,
      "v": 52
    },
    {
      "midi": 52,
      "hit": false,
      "t": 58366.66666666645,
      "d": 73.33333333332848,
      "v": 62
    },
    {
      "midi": 62,
      "hit": false,
      "t": 58373.33333333312,
      "d": 126.66666666666424,
      "v": 52
    },
    {
      "midi": 68,
      "hit": false,
      "t": 58373.33333333312,
      "d": 133.33333333332848,
      "v": 54
    },
    {
      "midi": 64,
      "hit": false,
      "t": 58373.33333333312,
      "d": 143.33333333332848,
      "v": 52
    },
    {
      "midi": 64,
      "hit": false,
      "t": 58639.99999999978,
      "d": 109.99999999999272,
      "v": 48
    },
    {
      "midi": 62,
      "hit": false,
      "t": 58649.99999999978,
      "d": 89.99999999999272,
      "v": 48
    },
    {
      "midi": 68,
      "hit": false,
      "t": 58656.666666666446,
      "d": 76.66666666666424,
      "v": 48
    },
    {
      "midi": 68,
      "hit": false,
      "t": 58899.999999999774,
      "d": 116.66666666666424,
      "v": 50
    },
    {
      "midi": 62,
      "hit": false,
      "t": 58899.999999999774,
      "d": 123.33333333332848,
      "v": 50
    },
    {
      "midi": 64,
      "hit": false,
      "t": 58899.999999999774,
      "d": 133.33333333332848,
      "v": 50
    },
    {
      "midi": 44,
      "hit": false,
      "t": 58899.999999999774,
      "d": 233.33333333332848,
      "v": 62
    },
    {
      "midi": 62,
      "hit": false,
      "t": 59183.3333333331,
      "d": 116.66666666666424,
      "v": 54
    },
    {
      "midi": 68,
      "hit": false,
      "t": 59183.3333333331,
      "d": 123.33333333332848,
      "v": 54
    },
    {
      "midi": 64,
      "hit": false,
      "t": 59183.3333333331,
      "d": 139.99999999999272,
      "v": 52
    },
    {
      "midi": 47,
      "hit": false,
      "t": 59233.3333333331,
      "d": 689.9999999999854,
      "v": 62
    },
    {
      "midi": 64,
      "hit": false,
      "t": 59449.99999999976,
      "d": 123.33333333332848,
      "v": 48
    },
    {
      "midi": 68,
      "hit": false,
      "t": 59456.666666666424,
      "d": 83.33333333333576,
      "v": 48
    },
    {
      "midi": 62,
      "hit": false,
      "t": 59466.666666666424,
      "d": 90,
      "v": 50
    },
    {
      "midi": 62,
      "hit": false,
      "t": 59716.666666666424,
      "d": 116.66666666666424,
      "v": 52
    },
    {
      "midi": 68,
      "hit": false,
      "t": 59716.666666666424,
      "d": 123.33333333332848,
      "v": 54
    },
    {
      "midi": 64,
      "hit": false,
      "t": 59716.666666666424,
      "d": 133.33333333332848,
      "v": 52
    },
    {
      "midi": 62,
      "hit": false,
      "t": 59983.33333333309,
      "d": 116.66666666666424,
      "v": 54
    },
    {
      "midi": 68,
      "hit": false,
      "t": 59983.33333333309,
      "d": 123.33333333332848,
      "v": 56
    },
    {
      "midi": 64,
      "hit": false,
      "t": 59983.33333333309,
      "d": 149.99999999999272,
      "v": 52
    },
    {
      "midi": 44,
      "hit": false,
      "t": 59983.33333333309,
      "d": 473.3333333333285,
      "v": 62
    },
    {
      "midi": 62,
      "hit": false,
      "t": 60266.66666666642,
      "d": 90,
      "v": 48
    },
    {
      "midi": 64,
      "hit": false,
      "t": 60266.66666666642,
      "d": 106.66666666666424,
      "v": 48
    },
    {
      "midi": 68,
      "hit": false,
      "t": 60273.33333333308,
      "d": 60,
      "v": 46
    },
    {
      "midi": 45,
      "hit": false,
      "t": 60499.99999999975,
      "d": 256.66666666665697,
      "v": 62
    },
    {
      "midi": 62,
      "hit": false,
      "t": 60506.66666666642,
      "d": 116.66666666666424,
      "v": 54
    },
    {
      "midi": 64,
      "hit": false,
      "t": 60506.66666666642,
      "d": 149.99999999999272,
      "v": 52
    },
    {
      "midi": 68,
      "hit": false,
      "t": 60533.33333333308,
      "d": 106.66666666666424,
      "v": 54
    },
    {
      "midi": 64,
      "hit": false,
      "t": 60783.333333333074,
      "d": 156.66666666666424,
      "v": 54
    },
    {
      "midi": 61,
      "hit": false,
      "t": 60799.99999999974,
      "d": 133.33333333333576,
      "v": 62
    },
    {
      "midi": 69,
      "hit": false,
      "t": 60799.99999999974,
      "d": 140,
      "v": 54
    },
    {
      "midi": 33,
      "hit": false,
      "t": 60799.99999999974,
      "d": 1000,
      "v": 62
    },
    {
      "midi": 61,
      "hit": false,
      "t": 61056.6666666664,
      "d": 133.33333333332848,
      "v": 58
    },
    {
      "midi": 64,
      "hit": false,
      "t": 61056.6666666664,
      "d": 143.33333333332848,
      "v": 50
    },
    {
      "midi": 69,
      "hit": false,
      "t": 61073.33333333307,
      "d": 126.66666666666424,
      "v": 44
    },
    {
      "midi": 61,
      "hit": false,
      "t": 61323.33333333307,
      "d": 143.33333333333576,
      "v": 58
    },
    {
      "midi": 64,
      "hit": false,
      "t": 61323.33333333307,
      "d": 143.33333333333576,
      "v": 52
    },
    {
      "midi": 69,
      "hit": false,
      "t": 61333.33333333307,
      "d": 123.33333333333576,
      "v": 48
    },
    {
      "midi": 61,
      "hit": false,
      "t": 61599.99999999974,
      "d": 140,
      "v": 58
    },
    {
      "midi": 69,
      "hit": false,
      "t": 61599.99999999974,
      "d": 150,
      "v": 50
    },
    {
      "midi": 64,
      "hit": false,
      "t": 61599.99999999974,
      "d": 166.66666666666424,
      "v": 54
    },
    {
      "midi": 45,
      "hit": false,
      "t": 61616.6666666664,
      "d": 150,
      "v": 62
    },
    {
      "midi": 35,
      "hit": false,
      "t": 61849.99999999974,
      "d": 156.66666666665697,
      "v": 62
    },
    {
      "midi": 61,
      "hit": false,
      "t": 61866.6666666664,
      "d": 116.66666666666424,
      "v": 58
    },
    {
      "midi": 64,
      "hit": false,
      "t": 61866.6666666664,
      "d": 133.33333333332848,
      "v": 54
    },
    {
      "midi": 69,
      "hit": false,
      "t": 61883.33333333307,
      "d": 116.66666666666424,
      "v": 46
    },
    {
      "midi": 37,
      "hit": false,
      "t": 62099.99999999973,
      "d": 133.33333333332848,
      "v": 62
    },
    {
      "midi": 64,
      "hit": false,
      "t": 62116.666666666395,
      "d": 123.33333333332848,
      "v": 54
    },
    {
      "midi": 61,
      "hit": false,
      "t": 62116.666666666395,
      "d": 149.99999999999272,
      "v": 58
    },
    {
      "midi": 69,
      "hit": false,
      "t": 62123.33333333306,
      "d": 110,
      "v": 44
    },
    {
      "midi": 66,
      "hit": false,
      "t": 62389.99999999972,
      "d": 149.99999999999272,
      "v": 62
    },
    {
      "midi": 38,
      "hit": false,
      "t": 62389.99999999972,
      "d": 643.3333333333212,
      "v": 62
    },
    {
      "midi": 62,
      "hit": false,
      "t": 62399.99999999972,
      "d": 133.33333333332848,
      "v": 62
    },
    {
      "midi": 69,
      "hit": false,
      "t": 62406.66666666639,
      "d": 110,
      "v": 54
    },
    {
      "midi": 66,
      "hit": false,
      "t": 62639.999999999716,
      "d": 159.99999999999272,
      "v": 58
    },
    {
      "midi": 62,
      "hit": false,
      "t": 62666.66666666638,
      "d": 116.66666666666424,
      "v": 56
    },
    {
      "midi": 69,
      "hit": false,
      "t": 62673.333333333045,
      "d": 83.33333333333576,
      "v": 44
    },
    {
      "midi": 62,
      "hit": false,
      "t": 62923.333333333045,
      "d": 143.33333333333576,
      "v": 58
    },
    {
      "midi": 66,
      "hit": false,
      "t": 62923.333333333045,
      "d": 160,
      "v": 60
    },
    {
      "midi": 69,
      "hit": false,
      "t": 62939.99999999971,
      "d": 116.66666666667152,
      "v": 50
    },
    {
      "midi": 38,
      "hit": false,
      "t": 63166.66666666638,
      "d": 150,
      "v": 62
    },
    {
      "midi": 62,
      "hit": false,
      "t": 63199.999999999716,
      "d": 133.33333333332848,
      "v": 62
    },
    {
      "midi": 66,
      "hit": false,
      "t": 63199.999999999716,
      "d": 149.99999999999272,
      "v": 62
    },
    {
      "midi": 69,
      "hit": false,
      "t": 63206.66666666638,
      "d": 126.66666666666424,
      "v": 54
    },
    {
      "midi": 37,
      "hit": false,
      "t": 63433.333333333045,
      "d": 156.66666666667152,
      "v": 62
    },
    {
      "midi": 66,
      "hit": false,
      "t": 63456.66666666638,
      "d": 143.33333333333576,
      "v": 62
    },
    {
      "midi": 69,
      "hit": false,
      "t": 63466.66666666638,
      "d": 100,
      "v": 50
    },
    {
      "midi": 62,
      "hit": false,
      "t": 63466.66666666638,
      "d": 123.33333333333576,
      "v": 60
    },
    {
      "midi": 62,
      "hit": false,
      "t": 63699.999999999716,
      "d": 133.33333333332848,
      "v": 60
    },
    {
      "midi": 35,
      "hit": false,
      "t": 63699.999999999716,
      "d": 166.66666666666424,
      "v": 62
    },
    {
      "midi": 66,
      "hit": false,
      "t": 63699.999999999716,
      "d": 166.66666666666424,
      "v": 62
    },
    {
      "midi": 69,
      "hit": false,
      "t": 63716.66666666638,
      "d": 106.66666666666424,
      "v": 52
    },
    {
      "midi": 61,
      "hit": false,
      "t": 63966.66666666638,
      "d": 150,
      "v": 62
    },
    {
      "midi": 69,
      "hit": false,
      "t": 63966.66666666638,
      "d": 150,
      "v": 54
    },
    {
      "midi": 33,
      "hit": false,
      "t": 63966.66666666638,
      "d": 1239.9999999999854,
      "v": 62
    },
    {
      "midi": 64,
      "hit": false,
      "t": 63983.333333333045,
      "d": 150,
      "v": 60
    },
    {
      "midi": 61,
      "hit": false,
      "t": 64233.333333333045,
      "d": 133.33333333333576,
      "v": 56
    },
    {
      "midi": 69,
      "hit": false,
      "t": 64233.333333333045,
      "d": 140,
      "v": 44
    },
    {
      "midi": 64,
      "hit": false,
      "t": 64256.66666666638,
      "d": 110,
      "v": 54
    },
    {
      "midi": 61,
      "hit": false,
      "t": 64499.99999999971,
      "d": 150,
      "v": 56
    },
    {
      "midi": 64,
      "hit": false,
      "t": 64516.66666666637,
      "d": 123.33333333333576,
      "v": 54
    },
    {
      "midi": 69,
      "hit": false,
      "t": 64516.66666666637,
      "d": 123.33333333333576,
      "v": 52
    },
    {
      "midi": 45,
      "hit": false,
      "t": 64789.99999999971,
      "d": 116.66666666666424,
      "v": 62
    },
    {
      "midi": 61,
      "hit": false,
      "t": 64789.99999999971,
      "d": 133.33333333332848,
      "v": 60
    },
    {
      "midi": 64,
      "hit": false,
      "t": 64789.99999999971,
      "d": 143.33333333332848,
      "v": 56
    },
    {
      "midi": 69,
      "hit": false,
      "t": 64806.66666666637,
      "d": 116.66666666666424,
      "v": 54
    },
    {
      "midi": 61,
      "hit": false,
      "t": 65056.66666666637,
      "d": 126.66666666666424,
      "v": 54
    },
    {
      "midi": 64,
      "hit": false,
      "t": 65056.66666666637,
      "d": 133.33333333332848,
      "v": 52
    },
    {
      "midi": 69,
      "hit": false,
      "t": 65066.66666666637,
      "d": 100,
      "v": 50
    },
    {
      "midi": 37,
      "hit": false,
      "t": 65283.33333333303,
      "d": 183.33333333332848,
      "v": 62
    },
    {
      "midi": 61,
      "hit": false,
      "t": 65299.999999999694,
      "d": 133.33333333332848,
      "v": 60
    },
    {
      "midi": 64,
      "hit": false,
      "t": 65306.66666666636,
      "d": 150,
      "v": 54
    },
    {
      "midi": 69,
      "hit": false,
      "t": 65316.66666666636,
      "d": 90,
      "v": 52
    },
    {
      "midi": 64,
      "hit": false,
      "t": 65566.66666666637,
      "d": 166.66666666668607,
      "v": 62
    },
    {
      "midi": 68,
      "hit": false,
      "t": 65583.33333333304,
      "d": 123.33333333334303,
      "v": 62
    },
    {
      "midi": 62,
      "hit": false,
      "t": 65583.33333333304,
      "d": 140.00000000001455,
      "v": 62
    },
    {
      "midi": 40,
      "hit": false,
      "t": 65589.99999999971,
      "d": 766.6666666666861,
      "v": 62
    },
    {
      "midi": 68,
      "hit": false,
      "t": 65849.99999999972,
      "d": 116.66666666667152,
      "v": 52
    },
    {
      "midi": 62,
      "hit": false,
      "t": 65849.99999999972,
      "d": 133.33333333334303,
      "v": 52
    },
    {
      "midi": 64,
      "hit": false,
      "t": 65849.99999999972,
      "d": 133.33333333334303,
      "v": 52
    },
    {
      "midi": 62,
      "hit": false,
      "t": 66116.6666666664,
      "d": 133.33333333332848,
      "v": 56
    },
    {
      "midi": 68,
      "hit": false,
      "t": 66116.6666666664,
      "d": 140,
      "v": 58
    },
    {
      "midi": 64,
      "hit": false,
      "t": 66116.6666666664,
      "d": 150,
      "v": 54
    },
    {
      "midi": 62,
      "hit": false,
      "t": 66389.99999999972,
      "d": 126.66666666667152,
      "v": 58
    },
    {
      "midi": 64,
      "hit": false,
      "t": 66389.99999999972,
      "d": 143.33333333334303,
      "v": 56
    },
    {
      "midi": 68,
      "hit": false,
      "t": 66389.99999999972,
      "d": 150.00000000001455,
      "v": 60
    },
    {
      "midi": 36,
      "hit": false,
      "t": 66406.6666666664,
      "d": 543.3333333333576,
      "v": 62
    },
    {
      "midi": 35,
      "hit": false,
      "t": 66406.6666666664,
      "d": 576.6666666666861,
      "v": 60
    },
    {
      "midi": 62,
      "hit": false,
      "t": 66656.66666666641,
      "d": 110,
      "v": 56
    },
    {
      "midi": 64,
      "hit": false,
      "t": 66656.66666666641,
      "d": 116.66666666667152,
      "v": 52
    },
    {
      "midi": 68,
      "hit": false,
      "t": 66656.66666666641,
      "d": 116.66666666667152,
      "v": 52
    },
    {
      "midi": 62,
      "hit": false,
      "t": 66899.99999999975,
      "d": 123.33333333332848,
      "v": 56
    },
    {
      "midi": 68,
      "hit": false,
      "t": 66899.99999999975,
      "d": 140,
      "v": 56
    },
    {
      "midi": 64,
      "hit": false,
      "t": 66899.99999999975,
      "d": 156.66666666667152,
      "v": 56
    },
    {
      "midi": 33,
      "hit": false,
      "t": 67166.66666666642,
      "d": 1200.0000000000146,
      "v": 62
    },
    {
      "midi": 61,
      "hit": false,
      "t": 67173.3333333331,
      "d": 160,
      "v": 62
    },
    {
      "midi": 64,
      "hit": false,
      "t": 67173.3333333331,
      "d": 160,
      "v": 56
    },
    {
      "midi": 69,
      "hit": false,
      "t": 67173.3333333331,
      "d": 176.66666666667152,
      "v": 54
    },
    {
      "midi": 61,
      "hit": false,
      "t": 67449.99999999977,
      "d": 123.33333333332848,
      "v": 56
    },
    {
      "midi": 64,
      "hit": false,
      "t": 67449.99999999977,
      "d": 123.33333333332848,
      "v": 50
    },
    {
      "midi": 69,
      "hit": false,
      "t": 67449.99999999977,
      "d": 133.33333333332848,
      "v": 38
    },
    {
      "midi": 64,
      "hit": false,
      "t": 67666.66666666666,
      "d": 256.6666666666715,
      "v": 62
    },
    {
      "midi": 61,
      "hit": false,
      "t": 67699.99999999977,
      "d": 150,
      "v": 58
    },
    {
      "midi": 64,
      "hit": false,
      "t": 67699.99999999977,
      "d": 166.66666666667152,
      "v": 54
    },
    {
      "midi": 69,
      "hit": false,
      "t": 67699.99999999977,
      "d": 166.66666666667152,
      "v": 46
    },
    {
      "midi": 61,
      "hit": false,
      "t": 67983.33333333333,
      "d": 473.3333333333285,
      "v": 62
    },
    {
      "midi": 45,
      "hit": false,
      "t": 67999.99999999977,
      "d": 100,
      "v": 62
    },
    {
      "midi": 61,
      "hit": false,
      "t": 67999.99999999977,
      "d": 133.33333333332848,
      "v": 58
    },
    {
      "midi": 64,
      "hit": false,
      "t": 67999.99999999977,
      "d": 133.33333333332848,
      "v": 52
    },
    {
      "midi": 69,
      "hit": false,
      "t": 68006.66666666644,
      "d": 126.66666666665697,
      "v": 52
    },
    {
      "midi": 61,
      "hit": false,
      "t": 68273.3333333331,
      "d": 100.00000000001455,
      "v": 54
    },
    {
      "midi": 64,
      "hit": false,
      "t": 68273.3333333331,
      "d": 126.66666666668607,
      "v": 46
    },
    {
      "midi": 69,
      "hit": false,
      "t": 68289.99999999977,
      "d": 93.33333333334303,
      "v": 44
    },
    {
      "midi": 37,
      "hit": false,
      "t": 68516.66666666645,
      "d": 233.3333333333576,
      "v": 62
    },
    {
      "midi": 61,
      "hit": false,
      "t": 68533.33333333312,
      "d": 123.33333333334303,
      "v": 56
    },
    {
      "midi": 64,
      "hit": false,
      "t": 68539.9999999998,
      "d": 133.33333333334303,
      "v": 48
    },
    {
      "midi": 69,
      "hit": false,
      "t": 68556.66666666647,
      "d": 100,
      "v": 44
    },
    {
      "midi": 62,
      "hit": false,
      "t": 68556.66666666666,
      "d": 250,
      "v": 62
    },
    {
      "midi": 61,
      "hit": false,
      "t": 68806.66666666648,
      "d": 126.66666666667152,
      "v": 58
    },
    {
      "midi": 64,
      "hit": false,
      "t": 68816.66666666648,
      "d": 133.33333333334303,
      "v": 52
    },
    {
      "midi": 40,
      "hit": false,
      "t": 68823.33333333315,
      "d": 733.3333333333576,
      "v": 62
    },
    {
      "midi": 69,
      "hit": false,
      "t": 68833.33333333315,
      "d": 100,
      "v": 46
    },
    {
      "midi": 64,
      "hit": false,
      "t": 68873.33333333333,
      "d": 650,
      "v": 62
    },
    {
      "midi": 61,
      "hit": false,
      "t": 69073.33333333315,
      "d": 116.66666666667152,
      "v": 52
    },
    {
      "midi": 64,
      "hit": false,
      "t": 69073.33333333315,
      "d": 143.33333333334303,
      "v": 48
    },
    {
      "midi": 69,
      "hit": false,
      "t": 69099.99999999983,
      "d": 100,
      "v": 44
    },
    {
      "midi": 61,
      "hit": false,
      "t": 69339.99999999983,
      "d": 133.33333333334303,
      "v": 54
    },
    {
      "midi": 64,
      "hit": false,
      "t": 69349.99999999983,
      "d": 140.00000000001455,
      "v": 50
    },
    {
      "midi": 69,
      "hit": false,
      "t": 69366.6666666665,
      "d": 100,
      "v": 48
    },
    {
      "midi": 61,
      "hit": false,
      "t": 69616.66666666651,
      "d": 140.00000000001455,
      "v": 56
    },
    {
      "midi": 64,
      "hit": false,
      "t": 69633.33333333318,
      "d": 140.00000000001455,
      "v": 54
    },
    {
      "midi": 37,
      "hit": false,
      "t": 69633.33333333318,
      "d": 433.33333333334303,
      "v": 62
    },
    {
      "midi": 69,
      "hit": false,
      "t": 69639.99999999985,
      "d": 100,
      "v": 48
    },
    {
      "midi": 66,
      "hit": false,
      "t": 69666.66666666666,
      "d": 416.6666666666715,
      "v": 62
    },
    {
      "midi": 61,
      "hit": false,
      "t": 69883.3333333332,
      "d": 116.66666666667152,
      "v": 56
    },
    {
      "midi": 64,
      "hit": false,
      "t": 69883.3333333332,
      "d": 140,
      "v": 48
    },
    {
      "midi": 69,
      "hit": false,
      "t": 69899.99999999987,
      "d": 90,
      "v": 48
    },
    {
      "midi": 64,
      "hit": false,
      "t": 70139.99999999985,
      "d": 176.66666666667152,
      "v": 52
    },
    {
      "midi": 69,
      "hit": false,
      "t": 70149.99999999985,
      "d": 116.66666666667152,
      "v": 54
    },
    {
      "midi": 61,
      "hit": false,
      "t": 70149.99999999985,
      "d": 166.66666666667152,
      "v": 58
    },
    {
      "midi": 40,
      "hit": false,
      "t": 70156.66666666653,
      "d": 126.66666666667152,
      "v": 62
    },
    {
      "midi": 64,
      "hit": false,
      "t": 70190,
      "d": 1933.3333333333285,
      "v": 62
    },
    {
      "midi": 64,
      "hit": false,
      "t": 70423.3333333332,
      "d": 150.00000000001455,
      "v": 58
    },
    {
      "midi": 68,
      "hit": false,
      "t": 70433.3333333332,
      "d": 116.66666666667152,
      "v": 62
    },
    {
      "midi": 62,
      "hit": false,
      "t": 70433.3333333332,
      "d": 133.33333333334303,
      "v": 58
    },
    {
      "midi": 40,
      "hit": false,
      "t": 70433.3333333332,
      "d": 1216.6666666667006,
      "v": 62
    },
    {
      "midi": 62,
      "hit": false,
      "t": 70706.66666666654,
      "d": 116.66666666667152,
      "v": 50
    },
    {
      "midi": 68,
      "hit": false,
      "t": 70706.66666666654,
      "d": 116.66666666667152,
      "v": 46
    },
    {
      "midi": 64,
      "hit": false,
      "t": 70706.66666666654,
      "d": 126.66666666667152,
      "v": 46
    },
    {
      "midi": 62,
      "hit": false,
      "t": 70966.66666666654,
      "d": 140.00000000001455,
      "v": 52
    },
    {
      "midi": 64,
      "hit": false,
      "t": 70966.66666666654,
      "d": 150.00000000001455,
      "v": 50
    },
    {
      "midi": 68,
      "hit": false,
      "t": 70973.33333333321,
      "d": 126.66666666667152,
      "v": 50
    },
    {
      "midi": 52,
      "hit": false,
      "t": 71239.99999999988,
      "d": 76.66666666667152,
      "v": 62
    },
    {
      "midi": 62,
      "hit": false,
      "t": 71239.99999999988,
      "d": 116.66666666667152,
      "v": 54
    },
    {
      "midi": 64,
      "hit": false,
      "t": 71239.99999999988,
      "d": 133.33333333334303,
      "v": 54
    },
    {
      "midi": 68,
      "hit": false,
      "t": 71249.99999999988,
      "d": 106.66666666667152,
      "v": 54
    },
    {
      "midi": 64,
      "hit": false,
      "t": 71506.66666666656,
      "d": 110.00000000001455,
      "v": 46
    },
    {
      "midi": 62,
      "hit": false,
      "t": 71516.66666666656,
      "d": 100.00000000001455,
      "v": 50
    },
    {
      "midi": 68,
      "hit": false,
      "t": 71523.33333333323,
      "d": 76.66666666667152,
      "v": 50
    },
    {
      "midi": 62,
      "hit": false,
      "t": 71766.66666666657,
      "d": 133.33333333334303,
      "v": 52
    },
    {
      "midi": 44,
      "hit": false,
      "t": 71766.66666666657,
      "d": 216.66666666668607,
      "v": 62
    },
    {
      "midi": 68,
      "hit": false,
      "t": 71773.33333333324,
      "d": 116.66666666667152,
      "v": 52
    },
    {
      "midi": 64,
      "hit": false,
      "t": 71773.33333333324,
      "d": 133.33333333334303,
      "v": 52
    },
    {
      "midi": 62,
      "hit": false,
      "t": 72039.99999999993,
      "d": 133.33333333334303,
      "v": 50
    },
    {
      "midi": 64,
      "hit": false,
      "t": 72049.99999999993,
      "d": 140.00000000001455,
      "v": 50
    },
    {
      "midi": 68,
      "hit": false,
      "t": 72066.6666666666,
      "d": 100,
      "v": 52
    },
    {
      "midi": 47,
      "hit": false,
      "t": 72066.6666666666,
      "d": 673.3333333333576,
      "v": 62
    },
    {
      "midi": 62,
      "hit": false,
      "t": 72316.66666666661,
      "d": 106.66666666667152,
      "v": 52
    },
    {
      "midi": 64,
      "hit": false,
      "t": 72316.66666666661,
      "d": 116.66666666667152,
      "v": 52
    },
    {
      "midi": 68,
      "hit": false,
      "t": 72333.33333333328,
      "d": 66.66666666667152,
      "v": 52
    },
    {
      "midi": 62,
      "hit": false,
      "t": 72573.33333333328,
      "d": 116.66666666667152,
      "v": 50
    },
    {
      "midi": 64,
      "hit": false,
      "t": 72573.33333333328,
      "d": 126.66666666667152,
      "v": 50
    },
    {
      "midi": 68,
      "hit": false,
      "t": 72599.99999999996,
      "d": 73.33333333332848,
      "v": 52
    },
    {
      "midi": 44,
      "hit": false,
      "t": 72816.66666666663,
      "d": 490.00000000001455,
      "v": 62
    },
    {
      "midi": 62,
      "hit": false,
      "t": 72833.3333333333,
      "d": 116.66666666667152,
      "v": 56
    },
    {
      "midi": 68,
      "hit": false,
      "t": 72833.3333333333,
      "d": 116.66666666667152,
      "v": 58
    },
    {
      "midi": 64,
      "hit": false,
      "t": 72833.3333333333,
      "d": 133.33333333334303,
      "v": 56
    },
    {
      "midi": 62,
      "hit": false,
      "t": 73099.99999999997,
      "d": 90,
      "v": 52
    },
    {
      "midi": 64,
      "hit": false,
      "t": 73099.99999999997,
      "d": 100,
      "v": 50
    },
    {
      "midi": 68,
      "hit": false,
      "t": 73099.99999999997,
      "d": 100,
      "v": 52
    },
    {
      "midi": 64,
      "hit": false,
      "t": 73333.33333333331,
      "d": 140,
      "v": 52
    },
    {
      "midi": 68,
      "hit": false,
      "t": 73333.33333333331,
      "d": 140,
      "v": 54
    },
    {
      "midi": 62,
      "hit": false,
      "t": 73339.99999999999,
      "d": 110,
      "v": 56
    },
    {
      "midi": 45,
      "hit": false,
      "t": 73366.66666666666,
      "d": 156.66666666665697,
      "v": 62
    },
    {
      "midi": 61,
      "hit": false,
      "t": 73599.99999999999,
      "d": 140,
      "v": 58
    },
    {
      "midi": 64,
      "hit": false,
      "t": 73599.99999999999,
      "d": 150,
      "v": 52
    },
    {
      "midi": 69,
      "hit": false,
      "t": 73599.99999999999,
      "d": 150,
      "v": 56
    },
    {
      "midi": 33,
      "hit": false,
      "t": 73606.66666666666,
      "d": 1283.3333333333867,
      "v": 62
    },
    {
      "midi": 61,
      "hit": false,
      "t": 73873.33333333331,
      "d": 126.66666666667152,
      "v": 54
    },
    {
      "midi": 64,
      "hit": false,
      "t": 73873.33333333331,
      "d": 133.33333333334303,
      "v": 50
    },
    {
      "midi": 69,
      "hit": false,
      "t": 73889.99999999999,
      "d": 116.66666666667152,
      "v": 44
    },
    {
      "midi": 61,
      "hit": false,
      "t": 74133.33333333333,
      "d": 133.33333333334303,
      "v": 58
    },
    {
      "midi": 64,
      "hit": false,
      "t": 74133.33333333333,
      "d": 140.00000000001455,
      "v": 52
    },
    {
      "midi": 64,
      "hit": false,
      "t": 74133.33333333333,
      "d": 250,
      "v": 62
    },
    {
      "midi": 69,
      "hit": false,
      "t": 74140,
      "d": 126.66666666667152,
      "v": 44
    },
    {
      "midi": 64,
      "hit": false,
      "t": 74400.00000000001,
      "d": 156.66666666667152,
      "v": 56
    },
    {
      "midi": 61,
      "hit": false,
      "t": 74406.66666666669,
      "d": 126.66666666667152,
      "v": 60
    },
    {
      "midi": 45,
      "hit": false,
      "t": 74406.66666666669,
      "d": 150,
      "v": 62
    },
    {
      "midi": 69,
      "hit": false,
      "t": 74423.33333333336,
      "d": 133.33333333332848,
      "v": 52
    },
    {
      "midi": 61,
      "hit": false,
      "t": 74433.33333333333,
      "d": 433.3333333333285,
      "v": 62
    },
    {
      "midi": 61,
      "hit": false,
      "t": 74673.33333333336,
      "d": 126.66666666667152,
      "v": 56
    },
    {
      "midi": 64,
      "hit": false,
      "t": 74673.33333333336,
      "d": 143.33333333334303,
      "v": 50
    },
    {
      "midi": 69,
      "hit": false,
      "t": 74700.00000000003,
      "d": 133.33333333334303,
      "v": 46
    },
    {
      "midi": 69,
      "hit": false,
      "t": 74933.33333333337,
      "d": 100,
      "v": 44
    },
    {
      "midi": 61,
      "hit": false,
      "t": 74933.33333333337,
      "d": 133.33333333332848,
      "v": 60
    },
    {
      "midi": 64,
      "hit": false,
      "t": 74933.33333333337,
      "d": 133.33333333332848,
      "v": 54
    },
    {
      "midi": 62,
      "hit": false,
      "t": 74949.99999999999,
      "d": 273.3333333333285,
      "v": 62
    },
    {
      "midi": 37,
      "hit": false,
      "t": 74950.00000000004,
      "d": 216.66666666665697,
      "v": 62
    },
    {
      "midi": 61,
      "hit": false,
      "t": 75206.6666666667,
      "d": 143.33333333334303,
      "v": 60
    },
    {
      "midi": 64,
      "hit": false,
      "t": 75216.6666666667,
      "d": 150.00000000001455,
      "v": 56
    },
    {
      "midi": 69,
      "hit": false,
      "t": 75233.33333333337,
      "d": 116.66666666667152,
      "v": 52
    },
    {
      "midi": 40,
      "hit": false,
      "t": 75240.00000000004,
      "d": 693.333333333343,
      "v": 62
    },
    {
      "midi": 64,
      "hit": false,
      "t": 75273.33333333331,
      "d": 700,
      "v": 62
    },
    {
      "midi": 61,
      "hit": false,
      "t": 75466.66666666672,
      "d": 133.33333333332848,
      "v": 56
    },
    {
      "midi": 64,
      "hit": false,
      "t": 75466.66666666672,
      "d": 140,
      "v": 48
    },
    {
      "midi": 69,
      "hit": false,
      "t": 75490.00000000004,
      "d": 93.33333333332848,
      "v": 40
    },
    {
      "midi": 61,
      "hit": false,
      "t": 75733.33333333339,
      "d": 133.33333333332848,
      "v": 58
    },
    {
      "midi": 64,
      "hit": false,
      "t": 75733.33333333339,
      "d": 133.33333333332848,
      "v": 54
    },
    {
      "midi": 69,
      "hit": false,
      "t": 75750.00000000006,
      "d": 83.33333333332848,
      "v": 44
    },
    {
      "midi": 61,
      "hit": false,
      "t": 76006.66666666672,
      "d": 133.33333333334303,
      "v": 62
    },
    {
      "midi": 64,
      "hit": false,
      "t": 76006.66666666672,
      "d": 143.33333333334303,
      "v": 58
    },
    {
      "midi": 37,
      "hit": false,
      "t": 76006.66666666672,
      "d": 360,
      "v": 62
    },
    {
      "midi": 69,
      "hit": false,
      "t": 76023.33333333339,
      "d": 110,
      "v": 48
    },
    {
      "midi": 66,
      "hit": false,
      "t": 76039.99999999999,
      "d": 416.6666666666715,
      "v": 62
    },
    {
      "midi": 64,
      "hit": false,
      "t": 76273.33333333339,
      "d": 126.66666666665697,
      "v": 56
    },
    {
      "midi": 61,
      "hit": false,
      "t": 76283.33333333339,
      "d": 116.66666666665697,
      "v": 58
    },
    {
      "midi": 64,
      "hit": false,
      "t": 76539.99999999999,
      "d": 2033.3333333333285,
      "v": 62
    },
    {
      "midi": 61,
      "hit": false,
      "t": 76556.66666666672,
      "d": 126.66666666667152,
      "v": 60
    },
    {
      "midi": 64,
      "hit": false,
      "t": 76556.66666666672,
      "d": 133.33333333334303,
      "v": 52
    },
    {
      "midi": 40,
      "hit": false,
      "t": 76566.66666666672,
      "d": 190.00000000001455,
      "v": 62
    },
    {
      "midi": 69,
      "hit": false,
      "t": 76573.33333333339,
      "d": 93.33333333332848,
      "v": 46
    },
    {
      "midi": 61,
      "hit": false,
      "t": 76833.3333333334,
      "d": 133.33333333332848,
      "v": 60
    },
    {
      "midi": 64,
      "hit": false,
      "t": 76833.3333333334,
      "d": 140,
      "v": 54
    },
    {
      "midi": 69,
      "hit": false,
      "t": 76856.66666666673,
      "d": 100,
      "v": 46
    },
    {
      "midi": 33,
      "hit": false,
      "t": 76856.66666666673,
      "d": 1250.000000000029,
      "v": 62
    },
    {
      "midi": 64,
      "hit": false,
      "t": 77100.00000000007,
      "d": 133.33333333334303,
      "v": 52
    },
    {
      "midi": 61,
      "hit": false,
      "t": 77106.66666666674,
      "d": 110,
      "v": 58
    },
    {
      "midi": 61,
      "hit": false,
      "t": 77356.66666666674,
      "d": 116.66666666667152,
      "v": 60
    },
    {
      "midi": 64,
      "hit": false,
      "t": 77356.66666666674,
      "d": 133.33333333334303,
      "v": 52
    },
    {
      "midi": 64,
      "hit": false,
      "t": 77623.33333333342,
      "d": 143.33333333334303,
      "v": 56
    },
    {
      "midi": 45,
      "hit": false,
      "t": 77633.33333333342,
      "d": 100,
      "v": 62
    },
    {
      "midi": 61,
      "hit": false,
      "t": 77633.33333333342,
      "d": 116.66666666667152,
      "v": 60
    },
    {
      "midi": 69,
      "hit": false,
      "t": 77650.00000000009,
      "d": 90,
      "v": 50
    },
    {
      "midi": 61,
      "hit": false,
      "t": 77890.00000000009,
      "d": 126.66666666667152,
      "v": 58
    },
    {
      "midi": 64,
      "hit": false,
      "t": 77890.00000000009,
      "d": 133.33333333334303,
      "v": 52
    },
    {
      "midi": 37,
      "hit": false,
      "t": 78140.00000000009,
      "d": 210,
      "v": 62
    },
    {
      "midi": 61,
      "hit": false,
      "t": 78156.66666666676,
      "d": 133.33333333332848,
      "v": 62
    },
    {
      "midi": 64,
      "hit": false,
      "t": 78156.66666666676,
      "d": 143.33333333332848,
      "v": 54
    },
    {
      "midi": 69,
      "hit": false,
      "t": 78183.33333333343,
      "d": 83.33333333332848,
      "v": 48
    },
    {
      "midi": 61,
      "hit": false,
      "t": 78423.33333333342,
      "d": 133.33333333334303,
      "v": 60
    },
    {
      "midi": 64,
      "hit": false,
      "t": 78423.33333333342,
      "d": 150.00000000001455,
      "v": 56
    },
    {
      "midi": 40,
      "hit": false,
      "t": 78433.33333333342,
      "d": 750.0000000000437,
      "v": 62
    },
    {
      "midi": 69,
      "hit": false,
      "t": 78450.00000000009,
      "d": 100,
      "v": 50
    },
    {
      "midi": 61,
      "hit": false,
      "t": 78690.0000000001,
      "d": 126.66666666667152,
      "v": 62
    },
    {
      "midi": 64,
      "hit": false,
      "t": 78690.0000000001,
      "d": 143.33333333334303,
      "v": 58
    },
    {
      "midi": 69,
      "hit": false,
      "t": 78706.66666666677,
      "d": 93.33333333332848,
      "v": 54
    },
    {
      "midi": 61,
      "hit": false,
      "t": 78950.00000000012,
      "d": 140.00000000001455,
      "v": 60
    },
    {
      "midi": 64,
      "hit": false,
      "t": 78950.00000000012,
      "d": 150.00000000001455,
      "v": 56
    },
    {
      "midi": 69,
      "hit": false,
      "t": 78966.66666666679,
      "d": 106.66666666667152,
      "v": 52
    },
    {
      "midi": 37,
      "hit": false,
      "t": 79216.66666666679,
      "d": 566.6666666667006,
      "v": 62
    },
    {
      "midi": 61,
      "hit": false,
      "t": 79223.33333333346,
      "d": 143.33333333334303,
      "v": 58
    },
    {
      "midi": 64,
      "hit": false,
      "t": 79233.33333333346,
      "d": 133.33333333334303,
      "v": 58
    },
    {
      "midi": 69,
      "hit": false,
      "t": 79240.00000000013,
      "d": 126.66666666667152,
      "v": 50
    },
    {
      "midi": 61,
      "hit": false,
      "t": 79483.33333333347,
      "d": 123.33333333334303,
      "v": 60
    },
    {
      "midi": 64,
      "hit": false,
      "t": 79483.33333333347,
      "d": 140.00000000001455,
      "v": 56
    },
    {
      "midi": 69,
      "hit": false,
      "t": 79500.00000000015,
      "d": 100,
      "v": 52
    },
    {
      "midi": 69,
      "hit": false,
      "t": 79733.33333333349,
      "d": 100,
      "v": 58
    },
    {
      "midi": 61,
      "hit": false,
      "t": 79733.33333333349,
      "d": 140,
      "v": 62
    },
    {
      "midi": 64,
      "hit": false,
      "t": 79733.33333333349,
      "d": 150,
      "v": 56
    },
    {
      "midi": 40,
      "hit": false,
      "t": 79750.00000000016,
      "d": 150,
      "v": 62
    },
    {
      "midi": 64,
      "hit": false,
      "t": 80000.00000000016,
      "d": 166.66666666667152,
      "v": 54
    },
    {
      "midi": 68,
      "hit": false,
      "t": 80006.66666666683,
      "d": 126.66666666665697,
      "v": 62
    },
    {
      "midi": 61,
      "hit": false,
      "t": 80006.66666666683,
      "d": 150,
      "v": 60
    },
    {
      "midi": 37,
      "hit": false,
      "t": 80040.00000000016,
      "d": 1160.0000000000437,
      "v": 62
    },
    {
      "midi": 36,
      "hit": false,
      "t": 80073.33333333349,
      "d": 66.66666666667152,
      "v": 54
    },
    {
      "midi": 61,
      "hit": false,
      "t": 80283.3333333335,
      "d": 133.33333333334303,
      "v": 56
    },
    {
      "midi": 64,
      "hit": false,
      "t": 80283.3333333335,
      "d": 140.00000000001455,
      "v": 52
    },
    {
      "midi": 68,
      "hit": false,
      "t": 80290.00000000017,
      "d": 110,
      "v": 54
    },
    {
      "midi": 68,
      "hit": false,
      "t": 80499.99999999999,
      "d": 323.3333333333285,
      "v": 62
    },
    {
      "midi": 61,
      "hit": false,
      "t": 80533.33333333352,
      "d": 150,
      "v": 56
    },
    {
      "midi": 68,
      "hit": false,
      "t": 80540.00000000019,
      "d": 143.33333333332848,
      "v": 52
    },
    {
      "midi": 64,
      "hit": false,
      "t": 80540.00000000019,
      "d": 160,
      "v": 50
    },
    {
      "midi": 49,
      "hit": false,
      "t": 80800.00000000019,
      "d": 140,
      "v": 62
    },
    {
      "midi": 61,
      "hit": false,
      "t": 80816.66666666686,
      "d": 133.33333333332848,
      "v": 58
    },
    {
      "midi": 64,
      "hit": false,
      "t": 80816.66666666686,
      "d": 150,
      "v": 54
    },
    {
      "midi": 68,
      "hit": false,
      "t": 80816.66666666686,
      "d": 150,
      "v": 56
    },
    {
      "midi": 64,
      "hit": false,
      "t": 80839.99999999999,
      "d": 410,
      "v": 60
    },
    {
      "midi": 68,
      "hit": false,
      "t": 81083.33333333353,
      "d": 123.33333333334303,
      "v": 54
    },
    {
      "midi": 61,
      "hit": false,
      "t": 81083.33333333353,
      "d": 133.33333333334303,
      "v": 56
    },
    {
      "midi": 64,
      "hit": false,
      "t": 81083.33333333353,
      "d": 150.00000000001455,
      "v": 52
    },
    {
      "midi": 66,
      "hit": false,
      "t": 81283.33333333331,
      "d": 266.6666666666715,
      "v": 62
    },
    {
      "midi": 40,
      "hit": false,
      "t": 81323.33333333355,
      "d": 243.33333333334303,
      "v": 62
    },
    {
      "midi": 61,
      "hit": false,
      "t": 81333.33333333355,
      "d": 156.66666666667152,
      "v": 58
    },
    {
      "midi": 64,
      "hit": false,
      "t": 81333.33333333355,
      "d": 173.33333333334303,
      "v": 54
    },
    {
      "midi": 68,
      "hit": false,
      "t": 81340.00000000022,
      "d": 150,
      "v": 58
    },
    {
      "midi": 68,
      "hit": false,
      "t": 81599.99999999999,
      "d": 723.3333333333285,
      "v": 62
    },
    {
      "midi": 61,
      "hit": false,
      "t": 81606.66666666689,
      "d": 133.33333333334303,
      "v": 54
    },
    {
      "midi": 64,
      "hit": false,
      "t": 81606.66666666689,
      "d": 160.00000000001455,
      "v": 50
    },
    {
      "midi": 68,
      "hit": false,
      "t": 81633.33333333356,
      "d": 106.66666666667152,
      "v": 56
    },
    {
      "midi": 44,
      "hit": false,
      "t": 81633.33333333356,
      "d": 690,
      "v": 62
    },
    {
      "midi": 61,
      "hit": false,
      "t": 81873.33333333358,
      "d": 126.66666666667152,
      "v": 54
    },
    {
      "midi": 64,
      "hit": false,
      "t": 81873.33333333358,
      "d": 150,
      "v": 52
    },
    {
      "midi": 68,
      "hit": false,
      "t": 81883.33333333358,
      "d": 106.66666666667152,
      "v": 54
    },
    {
      "midi": 68,
      "hit": false,
      "t": 82133.33333333358,
      "d": 123.33333333332848,
      "v": 54
    },
    {
      "midi": 61,
      "hit": false,
      "t": 82133.33333333358,
      "d": 133.33333333332848,
      "v": 54
    },
    {
      "midi": 64,
      "hit": false,
      "t": 82133.33333333358,
      "d": 156.66666666665697,
      "v": 52
    },
    {
      "midi": 40,
      "hit": false,
      "t": 82340.00000000023,
      "d": 510.0000000000291,
      "v": 60
    },
    {
      "midi": 61,
      "hit": false,
      "t": 82400.00000000023,
      "d": 133.33333333334303,
      "v": 56
    },
    {
      "midi": 64,
      "hit": false,
      "t": 82400.00000000023,
      "d": 150.00000000001455,
      "v": 52
    },
    {
      "midi": 68,
      "hit": false,
      "t": 82406.6666666669,
      "d": 126.66666666667152,
      "v": 54
    },
    {
      "midi": 69,
      "hit": false,
      "t": 82423.33333333331,
      "d": 376.6666666666715,
      "v": 62
    },
    {
      "midi": 61,
      "hit": false,
      "t": 82666.66666666692,
      "d": 116.66666666667152,
      "v": 50
    },
    {
      "midi": 64,
      "hit": false,
      "t": 82673.33333333359,
      "d": 126.66666666667152,
      "v": 50
    },
    {
      "midi": 68,
      "hit": false,
      "t": 82683.33333333359,
      "d": 83.33333333332848,
      "v": 50
    },
    {
      "midi": 68,
      "hit": false,
      "t": 82899.99999999999,
      "d": 2473.3333333333285,
      "v": 62
    },
    {
      "midi": 61,
      "hit": false,
      "t": 82916.66666666693,
      "d": 116.66666666667152,
      "v": 56
    },
    {
      "midi": 64,
      "hit": false,
      "t": 82923.3333333336,
      "d": 126.66666666667152,
      "v": 54
    },
    {
      "midi": 68,
      "hit": false,
      "t": 82933.3333333336,
      "d": 116.66666666667152,
      "v": 58
    },
    {
      "midi": 44,
      "hit": false,
      "t": 82933.3333333336,
      "d": 266.6666666666715,
      "v": 62
    },
    {
      "midi": 63,
      "hit": false,
      "t": 83200.00000000028,
      "d": 133.33333333334303,
      "v": 62
    },
    {
      "midi": 68,
      "hit": false,
      "t": 83200.00000000028,
      "d": 140.00000000001455,
      "v": 62
    },
    {
      "midi": 60,
      "hit": false,
      "t": 83216.66666666695,
      "d": 190.00000000001455,
      "v": 52
    },
    {
      "midi": 32,
      "hit": false,
      "t": 83216.66666666695,
      "d": 1190.0000000000437,
      "v": 62
    },
    {
      "midi": 63,
      "hit": false,
      "t": 83466.66666666696,
      "d": 123.33333333334303,
      "v": 62
    },
    {
      "midi": 60,
      "hit": false,
      "t": 83466.66666666696,
      "d": 133.33333333334303,
      "v": 40
    },
    {
      "midi": 68,
      "hit": false,
      "t": 83473.33333333363,
      "d": 126.66666666667152,
      "v": 62
    },
    {
      "midi": 60,
      "hit": false,
      "t": 83706.66666666698,
      "d": 160,
      "v": 56
    },
    {
      "midi": 68,
      "hit": false,
      "t": 83716.66666666698,
      "d": 156.66666666667152,
      "v": 62
    },
    {
      "midi": 63,
      "hit": false,
      "t": 83723.33333333365,
      "d": 133.33333333332848,
      "v": 62
    },
    {
      "midi": 44,
      "hit": false,
      "t": 83973.33333333365,
      "d": 160,
      "v": 62
    },
    {
      "midi": 63,
      "hit": false,
      "t": 83990.00000000032,
      "d": 143.33333333332848,
      "v": 62
    },
    {
      "midi": 60,
      "hit": false,
      "t": 84000.00000000032,
      "d": 133.33333333332848,
      "v": 54
    },
    {
      "midi": 68,
      "hit": false,
      "t": 84000.00000000032,
      "d": 133.33333333332848,
      "v": 62
    },
    {
      "midi": 63,
      "hit": false,
      "t": 84266.66666666698,
      "d": 116.66666666667152,
      "v": 60
    },
    {
      "midi": 68,
      "hit": false,
      "t": 84266.66666666698,
      "d": 123.33333333334303,
      "v": 62
    },
    {
      "midi": 60,
      "hit": false,
      "t": 84273.33333333365,
      "d": 93.33333333332848,
      "v": 46
    },
    {
      "midi": 63,
      "hit": false,
      "t": 84506.66666666699,
      "d": 150.00000000001455,
      "v": 62
    },
    {
      "midi": 36,
      "hit": false,
      "t": 84506.66666666699,
      "d": 193.33333333334303,
      "v": 62
    },
    {
      "midi": 60,
      "hit": false,
      "t": 84523.33333333366,
      "d": 126.66666666667152,
      "v": 52
    },
    {
      "midi": 68,
      "hit": false,
      "t": 84523.33333333366,
      "d": 133.33333333334303,
      "v": 62
    },
    {
      "midi": 60,
      "hit": false,
      "t": 84783.33333333366,
      "d": 140,
      "v": 54
    },
    {
      "midi": 63,
      "hit": false,
      "t": 84783.33333333366,
      "d": 140,
      "v": 62
    },
    {
      "midi": 68,
      "hit": false,
      "t": 84783.33333333366,
      "d": 150,
      "v": 62
    },
    {
      "midi": 39,
      "hit": false,
      "t": 84800.00000000033,
      "d": 700.0000000000146,
      "v": 62
    },
    {
      "midi": 60,
      "hit": false,
      "t": 85050.00000000033,
      "d": 116.66666666667152,
      "v": 54
    },
    {
      "midi": 63,
      "hit": false,
      "t": 85050.00000000033,
      "d": 116.66666666667152,
      "v": 60
    },
    {
      "midi": 68,
      "hit": false,
      "t": 85056.666666667,
      "d": 126.66666666667152,
      "v": 62
    },
    {
      "midi": 60,
      "hit": false,
      "t": 85306.666666667,
      "d": 126.66666666667152,
      "v": 54
    },
    {
      "midi": 63,
      "hit": false,
      "t": 85316.666666667,
      "d": 116.66666666667152,
      "v": 62
    },
    {
      "midi": 68,
      "hit": false,
      "t": 85323.33333333368,
      "d": 126.66666666667152,
      "v": 62
    },
    {
      "midi": 36,
      "hit": false,
      "t": 85540.00000000035,
      "d": 533.3333333333285,
      "v": 62
    },
    {
      "midi": 60,
      "hit": false,
      "t": 85573.33333333368,
      "d": 133.33333333332848,
      "v": 54
    },
    {
      "midi": 63,
      "hit": false,
      "t": 85573.33333333368,
      "d": 133.33333333332848,
      "v": 62
    },
    {
      "midi": 68,
      "hit": false,
      "t": 85573.33333333368,
      "d": 143.33333333332848,
      "v": 62
    },
    {
      "midi": 60,
      "hit": false,
      "t": 85840.00000000033,
      "d": 126.66666666667152,
      "v": 52
    },
    {
      "midi": 63,
      "hit": false,
      "t": 85840.00000000033,
      "d": 126.66666666667152,
      "v": 60
    },
    {
      "midi": 68,
      "hit": false,
      "t": 85840.00000000033,
      "d": 126.66666666667152,
      "v": 62
    },
    {
      "midi": 63,
      "hit": false,
      "t": 86100.00000000035,
      "d": 133.33333333334303,
      "v": 62
    },
    {
      "midi": 68,
      "hit": false,
      "t": 86100.00000000035,
      "d": 150.00000000001455,
      "v": 62
    },
    {
      "midi": 60,
      "hit": false,
      "t": 86100.00000000035,
      "d": 156.66666666668607,
      "v": 54
    },
    {
      "midi": 39,
      "hit": false,
      "t": 86116.66666666702,
      "d": 150.00000000001455,
      "v": 62
    },
    {
      "midi": 61,
      "hit": false,
      "t": 86400.00000000036,
      "d": 133.33333333334303,
      "v": 58
    },
    {
      "midi": 68,
      "hit": false,
      "t": 86400.00000000036,
      "d": 150.00000000001455,
      "v": 56
    },
    {
      "midi": 64,
      "hit": false,
      "t": 86406.66666666704,
      "d": 150.00000000001455,
      "v": 56
    },
    {
      "midi": 37,
      "hit": false,
      "t": 86433.3333333337,
      "d": 1233.3333333333867,
      "v": 62
    },
    {
      "midi": 61,
      "hit": false,
      "t": 86666.66666666705,
      "d": 106.66666666667152,
      "v": 56
    },
    {
      "midi": 64,
      "hit": false,
      "t": 86666.66666666705,
      "d": 133.33333333334303,
      "v": 48
    },
    {
      "midi": 68,
      "hit": false,
      "t": 86666.66666666705,
      "d": 133.33333333334303,
      "v": 52
    },
    {
      "midi": 68,
      "hit": false,
      "t": 86889.99999999999,
      "d": 276.6666666666715,
      "v": 62
    },
    {
      "midi": 64,
      "hit": false,
      "t": 86916.66666666706,
      "d": 156.66666666667152,
      "v": 50
    },
    {
      "midi": 68,
      "hit": false,
      "t": 86916.66666666706,
      "d": 156.66666666667152,
      "v": 54
    },
    {
      "midi": 61,
      "hit": false,
      "t": 86923.33333333374,
      "d": 126.66666666667152,
      "v": 56
    },
    {
      "midi": 49,
      "hit": false,
      "t": 87183.33333333374,
      "d": 166.66666666667152,
      "v": 62
    },
    {
      "midi": 64,
      "hit": false,
      "t": 87199.99999999999,
      "d": 456.6666666666715,
      "v": 62
    },
    {
      "midi": 61,
      "hit": false,
      "t": 87200.00000000041,
      "d": 133.33333333332848,
      "v": 58
    },
    {
      "midi": 68,
      "hit": false,
      "t": 87200.00000000041,
      "d": 150,
      "v": 58
    },
    {
      "midi": 64,
      "hit": false,
      "t": 87200.00000000041,
      "d": 156.66666666667152,
      "v": 52
    },
    {
      "midi": 61,
      "hit": false,
      "t": 87466.66666666708,
      "d": 116.66666666667152,
      "v": 56
    },
    {
      "midi": 68,
      "hit": false,
      "t": 87466.66666666708,
      "d": 133.33333333334303,
      "v": 58
    },
    {
      "midi": 64,
      "hit": false,
      "t": 87466.66666666708,
      "d": 140.00000000001455,
      "v": 52
    },
    {
      "midi": 66,
      "hit": false,
      "t": 87716.66666666666,
      "d": 290,
      "v": 62
    },
    {
      "midi": 61,
      "hit": false,
      "t": 87723.33333333377,
      "d": 143.33333333332848,
      "v": 58
    },
    {
      "midi": 68,
      "hit": false,
      "t": 87723.33333333377,
      "d": 143.33333333332848,
      "v": 58
    },
    {
      "midi": 64,
      "hit": false,
      "t": 87723.33333333377,
      "d": 166.66666666665697,
      "v": 56
    },
    {
      "midi": 40,
      "hit": false,
      "t": 87723.33333333377,
      "d": 233.33333333332848,
      "v": 62
    },
    {
      "midi": 61,
      "hit": false,
      "t": 88000.00000000042,
      "d": 133.33333333334303,
      "v": 56
    },
    {
      "midi": 64,
      "hit": false,
      "t": 88006.6666666671,
      "d": 143.33333333334303,
      "v": 52
    },
    {
      "midi": 68,
      "hit": false,
      "t": 88006.6666666671,
      "d": 143.33333333334303,
      "v": 54
    },
    {
      "midi": 44,
      "hit": false,
      "t": 88023.33333333377,
      "d": 733.3333333333576,
      "v": 62
    },
    {
      "midi": 68,
      "hit": false,
      "t": 88033.33333333333,
      "d": 773.3333333333285,
      "v": 62
    },
    {
      "midi": 61,
      "hit": false,
      "t": 88266.66666666711,
      "d": 123.33333333332848,
      "v": 56
    },
    {
      "midi": 68,
      "hit": false,
      "t": 88266.66666666711,
      "d": 133.33333333332848,
      "v": 58
    },
    {
      "midi": 64,
      "hit": false,
      "t": 88266.66666666711,
      "d": 140,
      "v": 54
    },
    {
      "midi": 61,
      "hit": false,
      "t": 88523.33333333378,
      "d": 126.66666666667152,
      "v": 56
    },
    {
      "midi": 64,
      "hit": false,
      "t": 88523.33333333378,
      "d": 143.33333333334303,
      "v": 56
    },
    {
      "midi": 68,
      "hit": false,
      "t": 88523.33333333378,
      "d": 143.33333333334303,
      "v": 56
    },
    {
      "midi": 68,
      "hit": false,
      "t": 88783.3333333338,
      "d": 150.00000000001455,
      "v": 62
    },
    {
      "midi": 64,
      "hit": false,
      "t": 88783.3333333338,
      "d": 156.66666666668607,
      "v": 58
    },
    {
      "midi": 61,
      "hit": false,
      "t": 88790.00000000047,
      "d": 143.33333333334303,
      "v": 60
    },
    {
      "midi": 37,
      "hit": false,
      "t": 88806.66666666714,
      "d": 526.6666666666861,
      "v": 62
    },
    {
      "midi": 64,
      "hit": false,
      "t": 88866.66666666666,
      "d": 433.3333333333285,
      "v": 62
    },
    {
      "midi": 61,
      "hit": false,
      "t": 89056.66666666715,
      "d": 133.33333333332848,
      "v": 60
    },
    {
      "midi": 68,
      "hit": false,
      "t": 89056.66666666715,
      "d": 133.33333333332848,
      "v": 60
    },
    {
      "midi": 64,
      "hit": false,
      "t": 89056.66666666715,
      "d": 150,
      "v": 56
    },
    {
      "midi": 44,
      "hit": false,
      "t": 89306.66666666715,
      "d": 160,
      "v": 62
    },
    {
      "midi": 68,
      "hit": false,
      "t": 89323.33333333382,
      "d": 143.33333333332848,
      "v": 62
    },
    {
      "midi": 61,
      "hit": false,
      "t": 89323.33333333382,
      "d": 160,
      "v": 62
    },
    {
      "midi": 64,
      "hit": false,
      "t": 89323.33333333382,
      "d": 160,
      "v": 60
    },
    {
      "midi": 62,
      "hit": false,
      "t": 89366.66666666666,
      "d": 950,
      "v": 62
    },
    {
      "midi": 68,
      "hit": false,
      "t": 89616.66666666715,
      "d": 183.33333333334303,
      "v": 62
    },
    {
      "midi": 62,
      "hit": false,
      "t": 89616.66666666715,
      "d": 190.00000000001455,
      "v": 62
    },
    {
      "midi": 64,
      "hit": false,
      "t": 89616.66666666715,
      "d": 200.00000000001455,
      "v": 62
    },
    {
      "midi": 40,
      "hit": false,
      "t": 89633.33333333382,
      "d": 250.00000000001455,
      "v": 62
    },
    {
      "midi": 69,
      "hit": false,
      "t": 92773.33333333384,
      "d": 116.66666666667152,
      "v": 62
    },
    {
      "midi": 62,
      "hit": false,
      "t": 92773.33333333384,
      "d": 133.33333333334303,
      "v": 62
    },
    {
      "midi": 66,
      "hit": false,
      "t": 92773.33333333384,
      "d": 133.33333333334303,
      "v": 62
    },
    {
      "midi": 38,
      "hit": false,
      "t": 92773.33333333384,
      "d": 1176.6666666667006,
      "v": 62
    },
    {
      "midi": 66,
      "hit": false,
      "t": 93023.33333333385,
      "d": 143.33333333334303,
      "v": 56
    },
    {
      "midi": 62,
      "hit": false,
      "t": 93040.00000000052,
      "d": 110,
      "v": 50
    },
    {
      "midi": 69,
      "hit": false,
      "t": 93050.00000000052,
      "d": 66.66666666667152,
      "v": 46
    },
    {
      "midi": 66,
      "hit": false,
      "t": 93283.33333333387,
      "d": 133.33333333334303,
      "v": 56
    },
    {
      "midi": 62,
      "hit": false,
      "t": 93290.00000000054,
      "d": 116.66666666667152,
      "v": 52
    },
    {
      "midi": 69,
      "hit": false,
      "t": 93306.66666666721,
      "d": 66.66666666667152,
      "v": 46
    },
    {
      "midi": 50,
      "hit": false,
      "t": 93556.66666666721,
      "d": 66.66666666667152,
      "v": 62
    },
    {
      "midi": 66,
      "hit": false,
      "t": 93556.66666666721,
      "d": 143.33333333332848,
      "v": 54
    },
    {
      "midi": 62,
      "hit": false,
      "t": 93566.66666666721,
      "d": 133.33333333332848,
      "v": 52
    },
    {
      "midi": 69,
      "hit": false,
      "t": 93573.33333333388,
      "d": 93.33333333332848,
      "v": 48
    },
    {
      "midi": 62,
      "hit": false,
      "t": 93833.33333333387,
      "d": 100,
      "v": 46
    },
    {
      "midi": 66,
      "hit": false,
      "t": 93833.33333333387,
      "d": 100,
      "v": 50
    },
    {
      "midi": 62,
      "hit": false,
      "t": 94100.00000000054,
      "d": 123.33333333332848,
      "v": 50
    },
    {
      "midi": 66,
      "hit": false,
      "t": 94100.00000000054,
      "d": 133.33333333332848,
      "v": 56
    },
    {
      "midi": 42,
      "hit": false,
      "t": 94100.00000000054,
      "d": 233.33333333332848,
      "v": 62
    },
    {
      "midi": 69,
      "hit": false,
      "t": 94123.33333333387,
      "d": 76.66666666667152,
      "v": 46
    },
    {
      "midi": 66,
      "hit": false,
      "t": 94356.6666666672,
      "d": 150.00000000001455,
      "v": 58
    },
    {
      "midi": 62,
      "hit": false,
      "t": 94366.6666666672,
      "d": 133.33333333334303,
      "v": 48
    },
    {
      "midi": 69,
      "hit": false,
      "t": 94383.33333333387,
      "d": 106.66666666667152,
      "v": 48
    },
    {
      "midi": 45,
      "hit": false,
      "t": 94383.33333333387,
      "d": 716.6666666666861,
      "v": 62
    },
    {
      "midi": 62,
      "hit": false,
      "t": 94633.33333333388,
      "d": 116.66666666667152,
      "v": 48
    },
    {
      "midi": 66,
      "hit": false,
      "t": 94633.33333333388,
      "d": 133.33333333334303,
      "v": 56
    },
    {
      "midi": 62,
      "hit": false,
      "t": 94900.00000000055,
      "d": 133.33333333332848,
      "v": 50
    },
    {
      "midi": 66,
      "hit": false,
      "t": 94900.00000000055,
      "d": 140,
      "v": 56
    },
    {
      "midi": 69,
      "hit": false,
      "t": 94923.33333333388,
      "d": 100,
      "v": 46
    },
    {
      "midi": 42,
      "hit": false,
      "t": 95166.66666666722,
      "d": 256.66666666668607,
      "v": 62
    },
    {
      "midi": 62,
      "hit": false,
      "t": 95173.3333333339,
      "d": 133.33333333334303,
      "v": 54
    },
    {
      "midi": 66,
      "hit": false,
      "t": 95173.3333333339,
      "d": 143.33333333334303,
      "v": 58
    },
    {
      "midi": 69,
      "hit": false,
      "t": 95190.00000000057,
      "d": 110,
      "v": 52
    },
    {
      "midi": 66,
      "hit": false,
      "t": 95440.00000000058,
      "d": 126.66666666665697,
      "v": 56
    },
    {
      "midi": 62,
      "hit": false,
      "t": 95450.00000000058,
      "d": 116.66666666665697,
      "v": 48
    },
    {
      "midi": 69,
      "hit": false,
      "t": 95473.33333333391,
      "d": 50,
      "v": 38
    },
    {
      "midi": 45,
      "hit": false,
      "t": 95700.00000000057,
      "d": 200.00000000001455,
      "v": 62
    },
    {
      "midi": 62,
      "hit": false,
      "t": 95706.66666666724,
      "d": 116.66666666667152,
      "v": 54
    },
    {
      "midi": 66,
      "hit": false,
      "t": 95716.66666666724,
      "d": 106.66666666667152,
      "v": 54
    },
    {
      "midi": 69,
      "hit": false,
      "t": 95733.33333333391,
      "d": 66.66666666667152,
      "v": 48
    },
    {
      "midi": 66,
      "hit": false,
      "t": 95956.66666666725,
      "d": 160.00000000001455,
      "v": 58
    },
    {
      "midi": 62,
      "hit": false,
      "t": 95966.66666666725,
      "d": 133.33333333334303,
      "v": 52
    },
    {
      "midi": 69,
      "hit": false,
      "t": 95983.33333333393,
      "d": 116.66666666667152,
      "v": 48
    },
    {
      "midi": 38,
      "hit": false,
      "t": 95983.33333333393,
      "d": 1266.666666666686,
      "v": 62
    },
    {
      "midi": 66,
      "hit": false,
      "t": 96233.33333333394,
      "d": 133.33333333334303,
      "v": 58
    },
    {
      "midi": 62,
      "hit": false,
      "t": 96240.00000000061,
      "d": 126.66666666667152,
      "v": 50
    },
    {
      "midi": 69,
      "hit": false,
      "t": 96266.66666666728,
      "d": 73.33333333332848,
      "v": 42
    },
    {
      "midi": 62,
      "hit": false,
      "t": 96500.00000000061,
      "d": 123.33333333332848,
      "v": 52
    },
    {
      "midi": 66,
      "hit": false,
      "t": 96500.00000000061,
      "d": 123.33333333332848,
      "v": 58
    },
    {
      "midi": 69,
      "hit": false,
      "t": 96516.66666666728,
      "d": 83.33333333332848,
      "v": 46
    },
    {
      "midi": 50,
      "hit": false,
      "t": 96766.66666666727,
      "d": 83.33333333334303,
      "v": 62
    },
    {
      "midi": 62,
      "hit": false,
      "t": 96766.66666666727,
      "d": 133.33333333334303,
      "v": 56
    },
    {
      "midi": 66,
      "hit": false,
      "t": 96766.66666666727,
      "d": 133.33333333334303,
      "v": 60
    },
    {
      "midi": 69,
      "hit": false,
      "t": 96783.33333333394,
      "d": 116.66666666667152,
      "v": 54
    },
    {
      "midi": 62,
      "hit": false,
      "t": 97033.33333333394,
      "d": 116.66666666667152,
      "v": 50
    },
    {
      "midi": 66,
      "hit": false,
      "t": 97033.33333333394,
      "d": 116.66666666667152,
      "v": 56
    },
    {
      "midi": 69,
      "hit": false,
      "t": 97066.66666666727,
      "d": 56.66666666667152,
      "v": 44
    },
    {
      "midi": 62,
      "hit": false,
      "t": 97290.00000000061,
      "d": 133.33333333334303,
      "v": 54
    },
    {
      "midi": 66,
      "hit": false,
      "t": 97290.00000000061,
      "d": 143.33333333334303,
      "v": 58
    },
    {
      "midi": 69,
      "hit": false,
      "t": 97306.66666666728,
      "d": 110,
      "v": 48
    },
    {
      "midi": 42,
      "hit": false,
      "t": 97306.66666666728,
      "d": 216.66666666667152,
      "v": 62
    },
    {
      "midi": 62,
      "hit": false,
      "t": 97573.33333333395,
      "d": 150,
      "v": 58
    },
    {
      "midi": 66,
      "hit": false,
      "t": 97573.33333333395,
      "d": 160,
      "v": 60
    },
    {
      "midi": 69,
      "hit": false,
      "t": 97590.00000000063,
      "d": 133.33333333332848,
      "v": 54
    },
    {
      "midi": 45,
      "hit": false,
      "t": 97600.00000000063,
      "d": 766.6666666666715,
      "v": 62
    },
    {
      "midi": 66,
      "hit": false,
      "t": 97856.66666666728,
      "d": 116.66666666667152,
      "v": 60
    },
    {
      "midi": 69,
      "hit": false,
      "t": 97866.66666666728,
      "d": 83.33333333332848,
      "v": 46
    },
    {
      "midi": 62,
      "hit": false,
      "t": 97866.66666666728,
      "d": 100,
      "v": 54
    },
    {
      "midi": 62,
      "hit": false,
      "t": 98116.66666666728,
      "d": 133.33333333334303,
      "v": 56
    },
    {
      "midi": 66,
      "hit": false,
      "t": 98116.66666666728,
      "d": 133.33333333334303,
      "v": 58
    },
    {
      "midi": 69,
      "hit": false,
      "t": 98133.33333333395,
      "d": 100,
      "v": 50
    },
    {
      "midi": 69,
      "hit": false,
      "t": 98400.00000000063,
      "d": 116.66666666667152,
      "v": 54
    },
    {
      "midi": 62,
      "hit": false,
      "t": 98400.00000000063,
      "d": 123.33333333334303,
      "v": 58
    },
    {
      "midi": 66,
      "hit": false,
      "t": 98400.00000000063,
      "d": 133.33333333334303,
      "v": 60
    },
    {
      "midi": 42,
      "hit": false,
      "t": 98416.6666666673,
      "d": 450,
      "v": 62
    },
    {
      "midi": 62,
      "hit": false,
      "t": 98666.6666666673,
      "d": 116.66666666667152,
      "v": 56
    },
    {
      "midi": 66,
      "hit": false,
      "t": 98666.6666666673,
      "d": 116.66666666667152,
      "v": 58
    },
    {
      "midi": 69,
      "hit": false,
      "t": 98683.33333333397,
      "d": 66.66666666667152,
      "v": 46
    },
    {
      "midi": 45,
      "hit": false,
      "t": 98900.00000000063,
      "d": 256.6666666666715,
      "v": 62
    },
    {
      "midi": 66,
      "hit": false,
      "t": 98906.6666666673,
      "d": 166.66666666667152,
      "v": 62
    },
    {
      "midi": 62,
      "hit": false,
      "t": 98923.33333333397,
      "d": 116.66666666667152,
      "v": 60
    },
    {
      "midi": 69,
      "hit": false,
      "t": 98933.33333333397,
      "d": 100,
      "v": 52
    },
    {
      "midi": 61,
      "hit": false,
      "t": 99206.6666666673,
      "d": 143.33333333334303,
      "v": 62
    },
    {
      "midi": 64,
      "hit": false,
      "t": 99206.6666666673,
      "d": 160.00000000001455,
      "v": 56
    },
    {
      "midi": 69,
      "hit": false,
      "t": 99223.33333333397,
      "d": 143.33333333334303,
      "v": 50
    },
    {
      "midi": 33,
      "hit": false,
      "t": 99223.33333333397,
      "d": 1160.0000000000437,
      "v": 62
    },
    {
      "midi": 64,
      "hit": false,
      "t": 99473.33333333398,
      "d": 143.33333333334303,
      "v": 46
    },
    {
      "midi": 61,
      "hit": false,
      "t": 99490.00000000065,
      "d": 110,
      "v": 56
    },
    {
      "midi": 69,
      "hit": false,
      "t": 99490.00000000065,
      "d": 110,
      "v": 38
    },
    {
      "midi": 64,
      "hit": false,
      "t": 99733.333333334,
      "d": 140.00000000001455,
      "v": 54
    },
    {
      "midi": 61,
      "hit": false,
      "t": 99740.00000000067,
      "d": 126.66666666667152,
      "v": 60
    },
    {
      "midi": 69,
      "hit": false,
      "t": 99756.66666666734,
      "d": 110,
      "v": 46
    },
    {
      "midi": 45,
      "hit": false,
      "t": 100016.66666666734,
      "d": 116.66666666667152,
      "v": 62
    },
    {
      "midi": 61,
      "hit": false,
      "t": 100016.66666666734,
      "d": 133.33333333334303,
      "v": 60
    },
    {
      "midi": 64,
      "hit": false,
      "t": 100016.66666666734,
      "d": 140.00000000001455,
      "v": 54
    },
    {
      "midi": 69,
      "hit": false,
      "t": 100033.33333333401,
      "d": 116.66666666667152,
      "v": 44
    },
    {
      "midi": 61,
      "hit": false,
      "t": 100300.00000000068,
      "d": 100,
      "v": 56
    },
    {
      "midi": 64,
      "hit": false,
      "t": 100300.00000000068,
      "d": 106.66666666667152,
      "v": 50
    },
    {
      "midi": 61,
      "hit": false,
      "t": 100533.33333333403,
      "d": 140,
      "v": 58
    },
    {
      "midi": 37,
      "hit": false,
      "t": 100533.33333333403,
      "d": 216.66666666667152,
      "v": 62
    },
    {
      "midi": 64,
      "hit": false,
      "t": 100540.0000000007,
      "d": 143.33333333332848,
      "v": 50
    },
    {
      "midi": 61,
      "hit": false,
      "t": 100800.0000000007,
      "d": 133.33333333332848,
      "v": 58
    },
    {
      "midi": 64,
      "hit": false,
      "t": 100800.0000000007,
      "d": 150,
      "v": 54
    },
    {
      "midi": 69,
      "hit": false,
      "t": 100823.33333333403,
      "d": 93.33333333332848,
      "v": 44
    },
    {
      "midi": 40,
      "hit": false,
      "t": 100823.33333333403,
      "d": 683.333333333343,
      "v": 62
    },
    {
      "midi": 61,
      "hit": false,
      "t": 101073.33333333403,
      "d": 126.66666666667152,
      "v": 56
    },
    {
      "midi": 64,
      "hit": false,
      "t": 101073.33333333403,
      "d": 133.33333333334303,
      "v": 52
    },
    {
      "midi": 61,
      "hit": false,
      "t": 101333.33333333404,
      "d": 133.33333333332848,
      "v": 58
    },
    {
      "midi": 64,
      "hit": false,
      "t": 101333.33333333404,
      "d": 133.33333333332848,
      "v": 54
    },
    {
      "midi": 69,
      "hit": false,
      "t": 101356.66666666737,
      "d": 100,
      "v": 40
    },
    {
      "midi": 37,
      "hit": false,
      "t": 101590.0000000007,
      "d": 316.6666666666715,
      "v": 62
    },
    {
      "midi": 61,
      "hit": false,
      "t": 101600.0000000007,
      "d": 133.33333333334303,
      "v": 58
    },
    {
      "midi": 64,
      "hit": false,
      "t": 101606.66666666737,
      "d": 150,
      "v": 52
    },
    {
      "midi": 69,
      "hit": false,
      "t": 101616.66666666737,
      "d": 106.66666666667152,
      "v": 48
    },
    {
      "midi": 69,
      "hit": false,
      "t": 101873.33333333404,
      "d": 110,
      "v": 44
    },
    {
      "midi": 61,
      "hit": false,
      "t": 101873.33333333404,
      "d": 116.66666666667152,
      "v": 56
    },
    {
      "midi": 64,
      "hit": false,
      "t": 101873.33333333404,
      "d": 126.66666666667152,
      "v": 48
    },
    {
      "midi": 40,
      "hit": false,
      "t": 102100.00000000071,
      "d": 173.33333333334303,
      "v": 62
    },
    {
      "midi": 69,
      "hit": false,
      "t": 102133.33333333404,
      "d": 116.66666666667152,
      "v": 52
    },
    {
      "midi": 61,
      "hit": false,
      "t": 102133.33333333404,
      "d": 133.33333333334303,
      "v": 58
    },
    {
      "midi": 64,
      "hit": false,
      "t": 102133.33333333404,
      "d": 133.33333333334303,
      "v": 54
    },
    {
      "midi": 61,
      "hit": false,
      "t": 102400.00000000073,
      "d": 140,
      "v": 58
    },
    {
      "midi": 64,
      "hit": false,
      "t": 102400.00000000073,
      "d": 156.66666666667152,
      "v": 54
    },
    {
      "midi": 69,
      "hit": false,
      "t": 102400.00000000073,
      "d": 156.66666666667152,
      "v": 48
    },
    {
      "midi": 33,
      "hit": false,
      "t": 102433.33333333406,
      "d": 1250.000000000029,
      "v": 62
    },
    {
      "midi": 64,
      "hit": false,
      "t": 102666.6666666674,
      "d": 140.00000000001455,
      "v": 52
    },
    {
      "midi": 69,
      "hit": false,
      "t": 102666.6666666674,
      "d": 140.00000000001455,
      "v": 42
    },
    {
      "midi": 61,
      "hit": false,
      "t": 102673.33333333407,
      "d": 126.66666666667152,
      "v": 58
    },
    {
      "midi": 61,
      "hit": false,
      "t": 102923.33333333409,
      "d": 133.33333333332848,
      "v": 60
    },
    {
      "midi": 64,
      "hit": false,
      "t": 102923.33333333409,
      "d": 143.33333333332848,
      "v": 54
    },
    {
      "midi": 69,
      "hit": false,
      "t": 102933.33333333409,
      "d": 123.33333333332848,
      "v": 46
    },
    {
      "midi": 61,
      "hit": false,
      "t": 103200.00000000074,
      "d": 133.33333333332848,
      "v": 62
    },
    {
      "midi": 69,
      "hit": false,
      "t": 103200.00000000074,
      "d": 133.33333333332848,
      "v": 50
    },
    {
      "midi": 64,
      "hit": false,
      "t": 103200.00000000074,
      "d": 150,
      "v": 56
    },
    {
      "midi": 45,
      "hit": false,
      "t": 103206.66666666741,
      "d": 93.33333333332848,
      "v": 62
    },
    {
      "midi": 61,
      "hit": false,
      "t": 103473.33333333407,
      "d": 126.66666666667152,
      "v": 60
    },
    {
      "midi": 64,
      "hit": false,
      "t": 103473.33333333407,
      "d": 143.33333333334303,
      "v": 54
    },
    {
      "midi": 69,
      "hit": false,
      "t": 103483.33333333407,
      "d": 116.66666666667152,
      "v": 44
    },
    {
      "midi": 61,
      "hit": false,
      "t": 103740.00000000076,
      "d": 133.33333333334303,
      "v": 60
    },
    {
      "midi": 64,
      "hit": false,
      "t": 103740.00000000076,
      "d": 160.00000000001455,
      "v": 54
    },
    {
      "midi": 69,
      "hit": false,
      "t": 103766.66666666743,
      "d": 90,
      "v": 44
    },
    {
      "midi": 37,
      "hit": false,
      "t": 103766.66666666743,
      "d": 200.00000000001455,
      "v": 62
    },
    {
      "midi": 61,
      "hit": false,
      "t": 104006.66666666744,
      "d": 143.33333333332848,
      "v": 60
    },
    {
      "midi": 69,
      "hit": false,
      "t": 104006.66666666744,
      "d": 143.33333333332848,
      "v": 50
    },
    {
      "midi": 64,
      "hit": false,
      "t": 104006.66666666744,
      "d": 160,
      "v": 56
    },
    {
      "midi": 40,
      "hit": false,
      "t": 104056.66666666744,
      "d": 626.6666666666861,
      "v": 62
    },
    {
      "midi": 61,
      "hit": false,
      "t": 104273.33333333411,
      "d": 126.66666666667152,
      "v": 58
    },
    {
      "midi": 64,
      "hit": false,
      "t": 104273.33333333411,
      "d": 143.33333333334303,
      "v": 54
    },
    {
      "midi": 69,
      "hit": false,
      "t": 104300.00000000079,
      "d": 66.66666666667152,
      "v": 42
    },
    {
      "midi": 64,
      "hit": false,
      "t": 104523.33333333413,
      "d": 143.33333333332848,
      "v": 56
    },
    {
      "midi": 61,
      "hit": false,
      "t": 104533.33333333413,
      "d": 133.33333333332848,
      "v": 60
    },
    {
      "midi": 69,
      "hit": false,
      "t": 104540.0000000008,
      "d": 93.33333333332848,
      "v": 48
    },
    {
      "midi": 37,
      "hit": false,
      "t": 104773.33333333413,
      "d": 493.33333333337214,
      "v": 62
    },
    {
      "midi": 61,
      "hit": false,
      "t": 104790.0000000008,
      "d": 126.66666666667152,
      "v": 62
    },
    {
      "midi": 64,
      "hit": false,
      "t": 104790.0000000008,
      "d": 143.33333333334303,
      "v": 56
    },
    {
      "midi": 69,
      "hit": false,
      "t": 104800.0000000008,
      "d": 116.66666666667152,
      "v": 50
    },
    {
      "midi": 64,
      "hit": false,
      "t": 105040.00000000081,
      "d": 160.00000000001455,
      "v": 56
    },
    {
      "midi": 61,
      "hit": false,
      "t": 105050.00000000081,
      "d": 123.33333333334303,
      "v": 62
    },
    {
      "midi": 69,
      "hit": false,
      "t": 105066.66666666749,
      "d": 90,
      "v": 46
    },
    {
      "midi": 64,
      "hit": false,
      "t": 105300.00000000083,
      "d": 156.66666666667152,
      "v": 52
    },
    {
      "midi": 69,
      "hit": false,
      "t": 105306.6666666675,
      "d": 116.66666666667152,
      "v": 54
    },
    {
      "midi": 61,
      "hit": false,
      "t": 105306.6666666675,
      "d": 150,
      "v": 60
    },
    {
      "midi": 40,
      "hit": false,
      "t": 105323.33333333417,
      "d": 110,
      "v": 60
    },
    {
      "midi": 64,
      "hit": false,
      "t": 105590.00000000083,
      "d": 160.00000000001455,
      "v": 58
    },
    {
      "midi": 62,
      "hit": false,
      "t": 105600.00000000083,
      "d": 133.33333333334303,
      "v": 60
    },
    {
      "midi": 68,
      "hit": false,
      "t": 105606.6666666675,
      "d": 110,
      "v": 62
    },
    {
      "midi": 40,
      "hit": false,
      "t": 105616.6666666675,
      "d": 1206.6666666667006,
      "v": 62
    },
    {
      "midi": 62,
      "hit": false,
      "t": 105866.66666666752,
      "d": 123.33333333334303,
      "v": 54
    },
    {
      "midi": 64,
      "hit": false,
      "t": 105866.66666666752,
      "d": 133.33333333334303,
      "v": 52
    },
    {
      "midi": 68,
      "hit": false,
      "t": 105883.33333333419,
      "d": 100,
      "v": 54
    },
    {
      "midi": 68,
      "hit": false,
      "t": 106123.33333333419,
      "d": 126.66666666667152,
      "v": 56
    },
    {
      "midi": 62,
      "hit": false,
      "t": 106123.33333333419,
      "d": 133.33333333334303,
      "v": 56
    },
    {
      "midi": 64,
      "hit": false,
      "t": 106123.33333333419,
      "d": 143.33333333334303,
      "v": 52
    },
    {
      "midi": 62,
      "hit": false,
      "t": 106406.66666666753,
      "d": 133.33333333334303,
      "v": 56
    },
    {
      "midi": 68,
      "hit": false,
      "t": 106406.66666666753,
      "d": 133.33333333334303,
      "v": 58
    },
    {
      "midi": 64,
      "hit": false,
      "t": 106406.66666666753,
      "d": 150.00000000001455,
      "v": 54
    },
    {
      "midi": 52,
      "hit": false,
      "t": 106456.66666666753,
      "d": 76.66666666667152,
      "v": 62
    },
    {
      "midi": 64,
      "hit": false,
      "t": 106690.00000000087,
      "d": 110,
      "v": 50
    },
    {
      "midi": 62,
      "hit": false,
      "t": 106700.00000000087,
      "d": 90,
      "v": 50
    },
    {
      "midi": 68,
      "hit": false,
      "t": 106700.00000000087,
      "d": 90,
      "v": 52
    },
    {
      "midi": 62,
      "hit": false,
      "t": 106940.00000000087,
      "d": 126.66666666667152,
      "v": 54
    },
    {
      "midi": 68,
      "hit": false,
      "t": 106940.00000000087,
      "d": 126.66666666667152,
      "v": 54
    },
    {
      "midi": 64,
      "hit": false,
      "t": 106940.00000000087,
      "d": 143.33333333334303,
      "v": 50
    },
    {
      "midi": 44,
      "hit": false,
      "t": 106940.00000000087,
      "d": 216.66666666667152,
      "v": 62
    },
    {
      "midi": 62,
      "hit": false,
      "t": 107206.66666666754,
      "d": 126.66666666667152,
      "v": 52
    },
    {
      "midi": 64,
      "hit": false,
      "t": 107206.66666666754,
      "d": 143.33333333334303,
      "v": 50
    },
    {
      "midi": 68,
      "hit": false,
      "t": 107216.66666666754,
      "d": 116.66666666667152,
      "v": 52
    },
    {
      "midi": 47,
      "hit": false,
      "t": 107233.33333333422,
      "d": 666.6666666667006,
      "v": 62
    },
    {
      "midi": 62,
      "hit": false,
      "t": 107466.66666666756,
      "d": 123.33333333334303,
      "v": 50
    },
    {
      "midi": 64,
      "hit": false,
      "t": 107466.66666666756,
      "d": 133.33333333334303,
      "v": 50
    },
    {
      "midi": 68,
      "hit": false,
      "t": 107483.33333333423,
      "d": 90,
      "v": 52
    },
    {
      "midi": 62,
      "hit": false,
      "t": 107733.33333333423,
      "d": 123.33333333334303,
      "v": 52
    },
    {
      "midi": 64,
      "hit": false,
      "t": 107733.33333333423,
      "d": 140.00000000001455,
      "v": 52
    },
    {
      "midi": 68,
      "hit": false,
      "t": 107740.0000000009,
      "d": 110,
      "v": 54
    },
    {
      "midi": 62,
      "hit": false,
      "t": 108000.00000000092,
      "d": 123.33333333332848,
      "v": 54
    },
    {
      "midi": 68,
      "hit": false,
      "t": 108000.00000000092,
      "d": 123.33333333332848,
      "v": 56
    },
    {
      "midi": 64,
      "hit": false,
      "t": 108000.00000000092,
      "d": 140,
      "v": 54
    },
    {
      "midi": 44,
      "hit": false,
      "t": 108000.00000000092,
      "d": 250,
      "v": 62
    },
    {
      "midi": 68,
      "hit": false,
      "t": 108266.66666666759,
      "d": 90,
      "v": 52
    },
    {
      "midi": 62,
      "hit": false,
      "t": 108266.66666666759,
      "d": 106.66666666667152,
      "v": 52
    },
    {
      "midi": 64,
      "hit": false,
      "t": 108266.66666666759,
      "d": 116.66666666667152,
      "v": 50
    },
    {
      "midi": 47,
      "hit": false,
      "t": 108500.00000000093,
      "d": 150.00000000001455,
      "v": 62
    },
    {
      "midi": 62,
      "hit": false,
      "t": 108506.6666666676,
      "d": 133.33333333334303,
      "v": 50
    },
    {
      "midi": 68,
      "hit": false,
      "t": 108523.33333333427,
      "d": 100,
      "v": 52
    },
    {
      "midi": 64,
      "hit": false,
      "t": 108523.33333333427,
      "d": 126.66666666667152,
      "v": 52
    },
    {
      "midi": 62,
      "hit": false,
      "t": 108783.33333333427,
      "d": 140,
      "v": 56
    },
    {
      "midi": 68,
      "hit": false,
      "t": 108790.00000000095,
      "d": 133.33333333332848,
      "v": 58
    },
    {
      "midi": 64,
      "hit": false,
      "t": 108790.00000000095,
      "d": 143.33333333332848,
      "v": 56
    },
    {
      "midi": 40,
      "hit": false,
      "t": 108800.00000000095,
      "d": 1190.0000000000146,
      "v": 62
    },
    {
      "midi": 68,
      "hit": false,
      "t": 109066.6666666676,
      "d": 100,
      "v": 52
    },
    {
      "midi": 62,
      "hit": false,
      "t": 109066.6666666676,
      "d": 116.66666666667152,
      "v": 52
    },
    {
      "midi": 64,
      "hit": false,
      "t": 109066.6666666676,
      "d": 133.33333333334303,
      "v": 54
    },
    {
      "midi": 62,
      "hit": false,
      "t": 109333.33333333427,
      "d": 123.33333333332848,
      "v": 54
    },
    {
      "midi": 68,
      "hit": false,
      "t": 109333.33333333427,
      "d": 123.33333333332848,
      "v": 54
    },
    {
      "midi": 64,
      "hit": false,
      "t": 109333.33333333427,
      "d": 140,
      "v": 54
    },
    {
      "midi": 52,
      "hit": false,
      "t": 109583.33333333427,
      "d": 66.66666666667152,
      "v": 62
    },
    {
      "midi": 62,
      "hit": false,
      "t": 109590.00000000095,
      "d": 126.66666666667152,
      "v": 58
    },
    {
      "midi": 64,
      "hit": false,
      "t": 109590.00000000095,
      "d": 143.33333333334303,
      "v": 58
    },
    {
      "midi": 68,
      "hit": false,
      "t": 109600.00000000095,
      "d": 116.66666666667152,
      "v": 58
    },
    {
      "midi": 68,
      "hit": false,
      "t": 109850.00000000096,
      "d": 106.66666666667152,
      "v": 56
    },
    {
      "midi": 64,
      "hit": false,
      "t": 109850.00000000096,
      "d": 116.66666666667152,
      "v": 54
    },
    {
      "midi": 62,
      "hit": false,
      "t": 109856.66666666763,
      "d": 100,
      "v": 52
    },
    {
      "midi": 44,
      "hit": false,
      "t": 110100.00000000096,
      "d": 206.66666666668607,
      "v": 62
    },
    {
      "midi": 62,
      "hit": false,
      "t": 110106.66666666763,
      "d": 126.66666666667152,
      "v": 56
    },
    {
      "midi": 68,
      "hit": false,
      "t": 110106.66666666763,
      "d": 126.66666666667152,
      "v": 58
    },
    {
      "midi": 64,
      "hit": false,
      "t": 110106.66666666763,
      "d": 143.33333333334303,
      "v": 56
    },
    {
      "midi": 68,
      "hit": false,
      "t": 110366.66666666765,
      "d": 150.00000000001455,
      "v": 58
    },
    {
      "midi": 64,
      "hit": false,
      "t": 110373.33333333432,
      "d": 150.00000000001455,
      "v": 56
    },
    {
      "midi": 62,
      "hit": false,
      "t": 110383.33333333432,
      "d": 123.33333333334303,
      "v": 54
    },
    {
      "midi": 47,
      "hit": false,
      "t": 110400.00000000099,
      "d": 723.3333333333721,
      "v": 62
    },
    {
      "midi": 62,
      "hit": false,
      "t": 110640.000000001,
      "d": 116.66666666667152,
      "v": 54
    },
    {
      "midi": 68,
      "hit": false,
      "t": 110640.000000001,
      "d": 116.66666666667152,
      "v": 56
    },
    {
      "midi": 64,
      "hit": false,
      "t": 110640.000000001,
      "d": 133.33333333334303,
      "v": 54
    },
    {
      "midi": 64,
      "hit": false,
      "t": 110900.00000000102,
      "d": 140.00000000001455,
      "v": 54
    },
    {
      "midi": 62,
      "hit": false,
      "t": 110906.66666666769,
      "d": 126.66666666667152,
      "v": 54
    },
    {
      "midi": 68,
      "hit": false,
      "t": 110906.66666666769,
      "d": 126.66666666667152,
      "v": 54
    },
    {
      "midi": 62,
      "hit": false,
      "t": 111173.33333333436,
      "d": 116.66666666667152,
      "v": 56
    },
    {
      "midi": 68,
      "hit": false,
      "t": 111173.33333333436,
      "d": 126.66666666667152,
      "v": 56
    },
    {
      "midi": 64,
      "hit": false,
      "t": 111173.33333333436,
      "d": 143.33333333334303,
      "v": 54
    },
    {
      "midi": 44,
      "hit": false,
      "t": 111200.00000000103,
      "d": 383.33333333334303,
      "v": 62
    },
    {
      "midi": 68,
      "hit": false,
      "t": 111450.00000000103,
      "d": 90,
      "v": 54
    },
    {
      "midi": 62,
      "hit": false,
      "t": 111450.00000000103,
      "d": 100,
      "v": 54
    },
    {
      "midi": 64,
      "hit": false,
      "t": 111450.00000000103,
      "d": 106.66666666667152,
      "v": 54
    },
    {
      "midi": 45,
      "hit": false,
      "t": 111640.00000000105,
      "d": 260.00000000001455,
      "v": 60
    },
    {
      "midi": 62,
      "hit": false,
      "t": 111690.00000000105,
      "d": 116.66666666667152,
      "v": 56
    },
    {
      "midi": 68,
      "hit": false,
      "t": 111700.00000000105,
      "d": 100,
      "v": 54
    },
    {
      "midi": 64,
      "hit": false,
      "t": 111700.00000000105,
      "d": 133.33333333334303,
      "v": 54
    },
    {
      "midi": 61,
      "hit": false,
      "t": 111973.33333333439,
      "d": 160,
      "v": 62
    },
    {
      "midi": 64,
      "hit": false,
      "t": 111973.33333333439,
      "d": 160,
      "v": 56
    },
    {
      "midi": 69,
      "hit": false,
      "t": 111990.00000000106,
      "d": 143.33333333332848,
      "v": 56
    },
    {
      "midi": 33,
      "hit": false,
      "t": 112000.00000000106,
      "d": 983.3333333333576,
      "v": 62
    },
    {
      "midi": 61,
      "hit": false,
      "t": 112250.00000000106,
      "d": 140.00000000001455,
      "v": 54
    },
    {
      "midi": 64,
      "hit": false,
      "t": 112250.00000000106,
      "d": 150.00000000001455,
      "v": 52
    },
    {
      "midi": 69,
      "hit": false,
      "t": 112266.66666666773,
      "d": 106.66666666667152,
      "v": 46
    },
    {
      "midi": 61,
      "hit": false,
      "t": 112523.3333333344,
      "d": 150.00000000001455,
      "v": 58
    },
    {
      "midi": 64,
      "hit": false,
      "t": 112523.3333333344,
      "d": 150.00000000001455,
      "v": 54
    },
    {
      "midi": 69,
      "hit": false,
      "t": 112540.00000000108,
      "d": 126.66666666667152,
      "v": 48
    },
    {
      "midi": 45,
      "hit": false,
      "t": 112800.00000000109,
      "d": 140,
      "v": 62
    },
    {
      "midi": 61,
      "hit": false,
      "t": 112800.00000000109,
      "d": 140,
      "v": 60
    },
    {
      "midi": 64,
      "hit": false,
      "t": 112800.00000000109,
      "d": 150,
      "v": 56
    },
    {
      "midi": 69,
      "hit": false,
      "t": 112823.33333333442,
      "d": 110,
      "v": 52
    },
    {
      "midi": 35,
      "hit": false,
      "t": 113033.33333333442,
      "d": 156.66666666667152,
      "v": 62
    },
    {
      "midi": 61,
      "hit": false,
      "t": 113066.66666666775,
      "d": 133.33333333334303,
      "v": 60
    },
    {
      "midi": 64,
      "hit": false,
      "t": 113066.66666666775,
      "d": 140.00000000001455,
      "v": 56
    },
    {
      "midi": 69,
      "hit": false,
      "t": 113083.33333333442,
      "d": 100,
      "v": 48
    },
    {
      "midi": 37,
      "hit": false,
      "t": 113273.33333333443,
      "d": 150,
      "v": 62
    },
    {
      "midi": 61,
      "hit": false,
      "t": 113323.33333333443,
      "d": 143.33333333334303,
      "v": 58
    },
    {
      "midi": 64,
      "hit": false,
      "t": 113333.33333333443,
      "d": 116.66666666667152,
      "v": 56
    },
    {
      "midi": 69,
      "hit": false,
      "t": 113350.0000000011,
      "d": 90,
      "v": 46
    },
    {
      "midi": 66,
      "hit": false,
      "t": 113583.33333333445,
      "d": 166.66666666668607,
      "v": 62
    },
    {
      "midi": 38,
      "hit": false,
      "t": 113583.33333333445,
      "d": 656.6666666667006,
      "v": 62
    },
    {
      "midi": 69,
      "hit": false,
      "t": 113600.00000000112,
      "d": 116.66666666667152,
      "v": 54
    },
    {
      "midi": 62,
      "hit": false,
      "t": 113600.00000000112,
      "d": 133.33333333334303,
      "v": 62
    },
    {
      "midi": 62,
      "hit": false,
      "t": 113856.6666666678,
      "d": 133.33333333332848,
      "v": 58
    },
    {
      "midi": 66,
      "hit": false,
      "t": 113856.6666666678,
      "d": 150,
      "v": 60
    },
    {
      "midi": 69,
      "hit": false,
      "t": 113873.33333333448,
      "d": 93.33333333332848,
      "v": 48
    },
    {
      "midi": 66,
      "hit": false,
      "t": 114116.6666666678,
      "d": 150.00000000001455,
      "v": 62
    },
    {
      "midi": 62,
      "hit": false,
      "t": 114123.33333333448,
      "d": 126.66666666667152,
      "v": 58
    },
    {
      "midi": 69,
      "hit": false,
      "t": 114133.33333333448,
      "d": 106.66666666667152,
      "v": 50
    },
    {
      "midi": 38,
      "hit": false,
      "t": 114350.00000000115,
      "d": 150,
      "v": 62
    },
    {
      "midi": 62,
      "hit": false,
      "t": 114373.33333333448,
      "d": 133.33333333334303,
      "v": 62
    },
    {
      "midi": 66,
      "hit": false,
      "t": 114373.33333333448,
      "d": 150.00000000001455,
      "v": 62
    },
    {
      "midi": 69,
      "hit": false,
      "t": 114400.00000000115,
      "d": 106.66666666667152,
      "v": 56
    },
    {
      "midi": 37,
      "hit": false,
      "t": 114600.00000000116,
      "d": 140,
      "v": 62
    },
    {
      "midi": 62,
      "hit": false,
      "t": 114633.33333333449,
      "d": 133.33333333334303,
      "v": 62
    },
    {
      "midi": 66,
      "hit": false,
      "t": 114633.33333333449,
      "d": 140.00000000001455,
      "v": 62
    },
    {
      "midi": 69,
      "hit": false,
      "t": 114640.00000000116,
      "d": 100,
      "v": 54
    },
    {
      "midi": 35,
      "hit": false,
      "t": 114866.66666666784,
      "d": 133.33333333334303,
      "v": 62
    },
    {
      "midi": 66,
      "hit": false,
      "t": 114873.3333333345,
      "d": 166.66666666667152,
      "v": 62
    },
    {
      "midi": 62,
      "hit": false,
      "t": 114883.3333333345,
      "d": 123.33333333334303,
      "v": 60
    },
    {
      "midi": 69,
      "hit": false,
      "t": 114900.00000000118,
      "d": 100,
      "v": 54
    },
    {
      "midi": 33,
      "hit": false,
      "t": 115140.00000000118,
      "d": 1326.6666666666715,
      "v": 62
    },
    {
      "midi": 61,
      "hit": false,
      "t": 115166.66666666785,
      "d": 140,
      "v": 62
    },
    {
      "midi": 64,
      "hit": false,
      "t": 115166.66666666785,
      "d": 166.66666666667152,
      "v": 58
    },
    {
      "midi": 69,
      "hit": false,
      "t": 115166.66666666785,
      "d": 166.66666666667152,
      "v": 56
    }
  ]
}