{
  "jsonPath": "Pop/Adult Standards/Mannheim Steamroller/the-great-gate-of-kiev.json",
  "path": "Pop\\Adult Standards\\Mannheim Steamroller\\The Great Gate Of Kiev.mid",
  "name": "The Great Gate Of Kiev",
  "difficulty": "Advanced",
  "bpm": 110.00011000011,
  "notes": [
    {
      "midi": 43,
      "hit": false,
      "t": 2181.8160000000003,
      "d": 2181.8160000000003,
      "v": 127
    },
    {
      "midi": 46,
      "hit": false,
      "t": 2181.8160000000003,
      "d": 2181.8160000000003,
      "v": 122
    },
    {
      "midi": 51,
      "hit": false,
      "t": 2181.8160000000003,
      "d": 2181.8160000000003,
      "v": 122
    },
    {
      "midi": 55,
      "hit": false,
      "t": 2181.8160000000003,
      "d": 2181.8160000000003,
      "v": 122
    },
    {
      "midi": 41,
      "hit": false,
      "t": 4227.2685,
      "d": 136.36350000000039,
      "v": 127
    },
    {
      "midi": 41,
      "hit": false,
      "t": 4363.6320000000005,
      "d": 2181.8160000000007,
      "v": 127
    },
    {
      "midi": 46,
      "hit": false,
      "t": 4363.6320000000005,
      "d": 2181.8160000000007,
      "v": 127
    },
    {
      "midi": 50,
      "hit": false,
      "t": 4363.6320000000005,
      "d": 2181.8160000000007,
      "v": 127
    },
    {
      "midi": 53,
      "hit": false,
      "t": 4363.6320000000005,
      "d": 2181.8160000000007,
      "v": 127
    },
    {
      "midi": 39,
      "hit": false,
      "t": 6409.084500000001,
      "d": 136.36350000000039,
      "v": 127
    },
    {
      "midi": 39,
      "hit": false,
      "t": 6545.448000000001,
      "d": 1090.9080000000004,
      "v": 127
    },
    {
      "midi": 43,
      "hit": false,
      "t": 6545.448000000001,
      "d": 1090.9080000000004,
      "v": 127
    },
    {
      "midi": 46,
      "hit": false,
      "t": 6545.448000000001,
      "d": 1090.9080000000004,
      "v": 127
    },
    {
      "midi": 51,
      "hit": false,
      "t": 6545.448000000001,
      "d": 1090.9080000000004,
      "v": 127
    },
    {
      "midi": 36,
      "hit": false,
      "t": 7499.992500000001,
      "d": 136.36350000000039,
      "v": 125
    },
    {
      "midi": 36,
      "hit": false,
      "t": 7636.356000000002,
      "d": 1090.9079999999994,
      "v": 127
    },
    {
      "midi": 39,
      "hit": false,
      "t": 7636.356000000002,
      "d": 1090.9079999999994,
      "v": 127
    },
    {
      "midi": 43,
      "hit": false,
      "t": 7636.356000000002,
      "d": 1090.9079999999994,
      "v": 127
    },
    {
      "midi": 48,
      "hit": false,
      "t": 7636.356000000002,
      "d": 1090.9079999999994,
      "v": 127
    },
    {
      "midi": 38,
      "hit": false,
      "t": 8590.900500000002,
      "d": 136.36349999999948,
      "v": 127
    },
    {
      "midi": 38,
      "hit": false,
      "t": 8727.264000000001,
      "d": 1090.9079999999994,
      "v": 127
    },
    {
      "midi": 41,
      "hit": false,
      "t": 8727.264000000001,
      "d": 1090.9079999999994,
      "v": 127
    },
    {
      "midi": 46,
      "hit": false,
      "t": 8727.264000000001,
      "d": 1090.9079999999994,
      "v": 127
    },
    {
      "midi": 50,
      "hit": false,
      "t": 8727.264000000001,
      "d": 1090.9079999999994,
      "v": 127
    },
    {
      "midi": 46,
      "hit": false,
      "t": 9818.172,
      "d": 1090.9079999999994,
      "v": 127
    },
    {
      "midi": 39,
      "hit": false,
      "t": 10772.7165,
      "d": 136.36349999999948,
      "v": 119
    },
    {
      "midi": 39,
      "hit": false,
      "t": 10909.08,
      "d": 1090.9079999999994,
      "v": 127
    },
    {
      "midi": 46,
      "hit": false,
      "t": 10909.08,
      "d": 1090.9079999999994,
      "v": 127
    },
    {
      "midi": 51,
      "hit": false,
      "t": 10909.08,
      "d": 1090.9079999999994,
      "v": 127
    },
    {
      "midi": 38,
      "hit": false,
      "t": 11999.988,
      "d": 545.4539999999997,
      "v": 127
    },
    {
      "midi": 50,
      "hit": false,
      "t": 11999.988,
      "d": 545.4539999999997,
      "v": 127
    },
    {
      "midi": 46,
      "hit": false,
      "t": 11999.988,
      "d": 1090.9079999999994,
      "v": 127
    },
    {
      "midi": 36,
      "hit": false,
      "t": 12545.442,
      "d": 545.4539999999997,
      "v": 127
    },
    {
      "midi": 48,
      "hit": false,
      "t": 12545.442,
      "d": 545.4539999999997,
      "v": 127
    },
    {
      "midi": 34,
      "hit": false,
      "t": 13090.895999999999,
      "d": 1090.9079999999994,
      "v": 127
    },
    {
      "midi": 41,
      "hit": false,
      "t": 13090.895999999999,
      "d": 1090.9079999999994,
      "v": 127
    },
    {
      "midi": 46,
      "hit": false,
      "t": 13090.895999999999,
      "d": 1090.9079999999994,
      "v": 127
    },
    {
      "midi": 39,
      "hit": false,
      "t": 14181.803999999998,
      "d": 954.5445,
      "v": 127
    },
    {
      "midi": 31,
      "hit": false,
      "t": 14181.803999999998,
      "d": 1090.9079999999994,
      "v": 127
    },
    {
      "midi": 43,
      "hit": false,
      "t": 14181.803999999998,
      "d": 1090.9079999999994,
      "v": 127
    },
    {
      "midi": 39,
      "hit": false,
      "t": 15136.348499999998,
      "d": 136.36349999999948,
      "v": 127
    },
    {
      "midi": 39,
      "hit": false,
      "t": 15272.711999999998,
      "d": 1090.9079999999994,
      "v": 127
    },
    {
      "midi": 46,
      "hit": false,
      "t": 15272.711999999998,
      "d": 1090.9079999999994,
      "v": 127
    },
    {
      "midi": 51,
      "hit": false,
      "t": 15272.711999999998,
      "d": 1090.9079999999994,
      "v": 127
    },
    {
      "midi": 38,
      "hit": false,
      "t": 16363.619999999997,
      "d": 545.4539999999997,
      "v": 127
    },
    {
      "midi": 50,
      "hit": false,
      "t": 16363.619999999997,
      "d": 545.4539999999997,
      "v": 127
    },
    {
      "midi": 46,
      "hit": false,
      "t": 16363.619999999997,
      "d": 1090.9080000000013,
      "v": 127
    },
    {
      "midi": 36,
      "hit": false,
      "t": 16909.073999999997,
      "d": 545.4540000000015,
      "v": 127
    },
    {
      "midi": 48,
      "hit": false,
      "t": 16909.073999999997,
      "d": 545.4540000000015,
      "v": 127
    },
    {
      "midi": 34,
      "hit": false,
      "t": 17454.528,
      "d": 1090.9079999999994,
      "v": 127
    },
    {
      "midi": 41,
      "hit": false,
      "t": 17454.528,
      "d": 1090.9079999999994,
      "v": 127
    },
    {
      "midi": 46,
      "hit": false,
      "t": 17454.528,
      "d": 1090.9079999999994,
      "v": 127
    },
    {
      "midi": 43,
      "hit": false,
      "t": 18545.435999999998,
      "d": 954.5445,
      "v": 127
    },
    {
      "midi": 31,
      "hit": false,
      "t": 18545.435999999998,
      "d": 1090.9079999999994,
      "v": 127
    },
    {
      "midi": 39,
      "hit": false,
      "t": 18545.435999999998,
      "d": 1090.9079999999994,
      "v": 127
    },
    {
      "midi": 43,
      "hit": false,
      "t": 19499.980499999998,
      "d": 136.36349999999948,
      "v": 127
    },
    {
      "midi": 43,
      "hit": false,
      "t": 19636.343999999997,
      "d": 2181.815999999999,
      "v": 119
    },
    {
      "midi": 46,
      "hit": false,
      "t": 19636.343999999997,
      "d": 2181.815999999999,
      "v": 119
    },
    {
      "midi": 51,
      "hit": false,
      "t": 19636.343999999997,
      "d": 2181.815999999999,
      "v": 119
    },
    {
      "midi": 55,
      "hit": false,
      "t": 19636.343999999997,
      "d": 2181.815999999999,
      "v": 119
    },
    {
      "midi": 41,
      "hit": false,
      "t": 21681.796499999997,
      "d": 136.36349999999948,
      "v": 125
    },
    {
      "midi": 41,
      "hit": false,
      "t": 21818.159999999996,
      "d": 2181.815999999999,
      "v": 127
    },
    {
      "midi": 46,
      "hit": false,
      "t": 21818.159999999996,
      "d": 2181.815999999999,
      "v": 127
    },
    {
      "midi": 50,
      "hit": false,
      "t": 21818.159999999996,
      "d": 2181.815999999999,
      "v": 127
    },
    {
      "midi": 53,
      "hit": false,
      "t": 21818.159999999996,
      "d": 2181.815999999999,
      "v": 127
    },
    {
      "midi": 39,
      "hit": false,
      "t": 23863.612499999996,
      "d": 136.36349999999948,
      "v": 125
    },
    {
      "midi": 39,
      "hit": false,
      "t": 23999.975999999995,
      "d": 1090.9079999999994,
      "v": 127
    },
    {
      "midi": 43,
      "hit": false,
      "t": 23999.975999999995,
      "d": 1090.9079999999994,
      "v": 127
    },
    {
      "midi": 46,
      "hit": false,
      "t": 23999.975999999995,
      "d": 1090.9079999999994,
      "v": 127
    },
    {
      "midi": 51,
      "hit": false,
      "t": 23999.975999999995,
      "d": 1090.9079999999994,
      "v": 127
    },
    {
      "midi": 36,
      "hit": false,
      "t": 24954.520499999995,
      "d": 136.36349999999948,
      "v": 119
    },
    {
      "midi": 36,
      "hit": false,
      "t": 25090.883999999995,
      "d": 1090.9079999999994,
      "v": 127
    },
    {
      "midi": 39,
      "hit": false,
      "t": 25090.883999999995,
      "d": 1090.9079999999994,
      "v": 127
    },
    {
      "midi": 43,
      "hit": false,
      "t": 25090.883999999995,
      "d": 1090.9079999999994,
      "v": 127
    },
    {
      "midi": 48,
      "hit": false,
      "t": 25090.883999999995,
      "d": 1090.9079999999994,
      "v": 127
    },
    {
      "midi": 38,
      "hit": false,
      "t": 26045.428499999995,
      "d": 136.36349999999948,
      "v": 122
    },
    {
      "midi": 38,
      "hit": false,
      "t": 26181.791999999994,
      "d": 1090.9079999999994,
      "v": 127
    },
    {
      "midi": 41,
      "hit": false,
      "t": 26181.791999999994,
      "d": 1090.9079999999994,
      "v": 127
    },
    {
      "midi": 46,
      "hit": false,
      "t": 26181.791999999994,
      "d": 1090.9079999999994,
      "v": 127
    },
    {
      "midi": 50,
      "hit": false,
      "t": 26181.791999999994,
      "d": 1090.9079999999994,
      "v": 127
    },
    {
      "midi": 46,
      "hit": false,
      "t": 27272.699999999993,
      "d": 1090.9079999999994,
      "v": 127
    },
    {
      "midi": 48,
      "hit": false,
      "t": 28363.607999999993,
      "d": 545.4540000000015,
      "v": 127
    },
    {
      "midi": 60,
      "hit": false,
      "t": 28363.607999999993,
      "d": 545.4540000000015,
      "v": 127
    },
    {
      "midi": 56,
      "hit": false,
      "t": 28363.607999999993,
      "d": 1090.908000000003,
      "v": 127
    },
    {
      "midi": 48,
      "hit": false,
      "t": 28909.061999999994,
      "d": 545.4540000000015,
      "v": 127
    },
    {
      "midi": 60,
      "hit": false,
      "t": 28909.061999999994,
      "d": 545.4540000000015,
      "v": 127
    },
    {
      "midi": 46,
      "hit": false,
      "t": 29454.515999999996,
      "d": 545.4540000000015,
      "v": 127
    },
    {
      "midi": 58,
      "hit": false,
      "t": 29454.515999999996,
      "d": 545.4540000000015,
      "v": 127
    },
    {
      "midi": 51,
      "hit": false,
      "t": 29454.515999999996,
      "d": 1090.908000000003,
      "v": 127
    },
    {
      "midi": 43,
      "hit": false,
      "t": 29999.969999999998,
      "d": 545.4540000000015,
      "v": 127
    },
    {
      "midi": 55,
      "hit": false,
      "t": 29999.969999999998,
      "d": 545.4540000000015,
      "v": 127
    },
    {
      "midi": 44,
      "hit": false,
      "t": 30545.424,
      "d": 545.4540000000015,
      "v": 127
    },
    {
      "midi": 56,
      "hit": false,
      "t": 30545.424,
      "d": 545.4540000000015,
      "v": 127
    },
    {
      "midi": 51,
      "hit": false,
      "t": 30545.424,
      "d": 2181.816000000006,
      "v": 127
    },
    {
      "midi": 44,
      "hit": false,
      "t": 31090.878,
      "d": 545.4540000000015,
      "v": 127
    },
    {
      "midi": 56,
      "hit": false,
      "t": 31090.878,
      "d": 545.4540000000015,
      "v": 127
    },
    {
      "midi": 41,
      "hit": false,
      "t": 31636.332000000002,
      "d": 545.4540000000015,
      "v": 127
    },
    {
      "midi": 53,
      "hit": false,
      "t": 31636.332000000002,
      "d": 545.4540000000015,
      "v": 127
    },
    {
      "midi": 44,
      "hit": false,
      "t": 32181.786000000004,
      "d": 545.4540000000015,
      "v": 127
    },
    {
      "midi": 56,
      "hit": false,
      "t": 32181.786000000004,
      "d": 545.4540000000015,
      "v": 127
    },
    {
      "midi": 43,
      "hit": false,
      "t": 32727.240000000005,
      "d": 1090.908000000003,
      "v": 127
    },
    {
      "midi": 55,
      "hit": false,
      "t": 32727.240000000005,
      "d": 1090.908000000003,
      "v": 127
    },
    {
      "midi": 51,
      "hit": false,
      "t": 32727.240000000005,
      "d": 1636.362000000001,
      "v": 127
    },
    {
      "midi": 41,
      "hit": false,
      "t": 33818.14800000001,
      "d": 545.4539999999979,
      "v": 127
    },
    {
      "midi": 53,
      "hit": false,
      "t": 33818.14800000001,
      "d": 545.4539999999979,
      "v": 127
    },
    {
      "midi": 39,
      "hit": false,
      "t": 34363.602000000006,
      "d": 545.4539999999979,
      "v": 127
    },
    {
      "midi": 51,
      "hit": false,
      "t": 34363.602000000006,
      "d": 545.4539999999979,
      "v": 127
    },
    {
      "midi": 53,
      "hit": false,
      "t": 34909.056000000004,
      "d": 2181.815999999999,
      "v": 127
    },
    {
      "midi": 56,
      "hit": false,
      "t": 34909.056000000004,
      "d": 2181.815999999999,
      "v": 127
    },
    {
      "midi": 60,
      "hit": false,
      "t": 34909.056000000004,
      "d": 2181.815999999999,
      "v": 127
    },
    {
      "midi": 46,
      "hit": false,
      "t": 37090.872,
      "d": 1090.908000000003,
      "v": 113
    },
    {
      "midi": 50,
      "hit": false,
      "t": 37090.872,
      "d": 1090.908000000003,
      "v": 113
    },
    {
      "midi": 55,
      "hit": false,
      "t": 37090.872,
      "d": 1090.908000000003,
      "v": 113
    },
    {
      "midi": 58,
      "hit": false,
      "t": 37090.872,
      "d": 1090.908000000003,
      "v": 113
    },
    {
      "midi": 48,
      "hit": false,
      "t": 38181.780000000006,
      "d": 1090.9079999999958,
      "v": 118
    },
    {
      "midi": 51,
      "hit": false,
      "t": 38181.780000000006,
      "d": 1090.9079999999958,
      "v": 118
    },
    {
      "midi": 55,
      "hit": false,
      "t": 38181.780000000006,
      "d": 1090.9079999999958,
      "v": 118
    },
    {
      "midi": 63,
      "hit": false,
      "t": 38181.780000000006,
      "d": 1090.9079999999958,
      "v": 118
    },
    {
      "midi": 32,
      "hit": false,
      "t": 39136.3245,
      "d": 136.36349999999948,
      "v": 122
    },
    {
      "midi": 48,
      "hit": false,
      "t": 39272.688,
      "d": 545.4539999999979,
      "v": 123
    },
    {
      "midi": 60,
      "hit": false,
      "t": 39272.688,
      "d": 545.4539999999979,
      "v": 123
    },
    {
      "midi": 48,
      "hit": false,
      "t": 39818.142,
      "d": 545.4539999999979,
      "v": 125
    },
    {
      "midi": 60,
      "hit": false,
      "t": 39818.142,
      "d": 545.4539999999979,
      "v": 125
    },
    {
      "midi": 46,
      "hit": false,
      "t": 40363.596,
      "d": 545.4539999999979,
      "v": 127
    },
    {
      "midi": 58,
      "hit": false,
      "t": 40363.596,
      "d": 545.4539999999979,
      "v": 127
    },
    {
      "midi": 51,
      "hit": false,
      "t": 40363.596,
      "d": 1090.9079999999958,
      "v": 127
    },
    {
      "midi": 44,
      "hit": false,
      "t": 40909.049999999996,
      "d": 545.4539999999979,
      "v": 127
    },
    {
      "midi": 56,
      "hit": false,
      "t": 40909.049999999996,
      "d": 545.4539999999979,
      "v": 127
    },
    {
      "midi": 43,
      "hit": false,
      "t": 41454.50399999999,
      "d": 1090.908000000003,
      "v": 127
    },
    {
      "midi": 55,
      "hit": false,
      "t": 41454.50399999999,
      "d": 1090.908000000003,
      "v": 127
    },
    {
      "midi": 51,
      "hit": false,
      "t": 41454.50399999999,
      "d": 1636.362000000001,
      "v": 127
    },
    {
      "midi": 41,
      "hit": false,
      "t": 42545.412,
      "d": 545.4539999999979,
      "v": 127
    },
    {
      "midi": 53,
      "hit": false,
      "t": 42545.412,
      "d": 545.4539999999979,
      "v": 127
    },
    {
      "midi": 39,
      "hit": false,
      "t": 43090.865999999995,
      "d": 545.4539999999979,
      "v": 127
    },
    {
      "midi": 51,
      "hit": false,
      "t": 43090.865999999995,
      "d": 545.4539999999979,
      "v": 127
    },
    {
      "midi": 44,
      "hit": false,
      "t": 43636.31999999999,
      "d": 2181.815999999999,
      "v": 127
    },
    {
      "midi": 56,
      "hit": false,
      "t": 43636.31999999999,
      "d": 2181.815999999999,
      "v": 127
    },
    {
      "midi": 43,
      "hit": false,
      "t": 45818.13599999999,
      "d": 2181.815999999999,
      "v": 127
    },
    {
      "midi": 55,
      "hit": false,
      "t": 45818.13599999999,
      "d": 2181.815999999999,
      "v": 127
    },
    {
      "midi": 27,
      "hit": false,
      "t": 47863.58849999999,
      "d": 136.36349999999948,
      "v": 127
    },
    {
      "midi": 39,
      "hit": false,
      "t": 47863.58849999999,
      "d": 136.36349999999948,
      "v": 127
    },
    {
      "midi": 27,
      "hit": false,
      "t": 47999.95199999999,
      "d": 2045.4524999999994,
      "v": 127
    },
    {
      "midi": 39,
      "hit": false,
      "t": 47999.95199999999,
      "d": 2045.4524999999994,
      "v": 127
    },
    {
      "midi": 43,
      "hit": false,
      "t": 47999.95199999999,
      "d": 2181.815999999999,
      "v": 127
    },
    {
      "midi": 46,
      "hit": false,
      "t": 47999.95199999999,
      "d": 2181.815999999999,
      "v": 127
    },
    {
      "midi": 51,
      "hit": false,
      "t": 47999.95199999999,
      "d": 2181.815999999999,
      "v": 127
    },
    {
      "midi": 55,
      "hit": false,
      "t": 47999.95199999999,
      "d": 2181.815999999999,
      "v": 127
    },
    {
      "midi": 27,
      "hit": false,
      "t": 50045.40449999999,
      "d": 136.36349999999948,
      "v": 127
    },
    {
      "midi": 39,
      "hit": false,
      "t": 50045.40449999999,
      "d": 136.36349999999948,
      "v": 127
    },
    {
      "midi": 27,
      "hit": false,
      "t": 50181.76799999999,
      "d": 2045.4524999999994,
      "v": 127
    },
    {
      "midi": 39,
      "hit": false,
      "t": 50181.76799999999,
      "d": 2181.815999999999,
      "v": 127
    },
    {
      "midi": 41,
      "hit": false,
      "t": 50181.76799999999,
      "d": 2181.815999999999,
      "v": 127
    },
    {
      "midi": 46,
      "hit": false,
      "t": 50181.76799999999,
      "d": 2181.815999999999,
      "v": 127
    },
    {
      "midi": 50,
      "hit": false,
      "t": 50181.76799999999,
      "d": 2181.815999999999,
      "v": 127
    },
    {
      "midi": 53,
      "hit": false,
      "t": 50181.76799999999,
      "d": 2181.815999999999,
      "v": 127
    },
    {
      "midi": 27,
      "hit": false,
      "t": 52227.22049999999,
      "d": 136.36349999999948,
      "v": 127
    },
    {
      "midi": 39,
      "hit": false,
      "t": 52363.58399999999,
      "d": 1090.908000000003,
      "v": 127
    },
    {
      "midi": 43,
      "hit": false,
      "t": 52363.58399999999,
      "d": 1090.908000000003,
      "v": 127
    },
    {
      "midi": 46,
      "hit": false,
      "t": 52363.58399999999,
      "d": 1090.908000000003,
      "v": 127
    },
    {
      "midi": 51,
      "hit": false,
      "t": 52363.58399999999,
      "d": 1090.908000000003,
      "v": 127
    },
    {
      "midi": 27,
      "hit": false,
      "t": 52363.58399999999,
      "d": 2181.816000000006,
      "v": 127
    },
    {
      "midi": 36,
      "hit": false,
      "t": 53454.49199999999,
      "d": 1090.908000000003,
      "v": 127
    },
    {
      "midi": 39,
      "hit": false,
      "t": 53454.49199999999,
      "d": 1090.908000000003,
      "v": 127
    },
    {
      "midi": 43,
      "hit": false,
      "t": 53454.49199999999,
      "d": 1090.908000000003,
      "v": 127
    },
    {
      "midi": 48,
      "hit": false,
      "t": 53454.49199999999,
      "d": 1090.908000000003,
      "v": 127
    },
    {
      "midi": 38,
      "hit": false,
      "t": 54545.399999999994,
      "d": 1090.908000000003,
      "v": 127
    },
    {
      "midi": 41,
      "hit": false,
      "t": 54545.399999999994,
      "d": 1090.908000000003,
      "v": 127
    },
    {
      "midi": 46,
      "hit": false,
      "t": 54545.399999999994,
      "d": 1090.908000000003,
      "v": 127
    },
    {
      "midi": 50,
      "hit": false,
      "t": 54545.399999999994,
      "d": 1090.908000000003,
      "v": 127
    },
    {
      "midi": 34,
      "hit": false,
      "t": 55636.308,
      "d": 1090.9079999999958,
      "v": 127
    },
    {
      "midi": 46,
      "hit": false,
      "t": 55636.308,
      "d": 1090.9079999999958,
      "v": 127
    },
    {
      "midi": 27,
      "hit": false,
      "t": 56590.85249999999,
      "d": 136.36349999999948,
      "v": 127
    },
    {
      "midi": 39,
      "hit": false,
      "t": 56590.85249999999,
      "d": 136.36349999999948,
      "v": 127
    },
    {
      "midi": 43,
      "hit": false,
      "t": 56727.21599999999,
      "d": 1090.908000000003,
      "v": 127
    },
    {
      "midi": 46,
      "hit": false,
      "t": 56727.21599999999,
      "d": 1090.908000000003,
      "v": 127
    },
    {
      "midi": 55,
      "hit": false,
      "t": 56727.21599999999,
      "d": 1090.908000000003,
      "v": 127
    },
    {
      "midi": 27,
      "hit": false,
      "t": 56727.21599999999,
      "d": 4227.268499999998,
      "v": 127
    },
    {
      "midi": 39,
      "hit": false,
      "t": 56727.21599999999,
      "d": 4227.268499999998,
      "v": 127
    },
    {
      "midi": 38,
      "hit": false,
      "t": 57818.123999999996,
      "d": 545.4539999999979,
      "v": 127
    },
    {
      "midi": 50,
      "hit": false,
      "t": 57818.123999999996,
      "d": 545.4539999999979,
      "v": 127
    },
    {
      "midi": 46,
      "hit": false,
      "t": 57818.123999999996,
      "d": 1090.9079999999958,
      "v": 127
    },
    {
      "midi": 36,
      "hit": false,
      "t": 58363.577999999994,
      "d": 545.4539999999979,
      "v": 127
    },
    {
      "midi": 48,
      "hit": false,
      "t": 58363.577999999994,
      "d": 545.4539999999979,
      "v": 127
    },
    {
      "midi": 34,
      "hit": false,
      "t": 58909.03199999999,
      "d": 1090.908000000003,
      "v": 127
    },
    {
      "midi": 43,
      "hit": false,
      "t": 58909.03199999999,
      "d": 1090.908000000003,
      "v": 127
    },
    {
      "midi": 46,
      "hit": false,
      "t": 58909.03199999999,
      "d": 1090.908000000003,
      "v": 127
    },
    {
      "midi": 38,
      "hit": false,
      "t": 59999.939999999995,
      "d": 1090.9079999999958,
      "v": 127
    },
    {
      "midi": 46,
      "hit": false,
      "t": 59999.939999999995,
      "d": 1090.9079999999958,
      "v": 127
    },
    {
      "midi": 50,
      "hit": false,
      "t": 59999.939999999995,
      "d": 1090.9079999999958,
      "v": 127
    },
    {
      "midi": 27,
      "hit": false,
      "t": 60954.48449999999,
      "d": 136.36349999999948,
      "v": 127
    },
    {
      "midi": 39,
      "hit": false,
      "t": 60954.48449999999,
      "d": 136.36349999999948,
      "v": 127
    },
    {
      "midi": 43,
      "hit": false,
      "t": 61090.84799999999,
      "d": 1090.908000000003,
      "v": 127
    },
    {
      "midi": 46,
      "hit": false,
      "t": 61090.84799999999,
      "d": 1090.908000000003,
      "v": 127
    },
    {
      "midi": 55,
      "hit": false,
      "t": 61090.84799999999,
      "d": 1090.908000000003,
      "v": 127
    },
    {
      "midi": 27,
      "hit": false,
      "t": 61090.84799999999,
      "d": 4363.632000000005,
      "v": 127
    },
    {
      "midi": 39,
      "hit": false,
      "t": 61090.84799999999,
      "d": 4363.632000000005,
      "v": 127
    },
    {
      "midi": 38,
      "hit": false,
      "t": 62181.755999999994,
      "d": 545.4539999999979,
      "v": 127
    },
    {
      "midi": 50,
      "hit": false,
      "t": 62181.755999999994,
      "d": 545.4539999999979,
      "v": 127
    },
    {
      "midi": 46,
      "hit": false,
      "t": 62181.755999999994,
      "d": 1090.9079999999958,
      "v": 127
    },
    {
      "midi": 36,
      "hit": false,
      "t": 62727.20999999999,
      "d": 545.4539999999979,
      "v": 127
    },
    {
      "midi": 48,
      "hit": false,
      "t": 62727.20999999999,
      "d": 545.4539999999979,
      "v": 127
    },
    {
      "midi": 34,
      "hit": false,
      "t": 63272.66399999999,
      "d": 1090.908000000003,
      "v": 127
    },
    {
      "midi": 43,
      "hit": false,
      "t": 63272.66399999999,
      "d": 1090.908000000003,
      "v": 127
    },
    {
      "midi": 46,
      "hit": false,
      "t": 63272.66399999999,
      "d": 1090.908000000003,
      "v": 127
    },
    {
      "midi": 38,
      "hit": false,
      "t": 64363.57199999999,
      "d": 1090.908000000003,
      "v": 127
    },
    {
      "midi": 46,
      "hit": false,
      "t": 64363.57199999999,
      "d": 1090.908000000003,
      "v": 127
    },
    {
      "midi": 50,
      "hit": false,
      "t": 64363.57199999999,
      "d": 1090.908000000003,
      "v": 127
    },
    {
      "midi": 44,
      "hit": false,
      "t": 65454.479999999996,
      "d": 2181.816000000006,
      "v": 102
    },
    {
      "midi": 51,
      "hit": false,
      "t": 65454.479999999996,
      "d": 2181.816000000006,
      "v": 102
    },
    {
      "midi": 44,
      "hit": false,
      "t": 67636.296,
      "d": 1090.9079999999958,
      "v": 101
    },
    {
      "midi": 51,
      "hit": false,
      "t": 67636.296,
      "d": 1090.9079999999958,
      "v": 101
    },
    {
      "midi": 47,
      "hit": false,
      "t": 68727.204,
      "d": 1090.9079999999958,
      "v": 100
    },
    {
      "midi": 56,
      "hit": false,
      "t": 68727.204,
      "d": 1090.9079999999958,
      "v": 100
    },
    {
      "midi": 49,
      "hit": false,
      "t": 69818.112,
      "d": 1090.9079999999958,
      "v": 100
    },
    {
      "midi": 56,
      "hit": false,
      "t": 69818.112,
      "d": 1090.9079999999958,
      "v": 100
    },
    {
      "midi": 47,
      "hit": false,
      "t": 70909.01999999999,
      "d": 1090.9079999999958,
      "v": 99
    },
    {
      "midi": 59,
      "hit": false,
      "t": 70909.01999999999,
      "d": 1090.9079999999958,
      "v": 99
    },
    {
      "midi": 52,
      "hit": false,
      "t": 71999.92799999999,
      "d": 2181.816000000006,
      "v": 99
    },
    {
      "midi": 59,
      "hit": false,
      "t": 71999.92799999999,
      "d": 2181.816000000006,
      "v": 99
    },
    {
      "midi": 59,
      "hit": false,
      "t": 74181.74399999999,
      "d": 2181.816000000006,
      "v": 98
    },
    {
      "midi": 56,
      "hit": false,
      "t": 76363.56,
      "d": 1090.9079999999958,
      "v": 97
    },
    {
      "midi": 59,
      "hit": false,
      "t": 76363.56,
      "d": 1090.9079999999958,
      "v": 97
    },
    {
      "midi": 54,
      "hit": false,
      "t": 77454.468,
      "d": 1090.9079999999958,
      "v": 106
    },
    {
      "midi": 61,
      "hit": false,
      "t": 77454.468,
      "d": 1090.9079999999958,
      "v": 106
    },
    {
      "midi": 52,
      "hit": false,
      "t": 78545.37599999999,
      "d": 1090.9079999999958,
      "v": 114
    },
    {
      "midi": 64,
      "hit": false,
      "t": 78545.37599999999,
      "d": 1090.9079999999958,
      "v": 114
    },
    {
      "midi": 52,
      "hit": false,
      "t": 79636.28399999999,
      "d": 1090.9079999999958,
      "v": 119
    },
    {
      "midi": 64,
      "hit": false,
      "t": 79636.28399999999,
      "d": 1090.9079999999958,
      "v": 119
    },
    {
      "midi": 57,
      "hit": false,
      "t": 80727.19199999998,
      "d": 1090.9079999999958,
      "v": 119
    },
    {
      "midi": 64,
      "hit": false,
      "t": 80727.19199999998,
      "d": 1090.9079999999958,
      "v": 119
    },
    {
      "midi": 52,
      "hit": false,
      "t": 81818.09999999998,
      "d": 1090.9079999999958,
      "v": 119
    },
    {
      "midi": 64,
      "hit": false,
      "t": 81818.09999999998,
      "d": 1090.9079999999958,
      "v": 119
    },
    {
      "midi": 57,
      "hit": false,
      "t": 82909.00799999997,
      "d": 2181.816000000006,
      "v": 119
    },
    {
      "midi": 64,
      "hit": false,
      "t": 82909.00799999997,
      "d": 2181.816000000006,
      "v": 119
    },
    {
      "midi": 59,
      "hit": false,
      "t": 85090.82399999998,
      "d": 1090.9079999999958,
      "v": 119
    },
    {
      "midi": 62,
      "hit": false,
      "t": 85090.82399999998,
      "d": 1090.9079999999958,
      "v": 119
    },
    {
      "midi": 57,
      "hit": false,
      "t": 86181.73199999997,
      "d": 1090.9079999999958,
      "v": 119
    },
    {
      "midi": 64,
      "hit": false,
      "t": 86181.73199999997,
      "d": 1090.9079999999958,
      "v": 119
    },
    {
      "midi": 52,
      "hit": false,
      "t": 87272.63999999997,
      "d": 2181.816000000006,
      "v": 122
    },
    {
      "midi": 64,
      "hit": false,
      "t": 87272.63999999997,
      "d": 2181.816000000006,
      "v": 122
    },
    {
      "midi": 57,
      "hit": false,
      "t": 89454.45599999998,
      "d": 1090.9079999999958,
      "v": 116
    },
    {
      "midi": 61,
      "hit": false,
      "t": 89454.45599999998,
      "d": 1090.9079999999958,
      "v": 116
    },
    {
      "midi": 52,
      "hit": false,
      "t": 90545.36399999997,
      "d": 1090.9079999999958,
      "v": 114
    },
    {
      "midi": 59,
      "hit": false,
      "t": 90545.36399999997,
      "d": 1090.9079999999958,
      "v": 114
    },
    {
      "midi": 54,
      "hit": false,
      "t": 91636.27199999997,
      "d": 1090.9079999999958,
      "v": 111
    },
    {
      "midi": 57,
      "hit": false,
      "t": 91636.27199999997,
      "d": 1090.9079999999958,
      "v": 111
    },
    {
      "midi": 49,
      "hit": false,
      "t": 92727.17999999996,
      "d": 1090.9079999999958,
      "v": 108
    },
    {
      "midi": 56,
      "hit": false,
      "t": 92727.17999999996,
      "d": 1090.9079999999958,
      "v": 108
    },
    {
      "midi": 51,
      "hit": false,
      "t": 93818.08799999996,
      "d": 2181.816000000006,
      "v": 106
    },
    {
      "midi": 54,
      "hit": false,
      "t": 93818.08799999996,
      "d": 2181.816000000006,
      "v": 106
    },
    {
      "midi": 52,
      "hit": false,
      "t": 95999.90399999997,
      "d": 2181.816000000006,
      "v": 100
    },
    {
      "midi": 56,
      "hit": false,
      "t": 95999.90399999997,
      "d": 2181.816000000006,
      "v": 100
    },
    {
      "midi": 44,
      "hit": false,
      "t": 98181.71999999997,
      "d": 2181.816000000006,
      "v": 95
    },
    {
      "midi": 51,
      "hit": false,
      "t": 98181.71999999997,
      "d": 2181.816000000006,
      "v": 95
    },
    {
      "midi": 44,
      "hit": false,
      "t": 100363.53599999998,
      "d": 1090.9079999999958,
      "v": 89
    },
    {
      "midi": 51,
      "hit": false,
      "t": 100363.53599999998,
      "d": 1090.9079999999958,
      "v": 89
    },
    {
      "midi": 44,
      "hit": false,
      "t": 101454.44399999997,
      "d": 1090.9080000000104,
      "v": 87
    },
    {
      "midi": 51,
      "hit": false,
      "t": 101454.44399999997,
      "d": 1090.9080000000104,
      "v": 87
    },
    {
      "midi": 39,
      "hit": false,
      "t": 102408.98849999998,
      "d": 136.36350000000675,
      "v": 127
    },
    {
      "midi": 39,
      "hit": false,
      "t": 102545.35199999998,
      "d": 2181.816000000006,
      "v": 127
    },
    {
      "midi": 43,
      "hit": false,
      "t": 102545.35199999998,
      "d": 2181.816000000006,
      "v": 127
    },
    {
      "midi": 46,
      "hit": false,
      "t": 102545.35199999998,
      "d": 2181.816000000006,
      "v": 127
    },
    {
      "midi": 51,
      "hit": false,
      "t": 102545.35199999998,
      "d": 2181.816000000006,
      "v": 127
    },
    {
      "midi": 41,
      "hit": false,
      "t": 104590.80449999998,
      "d": 136.36350000000675,
      "v": 125
    },
    {
      "midi": 41,
      "hit": false,
      "t": 104727.16799999999,
      "d": 2181.816000000006,
      "v": 127
    },
    {
      "midi": 46,
      "hit": false,
      "t": 104727.16799999999,
      "d": 2181.816000000006,
      "v": 127
    },
    {
      "midi": 50,
      "hit": false,
      "t": 104727.16799999999,
      "d": 2181.816000000006,
      "v": 127
    },
    {
      "midi": 53,
      "hit": false,
      "t": 104727.16799999999,
      "d": 2181.816000000006,
      "v": 127
    },
    {
      "midi": 43,
      "hit": false,
      "t": 106772.62049999999,
      "d": 136.36350000000675,
      "v": 127
    },
    {
      "midi": 43,
      "hit": false,
      "t": 106908.984,
      "d": 1090.9080000000104,
      "v": 127
    },
    {
      "midi": 46,
      "hit": false,
      "t": 106908.984,
      "d": 1090.9080000000104,
      "v": 127
    },
    {
      "midi": 51,
      "hit": false,
      "t": 106908.984,
      "d": 1090.9080000000104,
      "v": 127
    },
    {
      "midi": 55,
      "hit": false,
      "t": 106908.984,
      "d": 1090.9080000000104,
      "v": 127
    },
    {
      "midi": 39,
      "hit": false,
      "t": 107863.5285,
      "d": 136.36350000000675,
      "v": 127
    },
    {
      "midi": 39,
      "hit": false,
      "t": 107999.892,
      "d": 545.4540000000125,
      "v": 127
    },
    {
      "midi": 46,
      "hit": false,
      "t": 107999.892,
      "d": 545.4540000000125,
      "v": 127
    },
    {
      "midi": 51,
      "hit": false,
      "t": 107999.892,
      "d": 545.4540000000125,
      "v": 127
    },
    {
      "midi": 43,
      "hit": false,
      "t": 108408.98250000001,
      "d": 136.36350000000675,
      "v": 127
    },
    {
      "midi": 43,
      "hit": false,
      "t": 108545.34600000002,
      "d": 545.4540000000125,
      "v": 127
    },
    {
      "midi": 46,
      "hit": false,
      "t": 108545.34600000002,
      "d": 545.4540000000125,
      "v": 127
    },
    {
      "midi": 55,
      "hit": false,
      "t": 108545.34600000002,
      "d": 545.4540000000125,
      "v": 127
    },
    {
      "midi": 41,
      "hit": false,
      "t": 108954.43650000003,
      "d": 136.36350000000675,
      "v": 127
    },
    {
      "midi": 41,
      "hit": false,
      "t": 109090.80000000003,
      "d": 1090.9080000000104,
      "v": 127
    },
    {
      "midi": 46,
      "hit": false,
      "t": 109090.80000000003,
      "d": 1090.9080000000104,
      "v": 127
    },
    {
      "midi": 53,
      "hit": false,
      "t": 109090.80000000003,
      "d": 1090.9080000000104,
      "v": 127
    },
    {
      "midi": 34,
      "hit": false,
      "t": 110045.34450000004,
      "d": 136.36350000000675,
      "v": 127
    },
    {
      "midi": 34,
      "hit": false,
      "t": 110181.70800000004,
      "d": 1090.9079999999958,
      "v": 127
    },
    {
      "midi": 38,
      "hit": false,
      "t": 110181.70800000004,
      "d": 1090.9079999999958,
      "v": 127
    },
    {
      "midi": 46,
      "hit": false,
      "t": 110181.70800000004,
      "d": 1090.9079999999958,
      "v": 127
    },
    {
      "midi": 43,
      "hit": false,
      "t": 111272.61600000004,
      "d": 545.4539999999979,
      "v": 127
    },
    {
      "midi": 46,
      "hit": false,
      "t": 111272.61600000004,
      "d": 545.4539999999979,
      "v": 127
    },
    {
      "midi": 55,
      "hit": false,
      "t": 111272.61600000004,
      "d": 545.4539999999979,
      "v": 127
    },
    {
      "midi": 46,
      "hit": false,
      "t": 111818.07000000004,
      "d": 545.4539999999979,
      "v": 127
    },
    {
      "midi": 51,
      "hit": false,
      "t": 111818.07000000004,
      "d": 545.4539999999979,
      "v": 127
    },
    {
      "midi": 58,
      "hit": false,
      "t": 111818.07000000004,
      "d": 545.4539999999979,
      "v": 127
    },
    {
      "midi": 41,
      "hit": false,
      "t": 112363.52400000003,
      "d": 545.4539999999979,
      "v": 127
    },
    {
      "midi": 53,
      "hit": false,
      "t": 112363.52400000003,
      "d": 545.4539999999979,
      "v": 127
    },
    {
      "midi": 46,
      "hit": false,
      "t": 112363.52400000003,
      "d": 1090.9080000000104,
      "v": 127
    },
    {
      "midi": 39,
      "hit": false,
      "t": 112908.97800000003,
      "d": 545.4540000000125,
      "v": 127
    },
    {
      "midi": 51,
      "hit": false,
      "t": 112908.97800000003,
      "d": 545.4540000000125,
      "v": 127
    },
    {
      "midi": 38,
      "hit": false,
      "t": 113318.06850000004,
      "d": 136.36350000000675,
      "v": 127
    },
    {
      "midi": 38,
      "hit": false,
      "t": 113454.43200000004,
      "d": 1090.9080000000104,
      "v": 127
    },
    {
      "midi": 46,
      "hit": false,
      "t": 113454.43200000004,
      "d": 1090.9080000000104,
      "v": 127
    },
    {
      "midi": 50,
      "hit": false,
      "t": 113454.43200000004,
      "d": 1090.9080000000104,
      "v": 127
    },
    {
      "midi": 34,
      "hit": false,
      "t": 114408.97650000005,
      "d": 136.36350000000675,
      "v": 127
    },
    {
      "midi": 34,
      "hit": false,
      "t": 114545.34000000005,
      "d": 1090.9079999999958,
      "v": 127
    },
    {
      "midi": 43,
      "hit": false,
      "t": 114545.34000000005,
      "d": 1090.9079999999958,
      "v": 127
    },
    {
      "midi": 46,
      "hit": false,
      "t": 114545.34000000005,
      "d": 1090.9079999999958,
      "v": 127
    },
    {
      "midi": 43,
      "hit": false,
      "t": 115636.24800000005,
      "d": 545.4539999999979,
      "v": 127
    },
    {
      "midi": 55,
      "hit": false,
      "t": 115636.24800000005,
      "d": 545.4539999999979,
      "v": 127
    },
    {
      "midi": 51,
      "hit": false,
      "t": 115636.24800000005,
      "d": 1090.9079999999958,
      "v": 127
    },
    {
      "midi": 46,
      "hit": false,
      "t": 116181.70200000005,
      "d": 545.4539999999979,
      "v": 127
    },
    {
      "midi": 58,
      "hit": false,
      "t": 116181.70200000005,
      "d": 545.4539999999979,
      "v": 127
    },
    {
      "midi": 41,
      "hit": false,
      "t": 116727.15600000005,
      "d": 545.4539999999979,
      "v": 127
    },
    {
      "midi": 53,
      "hit": false,
      "t": 116727.15600000005,
      "d": 545.4539999999979,
      "v": 127
    },
    {
      "midi": 46,
      "hit": false,
      "t": 116727.15600000005,
      "d": 1090.9080000000104,
      "v": 127
    },
    {
      "midi": 39,
      "hit": false,
      "t": 117272.61000000004,
      "d": 545.4540000000125,
      "v": 127
    },
    {
      "midi": 51,
      "hit": false,
      "t": 117272.61000000004,
      "d": 545.4540000000125,
      "v": 127
    },
    {
      "midi": 38,
      "hit": false,
      "t": 117681.70050000005,
      "d": 136.36350000000675,
      "v": 127
    },
    {
      "midi": 38,
      "hit": false,
      "t": 117818.06400000006,
      "d": 1090.9080000000104,
      "v": 127
    },
    {
      "midi": 46,
      "hit": false,
      "t": 117818.06400000006,
      "d": 1090.9080000000104,
      "v": 127
    },
    {
      "midi": 50,
      "hit": false,
      "t": 117818.06400000006,
      "d": 1090.9080000000104,
      "v": 127
    },
    {
      "midi": 34,
      "hit": false,
      "t": 118772.60850000006,
      "d": 136.36350000000675,
      "v": 127
    },
    {
      "midi": 34,
      "hit": false,
      "t": 118908.97200000007,
      "d": 1090.9079999999958,
      "v": 127
    },
    {
      "midi": 43,
      "hit": false,
      "t": 118908.97200000007,
      "d": 1090.9079999999958,
      "v": 127
    },
    {
      "midi": 46,
      "hit": false,
      "t": 118908.97200000007,
      "d": 1090.9079999999958,
      "v": 127
    },
    {
      "midi": 62,
      "hit": false,
      "t": 120272.60700000006,
      "d": 272.72699999999895,
      "v": 111
    },
    {
      "midi": 74,
      "hit": false,
      "t": 120272.60700000006,
      "d": 272.72699999999895,
      "v": 111
    },
    {
      "midi": 60,
      "hit": false,
      "t": 120545.33400000006,
      "d": 272.72699999999895,
      "v": 111
    },
    {
      "midi": 72,
      "hit": false,
      "t": 120545.33400000006,
      "d": 272.72699999999895,
      "v": 111
    },
    {
      "midi": 58,
      "hit": false,
      "t": 120818.06100000006,
      "d": 272.72699999999895,
      "v": 111
    },
    {
      "midi": 70,
      "hit": false,
      "t": 120818.06100000006,
      "d": 272.72699999999895,
      "v": 111
    },
    {
      "midi": 56,
      "hit": false,
      "t": 121090.78800000006,
      "d": 272.72699999999895,
      "v": 111
    },
    {
      "midi": 68,
      "hit": false,
      "t": 121090.78800000006,
      "d": 272.72699999999895,
      "v": 111
    },
    {
      "midi": 55,
      "hit": false,
      "t": 121363.51500000006,
      "d": 272.72699999999895,
      "v": 111
    },
    {
      "midi": 67,
      "hit": false,
      "t": 121363.51500000006,
      "d": 272.72699999999895,
      "v": 111
    },
    {
      "midi": 53,
      "hit": false,
      "t": 121636.24200000006,
      "d": 272.72699999999895,
      "v": 111
    },
    {
      "midi": 65,
      "hit": false,
      "t": 121636.24200000006,
      "d": 272.72699999999895,
      "v": 111
    },
    {
      "midi": 51,
      "hit": false,
      "t": 121908.96900000006,
      "d": 272.72699999999895,
      "v": 111
    },
    {
      "midi": 63,
      "hit": false,
      "t": 121908.96900000006,
      "d": 272.72699999999895,
      "v": 111
    },
    {
      "midi": 50,
      "hit": false,
      "t": 122181.69600000005,
      "d": 272.72699999999895,
      "v": 111
    },
    {
      "midi": 62,
      "hit": false,
      "t": 122181.69600000005,
      "d": 272.72699999999895,
      "v": 111
    },
    {
      "midi": 48,
      "hit": false,
      "t": 122454.42300000005,
      "d": 272.72699999999895,
      "v": 111
    },
    {
      "midi": 60,
      "hit": false,
      "t": 122454.42300000005,
      "d": 272.72699999999895,
      "v": 111
    },
    {
      "midi": 46,
      "hit": false,
      "t": 122727.15000000005,
      "d": 272.72699999999895,
      "v": 111
    },
    {
      "midi": 58,
      "hit": false,
      "t": 122727.15000000005,
      "d": 272.72699999999895,
      "v": 111
    },
    {
      "midi": 44,
      "hit": false,
      "t": 122999.87700000005,
      "d": 272.72699999999895,
      "v": 111
    },
    {
      "midi": 56,
      "hit": false,
      "t": 122999.87700000005,
      "d": 272.72699999999895,
      "v": 111
    },
    {
      "midi": 43,
      "hit": false,
      "t": 123272.60400000005,
      "d": 272.72699999999895,
      "v": 111
    },
    {
      "midi": 55,
      "hit": false,
      "t": 123272.60400000005,
      "d": 272.72699999999895,
      "v": 111
    },
    {
      "midi": 41,
      "hit": false,
      "t": 123545.33100000005,
      "d": 272.72699999999895,
      "v": 111
    },
    {
      "midi": 53,
      "hit": false,
      "t": 123545.33100000005,
      "d": 272.72699999999895,
      "v": 111
    },
    {
      "midi": 39,
      "hit": false,
      "t": 123818.05800000005,
      "d": 272.72699999999895,
      "v": 111
    },
    {
      "midi": 51,
      "hit": false,
      "t": 123818.05800000005,
      "d": 272.72699999999895,
      "v": 111
    },
    {
      "midi": 38,
      "hit": false,
      "t": 124090.78500000005,
      "d": 272.72699999999895,
      "v": 111
    },
    {
      "midi": 50,
      "hit": false,
      "t": 124090.78500000005,
      "d": 272.72699999999895,
      "v": 111
    },
    {
      "midi": 36,
      "hit": false,
      "t": 124363.51200000005,
      "d": 272.72699999999895,
      "v": 111
    },
    {
      "midi": 48,
      "hit": false,
      "t": 124363.51200000005,
      "d": 272.72699999999895,
      "v": 111
    },
    {
      "midi": 34,
      "hit": false,
      "t": 124636.23900000005,
      "d": 272.72699999999895,
      "v": 111
    },
    {
      "midi": 46,
      "hit": false,
      "t": 124636.23900000005,
      "d": 272.72699999999895,
      "v": 111
    },
    {
      "midi": 32,
      "hit": false,
      "t": 124908.96600000004,
      "d": 272.72699999999895,
      "v": 111
    },
    {
      "midi": 44,
      "hit": false,
      "t": 124908.96600000004,
      "d": 272.72699999999895,
      "v": 111
    },
    {
      "midi": 31,
      "hit": false,
      "t": 125181.69300000004,
      "d": 272.72699999999895,
      "v": 111
    },
    {
      "midi": 43,
      "hit": false,
      "t": 125181.69300000004,
      "d": 272.72699999999895,
      "v": 111
    },
    {
      "midi": 29,
      "hit": false,
      "t": 125454.42000000004,
      "d": 272.72699999999895,
      "v": 111
    },
    {
      "midi": 41,
      "hit": false,
      "t": 125454.42000000004,
      "d": 272.72699999999895,
      "v": 111
    },
    {
      "midi": 27,
      "hit": false,
      "t": 125727.14700000004,
      "d": 272.72699999999895,
      "v": 111
    },
    {
      "midi": 39,
      "hit": false,
      "t": 125727.14700000004,
      "d": 272.72699999999895,
      "v": 111
    },
    {
      "midi": 26,
      "hit": false,
      "t": 125999.87400000004,
      "d": 272.72699999999895,
      "v": 111
    },
    {
      "midi": 38,
      "hit": false,
      "t": 125999.87400000004,
      "d": 272.72699999999895,
      "v": 111
    },
    {
      "midi": 24,
      "hit": false,
      "t": 126272.60100000004,
      "d": 272.72699999999895,
      "v": 111
    },
    {
      "midi": 36,
      "hit": false,
      "t": 126272.60100000004,
      "d": 272.72699999999895,
      "v": 111
    },
    {
      "midi": 26,
      "hit": false,
      "t": 126545.32800000004,
      "d": 272.72699999999895,
      "v": 111
    },
    {
      "midi": 38,
      "hit": false,
      "t": 126545.32800000004,
      "d": 272.72699999999895,
      "v": 111
    },
    {
      "midi": 27,
      "hit": false,
      "t": 126818.05500000004,
      "d": 272.72699999999895,
      "v": 111
    },
    {
      "midi": 39,
      "hit": false,
      "t": 126818.05500000004,
      "d": 272.72699999999895,
      "v": 111
    },
    {
      "midi": 29,
      "hit": false,
      "t": 127090.78200000004,
      "d": 272.72699999999895,
      "v": 111
    },
    {
      "midi": 41,
      "hit": false,
      "t": 127090.78200000004,
      "d": 272.72699999999895,
      "v": 111
    },
    {
      "midi": 31,
      "hit": false,
      "t": 127363.50900000003,
      "d": 272.72699999999895,
      "v": 111
    },
    {
      "midi": 43,
      "hit": false,
      "t": 127363.50900000003,
      "d": 272.72699999999895,
      "v": 111
    },
    {
      "midi": 33,
      "hit": false,
      "t": 127636.23600000003,
      "d": 272.72699999999895,
      "v": 111
    },
    {
      "midi": 45,
      "hit": false,
      "t": 127636.23600000003,
      "d": 272.72699999999895,
      "v": 111
    },
    {
      "midi": 34,
      "hit": false,
      "t": 127908.96300000003,
      "d": 272.72699999999895,
      "v": 111
    },
    {
      "midi": 46,
      "hit": false,
      "t": 127908.96300000003,
      "d": 272.72699999999895,
      "v": 111
    },
    {
      "midi": 36,
      "hit": false,
      "t": 128181.69000000003,
      "d": 272.72699999999895,
      "v": 111
    },
    {
      "midi": 48,
      "hit": false,
      "t": 128181.69000000003,
      "d": 272.72699999999895,
      "v": 111
    },
    {
      "midi": 38,
      "hit": false,
      "t": 128454.41700000003,
      "d": 272.72699999999895,
      "v": 111
    },
    {
      "midi": 50,
      "hit": false,
      "t": 128454.41700000003,
      "d": 272.72699999999895,
      "v": 111
    },
    {
      "midi": 39,
      "hit": false,
      "t": 128727.14400000003,
      "d": 272.72699999999895,
      "v": 111
    },
    {
      "midi": 51,
      "hit": false,
      "t": 128727.14400000003,
      "d": 272.72699999999895,
      "v": 111
    },
    {
      "midi": 41,
      "hit": false,
      "t": 128999.87100000003,
      "d": 272.72699999999895,
      "v": 111
    },
    {
      "midi": 53,
      "hit": false,
      "t": 128999.87100000003,
      "d": 272.72699999999895,
      "v": 111
    },
    {
      "midi": 43,
      "hit": false,
      "t": 129272.59800000003,
      "d": 272.72699999999895,
      "v": 111
    },
    {
      "midi": 55,
      "hit": false,
      "t": 129272.59800000003,
      "d": 272.72699999999895,
      "v": 111
    },
    {
      "midi": 44,
      "hit": false,
      "t": 129545.32500000003,
      "d": 272.72699999999895,
      "v": 111
    },
    {
      "midi": 56,
      "hit": false,
      "t": 129545.32500000003,
      "d": 272.72699999999895,
      "v": 111
    },
    {
      "midi": 46,
      "hit": false,
      "t": 129818.05200000003,
      "d": 272.72699999999895,
      "v": 111
    },
    {
      "midi": 58,
      "hit": false,
      "t": 129818.05200000003,
      "d": 272.72699999999895,
      "v": 111
    },
    {
      "midi": 48,
      "hit": false,
      "t": 130090.77900000002,
      "d": 272.72699999999895,
      "v": 111
    },
    {
      "midi": 60,
      "hit": false,
      "t": 130090.77900000002,
      "d": 272.72699999999895,
      "v": 111
    },
    {
      "midi": 50,
      "hit": false,
      "t": 130363.50600000002,
      "d": 272.72699999999895,
      "v": 111
    },
    {
      "midi": 62,
      "hit": false,
      "t": 130363.50600000002,
      "d": 272.72699999999895,
      "v": 111
    },
    {
      "midi": 46,
      "hit": false,
      "t": 130636.23300000002,
      "d": 272.72699999999895,
      "v": 111
    },
    {
      "midi": 58,
      "hit": false,
      "t": 130636.23300000002,
      "d": 272.72699999999895,
      "v": 111
    },
    {
      "midi": 44,
      "hit": false,
      "t": 130908.96000000002,
      "d": 272.7270000000135,
      "v": 111
    },
    {
      "midi": 56,
      "hit": false,
      "t": 130908.96000000002,
      "d": 272.7270000000135,
      "v": 111
    },
    {
      "midi": 43,
      "hit": false,
      "t": 131181.68700000003,
      "d": 272.7270000000135,
      "v": 111
    },
    {
      "midi": 55,
      "hit": false,
      "t": 131181.68700000003,
      "d": 272.7270000000135,
      "v": 111
    },
    {
      "midi": 41,
      "hit": false,
      "t": 131454.41400000005,
      "d": 272.7270000000135,
      "v": 111
    },
    {
      "midi": 53,
      "hit": false,
      "t": 131454.41400000005,
      "d": 272.7270000000135,
      "v": 111
    },
    {
      "midi": 39,
      "hit": false,
      "t": 131727.14100000006,
      "d": 272.7270000000135,
      "v": 111
    },
    {
      "midi": 51,
      "hit": false,
      "t": 131727.14100000006,
      "d": 272.7270000000135,
      "v": 111
    },
    {
      "midi": 38,
      "hit": false,
      "t": 131999.86800000007,
      "d": 272.7270000000135,
      "v": 111
    },
    {
      "midi": 50,
      "hit": false,
      "t": 131999.86800000007,
      "d": 272.7270000000135,
      "v": 111
    },
    {
      "midi": 36,
      "hit": false,
      "t": 132272.5950000001,
      "d": 272.7270000000135,
      "v": 111
    },
    {
      "midi": 48,
      "hit": false,
      "t": 132272.5950000001,
      "d": 272.7270000000135,
      "v": 111
    },
    {
      "midi": 34,
      "hit": false,
      "t": 132545.3220000001,
      "d": 272.7270000000135,
      "v": 111
    },
    {
      "midi": 46,
      "hit": false,
      "t": 132545.3220000001,
      "d": 272.7270000000135,
      "v": 111
    },
    {
      "midi": 32,
      "hit": false,
      "t": 132818.04900000012,
      "d": 272.7270000000135,
      "v": 111
    },
    {
      "midi": 44,
      "hit": false,
      "t": 132818.04900000012,
      "d": 272.7270000000135,
      "v": 111
    },
    {
      "midi": 31,
      "hit": false,
      "t": 133090.77600000013,
      "d": 272.7270000000135,
      "v": 111
    },
    {
      "midi": 43,
      "hit": false,
      "t": 133090.77600000013,
      "d": 272.7270000000135,
      "v": 111
    },
    {
      "midi": 29,
      "hit": false,
      "t": 133363.50300000014,
      "d": 272.7270000000135,
      "v": 111
    },
    {
      "midi": 41,
      "hit": false,
      "t": 133363.50300000014,
      "d": 272.7270000000135,
      "v": 111
    },
    {
      "midi": 27,
      "hit": false,
      "t": 133636.23000000016,
      "d": 272.7270000000135,
      "v": 111
    },
    {
      "midi": 39,
      "hit": false,
      "t": 133636.23000000016,
      "d": 272.7270000000135,
      "v": 111
    },
    {
      "midi": 26,
      "hit": false,
      "t": 133908.95700000017,
      "d": 272.7270000000135,
      "v": 111
    },
    {
      "midi": 38,
      "hit": false,
      "t": 133908.95700000017,
      "d": 272.7270000000135,
      "v": 111
    },
    {
      "midi": 27,
      "hit": false,
      "t": 134181.68400000018,
      "d": 272.7270000000135,
      "v": 111
    },
    {
      "midi": 39,
      "hit": false,
      "t": 134181.68400000018,
      "d": 272.7270000000135,
      "v": 111
    },
    {
      "midi": 28,
      "hit": false,
      "t": 134454.4110000002,
      "d": 272.7270000000135,
      "v": 111
    },
    {
      "midi": 40,
      "hit": false,
      "t": 134454.4110000002,
      "d": 272.7270000000135,
      "v": 111
    },
    {
      "midi": 29,
      "hit": false,
      "t": 134727.1380000002,
      "d": 272.7270000000135,
      "v": 111
    },
    {
      "midi": 41,
      "hit": false,
      "t": 134727.1380000002,
      "d": 272.7270000000135,
      "v": 111
    },
    {
      "midi": 31,
      "hit": false,
      "t": 134999.86500000022,
      "d": 272.7270000000135,
      "v": 111
    },
    {
      "midi": 43,
      "hit": false,
      "t": 134999.86500000022,
      "d": 272.7270000000135,
      "v": 111
    },
    {
      "midi": 32,
      "hit": false,
      "t": 135272.59200000024,
      "d": 272.7270000000135,
      "v": 111
    },
    {
      "midi": 44,
      "hit": false,
      "t": 135272.59200000024,
      "d": 272.7270000000135,
      "v": 111
    },
    {
      "midi": 34,
      "hit": false,
      "t": 135545.31900000025,
      "d": 272.7270000000135,
      "v": 111
    },
    {
      "midi": 46,
      "hit": false,
      "t": 135545.31900000025,
      "d": 272.7270000000135,
      "v": 111
    },
    {
      "midi": 36,
      "hit": false,
      "t": 135818.04600000026,
      "d": 272.7270000000135,
      "v": 111
    },
    {
      "midi": 48,
      "hit": false,
      "t": 135818.04600000026,
      "d": 272.7270000000135,
      "v": 111
    },
    {
      "midi": 38,
      "hit": false,
      "t": 136090.77300000028,
      "d": 272.7270000000135,
      "v": 111
    },
    {
      "midi": 50,
      "hit": false,
      "t": 136090.77300000028,
      "d": 272.7270000000135,
      "v": 111
    },
    {
      "midi": 39,
      "hit": false,
      "t": 136363.5000000003,
      "d": 272.7270000000135,
      "v": 111
    },
    {
      "midi": 51,
      "hit": false,
      "t": 136363.5000000003,
      "d": 272.7270000000135,
      "v": 111
    },
    {
      "midi": 41,
      "hit": false,
      "t": 136636.2270000003,
      "d": 272.7270000000135,
      "v": 111
    },
    {
      "midi": 53,
      "hit": false,
      "t": 136636.2270000003,
      "d": 272.7270000000135,
      "v": 111
    },
    {
      "midi": 43,
      "hit": false,
      "t": 136908.95400000032,
      "d": 272.7270000000135,
      "v": 111
    },
    {
      "midi": 55,
      "hit": false,
      "t": 136908.95400000032,
      "d": 272.7270000000135,
      "v": 111
    },
    {
      "midi": 44,
      "hit": false,
      "t": 137181.68100000033,
      "d": 272.7270000000135,
      "v": 111
    },
    {
      "midi": 56,
      "hit": false,
      "t": 137181.68100000033,
      "d": 272.7270000000135,
      "v": 111
    },
    {
      "midi": 46,
      "hit": false,
      "t": 137454.40800000035,
      "d": 272.7270000000135,
      "v": 111
    },
    {
      "midi": 58,
      "hit": false,
      "t": 137454.40800000035,
      "d": 272.7270000000135,
      "v": 111
    },
    {
      "midi": 48,
      "hit": false,
      "t": 137727.13500000036,
      "d": 272.7270000000135,
      "v": 111
    },
    {
      "midi": 60,
      "hit": false,
      "t": 137727.13500000036,
      "d": 272.7270000000135,
      "v": 111
    },
    {
      "midi": 50,
      "hit": false,
      "t": 137999.86200000037,
      "d": 272.7270000000135,
      "v": 111
    },
    {
      "midi": 62,
      "hit": false,
      "t": 137999.86200000037,
      "d": 272.7270000000135,
      "v": 111
    },
    {
      "midi": 51,
      "hit": false,
      "t": 138272.5890000004,
      "d": 272.7270000000135,
      "v": 111
    },
    {
      "midi": 63,
      "hit": false,
      "t": 138272.5890000004,
      "d": 272.7270000000135,
      "v": 111
    },
    {
      "midi": 53,
      "hit": false,
      "t": 138545.3160000004,
      "d": 272.7270000000135,
      "v": 111
    },
    {
      "midi": 65,
      "hit": false,
      "t": 138545.3160000004,
      "d": 272.7270000000135,
      "v": 111
    },
    {
      "midi": 55,
      "hit": false,
      "t": 138818.0430000004,
      "d": 272.7270000000135,
      "v": 111
    },
    {
      "midi": 67,
      "hit": false,
      "t": 138818.0430000004,
      "d": 272.7270000000135,
      "v": 111
    },
    {
      "midi": 56,
      "hit": false,
      "t": 139090.77000000043,
      "d": 272.7270000000135,
      "v": 111
    },
    {
      "midi": 68,
      "hit": false,
      "t": 139090.77000000043,
      "d": 272.7270000000135,
      "v": 111
    },
    {
      "midi": 58,
      "hit": false,
      "t": 139363.49700000044,
      "d": 272.7270000000135,
      "v": 111
    },
    {
      "midi": 70,
      "hit": false,
      "t": 139363.49700000044,
      "d": 272.7270000000135,
      "v": 111
    },
    {
      "midi": 51,
      "hit": false,
      "t": 139636.22400000045,
      "d": 2181.8159999999916,
      "v": 127
    },
    {
      "midi": 58,
      "hit": false,
      "t": 139636.22400000045,
      "d": 2181.8159999999916,
      "v": 127
    },
    {
      "midi": 51,
      "hit": false,
      "t": 141818.04000000044,
      "d": 1090.9079999999958,
      "v": 127
    },
    {
      "midi": 58,
      "hit": false,
      "t": 141818.04000000044,
      "d": 1090.9079999999958,
      "v": 127
    },
    {
      "midi": 54,
      "hit": false,
      "t": 142908.94800000044,
      "d": 1090.9079999999958,
      "v": 127
    },
    {
      "midi": 63,
      "hit": false,
      "t": 142908.94800000044,
      "d": 1090.9079999999958,
      "v": 127
    },
    {
      "midi": 56,
      "hit": false,
      "t": 143999.85600000044,
      "d": 1090.9079999999958,
      "v": 122
    },
    {
      "midi": 63,
      "hit": false,
      "t": 143999.85600000044,
      "d": 1090.9079999999958,
      "v": 122
    },
    {
      "midi": 54,
      "hit": false,
      "t": 145090.76400000043,
      "d": 1090.9079999999958,
      "v": 114
    },
    {
      "midi": 66,
      "hit": false,
      "t": 145090.76400000043,
      "d": 1090.9079999999958,
      "v": 114
    },
    {
      "midi": 59,
      "hit": false,
      "t": 146181.67200000043,
      "d": 2181.8159999999916,
      "v": 114
    },
    {
      "midi": 66,
      "hit": false,
      "t": 146181.67200000043,
      "d": 2181.8159999999916,
      "v": 114
    },
    {
      "midi": 66,
      "hit": false,
      "t": 148363.48800000042,
      "d": 2181.8159999999916,
      "v": 111
    },
    {
      "midi": 63,
      "hit": false,
      "t": 150545.3040000004,
      "d": 1090.9079999999958,
      "v": 111
    },
    {
      "midi": 66,
      "hit": false,
      "t": 150545.3040000004,
      "d": 1090.9079999999958,
      "v": 111
    },
    {
      "midi": 61,
      "hit": false,
      "t": 151636.2120000004,
      "d": 1090.9079999999958,
      "v": 119
    },
    {
      "midi": 68,
      "hit": false,
      "t": 151636.2120000004,
      "d": 1090.9079999999958,
      "v": 119
    },
    {
      "midi": 59,
      "hit": false,
      "t": 152727.1200000004,
      "d": 1090.9079999999958,
      "v": 126
    },
    {
      "midi": 71,
      "hit": false,
      "t": 152727.1200000004,
      "d": 1090.9079999999958,
      "v": 126
    },
    {
      "midi": 59,
      "hit": false,
      "t": 153818.0280000004,
      "d": 1090.9079999999958,
      "v": 127
    },
    {
      "midi": 71,
      "hit": false,
      "t": 153818.0280000004,
      "d": 1090.9079999999958,
      "v": 127
    },
    {
      "midi": 64,
      "hit": false,
      "t": 154908.9360000004,
      "d": 1090.9079999999958,
      "v": 127
    },
    {
      "midi": 71,
      "hit": false,
      "t": 154908.9360000004,
      "d": 1090.9079999999958,
      "v": 127
    },
    {
      "midi": 59,
      "hit": false,
      "t": 155999.8440000004,
      "d": 1090.9079999999958,
      "v": 127
    },
    {
      "midi": 71,
      "hit": false,
      "t": 155999.8440000004,
      "d": 1090.9079999999958,
      "v": 127
    },
    {
      "midi": 64,
      "hit": false,
      "t": 157090.7520000004,
      "d": 2181.8159999999916,
      "v": 127
    },
    {
      "midi": 71,
      "hit": false,
      "t": 157090.7520000004,
      "d": 2181.8159999999916,
      "v": 127
    },
    {
      "midi": 66,
      "hit": false,
      "t": 159272.56800000038,
      "d": 1090.9079999999958,
      "v": 127
    },
    {
      "midi": 69,
      "hit": false,
      "t": 159272.56800000038,
      "d": 1090.9079999999958,
      "v": 127
    },
    {
      "midi": 64,
      "hit": false,
      "t": 160363.47600000037,
      "d": 1090.9079999999958,
      "v": 127
    },
    {
      "midi": 71,
      "hit": false,
      "t": 160363.47600000037,
      "d": 1090.9079999999958,
      "v": 127
    },
    {
      "midi": 59,
      "hit": false,
      "t": 161454.38400000037,
      "d": 2181.8159999999916,
      "v": 127
    },
    {
      "midi": 71,
      "hit": false,
      "t": 161454.38400000037,
      "d": 2181.8159999999916,
      "v": 127
    },
    {
      "midi": 64,
      "hit": false,
      "t": 163636.20000000036,
      "d": 1090.9079999999958,
      "v": 127
    },
    {
      "midi": 68,
      "hit": false,
      "t": 163636.20000000036,
      "d": 1090.9079999999958,
      "v": 127
    },
    {
      "midi": 59,
      "hit": false,
      "t": 164727.10800000036,
      "d": 1090.9079999999958,
      "v": 127
    },
    {
      "midi": 66,
      "hit": false,
      "t": 164727.10800000036,
      "d": 1090.9079999999958,
      "v": 127
    },
    {
      "midi": 61,
      "hit": false,
      "t": 165818.01600000035,
      "d": 1090.9079999999958,
      "v": 127
    },
    {
      "midi": 64,
      "hit": false,
      "t": 165818.01600000035,
      "d": 1090.9079999999958,
      "v": 127
    },
    {
      "midi": 56,
      "hit": false,
      "t": 166908.92400000035,
      "d": 1090.9079999999958,
      "v": 127
    },
    {
      "midi": 63,
      "hit": false,
      "t": 166908.92400000035,
      "d": 1090.9079999999958,
      "v": 127
    },
    {
      "midi": 58,
      "hit": false,
      "t": 167999.83200000034,
      "d": 2181.8159999999916,
      "v": 127
    },
    {
      "midi": 61,
      "hit": false,
      "t": 167999.83200000034,
      "d": 2181.8159999999916,
      "v": 127
    },
    {
      "midi": 59,
      "hit": false,
      "t": 170181.64800000034,
      "d": 2181.8159999999916,
      "v": 121
    },
    {
      "midi": 63,
      "hit": false,
      "t": 170181.64800000034,
      "d": 2181.8159999999916,
      "v": 121
    },
    {
      "midi": 51,
      "hit": false,
      "t": 172363.46400000033,
      "d": 2181.8159999999916,
      "v": 111
    },
    {
      "midi": 58,
      "hit": false,
      "t": 172363.46400000033,
      "d": 2181.8159999999916,
      "v": 111
    },
    {
      "midi": 51,
      "hit": false,
      "t": 174545.28000000032,
      "d": 1090.9079999999958,
      "v": 102
    },
    {
      "midi": 58,
      "hit": false,
      "t": 174545.28000000032,
      "d": 1090.9079999999958,
      "v": 102
    },
    {
      "midi": 51,
      "hit": false,
      "t": 175636.18800000031,
      "d": 1090.9079999999958,
      "v": 127
    },
    {
      "midi": 58,
      "hit": false,
      "t": 175636.18800000031,
      "d": 1090.9079999999958,
      "v": 127
    },
    {
      "midi": 59,
      "hit": false,
      "t": 176727.0960000003,
      "d": 2181.8159999999916,
      "v": 127
    },
    {
      "midi": 44,
      "hit": false,
      "t": 177818.0040000003,
      "d": 1090.9079999999958,
      "v": 127
    },
    {
      "midi": 56,
      "hit": false,
      "t": 178908.9120000003,
      "d": 2181.8159999999916,
      "v": 127
    },
    {
      "midi": 35,
      "hit": false,
      "t": 179999.8200000003,
      "d": 1090.9079999999958,
      "v": 127
    },
    {
      "midi": 59,
      "hit": false,
      "t": 181090.7280000003,
      "d": 2181.8159999999916,
      "v": 127
    },
    {
      "midi": 44,
      "hit": false,
      "t": 182181.6360000003,
      "d": 1090.9079999999958,
      "v": 127
    },
    {
      "midi": 56,
      "hit": false,
      "t": 183272.5440000003,
      "d": 2181.8159999999916,
      "v": 127
    },
    {
      "midi": 35,
      "hit": false,
      "t": 184363.45200000028,
      "d": 1090.9079999999958,
      "v": 127
    },
    {
      "midi": 53,
      "hit": false,
      "t": 185454.36000000028,
      "d": 2181.8159999999916,
      "v": 127
    },
    {
      "midi": 59,
      "hit": false,
      "t": 185454.36000000028,
      "d": 2181.8159999999916,
      "v": 127
    },
    {
      "midi": 63,
      "hit": false,
      "t": 185454.36000000028,
      "d": 2181.8159999999916,
      "v": 127
    },
    {
      "midi": 44,
      "hit": false,
      "t": 186545.26800000027,
      "d": 1090.9079999999958,
      "v": 127
    },
    {
      "midi": 52,
      "hit": false,
      "t": 187636.17600000027,
      "d": 2181.8159999999916,
      "v": 108
    },
    {
      "midi": 56,
      "hit": false,
      "t": 187636.17600000027,
      "d": 2181.8159999999916,
      "v": 108
    },
    {
      "midi": 63,
      "hit": false,
      "t": 187636.17600000027,
      "d": 2181.8159999999916,
      "v": 108
    },
    {
      "midi": 35,
      "hit": false,
      "t": 188727.08400000026,
      "d": 1090.9079999999958,
      "v": 109
    },
    {
      "midi": 53,
      "hit": false,
      "t": 189817.99200000026,
      "d": 2181.8159999999916,
      "v": 110
    },
    {
      "midi": 59,
      "hit": false,
      "t": 189817.99200000026,
      "d": 2181.8159999999916,
      "v": 110
    },
    {
      "midi": 63,
      "hit": false,
      "t": 189817.99200000026,
      "d": 2181.8159999999916,
      "v": 110
    },
    {
      "midi": 44,
      "hit": false,
      "t": 190908.90000000026,
      "d": 1090.9079999999958,
      "v": 111
    },
    {
      "midi": 52,
      "hit": false,
      "t": 191999.80800000025,
      "d": 2181.8159999999916,
      "v": 113
    },
    {
      "midi": 56,
      "hit": false,
      "t": 191999.80800000025,
      "d": 2181.8159999999916,
      "v": 113
    },
    {
      "midi": 63,
      "hit": false,
      "t": 191999.80800000025,
      "d": 2181.8159999999916,
      "v": 113
    },
    {
      "midi": 35,
      "hit": false,
      "t": 193090.71600000025,
      "d": 1090.9079999999958,
      "v": 114
    },
    {
      "midi": 53,
      "hit": false,
      "t": 194181.62400000024,
      "d": 2181.8159999999916,
      "v": 115
    },
    {
      "midi": 59,
      "hit": false,
      "t": 194181.62400000024,
      "d": 2181.8159999999916,
      "v": 115
    },
    {
      "midi": 63,
      "hit": false,
      "t": 194181.62400000024,
      "d": 2181.8159999999916,
      "v": 115
    },
    {
      "midi": 44,
      "hit": false,
      "t": 195272.53200000024,
      "d": 1090.9079999999958,
      "v": 116
    },
    {
      "midi": 52,
      "hit": false,
      "t": 196363.44000000024,
      "d": 2181.8159999999916,
      "v": 117
    },
    {
      "midi": 56,
      "hit": false,
      "t": 196363.44000000024,
      "d": 2181.8159999999916,
      "v": 117
    },
    {
      "midi": 63,
      "hit": false,
      "t": 196363.44000000024,
      "d": 2181.8159999999916,
      "v": 117
    },
    {
      "midi": 35,
      "hit": false,
      "t": 197454.34800000023,
      "d": 1090.9079999999958,
      "v": 118
    },
    {
      "midi": 53,
      "hit": false,
      "t": 198545.25600000023,
      "d": 2181.8159999999916,
      "v": 119
    },
    {
      "midi": 59,
      "hit": false,
      "t": 198545.25600000023,
      "d": 2181.8159999999916,
      "v": 119
    },
    {
      "midi": 63,
      "hit": false,
      "t": 198545.25600000023,
      "d": 2181.8159999999916,
      "v": 119
    },
    {
      "midi": 44,
      "hit": false,
      "t": 199636.16400000022,
      "d": 1090.9079999999958,
      "v": 120
    },
    {
      "midi": 52,
      "hit": false,
      "t": 200727.07200000022,
      "d": 2181.8159999999916,
      "v": 121
    },
    {
      "midi": 56,
      "hit": false,
      "t": 200727.07200000022,
      "d": 2181.8159999999916,
      "v": 121
    },
    {
      "midi": 63,
      "hit": false,
      "t": 200727.07200000022,
      "d": 2181.8159999999916,
      "v": 121
    },
    {
      "midi": 35,
      "hit": false,
      "t": 201817.9800000002,
      "d": 1090.9079999999958,
      "v": 122
    },
    {
      "midi": 63,
      "hit": false,
      "t": 202908.8880000002,
      "d": 2181.8159999999916,
      "v": 123
    },
    {
      "midi": 34,
      "hit": false,
      "t": 203999.7960000002,
      "d": 1090.9079999999958,
      "v": 124
    },
    {
      "midi": 63,
      "hit": false,
      "t": 205090.7040000002,
      "d": 2181.8159999999916,
      "v": 125
    },
    {
      "midi": 34,
      "hit": false,
      "t": 206181.6120000002,
      "d": 1090.9079999999958,
      "v": 126
    },
    {
      "midi": 63,
      "hit": false,
      "t": 207272.5200000002,
      "d": 2181.8159999999916,
      "v": 127
    },
    {
      "midi": 34,
      "hit": false,
      "t": 208363.4280000002,
      "d": 1090.9079999999958,
      "v": 127
    },
    {
      "midi": 63,
      "hit": false,
      "t": 209454.33600000018,
      "d": 2181.8159999999916,
      "v": 127
    },
    {
      "midi": 34,
      "hit": false,
      "t": 210545.24400000018,
      "d": 1090.9079999999958,
      "v": 127
    },
    {
      "midi": 63,
      "hit": false,
      "t": 211636.15200000018,
      "d": 2181.8159999999916,
      "v": 127
    },
    {
      "midi": 34,
      "hit": false,
      "t": 212727.06000000017,
      "d": 1090.9079999999958,
      "v": 127
    },
    {
      "midi": 63,
      "hit": false,
      "t": 213817.96800000017,
      "d": 2181.8159999999916,
      "v": 127
    },
    {
      "midi": 34,
      "hit": false,
      "t": 214908.87600000016,
      "d": 1090.9079999999958,
      "v": 127
    },
    {
      "midi": 63,
      "hit": false,
      "t": 215999.78400000016,
      "d": 2181.8159999999916,
      "v": 127
    },
    {
      "midi": 34,
      "hit": false,
      "t": 217090.69200000016,
      "d": 1090.9079999999958,
      "v": 127
    },
    {
      "midi": 63,
      "hit": false,
      "t": 218181.60000000015,
      "d": 2181.8159999999916,
      "v": 127
    },
    {
      "midi": 34,
      "hit": false,
      "t": 219272.50800000015,
      "d": 1090.9079999999958,
      "v": 127
    },
    {
      "midi": 63,
      "hit": false,
      "t": 220363.41600000014,
      "d": 2181.8159999999916,
      "v": 127
    },
    {
      "midi": 34,
      "hit": false,
      "t": 222545.23200000013,
      "d": 2181.8159999999916,
      "v": 127
    },
    {
      "midi": 63,
      "hit": false,
      "t": 224727.04800000013,
      "d": 2181.8159999999916,
      "v": 127
    },
    {
      "midi": 34,
      "hit": false,
      "t": 225817.95600000012,
      "d": 1090.9079999999958,
      "v": 127
    },
    {
      "midi": 63,
      "hit": false,
      "t": 226908.86400000012,
      "d": 2181.8159999999916,
      "v": 127
    },
    {
      "midi": 34,
      "hit": false,
      "t": 227999.7720000001,
      "d": 1090.9079999999958,
      "v": 127
    },
    {
      "midi": 63,
      "hit": false,
      "t": 229090.6800000001,
      "d": 1090.9079999999958,
      "v": 127
    },
    {
      "midi": 34,
      "hit": false,
      "t": 230181.5880000001,
      "d": 1090.9079999999958,
      "v": 127
    },
    {
      "midi": 63,
      "hit": false,
      "t": 231272.4960000001,
      "d": 1090.9079999999958,
      "v": 127
    },
    {
      "midi": 34,
      "hit": false,
      "t": 232363.4040000001,
      "d": 1090.9079999999958,
      "v": 127
    },
    {
      "midi": 27,
      "hit": false,
      "t": 234545.2200000001,
      "d": 1090.9079999999958,
      "v": 127
    },
    {
      "midi": 39,
      "hit": false,
      "t": 234545.2200000001,
      "d": 1090.9079999999958,
      "v": 127
    },
    {
      "midi": 27,
      "hit": false,
      "t": 236727.03600000008,
      "d": 1090.9079999999958,
      "v": 127
    },
    {
      "midi": 39,
      "hit": false,
      "t": 236727.03600000008,
      "d": 1090.9079999999958,
      "v": 127
    },
    {
      "midi": 27,
      "hit": false,
      "t": 238908.85200000007,
      "d": 1090.9079999999958,
      "v": 127
    },
    {
      "midi": 39,
      "hit": false,
      "t": 238908.85200000007,
      "d": 1090.9079999999958,
      "v": 127
    },
    {
      "midi": 27,
      "hit": false,
      "t": 241090.66800000006,
      "d": 1090.9079999999958,
      "v": 127
    },
    {
      "midi": 39,
      "hit": false,
      "t": 241090.66800000006,
      "d": 1090.9079999999958,
      "v": 127
    },
    {
      "midi": 92,
      "hit": false,
      "t": 242181.57600000006,
      "d": 136.36350000000675,
      "v": 127
    },
    {
      "midi": 91,
      "hit": false,
      "t": 242317.93950000007,
      "d": 136.36350000000675,
      "v": 127
    },
    {
      "midi": 89,
      "hit": false,
      "t": 242454.30300000007,
      "d": 136.36350000000675,
      "v": 127
    },
    {
      "midi": 87,
      "hit": false,
      "t": 242590.66650000008,
      "d": 136.36350000000675,
      "v": 127
    },
    {
      "midi": 86,
      "hit": false,
      "t": 242727.0300000001,
      "d": 136.36350000000675,
      "v": 127
    },
    {
      "midi": 84,
      "hit": false,
      "t": 242863.3935000001,
      "d": 136.36350000000675,
      "v": 127
    },
    {
      "midi": 82,
      "hit": false,
      "t": 242999.7570000001,
      "d": 136.36350000000675,
      "v": 127
    },
    {
      "midi": 80,
      "hit": false,
      "t": 243136.1205000001,
      "d": 136.36350000000675,
      "v": 127
    },
    {
      "midi": 79,
      "hit": false,
      "t": 243272.4840000001,
      "d": 136.36350000000675,
      "v": 127
    },
    {
      "midi": 77,
      "hit": false,
      "t": 243408.84750000012,
      "d": 136.36350000000675,
      "v": 127
    },
    {
      "midi": 75,
      "hit": false,
      "t": 243545.21100000013,
      "d": 136.36350000000675,
      "v": 127
    },
    {
      "midi": 74,
      "hit": false,
      "t": 243681.57450000013,
      "d": 136.36350000000675,
      "v": 127
    },
    {
      "midi": 72,
      "hit": false,
      "t": 243817.93800000014,
      "d": 136.36350000000675,
      "v": 127
    },
    {
      "midi": 70,
      "hit": false,
      "t": 243954.30150000015,
      "d": 136.36350000000675,
      "v": 127
    },
    {
      "midi": 68,
      "hit": false,
      "t": 244090.66500000015,
      "d": 136.36350000000675,
      "v": 127
    },
    {
      "midi": 67,
      "hit": false,
      "t": 244227.02850000016,
      "d": 136.36350000000675,
      "v": 127
    },
    {
      "midi": 65,
      "hit": false,
      "t": 244363.39200000017,
      "d": 136.36350000000675,
      "v": 127
    },
    {
      "midi": 63,
      "hit": false,
      "t": 244499.75550000017,
      "d": 136.36350000000675,
      "v": 127
    },
    {
      "midi": 62,
      "hit": false,
      "t": 244636.11900000018,
      "d": 136.36350000000675,
      "v": 127
    },
    {
      "midi": 60,
      "hit": false,
      "t": 244772.4825000002,
      "d": 136.36350000000675,
      "v": 127
    },
    {
      "midi": 58,
      "hit": false,
      "t": 244908.8460000002,
      "d": 136.36350000000675,
      "v": 127
    },
    {
      "midi": 56,
      "hit": false,
      "t": 245045.2095000002,
      "d": 136.36350000000675,
      "v": 127
    },
    {
      "midi": 55,
      "hit": false,
      "t": 245181.5730000002,
      "d": 136.36350000000675,
      "v": 127
    },
    {
      "midi": 53,
      "hit": false,
      "t": 245317.9365000002,
      "d": 136.36350000000675,
      "v": 127
    },
    {
      "midi": 51,
      "hit": false,
      "t": 245454.30000000022,
      "d": 136.36350000000675,
      "v": 127
    },
    {
      "midi": 50,
      "hit": false,
      "t": 245590.66350000023,
      "d": 136.36350000000675,
      "v": 126
    },
    {
      "midi": 48,
      "hit": false,
      "t": 245727.02700000023,
      "d": 136.36350000000675,
      "v": 125
    },
    {
      "midi": 46,
      "hit": false,
      "t": 245863.39050000024,
      "d": 136.36350000000675,
      "v": 123
    },
    {
      "midi": 44,
      "hit": false,
      "t": 245999.75400000025,
      "d": 136.36350000000675,
      "v": 122
    },
    {
      "midi": 43,
      "hit": false,
      "t": 246136.11750000025,
      "d": 136.36350000000675,
      "v": 121
    },
    {
      "midi": 41,
      "hit": false,
      "t": 246272.48100000026,
      "d": 136.36350000000675,
      "v": 120
    },
    {
      "midi": 39,
      "hit": false,
      "t": 246408.84450000027,
      "d": 136.36350000000675,
      "v": 119
    },
    {
      "midi": 38,
      "hit": false,
      "t": 246545.20800000028,
      "d": 136.36350000000675,
      "v": 118
    },
    {
      "midi": 36,
      "hit": false,
      "t": 246681.57150000028,
      "d": 136.36350000000675,
      "v": 116
    },
    {
      "midi": 34,
      "hit": false,
      "t": 246817.9350000003,
      "d": 136.36350000000675,
      "v": 115
    },
    {
      "midi": 32,
      "hit": false,
      "t": 246954.2985000003,
      "d": 136.36350000000675,
      "v": 114
    },
    {
      "midi": 31,
      "hit": false,
      "t": 247090.6620000003,
      "d": 136.36350000000675,
      "v": 113
    },
    {
      "midi": 29,
      "hit": false,
      "t": 247227.0255000003,
      "d": 136.36350000000675,
      "v": 112
    },
    {
      "midi": 27,
      "hit": false,
      "t": 247363.38900000032,
      "d": 136.36350000000675,
      "v": 111
    },
    {
      "midi": 26,
      "hit": false,
      "t": 247499.75250000032,
      "d": 136.36350000000675,
      "v": 109
    },
    {
      "midi": 24,
      "hit": false,
      "t": 247636.11600000033,
      "d": 136.36350000000675,
      "v": 108
    },
    {
      "midi": 31,
      "hit": false,
      "t": 248727.02400000033,
      "d": 727.2719999999972,
      "v": 127
    },
    {
      "midi": 34,
      "hit": false,
      "t": 248727.02400000033,
      "d": 727.2719999999972,
      "v": 127
    },
    {
      "midi": 39,
      "hit": false,
      "t": 248727.02400000033,
      "d": 727.2719999999972,
      "v": 127
    },
    {
      "midi": 43,
      "hit": false,
      "t": 248727.02400000033,
      "d": 727.2719999999972,
      "v": 127
    },
    {
      "midi": 51,
      "hit": false,
      "t": 249454.29600000032,
      "d": 727.2719999999972,
      "v": 127
    },
    {
      "midi": 55,
      "hit": false,
      "t": 249454.29600000032,
      "d": 727.2719999999972,
      "v": 127
    },
    {
      "midi": 31,
      "hit": false,
      "t": 250181.56800000032,
      "d": 727.2719999999972,
      "v": 127
    },
    {
      "midi": 43,
      "hit": false,
      "t": 250181.56800000032,
      "d": 727.2719999999972,
      "v": 127
    },
    {
      "midi": 51,
      "hit": false,
      "t": 250908.84000000032,
      "d": 727.2719999999972,
      "v": 127
    },
    {
      "midi": 55,
      "hit": false,
      "t": 250908.84000000032,
      "d": 727.2719999999972,
      "v": 127
    },
    {
      "midi": 31,
      "hit": false,
      "t": 251636.1120000003,
      "d": 727.2719999999972,
      "v": 127
    },
    {
      "midi": 34,
      "hit": false,
      "t": 251636.1120000003,
      "d": 727.2719999999972,
      "v": 127
    },
    {
      "midi": 39,
      "hit": false,
      "t": 251636.1120000003,
      "d": 727.2719999999972,
      "v": 127
    },
    {
      "midi": 43,
      "hit": false,
      "t": 251636.1120000003,
      "d": 727.2719999999972,
      "v": 127
    },
    {
      "midi": 51,
      "hit": false,
      "t": 252363.3840000003,
      "d": 727.2719999999972,
      "v": 127
    },
    {
      "midi": 55,
      "hit": false,
      "t": 252363.3840000003,
      "d": 727.2719999999972,
      "v": 127
    },
    {
      "midi": 29,
      "hit": false,
      "t": 253090.6560000003,
      "d": 727.2719999999972,
      "v": 127
    },
    {
      "midi": 34,
      "hit": false,
      "t": 253090.6560000003,
      "d": 727.2719999999972,
      "v": 127
    },
    {
      "midi": 38,
      "hit": false,
      "t": 253090.6560000003,
      "d": 727.2719999999972,
      "v": 127
    },
    {
      "midi": 41,
      "hit": false,
      "t": 253090.6560000003,
      "d": 727.2719999999972,
      "v": 127
    },
    {
      "midi": 50,
      "hit": false,
      "t": 253817.9280000003,
      "d": 727.2719999999972,
      "v": 127
    },
    {
      "midi": 58,
      "hit": false,
      "t": 253817.9280000003,
      "d": 727.2719999999972,
      "v": 127
    },
    {
      "midi": 29,
      "hit": false,
      "t": 254545.2000000003,
      "d": 727.2719999999972,
      "v": 127
    },
    {
      "midi": 41,
      "hit": false,
      "t": 254545.2000000003,
      "d": 727.2719999999972,
      "v": 127
    },
    {
      "midi": 50,
      "hit": false,
      "t": 255272.4720000003,
      "d": 727.2719999999972,
      "v": 127
    },
    {
      "midi": 58,
      "hit": false,
      "t": 255272.4720000003,
      "d": 727.2719999999972,
      "v": 127
    },
    {
      "midi": 29,
      "hit": false,
      "t": 255999.7440000003,
      "d": 727.2719999999972,
      "v": 127
    },
    {
      "midi": 34,
      "hit": false,
      "t": 255999.7440000003,
      "d": 727.2719999999972,
      "v": 127
    },
    {
      "midi": 38,
      "hit": false,
      "t": 255999.7440000003,
      "d": 727.2719999999972,
      "v": 127
    },
    {
      "midi": 41,
      "hit": false,
      "t": 255999.7440000003,
      "d": 727.2719999999972,
      "v": 127
    },
    {
      "midi": 50,
      "hit": false,
      "t": 256727.0160000003,
      "d": 727.2719999999972,
      "v": 127
    },
    {
      "midi": 58,
      "hit": false,
      "t": 256727.0160000003,
      "d": 727.2719999999972,
      "v": 127
    },
    {
      "midi": 27,
      "hit": false,
      "t": 257454.2880000003,
      "d": 727.2719999999972,
      "v": 127
    },
    {
      "midi": 31,
      "hit": false,
      "t": 257454.2880000003,
      "d": 727.2719999999972,
      "v": 127
    },
    {
      "midi": 34,
      "hit": false,
      "t": 257454.2880000003,
      "d": 727.2719999999972,
      "v": 127
    },
    {
      "midi": 39,
      "hit": false,
      "t": 257454.2880000003,
      "d": 727.2719999999972,
      "v": 127
    },
    {
      "midi": 55,
      "hit": false,
      "t": 258181.5600000003,
      "d": 727.2719999999972,
      "v": 127
    },
    {
      "midi": 58,
      "hit": false,
      "t": 258181.5600000003,
      "d": 727.2719999999972,
      "v": 127
    },
    {
      "midi": 63,
      "hit": false,
      "t": 258181.5600000003,
      "d": 727.2719999999972,
      "v": 127
    },
    {
      "midi": 27,
      "hit": false,
      "t": 258908.8320000003,
      "d": 727.2719999999972,
      "v": 127
    },
    {
      "midi": 39,
      "hit": false,
      "t": 258908.8320000003,
      "d": 727.2719999999972,
      "v": 127
    },
    {
      "midi": 36,
      "hit": false,
      "t": 259636.10400000028,
      "d": 727.2719999999972,
      "v": 127
    },
    {
      "midi": 39,
      "hit": false,
      "t": 259636.10400000028,
      "d": 727.2719999999972,
      "v": 127
    },
    {
      "midi": 43,
      "hit": false,
      "t": 259636.10400000028,
      "d": 727.2719999999972,
      "v": 127
    },
    {
      "midi": 48,
      "hit": false,
      "t": 259636.10400000028,
      "d": 727.2719999999972,
      "v": 127
    },
    {
      "midi": 51,
      "hit": false,
      "t": 260363.37600000028,
      "d": 727.2719999999972,
      "v": 127
    },
    {
      "midi": 55,
      "hit": false,
      "t": 260363.37600000028,
      "d": 727.2719999999972,
      "v": 127
    },
    {
      "midi": 60,
      "hit": false,
      "t": 260363.37600000028,
      "d": 727.2719999999972,
      "v": 127
    },
    {
      "midi": 39,
      "hit": false,
      "t": 261090.64800000028,
      "d": 727.2719999999972,
      "v": 127
    },
    {
      "midi": 51,
      "hit": false,
      "t": 261090.64800000028,
      "d": 727.2719999999972,
      "v": 127
    },
    {
      "midi": 38,
      "hit": false,
      "t": 261817.92000000027,
      "d": 727.2719999999972,
      "v": 127
    },
    {
      "midi": 41,
      "hit": false,
      "t": 261817.92000000027,
      "d": 727.2719999999972,
      "v": 127
    },
    {
      "midi": 42,
      "hit": false,
      "t": 261817.92000000027,
      "d": 727.2719999999972,
      "v": 127
    },
    {
      "midi": 46,
      "hit": false,
      "t": 261817.92000000027,
      "d": 727.2719999999972,
      "v": 127
    },
    {
      "midi": 50,
      "hit": false,
      "t": 261817.92000000027,
      "d": 727.2719999999972,
      "v": 127
    },
    {
      "midi": 50,
      "hit": false,
      "t": 262545.1920000003,
      "d": 727.2719999999972,
      "v": 127
    },
    {
      "midi": 53,
      "hit": false,
      "t": 262545.1920000003,
      "d": 727.2719999999972,
      "v": 127
    },
    {
      "midi": 53,
      "hit": false,
      "t": 263272.46400000027,
      "d": 727.2719999999972,
      "v": 127
    },
    {
      "midi": 58,
      "hit": false,
      "t": 263272.46400000027,
      "d": 727.2719999999972,
      "v": 127
    },
    {
      "midi": 58,
      "hit": false,
      "t": 263999.73600000027,
      "d": 727.2719999999972,
      "v": 127
    },
    {
      "midi": 62,
      "hit": false,
      "t": 263999.73600000027,
      "d": 727.2719999999972,
      "v": 127
    },
    {
      "midi": 62,
      "hit": false,
      "t": 264727.00800000026,
      "d": 727.2719999999972,
      "v": 127
    },
    {
      "midi": 65,
      "hit": false,
      "t": 264727.00800000026,
      "d": 727.2719999999972,
      "v": 127
    },
    {
      "midi": 65,
      "hit": false,
      "t": 265454.28000000026,
      "d": 727.2719999999972,
      "v": 127
    },
    {
      "midi": 70,
      "hit": false,
      "t": 265454.28000000026,
      "d": 727.2719999999972,
      "v": 127
    },
    {
      "midi": 39,
      "hit": false,
      "t": 266181.55200000026,
      "d": 1090.9079999999958,
      "v": 127
    },
    {
      "midi": 46,
      "hit": false,
      "t": 266181.55200000026,
      "d": 1090.9079999999958,
      "v": 127
    },
    {
      "midi": 51,
      "hit": false,
      "t": 266181.55200000026,
      "d": 1090.9079999999958,
      "v": 127
    },
    {
      "midi": 43,
      "hit": false,
      "t": 267272.46000000025,
      "d": 1090.9079999999958,
      "v": 127
    },
    {
      "midi": 51,
      "hit": false,
      "t": 267272.46000000025,
      "d": 1090.9079999999958,
      "v": 127
    },
    {
      "midi": 55,
      "hit": false,
      "t": 267272.46000000025,
      "d": 1090.9079999999958,
      "v": 127
    },
    {
      "midi": 38,
      "hit": false,
      "t": 268363.36800000025,
      "d": 1090.9079999999958,
      "v": 127
    },
    {
      "midi": 43,
      "hit": false,
      "t": 268363.36800000025,
      "d": 1090.9079999999958,
      "v": 127
    },
    {
      "midi": 50,
      "hit": false,
      "t": 268363.36800000025,
      "d": 1090.9079999999958,
      "v": 127
    },
    {
      "midi": 36,
      "hit": false,
      "t": 269454.27600000025,
      "d": 1090.9079999999958,
      "v": 127
    },
    {
      "midi": 43,
      "hit": false,
      "t": 269454.27600000025,
      "d": 1090.9079999999958,
      "v": 127
    },
    {
      "midi": 48,
      "hit": false,
      "t": 269454.27600000025,
      "d": 1090.9079999999958,
      "v": 127
    },
    {
      "midi": 34,
      "hit": false,
      "t": 270545.18400000024,
      "d": 727.2719999999972,
      "v": 127
    },
    {
      "midi": 43,
      "hit": false,
      "t": 270545.18400000024,
      "d": 727.2719999999972,
      "v": 127
    },
    {
      "midi": 46,
      "hit": false,
      "t": 270545.18400000024,
      "d": 727.2719999999972,
      "v": 127
    },
    {
      "midi": 50,
      "hit": false,
      "t": 271272.45600000024,
      "d": 727.2719999999972,
      "v": 127
    },
    {
      "midi": 55,
      "hit": false,
      "t": 271272.45600000024,
      "d": 727.2719999999972,
      "v": 127
    },
    {
      "midi": 55,
      "hit": false,
      "t": 271999.72800000024,
      "d": 727.2719999999972,
      "v": 127
    },
    {
      "midi": 58,
      "hit": false,
      "t": 271999.72800000024,
      "d": 727.2719999999972,
      "v": 127
    },
    {
      "midi": 58,
      "hit": false,
      "t": 272727.00000000023,
      "d": 727.2719999999972,
      "v": 127
    },
    {
      "midi": 62,
      "hit": false,
      "t": 272727.00000000023,
      "d": 727.2719999999972,
      "v": 127
    },
    {
      "midi": 62,
      "hit": false,
      "t": 273454.27200000023,
      "d": 727.2719999999972,
      "v": 127
    },
    {
      "midi": 65,
      "hit": false,
      "t": 273454.27200000023,
      "d": 727.2719999999972,
      "v": 127
    },
    {
      "midi": 65,
      "hit": false,
      "t": 274181.5440000002,
      "d": 727.2719999999972,
      "v": 127
    },
    {
      "midi": 70,
      "hit": false,
      "t": 274181.5440000002,
      "d": 727.2719999999972,
      "v": 127
    },
    {
      "midi": 39,
      "hit": false,
      "t": 274908.8160000002,
      "d": 1090.9079999999958,
      "v": 127
    },
    {
      "midi": 46,
      "hit": false,
      "t": 274908.8160000002,
      "d": 1090.9079999999958,
      "v": 127
    },
    {
      "midi": 51,
      "hit": false,
      "t": 274908.8160000002,
      "d": 1090.9079999999958,
      "v": 127
    },
    {
      "midi": 43,
      "hit": false,
      "t": 275999.7240000002,
      "d": 1090.9079999999958,
      "v": 127
    },
    {
      "midi": 51,
      "hit": false,
      "t": 275999.7240000002,
      "d": 1090.9079999999958,
      "v": 127
    },
    {
      "midi": 55,
      "hit": false,
      "t": 275999.7240000002,
      "d": 1090.9079999999958,
      "v": 127
    },
    {
      "midi": 38,
      "hit": false,
      "t": 277090.6320000002,
      "d": 1090.9079999999958,
      "v": 127
    },
    {
      "midi": 43,
      "hit": false,
      "t": 277090.6320000002,
      "d": 1090.9079999999958,
      "v": 127
    },
    {
      "midi": 50,
      "hit": false,
      "t": 277090.6320000002,
      "d": 1090.9079999999958,
      "v": 127
    },
    {
      "midi": 36,
      "hit": false,
      "t": 278181.5400000002,
      "d": 1090.9079999999958,
      "v": 127
    },
    {
      "midi": 43,
      "hit": false,
      "t": 278181.5400000002,
      "d": 1090.9079999999958,
      "v": 127
    },
    {
      "midi": 48,
      "hit": false,
      "t": 278181.5400000002,
      "d": 1090.9079999999958,
      "v": 127
    },
    {
      "midi": 34,
      "hit": false,
      "t": 279272.4480000002,
      "d": 727.2719999999972,
      "v": 127
    },
    {
      "midi": 43,
      "hit": false,
      "t": 279272.4480000002,
      "d": 727.2719999999972,
      "v": 127
    },
    {
      "midi": 46,
      "hit": false,
      "t": 279272.4480000002,
      "d": 727.2719999999972,
      "v": 127
    },
    {
      "midi": 50,
      "hit": false,
      "t": 279999.7200000002,
      "d": 727.2719999999972,
      "v": 127
    },
    {
      "midi": 55,
      "hit": false,
      "t": 279999.7200000002,
      "d": 727.2719999999972,
      "v": 127
    },
    {
      "midi": 55,
      "hit": false,
      "t": 280726.9920000002,
      "d": 727.2719999999972,
      "v": 127
    },
    {
      "midi": 58,
      "hit": false,
      "t": 280726.9920000002,
      "d": 727.2719999999972,
      "v": 127
    },
    {
      "midi": 56,
      "hit": false,
      "t": 281454.2640000002,
      "d": 727.2719999999972,
      "v": 127
    },
    {
      "midi": 58,
      "hit": false,
      "t": 281454.2640000002,
      "d": 727.2719999999972,
      "v": 127
    },
    {
      "midi": 62,
      "hit": false,
      "t": 281454.2640000002,
      "d": 727.2719999999972,
      "v": 127
    },
    {
      "midi": 58,
      "hit": false,
      "t": 282181.5360000002,
      "d": 727.2719999999972,
      "v": 127
    },
    {
      "midi": 62,
      "hit": false,
      "t": 282181.5360000002,
      "d": 727.2719999999972,
      "v": 127
    },
    {
      "midi": 65,
      "hit": false,
      "t": 282181.5360000002,
      "d": 727.2719999999972,
      "v": 127
    },
    {
      "midi": 62,
      "hit": false,
      "t": 282908.8080000002,
      "d": 727.2719999999972,
      "v": 127
    },
    {
      "midi": 65,
      "hit": false,
      "t": 282908.8080000002,
      "d": 727.2719999999972,
      "v": 127
    },
    {
      "midi": 68,
      "hit": false,
      "t": 282908.8080000002,
      "d": 727.2719999999972,
      "v": 127
    },
    {
      "midi": 60,
      "hit": false,
      "t": 283636.0800000002,
      "d": 727.2719999999972,
      "v": 127
    },
    {
      "midi": 68,
      "hit": false,
      "t": 283636.0800000002,
      "d": 727.2719999999972,
      "v": 127
    },
    {
      "midi": 72,
      "hit": false,
      "t": 283636.0800000002,
      "d": 727.2719999999972,
      "v": 127
    },
    {
      "midi": 36,
      "hit": false,
      "t": 284363.3520000002,
      "d": 727.2719999999972,
      "v": 127
    },
    {
      "midi": 44,
      "hit": false,
      "t": 284363.3520000002,
      "d": 727.2719999999972,
      "v": 127
    },
    {
      "midi": 48,
      "hit": false,
      "t": 284363.3520000002,
      "d": 727.2719999999972,
      "v": 127
    },
    {
      "midi": 48,
      "hit": false,
      "t": 285090.6240000002,
      "d": 727.2719999999972,
      "v": 127
    },
    {
      "midi": 56,
      "hit": false,
      "t": 285090.6240000002,
      "d": 727.2719999999972,
      "v": 127
    },
    {
      "midi": 60,
      "hit": false,
      "t": 285090.6240000002,
      "d": 727.2719999999972,
      "v": 127
    },
    {
      "midi": 46,
      "hit": false,
      "t": 285817.8960000002,
      "d": 1090.9079999999958,
      "v": 127
    },
    {
      "midi": 51,
      "hit": false,
      "t": 285817.8960000002,
      "d": 1090.9079999999958,
      "v": 127
    },
    {
      "midi": 58,
      "hit": false,
      "t": 285817.8960000002,
      "d": 1090.9079999999958,
      "v": 127
    },
    {
      "midi": 43,
      "hit": false,
      "t": 286908.8040000002,
      "d": 1090.9079999999958,
      "v": 127
    },
    {
      "midi": 51,
      "hit": false,
      "t": 286908.8040000002,
      "d": 1090.9079999999958,
      "v": 127
    },
    {
      "midi": 55,
      "hit": false,
      "t": 286908.8040000002,
      "d": 1090.9079999999958,
      "v": 127
    },
    {
      "midi": 44,
      "hit": false,
      "t": 287999.7120000002,
      "d": 727.2719999999972,
      "v": 127
    },
    {
      "midi": 51,
      "hit": false,
      "t": 287999.7120000002,
      "d": 727.2719999999972,
      "v": 127
    },
    {
      "midi": 56,
      "hit": false,
      "t": 287999.7120000002,
      "d": 727.2719999999972,
      "v": 127
    },
    {
      "midi": 36,
      "hit": false,
      "t": 288726.9840000002,
      "d": 727.2719999999972,
      "v": 127
    },
    {
      "midi": 44,
      "hit": false,
      "t": 288726.9840000002,
      "d": 727.2719999999972,
      "v": 127
    },
    {
      "midi": 48,
      "hit": false,
      "t": 288726.9840000002,
      "d": 727.2719999999972,
      "v": 127
    },
    {
      "midi": 44,
      "hit": false,
      "t": 289454.25600000017,
      "d": 727.2719999999972,
      "v": 127
    },
    {
      "midi": 51,
      "hit": false,
      "t": 289454.25600000017,
      "d": 727.2719999999972,
      "v": 127
    },
    {
      "midi": 56,
      "hit": false,
      "t": 289454.25600000017,
      "d": 727.2719999999972,
      "v": 127
    },
    {
      "midi": 43,
      "hit": false,
      "t": 290181.52800000017,
      "d": 1090.9079999999958,
      "v": 127
    },
    {
      "midi": 48,
      "hit": false,
      "t": 290181.52800000017,
      "d": 1090.9079999999958,
      "v": 127
    },
    {
      "midi": 55,
      "hit": false,
      "t": 290181.52800000017,
      "d": 1090.9079999999958,
      "v": 127
    },
    {
      "midi": 44,
      "hit": false,
      "t": 291272.43600000016,
      "d": 1090.9079999999958,
      "v": 127
    },
    {
      "midi": 48,
      "hit": false,
      "t": 291272.43600000016,
      "d": 1090.9079999999958,
      "v": 127
    },
    {
      "midi": 56,
      "hit": false,
      "t": 291272.43600000016,
      "d": 1090.9079999999958,
      "v": 127
    },
    {
      "midi": 43,
      "hit": false,
      "t": 292363.34400000016,
      "d": 1090.9079999999958,
      "v": 127
    },
    {
      "midi": 51,
      "hit": false,
      "t": 292363.34400000016,
      "d": 1090.9079999999958,
      "v": 127
    },
    {
      "midi": 55,
      "hit": false,
      "t": 292363.34400000016,
      "d": 1090.9079999999958,
      "v": 127
    },
    {
      "midi": 31,
      "hit": false,
      "t": 293454.25200000015,
      "d": 1090.9079999999958,
      "v": 127
    },
    {
      "midi": 39,
      "hit": false,
      "t": 293454.25200000015,
      "d": 1090.9079999999958,
      "v": 127
    },
    {
      "midi": 43,
      "hit": false,
      "t": 293454.25200000015,
      "d": 1090.9079999999958,
      "v": 127
    },
    {
      "midi": 41,
      "hit": false,
      "t": 294545.16000000015,
      "d": 1090.9079999999958,
      "v": 127
    },
    {
      "midi": 46,
      "hit": false,
      "t": 294545.16000000015,
      "d": 1090.9079999999958,
      "v": 127
    },
    {
      "midi": 53,
      "hit": false,
      "t": 294545.16000000015,
      "d": 1090.9079999999958,
      "v": 127
    },
    {
      "midi": 39,
      "hit": false,
      "t": 295636.06800000014,
      "d": 1090.9079999999958,
      "v": 127
    },
    {
      "midi": 46,
      "hit": false,
      "t": 295636.06800000014,
      "d": 1090.9079999999958,
      "v": 127
    },
    {
      "midi": 51,
      "hit": false,
      "t": 295636.06800000014,
      "d": 1090.9079999999958,
      "v": 127
    },
    {
      "midi": 32,
      "hit": false,
      "t": 296726.97600000014,
      "d": 727.2719999999972,
      "v": 127
    },
    {
      "midi": 44,
      "hit": false,
      "t": 296726.97600000014,
      "d": 727.2719999999972,
      "v": 127
    },
    {
      "midi": 44,
      "hit": false,
      "t": 297454.24800000014,
      "d": 727.2719999999972,
      "v": 127
    },
    {
      "midi": 56,
      "hit": false,
      "t": 297454.24800000014,
      "d": 727.2719999999972,
      "v": 127
    },
    {
      "midi": 32,
      "hit": false,
      "t": 298181.52000000014,
      "d": 727.2719999999972,
      "v": 127
    },
    {
      "midi": 44,
      "hit": false,
      "t": 298181.52000000014,
      "d": 727.2719999999972,
      "v": 127
    },
    {
      "midi": 44,
      "hit": false,
      "t": 298908.79200000013,
      "d": 727.2719999999972,
      "v": 127
    },
    {
      "midi": 56,
      "hit": false,
      "t": 298908.79200000013,
      "d": 727.2719999999972,
      "v": 127
    },
    {
      "midi": 32,
      "hit": false,
      "t": 299636.06400000013,
      "d": 727.2719999999972,
      "v": 127
    },
    {
      "midi": 44,
      "hit": false,
      "t": 299636.06400000013,
      "d": 727.2719999999972,
      "v": 127
    },
    {
      "midi": 44,
      "hit": false,
      "t": 300363.3360000001,
      "d": 727.2719999999972,
      "v": 127
    },
    {
      "midi": 56,
      "hit": false,
      "t": 300363.3360000001,
      "d": 727.2719999999972,
      "v": 127
    },
    {
      "midi": 34,
      "hit": false,
      "t": 301090.6080000001,
      "d": 727.2719999999972,
      "v": 127
    },
    {
      "midi": 46,
      "hit": false,
      "t": 301090.6080000001,
      "d": 727.2719999999972,
      "v": 127
    },
    {
      "midi": 46,
      "hit": false,
      "t": 301817.8800000001,
      "d": 727.2719999999972,
      "v": 127
    },
    {
      "midi": 58,
      "hit": false,
      "t": 301817.8800000001,
      "d": 727.2719999999972,
      "v": 127
    },
    {
      "midi": 34,
      "hit": false,
      "t": 302545.1520000001,
      "d": 727.2719999999972,
      "v": 127
    },
    {
      "midi": 46,
      "hit": false,
      "t": 302545.1520000001,
      "d": 727.2719999999972,
      "v": 127
    },
    {
      "midi": 46,
      "hit": false,
      "t": 303272.4240000001,
      "d": 727.2719999999972,
      "v": 127
    },
    {
      "midi": 58,
      "hit": false,
      "t": 303272.4240000001,
      "d": 727.2719999999972,
      "v": 127
    },
    {
      "midi": 34,
      "hit": false,
      "t": 303999.6960000001,
      "d": 727.2719999999972,
      "v": 127
    },
    {
      "midi": 46,
      "hit": false,
      "t": 303999.6960000001,
      "d": 727.2719999999972,
      "v": 127
    },
    {
      "midi": 46,
      "hit": false,
      "t": 304726.9680000001,
      "d": 727.2719999999972,
      "v": 127
    },
    {
      "midi": 58,
      "hit": false,
      "t": 304726.9680000001,
      "d": 727.2719999999972,
      "v": 127
    },
    {
      "midi": 34,
      "hit": false,
      "t": 305454.2400000001,
      "d": 727.2719999999972,
      "v": 127
    },
    {
      "midi": 46,
      "hit": false,
      "t": 305454.2400000001,
      "d": 727.2719999999972,
      "v": 127
    },
    {
      "midi": 46,
      "hit": false,
      "t": 306181.5120000001,
      "d": 727.2719999999972,
      "v": 127
    },
    {
      "midi": 58,
      "hit": false,
      "t": 306181.5120000001,
      "d": 727.2719999999972,
      "v": 127
    },
    {
      "midi": 34,
      "hit": false,
      "t": 306908.7840000001,
      "d": 727.2719999999972,
      "v": 127
    },
    {
      "midi": 46,
      "hit": false,
      "t": 306908.7840000001,
      "d": 727.2719999999972,
      "v": 127
    },
    {
      "midi": 47,
      "hit": false,
      "t": 307636.0560000001,
      "d": 727.2719999999972,
      "v": 127
    },
    {
      "midi": 59,
      "hit": false,
      "t": 307636.0560000001,
      "d": 727.2719999999972,
      "v": 127
    },
    {
      "midi": 35,
      "hit": false,
      "t": 308363.3280000001,
      "d": 727.2719999999972,
      "v": 127
    },
    {
      "midi": 47,
      "hit": false,
      "t": 308363.3280000001,
      "d": 727.2719999999972,
      "v": 127
    },
    {
      "midi": 47,
      "hit": false,
      "t": 309090.6000000001,
      "d": 727.2719999999972,
      "v": 127
    },
    {
      "midi": 59,
      "hit": false,
      "t": 309090.6000000001,
      "d": 727.2719999999972,
      "v": 127
    },
    {
      "midi": 35,
      "hit": false,
      "t": 309817.8720000001,
      "d": 727.2719999999972,
      "v": 127
    },
    {
      "midi": 47,
      "hit": false,
      "t": 309817.8720000001,
      "d": 727.2719999999972,
      "v": 127
    },
    {
      "midi": 47,
      "hit": false,
      "t": 310545.1440000001,
      "d": 727.2719999999972,
      "v": 127
    },
    {
      "midi": 59,
      "hit": false,
      "t": 310545.1440000001,
      "d": 727.2719999999972,
      "v": 127
    },
    {
      "midi": 35,
      "hit": false,
      "t": 311272.4160000001,
      "d": 727.2719999999972,
      "v": 127
    },
    {
      "midi": 47,
      "hit": false,
      "t": 311272.4160000001,
      "d": 727.2719999999972,
      "v": 127
    },
    {
      "midi": 46,
      "hit": false,
      "t": 311999.6880000001,
      "d": 727.2719999999972,
      "v": 127
    },
    {
      "midi": 58,
      "hit": false,
      "t": 311999.6880000001,
      "d": 727.2719999999972,
      "v": 127
    },
    {
      "midi": 34,
      "hit": false,
      "t": 312726.9600000001,
      "d": 727.2719999999972,
      "v": 127
    },
    {
      "midi": 46,
      "hit": false,
      "t": 312726.9600000001,
      "d": 727.2719999999972,
      "v": 127
    },
    {
      "midi": 46,
      "hit": false,
      "t": 313454.2320000001,
      "d": 727.2719999999972,
      "v": 127
    },
    {
      "midi": 58,
      "hit": false,
      "t": 313454.2320000001,
      "d": 727.2719999999972,
      "v": 127
    },
    {
      "midi": 33,
      "hit": false,
      "t": 314181.5040000001,
      "d": 727.2719999999972,
      "v": 108
    },
    {
      "midi": 45,
      "hit": false,
      "t": 314181.5040000001,
      "d": 727.2719999999972,
      "v": 108
    },
    {
      "midi": 45,
      "hit": false,
      "t": 314908.77600000007,
      "d": 727.2719999999972,
      "v": 109
    },
    {
      "midi": 57,
      "hit": false,
      "t": 314908.77600000007,
      "d": 727.2719999999972,
      "v": 109
    },
    {
      "midi": 33,
      "hit": false,
      "t": 315636.04800000007,
      "d": 727.2719999999972,
      "v": 110
    },
    {
      "midi": 45,
      "hit": false,
      "t": 315636.04800000007,
      "d": 727.2719999999972,
      "v": 110
    },
    {
      "midi": 45,
      "hit": false,
      "t": 316363.32000000007,
      "d": 727.2719999999972,
      "v": 110
    },
    {
      "midi": 57,
      "hit": false,
      "t": 316363.32000000007,
      "d": 727.2719999999972,
      "v": 110
    },
    {
      "midi": 33,
      "hit": false,
      "t": 317090.59200000006,
      "d": 727.2719999999972,
      "v": 111
    },
    {
      "midi": 45,
      "hit": false,
      "t": 317090.59200000006,
      "d": 727.2719999999972,
      "v": 111
    },
    {
      "midi": 45,
      "hit": false,
      "t": 317817.86400000006,
      "d": 727.2719999999972,
      "v": 112
    },
    {
      "midi": 57,
      "hit": false,
      "t": 317817.86400000006,
      "d": 727.2719999999972,
      "v": 112
    },
    {
      "midi": 33,
      "hit": false,
      "t": 318545.13600000006,
      "d": 727.2719999999972,
      "v": 113
    },
    {
      "midi": 45,
      "hit": false,
      "t": 318545.13600000006,
      "d": 727.2719999999972,
      "v": 113
    },
    {
      "midi": 45,
      "hit": false,
      "t": 319272.40800000005,
      "d": 727.2719999999972,
      "v": 113
    },
    {
      "midi": 57,
      "hit": false,
      "t": 319272.40800000005,
      "d": 727.2719999999972,
      "v": 113
    },
    {
      "midi": 33,
      "hit": false,
      "t": 319999.68000000005,
      "d": 727.2719999999972,
      "v": 114
    },
    {
      "midi": 45,
      "hit": false,
      "t": 319999.68000000005,
      "d": 727.2719999999972,
      "v": 114
    },
    {
      "midi": 44,
      "hit": false,
      "t": 320726.95200000005,
      "d": 727.2719999999972,
      "v": 115
    },
    {
      "midi": 56,
      "hit": false,
      "t": 320726.95200000005,
      "d": 727.2719999999972,
      "v": 115
    },
    {
      "midi": 32,
      "hit": false,
      "t": 321454.22400000005,
      "d": 727.2719999999972,
      "v": 115
    },
    {
      "midi": 44,
      "hit": false,
      "t": 321454.22400000005,
      "d": 727.2719999999972,
      "v": 115
    },
    {
      "midi": 44,
      "hit": false,
      "t": 322181.49600000004,
      "d": 727.2719999999972,
      "v": 116
    },
    {
      "midi": 56,
      "hit": false,
      "t": 322181.49600000004,
      "d": 727.2719999999972,
      "v": 116
    },
    {
      "midi": 34,
      "hit": false,
      "t": 322908.76800000004,
      "d": 727.2719999999972,
      "v": 117
    },
    {
      "midi": 46,
      "hit": false,
      "t": 322908.76800000004,
      "d": 727.2719999999972,
      "v": 117
    },
    {
      "midi": 46,
      "hit": false,
      "t": 323636.04000000004,
      "d": 727.2719999999972,
      "v": 118
    },
    {
      "midi": 58,
      "hit": false,
      "t": 323636.04000000004,
      "d": 727.2719999999972,
      "v": 118
    },
    {
      "midi": 34,
      "hit": false,
      "t": 324363.31200000003,
      "d": 727.2719999999972,
      "v": 118
    },
    {
      "midi": 46,
      "hit": false,
      "t": 324363.31200000003,
      "d": 727.2719999999972,
      "v": 118
    },
    {
      "midi": 47,
      "hit": false,
      "t": 325090.58400000003,
      "d": 727.2719999999972,
      "v": 119
    },
    {
      "midi": 59,
      "hit": false,
      "t": 325090.58400000003,
      "d": 727.2719999999972,
      "v": 119
    },
    {
      "midi": 35,
      "hit": false,
      "t": 325817.856,
      "d": 727.2719999999972,
      "v": 120
    },
    {
      "midi": 47,
      "hit": false,
      "t": 325817.856,
      "d": 727.2719999999972,
      "v": 120
    },
    {
      "midi": 47,
      "hit": false,
      "t": 326545.128,
      "d": 727.2719999999972,
      "v": 120
    },
    {
      "midi": 59,
      "hit": false,
      "t": 326545.128,
      "d": 727.2719999999972,
      "v": 120
    },
    {
      "midi": 34,
      "hit": false,
      "t": 327272.4,
      "d": 727.2719999999972,
      "v": 121
    },
    {
      "midi": 46,
      "hit": false,
      "t": 327272.4,
      "d": 727.2719999999972,
      "v": 121
    },
    {
      "midi": 46,
      "hit": false,
      "t": 327999.672,
      "d": 727.2719999999972,
      "v": 122
    },
    {
      "midi": 58,
      "hit": false,
      "t": 327999.672,
      "d": 727.2719999999972,
      "v": 122
    },
    {
      "midi": 34,
      "hit": false,
      "t": 328726.944,
      "d": 727.2719999999972,
      "v": 123
    },
    {
      "midi": 46,
      "hit": false,
      "t": 328726.944,
      "d": 727.2719999999972,
      "v": 123
    },
    {
      "midi": 44,
      "hit": false,
      "t": 329454.216,
      "d": 727.2719999999972,
      "v": 123
    },
    {
      "midi": 56,
      "hit": false,
      "t": 329454.216,
      "d": 727.2719999999972,
      "v": 123
    },
    {
      "midi": 32,
      "hit": false,
      "t": 330181.488,
      "d": 727.2719999999972,
      "v": 124
    },
    {
      "midi": 44,
      "hit": false,
      "t": 330181.488,
      "d": 727.2719999999972,
      "v": 124
    },
    {
      "midi": 44,
      "hit": false,
      "t": 330908.76,
      "d": 727.2719999999972,
      "v": 125
    },
    {
      "midi": 56,
      "hit": false,
      "t": 330908.76,
      "d": 727.2719999999972,
      "v": 125
    },
    {
      "midi": 34,
      "hit": false,
      "t": 331636.032,
      "d": 727.2719999999972,
      "v": 125
    },
    {
      "midi": 46,
      "hit": false,
      "t": 331636.032,
      "d": 727.2719999999972,
      "v": 125
    },
    {
      "midi": 46,
      "hit": false,
      "t": 332363.304,
      "d": 727.2719999999972,
      "v": 126
    },
    {
      "midi": 58,
      "hit": false,
      "t": 332363.304,
      "d": 727.2719999999972,
      "v": 126
    },
    {
      "midi": 34,
      "hit": false,
      "t": 333090.576,
      "d": 727.2719999999972,
      "v": 127
    },
    {
      "midi": 46,
      "hit": false,
      "t": 333090.576,
      "d": 727.2719999999972,
      "v": 127
    },
    {
      "midi": 48,
      "hit": false,
      "t": 333817.848,
      "d": 727.2719999999972,
      "v": 127
    },
    {
      "midi": 60,
      "hit": false,
      "t": 333817.848,
      "d": 727.2719999999972,
      "v": 127
    },
    {
      "midi": 36,
      "hit": false,
      "t": 334545.12,
      "d": 727.2719999999972,
      "v": 127
    },
    {
      "midi": 48,
      "hit": false,
      "t": 334545.12,
      "d": 727.2719999999972,
      "v": 127
    },
    {
      "midi": 48,
      "hit": false,
      "t": 335272.392,
      "d": 727.2719999999972,
      "v": 127
    },
    {
      "midi": 60,
      "hit": false,
      "t": 335272.392,
      "d": 727.2719999999972,
      "v": 127
    },
    {
      "midi": 34,
      "hit": false,
      "t": 335999.664,
      "d": 727.2719999999972,
      "v": 127
    },
    {
      "midi": 46,
      "hit": false,
      "t": 335999.664,
      "d": 727.2719999999972,
      "v": 127
    },
    {
      "midi": 46,
      "hit": false,
      "t": 336726.936,
      "d": 727.2719999999972,
      "v": 127
    },
    {
      "midi": 58,
      "hit": false,
      "t": 336726.936,
      "d": 727.2719999999972,
      "v": 127
    },
    {
      "midi": 34,
      "hit": false,
      "t": 337454.208,
      "d": 727.2719999999972,
      "v": 127
    },
    {
      "midi": 46,
      "hit": false,
      "t": 337454.208,
      "d": 727.2719999999972,
      "v": 127
    },
    {
      "midi": 45,
      "hit": false,
      "t": 338181.48,
      "d": 727.2719999999972,
      "v": 127
    },
    {
      "midi": 57,
      "hit": false,
      "t": 338181.48,
      "d": 727.2719999999972,
      "v": 127
    },
    {
      "midi": 33,
      "hit": false,
      "t": 338908.752,
      "d": 727.2719999999972,
      "v": 127
    },
    {
      "midi": 45,
      "hit": false,
      "t": 338908.752,
      "d": 727.2719999999972,
      "v": 127
    },
    {
      "midi": 45,
      "hit": false,
      "t": 339636.024,
      "d": 727.2719999999972,
      "v": 127
    },
    {
      "midi": 57,
      "hit": false,
      "t": 339636.024,
      "d": 727.2719999999972,
      "v": 127
    },
    {
      "midi": 34,
      "hit": false,
      "t": 340363.296,
      "d": 727.2719999999972,
      "v": 127
    },
    {
      "midi": 46,
      "hit": false,
      "t": 340363.296,
      "d": 727.2719999999972,
      "v": 127
    },
    {
      "midi": 50,
      "hit": false,
      "t": 341090.56799999997,
      "d": 727.2719999999972,
      "v": 127
    },
    {
      "midi": 62,
      "hit": false,
      "t": 341090.56799999997,
      "d": 727.2719999999972,
      "v": 127
    },
    {
      "midi": 51,
      "hit": false,
      "t": 341817.83999999997,
      "d": 727.2719999999972,
      "v": 127
    },
    {
      "midi": 63,
      "hit": false,
      "t": 341817.83999999997,
      "d": 727.2719999999972,
      "v": 127
    },
    {
      "midi": 38,
      "hit": false,
      "t": 342545.11199999996,
      "d": 727.2719999999972,
      "v": 127
    },
    {
      "midi": 50,
      "hit": false,
      "t": 342545.11199999996,
      "d": 727.2719999999972,
      "v": 127
    },
    {
      "midi": 39,
      "hit": false,
      "t": 343272.38399999996,
      "d": 727.2719999999972,
      "v": 127
    },
    {
      "midi": 51,
      "hit": false,
      "t": 343272.38399999996,
      "d": 727.2719999999972,
      "v": 127
    },
    {
      "midi": 34,
      "hit": false,
      "t": 343999.65599999996,
      "d": 727.2719999999972,
      "v": 127
    },
    {
      "midi": 46,
      "hit": false,
      "t": 343999.65599999996,
      "d": 727.2719999999972,
      "v": 127
    },
    {
      "midi": 47,
      "hit": false,
      "t": 344726.92799999996,
      "d": 1090.9079999999958,
      "v": 127
    },
    {
      "midi": 51,
      "hit": false,
      "t": 344726.92799999996,
      "d": 1090.9079999999958,
      "v": 127
    },
    {
      "midi": 54,
      "hit": false,
      "t": 344726.92799999996,
      "d": 1090.9079999999958,
      "v": 127
    },
    {
      "midi": 42,
      "hit": false,
      "t": 345817.83599999995,
      "d": 1090.9079999999958,
      "v": 127
    },
    {
      "midi": 49,
      "hit": false,
      "t": 345817.83599999995,
      "d": 1090.9079999999958,
      "v": 127
    },
    {
      "midi": 54,
      "hit": false,
      "t": 345817.83599999995,
      "d": 1090.9079999999958,
      "v": 127
    },
    {
      "midi": 34,
      "hit": false,
      "t": 346908.74399999995,
      "d": 727.2719999999972,
      "v": 127
    },
    {
      "midi": 46,
      "hit": false,
      "t": 346908.74399999995,
      "d": 727.2719999999972,
      "v": 127
    },
    {
      "midi": 50,
      "hit": false,
      "t": 347636.01599999995,
      "d": 727.2719999999972,
      "v": 127
    },
    {
      "midi": 62,
      "hit": false,
      "t": 347636.01599999995,
      "d": 727.2719999999972,
      "v": 127
    },
    {
      "midi": 51,
      "hit": false,
      "t": 348363.28799999994,
      "d": 727.2719999999972,
      "v": 127
    },
    {
      "midi": 63,
      "hit": false,
      "t": 348363.28799999994,
      "d": 727.2719999999972,
      "v": 127
    },
    {
      "midi": 38,
      "hit": false,
      "t": 349090.55999999994,
      "d": 727.2719999999972,
      "v": 127
    },
    {
      "midi": 50,
      "hit": false,
      "t": 349090.55999999994,
      "d": 727.2719999999972,
      "v": 127
    },
    {
      "midi": 39,
      "hit": false,
      "t": 349817.83199999994,
      "d": 727.2719999999972,
      "v": 127
    },
    {
      "midi": 51,
      "hit": false,
      "t": 349817.83199999994,
      "d": 727.2719999999972,
      "v": 127
    },
    {
      "midi": 34,
      "hit": false,
      "t": 350545.10399999993,
      "d": 727.2719999999972,
      "v": 127
    },
    {
      "midi": 46,
      "hit": false,
      "t": 350545.10399999993,
      "d": 727.2719999999972,
      "v": 127
    },
    {
      "midi": 48,
      "hit": false,
      "t": 351272.37599999993,
      "d": 1090.9079999999958,
      "v": 127
    },
    {
      "midi": 51,
      "hit": false,
      "t": 351272.37599999993,
      "d": 1090.9079999999958,
      "v": 127
    },
    {
      "midi": 55,
      "hit": false,
      "t": 351272.37599999993,
      "d": 1090.9079999999958,
      "v": 127
    },
    {
      "midi": 46,
      "hit": false,
      "t": 352363.2839999999,
      "d": 1090.9079999999958,
      "v": 127
    },
    {
      "midi": 53,
      "hit": false,
      "t": 352363.2839999999,
      "d": 1090.9079999999958,
      "v": 127
    },
    {
      "midi": 58,
      "hit": false,
      "t": 352363.2839999999,
      "d": 1090.9079999999958,
      "v": 127
    },
    {
      "midi": 27,
      "hit": false,
      "t": 353317.82849999995,
      "d": 136.36349999997765,
      "v": 125
    },
    {
      "midi": 39,
      "hit": false,
      "t": 353317.82849999995,
      "d": 136.36349999997765,
      "v": 125
    },
    {
      "midi": 27,
      "hit": false,
      "t": 353454.1919999999,
      "d": 2045.452500000014,
      "v": 127
    },
    {
      "midi": 39,
      "hit": false,
      "t": 353454.1919999999,
      "d": 2045.452500000014,
      "v": 127
    },
    {
      "midi": 43,
      "hit": false,
      "t": 353454.1919999999,
      "d": 2181.8159999999916,
      "v": 127
    },
    {
      "midi": 46,
      "hit": false,
      "t": 353454.1919999999,
      "d": 2181.8159999999916,
      "v": 127
    },
    {
      "midi": 51,
      "hit": false,
      "t": 353454.1919999999,
      "d": 2181.8159999999916,
      "v": 127
    },
    {
      "midi": 55,
      "hit": false,
      "t": 353454.1919999999,
      "d": 2181.8159999999916,
      "v": 127
    },
    {
      "midi": 27,
      "hit": false,
      "t": 355499.64449999994,
      "d": 136.36349999997765,
      "v": 127
    },
    {
      "midi": 39,
      "hit": false,
      "t": 355499.64449999994,
      "d": 136.36349999997765,
      "v": 127
    },
    {
      "midi": 27,
      "hit": false,
      "t": 355636.0079999999,
      "d": 2045.452500000014,
      "v": 127
    },
    {
      "midi": 39,
      "hit": false,
      "t": 355636.0079999999,
      "d": 2045.452500000014,
      "v": 127
    },
    {
      "midi": 41,
      "hit": false,
      "t": 355636.0079999999,
      "d": 2181.8159999999916,
      "v": 127
    },
    {
      "midi": 46,
      "hit": false,
      "t": 355636.0079999999,
      "d": 2181.8159999999916,
      "v": 127
    },
    {
      "midi": 50,
      "hit": false,
      "t": 355636.0079999999,
      "d": 2181.8159999999916,
      "v": 127
    },
    {
      "midi": 53,
      "hit": false,
      "t": 355636.0079999999,
      "d": 2181.8159999999916,
      "v": 127
    },
    {
      "midi": 27,
      "hit": false,
      "t": 357681.4604999999,
      "d": 136.36349999997765,
      "v": 127
    },
    {
      "midi": 39,
      "hit": false,
      "t": 357681.4604999999,
      "d": 136.36349999997765,
      "v": 127
    },
    {
      "midi": 27,
      "hit": false,
      "t": 357817.8239999999,
      "d": 2181.8159999999916,
      "v": 127
    },
    {
      "midi": 39,
      "hit": false,
      "t": 357817.8239999999,
      "d": 2181.8159999999916,
      "v": 127
    },
    {
      "midi": 43,
      "hit": false,
      "t": 357817.8239999999,
      "d": 2181.8159999999916,
      "v": 127
    },
    {
      "midi": 46,
      "hit": false,
      "t": 357817.8239999999,
      "d": 2181.8159999999916,
      "v": 127
    },
    {
      "midi": 51,
      "hit": false,
      "t": 357817.8239999999,
      "d": 2181.8159999999916,
      "v": 127
    },
    {
      "midi": 36,
      "hit": false,
      "t": 359999.6399999999,
      "d": 1090.9079999999958,
      "v": 127
    },
    {
      "midi": 39,
      "hit": false,
      "t": 359999.6399999999,
      "d": 1090.9079999999958,
      "v": 127
    },
    {
      "midi": 43,
      "hit": false,
      "t": 359999.6399999999,
      "d": 1090.9079999999958,
      "v": 127
    },
    {
      "midi": 48,
      "hit": false,
      "t": 359999.6399999999,
      "d": 1090.9079999999958,
      "v": 127
    },
    {
      "midi": 39,
      "hit": false,
      "t": 361090.5479999999,
      "d": 954.5445000000182,
      "v": 127
    },
    {
      "midi": 43,
      "hit": false,
      "t": 361090.5479999999,
      "d": 1090.9079999999958,
      "v": 127
    },
    {
      "midi": 48,
      "hit": false,
      "t": 361090.5479999999,
      "d": 1090.9079999999958,
      "v": 127
    },
    {
      "midi": 51,
      "hit": false,
      "t": 361090.5479999999,
      "d": 1090.9079999999958,
      "v": 127
    },
    {
      "midi": 27,
      "hit": false,
      "t": 362045.0924999999,
      "d": 136.36349999997765,
      "v": 127
    },
    {
      "midi": 39,
      "hit": false,
      "t": 362045.0924999999,
      "d": 136.36349999997765,
      "v": 127
    },
    {
      "midi": 27,
      "hit": false,
      "t": 362181.4559999999,
      "d": 2181.8159999999916,
      "v": 127
    },
    {
      "midi": 38,
      "hit": false,
      "t": 362181.4559999999,
      "d": 2181.8159999999916,
      "v": 127
    },
    {
      "midi": 39,
      "hit": false,
      "t": 362181.4559999999,
      "d": 2181.8159999999916,
      "v": 127
    },
    {
      "midi": 41,
      "hit": false,
      "t": 362181.4559999999,
      "d": 2181.8159999999916,
      "v": 127
    },
    {
      "midi": 46,
      "hit": false,
      "t": 362181.4559999999,
      "d": 2181.8159999999916,
      "v": 127
    },
    {
      "midi": 50,
      "hit": false,
      "t": 362181.4559999999,
      "d": 2181.8159999999916,
      "v": 127
    },
    {
      "midi": 34,
      "hit": false,
      "t": 364363.2719999999,
      "d": 2181.8159999999916,
      "v": 127
    },
    {
      "midi": 46,
      "hit": false,
      "t": 364363.2719999999,
      "d": 2181.8159999999916,
      "v": 127
    },
    {
      "midi": 53,
      "hit": false,
      "t": 366408.7244999999,
      "d": 136.36349999997765,
      "v": 127
    },
    {
      "midi": 58,
      "hit": false,
      "t": 366408.7244999999,
      "d": 136.36349999997765,
      "v": 127
    },
    {
      "midi": 29,
      "hit": false,
      "t": 366545.0879999999,
      "d": 2181.8159999999916,
      "v": 127
    },
    {
      "midi": 41,
      "hit": false,
      "t": 366545.0879999999,
      "d": 2181.8159999999916,
      "v": 127
    },
    {
      "midi": 55,
      "hit": false,
      "t": 368590.5404999999,
      "d": 136.36349999997765,
      "v": 127
    },
    {
      "midi": 60,
      "hit": false,
      "t": 368590.5404999999,
      "d": 136.36349999997765,
      "v": 127
    },
    {
      "midi": 31,
      "hit": false,
      "t": 368726.90399999986,
      "d": 2181.8159999999916,
      "v": 127
    },
    {
      "midi": 43,
      "hit": false,
      "t": 368726.90399999986,
      "d": 2181.8159999999916,
      "v": 127
    },
    {
      "midi": 27,
      "hit": false,
      "t": 370908.71999999986,
      "d": 1090.9079999999958,
      "v": 127
    },
    {
      "midi": 39,
      "hit": false,
      "t": 370908.71999999986,
      "d": 1090.9079999999958,
      "v": 127
    },
    {
      "midi": 55,
      "hit": false,
      "t": 371999.62799999985,
      "d": 1090.9079999999958,
      "v": 127
    },
    {
      "midi": 58,
      "hit": false,
      "t": 371999.62799999985,
      "d": 1090.9079999999958,
      "v": 127
    },
    {
      "midi": 27,
      "hit": false,
      "t": 373090.53599999985,
      "d": 1090.9079999999958,
      "v": 127
    },
    {
      "midi": 39,
      "hit": false,
      "t": 373090.53599999985,
      "d": 1090.9079999999958,
      "v": 127
    },
    {
      "midi": 55,
      "hit": false,
      "t": 374181.44399999984,
      "d": 1090.9079999999958,
      "v": 127
    },
    {
      "midi": 58,
      "hit": false,
      "t": 374181.44399999984,
      "d": 1090.9079999999958,
      "v": 127
    },
    {
      "midi": 27,
      "hit": false,
      "t": 375272.35199999984,
      "d": 68.18174999998882,
      "v": 92
    },
    {
      "midi": 39,
      "hit": false,
      "t": 375340.5337499998,
      "d": 68.18174999998882,
      "v": 93
    },
    {
      "midi": 27,
      "hit": false,
      "t": 375408.7154999998,
      "d": 68.18174999998882,
      "v": 93
    },
    {
      "midi": 39,
      "hit": false,
      "t": 375476.8972499998,
      "d": 68.18174999998882,
      "v": 94
    },
    {
      "midi": 27,
      "hit": false,
      "t": 375545.0789999998,
      "d": 68.18174999998882,
      "v": 94
    },
    {
      "midi": 39,
      "hit": false,
      "t": 375613.2607499998,
      "d": 68.18174999998882,
      "v": 95
    },
    {
      "midi": 27,
      "hit": false,
      "t": 375681.4424999998,
      "d": 68.18174999998882,
      "v": 96
    },
    {
      "midi": 39,
      "hit": false,
      "t": 375749.62424999976,
      "d": 68.18174999998882,
      "v": 96
    },
    {
      "midi": 27,
      "hit": false,
      "t": 375817.80599999975,
      "d": 68.18174999998882,
      "v": 97
    },
    {
      "midi": 39,
      "hit": false,
      "t": 375885.98774999974,
      "d": 68.18174999998882,
      "v": 97
    },
    {
      "midi": 27,
      "hit": false,
      "t": 375954.1694999997,
      "d": 68.18174999998882,
      "v": 98
    },
    {
      "midi": 39,
      "hit": false,
      "t": 376022.3512499997,
      "d": 68.18174999998882,
      "v": 99
    },
    {
      "midi": 27,
      "hit": false,
      "t": 376090.5329999997,
      "d": 68.18174999998882,
      "v": 99
    },
    {
      "midi": 39,
      "hit": false,
      "t": 376158.7147499997,
      "d": 68.18174999998882,
      "v": 100
    },
    {
      "midi": 27,
      "hit": false,
      "t": 376226.8964999997,
      "d": 68.18174999998882,
      "v": 100
    },
    {
      "midi": 39,
      "hit": false,
      "t": 376295.0782499997,
      "d": 68.18174999998882,
      "v": 101
    },
    {
      "midi": 27,
      "hit": false,
      "t": 376363.25999999966,
      "d": 68.18174999998882,
      "v": 101
    },
    {
      "midi": 39,
      "hit": false,
      "t": 376431.44174999965,
      "d": 68.18174999998882,
      "v": 102
    },
    {
      "midi": 27,
      "hit": false,
      "t": 376499.62349999964,
      "d": 68.18174999998882,
      "v": 103
    },
    {
      "midi": 39,
      "hit": false,
      "t": 376567.8052499996,
      "d": 68.18174999998882,
      "v": 103
    },
    {
      "midi": 27,
      "hit": false,
      "t": 376635.9869999996,
      "d": 68.18174999998882,
      "v": 104
    },
    {
      "midi": 39,
      "hit": false,
      "t": 376704.1687499996,
      "d": 68.18174999998882,
      "v": 104
    },
    {
      "midi": 27,
      "hit": false,
      "t": 376772.3504999996,
      "d": 68.18174999998882,
      "v": 105
    },
    {
      "midi": 39,
      "hit": false,
      "t": 376840.5322499996,
      "d": 68.18174999998882,
      "v": 106
    },
    {
      "midi": 27,
      "hit": false,
      "t": 376908.71399999957,
      "d": 68.18174999998882,
      "v": 106
    },
    {
      "midi": 39,
      "hit": false,
      "t": 376976.89574999956,
      "d": 68.18174999998882,
      "v": 107
    },
    {
      "midi": 27,
      "hit": false,
      "t": 377045.07749999955,
      "d": 68.18174999998882,
      "v": 107
    },
    {
      "midi": 39,
      "hit": false,
      "t": 377113.25924999954,
      "d": 68.18174999998882,
      "v": 108
    },
    {
      "midi": 27,
      "hit": false,
      "t": 377181.4409999995,
      "d": 68.18174999998882,
      "v": 109
    },
    {
      "midi": 39,
      "hit": false,
      "t": 377249.6227499995,
      "d": 68.18174999998882,
      "v": 109
    },
    {
      "midi": 27,
      "hit": false,
      "t": 377317.8044999995,
      "d": 68.18174999998882,
      "v": 110
    },
    {
      "midi": 39,
      "hit": false,
      "t": 377385.9862499995,
      "d": 68.18174999998882,
      "v": 110
    },
    {
      "midi": 27,
      "hit": false,
      "t": 377454.1679999995,
      "d": 68.18174999998882,
      "v": 111
    },
    {
      "midi": 39,
      "hit": false,
      "t": 377522.34974999947,
      "d": 68.18174999998882,
      "v": 112
    },
    {
      "midi": 27,
      "hit": false,
      "t": 377590.53149999946,
      "d": 68.18174999998882,
      "v": 112
    },
    {
      "midi": 39,
      "hit": false,
      "t": 377658.71324999945,
      "d": 68.18174999998882,
      "v": 113
    },
    {
      "midi": 27,
      "hit": false,
      "t": 377726.89499999944,
      "d": 68.18174999998882,
      "v": 113
    },
    {
      "midi": 39,
      "hit": false,
      "t": 377795.0767499994,
      "d": 68.18174999998882,
      "v": 114
    },
    {
      "midi": 27,
      "hit": false,
      "t": 377863.2584999994,
      "d": 68.18174999998882,
      "v": 115
    },
    {
      "midi": 39,
      "hit": false,
      "t": 377931.4402499994,
      "d": 68.18174999998882,
      "v": 115
    },
    {
      "midi": 27,
      "hit": false,
      "t": 377999.6219999994,
      "d": 68.18174999998882,
      "v": 116
    },
    {
      "midi": 39,
      "hit": false,
      "t": 378067.8037499994,
      "d": 68.18174999998882,
      "v": 116
    },
    {
      "midi": 27,
      "hit": false,
      "t": 378135.98549999937,
      "d": 68.18174999998882,
      "v": 117
    },
    {
      "midi": 39,
      "hit": false,
      "t": 378204.16724999936,
      "d": 68.18174999998882,
      "v": 118
    },
    {
      "midi": 27,
      "hit": false,
      "t": 378272.34899999935,
      "d": 68.18174999998882,
      "v": 118
    },
    {
      "midi": 39,
      "hit": false,
      "t": 378340.53074999934,
      "d": 68.18174999998882,
      "v": 119
    },
    {
      "midi": 27,
      "hit": false,
      "t": 378408.7124999993,
      "d": 68.18174999998882,
      "v": 119
    },
    {
      "midi": 39,
      "hit": false,
      "t": 378476.8942499993,
      "d": 68.18174999998882,
      "v": 120
    },
    {
      "midi": 27,
      "hit": false,
      "t": 378545.0759999993,
      "d": 68.18174999998882,
      "v": 121
    },
    {
      "midi": 39,
      "hit": false,
      "t": 378613.2577499993,
      "d": 68.18174999998882,
      "v": 121
    },
    {
      "midi": 27,
      "hit": false,
      "t": 378681.4394999993,
      "d": 68.18174999998882,
      "v": 122
    },
    {
      "midi": 39,
      "hit": false,
      "t": 378749.62124999927,
      "d": 68.18174999998882,
      "v": 122
    },
    {
      "midi": 27,
      "hit": false,
      "t": 378817.80299999926,
      "d": 68.18174999998882,
      "v": 123
    },
    {
      "midi": 39,
      "hit": false,
      "t": 378885.98474999925,
      "d": 68.18174999998882,
      "v": 124
    },
    {
      "midi": 27,
      "hit": false,
      "t": 378954.16649999924,
      "d": 68.18174999998882,
      "v": 124
    },
    {
      "midi": 39,
      "hit": false,
      "t": 379022.3482499992,
      "d": 68.18174999998882,
      "v": 125
    },
    {
      "midi": 27,
      "hit": false,
      "t": 379090.5299999992,
      "d": 68.18174999998882,
      "v": 125
    },
    {
      "midi": 39,
      "hit": false,
      "t": 379158.7117499992,
      "d": 68.18174999998882,
      "v": 126
    },
    {
      "midi": 27,
      "hit": false,
      "t": 379226.8934999992,
      "d": 68.18174999998882,
      "v": 127
    },
    {
      "midi": 39,
      "hit": false,
      "t": 379295.0752499992,
      "d": 68.18174999998882,
      "v": 127
    },
    {
      "midi": 27,
      "hit": false,
      "t": 379363.25699999917,
      "d": 68.18174999998882,
      "v": 127
    },
    {
      "midi": 39,
      "hit": false,
      "t": 379431.43874999916,
      "d": 68.18174999998882,
      "v": 127
    },
    {
      "midi": 27,
      "hit": false,
      "t": 379499.62049999915,
      "d": 68.18174999998882,
      "v": 127
    },
    {
      "midi": 39,
      "hit": false,
      "t": 379567.80224999913,
      "d": 68.18174999998882,
      "v": 127
    },
    {
      "midi": 27,
      "hit": false,
      "t": 379635.9839999991,
      "d": 1636.3620000000228,
      "v": 127
    },
    {
      "midi": 39,
      "hit": false,
      "t": 379635.9839999991,
      "d": 1636.3620000000228,
      "v": 127
    }
  ]
}