{
  "jsonPath": "Pop/Adult Standards/Mannheim Steamroller/wassail-wassail.json",
  "path": "Pop\\Adult Standards\\Mannheim Steamroller\\Wassail_ Wassail.mid",
  "name": "Wassail_ Wassail",
  "difficulty": "Advanced",
  "bpm": 185.0007554197513,
  "notes": [
    {
      "midi": 43,
      "hit": false,
      "t": 1297.292,
      "d": 658.7810937499999,
      "v": 49
    },
    {
      "midi": 55,
      "hit": false,
      "t": 1297.292,
      "d": 663.8486406249999,
      "v": 57
    },
    {
      "midi": 50,
      "hit": false,
      "t": 1297.292,
      "d": 672.2945520833332,
      "v": 61
    },
    {
      "midi": 43,
      "hit": false,
      "t": 2270.2609999999995,
      "d": 971.2798177083332,
      "v": 62
    },
    {
      "midi": 50,
      "hit": false,
      "t": 2270.2609999999995,
      "d": 971.2798177083332,
      "v": 75
    },
    {
      "midi": 55,
      "hit": false,
      "t": 2270.2609999999995,
      "d": 971.2798177083332,
      "v": 72
    },
    {
      "midi": 43,
      "hit": false,
      "t": 3243.2299999999996,
      "d": 971.2798177083332,
      "v": 70
    },
    {
      "midi": 50,
      "hit": false,
      "t": 3243.2299999999996,
      "d": 971.2798177083332,
      "v": 73
    },
    {
      "midi": 55,
      "hit": false,
      "t": 3243.2299999999996,
      "d": 971.2798177083332,
      "v": 65
    },
    {
      "midi": 43,
      "hit": false,
      "t": 4216.199,
      "d": 971.2798177083332,
      "v": 57
    },
    {
      "midi": 50,
      "hit": false,
      "t": 4216.199,
      "d": 971.2798177083332,
      "v": 79
    },
    {
      "midi": 55,
      "hit": false,
      "t": 4216.199,
      "d": 971.2798177083332,
      "v": 59
    },
    {
      "midi": 48,
      "hit": false,
      "t": 5189.168,
      "d": 971.2798177083332,
      "v": 69
    },
    {
      "midi": 55,
      "hit": false,
      "t": 5189.168,
      "d": 971.2798177083332,
      "v": 57
    },
    {
      "midi": 48,
      "hit": false,
      "t": 6162.137,
      "d": 971.2798177083341,
      "v": 70
    },
    {
      "midi": 55,
      "hit": false,
      "t": 6162.137,
      "d": 971.2798177083341,
      "v": 68
    },
    {
      "midi": 41,
      "hit": false,
      "t": 7130.038453125,
      "d": 533.7816041666665,
      "v": 81
    },
    {
      "midi": 43,
      "hit": false,
      "t": 7788.819546875,
      "d": 160.47231770833332,
      "v": 75
    },
    {
      "midi": 48,
      "hit": false,
      "t": 8108.075,
      "d": 971.2798177083323,
      "v": 80
    },
    {
      "midi": 50,
      "hit": false,
      "t": 9081.043999999998,
      "d": 971.2798177083332,
      "v": 88
    },
    {
      "midi": 57,
      "hit": false,
      "t": 9081.043999999998,
      "d": 971.2798177083332,
      "v": 60
    },
    {
      "midi": 43,
      "hit": false,
      "t": 10054.012999999997,
      "d": 971.2798177083332,
      "v": 71
    },
    {
      "midi": 50,
      "hit": false,
      "t": 10054.012999999997,
      "d": 971.2798177083332,
      "v": 74
    },
    {
      "midi": 48,
      "hit": false,
      "t": 11013.468541666663,
      "d": 635.1325416666677,
      "v": 70
    },
    {
      "midi": 40,
      "hit": false,
      "t": 11651.979447916665,
      "d": 143.58049479166584,
      "v": 80
    },
    {
      "midi": 43,
      "hit": false,
      "t": 11999.950999999997,
      "d": 971.2798177083332,
      "v": 75
    },
    {
      "midi": 50,
      "hit": false,
      "t": 11999.950999999997,
      "d": 971.2798177083332,
      "v": 76
    },
    {
      "midi": 48,
      "hit": false,
      "t": 12972.919999999996,
      "d": 971.2798177083332,
      "v": 79
    },
    {
      "midi": 47,
      "hit": false,
      "t": 13949.26736458333,
      "d": 435.80903125000077,
      "v": 83
    },
    {
      "midi": 43,
      "hit": false,
      "t": 14586.089088541663,
      "d": 172.29659374999937,
      "v": 64
    },
    {
      "midi": 48,
      "hit": false,
      "t": 14923.925546874996,
      "d": 560.8085208333341,
      "v": 73
    },
    {
      "midi": 40,
      "hit": false,
      "t": 15538.787901041664,
      "d": 165.53986458333384,
      "v": 71
    },
    {
      "midi": 43,
      "hit": false,
      "t": 15891.826999999997,
      "d": 971.2798177083314,
      "v": 71
    },
    {
      "midi": 50,
      "hit": false,
      "t": 15891.826999999997,
      "d": 971.2798177083314,
      "v": 76
    },
    {
      "midi": 48,
      "hit": false,
      "t": 16844.525812499996,
      "d": 493.241229166666,
      "v": 66
    },
    {
      "midi": 55,
      "hit": false,
      "t": 16852.97172395833,
      "d": 489.86286458333416,
      "v": 64
    },
    {
      "midi": 41,
      "hit": false,
      "t": 17837.764999999996,
      "d": 646.9568177083347,
      "v": 79
    },
    {
      "midi": 48,
      "hit": false,
      "t": 18486.410999999996,
      "d": 322.6338177083344,
      "v": 52
    },
    {
      "midi": 41,
      "hit": false,
      "t": 18810.733999999997,
      "d": 160.4723177083324,
      "v": 83
    },
    {
      "midi": 53,
      "hit": false,
      "t": 18810.733999999997,
      "d": 160.4723177083324,
      "v": 76
    },
    {
      "midi": 43,
      "hit": false,
      "t": 19145.192093749996,
      "d": 675.6729166666628,
      "v": 81
    },
    {
      "midi": 50,
      "hit": false,
      "t": 19146.881276041662,
      "d": 653.7135468749984,
      "v": 87
    },
    {
      "midi": 36,
      "hit": false,
      "t": 19783.702999999994,
      "d": 1940.8704531249969,
      "v": 56
    },
    {
      "midi": 48,
      "hit": false,
      "t": 19783.702999999994,
      "d": 1940.8704531249969,
      "v": 39
    },
    {
      "midi": 36,
      "hit": false,
      "t": 21729.640999999992,
      "d": 876.6856093749993,
      "v": 80
    },
    {
      "midi": 43,
      "hit": false,
      "t": 21733.019364583324,
      "d": 864.8613333333342,
      "v": 81
    },
    {
      "midi": 43,
      "hit": false,
      "t": 22717.81264062499,
      "d": 866.5505156250001,
      "v": 86
    },
    {
      "midi": 36,
      "hit": false,
      "t": 22721.191005208322,
      "d": 869.9288802083356,
      "v": 89
    },
    {
      "midi": 48,
      "hit": false,
      "t": 23675.578999999998,
      "d": 969.5906354166655,
      "v": 86
    },
    {
      "midi": 55,
      "hit": false,
      "t": 23675.578999999998,
      "d": 969.5906354166655,
      "v": 86
    },
    {
      "midi": 48,
      "hit": false,
      "t": 24648.547999999995,
      "d": 969.5906354166655,
      "v": 86
    },
    {
      "midi": 55,
      "hit": false,
      "t": 24648.547999999995,
      "d": 969.5906354166655,
      "v": 79
    },
    {
      "midi": 41,
      "hit": false,
      "t": 25621.516999999993,
      "d": 645.2676354166651,
      "v": 96
    },
    {
      "midi": 43,
      "hit": false,
      "t": 26270.16299999999,
      "d": 322.6338177083344,
      "v": 84
    },
    {
      "midi": 45,
      "hit": false,
      "t": 26594.48599999999,
      "d": 645.2676354166651,
      "v": 95
    },
    {
      "midi": 43,
      "hit": false,
      "t": 27243.131999999987,
      "d": 322.6338177083344,
      "v": 85
    },
    {
      "midi": 48,
      "hit": false,
      "t": 27567.454999999987,
      "d": 967.9014531249995,
      "v": 86
    },
    {
      "midi": 55,
      "hit": false,
      "t": 27567.454999999987,
      "d": 967.9014531249995,
      "v": 84
    },
    {
      "midi": 48,
      "hit": false,
      "t": 28540.423999999988,
      "d": 969.5906354166655,
      "v": 88
    },
    {
      "midi": 55,
      "hit": false,
      "t": 28540.423999999988,
      "d": 969.5906354166655,
      "v": 85
    },
    {
      "midi": 41,
      "hit": false,
      "t": 29513.392999999985,
      "d": 645.2676354166651,
      "v": 95
    },
    {
      "midi": 43,
      "hit": false,
      "t": 30162.038999999982,
      "d": 322.6338177083344,
      "v": 80
    },
    {
      "midi": 48,
      "hit": false,
      "t": 30486.361999999983,
      "d": 322.6338177083344,
      "v": 91
    },
    {
      "midi": 48,
      "hit": false,
      "t": 31135.007999999983,
      "d": 1295.6028177083317,
      "v": 82
    },
    {
      "midi": 55,
      "hit": false,
      "t": 31135.007999999983,
      "d": 1295.6028177083317,
      "v": 72
    },
    {
      "midi": 55,
      "hit": false,
      "t": 32432.29999999998,
      "d": 967.9014531249995,
      "v": 86
    },
    {
      "midi": 48,
      "hit": false,
      "t": 32432.29999999998,
      "d": 969.5906354166655,
      "v": 87
    },
    {
      "midi": 45,
      "hit": false,
      "t": 33405.26899999998,
      "d": 645.2676354166688,
      "v": 96
    },
    {
      "midi": 43,
      "hit": false,
      "t": 34053.91499999998,
      "d": 322.63381770833075,
      "v": 87
    },
    {
      "midi": 36,
      "hit": false,
      "t": 34378.237999999976,
      "d": 969.5906354166655,
      "v": 84
    },
    {
      "midi": 43,
      "hit": false,
      "t": 34378.237999999976,
      "d": 969.5906354166655,
      "v": 80
    },
    {
      "midi": 48,
      "hit": false,
      "t": 35351.20699999997,
      "d": 967.9014531249995,
      "v": 80
    },
    {
      "midi": 55,
      "hit": false,
      "t": 35351.20699999997,
      "d": 967.9014531249995,
      "v": 84
    },
    {
      "midi": 50,
      "hit": false,
      "t": 36324.17599999997,
      "d": 645.2676354166688,
      "v": 92
    },
    {
      "midi": 57,
      "hit": false,
      "t": 36324.17599999997,
      "d": 645.2676354166688,
      "v": 86
    },
    {
      "midi": 52,
      "hit": false,
      "t": 36972.82199999997,
      "d": 322.63381770833075,
      "v": 91
    },
    {
      "midi": 53,
      "hit": false,
      "t": 37297.14499999997,
      "d": 322.63381770833075,
      "v": 95
    },
    {
      "midi": 55,
      "hit": false,
      "t": 37621.467999999964,
      "d": 322.63381770833075,
      "v": 95
    },
    {
      "midi": 43,
      "hit": false,
      "t": 37945.79099999996,
      "d": 322.63381770833075,
      "v": 93
    },
    {
      "midi": 48,
      "hit": false,
      "t": 38270.11399999996,
      "d": 969.5906354166655,
      "v": 99
    },
    {
      "midi": 45,
      "hit": false,
      "t": 39243.082999999955,
      "d": 967.9014531249995,
      "v": 97
    },
    {
      "midi": 45,
      "hit": false,
      "t": 39384.97431249999,
      "d": 158.78313541667012,
      "v": 86
    },
    {
      "midi": 52,
      "hit": false,
      "t": 39547.13581249999,
      "d": 158.78313541667012,
      "v": 76
    },
    {
      "midi": 57,
      "hit": false,
      "t": 39709.29731249999,
      "d": 160.47231770833605,
      "v": 74
    },
    {
      "midi": 45,
      "hit": false,
      "t": 39871.458812499994,
      "d": 322.63381770833075,
      "v": 67
    },
    {
      "midi": 52,
      "hit": false,
      "t": 39871.458812499994,
      "d": 322.63381770833075,
      "v": 81
    },
    {
      "midi": 57,
      "hit": false,
      "t": 39871.458812499994,
      "d": 322.63381770833075,
      "v": 80
    },
    {
      "midi": 45,
      "hit": false,
      "t": 40216.05199999995,
      "d": 967.9014531249995,
      "v": 100
    },
    {
      "midi": 45,
      "hit": false,
      "t": 40357.94331249999,
      "d": 158.78313541667012,
      "v": 91
    },
    {
      "midi": 52,
      "hit": false,
      "t": 40520.104812499994,
      "d": 158.78313541667012,
      "v": 85
    },
    {
      "midi": 57,
      "hit": false,
      "t": 40682.266312499996,
      "d": 160.47231770833605,
      "v": 72
    },
    {
      "midi": 45,
      "hit": false,
      "t": 40844.4278125,
      "d": 322.63381770833075,
      "v": 59
    },
    {
      "midi": 52,
      "hit": false,
      "t": 40844.4278125,
      "d": 322.63381770833075,
      "v": 81
    },
    {
      "midi": 57,
      "hit": false,
      "t": 40844.4278125,
      "d": 322.63381770833075,
      "v": 74
    },
    {
      "midi": 38,
      "hit": false,
      "t": 41189.02099999995,
      "d": 645.2676354166688,
      "v": 84
    },
    {
      "midi": 50,
      "hit": false,
      "t": 41330.9123125,
      "d": 158.78313541667012,
      "v": 93
    },
    {
      "midi": 53,
      "hit": false,
      "t": 41493.0738125,
      "d": 160.47231770833605,
      "v": 55
    },
    {
      "midi": 57,
      "hit": false,
      "t": 41655.2353125,
      "d": 160.47231770833605,
      "v": 65
    },
    {
      "midi": 52,
      "hit": false,
      "t": 41817.3968125,
      "d": 322.63381770833075,
      "v": 81
    },
    {
      "midi": 59,
      "hit": false,
      "t": 41817.3968125,
      "d": 322.63381770833075,
      "v": 85
    },
    {
      "midi": 40,
      "hit": false,
      "t": 41837.66699999995,
      "d": 322.63381770833075,
      "v": 103
    },
    {
      "midi": 45,
      "hit": false,
      "t": 42161.98999999995,
      "d": 645.2676354166688,
      "v": 95
    },
    {
      "midi": 45,
      "hit": false,
      "t": 42303.8813125,
      "d": 158.78313541667012,
      "v": 72
    },
    {
      "midi": 52,
      "hit": false,
      "t": 42466.0428125,
      "d": 160.47231770833605,
      "v": 85
    },
    {
      "midi": 57,
      "hit": false,
      "t": 42628.204312500005,
      "d": 160.47231770833605,
      "v": 67
    },
    {
      "midi": 52,
      "hit": false,
      "t": 42790.36581250001,
      "d": 322.63381770833075,
      "v": 82
    },
    {
      "midi": 59,
      "hit": false,
      "t": 42790.36581250001,
      "d": 322.63381770833075,
      "v": 79
    },
    {
      "midi": 52,
      "hit": false,
      "t": 42810.63599999995,
      "d": 322.63381770833075,
      "v": 94
    },
    {
      "midi": 53,
      "hit": false,
      "t": 43134.958999999944,
      "d": 967.9014531249995,
      "v": 103
    },
    {
      "midi": 41,
      "hit": false,
      "t": 43276.850312500006,
      "d": 158.78313541667012,
      "v": 65
    },
    {
      "midi": 48,
      "hit": false,
      "t": 43439.01181250001,
      "d": 160.47231770833605,
      "v": 70
    },
    {
      "midi": 53,
      "hit": false,
      "t": 43601.17331250001,
      "d": 160.47231770833605,
      "v": 81
    },
    {
      "midi": 53,
      "hit": false,
      "t": 43763.33481250001,
      "d": 320.9446354166648,
      "v": 55
    },
    {
      "midi": 57,
      "hit": false,
      "t": 43763.33481250001,
      "d": 322.63381770833075,
      "v": 52
    },
    {
      "midi": 60,
      "hit": false,
      "t": 43763.33481250001,
      "d": 322.63381770833075,
      "v": 71
    },
    {
      "midi": 41,
      "hit": false,
      "t": 44107.92799999994,
      "d": 967.9014531249995,
      "v": 99
    },
    {
      "midi": 41,
      "hit": false,
      "t": 44249.81931250001,
      "d": 158.78313541667012,
      "v": 86
    },
    {
      "midi": 48,
      "hit": false,
      "t": 44411.98081250001,
      "d": 160.47231770833605,
      "v": 75
    },
    {
      "midi": 53,
      "hit": false,
      "t": 44574.142312500015,
      "d": 160.47231770833605,
      "v": 78
    },
    {
      "midi": 53,
      "hit": false,
      "t": 44736.30381250002,
      "d": 322.63381770833075,
      "v": 73
    },
    {
      "midi": 57,
      "hit": false,
      "t": 44736.30381250002,
      "d": 322.63381770833075,
      "v": 82
    },
    {
      "midi": 60,
      "hit": false,
      "t": 44736.30381250002,
      "d": 322.63381770833075,
      "v": 84
    },
    {
      "midi": 43,
      "hit": false,
      "t": 45080.89699999994,
      "d": 641.8892708333296,
      "v": 96
    },
    {
      "midi": 43,
      "hit": false,
      "t": 45222.788312500015,
      "d": 157.09395312499691,
      "v": 92
    },
    {
      "midi": 50,
      "hit": false,
      "t": 45384.94981250001,
      "d": 158.78313541667012,
      "v": 81
    },
    {
      "midi": 55,
      "hit": false,
      "t": 45547.11131250001,
      "d": 160.47231770833605,
      "v": 82
    },
    {
      "midi": 52,
      "hit": false,
      "t": 45709.272812500014,
      "d": 320.9446354166648,
      "v": 82
    },
    {
      "midi": 55,
      "hit": false,
      "t": 45709.272812500014,
      "d": 320.9446354166648,
      "v": 88
    },
    {
      "midi": 59,
      "hit": false,
      "t": 45709.272812500014,
      "d": 320.9446354166648,
      "v": 96
    },
    {
      "midi": 40,
      "hit": false,
      "t": 45729.54299999993,
      "d": 320.9446354166648,
      "v": 92
    },
    {
      "midi": 45,
      "hit": false,
      "t": 46053.86599999993,
      "d": 641.8892708333369,
      "v": 86
    },
    {
      "midi": 45,
      "hit": false,
      "t": 46195.75731250001,
      "d": 158.78313541667012,
      "v": 80
    },
    {
      "midi": 52,
      "hit": false,
      "t": 46357.918812500015,
      "d": 160.47231770833605,
      "v": 79
    },
    {
      "midi": 57,
      "hit": false,
      "t": 46520.08031250002,
      "d": 158.78313541667012,
      "v": 80
    },
    {
      "midi": 57,
      "hit": false,
      "t": 46682.24181250002,
      "d": 1292.2244531249962,
      "v": 80
    },
    {
      "midi": 53,
      "hit": false,
      "t": 46682.24181250002,
      "d": 1293.9136354166621,
      "v": 71
    },
    {
      "midi": 60,
      "hit": false,
      "t": 46682.24181250002,
      "d": 1293.9136354166621,
      "v": 77
    },
    {
      "midi": 41,
      "hit": false,
      "t": 46702.51199999993,
      "d": 1295.6028177083354,
      "v": 93
    },
    {
      "midi": 41,
      "hit": false,
      "t": 47979.53381250001,
      "d": 155.40477083333099,
      "v": 84
    },
    {
      "midi": 41,
      "hit": false,
      "t": 47999.80399999993,
      "d": 962.8339062500017,
      "v": 97
    },
    {
      "midi": 48,
      "hit": false,
      "t": 48141.69531250001,
      "d": 155.40477083333099,
      "v": 67
    },
    {
      "midi": 53,
      "hit": false,
      "t": 48303.8568125,
      "d": 157.09395312499691,
      "v": 87
    },
    {
      "midi": 57,
      "hit": false,
      "t": 48466.0183125,
      "d": 158.78313541667012,
      "v": 73
    },
    {
      "midi": 65,
      "hit": false,
      "t": 48628.1798125,
      "d": 322.63381770833075,
      "v": 80
    },
    {
      "midi": 50,
      "hit": false,
      "t": 48952.502812499995,
      "d": 157.09395312499691,
      "v": 82
    },
    {
      "midi": 50,
      "hit": false,
      "t": 48972.772999999936,
      "d": 641.8892708333369,
      "v": 99
    },
    {
      "midi": 53,
      "hit": false,
      "t": 49114.66431249999,
      "d": 158.78313541667012,
      "v": 88
    },
    {
      "midi": 57,
      "hit": false,
      "t": 49276.82581249999,
      "d": 322.63381770833075,
      "v": 91
    },
    {
      "midi": 52,
      "hit": false,
      "t": 49601.14881249999,
      "d": 322.63381770833075,
      "v": 81
    },
    {
      "midi": 59,
      "hit": false,
      "t": 49601.14881249999,
      "d": 322.63381770833075,
      "v": 101
    },
    {
      "midi": 52,
      "hit": false,
      "t": 49621.418999999936,
      "d": 320.9446354166648,
      "v": 100
    },
    {
      "midi": 45,
      "hit": false,
      "t": 49945.74199999993,
      "d": 962.8339062500017,
      "v": 95
    },
    {
      "midi": 45,
      "hit": false,
      "t": 50087.63331249999,
      "d": 158.78313541667012,
      "v": 75
    },
    {
      "midi": 52,
      "hit": false,
      "t": 50249.79481249999,
      "d": 160.47231770833605,
      "v": 62
    },
    {
      "midi": 57,
      "hit": false,
      "t": 50411.95631249999,
      "d": 157.09395312499691,
      "v": 81
    },
    {
      "midi": 52,
      "hit": false,
      "t": 50574.117812499986,
      "d": 320.9446354166648,
      "v": 84
    },
    {
      "midi": 57,
      "hit": false,
      "t": 50574.117812499986,
      "d": 320.9446354166648,
      "v": 81
    },
    {
      "midi": 60,
      "hit": false,
      "t": 50574.117812499986,
      "d": 320.9446354166648,
      "v": 84
    },
    {
      "midi": 45,
      "hit": false,
      "t": 50898.44081249998,
      "d": 158.78313541667012,
      "v": 45
    },
    {
      "midi": 57,
      "hit": false,
      "t": 50918.71099999994,
      "d": 479.72777083333494,
      "v": 87
    },
    {
      "midi": 52,
      "hit": false,
      "t": 51060.602312499985,
      "d": 160.47231770833605,
      "v": 60
    },
    {
      "midi": 57,
      "hit": false,
      "t": 51222.76381249999,
      "d": 645.2676354166688,
      "v": 87
    },
    {
      "midi": 52,
      "hit": false,
      "t": 51405.195499999936,
      "d": 160.47231770833605,
      "v": 85
    },
    {
      "midi": 45,
      "hit": false,
      "t": 51567.35699999994,
      "d": 160.47231770833605,
      "v": 83
    },
    {
      "midi": 48,
      "hit": false,
      "t": 51729.51849999994,
      "d": 160.47231770833605,
      "v": 78
    },
    {
      "midi": 50,
      "hit": false,
      "t": 51871.40981249999,
      "d": 158.78313541667012,
      "v": 81
    },
    {
      "midi": 50,
      "hit": false,
      "t": 51891.67999999994,
      "d": 964.5230885416677,
      "v": 107
    },
    {
      "midi": 53,
      "hit": false,
      "t": 52033.57131249999,
      "d": 160.47231770833605,
      "v": 74
    },
    {
      "midi": 57,
      "hit": false,
      "t": 52195.73281249999,
      "d": 645.2676354166688,
      "v": 91
    },
    {
      "midi": 50,
      "hit": false,
      "t": 52844.37881249999,
      "d": 320.9446354166648,
      "v": 71
    },
    {
      "midi": 53,
      "hit": false,
      "t": 52844.37881249999,
      "d": 320.9446354166648,
      "v": 71
    },
    {
      "midi": 57,
      "hit": false,
      "t": 52844.37881249999,
      "d": 320.9446354166648,
      "v": 93
    },
    {
      "midi": 50,
      "hit": false,
      "t": 52864.64899999995,
      "d": 160.47231770833605,
      "v": 104
    },
    {
      "midi": 52,
      "hit": false,
      "t": 53168.70181249999,
      "d": 643.5784531250029,
      "v": 55
    },
    {
      "midi": 55,
      "hit": false,
      "t": 53168.70181249999,
      "d": 643.5784531250029,
      "v": 43
    },
    {
      "midi": 59,
      "hit": false,
      "t": 53168.70181249999,
      "d": 643.5784531250029,
      "v": 92
    },
    {
      "midi": 52,
      "hit": false,
      "t": 53188.97199999995,
      "d": 641.8892708333296,
      "v": 98
    },
    {
      "midi": 52,
      "hit": false,
      "t": 53817.34781249999,
      "d": 964.5230885416677,
      "v": 65
    },
    {
      "midi": 57,
      "hit": false,
      "t": 53817.34781249999,
      "d": 964.5230885416677,
      "v": 85
    },
    {
      "midi": 61,
      "hit": false,
      "t": 53817.34781249999,
      "d": 964.5230885416677,
      "v": 87
    },
    {
      "midi": 45,
      "hit": false,
      "t": 53837.617999999944,
      "d": 964.5230885416677,
      "v": 95
    },
    {
      "midi": 52,
      "hit": false,
      "t": 54790.316812499994,
      "d": 964.5230885416677,
      "v": 86
    },
    {
      "midi": 57,
      "hit": false,
      "t": 54790.316812499994,
      "d": 964.5230885416677,
      "v": 79
    },
    {
      "midi": 61,
      "hit": false,
      "t": 54790.316812499994,
      "d": 964.5230885416677,
      "v": 85
    },
    {
      "midi": 45,
      "hit": false,
      "t": 54810.58699999995,
      "d": 964.5230885416677,
      "v": 91
    },
    {
      "midi": 52,
      "hit": false,
      "t": 55763.2858125,
      "d": 964.5230885416677,
      "v": 91
    },
    {
      "midi": 57,
      "hit": false,
      "t": 55763.2858125,
      "d": 964.5230885416677,
      "v": 80
    },
    {
      "midi": 61,
      "hit": false,
      "t": 55763.2858125,
      "d": 964.5230885416677,
      "v": 86
    },
    {
      "midi": 45,
      "hit": false,
      "t": 55783.55599999995,
      "d": 962.8339062500017,
      "v": 95
    },
    {
      "midi": 53,
      "hit": false,
      "t": 56736.2548125,
      "d": 964.5230885416677,
      "v": 86
    },
    {
      "midi": 57,
      "hit": false,
      "t": 56736.2548125,
      "d": 964.5230885416677,
      "v": 85
    },
    {
      "midi": 60,
      "hit": false,
      "t": 56736.2548125,
      "d": 964.5230885416677,
      "v": 90
    },
    {
      "midi": 41,
      "hit": false,
      "t": 56756.52499999996,
      "d": 966.2122708333336,
      "v": 100
    },
    {
      "midi": 53,
      "hit": false,
      "t": 57709.22381250001,
      "d": 160.47231770833605,
      "v": 82
    },
    {
      "midi": 57,
      "hit": false,
      "t": 57709.22381250001,
      "d": 160.47231770833605,
      "v": 81
    },
    {
      "midi": 60,
      "hit": false,
      "t": 57709.22381250001,
      "d": 160.47231770833605,
      "v": 82
    },
    {
      "midi": 41,
      "hit": false,
      "t": 57729.493999999955,
      "d": 160.47231770833605,
      "v": 95
    },
    {
      "midi": 50,
      "hit": false,
      "t": 58033.54681250001,
      "d": 638.5109062499978,
      "v": 66
    },
    {
      "midi": 57,
      "hit": false,
      "t": 58033.54681250001,
      "d": 638.5109062499978,
      "v": 93
    },
    {
      "midi": 38,
      "hit": false,
      "t": 58053.81699999996,
      "d": 641.8892708333369,
      "v": 96
    },
    {
      "midi": 50,
      "hit": false,
      "t": 58682.19281250001,
      "d": 969.5906354166655,
      "v": 86
    },
    {
      "midi": 55,
      "hit": false,
      "t": 58682.19281250001,
      "d": 969.5906354166655,
      "v": 81
    },
    {
      "midi": 59,
      "hit": false,
      "t": 58682.19281250001,
      "d": 969.5906354166655,
      "v": 96
    },
    {
      "midi": 43,
      "hit": false,
      "t": 58702.46299999996,
      "d": 643.5784531250029,
      "v": 93
    },
    {
      "midi": 43,
      "hit": false,
      "t": 59351.10899999996,
      "d": 322.63381770833075,
      "v": 81
    },
    {
      "midi": 52,
      "hit": false,
      "t": 59655.16181250001,
      "d": 969.5906354166655,
      "v": 77
    },
    {
      "midi": 55,
      "hit": false,
      "t": 59655.16181250001,
      "d": 969.5906354166655,
      "v": 71
    },
    {
      "midi": 60,
      "hit": false,
      "t": 59655.16181250001,
      "d": 969.5906354166655,
      "v": 84
    },
    {
      "midi": 36,
      "hit": false,
      "t": 59675.43199999996,
      "d": 966.2122708333336,
      "v": 53
    },
    {
      "midi": 48,
      "hit": false,
      "t": 59675.43199999996,
      "d": 966.2122708333336,
      "v": 90
    },
    {
      "midi": 52,
      "hit": false,
      "t": 60628.13081250001,
      "d": 969.5906354166655,
      "v": 80
    },
    {
      "midi": 55,
      "hit": false,
      "t": 60628.13081250001,
      "d": 969.5906354166655,
      "v": 63
    },
    {
      "midi": 60,
      "hit": false,
      "t": 60628.13081250001,
      "d": 969.5906354166655,
      "v": 82
    },
    {
      "midi": 36,
      "hit": false,
      "t": 60648.400999999954,
      "d": 964.5230885416677,
      "v": 92
    },
    {
      "midi": 48,
      "hit": false,
      "t": 60648.400999999954,
      "d": 964.5230885416677,
      "v": 84
    },
    {
      "midi": 48,
      "hit": false,
      "t": 61601.099812500004,
      "d": 641.8892708333296,
      "v": 99
    },
    {
      "midi": 55,
      "hit": false,
      "t": 61621.36999999996,
      "d": 964.5230885416677,
      "v": 73
    },
    {
      "midi": 60,
      "hit": false,
      "t": 61621.36999999996,
      "d": 964.5230885416677,
      "v": 79
    },
    {
      "midi": 64,
      "hit": false,
      "t": 61621.36999999996,
      "d": 964.5230885416677,
      "v": 84
    },
    {
      "midi": 47,
      "hit": false,
      "t": 62249.7458125,
      "d": 320.9446354166648,
      "v": 98
    },
    {
      "midi": 45,
      "hit": false,
      "t": 62574.068812499994,
      "d": 641.8892708333369,
      "v": 96
    },
    {
      "midi": 57,
      "hit": false,
      "t": 62594.33899999996,
      "d": 964.5230885416677,
      "v": 75
    },
    {
      "midi": 60,
      "hit": false,
      "t": 62594.33899999996,
      "d": 964.5230885416677,
      "v": 76
    },
    {
      "midi": 64,
      "hit": false,
      "t": 62594.33899999996,
      "d": 964.5230885416677,
      "v": 79
    },
    {
      "midi": 43,
      "hit": false,
      "t": 63222.714812499995,
      "d": 320.9446354166648,
      "v": 88
    },
    {
      "midi": 41,
      "hit": false,
      "t": 63547.03781249999,
      "d": 641.8892708333369,
      "v": 98
    },
    {
      "midi": 57,
      "hit": false,
      "t": 63567.30799999997,
      "d": 641.8892708333369,
      "v": 68
    },
    {
      "midi": 60,
      "hit": false,
      "t": 63567.30799999997,
      "d": 641.8892708333369,
      "v": 77
    },
    {
      "midi": 65,
      "hit": false,
      "t": 63567.30799999997,
      "d": 641.8892708333369,
      "v": 75
    },
    {
      "midi": 43,
      "hit": false,
      "t": 64195.68381249999,
      "d": 320.9446354166648,
      "v": 88
    },
    {
      "midi": 59,
      "hit": false,
      "t": 64215.95399999997,
      "d": 322.63381770833075,
      "v": 80
    },
    {
      "midi": 62,
      "hit": false,
      "t": 64215.95399999997,
      "d": 322.63381770833075,
      "v": 77
    },
    {
      "midi": 67,
      "hit": false,
      "t": 64215.95399999997,
      "d": 322.63381770833075,
      "v": 83
    },
    {
      "midi": 48,
      "hit": false,
      "t": 64520.00681249999,
      "d": 643.5784531250029,
      "v": 96
    },
    {
      "midi": 60,
      "hit": false,
      "t": 64540.276999999965,
      "d": 964.5230885416677,
      "v": 83
    },
    {
      "midi": 67,
      "hit": false,
      "t": 64540.276999999965,
      "d": 964.5230885416677,
      "v": 87
    },
    {
      "midi": 48,
      "hit": false,
      "t": 65168.65281249999,
      "d": 320.9446354166648,
      "v": 98
    },
    {
      "midi": 50,
      "hit": false,
      "t": 65492.975812499986,
      "d": 641.8892708333369,
      "v": 99
    },
    {
      "midi": 62,
      "hit": false,
      "t": 65513.24599999997,
      "d": 479.72777083332767,
      "v": 96
    },
    {
      "midi": 64,
      "hit": false,
      "t": 65999.73049999996,
      "d": 160.47231770833605,
      "v": 74
    },
    {
      "midi": 48,
      "hit": false,
      "t": 66141.62181249999,
      "d": 320.9446354166721,
      "v": 91
    },
    {
      "midi": 62,
      "hit": false,
      "t": 66161.89199999996,
      "d": 322.63381770833803,
      "v": 68
    },
    {
      "midi": 65,
      "hit": false,
      "t": 66161.89199999996,
      "d": 322.63381770833803,
      "v": 68
    },
    {
      "midi": 69,
      "hit": false,
      "t": 66161.89199999996,
      "d": 322.63381770833803,
      "v": 73
    },
    {
      "midi": 47,
      "hit": false,
      "t": 66465.94481249999,
      "d": 641.8892708333296,
      "v": 98
    },
    {
      "midi": 62,
      "hit": false,
      "t": 66486.21499999997,
      "d": 643.5784531249956,
      "v": 90
    },
    {
      "midi": 67,
      "hit": false,
      "t": 66486.21499999997,
      "d": 643.5784531249956,
      "v": 89
    },
    {
      "midi": 47,
      "hit": false,
      "t": 67114.59081249998,
      "d": 300.6744479166664,
      "v": 101
    },
    {
      "midi": 62,
      "hit": false,
      "t": 67134.86099999996,
      "d": 322.63381770833803,
      "v": 83
    },
    {
      "midi": 67,
      "hit": false,
      "t": 67134.86099999996,
      "d": 322.63381770833803,
      "v": 84
    },
    {
      "midi": 48,
      "hit": false,
      "t": 67438.91381249999,
      "d": 645.2676354166615,
      "v": 101
    },
    {
      "midi": 97,
      "hit": false,
      "t": 67438.91381249999,
      "d": 972.9689999999973,
      "v": 47
    },
    {
      "midi": 60,
      "hit": false,
      "t": 67459.18399999996,
      "d": 643.5784531249956,
      "v": 83
    },
    {
      "midi": 67,
      "hit": false,
      "t": 67459.18399999996,
      "d": 643.5784531249956,
      "v": 92
    },
    {
      "midi": 40,
      "hit": false,
      "t": 68087.55981249998,
      "d": 160.47231770833605,
      "v": 102
    },
    {
      "midi": 67,
      "hit": false,
      "t": 68107.82999999996,
      "d": 322.63381770833803,
      "v": 94
    },
    {
      "midi": 72,
      "hit": false,
      "t": 68107.82999999996,
      "d": 322.63381770833803,
      "v": 92
    },
    {
      "midi": 41,
      "hit": false,
      "t": 68249.72131249998,
      "d": 160.47231770833605,
      "v": 89
    },
    {
      "midi": 43,
      "hit": false,
      "t": 68411.88281249999,
      "d": 320.9446354166721,
      "v": 100
    },
    {
      "midi": 67,
      "hit": false,
      "t": 68432.15299999996,
      "d": 643.5784531249956,
      "v": 84
    },
    {
      "midi": 71,
      "hit": false,
      "t": 68432.15299999996,
      "d": 643.5784531249956,
      "v": 91
    },
    {
      "midi": 43,
      "hit": false,
      "t": 68736.20581249999,
      "d": 160.47231770833605,
      "v": 97
    },
    {
      "midi": 45,
      "hit": false,
      "t": 68898.36731249999,
      "d": 160.47231770833605,
      "v": 98
    },
    {
      "midi": 47,
      "hit": false,
      "t": 69060.5288125,
      "d": 320.9446354166721,
      "v": 101
    },
    {
      "midi": 71,
      "hit": false,
      "t": 69080.79899999996,
      "d": 160.47231770833605,
      "v": 89
    },
    {
      "midi": 69,
      "hit": false,
      "t": 69242.96049999996,
      "d": 160.47231770833605,
      "v": 83
    },
    {
      "midi": 48,
      "hit": false,
      "t": 69709.1748125,
      "d": 322.63381770833803,
      "v": 93
    },
    {
      "midi": 60,
      "hit": false,
      "t": 69729.44499999996,
      "d": 322.63381770833803,
      "v": 80
    },
    {
      "midi": 64,
      "hit": false,
      "t": 69729.44499999996,
      "d": 322.63381770833803,
      "v": 85
    },
    {
      "midi": 67,
      "hit": false,
      "t": 69729.44499999996,
      "d": 322.63381770833803,
      "v": 84
    },
    {
      "midi": 48,
      "hit": false,
      "t": 70033.4978125,
      "d": 320.9446354166721,
      "v": 93
    },
    {
      "midi": 60,
      "hit": false,
      "t": 70053.76799999997,
      "d": 322.63381770833803,
      "v": 80
    },
    {
      "midi": 64,
      "hit": false,
      "t": 70053.76799999997,
      "d": 322.63381770833803,
      "v": 85
    },
    {
      "midi": 67,
      "hit": false,
      "t": 70053.76799999997,
      "d": 322.63381770833803,
      "v": 85
    },
    {
      "midi": 52,
      "hit": false,
      "t": 70357.82081250001,
      "d": 641.8892708333296,
      "v": 104
    },
    {
      "midi": 59,
      "hit": false,
      "t": 70378.09099999997,
      "d": 643.5784531249956,
      "v": 88
    },
    {
      "midi": 64,
      "hit": false,
      "t": 70378.09099999997,
      "d": 643.5784531249956,
      "v": 83
    },
    {
      "midi": 67,
      "hit": false,
      "t": 70378.09099999997,
      "d": 643.5784531249956,
      "v": 82
    },
    {
      "midi": 40,
      "hit": false,
      "t": 71006.4668125,
      "d": 320.9446354166721,
      "v": 105
    },
    {
      "midi": 59,
      "hit": false,
      "t": 71026.73699999996,
      "d": 322.63381770833803,
      "v": 81
    },
    {
      "midi": 64,
      "hit": false,
      "t": 71026.73699999996,
      "d": 322.63381770833803,
      "v": 71
    },
    {
      "midi": 67,
      "hit": false,
      "t": 71026.73699999996,
      "d": 322.63381770833803,
      "v": 80
    },
    {
      "midi": 45,
      "hit": false,
      "t": 71330.7898125,
      "d": 641.8892708333296,
      "v": 101
    },
    {
      "midi": 60,
      "hit": false,
      "t": 71351.05999999997,
      "d": 643.5784531249956,
      "v": 80
    },
    {
      "midi": 67,
      "hit": false,
      "t": 71351.05999999997,
      "d": 643.5784531249956,
      "v": 70
    },
    {
      "midi": 64,
      "hit": false,
      "t": 71351.05999999997,
      "d": 645.2676354166615,
      "v": 53
    },
    {
      "midi": 41,
      "hit": false,
      "t": 71979.4358125,
      "d": 320.9446354166721,
      "v": 95
    },
    {
      "midi": 69,
      "hit": false,
      "t": 71999.70599999996,
      "d": 160.47231770833605,
      "v": 75
    },
    {
      "midi": 71,
      "hit": false,
      "t": 72161.86749999996,
      "d": 160.47231770833605,
      "v": 76
    },
    {
      "midi": 43,
      "hit": false,
      "t": 72303.7588125,
      "d": 962.8339062500017,
      "v": 98
    },
    {
      "midi": 72,
      "hit": false,
      "t": 72324.02899999997,
      "d": 320.9446354166721,
      "v": 83
    },
    {
      "midi": 67,
      "hit": false,
      "t": 72324.02899999997,
      "d": 322.63381770833803,
      "v": 54
    },
    {
      "midi": 67,
      "hit": false,
      "t": 72648.35199999997,
      "d": 645.2676354166615,
      "v": 86
    },
    {
      "midi": 71,
      "hit": false,
      "t": 72648.35199999997,
      "d": 645.2676354166615,
      "v": 80
    },
    {
      "midi": 45,
      "hit": false,
      "t": 73276.7278125,
      "d": 962.8339062500017,
      "v": 98
    },
    {
      "midi": 69,
      "hit": false,
      "t": 73296.99799999996,
      "d": 966.2122708333336,
      "v": 84
    },
    {
      "midi": 72,
      "hit": false,
      "t": 73296.99799999996,
      "d": 966.2122708333336,
      "v": 85
    },
    {
      "midi": 41,
      "hit": false,
      "t": 74249.6968125,
      "d": 962.8339062500017,
      "v": 93
    },
    {
      "midi": 60,
      "hit": false,
      "t": 74269.96699999996,
      "d": 964.5230885416677,
      "v": 85
    },
    {
      "midi": 65,
      "hit": false,
      "t": 74269.96699999996,
      "d": 964.5230885416677,
      "v": 81
    },
    {
      "midi": 69,
      "hit": false,
      "t": 74269.96699999996,
      "d": 964.5230885416677,
      "v": 86
    },
    {
      "midi": 38,
      "hit": false,
      "t": 75222.6658125,
      "d": 320.9446354166721,
      "v": 97
    },
    {
      "midi": 62,
      "hit": false,
      "t": 75242.93599999996,
      "d": 160.47231770833605,
      "v": 96
    },
    {
      "midi": 64,
      "hit": false,
      "t": 75405.09749999996,
      "d": 160.47231770833605,
      "v": 97
    },
    {
      "midi": 40,
      "hit": false,
      "t": 75546.9888125,
      "d": 160.47231770833605,
      "v": 104
    },
    {
      "midi": 65,
      "hit": false,
      "t": 75567.25899999996,
      "d": 322.63381770833803,
      "v": 95
    },
    {
      "midi": 41,
      "hit": false,
      "t": 75709.1503125,
      "d": 160.47231770833605,
      "v": 101
    },
    {
      "midi": 43,
      "hit": false,
      "t": 75871.3118125,
      "d": 320.9446354166721,
      "v": 95
    },
    {
      "midi": 60,
      "hit": false,
      "t": 75891.58199999997,
      "d": 160.47231770833605,
      "v": 90
    },
    {
      "midi": 65,
      "hit": false,
      "t": 75891.58199999997,
      "d": 320.9446354166721,
      "v": 68
    },
    {
      "midi": 59,
      "hit": false,
      "t": 76053.74349999997,
      "d": 160.47231770833605,
      "v": 90
    },
    {
      "midi": 36,
      "hit": false,
      "t": 76195.63481250001,
      "d": 962.8339062500017,
      "v": 100
    },
    {
      "midi": 60,
      "hit": false,
      "t": 76215.90499999997,
      "d": 967.9014531249995,
      "v": 88
    },
    {
      "midi": 64,
      "hit": false,
      "t": 76215.90499999997,
      "d": 969.5906354166655,
      "v": 88
    },
    {
      "midi": 48,
      "hit": false,
      "t": 77188.87399999997,
      "d": 962.8339062500017,
      "v": 90
    },
    {
      "midi": 36,
      "hit": false,
      "t": 78161.84299999996,
      "d": 962.8339062500017,
      "v": 91
    },
    {
      "midi": 41,
      "hit": false,
      "t": 79134.81199999996,
      "d": 320.9446354166721,
      "v": 90
    },
    {
      "midi": 43,
      "hit": false,
      "t": 79459.13499999997,
      "d": 641.8892708333296,
      "v": 91
    },
    {
      "midi": 48,
      "hit": false,
      "t": 80107.78099999996,
      "d": 962.8339062500017,
      "v": 88
    },
    {
      "midi": 45,
      "hit": false,
      "t": 81080.74999999996,
      "d": 969.5906354166655,
      "v": 90
    },
    {
      "midi": 45,
      "hit": false,
      "t": 82053.71899999995,
      "d": 969.5906354166655,
      "v": 95
    },
    {
      "midi": 46,
      "hit": false,
      "t": 83026.68799999995,
      "d": 969.5906354166655,
      "v": 90
    },
    {
      "midi": 41,
      "hit": false,
      "t": 84323.97999999995,
      "d": 643.5784531249956,
      "v": 90
    },
    {
      "midi": 60,
      "hit": false,
      "t": 84952.35581250001,
      "d": 969.5906354166655,
      "v": 106
    },
    {
      "midi": 64,
      "hit": false,
      "t": 84952.35581250001,
      "d": 969.5906354166655,
      "v": 98
    },
    {
      "midi": 69,
      "hit": false,
      "t": 84952.35581250001,
      "d": 969.5906354166655,
      "v": 101
    },
    {
      "midi": 45,
      "hit": false,
      "t": 84972.62599999995,
      "d": 969.5906354166655,
      "v": 89
    },
    {
      "midi": 60,
      "hit": false,
      "t": 85925.32481250001,
      "d": 967.9014531249995,
      "v": 87
    },
    {
      "midi": 64,
      "hit": false,
      "t": 85925.32481250001,
      "d": 967.9014531249995,
      "v": 86
    },
    {
      "midi": 69,
      "hit": false,
      "t": 85925.32481250001,
      "d": 967.9014531249995,
      "v": 90
    },
    {
      "midi": 45,
      "hit": false,
      "t": 85945.59499999994,
      "d": 969.5906354166655,
      "v": 94
    },
    {
      "midi": 60,
      "hit": false,
      "t": 86898.29381250001,
      "d": 322.63381770833803,
      "v": 84
    },
    {
      "midi": 65,
      "hit": false,
      "t": 86898.29381250001,
      "d": 322.63381770833803,
      "v": 80
    },
    {
      "midi": 69,
      "hit": false,
      "t": 86898.29381250001,
      "d": 322.63381770833803,
      "v": 90
    },
    {
      "midi": 41,
      "hit": false,
      "t": 86918.56399999994,
      "d": 322.63381770833803,
      "v": 88
    },
    {
      "midi": 59,
      "hit": false,
      "t": 87222.61681250001,
      "d": 645.2676354166615,
      "v": 89
    },
    {
      "midi": 62,
      "hit": false,
      "t": 87222.61681250001,
      "d": 645.2676354166615,
      "v": 81
    },
    {
      "midi": 67,
      "hit": false,
      "t": 87222.61681250001,
      "d": 645.2676354166615,
      "v": 83
    },
    {
      "midi": 43,
      "hit": false,
      "t": 87242.88699999994,
      "d": 641.8892708333296,
      "v": 93
    },
    {
      "midi": 60,
      "hit": false,
      "t": 87871.2628125,
      "d": 969.5906354166655,
      "v": 93
    },
    {
      "midi": 64,
      "hit": false,
      "t": 87871.2628125,
      "d": 969.5906354166655,
      "v": 91
    },
    {
      "midi": 67,
      "hit": false,
      "t": 87871.2628125,
      "d": 969.5906354166655,
      "v": 92
    },
    {
      "midi": 48,
      "hit": false,
      "t": 87891.53299999994,
      "d": 962.8339062500017,
      "v": 92
    },
    {
      "midi": 60,
      "hit": false,
      "t": 88844.2318125,
      "d": 967.9014531249995,
      "v": 78
    },
    {
      "midi": 64,
      "hit": false,
      "t": 88844.2318125,
      "d": 967.9014531249995,
      "v": 84
    },
    {
      "midi": 69,
      "hit": false,
      "t": 88844.2318125,
      "d": 967.9014531249995,
      "v": 84
    },
    {
      "midi": 45,
      "hit": false,
      "t": 88864.50199999993,
      "d": 962.8339062500017,
      "v": 91
    },
    {
      "midi": 60,
      "hit": false,
      "t": 89817.2008125,
      "d": 645.2676354166615,
      "v": 81
    },
    {
      "midi": 65,
      "hit": false,
      "t": 89817.2008125,
      "d": 645.2676354166615,
      "v": 76
    },
    {
      "midi": 69,
      "hit": false,
      "t": 89817.2008125,
      "d": 645.2676354166615,
      "v": 85
    },
    {
      "midi": 41,
      "hit": false,
      "t": 89837.47099999993,
      "d": 641.8892708333296,
      "v": 89
    },
    {
      "midi": 59,
      "hit": false,
      "t": 90465.84681249999,
      "d": 322.63381770833803,
      "v": 84
    },
    {
      "midi": 62,
      "hit": false,
      "t": 90465.84681249999,
      "d": 322.63381770833803,
      "v": 82
    },
    {
      "midi": 67,
      "hit": false,
      "t": 90465.84681249999,
      "d": 322.63381770833803,
      "v": 90
    },
    {
      "midi": 43,
      "hit": false,
      "t": 90486.11699999993,
      "d": 320.9446354166721,
      "v": 93
    },
    {
      "midi": 60,
      "hit": false,
      "t": 90790.1698125,
      "d": 645.2676354166615,
      "v": 88
    },
    {
      "midi": 64,
      "hit": false,
      "t": 90790.1698125,
      "d": 645.2676354166615,
      "v": 89
    },
    {
      "midi": 67,
      "hit": false,
      "t": 90790.1698125,
      "d": 645.2676354166615,
      "v": 90
    },
    {
      "midi": 48,
      "hit": false,
      "t": 90810.43999999993,
      "d": 962.8339062500017,
      "v": 93
    },
    {
      "midi": 48,
      "hit": false,
      "t": 91763.1388125,
      "d": 967.9014531249995,
      "v": 80
    },
    {
      "midi": 55,
      "hit": false,
      "t": 91763.1388125,
      "d": 967.9014531249995,
      "v": 78
    },
    {
      "midi": 36,
      "hit": false,
      "t": 91783.40899999993,
      "d": 962.8339062500017,
      "v": 88
    },
    {
      "midi": 57,
      "hit": false,
      "t": 92736.10781249999,
      "d": 641.8892708333296,
      "v": 102
    },
    {
      "midi": 52,
      "hit": false,
      "t": 92756.37799999992,
      "d": 962.8339062500017,
      "v": 92
    },
    {
      "midi": 57,
      "hit": false,
      "t": 92756.37799999992,
      "d": 962.8339062500017,
      "v": 85
    },
    {
      "midi": 60,
      "hit": false,
      "t": 92756.37799999992,
      "d": 962.8339062500017,
      "v": 95
    },
    {
      "midi": 52,
      "hit": false,
      "t": 93384.75381249998,
      "d": 320.9446354166721,
      "v": 90
    },
    {
      "midi": 53,
      "hit": false,
      "t": 93709.07681249999,
      "d": 643.5784531249956,
      "v": 106
    },
    {
      "midi": 53,
      "hit": false,
      "t": 93729.34699999992,
      "d": 962.8339062500017,
      "v": 92
    },
    {
      "midi": 57,
      "hit": false,
      "t": 93729.34699999992,
      "d": 962.8339062500017,
      "v": 75
    },
    {
      "midi": 60,
      "hit": false,
      "t": 93729.34699999992,
      "d": 962.8339062500017,
      "v": 89
    },
    {
      "midi": 53,
      "hit": false,
      "t": 94357.72281249998,
      "d": 320.9446354166721,
      "v": 91
    },
    {
      "midi": 55,
      "hit": false,
      "t": 94682.04581249999,
      "d": 641.8892708333296,
      "v": 93
    },
    {
      "midi": 55,
      "hit": false,
      "t": 94702.31599999992,
      "d": 962.8339062500017,
      "v": 86
    },
    {
      "midi": 59,
      "hit": false,
      "t": 94702.31599999992,
      "d": 962.8339062500017,
      "v": 92
    },
    {
      "midi": 62,
      "hit": false,
      "t": 94702.31599999992,
      "d": 962.8339062500017,
      "v": 94
    },
    {
      "midi": 55,
      "hit": false,
      "t": 95330.69181249998,
      "d": 320.9446354166721,
      "v": 90
    },
    {
      "midi": 57,
      "hit": false,
      "t": 95655.01481249998,
      "d": 643.5784531249956,
      "v": 87
    },
    {
      "midi": 57,
      "hit": false,
      "t": 95675.28499999992,
      "d": 962.8339062500017,
      "v": 88
    },
    {
      "midi": 60,
      "hit": false,
      "t": 95675.28499999992,
      "d": 962.8339062500017,
      "v": 83
    },
    {
      "midi": 64,
      "hit": false,
      "t": 95675.28499999992,
      "d": 962.8339062500017,
      "v": 96
    },
    {
      "midi": 57,
      "hit": false,
      "t": 96303.66081249998,
      "d": 160.47231770833605,
      "v": 90
    },
    {
      "midi": 55,
      "hit": false,
      "t": 96465.82231249998,
      "d": 160.47231770833605,
      "v": 84
    },
    {
      "midi": 53,
      "hit": false,
      "t": 96627.98381249998,
      "d": 641.8892708333296,
      "v": 102
    },
    {
      "midi": 53,
      "hit": false,
      "t": 96648.25399999991,
      "d": 962.8339062500017,
      "v": 86
    },
    {
      "midi": 57,
      "hit": false,
      "t": 96648.25399999991,
      "d": 962.8339062500017,
      "v": 77
    },
    {
      "midi": 60,
      "hit": false,
      "t": 96648.25399999991,
      "d": 962.8339062500017,
      "v": 92
    },
    {
      "midi": 53,
      "hit": false,
      "t": 97276.62981249997,
      "d": 320.9446354166721,
      "v": 97
    },
    {
      "midi": 55,
      "hit": false,
      "t": 97600.95281249998,
      "d": 641.8892708333296,
      "v": 94
    },
    {
      "midi": 55,
      "hit": false,
      "t": 97621.22299999991,
      "d": 962.8339062500017,
      "v": 84
    },
    {
      "midi": 59,
      "hit": false,
      "t": 97621.22299999991,
      "d": 962.8339062500017,
      "v": 84
    },
    {
      "midi": 62,
      "hit": false,
      "t": 97621.22299999991,
      "d": 962.8339062500017,
      "v": 90
    },
    {
      "midi": 55,
      "hit": false,
      "t": 98249.59881249997,
      "d": 320.9446354166721,
      "v": 90
    },
    {
      "midi": 57,
      "hit": false,
      "t": 98573.92181249998,
      "d": 481.4169531249936,
      "v": 95
    },
    {
      "midi": 57,
      "hit": false,
      "t": 98594.19199999991,
      "d": 962.8339062500017,
      "v": 81
    },
    {
      "midi": 60,
      "hit": false,
      "t": 98594.19199999991,
      "d": 962.8339062500017,
      "v": 78
    },
    {
      "midi": 64,
      "hit": false,
      "t": 98594.19199999991,
      "d": 962.8339062500017,
      "v": 95
    },
    {
      "midi": 59,
      "hit": false,
      "t": 99060.40631249997,
      "d": 160.47231770833605,
      "v": 93
    },
    {
      "midi": 60,
      "hit": false,
      "t": 99222.56781249997,
      "d": 320.9446354166721,
      "v": 96
    },
    {
      "midi": 62,
      "hit": false,
      "t": 99546.89081249997,
      "d": 962.8339062500017,
      "v": 103
    },
    {
      "midi": 57,
      "hit": false,
      "t": 99567.1609999999,
      "d": 962.8339062500017,
      "v": 79
    },
    {
      "midi": 62,
      "hit": false,
      "t": 99567.1609999999,
      "d": 962.8339062500017,
      "v": 84
    },
    {
      "midi": 65,
      "hit": false,
      "t": 99567.1609999999,
      "d": 962.8339062500017,
      "v": 88
    },
    {
      "midi": 53,
      "hit": false,
      "t": 100519.85981249997,
      "d": 643.5784531249956,
      "v": 98
    },
    {
      "midi": 57,
      "hit": false,
      "t": 100540.1299999999,
      "d": 962.8339062500017,
      "v": 82
    },
    {
      "midi": 60,
      "hit": false,
      "t": 100540.1299999999,
      "d": 962.8339062500017,
      "v": 81
    },
    {
      "midi": 65,
      "hit": false,
      "t": 100540.1299999999,
      "d": 962.8339062500017,
      "v": 91
    },
    {
      "midi": 53,
      "hit": false,
      "t": 101168.50581249996,
      "d": 320.9446354166721,
      "v": 95
    },
    {
      "midi": 53,
      "hit": false,
      "t": 101492.82881249997,
      "d": 643.5784531249956,
      "v": 103
    },
    {
      "midi": 57,
      "hit": false,
      "t": 101513.0989999999,
      "d": 962.8339062500017,
      "v": 74
    },
    {
      "midi": 60,
      "hit": false,
      "t": 101513.0989999999,
      "d": 962.8339062500017,
      "v": 84
    },
    {
      "midi": 65,
      "hit": false,
      "t": 101513.0989999999,
      "d": 962.8339062500017,
      "v": 83
    },
    {
      "midi": 53,
      "hit": false,
      "t": 102141.47481249996,
      "d": 320.9446354166721,
      "v": 101
    },
    {
      "midi": 55,
      "hit": false,
      "t": 102465.79781249996,
      "d": 641.8892708333296,
      "v": 96
    },
    {
      "midi": 55,
      "hit": false,
      "t": 102486.0679999999,
      "d": 962.8339062500017,
      "v": 82
    },
    {
      "midi": 59,
      "hit": false,
      "t": 102486.0679999999,
      "d": 962.8339062500017,
      "v": 84
    },
    {
      "midi": 62,
      "hit": false,
      "t": 102486.0679999999,
      "d": 962.8339062500017,
      "v": 94
    },
    {
      "midi": 55,
      "hit": false,
      "t": 103114.44381249996,
      "d": 320.9446354166721,
      "v": 91
    },
    {
      "midi": 57,
      "hit": false,
      "t": 103438.76681249996,
      "d": 641.8892708333296,
      "v": 90
    },
    {
      "midi": 57,
      "hit": false,
      "t": 103459.0369999999,
      "d": 962.8339062500017,
      "v": 69
    },
    {
      "midi": 60,
      "hit": false,
      "t": 103459.0369999999,
      "d": 962.8339062500017,
      "v": 85
    },
    {
      "midi": 64,
      "hit": false,
      "t": 103459.0369999999,
      "d": 962.8339062500017,
      "v": 88
    },
    {
      "midi": 57,
      "hit": false,
      "t": 104087.41281249996,
      "d": 160.47231770833605,
      "v": 91
    },
    {
      "midi": 55,
      "hit": false,
      "t": 104249.57431249996,
      "d": 160.47231770833605,
      "v": 82
    },
    {
      "midi": 53,
      "hit": false,
      "t": 104411.73581249996,
      "d": 643.5784531249956,
      "v": 97
    },
    {
      "midi": 53,
      "hit": false,
      "t": 104432.00599999989,
      "d": 962.8339062500017,
      "v": 85
    },
    {
      "midi": 57,
      "hit": false,
      "t": 104432.00599999989,
      "d": 962.8339062500017,
      "v": 69
    },
    {
      "midi": 60,
      "hit": false,
      "t": 104432.00599999989,
      "d": 962.8339062500017,
      "v": 85
    },
    {
      "midi": 53,
      "hit": false,
      "t": 105060.38181249995,
      "d": 322.63381770833803,
      "v": 84
    },
    {
      "midi": 53,
      "hit": false,
      "t": 105384.70481249996,
      "d": 641.8892708333296,
      "v": 92
    },
    {
      "midi": 53,
      "hit": false,
      "t": 105404.97499999989,
      "d": 962.8339062500017,
      "v": 86
    },
    {
      "midi": 57,
      "hit": false,
      "t": 105404.97499999989,
      "d": 962.8339062500017,
      "v": 71
    },
    {
      "midi": 60,
      "hit": false,
      "t": 105404.97499999989,
      "d": 962.8339062500017,
      "v": 91
    },
    {
      "midi": 53,
      "hit": false,
      "t": 106033.35081249995,
      "d": 320.9446354166721,
      "v": 97
    },
    {
      "midi": 50,
      "hit": false,
      "t": 106357.67381249995,
      "d": 962.8339062500017,
      "v": 94
    },
    {
      "midi": 53,
      "hit": false,
      "t": 106377.94399999989,
      "d": 160.47231770833605,
      "v": 87
    },
    {
      "midi": 57,
      "hit": false,
      "t": 106377.94399999989,
      "d": 160.47231770833605,
      "v": 68
    },
    {
      "midi": 60,
      "hit": false,
      "t": 106377.94399999989,
      "d": 160.47231770833605,
      "v": 95
    },
    {
      "midi": 53,
      "hit": false,
      "t": 106702.26699999989,
      "d": 641.8892708333296,
      "v": 94
    },
    {
      "midi": 57,
      "hit": false,
      "t": 106702.26699999989,
      "d": 641.8892708333296,
      "v": 79
    },
    {
      "midi": 62,
      "hit": false,
      "t": 106702.26699999989,
      "d": 1444.2508593749953,
      "v": 98
    },
    {
      "midi": 43,
      "hit": false,
      "t": 107330.64281249995,
      "d": 962.8339062500017,
      "v": 96
    },
    {
      "midi": 55,
      "hit": false,
      "t": 107350.91299999988,
      "d": 962.8339062500017,
      "v": 85
    },
    {
      "midi": 59,
      "hit": false,
      "t": 107350.91299999988,
      "d": 962.8339062500017,
      "v": 83
    },
    {
      "midi": 43,
      "hit": false,
      "t": 108303.61181249995,
      "d": 962.8339062500017,
      "v": 81
    },
    {
      "midi": 55,
      "hit": false,
      "t": 108323.88199999988,
      "d": 962.8339062500017,
      "v": 78
    },
    {
      "midi": 59,
      "hit": false,
      "t": 108323.88199999988,
      "d": 962.8339062500017,
      "v": 86
    },
    {
      "midi": 62,
      "hit": false,
      "t": 108323.88199999988,
      "d": 962.8339062500017,
      "v": 88
    },
    {
      "midi": 43,
      "hit": false,
      "t": 109276.58081249995,
      "d": 962.8339062500017,
      "v": 96
    },
    {
      "midi": 55,
      "hit": false,
      "t": 109296.85099999988,
      "d": 962.8339062500017,
      "v": 85
    },
    {
      "midi": 59,
      "hit": false,
      "t": 109296.85099999988,
      "d": 962.8339062500017,
      "v": 79
    },
    {
      "midi": 62,
      "hit": false,
      "t": 109296.85099999988,
      "d": 962.8339062500017,
      "v": 91
    },
    {
      "midi": 43,
      "hit": false,
      "t": 110249.54981249994,
      "d": 481.4169531249936,
      "v": 92
    },
    {
      "midi": 55,
      "hit": false,
      "t": 110269.81999999988,
      "d": 481.4169531249936,
      "v": 76
    },
    {
      "midi": 59,
      "hit": false,
      "t": 110269.81999999988,
      "d": 481.4169531249936,
      "v": 87
    },
    {
      "midi": 62,
      "hit": false,
      "t": 110269.81999999988,
      "d": 481.4169531249936,
      "v": 93
    },
    {
      "midi": 43,
      "hit": false,
      "t": 110736.03431249993,
      "d": 160.47231770833605,
      "v": 95
    },
    {
      "midi": 55,
      "hit": false,
      "t": 110756.30449999987,
      "d": 160.47231770833605,
      "v": 77
    },
    {
      "midi": 59,
      "hit": false,
      "t": 110756.30449999987,
      "d": 160.47231770833605,
      "v": 74
    },
    {
      "midi": 62,
      "hit": false,
      "t": 110756.30449999987,
      "d": 160.47231770833605,
      "v": 84
    },
    {
      "midi": 43,
      "hit": false,
      "t": 110898.19581249994,
      "d": 322.63381770833803,
      "v": 92
    },
    {
      "midi": 55,
      "hit": false,
      "t": 110918.46599999987,
      "d": 322.63381770833803,
      "v": 85
    },
    {
      "midi": 59,
      "hit": false,
      "t": 110918.46599999987,
      "d": 322.63381770833803,
      "v": 91
    },
    {
      "midi": 62,
      "hit": false,
      "t": 110918.46599999987,
      "d": 322.63381770833803,
      "v": 98
    },
    {
      "midi": 36,
      "hit": false,
      "t": 111222.51881249994,
      "d": 643.5784531249956,
      "v": 101
    },
    {
      "midi": 48,
      "hit": false,
      "t": 111222.51881249994,
      "d": 643.5784531249956,
      "v": 99
    },
    {
      "midi": 60,
      "hit": false,
      "t": 111242.78899999987,
      "d": 641.8892708333296,
      "v": 106
    },
    {
      "midi": 48,
      "hit": false,
      "t": 111871.16481249993,
      "d": 320.9446354166721,
      "v": 96
    },
    {
      "midi": 36,
      "hit": false,
      "t": 111871.16481249993,
      "d": 322.63381770833803,
      "v": 101
    },
    {
      "midi": 60,
      "hit": false,
      "t": 111891.43499999987,
      "d": 322.63381770833803,
      "v": 103
    },
    {
      "midi": 36,
      "hit": false,
      "t": 112195.48781249994,
      "d": 643.5784531249956,
      "v": 101
    },
    {
      "midi": 48,
      "hit": false,
      "t": 112195.48781249994,
      "d": 643.5784531249956,
      "v": 97
    },
    {
      "midi": 60,
      "hit": false,
      "t": 112215.75799999987,
      "d": 320.9446354166721,
      "v": 98
    },
    {
      "midi": 62,
      "hit": false,
      "t": 112540.08099999987,
      "d": 320.9446354166721,
      "v": 101
    },
    {
      "midi": 36,
      "hit": false,
      "t": 112844.13381249993,
      "d": 322.63381770833803,
      "v": 98
    },
    {
      "midi": 48,
      "hit": false,
      "t": 112844.13381249993,
      "d": 322.63381770833803,
      "v": 96
    },
    {
      "midi": 64,
      "hit": false,
      "t": 112864.40399999988,
      "d": 320.9446354166721,
      "v": 98
    },
    {
      "midi": 48,
      "hit": false,
      "t": 113168.45681249994,
      "d": 641.8892708333296,
      "v": 86
    },
    {
      "midi": 36,
      "hit": false,
      "t": 113168.45681249994,
      "d": 643.5784531249956,
      "v": 102
    },
    {
      "midi": 65,
      "hit": false,
      "t": 113188.72699999988,
      "d": 320.9446354166721,
      "v": 97
    },
    {
      "midi": 64,
      "hit": false,
      "t": 113513.04999999989,
      "d": 320.9446354166721,
      "v": 101
    },
    {
      "midi": 36,
      "hit": false,
      "t": 113817.10281249993,
      "d": 322.63381770833803,
      "v": 97
    },
    {
      "midi": 48,
      "hit": false,
      "t": 113817.10281249993,
      "d": 322.63381770833803,
      "v": 90
    },
    {
      "midi": 62,
      "hit": false,
      "t": 113837.37299999989,
      "d": 320.9446354166721,
      "v": 95
    },
    {
      "midi": 36,
      "hit": false,
      "t": 114141.42581249993,
      "d": 641.8892708333296,
      "v": 99
    },
    {
      "midi": 48,
      "hit": false,
      "t": 114141.42581249993,
      "d": 641.8892708333296,
      "v": 88
    },
    {
      "midi": 64,
      "hit": false,
      "t": 114161.6959999999,
      "d": 320.9446354166721,
      "v": 100
    },
    {
      "midi": 67,
      "hit": false,
      "t": 114486.0189999999,
      "d": 322.63381770833803,
      "v": 100
    },
    {
      "midi": 36,
      "hit": false,
      "t": 114790.07181249993,
      "d": 322.63381770833803,
      "v": 96
    },
    {
      "midi": 48,
      "hit": false,
      "t": 114790.07181249993,
      "d": 322.63381770833803,
      "v": 86
    },
    {
      "midi": 67,
      "hit": false,
      "t": 114810.3419999999,
      "d": 320.9446354166721,
      "v": 98
    },
    {
      "midi": 36,
      "hit": false,
      "t": 115114.39481249993,
      "d": 643.5784531249956,
      "v": 101
    },
    {
      "midi": 48,
      "hit": false,
      "t": 115114.39481249993,
      "d": 643.5784531249956,
      "v": 90
    },
    {
      "midi": 65,
      "hit": false,
      "t": 115134.6649999999,
      "d": 320.9446354166721,
      "v": 96
    },
    {
      "midi": 62,
      "hit": false,
      "t": 115458.98799999991,
      "d": 322.63381770833803,
      "v": 98
    },
    {
      "midi": 36,
      "hit": false,
      "t": 115763.04081249992,
      "d": 322.63381770833803,
      "v": 96
    },
    {
      "midi": 48,
      "hit": false,
      "t": 115763.04081249992,
      "d": 322.63381770833803,
      "v": 94
    },
    {
      "midi": 62,
      "hit": false,
      "t": 115783.31099999991,
      "d": 322.63381770833803,
      "v": 102
    },
    {
      "midi": 36,
      "hit": false,
      "t": 116087.36381249993,
      "d": 641.8892708333296,
      "v": 101
    },
    {
      "midi": 48,
      "hit": false,
      "t": 116087.36381249993,
      "d": 641.8892708333296,
      "v": 94
    },
    {
      "midi": 62,
      "hit": false,
      "t": 116107.63399999992,
      "d": 320.9446354166721,
      "v": 97
    },
    {
      "midi": 64,
      "hit": false,
      "t": 116431.95699999992,
      "d": 320.9446354166721,
      "v": 101
    },
    {
      "midi": 36,
      "hit": false,
      "t": 116736.00981249992,
      "d": 322.63381770833803,
      "v": 100
    },
    {
      "midi": 48,
      "hit": false,
      "t": 116736.00981249992,
      "d": 322.63381770833803,
      "v": 95
    },
    {
      "midi": 65,
      "hit": false,
      "t": 116756.27999999993,
      "d": 160.47231770833605,
      "v": 97
    },
    {
      "midi": 65,
      "hit": false,
      "t": 116918.44149999993,
      "d": 160.47231770833605,
      "v": 98
    },
    {
      "midi": 43,
      "hit": false,
      "t": 117060.33281249992,
      "d": 964.5230885416677,
      "v": 98
    },
    {
      "midi": 55,
      "hit": false,
      "t": 117060.33281249992,
      "d": 964.5230885416677,
      "v": 97
    },
    {
      "midi": 64,
      "hit": false,
      "t": 117080.60299999993,
      "d": 160.47231770833605,
      "v": 98
    },
    {
      "midi": 62,
      "hit": false,
      "t": 117242.76449999993,
      "d": 160.47231770833605,
      "v": 92
    },
    {
      "midi": 60,
      "hit": false,
      "t": 117404.92599999993,
      "d": 160.47231770833605,
      "v": 98
    },
    {
      "midi": 62,
      "hit": false,
      "t": 117567.08749999994,
      "d": 160.47231770833605,
      "v": 103
    },
    {
      "midi": 64,
      "hit": false,
      "t": 117729.24899999994,
      "d": 160.47231770833605,
      "v": 97
    },
    {
      "midi": 66,
      "hit": false,
      "t": 117891.41049999994,
      "d": 160.47231770833605,
      "v": 95
    },
    {
      "midi": 74,
      "hit": false,
      "t": 118033.30181249992,
      "d": 160.47231770833605,
      "v": 99
    },
    {
      "midi": 67,
      "hit": false,
      "t": 118053.57199999994,
      "d": 966.2122708333336,
      "v": 101
    },
    {
      "midi": 72,
      "hit": false,
      "t": 118195.46331249992,
      "d": 160.47231770833605,
      "v": 89
    },
    {
      "midi": 71,
      "hit": false,
      "t": 118357.62481249993,
      "d": 160.47231770833605,
      "v": 92
    },
    {
      "midi": 72,
      "hit": false,
      "t": 118519.78631249993,
      "d": 160.47231770833605,
      "v": 94
    },
    {
      "midi": 71,
      "hit": false,
      "t": 118681.94781249993,
      "d": 160.47231770833605,
      "v": 89
    },
    {
      "midi": 72,
      "hit": false,
      "t": 118844.10931249993,
      "d": 160.47231770833605,
      "v": 88
    },
    {
      "midi": 74,
      "hit": false,
      "t": 119006.27081249993,
      "d": 160.47231770833605,
      "v": 96
    },
    {
      "midi": 43,
      "hit": false,
      "t": 119026.54099999994,
      "d": 638.5109062499978,
      "v": 97
    },
    {
      "midi": 55,
      "hit": false,
      "t": 119026.54099999994,
      "d": 641.8892708333296,
      "v": 95
    },
    {
      "midi": 72,
      "hit": false,
      "t": 119168.43231249994,
      "d": 160.47231770833605,
      "v": 91
    },
    {
      "midi": 71,
      "hit": false,
      "t": 119330.59381249994,
      "d": 160.47231770833605,
      "v": 91
    },
    {
      "midi": 72,
      "hit": false,
      "t": 119492.75531249994,
      "d": 160.47231770833605,
      "v": 77
    },
    {
      "midi": 74,
      "hit": false,
      "t": 119654.91681249994,
      "d": 322.63381770833803,
      "v": 101
    },
    {
      "midi": 55,
      "hit": false,
      "t": 119675.18699999993,
      "d": 320.9446354166721,
      "v": 85
    },
    {
      "midi": 76,
      "hit": false,
      "t": 119979.23981249995,
      "d": 641.8892708333296,
      "v": 107
    },
    {
      "midi": 43,
      "hit": false,
      "t": 119999.50999999994,
      "d": 640.2000885416637,
      "v": 82
    },
    {
      "midi": 55,
      "hit": false,
      "t": 119999.50999999994,
      "d": 643.5784531249956,
      "v": 82
    },
    {
      "midi": 76,
      "hit": false,
      "t": 120627.88581249994,
      "d": 322.63381770833803,
      "v": 108
    },
    {
      "midi": 55,
      "hit": false,
      "t": 120648.15599999993,
      "d": 322.63381770833803,
      "v": 94
    },
    {
      "midi": 76,
      "hit": false,
      "t": 120952.20881249994,
      "d": 643.5784531249956,
      "v": 108
    },
    {
      "midi": 43,
      "hit": false,
      "t": 120972.47899999993,
      "d": 638.5109062499978,
      "v": 97
    },
    {
      "midi": 55,
      "hit": false,
      "t": 120972.47899999993,
      "d": 643.5784531249956,
      "v": 90
    },
    {
      "midi": 76,
      "hit": false,
      "t": 121600.85481249994,
      "d": 320.9446354166721,
      "v": 103
    },
    {
      "midi": 55,
      "hit": false,
      "t": 121621.12499999993,
      "d": 322.63381770833803,
      "v": 92
    },
    {
      "midi": 69,
      "hit": false,
      "t": 121925.17781249994,
      "d": 160.47231770833605,
      "v": 90
    },
    {
      "midi": 43,
      "hit": false,
      "t": 121945.44799999993,
      "d": 640.2000885416637,
      "v": 91
    },
    {
      "midi": 55,
      "hit": false,
      "t": 121945.44799999993,
      "d": 643.5784531249956,
      "v": 91
    },
    {
      "midi": 72,
      "hit": false,
      "t": 122087.33931249994,
      "d": 160.47231770833605,
      "v": 99
    },
    {
      "midi": 78,
      "hit": false,
      "t": 122249.50081249994,
      "d": 641.8892708333296,
      "v": 108
    },
    {
      "midi": 55,
      "hit": false,
      "t": 122594.09399999992,
      "d": 322.63381770833803,
      "v": 94
    },
    {
      "midi": 69,
      "hit": false,
      "t": 122898.14681249994,
      "d": 160.47231770833605,
      "v": 95
    },
    {
      "midi": 43,
      "hit": false,
      "t": 122918.41699999993,
      "d": 640.2000885416637,
      "v": 97
    },
    {
      "midi": 55,
      "hit": false,
      "t": 122918.41699999993,
      "d": 643.5784531249956,
      "v": 101
    },
    {
      "midi": 72,
      "hit": false,
      "t": 123060.30831249994,
      "d": 160.47231770833605,
      "v": 95
    },
    {
      "midi": 78,
      "hit": false,
      "t": 123222.46981249994,
      "d": 320.9446354166721,
      "v": 108
    },
    {
      "midi": 78,
      "hit": false,
      "t": 123546.79281249995,
      "d": 322.63381770833803,
      "v": 94
    },
    {
      "midi": 55,
      "hit": false,
      "t": 123567.06299999992,
      "d": 322.63381770833803,
      "v": 103
    },
    {
      "midi": 43,
      "hit": false,
      "t": 123891.38599999993,
      "d": 640.2000885416637,
      "v": 91
    },
    {
      "midi": 55,
      "hit": false,
      "t": 123891.38599999993,
      "d": 643.5784531249956,
      "v": 92
    },
    {
      "midi": 55,
      "hit": false,
      "t": 124540.03199999992,
      "d": 322.63381770833803,
      "v": 101
    },
    {
      "midi": 43,
      "hit": false,
      "t": 124864.35499999992,
      "d": 643.5784531249956,
      "v": 95
    },
    {
      "midi": 55,
      "hit": false,
      "t": 124864.35499999992,
      "d": 643.5784531249956,
      "v": 101
    },
    {
      "midi": 65,
      "hit": false,
      "t": 125513.00099999992,
      "d": 160.47231770833605,
      "v": 103
    },
    {
      "midi": 65,
      "hit": false,
      "t": 125675.16249999992,
      "d": 160.47231770833605,
      "v": 99
    },
    {
      "midi": 40,
      "hit": false,
      "t": 125817.05381249994,
      "d": 643.5784531249956,
      "v": 100
    },
    {
      "midi": 52,
      "hit": false,
      "t": 125817.05381249994,
      "d": 643.5784531249956,
      "v": 97
    },
    {
      "midi": 64,
      "hit": false,
      "t": 125837.32399999992,
      "d": 160.47231770833605,
      "v": 104
    },
    {
      "midi": 62,
      "hit": false,
      "t": 125999.48549999992,
      "d": 160.47231770833605,
      "v": 95
    },
    {
      "midi": 62,
      "hit": false,
      "t": 126161.64699999992,
      "d": 160.47231770833605,
      "v": 101
    },
    {
      "midi": 64,
      "hit": false,
      "t": 126323.80849999993,
      "d": 160.47231770833605,
      "v": 99
    },
    {
      "midi": 36,
      "hit": false,
      "t": 126465.69981249994,
      "d": 322.63381770833803,
      "v": 85
    },
    {
      "midi": 48,
      "hit": false,
      "t": 126465.69981249994,
      "d": 322.63381770833803,
      "v": 88
    },
    {
      "midi": 64,
      "hit": false,
      "t": 126485.96999999993,
      "d": 160.47231770833605,
      "v": 103
    },
    {
      "midi": 65,
      "hit": false,
      "t": 126648.13149999993,
      "d": 160.47231770833605,
      "v": 96
    },
    {
      "midi": 43,
      "hit": false,
      "t": 126790.02281249994,
      "d": 643.5784531249956,
      "v": 89
    },
    {
      "midi": 55,
      "hit": false,
      "t": 126790.02281249994,
      "d": 643.5784531249956,
      "v": 88
    },
    {
      "midi": 67,
      "hit": false,
      "t": 126810.29299999993,
      "d": 641.8892708333296,
      "v": 106
    },
    {
      "midi": 43,
      "hit": false,
      "t": 127438.66881249993,
      "d": 322.63381770833803,
      "v": 89
    },
    {
      "midi": 55,
      "hit": false,
      "t": 127438.66881249993,
      "d": 322.63381770833803,
      "v": 91
    },
    {
      "midi": 65,
      "hit": false,
      "t": 127458.93899999993,
      "d": 160.47231770833605,
      "v": 98
    },
    {
      "midi": 65,
      "hit": false,
      "t": 127621.10049999993,
      "d": 160.47231770833605,
      "v": 91
    },
    {
      "midi": 48,
      "hit": false,
      "t": 127762.99181249994,
      "d": 643.5784531249956,
      "v": 95
    },
    {
      "midi": 60,
      "hit": false,
      "t": 127762.99181249994,
      "d": 645.2676354166615,
      "v": 98
    },
    {
      "midi": 64,
      "hit": false,
      "t": 127783.26199999993,
      "d": 320.9446354166721,
      "v": 96
    },
    {
      "midi": 60,
      "hit": false,
      "t": 128107.58499999993,
      "d": 320.9446354166721,
      "v": 90
    },
    {
      "midi": 40,
      "hit": false,
      "t": 128411.63781249993,
      "d": 160.47231770833605,
      "v": 94
    },
    {
      "midi": 52,
      "hit": false,
      "t": 128411.63781249993,
      "d": 160.47231770833605,
      "v": 93
    },
    {
      "midi": 64,
      "hit": false,
      "t": 128431.90799999994,
      "d": 320.9446354166721,
      "v": 98
    },
    {
      "midi": 41,
      "hit": false,
      "t": 128573.79931249993,
      "d": 160.47231770833605,
      "v": 90
    },
    {
      "midi": 41,
      "hit": false,
      "t": 128735.96081249994,
      "d": 160.47231770833605,
      "v": 89
    },
    {
      "midi": 43,
      "hit": false,
      "t": 128735.96081249994,
      "d": 640.2000885416637,
      "v": 81
    },
    {
      "midi": 55,
      "hit": false,
      "t": 128735.96081249994,
      "d": 643.5784531249956,
      "v": 97
    },
    {
      "midi": 62,
      "hit": false,
      "t": 128756.23099999994,
      "d": 160.47231770833605,
      "v": 88
    },
    {
      "midi": 71,
      "hit": false,
      "t": 128918.39249999994,
      "d": 160.47231770833605,
      "v": 84
    },
    {
      "midi": 69,
      "hit": false,
      "t": 129080.55399999995,
      "d": 160.47231770833605,
      "v": 92
    },
    {
      "midi": 71,
      "hit": false,
      "t": 129242.71549999995,
      "d": 160.47231770833605,
      "v": 84
    },
    {
      "midi": 55,
      "hit": false,
      "t": 129384.60681249993,
      "d": 322.63381770833803,
      "v": 98
    },
    {
      "midi": 67,
      "hit": false,
      "t": 129404.87699999995,
      "d": 160.47231770833605,
      "v": 80
    },
    {
      "midi": 66,
      "hit": false,
      "t": 129567.03849999995,
      "d": 160.47231770833605,
      "v": 77
    },
    {
      "midi": 43,
      "hit": false,
      "t": 129708.92981249993,
      "d": 640.2000885416637,
      "v": 98
    },
    {
      "midi": 55,
      "hit": false,
      "t": 129708.92981249993,
      "d": 643.5784531249956,
      "v": 97
    },
    {
      "midi": 67,
      "hit": false,
      "t": 129729.19999999995,
      "d": 483.1061354166595,
      "v": 97
    },
    {
      "midi": 55,
      "hit": false,
      "t": 130357.57581249993,
      "d": 322.63381770833803,
      "v": 99
    },
    {
      "midi": 60,
      "hit": false,
      "t": 130681.89881249993,
      "d": 643.5784531250101,
      "v": 103
    },
    {
      "midi": 48,
      "hit": false,
      "t": 130681.89881249993,
      "d": 802.3615885416948,
      "v": 95
    },
    {
      "midi": 64,
      "hit": false,
      "t": 130702.16899999995,
      "d": 481.4169531249936,
      "v": 96
    },
    {
      "midi": 62,
      "hit": false,
      "t": 131188.65349999996,
      "d": 160.47231770833605,
      "v": 96
    },
    {
      "midi": 60,
      "hit": false,
      "t": 131330.54481249995,
      "d": 322.6338177083526,
      "v": 99
    },
    {
      "midi": 64,
      "hit": false,
      "t": 131350.81499999997,
      "d": 320.9446354166721,
      "v": 100
    },
    {
      "midi": 41,
      "hit": false,
      "t": 131654.8678125,
      "d": 645.2676354166761,
      "v": 99
    },
    {
      "midi": 53,
      "hit": false,
      "t": 131654.8678125,
      "d": 645.2676354166761,
      "v": 104
    },
    {
      "midi": 65,
      "hit": false,
      "t": 131675.13799999998,
      "d": 641.8892708333442,
      "v": 104
    },
    {
      "midi": 41,
      "hit": false,
      "t": 132303.5138125,
      "d": 160.47231770833605,
      "v": 95
    },
    {
      "midi": 64,
      "hit": false,
      "t": 132323.78399999999,
      "d": 320.9446354166721,
      "v": 104
    },
    {
      "midi": 40,
      "hit": false,
      "t": 132465.6753125,
      "d": 158.78313541665557,
      "v": 99
    },
    {
      "midi": 38,
      "hit": false,
      "t": 132627.8368125,
      "d": 320.9446354166721,
      "v": 103
    },
    {
      "midi": 62,
      "hit": false,
      "t": 132648.107,
      "d": 320.9446354166721,
      "v": 97
    },
    {
      "midi": 40,
      "hit": false,
      "t": 132952.1598125,
      "d": 160.47231770833605,
      "v": 105
    },
    {
      "midi": 60,
      "hit": false,
      "t": 132972.43,
      "d": 322.6338177083235,
      "v": 87
    },
    {
      "midi": 41,
      "hit": false,
      "t": 133114.32131250002,
      "d": 160.47231770833605,
      "v": 89
    },
    {
      "midi": 43,
      "hit": false,
      "t": 133276.48281250003,
      "d": 322.6338177083235,
      "v": 102
    },
    {
      "midi": 60,
      "hit": false,
      "t": 133296.753,
      "d": 160.47231770833605,
      "v": 98
    },
    {
      "midi": 59,
      "hit": false,
      "t": 133458.9145,
      "d": 160.47231770833605,
      "v": 99
    },
    {
      "midi": 36,
      "hit": false,
      "t": 133600.80581250004,
      "d": 643.5784531249956,
      "v": 85
    },
    {
      "midi": 48,
      "hit": false,
      "t": 133600.80581250004,
      "d": 643.5784531249956,
      "v": 88
    },
    {
      "midi": 60,
      "hit": false,
      "t": 133621.07600000003,
      "d": 641.8892708333442,
      "v": 108
    },
    {
      "midi": 36,
      "hit": false,
      "t": 134249.45181250005,
      "d": 322.6338177083235,
      "v": 95
    },
    {
      "midi": 48,
      "hit": false,
      "t": 134249.45181250005,
      "d": 322.6338177083235,
      "v": 97
    },
    {
      "midi": 60,
      "hit": false,
      "t": 134269.72200000004,
      "d": 641.8892708333442,
      "v": 103
    },
    {
      "midi": 36,
      "hit": false,
      "t": 135546.74381250003,
      "d": 322.6338177083235,
      "v": 100
    },
    {
      "midi": 48,
      "hit": false,
      "t": 135546.74381250003,
      "d": 322.6338177083235,
      "v": 101
    }
  ]
}