{
  "jsonPath": "Rock/Pop Rock/Sister Hazel/please-come-home-for-christmas-album.json",
  "path": "Rock\\Pop Rock\\Sister Hazel\\Please Come Home For Christmas (Album).mid",
  "name": "Please Come Home For Christmas (Album)",
  "difficulty": "Advanced",
  "bpm": 120,
  "notes": [
    {
      "midi": 81,
      "hit": false,
      "t": 6315.759999999999,
      "d": 1562.4927083333332,
      "v": 56
    },
    {
      "midi": 93,
      "hit": false,
      "t": 6365.101874999999,
      "d": 1513.1508333333331,
      "v": 70
    },
    {
      "midi": 76,
      "hit": false,
      "t": 7878.2527083333325,
      "d": 1562.4927083333323,
      "v": 63
    },
    {
      "midi": 88,
      "hit": false,
      "t": 7927.594583333333,
      "d": 1513.1508333333322,
      "v": 70
    },
    {
      "midi": 78,
      "hit": false,
      "t": 9457.192708333332,
      "d": 1562.4927083333332,
      "v": 58
    },
    {
      "midi": 90,
      "hit": false,
      "t": 9539.429166666665,
      "d": 1513.150833333335,
      "v": 70
    },
    {
      "midi": 73,
      "hit": false,
      "t": 11036.132708333333,
      "d": 1562.4927083333332,
      "v": 48
    },
    {
      "midi": 85,
      "hit": false,
      "t": 11085.474583333333,
      "d": 1513.1508333333331,
      "v": 58
    },
    {
      "midi": 57,
      "hit": false,
      "t": 18930.83270833333,
      "d": 131.57833333333474,
      "v": 100
    },
    {
      "midi": 61,
      "hit": false,
      "t": 18930.83270833333,
      "d": 131.57833333333474,
      "v": 100
    },
    {
      "midi": 64,
      "hit": false,
      "t": 18930.83270833333,
      "d": 131.57833333333474,
      "v": 100
    },
    {
      "midi": 69,
      "hit": false,
      "t": 18930.83270833333,
      "d": 131.57833333333474,
      "v": 100
    },
    {
      "midi": 33,
      "hit": false,
      "t": 18930.83270833333,
      "d": 2615.1193750000093,
      "v": 100
    },
    {
      "midi": 57,
      "hit": false,
      "t": 19457.146041666667,
      "d": 131.57833333333474,
      "v": 73
    },
    {
      "midi": 61,
      "hit": false,
      "t": 19457.146041666667,
      "d": 131.57833333333474,
      "v": 73
    },
    {
      "midi": 64,
      "hit": false,
      "t": 19473.593333333334,
      "d": 131.57833333333474,
      "v": 73
    },
    {
      "midi": 69,
      "hit": false,
      "t": 19473.593333333334,
      "d": 131.57833333333474,
      "v": 73
    },
    {
      "midi": 61,
      "hit": false,
      "t": 19983.459375000002,
      "d": 148.02562500000204,
      "v": 80
    },
    {
      "midi": 64,
      "hit": false,
      "t": 19999.90666666667,
      "d": 131.57833333333474,
      "v": 80
    },
    {
      "midi": 57,
      "hit": false,
      "t": 20016.353958333337,
      "d": 131.57833333333474,
      "v": 80
    },
    {
      "midi": 69,
      "hit": false,
      "t": 20016.353958333337,
      "d": 131.57833333333474,
      "v": 80
    },
    {
      "midi": 61,
      "hit": false,
      "t": 20509.772708333338,
      "d": 131.57833333333474,
      "v": 100
    },
    {
      "midi": 57,
      "hit": false,
      "t": 20526.220000000005,
      "d": 131.57833333333474,
      "v": 100
    },
    {
      "midi": 64,
      "hit": false,
      "t": 20559.11458333334,
      "d": 131.57833333333474,
      "v": 100
    },
    {
      "midi": 69,
      "hit": false,
      "t": 20559.11458333334,
      "d": 131.57833333333474,
      "v": 100
    },
    {
      "midi": 64,
      "hit": false,
      "t": 21036.086041666673,
      "d": 131.57833333333474,
      "v": 73
    },
    {
      "midi": 69,
      "hit": false,
      "t": 21036.086041666673,
      "d": 131.57833333333474,
      "v": 73
    },
    {
      "midi": 57,
      "hit": false,
      "t": 21052.53333333334,
      "d": 131.57833333333474,
      "v": 73
    },
    {
      "midi": 61,
      "hit": false,
      "t": 21052.53333333334,
      "d": 131.57833333333474,
      "v": 73
    },
    {
      "midi": 61,
      "hit": false,
      "t": 21562.399375000008,
      "d": 131.57833333333474,
      "v": 80
    },
    {
      "midi": 64,
      "hit": false,
      "t": 21562.399375000008,
      "d": 131.57833333333474,
      "v": 80
    },
    {
      "midi": 57,
      "hit": false,
      "t": 21578.846666666675,
      "d": 131.57833333333474,
      "v": 80
    },
    {
      "midi": 40,
      "hit": false,
      "t": 21595.293958333343,
      "d": 526.3133333333353,
      "v": 80
    },
    {
      "midi": 69,
      "hit": false,
      "t": 21611.74125000001,
      "d": 115.13104166666744,
      "v": 80
    },
    {
      "midi": 57,
      "hit": false,
      "t": 22121.607291666678,
      "d": 115.13104166666744,
      "v": 100
    },
    {
      "midi": 61,
      "hit": false,
      "t": 22121.607291666678,
      "d": 115.13104166666744,
      "v": 100
    },
    {
      "midi": 64,
      "hit": false,
      "t": 22121.607291666678,
      "d": 115.13104166666744,
      "v": 100
    },
    {
      "midi": 68,
      "hit": false,
      "t": 22121.607291666678,
      "d": 115.13104166666744,
      "v": 100
    },
    {
      "midi": 45,
      "hit": false,
      "t": 22121.607291666678,
      "d": 3124.9854166666773,
      "v": 100
    },
    {
      "midi": 57,
      "hit": false,
      "t": 22615.02604166668,
      "d": 131.57833333333474,
      "v": 73
    },
    {
      "midi": 64,
      "hit": false,
      "t": 22615.02604166668,
      "d": 131.57833333333474,
      "v": 73
    },
    {
      "midi": 68,
      "hit": false,
      "t": 22615.02604166668,
      "d": 131.57833333333474,
      "v": 73
    },
    {
      "midi": 61,
      "hit": false,
      "t": 22631.473333333346,
      "d": 131.57833333333474,
      "v": 73
    },
    {
      "midi": 57,
      "hit": false,
      "t": 23141.339375000014,
      "d": 131.57833333333474,
      "v": 80
    },
    {
      "midi": 61,
      "hit": false,
      "t": 23157.78666666668,
      "d": 131.57833333333474,
      "v": 80
    },
    {
      "midi": 64,
      "hit": false,
      "t": 23157.78666666668,
      "d": 131.57833333333474,
      "v": 80
    },
    {
      "midi": 68,
      "hit": false,
      "t": 23157.78666666668,
      "d": 131.57833333333474,
      "v": 80
    },
    {
      "midi": 61,
      "hit": false,
      "t": 23667.65270833335,
      "d": 131.57833333333474,
      "v": 100
    },
    {
      "midi": 57,
      "hit": false,
      "t": 23684.100000000017,
      "d": 131.57833333333474,
      "v": 100
    },
    {
      "midi": 64,
      "hit": false,
      "t": 23684.100000000017,
      "d": 131.57833333333474,
      "v": 100
    },
    {
      "midi": 68,
      "hit": false,
      "t": 23684.100000000017,
      "d": 131.57833333333474,
      "v": 100
    },
    {
      "midi": 57,
      "hit": false,
      "t": 24210.413333333352,
      "d": 131.57833333333474,
      "v": 73
    },
    {
      "midi": 61,
      "hit": false,
      "t": 24210.413333333352,
      "d": 131.57833333333474,
      "v": 73
    },
    {
      "midi": 64,
      "hit": false,
      "t": 24210.413333333352,
      "d": 131.57833333333474,
      "v": 73
    },
    {
      "midi": 68,
      "hit": false,
      "t": 24210.413333333352,
      "d": 131.57833333333474,
      "v": 73
    },
    {
      "midi": 61,
      "hit": false,
      "t": 24720.27937500002,
      "d": 131.57833333333474,
      "v": 80
    },
    {
      "midi": 57,
      "hit": false,
      "t": 24736.726666666687,
      "d": 131.57833333333474,
      "v": 80
    },
    {
      "midi": 64,
      "hit": false,
      "t": 24736.726666666687,
      "d": 131.57833333333474,
      "v": 80
    },
    {
      "midi": 68,
      "hit": false,
      "t": 24753.173958333355,
      "d": 131.57833333333474,
      "v": 80
    },
    {
      "midi": 57,
      "hit": false,
      "t": 25246.592708333355,
      "d": 131.57833333333474,
      "v": 100
    },
    {
      "midi": 61,
      "hit": false,
      "t": 25263.040000000023,
      "d": 131.57833333333474,
      "v": 100
    },
    {
      "midi": 64,
      "hit": false,
      "t": 25263.040000000023,
      "d": 148.02562500000204,
      "v": 100
    },
    {
      "midi": 67,
      "hit": false,
      "t": 25263.040000000023,
      "d": 148.02562500000204,
      "v": 100
    },
    {
      "midi": 33,
      "hit": false,
      "t": 25263.040000000023,
      "d": 2615.1193750000093,
      "v": 100
    },
    {
      "midi": 61,
      "hit": false,
      "t": 25789.353333333358,
      "d": 131.57833333333474,
      "v": 73
    },
    {
      "midi": 57,
      "hit": false,
      "t": 25805.800625000025,
      "d": 148.02562500000204,
      "v": 73
    },
    {
      "midi": 64,
      "hit": false,
      "t": 25822.247916666693,
      "d": 115.13104166666744,
      "v": 73
    },
    {
      "midi": 67,
      "hit": false,
      "t": 25822.247916666693,
      "d": 131.57833333333474,
      "v": 73
    },
    {
      "midi": 61,
      "hit": false,
      "t": 26299.219375000026,
      "d": 131.57833333333474,
      "v": 80
    },
    {
      "midi": 64,
      "hit": false,
      "t": 26299.219375000026,
      "d": 131.57833333333474,
      "v": 80
    },
    {
      "midi": 57,
      "hit": false,
      "t": 26315.666666666693,
      "d": 131.57833333333474,
      "v": 80
    },
    {
      "midi": 67,
      "hit": false,
      "t": 26315.666666666693,
      "d": 131.57833333333474,
      "v": 80
    },
    {
      "midi": 64,
      "hit": false,
      "t": 26825.53270833336,
      "d": 131.57833333333474,
      "v": 100
    },
    {
      "midi": 57,
      "hit": false,
      "t": 26841.98000000003,
      "d": 131.57833333333474,
      "v": 100
    },
    {
      "midi": 61,
      "hit": false,
      "t": 26841.98000000003,
      "d": 131.57833333333474,
      "v": 100
    },
    {
      "midi": 67,
      "hit": false,
      "t": 26841.98000000003,
      "d": 131.57833333333474,
      "v": 100
    },
    {
      "midi": 57,
      "hit": false,
      "t": 27368.293333333364,
      "d": 131.57833333333474,
      "v": 73
    },
    {
      "midi": 61,
      "hit": false,
      "t": 27368.293333333364,
      "d": 131.57833333333474,
      "v": 73
    },
    {
      "midi": 64,
      "hit": false,
      "t": 27368.293333333364,
      "d": 131.57833333333474,
      "v": 73
    },
    {
      "midi": 67,
      "hit": false,
      "t": 27368.293333333364,
      "d": 131.57833333333474,
      "v": 73
    },
    {
      "midi": 61,
      "hit": false,
      "t": 27878.159375000032,
      "d": 131.57833333333474,
      "v": 80
    },
    {
      "midi": 67,
      "hit": false,
      "t": 27878.159375000032,
      "d": 131.57833333333474,
      "v": 80
    },
    {
      "midi": 40,
      "hit": false,
      "t": 27878.159375000032,
      "d": 509.866041666668,
      "v": 80
    },
    {
      "midi": 57,
      "hit": false,
      "t": 27894.6066666667,
      "d": 131.57833333333474,
      "v": 80
    },
    {
      "midi": 64,
      "hit": false,
      "t": 27894.6066666667,
      "d": 131.57833333333474,
      "v": 80
    },
    {
      "midi": 57,
      "hit": false,
      "t": 28420.920000000035,
      "d": 131.57833333333474,
      "v": 100
    },
    {
      "midi": 61,
      "hit": false,
      "t": 28420.920000000035,
      "d": 131.57833333333474,
      "v": 100
    },
    {
      "midi": 64,
      "hit": false,
      "t": 28420.920000000035,
      "d": 131.57833333333474,
      "v": 100
    },
    {
      "midi": 67,
      "hit": false,
      "t": 28420.920000000035,
      "d": 131.57833333333474,
      "v": 100
    },
    {
      "midi": 45,
      "hit": false,
      "t": 28420.920000000035,
      "d": 2088.806041666674,
      "v": 100
    },
    {
      "midi": 57,
      "hit": false,
      "t": 28930.786041666703,
      "d": 131.57833333333474,
      "v": 73
    },
    {
      "midi": 61,
      "hit": false,
      "t": 28947.23333333337,
      "d": 131.57833333333474,
      "v": 73
    },
    {
      "midi": 64,
      "hit": false,
      "t": 28947.23333333337,
      "d": 131.57833333333474,
      "v": 73
    },
    {
      "midi": 67,
      "hit": false,
      "t": 28947.23333333337,
      "d": 131.57833333333474,
      "v": 73
    },
    {
      "midi": 57,
      "hit": false,
      "t": 29457.099375000038,
      "d": 131.57833333333474,
      "v": 80
    },
    {
      "midi": 61,
      "hit": false,
      "t": 29457.099375000038,
      "d": 131.57833333333474,
      "v": 80
    },
    {
      "midi": 64,
      "hit": false,
      "t": 29489.993958333373,
      "d": 131.57833333333474,
      "v": 80
    },
    {
      "midi": 67,
      "hit": false,
      "t": 29489.993958333373,
      "d": 131.57833333333474,
      "v": 80
    },
    {
      "midi": 61,
      "hit": false,
      "t": 29983.412708333373,
      "d": 131.57833333333474,
      "v": 100
    },
    {
      "midi": 67,
      "hit": false,
      "t": 29983.412708333373,
      "d": 131.57833333333474,
      "v": 100
    },
    {
      "midi": 57,
      "hit": false,
      "t": 30016.307291666708,
      "d": 131.57833333333474,
      "v": 100
    },
    {
      "midi": 64,
      "hit": false,
      "t": 30016.307291666708,
      "d": 131.57833333333474,
      "v": 100
    },
    {
      "midi": 61,
      "hit": false,
      "t": 30509.72604166671,
      "d": 131.57833333333474,
      "v": 73
    },
    {
      "midi": 57,
      "hit": false,
      "t": 30526.173333333376,
      "d": 131.57833333333474,
      "v": 73
    },
    {
      "midi": 40,
      "hit": false,
      "t": 30526.173333333376,
      "d": 509.866041666668,
      "v": 73
    },
    {
      "midi": 64,
      "hit": false,
      "t": 30542.620625000043,
      "d": 131.57833333333474,
      "v": 73
    },
    {
      "midi": 67,
      "hit": false,
      "t": 30542.620625000043,
      "d": 131.57833333333474,
      "v": 73
    },
    {
      "midi": 61,
      "hit": false,
      "t": 31036.039375000044,
      "d": 131.57833333333474,
      "v": 80
    },
    {
      "midi": 57,
      "hit": false,
      "t": 31052.48666666671,
      "d": 131.57833333333474,
      "v": 80
    },
    {
      "midi": 64,
      "hit": false,
      "t": 31052.48666666671,
      "d": 131.57833333333474,
      "v": 80
    },
    {
      "midi": 67,
      "hit": false,
      "t": 31052.48666666671,
      "d": 131.57833333333474,
      "v": 80
    },
    {
      "midi": 33,
      "hit": false,
      "t": 31052.48666666671,
      "d": 509.866041666668,
      "v": 80
    },
    {
      "midi": 62,
      "hit": false,
      "t": 31562.35270833338,
      "d": 131.57833333333474,
      "v": 100
    },
    {
      "midi": 38,
      "hit": false,
      "t": 31562.35270833338,
      "d": 2088.8060416666667,
      "v": 100
    },
    {
      "midi": 57,
      "hit": false,
      "t": 31578.800000000047,
      "d": 131.57833333333474,
      "v": 100
    },
    {
      "midi": 66,
      "hit": false,
      "t": 31578.800000000047,
      "d": 131.57833333333474,
      "v": 100
    },
    {
      "midi": 57,
      "hit": false,
      "t": 32105.113333333382,
      "d": 131.57833333333474,
      "v": 73
    },
    {
      "midi": 62,
      "hit": false,
      "t": 32105.113333333382,
      "d": 131.57833333333474,
      "v": 73
    },
    {
      "midi": 66,
      "hit": false,
      "t": 32105.113333333382,
      "d": 131.57833333333474,
      "v": 73
    },
    {
      "midi": 57,
      "hit": false,
      "t": 32614.97937500005,
      "d": 131.57833333333474,
      "v": 80
    },
    {
      "midi": 62,
      "hit": false,
      "t": 32631.426666666717,
      "d": 131.57833333333474,
      "v": 80
    },
    {
      "midi": 66,
      "hit": false,
      "t": 32647.873958333385,
      "d": 131.57833333333474,
      "v": 80
    },
    {
      "midi": 62,
      "hit": false,
      "t": 33141.292708333385,
      "d": 131.5783333333311,
      "v": 100
    },
    {
      "midi": 66,
      "hit": false,
      "t": 33141.292708333385,
      "d": 131.5783333333311,
      "v": 100
    },
    {
      "midi": 57,
      "hit": false,
      "t": 33157.74000000005,
      "d": 131.5783333333311,
      "v": 100
    },
    {
      "midi": 66,
      "hit": false,
      "t": 33667.60604166671,
      "d": 131.5783333333311,
      "v": 73
    },
    {
      "midi": 57,
      "hit": false,
      "t": 33684.05333333337,
      "d": 131.5783333333311,
      "v": 73
    },
    {
      "midi": 62,
      "hit": false,
      "t": 33684.05333333337,
      "d": 131.5783333333311,
      "v": 73
    },
    {
      "midi": 57,
      "hit": false,
      "t": 34210.366666666705,
      "d": 148.02562499999476,
      "v": 80
    },
    {
      "midi": 62,
      "hit": false,
      "t": 34210.366666666705,
      "d": 148.02562499999476,
      "v": 80
    },
    {
      "midi": 33,
      "hit": false,
      "t": 34210.366666666705,
      "d": 509.86604166666075,
      "v": 80
    },
    {
      "midi": 66,
      "hit": false,
      "t": 34226.81395833337,
      "d": 148.02562499999476,
      "v": 80
    },
    {
      "midi": 62,
      "hit": false,
      "t": 34720.232708333366,
      "d": 131.5783333333311,
      "v": 100
    },
    {
      "midi": 66,
      "hit": false,
      "t": 34720.232708333366,
      "d": 131.5783333333311,
      "v": 100
    },
    {
      "midi": 57,
      "hit": false,
      "t": 34736.68000000003,
      "d": 131.5783333333311,
      "v": 100
    },
    {
      "midi": 38,
      "hit": false,
      "t": 34736.68000000003,
      "d": 2878.2760416666497,
      "v": 100
    },
    {
      "midi": 57,
      "hit": false,
      "t": 35262.99333333336,
      "d": 131.5783333333311,
      "v": 73
    },
    {
      "midi": 62,
      "hit": false,
      "t": 35262.99333333336,
      "d": 131.5783333333311,
      "v": 73
    },
    {
      "midi": 66,
      "hit": false,
      "t": 35262.99333333336,
      "d": 131.5783333333311,
      "v": 73
    },
    {
      "midi": 62,
      "hit": false,
      "t": 35772.85937500003,
      "d": 131.5783333333311,
      "v": 80
    },
    {
      "midi": 57,
      "hit": false,
      "t": 35789.30666666669,
      "d": 131.5783333333311,
      "v": 80
    },
    {
      "midi": 66,
      "hit": false,
      "t": 35789.30666666669,
      "d": 131.5783333333311,
      "v": 80
    },
    {
      "midi": 57,
      "hit": false,
      "t": 36332.06729166669,
      "d": 148.02562499999476,
      "v": 100
    },
    {
      "midi": 62,
      "hit": false,
      "t": 36348.51458333335,
      "d": 131.5783333333311,
      "v": 100
    },
    {
      "midi": 66,
      "hit": false,
      "t": 36348.51458333335,
      "d": 131.5783333333311,
      "v": 100
    },
    {
      "midi": 57,
      "hit": false,
      "t": 36858.38062500002,
      "d": 115.13104166666744,
      "v": 73
    },
    {
      "midi": 62,
      "hit": false,
      "t": 36858.38062500002,
      "d": 115.13104166666744,
      "v": 73
    },
    {
      "midi": 66,
      "hit": false,
      "t": 36858.38062500002,
      "d": 115.13104166666744,
      "v": 73
    },
    {
      "midi": 57,
      "hit": false,
      "t": 37351.79937500002,
      "d": 131.5783333333311,
      "v": 80
    },
    {
      "midi": 62,
      "hit": false,
      "t": 37368.24666666668,
      "d": 131.5783333333311,
      "v": 80
    },
    {
      "midi": 66,
      "hit": false,
      "t": 37368.24666666668,
      "d": 131.5783333333311,
      "v": 80
    },
    {
      "midi": 63,
      "hit": false,
      "t": 37878.11270833335,
      "d": 148.02562500000204,
      "v": 100
    },
    {
      "midi": 59,
      "hit": false,
      "t": 37911.00729166668,
      "d": 131.5783333333311,
      "v": 100
    },
    {
      "midi": 66,
      "hit": false,
      "t": 37911.00729166668,
      "d": 131.5783333333311,
      "v": 100
    },
    {
      "midi": 39,
      "hit": false,
      "t": 37911.00729166668,
      "d": 2615.11937499998,
      "v": 100
    },
    {
      "midi": 59,
      "hit": false,
      "t": 38404.42604166668,
      "d": 131.5783333333311,
      "v": 73
    },
    {
      "midi": 63,
      "hit": false,
      "t": 38404.42604166668,
      "d": 131.5783333333311,
      "v": 73
    },
    {
      "midi": 66,
      "hit": false,
      "t": 38420.873333333344,
      "d": 131.5783333333311,
      "v": 73
    },
    {
      "midi": 59,
      "hit": false,
      "t": 38930.739375000005,
      "d": 131.5783333333311,
      "v": 80
    },
    {
      "midi": 63,
      "hit": false,
      "t": 38930.739375000005,
      "d": 131.5783333333311,
      "v": 80
    },
    {
      "midi": 66,
      "hit": false,
      "t": 38930.739375000005,
      "d": 131.5783333333311,
      "v": 80
    },
    {
      "midi": 59,
      "hit": false,
      "t": 39457.052708333336,
      "d": 131.5783333333311,
      "v": 100
    },
    {
      "midi": 66,
      "hit": false,
      "t": 39457.052708333336,
      "d": 131.5783333333311,
      "v": 100
    },
    {
      "midi": 63,
      "hit": false,
      "t": 39473.5,
      "d": 131.5783333333311,
      "v": 100
    },
    {
      "midi": 59,
      "hit": false,
      "t": 39999.81333333333,
      "d": 131.5783333333311,
      "v": 73
    },
    {
      "midi": 63,
      "hit": false,
      "t": 40032.707916666666,
      "d": 131.5783333333311,
      "v": 73
    },
    {
      "midi": 66,
      "hit": false,
      "t": 40032.707916666666,
      "d": 131.5783333333311,
      "v": 73
    },
    {
      "midi": 63,
      "hit": false,
      "t": 40542.57395833333,
      "d": 115.13104166666017,
      "v": 80
    },
    {
      "midi": 66,
      "hit": false,
      "t": 40542.57395833333,
      "d": 115.13104166666017,
      "v": 80
    },
    {
      "midi": 59,
      "hit": false,
      "t": 40559.02124999999,
      "d": 115.13104166666017,
      "v": 80
    },
    {
      "midi": 35,
      "hit": false,
      "t": 40559.02124999999,
      "d": 493.4187499999971,
      "v": 80
    },
    {
      "midi": 59,
      "hit": false,
      "t": 41068.88729166665,
      "d": 115.13104166666744,
      "v": 100
    },
    {
      "midi": 63,
      "hit": false,
      "t": 41068.88729166665,
      "d": 131.5783333333311,
      "v": 100
    },
    {
      "midi": 66,
      "hit": false,
      "t": 41068.88729166665,
      "d": 131.5783333333311,
      "v": 100
    },
    {
      "midi": 39,
      "hit": false,
      "t": 41068.88729166665,
      "d": 3141.4327083333046,
      "v": 100
    },
    {
      "midi": 59,
      "hit": false,
      "t": 41578.75333333331,
      "d": 131.5783333333311,
      "v": 73
    },
    {
      "midi": 63,
      "hit": false,
      "t": 41578.75333333331,
      "d": 131.5783333333311,
      "v": 73
    },
    {
      "midi": 66,
      "hit": false,
      "t": 41578.75333333331,
      "d": 131.5783333333311,
      "v": 73
    },
    {
      "midi": 66,
      "hit": false,
      "t": 42088.61937499998,
      "d": 131.5783333333311,
      "v": 80
    },
    {
      "midi": 59,
      "hit": false,
      "t": 42105.066666666644,
      "d": 131.5783333333311,
      "v": 80
    },
    {
      "midi": 63,
      "hit": false,
      "t": 42105.066666666644,
      "d": 131.5783333333311,
      "v": 80
    },
    {
      "midi": 59,
      "hit": false,
      "t": 42614.932708333305,
      "d": 131.5783333333311,
      "v": 100
    },
    {
      "midi": 66,
      "hit": false,
      "t": 42614.932708333305,
      "d": 131.5783333333311,
      "v": 100
    },
    {
      "midi": 63,
      "hit": false,
      "t": 42631.37999999997,
      "d": 131.5783333333311,
      "v": 100
    },
    {
      "midi": 59,
      "hit": false,
      "t": 43141.24604166663,
      "d": 148.02562500000204,
      "v": 73
    },
    {
      "midi": 66,
      "hit": false,
      "t": 43141.24604166663,
      "d": 148.02562500000204,
      "v": 73
    },
    {
      "midi": 63,
      "hit": false,
      "t": 43174.14062499996,
      "d": 131.5783333333311,
      "v": 73
    },
    {
      "midi": 66,
      "hit": false,
      "t": 43667.55937499996,
      "d": 131.5783333333311,
      "v": 80
    },
    {
      "midi": 59,
      "hit": false,
      "t": 43684.006666666624,
      "d": 131.5783333333311,
      "v": 80
    },
    {
      "midi": 63,
      "hit": false,
      "t": 43684.006666666624,
      "d": 131.5783333333311,
      "v": 80
    },
    {
      "midi": 57,
      "hit": false,
      "t": 44193.87270833329,
      "d": 131.57833333332383,
      "v": 100
    },
    {
      "midi": 64,
      "hit": false,
      "t": 44193.87270833329,
      "d": 131.57833333332383,
      "v": 100
    },
    {
      "midi": 61,
      "hit": false,
      "t": 44210.319999999956,
      "d": 131.57833333332383,
      "v": 100
    },
    {
      "midi": 33,
      "hit": false,
      "t": 44226.76729166662,
      "d": 2072.358749999985,
      "v": 100
    },
    {
      "midi": 57,
      "hit": false,
      "t": 44736.63333333328,
      "d": 115.13104166666744,
      "v": 73
    },
    {
      "midi": 61,
      "hit": false,
      "t": 44736.63333333328,
      "d": 115.13104166666744,
      "v": 73
    },
    {
      "midi": 64,
      "hit": false,
      "t": 44736.63333333328,
      "d": 131.5783333333311,
      "v": 73
    },
    {
      "midi": 57,
      "hit": false,
      "t": 45246.49937499994,
      "d": 131.5783333333311,
      "v": 80
    },
    {
      "midi": 61,
      "hit": false,
      "t": 45262.946666666605,
      "d": 131.5783333333311,
      "v": 80
    },
    {
      "midi": 64,
      "hit": false,
      "t": 45262.946666666605,
      "d": 131.5783333333311,
      "v": 80
    },
    {
      "midi": 57,
      "hit": false,
      "t": 45789.25999999994,
      "d": 131.5783333333311,
      "v": 100
    },
    {
      "midi": 61,
      "hit": false,
      "t": 45789.25999999994,
      "d": 131.5783333333311,
      "v": 100
    },
    {
      "midi": 64,
      "hit": false,
      "t": 45789.25999999994,
      "d": 131.5783333333311,
      "v": 100
    },
    {
      "midi": 57,
      "hit": false,
      "t": 46299.126041666605,
      "d": 131.5783333333311,
      "v": 73
    },
    {
      "midi": 61,
      "hit": false,
      "t": 46299.126041666605,
      "d": 131.5783333333311,
      "v": 73
    },
    {
      "midi": 64,
      "hit": false,
      "t": 46299.126041666605,
      "d": 131.5783333333311,
      "v": 73
    },
    {
      "midi": 35,
      "hit": false,
      "t": 46315.57333333327,
      "d": 509.866041666668,
      "v": 73
    },
    {
      "midi": 57,
      "hit": false,
      "t": 46825.439374999936,
      "d": 131.5783333333311,
      "v": 80
    },
    {
      "midi": 64,
      "hit": false,
      "t": 46825.439374999936,
      "d": 131.5783333333311,
      "v": 80
    },
    {
      "midi": 37,
      "hit": false,
      "t": 46825.439374999936,
      "d": 509.866041666668,
      "v": 80
    },
    {
      "midi": 61,
      "hit": false,
      "t": 46858.33395833327,
      "d": 131.5783333333311,
      "v": 80
    },
    {
      "midi": 66,
      "hit": false,
      "t": 47351.75270833327,
      "d": 131.5783333333311,
      "v": 100
    },
    {
      "midi": 38,
      "hit": false,
      "t": 47351.75270833327,
      "d": 3157.8799999999683,
      "v": 100
    },
    {
      "midi": 57,
      "hit": false,
      "t": 47368.19999999993,
      "d": 131.5783333333311,
      "v": 100
    },
    {
      "midi": 60,
      "hit": false,
      "t": 47368.19999999993,
      "d": 131.5783333333311,
      "v": 100
    },
    {
      "midi": 60,
      "hit": false,
      "t": 47878.06604166659,
      "d": 131.5783333333311,
      "v": 73
    },
    {
      "midi": 66,
      "hit": false,
      "t": 47878.06604166659,
      "d": 131.5783333333311,
      "v": 73
    },
    {
      "midi": 57,
      "hit": false,
      "t": 47894.513333333256,
      "d": 131.5783333333311,
      "v": 73
    },
    {
      "midi": 57,
      "hit": false,
      "t": 48420.82666666659,
      "d": 148.02562499999476,
      "v": 80
    },
    {
      "midi": 60,
      "hit": false,
      "t": 48437.27395833325,
      "d": 115.13104166666744,
      "v": 80
    },
    {
      "midi": 66,
      "hit": false,
      "t": 48437.27395833325,
      "d": 131.5783333333311,
      "v": 80
    },
    {
      "midi": 66,
      "hit": false,
      "t": 48930.69270833325,
      "d": 131.5783333333311,
      "v": 100
    },
    {
      "midi": 57,
      "hit": false,
      "t": 48947.13999999991,
      "d": 131.5783333333311,
      "v": 100
    },
    {
      "midi": 60,
      "hit": false,
      "t": 48947.13999999991,
      "d": 131.5783333333311,
      "v": 100
    },
    {
      "midi": 60,
      "hit": false,
      "t": 49457.00604166658,
      "d": 131.5783333333311,
      "v": 73
    },
    {
      "midi": 57,
      "hit": false,
      "t": 49473.453333333244,
      "d": 131.5783333333311,
      "v": 73
    },
    {
      "midi": 66,
      "hit": false,
      "t": 49473.453333333244,
      "d": 131.5783333333311,
      "v": 73
    },
    {
      "midi": 57,
      "hit": false,
      "t": 50016.21395833324,
      "d": 131.5783333333311,
      "v": 80
    },
    {
      "midi": 60,
      "hit": false,
      "t": 50016.21395833324,
      "d": 131.5783333333311,
      "v": 80
    },
    {
      "midi": 66,
      "hit": false,
      "t": 50016.21395833324,
      "d": 131.5783333333311,
      "v": 80
    },
    {
      "midi": 61,
      "hit": false,
      "t": 50526.0799999999,
      "d": 131.5783333333311,
      "v": 100
    },
    {
      "midi": 33,
      "hit": false,
      "t": 50526.0799999999,
      "d": 1562.4927083333168,
      "v": 100
    },
    {
      "midi": 57,
      "hit": false,
      "t": 50542.52729166656,
      "d": 131.5783333333311,
      "v": 100
    },
    {
      "midi": 64,
      "hit": false,
      "t": 50542.52729166656,
      "d": 131.5783333333311,
      "v": 100
    },
    {
      "midi": 57,
      "hit": false,
      "t": 51052.393333333224,
      "d": 131.5783333333311,
      "v": 73
    },
    {
      "midi": 61,
      "hit": false,
      "t": 51052.393333333224,
      "d": 131.5783333333311,
      "v": 73
    },
    {
      "midi": 64,
      "hit": false,
      "t": 51052.393333333224,
      "d": 131.5783333333311,
      "v": 73
    },
    {
      "midi": 57,
      "hit": false,
      "t": 51562.25937499989,
      "d": 131.5783333333311,
      "v": 80
    },
    {
      "midi": 61,
      "hit": false,
      "t": 51578.706666666556,
      "d": 131.5783333333311,
      "v": 80
    },
    {
      "midi": 64,
      "hit": false,
      "t": 51578.706666666556,
      "d": 131.5783333333311,
      "v": 80
    },
    {
      "midi": 32,
      "hit": false,
      "t": 52088.57270833322,
      "d": 1562.4927083333241,
      "v": 100
    },
    {
      "midi": 56,
      "hit": false,
      "t": 52105.01999999988,
      "d": 131.5783333333311,
      "v": 100
    },
    {
      "midi": 59,
      "hit": false,
      "t": 52105.01999999988,
      "d": 131.5783333333311,
      "v": 100
    },
    {
      "midi": 64,
      "hit": false,
      "t": 52105.01999999988,
      "d": 131.5783333333311,
      "v": 100
    },
    {
      "midi": 56,
      "hit": false,
      "t": 52631.33333333321,
      "d": 131.5783333333311,
      "v": 73
    },
    {
      "midi": 59,
      "hit": false,
      "t": 52631.33333333321,
      "d": 131.5783333333311,
      "v": 73
    },
    {
      "midi": 64,
      "hit": false,
      "t": 52631.33333333321,
      "d": 131.5783333333311,
      "v": 73
    },
    {
      "midi": 56,
      "hit": false,
      "t": 53157.646666666544,
      "d": 131.5783333333311,
      "v": 80
    },
    {
      "midi": 59,
      "hit": false,
      "t": 53157.646666666544,
      "d": 131.5783333333311,
      "v": 80
    },
    {
      "midi": 64,
      "hit": false,
      "t": 53157.646666666544,
      "d": 131.5783333333311,
      "v": 80
    },
    {
      "midi": 64,
      "hit": false,
      "t": 53667.512708333205,
      "d": 131.5783333333311,
      "v": 100
    },
    {
      "midi": 30,
      "hit": false,
      "t": 53667.512708333205,
      "d": 3141.4327083332973,
      "v": 100
    },
    {
      "midi": 57,
      "hit": false,
      "t": 53683.95999999987,
      "d": 131.5783333333311,
      "v": 100
    },
    {
      "midi": 61,
      "hit": false,
      "t": 53683.95999999987,
      "d": 131.5783333333311,
      "v": 100
    },
    {
      "midi": 61,
      "hit": false,
      "t": 54193.82604166653,
      "d": 131.5783333333311,
      "v": 73
    },
    {
      "midi": 57,
      "hit": false,
      "t": 54210.27333333319,
      "d": 131.5783333333311,
      "v": 73
    },
    {
      "midi": 64,
      "hit": false,
      "t": 54210.27333333319,
      "d": 131.5783333333311,
      "v": 73
    },
    {
      "midi": 61,
      "hit": false,
      "t": 54720.13937499985,
      "d": 131.5783333333311,
      "v": 80
    },
    {
      "midi": 64,
      "hit": false,
      "t": 54720.13937499985,
      "d": 131.5783333333311,
      "v": 80
    },
    {
      "midi": 57,
      "hit": false,
      "t": 54736.58666666652,
      "d": 131.5783333333311,
      "v": 80
    },
    {
      "midi": 61,
      "hit": false,
      "t": 55246.45270833318,
      "d": 131.5783333333311,
      "v": 100
    },
    {
      "midi": 57,
      "hit": false,
      "t": 55262.89999999984,
      "d": 131.5783333333311,
      "v": 100
    },
    {
      "midi": 64,
      "hit": false,
      "t": 55262.89999999984,
      "d": 131.5783333333311,
      "v": 100
    },
    {
      "midi": 57,
      "hit": false,
      "t": 55789.21333333317,
      "d": 115.13104166666744,
      "v": 73
    },
    {
      "midi": 61,
      "hit": false,
      "t": 55789.21333333317,
      "d": 131.5783333333311,
      "v": 73
    },
    {
      "midi": 64,
      "hit": false,
      "t": 55789.21333333317,
      "d": 131.5783333333311,
      "v": 73
    },
    {
      "midi": 57,
      "hit": false,
      "t": 56299.07937499984,
      "d": 131.5783333333311,
      "v": 80
    },
    {
      "midi": 64,
      "hit": false,
      "t": 56299.07937499984,
      "d": 131.5783333333311,
      "v": 80
    },
    {
      "midi": 61,
      "hit": false,
      "t": 56315.526666666505,
      "d": 131.5783333333311,
      "v": 80
    },
    {
      "midi": 57,
      "hit": false,
      "t": 56841.83999999984,
      "d": 131.5783333333311,
      "v": 100
    },
    {
      "midi": 59,
      "hit": false,
      "t": 56841.83999999984,
      "d": 131.5783333333311,
      "v": 100
    },
    {
      "midi": 63,
      "hit": false,
      "t": 56841.83999999984,
      "d": 131.5783333333311,
      "v": 100
    },
    {
      "midi": 66,
      "hit": false,
      "t": 56841.83999999984,
      "d": 131.5783333333311,
      "v": 100
    },
    {
      "midi": 35,
      "hit": false,
      "t": 56841.83999999984,
      "d": 3141.4327083332973,
      "v": 100
    },
    {
      "midi": 57,
      "hit": false,
      "t": 57351.706041666504,
      "d": 131.5783333333311,
      "v": 73
    },
    {
      "midi": 59,
      "hit": false,
      "t": 57351.706041666504,
      "d": 131.5783333333311,
      "v": 73
    },
    {
      "midi": 63,
      "hit": false,
      "t": 57368.15333333317,
      "d": 131.5783333333311,
      "v": 73
    },
    {
      "midi": 66,
      "hit": false,
      "t": 57368.15333333317,
      "d": 131.5783333333311,
      "v": 73
    },
    {
      "midi": 59,
      "hit": false,
      "t": 57878.01937499983,
      "d": 131.5783333333311,
      "v": 80
    },
    {
      "midi": 63,
      "hit": false,
      "t": 57878.01937499983,
      "d": 131.5783333333311,
      "v": 80
    },
    {
      "midi": 66,
      "hit": false,
      "t": 57878.01937499983,
      "d": 131.5783333333311,
      "v": 80
    },
    {
      "midi": 57,
      "hit": false,
      "t": 57894.46666666649,
      "d": 131.5783333333311,
      "v": 80
    },
    {
      "midi": 57,
      "hit": false,
      "t": 58404.33270833315,
      "d": 131.57833333332383,
      "v": 100
    },
    {
      "midi": 59,
      "hit": false,
      "t": 58420.77999999982,
      "d": 131.57833333332383,
      "v": 100
    },
    {
      "midi": 66,
      "hit": false,
      "t": 58420.77999999982,
      "d": 131.57833333332383,
      "v": 100
    },
    {
      "midi": 63,
      "hit": false,
      "t": 58437.22729166648,
      "d": 131.57833333332383,
      "v": 100
    },
    {
      "midi": 57,
      "hit": false,
      "t": 58930.64604166647,
      "d": 131.5783333333311,
      "v": 73
    },
    {
      "midi": 59,
      "hit": false,
      "t": 58930.64604166647,
      "d": 131.5783333333311,
      "v": 73
    },
    {
      "midi": 63,
      "hit": false,
      "t": 58930.64604166647,
      "d": 131.5783333333311,
      "v": 73
    },
    {
      "midi": 66,
      "hit": false,
      "t": 58947.093333333134,
      "d": 131.5783333333311,
      "v": 73
    },
    {
      "midi": 57,
      "hit": false,
      "t": 59456.9593749998,
      "d": 131.5783333333311,
      "v": 80
    },
    {
      "midi": 63,
      "hit": false,
      "t": 59456.9593749998,
      "d": 131.5783333333311,
      "v": 80
    },
    {
      "midi": 66,
      "hit": false,
      "t": 59456.9593749998,
      "d": 131.5783333333311,
      "v": 80
    },
    {
      "midi": 59,
      "hit": false,
      "t": 59489.85395833314,
      "d": 131.5783333333311,
      "v": 80
    },
    {
      "midi": 66,
      "hit": false,
      "t": 59983.272708333134,
      "d": 131.57833333332383,
      "v": 100
    },
    {
      "midi": 57,
      "hit": false,
      "t": 59999.7199999998,
      "d": 131.57833333332383,
      "v": 100
    },
    {
      "midi": 63,
      "hit": false,
      "t": 59999.7199999998,
      "d": 131.57833333332383,
      "v": 100
    },
    {
      "midi": 59,
      "hit": false,
      "t": 60016.16729166646,
      "d": 115.13104166666017,
      "v": 100
    },
    {
      "midi": 35,
      "hit": false,
      "t": 60016.16729166646,
      "d": 3141.432708333312,
      "v": 100
    },
    {
      "midi": 57,
      "hit": false,
      "t": 60526.03333333312,
      "d": 131.5783333333311,
      "v": 73
    },
    {
      "midi": 63,
      "hit": false,
      "t": 60526.03333333312,
      "d": 131.5783333333311,
      "v": 73
    },
    {
      "midi": 59,
      "hit": false,
      "t": 60542.480624999786,
      "d": 131.5783333333311,
      "v": 73
    },
    {
      "midi": 66,
      "hit": false,
      "t": 60542.480624999786,
      "d": 131.5783333333311,
      "v": 73
    },
    {
      "midi": 57,
      "hit": false,
      "t": 61035.89937499978,
      "d": 131.5783333333311,
      "v": 80
    },
    {
      "midi": 63,
      "hit": false,
      "t": 61035.89937499978,
      "d": 131.5783333333311,
      "v": 80
    },
    {
      "midi": 59,
      "hit": false,
      "t": 61052.346666666446,
      "d": 131.5783333333311,
      "v": 80
    },
    {
      "midi": 66,
      "hit": false,
      "t": 61052.346666666446,
      "d": 131.5783333333311,
      "v": 80
    },
    {
      "midi": 66,
      "hit": false,
      "t": 61562.212708333114,
      "d": 131.5783333333311,
      "v": 100
    },
    {
      "midi": 57,
      "hit": false,
      "t": 61578.65999999978,
      "d": 131.5783333333311,
      "v": 100
    },
    {
      "midi": 59,
      "hit": false,
      "t": 61578.65999999978,
      "d": 131.5783333333311,
      "v": 100
    },
    {
      "midi": 63,
      "hit": false,
      "t": 61578.65999999978,
      "d": 131.5783333333311,
      "v": 100
    },
    {
      "midi": 57,
      "hit": false,
      "t": 62104.97333333311,
      "d": 131.5783333333311,
      "v": 73
    },
    {
      "midi": 59,
      "hit": false,
      "t": 62104.97333333311,
      "d": 131.5783333333311,
      "v": 73
    },
    {
      "midi": 63,
      "hit": false,
      "t": 62104.97333333311,
      "d": 131.5783333333311,
      "v": 73
    },
    {
      "midi": 66,
      "hit": false,
      "t": 62104.97333333311,
      "d": 131.5783333333311,
      "v": 73
    },
    {
      "midi": 63,
      "hit": false,
      "t": 62614.83937499978,
      "d": 131.5783333333311,
      "v": 80
    },
    {
      "midi": 66,
      "hit": false,
      "t": 62614.83937499978,
      "d": 131.5783333333311,
      "v": 80
    },
    {
      "midi": 57,
      "hit": false,
      "t": 62631.28666666644,
      "d": 131.5783333333311,
      "v": 80
    },
    {
      "midi": 59,
      "hit": false,
      "t": 62631.28666666644,
      "d": 131.5783333333311,
      "v": 80
    },
    {
      "midi": 64,
      "hit": false,
      "t": 63174.04729166644,
      "d": 115.13104166666017,
      "v": 100
    },
    {
      "midi": 59,
      "hit": false,
      "t": 63190.4945833331,
      "d": 115.13104166666017,
      "v": 100
    },
    {
      "midi": 68,
      "hit": false,
      "t": 63190.4945833331,
      "d": 115.13104166666017,
      "v": 100
    },
    {
      "midi": 40,
      "hit": false,
      "t": 63190.4945833331,
      "d": 2335.5154166666252,
      "v": 100
    },
    {
      "midi": 59,
      "hit": false,
      "t": 63667.46604166643,
      "d": 131.5783333333311,
      "v": 73
    },
    {
      "midi": 64,
      "hit": false,
      "t": 63683.91333333309,
      "d": 131.5783333333311,
      "v": 73
    },
    {
      "midi": 68,
      "hit": false,
      "t": 63683.91333333309,
      "d": 131.5783333333311,
      "v": 73
    },
    {
      "midi": 64,
      "hit": false,
      "t": 64193.77937499975,
      "d": 131.5783333333311,
      "v": 80
    },
    {
      "midi": 59,
      "hit": false,
      "t": 64210.226666666415,
      "d": 131.5783333333311,
      "v": 80
    },
    {
      "midi": 68,
      "hit": false,
      "t": 64210.226666666415,
      "d": 131.5783333333311,
      "v": 80
    },
    {
      "midi": 68,
      "hit": false,
      "t": 64720.092708333075,
      "d": 131.5783333333311,
      "v": 100
    },
    {
      "midi": 59,
      "hit": false,
      "t": 64736.53999999974,
      "d": 131.5783333333311,
      "v": 100
    },
    {
      "midi": 64,
      "hit": false,
      "t": 64736.53999999974,
      "d": 131.5783333333311,
      "v": 100
    },
    {
      "midi": 59,
      "hit": false,
      "t": 65246.4060416664,
      "d": 131.5783333333311,
      "v": 73
    },
    {
      "midi": 64,
      "hit": false,
      "t": 65262.85333333306,
      "d": 131.5783333333311,
      "v": 73
    },
    {
      "midi": 68,
      "hit": false,
      "t": 65262.85333333306,
      "d": 131.5783333333311,
      "v": 73
    },
    {
      "midi": 64,
      "hit": false,
      "t": 65789.1666666664,
      "d": 131.57833333333838,
      "v": 80
    },
    {
      "midi": 40,
      "hit": false,
      "t": 65805.61395833307,
      "d": 131.57833333333838,
      "v": 80
    },
    {
      "midi": 59,
      "hit": false,
      "t": 65805.61395833307,
      "d": 131.57833333333838,
      "v": 80
    },
    {
      "midi": 68,
      "hit": false,
      "t": 65805.61395833307,
      "d": 131.57833333333838,
      "v": 80
    },
    {
      "midi": 68,
      "hit": false,
      "t": 66315.47999999973,
      "d": 131.57833333332383,
      "v": 100
    },
    {
      "midi": 60,
      "hit": false,
      "t": 66348.37458333306,
      "d": 131.57833333332383,
      "v": 100
    },
    {
      "midi": 64,
      "hit": false,
      "t": 66348.37458333306,
      "d": 131.57833333332383,
      "v": 100
    },
    {
      "midi": 40,
      "hit": false,
      "t": 66348.37458333306,
      "d": 2335.515416666647,
      "v": 100
    },
    {
      "midi": 60,
      "hit": false,
      "t": 66841.79333333306,
      "d": 115.13104166666744,
      "v": 73
    },
    {
      "midi": 64,
      "hit": false,
      "t": 66841.79333333306,
      "d": 131.57833333333838,
      "v": 73
    },
    {
      "midi": 68,
      "hit": false,
      "t": 66841.79333333306,
      "d": 131.57833333333838,
      "v": 73
    },
    {
      "midi": 60,
      "hit": false,
      "t": 67351.65937499973,
      "d": 131.57833333332383,
      "v": 80
    },
    {
      "midi": 64,
      "hit": false,
      "t": 67384.55395833305,
      "d": 131.57833333332383,
      "v": 80
    },
    {
      "midi": 68,
      "hit": false,
      "t": 67384.55395833305,
      "d": 131.57833333332383,
      "v": 80
    },
    {
      "midi": 60,
      "hit": false,
      "t": 67877.97270833305,
      "d": 131.57833333333838,
      "v": 100
    },
    {
      "midi": 64,
      "hit": false,
      "t": 67877.97270833305,
      "d": 131.57833333333838,
      "v": 100
    },
    {
      "midi": 68,
      "hit": false,
      "t": 67894.41999999972,
      "d": 131.57833333333838,
      "v": 100
    },
    {
      "midi": 64,
      "hit": false,
      "t": 68404.28604166639,
      "d": 131.57833333332383,
      "v": 73
    },
    {
      "midi": 68,
      "hit": false,
      "t": 68404.28604166639,
      "d": 131.57833333332383,
      "v": 73
    },
    {
      "midi": 60,
      "hit": false,
      "t": 68437.18062499972,
      "d": 131.57833333332383,
      "v": 73
    },
    {
      "midi": 64,
      "hit": false,
      "t": 68930.59937499971,
      "d": 131.57833333333838,
      "v": 80
    },
    {
      "midi": 68,
      "hit": false,
      "t": 68930.59937499971,
      "d": 131.57833333333838,
      "v": 80
    },
    {
      "midi": 60,
      "hit": false,
      "t": 68947.04666666639,
      "d": 131.57833333333838,
      "v": 80
    },
    {
      "midi": 40,
      "hit": false,
      "t": 68963.49395833306,
      "d": 509.866041666668,
      "v": 80
    },
    {
      "midi": 57,
      "hit": false,
      "t": 69456.91270833305,
      "d": 131.57833333333838,
      "v": 100
    },
    {
      "midi": 61,
      "hit": false,
      "t": 69456.91270833305,
      "d": 131.57833333333838,
      "v": 100
    },
    {
      "midi": 64,
      "hit": false,
      "t": 69489.8072916664,
      "d": 115.13104166666744,
      "v": 100
    },
    {
      "midi": 69,
      "hit": false,
      "t": 69489.8072916664,
      "d": 131.57833333333838,
      "v": 100
    },
    {
      "midi": 33,
      "hit": false,
      "t": 69489.8072916664,
      "d": 2582.2247916667257,
      "v": 100
    },
    {
      "midi": 61,
      "hit": false,
      "t": 69983.2260416664,
      "d": 131.57833333333838,
      "v": 73
    },
    {
      "midi": 69,
      "hit": false,
      "t": 69983.2260416664,
      "d": 131.57833333333838,
      "v": 73
    },
    {
      "midi": 57,
      "hit": false,
      "t": 69999.67333333308,
      "d": 131.57833333333838,
      "v": 73
    },
    {
      "midi": 64,
      "hit": false,
      "t": 70016.12062499975,
      "d": 131.57833333333838,
      "v": 73
    },
    {
      "midi": 64,
      "hit": false,
      "t": 70525.98666666642,
      "d": 131.57833333333838,
      "v": 80
    },
    {
      "midi": 61,
      "hit": false,
      "t": 70542.43395833309,
      "d": 148.0256250000093,
      "v": 80
    },
    {
      "midi": 57,
      "hit": false,
      "t": 70558.88124999976,
      "d": 115.13104166666744,
      "v": 80
    },
    {
      "midi": 69,
      "hit": false,
      "t": 70558.88124999976,
      "d": 131.57833333333838,
      "v": 80
    },
    {
      "midi": 57,
      "hit": false,
      "t": 71052.29999999977,
      "d": 131.57833333333838,
      "v": 100
    },
    {
      "midi": 61,
      "hit": false,
      "t": 71052.29999999977,
      "d": 131.57833333333838,
      "v": 100
    },
    {
      "midi": 64,
      "hit": false,
      "t": 71052.29999999977,
      "d": 131.57833333333838,
      "v": 100
    },
    {
      "midi": 69,
      "hit": false,
      "t": 71052.29999999977,
      "d": 131.57833333333838,
      "v": 100
    },
    {
      "midi": 57,
      "hit": false,
      "t": 71562.16604166644,
      "d": 131.57833333333838,
      "v": 73
    },
    {
      "midi": 61,
      "hit": false,
      "t": 71562.16604166644,
      "d": 131.57833333333838,
      "v": 73
    },
    {
      "midi": 69,
      "hit": false,
      "t": 71562.16604166644,
      "d": 131.57833333333838,
      "v": 73
    },
    {
      "midi": 64,
      "hit": false,
      "t": 71578.61333333311,
      "d": 131.57833333333838,
      "v": 73
    },
    {
      "midi": 57,
      "hit": false,
      "t": 72088.47937499979,
      "d": 131.57833333333838,
      "v": 80
    },
    {
      "midi": 61,
      "hit": false,
      "t": 72088.47937499979,
      "d": 131.57833333333838,
      "v": 80
    },
    {
      "midi": 40,
      "hit": false,
      "t": 72104.92666666646,
      "d": 509.866041666668,
      "v": 80
    },
    {
      "midi": 64,
      "hit": false,
      "t": 72121.37395833313,
      "d": 131.57833333332383,
      "v": 80
    },
    {
      "midi": 69,
      "hit": false,
      "t": 72121.37395833313,
      "d": 131.57833333332383,
      "v": 80
    },
    {
      "midi": 57,
      "hit": false,
      "t": 72614.79270833313,
      "d": 131.57833333333838,
      "v": 100
    },
    {
      "midi": 68,
      "hit": false,
      "t": 72614.79270833313,
      "d": 131.57833333333838,
      "v": 100
    },
    {
      "midi": 61,
      "hit": false,
      "t": 72631.2399999998,
      "d": 131.57833333333838,
      "v": 100
    },
    {
      "midi": 64,
      "hit": false,
      "t": 72647.68729166647,
      "d": 115.13104166666744,
      "v": 100
    },
    {
      "midi": 45,
      "hit": false,
      "t": 72647.68729166647,
      "d": 3141.432708333363,
      "v": 100
    },
    {
      "midi": 57,
      "hit": false,
      "t": 73141.10604166647,
      "d": 131.57833333333838,
      "v": 73
    },
    {
      "midi": 64,
      "hit": false,
      "t": 73141.10604166647,
      "d": 131.57833333333838,
      "v": 73
    },
    {
      "midi": 61,
      "hit": false,
      "t": 73157.55333333314,
      "d": 131.57833333333838,
      "v": 73
    },
    {
      "midi": 68,
      "hit": false,
      "t": 73157.55333333314,
      "d": 131.57833333333838,
      "v": 73
    },
    {
      "midi": 68,
      "hit": false,
      "t": 73667.41937499981,
      "d": 131.57833333333838,
      "v": 80
    },
    {
      "midi": 57,
      "hit": false,
      "t": 73683.86666666648,
      "d": 131.57833333333838,
      "v": 80
    },
    {
      "midi": 61,
      "hit": false,
      "t": 73683.86666666648,
      "d": 131.57833333333838,
      "v": 80
    },
    {
      "midi": 64,
      "hit": false,
      "t": 73683.86666666648,
      "d": 131.57833333333838,
      "v": 80
    },
    {
      "midi": 68,
      "hit": false,
      "t": 74193.73270833315,
      "d": 131.57833333333838,
      "v": 100
    },
    {
      "midi": 57,
      "hit": false,
      "t": 74210.17999999982,
      "d": 131.57833333333838,
      "v": 100
    },
    {
      "midi": 61,
      "hit": false,
      "t": 74210.17999999982,
      "d": 131.57833333333838,
      "v": 100
    },
    {
      "midi": 64,
      "hit": false,
      "t": 74210.17999999982,
      "d": 131.57833333333838,
      "v": 100
    },
    {
      "midi": 64,
      "hit": false,
      "t": 74720.04604166649,
      "d": 131.57833333333838,
      "v": 73
    },
    {
      "midi": 68,
      "hit": false,
      "t": 74720.04604166649,
      "d": 131.57833333333838,
      "v": 73
    },
    {
      "midi": 57,
      "hit": false,
      "t": 74736.49333333316,
      "d": 131.57833333333838,
      "v": 73
    },
    {
      "midi": 61,
      "hit": false,
      "t": 74736.49333333316,
      "d": 131.57833333333838,
      "v": 73
    },
    {
      "midi": 64,
      "hit": false,
      "t": 75246.35937499983,
      "d": 131.57833333333838,
      "v": 80
    },
    {
      "midi": 68,
      "hit": false,
      "t": 75279.25395833315,
      "d": 148.0256250000093,
      "v": 80
    },
    {
      "midi": 61,
      "hit": false,
      "t": 75295.70124999982,
      "d": 115.13104166666744,
      "v": 80
    },
    {
      "midi": 57,
      "hit": false,
      "t": 75295.70124999982,
      "d": 131.57833333333838,
      "v": 80
    },
    {
      "midi": 57,
      "hit": false,
      "t": 75805.5672916665,
      "d": 115.13104166666744,
      "v": 100
    },
    {
      "midi": 61,
      "hit": false,
      "t": 75805.5672916665,
      "d": 115.13104166666744,
      "v": 100
    },
    {
      "midi": 64,
      "hit": false,
      "t": 75805.5672916665,
      "d": 115.13104166666744,
      "v": 100
    },
    {
      "midi": 67,
      "hit": false,
      "t": 75822.01458333318,
      "d": 115.13104166666744,
      "v": 100
    },
    {
      "midi": 33,
      "hit": false,
      "t": 75822.01458333318,
      "d": 2598.6720833333384,
      "v": 100
    },
    {
      "midi": 67,
      "hit": false,
      "t": 76298.98604166652,
      "d": 131.57833333333838,
      "v": 73
    },
    {
      "midi": 57,
      "hit": false,
      "t": 76315.43333333319,
      "d": 131.57833333333838,
      "v": 73
    },
    {
      "midi": 61,
      "hit": false,
      "t": 76315.43333333319,
      "d": 131.57833333333838,
      "v": 73
    },
    {
      "midi": 64,
      "hit": false,
      "t": 76315.43333333319,
      "d": 131.57833333333838,
      "v": 73
    },
    {
      "midi": 67,
      "hit": false,
      "t": 76825.29937499986,
      "d": 131.57833333332383,
      "v": 80
    },
    {
      "midi": 57,
      "hit": false,
      "t": 76858.19395833318,
      "d": 131.57833333332383,
      "v": 80
    },
    {
      "midi": 61,
      "hit": false,
      "t": 76858.19395833318,
      "d": 131.57833333332383,
      "v": 80
    },
    {
      "midi": 64,
      "hit": false,
      "t": 76858.19395833318,
      "d": 131.57833333332383,
      "v": 80
    },
    {
      "midi": 57,
      "hit": false,
      "t": 77368.05999999984,
      "d": 131.57833333333838,
      "v": 100
    },
    {
      "midi": 61,
      "hit": false,
      "t": 77368.05999999984,
      "d": 131.57833333333838,
      "v": 100
    },
    {
      "midi": 64,
      "hit": false,
      "t": 77368.05999999984,
      "d": 131.57833333333838,
      "v": 100
    },
    {
      "midi": 67,
      "hit": false,
      "t": 77368.05999999984,
      "d": 131.57833333333838,
      "v": 100
    },
    {
      "midi": 57,
      "hit": false,
      "t": 77877.9260416665,
      "d": 148.02562499999476,
      "v": 73
    },
    {
      "midi": 61,
      "hit": false,
      "t": 77910.82062499983,
      "d": 131.57833333333838,
      "v": 73
    },
    {
      "midi": 64,
      "hit": false,
      "t": 77910.82062499983,
      "d": 131.57833333333838,
      "v": 73
    },
    {
      "midi": 67,
      "hit": false,
      "t": 77910.82062499983,
      "d": 131.57833333333838,
      "v": 73
    },
    {
      "midi": 64,
      "hit": false,
      "t": 78404.23937499984,
      "d": 131.57833333333838,
      "v": 80
    },
    {
      "midi": 67,
      "hit": false,
      "t": 78404.23937499984,
      "d": 131.57833333333838,
      "v": 80
    },
    {
      "midi": 57,
      "hit": false,
      "t": 78420.68666666652,
      "d": 131.57833333333838,
      "v": 80
    },
    {
      "midi": 61,
      "hit": false,
      "t": 78420.68666666652,
      "d": 131.57833333333838,
      "v": 80
    },
    {
      "midi": 40,
      "hit": false,
      "t": 78420.68666666652,
      "d": 493.41875000001164,
      "v": 80
    },
    {
      "midi": 61,
      "hit": false,
      "t": 78930.5527083332,
      "d": 148.0256250000093,
      "v": 100
    },
    {
      "midi": 57,
      "hit": false,
      "t": 78946.99999999987,
      "d": 131.57833333333838,
      "v": 100
    },
    {
      "midi": 64,
      "hit": false,
      "t": 78963.44729166654,
      "d": 131.57833333333838,
      "v": 100
    },
    {
      "midi": 67,
      "hit": false,
      "t": 78963.44729166654,
      "d": 131.57833333333838,
      "v": 100
    },
    {
      "midi": 45,
      "hit": false,
      "t": 78963.44729166654,
      "d": 2072.358749999985,
      "v": 100
    },
    {
      "midi": 57,
      "hit": false,
      "t": 79473.31333333321,
      "d": 131.57833333333838,
      "v": 73
    },
    {
      "midi": 61,
      "hit": false,
      "t": 79473.31333333321,
      "d": 131.57833333333838,
      "v": 73
    },
    {
      "midi": 64,
      "hit": false,
      "t": 79473.31333333321,
      "d": 131.57833333333838,
      "v": 73
    },
    {
      "midi": 67,
      "hit": false,
      "t": 79473.31333333321,
      "d": 131.57833333333838,
      "v": 73
    },
    {
      "midi": 57,
      "hit": false,
      "t": 79983.17937499988,
      "d": 131.57833333332383,
      "v": 80
    },
    {
      "midi": 64,
      "hit": false,
      "t": 79983.17937499988,
      "d": 131.57833333332383,
      "v": 80
    },
    {
      "midi": 67,
      "hit": false,
      "t": 79983.17937499988,
      "d": 131.57833333332383,
      "v": 80
    },
    {
      "midi": 61,
      "hit": false,
      "t": 80016.0739583332,
      "d": 131.57833333332383,
      "v": 80
    },
    {
      "midi": 57,
      "hit": false,
      "t": 80542.38729166653,
      "d": 115.13104166666744,
      "v": 100
    },
    {
      "midi": 61,
      "hit": false,
      "t": 80542.38729166653,
      "d": 115.13104166666744,
      "v": 100
    },
    {
      "midi": 64,
      "hit": false,
      "t": 80542.38729166653,
      "d": 115.13104166666744,
      "v": 100
    },
    {
      "midi": 67,
      "hit": false,
      "t": 80542.38729166653,
      "d": 115.13104166666744,
      "v": 100
    },
    {
      "midi": 57,
      "hit": false,
      "t": 81035.80604166652,
      "d": 131.57833333333838,
      "v": 73
    },
    {
      "midi": 61,
      "hit": false,
      "t": 81035.80604166652,
      "d": 131.57833333333838,
      "v": 73
    },
    {
      "midi": 67,
      "hit": false,
      "t": 81035.80604166652,
      "d": 131.57833333333838,
      "v": 73
    },
    {
      "midi": 40,
      "hit": false,
      "t": 81035.80604166652,
      "d": 509.8660416666826,
      "v": 73
    },
    {
      "midi": 64,
      "hit": false,
      "t": 81052.2533333332,
      "d": 131.57833333333838,
      "v": 73
    },
    {
      "midi": 61,
      "hit": false,
      "t": 81578.56666666653,
      "d": 131.57833333333838,
      "v": 80
    },
    {
      "midi": 67,
      "hit": false,
      "t": 81578.56666666653,
      "d": 131.57833333333838,
      "v": 80
    },
    {
      "midi": 33,
      "hit": false,
      "t": 81595.0139583332,
      "d": 509.866041666668,
      "v": 80
    },
    {
      "midi": 57,
      "hit": false,
      "t": 81611.46124999988,
      "d": 115.13104166666744,
      "v": 80
    },
    {
      "midi": 64,
      "hit": false,
      "t": 81611.46124999988,
      "d": 115.13104166666744,
      "v": 80
    },
    {
      "midi": 57,
      "hit": false,
      "t": 82121.32729166654,
      "d": 115.13104166666744,
      "v": 100
    },
    {
      "midi": 62,
      "hit": false,
      "t": 82121.32729166654,
      "d": 115.13104166666744,
      "v": 100
    },
    {
      "midi": 66,
      "hit": false,
      "t": 82121.32729166654,
      "d": 115.13104166666744,
      "v": 100
    },
    {
      "midi": 38,
      "hit": false,
      "t": 82121.32729166654,
      "d": 2072.358750000014,
      "v": 100
    },
    {
      "midi": 57,
      "hit": false,
      "t": 82631.19333333321,
      "d": 131.57833333333838,
      "v": 73
    },
    {
      "midi": 62,
      "hit": false,
      "t": 82631.19333333321,
      "d": 131.57833333333838,
      "v": 73
    },
    {
      "midi": 66,
      "hit": false,
      "t": 82631.19333333321,
      "d": 131.57833333333838,
      "v": 73
    },
    {
      "midi": 57,
      "hit": false,
      "t": 83141.05937499988,
      "d": 131.57833333333838,
      "v": 80
    },
    {
      "midi": 62,
      "hit": false,
      "t": 83157.50666666655,
      "d": 131.57833333333838,
      "v": 80
    },
    {
      "midi": 66,
      "hit": false,
      "t": 83157.50666666655,
      "d": 131.57833333333838,
      "v": 80
    },
    {
      "midi": 57,
      "hit": false,
      "t": 83667.37270833322,
      "d": 131.57833333333838,
      "v": 100
    },
    {
      "midi": 62,
      "hit": false,
      "t": 83667.37270833322,
      "d": 131.57833333333838,
      "v": 100
    },
    {
      "midi": 66,
      "hit": false,
      "t": 83683.81999999989,
      "d": 131.57833333333838,
      "v": 100
    },
    {
      "midi": 57,
      "hit": false,
      "t": 84193.68604166656,
      "d": 131.57833333333838,
      "v": 73
    },
    {
      "midi": 62,
      "hit": false,
      "t": 84193.68604166656,
      "d": 131.57833333333838,
      "v": 73
    },
    {
      "midi": 66,
      "hit": false,
      "t": 84210.13333333323,
      "d": 131.57833333333838,
      "v": 73
    },
    {
      "midi": 62,
      "hit": false,
      "t": 84719.9993749999,
      "d": 131.57833333332383,
      "v": 80
    },
    {
      "midi": 57,
      "hit": false,
      "t": 84752.89395833322,
      "d": 131.57833333332383,
      "v": 80
    },
    {
      "midi": 66,
      "hit": false,
      "t": 84752.89395833322,
      "d": 131.57833333332383,
      "v": 80
    },
    {
      "midi": 33,
      "hit": false,
      "t": 84752.89395833322,
      "d": 493.4187499999971,
      "v": 80
    },
    {
      "midi": 57,
      "hit": false,
      "t": 85246.31270833322,
      "d": 131.57833333333838,
      "v": 100
    },
    {
      "midi": 66,
      "hit": false,
      "t": 85246.31270833322,
      "d": 131.57833333333838,
      "v": 100
    },
    {
      "midi": 38,
      "hit": false,
      "t": 85262.7599999999,
      "d": 2878.2760416667006,
      "v": 100
    },
    {
      "midi": 62,
      "hit": false,
      "t": 85279.20729166656,
      "d": 131.57833333332383,
      "v": 100
    },
    {
      "midi": 57,
      "hit": false,
      "t": 85772.62604166656,
      "d": 131.57833333333838,
      "v": 73
    },
    {
      "midi": 62,
      "hit": false,
      "t": 85772.62604166656,
      "d": 131.57833333333838,
      "v": 73
    },
    {
      "midi": 66,
      "hit": false,
      "t": 85789.07333333323,
      "d": 131.57833333333838,
      "v": 73
    },
    {
      "midi": 57,
      "hit": false,
      "t": 86298.9393749999,
      "d": 131.57833333333838,
      "v": 80
    },
    {
      "midi": 62,
      "hit": false,
      "t": 86298.9393749999,
      "d": 131.57833333333838,
      "v": 80
    },
    {
      "midi": 66,
      "hit": false,
      "t": 86298.9393749999,
      "d": 131.57833333333838,
      "v": 80
    },
    {
      "midi": 57,
      "hit": false,
      "t": 86841.69999999991,
      "d": 148.0256250000093,
      "v": 100
    },
    {
      "midi": 66,
      "hit": false,
      "t": 86858.14729166658,
      "d": 115.13104166666744,
      "v": 100
    },
    {
      "midi": 62,
      "hit": false,
      "t": 86858.14729166658,
      "d": 131.57833333333838,
      "v": 100
    },
    {
      "midi": 57,
      "hit": false,
      "t": 87368.01333333325,
      "d": 115.13104166666744,
      "v": 73
    },
    {
      "midi": 62,
      "hit": false,
      "t": 87368.01333333325,
      "d": 131.57833333333838,
      "v": 73
    },
    {
      "midi": 66,
      "hit": false,
      "t": 87368.01333333325,
      "d": 131.57833333333838,
      "v": 73
    },
    {
      "midi": 57,
      "hit": false,
      "t": 87894.32666666659,
      "d": 131.57833333333838,
      "v": 80
    },
    {
      "midi": 62,
      "hit": false,
      "t": 87894.32666666659,
      "d": 131.57833333333838,
      "v": 80
    },
    {
      "midi": 66,
      "hit": false,
      "t": 87894.32666666659,
      "d": 131.57833333333838,
      "v": 80
    },
    {
      "midi": 59,
      "hit": false,
      "t": 88420.63999999993,
      "d": 131.57833333333838,
      "v": 100
    },
    {
      "midi": 63,
      "hit": false,
      "t": 88420.63999999993,
      "d": 131.57833333333838,
      "v": 100
    },
    {
      "midi": 66,
      "hit": false,
      "t": 88437.0872916666,
      "d": 131.57833333333838,
      "v": 100
    },
    {
      "midi": 39,
      "hit": false,
      "t": 88437.0872916666,
      "d": 2598.6720833333675,
      "v": 100
    },
    {
      "midi": 66,
      "hit": false,
      "t": 88930.50604166661,
      "d": 131.57833333333838,
      "v": 73
    },
    {
      "midi": 59,
      "hit": false,
      "t": 88946.95333333328,
      "d": 131.57833333333838,
      "v": 73
    },
    {
      "midi": 63,
      "hit": false,
      "t": 88946.95333333328,
      "d": 131.57833333333838,
      "v": 73
    },
    {
      "midi": 63,
      "hit": false,
      "t": 89456.81937499995,
      "d": 131.57833333333838,
      "v": 80
    },
    {
      "midi": 59,
      "hit": false,
      "t": 89473.26666666662,
      "d": 131.57833333333838,
      "v": 80
    },
    {
      "midi": 66,
      "hit": false,
      "t": 89473.26666666662,
      "d": 131.57833333333838,
      "v": 80
    },
    {
      "midi": 66,
      "hit": false,
      "t": 89983.13270833329,
      "d": 131.57833333333838,
      "v": 100
    },
    {
      "midi": 59,
      "hit": false,
      "t": 89999.57999999996,
      "d": 131.57833333333838,
      "v": 100
    },
    {
      "midi": 63,
      "hit": false,
      "t": 89999.57999999996,
      "d": 131.57833333333838,
      "v": 100
    },
    {
      "midi": 59,
      "hit": false,
      "t": 90525.8933333333,
      "d": 131.57833333333838,
      "v": 73
    },
    {
      "midi": 63,
      "hit": false,
      "t": 90525.8933333333,
      "d": 131.57833333333838,
      "v": 73
    },
    {
      "midi": 66,
      "hit": false,
      "t": 90525.8933333333,
      "d": 131.57833333333838,
      "v": 73
    },
    {
      "midi": 35,
      "hit": false,
      "t": 91035.75937499997,
      "d": 509.8660416666826,
      "v": 80
    },
    {
      "midi": 59,
      "hit": false,
      "t": 91052.20666666664,
      "d": 131.57833333333838,
      "v": 80
    },
    {
      "midi": 63,
      "hit": false,
      "t": 91052.20666666664,
      "d": 131.57833333333838,
      "v": 80
    },
    {
      "midi": 66,
      "hit": false,
      "t": 91052.20666666664,
      "d": 131.57833333333838,
      "v": 80
    },
    {
      "midi": 63,
      "hit": false,
      "t": 91562.07270833332,
      "d": 131.57833333333838,
      "v": 100
    },
    {
      "midi": 66,
      "hit": false,
      "t": 91562.07270833332,
      "d": 131.57833333333838,
      "v": 100
    },
    {
      "midi": 39,
      "hit": false,
      "t": 91562.07270833332,
      "d": 3141.432708333392,
      "v": 100
    },
    {
      "midi": 59,
      "hit": false,
      "t": 91578.51999999999,
      "d": 131.57833333333838,
      "v": 100
    },
    {
      "midi": 59,
      "hit": false,
      "t": 92104.83333333333,
      "d": 131.57833333333838,
      "v": 73
    },
    {
      "midi": 63,
      "hit": false,
      "t": 92104.83333333333,
      "d": 131.57833333333838,
      "v": 73
    },
    {
      "midi": 66,
      "hit": false,
      "t": 92104.83333333333,
      "d": 131.57833333333838,
      "v": 73
    },
    {
      "midi": 66,
      "hit": false,
      "t": 92631.14666666667,
      "d": 131.57833333333838,
      "v": 80
    },
    {
      "midi": 59,
      "hit": false,
      "t": 92647.59395833334,
      "d": 131.57833333333838,
      "v": 80
    },
    {
      "midi": 63,
      "hit": false,
      "t": 92647.59395833334,
      "d": 131.57833333333838,
      "v": 80
    },
    {
      "midi": 59,
      "hit": false,
      "t": 93157.46,
      "d": 131.57833333333838,
      "v": 100
    },
    {
      "midi": 63,
      "hit": false,
      "t": 93157.46,
      "d": 131.57833333333838,
      "v": 100
    },
    {
      "midi": 66,
      "hit": false,
      "t": 93157.46,
      "d": 131.57833333333838,
      "v": 100
    },
    {
      "midi": 59,
      "hit": false,
      "t": 93700.22062500002,
      "d": 131.57833333333838,
      "v": 73
    },
    {
      "midi": 63,
      "hit": false,
      "t": 93700.22062500002,
      "d": 131.57833333333838,
      "v": 73
    },
    {
      "midi": 66,
      "hit": false,
      "t": 93700.22062500002,
      "d": 131.57833333333838,
      "v": 73
    },
    {
      "midi": 59,
      "hit": false,
      "t": 94193.63937500003,
      "d": 131.57833333333838,
      "v": 80
    },
    {
      "midi": 63,
      "hit": false,
      "t": 94193.63937500003,
      "d": 131.57833333333838,
      "v": 80
    },
    {
      "midi": 66,
      "hit": false,
      "t": 94210.0866666667,
      "d": 131.57833333333838,
      "v": 80
    },
    {
      "midi": 64,
      "hit": false,
      "t": 94719.95270833338,
      "d": 131.57833333333838,
      "v": 100
    },
    {
      "midi": 61,
      "hit": false,
      "t": 94736.40000000005,
      "d": 131.57833333333838,
      "v": 100
    },
    {
      "midi": 57,
      "hit": false,
      "t": 94736.40000000005,
      "d": 148.0256250000093,
      "v": 100
    },
    {
      "midi": 33,
      "hit": false,
      "t": 94736.40000000005,
      "d": 2088.806041666685,
      "v": 100
    },
    {
      "midi": 57,
      "hit": false,
      "t": 95262.71333333339,
      "d": 115.13104166666744,
      "v": 73
    },
    {
      "midi": 61,
      "hit": false,
      "t": 95262.71333333339,
      "d": 115.13104166666744,
      "v": 73
    },
    {
      "midi": 64,
      "hit": false,
      "t": 95262.71333333339,
      "d": 131.57833333333838,
      "v": 73
    },
    {
      "midi": 61,
      "hit": false,
      "t": 95772.57937500006,
      "d": 131.57833333333838,
      "v": 80
    },
    {
      "midi": 57,
      "hit": false,
      "t": 95805.47395833339,
      "d": 148.0256250000093,
      "v": 80
    },
    {
      "midi": 64,
      "hit": false,
      "t": 95821.92125000006,
      "d": 115.13104166666744,
      "v": 80
    },
    {
      "midi": 57,
      "hit": false,
      "t": 96331.78729166673,
      "d": 131.57833333333838,
      "v": 100
    },
    {
      "midi": 61,
      "hit": false,
      "t": 96331.78729166673,
      "d": 131.57833333333838,
      "v": 100
    },
    {
      "midi": 64,
      "hit": false,
      "t": 96331.78729166673,
      "d": 131.57833333333838,
      "v": 100
    },
    {
      "midi": 57,
      "hit": false,
      "t": 96825.20604166674,
      "d": 131.57833333333838,
      "v": 73
    },
    {
      "midi": 61,
      "hit": false,
      "t": 96825.20604166674,
      "d": 131.57833333333838,
      "v": 73
    },
    {
      "midi": 64,
      "hit": false,
      "t": 96841.65333333341,
      "d": 131.57833333333838,
      "v": 73
    },
    {
      "midi": 35,
      "hit": false,
      "t": 96841.65333333341,
      "d": 509.866041666668,
      "v": 73
    },
    {
      "midi": 64,
      "hit": false,
      "t": 97351.51937500008,
      "d": 131.57833333333838,
      "v": 80
    },
    {
      "midi": 37,
      "hit": false,
      "t": 97351.51937500008,
      "d": 509.8660416666826,
      "v": 80
    },
    {
      "midi": 57,
      "hit": false,
      "t": 97367.96666666675,
      "d": 131.57833333333838,
      "v": 80
    },
    {
      "midi": 61,
      "hit": false,
      "t": 97367.96666666675,
      "d": 131.57833333333838,
      "v": 80
    },
    {
      "midi": 38,
      "hit": false,
      "t": 97877.83270833343,
      "d": 3157.8800000000483,
      "v": 100
    },
    {
      "midi": 57,
      "hit": false,
      "t": 97894.2800000001,
      "d": 131.57833333333838,
      "v": 100
    },
    {
      "midi": 60,
      "hit": false,
      "t": 97894.2800000001,
      "d": 131.57833333333838,
      "v": 100
    },
    {
      "midi": 66,
      "hit": false,
      "t": 97894.2800000001,
      "d": 131.57833333333838,
      "v": 100
    },
    {
      "midi": 66,
      "hit": false,
      "t": 98404.14604166677,
      "d": 131.57833333333838,
      "v": 73
    },
    {
      "midi": 57,
      "hit": false,
      "t": 98420.59333333344,
      "d": 131.57833333333838,
      "v": 73
    },
    {
      "midi": 60,
      "hit": false,
      "t": 98420.59333333344,
      "d": 131.57833333333838,
      "v": 73
    },
    {
      "midi": 60,
      "hit": false,
      "t": 98930.45937500011,
      "d": 131.57833333333838,
      "v": 80
    },
    {
      "midi": 57,
      "hit": false,
      "t": 98946.90666666678,
      "d": 131.57833333333838,
      "v": 80
    },
    {
      "midi": 66,
      "hit": false,
      "t": 98946.90666666678,
      "d": 131.57833333333838,
      "v": 80
    },
    {
      "midi": 57,
      "hit": false,
      "t": 99473.22000000012,
      "d": 148.0256250000093,
      "v": 100
    },
    {
      "midi": 66,
      "hit": false,
      "t": 99489.66729166679,
      "d": 115.13104166666744,
      "v": 100
    },
    {
      "midi": 60,
      "hit": false,
      "t": 99489.66729166679,
      "d": 131.57833333333838,
      "v": 100
    },
    {
      "midi": 66,
      "hit": false,
      "t": 99983.0860416668,
      "d": 131.57833333333838,
      "v": 73
    },
    {
      "midi": 57,
      "hit": false,
      "t": 99999.53333333347,
      "d": 131.57833333333838,
      "v": 73
    },
    {
      "midi": 60,
      "hit": false,
      "t": 99999.53333333347,
      "d": 131.57833333333838,
      "v": 73
    },
    {
      "midi": 60,
      "hit": false,
      "t": 100509.39937500014,
      "d": 148.02562499999476,
      "v": 80
    },
    {
      "midi": 57,
      "hit": false,
      "t": 100542.29395833347,
      "d": 131.57833333333838,
      "v": 80
    },
    {
      "midi": 66,
      "hit": false,
      "t": 100542.29395833347,
      "d": 131.57833333333838,
      "v": 80
    },
    {
      "midi": 61,
      "hit": false,
      "t": 101035.71270833348,
      "d": 131.57833333333838,
      "v": 100
    },
    {
      "midi": 64,
      "hit": false,
      "t": 101052.16000000015,
      "d": 131.57833333333838,
      "v": 100
    },
    {
      "midi": 57,
      "hit": false,
      "t": 101068.60729166682,
      "d": 131.57833333333838,
      "v": 100
    },
    {
      "midi": 33,
      "hit": false,
      "t": 101068.60729166682,
      "d": 1546.045416666675,
      "v": 100
    },
    {
      "midi": 64,
      "hit": false,
      "t": 101562.02604166683,
      "d": 131.57833333333838,
      "v": 73
    },
    {
      "midi": 57,
      "hit": false,
      "t": 101578.4733333335,
      "d": 131.57833333333838,
      "v": 73
    },
    {
      "midi": 61,
      "hit": false,
      "t": 101578.4733333335,
      "d": 131.57833333333838,
      "v": 73
    },
    {
      "midi": 64,
      "hit": false,
      "t": 102088.33937500017,
      "d": 131.57833333332383,
      "v": 80
    },
    {
      "midi": 57,
      "hit": false,
      "t": 102121.2339583335,
      "d": 131.57833333332383,
      "v": 80
    },
    {
      "midi": 61,
      "hit": false,
      "t": 102121.2339583335,
      "d": 131.57833333332383,
      "v": 80
    },
    {
      "midi": 32,
      "hit": false,
      "t": 102614.6527083335,
      "d": 1562.4927083333605,
      "v": 100
    },
    {
      "midi": 56,
      "hit": false,
      "t": 102631.10000000017,
      "d": 131.57833333333838,
      "v": 100
    },
    {
      "midi": 59,
      "hit": false,
      "t": 102631.10000000017,
      "d": 131.57833333333838,
      "v": 100
    },
    {
      "midi": 64,
      "hit": false,
      "t": 102631.10000000017,
      "d": 131.57833333333838,
      "v": 100
    },
    {
      "midi": 56,
      "hit": false,
      "t": 103140.96604166683,
      "d": 131.57833333333838,
      "v": 73
    },
    {
      "midi": 64,
      "hit": false,
      "t": 103140.96604166683,
      "d": 131.57833333333838,
      "v": 73
    },
    {
      "midi": 59,
      "hit": false,
      "t": 103157.4133333335,
      "d": 131.57833333333838,
      "v": 73
    },
    {
      "midi": 64,
      "hit": false,
      "t": 103667.27937500017,
      "d": 131.57833333333838,
      "v": 80
    },
    {
      "midi": 56,
      "hit": false,
      "t": 103683.72666666684,
      "d": 131.57833333333838,
      "v": 80
    },
    {
      "midi": 59,
      "hit": false,
      "t": 103683.72666666684,
      "d": 131.57833333333838,
      "v": 80
    },
    {
      "midi": 64,
      "hit": false,
      "t": 104193.59270833353,
      "d": 131.57833333333838,
      "v": 100
    },
    {
      "midi": 57,
      "hit": false,
      "t": 104210.0400000002,
      "d": 131.57833333333838,
      "v": 100
    },
    {
      "midi": 30,
      "hit": false,
      "t": 104210.0400000002,
      "d": 3141.432708333392,
      "v": 100
    },
    {
      "midi": 61,
      "hit": false,
      "t": 104226.48729166687,
      "d": 131.57833333333838,
      "v": 100
    },
    {
      "midi": 61,
      "hit": false,
      "t": 104752.8006250002,
      "d": 131.57833333333838,
      "v": 73
    },
    {
      "midi": 57,
      "hit": false,
      "t": 104769.24791666688,
      "d": 131.57833333333838,
      "v": 73
    },
    {
      "midi": 64,
      "hit": false,
      "t": 104769.24791666688,
      "d": 131.57833333333838,
      "v": 73
    },
    {
      "midi": 61,
      "hit": false,
      "t": 105246.21937500022,
      "d": 131.57833333333838,
      "v": 80
    },
    {
      "midi": 64,
      "hit": false,
      "t": 105246.21937500022,
      "d": 131.57833333333838,
      "v": 80
    },
    {
      "midi": 57,
      "hit": false,
      "t": 105262.66666666689,
      "d": 131.57833333333838,
      "v": 80
    },
    {
      "midi": 61,
      "hit": false,
      "t": 105788.98000000023,
      "d": 131.57833333333838,
      "v": 100
    },
    {
      "midi": 57,
      "hit": false,
      "t": 105805.4272916669,
      "d": 131.57833333333838,
      "v": 100
    },
    {
      "midi": 64,
      "hit": false,
      "t": 105805.4272916669,
      "d": 131.57833333333838,
      "v": 100
    },
    {
      "midi": 61,
      "hit": false,
      "t": 106298.84604166691,
      "d": 131.57833333333838,
      "v": 73
    },
    {
      "midi": 57,
      "hit": false,
      "t": 106315.29333333358,
      "d": 131.57833333333838,
      "v": 73
    },
    {
      "midi": 64,
      "hit": false,
      "t": 106315.29333333358,
      "d": 131.57833333333838,
      "v": 73
    },
    {
      "midi": 57,
      "hit": false,
      "t": 106825.15937500025,
      "d": 131.57833333333838,
      "v": 80
    },
    {
      "midi": 64,
      "hit": false,
      "t": 106825.15937500025,
      "d": 131.57833333333838,
      "v": 80
    },
    {
      "midi": 61,
      "hit": false,
      "t": 106841.60666666692,
      "d": 131.57833333333838,
      "v": 80
    },
    {
      "midi": 35,
      "hit": false,
      "t": 107351.47270833359,
      "d": 3141.4327083333774,
      "v": 100
    },
    {
      "midi": 59,
      "hit": false,
      "t": 107367.92000000026,
      "d": 131.57833333333838,
      "v": 100
    },
    {
      "midi": 66,
      "hit": false,
      "t": 107367.92000000026,
      "d": 131.57833333333838,
      "v": 100
    },
    {
      "midi": 57,
      "hit": false,
      "t": 107384.36729166693,
      "d": 131.57833333333838,
      "v": 100
    },
    {
      "midi": 63,
      "hit": false,
      "t": 107384.36729166693,
      "d": 131.57833333333838,
      "v": 100
    },
    {
      "midi": 57,
      "hit": false,
      "t": 107894.2333333336,
      "d": 131.57833333332383,
      "v": 73
    },
    {
      "midi": 59,
      "hit": false,
      "t": 107927.12791666693,
      "d": 131.57833333332383,
      "v": 73
    },
    {
      "midi": 63,
      "hit": false,
      "t": 107927.12791666693,
      "d": 131.57833333332383,
      "v": 73
    },
    {
      "midi": 66,
      "hit": false,
      "t": 107927.12791666693,
      "d": 131.57833333332383,
      "v": 73
    },
    {
      "midi": 63,
      "hit": false,
      "t": 108404.09937500025,
      "d": 131.57833333333838,
      "v": 80
    },
    {
      "midi": 57,
      "hit": false,
      "t": 108420.54666666692,
      "d": 131.57833333333838,
      "v": 80
    },
    {
      "midi": 66,
      "hit": false,
      "t": 108420.54666666692,
      "d": 131.57833333333838,
      "v": 80
    },
    {
      "midi": 59,
      "hit": false,
      "t": 108436.9939583336,
      "d": 131.57833333333838,
      "v": 80
    },
    {
      "midi": 57,
      "hit": false,
      "t": 108930.4127083336,
      "d": 131.57833333333838,
      "v": 100
    },
    {
      "midi": 59,
      "hit": false,
      "t": 108930.4127083336,
      "d": 131.57833333333838,
      "v": 100
    },
    {
      "midi": 63,
      "hit": false,
      "t": 108930.4127083336,
      "d": 131.57833333333838,
      "v": 100
    },
    {
      "midi": 66,
      "hit": false,
      "t": 108930.4127083336,
      "d": 131.57833333333838,
      "v": 100
    },
    {
      "midi": 57,
      "hit": false,
      "t": 109456.72604166695,
      "d": 131.57833333333838,
      "v": 73
    },
    {
      "midi": 66,
      "hit": false,
      "t": 109456.72604166695,
      "d": 131.57833333333838,
      "v": 73
    },
    {
      "midi": 59,
      "hit": false,
      "t": 109473.17333333362,
      "d": 131.57833333333838,
      "v": 73
    },
    {
      "midi": 63,
      "hit": false,
      "t": 109489.62062500029,
      "d": 131.57833333333838,
      "v": 73
    },
    {
      "midi": 63,
      "hit": false,
      "t": 109999.48666666695,
      "d": 115.13104166666744,
      "v": 80
    },
    {
      "midi": 66,
      "hit": false,
      "t": 109999.48666666695,
      "d": 115.13104166666744,
      "v": 80
    },
    {
      "midi": 57,
      "hit": false,
      "t": 109999.48666666695,
      "d": 131.57833333333838,
      "v": 80
    },
    {
      "midi": 59,
      "hit": false,
      "t": 109999.48666666695,
      "d": 131.57833333333838,
      "v": 80
    },
    {
      "midi": 47,
      "hit": false,
      "t": 110509.35270833364,
      "d": 3141.4327083333774,
      "v": 100
    },
    {
      "midi": 68,
      "hit": false,
      "t": 110525.80000000031,
      "d": 131.57833333333838,
      "v": 100
    },
    {
      "midi": 59,
      "hit": false,
      "t": 110542.24729166698,
      "d": 131.57833333333838,
      "v": 100
    },
    {
      "midi": 64,
      "hit": false,
      "t": 110542.24729166698,
      "d": 131.57833333333838,
      "v": 100
    },
    {
      "midi": 59,
      "hit": false,
      "t": 111035.66604166699,
      "d": 131.57833333333838,
      "v": 73
    },
    {
      "midi": 64,
      "hit": false,
      "t": 111035.66604166699,
      "d": 131.57833333333838,
      "v": 73
    },
    {
      "midi": 68,
      "hit": false,
      "t": 111052.11333333366,
      "d": 131.57833333333838,
      "v": 73
    },
    {
      "midi": 59,
      "hit": false,
      "t": 111578.426666667,
      "d": 131.57833333333838,
      "v": 80
    },
    {
      "midi": 64,
      "hit": false,
      "t": 111578.426666667,
      "d": 131.57833333333838,
      "v": 80
    },
    {
      "midi": 68,
      "hit": false,
      "t": 111578.426666667,
      "d": 131.57833333333838,
      "v": 80
    },
    {
      "midi": 64,
      "hit": false,
      "t": 112088.29270833367,
      "d": 131.57833333333838,
      "v": 100
    },
    {
      "midi": 59,
      "hit": false,
      "t": 112104.74000000034,
      "d": 131.57833333333838,
      "v": 100
    },
    {
      "midi": 68,
      "hit": false,
      "t": 112104.74000000034,
      "d": 131.57833333333838,
      "v": 100
    },
    {
      "midi": 59,
      "hit": false,
      "t": 112614.60604166701,
      "d": 131.57833333333838,
      "v": 73
    },
    {
      "midi": 64,
      "hit": false,
      "t": 112614.60604166701,
      "d": 131.57833333333838,
      "v": 73
    },
    {
      "midi": 68,
      "hit": false,
      "t": 112614.60604166701,
      "d": 131.57833333333838,
      "v": 73
    },
    {
      "midi": 59,
      "hit": false,
      "t": 113140.91937500035,
      "d": 131.57833333333838,
      "v": 80
    },
    {
      "midi": 68,
      "hit": false,
      "t": 113157.36666666702,
      "d": 131.57833333333838,
      "v": 80
    },
    {
      "midi": 64,
      "hit": false,
      "t": 113190.26125000035,
      "d": 131.57833333333838,
      "v": 80
    },
    {
      "midi": 57,
      "hit": false,
      "t": 113667.23270833369,
      "d": 131.57833333333838,
      "v": 100
    },
    {
      "midi": 61,
      "hit": false,
      "t": 113667.23270833369,
      "d": 131.57833333333838,
      "v": 100
    },
    {
      "midi": 64,
      "hit": false,
      "t": 113683.68000000036,
      "d": 131.57833333333838,
      "v": 100
    },
    {
      "midi": 45,
      "hit": false,
      "t": 113683.68000000036,
      "d": 2351.9627083333617,
      "v": 100
    },
    {
      "midi": 61,
      "hit": false,
      "t": 114193.54604166702,
      "d": 131.57833333333838,
      "v": 73
    },
    {
      "midi": 57,
      "hit": false,
      "t": 114209.9933333337,
      "d": 131.57833333333838,
      "v": 73
    },
    {
      "midi": 64,
      "hit": false,
      "t": 114209.9933333337,
      "d": 131.57833333333838,
      "v": 73
    },
    {
      "midi": 57,
      "hit": false,
      "t": 114736.30666666703,
      "d": 131.57833333333838,
      "v": 80
    },
    {
      "midi": 61,
      "hit": false,
      "t": 114736.30666666703,
      "d": 131.57833333333838,
      "v": 80
    },
    {
      "midi": 64,
      "hit": false,
      "t": 114736.30666666703,
      "d": 131.57833333333838,
      "v": 80
    },
    {
      "midi": 57,
      "hit": false,
      "t": 115246.1727083337,
      "d": 131.57833333333838,
      "v": 100
    },
    {
      "midi": 64,
      "hit": false,
      "t": 115262.62000000037,
      "d": 131.57833333333838,
      "v": 100
    },
    {
      "midi": 61,
      "hit": false,
      "t": 115279.06729166704,
      "d": 131.57833333333838,
      "v": 100
    },
    {
      "midi": 57,
      "hit": false,
      "t": 115788.93333333371,
      "d": 131.57833333333838,
      "v": 73
    },
    {
      "midi": 61,
      "hit": false,
      "t": 115788.93333333371,
      "d": 131.57833333333838,
      "v": 73
    },
    {
      "midi": 64,
      "hit": false,
      "t": 115788.93333333371,
      "d": 131.57833333333838,
      "v": 73
    },
    {
      "midi": 57,
      "hit": false,
      "t": 116298.79937500038,
      "d": 131.57833333333838,
      "v": 80
    },
    {
      "midi": 61,
      "hit": false,
      "t": 116298.79937500038,
      "d": 131.57833333333838,
      "v": 80
    },
    {
      "midi": 45,
      "hit": false,
      "t": 116315.24666666705,
      "d": 131.57833333333838,
      "v": 80
    },
    {
      "midi": 64,
      "hit": false,
      "t": 116315.24666666705,
      "d": 131.57833333333838,
      "v": 80
    },
    {
      "midi": 45,
      "hit": false,
      "t": 116825.11270833372,
      "d": 2351.962708333376,
      "v": 100
    },
    {
      "midi": 61,
      "hit": false,
      "t": 116841.56000000039,
      "d": 148.0256250000093,
      "v": 100
    },
    {
      "midi": 64,
      "hit": false,
      "t": 116841.56000000039,
      "d": 148.0256250000093,
      "v": 100
    },
    {
      "midi": 55,
      "hit": false,
      "t": 116858.00729166706,
      "d": 148.0256250000093,
      "v": 100
    },
    {
      "midi": 61,
      "hit": false,
      "t": 117384.3206250004,
      "d": 115.13104166666744,
      "v": 73
    },
    {
      "midi": 55,
      "hit": false,
      "t": 117384.3206250004,
      "d": 131.57833333333838,
      "v": 73
    },
    {
      "midi": 64,
      "hit": false,
      "t": 117384.3206250004,
      "d": 131.57833333333838,
      "v": 73
    },
    {
      "midi": 64,
      "hit": false,
      "t": 117877.73937500041,
      "d": 131.57833333333838,
      "v": 80
    },
    {
      "midi": 55,
      "hit": false,
      "t": 117894.18666666708,
      "d": 131.57833333333838,
      "v": 80
    },
    {
      "midi": 61,
      "hit": false,
      "t": 117894.18666666708,
      "d": 131.57833333333838,
      "v": 80
    },
    {
      "midi": 61,
      "hit": false,
      "t": 118404.05270833375,
      "d": 131.57833333333838,
      "v": 100
    },
    {
      "midi": 55,
      "hit": false,
      "t": 118420.50000000042,
      "d": 131.57833333333838,
      "v": 100
    },
    {
      "midi": 64,
      "hit": false,
      "t": 118420.50000000042,
      "d": 131.57833333333838,
      "v": 100
    },
    {
      "midi": 55,
      "hit": false,
      "t": 118930.36604166709,
      "d": 131.57833333333838,
      "v": 73
    },
    {
      "midi": 61,
      "hit": false,
      "t": 118930.36604166709,
      "d": 131.57833333333838,
      "v": 73
    },
    {
      "midi": 64,
      "hit": false,
      "t": 118946.81333333376,
      "d": 131.57833333333838,
      "v": 73
    },
    {
      "midi": 55,
      "hit": false,
      "t": 119473.1266666671,
      "d": 131.57833333333838,
      "v": 80
    },
    {
      "midi": 61,
      "hit": false,
      "t": 119473.1266666671,
      "d": 131.57833333333838,
      "v": 80
    },
    {
      "midi": 64,
      "hit": false,
      "t": 119473.1266666671,
      "d": 131.57833333333838,
      "v": 80
    },
    {
      "midi": 45,
      "hit": false,
      "t": 119473.1266666671,
      "d": 526.313333333339,
      "v": 80
    },
    {
      "midi": 57,
      "hit": false,
      "t": 119982.99270833377,
      "d": 131.57833333333838,
      "v": 100
    },
    {
      "midi": 62,
      "hit": false,
      "t": 119999.44000000044,
      "d": 131.57833333333838,
      "v": 100
    },
    {
      "midi": 38,
      "hit": false,
      "t": 119999.44000000044,
      "d": 2615.119375000024,
      "v": 100
    },
    {
      "midi": 66,
      "hit": false,
      "t": 120015.88729166711,
      "d": 131.57833333333838,
      "v": 100
    },
    {
      "midi": 62,
      "hit": false,
      "t": 120525.75333333378,
      "d": 115.13104166666744,
      "v": 73
    },
    {
      "midi": 57,
      "hit": false,
      "t": 120525.75333333378,
      "d": 131.57833333333838,
      "v": 73
    },
    {
      "midi": 66,
      "hit": false,
      "t": 120525.75333333378,
      "d": 131.57833333333838,
      "v": 73
    },
    {
      "midi": 57,
      "hit": false,
      "t": 121035.61937500045,
      "d": 131.57833333333838,
      "v": 80
    },
    {
      "midi": 62,
      "hit": false,
      "t": 121035.61937500045,
      "d": 131.57833333333838,
      "v": 80
    },
    {
      "midi": 66,
      "hit": false,
      "t": 121052.06666666712,
      "d": 131.57833333333838,
      "v": 80
    },
    {
      "midi": 66,
      "hit": false,
      "t": 121561.93270833378,
      "d": 131.57833333333838,
      "v": 100
    },
    {
      "midi": 57,
      "hit": false,
      "t": 121578.38000000046,
      "d": 131.57833333333838,
      "v": 100
    },
    {
      "midi": 62,
      "hit": false,
      "t": 121578.38000000046,
      "d": 131.57833333333838,
      "v": 100
    },
    {
      "midi": 62,
      "hit": false,
      "t": 122088.24604166712,
      "d": 131.57833333333838,
      "v": 73
    },
    {
      "midi": 66,
      "hit": false,
      "t": 122088.24604166712,
      "d": 131.57833333333838,
      "v": 73
    },
    {
      "midi": 57,
      "hit": false,
      "t": 122104.6933333338,
      "d": 131.57833333333838,
      "v": 73
    },
    {
      "midi": 57,
      "hit": false,
      "t": 122647.45395833379,
      "d": 115.13104166666744,
      "v": 80
    },
    {
      "midi": 62,
      "hit": false,
      "t": 122647.45395833379,
      "d": 115.13104166666744,
      "v": 80
    },
    {
      "midi": 66,
      "hit": false,
      "t": 122647.45395833379,
      "d": 115.13104166666744,
      "v": 80
    },
    {
      "midi": 45,
      "hit": false,
      "t": 122647.45395833379,
      "d": 493.4187499999971,
      "v": 80
    },
    {
      "midi": 57,
      "hit": false,
      "t": 123140.87270833379,
      "d": 131.57833333333838,
      "v": 100
    },
    {
      "midi": 62,
      "hit": false,
      "t": 123140.87270833379,
      "d": 131.57833333333838,
      "v": 100
    },
    {
      "midi": 66,
      "hit": false,
      "t": 123157.32000000046,
      "d": 131.57833333333838,
      "v": 100
    },
    {
      "midi": 50,
      "hit": false,
      "t": 123157.32000000046,
      "d": 3141.432708333363,
      "v": 100
    },
    {
      "midi": 62,
      "hit": false,
      "t": 123667.18604166713,
      "d": 131.57833333332383,
      "v": 73
    },
    {
      "midi": 57,
      "hit": false,
      "t": 123700.08062500045,
      "d": 131.57833333332383,
      "v": 73
    },
    {
      "midi": 66,
      "hit": false,
      "t": 123700.08062500045,
      "d": 131.57833333332383,
      "v": 73
    },
    {
      "midi": 57,
      "hit": false,
      "t": 124193.49937500045,
      "d": 131.57833333333838,
      "v": 80
    },
    {
      "midi": 62,
      "hit": false,
      "t": 124193.49937500045,
      "d": 131.57833333333838,
      "v": 80
    },
    {
      "midi": 66,
      "hit": false,
      "t": 124209.94666666712,
      "d": 131.57833333333838,
      "v": 80
    },
    {
      "midi": 62,
      "hit": false,
      "t": 124719.81270833379,
      "d": 131.57833333333838,
      "v": 100
    },
    {
      "midi": 66,
      "hit": false,
      "t": 124736.26000000046,
      "d": 131.57833333333838,
      "v": 100
    },
    {
      "midi": 57,
      "hit": false,
      "t": 124752.70729166713,
      "d": 131.57833333333838,
      "v": 100
    },
    {
      "midi": 57,
      "hit": false,
      "t": 125246.12604166714,
      "d": 131.57833333333838,
      "v": 73
    },
    {
      "midi": 62,
      "hit": false,
      "t": 125246.12604166714,
      "d": 131.57833333333838,
      "v": 73
    },
    {
      "midi": 66,
      "hit": false,
      "t": 125262.57333333381,
      "d": 131.57833333333838,
      "v": 73
    },
    {
      "midi": 57,
      "hit": false,
      "t": 125788.88666666715,
      "d": 131.57833333333838,
      "v": 80
    },
    {
      "midi": 62,
      "hit": false,
      "t": 125788.88666666715,
      "d": 131.57833333333838,
      "v": 80
    },
    {
      "midi": 66,
      "hit": false,
      "t": 125788.88666666715,
      "d": 131.57833333333838,
      "v": 80
    },
    {
      "midi": 57,
      "hit": false,
      "t": 126298.75270833382,
      "d": 131.57833333333838,
      "v": 100
    },
    {
      "midi": 62,
      "hit": false,
      "t": 126298.75270833382,
      "d": 131.57833333333838,
      "v": 100
    },
    {
      "midi": 65,
      "hit": false,
      "t": 126298.75270833382,
      "d": 131.57833333333838,
      "v": 100
    },
    {
      "midi": 38,
      "hit": false,
      "t": 126298.75270833382,
      "d": 2615.1193750000384,
      "v": 100
    },
    {
      "midi": 62,
      "hit": false,
      "t": 126825.06604166716,
      "d": 131.57833333333838,
      "v": 73
    },
    {
      "midi": 65,
      "hit": false,
      "t": 126825.06604166716,
      "d": 131.57833333333838,
      "v": 73
    },
    {
      "midi": 57,
      "hit": false,
      "t": 126841.51333333383,
      "d": 131.57833333333838,
      "v": 73
    },
    {
      "midi": 57,
      "hit": false,
      "t": 127351.3793750005,
      "d": 131.57833333333838,
      "v": 80
    },
    {
      "midi": 62,
      "hit": false,
      "t": 127351.3793750005,
      "d": 131.57833333333838,
      "v": 80
    },
    {
      "midi": 65,
      "hit": false,
      "t": 127367.82666666717,
      "d": 131.57833333333838,
      "v": 80
    },
    {
      "midi": 57,
      "hit": false,
      "t": 127894.14000000051,
      "d": 131.57833333333838,
      "v": 100
    },
    {
      "midi": 62,
      "hit": false,
      "t": 127894.14000000051,
      "d": 131.57833333333838,
      "v": 100
    },
    {
      "midi": 65,
      "hit": false,
      "t": 127894.14000000051,
      "d": 131.57833333333838,
      "v": 100
    },
    {
      "midi": 65,
      "hit": false,
      "t": 128404.00604166718,
      "d": 131.57833333333838,
      "v": 73
    },
    {
      "midi": 57,
      "hit": false,
      "t": 128420.45333333385,
      "d": 131.57833333333838,
      "v": 73
    },
    {
      "midi": 62,
      "hit": false,
      "t": 128420.45333333385,
      "d": 131.57833333333838,
      "v": 73
    },
    {
      "midi": 57,
      "hit": false,
      "t": 128946.76666666719,
      "d": 131.57833333333838,
      "v": 80
    },
    {
      "midi": 62,
      "hit": false,
      "t": 128946.76666666719,
      "d": 131.57833333333838,
      "v": 80
    },
    {
      "midi": 65,
      "hit": false,
      "t": 128963.21395833386,
      "d": 131.57833333333838,
      "v": 80
    },
    {
      "midi": 45,
      "hit": false,
      "t": 128963.21395833386,
      "d": 493.41875000001164,
      "v": 80
    },
    {
      "midi": 57,
      "hit": false,
      "t": 129456.63270833387,
      "d": 131.57833333332383,
      "v": 100
    },
    {
      "midi": 50,
      "hit": false,
      "t": 129456.63270833387,
      "d": 3141.4327083333046,
      "v": 100
    },
    {
      "midi": 62,
      "hit": false,
      "t": 129489.5272916672,
      "d": 131.57833333332383,
      "v": 100
    },
    {
      "midi": 65,
      "hit": false,
      "t": 129489.5272916672,
      "d": 131.57833333332383,
      "v": 100
    },
    {
      "midi": 57,
      "hit": false,
      "t": 129999.39333333385,
      "d": 131.57833333333838,
      "v": 73
    },
    {
      "midi": 62,
      "hit": false,
      "t": 129999.39333333385,
      "d": 131.57833333333838,
      "v": 73
    },
    {
      "midi": 65,
      "hit": false,
      "t": 129999.39333333385,
      "d": 131.57833333333838,
      "v": 73
    },
    {
      "midi": 62,
      "hit": false,
      "t": 130509.25937500052,
      "d": 131.57833333332383,
      "v": 80
    },
    {
      "midi": 65,
      "hit": false,
      "t": 130509.25937500052,
      "d": 131.57833333332383,
      "v": 80
    },
    {
      "midi": 57,
      "hit": false,
      "t": 130542.15395833385,
      "d": 131.57833333332383,
      "v": 80
    },
    {
      "midi": 57,
      "hit": false,
      "t": 131068.46729166717,
      "d": 131.57833333332383,
      "v": 100
    },
    {
      "midi": 65,
      "hit": false,
      "t": 131068.46729166717,
      "d": 131.57833333332383,
      "v": 100
    },
    {
      "midi": 62,
      "hit": false,
      "t": 131084.91458333383,
      "d": 131.57833333333838,
      "v": 100
    },
    {
      "midi": 57,
      "hit": false,
      "t": 131578.33333333384,
      "d": 131.57833333333838,
      "v": 73
    },
    {
      "midi": 62,
      "hit": false,
      "t": 131578.33333333384,
      "d": 131.57833333333838,
      "v": 73
    },
    {
      "midi": 65,
      "hit": false,
      "t": 131578.33333333384,
      "d": 131.57833333333838,
      "v": 73
    },
    {
      "midi": 57,
      "hit": false,
      "t": 132121.09395833383,
      "d": 148.0256250000093,
      "v": 80
    },
    {
      "midi": 62,
      "hit": false,
      "t": 132137.5412500005,
      "d": 131.57833333333838,
      "v": 80
    },
    {
      "midi": 65,
      "hit": false,
      "t": 132137.5412500005,
      "d": 131.57833333333838,
      "v": 80
    },
    {
      "midi": 57,
      "hit": false,
      "t": 132630.96000000052,
      "d": 131.57833333333838,
      "v": 100
    },
    {
      "midi": 61,
      "hit": false,
      "t": 132630.96000000052,
      "d": 131.57833333333838,
      "v": 100
    },
    {
      "midi": 64,
      "hit": false,
      "t": 132647.4072916672,
      "d": 131.57833333333838,
      "v": 100
    },
    {
      "midi": 33,
      "hit": false,
      "t": 132647.4072916672,
      "d": 2598.6720833334257,
      "v": 100
    },
    {
      "midi": 57,
      "hit": false,
      "t": 133157.27333333387,
      "d": 115.13104166666744,
      "v": 73
    },
    {
      "midi": 61,
      "hit": false,
      "t": 133157.27333333387,
      "d": 115.13104166666744,
      "v": 73
    },
    {
      "midi": 64,
      "hit": false,
      "t": 133157.27333333387,
      "d": 131.57833333333838,
      "v": 73
    },
    {
      "midi": 57,
      "hit": false,
      "t": 133667.13937500055,
      "d": 131.57833333333838,
      "v": 80
    },
    {
      "midi": 61,
      "hit": false,
      "t": 133683.58666666722,
      "d": 131.57833333333838,
      "v": 80
    },
    {
      "midi": 64,
      "hit": false,
      "t": 133683.58666666722,
      "d": 131.57833333333838,
      "v": 80
    },
    {
      "midi": 57,
      "hit": false,
      "t": 134193.4527083339,
      "d": 131.57833333333838,
      "v": 100
    },
    {
      "midi": 61,
      "hit": false,
      "t": 134193.4527083339,
      "d": 131.57833333333838,
      "v": 100
    },
    {
      "midi": 64,
      "hit": false,
      "t": 134209.90000000058,
      "d": 131.57833333333838,
      "v": 100
    },
    {
      "midi": 57,
      "hit": false,
      "t": 134719.76604166726,
      "d": 131.57833333333838,
      "v": 73
    },
    {
      "midi": 61,
      "hit": false,
      "t": 134719.76604166726,
      "d": 131.57833333333838,
      "v": 73
    },
    {
      "midi": 64,
      "hit": false,
      "t": 134752.6606250006,
      "d": 131.57833333333838,
      "v": 73
    },
    {
      "midi": 57,
      "hit": false,
      "t": 135246.0793750006,
      "d": 131.57833333333838,
      "v": 80
    },
    {
      "midi": 61,
      "hit": false,
      "t": 135246.0793750006,
      "d": 131.57833333333838,
      "v": 80
    },
    {
      "midi": 64,
      "hit": false,
      "t": 135262.52666666728,
      "d": 131.57833333333838,
      "v": 80
    },
    {
      "midi": 40,
      "hit": false,
      "t": 135262.52666666728,
      "d": 509.8660416666826,
      "v": 80
    },
    {
      "midi": 40,
      "hit": false,
      "t": 135772.39270833397,
      "d": 3141.432708333421,
      "v": 100
    },
    {
      "midi": 60,
      "hit": false,
      "t": 135788.84000000064,
      "d": 131.57833333333838,
      "v": 100
    },
    {
      "midi": 56,
      "hit": false,
      "t": 135805.2872916673,
      "d": 131.57833333333838,
      "v": 100
    },
    {
      "midi": 64,
      "hit": false,
      "t": 135805.2872916673,
      "d": 131.57833333333838,
      "v": 100
    },
    {
      "midi": 56,
      "hit": false,
      "t": 136298.70604166732,
      "d": 131.57833333333838,
      "v": 73
    },
    {
      "midi": 64,
      "hit": false,
      "t": 136298.70604166732,
      "d": 131.57833333333838,
      "v": 73
    },
    {
      "midi": 60,
      "hit": false,
      "t": 136315.153333334,
      "d": 131.57833333333838,
      "v": 73
    },
    {
      "midi": 56,
      "hit": false,
      "t": 136825.01937500067,
      "d": 131.57833333333838,
      "v": 80
    },
    {
      "midi": 60,
      "hit": false,
      "t": 136825.01937500067,
      "d": 131.57833333333838,
      "v": 80
    },
    {
      "midi": 64,
      "hit": false,
      "t": 136841.46666666734,
      "d": 131.57833333333838,
      "v": 80
    },
    {
      "midi": 56,
      "hit": false,
      "t": 137367.78000000067,
      "d": 148.0256250000093,
      "v": 100
    },
    {
      "midi": 60,
      "hit": false,
      "t": 137384.22729166734,
      "d": 115.13104166666744,
      "v": 100
    },
    {
      "midi": 64,
      "hit": false,
      "t": 137384.22729166734,
      "d": 131.57833333333838,
      "v": 100
    },
    {
      "midi": 64,
      "hit": false,
      "t": 137877.64604166735,
      "d": 131.57833333333838,
      "v": 73
    },
    {
      "midi": 60,
      "hit": false,
      "t": 137894.09333333402,
      "d": 131.57833333333838,
      "v": 73
    },
    {
      "midi": 56,
      "hit": false,
      "t": 137926.98791666736,
      "d": 131.57833333333838,
      "v": 73
    },
    {
      "midi": 56,
      "hit": false,
      "t": 138436.85395833405,
      "d": 115.13104166666744,
      "v": 80
    },
    {
      "midi": 60,
      "hit": false,
      "t": 138436.85395833405,
      "d": 115.13104166666744,
      "v": 80
    },
    {
      "midi": 64,
      "hit": false,
      "t": 138436.85395833405,
      "d": 115.13104166666744,
      "v": 80
    },
    {
      "midi": 57,
      "hit": false,
      "t": 138946.72000000073,
      "d": 131.57833333333838,
      "v": 100
    },
    {
      "midi": 33,
      "hit": false,
      "t": 138946.72000000073,
      "d": 2615.1193750000675,
      "v": 100
    },
    {
      "midi": 61,
      "hit": false,
      "t": 138963.1672916674,
      "d": 131.57833333333838,
      "v": 100
    },
    {
      "midi": 64,
      "hit": false,
      "t": 138963.1672916674,
      "d": 131.57833333333838,
      "v": 100
    },
    {
      "midi": 57,
      "hit": false,
      "t": 139456.5860416674,
      "d": 131.57833333333838,
      "v": 73
    },
    {
      "midi": 64,
      "hit": false,
      "t": 139456.5860416674,
      "d": 131.57833333333838,
      "v": 73
    },
    {
      "midi": 61,
      "hit": false,
      "t": 139473.03333333408,
      "d": 131.57833333333838,
      "v": 73
    },
    {
      "midi": 57,
      "hit": false,
      "t": 139982.89937500076,
      "d": 131.57833333333838,
      "v": 80
    },
    {
      "midi": 64,
      "hit": false,
      "t": 139982.89937500076,
      "d": 131.57833333333838,
      "v": 80
    },
    {
      "midi": 61,
      "hit": false,
      "t": 139999.34666666744,
      "d": 131.57833333333838,
      "v": 80
    },
    {
      "midi": 57,
      "hit": false,
      "t": 140509.21270833412,
      "d": 131.57833333333838,
      "v": 100
    },
    {
      "midi": 61,
      "hit": false,
      "t": 140525.6600000008,
      "d": 131.57833333333838,
      "v": 100
    },
    {
      "midi": 64,
      "hit": false,
      "t": 140525.6600000008,
      "d": 131.57833333333838,
      "v": 100
    },
    {
      "midi": 57,
      "hit": false,
      "t": 141051.9733333341,
      "d": 148.0256250000093,
      "v": 73
    },
    {
      "midi": 61,
      "hit": false,
      "t": 141068.42062500078,
      "d": 115.13104166666744,
      "v": 73
    },
    {
      "midi": 64,
      "hit": false,
      "t": 141068.42062500078,
      "d": 131.57833333333838,
      "v": 73
    },
    {
      "midi": 57,
      "hit": false,
      "t": 141578.28666666747,
      "d": 115.13104166666744,
      "v": 80
    },
    {
      "midi": 64,
      "hit": false,
      "t": 141578.28666666747,
      "d": 115.13104166666744,
      "v": 80
    },
    {
      "midi": 61,
      "hit": false,
      "t": 141578.28666666747,
      "d": 131.57833333333838,
      "v": 80
    },
    {
      "midi": 40,
      "hit": false,
      "t": 141578.28666666747,
      "d": 509.8660416666826,
      "v": 80
    },
    {
      "midi": 57,
      "hit": false,
      "t": 142104.60000000082,
      "d": 148.0256250000093,
      "v": 100
    },
    {
      "midi": 67,
      "hit": false,
      "t": 142121.0472916675,
      "d": 115.13104166666744,
      "v": 100
    },
    {
      "midi": 61,
      "hit": false,
      "t": 142121.0472916675,
      "d": 131.57833333333838,
      "v": 100
    },
    {
      "midi": 64,
      "hit": false,
      "t": 142121.0472916675,
      "d": 131.57833333333838,
      "v": 100
    },
    {
      "midi": 45,
      "hit": false,
      "t": 142121.0472916675,
      "d": 3108.5381250001083,
      "v": 100
    },
    {
      "midi": 64,
      "hit": false,
      "t": 142614.4660416675,
      "d": 131.57833333333838,
      "v": 73
    },
    {
      "midi": 57,
      "hit": false,
      "t": 142630.91333333417,
      "d": 131.57833333333838,
      "v": 73
    },
    {
      "midi": 61,
      "hit": false,
      "t": 142630.91333333417,
      "d": 131.57833333333838,
      "v": 73
    },
    {
      "midi": 67,
      "hit": false,
      "t": 142630.91333333417,
      "d": 131.57833333333838,
      "v": 73
    },
    {
      "midi": 57,
      "hit": false,
      "t": 143140.77937500086,
      "d": 131.57833333333838,
      "v": 80
    },
    {
      "midi": 64,
      "hit": false,
      "t": 143140.77937500086,
      "d": 131.57833333333838,
      "v": 80
    },
    {
      "midi": 67,
      "hit": false,
      "t": 143140.77937500086,
      "d": 131.57833333333838,
      "v": 80
    },
    {
      "midi": 61,
      "hit": false,
      "t": 143157.22666666753,
      "d": 131.57833333333838,
      "v": 80
    },
    {
      "midi": 57,
      "hit": false,
      "t": 143667.0927083342,
      "d": 148.0256250000093,
      "v": 100
    },
    {
      "midi": 64,
      "hit": false,
      "t": 143699.98729166755,
      "d": 148.0256250000093,
      "v": 100
    },
    {
      "midi": 61,
      "hit": false,
      "t": 143716.43458333422,
      "d": 115.13104166666744,
      "v": 100
    },
    {
      "midi": 67,
      "hit": false,
      "t": 143716.43458333422,
      "d": 131.57833333333838,
      "v": 100
    },
    {
      "midi": 57,
      "hit": false,
      "t": 144209.85333333423,
      "d": 131.57833333333838,
      "v": 73
    },
    {
      "midi": 61,
      "hit": false,
      "t": 144209.85333333423,
      "d": 131.57833333333838,
      "v": 73
    },
    {
      "midi": 64,
      "hit": false,
      "t": 144209.85333333423,
      "d": 131.57833333333838,
      "v": 73
    },
    {
      "midi": 67,
      "hit": false,
      "t": 144209.85333333423,
      "d": 131.57833333333838,
      "v": 73
    },
    {
      "midi": 61,
      "hit": false,
      "t": 144719.71937500092,
      "d": 131.57833333333838,
      "v": 80
    },
    {
      "midi": 64,
      "hit": false,
      "t": 144719.71937500092,
      "d": 131.57833333333838,
      "v": 80
    },
    {
      "midi": 57,
      "hit": false,
      "t": 144736.1666666676,
      "d": 131.57833333333838,
      "v": 80
    },
    {
      "midi": 67,
      "hit": false,
      "t": 144736.1666666676,
      "d": 131.57833333333838,
      "v": 80
    },
    {
      "midi": 57,
      "hit": false,
      "t": 145262.48000000094,
      "d": 131.57833333333838,
      "v": 100
    },
    {
      "midi": 62,
      "hit": false,
      "t": 145262.48000000094,
      "d": 131.57833333333838,
      "v": 100
    },
    {
      "midi": 66,
      "hit": false,
      "t": 145262.48000000094,
      "d": 131.57833333333838,
      "v": 100
    },
    {
      "midi": 38,
      "hit": false,
      "t": 145262.48000000094,
      "d": 2631.5666666667385,
      "v": 100
    },
    {
      "midi": 62,
      "hit": false,
      "t": 145772.34604166762,
      "d": 131.57833333333838,
      "v": 73
    },
    {
      "midi": 57,
      "hit": false,
      "t": 145788.7933333343,
      "d": 131.57833333333838,
      "v": 73
    },
    {
      "midi": 66,
      "hit": false,
      "t": 145788.7933333343,
      "d": 131.57833333333838,
      "v": 73
    },
    {
      "midi": 57,
      "hit": false,
      "t": 146315.10666666762,
      "d": 131.57833333333838,
      "v": 80
    },
    {
      "midi": 62,
      "hit": false,
      "t": 146315.10666666762,
      "d": 131.57833333333838,
      "v": 80
    },
    {
      "midi": 66,
      "hit": false,
      "t": 146315.10666666762,
      "d": 131.57833333333838,
      "v": 80
    },
    {
      "midi": 57,
      "hit": false,
      "t": 146824.9727083343,
      "d": 131.57833333333838,
      "v": 100
    },
    {
      "midi": 62,
      "hit": false,
      "t": 146841.42000000097,
      "d": 131.57833333333838,
      "v": 100
    },
    {
      "midi": 66,
      "hit": false,
      "t": 146857.86729166764,
      "d": 131.57833333333838,
      "v": 100
    },
    {
      "midi": 57,
      "hit": false,
      "t": 147367.73333333433,
      "d": 131.57833333333838,
      "v": 73
    },
    {
      "midi": 62,
      "hit": false,
      "t": 147400.62791666767,
      "d": 131.57833333333838,
      "v": 73
    },
    {
      "midi": 66,
      "hit": false,
      "t": 147400.62791666767,
      "d": 131.57833333333838,
      "v": 73
    },
    {
      "midi": 57,
      "hit": false,
      "t": 147894.04666666768,
      "d": 131.57833333333838,
      "v": 80
    },
    {
      "midi": 62,
      "hit": false,
      "t": 147894.04666666768,
      "d": 131.57833333333838,
      "v": 80
    },
    {
      "midi": 66,
      "hit": false,
      "t": 147894.04666666768,
      "d": 131.57833333333838,
      "v": 80
    },
    {
      "midi": 45,
      "hit": false,
      "t": 147894.04666666768,
      "d": 509.8660416666826,
      "v": 80
    },
    {
      "midi": 57,
      "hit": false,
      "t": 148403.91270833436,
      "d": 131.57833333333838,
      "v": 100
    },
    {
      "midi": 66,
      "hit": false,
      "t": 148403.91270833436,
      "d": 131.57833333333838,
      "v": 100
    },
    {
      "midi": 62,
      "hit": false,
      "t": 148436.8072916677,
      "d": 115.13104166666744,
      "v": 100
    },
    {
      "midi": 50,
      "hit": false,
      "t": 148436.8072916677,
      "d": 3141.4327083333337,
      "v": 100
    },
    {
      "midi": 66,
      "hit": false,
      "t": 148930.22604166772,
      "d": 131.57833333333838,
      "v": 73
    },
    {
      "midi": 57,
      "hit": false,
      "t": 148946.6733333344,
      "d": 131.57833333333838,
      "v": 73
    },
    {
      "midi": 62,
      "hit": false,
      "t": 148946.6733333344,
      "d": 131.57833333333838,
      "v": 73
    },
    {
      "midi": 57,
      "hit": false,
      "t": 149472.9866666677,
      "d": 131.57833333333838,
      "v": 80
    },
    {
      "midi": 62,
      "hit": false,
      "t": 149472.9866666677,
      "d": 131.57833333333838,
      "v": 80
    },
    {
      "midi": 66,
      "hit": false,
      "t": 149472.9866666677,
      "d": 131.57833333333838,
      "v": 80
    },
    {
      "midi": 57,
      "hit": false,
      "t": 149999.30000000104,
      "d": 131.57833333333838,
      "v": 100
    },
    {
      "midi": 62,
      "hit": false,
      "t": 149999.30000000104,
      "d": 131.57833333333838,
      "v": 100
    },
    {
      "midi": 66,
      "hit": false,
      "t": 149999.30000000104,
      "d": 131.57833333333838,
      "v": 100
    },
    {
      "midi": 57,
      "hit": false,
      "t": 150509.16604166772,
      "d": 131.57833333333838,
      "v": 73
    },
    {
      "midi": 62,
      "hit": false,
      "t": 150509.16604166772,
      "d": 131.57833333333838,
      "v": 73
    },
    {
      "midi": 66,
      "hit": false,
      "t": 150525.6133333344,
      "d": 131.57833333333838,
      "v": 73
    },
    {
      "midi": 57,
      "hit": false,
      "t": 151051.9266666677,
      "d": 131.57833333333838,
      "v": 80
    },
    {
      "midi": 62,
      "hit": false,
      "t": 151051.9266666677,
      "d": 131.57833333333838,
      "v": 80
    },
    {
      "midi": 66,
      "hit": false,
      "t": 151051.9266666677,
      "d": 131.57833333333838,
      "v": 80
    },
    {
      "midi": 62,
      "hit": false,
      "t": 151578.24000000104,
      "d": 115.13104166666744,
      "v": 100
    },
    {
      "midi": 57,
      "hit": false,
      "t": 151594.6872916677,
      "d": 115.13104166666744,
      "v": 100
    },
    {
      "midi": 65,
      "hit": false,
      "t": 151594.6872916677,
      "d": 115.13104166666744,
      "v": 100
    },
    {
      "midi": 38,
      "hit": false,
      "t": 151594.6872916677,
      "d": 2598.6720833333675,
      "v": 100
    },
    {
      "midi": 57,
      "hit": false,
      "t": 152104.55333333436,
      "d": 148.0256250000093,
      "v": 73
    },
    {
      "midi": 62,
      "hit": false,
      "t": 152121.00062500103,
      "d": 115.13104166666744,
      "v": 73
    },
    {
      "midi": 65,
      "hit": false,
      "t": 152121.00062500103,
      "d": 131.57833333333838,
      "v": 73
    },
    {
      "midi": 57,
      "hit": false,
      "t": 152614.41937500105,
      "d": 131.57833333333838,
      "v": 80
    },
    {
      "midi": 62,
      "hit": false,
      "t": 152614.41937500105,
      "d": 131.57833333333838,
      "v": 80
    },
    {
      "midi": 65,
      "hit": false,
      "t": 152614.41937500105,
      "d": 131.57833333333838,
      "v": 80
    },
    {
      "midi": 57,
      "hit": false,
      "t": 153157.18000000104,
      "d": 131.57833333333838,
      "v": 100
    },
    {
      "midi": 62,
      "hit": false,
      "t": 153157.18000000104,
      "d": 131.57833333333838,
      "v": 100
    },
    {
      "midi": 65,
      "hit": false,
      "t": 153157.18000000104,
      "d": 131.57833333333838,
      "v": 100
    },
    {
      "midi": 57,
      "hit": false,
      "t": 153667.04604166772,
      "d": 131.57833333333838,
      "v": 73
    },
    {
      "midi": 65,
      "hit": false,
      "t": 153667.04604166772,
      "d": 131.57833333333838,
      "v": 73
    },
    {
      "midi": 62,
      "hit": false,
      "t": 153699.94062500107,
      "d": 131.57833333333838,
      "v": 73
    },
    {
      "midi": 57,
      "hit": false,
      "t": 154193.35937500108,
      "d": 131.57833333333838,
      "v": 80
    },
    {
      "midi": 62,
      "hit": false,
      "t": 154193.35937500108,
      "d": 131.57833333333838,
      "v": 80
    },
    {
      "midi": 65,
      "hit": false,
      "t": 154193.35937500108,
      "d": 131.57833333333838,
      "v": 80
    },
    {
      "midi": 45,
      "hit": false,
      "t": 154209.80666666775,
      "d": 509.8660416666535,
      "v": 80
    },
    {
      "midi": 65,
      "hit": false,
      "t": 154719.6727083344,
      "d": 131.57833333333838,
      "v": 100
    },
    {
      "midi": 57,
      "hit": false,
      "t": 154736.12000000107,
      "d": 131.57833333333838,
      "v": 100
    },
    {
      "midi": 62,
      "hit": false,
      "t": 154736.12000000107,
      "d": 131.57833333333838,
      "v": 100
    },
    {
      "midi": 50,
      "hit": false,
      "t": 154752.56729166774,
      "d": 3141.432708333421,
      "v": 100
    },
    {
      "midi": 65,
      "hit": false,
      "t": 155245.98604166775,
      "d": 131.57833333333838,
      "v": 73
    },
    {
      "midi": 57,
      "hit": false,
      "t": 155262.43333333443,
      "d": 131.57833333333838,
      "v": 73
    },
    {
      "midi": 62,
      "hit": false,
      "t": 155262.43333333443,
      "d": 131.57833333333838,
      "v": 73
    },
    {
      "midi": 57,
      "hit": false,
      "t": 155772.2993750011,
      "d": 131.57833333333838,
      "v": 80
    },
    {
      "midi": 62,
      "hit": false,
      "t": 155772.2993750011,
      "d": 131.57833333333838,
      "v": 80
    },
    {
      "midi": 65,
      "hit": false,
      "t": 155788.74666666778,
      "d": 131.57833333333838,
      "v": 80
    },
    {
      "midi": 65,
      "hit": false,
      "t": 156298.61270833446,
      "d": 131.57833333333838,
      "v": 100
    },
    {
      "midi": 57,
      "hit": false,
      "t": 156315.06000000113,
      "d": 131.57833333333838,
      "v": 100
    },
    {
      "midi": 62,
      "hit": false,
      "t": 156315.06000000113,
      "d": 131.57833333333838,
      "v": 100
    },
    {
      "midi": 57,
      "hit": false,
      "t": 156824.92604166782,
      "d": 131.57833333333838,
      "v": 73
    },
    {
      "midi": 62,
      "hit": false,
      "t": 156841.3733333345,
      "d": 131.57833333333838,
      "v": 73
    },
    {
      "midi": 65,
      "hit": false,
      "t": 156841.3733333345,
      "d": 131.57833333333838,
      "v": 73
    },
    {
      "midi": 57,
      "hit": false,
      "t": 157367.6866666678,
      "d": 131.57833333333838,
      "v": 80
    },
    {
      "midi": 62,
      "hit": false,
      "t": 157367.6866666678,
      "d": 131.57833333333838,
      "v": 80
    },
    {
      "midi": 65,
      "hit": false,
      "t": 157367.6866666678,
      "d": 131.57833333333838,
      "v": 80
    },
    {
      "midi": 66,
      "hit": false,
      "t": 157877.5527083345,
      "d": 131.57833333333838,
      "v": 100
    },
    {
      "midi": 57,
      "hit": false,
      "t": 157910.44729166784,
      "d": 98.68374999999651,
      "v": 100
    },
    {
      "midi": 35,
      "hit": false,
      "t": 157910.44729166784,
      "d": 2598.6720833333966,
      "v": 100
    },
    {
      "midi": 63,
      "hit": false,
      "t": 157926.8945833345,
      "d": 115.13104166666744,
      "v": 100
    },
    {
      "midi": 66,
      "hit": false,
      "t": 158403.86604166785,
      "d": 131.57833333333838,
      "v": 73
    },
    {
      "midi": 63,
      "hit": false,
      "t": 158420.31333333452,
      "d": 131.57833333333838,
      "v": 73
    },
    {
      "midi": 57,
      "hit": false,
      "t": 158436.7606250012,
      "d": 131.57833333333838,
      "v": 73
    },
    {
      "midi": 66,
      "hit": false,
      "t": 158946.62666666787,
      "d": 115.13104166666744,
      "v": 80
    },
    {
      "midi": 57,
      "hit": false,
      "t": 158946.62666666787,
      "d": 131.57833333333838,
      "v": 80
    },
    {
      "midi": 63,
      "hit": false,
      "t": 158946.62666666787,
      "d": 131.57833333333838,
      "v": 80
    },
    {
      "midi": 57,
      "hit": false,
      "t": 159472.9400000012,
      "d": 131.57833333333838,
      "v": 100
    },
    {
      "midi": 63,
      "hit": false,
      "t": 159472.9400000012,
      "d": 131.57833333333838,
      "v": 100
    },
    {
      "midi": 66,
      "hit": false,
      "t": 159472.9400000012,
      "d": 131.57833333333838,
      "v": 100
    },
    {
      "midi": 66,
      "hit": false,
      "t": 159982.80604166788,
      "d": 148.0256250000093,
      "v": 73
    },
    {
      "midi": 57,
      "hit": false,
      "t": 160015.70062500122,
      "d": 131.57833333333838,
      "v": 73
    },
    {
      "midi": 63,
      "hit": false,
      "t": 160015.70062500122,
      "d": 131.57833333333838,
      "v": 73
    },
    {
      "midi": 66,
      "hit": false,
      "t": 160509.11937500123,
      "d": 131.57833333333838,
      "v": 80
    },
    {
      "midi": 42,
      "hit": false,
      "t": 160509.11937500123,
      "d": 509.8660416666826,
      "v": 80
    },
    {
      "midi": 63,
      "hit": false,
      "t": 160525.5666666679,
      "d": 131.57833333333838,
      "v": 80
    },
    {
      "midi": 57,
      "hit": false,
      "t": 160542.01395833457,
      "d": 131.57833333333838,
      "v": 80
    },
    {
      "midi": 57,
      "hit": false,
      "t": 161035.43270833459,
      "d": 131.57833333333838,
      "v": 100
    },
    {
      "midi": 63,
      "hit": false,
      "t": 161035.43270833459,
      "d": 131.57833333333838,
      "v": 100
    },
    {
      "midi": 47,
      "hit": false,
      "t": 161035.43270833459,
      "d": 3157.880000000092,
      "v": 100
    },
    {
      "midi": 66,
      "hit": false,
      "t": 161051.88000000126,
      "d": 131.57833333333838,
      "v": 100
    },
    {
      "midi": 57,
      "hit": false,
      "t": 161578.19333333458,
      "d": 131.57833333333838,
      "v": 73
    },
    {
      "midi": 63,
      "hit": false,
      "t": 161594.64062500125,
      "d": 131.57833333333838,
      "v": 73
    },
    {
      "midi": 66,
      "hit": false,
      "t": 161594.64062500125,
      "d": 131.57833333333838,
      "v": 73
    },
    {
      "midi": 57,
      "hit": false,
      "t": 162088.05937500126,
      "d": 131.57833333333838,
      "v": 80
    },
    {
      "midi": 63,
      "hit": false,
      "t": 162088.05937500126,
      "d": 131.57833333333838,
      "v": 80
    },
    {
      "midi": 66,
      "hit": false,
      "t": 162104.50666666793,
      "d": 131.57833333333838,
      "v": 80
    },
    {
      "midi": 57,
      "hit": false,
      "t": 162614.37270833462,
      "d": 131.57833333333838,
      "v": 100
    },
    {
      "midi": 63,
      "hit": false,
      "t": 162614.37270833462,
      "d": 131.57833333333838,
      "v": 100
    },
    {
      "midi": 66,
      "hit": false,
      "t": 162630.8200000013,
      "d": 131.57833333333838,
      "v": 100
    },
    {
      "midi": 63,
      "hit": false,
      "t": 163140.68604166797,
      "d": 131.57833333333838,
      "v": 73
    },
    {
      "midi": 66,
      "hit": false,
      "t": 163157.13333333464,
      "d": 131.57833333333838,
      "v": 73
    },
    {
      "midi": 57,
      "hit": false,
      "t": 163173.5806250013,
      "d": 131.57833333333838,
      "v": 73
    },
    {
      "midi": 66,
      "hit": false,
      "t": 163666.99937500132,
      "d": 131.57833333333838,
      "v": 80
    },
    {
      "midi": 63,
      "hit": false,
      "t": 163683.446666668,
      "d": 131.57833333333838,
      "v": 80
    },
    {
      "midi": 57,
      "hit": false,
      "t": 163699.89395833467,
      "d": 131.57833333333838,
      "v": 80
    },
    {
      "midi": 59,
      "hit": false,
      "t": 164209.76000000135,
      "d": 3124.985416666663,
      "v": 86
    },
    {
      "midi": 56,
      "hit": false,
      "t": 164209.76000000135,
      "d": 6036.156041666662,
      "v": 86
    },
    {
      "midi": 40,
      "hit": false,
      "t": 164209.76000000135,
      "d": 6167.734375,
      "v": 86
    },
    {
      "midi": 64,
      "hit": false,
      "t": 164209.76000000135,
      "d": 6167.734375,
      "v": 86
    },
    {
      "midi": 60,
      "hit": false,
      "t": 167351.19270833468,
      "d": 3141.4327083333337,
      "v": 49
    },
    {
      "midi": 57,
      "hit": false,
      "t": 170509.0727083347,
      "d": 148.0256250000093,
      "v": 100
    },
    {
      "midi": 33,
      "hit": false,
      "t": 170509.0727083347,
      "d": 2615.1193750000675,
      "v": 100
    },
    {
      "midi": 61,
      "hit": false,
      "t": 170525.52000000136,
      "d": 131.57833333333838,
      "v": 100
    },
    {
      "midi": 69,
      "hit": false,
      "t": 170525.52000000136,
      "d": 131.57833333333838,
      "v": 100
    },
    {
      "midi": 64,
      "hit": false,
      "t": 170541.96729166803,
      "d": 131.57833333333838,
      "v": 100
    },
    {
      "midi": 69,
      "hit": false,
      "t": 171068.28062500135,
      "d": 115.13104166666744,
      "v": 73
    },
    {
      "midi": 57,
      "hit": false,
      "t": 171084.72791666802,
      "d": 131.57833333333838,
      "v": 73
    },
    {
      "midi": 61,
      "hit": false,
      "t": 171084.72791666802,
      "d": 131.57833333333838,
      "v": 73
    },
    {
      "midi": 64,
      "hit": false,
      "t": 171084.72791666802,
      "d": 131.57833333333838,
      "v": 73
    },
    {
      "midi": 64,
      "hit": false,
      "t": 171578.14666666804,
      "d": 131.57833333333838,
      "v": 80
    },
    {
      "midi": 61,
      "hit": false,
      "t": 171594.5939583347,
      "d": 148.0256250000093,
      "v": 80
    },
    {
      "midi": 57,
      "hit": false,
      "t": 171611.04125000138,
      "d": 115.13104166666744,
      "v": 80
    },
    {
      "midi": 69,
      "hit": false,
      "t": 171611.04125000138,
      "d": 131.57833333333838,
      "v": 80
    },
    {
      "midi": 57,
      "hit": false,
      "t": 172088.01270833472,
      "d": 131.57833333333838,
      "v": 100
    },
    {
      "midi": 61,
      "hit": false,
      "t": 172088.01270833472,
      "d": 131.57833333333838,
      "v": 100
    },
    {
      "midi": 64,
      "hit": false,
      "t": 172104.4600000014,
      "d": 131.57833333333838,
      "v": 100
    },
    {
      "midi": 69,
      "hit": false,
      "t": 172120.90729166806,
      "d": 131.57833333333838,
      "v": 100
    },
    {
      "midi": 61,
      "hit": false,
      "t": 172614.32604166807,
      "d": 131.57833333333838,
      "v": 73
    },
    {
      "midi": 64,
      "hit": false,
      "t": 172630.77333333474,
      "d": 131.57833333333838,
      "v": 73
    },
    {
      "midi": 69,
      "hit": false,
      "t": 172630.77333333474,
      "d": 131.57833333333838,
      "v": 73
    },
    {
      "midi": 57,
      "hit": false,
      "t": 172647.2206250014,
      "d": 131.57833333333838,
      "v": 73
    },
    {
      "midi": 57,
      "hit": false,
      "t": 173140.63937500142,
      "d": 131.57833333333838,
      "v": 80
    },
    {
      "midi": 61,
      "hit": false,
      "t": 173140.63937500142,
      "d": 131.57833333333838,
      "v": 80
    },
    {
      "midi": 64,
      "hit": false,
      "t": 173173.53395833477,
      "d": 131.57833333333838,
      "v": 80
    },
    {
      "midi": 69,
      "hit": false,
      "t": 173173.53395833477,
      "d": 131.57833333333838,
      "v": 80
    },
    {
      "midi": 40,
      "hit": false,
      "t": 173173.53395833477,
      "d": 493.41875000001164,
      "v": 80
    },
    {
      "midi": 57,
      "hit": false,
      "t": 173666.95270833478,
      "d": 131.57833333333838,
      "v": 100
    },
    {
      "midi": 61,
      "hit": false,
      "t": 173666.95270833478,
      "d": 131.57833333333838,
      "v": 100
    },
    {
      "midi": 64,
      "hit": false,
      "t": 173666.95270833478,
      "d": 131.57833333333838,
      "v": 100
    },
    {
      "midi": 68,
      "hit": false,
      "t": 173683.40000000145,
      "d": 131.57833333333838,
      "v": 100
    },
    {
      "midi": 45,
      "hit": false,
      "t": 173683.40000000145,
      "d": 3141.43270833345,
      "v": 100
    },
    {
      "midi": 64,
      "hit": false,
      "t": 174193.26604166813,
      "d": 131.57833333333838,
      "v": 73
    },
    {
      "midi": 68,
      "hit": false,
      "t": 174193.26604166813,
      "d": 131.57833333333838,
      "v": 73
    },
    {
      "midi": 57,
      "hit": false,
      "t": 174209.7133333348,
      "d": 131.57833333333838,
      "v": 73
    },
    {
      "midi": 61,
      "hit": false,
      "t": 174209.7133333348,
      "d": 131.57833333333838,
      "v": 73
    },
    {
      "midi": 61,
      "hit": false,
      "t": 174719.5793750015,
      "d": 131.57833333333838,
      "v": 80
    },
    {
      "midi": 57,
      "hit": false,
      "t": 174752.47395833483,
      "d": 131.57833333333838,
      "v": 80
    },
    {
      "midi": 64,
      "hit": false,
      "t": 174752.47395833483,
      "d": 131.57833333333838,
      "v": 80
    },
    {
      "midi": 68,
      "hit": false,
      "t": 174752.47395833483,
      "d": 131.57833333333838,
      "v": 80
    },
    {
      "midi": 57,
      "hit": false,
      "t": 175262.3400000015,
      "d": 148.0256250000093,
      "v": 100
    },
    {
      "midi": 64,
      "hit": false,
      "t": 175262.3400000015,
      "d": 148.0256250000093,
      "v": 100
    },
    {
      "midi": 68,
      "hit": false,
      "t": 175278.78729166818,
      "d": 148.0256250000093,
      "v": 100
    },
    {
      "midi": 61,
      "hit": false,
      "t": 175295.23458333485,
      "d": 131.57833333333838,
      "v": 100
    },
    {
      "midi": 61,
      "hit": false,
      "t": 175805.10062500153,
      "d": 115.13104166666744,
      "v": 73
    },
    {
      "midi": 64,
      "hit": false,
      "t": 175805.10062500153,
      "d": 115.13104166666744,
      "v": 73
    },
    {
      "midi": 57,
      "hit": false,
      "t": 175821.5479166682,
      "d": 115.13104166666744,
      "v": 73
    },
    {
      "midi": 68,
      "hit": false,
      "t": 175821.5479166682,
      "d": 115.13104166666744,
      "v": 73
    },
    {
      "midi": 61,
      "hit": false,
      "t": 176314.96666666822,
      "d": 131.57833333333838,
      "v": 80
    },
    {
      "midi": 64,
      "hit": false,
      "t": 176314.96666666822,
      "d": 131.57833333333838,
      "v": 80
    },
    {
      "midi": 57,
      "hit": false,
      "t": 176331.4139583349,
      "d": 131.57833333333838,
      "v": 80
    },
    {
      "midi": 68,
      "hit": false,
      "t": 176331.4139583349,
      "d": 131.57833333333838,
      "v": 80
    },
    {
      "midi": 61,
      "hit": false,
      "t": 176824.8327083349,
      "d": 131.57833333333838,
      "v": 100
    },
    {
      "midi": 67,
      "hit": false,
      "t": 176824.8327083349,
      "d": 131.57833333333838,
      "v": 100
    },
    {
      "midi": 57,
      "hit": false,
      "t": 176841.28000000157,
      "d": 131.57833333333838,
      "v": 100
    },
    {
      "midi": 64,
      "hit": false,
      "t": 176841.28000000157,
      "d": 131.57833333333838,
      "v": 100
    },
    {
      "midi": 33,
      "hit": false,
      "t": 176841.28000000157,
      "d": 2615.1193750000675,
      "v": 100
    },
    {
      "midi": 67,
      "hit": false,
      "t": 177351.14604166825,
      "d": 131.57833333333838,
      "v": 73
    },
    {
      "midi": 57,
      "hit": false,
      "t": 177367.59333333492,
      "d": 131.57833333333838,
      "v": 73
    },
    {
      "midi": 61,
      "hit": false,
      "t": 177367.59333333492,
      "d": 131.57833333333838,
      "v": 73
    },
    {
      "midi": 64,
      "hit": false,
      "t": 177367.59333333492,
      "d": 131.57833333333838,
      "v": 73
    },
    {
      "midi": 57,
      "hit": false,
      "t": 177877.4593750016,
      "d": 131.57833333333838,
      "v": 80
    },
    {
      "midi": 67,
      "hit": false,
      "t": 177877.4593750016,
      "d": 131.57833333333838,
      "v": 80
    },
    {
      "midi": 61,
      "hit": false,
      "t": 177893.90666666828,
      "d": 131.57833333333838,
      "v": 80
    },
    {
      "midi": 64,
      "hit": false,
      "t": 177893.90666666828,
      "d": 131.57833333333838,
      "v": 80
    },
    {
      "midi": 57,
      "hit": false,
      "t": 178436.66729166827,
      "d": 131.57833333333838,
      "v": 100
    },
    {
      "midi": 61,
      "hit": false,
      "t": 178436.66729166827,
      "d": 131.57833333333838,
      "v": 100
    },
    {
      "midi": 64,
      "hit": false,
      "t": 178436.66729166827,
      "d": 131.57833333333838,
      "v": 100
    },
    {
      "midi": 67,
      "hit": false,
      "t": 178436.66729166827,
      "d": 131.57833333333838,
      "v": 100
    },
    {
      "midi": 57,
      "hit": false,
      "t": 178930.08604166828,
      "d": 131.57833333333838,
      "v": 73
    },
    {
      "midi": 64,
      "hit": false,
      "t": 178930.08604166828,
      "d": 131.57833333333838,
      "v": 73
    },
    {
      "midi": 67,
      "hit": false,
      "t": 178946.53333333496,
      "d": 131.57833333333838,
      "v": 73
    },
    {
      "midi": 61,
      "hit": false,
      "t": 178962.98062500163,
      "d": 131.57833333333838,
      "v": 73
    },
    {
      "midi": 57,
      "hit": false,
      "t": 179456.39937500164,
      "d": 131.57833333333838,
      "v": 80
    },
    {
      "midi": 64,
      "hit": false,
      "t": 179456.39937500164,
      "d": 131.57833333333838,
      "v": 80
    },
    {
      "midi": 67,
      "hit": false,
      "t": 179456.39937500164,
      "d": 131.57833333333838,
      "v": 80
    },
    {
      "midi": 40,
      "hit": false,
      "t": 179489.29395833498,
      "d": 509.8660416666826,
      "v": 80
    },
    {
      "midi": 61,
      "hit": false,
      "t": 179505.74125000165,
      "d": 115.13104166666744,
      "v": 80
    },
    {
      "midi": 67,
      "hit": false,
      "t": 179982.712708335,
      "d": 131.57833333333838,
      "v": 100
    },
    {
      "midi": 57,
      "hit": false,
      "t": 179999.16000000166,
      "d": 115.13104166666744,
      "v": 100
    },
    {
      "midi": 64,
      "hit": false,
      "t": 179999.16000000166,
      "d": 115.13104166666744,
      "v": 100
    },
    {
      "midi": 61,
      "hit": false,
      "t": 179999.16000000166,
      "d": 131.57833333333838,
      "v": 100
    },
    {
      "midi": 45,
      "hit": false,
      "t": 180015.60729166833,
      "d": 2088.806041666714,
      "v": 100
    },
    {
      "midi": 57,
      "hit": false,
      "t": 180509.02604166834,
      "d": 131.57833333333838,
      "v": 73
    },
    {
      "midi": 64,
      "hit": false,
      "t": 180509.02604166834,
      "d": 131.57833333333838,
      "v": 73
    },
    {
      "midi": 61,
      "hit": false,
      "t": 180525.47333333502,
      "d": 131.57833333333838,
      "v": 73
    },
    {
      "midi": 67,
      "hit": false,
      "t": 180525.47333333502,
      "d": 131.57833333333838,
      "v": 73
    },
    {
      "midi": 61,
      "hit": false,
      "t": 181035.3393750017,
      "d": 131.57833333333838,
      "v": 80
    },
    {
      "midi": 64,
      "hit": false,
      "t": 181035.3393750017,
      "d": 131.57833333333838,
      "v": 80
    },
    {
      "midi": 67,
      "hit": false,
      "t": 181035.3393750017,
      "d": 131.57833333333838,
      "v": 80
    },
    {
      "midi": 57,
      "hit": false,
      "t": 181051.78666666837,
      "d": 131.57833333333838,
      "v": 80
    },
    {
      "midi": 57,
      "hit": false,
      "t": 181578.1000000017,
      "d": 131.57833333333838,
      "v": 100
    },
    {
      "midi": 61,
      "hit": false,
      "t": 181578.1000000017,
      "d": 131.57833333333838,
      "v": 100
    },
    {
      "midi": 64,
      "hit": false,
      "t": 181578.1000000017,
      "d": 131.57833333333838,
      "v": 100
    },
    {
      "midi": 67,
      "hit": false,
      "t": 181578.1000000017,
      "d": 131.57833333333838,
      "v": 100
    },
    {
      "midi": 67,
      "hit": false,
      "t": 182087.96604166838,
      "d": 131.57833333333838,
      "v": 73
    },
    {
      "midi": 61,
      "hit": false,
      "t": 182120.86062500172,
      "d": 115.13104166666744,
      "v": 73
    },
    {
      "midi": 57,
      "hit": false,
      "t": 182120.86062500172,
      "d": 131.57833333333838,
      "v": 73
    },
    {
      "midi": 64,
      "hit": false,
      "t": 182120.86062500172,
      "d": 131.57833333333838,
      "v": 73
    },
    {
      "midi": 40,
      "hit": false,
      "t": 182120.86062500172,
      "d": 493.41875000001164,
      "v": 73
    },
    {
      "midi": 57,
      "hit": false,
      "t": 182630.7266666684,
      "d": 131.57833333333838,
      "v": 80
    },
    {
      "midi": 61,
      "hit": false,
      "t": 182647.17395833507,
      "d": 131.57833333333838,
      "v": 80
    },
    {
      "midi": 64,
      "hit": false,
      "t": 182647.17395833507,
      "d": 131.57833333333838,
      "v": 80
    },
    {
      "midi": 67,
      "hit": false,
      "t": 182647.17395833507,
      "d": 131.57833333333838,
      "v": 80
    },
    {
      "midi": 33,
      "hit": false,
      "t": 182647.17395833507,
      "d": 509.8660416666826,
      "v": 80
    },
    {
      "midi": 38,
      "hit": false,
      "t": 183140.59270833508,
      "d": 2088.806041666714,
      "v": 100
    },
    {
      "midi": 57,
      "hit": false,
      "t": 183157.04000000175,
      "d": 131.57833333333838,
      "v": 100
    },
    {
      "midi": 62,
      "hit": false,
      "t": 183157.04000000175,
      "d": 131.57833333333838,
      "v": 100
    },
    {
      "midi": 66,
      "hit": false,
      "t": 183157.04000000175,
      "d": 131.57833333333838,
      "v": 100
    },
    {
      "midi": 57,
      "hit": false,
      "t": 183666.90604166844,
      "d": 131.57833333333838,
      "v": 73
    },
    {
      "midi": 66,
      "hit": false,
      "t": 183666.90604166844,
      "d": 131.57833333333838,
      "v": 73
    },
    {
      "midi": 62,
      "hit": false,
      "t": 183683.3533333351,
      "d": 131.57833333333838,
      "v": 73
    },
    {
      "midi": 57,
      "hit": false,
      "t": 184209.66666666843,
      "d": 131.57833333333838,
      "v": 80
    },
    {
      "midi": 66,
      "hit": false,
      "t": 184209.66666666843,
      "d": 131.57833333333838,
      "v": 80
    },
    {
      "midi": 62,
      "hit": false,
      "t": 184226.1139583351,
      "d": 131.57833333333838,
      "v": 80
    },
    {
      "midi": 57,
      "hit": false,
      "t": 184719.53270833511,
      "d": 131.57833333333838,
      "v": 100
    },
    {
      "midi": 62,
      "hit": false,
      "t": 184752.42729166846,
      "d": 131.57833333333838,
      "v": 100
    },
    {
      "midi": 66,
      "hit": false,
      "t": 184752.42729166846,
      "d": 131.57833333333838,
      "v": 100
    },
    {
      "midi": 57,
      "hit": false,
      "t": 185245.84604166847,
      "d": 131.57833333333838,
      "v": 73
    },
    {
      "midi": 62,
      "hit": false,
      "t": 185245.84604166847,
      "d": 131.57833333333838,
      "v": 73
    },
    {
      "midi": 66,
      "hit": false,
      "t": 185245.84604166847,
      "d": 131.57833333333838,
      "v": 73
    },
    {
      "midi": 62,
      "hit": false,
      "t": 185788.60666666846,
      "d": 148.0256250000093,
      "v": 80
    },
    {
      "midi": 57,
      "hit": false,
      "t": 185805.05395833513,
      "d": 131.57833333333838,
      "v": 80
    },
    {
      "midi": 66,
      "hit": false,
      "t": 185805.05395833513,
      "d": 131.57833333333838,
      "v": 80
    },
    {
      "midi": 33,
      "hit": false,
      "t": 185821.5012500018,
      "d": 493.41875000001164,
      "v": 80
    },
    {
      "midi": 66,
      "hit": false,
      "t": 186314.92000000182,
      "d": 115.13104166666744,
      "v": 100
    },
    {
      "midi": 57,
      "hit": false,
      "t": 186331.3672916685,
      "d": 131.57833333333838,
      "v": 100
    },
    {
      "midi": 62,
      "hit": false,
      "t": 186331.3672916685,
      "d": 131.57833333333838,
      "v": 100
    },
    {
      "midi": 38,
      "hit": false,
      "t": 186331.3672916685,
      "d": 2861.8287500000733,
      "v": 100
    },
    {
      "midi": 57,
      "hit": false,
      "t": 186824.7860416685,
      "d": 131.57833333333838,
      "v": 73
    },
    {
      "midi": 66,
      "hit": false,
      "t": 186841.23333333517,
      "d": 131.57833333333838,
      "v": 73
    },
    {
      "midi": 62,
      "hit": false,
      "t": 186857.68062500184,
      "d": 131.57833333333838,
      "v": 73
    },
    {
      "midi": 57,
      "hit": false,
      "t": 187351.09937500185,
      "d": 131.57833333333838,
      "v": 80
    },
    {
      "midi": 62,
      "hit": false,
      "t": 187367.54666666852,
      "d": 131.57833333333838,
      "v": 80
    },
    {
      "midi": 66,
      "hit": false,
      "t": 187383.9939583352,
      "d": 131.57833333333838,
      "v": 80
    },
    {
      "midi": 57,
      "hit": false,
      "t": 187910.30729166852,
      "d": 131.57833333333838,
      "v": 100
    },
    {
      "midi": 62,
      "hit": false,
      "t": 187910.30729166852,
      "d": 131.57833333333838,
      "v": 100
    },
    {
      "midi": 66,
      "hit": false,
      "t": 187910.30729166852,
      "d": 131.57833333333838,
      "v": 100
    },
    {
      "midi": 66,
      "hit": false,
      "t": 188403.72604166853,
      "d": 131.57833333333838,
      "v": 73
    },
    {
      "midi": 57,
      "hit": false,
      "t": 188420.1733333352,
      "d": 131.57833333333838,
      "v": 73
    },
    {
      "midi": 62,
      "hit": false,
      "t": 188420.1733333352,
      "d": 131.57833333333838,
      "v": 73
    },
    {
      "midi": 57,
      "hit": false,
      "t": 188930.03937500188,
      "d": 131.57833333333838,
      "v": 80
    },
    {
      "midi": 62,
      "hit": false,
      "t": 188930.03937500188,
      "d": 131.57833333333838,
      "v": 80
    },
    {
      "midi": 66,
      "hit": false,
      "t": 188930.03937500188,
      "d": 131.57833333333838,
      "v": 80
    },
    {
      "midi": 59,
      "hit": false,
      "t": 189456.35270833524,
      "d": 131.57833333333838,
      "v": 100
    },
    {
      "midi": 66,
      "hit": false,
      "t": 189456.35270833524,
      "d": 131.57833333333838,
      "v": 100
    },
    {
      "midi": 39,
      "hit": false,
      "t": 189456.35270833524,
      "d": 2615.1193750000966,
      "v": 100
    },
    {
      "midi": 63,
      "hit": false,
      "t": 189472.8000000019,
      "d": 131.57833333333838,
      "v": 100
    },
    {
      "midi": 63,
      "hit": false,
      "t": 189982.6660416686,
      "d": 131.57833333333838,
      "v": 73
    },
    {
      "midi": 59,
      "hit": false,
      "t": 189999.11333333526,
      "d": 131.57833333333838,
      "v": 73
    },
    {
      "midi": 66,
      "hit": false,
      "t": 189999.11333333526,
      "d": 131.57833333333838,
      "v": 73
    },
    {
      "midi": 59,
      "hit": false,
      "t": 190508.97937500195,
      "d": 131.57833333333838,
      "v": 80
    },
    {
      "midi": 66,
      "hit": false,
      "t": 190508.97937500195,
      "d": 131.57833333333838,
      "v": 80
    },
    {
      "midi": 63,
      "hit": false,
      "t": 190525.42666666862,
      "d": 131.57833333333838,
      "v": 80
    },
    {
      "midi": 63,
      "hit": false,
      "t": 191035.2927083353,
      "d": 131.57833333333838,
      "v": 100
    },
    {
      "midi": 59,
      "hit": false,
      "t": 191051.74000000197,
      "d": 131.57833333333838,
      "v": 100
    },
    {
      "midi": 66,
      "hit": false,
      "t": 191051.74000000197,
      "d": 131.57833333333838,
      "v": 100
    },
    {
      "midi": 63,
      "hit": false,
      "t": 191561.60604166865,
      "d": 131.57833333333838,
      "v": 73
    },
    {
      "midi": 59,
      "hit": false,
      "t": 191578.05333333532,
      "d": 131.57833333333838,
      "v": 73
    },
    {
      "midi": 66,
      "hit": false,
      "t": 191578.05333333532,
      "d": 131.57833333333838,
      "v": 73
    },
    {
      "midi": 63,
      "hit": false,
      "t": 192087.919375002,
      "d": 148.0256250000093,
      "v": 80
    },
    {
      "midi": 66,
      "hit": false,
      "t": 192087.919375002,
      "d": 148.0256250000093,
      "v": 80
    },
    {
      "midi": 35,
      "hit": false,
      "t": 192087.919375002,
      "d": 509.8660416666826,
      "v": 80
    },
    {
      "midi": 59,
      "hit": false,
      "t": 192120.81395833535,
      "d": 131.57833333333838,
      "v": 80
    },
    {
      "midi": 39,
      "hit": false,
      "t": 192630.68000000203,
      "d": 3141.43270833345,
      "v": 100
    },
    {
      "midi": 59,
      "hit": false,
      "t": 192647.1272916687,
      "d": 115.13104166666744,
      "v": 100
    },
    {
      "midi": 63,
      "hit": false,
      "t": 192647.1272916687,
      "d": 115.13104166666744,
      "v": 100
    },
    {
      "midi": 66,
      "hit": false,
      "t": 192647.1272916687,
      "d": 115.13104166666744,
      "v": 100
    },
    {
      "midi": 66,
      "hit": false,
      "t": 193140.5460416687,
      "d": 131.57833333333838,
      "v": 73
    },
    {
      "midi": 59,
      "hit": false,
      "t": 193156.99333333538,
      "d": 131.57833333333838,
      "v": 73
    },
    {
      "midi": 63,
      "hit": false,
      "t": 193156.99333333538,
      "d": 131.57833333333838,
      "v": 73
    },
    {
      "midi": 59,
      "hit": false,
      "t": 193666.85937500207,
      "d": 131.57833333333838,
      "v": 80
    },
    {
      "midi": 66,
      "hit": false,
      "t": 193666.85937500207,
      "d": 131.57833333333838,
      "v": 80
    },
    {
      "midi": 63,
      "hit": false,
      "t": 193683.30666666874,
      "d": 131.57833333333838,
      "v": 80
    },
    {
      "midi": 59,
      "hit": false,
      "t": 194193.17270833542,
      "d": 131.57833333333838,
      "v": 100
    },
    {
      "midi": 63,
      "hit": false,
      "t": 194193.17270833542,
      "d": 131.57833333333838,
      "v": 100
    },
    {
      "midi": 66,
      "hit": false,
      "t": 194209.6200000021,
      "d": 131.57833333333838,
      "v": 100
    },
    {
      "midi": 59,
      "hit": false,
      "t": 194719.48604166877,
      "d": 131.57833333333838,
      "v": 73
    },
    {
      "midi": 63,
      "hit": false,
      "t": 194719.48604166877,
      "d": 131.57833333333838,
      "v": 73
    },
    {
      "midi": 66,
      "hit": false,
      "t": 194735.93333333544,
      "d": 131.57833333333838,
      "v": 73
    },
    {
      "midi": 63,
      "hit": false,
      "t": 195245.79937500213,
      "d": 131.57833333333838,
      "v": 80
    },
    {
      "midi": 66,
      "hit": false,
      "t": 195245.79937500213,
      "d": 131.57833333333838,
      "v": 80
    },
    {
      "midi": 59,
      "hit": false,
      "t": 195262.2466666688,
      "d": 131.57833333333838,
      "v": 80
    },
    {
      "midi": 57,
      "hit": false,
      "t": 195788.56000000215,
      "d": 115.13104166666744,
      "v": 100
    },
    {
      "midi": 64,
      "hit": false,
      "t": 195788.56000000215,
      "d": 115.13104166666744,
      "v": 100
    },
    {
      "midi": 61,
      "hit": false,
      "t": 195788.56000000215,
      "d": 131.57833333333838,
      "v": 100
    },
    {
      "midi": 33,
      "hit": false,
      "t": 195788.56000000215,
      "d": 3124.985416666721,
      "v": 100
    },
    {
      "midi": 61,
      "hit": false,
      "t": 196314.87333333548,
      "d": 148.0256250000093,
      "v": 73
    },
    {
      "midi": 57,
      "hit": false,
      "t": 196331.32062500215,
      "d": 115.13104166666744,
      "v": 73
    },
    {
      "midi": 64,
      "hit": false,
      "t": 196331.32062500215,
      "d": 131.57833333333838,
      "v": 73
    },
    {
      "midi": 57,
      "hit": false,
      "t": 196824.73937500216,
      "d": 131.57833333333838,
      "v": 80
    },
    {
      "midi": 64,
      "hit": false,
      "t": 196824.73937500216,
      "d": 131.57833333333838,
      "v": 80
    },
    {
      "midi": 61,
      "hit": false,
      "t": 196841.18666666883,
      "d": 131.57833333333838,
      "v": 80
    },
    {
      "midi": 57,
      "hit": false,
      "t": 197351.0527083355,
      "d": 148.0256250000093,
      "v": 100
    },
    {
      "midi": 61,
      "hit": false,
      "t": 197383.94729166885,
      "d": 131.57833333333838,
      "v": 100
    },
    {
      "midi": 64,
      "hit": false,
      "t": 197383.94729166885,
      "d": 131.57833333333838,
      "v": 100
    },
    {
      "midi": 57,
      "hit": false,
      "t": 197877.36604166887,
      "d": 131.57833333333838,
      "v": 73
    },
    {
      "midi": 61,
      "hit": false,
      "t": 197877.36604166887,
      "d": 131.57833333333838,
      "v": 73
    },
    {
      "midi": 64,
      "hit": false,
      "t": 197877.36604166887,
      "d": 131.57833333333838,
      "v": 73
    },
    {
      "midi": 57,
      "hit": false,
      "t": 198403.6793750022,
      "d": 131.57833333333838,
      "v": 80
    },
    {
      "midi": 61,
      "hit": false,
      "t": 198420.12666666886,
      "d": 131.57833333333838,
      "v": 80
    },
    {
      "midi": 64,
      "hit": false,
      "t": 198420.12666666886,
      "d": 131.57833333333838,
      "v": 80
    },
    {
      "midi": 61,
      "hit": false,
      "t": 198929.99270833554,
      "d": 131.57833333333838,
      "v": 100
    },
    {
      "midi": 37,
      "hit": false,
      "t": 198929.99270833554,
      "d": 3141.432708333421,
      "v": 100
    },
    {
      "midi": 56,
      "hit": false,
      "t": 198946.4400000022,
      "d": 131.57833333333838,
      "v": 100
    },
    {
      "midi": 65,
      "hit": false,
      "t": 198946.4400000022,
      "d": 131.57833333333838,
      "v": 100
    },
    {
      "midi": 61,
      "hit": false,
      "t": 199456.3060416689,
      "d": 148.0256250000093,
      "v": 73
    },
    {
      "midi": 56,
      "hit": false,
      "t": 199472.75333333557,
      "d": 131.57833333333838,
      "v": 73
    },
    {
      "midi": 65,
      "hit": false,
      "t": 199489.20062500224,
      "d": 131.57833333333838,
      "v": 73
    },
    {
      "midi": 56,
      "hit": false,
      "t": 200015.51395833556,
      "d": 131.57833333333838,
      "v": 80
    },
    {
      "midi": 65,
      "hit": false,
      "t": 200015.51395833556,
      "d": 131.57833333333838,
      "v": 80
    },
    {
      "midi": 61,
      "hit": false,
      "t": 200031.96125000223,
      "d": 131.57833333333838,
      "v": 80
    },
    {
      "midi": 61,
      "hit": false,
      "t": 200508.93270833557,
      "d": 131.57833333333838,
      "v": 100
    },
    {
      "midi": 65,
      "hit": false,
      "t": 200508.93270833557,
      "d": 131.57833333333838,
      "v": 100
    },
    {
      "midi": 56,
      "hit": false,
      "t": 200525.38000000225,
      "d": 131.57833333333838,
      "v": 100
    },
    {
      "midi": 65,
      "hit": false,
      "t": 201035.24604166893,
      "d": 131.57833333333838,
      "v": 73
    },
    {
      "midi": 56,
      "hit": false,
      "t": 201068.14062500227,
      "d": 131.57833333333838,
      "v": 73
    },
    {
      "midi": 61,
      "hit": false,
      "t": 201068.14062500227,
      "d": 131.57833333333838,
      "v": 73
    },
    {
      "midi": 56,
      "hit": false,
      "t": 201578.00666666895,
      "d": 131.57833333333838,
      "v": 80
    },
    {
      "midi": 61,
      "hit": false,
      "t": 201594.45395833562,
      "d": 131.57833333333838,
      "v": 80
    },
    {
      "midi": 65,
      "hit": false,
      "t": 201594.45395833562,
      "d": 131.57833333333838,
      "v": 80
    },
    {
      "midi": 57,
      "hit": false,
      "t": 202087.87270833564,
      "d": 131.57833333333838,
      "v": 100
    },
    {
      "midi": 61,
      "hit": false,
      "t": 202087.87270833564,
      "d": 131.57833333333838,
      "v": 100
    },
    {
      "midi": 66,
      "hit": false,
      "t": 202104.3200000023,
      "d": 131.57833333333838,
      "v": 100
    },
    {
      "midi": 42,
      "hit": false,
      "t": 202104.3200000023,
      "d": 1562.4927083333896,
      "v": 100
    },
    {
      "midi": 57,
      "hit": false,
      "t": 202614.186041669,
      "d": 131.57833333333838,
      "v": 73
    },
    {
      "midi": 61,
      "hit": false,
      "t": 202614.186041669,
      "d": 131.57833333333838,
      "v": 73
    },
    {
      "midi": 66,
      "hit": false,
      "t": 202630.63333333566,
      "d": 131.57833333333838,
      "v": 73
    },
    {
      "midi": 66,
      "hit": false,
      "t": 203140.49937500234,
      "d": 131.57833333333838,
      "v": 80
    },
    {
      "midi": 57,
      "hit": false,
      "t": 203156.946666669,
      "d": 131.57833333333838,
      "v": 80
    },
    {
      "midi": 61,
      "hit": false,
      "t": 203156.946666669,
      "d": 131.57833333333838,
      "v": 80
    },
    {
      "midi": 57,
      "hit": false,
      "t": 203666.8127083357,
      "d": 131.57833333333838,
      "v": 100
    },
    {
      "midi": 61,
      "hit": false,
      "t": 203666.8127083357,
      "d": 131.57833333333838,
      "v": 100
    },
    {
      "midi": 66,
      "hit": false,
      "t": 203666.8127083357,
      "d": 131.57833333333838,
      "v": 100
    },
    {
      "midi": 40,
      "hit": false,
      "t": 203683.26000000237,
      "d": 1562.4927083333605,
      "v": 100
    },
    {
      "midi": 57,
      "hit": false,
      "t": 204209.5733333357,
      "d": 131.57833333333838,
      "v": 73
    },
    {
      "midi": 61,
      "hit": false,
      "t": 204209.5733333357,
      "d": 131.57833333333838,
      "v": 73
    },
    {
      "midi": 66,
      "hit": false,
      "t": 204209.5733333357,
      "d": 131.57833333333838,
      "v": 73
    },
    {
      "midi": 61,
      "hit": false,
      "t": 204719.43937500237,
      "d": 131.57833333333838,
      "v": 80
    },
    {
      "midi": 57,
      "hit": false,
      "t": 204735.88666666904,
      "d": 131.57833333333838,
      "v": 80
    },
    {
      "midi": 66,
      "hit": false,
      "t": 204735.88666666904,
      "d": 131.57833333333838,
      "v": 80
    },
    {
      "midi": 57,
      "hit": false,
      "t": 205245.75270833573,
      "d": 148.0256250000093,
      "v": 100
    },
    {
      "midi": 62,
      "hit": false,
      "t": 205245.75270833573,
      "d": 148.0256250000093,
      "v": 100
    },
    {
      "midi": 38,
      "hit": false,
      "t": 205245.75270833573,
      "d": 3141.43270833345,
      "v": 100
    },
    {
      "midi": 66,
      "hit": false,
      "t": 205278.64729166907,
      "d": 131.57833333333838,
      "v": 100
    },
    {
      "midi": 57,
      "hit": false,
      "t": 205788.51333333575,
      "d": 131.57833333333838,
      "v": 73
    },
    {
      "midi": 62,
      "hit": false,
      "t": 205804.96062500242,
      "d": 131.57833333333838,
      "v": 73
    },
    {
      "midi": 66,
      "hit": false,
      "t": 205804.96062500242,
      "d": 131.57833333333838,
      "v": 73
    },
    {
      "midi": 57,
      "hit": false,
      "t": 206314.8266666691,
      "d": 148.0256250000093,
      "v": 80
    },
    {
      "midi": 62,
      "hit": false,
      "t": 206347.72125000245,
      "d": 131.57833333333838,
      "v": 80
    },
    {
      "midi": 66,
      "hit": false,
      "t": 206347.72125000245,
      "d": 131.57833333333838,
      "v": 80
    },
    {
      "midi": 57,
      "hit": false,
      "t": 206857.58729166913,
      "d": 115.13104166666744,
      "v": 100
    },
    {
      "midi": 63,
      "hit": false,
      "t": 206857.58729166913,
      "d": 131.57833333333838,
      "v": 100
    },
    {
      "midi": 66,
      "hit": false,
      "t": 206857.58729166913,
      "d": 131.57833333333838,
      "v": 100
    },
    {
      "midi": 57,
      "hit": false,
      "t": 207351.00604166914,
      "d": 131.57833333333838,
      "v": 73
    },
    {
      "midi": 63,
      "hit": false,
      "t": 207367.4533333358,
      "d": 131.57833333333838,
      "v": 73
    },
    {
      "midi": 66,
      "hit": false,
      "t": 207367.4533333358,
      "d": 131.57833333333838,
      "v": 73
    },
    {
      "midi": 66,
      "hit": false,
      "t": 207877.3193750025,
      "d": 131.57833333333838,
      "v": 80
    },
    {
      "midi": 57,
      "hit": false,
      "t": 207893.76666666917,
      "d": 131.57833333333838,
      "v": 80
    },
    {
      "midi": 63,
      "hit": false,
      "t": 207893.76666666917,
      "d": 131.57833333333838,
      "v": 80
    },
    {
      "midi": 57,
      "hit": false,
      "t": 208403.63270833585,
      "d": 131.57833333333838,
      "v": 100
    },
    {
      "midi": 45,
      "hit": false,
      "t": 208403.63270833585,
      "d": 1578.9400000000314,
      "v": 100
    },
    {
      "midi": 61,
      "hit": false,
      "t": 208420.08000000252,
      "d": 131.57833333333838,
      "v": 100
    },
    {
      "midi": 64,
      "hit": false,
      "t": 208420.08000000252,
      "d": 131.57833333333838,
      "v": 100
    },
    {
      "midi": 57,
      "hit": false,
      "t": 208962.84062500251,
      "d": 131.57833333333838,
      "v": 73
    },
    {
      "midi": 61,
      "hit": false,
      "t": 208962.84062500251,
      "d": 131.57833333333838,
      "v": 73
    },
    {
      "midi": 64,
      "hit": false,
      "t": 208962.84062500251,
      "d": 131.57833333333838,
      "v": 73
    },
    {
      "midi": 57,
      "hit": false,
      "t": 209472.7066666692,
      "d": 131.57833333333838,
      "v": 80
    },
    {
      "midi": 61,
      "hit": false,
      "t": 209472.7066666692,
      "d": 131.57833333333838,
      "v": 80
    },
    {
      "midi": 64,
      "hit": false,
      "t": 209489.15395833587,
      "d": 131.57833333333838,
      "v": 80
    },
    {
      "midi": 64,
      "hit": false,
      "t": 209982.57270833588,
      "d": 131.57833333333838,
      "v": 100
    },
    {
      "midi": 42,
      "hit": false,
      "t": 209982.57270833588,
      "d": 1562.4927083333605,
      "v": 100
    },
    {
      "midi": 57,
      "hit": false,
      "t": 209999.02000000255,
      "d": 131.57833333333838,
      "v": 100
    },
    {
      "midi": 61,
      "hit": false,
      "t": 209999.02000000255,
      "d": 131.57833333333838,
      "v": 100
    },
    {
      "midi": 64,
      "hit": false,
      "t": 210508.88604166923,
      "d": 131.57833333333838,
      "v": 73
    },
    {
      "midi": 57,
      "hit": false,
      "t": 210525.3333333359,
      "d": 131.57833333333838,
      "v": 73
    },
    {
      "midi": 61,
      "hit": false,
      "t": 210525.3333333359,
      "d": 131.57833333333838,
      "v": 73
    },
    {
      "midi": 64,
      "hit": false,
      "t": 211051.64666666923,
      "d": 148.0256250000093,
      "v": 80
    },
    {
      "midi": 61,
      "hit": false,
      "t": 211068.0939583359,
      "d": 115.13104166666744,
      "v": 80
    },
    {
      "midi": 57,
      "hit": false,
      "t": 211068.0939583359,
      "d": 131.57833333333838,
      "v": 80
    },
    {
      "midi": 63,
      "hit": false,
      "t": 211577.96000000258,
      "d": 131.57833333333838,
      "v": 100
    },
    {
      "midi": 47,
      "hit": false,
      "t": 211577.96000000258,
      "d": 1546.0454166667187,
      "v": 100
    },
    {
      "midi": 57,
      "hit": false,
      "t": 211594.40729166925,
      "d": 131.57833333333838,
      "v": 100
    },
    {
      "midi": 66,
      "hit": false,
      "t": 211594.40729166925,
      "d": 131.57833333333838,
      "v": 100
    },
    {
      "midi": 63,
      "hit": false,
      "t": 212087.82604166926,
      "d": 131.57833333333838,
      "v": 73
    },
    {
      "midi": 66,
      "hit": false,
      "t": 212087.82604166926,
      "d": 131.57833333333838,
      "v": 73
    },
    {
      "midi": 57,
      "hit": false,
      "t": 212104.27333333594,
      "d": 131.57833333333838,
      "v": 73
    },
    {
      "midi": 57,
      "hit": false,
      "t": 212614.13937500262,
      "d": 131.57833333333838,
      "v": 80
    },
    {
      "midi": 63,
      "hit": false,
      "t": 212614.13937500262,
      "d": 131.57833333333838,
      "v": 80
    },
    {
      "midi": 66,
      "hit": false,
      "t": 212630.5866666693,
      "d": 131.57833333333838,
      "v": 80
    },
    {
      "midi": 56,
      "hit": false,
      "t": 213156.90000000264,
      "d": 131.57833333333838,
      "v": 100
    },
    {
      "midi": 62,
      "hit": false,
      "t": 213156.90000000264,
      "d": 131.57833333333838,
      "v": 100
    },
    {
      "midi": 59,
      "hit": false,
      "t": 213173.3472916693,
      "d": 131.57833333333838,
      "v": 100
    },
    {
      "midi": 40,
      "hit": false,
      "t": 213173.3472916693,
      "d": 1546.0454166666896,
      "v": 100
    },
    {
      "midi": 56,
      "hit": false,
      "t": 213683.213333336,
      "d": 115.13104166666744,
      "v": 73
    },
    {
      "midi": 59,
      "hit": false,
      "t": 213683.213333336,
      "d": 115.13104166666744,
      "v": 73
    },
    {
      "midi": 62,
      "hit": false,
      "t": 213683.213333336,
      "d": 131.57833333333838,
      "v": 73
    },
    {
      "midi": 59,
      "hit": false,
      "t": 214209.52666666932,
      "d": 131.57833333333838,
      "v": 80
    },
    {
      "midi": 56,
      "hit": false,
      "t": 214225.973958336,
      "d": 131.57833333333838,
      "v": 80
    },
    {
      "midi": 62,
      "hit": false,
      "t": 214225.973958336,
      "d": 131.57833333333838,
      "v": 80
    },
    {
      "midi": 57,
      "hit": false,
      "t": 214719.392708336,
      "d": 148.0256250000093,
      "v": 100
    },
    {
      "midi": 45,
      "hit": false,
      "t": 214719.392708336,
      "d": 2351.96270833342,
      "v": 100
    },
    {
      "midi": 64,
      "hit": false,
      "t": 214735.84000000267,
      "d": 131.57833333333838,
      "v": 100
    },
    {
      "midi": 61,
      "hit": false,
      "t": 214752.28729166934,
      "d": 131.57833333333838,
      "v": 100
    },
    {
      "midi": 57,
      "hit": false,
      "t": 215262.15333333603,
      "d": 131.57833333333838,
      "v": 73
    },
    {
      "midi": 61,
      "hit": false,
      "t": 215262.15333333603,
      "d": 131.57833333333838,
      "v": 73
    },
    {
      "midi": 64,
      "hit": false,
      "t": 215262.15333333603,
      "d": 131.57833333333838,
      "v": 73
    },
    {
      "midi": 61,
      "hit": false,
      "t": 215772.0193750027,
      "d": 148.0256250000093,
      "v": 80
    },
    {
      "midi": 57,
      "hit": false,
      "t": 215804.91395833605,
      "d": 131.57833333333838,
      "v": 80
    },
    {
      "midi": 64,
      "hit": false,
      "t": 215804.91395833605,
      "d": 131.57833333333838,
      "v": 80
    },
    {
      "midi": 64,
      "hit": false,
      "t": 216298.33270833606,
      "d": 148.0256250000093,
      "v": 100
    },
    {
      "midi": 57,
      "hit": false,
      "t": 216314.78000000273,
      "d": 131.57833333333838,
      "v": 100
    },
    {
      "midi": 61,
      "hit": false,
      "t": 216331.2272916694,
      "d": 131.57833333333838,
      "v": 100
    },
    {
      "midi": 61,
      "hit": false,
      "t": 216824.64604166942,
      "d": 131.57833333333838,
      "v": 73
    },
    {
      "midi": 57,
      "hit": false,
      "t": 216841.0933333361,
      "d": 131.57833333333838,
      "v": 73
    },
    {
      "midi": 64,
      "hit": false,
      "t": 216841.0933333361,
      "d": 131.57833333333838,
      "v": 73
    },
    {
      "midi": 45,
      "hit": false,
      "t": 217350.95937500277,
      "d": 131.57833333333838,
      "v": 80
    },
    {
      "midi": 57,
      "hit": false,
      "t": 217350.95937500277,
      "d": 131.57833333333838,
      "v": 80
    },
    {
      "midi": 61,
      "hit": false,
      "t": 217367.40666666944,
      "d": 131.57833333333838,
      "v": 80
    },
    {
      "midi": 64,
      "hit": false,
      "t": 217367.40666666944,
      "d": 131.57833333333838,
      "v": 80
    },
    {
      "midi": 56,
      "hit": false,
      "t": 217877.27270833612,
      "d": 3157.8800000000047,
      "v": 78
    },
    {
      "midi": 64,
      "hit": false,
      "t": 217910.16729166947,
      "d": 3157.8800000000047,
      "v": 78
    },
    {
      "midi": 40,
      "hit": false,
      "t": 217926.61458333614,
      "d": 3124.985416666663,
      "v": 78
    },
    {
      "midi": 60,
      "hit": false,
      "t": 217926.61458333614,
      "d": 3141.4327083333337,
      "v": 78
    },
    {
      "midi": 33,
      "hit": false,
      "t": 221035.15270833613,
      "d": 2615.1193750000966,
      "v": 100
    },
    {
      "midi": 57,
      "hit": false,
      "t": 221068.04729166947,
      "d": 115.13104166666744,
      "v": 100
    },
    {
      "midi": 64,
      "hit": false,
      "t": 221068.04729166947,
      "d": 131.57833333333838,
      "v": 100
    },
    {
      "midi": 61,
      "hit": false,
      "t": 221084.49458333614,
      "d": 131.57833333333838,
      "v": 100
    },
    {
      "midi": 69,
      "hit": false,
      "t": 221084.49458333614,
      "d": 131.57833333333838,
      "v": 100
    },
    {
      "midi": 57,
      "hit": false,
      "t": 221561.46604166948,
      "d": 131.57833333333838,
      "v": 73
    },
    {
      "midi": 61,
      "hit": false,
      "t": 221561.46604166948,
      "d": 131.57833333333838,
      "v": 73
    },
    {
      "midi": 64,
      "hit": false,
      "t": 221561.46604166948,
      "d": 131.57833333333838,
      "v": 73
    },
    {
      "midi": 69,
      "hit": false,
      "t": 221577.91333333615,
      "d": 131.57833333333838,
      "v": 73
    },
    {
      "midi": 57,
      "hit": false,
      "t": 222087.77937500284,
      "d": 131.57833333333838,
      "v": 80
    },
    {
      "midi": 69,
      "hit": false,
      "t": 222087.77937500284,
      "d": 131.57833333333838,
      "v": 80
    },
    {
      "midi": 61,
      "hit": false,
      "t": 222104.2266666695,
      "d": 131.57833333333838,
      "v": 80
    },
    {
      "midi": 64,
      "hit": false,
      "t": 222104.2266666695,
      "d": 131.57833333333838,
      "v": 80
    },
    {
      "midi": 69,
      "hit": false,
      "t": 222614.0927083362,
      "d": 131.57833333333838,
      "v": 100
    },
    {
      "midi": 61,
      "hit": false,
      "t": 222630.54000000286,
      "d": 131.57833333333838,
      "v": 100
    },
    {
      "midi": 57,
      "hit": false,
      "t": 222663.4345833362,
      "d": 131.57833333333838,
      "v": 100
    },
    {
      "midi": 64,
      "hit": false,
      "t": 222663.4345833362,
      "d": 131.57833333333838,
      "v": 100
    },
    {
      "midi": 61,
      "hit": false,
      "t": 223156.8533333362,
      "d": 131.57833333333838,
      "v": 73
    },
    {
      "midi": 64,
      "hit": false,
      "t": 223156.8533333362,
      "d": 131.57833333333838,
      "v": 73
    },
    {
      "midi": 69,
      "hit": false,
      "t": 223156.8533333362,
      "d": 131.57833333333838,
      "v": 73
    },
    {
      "midi": 57,
      "hit": false,
      "t": 223173.30062500288,
      "d": 131.57833333333838,
      "v": 73
    },
    {
      "midi": 69,
      "hit": false,
      "t": 223666.7193750029,
      "d": 131.57833333333838,
      "v": 80
    },
    {
      "midi": 40,
      "hit": false,
      "t": 223666.7193750029,
      "d": 526.3133333333535,
      "v": 80
    },
    {
      "midi": 57,
      "hit": false,
      "t": 223699.61395833624,
      "d": 131.57833333333838,
      "v": 80
    },
    {
      "midi": 61,
      "hit": false,
      "t": 223699.61395833624,
      "d": 131.57833333333838,
      "v": 80
    },
    {
      "midi": 64,
      "hit": false,
      "t": 223699.61395833624,
      "d": 131.57833333333838,
      "v": 80
    },
    {
      "midi": 61,
      "hit": false,
      "t": 224193.03270833625,
      "d": 131.57833333333838,
      "v": 100
    },
    {
      "midi": 64,
      "hit": false,
      "t": 224193.03270833625,
      "d": 131.57833333333838,
      "v": 100
    },
    {
      "midi": 68,
      "hit": false,
      "t": 224193.03270833625,
      "d": 131.57833333333838,
      "v": 100
    },
    {
      "midi": 45,
      "hit": false,
      "t": 224209.48000000292,
      "d": 3141.432708333421,
      "v": 100
    },
    {
      "midi": 57,
      "hit": false,
      "t": 224225.9272916696,
      "d": 131.57833333333838,
      "v": 100
    },
    {
      "midi": 57,
      "hit": false,
      "t": 224719.3460416696,
      "d": 131.57833333333838,
      "v": 73
    },
    {
      "midi": 61,
      "hit": false,
      "t": 224719.3460416696,
      "d": 131.57833333333838,
      "v": 73
    },
    {
      "midi": 64,
      "hit": false,
      "t": 224719.3460416696,
      "d": 131.57833333333838,
      "v": 73
    },
    {
      "midi": 68,
      "hit": false,
      "t": 224735.79333333627,
      "d": 131.57833333333838,
      "v": 73
    },
    {
      "midi": 68,
      "hit": false,
      "t": 225245.65937500296,
      "d": 131.57833333333838,
      "v": 80
    },
    {
      "midi": 61,
      "hit": false,
      "t": 225262.10666666963,
      "d": 131.57833333333838,
      "v": 80
    },
    {
      "midi": 64,
      "hit": false,
      "t": 225262.10666666963,
      "d": 131.57833333333838,
      "v": 80
    },
    {
      "midi": 57,
      "hit": false,
      "t": 225278.5539583363,
      "d": 131.57833333333838,
      "v": 80
    },
    {
      "midi": 57,
      "hit": false,
      "t": 225804.86729166962,
      "d": 115.13104166666744,
      "v": 100
    },
    {
      "midi": 61,
      "hit": false,
      "t": 225804.86729166962,
      "d": 115.13104166666744,
      "v": 100
    },
    {
      "midi": 68,
      "hit": false,
      "t": 225804.86729166962,
      "d": 115.13104166666744,
      "v": 100
    },
    {
      "midi": 64,
      "hit": false,
      "t": 225804.86729166962,
      "d": 131.57833333333838,
      "v": 100
    },
    {
      "midi": 68,
      "hit": false,
      "t": 226314.7333333363,
      "d": 115.13104166666744,
      "v": 73
    },
    {
      "midi": 57,
      "hit": false,
      "t": 226314.7333333363,
      "d": 131.57833333333838,
      "v": 73
    },
    {
      "midi": 61,
      "hit": false,
      "t": 226331.18062500298,
      "d": 131.57833333333838,
      "v": 73
    },
    {
      "midi": 64,
      "hit": false,
      "t": 226331.18062500298,
      "d": 131.57833333333838,
      "v": 73
    },
    {
      "midi": 57,
      "hit": false,
      "t": 226824.599375003,
      "d": 131.57833333333838,
      "v": 80
    },
    {
      "midi": 68,
      "hit": false,
      "t": 226824.599375003,
      "d": 131.57833333333838,
      "v": 80
    },
    {
      "midi": 61,
      "hit": false,
      "t": 226857.49395833633,
      "d": 131.57833333333838,
      "v": 80
    },
    {
      "midi": 64,
      "hit": false,
      "t": 226857.49395833633,
      "d": 131.57833333333838,
      "v": 80
    },
    {
      "midi": 64,
      "hit": false,
      "t": 227350.91270833634,
      "d": 148.0256250000093,
      "v": 100
    },
    {
      "midi": 67,
      "hit": false,
      "t": 227350.91270833634,
      "d": 148.0256250000093,
      "v": 100
    },
    {
      "midi": 33,
      "hit": false,
      "t": 227350.91270833634,
      "d": 2615.1193750000384,
      "v": 100
    },
    {
      "midi": 57,
      "hit": false,
      "t": 227383.80729166968,
      "d": 131.57833333333838,
      "v": 100
    },
    {
      "midi": 61,
      "hit": false,
      "t": 227383.80729166968,
      "d": 131.57833333333838,
      "v": 100
    },
    {
      "midi": 57,
      "hit": false,
      "t": 227910.120625003,
      "d": 115.13104166666744,
      "v": 73
    },
    {
      "midi": 61,
      "hit": false,
      "t": 227910.120625003,
      "d": 115.13104166666744,
      "v": 73
    },
    {
      "midi": 64,
      "hit": false,
      "t": 227910.120625003,
      "d": 115.13104166666744,
      "v": 73
    },
    {
      "midi": 67,
      "hit": false,
      "t": 227910.120625003,
      "d": 115.13104166666744,
      "v": 73
    },
    {
      "midi": 67,
      "hit": false,
      "t": 228419.98666666966,
      "d": 131.57833333333838,
      "v": 80
    },
    {
      "midi": 57,
      "hit": false,
      "t": 228436.43395833633,
      "d": 131.57833333333838,
      "v": 80
    },
    {
      "midi": 61,
      "hit": false,
      "t": 228436.43395833633,
      "d": 131.57833333333838,
      "v": 80
    },
    {
      "midi": 64,
      "hit": false,
      "t": 228436.43395833633,
      "d": 131.57833333333838,
      "v": 80
    },
    {
      "midi": 64,
      "hit": false,
      "t": 228929.85270833634,
      "d": 131.57833333333838,
      "v": 100
    },
    {
      "midi": 57,
      "hit": false,
      "t": 228946.30000000302,
      "d": 131.57833333333838,
      "v": 100
    },
    {
      "midi": 61,
      "hit": false,
      "t": 228946.30000000302,
      "d": 131.57833333333838,
      "v": 100
    },
    {
      "midi": 67,
      "hit": false,
      "t": 228946.30000000302,
      "d": 131.57833333333838,
      "v": 100
    },
    {
      "midi": 57,
      "hit": false,
      "t": 229456.1660416697,
      "d": 131.57833333333838,
      "v": 73
    },
    {
      "midi": 67,
      "hit": false,
      "t": 229456.1660416697,
      "d": 131.57833333333838,
      "v": 73
    },
    {
      "midi": 61,
      "hit": false,
      "t": 229472.61333333637,
      "d": 131.57833333333838,
      "v": 73
    },
    {
      "midi": 64,
      "hit": false,
      "t": 229472.61333333637,
      "d": 131.57833333333838,
      "v": 73
    },
    {
      "midi": 57,
      "hit": false,
      "t": 229998.92666666972,
      "d": 131.57833333333838,
      "v": 80
    },
    {
      "midi": 61,
      "hit": false,
      "t": 229998.92666666972,
      "d": 131.57833333333838,
      "v": 80
    },
    {
      "midi": 64,
      "hit": false,
      "t": 229998.92666666972,
      "d": 131.57833333333838,
      "v": 80
    },
    {
      "midi": 67,
      "hit": false,
      "t": 229998.92666666972,
      "d": 131.57833333333838,
      "v": 80
    },
    {
      "midi": 40,
      "hit": false,
      "t": 229998.92666666972,
      "d": 493.41875000001164,
      "v": 80
    },
    {
      "midi": 61,
      "hit": false,
      "t": 230525.24000000308,
      "d": 131.57833333333838,
      "v": 100
    },
    {
      "midi": 64,
      "hit": false,
      "t": 230525.24000000308,
      "d": 131.57833333333838,
      "v": 100
    },
    {
      "midi": 67,
      "hit": false,
      "t": 230525.24000000308,
      "d": 131.57833333333838,
      "v": 100
    },
    {
      "midi": 57,
      "hit": false,
      "t": 230541.68729166975,
      "d": 131.57833333333838,
      "v": 100
    },
    {
      "midi": 45,
      "hit": false,
      "t": 230541.68729166975,
      "d": 2105.253333333385,
      "v": 100
    },
    {
      "midi": 61,
      "hit": false,
      "t": 231035.10604166976,
      "d": 131.57833333333838,
      "v": 73
    },
    {
      "midi": 57,
      "hit": false,
      "t": 231051.55333333643,
      "d": 131.57833333333838,
      "v": 73
    },
    {
      "midi": 64,
      "hit": false,
      "t": 231051.55333333643,
      "d": 131.57833333333838,
      "v": 73
    },
    {
      "midi": 67,
      "hit": false,
      "t": 231068.0006250031,
      "d": 131.57833333333838,
      "v": 73
    },
    {
      "midi": 64,
      "hit": false,
      "t": 231594.31395833642,
      "d": 115.13104166666744,
      "v": 80
    },
    {
      "midi": 57,
      "hit": false,
      "t": 231594.31395833642,
      "d": 131.57833333333838,
      "v": 80
    },
    {
      "midi": 61,
      "hit": false,
      "t": 231594.31395833642,
      "d": 131.57833333333838,
      "v": 80
    },
    {
      "midi": 67,
      "hit": false,
      "t": 231594.31395833642,
      "d": 131.57833333333838,
      "v": 80
    },
    {
      "midi": 64,
      "hit": false,
      "t": 232087.73270833644,
      "d": 131.57833333333838,
      "v": 100
    },
    {
      "midi": 57,
      "hit": false,
      "t": 232104.1800000031,
      "d": 131.57833333333838,
      "v": 100
    },
    {
      "midi": 67,
      "hit": false,
      "t": 232104.1800000031,
      "d": 131.57833333333838,
      "v": 100
    },
    {
      "midi": 61,
      "hit": false,
      "t": 232120.62729166978,
      "d": 131.57833333333838,
      "v": 100
    },
    {
      "midi": 61,
      "hit": false,
      "t": 232630.49333333646,
      "d": 148.0256250000093,
      "v": 73
    },
    {
      "midi": 67,
      "hit": false,
      "t": 232646.94062500313,
      "d": 115.13104166666744,
      "v": 73
    },
    {
      "midi": 57,
      "hit": false,
      "t": 232646.94062500313,
      "d": 131.57833333333838,
      "v": 73
    },
    {
      "midi": 64,
      "hit": false,
      "t": 232663.3879166698,
      "d": 115.13104166666744,
      "v": 73
    },
    {
      "midi": 40,
      "hit": false,
      "t": 232663.3879166698,
      "d": 493.41875000001164,
      "v": 73
    },
    {
      "midi": 67,
      "hit": false,
      "t": 233140.35937500314,
      "d": 131.57833333333838,
      "v": 80
    },
    {
      "midi": 64,
      "hit": false,
      "t": 233173.25395833649,
      "d": 115.13104166666744,
      "v": 80
    },
    {
      "midi": 57,
      "hit": false,
      "t": 233173.25395833649,
      "d": 131.57833333333838,
      "v": 80
    },
    {
      "midi": 61,
      "hit": false,
      "t": 233173.25395833649,
      "d": 131.57833333333838,
      "v": 80
    },
    {
      "midi": 33,
      "hit": false,
      "t": 233173.25395833649,
      "d": 476.9714583333407,
      "v": 80
    },
    {
      "midi": 57,
      "hit": false,
      "t": 233666.6727083365,
      "d": 131.57833333333838,
      "v": 100
    },
    {
      "midi": 62,
      "hit": false,
      "t": 233666.6727083365,
      "d": 131.57833333333838,
      "v": 100
    },
    {
      "midi": 38,
      "hit": false,
      "t": 233666.6727083365,
      "d": 2088.806041666743,
      "v": 100
    },
    {
      "midi": 66,
      "hit": false,
      "t": 233683.12000000317,
      "d": 131.57833333333838,
      "v": 100
    },
    {
      "midi": 62,
      "hit": false,
      "t": 234192.98604166985,
      "d": 131.57833333333838,
      "v": 73
    },
    {
      "midi": 66,
      "hit": false,
      "t": 234209.43333333652,
      "d": 131.57833333333838,
      "v": 73
    },
    {
      "midi": 57,
      "hit": false,
      "t": 234225.8806250032,
      "d": 131.57833333333838,
      "v": 73
    },
    {
      "midi": 62,
      "hit": false,
      "t": 234735.74666666987,
      "d": 115.13104166666744,
      "v": 80
    },
    {
      "midi": 66,
      "hit": false,
      "t": 234735.74666666987,
      "d": 115.13104166666744,
      "v": 80
    },
    {
      "midi": 57,
      "hit": false,
      "t": 234752.19395833655,
      "d": 115.13104166666744,
      "v": 80
    },
    {
      "midi": 57,
      "hit": false,
      "t": 235245.61270833656,
      "d": 131.57833333333838,
      "v": 100
    },
    {
      "midi": 62,
      "hit": false,
      "t": 235245.61270833656,
      "d": 131.57833333333838,
      "v": 100
    },
    {
      "midi": 66,
      "hit": false,
      "t": 235262.06000000323,
      "d": 131.57833333333838,
      "v": 100
    },
    {
      "midi": 57,
      "hit": false,
      "t": 235788.37333333658,
      "d": 131.57833333333838,
      "v": 73
    },
    {
      "midi": 66,
      "hit": false,
      "t": 235788.37333333658,
      "d": 131.57833333333838,
      "v": 73
    },
    {
      "midi": 62,
      "hit": false,
      "t": 235804.82062500325,
      "d": 131.57833333333838,
      "v": 73
    },
    {
      "midi": 66,
      "hit": false,
      "t": 236298.23937500326,
      "d": 131.57833333333838,
      "v": 80
    },
    {
      "midi": 57,
      "hit": false,
      "t": 236314.68666666994,
      "d": 131.57833333333838,
      "v": 80
    },
    {
      "midi": 62,
      "hit": false,
      "t": 236314.68666666994,
      "d": 131.57833333333838,
      "v": 80
    },
    {
      "midi": 33,
      "hit": false,
      "t": 236314.68666666994,
      "d": 509.8660416666826,
      "v": 80
    },
    {
      "midi": 38,
      "hit": false,
      "t": 236824.55270833662,
      "d": 2878.2760416667443,
      "v": 100
    },
    {
      "midi": 57,
      "hit": false,
      "t": 236857.44729166996,
      "d": 131.57833333333838,
      "v": 100
    },
    {
      "midi": 62,
      "hit": false,
      "t": 236857.44729166996,
      "d": 131.57833333333838,
      "v": 100
    },
    {
      "midi": 66,
      "hit": false,
      "t": 236857.44729166996,
      "d": 131.57833333333838,
      "v": 100
    },
    {
      "midi": 57,
      "hit": false,
      "t": 237367.31333333664,
      "d": 131.57833333333838,
      "v": 73
    },
    {
      "midi": 62,
      "hit": false,
      "t": 237367.31333333664,
      "d": 131.57833333333838,
      "v": 73
    },
    {
      "midi": 66,
      "hit": false,
      "t": 237367.31333333664,
      "d": 131.57833333333838,
      "v": 73
    },
    {
      "midi": 66,
      "hit": false,
      "t": 237877.17937500332,
      "d": 131.57833333333838,
      "v": 80
    },
    {
      "midi": 57,
      "hit": false,
      "t": 237893.62666667,
      "d": 131.57833333333838,
      "v": 80
    },
    {
      "midi": 62,
      "hit": false,
      "t": 237893.62666667,
      "d": 131.57833333333838,
      "v": 80
    },
    {
      "midi": 57,
      "hit": false,
      "t": 238419.94000000332,
      "d": 131.57833333333838,
      "v": 100
    },
    {
      "midi": 62,
      "hit": false,
      "t": 238419.94000000332,
      "d": 131.57833333333838,
      "v": 100
    },
    {
      "midi": 66,
      "hit": false,
      "t": 238419.94000000332,
      "d": 131.57833333333838,
      "v": 100
    },
    {
      "midi": 62,
      "hit": false,
      "t": 238929.80604167,
      "d": 131.57833333333838,
      "v": 73
    },
    {
      "midi": 66,
      "hit": false,
      "t": 238946.25333333667,
      "d": 131.57833333333838,
      "v": 73
    },
    {
      "midi": 57,
      "hit": false,
      "t": 238962.70062500334,
      "d": 131.57833333333838,
      "v": 73
    },
    {
      "midi": 62,
      "hit": false,
      "t": 239456.11937500336,
      "d": 131.57833333333838,
      "v": 80
    },
    {
      "midi": 66,
      "hit": false,
      "t": 239456.11937500336,
      "d": 131.57833333333838,
      "v": 80
    },
    {
      "midi": 57,
      "hit": false,
      "t": 239472.56666667003,
      "d": 131.57833333333838,
      "v": 80
    },
    {
      "midi": 59,
      "hit": false,
      "t": 239998.88000000335,
      "d": 131.57833333333838,
      "v": 100
    },
    {
      "midi": 63,
      "hit": false,
      "t": 239998.88000000335,
      "d": 131.57833333333838,
      "v": 100
    },
    {
      "midi": 66,
      "hit": false,
      "t": 239998.88000000335,
      "d": 131.57833333333838,
      "v": 100
    },
    {
      "midi": 39,
      "hit": false,
      "t": 239998.88000000335,
      "d": 2615.1193750000675,
      "v": 100
    },
    {
      "midi": 59,
      "hit": false,
      "t": 240508.74604167003,
      "d": 131.57833333333838,
      "v": 73
    },
    {
      "midi": 63,
      "hit": false,
      "t": 240508.74604167003,
      "d": 131.57833333333838,
      "v": 73
    },
    {
      "midi": 66,
      "hit": false,
      "t": 240525.1933333367,
      "d": 131.57833333333838,
      "v": 73
    },
    {
      "midi": 59,
      "hit": false,
      "t": 241035.0593750034,
      "d": 131.57833333333838,
      "v": 80
    },
    {
      "midi": 66,
      "hit": false,
      "t": 241035.0593750034,
      "d": 131.57833333333838,
      "v": 80
    },
    {
      "midi": 63,
      "hit": false,
      "t": 241051.50666667006,
      "d": 131.57833333333838,
      "v": 80
    },
    {
      "midi": 59,
      "hit": false,
      "t": 241561.37270833674,
      "d": 131.57833333333838,
      "v": 100
    },
    {
      "midi": 63,
      "hit": false,
      "t": 241561.37270833674,
      "d": 131.57833333333838,
      "v": 100
    },
    {
      "midi": 66,
      "hit": false,
      "t": 241561.37270833674,
      "d": 131.57833333333838,
      "v": 100
    },
    {
      "midi": 63,
      "hit": false,
      "t": 242087.68604167007,
      "d": 131.57833333333838,
      "v": 73
    },
    {
      "midi": 66,
      "hit": false,
      "t": 242087.68604167007,
      "d": 131.57833333333838,
      "v": 73
    },
    {
      "midi": 59,
      "hit": false,
      "t": 242104.13333333674,
      "d": 131.57833333333838,
      "v": 73
    },
    {
      "midi": 59,
      "hit": false,
      "t": 242613.99937500342,
      "d": 131.57833333333838,
      "v": 80
    },
    {
      "midi": 63,
      "hit": false,
      "t": 242613.99937500342,
      "d": 131.57833333333838,
      "v": 80
    },
    {
      "midi": 66,
      "hit": false,
      "t": 242630.4466666701,
      "d": 131.57833333333838,
      "v": 80
    },
    {
      "midi": 35,
      "hit": false,
      "t": 242630.4466666701,
      "d": 509.8660416666826,
      "v": 80
    },
    {
      "midi": 59,
      "hit": false,
      "t": 243140.31270833677,
      "d": 131.57833333333838,
      "v": 100
    },
    {
      "midi": 63,
      "hit": false,
      "t": 243156.76000000344,
      "d": 131.57833333333838,
      "v": 100
    },
    {
      "midi": 66,
      "hit": false,
      "t": 243189.65458333679,
      "d": 131.57833333333838,
      "v": 100
    },
    {
      "midi": 39,
      "hit": false,
      "t": 243189.65458333679,
      "d": 3124.985416666779,
      "v": 100
    },
    {
      "midi": 63,
      "hit": false,
      "t": 243699.52062500347,
      "d": 115.13104166666744,
      "v": 73
    },
    {
      "midi": 59,
      "hit": false,
      "t": 243715.96791667014,
      "d": 131.57833333333838,
      "v": 73
    },
    {
      "midi": 66,
      "hit": false,
      "t": 243715.96791667014,
      "d": 131.57833333333838,
      "v": 73
    },
    {
      "midi": 63,
      "hit": false,
      "t": 244192.93937500348,
      "d": 131.57833333333838,
      "v": 80
    },
    {
      "midi": 66,
      "hit": false,
      "t": 244192.93937500348,
      "d": 131.57833333333838,
      "v": 80
    },
    {
      "midi": 59,
      "hit": false,
      "t": 244209.38666667015,
      "d": 131.57833333333838,
      "v": 80
    },
    {
      "midi": 59,
      "hit": false,
      "t": 244719.25270833683,
      "d": 131.57833333333838,
      "v": 100
    },
    {
      "midi": 63,
      "hit": false,
      "t": 244735.7000000035,
      "d": 131.57833333333838,
      "v": 100
    },
    {
      "midi": 66,
      "hit": false,
      "t": 244735.7000000035,
      "d": 131.57833333333838,
      "v": 100
    },
    {
      "midi": 63,
      "hit": false,
      "t": 245245.5660416702,
      "d": 131.57833333333838,
      "v": 73
    },
    {
      "midi": 59,
      "hit": false,
      "t": 245278.46062500353,
      "d": 131.57833333333838,
      "v": 73
    },
    {
      "midi": 66,
      "hit": false,
      "t": 245278.46062500353,
      "d": 131.57833333333838,
      "v": 73
    },
    {
      "midi": 59,
      "hit": false,
      "t": 245788.3266666702,
      "d": 131.57833333333838,
      "v": 80
    },
    {
      "midi": 63,
      "hit": false,
      "t": 245788.3266666702,
      "d": 131.57833333333838,
      "v": 80
    },
    {
      "midi": 66,
      "hit": false,
      "t": 245788.3266666702,
      "d": 131.57833333333838,
      "v": 80
    },
    {
      "midi": 57,
      "hit": false,
      "t": 246298.1927083369,
      "d": 131.57833333333838,
      "v": 100
    },
    {
      "midi": 61,
      "hit": false,
      "t": 246314.64000000356,
      "d": 131.57833333333838,
      "v": 100
    },
    {
      "midi": 64,
      "hit": false,
      "t": 246314.64000000356,
      "d": 131.57833333333838,
      "v": 100
    },
    {
      "midi": 33,
      "hit": false,
      "t": 246314.64000000356,
      "d": 3141.432708333363,
      "v": 100
    },
    {
      "midi": 57,
      "hit": false,
      "t": 246840.9533333369,
      "d": 131.57833333333838,
      "v": 73
    },
    {
      "midi": 61,
      "hit": false,
      "t": 246840.9533333369,
      "d": 131.57833333333838,
      "v": 73
    },
    {
      "midi": 64,
      "hit": false,
      "t": 246840.9533333369,
      "d": 131.57833333333838,
      "v": 73
    },
    {
      "midi": 57,
      "hit": false,
      "t": 247367.2666666702,
      "d": 131.57833333333838,
      "v": 80
    },
    {
      "midi": 61,
      "hit": false,
      "t": 247367.2666666702,
      "d": 131.57833333333838,
      "v": 80
    },
    {
      "midi": 64,
      "hit": false,
      "t": 247367.2666666702,
      "d": 131.57833333333838,
      "v": 80
    },
    {
      "midi": 61,
      "hit": false,
      "t": 247877.1327083369,
      "d": 131.57833333333838,
      "v": 100
    },
    {
      "midi": 57,
      "hit": false,
      "t": 247893.58000000357,
      "d": 131.57833333333838,
      "v": 100
    },
    {
      "midi": 64,
      "hit": false,
      "t": 247893.58000000357,
      "d": 131.57833333333838,
      "v": 100
    },
    {
      "midi": 57,
      "hit": false,
      "t": 248403.44604167025,
      "d": 131.57833333333838,
      "v": 73
    },
    {
      "midi": 61,
      "hit": false,
      "t": 248403.44604167025,
      "d": 131.57833333333838,
      "v": 73
    },
    {
      "midi": 64,
      "hit": false,
      "t": 248403.44604167025,
      "d": 131.57833333333838,
      "v": 73
    },
    {
      "midi": 57,
      "hit": false,
      "t": 248946.20666667024,
      "d": 131.57833333333838,
      "v": 80
    },
    {
      "midi": 61,
      "hit": false,
      "t": 248946.20666667024,
      "d": 131.57833333333838,
      "v": 80
    },
    {
      "midi": 64,
      "hit": false,
      "t": 248946.20666667024,
      "d": 131.57833333333838,
      "v": 80
    },
    {
      "midi": 61,
      "hit": false,
      "t": 249456.07270833693,
      "d": 131.57833333333838,
      "v": 100
    },
    {
      "midi": 65,
      "hit": false,
      "t": 249456.07270833693,
      "d": 131.57833333333838,
      "v": 100
    },
    {
      "midi": 37,
      "hit": false,
      "t": 249456.07270833693,
      "d": 3157.880000000121,
      "v": 100
    },
    {
      "midi": 56,
      "hit": false,
      "t": 249472.5200000036,
      "d": 131.57833333333838,
      "v": 100
    },
    {
      "midi": 65,
      "hit": false,
      "t": 249982.38604167028,
      "d": 131.57833333333838,
      "v": 73
    },
    {
      "midi": 61,
      "hit": false,
      "t": 249998.83333333695,
      "d": 131.57833333333838,
      "v": 73
    },
    {
      "midi": 56,
      "hit": false,
      "t": 250015.28062500362,
      "d": 131.57833333333838,
      "v": 73
    },
    {
      "midi": 61,
      "hit": false,
      "t": 250525.1466666703,
      "d": 131.57833333333838,
      "v": 80
    },
    {
      "midi": 56,
      "hit": false,
      "t": 250541.59395833698,
      "d": 131.57833333333838,
      "v": 80
    },
    {
      "midi": 65,
      "hit": false,
      "t": 250541.59395833698,
      "d": 131.57833333333838,
      "v": 80
    },
    {
      "midi": 56,
      "hit": false,
      "t": 251035.012708337,
      "d": 131.57833333333838,
      "v": 100
    },
    {
      "midi": 61,
      "hit": false,
      "t": 251035.012708337,
      "d": 131.57833333333838,
      "v": 100
    },
    {
      "midi": 65,
      "hit": false,
      "t": 251067.90729167033,
      "d": 131.57833333333838,
      "v": 100
    },
    {
      "midi": 65,
      "hit": false,
      "t": 251577.773333337,
      "d": 131.57833333333838,
      "v": 73
    },
    {
      "midi": 56,
      "hit": false,
      "t": 251594.22062500368,
      "d": 131.57833333333838,
      "v": 73
    },
    {
      "midi": 61,
      "hit": false,
      "t": 251594.22062500368,
      "d": 131.57833333333838,
      "v": 73
    },
    {
      "midi": 65,
      "hit": false,
      "t": 252104.08666667037,
      "d": 131.57833333333838,
      "v": 80
    },
    {
      "midi": 56,
      "hit": false,
      "t": 252120.53395833704,
      "d": 131.57833333333838,
      "v": 80
    },
    {
      "midi": 61,
      "hit": false,
      "t": 252120.53395833704,
      "d": 131.57833333333838,
      "v": 80
    },
    {
      "midi": 61,
      "hit": false,
      "t": 252613.95270833705,
      "d": 131.57833333333838,
      "v": 100
    },
    {
      "midi": 66,
      "hit": false,
      "t": 252613.95270833705,
      "d": 131.57833333333838,
      "v": 100
    },
    {
      "midi": 57,
      "hit": false,
      "t": 252630.40000000372,
      "d": 131.57833333333838,
      "v": 100
    },
    {
      "midi": 42,
      "hit": false,
      "t": 252630.40000000372,
      "d": 1578.9400000000605,
      "v": 100
    },
    {
      "midi": 61,
      "hit": false,
      "t": 253140.2660416704,
      "d": 148.0256250000093,
      "v": 73
    },
    {
      "midi": 57,
      "hit": false,
      "t": 253173.16062500374,
      "d": 148.0256250000093,
      "v": 73
    },
    {
      "midi": 66,
      "hit": false,
      "t": 253189.60791667041,
      "d": 115.13104166666744,
      "v": 73
    },
    {
      "midi": 57,
      "hit": false,
      "t": 253699.4739583371,
      "d": 115.13104166666744,
      "v": 80
    },
    {
      "midi": 66,
      "hit": false,
      "t": 253699.4739583371,
      "d": 115.13104166666744,
      "v": 80
    },
    {
      "midi": 61,
      "hit": false,
      "t": 253699.4739583371,
      "d": 131.57833333333838,
      "v": 80
    },
    {
      "midi": 57,
      "hit": false,
      "t": 254192.8927083371,
      "d": 131.57833333333838,
      "v": 100
    },
    {
      "midi": 40,
      "hit": false,
      "t": 254192.8927083371,
      "d": 1562.4927083333605,
      "v": 100
    },
    {
      "midi": 61,
      "hit": false,
      "t": 254209.34000000378,
      "d": 131.57833333333838,
      "v": 100
    },
    {
      "midi": 66,
      "hit": false,
      "t": 254209.34000000378,
      "d": 131.57833333333838,
      "v": 100
    },
    {
      "midi": 57,
      "hit": false,
      "t": 254735.6533333371,
      "d": 131.57833333333838,
      "v": 73
    },
    {
      "midi": 61,
      "hit": false,
      "t": 254735.6533333371,
      "d": 131.57833333333838,
      "v": 73
    },
    {
      "midi": 66,
      "hit": false,
      "t": 254735.6533333371,
      "d": 131.57833333333838,
      "v": 73
    },
    {
      "midi": 57,
      "hit": false,
      "t": 255245.5193750038,
      "d": 131.57833333333838,
      "v": 80
    },
    {
      "midi": 61,
      "hit": false,
      "t": 255245.5193750038,
      "d": 131.57833333333838,
      "v": 80
    },
    {
      "midi": 66,
      "hit": false,
      "t": 255278.41395833713,
      "d": 131.57833333333838,
      "v": 80
    },
    {
      "midi": 57,
      "hit": false,
      "t": 255771.83270833714,
      "d": 131.57833333333838,
      "v": 100
    },
    {
      "midi": 62,
      "hit": false,
      "t": 255771.83270833714,
      "d": 131.57833333333838,
      "v": 100
    },
    {
      "midi": 38,
      "hit": false,
      "t": 255771.83270833714,
      "d": 3141.432708333392,
      "v": 100
    },
    {
      "midi": 66,
      "hit": false,
      "t": 255788.2800000038,
      "d": 131.57833333333838,
      "v": 100
    },
    {
      "midi": 57,
      "hit": false,
      "t": 256314.59333333714,
      "d": 131.57833333333838,
      "v": 73
    },
    {
      "midi": 62,
      "hit": false,
      "t": 256314.59333333714,
      "d": 131.57833333333838,
      "v": 73
    },
    {
      "midi": 66,
      "hit": false,
      "t": 256314.59333333714,
      "d": 131.57833333333838,
      "v": 73
    },
    {
      "midi": 62,
      "hit": false,
      "t": 256824.45937500382,
      "d": 131.57833333333838,
      "v": 80
    },
    {
      "midi": 66,
      "hit": false,
      "t": 256824.45937500382,
      "d": 131.57833333333838,
      "v": 80
    },
    {
      "midi": 57,
      "hit": false,
      "t": 256840.9066666705,
      "d": 131.57833333333838,
      "v": 80
    },
    {
      "midi": 63,
      "hit": false,
      "t": 257367.2200000038,
      "d": 148.0256250000093,
      "v": 100
    },
    {
      "midi": 57,
      "hit": false,
      "t": 257383.66729167048,
      "d": 115.13104166666744,
      "v": 100
    },
    {
      "midi": 66,
      "hit": false,
      "t": 257383.66729167048,
      "d": 131.57833333333838,
      "v": 100
    },
    {
      "midi": 63,
      "hit": false,
      "t": 257877.0860416705,
      "d": 131.57833333333838,
      "v": 73
    },
    {
      "midi": 57,
      "hit": false,
      "t": 257893.53333333717,
      "d": 131.57833333333838,
      "v": 73
    },
    {
      "midi": 66,
      "hit": false,
      "t": 257893.53333333717,
      "d": 131.57833333333838,
      "v": 73
    },
    {
      "midi": 57,
      "hit": false,
      "t": 258403.39937500385,
      "d": 131.57833333333838,
      "v": 80
    },
    {
      "midi": 63,
      "hit": false,
      "t": 258419.84666667052,
      "d": 131.57833333333838,
      "v": 80
    },
    {
      "midi": 66,
      "hit": false,
      "t": 258419.84666667052,
      "d": 131.57833333333838,
      "v": 80
    },
    {
      "midi": 45,
      "hit": false,
      "t": 258929.7127083372,
      "d": 1578.9400000000314,
      "v": 100
    },
    {
      "midi": 57,
      "hit": false,
      "t": 258946.16000000387,
      "d": 131.57833333333838,
      "v": 100
    },
    {
      "midi": 64,
      "hit": false,
      "t": 258962.60729167055,
      "d": 148.0256250000093,
      "v": 100
    },
    {
      "midi": 61,
      "hit": false,
      "t": 258979.05458333722,
      "d": 115.13104166666744,
      "v": 100
    },
    {
      "midi": 57,
      "hit": false,
      "t": 259456.02604167056,
      "d": 131.57833333333838,
      "v": 73
    },
    {
      "midi": 61,
      "hit": false,
      "t": 259456.02604167056,
      "d": 131.57833333333838,
      "v": 73
    },
    {
      "midi": 64,
      "hit": false,
      "t": 259456.02604167056,
      "d": 131.57833333333838,
      "v": 73
    },
    {
      "midi": 57,
      "hit": false,
      "t": 259982.33937500388,
      "d": 148.0256250000093,
      "v": 80
    },
    {
      "midi": 64,
      "hit": false,
      "t": 259982.33937500388,
      "d": 148.0256250000093,
      "v": 80
    },
    {
      "midi": 61,
      "hit": false,
      "t": 260015.23395833722,
      "d": 131.57833333333838,
      "v": 80
    },
    {
      "midi": 57,
      "hit": false,
      "t": 260525.1000000039,
      "d": 131.57833333333838,
      "v": 100
    },
    {
      "midi": 61,
      "hit": false,
      "t": 260525.1000000039,
      "d": 131.57833333333838,
      "v": 100
    },
    {
      "midi": 64,
      "hit": false,
      "t": 260541.54729167058,
      "d": 131.57833333333838,
      "v": 100
    },
    {
      "midi": 42,
      "hit": false,
      "t": 260541.54729167058,
      "d": 1562.4927083333896,
      "v": 100
    },
    {
      "midi": 61,
      "hit": false,
      "t": 261051.41333333726,
      "d": 131.57833333333838,
      "v": 73
    },
    {
      "midi": 57,
      "hit": false,
      "t": 261067.86062500393,
      "d": 131.57833333333838,
      "v": 73
    },
    {
      "midi": 64,
      "hit": false,
      "t": 261067.86062500393,
      "d": 131.57833333333838,
      "v": 73
    },
    {
      "midi": 61,
      "hit": false,
      "t": 261577.7266666706,
      "d": 131.57833333333838,
      "v": 80
    },
    {
      "midi": 57,
      "hit": false,
      "t": 261594.17395833728,
      "d": 131.57833333333838,
      "v": 80
    },
    {
      "midi": 64,
      "hit": false,
      "t": 261594.17395833728,
      "d": 131.57833333333838,
      "v": 80
    },
    {
      "midi": 57,
      "hit": false,
      "t": 262104.04000000397,
      "d": 1546.0454166666896,
      "v": 66
    },
    {
      "midi": 47,
      "hit": false,
      "t": 262104.04000000397,
      "d": 1562.4927083333314,
      "v": 66
    },
    {
      "midi": 63,
      "hit": false,
      "t": 262104.04000000397,
      "d": 1562.4927083333314,
      "v": 66
    },
    {
      "midi": 66,
      "hit": false,
      "t": 262104.04000000397,
      "d": 1562.4927083333314,
      "v": 66
    },
    {
      "midi": 81,
      "hit": false,
      "t": 271577.68000000395,
      "d": 1595.3872916667024,
      "v": 56
    },
    {
      "midi": 93,
      "hit": false,
      "t": 271643.46916667063,
      "d": 1529.5981250000186,
      "v": 70
    },
    {
      "midi": 76,
      "hit": false,
      "t": 273173.06729167065,
      "d": 1578.9400000000023,
      "v": 63
    },
    {
      "midi": 88,
      "hit": false,
      "t": 273222.40916667064,
      "d": 1529.5981250000186,
      "v": 70
    },
    {
      "midi": 78,
      "hit": false,
      "t": 274752.00729167066,
      "d": 1546.0454166666605,
      "v": 58
    },
    {
      "midi": 90,
      "hit": false,
      "t": 274784.901875004,
      "d": 1513.1508333333186,
      "v": 70
    },
    {
      "midi": 73,
      "hit": false,
      "t": 276330.94729167066,
      "d": 1546.0454166666023,
      "v": 48
    },
    {
      "midi": 85,
      "hit": false,
      "t": 276347.3945833373,
      "d": 1513.1508333333186,
      "v": 58
    }
  ]
}