{
  "jsonPath": "Unknown/Unknown/Melanie B/tell-me.json",
  "path": "Unknown\\Unknown\\Melanie B\\Tell Me.mid",
  "name": "Tell Me",
  "difficulty": "Advanced",
  "bpm": 90.00009000009,
  "notes": [
    {
      "midi": 48,
      "hit": false,
      "t": 5333.328,
      "d": 80.55547500000011,
      "v": 97
    },
    {
      "midi": 48,
      "hit": false,
      "t": 5833.3275,
      "d": 87.49991250000039,
      "v": 96
    },
    {
      "midi": 41,
      "hit": false,
      "t": 6666.660000000001,
      "d": 94.44434999999976,
      "v": 97
    },
    {
      "midi": 41,
      "hit": false,
      "t": 7166.659500000001,
      "d": 87.49991250000039,
      "v": 97
    },
    {
      "midi": 48,
      "hit": false,
      "t": 7999.992000000001,
      "d": 80.55547500000011,
      "v": 97
    },
    {
      "midi": 48,
      "hit": false,
      "t": 8499.991500000002,
      "d": 87.49991249999948,
      "v": 96
    },
    {
      "midi": 41,
      "hit": false,
      "t": 9333.324,
      "d": 94.44434999999976,
      "v": 97
    },
    {
      "midi": 41,
      "hit": false,
      "t": 9833.3235,
      "d": 87.49991249999948,
      "v": 97
    },
    {
      "midi": 48,
      "hit": false,
      "t": 10666.655999999999,
      "d": 80.5554749999992,
      "v": 97
    },
    {
      "midi": 48,
      "hit": false,
      "t": 11166.655499999999,
      "d": 87.49991249999948,
      "v": 96
    },
    {
      "midi": 41,
      "hit": false,
      "t": 11999.987999999998,
      "d": 94.44434999999976,
      "v": 97
    },
    {
      "midi": 41,
      "hit": false,
      "t": 12499.987499999997,
      "d": 87.49991249999948,
      "v": 97
    },
    {
      "midi": 48,
      "hit": false,
      "t": 13333.319999999996,
      "d": 80.5554749999992,
      "v": 97
    },
    {
      "midi": 48,
      "hit": false,
      "t": 13833.319499999996,
      "d": 87.49991249999948,
      "v": 96
    },
    {
      "midi": 41,
      "hit": false,
      "t": 14666.651999999995,
      "d": 94.44434999999976,
      "v": 97
    },
    {
      "midi": 41,
      "hit": false,
      "t": 15166.651499999994,
      "d": 87.49991249999948,
      "v": 97
    },
    {
      "midi": 48,
      "hit": false,
      "t": 15999.983999999993,
      "d": 156.94428750000043,
      "v": 51
    },
    {
      "midi": 60,
      "hit": false,
      "t": 15999.983999999993,
      "d": 156.94428750000043,
      "v": 50
    },
    {
      "midi": 67,
      "hit": false,
      "t": 15999.984,
      "d": 1663.8872249999986,
      "v": 1
    },
    {
      "midi": 72,
      "hit": false,
      "t": 15999.984,
      "d": 1663.8872249999986,
      "v": 1
    },
    {
      "midi": 60,
      "hit": false,
      "t": 16666.649999999994,
      "d": 156.9442874999986,
      "v": 54
    },
    {
      "midi": 72,
      "hit": false,
      "t": 16666.649999999994,
      "d": 156.9442874999986,
      "v": 54
    },
    {
      "midi": 53,
      "hit": false,
      "t": 17333.31599999999,
      "d": 156.9442874999986,
      "v": 54
    },
    {
      "midi": 65,
      "hit": false,
      "t": 17333.31599999999,
      "d": 156.9442874999986,
      "v": 54
    },
    {
      "midi": 48,
      "hit": false,
      "t": 18666.64799999999,
      "d": 156.9442874999986,
      "v": 54
    },
    {
      "midi": 60,
      "hit": false,
      "t": 18666.64799999999,
      "d": 156.9442874999986,
      "v": 54
    },
    {
      "midi": 60,
      "hit": false,
      "t": 19333.313999999988,
      "d": 156.9442874999986,
      "v": 54
    },
    {
      "midi": 72,
      "hit": false,
      "t": 19333.313999999988,
      "d": 156.9442874999986,
      "v": 54
    },
    {
      "midi": 65,
      "hit": false,
      "t": 19999.979999999985,
      "d": 156.9442874999986,
      "v": 54
    },
    {
      "midi": 53,
      "hit": false,
      "t": 19999.979999999985,
      "d": 240.2775374999983,
      "v": 54
    },
    {
      "midi": 48,
      "hit": false,
      "t": 21333.311999999984,
      "d": 156.9442874999986,
      "v": 54
    },
    {
      "midi": 60,
      "hit": false,
      "t": 21333.311999999984,
      "d": 240.2775374999983,
      "v": 54
    },
    {
      "midi": 60,
      "hit": false,
      "t": 21999.97799999998,
      "d": 156.9442874999986,
      "v": 54
    },
    {
      "midi": 72,
      "hit": false,
      "t": 21999.97799999998,
      "d": 156.9442874999986,
      "v": 54
    },
    {
      "midi": 65,
      "hit": false,
      "t": 22666.64399999998,
      "d": 156.9442874999986,
      "v": 54
    },
    {
      "midi": 53,
      "hit": false,
      "t": 22666.64399999998,
      "d": 240.2775374999983,
      "v": 54
    },
    {
      "midi": 48,
      "hit": false,
      "t": 23999.975999999977,
      "d": 156.9442874999986,
      "v": 54
    },
    {
      "midi": 60,
      "hit": false,
      "t": 23999.975999999977,
      "d": 156.9442874999986,
      "v": 54
    },
    {
      "midi": 60,
      "hit": false,
      "t": 24666.641999999974,
      "d": 156.9442874999986,
      "v": 54
    },
    {
      "midi": 72,
      "hit": false,
      "t": 24666.641999999974,
      "d": 156.9442874999986,
      "v": 54
    },
    {
      "midi": 63,
      "hit": false,
      "t": 24999.975,
      "d": 330.55522500000006,
      "v": 1
    },
    {
      "midi": 70,
      "hit": false,
      "t": 24999.975,
      "d": 330.55522500000006,
      "v": 1
    },
    {
      "midi": 53,
      "hit": false,
      "t": 25333.30799999997,
      "d": 156.9442874999986,
      "v": 54
    },
    {
      "midi": 65,
      "hit": false,
      "t": 25333.30799999997,
      "d": 156.9442874999986,
      "v": 54
    },
    {
      "midi": 65,
      "hit": false,
      "t": 25333.307999999997,
      "d": 1024.9989749999986,
      "v": 1
    },
    {
      "midi": 70,
      "hit": false,
      "t": 25333.307999999997,
      "d": 1024.9989749999986,
      "v": 1
    },
    {
      "midi": 53,
      "hit": false,
      "t": 25999.97399999997,
      "d": 156.9442874999986,
      "v": 54
    },
    {
      "midi": 65,
      "hit": false,
      "t": 25999.97399999997,
      "d": 156.9442874999986,
      "v": 54
    },
    {
      "midi": 55,
      "hit": false,
      "t": 26333.306999999968,
      "d": 156.9442874999986,
      "v": 54
    },
    {
      "midi": 67,
      "hit": false,
      "t": 26333.306999999968,
      "d": 156.9442874999986,
      "v": 51
    },
    {
      "midi": 48,
      "hit": false,
      "t": 26666.639999999967,
      "d": 156.9442874999986,
      "v": 51
    },
    {
      "midi": 60,
      "hit": false,
      "t": 26666.639999999967,
      "d": 156.9442874999986,
      "v": 50
    },
    {
      "midi": 60,
      "hit": false,
      "t": 27333.305999999964,
      "d": 156.9442874999986,
      "v": 54
    },
    {
      "midi": 72,
      "hit": false,
      "t": 27333.305999999964,
      "d": 156.9442874999986,
      "v": 54
    },
    {
      "midi": 67,
      "hit": false,
      "t": 27333.305999999997,
      "d": 1024.9989749999986,
      "v": 1
    },
    {
      "midi": 72,
      "hit": false,
      "t": 27333.305999999997,
      "d": 1024.9989749999986,
      "v": 1
    },
    {
      "midi": 53,
      "hit": false,
      "t": 27999.97199999996,
      "d": 156.9442874999986,
      "v": 54
    },
    {
      "midi": 65,
      "hit": false,
      "t": 27999.97199999996,
      "d": 156.9442874999986,
      "v": 54
    },
    {
      "midi": 48,
      "hit": false,
      "t": 29333.30399999996,
      "d": 156.9442874999986,
      "v": 54
    },
    {
      "midi": 60,
      "hit": false,
      "t": 29333.30399999996,
      "d": 156.9442874999986,
      "v": 54
    },
    {
      "midi": 65,
      "hit": false,
      "t": 29333.303999999996,
      "d": 1663.8872249999986,
      "v": 1
    },
    {
      "midi": 70,
      "hit": false,
      "t": 29333.303999999996,
      "d": 1663.8872249999986,
      "v": 1
    },
    {
      "midi": 60,
      "hit": false,
      "t": 29999.969999999958,
      "d": 156.9442874999986,
      "v": 54
    },
    {
      "midi": 72,
      "hit": false,
      "t": 29999.969999999958,
      "d": 156.9442874999986,
      "v": 54
    },
    {
      "midi": 65,
      "hit": false,
      "t": 30666.635999999955,
      "d": 156.9442874999986,
      "v": 54
    },
    {
      "midi": 53,
      "hit": false,
      "t": 30666.635999999955,
      "d": 240.2775374999983,
      "v": 54
    },
    {
      "midi": 67,
      "hit": false,
      "t": 30999.968999999994,
      "d": 330.55522500000006,
      "v": 1
    },
    {
      "midi": 72,
      "hit": false,
      "t": 30999.968999999994,
      "d": 330.55522500000006,
      "v": 1
    },
    {
      "midi": 65,
      "hit": false,
      "t": 31333.301999999992,
      "d": 330.55522500000006,
      "v": 1
    },
    {
      "midi": 70,
      "hit": false,
      "t": 31333.301999999992,
      "d": 330.55522500000006,
      "v": 1
    },
    {
      "midi": 63,
      "hit": false,
      "t": 31666.63499999999,
      "d": 330.55522500000006,
      "v": 1
    },
    {
      "midi": 67,
      "hit": false,
      "t": 31666.63499999999,
      "d": 330.55522500000006,
      "v": 1
    },
    {
      "midi": 48,
      "hit": false,
      "t": 31999.967999999953,
      "d": 156.9442874999986,
      "v": 54
    },
    {
      "midi": 60,
      "hit": false,
      "t": 31999.967999999953,
      "d": 240.2775374999983,
      "v": 54
    },
    {
      "midi": 65,
      "hit": false,
      "t": 31999.96799999999,
      "d": 663.8882249999988,
      "v": 1
    },
    {
      "midi": 70,
      "hit": false,
      "t": 31999.96799999999,
      "d": 663.8882249999988,
      "v": 1
    },
    {
      "midi": 60,
      "hit": false,
      "t": 32666.63399999995,
      "d": 156.9442874999986,
      "v": 54
    },
    {
      "midi": 72,
      "hit": false,
      "t": 32666.63399999995,
      "d": 156.9442874999986,
      "v": 54
    },
    {
      "midi": 63,
      "hit": false,
      "t": 32666.633999999987,
      "d": 719.443725000001,
      "v": 1
    },
    {
      "midi": 67,
      "hit": false,
      "t": 32666.633999999987,
      "d": 719.443725000001,
      "v": 1
    },
    {
      "midi": 65,
      "hit": false,
      "t": 33333.29999999995,
      "d": 156.94428750000225,
      "v": 54
    },
    {
      "midi": 53,
      "hit": false,
      "t": 33333.29999999995,
      "d": 240.27753750000556,
      "v": 54
    },
    {
      "midi": 48,
      "hit": false,
      "t": 34666.631999999954,
      "d": 156.94428750000225,
      "v": 54
    },
    {
      "midi": 60,
      "hit": false,
      "t": 34666.631999999954,
      "d": 156.94428750000225,
      "v": 54
    },
    {
      "midi": 60,
      "hit": false,
      "t": 35333.29799999996,
      "d": 156.94428750000225,
      "v": 54
    },
    {
      "midi": 72,
      "hit": false,
      "t": 35333.29799999996,
      "d": 156.94428750000225,
      "v": 54
    },
    {
      "midi": 53,
      "hit": false,
      "t": 35999.96399999996,
      "d": 156.94428750000225,
      "v": 54
    },
    {
      "midi": 65,
      "hit": false,
      "t": 35999.96399999996,
      "d": 156.94428750000225,
      "v": 54
    },
    {
      "midi": 53,
      "hit": false,
      "t": 36666.62999999997,
      "d": 156.94428750000225,
      "v": 54
    },
    {
      "midi": 65,
      "hit": false,
      "t": 36666.62999999997,
      "d": 156.94428750000225,
      "v": 54
    },
    {
      "midi": 55,
      "hit": false,
      "t": 36999.96299999997,
      "d": 156.94428750000225,
      "v": 54
    },
    {
      "midi": 67,
      "hit": false,
      "t": 36999.96299999997,
      "d": 156.94428750000225,
      "v": 51
    },
    {
      "midi": 36,
      "hit": false,
      "t": 37333.295999999966,
      "d": 156.94428750000225,
      "v": 61
    },
    {
      "midi": 55,
      "hit": false,
      "t": 37333.295999999966,
      "d": 156.94428750000225,
      "v": 61
    },
    {
      "midi": 67,
      "hit": false,
      "t": 37333.295999999966,
      "d": 156.94428750000225,
      "v": 60
    },
    {
      "midi": 36,
      "hit": false,
      "t": 37999.96199999997,
      "d": 156.94428750000225,
      "v": 61
    },
    {
      "midi": 60,
      "hit": false,
      "t": 37999.96199999997,
      "d": 156.94428750000225,
      "v": 64
    },
    {
      "midi": 72,
      "hit": false,
      "t": 37999.96199999997,
      "d": 156.94428750000225,
      "v": 64
    },
    {
      "midi": 41,
      "hit": false,
      "t": 38666.627999999975,
      "d": 156.94428750000225,
      "v": 61
    },
    {
      "midi": 53,
      "hit": false,
      "t": 38666.627999999975,
      "d": 156.94428750000225,
      "v": 64
    },
    {
      "midi": 65,
      "hit": false,
      "t": 38666.627999999975,
      "d": 156.94428750000225,
      "v": 64
    },
    {
      "midi": 36,
      "hit": false,
      "t": 39999.95999999998,
      "d": 156.94428750000225,
      "v": 61
    },
    {
      "midi": 36,
      "hit": false,
      "t": 40666.62599999998,
      "d": 156.94428750000225,
      "v": 61
    },
    {
      "midi": 41,
      "hit": false,
      "t": 41333.29199999999,
      "d": 156.94428750000225,
      "v": 61
    },
    {
      "midi": 36,
      "hit": false,
      "t": 42666.62399999999,
      "d": 156.94428750000225,
      "v": 61
    },
    {
      "midi": 36,
      "hit": false,
      "t": 43333.28999999999,
      "d": 156.94428750000225,
      "v": 61
    },
    {
      "midi": 41,
      "hit": false,
      "t": 43999.956,
      "d": 156.94428750000225,
      "v": 61
    },
    {
      "midi": 36,
      "hit": false,
      "t": 45333.288,
      "d": 156.94428750000225,
      "v": 61
    },
    {
      "midi": 36,
      "hit": false,
      "t": 45999.954000000005,
      "d": 156.94428750000225,
      "v": 61
    },
    {
      "midi": 41,
      "hit": false,
      "t": 46666.62000000001,
      "d": 156.94428750000225,
      "v": 61
    },
    {
      "midi": 36,
      "hit": false,
      "t": 47999.95200000001,
      "d": 156.94428750000225,
      "v": 61
    },
    {
      "midi": 36,
      "hit": false,
      "t": 48666.61800000002,
      "d": 156.94428750000225,
      "v": 61
    },
    {
      "midi": 41,
      "hit": false,
      "t": 49333.28400000002,
      "d": 156.94428750000225,
      "v": 61
    },
    {
      "midi": 36,
      "hit": false,
      "t": 50666.61600000002,
      "d": 156.94428750000225,
      "v": 61
    },
    {
      "midi": 36,
      "hit": false,
      "t": 51333.28200000003,
      "d": 156.94428750000225,
      "v": 61
    },
    {
      "midi": 41,
      "hit": false,
      "t": 51999.94800000003,
      "d": 156.94428750000225,
      "v": 61
    },
    {
      "midi": 36,
      "hit": false,
      "t": 53333.280000000035,
      "d": 156.94428750000225,
      "v": 61
    },
    {
      "midi": 36,
      "hit": false,
      "t": 53999.94600000004,
      "d": 156.94428750000225,
      "v": 61
    },
    {
      "midi": 41,
      "hit": false,
      "t": 54666.612000000045,
      "d": 156.94428750000225,
      "v": 61
    },
    {
      "midi": 36,
      "hit": false,
      "t": 55999.94400000005,
      "d": 156.94428750000225,
      "v": 61
    },
    {
      "midi": 36,
      "hit": false,
      "t": 56666.61000000005,
      "d": 156.94428750000225,
      "v": 61
    },
    {
      "midi": 41,
      "hit": false,
      "t": 57333.276000000056,
      "d": 156.94428750000225,
      "v": 61
    },
    {
      "midi": 55,
      "hit": false,
      "t": 58527.719249999995,
      "d": 163.88872499999707,
      "v": 1
    },
    {
      "midi": 67,
      "hit": false,
      "t": 58527.719249999995,
      "d": 163.88872499999707,
      "v": 1
    },
    {
      "midi": 36,
      "hit": false,
      "t": 58666.60800000006,
      "d": 156.94428750000225,
      "v": 61
    },
    {
      "midi": 55,
      "hit": false,
      "t": 58666.60800000006,
      "d": 156.94428750000225,
      "v": 61
    },
    {
      "midi": 67,
      "hit": false,
      "t": 58666.60800000006,
      "d": 156.94428750000225,
      "v": 60
    },
    {
      "midi": 60,
      "hit": false,
      "t": 58694.385749999994,
      "d": 1330.5542249999999,
      "v": 1
    },
    {
      "midi": 72,
      "hit": false,
      "t": 58694.385749999994,
      "d": 1330.5542249999999,
      "v": 1
    },
    {
      "midi": 36,
      "hit": false,
      "t": 59333.27400000006,
      "d": 156.94428750000225,
      "v": 61
    },
    {
      "midi": 60,
      "hit": false,
      "t": 59333.27400000006,
      "d": 156.94428750000225,
      "v": 64
    },
    {
      "midi": 72,
      "hit": false,
      "t": 59333.27400000006,
      "d": 156.94428750000225,
      "v": 64
    },
    {
      "midi": 41,
      "hit": false,
      "t": 59999.94000000007,
      "d": 156.94428750000225,
      "v": 61
    },
    {
      "midi": 53,
      "hit": false,
      "t": 59999.94000000007,
      "d": 156.94428750000225,
      "v": 64
    },
    {
      "midi": 65,
      "hit": false,
      "t": 59999.94000000007,
      "d": 156.94428750000225,
      "v": 64
    },
    {
      "midi": 62,
      "hit": false,
      "t": 60027.717749999996,
      "d": 1330.5542249999999,
      "v": 1
    },
    {
      "midi": 74,
      "hit": false,
      "t": 60027.717749999996,
      "d": 1330.5542249999999,
      "v": 1
    },
    {
      "midi": 36,
      "hit": false,
      "t": 61333.27200000007,
      "d": 156.94428750000225,
      "v": 61
    },
    {
      "midi": 63,
      "hit": false,
      "t": 61361.04975,
      "d": 830.5547250000018,
      "v": 1
    },
    {
      "midi": 75,
      "hit": false,
      "t": 61361.04975,
      "d": 830.5547250000018,
      "v": 1
    },
    {
      "midi": 36,
      "hit": false,
      "t": 61999.938000000075,
      "d": 156.94428750000225,
      "v": 61
    },
    {
      "midi": 62,
      "hit": false,
      "t": 62194.38225,
      "d": 330.5552249999964,
      "v": 1
    },
    {
      "midi": 74,
      "hit": false,
      "t": 62194.38225,
      "d": 330.5552249999964,
      "v": 1
    },
    {
      "midi": 58,
      "hit": false,
      "t": 62527.71525,
      "d": 663.8882250000024,
      "v": 1
    },
    {
      "midi": 70,
      "hit": false,
      "t": 62527.71525,
      "d": 663.8882250000024,
      "v": 1
    },
    {
      "midi": 41,
      "hit": false,
      "t": 62666.60400000008,
      "d": 156.94428750000225,
      "v": 61
    },
    {
      "midi": 36,
      "hit": false,
      "t": 63999.93600000008,
      "d": 156.94428750000225,
      "v": 61
    },
    {
      "midi": 36,
      "hit": false,
      "t": 64666.602000000086,
      "d": 156.94428750000225,
      "v": 61
    },
    {
      "midi": 41,
      "hit": false,
      "t": 65333.26800000009,
      "d": 156.94428750000225,
      "v": 61
    },
    {
      "midi": 36,
      "hit": false,
      "t": 66666.6000000001,
      "d": 156.94428749999497,
      "v": 61
    },
    {
      "midi": 36,
      "hit": false,
      "t": 67333.26600000009,
      "d": 156.94428749999497,
      "v": 61
    },
    {
      "midi": 41,
      "hit": false,
      "t": 67999.93200000009,
      "d": 156.94428749999497,
      "v": 61
    },
    {
      "midi": 43,
      "hit": false,
      "t": 69166.5975,
      "d": 163.88872499999707,
      "v": 1
    },
    {
      "midi": 55,
      "hit": false,
      "t": 69166.5975,
      "d": 163.88872499999707,
      "v": 1
    },
    {
      "midi": 48,
      "hit": false,
      "t": 69333.264,
      "d": 1330.5542249999999,
      "v": 1
    },
    {
      "midi": 60,
      "hit": false,
      "t": 69333.264,
      "d": 1330.5542249999999,
      "v": 1
    },
    {
      "midi": 36,
      "hit": false,
      "t": 69333.26400000008,
      "d": 156.94428749999497,
      "v": 61
    },
    {
      "midi": 36,
      "hit": false,
      "t": 69999.93000000008,
      "d": 156.94428749999497,
      "v": 61
    },
    {
      "midi": 50,
      "hit": false,
      "t": 70666.59599999999,
      "d": 1330.5542249999999,
      "v": 1
    },
    {
      "midi": 62,
      "hit": false,
      "t": 70666.59599999999,
      "d": 1330.5542249999999,
      "v": 1
    },
    {
      "midi": 41,
      "hit": false,
      "t": 70666.59600000008,
      "d": 156.94428749999497,
      "v": 61
    },
    {
      "midi": 51,
      "hit": false,
      "t": 71999.92799999999,
      "d": 830.5547249999945,
      "v": 1
    },
    {
      "midi": 63,
      "hit": false,
      "t": 71999.92799999999,
      "d": 830.5547249999945,
      "v": 1
    },
    {
      "midi": 36,
      "hit": false,
      "t": 71999.92800000007,
      "d": 156.94428749999497,
      "v": 61
    },
    {
      "midi": 36,
      "hit": false,
      "t": 72666.59400000007,
      "d": 156.94428749999497,
      "v": 61
    },
    {
      "midi": 53,
      "hit": false,
      "t": 72833.26049999997,
      "d": 858.3324750000029,
      "v": 1
    },
    {
      "midi": 65,
      "hit": false,
      "t": 72833.26049999997,
      "d": 858.3324750000029,
      "v": 1
    },
    {
      "midi": 41,
      "hit": false,
      "t": 73333.26000000007,
      "d": 156.94428749999497,
      "v": 61
    },
    {
      "midi": 36,
      "hit": false,
      "t": 74666.59200000006,
      "d": 156.94428749999497,
      "v": 61
    },
    {
      "midi": 36,
      "hit": false,
      "t": 75333.25800000006,
      "d": 156.94428749999497,
      "v": 61
    },
    {
      "midi": 41,
      "hit": false,
      "t": 75999.92400000006,
      "d": 156.94428749999497,
      "v": 61
    },
    {
      "midi": 36,
      "hit": false,
      "t": 77333.25600000005,
      "d": 156.94428749999497,
      "v": 61
    },
    {
      "midi": 36,
      "hit": false,
      "t": 77999.92200000005,
      "d": 156.94428749999497,
      "v": 61
    },
    {
      "midi": 41,
      "hit": false,
      "t": 78666.58800000005,
      "d": 156.94428749999497,
      "v": 61
    },
    {
      "midi": 67,
      "hit": false,
      "t": 79999.91999999998,
      "d": 1663.8872249999986,
      "v": 1
    },
    {
      "midi": 72,
      "hit": false,
      "t": 79999.91999999998,
      "d": 1663.8872249999986,
      "v": 1
    },
    {
      "midi": 48,
      "hit": false,
      "t": 79999.92000000004,
      "d": 156.94428749999497,
      "v": 51
    },
    {
      "midi": 60,
      "hit": false,
      "t": 79999.92000000004,
      "d": 156.94428749999497,
      "v": 50
    },
    {
      "midi": 60,
      "hit": false,
      "t": 80666.58600000004,
      "d": 156.94428749999497,
      "v": 54
    },
    {
      "midi": 72,
      "hit": false,
      "t": 80666.58600000004,
      "d": 156.94428749999497,
      "v": 54
    },
    {
      "midi": 53,
      "hit": false,
      "t": 81333.25200000004,
      "d": 156.94428749999497,
      "v": 54
    },
    {
      "midi": 65,
      "hit": false,
      "t": 81333.25200000004,
      "d": 156.94428749999497,
      "v": 54
    },
    {
      "midi": 48,
      "hit": false,
      "t": 82666.58400000003,
      "d": 156.94428749999497,
      "v": 54
    },
    {
      "midi": 60,
      "hit": false,
      "t": 82666.58400000003,
      "d": 156.94428749999497,
      "v": 54
    },
    {
      "midi": 60,
      "hit": false,
      "t": 83333.25000000003,
      "d": 156.94428749999497,
      "v": 54
    },
    {
      "midi": 72,
      "hit": false,
      "t": 83333.25000000003,
      "d": 156.94428749999497,
      "v": 54
    },
    {
      "midi": 65,
      "hit": false,
      "t": 83999.91600000003,
      "d": 156.94428749999497,
      "v": 54
    },
    {
      "midi": 53,
      "hit": false,
      "t": 83999.91600000003,
      "d": 240.277537499991,
      "v": 54
    },
    {
      "midi": 48,
      "hit": false,
      "t": 85333.24800000002,
      "d": 156.94428749999497,
      "v": 54
    },
    {
      "midi": 60,
      "hit": false,
      "t": 85333.24800000002,
      "d": 240.277537499991,
      "v": 54
    },
    {
      "midi": 60,
      "hit": false,
      "t": 85999.91400000002,
      "d": 156.94428749999497,
      "v": 54
    },
    {
      "midi": 72,
      "hit": false,
      "t": 85999.91400000002,
      "d": 156.94428749999497,
      "v": 54
    },
    {
      "midi": 65,
      "hit": false,
      "t": 86666.58000000002,
      "d": 156.94428749999497,
      "v": 54
    },
    {
      "midi": 53,
      "hit": false,
      "t": 86666.58000000002,
      "d": 240.277537499991,
      "v": 54
    },
    {
      "midi": 48,
      "hit": false,
      "t": 87999.91200000001,
      "d": 156.94428749999497,
      "v": 54
    },
    {
      "midi": 60,
      "hit": false,
      "t": 87999.91200000001,
      "d": 156.94428749999497,
      "v": 54
    },
    {
      "midi": 60,
      "hit": false,
      "t": 88666.57800000001,
      "d": 156.94428749999497,
      "v": 54
    },
    {
      "midi": 72,
      "hit": false,
      "t": 88666.57800000001,
      "d": 156.94428749999497,
      "v": 54
    },
    {
      "midi": 63,
      "hit": false,
      "t": 88999.91099999998,
      "d": 330.5552250000037,
      "v": 1
    },
    {
      "midi": 70,
      "hit": false,
      "t": 88999.91099999998,
      "d": 330.5552250000037,
      "v": 1
    },
    {
      "midi": 65,
      "hit": false,
      "t": 89333.24399999998,
      "d": 1024.998974999995,
      "v": 1
    },
    {
      "midi": 70,
      "hit": false,
      "t": 89333.24399999998,
      "d": 1024.998974999995,
      "v": 1
    },
    {
      "midi": 53,
      "hit": false,
      "t": 89333.244,
      "d": 156.94428749999497,
      "v": 54
    },
    {
      "midi": 65,
      "hit": false,
      "t": 89333.244,
      "d": 156.94428749999497,
      "v": 54
    },
    {
      "midi": 53,
      "hit": false,
      "t": 89999.91,
      "d": 156.94428749999497,
      "v": 54
    },
    {
      "midi": 65,
      "hit": false,
      "t": 89999.91,
      "d": 156.94428749999497,
      "v": 54
    },
    {
      "midi": 55,
      "hit": false,
      "t": 90333.243,
      "d": 156.94428749999497,
      "v": 54
    },
    {
      "midi": 67,
      "hit": false,
      "t": 90333.243,
      "d": 156.94428749999497,
      "v": 51
    },
    {
      "midi": 48,
      "hit": false,
      "t": 90666.576,
      "d": 156.94428749999497,
      "v": 51
    },
    {
      "midi": 60,
      "hit": false,
      "t": 90666.576,
      "d": 156.94428749999497,
      "v": 50
    },
    {
      "midi": 67,
      "hit": false,
      "t": 91333.24199999997,
      "d": 1024.998974999995,
      "v": 1
    },
    {
      "midi": 72,
      "hit": false,
      "t": 91333.24199999997,
      "d": 1024.998974999995,
      "v": 1
    },
    {
      "midi": 60,
      "hit": false,
      "t": 91333.242,
      "d": 156.94428749999497,
      "v": 54
    },
    {
      "midi": 72,
      "hit": false,
      "t": 91333.242,
      "d": 156.94428749999497,
      "v": 54
    },
    {
      "midi": 53,
      "hit": false,
      "t": 91999.908,
      "d": 156.94428749999497,
      "v": 54
    },
    {
      "midi": 65,
      "hit": false,
      "t": 91999.908,
      "d": 156.94428749999497,
      "v": 54
    },
    {
      "midi": 65,
      "hit": false,
      "t": 93333.23999999996,
      "d": 1663.8872249999986,
      "v": 1
    },
    {
      "midi": 70,
      "hit": false,
      "t": 93333.23999999996,
      "d": 1663.8872249999986,
      "v": 1
    },
    {
      "midi": 48,
      "hit": false,
      "t": 93333.23999999999,
      "d": 156.94428749999497,
      "v": 54
    },
    {
      "midi": 60,
      "hit": false,
      "t": 93333.23999999999,
      "d": 156.94428749999497,
      "v": 54
    },
    {
      "midi": 60,
      "hit": false,
      "t": 93999.90599999999,
      "d": 156.94428749999497,
      "v": 54
    },
    {
      "midi": 72,
      "hit": false,
      "t": 93999.90599999999,
      "d": 156.94428749999497,
      "v": 54
    },
    {
      "midi": 65,
      "hit": false,
      "t": 94666.57199999999,
      "d": 156.94428749999497,
      "v": 54
    },
    {
      "midi": 53,
      "hit": false,
      "t": 94666.57199999999,
      "d": 240.277537499991,
      "v": 54
    },
    {
      "midi": 67,
      "hit": false,
      "t": 94999.90499999996,
      "d": 330.5552250000037,
      "v": 1
    },
    {
      "midi": 72,
      "hit": false,
      "t": 94999.90499999996,
      "d": 330.5552250000037,
      "v": 1
    },
    {
      "midi": 65,
      "hit": false,
      "t": 95333.23799999995,
      "d": 330.5552250000037,
      "v": 1
    },
    {
      "midi": 70,
      "hit": false,
      "t": 95333.23799999995,
      "d": 330.5552250000037,
      "v": 1
    },
    {
      "midi": 63,
      "hit": false,
      "t": 95666.57099999995,
      "d": 330.5552250000037,
      "v": 1
    },
    {
      "midi": 67,
      "hit": false,
      "t": 95666.57099999995,
      "d": 330.5552250000037,
      "v": 1
    },
    {
      "midi": 65,
      "hit": false,
      "t": 95999.90399999995,
      "d": 663.8882250000024,
      "v": 1
    },
    {
      "midi": 70,
      "hit": false,
      "t": 95999.90399999995,
      "d": 663.8882250000024,
      "v": 1
    },
    {
      "midi": 48,
      "hit": false,
      "t": 95999.90399999998,
      "d": 156.94428749999497,
      "v": 54
    },
    {
      "midi": 60,
      "hit": false,
      "t": 95999.90399999998,
      "d": 240.277537499991,
      "v": 54
    },
    {
      "midi": 63,
      "hit": false,
      "t": 96666.56999999995,
      "d": 719.4437250000046,
      "v": 1
    },
    {
      "midi": 67,
      "hit": false,
      "t": 96666.56999999995,
      "d": 719.4437250000046,
      "v": 1
    },
    {
      "midi": 60,
      "hit": false,
      "t": 96666.56999999998,
      "d": 156.94428749999497,
      "v": 54
    },
    {
      "midi": 72,
      "hit": false,
      "t": 96666.56999999998,
      "d": 156.94428749999497,
      "v": 54
    },
    {
      "midi": 65,
      "hit": false,
      "t": 97333.23599999998,
      "d": 156.94428749999497,
      "v": 54
    },
    {
      "midi": 53,
      "hit": false,
      "t": 97333.23599999998,
      "d": 240.277537499991,
      "v": 54
    },
    {
      "midi": 48,
      "hit": false,
      "t": 98666.56799999997,
      "d": 156.94428749999497,
      "v": 54
    },
    {
      "midi": 60,
      "hit": false,
      "t": 98666.56799999997,
      "d": 156.94428749999497,
      "v": 54
    },
    {
      "midi": 60,
      "hit": false,
      "t": 99333.23399999997,
      "d": 156.94428749999497,
      "v": 54
    },
    {
      "midi": 72,
      "hit": false,
      "t": 99333.23399999997,
      "d": 156.94428749999497,
      "v": 54
    },
    {
      "midi": 53,
      "hit": false,
      "t": 99999.89999999997,
      "d": 156.94428749999497,
      "v": 54
    },
    {
      "midi": 65,
      "hit": false,
      "t": 99999.89999999997,
      "d": 156.94428749999497,
      "v": 54
    },
    {
      "midi": 53,
      "hit": false,
      "t": 100666.56599999996,
      "d": 156.94428749999497,
      "v": 54
    },
    {
      "midi": 65,
      "hit": false,
      "t": 100666.56599999996,
      "d": 156.94428749999497,
      "v": 54
    },
    {
      "midi": 55,
      "hit": false,
      "t": 100999.89899999996,
      "d": 156.94428749999497,
      "v": 54
    },
    {
      "midi": 67,
      "hit": false,
      "t": 100999.89899999996,
      "d": 156.94428749999497,
      "v": 51
    },
    {
      "midi": 55,
      "hit": false,
      "t": 101333.23199999996,
      "d": 156.94428749999497,
      "v": 61
    },
    {
      "midi": 67,
      "hit": false,
      "t": 101333.23199999996,
      "d": 156.94428749999497,
      "v": 60
    },
    {
      "midi": 60,
      "hit": false,
      "t": 101999.89799999996,
      "d": 156.94428749999497,
      "v": 64
    },
    {
      "midi": 72,
      "hit": false,
      "t": 101999.89799999996,
      "d": 156.94428749999497,
      "v": 64
    },
    {
      "midi": 53,
      "hit": false,
      "t": 102666.56399999995,
      "d": 156.94428749999497,
      "v": 64
    },
    {
      "midi": 65,
      "hit": false,
      "t": 102666.56399999995,
      "d": 156.94428749999497,
      "v": 64
    },
    {
      "midi": 36,
      "hit": false,
      "t": 103999.89599999995,
      "d": 156.94428749999497,
      "v": 61
    },
    {
      "midi": 36,
      "hit": false,
      "t": 104666.56199999995,
      "d": 156.94428749999497,
      "v": 61
    },
    {
      "midi": 41,
      "hit": false,
      "t": 105333.22799999994,
      "d": 156.94428749999497,
      "v": 61
    },
    {
      "midi": 36,
      "hit": false,
      "t": 106666.55999999994,
      "d": 156.94428749999497,
      "v": 61
    },
    {
      "midi": 36,
      "hit": false,
      "t": 107333.22599999994,
      "d": 156.94428749999497,
      "v": 61
    },
    {
      "midi": 41,
      "hit": false,
      "t": 107999.89199999993,
      "d": 156.94428749999497,
      "v": 61
    },
    {
      "midi": 36,
      "hit": false,
      "t": 109333.22399999993,
      "d": 156.94428749999497,
      "v": 61
    },
    {
      "midi": 36,
      "hit": false,
      "t": 109999.88999999993,
      "d": 156.94428749999497,
      "v": 61
    },
    {
      "midi": 41,
      "hit": false,
      "t": 110666.55599999992,
      "d": 156.94428749999497,
      "v": 61
    },
    {
      "midi": 36,
      "hit": false,
      "t": 111999.88799999992,
      "d": 156.94428749999497,
      "v": 61
    },
    {
      "midi": 36,
      "hit": false,
      "t": 112666.55399999992,
      "d": 156.94428749999497,
      "v": 61
    },
    {
      "midi": 41,
      "hit": false,
      "t": 113333.21999999991,
      "d": 156.94428749999497,
      "v": 61
    },
    {
      "midi": 36,
      "hit": false,
      "t": 114666.55199999991,
      "d": 156.94428749999497,
      "v": 61
    },
    {
      "midi": 36,
      "hit": false,
      "t": 115333.2179999999,
      "d": 156.94428749999497,
      "v": 61
    },
    {
      "midi": 41,
      "hit": false,
      "t": 115999.8839999999,
      "d": 156.94428749999497,
      "v": 61
    },
    {
      "midi": 36,
      "hit": false,
      "t": 117333.2159999999,
      "d": 156.94428749999497,
      "v": 61
    },
    {
      "midi": 36,
      "hit": false,
      "t": 117999.8819999999,
      "d": 156.94428749999497,
      "v": 61
    },
    {
      "midi": 41,
      "hit": false,
      "t": 118666.5479999999,
      "d": 156.94428749999497,
      "v": 61
    },
    {
      "midi": 36,
      "hit": false,
      "t": 119999.87999999989,
      "d": 156.94428749999497,
      "v": 61
    },
    {
      "midi": 36,
      "hit": false,
      "t": 120666.54599999989,
      "d": 156.94428749999497,
      "v": 61
    },
    {
      "midi": 41,
      "hit": false,
      "t": 121333.21199999988,
      "d": 156.94428749999497,
      "v": 61
    },
    {
      "midi": 55,
      "hit": false,
      "t": 122527.65524999995,
      "d": 163.88872499999707,
      "v": 1
    },
    {
      "midi": 67,
      "hit": false,
      "t": 122527.65524999995,
      "d": 163.88872499999707,
      "v": 1
    },
    {
      "midi": 36,
      "hit": false,
      "t": 122666.54399999988,
      "d": 156.94428749999497,
      "v": 61
    },
    {
      "midi": 55,
      "hit": false,
      "t": 122666.54399999988,
      "d": 156.94428749999497,
      "v": 61
    },
    {
      "midi": 67,
      "hit": false,
      "t": 122666.54399999988,
      "d": 156.94428749999497,
      "v": 60
    },
    {
      "midi": 60,
      "hit": false,
      "t": 122694.32174999994,
      "d": 1330.5542249999999,
      "v": 1
    },
    {
      "midi": 72,
      "hit": false,
      "t": 122694.32174999994,
      "d": 1330.5542249999999,
      "v": 1
    },
    {
      "midi": 36,
      "hit": false,
      "t": 123333.20999999988,
      "d": 156.94428749999497,
      "v": 61
    },
    {
      "midi": 60,
      "hit": false,
      "t": 123333.20999999988,
      "d": 156.94428749999497,
      "v": 64
    },
    {
      "midi": 72,
      "hit": false,
      "t": 123333.20999999988,
      "d": 156.94428749999497,
      "v": 64
    },
    {
      "midi": 41,
      "hit": false,
      "t": 123999.87599999987,
      "d": 156.94428749999497,
      "v": 61
    },
    {
      "midi": 53,
      "hit": false,
      "t": 123999.87599999987,
      "d": 156.94428749999497,
      "v": 64
    },
    {
      "midi": 65,
      "hit": false,
      "t": 123999.87599999987,
      "d": 156.94428749999497,
      "v": 64
    },
    {
      "midi": 62,
      "hit": false,
      "t": 124027.65374999994,
      "d": 1330.5542249999999,
      "v": 1
    },
    {
      "midi": 74,
      "hit": false,
      "t": 124027.65374999994,
      "d": 1330.5542249999999,
      "v": 1
    },
    {
      "midi": 36,
      "hit": false,
      "t": 125333.20799999987,
      "d": 156.94428749999497,
      "v": 61
    },
    {
      "midi": 63,
      "hit": false,
      "t": 125360.98574999993,
      "d": 830.5547249999945,
      "v": 1
    },
    {
      "midi": 75,
      "hit": false,
      "t": 125360.98574999993,
      "d": 830.5547249999945,
      "v": 1
    },
    {
      "midi": 36,
      "hit": false,
      "t": 125999.87399999987,
      "d": 156.94428749999497,
      "v": 61
    },
    {
      "midi": 62,
      "hit": false,
      "t": 126194.31824999992,
      "d": 330.5552250000037,
      "v": 1
    },
    {
      "midi": 74,
      "hit": false,
      "t": 126194.31824999992,
      "d": 330.5552250000037,
      "v": 1
    },
    {
      "midi": 58,
      "hit": false,
      "t": 126527.65124999992,
      "d": 663.8882250000024,
      "v": 1
    },
    {
      "midi": 70,
      "hit": false,
      "t": 126527.65124999992,
      "d": 663.8882250000024,
      "v": 1
    },
    {
      "midi": 41,
      "hit": false,
      "t": 126666.53999999986,
      "d": 156.94428749999497,
      "v": 61
    },
    {
      "midi": 36,
      "hit": false,
      "t": 127999.87199999986,
      "d": 156.94428749999497,
      "v": 61
    },
    {
      "midi": 36,
      "hit": false,
      "t": 128666.53799999985,
      "d": 156.94428749999497,
      "v": 61
    },
    {
      "midi": 41,
      "hit": false,
      "t": 129333.20399999985,
      "d": 156.94428749999497,
      "v": 61
    },
    {
      "midi": 36,
      "hit": false,
      "t": 130666.53599999985,
      "d": 156.94428749999497,
      "v": 61
    },
    {
      "midi": 36,
      "hit": false,
      "t": 131333.20199999984,
      "d": 156.94428749999497,
      "v": 61
    },
    {
      "midi": 41,
      "hit": false,
      "t": 131999.86799999984,
      "d": 156.94428749999497,
      "v": 61
    },
    {
      "midi": 43,
      "hit": false,
      "t": 133166.53349999993,
      "d": 163.88872499999707,
      "v": 1
    },
    {
      "midi": 55,
      "hit": false,
      "t": 133166.53349999993,
      "d": 163.88872499999707,
      "v": 1
    },
    {
      "midi": 36,
      "hit": false,
      "t": 133333.19999999984,
      "d": 156.94428749999497,
      "v": 61
    },
    {
      "midi": 48,
      "hit": false,
      "t": 133333.19999999992,
      "d": 1330.5542249999999,
      "v": 1
    },
    {
      "midi": 60,
      "hit": false,
      "t": 133333.19999999992,
      "d": 1330.5542249999999,
      "v": 1
    },
    {
      "midi": 36,
      "hit": false,
      "t": 133999.86599999983,
      "d": 156.94428749999497,
      "v": 61
    },
    {
      "midi": 41,
      "hit": false,
      "t": 134666.53199999983,
      "d": 156.94428749999497,
      "v": 61
    },
    {
      "midi": 50,
      "hit": false,
      "t": 134666.53199999992,
      "d": 1330.5542249999999,
      "v": 1
    },
    {
      "midi": 62,
      "hit": false,
      "t": 134666.53199999992,
      "d": 1330.5542249999999,
      "v": 1
    },
    {
      "midi": 36,
      "hit": false,
      "t": 135999.86399999983,
      "d": 156.94428749999497,
      "v": 61
    },
    {
      "midi": 51,
      "hit": false,
      "t": 135999.8639999999,
      "d": 830.5547249999945,
      "v": 1
    },
    {
      "midi": 63,
      "hit": false,
      "t": 135999.8639999999,
      "d": 830.5547249999945,
      "v": 1
    },
    {
      "midi": 36,
      "hit": false,
      "t": 136666.52999999982,
      "d": 156.94428749999497,
      "v": 61
    },
    {
      "midi": 53,
      "hit": false,
      "t": 136833.1964999999,
      "d": 858.3324750000029,
      "v": 1
    },
    {
      "midi": 65,
      "hit": false,
      "t": 136833.1964999999,
      "d": 858.3324750000029,
      "v": 1
    },
    {
      "midi": 41,
      "hit": false,
      "t": 137333.19599999982,
      "d": 156.94428749999497,
      "v": 61
    },
    {
      "midi": 36,
      "hit": false,
      "t": 138666.52799999982,
      "d": 156.94428749999497,
      "v": 61
    },
    {
      "midi": 36,
      "hit": false,
      "t": 139333.1939999998,
      "d": 156.94428749999497,
      "v": 61
    },
    {
      "midi": 41,
      "hit": false,
      "t": 139999.8599999998,
      "d": 156.94428749999497,
      "v": 61
    },
    {
      "midi": 60,
      "hit": false,
      "t": 140833.19249999992,
      "d": 2830.552724999987,
      "v": 1
    },
    {
      "midi": 67,
      "hit": false,
      "t": 140833.19249999992,
      "d": 2830.552724999987,
      "v": 1
    },
    {
      "midi": 36,
      "hit": false,
      "t": 141333.1919999998,
      "d": 156.94428749999497,
      "v": 61
    },
    {
      "midi": 36,
      "hit": false,
      "t": 141999.8579999998,
      "d": 156.94428749999497,
      "v": 61
    },
    {
      "midi": 41,
      "hit": false,
      "t": 142666.5239999998,
      "d": 156.94428749999497,
      "v": 61
    },
    {
      "midi": 63,
      "hit": false,
      "t": 143666.5229999999,
      "d": 330.55522499998915,
      "v": 1
    },
    {
      "midi": 67,
      "hit": false,
      "t": 143666.5229999999,
      "d": 330.55522499998915,
      "v": 1
    },
    {
      "midi": 48,
      "hit": false,
      "t": 143999.8559999998,
      "d": 156.94428749999497,
      "v": 51
    },
    {
      "midi": 60,
      "hit": false,
      "t": 143999.8559999998,
      "d": 156.94428749999497,
      "v": 50
    },
    {
      "midi": 67,
      "hit": false,
      "t": 143999.85599999988,
      "d": 330.55522499998915,
      "v": 1
    },
    {
      "midi": 72,
      "hit": false,
      "t": 143999.85599999988,
      "d": 330.55522499998915,
      "v": 1
    },
    {
      "midi": 67,
      "hit": false,
      "t": 144333.18899999987,
      "d": 1330.5542249999999,
      "v": 1
    },
    {
      "midi": 70,
      "hit": false,
      "t": 144333.18899999987,
      "d": 1330.5542249999999,
      "v": 1
    },
    {
      "midi": 60,
      "hit": false,
      "t": 144666.5219999998,
      "d": 156.94428749999497,
      "v": 54
    },
    {
      "midi": 72,
      "hit": false,
      "t": 144666.5219999998,
      "d": 156.94428749999497,
      "v": 54
    },
    {
      "midi": 53,
      "hit": false,
      "t": 145333.1879999998,
      "d": 156.94428749999497,
      "v": 54
    },
    {
      "midi": 65,
      "hit": false,
      "t": 145333.1879999998,
      "d": 156.94428749999497,
      "v": 54
    },
    {
      "midi": 48,
      "hit": false,
      "t": 146666.5199999998,
      "d": 156.94428749999497,
      "v": 54
    },
    {
      "midi": 60,
      "hit": false,
      "t": 146666.5199999998,
      "d": 156.94428749999497,
      "v": 54
    },
    {
      "midi": 60,
      "hit": false,
      "t": 147333.18599999978,
      "d": 156.94428749999497,
      "v": 54
    },
    {
      "midi": 72,
      "hit": false,
      "t": 147333.18599999978,
      "d": 156.94428749999497,
      "v": 54
    },
    {
      "midi": 65,
      "hit": false,
      "t": 147999.85199999978,
      "d": 156.94428749999497,
      "v": 54
    },
    {
      "midi": 53,
      "hit": false,
      "t": 147999.85199999978,
      "d": 240.277537499991,
      "v": 54
    },
    {
      "midi": 48,
      "hit": false,
      "t": 149333.18399999978,
      "d": 156.94428749999497,
      "v": 54
    },
    {
      "midi": 60,
      "hit": false,
      "t": 149333.18399999978,
      "d": 240.277537499991,
      "v": 54
    },
    {
      "midi": 60,
      "hit": false,
      "t": 149999.84999999977,
      "d": 156.94428749999497,
      "v": 54
    },
    {
      "midi": 72,
      "hit": false,
      "t": 149999.84999999977,
      "d": 156.94428749999497,
      "v": 54
    },
    {
      "midi": 65,
      "hit": false,
      "t": 150666.51599999977,
      "d": 156.94428749999497,
      "v": 54
    },
    {
      "midi": 53,
      "hit": false,
      "t": 150666.51599999977,
      "d": 240.277537499991,
      "v": 54
    },
    {
      "midi": 48,
      "hit": false,
      "t": 151999.84799999977,
      "d": 156.94428749999497,
      "v": 54
    },
    {
      "midi": 60,
      "hit": false,
      "t": 151999.84799999977,
      "d": 156.94428749999497,
      "v": 54
    },
    {
      "midi": 60,
      "hit": false,
      "t": 152666.51399999976,
      "d": 156.94428749999497,
      "v": 54
    },
    {
      "midi": 72,
      "hit": false,
      "t": 152666.51399999976,
      "d": 156.94428749999497,
      "v": 54
    },
    {
      "midi": 63,
      "hit": false,
      "t": 152999.84699999986,
      "d": 330.55522499998915,
      "v": 1
    },
    {
      "midi": 70,
      "hit": false,
      "t": 152999.84699999986,
      "d": 330.55522499998915,
      "v": 1
    },
    {
      "midi": 53,
      "hit": false,
      "t": 153333.17999999976,
      "d": 156.94428749999497,
      "v": 54
    },
    {
      "midi": 65,
      "hit": false,
      "t": 153333.17999999976,
      "d": 156.94428749999497,
      "v": 54
    },
    {
      "midi": 65,
      "hit": false,
      "t": 153333.17999999985,
      "d": 1024.998974999995,
      "v": 1
    },
    {
      "midi": 70,
      "hit": false,
      "t": 153333.17999999985,
      "d": 1024.998974999995,
      "v": 1
    },
    {
      "midi": 53,
      "hit": false,
      "t": 153999.84599999976,
      "d": 156.94428749999497,
      "v": 54
    },
    {
      "midi": 65,
      "hit": false,
      "t": 153999.84599999976,
      "d": 156.94428749999497,
      "v": 54
    },
    {
      "midi": 55,
      "hit": false,
      "t": 154333.17899999974,
      "d": 156.94428749999497,
      "v": 54
    },
    {
      "midi": 67,
      "hit": false,
      "t": 154333.17899999974,
      "d": 156.94428749999497,
      "v": 51
    },
    {
      "midi": 48,
      "hit": false,
      "t": 154666.51199999973,
      "d": 156.94428749999497,
      "v": 51
    },
    {
      "midi": 60,
      "hit": false,
      "t": 154666.51199999973,
      "d": 156.94428749999497,
      "v": 50
    },
    {
      "midi": 60,
      "hit": false,
      "t": 155333.17799999972,
      "d": 156.94428749999497,
      "v": 54
    },
    {
      "midi": 72,
      "hit": false,
      "t": 155333.17799999972,
      "d": 156.94428749999497,
      "v": 54
    },
    {
      "midi": 67,
      "hit": false,
      "t": 155333.17799999984,
      "d": 1024.998974999995,
      "v": 1
    },
    {
      "midi": 72,
      "hit": false,
      "t": 155333.17799999984,
      "d": 1024.998974999995,
      "v": 1
    },
    {
      "midi": 53,
      "hit": false,
      "t": 155999.84399999972,
      "d": 156.94428749999497,
      "v": 54
    },
    {
      "midi": 65,
      "hit": false,
      "t": 155999.84399999972,
      "d": 156.94428749999497,
      "v": 54
    },
    {
      "midi": 48,
      "hit": false,
      "t": 157333.17599999972,
      "d": 156.94428749999497,
      "v": 54
    },
    {
      "midi": 60,
      "hit": false,
      "t": 157333.17599999972,
      "d": 156.94428749999497,
      "v": 54
    },
    {
      "midi": 65,
      "hit": false,
      "t": 157333.17599999983,
      "d": 1663.8872250000131,
      "v": 1
    },
    {
      "midi": 70,
      "hit": false,
      "t": 157333.17599999983,
      "d": 1663.8872250000131,
      "v": 1
    },
    {
      "midi": 60,
      "hit": false,
      "t": 157999.8419999997,
      "d": 156.94428749999497,
      "v": 54
    },
    {
      "midi": 72,
      "hit": false,
      "t": 157999.8419999997,
      "d": 156.94428749999497,
      "v": 54
    },
    {
      "midi": 65,
      "hit": false,
      "t": 158666.5079999997,
      "d": 156.94428749999497,
      "v": 54
    },
    {
      "midi": 53,
      "hit": false,
      "t": 158666.5079999997,
      "d": 240.277537499991,
      "v": 54
    },
    {
      "midi": 67,
      "hit": false,
      "t": 158999.84099999984,
      "d": 330.55522499998915,
      "v": 1
    },
    {
      "midi": 72,
      "hit": false,
      "t": 158999.84099999984,
      "d": 330.55522499998915,
      "v": 1
    },
    {
      "midi": 65,
      "hit": false,
      "t": 159333.17399999982,
      "d": 330.55522499998915,
      "v": 1
    },
    {
      "midi": 70,
      "hit": false,
      "t": 159333.17399999982,
      "d": 330.55522499998915,
      "v": 1
    },
    {
      "midi": 63,
      "hit": false,
      "t": 159666.5069999998,
      "d": 330.55522499998915,
      "v": 1
    },
    {
      "midi": 67,
      "hit": false,
      "t": 159666.5069999998,
      "d": 330.55522499998915,
      "v": 1
    },
    {
      "midi": 48,
      "hit": false,
      "t": 159999.8399999997,
      "d": 156.94428749999497,
      "v": 54
    },
    {
      "midi": 60,
      "hit": false,
      "t": 159999.8399999997,
      "d": 240.277537499991,
      "v": 54
    },
    {
      "midi": 65,
      "hit": false,
      "t": 159999.8399999998,
      "d": 663.8882250000024,
      "v": 1
    },
    {
      "midi": 70,
      "hit": false,
      "t": 159999.8399999998,
      "d": 663.8882250000024,
      "v": 1
    },
    {
      "midi": 60,
      "hit": false,
      "t": 160666.5059999997,
      "d": 156.94428749999497,
      "v": 54
    },
    {
      "midi": 72,
      "hit": false,
      "t": 160666.5059999997,
      "d": 156.94428749999497,
      "v": 54
    },
    {
      "midi": 63,
      "hit": false,
      "t": 160666.5059999998,
      "d": 719.4437249999901,
      "v": 1
    },
    {
      "midi": 67,
      "hit": false,
      "t": 160666.5059999998,
      "d": 719.4437249999901,
      "v": 1
    },
    {
      "midi": 65,
      "hit": false,
      "t": 161333.1719999997,
      "d": 156.94428749999497,
      "v": 54
    },
    {
      "midi": 53,
      "hit": false,
      "t": 161333.1719999997,
      "d": 240.277537499991,
      "v": 54
    },
    {
      "midi": 48,
      "hit": false,
      "t": 162666.5039999997,
      "d": 156.94428749999497,
      "v": 54
    },
    {
      "midi": 60,
      "hit": false,
      "t": 162666.5039999997,
      "d": 156.94428749999497,
      "v": 54
    },
    {
      "midi": 60,
      "hit": false,
      "t": 163333.1699999997,
      "d": 156.94428749999497,
      "v": 54
    },
    {
      "midi": 72,
      "hit": false,
      "t": 163333.1699999997,
      "d": 156.94428749999497,
      "v": 54
    },
    {
      "midi": 53,
      "hit": false,
      "t": 163999.8359999997,
      "d": 156.94428749999497,
      "v": 54
    },
    {
      "midi": 65,
      "hit": false,
      "t": 163999.8359999997,
      "d": 156.94428749999497,
      "v": 54
    },
    {
      "midi": 53,
      "hit": false,
      "t": 164666.5019999997,
      "d": 156.94428749999497,
      "v": 54
    },
    {
      "midi": 65,
      "hit": false,
      "t": 164666.5019999997,
      "d": 156.94428749999497,
      "v": 54
    },
    {
      "midi": 55,
      "hit": false,
      "t": 164999.83499999967,
      "d": 156.94428749999497,
      "v": 54
    },
    {
      "midi": 67,
      "hit": false,
      "t": 164999.83499999967,
      "d": 156.94428749999497,
      "v": 51
    },
    {
      "midi": 48,
      "hit": false,
      "t": 165333.16799999966,
      "d": 1004.1656624999887,
      "v": 67
    },
    {
      "midi": 60,
      "hit": false,
      "t": 165333.16799999966,
      "d": 1011.1100999999908,
      "v": 72
    },
    {
      "midi": 58,
      "hit": false,
      "t": 166666.49999999965,
      "d": 1136.1099749999994,
      "v": 62
    },
    {
      "midi": 46,
      "hit": false,
      "t": 166666.49999999965,
      "d": 1147.2210750000086,
      "v": 55
    },
    {
      "midi": 44,
      "hit": false,
      "t": 167999.83199999965,
      "d": 1161.1099500000128,
      "v": 73
    },
    {
      "midi": 56,
      "hit": false,
      "t": 167999.83199999965,
      "d": 1184.721037500014,
      "v": 57
    },
    {
      "midi": 72,
      "hit": false,
      "t": 168333.16499999978,
      "d": 497.22172500001034,
      "v": 1
    },
    {
      "midi": 67,
      "hit": false,
      "t": 168833.16449999978,
      "d": 330.55522499998915,
      "v": 1
    },
    {
      "midi": 65,
      "hit": false,
      "t": 169166.49749999976,
      "d": 1191.665474999987,
      "v": 1
    },
    {
      "midi": 43,
      "hit": false,
      "t": 169333.16399999967,
      "d": 869.4435750000121,
      "v": 73
    },
    {
      "midi": 55,
      "hit": false,
      "t": 169333.16399999967,
      "d": 899.9991000000155,
      "v": 74
    },
    {
      "midi": 48,
      "hit": false,
      "t": 170666.4959999997,
      "d": 455.55509999999776,
      "v": 74
    },
    {
      "midi": 60,
      "hit": false,
      "t": 170666.4959999997,
      "d": 469.44397500000196,
      "v": 74
    },
    {
      "midi": 60,
      "hit": false,
      "t": 172666.4939999997,
      "d": 445.83288750000065,
      "v": 97
    },
    {
      "midi": 48,
      "hit": false,
      "t": 172666.4939999997,
      "d": 448.61066249999567,
      "v": 97
    },
    {
      "midi": 55,
      "hit": false,
      "t": 172666.4939999997,
      "d": 452.77732500000275,
      "v": 97
    },
    {
      "midi": 48,
      "hit": false,
      "t": 173333.15999999968,
      "d": 330.55522499998915,
      "v": 96
    },
    {
      "midi": 60,
      "hit": false,
      "t": 173333.15999999968,
      "d": 330.55522499998915,
      "v": 96
    },
    {
      "midi": 55,
      "hit": false,
      "t": 173333.15999999968,
      "d": 348.6107625000004,
      "v": 96
    },
    {
      "midi": 55,
      "hit": false,
      "t": 175833.15749999974,
      "d": 163.88872499999707,
      "v": 1
    },
    {
      "midi": 60,
      "hit": false,
      "t": 175999.82399999967,
      "d": 990.2767875000136,
      "v": 73
    },
    {
      "midi": 56,
      "hit": false,
      "t": 175999.82399999967,
      "d": 1038.8878499999992,
      "v": 72
    },
    {
      "midi": 53,
      "hit": false,
      "t": 175999.82399999967,
      "d": 1087.4989124999847,
      "v": 72
    },
    {
      "midi": 60,
      "hit": false,
      "t": 175999.82399999973,
      "d": 1330.5542249999999,
      "v": 1
    },
    {
      "midi": 62,
      "hit": false,
      "t": 177333.15599999967,
      "d": 966.6657000000123,
      "v": 76
    },
    {
      "midi": 58,
      "hit": false,
      "t": 177333.15599999967,
      "d": 1024.998975000024,
      "v": 65
    },
    {
      "midi": 55,
      "hit": false,
      "t": 177333.15599999967,
      "d": 1038.8878500000283,
      "v": 72
    },
    {
      "midi": 62,
      "hit": false,
      "t": 177333.15599999973,
      "d": 1663.8872250000131,
      "v": 1
    },
    {
      "midi": 56,
      "hit": false,
      "t": 178666.4879999997,
      "d": 1077.7766999999876,
      "v": 76
    },
    {
      "midi": 60,
      "hit": false,
      "t": 178666.4879999997,
      "d": 1108.332224999991,
      "v": 77
    },
    {
      "midi": 51,
      "hit": false,
      "t": 178666.4879999997,
      "d": 1119.4433250000002,
      "v": 68
    },
    {
      "midi": 63,
      "hit": false,
      "t": 178999.82099999973,
      "d": 497.22172500001034,
      "v": 1
    },
    {
      "midi": 62,
      "hit": false,
      "t": 179499.82049999974,
      "d": 330.55522499998915,
      "v": 1
    },
    {
      "midi": 60,
      "hit": false,
      "t": 179833.15349999972,
      "d": 1052.7767250000034,
      "v": 1
    },
    {
      "midi": 58,
      "hit": false,
      "t": 179999.8199999997,
      "d": 890.2768874999892,
      "v": 62
    },
    {
      "midi": 50,
      "hit": false,
      "t": 179999.8199999997,
      "d": 931.9435125000018,
      "v": 74
    },
    {
      "midi": 55,
      "hit": false,
      "t": 179999.8199999997,
      "d": 938.8879500000039,
      "v": 71
    },
    {
      "midi": 55,
      "hit": false,
      "t": 181333.15199999968,
      "d": 399.9996000000101,
      "v": 74
    },
    {
      "midi": 60,
      "hit": false,
      "t": 181333.15199999968,
      "d": 399.9996000000101,
      "v": 76
    },
    {
      "midi": 51,
      "hit": false,
      "t": 181333.15199999968,
      "d": 404.1662625000172,
      "v": 74
    },
    {
      "midi": 55,
      "hit": false,
      "t": 183333.1499999997,
      "d": 212.49978750001173,
      "v": 105
    },
    {
      "midi": 60,
      "hit": false,
      "t": 183333.1499999997,
      "d": 216.6664500000188,
      "v": 105
    },
    {
      "midi": 51,
      "hit": false,
      "t": 183333.1499999997,
      "d": 226.38866250001593,
      "v": 105
    },
    {
      "midi": 67,
      "hit": false,
      "t": 183499.81649999972,
      "d": 2830.552724999987,
      "v": 1
    },
    {
      "midi": 72,
      "hit": false,
      "t": 183499.81649999972,
      "d": 2830.552724999987,
      "v": 1
    },
    {
      "midi": 51,
      "hit": false,
      "t": 183999.81599999973,
      "d": 156.94428749999497,
      "v": 107
    },
    {
      "midi": 55,
      "hit": false,
      "t": 183999.81599999973,
      "d": 156.94428749999497,
      "v": 107
    },
    {
      "midi": 60,
      "hit": false,
      "t": 183999.81599999973,
      "d": 156.94428749999497,
      "v": 107
    },
    {
      "midi": 60,
      "hit": false,
      "t": 186333.1469999997,
      "d": 330.55522500001825,
      "v": 1
    },
    {
      "midi": 63,
      "hit": false,
      "t": 186360.9247499997,
      "d": 330.55522500001825,
      "v": 1
    },
    {
      "midi": 48,
      "hit": false,
      "t": 186666.47999999972,
      "d": 156.94428749999497,
      "v": 51
    },
    {
      "midi": 60,
      "hit": false,
      "t": 186666.47999999972,
      "d": 156.94428749999497,
      "v": 50
    },
    {
      "midi": 67,
      "hit": false,
      "t": 186666.47999999972,
      "d": 330.55522500001825,
      "v": 1
    },
    {
      "midi": 72,
      "hit": false,
      "t": 186666.47999999972,
      "d": 330.55522500001825,
      "v": 1
    },
    {
      "midi": 60,
      "hit": false,
      "t": 187333.14599999972,
      "d": 156.94428749999497,
      "v": 54
    },
    {
      "midi": 72,
      "hit": false,
      "t": 187333.14599999972,
      "d": 156.94428749999497,
      "v": 54
    },
    {
      "midi": 53,
      "hit": false,
      "t": 187999.8119999997,
      "d": 156.94428749999497,
      "v": 54
    },
    {
      "midi": 65,
      "hit": false,
      "t": 187999.8119999997,
      "d": 156.94428749999497,
      "v": 54
    },
    {
      "midi": 48,
      "hit": false,
      "t": 189333.1439999997,
      "d": 156.94428749999497,
      "v": 54
    },
    {
      "midi": 60,
      "hit": false,
      "t": 189333.1439999997,
      "d": 156.94428749999497,
      "v": 54
    },
    {
      "midi": 60,
      "hit": false,
      "t": 189999.8099999997,
      "d": 156.94428749999497,
      "v": 54
    },
    {
      "midi": 72,
      "hit": false,
      "t": 189999.8099999997,
      "d": 156.94428749999497,
      "v": 54
    },
    {
      "midi": 65,
      "hit": false,
      "t": 190666.4759999997,
      "d": 156.94428749999497,
      "v": 54
    },
    {
      "midi": 53,
      "hit": false,
      "t": 190666.4759999997,
      "d": 240.277537499991,
      "v": 54
    },
    {
      "midi": 48,
      "hit": false,
      "t": 191999.8079999997,
      "d": 156.94428749999497,
      "v": 54
    },
    {
      "midi": 60,
      "hit": false,
      "t": 191999.8079999997,
      "d": 240.277537499991,
      "v": 54
    },
    {
      "midi": 60,
      "hit": false,
      "t": 192666.4739999997,
      "d": 156.94428749999497,
      "v": 54
    },
    {
      "midi": 72,
      "hit": false,
      "t": 192666.4739999997,
      "d": 156.94428749999497,
      "v": 54
    },
    {
      "midi": 65,
      "hit": false,
      "t": 193333.1399999997,
      "d": 156.94428749999497,
      "v": 54
    },
    {
      "midi": 53,
      "hit": false,
      "t": 193333.1399999997,
      "d": 240.277537499991,
      "v": 54
    },
    {
      "midi": 48,
      "hit": false,
      "t": 194666.4719999997,
      "d": 156.94428749999497,
      "v": 54
    },
    {
      "midi": 60,
      "hit": false,
      "t": 194666.4719999997,
      "d": 156.94428749999497,
      "v": 54
    },
    {
      "midi": 60,
      "hit": false,
      "t": 195333.1379999997,
      "d": 156.94428749999497,
      "v": 54
    },
    {
      "midi": 72,
      "hit": false,
      "t": 195333.1379999997,
      "d": 156.94428749999497,
      "v": 54
    },
    {
      "midi": 63,
      "hit": false,
      "t": 195666.47099999973,
      "d": 330.55522499998915,
      "v": 1
    },
    {
      "midi": 70,
      "hit": false,
      "t": 195666.47099999973,
      "d": 330.55522499998915,
      "v": 1
    },
    {
      "midi": 53,
      "hit": false,
      "t": 195999.80399999968,
      "d": 156.94428749999497,
      "v": 54
    },
    {
      "midi": 65,
      "hit": false,
      "t": 195999.80399999968,
      "d": 156.94428749999497,
      "v": 54
    },
    {
      "midi": 65,
      "hit": false,
      "t": 195999.8039999997,
      "d": 1024.998974999995,
      "v": 1
    },
    {
      "midi": 70,
      "hit": false,
      "t": 195999.8039999997,
      "d": 1024.998974999995,
      "v": 1
    },
    {
      "midi": 53,
      "hit": false,
      "t": 196666.46999999968,
      "d": 156.94428749999497,
      "v": 54
    },
    {
      "midi": 65,
      "hit": false,
      "t": 196666.46999999968,
      "d": 156.94428749999497,
      "v": 54
    },
    {
      "midi": 55,
      "hit": false,
      "t": 196999.80299999967,
      "d": 156.94428749999497,
      "v": 54
    },
    {
      "midi": 67,
      "hit": false,
      "t": 196999.80299999967,
      "d": 156.94428749999497,
      "v": 51
    },
    {
      "midi": 48,
      "hit": false,
      "t": 197333.13599999965,
      "d": 156.94428749999497,
      "v": 51
    },
    {
      "midi": 60,
      "hit": false,
      "t": 197333.13599999965,
      "d": 156.94428749999497,
      "v": 50
    },
    {
      "midi": 60,
      "hit": false,
      "t": 197999.80199999965,
      "d": 156.94428749999497,
      "v": 54
    },
    {
      "midi": 72,
      "hit": false,
      "t": 197999.80199999965,
      "d": 156.94428749999497,
      "v": 54
    },
    {
      "midi": 67,
      "hit": false,
      "t": 197999.8019999997,
      "d": 1024.998974999995,
      "v": 1
    },
    {
      "midi": 72,
      "hit": false,
      "t": 197999.8019999997,
      "d": 1024.998974999995,
      "v": 1
    },
    {
      "midi": 53,
      "hit": false,
      "t": 198666.46799999964,
      "d": 156.94428749999497,
      "v": 54
    },
    {
      "midi": 65,
      "hit": false,
      "t": 198666.46799999964,
      "d": 156.94428749999497,
      "v": 54
    },
    {
      "midi": 48,
      "hit": false,
      "t": 199999.79999999964,
      "d": 156.94428749999497,
      "v": 54
    },
    {
      "midi": 60,
      "hit": false,
      "t": 199999.79999999964,
      "d": 156.94428749999497,
      "v": 54
    },
    {
      "midi": 65,
      "hit": false,
      "t": 199999.7999999997,
      "d": 1663.8872250000131,
      "v": 1
    },
    {
      "midi": 70,
      "hit": false,
      "t": 199999.7999999997,
      "d": 1663.8872250000131,
      "v": 1
    },
    {
      "midi": 60,
      "hit": false,
      "t": 200666.46599999964,
      "d": 156.94428749999497,
      "v": 54
    },
    {
      "midi": 72,
      "hit": false,
      "t": 200666.46599999964,
      "d": 156.94428749999497,
      "v": 54
    },
    {
      "midi": 65,
      "hit": false,
      "t": 201333.13199999963,
      "d": 156.94428749999497,
      "v": 54
    },
    {
      "midi": 53,
      "hit": false,
      "t": 201333.13199999963,
      "d": 240.277537499991,
      "v": 54
    },
    {
      "midi": 67,
      "hit": false,
      "t": 201666.4649999997,
      "d": 330.55522499998915,
      "v": 1
    },
    {
      "midi": 72,
      "hit": false,
      "t": 201666.4649999997,
      "d": 330.55522499998915,
      "v": 1
    },
    {
      "midi": 65,
      "hit": false,
      "t": 201999.7979999997,
      "d": 330.55522499998915,
      "v": 1
    },
    {
      "midi": 70,
      "hit": false,
      "t": 201999.7979999997,
      "d": 330.55522499998915,
      "v": 1
    },
    {
      "midi": 63,
      "hit": false,
      "t": 202333.13099999967,
      "d": 330.55522499998915,
      "v": 1
    },
    {
      "midi": 67,
      "hit": false,
      "t": 202333.13099999967,
      "d": 330.55522499998915,
      "v": 1
    },
    {
      "midi": 48,
      "hit": false,
      "t": 202666.46399999963,
      "d": 156.94428749999497,
      "v": 54
    },
    {
      "midi": 60,
      "hit": false,
      "t": 202666.46399999963,
      "d": 240.277537499991,
      "v": 54
    },
    {
      "midi": 65,
      "hit": false,
      "t": 202666.46399999966,
      "d": 663.8882250000024,
      "v": 1
    },
    {
      "midi": 70,
      "hit": false,
      "t": 202666.46399999966,
      "d": 663.8882250000024,
      "v": 1
    },
    {
      "midi": 60,
      "hit": false,
      "t": 203333.12999999963,
      "d": 156.94428749999497,
      "v": 54
    },
    {
      "midi": 72,
      "hit": false,
      "t": 203333.12999999963,
      "d": 156.94428749999497,
      "v": 54
    },
    {
      "midi": 63,
      "hit": false,
      "t": 203333.12999999966,
      "d": 719.4437249999901,
      "v": 1
    },
    {
      "midi": 67,
      "hit": false,
      "t": 203333.12999999966,
      "d": 719.4437249999901,
      "v": 1
    },
    {
      "midi": 65,
      "hit": false,
      "t": 203999.79599999962,
      "d": 156.94428749999497,
      "v": 54
    },
    {
      "midi": 53,
      "hit": false,
      "t": 203999.79599999962,
      "d": 240.277537499991,
      "v": 54
    },
    {
      "midi": 48,
      "hit": false,
      "t": 205333.12799999962,
      "d": 156.94428749999497,
      "v": 54
    },
    {
      "midi": 60,
      "hit": false,
      "t": 205333.12799999962,
      "d": 156.94428749999497,
      "v": 54
    },
    {
      "midi": 60,
      "hit": false,
      "t": 205999.79399999962,
      "d": 156.94428749999497,
      "v": 54
    },
    {
      "midi": 72,
      "hit": false,
      "t": 205999.79399999962,
      "d": 156.94428749999497,
      "v": 54
    },
    {
      "midi": 53,
      "hit": false,
      "t": 206666.4599999996,
      "d": 156.94428749999497,
      "v": 54
    },
    {
      "midi": 65,
      "hit": false,
      "t": 206666.4599999996,
      "d": 156.94428749999497,
      "v": 54
    },
    {
      "midi": 53,
      "hit": false,
      "t": 207333.1259999996,
      "d": 156.94428749999497,
      "v": 54
    },
    {
      "midi": 65,
      "hit": false,
      "t": 207333.1259999996,
      "d": 156.94428749999497,
      "v": 54
    },
    {
      "midi": 55,
      "hit": false,
      "t": 207666.4589999996,
      "d": 156.94428749999497,
      "v": 54
    },
    {
      "midi": 67,
      "hit": false,
      "t": 207666.4589999996,
      "d": 156.94428749999497,
      "v": 51
    },
    {
      "midi": 48,
      "hit": false,
      "t": 207999.79199999958,
      "d": 156.94428749999497,
      "v": 51
    },
    {
      "midi": 60,
      "hit": false,
      "t": 207999.79199999958,
      "d": 156.94428749999497,
      "v": 50
    },
    {
      "midi": 67,
      "hit": false,
      "t": 207999.79199999964,
      "d": 1663.8872250000131,
      "v": 1
    },
    {
      "midi": 72,
      "hit": false,
      "t": 207999.79199999964,
      "d": 1663.8872250000131,
      "v": 1
    },
    {
      "midi": 60,
      "hit": false,
      "t": 208666.45799999958,
      "d": 156.94428749999497,
      "v": 54
    },
    {
      "midi": 72,
      "hit": false,
      "t": 208666.45799999958,
      "d": 156.94428749999497,
      "v": 54
    },
    {
      "midi": 53,
      "hit": false,
      "t": 209333.12399999957,
      "d": 156.94428749999497,
      "v": 54
    },
    {
      "midi": 65,
      "hit": false,
      "t": 209333.12399999957,
      "d": 156.94428749999497,
      "v": 54
    },
    {
      "midi": 48,
      "hit": false,
      "t": 210666.45599999957,
      "d": 156.94428749999497,
      "v": 54
    },
    {
      "midi": 60,
      "hit": false,
      "t": 210666.45599999957,
      "d": 156.94428749999497,
      "v": 54
    },
    {
      "midi": 60,
      "hit": false,
      "t": 211333.12199999957,
      "d": 156.94428749999497,
      "v": 54
    },
    {
      "midi": 72,
      "hit": false,
      "t": 211333.12199999957,
      "d": 156.94428749999497,
      "v": 54
    },
    {
      "midi": 65,
      "hit": false,
      "t": 211999.78799999956,
      "d": 156.94428749999497,
      "v": 54
    },
    {
      "midi": 53,
      "hit": false,
      "t": 211999.78799999956,
      "d": 240.277537499991,
      "v": 54
    },
    {
      "midi": 48,
      "hit": false,
      "t": 213333.11999999956,
      "d": 156.94428749999497,
      "v": 54
    },
    {
      "midi": 60,
      "hit": false,
      "t": 213333.11999999956,
      "d": 240.277537499991,
      "v": 54
    },
    {
      "midi": 60,
      "hit": false,
      "t": 213999.78599999956,
      "d": 156.94428749999497,
      "v": 54
    },
    {
      "midi": 72,
      "hit": false,
      "t": 213999.78599999956,
      "d": 156.94428749999497,
      "v": 54
    },
    {
      "midi": 65,
      "hit": false,
      "t": 214666.45199999955,
      "d": 156.94428749999497,
      "v": 54
    },
    {
      "midi": 53,
      "hit": false,
      "t": 214666.45199999955,
      "d": 240.277537499991,
      "v": 54
    },
    {
      "midi": 48,
      "hit": false,
      "t": 215999.78399999955,
      "d": 156.94428749999497,
      "v": 54
    },
    {
      "midi": 60,
      "hit": false,
      "t": 215999.78399999955,
      "d": 156.94428749999497,
      "v": 54
    },
    {
      "midi": 60,
      "hit": false,
      "t": 216666.44999999955,
      "d": 156.94428749999497,
      "v": 54
    },
    {
      "midi": 72,
      "hit": false,
      "t": 216666.44999999955,
      "d": 156.94428749999497,
      "v": 54
    },
    {
      "midi": 63,
      "hit": false,
      "t": 216999.78299999965,
      "d": 330.55522499998915,
      "v": 1
    },
    {
      "midi": 70,
      "hit": false,
      "t": 216999.78299999965,
      "d": 330.55522499998915,
      "v": 1
    },
    {
      "midi": 53,
      "hit": false,
      "t": 217333.11599999954,
      "d": 156.94428749999497,
      "v": 54
    },
    {
      "midi": 65,
      "hit": false,
      "t": 217333.11599999954,
      "d": 156.94428749999497,
      "v": 54
    },
    {
      "midi": 65,
      "hit": false,
      "t": 217333.11599999963,
      "d": 1024.998974999995,
      "v": 1
    },
    {
      "midi": 70,
      "hit": false,
      "t": 217333.11599999963,
      "d": 1024.998974999995,
      "v": 1
    },
    {
      "midi": 53,
      "hit": false,
      "t": 217999.78199999954,
      "d": 156.94428749999497,
      "v": 54
    },
    {
      "midi": 65,
      "hit": false,
      "t": 217999.78199999954,
      "d": 156.94428749999497,
      "v": 54
    },
    {
      "midi": 55,
      "hit": false,
      "t": 218333.11499999953,
      "d": 156.94428749999497,
      "v": 54
    },
    {
      "midi": 67,
      "hit": false,
      "t": 218333.11499999953,
      "d": 156.94428749999497,
      "v": 51
    },
    {
      "midi": 48,
      "hit": false,
      "t": 218666.4479999995,
      "d": 156.94428749999497,
      "v": 51
    },
    {
      "midi": 60,
      "hit": false,
      "t": 218666.4479999995,
      "d": 156.94428749999497,
      "v": 50
    },
    {
      "midi": 60,
      "hit": false,
      "t": 219333.1139999995,
      "d": 156.94428749999497,
      "v": 54
    },
    {
      "midi": 72,
      "hit": false,
      "t": 219333.1139999995,
      "d": 156.94428749999497,
      "v": 54
    },
    {
      "midi": 67,
      "hit": false,
      "t": 219333.11399999962,
      "d": 1024.998974999995,
      "v": 1
    },
    {
      "midi": 72,
      "hit": false,
      "t": 219333.11399999962,
      "d": 1024.998974999995,
      "v": 1
    },
    {
      "midi": 53,
      "hit": false,
      "t": 219999.7799999995,
      "d": 156.94428749999497,
      "v": 54
    },
    {
      "midi": 65,
      "hit": false,
      "t": 219999.7799999995,
      "d": 156.94428749999497,
      "v": 54
    },
    {
      "midi": 48,
      "hit": false,
      "t": 221333.1119999995,
      "d": 156.94428749999497,
      "v": 54
    },
    {
      "midi": 60,
      "hit": false,
      "t": 221333.1119999995,
      "d": 156.94428749999497,
      "v": 54
    },
    {
      "midi": 65,
      "hit": false,
      "t": 221333.11199999962,
      "d": 1663.8872250000131,
      "v": 1
    },
    {
      "midi": 70,
      "hit": false,
      "t": 221333.11199999962,
      "d": 1663.8872250000131,
      "v": 1
    },
    {
      "midi": 60,
      "hit": false,
      "t": 221999.7779999995,
      "d": 156.94428749999497,
      "v": 54
    },
    {
      "midi": 72,
      "hit": false,
      "t": 221999.7779999995,
      "d": 156.94428749999497,
      "v": 54
    },
    {
      "midi": 65,
      "hit": false,
      "t": 222666.4439999995,
      "d": 156.94428749999497,
      "v": 54
    },
    {
      "midi": 53,
      "hit": false,
      "t": 222666.4439999995,
      "d": 240.277537499991,
      "v": 54
    },
    {
      "midi": 67,
      "hit": false,
      "t": 222999.77699999962,
      "d": 330.55522499998915,
      "v": 1
    },
    {
      "midi": 72,
      "hit": false,
      "t": 222999.77699999962,
      "d": 330.55522499998915,
      "v": 1
    },
    {
      "midi": 65,
      "hit": false,
      "t": 223333.1099999996,
      "d": 330.55522499998915,
      "v": 1
    },
    {
      "midi": 70,
      "hit": false,
      "t": 223333.1099999996,
      "d": 330.55522499998915,
      "v": 1
    },
    {
      "midi": 63,
      "hit": false,
      "t": 223666.4429999996,
      "d": 330.55522499998915,
      "v": 1
    },
    {
      "midi": 67,
      "hit": false,
      "t": 223666.4429999996,
      "d": 330.55522499998915,
      "v": 1
    },
    {
      "midi": 48,
      "hit": false,
      "t": 223999.7759999995,
      "d": 156.94428749999497,
      "v": 54
    },
    {
      "midi": 60,
      "hit": false,
      "t": 223999.7759999995,
      "d": 240.277537499991,
      "v": 54
    },
    {
      "midi": 65,
      "hit": false,
      "t": 223999.77599999958,
      "d": 663.8882250000024,
      "v": 1
    },
    {
      "midi": 70,
      "hit": false,
      "t": 223999.77599999958,
      "d": 663.8882250000024,
      "v": 1
    },
    {
      "midi": 60,
      "hit": false,
      "t": 224666.4419999995,
      "d": 156.94428749999497,
      "v": 54
    },
    {
      "midi": 72,
      "hit": false,
      "t": 224666.4419999995,
      "d": 156.94428749999497,
      "v": 54
    },
    {
      "midi": 63,
      "hit": false,
      "t": 224666.44199999957,
      "d": 719.4437249999901,
      "v": 1
    },
    {
      "midi": 67,
      "hit": false,
      "t": 224666.44199999957,
      "d": 719.4437249999901,
      "v": 1
    },
    {
      "midi": 65,
      "hit": false,
      "t": 225333.10799999948,
      "d": 156.94428749999497,
      "v": 54
    },
    {
      "midi": 53,
      "hit": false,
      "t": 225333.10799999948,
      "d": 240.277537499991,
      "v": 54
    },
    {
      "midi": 48,
      "hit": false,
      "t": 226666.43999999948,
      "d": 156.94428749999497,
      "v": 54
    },
    {
      "midi": 60,
      "hit": false,
      "t": 226666.43999999948,
      "d": 156.94428749999497,
      "v": 54
    },
    {
      "midi": 60,
      "hit": false,
      "t": 227333.10599999948,
      "d": 156.94428749999497,
      "v": 54
    },
    {
      "midi": 72,
      "hit": false,
      "t": 227333.10599999948,
      "d": 156.94428749999497,
      "v": 54
    },
    {
      "midi": 53,
      "hit": false,
      "t": 227999.77199999947,
      "d": 156.94428749999497,
      "v": 54
    },
    {
      "midi": 65,
      "hit": false,
      "t": 227999.77199999947,
      "d": 156.94428749999497,
      "v": 54
    },
    {
      "midi": 53,
      "hit": false,
      "t": 228666.43799999947,
      "d": 156.94428749999497,
      "v": 54
    },
    {
      "midi": 65,
      "hit": false,
      "t": 228666.43799999947,
      "d": 156.94428749999497,
      "v": 54
    },
    {
      "midi": 55,
      "hit": false,
      "t": 228999.77099999945,
      "d": 156.94428749999497,
      "v": 54
    },
    {
      "midi": 67,
      "hit": false,
      "t": 228999.77099999945,
      "d": 156.94428749999497,
      "v": 51
    },
    {
      "midi": 48,
      "hit": false,
      "t": 229333.10399999944,
      "d": 156.94428749999497,
      "v": 61
    },
    {
      "midi": 60,
      "hit": false,
      "t": 229333.10399999944,
      "d": 156.94428749999497,
      "v": 60
    },
    {
      "midi": 60,
      "hit": false,
      "t": 229999.76999999944,
      "d": 156.94428749999497,
      "v": 64
    },
    {
      "midi": 72,
      "hit": false,
      "t": 229999.76999999944,
      "d": 156.94428749999497,
      "v": 64
    },
    {
      "midi": 53,
      "hit": false,
      "t": 230666.43599999943,
      "d": 156.94428749999497,
      "v": 64
    },
    {
      "midi": 65,
      "hit": false,
      "t": 230666.43599999943,
      "d": 156.94428749999497,
      "v": 64
    },
    {
      "midi": 48,
      "hit": false,
      "t": 231999.76799999943,
      "d": 156.94428749999497,
      "v": 64
    },
    {
      "midi": 60,
      "hit": false,
      "t": 231999.76799999943,
      "d": 156.94428749999497,
      "v": 64
    },
    {
      "midi": 60,
      "hit": false,
      "t": 232666.43399999943,
      "d": 156.94428749999497,
      "v": 64
    },
    {
      "midi": 72,
      "hit": false,
      "t": 232666.43399999943,
      "d": 156.94428749999497,
      "v": 64
    },
    {
      "midi": 65,
      "hit": false,
      "t": 233333.09999999942,
      "d": 156.94428749999497,
      "v": 64
    },
    {
      "midi": 53,
      "hit": false,
      "t": 233333.09999999942,
      "d": 240.277537499991,
      "v": 64
    },
    {
      "midi": 48,
      "hit": false,
      "t": 234666.43199999942,
      "d": 156.94428749999497,
      "v": 64
    },
    {
      "midi": 60,
      "hit": false,
      "t": 234666.43199999942,
      "d": 240.277537499991,
      "v": 64
    },
    {
      "midi": 60,
      "hit": false,
      "t": 235333.09799999942,
      "d": 156.94428749999497,
      "v": 64
    },
    {
      "midi": 72,
      "hit": false,
      "t": 235333.09799999942,
      "d": 156.94428749999497,
      "v": 64
    },
    {
      "midi": 65,
      "hit": false,
      "t": 235999.7639999994,
      "d": 156.94428749999497,
      "v": 64
    },
    {
      "midi": 53,
      "hit": false,
      "t": 235999.7639999994,
      "d": 240.277537499991,
      "v": 64
    },
    {
      "midi": 48,
      "hit": false,
      "t": 237333.0959999994,
      "d": 156.94428749999497,
      "v": 64
    },
    {
      "midi": 60,
      "hit": false,
      "t": 237333.0959999994,
      "d": 156.94428749999497,
      "v": 64
    },
    {
      "midi": 60,
      "hit": false,
      "t": 237999.7619999994,
      "d": 156.94428749999497,
      "v": 64
    },
    {
      "midi": 72,
      "hit": false,
      "t": 237999.7619999994,
      "d": 156.94428749999497,
      "v": 64
    },
    {
      "midi": 53,
      "hit": false,
      "t": 238666.4279999994,
      "d": 156.94428749999497,
      "v": 64
    },
    {
      "midi": 65,
      "hit": false,
      "t": 238666.4279999994,
      "d": 156.94428749999497,
      "v": 64
    }
  ]
}