{
  "jsonPath": "Rock/Dance Rock/Belinda Carlisle/mad-about-you-extended-version-digitally-remastered-02.json",
  "path": "Rock\\Dance Rock\\Belinda Carlisle\\Mad About You (Extended Version) (Digitally Remastered 02).mid",
  "name": "Mad About You (Extended Version) (Digitally Remastered 02)",
  "difficulty": "Advanced",
  "bpm": 143.99988480009216,
  "notes": [
    {
      "midi": 81,
      "hit": false,
      "t": 6409.72735,
      "d": 885.417375,
      "v": 85
    },
    {
      "midi": 76,
      "hit": false,
      "t": 6458.338500000001,
      "d": 378.47252500000104,
      "v": 56
    },
    {
      "midi": 81,
      "hit": false,
      "t": 6458.338500000001,
      "d": 447.91702500000065,
      "v": 63
    },
    {
      "midi": 45,
      "hit": false,
      "t": 6458.338500000001,
      "d": 680.5560999999998,
      "v": 72
    },
    {
      "midi": 76,
      "hit": false,
      "t": 6479.17185,
      "d": 763.8895000000002,
      "v": 72
    },
    {
      "midi": 73,
      "hit": false,
      "t": 6604.17195,
      "d": 774.3061750000006,
      "v": 46
    },
    {
      "midi": 73,
      "hit": false,
      "t": 6666.672000000001,
      "d": 260.4168749999999,
      "v": 34
    },
    {
      "midi": 57,
      "hit": false,
      "t": 6666.672000000001,
      "d": 423.6114499999994,
      "v": 63
    },
    {
      "midi": 69,
      "hit": false,
      "t": 7083.339000000001,
      "d": 2479.1686499999987,
      "v": 85
    },
    {
      "midi": 57,
      "hit": false,
      "t": 7291.672500000001,
      "d": 503.4726249999994,
      "v": 46
    },
    {
      "midi": 45,
      "hit": false,
      "t": 7500.006,
      "d": 500.0003999999999,
      "v": 46
    },
    {
      "midi": 73,
      "hit": false,
      "t": 7708.3395,
      "d": 638.8894,
      "v": 56
    },
    {
      "midi": 57,
      "hit": false,
      "t": 7916.673,
      "d": 756.9450499999994,
      "v": 72
    },
    {
      "midi": 45,
      "hit": false,
      "t": 8125.0065,
      "d": 1291.667699999999,
      "v": 72
    },
    {
      "midi": 74,
      "hit": false,
      "t": 8333.34,
      "d": 673.6116499999989,
      "v": 85
    },
    {
      "midi": 57,
      "hit": false,
      "t": 8750.007,
      "d": 402.77809999999954,
      "v": 56
    },
    {
      "midi": 73,
      "hit": false,
      "t": 8958.340499999998,
      "d": 638.8894000000018,
      "v": 63
    },
    {
      "midi": 57,
      "hit": false,
      "t": 9375.0075,
      "d": 138.8889999999992,
      "v": 72
    },
    {
      "midi": 76,
      "hit": false,
      "t": 9583.341,
      "d": 86.80562499999905,
      "v": 85
    },
    {
      "midi": 81,
      "hit": false,
      "t": 10000.008,
      "d": 510.4170750000012,
      "v": 102
    },
    {
      "midi": 74,
      "hit": false,
      "t": 10000.008,
      "d": 1152.7787000000008,
      "v": 63
    },
    {
      "midi": 62,
      "hit": false,
      "t": 10000.008,
      "d": 2552.0853750000006,
      "v": 42
    },
    {
      "midi": 50,
      "hit": false,
      "t": 10000.008,
      "d": 2593.7520750000003,
      "v": 46
    },
    {
      "midi": 79,
      "hit": false,
      "t": 10416.675000000001,
      "d": 670.1394249999994,
      "v": 56
    },
    {
      "midi": 78,
      "hit": false,
      "t": 11041.675500000001,
      "d": 704.8616749999983,
      "v": 56
    },
    {
      "midi": 76,
      "hit": false,
      "t": 11666.676,
      "d": 649.3060750000004,
      "v": 72
    },
    {
      "midi": 74,
      "hit": false,
      "t": 12291.6765,
      "d": 656.2505249999995,
      "v": 72
    },
    {
      "midi": 73,
      "hit": false,
      "t": 12916.677,
      "d": 722.2227999999996,
      "v": 85
    },
    {
      "midi": 57,
      "hit": false,
      "t": 13333.344,
      "d": 458.3336999999992,
      "v": 72
    },
    {
      "midi": 45,
      "hit": false,
      "t": 13333.344,
      "d": 611.1115999999984,
      "v": 72
    },
    {
      "midi": 64,
      "hit": false,
      "t": 13750.010999999999,
      "d": 125.00009999999929,
      "v": 63
    },
    {
      "midi": 69,
      "hit": false,
      "t": 13750.010999999999,
      "d": 138.8889999999992,
      "v": 85
    },
    {
      "midi": 57,
      "hit": false,
      "t": 13958.344499999997,
      "d": 503.47262500000215,
      "v": 85
    },
    {
      "midi": 45,
      "hit": false,
      "t": 14166.677999999998,
      "d": 486.1115000000009,
      "v": 72
    },
    {
      "midi": 69,
      "hit": false,
      "t": 14375.011499999999,
      "d": 423.61145000000033,
      "v": 102
    },
    {
      "midi": 73,
      "hit": false,
      "t": 14375.011499999999,
      "d": 486.1115000000009,
      "v": 56
    },
    {
      "midi": 57,
      "hit": false,
      "t": 14583.345,
      "d": 461.80592500000057,
      "v": 85
    },
    {
      "midi": 45,
      "hit": false,
      "t": 14791.678499999998,
      "d": 951.3896500000028,
      "v": 63
    },
    {
      "midi": 69,
      "hit": false,
      "t": 15000.011999999999,
      "d": 416.6670000000013,
      "v": 72
    },
    {
      "midi": 74,
      "hit": false,
      "t": 15000.011999999999,
      "d": 600.6949250000016,
      "v": 85
    },
    {
      "midi": 57,
      "hit": false,
      "t": 15416.679,
      "d": 444.4448000000011,
      "v": 85
    },
    {
      "midi": 69,
      "hit": false,
      "t": 15625.0125,
      "d": 385.4169750000001,
      "v": 85
    },
    {
      "midi": 73,
      "hit": false,
      "t": 15625.0125,
      "d": 618.0560499999992,
      "v": 42
    },
    {
      "midi": 76,
      "hit": false,
      "t": 16250.013,
      "d": 83.33339999999953,
      "v": 56
    },
    {
      "midi": 74,
      "hit": false,
      "t": 16666.68,
      "d": 614.5838249999979,
      "v": 72
    },
    {
      "midi": 67,
      "hit": false,
      "t": 16666.68,
      "d": 659.7227499999972,
      "v": 72
    },
    {
      "midi": 81,
      "hit": false,
      "t": 16666.68,
      "d": 788.195074999996,
      "v": 51
    },
    {
      "midi": 71,
      "hit": false,
      "t": 16666.68,
      "d": 850.6951249999947,
      "v": 51
    },
    {
      "midi": 55,
      "hit": false,
      "t": 16666.68,
      "d": 878.4729249999946,
      "v": 72
    },
    {
      "midi": 79,
      "hit": false,
      "t": 17291.6805,
      "d": 645.8338499999954,
      "v": 63
    },
    {
      "midi": 67,
      "hit": false,
      "t": 17500.013999999996,
      "d": 986.1118999999999,
      "v": 72
    },
    {
      "midi": 55,
      "hit": false,
      "t": 17708.347499999996,
      "d": 406.25032499999725,
      "v": 85
    },
    {
      "midi": 71,
      "hit": false,
      "t": 17916.680999999993,
      "d": 395.8336500000005,
      "v": 72
    },
    {
      "midi": 74,
      "hit": false,
      "t": 17916.680999999993,
      "d": 809.0284250000041,
      "v": 85
    },
    {
      "midi": 55,
      "hit": false,
      "t": 18125.014499999994,
      "d": 989.5841250000012,
      "v": 72
    },
    {
      "midi": 78,
      "hit": false,
      "t": 18333.347999999994,
      "d": 315.9724750000023,
      "v": 51
    },
    {
      "midi": 71,
      "hit": false,
      "t": 18333.347999999994,
      "d": 322.91692500000136,
      "v": 63
    },
    {
      "midi": 67,
      "hit": false,
      "t": 18750.014999999996,
      "d": 236.11130000000048,
      "v": 51
    },
    {
      "midi": 76,
      "hit": false,
      "t": 18958.348499999996,
      "d": 625.0004999999983,
      "v": 102
    },
    {
      "midi": 71,
      "hit": false,
      "t": 18958.348499999996,
      "d": 704.8616749999965,
      "v": 56
    },
    {
      "midi": 67,
      "hit": false,
      "t": 19166.681999999993,
      "d": 208.33350000000064,
      "v": 72
    },
    {
      "midi": 55,
      "hit": false,
      "t": 19375.015499999994,
      "d": 149.3056749999996,
      "v": 72
    },
    {
      "midi": 73,
      "hit": false,
      "t": 19583.348999999995,
      "d": 177.08347499999945,
      "v": 36
    },
    {
      "midi": 73,
      "hit": false,
      "t": 20000.015999999996,
      "d": 1979.1682500000024,
      "v": 24
    },
    {
      "midi": 45,
      "hit": false,
      "t": 20000.015999999996,
      "d": 2024.3071750000017,
      "v": 85
    },
    {
      "midi": 69,
      "hit": false,
      "t": 20000.015999999996,
      "d": 2024.3071750000017,
      "v": 72
    },
    {
      "midi": 57,
      "hit": false,
      "t": 20000.015999999996,
      "d": 2114.5850250000003,
      "v": 85
    },
    {
      "midi": 76,
      "hit": false,
      "t": 20208.349499999997,
      "d": 1673.6124500000005,
      "v": 10
    },
    {
      "midi": 69,
      "hit": false,
      "t": 23333.351999999995,
      "d": 1270.834350000001,
      "v": 127
    },
    {
      "midi": 62,
      "hit": false,
      "t": 23333.351999999995,
      "d": 1274.3065750000023,
      "v": 56
    },
    {
      "midi": 66,
      "hit": false,
      "t": 23333.351999999995,
      "d": 1295.1399250000031,
      "v": 46
    },
    {
      "midi": 50,
      "hit": false,
      "t": 23333.351999999995,
      "d": 1309.0288250000049,
      "v": 127
    },
    {
      "midi": 74,
      "hit": false,
      "t": 23333.351999999995,
      "d": 1319.4455000000053,
      "v": 72
    },
    {
      "midi": 76,
      "hit": false,
      "t": 26666.688000000002,
      "d": 1111.112000000001,
      "v": 63
    },
    {
      "midi": 45,
      "hit": false,
      "t": 26666.688000000002,
      "d": 1201.3898500000032,
      "v": 63
    },
    {
      "midi": 73,
      "hit": false,
      "t": 26666.688000000002,
      "d": 1239.5843250000034,
      "v": 39
    },
    {
      "midi": 69,
      "hit": false,
      "t": 26666.688000000002,
      "d": 1274.3065750000023,
      "v": 102
    },
    {
      "midi": 57,
      "hit": false,
      "t": 26666.688000000002,
      "d": 1277.7788000000037,
      "v": 39
    },
    {
      "midi": 86,
      "hit": false,
      "t": 29989.607325000004,
      "d": 222.22240000000238,
      "v": 72
    },
    {
      "midi": 66,
      "hit": false,
      "t": 30000.024000000005,
      "d": 1399.3066749999998,
      "v": 72
    },
    {
      "midi": 69,
      "hit": false,
      "t": 30000.024000000005,
      "d": 1427.0844749999997,
      "v": 85
    },
    {
      "midi": 62,
      "hit": false,
      "t": 30000.024000000005,
      "d": 1451.3900499999982,
      "v": 85
    },
    {
      "midi": 74,
      "hit": false,
      "t": 30000.024000000005,
      "d": 1451.3900499999982,
      "v": 72
    },
    {
      "midi": 50,
      "hit": false,
      "t": 30000.024000000005,
      "d": 1468.7511749999976,
      "v": 72
    },
    {
      "midi": 74,
      "hit": false,
      "t": 30000.024000000005,
      "d": 243.05575000000317,
      "v": 63
    },
    {
      "midi": 88,
      "hit": false,
      "t": 30180.579700000006,
      "d": 232.63907500000278,
      "v": 51
    },
    {
      "midi": 76,
      "hit": false,
      "t": 30194.468600000007,
      "d": 239.58352500000183,
      "v": 72
    },
    {
      "midi": 93,
      "hit": false,
      "t": 30385.44097500001,
      "d": 201.3890500000016,
      "v": 46
    },
    {
      "midi": 81,
      "hit": false,
      "t": 30402.802100000008,
      "d": 208.33350000000064,
      "v": 72
    },
    {
      "midi": 86,
      "hit": false,
      "t": 30583.35780000001,
      "d": 222.22240000000238,
      "v": 72
    },
    {
      "midi": 74,
      "hit": false,
      "t": 30621.55227500001,
      "d": 243.05575000000317,
      "v": 72
    },
    {
      "midi": 88,
      "hit": false,
      "t": 30774.33017500001,
      "d": 211.80572500000198,
      "v": 51
    },
    {
      "midi": 76,
      "hit": false,
      "t": 30819.469100000013,
      "d": 243.0557499999959,
      "v": 72
    },
    {
      "midi": 93,
      "hit": false,
      "t": 30986.135900000012,
      "d": 187.5001499999962,
      "v": 42
    },
    {
      "midi": 81,
      "hit": false,
      "t": 31010.44147500001,
      "d": 222.22239999999874,
      "v": 56
    },
    {
      "midi": 86,
      "hit": false,
      "t": 31187.52495000001,
      "d": 222.22240000000238,
      "v": 85
    },
    {
      "midi": 74,
      "hit": false,
      "t": 31246.55277500001,
      "d": 236.11130000000412,
      "v": 72
    },
    {
      "midi": 88,
      "hit": false,
      "t": 31378.49732500001,
      "d": 250.00020000000222,
      "v": 56
    },
    {
      "midi": 76,
      "hit": false,
      "t": 31440.997375000014,
      "d": 246.52797500000088,
      "v": 51
    },
    {
      "midi": 93,
      "hit": false,
      "t": 31600.719725000014,
      "d": 184.02792500000214,
      "v": 46
    },
    {
      "midi": 81,
      "hit": false,
      "t": 31649.330875000014,
      "d": 208.33350000000064,
      "v": 72
    },
    {
      "midi": 86,
      "hit": false,
      "t": 31791.692100000015,
      "d": 253.47242499999993,
      "v": 85
    },
    {
      "midi": 74,
      "hit": false,
      "t": 31857.664375000015,
      "d": 253.47242499999993,
      "v": 85
    },
    {
      "midi": 88,
      "hit": false,
      "t": 32010.442275000016,
      "d": 236.11130000000048,
      "v": 51
    },
    {
      "midi": 76,
      "hit": false,
      "t": 32062.525650000014,
      "d": 225.69462500000373,
      "v": 85
    },
    {
      "midi": 93,
      "hit": false,
      "t": 32225.720225000015,
      "d": 225.6946250000001,
      "v": 51
    },
    {
      "midi": 81,
      "hit": false,
      "t": 32250.025800000018,
      "d": 201.38904999999795,
      "v": 72
    },
    {
      "midi": 86,
      "hit": false,
      "t": 32434.053725000016,
      "d": 250.00020000000222,
      "v": 102
    },
    {
      "midi": 74,
      "hit": false,
      "t": 32465.303750000017,
      "d": 260.4168750000026,
      "v": 63
    },
    {
      "midi": 88,
      "hit": false,
      "t": 32638.91500000002,
      "d": 256.9446500000013,
      "v": 85
    },
    {
      "midi": 76,
      "hit": false,
      "t": 32673.637250000018,
      "d": 256.9446500000013,
      "v": 102
    },
    {
      "midi": 93,
      "hit": false,
      "t": 32836.83182500002,
      "d": 194.44459999999526,
      "v": 56
    },
    {
      "midi": 81,
      "hit": false,
      "t": 32871.55407500002,
      "d": 194.44459999999526,
      "v": 85
    },
    {
      "midi": 86,
      "hit": false,
      "t": 33034.748650000016,
      "d": 114.58342500000435,
      "v": 85
    },
    {
      "midi": 74,
      "hit": false,
      "t": 33076.41535000002,
      "d": 100.69452500000625,
      "v": 85
    },
    {
      "midi": 88,
      "hit": false,
      "t": 33142.38762500002,
      "d": 666.6672000000108,
      "v": 63
    },
    {
      "midi": 76,
      "hit": false,
      "t": 33156.27652500002,
      "d": 93.75007500000356,
      "v": 85
    },
    {
      "midi": 93,
      "hit": false,
      "t": 33170.16542500002,
      "d": 614.5838250000088,
      "v": 56
    },
    {
      "midi": 81,
      "hit": false,
      "t": 33218.776575000025,
      "d": 895.8340500000049,
      "v": 85
    },
    {
      "midi": 85,
      "hit": false,
      "t": 33295.165525000026,
      "d": 458.33370000000286,
      "v": 63
    },
    {
      "midi": 45,
      "hit": false,
      "t": 33333.36,
      "d": 1878.4737250000035,
      "v": 51
    },
    {
      "midi": 57,
      "hit": false,
      "t": 33333.36,
      "d": 1937.5015500000009,
      "v": 51
    },
    {
      "midi": 76,
      "hit": false,
      "t": 33333.36,
      "d": 1947.9182250000013,
      "v": 72
    },
    {
      "midi": 73,
      "hit": false,
      "t": 33333.36,
      "d": 1982.6404750000002,
      "v": 28
    },
    {
      "midi": 69,
      "hit": false,
      "t": 33333.36,
      "d": 2097.2238999999972,
      "v": 127
    },
    {
      "midi": 62,
      "hit": false,
      "t": 36666.695999999996,
      "d": 2142.362825000004,
      "v": 56
    },
    {
      "midi": 69,
      "hit": false,
      "t": 36666.695999999996,
      "d": 2145.8350500000015,
      "v": 72
    },
    {
      "midi": 66,
      "hit": false,
      "t": 36666.695999999996,
      "d": 2180.5573000000004,
      "v": 56
    },
    {
      "midi": 74,
      "hit": false,
      "t": 36666.695999999996,
      "d": 2184.029524999998,
      "v": 72
    },
    {
      "midi": 50,
      "hit": false,
      "t": 36666.695999999996,
      "d": 2208.3350999999966,
      "v": 56
    },
    {
      "midi": 45,
      "hit": false,
      "t": 40000.03199999999,
      "d": 1430.556700000001,
      "v": 72
    },
    {
      "midi": 69,
      "hit": false,
      "t": 40000.03199999999,
      "d": 1465.27895,
      "v": 102
    },
    {
      "midi": 76,
      "hit": false,
      "t": 40000.03199999999,
      "d": 1479.167849999998,
      "v": 63
    },
    {
      "midi": 57,
      "hit": false,
      "t": 40000.03199999999,
      "d": 1482.6400749999957,
      "v": 72
    },
    {
      "midi": 73,
      "hit": false,
      "t": 40000.03199999999,
      "d": 1482.6400749999957,
      "v": 85
    },
    {
      "midi": 76,
      "hit": false,
      "t": 43267.39572500003,
      "d": 812.5006500000018,
      "v": 85
    },
    {
      "midi": 76,
      "hit": false,
      "t": 43333.36799999999,
      "d": 1458.3344999999972,
      "v": 85
    },
    {
      "midi": 71,
      "hit": false,
      "t": 43333.36799999999,
      "d": 1468.7511749999976,
      "v": 102
    },
    {
      "midi": 68,
      "hit": false,
      "t": 43333.36799999999,
      "d": 1475.6956250000003,
      "v": 85
    },
    {
      "midi": 64,
      "hit": false,
      "t": 43333.36799999999,
      "d": 1538.1956750000027,
      "v": 85
    },
    {
      "midi": 52,
      "hit": false,
      "t": 43333.36799999999,
      "d": 1659.7235500000024,
      "v": 102
    },
    {
      "midi": 80,
      "hit": false,
      "t": 44006.97965000003,
      "d": 611.1116000000038,
      "v": 85
    },
    {
      "midi": 81,
      "hit": false,
      "t": 44590.31345000003,
      "d": 409.72255000000587,
      "v": 85
    },
    {
      "midi": 83,
      "hit": false,
      "t": 44954.89707500004,
      "d": 690.9727749999947,
      "v": 72
    },
    {
      "midi": 81,
      "hit": false,
      "t": 45597.258700000035,
      "d": 645.8338499999954,
      "v": 85
    },
    {
      "midi": 80,
      "hit": false,
      "t": 46211.84252500003,
      "d": 468.75037500000326,
      "v": 63
    },
    {
      "midi": 81,
      "hit": false,
      "t": 46625.03730000003,
      "d": 760.4172749999998,
      "v": 72
    },
    {
      "midi": 69,
      "hit": false,
      "t": 46666.70399999999,
      "d": 434.02812500000437,
      "v": 102
    },
    {
      "midi": 66,
      "hit": false,
      "t": 46666.70399999999,
      "d": 444.44480000000476,
      "v": 51
    },
    {
      "midi": 74,
      "hit": false,
      "t": 46666.70399999999,
      "d": 486.11150000000634,
      "v": 72
    },
    {
      "midi": 62,
      "hit": false,
      "t": 46666.70399999999,
      "d": 527.7782000000079,
      "v": 63
    },
    {
      "midi": 50,
      "hit": false,
      "t": 46666.70399999999,
      "d": 538.1948750000083,
      "v": 63
    },
    {
      "midi": 85,
      "hit": false,
      "t": 47329.89897500003,
      "d": 649.3060750000004,
      "v": 85
    },
    {
      "midi": 86,
      "hit": false,
      "t": 47927.12167500003,
      "d": 402.7781000000032,
      "v": 72
    },
    {
      "midi": 88,
      "hit": false,
      "t": 48291.70530000003,
      "d": 1694.4458000000086,
      "v": 56
    },
    {
      "midi": 85,
      "hit": false,
      "t": 48312.53865000003,
      "d": 1687.501350000006,
      "v": 51
    },
    {
      "midi": 81,
      "hit": false,
      "t": 48319.483100000034,
      "d": 1659.7235500000024,
      "v": 85
    },
    {
      "midi": 49,
      "hit": false,
      "t": 48333.371999999996,
      "d": 590.278250000003,
      "v": 63
    },
    {
      "midi": 76,
      "hit": false,
      "t": 48333.371999999996,
      "d": 604.1671500000011,
      "v": 72
    },
    {
      "midi": 69,
      "hit": false,
      "t": 48333.371999999996,
      "d": 611.1116000000038,
      "v": 72
    },
    {
      "midi": 73,
      "hit": false,
      "t": 48333.371999999996,
      "d": 621.5282750000042,
      "v": 36
    },
    {
      "midi": 61,
      "hit": false,
      "t": 48333.371999999996,
      "d": 631.9449500000046,
      "v": 42
    },
    {
      "midi": 64,
      "hit": false,
      "t": 50000.04,
      "d": 579.8615749999954,
      "v": 56
    },
    {
      "midi": 68,
      "hit": false,
      "t": 50000.04,
      "d": 579.8615749999954,
      "v": 72
    },
    {
      "midi": 71,
      "hit": false,
      "t": 50000.04,
      "d": 618.056049999992,
      "v": 127
    },
    {
      "midi": 76,
      "hit": false,
      "t": 50000.04,
      "d": 625.0004999999946,
      "v": 72
    },
    {
      "midi": 52,
      "hit": false,
      "t": 50000.04,
      "d": 670.1394249999939,
      "v": 72
    },
    {
      "midi": 45,
      "hit": false,
      "t": 51666.70799999999,
      "d": 440.9725749999998,
      "v": 72
    },
    {
      "midi": 69,
      "hit": false,
      "t": 51666.70799999999,
      "d": 472.22260000000097,
      "v": 102
    },
    {
      "midi": 76,
      "hit": false,
      "t": 51666.70799999999,
      "d": 472.22260000000097,
      "v": 85
    },
    {
      "midi": 73,
      "hit": false,
      "t": 51666.70799999999,
      "d": 486.11149999999907,
      "v": 63
    },
    {
      "midi": 57,
      "hit": false,
      "t": 51666.70799999999,
      "d": 510.41707499999757,
      "v": 127
    },
    {
      "midi": 62,
      "hit": false,
      "t": 53333.37599999999,
      "d": 416.6670000000013,
      "v": 85
    },
    {
      "midi": 66,
      "hit": false,
      "t": 53333.37599999999,
      "d": 458.33370000000286,
      "v": 63
    },
    {
      "midi": 69,
      "hit": false,
      "t": 53333.37599999999,
      "d": 475.69482500000595,
      "v": 85
    },
    {
      "midi": 38,
      "hit": false,
      "t": 53333.37599999999,
      "d": 954.8618750000023,
      "v": 63
    },
    {
      "midi": 50,
      "hit": false,
      "t": 53333.37599999999,
      "d": 1055.5564000000013,
      "v": 63
    },
    {
      "midi": 37,
      "hit": false,
      "t": 55000.04399999999,
      "d": 656.2505249999958,
      "v": 42
    },
    {
      "midi": 69,
      "hit": false,
      "t": 55000.04399999999,
      "d": 677.0838749999966,
      "v": 102
    },
    {
      "midi": 49,
      "hit": false,
      "t": 55000.04399999999,
      "d": 680.5560999999943,
      "v": 39
    },
    {
      "midi": 76,
      "hit": false,
      "t": 55000.04399999999,
      "d": 711.8061249999955,
      "v": 127
    },
    {
      "midi": 73,
      "hit": false,
      "t": 55000.04399999999,
      "d": 746.5283749999944,
      "v": 63
    },
    {
      "midi": 40,
      "hit": false,
      "t": 56666.711999999985,
      "d": 673.6116499999989,
      "v": 63
    },
    {
      "midi": 52,
      "hit": false,
      "t": 56666.711999999985,
      "d": 697.9172249999974,
      "v": 72
    },
    {
      "midi": 68,
      "hit": false,
      "t": 56666.711999999985,
      "d": 1444.445599999999,
      "v": 102
    },
    {
      "midi": 71,
      "hit": false,
      "t": 56666.711999999985,
      "d": 1451.3900500000018,
      "v": 102
    },
    {
      "midi": 76,
      "hit": false,
      "t": 56666.711999999985,
      "d": 1475.6956250000003,
      "v": 85
    },
    {
      "midi": 88,
      "hit": false,
      "t": 58597.269100000034,
      "d": 152.77790000000095,
      "v": 20
    },
    {
      "midi": 88,
      "hit": false,
      "t": 58993.102750000035,
      "d": 145.83344999999827,
      "v": 56
    },
    {
      "midi": 93,
      "hit": false,
      "t": 59378.519725000035,
      "d": 152.77790000000095,
      "v": 63
    },
    {
      "midi": 93,
      "hit": false,
      "t": 59732.68667500003,
      "d": 55.555599999999686,
      "v": 56
    },
    {
      "midi": 93,
      "hit": false,
      "t": 59996.575775000034,
      "d": 38.1944749999966,
      "v": 72
    },
    {
      "midi": 45,
      "hit": false,
      "t": 60000.04799999999,
      "d": 2576.3909499999936,
      "v": 85
    },
    {
      "midi": 73,
      "hit": false,
      "t": 60000.04799999999,
      "d": 2625.0020999999906,
      "v": 51
    },
    {
      "midi": 76,
      "hit": false,
      "t": 60000.04799999999,
      "d": 2628.4743249999883,
      "v": 72
    },
    {
      "midi": 57,
      "hit": false,
      "t": 60000.04799999999,
      "d": 2649.307674999989,
      "v": 85
    },
    {
      "midi": 69,
      "hit": false,
      "t": 60000.04799999999,
      "d": 2652.779899999987,
      "v": 72
    },
    {
      "midi": 62,
      "hit": false,
      "t": 63333.38399999998,
      "d": 1652.7790999999997,
      "v": 63
    },
    {
      "midi": 74,
      "hit": false,
      "t": 63333.38399999998,
      "d": 1659.7235500000024,
      "v": 72
    },
    {
      "midi": 66,
      "hit": false,
      "t": 63333.38399999998,
      "d": 1677.0846750000055,
      "v": 42
    },
    {
      "midi": 69,
      "hit": false,
      "t": 63333.38399999998,
      "d": 1680.5569000000032,
      "v": 102
    },
    {
      "midi": 50,
      "hit": false,
      "t": 63333.38399999998,
      "d": 1708.3347000000067,
      "v": 63
    },
    {
      "midi": 76,
      "hit": false,
      "t": 66666.71999999999,
      "d": 1892.3626250000088,
      "v": 72
    },
    {
      "midi": 45,
      "hit": false,
      "t": 66666.71999999999,
      "d": 1930.5571000000054,
      "v": 72
    },
    {
      "midi": 69,
      "hit": false,
      "t": 66666.71999999999,
      "d": 1947.9182250000013,
      "v": 102
    },
    {
      "midi": 73,
      "hit": false,
      "t": 66666.71999999999,
      "d": 1954.8626749999967,
      "v": 46
    },
    {
      "midi": 57,
      "hit": false,
      "t": 66666.71999999999,
      "d": 1993.0571499999933,
      "v": 102
    },
    {
      "midi": 74,
      "hit": false,
      "t": 69961.86152500003,
      "d": 218.7501750000083,
      "v": 63
    },
    {
      "midi": 86,
      "hit": false,
      "t": 70007.00045000004,
      "d": 208.33350000000792,
      "v": 72
    },
    {
      "midi": 66,
      "hit": false,
      "t": 70052.13937499998,
      "d": 1909.72374999999,
      "v": 51
    },
    {
      "midi": 69,
      "hit": false,
      "t": 70052.13937499998,
      "d": 1916.6681999999855,
      "v": 85
    },
    {
      "midi": 62,
      "hit": false,
      "t": 70052.13937499998,
      "d": 1947.9182249999867,
      "v": 72
    },
    {
      "midi": 76,
      "hit": false,
      "t": 70128.52832500004,
      "d": 270.8335500000103,
      "v": 72
    },
    {
      "midi": 88,
      "hit": false,
      "t": 70201.44505000004,
      "d": 253.47242500001448,
      "v": 51
    },
    {
      "midi": 74,
      "hit": false,
      "t": 70208.38949999999,
      "d": 1940.9737749999767,
      "v": 46
    },
    {
      "midi": 50,
      "hit": false,
      "t": 70208.38949999999,
      "d": 1986.1126999999833,
      "v": 51
    },
    {
      "midi": 81,
      "hit": false,
      "t": 70357.69517500004,
      "d": 225.69462500000373,
      "v": 63
    },
    {
      "midi": 93,
      "hit": false,
      "t": 70413.25077500005,
      "d": 218.7501750000083,
      "v": 56
    },
    {
      "midi": 74,
      "hit": false,
      "t": 70597.27870000005,
      "d": 229.1668500000087,
      "v": 63
    },
    {
      "midi": 86,
      "hit": false,
      "t": 70632.00095000006,
      "d": 229.1668500000087,
      "v": 85
    },
    {
      "midi": 76,
      "hit": false,
      "t": 70770.88995000006,
      "d": 260.4168750000099,
      "v": 56
    },
    {
      "midi": 88,
      "hit": false,
      "t": 70826.44555000006,
      "d": 267.3613250000053,
      "v": 56
    },
    {
      "midi": 83,
      "hit": false,
      "t": 70982.69567500007,
      "d": 211.80572499999835,
      "v": 72
    },
    {
      "midi": 95,
      "hit": false,
      "t": 71045.19572500007,
      "d": 215.27795000000333,
      "v": 63
    },
    {
      "midi": 74,
      "hit": false,
      "t": 71208.39030000007,
      "d": 239.58352499999455,
      "v": 63
    },
    {
      "midi": 86,
      "hit": false,
      "t": 71270.89035000007,
      "d": 243.05574999998498,
      "v": 85
    },
    {
      "midi": 76,
      "hit": false,
      "t": 71399.36267500007,
      "d": 256.94464999999036,
      "v": 72
    },
    {
      "midi": 88,
      "hit": false,
      "t": 71465.33495000006,
      "d": 236.11130000000412,
      "v": 42
    },
    {
      "midi": 81,
      "hit": false,
      "t": 71611.16840000005,
      "d": 250.00020000002405,
      "v": 72
    },
    {
      "midi": 93,
      "hit": false,
      "t": 71656.30732500006,
      "d": 184.0279250000167,
      "v": 63
    },
    {
      "midi": 74,
      "hit": false,
      "t": 71816.02967500007,
      "d": 256.9446500000049,
      "v": 63
    },
    {
      "midi": 86,
      "hit": false,
      "t": 71850.75192500008,
      "d": 298.6113500000065,
      "v": 72
    },
    {
      "midi": 76,
      "hit": false,
      "t": 72010.47427500007,
      "d": 246.52797500000452,
      "v": 42
    },
    {
      "midi": 88,
      "hit": false,
      "t": 72097.27990000008,
      "d": 215.27794999998878,
      "v": 39
    },
    {
      "midi": 79,
      "hit": false,
      "t": 72225.75222500008,
      "d": 281.25022499999614,
      "v": 72
    },
    {
      "midi": 95,
      "hit": false,
      "t": 72274.36337500007,
      "d": 170.13902499999676,
      "v": 72
    },
    {
      "midi": 74,
      "hit": false,
      "t": 72454.91907500007,
      "d": 232.63907499999914,
      "v": 85
    },
    {
      "midi": 86,
      "hit": false,
      "t": 72472.28020000007,
      "d": 243.05574999999953,
      "v": 72
    },
    {
      "midi": 76,
      "hit": false,
      "t": 72638.94700000007,
      "d": 322.9169249999977,
      "v": 72
    },
    {
      "midi": 88,
      "hit": false,
      "t": 72670.19702500007,
      "d": 256.94464999999036,
      "v": 56
    },
    {
      "midi": 93,
      "hit": false,
      "t": 72861.16940000007,
      "d": 173.61125000000175,
      "v": 56
    },
    {
      "midi": 81,
      "hit": false,
      "t": 72899.36387500007,
      "d": 187.50015000000712,
      "v": 63
    },
    {
      "midi": 86,
      "hit": false,
      "t": 73069.50290000008,
      "d": 79.86117499999818,
      "v": 102
    },
    {
      "midi": 74,
      "hit": false,
      "t": 73090.33625000008,
      "d": 90.27784999999858,
      "v": 85
    },
    {
      "midi": 76,
      "hit": false,
      "t": 73163.25297500008,
      "d": 284.72245000001567,
      "v": 85
    },
    {
      "midi": 81,
      "hit": false,
      "t": 73197.97522500007,
      "d": 239.58352500002366,
      "v": 85
    },
    {
      "midi": 88,
      "hit": false,
      "t": 73222.28080000008,
      "d": 3274.3081749999983,
      "v": 13
    },
    {
      "midi": 93,
      "hit": false,
      "t": 73225.75302500009,
      "d": 3263.891499999998,
      "v": 39
    },
    {
      "midi": 85,
      "hit": false,
      "t": 73260.47527500009,
      "d": 3229.1692499999917,
      "v": 51
    },
    {
      "midi": 73,
      "hit": false,
      "t": 73305.6142000001,
      "d": 128.47232499999518,
      "v": 56
    },
    {
      "midi": 45,
      "hit": false,
      "t": 73333.39199999998,
      "d": 2229.168449999983,
      "v": 63
    },
    {
      "midi": 64,
      "hit": false,
      "t": 73333.39199999998,
      "d": 2263.890699999989,
      "v": 72
    },
    {
      "midi": 57,
      "hit": false,
      "t": 73333.39199999998,
      "d": 2305.5573999999906,
      "v": 127
    },
    {
      "midi": 73,
      "hit": false,
      "t": 73333.39199999998,
      "d": 2319.446299999996,
      "v": 42
    },
    {
      "midi": 69,
      "hit": false,
      "t": 73333.39199999998,
      "d": 2444.4464000000007,
      "v": 127
    },
    {
      "midi": 81,
      "hit": false,
      "t": 73534.78105000009,
      "d": 187.50014999999257,
      "v": 72
    },
    {
      "midi": 76,
      "hit": false,
      "t": 73534.78105000009,
      "d": 190.97237499999756,
      "v": 85
    },
    {
      "midi": 73,
      "hit": false,
      "t": 73555.6144000001,
      "d": 138.88899999999558,
      "v": 63
    },
    {
      "midi": 50,
      "hit": false,
      "t": 76666.72799999997,
      "d": 607.6393749999988,
      "v": 51
    },
    {
      "midi": 38,
      "hit": false,
      "t": 76666.72799999997,
      "d": 611.1116000000038,
      "v": 63
    },
    {
      "midi": 62,
      "hit": false,
      "t": 76666.72799999997,
      "d": 680.5561000000016,
      "v": 72
    },
    {
      "midi": 69,
      "hit": false,
      "t": 76666.72799999997,
      "d": 680.5561000000016,
      "v": 72
    },
    {
      "midi": 66,
      "hit": false,
      "t": 76666.72799999997,
      "d": 701.3894500000024,
      "v": 56
    },
    {
      "midi": 45,
      "hit": false,
      "t": 80000.06399999997,
      "d": 1208.3343000000023,
      "v": 56
    },
    {
      "midi": 64,
      "hit": false,
      "t": 80000.06399999997,
      "d": 1246.5287749999989,
      "v": 63
    },
    {
      "midi": 57,
      "hit": false,
      "t": 80000.06399999997,
      "d": 1267.3621249999997,
      "v": 63
    },
    {
      "midi": 69,
      "hit": false,
      "t": 80000.06399999997,
      "d": 1295.1399249999959,
      "v": 85
    },
    {
      "midi": 73,
      "hit": false,
      "t": 80000.06399999997,
      "d": 1329.862175000002,
      "v": 39
    },
    {
      "midi": 71,
      "hit": false,
      "t": 83333.39999999997,
      "d": 2534.7242499999993,
      "v": 102
    },
    {
      "midi": 68,
      "hit": false,
      "t": 83333.39999999997,
      "d": 2538.1964750000043,
      "v": 85
    },
    {
      "midi": 76,
      "hit": false,
      "t": 83333.39999999997,
      "d": 2548.6131500000047,
      "v": 85
    },
    {
      "midi": 64,
      "hit": false,
      "t": 83333.39999999997,
      "d": 2593.7520750000112,
      "v": 127
    },
    {
      "midi": 52,
      "hit": false,
      "t": 83333.39999999997,
      "d": 2631.946550000008,
      "v": 63
    },
    {
      "midi": 76,
      "hit": false,
      "t": 83347.28890000007,
      "d": 715.2783499999932,
      "v": 102
    },
    {
      "midi": 80,
      "hit": false,
      "t": 84013.95610000007,
      "d": 600.6949250000034,
      "v": 85
    },
    {
      "midi": 81,
      "hit": false,
      "t": 84572.98432500007,
      "d": 423.6114499999967,
      "v": 85
    },
    {
      "midi": 83,
      "hit": false,
      "t": 84954.92907500007,
      "d": 694.445000000007,
      "v": 72
    },
    {
      "midi": 81,
      "hit": false,
      "t": 85597.29070000007,
      "d": 642.361625000005,
      "v": 63
    },
    {
      "midi": 80,
      "hit": false,
      "t": 86201.45785000008,
      "d": 482.6392749999941,
      "v": 46
    },
    {
      "midi": 81,
      "hit": false,
      "t": 86645.90265000008,
      "d": 729.1672499999986,
      "v": 72
    },
    {
      "midi": 66,
      "hit": false,
      "t": 86666.73599999998,
      "d": 767.3617249999952,
      "v": 127
    },
    {
      "midi": 69,
      "hit": false,
      "t": 86666.73599999998,
      "d": 791.667300000001,
      "v": 102
    },
    {
      "midi": 62,
      "hit": false,
      "t": 86666.73599999998,
      "d": 809.0284249999968,
      "v": 63
    },
    {
      "midi": 50,
      "hit": false,
      "t": 86666.73599999998,
      "d": 836.806224999993,
      "v": 127
    },
    {
      "midi": 74,
      "hit": false,
      "t": 86666.73599999998,
      "d": 836.806224999993,
      "v": 72
    },
    {
      "midi": 85,
      "hit": false,
      "t": 87319.51430000007,
      "d": 631.9449500000192,
      "v": 63
    },
    {
      "midi": 86,
      "hit": false,
      "t": 87916.73700000008,
      "d": 437.5003500000021,
      "v": 72
    },
    {
      "midi": 88,
      "hit": false,
      "t": 88316.04287500009,
      "d": 11784.731650000002,
      "v": 85
    },
    {
      "midi": 49,
      "hit": false,
      "t": 88333.40399999997,
      "d": 684.028324999992,
      "v": 102
    },
    {
      "midi": 61,
      "hit": false,
      "t": 88333.40399999997,
      "d": 697.9172249999974,
      "v": 72
    },
    {
      "midi": 73,
      "hit": false,
      "t": 88333.40399999997,
      "d": 701.3894500000024,
      "v": 56
    },
    {
      "midi": 69,
      "hit": false,
      "t": 88333.40399999997,
      "d": 711.8061250000028,
      "v": 85
    },
    {
      "midi": 76,
      "hit": false,
      "t": 88333.40399999997,
      "d": 732.6394750000036,
      "v": 72
    },
    {
      "midi": 64,
      "hit": false,
      "t": 90000.07199999997,
      "d": 333.3335999999981,
      "v": 51
    },
    {
      "midi": 52,
      "hit": false,
      "t": 90000.07199999997,
      "d": 399.3058749999909,
      "v": 63
    },
    {
      "midi": 68,
      "hit": false,
      "t": 90000.07199999997,
      "d": 409.7225499999913,
      "v": 51
    },
    {
      "midi": 71,
      "hit": false,
      "t": 90000.07199999997,
      "d": 430.5558999999921,
      "v": 85
    },
    {
      "midi": 76,
      "hit": false,
      "t": 90000.07199999997,
      "d": 440.9725749999925,
      "v": 63
    },
    {
      "midi": 45,
      "hit": false,
      "t": 91666.73999999996,
      "d": 517.3615250000003,
      "v": 56
    },
    {
      "midi": 76,
      "hit": false,
      "t": 91666.73999999996,
      "d": 541.667100000006,
      "v": 72
    },
    {
      "midi": 69,
      "hit": false,
      "t": 91666.73999999996,
      "d": 569.4449000000022,
      "v": 85
    },
    {
      "midi": 57,
      "hit": false,
      "t": 91666.73999999996,
      "d": 576.3893499999976,
      "v": 63
    },
    {
      "midi": 73,
      "hit": false,
      "t": 91666.73999999996,
      "d": 583.3337999999931,
      "v": 39
    },
    {
      "midi": 69,
      "hit": false,
      "t": 93333.40799999995,
      "d": 416.6670000000013,
      "v": 127
    },
    {
      "midi": 66,
      "hit": false,
      "t": 93333.40799999995,
      "d": 430.55590000000666,
      "v": 51
    },
    {
      "midi": 50,
      "hit": false,
      "t": 93333.40799999995,
      "d": 500.00040000000445,
      "v": 63
    },
    {
      "midi": 74,
      "hit": false,
      "t": 93333.40799999995,
      "d": 524.3059750000102,
      "v": 72
    },
    {
      "midi": 62,
      "hit": false,
      "t": 93333.40799999995,
      "d": 534.7226500000106,
      "v": 127
    },
    {
      "midi": 69,
      "hit": false,
      "t": 95000.07599999996,
      "d": 413.19477500001085,
      "v": 72
    },
    {
      "midi": 49,
      "hit": false,
      "t": 95000.07599999996,
      "d": 444.44480000001204,
      "v": 34
    },
    {
      "midi": 73,
      "hit": false,
      "t": 95000.07599999996,
      "d": 454.86147500001243,
      "v": 46
    },
    {
      "midi": 76,
      "hit": false,
      "t": 95000.07599999996,
      "d": 482.63927500000864,
      "v": 72
    },
    {
      "midi": 61,
      "hit": false,
      "t": 95000.07599999996,
      "d": 486.1115000000136,
      "v": 36
    },
    {
      "midi": 71,
      "hit": false,
      "t": 96666.74399999998,
      "d": 2156.251725000009,
      "v": 72
    },
    {
      "midi": 68,
      "hit": false,
      "t": 96666.74399999998,
      "d": 2218.7517750000115,
      "v": 36
    },
    {
      "midi": 76,
      "hit": false,
      "t": 96666.74399999998,
      "d": 2218.7517750000115,
      "v": 56
    },
    {
      "midi": 64,
      "hit": false,
      "t": 96666.74399999998,
      "d": 2246.5295750000078,
      "v": 51
    },
    {
      "midi": 52,
      "hit": false,
      "t": 96666.74399999998,
      "d": 2388.8908000000083,
      "v": 85
    },
    {
      "midi": 74,
      "hit": false,
      "t": 100000.07999999999,
      "d": 631.9449499999901,
      "v": 72
    },
    {
      "midi": 66,
      "hit": false,
      "t": 100208.41349999998,
      "d": 538.194875000001,
      "v": 46
    },
    {
      "midi": 50,
      "hit": false,
      "t": 100208.41349999998,
      "d": 565.9726749999973,
      "v": 102
    },
    {
      "midi": 69,
      "hit": false,
      "t": 100208.41349999998,
      "d": 565.9726749999973,
      "v": 102
    },
    {
      "midi": 62,
      "hit": false,
      "t": 100208.41349999998,
      "d": 583.3337999999931,
      "v": 63
    },
    {
      "midi": 76,
      "hit": false,
      "t": 101666.74799999998,
      "d": 805.5561999999918,
      "v": 72
    },
    {
      "midi": 69,
      "hit": false,
      "t": 101666.74799999998,
      "d": 815.9728749999922,
      "v": 127
    },
    {
      "midi": 73,
      "hit": false,
      "t": 101666.74799999998,
      "d": 826.3895499999926,
      "v": 56
    },
    {
      "midi": 49,
      "hit": false,
      "t": 101875.08149999997,
      "d": 715.2783499999932,
      "v": 30
    },
    {
      "midi": 61,
      "hit": false,
      "t": 101875.08149999997,
      "d": 739.583924999999,
      "v": 46
    },
    {
      "midi": 52,
      "hit": false,
      "t": 103333.41599999997,
      "d": 579.8615749999881,
      "v": 39
    },
    {
      "midi": 64,
      "hit": false,
      "t": 103333.41599999997,
      "d": 607.6393749999843,
      "v": 39
    },
    {
      "midi": 68,
      "hit": false,
      "t": 103333.41599999997,
      "d": 690.9727749999875,
      "v": 46
    },
    {
      "midi": 71,
      "hit": false,
      "t": 103333.41599999997,
      "d": 690.9727749999875,
      "v": 85
    },
    {
      "midi": 76,
      "hit": false,
      "t": 103333.41599999997,
      "d": 704.8616749999928,
      "v": 85
    },
    {
      "midi": 73,
      "hit": false,
      "t": 105000.08399999996,
      "d": 506.94484999999986,
      "v": 46
    },
    {
      "midi": 76,
      "hit": false,
      "t": 105000.08399999996,
      "d": 506.94484999999986,
      "v": 72
    },
    {
      "midi": 69,
      "hit": false,
      "t": 105000.08399999996,
      "d": 541.667100000006,
      "v": 63
    },
    {
      "midi": 45,
      "hit": false,
      "t": 105000.08399999996,
      "d": 548.6115500000014,
      "v": 63
    },
    {
      "midi": 57,
      "hit": false,
      "t": 105000.08399999996,
      "d": 579.8615750000026,
      "v": 85
    },
    {
      "midi": 62,
      "hit": false,
      "t": 106666.75199999996,
      "d": 298.6113500000065,
      "v": 72
    },
    {
      "midi": 66,
      "hit": false,
      "t": 106666.75199999996,
      "d": 319.4447000000073,
      "v": 63
    },
    {
      "midi": 69,
      "hit": false,
      "t": 106666.75199999996,
      "d": 340.2780500000081,
      "v": 72
    },
    {
      "midi": 50,
      "hit": false,
      "t": 106666.75199999996,
      "d": 458.33370000000286,
      "v": 63
    },
    {
      "midi": 61,
      "hit": false,
      "t": 108333.41999999997,
      "d": 371.52807500000927,
      "v": 85
    },
    {
      "midi": 69,
      "hit": false,
      "t": 108333.41999999997,
      "d": 395.83365000001504,
      "v": 85
    },
    {
      "midi": 64,
      "hit": false,
      "t": 108333.41999999997,
      "d": 399.30587500002,
      "v": 85
    },
    {
      "midi": 49,
      "hit": false,
      "t": 108333.41999999997,
      "d": 406.25032500001544,
      "v": 51
    },
    {
      "midi": 73,
      "hit": false,
      "t": 108333.41999999997,
      "d": 454.86147500001243,
      "v": 51
    },
    {
      "midi": 42,
      "hit": false,
      "t": 110000.08799999999,
      "d": 24.305575000005774,
      "v": 17
    },
    {
      "midi": 40,
      "hit": false,
      "t": 110000.08799999999,
      "d": 684.0283250000066,
      "v": 63
    },
    {
      "midi": 68,
      "hit": false,
      "t": 110000.08799999999,
      "d": 697.917225000012,
      "v": 102
    },
    {
      "midi": 52,
      "hit": false,
      "t": 110000.08799999999,
      "d": 722.2228000000177,
      "v": 72
    },
    {
      "midi": 76,
      "hit": false,
      "t": 110000.08799999999,
      "d": 729.1672500000132,
      "v": 85
    },
    {
      "midi": 71,
      "hit": false,
      "t": 110000.08799999999,
      "d": 739.5839250000136,
      "v": 102
    },
    {
      "midi": 81,
      "hit": false,
      "t": 113079.95157500009,
      "d": 854.1673500000034,
      "v": 26
    },
    {
      "midi": 81,
      "hit": false,
      "t": 113125.0905,
      "d": 340.2780500000081,
      "v": 56
    },
    {
      "midi": 76,
      "hit": false,
      "t": 113170.22942500009,
      "d": 809.0284250000113,
      "v": 56
    },
    {
      "midi": 73,
      "hit": false,
      "t": 113243.14615000009,
      "d": 763.8895000000048,
      "v": 39
    },
    {
      "midi": 73,
      "hit": false,
      "t": 113333.424,
      "d": 225.69462500001828,
      "v": 42
    },
    {
      "midi": 76,
      "hit": false,
      "t": 113333.424,
      "d": 260.41687500002445,
      "v": 63
    },
    {
      "midi": 57,
      "hit": false,
      "t": 113333.424,
      "d": 465.2781500000274,
      "v": 63
    },
    {
      "midi": 45,
      "hit": false,
      "t": 113333.424,
      "d": 663.1949750000203,
      "v": 56
    },
    {
      "midi": 69,
      "hit": false,
      "t": 113750.09100000003,
      "d": 434.02812499998254,
      "v": 72
    },
    {
      "midi": 57,
      "hit": false,
      "t": 113958.42450000002,
      "d": 513.8892999999807,
      "v": 85
    },
    {
      "midi": 45,
      "hit": false,
      "t": 114166.75800000002,
      "d": 434.02812499998254,
      "v": 85
    },
    {
      "midi": 69,
      "hit": false,
      "t": 114375.09150000001,
      "d": 454.86147499998333,
      "v": 127
    },
    {
      "midi": 73,
      "hit": false,
      "t": 114375.09150000001,
      "d": 510.4170749999903,
      "v": 63
    },
    {
      "midi": 57,
      "hit": false,
      "t": 114583.425,
      "d": 416.6670000000013,
      "v": 85
    },
    {
      "midi": 45,
      "hit": false,
      "t": 114791.7585,
      "d": 1111.1120000000228,
      "v": 63
    },
    {
      "midi": 69,
      "hit": false,
      "t": 115000.092,
      "d": 461.80592500000785,
      "v": 127
    },
    {
      "midi": 74,
      "hit": false,
      "t": 115000.092,
      "d": 656.2505250000104,
      "v": 85
    },
    {
      "midi": 57,
      "hit": false,
      "t": 115416.759,
      "d": 253.47242500001448,
      "v": 85
    },
    {
      "midi": 69,
      "hit": false,
      "t": 115625.09250000001,
      "d": 607.6393750000134,
      "v": 102
    },
    {
      "midi": 73,
      "hit": false,
      "t": 115625.09250000001,
      "d": 670.1394250000158,
      "v": 51
    },
    {
      "midi": 57,
      "hit": false,
      "t": 115833.42600000002,
      "d": 232.63907499999914,
      "v": 85
    },
    {
      "midi": 76,
      "hit": false,
      "t": 116250.09300000002,
      "d": 97.22230000000854,
      "v": 63
    },
    {
      "midi": 62,
      "hit": false,
      "t": 116666.76000000004,
      "d": 277.7780000000057,
      "v": 72
    },
    {
      "midi": 81,
      "hit": false,
      "t": 116666.76000000004,
      "d": 510.4170750000194,
      "v": 85
    },
    {
      "midi": 50,
      "hit": false,
      "t": 116666.76000000004,
      "d": 684.0283250000211,
      "v": 85
    },
    {
      "midi": 74,
      "hit": false,
      "t": 116666.76000000004,
      "d": 916.6674000000203,
      "v": 72
    },
    {
      "midi": 79,
      "hit": false,
      "t": 117083.42700000005,
      "d": 666.6672000000108,
      "v": 63
    },
    {
      "midi": 62,
      "hit": false,
      "t": 117291.76050000006,
      "d": 472.22260000000824,
      "v": 85
    },
    {
      "midi": 50,
      "hit": false,
      "t": 117500.09400000006,
      "d": 583.3338000000076,
      "v": 63
    },
    {
      "midi": 74,
      "hit": false,
      "t": 117708.42750000006,
      "d": 638.8894,
      "v": 102
    },
    {
      "midi": 78,
      "hit": false,
      "t": 117708.42750000006,
      "d": 791.667300000001,
      "v": 56
    },
    {
      "midi": 62,
      "hit": false,
      "t": 117916.76100000006,
      "d": 461.80592500000785,
      "v": 72
    },
    {
      "midi": 50,
      "hit": false,
      "t": 118333.42800000006,
      "d": 663.1949750000058,
      "v": 56
    },
    {
      "midi": 76,
      "hit": false,
      "t": 118333.42800000006,
      "d": 670.1394250000012,
      "v": 85
    },
    {
      "midi": 62,
      "hit": false,
      "t": 118750.09500000007,
      "d": 319.4446999999782,
      "v": 72
    },
    {
      "midi": 74,
      "hit": false,
      "t": 118958.42850000007,
      "d": 656.2505249999958,
      "v": 72
    },
    {
      "midi": 50,
      "hit": false,
      "t": 119166.76200000005,
      "d": 253.47242500001448,
      "v": 56
    },
    {
      "midi": 62,
      "hit": false,
      "t": 119375.09550000005,
      "d": 315.9724750000023,
      "v": 72
    },
    {
      "midi": 50,
      "hit": false,
      "t": 119583.42900000006,
      "d": 173.6112499999872,
      "v": 42
    },
    {
      "midi": 73,
      "hit": false,
      "t": 119583.42900000006,
      "d": 899.3062749999808,
      "v": 72
    },
    {
      "midi": 57,
      "hit": false,
      "t": 120000.09600000005,
      "d": 649.3060750000004,
      "v": 85
    },
    {
      "midi": 64,
      "hit": false,
      "t": 120416.76300000005,
      "d": 270.83354999999574,
      "v": 63
    },
    {
      "midi": 69,
      "hit": false,
      "t": 120416.76300000005,
      "d": 315.9724750000023,
      "v": 72
    },
    {
      "midi": 57,
      "hit": false,
      "t": 120833.43000000005,
      "d": 225.69462499998917,
      "v": 85
    },
    {
      "midi": 69,
      "hit": false,
      "t": 121041.76350000004,
      "d": 347.22249999998894,
      "v": 72
    },
    {
      "midi": 73,
      "hit": false,
      "t": 121041.76350000004,
      "d": 552.0837749999919,
      "v": 39
    },
    {
      "midi": 57,
      "hit": false,
      "t": 121250.09700000004,
      "d": 513.8892999999953,
      "v": 102
    },
    {
      "midi": 45,
      "hit": false,
      "t": 121458.43050000003,
      "d": 20.83335000000079,
      "v": 63
    },
    {
      "midi": 69,
      "hit": false,
      "t": 121666.76400000004,
      "d": 388.8892000000051,
      "v": 85
    },
    {
      "midi": 74,
      "hit": false,
      "t": 121666.76400000004,
      "d": 618.0560500000138,
      "v": 85
    },
    {
      "midi": 57,
      "hit": false,
      "t": 122083.43100000004,
      "d": 197.91682500000752,
      "v": 85
    },
    {
      "midi": 69,
      "hit": false,
      "t": 122291.76450000005,
      "d": 420.1392249999917,
      "v": 72
    },
    {
      "midi": 73,
      "hit": false,
      "t": 122291.76450000005,
      "d": 541.6670999999915,
      "v": 46
    },
    {
      "midi": 57,
      "hit": false,
      "t": 122500.09800000004,
      "d": 350.6947249999939,
      "v": 102
    },
    {
      "midi": 76,
      "hit": false,
      "t": 122930.65390000003,
      "d": 427.0836750000017,
      "v": 85
    },
    {
      "midi": 79,
      "hit": false,
      "t": 123333.43200000003,
      "d": 13.888900000005378,
      "v": 72
    },
    {
      "midi": 71,
      "hit": false,
      "t": 123333.43200000003,
      "d": 468.7503750000178,
      "v": 102
    },
    {
      "midi": 74,
      "hit": false,
      "t": 123333.43200000003,
      "d": 527.7782000000152,
      "v": 127
    },
    {
      "midi": 67,
      "hit": false,
      "t": 123333.43200000003,
      "d": 576.3893500000122,
      "v": 85
    },
    {
      "midi": 81,
      "hit": false,
      "t": 123333.43200000003,
      "d": 663.1949750000058,
      "v": 72
    },
    {
      "midi": 55,
      "hit": false,
      "t": 123333.43200000003,
      "d": 826.3895499999926,
      "v": 26
    },
    {
      "midi": 74,
      "hit": false,
      "t": 123958.43250000004,
      "d": 204.86127499998838,
      "v": 63
    },
    {
      "midi": 71,
      "hit": false,
      "t": 123958.43250000004,
      "d": 218.75017499999376,
      "v": 85
    },
    {
      "midi": 79,
      "hit": false,
      "t": 123958.43250000004,
      "d": 329.86137499999313,
      "v": 72
    },
    {
      "midi": 67,
      "hit": false,
      "t": 124166.76600000003,
      "d": 392.3614249999955,
      "v": 72
    },
    {
      "midi": 55,
      "hit": false,
      "t": 124375.09950000003,
      "d": 375.00030000001425,
      "v": 63
    },
    {
      "midi": 71,
      "hit": false,
      "t": 124583.43300000003,
      "d": 246.52797500000452,
      "v": 72
    },
    {
      "midi": 74,
      "hit": false,
      "t": 124583.43300000003,
      "d": 291.6669000000111,
      "v": 72
    },
    {
      "midi": 67,
      "hit": false,
      "t": 124791.76650000004,
      "d": 319.4447000000073,
      "v": 72
    },
    {
      "midi": 78,
      "hit": false,
      "t": 125000.10000000005,
      "d": 263.8891000000003,
      "v": 56
    },
    {
      "midi": 71,
      "hit": false,
      "t": 125000.10000000005,
      "d": 267.3613250000053,
      "v": 85
    },
    {
      "midi": 74,
      "hit": false,
      "t": 125000.10000000005,
      "d": 274.3057750000007,
      "v": 85
    },
    {
      "midi": 55,
      "hit": false,
      "t": 125000.10000000005,
      "d": 385.4169750000001,
      "v": 63
    },
    {
      "midi": 67,
      "hit": false,
      "t": 125416.76700000005,
      "d": 357.63917499998934,
      "v": 56
    },
    {
      "midi": 55,
      "hit": false,
      "t": 125625.10050000004,
      "d": 319.44469999999274,
      "v": 63
    },
    {
      "midi": 76,
      "hit": false,
      "t": 125625.10050000004,
      "d": 656.2505249999958,
      "v": 85
    },
    {
      "midi": 71,
      "hit": false,
      "t": 125625.10050000004,
      "d": 718.7505749999982,
      "v": 63
    },
    {
      "midi": 67,
      "hit": false,
      "t": 125833.43400000004,
      "d": 388.8892000000051,
      "v": 63
    },
    {
      "midi": 55,
      "hit": false,
      "t": 126250.10100000004,
      "d": 166.66680000000633,
      "v": 63
    },
    {
      "midi": 73,
      "hit": false,
      "t": 126250.10100000004,
      "d": 315.9724750000023,
      "v": 51
    },
    {
      "midi": 66,
      "hit": false,
      "t": 126666.76800000004,
      "d": 770.8339500000002,
      "v": 72
    },
    {
      "midi": 54,
      "hit": false,
      "t": 126666.76800000004,
      "d": 781.2506250000006,
      "v": 42
    },
    {
      "midi": 69,
      "hit": false,
      "t": 126666.76800000004,
      "d": 1125.000899999999,
      "v": 85
    },
    {
      "midi": 66,
      "hit": false,
      "t": 126850.79592500001,
      "d": 170.13902499999676,
      "v": 85
    },
    {
      "midi": 69,
      "hit": false,
      "t": 127062.60165000001,
      "d": 239.5835250000091,
      "v": 51
    },
    {
      "midi": 71,
      "hit": false,
      "t": 127277.87960000001,
      "d": 222.2224000000133,
      "v": 63
    },
    {
      "midi": 69,
      "hit": false,
      "t": 127486.21310000002,
      "d": 208.33350000000792,
      "v": 56
    },
    {
      "midi": 71,
      "hit": false,
      "t": 127666.76880000003,
      "d": 177.08347499999218,
      "v": 85
    },
    {
      "midi": 69,
      "hit": false,
      "t": 127847.32450000003,
      "d": 201.38904999999795,
      "v": 72
    },
    {
      "midi": 71,
      "hit": false,
      "t": 128041.76910000003,
      "d": 229.16684999999416,
      "v": 102
    },
    {
      "midi": 69,
      "hit": false,
      "t": 128284.82485000003,
      "d": 121.52787499999977,
      "v": 102
    },
    {
      "midi": 76,
      "hit": false,
      "t": 128333.43600000005,
      "d": 638.8894000000146,
      "v": 127
    },
    {
      "midi": 57,
      "hit": false,
      "t": 128333.43600000005,
      "d": 673.6116500000207,
      "v": 127
    },
    {
      "midi": 73,
      "hit": false,
      "t": 128333.43600000005,
      "d": 711.8061250000173,
      "v": 56
    },
    {
      "midi": 45,
      "hit": false,
      "t": 128333.43600000005,
      "d": 750.000600000014,
      "v": 102
    },
    {
      "midi": 69,
      "hit": false,
      "t": 128333.43600000005,
      "d": 798.6117500000109,
      "v": 85
    },
    {
      "midi": 71,
      "hit": false,
      "t": 128392.46382500003,
      "d": 107.63897500000894,
      "v": 102
    },
    {
      "midi": 73,
      "hit": false,
      "t": 128465.38055000003,
      "d": 1729.1680500000075,
      "v": 102
    },
    {
      "midi": 69,
      "hit": false,
      "t": 130000.10400000005,
      "d": 673.6116500000062,
      "v": 102
    },
    {
      "midi": 38,
      "hit": false,
      "t": 130000.10400000005,
      "d": 677.0838750000112,
      "v": 63
    },
    {
      "midi": 66,
      "hit": false,
      "t": 130000.10400000005,
      "d": 708.3339000000124,
      "v": 51
    },
    {
      "midi": 50,
      "hit": false,
      "t": 130000.10400000005,
      "d": 722.2228000000177,
      "v": 51
    },
    {
      "midi": 66,
      "hit": false,
      "t": 130194.54860000004,
      "d": 156.25012500000594,
      "v": 85
    },
    {
      "midi": 69,
      "hit": false,
      "t": 130385.52097500005,
      "d": 260.41687499999534,
      "v": 56
    },
    {
      "midi": 71,
      "hit": false,
      "t": 130614.68782500004,
      "d": 253.47242499999993,
      "v": 85
    },
    {
      "midi": 73,
      "hit": false,
      "t": 130826.49355000004,
      "d": 215.27795000000333,
      "v": 42
    },
    {
      "midi": 74,
      "hit": false,
      "t": 131027.88260000004,
      "d": 204.86127500000293,
      "v": 56
    },
    {
      "midi": 73,
      "hit": false,
      "t": 131229.27165000004,
      "d": 159.72234999999637,
      "v": 72
    },
    {
      "midi": 74,
      "hit": false,
      "t": 131399.41067500002,
      "d": 190.9723750000121,
      "v": 85
    },
    {
      "midi": 73,
      "hit": false,
      "t": 131590.38305000003,
      "d": 107.63897500000894,
      "v": 85
    },
    {
      "midi": 76,
      "hit": false,
      "t": 131666.77200000006,
      "d": 461.8059249999642,
      "v": 72
    },
    {
      "midi": 73,
      "hit": false,
      "t": 131666.77200000006,
      "d": 496.5281749999558,
      "v": 51
    },
    {
      "midi": 69,
      "hit": false,
      "t": 131666.77200000006,
      "d": 559.0282249999582,
      "v": 85
    },
    {
      "midi": 57,
      "hit": false,
      "t": 131666.77200000006,
      "d": 572.917124999949,
      "v": 127
    },
    {
      "midi": 45,
      "hit": false,
      "t": 131666.77200000006,
      "d": 621.5282749999606,
      "v": 63
    },
    {
      "midi": 74,
      "hit": false,
      "t": 131711.91092500003,
      "d": 138.88899999999558,
      "v": 102
    },
    {
      "midi": 76,
      "hit": false,
      "t": 131805.66100000002,
      "d": 1781.251425000024,
      "v": 85
    },
    {
      "midi": 66,
      "hit": false,
      "t": 133333.44,
      "d": 600.694925000018,
      "v": 63
    },
    {
      "midi": 42,
      "hit": false,
      "t": 133333.44,
      "d": 625.0005000000237,
      "v": 51
    },
    {
      "midi": 69,
      "hit": false,
      "t": 133333.44,
      "d": 631.9449500000337,
      "v": 102
    },
    {
      "midi": 73,
      "hit": false,
      "t": 133333.44,
      "d": 638.8894000000437,
      "v": 42
    },
    {
      "midi": 54,
      "hit": false,
      "t": 133333.44,
      "d": 684.0283250000502,
      "v": 51
    },
    {
      "midi": 66,
      "hit": false,
      "t": 133579.96797500004,
      "d": 138.88899999999558,
      "v": 63
    },
    {
      "midi": 69,
      "hit": false,
      "t": 133763.99590000004,
      "d": 215.27795000001788,
      "v": 51
    },
    {
      "midi": 71,
      "hit": false,
      "t": 133951.49605000005,
      "d": 236.11130000001867,
      "v": 85
    },
    {
      "midi": 73,
      "hit": false,
      "t": 134163.30177500006,
      "d": 263.8891000000003,
      "v": 42
    },
    {
      "midi": 74,
      "hit": false,
      "t": 134395.94085000007,
      "d": 211.8057249999838,
      "v": 72
    },
    {
      "midi": 73,
      "hit": false,
      "t": 134579.96877500004,
      "d": 177.08347500002128,
      "v": 63
    },
    {
      "midi": 74,
      "hit": false,
      "t": 134753.58002500006,
      "d": 194.4446000000171,
      "v": 72
    },
    {
      "midi": 73,
      "hit": false,
      "t": 134944.55240000007,
      "d": 128.47232500000973,
      "v": 63
    },
    {
      "midi": 76,
      "hit": false,
      "t": 135000.10800000007,
      "d": 409.72254999997676,
      "v": 72
    },
    {
      "midi": 73,
      "hit": false,
      "t": 135000.10800000007,
      "d": 437.5003499999875,
      "v": 42
    },
    {
      "midi": 69,
      "hit": false,
      "t": 135000.10800000007,
      "d": 440.9725749999925,
      "v": 127
    },
    {
      "midi": 57,
      "hit": false,
      "t": 135000.10800000007,
      "d": 486.11149999999907,
      "v": 63
    },
    {
      "midi": 45,
      "hit": false,
      "t": 135000.10800000007,
      "d": 597.222700000013,
      "v": 63
    },
    {
      "midi": 74,
      "hit": false,
      "t": 135045.24692500007,
      "d": 225.69462500000373,
      "v": 63
    },
    {
      "midi": 76,
      "hit": false,
      "t": 135229.27485000007,
      "d": 263.8891000000003,
      "v": 72
    },
    {
      "midi": 74,
      "hit": false,
      "t": 135458.44170000008,
      "d": 135.4167749999906,
      "v": 56
    },
    {
      "midi": 73,
      "hit": false,
      "t": 135573.02512500007,
      "d": 118.05564999999478,
      "v": 46
    },
    {
      "midi": 74,
      "hit": false,
      "t": 135694.55300000007,
      "d": 104.16675000000396,
      "v": 72
    },
    {
      "midi": 73,
      "hit": false,
      "t": 135784.8308500001,
      "d": 93.75007499998901,
      "v": 51
    },
    {
      "midi": 74,
      "hit": false,
      "t": 135871.63647500006,
      "d": 97.222299999994,
      "v": 63
    },
    {
      "midi": 73,
      "hit": false,
      "t": 135958.44210000007,
      "d": 52.08337499995832,
      "v": 42
    },
    {
      "midi": 71,
      "hit": false,
      "t": 136000.10880000005,
      "d": 97.222299999994,
      "v": 56
    },
    {
      "midi": 71,
      "hit": false,
      "t": 136132.05335000003,
      "d": 107.63897500000894,
      "v": 85
    },
    {
      "midi": 69,
      "hit": false,
      "t": 136218.85897500004,
      "d": 145.83345000000554,
      "v": 72
    },
    {
      "midi": 71,
      "hit": false,
      "t": 136336.91462500003,
      "d": 86.80562500000815,
      "v": 85
    },
    {
      "midi": 69,
      "hit": false,
      "t": 136399.41467500004,
      "d": 166.66680000000633,
      "v": 56
    },
    {
      "midi": 71,
      "hit": false,
      "t": 136534.83145000006,
      "d": 52.08337499998743,
      "v": 85
    },
    {
      "midi": 71,
      "hit": false,
      "t": 136666.77600000007,
      "d": 3732.641875000001,
      "v": 85
    },
    {
      "midi": 40,
      "hit": false,
      "t": 136666.77600000007,
      "d": 3767.364124999993,
      "v": 72
    },
    {
      "midi": 68,
      "hit": false,
      "t": 136666.77600000007,
      "d": 3774.3085750000027,
      "v": 56
    },
    {
      "midi": 64,
      "hit": false,
      "t": 136666.77600000007,
      "d": 3784.7252499999886,
      "v": 63
    },
    {
      "midi": 52,
      "hit": false,
      "t": 136666.77600000007,
      "d": 3791.6696999999986,
      "v": 127
    },
    {
      "midi": 85,
      "hit": false,
      "t": 137270.94315000004,
      "d": 447.91702500000247,
      "v": 56
    },
    {
      "midi": 76,
      "hit": false,
      "t": 137500.11000000007,
      "d": 3208.3359000000055,
      "v": 72
    },
    {
      "midi": 88,
      "hit": false,
      "t": 137701.49905000004,
      "d": 232.6390749999846,
      "v": 72
    },
    {
      "midi": 85,
      "hit": false,
      "t": 137937.61035000003,
      "d": 125.00010000000475,
      "v": 56
    },
    {
      "midi": 88,
      "hit": false,
      "t": 138260.52727500003,
      "d": 333.33359999998356,
      "v": 85
    },
    {
      "midi": 85,
      "hit": false,
      "t": 138538.30527500002,
      "d": 371.52807499992196,
      "v": 51
    },
    {
      "midi": 88,
      "hit": false,
      "t": 138895.94444999992,
      "d": 260.41687500002445,
      "v": 72
    },
    {
      "midi": 85,
      "hit": false,
      "t": 139139.00019999995,
      "d": 413.1947749998362,
      "v": 42
    },
    {
      "midi": 88,
      "hit": false,
      "t": 139524.41717499978,
      "d": 281.25022499999614,
      "v": 14
    },
    {
      "midi": 85,
      "hit": false,
      "t": 139795.2507249998,
      "d": 236.11129999998957,
      "v": 21
    },
    {
      "midi": 88,
      "hit": false,
      "t": 140014.00089999978,
      "d": 131.9445499999856,
      "v": 72
    },
    {
      "midi": 85,
      "hit": false,
      "t": 140128.58432499977,
      "d": 86.80562500000815,
      "v": 39
    },
    {
      "midi": 84,
      "hit": false,
      "t": 140218.86217499978,
      "d": 38.1944749999966,
      "v": 51
    },
    {
      "midi": 88,
      "hit": false,
      "t": 140291.77889999977,
      "d": 86.80562500000815,
      "v": 85
    },
    {
      "midi": 85,
      "hit": false,
      "t": 140316.08447499978,
      "d": 45.138925000006566,
      "v": 39
    },
    {
      "midi": 83,
      "hit": false,
      "t": 140385.5289749998,
      "d": 69.44450000001234,
      "v": 72
    },
    {
      "midi": 85,
      "hit": false,
      "t": 140472.3345999998,
      "d": 69.44450000001234,
      "v": 85
    },
    {
      "midi": 88,
      "hit": false,
      "t": 140475.8068249998,
      "d": 27.777800000010757,
      "v": 56
    },
    {
      "midi": 83,
      "hit": false,
      "t": 140545.25132499982,
      "d": 69.44450000001234,
      "v": 85
    },
    {
      "midi": 85,
      "hit": false,
      "t": 140618.16804999983,
      "d": 83.33340000000317,
      "v": 72
    },
    {
      "midi": 83,
      "hit": false,
      "t": 140704.97367499984,
      "d": 79.86117499999818,
      "v": 85
    },
    {
      "midi": 84,
      "hit": false,
      "t": 140708.44589999985,
      "d": 38.1944749999966,
      "v": 85
    },
    {
      "midi": 88,
      "hit": false,
      "t": 140767.47372499984,
      "d": 79.86117499999818,
      "v": 72
    },
    {
      "midi": 85,
      "hit": false,
      "t": 140774.41817499985,
      "d": 90.27784999998403,
      "v": 72
    },
    {
      "midi": 83,
      "hit": false,
      "t": 140871.64047499985,
      "d": 79.86117499999818,
      "v": 85
    },
    {
      "midi": 85,
      "hit": false,
      "t": 140934.14052499985,
      "d": 86.80562500000815,
      "v": 85
    },
    {
      "midi": 83,
      "hit": false,
      "t": 141034.83504999985,
      "d": 83.33340000000317,
      "v": 85
    },
    {
      "midi": 88,
      "hit": false,
      "t": 141093.86287499985,
      "d": 111.11120000001392,
      "v": 72
    },
    {
      "midi": 85,
      "hit": false,
      "t": 141114.69622499985,
      "d": 48.61115000001155,
      "v": 63
    },
    {
      "midi": 83,
      "hit": false,
      "t": 141187.61294999986,
      "d": 83.33340000000317,
      "v": 85
    },
    {
      "midi": 85,
      "hit": false,
      "t": 141267.47412499986,
      "d": 76.3889499999932,
      "v": 72
    },
    {
      "midi": 83,
      "hit": false,
      "t": 141361.22419999985,
      "d": 76.3889499999641,
      "v": 72
    },
    {
      "midi": 81,
      "hit": false,
      "t": 141371.64087499984,
      "d": 65.97227499997825,
      "v": 63
    },
    {
      "midi": 88,
      "hit": false,
      "t": 141402.89089999982,
      "d": 100.69452499996987,
      "v": 102
    },
    {
      "midi": 85,
      "hit": false,
      "t": 141423.72424999982,
      "d": 69.44449999998324,
      "v": 72
    },
    {
      "midi": 83,
      "hit": false,
      "t": 141510.5298749998,
      "d": 76.3889499999932,
      "v": 102
    },
    {
      "midi": 81,
      "hit": false,
      "t": 141524.4187749998,
      "d": 79.86117499999818,
      "v": 102
    },
    {
      "midi": 85,
      "hit": false,
      "t": 141559.1410249998,
      "d": 41.66670000000158,
      "v": 102
    },
    {
      "midi": 88,
      "hit": false,
      "t": 141566.0854749998,
      "d": 17.36112499999581,
      "v": 72
    },
    {
      "midi": 69,
      "hit": false,
      "t": 141666.7800000001,
      "d": 69.44450000001234,
      "v": 85
    },
    {
      "midi": 73,
      "hit": false,
      "t": 141666.7800000001,
      "d": 72.91672500001732,
      "v": 51
    },
    {
      "midi": 76,
      "hit": false,
      "t": 141666.7800000001,
      "d": 79.86117500002729,
      "v": 72
    },
    {
      "midi": 45,
      "hit": false,
      "t": 141666.7800000001,
      "d": 97.2223000000231,
      "v": 102
    },
    {
      "midi": 69,
      "hit": false,
      "t": 148333.4520000001,
      "d": 1979.168249999988,
      "v": 85
    },
    {
      "midi": 73,
      "hit": false,
      "t": 148333.4520000001,
      "d": 2003.4738249999937,
      "v": 51
    },
    {
      "midi": 76,
      "hit": false,
      "t": 148333.4520000001,
      "d": 2045.1405249999953,
      "v": 72
    },
    {
      "midi": 74,
      "hit": false,
      "t": 151666.7880000001,
      "d": 2625.0021000000124,
      "v": 85
    },
    {
      "midi": 69,
      "hit": false,
      "t": 151666.7880000001,
      "d": 2645.835450000013,
      "v": 85
    },
    {
      "midi": 78,
      "hit": false,
      "t": 151666.7880000001,
      "d": 2645.835450000013,
      "v": 39
    },
    {
      "midi": 69,
      "hit": false,
      "t": 155000.1240000001,
      "d": 673.6116500000062,
      "v": 127
    },
    {
      "midi": 73,
      "hit": false,
      "t": 155000.1240000001,
      "d": 694.445000000007,
      "v": 46
    },
    {
      "midi": 76,
      "hit": false,
      "t": 155000.1240000001,
      "d": 694.445000000007,
      "v": 85
    },
    {
      "midi": 71,
      "hit": false,
      "t": 158333.4600000001,
      "d": 2722.2244000000064,
      "v": 63
    },
    {
      "midi": 76,
      "hit": false,
      "t": 158333.4600000001,
      "d": 2736.1132999999973,
      "v": 102
    },
    {
      "midi": 80,
      "hit": false,
      "t": 158333.4600000001,
      "d": 2767.363324999984,
      "v": 25
    },
    {
      "midi": 71,
      "hit": false,
      "t": 158347.3489000001,
      "d": 642.3616250000196,
      "v": 51
    },
    {
      "midi": 76,
      "hit": false,
      "t": 158965.4049500001,
      "d": 618.0560499999847,
      "v": 63
    },
    {
      "midi": 80,
      "hit": false,
      "t": 159552.2109750001,
      "d": 475.6948249999841,
      "v": 42
    },
    {
      "midi": 81,
      "hit": false,
      "t": 159989.7113250001,
      "d": 680.5561000000162,
      "v": 72
    },
    {
      "midi": 80,
      "hit": false,
      "t": 160621.6562750001,
      "d": 649.3060750000295,
      "v": 39
    },
    {
      "midi": 76,
      "hit": false,
      "t": 161180.68450000012,
      "d": 312.5002500000119,
      "v": 46
    },
    {
      "midi": 76,
      "hit": false,
      "t": 161621.65707500014,
      "d": 684.0283250000211,
      "v": 56
    },
    {
      "midi": 80,
      "hit": false,
      "t": 161774.4349750001,
      "d": 1114.5842250000278,
      "v": 72
    },
    {
      "midi": 71,
      "hit": false,
      "t": 161777.9072000001,
      "d": 1086.806425000017,
      "v": 127
    },
    {
      "midi": 64,
      "hit": false,
      "t": 161781.3794250001,
      "d": 600.694925000018,
      "v": 127
    },
    {
      "midi": 76,
      "hit": false,
      "t": 161784.8516500001,
      "d": 1104.1675500000129,
      "v": 127
    },
    {
      "midi": 52,
      "hit": false,
      "t": 161788.32387500012,
      "d": 677.0838750000112,
      "v": 127
    },
    {
      "midi": 80,
      "hit": false,
      "t": 162260.54647500016,
      "d": 652.7783000000054,
      "v": 72
    },
    {
      "midi": 81,
      "hit": false,
      "t": 162902.90810000018,
      "d": 472.22259999997914,
      "v": 72
    },
    {
      "midi": 80,
      "hit": false,
      "t": 162941.1025750001,
      "d": 1312.5010500000208,
      "v": 63
    },
    {
      "midi": 71,
      "hit": false,
      "t": 162948.04702500012,
      "d": 1215.2787499999977,
      "v": 85
    },
    {
      "midi": 76,
      "hit": false,
      "t": 162951.51925000013,
      "d": 1343.7510750000074,
      "v": 85
    },
    {
      "midi": 52,
      "hit": false,
      "t": 162954.99147500013,
      "d": 576.3893499999831,
      "v": 72
    },
    {
      "midi": 40,
      "hit": false,
      "t": 162965.40815000012,
      "d": 1184.028725000011,
      "v": 85
    },
    {
      "midi": 83,
      "hit": false,
      "t": 163323.04732500017,
      "d": 190.972374999983,
      "v": 72
    },
    {
      "midi": 85,
      "hit": false,
      "t": 163753.60322500014,
      "d": 215.27794999998878,
      "v": 42
    },
    {
      "midi": 83,
      "hit": false,
      "t": 163986.24230000013,
      "d": 326.3891500000027,
      "v": 51
    },
    {
      "midi": 85,
      "hit": false,
      "t": 164323.04812500012,
      "d": 350.6947250000085,
      "v": 36
    },
    {
      "midi": 83,
      "hit": false,
      "t": 164545.27052500012,
      "d": 284.7224500000302,
      "v": 34
    },
    {
      "midi": 81,
      "hit": false,
      "t": 164764.02070000014,
      "d": 135.4167750000197,
      "v": 42
    },
    {
      "midi": 66,
      "hit": false,
      "t": 165000.13200000013,
      "d": 541.6671000000206,
      "v": 102
    },
    {
      "midi": 69,
      "hit": false,
      "t": 165000.13200000013,
      "d": 555.5560000000114,
      "v": 127
    },
    {
      "midi": 62,
      "hit": false,
      "t": 165000.13200000013,
      "d": 597.222700000013,
      "v": 127
    },
    {
      "midi": 78,
      "hit": false,
      "t": 165041.79870000016,
      "d": 72.91672499998822,
      "v": 17
    },
    {
      "midi": 74,
      "hit": false,
      "t": 165086.93762500014,
      "d": 635.4171750000096,
      "v": 85
    },
    {
      "midi": 50,
      "hit": false,
      "t": 165090.40985000014,
      "d": 625.0004999999946,
      "v": 72
    },
    {
      "midi": 69,
      "hit": false,
      "t": 166666.80000000013,
      "d": 486.11149999999907,
      "v": 127
    },
    {
      "midi": 49,
      "hit": false,
      "t": 166687.63335000013,
      "d": 381.9447499999951,
      "v": 42
    },
    {
      "midi": 61,
      "hit": false,
      "t": 166694.57780000014,
      "d": 364.5836249999993,
      "v": 56
    },
    {
      "midi": 76,
      "hit": false,
      "t": 166698.05002500015,
      "d": 479.1670499999891,
      "v": 72
    },
    {
      "midi": 73,
      "hit": false,
      "t": 166704.99447500016,
      "d": 482.639274999965,
      "v": 63
    },
    {
      "midi": 64,
      "hit": false,
      "t": 168333.46800000014,
      "d": 295.13912499998696,
      "v": 85
    },
    {
      "midi": 68,
      "hit": false,
      "t": 168333.46800000014,
      "d": 392.36142499998095,
      "v": 56
    },
    {
      "midi": 71,
      "hit": false,
      "t": 168333.46800000014,
      "d": 406.2503249999718,
      "v": 127
    },
    {
      "midi": 76,
      "hit": false,
      "t": 168416.80140000014,
      "d": 402.7780999999668,
      "v": 85
    },
    {
      "midi": 52,
      "hit": false,
      "t": 168420.27362500015,
      "d": 354.16694999995525,
      "v": 85
    },
    {
      "midi": 69,
      "hit": false,
      "t": 170000.13600000012,
      "d": 857.6395750000083,
      "v": 127
    },
    {
      "midi": 57,
      "hit": false,
      "t": 170000.13600000012,
      "d": 875.0007000000041,
      "v": 102
    },
    {
      "midi": 76,
      "hit": false,
      "t": 170055.6916000001,
      "d": 777.7784000000102,
      "v": 85
    },
    {
      "midi": 73,
      "hit": false,
      "t": 170062.63605000012,
      "d": 829.8617749999976,
      "v": 102
    },
    {
      "midi": 45,
      "hit": false,
      "t": 170069.58050000013,
      "d": 815.9728749999776,
      "v": 127
    },
    {
      "midi": 66,
      "hit": false,
      "t": 171618.1928500001,
      "d": 517.3615249999857,
      "v": 63
    },
    {
      "midi": 62,
      "hit": false,
      "t": 171618.1928500001,
      "d": 531.2504249999765,
      "v": 85
    },
    {
      "midi": 69,
      "hit": false,
      "t": 171618.1928500001,
      "d": 555.5559999999823,
      "v": 85
    },
    {
      "midi": 74,
      "hit": false,
      "t": 171701.5262500001,
      "d": 600.6949249999598,
      "v": 85
    },
    {
      "midi": 50,
      "hit": false,
      "t": 171722.3596000001,
      "d": 527.7781999999715,
      "v": 72
    },
    {
      "midi": 61,
      "hit": false,
      "t": 173284.86085000008,
      "d": 447.9170250000316,
      "v": 51
    },
    {
      "midi": 69,
      "hit": false,
      "t": 173284.86085000008,
      "d": 454.86147500004154,
      "v": 102
    },
    {
      "midi": 76,
      "hit": false,
      "t": 173416.8054000001,
      "d": 440.9725750000216,
      "v": 72
    },
    {
      "midi": 73,
      "hit": false,
      "t": 173423.7498500001,
      "d": 503.472625000024,
      "v": 51
    },
    {
      "midi": 49,
      "hit": false,
      "t": 173444.5832000001,
      "d": 399.30587500002,
      "v": 39
    },
    {
      "midi": 64,
      "hit": false,
      "t": 175000.14000000013,
      "d": 954.8618749999732,
      "v": 85
    },
    {
      "midi": 68,
      "hit": false,
      "t": 175000.14000000013,
      "d": 1208.3342999999586,
      "v": 63
    },
    {
      "midi": 71,
      "hit": false,
      "t": 175000.14000000013,
      "d": 1250.0009999999602,
      "v": 102
    },
    {
      "midi": 76,
      "hit": false,
      "t": 175055.69560000012,
      "d": 1239.5843249999743,
      "v": 85
    },
    {
      "midi": 52,
      "hit": false,
      "t": 175066.1122750001,
      "d": 1083.334199999983,
      "v": 85
    },
    {
      "midi": 66,
      "hit": false,
      "t": 178333.4760000001,
      "d": 371.52807499998016,
      "v": 63
    },
    {
      "midi": 69,
      "hit": false,
      "t": 178333.4760000001,
      "d": 416.66699999998673,
      "v": 102
    },
    {
      "midi": 62,
      "hit": false,
      "t": 178333.4760000001,
      "d": 531.2504249999765,
      "v": 72
    },
    {
      "midi": 74,
      "hit": false,
      "t": 178392.5038250001,
      "d": 461.8059249999933,
      "v": 72
    },
    {
      "midi": 50,
      "hit": false,
      "t": 178409.8649500001,
      "d": 565.9726749999973,
      "v": 85
    },
    {
      "midi": 88,
      "hit": false,
      "t": 179409.86575000014,
      "d": 190.9723750000121,
      "v": 7
    },
    {
      "midi": 93,
      "hit": false,
      "t": 179958.47730000014,
      "d": 62.500050000002375,
      "v": 72
    },
    {
      "midi": 49,
      "hit": false,
      "t": 180045.2829250001,
      "d": 538.1948750000156,
      "v": 42
    },
    {
      "midi": 69,
      "hit": false,
      "t": 180048.7551500001,
      "d": 527.7782000000007,
      "v": 102
    },
    {
      "midi": 61,
      "hit": false,
      "t": 180048.7551500001,
      "d": 565.9726749999973,
      "v": 63
    },
    {
      "midi": 73,
      "hit": false,
      "t": 180055.6996000001,
      "d": 500.0003999999899,
      "v": 63
    },
    {
      "midi": 76,
      "hit": false,
      "t": 180059.1718250001,
      "d": 489.58372499997495,
      "v": 127
    },
    {
      "midi": 88,
      "hit": false,
      "t": 180795.28352500015,
      "d": 361.1113999999943,
      "v": 51
    },
    {
      "midi": 93,
      "hit": false,
      "t": 181184.17272500016,
      "d": 246.52797500000452,
      "v": 46
    },
    {
      "midi": 88,
      "hit": false,
      "t": 181444.58960000015,
      "d": 461.8059249999933,
      "v": 39
    },
    {
      "midi": 68,
      "hit": false,
      "t": 181642.5064250001,
      "d": 534.7226500000106,
      "v": 46
    },
    {
      "midi": 76,
      "hit": false,
      "t": 181642.5064250001,
      "d": 597.222700000013,
      "v": 85
    },
    {
      "midi": 64,
      "hit": false,
      "t": 181666.8120000001,
      "d": 444.4447999999975,
      "v": 63
    },
    {
      "midi": 71,
      "hit": false,
      "t": 181666.8120000001,
      "d": 579.8615750000172,
      "v": 85
    },
    {
      "midi": 52,
      "hit": false,
      "t": 181722.36760000009,
      "d": 520.8337500000198,
      "v": 85
    },
    {
      "midi": 93,
      "hit": false,
      "t": 181861.25660000014,
      "d": 937.5007500000065,
      "v": 46
    },
    {
      "midi": 88,
      "hit": false,
      "t": 182774.45177500014,
      "d": 506.94484999999986,
      "v": 51
    },
    {
      "midi": 93,
      "hit": false,
      "t": 183257.09105000013,
      "d": 6055.560400000017,
      "v": 39
    },
    {
      "midi": 76,
      "hit": false,
      "t": 183309.17442500012,
      "d": 555.5559999999823,
      "v": 72
    },
    {
      "midi": 73,
      "hit": false,
      "t": 183309.17442500012,
      "d": 576.3893499999831,
      "v": 72
    },
    {
      "midi": 69,
      "hit": false,
      "t": 183333.48000000013,
      "d": 576.3893499999831,
      "v": 127
    },
    {
      "midi": 57,
      "hit": false,
      "t": 183333.48000000013,
      "d": 670.1394249999721,
      "v": 102
    },
    {
      "midi": 45,
      "hit": false,
      "t": 183385.5633750001,
      "d": 607.6393749999988,
      "v": 85
    },
    {
      "midi": 69,
      "hit": false,
      "t": 185000.1480000001,
      "d": 524.3059750000248,
      "v": 85
    },
    {
      "midi": 74,
      "hit": false,
      "t": 185000.1480000001,
      "d": 559.0282250000164,
      "v": 63
    },
    {
      "midi": 62,
      "hit": false,
      "t": 185000.1480000001,
      "d": 725.6950250000227,
      "v": 63
    },
    {
      "midi": 78,
      "hit": false,
      "t": 185045.2869250001,
      "d": 638.8894000000146,
      "v": 39
    },
    {
      "midi": 50,
      "hit": false,
      "t": 185062.6480500001,
      "d": 711.8061250000319,
      "v": 63
    },
    {
      "midi": 73,
      "hit": false,
      "t": 186666.81600000014,
      "d": 423.6114499999967,
      "v": 46
    },
    {
      "midi": 76,
      "hit": false,
      "t": 186666.81600000014,
      "d": 434.02812499998254,
      "v": 72
    },
    {
      "midi": 61,
      "hit": false,
      "t": 186666.81600000014,
      "d": 500.0003999999899,
      "v": 39
    },
    {
      "midi": 81,
      "hit": false,
      "t": 186736.26050000015,
      "d": 482.639274999965,
      "v": 72
    },
    {
      "midi": 49,
      "hit": false,
      "t": 186757.09385000015,
      "d": 447.91702499997336,
      "v": 39
    },
    {
      "midi": 83,
      "hit": false,
      "t": 188364.73402500013,
      "d": 795.139525000006,
      "v": 72
    },
    {
      "midi": 76,
      "hit": false,
      "t": 188364.73402500013,
      "d": 826.3895499999926,
      "v": 72
    },
    {
      "midi": 52,
      "hit": false,
      "t": 188368.20625000013,
      "d": 836.8062250000075,
      "v": 85
    },
    {
      "midi": 80,
      "hit": false,
      "t": 188371.67847500014,
      "d": 826.3895499999926,
      "v": 63
    },
    {
      "midi": 64,
      "hit": false,
      "t": 188375.15070000014,
      "d": 819.4450999999826,
      "v": 85
    },
    {
      "midi": 74,
      "hit": false,
      "t": 191666.82000000015,
      "d": 309.028025000036,
      "v": 102
    },
    {
      "midi": 78,
      "hit": false,
      "t": 191666.82000000015,
      "d": 347.2225000000326,
      "v": 72
    },
    {
      "midi": 81,
      "hit": false,
      "t": 191666.82000000015,
      "d": 409.72255000003497,
      "v": 85
    },
    {
      "midi": 62,
      "hit": false,
      "t": 191715.43115000016,
      "d": 434.02812500004075,
      "v": 63
    },
    {
      "midi": 50,
      "hit": false,
      "t": 191722.37560000017,
      "d": 420.1392250000208,
      "v": 72
    },
    {
      "midi": 73,
      "hit": false,
      "t": 192923.7654500002,
      "d": 625.0005000000237,
      "v": 42
    },
    {
      "midi": 76,
      "hit": false,
      "t": 192927.23767500021,
      "d": 649.3060750000295,
      "v": 85
    },
    {
      "midi": 49,
      "hit": false,
      "t": 192927.23767500021,
      "d": 666.6672000000253,
      "v": 46
    },
    {
      "midi": 81,
      "hit": false,
      "t": 192934.18212500022,
      "d": 701.389450000017,
      "v": 85
    },
    {
      "midi": 61,
      "hit": false,
      "t": 192937.65435000023,
      "d": 673.6116500000062,
      "v": 51
    },
    {
      "midi": 88,
      "hit": false,
      "t": 195055.71160000024,
      "d": 208.33350000000792,
      "v": 85
    },
    {
      "midi": 52,
      "hit": false,
      "t": 195055.71160000024,
      "d": 218.75017500002286,
      "v": 85
    },
    {
      "midi": 80,
      "hit": false,
      "t": 195062.65605000025,
      "d": 204.86127500000293,
      "v": 72
    },
    {
      "midi": 83,
      "hit": false,
      "t": 195066.12827500026,
      "d": 204.86127500000293,
      "v": 85
    },
    {
      "midi": 64,
      "hit": false,
      "t": 195069.60050000026,
      "d": 204.86127500000293,
      "v": 85
    }
  ]
}