{
  "jsonPath": "Rock/Psychedelic Rock/Beatles/here-there-and-everywhere.json",
  "path": "Rock\\Psychedelic Rock\\Beatles\\Here There and Everywhere.mid",
  "name": "Here There and Everywhere",
  "difficulty": "Advanced",
  "bpm": 100,
  "notes": [
    {
      "midi": 67,
      "hit": false,
      "t": 0,
      "d": 2400,
      "v": 90
    },
    {
      "midi": 55,
      "hit": false,
      "t": 0,
      "d": 600,
      "v": 86
    },
    {
      "midi": 59,
      "hit": false,
      "t": 600,
      "d": 600,
      "v": 94
    },
    {
      "midi": 62,
      "hit": false,
      "t": 600,
      "d": 600,
      "v": 72
    },
    {
      "midi": 57,
      "hit": false,
      "t": 1200,
      "d": 600,
      "v": 83
    },
    {
      "midi": 60,
      "hit": false,
      "t": 1800,
      "d": 600,
      "v": 91
    },
    {
      "midi": 64,
      "hit": false,
      "t": 1800,
      "d": 600,
      "v": 85
    },
    {
      "midi": 71,
      "hit": false,
      "t": 2400,
      "d": 600,
      "v": 100
    },
    {
      "midi": 59,
      "hit": false,
      "t": 2400,
      "d": 600,
      "v": 100
    },
    {
      "midi": 74,
      "hit": false,
      "t": 3000,
      "d": 300,
      "v": 100
    },
    {
      "midi": 62,
      "hit": false,
      "t": 3000,
      "d": 600,
      "v": 104
    },
    {
      "midi": 66,
      "hit": false,
      "t": 3000,
      "d": 600,
      "v": 82
    },
    {
      "midi": 81,
      "hit": false,
      "t": 3300,
      "d": 300,
      "v": 94
    },
    {
      "midi": 79,
      "hit": false,
      "t": 3600,
      "d": 600,
      "v": 97
    },
    {
      "midi": 60,
      "hit": false,
      "t": 3600,
      "d": 1200,
      "v": 83
    },
    {
      "midi": 64,
      "hit": false,
      "t": 3600,
      "d": 1200,
      "v": 81
    },
    {
      "midi": 72,
      "hit": false,
      "t": 4200,
      "d": 300,
      "v": 75
    },
    {
      "midi": 76,
      "hit": false,
      "t": 4500,
      "d": 300,
      "v": 106
    },
    {
      "midi": 74,
      "hit": false,
      "t": 4800,
      "d": 2400,
      "v": 100
    },
    {
      "midi": 55,
      "hit": false,
      "t": 4800,
      "d": 600,
      "v": 92
    },
    {
      "midi": 59,
      "hit": false,
      "t": 5400,
      "d": 600,
      "v": 94
    },
    {
      "midi": 62,
      "hit": false,
      "t": 5400,
      "d": 600,
      "v": 68
    },
    {
      "midi": 57,
      "hit": false,
      "t": 6000,
      "d": 600,
      "v": 81
    },
    {
      "midi": 60,
      "hit": false,
      "t": 6600,
      "d": 600,
      "v": 78
    },
    {
      "midi": 64,
      "hit": false,
      "t": 6600,
      "d": 600,
      "v": 76
    },
    {
      "midi": 71,
      "hit": false,
      "t": 7200,
      "d": 600,
      "v": 97
    },
    {
      "midi": 59,
      "hit": false,
      "t": 7200,
      "d": 600,
      "v": 92
    },
    {
      "midi": 72,
      "hit": false,
      "t": 7800,
      "d": 300,
      "v": 86
    },
    {
      "midi": 62,
      "hit": false,
      "t": 7800,
      "d": 600,
      "v": 82
    },
    {
      "midi": 66,
      "hit": false,
      "t": 7800,
      "d": 600,
      "v": 81
    },
    {
      "midi": 74,
      "hit": false,
      "t": 8100,
      "d": 300,
      "v": 88
    },
    {
      "midi": 76,
      "hit": false,
      "t": 8400,
      "d": 600,
      "v": 88
    },
    {
      "midi": 60,
      "hit": false,
      "t": 8400,
      "d": 1200,
      "v": 74
    },
    {
      "midi": 64,
      "hit": false,
      "t": 8400,
      "d": 1200,
      "v": 92
    },
    {
      "midi": 67,
      "hit": false,
      "t": 9000,
      "d": 300,
      "v": 92
    },
    {
      "midi": 69,
      "hit": false,
      "t": 9300,
      "d": 300,
      "v": 81
    },
    {
      "midi": 71,
      "hit": false,
      "t": 9600,
      "d": 600,
      "v": 86
    },
    {
      "midi": 61,
      "hit": false,
      "t": 9600,
      "d": 600,
      "v": 106
    },
    {
      "midi": 64,
      "hit": false,
      "t": 9600,
      "d": 600,
      "v": 81
    },
    {
      "midi": 71,
      "hit": false,
      "t": 10200,
      "d": 300,
      "v": 81
    },
    {
      "midi": 54,
      "hit": false,
      "t": 10200,
      "d": 600,
      "v": 97
    },
    {
      "midi": 71,
      "hit": false,
      "t": 10500,
      "d": 300,
      "v": 79
    },
    {
      "midi": 71,
      "hit": false,
      "t": 10800,
      "d": 1200,
      "v": 92
    },
    {
      "midi": 59,
      "hit": false,
      "t": 10800,
      "d": 600,
      "v": 106
    },
    {
      "midi": 63,
      "hit": false,
      "t": 10800,
      "d": 600,
      "v": 65
    },
    {
      "midi": 54,
      "hit": false,
      "t": 11400,
      "d": 600,
      "v": 102
    },
    {
      "midi": 71,
      "hit": false,
      "t": 12000,
      "d": 600,
      "v": 94
    },
    {
      "midi": 61,
      "hit": false,
      "t": 12000,
      "d": 600,
      "v": 102
    },
    {
      "midi": 64,
      "hit": false,
      "t": 12000,
      "d": 600,
      "v": 90
    },
    {
      "midi": 72,
      "hit": false,
      "t": 12600,
      "d": 300,
      "v": 80
    },
    {
      "midi": 54,
      "hit": false,
      "t": 12600,
      "d": 600,
      "v": 92
    },
    {
      "midi": 71,
      "hit": false,
      "t": 12900,
      "d": 300,
      "v": 88
    },
    {
      "midi": 71,
      "hit": false,
      "t": 13200,
      "d": 600,
      "v": 94
    },
    {
      "midi": 59,
      "hit": false,
      "t": 13200,
      "d": 1200,
      "v": 106
    },
    {
      "midi": 63,
      "hit": false,
      "t": 13200,
      "d": 1200,
      "v": 54
    },
    {
      "midi": 69,
      "hit": false,
      "t": 13800,
      "d": 600,
      "v": 95
    },
    {
      "midi": 67,
      "hit": false,
      "t": 14400,
      "d": 600,
      "v": 94
    },
    {
      "midi": 52,
      "hit": false,
      "t": 14400,
      "d": 1200,
      "v": 86
    },
    {
      "midi": 59,
      "hit": false,
      "t": 14400,
      "d": 1200,
      "v": 104
    },
    {
      "midi": 69,
      "hit": false,
      "t": 15000,
      "d": 300,
      "v": 97
    },
    {
      "midi": 71,
      "hit": false,
      "t": 15300,
      "d": 300,
      "v": 99
    },
    {
      "midi": 69,
      "hit": false,
      "t": 15600,
      "d": 600,
      "v": 78
    },
    {
      "midi": 78,
      "hit": false,
      "t": 15600,
      "d": 600,
      "v": 95
    },
    {
      "midi": 57,
      "hit": false,
      "t": 15600,
      "d": 1200,
      "v": 99
    },
    {
      "midi": 60,
      "hit": false,
      "t": 15600,
      "d": 1200,
      "v": 83
    },
    {
      "midi": 67,
      "hit": false,
      "t": 16200,
      "d": 600,
      "v": 82
    },
    {
      "midi": 76,
      "hit": false,
      "t": 16200,
      "d": 600,
      "v": 90
    },
    {
      "midi": 69,
      "hit": false,
      "t": 16800,
      "d": 600,
      "v": 95
    },
    {
      "midi": 50,
      "hit": false,
      "t": 16800,
      "d": 2400,
      "v": 104
    },
    {
      "midi": 60,
      "hit": false,
      "t": 16800,
      "d": 2400,
      "v": 83
    },
    {
      "midi": 67,
      "hit": false,
      "t": 17400,
      "d": 600,
      "v": 104
    },
    {
      "midi": 66,
      "hit": false,
      "t": 18000,
      "d": 1200,
      "v": 72
    },
    {
      "midi": 67,
      "hit": false,
      "t": 19200,
      "d": 2400,
      "v": 90
    },
    {
      "midi": 55,
      "hit": false,
      "t": 19200,
      "d": 600,
      "v": 86
    },
    {
      "midi": 59,
      "hit": false,
      "t": 19800,
      "d": 600,
      "v": 94
    },
    {
      "midi": 62,
      "hit": false,
      "t": 19800,
      "d": 600,
      "v": 72
    },
    {
      "midi": 57,
      "hit": false,
      "t": 20400,
      "d": 600,
      "v": 83
    },
    {
      "midi": 60,
      "hit": false,
      "t": 21000,
      "d": 600,
      "v": 91
    },
    {
      "midi": 64,
      "hit": false,
      "t": 21000,
      "d": 600,
      "v": 85
    },
    {
      "midi": 71,
      "hit": false,
      "t": 21600,
      "d": 600,
      "v": 100
    },
    {
      "midi": 59,
      "hit": false,
      "t": 21600,
      "d": 600,
      "v": 100
    },
    {
      "midi": 74,
      "hit": false,
      "t": 22200,
      "d": 300,
      "v": 100
    },
    {
      "midi": 62,
      "hit": false,
      "t": 22200,
      "d": 600,
      "v": 104
    },
    {
      "midi": 66,
      "hit": false,
      "t": 22200,
      "d": 600,
      "v": 82
    },
    {
      "midi": 81,
      "hit": false,
      "t": 22500,
      "d": 300,
      "v": 94
    },
    {
      "midi": 79,
      "hit": false,
      "t": 22800,
      "d": 600,
      "v": 97
    },
    {
      "midi": 60,
      "hit": false,
      "t": 22800,
      "d": 1200,
      "v": 83
    },
    {
      "midi": 64,
      "hit": false,
      "t": 22800,
      "d": 1200,
      "v": 81
    },
    {
      "midi": 72,
      "hit": false,
      "t": 23400,
      "d": 300,
      "v": 75
    },
    {
      "midi": 76,
      "hit": false,
      "t": 23700,
      "d": 300,
      "v": 106
    },
    {
      "midi": 74,
      "hit": false,
      "t": 24000,
      "d": 2400,
      "v": 100
    },
    {
      "midi": 55,
      "hit": false,
      "t": 24000,
      "d": 600,
      "v": 92
    },
    {
      "midi": 59,
      "hit": false,
      "t": 24600,
      "d": 600,
      "v": 94
    },
    {
      "midi": 62,
      "hit": false,
      "t": 24600,
      "d": 600,
      "v": 68
    },
    {
      "midi": 57,
      "hit": false,
      "t": 25200,
      "d": 600,
      "v": 81
    },
    {
      "midi": 60,
      "hit": false,
      "t": 25800,
      "d": 600,
      "v": 78
    },
    {
      "midi": 64,
      "hit": false,
      "t": 25800,
      "d": 600,
      "v": 76
    },
    {
      "midi": 71,
      "hit": false,
      "t": 26400,
      "d": 600,
      "v": 97
    },
    {
      "midi": 59,
      "hit": false,
      "t": 26400,
      "d": 600,
      "v": 92
    },
    {
      "midi": 72,
      "hit": false,
      "t": 27000,
      "d": 300,
      "v": 86
    },
    {
      "midi": 62,
      "hit": false,
      "t": 27000,
      "d": 600,
      "v": 82
    },
    {
      "midi": 66,
      "hit": false,
      "t": 27000,
      "d": 600,
      "v": 81
    },
    {
      "midi": 74,
      "hit": false,
      "t": 27300,
      "d": 300,
      "v": 88
    },
    {
      "midi": 76,
      "hit": false,
      "t": 27600,
      "d": 600,
      "v": 88
    },
    {
      "midi": 60,
      "hit": false,
      "t": 27600,
      "d": 1200,
      "v": 74
    },
    {
      "midi": 64,
      "hit": false,
      "t": 27600,
      "d": 1200,
      "v": 92
    },
    {
      "midi": 67,
      "hit": false,
      "t": 28200,
      "d": 300,
      "v": 92
    },
    {
      "midi": 69,
      "hit": false,
      "t": 28500,
      "d": 300,
      "v": 81
    },
    {
      "midi": 71,
      "hit": false,
      "t": 28800,
      "d": 600,
      "v": 86
    },
    {
      "midi": 61,
      "hit": false,
      "t": 28800,
      "d": 600,
      "v": 106
    },
    {
      "midi": 64,
      "hit": false,
      "t": 28800,
      "d": 600,
      "v": 81
    },
    {
      "midi": 71,
      "hit": false,
      "t": 29400,
      "d": 300,
      "v": 81
    },
    {
      "midi": 54,
      "hit": false,
      "t": 29400,
      "d": 600,
      "v": 97
    },
    {
      "midi": 71,
      "hit": false,
      "t": 29700,
      "d": 300,
      "v": 79
    },
    {
      "midi": 71,
      "hit": false,
      "t": 30000,
      "d": 1200,
      "v": 92
    },
    {
      "midi": 59,
      "hit": false,
      "t": 30000,
      "d": 600,
      "v": 106
    },
    {
      "midi": 63,
      "hit": false,
      "t": 30000,
      "d": 600,
      "v": 65
    },
    {
      "midi": 54,
      "hit": false,
      "t": 30600,
      "d": 600,
      "v": 102
    },
    {
      "midi": 71,
      "hit": false,
      "t": 31200,
      "d": 600,
      "v": 94
    },
    {
      "midi": 61,
      "hit": false,
      "t": 31200,
      "d": 600,
      "v": 102
    },
    {
      "midi": 64,
      "hit": false,
      "t": 31200,
      "d": 600,
      "v": 90
    },
    {
      "midi": 72,
      "hit": false,
      "t": 31800,
      "d": 300,
      "v": 80
    },
    {
      "midi": 54,
      "hit": false,
      "t": 31800,
      "d": 600,
      "v": 92
    },
    {
      "midi": 71,
      "hit": false,
      "t": 32100,
      "d": 300,
      "v": 88
    },
    {
      "midi": 71,
      "hit": false,
      "t": 32400,
      "d": 600,
      "v": 94
    },
    {
      "midi": 59,
      "hit": false,
      "t": 32400,
      "d": 1200,
      "v": 106
    },
    {
      "midi": 63,
      "hit": false,
      "t": 32400,
      "d": 1200,
      "v": 54
    },
    {
      "midi": 69,
      "hit": false,
      "t": 33000,
      "d": 600,
      "v": 95
    },
    {
      "midi": 67,
      "hit": false,
      "t": 33600,
      "d": 600,
      "v": 94
    },
    {
      "midi": 52,
      "hit": false,
      "t": 33600,
      "d": 1200,
      "v": 86
    },
    {
      "midi": 59,
      "hit": false,
      "t": 33600,
      "d": 1200,
      "v": 104
    },
    {
      "midi": 69,
      "hit": false,
      "t": 34200,
      "d": 300,
      "v": 97
    },
    {
      "midi": 71,
      "hit": false,
      "t": 34500,
      "d": 300,
      "v": 99
    },
    {
      "midi": 69,
      "hit": false,
      "t": 34800,
      "d": 600,
      "v": 78
    },
    {
      "midi": 78,
      "hit": false,
      "t": 34800,
      "d": 600,
      "v": 95
    },
    {
      "midi": 57,
      "hit": false,
      "t": 34800,
      "d": 1200,
      "v": 99
    },
    {
      "midi": 60,
      "hit": false,
      "t": 34800,
      "d": 1200,
      "v": 83
    },
    {
      "midi": 67,
      "hit": false,
      "t": 35400,
      "d": 600,
      "v": 82
    },
    {
      "midi": 76,
      "hit": false,
      "t": 35400,
      "d": 600,
      "v": 90
    },
    {
      "midi": 69,
      "hit": false,
      "t": 36000,
      "d": 1200,
      "v": 88
    },
    {
      "midi": 57,
      "hit": false,
      "t": 36000,
      "d": 600,
      "v": 85
    },
    {
      "midi": 60,
      "hit": false,
      "t": 36000,
      "d": 600,
      "v": 86
    },
    {
      "midi": 64,
      "hit": false,
      "t": 36000,
      "d": 600,
      "v": 73
    },
    {
      "midi": 55,
      "hit": false,
      "t": 36600,
      "d": 600,
      "v": 90
    },
    {
      "midi": 53,
      "hit": false,
      "t": 37200,
      "d": 1200,
      "v": 102
    },
    {
      "midi": 63,
      "hit": false,
      "t": 37200,
      "d": 1200,
      "v": 80
    },
    {
      "midi": 69,
      "hit": false,
      "t": 37500,
      "d": 300,
      "v": 90
    },
    {
      "midi": 70,
      "hit": false,
      "t": 37800,
      "d": 300,
      "v": 74
    },
    {
      "midi": 72,
      "hit": false,
      "t": 38100,
      "d": 300,
      "v": 88
    },
    {
      "midi": 74,
      "hit": false,
      "t": 38400,
      "d": 300,
      "v": 92
    },
    {
      "midi": 58,
      "hit": false,
      "t": 38400,
      "d": 1200,
      "v": 91
    },
    {
      "midi": 62,
      "hit": false,
      "t": 38400,
      "d": 1200,
      "v": 97
    },
    {
      "midi": 77,
      "hit": false,
      "t": 38700,
      "d": 300,
      "v": 86
    },
    {
      "midi": 74,
      "hit": false,
      "t": 39000,
      "d": 600,
      "v": 102
    },
    {
      "midi": 55,
      "hit": false,
      "t": 39600,
      "d": 1200,
      "v": 90
    },
    {
      "midi": 58,
      "hit": false,
      "t": 39600,
      "d": 1200,
      "v": 83
    },
    {
      "midi": 62,
      "hit": false,
      "t": 39600,
      "d": 1200,
      "v": 75
    },
    {
      "midi": 72,
      "hit": false,
      "t": 40200,
      "d": 300,
      "v": 76
    },
    {
      "midi": 70,
      "hit": false,
      "t": 40500,
      "d": 300,
      "v": 86
    },
    {
      "midi": 72,
      "hit": false,
      "t": 40800,
      "d": 300,
      "v": 86
    },
    {
      "midi": 60,
      "hit": false,
      "t": 40800,
      "d": 1200,
      "v": 91
    },
    {
      "midi": 63,
      "hit": false,
      "t": 40800,
      "d": 1200,
      "v": 66
    },
    {
      "midi": 74,
      "hit": false,
      "t": 41100,
      "d": 300,
      "v": 99
    },
    {
      "midi": 75,
      "hit": false,
      "t": 41400,
      "d": 300,
      "v": 76
    },
    {
      "midi": 72,
      "hit": false,
      "t": 41700,
      "d": 300,
      "v": 94
    },
    {
      "midi": 69,
      "hit": false,
      "t": 42000,
      "d": 300,
      "v": 88
    },
    {
      "midi": 54,
      "hit": false,
      "t": 42000,
      "d": 1200,
      "v": 85
    },
    {
      "midi": 60,
      "hit": false,
      "t": 42000,
      "d": 1200,
      "v": 83
    },
    {
      "midi": 69,
      "hit": false,
      "t": 42300,
      "d": 300,
      "v": 90
    },
    {
      "midi": 70,
      "hit": false,
      "t": 42600,
      "d": 300,
      "v": 76
    },
    {
      "midi": 72,
      "hit": false,
      "t": 42900,
      "d": 300,
      "v": 91
    },
    {
      "midi": 74,
      "hit": false,
      "t": 43200,
      "d": 300,
      "v": 94
    },
    {
      "midi": 55,
      "hit": false,
      "t": 43200,
      "d": 1200,
      "v": 92
    },
    {
      "midi": 58,
      "hit": false,
      "t": 43200,
      "d": 1200,
      "v": 88
    },
    {
      "midi": 70,
      "hit": false,
      "t": 43500,
      "d": 300,
      "v": 55
    },
    {
      "midi": 67,
      "hit": false,
      "t": 43800,
      "d": 600,
      "v": 92
    },
    {
      "midi": 62,
      "hit": false,
      "t": 44400,
      "d": 300,
      "v": 78
    },
    {
      "midi": 58,
      "hit": false,
      "t": 44700,
      "d": 300,
      "v": 88
    },
    {
      "midi": 55,
      "hit": false,
      "t": 45000,
      "d": 600,
      "v": 97
    },
    {
      "midi": 72,
      "hit": false,
      "t": 45600,
      "d": 300,
      "v": 86
    },
    {
      "midi": 60,
      "hit": false,
      "t": 45600,
      "d": 1200,
      "v": 86
    },
    {
      "midi": 63,
      "hit": false,
      "t": 45600,
      "d": 1200,
      "v": 70
    },
    {
      "midi": 74,
      "hit": false,
      "t": 45900,
      "d": 300,
      "v": 97
    },
    {
      "midi": 75,
      "hit": false,
      "t": 46200,
      "d": 300,
      "v": 72
    },
    {
      "midi": 72,
      "hit": false,
      "t": 46500,
      "d": 300,
      "v": 86
    },
    {
      "midi": 69,
      "hit": false,
      "t": 46800,
      "d": 300,
      "v": 85
    },
    {
      "midi": 54,
      "hit": false,
      "t": 46800,
      "d": 1200,
      "v": 106
    },
    {
      "midi": 60,
      "hit": false,
      "t": 46800,
      "d": 1200,
      "v": 72
    },
    {
      "midi": 69,
      "hit": false,
      "t": 47100,
      "d": 300,
      "v": 97
    },
    {
      "midi": 70,
      "hit": false,
      "t": 47400,
      "d": 300,
      "v": 78
    },
    {
      "midi": 72,
      "hit": false,
      "t": 47700,
      "d": 300,
      "v": 88
    },
    {
      "midi": 74,
      "hit": false,
      "t": 48000,
      "d": 300,
      "v": 99
    },
    {
      "midi": 55,
      "hit": false,
      "t": 48000,
      "d": 1200,
      "v": 95
    },
    {
      "midi": 59,
      "hit": false,
      "t": 48000,
      "d": 1200,
      "v": 104
    },
    {
      "midi": 71,
      "hit": false,
      "t": 48300,
      "d": 300,
      "v": 90
    },
    {
      "midi": 67,
      "hit": false,
      "t": 48600,
      "d": 600,
      "v": 88
    },
    {
      "midi": 60,
      "hit": false,
      "t": 49200,
      "d": 600,
      "v": 88
    },
    {
      "midi": 64,
      "hit": false,
      "t": 49200,
      "d": 600,
      "v": 92
    },
    {
      "midi": 57,
      "hit": false,
      "t": 49800,
      "d": 600,
      "v": 102
    },
    {
      "midi": 71,
      "hit": false,
      "t": 50400,
      "d": 600,
      "v": 100
    },
    {
      "midi": 59,
      "hit": false,
      "t": 50400,
      "d": 600,
      "v": 100
    },
    {
      "midi": 74,
      "hit": false,
      "t": 51000,
      "d": 300,
      "v": 100
    },
    {
      "midi": 62,
      "hit": false,
      "t": 51000,
      "d": 600,
      "v": 104
    },
    {
      "midi": 66,
      "hit": false,
      "t": 51000,
      "d": 600,
      "v": 82
    },
    {
      "midi": 81,
      "hit": false,
      "t": 51300,
      "d": 300,
      "v": 94
    },
    {
      "midi": 79,
      "hit": false,
      "t": 51600,
      "d": 600,
      "v": 97
    },
    {
      "midi": 60,
      "hit": false,
      "t": 51600,
      "d": 1200,
      "v": 83
    },
    {
      "midi": 64,
      "hit": false,
      "t": 51600,
      "d": 1200,
      "v": 81
    },
    {
      "midi": 72,
      "hit": false,
      "t": 52200,
      "d": 300,
      "v": 75
    },
    {
      "midi": 76,
      "hit": false,
      "t": 52500,
      "d": 300,
      "v": 106
    },
    {
      "midi": 74,
      "hit": false,
      "t": 52800,
      "d": 2400,
      "v": 100
    },
    {
      "midi": 55,
      "hit": false,
      "t": 52800,
      "d": 600,
      "v": 92
    },
    {
      "midi": 59,
      "hit": false,
      "t": 53400,
      "d": 600,
      "v": 94
    },
    {
      "midi": 62,
      "hit": false,
      "t": 53400,
      "d": 600,
      "v": 68
    },
    {
      "midi": 57,
      "hit": false,
      "t": 54000,
      "d": 600,
      "v": 81
    },
    {
      "midi": 60,
      "hit": false,
      "t": 54600,
      "d": 600,
      "v": 78
    },
    {
      "midi": 64,
      "hit": false,
      "t": 54600,
      "d": 600,
      "v": 76
    },
    {
      "midi": 71,
      "hit": false,
      "t": 55200,
      "d": 600,
      "v": 97
    },
    {
      "midi": 59,
      "hit": false,
      "t": 55200,
      "d": 600,
      "v": 92
    },
    {
      "midi": 72,
      "hit": false,
      "t": 55800,
      "d": 300,
      "v": 86
    },
    {
      "midi": 62,
      "hit": false,
      "t": 55800,
      "d": 600,
      "v": 82
    },
    {
      "midi": 66,
      "hit": false,
      "t": 55800,
      "d": 600,
      "v": 81
    },
    {
      "midi": 74,
      "hit": false,
      "t": 56100,
      "d": 300,
      "v": 88
    },
    {
      "midi": 76,
      "hit": false,
      "t": 56400,
      "d": 600,
      "v": 88
    },
    {
      "midi": 60,
      "hit": false,
      "t": 56400,
      "d": 1200,
      "v": 74
    },
    {
      "midi": 64,
      "hit": false,
      "t": 56400,
      "d": 1200,
      "v": 92
    },
    {
      "midi": 67,
      "hit": false,
      "t": 57000,
      "d": 300,
      "v": 92
    },
    {
      "midi": 69,
      "hit": false,
      "t": 57300,
      "d": 300,
      "v": 81
    },
    {
      "midi": 71,
      "hit": false,
      "t": 57600,
      "d": 600,
      "v": 86
    },
    {
      "midi": 61,
      "hit": false,
      "t": 57600,
      "d": 600,
      "v": 106
    },
    {
      "midi": 64,
      "hit": false,
      "t": 57600,
      "d": 600,
      "v": 81
    },
    {
      "midi": 71,
      "hit": false,
      "t": 58200,
      "d": 300,
      "v": 81
    },
    {
      "midi": 54,
      "hit": false,
      "t": 58200,
      "d": 600,
      "v": 97
    },
    {
      "midi": 71,
      "hit": false,
      "t": 58500,
      "d": 300,
      "v": 79
    },
    {
      "midi": 71,
      "hit": false,
      "t": 58800,
      "d": 1200,
      "v": 92
    },
    {
      "midi": 59,
      "hit": false,
      "t": 58800,
      "d": 600,
      "v": 106
    },
    {
      "midi": 63,
      "hit": false,
      "t": 58800,
      "d": 600,
      "v": 65
    },
    {
      "midi": 54,
      "hit": false,
      "t": 59400,
      "d": 600,
      "v": 102
    },
    {
      "midi": 71,
      "hit": false,
      "t": 60000,
      "d": 600,
      "v": 94
    },
    {
      "midi": 61,
      "hit": false,
      "t": 60000,
      "d": 600,
      "v": 102
    },
    {
      "midi": 64,
      "hit": false,
      "t": 60000,
      "d": 600,
      "v": 90
    },
    {
      "midi": 72,
      "hit": false,
      "t": 60600,
      "d": 300,
      "v": 80
    },
    {
      "midi": 54,
      "hit": false,
      "t": 60600,
      "d": 600,
      "v": 92
    },
    {
      "midi": 71,
      "hit": false,
      "t": 60900,
      "d": 300,
      "v": 88
    },
    {
      "midi": 71,
      "hit": false,
      "t": 61200,
      "d": 600,
      "v": 94
    },
    {
      "midi": 59,
      "hit": false,
      "t": 61200,
      "d": 1200,
      "v": 106
    },
    {
      "midi": 63,
      "hit": false,
      "t": 61200,
      "d": 1200,
      "v": 54
    },
    {
      "midi": 69,
      "hit": false,
      "t": 61800,
      "d": 600,
      "v": 95
    },
    {
      "midi": 67,
      "hit": false,
      "t": 62400,
      "d": 600,
      "v": 94
    },
    {
      "midi": 52,
      "hit": false,
      "t": 62400,
      "d": 1200,
      "v": 86
    },
    {
      "midi": 59,
      "hit": false,
      "t": 62400,
      "d": 1200,
      "v": 104
    },
    {
      "midi": 69,
      "hit": false,
      "t": 63000,
      "d": 300,
      "v": 97
    },
    {
      "midi": 71,
      "hit": false,
      "t": 63300,
      "d": 300,
      "v": 99
    },
    {
      "midi": 69,
      "hit": false,
      "t": 63600,
      "d": 600,
      "v": 78
    },
    {
      "midi": 78,
      "hit": false,
      "t": 63600,
      "d": 600,
      "v": 95
    },
    {
      "midi": 57,
      "hit": false,
      "t": 63600,
      "d": 1200,
      "v": 99
    },
    {
      "midi": 60,
      "hit": false,
      "t": 63600,
      "d": 1200,
      "v": 83
    },
    {
      "midi": 67,
      "hit": false,
      "t": 64200,
      "d": 600,
      "v": 82
    },
    {
      "midi": 76,
      "hit": false,
      "t": 64200,
      "d": 600,
      "v": 90
    },
    {
      "midi": 66,
      "hit": false,
      "t": 64800,
      "d": 1800,
      "v": 99
    },
    {
      "midi": 69,
      "hit": false,
      "t": 64800,
      "d": 1800,
      "v": 102
    },
    {
      "midi": 50,
      "hit": false,
      "t": 64800,
      "d": 600,
      "v": 102
    },
    {
      "midi": 60,
      "hit": false,
      "t": 65400,
      "d": 600,
      "v": 78
    },
    {
      "midi": 50,
      "hit": false,
      "t": 66000,
      "d": 600,
      "v": 100
    },
    {
      "midi": 67,
      "hit": false,
      "t": 66600,
      "d": 300,
      "v": 102
    },
    {
      "midi": 60,
      "hit": false,
      "t": 66600,
      "d": 600,
      "v": 74
    },
    {
      "midi": 67,
      "hit": false,
      "t": 66900,
      "d": 300,
      "v": 100
    },
    {
      "midi": 67,
      "hit": false,
      "t": 67200,
      "d": 1800,
      "v": 109
    },
    {
      "midi": 55,
      "hit": false,
      "t": 67200,
      "d": 600,
      "v": 97
    },
    {
      "midi": 59,
      "hit": false,
      "t": 67800,
      "d": 600,
      "v": 100
    },
    {
      "midi": 62,
      "hit": false,
      "t": 67800,
      "d": 600,
      "v": 77
    },
    {
      "midi": 57,
      "hit": false,
      "t": 68400,
      "d": 1200,
      "v": 104
    },
    {
      "midi": 60,
      "hit": false,
      "t": 68400,
      "d": 1200,
      "v": 64
    },
    {
      "midi": 64,
      "hit": false,
      "t": 68400,
      "d": 1200,
      "v": 77
    },
    {
      "midi": 71,
      "hit": false,
      "t": 69000,
      "d": 600,
      "v": 120
    },
    {
      "midi": 74,
      "hit": false,
      "t": 69600,
      "d": 600,
      "v": 97
    },
    {
      "midi": 59,
      "hit": false,
      "t": 69600,
      "d": 1200,
      "v": 97
    },
    {
      "midi": 62,
      "hit": false,
      "t": 69600,
      "d": 1200,
      "v": 81
    },
    {
      "midi": 66,
      "hit": false,
      "t": 69600,
      "d": 1200,
      "v": 88
    },
    {
      "midi": 71,
      "hit": false,
      "t": 70200,
      "d": 300,
      "v": 79
    },
    {
      "midi": 69,
      "hit": false,
      "t": 70500,
      "d": 300,
      "v": 92
    },
    {
      "midi": 67,
      "hit": false,
      "t": 70800,
      "d": 1200,
      "v": 85
    },
    {
      "midi": 60,
      "hit": false,
      "t": 70800,
      "d": 600,
      "v": 97
    },
    {
      "midi": 64,
      "hit": false,
      "t": 70800,
      "d": 600,
      "v": 86
    },
    {
      "midi": 55,
      "hit": false,
      "t": 71400,
      "d": 600,
      "v": 92
    },
    {
      "midi": 67,
      "hit": false,
      "t": 72000,
      "d": 1200,
      "v": 109
    },
    {
      "midi": 55,
      "hit": false,
      "t": 72000,
      "d": 600,
      "v": 94
    },
    {
      "midi": 59,
      "hit": false,
      "t": 72600,
      "d": 600,
      "v": 99
    },
    {
      "midi": 62,
      "hit": false,
      "t": 72600,
      "d": 600,
      "v": 73
    },
    {
      "midi": 67,
      "hit": false,
      "t": 73200,
      "d": 900,
      "v": 97
    },
    {
      "midi": 57,
      "hit": false,
      "t": 73200,
      "d": 1200,
      "v": 94
    },
    {
      "midi": 60,
      "hit": false,
      "t": 73200,
      "d": 1200,
      "v": 86
    },
    {
      "midi": 64,
      "hit": false,
      "t": 73200,
      "d": 1200,
      "v": 74
    },
    {
      "midi": 71,
      "hit": false,
      "t": 74100,
      "d": 300,
      "v": 104
    },
    {
      "midi": 74,
      "hit": false,
      "t": 74400,
      "d": 600,
      "v": 100
    },
    {
      "midi": 59,
      "hit": false,
      "t": 74400,
      "d": 1200,
      "v": 104
    },
    {
      "midi": 66,
      "hit": false,
      "t": 74400,
      "d": 1200,
      "v": 81
    },
    {
      "midi": 78,
      "hit": false,
      "t": 75000,
      "d": 600,
      "v": 68
    },
    {
      "midi": 81,
      "hit": false,
      "t": 75000,
      "d": 600,
      "v": 83
    },
    {
      "midi": 76,
      "hit": false,
      "t": 75600,
      "d": 1200,
      "v": 106
    },
    {
      "midi": 79,
      "hit": false,
      "t": 75600,
      "d": 1200,
      "v": 111
    },
    {
      "midi": 60,
      "hit": false,
      "t": 75600,
      "d": 600,
      "v": 99
    },
    {
      "midi": 57,
      "hit": false,
      "t": 76200,
      "d": 600,
      "v": 100
    },
    {
      "midi": 71,
      "hit": false,
      "t": 76800,
      "d": 2400,
      "v": 109
    },
    {
      "midi": 55,
      "hit": false,
      "t": 76800,
      "d": 2400,
      "v": 102
    },
    {
      "midi": 62,
      "hit": false,
      "t": 76800,
      "d": 2400,
      "v": 86
    }
  ]
}