{
  "jsonPath": "Rock/Psychedelic Rock/Beatles/let-it-be.json",
  "path": "Rock\\Psychedelic Rock\\Beatles\\Let it Be.mid",
  "name": "Let it Be",
  "difficulty": "Advanced",
  "bpm": 130.00013000013,
  "notes": [
    {
      "midi": 67,
      "hit": false,
      "t": 0,
      "d": 461.53799999999995,
      "v": 118
    },
    {
      "midi": 76,
      "hit": false,
      "t": 0,
      "d": 461.53799999999995,
      "v": 124
    },
    {
      "midi": 55,
      "hit": false,
      "t": 0,
      "d": 1846.1519999999998,
      "v": 124
    },
    {
      "midi": 60,
      "hit": false,
      "t": 0,
      "d": 1846.1519999999998,
      "v": 105
    },
    {
      "midi": 67,
      "hit": false,
      "t": 461.53799999999995,
      "d": 461.53799999999995,
      "v": 113
    },
    {
      "midi": 76,
      "hit": false,
      "t": 461.53799999999995,
      "d": 461.53799999999995,
      "v": 113
    },
    {
      "midi": 69,
      "hit": false,
      "t": 923.0759999999999,
      "d": 230.7689999999999,
      "v": 123
    },
    {
      "midi": 77,
      "hit": false,
      "t": 923.0759999999999,
      "d": 230.7689999999999,
      "v": 117
    },
    {
      "midi": 67,
      "hit": false,
      "t": 1153.8449999999998,
      "d": 692.3069999999998,
      "v": 123
    },
    {
      "midi": 76,
      "hit": false,
      "t": 1153.8449999999998,
      "d": 692.3069999999998,
      "v": 123
    },
    {
      "midi": 66,
      "hit": false,
      "t": 1846.1519999999996,
      "d": 461.538,
      "v": 107
    },
    {
      "midi": 69,
      "hit": false,
      "t": 1846.1519999999996,
      "d": 461.538,
      "v": 121
    },
    {
      "midi": 76,
      "hit": false,
      "t": 1846.1519999999996,
      "d": 461.538,
      "v": 124
    },
    {
      "midi": 57,
      "hit": false,
      "t": 1846.1519999999998,
      "d": 923.0759999999998,
      "v": 115
    },
    {
      "midi": 60,
      "hit": false,
      "t": 1846.1519999999998,
      "d": 923.0759999999998,
      "v": 104
    },
    {
      "midi": 74,
      "hit": false,
      "t": 2307.6899999999996,
      "d": 230.76899999999978,
      "v": 124
    },
    {
      "midi": 74,
      "hit": false,
      "t": 2538.4589999999994,
      "d": 692.3069999999998,
      "v": 125
    },
    {
      "midi": 50,
      "hit": false,
      "t": 2769.2279999999996,
      "d": 923.076,
      "v": 98
    },
    {
      "midi": 72,
      "hit": false,
      "t": 3230.765999999999,
      "d": 461.538,
      "v": 121
    },
    {
      "midi": 65,
      "hit": false,
      "t": 3692.303999999999,
      "d": 461.53799999999956,
      "v": 110
    },
    {
      "midi": 69,
      "hit": false,
      "t": 3692.303999999999,
      "d": 461.53799999999956,
      "v": 124
    },
    {
      "midi": 76,
      "hit": false,
      "t": 3692.303999999999,
      "d": 461.53799999999956,
      "v": 119
    },
    {
      "midi": 57,
      "hit": false,
      "t": 3692.3039999999996,
      "d": 923.0759999999996,
      "v": 124
    },
    {
      "midi": 60,
      "hit": false,
      "t": 3692.3039999999996,
      "d": 923.0759999999996,
      "v": 115
    },
    {
      "midi": 74,
      "hit": false,
      "t": 4153.841999999999,
      "d": 230.76900000000023,
      "v": 124
    },
    {
      "midi": 74,
      "hit": false,
      "t": 4384.610999999999,
      "d": 692.3069999999998,
      "v": 124
    },
    {
      "midi": 50,
      "hit": false,
      "t": 4615.379999999999,
      "d": 923.076,
      "v": 124
    },
    {
      "midi": 72,
      "hit": false,
      "t": 5076.917999999999,
      "d": 461.53799999999956,
      "v": 125
    },
    {
      "midi": 65,
      "hit": false,
      "t": 5538.455999999998,
      "d": 461.53799999999956,
      "v": 113
    },
    {
      "midi": 74,
      "hit": false,
      "t": 5538.455999999998,
      "d": 461.53799999999956,
      "v": 121
    },
    {
      "midi": 55,
      "hit": false,
      "t": 5538.455999999999,
      "d": 923.076,
      "v": 115
    },
    {
      "midi": 59,
      "hit": false,
      "t": 5538.455999999999,
      "d": 923.076,
      "v": 109
    },
    {
      "midi": 67,
      "hit": false,
      "t": 5999.993999999998,
      "d": 923.076,
      "v": 115
    },
    {
      "midi": 43,
      "hit": false,
      "t": 6461.531999999999,
      "d": 923.076,
      "v": 124
    },
    {
      "midi": 67,
      "hit": false,
      "t": 6923.069999999998,
      "d": 230.76900000000023,
      "v": 123
    },
    {
      "midi": 67,
      "hit": false,
      "t": 7153.838999999998,
      "d": 230.76900000000023,
      "v": 123
    },
    {
      "midi": 64,
      "hit": false,
      "t": 7384.607999999998,
      "d": 461.53799999999956,
      "v": 113
    },
    {
      "midi": 67,
      "hit": false,
      "t": 7384.607999999998,
      "d": 461.53799999999956,
      "v": 124
    },
    {
      "midi": 48,
      "hit": false,
      "t": 7384.607999999999,
      "d": 461.53799999999956,
      "v": 107
    },
    {
      "midi": 64,
      "hit": false,
      "t": 7846.145999999998,
      "d": 230.76900000000023,
      "v": 113
    },
    {
      "midi": 67,
      "hit": false,
      "t": 7846.145999999998,
      "d": 230.76900000000023,
      "v": 124
    },
    {
      "midi": 55,
      "hit": false,
      "t": 7846.145999999999,
      "d": 461.53800000000047,
      "v": 110
    },
    {
      "midi": 64,
      "hit": false,
      "t": 8076.914999999998,
      "d": 692.3069999999998,
      "v": 117
    },
    {
      "midi": 69,
      "hit": false,
      "t": 8076.914999999998,
      "d": 692.3069999999998,
      "v": 124
    },
    {
      "midi": 48,
      "hit": false,
      "t": 8307.684,
      "d": 461.53800000000047,
      "v": 108
    },
    {
      "midi": 64,
      "hit": false,
      "t": 8769.221999999998,
      "d": 461.53800000000047,
      "v": 112
    },
    {
      "midi": 55,
      "hit": false,
      "t": 8769.222,
      "d": 461.53800000000047,
      "v": 106
    },
    {
      "midi": 64,
      "hit": false,
      "t": 9230.759999999998,
      "d": 461.53800000000047,
      "v": 119
    },
    {
      "midi": 67,
      "hit": false,
      "t": 9230.759999999998,
      "d": 461.53800000000047,
      "v": 123
    },
    {
      "midi": 48,
      "hit": false,
      "t": 9230.76,
      "d": 461.53800000000047,
      "v": 102
    },
    {
      "midi": 64,
      "hit": false,
      "t": 9692.297999999999,
      "d": 461.53800000000047,
      "v": 110
    },
    {
      "midi": 67,
      "hit": false,
      "t": 9692.297999999999,
      "d": 461.53800000000047,
      "v": 110
    },
    {
      "midi": 55,
      "hit": false,
      "t": 9692.298,
      "d": 461.53800000000047,
      "v": 110
    },
    {
      "midi": 64,
      "hit": false,
      "t": 10153.836,
      "d": 230.76900000000023,
      "v": 105
    },
    {
      "midi": 72,
      "hit": false,
      "t": 10153.836,
      "d": 230.76900000000023,
      "v": 96
    },
    {
      "midi": 48,
      "hit": false,
      "t": 10153.836000000001,
      "d": 461.53800000000047,
      "v": 113
    },
    {
      "midi": 74,
      "hit": false,
      "t": 10384.605,
      "d": 692.3070000000007,
      "v": 123
    },
    {
      "midi": 55,
      "hit": false,
      "t": 10615.374000000002,
      "d": 461.53800000000047,
      "v": 112
    },
    {
      "midi": 72,
      "hit": false,
      "t": 11076.912,
      "d": 230.76900000000023,
      "v": 123
    },
    {
      "midi": 76,
      "hit": false,
      "t": 11076.912,
      "d": 230.76900000000023,
      "v": 118
    },
    {
      "midi": 45,
      "hit": false,
      "t": 11076.912000000002,
      "d": 461.53800000000047,
      "v": 110
    },
    {
      "midi": 72,
      "hit": false,
      "t": 11307.681,
      "d": 461.53800000000047,
      "v": 124
    },
    {
      "midi": 76,
      "hit": false,
      "t": 11307.681,
      "d": 461.53800000000047,
      "v": 123
    },
    {
      "midi": 52,
      "hit": false,
      "t": 11538.450000000003,
      "d": 461.53800000000047,
      "v": 124
    },
    {
      "midi": 72,
      "hit": false,
      "t": 11769.219000000001,
      "d": 692.3070000000007,
      "v": 124
    },
    {
      "midi": 76,
      "hit": false,
      "t": 11769.219000000001,
      "d": 692.3070000000007,
      "v": 124
    },
    {
      "midi": 57,
      "hit": false,
      "t": 11999.988000000003,
      "d": 461.53800000000047,
      "v": 109
    },
    {
      "midi": 71,
      "hit": false,
      "t": 12461.526000000002,
      "d": 461.53800000000047,
      "v": 124
    },
    {
      "midi": 74,
      "hit": false,
      "t": 12461.526000000002,
      "d": 461.53800000000047,
      "v": 113
    },
    {
      "midi": 52,
      "hit": false,
      "t": 12461.526000000003,
      "d": 461.53800000000047,
      "v": 119
    },
    {
      "midi": 71,
      "hit": false,
      "t": 12923.064000000002,
      "d": 461.53800000000047,
      "v": 109
    },
    {
      "midi": 74,
      "hit": false,
      "t": 12923.064000000002,
      "d": 461.53800000000047,
      "v": 112
    },
    {
      "midi": 57,
      "hit": false,
      "t": 12923.064000000004,
      "d": 461.53800000000047,
      "v": 115
    },
    {
      "midi": 69,
      "hit": false,
      "t": 13384.602000000003,
      "d": 461.53800000000047,
      "v": 118
    },
    {
      "midi": 72,
      "hit": false,
      "t": 13384.602000000003,
      "d": 461.53800000000047,
      "v": 109
    },
    {
      "midi": 52,
      "hit": false,
      "t": 13384.602000000004,
      "d": 461.53800000000047,
      "v": 124
    },
    {
      "midi": 69,
      "hit": false,
      "t": 13846.140000000003,
      "d": 923.0759999999991,
      "v": 118
    },
    {
      "midi": 72,
      "hit": false,
      "t": 13846.140000000003,
      "d": 923.0759999999991,
      "v": 118
    },
    {
      "midi": 53,
      "hit": false,
      "t": 13846.140000000005,
      "d": 461.53800000000047,
      "v": 124
    },
    {
      "midi": 62,
      "hit": false,
      "t": 13846.140000000005,
      "d": 461.53800000000047,
      "v": 124
    },
    {
      "midi": 60,
      "hit": false,
      "t": 14307.678000000005,
      "d": 461.53800000000047,
      "v": 125
    },
    {
      "midi": 67,
      "hit": false,
      "t": 14769.216000000002,
      "d": 230.76900000000023,
      "v": 108
    },
    {
      "midi": 76,
      "hit": false,
      "t": 14769.216000000002,
      "d": 230.76900000000023,
      "v": 98
    },
    {
      "midi": 60,
      "hit": false,
      "t": 14769.216000000006,
      "d": 923.0759999999991,
      "v": 124
    },
    {
      "midi": 67,
      "hit": false,
      "t": 14999.985000000002,
      "d": 692.3070000000007,
      "v": 117
    },
    {
      "midi": 76,
      "hit": false,
      "t": 14999.985000000002,
      "d": 692.3070000000007,
      "v": 121
    },
    {
      "midi": 67,
      "hit": false,
      "t": 15692.292000000003,
      "d": 461.53800000000047,
      "v": 123
    },
    {
      "midi": 77,
      "hit": false,
      "t": 15692.292000000003,
      "d": 461.53800000000047,
      "v": 124
    },
    {
      "midi": 60,
      "hit": false,
      "t": 15692.292000000005,
      "d": 923.0760000000009,
      "v": 126
    },
    {
      "midi": 76,
      "hit": false,
      "t": 16153.830000000004,
      "d": 230.7689999999984,
      "v": 124
    },
    {
      "midi": 76,
      "hit": false,
      "t": 16384.599000000002,
      "d": 230.76900000000023,
      "v": 118
    },
    {
      "midi": 55,
      "hit": false,
      "t": 16615.368000000006,
      "d": 923.0760000000009,
      "v": 124
    },
    {
      "midi": 59,
      "hit": false,
      "t": 16615.368000000006,
      "d": 923.0760000000009,
      "v": 124
    },
    {
      "midi": 65,
      "hit": false,
      "t": 17076.906000000003,
      "d": 923.0760000000009,
      "v": 118
    },
    {
      "midi": 74,
      "hit": false,
      "t": 17076.906000000003,
      "d": 923.0760000000009,
      "v": 124
    },
    {
      "midi": 55,
      "hit": false,
      "t": 17538.444000000007,
      "d": 923.0760000000009,
      "v": 118
    },
    {
      "midi": 59,
      "hit": false,
      "t": 17538.444000000007,
      "d": 923.0760000000009,
      "v": 115
    },
    {
      "midi": 67,
      "hit": false,
      "t": 17999.982000000004,
      "d": 230.76900000000023,
      "v": 118
    },
    {
      "midi": 76,
      "hit": false,
      "t": 17999.982000000004,
      "d": 230.76900000000023,
      "v": 112
    },
    {
      "midi": 74,
      "hit": false,
      "t": 18230.751000000004,
      "d": 230.76900000000023,
      "v": 124
    },
    {
      "midi": 69,
      "hit": false,
      "t": 18461.520000000004,
      "d": 230.76900000000023,
      "v": 117
    },
    {
      "midi": 74,
      "hit": false,
      "t": 18461.520000000004,
      "d": 230.76900000000023,
      "v": 124
    },
    {
      "midi": 53,
      "hit": false,
      "t": 18461.520000000008,
      "d": 923.0760000000009,
      "v": 117
    },
    {
      "midi": 60,
      "hit": false,
      "t": 18461.520000000008,
      "d": 923.0760000000009,
      "v": 106
    },
    {
      "midi": 72,
      "hit": false,
      "t": 18692.289000000004,
      "d": 692.3070000000007,
      "v": 124
    },
    {
      "midi": 67,
      "hit": false,
      "t": 19384.596000000005,
      "d": 461.53800000000047,
      "v": 110
    },
    {
      "midi": 52,
      "hit": false,
      "t": 19384.59600000001,
      "d": 461.53800000000047,
      "v": 124
    },
    {
      "midi": 60,
      "hit": false,
      "t": 19384.59600000001,
      "d": 461.53800000000047,
      "v": 123
    },
    {
      "midi": 65,
      "hit": false,
      "t": 19846.134000000005,
      "d": 461.53800000000047,
      "v": 96
    },
    {
      "midi": 50,
      "hit": false,
      "t": 19846.13400000001,
      "d": 461.53800000000047,
      "v": 104
    },
    {
      "midi": 60,
      "hit": false,
      "t": 19846.13400000001,
      "d": 461.53800000000047,
      "v": 110
    },
    {
      "midi": 64,
      "hit": false,
      "t": 20307.672000000006,
      "d": 1384.6140000000014,
      "v": 123
    },
    {
      "midi": 48,
      "hit": false,
      "t": 20307.67200000001,
      "d": 461.53800000000047,
      "v": 107
    },
    {
      "midi": 55,
      "hit": false,
      "t": 20769.21000000001,
      "d": 461.53800000000047,
      "v": 95
    },
    {
      "midi": 60,
      "hit": false,
      "t": 21230.74800000001,
      "d": 461.53800000000047,
      "v": 105
    },
    {
      "midi": 55,
      "hit": false,
      "t": 21692.28600000001,
      "d": 461.53800000000047,
      "v": 119
    },
    {
      "midi": 67,
      "hit": false,
      "t": 21923.055000000008,
      "d": 230.76900000000023,
      "v": 123
    },
    {
      "midi": 64,
      "hit": false,
      "t": 22153.824000000008,
      "d": 230.76900000000023,
      "v": 113
    },
    {
      "midi": 67,
      "hit": false,
      "t": 22153.824000000008,
      "d": 230.76900000000023,
      "v": 124
    },
    {
      "midi": 48,
      "hit": false,
      "t": 22153.82400000001,
      "d": 461.53800000000047,
      "v": 117
    },
    {
      "midi": 64,
      "hit": false,
      "t": 22384.593000000008,
      "d": 692.3070000000007,
      "v": 112
    },
    {
      "midi": 67,
      "hit": false,
      "t": 22384.593000000008,
      "d": 692.3070000000007,
      "v": 124
    },
    {
      "midi": 55,
      "hit": false,
      "t": 22615.362000000012,
      "d": 461.53800000000047,
      "v": 102
    },
    {
      "midi": 64,
      "hit": false,
      "t": 23076.90000000001,
      "d": 461.53800000000047,
      "v": 124
    },
    {
      "midi": 69,
      "hit": false,
      "t": 23076.90000000001,
      "d": 461.53800000000047,
      "v": 125
    },
    {
      "midi": 60,
      "hit": false,
      "t": 23076.900000000012,
      "d": 923.0760000000009,
      "v": 112
    },
    {
      "midi": 72,
      "hit": false,
      "t": 23538.43800000001,
      "d": 230.76900000000023,
      "v": 123
    },
    {
      "midi": 67,
      "hit": false,
      "t": 23769.20700000001,
      "d": 230.76900000000023,
      "v": 124
    },
    {
      "midi": 59,
      "hit": false,
      "t": 23999.976000000013,
      "d": 923.0760000000009,
      "v": 124
    },
    {
      "midi": 62,
      "hit": false,
      "t": 23999.976000000013,
      "d": 923.0760000000009,
      "v": 113
    },
    {
      "midi": 67,
      "hit": false,
      "t": 24461.51400000001,
      "d": 461.53800000000047,
      "v": 123
    },
    {
      "midi": 69,
      "hit": false,
      "t": 24923.05200000001,
      "d": 230.76900000000023,
      "v": 121
    },
    {
      "midi": 72,
      "hit": false,
      "t": 24923.05200000001,
      "d": 230.76900000000023,
      "v": 121
    },
    {
      "midi": 55,
      "hit": false,
      "t": 24923.052000000014,
      "d": 923.0760000000009,
      "v": 119
    },
    {
      "midi": 62,
      "hit": false,
      "t": 24923.052000000014,
      "d": 923.0760000000009,
      "v": 109
    },
    {
      "midi": 71,
      "hit": false,
      "t": 25153.82100000001,
      "d": 692.3070000000007,
      "v": 113
    },
    {
      "midi": 74,
      "hit": false,
      "t": 25153.82100000001,
      "d": 692.3070000000007,
      "v": 121
    },
    {
      "midi": 69,
      "hit": false,
      "t": 25846.12800000001,
      "d": 230.76900000000023,
      "v": 105
    },
    {
      "midi": 74,
      "hit": false,
      "t": 25846.12800000001,
      "d": 230.76900000000023,
      "v": 115
    },
    {
      "midi": 57,
      "hit": false,
      "t": 25846.128000000015,
      "d": 923.0760000000009,
      "v": 117
    },
    {
      "midi": 60,
      "hit": false,
      "t": 25846.128000000015,
      "d": 923.0760000000009,
      "v": 121
    },
    {
      "midi": 76,
      "hit": false,
      "t": 26076.89700000001,
      "d": 692.3070000000007,
      "v": 118
    },
    {
      "midi": 69,
      "hit": false,
      "t": 26769.204000000012,
      "d": 461.53800000000047,
      "v": 110
    },
    {
      "midi": 76,
      "hit": false,
      "t": 26769.204000000012,
      "d": 461.53800000000047,
      "v": 123
    },
    {
      "midi": 57,
      "hit": false,
      "t": 26769.204000000016,
      "d": 461.53800000000047,
      "v": 123
    },
    {
      "midi": 60,
      "hit": false,
      "t": 26769.204000000016,
      "d": 461.53800000000047,
      "v": 102
    },
    {
      "midi": 74,
      "hit": false,
      "t": 27230.742000000013,
      "d": 230.76900000000023,
      "v": 124
    },
    {
      "midi": 55,
      "hit": false,
      "t": 27230.742000000017,
      "d": 461.53800000000047,
      "v": 96
    },
    {
      "midi": 74,
      "hit": false,
      "t": 27461.511000000013,
      "d": 230.76900000000023,
      "v": 110
    },
    {
      "midi": 69,
      "hit": false,
      "t": 27692.280000000013,
      "d": 230.76900000000023,
      "v": 124
    },
    {
      "midi": 53,
      "hit": false,
      "t": 27692.280000000017,
      "d": 923.0760000000009,
      "v": 117
    },
    {
      "midi": 60,
      "hit": false,
      "t": 27692.280000000017,
      "d": 923.0760000000009,
      "v": 119
    },
    {
      "midi": 72,
      "hit": false,
      "t": 27923.049000000014,
      "d": 461.53800000000047,
      "v": 124
    },
    {
      "midi": 72,
      "hit": false,
      "t": 28384.587000000014,
      "d": 923.0760000000009,
      "v": 125
    },
    {
      "midi": 53,
      "hit": false,
      "t": 28615.356000000018,
      "d": 461.53800000000047,
      "v": 124
    },
    {
      "midi": 62,
      "hit": false,
      "t": 29076.89400000002,
      "d": 461.53800000000047,
      "v": 123
    },
    {
      "midi": 67,
      "hit": false,
      "t": 29538.432000000015,
      "d": 230.76900000000023,
      "v": 123
    },
    {
      "midi": 76,
      "hit": false,
      "t": 29538.432000000015,
      "d": 230.76900000000023,
      "v": 124
    },
    {
      "midi": 60,
      "hit": false,
      "t": 29538.43200000002,
      "d": 923.0760000000009,
      "v": 124
    },
    {
      "midi": 67,
      "hit": false,
      "t": 29769.201000000015,
      "d": 692.3070000000007,
      "v": 124
    },
    {
      "midi": 76,
      "hit": false,
      "t": 29769.201000000015,
      "d": 692.3070000000007,
      "v": 124
    },
    {
      "midi": 67,
      "hit": false,
      "t": 30461.508000000016,
      "d": 461.53800000000047,
      "v": 124
    },
    {
      "midi": 77,
      "hit": false,
      "t": 30461.508000000016,
      "d": 461.53800000000047,
      "v": 124
    },
    {
      "midi": 60,
      "hit": false,
      "t": 30461.50800000002,
      "d": 923.0760000000009,
      "v": 125
    },
    {
      "midi": 76,
      "hit": false,
      "t": 30923.046000000017,
      "d": 230.76900000000023,
      "v": 124
    },
    {
      "midi": 76,
      "hit": false,
      "t": 31153.815000000017,
      "d": 230.76900000000023,
      "v": 118
    },
    {
      "midi": 55,
      "hit": false,
      "t": 31384.58400000002,
      "d": 923.0760000000009,
      "v": 107
    },
    {
      "midi": 59,
      "hit": false,
      "t": 31384.58400000002,
      "d": 923.0760000000009,
      "v": 109
    },
    {
      "midi": 65,
      "hit": false,
      "t": 31846.122000000018,
      "d": 923.0760000000009,
      "v": 113
    },
    {
      "midi": 74,
      "hit": false,
      "t": 31846.122000000018,
      "d": 923.0760000000009,
      "v": 125
    },
    {
      "midi": 55,
      "hit": false,
      "t": 32307.66000000002,
      "d": 923.0759999999973,
      "v": 118
    },
    {
      "midi": 59,
      "hit": false,
      "t": 32307.66000000002,
      "d": 923.0759999999973,
      "v": 121
    },
    {
      "midi": 67,
      "hit": false,
      "t": 32769.19800000002,
      "d": 230.76900000000023,
      "v": 115
    },
    {
      "midi": 76,
      "hit": false,
      "t": 32769.19800000002,
      "d": 230.76900000000023,
      "v": 118
    },
    {
      "midi": 74,
      "hit": false,
      "t": 32999.96700000002,
      "d": 230.76900000000023,
      "v": 126
    },
    {
      "midi": 69,
      "hit": false,
      "t": 33230.73600000002,
      "d": 230.76900000000023,
      "v": 119
    },
    {
      "midi": 74,
      "hit": false,
      "t": 33230.73600000002,
      "d": 230.76900000000023,
      "v": 124
    },
    {
      "midi": 53,
      "hit": false,
      "t": 33230.73600000002,
      "d": 923.0760000000009,
      "v": 109
    },
    {
      "midi": 60,
      "hit": false,
      "t": 33230.73600000002,
      "d": 923.0760000000009,
      "v": 118
    },
    {
      "midi": 72,
      "hit": false,
      "t": 33461.50500000002,
      "d": 692.3070000000007,
      "v": 109
    },
    {
      "midi": 67,
      "hit": false,
      "t": 34153.81200000002,
      "d": 461.53800000000047,
      "v": 117
    },
    {
      "midi": 52,
      "hit": false,
      "t": 34153.81200000002,
      "d": 461.53800000000047,
      "v": 112
    },
    {
      "midi": 60,
      "hit": false,
      "t": 34153.81200000002,
      "d": 461.53800000000047,
      "v": 112
    },
    {
      "midi": 65,
      "hit": false,
      "t": 34615.35000000002,
      "d": 461.53800000000047,
      "v": 119
    },
    {
      "midi": 50,
      "hit": false,
      "t": 34615.35000000002,
      "d": 461.53800000000047,
      "v": 99
    },
    {
      "midi": 60,
      "hit": false,
      "t": 34615.35000000002,
      "d": 461.53800000000047,
      "v": 112
    },
    {
      "midi": 64,
      "hit": false,
      "t": 35076.88800000002,
      "d": 923.0760000000009,
      "v": 118
    },
    {
      "midi": 48,
      "hit": false,
      "t": 35076.88800000002,
      "d": 461.53800000000047,
      "v": 115
    },
    {
      "midi": 55,
      "hit": false,
      "t": 35538.42600000002,
      "d": 461.53800000000047,
      "v": 113
    },
    {
      "midi": 67,
      "hit": false,
      "t": 35999.96400000002,
      "d": 230.76900000000023,
      "v": 102
    },
    {
      "midi": 76,
      "hit": false,
      "t": 35999.96400000002,
      "d": 230.76900000000023,
      "v": 102
    },
    {
      "midi": 60,
      "hit": false,
      "t": 35999.96400000002,
      "d": 461.53800000000047,
      "v": 119
    },
    {
      "midi": 74,
      "hit": false,
      "t": 36230.73300000002,
      "d": 461.53800000000047,
      "v": 125
    },
    {
      "midi": 59,
      "hit": false,
      "t": 36461.50200000002,
      "d": 461.53800000000047,
      "v": 110
    },
    {
      "midi": 72,
      "hit": false,
      "t": 36692.27100000002,
      "d": 230.76900000000023,
      "v": 125
    },
    {
      "midi": 69,
      "hit": false,
      "t": 36923.04000000002,
      "d": 923.0760000000009,
      "v": 124
    },
    {
      "midi": 57,
      "hit": false,
      "t": 36923.04000000002,
      "d": 461.53800000000047,
      "v": 124
    },
    {
      "midi": 60,
      "hit": false,
      "t": 36923.04000000002,
      "d": 461.53800000000047,
      "v": 124
    },
    {
      "midi": 64,
      "hit": false,
      "t": 37384.57800000002,
      "d": 461.53800000000047,
      "v": 123
    },
    {
      "midi": 72,
      "hit": false,
      "t": 37846.11600000002,
      "d": 230.76900000000023,
      "v": 117
    },
    {
      "midi": 76,
      "hit": false,
      "t": 37846.11600000002,
      "d": 230.76900000000023,
      "v": 124
    },
    {
      "midi": 57,
      "hit": false,
      "t": 37846.11600000002,
      "d": 461.53800000000047,
      "v": 124
    },
    {
      "midi": 60,
      "hit": false,
      "t": 37846.11600000002,
      "d": 461.53800000000047,
      "v": 125
    },
    {
      "midi": 76,
      "hit": false,
      "t": 38076.885000000024,
      "d": 461.53800000000047,
      "v": 125
    },
    {
      "midi": 79,
      "hit": false,
      "t": 38076.885000000024,
      "d": 461.53800000000047,
      "v": 121
    },
    {
      "midi": 64,
      "hit": false,
      "t": 38307.654000000024,
      "d": 461.53800000000047,
      "v": 124
    },
    {
      "midi": 71,
      "hit": false,
      "t": 38538.423000000024,
      "d": 230.76900000000023,
      "v": 124
    },
    {
      "midi": 81,
      "hit": false,
      "t": 38538.423000000024,
      "d": 230.76900000000023,
      "v": 125
    },
    {
      "midi": 71,
      "hit": false,
      "t": 38769.192000000025,
      "d": 461.53800000000047,
      "v": 125
    },
    {
      "midi": 55,
      "hit": false,
      "t": 38769.192000000025,
      "d": 461.53800000000047,
      "v": 124
    },
    {
      "midi": 59,
      "hit": false,
      "t": 38769.192000000025,
      "d": 461.53800000000047,
      "v": 125
    },
    {
      "midi": 79,
      "hit": false,
      "t": 39230.730000000025,
      "d": 461.53800000000047,
      "v": 124
    },
    {
      "midi": 62,
      "hit": false,
      "t": 39230.730000000025,
      "d": 461.53800000000047,
      "v": 119
    },
    {
      "midi": 71,
      "hit": false,
      "t": 39692.268000000025,
      "d": 230.76900000000023,
      "v": 123
    },
    {
      "midi": 79,
      "hit": false,
      "t": 39692.268000000025,
      "d": 230.76900000000023,
      "v": 104
    },
    {
      "midi": 55,
      "hit": false,
      "t": 39692.268000000025,
      "d": 461.53800000000047,
      "v": 124
    },
    {
      "midi": 59,
      "hit": false,
      "t": 39692.268000000025,
      "d": 461.53800000000047,
      "v": 124
    },
    {
      "midi": 79,
      "hit": false,
      "t": 39923.037000000026,
      "d": 692.3070000000007,
      "v": 123
    },
    {
      "midi": 62,
      "hit": false,
      "t": 40153.806000000026,
      "d": 461.53800000000047,
      "v": 106
    },
    {
      "midi": 69,
      "hit": false,
      "t": 40615.34400000003,
      "d": 230.76900000000023,
      "v": 121
    },
    {
      "midi": 76,
      "hit": false,
      "t": 40615.34400000003,
      "d": 230.76900000000023,
      "v": 106
    },
    {
      "midi": 53,
      "hit": false,
      "t": 40615.34400000003,
      "d": 461.53800000000047,
      "v": 123
    },
    {
      "midi": 57,
      "hit": false,
      "t": 40615.34400000003,
      "d": 461.53800000000047,
      "v": 124
    },
    {
      "midi": 74,
      "hit": false,
      "t": 40846.11300000003,
      "d": 230.76900000000023,
      "v": 125
    },
    {
      "midi": 72,
      "hit": false,
      "t": 41076.88200000003,
      "d": 461.53800000000047,
      "v": 124
    },
    {
      "midi": 60,
      "hit": false,
      "t": 41076.88200000003,
      "d": 461.53800000000047,
      "v": 113
    },
    {
      "midi": 65,
      "hit": false,
      "t": 41538.42000000003,
      "d": 230.76900000000023,
      "v": 105
    },
    {
      "midi": 69,
      "hit": false,
      "t": 41538.42000000003,
      "d": 230.76900000000023,
      "v": 124
    },
    {
      "midi": 53,
      "hit": false,
      "t": 41538.42000000003,
      "d": 461.53800000000047,
      "v": 123
    },
    {
      "midi": 57,
      "hit": false,
      "t": 41538.42000000003,
      "d": 461.53800000000047,
      "v": 124
    },
    {
      "midi": 67,
      "hit": false,
      "t": 41769.18900000003,
      "d": 692.3070000000007,
      "v": 124
    },
    {
      "midi": 60,
      "hit": false,
      "t": 41999.95800000003,
      "d": 461.53800000000047,
      "v": 121
    },
    {
      "midi": 67,
      "hit": false,
      "t": 42461.49600000003,
      "d": 461.53800000000047,
      "v": 125
    },
    {
      "midi": 76,
      "hit": false,
      "t": 42461.49600000003,
      "d": 461.53800000000047,
      "v": 123
    },
    {
      "midi": 48,
      "hit": false,
      "t": 42461.49600000003,
      "d": 461.53800000000047,
      "v": 106
    },
    {
      "midi": 64,
      "hit": false,
      "t": 42923.03400000003,
      "d": 1384.6140000000014,
      "v": 119
    },
    {
      "midi": 72,
      "hit": false,
      "t": 42923.03400000003,
      "d": 1384.6140000000014,
      "v": 97
    },
    {
      "midi": 55,
      "hit": false,
      "t": 42923.03400000003,
      "d": 461.53800000000047,
      "v": 124
    },
    {
      "midi": 60,
      "hit": false,
      "t": 43384.57200000003,
      "d": 461.53800000000047,
      "v": 105
    },
    {
      "midi": 55,
      "hit": false,
      "t": 43846.11000000003,
      "d": 461.53800000000047,
      "v": 118
    },
    {
      "midi": 67,
      "hit": false,
      "t": 44307.64800000003,
      "d": 230.76900000000023,
      "v": 109
    },
    {
      "midi": 76,
      "hit": false,
      "t": 44307.64800000003,
      "d": 230.76900000000023,
      "v": 112
    },
    {
      "midi": 60,
      "hit": false,
      "t": 44307.64800000003,
      "d": 923.0760000000009,
      "v": 121
    },
    {
      "midi": 67,
      "hit": false,
      "t": 44538.41700000003,
      "d": 461.53800000000047,
      "v": 119
    },
    {
      "midi": 76,
      "hit": false,
      "t": 44538.41700000003,
      "d": 461.53800000000047,
      "v": 123
    },
    {
      "midi": 67,
      "hit": false,
      "t": 44999.95500000003,
      "d": 692.3070000000007,
      "v": 125
    },
    {
      "midi": 77,
      "hit": false,
      "t": 44999.95500000003,
      "d": 692.3070000000007,
      "v": 124
    },
    {
      "midi": 60,
      "hit": false,
      "t": 45230.72400000003,
      "d": 923.0760000000009,
      "v": 124
    },
    {
      "midi": 67,
      "hit": false,
      "t": 45692.26200000003,
      "d": 461.53800000000047,
      "v": 121
    },
    {
      "midi": 76,
      "hit": false,
      "t": 45692.26200000003,
      "d": 461.53800000000047,
      "v": 124
    },
    {
      "midi": 67,
      "hit": false,
      "t": 46153.80000000003,
      "d": 461.53800000000047,
      "v": 124
    },
    {
      "midi": 76,
      "hit": false,
      "t": 46153.80000000003,
      "d": 461.53800000000047,
      "v": 124
    },
    {
      "midi": 55,
      "hit": false,
      "t": 46153.80000000003,
      "d": 923.0760000000009,
      "v": 124
    },
    {
      "midi": 59,
      "hit": false,
      "t": 46153.80000000003,
      "d": 923.0760000000009,
      "v": 124
    },
    {
      "midi": 74,
      "hit": false,
      "t": 46615.33800000003,
      "d": 461.53800000000047,
      "v": 124
    },
    {
      "midi": 67,
      "hit": false,
      "t": 47076.87600000003,
      "d": 230.76900000000023,
      "v": 123
    },
    {
      "midi": 55,
      "hit": false,
      "t": 47076.87600000003,
      "d": 923.0760000000009,
      "v": 124
    },
    {
      "midi": 59,
      "hit": false,
      "t": 47076.87600000003,
      "d": 923.0760000000009,
      "v": 110
    },
    {
      "midi": 76,
      "hit": false,
      "t": 47307.64500000003,
      "d": 230.76900000000023,
      "v": 124
    },
    {
      "midi": 74,
      "hit": false,
      "t": 47538.41400000003,
      "d": 230.76900000000023,
      "v": 124
    },
    {
      "midi": 74,
      "hit": false,
      "t": 47769.183000000034,
      "d": 230.76900000000023,
      "v": 64
    },
    {
      "midi": 69,
      "hit": false,
      "t": 47999.952000000034,
      "d": 461.53800000000047,
      "v": 124
    },
    {
      "midi": 53,
      "hit": false,
      "t": 47999.952000000034,
      "d": 923.0760000000009,
      "v": 121
    },
    {
      "midi": 60,
      "hit": false,
      "t": 47999.952000000034,
      "d": 923.0760000000009,
      "v": 123
    },
    {
      "midi": 72,
      "hit": false,
      "t": 48461.490000000034,
      "d": 461.53800000000047,
      "v": 124
    },
    {
      "midi": 67,
      "hit": false,
      "t": 48923.028000000035,
      "d": 461.53800000000047,
      "v": 117
    },
    {
      "midi": 52,
      "hit": false,
      "t": 48923.028000000035,
      "d": 461.53800000000047,
      "v": 121
    },
    {
      "midi": 60,
      "hit": false,
      "t": 48923.028000000035,
      "d": 461.53800000000047,
      "v": 119
    },
    {
      "midi": 65,
      "hit": false,
      "t": 49384.566000000035,
      "d": 461.53800000000047,
      "v": 108
    },
    {
      "midi": 50,
      "hit": false,
      "t": 49384.566000000035,
      "d": 461.53800000000047,
      "v": 108
    },
    {
      "midi": 60,
      "hit": false,
      "t": 49384.566000000035,
      "d": 461.53800000000047,
      "v": 112
    },
    {
      "midi": 64,
      "hit": false,
      "t": 49846.104000000036,
      "d": 923.0760000000009,
      "v": 118
    },
    {
      "midi": 48,
      "hit": false,
      "t": 49846.104000000036,
      "d": 461.53800000000047,
      "v": 108
    },
    {
      "midi": 55,
      "hit": false,
      "t": 50307.642000000036,
      "d": 461.53800000000047,
      "v": 124
    },
    {
      "midi": 67,
      "hit": false,
      "t": 50769.18000000004,
      "d": 230.76900000000023,
      "v": 123
    },
    {
      "midi": 76,
      "hit": false,
      "t": 50769.18000000004,
      "d": 230.76900000000023,
      "v": 103
    },
    {
      "midi": 55,
      "hit": false,
      "t": 50769.18000000004,
      "d": 923.0760000000009,
      "v": 124
    },
    {
      "midi": 59,
      "hit": false,
      "t": 50769.18000000004,
      "d": 923.0760000000009,
      "v": 123
    },
    {
      "midi": 74,
      "hit": false,
      "t": 50999.94900000004,
      "d": 461.53800000000047,
      "v": 118
    },
    {
      "midi": 72,
      "hit": false,
      "t": 51461.48700000004,
      "d": 230.76900000000023,
      "v": 124
    },
    {
      "midi": 69,
      "hit": false,
      "t": 51692.25600000004,
      "d": 923.0760000000009,
      "v": 109
    },
    {
      "midi": 57,
      "hit": false,
      "t": 51692.25600000004,
      "d": 461.53800000000047,
      "v": 125
    },
    {
      "midi": 60,
      "hit": false,
      "t": 51692.25600000004,
      "d": 461.53800000000047,
      "v": 124
    },
    {
      "midi": 64,
      "hit": false,
      "t": 52153.79400000004,
      "d": 461.53800000000047,
      "v": 110
    },
    {
      "midi": 72,
      "hit": false,
      "t": 52615.33200000004,
      "d": 230.76900000000023,
      "v": 124
    },
    {
      "midi": 76,
      "hit": false,
      "t": 52615.33200000004,
      "d": 230.76900000000023,
      "v": 124
    },
    {
      "midi": 57,
      "hit": false,
      "t": 52615.33200000004,
      "d": 461.53800000000047,
      "v": 124
    },
    {
      "midi": 60,
      "hit": false,
      "t": 52615.33200000004,
      "d": 461.53800000000047,
      "v": 125
    },
    {
      "midi": 76,
      "hit": false,
      "t": 52846.10100000004,
      "d": 461.53800000000047,
      "v": 124
    },
    {
      "midi": 79,
      "hit": false,
      "t": 52846.10100000004,
      "d": 461.53800000000047,
      "v": 117
    },
    {
      "midi": 64,
      "hit": false,
      "t": 53076.87000000004,
      "d": 461.53800000000047,
      "v": 123
    },
    {
      "midi": 71,
      "hit": false,
      "t": 53307.63900000004,
      "d": 230.76900000000023,
      "v": 123
    },
    {
      "midi": 81,
      "hit": false,
      "t": 53307.63900000004,
      "d": 230.76900000000023,
      "v": 124
    },
    {
      "midi": 55,
      "hit": false,
      "t": 53538.40800000004,
      "d": 461.53800000000047,
      "v": 124
    },
    {
      "midi": 59,
      "hit": false,
      "t": 53538.40800000004,
      "d": 461.53800000000047,
      "v": 125
    },
    {
      "midi": 79,
      "hit": false,
      "t": 53999.94600000004,
      "d": 461.53800000000047,
      "v": 123
    },
    {
      "midi": 62,
      "hit": false,
      "t": 53999.94600000004,
      "d": 461.53800000000047,
      "v": 117
    },
    {
      "midi": 71,
      "hit": false,
      "t": 54461.48400000004,
      "d": 230.76900000000023,
      "v": 113
    },
    {
      "midi": 79,
      "hit": false,
      "t": 54461.48400000004,
      "d": 230.76900000000023,
      "v": 108
    },
    {
      "midi": 55,
      "hit": false,
      "t": 54461.48400000004,
      "d": 461.53800000000047,
      "v": 124
    },
    {
      "midi": 59,
      "hit": false,
      "t": 54461.48400000004,
      "d": 461.53800000000047,
      "v": 124
    },
    {
      "midi": 79,
      "hit": false,
      "t": 54692.25300000004,
      "d": 692.3070000000007,
      "v": 124
    },
    {
      "midi": 62,
      "hit": false,
      "t": 54923.02200000004,
      "d": 461.53800000000047,
      "v": 113
    },
    {
      "midi": 69,
      "hit": false,
      "t": 55384.56000000004,
      "d": 230.76900000000023,
      "v": 124
    },
    {
      "midi": 76,
      "hit": false,
      "t": 55384.56000000004,
      "d": 230.76900000000023,
      "v": 123
    },
    {
      "midi": 53,
      "hit": false,
      "t": 55384.56000000004,
      "d": 461.53800000000047,
      "v": 123
    },
    {
      "midi": 57,
      "hit": false,
      "t": 55384.56000000004,
      "d": 461.53800000000047,
      "v": 125
    },
    {
      "midi": 74,
      "hit": false,
      "t": 55615.32900000004,
      "d": 230.76900000000023,
      "v": 124
    },
    {
      "midi": 72,
      "hit": false,
      "t": 55846.09800000004,
      "d": 461.53800000000047,
      "v": 124
    },
    {
      "midi": 60,
      "hit": false,
      "t": 55846.09800000004,
      "d": 461.53800000000047,
      "v": 118
    },
    {
      "midi": 65,
      "hit": false,
      "t": 56307.63600000004,
      "d": 230.76900000000023,
      "v": 47
    },
    {
      "midi": 69,
      "hit": false,
      "t": 56307.63600000004,
      "d": 230.76900000000023,
      "v": 107
    },
    {
      "midi": 53,
      "hit": false,
      "t": 56307.63600000004,
      "d": 461.53800000000047,
      "v": 123
    },
    {
      "midi": 57,
      "hit": false,
      "t": 56307.63600000004,
      "d": 461.53800000000047,
      "v": 124
    },
    {
      "midi": 67,
      "hit": false,
      "t": 56538.40500000004,
      "d": 692.3070000000007,
      "v": 123
    },
    {
      "midi": 60,
      "hit": false,
      "t": 56769.17400000004,
      "d": 461.53800000000047,
      "v": 117
    },
    {
      "midi": 67,
      "hit": false,
      "t": 57230.71200000004,
      "d": 461.53800000000047,
      "v": 123
    },
    {
      "midi": 76,
      "hit": false,
      "t": 57230.71200000004,
      "d": 461.53800000000047,
      "v": 124
    },
    {
      "midi": 48,
      "hit": false,
      "t": 57230.71200000004,
      "d": 461.53800000000047,
      "v": 110
    },
    {
      "midi": 64,
      "hit": false,
      "t": 57692.250000000044,
      "d": 1384.6140000000014,
      "v": 105
    },
    {
      "midi": 72,
      "hit": false,
      "t": 57692.250000000044,
      "d": 1384.6140000000014,
      "v": 124
    },
    {
      "midi": 55,
      "hit": false,
      "t": 57692.250000000044,
      "d": 461.53800000000047,
      "v": 113
    },
    {
      "midi": 60,
      "hit": false,
      "t": 58153.788000000044,
      "d": 461.53800000000047,
      "v": 110
    },
    {
      "midi": 55,
      "hit": false,
      "t": 58615.326000000045,
      "d": 461.53800000000047,
      "v": 124
    },
    {
      "midi": 67,
      "hit": false,
      "t": 59076.864000000045,
      "d": 230.76900000000023,
      "v": 107
    },
    {
      "midi": 76,
      "hit": false,
      "t": 59076.864000000045,
      "d": 230.76900000000023,
      "v": 123
    },
    {
      "midi": 60,
      "hit": false,
      "t": 59076.864000000045,
      "d": 923.0760000000009,
      "v": 119
    },
    {
      "midi": 67,
      "hit": false,
      "t": 59307.633000000045,
      "d": 461.53800000000047,
      "v": 117
    },
    {
      "midi": 76,
      "hit": false,
      "t": 59307.633000000045,
      "d": 461.53800000000047,
      "v": 124
    },
    {
      "midi": 67,
      "hit": false,
      "t": 59769.171000000046,
      "d": 692.3070000000007,
      "v": 124
    },
    {
      "midi": 77,
      "hit": false,
      "t": 59769.171000000046,
      "d": 692.3070000000007,
      "v": 124
    },
    {
      "midi": 60,
      "hit": false,
      "t": 59999.940000000046,
      "d": 923.0760000000009,
      "v": 125
    },
    {
      "midi": 67,
      "hit": false,
      "t": 60461.47800000005,
      "d": 461.53800000000047,
      "v": 113
    },
    {
      "midi": 76,
      "hit": false,
      "t": 60461.47800000005,
      "d": 461.53800000000047,
      "v": 118
    },
    {
      "midi": 67,
      "hit": false,
      "t": 60923.01600000005,
      "d": 461.53800000000047,
      "v": 119
    },
    {
      "midi": 76,
      "hit": false,
      "t": 60923.01600000005,
      "d": 461.53800000000047,
      "v": 121
    },
    {
      "midi": 55,
      "hit": false,
      "t": 60923.01600000005,
      "d": 923.0760000000009,
      "v": 123
    },
    {
      "midi": 59,
      "hit": false,
      "t": 60923.01600000005,
      "d": 923.0760000000009,
      "v": 125
    },
    {
      "midi": 74,
      "hit": false,
      "t": 61384.55400000005,
      "d": 461.53800000000047,
      "v": 124
    },
    {
      "midi": 67,
      "hit": false,
      "t": 61846.09200000005,
      "d": 230.76900000000023,
      "v": 123
    },
    {
      "midi": 55,
      "hit": false,
      "t": 61846.09200000005,
      "d": 923.0760000000009,
      "v": 125
    },
    {
      "midi": 59,
      "hit": false,
      "t": 61846.09200000005,
      "d": 923.0760000000009,
      "v": 125
    },
    {
      "midi": 76,
      "hit": false,
      "t": 62076.86100000005,
      "d": 230.76900000000023,
      "v": 124
    },
    {
      "midi": 74,
      "hit": false,
      "t": 62307.63000000005,
      "d": 230.76900000000023,
      "v": 124
    },
    {
      "midi": 74,
      "hit": false,
      "t": 62538.39900000005,
      "d": 230.76900000000023,
      "v": 121
    },
    {
      "midi": 69,
      "hit": false,
      "t": 62769.16800000005,
      "d": 461.53800000000047,
      "v": 123
    },
    {
      "midi": 53,
      "hit": false,
      "t": 62769.16800000005,
      "d": 923.0760000000009,
      "v": 112
    },
    {
      "midi": 60,
      "hit": false,
      "t": 62769.16800000005,
      "d": 923.0760000000009,
      "v": 123
    },
    {
      "midi": 72,
      "hit": false,
      "t": 63230.70600000005,
      "d": 461.53800000000047,
      "v": 124
    },
    {
      "midi": 67,
      "hit": false,
      "t": 63692.24400000005,
      "d": 461.53800000000047,
      "v": 119
    },
    {
      "midi": 52,
      "hit": false,
      "t": 63692.24400000005,
      "d": 461.53800000000047,
      "v": 121
    },
    {
      "midi": 60,
      "hit": false,
      "t": 63692.24400000005,
      "d": 461.53800000000047,
      "v": 119
    },
    {
      "midi": 65,
      "hit": false,
      "t": 64153.78200000005,
      "d": 461.53800000000047,
      "v": 104
    },
    {
      "midi": 50,
      "hit": false,
      "t": 64153.78200000005,
      "d": 461.53800000000047,
      "v": 110
    },
    {
      "midi": 60,
      "hit": false,
      "t": 64153.78200000005,
      "d": 461.53800000000047,
      "v": 115
    },
    {
      "midi": 64,
      "hit": false,
      "t": 64615.32000000005,
      "d": 1846.1520000000019,
      "v": 118
    },
    {
      "midi": 48,
      "hit": false,
      "t": 64615.32000000005,
      "d": 461.53800000000047,
      "v": 124
    },
    {
      "midi": 55,
      "hit": false,
      "t": 65076.85800000005,
      "d": 461.53800000000047,
      "v": 124
    },
    {
      "midi": 60,
      "hit": false,
      "t": 65538.39600000005,
      "d": 461.53800000000047,
      "v": 107
    },
    {
      "midi": 64,
      "hit": false,
      "t": 65999.93400000005,
      "d": 461.53800000000047,
      "v": 123
    },
    {
      "midi": 72,
      "hit": false,
      "t": 66461.47200000005,
      "d": 923.0760000000009,
      "v": 113
    },
    {
      "midi": 81,
      "hit": false,
      "t": 66461.47200000005,
      "d": 923.0760000000009,
      "v": 124
    },
    {
      "midi": 65,
      "hit": false,
      "t": 66923.01000000005,
      "d": 461.53800000000047,
      "v": 123
    },
    {
      "midi": 71,
      "hit": false,
      "t": 67384.54800000005,
      "d": 461.53800000000047,
      "v": 118
    },
    {
      "midi": 79,
      "hit": false,
      "t": 67384.54800000005,
      "d": 461.53800000000047,
      "v": 113
    },
    {
      "midi": 64,
      "hit": false,
      "t": 67384.54800000005,
      "d": 461.53800000000047,
      "v": 125
    },
    {
      "midi": 69,
      "hit": false,
      "t": 67846.08600000005,
      "d": 461.53800000000047,
      "v": 102
    },
    {
      "midi": 77,
      "hit": false,
      "t": 67846.08600000005,
      "d": 461.53800000000047,
      "v": 124
    },
    {
      "midi": 62,
      "hit": false,
      "t": 67846.08600000005,
      "d": 461.53800000000047,
      "v": 125
    },
    {
      "midi": 67,
      "hit": false,
      "t": 68307.62400000005,
      "d": 923.0760000000009,
      "v": 119
    },
    {
      "midi": 76,
      "hit": false,
      "t": 68307.62400000005,
      "d": 923.0760000000009,
      "v": 125
    },
    {
      "midi": 60,
      "hit": false,
      "t": 68769.16200000005,
      "d": 461.53800000000047,
      "v": 124
    },
    {
      "midi": 65,
      "hit": false,
      "t": 69230.70000000006,
      "d": 461.53800000000047,
      "v": 115
    },
    {
      "midi": 74,
      "hit": false,
      "t": 69230.70000000006,
      "d": 461.53800000000047,
      "v": 124
    },
    {
      "midi": 58,
      "hit": false,
      "t": 69230.70000000006,
      "d": 461.53800000000047,
      "v": 125
    },
    {
      "midi": 65,
      "hit": false,
      "t": 69692.23800000006,
      "d": 461.53800000000047,
      "v": 118
    },
    {
      "midi": 72,
      "hit": false,
      "t": 69692.23800000006,
      "d": 461.53800000000047,
      "v": 125
    },
    {
      "midi": 57,
      "hit": false,
      "t": 69692.23800000006,
      "d": 461.53800000000047,
      "v": 118
    },
    {
      "midi": 67,
      "hit": false,
      "t": 70153.77600000006,
      "d": 923.0760000000009,
      "v": 123
    },
    {
      "midi": 71,
      "hit": false,
      "t": 70153.77600000006,
      "d": 923.0760000000009,
      "v": 124
    },
    {
      "midi": 55,
      "hit": false,
      "t": 70153.77600000006,
      "d": 461.53800000000047,
      "v": 124
    },
    {
      "midi": 59,
      "hit": false,
      "t": 70153.77600000006,
      "d": 461.53800000000047,
      "v": 124
    },
    {
      "midi": 62,
      "hit": false,
      "t": 70615.31400000006,
      "d": 461.53800000000047,
      "v": 113
    },
    {
      "midi": 69,
      "hit": false,
      "t": 71076.85200000006,
      "d": 461.53800000000047,
      "v": 112
    },
    {
      "midi": 72,
      "hit": false,
      "t": 71076.85200000006,
      "d": 461.53800000000047,
      "v": 124
    },
    {
      "midi": 60,
      "hit": false,
      "t": 71076.85200000006,
      "d": 461.53800000000047,
      "v": 124
    },
    {
      "midi": 71,
      "hit": false,
      "t": 71538.39000000006,
      "d": 461.53800000000047,
      "v": 123
    },
    {
      "midi": 74,
      "hit": false,
      "t": 71538.39000000006,
      "d": 461.53800000000047,
      "v": 121
    },
    {
      "midi": 55,
      "hit": false,
      "t": 71538.39000000006,
      "d": 461.53800000000047,
      "v": 119
    },
    {
      "midi": 64,
      "hit": false,
      "t": 71999.92800000006,
      "d": 1846.1520000000019,
      "v": 112
    },
    {
      "midi": 72,
      "hit": false,
      "t": 71999.92800000006,
      "d": 1846.1520000000019,
      "v": 123
    },
    {
      "midi": 60,
      "hit": false,
      "t": 71999.92800000006,
      "d": 461.53800000000047,
      "v": 103
    },
    {
      "midi": 55,
      "hit": false,
      "t": 72461.46600000006,
      "d": 461.53800000000047,
      "v": 124
    },
    {
      "midi": 48,
      "hit": false,
      "t": 72923.00400000006,
      "d": 923.0760000000009,
      "v": 124
    }
  ]
}