{
  "jsonPath": "Rock/Psychedelic Rock/Beatles/love-love-me-do.json",
  "path": "Rock\\Psychedelic Rock\\Beatles\\Love, Love Me Do.mid",
  "name": "Love, Love Me Do",
  "difficulty": "Advanced",
  "bpm": 155.00031000062,
  "notes": [
    {
      "midi": 65,
      "hit": false,
      "t": 0,
      "d": 387.096,
      "v": 76
    },
    {
      "midi": 77,
      "hit": false,
      "t": 0,
      "d": 387.096,
      "v": 84
    },
    {
      "midi": 43,
      "hit": false,
      "t": 0,
      "d": 580.644,
      "v": 76
    },
    {
      "midi": 71,
      "hit": false,
      "t": 387.096,
      "d": 193.548,
      "v": 84
    },
    {
      "midi": 74,
      "hit": false,
      "t": 387.096,
      "d": 193.548,
      "v": 92
    },
    {
      "midi": 71,
      "hit": false,
      "t": 580.644,
      "d": 193.548,
      "v": 87
    },
    {
      "midi": 74,
      "hit": false,
      "t": 580.644,
      "d": 193.548,
      "v": 95
    },
    {
      "midi": 43,
      "hit": false,
      "t": 580.644,
      "d": 193.548,
      "v": 82
    },
    {
      "midi": 64,
      "hit": false,
      "t": 774.192,
      "d": 387.096,
      "v": 61
    },
    {
      "midi": 76,
      "hit": false,
      "t": 774.192,
      "d": 387.096,
      "v": 82
    },
    {
      "midi": 38,
      "hit": false,
      "t": 774.192,
      "d": 580.644,
      "v": 78
    },
    {
      "midi": 67,
      "hit": false,
      "t": 1161.288,
      "d": 193.548,
      "v": 95
    },
    {
      "midi": 72,
      "hit": false,
      "t": 1161.288,
      "d": 193.548,
      "v": 89
    },
    {
      "midi": 67,
      "hit": false,
      "t": 1354.836,
      "d": 193.548,
      "v": 97
    },
    {
      "midi": 72,
      "hit": false,
      "t": 1354.836,
      "d": 193.548,
      "v": 48
    },
    {
      "midi": 38,
      "hit": false,
      "t": 1354.836,
      "d": 193.548,
      "v": 92
    },
    {
      "midi": 74,
      "hit": false,
      "t": 1548.384,
      "d": 193.548,
      "v": 89
    },
    {
      "midi": 36,
      "hit": false,
      "t": 1548.384,
      "d": 774.192,
      "v": 82
    },
    {
      "midi": 67,
      "hit": false,
      "t": 1741.932,
      "d": 193.548,
      "v": 92
    },
    {
      "midi": 60,
      "hit": false,
      "t": 1935.48,
      "d": 387.096,
      "v": 64
    },
    {
      "midi": 64,
      "hit": false,
      "t": 1935.48,
      "d": 387.096,
      "v": 82
    },
    {
      "midi": 64,
      "hit": false,
      "t": 2322.576,
      "d": 193.54799999999977,
      "v": 71
    },
    {
      "midi": 67,
      "hit": false,
      "t": 2322.576,
      "d": 193.54799999999977,
      "v": 78
    },
    {
      "midi": 43,
      "hit": false,
      "t": 2322.576,
      "d": 387.096,
      "v": 95
    },
    {
      "midi": 64,
      "hit": false,
      "t": 2516.124,
      "d": 193.54799999999977,
      "v": 67
    },
    {
      "midi": 67,
      "hit": false,
      "t": 2516.124,
      "d": 193.54799999999977,
      "v": 72
    },
    {
      "midi": 64,
      "hit": false,
      "t": 2709.6719999999996,
      "d": 193.54799999999977,
      "v": 55
    },
    {
      "midi": 67,
      "hit": false,
      "t": 2709.6719999999996,
      "d": 193.54799999999977,
      "v": 76
    },
    {
      "midi": 48,
      "hit": false,
      "t": 2709.672,
      "d": 387.096,
      "v": 89
    },
    {
      "midi": 64,
      "hit": false,
      "t": 2903.2199999999993,
      "d": 193.54799999999977,
      "v": 66
    },
    {
      "midi": 67,
      "hit": false,
      "t": 2903.2199999999993,
      "d": 193.54799999999977,
      "v": 80
    },
    {
      "midi": 65,
      "hit": false,
      "t": 3096.767999999999,
      "d": 387.096,
      "v": 40
    },
    {
      "midi": 77,
      "hit": false,
      "t": 3096.767999999999,
      "d": 387.096,
      "v": 56
    },
    {
      "midi": 43,
      "hit": false,
      "t": 3096.768,
      "d": 580.6440000000002,
      "v": 82
    },
    {
      "midi": 71,
      "hit": false,
      "t": 3483.863999999999,
      "d": 193.54800000000023,
      "v": 76
    },
    {
      "midi": 74,
      "hit": false,
      "t": 3483.863999999999,
      "d": 193.54800000000023,
      "v": 95
    },
    {
      "midi": 71,
      "hit": false,
      "t": 3677.4119999999994,
      "d": 193.54799999999977,
      "v": 76
    },
    {
      "midi": 74,
      "hit": false,
      "t": 3677.4119999999994,
      "d": 193.54799999999977,
      "v": 89
    },
    {
      "midi": 43,
      "hit": false,
      "t": 3677.4120000000003,
      "d": 193.54799999999977,
      "v": 87
    },
    {
      "midi": 64,
      "hit": false,
      "t": 3870.959999999999,
      "d": 387.09599999999955,
      "v": 57
    },
    {
      "midi": 76,
      "hit": false,
      "t": 3870.959999999999,
      "d": 387.09599999999955,
      "v": 67
    },
    {
      "midi": 38,
      "hit": false,
      "t": 3870.96,
      "d": 580.6440000000002,
      "v": 82
    },
    {
      "midi": 67,
      "hit": false,
      "t": 4258.055999999999,
      "d": 193.54799999999977,
      "v": 69
    },
    {
      "midi": 72,
      "hit": false,
      "t": 4258.055999999999,
      "d": 193.54799999999977,
      "v": 95
    },
    {
      "midi": 67,
      "hit": false,
      "t": 4451.603999999998,
      "d": 193.54799999999977,
      "v": 68
    },
    {
      "midi": 72,
      "hit": false,
      "t": 4451.603999999998,
      "d": 193.54799999999977,
      "v": 82
    },
    {
      "midi": 38,
      "hit": false,
      "t": 4451.604,
      "d": 193.54799999999977,
      "v": 74
    },
    {
      "midi": 74,
      "hit": false,
      "t": 4645.151999999998,
      "d": 193.54799999999977,
      "v": 68
    },
    {
      "midi": 36,
      "hit": false,
      "t": 4645.152,
      "d": 774.192,
      "v": 72
    },
    {
      "midi": 67,
      "hit": false,
      "t": 4838.699999999998,
      "d": 193.54799999999977,
      "v": 72
    },
    {
      "midi": 60,
      "hit": false,
      "t": 5032.247999999998,
      "d": 387.09599999999955,
      "v": 71
    },
    {
      "midi": 64,
      "hit": false,
      "t": 5032.247999999998,
      "d": 387.09599999999955,
      "v": 82
    },
    {
      "midi": 64,
      "hit": false,
      "t": 5419.343999999997,
      "d": 193.54799999999977,
      "v": 71
    },
    {
      "midi": 67,
      "hit": false,
      "t": 5419.343999999997,
      "d": 193.54799999999977,
      "v": 84
    },
    {
      "midi": 43,
      "hit": false,
      "t": 5419.344,
      "d": 387.09600000000046,
      "v": 84
    },
    {
      "midi": 64,
      "hit": false,
      "t": 5612.891999999997,
      "d": 193.54799999999977,
      "v": 61
    },
    {
      "midi": 67,
      "hit": false,
      "t": 5612.891999999997,
      "d": 193.54799999999977,
      "v": 76
    },
    {
      "midi": 64,
      "hit": false,
      "t": 5806.439999999997,
      "d": 193.54799999999977,
      "v": 67
    },
    {
      "midi": 67,
      "hit": false,
      "t": 5806.439999999997,
      "d": 193.54799999999977,
      "v": 72
    },
    {
      "midi": 48,
      "hit": false,
      "t": 5806.4400000000005,
      "d": 387.09599999999955,
      "v": 82
    },
    {
      "midi": 64,
      "hit": false,
      "t": 5999.987999999997,
      "d": 193.54799999999977,
      "v": 55
    },
    {
      "midi": 67,
      "hit": false,
      "t": 5999.987999999997,
      "d": 193.54799999999977,
      "v": 71
    },
    {
      "midi": 74,
      "hit": false,
      "t": 6193.535999999996,
      "d": 387.09599999999955,
      "v": 97
    },
    {
      "midi": 43,
      "hit": false,
      "t": 6193.536,
      "d": 774.192,
      "v": 74
    },
    {
      "midi": 67,
      "hit": false,
      "t": 6580.631999999996,
      "d": 387.09599999999955,
      "v": 69
    },
    {
      "midi": 71,
      "hit": false,
      "t": 6580.631999999996,
      "d": 387.09599999999955,
      "v": 67
    },
    {
      "midi": 74,
      "hit": false,
      "t": 6967.7279999999955,
      "d": 387.09599999999955,
      "v": 97
    },
    {
      "midi": 38,
      "hit": false,
      "t": 6967.728,
      "d": 774.192,
      "v": 65
    },
    {
      "midi": 71,
      "hit": false,
      "t": 7354.823999999995,
      "d": 193.54799999999977,
      "v": 72
    },
    {
      "midi": 74,
      "hit": false,
      "t": 7354.823999999995,
      "d": 193.54799999999977,
      "v": 84
    },
    {
      "midi": 77,
      "hit": false,
      "t": 7354.823999999995,
      "d": 193.54799999999977,
      "v": 62
    },
    {
      "midi": 79,
      "hit": false,
      "t": 7548.371999999995,
      "d": 193.54799999999977,
      "v": 72
    },
    {
      "midi": 36,
      "hit": false,
      "t": 7741.92,
      "d": 387.09599999999955,
      "v": 82
    },
    {
      "midi": 67,
      "hit": false,
      "t": 8129.015999999994,
      "d": 774.1920000000009,
      "v": 61
    },
    {
      "midi": 72,
      "hit": false,
      "t": 8129.015999999994,
      "d": 774.1920000000009,
      "v": 76
    },
    {
      "midi": 76,
      "hit": false,
      "t": 8129.015999999994,
      "d": 774.1920000000009,
      "v": 67
    },
    {
      "midi": 36,
      "hit": false,
      "t": 8129.016,
      "d": 193.54800000000068,
      "v": 87
    },
    {
      "midi": 40,
      "hit": false,
      "t": 8322.564,
      "d": 193.54800000000068,
      "v": 72
    },
    {
      "midi": 43,
      "hit": false,
      "t": 8516.112000000001,
      "d": 774.1919999999991,
      "v": 84
    },
    {
      "midi": 67,
      "hit": false,
      "t": 8903.207999999995,
      "d": 387.09599999999955,
      "v": 64
    },
    {
      "midi": 72,
      "hit": false,
      "t": 8903.207999999995,
      "d": 387.09599999999955,
      "v": 84
    },
    {
      "midi": 77,
      "hit": false,
      "t": 8903.207999999995,
      "d": 387.09599999999955,
      "v": 74
    },
    {
      "midi": 74,
      "hit": false,
      "t": 9290.303999999995,
      "d": 387.09599999999955,
      "v": 92
    },
    {
      "midi": 43,
      "hit": false,
      "t": 9290.304,
      "d": 774.1919999999991,
      "v": 67
    },
    {
      "midi": 67,
      "hit": false,
      "t": 9677.399999999994,
      "d": 387.09599999999955,
      "v": 59
    },
    {
      "midi": 71,
      "hit": false,
      "t": 9677.399999999994,
      "d": 387.09599999999955,
      "v": 59
    },
    {
      "midi": 74,
      "hit": false,
      "t": 10064.495999999994,
      "d": 387.09599999999955,
      "v": 92
    },
    {
      "midi": 38,
      "hit": false,
      "t": 10064.496,
      "d": 774.1919999999991,
      "v": 82
    },
    {
      "midi": 71,
      "hit": false,
      "t": 10451.591999999993,
      "d": 193.54800000000068,
      "v": 67
    },
    {
      "midi": 74,
      "hit": false,
      "t": 10451.591999999993,
      "d": 193.54800000000068,
      "v": 74
    },
    {
      "midi": 77,
      "hit": false,
      "t": 10451.591999999993,
      "d": 193.54800000000068,
      "v": 63
    },
    {
      "midi": 79,
      "hit": false,
      "t": 10645.139999999994,
      "d": 193.54800000000068,
      "v": 82
    },
    {
      "midi": 36,
      "hit": false,
      "t": 10838.687999999998,
      "d": 387.09599999999955,
      "v": 78
    },
    {
      "midi": 67,
      "hit": false,
      "t": 11225.783999999994,
      "d": 774.1920000000009,
      "v": 68
    },
    {
      "midi": 72,
      "hit": false,
      "t": 11225.783999999994,
      "d": 774.1920000000009,
      "v": 80
    },
    {
      "midi": 76,
      "hit": false,
      "t": 11225.783999999994,
      "d": 774.1920000000009,
      "v": 66
    },
    {
      "midi": 36,
      "hit": false,
      "t": 11225.783999999998,
      "d": 193.54800000000068,
      "v": 104
    },
    {
      "midi": 40,
      "hit": false,
      "t": 11419.331999999999,
      "d": 193.54800000000068,
      "v": 80
    },
    {
      "midi": 43,
      "hit": false,
      "t": 11612.88,
      "d": 774.1920000000009,
      "v": 80
    },
    {
      "midi": 67,
      "hit": false,
      "t": 11999.975999999995,
      "d": 387.09599999999955,
      "v": 71
    },
    {
      "midi": 72,
      "hit": false,
      "t": 11999.975999999995,
      "d": 387.09599999999955,
      "v": 89
    },
    {
      "midi": 77,
      "hit": false,
      "t": 11999.975999999995,
      "d": 387.09599999999955,
      "v": 82
    },
    {
      "midi": 74,
      "hit": false,
      "t": 12387.071999999995,
      "d": 387.09599999999955,
      "v": 95
    },
    {
      "midi": 43,
      "hit": false,
      "t": 12387.072,
      "d": 774.1919999999991,
      "v": 65
    },
    {
      "midi": 67,
      "hit": false,
      "t": 12774.167999999994,
      "d": 387.09599999999955,
      "v": 69
    },
    {
      "midi": 71,
      "hit": false,
      "t": 12774.167999999994,
      "d": 387.09599999999955,
      "v": 78
    },
    {
      "midi": 74,
      "hit": false,
      "t": 13161.263999999994,
      "d": 387.09599999999955,
      "v": 92
    },
    {
      "midi": 38,
      "hit": false,
      "t": 13161.264,
      "d": 774.1919999999991,
      "v": 101
    },
    {
      "midi": 71,
      "hit": false,
      "t": 13548.359999999993,
      "d": 193.54800000000068,
      "v": 67
    },
    {
      "midi": 74,
      "hit": false,
      "t": 13548.359999999993,
      "d": 193.54800000000068,
      "v": 80
    },
    {
      "midi": 77,
      "hit": false,
      "t": 13548.359999999993,
      "d": 193.54800000000068,
      "v": 64
    },
    {
      "midi": 79,
      "hit": false,
      "t": 13741.907999999994,
      "d": 193.54800000000068,
      "v": 78
    },
    {
      "midi": 36,
      "hit": false,
      "t": 13935.455999999998,
      "d": 387.09599999999955,
      "v": 82
    },
    {
      "midi": 67,
      "hit": false,
      "t": 14322.551999999994,
      "d": 774.1920000000009,
      "v": 74
    },
    {
      "midi": 72,
      "hit": false,
      "t": 14322.551999999994,
      "d": 774.1920000000009,
      "v": 80
    },
    {
      "midi": 76,
      "hit": false,
      "t": 14322.551999999994,
      "d": 774.1920000000009,
      "v": 78
    },
    {
      "midi": 36,
      "hit": false,
      "t": 14322.551999999998,
      "d": 193.54800000000068,
      "v": 95
    },
    {
      "midi": 40,
      "hit": false,
      "t": 14516.099999999999,
      "d": 193.54800000000068,
      "v": 68
    },
    {
      "midi": 43,
      "hit": false,
      "t": 14709.648,
      "d": 774.1920000000009,
      "v": 84
    },
    {
      "midi": 64,
      "hit": false,
      "t": 15096.743999999995,
      "d": 387.09599999999955,
      "v": 64
    },
    {
      "midi": 67,
      "hit": false,
      "t": 15096.743999999995,
      "d": 387.09599999999955,
      "v": 87
    },
    {
      "midi": 74,
      "hit": false,
      "t": 15096.743999999995,
      "d": 387.09599999999955,
      "v": 89
    },
    {
      "midi": 76,
      "hit": false,
      "t": 15483.839999999995,
      "d": 387.09599999999955,
      "v": 95
    },
    {
      "midi": 36,
      "hit": false,
      "t": 15483.84,
      "d": 387.09599999999955,
      "v": 82
    },
    {
      "midi": 67,
      "hit": false,
      "t": 15870.935999999994,
      "d": 387.09599999999955,
      "v": 71
    },
    {
      "midi": 72,
      "hit": false,
      "t": 15870.935999999994,
      "d": 387.09599999999955,
      "v": 89
    },
    {
      "midi": 36,
      "hit": false,
      "t": 15870.936,
      "d": 193.54800000000068,
      "v": 97
    },
    {
      "midi": 40,
      "hit": false,
      "t": 16064.484,
      "d": 193.54800000000068,
      "v": 84
    },
    {
      "midi": 74,
      "hit": false,
      "t": 16258.031999999994,
      "d": 387.09599999999955,
      "v": 89
    },
    {
      "midi": 43,
      "hit": false,
      "t": 16258.032000000001,
      "d": 387.09599999999955,
      "v": 87
    },
    {
      "midi": 64,
      "hit": false,
      "t": 16645.127999999993,
      "d": 387.09600000000137,
      "v": 54
    },
    {
      "midi": 67,
      "hit": false,
      "t": 16645.127999999993,
      "d": 387.09600000000137,
      "v": 78
    },
    {
      "midi": 72,
      "hit": false,
      "t": 16645.127999999993,
      "d": 387.09600000000137,
      "v": 92
    },
    {
      "midi": 40,
      "hit": false,
      "t": 16645.128,
      "d": 387.09600000000137,
      "v": 80
    },
    {
      "midi": 67,
      "hit": false,
      "t": 17032.223999999995,
      "d": 1548.3839999999982,
      "v": 65
    },
    {
      "midi": 72,
      "hit": false,
      "t": 17032.223999999995,
      "d": 1548.3839999999982,
      "v": 92
    },
    {
      "midi": 76,
      "hit": false,
      "t": 17032.223999999995,
      "d": 1548.3839999999982,
      "v": 84
    },
    {
      "midi": 36,
      "hit": false,
      "t": 17032.224000000002,
      "d": 387.09600000000137,
      "v": 78
    },
    {
      "midi": 36,
      "hit": false,
      "t": 17419.320000000003,
      "d": 193.54799999999886,
      "v": 101
    },
    {
      "midi": 40,
      "hit": false,
      "t": 17612.868000000002,
      "d": 193.54799999999886,
      "v": 89
    },
    {
      "midi": 43,
      "hit": false,
      "t": 17806.416,
      "d": 387.09600000000137,
      "v": 82
    },
    {
      "midi": 40,
      "hit": false,
      "t": 18193.512000000002,
      "d": 387.09600000000137,
      "v": 74
    },
    {
      "midi": 36,
      "hit": false,
      "t": 18580.608000000004,
      "d": 1548.3840000000018,
      "v": 108
    },
    {
      "midi": 67,
      "hit": false,
      "t": 19354.799999999992,
      "d": 387.09600000000137,
      "v": 89
    },
    {
      "midi": 67,
      "hit": false,
      "t": 19741.895999999993,
      "d": 387.09600000000137,
      "v": 84
    },
    {
      "midi": 62,
      "hit": false,
      "t": 20128.991999999995,
      "d": 193.54799999999886,
      "v": 72
    },
    {
      "midi": 65,
      "hit": false,
      "t": 20128.991999999995,
      "d": 193.54799999999886,
      "v": 84
    },
    {
      "midi": 70,
      "hit": false,
      "t": 20128.991999999995,
      "d": 193.54799999999886,
      "v": 72
    },
    {
      "midi": 43,
      "hit": false,
      "t": 20128.992000000006,
      "d": 580.6440000000002,
      "v": 92
    },
    {
      "midi": 67,
      "hit": false,
      "t": 20322.539999999994,
      "d": 580.6440000000002,
      "v": 95
    },
    {
      "midi": 43,
      "hit": false,
      "t": 20709.636000000006,
      "d": 193.54799999999886,
      "v": 76
    },
    {
      "midi": 60,
      "hit": false,
      "t": 20903.183999999994,
      "d": 774.1919999999991,
      "v": 104
    },
    {
      "midi": 64,
      "hit": false,
      "t": 20903.183999999994,
      "d": 774.1919999999991,
      "v": 108
    },
    {
      "midi": 50,
      "hit": false,
      "t": 20903.184000000005,
      "d": 387.09600000000137,
      "v": 95
    },
    {
      "midi": 50,
      "hit": false,
      "t": 21290.280000000006,
      "d": 387.09600000000137,
      "v": 89
    },
    {
      "midi": 48,
      "hit": false,
      "t": 21677.376000000007,
      "d": 387.09600000000137,
      "v": 80
    },
    {
      "midi": 74,
      "hit": false,
      "t": 22064.471999999994,
      "d": 193.54799999999886,
      "v": 101
    },
    {
      "midi": 48,
      "hit": false,
      "t": 22064.47200000001,
      "d": 193.54799999999886,
      "v": 82
    },
    {
      "midi": 64,
      "hit": false,
      "t": 22258.019999999993,
      "d": 774.1919999999991,
      "v": 72
    },
    {
      "midi": 67,
      "hit": false,
      "t": 22258.019999999993,
      "d": 774.1919999999991,
      "v": 69
    },
    {
      "midi": 72,
      "hit": false,
      "t": 22258.019999999993,
      "d": 774.1919999999991,
      "v": 97
    },
    {
      "midi": 48,
      "hit": false,
      "t": 22258.020000000008,
      "d": 387.09600000000137,
      "v": 80
    },
    {
      "midi": 48,
      "hit": false,
      "t": 22645.11600000001,
      "d": 193.54799999999886,
      "v": 76
    },
    {
      "midi": 48,
      "hit": false,
      "t": 22838.664000000008,
      "d": 387.09600000000137,
      "v": 78
    },
    {
      "midi": 62,
      "hit": false,
      "t": 23032.211999999992,
      "d": 193.54799999999886,
      "v": 59
    },
    {
      "midi": 65,
      "hit": false,
      "t": 23032.211999999992,
      "d": 193.54799999999886,
      "v": 82
    },
    {
      "midi": 70,
      "hit": false,
      "t": 23032.211999999992,
      "d": 193.54799999999886,
      "v": 77
    },
    {
      "midi": 43,
      "hit": false,
      "t": 23225.76000000001,
      "d": 774.1919999999991,
      "v": 82
    },
    {
      "midi": 59,
      "hit": false,
      "t": 23419.30799999999,
      "d": 387.09600000000137,
      "v": 50
    },
    {
      "midi": 65,
      "hit": false,
      "t": 23419.30799999999,
      "d": 387.09600000000137,
      "v": 61
    },
    {
      "midi": 67,
      "hit": false,
      "t": 23419.30799999999,
      "d": 387.09600000000137,
      "v": 113
    },
    {
      "midi": 60,
      "hit": false,
      "t": 23806.40399999999,
      "d": 967.7400000000016,
      "v": 69
    },
    {
      "midi": 64,
      "hit": false,
      "t": 23806.40399999999,
      "d": 967.7400000000016,
      "v": 87
    },
    {
      "midi": 67,
      "hit": false,
      "t": 23806.40399999999,
      "d": 967.7400000000016,
      "v": 64
    },
    {
      "midi": 50,
      "hit": false,
      "t": 23999.95200000001,
      "d": 387.09600000000137,
      "v": 92
    },
    {
      "midi": 50,
      "hit": false,
      "t": 24387.04800000001,
      "d": 387.09600000000137,
      "v": 84
    },
    {
      "midi": 60,
      "hit": false,
      "t": 24774.143999999993,
      "d": 1548.3839999999982,
      "v": 67
    },
    {
      "midi": 64,
      "hit": false,
      "t": 24774.143999999993,
      "d": 1548.3839999999982,
      "v": 92
    },
    {
      "midi": 48,
      "hit": false,
      "t": 24774.14400000001,
      "d": 387.09600000000137,
      "v": 82
    },
    {
      "midi": 48,
      "hit": false,
      "t": 25161.240000000013,
      "d": 193.54799999999886,
      "v": 97
    },
    {
      "midi": 48,
      "hit": false,
      "t": 25354.78800000001,
      "d": 387.09600000000137,
      "v": 89
    },
    {
      "midi": 48,
      "hit": false,
      "t": 25741.884000000013,
      "d": 193.54799999999886,
      "v": 89
    },
    {
      "midi": 48,
      "hit": false,
      "t": 25935.43200000001,
      "d": 193.54799999999886,
      "v": 74
    },
    {
      "midi": 48,
      "hit": false,
      "t": 26128.98000000001,
      "d": 193.54799999999886,
      "v": 87
    },
    {
      "midi": 74,
      "hit": false,
      "t": 26322.52799999999,
      "d": 387.09600000000137,
      "v": 97
    },
    {
      "midi": 43,
      "hit": false,
      "t": 26322.52800000001,
      "d": 774.1919999999991,
      "v": 74
    },
    {
      "midi": 67,
      "hit": false,
      "t": 26709.623999999993,
      "d": 387.09600000000137,
      "v": 69
    },
    {
      "midi": 71,
      "hit": false,
      "t": 26709.623999999993,
      "d": 387.09600000000137,
      "v": 67
    },
    {
      "midi": 74,
      "hit": false,
      "t": 27096.719999999994,
      "d": 387.09600000000137,
      "v": 97
    },
    {
      "midi": 38,
      "hit": false,
      "t": 27096.72000000001,
      "d": 774.1919999999991,
      "v": 65
    },
    {
      "midi": 71,
      "hit": false,
      "t": 27483.815999999995,
      "d": 193.54799999999886,
      "v": 72
    },
    {
      "midi": 74,
      "hit": false,
      "t": 27483.815999999995,
      "d": 193.54799999999886,
      "v": 84
    },
    {
      "midi": 77,
      "hit": false,
      "t": 27483.815999999995,
      "d": 193.54799999999886,
      "v": 62
    },
    {
      "midi": 79,
      "hit": false,
      "t": 27677.363999999994,
      "d": 193.54799999999886,
      "v": 72
    },
    {
      "midi": 36,
      "hit": false,
      "t": 27870.912000000008,
      "d": 387.09600000000137,
      "v": 82
    },
    {
      "midi": 67,
      "hit": false,
      "t": 28258.007999999994,
      "d": 774.1919999999991,
      "v": 61
    },
    {
      "midi": 72,
      "hit": false,
      "t": 28258.007999999994,
      "d": 774.1919999999991,
      "v": 76
    },
    {
      "midi": 76,
      "hit": false,
      "t": 28258.007999999994,
      "d": 774.1919999999991,
      "v": 67
    },
    {
      "midi": 36,
      "hit": false,
      "t": 28258.00800000001,
      "d": 193.54799999999886,
      "v": 87
    },
    {
      "midi": 40,
      "hit": false,
      "t": 28451.556000000008,
      "d": 193.54799999999886,
      "v": 72
    },
    {
      "midi": 43,
      "hit": false,
      "t": 28645.104000000007,
      "d": 774.1919999999991,
      "v": 84
    },
    {
      "midi": 67,
      "hit": false,
      "t": 29032.199999999993,
      "d": 387.09600000000137,
      "v": 64
    },
    {
      "midi": 72,
      "hit": false,
      "t": 29032.199999999993,
      "d": 387.09600000000137,
      "v": 84
    },
    {
      "midi": 77,
      "hit": false,
      "t": 29032.199999999993,
      "d": 387.09600000000137,
      "v": 74
    },
    {
      "midi": 74,
      "hit": false,
      "t": 29419.295999999995,
      "d": 387.09600000000137,
      "v": 92
    },
    {
      "midi": 43,
      "hit": false,
      "t": 29419.296000000006,
      "d": 774.1919999999991,
      "v": 67
    },
    {
      "midi": 67,
      "hit": false,
      "t": 29806.391999999996,
      "d": 387.09600000000137,
      "v": 59
    },
    {
      "midi": 71,
      "hit": false,
      "t": 29806.391999999996,
      "d": 387.09600000000137,
      "v": 59
    },
    {
      "midi": 74,
      "hit": false,
      "t": 30193.487999999998,
      "d": 387.09600000000137,
      "v": 92
    },
    {
      "midi": 38,
      "hit": false,
      "t": 30193.488000000005,
      "d": 774.1919999999991,
      "v": 82
    },
    {
      "midi": 71,
      "hit": false,
      "t": 30580.584,
      "d": 193.54799999999886,
      "v": 67
    },
    {
      "midi": 74,
      "hit": false,
      "t": 30580.584,
      "d": 193.54799999999886,
      "v": 74
    },
    {
      "midi": 77,
      "hit": false,
      "t": 30580.584,
      "d": 193.54799999999886,
      "v": 63
    },
    {
      "midi": 79,
      "hit": false,
      "t": 30774.131999999998,
      "d": 193.54799999999886,
      "v": 82
    },
    {
      "midi": 36,
      "hit": false,
      "t": 30967.680000000004,
      "d": 387.09600000000137,
      "v": 78
    },
    {
      "midi": 67,
      "hit": false,
      "t": 31354.775999999998,
      "d": 774.1919999999991,
      "v": 68
    },
    {
      "midi": 72,
      "hit": false,
      "t": 31354.775999999998,
      "d": 774.1919999999991,
      "v": 80
    },
    {
      "midi": 76,
      "hit": false,
      "t": 31354.775999999998,
      "d": 774.1919999999991,
      "v": 66
    },
    {
      "midi": 36,
      "hit": false,
      "t": 31354.776000000005,
      "d": 193.54799999999886,
      "v": 104
    },
    {
      "midi": 40,
      "hit": false,
      "t": 31548.324000000004,
      "d": 193.54799999999886,
      "v": 80
    },
    {
      "midi": 43,
      "hit": false,
      "t": 31741.872000000003,
      "d": 774.1919999999991,
      "v": 80
    },
    {
      "midi": 67,
      "hit": false,
      "t": 32128.967999999997,
      "d": 387.09600000000137,
      "v": 71
    },
    {
      "midi": 72,
      "hit": false,
      "t": 32128.967999999997,
      "d": 387.09600000000137,
      "v": 89
    },
    {
      "midi": 77,
      "hit": false,
      "t": 32128.967999999997,
      "d": 387.09600000000137,
      "v": 82
    },
    {
      "midi": 74,
      "hit": false,
      "t": 32516.064,
      "d": 387.09599999999773,
      "v": 95
    },
    {
      "midi": 43,
      "hit": false,
      "t": 32516.064000000002,
      "d": 774.1919999999991,
      "v": 65
    },
    {
      "midi": 67,
      "hit": false,
      "t": 32903.159999999996,
      "d": 387.09599999999773,
      "v": 69
    },
    {
      "midi": 71,
      "hit": false,
      "t": 32903.159999999996,
      "d": 387.09599999999773,
      "v": 78
    },
    {
      "midi": 74,
      "hit": false,
      "t": 33290.255999999994,
      "d": 387.09599999999773,
      "v": 92
    },
    {
      "midi": 38,
      "hit": false,
      "t": 33290.256,
      "d": 774.1920000000027,
      "v": 101
    },
    {
      "midi": 71,
      "hit": false,
      "t": 33677.35199999999,
      "d": 193.5480000000025,
      "v": 67
    },
    {
      "midi": 74,
      "hit": false,
      "t": 33677.35199999999,
      "d": 193.5480000000025,
      "v": 80
    },
    {
      "midi": 77,
      "hit": false,
      "t": 33677.35199999999,
      "d": 193.5480000000025,
      "v": 64
    },
    {
      "midi": 79,
      "hit": false,
      "t": 33870.899999999994,
      "d": 193.5480000000025,
      "v": 78
    },
    {
      "midi": 36,
      "hit": false,
      "t": 34064.448000000004,
      "d": 387.09599999999773,
      "v": 82
    },
    {
      "midi": 67,
      "hit": false,
      "t": 34451.543999999994,
      "d": 774.1920000000027,
      "v": 74
    },
    {
      "midi": 72,
      "hit": false,
      "t": 34451.543999999994,
      "d": 774.1920000000027,
      "v": 80
    },
    {
      "midi": 76,
      "hit": false,
      "t": 34451.543999999994,
      "d": 774.1920000000027,
      "v": 78
    },
    {
      "midi": 36,
      "hit": false,
      "t": 34451.544,
      "d": 193.5480000000025,
      "v": 95
    },
    {
      "midi": 40,
      "hit": false,
      "t": 34645.092000000004,
      "d": 193.5480000000025,
      "v": 68
    },
    {
      "midi": 43,
      "hit": false,
      "t": 34838.64000000001,
      "d": 774.1920000000027,
      "v": 84
    },
    {
      "midi": 64,
      "hit": false,
      "t": 35225.736,
      "d": 387.09599999999773,
      "v": 64
    },
    {
      "midi": 67,
      "hit": false,
      "t": 35225.736,
      "d": 387.09599999999773,
      "v": 87
    },
    {
      "midi": 74,
      "hit": false,
      "t": 35225.736,
      "d": 387.09599999999773,
      "v": 89
    },
    {
      "midi": 76,
      "hit": false,
      "t": 35612.831999999995,
      "d": 387.09599999999773,
      "v": 95
    },
    {
      "midi": 36,
      "hit": false,
      "t": 35612.83200000001,
      "d": 387.09599999999773,
      "v": 82
    },
    {
      "midi": 67,
      "hit": false,
      "t": 35999.92799999999,
      "d": 387.09599999999773,
      "v": 71
    },
    {
      "midi": 72,
      "hit": false,
      "t": 35999.92799999999,
      "d": 387.09599999999773,
      "v": 89
    },
    {
      "midi": 36,
      "hit": false,
      "t": 35999.92800000001,
      "d": 193.5480000000025,
      "v": 97
    },
    {
      "midi": 40,
      "hit": false,
      "t": 36193.47600000001,
      "d": 193.5480000000025,
      "v": 84
    },
    {
      "midi": 74,
      "hit": false,
      "t": 36387.02399999999,
      "d": 387.09599999999773,
      "v": 89
    },
    {
      "midi": 43,
      "hit": false,
      "t": 36387.02400000001,
      "d": 387.09599999999773,
      "v": 87
    },
    {
      "midi": 64,
      "hit": false,
      "t": 36774.11999999999,
      "d": 387.09599999999773,
      "v": 54
    },
    {
      "midi": 67,
      "hit": false,
      "t": 36774.11999999999,
      "d": 387.09599999999773,
      "v": 78
    },
    {
      "midi": 72,
      "hit": false,
      "t": 36774.11999999999,
      "d": 387.09599999999773,
      "v": 92
    },
    {
      "midi": 40,
      "hit": false,
      "t": 36774.12000000001,
      "d": 387.09599999999773,
      "v": 80
    },
    {
      "midi": 67,
      "hit": false,
      "t": 37161.215999999986,
      "d": 1548.3839999999982,
      "v": 65
    },
    {
      "midi": 72,
      "hit": false,
      "t": 37161.215999999986,
      "d": 1548.3839999999982,
      "v": 92
    },
    {
      "midi": 76,
      "hit": false,
      "t": 37161.215999999986,
      "d": 1548.3839999999982,
      "v": 84
    },
    {
      "midi": 36,
      "hit": false,
      "t": 37161.21600000001,
      "d": 387.09599999999773,
      "v": 78
    },
    {
      "midi": 36,
      "hit": false,
      "t": 37548.312000000005,
      "d": 193.5480000000025,
      "v": 101
    },
    {
      "midi": 40,
      "hit": false,
      "t": 37741.86000000001,
      "d": 193.5480000000025,
      "v": 89
    },
    {
      "midi": 43,
      "hit": false,
      "t": 37935.40800000001,
      "d": 387.09599999999773,
      "v": 82
    },
    {
      "midi": 40,
      "hit": false,
      "t": 38322.50400000001,
      "d": 387.09599999999773,
      "v": 74
    },
    {
      "midi": 36,
      "hit": false,
      "t": 38709.600000000006,
      "d": 1548.3839999999982,
      "v": 108
    },
    {
      "midi": 67,
      "hit": false,
      "t": 39483.79199999999,
      "d": 387.09599999999773,
      "v": 89
    },
    {
      "midi": 67,
      "hit": false,
      "t": 39870.887999999984,
      "d": 387.09599999999773,
      "v": 84
    },
    {
      "midi": 62,
      "hit": false,
      "t": 40257.98399999998,
      "d": 193.5480000000025,
      "v": 72
    },
    {
      "midi": 65,
      "hit": false,
      "t": 40257.98399999998,
      "d": 193.5480000000025,
      "v": 84
    },
    {
      "midi": 70,
      "hit": false,
      "t": 40257.98399999998,
      "d": 193.5480000000025,
      "v": 72
    },
    {
      "midi": 43,
      "hit": false,
      "t": 40257.984000000004,
      "d": 580.6440000000002,
      "v": 92
    },
    {
      "midi": 67,
      "hit": false,
      "t": 40451.531999999985,
      "d": 580.6440000000002,
      "v": 95
    },
    {
      "midi": 43,
      "hit": false,
      "t": 40838.628000000004,
      "d": 193.5480000000025,
      "v": 76
    },
    {
      "midi": 60,
      "hit": false,
      "t": 41032.175999999985,
      "d": 774.1920000000027,
      "v": 104
    },
    {
      "midi": 64,
      "hit": false,
      "t": 41032.175999999985,
      "d": 774.1920000000027,
      "v": 108
    },
    {
      "midi": 50,
      "hit": false,
      "t": 41032.17600000001,
      "d": 387.09599999999773,
      "v": 95
    },
    {
      "midi": 50,
      "hit": false,
      "t": 41419.272000000004,
      "d": 387.09599999999773,
      "v": 89
    },
    {
      "midi": 48,
      "hit": false,
      "t": 41806.368,
      "d": 387.09599999999773,
      "v": 80
    },
    {
      "midi": 74,
      "hit": false,
      "t": 42193.463999999985,
      "d": 193.5480000000025,
      "v": 101
    },
    {
      "midi": 48,
      "hit": false,
      "t": 42193.464,
      "d": 193.5480000000025,
      "v": 82
    },
    {
      "midi": 64,
      "hit": false,
      "t": 42387.01199999999,
      "d": 774.1920000000027,
      "v": 72
    },
    {
      "midi": 67,
      "hit": false,
      "t": 42387.01199999999,
      "d": 774.1920000000027,
      "v": 69
    },
    {
      "midi": 72,
      "hit": false,
      "t": 42387.01199999999,
      "d": 774.1920000000027,
      "v": 97
    },
    {
      "midi": 48,
      "hit": false,
      "t": 42387.012,
      "d": 387.09599999999773,
      "v": 80
    },
    {
      "midi": 48,
      "hit": false,
      "t": 42774.108,
      "d": 193.5480000000025,
      "v": 76
    },
    {
      "midi": 48,
      "hit": false,
      "t": 42967.656,
      "d": 387.09599999999773,
      "v": 78
    },
    {
      "midi": 62,
      "hit": false,
      "t": 43161.20399999999,
      "d": 193.5480000000025,
      "v": 59
    },
    {
      "midi": 65,
      "hit": false,
      "t": 43161.20399999999,
      "d": 193.5480000000025,
      "v": 82
    },
    {
      "midi": 70,
      "hit": false,
      "t": 43161.20399999999,
      "d": 193.5480000000025,
      "v": 77
    },
    {
      "midi": 43,
      "hit": false,
      "t": 43354.752,
      "d": 774.1920000000027,
      "v": 82
    },
    {
      "midi": 59,
      "hit": false,
      "t": 43548.299999999996,
      "d": 387.09599999999773,
      "v": 50
    },
    {
      "midi": 65,
      "hit": false,
      "t": 43548.299999999996,
      "d": 387.09599999999773,
      "v": 61
    },
    {
      "midi": 67,
      "hit": false,
      "t": 43548.299999999996,
      "d": 387.09599999999773,
      "v": 113
    },
    {
      "midi": 60,
      "hit": false,
      "t": 43935.39599999999,
      "d": 967.739999999998,
      "v": 69
    },
    {
      "midi": 64,
      "hit": false,
      "t": 43935.39599999999,
      "d": 967.739999999998,
      "v": 87
    },
    {
      "midi": 67,
      "hit": false,
      "t": 43935.39599999999,
      "d": 967.739999999998,
      "v": 64
    },
    {
      "midi": 50,
      "hit": false,
      "t": 44128.944,
      "d": 387.09599999999773,
      "v": 92
    },
    {
      "midi": 50,
      "hit": false,
      "t": 44516.04,
      "d": 387.09599999999773,
      "v": 84
    },
    {
      "midi": 59,
      "hit": false,
      "t": 44903.13599999999,
      "d": 1548.3839999999982,
      "v": 82
    },
    {
      "midi": 62,
      "hit": false,
      "t": 44903.13599999999,
      "d": 1548.3839999999982,
      "v": 97
    },
    {
      "midi": 43,
      "hit": false,
      "t": 44903.136,
      "d": 387.09599999999773,
      "v": 76
    },
    {
      "midi": 43,
      "hit": false,
      "t": 45290.231999999996,
      "d": 387.09599999999773,
      "v": 84
    },
    {
      "midi": 42,
      "hit": false,
      "t": 45677.327999999994,
      "d": 387.09599999999773,
      "v": 84
    },
    {
      "midi": 40,
      "hit": false,
      "t": 46064.42399999999,
      "d": 387.09599999999773,
      "v": 95
    },
    {
      "midi": 66,
      "hit": false,
      "t": 46451.51999999999,
      "d": 774.1920000000027,
      "v": 74
    },
    {
      "midi": 69,
      "hit": false,
      "t": 46451.51999999999,
      "d": 774.1920000000027,
      "v": 68
    },
    {
      "midi": 38,
      "hit": false,
      "t": 46451.51999999999,
      "d": 387.09599999999773,
      "v": 89
    },
    {
      "midi": 50,
      "hit": false,
      "t": 46838.61599999999,
      "d": 387.09599999999773,
      "v": 87
    },
    {
      "midi": 45,
      "hit": false,
      "t": 47225.711999999985,
      "d": 387.09599999999773,
      "v": 71
    },
    {
      "midi": 66,
      "hit": false,
      "t": 47225.71199999999,
      "d": 387.09599999999773,
      "v": 88
    },
    {
      "midi": 69,
      "hit": false,
      "t": 47225.71199999999,
      "d": 387.09599999999773,
      "v": 89
    },
    {
      "midi": 45,
      "hit": false,
      "t": 47612.80799999998,
      "d": 387.09599999999773,
      "v": 97
    },
    {
      "midi": 64,
      "hit": false,
      "t": 47612.80799999999,
      "d": 387.09599999999773,
      "v": 80
    },
    {
      "midi": 67,
      "hit": false,
      "t": 47612.80799999999,
      "d": 387.09599999999773,
      "v": 87
    },
    {
      "midi": 38,
      "hit": false,
      "t": 47999.90399999998,
      "d": 387.09599999999773,
      "v": 72
    },
    {
      "midi": 62,
      "hit": false,
      "t": 47999.90399999999,
      "d": 1548.3839999999982,
      "v": 82
    },
    {
      "midi": 66,
      "hit": false,
      "t": 47999.90399999999,
      "d": 1548.3839999999982,
      "v": 84
    },
    {
      "midi": 45,
      "hit": false,
      "t": 48386.99999999998,
      "d": 387.09599999999773,
      "v": 95
    },
    {
      "midi": 50,
      "hit": false,
      "t": 48774.095999999976,
      "d": 387.09599999999773,
      "v": 101
    },
    {
      "midi": 50,
      "hit": false,
      "t": 49161.19199999997,
      "d": 387.09599999999773,
      "v": 95
    },
    {
      "midi": 48,
      "hit": false,
      "t": 49548.28799999997,
      "d": 774.1920000000027,
      "v": 82
    },
    {
      "midi": 79,
      "hit": false,
      "t": 49548.287999999986,
      "d": 387.09599999999773,
      "v": 89
    },
    {
      "midi": 67,
      "hit": false,
      "t": 49935.383999999984,
      "d": 387.09599999999773,
      "v": 60
    },
    {
      "midi": 72,
      "hit": false,
      "t": 49935.383999999984,
      "d": 387.09599999999773,
      "v": 65
    },
    {
      "midi": 76,
      "hit": false,
      "t": 49935.383999999984,
      "d": 387.09599999999773,
      "v": 76
    },
    {
      "midi": 48,
      "hit": false,
      "t": 50322.479999999974,
      "d": 774.1920000000027,
      "v": 76
    },
    {
      "midi": 67,
      "hit": false,
      "t": 50322.47999999998,
      "d": 387.09599999999773,
      "v": 67
    },
    {
      "midi": 72,
      "hit": false,
      "t": 50322.47999999998,
      "d": 387.09599999999773,
      "v": 84
    },
    {
      "midi": 77,
      "hit": false,
      "t": 50322.47999999998,
      "d": 387.09599999999773,
      "v": 82
    },
    {
      "midi": 74,
      "hit": false,
      "t": 50709.57599999998,
      "d": 387.09599999999773,
      "v": 97
    },
    {
      "midi": 72,
      "hit": false,
      "t": 51096.67199999998,
      "d": 193.5480000000025,
      "v": 87
    },
    {
      "midi": 43,
      "hit": false,
      "t": 51096.67199999998,
      "d": 387.09599999999773,
      "v": 87
    },
    {
      "midi": 62,
      "hit": false,
      "t": 51290.21999999998,
      "d": 193.5480000000025,
      "v": 57
    },
    {
      "midi": 65,
      "hit": false,
      "t": 51290.21999999998,
      "d": 193.5480000000025,
      "v": 80
    },
    {
      "midi": 70,
      "hit": false,
      "t": 51290.21999999998,
      "d": 193.5480000000025,
      "v": 77
    },
    {
      "midi": 43,
      "hit": false,
      "t": 51483.767999999975,
      "d": 387.09599999999773,
      "v": 82
    },
    {
      "midi": 59,
      "hit": false,
      "t": 51483.76799999998,
      "d": 1161.2880000000005,
      "v": 89
    },
    {
      "midi": 62,
      "hit": false,
      "t": 51483.76799999998,
      "d": 1161.2880000000005,
      "v": 104
    },
    {
      "midi": 67,
      "hit": false,
      "t": 51483.76799999998,
      "d": 1161.2880000000005,
      "v": 104
    },
    {
      "midi": 42,
      "hit": false,
      "t": 51870.86399999997,
      "d": 387.09599999999773,
      "v": 77
    },
    {
      "midi": 40,
      "hit": false,
      "t": 52257.95999999997,
      "d": 387.09599999999773,
      "v": 84
    },
    {
      "midi": 38,
      "hit": false,
      "t": 52645.05599999997,
      "d": 387.09599999999773,
      "v": 82
    },
    {
      "midi": 66,
      "hit": false,
      "t": 52645.05599999998,
      "d": 774.1920000000027,
      "v": 77
    },
    {
      "midi": 69,
      "hit": false,
      "t": 52645.05599999998,
      "d": 774.1920000000027,
      "v": 74
    },
    {
      "midi": 50,
      "hit": false,
      "t": 53032.151999999965,
      "d": 387.09599999999773,
      "v": 87
    },
    {
      "midi": 45,
      "hit": false,
      "t": 53419.24799999996,
      "d": 387.09599999999773,
      "v": 67
    },
    {
      "midi": 66,
      "hit": false,
      "t": 53419.247999999985,
      "d": 387.09599999999773,
      "v": 92
    },
    {
      "midi": 69,
      "hit": false,
      "t": 53419.247999999985,
      "d": 387.09599999999773,
      "v": 95
    },
    {
      "midi": 45,
      "hit": false,
      "t": 53806.34399999996,
      "d": 387.09599999999773,
      "v": 89
    },
    {
      "midi": 64,
      "hit": false,
      "t": 53806.34399999998,
      "d": 387.09599999999773,
      "v": 84
    },
    {
      "midi": 67,
      "hit": false,
      "t": 53806.34399999998,
      "d": 387.09599999999773,
      "v": 92
    },
    {
      "midi": 38,
      "hit": false,
      "t": 54193.43999999996,
      "d": 387.09599999999773,
      "v": 87
    },
    {
      "midi": 62,
      "hit": false,
      "t": 54193.43999999998,
      "d": 1548.3839999999982,
      "v": 80
    },
    {
      "midi": 66,
      "hit": false,
      "t": 54193.43999999998,
      "d": 1548.3839999999982,
      "v": 77
    },
    {
      "midi": 45,
      "hit": false,
      "t": 54580.53599999996,
      "d": 387.09599999999773,
      "v": 72
    },
    {
      "midi": 50,
      "hit": false,
      "t": 54967.631999999954,
      "d": 387.09599999999773,
      "v": 82
    },
    {
      "midi": 50,
      "hit": false,
      "t": 55354.72799999995,
      "d": 387.09599999999773,
      "v": 87
    },
    {
      "midi": 48,
      "hit": false,
      "t": 55741.82399999995,
      "d": 774.1920000000027,
      "v": 82
    },
    {
      "midi": 79,
      "hit": false,
      "t": 55741.82399999998,
      "d": 387.09599999999773,
      "v": 76
    },
    {
      "midi": 67,
      "hit": false,
      "t": 56128.91999999998,
      "d": 387.09599999999773,
      "v": 59
    },
    {
      "midi": 72,
      "hit": false,
      "t": 56128.91999999998,
      "d": 387.09599999999773,
      "v": 67
    },
    {
      "midi": 76,
      "hit": false,
      "t": 56128.91999999998,
      "d": 387.09599999999773,
      "v": 68
    },
    {
      "midi": 48,
      "hit": false,
      "t": 56516.01599999995,
      "d": 774.1920000000027,
      "v": 84
    },
    {
      "midi": 67,
      "hit": false,
      "t": 56516.015999999974,
      "d": 387.09599999999773,
      "v": 72
    },
    {
      "midi": 72,
      "hit": false,
      "t": 56516.015999999974,
      "d": 387.09599999999773,
      "v": 84
    },
    {
      "midi": 77,
      "hit": false,
      "t": 56516.015999999974,
      "d": 387.09599999999773,
      "v": 82
    },
    {
      "midi": 74,
      "hit": false,
      "t": 56903.11199999997,
      "d": 387.09599999999773,
      "v": 101
    },
    {
      "midi": 43,
      "hit": false,
      "t": 57290.207999999955,
      "d": 387.09599999999773,
      "v": 101
    },
    {
      "midi": 59,
      "hit": false,
      "t": 57290.20799999997,
      "d": 1548.3839999999982,
      "v": 74
    },
    {
      "midi": 62,
      "hit": false,
      "t": 57290.20799999997,
      "d": 1548.3839999999982,
      "v": 84
    },
    {
      "midi": 67,
      "hit": false,
      "t": 57290.20799999997,
      "d": 1548.3839999999982,
      "v": 92
    },
    {
      "midi": 38,
      "hit": false,
      "t": 57677.30399999995,
      "d": 387.09599999999773,
      "v": 104
    },
    {
      "midi": 43,
      "hit": false,
      "t": 58064.39999999995,
      "d": 774.1920000000027,
      "v": 97
    },
    {
      "midi": 43,
      "hit": false,
      "t": 58838.59199999995,
      "d": 774.1920000000027,
      "v": 82
    },
    {
      "midi": 74,
      "hit": false,
      "t": 58838.59199999997,
      "d": 387.09599999999773,
      "v": 84
    },
    {
      "midi": 67,
      "hit": false,
      "t": 59225.687999999966,
      "d": 387.09599999999773,
      "v": 63
    },
    {
      "midi": 71,
      "hit": false,
      "t": 59225.687999999966,
      "d": 387.09599999999773,
      "v": 65
    },
    {
      "midi": 38,
      "hit": false,
      "t": 59612.783999999956,
      "d": 774.1920000000027,
      "v": 89
    },
    {
      "midi": 74,
      "hit": false,
      "t": 59612.78399999996,
      "d": 387.09599999999773,
      "v": 95
    },
    {
      "midi": 71,
      "hit": false,
      "t": 59999.87999999996,
      "d": 193.5480000000025,
      "v": 72
    },
    {
      "midi": 74,
      "hit": false,
      "t": 59999.87999999996,
      "d": 193.5480000000025,
      "v": 84
    },
    {
      "midi": 77,
      "hit": false,
      "t": 59999.87999999996,
      "d": 193.5480000000025,
      "v": 68
    },
    {
      "midi": 79,
      "hit": false,
      "t": 60193.42799999996,
      "d": 193.5480000000025,
      "v": 82
    },
    {
      "midi": 36,
      "hit": false,
      "t": 60386.97599999996,
      "d": 387.09599999999773,
      "v": 72
    },
    {
      "midi": 36,
      "hit": false,
      "t": 60774.07199999996,
      "d": 193.5480000000025,
      "v": 76
    },
    {
      "midi": 67,
      "hit": false,
      "t": 60774.071999999964,
      "d": 774.1920000000027,
      "v": 61
    },
    {
      "midi": 72,
      "hit": false,
      "t": 60774.071999999964,
      "d": 774.1920000000027,
      "v": 61
    },
    {
      "midi": 76,
      "hit": false,
      "t": 60774.071999999964,
      "d": 774.1920000000027,
      "v": 53
    },
    {
      "midi": 40,
      "hit": false,
      "t": 60967.61999999996,
      "d": 193.5480000000025,
      "v": 87
    },
    {
      "midi": 43,
      "hit": false,
      "t": 61161.16799999996,
      "d": 774.1920000000027,
      "v": 104
    },
    {
      "midi": 67,
      "hit": false,
      "t": 61548.26399999997,
      "d": 387.09599999999773,
      "v": 71
    },
    {
      "midi": 72,
      "hit": false,
      "t": 61548.26399999997,
      "d": 387.09599999999773,
      "v": 84
    },
    {
      "midi": 77,
      "hit": false,
      "t": 61548.26399999997,
      "d": 387.09599999999773,
      "v": 82
    },
    {
      "midi": 74,
      "hit": false,
      "t": 61935.359999999964,
      "d": 387.09599999999773,
      "v": 95
    },
    {
      "midi": 43,
      "hit": false,
      "t": 61935.359999999964,
      "d": 774.1920000000027,
      "v": 89
    },
    {
      "midi": 67,
      "hit": false,
      "t": 62322.45599999996,
      "d": 387.09599999999773,
      "v": 55
    },
    {
      "midi": 71,
      "hit": false,
      "t": 62322.45599999996,
      "d": 387.09599999999773,
      "v": 72
    },
    {
      "midi": 74,
      "hit": false,
      "t": 62709.55199999996,
      "d": 387.09599999999773,
      "v": 97
    },
    {
      "midi": 38,
      "hit": false,
      "t": 62709.55199999997,
      "d": 774.1920000000027,
      "v": 92
    },
    {
      "midi": 67,
      "hit": false,
      "t": 63096.64799999996,
      "d": 193.5480000000025,
      "v": 64
    },
    {
      "midi": 71,
      "hit": false,
      "t": 63096.64799999996,
      "d": 193.5480000000025,
      "v": 78
    },
    {
      "midi": 77,
      "hit": false,
      "t": 63096.64799999996,
      "d": 193.5480000000025,
      "v": 92
    },
    {
      "midi": 79,
      "hit": false,
      "t": 63290.19599999996,
      "d": 193.5480000000025,
      "v": 92
    },
    {
      "midi": 36,
      "hit": false,
      "t": 63483.74399999997,
      "d": 387.09599999999773,
      "v": 84
    },
    {
      "midi": 67,
      "hit": false,
      "t": 63870.83999999996,
      "d": 774.1920000000027,
      "v": 64
    },
    {
      "midi": 72,
      "hit": false,
      "t": 63870.83999999996,
      "d": 774.1920000000027,
      "v": 51
    },
    {
      "midi": 76,
      "hit": false,
      "t": 63870.83999999996,
      "d": 774.1920000000027,
      "v": 61
    },
    {
      "midi": 36,
      "hit": false,
      "t": 63870.83999999997,
      "d": 193.5480000000025,
      "v": 89
    },
    {
      "midi": 40,
      "hit": false,
      "t": 64064.38799999997,
      "d": 193.5480000000025,
      "v": 95
    },
    {
      "midi": 43,
      "hit": false,
      "t": 64257.93599999997,
      "d": 774.1920000000027,
      "v": 92
    },
    {
      "midi": 67,
      "hit": false,
      "t": 64645.03199999996,
      "d": 387.09599999999773,
      "v": 64
    },
    {
      "midi": 72,
      "hit": false,
      "t": 64645.03199999996,
      "d": 387.09599999999773,
      "v": 78
    },
    {
      "midi": 77,
      "hit": false,
      "t": 64645.03199999996,
      "d": 387.09599999999773,
      "v": 78
    },
    {
      "midi": 74,
      "hit": false,
      "t": 65032.12799999996,
      "d": 387.09599999999773,
      "v": 104
    },
    {
      "midi": 43,
      "hit": false,
      "t": 65032.127999999975,
      "d": 774.1920000000027,
      "v": 66
    },
    {
      "midi": 67,
      "hit": false,
      "t": 65419.22399999996,
      "d": 387.096000000005,
      "v": 72
    },
    {
      "midi": 71,
      "hit": false,
      "t": 65419.22399999996,
      "d": 387.096000000005,
      "v": 78
    },
    {
      "midi": 74,
      "hit": false,
      "t": 65806.31999999996,
      "d": 387.096000000005,
      "v": 101
    },
    {
      "midi": 38,
      "hit": false,
      "t": 65806.31999999998,
      "d": 774.1919999999955,
      "v": 82
    },
    {
      "midi": 71,
      "hit": false,
      "t": 66193.41599999997,
      "d": 193.54799999999523,
      "v": 72
    },
    {
      "midi": 74,
      "hit": false,
      "t": 66193.41599999997,
      "d": 193.54799999999523,
      "v": 95
    },
    {
      "midi": 77,
      "hit": false,
      "t": 66193.41599999997,
      "d": 193.54799999999523,
      "v": 82
    },
    {
      "midi": 79,
      "hit": false,
      "t": 66386.96399999996,
      "d": 193.54799999999523,
      "v": 84
    },
    {
      "midi": 36,
      "hit": false,
      "t": 66580.51199999997,
      "d": 387.096000000005,
      "v": 84
    },
    {
      "midi": 67,
      "hit": false,
      "t": 66967.60799999996,
      "d": 774.1919999999955,
      "v": 59
    },
    {
      "midi": 72,
      "hit": false,
      "t": 66967.60799999996,
      "d": 774.1919999999955,
      "v": 84
    },
    {
      "midi": 76,
      "hit": false,
      "t": 66967.60799999996,
      "d": 774.1919999999955,
      "v": 76
    },
    {
      "midi": 36,
      "hit": false,
      "t": 66967.60799999998,
      "d": 193.54799999999523,
      "v": 89
    },
    {
      "midi": 40,
      "hit": false,
      "t": 67161.15599999997,
      "d": 193.54799999999523,
      "v": 92
    },
    {
      "midi": 43,
      "hit": false,
      "t": 67354.70399999997,
      "d": 774.1919999999955,
      "v": 92
    },
    {
      "midi": 64,
      "hit": false,
      "t": 67741.79999999996,
      "d": 387.096000000005,
      "v": 63
    },
    {
      "midi": 67,
      "hit": false,
      "t": 67741.79999999996,
      "d": 387.096000000005,
      "v": 82
    },
    {
      "midi": 74,
      "hit": false,
      "t": 67741.79999999996,
      "d": 387.096000000005,
      "v": 89
    },
    {
      "midi": 76,
      "hit": false,
      "t": 68128.89599999996,
      "d": 387.096000000005,
      "v": 87
    },
    {
      "midi": 36,
      "hit": false,
      "t": 68128.89599999996,
      "d": 387.096000000005,
      "v": 68
    },
    {
      "midi": 67,
      "hit": false,
      "t": 68515.99199999997,
      "d": 387.096000000005,
      "v": 59
    },
    {
      "midi": 72,
      "hit": false,
      "t": 68515.99199999997,
      "d": 387.096000000005,
      "v": 71
    },
    {
      "midi": 36,
      "hit": false,
      "t": 68515.99199999997,
      "d": 193.54799999999523,
      "v": 92
    },
    {
      "midi": 40,
      "hit": false,
      "t": 68709.53999999996,
      "d": 193.54799999999523,
      "v": 92
    },
    {
      "midi": 43,
      "hit": false,
      "t": 68903.08799999996,
      "d": 387.096000000005,
      "v": 92
    },
    {
      "midi": 74,
      "hit": false,
      "t": 68903.08799999997,
      "d": 387.096000000005,
      "v": 89
    },
    {
      "midi": 40,
      "hit": false,
      "t": 69290.18399999996,
      "d": 387.096000000005,
      "v": 87
    },
    {
      "midi": 64,
      "hit": false,
      "t": 69290.18399999998,
      "d": 387.096000000005,
      "v": 66
    },
    {
      "midi": 67,
      "hit": false,
      "t": 69290.18399999998,
      "d": 387.096000000005,
      "v": 69
    },
    {
      "midi": 72,
      "hit": false,
      "t": 69290.18399999998,
      "d": 387.096000000005,
      "v": 82
    },
    {
      "midi": 36,
      "hit": false,
      "t": 69677.27999999997,
      "d": 387.096000000005,
      "v": 80
    },
    {
      "midi": 67,
      "hit": false,
      "t": 69677.27999999998,
      "d": 1548.3840000000055,
      "v": 78
    },
    {
      "midi": 72,
      "hit": false,
      "t": 69677.27999999998,
      "d": 1548.3840000000055,
      "v": 87
    },
    {
      "midi": 76,
      "hit": false,
      "t": 69677.27999999998,
      "d": 1548.3840000000055,
      "v": 87
    },
    {
      "midi": 36,
      "hit": false,
      "t": 70064.37599999997,
      "d": 193.54799999999523,
      "v": 76
    },
    {
      "midi": 40,
      "hit": false,
      "t": 70257.92399999997,
      "d": 193.54799999999523,
      "v": 95
    },
    {
      "midi": 43,
      "hit": false,
      "t": 70451.47199999997,
      "d": 387.096000000005,
      "v": 92
    },
    {
      "midi": 40,
      "hit": false,
      "t": 70838.56799999997,
      "d": 387.096000000005,
      "v": 89
    },
    {
      "midi": 36,
      "hit": false,
      "t": 71225.66399999998,
      "d": 1548.3840000000055,
      "v": 74
    },
    {
      "midi": 67,
      "hit": false,
      "t": 71999.85599999999,
      "d": 387.096000000005,
      "v": 95
    },
    {
      "midi": 67,
      "hit": false,
      "t": 72386.95199999999,
      "d": 387.096000000005,
      "v": 84
    },
    {
      "midi": 43,
      "hit": false,
      "t": 72774.04799999998,
      "d": 580.6440000000002,
      "v": 92
    },
    {
      "midi": 62,
      "hit": false,
      "t": 72774.048,
      "d": 193.54799999999523,
      "v": 62
    },
    {
      "midi": 65,
      "hit": false,
      "t": 72774.048,
      "d": 193.54799999999523,
      "v": 82
    },
    {
      "midi": 70,
      "hit": false,
      "t": 72774.048,
      "d": 193.54799999999523,
      "v": 72
    },
    {
      "midi": 67,
      "hit": false,
      "t": 72967.59599999999,
      "d": 580.6440000000002,
      "v": 101
    },
    {
      "midi": 43,
      "hit": false,
      "t": 73354.69199999998,
      "d": 193.54799999999523,
      "v": 89
    },
    {
      "midi": 50,
      "hit": false,
      "t": 73548.23999999998,
      "d": 387.096000000005,
      "v": 97
    },
    {
      "midi": 60,
      "hit": false,
      "t": 73548.23999999999,
      "d": 774.1919999999955,
      "v": 97
    },
    {
      "midi": 64,
      "hit": false,
      "t": 73548.23999999999,
      "d": 774.1919999999955,
      "v": 108
    },
    {
      "midi": 50,
      "hit": false,
      "t": 73935.33599999998,
      "d": 387.096000000005,
      "v": 89
    },
    {
      "midi": 48,
      "hit": false,
      "t": 74322.43199999999,
      "d": 387.096000000005,
      "v": 82
    },
    {
      "midi": 74,
      "hit": false,
      "t": 74709.52799999999,
      "d": 193.54799999999523,
      "v": 82
    },
    {
      "midi": 48,
      "hit": false,
      "t": 74709.52799999999,
      "d": 193.54799999999523,
      "v": 76
    },
    {
      "midi": 64,
      "hit": false,
      "t": 74903.07599999999,
      "d": 774.1919999999955,
      "v": 71
    },
    {
      "midi": 67,
      "hit": false,
      "t": 74903.07599999999,
      "d": 774.1919999999955,
      "v": 84
    },
    {
      "midi": 72,
      "hit": false,
      "t": 74903.07599999999,
      "d": 774.1919999999955,
      "v": 95
    },
    {
      "midi": 48,
      "hit": false,
      "t": 74903.07599999999,
      "d": 387.096000000005,
      "v": 80
    },
    {
      "midi": 48,
      "hit": false,
      "t": 75290.17199999999,
      "d": 193.54799999999523,
      "v": 84
    },
    {
      "midi": 48,
      "hit": false,
      "t": 75483.71999999999,
      "d": 387.096000000005,
      "v": 95
    },
    {
      "midi": 62,
      "hit": false,
      "t": 75677.26799999998,
      "d": 193.54799999999523,
      "v": 82
    },
    {
      "midi": 65,
      "hit": false,
      "t": 75677.26799999998,
      "d": 193.54799999999523,
      "v": 84
    },
    {
      "midi": 70,
      "hit": false,
      "t": 75677.26799999998,
      "d": 193.54799999999523,
      "v": 81
    },
    {
      "midi": 43,
      "hit": false,
      "t": 75870.81599999999,
      "d": 774.1919999999955,
      "v": 84
    },
    {
      "midi": 59,
      "hit": false,
      "t": 76064.36399999997,
      "d": 387.096000000005,
      "v": 65
    },
    {
      "midi": 65,
      "hit": false,
      "t": 76064.36399999997,
      "d": 387.096000000005,
      "v": 74
    },
    {
      "midi": 67,
      "hit": false,
      "t": 76064.36399999997,
      "d": 387.096000000005,
      "v": 101
    },
    {
      "midi": 60,
      "hit": false,
      "t": 76451.45999999998,
      "d": 967.7400000000052,
      "v": 72
    },
    {
      "midi": 64,
      "hit": false,
      "t": 76451.45999999998,
      "d": 967.7400000000052,
      "v": 80
    },
    {
      "midi": 67,
      "hit": false,
      "t": 76451.45999999998,
      "d": 967.7400000000052,
      "v": 92
    },
    {
      "midi": 50,
      "hit": false,
      "t": 76645.00799999999,
      "d": 387.096000000005,
      "v": 92
    },
    {
      "midi": 50,
      "hit": false,
      "t": 77032.10399999999,
      "d": 387.096000000005,
      "v": 87
    },
    {
      "midi": 59,
      "hit": false,
      "t": 77419.19999999998,
      "d": 1548.3840000000055,
      "v": 87
    },
    {
      "midi": 62,
      "hit": false,
      "t": 77419.19999999998,
      "d": 1548.3840000000055,
      "v": 104
    },
    {
      "midi": 43,
      "hit": false,
      "t": 77419.2,
      "d": 387.096000000005,
      "v": 87
    },
    {
      "midi": 43,
      "hit": false,
      "t": 77806.296,
      "d": 387.096000000005,
      "v": 82
    },
    {
      "midi": 42,
      "hit": false,
      "t": 78193.392,
      "d": 387.096000000005,
      "v": 69
    },
    {
      "midi": 40,
      "hit": false,
      "t": 78580.48800000001,
      "d": 387.096000000005,
      "v": 89
    },
    {
      "midi": 66,
      "hit": false,
      "t": 78967.58399999999,
      "d": 774.1919999999955,
      "v": 74
    },
    {
      "midi": 69,
      "hit": false,
      "t": 78967.58399999999,
      "d": 774.1919999999955,
      "v": 68
    },
    {
      "midi": 38,
      "hit": false,
      "t": 78967.58400000002,
      "d": 387.096000000005,
      "v": 89
    },
    {
      "midi": 50,
      "hit": false,
      "t": 79354.68000000002,
      "d": 387.096000000005,
      "v": 87
    },
    {
      "midi": 66,
      "hit": false,
      "t": 79741.77599999998,
      "d": 387.096000000005,
      "v": 88
    },
    {
      "midi": 69,
      "hit": false,
      "t": 79741.77599999998,
      "d": 387.096000000005,
      "v": 89
    },
    {
      "midi": 45,
      "hit": false,
      "t": 79741.77600000003,
      "d": 387.096000000005,
      "v": 71
    },
    {
      "midi": 64,
      "hit": false,
      "t": 80128.87199999999,
      "d": 387.096000000005,
      "v": 80
    },
    {
      "midi": 67,
      "hit": false,
      "t": 80128.87199999999,
      "d": 387.096000000005,
      "v": 87
    },
    {
      "midi": 45,
      "hit": false,
      "t": 80128.87200000003,
      "d": 387.096000000005,
      "v": 97
    },
    {
      "midi": 62,
      "hit": false,
      "t": 80515.968,
      "d": 1548.3840000000055,
      "v": 82
    },
    {
      "midi": 66,
      "hit": false,
      "t": 80515.968,
      "d": 1548.3840000000055,
      "v": 84
    },
    {
      "midi": 38,
      "hit": false,
      "t": 80515.96800000004,
      "d": 387.096000000005,
      "v": 72
    },
    {
      "midi": 45,
      "hit": false,
      "t": 80903.06400000004,
      "d": 387.096000000005,
      "v": 95
    },
    {
      "midi": 50,
      "hit": false,
      "t": 81290.16000000005,
      "d": 387.096000000005,
      "v": 101
    },
    {
      "midi": 50,
      "hit": false,
      "t": 81677.25600000005,
      "d": 387.096000000005,
      "v": 95
    },
    {
      "midi": 79,
      "hit": false,
      "t": 82064.352,
      "d": 387.096000000005,
      "v": 89
    },
    {
      "midi": 48,
      "hit": false,
      "t": 82064.35200000006,
      "d": 774.1919999999955,
      "v": 82
    },
    {
      "midi": 67,
      "hit": false,
      "t": 82451.448,
      "d": 387.096000000005,
      "v": 60
    },
    {
      "midi": 72,
      "hit": false,
      "t": 82451.448,
      "d": 387.096000000005,
      "v": 65
    },
    {
      "midi": 76,
      "hit": false,
      "t": 82451.448,
      "d": 387.096000000005,
      "v": 76
    },
    {
      "midi": 67,
      "hit": false,
      "t": 82838.54400000001,
      "d": 387.096000000005,
      "v": 67
    },
    {
      "midi": 72,
      "hit": false,
      "t": 82838.54400000001,
      "d": 387.096000000005,
      "v": 84
    },
    {
      "midi": 77,
      "hit": false,
      "t": 82838.54400000001,
      "d": 387.096000000005,
      "v": 82
    },
    {
      "midi": 48,
      "hit": false,
      "t": 82838.54400000005,
      "d": 774.1919999999955,
      "v": 76
    },
    {
      "midi": 74,
      "hit": false,
      "t": 83225.64000000001,
      "d": 387.096000000005,
      "v": 97
    },
    {
      "midi": 72,
      "hit": false,
      "t": 83612.73600000002,
      "d": 193.54799999999523,
      "v": 87
    },
    {
      "midi": 43,
      "hit": false,
      "t": 83612.73600000005,
      "d": 387.096000000005,
      "v": 87
    },
    {
      "midi": 62,
      "hit": false,
      "t": 83806.28400000001,
      "d": 193.54799999999523,
      "v": 57
    },
    {
      "midi": 65,
      "hit": false,
      "t": 83806.28400000001,
      "d": 193.54799999999523,
      "v": 80
    },
    {
      "midi": 70,
      "hit": false,
      "t": 83806.28400000001,
      "d": 193.54799999999523,
      "v": 77
    },
    {
      "midi": 59,
      "hit": false,
      "t": 83999.83200000001,
      "d": 1161.2880000000005,
      "v": 89
    },
    {
      "midi": 62,
      "hit": false,
      "t": 83999.83200000001,
      "d": 1161.2880000000005,
      "v": 104
    },
    {
      "midi": 67,
      "hit": false,
      "t": 83999.83200000001,
      "d": 1161.2880000000005,
      "v": 104
    },
    {
      "midi": 43,
      "hit": false,
      "t": 83999.83200000005,
      "d": 387.096000000005,
      "v": 82
    },
    {
      "midi": 42,
      "hit": false,
      "t": 84386.92800000006,
      "d": 387.096000000005,
      "v": 77
    },
    {
      "midi": 40,
      "hit": false,
      "t": 84774.02400000006,
      "d": 387.096000000005,
      "v": 84
    },
    {
      "midi": 66,
      "hit": false,
      "t": 85161.12000000001,
      "d": 774.1919999999955,
      "v": 77
    },
    {
      "midi": 69,
      "hit": false,
      "t": 85161.12000000001,
      "d": 774.1919999999955,
      "v": 74
    },
    {
      "midi": 38,
      "hit": false,
      "t": 85161.12000000007,
      "d": 387.096000000005,
      "v": 82
    },
    {
      "midi": 50,
      "hit": false,
      "t": 85548.21600000007,
      "d": 387.096000000005,
      "v": 87
    },
    {
      "midi": 66,
      "hit": false,
      "t": 85935.312,
      "d": 387.096000000005,
      "v": 92
    },
    {
      "midi": 69,
      "hit": false,
      "t": 85935.312,
      "d": 387.096000000005,
      "v": 95
    },
    {
      "midi": 45,
      "hit": false,
      "t": 85935.31200000008,
      "d": 387.096000000005,
      "v": 67
    },
    {
      "midi": 64,
      "hit": false,
      "t": 86322.40800000001,
      "d": 387.096000000005,
      "v": 84
    },
    {
      "midi": 67,
      "hit": false,
      "t": 86322.40800000001,
      "d": 387.096000000005,
      "v": 92
    },
    {
      "midi": 45,
      "hit": false,
      "t": 86322.40800000008,
      "d": 387.096000000005,
      "v": 89
    },
    {
      "midi": 62,
      "hit": false,
      "t": 86709.50400000002,
      "d": 1548.3840000000055,
      "v": 80
    },
    {
      "midi": 66,
      "hit": false,
      "t": 86709.50400000002,
      "d": 1548.3840000000055,
      "v": 77
    },
    {
      "midi": 38,
      "hit": false,
      "t": 86709.50400000009,
      "d": 387.096000000005,
      "v": 87
    },
    {
      "midi": 45,
      "hit": false,
      "t": 87096.6000000001,
      "d": 387.096000000005,
      "v": 72
    },
    {
      "midi": 50,
      "hit": false,
      "t": 87483.6960000001,
      "d": 387.096000000005,
      "v": 82
    },
    {
      "midi": 50,
      "hit": false,
      "t": 87870.7920000001,
      "d": 387.096000000005,
      "v": 87
    },
    {
      "midi": 79,
      "hit": false,
      "t": 88257.88800000002,
      "d": 387.096000000005,
      "v": 76
    },
    {
      "midi": 48,
      "hit": false,
      "t": 88257.88800000011,
      "d": 774.1919999999955,
      "v": 82
    },
    {
      "midi": 67,
      "hit": false,
      "t": 88644.98400000003,
      "d": 387.096000000005,
      "v": 59
    },
    {
      "midi": 72,
      "hit": false,
      "t": 88644.98400000003,
      "d": 387.096000000005,
      "v": 67
    },
    {
      "midi": 76,
      "hit": false,
      "t": 88644.98400000003,
      "d": 387.096000000005,
      "v": 68
    },
    {
      "midi": 67,
      "hit": false,
      "t": 89032.08000000003,
      "d": 387.096000000005,
      "v": 72
    },
    {
      "midi": 72,
      "hit": false,
      "t": 89032.08000000003,
      "d": 387.096000000005,
      "v": 84
    },
    {
      "midi": 77,
      "hit": false,
      "t": 89032.08000000003,
      "d": 387.096000000005,
      "v": 82
    },
    {
      "midi": 48,
      "hit": false,
      "t": 89032.0800000001,
      "d": 774.1919999999955,
      "v": 84
    },
    {
      "midi": 74,
      "hit": false,
      "t": 89419.17600000004,
      "d": 387.096000000005,
      "v": 101
    },
    {
      "midi": 59,
      "hit": false,
      "t": 89806.27200000004,
      "d": 1548.3840000000055,
      "v": 74
    },
    {
      "midi": 62,
      "hit": false,
      "t": 89806.27200000004,
      "d": 1548.3840000000055,
      "v": 84
    },
    {
      "midi": 67,
      "hit": false,
      "t": 89806.27200000004,
      "d": 1548.3840000000055,
      "v": 92
    },
    {
      "midi": 43,
      "hit": false,
      "t": 89806.2720000001,
      "d": 387.096000000005,
      "v": 101
    },
    {
      "midi": 38,
      "hit": false,
      "t": 90193.3680000001,
      "d": 387.096000000005,
      "v": 104
    },
    {
      "midi": 43,
      "hit": false,
      "t": 90580.46400000011,
      "d": 774.1919999999955,
      "v": 97
    },
    {
      "midi": 74,
      "hit": false,
      "t": 91354.65600000005,
      "d": 387.096000000005,
      "v": 84
    },
    {
      "midi": 43,
      "hit": false,
      "t": 91354.6560000001,
      "d": 774.1919999999955,
      "v": 82
    },
    {
      "midi": 67,
      "hit": false,
      "t": 91741.75200000005,
      "d": 387.096000000005,
      "v": 63
    },
    {
      "midi": 71,
      "hit": false,
      "t": 91741.75200000005,
      "d": 387.096000000005,
      "v": 65
    },
    {
      "midi": 74,
      "hit": false,
      "t": 92128.84800000006,
      "d": 387.096000000005,
      "v": 95
    },
    {
      "midi": 38,
      "hit": false,
      "t": 92128.8480000001,
      "d": 774.1919999999955,
      "v": 89
    },
    {
      "midi": 71,
      "hit": false,
      "t": 92515.94400000006,
      "d": 193.54799999999523,
      "v": 72
    },
    {
      "midi": 74,
      "hit": false,
      "t": 92515.94400000006,
      "d": 193.54799999999523,
      "v": 84
    },
    {
      "midi": 77,
      "hit": false,
      "t": 92515.94400000006,
      "d": 193.54799999999523,
      "v": 68
    },
    {
      "midi": 79,
      "hit": false,
      "t": 92709.49200000006,
      "d": 193.54799999999523,
      "v": 82
    },
    {
      "midi": 36,
      "hit": false,
      "t": 92903.0400000001,
      "d": 387.096000000005,
      "v": 72
    },
    {
      "midi": 67,
      "hit": false,
      "t": 93290.13600000006,
      "d": 774.1919999999955,
      "v": 61
    },
    {
      "midi": 72,
      "hit": false,
      "t": 93290.13600000006,
      "d": 774.1919999999955,
      "v": 61
    },
    {
      "midi": 76,
      "hit": false,
      "t": 93290.13600000006,
      "d": 774.1919999999955,
      "v": 53
    },
    {
      "midi": 36,
      "hit": false,
      "t": 93290.1360000001,
      "d": 193.54799999999523,
      "v": 76
    },
    {
      "midi": 40,
      "hit": false,
      "t": 93483.6840000001,
      "d": 193.54799999999523,
      "v": 87
    },
    {
      "midi": 43,
      "hit": false,
      "t": 93677.23200000009,
      "d": 774.1919999999955,
      "v": 104
    },
    {
      "midi": 67,
      "hit": false,
      "t": 94064.32800000005,
      "d": 387.096000000005,
      "v": 71
    },
    {
      "midi": 72,
      "hit": false,
      "t": 94064.32800000005,
      "d": 387.096000000005,
      "v": 84
    },
    {
      "midi": 77,
      "hit": false,
      "t": 94064.32800000005,
      "d": 387.096000000005,
      "v": 82
    },
    {
      "midi": 74,
      "hit": false,
      "t": 94451.42400000006,
      "d": 387.096000000005,
      "v": 95
    },
    {
      "midi": 43,
      "hit": false,
      "t": 94451.42400000009,
      "d": 774.1919999999955,
      "v": 89
    },
    {
      "midi": 67,
      "hit": false,
      "t": 94838.52000000006,
      "d": 387.096000000005,
      "v": 55
    },
    {
      "midi": 71,
      "hit": false,
      "t": 94838.52000000006,
      "d": 387.096000000005,
      "v": 72
    },
    {
      "midi": 74,
      "hit": false,
      "t": 95225.61600000007,
      "d": 387.096000000005,
      "v": 97
    },
    {
      "midi": 38,
      "hit": false,
      "t": 95225.61600000008,
      "d": 774.1919999999955,
      "v": 92
    },
    {
      "midi": 67,
      "hit": false,
      "t": 95612.71200000007,
      "d": 193.54799999999523,
      "v": 64
    },
    {
      "midi": 71,
      "hit": false,
      "t": 95612.71200000007,
      "d": 193.54799999999523,
      "v": 78
    },
    {
      "midi": 77,
      "hit": false,
      "t": 95612.71200000007,
      "d": 193.54799999999523,
      "v": 92
    },
    {
      "midi": 79,
      "hit": false,
      "t": 95806.26000000007,
      "d": 193.54799999999523,
      "v": 92
    },
    {
      "midi": 36,
      "hit": false,
      "t": 95999.80800000008,
      "d": 387.096000000005,
      "v": 84
    },
    {
      "midi": 67,
      "hit": false,
      "t": 96386.90400000007,
      "d": 774.1919999999955,
      "v": 64
    },
    {
      "midi": 72,
      "hit": false,
      "t": 96386.90400000007,
      "d": 774.1919999999955,
      "v": 51
    },
    {
      "midi": 76,
      "hit": false,
      "t": 96386.90400000007,
      "d": 774.1919999999955,
      "v": 61
    },
    {
      "midi": 36,
      "hit": false,
      "t": 96386.90400000008,
      "d": 193.54799999999523,
      "v": 89
    },
    {
      "midi": 40,
      "hit": false,
      "t": 96580.45200000008,
      "d": 193.54799999999523,
      "v": 95
    },
    {
      "midi": 43,
      "hit": false,
      "t": 96774.00000000007,
      "d": 774.1919999999955,
      "v": 92
    },
    {
      "midi": 67,
      "hit": false,
      "t": 97161.09600000006,
      "d": 387.096000000005,
      "v": 64
    },
    {
      "midi": 72,
      "hit": false,
      "t": 97161.09600000006,
      "d": 387.096000000005,
      "v": 78
    },
    {
      "midi": 77,
      "hit": false,
      "t": 97161.09600000006,
      "d": 387.096000000005,
      "v": 78
    },
    {
      "midi": 74,
      "hit": false,
      "t": 97548.19200000007,
      "d": 387.096000000005,
      "v": 104
    },
    {
      "midi": 43,
      "hit": false,
      "t": 97548.19200000007,
      "d": 774.1919999999955,
      "v": 66
    },
    {
      "midi": 67,
      "hit": false,
      "t": 97935.28800000007,
      "d": 387.096000000005,
      "v": 72
    },
    {
      "midi": 71,
      "hit": false,
      "t": 97935.28800000007,
      "d": 387.096000000005,
      "v": 78
    },
    {
      "midi": 38,
      "hit": false,
      "t": 98322.38400000006,
      "d": 774.1919999999955,
      "v": 82
    },
    {
      "midi": 74,
      "hit": false,
      "t": 98322.38400000008,
      "d": 387.096000000005,
      "v": 101
    },
    {
      "midi": 71,
      "hit": false,
      "t": 98709.48000000008,
      "d": 193.54799999999523,
      "v": 72
    },
    {
      "midi": 74,
      "hit": false,
      "t": 98709.48000000008,
      "d": 193.54799999999523,
      "v": 95
    },
    {
      "midi": 77,
      "hit": false,
      "t": 98709.48000000008,
      "d": 193.54799999999523,
      "v": 82
    },
    {
      "midi": 79,
      "hit": false,
      "t": 98903.02800000008,
      "d": 193.54799999999523,
      "v": 84
    },
    {
      "midi": 36,
      "hit": false,
      "t": 99096.57600000006,
      "d": 387.096000000005,
      "v": 84
    },
    {
      "midi": 36,
      "hit": false,
      "t": 99483.67200000006,
      "d": 193.54799999999523,
      "v": 89
    },
    {
      "midi": 67,
      "hit": false,
      "t": 99483.67200000008,
      "d": 774.1919999999955,
      "v": 59
    },
    {
      "midi": 72,
      "hit": false,
      "t": 99483.67200000008,
      "d": 774.1919999999955,
      "v": 84
    },
    {
      "midi": 76,
      "hit": false,
      "t": 99483.67200000008,
      "d": 774.1919999999955,
      "v": 76
    },
    {
      "midi": 40,
      "hit": false,
      "t": 99677.22000000006,
      "d": 193.54799999999523,
      "v": 92
    },
    {
      "midi": 43,
      "hit": false,
      "t": 99870.76800000005,
      "d": 774.1919999999955,
      "v": 92
    },
    {
      "midi": 64,
      "hit": false,
      "t": 100257.86400000007,
      "d": 387.096000000005,
      "v": 63
    },
    {
      "midi": 67,
      "hit": false,
      "t": 100257.86400000007,
      "d": 387.096000000005,
      "v": 82
    },
    {
      "midi": 74,
      "hit": false,
      "t": 100257.86400000007,
      "d": 387.096000000005,
      "v": 89
    },
    {
      "midi": 36,
      "hit": false,
      "t": 100644.96000000005,
      "d": 387.096000000005,
      "v": 68
    },
    {
      "midi": 76,
      "hit": false,
      "t": 100644.96000000008,
      "d": 387.096000000005,
      "v": 87
    },
    {
      "midi": 36,
      "hit": false,
      "t": 101032.05600000006,
      "d": 193.54799999999523,
      "v": 92
    },
    {
      "midi": 67,
      "hit": false,
      "t": 101032.05600000008,
      "d": 387.096000000005,
      "v": 59
    },
    {
      "midi": 72,
      "hit": false,
      "t": 101032.05600000008,
      "d": 387.096000000005,
      "v": 71
    },
    {
      "midi": 40,
      "hit": false,
      "t": 101225.60400000005,
      "d": 193.54799999999523,
      "v": 92
    },
    {
      "midi": 43,
      "hit": false,
      "t": 101419.15200000005,
      "d": 387.096000000005,
      "v": 92
    },
    {
      "midi": 74,
      "hit": false,
      "t": 101419.15200000009,
      "d": 387.096000000005,
      "v": 89
    },
    {
      "midi": 40,
      "hit": false,
      "t": 101806.24800000005,
      "d": 387.096000000005,
      "v": 87
    },
    {
      "midi": 64,
      "hit": false,
      "t": 101806.2480000001,
      "d": 387.096000000005,
      "v": 66
    },
    {
      "midi": 67,
      "hit": false,
      "t": 101806.2480000001,
      "d": 387.096000000005,
      "v": 69
    },
    {
      "midi": 72,
      "hit": false,
      "t": 101806.2480000001,
      "d": 387.096000000005,
      "v": 82
    },
    {
      "midi": 36,
      "hit": false,
      "t": 102193.34400000006,
      "d": 387.096000000005,
      "v": 80
    },
    {
      "midi": 67,
      "hit": false,
      "t": 102193.3440000001,
      "d": 1548.3840000000055,
      "v": 78
    },
    {
      "midi": 72,
      "hit": false,
      "t": 102193.3440000001,
      "d": 1548.3840000000055,
      "v": 87
    },
    {
      "midi": 76,
      "hit": false,
      "t": 102193.3440000001,
      "d": 1548.3840000000055,
      "v": 87
    },
    {
      "midi": 36,
      "hit": false,
      "t": 102580.44000000006,
      "d": 193.54799999999523,
      "v": 76
    },
    {
      "midi": 40,
      "hit": false,
      "t": 102773.98800000006,
      "d": 193.54799999999523,
      "v": 95
    },
    {
      "midi": 43,
      "hit": false,
      "t": 102967.53600000005,
      "d": 387.096000000005,
      "v": 92
    },
    {
      "midi": 40,
      "hit": false,
      "t": 103354.63200000006,
      "d": 387.096000000005,
      "v": 89
    },
    {
      "midi": 36,
      "hit": false,
      "t": 103741.72800000006,
      "d": 1548.3840000000055,
      "v": 74
    },
    {
      "midi": 67,
      "hit": false,
      "t": 104515.9200000001,
      "d": 387.096000000005,
      "v": 95
    },
    {
      "midi": 67,
      "hit": false,
      "t": 104903.0160000001,
      "d": 387.096000000005,
      "v": 84
    },
    {
      "midi": 43,
      "hit": false,
      "t": 105290.11200000007,
      "d": 580.6440000000002,
      "v": 92
    },
    {
      "midi": 62,
      "hit": false,
      "t": 105290.11200000011,
      "d": 193.54799999999523,
      "v": 62
    },
    {
      "midi": 65,
      "hit": false,
      "t": 105290.11200000011,
      "d": 193.54799999999523,
      "v": 82
    },
    {
      "midi": 70,
      "hit": false,
      "t": 105290.11200000011,
      "d": 193.54799999999523,
      "v": 72
    },
    {
      "midi": 67,
      "hit": false,
      "t": 105483.6600000001,
      "d": 580.6440000000002,
      "v": 101
    },
    {
      "midi": 43,
      "hit": false,
      "t": 105870.75600000007,
      "d": 193.54799999999523,
      "v": 89
    },
    {
      "midi": 50,
      "hit": false,
      "t": 106064.30400000006,
      "d": 387.096000000005,
      "v": 97
    },
    {
      "midi": 60,
      "hit": false,
      "t": 106064.3040000001,
      "d": 774.1919999999955,
      "v": 97
    },
    {
      "midi": 64,
      "hit": false,
      "t": 106064.3040000001,
      "d": 774.1919999999955,
      "v": 108
    },
    {
      "midi": 50,
      "hit": false,
      "t": 106451.40000000007,
      "d": 387.096000000005,
      "v": 89
    },
    {
      "midi": 48,
      "hit": false,
      "t": 106838.49600000007,
      "d": 387.096000000005,
      "v": 92
    },
    {
      "midi": 48,
      "hit": false,
      "t": 107225.59200000008,
      "d": 193.54799999999523,
      "v": 84
    },
    {
      "midi": 74,
      "hit": false,
      "t": 107225.5920000001,
      "d": 193.54799999999523,
      "v": 84
    },
    {
      "midi": 48,
      "hit": false,
      "t": 107419.14000000007,
      "d": 387.096000000005,
      "v": 80
    },
    {
      "midi": 64,
      "hit": false,
      "t": 107419.1400000001,
      "d": 774.1919999999955,
      "v": 62
    },
    {
      "midi": 67,
      "hit": false,
      "t": 107419.1400000001,
      "d": 774.1919999999955,
      "v": 66
    },
    {
      "midi": 72,
      "hit": false,
      "t": 107419.1400000001,
      "d": 774.1919999999955,
      "v": 87
    },
    {
      "midi": 48,
      "hit": false,
      "t": 107806.23600000008,
      "d": 193.54799999999523,
      "v": 84
    },
    {
      "midi": 48,
      "hit": false,
      "t": 107999.78400000007,
      "d": 387.096000000005,
      "v": 95
    },
    {
      "midi": 62,
      "hit": false,
      "t": 108193.3320000001,
      "d": 193.54799999999523,
      "v": 82
    },
    {
      "midi": 65,
      "hit": false,
      "t": 108193.3320000001,
      "d": 193.54799999999523,
      "v": 78
    },
    {
      "midi": 70,
      "hit": false,
      "t": 108193.3320000001,
      "d": 193.54799999999523,
      "v": 84
    },
    {
      "midi": 43,
      "hit": false,
      "t": 108386.88000000008,
      "d": 774.1919999999955,
      "v": 78
    },
    {
      "midi": 59,
      "hit": false,
      "t": 108580.42800000009,
      "d": 387.096000000005,
      "v": 64
    },
    {
      "midi": 65,
      "hit": false,
      "t": 108580.42800000009,
      "d": 387.096000000005,
      "v": 89
    },
    {
      "midi": 67,
      "hit": false,
      "t": 108580.42800000009,
      "d": 387.096000000005,
      "v": 89
    },
    {
      "midi": 60,
      "hit": false,
      "t": 108967.52400000009,
      "d": 967.7400000000052,
      "v": 80
    },
    {
      "midi": 64,
      "hit": false,
      "t": 108967.52400000009,
      "d": 967.7400000000052,
      "v": 87
    },
    {
      "midi": 67,
      "hit": false,
      "t": 108967.52400000009,
      "d": 967.7400000000052,
      "v": 97
    },
    {
      "midi": 50,
      "hit": false,
      "t": 109161.07200000007,
      "d": 387.096000000005,
      "v": 87
    },
    {
      "midi": 50,
      "hit": false,
      "t": 109548.16800000008,
      "d": 387.096000000005,
      "v": 82
    },
    {
      "midi": 48,
      "hit": false,
      "t": 109935.26400000008,
      "d": 387.096000000005,
      "v": 92
    },
    {
      "midi": 48,
      "hit": false,
      "t": 110322.36000000009,
      "d": 193.54799999999523,
      "v": 84
    },
    {
      "midi": 74,
      "hit": false,
      "t": 110322.3600000001,
      "d": 193.54799999999523,
      "v": 84
    },
    {
      "midi": 48,
      "hit": false,
      "t": 110515.90800000008,
      "d": 387.096000000005,
      "v": 80
    },
    {
      "midi": 64,
      "hit": false,
      "t": 110515.9080000001,
      "d": 774.1919999999955,
      "v": 62
    },
    {
      "midi": 67,
      "hit": false,
      "t": 110515.9080000001,
      "d": 774.1919999999955,
      "v": 66
    },
    {
      "midi": 72,
      "hit": false,
      "t": 110515.9080000001,
      "d": 774.1919999999955,
      "v": 87
    },
    {
      "midi": 48,
      "hit": false,
      "t": 110903.00400000009,
      "d": 193.54799999999523,
      "v": 84
    },
    {
      "midi": 48,
      "hit": false,
      "t": 111096.55200000008,
      "d": 387.096000000005,
      "v": 95
    },
    {
      "midi": 62,
      "hit": false,
      "t": 111290.1000000001,
      "d": 193.54799999999523,
      "v": 82
    },
    {
      "midi": 65,
      "hit": false,
      "t": 111290.1000000001,
      "d": 193.54799999999523,
      "v": 78
    },
    {
      "midi": 70,
      "hit": false,
      "t": 111290.1000000001,
      "d": 193.54799999999523,
      "v": 84
    },
    {
      "midi": 43,
      "hit": false,
      "t": 111483.64800000009,
      "d": 774.1919999999955,
      "v": 78
    },
    {
      "midi": 59,
      "hit": false,
      "t": 111677.19600000008,
      "d": 387.096000000005,
      "v": 64
    },
    {
      "midi": 65,
      "hit": false,
      "t": 111677.19600000008,
      "d": 387.096000000005,
      "v": 89
    },
    {
      "midi": 67,
      "hit": false,
      "t": 111677.19600000008,
      "d": 387.096000000005,
      "v": 89
    },
    {
      "midi": 60,
      "hit": false,
      "t": 112064.29200000009,
      "d": 967.7400000000052,
      "v": 80
    },
    {
      "midi": 64,
      "hit": false,
      "t": 112064.29200000009,
      "d": 967.7400000000052,
      "v": 87
    },
    {
      "midi": 67,
      "hit": false,
      "t": 112064.29200000009,
      "d": 967.7400000000052,
      "v": 97
    },
    {
      "midi": 50,
      "hit": false,
      "t": 112257.84000000008,
      "d": 387.096000000005,
      "v": 87
    },
    {
      "midi": 50,
      "hit": false,
      "t": 112644.93600000009,
      "d": 387.096000000005,
      "v": 82
    },
    {
      "midi": 48,
      "hit": false,
      "t": 113032.0320000001,
      "d": 387.096000000005,
      "v": 92
    },
    {
      "midi": 74,
      "hit": false,
      "t": 113419.1280000001,
      "d": 193.54799999999523,
      "v": 84
    },
    {
      "midi": 48,
      "hit": false,
      "t": 113419.1280000001,
      "d": 193.54799999999523,
      "v": 84
    },
    {
      "midi": 64,
      "hit": false,
      "t": 113612.6760000001,
      "d": 774.1919999999955,
      "v": 62
    },
    {
      "midi": 67,
      "hit": false,
      "t": 113612.6760000001,
      "d": 774.1919999999955,
      "v": 66
    },
    {
      "midi": 72,
      "hit": false,
      "t": 113612.6760000001,
      "d": 774.1919999999955,
      "v": 87
    },
    {
      "midi": 48,
      "hit": false,
      "t": 113612.6760000001,
      "d": 387.096000000005,
      "v": 80
    },
    {
      "midi": 48,
      "hit": false,
      "t": 113999.7720000001,
      "d": 193.54799999999523,
      "v": 84
    },
    {
      "midi": 48,
      "hit": false,
      "t": 114193.3200000001,
      "d": 387.096000000005,
      "v": 95
    },
    {
      "midi": 62,
      "hit": false,
      "t": 114386.86800000009,
      "d": 193.54799999999523,
      "v": 82
    },
    {
      "midi": 65,
      "hit": false,
      "t": 114386.86800000009,
      "d": 193.54799999999523,
      "v": 78
    },
    {
      "midi": 70,
      "hit": false,
      "t": 114386.86800000009,
      "d": 193.54799999999523,
      "v": 84
    },
    {
      "midi": 43,
      "hit": false,
      "t": 114580.4160000001,
      "d": 774.1919999999955,
      "v": 78
    },
    {
      "midi": 59,
      "hit": false,
      "t": 114773.96400000008,
      "d": 387.096000000005,
      "v": 64
    },
    {
      "midi": 65,
      "hit": false,
      "t": 114773.96400000008,
      "d": 387.096000000005,
      "v": 89
    },
    {
      "midi": 67,
      "hit": false,
      "t": 114773.96400000008,
      "d": 387.096000000005,
      "v": 89
    },
    {
      "midi": 60,
      "hit": false,
      "t": 115161.06000000008,
      "d": 967.7400000000052,
      "v": 80
    },
    {
      "midi": 64,
      "hit": false,
      "t": 115161.06000000008,
      "d": 967.7400000000052,
      "v": 87
    },
    {
      "midi": 67,
      "hit": false,
      "t": 115161.06000000008,
      "d": 967.7400000000052,
      "v": 97
    },
    {
      "midi": 50,
      "hit": false,
      "t": 115354.6080000001,
      "d": 387.096000000005,
      "v": 87
    },
    {
      "midi": 50,
      "hit": false,
      "t": 115741.7040000001,
      "d": 387.096000000005,
      "v": 82
    },
    {
      "midi": 48,
      "hit": false,
      "t": 116128.8000000001,
      "d": 387.096000000005,
      "v": 92
    },
    {
      "midi": 74,
      "hit": false,
      "t": 116515.8960000001,
      "d": 193.54799999999523,
      "v": 84
    },
    {
      "midi": 48,
      "hit": false,
      "t": 116515.89600000011,
      "d": 193.54799999999523,
      "v": 84
    },
    {
      "midi": 64,
      "hit": false,
      "t": 116709.44400000009,
      "d": 774.1919999999955,
      "v": 62
    },
    {
      "midi": 67,
      "hit": false,
      "t": 116709.44400000009,
      "d": 774.1919999999955,
      "v": 66
    },
    {
      "midi": 72,
      "hit": false,
      "t": 116709.44400000009,
      "d": 774.1919999999955,
      "v": 87
    },
    {
      "midi": 48,
      "hit": false,
      "t": 116709.4440000001,
      "d": 387.096000000005,
      "v": 80
    },
    {
      "midi": 48,
      "hit": false,
      "t": 117096.54000000011,
      "d": 193.54799999999523,
      "v": 84
    },
    {
      "midi": 48,
      "hit": false,
      "t": 117290.0880000001,
      "d": 387.096000000005,
      "v": 95
    },
    {
      "midi": 62,
      "hit": false,
      "t": 117483.63600000009,
      "d": 193.54799999999523,
      "v": 82
    },
    {
      "midi": 65,
      "hit": false,
      "t": 117483.63600000009,
      "d": 193.54799999999523,
      "v": 78
    },
    {
      "midi": 70,
      "hit": false,
      "t": 117483.63600000009,
      "d": 193.54799999999523,
      "v": 84
    },
    {
      "midi": 43,
      "hit": false,
      "t": 117677.18400000011,
      "d": 1548.3840000000055,
      "v": 78
    },
    {
      "midi": 59,
      "hit": false,
      "t": 117870.73200000008,
      "d": 1354.8359999999957,
      "v": 64
    },
    {
      "midi": 65,
      "hit": false,
      "t": 117870.73200000008,
      "d": 1354.8359999999957,
      "v": 89
    },
    {
      "midi": 67,
      "hit": false,
      "t": 117870.73200000008,
      "d": 1354.8359999999957,
      "v": 89
    }
  ]
}