{
  "jsonPath": "Pop/Dance Pop/Ashley Tisdale/erase-and-rewind-album-version.json",
  "path": "Pop\\Dance Pop\\Ashley Tisdale\\Erase And Rewind (Album Version).mid",
  "name": "Erase And Rewind (Album Version)",
  "difficulty": "Advanced",
  "bpm": 127.00025400050801,
  "notes": [
    {
      "midi": 78,
      "hit": false,
      "t": 14645.64,
      "d": 209.15312500000073,
      "v": 91
    },
    {
      "midi": 73,
      "hit": false,
      "t": 14881.86,
      "d": 659.4475000000002,
      "v": 93
    },
    {
      "midi": 73,
      "hit": false,
      "t": 15590.52,
      "d": 140.25562499999978,
      "v": 96
    },
    {
      "midi": 71,
      "hit": false,
      "t": 15826.74,
      "d": 681.5931250000012,
      "v": 93
    },
    {
      "midi": 66,
      "hit": false,
      "t": 16535.4,
      "d": 206.69250000000102,
      "v": 102
    },
    {
      "midi": 61,
      "hit": false,
      "t": 16771.620000000003,
      "d": 615.15625,
      "v": 95
    },
    {
      "midi": 54,
      "hit": false,
      "t": 17007.840000000004,
      "d": 3777.059374999997,
      "v": 82
    },
    {
      "midi": 47,
      "hit": false,
      "t": 17007.840000000004,
      "d": 3796.7443749999984,
      "v": 73
    },
    {
      "midi": 62,
      "hit": false,
      "t": 17480.280000000002,
      "d": 1237.6943749999991,
      "v": 95
    },
    {
      "midi": 52,
      "hit": false,
      "t": 20787.36,
      "d": 656.9868750000023,
      "v": 93
    },
    {
      "midi": 59,
      "hit": false,
      "t": 21023.58,
      "d": 1638.7762500000026,
      "v": 86
    },
    {
      "midi": 67,
      "hit": false,
      "t": 21496.020000000004,
      "d": 2849.4037500000013,
      "v": 90
    },
    {
      "midi": 76,
      "hit": false,
      "t": 23149.560000000005,
      "d": 189.46812499999942,
      "v": 94
    },
    {
      "midi": 81,
      "hit": false,
      "t": 23385.780000000006,
      "d": 440.45187499999884,
      "v": 98
    },
    {
      "midi": 83,
      "hit": false,
      "t": 23858.220000000005,
      "d": 698.817500000001,
      "v": 90
    },
    {
      "midi": 62,
      "hit": false,
      "t": 25747.980000000007,
      "d": 211.61375000000044,
      "v": 102
    },
    {
      "midi": 69,
      "hit": false,
      "t": 25984.200000000008,
      "d": 1781.4925000000003,
      "v": 103
    },
    {
      "midi": 62,
      "hit": false,
      "t": 28110.180000000008,
      "d": 317.4206250000025,
      "v": 104
    },
    {
      "midi": 52,
      "hit": false,
      "t": 28346.40000000001,
      "d": 1882.3781249999993,
      "v": 89
    },
    {
      "midi": 62,
      "hit": false,
      "t": 29763.72000000001,
      "d": 450.2943750000013,
      "v": 87
    },
    {
      "midi": 55,
      "hit": false,
      "t": 29763.72000000001,
      "d": 460.13687500000015,
      "v": 88
    },
    {
      "midi": 45,
      "hit": false,
      "t": 30236.160000000007,
      "d": 1857.7718749999985,
      "v": 97
    },
    {
      "midi": 61,
      "hit": false,
      "t": 30236.160000000007,
      "d": 1862.693124999998,
      "v": 83
    },
    {
      "midi": 57,
      "hit": false,
      "t": 30236.160000000007,
      "d": 1867.6143749999974,
      "v": 86
    },
    {
      "midi": 52,
      "hit": false,
      "t": 31653.480000000007,
      "d": 433.0699999999997,
      "v": 97
    },
    {
      "midi": 47,
      "hit": false,
      "t": 32125.920000000006,
      "d": 3762.295624999999,
      "v": 79
    },
    {
      "midi": 59,
      "hit": false,
      "t": 32125.920000000006,
      "d": 3762.295624999999,
      "v": 98
    },
    {
      "midi": 57,
      "hit": false,
      "t": 34960.560000000005,
      "d": 1761.8074999999953,
      "v": 71
    },
    {
      "midi": 28,
      "hit": false,
      "t": 35905.44,
      "d": 118.11000000000058,
      "v": 83
    },
    {
      "midi": 28,
      "hit": false,
      "t": 36141.66,
      "d": 145.17687499999738,
      "v": 84
    },
    {
      "midi": 28,
      "hit": false,
      "t": 37795.2,
      "d": 118.11000000000058,
      "v": 82
    },
    {
      "midi": 28,
      "hit": false,
      "t": 38031.42,
      "d": 145.17687499999738,
      "v": 87
    },
    {
      "midi": 26,
      "hit": false,
      "t": 39684.95999999999,
      "d": 118.11000000000058,
      "v": 81
    },
    {
      "midi": 26,
      "hit": false,
      "t": 39921.17999999999,
      "d": 145.17687499999738,
      "v": 86
    },
    {
      "midi": 26,
      "hit": false,
      "t": 41574.71999999999,
      "d": 118.11000000000058,
      "v": 87
    },
    {
      "midi": 26,
      "hit": false,
      "t": 41810.93999999999,
      "d": 145.17687499999738,
      "v": 87
    },
    {
      "midi": 28,
      "hit": false,
      "t": 43464.47999999998,
      "d": 118.11000000000058,
      "v": 84
    },
    {
      "midi": 28,
      "hit": false,
      "t": 43700.69999999998,
      "d": 145.17687499999738,
      "v": 81
    },
    {
      "midi": 33,
      "hit": false,
      "t": 45354.239999999976,
      "d": 118.11000000000058,
      "v": 84
    },
    {
      "midi": 33,
      "hit": false,
      "t": 45590.45999999998,
      "d": 145.17687499999738,
      "v": 87
    },
    {
      "midi": 35,
      "hit": false,
      "t": 47243.99999999997,
      "d": 118.11000000000058,
      "v": 81
    },
    {
      "midi": 35,
      "hit": false,
      "t": 47480.21999999997,
      "d": 145.17687499999738,
      "v": 84
    },
    {
      "midi": 35,
      "hit": false,
      "t": 49133.759999999966,
      "d": 1879.9175000000032,
      "v": 88
    },
    {
      "midi": 64,
      "hit": false,
      "t": 69921.11999999997,
      "d": 442.9125000000058,
      "v": 83
    },
    {
      "midi": 56,
      "hit": false,
      "t": 69921.11999999997,
      "d": 1227.8518750000076,
      "v": 83
    },
    {
      "midi": 64,
      "hit": false,
      "t": 70629.77999999997,
      "d": 1678.1462500000052,
      "v": 80
    },
    {
      "midi": 57,
      "hit": false,
      "t": 71338.43999999997,
      "d": 873.5218750000058,
      "v": 83
    },
    {
      "midi": 57,
      "hit": false,
      "t": 72283.31999999998,
      "d": 1395.1743750000023,
      "v": 77
    },
    {
      "midi": 64,
      "hit": false,
      "t": 72519.53999999998,
      "d": 1146.6512499999953,
      "v": 78
    },
    {
      "midi": 61,
      "hit": false,
      "t": 72991.97999999998,
      "d": 696.3568749999977,
      "v": 82
    },
    {
      "midi": 64,
      "hit": false,
      "t": 73700.63999999998,
      "d": 2994.5806250000023,
      "v": 70
    },
    {
      "midi": 59,
      "hit": false,
      "t": 73700.63999999998,
      "d": 3540.839374999996,
      "v": 82
    },
    {
      "midi": 56,
      "hit": false,
      "t": 73700.63999999998,
      "d": 3545.7606249999953,
      "v": 77
    },
    {
      "midi": 68,
      "hit": false,
      "t": 76299.05999999998,
      "d": 312.4993749999994,
      "v": 96
    },
    {
      "midi": 68,
      "hit": false,
      "t": 76771.49999999999,
      "d": 691.4356249999983,
      "v": 106
    },
    {
      "midi": 64,
      "hit": false,
      "t": 76771.49999999999,
      "d": 703.7387500000041,
      "v": 95
    },
    {
      "midi": 69,
      "hit": false,
      "t": 77480.15999999999,
      "d": 1850.3899999999994,
      "v": 79
    },
    {
      "midi": 64,
      "hit": false,
      "t": 77480.15999999999,
      "d": 1874.9962499999965,
      "v": 96
    },
    {
      "midi": 59,
      "hit": false,
      "t": 77480.15999999999,
      "d": 1887.2993750000023,
      "v": 78
    },
    {
      "midi": 61,
      "hit": false,
      "t": 77480.15999999999,
      "d": 1894.6812500000087,
      "v": 105
    },
    {
      "midi": 59,
      "hit": false,
      "t": 79369.92,
      "d": 4.921249999999418,
      "v": 73
    },
    {
      "midi": 71,
      "hit": false,
      "t": 79369.92,
      "d": 1931.590624999997,
      "v": 82
    },
    {
      "midi": 66,
      "hit": false,
      "t": 79369.92,
      "d": 1943.893750000003,
      "v": 86
    },
    {
      "midi": 63,
      "hit": false,
      "t": 79369.92,
      "d": 1946.35437500001,
      "v": 90
    },
    {
      "midi": 56,
      "hit": false,
      "t": 81259.68,
      "d": 905.5100000000239,
      "v": 75
    },
    {
      "midi": 61,
      "hit": false,
      "t": 81259.68,
      "d": 910.4312500000378,
      "v": 72
    },
    {
      "midi": 68,
      "hit": false,
      "t": 81259.68,
      "d": 912.8918750000448,
      "v": 78
    },
    {
      "midi": 66,
      "hit": false,
      "t": 81968.34000000001,
      "d": 199.3106250000128,
      "v": 84
    },
    {
      "midi": 56,
      "hit": false,
      "t": 82204.56000000004,
      "d": 915.3524999999936,
      "v": 67
    },
    {
      "midi": 61,
      "hit": false,
      "t": 82204.56000000004,
      "d": 915.3524999999936,
      "v": 88
    },
    {
      "midi": 64,
      "hit": false,
      "t": 82204.56000000004,
      "d": 915.3524999999936,
      "v": 73
    },
    {
      "midi": 68,
      "hit": false,
      "t": 82204.56000000004,
      "d": 915.3524999999936,
      "v": 75
    },
    {
      "midi": 61,
      "hit": false,
      "t": 83149.44000000003,
      "d": 1870.074999999997,
      "v": 72
    },
    {
      "midi": 56,
      "hit": false,
      "t": 83149.44000000003,
      "d": 1884.8387499999953,
      "v": 76
    },
    {
      "midi": 52,
      "hit": false,
      "t": 83149.44000000003,
      "d": 1889.7599999999948,
      "v": 57
    },
    {
      "midi": 69,
      "hit": false,
      "t": 85039.20000000003,
      "d": 1619.0912499999977,
      "v": 76
    },
    {
      "midi": 68,
      "hit": false,
      "t": 85039.20000000003,
      "d": 1621.5518750000047,
      "v": 71
    },
    {
      "midi": 64,
      "hit": false,
      "t": 85039.20000000003,
      "d": 2595.959375000006,
      "v": 84
    },
    {
      "midi": 42,
      "hit": false,
      "t": 85039.20000000003,
      "d": 3740.1500000000087,
      "v": 91
    },
    {
      "midi": 69,
      "hit": false,
      "t": 86692.74000000003,
      "d": 917.8131250000006,
      "v": 84
    },
    {
      "midi": 68,
      "hit": false,
      "t": 86692.74000000003,
      "d": 922.734375,
      "v": 76
    },
    {
      "midi": 76,
      "hit": false,
      "t": 86692.74000000003,
      "d": 1975.8818750000064,
      "v": 91
    },
    {
      "midi": 64,
      "hit": false,
      "t": 87637.62000000004,
      "d": 1141.729999999996,
      "v": 89
    },
    {
      "midi": 69,
      "hit": false,
      "t": 87637.62000000004,
      "d": 1158.9543750000012,
      "v": 97
    },
    {
      "midi": 71,
      "hit": false,
      "t": 87637.62000000004,
      "d": 1158.9543750000012,
      "v": 97
    },
    {
      "midi": 61,
      "hit": false,
      "t": 88818.72000000004,
      "d": 1628.9337499999965,
      "v": 90
    },
    {
      "midi": 68,
      "hit": false,
      "t": 88818.72000000004,
      "d": 1636.315625000003,
      "v": 83
    },
    {
      "midi": 64,
      "hit": false,
      "t": 88818.72000000004,
      "d": 1638.77625000001,
      "v": 89
    },
    {
      "midi": 49,
      "hit": false,
      "t": 88818.72000000004,
      "d": 3641.725000000035,
      "v": 79
    },
    {
      "midi": 76,
      "hit": false,
      "t": 90472.26000000005,
      "d": 433.070000000007,
      "v": 93
    },
    {
      "midi": 80,
      "hit": false,
      "t": 90472.26000000005,
      "d": 437.9912500000064,
      "v": 92
    },
    {
      "midi": 75,
      "hit": false,
      "t": 90472.26000000005,
      "d": 450.2943750000122,
      "v": 87
    },
    {
      "midi": 71,
      "hit": false,
      "t": 90472.26000000005,
      "d": 469.9793750000099,
      "v": 89
    },
    {
      "midi": 68,
      "hit": false,
      "t": 90944.70000000007,
      "d": 447.83375000000524,
      "v": 96
    },
    {
      "midi": 64,
      "hit": false,
      "t": 90944.70000000007,
      "d": 450.2943750000122,
      "v": 89
    },
    {
      "midi": 73,
      "hit": false,
      "t": 90944.70000000007,
      "d": 450.2943750000122,
      "v": 104
    },
    {
      "midi": 64,
      "hit": false,
      "t": 91417.14000000009,
      "d": 1131.887499999997,
      "v": 90
    },
    {
      "midi": 61,
      "hit": false,
      "t": 91417.14000000009,
      "d": 1156.4937499999942,
      "v": 92
    },
    {
      "midi": 56,
      "hit": false,
      "t": 91417.14000000009,
      "d": 1171.2574999999924,
      "v": 87
    },
    {
      "midi": 61,
      "hit": false,
      "t": 92598.24000000008,
      "d": 669.2899999999936,
      "v": 104
    },
    {
      "midi": 66,
      "hit": false,
      "t": 92598.24000000008,
      "d": 1215.5487499999872,
      "v": 104
    },
    {
      "midi": 69,
      "hit": false,
      "t": 92598.24000000008,
      "d": 1230.3124999999854,
      "v": 83
    },
    {
      "midi": 54,
      "hit": false,
      "t": 93306.90000000007,
      "d": 1158.9543750000012,
      "v": 91
    },
    {
      "midi": 61,
      "hit": false,
      "t": 93306.90000000007,
      "d": 1158.9543750000012,
      "v": 117
    },
    {
      "midi": 59,
      "hit": false,
      "t": 94488.00000000007,
      "d": 652.0656250000029,
      "v": 84
    },
    {
      "midi": 63,
      "hit": false,
      "t": 94488.00000000007,
      "d": 696.3568749999977,
      "v": 104
    },
    {
      "midi": 66,
      "hit": false,
      "t": 94488.00000000007,
      "d": 696.3568749999977,
      "v": 102
    },
    {
      "midi": 54,
      "hit": false,
      "t": 95196.66000000008,
      "d": 437.9912500000064,
      "v": 82
    },
    {
      "midi": 59,
      "hit": false,
      "t": 95196.66000000008,
      "d": 437.9912500000064,
      "v": 97
    },
    {
      "midi": 63,
      "hit": false,
      "t": 95196.66000000008,
      "d": 437.9912500000064,
      "v": 93
    },
    {
      "midi": 59,
      "hit": false,
      "t": 95669.10000000008,
      "d": 666.8293750000012,
      "v": 93
    },
    {
      "midi": 54,
      "hit": false,
      "t": 95669.10000000008,
      "d": 691.4356249999983,
      "v": 90
    },
    {
      "midi": 63,
      "hit": false,
      "t": 95669.10000000008,
      "d": 696.3568749999977,
      "v": 83
    },
    {
      "midi": 56,
      "hit": false,
      "t": 96377.76000000008,
      "d": 716.0418750000099,
      "v": 91
    },
    {
      "midi": 61,
      "hit": false,
      "t": 96377.76000000008,
      "d": 718.5025000000169,
      "v": 94
    },
    {
      "midi": 53,
      "hit": false,
      "t": 96377.76000000008,
      "d": 743.108750000014,
      "v": 79
    },
    {
      "midi": 65,
      "hit": false,
      "t": 97086.42000000009,
      "d": 1149.1118750000169,
      "v": 88
    },
    {
      "midi": 73,
      "hit": false,
      "t": 97086.42000000009,
      "d": 1210.6275000000169,
      "v": 113
    },
    {
      "midi": 68,
      "hit": false,
      "t": 97086.42000000009,
      "d": 1227.8518750000221,
      "v": 95
    },
    {
      "midi": 90,
      "hit": false,
      "t": 98267.5200000001,
      "d": 187.00750000000698,
      "v": 73
    },
    {
      "midi": 65,
      "hit": false,
      "t": 98267.5200000001,
      "d": 1874.9962499999965,
      "v": 105
    },
    {
      "midi": 61,
      "hit": false,
      "t": 98267.5200000001,
      "d": 1882.378125000003,
      "v": 107
    },
    {
      "midi": 56,
      "hit": false,
      "t": 98267.5200000001,
      "d": 1906.9843750000146,
      "v": 93
    },
    {
      "midi": 89,
      "hit": false,
      "t": 98385.6300000001,
      "d": 127.95249999999942,
      "v": 76
    },
    {
      "midi": 85,
      "hit": false,
      "t": 98503.7400000001,
      "d": 1594.4850000000006,
      "v": 76
    },
    {
      "midi": 58,
      "hit": false,
      "t": 100157.28000000012,
      "d": 1840.5475000000006,
      "v": 86
    },
    {
      "midi": 54,
      "hit": false,
      "t": 100157.28000000012,
      "d": 1845.46875,
      "v": 92
    },
    {
      "midi": 49,
      "hit": false,
      "t": 100157.28000000012,
      "d": 1850.3899999999994,
      "v": 101
    },
    {
      "midi": 56,
      "hit": false,
      "t": 102047.04000000011,
      "d": 1857.7718750000058,
      "v": 92
    },
    {
      "midi": 49,
      "hit": false,
      "t": 102047.04000000011,
      "d": 1867.6143750000047,
      "v": 95
    },
    {
      "midi": 53,
      "hit": false,
      "t": 102047.04000000011,
      "d": 1877.4568750000035,
      "v": 83
    },
    {
      "midi": 54,
      "hit": false,
      "t": 103936.80000000012,
      "d": 1830.7050000000017,
      "v": 95
    },
    {
      "midi": 58,
      "hit": false,
      "t": 103936.80000000012,
      "d": 1870.074999999997,
      "v": 97
    },
    {
      "midi": 51,
      "hit": false,
      "t": 103936.80000000012,
      "d": 1887.2993750000023,
      "v": 88
    },
    {
      "midi": 47,
      "hit": false,
      "t": 105826.56000000013,
      "d": 1867.6143750000047,
      "v": 89
    },
    {
      "midi": 51,
      "hit": false,
      "t": 105826.56000000013,
      "d": 1867.6143750000047,
      "v": 88
    },
    {
      "midi": 54,
      "hit": false,
      "t": 105826.56000000013,
      "d": 1867.6143750000047,
      "v": 90
    },
    {
      "midi": 58,
      "hit": false,
      "t": 107716.32000000014,
      "d": 1840.5475000000006,
      "v": 89
    },
    {
      "midi": 54,
      "hit": false,
      "t": 107716.32000000014,
      "d": 1845.46875,
      "v": 95
    },
    {
      "midi": 49,
      "hit": false,
      "t": 107716.32000000014,
      "d": 1850.3899999999994,
      "v": 95
    },
    {
      "midi": 66,
      "hit": false,
      "t": 108188.76,
      "d": 1651.0793750000012,
      "v": 1
    },
    {
      "midi": 56,
      "hit": false,
      "t": 109606.08000000013,
      "d": 1857.7718750000058,
      "v": 97
    },
    {
      "midi": 49,
      "hit": false,
      "t": 109606.08000000013,
      "d": 1867.6143750000047,
      "v": 91
    },
    {
      "midi": 53,
      "hit": false,
      "t": 109606.08000000013,
      "d": 1877.4568750000035,
      "v": 88
    },
    {
      "midi": 65,
      "hit": false,
      "t": 109842.3,
      "d": 1414.859375,
      "v": 1
    },
    {
      "midi": 66,
      "hit": false,
      "t": 111259.62000000001,
      "d": 233.75937499999418,
      "v": 1
    },
    {
      "midi": 65,
      "hit": false,
      "t": 111495.84000000001,
      "d": 469.97937499999534,
      "v": 1
    },
    {
      "midi": 54,
      "hit": false,
      "t": 111495.84000000014,
      "d": 1830.7050000000017,
      "v": 94
    },
    {
      "midi": 58,
      "hit": false,
      "t": 111495.84000000014,
      "d": 1870.074999999997,
      "v": 96
    },
    {
      "midi": 51,
      "hit": false,
      "t": 111495.84000000014,
      "d": 1887.2993750000023,
      "v": 89
    },
    {
      "midi": 63,
      "hit": false,
      "t": 111968.28000000001,
      "d": 1409.9381250000006,
      "v": 1
    },
    {
      "midi": 47,
      "hit": false,
      "t": 113385.60000000015,
      "d": 1867.6143750000047,
      "v": 90
    },
    {
      "midi": 51,
      "hit": false,
      "t": 113385.60000000015,
      "d": 1867.6143750000047,
      "v": 89
    },
    {
      "midi": 54,
      "hit": false,
      "t": 113385.60000000015,
      "d": 1867.6143750000047,
      "v": 92
    },
    {
      "midi": 58,
      "hit": false,
      "t": 115275.36000000016,
      "d": 1840.5475000000006,
      "v": 89
    },
    {
      "midi": 54,
      "hit": false,
      "t": 115275.36000000016,
      "d": 1845.46875,
      "v": 92
    },
    {
      "midi": 49,
      "hit": false,
      "t": 115275.36000000016,
      "d": 1850.3899999999994,
      "v": 101
    },
    {
      "midi": 56,
      "hit": false,
      "t": 117165.12000000016,
      "d": 1857.7718750000058,
      "v": 93
    },
    {
      "midi": 49,
      "hit": false,
      "t": 117165.12000000016,
      "d": 1867.6143750000047,
      "v": 95
    },
    {
      "midi": 53,
      "hit": false,
      "t": 117165.12000000016,
      "d": 1877.4568750000035,
      "v": 85
    },
    {
      "midi": 54,
      "hit": false,
      "t": 119054.88000000016,
      "d": 1830.7050000000017,
      "v": 91
    },
    {
      "midi": 58,
      "hit": false,
      "t": 119054.88000000016,
      "d": 1870.074999999997,
      "v": 89
    },
    {
      "midi": 51,
      "hit": false,
      "t": 119054.88000000016,
      "d": 1887.2993750000023,
      "v": 90
    },
    {
      "midi": 47,
      "hit": false,
      "t": 120944.64000000017,
      "d": 1867.6143750000047,
      "v": 93
    },
    {
      "midi": 51,
      "hit": false,
      "t": 120944.64000000017,
      "d": 1867.6143750000047,
      "v": 89
    },
    {
      "midi": 54,
      "hit": false,
      "t": 120944.64000000017,
      "d": 1867.6143750000047,
      "v": 90
    },
    {
      "midi": 58,
      "hit": false,
      "t": 122834.40000000018,
      "d": 1840.5475000000006,
      "v": 91
    },
    {
      "midi": 54,
      "hit": false,
      "t": 122834.40000000018,
      "d": 1845.46875,
      "v": 96
    },
    {
      "midi": 49,
      "hit": false,
      "t": 122834.40000000018,
      "d": 1850.3899999999994,
      "v": 98
    },
    {
      "midi": 66,
      "hit": false,
      "t": 123306.84000000001,
      "d": 1651.0793750000012,
      "v": 1
    },
    {
      "midi": 56,
      "hit": false,
      "t": 124724.16000000018,
      "d": 1857.7718750000058,
      "v": 97
    },
    {
      "midi": 49,
      "hit": false,
      "t": 124724.16000000018,
      "d": 1867.6143750000047,
      "v": 91
    },
    {
      "midi": 53,
      "hit": false,
      "t": 124724.16000000018,
      "d": 1877.4568750000035,
      "v": 82
    },
    {
      "midi": 65,
      "hit": false,
      "t": 124960.38000000002,
      "d": 1414.859375,
      "v": 1
    },
    {
      "midi": 66,
      "hit": false,
      "t": 126377.70000000003,
      "d": 233.75937499999418,
      "v": 1
    },
    {
      "midi": 65,
      "hit": false,
      "t": 126613.92000000003,
      "d": 233.75937499999418,
      "v": 1
    },
    {
      "midi": 54,
      "hit": false,
      "t": 126613.92000000019,
      "d": 1830.7050000000017,
      "v": 95
    },
    {
      "midi": 58,
      "hit": false,
      "t": 126613.92000000019,
      "d": 1870.074999999997,
      "v": 94
    },
    {
      "midi": 51,
      "hit": false,
      "t": 126613.92000000019,
      "d": 1887.2993750000023,
      "v": 92
    },
    {
      "midi": 63,
      "hit": false,
      "t": 126850.14000000003,
      "d": 1173.7181249999994,
      "v": 1
    },
    {
      "midi": 47,
      "hit": false,
      "t": 128503.6800000002,
      "d": 1867.6143750000047,
      "v": 93
    },
    {
      "midi": 51,
      "hit": false,
      "t": 128503.6800000002,
      "d": 1867.6143750000047,
      "v": 92
    },
    {
      "midi": 54,
      "hit": false,
      "t": 128503.6800000002,
      "d": 1867.6143750000047,
      "v": 91
    },
    {
      "midi": 70,
      "hit": false,
      "t": 130393.44000000003,
      "d": 1414.859375,
      "v": 1
    },
    {
      "midi": 59,
      "hit": false,
      "t": 130393.4400000002,
      "d": 3759.834999999992,
      "v": 98
    },
    {
      "midi": 63,
      "hit": false,
      "t": 130393.4400000002,
      "d": 3759.834999999992,
      "v": 101
    },
    {
      "midi": 66,
      "hit": false,
      "t": 130393.4400000002,
      "d": 3759.834999999992,
      "v": 94
    },
    {
      "midi": 68,
      "hit": false,
      "t": 131810.76000000004,
      "d": 233.75937499999418,
      "v": 1
    },
    {
      "midi": 71,
      "hit": false,
      "t": 132046.98000000004,
      "d": 706.1993749999965,
      "v": 1
    },
    {
      "midi": 70,
      "hit": false,
      "t": 132755.64000000004,
      "d": 233.75937499999418,
      "v": 1
    },
    {
      "midi": 68,
      "hit": false,
      "t": 132991.86000000004,
      "d": 706.1993749999965,
      "v": 1
    },
    {
      "midi": 66,
      "hit": false,
      "t": 133700.52000000005,
      "d": 233.75937499999418,
      "v": 1
    },
    {
      "midi": 70,
      "hit": false,
      "t": 133936.74000000005,
      "d": 1651.0793750000012,
      "v": 1
    },
    {
      "midi": 54,
      "hit": false,
      "t": 134172.9600000002,
      "d": 3759.834999999992,
      "v": 101
    },
    {
      "midi": 58,
      "hit": false,
      "t": 134172.9600000002,
      "d": 3759.834999999992,
      "v": 103
    },
    {
      "midi": 63,
      "hit": false,
      "t": 134172.9600000002,
      "d": 3759.834999999992,
      "v": 85
    },
    {
      "midi": 68,
      "hit": false,
      "t": 135590.28000000006,
      "d": 233.75937499999418,
      "v": 1
    },
    {
      "midi": 71,
      "hit": false,
      "t": 135826.50000000006,
      "d": 706.1993749999965,
      "v": 1
    },
    {
      "midi": 70,
      "hit": false,
      "t": 136535.16000000006,
      "d": 233.75937499999418,
      "v": 1
    },
    {
      "midi": 68,
      "hit": false,
      "t": 136771.38000000006,
      "d": 706.1993749999965,
      "v": 1
    },
    {
      "midi": 66,
      "hit": false,
      "t": 137480.04000000007,
      "d": 233.75937499999418,
      "v": 1
    },
    {
      "midi": 70,
      "hit": false,
      "t": 137716.26000000007,
      "d": 1173.718125000014,
      "v": 1
    },
    {
      "midi": 59,
      "hit": false,
      "t": 137952.48000000019,
      "d": 1879.9175000000105,
      "v": 94
    },
    {
      "midi": 63,
      "hit": false,
      "t": 137952.48000000019,
      "d": 1879.9175000000105,
      "v": 101
    },
    {
      "midi": 66,
      "hit": false,
      "t": 137952.48000000019,
      "d": 1879.9175000000105,
      "v": 96
    },
    {
      "midi": 56,
      "hit": false,
      "t": 139849.6218750002,
      "d": 1872.5356250000477,
      "v": 88
    },
    {
      "midi": 63,
      "hit": false,
      "t": 139852.0825000002,
      "d": 1862.6931250000198,
      "v": 93
    },
    {
      "midi": 61,
      "hit": false,
      "t": 139854.5431250002,
      "d": 1865.1537500000268,
      "v": 88
    },
    {
      "midi": 65,
      "hit": false,
      "t": 139854.5431250002,
      "d": 1872.5356250000477,
      "v": 93
    },
    {
      "midi": 63,
      "hit": false,
      "t": 141732.00000000026,
      "d": 3127.454375000001,
      "v": 89
    },
    {
      "midi": 58,
      "hit": false,
      "t": 141732.00000000026,
      "d": 3137.296875,
      "v": 89
    },
    {
      "midi": 59,
      "hit": false,
      "t": 145511.52000000025,
      "d": 3725.3862500000105,
      "v": 81
    },
    {
      "midi": 56,
      "hit": false,
      "t": 145511.52000000025,
      "d": 3769.67750000002,
      "v": 90
    },
    {
      "midi": 63,
      "hit": false,
      "t": 149291.04000000027,
      "d": 3737.689374999987,
      "v": 90
    },
    {
      "midi": 58,
      "hit": false,
      "t": 149291.04000000027,
      "d": 3745.071249999979,
      "v": 78
    },
    {
      "midi": 66,
      "hit": false,
      "t": 154605.99000000025,
      "d": 295.2749999999942,
      "v": 111
    },
    {
      "midi": 63,
      "hit": false,
      "t": 154605.99000000025,
      "d": 307.578125,
      "v": 112
    },
    {
      "midi": 65,
      "hit": false,
      "t": 154960.32000000024,
      "d": 1294.288750000007,
      "v": 93
    },
    {
      "midi": 68,
      "hit": false,
      "t": 154960.32000000024,
      "d": 1296.749375000014,
      "v": 106
    },
    {
      "midi": 67,
      "hit": false,
      "t": 156850.08000000025,
      "d": 3346.4500000000116,
      "v": 87
    },
    {
      "midi": 63,
      "hit": false,
      "t": 156850.08000000025,
      "d": 3351.3712500000256,
      "v": 105
    },
    {
      "midi": 80,
      "hit": false,
      "t": 159372.22062500025,
      "d": 152.5587499999965,
      "v": 81
    },
    {
      "midi": 82,
      "hit": false,
      "t": 159517.39750000025,
      "d": 152.5587499999965,
      "v": 75
    },
    {
      "midi": 84,
      "hit": false,
      "t": 159679.79875000025,
      "d": 964.5650000000314,
      "v": 87
    },
    {
      "midi": 60,
      "hit": false,
      "t": 160629.60000000027,
      "d": 1840.5475000000151,
      "v": 91
    },
    {
      "midi": 56,
      "hit": false,
      "t": 160629.60000000027,
      "d": 1845.468750000029,
      "v": 95
    },
    {
      "midi": 51,
      "hit": false,
      "t": 160629.60000000027,
      "d": 1850.390000000043,
      "v": 100
    },
    {
      "midi": 58,
      "hit": false,
      "t": 162519.3600000003,
      "d": 1857.7718750000058,
      "v": 94
    },
    {
      "midi": 51,
      "hit": false,
      "t": 162519.3600000003,
      "d": 1867.6143750000047,
      "v": 94
    },
    {
      "midi": 55,
      "hit": false,
      "t": 162519.3600000003,
      "d": 1877.4568750000035,
      "v": 89
    },
    {
      "midi": 56,
      "hit": false,
      "t": 164409.12000000032,
      "d": 1830.7049999999872,
      "v": 93
    },
    {
      "midi": 60,
      "hit": false,
      "t": 164409.12000000032,
      "d": 1870.0749999999825,
      "v": 90
    },
    {
      "midi": 53,
      "hit": false,
      "t": 164409.12000000032,
      "d": 1887.2993749999732,
      "v": 94
    },
    {
      "midi": 49,
      "hit": false,
      "t": 166298.8800000003,
      "d": 1867.6143750000047,
      "v": 90
    },
    {
      "midi": 53,
      "hit": false,
      "t": 166298.8800000003,
      "d": 1867.6143750000047,
      "v": 92
    },
    {
      "midi": 56,
      "hit": false,
      "t": 166298.8800000003,
      "d": 1867.6143750000047,
      "v": 91
    },
    {
      "midi": 60,
      "hit": false,
      "t": 168188.6400000003,
      "d": 1840.547499999986,
      "v": 87
    },
    {
      "midi": 56,
      "hit": false,
      "t": 168188.6400000003,
      "d": 1845.46875,
      "v": 89
    },
    {
      "midi": 51,
      "hit": false,
      "t": 168188.6400000003,
      "d": 1850.390000000014,
      "v": 100
    },
    {
      "midi": 68,
      "hit": false,
      "t": 168661.08000000007,
      "d": 1887.2993750000023,
      "v": 1
    },
    {
      "midi": 58,
      "hit": false,
      "t": 170078.4000000003,
      "d": 1857.7718750000058,
      "v": 91
    },
    {
      "midi": 51,
      "hit": false,
      "t": 170078.4000000003,
      "d": 1867.6143750000047,
      "v": 89
    },
    {
      "midi": 55,
      "hit": false,
      "t": 170078.4000000003,
      "d": 1877.4568750000035,
      "v": 85
    },
    {
      "midi": 67,
      "hit": false,
      "t": 170314.62000000008,
      "d": 1414.859375,
      "v": 1
    },
    {
      "midi": 68,
      "hit": false,
      "t": 171731.9400000001,
      "d": 233.75937499999418,
      "v": 1
    },
    {
      "midi": 67,
      "hit": false,
      "t": 171968.1600000001,
      "d": 469.97937499999534,
      "v": 1
    },
    {
      "midi": 56,
      "hit": false,
      "t": 171968.16000000032,
      "d": 1830.7049999999872,
      "v": 93
    },
    {
      "midi": 60,
      "hit": false,
      "t": 171968.16000000032,
      "d": 1870.0749999999825,
      "v": 93
    },
    {
      "midi": 53,
      "hit": false,
      "t": 171968.16000000032,
      "d": 1887.2993749999732,
      "v": 95
    },
    {
      "midi": 65,
      "hit": false,
      "t": 172440.6000000001,
      "d": 1409.938124999986,
      "v": 1
    },
    {
      "midi": 49,
      "hit": false,
      "t": 173857.9200000003,
      "d": 1867.6143750000047,
      "v": 89
    },
    {
      "midi": 53,
      "hit": false,
      "t": 173857.9200000003,
      "d": 1867.6143750000047,
      "v": 89
    },
    {
      "midi": 56,
      "hit": false,
      "t": 173857.9200000003,
      "d": 1867.6143750000047,
      "v": 96
    },
    {
      "midi": 60,
      "hit": false,
      "t": 175747.6800000003,
      "d": 1840.547499999986,
      "v": 89
    },
    {
      "midi": 56,
      "hit": false,
      "t": 175747.6800000003,
      "d": 1845.46875,
      "v": 94
    },
    {
      "midi": 51,
      "hit": false,
      "t": 175747.6800000003,
      "d": 1850.390000000014,
      "v": 96
    },
    {
      "midi": 58,
      "hit": false,
      "t": 177637.44000000032,
      "d": 1857.7718750000058,
      "v": 93
    },
    {
      "midi": 51,
      "hit": false,
      "t": 177637.44000000032,
      "d": 1867.6143750000047,
      "v": 89
    },
    {
      "midi": 55,
      "hit": false,
      "t": 177637.44000000032,
      "d": 1877.4568750000035,
      "v": 84
    },
    {
      "midi": 56,
      "hit": false,
      "t": 179527.20000000033,
      "d": 1830.7049999999872,
      "v": 88
    },
    {
      "midi": 60,
      "hit": false,
      "t": 179527.20000000033,
      "d": 1870.0749999999825,
      "v": 89
    },
    {
      "midi": 53,
      "hit": false,
      "t": 179527.20000000033,
      "d": 1887.2993749999732,
      "v": 93
    },
    {
      "midi": 49,
      "hit": false,
      "t": 181416.9600000003,
      "d": 1867.6143750000047,
      "v": 91
    },
    {
      "midi": 53,
      "hit": false,
      "t": 181416.9600000003,
      "d": 1867.6143750000047,
      "v": 92
    },
    {
      "midi": 56,
      "hit": false,
      "t": 181416.9600000003,
      "d": 1867.6143750000047,
      "v": 92
    },
    {
      "midi": 60,
      "hit": false,
      "t": 183306.72000000032,
      "d": 1840.547499999986,
      "v": 88
    },
    {
      "midi": 56,
      "hit": false,
      "t": 183306.72000000032,
      "d": 1845.46875,
      "v": 95
    },
    {
      "midi": 51,
      "hit": false,
      "t": 183306.72000000032,
      "d": 1850.390000000014,
      "v": 99
    },
    {
      "midi": 68,
      "hit": false,
      "t": 183779.1600000001,
      "d": 1651.0793750000012,
      "v": 1
    },
    {
      "midi": 58,
      "hit": false,
      "t": 185196.48000000033,
      "d": 1857.7718750000058,
      "v": 96
    },
    {
      "midi": 51,
      "hit": false,
      "t": 185196.48000000033,
      "d": 1867.6143750000047,
      "v": 95
    },
    {
      "midi": 55,
      "hit": false,
      "t": 185196.48000000033,
      "d": 1877.4568750000035,
      "v": 89
    },
    {
      "midi": 67,
      "hit": false,
      "t": 185432.7000000001,
      "d": 1414.859375,
      "v": 1
    },
    {
      "midi": 68,
      "hit": false,
      "t": 186850.0200000001,
      "d": 233.75937499999418,
      "v": 1
    },
    {
      "midi": 67,
      "hit": false,
      "t": 187086.2400000001,
      "d": 233.75937499999418,
      "v": 1
    },
    {
      "midi": 56,
      "hit": false,
      "t": 187086.24000000034,
      "d": 1830.7049999999872,
      "v": 94
    },
    {
      "midi": 60,
      "hit": false,
      "t": 187086.24000000034,
      "d": 1870.0749999999825,
      "v": 90
    },
    {
      "midi": 53,
      "hit": false,
      "t": 187086.24000000034,
      "d": 1887.2993749999732,
      "v": 90
    },
    {
      "midi": 65,
      "hit": false,
      "t": 187322.4600000001,
      "d": 1173.718125000014,
      "v": 1
    },
    {
      "midi": 49,
      "hit": false,
      "t": 188976.00000000032,
      "d": 1867.6143750000047,
      "v": 87
    },
    {
      "midi": 53,
      "hit": false,
      "t": 188976.00000000032,
      "d": 1867.6143750000047,
      "v": 95
    },
    {
      "midi": 56,
      "hit": false,
      "t": 188976.00000000032,
      "d": 1867.6143750000047,
      "v": 91
    },
    {
      "midi": 72,
      "hit": false,
      "t": 190865.76000000013,
      "d": 1414.859375,
      "v": 1
    },
    {
      "midi": 60,
      "hit": false,
      "t": 190865.76000000033,
      "d": 1840.547499999986,
      "v": 90
    },
    {
      "midi": 56,
      "hit": false,
      "t": 190865.76000000033,
      "d": 1845.46875,
      "v": 96
    },
    {
      "midi": 51,
      "hit": false,
      "t": 190865.76000000033,
      "d": 1850.390000000014,
      "v": 98
    },
    {
      "midi": 70,
      "hit": false,
      "t": 192283.08000000013,
      "d": 233.75937499999418,
      "v": 1
    },
    {
      "midi": 73,
      "hit": false,
      "t": 192519.30000000013,
      "d": 706.1993749999965,
      "v": 1
    },
    {
      "midi": 58,
      "hit": false,
      "t": 192755.52000000034,
      "d": 1857.7718750000058,
      "v": 94
    },
    {
      "midi": 51,
      "hit": false,
      "t": 192755.52000000034,
      "d": 1867.6143750000047,
      "v": 93
    },
    {
      "midi": 55,
      "hit": false,
      "t": 192755.52000000034,
      "d": 1877.4568750000035,
      "v": 89
    },
    {
      "midi": 72,
      "hit": false,
      "t": 193227.96000000014,
      "d": 233.75937499999418,
      "v": 1
    },
    {
      "midi": 70,
      "hit": false,
      "t": 193464.18000000014,
      "d": 706.1993749999965,
      "v": 1
    },
    {
      "midi": 68,
      "hit": false,
      "t": 194172.84000000014,
      "d": 233.75937499999418,
      "v": 1
    },
    {
      "midi": 72,
      "hit": false,
      "t": 194409.06000000014,
      "d": 1651.0793750000012,
      "v": 1
    },
    {
      "midi": 56,
      "hit": false,
      "t": 194645.28000000035,
      "d": 1830.7049999999872,
      "v": 91
    },
    {
      "midi": 60,
      "hit": false,
      "t": 194645.28000000035,
      "d": 1870.0749999999825,
      "v": 93
    },
    {
      "midi": 53,
      "hit": false,
      "t": 194645.28000000035,
      "d": 1887.2993749999732,
      "v": 89
    },
    {
      "midi": 70,
      "hit": false,
      "t": 196062.60000000015,
      "d": 233.75937499999418,
      "v": 1
    },
    {
      "midi": 73,
      "hit": false,
      "t": 196298.82000000015,
      "d": 706.1993749999965,
      "v": 1
    },
    {
      "midi": 49,
      "hit": false,
      "t": 196535.04000000033,
      "d": 1867.6143750000047,
      "v": 93
    },
    {
      "midi": 53,
      "hit": false,
      "t": 196535.04000000033,
      "d": 1867.6143750000047,
      "v": 93
    },
    {
      "midi": 56,
      "hit": false,
      "t": 196535.04000000033,
      "d": 1867.6143750000047,
      "v": 92
    },
    {
      "midi": 72,
      "hit": false,
      "t": 197007.48000000016,
      "d": 233.75937499999418,
      "v": 1
    },
    {
      "midi": 70,
      "hit": false,
      "t": 197243.70000000016,
      "d": 706.1993749999965,
      "v": 1
    },
    {
      "midi": 68,
      "hit": false,
      "t": 197952.36000000016,
      "d": 233.75937499999418,
      "v": 1
    },
    {
      "midi": 72,
      "hit": false,
      "t": 198188.58000000016,
      "d": 1173.718125000014,
      "v": 1
    },
    {
      "midi": 60,
      "hit": false,
      "t": 198424.80000000034,
      "d": 1840.547499999986,
      "v": 85
    },
    {
      "midi": 56,
      "hit": false,
      "t": 198424.80000000034,
      "d": 1845.46875,
      "v": 93
    },
    {
      "midi": 51,
      "hit": false,
      "t": 198424.80000000034,
      "d": 1850.390000000014,
      "v": 99
    },
    {
      "midi": 58,
      "hit": false,
      "t": 200314.56000000035,
      "d": 1857.7718750000058,
      "v": 92
    },
    {
      "midi": 51,
      "hit": false,
      "t": 200314.56000000035,
      "d": 1867.6143750000047,
      "v": 91
    },
    {
      "midi": 55,
      "hit": false,
      "t": 200314.56000000035,
      "d": 1877.4568750000035,
      "v": 88
    },
    {
      "midi": 56,
      "hit": false,
      "t": 202204.32000000036,
      "d": 1830.7049999999872,
      "v": 93
    },
    {
      "midi": 60,
      "hit": false,
      "t": 202204.32000000036,
      "d": 1870.0749999999825,
      "v": 94
    },
    {
      "midi": 53,
      "hit": false,
      "t": 202204.32000000036,
      "d": 1887.2993749999732,
      "v": 92
    },
    {
      "midi": 49,
      "hit": false,
      "t": 204094.08000000034,
      "d": 1867.6143750000047,
      "v": 92
    },
    {
      "midi": 53,
      "hit": false,
      "t": 204094.08000000034,
      "d": 1867.6143750000047,
      "v": 94
    },
    {
      "midi": 56,
      "hit": false,
      "t": 204094.08000000034,
      "d": 1867.6143750000047,
      "v": 90
    },
    {
      "midi": 72,
      "hit": false,
      "t": 205983.84000000017,
      "d": 1414.859375,
      "v": 1
    },
    {
      "midi": 60,
      "hit": false,
      "t": 205983.84000000035,
      "d": 1840.547499999986,
      "v": 87
    },
    {
      "midi": 56,
      "hit": false,
      "t": 205983.84000000035,
      "d": 1845.46875,
      "v": 96
    },
    {
      "midi": 51,
      "hit": false,
      "t": 205983.84000000035,
      "d": 1850.390000000014,
      "v": 102
    },
    {
      "midi": 70,
      "hit": false,
      "t": 207401.16000000018,
      "d": 233.75937499999418,
      "v": 1
    },
    {
      "midi": 73,
      "hit": false,
      "t": 207637.38000000018,
      "d": 706.1993749999965,
      "v": 1
    },
    {
      "midi": 58,
      "hit": false,
      "t": 207873.60000000036,
      "d": 1857.7718750000058,
      "v": 91
    },
    {
      "midi": 51,
      "hit": false,
      "t": 207873.60000000036,
      "d": 1867.6143750000047,
      "v": 91
    },
    {
      "midi": 55,
      "hit": false,
      "t": 207873.60000000036,
      "d": 1877.4568750000035,
      "v": 82
    },
    {
      "midi": 72,
      "hit": false,
      "t": 208346.04000000018,
      "d": 233.75937499999418,
      "v": 1
    },
    {
      "midi": 70,
      "hit": false,
      "t": 208582.26000000018,
      "d": 706.1993749999965,
      "v": 1
    },
    {
      "midi": 68,
      "hit": false,
      "t": 209290.9200000002,
      "d": 233.75937499999418,
      "v": 1
    },
    {
      "midi": 72,
      "hit": false,
      "t": 209527.1400000002,
      "d": 1651.0793750000012,
      "v": 1
    },
    {
      "midi": 56,
      "hit": false,
      "t": 209763.36000000036,
      "d": 1830.7049999999872,
      "v": 88
    },
    {
      "midi": 60,
      "hit": false,
      "t": 209763.36000000036,
      "d": 1870.0749999999825,
      "v": 96
    },
    {
      "midi": 53,
      "hit": false,
      "t": 209763.36000000036,
      "d": 1887.2993749999732,
      "v": 93
    },
    {
      "midi": 70,
      "hit": false,
      "t": 211180.6800000002,
      "d": 233.75937499999418,
      "v": 1
    },
    {
      "midi": 73,
      "hit": false,
      "t": 211416.9000000002,
      "d": 706.1993749999965,
      "v": 1
    },
    {
      "midi": 49,
      "hit": false,
      "t": 211653.12000000034,
      "d": 1867.6143750000047,
      "v": 90
    },
    {
      "midi": 53,
      "hit": false,
      "t": 211653.12000000034,
      "d": 1867.6143750000047,
      "v": 88
    },
    {
      "midi": 56,
      "hit": false,
      "t": 211653.12000000034,
      "d": 1867.6143750000047,
      "v": 93
    },
    {
      "midi": 72,
      "hit": false,
      "t": 212125.5600000002,
      "d": 233.75937499999418,
      "v": 1
    },
    {
      "midi": 70,
      "hit": false,
      "t": 212361.7800000002,
      "d": 706.1993749999965,
      "v": 1
    },
    {
      "midi": 68,
      "hit": false,
      "t": 213070.4400000002,
      "d": 233.75937499999418,
      "v": 1
    },
    {
      "midi": 72,
      "hit": false,
      "t": 213306.6600000002,
      "d": 1173.718125000014,
      "v": 1
    },
    {
      "midi": 60,
      "hit": false,
      "t": 213542.88000000035,
      "d": 1840.547499999986,
      "v": 88
    },
    {
      "midi": 56,
      "hit": false,
      "t": 213542.88000000035,
      "d": 1845.46875,
      "v": 93
    },
    {
      "midi": 51,
      "hit": false,
      "t": 213542.88000000035,
      "d": 1850.390000000014,
      "v": 100
    },
    {
      "midi": 58,
      "hit": false,
      "t": 215432.64000000036,
      "d": 1857.7718750000058,
      "v": 97
    },
    {
      "midi": 51,
      "hit": false,
      "t": 215432.64000000036,
      "d": 1867.6143750000047,
      "v": 96
    },
    {
      "midi": 55,
      "hit": false,
      "t": 215432.64000000036,
      "d": 1877.4568750000035,
      "v": 84
    },
    {
      "midi": 56,
      "hit": false,
      "t": 217322.40000000037,
      "d": 1830.7049999999872,
      "v": 90
    },
    {
      "midi": 60,
      "hit": false,
      "t": 217322.40000000037,
      "d": 1870.0749999999825,
      "v": 89
    },
    {
      "midi": 53,
      "hit": false,
      "t": 217322.40000000037,
      "d": 1887.2993749999732,
      "v": 95
    },
    {
      "midi": 49,
      "hit": false,
      "t": 219212.16000000035,
      "d": 1867.6143750000047,
      "v": 89
    },
    {
      "midi": 53,
      "hit": false,
      "t": 219212.16000000035,
      "d": 1867.6143750000047,
      "v": 89
    },
    {
      "midi": 56,
      "hit": false,
      "t": 219212.16000000035,
      "d": 1867.6143750000047,
      "v": 96
    },
    {
      "midi": 72,
      "hit": false,
      "t": 221101.92000000022,
      "d": 1414.859375,
      "v": 1
    },
    {
      "midi": 60,
      "hit": false,
      "t": 221101.92000000036,
      "d": 1840.547499999986,
      "v": 84
    },
    {
      "midi": 56,
      "hit": false,
      "t": 221101.92000000036,
      "d": 1845.46875,
      "v": 95
    },
    {
      "midi": 51,
      "hit": false,
      "t": 221101.92000000036,
      "d": 1850.390000000014,
      "v": 102
    },
    {
      "midi": 70,
      "hit": false,
      "t": 222519.24000000022,
      "d": 233.75937499999418,
      "v": 1
    },
    {
      "midi": 73,
      "hit": false,
      "t": 222755.46000000022,
      "d": 706.1993749999965,
      "v": 1
    },
    {
      "midi": 58,
      "hit": false,
      "t": 222991.68000000037,
      "d": 1857.7718750000058,
      "v": 95
    },
    {
      "midi": 51,
      "hit": false,
      "t": 222991.68000000037,
      "d": 1867.6143750000047,
      "v": 95
    },
    {
      "midi": 55,
      "hit": false,
      "t": 222991.68000000037,
      "d": 1877.4568750000035,
      "v": 82
    },
    {
      "midi": 72,
      "hit": false,
      "t": 223464.12000000023,
      "d": 233.75937499999418,
      "v": 1
    },
    {
      "midi": 70,
      "hit": false,
      "t": 223700.34000000023,
      "d": 706.1993749999965,
      "v": 1
    },
    {
      "midi": 68,
      "hit": false,
      "t": 224409.00000000023,
      "d": 233.75937499999418,
      "v": 1
    },
    {
      "midi": 72,
      "hit": false,
      "t": 224645.22000000023,
      "d": 1651.0793750000012,
      "v": 1
    },
    {
      "midi": 56,
      "hit": false,
      "t": 224881.44000000038,
      "d": 1830.7049999999872,
      "v": 88
    },
    {
      "midi": 60,
      "hit": false,
      "t": 224881.44000000038,
      "d": 1870.0749999999825,
      "v": 92
    },
    {
      "midi": 53,
      "hit": false,
      "t": 224881.44000000038,
      "d": 1887.2993749999732,
      "v": 91
    },
    {
      "midi": 70,
      "hit": false,
      "t": 226298.76000000024,
      "d": 233.75937499999418,
      "v": 1
    },
    {
      "midi": 73,
      "hit": false,
      "t": 226534.98000000024,
      "d": 706.1993749999965,
      "v": 1
    },
    {
      "midi": 49,
      "hit": false,
      "t": 226771.20000000036,
      "d": 1867.6143750000047,
      "v": 93
    },
    {
      "midi": 53,
      "hit": false,
      "t": 226771.20000000036,
      "d": 1867.6143750000047,
      "v": 88
    },
    {
      "midi": 56,
      "hit": false,
      "t": 226771.20000000036,
      "d": 1867.6143750000047,
      "v": 97
    },
    {
      "midi": 72,
      "hit": false,
      "t": 227243.64000000025,
      "d": 233.75937499999418,
      "v": 1
    },
    {
      "midi": 70,
      "hit": false,
      "t": 227479.86000000025,
      "d": 706.1993749999965,
      "v": 1
    },
    {
      "midi": 68,
      "hit": false,
      "t": 228188.52000000025,
      "d": 233.75937499999418,
      "v": 1
    },
    {
      "midi": 72,
      "hit": false,
      "t": 228424.74000000025,
      "d": 1178.6393749999988,
      "v": 1
    },
    {
      "midi": 60,
      "hit": false,
      "t": 228660.96000000037,
      "d": 1840.547499999986,
      "v": 91
    },
    {
      "midi": 56,
      "hit": false,
      "t": 228660.96000000037,
      "d": 1845.46875,
      "v": 89
    },
    {
      "midi": 51,
      "hit": false,
      "t": 228660.96000000037,
      "d": 1850.390000000014,
      "v": 97
    },
    {
      "midi": 58,
      "hit": false,
      "t": 230550.72000000038,
      "d": 1857.7718750000058,
      "v": 90
    },
    {
      "midi": 51,
      "hit": false,
      "t": 230550.72000000038,
      "d": 1867.6143750000047,
      "v": 93
    },
    {
      "midi": 55,
      "hit": false,
      "t": 230550.72000000038,
      "d": 1877.4568750000035,
      "v": 87
    },
    {
      "midi": 56,
      "hit": false,
      "t": 232440.4800000004,
      "d": 1830.7049999999872,
      "v": 89
    },
    {
      "midi": 60,
      "hit": false,
      "t": 232440.4800000004,
      "d": 1870.0749999999825,
      "v": 95
    },
    {
      "midi": 53,
      "hit": false,
      "t": 232440.4800000004,
      "d": 1887.2993749999732,
      "v": 93
    },
    {
      "midi": 49,
      "hit": false,
      "t": 234330.24000000037,
      "d": 1867.6143750000047,
      "v": 89
    },
    {
      "midi": 53,
      "hit": false,
      "t": 234330.24000000037,
      "d": 1867.6143750000047,
      "v": 90
    },
    {
      "midi": 56,
      "hit": false,
      "t": 234330.24000000037,
      "d": 1867.6143750000047,
      "v": 93
    },
    {
      "midi": 80,
      "hit": false,
      "t": 236692.44000000038,
      "d": 1407.4775000000081,
      "v": 77
    },
    {
      "midi": 87,
      "hit": false,
      "t": 236928.66000000038,
      "d": 1687.9887500000186,
      "v": 93
    },
    {
      "midi": 82,
      "hit": false,
      "t": 238582.2000000004,
      "d": 1407.4775000000081,
      "v": 79
    },
    {
      "midi": 87,
      "hit": false,
      "t": 238818.4200000004,
      "d": 1705.2131250000093,
      "v": 88
    },
    {
      "midi": 80,
      "hit": false,
      "t": 240471.9600000004,
      "d": 1407.4775000000081,
      "v": 74
    },
    {
      "midi": 87,
      "hit": false,
      "t": 240708.1800000004,
      "d": 2935.5256250000093,
      "v": 88
    },
    {
      "midi": 80,
      "hit": false,
      "t": 242361.7200000004,
      "d": 1879.9175000000105,
      "v": 78
    },
    {
      "midi": 75,
      "hit": false,
      "t": 242597.9400000004,
      "d": 1643.6975000000093,
      "v": 93
    },
    {
      "midi": 82,
      "hit": false,
      "t": 244251.48000000042,
      "d": 2864.1675000000105,
      "v": 76
    },
    {
      "midi": 87,
      "hit": false,
      "t": 244487.70000000042,
      "d": 1739.6618750000198,
      "v": 88
    },
    {
      "midi": 80,
      "hit": false,
      "t": 246141.24000000043,
      "d": 2864.1675000000105,
      "v": 80
    },
    {
      "midi": 87,
      "hit": false,
      "t": 246377.46000000043,
      "d": 2935.5256250000093,
      "v": 86
    }
  ]
}