{
  "jsonPath": "World/Hawaiian/Ray Kane/pua-sadinia-instrumental.json",
  "path": "World\\Hawaiian\\Ray Kane\\Pua Sadinia (Instrumental).mid",
  "name": "Pua Sadinia (Instrumental)",
  "difficulty": "Advanced",
  "bpm": 100,
  "notes": [
    {
      "midi": 42,
      "hit": false,
      "t": 2400,
      "d": 18.75,
      "v": 60
    },
    {
      "midi": 43,
      "hit": false,
      "t": 2400,
      "d": 2168.75,
      "v": 49
    },
    {
      "midi": 59,
      "hit": false,
      "t": 2700,
      "d": 306.25,
      "v": 48
    },
    {
      "midi": 62,
      "hit": false,
      "t": 3000,
      "d": 343.75,
      "v": 56
    },
    {
      "midi": 42,
      "hit": false,
      "t": 3006.25,
      "d": 18.75,
      "v": 56
    },
    {
      "midi": 67,
      "hit": false,
      "t": 3300,
      "d": 350,
      "v": 59
    },
    {
      "midi": 42,
      "hit": false,
      "t": 3600,
      "d": 25,
      "v": 62
    },
    {
      "midi": 71,
      "hit": false,
      "t": 3600,
      "d": 312.5,
      "v": 68
    },
    {
      "midi": 62,
      "hit": false,
      "t": 3900,
      "d": 337.5,
      "v": 58
    },
    {
      "midi": 42,
      "hit": false,
      "t": 4200,
      "d": 18.75,
      "v": 57
    },
    {
      "midi": 67,
      "hit": false,
      "t": 4200,
      "d": 325,
      "v": 64
    },
    {
      "midi": 46,
      "hit": false,
      "t": 4500,
      "d": 87.5,
      "v": 64
    },
    {
      "midi": 71,
      "hit": false,
      "t": 4500,
      "d": 293.75,
      "v": 68
    },
    {
      "midi": 35,
      "hit": false,
      "t": 4800,
      "d": 12.5,
      "v": 76
    },
    {
      "midi": 42,
      "hit": false,
      "t": 4800,
      "d": 25,
      "v": 58
    },
    {
      "midi": 43,
      "hit": false,
      "t": 4800,
      "d": 2168.75,
      "v": 58
    },
    {
      "midi": 59,
      "hit": false,
      "t": 5100,
      "d": 306.25,
      "v": 52
    },
    {
      "midi": 42,
      "hit": false,
      "t": 5106.25,
      "d": 25,
      "v": 58
    },
    {
      "midi": 62,
      "hit": false,
      "t": 5400,
      "d": 343.75,
      "v": 56
    },
    {
      "midi": 42,
      "hit": false,
      "t": 5406.25,
      "d": 18.75,
      "v": 60
    },
    {
      "midi": 67,
      "hit": false,
      "t": 5700,
      "d": 350,
      "v": 59
    },
    {
      "midi": 35,
      "hit": false,
      "t": 5706.25,
      "d": 12.5,
      "v": 61
    },
    {
      "midi": 42,
      "hit": false,
      "t": 5706.25,
      "d": 18.75,
      "v": 64
    },
    {
      "midi": 42,
      "hit": false,
      "t": 6000,
      "d": 25,
      "v": 58
    },
    {
      "midi": 71,
      "hit": false,
      "t": 6000,
      "d": 312.5,
      "v": 66
    },
    {
      "midi": 35,
      "hit": false,
      "t": 6006.25,
      "d": 12.5,
      "v": 70
    },
    {
      "midi": 62,
      "hit": false,
      "t": 6300,
      "d": 337.5,
      "v": 58
    },
    {
      "midi": 42,
      "hit": false,
      "t": 6306.25,
      "d": 18.75,
      "v": 61
    },
    {
      "midi": 42,
      "hit": false,
      "t": 6600,
      "d": 18.75,
      "v": 61
    },
    {
      "midi": 67,
      "hit": false,
      "t": 6600,
      "d": 325,
      "v": 64
    },
    {
      "midi": 71,
      "hit": false,
      "t": 6900,
      "d": 293.75,
      "v": 66
    },
    {
      "midi": 42,
      "hit": false,
      "t": 6906.25,
      "d": 18.75,
      "v": 63
    },
    {
      "midi": 35,
      "hit": false,
      "t": 7200,
      "d": 12.5,
      "v": 72
    },
    {
      "midi": 42,
      "hit": false,
      "t": 7200,
      "d": 18.75,
      "v": 64
    },
    {
      "midi": 43,
      "hit": false,
      "t": 7200,
      "d": 2218.75,
      "v": 68
    },
    {
      "midi": 59,
      "hit": false,
      "t": 7500,
      "d": 300,
      "v": 56
    },
    {
      "midi": 42,
      "hit": false,
      "t": 7512.5,
      "d": 18.75,
      "v": 65
    },
    {
      "midi": 42,
      "hit": false,
      "t": 7800,
      "d": 25,
      "v": 63
    },
    {
      "midi": 62,
      "hit": false,
      "t": 7800,
      "d": 331.25,
      "v": 58
    },
    {
      "midi": 42,
      "hit": false,
      "t": 8100,
      "d": 25,
      "v": 64
    },
    {
      "midi": 67,
      "hit": false,
      "t": 8100,
      "d": 325,
      "v": 66
    },
    {
      "midi": 35,
      "hit": false,
      "t": 8106.25,
      "d": 12.5,
      "v": 70
    },
    {
      "midi": 35,
      "hit": false,
      "t": 8400,
      "d": 12.5,
      "v": 73
    },
    {
      "midi": 71,
      "hit": false,
      "t": 8400,
      "d": 331.25,
      "v": 68
    },
    {
      "midi": 42,
      "hit": false,
      "t": 8406.25,
      "d": 25,
      "v": 64
    },
    {
      "midi": 42,
      "hit": false,
      "t": 8700,
      "d": 18.75,
      "v": 65
    },
    {
      "midi": 62,
      "hit": false,
      "t": 8700,
      "d": 343.75,
      "v": 58
    },
    {
      "midi": 67,
      "hit": false,
      "t": 9000,
      "d": 325,
      "v": 66
    },
    {
      "midi": 42,
      "hit": false,
      "t": 9006.25,
      "d": 25,
      "v": 61
    },
    {
      "midi": 71,
      "hit": false,
      "t": 9300,
      "d": 168.75,
      "v": 61
    },
    {
      "midi": 42,
      "hit": false,
      "t": 9306.25,
      "d": 25,
      "v": 68
    },
    {
      "midi": 55,
      "hit": false,
      "t": 9600,
      "d": 293.75,
      "v": 54
    },
    {
      "midi": 48,
      "hit": false,
      "t": 9600,
      "d": 2168.75,
      "v": 58
    },
    {
      "midi": 52,
      "hit": false,
      "t": 9900,
      "d": 306.25,
      "v": 52
    },
    {
      "midi": 42,
      "hit": false,
      "t": 9906.25,
      "d": 25,
      "v": 58
    },
    {
      "midi": 55,
      "hit": false,
      "t": 10200,
      "d": 343.75,
      "v": 56
    },
    {
      "midi": 42,
      "hit": false,
      "t": 10206.25,
      "d": 18.75,
      "v": 60
    },
    {
      "midi": 60,
      "hit": false,
      "t": 10500,
      "d": 350,
      "v": 59
    },
    {
      "midi": 35,
      "hit": false,
      "t": 10506.25,
      "d": 12.5,
      "v": 61
    },
    {
      "midi": 42,
      "hit": false,
      "t": 10506.25,
      "d": 18.75,
      "v": 64
    },
    {
      "midi": 42,
      "hit": false,
      "t": 10800,
      "d": 25,
      "v": 58
    },
    {
      "midi": 64,
      "hit": false,
      "t": 10800,
      "d": 312.5,
      "v": 66
    },
    {
      "midi": 35,
      "hit": false,
      "t": 10806.25,
      "d": 12.5,
      "v": 70
    },
    {
      "midi": 55,
      "hit": false,
      "t": 11100,
      "d": 337.5,
      "v": 58
    },
    {
      "midi": 42,
      "hit": false,
      "t": 11106.25,
      "d": 18.75,
      "v": 61
    },
    {
      "midi": 42,
      "hit": false,
      "t": 11400,
      "d": 18.75,
      "v": 61
    },
    {
      "midi": 60,
      "hit": false,
      "t": 11400,
      "d": 325,
      "v": 64
    },
    {
      "midi": 64,
      "hit": false,
      "t": 11700,
      "d": 293.75,
      "v": 66
    },
    {
      "midi": 42,
      "hit": false,
      "t": 11706.25,
      "d": 18.75,
      "v": 63
    },
    {
      "midi": 35,
      "hit": false,
      "t": 12000,
      "d": 12.5,
      "v": 72
    },
    {
      "midi": 42,
      "hit": false,
      "t": 12000,
      "d": 18.75,
      "v": 64
    },
    {
      "midi": 48,
      "hit": false,
      "t": 12000,
      "d": 2218.75,
      "v": 68
    },
    {
      "midi": 52,
      "hit": false,
      "t": 12300,
      "d": 300,
      "v": 56
    },
    {
      "midi": 42,
      "hit": false,
      "t": 12312.5,
      "d": 18.75,
      "v": 65
    },
    {
      "midi": 42,
      "hit": false,
      "t": 12600,
      "d": 25,
      "v": 63
    },
    {
      "midi": 55,
      "hit": false,
      "t": 12600,
      "d": 331.25,
      "v": 58
    },
    {
      "midi": 42,
      "hit": false,
      "t": 12900,
      "d": 25,
      "v": 64
    },
    {
      "midi": 60,
      "hit": false,
      "t": 12900,
      "d": 325,
      "v": 66
    },
    {
      "midi": 35,
      "hit": false,
      "t": 12906.25,
      "d": 12.5,
      "v": 70
    },
    {
      "midi": 35,
      "hit": false,
      "t": 13200,
      "d": 12.5,
      "v": 73
    },
    {
      "midi": 64,
      "hit": false,
      "t": 13200,
      "d": 331.25,
      "v": 68
    },
    {
      "midi": 42,
      "hit": false,
      "t": 13206.25,
      "d": 25,
      "v": 64
    },
    {
      "midi": 42,
      "hit": false,
      "t": 13500,
      "d": 18.75,
      "v": 65
    },
    {
      "midi": 55,
      "hit": false,
      "t": 13500,
      "d": 343.75,
      "v": 58
    },
    {
      "midi": 60,
      "hit": false,
      "t": 13800,
      "d": 325,
      "v": 66
    },
    {
      "midi": 42,
      "hit": false,
      "t": 13806.25,
      "d": 25,
      "v": 61
    },
    {
      "midi": 64,
      "hit": false,
      "t": 14100,
      "d": 168.75,
      "v": 61
    },
    {
      "midi": 42,
      "hit": false,
      "t": 14106.25,
      "d": 25,
      "v": 68
    },
    {
      "midi": 35,
      "hit": false,
      "t": 14400,
      "d": 12.5,
      "v": 76
    },
    {
      "midi": 42,
      "hit": false,
      "t": 14400,
      "d": 18.75,
      "v": 58
    },
    {
      "midi": 48,
      "hit": false,
      "t": 14400,
      "d": 18.75,
      "v": 58
    },
    {
      "midi": 62,
      "hit": false,
      "t": 14418.75,
      "d": 275,
      "v": 54
    },
    {
      "midi": 43,
      "hit": false,
      "t": 14418.75,
      "d": 2150,
      "v": 58
    },
    {
      "midi": 59,
      "hit": false,
      "t": 14700,
      "d": 306.25,
      "v": 52
    },
    {
      "midi": 42,
      "hit": false,
      "t": 14706.25,
      "d": 25,
      "v": 58
    },
    {
      "midi": 62,
      "hit": false,
      "t": 15000,
      "d": 343.75,
      "v": 56
    },
    {
      "midi": 42,
      "hit": false,
      "t": 15006.25,
      "d": 18.75,
      "v": 60
    },
    {
      "midi": 67,
      "hit": false,
      "t": 15300,
      "d": 350,
      "v": 59
    },
    {
      "midi": 35,
      "hit": false,
      "t": 15306.25,
      "d": 12.5,
      "v": 61
    },
    {
      "midi": 42,
      "hit": false,
      "t": 15306.25,
      "d": 18.75,
      "v": 64
    },
    {
      "midi": 42,
      "hit": false,
      "t": 15600,
      "d": 25,
      "v": 58
    },
    {
      "midi": 71,
      "hit": false,
      "t": 15600,
      "d": 312.5,
      "v": 66
    },
    {
      "midi": 35,
      "hit": false,
      "t": 15606.25,
      "d": 12.5,
      "v": 70
    },
    {
      "midi": 62,
      "hit": false,
      "t": 15900,
      "d": 337.5,
      "v": 58
    },
    {
      "midi": 42,
      "hit": false,
      "t": 15906.25,
      "d": 18.75,
      "v": 61
    },
    {
      "midi": 42,
      "hit": false,
      "t": 16200,
      "d": 18.75,
      "v": 61
    },
    {
      "midi": 67,
      "hit": false,
      "t": 16200,
      "d": 325,
      "v": 64
    },
    {
      "midi": 71,
      "hit": false,
      "t": 16500,
      "d": 293.75,
      "v": 66
    },
    {
      "midi": 42,
      "hit": false,
      "t": 16506.25,
      "d": 18.75,
      "v": 63
    },
    {
      "midi": 35,
      "hit": false,
      "t": 16800,
      "d": 12.5,
      "v": 72
    },
    {
      "midi": 42,
      "hit": false,
      "t": 16800,
      "d": 18.75,
      "v": 64
    },
    {
      "midi": 43,
      "hit": false,
      "t": 16800,
      "d": 2218.75,
      "v": 68
    },
    {
      "midi": 59,
      "hit": false,
      "t": 17100,
      "d": 300,
      "v": 56
    },
    {
      "midi": 42,
      "hit": false,
      "t": 17112.5,
      "d": 18.75,
      "v": 65
    },
    {
      "midi": 42,
      "hit": false,
      "t": 17400,
      "d": 25,
      "v": 63
    },
    {
      "midi": 62,
      "hit": false,
      "t": 17400,
      "d": 331.25,
      "v": 58
    },
    {
      "midi": 42,
      "hit": false,
      "t": 17700,
      "d": 25,
      "v": 64
    },
    {
      "midi": 67,
      "hit": false,
      "t": 17700,
      "d": 325,
      "v": 66
    },
    {
      "midi": 35,
      "hit": false,
      "t": 17706.25,
      "d": 12.5,
      "v": 70
    },
    {
      "midi": 35,
      "hit": false,
      "t": 18000,
      "d": 12.5,
      "v": 73
    },
    {
      "midi": 71,
      "hit": false,
      "t": 18000,
      "d": 331.25,
      "v": 68
    },
    {
      "midi": 42,
      "hit": false,
      "t": 18006.25,
      "d": 25,
      "v": 64
    },
    {
      "midi": 42,
      "hit": false,
      "t": 18300,
      "d": 18.75,
      "v": 65
    },
    {
      "midi": 62,
      "hit": false,
      "t": 18300,
      "d": 343.75,
      "v": 58
    },
    {
      "midi": 67,
      "hit": false,
      "t": 18600,
      "d": 325,
      "v": 66
    },
    {
      "midi": 42,
      "hit": false,
      "t": 18606.25,
      "d": 25,
      "v": 61
    },
    {
      "midi": 71,
      "hit": false,
      "t": 18900,
      "d": 168.75,
      "v": 61
    },
    {
      "midi": 42,
      "hit": false,
      "t": 18906.25,
      "d": 25,
      "v": 68
    },
    {
      "midi": 55,
      "hit": false,
      "t": 19187.5,
      "d": 12.5,
      "v": 54
    },
    {
      "midi": 35,
      "hit": false,
      "t": 19200,
      "d": 12.5,
      "v": 76
    },
    {
      "midi": 42,
      "hit": false,
      "t": 19200,
      "d": 25,
      "v": 58
    },
    {
      "midi": 48,
      "hit": false,
      "t": 19200,
      "d": 2168.75,
      "v": 58
    },
    {
      "midi": 52,
      "hit": false,
      "t": 19500,
      "d": 306.25,
      "v": 52
    },
    {
      "midi": 42,
      "hit": false,
      "t": 19506.25,
      "d": 25,
      "v": 58
    },
    {
      "midi": 55,
      "hit": false,
      "t": 19800,
      "d": 343.75,
      "v": 56
    },
    {
      "midi": 42,
      "hit": false,
      "t": 19806.25,
      "d": 18.75,
      "v": 60
    },
    {
      "midi": 60,
      "hit": false,
      "t": 20100,
      "d": 350,
      "v": 59
    },
    {
      "midi": 35,
      "hit": false,
      "t": 20106.25,
      "d": 12.5,
      "v": 61
    },
    {
      "midi": 42,
      "hit": false,
      "t": 20106.25,
      "d": 18.75,
      "v": 64
    },
    {
      "midi": 42,
      "hit": false,
      "t": 20400,
      "d": 25,
      "v": 58
    },
    {
      "midi": 64,
      "hit": false,
      "t": 20400,
      "d": 312.5,
      "v": 66
    },
    {
      "midi": 35,
      "hit": false,
      "t": 20406.25,
      "d": 12.5,
      "v": 70
    },
    {
      "midi": 55,
      "hit": false,
      "t": 20700,
      "d": 337.5,
      "v": 58
    },
    {
      "midi": 42,
      "hit": false,
      "t": 20706.25,
      "d": 18.75,
      "v": 61
    },
    {
      "midi": 42,
      "hit": false,
      "t": 21000,
      "d": 18.75,
      "v": 61
    },
    {
      "midi": 60,
      "hit": false,
      "t": 21000,
      "d": 325,
      "v": 64
    },
    {
      "midi": 64,
      "hit": false,
      "t": 21300,
      "d": 293.75,
      "v": 66
    },
    {
      "midi": 42,
      "hit": false,
      "t": 21306.25,
      "d": 18.75,
      "v": 63
    },
    {
      "midi": 35,
      "hit": false,
      "t": 21600,
      "d": 12.5,
      "v": 72
    },
    {
      "midi": 42,
      "hit": false,
      "t": 21600,
      "d": 18.75,
      "v": 64
    },
    {
      "midi": 48,
      "hit": false,
      "t": 21600,
      "d": 1181.25,
      "v": 68
    },
    {
      "midi": 52,
      "hit": false,
      "t": 21900,
      "d": 300,
      "v": 56
    },
    {
      "midi": 42,
      "hit": false,
      "t": 21912.5,
      "d": 18.75,
      "v": 65
    },
    {
      "midi": 42,
      "hit": false,
      "t": 22200,
      "d": 25,
      "v": 63
    },
    {
      "midi": 55,
      "hit": false,
      "t": 22200,
      "d": 331.25,
      "v": 58
    },
    {
      "midi": 42,
      "hit": false,
      "t": 22500,
      "d": 25,
      "v": 64
    },
    {
      "midi": 60,
      "hit": false,
      "t": 22500,
      "d": 281.25,
      "v": 66
    },
    {
      "midi": 35,
      "hit": false,
      "t": 22506.25,
      "d": 12.5,
      "v": 70
    },
    {
      "midi": 35,
      "hit": false,
      "t": 22800,
      "d": 12.5,
      "v": 73
    },
    {
      "midi": 64,
      "hit": false,
      "t": 22800,
      "d": 331.25,
      "v": 68
    },
    {
      "midi": 42,
      "hit": false,
      "t": 22806.25,
      "d": 25,
      "v": 64
    },
    {
      "midi": 42,
      "hit": false,
      "t": 23100,
      "d": 18.75,
      "v": 65
    },
    {
      "midi": 55,
      "hit": false,
      "t": 23100,
      "d": 343.75,
      "v": 58
    },
    {
      "midi": 42,
      "hit": false,
      "t": 23268.75,
      "d": 6.25,
      "v": 8
    },
    {
      "midi": 42,
      "hit": false,
      "t": 23312.5,
      "d": 6.25,
      "v": 9
    },
    {
      "midi": 42,
      "hit": false,
      "t": 23362.5,
      "d": 6.25,
      "v": 26
    },
    {
      "midi": 67,
      "hit": false,
      "t": 23400,
      "d": 168.75,
      "v": 65
    },
    {
      "midi": 60,
      "hit": false,
      "t": 23400,
      "d": 187.5,
      "v": 47
    },
    {
      "midi": 42,
      "hit": false,
      "t": 23406.25,
      "d": 25,
      "v": 60
    },
    {
      "midi": 42,
      "hit": false,
      "t": 23550,
      "d": 25,
      "v": 28
    },
    {
      "midi": 64,
      "hit": false,
      "t": 23550,
      "d": 168.75,
      "v": 61
    },
    {
      "midi": 60,
      "hit": false,
      "t": 23700,
      "d": 143.75,
      "v": 56
    },
    {
      "midi": 52,
      "hit": false,
      "t": 23700,
      "d": 300,
      "v": 34
    },
    {
      "midi": 35,
      "hit": false,
      "t": 23706.25,
      "d": 12.5,
      "v": 70
    },
    {
      "midi": 46,
      "hit": false,
      "t": 23706.25,
      "d": 25,
      "v": 64
    },
    {
      "midi": 55,
      "hit": false,
      "t": 23850,
      "d": 150,
      "v": 51
    },
    {
      "midi": 35,
      "hit": false,
      "t": 24000,
      "d": 12.5,
      "v": 76
    },
    {
      "midi": 42,
      "hit": false,
      "t": 24000,
      "d": 25,
      "v": 58
    },
    {
      "midi": 48,
      "hit": false,
      "t": 24000,
      "d": 25,
      "v": 58
    },
    {
      "midi": 62,
      "hit": false,
      "t": 24025,
      "d": 562.5,
      "v": 54
    },
    {
      "midi": 43,
      "hit": false,
      "t": 24025,
      "d": 2143.75,
      "v": 58
    },
    {
      "midi": 42,
      "hit": false,
      "t": 24306.25,
      "d": 25,
      "v": 58
    },
    {
      "midi": 62,
      "hit": false,
      "t": 24600,
      "d": 343.75,
      "v": 56
    },
    {
      "midi": 42,
      "hit": false,
      "t": 24606.25,
      "d": 18.75,
      "v": 60
    },
    {
      "midi": 67,
      "hit": false,
      "t": 24900,
      "d": 350,
      "v": 59
    },
    {
      "midi": 35,
      "hit": false,
      "t": 24906.25,
      "d": 12.5,
      "v": 61
    },
    {
      "midi": 42,
      "hit": false,
      "t": 24906.25,
      "d": 18.75,
      "v": 64
    },
    {
      "midi": 42,
      "hit": false,
      "t": 25200,
      "d": 25,
      "v": 58
    },
    {
      "midi": 71,
      "hit": false,
      "t": 25200,
      "d": 312.5,
      "v": 66
    },
    {
      "midi": 35,
      "hit": false,
      "t": 25206.25,
      "d": 12.5,
      "v": 70
    },
    {
      "midi": 62,
      "hit": false,
      "t": 25500,
      "d": 337.5,
      "v": 58
    },
    {
      "midi": 42,
      "hit": false,
      "t": 25506.25,
      "d": 18.75,
      "v": 61
    },
    {
      "midi": 42,
      "hit": false,
      "t": 25800,
      "d": 18.75,
      "v": 61
    },
    {
      "midi": 67,
      "hit": false,
      "t": 25800,
      "d": 325,
      "v": 64
    },
    {
      "midi": 71,
      "hit": false,
      "t": 26100,
      "d": 293.75,
      "v": 66
    },
    {
      "midi": 42,
      "hit": false,
      "t": 26106.25,
      "d": 18.75,
      "v": 63
    },
    {
      "midi": 35,
      "hit": false,
      "t": 26400,
      "d": 12.5,
      "v": 72
    },
    {
      "midi": 42,
      "hit": false,
      "t": 26400,
      "d": 18.75,
      "v": 64
    },
    {
      "midi": 43,
      "hit": false,
      "t": 26400,
      "d": 2218.75,
      "v": 68
    },
    {
      "midi": 59,
      "hit": false,
      "t": 26700,
      "d": 300,
      "v": 56
    },
    {
      "midi": 42,
      "hit": false,
      "t": 26712.5,
      "d": 18.75,
      "v": 65
    },
    {
      "midi": 42,
      "hit": false,
      "t": 27000,
      "d": 25,
      "v": 63
    },
    {
      "midi": 62,
      "hit": false,
      "t": 27000,
      "d": 331.25,
      "v": 58
    },
    {
      "midi": 42,
      "hit": false,
      "t": 27300,
      "d": 25,
      "v": 64
    },
    {
      "midi": 67,
      "hit": false,
      "t": 27300,
      "d": 325,
      "v": 66
    },
    {
      "midi": 35,
      "hit": false,
      "t": 27306.25,
      "d": 12.5,
      "v": 70
    },
    {
      "midi": 35,
      "hit": false,
      "t": 27600,
      "d": 12.5,
      "v": 73
    },
    {
      "midi": 71,
      "hit": false,
      "t": 27600,
      "d": 331.25,
      "v": 68
    },
    {
      "midi": 42,
      "hit": false,
      "t": 27606.25,
      "d": 25,
      "v": 64
    },
    {
      "midi": 42,
      "hit": false,
      "t": 27900,
      "d": 18.75,
      "v": 65
    },
    {
      "midi": 62,
      "hit": false,
      "t": 27900,
      "d": 343.75,
      "v": 58
    },
    {
      "midi": 67,
      "hit": false,
      "t": 28200,
      "d": 325,
      "v": 66
    },
    {
      "midi": 42,
      "hit": false,
      "t": 28206.25,
      "d": 25,
      "v": 61
    },
    {
      "midi": 71,
      "hit": false,
      "t": 28500,
      "d": 168.75,
      "v": 61
    },
    {
      "midi": 42,
      "hit": false,
      "t": 28506.25,
      "d": 25,
      "v": 68
    },
    {
      "midi": 35,
      "hit": false,
      "t": 28800,
      "d": 12.5,
      "v": 76
    },
    {
      "midi": 42,
      "hit": false,
      "t": 28800,
      "d": 25,
      "v": 58
    },
    {
      "midi": 43,
      "hit": false,
      "t": 28800,
      "d": 2168.75,
      "v": 58
    },
    {
      "midi": 59,
      "hit": false,
      "t": 29100,
      "d": 306.25,
      "v": 52
    },
    {
      "midi": 42,
      "hit": false,
      "t": 29106.25,
      "d": 25,
      "v": 58
    },
    {
      "midi": 62,
      "hit": false,
      "t": 29400,
      "d": 343.75,
      "v": 56
    },
    {
      "midi": 42,
      "hit": false,
      "t": 29406.25,
      "d": 18.75,
      "v": 60
    },
    {
      "midi": 67,
      "hit": false,
      "t": 29700,
      "d": 350,
      "v": 59
    },
    {
      "midi": 35,
      "hit": false,
      "t": 29706.25,
      "d": 12.5,
      "v": 61
    },
    {
      "midi": 42,
      "hit": false,
      "t": 29706.25,
      "d": 18.75,
      "v": 64
    },
    {
      "midi": 42,
      "hit": false,
      "t": 30000,
      "d": 25,
      "v": 58
    },
    {
      "midi": 71,
      "hit": false,
      "t": 30000,
      "d": 312.5,
      "v": 66
    },
    {
      "midi": 35,
      "hit": false,
      "t": 30006.25,
      "d": 12.5,
      "v": 70
    },
    {
      "midi": 62,
      "hit": false,
      "t": 30300,
      "d": 337.5,
      "v": 58
    },
    {
      "midi": 42,
      "hit": false,
      "t": 30306.25,
      "d": 18.75,
      "v": 61
    },
    {
      "midi": 42,
      "hit": false,
      "t": 30600,
      "d": 18.75,
      "v": 61
    },
    {
      "midi": 67,
      "hit": false,
      "t": 30600,
      "d": 325,
      "v": 64
    },
    {
      "midi": 71,
      "hit": false,
      "t": 30900,
      "d": 293.75,
      "v": 66
    },
    {
      "midi": 42,
      "hit": false,
      "t": 30906.25,
      "d": 18.75,
      "v": 63
    },
    {
      "midi": 35,
      "hit": false,
      "t": 31200,
      "d": 12.5,
      "v": 72
    },
    {
      "midi": 42,
      "hit": false,
      "t": 31200,
      "d": 18.75,
      "v": 64
    },
    {
      "midi": 43,
      "hit": false,
      "t": 31200,
      "d": 2218.75,
      "v": 68
    },
    {
      "midi": 59,
      "hit": false,
      "t": 31500,
      "d": 300,
      "v": 56
    },
    {
      "midi": 42,
      "hit": false,
      "t": 31512.5,
      "d": 18.75,
      "v": 65
    },
    {
      "midi": 42,
      "hit": false,
      "t": 31800,
      "d": 25,
      "v": 63
    },
    {
      "midi": 62,
      "hit": false,
      "t": 31800,
      "d": 331.25,
      "v": 58
    },
    {
      "midi": 42,
      "hit": false,
      "t": 32100,
      "d": 25,
      "v": 64
    },
    {
      "midi": 65,
      "hit": false,
      "t": 32100,
      "d": 325,
      "v": 66
    },
    {
      "midi": 35,
      "hit": false,
      "t": 32106.25,
      "d": 12.5,
      "v": 70
    },
    {
      "midi": 35,
      "hit": false,
      "t": 32400,
      "d": 12.5,
      "v": 73
    },
    {
      "midi": 71,
      "hit": false,
      "t": 32400,
      "d": 331.25,
      "v": 68
    },
    {
      "midi": 42,
      "hit": false,
      "t": 32406.25,
      "d": 25,
      "v": 64
    },
    {
      "midi": 42,
      "hit": false,
      "t": 32700,
      "d": 18.75,
      "v": 65
    },
    {
      "midi": 62,
      "hit": false,
      "t": 32700,
      "d": 343.75,
      "v": 58
    },
    {
      "midi": 65,
      "hit": false,
      "t": 33000,
      "d": 325,
      "v": 66
    },
    {
      "midi": 42,
      "hit": false,
      "t": 33006.25,
      "d": 25,
      "v": 61
    },
    {
      "midi": 71,
      "hit": false,
      "t": 33300,
      "d": 168.75,
      "v": 61
    },
    {
      "midi": 42,
      "hit": false,
      "t": 33306.25,
      "d": 25,
      "v": 68
    },
    {
      "midi": 55,
      "hit": false,
      "t": 33587.5,
      "d": 12.5,
      "v": 54
    },
    {
      "midi": 35,
      "hit": false,
      "t": 33600,
      "d": 12.5,
      "v": 76
    },
    {
      "midi": 42,
      "hit": false,
      "t": 33600,
      "d": 25,
      "v": 58
    },
    {
      "midi": 48,
      "hit": false,
      "t": 33600,
      "d": 2168.75,
      "v": 58
    },
    {
      "midi": 52,
      "hit": false,
      "t": 33900,
      "d": 306.25,
      "v": 52
    },
    {
      "midi": 42,
      "hit": false,
      "t": 33906.25,
      "d": 25,
      "v": 58
    },
    {
      "midi": 55,
      "hit": false,
      "t": 34200,
      "d": 343.75,
      "v": 56
    },
    {
      "midi": 42,
      "hit": false,
      "t": 34206.25,
      "d": 18.75,
      "v": 60
    },
    {
      "midi": 60,
      "hit": false,
      "t": 34500,
      "d": 350,
      "v": 59
    },
    {
      "midi": 35,
      "hit": false,
      "t": 34506.25,
      "d": 12.5,
      "v": 61
    },
    {
      "midi": 42,
      "hit": false,
      "t": 34506.25,
      "d": 18.75,
      "v": 64
    },
    {
      "midi": 42,
      "hit": false,
      "t": 34800,
      "d": 25,
      "v": 58
    },
    {
      "midi": 64,
      "hit": false,
      "t": 34800,
      "d": 312.5,
      "v": 66
    },
    {
      "midi": 35,
      "hit": false,
      "t": 34806.25,
      "d": 12.5,
      "v": 70
    },
    {
      "midi": 55,
      "hit": false,
      "t": 35100,
      "d": 337.5,
      "v": 58
    },
    {
      "midi": 42,
      "hit": false,
      "t": 35106.25,
      "d": 18.75,
      "v": 61
    },
    {
      "midi": 42,
      "hit": false,
      "t": 35400,
      "d": 18.75,
      "v": 61
    },
    {
      "midi": 60,
      "hit": false,
      "t": 35400,
      "d": 325,
      "v": 64
    },
    {
      "midi": 64,
      "hit": false,
      "t": 35700,
      "d": 293.75,
      "v": 66
    },
    {
      "midi": 42,
      "hit": false,
      "t": 35706.25,
      "d": 18.75,
      "v": 63
    },
    {
      "midi": 35,
      "hit": false,
      "t": 36000,
      "d": 12.5,
      "v": 72
    },
    {
      "midi": 42,
      "hit": false,
      "t": 36000,
      "d": 18.75,
      "v": 64
    },
    {
      "midi": 48,
      "hit": false,
      "t": 36000,
      "d": 2218.75,
      "v": 68
    },
    {
      "midi": 52,
      "hit": false,
      "t": 36300,
      "d": 300,
      "v": 56
    },
    {
      "midi": 42,
      "hit": false,
      "t": 36312.5,
      "d": 18.75,
      "v": 65
    },
    {
      "midi": 42,
      "hit": false,
      "t": 36600,
      "d": 25,
      "v": 63
    },
    {
      "midi": 55,
      "hit": false,
      "t": 36600,
      "d": 331.25,
      "v": 58
    },
    {
      "midi": 42,
      "hit": false,
      "t": 36900,
      "d": 25,
      "v": 64
    },
    {
      "midi": 60,
      "hit": false,
      "t": 36900,
      "d": 325,
      "v": 66
    },
    {
      "midi": 35,
      "hit": false,
      "t": 36906.25,
      "d": 12.5,
      "v": 70
    },
    {
      "midi": 35,
      "hit": false,
      "t": 37200,
      "d": 12.5,
      "v": 73
    },
    {
      "midi": 64,
      "hit": false,
      "t": 37200,
      "d": 331.25,
      "v": 68
    },
    {
      "midi": 42,
      "hit": false,
      "t": 37206.25,
      "d": 25,
      "v": 64
    },
    {
      "midi": 42,
      "hit": false,
      "t": 37500,
      "d": 18.75,
      "v": 65
    },
    {
      "midi": 55,
      "hit": false,
      "t": 37500,
      "d": 343.75,
      "v": 58
    },
    {
      "midi": 60,
      "hit": false,
      "t": 37800,
      "d": 325,
      "v": 66
    },
    {
      "midi": 42,
      "hit": false,
      "t": 37806.25,
      "d": 25,
      "v": 61
    },
    {
      "midi": 64,
      "hit": false,
      "t": 38100,
      "d": 168.75,
      "v": 61
    },
    {
      "midi": 42,
      "hit": false,
      "t": 38106.25,
      "d": 25,
      "v": 68
    },
    {
      "midi": 35,
      "hit": false,
      "t": 38400,
      "d": 12.5,
      "v": 76
    },
    {
      "midi": 42,
      "hit": false,
      "t": 38400,
      "d": 25,
      "v": 58
    },
    {
      "midi": 48,
      "hit": false,
      "t": 38400,
      "d": 2168.75,
      "v": 58
    },
    {
      "midi": 52,
      "hit": false,
      "t": 38700,
      "d": 306.25,
      "v": 52
    },
    {
      "midi": 42,
      "hit": false,
      "t": 38706.25,
      "d": 25,
      "v": 58
    },
    {
      "midi": 55,
      "hit": false,
      "t": 39000,
      "d": 343.75,
      "v": 56
    },
    {
      "midi": 42,
      "hit": false,
      "t": 39006.25,
      "d": 18.75,
      "v": 60
    },
    {
      "midi": 60,
      "hit": false,
      "t": 39300,
      "d": 350,
      "v": 59
    },
    {
      "midi": 35,
      "hit": false,
      "t": 39306.25,
      "d": 12.5,
      "v": 61
    },
    {
      "midi": 42,
      "hit": false,
      "t": 39306.25,
      "d": 18.75,
      "v": 64
    },
    {
      "midi": 42,
      "hit": false,
      "t": 39600,
      "d": 25,
      "v": 58
    },
    {
      "midi": 64,
      "hit": false,
      "t": 39600,
      "d": 312.5,
      "v": 66
    },
    {
      "midi": 35,
      "hit": false,
      "t": 39606.25,
      "d": 12.5,
      "v": 70
    },
    {
      "midi": 55,
      "hit": false,
      "t": 39900,
      "d": 337.5,
      "v": 58
    },
    {
      "midi": 42,
      "hit": false,
      "t": 39906.25,
      "d": 18.75,
      "v": 61
    },
    {
      "midi": 42,
      "hit": false,
      "t": 40200,
      "d": 18.75,
      "v": 61
    },
    {
      "midi": 60,
      "hit": false,
      "t": 40200,
      "d": 325,
      "v": 64
    },
    {
      "midi": 64,
      "hit": false,
      "t": 40500,
      "d": 275,
      "v": 66
    },
    {
      "midi": 42,
      "hit": false,
      "t": 40506.25,
      "d": 18.75,
      "v": 63
    },
    {
      "midi": 62,
      "hit": false,
      "t": 40775,
      "d": 318.75,
      "v": 54
    },
    {
      "midi": 35,
      "hit": false,
      "t": 40800,
      "d": 12.5,
      "v": 72
    },
    {
      "midi": 42,
      "hit": false,
      "t": 40800,
      "d": 18.75,
      "v": 64
    },
    {
      "midi": 43,
      "hit": false,
      "t": 40800,
      "d": 2218.75,
      "v": 68
    },
    {
      "midi": 59,
      "hit": false,
      "t": 41100,
      "d": 300,
      "v": 56
    },
    {
      "midi": 42,
      "hit": false,
      "t": 41112.5,
      "d": 18.75,
      "v": 65
    },
    {
      "midi": 42,
      "hit": false,
      "t": 41400,
      "d": 25,
      "v": 63
    },
    {
      "midi": 62,
      "hit": false,
      "t": 41400,
      "d": 331.25,
      "v": 58
    },
    {
      "midi": 42,
      "hit": false,
      "t": 41700,
      "d": 25,
      "v": 64
    },
    {
      "midi": 67,
      "hit": false,
      "t": 41700,
      "d": 325,
      "v": 66
    },
    {
      "midi": 35,
      "hit": false,
      "t": 41706.25,
      "d": 12.5,
      "v": 70
    },
    {
      "midi": 35,
      "hit": false,
      "t": 42000,
      "d": 12.5,
      "v": 73
    },
    {
      "midi": 71,
      "hit": false,
      "t": 42000,
      "d": 331.25,
      "v": 68
    },
    {
      "midi": 42,
      "hit": false,
      "t": 42006.25,
      "d": 25,
      "v": 64
    },
    {
      "midi": 42,
      "hit": false,
      "t": 42300,
      "d": 18.75,
      "v": 65
    },
    {
      "midi": 62,
      "hit": false,
      "t": 42300,
      "d": 343.75,
      "v": 58
    },
    {
      "midi": 67,
      "hit": false,
      "t": 42600,
      "d": 325,
      "v": 66
    },
    {
      "midi": 42,
      "hit": false,
      "t": 42606.25,
      "d": 25,
      "v": 61
    },
    {
      "midi": 71,
      "hit": false,
      "t": 42900,
      "d": 168.75,
      "v": 61
    },
    {
      "midi": 42,
      "hit": false,
      "t": 42906.25,
      "d": 25,
      "v": 68
    },
    {
      "midi": 35,
      "hit": false,
      "t": 43200,
      "d": 12.5,
      "v": 76
    },
    {
      "midi": 42,
      "hit": false,
      "t": 43200,
      "d": 25,
      "v": 58
    },
    {
      "midi": 43,
      "hit": false,
      "t": 43200,
      "d": 1150,
      "v": 58
    },
    {
      "midi": 59,
      "hit": false,
      "t": 43500,
      "d": 306.25,
      "v": 52
    },
    {
      "midi": 42,
      "hit": false,
      "t": 43506.25,
      "d": 25,
      "v": 58
    },
    {
      "midi": 62,
      "hit": false,
      "t": 43800,
      "d": 343.75,
      "v": 56
    },
    {
      "midi": 42,
      "hit": false,
      "t": 43806.25,
      "d": 18.75,
      "v": 60
    },
    {
      "midi": 67,
      "hit": false,
      "t": 44100,
      "d": 250,
      "v": 59
    },
    {
      "midi": 35,
      "hit": false,
      "t": 44106.25,
      "d": 12.5,
      "v": 61
    },
    {
      "midi": 42,
      "hit": false,
      "t": 44106.25,
      "d": 18.75,
      "v": 64
    },
    {
      "midi": 35,
      "hit": false,
      "t": 44400,
      "d": 12.5,
      "v": 73
    },
    {
      "midi": 71,
      "hit": false,
      "t": 44400,
      "d": 331.25,
      "v": 68
    },
    {
      "midi": 42,
      "hit": false,
      "t": 44406.25,
      "d": 25,
      "v": 64
    },
    {
      "midi": 42,
      "hit": false,
      "t": 44700,
      "d": 18.75,
      "v": 65
    },
    {
      "midi": 42,
      "hit": false,
      "t": 44868.75,
      "d": 6.25,
      "v": 8
    },
    {
      "midi": 42,
      "hit": false,
      "t": 44912.5,
      "d": 6.25,
      "v": 9
    },
    {
      "midi": 42,
      "hit": false,
      "t": 44962.5,
      "d": 6.25,
      "v": 26
    },
    {
      "midi": 62,
      "hit": false,
      "t": 45000,
      "d": 43.75,
      "v": 65
    },
    {
      "midi": 67,
      "hit": false,
      "t": 45000,
      "d": 187.5,
      "v": 47
    },
    {
      "midi": 42,
      "hit": false,
      "t": 45006.25,
      "d": 25,
      "v": 60
    },
    {
      "midi": 42,
      "hit": false,
      "t": 45150,
      "d": 25,
      "v": 28
    },
    {
      "midi": 71,
      "hit": false,
      "t": 45150,
      "d": 168.75,
      "v": 61
    },
    {
      "midi": 67,
      "hit": false,
      "t": 45300,
      "d": 143.75,
      "v": 56
    },
    {
      "midi": 59,
      "hit": false,
      "t": 45300,
      "d": 300,
      "v": 34
    },
    {
      "midi": 35,
      "hit": false,
      "t": 45306.25,
      "d": 12.5,
      "v": 70
    },
    {
      "midi": 46,
      "hit": false,
      "t": 45306.25,
      "d": 25,
      "v": 64
    },
    {
      "midi": 62,
      "hit": false,
      "t": 45450,
      "d": 150,
      "v": 51
    },
    {
      "midi": 57,
      "hit": false,
      "t": 45600,
      "d": 293.75,
      "v": 54
    },
    {
      "midi": 50,
      "hit": false,
      "t": 45600,
      "d": 2168.75,
      "v": 58
    },
    {
      "midi": 54,
      "hit": false,
      "t": 45900,
      "d": 306.25,
      "v": 52
    },
    {
      "midi": 42,
      "hit": false,
      "t": 45906.25,
      "d": 25,
      "v": 58
    },
    {
      "midi": 57,
      "hit": false,
      "t": 46200,
      "d": 343.75,
      "v": 56
    },
    {
      "midi": 42,
      "hit": false,
      "t": 46206.25,
      "d": 18.75,
      "v": 60
    },
    {
      "midi": 62,
      "hit": false,
      "t": 46500,
      "d": 350,
      "v": 59
    },
    {
      "midi": 35,
      "hit": false,
      "t": 46506.25,
      "d": 12.5,
      "v": 61
    },
    {
      "midi": 42,
      "hit": false,
      "t": 46506.25,
      "d": 18.75,
      "v": 64
    },
    {
      "midi": 42,
      "hit": false,
      "t": 46800,
      "d": 25,
      "v": 58
    },
    {
      "midi": 66,
      "hit": false,
      "t": 46800,
      "d": 312.5,
      "v": 66
    },
    {
      "midi": 35,
      "hit": false,
      "t": 46806.25,
      "d": 12.5,
      "v": 70
    },
    {
      "midi": 57,
      "hit": false,
      "t": 47100,
      "d": 337.5,
      "v": 58
    },
    {
      "midi": 42,
      "hit": false,
      "t": 47106.25,
      "d": 18.75,
      "v": 61
    },
    {
      "midi": 42,
      "hit": false,
      "t": 47400,
      "d": 18.75,
      "v": 61
    },
    {
      "midi": 62,
      "hit": false,
      "t": 47400,
      "d": 325,
      "v": 64
    },
    {
      "midi": 66,
      "hit": false,
      "t": 47700,
      "d": 293.75,
      "v": 66
    },
    {
      "midi": 42,
      "hit": false,
      "t": 47706.25,
      "d": 18.75,
      "v": 63
    },
    {
      "midi": 35,
      "hit": false,
      "t": 48000,
      "d": 12.5,
      "v": 72
    },
    {
      "midi": 42,
      "hit": false,
      "t": 48000,
      "d": 18.75,
      "v": 64
    },
    {
      "midi": 50,
      "hit": false,
      "t": 48000,
      "d": 1200,
      "v": 68
    },
    {
      "midi": 54,
      "hit": false,
      "t": 48300,
      "d": 300,
      "v": 56
    },
    {
      "midi": 42,
      "hit": false,
      "t": 48312.5,
      "d": 18.75,
      "v": 65
    },
    {
      "midi": 42,
      "hit": false,
      "t": 48600,
      "d": 25,
      "v": 63
    },
    {
      "midi": 57,
      "hit": false,
      "t": 48600,
      "d": 331.25,
      "v": 58
    },
    {
      "midi": 42,
      "hit": false,
      "t": 48900,
      "d": 25,
      "v": 64
    },
    {
      "midi": 62,
      "hit": false,
      "t": 48900,
      "d": 325,
      "v": 66
    },
    {
      "midi": 35,
      "hit": false,
      "t": 48906.25,
      "d": 12.5,
      "v": 70
    },
    {
      "midi": 35,
      "hit": false,
      "t": 49200,
      "d": 12.5,
      "v": 73
    },
    {
      "midi": 66,
      "hit": false,
      "t": 49200,
      "d": 331.25,
      "v": 68
    },
    {
      "midi": 50,
      "hit": false,
      "t": 49200,
      "d": 1018.75,
      "v": 68
    },
    {
      "midi": 42,
      "hit": false,
      "t": 49206.25,
      "d": 25,
      "v": 64
    },
    {
      "midi": 42,
      "hit": false,
      "t": 49500,
      "d": 18.75,
      "v": 65
    },
    {
      "midi": 57,
      "hit": false,
      "t": 49500,
      "d": 343.75,
      "v": 58
    },
    {
      "midi": 60,
      "hit": false,
      "t": 49800,
      "d": 325,
      "v": 66
    },
    {
      "midi": 42,
      "hit": false,
      "t": 49806.25,
      "d": 25,
      "v": 61
    },
    {
      "midi": 66,
      "hit": false,
      "t": 50100,
      "d": 168.75,
      "v": 61
    },
    {
      "midi": 42,
      "hit": false,
      "t": 50106.25,
      "d": 25,
      "v": 68
    },
    {
      "midi": 62,
      "hit": false,
      "t": 50368.75,
      "d": 31.25,
      "v": 54
    },
    {
      "midi": 35,
      "hit": false,
      "t": 50400,
      "d": 12.5,
      "v": 76
    },
    {
      "midi": 42,
      "hit": false,
      "t": 50400,
      "d": 25,
      "v": 58
    },
    {
      "midi": 43,
      "hit": false,
      "t": 50400,
      "d": 1200,
      "v": 58
    },
    {
      "midi": 59,
      "hit": false,
      "t": 50700,
      "d": 306.25,
      "v": 52
    },
    {
      "midi": 42,
      "hit": false,
      "t": 50706.25,
      "d": 25,
      "v": 58
    },
    {
      "midi": 62,
      "hit": false,
      "t": 51000,
      "d": 343.75,
      "v": 56
    },
    {
      "midi": 42,
      "hit": false,
      "t": 51006.25,
      "d": 18.75,
      "v": 60
    },
    {
      "midi": 67,
      "hit": false,
      "t": 51300,
      "d": 350,
      "v": 59
    },
    {
      "midi": 35,
      "hit": false,
      "t": 51306.25,
      "d": 12.5,
      "v": 61
    },
    {
      "midi": 42,
      "hit": false,
      "t": 51306.25,
      "d": 18.75,
      "v": 64
    },
    {
      "midi": 71,
      "hit": false,
      "t": 51600,
      "d": 312.5,
      "v": 66
    },
    {
      "midi": 43,
      "hit": false,
      "t": 51600,
      "d": 968.75,
      "v": 58
    },
    {
      "midi": 35,
      "hit": false,
      "t": 51606.25,
      "d": 12.5,
      "v": 70
    },
    {
      "midi": 62,
      "hit": false,
      "t": 51900,
      "d": 337.5,
      "v": 58
    },
    {
      "midi": 42,
      "hit": false,
      "t": 51906.25,
      "d": 18.75,
      "v": 61
    },
    {
      "midi": 42,
      "hit": false,
      "t": 52200,
      "d": 18.75,
      "v": 61
    },
    {
      "midi": 65,
      "hit": false,
      "t": 52200,
      "d": 325,
      "v": 64
    },
    {
      "midi": 71,
      "hit": false,
      "t": 52500,
      "d": 293.75,
      "v": 66
    },
    {
      "midi": 42,
      "hit": false,
      "t": 52506.25,
      "d": 18.75,
      "v": 63
    },
    {
      "midi": 35,
      "hit": false,
      "t": 52800,
      "d": 12.5,
      "v": 72
    },
    {
      "midi": 42,
      "hit": false,
      "t": 52800,
      "d": 18.75,
      "v": 64
    },
    {
      "midi": 43,
      "hit": false,
      "t": 52800,
      "d": 18.75,
      "v": 68
    },
    {
      "midi": 55,
      "hit": false,
      "t": 52818.75,
      "d": 575,
      "v": 54
    },
    {
      "midi": 48,
      "hit": false,
      "t": 52818.75,
      "d": 2200,
      "v": 68
    },
    {
      "midi": 42,
      "hit": false,
      "t": 53112.5,
      "d": 18.75,
      "v": 65
    },
    {
      "midi": 42,
      "hit": false,
      "t": 53400,
      "d": 25,
      "v": 63
    },
    {
      "midi": 55,
      "hit": false,
      "t": 53400,
      "d": 331.25,
      "v": 58
    },
    {
      "midi": 42,
      "hit": false,
      "t": 53700,
      "d": 25,
      "v": 64
    },
    {
      "midi": 60,
      "hit": false,
      "t": 53700,
      "d": 325,
      "v": 66
    },
    {
      "midi": 35,
      "hit": false,
      "t": 53706.25,
      "d": 12.5,
      "v": 70
    },
    {
      "midi": 35,
      "hit": false,
      "t": 54000,
      "d": 12.5,
      "v": 73
    },
    {
      "midi": 64,
      "hit": false,
      "t": 54000,
      "d": 331.25,
      "v": 68
    },
    {
      "midi": 42,
      "hit": false,
      "t": 54006.25,
      "d": 25,
      "v": 64
    },
    {
      "midi": 42,
      "hit": false,
      "t": 54300,
      "d": 18.75,
      "v": 65
    },
    {
      "midi": 55,
      "hit": false,
      "t": 54300,
      "d": 343.75,
      "v": 58
    },
    {
      "midi": 60,
      "hit": false,
      "t": 54600,
      "d": 325,
      "v": 66
    },
    {
      "midi": 42,
      "hit": false,
      "t": 54606.25,
      "d": 25,
      "v": 61
    },
    {
      "midi": 64,
      "hit": false,
      "t": 54900,
      "d": 168.75,
      "v": 61
    },
    {
      "midi": 42,
      "hit": false,
      "t": 54906.25,
      "d": 25,
      "v": 68
    },
    {
      "midi": 35,
      "hit": false,
      "t": 55200,
      "d": 12.5,
      "v": 76
    },
    {
      "midi": 42,
      "hit": false,
      "t": 55200,
      "d": 25,
      "v": 58
    },
    {
      "midi": 48,
      "hit": false,
      "t": 55200,
      "d": 2168.75,
      "v": 58
    },
    {
      "midi": 52,
      "hit": false,
      "t": 55500,
      "d": 306.25,
      "v": 52
    },
    {
      "midi": 42,
      "hit": false,
      "t": 55506.25,
      "d": 25,
      "v": 58
    },
    {
      "midi": 55,
      "hit": false,
      "t": 55800,
      "d": 343.75,
      "v": 56
    },
    {
      "midi": 42,
      "hit": false,
      "t": 55806.25,
      "d": 18.75,
      "v": 60
    },
    {
      "midi": 60,
      "hit": false,
      "t": 56100,
      "d": 350,
      "v": 59
    },
    {
      "midi": 35,
      "hit": false,
      "t": 56106.25,
      "d": 12.5,
      "v": 61
    },
    {
      "midi": 42,
      "hit": false,
      "t": 56106.25,
      "d": 18.75,
      "v": 64
    },
    {
      "midi": 42,
      "hit": false,
      "t": 56400,
      "d": 25,
      "v": 58
    },
    {
      "midi": 64,
      "hit": false,
      "t": 56400,
      "d": 312.5,
      "v": 66
    },
    {
      "midi": 35,
      "hit": false,
      "t": 56406.25,
      "d": 12.5,
      "v": 70
    },
    {
      "midi": 55,
      "hit": false,
      "t": 56700,
      "d": 337.5,
      "v": 58
    },
    {
      "midi": 42,
      "hit": false,
      "t": 56706.25,
      "d": 18.75,
      "v": 61
    },
    {
      "midi": 42,
      "hit": false,
      "t": 57000,
      "d": 18.75,
      "v": 61
    },
    {
      "midi": 60,
      "hit": false,
      "t": 57000,
      "d": 325,
      "v": 64
    },
    {
      "midi": 64,
      "hit": false,
      "t": 57300,
      "d": 293.75,
      "v": 66
    },
    {
      "midi": 42,
      "hit": false,
      "t": 57306.25,
      "d": 18.75,
      "v": 63
    },
    {
      "midi": 62,
      "hit": false,
      "t": 57593.75,
      "d": 300,
      "v": 54
    },
    {
      "midi": 35,
      "hit": false,
      "t": 57600,
      "d": 12.5,
      "v": 72
    },
    {
      "midi": 42,
      "hit": false,
      "t": 57600,
      "d": 18.75,
      "v": 64
    },
    {
      "midi": 43,
      "hit": false,
      "t": 57600,
      "d": 2218.75,
      "v": 68
    },
    {
      "midi": 59,
      "hit": false,
      "t": 57900,
      "d": 300,
      "v": 56
    },
    {
      "midi": 42,
      "hit": false,
      "t": 57912.5,
      "d": 18.75,
      "v": 65
    },
    {
      "midi": 42,
      "hit": false,
      "t": 58200,
      "d": 25,
      "v": 63
    },
    {
      "midi": 62,
      "hit": false,
      "t": 58200,
      "d": 331.25,
      "v": 58
    },
    {
      "midi": 42,
      "hit": false,
      "t": 58500,
      "d": 25,
      "v": 64
    },
    {
      "midi": 67,
      "hit": false,
      "t": 58500,
      "d": 325,
      "v": 66
    },
    {
      "midi": 35,
      "hit": false,
      "t": 58506.25,
      "d": 12.5,
      "v": 70
    },
    {
      "midi": 35,
      "hit": false,
      "t": 58800,
      "d": 12.5,
      "v": 73
    },
    {
      "midi": 71,
      "hit": false,
      "t": 58800,
      "d": 331.25,
      "v": 68
    },
    {
      "midi": 42,
      "hit": false,
      "t": 58806.25,
      "d": 25,
      "v": 64
    },
    {
      "midi": 42,
      "hit": false,
      "t": 59100,
      "d": 18.75,
      "v": 65
    },
    {
      "midi": 62,
      "hit": false,
      "t": 59100,
      "d": 343.75,
      "v": 58
    },
    {
      "midi": 67,
      "hit": false,
      "t": 59400,
      "d": 325,
      "v": 66
    },
    {
      "midi": 42,
      "hit": false,
      "t": 59406.25,
      "d": 25,
      "v": 61
    },
    {
      "midi": 71,
      "hit": false,
      "t": 59700,
      "d": 168.75,
      "v": 61
    },
    {
      "midi": 42,
      "hit": false,
      "t": 59706.25,
      "d": 25,
      "v": 68
    },
    {
      "midi": 57,
      "hit": false,
      "t": 59987.5,
      "d": 12.5,
      "v": 54
    },
    {
      "midi": 35,
      "hit": false,
      "t": 60000,
      "d": 12.5,
      "v": 76
    },
    {
      "midi": 42,
      "hit": false,
      "t": 60000,
      "d": 25,
      "v": 58
    },
    {
      "midi": 50,
      "hit": false,
      "t": 60000,
      "d": 2168.75,
      "v": 58
    },
    {
      "midi": 54,
      "hit": false,
      "t": 60300,
      "d": 306.25,
      "v": 52
    },
    {
      "midi": 42,
      "hit": false,
      "t": 60306.25,
      "d": 25,
      "v": 58
    },
    {
      "midi": 57,
      "hit": false,
      "t": 60600,
      "d": 343.75,
      "v": 56
    },
    {
      "midi": 42,
      "hit": false,
      "t": 60606.25,
      "d": 18.75,
      "v": 60
    },
    {
      "midi": 62,
      "hit": false,
      "t": 60900,
      "d": 350,
      "v": 59
    },
    {
      "midi": 35,
      "hit": false,
      "t": 60906.25,
      "d": 12.5,
      "v": 61
    },
    {
      "midi": 42,
      "hit": false,
      "t": 60906.25,
      "d": 18.75,
      "v": 64
    },
    {
      "midi": 42,
      "hit": false,
      "t": 61200,
      "d": 25,
      "v": 58
    },
    {
      "midi": 66,
      "hit": false,
      "t": 61200,
      "d": 312.5,
      "v": 66
    },
    {
      "midi": 35,
      "hit": false,
      "t": 61206.25,
      "d": 12.5,
      "v": 70
    },
    {
      "midi": 57,
      "hit": false,
      "t": 61500,
      "d": 337.5,
      "v": 58
    },
    {
      "midi": 42,
      "hit": false,
      "t": 61506.25,
      "d": 18.75,
      "v": 61
    },
    {
      "midi": 42,
      "hit": false,
      "t": 61800,
      "d": 18.75,
      "v": 61
    },
    {
      "midi": 62,
      "hit": false,
      "t": 61800,
      "d": 325,
      "v": 64
    },
    {
      "midi": 66,
      "hit": false,
      "t": 62100,
      "d": 293.75,
      "v": 66
    },
    {
      "midi": 42,
      "hit": false,
      "t": 62106.25,
      "d": 18.75,
      "v": 63
    },
    {
      "midi": 35,
      "hit": false,
      "t": 62400,
      "d": 12.5,
      "v": 72
    },
    {
      "midi": 42,
      "hit": false,
      "t": 62400,
      "d": 18.75,
      "v": 64
    },
    {
      "midi": 50,
      "hit": false,
      "t": 62400,
      "d": 581.25,
      "v": 68
    },
    {
      "midi": 54,
      "hit": false,
      "t": 62700,
      "d": 281.25,
      "v": 56
    },
    {
      "midi": 42,
      "hit": false,
      "t": 62712.5,
      "d": 18.75,
      "v": 65
    },
    {
      "midi": 57,
      "hit": false,
      "t": 63000,
      "d": 331.25,
      "v": 53
    },
    {
      "midi": 42,
      "hit": false,
      "t": 63006.25,
      "d": 18.75,
      "v": 63
    },
    {
      "midi": 42,
      "hit": false,
      "t": 63300,
      "d": 25,
      "v": 67
    },
    {
      "midi": 60,
      "hit": false,
      "t": 63300,
      "d": 325,
      "v": 66
    },
    {
      "midi": 35,
      "hit": false,
      "t": 63306.25,
      "d": 12.5,
      "v": 70
    },
    {
      "midi": 46,
      "hit": false,
      "t": 63450,
      "d": 25,
      "v": 67
    },
    {
      "midi": 35,
      "hit": false,
      "t": 63600,
      "d": 12.5,
      "v": 73
    },
    {
      "midi": 66,
      "hit": false,
      "t": 63600,
      "d": 168.75,
      "v": 68
    },
    {
      "midi": 57,
      "hit": false,
      "t": 63750,
      "d": 168.75,
      "v": 58
    },
    {
      "midi": 60,
      "hit": false,
      "t": 63900,
      "d": 162.5,
      "v": 61
    },
    {
      "midi": 66,
      "hit": false,
      "t": 64050,
      "d": 168.75,
      "v": 54
    },
    {
      "midi": 44,
      "hit": false,
      "t": 64200,
      "d": 12.5,
      "v": 94
    },
    {
      "midi": 57,
      "hit": false,
      "t": 64200,
      "d": 168.75,
      "v": 51
    },
    {
      "midi": 60,
      "hit": false,
      "t": 64350,
      "d": 162.5,
      "v": 59
    },
    {
      "midi": 66,
      "hit": false,
      "t": 64500,
      "d": 168.75,
      "v": 68
    },
    {
      "midi": 35,
      "hit": false,
      "t": 64506.25,
      "d": 12.5,
      "v": 61
    },
    {
      "midi": 69,
      "hit": false,
      "t": 64650,
      "d": 150,
      "v": 74
    },
    {
      "midi": 59,
      "hit": false,
      "t": 64800,
      "d": 593.75,
      "v": 71
    },
    {
      "midi": 55,
      "hit": false,
      "t": 64800,
      "d": 606.25,
      "v": 67
    },
    {
      "midi": 43,
      "hit": false,
      "t": 64800,
      "d": 2168.75,
      "v": 58
    },
    {
      "midi": 42,
      "hit": false,
      "t": 65106.25,
      "d": 25,
      "v": 58
    },
    {
      "midi": 62,
      "hit": false,
      "t": 65112.5,
      "d": 262.5,
      "v": 52
    },
    {
      "midi": 40,
      "hit": false,
      "t": 65406.25,
      "d": 12.5,
      "v": 86
    },
    {
      "midi": 42,
      "hit": false,
      "t": 65406.25,
      "d": 18.75,
      "v": 60
    },
    {
      "midi": 62,
      "hit": false,
      "t": 65406.25,
      "d": 212.5,
      "v": 60
    },
    {
      "midi": 59,
      "hit": false,
      "t": 65406.25,
      "d": 543.75,
      "v": 63
    },
    {
      "midi": 55,
      "hit": false,
      "t": 65412.5,
      "d": 531.25,
      "v": 72
    },
    {
      "midi": 42,
      "hit": false,
      "t": 65706.25,
      "d": 18.75,
      "v": 64
    },
    {
      "midi": 62,
      "hit": false,
      "t": 65718.75,
      "d": 268.75,
      "v": 50
    },
    {
      "midi": 42,
      "hit": false,
      "t": 66000,
      "d": 25,
      "v": 58
    },
    {
      "midi": 59,
      "hit": false,
      "t": 66000,
      "d": 562.5,
      "v": 69
    },
    {
      "midi": 35,
      "hit": false,
      "t": 66006.25,
      "d": 12.5,
      "v": 70
    },
    {
      "midi": 62,
      "hit": false,
      "t": 66006.25,
      "d": 225,
      "v": 63
    },
    {
      "midi": 55,
      "hit": false,
      "t": 66012.5,
      "d": 593.75,
      "v": 69
    },
    {
      "midi": 42,
      "hit": false,
      "t": 66306.25,
      "d": 18.75,
      "v": 61
    },
    {
      "midi": 62,
      "hit": false,
      "t": 66312.5,
      "d": 281.25,
      "v": 49
    },
    {
      "midi": 40,
      "hit": false,
      "t": 66600,
      "d": 12.5,
      "v": 86
    },
    {
      "midi": 42,
      "hit": false,
      "t": 66600,
      "d": 18.75,
      "v": 61
    },
    {
      "midi": 59,
      "hit": false,
      "t": 66606.25,
      "d": 562.5,
      "v": 67
    },
    {
      "midi": 62,
      "hit": false,
      "t": 66618.75,
      "d": 200,
      "v": 62
    },
    {
      "midi": 55,
      "hit": false,
      "t": 66625,
      "d": 562.5,
      "v": 67
    },
    {
      "midi": 35,
      "hit": false,
      "t": 66906.25,
      "d": 12.5,
      "v": 70
    },
    {
      "midi": 42,
      "hit": false,
      "t": 66906.25,
      "d": 18.75,
      "v": 63
    },
    {
      "midi": 62,
      "hit": false,
      "t": 66906.25,
      "d": 287.5,
      "v": 48
    },
    {
      "midi": 35,
      "hit": false,
      "t": 67200,
      "d": 12.5,
      "v": 72
    },
    {
      "midi": 42,
      "hit": false,
      "t": 67200,
      "d": 18.75,
      "v": 64
    },
    {
      "midi": 65,
      "hit": false,
      "t": 67200,
      "d": 600,
      "v": 70
    },
    {
      "midi": 43,
      "hit": false,
      "t": 67200,
      "d": 2218.75,
      "v": 67
    },
    {
      "midi": 62,
      "hit": false,
      "t": 67212.5,
      "d": 237.5,
      "v": 62
    },
    {
      "midi": 59,
      "hit": false,
      "t": 67212.5,
      "d": 587.5,
      "v": 69
    },
    {
      "midi": 42,
      "hit": false,
      "t": 67512.5,
      "d": 18.75,
      "v": 65
    },
    {
      "midi": 83,
      "hit": false,
      "t": 67712.5,
      "d": 43.75,
      "v": 54
    },
    {
      "midi": 95,
      "hit": false,
      "t": 67725,
      "d": 50,
      "v": 60
    },
    {
      "midi": 42,
      "hit": false,
      "t": 67800,
      "d": 25,
      "v": 63
    },
    {
      "midi": 83,
      "hit": false,
      "t": 67800,
      "d": 425,
      "v": 54
    },
    {
      "midi": 95,
      "hit": false,
      "t": 67800,
      "d": 450,
      "v": 60
    },
    {
      "midi": 40,
      "hit": false,
      "t": 67806.25,
      "d": 12.5,
      "v": 85
    },
    {
      "midi": 65,
      "hit": false,
      "t": 67812.5,
      "d": 562.5,
      "v": 67
    },
    {
      "midi": 59,
      "hit": false,
      "t": 67812.5,
      "d": 575,
      "v": 66
    },
    {
      "midi": 42,
      "hit": false,
      "t": 68100,
      "d": 25,
      "v": 64
    },
    {
      "midi": 35,
      "hit": false,
      "t": 68106.25,
      "d": 12.5,
      "v": 70
    },
    {
      "midi": 62,
      "hit": false,
      "t": 68112.5,
      "d": 268.75,
      "v": 50
    },
    {
      "midi": 35,
      "hit": false,
      "t": 68400,
      "d": 12.5,
      "v": 73
    },
    {
      "midi": 59,
      "hit": false,
      "t": 68400,
      "d": 581.25,
      "v": 65
    },
    {
      "midi": 42,
      "hit": false,
      "t": 68406.25,
      "d": 25,
      "v": 64
    },
    {
      "midi": 62,
      "hit": false,
      "t": 68406.25,
      "d": 193.75,
      "v": 61
    },
    {
      "midi": 65,
      "hit": false,
      "t": 68406.25,
      "d": 587.5,
      "v": 61
    },
    {
      "midi": 42,
      "hit": false,
      "t": 68700,
      "d": 18.75,
      "v": 65
    },
    {
      "midi": 62,
      "hit": false,
      "t": 68700,
      "d": 293.75,
      "v": 48
    },
    {
      "midi": 59,
      "hit": false,
      "t": 69000,
      "d": 556.25,
      "v": 67
    },
    {
      "midi": 40,
      "hit": false,
      "t": 69006.25,
      "d": 12.5,
      "v": 86
    },
    {
      "midi": 42,
      "hit": false,
      "t": 69006.25,
      "d": 25,
      "v": 61
    },
    {
      "midi": 62,
      "hit": false,
      "t": 69006.25,
      "d": 162.5,
      "v": 62
    },
    {
      "midi": 65,
      "hit": false,
      "t": 69012.5,
      "d": 543.75,
      "v": 67
    },
    {
      "midi": 35,
      "hit": false,
      "t": 69306.25,
      "d": 12.5,
      "v": 70
    },
    {
      "midi": 42,
      "hit": false,
      "t": 69306.25,
      "d": 25,
      "v": 68
    },
    {
      "midi": 62,
      "hit": false,
      "t": 69306.25,
      "d": 250,
      "v": 48
    },
    {
      "midi": 55,
      "hit": false,
      "t": 69556.25,
      "d": 25,
      "v": 62
    },
    {
      "midi": 64,
      "hit": false,
      "t": 69556.25,
      "d": 31.25,
      "v": 67
    },
    {
      "midi": 60,
      "hit": false,
      "t": 69556.25,
      "d": 37.5,
      "v": 67
    },
    {
      "midi": 35,
      "hit": false,
      "t": 69600,
      "d": 12.5,
      "v": 76
    },
    {
      "midi": 42,
      "hit": false,
      "t": 69600,
      "d": 25,
      "v": 58
    },
    {
      "midi": 64,
      "hit": false,
      "t": 69600,
      "d": 593.75,
      "v": 71
    },
    {
      "midi": 60,
      "hit": false,
      "t": 69600,
      "d": 606.25,
      "v": 67
    },
    {
      "midi": 48,
      "hit": false,
      "t": 69600,
      "d": 2168.75,
      "v": 58
    },
    {
      "midi": 42,
      "hit": false,
      "t": 69906.25,
      "d": 25,
      "v": 58
    },
    {
      "midi": 55,
      "hit": false,
      "t": 69912.5,
      "d": 262.5,
      "v": 52
    },
    {
      "midi": 40,
      "hit": false,
      "t": 70206.25,
      "d": 12.5,
      "v": 86
    },
    {
      "midi": 42,
      "hit": false,
      "t": 70206.25,
      "d": 18.75,
      "v": 60
    },
    {
      "midi": 55,
      "hit": false,
      "t": 70206.25,
      "d": 212.5,
      "v": 60
    },
    {
      "midi": 64,
      "hit": false,
      "t": 70206.25,
      "d": 543.75,
      "v": 63
    },
    {
      "midi": 60,
      "hit": false,
      "t": 70212.5,
      "d": 531.25,
      "v": 72
    },
    {
      "midi": 42,
      "hit": false,
      "t": 70506.25,
      "d": 18.75,
      "v": 64
    },
    {
      "midi": 55,
      "hit": false,
      "t": 70518.75,
      "d": 268.75,
      "v": 50
    },
    {
      "midi": 42,
      "hit": false,
      "t": 70800,
      "d": 25,
      "v": 58
    },
    {
      "midi": 64,
      "hit": false,
      "t": 70800,
      "d": 562.5,
      "v": 69
    },
    {
      "midi": 35,
      "hit": false,
      "t": 70806.25,
      "d": 12.5,
      "v": 70
    },
    {
      "midi": 55,
      "hit": false,
      "t": 70806.25,
      "d": 225,
      "v": 63
    },
    {
      "midi": 60,
      "hit": false,
      "t": 70812.5,
      "d": 593.75,
      "v": 69
    },
    {
      "midi": 42,
      "hit": false,
      "t": 71106.25,
      "d": 18.75,
      "v": 61
    },
    {
      "midi": 55,
      "hit": false,
      "t": 71112.5,
      "d": 281.25,
      "v": 49
    },
    {
      "midi": 40,
      "hit": false,
      "t": 71400,
      "d": 12.5,
      "v": 86
    },
    {
      "midi": 42,
      "hit": false,
      "t": 71400,
      "d": 18.75,
      "v": 61
    },
    {
      "midi": 64,
      "hit": false,
      "t": 71406.25,
      "d": 562.5,
      "v": 67
    },
    {
      "midi": 55,
      "hit": false,
      "t": 71418.75,
      "d": 200,
      "v": 62
    },
    {
      "midi": 60,
      "hit": false,
      "t": 71425,
      "d": 562.5,
      "v": 67
    },
    {
      "midi": 35,
      "hit": false,
      "t": 71706.25,
      "d": 12.5,
      "v": 70
    },
    {
      "midi": 42,
      "hit": false,
      "t": 71706.25,
      "d": 18.75,
      "v": 63
    },
    {
      "midi": 55,
      "hit": false,
      "t": 71706.25,
      "d": 287.5,
      "v": 48
    },
    {
      "midi": 35,
      "hit": false,
      "t": 72000,
      "d": 12.5,
      "v": 72
    },
    {
      "midi": 42,
      "hit": false,
      "t": 72000,
      "d": 18.75,
      "v": 64
    },
    {
      "midi": 60,
      "hit": false,
      "t": 72000,
      "d": 600,
      "v": 70
    },
    {
      "midi": 48,
      "hit": false,
      "t": 72000,
      "d": 1181.25,
      "v": 67
    },
    {
      "midi": 55,
      "hit": false,
      "t": 72012.5,
      "d": 237.5,
      "v": 62
    },
    {
      "midi": 64,
      "hit": false,
      "t": 72012.5,
      "d": 587.5,
      "v": 69
    },
    {
      "midi": 42,
      "hit": false,
      "t": 72312.5,
      "d": 18.75,
      "v": 65
    },
    {
      "midi": 84,
      "hit": false,
      "t": 72512.5,
      "d": 43.75,
      "v": 54
    },
    {
      "midi": 96,
      "hit": false,
      "t": 72525,
      "d": 50,
      "v": 60
    },
    {
      "midi": 42,
      "hit": false,
      "t": 72600,
      "d": 25,
      "v": 63
    },
    {
      "midi": 84,
      "hit": false,
      "t": 72600,
      "d": 425,
      "v": 54
    },
    {
      "midi": 96,
      "hit": false,
      "t": 72600,
      "d": 450,
      "v": 60
    },
    {
      "midi": 40,
      "hit": false,
      "t": 72606.25,
      "d": 12.5,
      "v": 85
    },
    {
      "midi": 60,
      "hit": false,
      "t": 72612.5,
      "d": 562.5,
      "v": 67
    },
    {
      "midi": 64,
      "hit": false,
      "t": 72612.5,
      "d": 568.75,
      "v": 66
    },
    {
      "midi": 42,
      "hit": false,
      "t": 72900,
      "d": 25,
      "v": 64
    },
    {
      "midi": 35,
      "hit": false,
      "t": 72906.25,
      "d": 12.5,
      "v": 70
    },
    {
      "midi": 55,
      "hit": false,
      "t": 72912.5,
      "d": 268.75,
      "v": 50
    },
    {
      "midi": 79,
      "hit": false,
      "t": 73193.75,
      "d": 475,
      "v": 64
    },
    {
      "midi": 35,
      "hit": false,
      "t": 73200,
      "d": 12.5,
      "v": 73
    },
    {
      "midi": 64,
      "hit": false,
      "t": 73200,
      "d": 581.25,
      "v": 65
    },
    {
      "midi": 84,
      "hit": false,
      "t": 73200,
      "d": 437.5,
      "v": 69
    },
    {
      "midi": 42,
      "hit": false,
      "t": 73206.25,
      "d": 25,
      "v": 64
    },
    {
      "midi": 60,
      "hit": false,
      "t": 73206.25,
      "d": 568.75,
      "v": 61
    },
    {
      "midi": 46,
      "hit": false,
      "t": 73500,
      "d": 18.75,
      "v": 68
    },
    {
      "midi": 55,
      "hit": false,
      "t": 73500,
      "d": 256.25,
      "v": 48
    },
    {
      "midi": 79,
      "hit": false,
      "t": 73693.75,
      "d": 43.75,
      "v": 68
    },
    {
      "midi": 76,
      "hit": false,
      "t": 73693.75,
      "d": 50,
      "v": 65
    },
    {
      "midi": 79,
      "hit": false,
      "t": 73781.25,
      "d": 600,
      "v": 65
    },
    {
      "midi": 76,
      "hit": false,
      "t": 73787.5,
      "d": 612.5,
      "v": 61
    },
    {
      "midi": 62,
      "hit": false,
      "t": 73800,
      "d": 150,
      "v": 70
    },
    {
      "midi": 55,
      "hit": false,
      "t": 73800,
      "d": 168.75,
      "v": 63
    },
    {
      "midi": 40,
      "hit": false,
      "t": 73806.25,
      "d": 12.5,
      "v": 86
    },
    {
      "midi": 42,
      "hit": false,
      "t": 73806.25,
      "d": 25,
      "v": 61
    },
    {
      "midi": 40,
      "hit": false,
      "t": 73943.75,
      "d": 6.25,
      "v": 56
    },
    {
      "midi": 64,
      "hit": false,
      "t": 73956.25,
      "d": 437.5,
      "v": 58
    },
    {
      "midi": 60,
      "hit": false,
      "t": 74100,
      "d": 293.75,
      "v": 67
    },
    {
      "midi": 35,
      "hit": false,
      "t": 74106.25,
      "d": 12.5,
      "v": 70
    },
    {
      "midi": 42,
      "hit": false,
      "t": 74106.25,
      "d": 25,
      "v": 68
    },
    {
      "midi": 55,
      "hit": false,
      "t": 74250,
      "d": 131.25,
      "v": 50
    },
    {
      "midi": 35,
      "hit": false,
      "t": 74400,
      "d": 12.5,
      "v": 76
    },
    {
      "midi": 42,
      "hit": false,
      "t": 74400,
      "d": 25,
      "v": 58
    },
    {
      "midi": 64,
      "hit": false,
      "t": 74400,
      "d": 593.75,
      "v": 71
    },
    {
      "midi": 60,
      "hit": false,
      "t": 74400,
      "d": 606.25,
      "v": 67
    },
    {
      "midi": 48,
      "hit": false,
      "t": 74400,
      "d": 2168.75,
      "v": 58
    },
    {
      "midi": 42,
      "hit": false,
      "t": 74706.25,
      "d": 25,
      "v": 58
    },
    {
      "midi": 55,
      "hit": false,
      "t": 74712.5,
      "d": 262.5,
      "v": 52
    },
    {
      "midi": 40,
      "hit": false,
      "t": 75006.25,
      "d": 12.5,
      "v": 86
    },
    {
      "midi": 42,
      "hit": false,
      "t": 75006.25,
      "d": 18.75,
      "v": 60
    },
    {
      "midi": 55,
      "hit": false,
      "t": 75006.25,
      "d": 212.5,
      "v": 60
    },
    {
      "midi": 64,
      "hit": false,
      "t": 75006.25,
      "d": 543.75,
      "v": 63
    },
    {
      "midi": 60,
      "hit": false,
      "t": 75012.5,
      "d": 531.25,
      "v": 72
    },
    {
      "midi": 42,
      "hit": false,
      "t": 75306.25,
      "d": 18.75,
      "v": 64
    },
    {
      "midi": 55,
      "hit": false,
      "t": 75318.75,
      "d": 268.75,
      "v": 50
    },
    {
      "midi": 42,
      "hit": false,
      "t": 75600,
      "d": 25,
      "v": 58
    },
    {
      "midi": 64,
      "hit": false,
      "t": 75600,
      "d": 562.5,
      "v": 69
    },
    {
      "midi": 35,
      "hit": false,
      "t": 75606.25,
      "d": 12.5,
      "v": 70
    },
    {
      "midi": 55,
      "hit": false,
      "t": 75606.25,
      "d": 225,
      "v": 63
    },
    {
      "midi": 60,
      "hit": false,
      "t": 75612.5,
      "d": 593.75,
      "v": 69
    },
    {
      "midi": 42,
      "hit": false,
      "t": 75906.25,
      "d": 18.75,
      "v": 61
    },
    {
      "midi": 55,
      "hit": false,
      "t": 75912.5,
      "d": 281.25,
      "v": 49
    },
    {
      "midi": 40,
      "hit": false,
      "t": 76200,
      "d": 12.5,
      "v": 86
    },
    {
      "midi": 42,
      "hit": false,
      "t": 76200,
      "d": 18.75,
      "v": 61
    },
    {
      "midi": 64,
      "hit": false,
      "t": 76206.25,
      "d": 562.5,
      "v": 67
    },
    {
      "midi": 55,
      "hit": false,
      "t": 76218.75,
      "d": 200,
      "v": 62
    },
    {
      "midi": 60,
      "hit": false,
      "t": 76225,
      "d": 550,
      "v": 67
    },
    {
      "midi": 35,
      "hit": false,
      "t": 76506.25,
      "d": 12.5,
      "v": 70
    },
    {
      "midi": 42,
      "hit": false,
      "t": 76506.25,
      "d": 18.75,
      "v": 63
    },
    {
      "midi": 55,
      "hit": false,
      "t": 76506.25,
      "d": 268.75,
      "v": 48
    },
    {
      "midi": 55,
      "hit": false,
      "t": 76775,
      "d": 12.5,
      "v": 67
    },
    {
      "midi": 62,
      "hit": false,
      "t": 76775,
      "d": 18.75,
      "v": 62
    },
    {
      "midi": 35,
      "hit": false,
      "t": 76800,
      "d": 12.5,
      "v": 72
    },
    {
      "midi": 42,
      "hit": false,
      "t": 76800,
      "d": 18.75,
      "v": 64
    },
    {
      "midi": 55,
      "hit": false,
      "t": 76800,
      "d": 600,
      "v": 70
    },
    {
      "midi": 43,
      "hit": false,
      "t": 76800,
      "d": 2218.75,
      "v": 67
    },
    {
      "midi": 62,
      "hit": false,
      "t": 76812.5,
      "d": 237.5,
      "v": 62
    },
    {
      "midi": 59,
      "hit": false,
      "t": 76812.5,
      "d": 587.5,
      "v": 69
    },
    {
      "midi": 42,
      "hit": false,
      "t": 77112.5,
      "d": 18.75,
      "v": 65
    },
    {
      "midi": 83,
      "hit": false,
      "t": 77312.5,
      "d": 43.75,
      "v": 54
    },
    {
      "midi": 95,
      "hit": false,
      "t": 77325,
      "d": 50,
      "v": 60
    },
    {
      "midi": 42,
      "hit": false,
      "t": 77400,
      "d": 25,
      "v": 63
    },
    {
      "midi": 83,
      "hit": false,
      "t": 77400,
      "d": 425,
      "v": 54
    },
    {
      "midi": 95,
      "hit": false,
      "t": 77400,
      "d": 450,
      "v": 60
    },
    {
      "midi": 40,
      "hit": false,
      "t": 77406.25,
      "d": 12.5,
      "v": 85
    },
    {
      "midi": 55,
      "hit": false,
      "t": 77412.5,
      "d": 562.5,
      "v": 67
    },
    {
      "midi": 59,
      "hit": false,
      "t": 77412.5,
      "d": 575,
      "v": 66
    },
    {
      "midi": 42,
      "hit": false,
      "t": 77700,
      "d": 25,
      "v": 64
    },
    {
      "midi": 35,
      "hit": false,
      "t": 77706.25,
      "d": 12.5,
      "v": 70
    },
    {
      "midi": 62,
      "hit": false,
      "t": 77712.5,
      "d": 268.75,
      "v": 50
    },
    {
      "midi": 35,
      "hit": false,
      "t": 78000,
      "d": 12.5,
      "v": 73
    },
    {
      "midi": 59,
      "hit": false,
      "t": 78000,
      "d": 581.25,
      "v": 65
    },
    {
      "midi": 42,
      "hit": false,
      "t": 78006.25,
      "d": 25,
      "v": 64
    },
    {
      "midi": 62,
      "hit": false,
      "t": 78006.25,
      "d": 193.75,
      "v": 61
    },
    {
      "midi": 55,
      "hit": false,
      "t": 78006.25,
      "d": 587.5,
      "v": 61
    },
    {
      "midi": 42,
      "hit": false,
      "t": 78300,
      "d": 18.75,
      "v": 65
    },
    {
      "midi": 62,
      "hit": false,
      "t": 78300,
      "d": 293.75,
      "v": 48
    },
    {
      "midi": 59,
      "hit": false,
      "t": 78600,
      "d": 587.5,
      "v": 67
    },
    {
      "midi": 40,
      "hit": false,
      "t": 78606.25,
      "d": 12.5,
      "v": 86
    },
    {
      "midi": 42,
      "hit": false,
      "t": 78606.25,
      "d": 25,
      "v": 61
    },
    {
      "midi": 62,
      "hit": false,
      "t": 78606.25,
      "d": 162.5,
      "v": 62
    },
    {
      "midi": 55,
      "hit": false,
      "t": 78612.5,
      "d": 581.25,
      "v": 67
    },
    {
      "midi": 35,
      "hit": false,
      "t": 78906.25,
      "d": 12.5,
      "v": 70
    },
    {
      "midi": 42,
      "hit": false,
      "t": 78906.25,
      "d": 25,
      "v": 68
    },
    {
      "midi": 62,
      "hit": false,
      "t": 78906.25,
      "d": 275,
      "v": 48
    },
    {
      "midi": 35,
      "hit": false,
      "t": 79200,
      "d": 12.5,
      "v": 76
    },
    {
      "midi": 42,
      "hit": false,
      "t": 79200,
      "d": 25,
      "v": 58
    },
    {
      "midi": 59,
      "hit": false,
      "t": 79200,
      "d": 593.75,
      "v": 71
    },
    {
      "midi": 55,
      "hit": false,
      "t": 79200,
      "d": 606.25,
      "v": 67
    },
    {
      "midi": 43,
      "hit": false,
      "t": 79200,
      "d": 2168.75,
      "v": 58
    },
    {
      "midi": 42,
      "hit": false,
      "t": 79506.25,
      "d": 25,
      "v": 58
    },
    {
      "midi": 62,
      "hit": false,
      "t": 79512.5,
      "d": 262.5,
      "v": 52
    },
    {
      "midi": 40,
      "hit": false,
      "t": 79806.25,
      "d": 12.5,
      "v": 86
    },
    {
      "midi": 42,
      "hit": false,
      "t": 79806.25,
      "d": 18.75,
      "v": 60
    },
    {
      "midi": 62,
      "hit": false,
      "t": 79806.25,
      "d": 212.5,
      "v": 60
    },
    {
      "midi": 59,
      "hit": false,
      "t": 79806.25,
      "d": 543.75,
      "v": 63
    },
    {
      "midi": 55,
      "hit": false,
      "t": 79812.5,
      "d": 531.25,
      "v": 72
    },
    {
      "midi": 42,
      "hit": false,
      "t": 80106.25,
      "d": 18.75,
      "v": 64
    },
    {
      "midi": 62,
      "hit": false,
      "t": 80118.75,
      "d": 268.75,
      "v": 50
    },
    {
      "midi": 42,
      "hit": false,
      "t": 80400,
      "d": 25,
      "v": 58
    },
    {
      "midi": 59,
      "hit": false,
      "t": 80400,
      "d": 562.5,
      "v": 69
    },
    {
      "midi": 35,
      "hit": false,
      "t": 80406.25,
      "d": 12.5,
      "v": 70
    },
    {
      "midi": 62,
      "hit": false,
      "t": 80406.25,
      "d": 225,
      "v": 63
    },
    {
      "midi": 55,
      "hit": false,
      "t": 80412.5,
      "d": 593.75,
      "v": 69
    },
    {
      "midi": 42,
      "hit": false,
      "t": 80706.25,
      "d": 18.75,
      "v": 61
    },
    {
      "midi": 62,
      "hit": false,
      "t": 80712.5,
      "d": 281.25,
      "v": 49
    },
    {
      "midi": 40,
      "hit": false,
      "t": 81000,
      "d": 12.5,
      "v": 86
    },
    {
      "midi": 42,
      "hit": false,
      "t": 81000,
      "d": 18.75,
      "v": 61
    },
    {
      "midi": 59,
      "hit": false,
      "t": 81006.25,
      "d": 562.5,
      "v": 67
    },
    {
      "midi": 62,
      "hit": false,
      "t": 81018.75,
      "d": 200,
      "v": 62
    },
    {
      "midi": 55,
      "hit": false,
      "t": 81025,
      "d": 562.5,
      "v": 67
    },
    {
      "midi": 35,
      "hit": false,
      "t": 81306.25,
      "d": 12.5,
      "v": 70
    },
    {
      "midi": 42,
      "hit": false,
      "t": 81306.25,
      "d": 18.75,
      "v": 63
    },
    {
      "midi": 62,
      "hit": false,
      "t": 81306.25,
      "d": 281.25,
      "v": 48
    },
    {
      "midi": 57,
      "hit": false,
      "t": 81587.5,
      "d": 6.25,
      "v": 62
    },
    {
      "midi": 35,
      "hit": false,
      "t": 81600,
      "d": 12.5,
      "v": 72
    },
    {
      "midi": 42,
      "hit": false,
      "t": 81600,
      "d": 18.75,
      "v": 64
    },
    {
      "midi": 62,
      "hit": false,
      "t": 81600,
      "d": 600,
      "v": 70
    },
    {
      "midi": 50,
      "hit": false,
      "t": 81600,
      "d": 2218.75,
      "v": 67
    },
    {
      "midi": 57,
      "hit": false,
      "t": 81612.5,
      "d": 237.5,
      "v": 62
    },
    {
      "midi": 66,
      "hit": false,
      "t": 81612.5,
      "d": 587.5,
      "v": 69
    },
    {
      "midi": 42,
      "hit": false,
      "t": 81912.5,
      "d": 18.75,
      "v": 65
    },
    {
      "midi": 86,
      "hit": false,
      "t": 82112.5,
      "d": 43.75,
      "v": 54
    },
    {
      "midi": 98,
      "hit": false,
      "t": 82125,
      "d": 50,
      "v": 60
    },
    {
      "midi": 42,
      "hit": false,
      "t": 82200,
      "d": 25,
      "v": 63
    },
    {
      "midi": 86,
      "hit": false,
      "t": 82200,
      "d": 425,
      "v": 54
    },
    {
      "midi": 98,
      "hit": false,
      "t": 82200,
      "d": 450,
      "v": 60
    },
    {
      "midi": 40,
      "hit": false,
      "t": 82206.25,
      "d": 12.5,
      "v": 85
    },
    {
      "midi": 62,
      "hit": false,
      "t": 82212.5,
      "d": 562.5,
      "v": 67
    },
    {
      "midi": 66,
      "hit": false,
      "t": 82212.5,
      "d": 575,
      "v": 66
    },
    {
      "midi": 42,
      "hit": false,
      "t": 82500,
      "d": 25,
      "v": 64
    },
    {
      "midi": 35,
      "hit": false,
      "t": 82506.25,
      "d": 12.5,
      "v": 70
    },
    {
      "midi": 57,
      "hit": false,
      "t": 82512.5,
      "d": 268.75,
      "v": 50
    },
    {
      "midi": 35,
      "hit": false,
      "t": 82800,
      "d": 12.5,
      "v": 73
    },
    {
      "midi": 66,
      "hit": false,
      "t": 82800,
      "d": 581.25,
      "v": 65
    },
    {
      "midi": 42,
      "hit": false,
      "t": 82806.25,
      "d": 25,
      "v": 64
    },
    {
      "midi": 57,
      "hit": false,
      "t": 82806.25,
      "d": 193.75,
      "v": 61
    },
    {
      "midi": 62,
      "hit": false,
      "t": 82806.25,
      "d": 587.5,
      "v": 61
    },
    {
      "midi": 42,
      "hit": false,
      "t": 83100,
      "d": 18.75,
      "v": 65
    },
    {
      "midi": 57,
      "hit": false,
      "t": 83100,
      "d": 293.75,
      "v": 48
    },
    {
      "midi": 66,
      "hit": false,
      "t": 83400,
      "d": 587.5,
      "v": 67
    },
    {
      "midi": 40,
      "hit": false,
      "t": 83406.25,
      "d": 12.5,
      "v": 86
    },
    {
      "midi": 42,
      "hit": false,
      "t": 83406.25,
      "d": 25,
      "v": 61
    },
    {
      "midi": 57,
      "hit": false,
      "t": 83406.25,
      "d": 162.5,
      "v": 62
    },
    {
      "midi": 62,
      "hit": false,
      "t": 83412.5,
      "d": 581.25,
      "v": 67
    },
    {
      "midi": 35,
      "hit": false,
      "t": 83706.25,
      "d": 12.5,
      "v": 70
    },
    {
      "midi": 42,
      "hit": false,
      "t": 83706.25,
      "d": 25,
      "v": 68
    },
    {
      "midi": 57,
      "hit": false,
      "t": 83706.25,
      "d": 275,
      "v": 48
    },
    {
      "midi": 66,
      "hit": false,
      "t": 84000,
      "d": 593.75,
      "v": 71
    },
    {
      "midi": 60,
      "hit": false,
      "t": 84000,
      "d": 606.25,
      "v": 67
    },
    {
      "midi": 50,
      "hit": false,
      "t": 84000,
      "d": 1162.5,
      "v": 58
    },
    {
      "midi": 42,
      "hit": false,
      "t": 84306.25,
      "d": 25,
      "v": 58
    },
    {
      "midi": 57,
      "hit": false,
      "t": 84312.5,
      "d": 262.5,
      "v": 52
    },
    {
      "midi": 40,
      "hit": false,
      "t": 84606.25,
      "d": 12.5,
      "v": 86
    },
    {
      "midi": 42,
      "hit": false,
      "t": 84606.25,
      "d": 18.75,
      "v": 60
    },
    {
      "midi": 57,
      "hit": false,
      "t": 84606.25,
      "d": 212.5,
      "v": 60
    },
    {
      "midi": 66,
      "hit": false,
      "t": 84606.25,
      "d": 543.75,
      "v": 63
    },
    {
      "midi": 60,
      "hit": false,
      "t": 84612.5,
      "d": 531.25,
      "v": 72
    },
    {
      "midi": 42,
      "hit": false,
      "t": 84906.25,
      "d": 18.75,
      "v": 64
    },
    {
      "midi": 57,
      "hit": false,
      "t": 84918.75,
      "d": 243.75,
      "v": 50
    },
    {
      "midi": 78,
      "hit": false,
      "t": 85193.75,
      "d": 475,
      "v": 64
    },
    {
      "midi": 35,
      "hit": false,
      "t": 85200,
      "d": 12.5,
      "v": 73
    },
    {
      "midi": 66,
      "hit": false,
      "t": 85200,
      "d": 581.25,
      "v": 65
    },
    {
      "midi": 84,
      "hit": false,
      "t": 85200,
      "d": 437.5,
      "v": 69
    },
    {
      "midi": 42,
      "hit": false,
      "t": 85206.25,
      "d": 25,
      "v": 64
    },
    {
      "midi": 60,
      "hit": false,
      "t": 85206.25,
      "d": 568.75,
      "v": 61
    },
    {
      "midi": 46,
      "hit": false,
      "t": 85500,
      "d": 18.75,
      "v": 68
    },
    {
      "midi": 57,
      "hit": false,
      "t": 85500,
      "d": 256.25,
      "v": 48
    },
    {
      "midi": 78,
      "hit": false,
      "t": 85693.75,
      "d": 43.75,
      "v": 68
    },
    {
      "midi": 74,
      "hit": false,
      "t": 85693.75,
      "d": 50,
      "v": 65
    },
    {
      "midi": 78,
      "hit": false,
      "t": 85781.25,
      "d": 600,
      "v": 65
    },
    {
      "midi": 74,
      "hit": false,
      "t": 85787.5,
      "d": 612.5,
      "v": 61
    },
    {
      "midi": 62,
      "hit": false,
      "t": 85800,
      "d": 150,
      "v": 70
    },
    {
      "midi": 57,
      "hit": false,
      "t": 85800,
      "d": 168.75,
      "v": 63
    },
    {
      "midi": 40,
      "hit": false,
      "t": 85806.25,
      "d": 12.5,
      "v": 86
    },
    {
      "midi": 42,
      "hit": false,
      "t": 85806.25,
      "d": 25,
      "v": 61
    },
    {
      "midi": 40,
      "hit": false,
      "t": 85943.75,
      "d": 6.25,
      "v": 56
    },
    {
      "midi": 66,
      "hit": false,
      "t": 85956.25,
      "d": 437.5,
      "v": 58
    },
    {
      "midi": 60,
      "hit": false,
      "t": 86100,
      "d": 293.75,
      "v": 67
    },
    {
      "midi": 35,
      "hit": false,
      "t": 86106.25,
      "d": 12.5,
      "v": 70
    },
    {
      "midi": 42,
      "hit": false,
      "t": 86106.25,
      "d": 25,
      "v": 68
    },
    {
      "midi": 57,
      "hit": false,
      "t": 86250,
      "d": 131.25,
      "v": 50
    },
    {
      "midi": 35,
      "hit": false,
      "t": 86400,
      "d": 12.5,
      "v": 76
    },
    {
      "midi": 42,
      "hit": false,
      "t": 86400,
      "d": 18.75,
      "v": 58
    },
    {
      "midi": 50,
      "hit": false,
      "t": 86400,
      "d": 18.75,
      "v": 58
    },
    {
      "midi": 57,
      "hit": false,
      "t": 86400,
      "d": 18.75,
      "v": 67
    },
    {
      "midi": 60,
      "hit": false,
      "t": 86400,
      "d": 18.75,
      "v": 67
    },
    {
      "midi": 66,
      "hit": false,
      "t": 86400,
      "d": 18.75,
      "v": 71
    },
    {
      "midi": 59,
      "hit": false,
      "t": 86418.75,
      "d": 575,
      "v": 71
    },
    {
      "midi": 55,
      "hit": false,
      "t": 86418.75,
      "d": 587.5,
      "v": 67
    },
    {
      "midi": 43,
      "hit": false,
      "t": 86418.75,
      "d": 2150,
      "v": 58
    },
    {
      "midi": 42,
      "hit": false,
      "t": 86706.25,
      "d": 25,
      "v": 58
    },
    {
      "midi": 62,
      "hit": false,
      "t": 86712.5,
      "d": 262.5,
      "v": 52
    },
    {
      "midi": 40,
      "hit": false,
      "t": 87006.25,
      "d": 12.5,
      "v": 86
    },
    {
      "midi": 42,
      "hit": false,
      "t": 87006.25,
      "d": 18.75,
      "v": 60
    },
    {
      "midi": 62,
      "hit": false,
      "t": 87006.25,
      "d": 212.5,
      "v": 60
    },
    {
      "midi": 59,
      "hit": false,
      "t": 87006.25,
      "d": 543.75,
      "v": 63
    },
    {
      "midi": 55,
      "hit": false,
      "t": 87012.5,
      "d": 531.25,
      "v": 72
    },
    {
      "midi": 42,
      "hit": false,
      "t": 87306.25,
      "d": 18.75,
      "v": 64
    },
    {
      "midi": 62,
      "hit": false,
      "t": 87318.75,
      "d": 268.75,
      "v": 50
    },
    {
      "midi": 42,
      "hit": false,
      "t": 87600,
      "d": 25,
      "v": 58
    },
    {
      "midi": 59,
      "hit": false,
      "t": 87600,
      "d": 562.5,
      "v": 69
    },
    {
      "midi": 35,
      "hit": false,
      "t": 87606.25,
      "d": 12.5,
      "v": 70
    },
    {
      "midi": 62,
      "hit": false,
      "t": 87606.25,
      "d": 225,
      "v": 63
    },
    {
      "midi": 55,
      "hit": false,
      "t": 87612.5,
      "d": 593.75,
      "v": 69
    },
    {
      "midi": 42,
      "hit": false,
      "t": 87906.25,
      "d": 18.75,
      "v": 61
    },
    {
      "midi": 62,
      "hit": false,
      "t": 87912.5,
      "d": 281.25,
      "v": 49
    },
    {
      "midi": 40,
      "hit": false,
      "t": 88200,
      "d": 12.5,
      "v": 86
    },
    {
      "midi": 42,
      "hit": false,
      "t": 88200,
      "d": 18.75,
      "v": 61
    },
    {
      "midi": 59,
      "hit": false,
      "t": 88206.25,
      "d": 562.5,
      "v": 67
    },
    {
      "midi": 62,
      "hit": false,
      "t": 88218.75,
      "d": 200,
      "v": 62
    },
    {
      "midi": 55,
      "hit": false,
      "t": 88225,
      "d": 562.5,
      "v": 67
    },
    {
      "midi": 35,
      "hit": false,
      "t": 88506.25,
      "d": 12.5,
      "v": 70
    },
    {
      "midi": 42,
      "hit": false,
      "t": 88506.25,
      "d": 18.75,
      "v": 63
    },
    {
      "midi": 62,
      "hit": false,
      "t": 88506.25,
      "d": 287.5,
      "v": 48
    },
    {
      "midi": 35,
      "hit": false,
      "t": 88800,
      "d": 12.5,
      "v": 72
    },
    {
      "midi": 42,
      "hit": false,
      "t": 88800,
      "d": 18.75,
      "v": 64
    },
    {
      "midi": 65,
      "hit": false,
      "t": 88800,
      "d": 600,
      "v": 70
    },
    {
      "midi": 43,
      "hit": false,
      "t": 88800,
      "d": 2218.75,
      "v": 67
    },
    {
      "midi": 62,
      "hit": false,
      "t": 88812.5,
      "d": 237.5,
      "v": 62
    },
    {
      "midi": 59,
      "hit": false,
      "t": 88812.5,
      "d": 587.5,
      "v": 69
    },
    {
      "midi": 42,
      "hit": false,
      "t": 89112.5,
      "d": 18.75,
      "v": 65
    },
    {
      "midi": 83,
      "hit": false,
      "t": 89312.5,
      "d": 43.75,
      "v": 54
    },
    {
      "midi": 95,
      "hit": false,
      "t": 89325,
      "d": 50,
      "v": 60
    },
    {
      "midi": 42,
      "hit": false,
      "t": 89400,
      "d": 25,
      "v": 63
    },
    {
      "midi": 83,
      "hit": false,
      "t": 89400,
      "d": 425,
      "v": 54
    },
    {
      "midi": 95,
      "hit": false,
      "t": 89400,
      "d": 450,
      "v": 60
    },
    {
      "midi": 40,
      "hit": false,
      "t": 89406.25,
      "d": 12.5,
      "v": 85
    },
    {
      "midi": 65,
      "hit": false,
      "t": 89412.5,
      "d": 562.5,
      "v": 67
    },
    {
      "midi": 59,
      "hit": false,
      "t": 89412.5,
      "d": 575,
      "v": 66
    },
    {
      "midi": 42,
      "hit": false,
      "t": 89700,
      "d": 25,
      "v": 64
    },
    {
      "midi": 35,
      "hit": false,
      "t": 89706.25,
      "d": 12.5,
      "v": 70
    },
    {
      "midi": 62,
      "hit": false,
      "t": 89712.5,
      "d": 268.75,
      "v": 50
    },
    {
      "midi": 35,
      "hit": false,
      "t": 90000,
      "d": 12.5,
      "v": 73
    },
    {
      "midi": 59,
      "hit": false,
      "t": 90000,
      "d": 581.25,
      "v": 65
    },
    {
      "midi": 42,
      "hit": false,
      "t": 90006.25,
      "d": 25,
      "v": 64
    },
    {
      "midi": 62,
      "hit": false,
      "t": 90006.25,
      "d": 193.75,
      "v": 61
    },
    {
      "midi": 65,
      "hit": false,
      "t": 90006.25,
      "d": 587.5,
      "v": 61
    },
    {
      "midi": 42,
      "hit": false,
      "t": 90300,
      "d": 18.75,
      "v": 65
    },
    {
      "midi": 62,
      "hit": false,
      "t": 90300,
      "d": 293.75,
      "v": 48
    },
    {
      "midi": 59,
      "hit": false,
      "t": 90600,
      "d": 568.75,
      "v": 67
    },
    {
      "midi": 40,
      "hit": false,
      "t": 90606.25,
      "d": 12.5,
      "v": 86
    },
    {
      "midi": 42,
      "hit": false,
      "t": 90606.25,
      "d": 25,
      "v": 61
    },
    {
      "midi": 62,
      "hit": false,
      "t": 90606.25,
      "d": 162.5,
      "v": 62
    },
    {
      "midi": 65,
      "hit": false,
      "t": 90612.5,
      "d": 556.25,
      "v": 67
    },
    {
      "midi": 35,
      "hit": false,
      "t": 90906.25,
      "d": 12.5,
      "v": 70
    },
    {
      "midi": 42,
      "hit": false,
      "t": 90906.25,
      "d": 25,
      "v": 68
    },
    {
      "midi": 62,
      "hit": false,
      "t": 90906.25,
      "d": 262.5,
      "v": 48
    },
    {
      "midi": 55,
      "hit": false,
      "t": 91168.75,
      "d": 12.5,
      "v": 62
    },
    {
      "midi": 64,
      "hit": false,
      "t": 91168.75,
      "d": 18.75,
      "v": 67
    },
    {
      "midi": 60,
      "hit": false,
      "t": 91168.75,
      "d": 25,
      "v": 67
    },
    {
      "midi": 35,
      "hit": false,
      "t": 91200,
      "d": 12.5,
      "v": 76
    },
    {
      "midi": 42,
      "hit": false,
      "t": 91200,
      "d": 25,
      "v": 58
    },
    {
      "midi": 64,
      "hit": false,
      "t": 91200,
      "d": 593.75,
      "v": 71
    },
    {
      "midi": 60,
      "hit": false,
      "t": 91200,
      "d": 606.25,
      "v": 67
    },
    {
      "midi": 48,
      "hit": false,
      "t": 91200,
      "d": 2168.75,
      "v": 58
    },
    {
      "midi": 42,
      "hit": false,
      "t": 91506.25,
      "d": 25,
      "v": 58
    },
    {
      "midi": 55,
      "hit": false,
      "t": 91512.5,
      "d": 262.5,
      "v": 52
    },
    {
      "midi": 40,
      "hit": false,
      "t": 91806.25,
      "d": 12.5,
      "v": 86
    },
    {
      "midi": 42,
      "hit": false,
      "t": 91806.25,
      "d": 18.75,
      "v": 60
    },
    {
      "midi": 55,
      "hit": false,
      "t": 91806.25,
      "d": 212.5,
      "v": 60
    },
    {
      "midi": 64,
      "hit": false,
      "t": 91806.25,
      "d": 543.75,
      "v": 63
    },
    {
      "midi": 60,
      "hit": false,
      "t": 91812.5,
      "d": 531.25,
      "v": 72
    },
    {
      "midi": 42,
      "hit": false,
      "t": 92106.25,
      "d": 18.75,
      "v": 64
    },
    {
      "midi": 55,
      "hit": false,
      "t": 92118.75,
      "d": 268.75,
      "v": 50
    },
    {
      "midi": 42,
      "hit": false,
      "t": 92400,
      "d": 25,
      "v": 58
    },
    {
      "midi": 64,
      "hit": false,
      "t": 92400,
      "d": 562.5,
      "v": 69
    },
    {
      "midi": 35,
      "hit": false,
      "t": 92406.25,
      "d": 12.5,
      "v": 70
    },
    {
      "midi": 55,
      "hit": false,
      "t": 92406.25,
      "d": 225,
      "v": 63
    },
    {
      "midi": 60,
      "hit": false,
      "t": 92412.5,
      "d": 593.75,
      "v": 69
    },
    {
      "midi": 42,
      "hit": false,
      "t": 92706.25,
      "d": 18.75,
      "v": 61
    },
    {
      "midi": 55,
      "hit": false,
      "t": 92712.5,
      "d": 281.25,
      "v": 49
    },
    {
      "midi": 40,
      "hit": false,
      "t": 93000,
      "d": 12.5,
      "v": 86
    },
    {
      "midi": 42,
      "hit": false,
      "t": 93000,
      "d": 18.75,
      "v": 61
    },
    {
      "midi": 64,
      "hit": false,
      "t": 93006.25,
      "d": 562.5,
      "v": 67
    },
    {
      "midi": 55,
      "hit": false,
      "t": 93018.75,
      "d": 200,
      "v": 62
    },
    {
      "midi": 60,
      "hit": false,
      "t": 93025,
      "d": 562.5,
      "v": 67
    },
    {
      "midi": 35,
      "hit": false,
      "t": 93306.25,
      "d": 12.5,
      "v": 70
    },
    {
      "midi": 42,
      "hit": false,
      "t": 93306.25,
      "d": 18.75,
      "v": 63
    },
    {
      "midi": 55,
      "hit": false,
      "t": 93306.25,
      "d": 287.5,
      "v": 48
    },
    {
      "midi": 35,
      "hit": false,
      "t": 93600,
      "d": 12.5,
      "v": 72
    },
    {
      "midi": 42,
      "hit": false,
      "t": 93600,
      "d": 18.75,
      "v": 64
    },
    {
      "midi": 60,
      "hit": false,
      "t": 93600,
      "d": 600,
      "v": 70
    },
    {
      "midi": 48,
      "hit": false,
      "t": 93600,
      "d": 2218.75,
      "v": 67
    },
    {
      "midi": 55,
      "hit": false,
      "t": 93612.5,
      "d": 237.5,
      "v": 62
    },
    {
      "midi": 64,
      "hit": false,
      "t": 93612.5,
      "d": 587.5,
      "v": 69
    },
    {
      "midi": 42,
      "hit": false,
      "t": 93912.5,
      "d": 18.75,
      "v": 65
    },
    {
      "midi": 84,
      "hit": false,
      "t": 94112.5,
      "d": 43.75,
      "v": 54
    },
    {
      "midi": 96,
      "hit": false,
      "t": 94125,
      "d": 50,
      "v": 60
    },
    {
      "midi": 42,
      "hit": false,
      "t": 94200,
      "d": 25,
      "v": 63
    },
    {
      "midi": 84,
      "hit": false,
      "t": 94200,
      "d": 425,
      "v": 54
    },
    {
      "midi": 96,
      "hit": false,
      "t": 94200,
      "d": 450,
      "v": 60
    },
    {
      "midi": 40,
      "hit": false,
      "t": 94206.25,
      "d": 12.5,
      "v": 85
    },
    {
      "midi": 60,
      "hit": false,
      "t": 94212.5,
      "d": 562.5,
      "v": 67
    },
    {
      "midi": 64,
      "hit": false,
      "t": 94212.5,
      "d": 575,
      "v": 66
    },
    {
      "midi": 42,
      "hit": false,
      "t": 94500,
      "d": 25,
      "v": 64
    },
    {
      "midi": 35,
      "hit": false,
      "t": 94506.25,
      "d": 12.5,
      "v": 70
    },
    {
      "midi": 55,
      "hit": false,
      "t": 94512.5,
      "d": 268.75,
      "v": 50
    },
    {
      "midi": 35,
      "hit": false,
      "t": 94800,
      "d": 12.5,
      "v": 73
    },
    {
      "midi": 64,
      "hit": false,
      "t": 94800,
      "d": 581.25,
      "v": 65
    },
    {
      "midi": 42,
      "hit": false,
      "t": 94806.25,
      "d": 25,
      "v": 64
    },
    {
      "midi": 55,
      "hit": false,
      "t": 94806.25,
      "d": 193.75,
      "v": 61
    },
    {
      "midi": 60,
      "hit": false,
      "t": 94806.25,
      "d": 587.5,
      "v": 61
    },
    {
      "midi": 42,
      "hit": false,
      "t": 95100,
      "d": 18.75,
      "v": 65
    },
    {
      "midi": 55,
      "hit": false,
      "t": 95100,
      "d": 293.75,
      "v": 48
    },
    {
      "midi": 64,
      "hit": false,
      "t": 95400,
      "d": 581.25,
      "v": 67
    },
    {
      "midi": 40,
      "hit": false,
      "t": 95406.25,
      "d": 12.5,
      "v": 86
    },
    {
      "midi": 42,
      "hit": false,
      "t": 95406.25,
      "d": 25,
      "v": 61
    },
    {
      "midi": 55,
      "hit": false,
      "t": 95406.25,
      "d": 162.5,
      "v": 62
    },
    {
      "midi": 60,
      "hit": false,
      "t": 95412.5,
      "d": 568.75,
      "v": 67
    },
    {
      "midi": 35,
      "hit": false,
      "t": 95706.25,
      "d": 12.5,
      "v": 70
    },
    {
      "midi": 42,
      "hit": false,
      "t": 95706.25,
      "d": 25,
      "v": 68
    },
    {
      "midi": 55,
      "hit": false,
      "t": 95706.25,
      "d": 275,
      "v": 48
    },
    {
      "midi": 59,
      "hit": false,
      "t": 95981.25,
      "d": 6.25,
      "v": 67
    },
    {
      "midi": 55,
      "hit": false,
      "t": 95981.25,
      "d": 12.5,
      "v": 67
    },
    {
      "midi": 62,
      "hit": false,
      "t": 95981.25,
      "d": 18.75,
      "v": 48
    },
    {
      "midi": 35,
      "hit": false,
      "t": 96000,
      "d": 12.5,
      "v": 76
    },
    {
      "midi": 42,
      "hit": false,
      "t": 96000,
      "d": 25,
      "v": 58
    },
    {
      "midi": 59,
      "hit": false,
      "t": 96000,
      "d": 593.75,
      "v": 71
    },
    {
      "midi": 55,
      "hit": false,
      "t": 96000,
      "d": 606.25,
      "v": 67
    },
    {
      "midi": 43,
      "hit": false,
      "t": 96000,
      "d": 2168.75,
      "v": 58
    },
    {
      "midi": 42,
      "hit": false,
      "t": 96306.25,
      "d": 25,
      "v": 58
    },
    {
      "midi": 62,
      "hit": false,
      "t": 96312.5,
      "d": 262.5,
      "v": 52
    },
    {
      "midi": 40,
      "hit": false,
      "t": 96606.25,
      "d": 12.5,
      "v": 86
    },
    {
      "midi": 42,
      "hit": false,
      "t": 96606.25,
      "d": 18.75,
      "v": 60
    },
    {
      "midi": 62,
      "hit": false,
      "t": 96606.25,
      "d": 212.5,
      "v": 60
    },
    {
      "midi": 59,
      "hit": false,
      "t": 96606.25,
      "d": 543.75,
      "v": 63
    },
    {
      "midi": 55,
      "hit": false,
      "t": 96612.5,
      "d": 531.25,
      "v": 72
    },
    {
      "midi": 42,
      "hit": false,
      "t": 96906.25,
      "d": 18.75,
      "v": 64
    },
    {
      "midi": 62,
      "hit": false,
      "t": 96918.75,
      "d": 268.75,
      "v": 50
    },
    {
      "midi": 42,
      "hit": false,
      "t": 97200,
      "d": 25,
      "v": 58
    },
    {
      "midi": 59,
      "hit": false,
      "t": 97200,
      "d": 562.5,
      "v": 69
    },
    {
      "midi": 35,
      "hit": false,
      "t": 97206.25,
      "d": 12.5,
      "v": 70
    },
    {
      "midi": 62,
      "hit": false,
      "t": 97206.25,
      "d": 225,
      "v": 63
    },
    {
      "midi": 55,
      "hit": false,
      "t": 97212.5,
      "d": 593.75,
      "v": 69
    },
    {
      "midi": 42,
      "hit": false,
      "t": 97506.25,
      "d": 18.75,
      "v": 61
    },
    {
      "midi": 62,
      "hit": false,
      "t": 97512.5,
      "d": 281.25,
      "v": 49
    },
    {
      "midi": 40,
      "hit": false,
      "t": 97800,
      "d": 12.5,
      "v": 86
    },
    {
      "midi": 42,
      "hit": false,
      "t": 97800,
      "d": 18.75,
      "v": 61
    },
    {
      "midi": 59,
      "hit": false,
      "t": 97806.25,
      "d": 562.5,
      "v": 67
    },
    {
      "midi": 62,
      "hit": false,
      "t": 97818.75,
      "d": 200,
      "v": 62
    },
    {
      "midi": 55,
      "hit": false,
      "t": 97825,
      "d": 550,
      "v": 67
    },
    {
      "midi": 35,
      "hit": false,
      "t": 98106.25,
      "d": 12.5,
      "v": 70
    },
    {
      "midi": 42,
      "hit": false,
      "t": 98106.25,
      "d": 18.75,
      "v": 63
    },
    {
      "midi": 62,
      "hit": false,
      "t": 98106.25,
      "d": 268.75,
      "v": 48
    },
    {
      "midi": 62,
      "hit": false,
      "t": 98375,
      "d": 12.5,
      "v": 67
    },
    {
      "midi": 57,
      "hit": false,
      "t": 98375,
      "d": 18.75,
      "v": 62
    },
    {
      "midi": 35,
      "hit": false,
      "t": 98400,
      "d": 12.5,
      "v": 72
    },
    {
      "midi": 42,
      "hit": false,
      "t": 98400,
      "d": 18.75,
      "v": 64
    },
    {
      "midi": 62,
      "hit": false,
      "t": 98400,
      "d": 600,
      "v": 70
    },
    {
      "midi": 50,
      "hit": false,
      "t": 98400,
      "d": 1200,
      "v": 67
    },
    {
      "midi": 57,
      "hit": false,
      "t": 98412.5,
      "d": 237.5,
      "v": 62
    },
    {
      "midi": 66,
      "hit": false,
      "t": 98412.5,
      "d": 587.5,
      "v": 69
    },
    {
      "midi": 42,
      "hit": false,
      "t": 98712.5,
      "d": 18.75,
      "v": 65
    },
    {
      "midi": 86,
      "hit": false,
      "t": 98912.5,
      "d": 43.75,
      "v": 54
    },
    {
      "midi": 98,
      "hit": false,
      "t": 98925,
      "d": 50,
      "v": 60
    },
    {
      "midi": 42,
      "hit": false,
      "t": 99000,
      "d": 25,
      "v": 63
    },
    {
      "midi": 86,
      "hit": false,
      "t": 99000,
      "d": 425,
      "v": 54
    },
    {
      "midi": 98,
      "hit": false,
      "t": 99000,
      "d": 450,
      "v": 60
    },
    {
      "midi": 40,
      "hit": false,
      "t": 99006.25,
      "d": 12.5,
      "v": 85
    },
    {
      "midi": 62,
      "hit": false,
      "t": 99012.5,
      "d": 556.25,
      "v": 67
    },
    {
      "midi": 66,
      "hit": false,
      "t": 99012.5,
      "d": 575,
      "v": 66
    },
    {
      "midi": 42,
      "hit": false,
      "t": 99300,
      "d": 25,
      "v": 64
    },
    {
      "midi": 35,
      "hit": false,
      "t": 99306.25,
      "d": 12.5,
      "v": 70
    },
    {
      "midi": 57,
      "hit": false,
      "t": 99312.5,
      "d": 268.75,
      "v": 50
    },
    {
      "midi": 60,
      "hit": false,
      "t": 99568.75,
      "d": 6.25,
      "v": 67
    },
    {
      "midi": 35,
      "hit": false,
      "t": 99600,
      "d": 12.5,
      "v": 73
    },
    {
      "midi": 66,
      "hit": false,
      "t": 99600,
      "d": 581.25,
      "v": 65
    },
    {
      "midi": 50,
      "hit": false,
      "t": 99600,
      "d": 1018.75,
      "v": 67
    },
    {
      "midi": 42,
      "hit": false,
      "t": 99606.25,
      "d": 25,
      "v": 64
    },
    {
      "midi": 57,
      "hit": false,
      "t": 99606.25,
      "d": 193.75,
      "v": 61
    },
    {
      "midi": 60,
      "hit": false,
      "t": 99606.25,
      "d": 587.5,
      "v": 61
    },
    {
      "midi": 42,
      "hit": false,
      "t": 99900,
      "d": 18.75,
      "v": 65
    },
    {
      "midi": 57,
      "hit": false,
      "t": 99900,
      "d": 293.75,
      "v": 48
    },
    {
      "midi": 66,
      "hit": false,
      "t": 100200,
      "d": 575,
      "v": 67
    },
    {
      "midi": 40,
      "hit": false,
      "t": 100206.25,
      "d": 12.5,
      "v": 86
    },
    {
      "midi": 42,
      "hit": false,
      "t": 100206.25,
      "d": 25,
      "v": 61
    },
    {
      "midi": 57,
      "hit": false,
      "t": 100206.25,
      "d": 162.5,
      "v": 62
    },
    {
      "midi": 60,
      "hit": false,
      "t": 100212.5,
      "d": 562.5,
      "v": 67
    },
    {
      "midi": 35,
      "hit": false,
      "t": 100506.25,
      "d": 12.5,
      "v": 70
    },
    {
      "midi": 42,
      "hit": false,
      "t": 100506.25,
      "d": 25,
      "v": 68
    },
    {
      "midi": 57,
      "hit": false,
      "t": 100506.25,
      "d": 268.75,
      "v": 48
    },
    {
      "midi": 62,
      "hit": false,
      "t": 100775,
      "d": 6.25,
      "v": 62
    },
    {
      "midi": 59,
      "hit": false,
      "t": 100775,
      "d": 12.5,
      "v": 67
    },
    {
      "midi": 55,
      "hit": false,
      "t": 100775,
      "d": 18.75,
      "v": 67
    },
    {
      "midi": 35,
      "hit": false,
      "t": 100800,
      "d": 12.5,
      "v": 76
    },
    {
      "midi": 42,
      "hit": false,
      "t": 100800,
      "d": 25,
      "v": 58
    },
    {
      "midi": 59,
      "hit": false,
      "t": 100800,
      "d": 593.75,
      "v": 71
    },
    {
      "midi": 55,
      "hit": false,
      "t": 100800,
      "d": 606.25,
      "v": 67
    },
    {
      "midi": 43,
      "hit": false,
      "t": 100800,
      "d": 2168.75,
      "v": 58
    },
    {
      "midi": 42,
      "hit": false,
      "t": 101106.25,
      "d": 25,
      "v": 58
    },
    {
      "midi": 62,
      "hit": false,
      "t": 101112.5,
      "d": 262.5,
      "v": 52
    },
    {
      "midi": 40,
      "hit": false,
      "t": 101406.25,
      "d": 12.5,
      "v": 86
    },
    {
      "midi": 42,
      "hit": false,
      "t": 101406.25,
      "d": 18.75,
      "v": 60
    },
    {
      "midi": 62,
      "hit": false,
      "t": 101406.25,
      "d": 212.5,
      "v": 60
    },
    {
      "midi": 59,
      "hit": false,
      "t": 101406.25,
      "d": 543.75,
      "v": 63
    },
    {
      "midi": 55,
      "hit": false,
      "t": 101412.5,
      "d": 531.25,
      "v": 72
    },
    {
      "midi": 42,
      "hit": false,
      "t": 101706.25,
      "d": 18.75,
      "v": 64
    },
    {
      "midi": 62,
      "hit": false,
      "t": 101718.75,
      "d": 268.75,
      "v": 50
    },
    {
      "midi": 42,
      "hit": false,
      "t": 102000,
      "d": 25,
      "v": 58
    },
    {
      "midi": 59,
      "hit": false,
      "t": 102000,
      "d": 562.5,
      "v": 69
    },
    {
      "midi": 35,
      "hit": false,
      "t": 102006.25,
      "d": 12.5,
      "v": 70
    },
    {
      "midi": 62,
      "hit": false,
      "t": 102006.25,
      "d": 225,
      "v": 63
    },
    {
      "midi": 55,
      "hit": false,
      "t": 102012.5,
      "d": 593.75,
      "v": 69
    },
    {
      "midi": 42,
      "hit": false,
      "t": 102306.25,
      "d": 18.75,
      "v": 61
    },
    {
      "midi": 62,
      "hit": false,
      "t": 102312.5,
      "d": 281.25,
      "v": 49
    },
    {
      "midi": 40,
      "hit": false,
      "t": 102600,
      "d": 12.5,
      "v": 86
    },
    {
      "midi": 42,
      "hit": false,
      "t": 102600,
      "d": 18.75,
      "v": 61
    },
    {
      "midi": 59,
      "hit": false,
      "t": 102606.25,
      "d": 562.5,
      "v": 67
    },
    {
      "midi": 62,
      "hit": false,
      "t": 102618.75,
      "d": 200,
      "v": 62
    },
    {
      "midi": 55,
      "hit": false,
      "t": 102625,
      "d": 562.5,
      "v": 67
    },
    {
      "midi": 35,
      "hit": false,
      "t": 102906.25,
      "d": 12.5,
      "v": 70
    },
    {
      "midi": 42,
      "hit": false,
      "t": 102906.25,
      "d": 18.75,
      "v": 63
    },
    {
      "midi": 62,
      "hit": false,
      "t": 102906.25,
      "d": 287.5,
      "v": 48
    },
    {
      "midi": 35,
      "hit": false,
      "t": 103200,
      "d": 12.5,
      "v": 72
    },
    {
      "midi": 42,
      "hit": false,
      "t": 103200,
      "d": 12.5,
      "v": 64
    },
    {
      "midi": 55,
      "hit": false,
      "t": 103200,
      "d": 12.5,
      "v": 70
    },
    {
      "midi": 43,
      "hit": false,
      "t": 103200,
      "d": 2218.75,
      "v": 67
    },
    {
      "midi": 62,
      "hit": false,
      "t": 103212.5,
      "d": 237.5,
      "v": 62
    },
    {
      "midi": 59,
      "hit": false,
      "t": 103212.5,
      "d": 587.5,
      "v": 69
    },
    {
      "midi": 65,
      "hit": false,
      "t": 103212.5,
      "d": 587.5,
      "v": 70
    },
    {
      "midi": 42,
      "hit": false,
      "t": 103512.5,
      "d": 18.75,
      "v": 65
    },
    {
      "midi": 83,
      "hit": false,
      "t": 103712.5,
      "d": 43.75,
      "v": 54
    },
    {
      "midi": 95,
      "hit": false,
      "t": 103725,
      "d": 50,
      "v": 60
    },
    {
      "midi": 42,
      "hit": false,
      "t": 103800,
      "d": 25,
      "v": 63
    },
    {
      "midi": 83,
      "hit": false,
      "t": 103800,
      "d": 425,
      "v": 54
    },
    {
      "midi": 95,
      "hit": false,
      "t": 103800,
      "d": 450,
      "v": 60
    },
    {
      "midi": 40,
      "hit": false,
      "t": 103806.25,
      "d": 12.5,
      "v": 85
    },
    {
      "midi": 65,
      "hit": false,
      "t": 103812.5,
      "d": 562.5,
      "v": 67
    },
    {
      "midi": 59,
      "hit": false,
      "t": 103812.5,
      "d": 575,
      "v": 66
    },
    {
      "midi": 42,
      "hit": false,
      "t": 104100,
      "d": 25,
      "v": 64
    },
    {
      "midi": 35,
      "hit": false,
      "t": 104106.25,
      "d": 12.5,
      "v": 70
    },
    {
      "midi": 62,
      "hit": false,
      "t": 104112.5,
      "d": 268.75,
      "v": 50
    },
    {
      "midi": 35,
      "hit": false,
      "t": 104400,
      "d": 12.5,
      "v": 73
    },
    {
      "midi": 59,
      "hit": false,
      "t": 104400,
      "d": 581.25,
      "v": 65
    },
    {
      "midi": 42,
      "hit": false,
      "t": 104406.25,
      "d": 25,
      "v": 64
    },
    {
      "midi": 62,
      "hit": false,
      "t": 104406.25,
      "d": 193.75,
      "v": 61
    },
    {
      "midi": 65,
      "hit": false,
      "t": 104406.25,
      "d": 587.5,
      "v": 61
    },
    {
      "midi": 42,
      "hit": false,
      "t": 104700,
      "d": 18.75,
      "v": 65
    },
    {
      "midi": 62,
      "hit": false,
      "t": 104700,
      "d": 293.75,
      "v": 48
    },
    {
      "midi": 59,
      "hit": false,
      "t": 105000,
      "d": 587.5,
      "v": 67
    },
    {
      "midi": 40,
      "hit": false,
      "t": 105006.25,
      "d": 12.5,
      "v": 86
    },
    {
      "midi": 42,
      "hit": false,
      "t": 105006.25,
      "d": 25,
      "v": 61
    },
    {
      "midi": 62,
      "hit": false,
      "t": 105006.25,
      "d": 162.5,
      "v": 62
    },
    {
      "midi": 65,
      "hit": false,
      "t": 105012.5,
      "d": 581.25,
      "v": 67
    },
    {
      "midi": 35,
      "hit": false,
      "t": 105306.25,
      "d": 12.5,
      "v": 70
    },
    {
      "midi": 42,
      "hit": false,
      "t": 105306.25,
      "d": 25,
      "v": 68
    },
    {
      "midi": 62,
      "hit": false,
      "t": 105306.25,
      "d": 275,
      "v": 48
    },
    {
      "midi": 55,
      "hit": false,
      "t": 105593.75,
      "d": 6.25,
      "v": 48
    },
    {
      "midi": 35,
      "hit": false,
      "t": 105600,
      "d": 12.5,
      "v": 76
    },
    {
      "midi": 42,
      "hit": false,
      "t": 105600,
      "d": 25,
      "v": 58
    },
    {
      "midi": 64,
      "hit": false,
      "t": 105600,
      "d": 593.75,
      "v": 71
    },
    {
      "midi": 60,
      "hit": false,
      "t": 105600,
      "d": 606.25,
      "v": 67
    },
    {
      "midi": 48,
      "hit": false,
      "t": 105600,
      "d": 2168.75,
      "v": 58
    },
    {
      "midi": 42,
      "hit": false,
      "t": 105906.25,
      "d": 25,
      "v": 58
    },
    {
      "midi": 55,
      "hit": false,
      "t": 105912.5,
      "d": 262.5,
      "v": 52
    },
    {
      "midi": 40,
      "hit": false,
      "t": 106206.25,
      "d": 12.5,
      "v": 86
    },
    {
      "midi": 42,
      "hit": false,
      "t": 106206.25,
      "d": 18.75,
      "v": 60
    },
    {
      "midi": 55,
      "hit": false,
      "t": 106206.25,
      "d": 212.5,
      "v": 60
    },
    {
      "midi": 64,
      "hit": false,
      "t": 106206.25,
      "d": 543.75,
      "v": 63
    },
    {
      "midi": 60,
      "hit": false,
      "t": 106212.5,
      "d": 531.25,
      "v": 72
    },
    {
      "midi": 42,
      "hit": false,
      "t": 106506.25,
      "d": 18.75,
      "v": 64
    },
    {
      "midi": 55,
      "hit": false,
      "t": 106518.75,
      "d": 268.75,
      "v": 50
    },
    {
      "midi": 42,
      "hit": false,
      "t": 106800,
      "d": 25,
      "v": 58
    },
    {
      "midi": 64,
      "hit": false,
      "t": 106800,
      "d": 562.5,
      "v": 69
    },
    {
      "midi": 35,
      "hit": false,
      "t": 106806.25,
      "d": 12.5,
      "v": 70
    },
    {
      "midi": 55,
      "hit": false,
      "t": 106806.25,
      "d": 225,
      "v": 63
    },
    {
      "midi": 60,
      "hit": false,
      "t": 106812.5,
      "d": 593.75,
      "v": 69
    },
    {
      "midi": 42,
      "hit": false,
      "t": 107106.25,
      "d": 18.75,
      "v": 61
    },
    {
      "midi": 55,
      "hit": false,
      "t": 107112.5,
      "d": 281.25,
      "v": 49
    },
    {
      "midi": 40,
      "hit": false,
      "t": 107400,
      "d": 12.5,
      "v": 86
    },
    {
      "midi": 42,
      "hit": false,
      "t": 107400,
      "d": 18.75,
      "v": 61
    },
    {
      "midi": 64,
      "hit": false,
      "t": 107406.25,
      "d": 562.5,
      "v": 67
    },
    {
      "midi": 55,
      "hit": false,
      "t": 107418.75,
      "d": 200,
      "v": 62
    },
    {
      "midi": 60,
      "hit": false,
      "t": 107425,
      "d": 562.5,
      "v": 67
    },
    {
      "midi": 35,
      "hit": false,
      "t": 107706.25,
      "d": 12.5,
      "v": 70
    },
    {
      "midi": 42,
      "hit": false,
      "t": 107706.25,
      "d": 18.75,
      "v": 63
    },
    {
      "midi": 55,
      "hit": false,
      "t": 107706.25,
      "d": 287.5,
      "v": 48
    },
    {
      "midi": 35,
      "hit": false,
      "t": 108000,
      "d": 12.5,
      "v": 72
    },
    {
      "midi": 42,
      "hit": false,
      "t": 108000,
      "d": 18.75,
      "v": 64
    },
    {
      "midi": 60,
      "hit": false,
      "t": 108000,
      "d": 600,
      "v": 70
    },
    {
      "midi": 48,
      "hit": false,
      "t": 108000,
      "d": 1131.25,
      "v": 67
    },
    {
      "midi": 55,
      "hit": false,
      "t": 108012.5,
      "d": 237.5,
      "v": 62
    },
    {
      "midi": 64,
      "hit": false,
      "t": 108012.5,
      "d": 587.5,
      "v": 69
    },
    {
      "midi": 42,
      "hit": false,
      "t": 108312.5,
      "d": 18.75,
      "v": 65
    },
    {
      "midi": 84,
      "hit": false,
      "t": 108512.5,
      "d": 43.75,
      "v": 54
    },
    {
      "midi": 96,
      "hit": false,
      "t": 108525,
      "d": 50,
      "v": 60
    },
    {
      "midi": 42,
      "hit": false,
      "t": 108600,
      "d": 25,
      "v": 63
    },
    {
      "midi": 84,
      "hit": false,
      "t": 108600,
      "d": 425,
      "v": 54
    },
    {
      "midi": 96,
      "hit": false,
      "t": 108600,
      "d": 450,
      "v": 60
    },
    {
      "midi": 40,
      "hit": false,
      "t": 108606.25,
      "d": 12.5,
      "v": 85
    },
    {
      "midi": 60,
      "hit": false,
      "t": 108612.5,
      "d": 518.75,
      "v": 67
    },
    {
      "midi": 64,
      "hit": false,
      "t": 108612.5,
      "d": 518.75,
      "v": 66
    },
    {
      "midi": 42,
      "hit": false,
      "t": 108900,
      "d": 25,
      "v": 64
    },
    {
      "midi": 35,
      "hit": false,
      "t": 108906.25,
      "d": 12.5,
      "v": 70
    },
    {
      "midi": 55,
      "hit": false,
      "t": 108912.5,
      "d": 218.75,
      "v": 50
    },
    {
      "midi": 79,
      "hit": false,
      "t": 109193.75,
      "d": 475,
      "v": 64
    },
    {
      "midi": 35,
      "hit": false,
      "t": 109200,
      "d": 12.5,
      "v": 73
    },
    {
      "midi": 64,
      "hit": false,
      "t": 109200,
      "d": 581.25,
      "v": 65
    },
    {
      "midi": 84,
      "hit": false,
      "t": 109200,
      "d": 437.5,
      "v": 69
    },
    {
      "midi": 42,
      "hit": false,
      "t": 109206.25,
      "d": 25,
      "v": 64
    },
    {
      "midi": 60,
      "hit": false,
      "t": 109206.25,
      "d": 568.75,
      "v": 61
    },
    {
      "midi": 46,
      "hit": false,
      "t": 109500,
      "d": 18.75,
      "v": 68
    },
    {
      "midi": 55,
      "hit": false,
      "t": 109500,
      "d": 256.25,
      "v": 48
    },
    {
      "midi": 79,
      "hit": false,
      "t": 109693.75,
      "d": 43.75,
      "v": 68
    },
    {
      "midi": 76,
      "hit": false,
      "t": 109693.75,
      "d": 50,
      "v": 65
    },
    {
      "midi": 79,
      "hit": false,
      "t": 109781.25,
      "d": 600,
      "v": 65
    },
    {
      "midi": 76,
      "hit": false,
      "t": 109787.5,
      "d": 612.5,
      "v": 61
    },
    {
      "midi": 62,
      "hit": false,
      "t": 109800,
      "d": 150,
      "v": 70
    },
    {
      "midi": 55,
      "hit": false,
      "t": 109800,
      "d": 168.75,
      "v": 63
    },
    {
      "midi": 40,
      "hit": false,
      "t": 109806.25,
      "d": 12.5,
      "v": 86
    },
    {
      "midi": 42,
      "hit": false,
      "t": 109806.25,
      "d": 25,
      "v": 61
    },
    {
      "midi": 40,
      "hit": false,
      "t": 109943.75,
      "d": 6.25,
      "v": 56
    },
    {
      "midi": 64,
      "hit": false,
      "t": 109956.25,
      "d": 437.5,
      "v": 58
    },
    {
      "midi": 60,
      "hit": false,
      "t": 110100,
      "d": 293.75,
      "v": 67
    },
    {
      "midi": 35,
      "hit": false,
      "t": 110106.25,
      "d": 12.5,
      "v": 70
    },
    {
      "midi": 42,
      "hit": false,
      "t": 110106.25,
      "d": 25,
      "v": 68
    },
    {
      "midi": 55,
      "hit": false,
      "t": 110250,
      "d": 131.25,
      "v": 50
    },
    {
      "midi": 59,
      "hit": false,
      "t": 110400,
      "d": 593.75,
      "v": 71
    },
    {
      "midi": 55,
      "hit": false,
      "t": 110400,
      "d": 606.25,
      "v": 67
    },
    {
      "midi": 43,
      "hit": false,
      "t": 110400,
      "d": 2168.75,
      "v": 58
    },
    {
      "midi": 42,
      "hit": false,
      "t": 110706.25,
      "d": 25,
      "v": 58
    },
    {
      "midi": 62,
      "hit": false,
      "t": 110712.5,
      "d": 262.5,
      "v": 52
    },
    {
      "midi": 40,
      "hit": false,
      "t": 111006.25,
      "d": 12.5,
      "v": 86
    },
    {
      "midi": 42,
      "hit": false,
      "t": 111006.25,
      "d": 18.75,
      "v": 60
    },
    {
      "midi": 62,
      "hit": false,
      "t": 111006.25,
      "d": 212.5,
      "v": 60
    },
    {
      "midi": 59,
      "hit": false,
      "t": 111006.25,
      "d": 543.75,
      "v": 63
    },
    {
      "midi": 55,
      "hit": false,
      "t": 111012.5,
      "d": 531.25,
      "v": 72
    },
    {
      "midi": 42,
      "hit": false,
      "t": 111306.25,
      "d": 18.75,
      "v": 64
    },
    {
      "midi": 62,
      "hit": false,
      "t": 111318.75,
      "d": 268.75,
      "v": 50
    },
    {
      "midi": 42,
      "hit": false,
      "t": 111600,
      "d": 25,
      "v": 58
    },
    {
      "midi": 59,
      "hit": false,
      "t": 111600,
      "d": 562.5,
      "v": 69
    },
    {
      "midi": 35,
      "hit": false,
      "t": 111606.25,
      "d": 12.5,
      "v": 70
    },
    {
      "midi": 62,
      "hit": false,
      "t": 111606.25,
      "d": 225,
      "v": 63
    },
    {
      "midi": 55,
      "hit": false,
      "t": 111612.5,
      "d": 593.75,
      "v": 69
    },
    {
      "midi": 42,
      "hit": false,
      "t": 111906.25,
      "d": 18.75,
      "v": 61
    },
    {
      "midi": 62,
      "hit": false,
      "t": 111912.5,
      "d": 281.25,
      "v": 49
    },
    {
      "midi": 40,
      "hit": false,
      "t": 112200,
      "d": 12.5,
      "v": 86
    },
    {
      "midi": 42,
      "hit": false,
      "t": 112200,
      "d": 18.75,
      "v": 61
    },
    {
      "midi": 59,
      "hit": false,
      "t": 112206.25,
      "d": 562.5,
      "v": 67
    },
    {
      "midi": 62,
      "hit": false,
      "t": 112218.75,
      "d": 200,
      "v": 62
    },
    {
      "midi": 55,
      "hit": false,
      "t": 112225,
      "d": 562.5,
      "v": 67
    },
    {
      "midi": 35,
      "hit": false,
      "t": 112506.25,
      "d": 12.5,
      "v": 70
    },
    {
      "midi": 42,
      "hit": false,
      "t": 112506.25,
      "d": 18.75,
      "v": 63
    },
    {
      "midi": 62,
      "hit": false,
      "t": 112506.25,
      "d": 287.5,
      "v": 48
    },
    {
      "midi": 35,
      "hit": false,
      "t": 112800,
      "d": 12.5,
      "v": 72
    },
    {
      "midi": 42,
      "hit": false,
      "t": 112800,
      "d": 18.75,
      "v": 64
    },
    {
      "midi": 55,
      "hit": false,
      "t": 112800,
      "d": 600,
      "v": 70
    },
    {
      "midi": 43,
      "hit": false,
      "t": 112800,
      "d": 2218.75,
      "v": 67
    },
    {
      "midi": 62,
      "hit": false,
      "t": 112812.5,
      "d": 237.5,
      "v": 62
    },
    {
      "midi": 59,
      "hit": false,
      "t": 112812.5,
      "d": 587.5,
      "v": 69
    },
    {
      "midi": 42,
      "hit": false,
      "t": 113112.5,
      "d": 18.75,
      "v": 65
    },
    {
      "midi": 83,
      "hit": false,
      "t": 113312.5,
      "d": 43.75,
      "v": 54
    },
    {
      "midi": 95,
      "hit": false,
      "t": 113325,
      "d": 50,
      "v": 60
    },
    {
      "midi": 42,
      "hit": false,
      "t": 113400,
      "d": 25,
      "v": 63
    },
    {
      "midi": 83,
      "hit": false,
      "t": 113400,
      "d": 425,
      "v": 54
    },
    {
      "midi": 95,
      "hit": false,
      "t": 113400,
      "d": 450,
      "v": 60
    },
    {
      "midi": 40,
      "hit": false,
      "t": 113406.25,
      "d": 12.5,
      "v": 85
    },
    {
      "midi": 55,
      "hit": false,
      "t": 113412.5,
      "d": 562.5,
      "v": 67
    },
    {
      "midi": 59,
      "hit": false,
      "t": 113412.5,
      "d": 575,
      "v": 66
    },
    {
      "midi": 42,
      "hit": false,
      "t": 113700,
      "d": 25,
      "v": 64
    },
    {
      "midi": 35,
      "hit": false,
      "t": 113706.25,
      "d": 12.5,
      "v": 70
    },
    {
      "midi": 62,
      "hit": false,
      "t": 113712.5,
      "d": 268.75,
      "v": 50
    },
    {
      "midi": 35,
      "hit": false,
      "t": 114000,
      "d": 12.5,
      "v": 73
    },
    {
      "midi": 59,
      "hit": false,
      "t": 114000,
      "d": 581.25,
      "v": 65
    },
    {
      "midi": 42,
      "hit": false,
      "t": 114006.25,
      "d": 25,
      "v": 64
    },
    {
      "midi": 62,
      "hit": false,
      "t": 114006.25,
      "d": 193.75,
      "v": 61
    },
    {
      "midi": 55,
      "hit": false,
      "t": 114006.25,
      "d": 587.5,
      "v": 61
    },
    {
      "midi": 42,
      "hit": false,
      "t": 114300,
      "d": 18.75,
      "v": 65
    },
    {
      "midi": 62,
      "hit": false,
      "t": 114300,
      "d": 293.75,
      "v": 48
    },
    {
      "midi": 59,
      "hit": false,
      "t": 114600,
      "d": 587.5,
      "v": 67
    },
    {
      "midi": 40,
      "hit": false,
      "t": 114606.25,
      "d": 12.5,
      "v": 86
    },
    {
      "midi": 42,
      "hit": false,
      "t": 114606.25,
      "d": 25,
      "v": 61
    },
    {
      "midi": 62,
      "hit": false,
      "t": 114606.25,
      "d": 162.5,
      "v": 62
    },
    {
      "midi": 55,
      "hit": false,
      "t": 114612.5,
      "d": 575,
      "v": 67
    },
    {
      "midi": 35,
      "hit": false,
      "t": 114906.25,
      "d": 12.5,
      "v": 70
    },
    {
      "midi": 42,
      "hit": false,
      "t": 114906.25,
      "d": 25,
      "v": 68
    },
    {
      "midi": 62,
      "hit": false,
      "t": 114906.25,
      "d": 275,
      "v": 48
    },
    {
      "midi": 60,
      "hit": false,
      "t": 115187.5,
      "d": 6.25,
      "v": 67
    },
    {
      "midi": 55,
      "hit": false,
      "t": 115187.5,
      "d": 12.5,
      "v": 48
    },
    {
      "midi": 35,
      "hit": false,
      "t": 115200,
      "d": 12.5,
      "v": 76
    },
    {
      "midi": 42,
      "hit": false,
      "t": 115200,
      "d": 25,
      "v": 58
    },
    {
      "midi": 64,
      "hit": false,
      "t": 115200,
      "d": 593.75,
      "v": 71
    },
    {
      "midi": 60,
      "hit": false,
      "t": 115200,
      "d": 606.25,
      "v": 67
    },
    {
      "midi": 48,
      "hit": false,
      "t": 115200,
      "d": 2168.75,
      "v": 58
    },
    {
      "midi": 42,
      "hit": false,
      "t": 115506.25,
      "d": 25,
      "v": 58
    },
    {
      "midi": 55,
      "hit": false,
      "t": 115512.5,
      "d": 262.5,
      "v": 52
    },
    {
      "midi": 40,
      "hit": false,
      "t": 115806.25,
      "d": 12.5,
      "v": 86
    },
    {
      "midi": 42,
      "hit": false,
      "t": 115806.25,
      "d": 18.75,
      "v": 60
    },
    {
      "midi": 55,
      "hit": false,
      "t": 115806.25,
      "d": 212.5,
      "v": 60
    },
    {
      "midi": 64,
      "hit": false,
      "t": 115806.25,
      "d": 543.75,
      "v": 63
    },
    {
      "midi": 60,
      "hit": false,
      "t": 115812.5,
      "d": 531.25,
      "v": 72
    },
    {
      "midi": 42,
      "hit": false,
      "t": 116106.25,
      "d": 18.75,
      "v": 64
    },
    {
      "midi": 55,
      "hit": false,
      "t": 116118.75,
      "d": 268.75,
      "v": 50
    },
    {
      "midi": 42,
      "hit": false,
      "t": 116400,
      "d": 25,
      "v": 58
    },
    {
      "midi": 64,
      "hit": false,
      "t": 116400,
      "d": 562.5,
      "v": 69
    },
    {
      "midi": 35,
      "hit": false,
      "t": 116406.25,
      "d": 12.5,
      "v": 70
    },
    {
      "midi": 55,
      "hit": false,
      "t": 116406.25,
      "d": 225,
      "v": 63
    },
    {
      "midi": 60,
      "hit": false,
      "t": 116412.5,
      "d": 593.75,
      "v": 69
    },
    {
      "midi": 42,
      "hit": false,
      "t": 116706.25,
      "d": 18.75,
      "v": 61
    },
    {
      "midi": 55,
      "hit": false,
      "t": 116712.5,
      "d": 281.25,
      "v": 49
    },
    {
      "midi": 40,
      "hit": false,
      "t": 117000,
      "d": 12.5,
      "v": 86
    },
    {
      "midi": 42,
      "hit": false,
      "t": 117000,
      "d": 18.75,
      "v": 61
    },
    {
      "midi": 64,
      "hit": false,
      "t": 117006.25,
      "d": 562.5,
      "v": 67
    },
    {
      "midi": 55,
      "hit": false,
      "t": 117018.75,
      "d": 200,
      "v": 62
    },
    {
      "midi": 60,
      "hit": false,
      "t": 117025,
      "d": 562.5,
      "v": 67
    },
    {
      "midi": 35,
      "hit": false,
      "t": 117306.25,
      "d": 12.5,
      "v": 70
    },
    {
      "midi": 42,
      "hit": false,
      "t": 117306.25,
      "d": 18.75,
      "v": 63
    },
    {
      "midi": 55,
      "hit": false,
      "t": 117306.25,
      "d": 287.5,
      "v": 48
    },
    {
      "midi": 35,
      "hit": false,
      "t": 117600,
      "d": 12.5,
      "v": 72
    },
    {
      "midi": 42,
      "hit": false,
      "t": 117600,
      "d": 18.75,
      "v": 64
    },
    {
      "midi": 60,
      "hit": false,
      "t": 117600,
      "d": 600,
      "v": 70
    },
    {
      "midi": 48,
      "hit": false,
      "t": 117600,
      "d": 1118.75,
      "v": 67
    },
    {
      "midi": 55,
      "hit": false,
      "t": 117612.5,
      "d": 237.5,
      "v": 62
    },
    {
      "midi": 64,
      "hit": false,
      "t": 117612.5,
      "d": 587.5,
      "v": 69
    },
    {
      "midi": 42,
      "hit": false,
      "t": 117912.5,
      "d": 18.75,
      "v": 65
    },
    {
      "midi": 84,
      "hit": false,
      "t": 118112.5,
      "d": 43.75,
      "v": 54
    },
    {
      "midi": 96,
      "hit": false,
      "t": 118125,
      "d": 50,
      "v": 60
    },
    {
      "midi": 42,
      "hit": false,
      "t": 118200,
      "d": 25,
      "v": 63
    },
    {
      "midi": 84,
      "hit": false,
      "t": 118200,
      "d": 425,
      "v": 54
    },
    {
      "midi": 96,
      "hit": false,
      "t": 118200,
      "d": 450,
      "v": 60
    },
    {
      "midi": 40,
      "hit": false,
      "t": 118206.25,
      "d": 12.5,
      "v": 85
    },
    {
      "midi": 60,
      "hit": false,
      "t": 118212.5,
      "d": 506.25,
      "v": 67
    },
    {
      "midi": 64,
      "hit": false,
      "t": 118212.5,
      "d": 506.25,
      "v": 66
    },
    {
      "midi": 42,
      "hit": false,
      "t": 118500,
      "d": 25,
      "v": 64
    },
    {
      "midi": 35,
      "hit": false,
      "t": 118506.25,
      "d": 12.5,
      "v": 70
    },
    {
      "midi": 55,
      "hit": false,
      "t": 118512.5,
      "d": 206.25,
      "v": 50
    },
    {
      "midi": 51,
      "hit": false,
      "t": 118793.75,
      "d": 12.5,
      "v": 54
    },
    {
      "midi": 35,
      "hit": false,
      "t": 118800,
      "d": 12.5,
      "v": 73
    },
    {
      "midi": 51,
      "hit": false,
      "t": 118806.25,
      "d": 25,
      "v": 90
    },
    {
      "midi": 60,
      "hit": false,
      "t": 118806.25,
      "d": 562.5,
      "v": 42
    },
    {
      "midi": 64,
      "hit": false,
      "t": 118818.75,
      "d": 787.5,
      "v": 38
    },
    {
      "midi": 55,
      "hit": false,
      "t": 119100,
      "d": 500,
      "v": 57
    },
    {
      "midi": 60,
      "hit": false,
      "t": 119400,
      "d": 562.5,
      "v": 62
    },
    {
      "midi": 64,
      "hit": false,
      "t": 119700,
      "d": 293.75,
      "v": 69
    },
    {
      "midi": 62,
      "hit": false,
      "t": 120000,
      "d": 293.75,
      "v": 54
    },
    {
      "midi": 43,
      "hit": false,
      "t": 120000,
      "d": 2168.75,
      "v": 58
    },
    {
      "midi": 59,
      "hit": false,
      "t": 120300,
      "d": 306.25,
      "v": 52
    },
    {
      "midi": 42,
      "hit": false,
      "t": 120306.25,
      "d": 25,
      "v": 58
    },
    {
      "midi": 62,
      "hit": false,
      "t": 120600,
      "d": 343.75,
      "v": 56
    },
    {
      "midi": 42,
      "hit": false,
      "t": 120606.25,
      "d": 18.75,
      "v": 60
    },
    {
      "midi": 67,
      "hit": false,
      "t": 120900,
      "d": 350,
      "v": 59
    },
    {
      "midi": 35,
      "hit": false,
      "t": 120906.25,
      "d": 12.5,
      "v": 61
    },
    {
      "midi": 42,
      "hit": false,
      "t": 120906.25,
      "d": 18.75,
      "v": 64
    },
    {
      "midi": 42,
      "hit": false,
      "t": 121200,
      "d": 25,
      "v": 58
    },
    {
      "midi": 71,
      "hit": false,
      "t": 121200,
      "d": 312.5,
      "v": 66
    },
    {
      "midi": 35,
      "hit": false,
      "t": 121206.25,
      "d": 12.5,
      "v": 70
    },
    {
      "midi": 62,
      "hit": false,
      "t": 121500,
      "d": 337.5,
      "v": 58
    },
    {
      "midi": 42,
      "hit": false,
      "t": 121506.25,
      "d": 18.75,
      "v": 61
    },
    {
      "midi": 42,
      "hit": false,
      "t": 121800,
      "d": 18.75,
      "v": 61
    },
    {
      "midi": 67,
      "hit": false,
      "t": 121800,
      "d": 325,
      "v": 64
    },
    {
      "midi": 71,
      "hit": false,
      "t": 122100,
      "d": 293.75,
      "v": 66
    },
    {
      "midi": 42,
      "hit": false,
      "t": 122106.25,
      "d": 18.75,
      "v": 63
    },
    {
      "midi": 35,
      "hit": false,
      "t": 122400,
      "d": 12.5,
      "v": 72
    },
    {
      "midi": 42,
      "hit": false,
      "t": 122400,
      "d": 18.75,
      "v": 64
    },
    {
      "midi": 43,
      "hit": false,
      "t": 122400,
      "d": 2218.75,
      "v": 68
    },
    {
      "midi": 59,
      "hit": false,
      "t": 122700,
      "d": 300,
      "v": 56
    },
    {
      "midi": 42,
      "hit": false,
      "t": 122712.5,
      "d": 18.75,
      "v": 65
    },
    {
      "midi": 42,
      "hit": false,
      "t": 123000,
      "d": 25,
      "v": 63
    },
    {
      "midi": 62,
      "hit": false,
      "t": 123000,
      "d": 331.25,
      "v": 58
    },
    {
      "midi": 42,
      "hit": false,
      "t": 123300,
      "d": 25,
      "v": 64
    },
    {
      "midi": 67,
      "hit": false,
      "t": 123300,
      "d": 325,
      "v": 66
    },
    {
      "midi": 35,
      "hit": false,
      "t": 123306.25,
      "d": 12.5,
      "v": 70
    },
    {
      "midi": 35,
      "hit": false,
      "t": 123600,
      "d": 12.5,
      "v": 73
    },
    {
      "midi": 71,
      "hit": false,
      "t": 123600,
      "d": 331.25,
      "v": 68
    },
    {
      "midi": 42,
      "hit": false,
      "t": 123606.25,
      "d": 25,
      "v": 64
    },
    {
      "midi": 42,
      "hit": false,
      "t": 123900,
      "d": 18.75,
      "v": 65
    },
    {
      "midi": 62,
      "hit": false,
      "t": 123900,
      "d": 343.75,
      "v": 58
    },
    {
      "midi": 67,
      "hit": false,
      "t": 124200,
      "d": 325,
      "v": 66
    },
    {
      "midi": 42,
      "hit": false,
      "t": 124206.25,
      "d": 25,
      "v": 61
    },
    {
      "midi": 71,
      "hit": false,
      "t": 124500,
      "d": 168.75,
      "v": 61
    },
    {
      "midi": 42,
      "hit": false,
      "t": 124506.25,
      "d": 25,
      "v": 68
    },
    {
      "midi": 35,
      "hit": false,
      "t": 124800,
      "d": 12.5,
      "v": 76
    },
    {
      "midi": 42,
      "hit": false,
      "t": 124800,
      "d": 25,
      "v": 58
    },
    {
      "midi": 43,
      "hit": false,
      "t": 124800,
      "d": 2168.75,
      "v": 58
    },
    {
      "midi": 59,
      "hit": false,
      "t": 125100,
      "d": 306.25,
      "v": 52
    },
    {
      "midi": 42,
      "hit": false,
      "t": 125106.25,
      "d": 25,
      "v": 58
    },
    {
      "midi": 62,
      "hit": false,
      "t": 125400,
      "d": 343.75,
      "v": 56
    },
    {
      "midi": 42,
      "hit": false,
      "t": 125406.25,
      "d": 18.75,
      "v": 60
    },
    {
      "midi": 67,
      "hit": false,
      "t": 125700,
      "d": 350,
      "v": 59
    },
    {
      "midi": 35,
      "hit": false,
      "t": 125706.25,
      "d": 12.5,
      "v": 61
    },
    {
      "midi": 42,
      "hit": false,
      "t": 125706.25,
      "d": 18.75,
      "v": 64
    },
    {
      "midi": 42,
      "hit": false,
      "t": 126000,
      "d": 25,
      "v": 58
    },
    {
      "midi": 71,
      "hit": false,
      "t": 126000,
      "d": 312.5,
      "v": 66
    },
    {
      "midi": 35,
      "hit": false,
      "t": 126006.25,
      "d": 12.5,
      "v": 70
    },
    {
      "midi": 62,
      "hit": false,
      "t": 126300,
      "d": 337.5,
      "v": 58
    },
    {
      "midi": 42,
      "hit": false,
      "t": 126306.25,
      "d": 18.75,
      "v": 61
    },
    {
      "midi": 42,
      "hit": false,
      "t": 126600,
      "d": 18.75,
      "v": 61
    },
    {
      "midi": 67,
      "hit": false,
      "t": 126600,
      "d": 325,
      "v": 64
    },
    {
      "midi": 71,
      "hit": false,
      "t": 126900,
      "d": 293.75,
      "v": 66
    },
    {
      "midi": 42,
      "hit": false,
      "t": 126906.25,
      "d": 18.75,
      "v": 63
    },
    {
      "midi": 35,
      "hit": false,
      "t": 127200,
      "d": 12.5,
      "v": 72
    },
    {
      "midi": 42,
      "hit": false,
      "t": 127200,
      "d": 18.75,
      "v": 64
    },
    {
      "midi": 43,
      "hit": false,
      "t": 127200,
      "d": 2218.75,
      "v": 68
    },
    {
      "midi": 59,
      "hit": false,
      "t": 127500,
      "d": 300,
      "v": 56
    },
    {
      "midi": 42,
      "hit": false,
      "t": 127512.5,
      "d": 18.75,
      "v": 65
    },
    {
      "midi": 42,
      "hit": false,
      "t": 127800,
      "d": 25,
      "v": 63
    },
    {
      "midi": 62,
      "hit": false,
      "t": 127800,
      "d": 331.25,
      "v": 58
    },
    {
      "midi": 42,
      "hit": false,
      "t": 128100,
      "d": 25,
      "v": 64
    },
    {
      "midi": 65,
      "hit": false,
      "t": 128100,
      "d": 325,
      "v": 66
    },
    {
      "midi": 35,
      "hit": false,
      "t": 128106.25,
      "d": 12.5,
      "v": 70
    },
    {
      "midi": 35,
      "hit": false,
      "t": 128400,
      "d": 12.5,
      "v": 73
    },
    {
      "midi": 71,
      "hit": false,
      "t": 128400,
      "d": 331.25,
      "v": 68
    },
    {
      "midi": 42,
      "hit": false,
      "t": 128406.25,
      "d": 25,
      "v": 64
    },
    {
      "midi": 42,
      "hit": false,
      "t": 128700,
      "d": 18.75,
      "v": 65
    },
    {
      "midi": 62,
      "hit": false,
      "t": 128700,
      "d": 343.75,
      "v": 58
    },
    {
      "midi": 65,
      "hit": false,
      "t": 129000,
      "d": 325,
      "v": 66
    },
    {
      "midi": 42,
      "hit": false,
      "t": 129006.25,
      "d": 25,
      "v": 61
    },
    {
      "midi": 71,
      "hit": false,
      "t": 129300,
      "d": 168.75,
      "v": 61
    },
    {
      "midi": 42,
      "hit": false,
      "t": 129306.25,
      "d": 25,
      "v": 68
    },
    {
      "midi": 55,
      "hit": false,
      "t": 129600,
      "d": 293.75,
      "v": 54
    },
    {
      "midi": 48,
      "hit": false,
      "t": 129600,
      "d": 2168.75,
      "v": 58
    },
    {
      "midi": 52,
      "hit": false,
      "t": 129900,
      "d": 306.25,
      "v": 52
    },
    {
      "midi": 42,
      "hit": false,
      "t": 129906.25,
      "d": 25,
      "v": 58
    },
    {
      "midi": 55,
      "hit": false,
      "t": 130200,
      "d": 343.75,
      "v": 56
    },
    {
      "midi": 42,
      "hit": false,
      "t": 130206.25,
      "d": 18.75,
      "v": 60
    },
    {
      "midi": 60,
      "hit": false,
      "t": 130500,
      "d": 350,
      "v": 59
    },
    {
      "midi": 35,
      "hit": false,
      "t": 130506.25,
      "d": 12.5,
      "v": 61
    },
    {
      "midi": 42,
      "hit": false,
      "t": 130506.25,
      "d": 18.75,
      "v": 64
    },
    {
      "midi": 42,
      "hit": false,
      "t": 130800,
      "d": 25,
      "v": 58
    },
    {
      "midi": 64,
      "hit": false,
      "t": 130800,
      "d": 312.5,
      "v": 66
    },
    {
      "midi": 35,
      "hit": false,
      "t": 130806.25,
      "d": 12.5,
      "v": 70
    },
    {
      "midi": 55,
      "hit": false,
      "t": 131100,
      "d": 337.5,
      "v": 58
    },
    {
      "midi": 42,
      "hit": false,
      "t": 131106.25,
      "d": 18.75,
      "v": 61
    },
    {
      "midi": 42,
      "hit": false,
      "t": 131400,
      "d": 18.75,
      "v": 61
    },
    {
      "midi": 60,
      "hit": false,
      "t": 131400,
      "d": 325,
      "v": 64
    },
    {
      "midi": 64,
      "hit": false,
      "t": 131700,
      "d": 293.75,
      "v": 66
    },
    {
      "midi": 42,
      "hit": false,
      "t": 131706.25,
      "d": 18.75,
      "v": 63
    },
    {
      "midi": 35,
      "hit": false,
      "t": 132000,
      "d": 12.5,
      "v": 72
    },
    {
      "midi": 42,
      "hit": false,
      "t": 132000,
      "d": 18.75,
      "v": 64
    },
    {
      "midi": 48,
      "hit": false,
      "t": 132000,
      "d": 2218.75,
      "v": 68
    },
    {
      "midi": 52,
      "hit": false,
      "t": 132300,
      "d": 300,
      "v": 56
    },
    {
      "midi": 42,
      "hit": false,
      "t": 132312.5,
      "d": 18.75,
      "v": 65
    },
    {
      "midi": 42,
      "hit": false,
      "t": 132600,
      "d": 25,
      "v": 63
    },
    {
      "midi": 55,
      "hit": false,
      "t": 132600,
      "d": 331.25,
      "v": 58
    },
    {
      "midi": 42,
      "hit": false,
      "t": 132900,
      "d": 25,
      "v": 64
    },
    {
      "midi": 60,
      "hit": false,
      "t": 132900,
      "d": 325,
      "v": 66
    },
    {
      "midi": 35,
      "hit": false,
      "t": 132906.25,
      "d": 12.5,
      "v": 70
    },
    {
      "midi": 35,
      "hit": false,
      "t": 133200,
      "d": 12.5,
      "v": 73
    },
    {
      "midi": 64,
      "hit": false,
      "t": 133200,
      "d": 331.25,
      "v": 68
    },
    {
      "midi": 42,
      "hit": false,
      "t": 133206.25,
      "d": 25,
      "v": 64
    },
    {
      "midi": 42,
      "hit": false,
      "t": 133500,
      "d": 18.75,
      "v": 65
    },
    {
      "midi": 55,
      "hit": false,
      "t": 133500,
      "d": 343.75,
      "v": 58
    },
    {
      "midi": 60,
      "hit": false,
      "t": 133800,
      "d": 325,
      "v": 66
    },
    {
      "midi": 42,
      "hit": false,
      "t": 133806.25,
      "d": 25,
      "v": 61
    },
    {
      "midi": 64,
      "hit": false,
      "t": 134100,
      "d": 168.75,
      "v": 61
    },
    {
      "midi": 42,
      "hit": false,
      "t": 134106.25,
      "d": 25,
      "v": 68
    },
    {
      "midi": 35,
      "hit": false,
      "t": 134400,
      "d": 12.5,
      "v": 76
    },
    {
      "midi": 42,
      "hit": false,
      "t": 134400,
      "d": 25,
      "v": 58
    },
    {
      "midi": 48,
      "hit": false,
      "t": 134400,
      "d": 2168.75,
      "v": 58
    },
    {
      "midi": 52,
      "hit": false,
      "t": 134700,
      "d": 306.25,
      "v": 52
    },
    {
      "midi": 42,
      "hit": false,
      "t": 134706.25,
      "d": 25,
      "v": 58
    },
    {
      "midi": 55,
      "hit": false,
      "t": 135000,
      "d": 343.75,
      "v": 56
    },
    {
      "midi": 42,
      "hit": false,
      "t": 135006.25,
      "d": 18.75,
      "v": 60
    },
    {
      "midi": 60,
      "hit": false,
      "t": 135300,
      "d": 350,
      "v": 59
    },
    {
      "midi": 35,
      "hit": false,
      "t": 135306.25,
      "d": 12.5,
      "v": 61
    },
    {
      "midi": 42,
      "hit": false,
      "t": 135306.25,
      "d": 18.75,
      "v": 64
    },
    {
      "midi": 42,
      "hit": false,
      "t": 135600,
      "d": 25,
      "v": 58
    },
    {
      "midi": 64,
      "hit": false,
      "t": 135600,
      "d": 312.5,
      "v": 66
    },
    {
      "midi": 35,
      "hit": false,
      "t": 135606.25,
      "d": 12.5,
      "v": 70
    },
    {
      "midi": 55,
      "hit": false,
      "t": 135900,
      "d": 337.5,
      "v": 58
    },
    {
      "midi": 42,
      "hit": false,
      "t": 135906.25,
      "d": 18.75,
      "v": 61
    },
    {
      "midi": 42,
      "hit": false,
      "t": 136200,
      "d": 18.75,
      "v": 61
    },
    {
      "midi": 60,
      "hit": false,
      "t": 136200,
      "d": 325,
      "v": 64
    },
    {
      "midi": 64,
      "hit": false,
      "t": 136500,
      "d": 281.25,
      "v": 66
    },
    {
      "midi": 42,
      "hit": false,
      "t": 136506.25,
      "d": 18.75,
      "v": 63
    },
    {
      "midi": 62,
      "hit": false,
      "t": 136781.25,
      "d": 312.5,
      "v": 54
    },
    {
      "midi": 35,
      "hit": false,
      "t": 136800,
      "d": 12.5,
      "v": 72
    },
    {
      "midi": 42,
      "hit": false,
      "t": 136800,
      "d": 18.75,
      "v": 64
    },
    {
      "midi": 43,
      "hit": false,
      "t": 136800,
      "d": 2218.75,
      "v": 68
    },
    {
      "midi": 59,
      "hit": false,
      "t": 137100,
      "d": 300,
      "v": 56
    },
    {
      "midi": 42,
      "hit": false,
      "t": 137112.5,
      "d": 18.75,
      "v": 65
    },
    {
      "midi": 42,
      "hit": false,
      "t": 137400,
      "d": 25,
      "v": 63
    },
    {
      "midi": 62,
      "hit": false,
      "t": 137400,
      "d": 331.25,
      "v": 58
    },
    {
      "midi": 42,
      "hit": false,
      "t": 137700,
      "d": 25,
      "v": 64
    },
    {
      "midi": 67,
      "hit": false,
      "t": 137700,
      "d": 325,
      "v": 66
    },
    {
      "midi": 35,
      "hit": false,
      "t": 137706.25,
      "d": 12.5,
      "v": 70
    },
    {
      "midi": 35,
      "hit": false,
      "t": 138000,
      "d": 12.5,
      "v": 73
    },
    {
      "midi": 71,
      "hit": false,
      "t": 138000,
      "d": 331.25,
      "v": 68
    },
    {
      "midi": 42,
      "hit": false,
      "t": 138006.25,
      "d": 25,
      "v": 64
    },
    {
      "midi": 42,
      "hit": false,
      "t": 138300,
      "d": 18.75,
      "v": 65
    },
    {
      "midi": 62,
      "hit": false,
      "t": 138300,
      "d": 343.75,
      "v": 58
    },
    {
      "midi": 67,
      "hit": false,
      "t": 138600,
      "d": 325,
      "v": 66
    },
    {
      "midi": 42,
      "hit": false,
      "t": 138606.25,
      "d": 25,
      "v": 61
    },
    {
      "midi": 71,
      "hit": false,
      "t": 138900,
      "d": 168.75,
      "v": 61
    },
    {
      "midi": 42,
      "hit": false,
      "t": 138906.25,
      "d": 25,
      "v": 68
    },
    {
      "midi": 35,
      "hit": false,
      "t": 139200,
      "d": 12.5,
      "v": 76
    },
    {
      "midi": 42,
      "hit": false,
      "t": 139200,
      "d": 25,
      "v": 58
    },
    {
      "midi": 43,
      "hit": false,
      "t": 139200,
      "d": 1225,
      "v": 58
    },
    {
      "midi": 59,
      "hit": false,
      "t": 139500,
      "d": 306.25,
      "v": 52
    },
    {
      "midi": 42,
      "hit": false,
      "t": 139506.25,
      "d": 25,
      "v": 58
    },
    {
      "midi": 62,
      "hit": false,
      "t": 139800,
      "d": 343.75,
      "v": 56
    },
    {
      "midi": 42,
      "hit": false,
      "t": 139806.25,
      "d": 18.75,
      "v": 60
    },
    {
      "midi": 67,
      "hit": false,
      "t": 140100,
      "d": 325,
      "v": 59
    },
    {
      "midi": 35,
      "hit": false,
      "t": 140106.25,
      "d": 12.5,
      "v": 61
    },
    {
      "midi": 42,
      "hit": false,
      "t": 140106.25,
      "d": 18.75,
      "v": 64
    },
    {
      "midi": 42,
      "hit": false,
      "t": 140400,
      "d": 25,
      "v": 58
    },
    {
      "midi": 71,
      "hit": false,
      "t": 140400,
      "d": 25,
      "v": 66
    },
    {
      "midi": 35,
      "hit": false,
      "t": 140406.25,
      "d": 12.5,
      "v": 70
    },
    {
      "midi": 42,
      "hit": false,
      "t": 140700,
      "d": 18.75,
      "v": 65
    },
    {
      "midi": 42,
      "hit": false,
      "t": 140868.75,
      "d": 6.25,
      "v": 8
    },
    {
      "midi": 42,
      "hit": false,
      "t": 140912.5,
      "d": 6.25,
      "v": 9
    },
    {
      "midi": 42,
      "hit": false,
      "t": 140962.5,
      "d": 6.25,
      "v": 26
    },
    {
      "midi": 62,
      "hit": false,
      "t": 141000,
      "d": 43.75,
      "v": 65
    },
    {
      "midi": 67,
      "hit": false,
      "t": 141000,
      "d": 187.5,
      "v": 47
    },
    {
      "midi": 42,
      "hit": false,
      "t": 141006.25,
      "d": 25,
      "v": 60
    },
    {
      "midi": 42,
      "hit": false,
      "t": 141150,
      "d": 25,
      "v": 28
    },
    {
      "midi": 71,
      "hit": false,
      "t": 141150,
      "d": 168.75,
      "v": 61
    },
    {
      "midi": 67,
      "hit": false,
      "t": 141300,
      "d": 143.75,
      "v": 56
    },
    {
      "midi": 59,
      "hit": false,
      "t": 141300,
      "d": 300,
      "v": 34
    },
    {
      "midi": 35,
      "hit": false,
      "t": 141306.25,
      "d": 12.5,
      "v": 70
    },
    {
      "midi": 46,
      "hit": false,
      "t": 141306.25,
      "d": 25,
      "v": 64
    },
    {
      "midi": 62,
      "hit": false,
      "t": 141450,
      "d": 150,
      "v": 51
    },
    {
      "midi": 57,
      "hit": false,
      "t": 141600,
      "d": 293.75,
      "v": 54
    },
    {
      "midi": 50,
      "hit": false,
      "t": 141600,
      "d": 2168.75,
      "v": 58
    },
    {
      "midi": 54,
      "hit": false,
      "t": 141900,
      "d": 306.25,
      "v": 52
    },
    {
      "midi": 42,
      "hit": false,
      "t": 141906.25,
      "d": 25,
      "v": 58
    },
    {
      "midi": 57,
      "hit": false,
      "t": 142200,
      "d": 343.75,
      "v": 56
    },
    {
      "midi": 42,
      "hit": false,
      "t": 142206.25,
      "d": 18.75,
      "v": 60
    },
    {
      "midi": 62,
      "hit": false,
      "t": 142500,
      "d": 350,
      "v": 59
    },
    {
      "midi": 35,
      "hit": false,
      "t": 142506.25,
      "d": 12.5,
      "v": 61
    },
    {
      "midi": 42,
      "hit": false,
      "t": 142506.25,
      "d": 18.75,
      "v": 64
    },
    {
      "midi": 42,
      "hit": false,
      "t": 142800,
      "d": 25,
      "v": 58
    },
    {
      "midi": 66,
      "hit": false,
      "t": 142800,
      "d": 312.5,
      "v": 66
    },
    {
      "midi": 35,
      "hit": false,
      "t": 142806.25,
      "d": 12.5,
      "v": 70
    },
    {
      "midi": 57,
      "hit": false,
      "t": 143100,
      "d": 337.5,
      "v": 58
    },
    {
      "midi": 42,
      "hit": false,
      "t": 143106.25,
      "d": 18.75,
      "v": 61
    },
    {
      "midi": 42,
      "hit": false,
      "t": 143400,
      "d": 18.75,
      "v": 61
    },
    {
      "midi": 62,
      "hit": false,
      "t": 143400,
      "d": 325,
      "v": 64
    },
    {
      "midi": 66,
      "hit": false,
      "t": 143700,
      "d": 293.75,
      "v": 66
    },
    {
      "midi": 42,
      "hit": false,
      "t": 143706.25,
      "d": 18.75,
      "v": 63
    },
    {
      "midi": 50,
      "hit": false,
      "t": 144000,
      "d": 2218.75,
      "v": 68
    },
    {
      "midi": 54,
      "hit": false,
      "t": 144300,
      "d": 300,
      "v": 56
    },
    {
      "midi": 42,
      "hit": false,
      "t": 144312.5,
      "d": 18.75,
      "v": 65
    },
    {
      "midi": 42,
      "hit": false,
      "t": 144600,
      "d": 25,
      "v": 63
    },
    {
      "midi": 57,
      "hit": false,
      "t": 144600,
      "d": 331.25,
      "v": 58
    },
    {
      "midi": 42,
      "hit": false,
      "t": 144900,
      "d": 25,
      "v": 64
    },
    {
      "midi": 60,
      "hit": false,
      "t": 144900,
      "d": 325,
      "v": 66
    },
    {
      "midi": 35,
      "hit": false,
      "t": 144906.25,
      "d": 12.5,
      "v": 70
    },
    {
      "midi": 35,
      "hit": false,
      "t": 145200,
      "d": 12.5,
      "v": 73
    },
    {
      "midi": 66,
      "hit": false,
      "t": 145200,
      "d": 331.25,
      "v": 68
    },
    {
      "midi": 42,
      "hit": false,
      "t": 145206.25,
      "d": 25,
      "v": 64
    },
    {
      "midi": 42,
      "hit": false,
      "t": 145500,
      "d": 18.75,
      "v": 65
    },
    {
      "midi": 57,
      "hit": false,
      "t": 145500,
      "d": 343.75,
      "v": 58
    },
    {
      "midi": 60,
      "hit": false,
      "t": 145800,
      "d": 325,
      "v": 66
    },
    {
      "midi": 42,
      "hit": false,
      "t": 145806.25,
      "d": 25,
      "v": 61
    },
    {
      "midi": 66,
      "hit": false,
      "t": 146100,
      "d": 168.75,
      "v": 61
    },
    {
      "midi": 42,
      "hit": false,
      "t": 146106.25,
      "d": 25,
      "v": 68
    },
    {
      "midi": 62,
      "hit": false,
      "t": 146387.5,
      "d": 12.5,
      "v": 54
    },
    {
      "midi": 35,
      "hit": false,
      "t": 146400,
      "d": 12.5,
      "v": 76
    },
    {
      "midi": 42,
      "hit": false,
      "t": 146400,
      "d": 25,
      "v": 58
    },
    {
      "midi": 43,
      "hit": false,
      "t": 146400,
      "d": 2168.75,
      "v": 58
    },
    {
      "midi": 59,
      "hit": false,
      "t": 146700,
      "d": 306.25,
      "v": 52
    },
    {
      "midi": 42,
      "hit": false,
      "t": 146706.25,
      "d": 25,
      "v": 58
    },
    {
      "midi": 62,
      "hit": false,
      "t": 147000,
      "d": 343.75,
      "v": 56
    },
    {
      "midi": 42,
      "hit": false,
      "t": 147006.25,
      "d": 18.75,
      "v": 60
    },
    {
      "midi": 67,
      "hit": false,
      "t": 147300,
      "d": 350,
      "v": 59
    },
    {
      "midi": 35,
      "hit": false,
      "t": 147306.25,
      "d": 12.5,
      "v": 61
    },
    {
      "midi": 42,
      "hit": false,
      "t": 147306.25,
      "d": 18.75,
      "v": 64
    },
    {
      "midi": 42,
      "hit": false,
      "t": 147600,
      "d": 25,
      "v": 58
    },
    {
      "midi": 71,
      "hit": false,
      "t": 147600,
      "d": 312.5,
      "v": 66
    },
    {
      "midi": 35,
      "hit": false,
      "t": 147606.25,
      "d": 12.5,
      "v": 70
    },
    {
      "midi": 62,
      "hit": false,
      "t": 147900,
      "d": 337.5,
      "v": 58
    },
    {
      "midi": 42,
      "hit": false,
      "t": 147906.25,
      "d": 18.75,
      "v": 61
    },
    {
      "midi": 42,
      "hit": false,
      "t": 148200,
      "d": 18.75,
      "v": 61
    },
    {
      "midi": 67,
      "hit": false,
      "t": 148200,
      "d": 325,
      "v": 64
    },
    {
      "midi": 71,
      "hit": false,
      "t": 148500,
      "d": 293.75,
      "v": 66
    },
    {
      "midi": 42,
      "hit": false,
      "t": 148506.25,
      "d": 18.75,
      "v": 63
    },
    {
      "midi": 55,
      "hit": false,
      "t": 148800,
      "d": 293.75,
      "v": 54
    },
    {
      "midi": 48,
      "hit": false,
      "t": 148800,
      "d": 2218.75,
      "v": 68
    },
    {
      "midi": 52,
      "hit": false,
      "t": 149100,
      "d": 300,
      "v": 56
    },
    {
      "midi": 42,
      "hit": false,
      "t": 149112.5,
      "d": 18.75,
      "v": 65
    },
    {
      "midi": 42,
      "hit": false,
      "t": 149400,
      "d": 25,
      "v": 63
    },
    {
      "midi": 55,
      "hit": false,
      "t": 149400,
      "d": 331.25,
      "v": 58
    },
    {
      "midi": 42,
      "hit": false,
      "t": 149700,
      "d": 25,
      "v": 64
    },
    {
      "midi": 60,
      "hit": false,
      "t": 149700,
      "d": 325,
      "v": 66
    },
    {
      "midi": 35,
      "hit": false,
      "t": 149706.25,
      "d": 12.5,
      "v": 70
    },
    {
      "midi": 35,
      "hit": false,
      "t": 150000,
      "d": 12.5,
      "v": 73
    },
    {
      "midi": 64,
      "hit": false,
      "t": 150000,
      "d": 331.25,
      "v": 68
    },
    {
      "midi": 42,
      "hit": false,
      "t": 150006.25,
      "d": 25,
      "v": 64
    },
    {
      "midi": 42,
      "hit": false,
      "t": 150300,
      "d": 18.75,
      "v": 65
    },
    {
      "midi": 55,
      "hit": false,
      "t": 150300,
      "d": 343.75,
      "v": 58
    },
    {
      "midi": 60,
      "hit": false,
      "t": 150600,
      "d": 325,
      "v": 66
    },
    {
      "midi": 42,
      "hit": false,
      "t": 150606.25,
      "d": 25,
      "v": 61
    },
    {
      "midi": 64,
      "hit": false,
      "t": 150900,
      "d": 168.75,
      "v": 61
    },
    {
      "midi": 42,
      "hit": false,
      "t": 150906.25,
      "d": 25,
      "v": 68
    },
    {
      "midi": 35,
      "hit": false,
      "t": 151200,
      "d": 12.5,
      "v": 76
    },
    {
      "midi": 42,
      "hit": false,
      "t": 151200,
      "d": 25,
      "v": 58
    },
    {
      "midi": 48,
      "hit": false,
      "t": 151200,
      "d": 2168.75,
      "v": 58
    },
    {
      "midi": 52,
      "hit": false,
      "t": 151500,
      "d": 306.25,
      "v": 52
    },
    {
      "midi": 42,
      "hit": false,
      "t": 151506.25,
      "d": 25,
      "v": 58
    },
    {
      "midi": 55,
      "hit": false,
      "t": 151800,
      "d": 343.75,
      "v": 56
    },
    {
      "midi": 42,
      "hit": false,
      "t": 151806.25,
      "d": 18.75,
      "v": 60
    },
    {
      "midi": 60,
      "hit": false,
      "t": 152100,
      "d": 350,
      "v": 59
    },
    {
      "midi": 35,
      "hit": false,
      "t": 152106.25,
      "d": 12.5,
      "v": 61
    },
    {
      "midi": 42,
      "hit": false,
      "t": 152106.25,
      "d": 18.75,
      "v": 64
    },
    {
      "midi": 42,
      "hit": false,
      "t": 152400,
      "d": 25,
      "v": 58
    },
    {
      "midi": 64,
      "hit": false,
      "t": 152400,
      "d": 312.5,
      "v": 66
    },
    {
      "midi": 35,
      "hit": false,
      "t": 152406.25,
      "d": 12.5,
      "v": 70
    },
    {
      "midi": 55,
      "hit": false,
      "t": 152700,
      "d": 337.5,
      "v": 58
    },
    {
      "midi": 42,
      "hit": false,
      "t": 152706.25,
      "d": 18.75,
      "v": 61
    },
    {
      "midi": 42,
      "hit": false,
      "t": 153000,
      "d": 18.75,
      "v": 61
    },
    {
      "midi": 60,
      "hit": false,
      "t": 153000,
      "d": 325,
      "v": 64
    },
    {
      "midi": 64,
      "hit": false,
      "t": 153300,
      "d": 287.5,
      "v": 66
    },
    {
      "midi": 42,
      "hit": false,
      "t": 153306.25,
      "d": 18.75,
      "v": 63
    },
    {
      "midi": 62,
      "hit": false,
      "t": 153587.5,
      "d": 306.25,
      "v": 54
    },
    {
      "midi": 35,
      "hit": false,
      "t": 153600,
      "d": 12.5,
      "v": 72
    },
    {
      "midi": 42,
      "hit": false,
      "t": 153600,
      "d": 18.75,
      "v": 64
    },
    {
      "midi": 43,
      "hit": false,
      "t": 153600,
      "d": 2218.75,
      "v": 68
    },
    {
      "midi": 59,
      "hit": false,
      "t": 153900,
      "d": 300,
      "v": 56
    },
    {
      "midi": 42,
      "hit": false,
      "t": 153912.5,
      "d": 18.75,
      "v": 65
    },
    {
      "midi": 42,
      "hit": false,
      "t": 154200,
      "d": 25,
      "v": 63
    },
    {
      "midi": 62,
      "hit": false,
      "t": 154200,
      "d": 331.25,
      "v": 58
    },
    {
      "midi": 42,
      "hit": false,
      "t": 154500,
      "d": 25,
      "v": 64
    },
    {
      "midi": 67,
      "hit": false,
      "t": 154500,
      "d": 325,
      "v": 66
    },
    {
      "midi": 35,
      "hit": false,
      "t": 154506.25,
      "d": 12.5,
      "v": 70
    },
    {
      "midi": 35,
      "hit": false,
      "t": 154800,
      "d": 12.5,
      "v": 73
    },
    {
      "midi": 71,
      "hit": false,
      "t": 154800,
      "d": 331.25,
      "v": 68
    },
    {
      "midi": 42,
      "hit": false,
      "t": 154806.25,
      "d": 25,
      "v": 64
    },
    {
      "midi": 42,
      "hit": false,
      "t": 155100,
      "d": 18.75,
      "v": 65
    },
    {
      "midi": 62,
      "hit": false,
      "t": 155100,
      "d": 343.75,
      "v": 58
    },
    {
      "midi": 67,
      "hit": false,
      "t": 155400,
      "d": 325,
      "v": 66
    },
    {
      "midi": 42,
      "hit": false,
      "t": 155406.25,
      "d": 25,
      "v": 61
    },
    {
      "midi": 71,
      "hit": false,
      "t": 155700,
      "d": 168.75,
      "v": 61
    },
    {
      "midi": 42,
      "hit": false,
      "t": 155706.25,
      "d": 25,
      "v": 68
    },
    {
      "midi": 57,
      "hit": false,
      "t": 155987.5,
      "d": 12.5,
      "v": 54
    },
    {
      "midi": 35,
      "hit": false,
      "t": 156000,
      "d": 12.5,
      "v": 76
    },
    {
      "midi": 42,
      "hit": false,
      "t": 156000,
      "d": 25,
      "v": 58
    },
    {
      "midi": 50,
      "hit": false,
      "t": 156000,
      "d": 2168.75,
      "v": 58
    },
    {
      "midi": 54,
      "hit": false,
      "t": 156300,
      "d": 306.25,
      "v": 52
    },
    {
      "midi": 42,
      "hit": false,
      "t": 156306.25,
      "d": 25,
      "v": 58
    },
    {
      "midi": 57,
      "hit": false,
      "t": 156600,
      "d": 343.75,
      "v": 56
    },
    {
      "midi": 42,
      "hit": false,
      "t": 156606.25,
      "d": 18.75,
      "v": 60
    },
    {
      "midi": 62,
      "hit": false,
      "t": 156900,
      "d": 350,
      "v": 59
    },
    {
      "midi": 35,
      "hit": false,
      "t": 156906.25,
      "d": 12.5,
      "v": 61
    },
    {
      "midi": 42,
      "hit": false,
      "t": 156906.25,
      "d": 18.75,
      "v": 64
    },
    {
      "midi": 42,
      "hit": false,
      "t": 157200,
      "d": 25,
      "v": 58
    },
    {
      "midi": 66,
      "hit": false,
      "t": 157200,
      "d": 312.5,
      "v": 66
    },
    {
      "midi": 35,
      "hit": false,
      "t": 157206.25,
      "d": 12.5,
      "v": 70
    },
    {
      "midi": 57,
      "hit": false,
      "t": 157500,
      "d": 337.5,
      "v": 58
    },
    {
      "midi": 42,
      "hit": false,
      "t": 157506.25,
      "d": 18.75,
      "v": 61
    },
    {
      "midi": 42,
      "hit": false,
      "t": 157800,
      "d": 18.75,
      "v": 61
    },
    {
      "midi": 62,
      "hit": false,
      "t": 157800,
      "d": 325,
      "v": 64
    },
    {
      "midi": 66,
      "hit": false,
      "t": 158100,
      "d": 293.75,
      "v": 66
    },
    {
      "midi": 42,
      "hit": false,
      "t": 158106.25,
      "d": 18.75,
      "v": 63
    },
    {
      "midi": 35,
      "hit": false,
      "t": 158400,
      "d": 12.5,
      "v": 72
    },
    {
      "midi": 42,
      "hit": false,
      "t": 158400,
      "d": 18.75,
      "v": 64
    },
    {
      "midi": 50,
      "hit": false,
      "t": 158400,
      "d": 568.75,
      "v": 68
    },
    {
      "midi": 54,
      "hit": false,
      "t": 158700,
      "d": 268.75,
      "v": 56
    },
    {
      "midi": 42,
      "hit": false,
      "t": 158712.5,
      "d": 18.75,
      "v": 65
    },
    {
      "midi": 57,
      "hit": false,
      "t": 159000,
      "d": 331.25,
      "v": 53
    },
    {
      "midi": 42,
      "hit": false,
      "t": 159006.25,
      "d": 18.75,
      "v": 63
    },
    {
      "midi": 42,
      "hit": false,
      "t": 159300,
      "d": 25,
      "v": 67
    },
    {
      "midi": 60,
      "hit": false,
      "t": 159300,
      "d": 325,
      "v": 66
    },
    {
      "midi": 35,
      "hit": false,
      "t": 159306.25,
      "d": 12.5,
      "v": 70
    },
    {
      "midi": 46,
      "hit": false,
      "t": 159450,
      "d": 25,
      "v": 67
    },
    {
      "midi": 35,
      "hit": false,
      "t": 159600,
      "d": 12.5,
      "v": 73
    },
    {
      "midi": 66,
      "hit": false,
      "t": 159600,
      "d": 168.75,
      "v": 68
    },
    {
      "midi": 57,
      "hit": false,
      "t": 159750,
      "d": 168.75,
      "v": 58
    },
    {
      "midi": 60,
      "hit": false,
      "t": 159900,
      "d": 162.5,
      "v": 61
    },
    {
      "midi": 66,
      "hit": false,
      "t": 160050,
      "d": 168.75,
      "v": 54
    },
    {
      "midi": 44,
      "hit": false,
      "t": 160200,
      "d": 12.5,
      "v": 94
    },
    {
      "midi": 57,
      "hit": false,
      "t": 160200,
      "d": 168.75,
      "v": 51
    },
    {
      "midi": 60,
      "hit": false,
      "t": 160350,
      "d": 162.5,
      "v": 59
    },
    {
      "midi": 66,
      "hit": false,
      "t": 160500,
      "d": 168.75,
      "v": 68
    },
    {
      "midi": 35,
      "hit": false,
      "t": 160506.25,
      "d": 12.5,
      "v": 61
    },
    {
      "midi": 69,
      "hit": false,
      "t": 160650,
      "d": 150,
      "v": 74
    },
    {
      "midi": 59,
      "hit": false,
      "t": 160800,
      "d": 593.75,
      "v": 71
    },
    {
      "midi": 55,
      "hit": false,
      "t": 160800,
      "d": 606.25,
      "v": 67
    },
    {
      "midi": 43,
      "hit": false,
      "t": 160800,
      "d": 2168.75,
      "v": 58
    },
    {
      "midi": 42,
      "hit": false,
      "t": 161106.25,
      "d": 25,
      "v": 58
    },
    {
      "midi": 62,
      "hit": false,
      "t": 161112.5,
      "d": 262.5,
      "v": 52
    },
    {
      "midi": 40,
      "hit": false,
      "t": 161406.25,
      "d": 12.5,
      "v": 86
    },
    {
      "midi": 42,
      "hit": false,
      "t": 161406.25,
      "d": 18.75,
      "v": 60
    },
    {
      "midi": 62,
      "hit": false,
      "t": 161406.25,
      "d": 212.5,
      "v": 60
    },
    {
      "midi": 59,
      "hit": false,
      "t": 161406.25,
      "d": 543.75,
      "v": 63
    },
    {
      "midi": 55,
      "hit": false,
      "t": 161412.5,
      "d": 531.25,
      "v": 72
    },
    {
      "midi": 42,
      "hit": false,
      "t": 161706.25,
      "d": 18.75,
      "v": 64
    },
    {
      "midi": 62,
      "hit": false,
      "t": 161718.75,
      "d": 268.75,
      "v": 50
    },
    {
      "midi": 42,
      "hit": false,
      "t": 162000,
      "d": 25,
      "v": 58
    },
    {
      "midi": 59,
      "hit": false,
      "t": 162000,
      "d": 562.5,
      "v": 69
    },
    {
      "midi": 35,
      "hit": false,
      "t": 162006.25,
      "d": 12.5,
      "v": 70
    },
    {
      "midi": 62,
      "hit": false,
      "t": 162006.25,
      "d": 225,
      "v": 63
    },
    {
      "midi": 55,
      "hit": false,
      "t": 162012.5,
      "d": 593.75,
      "v": 69
    },
    {
      "midi": 42,
      "hit": false,
      "t": 162306.25,
      "d": 18.75,
      "v": 61
    },
    {
      "midi": 62,
      "hit": false,
      "t": 162312.5,
      "d": 281.25,
      "v": 49
    },
    {
      "midi": 40,
      "hit": false,
      "t": 162600,
      "d": 12.5,
      "v": 86
    },
    {
      "midi": 42,
      "hit": false,
      "t": 162600,
      "d": 18.75,
      "v": 61
    },
    {
      "midi": 59,
      "hit": false,
      "t": 162606.25,
      "d": 562.5,
      "v": 67
    },
    {
      "midi": 62,
      "hit": false,
      "t": 162618.75,
      "d": 200,
      "v": 62
    },
    {
      "midi": 55,
      "hit": false,
      "t": 162625,
      "d": 562.5,
      "v": 67
    },
    {
      "midi": 35,
      "hit": false,
      "t": 162906.25,
      "d": 12.5,
      "v": 70
    },
    {
      "midi": 42,
      "hit": false,
      "t": 162906.25,
      "d": 18.75,
      "v": 63
    },
    {
      "midi": 62,
      "hit": false,
      "t": 162906.25,
      "d": 287.5,
      "v": 48
    },
    {
      "midi": 35,
      "hit": false,
      "t": 163200,
      "d": 12.5,
      "v": 72
    },
    {
      "midi": 42,
      "hit": false,
      "t": 163200,
      "d": 18.75,
      "v": 64
    },
    {
      "midi": 55,
      "hit": false,
      "t": 163200,
      "d": 600,
      "v": 70
    },
    {
      "midi": 43,
      "hit": false,
      "t": 163200,
      "d": 1200,
      "v": 67
    },
    {
      "midi": 62,
      "hit": false,
      "t": 163212.5,
      "d": 237.5,
      "v": 62
    },
    {
      "midi": 59,
      "hit": false,
      "t": 163212.5,
      "d": 587.5,
      "v": 69
    },
    {
      "midi": 42,
      "hit": false,
      "t": 163512.5,
      "d": 18.75,
      "v": 65
    },
    {
      "midi": 83,
      "hit": false,
      "t": 163712.5,
      "d": 43.75,
      "v": 54
    },
    {
      "midi": 95,
      "hit": false,
      "t": 163725,
      "d": 50,
      "v": 60
    },
    {
      "midi": 42,
      "hit": false,
      "t": 163800,
      "d": 25,
      "v": 63
    },
    {
      "midi": 83,
      "hit": false,
      "t": 163800,
      "d": 425,
      "v": 54
    },
    {
      "midi": 95,
      "hit": false,
      "t": 163800,
      "d": 450,
      "v": 60
    },
    {
      "midi": 40,
      "hit": false,
      "t": 163806.25,
      "d": 12.5,
      "v": 85
    },
    {
      "midi": 55,
      "hit": false,
      "t": 163812.5,
      "d": 562.5,
      "v": 67
    },
    {
      "midi": 59,
      "hit": false,
      "t": 163812.5,
      "d": 575,
      "v": 66
    },
    {
      "midi": 42,
      "hit": false,
      "t": 164100,
      "d": 25,
      "v": 64
    },
    {
      "midi": 35,
      "hit": false,
      "t": 164106.25,
      "d": 12.5,
      "v": 70
    },
    {
      "midi": 62,
      "hit": false,
      "t": 164112.5,
      "d": 268.75,
      "v": 50
    },
    {
      "midi": 35,
      "hit": false,
      "t": 164400,
      "d": 12.5,
      "v": 73
    },
    {
      "midi": 59,
      "hit": false,
      "t": 164400,
      "d": 581.25,
      "v": 65
    },
    {
      "midi": 43,
      "hit": false,
      "t": 164400,
      "d": 1018.75,
      "v": 67
    },
    {
      "midi": 42,
      "hit": false,
      "t": 164406.25,
      "d": 25,
      "v": 64
    },
    {
      "midi": 62,
      "hit": false,
      "t": 164406.25,
      "d": 193.75,
      "v": 61
    },
    {
      "midi": 65,
      "hit": false,
      "t": 164406.25,
      "d": 587.5,
      "v": 61
    },
    {
      "midi": 42,
      "hit": false,
      "t": 164700,
      "d": 18.75,
      "v": 65
    },
    {
      "midi": 62,
      "hit": false,
      "t": 164700,
      "d": 293.75,
      "v": 48
    },
    {
      "midi": 59,
      "hit": false,
      "t": 165000,
      "d": 587.5,
      "v": 67
    },
    {
      "midi": 40,
      "hit": false,
      "t": 165006.25,
      "d": 12.5,
      "v": 86
    },
    {
      "midi": 42,
      "hit": false,
      "t": 165006.25,
      "d": 25,
      "v": 61
    },
    {
      "midi": 62,
      "hit": false,
      "t": 165006.25,
      "d": 162.5,
      "v": 62
    },
    {
      "midi": 65,
      "hit": false,
      "t": 165012.5,
      "d": 581.25,
      "v": 67
    },
    {
      "midi": 35,
      "hit": false,
      "t": 165306.25,
      "d": 12.5,
      "v": 70
    },
    {
      "midi": 42,
      "hit": false,
      "t": 165306.25,
      "d": 25,
      "v": 68
    },
    {
      "midi": 62,
      "hit": false,
      "t": 165306.25,
      "d": 275,
      "v": 48
    },
    {
      "midi": 55,
      "hit": false,
      "t": 165593.75,
      "d": 6.25,
      "v": 48
    },
    {
      "midi": 35,
      "hit": false,
      "t": 165600,
      "d": 12.5,
      "v": 76
    },
    {
      "midi": 42,
      "hit": false,
      "t": 165600,
      "d": 25,
      "v": 58
    },
    {
      "midi": 64,
      "hit": false,
      "t": 165600,
      "d": 593.75,
      "v": 71
    },
    {
      "midi": 60,
      "hit": false,
      "t": 165600,
      "d": 606.25,
      "v": 67
    },
    {
      "midi": 48,
      "hit": false,
      "t": 165600,
      "d": 2168.75,
      "v": 58
    },
    {
      "midi": 42,
      "hit": false,
      "t": 165906.25,
      "d": 25,
      "v": 58
    },
    {
      "midi": 55,
      "hit": false,
      "t": 165912.5,
      "d": 262.5,
      "v": 52
    },
    {
      "midi": 40,
      "hit": false,
      "t": 166206.25,
      "d": 12.5,
      "v": 86
    },
    {
      "midi": 42,
      "hit": false,
      "t": 166206.25,
      "d": 18.75,
      "v": 60
    },
    {
      "midi": 55,
      "hit": false,
      "t": 166206.25,
      "d": 212.5,
      "v": 60
    },
    {
      "midi": 64,
      "hit": false,
      "t": 166206.25,
      "d": 543.75,
      "v": 63
    },
    {
      "midi": 60,
      "hit": false,
      "t": 166212.5,
      "d": 531.25,
      "v": 72
    },
    {
      "midi": 42,
      "hit": false,
      "t": 166506.25,
      "d": 18.75,
      "v": 64
    },
    {
      "midi": 55,
      "hit": false,
      "t": 166518.75,
      "d": 268.75,
      "v": 50
    },
    {
      "midi": 42,
      "hit": false,
      "t": 166800,
      "d": 25,
      "v": 58
    },
    {
      "midi": 64,
      "hit": false,
      "t": 166800,
      "d": 562.5,
      "v": 69
    },
    {
      "midi": 35,
      "hit": false,
      "t": 166806.25,
      "d": 12.5,
      "v": 70
    },
    {
      "midi": 55,
      "hit": false,
      "t": 166806.25,
      "d": 225,
      "v": 63
    },
    {
      "midi": 60,
      "hit": false,
      "t": 166812.5,
      "d": 593.75,
      "v": 69
    },
    {
      "midi": 42,
      "hit": false,
      "t": 167106.25,
      "d": 18.75,
      "v": 61
    },
    {
      "midi": 55,
      "hit": false,
      "t": 167112.5,
      "d": 281.25,
      "v": 49
    },
    {
      "midi": 40,
      "hit": false,
      "t": 167400,
      "d": 12.5,
      "v": 86
    },
    {
      "midi": 42,
      "hit": false,
      "t": 167400,
      "d": 18.75,
      "v": 61
    },
    {
      "midi": 64,
      "hit": false,
      "t": 167406.25,
      "d": 562.5,
      "v": 67
    },
    {
      "midi": 55,
      "hit": false,
      "t": 167418.75,
      "d": 200,
      "v": 62
    },
    {
      "midi": 60,
      "hit": false,
      "t": 167425,
      "d": 562.5,
      "v": 67
    },
    {
      "midi": 35,
      "hit": false,
      "t": 167706.25,
      "d": 12.5,
      "v": 70
    },
    {
      "midi": 42,
      "hit": false,
      "t": 167706.25,
      "d": 18.75,
      "v": 63
    },
    {
      "midi": 55,
      "hit": false,
      "t": 167706.25,
      "d": 287.5,
      "v": 48
    },
    {
      "midi": 35,
      "hit": false,
      "t": 168000,
      "d": 12.5,
      "v": 72
    },
    {
      "midi": 42,
      "hit": false,
      "t": 168000,
      "d": 18.75,
      "v": 64
    },
    {
      "midi": 60,
      "hit": false,
      "t": 168000,
      "d": 600,
      "v": 70
    },
    {
      "midi": 48,
      "hit": false,
      "t": 168000,
      "d": 2218.75,
      "v": 67
    },
    {
      "midi": 55,
      "hit": false,
      "t": 168012.5,
      "d": 237.5,
      "v": 62
    },
    {
      "midi": 64,
      "hit": false,
      "t": 168012.5,
      "d": 587.5,
      "v": 69
    },
    {
      "midi": 42,
      "hit": false,
      "t": 168312.5,
      "d": 18.75,
      "v": 65
    },
    {
      "midi": 84,
      "hit": false,
      "t": 168512.5,
      "d": 43.75,
      "v": 54
    },
    {
      "midi": 96,
      "hit": false,
      "t": 168525,
      "d": 50,
      "v": 60
    },
    {
      "midi": 42,
      "hit": false,
      "t": 168600,
      "d": 25,
      "v": 63
    },
    {
      "midi": 84,
      "hit": false,
      "t": 168600,
      "d": 425,
      "v": 54
    },
    {
      "midi": 96,
      "hit": false,
      "t": 168600,
      "d": 450,
      "v": 60
    },
    {
      "midi": 40,
      "hit": false,
      "t": 168606.25,
      "d": 12.5,
      "v": 85
    },
    {
      "midi": 60,
      "hit": false,
      "t": 168612.5,
      "d": 562.5,
      "v": 67
    },
    {
      "midi": 64,
      "hit": false,
      "t": 168612.5,
      "d": 575,
      "v": 66
    },
    {
      "midi": 42,
      "hit": false,
      "t": 168900,
      "d": 25,
      "v": 64
    },
    {
      "midi": 35,
      "hit": false,
      "t": 168906.25,
      "d": 12.5,
      "v": 70
    },
    {
      "midi": 55,
      "hit": false,
      "t": 168912.5,
      "d": 268.75,
      "v": 50
    },
    {
      "midi": 35,
      "hit": false,
      "t": 169200,
      "d": 12.5,
      "v": 73
    },
    {
      "midi": 64,
      "hit": false,
      "t": 169200,
      "d": 581.25,
      "v": 65
    },
    {
      "midi": 42,
      "hit": false,
      "t": 169206.25,
      "d": 25,
      "v": 64
    },
    {
      "midi": 55,
      "hit": false,
      "t": 169206.25,
      "d": 193.75,
      "v": 61
    },
    {
      "midi": 60,
      "hit": false,
      "t": 169206.25,
      "d": 587.5,
      "v": 61
    },
    {
      "midi": 42,
      "hit": false,
      "t": 169500,
      "d": 18.75,
      "v": 65
    },
    {
      "midi": 55,
      "hit": false,
      "t": 169500,
      "d": 293.75,
      "v": 48
    },
    {
      "midi": 64,
      "hit": false,
      "t": 169800,
      "d": 587.5,
      "v": 67
    },
    {
      "midi": 40,
      "hit": false,
      "t": 169806.25,
      "d": 12.5,
      "v": 86
    },
    {
      "midi": 42,
      "hit": false,
      "t": 169806.25,
      "d": 25,
      "v": 61
    },
    {
      "midi": 55,
      "hit": false,
      "t": 169806.25,
      "d": 162.5,
      "v": 62
    },
    {
      "midi": 60,
      "hit": false,
      "t": 169812.5,
      "d": 581.25,
      "v": 67
    },
    {
      "midi": 35,
      "hit": false,
      "t": 170106.25,
      "d": 12.5,
      "v": 70
    },
    {
      "midi": 42,
      "hit": false,
      "t": 170106.25,
      "d": 25,
      "v": 68
    },
    {
      "midi": 55,
      "hit": false,
      "t": 170106.25,
      "d": 275,
      "v": 48
    },
    {
      "midi": 35,
      "hit": false,
      "t": 170400,
      "d": 12.5,
      "v": 76
    },
    {
      "midi": 42,
      "hit": false,
      "t": 170400,
      "d": 25,
      "v": 58
    },
    {
      "midi": 64,
      "hit": false,
      "t": 170400,
      "d": 593.75,
      "v": 71
    },
    {
      "midi": 60,
      "hit": false,
      "t": 170400,
      "d": 606.25,
      "v": 67
    },
    {
      "midi": 48,
      "hit": false,
      "t": 170400,
      "d": 2168.75,
      "v": 58
    },
    {
      "midi": 42,
      "hit": false,
      "t": 170706.25,
      "d": 25,
      "v": 58
    },
    {
      "midi": 55,
      "hit": false,
      "t": 170712.5,
      "d": 262.5,
      "v": 52
    },
    {
      "midi": 40,
      "hit": false,
      "t": 171006.25,
      "d": 12.5,
      "v": 86
    },
    {
      "midi": 42,
      "hit": false,
      "t": 171006.25,
      "d": 18.75,
      "v": 60
    },
    {
      "midi": 55,
      "hit": false,
      "t": 171006.25,
      "d": 212.5,
      "v": 60
    },
    {
      "midi": 64,
      "hit": false,
      "t": 171006.25,
      "d": 543.75,
      "v": 63
    },
    {
      "midi": 60,
      "hit": false,
      "t": 171012.5,
      "d": 531.25,
      "v": 72
    },
    {
      "midi": 42,
      "hit": false,
      "t": 171306.25,
      "d": 18.75,
      "v": 64
    },
    {
      "midi": 55,
      "hit": false,
      "t": 171318.75,
      "d": 268.75,
      "v": 50
    },
    {
      "midi": 42,
      "hit": false,
      "t": 171600,
      "d": 25,
      "v": 58
    },
    {
      "midi": 64,
      "hit": false,
      "t": 171600,
      "d": 562.5,
      "v": 69
    },
    {
      "midi": 35,
      "hit": false,
      "t": 171606.25,
      "d": 12.5,
      "v": 70
    },
    {
      "midi": 55,
      "hit": false,
      "t": 171606.25,
      "d": 225,
      "v": 63
    },
    {
      "midi": 60,
      "hit": false,
      "t": 171612.5,
      "d": 593.75,
      "v": 69
    },
    {
      "midi": 42,
      "hit": false,
      "t": 171906.25,
      "d": 18.75,
      "v": 61
    },
    {
      "midi": 55,
      "hit": false,
      "t": 171912.5,
      "d": 281.25,
      "v": 49
    },
    {
      "midi": 40,
      "hit": false,
      "t": 172200,
      "d": 12.5,
      "v": 86
    },
    {
      "midi": 42,
      "hit": false,
      "t": 172200,
      "d": 18.75,
      "v": 61
    },
    {
      "midi": 64,
      "hit": false,
      "t": 172206.25,
      "d": 562.5,
      "v": 67
    },
    {
      "midi": 55,
      "hit": false,
      "t": 172218.75,
      "d": 200,
      "v": 62
    },
    {
      "midi": 60,
      "hit": false,
      "t": 172225,
      "d": 556.25,
      "v": 67
    },
    {
      "midi": 35,
      "hit": false,
      "t": 172506.25,
      "d": 12.5,
      "v": 70
    },
    {
      "midi": 42,
      "hit": false,
      "t": 172506.25,
      "d": 18.75,
      "v": 63
    },
    {
      "midi": 55,
      "hit": false,
      "t": 172506.25,
      "d": 275,
      "v": 48
    },
    {
      "midi": 55,
      "hit": false,
      "t": 172781.25,
      "d": 6.25,
      "v": 67
    },
    {
      "midi": 62,
      "hit": false,
      "t": 172781.25,
      "d": 12.5,
      "v": 62
    },
    {
      "midi": 35,
      "hit": false,
      "t": 172800,
      "d": 12.5,
      "v": 72
    },
    {
      "midi": 42,
      "hit": false,
      "t": 172800,
      "d": 18.75,
      "v": 64
    },
    {
      "midi": 55,
      "hit": false,
      "t": 172800,
      "d": 600,
      "v": 70
    },
    {
      "midi": 43,
      "hit": false,
      "t": 172800,
      "d": 2218.75,
      "v": 67
    },
    {
      "midi": 62,
      "hit": false,
      "t": 172812.5,
      "d": 237.5,
      "v": 62
    },
    {
      "midi": 59,
      "hit": false,
      "t": 172812.5,
      "d": 587.5,
      "v": 69
    },
    {
      "midi": 42,
      "hit": false,
      "t": 173112.5,
      "d": 18.75,
      "v": 65
    },
    {
      "midi": 83,
      "hit": false,
      "t": 173312.5,
      "d": 43.75,
      "v": 54
    },
    {
      "midi": 95,
      "hit": false,
      "t": 173325,
      "d": 50,
      "v": 60
    },
    {
      "midi": 42,
      "hit": false,
      "t": 173400,
      "d": 25,
      "v": 63
    },
    {
      "midi": 83,
      "hit": false,
      "t": 173400,
      "d": 425,
      "v": 54
    },
    {
      "midi": 95,
      "hit": false,
      "t": 173400,
      "d": 450,
      "v": 60
    },
    {
      "midi": 40,
      "hit": false,
      "t": 173406.25,
      "d": 12.5,
      "v": 85
    },
    {
      "midi": 55,
      "hit": false,
      "t": 173412.5,
      "d": 562.5,
      "v": 67
    },
    {
      "midi": 59,
      "hit": false,
      "t": 173412.5,
      "d": 575,
      "v": 66
    },
    {
      "midi": 42,
      "hit": false,
      "t": 173700,
      "d": 25,
      "v": 64
    },
    {
      "midi": 35,
      "hit": false,
      "t": 173706.25,
      "d": 12.5,
      "v": 70
    },
    {
      "midi": 62,
      "hit": false,
      "t": 173712.5,
      "d": 268.75,
      "v": 50
    },
    {
      "midi": 35,
      "hit": false,
      "t": 174000,
      "d": 12.5,
      "v": 73
    },
    {
      "midi": 59,
      "hit": false,
      "t": 174000,
      "d": 581.25,
      "v": 65
    },
    {
      "midi": 42,
      "hit": false,
      "t": 174006.25,
      "d": 25,
      "v": 64
    },
    {
      "midi": 62,
      "hit": false,
      "t": 174006.25,
      "d": 193.75,
      "v": 61
    },
    {
      "midi": 55,
      "hit": false,
      "t": 174006.25,
      "d": 587.5,
      "v": 61
    },
    {
      "midi": 42,
      "hit": false,
      "t": 174300,
      "d": 18.75,
      "v": 65
    },
    {
      "midi": 62,
      "hit": false,
      "t": 174300,
      "d": 293.75,
      "v": 48
    },
    {
      "midi": 59,
      "hit": false,
      "t": 174600,
      "d": 587.5,
      "v": 67
    },
    {
      "midi": 40,
      "hit": false,
      "t": 174606.25,
      "d": 12.5,
      "v": 86
    },
    {
      "midi": 42,
      "hit": false,
      "t": 174606.25,
      "d": 25,
      "v": 61
    },
    {
      "midi": 62,
      "hit": false,
      "t": 174606.25,
      "d": 162.5,
      "v": 62
    },
    {
      "midi": 55,
      "hit": false,
      "t": 174612.5,
      "d": 581.25,
      "v": 67
    },
    {
      "midi": 35,
      "hit": false,
      "t": 174906.25,
      "d": 12.5,
      "v": 70
    },
    {
      "midi": 42,
      "hit": false,
      "t": 174906.25,
      "d": 25,
      "v": 68
    },
    {
      "midi": 62,
      "hit": false,
      "t": 174906.25,
      "d": 275,
      "v": 48
    },
    {
      "midi": 35,
      "hit": false,
      "t": 175200,
      "d": 12.5,
      "v": 76
    },
    {
      "midi": 42,
      "hit": false,
      "t": 175200,
      "d": 25,
      "v": 58
    },
    {
      "midi": 59,
      "hit": false,
      "t": 175200,
      "d": 593.75,
      "v": 71
    },
    {
      "midi": 55,
      "hit": false,
      "t": 175200,
      "d": 606.25,
      "v": 67
    },
    {
      "midi": 43,
      "hit": false,
      "t": 175200,
      "d": 2168.75,
      "v": 58
    },
    {
      "midi": 42,
      "hit": false,
      "t": 175506.25,
      "d": 25,
      "v": 58
    },
    {
      "midi": 62,
      "hit": false,
      "t": 175512.5,
      "d": 262.5,
      "v": 52
    },
    {
      "midi": 40,
      "hit": false,
      "t": 175806.25,
      "d": 12.5,
      "v": 86
    },
    {
      "midi": 42,
      "hit": false,
      "t": 175806.25,
      "d": 18.75,
      "v": 60
    },
    {
      "midi": 62,
      "hit": false,
      "t": 175806.25,
      "d": 212.5,
      "v": 60
    },
    {
      "midi": 59,
      "hit": false,
      "t": 175806.25,
      "d": 543.75,
      "v": 63
    },
    {
      "midi": 55,
      "hit": false,
      "t": 175812.5,
      "d": 531.25,
      "v": 72
    },
    {
      "midi": 42,
      "hit": false,
      "t": 176106.25,
      "d": 18.75,
      "v": 64
    },
    {
      "midi": 62,
      "hit": false,
      "t": 176118.75,
      "d": 268.75,
      "v": 50
    },
    {
      "midi": 42,
      "hit": false,
      "t": 176400,
      "d": 25,
      "v": 58
    },
    {
      "midi": 59,
      "hit": false,
      "t": 176400,
      "d": 562.5,
      "v": 69
    },
    {
      "midi": 35,
      "hit": false,
      "t": 176406.25,
      "d": 12.5,
      "v": 70
    },
    {
      "midi": 62,
      "hit": false,
      "t": 176406.25,
      "d": 225,
      "v": 63
    },
    {
      "midi": 55,
      "hit": false,
      "t": 176412.5,
      "d": 593.75,
      "v": 69
    },
    {
      "midi": 42,
      "hit": false,
      "t": 176706.25,
      "d": 18.75,
      "v": 61
    },
    {
      "midi": 62,
      "hit": false,
      "t": 176712.5,
      "d": 281.25,
      "v": 49
    },
    {
      "midi": 40,
      "hit": false,
      "t": 177000,
      "d": 12.5,
      "v": 86
    },
    {
      "midi": 42,
      "hit": false,
      "t": 177000,
      "d": 18.75,
      "v": 61
    },
    {
      "midi": 59,
      "hit": false,
      "t": 177006.25,
      "d": 562.5,
      "v": 67
    },
    {
      "midi": 62,
      "hit": false,
      "t": 177018.75,
      "d": 200,
      "v": 62
    },
    {
      "midi": 55,
      "hit": false,
      "t": 177025,
      "d": 543.75,
      "v": 67
    },
    {
      "midi": 35,
      "hit": false,
      "t": 177306.25,
      "d": 12.5,
      "v": 70
    },
    {
      "midi": 42,
      "hit": false,
      "t": 177306.25,
      "d": 18.75,
      "v": 63
    },
    {
      "midi": 62,
      "hit": false,
      "t": 177306.25,
      "d": 262.5,
      "v": 48
    },
    {
      "midi": 62,
      "hit": false,
      "t": 177568.75,
      "d": 18.75,
      "v": 67
    },
    {
      "midi": 57,
      "hit": false,
      "t": 177568.75,
      "d": 25,
      "v": 62
    },
    {
      "midi": 35,
      "hit": false,
      "t": 177600,
      "d": 12.5,
      "v": 72
    },
    {
      "midi": 42,
      "hit": false,
      "t": 177600,
      "d": 18.75,
      "v": 64
    },
    {
      "midi": 62,
      "hit": false,
      "t": 177600,
      "d": 600,
      "v": 70
    },
    {
      "midi": 50,
      "hit": false,
      "t": 177600,
      "d": 2218.75,
      "v": 67
    },
    {
      "midi": 57,
      "hit": false,
      "t": 177612.5,
      "d": 237.5,
      "v": 62
    },
    {
      "midi": 66,
      "hit": false,
      "t": 177612.5,
      "d": 587.5,
      "v": 69
    },
    {
      "midi": 42,
      "hit": false,
      "t": 177912.5,
      "d": 18.75,
      "v": 65
    },
    {
      "midi": 86,
      "hit": false,
      "t": 178112.5,
      "d": 43.75,
      "v": 54
    },
    {
      "midi": 98,
      "hit": false,
      "t": 178125,
      "d": 50,
      "v": 60
    },
    {
      "midi": 42,
      "hit": false,
      "t": 178200,
      "d": 25,
      "v": 63
    },
    {
      "midi": 86,
      "hit": false,
      "t": 178200,
      "d": 425,
      "v": 54
    },
    {
      "midi": 98,
      "hit": false,
      "t": 178200,
      "d": 450,
      "v": 60
    },
    {
      "midi": 40,
      "hit": false,
      "t": 178206.25,
      "d": 12.5,
      "v": 85
    },
    {
      "midi": 62,
      "hit": false,
      "t": 178212.5,
      "d": 562.5,
      "v": 67
    },
    {
      "midi": 66,
      "hit": false,
      "t": 178212.5,
      "d": 575,
      "v": 66
    },
    {
      "midi": 42,
      "hit": false,
      "t": 178500,
      "d": 25,
      "v": 64
    },
    {
      "midi": 35,
      "hit": false,
      "t": 178506.25,
      "d": 12.5,
      "v": 70
    },
    {
      "midi": 57,
      "hit": false,
      "t": 178512.5,
      "d": 268.75,
      "v": 50
    },
    {
      "midi": 35,
      "hit": false,
      "t": 178800,
      "d": 12.5,
      "v": 73
    },
    {
      "midi": 66,
      "hit": false,
      "t": 178800,
      "d": 581.25,
      "v": 65
    },
    {
      "midi": 42,
      "hit": false,
      "t": 178806.25,
      "d": 25,
      "v": 64
    },
    {
      "midi": 57,
      "hit": false,
      "t": 178806.25,
      "d": 193.75,
      "v": 61
    },
    {
      "midi": 62,
      "hit": false,
      "t": 178806.25,
      "d": 587.5,
      "v": 61
    },
    {
      "midi": 42,
      "hit": false,
      "t": 179100,
      "d": 18.75,
      "v": 65
    },
    {
      "midi": 57,
      "hit": false,
      "t": 179100,
      "d": 293.75,
      "v": 48
    },
    {
      "midi": 66,
      "hit": false,
      "t": 179400,
      "d": 587.5,
      "v": 67
    },
    {
      "midi": 40,
      "hit": false,
      "t": 179406.25,
      "d": 12.5,
      "v": 86
    },
    {
      "midi": 42,
      "hit": false,
      "t": 179406.25,
      "d": 25,
      "v": 61
    },
    {
      "midi": 57,
      "hit": false,
      "t": 179406.25,
      "d": 162.5,
      "v": 62
    },
    {
      "midi": 62,
      "hit": false,
      "t": 179412.5,
      "d": 575,
      "v": 67
    },
    {
      "midi": 35,
      "hit": false,
      "t": 179706.25,
      "d": 12.5,
      "v": 70
    },
    {
      "midi": 42,
      "hit": false,
      "t": 179706.25,
      "d": 25,
      "v": 68
    },
    {
      "midi": 57,
      "hit": false,
      "t": 179706.25,
      "d": 275,
      "v": 48
    },
    {
      "midi": 60,
      "hit": false,
      "t": 179987.5,
      "d": 6.25,
      "v": 67
    },
    {
      "midi": 35,
      "hit": false,
      "t": 180000,
      "d": 12.5,
      "v": 76
    },
    {
      "midi": 42,
      "hit": false,
      "t": 180000,
      "d": 25,
      "v": 58
    },
    {
      "midi": 66,
      "hit": false,
      "t": 180000,
      "d": 593.75,
      "v": 71
    },
    {
      "midi": 60,
      "hit": false,
      "t": 180000,
      "d": 606.25,
      "v": 67
    },
    {
      "midi": 50,
      "hit": false,
      "t": 180000,
      "d": 1193.75,
      "v": 58
    },
    {
      "midi": 42,
      "hit": false,
      "t": 180306.25,
      "d": 25,
      "v": 58
    },
    {
      "midi": 57,
      "hit": false,
      "t": 180312.5,
      "d": 262.5,
      "v": 52
    },
    {
      "midi": 40,
      "hit": false,
      "t": 180606.25,
      "d": 12.5,
      "v": 86
    },
    {
      "midi": 42,
      "hit": false,
      "t": 180606.25,
      "d": 18.75,
      "v": 60
    },
    {
      "midi": 57,
      "hit": false,
      "t": 180606.25,
      "d": 212.5,
      "v": 60
    },
    {
      "midi": 66,
      "hit": false,
      "t": 180606.25,
      "d": 543.75,
      "v": 63
    },
    {
      "midi": 60,
      "hit": false,
      "t": 180612.5,
      "d": 531.25,
      "v": 72
    },
    {
      "midi": 42,
      "hit": false,
      "t": 180906.25,
      "d": 18.75,
      "v": 64
    },
    {
      "midi": 57,
      "hit": false,
      "t": 180918.75,
      "d": 268.75,
      "v": 50
    },
    {
      "midi": 78,
      "hit": false,
      "t": 181193.75,
      "d": 475,
      "v": 64
    },
    {
      "midi": 35,
      "hit": false,
      "t": 181200,
      "d": 12.5,
      "v": 73
    },
    {
      "midi": 66,
      "hit": false,
      "t": 181200,
      "d": 581.25,
      "v": 65
    },
    {
      "midi": 84,
      "hit": false,
      "t": 181200,
      "d": 437.5,
      "v": 69
    },
    {
      "midi": 42,
      "hit": false,
      "t": 181206.25,
      "d": 25,
      "v": 64
    },
    {
      "midi": 60,
      "hit": false,
      "t": 181206.25,
      "d": 568.75,
      "v": 61
    },
    {
      "midi": 46,
      "hit": false,
      "t": 181500,
      "d": 18.75,
      "v": 68
    },
    {
      "midi": 57,
      "hit": false,
      "t": 181500,
      "d": 256.25,
      "v": 48
    },
    {
      "midi": 78,
      "hit": false,
      "t": 181693.75,
      "d": 43.75,
      "v": 68
    },
    {
      "midi": 74,
      "hit": false,
      "t": 181693.75,
      "d": 50,
      "v": 65
    },
    {
      "midi": 78,
      "hit": false,
      "t": 181781.25,
      "d": 600,
      "v": 65
    },
    {
      "midi": 74,
      "hit": false,
      "t": 181787.5,
      "d": 612.5,
      "v": 61
    },
    {
      "midi": 62,
      "hit": false,
      "t": 181800,
      "d": 150,
      "v": 70
    },
    {
      "midi": 57,
      "hit": false,
      "t": 181800,
      "d": 168.75,
      "v": 63
    },
    {
      "midi": 40,
      "hit": false,
      "t": 181806.25,
      "d": 12.5,
      "v": 86
    },
    {
      "midi": 42,
      "hit": false,
      "t": 181806.25,
      "d": 25,
      "v": 61
    },
    {
      "midi": 40,
      "hit": false,
      "t": 181943.75,
      "d": 6.25,
      "v": 56
    },
    {
      "midi": 66,
      "hit": false,
      "t": 181956.25,
      "d": 437.5,
      "v": 58
    },
    {
      "midi": 60,
      "hit": false,
      "t": 182100,
      "d": 293.75,
      "v": 67
    },
    {
      "midi": 35,
      "hit": false,
      "t": 182106.25,
      "d": 12.5,
      "v": 70
    },
    {
      "midi": 42,
      "hit": false,
      "t": 182106.25,
      "d": 25,
      "v": 68
    },
    {
      "midi": 57,
      "hit": false,
      "t": 182250,
      "d": 131.25,
      "v": 50
    },
    {
      "midi": 59,
      "hit": false,
      "t": 182400,
      "d": 593.75,
      "v": 71
    },
    {
      "midi": 55,
      "hit": false,
      "t": 182400,
      "d": 606.25,
      "v": 67
    },
    {
      "midi": 43,
      "hit": false,
      "t": 182400,
      "d": 2168.75,
      "v": 58
    },
    {
      "midi": 42,
      "hit": false,
      "t": 182706.25,
      "d": 25,
      "v": 58
    },
    {
      "midi": 62,
      "hit": false,
      "t": 182712.5,
      "d": 262.5,
      "v": 52
    },
    {
      "midi": 40,
      "hit": false,
      "t": 183006.25,
      "d": 12.5,
      "v": 86
    },
    {
      "midi": 42,
      "hit": false,
      "t": 183006.25,
      "d": 18.75,
      "v": 60
    },
    {
      "midi": 62,
      "hit": false,
      "t": 183006.25,
      "d": 212.5,
      "v": 60
    },
    {
      "midi": 59,
      "hit": false,
      "t": 183006.25,
      "d": 543.75,
      "v": 63
    },
    {
      "midi": 55,
      "hit": false,
      "t": 183012.5,
      "d": 531.25,
      "v": 72
    },
    {
      "midi": 42,
      "hit": false,
      "t": 183306.25,
      "d": 18.75,
      "v": 64
    },
    {
      "midi": 62,
      "hit": false,
      "t": 183318.75,
      "d": 268.75,
      "v": 50
    },
    {
      "midi": 42,
      "hit": false,
      "t": 183600,
      "d": 25,
      "v": 58
    },
    {
      "midi": 59,
      "hit": false,
      "t": 183600,
      "d": 562.5,
      "v": 69
    },
    {
      "midi": 35,
      "hit": false,
      "t": 183606.25,
      "d": 12.5,
      "v": 70
    },
    {
      "midi": 62,
      "hit": false,
      "t": 183606.25,
      "d": 225,
      "v": 63
    },
    {
      "midi": 55,
      "hit": false,
      "t": 183612.5,
      "d": 593.75,
      "v": 69
    },
    {
      "midi": 42,
      "hit": false,
      "t": 183906.25,
      "d": 18.75,
      "v": 61
    },
    {
      "midi": 62,
      "hit": false,
      "t": 183912.5,
      "d": 281.25,
      "v": 49
    },
    {
      "midi": 40,
      "hit": false,
      "t": 184200,
      "d": 12.5,
      "v": 86
    },
    {
      "midi": 42,
      "hit": false,
      "t": 184200,
      "d": 18.75,
      "v": 61
    },
    {
      "midi": 59,
      "hit": false,
      "t": 184206.25,
      "d": 562.5,
      "v": 67
    },
    {
      "midi": 62,
      "hit": false,
      "t": 184218.75,
      "d": 200,
      "v": 62
    },
    {
      "midi": 55,
      "hit": false,
      "t": 184225,
      "d": 562.5,
      "v": 67
    },
    {
      "midi": 35,
      "hit": false,
      "t": 184506.25,
      "d": 12.5,
      "v": 70
    },
    {
      "midi": 42,
      "hit": false,
      "t": 184506.25,
      "d": 18.75,
      "v": 63
    },
    {
      "midi": 62,
      "hit": false,
      "t": 184506.25,
      "d": 287.5,
      "v": 48
    },
    {
      "midi": 35,
      "hit": false,
      "t": 184800,
      "d": 12.5,
      "v": 72
    },
    {
      "midi": 42,
      "hit": false,
      "t": 184800,
      "d": 18.75,
      "v": 64
    },
    {
      "midi": 65,
      "hit": false,
      "t": 184800,
      "d": 600,
      "v": 70
    },
    {
      "midi": 43,
      "hit": false,
      "t": 184800,
      "d": 2218.75,
      "v": 67
    },
    {
      "midi": 62,
      "hit": false,
      "t": 184812.5,
      "d": 237.5,
      "v": 62
    },
    {
      "midi": 59,
      "hit": false,
      "t": 184812.5,
      "d": 587.5,
      "v": 69
    },
    {
      "midi": 42,
      "hit": false,
      "t": 185112.5,
      "d": 18.75,
      "v": 65
    },
    {
      "midi": 83,
      "hit": false,
      "t": 185312.5,
      "d": 43.75,
      "v": 54
    },
    {
      "midi": 95,
      "hit": false,
      "t": 185325,
      "d": 50,
      "v": 60
    },
    {
      "midi": 42,
      "hit": false,
      "t": 185400,
      "d": 25,
      "v": 63
    },
    {
      "midi": 83,
      "hit": false,
      "t": 185400,
      "d": 425,
      "v": 54
    },
    {
      "midi": 95,
      "hit": false,
      "t": 185400,
      "d": 450,
      "v": 60
    },
    {
      "midi": 40,
      "hit": false,
      "t": 185406.25,
      "d": 12.5,
      "v": 85
    },
    {
      "midi": 65,
      "hit": false,
      "t": 185412.5,
      "d": 562.5,
      "v": 67
    },
    {
      "midi": 59,
      "hit": false,
      "t": 185412.5,
      "d": 575,
      "v": 66
    },
    {
      "midi": 42,
      "hit": false,
      "t": 185700,
      "d": 25,
      "v": 64
    },
    {
      "midi": 35,
      "hit": false,
      "t": 185706.25,
      "d": 12.5,
      "v": 70
    },
    {
      "midi": 62,
      "hit": false,
      "t": 185712.5,
      "d": 268.75,
      "v": 50
    },
    {
      "midi": 35,
      "hit": false,
      "t": 186000,
      "d": 12.5,
      "v": 73
    },
    {
      "midi": 59,
      "hit": false,
      "t": 186000,
      "d": 581.25,
      "v": 65
    },
    {
      "midi": 42,
      "hit": false,
      "t": 186006.25,
      "d": 25,
      "v": 64
    },
    {
      "midi": 62,
      "hit": false,
      "t": 186006.25,
      "d": 193.75,
      "v": 61
    },
    {
      "midi": 65,
      "hit": false,
      "t": 186006.25,
      "d": 587.5,
      "v": 61
    },
    {
      "midi": 42,
      "hit": false,
      "t": 186300,
      "d": 18.75,
      "v": 65
    },
    {
      "midi": 62,
      "hit": false,
      "t": 186300,
      "d": 293.75,
      "v": 48
    },
    {
      "midi": 59,
      "hit": false,
      "t": 186600,
      "d": 562.5,
      "v": 67
    },
    {
      "midi": 40,
      "hit": false,
      "t": 186606.25,
      "d": 12.5,
      "v": 86
    },
    {
      "midi": 42,
      "hit": false,
      "t": 186606.25,
      "d": 25,
      "v": 61
    },
    {
      "midi": 62,
      "hit": false,
      "t": 186606.25,
      "d": 162.5,
      "v": 62
    },
    {
      "midi": 65,
      "hit": false,
      "t": 186612.5,
      "d": 550,
      "v": 67
    },
    {
      "midi": 35,
      "hit": false,
      "t": 186906.25,
      "d": 12.5,
      "v": 70
    },
    {
      "midi": 42,
      "hit": false,
      "t": 186906.25,
      "d": 25,
      "v": 68
    },
    {
      "midi": 62,
      "hit": false,
      "t": 186906.25,
      "d": 256.25,
      "v": 48
    },
    {
      "midi": 55,
      "hit": false,
      "t": 187162.5,
      "d": 18.75,
      "v": 62
    },
    {
      "midi": 64,
      "hit": false,
      "t": 187162.5,
      "d": 25,
      "v": 67
    },
    {
      "midi": 60,
      "hit": false,
      "t": 187162.5,
      "d": 31.25,
      "v": 67
    },
    {
      "midi": 35,
      "hit": false,
      "t": 187200,
      "d": 12.5,
      "v": 76
    },
    {
      "midi": 42,
      "hit": false,
      "t": 187200,
      "d": 25,
      "v": 58
    },
    {
      "midi": 64,
      "hit": false,
      "t": 187200,
      "d": 593.75,
      "v": 71
    },
    {
      "midi": 60,
      "hit": false,
      "t": 187200,
      "d": 606.25,
      "v": 67
    },
    {
      "midi": 48,
      "hit": false,
      "t": 187200,
      "d": 2168.75,
      "v": 58
    },
    {
      "midi": 42,
      "hit": false,
      "t": 187506.25,
      "d": 25,
      "v": 58
    },
    {
      "midi": 55,
      "hit": false,
      "t": 187512.5,
      "d": 262.5,
      "v": 52
    },
    {
      "midi": 40,
      "hit": false,
      "t": 187806.25,
      "d": 12.5,
      "v": 86
    },
    {
      "midi": 42,
      "hit": false,
      "t": 187806.25,
      "d": 18.75,
      "v": 60
    },
    {
      "midi": 55,
      "hit": false,
      "t": 187806.25,
      "d": 212.5,
      "v": 60
    },
    {
      "midi": 64,
      "hit": false,
      "t": 187806.25,
      "d": 543.75,
      "v": 63
    },
    {
      "midi": 60,
      "hit": false,
      "t": 187812.5,
      "d": 531.25,
      "v": 72
    },
    {
      "midi": 42,
      "hit": false,
      "t": 188106.25,
      "d": 18.75,
      "v": 64
    },
    {
      "midi": 55,
      "hit": false,
      "t": 188118.75,
      "d": 268.75,
      "v": 50
    },
    {
      "midi": 42,
      "hit": false,
      "t": 188400,
      "d": 25,
      "v": 58
    },
    {
      "midi": 64,
      "hit": false,
      "t": 188400,
      "d": 562.5,
      "v": 69
    },
    {
      "midi": 35,
      "hit": false,
      "t": 188406.25,
      "d": 12.5,
      "v": 70
    },
    {
      "midi": 55,
      "hit": false,
      "t": 188406.25,
      "d": 225,
      "v": 63
    },
    {
      "midi": 60,
      "hit": false,
      "t": 188412.5,
      "d": 593.75,
      "v": 69
    },
    {
      "midi": 42,
      "hit": false,
      "t": 188706.25,
      "d": 18.75,
      "v": 61
    },
    {
      "midi": 55,
      "hit": false,
      "t": 188712.5,
      "d": 281.25,
      "v": 49
    },
    {
      "midi": 40,
      "hit": false,
      "t": 189000,
      "d": 12.5,
      "v": 86
    },
    {
      "midi": 42,
      "hit": false,
      "t": 189000,
      "d": 18.75,
      "v": 61
    },
    {
      "midi": 64,
      "hit": false,
      "t": 189006.25,
      "d": 562.5,
      "v": 67
    },
    {
      "midi": 55,
      "hit": false,
      "t": 189018.75,
      "d": 200,
      "v": 62
    },
    {
      "midi": 60,
      "hit": false,
      "t": 189025,
      "d": 562.5,
      "v": 67
    },
    {
      "midi": 35,
      "hit": false,
      "t": 189306.25,
      "d": 12.5,
      "v": 70
    },
    {
      "midi": 42,
      "hit": false,
      "t": 189306.25,
      "d": 18.75,
      "v": 63
    },
    {
      "midi": 55,
      "hit": false,
      "t": 189306.25,
      "d": 287.5,
      "v": 48
    },
    {
      "midi": 35,
      "hit": false,
      "t": 189600,
      "d": 12.5,
      "v": 72
    },
    {
      "midi": 42,
      "hit": false,
      "t": 189600,
      "d": 18.75,
      "v": 64
    },
    {
      "midi": 60,
      "hit": false,
      "t": 189600,
      "d": 600,
      "v": 70
    },
    {
      "midi": 48,
      "hit": false,
      "t": 189600,
      "d": 2218.75,
      "v": 67
    },
    {
      "midi": 55,
      "hit": false,
      "t": 189612.5,
      "d": 237.5,
      "v": 62
    },
    {
      "midi": 64,
      "hit": false,
      "t": 189612.5,
      "d": 587.5,
      "v": 69
    },
    {
      "midi": 42,
      "hit": false,
      "t": 189912.5,
      "d": 18.75,
      "v": 65
    },
    {
      "midi": 84,
      "hit": false,
      "t": 190112.5,
      "d": 43.75,
      "v": 54
    },
    {
      "midi": 96,
      "hit": false,
      "t": 190125,
      "d": 50,
      "v": 60
    },
    {
      "midi": 42,
      "hit": false,
      "t": 190200,
      "d": 25,
      "v": 63
    },
    {
      "midi": 84,
      "hit": false,
      "t": 190200,
      "d": 425,
      "v": 54
    },
    {
      "midi": 96,
      "hit": false,
      "t": 190200,
      "d": 450,
      "v": 60
    },
    {
      "midi": 40,
      "hit": false,
      "t": 190206.25,
      "d": 12.5,
      "v": 85
    },
    {
      "midi": 60,
      "hit": false,
      "t": 190212.5,
      "d": 562.5,
      "v": 67
    },
    {
      "midi": 64,
      "hit": false,
      "t": 190212.5,
      "d": 575,
      "v": 66
    },
    {
      "midi": 42,
      "hit": false,
      "t": 190500,
      "d": 25,
      "v": 64
    },
    {
      "midi": 35,
      "hit": false,
      "t": 190506.25,
      "d": 12.5,
      "v": 70
    },
    {
      "midi": 55,
      "hit": false,
      "t": 190512.5,
      "d": 268.75,
      "v": 50
    },
    {
      "midi": 35,
      "hit": false,
      "t": 190800,
      "d": 12.5,
      "v": 73
    },
    {
      "midi": 64,
      "hit": false,
      "t": 190800,
      "d": 581.25,
      "v": 65
    },
    {
      "midi": 42,
      "hit": false,
      "t": 190806.25,
      "d": 25,
      "v": 64
    },
    {
      "midi": 55,
      "hit": false,
      "t": 190806.25,
      "d": 193.75,
      "v": 61
    },
    {
      "midi": 60,
      "hit": false,
      "t": 190806.25,
      "d": 587.5,
      "v": 61
    },
    {
      "midi": 42,
      "hit": false,
      "t": 191100,
      "d": 18.75,
      "v": 65
    },
    {
      "midi": 55,
      "hit": false,
      "t": 191100,
      "d": 293.75,
      "v": 48
    },
    {
      "midi": 64,
      "hit": false,
      "t": 191400,
      "d": 568.75,
      "v": 67
    },
    {
      "midi": 40,
      "hit": false,
      "t": 191406.25,
      "d": 12.5,
      "v": 86
    },
    {
      "midi": 42,
      "hit": false,
      "t": 191406.25,
      "d": 25,
      "v": 61
    },
    {
      "midi": 55,
      "hit": false,
      "t": 191406.25,
      "d": 162.5,
      "v": 62
    },
    {
      "midi": 60,
      "hit": false,
      "t": 191412.5,
      "d": 556.25,
      "v": 67
    },
    {
      "midi": 35,
      "hit": false,
      "t": 191706.25,
      "d": 12.5,
      "v": 70
    },
    {
      "midi": 42,
      "hit": false,
      "t": 191706.25,
      "d": 25,
      "v": 68
    },
    {
      "midi": 55,
      "hit": false,
      "t": 191706.25,
      "d": 262.5,
      "v": 48
    },
    {
      "midi": 62,
      "hit": false,
      "t": 191968.75,
      "d": 12.5,
      "v": 62
    },
    {
      "midi": 59,
      "hit": false,
      "t": 191968.75,
      "d": 18.75,
      "v": 67
    },
    {
      "midi": 55,
      "hit": false,
      "t": 191968.75,
      "d": 25,
      "v": 67
    },
    {
      "midi": 35,
      "hit": false,
      "t": 192000,
      "d": 12.5,
      "v": 76
    },
    {
      "midi": 42,
      "hit": false,
      "t": 192000,
      "d": 25,
      "v": 58
    },
    {
      "midi": 59,
      "hit": false,
      "t": 192000,
      "d": 593.75,
      "v": 71
    },
    {
      "midi": 55,
      "hit": false,
      "t": 192000,
      "d": 606.25,
      "v": 67
    },
    {
      "midi": 43,
      "hit": false,
      "t": 192000,
      "d": 2168.75,
      "v": 58
    },
    {
      "midi": 42,
      "hit": false,
      "t": 192306.25,
      "d": 25,
      "v": 58
    },
    {
      "midi": 62,
      "hit": false,
      "t": 192312.5,
      "d": 262.5,
      "v": 52
    },
    {
      "midi": 40,
      "hit": false,
      "t": 192606.25,
      "d": 12.5,
      "v": 86
    },
    {
      "midi": 42,
      "hit": false,
      "t": 192606.25,
      "d": 18.75,
      "v": 60
    },
    {
      "midi": 62,
      "hit": false,
      "t": 192606.25,
      "d": 212.5,
      "v": 60
    },
    {
      "midi": 59,
      "hit": false,
      "t": 192606.25,
      "d": 543.75,
      "v": 63
    },
    {
      "midi": 55,
      "hit": false,
      "t": 192612.5,
      "d": 531.25,
      "v": 72
    },
    {
      "midi": 42,
      "hit": false,
      "t": 192906.25,
      "d": 18.75,
      "v": 64
    },
    {
      "midi": 62,
      "hit": false,
      "t": 192918.75,
      "d": 268.75,
      "v": 50
    },
    {
      "midi": 42,
      "hit": false,
      "t": 193200,
      "d": 25,
      "v": 58
    },
    {
      "midi": 59,
      "hit": false,
      "t": 193200,
      "d": 562.5,
      "v": 69
    },
    {
      "midi": 35,
      "hit": false,
      "t": 193206.25,
      "d": 12.5,
      "v": 70
    },
    {
      "midi": 62,
      "hit": false,
      "t": 193206.25,
      "d": 225,
      "v": 63
    },
    {
      "midi": 55,
      "hit": false,
      "t": 193212.5,
      "d": 593.75,
      "v": 69
    },
    {
      "midi": 42,
      "hit": false,
      "t": 193506.25,
      "d": 18.75,
      "v": 61
    },
    {
      "midi": 62,
      "hit": false,
      "t": 193512.5,
      "d": 281.25,
      "v": 49
    },
    {
      "midi": 40,
      "hit": false,
      "t": 193800,
      "d": 12.5,
      "v": 86
    },
    {
      "midi": 42,
      "hit": false,
      "t": 193800,
      "d": 18.75,
      "v": 61
    },
    {
      "midi": 59,
      "hit": false,
      "t": 193806.25,
      "d": 562.5,
      "v": 67
    },
    {
      "midi": 62,
      "hit": false,
      "t": 193818.75,
      "d": 200,
      "v": 62
    },
    {
      "midi": 55,
      "hit": false,
      "t": 193825,
      "d": 543.75,
      "v": 67
    },
    {
      "midi": 35,
      "hit": false,
      "t": 194106.25,
      "d": 12.5,
      "v": 70
    },
    {
      "midi": 42,
      "hit": false,
      "t": 194106.25,
      "d": 18.75,
      "v": 63
    },
    {
      "midi": 62,
      "hit": false,
      "t": 194106.25,
      "d": 262.5,
      "v": 48
    },
    {
      "midi": 62,
      "hit": false,
      "t": 194368.75,
      "d": 18.75,
      "v": 67
    },
    {
      "midi": 57,
      "hit": false,
      "t": 194368.75,
      "d": 25,
      "v": 62
    },
    {
      "midi": 35,
      "hit": false,
      "t": 194400,
      "d": 12.5,
      "v": 72
    },
    {
      "midi": 42,
      "hit": false,
      "t": 194400,
      "d": 18.75,
      "v": 64
    },
    {
      "midi": 62,
      "hit": false,
      "t": 194400,
      "d": 600,
      "v": 70
    },
    {
      "midi": 50,
      "hit": false,
      "t": 194400,
      "d": 2218.75,
      "v": 67
    },
    {
      "midi": 57,
      "hit": false,
      "t": 194412.5,
      "d": 237.5,
      "v": 62
    },
    {
      "midi": 66,
      "hit": false,
      "t": 194412.5,
      "d": 587.5,
      "v": 69
    },
    {
      "midi": 42,
      "hit": false,
      "t": 194712.5,
      "d": 18.75,
      "v": 65
    },
    {
      "midi": 86,
      "hit": false,
      "t": 194912.5,
      "d": 43.75,
      "v": 54
    },
    {
      "midi": 98,
      "hit": false,
      "t": 194925,
      "d": 50,
      "v": 60
    },
    {
      "midi": 42,
      "hit": false,
      "t": 195000,
      "d": 25,
      "v": 63
    },
    {
      "midi": 86,
      "hit": false,
      "t": 195000,
      "d": 425,
      "v": 54
    },
    {
      "midi": 98,
      "hit": false,
      "t": 195000,
      "d": 450,
      "v": 60
    },
    {
      "midi": 40,
      "hit": false,
      "t": 195006.25,
      "d": 12.5,
      "v": 85
    },
    {
      "midi": 62,
      "hit": false,
      "t": 195012.5,
      "d": 562.5,
      "v": 67
    },
    {
      "midi": 66,
      "hit": false,
      "t": 195012.5,
      "d": 575,
      "v": 66
    },
    {
      "midi": 42,
      "hit": false,
      "t": 195300,
      "d": 25,
      "v": 64
    },
    {
      "midi": 35,
      "hit": false,
      "t": 195306.25,
      "d": 12.5,
      "v": 70
    },
    {
      "midi": 57,
      "hit": false,
      "t": 195312.5,
      "d": 268.75,
      "v": 50
    },
    {
      "midi": 35,
      "hit": false,
      "t": 195600,
      "d": 12.5,
      "v": 73
    },
    {
      "midi": 66,
      "hit": false,
      "t": 195600,
      "d": 581.25,
      "v": 65
    },
    {
      "midi": 42,
      "hit": false,
      "t": 195606.25,
      "d": 25,
      "v": 64
    },
    {
      "midi": 57,
      "hit": false,
      "t": 195606.25,
      "d": 193.75,
      "v": 61
    },
    {
      "midi": 62,
      "hit": false,
      "t": 195606.25,
      "d": 587.5,
      "v": 61
    },
    {
      "midi": 42,
      "hit": false,
      "t": 195900,
      "d": 18.75,
      "v": 65
    },
    {
      "midi": 57,
      "hit": false,
      "t": 195900,
      "d": 293.75,
      "v": 48
    },
    {
      "midi": 66,
      "hit": false,
      "t": 196200,
      "d": 575,
      "v": 67
    },
    {
      "midi": 40,
      "hit": false,
      "t": 196206.25,
      "d": 12.5,
      "v": 86
    },
    {
      "midi": 42,
      "hit": false,
      "t": 196206.25,
      "d": 25,
      "v": 61
    },
    {
      "midi": 57,
      "hit": false,
      "t": 196206.25,
      "d": 162.5,
      "v": 62
    },
    {
      "midi": 62,
      "hit": false,
      "t": 196212.5,
      "d": 562.5,
      "v": 67
    },
    {
      "midi": 35,
      "hit": false,
      "t": 196506.25,
      "d": 12.5,
      "v": 70
    },
    {
      "midi": 42,
      "hit": false,
      "t": 196506.25,
      "d": 25,
      "v": 68
    },
    {
      "midi": 57,
      "hit": false,
      "t": 196506.25,
      "d": 268.75,
      "v": 48
    },
    {
      "midi": 62,
      "hit": false,
      "t": 196775,
      "d": 6.25,
      "v": 62
    },
    {
      "midi": 59,
      "hit": false,
      "t": 196775,
      "d": 12.5,
      "v": 67
    },
    {
      "midi": 55,
      "hit": false,
      "t": 196775,
      "d": 18.75,
      "v": 67
    },
    {
      "midi": 35,
      "hit": false,
      "t": 196800,
      "d": 12.5,
      "v": 76
    },
    {
      "midi": 42,
      "hit": false,
      "t": 196800,
      "d": 25,
      "v": 58
    },
    {
      "midi": 59,
      "hit": false,
      "t": 196800,
      "d": 593.75,
      "v": 71
    },
    {
      "midi": 55,
      "hit": false,
      "t": 196800,
      "d": 606.25,
      "v": 67
    },
    {
      "midi": 43,
      "hit": false,
      "t": 196800,
      "d": 2168.75,
      "v": 58
    },
    {
      "midi": 42,
      "hit": false,
      "t": 197106.25,
      "d": 25,
      "v": 58
    },
    {
      "midi": 62,
      "hit": false,
      "t": 197112.5,
      "d": 262.5,
      "v": 52
    },
    {
      "midi": 40,
      "hit": false,
      "t": 197406.25,
      "d": 12.5,
      "v": 86
    },
    {
      "midi": 42,
      "hit": false,
      "t": 197406.25,
      "d": 18.75,
      "v": 60
    },
    {
      "midi": 62,
      "hit": false,
      "t": 197406.25,
      "d": 212.5,
      "v": 60
    },
    {
      "midi": 59,
      "hit": false,
      "t": 197406.25,
      "d": 543.75,
      "v": 63
    },
    {
      "midi": 55,
      "hit": false,
      "t": 197412.5,
      "d": 531.25,
      "v": 72
    },
    {
      "midi": 42,
      "hit": false,
      "t": 197706.25,
      "d": 18.75,
      "v": 64
    },
    {
      "midi": 62,
      "hit": false,
      "t": 197718.75,
      "d": 268.75,
      "v": 50
    },
    {
      "midi": 42,
      "hit": false,
      "t": 198000,
      "d": 25,
      "v": 58
    },
    {
      "midi": 59,
      "hit": false,
      "t": 198000,
      "d": 562.5,
      "v": 69
    },
    {
      "midi": 35,
      "hit": false,
      "t": 198006.25,
      "d": 12.5,
      "v": 70
    },
    {
      "midi": 62,
      "hit": false,
      "t": 198006.25,
      "d": 225,
      "v": 63
    },
    {
      "midi": 55,
      "hit": false,
      "t": 198012.5,
      "d": 593.75,
      "v": 69
    },
    {
      "midi": 42,
      "hit": false,
      "t": 198306.25,
      "d": 18.75,
      "v": 61
    },
    {
      "midi": 62,
      "hit": false,
      "t": 198312.5,
      "d": 281.25,
      "v": 49
    },
    {
      "midi": 40,
      "hit": false,
      "t": 198600,
      "d": 12.5,
      "v": 86
    },
    {
      "midi": 42,
      "hit": false,
      "t": 198600,
      "d": 18.75,
      "v": 61
    },
    {
      "midi": 59,
      "hit": false,
      "t": 198606.25,
      "d": 562.5,
      "v": 67
    },
    {
      "midi": 62,
      "hit": false,
      "t": 198618.75,
      "d": 200,
      "v": 62
    },
    {
      "midi": 55,
      "hit": false,
      "t": 198625,
      "d": 562.5,
      "v": 67
    },
    {
      "midi": 35,
      "hit": false,
      "t": 198906.25,
      "d": 12.5,
      "v": 70
    },
    {
      "midi": 42,
      "hit": false,
      "t": 198906.25,
      "d": 18.75,
      "v": 63
    },
    {
      "midi": 62,
      "hit": false,
      "t": 198906.25,
      "d": 287.5,
      "v": 48
    },
    {
      "midi": 35,
      "hit": false,
      "t": 199200,
      "d": 12.5,
      "v": 72
    },
    {
      "midi": 42,
      "hit": false,
      "t": 199200,
      "d": 18.75,
      "v": 64
    },
    {
      "midi": 55,
      "hit": false,
      "t": 199200,
      "d": 568.75,
      "v": 70
    },
    {
      "midi": 43,
      "hit": false,
      "t": 199200,
      "d": 600,
      "v": 67
    },
    {
      "midi": 62,
      "hit": false,
      "t": 199212.5,
      "d": 237.5,
      "v": 62
    },
    {
      "midi": 59,
      "hit": false,
      "t": 199212.5,
      "d": 587.5,
      "v": 69
    },
    {
      "midi": 42,
      "hit": false,
      "t": 199512.5,
      "d": 18.75,
      "v": 65
    },
    {
      "midi": 83,
      "hit": false,
      "t": 199712.5,
      "d": 43.75,
      "v": 54
    },
    {
      "midi": 95,
      "hit": false,
      "t": 199725,
      "d": 50,
      "v": 60
    },
    {
      "midi": 65,
      "hit": false,
      "t": 199768.75,
      "d": 31.25,
      "v": 70
    },
    {
      "midi": 42,
      "hit": false,
      "t": 199800,
      "d": 25,
      "v": 63
    },
    {
      "midi": 43,
      "hit": false,
      "t": 199800,
      "d": 1618.75,
      "v": 67
    },
    {
      "midi": 83,
      "hit": false,
      "t": 199800,
      "d": 425,
      "v": 54
    },
    {
      "midi": 95,
      "hit": false,
      "t": 199800,
      "d": 450,
      "v": 60
    },
    {
      "midi": 40,
      "hit": false,
      "t": 199806.25,
      "d": 12.5,
      "v": 85
    },
    {
      "midi": 65,
      "hit": false,
      "t": 199812.5,
      "d": 562.5,
      "v": 67
    },
    {
      "midi": 59,
      "hit": false,
      "t": 199812.5,
      "d": 575,
      "v": 66
    },
    {
      "midi": 42,
      "hit": false,
      "t": 200100,
      "d": 25,
      "v": 64
    },
    {
      "midi": 35,
      "hit": false,
      "t": 200106.25,
      "d": 12.5,
      "v": 70
    },
    {
      "midi": 62,
      "hit": false,
      "t": 200112.5,
      "d": 268.75,
      "v": 50
    },
    {
      "midi": 35,
      "hit": false,
      "t": 200400,
      "d": 12.5,
      "v": 73
    },
    {
      "midi": 59,
      "hit": false,
      "t": 200400,
      "d": 581.25,
      "v": 65
    },
    {
      "midi": 42,
      "hit": false,
      "t": 200406.25,
      "d": 25,
      "v": 64
    },
    {
      "midi": 62,
      "hit": false,
      "t": 200406.25,
      "d": 193.75,
      "v": 61
    },
    {
      "midi": 65,
      "hit": false,
      "t": 200406.25,
      "d": 531.25,
      "v": 61
    },
    {
      "midi": 42,
      "hit": false,
      "t": 200700,
      "d": 18.75,
      "v": 65
    },
    {
      "midi": 62,
      "hit": false,
      "t": 200700,
      "d": 293.75,
      "v": 48
    },
    {
      "midi": 55,
      "hit": false,
      "t": 200937.5,
      "d": 56.25,
      "v": 61
    },
    {
      "midi": 59,
      "hit": false,
      "t": 201000,
      "d": 587.5,
      "v": 67
    },
    {
      "midi": 40,
      "hit": false,
      "t": 201006.25,
      "d": 12.5,
      "v": 86
    },
    {
      "midi": 42,
      "hit": false,
      "t": 201006.25,
      "d": 25,
      "v": 61
    },
    {
      "midi": 62,
      "hit": false,
      "t": 201006.25,
      "d": 162.5,
      "v": 62
    },
    {
      "midi": 55,
      "hit": false,
      "t": 201012.5,
      "d": 581.25,
      "v": 67
    },
    {
      "midi": 35,
      "hit": false,
      "t": 201306.25,
      "d": 12.5,
      "v": 70
    },
    {
      "midi": 42,
      "hit": false,
      "t": 201306.25,
      "d": 25,
      "v": 68
    },
    {
      "midi": 62,
      "hit": false,
      "t": 201306.25,
      "d": 275,
      "v": 48
    },
    {
      "midi": 35,
      "hit": false,
      "t": 201600,
      "d": 12.5,
      "v": 76
    },
    {
      "midi": 42,
      "hit": false,
      "t": 201600,
      "d": 25,
      "v": 58
    },
    {
      "midi": 59,
      "hit": false,
      "t": 201600,
      "d": 593.75,
      "v": 71
    },
    {
      "midi": 55,
      "hit": false,
      "t": 201600,
      "d": 606.25,
      "v": 67
    },
    {
      "midi": 43,
      "hit": false,
      "t": 201600,
      "d": 2168.75,
      "v": 58
    },
    {
      "midi": 42,
      "hit": false,
      "t": 201906.25,
      "d": 25,
      "v": 58
    },
    {
      "midi": 62,
      "hit": false,
      "t": 201912.5,
      "d": 262.5,
      "v": 52
    },
    {
      "midi": 40,
      "hit": false,
      "t": 202206.25,
      "d": 12.5,
      "v": 86
    },
    {
      "midi": 42,
      "hit": false,
      "t": 202206.25,
      "d": 18.75,
      "v": 60
    },
    {
      "midi": 62,
      "hit": false,
      "t": 202206.25,
      "d": 212.5,
      "v": 60
    },
    {
      "midi": 59,
      "hit": false,
      "t": 202206.25,
      "d": 543.75,
      "v": 63
    },
    {
      "midi": 55,
      "hit": false,
      "t": 202212.5,
      "d": 531.25,
      "v": 72
    },
    {
      "midi": 42,
      "hit": false,
      "t": 202506.25,
      "d": 18.75,
      "v": 64
    },
    {
      "midi": 62,
      "hit": false,
      "t": 202518.75,
      "d": 268.75,
      "v": 50
    },
    {
      "midi": 42,
      "hit": false,
      "t": 202800,
      "d": 25,
      "v": 58
    },
    {
      "midi": 59,
      "hit": false,
      "t": 202800,
      "d": 562.5,
      "v": 69
    },
    {
      "midi": 35,
      "hit": false,
      "t": 202806.25,
      "d": 12.5,
      "v": 70
    },
    {
      "midi": 62,
      "hit": false,
      "t": 202806.25,
      "d": 225,
      "v": 63
    },
    {
      "midi": 55,
      "hit": false,
      "t": 202812.5,
      "d": 593.75,
      "v": 69
    },
    {
      "midi": 42,
      "hit": false,
      "t": 203106.25,
      "d": 18.75,
      "v": 61
    },
    {
      "midi": 62,
      "hit": false,
      "t": 203112.5,
      "d": 281.25,
      "v": 49
    },
    {
      "midi": 40,
      "hit": false,
      "t": 203400,
      "d": 12.5,
      "v": 86
    },
    {
      "midi": 42,
      "hit": false,
      "t": 203400,
      "d": 18.75,
      "v": 61
    },
    {
      "midi": 59,
      "hit": false,
      "t": 203406.25,
      "d": 562.5,
      "v": 67
    },
    {
      "midi": 62,
      "hit": false,
      "t": 203418.75,
      "d": 200,
      "v": 62
    },
    {
      "midi": 55,
      "hit": false,
      "t": 203425,
      "d": 562.5,
      "v": 67
    },
    {
      "midi": 35,
      "hit": false,
      "t": 203706.25,
      "d": 12.5,
      "v": 70
    },
    {
      "midi": 42,
      "hit": false,
      "t": 203706.25,
      "d": 18.75,
      "v": 63
    },
    {
      "midi": 62,
      "hit": false,
      "t": 203706.25,
      "d": 287.5,
      "v": 48
    },
    {
      "midi": 35,
      "hit": false,
      "t": 204000,
      "d": 12.5,
      "v": 72
    },
    {
      "midi": 42,
      "hit": false,
      "t": 204000,
      "d": 18.75,
      "v": 64
    },
    {
      "midi": 65,
      "hit": false,
      "t": 204000,
      "d": 600,
      "v": 70
    },
    {
      "midi": 43,
      "hit": false,
      "t": 204000,
      "d": 2218.75,
      "v": 67
    },
    {
      "midi": 62,
      "hit": false,
      "t": 204012.5,
      "d": 237.5,
      "v": 62
    },
    {
      "midi": 59,
      "hit": false,
      "t": 204012.5,
      "d": 587.5,
      "v": 69
    },
    {
      "midi": 42,
      "hit": false,
      "t": 204312.5,
      "d": 18.75,
      "v": 65
    },
    {
      "midi": 83,
      "hit": false,
      "t": 204512.5,
      "d": 43.75,
      "v": 54
    },
    {
      "midi": 95,
      "hit": false,
      "t": 204525,
      "d": 50,
      "v": 60
    },
    {
      "midi": 42,
      "hit": false,
      "t": 204600,
      "d": 25,
      "v": 63
    },
    {
      "midi": 83,
      "hit": false,
      "t": 204600,
      "d": 425,
      "v": 54
    },
    {
      "midi": 95,
      "hit": false,
      "t": 204600,
      "d": 450,
      "v": 60
    },
    {
      "midi": 40,
      "hit": false,
      "t": 204606.25,
      "d": 12.5,
      "v": 85
    },
    {
      "midi": 65,
      "hit": false,
      "t": 204612.5,
      "d": 562.5,
      "v": 67
    },
    {
      "midi": 59,
      "hit": false,
      "t": 204612.5,
      "d": 575,
      "v": 66
    },
    {
      "midi": 42,
      "hit": false,
      "t": 204900,
      "d": 25,
      "v": 64
    },
    {
      "midi": 35,
      "hit": false,
      "t": 204906.25,
      "d": 12.5,
      "v": 70
    },
    {
      "midi": 62,
      "hit": false,
      "t": 204912.5,
      "d": 268.75,
      "v": 50
    },
    {
      "midi": 35,
      "hit": false,
      "t": 205200,
      "d": 12.5,
      "v": 73
    },
    {
      "midi": 59,
      "hit": false,
      "t": 205200,
      "d": 581.25,
      "v": 65
    },
    {
      "midi": 42,
      "hit": false,
      "t": 205206.25,
      "d": 25,
      "v": 64
    },
    {
      "midi": 62,
      "hit": false,
      "t": 205206.25,
      "d": 193.75,
      "v": 61
    },
    {
      "midi": 65,
      "hit": false,
      "t": 205206.25,
      "d": 587.5,
      "v": 61
    },
    {
      "midi": 42,
      "hit": false,
      "t": 205500,
      "d": 18.75,
      "v": 65
    },
    {
      "midi": 62,
      "hit": false,
      "t": 205500,
      "d": 293.75,
      "v": 48
    },
    {
      "midi": 59,
      "hit": false,
      "t": 205800,
      "d": 587.5,
      "v": 67
    },
    {
      "midi": 40,
      "hit": false,
      "t": 205806.25,
      "d": 12.5,
      "v": 86
    },
    {
      "midi": 42,
      "hit": false,
      "t": 205806.25,
      "d": 25,
      "v": 61
    },
    {
      "midi": 62,
      "hit": false,
      "t": 205806.25,
      "d": 162.5,
      "v": 62
    },
    {
      "midi": 65,
      "hit": false,
      "t": 205812.5,
      "d": 575,
      "v": 67
    },
    {
      "midi": 35,
      "hit": false,
      "t": 206106.25,
      "d": 12.5,
      "v": 70
    },
    {
      "midi": 42,
      "hit": false,
      "t": 206106.25,
      "d": 25,
      "v": 68
    },
    {
      "midi": 62,
      "hit": false,
      "t": 206106.25,
      "d": 275,
      "v": 48
    },
    {
      "midi": 60,
      "hit": false,
      "t": 206387.5,
      "d": 6.25,
      "v": 67
    },
    {
      "midi": 55,
      "hit": false,
      "t": 206387.5,
      "d": 12.5,
      "v": 48
    },
    {
      "midi": 35,
      "hit": false,
      "t": 206400,
      "d": 12.5,
      "v": 76
    },
    {
      "midi": 42,
      "hit": false,
      "t": 206400,
      "d": 25,
      "v": 58
    },
    {
      "midi": 64,
      "hit": false,
      "t": 206400,
      "d": 593.75,
      "v": 71
    },
    {
      "midi": 60,
      "hit": false,
      "t": 206400,
      "d": 606.25,
      "v": 67
    },
    {
      "midi": 48,
      "hit": false,
      "t": 206400,
      "d": 2168.75,
      "v": 58
    },
    {
      "midi": 42,
      "hit": false,
      "t": 206706.25,
      "d": 25,
      "v": 58
    },
    {
      "midi": 55,
      "hit": false,
      "t": 206712.5,
      "d": 262.5,
      "v": 52
    },
    {
      "midi": 40,
      "hit": false,
      "t": 207006.25,
      "d": 12.5,
      "v": 86
    },
    {
      "midi": 42,
      "hit": false,
      "t": 207006.25,
      "d": 18.75,
      "v": 60
    },
    {
      "midi": 55,
      "hit": false,
      "t": 207006.25,
      "d": 212.5,
      "v": 60
    },
    {
      "midi": 64,
      "hit": false,
      "t": 207006.25,
      "d": 543.75,
      "v": 63
    },
    {
      "midi": 60,
      "hit": false,
      "t": 207012.5,
      "d": 531.25,
      "v": 72
    },
    {
      "midi": 42,
      "hit": false,
      "t": 207306.25,
      "d": 18.75,
      "v": 64
    },
    {
      "midi": 55,
      "hit": false,
      "t": 207318.75,
      "d": 268.75,
      "v": 50
    },
    {
      "midi": 42,
      "hit": false,
      "t": 207600,
      "d": 25,
      "v": 58
    },
    {
      "midi": 64,
      "hit": false,
      "t": 207600,
      "d": 562.5,
      "v": 69
    },
    {
      "midi": 35,
      "hit": false,
      "t": 207606.25,
      "d": 12.5,
      "v": 70
    },
    {
      "midi": 55,
      "hit": false,
      "t": 207606.25,
      "d": 225,
      "v": 63
    },
    {
      "midi": 60,
      "hit": false,
      "t": 207612.5,
      "d": 593.75,
      "v": 69
    },
    {
      "midi": 42,
      "hit": false,
      "t": 207906.25,
      "d": 18.75,
      "v": 61
    },
    {
      "midi": 55,
      "hit": false,
      "t": 207912.5,
      "d": 281.25,
      "v": 49
    },
    {
      "midi": 40,
      "hit": false,
      "t": 208200,
      "d": 12.5,
      "v": 86
    },
    {
      "midi": 42,
      "hit": false,
      "t": 208200,
      "d": 18.75,
      "v": 61
    },
    {
      "midi": 64,
      "hit": false,
      "t": 208206.25,
      "d": 562.5,
      "v": 67
    },
    {
      "midi": 55,
      "hit": false,
      "t": 208218.75,
      "d": 200,
      "v": 62
    },
    {
      "midi": 60,
      "hit": false,
      "t": 208225,
      "d": 562.5,
      "v": 67
    },
    {
      "midi": 35,
      "hit": false,
      "t": 208506.25,
      "d": 12.5,
      "v": 70
    },
    {
      "midi": 42,
      "hit": false,
      "t": 208506.25,
      "d": 18.75,
      "v": 63
    },
    {
      "midi": 55,
      "hit": false,
      "t": 208506.25,
      "d": 287.5,
      "v": 48
    },
    {
      "midi": 35,
      "hit": false,
      "t": 208800,
      "d": 12.5,
      "v": 72
    },
    {
      "midi": 42,
      "hit": false,
      "t": 208800,
      "d": 18.75,
      "v": 64
    },
    {
      "midi": 60,
      "hit": false,
      "t": 208800,
      "d": 600,
      "v": 70
    },
    {
      "midi": 48,
      "hit": false,
      "t": 208800,
      "d": 625,
      "v": 67
    },
    {
      "midi": 55,
      "hit": false,
      "t": 208812.5,
      "d": 237.5,
      "v": 62
    },
    {
      "midi": 64,
      "hit": false,
      "t": 208812.5,
      "d": 587.5,
      "v": 69
    },
    {
      "midi": 42,
      "hit": false,
      "t": 209112.5,
      "d": 18.75,
      "v": 65
    },
    {
      "midi": 84,
      "hit": false,
      "t": 209312.5,
      "d": 43.75,
      "v": 54
    },
    {
      "midi": 96,
      "hit": false,
      "t": 209325,
      "d": 50,
      "v": 60
    },
    {
      "midi": 42,
      "hit": false,
      "t": 209400,
      "d": 25,
      "v": 63
    },
    {
      "midi": 84,
      "hit": false,
      "t": 209400,
      "d": 25,
      "v": 54
    },
    {
      "midi": 96,
      "hit": false,
      "t": 209400,
      "d": 25,
      "v": 60
    },
    {
      "midi": 40,
      "hit": false,
      "t": 209406.25,
      "d": 12.5,
      "v": 85
    },
    {
      "midi": 55,
      "hit": false,
      "t": 209406.25,
      "d": 18.75,
      "v": 60
    },
    {
      "midi": 60,
      "hit": false,
      "t": 209412.5,
      "d": 12.5,
      "v": 67
    },
    {
      "midi": 64,
      "hit": false,
      "t": 209412.5,
      "d": 12.5,
      "v": 66
    },
    {
      "midi": 42,
      "hit": false,
      "t": 209700,
      "d": 25,
      "v": 64
    },
    {
      "midi": 35,
      "hit": false,
      "t": 209706.25,
      "d": 12.5,
      "v": 70
    },
    {
      "midi": 55,
      "hit": false,
      "t": 209718.75,
      "d": 537.5,
      "v": 26
    },
    {
      "midi": 51,
      "hit": false,
      "t": 209993.75,
      "d": 12.5,
      "v": 54
    },
    {
      "midi": 35,
      "hit": false,
      "t": 210000,
      "d": 12.5,
      "v": 73
    },
    {
      "midi": 51,
      "hit": false,
      "t": 210006.25,
      "d": 25,
      "v": 90
    },
    {
      "midi": 60,
      "hit": false,
      "t": 210006.25,
      "d": 562.5,
      "v": 42
    },
    {
      "midi": 64,
      "hit": false,
      "t": 210018.75,
      "d": 787.5,
      "v": 38
    },
    {
      "midi": 55,
      "hit": false,
      "t": 210300,
      "d": 500,
      "v": 57
    },
    {
      "midi": 60,
      "hit": false,
      "t": 210600,
      "d": 562.5,
      "v": 62
    },
    {
      "midi": 64,
      "hit": false,
      "t": 210900,
      "d": 293.75,
      "v": 69
    },
    {
      "midi": 35,
      "hit": false,
      "t": 211200,
      "d": 12.5,
      "v": 76
    },
    {
      "midi": 42,
      "hit": false,
      "t": 211200,
      "d": 25,
      "v": 58
    },
    {
      "midi": 43,
      "hit": false,
      "t": 211200,
      "d": 2168.75,
      "v": 58
    },
    {
      "midi": 59,
      "hit": false,
      "t": 211500,
      "d": 306.25,
      "v": 52
    },
    {
      "midi": 42,
      "hit": false,
      "t": 211506.25,
      "d": 25,
      "v": 58
    },
    {
      "midi": 62,
      "hit": false,
      "t": 211800,
      "d": 343.75,
      "v": 56
    },
    {
      "midi": 42,
      "hit": false,
      "t": 211806.25,
      "d": 18.75,
      "v": 60
    },
    {
      "midi": 67,
      "hit": false,
      "t": 212100,
      "d": 350,
      "v": 59
    },
    {
      "midi": 35,
      "hit": false,
      "t": 212106.25,
      "d": 12.5,
      "v": 61
    },
    {
      "midi": 42,
      "hit": false,
      "t": 212106.25,
      "d": 18.75,
      "v": 64
    },
    {
      "midi": 42,
      "hit": false,
      "t": 212400,
      "d": 25,
      "v": 58
    },
    {
      "midi": 71,
      "hit": false,
      "t": 212400,
      "d": 312.5,
      "v": 66
    },
    {
      "midi": 35,
      "hit": false,
      "t": 212406.25,
      "d": 12.5,
      "v": 70
    },
    {
      "midi": 62,
      "hit": false,
      "t": 212700,
      "d": 337.5,
      "v": 58
    },
    {
      "midi": 42,
      "hit": false,
      "t": 212706.25,
      "d": 18.75,
      "v": 61
    },
    {
      "midi": 42,
      "hit": false,
      "t": 213000,
      "d": 18.75,
      "v": 61
    },
    {
      "midi": 67,
      "hit": false,
      "t": 213000,
      "d": 325,
      "v": 64
    },
    {
      "midi": 71,
      "hit": false,
      "t": 213300,
      "d": 287.5,
      "v": 66
    },
    {
      "midi": 42,
      "hit": false,
      "t": 213306.25,
      "d": 18.75,
      "v": 63
    },
    {
      "midi": 57,
      "hit": false,
      "t": 213587.5,
      "d": 306.25,
      "v": 54
    },
    {
      "midi": 35,
      "hit": false,
      "t": 213600,
      "d": 12.5,
      "v": 72
    },
    {
      "midi": 42,
      "hit": false,
      "t": 213600,
      "d": 18.75,
      "v": 64
    },
    {
      "midi": 50,
      "hit": false,
      "t": 213600,
      "d": 2218.75,
      "v": 68
    },
    {
      "midi": 54,
      "hit": false,
      "t": 213900,
      "d": 300,
      "v": 56
    },
    {
      "midi": 42,
      "hit": false,
      "t": 213912.5,
      "d": 18.75,
      "v": 65
    },
    {
      "midi": 42,
      "hit": false,
      "t": 214200,
      "d": 25,
      "v": 63
    },
    {
      "midi": 57,
      "hit": false,
      "t": 214200,
      "d": 331.25,
      "v": 58
    },
    {
      "midi": 42,
      "hit": false,
      "t": 214500,
      "d": 25,
      "v": 64
    },
    {
      "midi": 62,
      "hit": false,
      "t": 214500,
      "d": 325,
      "v": 66
    },
    {
      "midi": 35,
      "hit": false,
      "t": 214506.25,
      "d": 12.5,
      "v": 70
    },
    {
      "midi": 35,
      "hit": false,
      "t": 214800,
      "d": 12.5,
      "v": 73
    },
    {
      "midi": 66,
      "hit": false,
      "t": 214800,
      "d": 331.25,
      "v": 68
    },
    {
      "midi": 42,
      "hit": false,
      "t": 214806.25,
      "d": 25,
      "v": 64
    },
    {
      "midi": 42,
      "hit": false,
      "t": 215100,
      "d": 18.75,
      "v": 65
    },
    {
      "midi": 57,
      "hit": false,
      "t": 215100,
      "d": 343.75,
      "v": 58
    },
    {
      "midi": 62,
      "hit": false,
      "t": 215400,
      "d": 325,
      "v": 66
    },
    {
      "midi": 42,
      "hit": false,
      "t": 215406.25,
      "d": 25,
      "v": 61
    },
    {
      "midi": 66,
      "hit": false,
      "t": 215700,
      "d": 168.75,
      "v": 61
    },
    {
      "midi": 42,
      "hit": false,
      "t": 215706.25,
      "d": 25,
      "v": 68
    },
    {
      "midi": 62,
      "hit": false,
      "t": 215987.5,
      "d": 12.5,
      "v": 54
    },
    {
      "midi": 35,
      "hit": false,
      "t": 216000,
      "d": 12.5,
      "v": 76
    },
    {
      "midi": 42,
      "hit": false,
      "t": 216000,
      "d": 25,
      "v": 58
    },
    {
      "midi": 43,
      "hit": false,
      "t": 216000,
      "d": 2168.75,
      "v": 58
    },
    {
      "midi": 59,
      "hit": false,
      "t": 216300,
      "d": 306.25,
      "v": 52
    },
    {
      "midi": 42,
      "hit": false,
      "t": 216306.25,
      "d": 25,
      "v": 58
    },
    {
      "midi": 62,
      "hit": false,
      "t": 216600,
      "d": 343.75,
      "v": 56
    },
    {
      "midi": 42,
      "hit": false,
      "t": 216606.25,
      "d": 18.75,
      "v": 60
    },
    {
      "midi": 67,
      "hit": false,
      "t": 216900,
      "d": 350,
      "v": 59
    },
    {
      "midi": 35,
      "hit": false,
      "t": 216906.25,
      "d": 12.5,
      "v": 61
    },
    {
      "midi": 42,
      "hit": false,
      "t": 216906.25,
      "d": 18.75,
      "v": 64
    },
    {
      "midi": 42,
      "hit": false,
      "t": 217200,
      "d": 25,
      "v": 58
    },
    {
      "midi": 71,
      "hit": false,
      "t": 217200,
      "d": 312.5,
      "v": 66
    },
    {
      "midi": 35,
      "hit": false,
      "t": 217206.25,
      "d": 12.5,
      "v": 70
    },
    {
      "midi": 62,
      "hit": false,
      "t": 217500,
      "d": 337.5,
      "v": 58
    },
    {
      "midi": 42,
      "hit": false,
      "t": 217506.25,
      "d": 18.75,
      "v": 61
    },
    {
      "midi": 42,
      "hit": false,
      "t": 217800,
      "d": 18.75,
      "v": 61
    },
    {
      "midi": 67,
      "hit": false,
      "t": 217800,
      "d": 325,
      "v": 64
    },
    {
      "midi": 71,
      "hit": false,
      "t": 218100,
      "d": 293.75,
      "v": 66
    },
    {
      "midi": 42,
      "hit": false,
      "t": 218106.25,
      "d": 18.75,
      "v": 63
    },
    {
      "midi": 35,
      "hit": false,
      "t": 218400,
      "d": 12.5,
      "v": 72
    },
    {
      "midi": 42,
      "hit": false,
      "t": 218400,
      "d": 18.75,
      "v": 64
    },
    {
      "midi": 43,
      "hit": false,
      "t": 218400,
      "d": 2218.75,
      "v": 68
    },
    {
      "midi": 59,
      "hit": false,
      "t": 218700,
      "d": 300,
      "v": 56
    },
    {
      "midi": 42,
      "hit": false,
      "t": 218712.5,
      "d": 18.75,
      "v": 65
    },
    {
      "midi": 42,
      "hit": false,
      "t": 219000,
      "d": 25,
      "v": 63
    },
    {
      "midi": 62,
      "hit": false,
      "t": 219000,
      "d": 331.25,
      "v": 58
    },
    {
      "midi": 42,
      "hit": false,
      "t": 219300,
      "d": 25,
      "v": 64
    },
    {
      "midi": 67,
      "hit": false,
      "t": 219300,
      "d": 325,
      "v": 66
    },
    {
      "midi": 35,
      "hit": false,
      "t": 219306.25,
      "d": 12.5,
      "v": 70
    },
    {
      "midi": 35,
      "hit": false,
      "t": 219600,
      "d": 12.5,
      "v": 73
    },
    {
      "midi": 71,
      "hit": false,
      "t": 219600,
      "d": 331.25,
      "v": 68
    },
    {
      "midi": 42,
      "hit": false,
      "t": 219606.25,
      "d": 25,
      "v": 64
    },
    {
      "midi": 42,
      "hit": false,
      "t": 219900,
      "d": 18.75,
      "v": 65
    },
    {
      "midi": 62,
      "hit": false,
      "t": 219900,
      "d": 343.75,
      "v": 58
    },
    {
      "midi": 67,
      "hit": false,
      "t": 220200,
      "d": 325,
      "v": 66
    },
    {
      "midi": 42,
      "hit": false,
      "t": 220206.25,
      "d": 25,
      "v": 61
    },
    {
      "midi": 71,
      "hit": false,
      "t": 220500,
      "d": 168.75,
      "v": 61
    },
    {
      "midi": 42,
      "hit": false,
      "t": 220506.25,
      "d": 25,
      "v": 68
    },
    {
      "midi": 55,
      "hit": false,
      "t": 220781.25,
      "d": 18.75,
      "v": 54
    },
    {
      "midi": 35,
      "hit": false,
      "t": 220800,
      "d": 12.5,
      "v": 76
    },
    {
      "midi": 42,
      "hit": false,
      "t": 220800,
      "d": 25,
      "v": 58
    },
    {
      "midi": 48,
      "hit": false,
      "t": 220800,
      "d": 2168.75,
      "v": 58
    },
    {
      "midi": 52,
      "hit": false,
      "t": 221100,
      "d": 306.25,
      "v": 52
    },
    {
      "midi": 42,
      "hit": false,
      "t": 221106.25,
      "d": 25,
      "v": 58
    },
    {
      "midi": 55,
      "hit": false,
      "t": 221400,
      "d": 343.75,
      "v": 56
    },
    {
      "midi": 42,
      "hit": false,
      "t": 221406.25,
      "d": 18.75,
      "v": 60
    },
    {
      "midi": 60,
      "hit": false,
      "t": 221700,
      "d": 350,
      "v": 59
    },
    {
      "midi": 35,
      "hit": false,
      "t": 221706.25,
      "d": 12.5,
      "v": 61
    },
    {
      "midi": 42,
      "hit": false,
      "t": 221706.25,
      "d": 18.75,
      "v": 64
    },
    {
      "midi": 42,
      "hit": false,
      "t": 222000,
      "d": 25,
      "v": 58
    },
    {
      "midi": 64,
      "hit": false,
      "t": 222000,
      "d": 312.5,
      "v": 66
    },
    {
      "midi": 35,
      "hit": false,
      "t": 222006.25,
      "d": 12.5,
      "v": 70
    },
    {
      "midi": 55,
      "hit": false,
      "t": 222300,
      "d": 337.5,
      "v": 58
    },
    {
      "midi": 42,
      "hit": false,
      "t": 222306.25,
      "d": 18.75,
      "v": 61
    },
    {
      "midi": 42,
      "hit": false,
      "t": 222600,
      "d": 18.75,
      "v": 61
    },
    {
      "midi": 60,
      "hit": false,
      "t": 222600,
      "d": 325,
      "v": 64
    },
    {
      "midi": 64,
      "hit": false,
      "t": 222900,
      "d": 293.75,
      "v": 66
    },
    {
      "midi": 42,
      "hit": false,
      "t": 222906.25,
      "d": 18.75,
      "v": 63
    },
    {
      "midi": 35,
      "hit": false,
      "t": 223200,
      "d": 12.5,
      "v": 72
    },
    {
      "midi": 42,
      "hit": false,
      "t": 223200,
      "d": 18.75,
      "v": 64
    },
    {
      "midi": 48,
      "hit": false,
      "t": 223200,
      "d": 2218.75,
      "v": 68
    },
    {
      "midi": 52,
      "hit": false,
      "t": 223500,
      "d": 300,
      "v": 56
    },
    {
      "midi": 42,
      "hit": false,
      "t": 223512.5,
      "d": 18.75,
      "v": 65
    },
    {
      "midi": 42,
      "hit": false,
      "t": 223800,
      "d": 25,
      "v": 63
    },
    {
      "midi": 55,
      "hit": false,
      "t": 223800,
      "d": 331.25,
      "v": 58
    },
    {
      "midi": 42,
      "hit": false,
      "t": 224100,
      "d": 25,
      "v": 64
    },
    {
      "midi": 60,
      "hit": false,
      "t": 224100,
      "d": 325,
      "v": 66
    },
    {
      "midi": 35,
      "hit": false,
      "t": 224106.25,
      "d": 12.5,
      "v": 70
    },
    {
      "midi": 35,
      "hit": false,
      "t": 224400,
      "d": 12.5,
      "v": 73
    },
    {
      "midi": 64,
      "hit": false,
      "t": 224400,
      "d": 331.25,
      "v": 68
    },
    {
      "midi": 42,
      "hit": false,
      "t": 224406.25,
      "d": 25,
      "v": 64
    },
    {
      "midi": 42,
      "hit": false,
      "t": 224700,
      "d": 18.75,
      "v": 65
    },
    {
      "midi": 55,
      "hit": false,
      "t": 224700,
      "d": 343.75,
      "v": 58
    },
    {
      "midi": 60,
      "hit": false,
      "t": 225000,
      "d": 325,
      "v": 66
    },
    {
      "midi": 42,
      "hit": false,
      "t": 225006.25,
      "d": 25,
      "v": 61
    },
    {
      "midi": 64,
      "hit": false,
      "t": 225300,
      "d": 168.75,
      "v": 61
    },
    {
      "midi": 42,
      "hit": false,
      "t": 225306.25,
      "d": 25,
      "v": 68
    },
    {
      "midi": 62,
      "hit": false,
      "t": 225581.25,
      "d": 18.75,
      "v": 54
    },
    {
      "midi": 35,
      "hit": false,
      "t": 225600,
      "d": 12.5,
      "v": 76
    },
    {
      "midi": 42,
      "hit": false,
      "t": 225600,
      "d": 25,
      "v": 58
    },
    {
      "midi": 43,
      "hit": false,
      "t": 225600,
      "d": 2168.75,
      "v": 58
    },
    {
      "midi": 59,
      "hit": false,
      "t": 225900,
      "d": 306.25,
      "v": 52
    },
    {
      "midi": 42,
      "hit": false,
      "t": 225906.25,
      "d": 25,
      "v": 58
    },
    {
      "midi": 62,
      "hit": false,
      "t": 226200,
      "d": 343.75,
      "v": 56
    },
    {
      "midi": 42,
      "hit": false,
      "t": 226206.25,
      "d": 18.75,
      "v": 60
    },
    {
      "midi": 67,
      "hit": false,
      "t": 226500,
      "d": 350,
      "v": 59
    },
    {
      "midi": 35,
      "hit": false,
      "t": 226506.25,
      "d": 12.5,
      "v": 61
    },
    {
      "midi": 42,
      "hit": false,
      "t": 226506.25,
      "d": 18.75,
      "v": 64
    },
    {
      "midi": 42,
      "hit": false,
      "t": 226800,
      "d": 25,
      "v": 58
    },
    {
      "midi": 71,
      "hit": false,
      "t": 226800,
      "d": 312.5,
      "v": 66
    },
    {
      "midi": 35,
      "hit": false,
      "t": 226806.25,
      "d": 12.5,
      "v": 70
    },
    {
      "midi": 62,
      "hit": false,
      "t": 227100,
      "d": 337.5,
      "v": 58
    },
    {
      "midi": 42,
      "hit": false,
      "t": 227106.25,
      "d": 18.75,
      "v": 61
    },
    {
      "midi": 42,
      "hit": false,
      "t": 227400,
      "d": 18.75,
      "v": 61
    },
    {
      "midi": 67,
      "hit": false,
      "t": 227400,
      "d": 325,
      "v": 64
    },
    {
      "midi": 71,
      "hit": false,
      "t": 227700,
      "d": 293.75,
      "v": 66
    },
    {
      "midi": 42,
      "hit": false,
      "t": 227706.25,
      "d": 18.75,
      "v": 63
    },
    {
      "midi": 35,
      "hit": false,
      "t": 228000,
      "d": 12.5,
      "v": 72
    },
    {
      "midi": 42,
      "hit": false,
      "t": 228000,
      "d": 18.75,
      "v": 64
    },
    {
      "midi": 43,
      "hit": false,
      "t": 228000,
      "d": 2218.75,
      "v": 68
    },
    {
      "midi": 59,
      "hit": false,
      "t": 228300,
      "d": 300,
      "v": 56
    },
    {
      "midi": 42,
      "hit": false,
      "t": 228312.5,
      "d": 18.75,
      "v": 65
    },
    {
      "midi": 42,
      "hit": false,
      "t": 228600,
      "d": 25,
      "v": 63
    },
    {
      "midi": 62,
      "hit": false,
      "t": 228600,
      "d": 331.25,
      "v": 58
    },
    {
      "midi": 42,
      "hit": false,
      "t": 228900,
      "d": 25,
      "v": 64
    },
    {
      "midi": 67,
      "hit": false,
      "t": 228900,
      "d": 325,
      "v": 66
    },
    {
      "midi": 35,
      "hit": false,
      "t": 228906.25,
      "d": 12.5,
      "v": 70
    },
    {
      "midi": 35,
      "hit": false,
      "t": 229200,
      "d": 12.5,
      "v": 73
    },
    {
      "midi": 71,
      "hit": false,
      "t": 229200,
      "d": 331.25,
      "v": 68
    },
    {
      "midi": 42,
      "hit": false,
      "t": 229206.25,
      "d": 25,
      "v": 64
    },
    {
      "midi": 42,
      "hit": false,
      "t": 229500,
      "d": 18.75,
      "v": 65
    },
    {
      "midi": 62,
      "hit": false,
      "t": 229500,
      "d": 343.75,
      "v": 58
    },
    {
      "midi": 67,
      "hit": false,
      "t": 229800,
      "d": 325,
      "v": 66
    },
    {
      "midi": 42,
      "hit": false,
      "t": 229806.25,
      "d": 25,
      "v": 61
    },
    {
      "midi": 71,
      "hit": false,
      "t": 230100,
      "d": 168.75,
      "v": 61
    },
    {
      "midi": 42,
      "hit": false,
      "t": 230106.25,
      "d": 25,
      "v": 68
    },
    {
      "midi": 55,
      "hit": false,
      "t": 230368.75,
      "d": 31.25,
      "v": 54
    },
    {
      "midi": 35,
      "hit": false,
      "t": 230400,
      "d": 12.5,
      "v": 76
    },
    {
      "midi": 42,
      "hit": false,
      "t": 230400,
      "d": 25,
      "v": 58
    },
    {
      "midi": 48,
      "hit": false,
      "t": 230400,
      "d": 2168.75,
      "v": 58
    },
    {
      "midi": 52,
      "hit": false,
      "t": 230700,
      "d": 306.25,
      "v": 52
    },
    {
      "midi": 42,
      "hit": false,
      "t": 230706.25,
      "d": 25,
      "v": 58
    },
    {
      "midi": 55,
      "hit": false,
      "t": 231000,
      "d": 343.75,
      "v": 56
    },
    {
      "midi": 42,
      "hit": false,
      "t": 231006.25,
      "d": 18.75,
      "v": 60
    },
    {
      "midi": 60,
      "hit": false,
      "t": 231300,
      "d": 350,
      "v": 59
    },
    {
      "midi": 35,
      "hit": false,
      "t": 231306.25,
      "d": 12.5,
      "v": 61
    },
    {
      "midi": 42,
      "hit": false,
      "t": 231306.25,
      "d": 18.75,
      "v": 64
    },
    {
      "midi": 42,
      "hit": false,
      "t": 231600,
      "d": 25,
      "v": 58
    },
    {
      "midi": 64,
      "hit": false,
      "t": 231600,
      "d": 312.5,
      "v": 66
    },
    {
      "midi": 35,
      "hit": false,
      "t": 231606.25,
      "d": 12.5,
      "v": 70
    },
    {
      "midi": 55,
      "hit": false,
      "t": 231900,
      "d": 337.5,
      "v": 58
    },
    {
      "midi": 42,
      "hit": false,
      "t": 231906.25,
      "d": 18.75,
      "v": 61
    },
    {
      "midi": 42,
      "hit": false,
      "t": 232200,
      "d": 18.75,
      "v": 61
    },
    {
      "midi": 60,
      "hit": false,
      "t": 232200,
      "d": 325,
      "v": 64
    },
    {
      "midi": 64,
      "hit": false,
      "t": 232500,
      "d": 293.75,
      "v": 66
    },
    {
      "midi": 42,
      "hit": false,
      "t": 232506.25,
      "d": 18.75,
      "v": 63
    },
    {
      "midi": 35,
      "hit": false,
      "t": 232800,
      "d": 12.5,
      "v": 76
    },
    {
      "midi": 42,
      "hit": false,
      "t": 232800,
      "d": 25,
      "v": 58
    },
    {
      "midi": 48,
      "hit": false,
      "t": 232800,
      "d": 2168.75,
      "v": 62
    },
    {
      "midi": 52,
      "hit": false,
      "t": 233100,
      "d": 306.25,
      "v": 49
    },
    {
      "midi": 42,
      "hit": false,
      "t": 233106.25,
      "d": 25,
      "v": 58
    },
    {
      "midi": 55,
      "hit": false,
      "t": 233400,
      "d": 343.75,
      "v": 54
    },
    {
      "midi": 42,
      "hit": false,
      "t": 233406.25,
      "d": 18.75,
      "v": 60
    },
    {
      "midi": 60,
      "hit": false,
      "t": 233700,
      "d": 350,
      "v": 56
    },
    {
      "midi": 35,
      "hit": false,
      "t": 233706.25,
      "d": 12.5,
      "v": 61
    },
    {
      "midi": 42,
      "hit": false,
      "t": 233706.25,
      "d": 18.75,
      "v": 64
    },
    {
      "midi": 42,
      "hit": false,
      "t": 234000,
      "d": 25,
      "v": 58
    },
    {
      "midi": 64,
      "hit": false,
      "t": 234000,
      "d": 312.5,
      "v": 63
    },
    {
      "midi": 35,
      "hit": false,
      "t": 234006.25,
      "d": 12.5,
      "v": 70
    },
    {
      "midi": 46,
      "hit": false,
      "t": 234306.25,
      "d": 18.75,
      "v": 64
    },
    {
      "midi": 60,
      "hit": false,
      "t": 234306.25,
      "d": 325,
      "v": 61
    },
    {
      "midi": 64,
      "hit": false,
      "t": 234625,
      "d": 337.5,
      "v": 62
    },
    {
      "midi": 51,
      "hit": false,
      "t": 234631.25,
      "d": 18.75,
      "v": 91
    },
    {
      "midi": 67,
      "hit": false,
      "t": 234950,
      "d": 387.5,
      "v": 67
    },
    {
      "midi": 62,
      "hit": false,
      "t": 235337.5,
      "d": 462.5,
      "v": 54
    },
    {
      "midi": 86,
      "hit": false,
      "t": 235425,
      "d": 2100,
      "v": 65
    },
    {
      "midi": 95,
      "hit": false,
      "t": 235500,
      "d": 2400,
      "v": 55
    },
    {
      "midi": 31,
      "hit": false,
      "t": 236350,
      "d": 118.75,
      "v": 50
    },
    {
      "midi": 31,
      "hit": false,
      "t": 236762.5,
      "d": 2068.75,
      "v": 47
    }
  ]
}