{
  "jsonPath": "Animes/Bubblegum Crisis MIDI Collection/industrial-line.json",
  "path": "Animes\\Bubblegum Crisis MIDI Collection\\Industrial Line.mid",
  "name": "Industrial Line",
  "difficulty": "Advanced",
  "bpm": 130.00013000013,
  "notes": [
    {
      "midi": 26,
      "hit": false,
      "t": 0,
      "d": 230.76899999999998,
      "v": 100
    },
    {
      "midi": 40,
      "hit": false,
      "t": 230.76899999999998,
      "d": 0,
      "v": 100
    },
    {
      "midi": 40,
      "hit": false,
      "t": 346.15349999999995,
      "d": 0,
      "v": 100
    },
    {
      "midi": 38,
      "hit": false,
      "t": 346.15349999999995,
      "d": 0,
      "v": 100
    },
    {
      "midi": 40,
      "hit": false,
      "t": 461.53799999999995,
      "d": 0,
      "v": 100
    },
    {
      "midi": 50,
      "hit": false,
      "t": 461.53799999999995,
      "d": 115.38449999999995,
      "v": 100
    },
    {
      "midi": 38,
      "hit": false,
      "t": 692.3069999999999,
      "d": 115.3845,
      "v": 100
    },
    {
      "midi": 40,
      "hit": false,
      "t": 807.6914999999999,
      "d": 0,
      "v": 100
    },
    {
      "midi": 40,
      "hit": false,
      "t": 923.0759999999999,
      "d": 0,
      "v": 100
    },
    {
      "midi": 40,
      "hit": false,
      "t": 1153.8449999999998,
      "d": 57.69225000000006,
      "v": 100
    },
    {
      "midi": 26,
      "hit": false,
      "t": 1153.8449999999998,
      "d": 230.76899999999978,
      "v": 100
    },
    {
      "midi": 38,
      "hit": false,
      "t": 1269.2294999999997,
      "d": 115.38449999999989,
      "v": 100
    },
    {
      "midi": 50,
      "hit": false,
      "t": 1384.6139999999996,
      "d": 115.38449999999989,
      "v": 100
    },
    {
      "midi": 40,
      "hit": false,
      "t": 1384.6139999999998,
      "d": 0,
      "v": 100
    },
    {
      "midi": 45,
      "hit": false,
      "t": 1499.9984999999995,
      "d": 115.38449999999989,
      "v": 100
    },
    {
      "midi": 40,
      "hit": false,
      "t": 1499.9984999999997,
      "d": 0,
      "v": 100
    },
    {
      "midi": 38,
      "hit": false,
      "t": 1615.3829999999994,
      "d": 115.38449999999989,
      "v": 100
    },
    {
      "midi": 40,
      "hit": false,
      "t": 1615.3829999999996,
      "d": 0,
      "v": 100
    },
    {
      "midi": 26,
      "hit": false,
      "t": 1846.1519999999991,
      "d": 230.76899999999978,
      "v": 100
    },
    {
      "midi": 50,
      "hit": false,
      "t": 1846.1519999999998,
      "d": 0,
      "v": 100
    },
    {
      "midi": 53,
      "hit": false,
      "t": 1846.1519999999998,
      "d": 0,
      "v": 100
    },
    {
      "midi": 57,
      "hit": false,
      "t": 1846.1519999999998,
      "d": 0,
      "v": 100
    },
    {
      "midi": 62,
      "hit": false,
      "t": 1846.1519999999998,
      "d": 0,
      "v": 100
    },
    {
      "midi": 40,
      "hit": false,
      "t": 2076.9209999999994,
      "d": 0,
      "v": 100
    },
    {
      "midi": 38,
      "hit": false,
      "t": 2192.305499999999,
      "d": 0,
      "v": 100
    },
    {
      "midi": 40,
      "hit": false,
      "t": 2192.3054999999995,
      "d": 0,
      "v": 100
    },
    {
      "midi": 50,
      "hit": false,
      "t": 2307.689999999999,
      "d": 115.38450000000012,
      "v": 100
    },
    {
      "midi": 40,
      "hit": false,
      "t": 2307.6899999999996,
      "d": 0,
      "v": 100
    },
    {
      "midi": 38,
      "hit": false,
      "t": 2538.4589999999994,
      "d": 115.38450000000012,
      "v": 100
    },
    {
      "midi": 40,
      "hit": false,
      "t": 2653.8435,
      "d": 0,
      "v": 100
    },
    {
      "midi": 40,
      "hit": false,
      "t": 2769.228,
      "d": 0,
      "v": 100
    },
    {
      "midi": 26,
      "hit": false,
      "t": 2999.9969999999994,
      "d": 230.76900000000023,
      "v": 100
    },
    {
      "midi": 40,
      "hit": false,
      "t": 2999.9970000000003,
      "d": 57.69225000000006,
      "v": 100
    },
    {
      "midi": 38,
      "hit": false,
      "t": 3115.3814999999995,
      "d": 115.38450000000012,
      "v": 100
    },
    {
      "midi": 50,
      "hit": false,
      "t": 3230.7659999999996,
      "d": 115.38450000000012,
      "v": 100
    },
    {
      "midi": 40,
      "hit": false,
      "t": 3230.7660000000005,
      "d": 0,
      "v": 100
    },
    {
      "midi": 45,
      "hit": false,
      "t": 3346.1504999999997,
      "d": 115.38450000000012,
      "v": 100
    },
    {
      "midi": 40,
      "hit": false,
      "t": 3346.1505000000006,
      "d": 0,
      "v": 100
    },
    {
      "midi": 38,
      "hit": false,
      "t": 3461.535,
      "d": 115.38450000000012,
      "v": 100
    },
    {
      "midi": 40,
      "hit": false,
      "t": 3461.5350000000008,
      "d": 0,
      "v": 100
    },
    {
      "midi": 24,
      "hit": false,
      "t": 3692.304,
      "d": 115.38450000000012,
      "v": 100
    },
    {
      "midi": 40,
      "hit": false,
      "t": 3926.9191500000006,
      "d": 0,
      "v": 100
    },
    {
      "midi": 36,
      "hit": false,
      "t": 4038.4575000000004,
      "d": 0,
      "v": 100
    },
    {
      "midi": 40,
      "hit": false,
      "t": 4042.3036500000007,
      "d": 0,
      "v": 100
    },
    {
      "midi": 48,
      "hit": false,
      "t": 4153.842000000001,
      "d": 115.38450000000012,
      "v": 100
    },
    {
      "midi": 40,
      "hit": false,
      "t": 4157.688150000001,
      "d": 0,
      "v": 100
    },
    {
      "midi": 36,
      "hit": false,
      "t": 4384.611000000001,
      "d": 115.38450000000012,
      "v": 100
    },
    {
      "midi": 40,
      "hit": false,
      "t": 4503.841650000001,
      "d": 0,
      "v": 100
    },
    {
      "midi": 40,
      "hit": false,
      "t": 4619.226150000001,
      "d": 0,
      "v": 100
    },
    {
      "midi": 24,
      "hit": false,
      "t": 4846.149000000001,
      "d": 230.76900000000023,
      "v": 100
    },
    {
      "midi": 40,
      "hit": false,
      "t": 4849.995150000002,
      "d": 57.69225000000006,
      "v": 100
    },
    {
      "midi": 36,
      "hit": false,
      "t": 4961.533500000001,
      "d": 115.38450000000012,
      "v": 100
    },
    {
      "midi": 48,
      "hit": false,
      "t": 5076.9180000000015,
      "d": 115.38450000000012,
      "v": 100
    },
    {
      "midi": 40,
      "hit": false,
      "t": 5080.764150000002,
      "d": 0,
      "v": 100
    },
    {
      "midi": 43,
      "hit": false,
      "t": 5192.302500000002,
      "d": 115.38450000000012,
      "v": 100
    },
    {
      "midi": 40,
      "hit": false,
      "t": 5196.148650000002,
      "d": 0,
      "v": 100
    },
    {
      "midi": 36,
      "hit": false,
      "t": 5307.687000000002,
      "d": 115.38450000000012,
      "v": 100
    },
    {
      "midi": 40,
      "hit": false,
      "t": 5311.533150000002,
      "d": 0,
      "v": 100
    },
    {
      "midi": 52,
      "hit": false,
      "t": 5538.455999999999,
      "d": 0,
      "v": 100
    },
    {
      "midi": 55,
      "hit": false,
      "t": 5538.455999999999,
      "d": 0,
      "v": 100
    },
    {
      "midi": 48,
      "hit": false,
      "t": 5538.455999999999,
      "d": 0,
      "v": 100
    },
    {
      "midi": 60,
      "hit": false,
      "t": 5538.455999999999,
      "d": 0,
      "v": 100
    },
    {
      "midi": 24,
      "hit": false,
      "t": 5538.456000000002,
      "d": 115.38450000000012,
      "v": 100
    },
    {
      "midi": 40,
      "hit": false,
      "t": 5769.225000000002,
      "d": 0,
      "v": 100
    },
    {
      "midi": 40,
      "hit": false,
      "t": 5884.609500000002,
      "d": 0,
      "v": 100
    },
    {
      "midi": 36,
      "hit": false,
      "t": 5884.609500000002,
      "d": 0,
      "v": 100
    },
    {
      "midi": 40,
      "hit": false,
      "t": 5999.994000000002,
      "d": 0,
      "v": 100
    },
    {
      "midi": 48,
      "hit": false,
      "t": 5999.994000000002,
      "d": 115.38450000000012,
      "v": 100
    },
    {
      "midi": 36,
      "hit": false,
      "t": 6230.763000000003,
      "d": 115.38450000000012,
      "v": 100
    },
    {
      "midi": 40,
      "hit": false,
      "t": 6346.147500000003,
      "d": 0,
      "v": 100
    },
    {
      "midi": 40,
      "hit": false,
      "t": 6461.532000000003,
      "d": 0,
      "v": 100
    },
    {
      "midi": 40,
      "hit": false,
      "t": 6692.301000000003,
      "d": 57.69225000000006,
      "v": 100
    },
    {
      "midi": 24,
      "hit": false,
      "t": 6692.301000000003,
      "d": 230.76900000000023,
      "v": 100
    },
    {
      "midi": 36,
      "hit": false,
      "t": 6807.685500000003,
      "d": 115.38450000000012,
      "v": 100
    },
    {
      "midi": 40,
      "hit": false,
      "t": 6923.070000000003,
      "d": 0,
      "v": 100
    },
    {
      "midi": 48,
      "hit": false,
      "t": 6923.070000000003,
      "d": 115.38450000000012,
      "v": 100
    },
    {
      "midi": 40,
      "hit": false,
      "t": 7038.4545000000035,
      "d": 0,
      "v": 100
    },
    {
      "midi": 43,
      "hit": false,
      "t": 7038.4545000000035,
      "d": 115.38450000000012,
      "v": 100
    },
    {
      "midi": 40,
      "hit": false,
      "t": 7153.839000000004,
      "d": 0,
      "v": 100
    },
    {
      "midi": 36,
      "hit": false,
      "t": 7153.839000000004,
      "d": 115.38450000000012,
      "v": 100
    },
    {
      "midi": 34,
      "hit": false,
      "t": 7384.608000000004,
      "d": 230.76900000000023,
      "v": 100
    },
    {
      "midi": 40,
      "hit": false,
      "t": 7388.454150000004,
      "d": 226.92284999999993,
      "v": 100
    },
    {
      "midi": 40,
      "hit": false,
      "t": 7619.223150000004,
      "d": 0,
      "v": 100
    },
    {
      "midi": 46,
      "hit": false,
      "t": 7730.761500000004,
      "d": 0,
      "v": 100
    },
    {
      "midi": 40,
      "hit": false,
      "t": 7734.6076500000045,
      "d": 0,
      "v": 100
    },
    {
      "midi": 58,
      "hit": false,
      "t": 7846.146000000004,
      "d": 115.38450000000012,
      "v": 100
    },
    {
      "midi": 40,
      "hit": false,
      "t": 7849.992150000005,
      "d": 0,
      "v": 100
    },
    {
      "midi": 46,
      "hit": false,
      "t": 8076.9150000000045,
      "d": 230.76900000000023,
      "v": 100
    },
    {
      "midi": 40,
      "hit": false,
      "t": 8196.145650000004,
      "d": 0,
      "v": 100
    },
    {
      "midi": 40,
      "hit": false,
      "t": 8311.530150000004,
      "d": 0,
      "v": 100
    },
    {
      "midi": 34,
      "hit": false,
      "t": 8538.453000000005,
      "d": 230.76900000000023,
      "v": 100
    },
    {
      "midi": 40,
      "hit": false,
      "t": 8542.299150000004,
      "d": 57.69225000000006,
      "v": 100
    },
    {
      "midi": 46,
      "hit": false,
      "t": 8653.837500000005,
      "d": 115.38450000000012,
      "v": 100
    },
    {
      "midi": 58,
      "hit": false,
      "t": 8769.222000000005,
      "d": 115.38450000000012,
      "v": 100
    },
    {
      "midi": 40,
      "hit": false,
      "t": 8773.068150000005,
      "d": 0,
      "v": 100
    },
    {
      "midi": 53,
      "hit": false,
      "t": 8884.606500000005,
      "d": 115.38450000000012,
      "v": 100
    },
    {
      "midi": 40,
      "hit": false,
      "t": 8888.452650000005,
      "d": 0,
      "v": 100
    },
    {
      "midi": 46,
      "hit": false,
      "t": 8999.991000000005,
      "d": 115.38450000000012,
      "v": 100
    },
    {
      "midi": 40,
      "hit": false,
      "t": 9003.837150000005,
      "d": 0,
      "v": 100
    },
    {
      "midi": 58,
      "hit": false,
      "t": 9230.759999999998,
      "d": 0,
      "v": 100
    },
    {
      "midi": 53,
      "hit": false,
      "t": 9230.759999999998,
      "d": 0,
      "v": 100
    },
    {
      "midi": 46,
      "hit": false,
      "t": 9230.759999999998,
      "d": 0,
      "v": 100
    },
    {
      "midi": 50,
      "hit": false,
      "t": 9230.759999999998,
      "d": 0,
      "v": 100
    },
    {
      "midi": 34,
      "hit": false,
      "t": 9230.760000000006,
      "d": 230.76900000000023,
      "v": 100
    },
    {
      "midi": 40,
      "hit": false,
      "t": 9238.452300000004,
      "d": 226.92285000000084,
      "v": 100
    },
    {
      "midi": 40,
      "hit": false,
      "t": 9469.221300000005,
      "d": 0,
      "v": 100
    },
    {
      "midi": 46,
      "hit": false,
      "t": 9576.913500000006,
      "d": 0,
      "v": 100
    },
    {
      "midi": 40,
      "hit": false,
      "t": 9584.605800000005,
      "d": 0,
      "v": 100
    },
    {
      "midi": 58,
      "hit": false,
      "t": 9692.298000000006,
      "d": 115.38450000000012,
      "v": 100
    },
    {
      "midi": 40,
      "hit": false,
      "t": 9699.990300000005,
      "d": 0,
      "v": 100
    },
    {
      "midi": 46,
      "hit": false,
      "t": 9923.067000000006,
      "d": 230.76900000000023,
      "v": 100
    },
    {
      "midi": 40,
      "hit": false,
      "t": 10046.143800000005,
      "d": 0,
      "v": 100
    },
    {
      "midi": 40,
      "hit": false,
      "t": 10161.528300000005,
      "d": 0,
      "v": 100
    },
    {
      "midi": 34,
      "hit": false,
      "t": 10384.605000000007,
      "d": 230.76900000000023,
      "v": 100
    },
    {
      "midi": 40,
      "hit": false,
      "t": 10392.297300000006,
      "d": 57.69225000000006,
      "v": 100
    },
    {
      "midi": 46,
      "hit": false,
      "t": 10499.989500000007,
      "d": 115.38450000000012,
      "v": 100
    },
    {
      "midi": 58,
      "hit": false,
      "t": 10615.374000000007,
      "d": 115.38450000000012,
      "v": 100
    },
    {
      "midi": 40,
      "hit": false,
      "t": 10623.066300000006,
      "d": 0,
      "v": 100
    },
    {
      "midi": 53,
      "hit": false,
      "t": 10730.758500000007,
      "d": 115.38450000000012,
      "v": 100
    },
    {
      "midi": 40,
      "hit": false,
      "t": 10738.450800000006,
      "d": 0,
      "v": 100
    },
    {
      "midi": 46,
      "hit": false,
      "t": 10846.143000000007,
      "d": 115.38450000000012,
      "v": 100
    },
    {
      "midi": 40,
      "hit": false,
      "t": 10853.835300000006,
      "d": 0,
      "v": 100
    },
    {
      "midi": 53,
      "hit": false,
      "t": 11076.911999999998,
      "d": 0,
      "v": 100
    },
    {
      "midi": 17,
      "hit": false,
      "t": 11076.912000000008,
      "d": 115.38450000000012,
      "v": 100
    },
    {
      "midi": 40,
      "hit": false,
      "t": 11088.450450000006,
      "d": 226.92285000000084,
      "v": 100
    },
    {
      "midi": 40,
      "hit": false,
      "t": 11319.219450000006,
      "d": 0,
      "v": 100
    },
    {
      "midi": 29,
      "hit": false,
      "t": 11423.065500000008,
      "d": 0,
      "v": 100
    },
    {
      "midi": 40,
      "hit": false,
      "t": 11434.603950000006,
      "d": 0,
      "v": 100
    },
    {
      "midi": 41,
      "hit": false,
      "t": 11538.450000000008,
      "d": 115.38450000000012,
      "v": 100
    },
    {
      "midi": 40,
      "hit": false,
      "t": 11549.988450000006,
      "d": 0,
      "v": 100
    },
    {
      "midi": 29,
      "hit": false,
      "t": 11769.219000000008,
      "d": 115.38450000000012,
      "v": 100
    },
    {
      "midi": 40,
      "hit": false,
      "t": 11896.141950000007,
      "d": 0,
      "v": 100
    },
    {
      "midi": 40,
      "hit": false,
      "t": 12011.526450000007,
      "d": 0,
      "v": 100
    },
    {
      "midi": 17,
      "hit": false,
      "t": 12230.757000000009,
      "d": 115.38450000000012,
      "v": 100
    },
    {
      "midi": 40,
      "hit": false,
      "t": 12242.295450000007,
      "d": 57.69225000000006,
      "v": 100
    },
    {
      "midi": 29,
      "hit": false,
      "t": 12346.141500000009,
      "d": 115.38450000000012,
      "v": 100
    },
    {
      "midi": 41,
      "hit": false,
      "t": 12461.526000000009,
      "d": 115.38450000000012,
      "v": 100
    },
    {
      "midi": 40,
      "hit": false,
      "t": 12473.064450000007,
      "d": 0,
      "v": 100
    },
    {
      "midi": 36,
      "hit": false,
      "t": 12576.910500000009,
      "d": 115.38450000000012,
      "v": 100
    },
    {
      "midi": 40,
      "hit": false,
      "t": 12588.448950000007,
      "d": 0,
      "v": 100
    },
    {
      "midi": 29,
      "hit": false,
      "t": 12692.29500000001,
      "d": 115.38450000000012,
      "v": 100
    },
    {
      "midi": 40,
      "hit": false,
      "t": 12703.833450000007,
      "d": 0,
      "v": 100
    },
    {
      "midi": 48,
      "hit": false,
      "t": 12923.063999999998,
      "d": 0,
      "v": 100
    },
    {
      "midi": 53,
      "hit": false,
      "t": 12923.063999999998,
      "d": 0,
      "v": 100
    },
    {
      "midi": 41,
      "hit": false,
      "t": 12923.063999999998,
      "d": 0,
      "v": 100
    },
    {
      "midi": 45,
      "hit": false,
      "t": 12923.063999999998,
      "d": 0,
      "v": 100
    },
    {
      "midi": 17,
      "hit": false,
      "t": 12923.06400000001,
      "d": 115.38450000000012,
      "v": 100
    },
    {
      "midi": 40,
      "hit": false,
      "t": 12938.448600000007,
      "d": 226.92285000000084,
      "v": 100
    },
    {
      "midi": 40,
      "hit": false,
      "t": 13169.217600000007,
      "d": 0,
      "v": 100
    },
    {
      "midi": 29,
      "hit": false,
      "t": 13269.21750000001,
      "d": 0,
      "v": 100
    },
    {
      "midi": 40,
      "hit": false,
      "t": 13284.602100000007,
      "d": 0,
      "v": 100
    },
    {
      "midi": 41,
      "hit": false,
      "t": 13384.60200000001,
      "d": 115.38450000000012,
      "v": 100
    },
    {
      "midi": 40,
      "hit": false,
      "t": 13399.986600000007,
      "d": 0,
      "v": 100
    },
    {
      "midi": 29,
      "hit": false,
      "t": 13615.37100000001,
      "d": 115.38450000000012,
      "v": 100
    },
    {
      "midi": 40,
      "hit": false,
      "t": 13746.140100000008,
      "d": 0,
      "v": 100
    },
    {
      "midi": 40,
      "hit": false,
      "t": 13861.524600000008,
      "d": 0,
      "v": 100
    },
    {
      "midi": 17,
      "hit": false,
      "t": 14076.90900000001,
      "d": 115.38450000000012,
      "v": 100
    },
    {
      "midi": 40,
      "hit": false,
      "t": 14092.293600000008,
      "d": 57.69225000000006,
      "v": 100
    },
    {
      "midi": 29,
      "hit": false,
      "t": 14192.29350000001,
      "d": 115.38450000000012,
      "v": 100
    },
    {
      "midi": 41,
      "hit": false,
      "t": 14307.67800000001,
      "d": 115.38450000000012,
      "v": 100
    },
    {
      "midi": 40,
      "hit": false,
      "t": 14323.062600000008,
      "d": 0,
      "v": 100
    },
    {
      "midi": 36,
      "hit": false,
      "t": 14423.062500000011,
      "d": 115.38450000000012,
      "v": 100
    },
    {
      "midi": 40,
      "hit": false,
      "t": 14438.447100000009,
      "d": 0,
      "v": 100
    },
    {
      "midi": 29,
      "hit": false,
      "t": 14538.447000000011,
      "d": 115.38450000000012,
      "v": 100
    },
    {
      "midi": 40,
      "hit": false,
      "t": 14553.831600000009,
      "d": 0,
      "v": 100
    },
    {
      "midi": 53,
      "hit": false,
      "t": 14769.215999999999,
      "d": 0,
      "v": 100
    },
    {
      "midi": 69,
      "hit": false,
      "t": 14769.215999999999,
      "d": 461.53800000000047,
      "v": 100
    },
    {
      "midi": 26,
      "hit": false,
      "t": 14769.216000000011,
      "d": 230.76900000000023,
      "v": 100
    },
    {
      "midi": 40,
      "hit": false,
      "t": 15019.215750000008,
      "d": 0,
      "v": 100
    },
    {
      "midi": 38,
      "hit": false,
      "t": 15115.369500000012,
      "d": 0,
      "v": 100
    },
    {
      "midi": 40,
      "hit": false,
      "t": 15134.600250000009,
      "d": 0,
      "v": 100
    },
    {
      "midi": 50,
      "hit": false,
      "t": 15230.754000000012,
      "d": 115.38450000000012,
      "v": 100
    },
    {
      "midi": 40,
      "hit": false,
      "t": 15249.984750000009,
      "d": 0,
      "v": 100
    },
    {
      "midi": 70,
      "hit": false,
      "t": 15461.523,
      "d": 230.76900000000023,
      "v": 100
    },
    {
      "midi": 38,
      "hit": false,
      "t": 15461.523000000012,
      "d": 115.38450000000012,
      "v": 100
    },
    {
      "midi": 40,
      "hit": false,
      "t": 15596.138250000009,
      "d": 0,
      "v": 100
    },
    {
      "midi": 40,
      "hit": false,
      "t": 15711.52275000001,
      "d": 0,
      "v": 100
    },
    {
      "midi": 26,
      "hit": false,
      "t": 15923.061000000012,
      "d": 230.76900000000023,
      "v": 100
    },
    {
      "midi": 40,
      "hit": false,
      "t": 15942.29175000001,
      "d": 57.69225000000006,
      "v": 100
    },
    {
      "midi": 38,
      "hit": false,
      "t": 16038.445500000013,
      "d": 115.38450000000012,
      "v": 100
    },
    {
      "midi": 72,
      "hit": false,
      "t": 16153.83,
      "d": 230.7689999999984,
      "v": 100
    },
    {
      "midi": 50,
      "hit": false,
      "t": 16153.830000000013,
      "d": 115.38450000000012,
      "v": 100
    },
    {
      "midi": 40,
      "hit": false,
      "t": 16173.06075000001,
      "d": 0,
      "v": 100
    },
    {
      "midi": 45,
      "hit": false,
      "t": 16269.214500000013,
      "d": 115.38450000000012,
      "v": 100
    },
    {
      "midi": 40,
      "hit": false,
      "t": 16288.44525000001,
      "d": 0,
      "v": 100
    },
    {
      "midi": 38,
      "hit": false,
      "t": 16384.599000000013,
      "d": 115.38450000000012,
      "v": 100
    },
    {
      "midi": 40,
      "hit": false,
      "t": 16403.829750000008,
      "d": 0,
      "v": 100
    },
    {
      "midi": 57,
      "hit": false,
      "t": 16615.368,
      "d": 0,
      "v": 100
    },
    {
      "midi": 53,
      "hit": false,
      "t": 16615.368,
      "d": 0,
      "v": 100
    },
    {
      "midi": 50,
      "hit": false,
      "t": 16615.368,
      "d": 0,
      "v": 100
    },
    {
      "midi": 62,
      "hit": false,
      "t": 16615.368,
      "d": 0,
      "v": 100
    },
    {
      "midi": 26,
      "hit": false,
      "t": 16615.368000000013,
      "d": 230.76900000000023,
      "v": 100
    },
    {
      "midi": 70,
      "hit": false,
      "t": 16846.137,
      "d": 230.76900000000023,
      "v": 100
    },
    {
      "midi": 40,
      "hit": false,
      "t": 16869.21390000001,
      "d": 0,
      "v": 100
    },
    {
      "midi": 38,
      "hit": false,
      "t": 16961.521500000013,
      "d": 0,
      "v": 100
    },
    {
      "midi": 40,
      "hit": false,
      "t": 16984.59840000001,
      "d": 0,
      "v": 100
    },
    {
      "midi": 50,
      "hit": false,
      "t": 17076.906000000014,
      "d": 115.38450000000012,
      "v": 100
    },
    {
      "midi": 40,
      "hit": false,
      "t": 17099.98290000001,
      "d": 0,
      "v": 100
    },
    {
      "midi": 38,
      "hit": false,
      "t": 17307.675000000014,
      "d": 115.38450000000012,
      "v": 100
    },
    {
      "midi": 40,
      "hit": false,
      "t": 17446.13640000001,
      "d": 0,
      "v": 100
    },
    {
      "midi": 69,
      "hit": false,
      "t": 17538.444,
      "d": 230.76900000000023,
      "v": 100
    },
    {
      "midi": 40,
      "hit": false,
      "t": 17561.52090000001,
      "d": 0,
      "v": 100
    },
    {
      "midi": 26,
      "hit": false,
      "t": 17769.213000000014,
      "d": 230.76900000000023,
      "v": 100
    },
    {
      "midi": 40,
      "hit": false,
      "t": 17792.28990000001,
      "d": 57.69225000000006,
      "v": 100
    },
    {
      "midi": 38,
      "hit": false,
      "t": 17884.597500000014,
      "d": 115.38450000000012,
      "v": 100
    },
    {
      "midi": 72,
      "hit": false,
      "t": 17999.982,
      "d": 230.76900000000023,
      "v": 100
    },
    {
      "midi": 50,
      "hit": false,
      "t": 17999.982000000015,
      "d": 115.38450000000012,
      "v": 100
    },
    {
      "midi": 40,
      "hit": false,
      "t": 18023.05890000001,
      "d": 0,
      "v": 100
    },
    {
      "midi": 45,
      "hit": false,
      "t": 18115.366500000015,
      "d": 115.38450000000012,
      "v": 100
    },
    {
      "midi": 40,
      "hit": false,
      "t": 18138.44340000001,
      "d": 0,
      "v": 100
    },
    {
      "midi": 38,
      "hit": false,
      "t": 18230.751000000015,
      "d": 115.38450000000012,
      "v": 100
    },
    {
      "midi": 40,
      "hit": false,
      "t": 18253.82790000001,
      "d": 0,
      "v": 100
    },
    {
      "midi": 67,
      "hit": false,
      "t": 18461.52,
      "d": 230.76900000000023,
      "v": 100
    },
    {
      "midi": 24,
      "hit": false,
      "t": 18461.520000000015,
      "d": 115.38450000000012,
      "v": 100
    },
    {
      "midi": 40,
      "hit": false,
      "t": 18488.443050000013,
      "d": 226.92284999999902,
      "v": 100
    },
    {
      "midi": 40,
      "hit": false,
      "t": 18719.212050000013,
      "d": 0,
      "v": 100
    },
    {
      "midi": 36,
      "hit": false,
      "t": 18807.673500000015,
      "d": 0,
      "v": 100
    },
    {
      "midi": 40,
      "hit": false,
      "t": 18834.596550000013,
      "d": 0,
      "v": 100
    },
    {
      "midi": 48,
      "hit": false,
      "t": 18923.058000000015,
      "d": 115.38450000000012,
      "v": 100
    },
    {
      "midi": 40,
      "hit": false,
      "t": 18949.981050000013,
      "d": 0,
      "v": 100
    },
    {
      "midi": 69,
      "hit": false,
      "t": 19153.827,
      "d": 230.76900000000023,
      "v": 100
    },
    {
      "midi": 36,
      "hit": false,
      "t": 19153.827000000016,
      "d": 115.38450000000012,
      "v": 100
    },
    {
      "midi": 40,
      "hit": false,
      "t": 19296.134550000013,
      "d": 0,
      "v": 100
    },
    {
      "midi": 40,
      "hit": false,
      "t": 19411.519050000014,
      "d": 0,
      "v": 100
    },
    {
      "midi": 24,
      "hit": false,
      "t": 19615.365000000016,
      "d": 230.76900000000023,
      "v": 100
    },
    {
      "midi": 40,
      "hit": false,
      "t": 19642.288050000014,
      "d": 57.69225000000006,
      "v": 100
    },
    {
      "midi": 36,
      "hit": false,
      "t": 19730.749500000016,
      "d": 115.38450000000012,
      "v": 100
    },
    {
      "midi": 72,
      "hit": false,
      "t": 19846.134000000002,
      "d": 230.76900000000023,
      "v": 100
    },
    {
      "midi": 48,
      "hit": false,
      "t": 19846.134000000016,
      "d": 115.38450000000012,
      "v": 100
    },
    {
      "midi": 40,
      "hit": false,
      "t": 19873.057050000014,
      "d": 0,
      "v": 100
    },
    {
      "midi": 43,
      "hit": false,
      "t": 19961.518500000017,
      "d": 115.38450000000012,
      "v": 100
    },
    {
      "midi": 40,
      "hit": false,
      "t": 19988.441550000014,
      "d": 0,
      "v": 100
    },
    {
      "midi": 36,
      "hit": false,
      "t": 20076.903000000017,
      "d": 115.38450000000012,
      "v": 100
    },
    {
      "midi": 40,
      "hit": false,
      "t": 20103.826050000014,
      "d": 0,
      "v": 100
    },
    {
      "midi": 52,
      "hit": false,
      "t": 20307.671999999995,
      "d": 0,
      "v": 100
    },
    {
      "midi": 55,
      "hit": false,
      "t": 20307.671999999995,
      "d": 0,
      "v": 100
    },
    {
      "midi": 48,
      "hit": false,
      "t": 20307.671999999995,
      "d": 0,
      "v": 100
    },
    {
      "midi": 60,
      "hit": false,
      "t": 20307.671999999995,
      "d": 0,
      "v": 100
    },
    {
      "midi": 24,
      "hit": false,
      "t": 20307.672000000017,
      "d": 115.38450000000012,
      "v": 100
    },
    {
      "midi": 40,
      "hit": false,
      "t": 20338.441200000016,
      "d": 226.92284999999902,
      "v": 100
    },
    {
      "midi": 70,
      "hit": false,
      "t": 20538.441000000003,
      "d": 230.76900000000023,
      "v": 100
    },
    {
      "midi": 40,
      "hit": false,
      "t": 20569.210200000016,
      "d": 0,
      "v": 100
    },
    {
      "midi": 36,
      "hit": false,
      "t": 20653.825500000017,
      "d": 0,
      "v": 100
    },
    {
      "midi": 40,
      "hit": false,
      "t": 20684.594700000016,
      "d": 0,
      "v": 100
    },
    {
      "midi": 48,
      "hit": false,
      "t": 20769.210000000017,
      "d": 115.38450000000012,
      "v": 100
    },
    {
      "midi": 40,
      "hit": false,
      "t": 20799.979200000016,
      "d": 0,
      "v": 100
    },
    {
      "midi": 36,
      "hit": false,
      "t": 20999.979000000018,
      "d": 115.38450000000012,
      "v": 100
    },
    {
      "midi": 40,
      "hit": false,
      "t": 21146.132700000016,
      "d": 0,
      "v": 100
    },
    {
      "midi": 69,
      "hit": false,
      "t": 21230.748000000003,
      "d": 230.76900000000023,
      "v": 100
    },
    {
      "midi": 40,
      "hit": false,
      "t": 21261.517200000017,
      "d": 0,
      "v": 100
    },
    {
      "midi": 24,
      "hit": false,
      "t": 21461.517000000018,
      "d": 230.76900000000023,
      "v": 100
    },
    {
      "midi": 40,
      "hit": false,
      "t": 21492.286200000017,
      "d": 57.69225000000006,
      "v": 100
    },
    {
      "midi": 36,
      "hit": false,
      "t": 21576.901500000018,
      "d": 115.38450000000012,
      "v": 100
    },
    {
      "midi": 67,
      "hit": false,
      "t": 21692.286000000004,
      "d": 230.76900000000023,
      "v": 100
    },
    {
      "midi": 48,
      "hit": false,
      "t": 21692.28600000002,
      "d": 115.38450000000012,
      "v": 100
    },
    {
      "midi": 40,
      "hit": false,
      "t": 21723.055200000017,
      "d": 0,
      "v": 100
    },
    {
      "midi": 43,
      "hit": false,
      "t": 21807.67050000002,
      "d": 115.38450000000012,
      "v": 100
    },
    {
      "midi": 40,
      "hit": false,
      "t": 21838.439700000017,
      "d": 0,
      "v": 100
    },
    {
      "midi": 36,
      "hit": false,
      "t": 21923.05500000002,
      "d": 115.38450000000012,
      "v": 100
    },
    {
      "midi": 40,
      "hit": false,
      "t": 21953.824200000017,
      "d": 0,
      "v": 100
    },
    {
      "midi": 65,
      "hit": false,
      "t": 22153.824000000004,
      "d": 230.76900000000023,
      "v": 100
    },
    {
      "midi": 34,
      "hit": false,
      "t": 22153.82400000002,
      "d": 230.76900000000023,
      "v": 100
    },
    {
      "midi": 40,
      "hit": false,
      "t": 22184.593200000018,
      "d": 226.92284999999902,
      "v": 100
    },
    {
      "midi": 40,
      "hit": false,
      "t": 22415.362200000018,
      "d": 0,
      "v": 100
    },
    {
      "midi": 46,
      "hit": false,
      "t": 22499.97750000002,
      "d": 0,
      "v": 100
    },
    {
      "midi": 40,
      "hit": false,
      "t": 22530.746700000018,
      "d": 0,
      "v": 100
    },
    {
      "midi": 58,
      "hit": false,
      "t": 22615.36200000002,
      "d": 115.38450000000012,
      "v": 100
    },
    {
      "midi": 40,
      "hit": false,
      "t": 22646.131200000018,
      "d": 0,
      "v": 100
    },
    {
      "midi": 67,
      "hit": false,
      "t": 22846.131000000005,
      "d": 230.76900000000023,
      "v": 100
    },
    {
      "midi": 46,
      "hit": false,
      "t": 22846.13100000002,
      "d": 230.76900000000023,
      "v": 100
    },
    {
      "midi": 40,
      "hit": false,
      "t": 22992.28470000002,
      "d": 0,
      "v": 100
    },
    {
      "midi": 40,
      "hit": false,
      "t": 23107.66920000002,
      "d": 0,
      "v": 100
    },
    {
      "midi": 34,
      "hit": false,
      "t": 23307.66900000002,
      "d": 230.76900000000023,
      "v": 100
    },
    {
      "midi": 40,
      "hit": false,
      "t": 23338.43820000002,
      "d": 57.69225000000006,
      "v": 100
    },
    {
      "midi": 46,
      "hit": false,
      "t": 23423.05350000002,
      "d": 115.38450000000012,
      "v": 100
    },
    {
      "midi": 70,
      "hit": false,
      "t": 23538.438000000006,
      "d": 230.76900000000023,
      "v": 100
    },
    {
      "midi": 58,
      "hit": false,
      "t": 23538.43800000002,
      "d": 115.38450000000012,
      "v": 100
    },
    {
      "midi": 40,
      "hit": false,
      "t": 23569.20720000002,
      "d": 0,
      "v": 100
    },
    {
      "midi": 53,
      "hit": false,
      "t": 23653.82250000002,
      "d": 115.38450000000012,
      "v": 100
    },
    {
      "midi": 40,
      "hit": false,
      "t": 23684.59170000002,
      "d": 0,
      "v": 100
    },
    {
      "midi": 46,
      "hit": false,
      "t": 23769.20700000002,
      "d": 115.38450000000012,
      "v": 100
    },
    {
      "midi": 40,
      "hit": false,
      "t": 23799.97620000002,
      "d": 0,
      "v": 100
    },
    {
      "midi": 58,
      "hit": false,
      "t": 23999.97599999999,
      "d": 0,
      "v": 100
    },
    {
      "midi": 53,
      "hit": false,
      "t": 23999.97599999999,
      "d": 0,
      "v": 100
    },
    {
      "midi": 46,
      "hit": false,
      "t": 23999.97599999999,
      "d": 0,
      "v": 100
    },
    {
      "midi": 50,
      "hit": false,
      "t": 23999.97599999999,
      "d": 0,
      "v": 100
    },
    {
      "midi": 34,
      "hit": false,
      "t": 23999.97600000002,
      "d": 230.76900000000023,
      "v": 100
    },
    {
      "midi": 40,
      "hit": false,
      "t": 24034.59135000002,
      "d": 226.92284999999902,
      "v": 100
    },
    {
      "midi": 69,
      "hit": false,
      "t": 24230.745000000006,
      "d": 230.76900000000023,
      "v": 100
    },
    {
      "midi": 40,
      "hit": false,
      "t": 24265.36035000002,
      "d": 0,
      "v": 100
    },
    {
      "midi": 46,
      "hit": false,
      "t": 24346.12950000002,
      "d": 0,
      "v": 100
    },
    {
      "midi": 40,
      "hit": false,
      "t": 24380.74485000002,
      "d": 0,
      "v": 100
    },
    {
      "midi": 58,
      "hit": false,
      "t": 24461.51400000002,
      "d": 115.38450000000012,
      "v": 100
    },
    {
      "midi": 40,
      "hit": false,
      "t": 24496.12935000002,
      "d": 0,
      "v": 100
    },
    {
      "midi": 46,
      "hit": false,
      "t": 24692.28300000002,
      "d": 230.76900000000023,
      "v": 100
    },
    {
      "midi": 40,
      "hit": false,
      "t": 24842.28285000002,
      "d": 0,
      "v": 100
    },
    {
      "midi": 67,
      "hit": false,
      "t": 24923.052000000007,
      "d": 230.76900000000023,
      "v": 100
    },
    {
      "midi": 40,
      "hit": false,
      "t": 24957.66735000002,
      "d": 0,
      "v": 100
    },
    {
      "midi": 34,
      "hit": false,
      "t": 25153.82100000002,
      "d": 230.76900000000023,
      "v": 100
    },
    {
      "midi": 40,
      "hit": false,
      "t": 25188.43635000002,
      "d": 57.69225000000006,
      "v": 100
    },
    {
      "midi": 46,
      "hit": false,
      "t": 25269.205500000022,
      "d": 115.38450000000012,
      "v": 100
    },
    {
      "midi": 70,
      "hit": false,
      "t": 25384.590000000007,
      "d": 230.76900000000023,
      "v": 100
    },
    {
      "midi": 58,
      "hit": false,
      "t": 25384.590000000022,
      "d": 115.38450000000012,
      "v": 100
    },
    {
      "midi": 40,
      "hit": false,
      "t": 25419.205350000022,
      "d": 0,
      "v": 100
    },
    {
      "midi": 53,
      "hit": false,
      "t": 25499.974500000022,
      "d": 115.38450000000012,
      "v": 100
    },
    {
      "midi": 40,
      "hit": false,
      "t": 25534.589850000022,
      "d": 0,
      "v": 100
    },
    {
      "midi": 46,
      "hit": false,
      "t": 25615.359000000022,
      "d": 115.38450000000012,
      "v": 100
    },
    {
      "midi": 40,
      "hit": false,
      "t": 25649.974350000022,
      "d": 0,
      "v": 100
    },
    {
      "midi": 53,
      "hit": false,
      "t": 25846.12799999999,
      "d": 0,
      "v": 100
    },
    {
      "midi": 70,
      "hit": false,
      "t": 25846.128000000008,
      "d": 230.76900000000023,
      "v": 100
    },
    {
      "midi": 17,
      "hit": false,
      "t": 25846.128000000022,
      "d": 115.38450000000012,
      "v": 100
    },
    {
      "midi": 40,
      "hit": false,
      "t": 25884.589500000024,
      "d": 226.92284999999902,
      "v": 100
    },
    {
      "midi": 40,
      "hit": false,
      "t": 26115.358500000024,
      "d": 0,
      "v": 100
    },
    {
      "midi": 29,
      "hit": false,
      "t": 26192.281500000023,
      "d": 0,
      "v": 100
    },
    {
      "midi": 40,
      "hit": false,
      "t": 26230.743000000024,
      "d": 0,
      "v": 100
    },
    {
      "midi": 41,
      "hit": false,
      "t": 26307.666000000023,
      "d": 115.38450000000012,
      "v": 100
    },
    {
      "midi": 40,
      "hit": false,
      "t": 26346.127500000024,
      "d": 0,
      "v": 100
    },
    {
      "midi": 69,
      "hit": false,
      "t": 26538.43500000001,
      "d": 230.76900000000023,
      "v": 100
    },
    {
      "midi": 29,
      "hit": false,
      "t": 26538.435000000023,
      "d": 115.38450000000012,
      "v": 100
    },
    {
      "midi": 40,
      "hit": false,
      "t": 26692.281000000025,
      "d": 0,
      "v": 100
    },
    {
      "midi": 40,
      "hit": false,
      "t": 26807.665500000025,
      "d": 0,
      "v": 100
    },
    {
      "midi": 17,
      "hit": false,
      "t": 26999.973000000024,
      "d": 115.38450000000012,
      "v": 100
    },
    {
      "midi": 40,
      "hit": false,
      "t": 27038.434500000025,
      "d": 57.69225000000006,
      "v": 100
    },
    {
      "midi": 29,
      "hit": false,
      "t": 27115.357500000024,
      "d": 115.38450000000012,
      "v": 100
    },
    {
      "midi": 67,
      "hit": false,
      "t": 27230.74200000001,
      "d": 230.76900000000023,
      "v": 100
    },
    {
      "midi": 41,
      "hit": false,
      "t": 27230.742000000024,
      "d": 115.38450000000012,
      "v": 100
    },
    {
      "midi": 40,
      "hit": false,
      "t": 27269.203500000025,
      "d": 0,
      "v": 100
    },
    {
      "midi": 36,
      "hit": false,
      "t": 27346.126500000024,
      "d": 115.38450000000012,
      "v": 100
    },
    {
      "midi": 40,
      "hit": false,
      "t": 27384.588000000025,
      "d": 0,
      "v": 100
    },
    {
      "midi": 29,
      "hit": false,
      "t": 27461.511000000024,
      "d": 115.38450000000012,
      "v": 100
    },
    {
      "midi": 40,
      "hit": false,
      "t": 27499.972500000025,
      "d": 0,
      "v": 100
    },
    {
      "midi": 48,
      "hit": false,
      "t": 27692.279999999988,
      "d": 0,
      "v": 100
    },
    {
      "midi": 53,
      "hit": false,
      "t": 27692.279999999988,
      "d": 0,
      "v": 100
    },
    {
      "midi": 41,
      "hit": false,
      "t": 27692.279999999988,
      "d": 0,
      "v": 100
    },
    {
      "midi": 45,
      "hit": false,
      "t": 27692.279999999988,
      "d": 0,
      "v": 100
    },
    {
      "midi": 67,
      "hit": false,
      "t": 27692.279999999995,
      "d": 1846.1519999999982,
      "v": 100
    },
    {
      "midi": 17,
      "hit": false,
      "t": 27692.280000000024,
      "d": 115.38450000000012,
      "v": 100
    },
    {
      "midi": 40,
      "hit": false,
      "t": 27734.587650000027,
      "d": 226.92284999999902,
      "v": 100
    },
    {
      "midi": 65,
      "hit": false,
      "t": 27923.04900000001,
      "d": 230.76900000000023,
      "v": 100
    },
    {
      "midi": 40,
      "hit": false,
      "t": 27965.356650000027,
      "d": 0,
      "v": 100
    },
    {
      "midi": 29,
      "hit": false,
      "t": 28038.433500000025,
      "d": 0,
      "v": 100
    },
    {
      "midi": 40,
      "hit": false,
      "t": 28080.741150000027,
      "d": 0,
      "v": 100
    },
    {
      "midi": 41,
      "hit": false,
      "t": 28153.818000000025,
      "d": 115.38450000000012,
      "v": 100
    },
    {
      "midi": 40,
      "hit": false,
      "t": 28196.125650000027,
      "d": 0,
      "v": 100
    },
    {
      "midi": 29,
      "hit": false,
      "t": 28384.587000000025,
      "d": 115.38450000000012,
      "v": 100
    },
    {
      "midi": 40,
      "hit": false,
      "t": 28542.279150000028,
      "d": 0,
      "v": 100
    },
    {
      "midi": 70,
      "hit": false,
      "t": 28615.35600000001,
      "d": 230.76900000000023,
      "v": 100
    },
    {
      "midi": 40,
      "hit": false,
      "t": 28657.663650000028,
      "d": 0,
      "v": 100
    },
    {
      "midi": 69,
      "hit": false,
      "t": 28846.12500000001,
      "d": 230.76900000000023,
      "v": 100
    },
    {
      "midi": 17,
      "hit": false,
      "t": 28846.125000000025,
      "d": 115.38450000000012,
      "v": 100
    },
    {
      "midi": 40,
      "hit": false,
      "t": 28888.432650000028,
      "d": 57.69225000000006,
      "v": 100
    },
    {
      "midi": 29,
      "hit": false,
      "t": 28961.509500000026,
      "d": 115.38450000000012,
      "v": 100
    },
    {
      "midi": 67,
      "hit": false,
      "t": 29076.89400000001,
      "d": 230.76900000000023,
      "v": 100
    },
    {
      "midi": 41,
      "hit": false,
      "t": 29076.894000000026,
      "d": 115.38450000000012,
      "v": 100
    },
    {
      "midi": 40,
      "hit": false,
      "t": 29119.201650000028,
      "d": 0,
      "v": 100
    },
    {
      "midi": 36,
      "hit": false,
      "t": 29192.278500000026,
      "d": 115.38450000000012,
      "v": 100
    },
    {
      "midi": 40,
      "hit": false,
      "t": 29234.58615000003,
      "d": 0,
      "v": 100
    },
    {
      "midi": 65,
      "hit": false,
      "t": 29307.66300000001,
      "d": 230.76900000000023,
      "v": 100
    },
    {
      "midi": 29,
      "hit": false,
      "t": 29307.663000000026,
      "d": 115.38450000000012,
      "v": 100
    },
    {
      "midi": 40,
      "hit": false,
      "t": 29349.97065000003,
      "d": 0,
      "v": 100
    },
    {
      "midi": 53,
      "hit": false,
      "t": 29538.431999999986,
      "d": 0,
      "v": 100
    },
    {
      "midi": 62,
      "hit": false,
      "t": 29538.431999999986,
      "d": 1846.1519999999982,
      "v": 100
    },
    {
      "midi": 50,
      "hit": false,
      "t": 29538.431999999986,
      "d": 1846.1519999999982,
      "v": 100
    },
    {
      "midi": 57,
      "hit": false,
      "t": 29538.431999999986,
      "d": 1846.1519999999982,
      "v": 100
    },
    {
      "midi": 62,
      "hit": false,
      "t": 29538.431999999997,
      "d": 230.76900000000023,
      "v": 100
    },
    {
      "midi": 26,
      "hit": false,
      "t": 29538.432000000026,
      "d": 230.76900000000023,
      "v": 100
    },
    {
      "midi": 36,
      "hit": false,
      "t": 29538.43200000003,
      "d": 7.692299999998795,
      "v": 120
    },
    {
      "midi": 64,
      "hit": false,
      "t": 29769.200999999997,
      "d": 230.76900000000023,
      "v": 100
    },
    {
      "midi": 38,
      "hit": false,
      "t": 29884.585500000027,
      "d": 0,
      "v": 100
    },
    {
      "midi": 65,
      "hit": false,
      "t": 29999.969999999998,
      "d": 230.76900000000023,
      "v": 100
    },
    {
      "midi": 50,
      "hit": false,
      "t": 29999.970000000027,
      "d": 115.38450000000012,
      "v": 100
    },
    {
      "midi": 40,
      "hit": false,
      "t": 29999.97000000003,
      "d": 230.76900000000023,
      "v": 120
    },
    {
      "midi": 62,
      "hit": false,
      "t": 30230.738999999998,
      "d": 230.76900000000023,
      "v": 100
    },
    {
      "midi": 38,
      "hit": false,
      "t": 30230.739000000027,
      "d": 115.38450000000012,
      "v": 100
    },
    {
      "midi": 36,
      "hit": false,
      "t": 30461.50800000003,
      "d": 230.76900000000023,
      "v": 120
    },
    {
      "midi": 26,
      "hit": false,
      "t": 30692.277000000027,
      "d": 230.76900000000023,
      "v": 100
    },
    {
      "midi": 38,
      "hit": false,
      "t": 30807.661500000027,
      "d": 115.38450000000012,
      "v": 100
    },
    {
      "midi": 50,
      "hit": false,
      "t": 30923.046000000028,
      "d": 115.38450000000012,
      "v": 100
    },
    {
      "midi": 40,
      "hit": false,
      "t": 30923.04600000003,
      "d": 230.76900000000023,
      "v": 120
    },
    {
      "midi": 45,
      "hit": false,
      "t": 31038.430500000028,
      "d": 115.38450000000012,
      "v": 100
    },
    {
      "midi": 38,
      "hit": false,
      "t": 31153.815000000028,
      "d": 115.38450000000012,
      "v": 100
    },
    {
      "midi": 60,
      "hit": false,
      "t": 31384.583999999984,
      "d": 1846.1519999999982,
      "v": 100
    },
    {
      "midi": 52,
      "hit": false,
      "t": 31384.583999999984,
      "d": 1846.1519999999982,
      "v": 100
    },
    {
      "midi": 48,
      "hit": false,
      "t": 31384.583999999984,
      "d": 1846.1519999999982,
      "v": 100
    },
    {
      "midi": 55,
      "hit": false,
      "t": 31384.583999999984,
      "d": 1846.1519999999982,
      "v": 100
    },
    {
      "midi": 62,
      "hit": false,
      "t": 31384.584,
      "d": 0,
      "v": 100
    },
    {
      "midi": 24,
      "hit": false,
      "t": 31384.584000000028,
      "d": 115.38450000000012,
      "v": 100
    },
    {
      "midi": 36,
      "hit": false,
      "t": 31384.58400000003,
      "d": 230.76900000000023,
      "v": 120
    },
    {
      "midi": 60,
      "hit": false,
      "t": 31615.353,
      "d": 230.76900000000023,
      "v": 100
    },
    {
      "midi": 36,
      "hit": false,
      "t": 31730.73750000003,
      "d": 0,
      "v": 100
    },
    {
      "midi": 57,
      "hit": false,
      "t": 31846.122,
      "d": 230.76900000000023,
      "v": 100
    },
    {
      "midi": 48,
      "hit": false,
      "t": 31846.12200000003,
      "d": 115.38450000000012,
      "v": 100
    },
    {
      "midi": 40,
      "hit": false,
      "t": 31846.122000000032,
      "d": 230.76900000000023,
      "v": 120
    },
    {
      "midi": 60,
      "hit": false,
      "t": 32076.891,
      "d": 230.76900000000023,
      "v": 100
    },
    {
      "midi": 36,
      "hit": false,
      "t": 32076.89100000003,
      "d": 115.38450000000012,
      "v": 100
    },
    {
      "midi": 36,
      "hit": false,
      "t": 32307.660000000033,
      "d": 230.76900000000023,
      "v": 120
    },
    {
      "midi": 24,
      "hit": false,
      "t": 32538.42900000003,
      "d": 230.7689999999966,
      "v": 100
    },
    {
      "midi": 36,
      "hit": false,
      "t": 32653.81350000003,
      "d": 115.38449999999648,
      "v": 100
    },
    {
      "midi": 48,
      "hit": false,
      "t": 32769.198000000026,
      "d": 115.38450000000012,
      "v": 100
    },
    {
      "midi": 40,
      "hit": false,
      "t": 32769.19800000003,
      "d": 230.76900000000023,
      "v": 120
    },
    {
      "midi": 43,
      "hit": false,
      "t": 32884.582500000026,
      "d": 115.38450000000012,
      "v": 100
    },
    {
      "midi": 36,
      "hit": false,
      "t": 32999.967000000026,
      "d": 115.38450000000012,
      "v": 100
    },
    {
      "midi": 58,
      "hit": false,
      "t": 33230.73599999998,
      "d": 1846.1520000000019,
      "v": 100
    },
    {
      "midi": 50,
      "hit": false,
      "t": 33230.73599999998,
      "d": 1846.1520000000019,
      "v": 100
    },
    {
      "midi": 46,
      "hit": false,
      "t": 33230.73599999998,
      "d": 1846.1520000000019,
      "v": 100
    },
    {
      "midi": 53,
      "hit": false,
      "t": 33230.73599999998,
      "d": 1846.1520000000019,
      "v": 100
    },
    {
      "midi": 62,
      "hit": false,
      "t": 33230.736,
      "d": 230.76900000000023,
      "v": 100
    },
    {
      "midi": 34,
      "hit": false,
      "t": 33230.736000000026,
      "d": 230.76900000000023,
      "v": 100
    },
    {
      "midi": 36,
      "hit": false,
      "t": 33230.73600000003,
      "d": 230.76900000000023,
      "v": 120
    },
    {
      "midi": 64,
      "hit": false,
      "t": 33461.505,
      "d": 230.76900000000023,
      "v": 100
    },
    {
      "midi": 46,
      "hit": false,
      "t": 33576.88950000003,
      "d": 0,
      "v": 100
    },
    {
      "midi": 65,
      "hit": false,
      "t": 33692.274,
      "d": 230.76900000000023,
      "v": 100
    },
    {
      "midi": 58,
      "hit": false,
      "t": 33692.27400000003,
      "d": 115.38450000000012,
      "v": 100
    },
    {
      "midi": 40,
      "hit": false,
      "t": 33692.274000000034,
      "d": 230.76900000000023,
      "v": 120
    },
    {
      "midi": 62,
      "hit": false,
      "t": 33923.043,
      "d": 230.76900000000023,
      "v": 100
    },
    {
      "midi": 46,
      "hit": false,
      "t": 33923.04300000003,
      "d": 230.76900000000023,
      "v": 100
    },
    {
      "midi": 36,
      "hit": false,
      "t": 34153.812000000034,
      "d": 230.76900000000023,
      "v": 120
    },
    {
      "midi": 34,
      "hit": false,
      "t": 34384.58100000003,
      "d": 230.76900000000023,
      "v": 100
    },
    {
      "midi": 46,
      "hit": false,
      "t": 34499.96550000003,
      "d": 115.38450000000012,
      "v": 100
    },
    {
      "midi": 58,
      "hit": false,
      "t": 34615.35000000003,
      "d": 115.38450000000012,
      "v": 100
    },
    {
      "midi": 40,
      "hit": false,
      "t": 34615.350000000035,
      "d": 230.76900000000023,
      "v": 120
    },
    {
      "midi": 53,
      "hit": false,
      "t": 34730.73450000003,
      "d": 115.38450000000012,
      "v": 100
    },
    {
      "midi": 62,
      "hit": false,
      "t": 34846.119,
      "d": 230.76900000000023,
      "v": 100
    },
    {
      "midi": 46,
      "hit": false,
      "t": 34846.11900000003,
      "d": 115.38450000000012,
      "v": 100
    },
    {
      "midi": 57,
      "hit": false,
      "t": 35076.887999999984,
      "d": 923.0760000000009,
      "v": 100
    },
    {
      "midi": 45,
      "hit": false,
      "t": 35076.887999999984,
      "d": 923.0760000000009,
      "v": 100
    },
    {
      "midi": 70,
      "hit": false,
      "t": 35076.888,
      "d": 230.76900000000023,
      "v": 100
    },
    {
      "midi": 21,
      "hit": false,
      "t": 35076.88800000003,
      "d": 230.76900000000023,
      "v": 100
    },
    {
      "midi": 36,
      "hit": false,
      "t": 35076.888000000035,
      "d": 230.76900000000023,
      "v": 120
    },
    {
      "midi": 69,
      "hit": false,
      "t": 35307.657,
      "d": 230.76900000000023,
      "v": 100
    },
    {
      "midi": 33,
      "hit": false,
      "t": 35423.04150000003,
      "d": 0,
      "v": 100
    },
    {
      "midi": 64,
      "hit": false,
      "t": 35538.426,
      "d": 230.76900000000023,
      "v": 100
    },
    {
      "midi": 45,
      "hit": false,
      "t": 35538.42600000003,
      "d": 115.38450000000012,
      "v": 100
    },
    {
      "midi": 40,
      "hit": false,
      "t": 35538.426000000036,
      "d": 230.76900000000023,
      "v": 120
    },
    {
      "midi": 65,
      "hit": false,
      "t": 35769.195,
      "d": 230.76900000000023,
      "v": 100
    },
    {
      "midi": 33,
      "hit": false,
      "t": 35769.19500000003,
      "d": 230.76900000000023,
      "v": 100
    },
    {
      "midi": 48,
      "hit": false,
      "t": 35999.963999999985,
      "d": 0,
      "v": 100
    },
    {
      "midi": 52,
      "hit": false,
      "t": 35999.963999999985,
      "d": 0,
      "v": 100
    },
    {
      "midi": 60,
      "hit": false,
      "t": 35999.963999999985,
      "d": 923.0760000000009,
      "v": 100
    },
    {
      "midi": 55,
      "hit": false,
      "t": 35999.963999999985,
      "d": 923.0760000000009,
      "v": 100
    },
    {
      "midi": 36,
      "hit": false,
      "t": 35999.964000000036,
      "d": 230.76900000000023,
      "v": 120
    },
    {
      "midi": 24,
      "hit": false,
      "t": 36230.73300000003,
      "d": 230.76900000000023,
      "v": 100
    },
    {
      "midi": 36,
      "hit": false,
      "t": 36346.11750000003,
      "d": 115.38450000000012,
      "v": 100
    },
    {
      "midi": 48,
      "hit": false,
      "t": 36461.50200000003,
      "d": 115.38450000000012,
      "v": 100
    },
    {
      "midi": 40,
      "hit": false,
      "t": 36461.50200000004,
      "d": 230.76900000000023,
      "v": 120
    },
    {
      "midi": 43,
      "hit": false,
      "t": 36576.88650000003,
      "d": 115.38450000000012,
      "v": 100
    },
    {
      "midi": 36,
      "hit": false,
      "t": 36692.27100000003,
      "d": 115.38450000000012,
      "v": 100
    },
    {
      "midi": 62,
      "hit": false,
      "t": 36923.039999999986,
      "d": 1846.1520000000019,
      "v": 100
    },
    {
      "midi": 53,
      "hit": false,
      "t": 36923.039999999986,
      "d": 1846.1520000000019,
      "v": 100
    },
    {
      "midi": 50,
      "hit": false,
      "t": 36923.039999999986,
      "d": 1846.1520000000019,
      "v": 100
    },
    {
      "midi": 57,
      "hit": false,
      "t": 36923.039999999986,
      "d": 1846.1520000000019,
      "v": 100
    },
    {
      "midi": 62,
      "hit": false,
      "t": 36923.04,
      "d": 230.76900000000023,
      "v": 100
    },
    {
      "midi": 26,
      "hit": false,
      "t": 36923.04000000003,
      "d": 230.76900000000023,
      "v": 100
    },
    {
      "midi": 36,
      "hit": false,
      "t": 36923.04000000004,
      "d": 230.76900000000023,
      "v": 120
    },
    {
      "midi": 64,
      "hit": false,
      "t": 37153.809,
      "d": 230.76900000000023,
      "v": 100
    },
    {
      "midi": 38,
      "hit": false,
      "t": 37269.19350000003,
      "d": 0,
      "v": 100
    },
    {
      "midi": 65,
      "hit": false,
      "t": 37384.578,
      "d": 230.76900000000023,
      "v": 100
    },
    {
      "midi": 50,
      "hit": false,
      "t": 37384.57800000003,
      "d": 115.38450000000012,
      "v": 100
    },
    {
      "midi": 40,
      "hit": false,
      "t": 37384.57800000004,
      "d": 230.76900000000023,
      "v": 120
    },
    {
      "midi": 62,
      "hit": false,
      "t": 37615.347,
      "d": 230.76900000000023,
      "v": 100
    },
    {
      "midi": 38,
      "hit": false,
      "t": 37615.34700000003,
      "d": 115.38450000000012,
      "v": 100
    },
    {
      "midi": 36,
      "hit": false,
      "t": 37846.11600000004,
      "d": 230.76900000000023,
      "v": 120
    },
    {
      "midi": 26,
      "hit": false,
      "t": 38076.88500000003,
      "d": 230.76900000000023,
      "v": 100
    },
    {
      "midi": 38,
      "hit": false,
      "t": 38192.26950000003,
      "d": 115.38450000000012,
      "v": 100
    },
    {
      "midi": 50,
      "hit": false,
      "t": 38307.65400000003,
      "d": 115.38450000000012,
      "v": 100
    },
    {
      "midi": 40,
      "hit": false,
      "t": 38307.65400000004,
      "d": 230.76900000000023,
      "v": 120
    },
    {
      "midi": 45,
      "hit": false,
      "t": 38423.03850000003,
      "d": 115.38450000000012,
      "v": 100
    },
    {
      "midi": 38,
      "hit": false,
      "t": 38538.42300000003,
      "d": 115.38450000000012,
      "v": 100
    },
    {
      "midi": 60,
      "hit": false,
      "t": 38769.19199999999,
      "d": 1846.1520000000019,
      "v": 100
    },
    {
      "midi": 52,
      "hit": false,
      "t": 38769.19199999999,
      "d": 1846.1520000000019,
      "v": 100
    },
    {
      "midi": 48,
      "hit": false,
      "t": 38769.19199999999,
      "d": 1846.1520000000019,
      "v": 100
    },
    {
      "midi": 55,
      "hit": false,
      "t": 38769.19199999999,
      "d": 1846.1520000000019,
      "v": 100
    },
    {
      "midi": 62,
      "hit": false,
      "t": 38769.192,
      "d": 0,
      "v": 100
    },
    {
      "midi": 24,
      "hit": false,
      "t": 38769.19200000003,
      "d": 115.38450000000012,
      "v": 100
    },
    {
      "midi": 36,
      "hit": false,
      "t": 38773.03815000004,
      "d": 230.76900000000023,
      "v": 120
    },
    {
      "midi": 60,
      "hit": false,
      "t": 38999.961,
      "d": 230.76900000000023,
      "v": 100
    },
    {
      "midi": 36,
      "hit": false,
      "t": 39115.34550000003,
      "d": 0,
      "v": 100
    },
    {
      "midi": 57,
      "hit": false,
      "t": 39230.73,
      "d": 230.76900000000023,
      "v": 100
    },
    {
      "midi": 48,
      "hit": false,
      "t": 39230.73000000003,
      "d": 115.38450000000012,
      "v": 100
    },
    {
      "midi": 40,
      "hit": false,
      "t": 39234.57615000004,
      "d": 230.76900000000023,
      "v": 120
    },
    {
      "midi": 60,
      "hit": false,
      "t": 39461.499,
      "d": 230.76900000000023,
      "v": 100
    },
    {
      "midi": 36,
      "hit": false,
      "t": 39461.49900000003,
      "d": 115.38450000000012,
      "v": 100
    },
    {
      "midi": 36,
      "hit": false,
      "t": 39696.11415000004,
      "d": 230.76900000000023,
      "v": 120
    },
    {
      "midi": 24,
      "hit": false,
      "t": 39923.03700000003,
      "d": 230.76900000000023,
      "v": 100
    },
    {
      "midi": 36,
      "hit": false,
      "t": 40038.42150000003,
      "d": 115.38450000000012,
      "v": 100
    },
    {
      "midi": 48,
      "hit": false,
      "t": 40153.80600000003,
      "d": 115.38450000000012,
      "v": 100
    },
    {
      "midi": 40,
      "hit": false,
      "t": 40157.65215000004,
      "d": 230.76900000000023,
      "v": 120
    },
    {
      "midi": 43,
      "hit": false,
      "t": 40269.19050000003,
      "d": 115.38450000000012,
      "v": 100
    },
    {
      "midi": 62,
      "hit": false,
      "t": 40384.575000000004,
      "d": 230.76900000000023,
      "v": 100
    },
    {
      "midi": 36,
      "hit": false,
      "t": 40384.57500000003,
      "d": 115.38450000000012,
      "v": 100
    },
    {
      "midi": 57,
      "hit": false,
      "t": 40615.34399999999,
      "d": 1846.1520000000019,
      "v": 100
    },
    {
      "midi": 62,
      "hit": false,
      "t": 40615.34399999999,
      "d": 1846.1520000000019,
      "v": 100
    },
    {
      "midi": 53,
      "hit": false,
      "t": 40615.34399999999,
      "d": 1846.1520000000019,
      "v": 100
    },
    {
      "midi": 50,
      "hit": false,
      "t": 40615.34399999999,
      "d": 1846.1520000000019,
      "v": 100
    },
    {
      "midi": 26,
      "hit": false,
      "t": 40615.344000000034,
      "d": 230.76900000000023,
      "v": 100
    },
    {
      "midi": 36,
      "hit": false,
      "t": 40623.036300000036,
      "d": 230.76900000000023,
      "v": 120
    },
    {
      "midi": 38,
      "hit": false,
      "t": 40961.497500000034,
      "d": 0,
      "v": 100
    },
    {
      "midi": 50,
      "hit": false,
      "t": 41076.882000000034,
      "d": 115.38450000000012,
      "v": 100
    },
    {
      "midi": 40,
      "hit": false,
      "t": 41084.57430000004,
      "d": 230.76900000000023,
      "v": 120
    },
    {
      "midi": 38,
      "hit": false,
      "t": 41307.651000000034,
      "d": 115.38450000000012,
      "v": 100
    },
    {
      "midi": 36,
      "hit": false,
      "t": 41546.11230000004,
      "d": 230.76900000000023,
      "v": 120
    },
    {
      "midi": 26,
      "hit": false,
      "t": 41769.189000000035,
      "d": 230.76900000000023,
      "v": 100
    },
    {
      "midi": 38,
      "hit": false,
      "t": 41884.573500000035,
      "d": 115.38450000000012,
      "v": 100
    },
    {
      "midi": 50,
      "hit": false,
      "t": 41999.958000000035,
      "d": 115.38450000000012,
      "v": 100
    },
    {
      "midi": 40,
      "hit": false,
      "t": 42007.65030000004,
      "d": 230.76900000000023,
      "v": 120
    },
    {
      "midi": 45,
      "hit": false,
      "t": 42115.342500000035,
      "d": 115.38450000000012,
      "v": 100
    },
    {
      "midi": 38,
      "hit": false,
      "t": 42230.727000000035,
      "d": 115.38450000000012,
      "v": 100
    },
    {
      "midi": 60,
      "hit": false,
      "t": 42461.49599999999,
      "d": 1846.1520000000019,
      "v": 100
    },
    {
      "midi": 52,
      "hit": false,
      "t": 42461.49599999999,
      "d": 1846.1520000000019,
      "v": 100
    },
    {
      "midi": 48,
      "hit": false,
      "t": 42461.49599999999,
      "d": 1846.1520000000019,
      "v": 100
    },
    {
      "midi": 55,
      "hit": false,
      "t": 42461.49599999999,
      "d": 1846.1520000000019,
      "v": 100
    },
    {
      "midi": 24,
      "hit": false,
      "t": 42461.496000000036,
      "d": 115.38450000000012,
      "v": 100
    },
    {
      "midi": 36,
      "hit": false,
      "t": 42473.034450000036,
      "d": 230.76900000000023,
      "v": 120
    },
    {
      "midi": 36,
      "hit": false,
      "t": 42807.649500000036,
      "d": 0,
      "v": 100
    },
    {
      "midi": 48,
      "hit": false,
      "t": 42923.034000000036,
      "d": 115.38450000000012,
      "v": 100
    },
    {
      "midi": 40,
      "hit": false,
      "t": 42934.572450000036,
      "d": 230.76900000000023,
      "v": 120
    },
    {
      "midi": 36,
      "hit": false,
      "t": 43153.803000000036,
      "d": 115.38450000000012,
      "v": 100
    },
    {
      "midi": 36,
      "hit": false,
      "t": 43396.11045000004,
      "d": 230.76900000000023,
      "v": 120
    },
    {
      "midi": 24,
      "hit": false,
      "t": 43615.34100000004,
      "d": 230.76900000000023,
      "v": 100
    },
    {
      "midi": 36,
      "hit": false,
      "t": 43730.72550000004,
      "d": 115.38450000000012,
      "v": 100
    },
    {
      "midi": 48,
      "hit": false,
      "t": 43846.11000000004,
      "d": 115.38450000000012,
      "v": 100
    },
    {
      "midi": 40,
      "hit": false,
      "t": 43857.64845000004,
      "d": 230.76900000000023,
      "v": 120
    },
    {
      "midi": 43,
      "hit": false,
      "t": 43961.49450000004,
      "d": 115.38450000000012,
      "v": 100
    },
    {
      "midi": 36,
      "hit": false,
      "t": 44076.87900000004,
      "d": 115.38450000000012,
      "v": 100
    },
    {
      "midi": 62,
      "hit": false,
      "t": 44307.647999999994,
      "d": 1846.1520000000019,
      "v": 100
    },
    {
      "midi": 53,
      "hit": false,
      "t": 44307.647999999994,
      "d": 1846.1520000000019,
      "v": 100
    },
    {
      "midi": 50,
      "hit": false,
      "t": 44307.647999999994,
      "d": 1846.1520000000019,
      "v": 100
    },
    {
      "midi": 57,
      "hit": false,
      "t": 44307.647999999994,
      "d": 1846.1520000000019,
      "v": 100
    },
    {
      "midi": 62,
      "hit": false,
      "t": 44307.648,
      "d": 230.76900000000023,
      "v": 100
    },
    {
      "midi": 36,
      "hit": false,
      "t": 44307.64800000004,
      "d": 7.692300000002433,
      "v": 120
    },
    {
      "midi": 26,
      "hit": false,
      "t": 44307.64800000004,
      "d": 230.76900000000023,
      "v": 100
    },
    {
      "midi": 64,
      "hit": false,
      "t": 44538.417,
      "d": 230.76900000000023,
      "v": 100
    },
    {
      "midi": 38,
      "hit": false,
      "t": 44653.80150000004,
      "d": 0,
      "v": 100
    },
    {
      "midi": 65,
      "hit": false,
      "t": 44769.186,
      "d": 230.76900000000023,
      "v": 100
    },
    {
      "midi": 40,
      "hit": false,
      "t": 44769.18600000004,
      "d": 230.76900000000023,
      "v": 120
    },
    {
      "midi": 50,
      "hit": false,
      "t": 44769.18600000004,
      "d": 115.38450000000012,
      "v": 100
    },
    {
      "midi": 62,
      "hit": false,
      "t": 44999.955,
      "d": 230.76900000000023,
      "v": 100
    },
    {
      "midi": 38,
      "hit": false,
      "t": 44999.95500000004,
      "d": 115.38450000000012,
      "v": 100
    },
    {
      "midi": 36,
      "hit": false,
      "t": 45230.72400000004,
      "d": 230.76900000000023,
      "v": 120
    },
    {
      "midi": 26,
      "hit": false,
      "t": 45461.49300000004,
      "d": 230.76900000000023,
      "v": 100
    },
    {
      "midi": 38,
      "hit": false,
      "t": 45576.87750000004,
      "d": 115.38450000000012,
      "v": 100
    },
    {
      "midi": 40,
      "hit": false,
      "t": 45692.26200000004,
      "d": 230.76900000000023,
      "v": 120
    },
    {
      "midi": 50,
      "hit": false,
      "t": 45692.26200000004,
      "d": 115.38450000000012,
      "v": 100
    },
    {
      "midi": 45,
      "hit": false,
      "t": 45807.64650000004,
      "d": 115.38450000000012,
      "v": 100
    },
    {
      "midi": 38,
      "hit": false,
      "t": 45923.03100000004,
      "d": 115.38450000000012,
      "v": 100
    },
    {
      "midi": 60,
      "hit": false,
      "t": 46153.799999999996,
      "d": 1846.1520000000019,
      "v": 100
    },
    {
      "midi": 52,
      "hit": false,
      "t": 46153.799999999996,
      "d": 1846.1520000000019,
      "v": 100
    },
    {
      "midi": 48,
      "hit": false,
      "t": 46153.799999999996,
      "d": 1846.1520000000019,
      "v": 100
    },
    {
      "midi": 55,
      "hit": false,
      "t": 46153.799999999996,
      "d": 1846.1520000000019,
      "v": 100
    },
    {
      "midi": 62,
      "hit": false,
      "t": 46153.8,
      "d": 0,
      "v": 100
    },
    {
      "midi": 36,
      "hit": false,
      "t": 46153.80000000004,
      "d": 230.76900000000023,
      "v": 120
    },
    {
      "midi": 24,
      "hit": false,
      "t": 46153.80000000004,
      "d": 115.38450000000012,
      "v": 100
    },
    {
      "midi": 60,
      "hit": false,
      "t": 46384.569,
      "d": 230.76900000000023,
      "v": 100
    },
    {
      "midi": 36,
      "hit": false,
      "t": 46499.95350000004,
      "d": 0,
      "v": 100
    },
    {
      "midi": 57,
      "hit": false,
      "t": 46615.338,
      "d": 230.76900000000023,
      "v": 100
    },
    {
      "midi": 40,
      "hit": false,
      "t": 46615.33800000004,
      "d": 230.76900000000023,
      "v": 120
    },
    {
      "midi": 48,
      "hit": false,
      "t": 46615.33800000004,
      "d": 115.38450000000012,
      "v": 100
    },
    {
      "midi": 60,
      "hit": false,
      "t": 46846.107,
      "d": 230.76900000000023,
      "v": 100
    },
    {
      "midi": 36,
      "hit": false,
      "t": 46846.10700000004,
      "d": 115.38450000000012,
      "v": 100
    },
    {
      "midi": 36,
      "hit": false,
      "t": 47076.87600000004,
      "d": 230.76900000000023,
      "v": 120
    },
    {
      "midi": 24,
      "hit": false,
      "t": 47307.64500000004,
      "d": 230.76900000000023,
      "v": 100
    },
    {
      "midi": 36,
      "hit": false,
      "t": 47423.02950000004,
      "d": 115.38450000000012,
      "v": 100
    },
    {
      "midi": 40,
      "hit": false,
      "t": 47538.41400000004,
      "d": 230.76900000000023,
      "v": 120
    },
    {
      "midi": 48,
      "hit": false,
      "t": 47538.41400000004,
      "d": 115.38450000000012,
      "v": 100
    },
    {
      "midi": 43,
      "hit": false,
      "t": 47653.79850000004,
      "d": 115.38450000000012,
      "v": 100
    },
    {
      "midi": 36,
      "hit": false,
      "t": 47769.18300000004,
      "d": 115.38450000000012,
      "v": 100
    },
    {
      "midi": 58,
      "hit": false,
      "t": 47999.952,
      "d": 1846.1520000000019,
      "v": 100
    },
    {
      "midi": 50,
      "hit": false,
      "t": 47999.952,
      "d": 1846.1520000000019,
      "v": 100
    },
    {
      "midi": 46,
      "hit": false,
      "t": 47999.952,
      "d": 1846.1520000000019,
      "v": 100
    },
    {
      "midi": 53,
      "hit": false,
      "t": 47999.952,
      "d": 1846.1520000000019,
      "v": 100
    },
    {
      "midi": 62,
      "hit": false,
      "t": 47999.952000000005,
      "d": 230.76900000000023,
      "v": 100
    },
    {
      "midi": 36,
      "hit": false,
      "t": 47999.95200000004,
      "d": 230.76900000000023,
      "v": 120
    },
    {
      "midi": 34,
      "hit": false,
      "t": 47999.95200000004,
      "d": 230.76900000000023,
      "v": 100
    },
    {
      "midi": 64,
      "hit": false,
      "t": 48230.721000000005,
      "d": 230.76900000000023,
      "v": 100
    },
    {
      "midi": 46,
      "hit": false,
      "t": 48346.10550000004,
      "d": 0,
      "v": 100
    },
    {
      "midi": 65,
      "hit": false,
      "t": 48461.490000000005,
      "d": 230.76900000000023,
      "v": 100
    },
    {
      "midi": 40,
      "hit": false,
      "t": 48461.49000000004,
      "d": 230.76900000000023,
      "v": 120
    },
    {
      "midi": 58,
      "hit": false,
      "t": 48461.49000000004,
      "d": 115.38450000000012,
      "v": 100
    },
    {
      "midi": 62,
      "hit": false,
      "t": 48692.259000000005,
      "d": 230.76900000000023,
      "v": 100
    },
    {
      "midi": 46,
      "hit": false,
      "t": 48692.25900000004,
      "d": 230.76900000000023,
      "v": 100
    },
    {
      "midi": 36,
      "hit": false,
      "t": 48923.02800000004,
      "d": 230.76900000000023,
      "v": 120
    },
    {
      "midi": 34,
      "hit": false,
      "t": 49153.79700000004,
      "d": 230.76900000000023,
      "v": 100
    },
    {
      "midi": 46,
      "hit": false,
      "t": 49269.18150000004,
      "d": 115.38450000000012,
      "v": 100
    },
    {
      "midi": 40,
      "hit": false,
      "t": 49384.56600000004,
      "d": 230.76900000000023,
      "v": 120
    },
    {
      "midi": 58,
      "hit": false,
      "t": 49384.56600000004,
      "d": 115.38450000000012,
      "v": 100
    },
    {
      "midi": 53,
      "hit": false,
      "t": 49499.95050000004,
      "d": 115.38450000000012,
      "v": 100
    },
    {
      "midi": 62,
      "hit": false,
      "t": 49615.33500000001,
      "d": 230.76900000000023,
      "v": 100
    },
    {
      "midi": 46,
      "hit": false,
      "t": 49615.33500000004,
      "d": 115.38450000000012,
      "v": 100
    },
    {
      "midi": 57,
      "hit": false,
      "t": 49846.104,
      "d": 923.0760000000009,
      "v": 100
    },
    {
      "midi": 45,
      "hit": false,
      "t": 49846.104,
      "d": 923.0760000000009,
      "v": 100
    },
    {
      "midi": 70,
      "hit": false,
      "t": 49846.10400000001,
      "d": 230.76900000000023,
      "v": 100
    },
    {
      "midi": 36,
      "hit": false,
      "t": 49846.10400000004,
      "d": 230.76900000000023,
      "v": 120
    },
    {
      "midi": 21,
      "hit": false,
      "t": 49846.10400000004,
      "d": 230.76900000000023,
      "v": 100
    },
    {
      "midi": 69,
      "hit": false,
      "t": 50076.87300000001,
      "d": 230.76900000000023,
      "v": 100
    },
    {
      "midi": 33,
      "hit": false,
      "t": 50192.25750000004,
      "d": 0,
      "v": 100
    },
    {
      "midi": 64,
      "hit": false,
      "t": 50307.64200000001,
      "d": 230.76900000000023,
      "v": 100
    },
    {
      "midi": 40,
      "hit": false,
      "t": 50307.64200000004,
      "d": 230.76900000000023,
      "v": 120
    },
    {
      "midi": 45,
      "hit": false,
      "t": 50307.64200000004,
      "d": 115.38450000000012,
      "v": 100
    },
    {
      "midi": 65,
      "hit": false,
      "t": 50538.41100000001,
      "d": 230.76900000000023,
      "v": 100
    },
    {
      "midi": 33,
      "hit": false,
      "t": 50538.411000000044,
      "d": 230.76900000000023,
      "v": 100
    },
    {
      "midi": 48,
      "hit": false,
      "t": 50769.18,
      "d": 0,
      "v": 100
    },
    {
      "midi": 52,
      "hit": false,
      "t": 50769.18,
      "d": 0,
      "v": 100
    },
    {
      "midi": 60,
      "hit": false,
      "t": 50769.18,
      "d": 923.0760000000009,
      "v": 100
    },
    {
      "midi": 55,
      "hit": false,
      "t": 50769.18,
      "d": 923.0760000000009,
      "v": 100
    },
    {
      "midi": 36,
      "hit": false,
      "t": 50769.180000000044,
      "d": 230.76900000000023,
      "v": 120
    },
    {
      "midi": 24,
      "hit": false,
      "t": 50999.949000000044,
      "d": 230.76900000000023,
      "v": 100
    },
    {
      "midi": 36,
      "hit": false,
      "t": 51115.333500000044,
      "d": 115.38450000000012,
      "v": 100
    },
    {
      "midi": 40,
      "hit": false,
      "t": 51230.718000000044,
      "d": 230.76900000000023,
      "v": 120
    },
    {
      "midi": 48,
      "hit": false,
      "t": 51230.718000000044,
      "d": 115.38450000000012,
      "v": 100
    },
    {
      "midi": 43,
      "hit": false,
      "t": 51346.102500000045,
      "d": 115.38450000000012,
      "v": 100
    },
    {
      "midi": 36,
      "hit": false,
      "t": 51461.487000000045,
      "d": 115.38450000000012,
      "v": 100
    },
    {
      "midi": 62,
      "hit": false,
      "t": 51692.256,
      "d": 1846.1520000000019,
      "v": 100
    },
    {
      "midi": 53,
      "hit": false,
      "t": 51692.256,
      "d": 1846.1520000000019,
      "v": 100
    },
    {
      "midi": 50,
      "hit": false,
      "t": 51692.256,
      "d": 1846.1520000000019,
      "v": 100
    },
    {
      "midi": 57,
      "hit": false,
      "t": 51692.256,
      "d": 1846.1520000000019,
      "v": 100
    },
    {
      "midi": 62,
      "hit": false,
      "t": 51692.25600000001,
      "d": 230.76900000000023,
      "v": 100
    },
    {
      "midi": 36,
      "hit": false,
      "t": 51692.256000000045,
      "d": 230.76900000000023,
      "v": 120
    },
    {
      "midi": 26,
      "hit": false,
      "t": 51692.256000000045,
      "d": 230.76900000000023,
      "v": 100
    },
    {
      "midi": 64,
      "hit": false,
      "t": 51923.02500000001,
      "d": 230.76900000000023,
      "v": 100
    },
    {
      "midi": 38,
      "hit": false,
      "t": 52038.409500000045,
      "d": 0,
      "v": 100
    },
    {
      "midi": 65,
      "hit": false,
      "t": 52153.79400000001,
      "d": 230.76900000000023,
      "v": 100
    },
    {
      "midi": 40,
      "hit": false,
      "t": 52153.794000000045,
      "d": 230.76900000000023,
      "v": 120
    },
    {
      "midi": 50,
      "hit": false,
      "t": 52153.794000000045,
      "d": 115.38450000000012,
      "v": 100
    },
    {
      "midi": 62,
      "hit": false,
      "t": 52384.56300000001,
      "d": 230.76900000000023,
      "v": 100
    },
    {
      "midi": 38,
      "hit": false,
      "t": 52384.563000000046,
      "d": 115.38450000000012,
      "v": 100
    },
    {
      "midi": 36,
      "hit": false,
      "t": 52615.332000000046,
      "d": 230.76900000000023,
      "v": 120
    },
    {
      "midi": 26,
      "hit": false,
      "t": 52846.101000000046,
      "d": 230.76900000000023,
      "v": 100
    },
    {
      "midi": 38,
      "hit": false,
      "t": 52961.485500000046,
      "d": 115.38450000000012,
      "v": 100
    },
    {
      "midi": 40,
      "hit": false,
      "t": 53076.870000000046,
      "d": 230.76900000000023,
      "v": 120
    },
    {
      "midi": 50,
      "hit": false,
      "t": 53076.870000000046,
      "d": 115.38450000000012,
      "v": 100
    },
    {
      "midi": 45,
      "hit": false,
      "t": 53192.25450000005,
      "d": 115.38450000000012,
      "v": 100
    },
    {
      "midi": 38,
      "hit": false,
      "t": 53307.63900000005,
      "d": 115.38450000000012,
      "v": 100
    },
    {
      "midi": 60,
      "hit": false,
      "t": 53538.408,
      "d": 1846.1520000000019,
      "v": 100
    },
    {
      "midi": 52,
      "hit": false,
      "t": 53538.408,
      "d": 1846.1520000000019,
      "v": 100
    },
    {
      "midi": 48,
      "hit": false,
      "t": 53538.408,
      "d": 1846.1520000000019,
      "v": 100
    },
    {
      "midi": 55,
      "hit": false,
      "t": 53538.408,
      "d": 1846.1520000000019,
      "v": 100
    },
    {
      "midi": 62,
      "hit": false,
      "t": 53538.40800000001,
      "d": 0,
      "v": 100
    },
    {
      "midi": 24,
      "hit": false,
      "t": 53538.40800000005,
      "d": 115.38450000000012,
      "v": 100
    },
    {
      "midi": 36,
      "hit": false,
      "t": 53542.254150000044,
      "d": 230.76900000000023,
      "v": 120
    },
    {
      "midi": 60,
      "hit": false,
      "t": 53769.17700000001,
      "d": 230.76900000000023,
      "v": 100
    },
    {
      "midi": 36,
      "hit": false,
      "t": 53884.56150000005,
      "d": 0,
      "v": 100
    },
    {
      "midi": 57,
      "hit": false,
      "t": 53999.94600000001,
      "d": 230.76900000000023,
      "v": 100
    },
    {
      "midi": 48,
      "hit": false,
      "t": 53999.94600000005,
      "d": 115.38450000000012,
      "v": 100
    },
    {
      "midi": 40,
      "hit": false,
      "t": 54003.792150000045,
      "d": 230.76900000000023,
      "v": 120
    },
    {
      "midi": 60,
      "hit": false,
      "t": 54230.71500000001,
      "d": 230.76900000000023,
      "v": 100
    },
    {
      "midi": 36,
      "hit": false,
      "t": 54230.71500000005,
      "d": 115.38450000000012,
      "v": 100
    },
    {
      "midi": 36,
      "hit": false,
      "t": 54692.25300000005,
      "d": 3.8461499999975786,
      "v": 100
    },
    {
      "midi": 24,
      "hit": false,
      "t": 54692.25300000005,
      "d": 230.76900000000023,
      "v": 100
    },
    {
      "midi": 36,
      "hit": false,
      "t": 54807.63750000005,
      "d": 115.38450000000012,
      "v": 100
    },
    {
      "midi": 48,
      "hit": false,
      "t": 54923.02200000005,
      "d": 115.38450000000012,
      "v": 100
    },
    {
      "midi": 40,
      "hit": false,
      "t": 54926.868150000046,
      "d": 230.76900000000023,
      "v": 120
    },
    {
      "midi": 43,
      "hit": false,
      "t": 55038.40650000005,
      "d": 115.38450000000012,
      "v": 100
    },
    {
      "midi": 62,
      "hit": false,
      "t": 55153.79100000001,
      "d": 230.76900000000023,
      "v": 100
    },
    {
      "midi": 36,
      "hit": false,
      "t": 55153.79100000005,
      "d": 115.38450000000012,
      "v": 100
    },
    {
      "midi": 53,
      "hit": false,
      "t": 55384.560000000005,
      "d": 1846.1520000000019,
      "v": 100
    },
    {
      "midi": 50,
      "hit": false,
      "t": 55384.560000000005,
      "d": 1846.1520000000019,
      "v": 100
    },
    {
      "midi": 46,
      "hit": false,
      "t": 55384.560000000005,
      "d": 1846.1520000000019,
      "v": 100
    },
    {
      "midi": 58,
      "hit": false,
      "t": 55384.560000000005,
      "d": 1846.1520000000019,
      "v": 100
    },
    {
      "midi": 34,
      "hit": false,
      "t": 55384.56000000005,
      "d": 230.76900000000023,
      "v": 100
    },
    {
      "midi": 36,
      "hit": false,
      "t": 55392.252300000044,
      "d": 230.76900000000023,
      "v": 120
    },
    {
      "midi": 64,
      "hit": false,
      "t": 55615.32900000001,
      "d": 346.15350000000035,
      "v": 100
    },
    {
      "midi": 46,
      "hit": false,
      "t": 55730.71350000005,
      "d": 0,
      "v": 100
    },
    {
      "midi": 58,
      "hit": false,
      "t": 55846.09800000005,
      "d": 115.38450000000012,
      "v": 100
    },
    {
      "midi": 40,
      "hit": false,
      "t": 55853.790300000044,
      "d": 230.76900000000023,
      "v": 120
    },
    {
      "midi": 65,
      "hit": false,
      "t": 56076.86700000001,
      "d": 692.3070000000007,
      "v": 100
    },
    {
      "midi": 46,
      "hit": false,
      "t": 56076.86700000005,
      "d": 115.38450000000012,
      "v": 100
    },
    {
      "midi": 67,
      "hit": false,
      "t": 56538.40500000001,
      "d": 346.15350000000035,
      "v": 100
    },
    {
      "midi": 36,
      "hit": false,
      "t": 56538.40500000004,
      "d": 7.692300000002433,
      "v": 100
    },
    {
      "midi": 34,
      "hit": false,
      "t": 56538.40500000005,
      "d": 230.76900000000023,
      "v": 100
    },
    {
      "midi": 46,
      "hit": false,
      "t": 56653.78950000005,
      "d": 115.38450000000012,
      "v": 100
    },
    {
      "midi": 58,
      "hit": false,
      "t": 56769.17400000005,
      "d": 115.38450000000012,
      "v": 100
    },
    {
      "midi": 53,
      "hit": false,
      "t": 56884.55850000005,
      "d": 115.38450000000012,
      "v": 100
    },
    {
      "midi": 45,
      "hit": false,
      "t": 56999.94300000001,
      "d": 230.76900000000023,
      "v": 100
    },
    {
      "midi": 57,
      "hit": false,
      "t": 56999.94300000001,
      "d": 230.76900000000023,
      "v": 100
    },
    {
      "midi": 69,
      "hit": false,
      "t": 56999.943000000014,
      "d": 230.76900000000023,
      "v": 100
    },
    {
      "midi": 40,
      "hit": false,
      "t": 56999.94300000004,
      "d": 7.692300000002433,
      "v": 120
    },
    {
      "midi": 33,
      "hit": false,
      "t": 56999.94300000005,
      "d": 115.38450000000012,
      "v": 100
    },
    {
      "midi": 55,
      "hit": false,
      "t": 57461.48100000001,
      "d": 230.76900000000023,
      "v": 100
    },
    {
      "midi": 67,
      "hit": false,
      "t": 57461.481000000014,
      "d": 346.15350000000035,
      "v": 100
    },
    {
      "midi": 33,
      "hit": false,
      "t": 57461.48100000005,
      "d": 115.38450000000012,
      "v": 100
    },
    {
      "midi": 45,
      "hit": false,
      "t": 57692.25000000001,
      "d": 0,
      "v": 100
    },
    {
      "midi": 58,
      "hit": false,
      "t": 57692.25000000001,
      "d": 230.76900000000023,
      "v": 100
    },
    {
      "midi": 70,
      "hit": false,
      "t": 57692.250000000015,
      "d": 230.76900000000023,
      "v": 100
    },
    {
      "midi": 40,
      "hit": false,
      "t": 57692.250000000044,
      "d": 0,
      "v": 120
    },
    {
      "midi": 33,
      "hit": false,
      "t": 57692.25000000005,
      "d": 115.38450000000012,
      "v": 100
    },
    {
      "midi": 45,
      "hit": false,
      "t": 57923.01900000001,
      "d": 0,
      "v": 100
    },
    {
      "midi": 57,
      "hit": false,
      "t": 57923.01900000001,
      "d": 230.76900000000023,
      "v": 100
    },
    {
      "midi": 69,
      "hit": false,
      "t": 57923.019000000015,
      "d": 230.76900000000023,
      "v": 100
    },
    {
      "midi": 40,
      "hit": false,
      "t": 57923.019000000044,
      "d": 0,
      "v": 120
    },
    {
      "midi": 33,
      "hit": false,
      "t": 57923.01900000005,
      "d": 115.38450000000012,
      "v": 100
    },
    {
      "midi": 21,
      "hit": false,
      "t": 58384.55700000005,
      "d": 230.76900000000023,
      "v": 100
    },
    {
      "midi": 36,
      "hit": false,
      "t": 58499.941500000044,
      "d": 115.38450000000012,
      "v": 120
    },
    {
      "midi": 33,
      "hit": false,
      "t": 58499.94150000005,
      "d": 115.38450000000012,
      "v": 100
    },
    {
      "midi": 45,
      "hit": false,
      "t": 58615.32600000005,
      "d": 115.38450000000012,
      "v": 100
    },
    {
      "midi": 40,
      "hit": false,
      "t": 58730.710500000045,
      "d": 0,
      "v": 120
    },
    {
      "midi": 40,
      "hit": false,
      "t": 58730.71050000005,
      "d": 115.38450000000012,
      "v": 100
    },
    {
      "midi": 40,
      "hit": false,
      "t": 58846.095000000045,
      "d": 0,
      "v": 120
    },
    {
      "midi": 34,
      "hit": false,
      "t": 58846.09500000005,
      "d": 115.38450000000012,
      "v": 100
    },
    {
      "midi": 50,
      "hit": false,
      "t": 59076.863999999994,
      "d": 1846.1520000000019,
      "v": 100
    },
    {
      "midi": 57,
      "hit": false,
      "t": 59076.863999999994,
      "d": 1846.1520000000019,
      "v": 100
    },
    {
      "midi": 62,
      "hit": false,
      "t": 59076.86400000001,
      "d": 1846.1520000000019,
      "v": 100
    },
    {
      "midi": 57,
      "hit": false,
      "t": 59076.86400000001,
      "d": 1846.1520000000019,
      "v": 100
    },
    {
      "midi": 69,
      "hit": false,
      "t": 59076.864000000016,
      "d": 230.76900000000023,
      "v": 100
    },
    {
      "midi": 36,
      "hit": false,
      "t": 59076.864000000045,
      "d": 461.53800000000047,
      "v": 120
    },
    {
      "midi": 26,
      "hit": false,
      "t": 59076.86400000005,
      "d": 230.76900000000023,
      "v": 100
    },
    {
      "midi": 38,
      "hit": false,
      "t": 59423.01750000005,
      "d": 0,
      "v": 100
    },
    {
      "midi": 62,
      "hit": false,
      "t": 59538.40200000002,
      "d": 0,
      "v": 100
    },
    {
      "midi": 40,
      "hit": false,
      "t": 59538.402000000046,
      "d": 230.76900000000023,
      "v": 120
    },
    {
      "midi": 50,
      "hit": false,
      "t": 59538.40200000005,
      "d": 115.38450000000012,
      "v": 100
    },
    {
      "midi": 64,
      "hit": false,
      "t": 59769.17100000002,
      "d": 230.76900000000023,
      "v": 100
    },
    {
      "midi": 38,
      "hit": false,
      "t": 59769.17100000005,
      "d": 115.38450000000012,
      "v": 100
    },
    {
      "midi": 65,
      "hit": false,
      "t": 59999.94000000002,
      "d": 230.76900000000023,
      "v": 100
    },
    {
      "midi": 67,
      "hit": false,
      "t": 60230.70900000002,
      "d": 230.76900000000023,
      "v": 100
    },
    {
      "midi": 36,
      "hit": false,
      "t": 60230.709000000046,
      "d": 0,
      "v": 120
    },
    {
      "midi": 26,
      "hit": false,
      "t": 60230.70900000005,
      "d": 230.76900000000023,
      "v": 100
    },
    {
      "midi": 38,
      "hit": false,
      "t": 60346.09350000005,
      "d": 115.38450000000012,
      "v": 100
    },
    {
      "midi": 40,
      "hit": false,
      "t": 60461.47800000005,
      "d": 230.76900000000023,
      "v": 120
    },
    {
      "midi": 50,
      "hit": false,
      "t": 60461.478000000054,
      "d": 115.38450000000012,
      "v": 100
    },
    {
      "midi": 45,
      "hit": false,
      "t": 60576.862500000054,
      "d": 115.38450000000012,
      "v": 100
    },
    {
      "midi": 69,
      "hit": false,
      "t": 60692.24700000002,
      "d": 0,
      "v": 100
    },
    {
      "midi": 38,
      "hit": false,
      "t": 60692.247000000054,
      "d": 115.38450000000012,
      "v": 100
    },
    {
      "midi": 53,
      "hit": false,
      "t": 60923.015999999996,
      "d": 1846.1520000000019,
      "v": 100
    },
    {
      "midi": 46,
      "hit": false,
      "t": 60923.015999999996,
      "d": 1846.1520000000019,
      "v": 100
    },
    {
      "midi": 50,
      "hit": false,
      "t": 60923.01600000001,
      "d": 0,
      "v": 100
    },
    {
      "midi": 53,
      "hit": false,
      "t": 60923.01600000001,
      "d": 0,
      "v": 100
    },
    {
      "midi": 58,
      "hit": false,
      "t": 60923.01600000001,
      "d": 1846.1520000000019,
      "v": 100
    },
    {
      "midi": 46,
      "hit": false,
      "t": 60923.01600000001,
      "d": 1846.1520000000019,
      "v": 100
    },
    {
      "midi": 36,
      "hit": false,
      "t": 60923.01600000005,
      "d": 230.76900000000023,
      "v": 120
    },
    {
      "midi": 34,
      "hit": false,
      "t": 60923.016000000054,
      "d": 230.76900000000023,
      "v": 100
    },
    {
      "midi": 70,
      "hit": false,
      "t": 61153.78500000002,
      "d": 230.76900000000023,
      "v": 100
    },
    {
      "midi": 46,
      "hit": false,
      "t": 61269.169500000055,
      "d": 0,
      "v": 100
    },
    {
      "midi": 40,
      "hit": false,
      "t": 61384.55400000005,
      "d": 230.76900000000023,
      "v": 120
    },
    {
      "midi": 58,
      "hit": false,
      "t": 61384.554000000055,
      "d": 115.38450000000012,
      "v": 100
    },
    {
      "midi": 67,
      "hit": false,
      "t": 61615.32300000002,
      "d": 230.76900000000023,
      "v": 100
    },
    {
      "midi": 46,
      "hit": false,
      "t": 61615.323000000055,
      "d": 230.76900000000023,
      "v": 100
    },
    {
      "midi": 65,
      "hit": false,
      "t": 62076.86100000002,
      "d": 230.76900000000023,
      "v": 100
    },
    {
      "midi": 36,
      "hit": false,
      "t": 62076.86100000005,
      "d": 0,
      "v": 120
    },
    {
      "midi": 34,
      "hit": false,
      "t": 62076.861000000055,
      "d": 230.76900000000023,
      "v": 100
    },
    {
      "midi": 46,
      "hit": false,
      "t": 62192.245500000055,
      "d": 115.38450000000012,
      "v": 100
    },
    {
      "midi": 40,
      "hit": false,
      "t": 62307.63000000005,
      "d": 230.76900000000023,
      "v": 120
    },
    {
      "midi": 58,
      "hit": false,
      "t": 62307.630000000056,
      "d": 115.38450000000012,
      "v": 100
    },
    {
      "midi": 53,
      "hit": false,
      "t": 62423.014500000056,
      "d": 115.38450000000012,
      "v": 100
    },
    {
      "midi": 67,
      "hit": false,
      "t": 62538.39900000002,
      "d": 230.76900000000023,
      "v": 100
    },
    {
      "midi": 46,
      "hit": false,
      "t": 62538.399000000056,
      "d": 115.38450000000012,
      "v": 100
    },
    {
      "midi": 55,
      "hit": false,
      "t": 62769.168,
      "d": 1846.1520000000019,
      "v": 100
    },
    {
      "midi": 60,
      "hit": false,
      "t": 62769.16800000001,
      "d": 1846.1520000000019,
      "v": 100
    },
    {
      "midi": 52,
      "hit": false,
      "t": 62769.16800000001,
      "d": 1846.1520000000019,
      "v": 100
    },
    {
      "midi": 55,
      "hit": false,
      "t": 62769.16800000001,
      "d": 1846.1520000000019,
      "v": 100
    },
    {
      "midi": 36,
      "hit": false,
      "t": 62769.16800000005,
      "d": 230.76900000000023,
      "v": 120
    },
    {
      "midi": 24,
      "hit": false,
      "t": 62769.168000000056,
      "d": 115.38450000000012,
      "v": 100
    },
    {
      "midi": 60,
      "hit": false,
      "t": 62999.93700000002,
      "d": 230.76900000000023,
      "v": 100
    },
    {
      "midi": 36,
      "hit": false,
      "t": 63115.32150000006,
      "d": 0,
      "v": 100
    },
    {
      "midi": 62,
      "hit": false,
      "t": 63230.70600000002,
      "d": 230.76900000000023,
      "v": 100
    },
    {
      "midi": 40,
      "hit": false,
      "t": 63230.70600000005,
      "d": 230.76900000000023,
      "v": 120
    },
    {
      "midi": 48,
      "hit": false,
      "t": 63230.70600000006,
      "d": 115.38450000000012,
      "v": 100
    },
    {
      "midi": 64,
      "hit": false,
      "t": 63461.47500000002,
      "d": 230.76900000000023,
      "v": 100
    },
    {
      "midi": 36,
      "hit": false,
      "t": 63461.47500000006,
      "d": 115.38450000000012,
      "v": 100
    },
    {
      "midi": 65,
      "hit": false,
      "t": 63692.24400000002,
      "d": 230.76900000000023,
      "v": 100
    },
    {
      "midi": 36,
      "hit": false,
      "t": 63923.01300000005,
      "d": 0,
      "v": 120
    },
    {
      "midi": 24,
      "hit": false,
      "t": 63923.01300000006,
      "d": 230.76900000000023,
      "v": 100
    },
    {
      "midi": 36,
      "hit": false,
      "t": 64038.39750000006,
      "d": 115.38450000000012,
      "v": 100
    },
    {
      "midi": 67,
      "hit": false,
      "t": 64153.78200000002,
      "d": 0,
      "v": 100
    },
    {
      "midi": 40,
      "hit": false,
      "t": 64153.78200000005,
      "d": 230.76900000000023,
      "v": 120
    },
    {
      "midi": 48,
      "hit": false,
      "t": 64153.78200000006,
      "d": 115.38450000000012,
      "v": 100
    },
    {
      "midi": 43,
      "hit": false,
      "t": 64269.16650000006,
      "d": 115.38450000000012,
      "v": 100
    },
    {
      "midi": 67,
      "hit": false,
      "t": 64384.55100000002,
      "d": 0,
      "v": 100
    },
    {
      "midi": 36,
      "hit": false,
      "t": 64384.55100000006,
      "d": 115.38450000000012,
      "v": 100
    },
    {
      "midi": 48,
      "hit": false,
      "t": 64615.32,
      "d": 0,
      "v": 100
    },
    {
      "midi": 43,
      "hit": false,
      "t": 64615.32,
      "d": 1846.1519999999946,
      "v": 100
    },
    {
      "midi": 48,
      "hit": false,
      "t": 64615.320000000014,
      "d": 0,
      "v": 100
    },
    {
      "midi": 45,
      "hit": false,
      "t": 64615.320000000014,
      "d": 1846.1519999999946,
      "v": 100
    },
    {
      "midi": 41,
      "hit": false,
      "t": 64615.320000000014,
      "d": 1846.1519999999946,
      "v": 100
    },
    {
      "midi": 36,
      "hit": false,
      "t": 64615.32000000005,
      "d": 230.76900000000023,
      "v": 120
    },
    {
      "midi": 17,
      "hit": false,
      "t": 64615.32000000006,
      "d": 115.38450000000012,
      "v": 100
    },
    {
      "midi": 69,
      "hit": false,
      "t": 64846.08900000002,
      "d": 230.76900000000023,
      "v": 100
    },
    {
      "midi": 29,
      "hit": false,
      "t": 64961.47350000006,
      "d": 0,
      "v": 100
    },
    {
      "midi": 40,
      "hit": false,
      "t": 65076.85800000005,
      "d": 230.76900000000023,
      "v": 120
    },
    {
      "midi": 41,
      "hit": false,
      "t": 65076.85800000006,
      "d": 115.38450000000012,
      "v": 100
    },
    {
      "midi": 65,
      "hit": false,
      "t": 65307.62700000002,
      "d": 230.76900000000023,
      "v": 100
    },
    {
      "midi": 29,
      "hit": false,
      "t": 65307.62700000006,
      "d": 115.38450000000012,
      "v": 100
    },
    {
      "midi": 67,
      "hit": false,
      "t": 65769.16500000002,
      "d": 230.76900000000023,
      "v": 100
    },
    {
      "midi": 36,
      "hit": false,
      "t": 65769.16500000005,
      "d": 0,
      "v": 120
    },
    {
      "midi": 17,
      "hit": false,
      "t": 65769.16500000005,
      "d": 115.38450000000012,
      "v": 100
    },
    {
      "midi": 29,
      "hit": false,
      "t": 65884.54950000005,
      "d": 115.38450000000012,
      "v": 100
    },
    {
      "midi": 40,
      "hit": false,
      "t": 65999.93400000005,
      "d": 230.76900000000023,
      "v": 120
    },
    {
      "midi": 41,
      "hit": false,
      "t": 65999.93400000005,
      "d": 115.38450000000012,
      "v": 100
    },
    {
      "midi": 36,
      "hit": false,
      "t": 66115.31850000005,
      "d": 115.38450000000012,
      "v": 100
    },
    {
      "midi": 29,
      "hit": false,
      "t": 66230.70300000005,
      "d": 115.38450000000012,
      "v": 100
    },
    {
      "midi": 57,
      "hit": false,
      "t": 66461.472,
      "d": 1846.1520000000019,
      "v": 100
    },
    {
      "midi": 50,
      "hit": false,
      "t": 66461.472,
      "d": 1846.1520000000019,
      "v": 100
    },
    {
      "midi": 53,
      "hit": false,
      "t": 66461.47200000001,
      "d": 0,
      "v": 100
    },
    {
      "midi": 62,
      "hit": false,
      "t": 66461.47200000001,
      "d": 1846.1520000000019,
      "v": 100
    },
    {
      "midi": 57,
      "hit": false,
      "t": 66461.47200000001,
      "d": 1846.1520000000019,
      "v": 100
    },
    {
      "midi": 69,
      "hit": false,
      "t": 66461.47200000002,
      "d": 230.76900000000023,
      "v": 100
    },
    {
      "midi": 26,
      "hit": false,
      "t": 66461.47200000005,
      "d": 230.76900000000023,
      "v": 100
    },
    {
      "midi": 36,
      "hit": false,
      "t": 66465.31815000005,
      "d": 230.76900000000023,
      "v": 120
    },
    {
      "midi": 38,
      "hit": false,
      "t": 66807.62550000005,
      "d": 0,
      "v": 100
    },
    {
      "midi": 62,
      "hit": false,
      "t": 66923.01000000002,
      "d": 0,
      "v": 100
    },
    {
      "midi": 50,
      "hit": false,
      "t": 66923.01000000005,
      "d": 115.38450000000012,
      "v": 100
    },
    {
      "midi": 40,
      "hit": false,
      "t": 66926.85615000005,
      "d": 230.76900000000023,
      "v": 120
    },
    {
      "midi": 64,
      "hit": false,
      "t": 67153.77900000002,
      "d": 230.76900000000023,
      "v": 100
    },
    {
      "midi": 38,
      "hit": false,
      "t": 67153.77900000005,
      "d": 115.38450000000012,
      "v": 100
    },
    {
      "midi": 65,
      "hit": false,
      "t": 67384.54800000002,
      "d": 230.76900000000023,
      "v": 100
    },
    {
      "midi": 67,
      "hit": false,
      "t": 67615.31700000002,
      "d": 230.76900000000023,
      "v": 100
    },
    {
      "midi": 26,
      "hit": false,
      "t": 67615.31700000005,
      "d": 230.76900000000023,
      "v": 100
    },
    {
      "midi": 36,
      "hit": false,
      "t": 67619.16315000005,
      "d": 0,
      "v": 120
    },
    {
      "midi": 38,
      "hit": false,
      "t": 67730.70150000005,
      "d": 115.38450000000012,
      "v": 100
    },
    {
      "midi": 50,
      "hit": false,
      "t": 67846.08600000005,
      "d": 115.38450000000012,
      "v": 100
    },
    {
      "midi": 40,
      "hit": false,
      "t": 67849.93215000005,
      "d": 230.76900000000023,
      "v": 120
    },
    {
      "midi": 45,
      "hit": false,
      "t": 67961.47050000005,
      "d": 115.38450000000012,
      "v": 100
    },
    {
      "midi": 69,
      "hit": false,
      "t": 68076.85500000003,
      "d": 0,
      "v": 100
    },
    {
      "midi": 38,
      "hit": false,
      "t": 68076.85500000005,
      "d": 115.38450000000012,
      "v": 100
    },
    {
      "midi": 53,
      "hit": false,
      "t": 68307.624,
      "d": 1846.1520000000019,
      "v": 100
    },
    {
      "midi": 46,
      "hit": false,
      "t": 68307.624,
      "d": 1846.1520000000019,
      "v": 100
    },
    {
      "midi": 53,
      "hit": false,
      "t": 68307.62400000001,
      "d": 0,
      "v": 100
    },
    {
      "midi": 50,
      "hit": false,
      "t": 68307.62400000001,
      "d": 0,
      "v": 100
    },
    {
      "midi": 58,
      "hit": false,
      "t": 68307.62400000001,
      "d": 1846.1520000000019,
      "v": 100
    },
    {
      "midi": 46,
      "hit": false,
      "t": 68307.62400000001,
      "d": 1846.1520000000019,
      "v": 100
    },
    {
      "midi": 34,
      "hit": false,
      "t": 68307.62400000005,
      "d": 230.76900000000023,
      "v": 100
    },
    {
      "midi": 36,
      "hit": false,
      "t": 68315.31630000005,
      "d": 230.76900000000023,
      "v": 120
    },
    {
      "midi": 70,
      "hit": false,
      "t": 68538.39300000003,
      "d": 230.76900000000023,
      "v": 100
    },
    {
      "midi": 46,
      "hit": false,
      "t": 68653.77750000005,
      "d": 0,
      "v": 100
    },
    {
      "midi": 58,
      "hit": false,
      "t": 68769.16200000005,
      "d": 115.38450000000012,
      "v": 100
    },
    {
      "midi": 40,
      "hit": false,
      "t": 68776.85430000005,
      "d": 230.76900000000023,
      "v": 120
    },
    {
      "midi": 67,
      "hit": false,
      "t": 68999.93100000003,
      "d": 230.76900000000023,
      "v": 100
    },
    {
      "midi": 46,
      "hit": false,
      "t": 68999.93100000006,
      "d": 230.76900000000023,
      "v": 100
    },
    {
      "midi": 65,
      "hit": false,
      "t": 69461.46900000003,
      "d": 230.76900000000023,
      "v": 100
    },
    {
      "midi": 34,
      "hit": false,
      "t": 69461.46900000006,
      "d": 230.76900000000023,
      "v": 100
    },
    {
      "midi": 36,
      "hit": false,
      "t": 69469.16130000005,
      "d": 0,
      "v": 120
    },
    {
      "midi": 46,
      "hit": false,
      "t": 69576.85350000006,
      "d": 115.38450000000012,
      "v": 100
    },
    {
      "midi": 58,
      "hit": false,
      "t": 69692.23800000006,
      "d": 115.38450000000012,
      "v": 100
    },
    {
      "midi": 40,
      "hit": false,
      "t": 69699.93030000005,
      "d": 230.76900000000023,
      "v": 120
    },
    {
      "midi": 53,
      "hit": false,
      "t": 69807.62250000006,
      "d": 115.38450000000012,
      "v": 100
    },
    {
      "midi": 67,
      "hit": false,
      "t": 69923.00700000003,
      "d": 230.76900000000023,
      "v": 100
    },
    {
      "midi": 46,
      "hit": false,
      "t": 69923.00700000006,
      "d": 115.38450000000012,
      "v": 100
    },
    {
      "midi": 55,
      "hit": false,
      "t": 70153.776,
      "d": 1846.1520000000019,
      "v": 100
    },
    {
      "midi": 60,
      "hit": false,
      "t": 70153.77600000001,
      "d": 1846.1520000000019,
      "v": 100
    },
    {
      "midi": 52,
      "hit": false,
      "t": 70153.77600000001,
      "d": 1846.1520000000019,
      "v": 100
    },
    {
      "midi": 55,
      "hit": false,
      "t": 70153.77600000001,
      "d": 1846.1520000000019,
      "v": 100
    },
    {
      "midi": 24,
      "hit": false,
      "t": 70153.77600000006,
      "d": 115.38450000000012,
      "v": 100
    },
    {
      "midi": 36,
      "hit": false,
      "t": 70165.31445000005,
      "d": 230.76900000000023,
      "v": 120
    },
    {
      "midi": 60,
      "hit": false,
      "t": 70384.54500000003,
      "d": 230.76900000000023,
      "v": 100
    },
    {
      "midi": 36,
      "hit": false,
      "t": 70499.92950000006,
      "d": 0,
      "v": 100
    },
    {
      "midi": 62,
      "hit": false,
      "t": 70615.31400000003,
      "d": 230.76900000000023,
      "v": 100
    },
    {
      "midi": 48,
      "hit": false,
      "t": 70615.31400000006,
      "d": 115.38450000000012,
      "v": 100
    },
    {
      "midi": 40,
      "hit": false,
      "t": 70626.85245000005,
      "d": 230.76900000000023,
      "v": 120
    },
    {
      "midi": 64,
      "hit": false,
      "t": 70846.08300000003,
      "d": 230.76900000000023,
      "v": 100
    },
    {
      "midi": 36,
      "hit": false,
      "t": 70846.08300000006,
      "d": 115.38450000000012,
      "v": 100
    },
    {
      "midi": 65,
      "hit": false,
      "t": 71076.85200000003,
      "d": 230.76900000000023,
      "v": 100
    },
    {
      "midi": 24,
      "hit": false,
      "t": 71307.62100000006,
      "d": 230.76900000000023,
      "v": 100
    },
    {
      "midi": 36,
      "hit": false,
      "t": 71319.15945000005,
      "d": 0,
      "v": 120
    },
    {
      "midi": 36,
      "hit": false,
      "t": 71423.00550000006,
      "d": 115.38450000000012,
      "v": 100
    },
    {
      "midi": 67,
      "hit": false,
      "t": 71538.39000000003,
      "d": 0,
      "v": 100
    },
    {
      "midi": 48,
      "hit": false,
      "t": 71538.39000000006,
      "d": 115.38450000000012,
      "v": 100
    },
    {
      "midi": 40,
      "hit": false,
      "t": 71549.92845000005,
      "d": 230.76900000000023,
      "v": 120
    },
    {
      "midi": 43,
      "hit": false,
      "t": 71653.77450000006,
      "d": 115.38450000000012,
      "v": 100
    },
    {
      "midi": 67,
      "hit": false,
      "t": 71769.15900000003,
      "d": 0,
      "v": 100
    },
    {
      "midi": 36,
      "hit": false,
      "t": 71769.15900000006,
      "d": 115.38450000000012,
      "v": 100
    },
    {
      "midi": 48,
      "hit": false,
      "t": 71999.928,
      "d": 0,
      "v": 100
    },
    {
      "midi": 43,
      "hit": false,
      "t": 71999.928,
      "d": 1846.1520000000019,
      "v": 100
    },
    {
      "midi": 48,
      "hit": false,
      "t": 71999.92800000001,
      "d": 0,
      "v": 100
    },
    {
      "midi": 53,
      "hit": false,
      "t": 71999.92800000001,
      "d": 1846.1520000000019,
      "v": 100
    },
    {
      "midi": 45,
      "hit": false,
      "t": 71999.92800000001,
      "d": 1846.1520000000019,
      "v": 100
    },
    {
      "midi": 41,
      "hit": false,
      "t": 71999.92800000001,
      "d": 1846.1520000000019,
      "v": 100
    },
    {
      "midi": 17,
      "hit": false,
      "t": 71999.92800000006,
      "d": 115.38450000000012,
      "v": 100
    },
    {
      "midi": 36,
      "hit": false,
      "t": 72015.31260000005,
      "d": 230.76900000000023,
      "v": 120
    },
    {
      "midi": 69,
      "hit": false,
      "t": 72230.69700000003,
      "d": 230.76900000000023,
      "v": 100
    },
    {
      "midi": 29,
      "hit": false,
      "t": 72346.08150000006,
      "d": 0,
      "v": 100
    },
    {
      "midi": 41,
      "hit": false,
      "t": 72461.46600000006,
      "d": 115.38450000000012,
      "v": 100
    },
    {
      "midi": 40,
      "hit": false,
      "t": 72476.85060000005,
      "d": 230.76900000000023,
      "v": 120
    },
    {
      "midi": 65,
      "hit": false,
      "t": 72692.23500000003,
      "d": 230.76900000000023,
      "v": 100
    },
    {
      "midi": 29,
      "hit": false,
      "t": 72692.23500000006,
      "d": 115.38450000000012,
      "v": 100
    },
    {
      "midi": 67,
      "hit": false,
      "t": 73153.77300000003,
      "d": 230.76900000000023,
      "v": 100
    },
    {
      "midi": 17,
      "hit": false,
      "t": 73153.77300000006,
      "d": 115.38450000000012,
      "v": 100
    },
    {
      "midi": 36,
      "hit": false,
      "t": 73169.15760000005,
      "d": 0,
      "v": 120
    },
    {
      "midi": 29,
      "hit": false,
      "t": 73269.15750000006,
      "d": 115.38450000000012,
      "v": 100
    },
    {
      "midi": 41,
      "hit": false,
      "t": 73384.54200000006,
      "d": 115.38450000000012,
      "v": 100
    },
    {
      "midi": 40,
      "hit": false,
      "t": 73399.92660000005,
      "d": 230.76900000000023,
      "v": 120
    },
    {
      "midi": 36,
      "hit": false,
      "t": 73499.92650000006,
      "d": 115.38450000000012,
      "v": 100
    },
    {
      "midi": 29,
      "hit": false,
      "t": 73615.31100000006,
      "d": 115.38450000000012,
      "v": 100
    },
    {
      "midi": 43,
      "hit": false,
      "t": 73846.08000000002,
      "d": 1846.1520000000019,
      "v": 100
    },
    {
      "midi": 50,
      "hit": false,
      "t": 73846.08000000002,
      "d": 1846.1520000000019,
      "v": 100
    },
    {
      "midi": 46,
      "hit": false,
      "t": 73846.08000000002,
      "d": 1846.1520000000019,
      "v": 100
    },
    {
      "midi": 70,
      "hit": false,
      "t": 73846.08000000003,
      "d": 923.0760000000009,
      "v": 100
    },
    {
      "midi": 36,
      "hit": false,
      "t": 73846.08000000005,
      "d": 461.53800000000047,
      "v": 120
    },
    {
      "midi": 19,
      "hit": false,
      "t": 73846.08000000006,
      "d": 115.38450000000012,
      "v": 100
    },
    {
      "midi": 31,
      "hit": false,
      "t": 74192.23350000006,
      "d": 0,
      "v": 100
    },
    {
      "midi": 40,
      "hit": false,
      "t": 74307.61800000005,
      "d": 461.53800000000047,
      "v": 120
    },
    {
      "midi": 43,
      "hit": false,
      "t": 74307.61800000006,
      "d": 115.38450000000012,
      "v": 100
    },
    {
      "midi": 31,
      "hit": false,
      "t": 74538.38700000006,
      "d": 115.38450000000012,
      "v": 100
    },
    {
      "midi": 69,
      "hit": false,
      "t": 74769.15600000003,
      "d": 230.76900000000023,
      "v": 100
    },
    {
      "midi": 36,
      "hit": false,
      "t": 74769.15600000005,
      "d": 461.53800000000047,
      "v": 120
    },
    {
      "midi": 19,
      "hit": false,
      "t": 74999.92500000006,
      "d": 115.38450000000012,
      "v": 100
    },
    {
      "midi": 31,
      "hit": false,
      "t": 75115.30950000006,
      "d": 115.38450000000012,
      "v": 100
    },
    {
      "midi": 65,
      "hit": false,
      "t": 75230.69400000003,
      "d": 230.76900000000023,
      "v": 100
    },
    {
      "midi": 40,
      "hit": false,
      "t": 75230.69400000005,
      "d": 461.53800000000047,
      "v": 120
    },
    {
      "midi": 43,
      "hit": false,
      "t": 75230.69400000006,
      "d": 115.38450000000012,
      "v": 100
    },
    {
      "midi": 38,
      "hit": false,
      "t": 75346.07850000006,
      "d": 115.38450000000012,
      "v": 100
    },
    {
      "midi": 67,
      "hit": false,
      "t": 75461.46300000003,
      "d": 230.76900000000023,
      "v": 100
    },
    {
      "midi": 31,
      "hit": false,
      "t": 75461.46300000006,
      "d": 115.38450000000012,
      "v": 100
    },
    {
      "midi": 55,
      "hit": false,
      "t": 75692.23200000002,
      "d": 0,
      "v": 100
    },
    {
      "midi": 60,
      "hit": false,
      "t": 75692.23200000002,
      "d": 1846.1520000000019,
      "v": 100
    },
    {
      "midi": 36,
      "hit": false,
      "t": 75692.23200000005,
      "d": 461.53800000000047,
      "v": 120
    },
    {
      "midi": 24,
      "hit": false,
      "t": 75692.23200000006,
      "d": 115.38450000000012,
      "v": 100
    },
    {
      "midi": 70,
      "hit": false,
      "t": 75923.001,
      "d": 230.76900000000023,
      "v": 100
    },
    {
      "midi": 36,
      "hit": false,
      "t": 76038.38550000006,
      "d": 0,
      "v": 100
    },
    {
      "midi": 65,
      "hit": false,
      "t": 76153.77,
      "d": 0,
      "v": 100
    },
    {
      "midi": 69,
      "hit": false,
      "t": 76153.77,
      "d": 230.76900000000023,
      "v": 100
    },
    {
      "midi": 40,
      "hit": false,
      "t": 76153.77000000005,
      "d": 461.53800000000047,
      "v": 120
    },
    {
      "midi": 48,
      "hit": false,
      "t": 76153.77000000006,
      "d": 115.38450000000012,
      "v": 100
    },
    {
      "midi": 36,
      "hit": false,
      "t": 76384.53900000006,
      "d": 115.38450000000012,
      "v": 100
    },
    {
      "midi": 65,
      "hit": false,
      "t": 76615.308,
      "d": 230.76900000000023,
      "v": 100
    },
    {
      "midi": 70,
      "hit": false,
      "t": 76615.308,
      "d": 230.76900000000023,
      "v": 100
    },
    {
      "midi": 36,
      "hit": false,
      "t": 76615.30800000005,
      "d": 461.53800000000047,
      "v": 120
    },
    {
      "midi": 24,
      "hit": false,
      "t": 76846.07700000006,
      "d": 230.76900000000023,
      "v": 100
    },
    {
      "midi": 36,
      "hit": false,
      "t": 76961.46150000006,
      "d": 115.38450000000012,
      "v": 100
    },
    {
      "midi": 70,
      "hit": false,
      "t": 77076.846,
      "d": 230.76900000000023,
      "v": 100
    },
    {
      "midi": 40,
      "hit": false,
      "t": 77076.84600000005,
      "d": 461.53800000000047,
      "v": 120
    },
    {
      "midi": 48,
      "hit": false,
      "t": 77076.84600000006,
      "d": 115.38450000000012,
      "v": 100
    },
    {
      "midi": 43,
      "hit": false,
      "t": 77192.23050000006,
      "d": 115.38450000000012,
      "v": 100
    },
    {
      "midi": 65,
      "hit": false,
      "t": 77307.615,
      "d": 0,
      "v": 100
    },
    {
      "midi": 69,
      "hit": false,
      "t": 77307.615,
      "d": 230.76900000000023,
      "v": 100
    },
    {
      "midi": 72,
      "hit": false,
      "t": 77307.61500000003,
      "d": 230.76900000000023,
      "v": 100
    },
    {
      "midi": 36,
      "hit": false,
      "t": 77307.61500000006,
      "d": 115.38450000000012,
      "v": 100
    },
    {
      "midi": 52,
      "hit": false,
      "t": 77538.38400000002,
      "d": 0,
      "v": 100
    },
    {
      "midi": 48,
      "hit": false,
      "t": 77538.38400000002,
      "d": 0,
      "v": 100
    },
    {
      "midi": 57,
      "hit": false,
      "t": 77538.38400000002,
      "d": 1846.1520000000019,
      "v": 100
    },
    {
      "midi": 45,
      "hit": false,
      "t": 77538.38400000002,
      "d": 1846.1520000000019,
      "v": 100
    },
    {
      "midi": 21,
      "hit": false,
      "t": 77538.38400000006,
      "d": 115.38450000000012,
      "v": 100
    },
    {
      "midi": 36,
      "hit": false,
      "t": 77542.23015000005,
      "d": 461.53800000000047,
      "v": 120
    },
    {
      "midi": 70,
      "hit": false,
      "t": 77769.15300000003,
      "d": 230.76900000000023,
      "v": 100
    },
    {
      "midi": 33,
      "hit": false,
      "t": 77884.53750000006,
      "d": 0,
      "v": 100
    },
    {
      "midi": 45,
      "hit": false,
      "t": 77999.92200000006,
      "d": 115.38450000000012,
      "v": 100
    },
    {
      "midi": 40,
      "hit": false,
      "t": 78003.76815000005,
      "d": 461.53800000000047,
      "v": 120
    },
    {
      "midi": 33,
      "hit": false,
      "t": 78230.69100000006,
      "d": 115.38450000000012,
      "v": 100
    },
    {
      "midi": 69,
      "hit": false,
      "t": 78461.46000000004,
      "d": 0,
      "v": 100
    },
    {
      "midi": 36,
      "hit": false,
      "t": 78465.30615000005,
      "d": 461.53800000000047,
      "v": 120
    },
    {
      "midi": 21,
      "hit": false,
      "t": 78692.22900000006,
      "d": 230.76900000000023,
      "v": 100
    },
    {
      "midi": 33,
      "hit": false,
      "t": 78807.61350000006,
      "d": 115.38450000000012,
      "v": 100
    },
    {
      "midi": 45,
      "hit": false,
      "t": 78922.99800000007,
      "d": 115.38450000000012,
      "v": 100
    },
    {
      "midi": 40,
      "hit": false,
      "t": 78926.84415000005,
      "d": 461.53800000000047,
      "v": 120
    },
    {
      "midi": 40,
      "hit": false,
      "t": 79038.38250000007,
      "d": 115.38450000000012,
      "v": 100
    },
    {
      "midi": 67,
      "hit": false,
      "t": 79153.76700000004,
      "d": 0,
      "v": 100
    },
    {
      "midi": 33,
      "hit": false,
      "t": 79153.76700000007,
      "d": 115.38450000000012,
      "v": 100
    },
    {
      "midi": 58,
      "hit": false,
      "t": 79384.53600000002,
      "d": 1846.1520000000019,
      "v": 100
    },
    {
      "midi": 53,
      "hit": false,
      "t": 79384.53600000002,
      "d": 1846.1520000000019,
      "v": 100
    },
    {
      "midi": 34,
      "hit": false,
      "t": 79384.53600000007,
      "d": 230.76900000000023,
      "v": 100
    },
    {
      "midi": 36,
      "hit": false,
      "t": 79392.22830000005,
      "d": 461.53800000000047,
      "v": 120
    },
    {
      "midi": 46,
      "hit": false,
      "t": 79730.68950000007,
      "d": 0,
      "v": 100
    },
    {
      "midi": 69,
      "hit": false,
      "t": 79846.07400000004,
      "d": 0,
      "v": 100
    },
    {
      "midi": 58,
      "hit": false,
      "t": 79846.07400000007,
      "d": 115.38450000000012,
      "v": 100
    },
    {
      "midi": 40,
      "hit": false,
      "t": 79853.76630000005,
      "d": 461.53800000000047,
      "v": 120
    },
    {
      "midi": 46,
      "hit": false,
      "t": 80076.84300000007,
      "d": 230.76900000000023,
      "v": 100
    },
    {
      "midi": 36,
      "hit": false,
      "t": 80315.30430000005,
      "d": 461.53800000000047,
      "v": 120
    },
    {
      "midi": 34,
      "hit": false,
      "t": 80538.38100000007,
      "d": 230.76900000000023,
      "v": 100
    },
    {
      "midi": 46,
      "hit": false,
      "t": 80653.76550000007,
      "d": 115.38450000000012,
      "v": 100
    },
    {
      "midi": 58,
      "hit": false,
      "t": 80769.15000000007,
      "d": 115.38450000000012,
      "v": 100
    },
    {
      "midi": 40,
      "hit": false,
      "t": 80776.84230000005,
      "d": 461.53800000000047,
      "v": 120
    },
    {
      "midi": 53,
      "hit": false,
      "t": 80884.53450000007,
      "d": 115.38450000000012,
      "v": 100
    },
    {
      "midi": 46,
      "hit": false,
      "t": 80999.91900000007,
      "d": 115.38450000000012,
      "v": 100
    },
    {
      "midi": 50,
      "hit": false,
      "t": 81230.68800000002,
      "d": 0,
      "v": 100
    },
    {
      "midi": 46,
      "hit": false,
      "t": 81230.68800000002,
      "d": 0,
      "v": 100
    },
    {
      "midi": 43,
      "hit": false,
      "t": 81230.68800000002,
      "d": 1846.1520000000019,
      "v": 100
    },
    {
      "midi": 70,
      "hit": false,
      "t": 81230.68800000004,
      "d": 923.0760000000009,
      "v": 100
    },
    {
      "midi": 19,
      "hit": false,
      "t": 81230.68800000007,
      "d": 115.38450000000012,
      "v": 100
    },
    {
      "midi": 36,
      "hit": false,
      "t": 81242.22645000005,
      "d": 461.53800000000047,
      "v": 120
    },
    {
      "midi": 31,
      "hit": false,
      "t": 81576.84150000007,
      "d": 0,
      "v": 100
    },
    {
      "midi": 43,
      "hit": false,
      "t": 81692.22600000007,
      "d": 115.38450000000012,
      "v": 100
    },
    {
      "midi": 40,
      "hit": false,
      "t": 81703.76445000005,
      "d": 461.53800000000047,
      "v": 120
    },
    {
      "midi": 31,
      "hit": false,
      "t": 81922.99500000007,
      "d": 115.38450000000012,
      "v": 100
    },
    {
      "midi": 69,
      "hit": false,
      "t": 82153.76400000004,
      "d": 230.76900000000023,
      "v": 100
    },
    {
      "midi": 36,
      "hit": false,
      "t": 82165.30245000005,
      "d": 461.53800000000047,
      "v": 120
    },
    {
      "midi": 19,
      "hit": false,
      "t": 82384.53300000007,
      "d": 115.38450000000012,
      "v": 100
    },
    {
      "midi": 31,
      "hit": false,
      "t": 82499.91750000007,
      "d": 115.38450000000012,
      "v": 100
    },
    {
      "midi": 65,
      "hit": false,
      "t": 82615.30200000004,
      "d": 230.76900000000023,
      "v": 100
    },
    {
      "midi": 43,
      "hit": false,
      "t": 82615.30200000007,
      "d": 115.38450000000012,
      "v": 100
    },
    {
      "midi": 40,
      "hit": false,
      "t": 82626.84045000005,
      "d": 461.53800000000047,
      "v": 120
    },
    {
      "midi": 38,
      "hit": false,
      "t": 82730.68650000007,
      "d": 115.38450000000012,
      "v": 100
    },
    {
      "midi": 67,
      "hit": false,
      "t": 82846.07100000004,
      "d": 230.76900000000023,
      "v": 100
    },
    {
      "midi": 31,
      "hit": false,
      "t": 82846.07100000007,
      "d": 115.38450000000012,
      "v": 100
    },
    {
      "midi": 55,
      "hit": false,
      "t": 83076.84000000003,
      "d": 0,
      "v": 100
    },
    {
      "midi": 60,
      "hit": false,
      "t": 83076.84000000003,
      "d": 1846.1520000000019,
      "v": 100
    },
    {
      "midi": 24,
      "hit": false,
      "t": 83076.84000000007,
      "d": 115.38450000000012,
      "v": 100
    },
    {
      "midi": 36,
      "hit": false,
      "t": 83092.22460000005,
      "d": 461.53800000000047,
      "v": 120
    },
    {
      "midi": 70,
      "hit": false,
      "t": 83307.60900000001,
      "d": 230.76900000000023,
      "v": 100
    },
    {
      "midi": 36,
      "hit": false,
      "t": 83422.99350000007,
      "d": 0,
      "v": 100
    },
    {
      "midi": 65,
      "hit": false,
      "t": 83538.37800000001,
      "d": 0,
      "v": 100
    },
    {
      "midi": 69,
      "hit": false,
      "t": 83538.37800000001,
      "d": 230.76900000000023,
      "v": 100
    },
    {
      "midi": 48,
      "hit": false,
      "t": 83538.37800000007,
      "d": 115.38450000000012,
      "v": 100
    },
    {
      "midi": 40,
      "hit": false,
      "t": 83553.76260000005,
      "d": 461.53800000000047,
      "v": 120
    },
    {
      "midi": 36,
      "hit": false,
      "t": 83769.14700000007,
      "d": 115.38450000000012,
      "v": 100
    },
    {
      "midi": 65,
      "hit": false,
      "t": 83999.91600000001,
      "d": 230.76900000000023,
      "v": 100
    },
    {
      "midi": 70,
      "hit": false,
      "t": 83999.91600000001,
      "d": 230.76900000000023,
      "v": 100
    },
    {
      "midi": 36,
      "hit": false,
      "t": 84015.30060000005,
      "d": 461.53800000000047,
      "v": 120
    },
    {
      "midi": 24,
      "hit": false,
      "t": 84230.68500000007,
      "d": 230.76900000000023,
      "v": 100
    },
    {
      "midi": 36,
      "hit": false,
      "t": 84346.06950000007,
      "d": 115.38450000000012,
      "v": 100
    },
    {
      "midi": 70,
      "hit": false,
      "t": 84461.45400000001,
      "d": 230.76900000000023,
      "v": 100
    },
    {
      "midi": 48,
      "hit": false,
      "t": 84461.45400000007,
      "d": 115.38450000000012,
      "v": 100
    },
    {
      "midi": 40,
      "hit": false,
      "t": 84476.83860000005,
      "d": 461.53800000000047,
      "v": 120
    },
    {
      "midi": 43,
      "hit": false,
      "t": 84576.83850000007,
      "d": 115.38450000000012,
      "v": 100
    },
    {
      "midi": 65,
      "hit": false,
      "t": 84692.22300000001,
      "d": 0,
      "v": 100
    },
    {
      "midi": 69,
      "hit": false,
      "t": 84692.22300000001,
      "d": 230.76900000000023,
      "v": 100
    },
    {
      "midi": 72,
      "hit": false,
      "t": 84692.22300000004,
      "d": 230.76900000000023,
      "v": 100
    },
    {
      "midi": 36,
      "hit": false,
      "t": 84692.22300000007,
      "d": 115.38450000000012,
      "v": 100
    },
    {
      "midi": 52,
      "hit": false,
      "t": 84922.99200000003,
      "d": 0,
      "v": 100
    },
    {
      "midi": 48,
      "hit": false,
      "t": 84922.99200000003,
      "d": 0,
      "v": 100
    },
    {
      "midi": 57,
      "hit": false,
      "t": 84922.99200000003,
      "d": 1846.1520000000019,
      "v": 100
    },
    {
      "midi": 45,
      "hit": false,
      "t": 84922.99200000003,
      "d": 1846.1520000000019,
      "v": 100
    },
    {
      "midi": 21,
      "hit": false,
      "t": 84922.99200000007,
      "d": 115.38450000000012,
      "v": 100
    },
    {
      "midi": 36,
      "hit": false,
      "t": 84942.22275000004,
      "d": 461.53800000000047,
      "v": 120
    },
    {
      "midi": 70,
      "hit": false,
      "t": 85153.76100000004,
      "d": 230.76900000000023,
      "v": 100
    },
    {
      "midi": 33,
      "hit": false,
      "t": 85269.14550000007,
      "d": 0,
      "v": 100
    },
    {
      "midi": 45,
      "hit": false,
      "t": 85384.53000000007,
      "d": 115.38450000000012,
      "v": 100
    },
    {
      "midi": 40,
      "hit": false,
      "t": 85403.76075000004,
      "d": 461.53800000000047,
      "v": 120
    },
    {
      "midi": 33,
      "hit": false,
      "t": 85615.29900000007,
      "d": 115.38450000000012,
      "v": 100
    },
    {
      "midi": 69,
      "hit": false,
      "t": 85846.06800000004,
      "d": 0,
      "v": 100
    },
    {
      "midi": 36,
      "hit": false,
      "t": 85865.29875000005,
      "d": 461.53800000000047,
      "v": 120
    },
    {
      "midi": 21,
      "hit": false,
      "t": 86076.83700000007,
      "d": 230.76900000000023,
      "v": 100
    },
    {
      "midi": 33,
      "hit": false,
      "t": 86192.22150000007,
      "d": 115.38450000000012,
      "v": 100
    },
    {
      "midi": 45,
      "hit": false,
      "t": 86307.60600000007,
      "d": 115.38450000000012,
      "v": 100
    },
    {
      "midi": 40,
      "hit": false,
      "t": 86326.83675000005,
      "d": 461.53800000000047,
      "v": 120
    },
    {
      "midi": 40,
      "hit": false,
      "t": 86422.99050000007,
      "d": 115.38450000000012,
      "v": 100
    },
    {
      "midi": 67,
      "hit": false,
      "t": 86538.37500000004,
      "d": 0,
      "v": 100
    },
    {
      "midi": 33,
      "hit": false,
      "t": 86538.37500000007,
      "d": 115.38450000000012,
      "v": 100
    },
    {
      "midi": 48,
      "hit": false,
      "t": 86769.14400000003,
      "d": 0,
      "v": 100
    },
    {
      "midi": 52,
      "hit": false,
      "t": 86769.14400000003,
      "d": 0,
      "v": 100
    },
    {
      "midi": 60,
      "hit": false,
      "t": 86769.14400000003,
      "d": 1846.1520000000019,
      "v": 100
    },
    {
      "midi": 55,
      "hit": false,
      "t": 86769.14400000003,
      "d": 1846.1520000000019,
      "v": 100
    },
    {
      "midi": 24,
      "hit": false,
      "t": 86769.14400000007,
      "d": 115.38450000000012,
      "v": 100
    },
    {
      "midi": 36,
      "hit": false,
      "t": 86792.22090000004,
      "d": 461.53800000000047,
      "v": 120
    },
    {
      "midi": 36,
      "hit": false,
      "t": 87115.29750000007,
      "d": 0,
      "v": 100
    },
    {
      "midi": 69,
      "hit": false,
      "t": 87230.68200000004,
      "d": 0,
      "v": 100
    },
    {
      "midi": 48,
      "hit": false,
      "t": 87230.68200000007,
      "d": 115.38450000000012,
      "v": 100
    },
    {
      "midi": 40,
      "hit": false,
      "t": 87253.75890000004,
      "d": 461.53800000000047,
      "v": 120
    },
    {
      "midi": 36,
      "hit": false,
      "t": 87461.45100000007,
      "d": 115.38450000000012,
      "v": 100
    },
    {
      "midi": 36,
      "hit": false,
      "t": 87715.29690000004,
      "d": 461.53800000000047,
      "v": 120
    },
    {
      "midi": 62,
      "hit": false,
      "t": 87922.98900000005,
      "d": 230.76900000000023,
      "v": 100
    },
    {
      "midi": 24,
      "hit": false,
      "t": 87922.98900000007,
      "d": 230.76900000000023,
      "v": 100
    },
    {
      "midi": 36,
      "hit": false,
      "t": 88038.37350000007,
      "d": 115.38450000000012,
      "v": 100
    },
    {
      "midi": 60,
      "hit": false,
      "t": 88153.75800000005,
      "d": 230.76900000000023,
      "v": 100
    },
    {
      "midi": 48,
      "hit": false,
      "t": 88153.75800000007,
      "d": 115.38450000000012,
      "v": 100
    },
    {
      "midi": 43,
      "hit": false,
      "t": 88269.14250000007,
      "d": 115.38450000000012,
      "v": 100
    },
    {
      "midi": 62,
      "hit": false,
      "t": 88384.52700000005,
      "d": 230.76900000000023,
      "v": 100
    },
    {
      "midi": 36,
      "hit": false,
      "t": 88384.52700000007,
      "d": 115.38450000000012,
      "v": 100
    },
    {
      "midi": 69,
      "hit": false,
      "t": 88615.29600000002,
      "d": 461.53800000000047,
      "v": 100
    },
    {
      "midi": 26,
      "hit": false,
      "t": 88615.29600000007,
      "d": 230.76900000000023,
      "v": 100
    },
    {
      "midi": 40,
      "hit": false,
      "t": 88634.52675000005,
      "d": 3.8461499999975786,
      "v": 100
    },
    {
      "midi": 40,
      "hit": false,
      "t": 88865.29575000005,
      "d": 0,
      "v": 100
    },
    {
      "midi": 38,
      "hit": false,
      "t": 88961.44950000008,
      "d": 0,
      "v": 100
    },
    {
      "midi": 40,
      "hit": false,
      "t": 88980.68025000005,
      "d": 0,
      "v": 100
    },
    {
      "midi": 50,
      "hit": false,
      "t": 89076.83400000008,
      "d": 115.38450000000012,
      "v": 100
    },
    {
      "midi": 40,
      "hit": false,
      "t": 89096.06475000005,
      "d": 0,
      "v": 100
    },
    {
      "midi": 70,
      "hit": false,
      "t": 89307.60300000002,
      "d": 230.76900000000023,
      "v": 100
    },
    {
      "midi": 38,
      "hit": false,
      "t": 89307.60300000008,
      "d": 115.38450000000012,
      "v": 100
    },
    {
      "midi": 40,
      "hit": false,
      "t": 89442.21825000003,
      "d": 0,
      "v": 100
    },
    {
      "midi": 40,
      "hit": false,
      "t": 89557.60275000003,
      "d": 0,
      "v": 100
    },
    {
      "midi": 26,
      "hit": false,
      "t": 89769.14100000008,
      "d": 230.76900000000023,
      "v": 100
    },
    {
      "midi": 40,
      "hit": false,
      "t": 89788.37175000003,
      "d": 57.69224999999278,
      "v": 100
    },
    {
      "midi": 38,
      "hit": false,
      "t": 89884.52550000008,
      "d": 115.38450000000012,
      "v": 100
    },
    {
      "midi": 72,
      "hit": false,
      "t": 89999.91000000002,
      "d": 230.76900000000023,
      "v": 100
    },
    {
      "midi": 50,
      "hit": false,
      "t": 89999.91000000008,
      "d": 115.38450000000012,
      "v": 100
    },
    {
      "midi": 40,
      "hit": false,
      "t": 90019.14075000002,
      "d": 0,
      "v": 100
    },
    {
      "midi": 45,
      "hit": false,
      "t": 90115.29450000008,
      "d": 115.38450000000012,
      "v": 100
    },
    {
      "midi": 40,
      "hit": false,
      "t": 90134.52525000002,
      "d": 0,
      "v": 100
    },
    {
      "midi": 38,
      "hit": false,
      "t": 90230.67900000008,
      "d": 115.38450000000012,
      "v": 100
    },
    {
      "midi": 40,
      "hit": false,
      "t": 90249.90975000002,
      "d": 0,
      "v": 100
    },
    {
      "midi": 57,
      "hit": false,
      "t": 90461.44800000003,
      "d": 0,
      "v": 100
    },
    {
      "midi": 53,
      "hit": false,
      "t": 90461.44800000003,
      "d": 0,
      "v": 100
    },
    {
      "midi": 50,
      "hit": false,
      "t": 90461.44800000003,
      "d": 0,
      "v": 100
    },
    {
      "midi": 62,
      "hit": false,
      "t": 90461.44800000003,
      "d": 0,
      "v": 100
    },
    {
      "midi": 26,
      "hit": false,
      "t": 90461.44800000008,
      "d": 230.76900000000023,
      "v": 100
    },
    {
      "midi": 70,
      "hit": false,
      "t": 90692.21700000002,
      "d": 230.76900000000023,
      "v": 100
    },
    {
      "midi": 40,
      "hit": false,
      "t": 90715.29390000002,
      "d": 0,
      "v": 100
    },
    {
      "midi": 38,
      "hit": false,
      "t": 90807.60150000008,
      "d": 0,
      "v": 100
    },
    {
      "midi": 40,
      "hit": false,
      "t": 90830.67840000002,
      "d": 0,
      "v": 100
    },
    {
      "midi": 50,
      "hit": false,
      "t": 90922.98600000008,
      "d": 115.38450000000012,
      "v": 100
    },
    {
      "midi": 40,
      "hit": false,
      "t": 90946.06290000002,
      "d": 0,
      "v": 100
    },
    {
      "midi": 38,
      "hit": false,
      "t": 91153.75500000008,
      "d": 115.38450000000012,
      "v": 100
    },
    {
      "midi": 40,
      "hit": false,
      "t": 91292.2164,
      "d": 0,
      "v": 100
    },
    {
      "midi": 69,
      "hit": false,
      "t": 91384.52400000002,
      "d": 230.76900000000023,
      "v": 100
    },
    {
      "midi": 40,
      "hit": false,
      "t": 91407.6009,
      "d": 0,
      "v": 100
    },
    {
      "midi": 26,
      "hit": false,
      "t": 91615.29300000008,
      "d": 230.76900000000023,
      "v": 100
    },
    {
      "midi": 40,
      "hit": false,
      "t": 91638.3699,
      "d": 57.69224999999278,
      "v": 100
    },
    {
      "midi": 38,
      "hit": false,
      "t": 91730.67750000008,
      "d": 115.38450000000012,
      "v": 100
    },
    {
      "midi": 72,
      "hit": false,
      "t": 91846.06200000002,
      "d": 230.76900000000023,
      "v": 100
    },
    {
      "midi": 50,
      "hit": false,
      "t": 91846.06200000008,
      "d": 115.38450000000012,
      "v": 100
    },
    {
      "midi": 40,
      "hit": false,
      "t": 91869.13889999999,
      "d": 0,
      "v": 100
    },
    {
      "midi": 45,
      "hit": false,
      "t": 91961.44650000008,
      "d": 115.38450000000012,
      "v": 100
    },
    {
      "midi": 40,
      "hit": false,
      "t": 91984.52339999999,
      "d": 0,
      "v": 100
    },
    {
      "midi": 38,
      "hit": false,
      "t": 92076.83100000008,
      "d": 115.38450000000012,
      "v": 100
    },
    {
      "midi": 40,
      "hit": false,
      "t": 92099.90789999999,
      "d": 0,
      "v": 100
    },
    {
      "midi": 67,
      "hit": false,
      "t": 92307.60000000002,
      "d": 230.76900000000023,
      "v": 100
    },
    {
      "midi": 24,
      "hit": false,
      "t": 92307.60000000008,
      "d": 115.38450000000012,
      "v": 100
    },
    {
      "midi": 40,
      "hit": false,
      "t": 92334.52304999999,
      "d": 226.92285000000265,
      "v": 100
    },
    {
      "midi": 40,
      "hit": false,
      "t": 92565.29204999999,
      "d": 0,
      "v": 100
    },
    {
      "midi": 36,
      "hit": false,
      "t": 92653.75350000008,
      "d": 0,
      "v": 100
    },
    {
      "midi": 40,
      "hit": false,
      "t": 92680.67654999999,
      "d": 0,
      "v": 100
    },
    {
      "midi": 48,
      "hit": false,
      "t": 92769.13800000008,
      "d": 115.38450000000012,
      "v": 100
    },
    {
      "midi": 40,
      "hit": false,
      "t": 92796.06104999999,
      "d": 0,
      "v": 100
    },
    {
      "midi": 69,
      "hit": false,
      "t": 92999.90700000002,
      "d": 230.76900000000023,
      "v": 100
    },
    {
      "midi": 36,
      "hit": false,
      "t": 92999.90700000008,
      "d": 115.38450000000012,
      "v": 100
    },
    {
      "midi": 40,
      "hit": false,
      "t": 93142.21454999998,
      "d": 0,
      "v": 100
    },
    {
      "midi": 40,
      "hit": false,
      "t": 93257.59904999998,
      "d": 0,
      "v": 100
    },
    {
      "midi": 24,
      "hit": false,
      "t": 93461.44500000008,
      "d": 230.76900000000023,
      "v": 100
    },
    {
      "midi": 40,
      "hit": false,
      "t": 93488.36804999998,
      "d": 57.69224999999278,
      "v": 100
    },
    {
      "midi": 36,
      "hit": false,
      "t": 93576.82950000008,
      "d": 115.38450000000012,
      "v": 100
    },
    {
      "midi": 72,
      "hit": false,
      "t": 93692.21400000002,
      "d": 230.76900000000023,
      "v": 100
    },
    {
      "midi": 48,
      "hit": false,
      "t": 93692.21400000008,
      "d": 115.38450000000012,
      "v": 100
    },
    {
      "midi": 40,
      "hit": false,
      "t": 93719.13704999996,
      "d": 0,
      "v": 100
    },
    {
      "midi": 43,
      "hit": false,
      "t": 93807.59850000008,
      "d": 115.38450000000012,
      "v": 100
    },
    {
      "midi": 40,
      "hit": false,
      "t": 93834.52154999996,
      "d": 0,
      "v": 100
    },
    {
      "midi": 36,
      "hit": false,
      "t": 93922.98300000008,
      "d": 115.38450000000012,
      "v": 100
    },
    {
      "midi": 40,
      "hit": false,
      "t": 93949.90604999996,
      "d": 0,
      "v": 100
    },
    {
      "midi": 52,
      "hit": false,
      "t": 94153.75200000004,
      "d": 0,
      "v": 100
    },
    {
      "midi": 55,
      "hit": false,
      "t": 94153.75200000004,
      "d": 0,
      "v": 100
    },
    {
      "midi": 48,
      "hit": false,
      "t": 94153.75200000004,
      "d": 0,
      "v": 100
    },
    {
      "midi": 60,
      "hit": false,
      "t": 94153.75200000004,
      "d": 0,
      "v": 100
    },
    {
      "midi": 24,
      "hit": false,
      "t": 94153.75200000008,
      "d": 115.38450000000012,
      "v": 100
    },
    {
      "midi": 40,
      "hit": false,
      "t": 94184.52119999996,
      "d": 226.92285000000265,
      "v": 100
    },
    {
      "midi": 70,
      "hit": false,
      "t": 94384.52100000002,
      "d": 230.76900000000023,
      "v": 100
    },
    {
      "midi": 40,
      "hit": false,
      "t": 94415.29019999996,
      "d": 0,
      "v": 100
    },
    {
      "midi": 36,
      "hit": false,
      "t": 94499.90550000008,
      "d": 0,
      "v": 100
    },
    {
      "midi": 40,
      "hit": false,
      "t": 94530.67469999996,
      "d": 0,
      "v": 100
    },
    {
      "midi": 48,
      "hit": false,
      "t": 94615.29000000008,
      "d": 115.38450000000012,
      "v": 100
    },
    {
      "midi": 40,
      "hit": false,
      "t": 94646.05919999996,
      "d": 0,
      "v": 100
    },
    {
      "midi": 36,
      "hit": false,
      "t": 94846.05900000008,
      "d": 115.38450000000012,
      "v": 100
    },
    {
      "midi": 40,
      "hit": false,
      "t": 94992.21269999995,
      "d": 0,
      "v": 100
    },
    {
      "midi": 69,
      "hit": false,
      "t": 95076.82800000002,
      "d": 230.76900000000023,
      "v": 100
    },
    {
      "midi": 40,
      "hit": false,
      "t": 95107.59719999995,
      "d": 0,
      "v": 100
    },
    {
      "midi": 24,
      "hit": false,
      "t": 95307.59700000008,
      "d": 230.76900000000023,
      "v": 100
    },
    {
      "midi": 40,
      "hit": false,
      "t": 95338.36619999995,
      "d": 57.69224999999278,
      "v": 100
    },
    {
      "midi": 36,
      "hit": false,
      "t": 95422.98150000008,
      "d": 115.38450000000012,
      "v": 100
    },
    {
      "midi": 67,
      "hit": false,
      "t": 95538.36600000002,
      "d": 230.76900000000023,
      "v": 100
    },
    {
      "midi": 48,
      "hit": false,
      "t": 95538.36600000008,
      "d": 115.38450000000012,
      "v": 100
    },
    {
      "midi": 40,
      "hit": false,
      "t": 95569.13519999993,
      "d": 0,
      "v": 100
    },
    {
      "midi": 43,
      "hit": false,
      "t": 95653.75050000008,
      "d": 115.38450000000012,
      "v": 100
    },
    {
      "midi": 40,
      "hit": false,
      "t": 95684.51969999993,
      "d": 0,
      "v": 100
    },
    {
      "midi": 36,
      "hit": false,
      "t": 95769.13500000008,
      "d": 115.38450000000012,
      "v": 100
    },
    {
      "midi": 40,
      "hit": false,
      "t": 95799.90419999993,
      "d": 0,
      "v": 100
    },
    {
      "midi": 65,
      "hit": false,
      "t": 95999.90400000002,
      "d": 230.76900000000023,
      "v": 100
    },
    {
      "midi": 34,
      "hit": false,
      "t": 95999.90400000008,
      "d": 230.76900000000023,
      "v": 100
    },
    {
      "midi": 40,
      "hit": false,
      "t": 96030.67319999993,
      "d": 226.92285000000265,
      "v": 100
    },
    {
      "midi": 40,
      "hit": false,
      "t": 96261.44219999993,
      "d": 0,
      "v": 100
    },
    {
      "midi": 46,
      "hit": false,
      "t": 96346.05750000008,
      "d": 0,
      "v": 100
    },
    {
      "midi": 40,
      "hit": false,
      "t": 96376.82669999993,
      "d": 0,
      "v": 100
    },
    {
      "midi": 58,
      "hit": false,
      "t": 96461.44200000008,
      "d": 115.38450000000012,
      "v": 100
    },
    {
      "midi": 40,
      "hit": false,
      "t": 96492.21119999993,
      "d": 0,
      "v": 100
    },
    {
      "midi": 67,
      "hit": false,
      "t": 96692.21100000002,
      "d": 230.76900000000023,
      "v": 100
    },
    {
      "midi": 46,
      "hit": false,
      "t": 96692.21100000008,
      "d": 230.76900000000023,
      "v": 100
    },
    {
      "midi": 40,
      "hit": false,
      "t": 96838.36469999992,
      "d": 0,
      "v": 100
    },
    {
      "midi": 40,
      "hit": false,
      "t": 96953.74919999992,
      "d": 0,
      "v": 100
    },
    {
      "midi": 34,
      "hit": false,
      "t": 97153.74900000008,
      "d": 230.76900000000023,
      "v": 100
    },
    {
      "midi": 40,
      "hit": false,
      "t": 97184.51819999992,
      "d": 57.69224999999278,
      "v": 100
    },
    {
      "midi": 46,
      "hit": false,
      "t": 97269.13350000008,
      "d": 115.38450000000012,
      "v": 100
    },
    {
      "midi": 70,
      "hit": false,
      "t": 97384.51800000003,
      "d": 230.76900000000023,
      "v": 100
    },
    {
      "midi": 58,
      "hit": false,
      "t": 97384.51800000008,
      "d": 115.38450000000012,
      "v": 100
    },
    {
      "midi": 40,
      "hit": false,
      "t": 97415.2871999999,
      "d": 0,
      "v": 100
    },
    {
      "midi": 53,
      "hit": false,
      "t": 97499.90250000008,
      "d": 115.38450000000012,
      "v": 100
    },
    {
      "midi": 40,
      "hit": false,
      "t": 97530.6716999999,
      "d": 0,
      "v": 100
    },
    {
      "midi": 46,
      "hit": false,
      "t": 97615.28700000008,
      "d": 115.38450000000012,
      "v": 100
    },
    {
      "midi": 40,
      "hit": false,
      "t": 97646.0561999999,
      "d": 0,
      "v": 100
    },
    {
      "midi": 58,
      "hit": false,
      "t": 97846.05600000004,
      "d": 0,
      "v": 100
    },
    {
      "midi": 53,
      "hit": false,
      "t": 97846.05600000004,
      "d": 0,
      "v": 100
    },
    {
      "midi": 46,
      "hit": false,
      "t": 97846.05600000004,
      "d": 0,
      "v": 100
    },
    {
      "midi": 50,
      "hit": false,
      "t": 97846.05600000004,
      "d": 0,
      "v": 100
    },
    {
      "midi": 34,
      "hit": false,
      "t": 97846.05600000008,
      "d": 230.76900000000023,
      "v": 100
    },
    {
      "midi": 40,
      "hit": false,
      "t": 97880.6713499999,
      "d": 226.92285000000265,
      "v": 100
    },
    {
      "midi": 69,
      "hit": false,
      "t": 98076.82500000003,
      "d": 230.76900000000023,
      "v": 100
    },
    {
      "midi": 40,
      "hit": false,
      "t": 98111.4403499999,
      "d": 0,
      "v": 100
    },
    {
      "midi": 46,
      "hit": false,
      "t": 98192.20950000008,
      "d": 0,
      "v": 100
    },
    {
      "midi": 40,
      "hit": false,
      "t": 98226.8248499999,
      "d": 0,
      "v": 100
    },
    {
      "midi": 58,
      "hit": false,
      "t": 98307.59400000008,
      "d": 115.38450000000012,
      "v": 100
    },
    {
      "midi": 40,
      "hit": false,
      "t": 98342.2093499999,
      "d": 0,
      "v": 100
    },
    {
      "midi": 46,
      "hit": false,
      "t": 98538.36300000008,
      "d": 230.76900000000023,
      "v": 100
    },
    {
      "midi": 40,
      "hit": false,
      "t": 98688.36284999989,
      "d": 0,
      "v": 100
    },
    {
      "midi": 67,
      "hit": false,
      "t": 98769.13200000003,
      "d": 230.76900000000023,
      "v": 100
    },
    {
      "midi": 40,
      "hit": false,
      "t": 98803.74734999989,
      "d": 0,
      "v": 100
    },
    {
      "midi": 34,
      "hit": false,
      "t": 98999.90100000009,
      "d": 230.76900000000023,
      "v": 100
    },
    {
      "midi": 40,
      "hit": false,
      "t": 99034.51634999989,
      "d": 57.69224999999278,
      "v": 100
    },
    {
      "midi": 46,
      "hit": false,
      "t": 99115.28550000009,
      "d": 115.38450000000012,
      "v": 100
    },
    {
      "midi": 70,
      "hit": false,
      "t": 99230.67000000003,
      "d": 230.76900000000023,
      "v": 100
    },
    {
      "midi": 58,
      "hit": false,
      "t": 99230.67000000009,
      "d": 115.38450000000012,
      "v": 100
    },
    {
      "midi": 40,
      "hit": false,
      "t": 99265.28534999987,
      "d": 0,
      "v": 100
    },
    {
      "midi": 53,
      "hit": false,
      "t": 99346.05450000009,
      "d": 115.38450000000012,
      "v": 100
    },
    {
      "midi": 40,
      "hit": false,
      "t": 99380.66984999987,
      "d": 0,
      "v": 100
    },
    {
      "midi": 46,
      "hit": false,
      "t": 99461.43900000009,
      "d": 115.38450000000012,
      "v": 100
    },
    {
      "midi": 40,
      "hit": false,
      "t": 99496.05434999987,
      "d": 0,
      "v": 100
    },
    {
      "midi": 70,
      "hit": false,
      "t": 99692.20800000003,
      "d": 230.76900000000023,
      "v": 100
    },
    {
      "midi": 53,
      "hit": false,
      "t": 99692.20800000004,
      "d": 0,
      "v": 100
    },
    {
      "midi": 17,
      "hit": false,
      "t": 99692.20800000009,
      "d": 115.38450000000012,
      "v": 100
    },
    {
      "midi": 40,
      "hit": false,
      "t": 99730.66949999987,
      "d": 226.92285000000265,
      "v": 100
    },
    {
      "midi": 40,
      "hit": false,
      "t": 99961.43849999987,
      "d": 0,
      "v": 100
    },
    {
      "midi": 29,
      "hit": false,
      "t": 100038.36150000009,
      "d": 0,
      "v": 100
    },
    {
      "midi": 40,
      "hit": false,
      "t": 100076.82299999987,
      "d": 0,
      "v": 100
    },
    {
      "midi": 41,
      "hit": false,
      "t": 100153.74600000009,
      "d": 115.38450000000012,
      "v": 100
    },
    {
      "midi": 40,
      "hit": false,
      "t": 100192.20749999987,
      "d": 0,
      "v": 100
    },
    {
      "midi": 69,
      "hit": false,
      "t": 100384.51500000003,
      "d": 230.76900000000023,
      "v": 100
    },
    {
      "midi": 29,
      "hit": false,
      "t": 100384.51500000009,
      "d": 115.38450000000012,
      "v": 100
    },
    {
      "midi": 40,
      "hit": false,
      "t": 100538.36099999986,
      "d": 0,
      "v": 100
    },
    {
      "midi": 40,
      "hit": false,
      "t": 100653.74549999986,
      "d": 0,
      "v": 100
    },
    {
      "midi": 17,
      "hit": false,
      "t": 100846.05300000009,
      "d": 115.38450000000012,
      "v": 100
    },
    {
      "midi": 40,
      "hit": false,
      "t": 100884.51449999986,
      "d": 57.69224999999278,
      "v": 100
    },
    {
      "midi": 29,
      "hit": false,
      "t": 100961.43750000009,
      "d": 115.38450000000012,
      "v": 100
    },
    {
      "midi": 67,
      "hit": false,
      "t": 101076.82200000003,
      "d": 230.76900000000023,
      "v": 100
    },
    {
      "midi": 41,
      "hit": false,
      "t": 101076.82200000009,
      "d": 115.38450000000012,
      "v": 100
    },
    {
      "midi": 40,
      "hit": false,
      "t": 101115.28349999984,
      "d": 0,
      "v": 100
    },
    {
      "midi": 36,
      "hit": false,
      "t": 101192.20650000009,
      "d": 115.38450000000012,
      "v": 100
    },
    {
      "midi": 40,
      "hit": false,
      "t": 101230.66799999985,
      "d": 0,
      "v": 100
    },
    {
      "midi": 29,
      "hit": false,
      "t": 101307.59100000009,
      "d": 115.38450000000012,
      "v": 100
    },
    {
      "midi": 40,
      "hit": false,
      "t": 101346.05249999985,
      "d": 0,
      "v": 100
    },
    {
      "midi": 48,
      "hit": false,
      "t": 101538.36000000004,
      "d": 0,
      "v": 100
    },
    {
      "midi": 53,
      "hit": false,
      "t": 101538.36000000004,
      "d": 0,
      "v": 100
    },
    {
      "midi": 41,
      "hit": false,
      "t": 101538.36000000004,
      "d": 0,
      "v": 100
    },
    {
      "midi": 45,
      "hit": false,
      "t": 101538.36000000004,
      "d": 0,
      "v": 100
    },
    {
      "midi": 17,
      "hit": false,
      "t": 101538.36000000009,
      "d": 115.38450000000012,
      "v": 100
    },
    {
      "midi": 40,
      "hit": false,
      "t": 101580.66764999984,
      "d": 226.92285000000265,
      "v": 100
    },
    {
      "midi": 65,
      "hit": false,
      "t": 101769.12900000003,
      "d": 230.76900000000023,
      "v": 100
    },
    {
      "midi": 40,
      "hit": false,
      "t": 101811.43664999984,
      "d": 0,
      "v": 100
    },
    {
      "midi": 29,
      "hit": false,
      "t": 101884.51350000009,
      "d": 0,
      "v": 100
    },
    {
      "midi": 40,
      "hit": false,
      "t": 101926.82114999984,
      "d": 0,
      "v": 100
    },
    {
      "midi": 41,
      "hit": false,
      "t": 101999.89800000009,
      "d": 115.38450000000012,
      "v": 100
    },
    {
      "midi": 40,
      "hit": false,
      "t": 102042.20564999984,
      "d": 0,
      "v": 100
    },
    {
      "midi": 29,
      "hit": false,
      "t": 102230.66700000009,
      "d": 115.38450000000012,
      "v": 100
    },
    {
      "midi": 40,
      "hit": false,
      "t": 102388.35914999983,
      "d": 0,
      "v": 100
    },
    {
      "midi": 70,
      "hit": false,
      "t": 102461.43600000003,
      "d": 230.76900000000023,
      "v": 100
    },
    {
      "midi": 40,
      "hit": false,
      "t": 102503.74364999983,
      "d": 0,
      "v": 100
    },
    {
      "midi": 69,
      "hit": false,
      "t": 102692.20500000003,
      "d": 230.76900000000023,
      "v": 100
    },
    {
      "midi": 17,
      "hit": false,
      "t": 102692.20500000009,
      "d": 115.38450000000012,
      "v": 100
    },
    {
      "midi": 40,
      "hit": false,
      "t": 102734.51264999983,
      "d": 57.69224999999278,
      "v": 100
    },
    {
      "midi": 29,
      "hit": false,
      "t": 102807.58950000009,
      "d": 115.38450000000012,
      "v": 100
    },
    {
      "midi": 67,
      "hit": false,
      "t": 102922.97400000003,
      "d": 230.76900000000023,
      "v": 100
    },
    {
      "midi": 41,
      "hit": false,
      "t": 102922.97400000009,
      "d": 115.38450000000012,
      "v": 100
    },
    {
      "midi": 40,
      "hit": false,
      "t": 102965.28164999982,
      "d": 0,
      "v": 100
    },
    {
      "midi": 36,
      "hit": false,
      "t": 103038.35850000009,
      "d": 115.38450000000012,
      "v": 100
    },
    {
      "midi": 40,
      "hit": false,
      "t": 103080.66614999982,
      "d": 0,
      "v": 100
    },
    {
      "midi": 65,
      "hit": false,
      "t": 103153.74300000003,
      "d": 230.76900000000023,
      "v": 100
    },
    {
      "midi": 29,
      "hit": false,
      "t": 103153.74300000009,
      "d": 115.38450000000012,
      "v": 100
    },
    {
      "midi": 40,
      "hit": false,
      "t": 103196.05064999982,
      "d": 0,
      "v": 100
    },
    {
      "midi": 36,
      "hit": false,
      "t": 103384.51199999981,
      "d": 7.692299999995157,
      "v": 120
    },
    {
      "midi": 53,
      "hit": false,
      "t": 103384.51200000005,
      "d": 0,
      "v": 100
    },
    {
      "midi": 62,
      "hit": false,
      "t": 103384.51200000005,
      "d": 1846.1520000000019,
      "v": 100
    },
    {
      "midi": 50,
      "hit": false,
      "t": 103384.51200000005,
      "d": 1846.1520000000019,
      "v": 100
    },
    {
      "midi": 57,
      "hit": false,
      "t": 103384.51200000005,
      "d": 1846.1520000000019,
      "v": 100
    },
    {
      "midi": 62,
      "hit": false,
      "t": 103384.51200000005,
      "d": 230.76900000000023,
      "v": 100
    },
    {
      "midi": 26,
      "hit": false,
      "t": 103384.51200000009,
      "d": 230.76900000000023,
      "v": 100
    },
    {
      "midi": 64,
      "hit": false,
      "t": 103615.28100000005,
      "d": 230.76900000000023,
      "v": 100
    },
    {
      "midi": 38,
      "hit": false,
      "t": 103730.66550000009,
      "d": 0,
      "v": 100
    },
    {
      "midi": 40,
      "hit": false,
      "t": 103846.04999999981,
      "d": 230.76900000000023,
      "v": 120
    },
    {
      "midi": 65,
      "hit": false,
      "t": 103846.05000000005,
      "d": 230.76900000000023,
      "v": 100
    },
    {
      "midi": 50,
      "hit": false,
      "t": 103846.05000000009,
      "d": 115.38450000000012,
      "v": 100
    },
    {
      "midi": 62,
      "hit": false,
      "t": 104076.81900000005,
      "d": 230.76900000000023,
      "v": 100
    },
    {
      "midi": 38,
      "hit": false,
      "t": 104076.81900000009,
      "d": 115.38450000000012,
      "v": 100
    },
    {
      "midi": 36,
      "hit": false,
      "t": 104307.58799999981,
      "d": 230.76900000000023,
      "v": 120
    },
    {
      "midi": 26,
      "hit": false,
      "t": 104538.35700000009,
      "d": 230.76900000000023,
      "v": 100
    },
    {
      "midi": 38,
      "hit": false,
      "t": 104653.74150000009,
      "d": 115.38450000000012,
      "v": 100
    },
    {
      "midi": 40,
      "hit": false,
      "t": 104769.12599999981,
      "d": 230.76900000000023,
      "v": 120
    },
    {
      "midi": 50,
      "hit": false,
      "t": 104769.12600000009,
      "d": 115.38450000000012,
      "v": 100
    },
    {
      "midi": 45,
      "hit": false,
      "t": 104884.51050000009,
      "d": 115.38450000000012,
      "v": 100
    },
    {
      "midi": 38,
      "hit": false,
      "t": 104999.89500000009,
      "d": 115.38450000000012,
      "v": 100
    },
    {
      "midi": 36,
      "hit": false,
      "t": 105230.66399999982,
      "d": 230.76900000000023,
      "v": 120
    },
    {
      "midi": 60,
      "hit": false,
      "t": 105230.66400000005,
      "d": 1846.1520000000019,
      "v": 100
    },
    {
      "midi": 52,
      "hit": false,
      "t": 105230.66400000005,
      "d": 1846.1520000000019,
      "v": 100
    },
    {
      "midi": 48,
      "hit": false,
      "t": 105230.66400000005,
      "d": 1846.1520000000019,
      "v": 100
    },
    {
      "midi": 55,
      "hit": false,
      "t": 105230.66400000005,
      "d": 1846.1520000000019,
      "v": 100
    },
    {
      "midi": 62,
      "hit": false,
      "t": 105230.66400000005,
      "d": 0,
      "v": 100
    },
    {
      "midi": 24,
      "hit": false,
      "t": 105230.66400000009,
      "d": 115.38450000000012,
      "v": 100
    },
    {
      "midi": 60,
      "hit": false,
      "t": 105461.43300000005,
      "d": 230.76900000000023,
      "v": 100
    },
    {
      "midi": 36,
      "hit": false,
      "t": 105576.81750000009,
      "d": 0,
      "v": 100
    },
    {
      "midi": 40,
      "hit": false,
      "t": 105692.20199999982,
      "d": 230.76900000000023,
      "v": 120
    },
    {
      "midi": 57,
      "hit": false,
      "t": 105692.20200000005,
      "d": 230.76900000000023,
      "v": 100
    },
    {
      "midi": 48,
      "hit": false,
      "t": 105692.20200000009,
      "d": 115.38450000000012,
      "v": 100
    },
    {
      "midi": 60,
      "hit": false,
      "t": 105922.97100000005,
      "d": 230.76900000000023,
      "v": 100
    },
    {
      "midi": 36,
      "hit": false,
      "t": 105922.97100000009,
      "d": 115.38450000000012,
      "v": 100
    },
    {
      "midi": 36,
      "hit": false,
      "t": 106153.73999999982,
      "d": 230.76900000000023,
      "v": 120
    },
    {
      "midi": 24,
      "hit": false,
      "t": 106384.5090000001,
      "d": 230.76900000000023,
      "v": 100
    },
    {
      "midi": 36,
      "hit": false,
      "t": 106499.8935000001,
      "d": 115.38450000000012,
      "v": 100
    },
    {
      "midi": 40,
      "hit": false,
      "t": 106615.27799999982,
      "d": 230.76900000000023,
      "v": 120
    },
    {
      "midi": 48,
      "hit": false,
      "t": 106615.2780000001,
      "d": 115.38450000000012,
      "v": 100
    },
    {
      "midi": 43,
      "hit": false,
      "t": 106730.6625000001,
      "d": 115.38450000000012,
      "v": 100
    },
    {
      "midi": 36,
      "hit": false,
      "t": 106846.0470000001,
      "d": 115.38450000000012,
      "v": 100
    },
    {
      "midi": 36,
      "hit": false,
      "t": 107076.81599999982,
      "d": 230.76900000000023,
      "v": 120
    },
    {
      "midi": 58,
      "hit": false,
      "t": 107076.81600000005,
      "d": 1846.1520000000019,
      "v": 100
    },
    {
      "midi": 50,
      "hit": false,
      "t": 107076.81600000005,
      "d": 1846.1520000000019,
      "v": 100
    },
    {
      "midi": 46,
      "hit": false,
      "t": 107076.81600000005,
      "d": 1846.1520000000019,
      "v": 100
    },
    {
      "midi": 53,
      "hit": false,
      "t": 107076.81600000005,
      "d": 1846.1520000000019,
      "v": 100
    },
    {
      "midi": 62,
      "hit": false,
      "t": 107076.81600000005,
      "d": 230.76900000000023,
      "v": 100
    },
    {
      "midi": 34,
      "hit": false,
      "t": 107076.8160000001,
      "d": 230.76900000000023,
      "v": 100
    },
    {
      "midi": 64,
      "hit": false,
      "t": 107307.58500000005,
      "d": 230.76900000000023,
      "v": 100
    },
    {
      "midi": 46,
      "hit": false,
      "t": 107422.9695000001,
      "d": 0,
      "v": 100
    },
    {
      "midi": 40,
      "hit": false,
      "t": 107538.35399999982,
      "d": 230.76900000000023,
      "v": 120
    },
    {
      "midi": 65,
      "hit": false,
      "t": 107538.35400000005,
      "d": 230.76900000000023,
      "v": 100
    },
    {
      "midi": 58,
      "hit": false,
      "t": 107538.3540000001,
      "d": 115.38450000000012,
      "v": 100
    },
    {
      "midi": 62,
      "hit": false,
      "t": 107769.12300000005,
      "d": 230.76900000000023,
      "v": 100
    },
    {
      "midi": 46,
      "hit": false,
      "t": 107769.1230000001,
      "d": 230.76900000000023,
      "v": 100
    },
    {
      "midi": 36,
      "hit": false,
      "t": 107999.89199999982,
      "d": 230.76900000000023,
      "v": 120
    },
    {
      "midi": 34,
      "hit": false,
      "t": 108230.6610000001,
      "d": 230.76900000000023,
      "v": 100
    },
    {
      "midi": 46,
      "hit": false,
      "t": 108346.0455000001,
      "d": 115.38450000000012,
      "v": 100
    },
    {
      "midi": 40,
      "hit": false,
      "t": 108461.42999999982,
      "d": 230.76900000000023,
      "v": 120
    },
    {
      "midi": 58,
      "hit": false,
      "t": 108461.4300000001,
      "d": 115.38450000000012,
      "v": 100
    },
    {
      "midi": 53,
      "hit": false,
      "t": 108576.8145000001,
      "d": 115.38450000000012,
      "v": 100
    },
    {
      "midi": 62,
      "hit": false,
      "t": 108692.19900000005,
      "d": 230.76900000000023,
      "v": 100
    },
    {
      "midi": 46,
      "hit": false,
      "t": 108692.1990000001,
      "d": 115.38450000000012,
      "v": 100
    },
    {
      "midi": 36,
      "hit": false,
      "t": 108922.96799999982,
      "d": 230.76900000000023,
      "v": 120
    },
    {
      "midi": 57,
      "hit": false,
      "t": 108922.96800000005,
      "d": 923.0760000000009,
      "v": 100
    },
    {
      "midi": 45,
      "hit": false,
      "t": 108922.96800000005,
      "d": 923.0760000000009,
      "v": 100
    },
    {
      "midi": 70,
      "hit": false,
      "t": 108922.96800000005,
      "d": 230.76900000000023,
      "v": 100
    },
    {
      "midi": 21,
      "hit": false,
      "t": 108922.9680000001,
      "d": 230.76900000000023,
      "v": 100
    },
    {
      "midi": 69,
      "hit": false,
      "t": 109153.73700000005,
      "d": 230.76900000000023,
      "v": 100
    },
    {
      "midi": 33,
      "hit": false,
      "t": 109269.1215000001,
      "d": 0,
      "v": 100
    },
    {
      "midi": 40,
      "hit": false,
      "t": 109384.50599999982,
      "d": 230.76900000000023,
      "v": 120
    },
    {
      "midi": 64,
      "hit": false,
      "t": 109384.50600000005,
      "d": 230.76900000000023,
      "v": 100
    },
    {
      "midi": 45,
      "hit": false,
      "t": 109384.5060000001,
      "d": 115.38450000000012,
      "v": 100
    },
    {
      "midi": 65,
      "hit": false,
      "t": 109615.27500000005,
      "d": 230.76900000000023,
      "v": 100
    },
    {
      "midi": 33,
      "hit": false,
      "t": 109615.2750000001,
      "d": 230.76900000000023,
      "v": 100
    },
    {
      "midi": 36,
      "hit": false,
      "t": 109846.04399999982,
      "d": 230.76900000000023,
      "v": 120
    },
    {
      "midi": 48,
      "hit": false,
      "t": 109846.04400000005,
      "d": 0,
      "v": 100
    },
    {
      "midi": 52,
      "hit": false,
      "t": 109846.04400000005,
      "d": 0,
      "v": 100
    },
    {
      "midi": 60,
      "hit": false,
      "t": 109846.04400000005,
      "d": 923.0760000000009,
      "v": 100
    },
    {
      "midi": 55,
      "hit": false,
      "t": 109846.04400000005,
      "d": 923.0760000000009,
      "v": 100
    },
    {
      "midi": 24,
      "hit": false,
      "t": 110076.8130000001,
      "d": 230.76900000000023,
      "v": 100
    },
    {
      "midi": 36,
      "hit": false,
      "t": 110192.1975000001,
      "d": 115.38450000000012,
      "v": 100
    },
    {
      "midi": 40,
      "hit": false,
      "t": 110307.58199999982,
      "d": 230.76900000000023,
      "v": 120
    },
    {
      "midi": 48,
      "hit": false,
      "t": 110307.5820000001,
      "d": 115.38450000000012,
      "v": 100
    },
    {
      "midi": 43,
      "hit": false,
      "t": 110422.9665000001,
      "d": 115.38450000000012,
      "v": 100
    },
    {
      "midi": 36,
      "hit": false,
      "t": 110538.3510000001,
      "d": 115.38450000000012,
      "v": 100
    },
    {
      "midi": 36,
      "hit": false,
      "t": 110769.11999999982,
      "d": 230.76900000000023,
      "v": 120
    },
    {
      "midi": 62,
      "hit": false,
      "t": 110769.12000000005,
      "d": 1846.1520000000019,
      "v": 100
    },
    {
      "midi": 53,
      "hit": false,
      "t": 110769.12000000005,
      "d": 1846.1520000000019,
      "v": 100
    },
    {
      "midi": 50,
      "hit": false,
      "t": 110769.12000000005,
      "d": 1846.1520000000019,
      "v": 100
    },
    {
      "midi": 57,
      "hit": false,
      "t": 110769.12000000005,
      "d": 1846.1520000000019,
      "v": 100
    },
    {
      "midi": 62,
      "hit": false,
      "t": 110769.12000000005,
      "d": 230.76900000000023,
      "v": 100
    },
    {
      "midi": 26,
      "hit": false,
      "t": 110769.1200000001,
      "d": 230.76900000000023,
      "v": 100
    },
    {
      "midi": 64,
      "hit": false,
      "t": 110999.88900000005,
      "d": 230.76900000000023,
      "v": 100
    },
    {
      "midi": 38,
      "hit": false,
      "t": 111115.2735000001,
      "d": 0,
      "v": 100
    },
    {
      "midi": 40,
      "hit": false,
      "t": 111230.65799999982,
      "d": 230.76900000000023,
      "v": 120
    },
    {
      "midi": 65,
      "hit": false,
      "t": 111230.65800000005,
      "d": 230.76900000000023,
      "v": 100
    },
    {
      "midi": 50,
      "hit": false,
      "t": 111230.6580000001,
      "d": 115.38450000000012,
      "v": 100
    },
    {
      "midi": 62,
      "hit": false,
      "t": 111461.42700000005,
      "d": 230.76900000000023,
      "v": 100
    },
    {
      "midi": 38,
      "hit": false,
      "t": 111461.4270000001,
      "d": 115.38450000000012,
      "v": 100
    },
    {
      "midi": 36,
      "hit": false,
      "t": 111692.19599999982,
      "d": 230.76900000000023,
      "v": 120
    },
    {
      "midi": 26,
      "hit": false,
      "t": 111922.9650000001,
      "d": 230.76900000000023,
      "v": 100
    },
    {
      "midi": 38,
      "hit": false,
      "t": 112038.3495000001,
      "d": 115.38450000000012,
      "v": 100
    },
    {
      "midi": 40,
      "hit": false,
      "t": 112153.73399999982,
      "d": 230.76900000000023,
      "v": 120
    },
    {
      "midi": 50,
      "hit": false,
      "t": 112153.7340000001,
      "d": 115.38450000000012,
      "v": 100
    },
    {
      "midi": 45,
      "hit": false,
      "t": 112269.1185000001,
      "d": 115.38450000000012,
      "v": 100
    },
    {
      "midi": 38,
      "hit": false,
      "t": 112384.5030000001,
      "d": 115.38450000000012,
      "v": 100
    },
    {
      "midi": 60,
      "hit": false,
      "t": 112615.27200000006,
      "d": 1846.1520000000019,
      "v": 100
    },
    {
      "midi": 52,
      "hit": false,
      "t": 112615.27200000006,
      "d": 1846.1520000000019,
      "v": 100
    },
    {
      "midi": 48,
      "hit": false,
      "t": 112615.27200000006,
      "d": 1846.1520000000019,
      "v": 100
    },
    {
      "midi": 55,
      "hit": false,
      "t": 112615.27200000006,
      "d": 1846.1520000000019,
      "v": 100
    },
    {
      "midi": 62,
      "hit": false,
      "t": 112615.27200000006,
      "d": 0,
      "v": 100
    },
    {
      "midi": 24,
      "hit": false,
      "t": 112615.2720000001,
      "d": 115.38450000000012,
      "v": 100
    },
    {
      "midi": 36,
      "hit": false,
      "t": 112619.11814999982,
      "d": 230.76900000000023,
      "v": 120
    },
    {
      "midi": 60,
      "hit": false,
      "t": 112846.04100000006,
      "d": 230.76900000000023,
      "v": 100
    },
    {
      "midi": 36,
      "hit": false,
      "t": 112961.4255000001,
      "d": 0,
      "v": 100
    },
    {
      "midi": 57,
      "hit": false,
      "t": 113076.81000000006,
      "d": 230.76900000000023,
      "v": 100
    },
    {
      "midi": 48,
      "hit": false,
      "t": 113076.8100000001,
      "d": 115.38450000000012,
      "v": 100
    },
    {
      "midi": 40,
      "hit": false,
      "t": 113080.65614999982,
      "d": 230.76900000000023,
      "v": 120
    },
    {
      "midi": 60,
      "hit": false,
      "t": 113307.57900000006,
      "d": 230.76900000000023,
      "v": 100
    },
    {
      "midi": 36,
      "hit": false,
      "t": 113307.5790000001,
      "d": 115.38450000000012,
      "v": 100
    },
    {
      "midi": 36,
      "hit": false,
      "t": 113542.19414999982,
      "d": 230.76900000000023,
      "v": 120
    },
    {
      "midi": 24,
      "hit": false,
      "t": 113769.1170000001,
      "d": 230.76900000000023,
      "v": 100
    },
    {
      "midi": 36,
      "hit": false,
      "t": 113884.5015000001,
      "d": 115.38450000000012,
      "v": 100
    },
    {
      "midi": 48,
      "hit": false,
      "t": 113999.8860000001,
      "d": 115.38450000000012,
      "v": 100
    },
    {
      "midi": 40,
      "hit": false,
      "t": 114003.73214999982,
      "d": 230.76900000000023,
      "v": 120
    },
    {
      "midi": 43,
      "hit": false,
      "t": 114115.2705000001,
      "d": 115.38450000000012,
      "v": 100
    },
    {
      "midi": 62,
      "hit": false,
      "t": 114230.65500000006,
      "d": 230.76900000000023,
      "v": 100
    },
    {
      "midi": 36,
      "hit": false,
      "t": 114230.6550000001,
      "d": 115.38450000000012,
      "v": 100
    },
    {
      "midi": 57,
      "hit": false,
      "t": 114461.42400000006,
      "d": 1846.1520000000019,
      "v": 100
    },
    {
      "midi": 62,
      "hit": false,
      "t": 114461.42400000006,
      "d": 1846.1520000000019,
      "v": 100
    },
    {
      "midi": 53,
      "hit": false,
      "t": 114461.42400000006,
      "d": 1846.1520000000019,
      "v": 100
    },
    {
      "midi": 50,
      "hit": false,
      "t": 114461.42400000006,
      "d": 1846.1520000000019,
      "v": 100
    },
    {
      "midi": 26,
      "hit": false,
      "t": 114461.4240000001,
      "d": 230.76900000000023,
      "v": 100
    },
    {
      "midi": 36,
      "hit": false,
      "t": 114469.11629999982,
      "d": 230.76900000000023,
      "v": 120
    },
    {
      "midi": 38,
      "hit": false,
      "t": 114807.5775000001,
      "d": 0,
      "v": 100
    },
    {
      "midi": 50,
      "hit": false,
      "t": 114922.9620000001,
      "d": 115.38450000000012,
      "v": 100
    },
    {
      "midi": 40,
      "hit": false,
      "t": 114930.65429999982,
      "d": 230.76900000000023,
      "v": 120
    },
    {
      "midi": 38,
      "hit": false,
      "t": 115153.7310000001,
      "d": 115.38450000000012,
      "v": 100
    },
    {
      "midi": 36,
      "hit": false,
      "t": 115392.19229999982,
      "d": 230.76900000000023,
      "v": 120
    },
    {
      "midi": 26,
      "hit": false,
      "t": 115615.2690000001,
      "d": 230.76900000000023,
      "v": 100
    },
    {
      "midi": 38,
      "hit": false,
      "t": 115730.6535000001,
      "d": 115.38450000000012,
      "v": 100
    },
    {
      "midi": 50,
      "hit": false,
      "t": 115846.0380000001,
      "d": 115.38450000000012,
      "v": 100
    },
    {
      "midi": 40,
      "hit": false,
      "t": 115853.73029999982,
      "d": 230.76900000000023,
      "v": 120
    },
    {
      "midi": 45,
      "hit": false,
      "t": 115961.4225000001,
      "d": 115.38450000000012,
      "v": 100
    },
    {
      "midi": 38,
      "hit": false,
      "t": 116076.8070000001,
      "d": 115.38450000000012,
      "v": 100
    },
    {
      "midi": 60,
      "hit": false,
      "t": 116307.57600000006,
      "d": 1846.1520000000019,
      "v": 100
    },
    {
      "midi": 52,
      "hit": false,
      "t": 116307.57600000006,
      "d": 1846.1520000000019,
      "v": 100
    },
    {
      "midi": 48,
      "hit": false,
      "t": 116307.57600000006,
      "d": 1846.1520000000019,
      "v": 100
    },
    {
      "midi": 55,
      "hit": false,
      "t": 116307.57600000006,
      "d": 1846.1520000000019,
      "v": 100
    },
    {
      "midi": 24,
      "hit": false,
      "t": 116307.5760000001,
      "d": 115.38450000000012,
      "v": 100
    },
    {
      "midi": 36,
      "hit": false,
      "t": 116319.11444999982,
      "d": 230.76900000000023,
      "v": 120
    },
    {
      "midi": 36,
      "hit": false,
      "t": 116653.7295000001,
      "d": 0,
      "v": 100
    },
    {
      "midi": 48,
      "hit": false,
      "t": 116769.1140000001,
      "d": 115.38450000000012,
      "v": 100
    },
    {
      "midi": 40,
      "hit": false,
      "t": 116780.65244999982,
      "d": 230.76900000000023,
      "v": 120
    },
    {
      "midi": 36,
      "hit": false,
      "t": 116999.8830000001,
      "d": 115.38450000000012,
      "v": 100
    },
    {
      "midi": 36,
      "hit": false,
      "t": 117242.19044999982,
      "d": 230.76900000000023,
      "v": 120
    },
    {
      "midi": 24,
      "hit": false,
      "t": 117461.4210000001,
      "d": 230.76900000000023,
      "v": 100
    },
    {
      "midi": 36,
      "hit": false,
      "t": 117576.8055000001,
      "d": 115.38450000000012,
      "v": 100
    },
    {
      "midi": 48,
      "hit": false,
      "t": 117692.1900000001,
      "d": 115.38450000000012,
      "v": 100
    },
    {
      "midi": 40,
      "hit": false,
      "t": 117703.72844999982,
      "d": 230.76900000000023,
      "v": 120
    },
    {
      "midi": 43,
      "hit": false,
      "t": 117807.5745000001,
      "d": 115.38450000000012,
      "v": 100
    },
    {
      "midi": 36,
      "hit": false,
      "t": 117922.9590000001,
      "d": 115.38450000000012,
      "v": 100
    },
    {
      "midi": 36,
      "hit": false,
      "t": 118153.72799999981,
      "d": 7.692299999995157,
      "v": 120
    },
    {
      "midi": 62,
      "hit": false,
      "t": 118153.72800000006,
      "d": 1846.1520000000019,
      "v": 100
    },
    {
      "midi": 53,
      "hit": false,
      "t": 118153.72800000006,
      "d": 1846.1520000000019,
      "v": 100
    },
    {
      "midi": 50,
      "hit": false,
      "t": 118153.72800000006,
      "d": 1846.1520000000019,
      "v": 100
    },
    {
      "midi": 57,
      "hit": false,
      "t": 118153.72800000006,
      "d": 1846.1520000000019,
      "v": 100
    },
    {
      "midi": 62,
      "hit": false,
      "t": 118153.72800000006,
      "d": 230.76900000000023,
      "v": 100
    },
    {
      "midi": 26,
      "hit": false,
      "t": 118153.7280000001,
      "d": 230.76900000000023,
      "v": 100
    },
    {
      "midi": 64,
      "hit": false,
      "t": 118384.49700000006,
      "d": 230.76900000000023,
      "v": 100
    },
    {
      "midi": 38,
      "hit": false,
      "t": 118499.8815000001,
      "d": 0,
      "v": 100
    },
    {
      "midi": 40,
      "hit": false,
      "t": 118615.26599999981,
      "d": 230.76900000000023,
      "v": 120
    },
    {
      "midi": 65,
      "hit": false,
      "t": 118615.26600000006,
      "d": 230.76900000000023,
      "v": 100
    },
    {
      "midi": 50,
      "hit": false,
      "t": 118615.2660000001,
      "d": 115.38450000000012,
      "v": 100
    },
    {
      "midi": 62,
      "hit": false,
      "t": 118846.03500000006,
      "d": 230.76900000000023,
      "v": 100
    },
    {
      "midi": 38,
      "hit": false,
      "t": 118846.0350000001,
      "d": 115.38450000000012,
      "v": 100
    },
    {
      "midi": 36,
      "hit": false,
      "t": 119076.80399999981,
      "d": 230.76900000000023,
      "v": 120
    },
    {
      "midi": 26,
      "hit": false,
      "t": 119307.5730000001,
      "d": 230.76900000000023,
      "v": 100
    },
    {
      "midi": 38,
      "hit": false,
      "t": 119422.9575000001,
      "d": 115.38450000000012,
      "v": 100
    },
    {
      "midi": 40,
      "hit": false,
      "t": 119538.34199999982,
      "d": 230.76900000000023,
      "v": 120
    },
    {
      "midi": 50,
      "hit": false,
      "t": 119538.3420000001,
      "d": 115.38450000000012,
      "v": 100
    },
    {
      "midi": 45,
      "hit": false,
      "t": 119653.7265000001,
      "d": 115.38450000000012,
      "v": 100
    },
    {
      "midi": 38,
      "hit": false,
      "t": 119769.1110000001,
      "d": 115.38450000000012,
      "v": 100
    },
    {
      "midi": 36,
      "hit": false,
      "t": 119999.87999999982,
      "d": 230.76900000000023,
      "v": 120
    },
    {
      "midi": 60,
      "hit": false,
      "t": 119999.88000000006,
      "d": 1846.1520000000019,
      "v": 100
    },
    {
      "midi": 52,
      "hit": false,
      "t": 119999.88000000006,
      "d": 1846.1520000000019,
      "v": 100
    },
    {
      "midi": 48,
      "hit": false,
      "t": 119999.88000000006,
      "d": 1846.1520000000019,
      "v": 100
    },
    {
      "midi": 55,
      "hit": false,
      "t": 119999.88000000006,
      "d": 1846.1520000000019,
      "v": 100
    },
    {
      "midi": 62,
      "hit": false,
      "t": 119999.88000000006,
      "d": 0,
      "v": 100
    },
    {
      "midi": 24,
      "hit": false,
      "t": 119999.8800000001,
      "d": 115.38450000000012,
      "v": 100
    },
    {
      "midi": 60,
      "hit": false,
      "t": 120230.64900000006,
      "d": 230.76900000000023,
      "v": 100
    },
    {
      "midi": 36,
      "hit": false,
      "t": 120346.0335000001,
      "d": 0,
      "v": 100
    },
    {
      "midi": 40,
      "hit": false,
      "t": 120461.41799999982,
      "d": 230.76900000000023,
      "v": 120
    },
    {
      "midi": 57,
      "hit": false,
      "t": 120461.41800000006,
      "d": 230.76900000000023,
      "v": 100
    },
    {
      "midi": 48,
      "hit": false,
      "t": 120461.4180000001,
      "d": 115.38450000000012,
      "v": 100
    },
    {
      "midi": 60,
      "hit": false,
      "t": 120692.18700000006,
      "d": 230.76900000000023,
      "v": 100
    },
    {
      "midi": 36,
      "hit": false,
      "t": 120692.1870000001,
      "d": 115.38450000000012,
      "v": 100
    },
    {
      "midi": 36,
      "hit": false,
      "t": 120922.95599999982,
      "d": 230.76900000000023,
      "v": 120
    },
    {
      "midi": 24,
      "hit": false,
      "t": 121153.72500000011,
      "d": 230.76900000000023,
      "v": 100
    },
    {
      "midi": 36,
      "hit": false,
      "t": 121269.10950000011,
      "d": 115.38450000000012,
      "v": 100
    },
    {
      "midi": 40,
      "hit": false,
      "t": 121384.49399999982,
      "d": 230.76900000000023,
      "v": 120
    },
    {
      "midi": 48,
      "hit": false,
      "t": 121384.49400000011,
      "d": 115.38450000000012,
      "v": 100
    },
    {
      "midi": 43,
      "hit": false,
      "t": 121499.87850000011,
      "d": 115.38450000000012,
      "v": 100
    },
    {
      "midi": 36,
      "hit": false,
      "t": 121615.26300000011,
      "d": 115.38450000000012,
      "v": 100
    },
    {
      "midi": 36,
      "hit": false,
      "t": 121846.03199999982,
      "d": 230.76900000000023,
      "v": 120
    },
    {
      "midi": 58,
      "hit": false,
      "t": 121846.03200000006,
      "d": 1846.1520000000019,
      "v": 100
    },
    {
      "midi": 50,
      "hit": false,
      "t": 121846.03200000006,
      "d": 1846.1520000000019,
      "v": 100
    },
    {
      "midi": 46,
      "hit": false,
      "t": 121846.03200000006,
      "d": 1846.1520000000019,
      "v": 100
    },
    {
      "midi": 53,
      "hit": false,
      "t": 121846.03200000006,
      "d": 1846.1520000000019,
      "v": 100
    },
    {
      "midi": 62,
      "hit": false,
      "t": 121846.03200000006,
      "d": 230.76900000000023,
      "v": 100
    },
    {
      "midi": 34,
      "hit": false,
      "t": 121846.03200000011,
      "d": 230.76900000000023,
      "v": 100
    },
    {
      "midi": 64,
      "hit": false,
      "t": 122076.80100000006,
      "d": 230.76900000000023,
      "v": 100
    },
    {
      "midi": 46,
      "hit": false,
      "t": 122192.18550000011,
      "d": 0,
      "v": 100
    },
    {
      "midi": 40,
      "hit": false,
      "t": 122307.56999999982,
      "d": 230.76900000000023,
      "v": 120
    },
    {
      "midi": 65,
      "hit": false,
      "t": 122307.57000000007,
      "d": 230.76900000000023,
      "v": 100
    },
    {
      "midi": 58,
      "hit": false,
      "t": 122307.57000000011,
      "d": 115.38450000000012,
      "v": 100
    },
    {
      "midi": 62,
      "hit": false,
      "t": 122538.33900000007,
      "d": 230.76900000000023,
      "v": 100
    },
    {
      "midi": 46,
      "hit": false,
      "t": 122538.33900000011,
      "d": 230.76900000000023,
      "v": 100
    },
    {
      "midi": 36,
      "hit": false,
      "t": 122769.10799999982,
      "d": 230.76900000000023,
      "v": 120
    },
    {
      "midi": 34,
      "hit": false,
      "t": 122999.87700000011,
      "d": 230.76900000000023,
      "v": 100
    },
    {
      "midi": 46,
      "hit": false,
      "t": 123115.26150000011,
      "d": 115.38450000000012,
      "v": 100
    },
    {
      "midi": 40,
      "hit": false,
      "t": 123230.64599999982,
      "d": 230.76900000000023,
      "v": 120
    },
    {
      "midi": 58,
      "hit": false,
      "t": 123230.64600000011,
      "d": 115.38450000000012,
      "v": 100
    },
    {
      "midi": 53,
      "hit": false,
      "t": 123346.03050000011,
      "d": 115.38450000000012,
      "v": 100
    },
    {
      "midi": 62,
      "hit": false,
      "t": 123461.41500000007,
      "d": 230.76900000000023,
      "v": 100
    },
    {
      "midi": 46,
      "hit": false,
      "t": 123461.41500000011,
      "d": 115.38450000000012,
      "v": 100
    },
    {
      "midi": 36,
      "hit": false,
      "t": 123692.18399999982,
      "d": 230.76900000000023,
      "v": 120
    },
    {
      "midi": 57,
      "hit": false,
      "t": 123692.18400000007,
      "d": 923.0760000000009,
      "v": 100
    },
    {
      "midi": 45,
      "hit": false,
      "t": 123692.18400000007,
      "d": 923.0760000000009,
      "v": 100
    },
    {
      "midi": 70,
      "hit": false,
      "t": 123692.18400000007,
      "d": 230.76900000000023,
      "v": 100
    },
    {
      "midi": 21,
      "hit": false,
      "t": 123692.18400000011,
      "d": 230.76900000000023,
      "v": 100
    },
    {
      "midi": 69,
      "hit": false,
      "t": 123922.95300000007,
      "d": 230.76900000000023,
      "v": 100
    },
    {
      "midi": 33,
      "hit": false,
      "t": 124038.33750000011,
      "d": 0,
      "v": 100
    },
    {
      "midi": 40,
      "hit": false,
      "t": 124153.72199999982,
      "d": 230.76900000000023,
      "v": 120
    },
    {
      "midi": 64,
      "hit": false,
      "t": 124153.72200000007,
      "d": 230.76900000000023,
      "v": 100
    },
    {
      "midi": 45,
      "hit": false,
      "t": 124153.72200000011,
      "d": 115.38450000000012,
      "v": 100
    },
    {
      "midi": 65,
      "hit": false,
      "t": 124384.49100000007,
      "d": 230.76900000000023,
      "v": 100
    },
    {
      "midi": 33,
      "hit": false,
      "t": 124384.49100000011,
      "d": 230.76900000000023,
      "v": 100
    },
    {
      "midi": 36,
      "hit": false,
      "t": 124615.25999999982,
      "d": 230.76900000000023,
      "v": 120
    },
    {
      "midi": 48,
      "hit": false,
      "t": 124615.26000000007,
      "d": 0,
      "v": 100
    },
    {
      "midi": 52,
      "hit": false,
      "t": 124615.26000000007,
      "d": 0,
      "v": 100
    },
    {
      "midi": 60,
      "hit": false,
      "t": 124615.26000000007,
      "d": 923.0760000000009,
      "v": 100
    },
    {
      "midi": 55,
      "hit": false,
      "t": 124615.26000000007,
      "d": 923.0760000000009,
      "v": 100
    },
    {
      "midi": 24,
      "hit": false,
      "t": 124846.02900000011,
      "d": 230.76900000000023,
      "v": 100
    },
    {
      "midi": 36,
      "hit": false,
      "t": 124961.41350000011,
      "d": 115.38450000000012,
      "v": 100
    },
    {
      "midi": 40,
      "hit": false,
      "t": 125076.79799999982,
      "d": 230.76900000000023,
      "v": 120
    },
    {
      "midi": 48,
      "hit": false,
      "t": 125076.79800000011,
      "d": 115.38450000000012,
      "v": 100
    },
    {
      "midi": 43,
      "hit": false,
      "t": 125192.18250000011,
      "d": 115.38450000000012,
      "v": 100
    },
    {
      "midi": 36,
      "hit": false,
      "t": 125307.56700000011,
      "d": 115.38450000000012,
      "v": 100
    },
    {
      "midi": 36,
      "hit": false,
      "t": 125538.33599999982,
      "d": 230.76900000000023,
      "v": 120
    },
    {
      "midi": 62,
      "hit": false,
      "t": 125538.33600000007,
      "d": 1846.1520000000019,
      "v": 100
    },
    {
      "midi": 53,
      "hit": false,
      "t": 125538.33600000007,
      "d": 1846.1520000000019,
      "v": 100
    },
    {
      "midi": 50,
      "hit": false,
      "t": 125538.33600000007,
      "d": 1846.1520000000019,
      "v": 100
    },
    {
      "midi": 57,
      "hit": false,
      "t": 125538.33600000007,
      "d": 1846.1520000000019,
      "v": 100
    },
    {
      "midi": 62,
      "hit": false,
      "t": 125538.33600000007,
      "d": 230.76900000000023,
      "v": 100
    },
    {
      "midi": 26,
      "hit": false,
      "t": 125538.33600000011,
      "d": 230.76900000000023,
      "v": 100
    },
    {
      "midi": 64,
      "hit": false,
      "t": 125769.10500000007,
      "d": 230.76900000000023,
      "v": 100
    },
    {
      "midi": 38,
      "hit": false,
      "t": 125884.48950000011,
      "d": 0,
      "v": 100
    },
    {
      "midi": 40,
      "hit": false,
      "t": 125999.87399999982,
      "d": 230.76900000000023,
      "v": 120
    },
    {
      "midi": 65,
      "hit": false,
      "t": 125999.87400000007,
      "d": 230.76900000000023,
      "v": 100
    },
    {
      "midi": 50,
      "hit": false,
      "t": 125999.87400000011,
      "d": 115.38450000000012,
      "v": 100
    },
    {
      "midi": 62,
      "hit": false,
      "t": 126230.64300000007,
      "d": 230.76900000000023,
      "v": 100
    },
    {
      "midi": 38,
      "hit": false,
      "t": 126230.64300000011,
      "d": 115.38450000000012,
      "v": 100
    },
    {
      "midi": 36,
      "hit": false,
      "t": 126461.41199999982,
      "d": 230.76900000000023,
      "v": 120
    },
    {
      "midi": 26,
      "hit": false,
      "t": 126692.18100000011,
      "d": 230.76900000000023,
      "v": 100
    },
    {
      "midi": 38,
      "hit": false,
      "t": 126807.56550000011,
      "d": 115.38450000000012,
      "v": 100
    },
    {
      "midi": 40,
      "hit": false,
      "t": 126922.94999999982,
      "d": 230.76900000000023,
      "v": 120
    },
    {
      "midi": 50,
      "hit": false,
      "t": 126922.95000000011,
      "d": 115.38450000000012,
      "v": 100
    },
    {
      "midi": 45,
      "hit": false,
      "t": 127038.33450000011,
      "d": 115.38450000000012,
      "v": 100
    },
    {
      "midi": 38,
      "hit": false,
      "t": 127153.71900000011,
      "d": 115.38450000000012,
      "v": 100
    },
    {
      "midi": 60,
      "hit": false,
      "t": 127384.48800000007,
      "d": 1846.1520000000019,
      "v": 100
    },
    {
      "midi": 52,
      "hit": false,
      "t": 127384.48800000007,
      "d": 1846.1520000000019,
      "v": 100
    },
    {
      "midi": 48,
      "hit": false,
      "t": 127384.48800000007,
      "d": 1846.1520000000019,
      "v": 100
    },
    {
      "midi": 55,
      "hit": false,
      "t": 127384.48800000007,
      "d": 1846.1520000000019,
      "v": 100
    },
    {
      "midi": 62,
      "hit": false,
      "t": 127384.48800000007,
      "d": 0,
      "v": 100
    },
    {
      "midi": 24,
      "hit": false,
      "t": 127384.48800000011,
      "d": 115.38450000000012,
      "v": 100
    },
    {
      "midi": 36,
      "hit": false,
      "t": 127388.33414999982,
      "d": 230.76900000000023,
      "v": 120
    },
    {
      "midi": 60,
      "hit": false,
      "t": 127615.25700000007,
      "d": 230.76900000000023,
      "v": 100
    },
    {
      "midi": 36,
      "hit": false,
      "t": 127730.64150000011,
      "d": 0,
      "v": 100
    },
    {
      "midi": 57,
      "hit": false,
      "t": 127846.02600000007,
      "d": 230.76900000000023,
      "v": 100
    },
    {
      "midi": 48,
      "hit": false,
      "t": 127846.02600000011,
      "d": 115.38450000000012,
      "v": 100
    },
    {
      "midi": 40,
      "hit": false,
      "t": 127849.87214999982,
      "d": 230.76900000000023,
      "v": 120
    },
    {
      "midi": 60,
      "hit": false,
      "t": 128076.79500000007,
      "d": 230.76900000000023,
      "v": 100
    },
    {
      "midi": 36,
      "hit": false,
      "t": 128076.79500000011,
      "d": 115.38450000000012,
      "v": 100
    },
    {
      "midi": 36,
      "hit": false,
      "t": 128538.33299999982,
      "d": 3.8461499999975786,
      "v": 100
    },
    {
      "midi": 24,
      "hit": false,
      "t": 128538.33300000012,
      "d": 230.76900000000023,
      "v": 100
    },
    {
      "midi": 36,
      "hit": false,
      "t": 128653.71750000012,
      "d": 115.38450000000012,
      "v": 100
    },
    {
      "midi": 48,
      "hit": false,
      "t": 128769.10200000012,
      "d": 115.38450000000012,
      "v": 100
    },
    {
      "midi": 40,
      "hit": false,
      "t": 128772.94814999982,
      "d": 230.76900000000023,
      "v": 120
    },
    {
      "midi": 43,
      "hit": false,
      "t": 128884.48650000012,
      "d": 115.38450000000012,
      "v": 100
    },
    {
      "midi": 62,
      "hit": false,
      "t": 128999.87100000007,
      "d": 230.76900000000023,
      "v": 100
    },
    {
      "midi": 36,
      "hit": false,
      "t": 128999.87100000012,
      "d": 115.38450000000012,
      "v": 100
    },
    {
      "midi": 53,
      "hit": false,
      "t": 129230.64000000007,
      "d": 1846.1520000000019,
      "v": 100
    },
    {
      "midi": 50,
      "hit": false,
      "t": 129230.64000000007,
      "d": 1846.1520000000019,
      "v": 100
    },
    {
      "midi": 46,
      "hit": false,
      "t": 129230.64000000007,
      "d": 1846.1520000000019,
      "v": 100
    },
    {
      "midi": 58,
      "hit": false,
      "t": 129230.64000000007,
      "d": 1846.1520000000019,
      "v": 100
    },
    {
      "midi": 34,
      "hit": false,
      "t": 129230.64000000012,
      "d": 230.76900000000023,
      "v": 100
    },
    {
      "midi": 36,
      "hit": false,
      "t": 129238.33229999982,
      "d": 230.76900000000023,
      "v": 120
    },
    {
      "midi": 64,
      "hit": false,
      "t": 129461.40900000007,
      "d": 346.15350000000035,
      "v": 100
    },
    {
      "midi": 46,
      "hit": false,
      "t": 129576.79350000012,
      "d": 0,
      "v": 100
    },
    {
      "midi": 58,
      "hit": false,
      "t": 129692.17800000012,
      "d": 115.38450000000012,
      "v": 100
    },
    {
      "midi": 40,
      "hit": false,
      "t": 129699.87029999982,
      "d": 230.76900000000023,
      "v": 120
    },
    {
      "midi": 65,
      "hit": false,
      "t": 129922.94700000007,
      "d": 692.3070000000007,
      "v": 100
    },
    {
      "midi": 46,
      "hit": false,
      "t": 129922.94700000012,
      "d": 115.38450000000012,
      "v": 100
    },
    {
      "midi": 36,
      "hit": false,
      "t": 130384.48499999983,
      "d": 7.692299999995157,
      "v": 100
    },
    {
      "midi": 67,
      "hit": false,
      "t": 130384.48500000007,
      "d": 346.15350000000035,
      "v": 100
    },
    {
      "midi": 34,
      "hit": false,
      "t": 130384.48500000012,
      "d": 230.76900000000023,
      "v": 100
    },
    {
      "midi": 46,
      "hit": false,
      "t": 130499.86950000012,
      "d": 115.38450000000012,
      "v": 100
    },
    {
      "midi": 58,
      "hit": false,
      "t": 130615.25400000012,
      "d": 115.38450000000012,
      "v": 100
    },
    {
      "midi": 53,
      "hit": false,
      "t": 130730.63850000012,
      "d": 115.38450000000012,
      "v": 100
    },
    {
      "midi": 40,
      "hit": false,
      "t": 130846.02299999983,
      "d": 7.692299999995157,
      "v": 120
    },
    {
      "midi": 45,
      "hit": false,
      "t": 130846.02300000007,
      "d": 230.76900000000023,
      "v": 100
    },
    {
      "midi": 57,
      "hit": false,
      "t": 130846.02300000007,
      "d": 230.76900000000023,
      "v": 100
    },
    {
      "midi": 69,
      "hit": false,
      "t": 130846.02300000007,
      "d": 230.76900000000023,
      "v": 100
    },
    {
      "midi": 33,
      "hit": false,
      "t": 130846.02300000012,
      "d": 115.38450000000012,
      "v": 100
    },
    {
      "midi": 55,
      "hit": false,
      "t": 131307.56100000007,
      "d": 230.76900000000023,
      "v": 100
    },
    {
      "midi": 67,
      "hit": false,
      "t": 131307.56100000007,
      "d": 346.1534999999858,
      "v": 100
    },
    {
      "midi": 33,
      "hit": false,
      "t": 131307.5610000001,
      "d": 115.38449999998556,
      "v": 100
    },
    {
      "midi": 40,
      "hit": false,
      "t": 131538.3299999998,
      "d": 0,
      "v": 120
    },
    {
      "midi": 33,
      "hit": false,
      "t": 131538.33000000007,
      "d": 115.38449999998556,
      "v": 100
    },
    {
      "midi": 45,
      "hit": false,
      "t": 131538.33000000007,
      "d": 0,
      "v": 100
    },
    {
      "midi": 58,
      "hit": false,
      "t": 131538.33000000007,
      "d": 230.76900000000023,
      "v": 100
    },
    {
      "midi": 70,
      "hit": false,
      "t": 131538.33000000007,
      "d": 230.76899999997113,
      "v": 100
    },
    {
      "midi": 40,
      "hit": false,
      "t": 131769.0989999998,
      "d": 0,
      "v": 120
    },
    {
      "midi": 33,
      "hit": false,
      "t": 131769.09900000005,
      "d": 115.38449999998556,
      "v": 100
    },
    {
      "midi": 69,
      "hit": false,
      "t": 131769.09900000005,
      "d": 230.76900000000023,
      "v": 100
    },
    {
      "midi": 45,
      "hit": false,
      "t": 131769.09900000007,
      "d": 0,
      "v": 100
    },
    {
      "midi": 57,
      "hit": false,
      "t": 131769.09900000007,
      "d": 230.76900000000023,
      "v": 100
    },
    {
      "midi": 21,
      "hit": false,
      "t": 132230.63700000002,
      "d": 230.76899999997113,
      "v": 100
    },
    {
      "midi": 36,
      "hit": false,
      "t": 132346.0214999998,
      "d": 115.38449999998556,
      "v": 120
    },
    {
      "midi": 33,
      "hit": false,
      "t": 132346.0215,
      "d": 115.38449999998556,
      "v": 100
    },
    {
      "midi": 45,
      "hit": false,
      "t": 132461.406,
      "d": 115.38449999998556,
      "v": 100
    },
    {
      "midi": 40,
      "hit": false,
      "t": 132576.79049999977,
      "d": 0,
      "v": 120
    },
    {
      "midi": 40,
      "hit": false,
      "t": 132576.79049999997,
      "d": 115.38449999998556,
      "v": 100
    },
    {
      "midi": 40,
      "hit": false,
      "t": 132692.17499999976,
      "d": 0,
      "v": 120
    },
    {
      "midi": 34,
      "hit": false,
      "t": 132692.17499999996,
      "d": 115.38449999998556,
      "v": 100
    },
    {
      "midi": 36,
      "hit": false,
      "t": 132922.94399999973,
      "d": 461.53800000000047,
      "v": 120
    },
    {
      "midi": 26,
      "hit": false,
      "t": 132922.94399999993,
      "d": 230.76900000000023,
      "v": 100
    },
    {
      "midi": 50,
      "hit": false,
      "t": 132922.944,
      "d": 1846.1520000000019,
      "v": 100
    },
    {
      "midi": 57,
      "hit": false,
      "t": 132922.944,
      "d": 1846.1520000000019,
      "v": 100
    },
    {
      "midi": 69,
      "hit": false,
      "t": 132922.94400000005,
      "d": 230.76900000000023,
      "v": 100
    },
    {
      "midi": 62,
      "hit": false,
      "t": 132922.94400000008,
      "d": 1846.1520000000019,
      "v": 100
    },
    {
      "midi": 57,
      "hit": false,
      "t": 132922.94400000008,
      "d": 1846.1520000000019,
      "v": 100
    },
    {
      "midi": 38,
      "hit": false,
      "t": 133269.09749999992,
      "d": 0,
      "v": 100
    },
    {
      "midi": 40,
      "hit": false,
      "t": 133384.48199999973,
      "d": 230.76900000000023,
      "v": 120
    },
    {
      "midi": 50,
      "hit": false,
      "t": 133384.4819999999,
      "d": 115.38449999998556,
      "v": 100
    },
    {
      "midi": 62,
      "hit": false,
      "t": 133384.48200000005,
      "d": 0,
      "v": 100
    },
    {
      "midi": 38,
      "hit": false,
      "t": 133615.25099999987,
      "d": 115.38449999998556,
      "v": 100
    },
    {
      "midi": 64,
      "hit": false,
      "t": 133615.25100000005,
      "d": 230.76900000000023,
      "v": 100
    },
    {
      "midi": 65,
      "hit": false,
      "t": 133846.02000000005,
      "d": 230.76900000000023,
      "v": 100
    },
    {
      "midi": 36,
      "hit": false,
      "t": 134076.78899999973,
      "d": 0,
      "v": 120
    },
    {
      "midi": 26,
      "hit": false,
      "t": 134076.78899999984,
      "d": 230.76899999997113,
      "v": 100
    },
    {
      "midi": 67,
      "hit": false,
      "t": 134076.78900000005,
      "d": 230.76900000000023,
      "v": 100
    },
    {
      "midi": 38,
      "hit": false,
      "t": 134192.17349999983,
      "d": 115.38449999998556,
      "v": 100
    },
    {
      "midi": 40,
      "hit": false,
      "t": 134307.55799999973,
      "d": 230.76900000000023,
      "v": 120
    },
    {
      "midi": 50,
      "hit": false,
      "t": 134307.55799999982,
      "d": 115.38449999998556,
      "v": 100
    },
    {
      "midi": 45,
      "hit": false,
      "t": 134422.9424999998,
      "d": 115.38449999998556,
      "v": 100
    },
    {
      "midi": 38,
      "hit": false,
      "t": 134538.3269999998,
      "d": 115.38449999998556,
      "v": 100
    },
    {
      "midi": 69,
      "hit": false,
      "t": 134538.32700000005,
      "d": 0,
      "v": 100
    },
    {
      "midi": 36,
      "hit": false,
      "t": 134769.09599999973,
      "d": 230.76900000000023,
      "v": 120
    },
    {
      "midi": 34,
      "hit": false,
      "t": 134769.09599999976,
      "d": 230.76900000000023,
      "v": 100
    },
    {
      "midi": 53,
      "hit": false,
      "t": 134769.096,
      "d": 1846.1520000000019,
      "v": 100
    },
    {
      "midi": 46,
      "hit": false,
      "t": 134769.096,
      "d": 1846.1520000000019,
      "v": 100
    },
    {
      "midi": 50,
      "hit": false,
      "t": 134769.09600000008,
      "d": 0,
      "v": 100
    },
    {
      "midi": 53,
      "hit": false,
      "t": 134769.09600000008,
      "d": 0,
      "v": 100
    },
    {
      "midi": 58,
      "hit": false,
      "t": 134769.09600000008,
      "d": 1846.1520000000019,
      "v": 100
    },
    {
      "midi": 46,
      "hit": false,
      "t": 134769.09600000008,
      "d": 1846.1520000000019,
      "v": 100
    },
    {
      "midi": 70,
      "hit": false,
      "t": 134999.86500000005,
      "d": 230.76900000000023,
      "v": 100
    },
    {
      "midi": 46,
      "hit": false,
      "t": 135115.24949999974,
      "d": 0,
      "v": 100
    },
    {
      "midi": 40,
      "hit": false,
      "t": 135230.63399999973,
      "d": 230.76900000000023,
      "v": 120
    },
    {
      "midi": 58,
      "hit": false,
      "t": 135230.63399999973,
      "d": 115.38449999998556,
      "v": 100
    },
    {
      "midi": 46,
      "hit": false,
      "t": 135461.4029999997,
      "d": 230.76900000000023,
      "v": 100
    },
    {
      "midi": 67,
      "hit": false,
      "t": 135461.40300000005,
      "d": 230.76900000000023,
      "v": 100
    },
    {
      "midi": 34,
      "hit": false,
      "t": 135922.9409999997,
      "d": 230.76899999997113,
      "v": 100
    },
    {
      "midi": 36,
      "hit": false,
      "t": 135922.94099999973,
      "d": 0,
      "v": 120
    },
    {
      "midi": 65,
      "hit": false,
      "t": 135922.94100000005,
      "d": 230.76900000000023,
      "v": 100
    },
    {
      "midi": 46,
      "hit": false,
      "t": 136038.3254999997,
      "d": 115.38449999998556,
      "v": 100
    },
    {
      "midi": 58,
      "hit": false,
      "t": 136153.70999999967,
      "d": 115.38449999998556,
      "v": 100
    },
    {
      "midi": 40,
      "hit": false,
      "t": 136153.70999999973,
      "d": 230.76900000000023,
      "v": 120
    },
    {
      "midi": 53,
      "hit": false,
      "t": 136269.09449999966,
      "d": 115.38449999998556,
      "v": 100
    },
    {
      "midi": 46,
      "hit": false,
      "t": 136384.47899999964,
      "d": 115.38449999998556,
      "v": 100
    },
    {
      "midi": 67,
      "hit": false,
      "t": 136384.47900000005,
      "d": 230.76900000000023,
      "v": 100
    },
    {
      "midi": 24,
      "hit": false,
      "t": 136615.2479999996,
      "d": 115.38449999998556,
      "v": 100
    },
    {
      "midi": 36,
      "hit": false,
      "t": 136615.24799999973,
      "d": 230.76900000000023,
      "v": 120
    },
    {
      "midi": 55,
      "hit": false,
      "t": 136615.248,
      "d": 1846.1520000000019,
      "v": 100
    },
    {
      "midi": 60,
      "hit": false,
      "t": 136615.24800000008,
      "d": 1846.1520000000019,
      "v": 100
    },
    {
      "midi": 52,
      "hit": false,
      "t": 136615.24800000008,
      "d": 1846.1520000000019,
      "v": 100
    },
    {
      "midi": 55,
      "hit": false,
      "t": 136615.24800000008,
      "d": 1846.1520000000019,
      "v": 100
    },
    {
      "midi": 60,
      "hit": false,
      "t": 136846.01700000005,
      "d": 230.76900000000023,
      "v": 100
    },
    {
      "midi": 36,
      "hit": false,
      "t": 136961.40149999957,
      "d": 0,
      "v": 100
    },
    {
      "midi": 48,
      "hit": false,
      "t": 137076.78599999956,
      "d": 115.38449999998556,
      "v": 100
    },
    {
      "midi": 40,
      "hit": false,
      "t": 137076.78599999973,
      "d": 230.76900000000023,
      "v": 120
    },
    {
      "midi": 62,
      "hit": false,
      "t": 137076.78600000005,
      "d": 230.76900000000023,
      "v": 100
    },
    {
      "midi": 36,
      "hit": false,
      "t": 137307.55499999953,
      "d": 115.38449999998556,
      "v": 100
    },
    {
      "midi": 64,
      "hit": false,
      "t": 137307.55500000005,
      "d": 230.76900000000023,
      "v": 100
    },
    {
      "midi": 65,
      "hit": false,
      "t": 137538.32400000005,
      "d": 230.76900000000023,
      "v": 100
    },
    {
      "midi": 24,
      "hit": false,
      "t": 137769.0929999995,
      "d": 230.76899999997113,
      "v": 100
    },
    {
      "midi": 36,
      "hit": false,
      "t": 137769.09299999973,
      "d": 0,
      "v": 120
    },
    {
      "midi": 36,
      "hit": false,
      "t": 137884.47749999948,
      "d": 115.38449999998556,
      "v": 100
    },
    {
      "midi": 48,
      "hit": false,
      "t": 137999.86199999947,
      "d": 115.38449999998556,
      "v": 100
    },
    {
      "midi": 40,
      "hit": false,
      "t": 137999.86199999973,
      "d": 230.76900000000023,
      "v": 120
    },
    {
      "midi": 67,
      "hit": false,
      "t": 137999.86200000005,
      "d": 0,
      "v": 100
    },
    {
      "midi": 43,
      "hit": false,
      "t": 138115.24649999946,
      "d": 115.38449999998556,
      "v": 100
    },
    {
      "midi": 36,
      "hit": false,
      "t": 138230.63099999944,
      "d": 115.38449999998556,
      "v": 100
    },
    {
      "midi": 67,
      "hit": false,
      "t": 138230.63100000005,
      "d": 0,
      "v": 100
    },
    {
      "midi": 17,
      "hit": false,
      "t": 138461.3999999994,
      "d": 115.38449999998556,
      "v": 100
    },
    {
      "midi": 36,
      "hit": false,
      "t": 138461.39999999973,
      "d": 230.76900000000023,
      "v": 120
    },
    {
      "midi": 48,
      "hit": false,
      "t": 138461.4,
      "d": 0,
      "v": 100
    },
    {
      "midi": 43,
      "hit": false,
      "t": 138461.4,
      "d": 1846.1520000000019,
      "v": 100
    },
    {
      "midi": 48,
      "hit": false,
      "t": 138461.40000000008,
      "d": 0,
      "v": 100
    },
    {
      "midi": 45,
      "hit": false,
      "t": 138461.40000000008,
      "d": 1846.1520000000019,
      "v": 100
    },
    {
      "midi": 41,
      "hit": false,
      "t": 138461.40000000008,
      "d": 1846.1520000000019,
      "v": 100
    },
    {
      "midi": 69,
      "hit": false,
      "t": 138692.16900000005,
      "d": 230.76900000000023,
      "v": 100
    },
    {
      "midi": 29,
      "hit": false,
      "t": 138807.55349999937,
      "d": 0,
      "v": 100
    },
    {
      "midi": 41,
      "hit": false,
      "t": 138922.93799999935,
      "d": 115.38449999998556,
      "v": 100
    },
    {
      "midi": 40,
      "hit": false,
      "t": 138922.93799999973,
      "d": 230.76900000000023,
      "v": 120
    },
    {
      "midi": 29,
      "hit": false,
      "t": 139153.70699999933,
      "d": 115.38449999998556,
      "v": 100
    },
    {
      "midi": 65,
      "hit": false,
      "t": 139153.70700000005,
      "d": 230.76900000000023,
      "v": 100
    },
    {
      "midi": 17,
      "hit": false,
      "t": 139615.2449999993,
      "d": 115.38449999998556,
      "v": 100
    },
    {
      "midi": 36,
      "hit": false,
      "t": 139615.24499999973,
      "d": 0,
      "v": 120
    },
    {
      "midi": 67,
      "hit": false,
      "t": 139615.24500000005,
      "d": 230.76900000000023,
      "v": 100
    },
    {
      "midi": 29,
      "hit": false,
      "t": 139730.62949999928,
      "d": 115.38449999998556,
      "v": 100
    },
    {
      "midi": 41,
      "hit": false,
      "t": 139846.01399999927,
      "d": 115.38449999998556,
      "v": 100
    },
    {
      "midi": 40,
      "hit": false,
      "t": 139846.01399999973,
      "d": 230.76900000000023,
      "v": 120
    },
    {
      "midi": 36,
      "hit": false,
      "t": 139961.39849999925,
      "d": 115.38449999998556,
      "v": 100
    },
    {
      "midi": 29,
      "hit": false,
      "t": 140076.78299999924,
      "d": 115.38449999998556,
      "v": 100
    },
    {
      "midi": 26,
      "hit": false,
      "t": 140307.5519999992,
      "d": 230.76900000000023,
      "v": 100
    },
    {
      "midi": 57,
      "hit": false,
      "t": 140307.552,
      "d": 1846.1520000000019,
      "v": 100
    },
    {
      "midi": 50,
      "hit": false,
      "t": 140307.552,
      "d": 1846.1520000000019,
      "v": 100
    },
    {
      "midi": 69,
      "hit": false,
      "t": 140307.55200000005,
      "d": 230.76900000000023,
      "v": 100
    },
    {
      "midi": 53,
      "hit": false,
      "t": 140307.55200000008,
      "d": 0,
      "v": 100
    },
    {
      "midi": 62,
      "hit": false,
      "t": 140307.55200000008,
      "d": 1846.1520000000019,
      "v": 100
    },
    {
      "midi": 57,
      "hit": false,
      "t": 140307.55200000008,
      "d": 1846.1520000000019,
      "v": 100
    },
    {
      "midi": 36,
      "hit": false,
      "t": 140311.39814999973,
      "d": 230.76900000000023,
      "v": 120
    },
    {
      "midi": 38,
      "hit": false,
      "t": 140653.7054999992,
      "d": 0,
      "v": 100
    },
    {
      "midi": 50,
      "hit": false,
      "t": 140769.08999999918,
      "d": 115.38449999998556,
      "v": 100
    },
    {
      "midi": 62,
      "hit": false,
      "t": 140769.09000000005,
      "d": 0,
      "v": 100
    },
    {
      "midi": 40,
      "hit": false,
      "t": 140772.93614999973,
      "d": 230.76900000000023,
      "v": 120
    },
    {
      "midi": 38,
      "hit": false,
      "t": 140999.85899999915,
      "d": 115.38449999998556,
      "v": 100
    },
    {
      "midi": 64,
      "hit": false,
      "t": 140999.85900000005,
      "d": 230.76900000000023,
      "v": 100
    },
    {
      "midi": 65,
      "hit": false,
      "t": 141230.62800000006,
      "d": 230.76900000000023,
      "v": 100
    },
    {
      "midi": 26,
      "hit": false,
      "t": 141461.39699999912,
      "d": 230.76899999997113,
      "v": 100
    },
    {
      "midi": 67,
      "hit": false,
      "t": 141461.39700000006,
      "d": 230.76900000000023,
      "v": 100
    },
    {
      "midi": 36,
      "hit": false,
      "t": 141465.24314999973,
      "d": 0,
      "v": 120
    },
    {
      "midi": 38,
      "hit": false,
      "t": 141576.7814999991,
      "d": 115.38449999998556,
      "v": 100
    },
    {
      "midi": 50,
      "hit": false,
      "t": 141692.1659999991,
      "d": 115.38449999998556,
      "v": 100
    },
    {
      "midi": 40,
      "hit": false,
      "t": 141696.01214999973,
      "d": 230.76900000000023,
      "v": 120
    },
    {
      "midi": 45,
      "hit": false,
      "t": 141807.55049999908,
      "d": 115.38449999998556,
      "v": 100
    },
    {
      "midi": 38,
      "hit": false,
      "t": 141922.93499999907,
      "d": 115.38449999998556,
      "v": 100
    },
    {
      "midi": 69,
      "hit": false,
      "t": 141922.93500000006,
      "d": 0,
      "v": 100
    },
    {
      "midi": 34,
      "hit": false,
      "t": 142153.70399999904,
      "d": 230.76900000000023,
      "v": 100
    },
    {
      "midi": 53,
      "hit": false,
      "t": 142153.704,
      "d": 1846.1520000000019,
      "v": 100
    },
    {
      "midi": 46,
      "hit": false,
      "t": 142153.704,
      "d": 1846.1520000000019,
      "v": 100
    },
    {
      "midi": 53,
      "hit": false,
      "t": 142153.70400000009,
      "d": 0,
      "v": 100
    },
    {
      "midi": 50,
      "hit": false,
      "t": 142153.70400000009,
      "d": 0,
      "v": 100
    },
    {
      "midi": 58,
      "hit": false,
      "t": 142153.70400000009,
      "d": 1846.1520000000019,
      "v": 100
    },
    {
      "midi": 46,
      "hit": false,
      "t": 142153.70400000009,
      "d": 1846.1520000000019,
      "v": 100
    },
    {
      "midi": 36,
      "hit": false,
      "t": 142161.39629999973,
      "d": 230.76900000000023,
      "v": 120
    },
    {
      "midi": 70,
      "hit": false,
      "t": 142384.47300000006,
      "d": 230.76900000000023,
      "v": 100
    },
    {
      "midi": 46,
      "hit": false,
      "t": 142499.85749999902,
      "d": 0,
      "v": 100
    },
    {
      "midi": 58,
      "hit": false,
      "t": 142615.241999999,
      "d": 115.38449999998556,
      "v": 100
    },
    {
      "midi": 40,
      "hit": false,
      "t": 142622.93429999973,
      "d": 230.76900000000023,
      "v": 120
    },
    {
      "midi": 46,
      "hit": false,
      "t": 142846.01099999898,
      "d": 230.76900000000023,
      "v": 100
    },
    {
      "midi": 67,
      "hit": false,
      "t": 142846.01100000006,
      "d": 230.76900000000023,
      "v": 100
    },
    {
      "midi": 34,
      "hit": false,
      "t": 143307.54899999898,
      "d": 230.76899999997113,
      "v": 100
    },
    {
      "midi": 65,
      "hit": false,
      "t": 143307.54900000006,
      "d": 230.76900000000023,
      "v": 100
    },
    {
      "midi": 36,
      "hit": false,
      "t": 143315.24129999973,
      "d": 0,
      "v": 120
    },
    {
      "midi": 46,
      "hit": false,
      "t": 143422.93349999897,
      "d": 115.38449999998556,
      "v": 100
    },
    {
      "midi": 58,
      "hit": false,
      "t": 143538.31799999895,
      "d": 115.38449999998556,
      "v": 100
    },
    {
      "midi": 40,
      "hit": false,
      "t": 143546.01029999973,
      "d": 230.76900000000023,
      "v": 120
    },
    {
      "midi": 53,
      "hit": false,
      "t": 143653.70249999894,
      "d": 115.38449999998556,
      "v": 100
    },
    {
      "midi": 46,
      "hit": false,
      "t": 143769.08699999892,
      "d": 115.38449999998556,
      "v": 100
    },
    {
      "midi": 67,
      "hit": false,
      "t": 143769.08700000006,
      "d": 230.76900000000023,
      "v": 100
    },
    {
      "midi": 24,
      "hit": false,
      "t": 143999.8559999989,
      "d": 115.38449999998556,
      "v": 100
    },
    {
      "midi": 55,
      "hit": false,
      "t": 143999.856,
      "d": 1846.1520000000019,
      "v": 100
    },
    {
      "midi": 60,
      "hit": false,
      "t": 143999.8560000001,
      "d": 1846.1520000000019,
      "v": 100
    },
    {
      "midi": 52,
      "hit": false,
      "t": 143999.8560000001,
      "d": 1846.1520000000019,
      "v": 100
    },
    {
      "midi": 55,
      "hit": false,
      "t": 143999.8560000001,
      "d": 1846.1520000000019,
      "v": 100
    },
    {
      "midi": 36,
      "hit": false,
      "t": 144011.39444999973,
      "d": 230.76900000000023,
      "v": 120
    },
    {
      "midi": 60,
      "hit": false,
      "t": 144230.62500000006,
      "d": 230.76900000000023,
      "v": 100
    },
    {
      "midi": 36,
      "hit": false,
      "t": 144346.00949999885,
      "d": 0,
      "v": 100
    },
    {
      "midi": 48,
      "hit": false,
      "t": 144461.39399999884,
      "d": 115.38449999998556,
      "v": 100
    },
    {
      "midi": 62,
      "hit": false,
      "t": 144461.39400000006,
      "d": 230.76900000000023,
      "v": 100
    },
    {
      "midi": 40,
      "hit": false,
      "t": 144472.93244999973,
      "d": 230.76900000000023,
      "v": 120
    },
    {
      "midi": 36,
      "hit": false,
      "t": 144692.1629999988,
      "d": 115.38449999998556,
      "v": 100
    },
    {
      "midi": 64,
      "hit": false,
      "t": 144692.16300000006,
      "d": 230.76900000000023,
      "v": 100
    },
    {
      "midi": 65,
      "hit": false,
      "t": 144922.93200000006,
      "d": 230.76900000000023,
      "v": 100
    },
    {
      "midi": 24,
      "hit": false,
      "t": 145153.70099999878,
      "d": 230.76899999997113,
      "v": 100
    },
    {
      "midi": 36,
      "hit": false,
      "t": 145165.23944999973,
      "d": 0,
      "v": 120
    },
    {
      "midi": 36,
      "hit": false,
      "t": 145269.08549999876,
      "d": 115.38449999998556,
      "v": 100
    },
    {
      "midi": 48,
      "hit": false,
      "t": 145384.46999999875,
      "d": 115.38449999998556,
      "v": 100
    },
    {
      "midi": 67,
      "hit": false,
      "t": 145384.47000000006,
      "d": 0,
      "v": 100
    },
    {
      "midi": 40,
      "hit": false,
      "t": 145396.00844999973,
      "d": 230.76900000000023,
      "v": 120
    },
    {
      "midi": 43,
      "hit": false,
      "t": 145499.85449999874,
      "d": 115.38449999998556,
      "v": 100
    },
    {
      "midi": 36,
      "hit": false,
      "t": 145615.23899999872,
      "d": 115.38449999998556,
      "v": 100
    },
    {
      "midi": 67,
      "hit": false,
      "t": 145615.23900000006,
      "d": 0,
      "v": 100
    },
    {
      "midi": 17,
      "hit": false,
      "t": 145846.0079999987,
      "d": 115.38449999998556,
      "v": 100
    },
    {
      "midi": 48,
      "hit": false,
      "t": 145846.008,
      "d": 0,
      "v": 100
    },
    {
      "midi": 43,
      "hit": false,
      "t": 145846.008,
      "d": 1846.1520000000019,
      "v": 100
    },
    {
      "midi": 48,
      "hit": false,
      "t": 145846.0080000001,
      "d": 0,
      "v": 100
    },
    {
      "midi": 53,
      "hit": false,
      "t": 145846.0080000001,
      "d": 1846.1520000000019,
      "v": 100
    },
    {
      "midi": 45,
      "hit": false,
      "t": 145846.0080000001,
      "d": 1846.1520000000019,
      "v": 100
    },
    {
      "midi": 41,
      "hit": false,
      "t": 145846.0080000001,
      "d": 1846.1520000000019,
      "v": 100
    },
    {
      "midi": 36,
      "hit": false,
      "t": 145861.39259999973,
      "d": 230.76900000000023,
      "v": 120
    },
    {
      "midi": 69,
      "hit": false,
      "t": 146076.77700000006,
      "d": 230.76900000000023,
      "v": 100
    },
    {
      "midi": 29,
      "hit": false,
      "t": 146192.16149999865,
      "d": 0,
      "v": 100
    },
    {
      "midi": 41,
      "hit": false,
      "t": 146307.54599999863,
      "d": 115.38449999998556,
      "v": 100
    },
    {
      "midi": 40,
      "hit": false,
      "t": 146322.93059999973,
      "d": 230.76900000000023,
      "v": 120
    },
    {
      "midi": 29,
      "hit": false,
      "t": 146538.3149999986,
      "d": 115.38449999998556,
      "v": 100
    },
    {
      "midi": 65,
      "hit": false,
      "t": 146538.31500000006,
      "d": 230.76900000000023,
      "v": 100
    },
    {
      "midi": 17,
      "hit": false,
      "t": 146999.85299999858,
      "d": 115.38449999998556,
      "v": 100
    },
    {
      "midi": 67,
      "hit": false,
      "t": 146999.85300000006,
      "d": 230.76900000000023,
      "v": 100
    },
    {
      "midi": 36,
      "hit": false,
      "t": 147015.23759999973,
      "d": 0,
      "v": 120
    },
    {
      "midi": 29,
      "hit": false,
      "t": 147115.23749999856,
      "d": 115.38449999998556,
      "v": 100
    },
    {
      "midi": 41,
      "hit": false,
      "t": 147230.62199999855,
      "d": 115.38449999998556,
      "v": 100
    },
    {
      "midi": 40,
      "hit": false,
      "t": 147246.00659999973,
      "d": 230.76900000000023,
      "v": 120
    },
    {
      "midi": 36,
      "hit": false,
      "t": 147346.00649999853,
      "d": 115.38449999998556,
      "v": 100
    },
    {
      "midi": 29,
      "hit": false,
      "t": 147461.39099999852,
      "d": 115.38449999998556,
      "v": 100
    },
    {
      "midi": 19,
      "hit": false,
      "t": 147692.1599999985,
      "d": 115.38449999998556,
      "v": 100
    },
    {
      "midi": 36,
      "hit": false,
      "t": 147692.15999999974,
      "d": 461.53800000000047,
      "v": 120
    },
    {
      "midi": 70,
      "hit": false,
      "t": 147692.16000000006,
      "d": 923.0760000000009,
      "v": 100
    },
    {
      "midi": 43,
      "hit": false,
      "t": 147692.1600000001,
      "d": 1846.1520000000019,
      "v": 100
    },
    {
      "midi": 50,
      "hit": false,
      "t": 147692.1600000001,
      "d": 1846.1520000000019,
      "v": 100
    },
    {
      "midi": 46,
      "hit": false,
      "t": 147692.1600000001,
      "d": 1846.1520000000019,
      "v": 100
    },
    {
      "midi": 31,
      "hit": false,
      "t": 148038.31349999845,
      "d": 0,
      "v": 100
    },
    {
      "midi": 43,
      "hit": false,
      "t": 148153.69799999843,
      "d": 115.38449999998556,
      "v": 100
    },
    {
      "midi": 40,
      "hit": false,
      "t": 148153.69799999974,
      "d": 461.53800000000047,
      "v": 120
    },
    {
      "midi": 31,
      "hit": false,
      "t": 148384.4669999984,
      "d": 115.38449999998556,
      "v": 100
    },
    {
      "midi": 36,
      "hit": false,
      "t": 148615.23599999974,
      "d": 461.53800000000047,
      "v": 120
    },
    {
      "midi": 69,
      "hit": false,
      "t": 148615.23600000006,
      "d": 230.76900000000023,
      "v": 100
    },
    {
      "midi": 19,
      "hit": false,
      "t": 148846.00499999837,
      "d": 115.38449999998556,
      "v": 100
    },
    {
      "midi": 31,
      "hit": false,
      "t": 148961.38949999836,
      "d": 115.38449999998556,
      "v": 100
    },
    {
      "midi": 43,
      "hit": false,
      "t": 149076.77399999835,
      "d": 115.38449999998556,
      "v": 100
    },
    {
      "midi": 40,
      "hit": false,
      "t": 149076.77399999974,
      "d": 461.53800000000047,
      "v": 120
    },
    {
      "midi": 65,
      "hit": false,
      "t": 149076.77400000006,
      "d": 230.76900000000023,
      "v": 100
    },
    {
      "midi": 38,
      "hit": false,
      "t": 149192.15849999833,
      "d": 115.38449999998556,
      "v": 100
    },
    {
      "midi": 31,
      "hit": false,
      "t": 149307.54299999832,
      "d": 115.38449999998556,
      "v": 100
    },
    {
      "midi": 67,
      "hit": false,
      "t": 149307.54300000006,
      "d": 230.76900000000023,
      "v": 100
    },
    {
      "midi": 24,
      "hit": false,
      "t": 149538.3119999983,
      "d": 115.38449999998556,
      "v": 100
    },
    {
      "midi": 36,
      "hit": false,
      "t": 149538.31199999974,
      "d": 461.53800000000047,
      "v": 120
    },
    {
      "midi": 55,
      "hit": false,
      "t": 149538.3120000001,
      "d": 0,
      "v": 100
    },
    {
      "midi": 60,
      "hit": false,
      "t": 149538.3120000001,
      "d": 1846.1520000000019,
      "v": 100
    },
    {
      "midi": 70,
      "hit": false,
      "t": 149769.08100000003,
      "d": 230.76900000000023,
      "v": 100
    },
    {
      "midi": 36,
      "hit": false,
      "t": 149884.46549999824,
      "d": 0,
      "v": 100
    },
    {
      "midi": 48,
      "hit": false,
      "t": 149999.84999999823,
      "d": 115.38449999998556,
      "v": 100
    },
    {
      "midi": 40,
      "hit": false,
      "t": 149999.84999999974,
      "d": 461.53800000000047,
      "v": 120
    },
    {
      "midi": 65,
      "hit": false,
      "t": 149999.85000000003,
      "d": 0,
      "v": 100
    },
    {
      "midi": 69,
      "hit": false,
      "t": 149999.85000000003,
      "d": 230.76900000000023,
      "v": 100
    },
    {
      "midi": 36,
      "hit": false,
      "t": 150230.6189999982,
      "d": 115.38449999998556,
      "v": 100
    },
    {
      "midi": 36,
      "hit": false,
      "t": 150461.38799999974,
      "d": 461.53800000000047,
      "v": 120
    },
    {
      "midi": 65,
      "hit": false,
      "t": 150461.38800000004,
      "d": 230.76900000000023,
      "v": 100
    },
    {
      "midi": 70,
      "hit": false,
      "t": 150461.38800000004,
      "d": 230.76900000000023,
      "v": 100
    },
    {
      "midi": 24,
      "hit": false,
      "t": 150692.15699999817,
      "d": 230.76899999997113,
      "v": 100
    },
    {
      "midi": 36,
      "hit": false,
      "t": 150807.54149999816,
      "d": 115.38449999998556,
      "v": 100
    },
    {
      "midi": 48,
      "hit": false,
      "t": 150922.92599999814,
      "d": 115.38449999998556,
      "v": 100
    },
    {
      "midi": 40,
      "hit": false,
      "t": 150922.92599999974,
      "d": 461.53800000000047,
      "v": 120
    },
    {
      "midi": 70,
      "hit": false,
      "t": 150922.92600000004,
      "d": 230.76900000000023,
      "v": 100
    },
    {
      "midi": 43,
      "hit": false,
      "t": 151038.31049999813,
      "d": 115.38449999998556,
      "v": 100
    },
    {
      "midi": 36,
      "hit": false,
      "t": 151153.69499999812,
      "d": 115.38449999998556,
      "v": 100
    },
    {
      "midi": 65,
      "hit": false,
      "t": 151153.69500000004,
      "d": 0,
      "v": 100
    },
    {
      "midi": 69,
      "hit": false,
      "t": 151153.69500000004,
      "d": 230.76900000000023,
      "v": 100
    },
    {
      "midi": 72,
      "hit": false,
      "t": 151153.69500000007,
      "d": 230.76900000000023,
      "v": 100
    },
    {
      "midi": 21,
      "hit": false,
      "t": 151384.4639999981,
      "d": 115.38449999998556,
      "v": 100
    },
    {
      "midi": 52,
      "hit": false,
      "t": 151384.4640000001,
      "d": 0,
      "v": 100
    },
    {
      "midi": 48,
      "hit": false,
      "t": 151384.4640000001,
      "d": 0,
      "v": 100
    },
    {
      "midi": 57,
      "hit": false,
      "t": 151384.4640000001,
      "d": 1846.1520000000019,
      "v": 100
    },
    {
      "midi": 45,
      "hit": false,
      "t": 151384.4640000001,
      "d": 1846.1520000000019,
      "v": 100
    },
    {
      "midi": 36,
      "hit": false,
      "t": 151388.31014999974,
      "d": 461.53800000000047,
      "v": 120
    },
    {
      "midi": 70,
      "hit": false,
      "t": 151615.23300000007,
      "d": 230.76900000000023,
      "v": 100
    },
    {
      "midi": 33,
      "hit": false,
      "t": 151730.61749999804,
      "d": 0,
      "v": 100
    },
    {
      "midi": 45,
      "hit": false,
      "t": 151846.00199999803,
      "d": 115.38449999998556,
      "v": 100
    },
    {
      "midi": 40,
      "hit": false,
      "t": 151849.84814999974,
      "d": 461.53800000000047,
      "v": 120
    },
    {
      "midi": 33,
      "hit": false,
      "t": 152076.770999998,
      "d": 115.38449999998556,
      "v": 100
    },
    {
      "midi": 69,
      "hit": false,
      "t": 152307.54000000007,
      "d": 0,
      "v": 100
    },
    {
      "midi": 36,
      "hit": false,
      "t": 152311.38614999974,
      "d": 461.53800000000047,
      "v": 120
    },
    {
      "midi": 21,
      "hit": false,
      "t": 152538.30899999797,
      "d": 230.76899999997113,
      "v": 100
    },
    {
      "midi": 33,
      "hit": false,
      "t": 152653.69349999796,
      "d": 115.38449999998556,
      "v": 100
    },
    {
      "midi": 45,
      "hit": false,
      "t": 152769.07799999794,
      "d": 115.38449999998556,
      "v": 100
    },
    {
      "midi": 40,
      "hit": false,
      "t": 152772.92414999974,
      "d": 461.53800000000047,
      "v": 120
    },
    {
      "midi": 40,
      "hit": false,
      "t": 152884.46249999793,
      "d": 115.38449999998556,
      "v": 100
    },
    {
      "midi": 33,
      "hit": false,
      "t": 152999.8469999979,
      "d": 115.38449999998556,
      "v": 100
    },
    {
      "midi": 67,
      "hit": false,
      "t": 152999.84700000007,
      "d": 0,
      "v": 100
    },
    {
      "midi": 34,
      "hit": false,
      "t": 153230.61599999788,
      "d": 230.76900000000023,
      "v": 100
    },
    {
      "midi": 58,
      "hit": false,
      "t": 153230.6160000001,
      "d": 1846.1520000000019,
      "v": 100
    },
    {
      "midi": 53,
      "hit": false,
      "t": 153230.6160000001,
      "d": 1846.1520000000019,
      "v": 100
    },
    {
      "midi": 36,
      "hit": false,
      "t": 153238.30829999974,
      "d": 461.53800000000047,
      "v": 120
    },
    {
      "midi": 46,
      "hit": false,
      "t": 153576.76949999787,
      "d": 0,
      "v": 100
    },
    {
      "midi": 58,
      "hit": false,
      "t": 153692.15399999786,
      "d": 115.38449999998556,
      "v": 100
    },
    {
      "midi": 69,
      "hit": false,
      "t": 153692.15400000007,
      "d": 0,
      "v": 100
    },
    {
      "midi": 40,
      "hit": false,
      "t": 153699.84629999974,
      "d": 461.53800000000047,
      "v": 120
    },
    {
      "midi": 46,
      "hit": false,
      "t": 153922.92299999783,
      "d": 230.76900000000023,
      "v": 100
    },
    {
      "midi": 36,
      "hit": false,
      "t": 154161.38429999974,
      "d": 461.53800000000047,
      "v": 120
    },
    {
      "midi": 34,
      "hit": false,
      "t": 154384.46099999783,
      "d": 230.76899999997113,
      "v": 100
    },
    {
      "midi": 46,
      "hit": false,
      "t": 154499.8454999978,
      "d": 115.38449999998556,
      "v": 100
    },
    {
      "midi": 58,
      "hit": false,
      "t": 154615.2299999978,
      "d": 115.38449999998556,
      "v": 100
    },
    {
      "midi": 40,
      "hit": false,
      "t": 154622.92229999974,
      "d": 461.53800000000047,
      "v": 120
    },
    {
      "midi": 53,
      "hit": false,
      "t": 154730.61449999778,
      "d": 115.38449999998556,
      "v": 100
    },
    {
      "midi": 46,
      "hit": false,
      "t": 154845.99899999777,
      "d": 115.38449999998556,
      "v": 100
    },
    {
      "midi": 19,
      "hit": false,
      "t": 155076.76799999774,
      "d": 115.38449999998556,
      "v": 100
    },
    {
      "midi": 70,
      "hit": false,
      "t": 155076.76800000007,
      "d": 923.0760000000009,
      "v": 100
    },
    {
      "midi": 50,
      "hit": false,
      "t": 155076.7680000001,
      "d": 0,
      "v": 100
    },
    {
      "midi": 46,
      "hit": false,
      "t": 155076.7680000001,
      "d": 0,
      "v": 100
    },
    {
      "midi": 43,
      "hit": false,
      "t": 155076.7680000001,
      "d": 1846.1520000000019,
      "v": 100
    },
    {
      "midi": 36,
      "hit": false,
      "t": 155088.30644999974,
      "d": 461.53800000000047,
      "v": 120
    },
    {
      "midi": 31,
      "hit": false,
      "t": 155422.9214999977,
      "d": 0,
      "v": 100
    },
    {
      "midi": 43,
      "hit": false,
      "t": 155538.30599999768,
      "d": 115.38449999998556,
      "v": 100
    },
    {
      "midi": 40,
      "hit": false,
      "t": 155549.84444999974,
      "d": 461.53800000000047,
      "v": 120
    },
    {
      "midi": 31,
      "hit": false,
      "t": 155769.07499999765,
      "d": 115.38449999998556,
      "v": 100
    },
    {
      "midi": 69,
      "hit": false,
      "t": 155999.84400000007,
      "d": 230.76900000000023,
      "v": 100
    },
    {
      "midi": 36,
      "hit": false,
      "t": 156011.38244999974,
      "d": 461.53800000000047,
      "v": 120
    },
    {
      "midi": 19,
      "hit": false,
      "t": 156230.61299999763,
      "d": 115.38449999998556,
      "v": 100
    },
    {
      "midi": 31,
      "hit": false,
      "t": 156345.9974999976,
      "d": 115.38449999998556,
      "v": 100
    },
    {
      "midi": 43,
      "hit": false,
      "t": 156461.3819999976,
      "d": 115.38449999998556,
      "v": 100
    },
    {
      "midi": 65,
      "hit": false,
      "t": 156461.38200000007,
      "d": 230.76900000000023,
      "v": 100
    },
    {
      "midi": 40,
      "hit": false,
      "t": 156472.92044999974,
      "d": 461.53800000000047,
      "v": 120
    },
    {
      "midi": 38,
      "hit": false,
      "t": 156576.76649999758,
      "d": 115.38449999998556,
      "v": 100
    },
    {
      "midi": 31,
      "hit": false,
      "t": 156692.15099999757,
      "d": 115.38449999998556,
      "v": 100
    },
    {
      "midi": 67,
      "hit": false,
      "t": 156692.15100000007,
      "d": 230.76900000000023,
      "v": 100
    },
    {
      "midi": 24,
      "hit": false,
      "t": 156922.91999999754,
      "d": 115.38449999998556,
      "v": 100
    },
    {
      "midi": 55,
      "hit": false,
      "t": 156922.9200000001,
      "d": 0,
      "v": 100
    },
    {
      "midi": 60,
      "hit": false,
      "t": 156922.9200000001,
      "d": 1846.1520000000019,
      "v": 100
    },
    {
      "midi": 36,
      "hit": false,
      "t": 156938.30459999974,
      "d": 461.53800000000047,
      "v": 120
    },
    {
      "midi": 70,
      "hit": false,
      "t": 157153.68900000004,
      "d": 230.76900000000023,
      "v": 100
    },
    {
      "midi": 36,
      "hit": false,
      "t": 157269.0734999975,
      "d": 0,
      "v": 100
    },
    {
      "midi": 48,
      "hit": false,
      "t": 157384.45799999748,
      "d": 115.38449999998556,
      "v": 100
    },
    {
      "midi": 65,
      "hit": false,
      "t": 157384.45800000004,
      "d": 0,
      "v": 100
    },
    {
      "midi": 69,
      "hit": false,
      "t": 157384.45800000004,
      "d": 230.76900000000023,
      "v": 100
    },
    {
      "midi": 40,
      "hit": false,
      "t": 157399.84259999974,
      "d": 461.53800000000047,
      "v": 120
    },
    {
      "midi": 36,
      "hit": false,
      "t": 157615.22699999745,
      "d": 115.38449999998556,
      "v": 100
    },
    {
      "midi": 65,
      "hit": false,
      "t": 157845.99600000004,
      "d": 230.76900000000023,
      "v": 100
    },
    {
      "midi": 70,
      "hit": false,
      "t": 157845.99600000004,
      "d": 230.76900000000023,
      "v": 100
    },
    {
      "midi": 36,
      "hit": false,
      "t": 157861.38059999974,
      "d": 461.53800000000047,
      "v": 120
    },
    {
      "midi": 24,
      "hit": false,
      "t": 158076.76499999742,
      "d": 230.76899999997113,
      "v": 100
    },
    {
      "midi": 36,
      "hit": false,
      "t": 158192.1494999974,
      "d": 115.38449999998556,
      "v": 100
    },
    {
      "midi": 48,
      "hit": false,
      "t": 158307.5339999974,
      "d": 115.38449999998556,
      "v": 100
    },
    {
      "midi": 70,
      "hit": false,
      "t": 158307.53400000004,
      "d": 230.76900000000023,
      "v": 100
    },
    {
      "midi": 40,
      "hit": false,
      "t": 158322.91859999974,
      "d": 461.53800000000047,
      "v": 120
    },
    {
      "midi": 43,
      "hit": false,
      "t": 158422.91849999738,
      "d": 115.38449999998556,
      "v": 100
    },
    {
      "midi": 36,
      "hit": false,
      "t": 158538.30299999737,
      "d": 115.38449999998556,
      "v": 100
    },
    {
      "midi": 65,
      "hit": false,
      "t": 158538.30300000004,
      "d": 0,
      "v": 100
    },
    {
      "midi": 69,
      "hit": false,
      "t": 158538.30300000004,
      "d": 230.76900000000023,
      "v": 100
    },
    {
      "midi": 72,
      "hit": false,
      "t": 158538.30300000007,
      "d": 230.76900000000023,
      "v": 100
    },
    {
      "midi": 21,
      "hit": false,
      "t": 158769.07199999734,
      "d": 115.38449999998556,
      "v": 100
    },
    {
      "midi": 52,
      "hit": false,
      "t": 158769.0720000001,
      "d": 0,
      "v": 100
    },
    {
      "midi": 48,
      "hit": false,
      "t": 158769.0720000001,
      "d": 0,
      "v": 100
    },
    {
      "midi": 57,
      "hit": false,
      "t": 158769.0720000001,
      "d": 1846.1520000000019,
      "v": 100
    },
    {
      "midi": 45,
      "hit": false,
      "t": 158769.0720000001,
      "d": 1846.1520000000019,
      "v": 100
    },
    {
      "midi": 36,
      "hit": false,
      "t": 158788.30274999974,
      "d": 461.53800000000047,
      "v": 120
    },
    {
      "midi": 70,
      "hit": false,
      "t": 158999.84100000007,
      "d": 230.76900000000023,
      "v": 100
    },
    {
      "midi": 33,
      "hit": false,
      "t": 159115.2254999973,
      "d": 0,
      "v": 100
    },
    {
      "midi": 45,
      "hit": false,
      "t": 159230.60999999728,
      "d": 115.38449999998556,
      "v": 100
    },
    {
      "midi": 40,
      "hit": false,
      "t": 159249.84074999974,
      "d": 461.53800000000047,
      "v": 120
    },
    {
      "midi": 33,
      "hit": false,
      "t": 159461.37899999725,
      "d": 115.38449999998556,
      "v": 100
    },
    {
      "midi": 69,
      "hit": false,
      "t": 159692.14800000007,
      "d": 0,
      "v": 100
    },
    {
      "midi": 36,
      "hit": false,
      "t": 159711.37874999974,
      "d": 461.53800000000047,
      "v": 120
    },
    {
      "midi": 21,
      "hit": false,
      "t": 159922.91699999722,
      "d": 230.76899999997113,
      "v": 100
    },
    {
      "midi": 33,
      "hit": false,
      "t": 160038.3014999972,
      "d": 115.38449999998556,
      "v": 100
    },
    {
      "midi": 45,
      "hit": false,
      "t": 160153.6859999972,
      "d": 115.38449999998556,
      "v": 100
    },
    {
      "midi": 40,
      "hit": false,
      "t": 160172.91674999974,
      "d": 461.53800000000047,
      "v": 120
    },
    {
      "midi": 40,
      "hit": false,
      "t": 160269.07049999718,
      "d": 115.38449999998556,
      "v": 100
    },
    {
      "midi": 33,
      "hit": false,
      "t": 160384.45499999716,
      "d": 115.38449999998556,
      "v": 100
    },
    {
      "midi": 67,
      "hit": false,
      "t": 160384.45500000007,
      "d": 0,
      "v": 100
    },
    {
      "midi": 24,
      "hit": false,
      "t": 160615.22399999714,
      "d": 115.38449999998556,
      "v": 100
    },
    {
      "midi": 48,
      "hit": false,
      "t": 160615.2240000001,
      "d": 0,
      "v": 100
    },
    {
      "midi": 52,
      "hit": false,
      "t": 160615.2240000001,
      "d": 0,
      "v": 100
    },
    {
      "midi": 60,
      "hit": false,
      "t": 160615.2240000001,
      "d": 1846.1520000000019,
      "v": 100
    },
    {
      "midi": 36,
      "hit": false,
      "t": 160638.30089999974,
      "d": 461.53800000000047,
      "v": 120
    },
    {
      "midi": 36,
      "hit": false,
      "t": 160961.3774999971,
      "d": 0,
      "v": 100
    },
    {
      "midi": 48,
      "hit": false,
      "t": 161076.76199999708,
      "d": 115.38449999998556,
      "v": 100
    },
    {
      "midi": 69,
      "hit": false,
      "t": 161076.76200000008,
      "d": 0,
      "v": 100
    },
    {
      "midi": 40,
      "hit": false,
      "t": 161099.83889999974,
      "d": 461.53800000000047,
      "v": 120
    },
    {
      "midi": 36,
      "hit": false,
      "t": 161307.53099999705,
      "d": 115.38449999998556,
      "v": 100
    },
    {
      "midi": 36,
      "hit": false,
      "t": 161561.37689999974,
      "d": 461.53800000000047,
      "v": 120
    },
    {
      "midi": 24,
      "hit": false,
      "t": 161769.06899999702,
      "d": 230.76899999997113,
      "v": 100
    },
    {
      "midi": 62,
      "hit": false,
      "t": 161769.06900000008,
      "d": 230.76900000000023,
      "v": 100
    },
    {
      "midi": 36,
      "hit": false,
      "t": 161884.453499997,
      "d": 115.38449999998556,
      "v": 100
    },
    {
      "midi": 48,
      "hit": false,
      "t": 161999.837999997,
      "d": 115.38449999998556,
      "v": 100
    },
    {
      "midi": 60,
      "hit": false,
      "t": 161999.83800000008,
      "d": 230.76900000000023,
      "v": 100
    },
    {
      "midi": 40,
      "hit": false,
      "t": 162022.91489999974,
      "d": 461.53800000000047,
      "v": 120
    },
    {
      "midi": 43,
      "hit": false,
      "t": 162115.22249999698,
      "d": 115.38449999998556,
      "v": 100
    },
    {
      "midi": 36,
      "hit": false,
      "t": 162230.60699999696,
      "d": 115.38449999998556,
      "v": 100
    },
    {
      "midi": 62,
      "hit": false,
      "t": 162230.60700000008,
      "d": 230.76900000000023,
      "v": 100
    },
    {
      "midi": 19,
      "hit": false,
      "t": 162461.37599999693,
      "d": 115.38449999998556,
      "v": 100
    },
    {
      "midi": 48,
      "hit": false,
      "t": 162461.376,
      "d": 230.76900000000023,
      "v": 100
    },
    {
      "midi": 55,
      "hit": false,
      "t": 162461.3760000001,
      "d": 0,
      "v": 100
    },
    {
      "midi": 46,
      "hit": false,
      "t": 162461.3760000001,
      "d": 1846.1520000000019,
      "v": 100
    },
    {
      "midi": 43,
      "hit": false,
      "t": 162461.3760000001,
      "d": 1846.1520000000019,
      "v": 100
    },
    {
      "midi": 50,
      "hit": false,
      "t": 162461.3760000001,
      "d": 1846.1520000000019,
      "v": 100
    },
    {
      "midi": 36,
      "hit": false,
      "t": 162484.45289999974,
      "d": 461.53800000000047,
      "v": 120
    },
    {
      "midi": 31,
      "hit": false,
      "t": 162807.5294999969,
      "d": 0,
      "v": 100
    },
    {
      "midi": 50,
      "hit": false,
      "t": 162807.52949999998,
      "d": 115.38449999998556,
      "v": 100
    },
    {
      "midi": 43,
      "hit": false,
      "t": 162922.91399999688,
      "d": 115.38449999998556,
      "v": 100
    },
    {
      "midi": 52,
      "hit": false,
      "t": 162922.91399999996,
      "d": 115.38449999998556,
      "v": 100
    },
    {
      "midi": 40,
      "hit": false,
      "t": 162945.99089999974,
      "d": 461.53800000000047,
      "v": 120
    },
    {
      "midi": 53,
      "hit": false,
      "t": 163038.29849999995,
      "d": 115.38449999998556,
      "v": 100
    },
    {
      "midi": 31,
      "hit": false,
      "t": 163153.68299999685,
      "d": 115.38449999998556,
      "v": 100
    },
    {
      "midi": 55,
      "hit": false,
      "t": 163153.68299999993,
      "d": 115.38449999998556,
      "v": 100
    },
    {
      "midi": 57,
      "hit": false,
      "t": 163269.06749999992,
      "d": 115.38449999998556,
      "v": 100
    },
    {
      "midi": 58,
      "hit": false,
      "t": 163384.4519999999,
      "d": 115.38449999998556,
      "v": 100
    },
    {
      "midi": 36,
      "hit": false,
      "t": 163407.52889999974,
      "d": 461.53800000000047,
      "v": 120
    },
    {
      "midi": 57,
      "hit": false,
      "t": 163499.8364999999,
      "d": 115.38449999998556,
      "v": 100
    },
    {
      "midi": 19,
      "hit": false,
      "t": 163615.22099999682,
      "d": 230.76899999997113,
      "v": 100
    },
    {
      "midi": 55,
      "hit": false,
      "t": 163615.22099999987,
      "d": 115.38449999998556,
      "v": 100
    },
    {
      "midi": 31,
      "hit": false,
      "t": 163730.6054999968,
      "d": 115.38449999998556,
      "v": 100
    },
    {
      "midi": 53,
      "hit": false,
      "t": 163730.60549999986,
      "d": 115.38449999998556,
      "v": 100
    },
    {
      "midi": 43,
      "hit": false,
      "t": 163845.9899999968,
      "d": 115.38449999998556,
      "v": 100
    },
    {
      "midi": 52,
      "hit": false,
      "t": 163845.98999999985,
      "d": 115.38449999998556,
      "v": 100
    },
    {
      "midi": 40,
      "hit": false,
      "t": 163869.06689999974,
      "d": 461.53800000000047,
      "v": 120
    },
    {
      "midi": 38,
      "hit": false,
      "t": 163961.37449999677,
      "d": 115.38449999998556,
      "v": 100
    },
    {
      "midi": 50,
      "hit": false,
      "t": 163961.37449999983,
      "d": 115.38449999998556,
      "v": 100
    },
    {
      "midi": 31,
      "hit": false,
      "t": 164076.75899999676,
      "d": 115.38449999998556,
      "v": 100
    },
    {
      "midi": 21,
      "hit": false,
      "t": 164307.52799999673,
      "d": 115.38449999998556,
      "v": 100
    },
    {
      "midi": 55,
      "hit": false,
      "t": 164307.52799999982,
      "d": 115.38449999998556,
      "v": 100
    },
    {
      "midi": 57,
      "hit": false,
      "t": 164307.5280000001,
      "d": 1846.1520000000019,
      "v": 100
    },
    {
      "midi": 48,
      "hit": false,
      "t": 164307.5280000001,
      "d": 1846.1520000000019,
      "v": 100
    },
    {
      "midi": 45,
      "hit": false,
      "t": 164307.5280000001,
      "d": 1846.1520000000019,
      "v": 100
    },
    {
      "midi": 52,
      "hit": false,
      "t": 164307.5280000001,
      "d": 1846.1520000000019,
      "v": 100
    },
    {
      "midi": 36,
      "hit": false,
      "t": 164334.45104999974,
      "d": 461.53800000000047,
      "v": 120
    },
    {
      "midi": 53,
      "hit": false,
      "t": 164538.2969999998,
      "d": 115.38449999998556,
      "v": 100
    },
    {
      "midi": 33,
      "hit": false,
      "t": 164653.6814999967,
      "d": 0,
      "v": 100
    },
    {
      "midi": 45,
      "hit": false,
      "t": 164769.06599999667,
      "d": 115.38449999998556,
      "v": 100
    },
    {
      "midi": 55,
      "hit": false,
      "t": 164769.06599999976,
      "d": 115.38449999998556,
      "v": 100
    },
    {
      "midi": 40,
      "hit": false,
      "t": 164795.98904999974,
      "d": 461.53800000000047,
      "v": 120
    },
    {
      "midi": 33,
      "hit": false,
      "t": 164999.83499999664,
      "d": 115.38449999998556,
      "v": 100
    },
    {
      "midi": 52,
      "hit": false,
      "t": 164999.83499999973,
      "d": 115.38449999998556,
      "v": 100
    },
    {
      "midi": 50,
      "hit": false,
      "t": 165115.21949999972,
      "d": 115.38449999998556,
      "v": 100
    },
    {
      "midi": 36,
      "hit": false,
      "t": 165257.52704999974,
      "d": 461.53800000000047,
      "v": 120
    },
    {
      "midi": 48,
      "hit": false,
      "t": 165345.9884999997,
      "d": 115.38449999998556,
      "v": 100
    },
    {
      "midi": 21,
      "hit": false,
      "t": 165461.37299999662,
      "d": 230.76899999997113,
      "v": 100
    },
    {
      "midi": 46,
      "hit": false,
      "t": 165461.37299999967,
      "d": 115.38449999998556,
      "v": 100
    },
    {
      "midi": 33,
      "hit": false,
      "t": 165576.7574999966,
      "d": 115.38449999998556,
      "v": 100
    },
    {
      "midi": 45,
      "hit": false,
      "t": 165692.1419999966,
      "d": 115.38449999998556,
      "v": 100
    },
    {
      "midi": 45,
      "hit": false,
      "t": 165692.14199999964,
      "d": 230.76900000000023,
      "v": 100
    },
    {
      "midi": 40,
      "hit": false,
      "t": 165719.06504999974,
      "d": 461.53800000000047,
      "v": 120
    },
    {
      "midi": 40,
      "hit": false,
      "t": 165807.52649999657,
      "d": 115.38449999998556,
      "v": 100
    },
    {
      "midi": 33,
      "hit": false,
      "t": 165922.91099999656,
      "d": 115.38449999998556,
      "v": 100
    },
    {
      "midi": 43,
      "hit": false,
      "t": 165922.91099999964,
      "d": 230.76900000000023,
      "v": 100
    },
    {
      "midi": 22,
      "hit": false,
      "t": 166153.67999999653,
      "d": 115.38449999998556,
      "v": 100
    },
    {
      "midi": 52,
      "hit": false,
      "t": 166153.67999999964,
      "d": 230.76900000000023,
      "v": 100
    },
    {
      "midi": 58,
      "hit": false,
      "t": 166153.6800000001,
      "d": 1846.1520000000019,
      "v": 100
    },
    {
      "midi": 50,
      "hit": false,
      "t": 166153.6800000001,
      "d": 1846.1520000000019,
      "v": 100
    },
    {
      "midi": 46,
      "hit": false,
      "t": 166153.6800000001,
      "d": 1846.1520000000019,
      "v": 100
    },
    {
      "midi": 53,
      "hit": false,
      "t": 166153.6800000001,
      "d": 1846.1520000000019,
      "v": 100
    },
    {
      "midi": 36,
      "hit": false,
      "t": 166184.44919999974,
      "d": 461.53800000000047,
      "v": 120
    },
    {
      "midi": 53,
      "hit": false,
      "t": 166384.44899999964,
      "d": 115.38449999998556,
      "v": 100
    },
    {
      "midi": 34,
      "hit": false,
      "t": 166499.8334999965,
      "d": 0,
      "v": 100
    },
    {
      "midi": 52,
      "hit": false,
      "t": 166499.83349999963,
      "d": 115.38449999998556,
      "v": 100
    },
    {
      "midi": 46,
      "hit": false,
      "t": 166615.21799999647,
      "d": 115.38449999998556,
      "v": 100
    },
    {
      "midi": 48,
      "hit": false,
      "t": 166615.21799999962,
      "d": 115.38449999998556,
      "v": 100
    },
    {
      "midi": 40,
      "hit": false,
      "t": 166645.98719999974,
      "d": 461.53800000000047,
      "v": 120
    },
    {
      "midi": 34,
      "hit": false,
      "t": 166845.98699999644,
      "d": 115.38449999998556,
      "v": 100
    },
    {
      "midi": 36,
      "hit": false,
      "t": 167107.52519999974,
      "d": 461.53800000000047,
      "v": 120
    },
    {
      "midi": 22,
      "hit": false,
      "t": 167307.5249999964,
      "d": 230.76899999997113,
      "v": 100
    },
    {
      "midi": 34,
      "hit": false,
      "t": 167422.9094999964,
      "d": 115.38449999998556,
      "v": 100
    },
    {
      "midi": 46,
      "hit": false,
      "t": 167538.2939999964,
      "d": 115.38449999998556,
      "v": 100
    },
    {
      "midi": 48,
      "hit": false,
      "t": 167538.2939999996,
      "d": 0,
      "v": 100
    },
    {
      "midi": 40,
      "hit": false,
      "t": 167569.06319999974,
      "d": 461.53800000000047,
      "v": 120
    },
    {
      "midi": 41,
      "hit": false,
      "t": 167653.67849999637,
      "d": 115.38449999998556,
      "v": 100
    },
    {
      "midi": 34,
      "hit": false,
      "t": 167769.06299999636,
      "d": 115.38449999998556,
      "v": 100
    },
    {
      "midi": 48,
      "hit": false,
      "t": 167769.0629999996,
      "d": 0,
      "v": 100
    },
    {
      "midi": 24,
      "hit": false,
      "t": 167999.83199999633,
      "d": 115.38449999998556,
      "v": 100
    },
    {
      "midi": 52,
      "hit": false,
      "t": 167999.8319999996,
      "d": 230.76900000000023,
      "v": 100
    },
    {
      "midi": 60,
      "hit": false,
      "t": 167999.8320000001,
      "d": 1846.1520000000019,
      "v": 100
    },
    {
      "midi": 52,
      "hit": false,
      "t": 167999.8320000001,
      "d": 1846.1520000000019,
      "v": 100
    },
    {
      "midi": 48,
      "hit": false,
      "t": 167999.8320000001,
      "d": 1846.1520000000019,
      "v": 100
    },
    {
      "midi": 55,
      "hit": false,
      "t": 167999.8320000001,
      "d": 1846.1520000000019,
      "v": 100
    },
    {
      "midi": 36,
      "hit": false,
      "t": 168034.44734999974,
      "d": 461.53800000000047,
      "v": 120
    },
    {
      "midi": 53,
      "hit": false,
      "t": 168230.6009999996,
      "d": 115.38449999998556,
      "v": 100
    },
    {
      "midi": 52,
      "hit": false,
      "t": 168345.98549999957,
      "d": 115.38449999998556,
      "v": 100
    },
    {
      "midi": 36,
      "hit": false,
      "t": 168357.5239499963,
      "d": 0,
      "v": 100
    },
    {
      "midi": 48,
      "hit": false,
      "t": 168461.36999999956,
      "d": 115.38449999998556,
      "v": 100
    },
    {
      "midi": 48,
      "hit": false,
      "t": 168472.9084499963,
      "d": 115.38449999998556,
      "v": 100
    },
    {
      "midi": 40,
      "hit": false,
      "t": 168495.98534999974,
      "d": 461.53800000000047,
      "v": 120
    },
    {
      "midi": 36,
      "hit": false,
      "t": 168703.67744999626,
      "d": 115.38449999998556,
      "v": 100
    },
    {
      "midi": 36,
      "hit": false,
      "t": 168957.52334999974,
      "d": 461.53800000000047,
      "v": 120
    },
    {
      "midi": 48,
      "hit": false,
      "t": 169076.75399999952,
      "d": 0,
      "v": 100
    },
    {
      "midi": 24,
      "hit": false,
      "t": 169165.21544999623,
      "d": 230.76899999997113,
      "v": 100
    },
    {
      "midi": 48,
      "hit": false,
      "t": 169230.5999999995,
      "d": 0,
      "v": 100
    },
    {
      "midi": 36,
      "hit": false,
      "t": 169280.59994999622,
      "d": 115.38449999998556,
      "v": 100
    },
    {
      "midi": 48,
      "hit": false,
      "t": 169384.4459999995,
      "d": 0,
      "v": 100
    },
    {
      "midi": 48,
      "hit": false,
      "t": 169395.9844499962,
      "d": 115.38449999998556,
      "v": 100
    },
    {
      "midi": 40,
      "hit": false,
      "t": 169419.06134999974,
      "d": 461.53800000000047,
      "v": 120
    },
    {
      "midi": 43,
      "hit": false,
      "t": 169511.3689499962,
      "d": 115.38449999998556,
      "v": 100
    },
    {
      "midi": 48,
      "hit": false,
      "t": 169538.2919999995,
      "d": 0,
      "v": 100
    },
    {
      "midi": 36,
      "hit": false,
      "t": 169626.75344999618,
      "d": 115.38449999998556,
      "v": 100
    },
    {
      "midi": 48,
      "hit": false,
      "t": 169692.13799999948,
      "d": 0,
      "v": 100
    },
    {
      "midi": 26,
      "hit": false,
      "t": 169845.98399999616,
      "d": 230.76900000000023,
      "v": 100
    },
    {
      "midi": 52,
      "hit": false,
      "t": 169845.98399999947,
      "d": 230.76900000000023,
      "v": 100
    },
    {
      "midi": 50,
      "hit": false,
      "t": 169845.98399999947,
      "d": 1846.1519999999437,
      "v": 100
    },
    {
      "midi": 36,
      "hit": false,
      "t": 169845.98399999973,
      "d": 461.53800000000047,
      "v": 120
    },
    {
      "midi": 50,
      "hit": false,
      "t": 169845.984,
      "d": 1846.1520000000019,
      "v": 100
    },
    {
      "midi": 57,
      "hit": false,
      "t": 169845.984,
      "d": 1846.1520000000019,
      "v": 100
    },
    {
      "midi": 69,
      "hit": false,
      "t": 169845.98400000008,
      "d": 230.76900000000023,
      "v": 100
    },
    {
      "midi": 62,
      "hit": false,
      "t": 169845.9840000001,
      "d": 1846.1520000000019,
      "v": 100
    },
    {
      "midi": 57,
      "hit": false,
      "t": 169845.9840000001,
      "d": 1846.1520000000019,
      "v": 100
    },
    {
      "midi": 53,
      "hit": false,
      "t": 170076.75299999947,
      "d": 115.38449999998556,
      "v": 100
    },
    {
      "midi": 38,
      "hit": false,
      "t": 170192.13749999614,
      "d": 0,
      "v": 100
    },
    {
      "midi": 52,
      "hit": false,
      "t": 170192.13749999946,
      "d": 115.38449999998556,
      "v": 100
    },
    {
      "midi": 50,
      "hit": false,
      "t": 170307.52199999613,
      "d": 115.38449999998556,
      "v": 100
    },
    {
      "midi": 48,
      "hit": false,
      "t": 170307.52199999944,
      "d": 115.38449999998556,
      "v": 100
    },
    {
      "midi": 40,
      "hit": false,
      "t": 170307.52199999974,
      "d": 230.76900000000023,
      "v": 120
    },
    {
      "midi": 62,
      "hit": false,
      "t": 170307.52200000008,
      "d": 0,
      "v": 100
    },
    {
      "midi": 38,
      "hit": false,
      "t": 170538.2909999961,
      "d": 115.38449999998556,
      "v": 100
    },
    {
      "midi": 64,
      "hit": false,
      "t": 170538.29100000008,
      "d": 230.76900000000023,
      "v": 100
    },
    {
      "midi": 65,
      "hit": false,
      "t": 170769.06000000008,
      "d": 230.76900000000023,
      "v": 100
    },
    {
      "midi": 26,
      "hit": false,
      "t": 170999.82899999607,
      "d": 230.76899999997113,
      "v": 100
    },
    {
      "midi": 36,
      "hit": false,
      "t": 170999.82899999974,
      "d": 0,
      "v": 120
    },
    {
      "midi": 67,
      "hit": false,
      "t": 170999.82900000009,
      "d": 230.76900000000023,
      "v": 100
    },
    {
      "midi": 38,
      "hit": false,
      "t": 171115.21349999605,
      "d": 115.38449999998556,
      "v": 100
    },
    {
      "midi": 50,
      "hit": false,
      "t": 171230.59799999604,
      "d": 115.38449999998556,
      "v": 100
    },
    {
      "midi": 40,
      "hit": false,
      "t": 171230.59799999974,
      "d": 230.76900000000023,
      "v": 120
    },
    {
      "midi": 45,
      "hit": false,
      "t": 171345.98249999603,
      "d": 115.38449999998556,
      "v": 100
    },
    {
      "midi": 38,
      "hit": false,
      "t": 171461.366999996,
      "d": 115.38449999998556,
      "v": 100
    },
    {
      "midi": 69,
      "hit": false,
      "t": 171461.3670000001,
      "d": 0,
      "v": 100
    },
    {
      "midi": 34,
      "hit": false,
      "t": 171692.13599999598,
      "d": 230.76900000000023,
      "v": 100
    },
    {
      "midi": 36,
      "hit": false,
      "t": 171692.13599999974,
      "d": 230.76900000000023,
      "v": 120
    },
    {
      "midi": 53,
      "hit": false,
      "t": 171692.136,
      "d": 1846.1520000000019,
      "v": 100
    },
    {
      "midi": 46,
      "hit": false,
      "t": 171692.136,
      "d": 1846.1520000000019,
      "v": 100
    },
    {
      "midi": 53,
      "hit": false,
      "t": 171692.13600000012,
      "d": 0,
      "v": 100
    },
    {
      "midi": 50,
      "hit": false,
      "t": 171692.13600000012,
      "d": 0,
      "v": 100
    },
    {
      "midi": 58,
      "hit": false,
      "t": 171692.13600000012,
      "d": 1846.1520000000019,
      "v": 100
    },
    {
      "midi": 46,
      "hit": false,
      "t": 171692.13600000012,
      "d": 1846.1520000000019,
      "v": 100
    },
    {
      "midi": 70,
      "hit": false,
      "t": 171922.9050000001,
      "d": 230.76900000000023,
      "v": 100
    },
    {
      "midi": 46,
      "hit": false,
      "t": 172038.28949999597,
      "d": 0,
      "v": 100
    },
    {
      "midi": 58,
      "hit": false,
      "t": 172153.67399999595,
      "d": 115.38449999998556,
      "v": 100
    },
    {
      "midi": 40,
      "hit": false,
      "t": 172153.67399999974,
      "d": 230.76900000000023,
      "v": 120
    },
    {
      "midi": 46,
      "hit": false,
      "t": 172384.44299999592,
      "d": 230.76900000000023,
      "v": 100
    },
    {
      "midi": 67,
      "hit": false,
      "t": 172384.4430000001,
      "d": 230.76900000000023,
      "v": 100
    },
    {
      "midi": 34,
      "hit": false,
      "t": 172845.98099999593,
      "d": 230.76899999997113,
      "v": 100
    },
    {
      "midi": 36,
      "hit": false,
      "t": 172845.98099999974,
      "d": 0,
      "v": 120
    },
    {
      "midi": 65,
      "hit": false,
      "t": 172845.9810000001,
      "d": 230.76900000000023,
      "v": 100
    },
    {
      "midi": 46,
      "hit": false,
      "t": 172961.3654999959,
      "d": 115.38449999998556,
      "v": 100
    },
    {
      "midi": 58,
      "hit": false,
      "t": 173076.7499999959,
      "d": 115.38449999998556,
      "v": 100
    },
    {
      "midi": 40,
      "hit": false,
      "t": 173076.74999999974,
      "d": 230.76900000000023,
      "v": 120
    },
    {
      "midi": 53,
      "hit": false,
      "t": 173192.13449999588,
      "d": 115.38449999998556,
      "v": 100
    },
    {
      "midi": 46,
      "hit": false,
      "t": 173307.51899999587,
      "d": 115.38449999998556,
      "v": 100
    },
    {
      "midi": 67,
      "hit": false,
      "t": 173307.5190000001,
      "d": 230.76900000000023,
      "v": 100
    },
    {
      "midi": 24,
      "hit": false,
      "t": 173538.28799999584,
      "d": 115.38449999998556,
      "v": 100
    },
    {
      "midi": 36,
      "hit": false,
      "t": 173538.28799999974,
      "d": 230.76900000000023,
      "v": 120
    },
    {
      "midi": 55,
      "hit": false,
      "t": 173538.288,
      "d": 1846.1520000000019,
      "v": 100
    },
    {
      "midi": 60,
      "hit": false,
      "t": 173538.28800000012,
      "d": 1846.1520000000019,
      "v": 100
    },
    {
      "midi": 52,
      "hit": false,
      "t": 173538.28800000012,
      "d": 1846.1520000000019,
      "v": 100
    },
    {
      "midi": 55,
      "hit": false,
      "t": 173538.28800000012,
      "d": 1846.1520000000019,
      "v": 100
    },
    {
      "midi": 60,
      "hit": false,
      "t": 173769.0570000001,
      "d": 230.76900000000023,
      "v": 100
    },
    {
      "midi": 36,
      "hit": false,
      "t": 173884.4414999958,
      "d": 0,
      "v": 100
    },
    {
      "midi": 48,
      "hit": false,
      "t": 173999.82599999578,
      "d": 115.38449999998556,
      "v": 100
    },
    {
      "midi": 40,
      "hit": false,
      "t": 173999.82599999974,
      "d": 230.76900000000023,
      "v": 120
    },
    {
      "midi": 62,
      "hit": false,
      "t": 173999.8260000001,
      "d": 230.76900000000023,
      "v": 100
    },
    {
      "midi": 36,
      "hit": false,
      "t": 174230.59499999575,
      "d": 115.38449999998556,
      "v": 100
    },
    {
      "midi": 64,
      "hit": false,
      "t": 174230.5950000001,
      "d": 230.76900000000023,
      "v": 100
    },
    {
      "midi": 65,
      "hit": false,
      "t": 174461.3640000001,
      "d": 230.76900000000023,
      "v": 100
    },
    {
      "midi": 24,
      "hit": false,
      "t": 174692.13299999572,
      "d": 230.76899999997113,
      "v": 100
    },
    {
      "midi": 36,
      "hit": false,
      "t": 174692.13299999974,
      "d": 0,
      "v": 120
    },
    {
      "midi": 36,
      "hit": false,
      "t": 174807.5174999957,
      "d": 115.38449999998556,
      "v": 100
    },
    {
      "midi": 48,
      "hit": false,
      "t": 174922.9019999957,
      "d": 115.38449999998556,
      "v": 100
    },
    {
      "midi": 40,
      "hit": false,
      "t": 174922.90199999974,
      "d": 230.76900000000023,
      "v": 120
    },
    {
      "midi": 67,
      "hit": false,
      "t": 174922.9020000001,
      "d": 0,
      "v": 100
    },
    {
      "midi": 43,
      "hit": false,
      "t": 175038.28649999568,
      "d": 115.38449999998556,
      "v": 100
    },
    {
      "midi": 36,
      "hit": false,
      "t": 175153.67099999567,
      "d": 115.38449999998556,
      "v": 100
    },
    {
      "midi": 67,
      "hit": false,
      "t": 175153.6710000001,
      "d": 0,
      "v": 100
    },
    {
      "midi": 17,
      "hit": false,
      "t": 175384.43999999564,
      "d": 115.38449999998556,
      "v": 100
    },
    {
      "midi": 36,
      "hit": false,
      "t": 175384.43999999974,
      "d": 230.76900000000023,
      "v": 120
    },
    {
      "midi": 48,
      "hit": false,
      "t": 175384.44,
      "d": 0,
      "v": 100
    },
    {
      "midi": 43,
      "hit": false,
      "t": 175384.44,
      "d": 1846.1520000000019,
      "v": 100
    },
    {
      "midi": 48,
      "hit": false,
      "t": 175384.44000000012,
      "d": 0,
      "v": 100
    },
    {
      "midi": 45,
      "hit": false,
      "t": 175384.44000000012,
      "d": 1846.1520000000019,
      "v": 100
    },
    {
      "midi": 41,
      "hit": false,
      "t": 175384.44000000012,
      "d": 1846.1520000000019,
      "v": 100
    },
    {
      "midi": 69,
      "hit": false,
      "t": 175615.2090000001,
      "d": 230.76900000000023,
      "v": 100
    },
    {
      "midi": 29,
      "hit": false,
      "t": 175730.5934999956,
      "d": 0,
      "v": 100
    },
    {
      "midi": 41,
      "hit": false,
      "t": 175845.97799999558,
      "d": 115.38449999998556,
      "v": 100
    },
    {
      "midi": 40,
      "hit": false,
      "t": 175845.97799999974,
      "d": 230.76900000000023,
      "v": 120
    },
    {
      "midi": 29,
      "hit": false,
      "t": 176076.74699999555,
      "d": 115.38449999998556,
      "v": 100
    },
    {
      "midi": 65,
      "hit": false,
      "t": 176076.7470000001,
      "d": 230.76900000000023,
      "v": 100
    },
    {
      "midi": 17,
      "hit": false,
      "t": 176538.28499999552,
      "d": 115.38449999998556,
      "v": 100
    },
    {
      "midi": 36,
      "hit": false,
      "t": 176538.28499999974,
      "d": 0,
      "v": 120
    },
    {
      "midi": 67,
      "hit": false,
      "t": 176538.2850000001,
      "d": 230.76900000000023,
      "v": 100
    },
    {
      "midi": 29,
      "hit": false,
      "t": 176653.6694999955,
      "d": 115.38449999998556,
      "v": 100
    },
    {
      "midi": 41,
      "hit": false,
      "t": 176769.0539999955,
      "d": 115.38449999998556,
      "v": 100
    },
    {
      "midi": 40,
      "hit": false,
      "t": 176769.05399999974,
      "d": 230.76900000000023,
      "v": 120
    },
    {
      "midi": 36,
      "hit": false,
      "t": 176884.43849999548,
      "d": 115.38449999998556,
      "v": 100
    },
    {
      "midi": 29,
      "hit": false,
      "t": 176999.82299999546,
      "d": 115.38449999998556,
      "v": 100
    },
    {
      "midi": 26,
      "hit": false,
      "t": 177230.59199999543,
      "d": 230.76900000000023,
      "v": 100
    },
    {
      "midi": 57,
      "hit": false,
      "t": 177230.592,
      "d": 1846.1520000000019,
      "v": 100
    },
    {
      "midi": 50,
      "hit": false,
      "t": 177230.592,
      "d": 1846.1520000000019,
      "v": 100
    },
    {
      "midi": 69,
      "hit": false,
      "t": 177230.5920000001,
      "d": 230.76900000000023,
      "v": 100
    },
    {
      "midi": 53,
      "hit": false,
      "t": 177230.59200000012,
      "d": 0,
      "v": 100
    },
    {
      "midi": 62,
      "hit": false,
      "t": 177230.59200000012,
      "d": 1846.1520000000019,
      "v": 100
    },
    {
      "midi": 57,
      "hit": false,
      "t": 177230.59200000012,
      "d": 1846.1520000000019,
      "v": 100
    },
    {
      "midi": 36,
      "hit": false,
      "t": 177234.43814999974,
      "d": 230.76900000000023,
      "v": 120
    },
    {
      "midi": 38,
      "hit": false,
      "t": 177576.74549999542,
      "d": 0,
      "v": 100
    },
    {
      "midi": 50,
      "hit": false,
      "t": 177692.1299999954,
      "d": 115.38449999998556,
      "v": 100
    },
    {
      "midi": 62,
      "hit": false,
      "t": 177692.1300000001,
      "d": 0,
      "v": 100
    },
    {
      "midi": 40,
      "hit": false,
      "t": 177695.97614999974,
      "d": 230.76900000000023,
      "v": 120
    },
    {
      "midi": 38,
      "hit": false,
      "t": 177922.89899999538,
      "d": 115.38449999998556,
      "v": 100
    },
    {
      "midi": 64,
      "hit": false,
      "t": 177922.8990000001,
      "d": 230.76900000000023,
      "v": 100
    },
    {
      "midi": 65,
      "hit": false,
      "t": 178153.6680000001,
      "d": 230.76900000000023,
      "v": 100
    },
    {
      "midi": 26,
      "hit": false,
      "t": 178384.43699999535,
      "d": 230.76899999997113,
      "v": 100
    },
    {
      "midi": 67,
      "hit": false,
      "t": 178384.4370000001,
      "d": 230.76900000000023,
      "v": 100
    },
    {
      "midi": 36,
      "hit": false,
      "t": 178388.28314999974,
      "d": 0,
      "v": 120
    },
    {
      "midi": 38,
      "hit": false,
      "t": 178499.82149999533,
      "d": 115.38449999998556,
      "v": 100
    },
    {
      "midi": 50,
      "hit": false,
      "t": 178615.20599999532,
      "d": 115.38449999998556,
      "v": 100
    },
    {
      "midi": 40,
      "hit": false,
      "t": 178619.05214999974,
      "d": 230.76900000000023,
      "v": 120
    },
    {
      "midi": 45,
      "hit": false,
      "t": 178730.5904999953,
      "d": 115.38449999998556,
      "v": 100
    },
    {
      "midi": 38,
      "hit": false,
      "t": 178845.9749999953,
      "d": 115.38449999998556,
      "v": 100
    },
    {
      "midi": 69,
      "hit": false,
      "t": 178845.9750000001,
      "d": 0,
      "v": 100
    },
    {
      "midi": 34,
      "hit": false,
      "t": 179076.74399999526,
      "d": 230.76900000000023,
      "v": 100
    },
    {
      "midi": 53,
      "hit": false,
      "t": 179076.744,
      "d": 1846.1520000000019,
      "v": 100
    },
    {
      "midi": 46,
      "hit": false,
      "t": 179076.744,
      "d": 1846.1520000000019,
      "v": 100
    },
    {
      "midi": 53,
      "hit": false,
      "t": 179076.74400000012,
      "d": 0,
      "v": 100
    },
    {
      "midi": 50,
      "hit": false,
      "t": 179076.74400000012,
      "d": 0,
      "v": 100
    },
    {
      "midi": 58,
      "hit": false,
      "t": 179076.74400000012,
      "d": 1846.1520000000019,
      "v": 100
    },
    {
      "midi": 46,
      "hit": false,
      "t": 179076.74400000012,
      "d": 1846.1520000000019,
      "v": 100
    },
    {
      "midi": 36,
      "hit": false,
      "t": 179084.43629999974,
      "d": 230.76900000000023,
      "v": 120
    },
    {
      "midi": 70,
      "hit": false,
      "t": 179307.5130000001,
      "d": 230.76900000000023,
      "v": 100
    },
    {
      "midi": 46,
      "hit": false,
      "t": 179422.89749999525,
      "d": 0,
      "v": 100
    },
    {
      "midi": 58,
      "hit": false,
      "t": 179538.28199999523,
      "d": 115.38449999998556,
      "v": 100
    },
    {
      "midi": 40,
      "hit": false,
      "t": 179545.97429999974,
      "d": 230.76900000000023,
      "v": 120
    },
    {
      "midi": 46,
      "hit": false,
      "t": 179769.0509999952,
      "d": 230.76900000000023,
      "v": 100
    },
    {
      "midi": 67,
      "hit": false,
      "t": 179769.0510000001,
      "d": 230.76900000000023,
      "v": 100
    },
    {
      "midi": 34,
      "hit": false,
      "t": 180230.5889999952,
      "d": 230.76899999997113,
      "v": 100
    },
    {
      "midi": 65,
      "hit": false,
      "t": 180230.5890000001,
      "d": 230.76900000000023,
      "v": 100
    },
    {
      "midi": 36,
      "hit": false,
      "t": 180238.28129999974,
      "d": 0,
      "v": 120
    },
    {
      "midi": 46,
      "hit": false,
      "t": 180345.9734999952,
      "d": 115.38449999998556,
      "v": 100
    },
    {
      "midi": 58,
      "hit": false,
      "t": 180461.35799999518,
      "d": 115.38449999998556,
      "v": 100
    },
    {
      "midi": 40,
      "hit": false,
      "t": 180469.05029999974,
      "d": 230.76900000000023,
      "v": 120
    },
    {
      "midi": 53,
      "hit": false,
      "t": 180576.74249999516,
      "d": 115.38449999998556,
      "v": 100
    },
    {
      "midi": 46,
      "hit": false,
      "t": 180692.12699999515,
      "d": 115.38449999998556,
      "v": 100
    },
    {
      "midi": 67,
      "hit": false,
      "t": 180692.1270000001,
      "d": 230.76900000000023,
      "v": 100
    },
    {
      "midi": 24,
      "hit": false,
      "t": 180922.89599999512,
      "d": 115.38449999998556,
      "v": 100
    },
    {
      "midi": 55,
      "hit": false,
      "t": 180922.896,
      "d": 1846.1520000000019,
      "v": 100
    },
    {
      "midi": 60,
      "hit": false,
      "t": 180922.89600000012,
      "d": 1846.1520000000019,
      "v": 100
    },
    {
      "midi": 52,
      "hit": false,
      "t": 180922.89600000012,
      "d": 1846.1520000000019,
      "v": 100
    },
    {
      "midi": 55,
      "hit": false,
      "t": 180922.89600000012,
      "d": 1846.1520000000019,
      "v": 100
    },
    {
      "midi": 36,
      "hit": false,
      "t": 180934.43444999974,
      "d": 230.76900000000023,
      "v": 120
    },
    {
      "midi": 60,
      "hit": false,
      "t": 181153.6650000001,
      "d": 230.76900000000023,
      "v": 100
    },
    {
      "midi": 36,
      "hit": false,
      "t": 181269.04949999508,
      "d": 0,
      "v": 100
    },
    {
      "midi": 48,
      "hit": false,
      "t": 181384.43399999506,
      "d": 115.38449999998556,
      "v": 100
    },
    {
      "midi": 62,
      "hit": false,
      "t": 181384.4340000001,
      "d": 230.76900000000023,
      "v": 100
    },
    {
      "midi": 40,
      "hit": false,
      "t": 181395.97244999974,
      "d": 230.76900000000023,
      "v": 120
    },
    {
      "midi": 36,
      "hit": false,
      "t": 181615.20299999503,
      "d": 115.38449999998556,
      "v": 100
    },
    {
      "midi": 64,
      "hit": false,
      "t": 181615.2030000001,
      "d": 230.76900000000023,
      "v": 100
    },
    {
      "midi": 65,
      "hit": false,
      "t": 181845.9720000001,
      "d": 230.76900000000023,
      "v": 100
    },
    {
      "midi": 24,
      "hit": false,
      "t": 182076.740999995,
      "d": 230.76899999997113,
      "v": 100
    },
    {
      "midi": 36,
      "hit": false,
      "t": 182088.27944999974,
      "d": 0,
      "v": 120
    },
    {
      "midi": 36,
      "hit": false,
      "t": 182192.125499995,
      "d": 115.38449999998556,
      "v": 100
    },
    {
      "midi": 48,
      "hit": false,
      "t": 182307.50999999497,
      "d": 115.38449999998556,
      "v": 100
    },
    {
      "midi": 67,
      "hit": false,
      "t": 182307.5100000001,
      "d": 0,
      "v": 100
    },
    {
      "midi": 40,
      "hit": false,
      "t": 182319.04844999974,
      "d": 230.76900000000023,
      "v": 120
    },
    {
      "midi": 43,
      "hit": false,
      "t": 182422.89449999496,
      "d": 115.38449999998556,
      "v": 100
    },
    {
      "midi": 36,
      "hit": false,
      "t": 182538.27899999495,
      "d": 115.38449999998556,
      "v": 100
    },
    {
      "midi": 67,
      "hit": false,
      "t": 182538.2790000001,
      "d": 0,
      "v": 100
    },
    {
      "midi": 17,
      "hit": false,
      "t": 182769.04799999492,
      "d": 115.38449999998556,
      "v": 100
    },
    {
      "midi": 48,
      "hit": false,
      "t": 182769.048,
      "d": 0,
      "v": 100
    },
    {
      "midi": 43,
      "hit": false,
      "t": 182769.048,
      "d": 1846.1520000000019,
      "v": 100
    },
    {
      "midi": 48,
      "hit": false,
      "t": 182769.04800000013,
      "d": 0,
      "v": 100
    },
    {
      "midi": 53,
      "hit": false,
      "t": 182769.04800000013,
      "d": 1846.1520000000019,
      "v": 100
    },
    {
      "midi": 45,
      "hit": false,
      "t": 182769.04800000013,
      "d": 1846.1520000000019,
      "v": 100
    },
    {
      "midi": 41,
      "hit": false,
      "t": 182769.04800000013,
      "d": 1846.1520000000019,
      "v": 100
    },
    {
      "midi": 36,
      "hit": false,
      "t": 182784.43259999974,
      "d": 230.76900000000023,
      "v": 120
    },
    {
      "midi": 69,
      "hit": false,
      "t": 182999.8170000001,
      "d": 230.76900000000023,
      "v": 100
    },
    {
      "midi": 29,
      "hit": false,
      "t": 183115.20149999487,
      "d": 0,
      "v": 100
    },
    {
      "midi": 41,
      "hit": false,
      "t": 183230.58599999486,
      "d": 115.38449999998556,
      "v": 100
    },
    {
      "midi": 40,
      "hit": false,
      "t": 183245.97059999974,
      "d": 230.76900000000023,
      "v": 120
    },
    {
      "midi": 29,
      "hit": false,
      "t": 183461.35499999483,
      "d": 115.38449999998556,
      "v": 100
    },
    {
      "midi": 65,
      "hit": false,
      "t": 183461.3550000001,
      "d": 230.76900000000023,
      "v": 100
    },
    {
      "midi": 17,
      "hit": false,
      "t": 183922.8929999948,
      "d": 115.38449999998556,
      "v": 100
    },
    {
      "midi": 67,
      "hit": false,
      "t": 183922.8930000001,
      "d": 230.76900000000023,
      "v": 100
    },
    {
      "midi": 36,
      "hit": false,
      "t": 183938.27759999974,
      "d": 0,
      "v": 120
    },
    {
      "midi": 29,
      "hit": false,
      "t": 184038.2774999948,
      "d": 115.38449999998556,
      "v": 100
    },
    {
      "midi": 41,
      "hit": false,
      "t": 184153.66199999477,
      "d": 115.38449999998556,
      "v": 100
    },
    {
      "midi": 40,
      "hit": false,
      "t": 184169.04659999974,
      "d": 230.76900000000023,
      "v": 120
    },
    {
      "midi": 36,
      "hit": false,
      "t": 184269.04649999476,
      "d": 115.38449999998556,
      "v": 100
    },
    {
      "midi": 29,
      "hit": false,
      "t": 184384.43099999474,
      "d": 115.38449999998556,
      "v": 100
    },
    {
      "midi": 19,
      "hit": false,
      "t": 184615.19999999471,
      "d": 115.38449999998556,
      "v": 100
    },
    {
      "midi": 36,
      "hit": false,
      "t": 184615.19999999975,
      "d": 461.53800000000047,
      "v": 120
    },
    {
      "midi": 70,
      "hit": false,
      "t": 184615.2000000001,
      "d": 923.0760000000009,
      "v": 100
    },
    {
      "midi": 43,
      "hit": false,
      "t": 184615.20000000013,
      "d": 1846.1520000000019,
      "v": 100
    },
    {
      "midi": 50,
      "hit": false,
      "t": 184615.20000000013,
      "d": 1846.1520000000019,
      "v": 100
    },
    {
      "midi": 46,
      "hit": false,
      "t": 184615.20000000013,
      "d": 1846.1520000000019,
      "v": 100
    },
    {
      "midi": 31,
      "hit": false,
      "t": 184961.35349999467,
      "d": 0,
      "v": 100
    },
    {
      "midi": 43,
      "hit": false,
      "t": 185076.73799999466,
      "d": 115.38449999998556,
      "v": 100
    },
    {
      "midi": 40,
      "hit": false,
      "t": 185076.73799999975,
      "d": 461.53800000000047,
      "v": 120
    },
    {
      "midi": 31,
      "hit": false,
      "t": 185307.50699999463,
      "d": 115.38449999998556,
      "v": 100
    },
    {
      "midi": 36,
      "hit": false,
      "t": 185538.27599999975,
      "d": 461.53800000000047,
      "v": 120
    },
    {
      "midi": 69,
      "hit": false,
      "t": 185538.2760000001,
      "d": 230.76900000000023,
      "v": 100
    },
    {
      "midi": 19,
      "hit": false,
      "t": 185769.0449999946,
      "d": 115.38449999998556,
      "v": 100
    },
    {
      "midi": 31,
      "hit": false,
      "t": 185884.42949999459,
      "d": 115.38449999998556,
      "v": 100
    },
    {
      "midi": 43,
      "hit": false,
      "t": 185999.81399999457,
      "d": 115.38449999998556,
      "v": 100
    },
    {
      "midi": 40,
      "hit": false,
      "t": 185999.81399999975,
      "d": 461.53800000000047,
      "v": 120
    },
    {
      "midi": 65,
      "hit": false,
      "t": 185999.8140000001,
      "d": 230.76900000000023,
      "v": 100
    },
    {
      "midi": 38,
      "hit": false,
      "t": 186115.19849999456,
      "d": 115.38449999998556,
      "v": 100
    },
    {
      "midi": 31,
      "hit": false,
      "t": 186230.58299999454,
      "d": 115.38449999998556,
      "v": 100
    },
    {
      "midi": 67,
      "hit": false,
      "t": 186230.5830000001,
      "d": 230.76900000000023,
      "v": 100
    },
    {
      "midi": 24,
      "hit": false,
      "t": 186461.3519999945,
      "d": 115.38449999998556,
      "v": 100
    },
    {
      "midi": 36,
      "hit": false,
      "t": 186461.35199999975,
      "d": 461.53800000000047,
      "v": 120
    },
    {
      "midi": 55,
      "hit": false,
      "t": 186461.35200000013,
      "d": 0,
      "v": 100
    },
    {
      "midi": 60,
      "hit": false,
      "t": 186461.35200000013,
      "d": 1846.1520000000019,
      "v": 100
    },
    {
      "midi": 70,
      "hit": false,
      "t": 186692.12100000004,
      "d": 230.76900000000023,
      "v": 100
    },
    {
      "midi": 36,
      "hit": false,
      "t": 186807.50549999447,
      "d": 0,
      "v": 100
    },
    {
      "midi": 48,
      "hit": false,
      "t": 186922.88999999446,
      "d": 115.38449999998556,
      "v": 100
    },
    {
      "midi": 40,
      "hit": false,
      "t": 186922.88999999975,
      "d": 461.53800000000047,
      "v": 120
    },
    {
      "midi": 65,
      "hit": false,
      "t": 186922.89000000004,
      "d": 0,
      "v": 100
    },
    {
      "midi": 69,
      "hit": false,
      "t": 186922.89000000004,
      "d": 230.76900000000023,
      "v": 100
    },
    {
      "midi": 36,
      "hit": false,
      "t": 187153.65899999443,
      "d": 115.38449999998556,
      "v": 100
    },
    {
      "midi": 36,
      "hit": false,
      "t": 187384.42799999975,
      "d": 461.53800000000047,
      "v": 120
    },
    {
      "midi": 65,
      "hit": false,
      "t": 187384.42800000004,
      "d": 230.76900000000023,
      "v": 100
    },
    {
      "midi": 70,
      "hit": false,
      "t": 187384.42800000004,
      "d": 230.76900000000023,
      "v": 100
    },
    {
      "midi": 24,
      "hit": false,
      "t": 187615.1969999944,
      "d": 230.76899999997113,
      "v": 100
    },
    {
      "midi": 36,
      "hit": false,
      "t": 187730.58149999438,
      "d": 115.38449999998556,
      "v": 100
    },
    {
      "midi": 48,
      "hit": false,
      "t": 187845.96599999437,
      "d": 115.38449999998556,
      "v": 100
    },
    {
      "midi": 40,
      "hit": false,
      "t": 187845.96599999975,
      "d": 461.53800000000047,
      "v": 120
    },
    {
      "midi": 70,
      "hit": false,
      "t": 187845.96600000004,
      "d": 230.76900000000023,
      "v": 100
    },
    {
      "midi": 43,
      "hit": false,
      "t": 187961.35049999435,
      "d": 115.38449999998556,
      "v": 100
    },
    {
      "midi": 36,
      "hit": false,
      "t": 188076.73499999434,
      "d": 115.38449999998556,
      "v": 100
    },
    {
      "midi": 65,
      "hit": false,
      "t": 188076.73500000004,
      "d": 0,
      "v": 100
    },
    {
      "midi": 69,
      "hit": false,
      "t": 188076.73500000004,
      "d": 230.76900000000023,
      "v": 100
    },
    {
      "midi": 72,
      "hit": false,
      "t": 188076.7350000001,
      "d": 230.76900000000023,
      "v": 100
    },
    {
      "midi": 21,
      "hit": false,
      "t": 188307.5039999943,
      "d": 115.38449999998556,
      "v": 100
    },
    {
      "midi": 52,
      "hit": false,
      "t": 188307.50400000013,
      "d": 0,
      "v": 100
    },
    {
      "midi": 48,
      "hit": false,
      "t": 188307.50400000013,
      "d": 0,
      "v": 100
    },
    {
      "midi": 57,
      "hit": false,
      "t": 188307.50400000013,
      "d": 1846.1520000000019,
      "v": 100
    },
    {
      "midi": 45,
      "hit": false,
      "t": 188307.50400000013,
      "d": 1846.1520000000019,
      "v": 100
    },
    {
      "midi": 36,
      "hit": false,
      "t": 188311.35014999975,
      "d": 461.53800000000047,
      "v": 120
    },
    {
      "midi": 70,
      "hit": false,
      "t": 188538.2730000001,
      "d": 230.76900000000023,
      "v": 100
    },
    {
      "midi": 33,
      "hit": false,
      "t": 188653.65749999427,
      "d": 0,
      "v": 100
    },
    {
      "midi": 45,
      "hit": false,
      "t": 188769.04199999425,
      "d": 115.38449999998556,
      "v": 100
    },
    {
      "midi": 40,
      "hit": false,
      "t": 188772.88814999975,
      "d": 461.53800000000047,
      "v": 120
    },
    {
      "midi": 33,
      "hit": false,
      "t": 188999.81099999422,
      "d": 115.38449999998556,
      "v": 100
    },
    {
      "midi": 69,
      "hit": false,
      "t": 189230.5800000001,
      "d": 0,
      "v": 100
    },
    {
      "midi": 36,
      "hit": false,
      "t": 189234.42614999975,
      "d": 461.53800000000047,
      "v": 120
    },
    {
      "midi": 21,
      "hit": false,
      "t": 189461.3489999942,
      "d": 230.76899999997113,
      "v": 100
    },
    {
      "midi": 33,
      "hit": false,
      "t": 189576.73349999418,
      "d": 115.38449999998556,
      "v": 100
    },
    {
      "midi": 45,
      "hit": false,
      "t": 189692.11799999417,
      "d": 115.38449999998556,
      "v": 100
    },
    {
      "midi": 40,
      "hit": false,
      "t": 189695.96414999975,
      "d": 461.53800000000047,
      "v": 120
    },
    {
      "midi": 40,
      "hit": false,
      "t": 189807.50249999415,
      "d": 115.38449999998556,
      "v": 100
    },
    {
      "midi": 33,
      "hit": false,
      "t": 189922.88699999414,
      "d": 115.38449999998556,
      "v": 100
    },
    {
      "midi": 67,
      "hit": false,
      "t": 189922.8870000001,
      "d": 0,
      "v": 100
    },
    {
      "midi": 34,
      "hit": false,
      "t": 190153.6559999941,
      "d": 230.76900000000023,
      "v": 100
    },
    {
      "midi": 58,
      "hit": false,
      "t": 190153.65600000013,
      "d": 1846.1520000000019,
      "v": 100
    },
    {
      "midi": 53,
      "hit": false,
      "t": 190153.65600000013,
      "d": 1846.1520000000019,
      "v": 100
    },
    {
      "midi": 36,
      "hit": false,
      "t": 190161.34829999975,
      "d": 461.53800000000047,
      "v": 120
    },
    {
      "midi": 46,
      "hit": false,
      "t": 190499.8094999941,
      "d": 0,
      "v": 100
    },
    {
      "midi": 58,
      "hit": false,
      "t": 190615.19399999408,
      "d": 115.38449999998556,
      "v": 100
    },
    {
      "midi": 69,
      "hit": false,
      "t": 190615.1940000001,
      "d": 0,
      "v": 100
    },
    {
      "midi": 40,
      "hit": false,
      "t": 190622.88629999975,
      "d": 461.53800000000047,
      "v": 120
    },
    {
      "midi": 46,
      "hit": false,
      "t": 190845.96299999405,
      "d": 230.76900000000023,
      "v": 100
    },
    {
      "midi": 36,
      "hit": false,
      "t": 191084.42429999975,
      "d": 461.53800000000047,
      "v": 120
    },
    {
      "midi": 34,
      "hit": false,
      "t": 191307.50099999405,
      "d": 230.76899999997113,
      "v": 100
    },
    {
      "midi": 46,
      "hit": false,
      "t": 191422.88549999404,
      "d": 115.38449999998556,
      "v": 100
    },
    {
      "midi": 58,
      "hit": false,
      "t": 191538.26999999402,
      "d": 115.38449999998556,
      "v": 100
    },
    {
      "midi": 40,
      "hit": false,
      "t": 191545.96229999975,
      "d": 461.53800000000047,
      "v": 120
    },
    {
      "midi": 53,
      "hit": false,
      "t": 191653.654499994,
      "d": 115.38449999998556,
      "v": 100
    },
    {
      "midi": 46,
      "hit": false,
      "t": 191769.038999994,
      "d": 115.38449999998556,
      "v": 100
    },
    {
      "midi": 19,
      "hit": false,
      "t": 191999.80799999397,
      "d": 115.38449999998556,
      "v": 100
    },
    {
      "midi": 70,
      "hit": false,
      "t": 191999.8080000001,
      "d": 923.0760000000009,
      "v": 100
    },
    {
      "midi": 50,
      "hit": false,
      "t": 191999.80800000014,
      "d": 0,
      "v": 100
    },
    {
      "midi": 46,
      "hit": false,
      "t": 191999.80800000014,
      "d": 0,
      "v": 100
    },
    {
      "midi": 43,
      "hit": false,
      "t": 191999.80800000014,
      "d": 1846.1520000000019,
      "v": 100
    },
    {
      "midi": 36,
      "hit": false,
      "t": 192011.34644999975,
      "d": 461.53800000000047,
      "v": 120
    },
    {
      "midi": 31,
      "hit": false,
      "t": 192345.96149999392,
      "d": 0,
      "v": 100
    },
    {
      "midi": 43,
      "hit": false,
      "t": 192461.3459999939,
      "d": 115.38449999998556,
      "v": 100
    },
    {
      "midi": 40,
      "hit": false,
      "t": 192472.88444999975,
      "d": 461.53800000000047,
      "v": 120
    },
    {
      "midi": 31,
      "hit": false,
      "t": 192692.11499999388,
      "d": 115.38449999998556,
      "v": 100
    },
    {
      "midi": 69,
      "hit": false,
      "t": 192922.8840000001,
      "d": 230.76900000000023,
      "v": 100
    },
    {
      "midi": 36,
      "hit": false,
      "t": 192934.42244999975,
      "d": 461.53800000000047,
      "v": 120
    },
    {
      "midi": 19,
      "hit": false,
      "t": 193153.65299999385,
      "d": 115.38449999998556,
      "v": 100
    },
    {
      "midi": 31,
      "hit": false,
      "t": 193269.03749999384,
      "d": 115.38449999998556,
      "v": 100
    },
    {
      "midi": 43,
      "hit": false,
      "t": 193384.42199999382,
      "d": 115.38449999998556,
      "v": 100
    },
    {
      "midi": 65,
      "hit": false,
      "t": 193384.4220000001,
      "d": 230.76900000000023,
      "v": 100
    },
    {
      "midi": 40,
      "hit": false,
      "t": 193395.96044999975,
      "d": 461.53800000000047,
      "v": 120
    },
    {
      "midi": 38,
      "hit": false,
      "t": 193499.8064999938,
      "d": 115.38449999998556,
      "v": 100
    },
    {
      "midi": 31,
      "hit": false,
      "t": 193615.1909999938,
      "d": 115.38449999998556,
      "v": 100
    },
    {
      "midi": 67,
      "hit": false,
      "t": 193615.1910000001,
      "d": 230.76900000000023,
      "v": 100
    },
    {
      "midi": 24,
      "hit": false,
      "t": 193845.95999999376,
      "d": 115.38449999998556,
      "v": 100
    },
    {
      "midi": 55,
      "hit": false,
      "t": 193845.96000000014,
      "d": 0,
      "v": 100
    },
    {
      "midi": 60,
      "hit": false,
      "t": 193845.96000000014,
      "d": 1846.1520000000019,
      "v": 100
    },
    {
      "midi": 36,
      "hit": false,
      "t": 193861.34459999975,
      "d": 461.53800000000047,
      "v": 120
    },
    {
      "midi": 70,
      "hit": false,
      "t": 194076.72900000005,
      "d": 230.76900000000023,
      "v": 100
    },
    {
      "midi": 36,
      "hit": false,
      "t": 194192.11349999372,
      "d": 0,
      "v": 100
    },
    {
      "midi": 48,
      "hit": false,
      "t": 194307.4979999937,
      "d": 115.38449999998556,
      "v": 100
    },
    {
      "midi": 65,
      "hit": false,
      "t": 194307.49800000005,
      "d": 0,
      "v": 100
    },
    {
      "midi": 69,
      "hit": false,
      "t": 194307.49800000005,
      "d": 230.76900000000023,
      "v": 100
    },
    {
      "midi": 40,
      "hit": false,
      "t": 194322.88259999975,
      "d": 461.53800000000047,
      "v": 120
    },
    {
      "midi": 36,
      "hit": false,
      "t": 194538.26699999368,
      "d": 115.38449999998556,
      "v": 100
    },
    {
      "midi": 65,
      "hit": false,
      "t": 194769.03600000005,
      "d": 230.76900000000023,
      "v": 100
    },
    {
      "midi": 70,
      "hit": false,
      "t": 194769.03600000005,
      "d": 230.76900000000023,
      "v": 100
    },
    {
      "midi": 36,
      "hit": false,
      "t": 194784.42059999975,
      "d": 461.53800000000047,
      "v": 120
    },
    {
      "midi": 24,
      "hit": false,
      "t": 194999.80499999365,
      "d": 230.76899999997113,
      "v": 100
    },
    {
      "midi": 36,
      "hit": false,
      "t": 195115.18949999363,
      "d": 115.38449999998556,
      "v": 100
    },
    {
      "midi": 48,
      "hit": false,
      "t": 195230.57399999362,
      "d": 115.38449999998556,
      "v": 100
    },
    {
      "midi": 70,
      "hit": false,
      "t": 195230.57400000005,
      "d": 230.76900000000023,
      "v": 100
    },
    {
      "midi": 40,
      "hit": false,
      "t": 195245.95859999975,
      "d": 461.53800000000047,
      "v": 120
    },
    {
      "midi": 43,
      "hit": false,
      "t": 195345.9584999936,
      "d": 115.38449999998556,
      "v": 100
    },
    {
      "midi": 36,
      "hit": false,
      "t": 195461.3429999936,
      "d": 115.38449999998556,
      "v": 100
    },
    {
      "midi": 65,
      "hit": false,
      "t": 195461.34300000005,
      "d": 0,
      "v": 100
    },
    {
      "midi": 69,
      "hit": false,
      "t": 195461.34300000005,
      "d": 230.76900000000023,
      "v": 100
    },
    {
      "midi": 72,
      "hit": false,
      "t": 195461.3430000001,
      "d": 230.76900000000023,
      "v": 100
    },
    {
      "midi": 21,
      "hit": false,
      "t": 195692.11199999356,
      "d": 115.38449999998556,
      "v": 100
    },
    {
      "midi": 52,
      "hit": false,
      "t": 195692.11200000014,
      "d": 0,
      "v": 100
    },
    {
      "midi": 48,
      "hit": false,
      "t": 195692.11200000014,
      "d": 0,
      "v": 100
    },
    {
      "midi": 57,
      "hit": false,
      "t": 195692.11200000014,
      "d": 1846.1520000000019,
      "v": 100
    },
    {
      "midi": 45,
      "hit": false,
      "t": 195692.11200000014,
      "d": 1846.1520000000019,
      "v": 100
    },
    {
      "midi": 36,
      "hit": false,
      "t": 195711.34274999975,
      "d": 461.53800000000047,
      "v": 120
    },
    {
      "midi": 70,
      "hit": false,
      "t": 195922.8810000001,
      "d": 230.76900000000023,
      "v": 100
    },
    {
      "midi": 33,
      "hit": false,
      "t": 196038.26549999352,
      "d": 0,
      "v": 100
    },
    {
      "midi": 45,
      "hit": false,
      "t": 196153.6499999935,
      "d": 115.38449999998556,
      "v": 100
    },
    {
      "midi": 40,
      "hit": false,
      "t": 196172.88074999975,
      "d": 461.53800000000047,
      "v": 120
    },
    {
      "midi": 33,
      "hit": false,
      "t": 196384.41899999348,
      "d": 115.38449999998556,
      "v": 100
    },
    {
      "midi": 69,
      "hit": false,
      "t": 196615.1880000001,
      "d": 0,
      "v": 100
    },
    {
      "midi": 36,
      "hit": false,
      "t": 196634.41874999975,
      "d": 461.53800000000047,
      "v": 120
    },
    {
      "midi": 21,
      "hit": false,
      "t": 196845.95699999345,
      "d": 230.76899999997113,
      "v": 100
    },
    {
      "midi": 33,
      "hit": false,
      "t": 196961.34149999343,
      "d": 115.38449999998556,
      "v": 100
    },
    {
      "midi": 45,
      "hit": false,
      "t": 197076.72599999342,
      "d": 115.38449999998556,
      "v": 100
    },
    {
      "midi": 40,
      "hit": false,
      "t": 197095.95674999975,
      "d": 461.53800000000047,
      "v": 120
    },
    {
      "midi": 40,
      "hit": false,
      "t": 197192.1104999934,
      "d": 115.38449999998556,
      "v": 100
    },
    {
      "midi": 33,
      "hit": false,
      "t": 197307.4949999934,
      "d": 115.38449999998556,
      "v": 100
    },
    {
      "midi": 67,
      "hit": false,
      "t": 197307.4950000001,
      "d": 0,
      "v": 100
    },
    {
      "midi": 24,
      "hit": false,
      "t": 197538.26399999336,
      "d": 115.38449999998556,
      "v": 100
    },
    {
      "midi": 48,
      "hit": false,
      "t": 197538.26400000014,
      "d": 0,
      "v": 100
    },
    {
      "midi": 52,
      "hit": false,
      "t": 197538.26400000014,
      "d": 0,
      "v": 100
    },
    {
      "midi": 60,
      "hit": false,
      "t": 197538.26400000014,
      "d": 1846.1520000000019,
      "v": 100
    },
    {
      "midi": 55,
      "hit": false,
      "t": 197538.26400000014,
      "d": 1846.1520000000019,
      "v": 100
    },
    {
      "midi": 36,
      "hit": false,
      "t": 197561.34089999975,
      "d": 461.53800000000047,
      "v": 120
    },
    {
      "midi": 36,
      "hit": false,
      "t": 197884.41749999332,
      "d": 0,
      "v": 100
    },
    {
      "midi": 48,
      "hit": false,
      "t": 197999.8019999933,
      "d": 115.38449999998556,
      "v": 100
    },
    {
      "midi": 69,
      "hit": false,
      "t": 197999.8020000001,
      "d": 0,
      "v": 100
    },
    {
      "midi": 40,
      "hit": false,
      "t": 198022.87889999975,
      "d": 461.53800000000047,
      "v": 120
    },
    {
      "midi": 36,
      "hit": false,
      "t": 198230.57099999327,
      "d": 115.38449999998556,
      "v": 100
    },
    {
      "midi": 36,
      "hit": false,
      "t": 198484.41689999975,
      "d": 461.53800000000047,
      "v": 120
    },
    {
      "midi": 24,
      "hit": false,
      "t": 198692.10899999324,
      "d": 230.76899999997113,
      "v": 100
    },
    {
      "midi": 62,
      "hit": false,
      "t": 198692.1090000001,
      "d": 230.76900000000023,
      "v": 100
    },
    {
      "midi": 36,
      "hit": false,
      "t": 198807.49349999323,
      "d": 115.38449999998556,
      "v": 100
    },
    {
      "midi": 48,
      "hit": false,
      "t": 198922.87799999322,
      "d": 115.38449999998556,
      "v": 100
    },
    {
      "midi": 60,
      "hit": false,
      "t": 198922.8780000001,
      "d": 230.76900000000023,
      "v": 100
    },
    {
      "midi": 40,
      "hit": false,
      "t": 198945.95489999975,
      "d": 461.53800000000047,
      "v": 120
    },
    {
      "midi": 43,
      "hit": false,
      "t": 199038.2624999932,
      "d": 115.38449999998556,
      "v": 100
    },
    {
      "midi": 36,
      "hit": false,
      "t": 199153.6469999932,
      "d": 115.38449999998556,
      "v": 100
    },
    {
      "midi": 62,
      "hit": false,
      "t": 199153.6470000001,
      "d": 230.76900000000023,
      "v": 100
    },
    {
      "midi": 26,
      "hit": false,
      "t": 199465.18514999317,
      "d": 230.76900000000023,
      "v": 100
    },
    {
      "midi": 69,
      "hit": false,
      "t": 199465.18515000006,
      "d": 461.53800000000047,
      "v": 100
    },
    {
      "midi": 40,
      "hit": false,
      "t": 199715.18489999976,
      "d": 0,
      "v": 100
    },
    {
      "midi": 38,
      "hit": false,
      "t": 199811.33864999315,
      "d": 0,
      "v": 100
    },
    {
      "midi": 40,
      "hit": false,
      "t": 199830.56939999975,
      "d": 0,
      "v": 100
    },
    {
      "midi": 50,
      "hit": false,
      "t": 199926.72314999314,
      "d": 115.38449999998556,
      "v": 100
    },
    {
      "midi": 40,
      "hit": false,
      "t": 199945.95389999973,
      "d": 0,
      "v": 100
    },
    {
      "midi": 38,
      "hit": false,
      "t": 200157.4921499931,
      "d": 115.38449999998556,
      "v": 100
    },
    {
      "midi": 70,
      "hit": false,
      "t": 200157.49215000006,
      "d": 230.76900000000023,
      "v": 100
    },
    {
      "midi": 40,
      "hit": false,
      "t": 200292.10739999972,
      "d": 0,
      "v": 100
    },
    {
      "midi": 40,
      "hit": false,
      "t": 200407.4918999997,
      "d": 0,
      "v": 100
    },
    {
      "midi": 26,
      "hit": false,
      "t": 200619.03014999308,
      "d": 230.76899999997113,
      "v": 100
    },
    {
      "midi": 40,
      "hit": false,
      "t": 200638.26089999967,
      "d": 57.69224999999278,
      "v": 100
    },
    {
      "midi": 38,
      "hit": false,
      "t": 200734.41464999306,
      "d": 115.38449999998556,
      "v": 100
    },
    {
      "midi": 50,
      "hit": false,
      "t": 200849.79914999305,
      "d": 115.38449999998556,
      "v": 100
    },
    {
      "midi": 72,
      "hit": false,
      "t": 200849.79915000006,
      "d": 230.76900000000023,
      "v": 100
    },
    {
      "midi": 40,
      "hit": false,
      "t": 200869.02989999964,
      "d": 0,
      "v": 100
    },
    {
      "midi": 45,
      "hit": false,
      "t": 200965.18364999304,
      "d": 115.38449999998556,
      "v": 100
    },
    {
      "midi": 40,
      "hit": false,
      "t": 200984.41439999963,
      "d": 0,
      "v": 100
    },
    {
      "midi": 38,
      "hit": false,
      "t": 201080.56814999302,
      "d": 115.38449999998556,
      "v": 100
    },
    {
      "midi": 40,
      "hit": false,
      "t": 201099.79889999962,
      "d": 0,
      "v": 100
    },
    {
      "midi": 26,
      "hit": false,
      "t": 201311.337149993,
      "d": 230.76900000000023,
      "v": 100
    },
    {
      "midi": 50,
      "hit": false,
      "t": 201311.33715000015,
      "d": 0,
      "v": 100
    },
    {
      "midi": 53,
      "hit": false,
      "t": 201311.33715000015,
      "d": 0,
      "v": 100
    },
    {
      "midi": 57,
      "hit": false,
      "t": 201311.33715000015,
      "d": 0,
      "v": 100
    },
    {
      "midi": 62,
      "hit": false,
      "t": 201311.33715000015,
      "d": 0,
      "v": 100
    },
    {
      "midi": 70,
      "hit": false,
      "t": 201542.10615000007,
      "d": 230.76900000000023,
      "v": 100
    },
    {
      "midi": 40,
      "hit": false,
      "t": 201565.1830499996,
      "d": 0,
      "v": 100
    },
    {
      "midi": 38,
      "hit": false,
      "t": 201657.49064999298,
      "d": 0,
      "v": 100
    },
    {
      "midi": 40,
      "hit": false,
      "t": 201680.5675499996,
      "d": 0,
      "v": 100
    },
    {
      "midi": 50,
      "hit": false,
      "t": 201772.87514999296,
      "d": 115.38449999998556,
      "v": 100
    },
    {
      "midi": 40,
      "hit": false,
      "t": 201795.95204999959,
      "d": 0,
      "v": 100
    },
    {
      "midi": 38,
      "hit": false,
      "t": 202003.64414999294,
      "d": 115.38449999998556,
      "v": 100
    },
    {
      "midi": 40,
      "hit": false,
      "t": 202142.10554999957,
      "d": 0,
      "v": 100
    },
    {
      "midi": 69,
      "hit": false,
      "t": 202234.41315000007,
      "d": 230.76900000000023,
      "v": 100
    },
    {
      "midi": 40,
      "hit": false,
      "t": 202257.49004999956,
      "d": 0,
      "v": 100
    },
    {
      "midi": 26,
      "hit": false,
      "t": 202465.1821499929,
      "d": 230.76899999997113,
      "v": 100
    },
    {
      "midi": 40,
      "hit": false,
      "t": 202488.25904999953,
      "d": 57.69224999999278,
      "v": 100
    },
    {
      "midi": 38,
      "hit": false,
      "t": 202580.5666499929,
      "d": 115.38449999998556,
      "v": 100
    },
    {
      "midi": 50,
      "hit": false,
      "t": 202695.95114999288,
      "d": 115.38449999998556,
      "v": 100
    },
    {
      "midi": 72,
      "hit": false,
      "t": 202695.95115000007,
      "d": 230.76900000000023,
      "v": 100
    },
    {
      "midi": 40,
      "hit": false,
      "t": 202719.0280499995,
      "d": 0,
      "v": 100
    },
    {
      "midi": 45,
      "hit": false,
      "t": 202811.33564999286,
      "d": 115.38449999998556,
      "v": 100
    },
    {
      "midi": 40,
      "hit": false,
      "t": 202834.41254999948,
      "d": 0,
      "v": 100
    },
    {
      "midi": 38,
      "hit": false,
      "t": 202926.72014999285,
      "d": 115.38449999998556,
      "v": 100
    },
    {
      "midi": 40,
      "hit": false,
      "t": 202949.79704999947,
      "d": 0,
      "v": 100
    },
    {
      "midi": 24,
      "hit": false,
      "t": 203157.48914999282,
      "d": 115.38449999998556,
      "v": 100
    },
    {
      "midi": 67,
      "hit": false,
      "t": 203157.48915000007,
      "d": 230.76900000000023,
      "v": 100
    },
    {
      "midi": 40,
      "hit": false,
      "t": 203184.41219999944,
      "d": 226.92285000000265,
      "v": 100
    },
    {
      "midi": 40,
      "hit": false,
      "t": 203415.18119999944,
      "d": 0,
      "v": 100
    },
    {
      "midi": 36,
      "hit": false,
      "t": 203503.64264999278,
      "d": 0,
      "v": 100
    },
    {
      "midi": 40,
      "hit": false,
      "t": 203530.56569999942,
      "d": 0,
      "v": 100
    },
    {
      "midi": 48,
      "hit": false,
      "t": 203619.02714999276,
      "d": 115.38449999998556,
      "v": 100
    },
    {
      "midi": 40,
      "hit": false,
      "t": 203645.9501999994,
      "d": 0,
      "v": 100
    },
    {
      "midi": 36,
      "hit": false,
      "t": 203849.79614999273,
      "d": 115.38449999998556,
      "v": 100
    },
    {
      "midi": 69,
      "hit": false,
      "t": 203849.79615000007,
      "d": 230.76900000000023,
      "v": 100
    },
    {
      "midi": 40,
      "hit": false,
      "t": 203992.1036999994,
      "d": 0,
      "v": 100
    },
    {
      "midi": 40,
      "hit": false,
      "t": 204107.48819999938,
      "d": 0,
      "v": 100
    },
    {
      "midi": 24,
      "hit": false,
      "t": 204311.3341499927,
      "d": 230.76899999997113,
      "v": 100
    },
    {
      "midi": 40,
      "hit": false,
      "t": 204338.25719999935,
      "d": 57.69224999999278,
      "v": 100
    },
    {
      "midi": 36,
      "hit": false,
      "t": 204426.7186499927,
      "d": 115.38449999998556,
      "v": 100
    },
    {
      "midi": 48,
      "hit": false,
      "t": 204542.10314999268,
      "d": 115.38449999998556,
      "v": 100
    },
    {
      "midi": 72,
      "hit": false,
      "t": 204542.10315000007,
      "d": 230.76900000000023,
      "v": 100
    },
    {
      "midi": 40,
      "hit": false,
      "t": 204569.02619999932,
      "d": 0,
      "v": 100
    },
    {
      "midi": 43,
      "hit": false,
      "t": 204657.48764999266,
      "d": 115.38449999998556,
      "v": 100
    },
    {
      "midi": 40,
      "hit": false,
      "t": 204684.4106999993,
      "d": 0,
      "v": 100
    },
    {
      "midi": 36,
      "hit": false,
      "t": 204772.87214999265,
      "d": 115.38449999998556,
      "v": 100
    },
    {
      "midi": 40,
      "hit": false,
      "t": 204799.7951999993,
      "d": 0,
      "v": 100
    },
    {
      "midi": 24,
      "hit": false,
      "t": 205003.64114999262,
      "d": 115.38449999998556,
      "v": 100
    },
    {
      "midi": 52,
      "hit": false,
      "t": 205003.64115000016,
      "d": 0,
      "v": 100
    },
    {
      "midi": 55,
      "hit": false,
      "t": 205003.64115000016,
      "d": 0,
      "v": 100
    },
    {
      "midi": 48,
      "hit": false,
      "t": 205003.64115000016,
      "d": 0,
      "v": 100
    },
    {
      "midi": 60,
      "hit": false,
      "t": 205003.64115000016,
      "d": 0,
      "v": 100
    },
    {
      "midi": 40,
      "hit": false,
      "t": 205034.41034999926,
      "d": 226.92285000000265,
      "v": 100
    },
    {
      "midi": 70,
      "hit": false,
      "t": 205234.41015000007,
      "d": 230.76900000000023,
      "v": 100
    },
    {
      "midi": 40,
      "hit": false,
      "t": 205265.17934999926,
      "d": 0,
      "v": 100
    },
    {
      "midi": 36,
      "hit": false,
      "t": 205349.79464999257,
      "d": 0,
      "v": 100
    },
    {
      "midi": 40,
      "hit": false,
      "t": 205380.56384999925,
      "d": 0,
      "v": 100
    },
    {
      "midi": 48,
      "hit": false,
      "t": 205465.17914999256,
      "d": 115.38449999998556,
      "v": 100
    },
    {
      "midi": 40,
      "hit": false,
      "t": 205495.94834999923,
      "d": 0,
      "v": 100
    },
    {
      "midi": 36,
      "hit": false,
      "t": 205695.94814999253,
      "d": 115.38449999998556,
      "v": 100
    },
    {
      "midi": 40,
      "hit": false,
      "t": 205842.10184999922,
      "d": 0,
      "v": 100
    },
    {
      "midi": 69,
      "hit": false,
      "t": 205926.71715000007,
      "d": 230.76900000000023,
      "v": 100
    },
    {
      "midi": 40,
      "hit": false,
      "t": 205957.4863499992,
      "d": 0,
      "v": 100
    },
    {
      "midi": 24,
      "hit": false,
      "t": 206157.4861499925,
      "d": 230.76899999997113,
      "v": 100
    },
    {
      "midi": 40,
      "hit": false,
      "t": 206188.25534999918,
      "d": 57.69224999999278,
      "v": 100
    },
    {
      "midi": 36,
      "hit": false,
      "t": 206272.8706499925,
      "d": 115.38449999998556,
      "v": 100
    },
    {
      "midi": 48,
      "hit": false,
      "t": 206388.25514999247,
      "d": 115.38449999998556,
      "v": 100
    },
    {
      "midi": 67,
      "hit": false,
      "t": 206388.25515000007,
      "d": 230.76900000000023,
      "v": 100
    },
    {
      "midi": 40,
      "hit": false,
      "t": 206419.02434999915,
      "d": 0,
      "v": 100
    },
    {
      "midi": 43,
      "hit": false,
      "t": 206503.63964999246,
      "d": 115.38449999998556,
      "v": 100
    },
    {
      "midi": 40,
      "hit": false,
      "t": 206534.40884999913,
      "d": 0,
      "v": 100
    },
    {
      "midi": 36,
      "hit": false,
      "t": 206619.02414999245,
      "d": 115.38449999998556,
      "v": 100
    },
    {
      "midi": 40,
      "hit": false,
      "t": 206649.79334999912,
      "d": 0,
      "v": 100
    },
    {
      "midi": 34,
      "hit": false,
      "t": 206849.79314999242,
      "d": 230.76900000000023,
      "v": 100
    },
    {
      "midi": 65,
      "hit": false,
      "t": 206849.79315000007,
      "d": 230.76900000000023,
      "v": 100
    },
    {
      "midi": 40,
      "hit": false,
      "t": 206880.5623499991,
      "d": 226.92285000000265,
      "v": 100
    },
    {
      "midi": 40,
      "hit": false,
      "t": 207111.3313499991,
      "d": 0,
      "v": 100
    },
    {
      "midi": 46,
      "hit": false,
      "t": 207195.9466499924,
      "d": 0,
      "v": 100
    },
    {
      "midi": 40,
      "hit": false,
      "t": 207226.71584999908,
      "d": 0,
      "v": 100
    },
    {
      "midi": 58,
      "hit": false,
      "t": 207311.3311499924,
      "d": 115.38449999998556,
      "v": 100
    },
    {
      "midi": 40,
      "hit": false,
      "t": 207342.10034999906,
      "d": 0,
      "v": 100
    },
    {
      "midi": 46,
      "hit": false,
      "t": 207542.10014999236,
      "d": 230.76900000000023,
      "v": 100
    },
    {
      "midi": 67,
      "hit": false,
      "t": 207542.10015000007,
      "d": 230.76900000000023,
      "v": 100
    },
    {
      "midi": 40,
      "hit": false,
      "t": 207688.25384999905,
      "d": 0,
      "v": 100
    },
    {
      "midi": 40,
      "hit": false,
      "t": 207803.63834999903,
      "d": 0,
      "v": 100
    },
    {
      "midi": 34,
      "hit": false,
      "t": 208003.63814999236,
      "d": 230.76899999997113,
      "v": 100
    },
    {
      "midi": 40,
      "hit": false,
      "t": 208034.407349999,
      "d": 57.69224999999278,
      "v": 100
    },
    {
      "midi": 46,
      "hit": false,
      "t": 208119.02264999234,
      "d": 115.38449999998556,
      "v": 100
    },
    {
      "midi": 58,
      "hit": false,
      "t": 208234.40714999233,
      "d": 115.38449999998556,
      "v": 100
    },
    {
      "midi": 70,
      "hit": false,
      "t": 208234.40715000007,
      "d": 230.76900000000023,
      "v": 100
    },
    {
      "midi": 40,
      "hit": false,
      "t": 208265.17634999898,
      "d": 0,
      "v": 100
    },
    {
      "midi": 53,
      "hit": false,
      "t": 208349.79164999232,
      "d": 115.38449999998556,
      "v": 100
    },
    {
      "midi": 40,
      "hit": false,
      "t": 208380.56084999896,
      "d": 0,
      "v": 100
    },
    {
      "midi": 46,
      "hit": false,
      "t": 208465.1761499923,
      "d": 115.38449999998556,
      "v": 100
    },
    {
      "midi": 40,
      "hit": false,
      "t": 208495.94534999895,
      "d": 0,
      "v": 100
    },
    {
      "midi": 34,
      "hit": false,
      "t": 208695.94514999227,
      "d": 230.76900000000023,
      "v": 100
    },
    {
      "midi": 58,
      "hit": false,
      "t": 208695.94515000016,
      "d": 0,
      "v": 100
    },
    {
      "midi": 53,
      "hit": false,
      "t": 208695.94515000016,
      "d": 0,
      "v": 100
    },
    {
      "midi": 46,
      "hit": false,
      "t": 208695.94515000016,
      "d": 0,
      "v": 100
    },
    {
      "midi": 50,
      "hit": false,
      "t": 208695.94515000016,
      "d": 0,
      "v": 100
    },
    {
      "midi": 40,
      "hit": false,
      "t": 208730.56049999892,
      "d": 226.92285000000265,
      "v": 100
    },
    {
      "midi": 69,
      "hit": false,
      "t": 208926.71415000007,
      "d": 230.76900000000023,
      "v": 100
    },
    {
      "midi": 40,
      "hit": false,
      "t": 208961.32949999892,
      "d": 0,
      "v": 100
    },
    {
      "midi": 46,
      "hit": false,
      "t": 209042.09864999226,
      "d": 0,
      "v": 100
    },
    {
      "midi": 40,
      "hit": false,
      "t": 209076.7139999989,
      "d": 0,
      "v": 100
    },
    {
      "midi": 58,
      "hit": false,
      "t": 209157.48314999224,
      "d": 115.38449999998556,
      "v": 100
    },
    {
      "midi": 40,
      "hit": false,
      "t": 209192.0984999989,
      "d": 0,
      "v": 100
    },
    {
      "midi": 46,
      "hit": false,
      "t": 209388.25214999221,
      "d": 230.76900000000023,
      "v": 100
    },
    {
      "midi": 40,
      "hit": false,
      "t": 209538.25199999887,
      "d": 0,
      "v": 100
    },
    {
      "midi": 67,
      "hit": false,
      "t": 209619.02115000007,
      "d": 230.76900000000023,
      "v": 100
    },
    {
      "midi": 40,
      "hit": false,
      "t": 209653.63649999886,
      "d": 0,
      "v": 100
    },
    {
      "midi": 34,
      "hit": false,
      "t": 209849.79014999222,
      "d": 230.76899999997113,
      "v": 100
    },
    {
      "midi": 40,
      "hit": false,
      "t": 209884.40549999883,
      "d": 57.69224999999278,
      "v": 100
    },
    {
      "midi": 46,
      "hit": false,
      "t": 209965.1746499922,
      "d": 115.38449999998556,
      "v": 100
    },
    {
      "midi": 58,
      "hit": false,
      "t": 210080.5591499922,
      "d": 115.38449999998556,
      "v": 100
    },
    {
      "midi": 70,
      "hit": false,
      "t": 210080.55915000007,
      "d": 230.76900000000023,
      "v": 100
    },
    {
      "midi": 40,
      "hit": false,
      "t": 210115.1744999988,
      "d": 0,
      "v": 100
    },
    {
      "midi": 53,
      "hit": false,
      "t": 210195.94364999217,
      "d": 115.38449999998556,
      "v": 100
    },
    {
      "midi": 40,
      "hit": false,
      "t": 210230.5589999988,
      "d": 0,
      "v": 100
    },
    {
      "midi": 46,
      "hit": false,
      "t": 210311.32814999216,
      "d": 115.38449999998556,
      "v": 100
    },
    {
      "midi": 40,
      "hit": false,
      "t": 210345.94349999877,
      "d": 0,
      "v": 100
    },
    {
      "midi": 17,
      "hit": false,
      "t": 210542.09714999213,
      "d": 115.38449999998556,
      "v": 100
    },
    {
      "midi": 70,
      "hit": false,
      "t": 210542.09715000007,
      "d": 230.76900000000023,
      "v": 100
    },
    {
      "midi": 53,
      "hit": false,
      "t": 210542.09715000016,
      "d": 0,
      "v": 100
    },
    {
      "midi": 40,
      "hit": false,
      "t": 210580.55864999874,
      "d": 226.92285000000265,
      "v": 100
    },
    {
      "midi": 40,
      "hit": false,
      "t": 210811.32764999874,
      "d": 0,
      "v": 100
    },
    {
      "midi": 29,
      "hit": false,
      "t": 210888.2506499921,
      "d": 0,
      "v": 100
    },
    {
      "midi": 40,
      "hit": false,
      "t": 210926.71214999873,
      "d": 0,
      "v": 100
    },
    {
      "midi": 41,
      "hit": false,
      "t": 211003.63514999207,
      "d": 115.38449999998556,
      "v": 100
    },
    {
      "midi": 40,
      "hit": false,
      "t": 211042.0966499987,
      "d": 0,
      "v": 100
    },
    {
      "midi": 29,
      "hit": false,
      "t": 211234.40414999204,
      "d": 115.38449999998556,
      "v": 100
    },
    {
      "midi": 69,
      "hit": false,
      "t": 211234.40415000007,
      "d": 230.76900000000023,
      "v": 100
    },
    {
      "midi": 40,
      "hit": false,
      "t": 211388.2501499987,
      "d": 0,
      "v": 100
    },
    {
      "midi": 40,
      "hit": false,
      "t": 211503.63464999868,
      "d": 0,
      "v": 100
    },
    {
      "midi": 17,
      "hit": false,
      "t": 211695.942149992,
      "d": 115.38449999998556,
      "v": 100
    },
    {
      "midi": 40,
      "hit": false,
      "t": 211734.40364999865,
      "d": 57.69224999999278,
      "v": 100
    },
    {
      "midi": 29,
      "hit": false,
      "t": 211811.326649992,
      "d": 115.38449999998556,
      "v": 100
    },
    {
      "midi": 41,
      "hit": false,
      "t": 211926.71114999198,
      "d": 115.38449999998556,
      "v": 100
    },
    {
      "midi": 67,
      "hit": false,
      "t": 211926.71115000008,
      "d": 230.76900000000023,
      "v": 100
    },
    {
      "midi": 40,
      "hit": false,
      "t": 211965.17264999863,
      "d": 0,
      "v": 100
    },
    {
      "midi": 36,
      "hit": false,
      "t": 212042.09564999197,
      "d": 115.38449999998556,
      "v": 100
    },
    {
      "midi": 40,
      "hit": false,
      "t": 212080.5571499986,
      "d": 0,
      "v": 100
    },
    {
      "midi": 29,
      "hit": false,
      "t": 212157.48014999196,
      "d": 115.38449999998556,
      "v": 100
    },
    {
      "midi": 40,
      "hit": false,
      "t": 212195.9416499986,
      "d": 0,
      "v": 100
    },
    {
      "midi": 17,
      "hit": false,
      "t": 212388.24914999193,
      "d": 115.38449999998556,
      "v": 100
    },
    {
      "midi": 48,
      "hit": false,
      "t": 212388.24915000016,
      "d": 0,
      "v": 100
    },
    {
      "midi": 53,
      "hit": false,
      "t": 212388.24915000016,
      "d": 0,
      "v": 100
    },
    {
      "midi": 41,
      "hit": false,
      "t": 212388.24915000016,
      "d": 0,
      "v": 100
    },
    {
      "midi": 45,
      "hit": false,
      "t": 212388.24915000016,
      "d": 0,
      "v": 100
    },
    {
      "midi": 40,
      "hit": false,
      "t": 212430.55679999857,
      "d": 226.92285000000265,
      "v": 100
    },
    {
      "midi": 65,
      "hit": false,
      "t": 212619.01815000008,
      "d": 230.76900000000023,
      "v": 100
    },
    {
      "midi": 40,
      "hit": false,
      "t": 212661.32579999857,
      "d": 0,
      "v": 100
    },
    {
      "midi": 29,
      "hit": false,
      "t": 212734.40264999188,
      "d": 0,
      "v": 100
    },
    {
      "midi": 40,
      "hit": false,
      "t": 212776.71029999855,
      "d": 0,
      "v": 100
    },
    {
      "midi": 41,
      "hit": false,
      "t": 212849.78714999187,
      "d": 115.38449999998556,
      "v": 100
    },
    {
      "midi": 40,
      "hit": false,
      "t": 212892.09479999854,
      "d": 0,
      "v": 100
    },
    {
      "midi": 29,
      "hit": false,
      "t": 213080.55614999184,
      "d": 115.38449999998556,
      "v": 100
    },
    {
      "midi": 40,
      "hit": false,
      "t": 213238.24829999852,
      "d": 0,
      "v": 100
    },
    {
      "midi": 70,
      "hit": false,
      "t": 213311.32515000008,
      "d": 230.76900000000023,
      "v": 100
    },
    {
      "midi": 40,
      "hit": false,
      "t": 213353.6327999985,
      "d": 0,
      "v": 100
    },
    {
      "midi": 17,
      "hit": false,
      "t": 213542.0941499918,
      "d": 115.38449999998556,
      "v": 100
    },
    {
      "midi": 69,
      "hit": false,
      "t": 213542.09415000008,
      "d": 230.76900000000023,
      "v": 100
    },
    {
      "midi": 40,
      "hit": false,
      "t": 213584.40179999848,
      "d": 57.69224999999278,
      "v": 100
    },
    {
      "midi": 29,
      "hit": false,
      "t": 213657.4786499918,
      "d": 115.38449999998556,
      "v": 100
    },
    {
      "midi": 41,
      "hit": false,
      "t": 213772.86314999178,
      "d": 115.38449999998556,
      "v": 100
    },
    {
      "midi": 67,
      "hit": false,
      "t": 213772.86315000008,
      "d": 230.76900000000023,
      "v": 100
    },
    {
      "midi": 40,
      "hit": false,
      "t": 213815.17079999845,
      "d": 0,
      "v": 100
    },
    {
      "midi": 36,
      "hit": false,
      "t": 213888.24764999177,
      "d": 115.38449999998556,
      "v": 100
    },
    {
      "midi": 40,
      "hit": false,
      "t": 213930.55529999844,
      "d": 0,
      "v": 100
    },
    {
      "midi": 29,
      "hit": false,
      "t": 214003.63214999175,
      "d": 115.38449999998556,
      "v": 100
    },
    {
      "midi": 65,
      "hit": false,
      "t": 214003.63215000008,
      "d": 230.76900000000023,
      "v": 100
    },
    {
      "midi": 40,
      "hit": false,
      "t": 214045.93979999842,
      "d": 0,
      "v": 100
    }
  ]
}