{
  "jsonPath": "Soundtracks/Video Game Music/Circus Charlie/circus-charlie-theme1.json",
  "path": "Soundtracks\\Video Game Music\\Circus Charlie\\Circus_Charlie_Theme1.mid",
  "name": "Circus_Charlie_Theme1",
  "difficulty": "Advanced",
  "bpm": 120,
  "notes": [
    {
      "midi": 71,
      "hit": false,
      "t": 5.208333333333333,
      "d": 67.70833333333333,
      "v": 102
    },
    {
      "midi": 73,
      "hit": false,
      "t": 83.33333333333333,
      "d": 119.79166666666667,
      "v": 115
    },
    {
      "midi": 74,
      "hit": false,
      "t": 213.54166666666666,
      "d": 213.54166666666666,
      "v": 116
    },
    {
      "midi": 50,
      "hit": false,
      "t": 234.375,
      "d": 338.54166666666674,
      "v": 102
    },
    {
      "midi": 74,
      "hit": false,
      "t": 442.7083333333333,
      "d": 213.54166666666669,
      "v": 117
    },
    {
      "midi": 57,
      "hit": false,
      "t": 458.33333333333337,
      "d": 281.25,
      "v": 104
    },
    {
      "midi": 74,
      "hit": false,
      "t": 687.5,
      "d": 88.54166666666663,
      "v": 117
    },
    {
      "midi": 50,
      "hit": false,
      "t": 692.7083333333334,
      "d": 328.125,
      "v": 102
    },
    {
      "midi": 73,
      "hit": false,
      "t": 791.6666666666666,
      "d": 104.16666666666663,
      "v": 115
    },
    {
      "midi": 74,
      "hit": false,
      "t": 916.6666666666666,
      "d": 109.37499999999989,
      "v": 115
    },
    {
      "midi": 57,
      "hit": false,
      "t": 927.0833333333334,
      "d": 171.8750000000001,
      "v": 104
    },
    {
      "midi": 76,
      "hit": false,
      "t": 1036.4583333333333,
      "d": 98.95833333333326,
      "v": 117
    },
    {
      "midi": 78,
      "hit": false,
      "t": 1145.8333333333333,
      "d": 208.33333333333326,
      "v": 117
    },
    {
      "midi": 50,
      "hit": false,
      "t": 1166.6666666666667,
      "d": 333.3333333333335,
      "v": 102
    },
    {
      "midi": 78,
      "hit": false,
      "t": 1374.9999999999998,
      "d": 208.33333333333326,
      "v": 118
    },
    {
      "midi": 57,
      "hit": false,
      "t": 1395.8333333333335,
      "d": 244.79166666666674,
      "v": 104
    },
    {
      "midi": 78,
      "hit": false,
      "t": 1614.583333333333,
      "d": 88.54166666666674,
      "v": 118
    },
    {
      "midi": 50,
      "hit": false,
      "t": 1635.416666666667,
      "d": 338.5416666666665,
      "v": 102
    },
    {
      "midi": 77,
      "hit": false,
      "t": 1729.1666666666665,
      "d": 93.75,
      "v": 117
    },
    {
      "midi": 78,
      "hit": false,
      "t": 1843.7499999999998,
      "d": 88.54166666666674,
      "v": 117
    },
    {
      "midi": 57,
      "hit": false,
      "t": 1864.5833333333335,
      "d": 276.0416666666665,
      "v": 104
    },
    {
      "midi": 79,
      "hit": false,
      "t": 1963.5416666666665,
      "d": 104.16666666666652,
      "v": 118
    },
    {
      "midi": 81,
      "hit": false,
      "t": 2078.1249999999995,
      "d": 203.125,
      "v": 117
    },
    {
      "midi": 50,
      "hit": false,
      "t": 2093.75,
      "d": 229.16666666666652,
      "v": 102
    },
    {
      "midi": 81,
      "hit": false,
      "t": 2312.4999999999995,
      "d": 213.54166666666652,
      "v": 118
    },
    {
      "midi": 54,
      "hit": false,
      "t": 2328.125,
      "d": 109.375,
      "v": 102
    },
    {
      "midi": 53,
      "hit": false,
      "t": 2442.7083333333335,
      "d": 130.20833333333303,
      "v": 102
    },
    {
      "midi": 81,
      "hit": false,
      "t": 2541.666666666666,
      "d": 93.75,
      "v": 119
    },
    {
      "midi": 54,
      "hit": false,
      "t": 2562.5,
      "d": 208.33333333333303,
      "v": 104
    },
    {
      "midi": 80,
      "hit": false,
      "t": 2666.666666666666,
      "d": 88.54166666666652,
      "v": 118
    },
    {
      "midi": 81,
      "hit": false,
      "t": 2776.041666666666,
      "d": 109.375,
      "v": 117
    },
    {
      "midi": 57,
      "hit": false,
      "t": 2791.6666666666665,
      "d": 260.4166666666665,
      "v": 104
    },
    {
      "midi": 86,
      "hit": false,
      "t": 2895.8333333333326,
      "d": 109.375,
      "v": 118
    },
    {
      "midi": 81,
      "hit": false,
      "t": 3015.624999999999,
      "d": 687.5,
      "v": 118
    },
    {
      "midi": 50,
      "hit": false,
      "t": 3026.0416666666665,
      "d": 281.25,
      "v": 102
    },
    {
      "midi": 57,
      "hit": false,
      "t": 3255.208333333333,
      "d": 281.25,
      "v": 104
    },
    {
      "midi": 50,
      "hit": false,
      "t": 3494.7916666666665,
      "d": 328.125,
      "v": 102
    },
    {
      "midi": 78,
      "hit": false,
      "t": 3713.5416666666656,
      "d": 218.75,
      "v": 117
    },
    {
      "midi": 57,
      "hit": false,
      "t": 3729.1666666666665,
      "d": 250,
      "v": 104
    },
    {
      "midi": 79,
      "hit": false,
      "t": 3942.708333333332,
      "d": 213.54166666666697,
      "v": 118
    },
    {
      "midi": 49,
      "hit": false,
      "t": 3963.5416666666665,
      "d": 338.5416666666665,
      "v": 101
    },
    {
      "midi": 79,
      "hit": false,
      "t": 4177.083333333332,
      "d": 104.16666666666697,
      "v": 118
    },
    {
      "midi": 57,
      "hit": false,
      "t": 4192.708333333333,
      "d": 286.45833333333394,
      "v": 104
    },
    {
      "midi": 78,
      "hit": false,
      "t": 4291.666666666666,
      "d": 114.58333333333303,
      "v": 117
    },
    {
      "midi": 76,
      "hit": false,
      "t": 4416.666666666666,
      "d": 218.75,
      "v": 117
    },
    {
      "midi": 49,
      "hit": false,
      "t": 4437.5,
      "d": 432.29166666666697,
      "v": 101
    },
    {
      "midi": 79,
      "hit": false,
      "t": 4645.833333333333,
      "d": 208.33333333333303,
      "v": 117
    },
    {
      "midi": 57,
      "hit": false,
      "t": 4666.666666666667,
      "d": 270.83333333333394,
      "v": 104
    },
    {
      "midi": 78,
      "hit": false,
      "t": 4874.999999999999,
      "d": 208.33333333333303,
      "v": 117
    },
    {
      "midi": 50,
      "hit": false,
      "t": 4895.833333333334,
      "d": 307.29166666666697,
      "v": 102
    },
    {
      "midi": 78,
      "hit": false,
      "t": 5114.583333333332,
      "d": 104.16666666666697,
      "v": 118
    },
    {
      "midi": 57,
      "hit": false,
      "t": 5125.000000000001,
      "d": 286.45833333333303,
      "v": 104
    },
    {
      "midi": 76,
      "hit": false,
      "t": 5234.374999999999,
      "d": 98.95833333333303,
      "v": 117
    },
    {
      "midi": 74,
      "hit": false,
      "t": 5343.749999999999,
      "d": 229.16666666666697,
      "v": 116
    },
    {
      "midi": 50,
      "hit": false,
      "t": 5364.583333333334,
      "d": 322.91666666666697,
      "v": 102
    },
    {
      "midi": 78,
      "hit": false,
      "t": 5583.333333333333,
      "d": 197.91666666666697,
      "v": 117
    },
    {
      "midi": 57,
      "hit": false,
      "t": 5593.750000000001,
      "d": 265.625,
      "v": 104
    },
    {
      "midi": 76,
      "hit": false,
      "t": 5812.5,
      "d": 218.75,
      "v": 116
    },
    {
      "midi": 47,
      "hit": false,
      "t": 5828.125000000001,
      "d": 375,
      "v": 100
    },
    {
      "midi": 71,
      "hit": false,
      "t": 6041.666666666667,
      "d": 213.54166666666697,
      "v": 114
    },
    {
      "midi": 56,
      "hit": false,
      "t": 6062.500000000001,
      "d": 223.95833333333303,
      "v": 104
    },
    {
      "midi": 73,
      "hit": false,
      "t": 6286.458333333334,
      "d": 197.91666666666697,
      "v": 115
    },
    {
      "midi": 52,
      "hit": false,
      "t": 6291.666666666667,
      "d": 218.75,
      "v": 103
    },
    {
      "midi": 74,
      "hit": false,
      "t": 6515.625000000001,
      "d": 208.33333333333303,
      "v": 116
    },
    {
      "midi": 56,
      "hit": false,
      "t": 6536.458333333334,
      "d": 192.70833333333303,
      "v": 104
    },
    {
      "midi": 76,
      "hit": false,
      "t": 6744.791666666667,
      "d": 520.833333333333,
      "v": 116
    },
    {
      "midi": 57,
      "hit": false,
      "t": 6755.208333333334,
      "d": 218.75,
      "v": 104
    },
    {
      "midi": 57,
      "hit": false,
      "t": 6994.791666666667,
      "d": 104.16666666666697,
      "v": 103
    },
    {
      "midi": 55,
      "hit": false,
      "t": 7104.166666666667,
      "d": 119.79166666666697,
      "v": 102
    },
    {
      "midi": 54,
      "hit": false,
      "t": 7229.166666666667,
      "d": 208.33333333333303,
      "v": 104
    },
    {
      "midi": 71,
      "hit": false,
      "t": 7442.708333333333,
      "d": 109.375,
      "v": 114
    },
    {
      "midi": 52,
      "hit": false,
      "t": 7463.541666666667,
      "d": 208.33333333333303,
      "v": 102
    },
    {
      "midi": 73,
      "hit": false,
      "t": 7562.5,
      "d": 93.75,
      "v": 115
    },
    {
      "midi": 74,
      "hit": false,
      "t": 7677.083333333333,
      "d": 208.33333333333303,
      "v": 116
    },
    {
      "midi": 50,
      "hit": false,
      "t": 7692.708333333333,
      "d": 338.54166666666697,
      "v": 102
    },
    {
      "midi": 74,
      "hit": false,
      "t": 7916.666666666666,
      "d": 208.33333333333303,
      "v": 117
    },
    {
      "midi": 57,
      "hit": false,
      "t": 7927.083333333333,
      "d": 255.20833333333394,
      "v": 104
    },
    {
      "midi": 74,
      "hit": false,
      "t": 8145.833333333332,
      "d": 98.95833333333394,
      "v": 117
    },
    {
      "midi": 50,
      "hit": false,
      "t": 8166.666666666667,
      "d": 307.29166666666697,
      "v": 102
    },
    {
      "midi": 73,
      "hit": false,
      "t": 8265.625,
      "d": 88.54166666666606,
      "v": 115
    },
    {
      "midi": 74,
      "hit": false,
      "t": 8385.416666666666,
      "d": 98.95833333333394,
      "v": 116
    },
    {
      "midi": 57,
      "hit": false,
      "t": 8395.833333333334,
      "d": 265.625,
      "v": 104
    },
    {
      "midi": 76,
      "hit": false,
      "t": 8494.791666666666,
      "d": 109.375,
      "v": 116
    },
    {
      "midi": 78,
      "hit": false,
      "t": 8614.583333333332,
      "d": 208.33333333333394,
      "v": 117
    },
    {
      "midi": 50,
      "hit": false,
      "t": 8625,
      "d": 312.5000000000018,
      "v": 102
    },
    {
      "midi": 78,
      "hit": false,
      "t": 8843.75,
      "d": 208.33333333333394,
      "v": 118
    },
    {
      "midi": 57,
      "hit": false,
      "t": 8854.166666666668,
      "d": 255.20833333333394,
      "v": 104
    },
    {
      "midi": 78,
      "hit": false,
      "t": 9078.125,
      "d": 104.16666666666606,
      "v": 118
    },
    {
      "midi": 50,
      "hit": false,
      "t": 9104.166666666668,
      "d": 333.33333333333394,
      "v": 102
    },
    {
      "midi": 77,
      "hit": false,
      "t": 9192.708333333332,
      "d": 88.54166666666606,
      "v": 117
    },
    {
      "midi": 78,
      "hit": false,
      "t": 9312.499999999998,
      "d": 93.75,
      "v": 117
    },
    {
      "midi": 57,
      "hit": false,
      "t": 9328.125000000002,
      "d": 281.25,
      "v": 104
    },
    {
      "midi": 79,
      "hit": false,
      "t": 9427.083333333332,
      "d": 104.16666666666606,
      "v": 118
    },
    {
      "midi": 81,
      "hit": false,
      "t": 9541.666666666664,
      "d": 213.54166666666606,
      "v": 118
    },
    {
      "midi": 50,
      "hit": false,
      "t": 9562.500000000002,
      "d": 307.29166666666606,
      "v": 102
    },
    {
      "midi": 81,
      "hit": false,
      "t": 9776.041666666664,
      "d": 208.33333333333394,
      "v": 118
    },
    {
      "midi": 54,
      "hit": false,
      "t": 9791.666666666668,
      "d": 130.20833333333394,
      "v": 102
    },
    {
      "midi": 53,
      "hit": false,
      "t": 9916.666666666668,
      "d": 104.16666666666788,
      "v": 101
    },
    {
      "midi": 81,
      "hit": false,
      "t": 10015.624999999998,
      "d": 88.54166666666606,
      "v": 119
    },
    {
      "midi": 54,
      "hit": false,
      "t": 10026.04166666667,
      "d": 203.125,
      "v": 104
    },
    {
      "midi": 80,
      "hit": false,
      "t": 10124.999999999998,
      "d": 109.375,
      "v": 118
    },
    {
      "midi": 81,
      "hit": false,
      "t": 10244.791666666664,
      "d": 109.375,
      "v": 118
    },
    {
      "midi": 57,
      "hit": false,
      "t": 10255.208333333336,
      "d": 255.20833333333394,
      "v": 104
    },
    {
      "midi": 86,
      "hit": false,
      "t": 10364.58333333333,
      "d": 104.16666666666606,
      "v": 118
    },
    {
      "midi": 81,
      "hit": false,
      "t": 10479.166666666662,
      "d": 697.9166666666661,
      "v": 118
    },
    {
      "midi": 50,
      "hit": false,
      "t": 10494.79166666667,
      "d": 328.125,
      "v": 102
    },
    {
      "midi": 57,
      "hit": false,
      "t": 10729.16666666667,
      "d": 244.79166666666606,
      "v": 104
    },
    {
      "midi": 50,
      "hit": false,
      "t": 10963.54166666667,
      "d": 208.33333333333212,
      "v": 102
    },
    {
      "midi": 45,
      "hit": false,
      "t": 11187.500000000002,
      "d": 62.5,
      "v": 19
    },
    {
      "midi": 50,
      "hit": false,
      "t": 11192.708333333336,
      "d": 296.875,
      "v": 102
    },
    {
      "midi": 83,
      "hit": false,
      "t": 11416.666666666662,
      "d": 208.33333333333394,
      "v": 119
    },
    {
      "midi": 55,
      "hit": false,
      "t": 11427.083333333336,
      "d": 213.54166666666606,
      "v": 104
    },
    {
      "midi": 81,
      "hit": false,
      "t": 11645.83333333333,
      "d": 218.75,
      "v": 118
    },
    {
      "midi": 54,
      "hit": false,
      "t": 11666.666666666668,
      "d": 203.125,
      "v": 103
    },
    {
      "midi": 79,
      "hit": false,
      "t": 11874.999999999996,
      "d": 208.33333333333394,
      "v": 118
    },
    {
      "midi": 52,
      "hit": false,
      "t": 11895.833333333334,
      "d": 203.125,
      "v": 103
    },
    {
      "midi": 78,
      "hit": false,
      "t": 12114.58333333333,
      "d": 218.75,
      "v": 117
    },
    {
      "midi": 50,
      "hit": false,
      "t": 12135.416666666668,
      "d": 203.125,
      "v": 101
    },
    {
      "midi": 76,
      "hit": false,
      "t": 12343.749999999996,
      "d": 208.33333333333394,
      "v": 116
    },
    {
      "midi": 49,
      "hit": false,
      "t": 12354.166666666668,
      "d": 218.75,
      "v": 101
    },
    {
      "midi": 74,
      "hit": false,
      "t": 12583.33333333333,
      "d": 197.91666666666606,
      "v": 116
    },
    {
      "midi": 47,
      "hit": false,
      "t": 12593.750000000002,
      "d": 213.54166666666606,
      "v": 100
    },
    {
      "midi": 73,
      "hit": false,
      "t": 12812.499999999996,
      "d": 213.54166666666606,
      "v": 115
    },
    {
      "midi": 40,
      "hit": false,
      "t": 12812.500000000002,
      "d": 109.375,
      "v": 21
    },
    {
      "midi": 45,
      "hit": false,
      "t": 12833.333333333336,
      "d": 307.29166666666606,
      "v": 98
    },
    {
      "midi": 74,
      "hit": false,
      "t": 13041.666666666662,
      "d": 234.375,
      "v": 116
    },
    {
      "midi": 42,
      "hit": false,
      "t": 13078.125000000002,
      "d": 203.125,
      "v": 95
    },
    {
      "midi": 76,
      "hit": false,
      "t": 13286.458333333328,
      "d": 218.75,
      "v": 117
    },
    {
      "midi": 43,
      "hit": false,
      "t": 13312.500000000002,
      "d": 427.08333333333394,
      "v": 96
    },
    {
      "midi": 78,
      "hit": false,
      "t": 13515.624999999995,
      "d": 88.54166666666606,
      "v": 117
    },
    {
      "midi": 79,
      "hit": false,
      "t": 13624.999999999995,
      "d": 109.375,
      "v": 118
    },
    {
      "midi": 78,
      "hit": false,
      "t": 13744.79166666666,
      "d": 223.95833333333394,
      "v": 117
    },
    {
      "midi": 45,
      "hit": false,
      "t": 13765.625000000002,
      "d": 364.5833333333321,
      "v": 98
    },
    {
      "midi": 76,
      "hit": false,
      "t": 13984.374999999995,
      "d": 218.75,
      "v": 117
    },
    {
      "midi": 55,
      "hit": false,
      "t": 13994.791666666668,
      "d": 208.33333333333212,
      "v": 104
    },
    {
      "midi": 74,
      "hit": false,
      "t": 14213.54166666666,
      "d": 234.375,
      "v": 115
    },
    {
      "midi": 54,
      "hit": false,
      "t": 14229.166666666666,
      "d": 328.125,
      "v": 103
    },
    {
      "midi": 69,
      "hit": false,
      "t": 14458.333333333327,
      "d": 88.54166666666606,
      "v": 113
    },
    {
      "midi": 71,
      "hit": false,
      "t": 14562.499999999993,
      "d": 114.58333333333394,
      "v": 114
    },
    {
      "midi": 73,
      "hit": false,
      "t": 14687.499999999993,
      "d": 88.54166666666606,
      "v": 115
    },
    {
      "midi": 74,
      "hit": false,
      "t": 14791.666666666659,
      "d": 114.58333333333394,
      "v": 116
    },
    {
      "midi": 76,
      "hit": false,
      "t": 14916.666666666659,
      "d": 98.95833333333394,
      "v": 116
    },
    {
      "midi": 78,
      "hit": false,
      "t": 15026.041666666659,
      "d": 109.375,
      "v": 117
    },
    {
      "midi": 79,
      "hit": false,
      "t": 15145.833333333325,
      "d": 208.33333333333394,
      "v": 118
    },
    {
      "midi": 49,
      "hit": false,
      "t": 15166.666666666666,
      "d": 364.5833333333321,
      "v": 101
    },
    {
      "midi": 79,
      "hit": false,
      "t": 15374.999999999993,
      "d": 208.33333333333394,
      "v": 118
    },
    {
      "midi": 57,
      "hit": false,
      "t": 15395.833333333332,
      "d": 255.20833333333212,
      "v": 104
    },
    {
      "midi": 79,
      "hit": false,
      "t": 15614.583333333327,
      "d": 208.33333333333394,
      "v": 119
    },
    {
      "midi": 50,
      "hit": false,
      "t": 15635.416666666664,
      "d": 322.91666666666606,
      "v": 102
    },
    {
      "midi": 79,
      "hit": false,
      "t": 15843.749999999995,
      "d": 208.33333333333394,
      "v": 118
    },
    {
      "midi": 57,
      "hit": false,
      "t": 15854.166666666664,
      "d": 234.375,
      "v": 104
    },
    {
      "midi": 79,
      "hit": false,
      "t": 16078.124999999995,
      "d": 104.16666666666606,
      "v": 118
    },
    {
      "midi": 52,
      "hit": false,
      "t": 16093.749999999998,
      "d": 296.8750000000018,
      "v": 103
    },
    {
      "midi": 78,
      "hit": false,
      "t": 16192.708333333327,
      "d": 88.54166666666606,
      "v": 117
    },
    {
      "midi": 79,
      "hit": false,
      "t": 16312.499999999993,
      "d": 442.7083333333321,
      "v": 118
    },
    {
      "midi": 57,
      "hit": false,
      "t": 16328.124999999998,
      "d": 203.12500000000182,
      "v": 104
    },
    {
      "midi": 53,
      "hit": false,
      "t": 16562.5,
      "d": 208.33333333333212,
      "v": 103
    },
    {
      "midi": 80,
      "hit": false,
      "t": 16776.041666666657,
      "d": 208.33333333333212,
      "v": 118
    },
    {
      "midi": 57,
      "hit": false,
      "t": 16791.666666666664,
      "d": 208.33333333333212,
      "v": 104
    },
    {
      "midi": 81,
      "hit": false,
      "t": 17015.62499999999,
      "d": 208.33333333333212,
      "v": 118
    },
    {
      "midi": 54,
      "hit": false,
      "t": 17026.041666666664,
      "d": 213.54166666666788,
      "v": 103
    },
    {
      "midi": 81,
      "hit": false,
      "t": 17244.791666666653,
      "d": 208.33333333333212,
      "v": 119
    },
    {
      "midi": 57,
      "hit": false,
      "t": 17265.625,
      "d": 244.79166666666788,
      "v": 104
    },
    {
      "midi": 81,
      "hit": false,
      "t": 17479.166666666653,
      "d": 104.16666666666788,
      "v": 118
    },
    {
      "midi": 49,
      "hit": false,
      "t": 17494.791666666668,
      "d": 364.5833333333321,
      "v": 101
    },
    {
      "midi": 79,
      "hit": false,
      "t": 17593.74999999999,
      "d": 88.54166666666788,
      "v": 117
    },
    {
      "midi": 78,
      "hit": false,
      "t": 17713.541666666657,
      "d": 88.54166666666788,
      "v": 117
    },
    {
      "midi": 57,
      "hit": false,
      "t": 17729.166666666668,
      "d": 203.125,
      "v": 104
    },
    {
      "midi": 79,
      "hit": false,
      "t": 17828.124999999993,
      "d": 104.16666666666788,
      "v": 118
    },
    {
      "midi": 81,
      "hit": false,
      "t": 17942.70833333333,
      "d": 682.2916666666679,
      "v": 118
    },
    {
      "midi": 50,
      "hit": false,
      "t": 17963.541666666668,
      "d": 307.2916666666679,
      "v": 102
    },
    {
      "midi": 57,
      "hit": false,
      "t": 18192.708333333336,
      "d": 109.375,
      "v": 103
    },
    {
      "midi": 56,
      "hit": false,
      "t": 18307.291666666668,
      "d": 114.58333333333212,
      "v": 103
    },
    {
      "midi": 57,
      "hit": false,
      "t": 18427.083333333332,
      "d": 203.125,
      "v": 104
    },
    {
      "midi": 81,
      "hit": false,
      "t": 18645.83333333333,
      "d": 218.75,
      "v": 119
    },
    {
      "midi": 54,
      "hit": false,
      "t": 18666.666666666664,
      "d": 203.125,
      "v": 103
    },
    {
      "midi": 83,
      "hit": false,
      "t": 18874.999999999996,
      "d": 208.33333333333212,
      "v": 118
    },
    {
      "midi": 55,
      "hit": false,
      "t": 18895.833333333332,
      "d": 203.125,
      "v": 104
    },
    {
      "midi": 83,
      "hit": false,
      "t": 19114.58333333333,
      "d": 218.75,
      "v": 119
    },
    {
      "midi": 55,
      "hit": false,
      "t": 19125,
      "d": 104.16666666666788,
      "v": 102
    },
    {
      "midi": 57,
      "hit": false,
      "t": 19234.375,
      "d": 114.58333333333212,
      "v": 103
    },
    {
      "midi": 86,
      "hit": false,
      "t": 19343.749999999996,
      "d": 333.3333333333321,
      "v": 118
    },
    {
      "midi": 59,
      "hit": false,
      "t": 19354.166666666664,
      "d": 218.75,
      "v": 105
    },
    {
      "midi": 55,
      "hit": false,
      "t": 19593.749999999996,
      "d": 208.33333333333212,
      "v": 104
    },
    {
      "midi": 83,
      "hit": false,
      "t": 19692.70833333333,
      "d": 109.375,
      "v": 118
    },
    {
      "midi": 49,
      "hit": false,
      "t": 19812.499999999996,
      "d": 46.875,
      "v": 19
    },
    {
      "midi": 81,
      "hit": false,
      "t": 19812.499999999996,
      "d": 213.54166666666788,
      "v": 118
    },
    {
      "midi": 54,
      "hit": false,
      "t": 19828.124999999996,
      "d": 302.08333333333576,
      "v": 103
    },
    {
      "midi": 81,
      "hit": false,
      "t": 20041.666666666664,
      "d": 213.54166666666788,
      "v": 119
    },
    {
      "midi": 62,
      "hit": false,
      "t": 20057.291666666664,
      "d": 250,
      "v": 105
    },
    {
      "midi": 81,
      "hit": false,
      "t": 20276.041666666664,
      "d": 109.375,
      "v": 118
    },
    {
      "midi": 50,
      "hit": false,
      "t": 20291.666666666664,
      "d": 208.33333333333212,
      "v": 102
    },
    {
      "midi": 79,
      "hit": false,
      "t": 20395.833333333332,
      "d": 88.54166666666788,
      "v": 117
    },
    {
      "midi": 78,
      "hit": false,
      "t": 20515.625,
      "d": 218.75,
      "v": 117
    },
    {
      "midi": 50,
      "hit": false,
      "t": 20526.041666666664,
      "d": 125,
      "v": 99
    },
    {
      "midi": 51,
      "hit": false,
      "t": 20656.249999999996,
      "d": 104.16666666666788,
      "v": 100
    },
    {
      "midi": 79,
      "hit": false,
      "t": 20744.791666666668,
      "d": 208.33333333333212,
      "v": 118
    },
    {
      "midi": 52,
      "hit": false,
      "t": 20765.624999999996,
      "d": 104.16666666666788,
      "v": 101
    },
    {
      "midi": 53,
      "hit": false,
      "t": 20874.999999999996,
      "d": 114.58333333333212,
      "v": 102
    },
    {
      "midi": 79,
      "hit": false,
      "t": 20979.166666666668,
      "d": 223.95833333333212,
      "v": 118
    },
    {
      "midi": 54,
      "hit": false,
      "t": 20994.79166666666,
      "d": 104.16666666666788,
      "v": 102
    },
    {
      "midi": 55,
      "hit": false,
      "t": 21104.16666666666,
      "d": 119.79166666666788,
      "v": 103
    },
    {
      "midi": 73,
      "hit": false,
      "t": 21213.541666666668,
      "d": 218.75,
      "v": 115
    },
    {
      "midi": 57,
      "hit": false,
      "t": 21229.16666666666,
      "d": 302.0833333333321,
      "v": 104
    },
    {
      "midi": 76,
      "hit": false,
      "t": 21442.708333333336,
      "d": 234.375,
      "v": 116
    },
    {
      "midi": 74,
      "hit": false,
      "t": 21687.500000000004,
      "d": 197.91666666666788,
      "v": 116
    },
    {
      "midi": 54,
      "hit": false,
      "t": 21692.708333333325,
      "d": 208.33333333333212,
      "v": 103
    },
    {
      "midi": 74,
      "hit": false,
      "t": 21916.66666666667,
      "d": 208.33333333333212,
      "v": 117
    },
    {
      "midi": 54,
      "hit": false,
      "t": 21927.083333333325,
      "d": 213.54166666666788,
      "v": 104
    },
    {
      "midi": 74,
      "hit": false,
      "t": 22145.833333333336,
      "d": 229.16666666666788,
      "v": 117
    },
    {
      "midi": 54,
      "hit": false,
      "t": 22166.66666666666,
      "d": 322.9166666666679,
      "v": 103
    },
    {
      "midi": 71,
      "hit": false,
      "t": 22385.41666666667,
      "d": 98.95833333333212,
      "v": 114
    },
    {
      "midi": 73,
      "hit": false,
      "t": 22494.79166666667,
      "d": 109.375,
      "v": 115
    },
    {
      "midi": 74,
      "hit": false,
      "t": 22614.58333333334,
      "d": 208.33333333333212,
      "v": 116
    },
    {
      "midi": 50,
      "hit": false,
      "t": 22624.999999999996,
      "d": 328.125,
      "v": 102
    },
    {
      "midi": 74,
      "hit": false,
      "t": 22843.750000000004,
      "d": 208.33333333333212,
      "v": 117
    },
    {
      "midi": 57,
      "hit": false,
      "t": 22854.166666666664,
      "d": 286.4583333333321,
      "v": 104
    },
    {
      "midi": 74,
      "hit": false,
      "t": 23078.125000000004,
      "d": 98.95833333333212,
      "v": 117
    },
    {
      "midi": 50,
      "hit": false,
      "t": 23093.749999999996,
      "d": 338.5416666666679,
      "v": 102
    },
    {
      "midi": 73,
      "hit": false,
      "t": 23192.708333333336,
      "d": 109.375,
      "v": 115
    },
    {
      "midi": 74,
      "hit": false,
      "t": 23312.500000000004,
      "d": 114.58333333333212,
      "v": 116
    },
    {
      "midi": 57,
      "hit": false,
      "t": 23328.124999999996,
      "d": 203.125,
      "v": 104
    },
    {
      "midi": 76,
      "hit": false,
      "t": 23437.500000000004,
      "d": 93.75,
      "v": 117
    },
    {
      "midi": 78,
      "hit": false,
      "t": 23541.66666666667,
      "d": 213.54166666666788,
      "v": 117
    },
    {
      "midi": 50,
      "hit": false,
      "t": 23562.499999999996,
      "d": 328.125,
      "v": 102
    },
    {
      "midi": 78,
      "hit": false,
      "t": 23776.04166666667,
      "d": 208.33333333333212,
      "v": 118
    },
    {
      "midi": 57,
      "hit": false,
      "t": 23791.666666666664,
      "d": 208.33333333333212,
      "v": 104
    },
    {
      "midi": 78,
      "hit": false,
      "t": 24015.625000000004,
      "d": 88.54166666666788,
      "v": 118
    },
    {
      "midi": 50,
      "hit": false,
      "t": 24026.041666666664,
      "d": 343.75,
      "v": 102
    },
    {
      "midi": 77,
      "hit": false,
      "t": 24125.000000000004,
      "d": 98.95833333333212,
      "v": 117
    },
    {
      "midi": 78,
      "hit": false,
      "t": 24244.791666666668,
      "d": 109.375,
      "v": 117
    },
    {
      "midi": 57,
      "hit": false,
      "t": 24265.624999999996,
      "d": 208.33333333333576,
      "v": 104
    },
    {
      "midi": 79,
      "hit": false,
      "t": 24364.583333333336,
      "d": 104.16666666666788,
      "v": 118
    },
    {
      "midi": 81,
      "hit": false,
      "t": 24479.16666666667,
      "d": 203.125,
      "v": 117
    },
    {
      "midi": 54,
      "hit": false,
      "t": 24484.375,
      "d": 36.45833333333212,
      "v": 19
    },
    {
      "midi": 50,
      "hit": false,
      "t": 24505.208333333332,
      "d": 296.875,
      "v": 101
    },
    {
      "midi": 81,
      "hit": false,
      "t": 24713.54166666667,
      "d": 213.54166666666788,
      "v": 119
    },
    {
      "midi": 54,
      "hit": false,
      "t": 24729.166666666664,
      "d": 109.375,
      "v": 102
    },
    {
      "midi": 53,
      "hit": false,
      "t": 24843.749999999996,
      "d": 114.58333333333212,
      "v": 102
    },
    {
      "midi": 81,
      "hit": false,
      "t": 24942.70833333334,
      "d": 88.54166666666788,
      "v": 119
    },
    {
      "midi": 54,
      "hit": false,
      "t": 24963.54166666666,
      "d": 208.33333333333212,
      "v": 104
    },
    {
      "midi": 80,
      "hit": false,
      "t": 25062.500000000007,
      "d": 93.75,
      "v": 118
    },
    {
      "midi": 81,
      "hit": false,
      "t": 25177.08333333334,
      "d": 104.16666666666788,
      "v": 117
    },
    {
      "midi": 57,
      "hit": false,
      "t": 25192.708333333325,
      "d": 281.25,
      "v": 104
    },
    {
      "midi": 86,
      "hit": false,
      "t": 25291.666666666675,
      "d": 114.58333333333212,
      "v": 118
    },
    {
      "midi": 81,
      "hit": false,
      "t": 25416.666666666675,
      "d": 687.5,
      "v": 118
    },
    {
      "midi": 50,
      "hit": false,
      "t": 25427.083333333325,
      "d": 296.875,
      "v": 102
    },
    {
      "midi": 57,
      "hit": false,
      "t": 25656.249999999993,
      "d": 213.54166666666424,
      "v": 104
    },
    {
      "midi": 50,
      "hit": false,
      "t": 25895.833333333325,
      "d": 333.33333333333576,
      "v": 102
    },
    {
      "midi": 78,
      "hit": false,
      "t": 26114.583333333343,
      "d": 218.75,
      "v": 117
    },
    {
      "midi": 57,
      "hit": false,
      "t": 26124.999999999993,
      "d": 276.0416666666679,
      "v": 104
    },
    {
      "midi": 79,
      "hit": false,
      "t": 26343.75000000001,
      "d": 208.33333333333212,
      "v": 117
    },
    {
      "midi": 49,
      "hit": false,
      "t": 26364.58333333333,
      "d": 437.49999999999636,
      "v": 101
    },
    {
      "midi": 79,
      "hit": false,
      "t": 26578.12500000001,
      "d": 104.16666666666788,
      "v": 118
    },
    {
      "midi": 57,
      "hit": false,
      "t": 26593.749999999993,
      "d": 286.4583333333321,
      "v": 104
    },
    {
      "midi": 78,
      "hit": false,
      "t": 26692.708333333347,
      "d": 109.375,
      "v": 117
    },
    {
      "midi": 76,
      "hit": false,
      "t": 26812.500000000015,
      "d": 218.75,
      "v": 116
    },
    {
      "midi": 49,
      "hit": false,
      "t": 26833.333333333325,
      "d": 296.875,
      "v": 101
    },
    {
      "midi": 79,
      "hit": false,
      "t": 27041.666666666682,
      "d": 213.54166666666788,
      "v": 117
    },
    {
      "midi": 57,
      "hit": false,
      "t": 27062.499999999993,
      "d": 276.04166666666424,
      "v": 104
    },
    {
      "midi": 78,
      "hit": false,
      "t": 27276.041666666682,
      "d": 208.33333333333212,
      "v": 117
    },
    {
      "midi": 50,
      "hit": false,
      "t": 27291.666666666657,
      "d": 359.375,
      "v": 102
    },
    {
      "midi": 78,
      "hit": false,
      "t": 27515.625000000015,
      "d": 98.95833333333212,
      "v": 118
    },
    {
      "midi": 57,
      "hit": false,
      "t": 27526.041666666657,
      "d": 260.4166666666679,
      "v": 104
    },
    {
      "midi": 76,
      "hit": false,
      "t": 27635.41666666668,
      "d": 98.95833333333212,
      "v": 117
    },
    {
      "midi": 74,
      "hit": false,
      "t": 27744.79166666668,
      "d": 229.16666666666788,
      "v": 116
    },
    {
      "midi": 50,
      "hit": false,
      "t": 27755.208333333325,
      "d": 343.75,
      "v": 102
    },
    {
      "midi": 78,
      "hit": false,
      "t": 27984.375000000015,
      "d": 197.91666666666788,
      "v": 117
    },
    {
      "midi": 57,
      "hit": false,
      "t": 27994.791666666657,
      "d": 286.4583333333321,
      "v": 104
    },
    {
      "midi": 76,
      "hit": false,
      "t": 28213.541666666682,
      "d": 218.75,
      "v": 117
    },
    {
      "midi": 47,
      "hit": false,
      "t": 28229.166666666657,
      "d": 442.7083333333321,
      "v": 100
    },
    {
      "midi": 71,
      "hit": false,
      "t": 28442.70833333335,
      "d": 223.95833333333212,
      "v": 114
    },
    {
      "midi": 56,
      "hit": false,
      "t": 28463.541666666657,
      "d": 223.95833333333212,
      "v": 104
    },
    {
      "midi": 73,
      "hit": false,
      "t": 28687.500000000015,
      "d": 197.91666666666788,
      "v": 115
    },
    {
      "midi": 52,
      "hit": false,
      "t": 28692.70833333332,
      "d": 281.25,
      "v": 103
    },
    {
      "midi": 74,
      "hit": false,
      "t": 28916.666666666682,
      "d": 208.33333333333212,
      "v": 116
    },
    {
      "midi": 56,
      "hit": false,
      "t": 28927.08333333332,
      "d": 203.125,
      "v": 104
    },
    {
      "midi": 76,
      "hit": false,
      "t": 29145.833333333347,
      "d": 520.8333333333321,
      "v": 116
    },
    {
      "midi": 57,
      "hit": false,
      "t": 29156.24999999999,
      "d": 213.54166666666788,
      "v": 104
    },
    {
      "midi": 57,
      "hit": false,
      "t": 29395.833333333325,
      "d": 104.16666666666788,
      "v": 103
    },
    {
      "midi": 55,
      "hit": false,
      "t": 29505.208333333325,
      "d": 114.58333333333212,
      "v": 102
    },
    {
      "midi": 54,
      "hit": false,
      "t": 29624.99999999999,
      "d": 213.54166666666788,
      "v": 104
    },
    {
      "midi": 71,
      "hit": false,
      "t": 29843.75000000001,
      "d": 104.16666666666788,
      "v": 114
    },
    {
      "midi": 52,
      "hit": false,
      "t": 29864.583333333325,
      "d": 208.33333333333212,
      "v": 103
    },
    {
      "midi": 73,
      "hit": false,
      "t": 29963.54166666668,
      "d": 88.54166666666788,
      "v": 115
    },
    {
      "midi": 74,
      "hit": false,
      "t": 30078.125000000015,
      "d": 203.125,
      "v": 116
    },
    {
      "midi": 50,
      "hit": false,
      "t": 30093.74999999999,
      "d": 307.2916666666679,
      "v": 102
    },
    {
      "midi": 74,
      "hit": false,
      "t": 30312.500000000015,
      "d": 213.54166666666788,
      "v": 117
    },
    {
      "midi": 57,
      "hit": false,
      "t": 30328.12499999999,
      "d": 203.125,
      "v": 104
    },
    {
      "midi": 74,
      "hit": false,
      "t": 30541.666666666682,
      "d": 104.16666666666788,
      "v": 117
    },
    {
      "midi": 50,
      "hit": false,
      "t": 30562.49999999999,
      "d": 338.5416666666679,
      "v": 101
    },
    {
      "midi": 73,
      "hit": false,
      "t": 30666.666666666682,
      "d": 88.54166666666788,
      "v": 115
    },
    {
      "midi": 74,
      "hit": false,
      "t": 30786.45833333335,
      "d": 98.95833333333212,
      "v": 116
    },
    {
      "midi": 57,
      "hit": false,
      "t": 30791.666666666657,
      "d": 286.45833333333576,
      "v": 104
    },
    {
      "midi": 76,
      "hit": false,
      "t": 30895.83333333335,
      "d": 109.375,
      "v": 116
    },
    {
      "midi": 78,
      "hit": false,
      "t": 31015.62500000002,
      "d": 208.33333333333212,
      "v": 117
    },
    {
      "midi": 50,
      "hit": false,
      "t": 31036.458333333325,
      "d": 333.3333333333321,
      "v": 102
    },
    {
      "midi": 78,
      "hit": false,
      "t": 31244.791666666682,
      "d": 208.33333333333212,
      "v": 118
    },
    {
      "midi": 57,
      "hit": false,
      "t": 31255.208333333325,
      "d": 265.625,
      "v": 104
    },
    {
      "midi": 78,
      "hit": false,
      "t": 31479.166666666682,
      "d": 104.16666666666788,
      "v": 118
    },
    {
      "midi": 50,
      "hit": false,
      "t": 31494.791666666657,
      "d": 328.125,
      "v": 102
    },
    {
      "midi": 77,
      "hit": false,
      "t": 31593.75000000002,
      "d": 109.375,
      "v": 117
    },
    {
      "midi": 78,
      "hit": false,
      "t": 31713.541666666686,
      "d": 88.54166666666788,
      "v": 117
    },
    {
      "midi": 57,
      "hit": false,
      "t": 31729.166666666657,
      "d": 281.25,
      "v": 104
    },
    {
      "midi": 79,
      "hit": false,
      "t": 31828.125000000022,
      "d": 104.16666666666788,
      "v": 118
    },
    {
      "midi": 81,
      "hit": false,
      "t": 31942.708333333358,
      "d": 213.54166666666788,
      "v": 118
    },
    {
      "midi": 50,
      "hit": false,
      "t": 31963.541666666657,
      "d": 317.70833333333576,
      "v": 102
    },
    {
      "midi": 81,
      "hit": false,
      "t": 32177.083333333358,
      "d": 208.33333333333212,
      "v": 118
    },
    {
      "midi": 54,
      "hit": false,
      "t": 32192.708333333325,
      "d": 114.58333333333576,
      "v": 101
    },
    {
      "midi": 53,
      "hit": false,
      "t": 32312.499999999993,
      "d": 109.375,
      "v": 101
    },
    {
      "midi": 81,
      "hit": false,
      "t": 32416.66666666669,
      "d": 88.54166666666788,
      "v": 119
    },
    {
      "midi": 54,
      "hit": false,
      "t": 32427.083333333325,
      "d": 213.54166666666788,
      "v": 104
    },
    {
      "midi": 80,
      "hit": false,
      "t": 32526.04166666669,
      "d": 109.375,
      "v": 118
    },
    {
      "midi": 52,
      "hit": false,
      "t": 32645.833333333325,
      "d": 41.66666666666788,
      "v": 20
    },
    {
      "midi": 81,
      "hit": false,
      "t": 32645.833333333358,
      "d": 109.375,
      "v": 118
    },
    {
      "midi": 57,
      "hit": false,
      "t": 32656.249999999993,
      "d": 276.0416666666715,
      "v": 104
    },
    {
      "midi": 86,
      "hit": false,
      "t": 32765.625000000025,
      "d": 98.95833333333212,
      "v": 118
    },
    {
      "midi": 81,
      "hit": false,
      "t": 32875.00000000002,
      "d": 697.9166666666642,
      "v": 117
    },
    {
      "midi": 50,
      "hit": false,
      "t": 32895.83333333333,
      "d": 328.1250000000073,
      "v": 102
    },
    {
      "midi": 57,
      "hit": false,
      "t": 33125,
      "d": 203.125,
      "v": 104
    },
    {
      "midi": 50,
      "hit": false,
      "t": 33364.583333333336,
      "d": 208.33333333333576,
      "v": 102
    },
    {
      "midi": 50,
      "hit": false,
      "t": 33604.16666666667,
      "d": 317.70833333333576,
      "v": 101
    },
    {
      "midi": 83,
      "hit": false,
      "t": 33812.50000000002,
      "d": 218.75,
      "v": 119
    },
    {
      "midi": 55,
      "hit": false,
      "t": 33828.12500000001,
      "d": 203.125,
      "v": 104
    },
    {
      "midi": 81,
      "hit": false,
      "t": 34041.666666666686,
      "d": 223.95833333333576,
      "v": 118
    },
    {
      "midi": 54,
      "hit": false,
      "t": 34057.29166666667,
      "d": 213.54166666666424,
      "v": 104
    },
    {
      "midi": 79,
      "hit": false,
      "t": 34276.041666666686,
      "d": 208.33333333333576,
      "v": 118
    },
    {
      "midi": 52,
      "hit": false,
      "t": 34291.66666666667,
      "d": 208.33333333333576,
      "v": 103
    },
    {
      "midi": 78,
      "hit": false,
      "t": 34515.62500000002,
      "d": 218.75,
      "v": 117
    },
    {
      "midi": 50,
      "hit": false,
      "t": 34526.04166666667,
      "d": 223.95833333333576,
      "v": 101
    },
    {
      "midi": 76,
      "hit": false,
      "t": 34744.791666666686,
      "d": 208.33333333333576,
      "v": 116
    },
    {
      "midi": 49,
      "hit": false,
      "t": 34776.04166666667,
      "d": 197.91666666666424,
      "v": 101
    },
    {
      "midi": 74,
      "hit": false,
      "t": 34984.37500000002,
      "d": 197.91666666666424,
      "v": 116
    },
    {
      "midi": 47,
      "hit": false,
      "t": 35005.208333333336,
      "d": 223.95833333333576,
      "v": 99
    },
    {
      "midi": 73,
      "hit": false,
      "t": 35213.541666666686,
      "d": 213.54166666666424,
      "v": 115
    },
    {
      "midi": 45,
      "hit": false,
      "t": 35234.37500000001,
      "d": 203.125,
      "v": 98
    },
    {
      "midi": 74,
      "hit": false,
      "t": 35442.70833333335,
      "d": 234.375,
      "v": 116
    },
    {
      "midi": 42,
      "hit": false,
      "t": 35463.54166666667,
      "d": 265.625,
      "v": 95
    },
    {
      "midi": 76,
      "hit": false,
      "t": 35687.500000000015,
      "d": 218.75,
      "v": 117
    },
    {
      "midi": 43,
      "hit": false,
      "t": 35734.37500000001,
      "d": 395.83333333333576,
      "v": 96
    },
    {
      "midi": 78,
      "hit": false,
      "t": 35916.66666666668,
      "d": 88.54166666666424,
      "v": 117
    },
    {
      "midi": 79,
      "hit": false,
      "t": 36026.04166666668,
      "d": 109.375,
      "v": 118
    },
    {
      "midi": 78,
      "hit": false,
      "t": 36145.83333333334,
      "d": 218.75,
      "v": 117
    },
    {
      "midi": 45,
      "hit": false,
      "t": 36166.66666666668,
      "d": 432.29166666666424,
      "v": 98
    },
    {
      "midi": 76,
      "hit": false,
      "t": 36385.41666666668,
      "d": 218.75,
      "v": 116
    },
    {
      "midi": 55,
      "hit": false,
      "t": 36395.83333333334,
      "d": 203.125,
      "v": 104
    },
    {
      "midi": 74,
      "hit": false,
      "t": 36614.58333333334,
      "d": 229.16666666666424,
      "v": 115
    },
    {
      "midi": 54,
      "hit": false,
      "t": 36625.00000000001,
      "d": 333.33333333333576,
      "v": 103
    },
    {
      "midi": 69,
      "hit": false,
      "t": 36854.16666666667,
      "d": 93.75,
      "v": 113
    },
    {
      "midi": 71,
      "hit": false,
      "t": 36963.54166666667,
      "d": 109.375,
      "v": 114
    },
    {
      "midi": 73,
      "hit": false,
      "t": 37083.333333333336,
      "d": 93.75,
      "v": 115
    },
    {
      "midi": 74,
      "hit": false,
      "t": 37192.708333333336,
      "d": 109.375,
      "v": 116
    },
    {
      "midi": 76,
      "hit": false,
      "t": 37312.5,
      "d": 104.16666666666424,
      "v": 117
    },
    {
      "midi": 78,
      "hit": false,
      "t": 37427.08333333333,
      "d": 104.16666666666424,
      "v": 117
    },
    {
      "midi": 79,
      "hit": false,
      "t": 37541.66666666666,
      "d": 213.54166666666424,
      "v": 117
    },
    {
      "midi": 49,
      "hit": false,
      "t": 37562.50000000001,
      "d": 348.9583333333285,
      "v": 101
    },
    {
      "midi": 79,
      "hit": false,
      "t": 37776.04166666666,
      "d": 208.33333333333576,
      "v": 118
    },
    {
      "midi": 57,
      "hit": false,
      "t": 37791.66666666667,
      "d": 244.79166666666424,
      "v": 104
    },
    {
      "midi": 79,
      "hit": false,
      "t": 38015.62499999999,
      "d": 208.33333333333576,
      "v": 119
    },
    {
      "midi": 50,
      "hit": false,
      "t": 38026.04166666667,
      "d": 296.875,
      "v": 102
    },
    {
      "midi": 79,
      "hit": false,
      "t": 38244.791666666664,
      "d": 208.33333333333576,
      "v": 119
    },
    {
      "midi": 57,
      "hit": false,
      "t": 38255.208333333336,
      "d": 234.375,
      "v": 104
    },
    {
      "midi": 79,
      "hit": false,
      "t": 38479.166666666664,
      "d": 104.16666666666424,
      "v": 118
    },
    {
      "midi": 52,
      "hit": false,
      "t": 38494.79166666667,
      "d": 265.625,
      "v": 103
    },
    {
      "midi": 78,
      "hit": false,
      "t": 38593.74999999999,
      "d": 88.54166666666424,
      "v": 117
    },
    {
      "midi": 79,
      "hit": false,
      "t": 38713.54166666666,
      "d": 442.70833333333576,
      "v": 118
    },
    {
      "midi": 57,
      "hit": false,
      "t": 38729.16666666667,
      "d": 203.125,
      "v": 104
    },
    {
      "midi": 57,
      "hit": false,
      "t": 38942.708333333336,
      "d": 57.29166666667152,
      "v": 42
    },
    {
      "midi": 53,
      "hit": false,
      "t": 38963.54166666667,
      "d": 244.79166666667152,
      "v": 103
    },
    {
      "midi": 80,
      "hit": false,
      "t": 39177.08333333333,
      "d": 208.33333333333576,
      "v": 118
    },
    {
      "midi": 57,
      "hit": false,
      "t": 39192.70833333334,
      "d": 208.33333333333576,
      "v": 104
    },
    {
      "midi": 81,
      "hit": false,
      "t": 39416.666666666664,
      "d": 208.33333333333576,
      "v": 118
    },
    {
      "midi": 54,
      "hit": false,
      "t": 39427.08333333334,
      "d": 213.54166666666424,
      "v": 103
    },
    {
      "midi": 81,
      "hit": false,
      "t": 39645.833333333336,
      "d": 208.33333333333576,
      "v": 119
    },
    {
      "midi": 57,
      "hit": false,
      "t": 39666.66666666667,
      "d": 270.83333333333576,
      "v": 104
    },
    {
      "midi": 81,
      "hit": false,
      "t": 39875.00000000001,
      "d": 109.375,
      "v": 118
    },
    {
      "midi": 49,
      "hit": false,
      "t": 39906.25000000001,
      "d": 281.25,
      "v": 101
    },
    {
      "midi": 79,
      "hit": false,
      "t": 39994.79166666667,
      "d": 88.54166666666424,
      "v": 117
    },
    {
      "midi": 78,
      "hit": false,
      "t": 40114.583333333336,
      "d": 88.54166666666424,
      "v": 118
    },
    {
      "midi": 57,
      "hit": false,
      "t": 40125.00000000001,
      "d": 203.125,
      "v": 104
    },
    {
      "midi": 79,
      "hit": false,
      "t": 40229.166666666664,
      "d": 104.16666666666424,
      "v": 118
    },
    {
      "midi": 81,
      "hit": false,
      "t": 40343.74999999999,
      "d": 682.2916666666642,
      "v": 118
    },
    {
      "midi": 50,
      "hit": false,
      "t": 40364.58333333334,
      "d": 296.875,
      "v": 102
    },
    {
      "midi": 57,
      "hit": false,
      "t": 40593.75000000001,
      "d": 109.375,
      "v": 103
    },
    {
      "midi": 56,
      "hit": false,
      "t": 40708.33333333334,
      "d": 114.58333333333576,
      "v": 103
    },
    {
      "midi": 57,
      "hit": false,
      "t": 40828.125000000015,
      "d": 203.125,
      "v": 104
    },
    {
      "midi": 81,
      "hit": false,
      "t": 41041.66666666666,
      "d": 223.95833333333576,
      "v": 119
    },
    {
      "midi": 54,
      "hit": false,
      "t": 41057.29166666668,
      "d": 213.54166666666424,
      "v": 103
    },
    {
      "midi": 83,
      "hit": false,
      "t": 41276.04166666666,
      "d": 208.33333333333576,
      "v": 118
    },
    {
      "midi": 55,
      "hit": false,
      "t": 41291.66666666668,
      "d": 208.33333333333576,
      "v": 104
    },
    {
      "midi": 83,
      "hit": false,
      "t": 41515.62499999999,
      "d": 218.75,
      "v": 119
    },
    {
      "midi": 55,
      "hit": false,
      "t": 41526.04166666668,
      "d": 104.16666666666424,
      "v": 102
    },
    {
      "midi": 57,
      "hit": false,
      "t": 41635.41666666668,
      "d": 114.58333333333576,
      "v": 103
    },
    {
      "midi": 86,
      "hit": false,
      "t": 41744.79166666666,
      "d": 338.54166666666424,
      "v": 118
    },
    {
      "midi": 59,
      "hit": false,
      "t": 41755.20833333335,
      "d": 218.75,
      "v": 104
    },
    {
      "midi": 55,
      "hit": false,
      "t": 41994.791666666686,
      "d": 208.33333333333576,
      "v": 104
    },
    {
      "midi": 83,
      "hit": false,
      "t": 42093.749999999985,
      "d": 109.375,
      "v": 118
    },
    {
      "midi": 81,
      "hit": false,
      "t": 42213.54166666665,
      "d": 213.54166666666424,
      "v": 118
    },
    {
      "midi": 54,
      "hit": false,
      "t": 42229.166666666686,
      "d": 302.08333333333576,
      "v": 103
    },
    {
      "midi": 81,
      "hit": false,
      "t": 42442.708333333314,
      "d": 213.54166666666424,
      "v": 119
    },
    {
      "midi": 62,
      "hit": false,
      "t": 42463.541666666686,
      "d": 223.95833333333576,
      "v": 105
    },
    {
      "midi": 81,
      "hit": false,
      "t": 42677.083333333314,
      "d": 104.16666666666424,
      "v": 118
    },
    {
      "midi": 50,
      "hit": false,
      "t": 42692.70833333336,
      "d": 208.33333333333576,
      "v": 102
    },
    {
      "midi": 79,
      "hit": false,
      "t": 42791.66666666664,
      "d": 93.75,
      "v": 117
    },
    {
      "midi": 78,
      "hit": false,
      "t": 42916.66666666664,
      "d": 218.75,
      "v": 118
    },
    {
      "midi": 50,
      "hit": false,
      "t": 42927.08333333336,
      "d": 125,
      "v": 100
    },
    {
      "midi": 51,
      "hit": false,
      "t": 43057.29166666669,
      "d": 104.16666666666424,
      "v": 101
    },
    {
      "midi": 79,
      "hit": false,
      "t": 43145.83333333331,
      "d": 208.33333333333576,
      "v": 117
    },
    {
      "midi": 52,
      "hit": false,
      "t": 43166.66666666669,
      "d": 104.16666666666424,
      "v": 101
    },
    {
      "midi": 53,
      "hit": false,
      "t": 43276.04166666669,
      "d": 114.58333333333576,
      "v": 102
    },
    {
      "midi": 79,
      "hit": false,
      "t": 43374.99999999998,
      "d": 229.16666666666424,
      "v": 118
    },
    {
      "midi": 54,
      "hit": false,
      "t": 43395.833333333365,
      "d": 104.16666666666424,
      "v": 102
    },
    {
      "midi": 55,
      "hit": false,
      "t": 43505.208333333365,
      "d": 125,
      "v": 103
    },
    {
      "midi": 73,
      "hit": false,
      "t": 43614.58333333331,
      "d": 218.75,
      "v": 115
    },
    {
      "midi": 57,
      "hit": false,
      "t": 43625.00000000003,
      "d": 307.2916666666715,
      "v": 104
    },
    {
      "midi": 76,
      "hit": false,
      "t": 43843.74999999997,
      "d": 229.16666666666424,
      "v": 116
    },
    {
      "midi": 74,
      "hit": false,
      "t": 44083.3333333333,
      "d": 197.91666666666424,
      "v": 116
    },
    {
      "midi": 54,
      "hit": false,
      "t": 44093.75000000004,
      "d": 213.54166666666424,
      "v": 104
    },
    {
      "midi": 74,
      "hit": false,
      "t": 44312.49999999996,
      "d": 213.54166666666424,
      "v": 117
    },
    {
      "midi": 54,
      "hit": false,
      "t": 44328.12500000004,
      "d": 208.33333333333576,
      "v": 103
    },
    {
      "midi": 74,
      "hit": false,
      "t": 44541.66666666663,
      "d": 291.66666666666424,
      "v": 117
    },
    {
      "midi": 54,
      "hit": false,
      "t": 44562.50000000004,
      "d": 328.125,
      "v": 103
    }
  ]
}