{
  "jsonPath": "Soundtracks/Video Game Music/Mega Man Battle Network 4/mega-man-battle-network-4-acdctown.json",
  "path": "Soundtracks\\Video Game Music\\Mega Man Battle Network 4\\Mega_Man_Battle_Network_4_ACDCTown.mid",
  "name": "Mega_Man_Battle_Network_4_ACDCTown",
  "difficulty": "Advanced",
  "bpm": 191.00007640003057,
  "notes": [
    {
      "midi": 76,
      "hit": false,
      "t": 942.408,
      "d": 157.0680000000001,
      "v": 120
    },
    {
      "midi": 54,
      "hit": false,
      "t": 1099.4759999999999,
      "d": 628.2719999999999,
      "v": 100
    },
    {
      "midi": 56,
      "hit": false,
      "t": 1099.4759999999999,
      "d": 628.2719999999999,
      "v": 126
    },
    {
      "midi": 75,
      "hit": false,
      "t": 1099.476,
      "d": 314.13599999999997,
      "v": 120
    },
    {
      "midi": 73,
      "hit": false,
      "t": 1413.612,
      "d": 157.06799999999998,
      "v": 120
    },
    {
      "midi": 71,
      "hit": false,
      "t": 1570.68,
      "d": 628.2720000000002,
      "v": 120
    },
    {
      "midi": 54,
      "hit": false,
      "t": 2041.8839999999998,
      "d": 157.06799999999998,
      "v": 100
    },
    {
      "midi": 56,
      "hit": false,
      "t": 2041.8839999999998,
      "d": 157.06799999999998,
      "v": 126
    },
    {
      "midi": 76,
      "hit": false,
      "t": 2356.0200000000004,
      "d": 392.6700000000001,
      "v": 120
    },
    {
      "midi": 75,
      "hit": false,
      "t": 2827.2240000000006,
      "d": 157.06799999999976,
      "v": 120
    },
    {
      "midi": 56,
      "hit": false,
      "t": 2984.292,
      "d": 628.2719999999999,
      "v": 100
    },
    {
      "midi": 59,
      "hit": false,
      "t": 2984.292,
      "d": 628.2719999999999,
      "v": 126
    },
    {
      "midi": 73,
      "hit": false,
      "t": 2984.2920000000004,
      "d": 314.13599999999997,
      "v": 120
    },
    {
      "midi": 71,
      "hit": false,
      "t": 3298.4280000000003,
      "d": 157.06799999999976,
      "v": 120
    },
    {
      "midi": 73,
      "hit": false,
      "t": 3455.496,
      "d": 392.6700000000001,
      "v": 120
    },
    {
      "midi": 56,
      "hit": false,
      "t": 3926.7,
      "d": 157.0680000000002,
      "v": 100
    },
    {
      "midi": 59,
      "hit": false,
      "t": 3926.7,
      "d": 157.0680000000002,
      "v": 126
    },
    {
      "midi": 75,
      "hit": false,
      "t": 3926.7000000000003,
      "d": 314.13599999999997,
      "v": 120
    },
    {
      "midi": 76,
      "hit": false,
      "t": 4240.836,
      "d": 157.0680000000002,
      "v": 120
    },
    {
      "midi": 76,
      "hit": false,
      "t": 4712.040000000001,
      "d": 157.0680000000002,
      "v": 120
    },
    {
      "midi": 54,
      "hit": false,
      "t": 4869.108,
      "d": 628.2719999999999,
      "v": 100
    },
    {
      "midi": 56,
      "hit": false,
      "t": 4869.108,
      "d": 628.2719999999999,
      "v": 126
    },
    {
      "midi": 78,
      "hit": false,
      "t": 4869.108000000001,
      "d": 314.1359999999995,
      "v": 120
    },
    {
      "midi": 76,
      "hit": false,
      "t": 5183.244000000001,
      "d": 157.0680000000002,
      "v": 120
    },
    {
      "midi": 75,
      "hit": false,
      "t": 5340.312000000001,
      "d": 392.6700000000001,
      "v": 120
    },
    {
      "midi": 54,
      "hit": false,
      "t": 5811.516,
      "d": 157.0680000000002,
      "v": 100
    },
    {
      "midi": 56,
      "hit": false,
      "t": 5811.516,
      "d": 157.0680000000002,
      "v": 126
    },
    {
      "midi": 76,
      "hit": false,
      "t": 5811.5160000000005,
      "d": 314.1359999999995,
      "v": 120
    },
    {
      "midi": 73,
      "hit": false,
      "t": 6125.652,
      "d": 1806.2820000000002,
      "v": 120
    },
    {
      "midi": 56,
      "hit": false,
      "t": 6753.924,
      "d": 235.60199999999986,
      "v": 100
    },
    {
      "midi": 59,
      "hit": false,
      "t": 6753.924,
      "d": 235.60199999999986,
      "v": 126
    },
    {
      "midi": 56,
      "hit": false,
      "t": 7225.128,
      "d": 235.60199999999986,
      "v": 100
    },
    {
      "midi": 59,
      "hit": false,
      "t": 7225.128,
      "d": 235.60199999999986,
      "v": 126
    },
    {
      "midi": 47,
      "hit": false,
      "t": 7696.331999999999,
      "d": 157.0680000000002,
      "v": 126
    },
    {
      "midi": 49,
      "hit": false,
      "t": 7853.4,
      "d": 157.0680000000002,
      "v": 126
    },
    {
      "midi": 56,
      "hit": false,
      "t": 8010.468,
      "d": 157.0680000000002,
      "v": 126
    },
    {
      "midi": 76,
      "hit": false,
      "t": 8481.672,
      "d": 157.0679999999993,
      "v": 120
    },
    {
      "midi": 75,
      "hit": false,
      "t": 8638.74,
      "d": 314.1360000000004,
      "v": 120
    },
    {
      "midi": 54,
      "hit": false,
      "t": 8638.74,
      "d": 628.271999999999,
      "v": 100
    },
    {
      "midi": 56,
      "hit": false,
      "t": 8638.74,
      "d": 628.271999999999,
      "v": 126
    },
    {
      "midi": 73,
      "hit": false,
      "t": 8952.876,
      "d": 157.0679999999993,
      "v": 120
    },
    {
      "midi": 71,
      "hit": false,
      "t": 9109.944,
      "d": 628.2720000000008,
      "v": 120
    },
    {
      "midi": 54,
      "hit": false,
      "t": 9581.148,
      "d": 157.0679999999993,
      "v": 100
    },
    {
      "midi": 56,
      "hit": false,
      "t": 9581.148,
      "d": 157.0679999999993,
      "v": 126
    },
    {
      "midi": 76,
      "hit": false,
      "t": 9895.284,
      "d": 392.6700000000001,
      "v": 120
    },
    {
      "midi": 75,
      "hit": false,
      "t": 10366.488,
      "d": 157.0679999999993,
      "v": 120
    },
    {
      "midi": 73,
      "hit": false,
      "t": 10523.555999999999,
      "d": 314.1360000000004,
      "v": 120
    },
    {
      "midi": 56,
      "hit": false,
      "t": 10523.555999999999,
      "d": 628.271999999999,
      "v": 100
    },
    {
      "midi": 59,
      "hit": false,
      "t": 10523.555999999999,
      "d": 628.271999999999,
      "v": 126
    },
    {
      "midi": 71,
      "hit": false,
      "t": 10837.692,
      "d": 157.0679999999993,
      "v": 120
    },
    {
      "midi": 73,
      "hit": false,
      "t": 10994.759999999998,
      "d": 392.6700000000001,
      "v": 120
    },
    {
      "midi": 75,
      "hit": false,
      "t": 11465.963999999998,
      "d": 314.1360000000004,
      "v": 120
    },
    {
      "midi": 56,
      "hit": false,
      "t": 11465.963999999998,
      "d": 157.0679999999993,
      "v": 100
    },
    {
      "midi": 59,
      "hit": false,
      "t": 11465.963999999998,
      "d": 157.0679999999993,
      "v": 126
    },
    {
      "midi": 76,
      "hit": false,
      "t": 11780.099999999999,
      "d": 157.0679999999993,
      "v": 120
    },
    {
      "midi": 76,
      "hit": false,
      "t": 12251.303999999998,
      "d": 157.0679999999993,
      "v": 120
    },
    {
      "midi": 78,
      "hit": false,
      "t": 12408.371999999998,
      "d": 314.1360000000004,
      "v": 120
    },
    {
      "midi": 54,
      "hit": false,
      "t": 12408.371999999998,
      "d": 628.271999999999,
      "v": 100
    },
    {
      "midi": 56,
      "hit": false,
      "t": 12408.371999999998,
      "d": 628.271999999999,
      "v": 126
    },
    {
      "midi": 76,
      "hit": false,
      "t": 12722.507999999998,
      "d": 157.0679999999993,
      "v": 120
    },
    {
      "midi": 80,
      "hit": false,
      "t": 12879.575999999997,
      "d": 314.1360000000004,
      "v": 120
    },
    {
      "midi": 78,
      "hit": false,
      "t": 13193.711999999998,
      "d": 157.0679999999993,
      "v": 120
    },
    {
      "midi": 76,
      "hit": false,
      "t": 13350.779999999997,
      "d": 314.1360000000004,
      "v": 120
    },
    {
      "midi": 54,
      "hit": false,
      "t": 13350.779999999997,
      "d": 157.0679999999993,
      "v": 100
    },
    {
      "midi": 56,
      "hit": false,
      "t": 13350.779999999997,
      "d": 157.0679999999993,
      "v": 126
    },
    {
      "midi": 73,
      "hit": false,
      "t": 13664.915999999997,
      "d": 1806.2819999999992,
      "v": 120
    },
    {
      "midi": 56,
      "hit": false,
      "t": 13821.983999999997,
      "d": 235.60200000000077,
      "v": 72
    },
    {
      "midi": 59,
      "hit": false,
      "t": 13821.983999999997,
      "d": 235.60200000000077,
      "v": 89
    },
    {
      "midi": 56,
      "hit": false,
      "t": 14293.187999999998,
      "d": 235.60200000000077,
      "v": 82
    },
    {
      "midi": 59,
      "hit": false,
      "t": 14293.187999999998,
      "d": 235.60200000000077,
      "v": 100
    },
    {
      "midi": 56,
      "hit": false,
      "t": 14764.392,
      "d": 235.60200000000077,
      "v": 92
    },
    {
      "midi": 59,
      "hit": false,
      "t": 14764.392,
      "d": 235.60200000000077,
      "v": 114
    },
    {
      "midi": 56,
      "hit": false,
      "t": 15235.596000000001,
      "d": 235.60200000000077,
      "v": 100
    },
    {
      "midi": 59,
      "hit": false,
      "t": 15235.596000000001,
      "d": 235.60200000000077,
      "v": 126
    },
    {
      "midi": 75,
      "hit": false,
      "t": 16178.003999999997,
      "d": 392.66999999999825,
      "v": 120
    },
    {
      "midi": 51,
      "hit": false,
      "t": 16178.004000000003,
      "d": 157.0679999999993,
      "v": 82
    },
    {
      "midi": 54,
      "hit": false,
      "t": 16178.004000000003,
      "d": 157.0679999999993,
      "v": 102
    },
    {
      "midi": 51,
      "hit": false,
      "t": 16492.140000000003,
      "d": 157.0679999999993,
      "v": 78
    },
    {
      "midi": 54,
      "hit": false,
      "t": 16492.140000000003,
      "d": 157.0679999999993,
      "v": 94
    },
    {
      "midi": 73,
      "hit": false,
      "t": 16649.207999999995,
      "d": 392.66999999999825,
      "v": 120
    },
    {
      "midi": 71,
      "hit": false,
      "t": 17120.411999999993,
      "d": 235.60199999999895,
      "v": 120
    },
    {
      "midi": 51,
      "hit": false,
      "t": 17120.412000000004,
      "d": 157.0679999999993,
      "v": 100
    },
    {
      "midi": 54,
      "hit": false,
      "t": 17120.412000000004,
      "d": 157.0679999999993,
      "v": 126
    },
    {
      "midi": 71,
      "hit": false,
      "t": 17434.54799999999,
      "d": 392.66999999999825,
      "v": 120
    },
    {
      "midi": 73,
      "hit": false,
      "t": 17905.75199999999,
      "d": 157.0679999999993,
      "v": 120
    },
    {
      "midi": 73,
      "hit": false,
      "t": 18062.81999999999,
      "d": 785.3400000000001,
      "v": 120
    },
    {
      "midi": 52,
      "hit": false,
      "t": 18062.820000000003,
      "d": 157.0679999999993,
      "v": 82
    },
    {
      "midi": 56,
      "hit": false,
      "t": 18062.820000000003,
      "d": 157.0679999999993,
      "v": 102
    },
    {
      "midi": 52,
      "hit": false,
      "t": 18376.956000000002,
      "d": 157.0679999999993,
      "v": 78
    },
    {
      "midi": 56,
      "hit": false,
      "t": 18376.956000000002,
      "d": 157.0679999999993,
      "v": 94
    },
    {
      "midi": 68,
      "hit": false,
      "t": 19005.22799999999,
      "d": 235.60199999999895,
      "v": 120
    },
    {
      "midi": 52,
      "hit": false,
      "t": 19005.228000000003,
      "d": 157.0679999999993,
      "v": 100
    },
    {
      "midi": 56,
      "hit": false,
      "t": 19005.228000000003,
      "d": 157.0679999999993,
      "v": 126
    },
    {
      "midi": 69,
      "hit": false,
      "t": 19319.363999999987,
      "d": 157.0679999999993,
      "v": 120
    },
    {
      "midi": 71,
      "hit": false,
      "t": 19476.431999999986,
      "d": 314.1359999999986,
      "v": 120
    },
    {
      "midi": 69,
      "hit": false,
      "t": 19790.567999999985,
      "d": 157.0679999999993,
      "v": 120
    },
    {
      "midi": 69,
      "hit": false,
      "t": 19947.635999999984,
      "d": 314.1359999999986,
      "v": 120
    },
    {
      "midi": 52,
      "hit": false,
      "t": 19947.636000000002,
      "d": 628.2720000000008,
      "v": 100
    },
    {
      "midi": 57,
      "hit": false,
      "t": 19947.636000000002,
      "d": 628.2720000000008,
      "v": 126
    },
    {
      "midi": 68,
      "hit": false,
      "t": 20261.771999999983,
      "d": 157.0679999999993,
      "v": 120
    },
    {
      "midi": 69,
      "hit": false,
      "t": 20418.839999999982,
      "d": 392.66999999999825,
      "v": 120
    },
    {
      "midi": 68,
      "hit": false,
      "t": 20890.04399999998,
      "d": 235.60199999999895,
      "v": 120
    },
    {
      "midi": 52,
      "hit": false,
      "t": 20890.044,
      "d": 157.0679999999993,
      "v": 100
    },
    {
      "midi": 57,
      "hit": false,
      "t": 20890.044,
      "d": 157.0679999999993,
      "v": 126
    },
    {
      "midi": 69,
      "hit": false,
      "t": 21204.17999999998,
      "d": 157.0679999999993,
      "v": 120
    },
    {
      "midi": 71,
      "hit": false,
      "t": 21361.247999999978,
      "d": 314.1359999999986,
      "v": 120
    },
    {
      "midi": 51,
      "hit": false,
      "t": 21361.248,
      "d": 706.8060000000005,
      "v": 100
    },
    {
      "midi": 54,
      "hit": false,
      "t": 21361.248,
      "d": 706.8060000000005,
      "v": 126
    },
    {
      "midi": 69,
      "hit": false,
      "t": 21675.383999999976,
      "d": 157.0679999999993,
      "v": 120
    },
    {
      "midi": 69,
      "hit": false,
      "t": 21832.451999999976,
      "d": 314.1359999999986,
      "v": 120
    },
    {
      "midi": 68,
      "hit": false,
      "t": 22146.587999999974,
      "d": 157.0679999999993,
      "v": 120
    },
    {
      "midi": 64,
      "hit": false,
      "t": 22303.655999999974,
      "d": 392.66999999999825,
      "v": 120
    },
    {
      "midi": 51,
      "hit": false,
      "t": 22303.656,
      "d": 628.2720000000008,
      "v": 100
    },
    {
      "midi": 54,
      "hit": false,
      "t": 22303.656,
      "d": 628.2720000000008,
      "v": 126
    },
    {
      "midi": 66,
      "hit": false,
      "t": 22774.85999999997,
      "d": 392.66999999999825,
      "v": 120
    },
    {
      "midi": 75,
      "hit": false,
      "t": 23717.26799999997,
      "d": 392.66999999999825,
      "v": 120
    },
    {
      "midi": 51,
      "hit": false,
      "t": 23717.268,
      "d": 157.0679999999993,
      "v": 82
    },
    {
      "midi": 54,
      "hit": false,
      "t": 23717.268,
      "d": 157.0679999999993,
      "v": 102
    },
    {
      "midi": 51,
      "hit": false,
      "t": 24031.404,
      "d": 157.0679999999993,
      "v": 78
    },
    {
      "midi": 54,
      "hit": false,
      "t": 24031.404,
      "d": 157.0679999999993,
      "v": 94
    },
    {
      "midi": 73,
      "hit": false,
      "t": 24188.47199999997,
      "d": 392.66999999999825,
      "v": 120
    },
    {
      "midi": 71,
      "hit": false,
      "t": 24659.675999999967,
      "d": 235.60199999999895,
      "v": 120
    },
    {
      "midi": 51,
      "hit": false,
      "t": 24659.676,
      "d": 157.0679999999993,
      "v": 100
    },
    {
      "midi": 54,
      "hit": false,
      "t": 24659.676,
      "d": 157.0679999999993,
      "v": 126
    },
    {
      "midi": 78,
      "hit": false,
      "t": 24973.811999999965,
      "d": 392.66999999999825,
      "v": 120
    },
    {
      "midi": 76,
      "hit": false,
      "t": 25445.015999999963,
      "d": 157.0679999999993,
      "v": 120
    },
    {
      "midi": 78,
      "hit": false,
      "t": 25602.083999999963,
      "d": 235.60199999999895,
      "v": 120
    },
    {
      "midi": 52,
      "hit": false,
      "t": 25602.084,
      "d": 157.0679999999993,
      "v": 82
    },
    {
      "midi": 56,
      "hit": false,
      "t": 25602.084,
      "d": 157.0679999999993,
      "v": 102
    },
    {
      "midi": 76,
      "hit": false,
      "t": 25916.21999999996,
      "d": 471.20400000000154,
      "v": 120
    },
    {
      "midi": 52,
      "hit": false,
      "t": 25916.219999999998,
      "d": 157.0679999999993,
      "v": 78
    },
    {
      "midi": 56,
      "hit": false,
      "t": 25916.219999999998,
      "d": 157.0679999999993,
      "v": 94
    },
    {
      "midi": 76,
      "hit": false,
      "t": 26544.491999999962,
      "d": 235.60199999999895,
      "v": 120
    },
    {
      "midi": 52,
      "hit": false,
      "t": 26544.492,
      "d": 157.0679999999993,
      "v": 100
    },
    {
      "midi": 56,
      "hit": false,
      "t": 26544.492,
      "d": 157.0679999999993,
      "v": 126
    },
    {
      "midi": 78,
      "hit": false,
      "t": 26858.62799999996,
      "d": 157.0679999999993,
      "v": 120
    },
    {
      "midi": 80,
      "hit": false,
      "t": 27015.69599999996,
      "d": 314.1359999999986,
      "v": 120
    },
    {
      "midi": 52,
      "hit": false,
      "t": 27015.695999999996,
      "d": 1099.4759999999987,
      "v": 100
    },
    {
      "midi": 57,
      "hit": false,
      "t": 27015.695999999996,
      "d": 1099.4759999999987,
      "v": 126
    },
    {
      "midi": 78,
      "hit": false,
      "t": 27329.83199999996,
      "d": 157.0679999999993,
      "v": 120
    },
    {
      "midi": 78,
      "hit": false,
      "t": 27486.899999999958,
      "d": 314.1359999999986,
      "v": 120
    },
    {
      "midi": 76,
      "hit": false,
      "t": 27801.035999999956,
      "d": 157.0679999999993,
      "v": 120
    },
    {
      "midi": 76,
      "hit": false,
      "t": 27958.103999999956,
      "d": 392.66999999999825,
      "v": 120
    },
    {
      "midi": 76,
      "hit": false,
      "t": 28429.307999999954,
      "d": 235.60199999999895,
      "v": 120
    },
    {
      "midi": 52,
      "hit": false,
      "t": 28429.307999999994,
      "d": 157.0679999999993,
      "v": 100
    },
    {
      "midi": 57,
      "hit": false,
      "t": 28429.307999999994,
      "d": 157.0679999999993,
      "v": 126
    },
    {
      "midi": 78,
      "hit": false,
      "t": 28743.443999999952,
      "d": 157.0679999999993,
      "v": 120
    },
    {
      "midi": 80,
      "hit": false,
      "t": 28900.51199999995,
      "d": 314.1359999999986,
      "v": 120
    },
    {
      "midi": 52,
      "hit": false,
      "t": 28900.51199999999,
      "d": 1099.4759999999987,
      "v": 100
    },
    {
      "midi": 56,
      "hit": false,
      "t": 28900.51199999999,
      "d": 1099.4759999999987,
      "v": 126
    },
    {
      "midi": 78,
      "hit": false,
      "t": 29214.64799999995,
      "d": 157.0679999999993,
      "v": 120
    },
    {
      "midi": 76,
      "hit": false,
      "t": 29371.71599999995,
      "d": 314.1359999999986,
      "v": 120
    },
    {
      "midi": 73,
      "hit": false,
      "t": 29685.851999999948,
      "d": 157.0679999999993,
      "v": 120
    },
    {
      "midi": 76,
      "hit": false,
      "t": 29842.919999999947,
      "d": 392.66999999999825,
      "v": 120
    },
    {
      "midi": 78,
      "hit": false,
      "t": 30314.123999999945,
      "d": 1178.0099999999984,
      "v": 120
    },
    {
      "midi": 52,
      "hit": false,
      "t": 30314.12399999999,
      "d": 157.0679999999993,
      "v": 100
    },
    {
      "midi": 56,
      "hit": false,
      "t": 30314.12399999999,
      "d": 157.0679999999993,
      "v": 126
    },
    {
      "midi": 45,
      "hit": false,
      "t": 30785.327999999987,
      "d": 706.8060000000005,
      "v": 102
    },
    {
      "midi": 51,
      "hit": false,
      "t": 30785.327999999987,
      "d": 706.8060000000005,
      "v": 102
    },
    {
      "midi": 71,
      "hit": false,
      "t": 31727.735999999943,
      "d": 235.60199999999895,
      "v": 120
    },
    {
      "midi": 49,
      "hit": false,
      "t": 31727.735999999986,
      "d": 706.8060000000005,
      "v": 102
    },
    {
      "midi": 56,
      "hit": false,
      "t": 31727.735999999986,
      "d": 706.8060000000005,
      "v": 102
    },
    {
      "midi": 73,
      "hit": false,
      "t": 32041.87199999994,
      "d": 157.0679999999993,
      "v": 120
    },
    {
      "midi": 76,
      "hit": false,
      "t": 32198.93999999994,
      "d": 235.60199999999895,
      "v": 120
    },
    {
      "midi": 78,
      "hit": false,
      "t": 32513.07599999994,
      "d": 157.0679999999993,
      "v": 120
    },
    {
      "midi": 80,
      "hit": false,
      "t": 32670.14399999994,
      "d": 235.6020000000026,
      "v": 120
    },
    {
      "midi": 52,
      "hit": false,
      "t": 32670.143999999986,
      "d": 157.0679999999993,
      "v": 126
    },
    {
      "midi": 56,
      "hit": false,
      "t": 32670.143999999986,
      "d": 157.0679999999993,
      "v": 126
    },
    {
      "midi": 78,
      "hit": false,
      "t": 32984.27999999994,
      "d": 157.0679999999993,
      "v": 120
    },
    {
      "midi": 52,
      "hit": false,
      "t": 32984.279999999984,
      "d": 157.0679999999993,
      "v": 102
    },
    {
      "midi": 56,
      "hit": false,
      "t": 32984.279999999984,
      "d": 157.0679999999993,
      "v": 102
    },
    {
      "midi": 78,
      "hit": false,
      "t": 33141.34799999994,
      "d": 235.60199999999895,
      "v": 120
    },
    {
      "midi": 76,
      "hit": false,
      "t": 33455.48399999994,
      "d": 157.0679999999993,
      "v": 120
    },
    {
      "midi": 52,
      "hit": false,
      "t": 33455.48399999998,
      "d": 863.8740000000034,
      "v": 126
    },
    {
      "midi": 56,
      "hit": false,
      "t": 33455.48399999998,
      "d": 863.8740000000034,
      "v": 126
    },
    {
      "midi": 76,
      "hit": false,
      "t": 33612.55199999994,
      "d": 392.66999999999825,
      "v": 120
    },
    {
      "midi": 76,
      "hit": false,
      "t": 34083.755999999936,
      "d": 235.60199999999895,
      "v": 120
    },
    {
      "midi": 78,
      "hit": false,
      "t": 34397.891999999934,
      "d": 157.0679999999993,
      "v": 120
    },
    {
      "midi": 80,
      "hit": false,
      "t": 34554.959999999934,
      "d": 235.60199999999895,
      "v": 120
    },
    {
      "midi": 47,
      "hit": false,
      "t": 34554.959999999985,
      "d": 157.0679999999993,
      "v": 126
    },
    {
      "midi": 51,
      "hit": false,
      "t": 34554.959999999985,
      "d": 157.0679999999993,
      "v": 126
    },
    {
      "midi": 78,
      "hit": false,
      "t": 34869.09599999993,
      "d": 157.0679999999993,
      "v": 120
    },
    {
      "midi": 47,
      "hit": false,
      "t": 34869.09599999998,
      "d": 157.0679999999993,
      "v": 102
    },
    {
      "midi": 51,
      "hit": false,
      "t": 34869.09599999998,
      "d": 157.0679999999993,
      "v": 102
    },
    {
      "midi": 78,
      "hit": false,
      "t": 35026.16399999993,
      "d": 235.60199999999895,
      "v": 120
    },
    {
      "midi": 76,
      "hit": false,
      "t": 35340.29999999993,
      "d": 157.0679999999993,
      "v": 120
    },
    {
      "midi": 47,
      "hit": false,
      "t": 35340.29999999998,
      "d": 863.8740000000034,
      "v": 126
    },
    {
      "midi": 51,
      "hit": false,
      "t": 35340.29999999998,
      "d": 863.8740000000034,
      "v": 126
    },
    {
      "midi": 76,
      "hit": false,
      "t": 35497.36799999993,
      "d": 392.66999999999825,
      "v": 120
    },
    {
      "midi": 73,
      "hit": false,
      "t": 35968.57199999993,
      "d": 235.60199999999895,
      "v": 120
    },
    {
      "midi": 75,
      "hit": false,
      "t": 36282.707999999926,
      "d": 157.0679999999993,
      "v": 120
    },
    {
      "midi": 76,
      "hit": false,
      "t": 36439.775999999925,
      "d": 392.66999999999825,
      "v": 120
    },
    {
      "midi": 73,
      "hit": false,
      "t": 36910.97999999992,
      "d": 392.66999999999825,
      "v": 120
    },
    {
      "midi": 51,
      "hit": false,
      "t": 36910.97999999998,
      "d": 1099.4760000000024,
      "v": 126
    },
    {
      "midi": 57,
      "hit": false,
      "t": 36910.97999999998,
      "d": 1099.4760000000024,
      "v": 126
    },
    {
      "midi": 76,
      "hit": false,
      "t": 37382.18399999992,
      "d": 392.66999999999825,
      "v": 120
    },
    {
      "midi": 78,
      "hit": false,
      "t": 37853.38799999992,
      "d": 235.60199999999895,
      "v": 120
    },
    {
      "midi": 75,
      "hit": false,
      "t": 38167.52399999992,
      "d": 392.66999999999825,
      "v": 120
    },
    {
      "midi": 47,
      "hit": false,
      "t": 38324.59199999998,
      "d": 157.0679999999993,
      "v": 126
    },
    {
      "midi": 51,
      "hit": false,
      "t": 38324.59199999998,
      "d": 157.0679999999993,
      "v": 126
    },
    {
      "midi": 73,
      "hit": false,
      "t": 38638.727999999915,
      "d": 157.0679999999993,
      "v": 120
    },
    {
      "midi": 71,
      "hit": false,
      "t": 38795.795999999915,
      "d": 392.66999999999825,
      "v": 120
    },
    {
      "midi": 47,
      "hit": false,
      "t": 38795.79599999998,
      "d": 157.0679999999993,
      "v": 126
    },
    {
      "midi": 51,
      "hit": false,
      "t": 38795.79599999998,
      "d": 157.0679999999993,
      "v": 126
    },
    {
      "midi": 71,
      "hit": false,
      "t": 39266.99999999991,
      "d": 235.60199999999895,
      "v": 120
    },
    {
      "midi": 73,
      "hit": false,
      "t": 39581.13599999991,
      "d": 157.0679999999993,
      "v": 120
    },
    {
      "midi": 46,
      "hit": false,
      "t": 39581.13599999998,
      "d": 471.2039999999979,
      "v": 126
    },
    {
      "midi": 49,
      "hit": false,
      "t": 39581.13599999998,
      "d": 471.2039999999979,
      "v": 126
    },
    {
      "midi": 76,
      "hit": false,
      "t": 39738.20399999991,
      "d": 235.60199999999895,
      "v": 120
    },
    {
      "midi": 78,
      "hit": false,
      "t": 40052.33999999991,
      "d": 157.0679999999993,
      "v": 120
    },
    {
      "midi": 80,
      "hit": false,
      "t": 40209.40799999991,
      "d": 235.60199999999895,
      "v": 120
    },
    {
      "midi": 52,
      "hit": false,
      "t": 40209.407999999974,
      "d": 157.0679999999993,
      "v": 126
    },
    {
      "midi": 56,
      "hit": false,
      "t": 40209.407999999974,
      "d": 157.0679999999993,
      "v": 126
    },
    {
      "midi": 78,
      "hit": false,
      "t": 40523.54399999991,
      "d": 157.0679999999993,
      "v": 120
    },
    {
      "midi": 52,
      "hit": false,
      "t": 40523.54399999997,
      "d": 157.0679999999993,
      "v": 102
    },
    {
      "midi": 56,
      "hit": false,
      "t": 40523.54399999997,
      "d": 157.0679999999993,
      "v": 102
    },
    {
      "midi": 78,
      "hit": false,
      "t": 40680.61199999991,
      "d": 235.60199999999895,
      "v": 120
    },
    {
      "midi": 76,
      "hit": false,
      "t": 40994.747999999905,
      "d": 157.0679999999993,
      "v": 120
    },
    {
      "midi": 52,
      "hit": false,
      "t": 40994.74799999997,
      "d": 863.8740000000034,
      "v": 126
    },
    {
      "midi": 56,
      "hit": false,
      "t": 40994.74799999997,
      "d": 863.8740000000034,
      "v": 126
    },
    {
      "midi": 76,
      "hit": false,
      "t": 41151.815999999904,
      "d": 392.66999999999825,
      "v": 120
    },
    {
      "midi": 76,
      "hit": false,
      "t": 41623.0199999999,
      "d": 235.60199999999895,
      "v": 120
    },
    {
      "midi": 78,
      "hit": false,
      "t": 41937.1559999999,
      "d": 157.0679999999993,
      "v": 120
    },
    {
      "midi": 80,
      "hit": false,
      "t": 42094.2239999999,
      "d": 235.60199999999895,
      "v": 120
    },
    {
      "midi": 47,
      "hit": false,
      "t": 42094.22399999997,
      "d": 706.8059999999969,
      "v": 126
    },
    {
      "midi": 52,
      "hit": false,
      "t": 42094.22399999997,
      "d": 706.8059999999969,
      "v": 126
    },
    {
      "midi": 78,
      "hit": false,
      "t": 42408.3599999999,
      "d": 157.0679999999993,
      "v": 120
    },
    {
      "midi": 78,
      "hit": false,
      "t": 42565.4279999999,
      "d": 235.60199999999895,
      "v": 120
    },
    {
      "midi": 76,
      "hit": false,
      "t": 42879.5639999999,
      "d": 157.0679999999993,
      "v": 120
    },
    {
      "midi": 83,
      "hit": false,
      "t": 43036.631999999896,
      "d": 235.60199999999895,
      "v": 120
    },
    {
      "midi": 47,
      "hit": false,
      "t": 43036.63199999997,
      "d": 157.0679999999993,
      "v": 102
    },
    {
      "midi": 52,
      "hit": false,
      "t": 43036.63199999997,
      "d": 157.0679999999993,
      "v": 102
    },
    {
      "midi": 80,
      "hit": false,
      "t": 43350.767999999895,
      "d": 157.0679999999993,
      "v": 120
    },
    {
      "midi": 78,
      "hit": false,
      "t": 43507.835999999894,
      "d": 235.60199999999895,
      "v": 120
    },
    {
      "midi": 44,
      "hit": false,
      "t": 43507.83599999997,
      "d": 157.0679999999993,
      "v": 126
    },
    {
      "midi": 51,
      "hit": false,
      "t": 43664.903999999966,
      "d": 157.0679999999993,
      "v": 126
    },
    {
      "midi": 80,
      "hit": false,
      "t": 43821.97199999989,
      "d": 157.0679999999993,
      "v": 120
    },
    {
      "midi": 54,
      "hit": false,
      "t": 43821.971999999965,
      "d": 157.0679999999993,
      "v": 126
    },
    {
      "midi": 78,
      "hit": false,
      "t": 43979.03999999989,
      "d": 235.60199999999895,
      "v": 120
    },
    {
      "midi": 45,
      "hit": false,
      "t": 43979.039999999964,
      "d": 157.0679999999993,
      "v": 126
    },
    {
      "midi": 49,
      "hit": false,
      "t": 43979.039999999964,
      "d": 157.0679999999993,
      "v": 126
    },
    {
      "midi": 76,
      "hit": false,
      "t": 44293.17599999989,
      "d": 157.0679999999993,
      "v": 120
    },
    {
      "midi": 45,
      "hit": false,
      "t": 44293.17599999996,
      "d": 157.0679999999993,
      "v": 126
    },
    {
      "midi": 49,
      "hit": false,
      "t": 44293.17599999996,
      "d": 157.0679999999993,
      "v": 126
    },
    {
      "midi": 76,
      "hit": false,
      "t": 44450.24399999989,
      "d": 863.8740000000034,
      "v": 120
    },
    {
      "midi": 45,
      "hit": false,
      "t": 44764.37999999996,
      "d": 863.8740000000034,
      "v": 126
    },
    {
      "midi": 49,
      "hit": false,
      "t": 44764.37999999996,
      "d": 863.8740000000034,
      "v": 126
    },
    {
      "midi": 73,
      "hit": false,
      "t": 45392.65199999989,
      "d": 235.60199999999895,
      "v": 120
    },
    {
      "midi": 75,
      "hit": false,
      "t": 45706.78799999989,
      "d": 157.0679999999993,
      "v": 120
    },
    {
      "midi": 76,
      "hit": false,
      "t": 45863.85599999989,
      "d": 392.66999999999825,
      "v": 120
    },
    {
      "midi": 49,
      "hit": false,
      "t": 45863.85599999996,
      "d": 706.8059999999969,
      "v": 126
    },
    {
      "midi": 56,
      "hit": false,
      "t": 45863.85599999996,
      "d": 706.8059999999969,
      "v": 126
    },
    {
      "midi": 75,
      "hit": false,
      "t": 46335.05999999989,
      "d": 392.66999999999825,
      "v": 120
    },
    {
      "midi": 73,
      "hit": false,
      "t": 46806.26399999989,
      "d": 392.66999999999825,
      "v": 120
    },
    {
      "midi": 52,
      "hit": false,
      "t": 46806.26399999996,
      "d": 157.0679999999993,
      "v": 126
    },
    {
      "midi": 56,
      "hit": false,
      "t": 46806.26399999996,
      "d": 157.0679999999993,
      "v": 126
    },
    {
      "midi": 75,
      "hit": false,
      "t": 47277.467999999884,
      "d": 235.60199999999895,
      "v": 120
    },
    {
      "midi": 49,
      "hit": false,
      "t": 47277.46799999996,
      "d": 157.0679999999993,
      "v": 126
    },
    {
      "midi": 52,
      "hit": false,
      "t": 47434.53599999996,
      "d": 157.0679999999993,
      "v": 126
    },
    {
      "midi": 76,
      "hit": false,
      "t": 47591.60399999988,
      "d": 3612.5639999999985,
      "v": 120
    },
    {
      "midi": 56,
      "hit": false,
      "t": 47591.603999999956,
      "d": 157.0679999999993,
      "v": 126
    },
    {
      "midi": 51,
      "hit": false,
      "t": 48219.87599999995,
      "d": 157.0679999999993,
      "v": 126
    },
    {
      "midi": 56,
      "hit": false,
      "t": 48219.87599999995,
      "d": 157.0679999999993,
      "v": 126
    },
    {
      "midi": 49,
      "hit": false,
      "t": 48534.01199999995,
      "d": 157.0679999999993,
      "v": 126
    },
    {
      "midi": 54,
      "hit": false,
      "t": 48534.01199999995,
      "d": 157.0679999999993,
      "v": 126
    },
    {
      "midi": 51,
      "hit": false,
      "t": 48691.07999999995,
      "d": 157.0679999999993,
      "v": 126
    },
    {
      "midi": 56,
      "hit": false,
      "t": 48691.07999999995,
      "d": 157.0679999999993,
      "v": 126
    },
    {
      "midi": 49,
      "hit": false,
      "t": 49005.21599999995,
      "d": 157.0679999999993,
      "v": 126
    },
    {
      "midi": 54,
      "hit": false,
      "t": 49005.21599999995,
      "d": 157.0679999999993,
      "v": 126
    },
    {
      "midi": 51,
      "hit": false,
      "t": 49162.28399999995,
      "d": 157.0679999999993,
      "v": 126
    },
    {
      "midi": 56,
      "hit": false,
      "t": 49162.28399999995,
      "d": 157.0679999999993,
      "v": 126
    },
    {
      "midi": 49,
      "hit": false,
      "t": 49476.41999999995,
      "d": 157.0679999999993,
      "v": 126
    },
    {
      "midi": 54,
      "hit": false,
      "t": 49476.41999999995,
      "d": 157.0679999999993,
      "v": 126
    },
    {
      "midi": 51,
      "hit": false,
      "t": 49633.48799999995,
      "d": 157.0679999999993,
      "v": 126
    },
    {
      "midi": 56,
      "hit": false,
      "t": 49633.48799999995,
      "d": 157.0679999999993,
      "v": 126
    },
    {
      "midi": 49,
      "hit": false,
      "t": 49947.623999999945,
      "d": 157.0679999999993,
      "v": 126
    },
    {
      "midi": 54,
      "hit": false,
      "t": 49947.623999999945,
      "d": 157.0679999999993,
      "v": 126
    },
    {
      "midi": 51,
      "hit": false,
      "t": 50104.691999999945,
      "d": 157.0679999999993,
      "v": 126
    },
    {
      "midi": 56,
      "hit": false,
      "t": 50104.691999999945,
      "d": 157.0679999999993,
      "v": 126
    },
    {
      "midi": 49,
      "hit": false,
      "t": 50418.82799999994,
      "d": 157.0679999999993,
      "v": 126
    },
    {
      "midi": 54,
      "hit": false,
      "t": 50418.82799999994,
      "d": 157.0679999999993,
      "v": 126
    },
    {
      "midi": 51,
      "hit": false,
      "t": 51047.09999999994,
      "d": 157.0679999999993,
      "v": 126
    },
    {
      "midi": 56,
      "hit": false,
      "t": 51047.09999999994,
      "d": 157.0679999999993,
      "v": 126
    },
    {
      "midi": 49,
      "hit": false,
      "t": 51361.23599999994,
      "d": 157.0679999999993,
      "v": 126
    },
    {
      "midi": 54,
      "hit": false,
      "t": 51361.23599999994,
      "d": 157.0679999999993,
      "v": 126
    },
    {
      "midi": 54,
      "hit": false,
      "t": 51989.507999999936,
      "d": 235.60199999999895,
      "v": 62
    },
    {
      "midi": 56,
      "hit": false,
      "t": 51989.507999999936,
      "d": 235.60199999999895,
      "v": 75
    },
    {
      "midi": 54,
      "hit": false,
      "t": 52460.711999999934,
      "d": 235.60199999999895,
      "v": 82
    },
    {
      "midi": 56,
      "hit": false,
      "t": 52460.711999999934,
      "d": 235.60199999999895,
      "v": 102
    },
    {
      "midi": 54,
      "hit": false,
      "t": 52931.91599999993,
      "d": 235.60199999999895,
      "v": 100
    },
    {
      "midi": 56,
      "hit": false,
      "t": 52931.91599999993,
      "d": 235.60199999999895,
      "v": 126
    },
    {
      "midi": 56,
      "hit": false,
      "t": 53874.32399999993,
      "d": 235.60199999999895,
      "v": 62
    },
    {
      "midi": 59,
      "hit": false,
      "t": 53874.32399999993,
      "d": 235.60199999999895,
      "v": 75
    },
    {
      "midi": 56,
      "hit": false,
      "t": 54345.527999999926,
      "d": 235.60199999999895,
      "v": 82
    },
    {
      "midi": 59,
      "hit": false,
      "t": 54345.527999999926,
      "d": 235.60199999999895,
      "v": 102
    },
    {
      "midi": 56,
      "hit": false,
      "t": 54816.73199999992,
      "d": 235.60199999999895,
      "v": 100
    },
    {
      "midi": 59,
      "hit": false,
      "t": 54816.73199999992,
      "d": 235.60199999999895,
      "v": 126
    },
    {
      "midi": 54,
      "hit": false,
      "t": 55759.13999999992,
      "d": 235.60199999999895,
      "v": 62
    },
    {
      "midi": 56,
      "hit": false,
      "t": 55759.13999999992,
      "d": 235.60199999999895,
      "v": 75
    },
    {
      "midi": 54,
      "hit": false,
      "t": 56230.34399999992,
      "d": 235.60199999999895,
      "v": 82
    },
    {
      "midi": 56,
      "hit": false,
      "t": 56230.34399999992,
      "d": 235.60199999999895,
      "v": 102
    },
    {
      "midi": 54,
      "hit": false,
      "t": 56701.547999999915,
      "d": 235.60199999999895,
      "v": 100
    },
    {
      "midi": 56,
      "hit": false,
      "t": 56701.547999999915,
      "d": 235.60199999999895,
      "v": 126
    },
    {
      "midi": 56,
      "hit": false,
      "t": 57643.95599999991,
      "d": 235.60199999999895,
      "v": 62
    },
    {
      "midi": 59,
      "hit": false,
      "t": 57643.95599999991,
      "d": 235.60199999999895,
      "v": 75
    },
    {
      "midi": 56,
      "hit": false,
      "t": 58115.15999999991,
      "d": 235.60199999999895,
      "v": 82
    },
    {
      "midi": 59,
      "hit": false,
      "t": 58115.15999999991,
      "d": 235.60199999999895,
      "v": 102
    },
    {
      "midi": 47,
      "hit": false,
      "t": 58586.36399999991,
      "d": 157.0679999999993,
      "v": 126
    },
    {
      "midi": 49,
      "hit": false,
      "t": 58743.431999999906,
      "d": 157.0679999999993,
      "v": 126
    },
    {
      "midi": 56,
      "hit": false,
      "t": 58900.499999999905,
      "d": 157.0679999999993,
      "v": 126
    },
    {
      "midi": 54,
      "hit": false,
      "t": 59528.7719999999,
      "d": 235.60199999999895,
      "v": 62
    },
    {
      "midi": 56,
      "hit": false,
      "t": 59528.7719999999,
      "d": 235.60199999999895,
      "v": 75
    },
    {
      "midi": 54,
      "hit": false,
      "t": 59999.9759999999,
      "d": 235.60199999999895,
      "v": 82
    },
    {
      "midi": 56,
      "hit": false,
      "t": 59999.9759999999,
      "d": 235.60199999999895,
      "v": 102
    },
    {
      "midi": 54,
      "hit": false,
      "t": 60471.1799999999,
      "d": 235.60199999999895,
      "v": 100
    },
    {
      "midi": 56,
      "hit": false,
      "t": 60471.1799999999,
      "d": 235.60199999999895,
      "v": 126
    },
    {
      "midi": 56,
      "hit": false,
      "t": 61413.587999999894,
      "d": 235.60199999999895,
      "v": 62
    },
    {
      "midi": 59,
      "hit": false,
      "t": 61413.587999999894,
      "d": 235.60199999999895,
      "v": 75
    },
    {
      "midi": 56,
      "hit": false,
      "t": 61884.79199999989,
      "d": 235.60199999999895,
      "v": 82
    },
    {
      "midi": 59,
      "hit": false,
      "t": 61884.79199999989,
      "d": 235.60199999999895,
      "v": 102
    },
    {
      "midi": 56,
      "hit": false,
      "t": 62355.99599999989,
      "d": 235.60199999999895,
      "v": 100
    },
    {
      "midi": 59,
      "hit": false,
      "t": 62355.99599999989,
      "d": 235.60199999999895,
      "v": 126
    },
    {
      "midi": 54,
      "hit": false,
      "t": 63298.403999999886,
      "d": 628.2719999999972,
      "v": 62
    },
    {
      "midi": 56,
      "hit": false,
      "t": 63298.403999999886,
      "d": 628.2719999999972,
      "v": 75
    },
    {
      "midi": 54,
      "hit": false,
      "t": 64240.81199999988,
      "d": 157.0679999999993,
      "v": 100
    },
    {
      "midi": 56,
      "hit": false,
      "t": 64240.81199999988,
      "d": 157.0679999999993,
      "v": 126
    },
    {
      "midi": 56,
      "hit": false,
      "t": 64712.01599999988,
      "d": 235.60199999999895,
      "v": 62
    },
    {
      "midi": 59,
      "hit": false,
      "t": 64712.01599999988,
      "d": 235.60199999999895,
      "v": 75
    },
    {
      "midi": 56,
      "hit": false,
      "t": 65183.21999999988,
      "d": 235.60199999999895,
      "v": 76
    },
    {
      "midi": 59,
      "hit": false,
      "t": 65183.21999999988,
      "d": 235.60199999999895,
      "v": 92
    },
    {
      "midi": 56,
      "hit": false,
      "t": 65654.42399999988,
      "d": 235.60199999999895,
      "v": 88
    },
    {
      "midi": 59,
      "hit": false,
      "t": 65654.42399999988,
      "d": 235.60199999999895,
      "v": 108
    },
    {
      "midi": 56,
      "hit": false,
      "t": 66125.62799999988,
      "d": 235.60199999999895,
      "v": 100
    },
    {
      "midi": 59,
      "hit": false,
      "t": 66125.62799999988,
      "d": 235.60199999999895,
      "v": 126
    }
  ]
}