{
  "jsonPath": "Unknown/Unknown/Catherine Zeta Jones  David Essex/true-love-ways.json",
  "path": "Unknown\\Unknown\\Catherine Zeta Jones  David Essex\\True Love Ways.mid",
  "name": "True Love Ways",
  "difficulty": "Advanced",
  "bpm": 75,
  "notes": [
    {
      "midi": 57,
      "hit": false,
      "t": 6400,
      "d": 1600,
      "v": 127
    },
    {
      "midi": 69,
      "hit": false,
      "t": 6400,
      "d": 1600,
      "v": 127
    },
    {
      "midi": 73,
      "hit": false,
      "t": 6400,
      "d": 1600,
      "v": 127
    },
    {
      "midi": 76,
      "hit": false,
      "t": 6400,
      "d": 1600,
      "v": 127
    },
    {
      "midi": 81,
      "hit": false,
      "t": 6400,
      "d": 1600,
      "v": 127
    },
    {
      "midi": 81,
      "hit": false,
      "t": 7000,
      "d": 1000,
      "v": 94
    },
    {
      "midi": 85,
      "hit": false,
      "t": 7066.666666666667,
      "d": 933.333333333333,
      "v": 94
    },
    {
      "midi": 88,
      "hit": false,
      "t": 7200,
      "d": 800,
      "v": 94
    },
    {
      "midi": 93,
      "hit": false,
      "t": 7266.666666666667,
      "d": 733.333333333333,
      "v": 94
    },
    {
      "midi": 52,
      "hit": false,
      "t": 8000,
      "d": 1600,
      "v": 127
    },
    {
      "midi": 68,
      "hit": false,
      "t": 8000,
      "d": 1600,
      "v": 127
    },
    {
      "midi": 73,
      "hit": false,
      "t": 8000,
      "d": 1600,
      "v": 127
    },
    {
      "midi": 76,
      "hit": false,
      "t": 8000,
      "d": 1600,
      "v": 127
    },
    {
      "midi": 80,
      "hit": false,
      "t": 8000,
      "d": 1600,
      "v": 127
    },
    {
      "midi": 80,
      "hit": false,
      "t": 8600,
      "d": 866.6666666666661,
      "v": 94
    },
    {
      "midi": 85,
      "hit": false,
      "t": 8733.333333333334,
      "d": 799.9999999999982,
      "v": 94
    },
    {
      "midi": 88,
      "hit": false,
      "t": 8800,
      "d": 733.3333333333321,
      "v": 94
    },
    {
      "midi": 92,
      "hit": false,
      "t": 8866.666666666666,
      "d": 666.6666666666661,
      "v": 94
    },
    {
      "midi": 50,
      "hit": false,
      "t": 9600,
      "d": 1600,
      "v": 127
    },
    {
      "midi": 62,
      "hit": false,
      "t": 9600,
      "d": 1600,
      "v": 127
    },
    {
      "midi": 66,
      "hit": false,
      "t": 9600,
      "d": 1600,
      "v": 127
    },
    {
      "midi": 69,
      "hit": false,
      "t": 9600,
      "d": 1600,
      "v": 127
    },
    {
      "midi": 74,
      "hit": false,
      "t": 9600,
      "d": 1600,
      "v": 127
    },
    {
      "midi": 74,
      "hit": false,
      "t": 10199.999999999998,
      "d": 800,
      "v": 94
    },
    {
      "midi": 78,
      "hit": false,
      "t": 10266.666666666664,
      "d": 800,
      "v": 94
    },
    {
      "midi": 81,
      "hit": false,
      "t": 10333.33333333333,
      "d": 733.3333333333339,
      "v": 94
    },
    {
      "midi": 86,
      "hit": false,
      "t": 10466.666666666664,
      "d": 800,
      "v": 94
    },
    {
      "midi": 52,
      "hit": false,
      "t": 11200,
      "d": 1600,
      "v": 127
    },
    {
      "midi": 64,
      "hit": false,
      "t": 11200,
      "d": 1600,
      "v": 127
    },
    {
      "midi": 68,
      "hit": false,
      "t": 11200,
      "d": 1600,
      "v": 127
    },
    {
      "midi": 71,
      "hit": false,
      "t": 11200,
      "d": 1600,
      "v": 127
    },
    {
      "midi": 76,
      "hit": false,
      "t": 11200,
      "d": 1600,
      "v": 127
    },
    {
      "midi": 76,
      "hit": false,
      "t": 11799.999999999998,
      "d": 999.9999999999982,
      "v": 94
    },
    {
      "midi": 80,
      "hit": false,
      "t": 11866.666666666664,
      "d": 866.6666666666661,
      "v": 94
    },
    {
      "midi": 83,
      "hit": false,
      "t": 11933.33333333333,
      "d": 866.6666666666661,
      "v": 94
    },
    {
      "midi": 88,
      "hit": false,
      "t": 12066.666666666664,
      "d": 666.6666666666661,
      "v": 94
    },
    {
      "midi": 57,
      "hit": false,
      "t": 12800,
      "d": 1600,
      "v": 127
    },
    {
      "midi": 69,
      "hit": false,
      "t": 12800,
      "d": 1600,
      "v": 127
    },
    {
      "midi": 73,
      "hit": false,
      "t": 12800,
      "d": 1600,
      "v": 127
    },
    {
      "midi": 76,
      "hit": false,
      "t": 12800,
      "d": 1600,
      "v": 127
    },
    {
      "midi": 81,
      "hit": false,
      "t": 12800,
      "d": 1600,
      "v": 127
    },
    {
      "midi": 81,
      "hit": false,
      "t": 13399.999999999996,
      "d": 1000,
      "v": 94
    },
    {
      "midi": 85,
      "hit": false,
      "t": 13466.666666666662,
      "d": 933.3333333333339,
      "v": 94
    },
    {
      "midi": 88,
      "hit": false,
      "t": 13599.999999999996,
      "d": 800,
      "v": 94
    },
    {
      "midi": 93,
      "hit": false,
      "t": 13666.666666666662,
      "d": 733.3333333333339,
      "v": 94
    },
    {
      "midi": 52,
      "hit": false,
      "t": 14400,
      "d": 1600,
      "v": 127
    },
    {
      "midi": 68,
      "hit": false,
      "t": 14400,
      "d": 1600,
      "v": 127
    },
    {
      "midi": 73,
      "hit": false,
      "t": 14400,
      "d": 1600,
      "v": 127
    },
    {
      "midi": 76,
      "hit": false,
      "t": 14400,
      "d": 1600,
      "v": 127
    },
    {
      "midi": 80,
      "hit": false,
      "t": 14400,
      "d": 1600,
      "v": 127
    },
    {
      "midi": 80,
      "hit": false,
      "t": 14999.999999999996,
      "d": 866.6666666666661,
      "v": 94
    },
    {
      "midi": 85,
      "hit": false,
      "t": 15133.33333333333,
      "d": 799.9999999999982,
      "v": 94
    },
    {
      "midi": 88,
      "hit": false,
      "t": 15199.999999999996,
      "d": 733.3333333333321,
      "v": 94
    },
    {
      "midi": 92,
      "hit": false,
      "t": 15266.666666666662,
      "d": 666.6666666666661,
      "v": 94
    },
    {
      "midi": 50,
      "hit": false,
      "t": 16000,
      "d": 1600,
      "v": 127
    },
    {
      "midi": 62,
      "hit": false,
      "t": 16000,
      "d": 1600,
      "v": 127
    },
    {
      "midi": 66,
      "hit": false,
      "t": 16000,
      "d": 1600,
      "v": 127
    },
    {
      "midi": 69,
      "hit": false,
      "t": 16000,
      "d": 1600,
      "v": 127
    },
    {
      "midi": 74,
      "hit": false,
      "t": 16000,
      "d": 1600,
      "v": 127
    },
    {
      "midi": 74,
      "hit": false,
      "t": 16599.999999999996,
      "d": 800,
      "v": 94
    },
    {
      "midi": 78,
      "hit": false,
      "t": 16666.666666666664,
      "d": 800,
      "v": 94
    },
    {
      "midi": 81,
      "hit": false,
      "t": 16733.333333333332,
      "d": 733.3333333333321,
      "v": 94
    },
    {
      "midi": 86,
      "hit": false,
      "t": 16866.666666666664,
      "d": 800,
      "v": 94
    },
    {
      "midi": 52,
      "hit": false,
      "t": 17600,
      "d": 1600,
      "v": 127
    },
    {
      "midi": 64,
      "hit": false,
      "t": 17600,
      "d": 1600,
      "v": 127
    },
    {
      "midi": 68,
      "hit": false,
      "t": 17600,
      "d": 1600,
      "v": 127
    },
    {
      "midi": 71,
      "hit": false,
      "t": 17600,
      "d": 1600,
      "v": 127
    },
    {
      "midi": 76,
      "hit": false,
      "t": 17600,
      "d": 1600,
      "v": 127
    },
    {
      "midi": 76,
      "hit": false,
      "t": 18199.999999999996,
      "d": 1000.0000000000036,
      "v": 94
    },
    {
      "midi": 80,
      "hit": false,
      "t": 18266.666666666664,
      "d": 866.6666666666679,
      "v": 94
    },
    {
      "midi": 83,
      "hit": false,
      "t": 18333.333333333332,
      "d": 866.6666666666679,
      "v": 94
    },
    {
      "midi": 88,
      "hit": false,
      "t": 18466.666666666664,
      "d": 666.6666666666679,
      "v": 94
    },
    {
      "midi": 57,
      "hit": false,
      "t": 19200,
      "d": 1600,
      "v": 127
    },
    {
      "midi": 69,
      "hit": false,
      "t": 19200,
      "d": 1600,
      "v": 127
    },
    {
      "midi": 73,
      "hit": false,
      "t": 19200,
      "d": 1600,
      "v": 127
    },
    {
      "midi": 76,
      "hit": false,
      "t": 19200,
      "d": 1600,
      "v": 127
    },
    {
      "midi": 81,
      "hit": false,
      "t": 19200,
      "d": 1600,
      "v": 127
    },
    {
      "midi": 81,
      "hit": false,
      "t": 19800,
      "d": 933.3333333333358,
      "v": 94
    },
    {
      "midi": 85,
      "hit": false,
      "t": 19866.666666666668,
      "d": 866.6666666666679,
      "v": 94
    },
    {
      "midi": 88,
      "hit": false,
      "t": 19933.333333333336,
      "d": 866.6666666666679,
      "v": 94
    },
    {
      "midi": 93,
      "hit": false,
      "t": 20066.666666666668,
      "d": 733.3333333333358,
      "v": 94
    },
    {
      "midi": 54,
      "hit": false,
      "t": 20800,
      "d": 1586.6666666666679,
      "v": 127
    },
    {
      "midi": 66,
      "hit": false,
      "t": 20800,
      "d": 1600,
      "v": 127
    },
    {
      "midi": 69,
      "hit": false,
      "t": 20800,
      "d": 1600,
      "v": 127
    },
    {
      "midi": 73,
      "hit": false,
      "t": 20800,
      "d": 1600,
      "v": 127
    },
    {
      "midi": 78,
      "hit": false,
      "t": 20800,
      "d": 1600,
      "v": 127
    },
    {
      "midi": 78,
      "hit": false,
      "t": 21400.000000000004,
      "d": 1133.3333333333358,
      "v": 94
    },
    {
      "midi": 81,
      "hit": false,
      "t": 21466.66666666667,
      "d": 1000,
      "v": 94
    },
    {
      "midi": 85,
      "hit": false,
      "t": 21600.000000000004,
      "d": 866.6666666666679,
      "v": 94
    },
    {
      "midi": 90,
      "hit": false,
      "t": 21666.66666666667,
      "d": 800,
      "v": 94
    },
    {
      "midi": 47,
      "hit": false,
      "t": 22400,
      "d": 1600,
      "v": 127
    },
    {
      "midi": 71,
      "hit": false,
      "t": 22400,
      "d": 1600,
      "v": 127
    },
    {
      "midi": 75,
      "hit": false,
      "t": 22400,
      "d": 1600,
      "v": 127
    },
    {
      "midi": 78,
      "hit": false,
      "t": 22400,
      "d": 1600,
      "v": 127
    },
    {
      "midi": 81,
      "hit": false,
      "t": 22400,
      "d": 1600,
      "v": 127
    },
    {
      "midi": 83,
      "hit": false,
      "t": 22933.33333333334,
      "d": 1133.3333333333358,
      "v": 94
    },
    {
      "midi": 87,
      "hit": false,
      "t": 23000.000000000007,
      "d": 1066.6666666666679,
      "v": 94
    },
    {
      "midi": 90,
      "hit": false,
      "t": 23066.666666666675,
      "d": 1066.6666666666679,
      "v": 94
    },
    {
      "midi": 95,
      "hit": false,
      "t": 23200.000000000007,
      "d": 933.3333333333358,
      "v": 94
    },
    {
      "midi": 47,
      "hit": false,
      "t": 24000,
      "d": 1500,
      "v": 127
    },
    {
      "midi": 71,
      "hit": false,
      "t": 24000,
      "d": 1600,
      "v": 127
    },
    {
      "midi": 74,
      "hit": false,
      "t": 24000,
      "d": 1600,
      "v": 127
    },
    {
      "midi": 78,
      "hit": false,
      "t": 24000,
      "d": 1600,
      "v": 127
    },
    {
      "midi": 81,
      "hit": false,
      "t": 24000,
      "d": 1600,
      "v": 127
    },
    {
      "midi": 83,
      "hit": false,
      "t": 24533.333333333343,
      "d": 800,
      "v": 94
    },
    {
      "midi": 86,
      "hit": false,
      "t": 24600.00000000001,
      "d": 733.3333333333321,
      "v": 94
    },
    {
      "midi": 90,
      "hit": false,
      "t": 24666.66666666668,
      "d": 733.3333333333321,
      "v": 94
    },
    {
      "midi": 95,
      "hit": false,
      "t": 24800.00000000001,
      "d": 866.6666666666679,
      "v": 94
    },
    {
      "midi": 52,
      "hit": false,
      "t": 25600,
      "d": 1600,
      "v": 127
    },
    {
      "midi": 64,
      "hit": false,
      "t": 25600,
      "d": 1600,
      "v": 127
    },
    {
      "midi": 68,
      "hit": false,
      "t": 25600,
      "d": 1600,
      "v": 127
    },
    {
      "midi": 71,
      "hit": false,
      "t": 25600,
      "d": 1600,
      "v": 127
    },
    {
      "midi": 74,
      "hit": false,
      "t": 25600,
      "d": 1600,
      "v": 127
    },
    {
      "midi": 76,
      "hit": false,
      "t": 25600,
      "d": 1600,
      "v": 127
    },
    {
      "midi": 47,
      "hit": false,
      "t": 27200,
      "d": 1600,
      "v": 127
    },
    {
      "midi": 59,
      "hit": false,
      "t": 27200,
      "d": 1600,
      "v": 127
    },
    {
      "midi": 62,
      "hit": false,
      "t": 27200,
      "d": 1600,
      "v": 127
    },
    {
      "midi": 66,
      "hit": false,
      "t": 27200,
      "d": 1600,
      "v": 127
    },
    {
      "midi": 71,
      "hit": false,
      "t": 27200,
      "d": 1600,
      "v": 127
    },
    {
      "midi": 95,
      "hit": false,
      "t": 28466.66666666668,
      "d": 2800,
      "v": 94
    },
    {
      "midi": 83,
      "hit": false,
      "t": 28600.00000000001,
      "d": 2666.666666666668,
      "v": 94
    },
    {
      "midi": 92,
      "hit": false,
      "t": 28600.00000000001,
      "d": 2666.666666666668,
      "v": 94
    },
    {
      "midi": 80,
      "hit": false,
      "t": 28733.333333333343,
      "d": 2533.3333333333358,
      "v": 94
    },
    {
      "midi": 88,
      "hit": false,
      "t": 28733.333333333343,
      "d": 2600.0000000000036,
      "v": 94
    },
    {
      "midi": 40,
      "hit": false,
      "t": 28800,
      "d": 3200,
      "v": 127
    },
    {
      "midi": 64,
      "hit": false,
      "t": 28800,
      "d": 3200,
      "v": 127
    },
    {
      "midi": 68,
      "hit": false,
      "t": 28800,
      "d": 3200,
      "v": 127
    },
    {
      "midi": 71,
      "hit": false,
      "t": 28800,
      "d": 3200,
      "v": 127
    },
    {
      "midi": 74,
      "hit": false,
      "t": 28800,
      "d": 3200,
      "v": 127
    },
    {
      "midi": 76,
      "hit": false,
      "t": 28800,
      "d": 3200,
      "v": 127
    },
    {
      "midi": 76,
      "hit": false,
      "t": 28800.00000000001,
      "d": 2533.3333333333358,
      "v": 94
    },
    {
      "midi": 57,
      "hit": false,
      "t": 32000,
      "d": 1600,
      "v": 127
    },
    {
      "midi": 69,
      "hit": false,
      "t": 32000,
      "d": 1600,
      "v": 127
    },
    {
      "midi": 73,
      "hit": false,
      "t": 32000,
      "d": 1600,
      "v": 127
    },
    {
      "midi": 76,
      "hit": false,
      "t": 32000,
      "d": 1600,
      "v": 127
    },
    {
      "midi": 81,
      "hit": false,
      "t": 32000,
      "d": 1600,
      "v": 127
    },
    {
      "midi": 81,
      "hit": false,
      "t": 32600.000000000015,
      "d": 1000,
      "v": 94
    },
    {
      "midi": 85,
      "hit": false,
      "t": 32666.666666666682,
      "d": 933.3333333333321,
      "v": 94
    },
    {
      "midi": 88,
      "hit": false,
      "t": 32800.000000000015,
      "d": 800,
      "v": 94
    },
    {
      "midi": 93,
      "hit": false,
      "t": 32866.66666666668,
      "d": 733.3333333333358,
      "v": 94
    },
    {
      "midi": 52,
      "hit": false,
      "t": 33600,
      "d": 1600,
      "v": 127
    },
    {
      "midi": 68,
      "hit": false,
      "t": 33600,
      "d": 1600,
      "v": 127
    },
    {
      "midi": 73,
      "hit": false,
      "t": 33600,
      "d": 1600,
      "v": 127
    },
    {
      "midi": 76,
      "hit": false,
      "t": 33600,
      "d": 1600,
      "v": 127
    },
    {
      "midi": 80,
      "hit": false,
      "t": 33600,
      "d": 1600,
      "v": 127
    },
    {
      "midi": 80,
      "hit": false,
      "t": 34200.000000000015,
      "d": 866.6666666666642,
      "v": 94
    },
    {
      "midi": 85,
      "hit": false,
      "t": 34333.33333333335,
      "d": 799.9999999999927,
      "v": 94
    },
    {
      "midi": 88,
      "hit": false,
      "t": 34400.000000000015,
      "d": 733.3333333333285,
      "v": 94
    },
    {
      "midi": 92,
      "hit": false,
      "t": 34466.66666666668,
      "d": 666.6666666666642,
      "v": 94
    },
    {
      "midi": 50,
      "hit": false,
      "t": 35200,
      "d": 1600,
      "v": 127
    },
    {
      "midi": 62,
      "hit": false,
      "t": 35200,
      "d": 1600,
      "v": 127
    },
    {
      "midi": 66,
      "hit": false,
      "t": 35200,
      "d": 1600,
      "v": 127
    },
    {
      "midi": 69,
      "hit": false,
      "t": 35200,
      "d": 1600,
      "v": 127
    },
    {
      "midi": 74,
      "hit": false,
      "t": 35200,
      "d": 1600,
      "v": 127
    },
    {
      "midi": 74,
      "hit": false,
      "t": 35800.00000000001,
      "d": 800,
      "v": 94
    },
    {
      "midi": 78,
      "hit": false,
      "t": 35866.66666666667,
      "d": 800,
      "v": 94
    },
    {
      "midi": 81,
      "hit": false,
      "t": 35933.333333333336,
      "d": 733.3333333333358,
      "v": 94
    },
    {
      "midi": 86,
      "hit": false,
      "t": 36066.66666666667,
      "d": 800,
      "v": 94
    },
    {
      "midi": 52,
      "hit": false,
      "t": 36800,
      "d": 1600,
      "v": 127
    },
    {
      "midi": 64,
      "hit": false,
      "t": 36800,
      "d": 1600,
      "v": 127
    },
    {
      "midi": 68,
      "hit": false,
      "t": 36800,
      "d": 1600,
      "v": 127
    },
    {
      "midi": 71,
      "hit": false,
      "t": 36800,
      "d": 1600,
      "v": 127
    },
    {
      "midi": 76,
      "hit": false,
      "t": 36800,
      "d": 1600,
      "v": 127
    },
    {
      "midi": 76,
      "hit": false,
      "t": 37400.00000000001,
      "d": 999.9999999999927,
      "v": 94
    },
    {
      "midi": 80,
      "hit": false,
      "t": 37466.66666666667,
      "d": 866.6666666666642,
      "v": 94
    },
    {
      "midi": 83,
      "hit": false,
      "t": 37533.333333333336,
      "d": 866.6666666666642,
      "v": 94
    },
    {
      "midi": 88,
      "hit": false,
      "t": 37666.66666666667,
      "d": 666.6666666666642,
      "v": 94
    },
    {
      "midi": 57,
      "hit": false,
      "t": 38400,
      "d": 1600,
      "v": 127
    },
    {
      "midi": 69,
      "hit": false,
      "t": 38400,
      "d": 1600,
      "v": 127
    },
    {
      "midi": 73,
      "hit": false,
      "t": 38400,
      "d": 1600,
      "v": 127
    },
    {
      "midi": 76,
      "hit": false,
      "t": 38400,
      "d": 1600,
      "v": 127
    },
    {
      "midi": 81,
      "hit": false,
      "t": 38400,
      "d": 1600,
      "v": 127
    },
    {
      "midi": 81,
      "hit": false,
      "t": 39000,
      "d": 1000,
      "v": 94
    },
    {
      "midi": 85,
      "hit": false,
      "t": 39066.666666666664,
      "d": 933.3333333333358,
      "v": 94
    },
    {
      "midi": 88,
      "hit": false,
      "t": 39200,
      "d": 800,
      "v": 94
    },
    {
      "midi": 93,
      "hit": false,
      "t": 39266.666666666664,
      "d": 733.3333333333358,
      "v": 94
    },
    {
      "midi": 52,
      "hit": false,
      "t": 40000,
      "d": 1600,
      "v": 127
    },
    {
      "midi": 68,
      "hit": false,
      "t": 40000,
      "d": 1600,
      "v": 127
    },
    {
      "midi": 73,
      "hit": false,
      "t": 40000,
      "d": 1600,
      "v": 127
    },
    {
      "midi": 76,
      "hit": false,
      "t": 40000,
      "d": 1600,
      "v": 127
    },
    {
      "midi": 80,
      "hit": false,
      "t": 40000,
      "d": 1600,
      "v": 127
    },
    {
      "midi": 80,
      "hit": false,
      "t": 40600,
      "d": 866.6666666666642,
      "v": 94
    },
    {
      "midi": 85,
      "hit": false,
      "t": 40733.333333333336,
      "d": 799.9999999999927,
      "v": 94
    },
    {
      "midi": 88,
      "hit": false,
      "t": 40800,
      "d": 733.3333333333285,
      "v": 94
    },
    {
      "midi": 92,
      "hit": false,
      "t": 40866.666666666664,
      "d": 666.6666666666642,
      "v": 94
    },
    {
      "midi": 50,
      "hit": false,
      "t": 41600,
      "d": 1600,
      "v": 127
    },
    {
      "midi": 62,
      "hit": false,
      "t": 41600,
      "d": 1600,
      "v": 127
    },
    {
      "midi": 66,
      "hit": false,
      "t": 41600,
      "d": 1600,
      "v": 127
    },
    {
      "midi": 69,
      "hit": false,
      "t": 41600,
      "d": 1600,
      "v": 127
    },
    {
      "midi": 74,
      "hit": false,
      "t": 41600,
      "d": 1600,
      "v": 127
    },
    {
      "midi": 74,
      "hit": false,
      "t": 42199.99999999999,
      "d": 800,
      "v": 94
    },
    {
      "midi": 78,
      "hit": false,
      "t": 42266.66666666666,
      "d": 800,
      "v": 94
    },
    {
      "midi": 81,
      "hit": false,
      "t": 42333.33333333332,
      "d": 733.3333333333358,
      "v": 94
    },
    {
      "midi": 86,
      "hit": false,
      "t": 42466.66666666666,
      "d": 800,
      "v": 94
    },
    {
      "midi": 52,
      "hit": false,
      "t": 43200,
      "d": 1600,
      "v": 127
    },
    {
      "midi": 64,
      "hit": false,
      "t": 43200,
      "d": 1600,
      "v": 127
    },
    {
      "midi": 68,
      "hit": false,
      "t": 43200,
      "d": 1600,
      "v": 127
    },
    {
      "midi": 71,
      "hit": false,
      "t": 43200,
      "d": 1600,
      "v": 127
    },
    {
      "midi": 76,
      "hit": false,
      "t": 43200,
      "d": 1600,
      "v": 127
    },
    {
      "midi": 76,
      "hit": false,
      "t": 43799.99999999999,
      "d": 999.9999999999927,
      "v": 94
    },
    {
      "midi": 80,
      "hit": false,
      "t": 43866.66666666666,
      "d": 866.6666666666642,
      "v": 94
    },
    {
      "midi": 83,
      "hit": false,
      "t": 43933.33333333332,
      "d": 866.6666666666642,
      "v": 94
    },
    {
      "midi": 88,
      "hit": false,
      "t": 44066.66666666666,
      "d": 666.6666666666642,
      "v": 94
    },
    {
      "midi": 57,
      "hit": false,
      "t": 44800,
      "d": 1566.6666666666642,
      "v": 127
    },
    {
      "midi": 69,
      "hit": false,
      "t": 44800,
      "d": 1600,
      "v": 127
    },
    {
      "midi": 73,
      "hit": false,
      "t": 44800,
      "d": 1600,
      "v": 127
    },
    {
      "midi": 76,
      "hit": false,
      "t": 44800,
      "d": 1600,
      "v": 127
    },
    {
      "midi": 81,
      "hit": false,
      "t": 44800,
      "d": 1600,
      "v": 127
    },
    {
      "midi": 81,
      "hit": false,
      "t": 45399.999999999985,
      "d": 933.3333333333285,
      "v": 94
    },
    {
      "midi": 85,
      "hit": false,
      "t": 45466.66666666665,
      "d": 866.6666666666642,
      "v": 94
    },
    {
      "midi": 88,
      "hit": false,
      "t": 45533.333333333314,
      "d": 866.6666666666642,
      "v": 94
    },
    {
      "midi": 93,
      "hit": false,
      "t": 45666.66666666665,
      "d": 733.3333333333285,
      "v": 94
    },
    {
      "midi": 54,
      "hit": false,
      "t": 46400,
      "d": 1633.3333333333358,
      "v": 127
    },
    {
      "midi": 66,
      "hit": false,
      "t": 46400,
      "d": 1600,
      "v": 127
    },
    {
      "midi": 69,
      "hit": false,
      "t": 46400,
      "d": 1600,
      "v": 127
    },
    {
      "midi": 73,
      "hit": false,
      "t": 46400,
      "d": 1600,
      "v": 127
    },
    {
      "midi": 78,
      "hit": false,
      "t": 46400,
      "d": 1600,
      "v": 127
    },
    {
      "midi": 78,
      "hit": false,
      "t": 46999.99999999998,
      "d": 1133.3333333333285,
      "v": 94
    },
    {
      "midi": 81,
      "hit": false,
      "t": 47066.66666666664,
      "d": 1000,
      "v": 94
    },
    {
      "midi": 85,
      "hit": false,
      "t": 47199.99999999998,
      "d": 866.6666666666642,
      "v": 94
    },
    {
      "midi": 90,
      "hit": false,
      "t": 47266.66666666664,
      "d": 800,
      "v": 94
    },
    {
      "midi": 47,
      "hit": false,
      "t": 48000,
      "d": 1560,
      "v": 127
    },
    {
      "midi": 71,
      "hit": false,
      "t": 48000,
      "d": 1600,
      "v": 127
    },
    {
      "midi": 74,
      "hit": false,
      "t": 48000,
      "d": 1600,
      "v": 127
    },
    {
      "midi": 78,
      "hit": false,
      "t": 48000,
      "d": 1600,
      "v": 127
    },
    {
      "midi": 83,
      "hit": false,
      "t": 48000,
      "d": 1600,
      "v": 127
    },
    {
      "midi": 83,
      "hit": false,
      "t": 48533.33333333331,
      "d": 733.3333333333358,
      "v": 94
    },
    {
      "midi": 86,
      "hit": false,
      "t": 48599.99999999997,
      "d": 600.0000000000073,
      "v": 94
    },
    {
      "midi": 90,
      "hit": false,
      "t": 48733.33333333331,
      "d": 533.3333333333358,
      "v": 94
    },
    {
      "midi": 95,
      "hit": false,
      "t": 48866.66666666664,
      "d": 933.3333333333358,
      "v": 94
    },
    {
      "midi": 52,
      "hit": false,
      "t": 49600,
      "d": 1500,
      "v": 127
    },
    {
      "midi": 64,
      "hit": false,
      "t": 49600,
      "d": 1600,
      "v": 127
    },
    {
      "midi": 68,
      "hit": false,
      "t": 49600,
      "d": 1600,
      "v": 127
    },
    {
      "midi": 71,
      "hit": false,
      "t": 49600,
      "d": 1600,
      "v": 127
    },
    {
      "midi": 76,
      "hit": false,
      "t": 49600,
      "d": 1600,
      "v": 127
    },
    {
      "midi": 76,
      "hit": false,
      "t": 50066.66666666664,
      "d": 1066.6666666666715,
      "v": 94
    },
    {
      "midi": 80,
      "hit": false,
      "t": 50199.99999999998,
      "d": 933.3333333333358,
      "v": 94
    },
    {
      "midi": 83,
      "hit": false,
      "t": 50266.66666666664,
      "d": 866.6666666666715,
      "v": 94
    },
    {
      "midi": 88,
      "hit": false,
      "t": 50399.99999999998,
      "d": 733.3333333333358,
      "v": 94
    },
    {
      "midi": 45,
      "hit": false,
      "t": 51200,
      "d": 1620,
      "v": 127
    },
    {
      "midi": 69,
      "hit": false,
      "t": 51200,
      "d": 1600,
      "v": 127
    },
    {
      "midi": 73,
      "hit": false,
      "t": 51200,
      "d": 1600,
      "v": 127
    },
    {
      "midi": 76,
      "hit": false,
      "t": 51200,
      "d": 1600,
      "v": 127
    },
    {
      "midi": 81,
      "hit": false,
      "t": 51200,
      "d": 1600,
      "v": 127
    },
    {
      "midi": 81,
      "hit": false,
      "t": 51799.99999999998,
      "d": 666.6666666666642,
      "v": 94
    },
    {
      "midi": 85,
      "hit": false,
      "t": 51866.66666666664,
      "d": 666.6666666666642,
      "v": 94
    },
    {
      "midi": 88,
      "hit": false,
      "t": 51933.33333333331,
      "d": 600,
      "v": 94
    },
    {
      "midi": 93,
      "hit": false,
      "t": 52066.66666666664,
      "d": 933.3333333333285,
      "v": 94
    },
    {
      "midi": 50,
      "hit": false,
      "t": 52800,
      "d": 1606.6666666666642,
      "v": 127
    },
    {
      "midi": 62,
      "hit": false,
      "t": 52800,
      "d": 1600,
      "v": 127
    },
    {
      "midi": 66,
      "hit": false,
      "t": 52800,
      "d": 1600,
      "v": 127
    },
    {
      "midi": 69,
      "hit": false,
      "t": 52800,
      "d": 1600,
      "v": 127
    },
    {
      "midi": 74,
      "hit": false,
      "t": 52800,
      "d": 1600,
      "v": 127
    },
    {
      "midi": 74,
      "hit": false,
      "t": 53466.666666666635,
      "d": 800,
      "v": 94
    },
    {
      "midi": 78,
      "hit": false,
      "t": 53466.666666666635,
      "d": 800,
      "v": 94
    },
    {
      "midi": 81,
      "hit": false,
      "t": 53533.3333333333,
      "d": 800,
      "v": 94
    },
    {
      "midi": 86,
      "hit": false,
      "t": 53666.666666666635,
      "d": 866.6666666666642,
      "v": 94
    },
    {
      "midi": 45,
      "hit": false,
      "t": 54400,
      "d": 3200,
      "v": 127
    },
    {
      "midi": 57,
      "hit": false,
      "t": 54400,
      "d": 3200,
      "v": 127
    },
    {
      "midi": 61,
      "hit": false,
      "t": 54400,
      "d": 3200,
      "v": 127
    },
    {
      "midi": 64,
      "hit": false,
      "t": 54400,
      "d": 3200,
      "v": 127
    },
    {
      "midi": 69,
      "hit": false,
      "t": 54400,
      "d": 3200,
      "v": 127
    },
    {
      "midi": 81,
      "hit": false,
      "t": 54999.99999999996,
      "d": 1333.3333333333285,
      "v": 94
    },
    {
      "midi": 85,
      "hit": false,
      "t": 55066.66666666663,
      "d": 1266.6666666666642,
      "v": 94
    },
    {
      "midi": 88,
      "hit": false,
      "t": 55133.33333333329,
      "d": 1200,
      "v": 94
    },
    {
      "midi": 93,
      "hit": false,
      "t": 55266.66666666663,
      "d": 1666.6666666666642,
      "v": 94
    },
    {
      "midi": 53,
      "hit": false,
      "t": 57600,
      "d": 1580,
      "v": 127
    },
    {
      "midi": 62,
      "hit": false,
      "t": 57600,
      "d": 4800,
      "v": 127
    },
    {
      "midi": 65,
      "hit": false,
      "t": 57600,
      "d": 4800,
      "v": 127
    },
    {
      "midi": 69,
      "hit": false,
      "t": 57600,
      "d": 4800,
      "v": 127
    },
    {
      "midi": 74,
      "hit": false,
      "t": 57600,
      "d": 4800,
      "v": 127
    },
    {
      "midi": 74,
      "hit": false,
      "t": 58133.33333333329,
      "d": 2666.6666666666715,
      "v": 94
    },
    {
      "midi": 77,
      "hit": false,
      "t": 58199.999999999956,
      "d": 2666.6666666666715,
      "v": 94
    },
    {
      "midi": 81,
      "hit": false,
      "t": 58333.33333333329,
      "d": 2466.6666666666715,
      "v": 94
    },
    {
      "midi": 86,
      "hit": false,
      "t": 58466.66666666663,
      "d": 2400,
      "v": 94
    },
    {
      "midi": 50,
      "hit": false,
      "t": 59200,
      "d": 1600,
      "v": 127
    },
    {
      "midi": 53,
      "hit": false,
      "t": 60800,
      "d": 1580,
      "v": 127
    },
    {
      "midi": 74,
      "hit": false,
      "t": 61399.99999999996,
      "d": 666.6666666666642,
      "v": 94
    },
    {
      "midi": 77,
      "hit": false,
      "t": 61466.66666666663,
      "d": 666.6666666666642,
      "v": 94
    },
    {
      "midi": 81,
      "hit": false,
      "t": 61533.33333333329,
      "d": 600,
      "v": 94
    },
    {
      "midi": 86,
      "hit": false,
      "t": 61666.66666666663,
      "d": 733.3333333333285,
      "v": 94
    },
    {
      "midi": 55,
      "hit": false,
      "t": 62400,
      "d": 1593.3333333333358,
      "v": 127
    },
    {
      "midi": 67,
      "hit": false,
      "t": 62400,
      "d": 1600,
      "v": 127
    },
    {
      "midi": 71,
      "hit": false,
      "t": 62400,
      "d": 1600,
      "v": 127
    },
    {
      "midi": 74,
      "hit": false,
      "t": 62400,
      "d": 1600,
      "v": 127
    },
    {
      "midi": 79,
      "hit": false,
      "t": 62400,
      "d": 1600,
      "v": 127
    },
    {
      "midi": 79,
      "hit": false,
      "t": 62933.33333333329,
      "d": 600,
      "v": 94
    },
    {
      "midi": 83,
      "hit": false,
      "t": 62999.999999999956,
      "d": 533.3333333333358,
      "v": 94
    },
    {
      "midi": 86,
      "hit": false,
      "t": 63066.66666666662,
      "d": 466.6666666666715,
      "v": 94
    },
    {
      "midi": 91,
      "hit": false,
      "t": 63199.999999999956,
      "d": 400,
      "v": 94
    },
    {
      "midi": 81,
      "hit": false,
      "t": 63866.66666666662,
      "d": 1333.3333333333285,
      "v": 94
    },
    {
      "midi": 85,
      "hit": false,
      "t": 63933.333333333285,
      "d": 1200,
      "v": 94
    },
    {
      "midi": 88,
      "hit": false,
      "t": 63933.333333333285,
      "d": 1266.6666666666642,
      "v": 94
    },
    {
      "midi": 57,
      "hit": false,
      "t": 64000,
      "d": 1533.3333333333358,
      "v": 127
    },
    {
      "midi": 69,
      "hit": false,
      "t": 64000,
      "d": 3200,
      "v": 127
    },
    {
      "midi": 73,
      "hit": false,
      "t": 64000,
      "d": 3200,
      "v": 127
    },
    {
      "midi": 76,
      "hit": false,
      "t": 64000,
      "d": 3200,
      "v": 127
    },
    {
      "midi": 81,
      "hit": false,
      "t": 64000,
      "d": 3200,
      "v": 127
    },
    {
      "midi": 93,
      "hit": false,
      "t": 64066.66666666662,
      "d": 1066.6666666666642,
      "v": 94
    },
    {
      "midi": 52,
      "hit": false,
      "t": 65600,
      "d": 1600,
      "v": 127
    },
    {
      "midi": 45,
      "hit": false,
      "t": 67200,
      "d": 1600,
      "v": 127
    },
    {
      "midi": 69,
      "hit": false,
      "t": 67200,
      "d": 3200,
      "v": 127
    },
    {
      "midi": 73,
      "hit": false,
      "t": 67200,
      "d": 3200,
      "v": 127
    },
    {
      "midi": 76,
      "hit": false,
      "t": 67200,
      "d": 3200,
      "v": 127
    },
    {
      "midi": 81,
      "hit": false,
      "t": 67200,
      "d": 3200,
      "v": 127
    },
    {
      "midi": 45,
      "hit": false,
      "t": 68800,
      "d": 800,
      "v": 127
    },
    {
      "midi": 47,
      "hit": false,
      "t": 69600,
      "d": 800,
      "v": 127
    },
    {
      "midi": 72,
      "hit": false,
      "t": 70266.66666666661,
      "d": 1266.666666666686,
      "v": 94
    },
    {
      "midi": 76,
      "hit": false,
      "t": 70333.33333333328,
      "d": 1200.0000000000146,
      "v": 94
    },
    {
      "midi": 79,
      "hit": false,
      "t": 70399.99999999996,
      "d": 1133.333333333343,
      "v": 94
    },
    {
      "midi": 48,
      "hit": false,
      "t": 70400,
      "d": 800,
      "v": 127
    },
    {
      "midi": 60,
      "hit": false,
      "t": 70400,
      "d": 800,
      "v": 127
    },
    {
      "midi": 64,
      "hit": false,
      "t": 70400,
      "d": 800,
      "v": 127
    },
    {
      "midi": 67,
      "hit": false,
      "t": 70400,
      "d": 800,
      "v": 127
    },
    {
      "midi": 72,
      "hit": false,
      "t": 70400,
      "d": 800,
      "v": 127
    },
    {
      "midi": 84,
      "hit": false,
      "t": 70466.66666666663,
      "d": 1200,
      "v": 94
    },
    {
      "midi": 48,
      "hit": false,
      "t": 71200,
      "d": 266.6666666666715,
      "v": 127
    },
    {
      "midi": 60,
      "hit": false,
      "t": 71200,
      "d": 266.6666666666715,
      "v": 127
    },
    {
      "midi": 64,
      "hit": false,
      "t": 71200,
      "d": 266.6666666666715,
      "v": 127
    },
    {
      "midi": 67,
      "hit": false,
      "t": 71200,
      "d": 266.6666666666715,
      "v": 127
    },
    {
      "midi": 72,
      "hit": false,
      "t": 71200,
      "d": 266.6666666666715,
      "v": 127
    },
    {
      "midi": 48,
      "hit": false,
      "t": 71466.66666666667,
      "d": 266.6666666666715,
      "v": 127
    },
    {
      "midi": 60,
      "hit": false,
      "t": 71466.66666666667,
      "d": 266.6666666666715,
      "v": 127
    },
    {
      "midi": 64,
      "hit": false,
      "t": 71466.66666666667,
      "d": 266.6666666666715,
      "v": 127
    },
    {
      "midi": 67,
      "hit": false,
      "t": 71466.66666666667,
      "d": 266.6666666666715,
      "v": 127
    },
    {
      "midi": 72,
      "hit": false,
      "t": 71466.66666666667,
      "d": 266.6666666666715,
      "v": 127
    },
    {
      "midi": 48,
      "hit": false,
      "t": 71733.33333333334,
      "d": 266.6666666666715,
      "v": 127
    },
    {
      "midi": 60,
      "hit": false,
      "t": 71733.33333333334,
      "d": 266.6666666666715,
      "v": 127
    },
    {
      "midi": 64,
      "hit": false,
      "t": 71733.33333333334,
      "d": 266.6666666666715,
      "v": 127
    },
    {
      "midi": 67,
      "hit": false,
      "t": 71733.33333333334,
      "d": 266.6666666666715,
      "v": 127
    },
    {
      "midi": 72,
      "hit": false,
      "t": 71733.33333333334,
      "d": 266.6666666666715,
      "v": 127
    },
    {
      "midi": 72,
      "hit": false,
      "t": 71799.99999999996,
      "d": 1266.6666666666715,
      "v": 94
    },
    {
      "midi": 76,
      "hit": false,
      "t": 71866.66666666663,
      "d": 1200,
      "v": 94
    },
    {
      "midi": 79,
      "hit": false,
      "t": 71933.3333333333,
      "d": 1133.3333333333285,
      "v": 94
    },
    {
      "midi": 48,
      "hit": false,
      "t": 72000.00000000001,
      "d": 800,
      "v": 127
    },
    {
      "midi": 60,
      "hit": false,
      "t": 72000.00000000001,
      "d": 800,
      "v": 127
    },
    {
      "midi": 64,
      "hit": false,
      "t": 72000.00000000001,
      "d": 800,
      "v": 127
    },
    {
      "midi": 67,
      "hit": false,
      "t": 72000.00000000001,
      "d": 800,
      "v": 127
    },
    {
      "midi": 72,
      "hit": false,
      "t": 72000.00000000001,
      "d": 800,
      "v": 127
    },
    {
      "midi": 84,
      "hit": false,
      "t": 72066.66666666663,
      "d": 933.3333333333285,
      "v": 94
    },
    {
      "midi": 48,
      "hit": false,
      "t": 72800.00000000001,
      "d": 800,
      "v": 127
    },
    {
      "midi": 60,
      "hit": false,
      "t": 72800.00000000001,
      "d": 800,
      "v": 127
    },
    {
      "midi": 64,
      "hit": false,
      "t": 72800.00000000001,
      "d": 800,
      "v": 127
    },
    {
      "midi": 67,
      "hit": false,
      "t": 72800.00000000001,
      "d": 800,
      "v": 127
    },
    {
      "midi": 72,
      "hit": false,
      "t": 72800.00000000001,
      "d": 800,
      "v": 127
    },
    {
      "midi": 76,
      "hit": false,
      "t": 73466.66666666663,
      "d": 1066.6666666666715,
      "v": 94
    },
    {
      "midi": 80,
      "hit": false,
      "t": 73533.3333333333,
      "d": 1000,
      "v": 94
    },
    {
      "midi": 83,
      "hit": false,
      "t": 73599.99999999997,
      "d": 933.3333333333285,
      "v": 94
    },
    {
      "midi": 52,
      "hit": false,
      "t": 73600.00000000001,
      "d": 800,
      "v": 127
    },
    {
      "midi": 64,
      "hit": false,
      "t": 73600.00000000001,
      "d": 800,
      "v": 127
    },
    {
      "midi": 68,
      "hit": false,
      "t": 73600.00000000001,
      "d": 800,
      "v": 127
    },
    {
      "midi": 71,
      "hit": false,
      "t": 73600.00000000001,
      "d": 800,
      "v": 127
    },
    {
      "midi": 76,
      "hit": false,
      "t": 73600.00000000001,
      "d": 800,
      "v": 127
    },
    {
      "midi": 88,
      "hit": false,
      "t": 73733.3333333333,
      "d": 800,
      "v": 94
    },
    {
      "midi": 52,
      "hit": false,
      "t": 74400.00000000001,
      "d": 266.6666666666715,
      "v": 127
    },
    {
      "midi": 64,
      "hit": false,
      "t": 74400.00000000001,
      "d": 266.6666666666715,
      "v": 127
    },
    {
      "midi": 68,
      "hit": false,
      "t": 74400.00000000001,
      "d": 266.6666666666715,
      "v": 127
    },
    {
      "midi": 71,
      "hit": false,
      "t": 74400.00000000001,
      "d": 266.6666666666715,
      "v": 127
    },
    {
      "midi": 76,
      "hit": false,
      "t": 74400.00000000001,
      "d": 266.6666666666715,
      "v": 127
    },
    {
      "midi": 52,
      "hit": false,
      "t": 74666.66666666669,
      "d": 266.6666666666715,
      "v": 127
    },
    {
      "midi": 64,
      "hit": false,
      "t": 74666.66666666669,
      "d": 266.6666666666715,
      "v": 127
    },
    {
      "midi": 68,
      "hit": false,
      "t": 74666.66666666669,
      "d": 266.6666666666715,
      "v": 127
    },
    {
      "midi": 71,
      "hit": false,
      "t": 74666.66666666669,
      "d": 266.6666666666715,
      "v": 127
    },
    {
      "midi": 76,
      "hit": false,
      "t": 74666.66666666669,
      "d": 266.6666666666715,
      "v": 127
    },
    {
      "midi": 52,
      "hit": false,
      "t": 74933.33333333336,
      "d": 266.6666666666715,
      "v": 127
    },
    {
      "midi": 64,
      "hit": false,
      "t": 74933.33333333336,
      "d": 266.6666666666715,
      "v": 127
    },
    {
      "midi": 68,
      "hit": false,
      "t": 74933.33333333336,
      "d": 266.6666666666715,
      "v": 127
    },
    {
      "midi": 71,
      "hit": false,
      "t": 74933.33333333336,
      "d": 266.6666666666715,
      "v": 127
    },
    {
      "midi": 76,
      "hit": false,
      "t": 74933.33333333336,
      "d": 266.6666666666715,
      "v": 127
    },
    {
      "midi": 71,
      "hit": false,
      "t": 75066.66666666663,
      "d": 800.0000000000146,
      "v": 94
    },
    {
      "midi": 75,
      "hit": false,
      "t": 75133.3333333333,
      "d": 733.333333333343,
      "v": 94
    },
    {
      "midi": 78,
      "hit": false,
      "t": 75199.99999999997,
      "d": 666.6666666666715,
      "v": 94
    },
    {
      "midi": 47,
      "hit": false,
      "t": 75200.00000000003,
      "d": 800,
      "v": 127
    },
    {
      "midi": 62,
      "hit": false,
      "t": 75200.00000000003,
      "d": 800,
      "v": 127
    },
    {
      "midi": 71,
      "hit": false,
      "t": 75200.00000000003,
      "d": 800,
      "v": 127
    },
    {
      "midi": 74,
      "hit": false,
      "t": 75200.00000000003,
      "d": 800,
      "v": 127
    },
    {
      "midi": 78,
      "hit": false,
      "t": 75200.00000000003,
      "d": 800,
      "v": 127
    },
    {
      "midi": 83,
      "hit": false,
      "t": 75266.66666666664,
      "d": 666.6666666666715,
      "v": 94
    },
    {
      "midi": 47,
      "hit": false,
      "t": 76000.00000000003,
      "d": 266.6666666666715,
      "v": 127
    },
    {
      "midi": 62,
      "hit": false,
      "t": 76000.00000000003,
      "d": 266.6666666666715,
      "v": 127
    },
    {
      "midi": 71,
      "hit": false,
      "t": 76000.00000000003,
      "d": 266.6666666666715,
      "v": 127
    },
    {
      "midi": 74,
      "hit": false,
      "t": 76000.00000000003,
      "d": 266.6666666666715,
      "v": 127
    },
    {
      "midi": 78,
      "hit": false,
      "t": 76000.00000000003,
      "d": 266.6666666666715,
      "v": 127
    },
    {
      "midi": 47,
      "hit": false,
      "t": 76266.6666666667,
      "d": 266.6666666666715,
      "v": 127
    },
    {
      "midi": 62,
      "hit": false,
      "t": 76266.6666666667,
      "d": 266.6666666666715,
      "v": 127
    },
    {
      "midi": 71,
      "hit": false,
      "t": 76266.6666666667,
      "d": 266.6666666666715,
      "v": 127
    },
    {
      "midi": 74,
      "hit": false,
      "t": 76266.6666666667,
      "d": 266.6666666666715,
      "v": 127
    },
    {
      "midi": 78,
      "hit": false,
      "t": 76266.6666666667,
      "d": 266.6666666666715,
      "v": 127
    },
    {
      "midi": 47,
      "hit": false,
      "t": 76533.33333333337,
      "d": 266.6666666666715,
      "v": 127
    },
    {
      "midi": 62,
      "hit": false,
      "t": 76533.33333333337,
      "d": 266.6666666666715,
      "v": 127
    },
    {
      "midi": 71,
      "hit": false,
      "t": 76533.33333333337,
      "d": 266.6666666666715,
      "v": 127
    },
    {
      "midi": 74,
      "hit": false,
      "t": 76533.33333333337,
      "d": 266.6666666666715,
      "v": 127
    },
    {
      "midi": 78,
      "hit": false,
      "t": 76533.33333333337,
      "d": 266.6666666666715,
      "v": 127
    },
    {
      "midi": 76,
      "hit": false,
      "t": 76666.66666666664,
      "d": 2066.6666666666715,
      "v": 94
    },
    {
      "midi": 80,
      "hit": false,
      "t": 76799.99999999997,
      "d": 2000.0000000000146,
      "v": 94
    },
    {
      "midi": 52,
      "hit": false,
      "t": 76800.00000000004,
      "d": 800,
      "v": 127
    },
    {
      "midi": 64,
      "hit": false,
      "t": 76800.00000000004,
      "d": 3200,
      "v": 127
    },
    {
      "midi": 68,
      "hit": false,
      "t": 76800.00000000004,
      "d": 3200,
      "v": 127
    },
    {
      "midi": 71,
      "hit": false,
      "t": 76800.00000000004,
      "d": 3200,
      "v": 127
    },
    {
      "midi": 76,
      "hit": false,
      "t": 76800.00000000004,
      "d": 3200,
      "v": 127
    },
    {
      "midi": 83,
      "hit": false,
      "t": 76866.66666666664,
      "d": 1933.333333333343,
      "v": 94
    },
    {
      "midi": 88,
      "hit": false,
      "t": 76866.66666666664,
      "d": 1933.333333333343,
      "v": 94
    },
    {
      "midi": 52,
      "hit": false,
      "t": 77600.00000000004,
      "d": 800,
      "v": 127
    },
    {
      "midi": 56,
      "hit": false,
      "t": 78366.66666666672,
      "d": 833.3333333333285,
      "v": 127
    },
    {
      "midi": 59,
      "hit": false,
      "t": 79180.00000000004,
      "d": 826.6666666666715,
      "v": 127
    },
    {
      "midi": 95,
      "hit": false,
      "t": 79866.66666666666,
      "d": 2066.666666666686,
      "v": 94
    },
    {
      "midi": 92,
      "hit": false,
      "t": 79933.33333333333,
      "d": 2000.0000000000146,
      "v": 94
    },
    {
      "midi": 83,
      "hit": false,
      "t": 80000,
      "d": 1933.333333333343,
      "v": 94
    },
    {
      "midi": 88,
      "hit": false,
      "t": 80000,
      "d": 2000.0000000000146,
      "v": 94
    },
    {
      "midi": 52,
      "hit": false,
      "t": 80000.00000000004,
      "d": 253.33333333334303,
      "v": 127
    },
    {
      "midi": 64,
      "hit": false,
      "t": 80000.00000000004,
      "d": 200,
      "v": 127
    },
    {
      "midi": 68,
      "hit": false,
      "t": 80000.00000000004,
      "d": 200,
      "v": 127
    },
    {
      "midi": 71,
      "hit": false,
      "t": 80000.00000000004,
      "d": 200,
      "v": 127
    },
    {
      "midi": 76,
      "hit": false,
      "t": 80000.00000000004,
      "d": 200,
      "v": 127
    },
    {
      "midi": 76,
      "hit": false,
      "t": 80066.66666666667,
      "d": 1866.6666666666715,
      "v": 94
    },
    {
      "midi": 80,
      "hit": false,
      "t": 80066.66666666667,
      "d": 1866.6666666666715,
      "v": 94
    },
    {
      "midi": 57,
      "hit": false,
      "t": 83186.66666666672,
      "d": 1633.3333333333285,
      "v": 127
    },
    {
      "midi": 69,
      "hit": false,
      "t": 83200.00000000004,
      "d": 1600,
      "v": 127
    },
    {
      "midi": 73,
      "hit": false,
      "t": 83200.00000000004,
      "d": 1600,
      "v": 127
    },
    {
      "midi": 76,
      "hit": false,
      "t": 83200.00000000004,
      "d": 1600,
      "v": 127
    },
    {
      "midi": 81,
      "hit": false,
      "t": 83200.00000000004,
      "d": 1600,
      "v": 127
    },
    {
      "midi": 81,
      "hit": false,
      "t": 83800.00000000001,
      "d": 1000,
      "v": 94
    },
    {
      "midi": 85,
      "hit": false,
      "t": 83866.66666666669,
      "d": 933.3333333333285,
      "v": 94
    },
    {
      "midi": 88,
      "hit": false,
      "t": 84000.00000000001,
      "d": 800,
      "v": 94
    },
    {
      "midi": 93,
      "hit": false,
      "t": 84066.66666666669,
      "d": 733.3333333333285,
      "v": 94
    },
    {
      "midi": 52,
      "hit": false,
      "t": 84800.00000000004,
      "d": 1600,
      "v": 127
    },
    {
      "midi": 68,
      "hit": false,
      "t": 84800.00000000004,
      "d": 1600,
      "v": 127
    },
    {
      "midi": 73,
      "hit": false,
      "t": 84800.00000000004,
      "d": 1600,
      "v": 127
    },
    {
      "midi": 76,
      "hit": false,
      "t": 84800.00000000004,
      "d": 1600,
      "v": 127
    },
    {
      "midi": 80,
      "hit": false,
      "t": 84800.00000000004,
      "d": 1600,
      "v": 127
    },
    {
      "midi": 80,
      "hit": false,
      "t": 85400.00000000001,
      "d": 866.6666666666715,
      "v": 94
    },
    {
      "midi": 85,
      "hit": false,
      "t": 85533.33333333334,
      "d": 800.0000000000146,
      "v": 94
    },
    {
      "midi": 88,
      "hit": false,
      "t": 85600.00000000001,
      "d": 733.333333333343,
      "v": 94
    },
    {
      "midi": 92,
      "hit": false,
      "t": 85666.66666666669,
      "d": 666.6666666666715,
      "v": 94
    },
    {
      "midi": 50,
      "hit": false,
      "t": 86400.00000000004,
      "d": 1633.3333333333285,
      "v": 127
    },
    {
      "midi": 62,
      "hit": false,
      "t": 86400.00000000004,
      "d": 1600,
      "v": 127
    },
    {
      "midi": 66,
      "hit": false,
      "t": 86400.00000000004,
      "d": 1600,
      "v": 127
    },
    {
      "midi": 69,
      "hit": false,
      "t": 86400.00000000004,
      "d": 1600,
      "v": 127
    },
    {
      "midi": 74,
      "hit": false,
      "t": 86400.00000000004,
      "d": 1600,
      "v": 127
    },
    {
      "midi": 74,
      "hit": false,
      "t": 87000.00000000003,
      "d": 800,
      "v": 94
    },
    {
      "midi": 78,
      "hit": false,
      "t": 87066.6666666667,
      "d": 800,
      "v": 94
    },
    {
      "midi": 81,
      "hit": false,
      "t": 87133.33333333337,
      "d": 733.3333333333285,
      "v": 94
    },
    {
      "midi": 86,
      "hit": false,
      "t": 87266.6666666667,
      "d": 800,
      "v": 94
    },
    {
      "midi": 52,
      "hit": false,
      "t": 88000.00000000004,
      "d": 1600,
      "v": 127
    },
    {
      "midi": 64,
      "hit": false,
      "t": 88000.00000000004,
      "d": 1600,
      "v": 127
    },
    {
      "midi": 68,
      "hit": false,
      "t": 88000.00000000004,
      "d": 1600,
      "v": 127
    },
    {
      "midi": 71,
      "hit": false,
      "t": 88000.00000000004,
      "d": 1600,
      "v": 127
    },
    {
      "midi": 76,
      "hit": false,
      "t": 88000.00000000004,
      "d": 1600,
      "v": 127
    },
    {
      "midi": 76,
      "hit": false,
      "t": 88600.00000000003,
      "d": 1000.0000000000146,
      "v": 94
    },
    {
      "midi": 80,
      "hit": false,
      "t": 88666.6666666667,
      "d": 866.6666666666715,
      "v": 94
    },
    {
      "midi": 83,
      "hit": false,
      "t": 88733.33333333337,
      "d": 866.6666666666715,
      "v": 94
    },
    {
      "midi": 88,
      "hit": false,
      "t": 88866.6666666667,
      "d": 666.6666666666715,
      "v": 94
    },
    {
      "midi": 57,
      "hit": false,
      "t": 89600.00000000004,
      "d": 1580,
      "v": 127
    },
    {
      "midi": 69,
      "hit": false,
      "t": 89600.00000000004,
      "d": 1600,
      "v": 127
    },
    {
      "midi": 73,
      "hit": false,
      "t": 89600.00000000004,
      "d": 1600,
      "v": 127
    },
    {
      "midi": 76,
      "hit": false,
      "t": 89600.00000000004,
      "d": 1600,
      "v": 127
    },
    {
      "midi": 81,
      "hit": false,
      "t": 89600.00000000004,
      "d": 1600,
      "v": 127
    },
    {
      "midi": 81,
      "hit": false,
      "t": 90200.00000000004,
      "d": 1000,
      "v": 94
    },
    {
      "midi": 85,
      "hit": false,
      "t": 90266.66666666672,
      "d": 933.3333333333285,
      "v": 94
    },
    {
      "midi": 88,
      "hit": false,
      "t": 90400.00000000004,
      "d": 800,
      "v": 94
    },
    {
      "midi": 93,
      "hit": false,
      "t": 90466.66666666672,
      "d": 733.3333333333285,
      "v": 94
    },
    {
      "midi": 52,
      "hit": false,
      "t": 91200.00000000004,
      "d": 1573.3333333333285,
      "v": 127
    },
    {
      "midi": 68,
      "hit": false,
      "t": 91200.00000000004,
      "d": 1600,
      "v": 127
    },
    {
      "midi": 73,
      "hit": false,
      "t": 91200.00000000004,
      "d": 1600,
      "v": 127
    },
    {
      "midi": 76,
      "hit": false,
      "t": 91200.00000000004,
      "d": 1600,
      "v": 127
    },
    {
      "midi": 80,
      "hit": false,
      "t": 91200.00000000004,
      "d": 1600,
      "v": 127
    },
    {
      "midi": 80,
      "hit": false,
      "t": 91800.00000000004,
      "d": 866.6666666666715,
      "v": 94
    },
    {
      "midi": 85,
      "hit": false,
      "t": 91933.33333333337,
      "d": 800.0000000000146,
      "v": 94
    },
    {
      "midi": 88,
      "hit": false,
      "t": 92000.00000000004,
      "d": 733.333333333343,
      "v": 94
    },
    {
      "midi": 92,
      "hit": false,
      "t": 92066.66666666672,
      "d": 666.6666666666715,
      "v": 94
    },
    {
      "midi": 50,
      "hit": false,
      "t": 92800.00000000004,
      "d": 1593.3333333333285,
      "v": 127
    },
    {
      "midi": 62,
      "hit": false,
      "t": 92800.00000000004,
      "d": 1600,
      "v": 127
    },
    {
      "midi": 66,
      "hit": false,
      "t": 92800.00000000004,
      "d": 1600,
      "v": 127
    },
    {
      "midi": 69,
      "hit": false,
      "t": 92800.00000000004,
      "d": 1600,
      "v": 127
    },
    {
      "midi": 74,
      "hit": false,
      "t": 92800.00000000004,
      "d": 1600,
      "v": 127
    },
    {
      "midi": 74,
      "hit": false,
      "t": 93400.00000000006,
      "d": 800,
      "v": 94
    },
    {
      "midi": 78,
      "hit": false,
      "t": 93466.66666666673,
      "d": 800,
      "v": 94
    },
    {
      "midi": 81,
      "hit": false,
      "t": 93533.3333333334,
      "d": 733.3333333333285,
      "v": 94
    },
    {
      "midi": 86,
      "hit": false,
      "t": 93666.66666666673,
      "d": 800,
      "v": 94
    },
    {
      "midi": 52,
      "hit": false,
      "t": 94400.00000000004,
      "d": 1573.3333333333285,
      "v": 127
    },
    {
      "midi": 64,
      "hit": false,
      "t": 94400.00000000004,
      "d": 1600,
      "v": 127
    },
    {
      "midi": 68,
      "hit": false,
      "t": 94400.00000000004,
      "d": 1600,
      "v": 127
    },
    {
      "midi": 71,
      "hit": false,
      "t": 94400.00000000004,
      "d": 1600,
      "v": 127
    },
    {
      "midi": 76,
      "hit": false,
      "t": 94400.00000000004,
      "d": 1600,
      "v": 127
    },
    {
      "midi": 76,
      "hit": false,
      "t": 95000.00000000006,
      "d": 1000.0000000000146,
      "v": 94
    },
    {
      "midi": 80,
      "hit": false,
      "t": 95066.66666666673,
      "d": 866.6666666666715,
      "v": 94
    },
    {
      "midi": 83,
      "hit": false,
      "t": 95133.3333333334,
      "d": 866.6666666666715,
      "v": 94
    },
    {
      "midi": 88,
      "hit": false,
      "t": 95266.66666666673,
      "d": 666.6666666666715,
      "v": 94
    },
    {
      "midi": 57,
      "hit": false,
      "t": 96000.00000000004,
      "d": 1646.6666666666715,
      "v": 127
    },
    {
      "midi": 69,
      "hit": false,
      "t": 96000.00000000004,
      "d": 1600,
      "v": 127
    },
    {
      "midi": 73,
      "hit": false,
      "t": 96000.00000000004,
      "d": 1600,
      "v": 127
    },
    {
      "midi": 76,
      "hit": false,
      "t": 96000.00000000004,
      "d": 1600,
      "v": 127
    },
    {
      "midi": 81,
      "hit": false,
      "t": 96000.00000000004,
      "d": 1600,
      "v": 127
    },
    {
      "midi": 81,
      "hit": false,
      "t": 96600.00000000007,
      "d": 933.333333333343,
      "v": 94
    },
    {
      "midi": 85,
      "hit": false,
      "t": 96666.66666666674,
      "d": 866.6666666666715,
      "v": 94
    },
    {
      "midi": 88,
      "hit": false,
      "t": 96733.33333333342,
      "d": 866.6666666666715,
      "v": 94
    },
    {
      "midi": 93,
      "hit": false,
      "t": 96866.66666666674,
      "d": 733.333333333343,
      "v": 94
    },
    {
      "midi": 54,
      "hit": false,
      "t": 97600.00000000004,
      "d": 1593.333333333343,
      "v": 127
    },
    {
      "midi": 66,
      "hit": false,
      "t": 97600.00000000004,
      "d": 1600,
      "v": 127
    },
    {
      "midi": 69,
      "hit": false,
      "t": 97600.00000000004,
      "d": 1600,
      "v": 127
    },
    {
      "midi": 73,
      "hit": false,
      "t": 97600.00000000004,
      "d": 1600,
      "v": 127
    },
    {
      "midi": 78,
      "hit": false,
      "t": 97600.00000000004,
      "d": 1600,
      "v": 127
    },
    {
      "midi": 78,
      "hit": false,
      "t": 98200.00000000009,
      "d": 1133.333333333343,
      "v": 94
    },
    {
      "midi": 81,
      "hit": false,
      "t": 98266.66666666676,
      "d": 1000,
      "v": 94
    },
    {
      "midi": 85,
      "hit": false,
      "t": 98400.00000000009,
      "d": 866.6666666666715,
      "v": 94
    },
    {
      "midi": 90,
      "hit": false,
      "t": 98466.66666666676,
      "d": 800,
      "v": 94
    },
    {
      "midi": 71,
      "hit": false,
      "t": 99200.00000000004,
      "d": 1600,
      "v": 127
    },
    {
      "midi": 74,
      "hit": false,
      "t": 99200.00000000004,
      "d": 1600,
      "v": 127
    },
    {
      "midi": 78,
      "hit": false,
      "t": 99200.00000000004,
      "d": 1600,
      "v": 127
    },
    {
      "midi": 83,
      "hit": false,
      "t": 99200.00000000004,
      "d": 1600,
      "v": 127
    },
    {
      "midi": 47,
      "hit": false,
      "t": 99200.00000000006,
      "d": 1806.6666666666715,
      "v": 127
    },
    {
      "midi": 83,
      "hit": false,
      "t": 99800.0000000001,
      "d": 733.3333333333285,
      "v": 94
    },
    {
      "midi": 86,
      "hit": false,
      "t": 99933.33333333343,
      "d": 600,
      "v": 94
    },
    {
      "midi": 90,
      "hit": false,
      "t": 99933.33333333343,
      "d": 600,
      "v": 94
    },
    {
      "midi": 95,
      "hit": false,
      "t": 100066.66666666676,
      "d": 933.333333333343,
      "v": 94
    },
    {
      "midi": 64,
      "hit": false,
      "t": 100800.00000000004,
      "d": 1600,
      "v": 127
    },
    {
      "midi": 68,
      "hit": false,
      "t": 100800.00000000004,
      "d": 1600,
      "v": 127
    },
    {
      "midi": 71,
      "hit": false,
      "t": 100800.00000000004,
      "d": 1600,
      "v": 127
    },
    {
      "midi": 76,
      "hit": false,
      "t": 100800.00000000004,
      "d": 1600,
      "v": 127
    },
    {
      "midi": 52,
      "hit": false,
      "t": 100800.00000000006,
      "d": 1386.6666666666715,
      "v": 127
    },
    {
      "midi": 76,
      "hit": false,
      "t": 101333.33333333343,
      "d": 733.333333333343,
      "v": 94
    },
    {
      "midi": 80,
      "hit": false,
      "t": 101466.66666666676,
      "d": 600.0000000000146,
      "v": 94
    },
    {
      "midi": 83,
      "hit": false,
      "t": 101533.33333333343,
      "d": 600.0000000000146,
      "v": 94
    },
    {
      "midi": 88,
      "hit": false,
      "t": 101600.0000000001,
      "d": 800.0000000000146,
      "v": 94
    },
    {
      "midi": 57,
      "hit": false,
      "t": 102400.00000000004,
      "d": 1600,
      "v": 127
    },
    {
      "midi": 61,
      "hit": false,
      "t": 102400.00000000004,
      "d": 1600,
      "v": 127
    },
    {
      "midi": 64,
      "hit": false,
      "t": 102400.00000000004,
      "d": 1600,
      "v": 127
    },
    {
      "midi": 69,
      "hit": false,
      "t": 102400.00000000004,
      "d": 1600,
      "v": 127
    },
    {
      "midi": 45,
      "hit": false,
      "t": 102413.3333333334,
      "d": 1573.3333333333285,
      "v": 127
    },
    {
      "midi": 81,
      "hit": false,
      "t": 102933.33333333344,
      "d": 733.3333333333285,
      "v": 94
    },
    {
      "midi": 85,
      "hit": false,
      "t": 103066.66666666677,
      "d": 600,
      "v": 94
    },
    {
      "midi": 88,
      "hit": false,
      "t": 103066.66666666677,
      "d": 600,
      "v": 94
    },
    {
      "midi": 93,
      "hit": false,
      "t": 103200.0000000001,
      "d": 933.333333333343,
      "v": 94
    },
    {
      "midi": 62,
      "hit": false,
      "t": 104000.00000000004,
      "d": 1600,
      "v": 127
    },
    {
      "midi": 66,
      "hit": false,
      "t": 104000.00000000004,
      "d": 1600,
      "v": 127
    },
    {
      "midi": 69,
      "hit": false,
      "t": 104000.00000000004,
      "d": 1600,
      "v": 127
    },
    {
      "midi": 74,
      "hit": false,
      "t": 104000.00000000004,
      "d": 1600,
      "v": 127
    },
    {
      "midi": 50,
      "hit": false,
      "t": 104000.00000000006,
      "d": 1600,
      "v": 127
    },
    {
      "midi": 74,
      "hit": false,
      "t": 104533.33333333344,
      "d": 733.333333333343,
      "v": 94
    },
    {
      "midi": 78,
      "hit": false,
      "t": 104600.00000000012,
      "d": 666.6666666666715,
      "v": 94
    },
    {
      "midi": 81,
      "hit": false,
      "t": 104666.66666666679,
      "d": 666.6666666666715,
      "v": 94
    },
    {
      "midi": 86,
      "hit": false,
      "t": 104800.00000000012,
      "d": 666.6666666666715,
      "v": 94
    },
    {
      "midi": 45,
      "hit": false,
      "t": 105573.33333333339,
      "d": 2580,
      "v": 127
    },
    {
      "midi": 69,
      "hit": false,
      "t": 105600.00000000004,
      "d": 3200,
      "v": 127
    },
    {
      "midi": 73,
      "hit": false,
      "t": 105600.00000000004,
      "d": 3200,
      "v": 127
    },
    {
      "midi": 76,
      "hit": false,
      "t": 105600.00000000004,
      "d": 3200,
      "v": 127
    },
    {
      "midi": 81,
      "hit": false,
      "t": 105600.00000000004,
      "d": 3200,
      "v": 127
    },
    {
      "midi": 81,
      "hit": false,
      "t": 106133.33333333346,
      "d": 1133.333333333343,
      "v": 94
    },
    {
      "midi": 85,
      "hit": false,
      "t": 106200.00000000013,
      "d": 1133.333333333343,
      "v": 94
    },
    {
      "midi": 88,
      "hit": false,
      "t": 106266.6666666668,
      "d": 1066.6666666666715,
      "v": 94
    },
    {
      "midi": 93,
      "hit": false,
      "t": 106400.00000000013,
      "d": 866.6666666666715,
      "v": 94
    },
    {
      "midi": 88,
      "hit": false,
      "t": 107733.33333333347,
      "d": 1000,
      "v": 94
    },
    {
      "midi": 93,
      "hit": false,
      "t": 107733.33333333347,
      "d": 1000,
      "v": 94
    },
    {
      "midi": 85,
      "hit": false,
      "t": 107866.6666666668,
      "d": 866.6666666666715,
      "v": 94
    },
    {
      "midi": 81,
      "hit": false,
      "t": 107933.33333333347,
      "d": 800,
      "v": 94
    },
    {
      "midi": 69,
      "hit": false,
      "t": 108800.00000000004,
      "d": 1600,
      "v": 127
    },
    {
      "midi": 73,
      "hit": false,
      "t": 108800.00000000004,
      "d": 1600,
      "v": 127
    },
    {
      "midi": 76,
      "hit": false,
      "t": 108800.00000000004,
      "d": 1600,
      "v": 127
    },
    {
      "midi": 81,
      "hit": false,
      "t": 108800.00000000004,
      "d": 1600,
      "v": 127
    },
    {
      "midi": 57,
      "hit": false,
      "t": 108800.00000000006,
      "d": 1600,
      "v": 127
    },
    {
      "midi": 81,
      "hit": false,
      "t": 109400.00000000015,
      "d": 1000,
      "v": 94
    },
    {
      "midi": 85,
      "hit": false,
      "t": 109466.66666666682,
      "d": 933.3333333333285,
      "v": 94
    },
    {
      "midi": 88,
      "hit": false,
      "t": 109600.00000000015,
      "d": 800,
      "v": 94
    },
    {
      "midi": 93,
      "hit": false,
      "t": 109666.66666666682,
      "d": 733.3333333333285,
      "v": 94
    },
    {
      "midi": 68,
      "hit": false,
      "t": 110400.00000000004,
      "d": 1600,
      "v": 127
    },
    {
      "midi": 73,
      "hit": false,
      "t": 110400.00000000004,
      "d": 1600,
      "v": 127
    },
    {
      "midi": 76,
      "hit": false,
      "t": 110400.00000000004,
      "d": 1600,
      "v": 127
    },
    {
      "midi": 80,
      "hit": false,
      "t": 110400.00000000004,
      "d": 1600,
      "v": 127
    },
    {
      "midi": 52,
      "hit": false,
      "t": 110400.00000000006,
      "d": 1600,
      "v": 127
    },
    {
      "midi": 80,
      "hit": false,
      "t": 111000.00000000015,
      "d": 866.6666666666715,
      "v": 94
    },
    {
      "midi": 85,
      "hit": false,
      "t": 111133.33333333347,
      "d": 800.0000000000146,
      "v": 94
    },
    {
      "midi": 88,
      "hit": false,
      "t": 111200.00000000015,
      "d": 733.333333333343,
      "v": 94
    },
    {
      "midi": 92,
      "hit": false,
      "t": 111266.66666666682,
      "d": 666.6666666666715,
      "v": 94
    },
    {
      "midi": 62,
      "hit": false,
      "t": 112000.00000000004,
      "d": 1600,
      "v": 127
    },
    {
      "midi": 66,
      "hit": false,
      "t": 112000.00000000004,
      "d": 1600,
      "v": 127
    },
    {
      "midi": 69,
      "hit": false,
      "t": 112000.00000000004,
      "d": 1600,
      "v": 127
    },
    {
      "midi": 74,
      "hit": false,
      "t": 112000.00000000004,
      "d": 1600,
      "v": 127
    },
    {
      "midi": 50,
      "hit": false,
      "t": 112000.00000000006,
      "d": 1600,
      "v": 127
    },
    {
      "midi": 74,
      "hit": false,
      "t": 112600.00000000016,
      "d": 800,
      "v": 94
    },
    {
      "midi": 78,
      "hit": false,
      "t": 112666.66666666683,
      "d": 800,
      "v": 94
    },
    {
      "midi": 81,
      "hit": false,
      "t": 112733.3333333335,
      "d": 733.3333333333285,
      "v": 94
    },
    {
      "midi": 86,
      "hit": false,
      "t": 112866.66666666683,
      "d": 800,
      "v": 94
    },
    {
      "midi": 64,
      "hit": false,
      "t": 113600.00000000004,
      "d": 1600,
      "v": 127
    },
    {
      "midi": 68,
      "hit": false,
      "t": 113600.00000000004,
      "d": 1600,
      "v": 127
    },
    {
      "midi": 71,
      "hit": false,
      "t": 113600.00000000004,
      "d": 1600,
      "v": 127
    },
    {
      "midi": 76,
      "hit": false,
      "t": 113600.00000000004,
      "d": 1600,
      "v": 127
    },
    {
      "midi": 52,
      "hit": false,
      "t": 113600.00000000006,
      "d": 1600,
      "v": 127
    },
    {
      "midi": 76,
      "hit": false,
      "t": 114200.00000000016,
      "d": 1000.0000000000146,
      "v": 94
    },
    {
      "midi": 80,
      "hit": false,
      "t": 114266.66666666683,
      "d": 866.6666666666715,
      "v": 94
    },
    {
      "midi": 83,
      "hit": false,
      "t": 114333.3333333335,
      "d": 866.6666666666715,
      "v": 94
    },
    {
      "midi": 88,
      "hit": false,
      "t": 114466.66666666683,
      "d": 666.6666666666715,
      "v": 94
    },
    {
      "midi": 69,
      "hit": false,
      "t": 115200.00000000004,
      "d": 1600,
      "v": 127
    },
    {
      "midi": 73,
      "hit": false,
      "t": 115200.00000000004,
      "d": 1600,
      "v": 127
    },
    {
      "midi": 76,
      "hit": false,
      "t": 115200.00000000004,
      "d": 1600,
      "v": 127
    },
    {
      "midi": 81,
      "hit": false,
      "t": 115200.00000000004,
      "d": 1600,
      "v": 127
    },
    {
      "midi": 57,
      "hit": false,
      "t": 115200.00000000006,
      "d": 1600,
      "v": 127
    },
    {
      "midi": 81,
      "hit": false,
      "t": 115800.00000000017,
      "d": 1000,
      "v": 94
    },
    {
      "midi": 85,
      "hit": false,
      "t": 115866.66666666685,
      "d": 933.3333333333285,
      "v": 94
    },
    {
      "midi": 88,
      "hit": false,
      "t": 116000.00000000017,
      "d": 800,
      "v": 94
    },
    {
      "midi": 93,
      "hit": false,
      "t": 116066.66666666685,
      "d": 733.3333333333285,
      "v": 94
    },
    {
      "midi": 68,
      "hit": false,
      "t": 116800.00000000004,
      "d": 1600,
      "v": 127
    },
    {
      "midi": 73,
      "hit": false,
      "t": 116800.00000000004,
      "d": 1600,
      "v": 127
    },
    {
      "midi": 76,
      "hit": false,
      "t": 116800.00000000004,
      "d": 1600,
      "v": 127
    },
    {
      "midi": 80,
      "hit": false,
      "t": 116800.00000000004,
      "d": 1600,
      "v": 127
    },
    {
      "midi": 52,
      "hit": false,
      "t": 116800.00000000006,
      "d": 1600,
      "v": 127
    },
    {
      "midi": 80,
      "hit": false,
      "t": 117400.00000000017,
      "d": 866.6666666666715,
      "v": 94
    },
    {
      "midi": 85,
      "hit": false,
      "t": 117533.3333333335,
      "d": 800.0000000000146,
      "v": 94
    },
    {
      "midi": 88,
      "hit": false,
      "t": 117600.00000000017,
      "d": 733.333333333343,
      "v": 94
    },
    {
      "midi": 92,
      "hit": false,
      "t": 117666.66666666685,
      "d": 666.6666666666715,
      "v": 94
    },
    {
      "midi": 62,
      "hit": false,
      "t": 118400.00000000004,
      "d": 1600,
      "v": 127
    },
    {
      "midi": 66,
      "hit": false,
      "t": 118400.00000000004,
      "d": 1600,
      "v": 127
    },
    {
      "midi": 69,
      "hit": false,
      "t": 118400.00000000004,
      "d": 1600,
      "v": 127
    },
    {
      "midi": 74,
      "hit": false,
      "t": 118400.00000000004,
      "d": 1600,
      "v": 127
    },
    {
      "midi": 50,
      "hit": false,
      "t": 118400.00000000006,
      "d": 1600,
      "v": 127
    },
    {
      "midi": 74,
      "hit": false,
      "t": 119000.00000000019,
      "d": 800,
      "v": 94
    },
    {
      "midi": 78,
      "hit": false,
      "t": 119066.66666666686,
      "d": 800,
      "v": 94
    },
    {
      "midi": 81,
      "hit": false,
      "t": 119133.33333333353,
      "d": 733.3333333333285,
      "v": 94
    },
    {
      "midi": 86,
      "hit": false,
      "t": 119266.66666666686,
      "d": 800,
      "v": 94
    },
    {
      "midi": 64,
      "hit": false,
      "t": 120000.00000000004,
      "d": 1600,
      "v": 127
    },
    {
      "midi": 68,
      "hit": false,
      "t": 120000.00000000004,
      "d": 1600,
      "v": 127
    },
    {
      "midi": 71,
      "hit": false,
      "t": 120000.00000000004,
      "d": 1600,
      "v": 127
    },
    {
      "midi": 76,
      "hit": false,
      "t": 120000.00000000004,
      "d": 1600,
      "v": 127
    },
    {
      "midi": 52,
      "hit": false,
      "t": 120000.00000000006,
      "d": 1600,
      "v": 127
    },
    {
      "midi": 76,
      "hit": false,
      "t": 120600.00000000019,
      "d": 1000.0000000000146,
      "v": 94
    },
    {
      "midi": 80,
      "hit": false,
      "t": 120666.66666666686,
      "d": 866.6666666666715,
      "v": 94
    },
    {
      "midi": 83,
      "hit": false,
      "t": 120733.33333333353,
      "d": 866.6666666666715,
      "v": 94
    },
    {
      "midi": 88,
      "hit": false,
      "t": 120866.66666666686,
      "d": 666.6666666666715,
      "v": 94
    },
    {
      "midi": 69,
      "hit": false,
      "t": 121600.00000000004,
      "d": 1600,
      "v": 127
    },
    {
      "midi": 73,
      "hit": false,
      "t": 121600.00000000004,
      "d": 1600,
      "v": 127
    },
    {
      "midi": 76,
      "hit": false,
      "t": 121600.00000000004,
      "d": 1600,
      "v": 127
    },
    {
      "midi": 81,
      "hit": false,
      "t": 121600.00000000004,
      "d": 1600,
      "v": 127
    },
    {
      "midi": 57,
      "hit": false,
      "t": 121600.00000000006,
      "d": 1566.6666666666715,
      "v": 127
    },
    {
      "midi": 81,
      "hit": false,
      "t": 122200.0000000002,
      "d": 933.333333333343,
      "v": 94
    },
    {
      "midi": 85,
      "hit": false,
      "t": 122266.66666666688,
      "d": 866.6666666666715,
      "v": 94
    },
    {
      "midi": 88,
      "hit": false,
      "t": 122333.33333333355,
      "d": 866.6666666666715,
      "v": 94
    },
    {
      "midi": 93,
      "hit": false,
      "t": 122466.66666666688,
      "d": 733.333333333343,
      "v": 94
    },
    {
      "midi": 66,
      "hit": false,
      "t": 123200.00000000004,
      "d": 1600,
      "v": 127
    },
    {
      "midi": 69,
      "hit": false,
      "t": 123200.00000000004,
      "d": 1600,
      "v": 127
    },
    {
      "midi": 73,
      "hit": false,
      "t": 123200.00000000004,
      "d": 1600,
      "v": 127
    },
    {
      "midi": 78,
      "hit": false,
      "t": 123200.00000000004,
      "d": 1600,
      "v": 127
    },
    {
      "midi": 54,
      "hit": false,
      "t": 123200.00000000006,
      "d": 1633.3333333333285,
      "v": 127
    },
    {
      "midi": 78,
      "hit": false,
      "t": 123800.00000000022,
      "d": 1133.333333333343,
      "v": 94
    },
    {
      "midi": 81,
      "hit": false,
      "t": 123866.66666666689,
      "d": 1000,
      "v": 94
    },
    {
      "midi": 85,
      "hit": false,
      "t": 124000.00000000022,
      "d": 866.6666666666715,
      "v": 94
    },
    {
      "midi": 90,
      "hit": false,
      "t": 124066.66666666689,
      "d": 800,
      "v": 94
    },
    {
      "midi": 71,
      "hit": false,
      "t": 124800.00000000004,
      "d": 1600,
      "v": 127
    },
    {
      "midi": 74,
      "hit": false,
      "t": 124800.00000000004,
      "d": 1600,
      "v": 127
    },
    {
      "midi": 78,
      "hit": false,
      "t": 124800.00000000004,
      "d": 1600,
      "v": 127
    },
    {
      "midi": 83,
      "hit": false,
      "t": 124800.00000000004,
      "d": 1600,
      "v": 127
    },
    {
      "midi": 47,
      "hit": false,
      "t": 124800.00000000006,
      "d": 1560,
      "v": 127
    },
    {
      "midi": 83,
      "hit": false,
      "t": 125400.00000000023,
      "d": 666.6666666666715,
      "v": 94
    },
    {
      "midi": 86,
      "hit": false,
      "t": 125466.6666666669,
      "d": 533.3333333333285,
      "v": 94
    },
    {
      "midi": 90,
      "hit": false,
      "t": 125533.33333333358,
      "d": 466.66666666665697,
      "v": 94
    },
    {
      "midi": 95,
      "hit": false,
      "t": 125666.6666666669,
      "d": 866.6666666666715,
      "v": 94
    },
    {
      "midi": 64,
      "hit": false,
      "t": 126400.00000000004,
      "d": 1600,
      "v": 127
    },
    {
      "midi": 68,
      "hit": false,
      "t": 126400.00000000004,
      "d": 1600,
      "v": 127
    },
    {
      "midi": 71,
      "hit": false,
      "t": 126400.00000000004,
      "d": 1600,
      "v": 127
    },
    {
      "midi": 76,
      "hit": false,
      "t": 126400.00000000004,
      "d": 1600,
      "v": 127
    },
    {
      "midi": 52,
      "hit": false,
      "t": 126400.00000000006,
      "d": 1500,
      "v": 127
    },
    {
      "midi": 76,
      "hit": false,
      "t": 126866.6666666669,
      "d": 800,
      "v": 94
    },
    {
      "midi": 80,
      "hit": false,
      "t": 127000.00000000023,
      "d": 666.6666666666715,
      "v": 94
    },
    {
      "midi": 83,
      "hit": false,
      "t": 127066.6666666669,
      "d": 666.6666666666715,
      "v": 94
    },
    {
      "midi": 88,
      "hit": false,
      "t": 127200.00000000023,
      "d": 666.6666666666715,
      "v": 94
    },
    {
      "midi": 69,
      "hit": false,
      "t": 128000.00000000004,
      "d": 1600,
      "v": 127
    },
    {
      "midi": 73,
      "hit": false,
      "t": 128000.00000000004,
      "d": 1600,
      "v": 127
    },
    {
      "midi": 76,
      "hit": false,
      "t": 128000.00000000004,
      "d": 1600,
      "v": 127
    },
    {
      "midi": 81,
      "hit": false,
      "t": 128000.00000000004,
      "d": 1600,
      "v": 127
    },
    {
      "midi": 45,
      "hit": false,
      "t": 128000.00000000006,
      "d": 1620,
      "v": 127
    },
    {
      "midi": 81,
      "hit": false,
      "t": 128533.33333333358,
      "d": 600,
      "v": 94
    },
    {
      "midi": 85,
      "hit": false,
      "t": 128600.00000000025,
      "d": 600,
      "v": 94
    },
    {
      "midi": 88,
      "hit": false,
      "t": 128666.66666666692,
      "d": 533.3333333333285,
      "v": 94
    },
    {
      "midi": 93,
      "hit": false,
      "t": 128800.00000000025,
      "d": 866.6666666666715,
      "v": 94
    },
    {
      "midi": 62,
      "hit": false,
      "t": 129600.00000000004,
      "d": 1600.0000000000146,
      "v": 127
    },
    {
      "midi": 66,
      "hit": false,
      "t": 129600.00000000004,
      "d": 1600.0000000000146,
      "v": 127
    },
    {
      "midi": 69,
      "hit": false,
      "t": 129600.00000000004,
      "d": 1600.0000000000146,
      "v": 127
    },
    {
      "midi": 74,
      "hit": false,
      "t": 129600.00000000004,
      "d": 1600.0000000000146,
      "v": 127
    },
    {
      "midi": 50,
      "hit": false,
      "t": 129600.00000000006,
      "d": 1606.666666666657,
      "v": 127
    },
    {
      "midi": 74,
      "hit": false,
      "t": 130133.33333333359,
      "d": 533.333333333343,
      "v": 94
    },
    {
      "midi": 78,
      "hit": false,
      "t": 130266.66666666692,
      "d": 400.00000000001455,
      "v": 94
    },
    {
      "midi": 81,
      "hit": false,
      "t": 130333.33333333359,
      "d": 400.00000000001455,
      "v": 94
    },
    {
      "midi": 86,
      "hit": false,
      "t": 130400.00000000026,
      "d": 333.33333333334303,
      "v": 94
    },
    {
      "midi": 81,
      "hit": false,
      "t": 131133.3333333336,
      "d": 1066.666666666686,
      "v": 94
    },
    {
      "midi": 85,
      "hit": false,
      "t": 131133.3333333336,
      "d": 1066.666666666686,
      "v": 94
    },
    {
      "midi": 45,
      "hit": false,
      "t": 131200.00000000006,
      "d": 3200,
      "v": 127
    },
    {
      "midi": 57,
      "hit": false,
      "t": 131200.00000000006,
      "d": 3200,
      "v": 127
    },
    {
      "midi": 61,
      "hit": false,
      "t": 131200.00000000006,
      "d": 3200,
      "v": 127
    },
    {
      "midi": 64,
      "hit": false,
      "t": 131200.00000000006,
      "d": 3200,
      "v": 127
    },
    {
      "midi": 69,
      "hit": false,
      "t": 131200.00000000006,
      "d": 3200,
      "v": 127
    },
    {
      "midi": 88,
      "hit": false,
      "t": 131266.66666666695,
      "d": 1000,
      "v": 94
    },
    {
      "midi": 93,
      "hit": false,
      "t": 131266.66666666695,
      "d": 1000,
      "v": 94
    },
    {
      "midi": 53,
      "hit": false,
      "t": 134400.00000000006,
      "d": 1580,
      "v": 127
    },
    {
      "midi": 62,
      "hit": false,
      "t": 134400.00000000006,
      "d": 4800,
      "v": 127
    },
    {
      "midi": 65,
      "hit": false,
      "t": 134400.00000000006,
      "d": 4800,
      "v": 127
    },
    {
      "midi": 69,
      "hit": false,
      "t": 134400.00000000006,
      "d": 4800,
      "v": 127
    },
    {
      "midi": 74,
      "hit": false,
      "t": 134400.00000000006,
      "d": 4800,
      "v": 127
    },
    {
      "midi": 74,
      "hit": false,
      "t": 134933.3333333336,
      "d": 2666.666666666686,
      "v": 94
    },
    {
      "midi": 77,
      "hit": false,
      "t": 135000.00000000026,
      "d": 2666.666666666686,
      "v": 94
    },
    {
      "midi": 81,
      "hit": false,
      "t": 135133.3333333336,
      "d": 2466.666666666686,
      "v": 94
    },
    {
      "midi": 86,
      "hit": false,
      "t": 135266.66666666695,
      "d": 2400,
      "v": 94
    },
    {
      "midi": 50,
      "hit": false,
      "t": 136000.00000000006,
      "d": 1600,
      "v": 127
    },
    {
      "midi": 53,
      "hit": false,
      "t": 137600.00000000006,
      "d": 1580,
      "v": 127
    },
    {
      "midi": 74,
      "hit": false,
      "t": 138200.0000000003,
      "d": 666.666666666657,
      "v": 94
    },
    {
      "midi": 77,
      "hit": false,
      "t": 138266.66666666695,
      "d": 666.666666666657,
      "v": 94
    },
    {
      "midi": 81,
      "hit": false,
      "t": 138333.3333333336,
      "d": 600,
      "v": 94
    },
    {
      "midi": 86,
      "hit": false,
      "t": 138466.66666666695,
      "d": 733.3333333333139,
      "v": 94
    },
    {
      "midi": 55,
      "hit": false,
      "t": 139200.00000000006,
      "d": 1593.333333333343,
      "v": 127
    },
    {
      "midi": 67,
      "hit": false,
      "t": 139200.00000000006,
      "d": 1600,
      "v": 127
    },
    {
      "midi": 71,
      "hit": false,
      "t": 139200.00000000006,
      "d": 1600,
      "v": 127
    },
    {
      "midi": 74,
      "hit": false,
      "t": 139200.00000000006,
      "d": 1600,
      "v": 127
    },
    {
      "midi": 79,
      "hit": false,
      "t": 139200.00000000006,
      "d": 1600,
      "v": 127
    },
    {
      "midi": 79,
      "hit": false,
      "t": 139733.3333333336,
      "d": 600,
      "v": 94
    },
    {
      "midi": 83,
      "hit": false,
      "t": 139800.00000000026,
      "d": 533.333333333343,
      "v": 94
    },
    {
      "midi": 86,
      "hit": false,
      "t": 139866.66666666692,
      "d": 466.66666666668607,
      "v": 94
    },
    {
      "midi": 91,
      "hit": false,
      "t": 140000.00000000026,
      "d": 400,
      "v": 94
    },
    {
      "midi": 81,
      "hit": false,
      "t": 140666.66666666692,
      "d": 1333.333333333314,
      "v": 94
    },
    {
      "midi": 85,
      "hit": false,
      "t": 140733.33333333358,
      "d": 1200,
      "v": 94
    },
    {
      "midi": 88,
      "hit": false,
      "t": 140733.33333333358,
      "d": 1266.666666666657,
      "v": 94
    },
    {
      "midi": 57,
      "hit": false,
      "t": 140800.00000000006,
      "d": 1533.333333333343,
      "v": 127
    },
    {
      "midi": 57,
      "hit": false,
      "t": 140800.00000000006,
      "d": 3200,
      "v": 127
    },
    {
      "midi": 61,
      "hit": false,
      "t": 140800.00000000006,
      "d": 3200,
      "v": 127
    },
    {
      "midi": 64,
      "hit": false,
      "t": 140800.00000000006,
      "d": 3200,
      "v": 127
    },
    {
      "midi": 69,
      "hit": false,
      "t": 140800.00000000006,
      "d": 3200,
      "v": 127
    },
    {
      "midi": 93,
      "hit": false,
      "t": 140866.66666666692,
      "d": 1066.666666666657,
      "v": 94
    },
    {
      "midi": 52,
      "hit": false,
      "t": 142400.00000000006,
      "d": 1600,
      "v": 127
    },
    {
      "midi": 45,
      "hit": false,
      "t": 144000.00000000006,
      "d": 1600,
      "v": 127
    },
    {
      "midi": 57,
      "hit": false,
      "t": 144000.00000000006,
      "d": 3200,
      "v": 127
    },
    {
      "midi": 61,
      "hit": false,
      "t": 144000.00000000006,
      "d": 3200,
      "v": 127
    },
    {
      "midi": 64,
      "hit": false,
      "t": 144000.00000000006,
      "d": 3200,
      "v": 127
    },
    {
      "midi": 69,
      "hit": false,
      "t": 144000.00000000006,
      "d": 3200,
      "v": 127
    },
    {
      "midi": 45,
      "hit": false,
      "t": 145600.00000000006,
      "d": 800,
      "v": 127
    },
    {
      "midi": 47,
      "hit": false,
      "t": 146400.00000000006,
      "d": 800,
      "v": 127
    },
    {
      "midi": 72,
      "hit": false,
      "t": 147066.6666666669,
      "d": 1266.6666666666279,
      "v": 94
    },
    {
      "midi": 76,
      "hit": false,
      "t": 147133.33333333355,
      "d": 1199.999999999971,
      "v": 94
    },
    {
      "midi": 48,
      "hit": false,
      "t": 147200.00000000006,
      "d": 800,
      "v": 127
    },
    {
      "midi": 60,
      "hit": false,
      "t": 147200.00000000006,
      "d": 800,
      "v": 127
    },
    {
      "midi": 64,
      "hit": false,
      "t": 147200.00000000006,
      "d": 800,
      "v": 127
    },
    {
      "midi": 67,
      "hit": false,
      "t": 147200.00000000006,
      "d": 800,
      "v": 127
    },
    {
      "midi": 72,
      "hit": false,
      "t": 147200.00000000006,
      "d": 800,
      "v": 127
    },
    {
      "midi": 79,
      "hit": false,
      "t": 147200.0000000002,
      "d": 1133.333333333314,
      "v": 94
    },
    {
      "midi": 84,
      "hit": false,
      "t": 147266.66666666686,
      "d": 1200,
      "v": 94
    },
    {
      "midi": 48,
      "hit": false,
      "t": 148000.00000000006,
      "d": 266.66666666665697,
      "v": 127
    },
    {
      "midi": 60,
      "hit": false,
      "t": 148000.00000000006,
      "d": 266.66666666665697,
      "v": 127
    },
    {
      "midi": 64,
      "hit": false,
      "t": 148000.00000000006,
      "d": 266.66666666665697,
      "v": 127
    },
    {
      "midi": 67,
      "hit": false,
      "t": 148000.00000000006,
      "d": 266.66666666665697,
      "v": 127
    },
    {
      "midi": 72,
      "hit": false,
      "t": 148000.00000000006,
      "d": 266.66666666665697,
      "v": 127
    },
    {
      "midi": 48,
      "hit": false,
      "t": 148266.66666666672,
      "d": 266.66666666665697,
      "v": 127
    },
    {
      "midi": 60,
      "hit": false,
      "t": 148266.66666666672,
      "d": 266.66666666665697,
      "v": 127
    },
    {
      "midi": 64,
      "hit": false,
      "t": 148266.66666666672,
      "d": 266.66666666665697,
      "v": 127
    },
    {
      "midi": 67,
      "hit": false,
      "t": 148266.66666666672,
      "d": 266.66666666665697,
      "v": 127
    },
    {
      "midi": 72,
      "hit": false,
      "t": 148266.66666666672,
      "d": 266.66666666665697,
      "v": 127
    },
    {
      "midi": 48,
      "hit": false,
      "t": 148533.33333333337,
      "d": 266.66666666665697,
      "v": 127
    },
    {
      "midi": 60,
      "hit": false,
      "t": 148533.33333333337,
      "d": 266.66666666665697,
      "v": 127
    },
    {
      "midi": 64,
      "hit": false,
      "t": 148533.33333333337,
      "d": 266.66666666665697,
      "v": 127
    },
    {
      "midi": 67,
      "hit": false,
      "t": 148533.33333333337,
      "d": 266.66666666665697,
      "v": 127
    },
    {
      "midi": 72,
      "hit": false,
      "t": 148533.33333333337,
      "d": 266.66666666665697,
      "v": 127
    },
    {
      "midi": 72,
      "hit": false,
      "t": 148600.0000000002,
      "d": 1266.666666666657,
      "v": 94
    },
    {
      "midi": 76,
      "hit": false,
      "t": 148666.66666666686,
      "d": 1200,
      "v": 94
    },
    {
      "midi": 79,
      "hit": false,
      "t": 148733.33333333352,
      "d": 1133.333333333343,
      "v": 94
    },
    {
      "midi": 48,
      "hit": false,
      "t": 148800.00000000003,
      "d": 800,
      "v": 127
    },
    {
      "midi": 60,
      "hit": false,
      "t": 148800.00000000003,
      "d": 800,
      "v": 127
    },
    {
      "midi": 64,
      "hit": false,
      "t": 148800.00000000003,
      "d": 800,
      "v": 127
    },
    {
      "midi": 67,
      "hit": false,
      "t": 148800.00000000003,
      "d": 800,
      "v": 127
    },
    {
      "midi": 72,
      "hit": false,
      "t": 148800.00000000003,
      "d": 800,
      "v": 127
    },
    {
      "midi": 84,
      "hit": false,
      "t": 148866.66666666686,
      "d": 933.333333333343,
      "v": 94
    },
    {
      "midi": 48,
      "hit": false,
      "t": 149600.00000000003,
      "d": 800,
      "v": 127
    },
    {
      "midi": 60,
      "hit": false,
      "t": 149600.00000000003,
      "d": 800,
      "v": 127
    },
    {
      "midi": 64,
      "hit": false,
      "t": 149600.00000000003,
      "d": 800,
      "v": 127
    },
    {
      "midi": 67,
      "hit": false,
      "t": 149600.00000000003,
      "d": 800,
      "v": 127
    },
    {
      "midi": 72,
      "hit": false,
      "t": 149600.00000000003,
      "d": 800,
      "v": 127
    },
    {
      "midi": 76,
      "hit": false,
      "t": 150266.66666666686,
      "d": 1066.666666666657,
      "v": 94
    },
    {
      "midi": 80,
      "hit": false,
      "t": 150333.33333333352,
      "d": 1000,
      "v": 94
    },
    {
      "midi": 52,
      "hit": false,
      "t": 150400.00000000003,
      "d": 800,
      "v": 127
    },
    {
      "midi": 64,
      "hit": false,
      "t": 150400.00000000003,
      "d": 800,
      "v": 127
    },
    {
      "midi": 68,
      "hit": false,
      "t": 150400.00000000003,
      "d": 800,
      "v": 127
    },
    {
      "midi": 71,
      "hit": false,
      "t": 150400.00000000003,
      "d": 800,
      "v": 127
    },
    {
      "midi": 76,
      "hit": false,
      "t": 150400.00000000003,
      "d": 800,
      "v": 127
    },
    {
      "midi": 83,
      "hit": false,
      "t": 150400.00000000017,
      "d": 933.333333333343,
      "v": 94
    },
    {
      "midi": 88,
      "hit": false,
      "t": 150533.33333333352,
      "d": 800,
      "v": 94
    },
    {
      "midi": 52,
      "hit": false,
      "t": 151200.00000000003,
      "d": 266.66666666665697,
      "v": 127
    },
    {
      "midi": 64,
      "hit": false,
      "t": 151200.00000000003,
      "d": 266.66666666665697,
      "v": 127
    },
    {
      "midi": 68,
      "hit": false,
      "t": 151200.00000000003,
      "d": 266.66666666665697,
      "v": 127
    },
    {
      "midi": 71,
      "hit": false,
      "t": 151200.00000000003,
      "d": 266.66666666665697,
      "v": 127
    },
    {
      "midi": 76,
      "hit": false,
      "t": 151200.00000000003,
      "d": 266.66666666665697,
      "v": 127
    },
    {
      "midi": 52,
      "hit": false,
      "t": 151466.6666666667,
      "d": 266.66666666665697,
      "v": 127
    },
    {
      "midi": 64,
      "hit": false,
      "t": 151466.6666666667,
      "d": 266.66666666665697,
      "v": 127
    },
    {
      "midi": 68,
      "hit": false,
      "t": 151466.6666666667,
      "d": 266.66666666665697,
      "v": 127
    },
    {
      "midi": 71,
      "hit": false,
      "t": 151466.6666666667,
      "d": 266.66666666665697,
      "v": 127
    },
    {
      "midi": 76,
      "hit": false,
      "t": 151466.6666666667,
      "d": 266.66666666665697,
      "v": 127
    },
    {
      "midi": 52,
      "hit": false,
      "t": 151733.33333333334,
      "d": 266.66666666665697,
      "v": 127
    },
    {
      "midi": 64,
      "hit": false,
      "t": 151733.33333333334,
      "d": 266.66666666665697,
      "v": 127
    },
    {
      "midi": 68,
      "hit": false,
      "t": 151733.33333333334,
      "d": 266.66666666665697,
      "v": 127
    },
    {
      "midi": 71,
      "hit": false,
      "t": 151733.33333333334,
      "d": 266.66666666665697,
      "v": 127
    },
    {
      "midi": 76,
      "hit": false,
      "t": 151733.33333333334,
      "d": 266.66666666665697,
      "v": 127
    },
    {
      "midi": 71,
      "hit": false,
      "t": 151866.66666666686,
      "d": 799.9999999999709,
      "v": 94
    },
    {
      "midi": 75,
      "hit": false,
      "t": 151933.33333333352,
      "d": 733.3333333333139,
      "v": 94
    },
    {
      "midi": 47,
      "hit": false,
      "t": 152000,
      "d": 800,
      "v": 127
    },
    {
      "midi": 62,
      "hit": false,
      "t": 152000,
      "d": 800,
      "v": 127
    },
    {
      "midi": 71,
      "hit": false,
      "t": 152000,
      "d": 800,
      "v": 127
    },
    {
      "midi": 74,
      "hit": false,
      "t": 152000,
      "d": 800,
      "v": 127
    },
    {
      "midi": 78,
      "hit": false,
      "t": 152000,
      "d": 800,
      "v": 127
    },
    {
      "midi": 78,
      "hit": false,
      "t": 152000.00000000017,
      "d": 666.666666666657,
      "v": 94
    },
    {
      "midi": 83,
      "hit": false,
      "t": 152066.66666666683,
      "d": 666.666666666657,
      "v": 94
    },
    {
      "midi": 47,
      "hit": false,
      "t": 152800,
      "d": 266.66666666665697,
      "v": 127
    },
    {
      "midi": 62,
      "hit": false,
      "t": 152800,
      "d": 266.66666666665697,
      "v": 127
    },
    {
      "midi": 71,
      "hit": false,
      "t": 152800,
      "d": 266.66666666665697,
      "v": 127
    },
    {
      "midi": 74,
      "hit": false,
      "t": 152800,
      "d": 266.66666666665697,
      "v": 127
    },
    {
      "midi": 78,
      "hit": false,
      "t": 152800,
      "d": 266.66666666665697,
      "v": 127
    },
    {
      "midi": 47,
      "hit": false,
      "t": 153066.66666666666,
      "d": 266.66666666665697,
      "v": 127
    },
    {
      "midi": 62,
      "hit": false,
      "t": 153066.66666666666,
      "d": 266.66666666665697,
      "v": 127
    },
    {
      "midi": 71,
      "hit": false,
      "t": 153066.66666666666,
      "d": 266.66666666665697,
      "v": 127
    },
    {
      "midi": 74,
      "hit": false,
      "t": 153066.66666666666,
      "d": 266.66666666665697,
      "v": 127
    },
    {
      "midi": 78,
      "hit": false,
      "t": 153066.66666666666,
      "d": 266.66666666665697,
      "v": 127
    },
    {
      "midi": 47,
      "hit": false,
      "t": 153333.3333333333,
      "d": 266.66666666665697,
      "v": 127
    },
    {
      "midi": 62,
      "hit": false,
      "t": 153333.3333333333,
      "d": 266.66666666665697,
      "v": 127
    },
    {
      "midi": 71,
      "hit": false,
      "t": 153333.3333333333,
      "d": 266.66666666665697,
      "v": 127
    },
    {
      "midi": 74,
      "hit": false,
      "t": 153333.3333333333,
      "d": 266.66666666665697,
      "v": 127
    },
    {
      "midi": 78,
      "hit": false,
      "t": 153333.3333333333,
      "d": 266.66666666665697,
      "v": 127
    },
    {
      "midi": 76,
      "hit": false,
      "t": 153466.66666666683,
      "d": 2066.666666666657,
      "v": 94
    },
    {
      "midi": 52,
      "hit": false,
      "t": 153599.99999999997,
      "d": 800,
      "v": 127
    },
    {
      "midi": 64,
      "hit": false,
      "t": 153599.99999999997,
      "d": 3200,
      "v": 127
    },
    {
      "midi": 68,
      "hit": false,
      "t": 153599.99999999997,
      "d": 3200,
      "v": 127
    },
    {
      "midi": 71,
      "hit": false,
      "t": 153599.99999999997,
      "d": 3200,
      "v": 127
    },
    {
      "midi": 76,
      "hit": false,
      "t": 153599.99999999997,
      "d": 3200,
      "v": 127
    },
    {
      "midi": 80,
      "hit": false,
      "t": 153600.00000000017,
      "d": 1999.999999999971,
      "v": 94
    },
    {
      "midi": 83,
      "hit": false,
      "t": 153666.66666666683,
      "d": 1933.333333333314,
      "v": 94
    },
    {
      "midi": 88,
      "hit": false,
      "t": 153666.66666666683,
      "d": 1933.333333333314,
      "v": 94
    },
    {
      "midi": 52,
      "hit": false,
      "t": 154399.99999999997,
      "d": 800,
      "v": 127
    },
    {
      "midi": 56,
      "hit": false,
      "t": 155166.66666666663,
      "d": 800,
      "v": 127
    },
    {
      "midi": 59,
      "hit": false,
      "t": 155979.99999999997,
      "d": 800,
      "v": 127
    },
    {
      "midi": 95,
      "hit": false,
      "t": 156666.6666666668,
      "d": 2066.666666666628,
      "v": 94
    },
    {
      "midi": 92,
      "hit": false,
      "t": 156733.33333333346,
      "d": 1999.999999999971,
      "v": 94
    },
    {
      "midi": 52,
      "hit": false,
      "t": 156799.99999999997,
      "d": 253.33333333334303,
      "v": 127
    },
    {
      "midi": 64,
      "hit": false,
      "t": 156799.99999999997,
      "d": 200,
      "v": 127
    },
    {
      "midi": 68,
      "hit": false,
      "t": 156799.99999999997,
      "d": 200,
      "v": 127
    },
    {
      "midi": 71,
      "hit": false,
      "t": 156799.99999999997,
      "d": 200,
      "v": 127
    },
    {
      "midi": 76,
      "hit": false,
      "t": 156799.99999999997,
      "d": 200,
      "v": 127
    },
    {
      "midi": 83,
      "hit": false,
      "t": 156800.00000000012,
      "d": 1933.333333333314,
      "v": 94
    },
    {
      "midi": 88,
      "hit": false,
      "t": 156800.00000000012,
      "d": 1999.999999999971,
      "v": 94
    },
    {
      "midi": 76,
      "hit": false,
      "t": 156866.66666666677,
      "d": 1866.666666666657,
      "v": 94
    },
    {
      "midi": 80,
      "hit": false,
      "t": 156866.66666666677,
      "d": 1866.666666666657,
      "v": 94
    },
    {
      "midi": 57,
      "hit": false,
      "t": 159999.99999999997,
      "d": 1600,
      "v": 94
    },
    {
      "midi": 69,
      "hit": false,
      "t": 159999.99999999997,
      "d": 1600,
      "v": 127
    },
    {
      "midi": 73,
      "hit": false,
      "t": 159999.99999999997,
      "d": 1600,
      "v": 127
    },
    {
      "midi": 76,
      "hit": false,
      "t": 159999.99999999997,
      "d": 1600,
      "v": 127
    },
    {
      "midi": 81,
      "hit": false,
      "t": 159999.99999999997,
      "d": 1600,
      "v": 127
    },
    {
      "midi": 81,
      "hit": false,
      "t": 160600.0000000001,
      "d": 1000,
      "v": 94
    },
    {
      "midi": 85,
      "hit": false,
      "t": 160666.66666666674,
      "d": 933.333333333343,
      "v": 94
    },
    {
      "midi": 88,
      "hit": false,
      "t": 160800.0000000001,
      "d": 800,
      "v": 94
    },
    {
      "midi": 93,
      "hit": false,
      "t": 160866.66666666674,
      "d": 733.333333333343,
      "v": 94
    },
    {
      "midi": 52,
      "hit": false,
      "t": 161599.99999999997,
      "d": 1600,
      "v": 94
    },
    {
      "midi": 68,
      "hit": false,
      "t": 161599.99999999997,
      "d": 1600,
      "v": 127
    },
    {
      "midi": 73,
      "hit": false,
      "t": 161599.99999999997,
      "d": 1600,
      "v": 127
    },
    {
      "midi": 76,
      "hit": false,
      "t": 161599.99999999997,
      "d": 1600,
      "v": 127
    },
    {
      "midi": 80,
      "hit": false,
      "t": 161599.99999999997,
      "d": 1600,
      "v": 127
    },
    {
      "midi": 80,
      "hit": false,
      "t": 162200.0000000001,
      "d": 866.666666666657,
      "v": 94
    },
    {
      "midi": 85,
      "hit": false,
      "t": 162333.33333333343,
      "d": 799.9999999999709,
      "v": 94
    },
    {
      "midi": 88,
      "hit": false,
      "t": 162400.0000000001,
      "d": 733.3333333333139,
      "v": 94
    },
    {
      "midi": 92,
      "hit": false,
      "t": 162466.66666666674,
      "d": 666.666666666657,
      "v": 94
    },
    {
      "midi": 50,
      "hit": false,
      "t": 163199.99999999997,
      "d": 1600,
      "v": 94
    },
    {
      "midi": 62,
      "hit": false,
      "t": 163199.99999999997,
      "d": 1600,
      "v": 127
    },
    {
      "midi": 66,
      "hit": false,
      "t": 163199.99999999997,
      "d": 1600,
      "v": 127
    },
    {
      "midi": 69,
      "hit": false,
      "t": 163199.99999999997,
      "d": 1600,
      "v": 127
    },
    {
      "midi": 74,
      "hit": false,
      "t": 163199.99999999997,
      "d": 1600,
      "v": 127
    },
    {
      "midi": 74,
      "hit": false,
      "t": 163800.00000000006,
      "d": 800,
      "v": 94
    },
    {
      "midi": 78,
      "hit": false,
      "t": 163866.66666666672,
      "d": 800,
      "v": 94
    },
    {
      "midi": 81,
      "hit": false,
      "t": 163933.33333333337,
      "d": 733.333333333343,
      "v": 94
    },
    {
      "midi": 86,
      "hit": false,
      "t": 164066.66666666672,
      "d": 800,
      "v": 94
    },
    {
      "midi": 52,
      "hit": false,
      "t": 164799.99999999997,
      "d": 1600,
      "v": 94
    },
    {
      "midi": 64,
      "hit": false,
      "t": 164799.99999999997,
      "d": 1600,
      "v": 127
    },
    {
      "midi": 68,
      "hit": false,
      "t": 164799.99999999997,
      "d": 1600,
      "v": 127
    },
    {
      "midi": 71,
      "hit": false,
      "t": 164799.99999999997,
      "d": 1600,
      "v": 127
    },
    {
      "midi": 76,
      "hit": false,
      "t": 164799.99999999997,
      "d": 1600,
      "v": 127
    },
    {
      "midi": 76,
      "hit": false,
      "t": 165400.00000000006,
      "d": 999.9999999999709,
      "v": 94
    },
    {
      "midi": 80,
      "hit": false,
      "t": 165466.66666666672,
      "d": 866.666666666657,
      "v": 94
    },
    {
      "midi": 83,
      "hit": false,
      "t": 165533.33333333337,
      "d": 866.666666666657,
      "v": 94
    },
    {
      "midi": 88,
      "hit": false,
      "t": 165666.66666666672,
      "d": 666.666666666657,
      "v": 94
    },
    {
      "midi": 45,
      "hit": false,
      "t": 166399.99999999997,
      "d": 1600,
      "v": 94
    },
    {
      "midi": 69,
      "hit": false,
      "t": 166399.99999999997,
      "d": 1600,
      "v": 127
    },
    {
      "midi": 73,
      "hit": false,
      "t": 166399.99999999997,
      "d": 1600,
      "v": 127
    },
    {
      "midi": 76,
      "hit": false,
      "t": 166399.99999999997,
      "d": 1600,
      "v": 127
    },
    {
      "midi": 81,
      "hit": false,
      "t": 166399.99999999997,
      "d": 1600,
      "v": 127
    },
    {
      "midi": 81,
      "hit": false,
      "t": 167000.00000000003,
      "d": 1000,
      "v": 94
    },
    {
      "midi": 85,
      "hit": false,
      "t": 167066.6666666667,
      "d": 933.333333333343,
      "v": 94
    },
    {
      "midi": 88,
      "hit": false,
      "t": 167200.00000000003,
      "d": 800,
      "v": 94
    },
    {
      "midi": 93,
      "hit": false,
      "t": 167266.6666666667,
      "d": 733.333333333343,
      "v": 94
    },
    {
      "midi": 52,
      "hit": false,
      "t": 167999.99999999997,
      "d": 1600,
      "v": 94
    },
    {
      "midi": 68,
      "hit": false,
      "t": 167999.99999999997,
      "d": 1600,
      "v": 127
    },
    {
      "midi": 73,
      "hit": false,
      "t": 167999.99999999997,
      "d": 1600,
      "v": 127
    },
    {
      "midi": 76,
      "hit": false,
      "t": 167999.99999999997,
      "d": 1600,
      "v": 127
    },
    {
      "midi": 80,
      "hit": false,
      "t": 167999.99999999997,
      "d": 1600,
      "v": 127
    },
    {
      "midi": 80,
      "hit": false,
      "t": 168600.00000000003,
      "d": 866.666666666657,
      "v": 94
    },
    {
      "midi": 85,
      "hit": false,
      "t": 168733.33333333337,
      "d": 799.9999999999709,
      "v": 94
    },
    {
      "midi": 88,
      "hit": false,
      "t": 168800.00000000003,
      "d": 733.3333333333139,
      "v": 94
    },
    {
      "midi": 92,
      "hit": false,
      "t": 168866.6666666667,
      "d": 666.666666666657,
      "v": 94
    },
    {
      "midi": 50,
      "hit": false,
      "t": 169599.99999999997,
      "d": 1600,
      "v": 94
    },
    {
      "midi": 62,
      "hit": false,
      "t": 169599.99999999997,
      "d": 1600,
      "v": 127
    },
    {
      "midi": 66,
      "hit": false,
      "t": 169599.99999999997,
      "d": 1600,
      "v": 127
    },
    {
      "midi": 69,
      "hit": false,
      "t": 169599.99999999997,
      "d": 1600,
      "v": 127
    },
    {
      "midi": 74,
      "hit": false,
      "t": 169599.99999999997,
      "d": 1600,
      "v": 127
    },
    {
      "midi": 74,
      "hit": false,
      "t": 170200,
      "d": 800,
      "v": 94
    },
    {
      "midi": 78,
      "hit": false,
      "t": 170266.66666666666,
      "d": 800,
      "v": 94
    },
    {
      "midi": 81,
      "hit": false,
      "t": 170333.3333333333,
      "d": 733.333333333343,
      "v": 94
    },
    {
      "midi": 86,
      "hit": false,
      "t": 170466.66666666666,
      "d": 800,
      "v": 94
    },
    {
      "midi": 52,
      "hit": false,
      "t": 171199.99999999997,
      "d": 1600,
      "v": 94
    },
    {
      "midi": 64,
      "hit": false,
      "t": 171199.99999999997,
      "d": 1600,
      "v": 127
    },
    {
      "midi": 68,
      "hit": false,
      "t": 171199.99999999997,
      "d": 1600,
      "v": 127
    },
    {
      "midi": 71,
      "hit": false,
      "t": 171199.99999999997,
      "d": 1600,
      "v": 127
    },
    {
      "midi": 76,
      "hit": false,
      "t": 171199.99999999997,
      "d": 1600,
      "v": 127
    },
    {
      "midi": 76,
      "hit": false,
      "t": 171800,
      "d": 999.9999999999709,
      "v": 94
    },
    {
      "midi": 80,
      "hit": false,
      "t": 171866.66666666666,
      "d": 866.666666666657,
      "v": 94
    },
    {
      "midi": 83,
      "hit": false,
      "t": 171933.3333333333,
      "d": 866.666666666657,
      "v": 94
    },
    {
      "midi": 88,
      "hit": false,
      "t": 172066.66666666666,
      "d": 666.666666666657,
      "v": 94
    },
    {
      "midi": 57,
      "hit": false,
      "t": 172799.99999999997,
      "d": 1600,
      "v": 94
    },
    {
      "midi": 69,
      "hit": false,
      "t": 172799.99999999997,
      "d": 1600,
      "v": 127
    },
    {
      "midi": 73,
      "hit": false,
      "t": 172799.99999999997,
      "d": 1600,
      "v": 127
    },
    {
      "midi": 76,
      "hit": false,
      "t": 172799.99999999997,
      "d": 1600,
      "v": 127
    },
    {
      "midi": 81,
      "hit": false,
      "t": 172799.99999999997,
      "d": 1600,
      "v": 127
    },
    {
      "midi": 81,
      "hit": false,
      "t": 173399.99999999997,
      "d": 933.3333333333139,
      "v": 94
    },
    {
      "midi": 85,
      "hit": false,
      "t": 173466.66666666663,
      "d": 866.666666666657,
      "v": 94
    },
    {
      "midi": 88,
      "hit": false,
      "t": 173533.33333333328,
      "d": 866.666666666657,
      "v": 94
    },
    {
      "midi": 93,
      "hit": false,
      "t": 173666.66666666663,
      "d": 733.3333333333139,
      "v": 94
    },
    {
      "midi": 54,
      "hit": false,
      "t": 174399.99999999997,
      "d": 1600,
      "v": 94
    },
    {
      "midi": 66,
      "hit": false,
      "t": 174399.99999999997,
      "d": 1600,
      "v": 127
    },
    {
      "midi": 69,
      "hit": false,
      "t": 174399.99999999997,
      "d": 1600,
      "v": 127
    },
    {
      "midi": 73,
      "hit": false,
      "t": 174399.99999999997,
      "d": 1600,
      "v": 127
    },
    {
      "midi": 78,
      "hit": false,
      "t": 174399.99999999997,
      "d": 1600,
      "v": 127
    },
    {
      "midi": 78,
      "hit": false,
      "t": 174999.99999999994,
      "d": 1133.333333333314,
      "v": 94
    },
    {
      "midi": 81,
      "hit": false,
      "t": 175066.6666666666,
      "d": 1000,
      "v": 94
    },
    {
      "midi": 85,
      "hit": false,
      "t": 175199.99999999994,
      "d": 866.666666666657,
      "v": 94
    },
    {
      "midi": 90,
      "hit": false,
      "t": 175266.6666666666,
      "d": 800,
      "v": 94
    },
    {
      "midi": 47,
      "hit": false,
      "t": 175999.99999999997,
      "d": 1600,
      "v": 94
    },
    {
      "midi": 71,
      "hit": false,
      "t": 175999.99999999997,
      "d": 1600,
      "v": 127
    },
    {
      "midi": 74,
      "hit": false,
      "t": 175999.99999999997,
      "d": 1600,
      "v": 127
    },
    {
      "midi": 78,
      "hit": false,
      "t": 175999.99999999997,
      "d": 1600,
      "v": 127
    },
    {
      "midi": 83,
      "hit": false,
      "t": 175999.99999999997,
      "d": 1600,
      "v": 127
    },
    {
      "midi": 83,
      "hit": false,
      "t": 176599.9999999999,
      "d": 733.333333333343,
      "v": 94
    },
    {
      "midi": 86,
      "hit": false,
      "t": 176733.33333333326,
      "d": 600,
      "v": 94
    },
    {
      "midi": 90,
      "hit": false,
      "t": 176733.33333333326,
      "d": 600,
      "v": 94
    },
    {
      "midi": 95,
      "hit": false,
      "t": 176866.6666666666,
      "d": 933.3333333333139,
      "v": 94
    },
    {
      "midi": 52,
      "hit": false,
      "t": 177599.99999999997,
      "d": 1600,
      "v": 94
    },
    {
      "midi": 64,
      "hit": false,
      "t": 177599.99999999997,
      "d": 1600,
      "v": 127
    },
    {
      "midi": 68,
      "hit": false,
      "t": 177599.99999999997,
      "d": 1600,
      "v": 127
    },
    {
      "midi": 71,
      "hit": false,
      "t": 177599.99999999997,
      "d": 1600,
      "v": 127
    },
    {
      "midi": 76,
      "hit": false,
      "t": 177599.99999999997,
      "d": 1600,
      "v": 127
    },
    {
      "midi": 76,
      "hit": false,
      "t": 178133.33333333326,
      "d": 733.3333333333139,
      "v": 94
    },
    {
      "midi": 80,
      "hit": false,
      "t": 178266.6666666666,
      "d": 599.9999999999709,
      "v": 94
    },
    {
      "midi": 83,
      "hit": false,
      "t": 178333.33333333326,
      "d": 599.9999999999709,
      "v": 94
    },
    {
      "midi": 88,
      "hit": false,
      "t": 178399.9999999999,
      "d": 799.9999999999709,
      "v": 94
    },
    {
      "midi": 45,
      "hit": false,
      "t": 179199.99999999997,
      "d": 1600,
      "v": 127
    },
    {
      "midi": 69,
      "hit": false,
      "t": 179199.99999999997,
      "d": 1600,
      "v": 127
    },
    {
      "midi": 73,
      "hit": false,
      "t": 179199.99999999997,
      "d": 1600,
      "v": 127
    },
    {
      "midi": 76,
      "hit": false,
      "t": 179199.99999999997,
      "d": 1600,
      "v": 127
    },
    {
      "midi": 81,
      "hit": false,
      "t": 179199.99999999997,
      "d": 1600,
      "v": 127
    },
    {
      "midi": 81,
      "hit": false,
      "t": 179733.33333333323,
      "d": 733.333333333343,
      "v": 94
    },
    {
      "midi": 85,
      "hit": false,
      "t": 179866.66666666657,
      "d": 600,
      "v": 94
    },
    {
      "midi": 88,
      "hit": false,
      "t": 179866.66666666657,
      "d": 600,
      "v": 94
    },
    {
      "midi": 93,
      "hit": false,
      "t": 179999.9999999999,
      "d": 933.3333333333139,
      "v": 94
    },
    {
      "midi": 50,
      "hit": false,
      "t": 180799.99999999997,
      "d": 1600,
      "v": 127
    },
    {
      "midi": 62,
      "hit": false,
      "t": 180799.99999999997,
      "d": 1600,
      "v": 127
    },
    {
      "midi": 66,
      "hit": false,
      "t": 180799.99999999997,
      "d": 1600,
      "v": 127
    },
    {
      "midi": 69,
      "hit": false,
      "t": 180799.99999999997,
      "d": 1600,
      "v": 127
    },
    {
      "midi": 74,
      "hit": false,
      "t": 180799.99999999997,
      "d": 1600,
      "v": 127
    },
    {
      "midi": 74,
      "hit": false,
      "t": 181333.33333333323,
      "d": 733.3333333333139,
      "v": 94
    },
    {
      "midi": 78,
      "hit": false,
      "t": 181399.99999999988,
      "d": 666.666666666657,
      "v": 94
    },
    {
      "midi": 81,
      "hit": false,
      "t": 181466.66666666654,
      "d": 666.666666666657,
      "v": 94
    },
    {
      "midi": 86,
      "hit": false,
      "t": 181599.99999999988,
      "d": 666.6666666666279,
      "v": 94
    },
    {
      "midi": 81,
      "hit": false,
      "t": 182199.99999999985,
      "d": 600,
      "v": 94
    },
    {
      "midi": 85,
      "hit": false,
      "t": 182266.6666666665,
      "d": 533.333333333343,
      "v": 94
    },
    {
      "midi": 88,
      "hit": false,
      "t": 182333.33333333317,
      "d": 466.66666666668607,
      "v": 94
    },
    {
      "midi": 45,
      "hit": false,
      "t": 182399.99999999997,
      "d": 800,
      "v": 127
    },
    {
      "midi": 69,
      "hit": false,
      "t": 182399.99999999997,
      "d": 800,
      "v": 127
    },
    {
      "midi": 73,
      "hit": false,
      "t": 182399.99999999997,
      "d": 800,
      "v": 127
    },
    {
      "midi": 76,
      "hit": false,
      "t": 182399.99999999997,
      "d": 800,
      "v": 127
    },
    {
      "midi": 81,
      "hit": false,
      "t": 182399.99999999997,
      "d": 800,
      "v": 127
    },
    {
      "midi": 93,
      "hit": false,
      "t": 182466.6666666665,
      "d": 400,
      "v": 94
    },
    {
      "midi": 81,
      "hit": false,
      "t": 182999.99999999985,
      "d": 733.3333333333139,
      "v": 94
    },
    {
      "midi": 85,
      "hit": false,
      "t": 183066.6666666665,
      "d": 666.666666666657,
      "v": 94
    },
    {
      "midi": 88,
      "hit": false,
      "t": 183133.33333333317,
      "d": 600,
      "v": 94
    },
    {
      "midi": 57,
      "hit": false,
      "t": 183199.99999999997,
      "d": 800,
      "v": 127
    },
    {
      "midi": 69,
      "hit": false,
      "t": 183199.99999999997,
      "d": 800,
      "v": 127
    },
    {
      "midi": 73,
      "hit": false,
      "t": 183199.99999999997,
      "d": 800,
      "v": 127
    },
    {
      "midi": 76,
      "hit": false,
      "t": 183199.99999999997,
      "d": 800,
      "v": 127
    },
    {
      "midi": 81,
      "hit": false,
      "t": 183199.99999999997,
      "d": 800,
      "v": 127
    },
    {
      "midi": 93,
      "hit": false,
      "t": 183266.6666666665,
      "d": 466.66666666665697,
      "v": 94
    },
    {
      "midi": 80,
      "hit": false,
      "t": 183733.33333333317,
      "d": 600.0000000000291,
      "v": 94
    },
    {
      "midi": 85,
      "hit": false,
      "t": 183866.6666666665,
      "d": 466.66666666668607,
      "v": 94
    },
    {
      "midi": 88,
      "hit": false,
      "t": 183866.6666666665,
      "d": 466.66666666668607,
      "v": 94
    },
    {
      "midi": 92,
      "hit": false,
      "t": 183999.99999999985,
      "d": 400,
      "v": 94
    },
    {
      "midi": 56,
      "hit": false,
      "t": 183999.99999999997,
      "d": 800,
      "v": 127
    },
    {
      "midi": 68,
      "hit": false,
      "t": 183999.99999999997,
      "d": 800,
      "v": 127
    },
    {
      "midi": 73,
      "hit": false,
      "t": 183999.99999999997,
      "d": 800,
      "v": 127
    },
    {
      "midi": 76,
      "hit": false,
      "t": 183999.99999999997,
      "d": 800,
      "v": 127
    },
    {
      "midi": 80,
      "hit": false,
      "t": 183999.99999999997,
      "d": 800,
      "v": 127
    },
    {
      "midi": 78,
      "hit": false,
      "t": 184599.99999999985,
      "d": 666.6666666666279,
      "v": 94
    },
    {
      "midi": 81,
      "hit": false,
      "t": 184666.6666666665,
      "d": 533.3333333333139,
      "v": 94
    },
    {
      "midi": 85,
      "hit": false,
      "t": 184733.33333333317,
      "d": 533.3333333333139,
      "v": 94
    },
    {
      "midi": 90,
      "hit": false,
      "t": 184799.99999999983,
      "d": 400,
      "v": 94
    },
    {
      "midi": 54,
      "hit": false,
      "t": 184799.99999999997,
      "d": 800,
      "v": 127
    },
    {
      "midi": 66,
      "hit": false,
      "t": 184799.99999999997,
      "d": 800,
      "v": 127
    },
    {
      "midi": 69,
      "hit": false,
      "t": 184799.99999999997,
      "d": 800,
      "v": 127
    },
    {
      "midi": 73,
      "hit": false,
      "t": 184799.99999999997,
      "d": 800,
      "v": 127
    },
    {
      "midi": 78,
      "hit": false,
      "t": 184799.99999999997,
      "d": 800,
      "v": 127
    },
    {
      "midi": 81,
      "hit": false,
      "t": 185399.99999999983,
      "d": 933.3333333333139,
      "v": 94
    },
    {
      "midi": 85,
      "hit": false,
      "t": 185466.66666666648,
      "d": 866.666666666657,
      "v": 94
    },
    {
      "midi": 88,
      "hit": false,
      "t": 185533.33333333314,
      "d": 800,
      "v": 94
    },
    {
      "midi": 52,
      "hit": false,
      "t": 185599.99999999997,
      "d": 1600,
      "v": 127
    },
    {
      "midi": 64,
      "hit": false,
      "t": 185599.99999999997,
      "d": 1600,
      "v": 127
    },
    {
      "midi": 69,
      "hit": false,
      "t": 185599.99999999997,
      "d": 1600,
      "v": 127
    },
    {
      "midi": 73,
      "hit": false,
      "t": 185599.99999999997,
      "d": 1600,
      "v": 127
    },
    {
      "midi": 76,
      "hit": false,
      "t": 185599.99999999997,
      "d": 1600,
      "v": 127
    },
    {
      "midi": 81,
      "hit": false,
      "t": 185599.99999999997,
      "d": 1600,
      "v": 127
    },
    {
      "midi": 93,
      "hit": false,
      "t": 185666.66666666648,
      "d": 666.666666666657,
      "v": 94
    },
    {
      "midi": 78,
      "hit": false,
      "t": 186933.33333333314,
      "d": 1066.666666666686,
      "v": 94
    },
    {
      "midi": 81,
      "hit": false,
      "t": 187066.66666666648,
      "d": 933.333333333343,
      "v": 94
    },
    {
      "midi": 85,
      "hit": false,
      "t": 187133.33333333314,
      "d": 866.6666666666861,
      "v": 94
    },
    {
      "midi": 54,
      "hit": false,
      "t": 187199.99999999997,
      "d": 1600,
      "v": 127
    },
    {
      "midi": 66,
      "hit": false,
      "t": 187199.99999999997,
      "d": 1600,
      "v": 127
    },
    {
      "midi": 69,
      "hit": false,
      "t": 187199.99999999997,
      "d": 1600,
      "v": 127
    },
    {
      "midi": 73,
      "hit": false,
      "t": 187199.99999999997,
      "d": 1600,
      "v": 127
    },
    {
      "midi": 78,
      "hit": false,
      "t": 187199.99999999997,
      "d": 1600,
      "v": 127
    },
    {
      "midi": 90,
      "hit": false,
      "t": 187266.66666666648,
      "d": 733.333333333343,
      "v": 94
    },
    {
      "midi": 74,
      "hit": false,
      "t": 188466.66666666648,
      "d": 1066.666666666686,
      "v": 94
    },
    {
      "midi": 78,
      "hit": false,
      "t": 188599.99999999983,
      "d": 1000,
      "v": 94
    },
    {
      "midi": 81,
      "hit": false,
      "t": 188666.66666666648,
      "d": 933.333333333343,
      "v": 94
    },
    {
      "midi": 86,
      "hit": false,
      "t": 188799.99999999983,
      "d": 866.666666666657,
      "v": 94
    },
    {
      "midi": 57,
      "hit": false,
      "t": 188799.99999999997,
      "d": 1600,
      "v": 127
    },
    {
      "midi": 69,
      "hit": false,
      "t": 188799.99999999997,
      "d": 1600,
      "v": 127
    },
    {
      "midi": 74,
      "hit": false,
      "t": 188799.99999999997,
      "d": 1600,
      "v": 127
    },
    {
      "midi": 78,
      "hit": false,
      "t": 188799.99999999997,
      "d": 1600,
      "v": 127
    },
    {
      "midi": 81,
      "hit": false,
      "t": 188799.99999999997,
      "d": 1600,
      "v": 127
    },
    {
      "midi": 86,
      "hit": false,
      "t": 188799.99999999997,
      "d": 1600,
      "v": 127
    },
    {
      "midi": 76,
      "hit": false,
      "t": 190133.33333333314,
      "d": 1266.666666666657,
      "v": 94
    },
    {
      "midi": 80,
      "hit": false,
      "t": 190199.9999999998,
      "d": 1133.333333333343,
      "v": 94
    },
    {
      "midi": 83,
      "hit": false,
      "t": 190266.66666666645,
      "d": 1133.333333333343,
      "v": 94
    },
    {
      "midi": 88,
      "hit": false,
      "t": 190399.9999999998,
      "d": 933.333333333343,
      "v": 94
    },
    {
      "midi": 59,
      "hit": false,
      "t": 190399.99999999997,
      "d": 1600,
      "v": 127
    },
    {
      "midi": 71,
      "hit": false,
      "t": 190399.99999999997,
      "d": 1600,
      "v": 127
    },
    {
      "midi": 76,
      "hit": false,
      "t": 190399.99999999997,
      "d": 1600,
      "v": 127
    },
    {
      "midi": 80,
      "hit": false,
      "t": 190399.99999999997,
      "d": 1600,
      "v": 127
    },
    {
      "midi": 83,
      "hit": false,
      "t": 190399.99999999997,
      "d": 1600,
      "v": 127
    },
    {
      "midi": 88,
      "hit": false,
      "t": 190399.99999999997,
      "d": 1600,
      "v": 127
    },
    {
      "midi": 81,
      "hit": false,
      "t": 191733.33333333314,
      "d": 866.666666666657,
      "v": 94
    },
    {
      "midi": 85,
      "hit": false,
      "t": 191799.9999999998,
      "d": 800,
      "v": 94
    },
    {
      "midi": 88,
      "hit": false,
      "t": 191866.66666666645,
      "d": 733.333333333343,
      "v": 94
    },
    {
      "midi": 93,
      "hit": false,
      "t": 191999.9999999998,
      "d": 866.666666666657,
      "v": 94
    },
    {
      "midi": 57,
      "hit": false,
      "t": 191999.99999999997,
      "d": 1600,
      "v": 127
    },
    {
      "midi": 57,
      "hit": false,
      "t": 191999.99999999997,
      "d": 1600,
      "v": 127
    },
    {
      "midi": 61,
      "hit": false,
      "t": 191999.99999999997,
      "d": 1600,
      "v": 127
    },
    {
      "midi": 64,
      "hit": false,
      "t": 191999.99999999997,
      "d": 1600,
      "v": 127
    },
    {
      "midi": 69,
      "hit": false,
      "t": 191999.99999999997,
      "d": 1600,
      "v": 127
    },
    {
      "midi": 74,
      "hit": false,
      "t": 193333.3333333331,
      "d": 1066.666666666657,
      "v": 94
    },
    {
      "midi": 77,
      "hit": false,
      "t": 193399.99999999977,
      "d": 1000,
      "v": 94
    },
    {
      "midi": 81,
      "hit": false,
      "t": 193466.66666666642,
      "d": 933.333333333343,
      "v": 94
    },
    {
      "midi": 86,
      "hit": false,
      "t": 193599.99999999977,
      "d": 866.666666666657,
      "v": 94
    },
    {
      "midi": 53,
      "hit": false,
      "t": 193599.99999999997,
      "d": 1600,
      "v": 127
    },
    {
      "midi": 77,
      "hit": false,
      "t": 193599.99999999997,
      "d": 800,
      "v": 127
    },
    {
      "midi": 62,
      "hit": false,
      "t": 193599.99999999997,
      "d": 1600,
      "v": 127
    },
    {
      "midi": 65,
      "hit": false,
      "t": 193599.99999999997,
      "d": 1600,
      "v": 127
    },
    {
      "midi": 69,
      "hit": false,
      "t": 193599.99999999997,
      "d": 1600,
      "v": 127
    },
    {
      "midi": 74,
      "hit": false,
      "t": 193599.99999999997,
      "d": 1600,
      "v": 127
    },
    {
      "midi": 79,
      "hit": false,
      "t": 194933.33333333308,
      "d": 933.3333333333139,
      "v": 94
    },
    {
      "midi": 83,
      "hit": false,
      "t": 194999.99999999974,
      "d": 933.3333333333139,
      "v": 94
    },
    {
      "midi": 86,
      "hit": false,
      "t": 195066.6666666664,
      "d": 866.666666666657,
      "v": 94
    },
    {
      "midi": 55,
      "hit": false,
      "t": 195199.99999999997,
      "d": 1600,
      "v": 127
    },
    {
      "midi": 67,
      "hit": false,
      "t": 195199.99999999997,
      "d": 1600,
      "v": 127
    },
    {
      "midi": 71,
      "hit": false,
      "t": 195199.99999999997,
      "d": 1600,
      "v": 127
    },
    {
      "midi": 74,
      "hit": false,
      "t": 195199.99999999997,
      "d": 1600,
      "v": 127
    },
    {
      "midi": 79,
      "hit": false,
      "t": 195199.99999999997,
      "d": 1600,
      "v": 127
    },
    {
      "midi": 91,
      "hit": false,
      "t": 195266.6666666664,
      "d": 866.666666666657,
      "v": 94
    },
    {
      "midi": 76,
      "hit": false,
      "t": 196533.33333333305,
      "d": 1066.666666666657,
      "v": 94
    },
    {
      "midi": 80,
      "hit": false,
      "t": 196599.9999999997,
      "d": 933.333333333343,
      "v": 94
    },
    {
      "midi": 83,
      "hit": false,
      "t": 196666.66666666637,
      "d": 866.6666666666861,
      "v": 94
    },
    {
      "midi": 88,
      "hit": false,
      "t": 196799.9999999997,
      "d": 866.666666666657,
      "v": 94
    },
    {
      "midi": 52,
      "hit": false,
      "t": 196799.99999999997,
      "d": 1600,
      "v": 127
    },
    {
      "midi": 64,
      "hit": false,
      "t": 196799.99999999997,
      "d": 1600,
      "v": 127
    },
    {
      "midi": 68,
      "hit": false,
      "t": 196799.99999999997,
      "d": 1600,
      "v": 127
    },
    {
      "midi": 71,
      "hit": false,
      "t": 196799.99999999997,
      "d": 1600,
      "v": 127
    },
    {
      "midi": 76,
      "hit": false,
      "t": 196799.99999999997,
      "d": 1600,
      "v": 127
    },
    {
      "midi": 81,
      "hit": false,
      "t": 198133.33333333302,
      "d": 866.6666666666861,
      "v": 94
    },
    {
      "midi": 85,
      "hit": false,
      "t": 198199.99999999968,
      "d": 800.0000000000291,
      "v": 94
    },
    {
      "midi": 88,
      "hit": false,
      "t": 198333.33333333302,
      "d": 666.6666666666861,
      "v": 94
    },
    {
      "midi": 57,
      "hit": false,
      "t": 198399.99999999997,
      "d": 1600,
      "v": 127
    },
    {
      "midi": 57,
      "hit": false,
      "t": 198399.99999999997,
      "d": 9600,
      "v": 127
    },
    {
      "midi": 61,
      "hit": false,
      "t": 198399.99999999997,
      "d": 9600,
      "v": 127
    },
    {
      "midi": 64,
      "hit": false,
      "t": 198399.99999999997,
      "d": 9600,
      "v": 127
    },
    {
      "midi": 69,
      "hit": false,
      "t": 198399.99999999997,
      "d": 9600,
      "v": 127
    },
    {
      "midi": 93,
      "hit": false,
      "t": 198466.66666666637,
      "d": 866.6666666666861,
      "v": 94
    },
    {
      "midi": 74,
      "hit": false,
      "t": 199733.33333333305,
      "d": 933.333333333343,
      "v": 94
    },
    {
      "midi": 78,
      "hit": false,
      "t": 199866.6666666664,
      "d": 800,
      "v": 94
    },
    {
      "midi": 81,
      "hit": false,
      "t": 199933.33333333305,
      "d": 733.333333333343,
      "v": 94
    },
    {
      "midi": 50,
      "hit": false,
      "t": 199999.99999999997,
      "d": 1600.0000000001746,
      "v": 127
    },
    {
      "midi": 86,
      "hit": false,
      "t": 200066.6666666664,
      "d": 733.333333333343,
      "v": 94
    },
    {
      "midi": 81,
      "hit": false,
      "t": 201266.6666666664,
      "d": 2400,
      "v": 94
    },
    {
      "midi": 85,
      "hit": false,
      "t": 201399.99999999974,
      "d": 2200,
      "v": 94
    },
    {
      "midi": 88,
      "hit": false,
      "t": 201533.33333333308,
      "d": 2133.333333333314,
      "v": 94
    },
    {
      "midi": 93,
      "hit": false,
      "t": 201599.99999999974,
      "d": 2133.333333333314,
      "v": 94
    },
    {
      "midi": 47,
      "hit": false,
      "t": 201600.00000000015,
      "d": 4006.666666666657,
      "v": 127
    }
  ]
}