{
  "jsonPath": "Rock/Country Rock/Restless Heart/you-can-depend-on-me.json",
  "path": "Rock\\Country Rock\\Restless Heart\\You Can Depend On Me.mid",
  "name": "You Can Depend On Me",
  "difficulty": "Advanced",
  "bpm": 105.000105000105,
  "notes": [
    {
      "midi": 40,
      "hit": false,
      "t": 64002.912187500006,
      "d": 532.7375624999986,
      "v": 84
    },
    {
      "midi": 76,
      "hit": false,
      "t": 64282.673812500005,
      "d": 279.7616249999992,
      "v": 74
    },
    {
      "midi": 83,
      "hit": false,
      "t": 64282.673812500005,
      "d": 279.7616249999992,
      "v": 74
    },
    {
      "midi": 79,
      "hit": false,
      "t": 64285.65,
      "d": 261.9045000000042,
      "v": 79
    },
    {
      "midi": 47,
      "hit": false,
      "t": 64565.411625,
      "d": 553.5708749999903,
      "v": 79
    },
    {
      "midi": 83,
      "hit": false,
      "t": 64854.1018125,
      "d": 363.09487499998795,
      "v": 74
    },
    {
      "midi": 79,
      "hit": false,
      "t": 64857.077999999994,
      "d": 354.16631249999773,
      "v": 78
    },
    {
      "midi": 76,
      "hit": false,
      "t": 64860.05418749999,
      "d": 354.16631249999773,
      "v": 73
    },
    {
      "midi": 40,
      "hit": false,
      "t": 65139.81581249999,
      "d": 523.8089999999938,
      "v": 83
    },
    {
      "midi": 83,
      "hit": false,
      "t": 65422.553624999986,
      "d": 351.1901249999937,
      "v": 74
    },
    {
      "midi": 76,
      "hit": false,
      "t": 65428.50599999999,
      "d": 345.23774999999296,
      "v": 73
    },
    {
      "midi": 79,
      "hit": false,
      "t": 65431.48218749998,
      "d": 348.2139374999897,
      "v": 76
    },
    {
      "midi": 47,
      "hit": false,
      "t": 65708.26762499998,
      "d": 568.451812499974,
      "v": 80
    },
    {
      "midi": 83,
      "hit": false,
      "t": 65874.93412499997,
      "d": 71.42849999997998,
      "v": 78
    },
    {
      "midi": 76,
      "hit": false,
      "t": 65877.91031249997,
      "d": 74.40468749997672,
      "v": 69
    },
    {
      "midi": 79,
      "hit": false,
      "t": 65883.86268749996,
      "d": 44.64281249999476,
      "v": 73
    },
    {
      "midi": 76,
      "hit": false,
      "t": 66002.91018749995,
      "d": 62.49993750000431,
      "v": 60
    },
    {
      "midi": 79,
      "hit": false,
      "t": 66002.91018749995,
      "d": 68.45231249999779,
      "v": 72
    },
    {
      "midi": 83,
      "hit": false,
      "t": 66002.91018749995,
      "d": 68.45231249999779,
      "v": 68
    },
    {
      "midi": 76,
      "hit": false,
      "t": 66160.64812499995,
      "d": 130.9522500000021,
      "v": 69
    },
    {
      "midi": 79,
      "hit": false,
      "t": 66169.57668749995,
      "d": 104.16656250000233,
      "v": 76
    },
    {
      "midi": 83,
      "hit": false,
      "t": 66169.57668749995,
      "d": 130.9522500000021,
      "v": 77
    },
    {
      "midi": 40,
      "hit": false,
      "t": 66279.69562499995,
      "d": 529.7613750000019,
      "v": 84
    },
    {
      "midi": 79,
      "hit": false,
      "t": 66568.38581249995,
      "d": 273.80924999999115,
      "v": 79
    },
    {
      "midi": 83,
      "hit": false,
      "t": 66571.36199999995,
      "d": 288.6901874999894,
      "v": 74
    },
    {
      "midi": 76,
      "hit": false,
      "t": 66574.33818749995,
      "d": 285.71399999999267,
      "v": 74
    },
    {
      "midi": 42,
      "hit": false,
      "t": 66854.09981249995,
      "d": 538.6899374999921,
      "v": 80
    },
    {
      "midi": 81,
      "hit": false,
      "t": 67139.81381249994,
      "d": 324.40443749999395,
      "v": 83
    },
    {
      "midi": 74,
      "hit": false,
      "t": 67142.78999999994,
      "d": 288.69018750000396,
      "v": 76
    },
    {
      "midi": 78,
      "hit": false,
      "t": 67145.76618749993,
      "d": 300.59493750000547,
      "v": 79
    },
    {
      "midi": 43,
      "hit": false,
      "t": 67431.48018749994,
      "d": 568.451812499974,
      "v": 81
    },
    {
      "midi": 74,
      "hit": false,
      "t": 67708.26562499993,
      "d": 377.97581249997893,
      "v": 74
    },
    {
      "midi": 79,
      "hit": false,
      "t": 67711.24181249992,
      "d": 377.97581249997893,
      "v": 81
    },
    {
      "midi": 83,
      "hit": false,
      "t": 67717.19418749992,
      "d": 374.9996249999822,
      "v": 82
    },
    {
      "midi": 38,
      "hit": false,
      "t": 67996.95581249992,
      "d": 526.7851874999615,
      "v": 77
    },
    {
      "midi": 74,
      "hit": false,
      "t": 68166.5984999999,
      "d": 62.499937499989755,
      "v": 75
    },
    {
      "midi": 79,
      "hit": false,
      "t": 68169.5746874999,
      "d": 50.595187500002794,
      "v": 78
    },
    {
      "midi": 83,
      "hit": false,
      "t": 68169.5746874999,
      "d": 56.547562499996275,
      "v": 75
    },
    {
      "midi": 79,
      "hit": false,
      "t": 68279.6936249999,
      "d": 74.40468749999127,
      "v": 75
    },
    {
      "midi": 74,
      "hit": false,
      "t": 68285.64599999989,
      "d": 77.38087500000256,
      "v": 71
    },
    {
      "midi": 83,
      "hit": false,
      "t": 68288.62218749989,
      "d": 77.38087500000256,
      "v": 74
    },
    {
      "midi": 79,
      "hit": false,
      "t": 68449.33631249989,
      "d": 113.09512499999255,
      "v": 74
    },
    {
      "midi": 74,
      "hit": false,
      "t": 68452.31249999988,
      "d": 122.02368749999732,
      "v": 68
    },
    {
      "midi": 83,
      "hit": false,
      "t": 68455.28868749988,
      "d": 136.90462499999558,
      "v": 75
    },
    {
      "midi": 40,
      "hit": false,
      "t": 68571.35999999988,
      "d": 544.6423124999856,
      "v": 80
    },
    {
      "midi": 79,
      "hit": false,
      "t": 68851.12162499987,
      "d": 306.5473125000135,
      "v": 83
    },
    {
      "midi": 83,
      "hit": false,
      "t": 68851.12162499987,
      "d": 312.499687500007,
      "v": 81
    },
    {
      "midi": 76,
      "hit": false,
      "t": 68854.09781249987,
      "d": 309.52350000001024,
      "v": 75
    },
    {
      "midi": 47,
      "hit": false,
      "t": 69136.83562499988,
      "d": 568.4518124999886,
      "v": 78
    },
    {
      "midi": 76,
      "hit": false,
      "t": 69306.47831249988,
      "d": 53.571374999999534,
      "v": 74
    },
    {
      "midi": 79,
      "hit": false,
      "t": 69312.43068749987,
      "d": 50.595187500002794,
      "v": 82
    },
    {
      "midi": 83,
      "hit": false,
      "t": 69312.43068749987,
      "d": 59.52375000000757,
      "v": 81
    },
    {
      "midi": 79,
      "hit": false,
      "t": 69425.52581249988,
      "d": 65.47612500000105,
      "v": 74
    },
    {
      "midi": 76,
      "hit": false,
      "t": 69428.50199999988,
      "d": 80.3570624999993,
      "v": 70
    },
    {
      "midi": 83,
      "hit": false,
      "t": 69428.50199999988,
      "d": 80.3570624999993,
      "v": 73
    },
    {
      "midi": 76,
      "hit": false,
      "t": 69592.19231249987,
      "d": 130.95224999998754,
      "v": 74
    },
    {
      "midi": 83,
      "hit": false,
      "t": 69595.16849999987,
      "d": 136.90462499999558,
      "v": 75
    },
    {
      "midi": 79,
      "hit": false,
      "t": 69598.14468749987,
      "d": 110.11893749999581,
      "v": 75
    },
    {
      "midi": 40,
      "hit": false,
      "t": 69717.19218749987,
      "d": 568.4518124999886,
      "v": 84
    },
    {
      "midi": 79,
      "hit": false,
      "t": 69996.95381249987,
      "d": 354.16631249999045,
      "v": 77
    },
    {
      "midi": 83,
      "hit": false,
      "t": 69999.92999999986,
      "d": 351.1901249999937,
      "v": 76
    },
    {
      "midi": 76,
      "hit": false,
      "t": 70002.90618749986,
      "d": 357.14250000000175,
      "v": 74
    },
    {
      "midi": 47,
      "hit": false,
      "t": 70288.62018749985,
      "d": 452.38049999998475,
      "v": 80
    },
    {
      "midi": 79,
      "hit": false,
      "t": 70446.35812499985,
      "d": 50.595187500002794,
      "v": 78
    },
    {
      "midi": 83,
      "hit": false,
      "t": 70446.35812499985,
      "d": 50.595187500002794,
      "v": 77
    },
    {
      "midi": 76,
      "hit": false,
      "t": 70446.35812499985,
      "d": 65.47612500000105,
      "v": 73
    },
    {
      "midi": 79,
      "hit": false,
      "t": 70565.40562499985,
      "d": 71.42849999999453,
      "v": 77
    },
    {
      "midi": 76,
      "hit": false,
      "t": 70571.35799999985,
      "d": 80.3570624999993,
      "v": 69
    },
    {
      "midi": 83,
      "hit": false,
      "t": 70571.35799999985,
      "d": 80.3570624999993,
      "v": 74
    },
    {
      "midi": 79,
      "hit": false,
      "t": 70735.04831249984,
      "d": 122.02368749998277,
      "v": 78
    },
    {
      "midi": 76,
      "hit": false,
      "t": 70735.04831249984,
      "d": 136.90462499998102,
      "v": 73
    },
    {
      "midi": 83,
      "hit": false,
      "t": 70738.02449999984,
      "d": 145.8331874999858,
      "v": 75
    },
    {
      "midi": 47,
      "hit": false,
      "t": 70851.11962499983,
      "d": 559.5232499999838,
      "v": 79
    },
    {
      "midi": 74,
      "hit": false,
      "t": 71136.83362499982,
      "d": 339.2853749999922,
      "v": 73
    },
    {
      "midi": 78,
      "hit": false,
      "t": 71136.83362499982,
      "d": 363.0948749999952,
      "v": 72
    },
    {
      "midi": 83,
      "hit": false,
      "t": 71139.80981249982,
      "d": 357.14250000000175,
      "v": 75
    },
    {
      "midi": 42,
      "hit": false,
      "t": 71431.47618749982,
      "d": 508.9280624999665,
      "v": 85
    },
    {
      "midi": 78,
      "hit": false,
      "t": 71589.21412499982,
      "d": 56.54756249998172,
      "v": 78
    },
    {
      "midi": 74,
      "hit": false,
      "t": 71595.16649999982,
      "d": 44.64281249999476,
      "v": 76
    },
    {
      "midi": 83,
      "hit": false,
      "t": 71598.14268749981,
      "d": 56.547562499996275,
      "v": 76
    },
    {
      "midi": 78,
      "hit": false,
      "t": 71711.2378124998,
      "d": 71.42849999999453,
      "v": 74
    },
    {
      "midi": 83,
      "hit": false,
      "t": 71711.2378124998,
      "d": 86.30943749999278,
      "v": 76
    },
    {
      "midi": 74,
      "hit": false,
      "t": 71714.2139999998,
      "d": 80.3570624999993,
      "v": 69
    },
    {
      "midi": 83,
      "hit": false,
      "t": 71874.9281249998,
      "d": 98.21418749997974,
      "v": 74
    },
    {
      "midi": 78,
      "hit": false,
      "t": 71877.9043124998,
      "d": 86.30943749999278,
      "v": 73
    },
    {
      "midi": 74,
      "hit": false,
      "t": 71883.85668749979,
      "d": 86.30943749999278,
      "v": 67
    },
    {
      "midi": 48,
      "hit": false,
      "t": 72002.90418749978,
      "d": 550.5946874999936,
      "v": 79
    },
    {
      "midi": 79,
      "hit": false,
      "t": 72282.66581249978,
      "d": 267.8568749999977,
      "v": 82
    },
    {
      "midi": 84,
      "hit": false,
      "t": 72285.64199999977,
      "d": 282.7378124999959,
      "v": 75
    },
    {
      "midi": 76,
      "hit": false,
      "t": 72288.61818749977,
      "d": 279.7616249999992,
      "v": 77
    },
    {
      "midi": 43,
      "hit": false,
      "t": 72568.37981249977,
      "d": 517.8566249999567,
      "v": 84
    },
    {
      "midi": 84,
      "hit": false,
      "t": 72732.07012499977,
      "d": 62.499937499989755,
      "v": 78
    },
    {
      "midi": 76,
      "hit": false,
      "t": 72735.04631249976,
      "d": 71.42849999999453,
      "v": 75
    },
    {
      "midi": 79,
      "hit": false,
      "t": 72738.02249999976,
      "d": 50.595187500002794,
      "v": 77
    },
    {
      "midi": 76,
      "hit": false,
      "t": 72851.11762499975,
      "d": 95.237999999983,
      "v": 73
    },
    {
      "midi": 84,
      "hit": false,
      "t": 72854.09381249975,
      "d": 80.35706249998475,
      "v": 75
    },
    {
      "midi": 79,
      "hit": false,
      "t": 72860.04618749974,
      "d": 71.42849999999453,
      "v": 75
    },
    {
      "midi": 79,
      "hit": false,
      "t": 73020.76031249974,
      "d": 101.19037499999104,
      "v": 75
    },
    {
      "midi": 76,
      "hit": false,
      "t": 73020.76031249974,
      "d": 113.09512499999255,
      "v": 67
    },
    {
      "midi": 84,
      "hit": false,
      "t": 73026.71268749973,
      "d": 130.9522500000021,
      "v": 76
    },
    {
      "midi": 50,
      "hit": false,
      "t": 73136.83162499973,
      "d": 568.4518125000031,
      "v": 79
    },
    {
      "midi": 78,
      "hit": false,
      "t": 73428.49799999973,
      "d": 318.45206250000047,
      "v": 77
    },
    {
      "midi": 84,
      "hit": false,
      "t": 73428.49799999973,
      "d": 360.1186874999985,
      "v": 82
    },
    {
      "midi": 74,
      "hit": false,
      "t": 73431.47418749973,
      "d": 348.213937499997,
      "v": 81
    },
    {
      "midi": 48,
      "hit": false,
      "t": 73711.23581249973,
      "d": 550.5946875000081,
      "v": 80
    },
    {
      "midi": 78,
      "hit": false,
      "t": 73877.90231249973,
      "d": 383.9281875000015,
      "v": 76
    },
    {
      "midi": 84,
      "hit": false,
      "t": 73877.90231249973,
      "d": 383.9281875000015,
      "v": 82
    },
    {
      "midi": 74,
      "hit": false,
      "t": 73880.87849999973,
      "d": 380.9520000000048,
      "v": 78
    },
    {
      "midi": 47,
      "hit": false,
      "t": 74282.66381249974,
      "d": 538.6899374999921,
      "v": 83
    },
    {
      "midi": 74,
      "hit": false,
      "t": 74565.40162499974,
      "d": 345.23775000000023,
      "v": 81
    },
    {
      "midi": 84,
      "hit": false,
      "t": 74571.35399999973,
      "d": 348.213937499997,
      "v": 82
    },
    {
      "midi": 78,
      "hit": false,
      "t": 74574.33018749973,
      "d": 339.28537500000675,
      "v": 81
    },
    {
      "midi": 45,
      "hit": false,
      "t": 74860.04418749973,
      "d": 455.3566874999815,
      "v": 82
    },
    {
      "midi": 74,
      "hit": false,
      "t": 75020.75831249973,
      "d": 199.40456249999988,
      "v": 83
    },
    {
      "midi": 78,
      "hit": false,
      "t": 75020.75831249973,
      "d": 202.38074999999662,
      "v": 84
    },
    {
      "midi": 84,
      "hit": false,
      "t": 75023.73449999973,
      "d": 205.35693749999336,
      "v": 84
    },
    {
      "midi": 43,
      "hit": false,
      "t": 91431.45618749972,
      "d": 270.8330624999944,
      "v": 100
    },
    {
      "midi": 55,
      "hit": false,
      "t": 91708.2416249997,
      "d": 270.8330624999944,
      "v": 105
    },
    {
      "midi": 71,
      "hit": false,
      "t": 91708.2416249997,
      "d": 303.5711250000022,
      "v": 105
    },
    {
      "midi": 62,
      "hit": false,
      "t": 91711.2178124997,
      "d": 244.04737499999464,
      "v": 105
    },
    {
      "midi": 67,
      "hit": false,
      "t": 91714.1939999997,
      "d": 285.7140000000072,
      "v": 105
    },
    {
      "midi": 43,
      "hit": false,
      "t": 92002.8841874997,
      "d": 291.6663750000007,
      "v": 89
    },
    {
      "midi": 62,
      "hit": false,
      "t": 92169.55068749971,
      "d": 196.4283749999886,
      "v": 113
    },
    {
      "midi": 67,
      "hit": false,
      "t": 92285.62199999971,
      "d": 247.02356249997683,
      "v": 122
    },
    {
      "midi": 71,
      "hit": false,
      "t": 92285.62199999971,
      "d": 255.9521249999816,
      "v": 119
    },
    {
      "midi": 55,
      "hit": false,
      "t": 92288.59818749971,
      "d": 279.76162499998463,
      "v": 102
    },
    {
      "midi": 62,
      "hit": false,
      "t": 92449.3123124997,
      "d": 56.547562499996275,
      "v": 30
    },
    {
      "midi": 43,
      "hit": false,
      "t": 92571.33599999969,
      "d": 244.04737499999464,
      "v": 102
    },
    {
      "midi": 71,
      "hit": false,
      "t": 92851.09762499969,
      "d": 330.356812500002,
      "v": 107
    },
    {
      "midi": 38,
      "hit": false,
      "t": 92854.07381249969,
      "d": 294.64256249999744,
      "v": 105
    },
    {
      "midi": 67,
      "hit": false,
      "t": 92857.04999999968,
      "d": 303.5711250000022,
      "v": 107
    },
    {
      "midi": 62,
      "hit": false,
      "t": 92860.02618749968,
      "d": 264.88068750000093,
      "v": 119
    },
    {
      "midi": 40,
      "hit": false,
      "t": 93145.74018749969,
      "d": 330.356812500002,
      "v": 102
    },
    {
      "midi": 62,
      "hit": false,
      "t": 93309.4304999997,
      "d": 181.54743749999034,
      "v": 116
    },
    {
      "midi": 67,
      "hit": false,
      "t": 93422.5256249997,
      "d": 214.28549999998359,
      "v": 116
    },
    {
      "midi": 71,
      "hit": false,
      "t": 93428.4779999997,
      "d": 217.26168749999488,
      "v": 119
    },
    {
      "midi": 42,
      "hit": false,
      "t": 93431.4541874997,
      "d": 300.59493750000547,
      "v": 100
    },
    {
      "midi": 62,
      "hit": false,
      "t": 93589.19212499968,
      "d": 104.16656250001688,
      "v": 102
    },
    {
      "midi": 69,
      "hit": false,
      "t": 93717.1681874997,
      "d": 124.99987499999406,
      "v": 119
    },
    {
      "midi": 62,
      "hit": false,
      "t": 93717.1681874997,
      "d": 982.1418750000012,
      "v": 119
    },
    {
      "midi": 71,
      "hit": false,
      "t": 93877.8823124997,
      "d": 98.2141874999943,
      "v": 95
    },
    {
      "midi": 71,
      "hit": false,
      "t": 93996.9298124997,
      "d": 80.3570624999993,
      "v": 100
    },
    {
      "midi": 71,
      "hit": false,
      "t": 94160.6201249997,
      "d": 71.42849999999453,
      "v": 102
    },
    {
      "midi": 71,
      "hit": false,
      "t": 94279.6676249997,
      "d": 163.69031249999534,
      "v": 107
    },
    {
      "midi": 69,
      "hit": false,
      "t": 94455.2626874997,
      "d": 113.0951250000071,
      "v": 98
    },
    {
      "midi": 67,
      "hit": false,
      "t": 94571.3339999997,
      "d": 148.80937500001164,
      "v": 119
    },
    {
      "midi": 74,
      "hit": false,
      "t": 94851.09562499971,
      "d": 124.99987499999406,
      "v": 119
    },
    {
      "midi": 66,
      "hit": false,
      "t": 94851.09562499971,
      "d": 982.1418749999721,
      "v": 119
    },
    {
      "midi": 76,
      "hit": false,
      "t": 95023.71449999971,
      "d": 98.2141874999943,
      "v": 95
    },
    {
      "midi": 76,
      "hit": false,
      "t": 95142.76199999971,
      "d": 80.3570624999993,
      "v": 100
    },
    {
      "midi": 76,
      "hit": false,
      "t": 95312.40468749971,
      "d": 71.42849999999453,
      "v": 102
    },
    {
      "midi": 76,
      "hit": false,
      "t": 95428.4759999997,
      "d": 163.69031249999534,
      "v": 107
    },
    {
      "midi": 74,
      "hit": false,
      "t": 95598.1186874997,
      "d": 107.14274999999907,
      "v": 98
    },
    {
      "midi": 72,
      "hit": false,
      "t": 95708.23762499969,
      "d": 148.8093749999971,
      "v": 119
    },
    {
      "midi": 81,
      "hit": false,
      "t": 95999.90399999969,
      "d": 124.99987499999406,
      "v": 119
    },
    {
      "midi": 74,
      "hit": false,
      "t": 95999.90399999969,
      "d": 839.2848749999976,
      "v": 119
    },
    {
      "midi": 83,
      "hit": false,
      "t": 96160.61812499969,
      "d": 98.2141874999943,
      "v": 95
    },
    {
      "midi": 83,
      "hit": false,
      "t": 96282.64181249969,
      "d": 80.3570624999993,
      "v": 100
    },
    {
      "midi": 83,
      "hit": false,
      "t": 96449.30831249968,
      "d": 71.42849999999453,
      "v": 102
    },
    {
      "midi": 81,
      "hit": false,
      "t": 96571.33199999967,
      "d": 101.19037500000559,
      "v": 107
    },
    {
      "midi": 79,
      "hit": false,
      "t": 96740.97468749968,
      "d": 62.49993750000431,
      "v": 98
    },
    {
      "midi": 81,
      "hit": false,
      "t": 96860.0221874997,
      "d": 327.3806249999907,
      "v": 119
    },
    {
      "midi": 76,
      "hit": false,
      "t": 97142.75999999969,
      "d": 568.4518125000031,
      "v": 91
    },
    {
      "midi": 59,
      "hit": false,
      "t": 97595.14049999969,
      "d": 592.2613125000062,
      "v": 113
    },
    {
      "midi": 64,
      "hit": false,
      "t": 97714.18799999969,
      "d": 437.49956250000105,
      "v": 110
    },
    {
      "midi": 67,
      "hit": false,
      "t": 97880.8544999997,
      "d": 401.7853124999965,
      "v": 95
    },
    {
      "midi": 71,
      "hit": false,
      "t": 97999.9019999997,
      "d": 285.71399999999267,
      "v": 110
    },
    {
      "midi": 72,
      "hit": false,
      "t": 98282.63981249969,
      "d": 136.90462499999558,
      "v": 113
    },
    {
      "midi": 67,
      "hit": false,
      "t": 98285.61599999969,
      "d": 559.5232499999984,
      "v": 113
    },
    {
      "midi": 64,
      "hit": false,
      "t": 98285.61599999969,
      "d": 568.4518125000031,
      "v": 107
    },
    {
      "midi": 60,
      "hit": false,
      "t": 98285.61599999969,
      "d": 616.0708124999946,
      "v": 107
    },
    {
      "midi": 71,
      "hit": false,
      "t": 98449.30631249968,
      "d": 116.07131250000384,
      "v": 89
    },
    {
      "midi": 72,
      "hit": false,
      "t": 98568.35381249968,
      "d": 151.78556249999383,
      "v": 95
    },
    {
      "midi": 74,
      "hit": false,
      "t": 98740.97268749968,
      "d": 116.07131250000384,
      "v": 99
    },
    {
      "midi": 76,
      "hit": false,
      "t": 98860.02018749969,
      "d": 154.76175000000512,
      "v": 113
    },
    {
      "midi": 74,
      "hit": false,
      "t": 99017.75812499969,
      "d": 116.07131250000384,
      "v": 105
    },
    {
      "midi": 76,
      "hit": false,
      "t": 99136.80562499969,
      "d": 119.04750000000058,
      "v": 100
    },
    {
      "midi": 78,
      "hit": false,
      "t": 99312.40068749968,
      "d": 104.16656250000233,
      "v": 96
    },
    {
      "midi": 79,
      "hit": false,
      "t": 99425.49581249969,
      "d": 136.90462499999558,
      "v": 115
    },
    {
      "midi": 74,
      "hit": false,
      "t": 99592.16231249968,
      "d": 116.07131250000384,
      "v": 89
    },
    {
      "midi": 79,
      "hit": false,
      "t": 99711.20981249968,
      "d": 151.78556249999383,
      "v": 95
    },
    {
      "midi": 83,
      "hit": false,
      "t": 99883.82868749968,
      "d": 116.07131250000384,
      "v": 102
    },
    {
      "midi": 86,
      "hit": false,
      "t": 100002.87618749969,
      "d": 154.76175000000512,
      "v": 111
    },
    {
      "midi": 83,
      "hit": false,
      "t": 100160.61412499969,
      "d": 95.23799999999756,
      "v": 105
    },
    {
      "midi": 84,
      "hit": false,
      "t": 100279.66162499969,
      "d": 142.8570000000036,
      "v": 100
    },
    {
      "midi": 83,
      "hit": false,
      "t": 100455.25668749968,
      "d": 104.16656250000233,
      "v": 91
    },
    {
      "midi": 81,
      "hit": false,
      "t": 100568.35181249969,
      "d": 136.90462499999558,
      "v": 112
    },
    {
      "midi": 79,
      "hit": false,
      "t": 100735.01831249968,
      "d": 116.07131250000384,
      "v": 89
    },
    {
      "midi": 78,
      "hit": false,
      "t": 100854.06581249968,
      "d": 151.78556249999383,
      "v": 95
    },
    {
      "midi": 76,
      "hit": false,
      "t": 101026.68468749968,
      "d": 116.07131250000384,
      "v": 101
    },
    {
      "midi": 74,
      "hit": false,
      "t": 101145.73218749969,
      "d": 154.76175000000512,
      "v": 110
    },
    {
      "midi": 72,
      "hit": false,
      "t": 101303.47012499969,
      "d": 116.07131250000384,
      "v": 105
    },
    {
      "midi": 71,
      "hit": false,
      "t": 101422.51762499969,
      "d": 119.04750000000058,
      "v": 100
    },
    {
      "midi": 69,
      "hit": false,
      "t": 101598.11268749968,
      "d": 104.16656250000233,
      "v": 96
    },
    {
      "midi": 67,
      "hit": false,
      "t": 101711.20781249969,
      "d": 136.90462499999558,
      "v": 112
    },
    {
      "midi": 66,
      "hit": false,
      "t": 101877.87431249968,
      "d": 116.07131250000384,
      "v": 89
    },
    {
      "midi": 64,
      "hit": false,
      "t": 101996.92181249968,
      "d": 151.78556249999383,
      "v": 95
    },
    {
      "midi": 62,
      "hit": false,
      "t": 102169.54068749968,
      "d": 116.07131250000384,
      "v": 101
    },
    {
      "midi": 71,
      "hit": false,
      "t": 102285.61199999969,
      "d": 92.26181250000081,
      "v": 111
    },
    {
      "midi": 69,
      "hit": false,
      "t": 102380.84999999969,
      "d": 92.26181250000081,
      "v": 103
    },
    {
      "midi": 67,
      "hit": false,
      "t": 102476.08799999968,
      "d": 92.26181250000081,
      "v": 103
    },
    {
      "midi": 69,
      "hit": false,
      "t": 102571.32599999968,
      "d": 282.7378124999959,
      "v": 106
    },
    {
      "midi": 79,
      "hit": false,
      "t": 102857.03999999967,
      "d": 321.4282499999972,
      "v": 87
    },
    {
      "midi": 83,
      "hit": false,
      "t": 102857.03999999967,
      "d": 336.30918749999546,
      "v": 87
    },
    {
      "midi": 74,
      "hit": false,
      "t": 102860.01618749967,
      "d": 327.38062500000524,
      "v": 87
    },
    {
      "midi": 74,
      "hit": false,
      "t": 103303.46812499966,
      "d": 285.71399999999267,
      "v": 87
    },
    {
      "midi": 83,
      "hit": false,
      "t": 103303.46812499966,
      "d": 294.6425624999829,
      "v": 87
    },
    {
      "midi": 79,
      "hit": false,
      "t": 103306.44431249966,
      "d": 285.71399999999267,
      "v": 88
    },
    {
      "midi": 79,
      "hit": false,
      "t": 103708.22962499964,
      "d": 184.52362499998708,
      "v": 87
    },
    {
      "midi": 83,
      "hit": false,
      "t": 103714.18199999964,
      "d": 187.49981249998382,
      "v": 88
    },
    {
      "midi": 74,
      "hit": false,
      "t": 103717.15818749963,
      "d": 181.54743749999034,
      "v": 83
    },
    {
      "midi": 74,
      "hit": false,
      "t": 103993.94362499962,
      "d": 77.38087500000256,
      "v": 85
    },
    {
      "midi": 83,
      "hit": false,
      "t": 103993.94362499962,
      "d": 86.30943750000733,
      "v": 87
    },
    {
      "midi": 79,
      "hit": false,
      "t": 103996.91981249962,
      "d": 50.595187500002794,
      "v": 86
    },
    {
      "midi": 78,
      "hit": false,
      "t": 104446.32412499964,
      "d": 321.42824999998265,
      "v": 89
    },
    {
      "midi": 74,
      "hit": false,
      "t": 104449.30031249963,
      "d": 303.57112499998766,
      "v": 88
    },
    {
      "midi": 83,
      "hit": false,
      "t": 104455.25268749963,
      "d": 321.4282499999972,
      "v": 88
    },
    {
      "midi": 83,
      "hit": false,
      "t": 104851.08562499963,
      "d": 220.23787500000617,
      "v": 87
    },
    {
      "midi": 74,
      "hit": false,
      "t": 104854.06181249963,
      "d": 208.33312500000466,
      "v": 84
    },
    {
      "midi": 78,
      "hit": false,
      "t": 104854.06181249963,
      "d": 241.07118750001246,
      "v": 85
    },
    {
      "midi": 79,
      "hit": false,
      "t": 105139.77581249963,
      "d": 86.30943749999278,
      "v": 83
    },
    {
      "midi": 83,
      "hit": false,
      "t": 105139.77581249963,
      "d": 86.30943749999278,
      "v": 83
    },
    {
      "midi": 76,
      "hit": false,
      "t": 105145.72818749963,
      "d": 86.30943749999278,
      "v": 83
    },
    {
      "midi": 76,
      "hit": false,
      "t": 105312.39468749962,
      "d": 312.499687500007,
      "v": 84
    },
    {
      "midi": 83,
      "hit": false,
      "t": 105312.39468749962,
      "d": 318.45206250000047,
      "v": 87
    },
    {
      "midi": 79,
      "hit": false,
      "t": 105312.39468749962,
      "d": 324.40443749999395,
      "v": 87
    },
    {
      "midi": 71,
      "hit": false,
      "t": 105708.2276249996,
      "d": 282.7378125000105,
      "v": 88
    },
    {
      "midi": 64,
      "hit": false,
      "t": 105717.15618749961,
      "d": 279.7616249999992,
      "v": 87
    },
    {
      "midi": 67,
      "hit": false,
      "t": 105717.15618749961,
      "d": 282.7378124999959,
      "v": 89
    },
    {
      "midi": 64,
      "hit": false,
      "t": 105996.91781249961,
      "d": 214.28549999999814,
      "v": 83
    },
    {
      "midi": 71,
      "hit": false,
      "t": 105996.91781249961,
      "d": 229.1664374999964,
      "v": 87
    },
    {
      "midi": 67,
      "hit": false,
      "t": 105999.89399999961,
      "d": 238.09500000000116,
      "v": 86
    },
    {
      "midi": 67,
      "hit": false,
      "t": 106279.6556249996,
      "d": 330.3568124999874,
      "v": 88
    },
    {
      "midi": 71,
      "hit": false,
      "t": 106282.6318124996,
      "d": 330.3568124999874,
      "v": 88
    },
    {
      "midi": 64,
      "hit": false,
      "t": 106288.5841874996,
      "d": 333.3329999999987,
      "v": 88
    },
    {
      "midi": 71,
      "hit": false,
      "t": 106732.03612499959,
      "d": 261.90449999998964,
      "v": 87
    },
    {
      "midi": 67,
      "hit": false,
      "t": 106737.98849999958,
      "d": 258.9283124999929,
      "v": 87
    },
    {
      "midi": 64,
      "hit": false,
      "t": 106740.96468749958,
      "d": 264.88068750000093,
      "v": 85
    },
    {
      "midi": 64,
      "hit": false,
      "t": 107017.75012499958,
      "d": 190.4759999999951,
      "v": 84
    },
    {
      "midi": 67,
      "hit": false,
      "t": 107020.72631249958,
      "d": 181.5474375000049,
      "v": 87
    },
    {
      "midi": 71,
      "hit": false,
      "t": 107020.72631249958,
      "d": 193.45218749999185,
      "v": 87
    },
    {
      "midi": 67,
      "hit": false,
      "t": 107303.46412499958,
      "d": 68.45231249998324,
      "v": 82
    },
    {
      "midi": 64,
      "hit": false,
      "t": 107309.41649999957,
      "d": 71.42849999999453,
      "v": 82
    },
    {
      "midi": 71,
      "hit": false,
      "t": 107312.39268749957,
      "d": 68.45231249999779,
      "v": 83
    },
    {
      "midi": 76,
      "hit": false,
      "t": 107422.51162499956,
      "d": 351.1901249999937,
      "v": 77
    },
    {
      "midi": 79,
      "hit": false,
      "t": 107425.48781249956,
      "d": 348.213937499997,
      "v": 85
    },
    {
      "midi": 84,
      "hit": false,
      "t": 107425.48781249956,
      "d": 369.04725000000326,
      "v": 87
    },
    {
      "midi": 79,
      "hit": false,
      "t": 107877.86831249956,
      "d": 244.04737499999464,
      "v": 88
    },
    {
      "midi": 84,
      "hit": false,
      "t": 107877.86831249956,
      "d": 255.95212499999616,
      "v": 88
    },
    {
      "midi": 76,
      "hit": false,
      "t": 107883.82068749955,
      "d": 261.9045000000042,
      "v": 88
    },
    {
      "midi": 76,
      "hit": false,
      "t": 108160.60612499955,
      "d": 184.52362499998708,
      "v": 83
    },
    {
      "midi": 79,
      "hit": false,
      "t": 108166.55849999955,
      "d": 178.5712499999936,
      "v": 87
    },
    {
      "midi": 84,
      "hit": false,
      "t": 108169.53468749954,
      "d": 181.54743749999034,
      "v": 88
    },
    {
      "midi": 79,
      "hit": false,
      "t": 108446.32012499953,
      "d": 74.40468750000582,
      "v": 87
    },
    {
      "midi": 84,
      "hit": false,
      "t": 108446.32012499953,
      "d": 92.26181250000081,
      "v": 87
    },
    {
      "midi": 76,
      "hit": false,
      "t": 108455.24868749954,
      "d": 77.38087500000256,
      "v": 84
    },
    {
      "midi": 78,
      "hit": false,
      "t": 108565.36762499953,
      "d": 309.5234999999957,
      "v": 89
    },
    {
      "midi": 74,
      "hit": false,
      "t": 108568.34381249953,
      "d": 309.5234999999957,
      "v": 91
    },
    {
      "midi": 81,
      "hit": false,
      "t": 108574.29618749952,
      "d": 321.4282499999972,
      "v": 89
    },
    {
      "midi": 78,
      "hit": false,
      "t": 109017.74812499952,
      "d": 252.97593749999942,
      "v": 88
    },
    {
      "midi": 81,
      "hit": false,
      "t": 109020.72431249951,
      "d": 252.97593749999942,
      "v": 88
    },
    {
      "midi": 74,
      "hit": false,
      "t": 109023.70049999951,
      "d": 247.02356250000594,
      "v": 88
    },
    {
      "midi": 81,
      "hit": false,
      "t": 109306.43831249951,
      "d": 175.59506249999686,
      "v": 87
    },
    {
      "midi": 78,
      "hit": false,
      "t": 109309.4144999995,
      "d": 172.61887500000012,
      "v": 87
    },
    {
      "midi": 74,
      "hit": false,
      "t": 109312.3906874995,
      "d": 160.7141249999986,
      "v": 86
    },
    {
      "midi": 74,
      "hit": false,
      "t": 109589.1761249995,
      "d": 59.523749999993015,
      "v": 84
    },
    {
      "midi": 78,
      "hit": false,
      "t": 109595.1284999995,
      "d": 89.28562499998952,
      "v": 83
    },
    {
      "midi": 81,
      "hit": false,
      "t": 109598.1046874995,
      "d": 53.571374999999534,
      "v": 83
    },
    {
      "midi": 79,
      "hit": false,
      "t": 109708.22362499949,
      "d": 321.4282499999972,
      "v": 88
    },
    {
      "midi": 83,
      "hit": false,
      "t": 109711.19981249949,
      "d": 330.356812500002,
      "v": 88
    },
    {
      "midi": 74,
      "hit": false,
      "t": 109714.17599999948,
      "d": 315.4758750000037,
      "v": 84
    },
    {
      "midi": 74,
      "hit": false,
      "t": 110160.60412499949,
      "d": 252.97593749999942,
      "v": 87
    },
    {
      "midi": 79,
      "hit": false,
      "t": 110163.58031249949,
      "d": 261.9045000000042,
      "v": 88
    },
    {
      "midi": 83,
      "hit": false,
      "t": 110166.55649999948,
      "d": 264.88068750000093,
      "v": 88
    },
    {
      "midi": 79,
      "hit": false,
      "t": 110446.31812499948,
      "d": 62.49993750000431,
      "v": 85
    },
    {
      "midi": 83,
      "hit": false,
      "t": 110455.24668749949,
      "d": 80.3570624999993,
      "v": 87
    },
    {
      "midi": 74,
      "hit": false,
      "t": 110455.24668749949,
      "d": 89.28562500000407,
      "v": 85
    },
    {
      "midi": 79,
      "hit": false,
      "t": 110565.3656249995,
      "d": 113.09512499999255,
      "v": 84
    },
    {
      "midi": 83,
      "hit": false,
      "t": 110565.3656249995,
      "d": 124.99987499999406,
      "v": 82
    },
    {
      "midi": 74,
      "hit": false,
      "t": 110571.31799999949,
      "d": 119.04750000000058,
      "v": 74
    },
    {
      "midi": 62,
      "hit": false,
      "t": 110851.07962499949,
      "d": 175.59506249999686,
      "v": 91
    },
    {
      "midi": 67,
      "hit": false,
      "t": 110851.07962499949,
      "d": 178.5712499999936,
      "v": 90
    },
    {
      "midi": 71,
      "hit": false,
      "t": 110851.07962499949,
      "d": 187.49981249999837,
      "v": 88
    },
    {
      "midi": 62,
      "hit": false,
      "t": 111303.46012499949,
      "d": 252.97593749999942,
      "v": 87
    },
    {
      "midi": 67,
      "hit": false,
      "t": 111306.43631249949,
      "d": 261.9045000000042,
      "v": 88
    },
    {
      "midi": 71,
      "hit": false,
      "t": 111309.41249999948,
      "d": 264.88068750000093,
      "v": 88
    },
    {
      "midi": 67,
      "hit": false,
      "t": 111589.17412499948,
      "d": 62.49993750000431,
      "v": 85
    },
    {
      "midi": 71,
      "hit": false,
      "t": 111598.10268749949,
      "d": 80.3570624999993,
      "v": 87
    },
    {
      "midi": 62,
      "hit": false,
      "t": 111598.10268749949,
      "d": 89.28562500000407,
      "v": 85
    },
    {
      "midi": 67,
      "hit": false,
      "t": 111708.2216249995,
      "d": 113.09512499999255,
      "v": 84
    },
    {
      "midi": 71,
      "hit": false,
      "t": 111708.2216249995,
      "d": 124.99987499999406,
      "v": 82
    },
    {
      "midi": 62,
      "hit": false,
      "t": 111714.17399999949,
      "d": 119.04750000000058,
      "v": 74
    },
    {
      "midi": 40,
      "hit": false,
      "t": 112002.8641874995,
      "d": 532.7375624999986,
      "v": 84
    },
    {
      "midi": 76,
      "hit": false,
      "t": 112282.6258124995,
      "d": 279.7616249999992,
      "v": 74
    },
    {
      "midi": 83,
      "hit": false,
      "t": 112282.6258124995,
      "d": 279.7616249999992,
      "v": 74
    },
    {
      "midi": 79,
      "hit": false,
      "t": 112285.60199999949,
      "d": 261.9045000000042,
      "v": 79
    },
    {
      "midi": 47,
      "hit": false,
      "t": 112565.36362499949,
      "d": 553.5708749999903,
      "v": 79
    },
    {
      "midi": 83,
      "hit": false,
      "t": 112854.0538124995,
      "d": 363.0948749999807,
      "v": 74
    },
    {
      "midi": 79,
      "hit": false,
      "t": 112857.02999999949,
      "d": 354.16631249999045,
      "v": 78
    },
    {
      "midi": 76,
      "hit": false,
      "t": 112860.00618749949,
      "d": 354.16631249999045,
      "v": 73
    },
    {
      "midi": 40,
      "hit": false,
      "t": 113139.76781249949,
      "d": 523.8089999999647,
      "v": 83
    },
    {
      "midi": 83,
      "hit": false,
      "t": 113422.50562499947,
      "d": 351.19012499997916,
      "v": 74
    },
    {
      "midi": 76,
      "hit": false,
      "t": 113428.45799999946,
      "d": 345.2377499999857,
      "v": 73
    },
    {
      "midi": 79,
      "hit": false,
      "t": 113431.43418749946,
      "d": 348.2139374999824,
      "v": 76
    },
    {
      "midi": 47,
      "hit": false,
      "t": 113708.21962499944,
      "d": 568.451812499974,
      "v": 80
    },
    {
      "midi": 83,
      "hit": false,
      "t": 113874.88612499944,
      "d": 71.42849999997998,
      "v": 78
    },
    {
      "midi": 76,
      "hit": false,
      "t": 113877.86231249943,
      "d": 74.40468749997672,
      "v": 69
    },
    {
      "midi": 79,
      "hit": false,
      "t": 113883.81468749943,
      "d": 44.64281249999476,
      "v": 73
    },
    {
      "midi": 76,
      "hit": false,
      "t": 114002.86218749941,
      "d": 62.49993750000431,
      "v": 60
    },
    {
      "midi": 79,
      "hit": false,
      "t": 114002.86218749941,
      "d": 68.45231249999779,
      "v": 72
    },
    {
      "midi": 83,
      "hit": false,
      "t": 114002.86218749941,
      "d": 68.45231249999779,
      "v": 68
    },
    {
      "midi": 76,
      "hit": false,
      "t": 114160.60012499942,
      "d": 130.9522500000021,
      "v": 69
    },
    {
      "midi": 79,
      "hit": false,
      "t": 114169.52868749942,
      "d": 104.16656250000233,
      "v": 76
    },
    {
      "midi": 83,
      "hit": false,
      "t": 114169.52868749942,
      "d": 130.9522500000021,
      "v": 77
    },
    {
      "midi": 40,
      "hit": false,
      "t": 114279.64762499942,
      "d": 529.7613750000019,
      "v": 84
    },
    {
      "midi": 79,
      "hit": false,
      "t": 114568.33781249942,
      "d": 273.80924999999115,
      "v": 79
    },
    {
      "midi": 83,
      "hit": false,
      "t": 114571.31399999942,
      "d": 288.6901874999894,
      "v": 74
    },
    {
      "midi": 76,
      "hit": false,
      "t": 114574.29018749941,
      "d": 285.71399999999267,
      "v": 74
    },
    {
      "midi": 42,
      "hit": false,
      "t": 114854.05181249941,
      "d": 538.6899374999921,
      "v": 80
    },
    {
      "midi": 81,
      "hit": false,
      "t": 115139.7658124994,
      "d": 324.40443749999395,
      "v": 83
    },
    {
      "midi": 74,
      "hit": false,
      "t": 115142.7419999994,
      "d": 288.69018750000396,
      "v": 76
    },
    {
      "midi": 78,
      "hit": false,
      "t": 115145.7181874994,
      "d": 300.59493750000547,
      "v": 79
    },
    {
      "midi": 43,
      "hit": false,
      "t": 115431.4321874994,
      "d": 568.451812499974,
      "v": 81
    },
    {
      "midi": 74,
      "hit": false,
      "t": 115708.2176249994,
      "d": 377.97581249997893,
      "v": 74
    },
    {
      "midi": 79,
      "hit": false,
      "t": 115711.19381249939,
      "d": 377.97581249997893,
      "v": 81
    },
    {
      "midi": 83,
      "hit": false,
      "t": 115717.14618749938,
      "d": 374.9996249999822,
      "v": 82
    },
    {
      "midi": 38,
      "hit": false,
      "t": 115996.90781249938,
      "d": 526.7851874999615,
      "v": 77
    },
    {
      "midi": 74,
      "hit": false,
      "t": 116166.55049999937,
      "d": 62.499937499989755,
      "v": 75
    },
    {
      "midi": 79,
      "hit": false,
      "t": 116169.52668749937,
      "d": 50.595187500002794,
      "v": 78
    },
    {
      "midi": 83,
      "hit": false,
      "t": 116169.52668749937,
      "d": 56.547562499996275,
      "v": 75
    },
    {
      "midi": 79,
      "hit": false,
      "t": 116279.64562499936,
      "d": 74.40468749999127,
      "v": 75
    },
    {
      "midi": 74,
      "hit": false,
      "t": 116285.59799999936,
      "d": 77.38087500000256,
      "v": 71
    },
    {
      "midi": 83,
      "hit": false,
      "t": 116288.57418749935,
      "d": 77.38087500000256,
      "v": 74
    },
    {
      "midi": 79,
      "hit": false,
      "t": 116449.28831249935,
      "d": 113.09512499999255,
      "v": 74
    },
    {
      "midi": 74,
      "hit": false,
      "t": 116452.26449999935,
      "d": 122.02368749999732,
      "v": 68
    },
    {
      "midi": 83,
      "hit": false,
      "t": 116455.24068749935,
      "d": 136.90462499999558,
      "v": 75
    },
    {
      "midi": 40,
      "hit": false,
      "t": 116571.31199999935,
      "d": 544.6423124999856,
      "v": 80
    },
    {
      "midi": 79,
      "hit": false,
      "t": 116851.07362499934,
      "d": 306.5473125000135,
      "v": 83
    },
    {
      "midi": 83,
      "hit": false,
      "t": 116851.07362499934,
      "d": 312.499687500007,
      "v": 81
    },
    {
      "midi": 76,
      "hit": false,
      "t": 116854.04981249933,
      "d": 309.52350000001024,
      "v": 75
    },
    {
      "midi": 47,
      "hit": false,
      "t": 117136.78762499934,
      "d": 568.4518124999886,
      "v": 78
    },
    {
      "midi": 76,
      "hit": false,
      "t": 117306.43031249935,
      "d": 53.571374999999534,
      "v": 74
    },
    {
      "midi": 79,
      "hit": false,
      "t": 117312.38268749934,
      "d": 50.595187500002794,
      "v": 82
    },
    {
      "midi": 83,
      "hit": false,
      "t": 117312.38268749934,
      "d": 59.52375000000757,
      "v": 81
    },
    {
      "midi": 79,
      "hit": false,
      "t": 117425.47781249935,
      "d": 65.47612500000105,
      "v": 74
    },
    {
      "midi": 76,
      "hit": false,
      "t": 117428.45399999934,
      "d": 80.3570624999993,
      "v": 70
    },
    {
      "midi": 83,
      "hit": false,
      "t": 117428.45399999934,
      "d": 80.3570624999993,
      "v": 73
    },
    {
      "midi": 76,
      "hit": false,
      "t": 117592.14431249934,
      "d": 130.95224999998754,
      "v": 74
    },
    {
      "midi": 83,
      "hit": false,
      "t": 117595.12049999934,
      "d": 136.90462499999558,
      "v": 75
    },
    {
      "midi": 79,
      "hit": false,
      "t": 117598.09668749933,
      "d": 110.11893749999581,
      "v": 75
    },
    {
      "midi": 40,
      "hit": false,
      "t": 117717.14418749933,
      "d": 568.4518124999886,
      "v": 84
    },
    {
      "midi": 79,
      "hit": false,
      "t": 117996.90581249933,
      "d": 354.16631249999045,
      "v": 77
    },
    {
      "midi": 83,
      "hit": false,
      "t": 117999.88199999933,
      "d": 351.1901249999937,
      "v": 76
    },
    {
      "midi": 76,
      "hit": false,
      "t": 118002.85818749933,
      "d": 357.14250000000175,
      "v": 74
    },
    {
      "midi": 47,
      "hit": false,
      "t": 118288.57218749932,
      "d": 452.38049999998475,
      "v": 80
    },
    {
      "midi": 79,
      "hit": false,
      "t": 118446.31012499932,
      "d": 50.595187500002794,
      "v": 78
    },
    {
      "midi": 83,
      "hit": false,
      "t": 118446.31012499932,
      "d": 50.595187500002794,
      "v": 77
    },
    {
      "midi": 76,
      "hit": false,
      "t": 118446.31012499932,
      "d": 65.47612500000105,
      "v": 73
    },
    {
      "midi": 79,
      "hit": false,
      "t": 118565.35762499932,
      "d": 71.42849999999453,
      "v": 77
    },
    {
      "midi": 76,
      "hit": false,
      "t": 118571.30999999931,
      "d": 80.3570624999993,
      "v": 69
    },
    {
      "midi": 83,
      "hit": false,
      "t": 118571.30999999931,
      "d": 80.3570624999993,
      "v": 74
    },
    {
      "midi": 79,
      "hit": false,
      "t": 118735.00031249931,
      "d": 122.02368749998277,
      "v": 78
    },
    {
      "midi": 76,
      "hit": false,
      "t": 118735.00031249931,
      "d": 136.90462499998102,
      "v": 73
    },
    {
      "midi": 83,
      "hit": false,
      "t": 118737.9764999993,
      "d": 145.8331874999858,
      "v": 75
    },
    {
      "midi": 47,
      "hit": false,
      "t": 118851.0716249993,
      "d": 559.5232499999838,
      "v": 79
    },
    {
      "midi": 74,
      "hit": false,
      "t": 119136.78562499929,
      "d": 339.2853749999922,
      "v": 73
    },
    {
      "midi": 78,
      "hit": false,
      "t": 119136.78562499929,
      "d": 363.0948749999952,
      "v": 72
    },
    {
      "midi": 83,
      "hit": false,
      "t": 119139.76181249929,
      "d": 357.14250000000175,
      "v": 75
    },
    {
      "midi": 42,
      "hit": false,
      "t": 119431.42818749929,
      "d": 508.9280624999665,
      "v": 85
    },
    {
      "midi": 78,
      "hit": false,
      "t": 119589.16612499929,
      "d": 56.54756249998172,
      "v": 78
    },
    {
      "midi": 74,
      "hit": false,
      "t": 119595.11849999928,
      "d": 44.64281249999476,
      "v": 76
    },
    {
      "midi": 83,
      "hit": false,
      "t": 119598.09468749928,
      "d": 56.547562499996275,
      "v": 76
    },
    {
      "midi": 78,
      "hit": false,
      "t": 119711.18981249927,
      "d": 71.42849999999453,
      "v": 74
    },
    {
      "midi": 83,
      "hit": false,
      "t": 119711.18981249927,
      "d": 86.30943749999278,
      "v": 76
    },
    {
      "midi": 74,
      "hit": false,
      "t": 119714.16599999927,
      "d": 80.3570624999993,
      "v": 69
    },
    {
      "midi": 83,
      "hit": false,
      "t": 119874.88012499927,
      "d": 98.21418749997974,
      "v": 74
    },
    {
      "midi": 78,
      "hit": false,
      "t": 119877.85631249927,
      "d": 86.30943749999278,
      "v": 73
    },
    {
      "midi": 74,
      "hit": false,
      "t": 119883.80868749926,
      "d": 86.30943749999278,
      "v": 67
    },
    {
      "midi": 48,
      "hit": false,
      "t": 120002.85618749924,
      "d": 550.5946874999936,
      "v": 79
    },
    {
      "midi": 79,
      "hit": false,
      "t": 120282.61781249924,
      "d": 267.8568749999977,
      "v": 82
    },
    {
      "midi": 84,
      "hit": false,
      "t": 120285.59399999924,
      "d": 282.7378124999959,
      "v": 75
    },
    {
      "midi": 76,
      "hit": false,
      "t": 120288.57018749924,
      "d": 279.7616249999992,
      "v": 77
    },
    {
      "midi": 43,
      "hit": false,
      "t": 120568.33181249924,
      "d": 517.8566249999567,
      "v": 84
    },
    {
      "midi": 84,
      "hit": false,
      "t": 120732.02212499923,
      "d": 62.499937499989755,
      "v": 78
    },
    {
      "midi": 76,
      "hit": false,
      "t": 120734.99831249923,
      "d": 71.42849999999453,
      "v": 75
    },
    {
      "midi": 79,
      "hit": false,
      "t": 120737.97449999923,
      "d": 50.595187500002794,
      "v": 77
    },
    {
      "midi": 76,
      "hit": false,
      "t": 120851.06962499922,
      "d": 95.237999999983,
      "v": 73
    },
    {
      "midi": 84,
      "hit": false,
      "t": 120854.04581249921,
      "d": 80.35706249998475,
      "v": 75
    },
    {
      "midi": 79,
      "hit": false,
      "t": 120859.99818749921,
      "d": 71.42849999999453,
      "v": 75
    },
    {
      "midi": 79,
      "hit": false,
      "t": 121020.7123124992,
      "d": 101.19037499999104,
      "v": 75
    },
    {
      "midi": 76,
      "hit": false,
      "t": 121020.7123124992,
      "d": 113.09512499999255,
      "v": 67
    },
    {
      "midi": 84,
      "hit": false,
      "t": 121026.6646874992,
      "d": 130.9522500000021,
      "v": 76
    },
    {
      "midi": 50,
      "hit": false,
      "t": 121136.7836249992,
      "d": 568.4518125000031,
      "v": 79
    },
    {
      "midi": 78,
      "hit": false,
      "t": 121428.4499999992,
      "d": 318.45206250000047,
      "v": 77
    },
    {
      "midi": 84,
      "hit": false,
      "t": 121428.4499999992,
      "d": 360.1186874999985,
      "v": 82
    },
    {
      "midi": 74,
      "hit": false,
      "t": 121431.4261874992,
      "d": 348.213937499997,
      "v": 81
    },
    {
      "midi": 48,
      "hit": false,
      "t": 121711.18781249919,
      "d": 550.5946875000081,
      "v": 80
    },
    {
      "midi": 78,
      "hit": false,
      "t": 121877.8543124992,
      "d": 383.9281875000015,
      "v": 76
    },
    {
      "midi": 84,
      "hit": false,
      "t": 121877.8543124992,
      "d": 383.9281875000015,
      "v": 82
    },
    {
      "midi": 74,
      "hit": false,
      "t": 121880.8304999992,
      "d": 380.9520000000048,
      "v": 78
    },
    {
      "midi": 47,
      "hit": false,
      "t": 122282.6158124992,
      "d": 538.6899374999921,
      "v": 83
    },
    {
      "midi": 74,
      "hit": false,
      "t": 122565.3536249992,
      "d": 345.23775000000023,
      "v": 81
    },
    {
      "midi": 84,
      "hit": false,
      "t": 122571.3059999992,
      "d": 348.213937499997,
      "v": 82
    },
    {
      "midi": 78,
      "hit": false,
      "t": 122574.2821874992,
      "d": 339.28537500000675,
      "v": 81
    },
    {
      "midi": 45,
      "hit": false,
      "t": 122859.9961874992,
      "d": 455.3566874999815,
      "v": 82
    },
    {
      "midi": 74,
      "hit": false,
      "t": 123020.7103124992,
      "d": 199.40456249999988,
      "v": 83
    },
    {
      "midi": 78,
      "hit": false,
      "t": 123020.7103124992,
      "d": 202.38074999999662,
      "v": 84
    },
    {
      "midi": 84,
      "hit": false,
      "t": 123023.6864999992,
      "d": 205.35693749999336,
      "v": 84
    },
    {
      "midi": 43,
      "hit": false,
      "t": 132571.2959999992,
      "d": 532.7375624999986,
      "v": 84
    },
    {
      "midi": 74,
      "hit": false,
      "t": 132854.0338124992,
      "d": 279.76162500001374,
      "v": 74
    },
    {
      "midi": 83,
      "hit": false,
      "t": 132854.0338124992,
      "d": 279.76162500001374,
      "v": 74
    },
    {
      "midi": 79,
      "hit": false,
      "t": 132857.0099999992,
      "d": 261.9045000000042,
      "v": 79
    },
    {
      "midi": 50,
      "hit": false,
      "t": 133136.7716249992,
      "d": 553.5708750000049,
      "v": 79
    },
    {
      "midi": 83,
      "hit": false,
      "t": 133425.4618124992,
      "d": 363.0948750000098,
      "v": 74
    },
    {
      "midi": 79,
      "hit": false,
      "t": 133428.4379999992,
      "d": 354.16631250001956,
      "v": 78
    },
    {
      "midi": 74,
      "hit": false,
      "t": 133431.4141874992,
      "d": 354.16631250001956,
      "v": 73
    },
    {
      "midi": 42,
      "hit": false,
      "t": 133711.17581249922,
      "d": 523.8090000000084,
      "v": 83
    },
    {
      "midi": 83,
      "hit": false,
      "t": 133993.91362499923,
      "d": 351.1901249999937,
      "v": 74
    },
    {
      "midi": 74,
      "hit": false,
      "t": 133999.86599999922,
      "d": 345.23775000000023,
      "v": 73
    },
    {
      "midi": 78,
      "hit": false,
      "t": 134002.84218749922,
      "d": 348.213937499997,
      "v": 76
    },
    {
      "midi": 50,
      "hit": false,
      "t": 134279.62762499924,
      "d": 568.4518124999595,
      "v": 80
    },
    {
      "midi": 83,
      "hit": false,
      "t": 134446.29412499923,
      "d": 71.42850000000908,
      "v": 78
    },
    {
      "midi": 74,
      "hit": false,
      "t": 134449.27031249923,
      "d": 74.40468750000582,
      "v": 69
    },
    {
      "midi": 78,
      "hit": false,
      "t": 134455.22268749922,
      "d": 44.64281250000931,
      "v": 73
    },
    {
      "midi": 74,
      "hit": false,
      "t": 134574.27018749923,
      "d": 62.499937499989755,
      "v": 60
    },
    {
      "midi": 78,
      "hit": false,
      "t": 134574.27018749923,
      "d": 68.45231249998324,
      "v": 72
    },
    {
      "midi": 83,
      "hit": false,
      "t": 134574.27018749923,
      "d": 68.45231249998324,
      "v": 68
    },
    {
      "midi": 74,
      "hit": false,
      "t": 134732.0081249992,
      "d": 130.952249999973,
      "v": 69
    },
    {
      "midi": 78,
      "hit": false,
      "t": 134740.9366874992,
      "d": 104.16656250000233,
      "v": 76
    },
    {
      "midi": 83,
      "hit": false,
      "t": 134740.9366874992,
      "d": 130.952249999973,
      "v": 77
    },
    {
      "midi": 40,
      "hit": false,
      "t": 134851.0556249992,
      "d": 529.7613749999728,
      "v": 84
    },
    {
      "midi": 79,
      "hit": false,
      "t": 135139.74581249917,
      "d": 273.80924999999115,
      "v": 79
    },
    {
      "midi": 83,
      "hit": false,
      "t": 135142.72199999916,
      "d": 288.69018749997485,
      "v": 74
    },
    {
      "midi": 76,
      "hit": false,
      "t": 135145.69818749916,
      "d": 285.7139999999781,
      "v": 74
    },
    {
      "midi": 47,
      "hit": false,
      "t": 135425.45981249915,
      "d": 538.6899374999921,
      "v": 80
    },
    {
      "midi": 83,
      "hit": false,
      "t": 135711.17381249915,
      "d": 324.40443749999395,
      "v": 83
    },
    {
      "midi": 76,
      "hit": false,
      "t": 135714.14999999915,
      "d": 288.69018749997485,
      "v": 76
    },
    {
      "midi": 79,
      "hit": false,
      "t": 135717.12618749915,
      "d": 300.5949374999909,
      "v": 79
    },
    {
      "midi": 40,
      "hit": false,
      "t": 136002.84018749913,
      "d": 568.4518125000177,
      "v": 81
    },
    {
      "midi": 76,
      "hit": false,
      "t": 136279.62562499914,
      "d": 377.9758124999935,
      "v": 74
    },
    {
      "midi": 79,
      "hit": false,
      "t": 136282.60181249914,
      "d": 377.9758124999935,
      "v": 81
    },
    {
      "midi": 83,
      "hit": false,
      "t": 136288.55418749913,
      "d": 374.99962499999674,
      "v": 82
    },
    {
      "midi": 47,
      "hit": false,
      "t": 136568.31581249915,
      "d": 526.7851874999469,
      "v": 77
    },
    {
      "midi": 76,
      "hit": false,
      "t": 136737.95849999913,
      "d": 62.499937499989755,
      "v": 75
    },
    {
      "midi": 79,
      "hit": false,
      "t": 136740.93468749913,
      "d": 50.595187500002794,
      "v": 78
    },
    {
      "midi": 83,
      "hit": false,
      "t": 136740.93468749913,
      "d": 56.547562499996275,
      "v": 75
    },
    {
      "midi": 79,
      "hit": false,
      "t": 136851.05362499913,
      "d": 74.40468749997672,
      "v": 75
    },
    {
      "midi": 76,
      "hit": false,
      "t": 136857.00599999912,
      "d": 77.38087499997346,
      "v": 71
    },
    {
      "midi": 83,
      "hit": false,
      "t": 136859.98218749912,
      "d": 77.38087499997346,
      "v": 74
    },
    {
      "midi": 79,
      "hit": false,
      "t": 137020.6963124991,
      "d": 113.09512499999255,
      "v": 74
    },
    {
      "midi": 76,
      "hit": false,
      "t": 137023.67249999908,
      "d": 122.02368749998277,
      "v": 68
    },
    {
      "midi": 83,
      "hit": false,
      "t": 137026.64868749908,
      "d": 136.90462499999558,
      "v": 75
    },
    {
      "midi": 48,
      "hit": false,
      "t": 137142.71999999907,
      "d": 544.6423125000147,
      "v": 80
    },
    {
      "midi": 79,
      "hit": false,
      "t": 137422.48162499908,
      "d": 306.5473125000135,
      "v": 83
    },
    {
      "midi": 84,
      "hit": false,
      "t": 137422.48162499908,
      "d": 312.499687500007,
      "v": 81
    },
    {
      "midi": 76,
      "hit": false,
      "t": 137425.45781249908,
      "d": 309.52350000001024,
      "v": 75
    },
    {
      "midi": 43,
      "hit": false,
      "t": 137708.1956249991,
      "d": 568.4518124999595,
      "v": 78
    },
    {
      "midi": 76,
      "hit": false,
      "t": 137877.83831249908,
      "d": 53.571374999999534,
      "v": 74
    },
    {
      "midi": 79,
      "hit": false,
      "t": 137883.79068749907,
      "d": 50.595187500002794,
      "v": 82
    },
    {
      "midi": 84,
      "hit": false,
      "t": 137883.79068749907,
      "d": 59.523749999993015,
      "v": 81
    },
    {
      "midi": 79,
      "hit": false,
      "t": 137996.88581249907,
      "d": 65.4761249999865,
      "v": 74
    },
    {
      "midi": 76,
      "hit": false,
      "t": 137999.86199999906,
      "d": 80.3570624999993,
      "v": 70
    },
    {
      "midi": 84,
      "hit": false,
      "t": 137999.86199999906,
      "d": 80.3570624999993,
      "v": 73
    },
    {
      "midi": 76,
      "hit": false,
      "t": 138163.55231249906,
      "d": 130.9522500000021,
      "v": 74
    },
    {
      "midi": 84,
      "hit": false,
      "t": 138166.52849999905,
      "d": 136.90462499999558,
      "v": 75
    },
    {
      "midi": 79,
      "hit": false,
      "t": 138169.50468749905,
      "d": 110.11893749999581,
      "v": 75
    },
    {
      "midi": 38,
      "hit": false,
      "t": 138279.62362499905,
      "d": 568.4518124999886,
      "v": 79
    },
    {
      "midi": 78,
      "hit": false,
      "t": 138571.28999999905,
      "d": 318.45206249997136,
      "v": 77
    },
    {
      "midi": 84,
      "hit": false,
      "t": 138571.28999999905,
      "d": 360.11868749995483,
      "v": 82
    },
    {
      "midi": 74,
      "hit": false,
      "t": 138574.26618749904,
      "d": 348.21393749996787,
      "v": 81
    },
    {
      "midi": 45,
      "hit": false,
      "t": 138854.02781249903,
      "d": 550.5946874999499,
      "v": 80
    },
    {
      "midi": 78,
      "hit": false,
      "t": 139020.694312499,
      "d": 383.92818749998696,
      "v": 76
    },
    {
      "midi": 84,
      "hit": false,
      "t": 139020.694312499,
      "d": 383.92818749998696,
      "v": 82
    },
    {
      "midi": 74,
      "hit": false,
      "t": 139023.670499999,
      "d": 380.9519999999902,
      "v": 78
    },
    {
      "midi": 43,
      "hit": false,
      "t": 139431.40818749898,
      "d": 270.8330624999944,
      "v": 80
    },
    {
      "midi": 55,
      "hit": false,
      "t": 139708.19362499897,
      "d": 270.8330624999944,
      "v": 85
    },
    {
      "midi": 71,
      "hit": false,
      "t": 139708.19362499897,
      "d": 303.57112499998766,
      "v": 85
    },
    {
      "midi": 62,
      "hit": false,
      "t": 139711.16981249896,
      "d": 244.04737499999464,
      "v": 85
    },
    {
      "midi": 67,
      "hit": false,
      "t": 139714.14599999896,
      "d": 285.7140000000072,
      "v": 85
    },
    {
      "midi": 43,
      "hit": false,
      "t": 140002.83618749896,
      "d": 291.6663749999716,
      "v": 69
    },
    {
      "midi": 62,
      "hit": false,
      "t": 140169.50268749896,
      "d": 196.4283749999886,
      "v": 93
    },
    {
      "midi": 67,
      "hit": false,
      "t": 140285.57399999895,
      "d": 247.02356249999139,
      "v": 102
    },
    {
      "midi": 71,
      "hit": false,
      "t": 140285.57399999895,
      "d": 255.9521249999816,
      "v": 99
    },
    {
      "midi": 55,
      "hit": false,
      "t": 140288.55018749894,
      "d": 279.76162499998463,
      "v": 82
    },
    {
      "midi": 62,
      "hit": false,
      "t": 140449.26431249894,
      "d": 56.547562499996275,
      "v": 10
    },
    {
      "midi": 43,
      "hit": false,
      "t": 140571.28799999892,
      "d": 244.04737499999464,
      "v": 82
    },
    {
      "midi": 71,
      "hit": false,
      "t": 140851.0496249989,
      "d": 330.3568124999874,
      "v": 87
    },
    {
      "midi": 38,
      "hit": false,
      "t": 140854.0258124989,
      "d": 294.64256249999744,
      "v": 85
    },
    {
      "midi": 67,
      "hit": false,
      "t": 140857.0019999989,
      "d": 303.57112499998766,
      "v": 87
    },
    {
      "midi": 62,
      "hit": false,
      "t": 140859.9781874989,
      "d": 264.88068750000093,
      "v": 99
    },
    {
      "midi": 40,
      "hit": false,
      "t": 141145.6921874989,
      "d": 330.3568124999874,
      "v": 82
    },
    {
      "midi": 62,
      "hit": false,
      "t": 141309.3824999989,
      "d": 181.5474375000049,
      "v": 96
    },
    {
      "midi": 67,
      "hit": false,
      "t": 141422.4776249989,
      "d": 214.28550000002724,
      "v": 96
    },
    {
      "midi": 71,
      "hit": false,
      "t": 141428.4299999989,
      "d": 217.26168750002398,
      "v": 99
    },
    {
      "midi": 42,
      "hit": false,
      "t": 141431.40618749888,
      "d": 300.5949375000491,
      "v": 80
    },
    {
      "midi": 62,
      "hit": false,
      "t": 141589.14412499891,
      "d": 104.16656250000233,
      "v": 82
    },
    {
      "midi": 43,
      "hit": false,
      "t": 141714.14399999892,
      "d": 532.7375624999986,
      "v": 84
    },
    {
      "midi": 74,
      "hit": false,
      "t": 141996.88181249893,
      "d": 279.76162500001374,
      "v": 74
    },
    {
      "midi": 83,
      "hit": false,
      "t": 141996.88181249893,
      "d": 279.76162500001374,
      "v": 74
    },
    {
      "midi": 79,
      "hit": false,
      "t": 141999.85799999893,
      "d": 261.9045000000042,
      "v": 79
    },
    {
      "midi": 50,
      "hit": false,
      "t": 142279.61962499894,
      "d": 553.5708750000049,
      "v": 79
    },
    {
      "midi": 83,
      "hit": false,
      "t": 142568.30981249895,
      "d": 363.0948750000098,
      "v": 74
    },
    {
      "midi": 79,
      "hit": false,
      "t": 142571.28599999895,
      "d": 354.16631250001956,
      "v": 78
    },
    {
      "midi": 74,
      "hit": false,
      "t": 142574.26218749894,
      "d": 354.16631250001956,
      "v": 73
    },
    {
      "midi": 42,
      "hit": false,
      "t": 142854.02381249896,
      "d": 523.8090000000084,
      "v": 83
    },
    {
      "midi": 83,
      "hit": false,
      "t": 143136.76162499897,
      "d": 351.1901249999937,
      "v": 74
    },
    {
      "midi": 74,
      "hit": false,
      "t": 143142.71399999896,
      "d": 345.23775000000023,
      "v": 73
    },
    {
      "midi": 78,
      "hit": false,
      "t": 143145.69018749896,
      "d": 348.213937499997,
      "v": 76
    },
    {
      "midi": 50,
      "hit": false,
      "t": 143422.47562499897,
      "d": 568.4518124999595,
      "v": 80
    },
    {
      "midi": 83,
      "hit": false,
      "t": 143589.14212499897,
      "d": 71.42850000000908,
      "v": 78
    },
    {
      "midi": 74,
      "hit": false,
      "t": 143592.11831249896,
      "d": 74.40468750000582,
      "v": 69
    },
    {
      "midi": 78,
      "hit": false,
      "t": 143598.07068749896,
      "d": 44.64281250000931,
      "v": 73
    },
    {
      "midi": 74,
      "hit": false,
      "t": 143717.11818749897,
      "d": 62.499937499989755,
      "v": 60
    },
    {
      "midi": 78,
      "hit": false,
      "t": 143717.11818749897,
      "d": 68.45231249998324,
      "v": 72
    },
    {
      "midi": 83,
      "hit": false,
      "t": 143717.11818749897,
      "d": 68.45231249998324,
      "v": 68
    },
    {
      "midi": 74,
      "hit": false,
      "t": 143874.85612499894,
      "d": 130.952249999973,
      "v": 69
    },
    {
      "midi": 78,
      "hit": false,
      "t": 143883.78468749893,
      "d": 104.16656250000233,
      "v": 76
    },
    {
      "midi": 83,
      "hit": false,
      "t": 143883.78468749893,
      "d": 130.952249999973,
      "v": 77
    },
    {
      "midi": 40,
      "hit": false,
      "t": 143993.90362499893,
      "d": 529.7613749999728,
      "v": 84
    },
    {
      "midi": 79,
      "hit": false,
      "t": 144282.5938124989,
      "d": 273.80924999999115,
      "v": 79
    },
    {
      "midi": 83,
      "hit": false,
      "t": 144285.5699999989,
      "d": 288.69018749997485,
      "v": 74
    },
    {
      "midi": 76,
      "hit": false,
      "t": 144288.5461874989,
      "d": 285.7139999999781,
      "v": 74
    },
    {
      "midi": 47,
      "hit": false,
      "t": 144568.30781249888,
      "d": 538.6899374999921,
      "v": 80
    },
    {
      "midi": 83,
      "hit": false,
      "t": 144854.0218124989,
      "d": 95.237999999983,
      "v": 83
    },
    {
      "midi": 76,
      "hit": false,
      "t": 144856.9979999989,
      "d": 86.30943749999278,
      "v": 76
    },
    {
      "midi": 79,
      "hit": false,
      "t": 144859.97418749888,
      "d": 86.30943749999278,
      "v": 79
    },
    {
      "midi": 45,
      "hit": false,
      "t": 145145.68818749886,
      "d": 568.4518124999886,
      "v": 81
    },
    {
      "midi": 76,
      "hit": false,
      "t": 145148.66437499886,
      "d": 1151.78456249999,
      "v": 74
    },
    {
      "midi": 79,
      "hit": false,
      "t": 145151.64056249885,
      "d": 1151.78456249999,
      "v": 81
    },
    {
      "midi": 81,
      "hit": false,
      "t": 145157.59293749885,
      "d": 1151.78456249999,
      "v": 82
    },
    {
      "midi": 79,
      "hit": false,
      "t": 149422.46962499883,
      "d": 74.40468749997672,
      "v": 75
    },
    {
      "midi": 76,
      "hit": false,
      "t": 149428.42199999883,
      "d": 77.38087499997346,
      "v": 71
    },
    {
      "midi": 83,
      "hit": false,
      "t": 149431.39818749882,
      "d": 77.38087499997346,
      "v": 74
    },
    {
      "midi": 79,
      "hit": false,
      "t": 149592.1123124988,
      "d": 113.09512499999255,
      "v": 74
    },
    {
      "midi": 76,
      "hit": false,
      "t": 149595.0884999988,
      "d": 122.02368749998277,
      "v": 68
    },
    {
      "midi": 83,
      "hit": false,
      "t": 149598.0646874988,
      "d": 136.90462499999558,
      "v": 75
    },
    {
      "midi": 48,
      "hit": false,
      "t": 149714.13599999878,
      "d": 544.6423125000147,
      "v": 80
    },
    {
      "midi": 79,
      "hit": false,
      "t": 149993.8976249988,
      "d": 306.5473125000135,
      "v": 83
    },
    {
      "midi": 84,
      "hit": false,
      "t": 149993.8976249988,
      "d": 312.499687500007,
      "v": 81
    },
    {
      "midi": 76,
      "hit": false,
      "t": 149996.8738124988,
      "d": 309.52350000001024,
      "v": 75
    },
    {
      "midi": 43,
      "hit": false,
      "t": 150279.6116249988,
      "d": 568.4518124999595,
      "v": 78
    },
    {
      "midi": 76,
      "hit": false,
      "t": 150449.2543124988,
      "d": 53.571374999999534,
      "v": 74
    },
    {
      "midi": 79,
      "hit": false,
      "t": 150455.20668749878,
      "d": 50.595187500002794,
      "v": 82
    },
    {
      "midi": 84,
      "hit": false,
      "t": 150455.20668749878,
      "d": 59.523749999993015,
      "v": 81
    },
    {
      "midi": 79,
      "hit": false,
      "t": 150568.30181249877,
      "d": 65.4761249999865,
      "v": 74
    },
    {
      "midi": 76,
      "hit": false,
      "t": 150571.27799999877,
      "d": 80.3570624999993,
      "v": 70
    },
    {
      "midi": 84,
      "hit": false,
      "t": 150571.27799999877,
      "d": 80.3570624999993,
      "v": 73
    },
    {
      "midi": 76,
      "hit": false,
      "t": 150734.96831249876,
      "d": 130.9522500000021,
      "v": 74
    },
    {
      "midi": 84,
      "hit": false,
      "t": 150737.94449999876,
      "d": 136.90462499999558,
      "v": 75
    },
    {
      "midi": 79,
      "hit": false,
      "t": 150740.92068749876,
      "d": 110.11893749999581,
      "v": 75
    },
    {
      "midi": 38,
      "hit": false,
      "t": 150851.03962499875,
      "d": 568.4518124999886,
      "v": 79
    },
    {
      "midi": 78,
      "hit": false,
      "t": 151142.70599999875,
      "d": 318.45206249997136,
      "v": 77
    },
    {
      "midi": 84,
      "hit": false,
      "t": 151142.70599999875,
      "d": 360.11868749995483,
      "v": 82
    },
    {
      "midi": 74,
      "hit": false,
      "t": 151145.68218749875,
      "d": 348.21393749996787,
      "v": 81
    },
    {
      "midi": 45,
      "hit": false,
      "t": 151425.44381249874,
      "d": 550.5946874999499,
      "v": 80
    },
    {
      "midi": 78,
      "hit": false,
      "t": 151592.1103124987,
      "d": 383.92818749998696,
      "v": 76
    },
    {
      "midi": 84,
      "hit": false,
      "t": 151592.1103124987,
      "d": 383.92818749998696,
      "v": 82
    },
    {
      "midi": 74,
      "hit": false,
      "t": 151595.0864999987,
      "d": 380.9519999999902,
      "v": 78
    },
    {
      "midi": 79,
      "hit": false,
      "t": 152002.82418749869,
      "d": 181.5474375000049,
      "v": 111
    },
    {
      "midi": 83,
      "hit": false,
      "t": 152002.82418749869,
      "d": 181.5474375000049,
      "v": 111
    },
    {
      "midi": 78,
      "hit": false,
      "t": 152142.70499999868,
      "d": 190.47600000002421,
      "v": 91
    },
    {
      "midi": 81,
      "hit": false,
      "t": 152142.70499999868,
      "d": 190.47600000002421,
      "v": 91
    },
    {
      "midi": 76,
      "hit": false,
      "t": 152285.5619999987,
      "d": 133.92843749999884,
      "v": 74
    },
    {
      "midi": 79,
      "hit": false,
      "t": 152285.5619999987,
      "d": 133.92843749999884,
      "v": 74
    },
    {
      "midi": 74,
      "hit": false,
      "t": 152428.41899999868,
      "d": 154.76174999997602,
      "v": 101
    },
    {
      "midi": 78,
      "hit": false,
      "t": 152428.41899999868,
      "d": 154.76174999997602,
      "v": 101
    },
    {
      "midi": 72,
      "hit": false,
      "t": 152571.27599999867,
      "d": 113.09512499999255,
      "v": 93
    },
    {
      "midi": 76,
      "hit": false,
      "t": 152571.27599999867,
      "d": 113.09512499999255,
      "v": 93
    },
    {
      "midi": 71,
      "hit": false,
      "t": 152714.13299999866,
      "d": 116.07131249998929,
      "v": 95
    },
    {
      "midi": 74,
      "hit": false,
      "t": 152714.13299999866,
      "d": 116.07131249998929,
      "v": 95
    },
    {
      "midi": 69,
      "hit": false,
      "t": 152856.98999999865,
      "d": 122.02368750001187,
      "v": 95
    },
    {
      "midi": 72,
      "hit": false,
      "t": 152856.98999999865,
      "d": 122.02368750001187,
      "v": 95
    },
    {
      "midi": 67,
      "hit": false,
      "t": 152999.84699999867,
      "d": 157.73793750000186,
      "v": 93
    },
    {
      "midi": 71,
      "hit": false,
      "t": 152999.84699999867,
      "d": 157.73793750000186,
      "v": 93
    },
    {
      "midi": 69,
      "hit": false,
      "t": 153142.70399999866,
      "d": 151.78556250000838,
      "v": 113
    },
    {
      "midi": 72,
      "hit": false,
      "t": 153142.70399999866,
      "d": 151.78556250000838,
      "v": 113
    },
    {
      "midi": 67,
      "hit": false,
      "t": 153285.56099999868,
      "d": 166.66649999999208,
      "v": 113
    },
    {
      "midi": 71,
      "hit": false,
      "t": 153285.56099999868,
      "d": 166.66649999999208,
      "v": 113
    },
    {
      "midi": 62,
      "hit": false,
      "t": 153428.41799999867,
      "d": 267.8568749999977,
      "v": 122
    },
    {
      "midi": 69,
      "hit": false,
      "t": 153428.41799999867,
      "d": 267.8568749999977,
      "v": 122
    },
    {
      "midi": 62,
      "hit": false,
      "t": 153714.13199999867,
      "d": 291.6663750000007,
      "v": 122
    },
    {
      "midi": 67,
      "hit": false,
      "t": 153714.13199999867,
      "d": 291.6663750000007,
      "v": 122
    }
  ]
}