{
  "jsonPath": "Rock/Classic Garage Rock/The Association/along-comes-mary.json",
  "path": "Rock\\Classic Garage Rock\\The Association\\Along Comes Mary.mid",
  "name": "Along Comes Mary",
  "difficulty": "Advanced",
  "bpm": 140.00014000014,
  "notes": [
    {
      "midi": 64,
      "hit": false,
      "t": 3428.568,
      "d": 1560.7127250000003,
      "v": 50
    },
    {
      "midi": 72,
      "hit": false,
      "t": 3428.568,
      "d": 1635.7126500000004,
      "v": 61
    },
    {
      "midi": 69,
      "hit": false,
      "t": 3428.568,
      "d": 1649.9983500000008,
      "v": 43
    },
    {
      "midi": 45,
      "hit": false,
      "t": 3460.710825,
      "d": 1278.5701500000005,
      "v": 68
    },
    {
      "midi": 45,
      "hit": false,
      "t": 4928.566500000001,
      "d": 942.8562000000011,
      "v": 55
    },
    {
      "midi": 72,
      "hit": false,
      "t": 5142.852000000001,
      "d": 89.28562500000044,
      "v": 67
    },
    {
      "midi": 64,
      "hit": false,
      "t": 5142.852000000001,
      "d": 110.71417500000007,
      "v": 52
    },
    {
      "midi": 69,
      "hit": false,
      "t": 5142.852000000001,
      "d": 124.99987500000043,
      "v": 55
    },
    {
      "midi": 72,
      "hit": false,
      "t": 5357.137500000002,
      "d": 110.71417500000007,
      "v": 51
    },
    {
      "midi": 69,
      "hit": false,
      "t": 5357.137500000002,
      "d": 132.1427249999997,
      "v": 63
    },
    {
      "midi": 64,
      "hit": false,
      "t": 5357.137500000002,
      "d": 139.28557499999988,
      "v": 49
    },
    {
      "midi": 72,
      "hit": false,
      "t": 5785.708500000002,
      "d": 146.42842500000006,
      "v": 65
    },
    {
      "midi": 69,
      "hit": false,
      "t": 5785.708500000002,
      "d": 157.14270000000033,
      "v": 70
    },
    {
      "midi": 64,
      "hit": false,
      "t": 5785.708500000002,
      "d": 178.57124999999996,
      "v": 70
    },
    {
      "midi": 45,
      "hit": false,
      "t": 6214.2795000000015,
      "d": 239.28547499999968,
      "v": 78
    },
    {
      "midi": 72,
      "hit": false,
      "t": 6428.565000000001,
      "d": 149.99985000000015,
      "v": 72
    },
    {
      "midi": 64,
      "hit": false,
      "t": 6428.565000000001,
      "d": 182.14267500000005,
      "v": 80
    },
    {
      "midi": 69,
      "hit": false,
      "t": 6428.565000000001,
      "d": 182.14267500000005,
      "v": 78
    },
    {
      "midi": 57,
      "hit": false,
      "t": 6857.136000000001,
      "d": 1514.284200000001,
      "v": 75
    },
    {
      "midi": 50,
      "hit": false,
      "t": 6871.421700000002,
      "d": 1474.998525,
      "v": 68
    },
    {
      "midi": 62,
      "hit": false,
      "t": 7714.278000000002,
      "d": 457.1423999999997,
      "v": 69
    },
    {
      "midi": 66,
      "hit": false,
      "t": 7928.563500000002,
      "d": 282.14257499999985,
      "v": 56
    },
    {
      "midi": 69,
      "hit": false,
      "t": 8142.849000000002,
      "d": 239.2854750000006,
      "v": 58
    },
    {
      "midi": 74,
      "hit": false,
      "t": 8357.134500000002,
      "d": 214.28549999999996,
      "v": 47
    },
    {
      "midi": 57,
      "hit": false,
      "t": 8571.420000000002,
      "d": 57.14280000000144,
      "v": 60
    },
    {
      "midi": 62,
      "hit": false,
      "t": 8571.420000000002,
      "d": 57.14280000000144,
      "v": 60
    },
    {
      "midi": 66,
      "hit": false,
      "t": 8571.420000000002,
      "d": 57.14280000000144,
      "v": 60
    },
    {
      "midi": 50,
      "hit": false,
      "t": 8592.848550000002,
      "d": 1582.1412750000018,
      "v": 68
    },
    {
      "midi": 57,
      "hit": false,
      "t": 8785.705500000004,
      "d": 139.28557499999988,
      "v": 66
    },
    {
      "midi": 62,
      "hit": false,
      "t": 8785.705500000004,
      "d": 139.28557499999988,
      "v": 66
    },
    {
      "midi": 66,
      "hit": false,
      "t": 8785.705500000004,
      "d": 139.28557499999988,
      "v": 66
    },
    {
      "midi": 57,
      "hit": false,
      "t": 9214.276500000004,
      "d": 867.8562750000001,
      "v": 77
    },
    {
      "midi": 62,
      "hit": false,
      "t": 9214.276500000004,
      "d": 867.8562750000001,
      "v": 77
    },
    {
      "midi": 66,
      "hit": false,
      "t": 9214.276500000004,
      "d": 867.8562750000001,
      "v": 77
    },
    {
      "midi": 45,
      "hit": false,
      "t": 10307.132550000004,
      "d": 378.57105000000047,
      "v": 65
    },
    {
      "midi": 57,
      "hit": false,
      "t": 10499.989500000003,
      "d": 164.2855500000005,
      "v": 64
    },
    {
      "midi": 60,
      "hit": false,
      "t": 10499.989500000003,
      "d": 164.2855500000005,
      "v": 64
    },
    {
      "midi": 64,
      "hit": false,
      "t": 10499.989500000003,
      "d": 164.2855500000005,
      "v": 64
    },
    {
      "midi": 45,
      "hit": false,
      "t": 10928.560500000005,
      "d": 249.99975000000086,
      "v": 69
    },
    {
      "midi": 57,
      "hit": false,
      "t": 11142.846000000005,
      "d": 249.99975000000086,
      "v": 62
    },
    {
      "midi": 60,
      "hit": false,
      "t": 11142.846000000005,
      "d": 249.99975000000086,
      "v": 62
    },
    {
      "midi": 64,
      "hit": false,
      "t": 11142.846000000005,
      "d": 249.99975000000086,
      "v": 62
    },
    {
      "midi": 57,
      "hit": false,
      "t": 11571.417000000007,
      "d": 135.7141499999998,
      "v": 64
    },
    {
      "midi": 60,
      "hit": false,
      "t": 11571.417000000007,
      "d": 135.7141499999998,
      "v": 64
    },
    {
      "midi": 64,
      "hit": false,
      "t": 11571.417000000007,
      "d": 135.7141499999998,
      "v": 64
    },
    {
      "midi": 54,
      "hit": false,
      "t": 11785.702500000007,
      "d": 1032.1418250000006,
      "v": 69
    },
    {
      "midi": 59,
      "hit": false,
      "t": 11785.702500000007,
      "d": 1032.1418250000006,
      "v": 69
    },
    {
      "midi": 62,
      "hit": false,
      "t": 11785.702500000007,
      "d": 1032.1418250000006,
      "v": 69
    },
    {
      "midi": 45,
      "hit": false,
      "t": 11799.988200000007,
      "d": 1771.4267999999993,
      "v": 70
    },
    {
      "midi": 71,
      "hit": false,
      "t": 12867.844275000007,
      "d": 728.5707000000002,
      "v": 70
    },
    {
      "midi": 66,
      "hit": false,
      "t": 13071.415500000006,
      "d": 557.1423000000013,
      "v": 54
    },
    {
      "midi": 59,
      "hit": false,
      "t": 13499.986500000006,
      "d": 207.1426500000016,
      "v": 61
    },
    {
      "midi": 60,
      "hit": false,
      "t": 13714.272000000008,
      "d": 149.99985000000015,
      "v": 67
    },
    {
      "midi": 64,
      "hit": false,
      "t": 13714.272000000008,
      "d": 149.99985000000015,
      "v": 67
    },
    {
      "midi": 67,
      "hit": false,
      "t": 13714.272000000008,
      "d": 149.99985000000015,
      "v": 67
    },
    {
      "midi": 69,
      "hit": false,
      "t": 13714.272000000008,
      "d": 149.99985000000015,
      "v": 67
    },
    {
      "midi": 45,
      "hit": false,
      "t": 13717.843425000008,
      "d": 1460.7128250000005,
      "v": 68
    },
    {
      "midi": 60,
      "hit": false,
      "t": 13928.557500000008,
      "d": 121.42844999999943,
      "v": 62
    },
    {
      "midi": 64,
      "hit": false,
      "t": 13928.557500000008,
      "d": 121.42844999999943,
      "v": 62
    },
    {
      "midi": 67,
      "hit": false,
      "t": 13928.557500000008,
      "d": 121.42844999999943,
      "v": 62
    },
    {
      "midi": 69,
      "hit": false,
      "t": 13928.557500000008,
      "d": 121.42844999999943,
      "v": 62
    },
    {
      "midi": 60,
      "hit": false,
      "t": 14357.128500000008,
      "d": 674.9993250000007,
      "v": 62
    },
    {
      "midi": 64,
      "hit": false,
      "t": 14357.128500000008,
      "d": 674.9993250000007,
      "v": 62
    },
    {
      "midi": 67,
      "hit": false,
      "t": 14357.128500000008,
      "d": 674.9993250000007,
      "v": 62
    },
    {
      "midi": 69,
      "hit": false,
      "t": 14357.128500000008,
      "d": 674.9993250000007,
      "v": 62
    },
    {
      "midi": 45,
      "hit": false,
      "t": 15235.699050000008,
      "d": 585.7137000000002,
      "v": 65
    },
    {
      "midi": 54,
      "hit": false,
      "t": 15642.841500000008,
      "d": 164.2855500000005,
      "v": 64
    },
    {
      "midi": 59,
      "hit": false,
      "t": 15642.841500000008,
      "d": 164.2855500000005,
      "v": 64
    },
    {
      "midi": 62,
      "hit": false,
      "t": 15642.841500000008,
      "d": 164.2855500000005,
      "v": 64
    },
    {
      "midi": 45,
      "hit": false,
      "t": 16071.41250000001,
      "d": 249.99975000000086,
      "v": 69
    },
    {
      "midi": 54,
      "hit": false,
      "t": 16285.69800000001,
      "d": 249.99975000000086,
      "v": 62
    },
    {
      "midi": 59,
      "hit": false,
      "t": 16285.69800000001,
      "d": 249.99975000000086,
      "v": 62
    },
    {
      "midi": 62,
      "hit": false,
      "t": 16285.69800000001,
      "d": 249.99975000000086,
      "v": 62
    },
    {
      "midi": 54,
      "hit": false,
      "t": 16714.26900000001,
      "d": 135.7141499999998,
      "v": 64
    },
    {
      "midi": 59,
      "hit": false,
      "t": 16714.26900000001,
      "d": 135.7141499999998,
      "v": 64
    },
    {
      "midi": 62,
      "hit": false,
      "t": 16714.26900000001,
      "d": 135.7141499999998,
      "v": 64
    },
    {
      "midi": 45,
      "hit": false,
      "t": 17164.26855000001,
      "d": 378.5710500000023,
      "v": 65
    },
    {
      "midi": 57,
      "hit": false,
      "t": 17357.125500000013,
      "d": 164.2855500000005,
      "v": 64
    },
    {
      "midi": 60,
      "hit": false,
      "t": 17357.125500000013,
      "d": 164.2855500000005,
      "v": 64
    },
    {
      "midi": 64,
      "hit": false,
      "t": 17357.125500000013,
      "d": 164.2855500000005,
      "v": 64
    },
    {
      "midi": 45,
      "hit": false,
      "t": 17785.696500000013,
      "d": 249.99975000000268,
      "v": 69
    },
    {
      "midi": 57,
      "hit": false,
      "t": 17999.982000000015,
      "d": 249.99975000000268,
      "v": 62
    },
    {
      "midi": 60,
      "hit": false,
      "t": 17999.982000000015,
      "d": 249.99975000000268,
      "v": 62
    },
    {
      "midi": 64,
      "hit": false,
      "t": 17999.982000000015,
      "d": 249.99975000000268,
      "v": 62
    },
    {
      "midi": 57,
      "hit": false,
      "t": 18428.553000000018,
      "d": 135.7141499999998,
      "v": 64
    },
    {
      "midi": 60,
      "hit": false,
      "t": 18428.553000000018,
      "d": 135.7141499999998,
      "v": 64
    },
    {
      "midi": 64,
      "hit": false,
      "t": 18428.553000000018,
      "d": 135.7141499999998,
      "v": 64
    },
    {
      "midi": 57,
      "hit": false,
      "t": 18857.124000000018,
      "d": 1096.4274750000004,
      "v": 71
    },
    {
      "midi": 66,
      "hit": false,
      "t": 18857.124000000018,
      "d": 1096.4274750000004,
      "v": 71
    },
    {
      "midi": 45,
      "hit": false,
      "t": 18871.40970000002,
      "d": 1546.4270250000009,
      "v": 72
    },
    {
      "midi": 62,
      "hit": false,
      "t": 19714.266000000018,
      "d": 239.2854750000006,
      "v": 60
    },
    {
      "midi": 69,
      "hit": false,
      "t": 20142.837000000018,
      "d": 332.14252500000293,
      "v": 66
    },
    {
      "midi": 74,
      "hit": false,
      "t": 20357.12250000002,
      "d": 207.1426500000016,
      "v": 63
    },
    {
      "midi": 60,
      "hit": false,
      "t": 20571.40800000002,
      "d": 671.4279000000024,
      "v": 62
    },
    {
      "midi": 64,
      "hit": false,
      "t": 20571.40800000002,
      "d": 671.4279000000024,
      "v": 62
    },
    {
      "midi": 67,
      "hit": false,
      "t": 20571.40800000002,
      "d": 671.4279000000024,
      "v": 62
    },
    {
      "midi": 69,
      "hit": false,
      "t": 20571.40800000002,
      "d": 671.4279000000024,
      "v": 62
    },
    {
      "midi": 45,
      "hit": false,
      "t": 20592.83655000002,
      "d": 421.42814999999973,
      "v": 68
    },
    {
      "midi": 45,
      "hit": false,
      "t": 21214.264500000023,
      "d": 239.2854750000006,
      "v": 55
    },
    {
      "midi": 60,
      "hit": false,
      "t": 21428.550000000025,
      "d": 289.2854249999982,
      "v": 60
    },
    {
      "midi": 64,
      "hit": false,
      "t": 21428.550000000025,
      "d": 289.2854249999982,
      "v": 60
    },
    {
      "midi": 67,
      "hit": false,
      "t": 21428.550000000025,
      "d": 289.2854249999982,
      "v": 60
    },
    {
      "midi": 69,
      "hit": false,
      "t": 21428.550000000025,
      "d": 289.2854249999982,
      "v": 60
    },
    {
      "midi": 60,
      "hit": false,
      "t": 21857.121000000025,
      "d": 146.42842499999824,
      "v": 75
    },
    {
      "midi": 64,
      "hit": false,
      "t": 21857.121000000025,
      "d": 146.42842499999824,
      "v": 75
    },
    {
      "midi": 67,
      "hit": false,
      "t": 21857.121000000025,
      "d": 146.42842499999824,
      "v": 75
    },
    {
      "midi": 69,
      "hit": false,
      "t": 21857.121000000025,
      "d": 146.42842499999824,
      "v": 75
    },
    {
      "midi": 57,
      "hit": false,
      "t": 22285.692000000025,
      "d": 1096.4274750000004,
      "v": 71
    },
    {
      "midi": 66,
      "hit": false,
      "t": 22285.692000000025,
      "d": 1096.4274750000004,
      "v": 71
    },
    {
      "midi": 45,
      "hit": false,
      "t": 22299.977700000025,
      "d": 1546.4270250000009,
      "v": 72
    },
    {
      "midi": 62,
      "hit": false,
      "t": 23142.834000000024,
      "d": 239.2854750000006,
      "v": 60
    },
    {
      "midi": 69,
      "hit": false,
      "t": 23571.405000000024,
      "d": 332.14252500000293,
      "v": 66
    },
    {
      "midi": 74,
      "hit": false,
      "t": 23785.690500000026,
      "d": 207.1426500000016,
      "v": 63
    },
    {
      "midi": 57,
      "hit": false,
      "t": 23999.976000000028,
      "d": 149.99985000000015,
      "v": 67
    },
    {
      "midi": 60,
      "hit": false,
      "t": 23999.976000000028,
      "d": 149.99985000000015,
      "v": 67
    },
    {
      "midi": 64,
      "hit": false,
      "t": 23999.976000000028,
      "d": 149.99985000000015,
      "v": 67
    },
    {
      "midi": 45,
      "hit": false,
      "t": 24014.26170000003,
      "d": 1574.9984250000016,
      "v": 68
    },
    {
      "midi": 57,
      "hit": false,
      "t": 24214.26150000003,
      "d": 121.42844999999943,
      "v": 62
    },
    {
      "midi": 60,
      "hit": false,
      "t": 24214.26150000003,
      "d": 121.42844999999943,
      "v": 62
    },
    {
      "midi": 64,
      "hit": false,
      "t": 24214.26150000003,
      "d": 121.42844999999943,
      "v": 62
    },
    {
      "midi": 57,
      "hit": false,
      "t": 24642.83250000003,
      "d": 674.9993250000007,
      "v": 62
    },
    {
      "midi": 60,
      "hit": false,
      "t": 24642.83250000003,
      "d": 674.9993250000007,
      "v": 62
    },
    {
      "midi": 64,
      "hit": false,
      "t": 24642.83250000003,
      "d": 674.9993250000007,
      "v": 62
    },
    {
      "midi": 57,
      "hit": false,
      "t": 25714.26000000003,
      "d": 1096.4274750000004,
      "v": 71
    },
    {
      "midi": 66,
      "hit": false,
      "t": 25714.26000000003,
      "d": 1096.4274750000004,
      "v": 71
    },
    {
      "midi": 45,
      "hit": false,
      "t": 25728.54570000003,
      "d": 1546.4270250000009,
      "v": 72
    },
    {
      "midi": 62,
      "hit": false,
      "t": 26571.40200000003,
      "d": 239.2854750000006,
      "v": 60
    },
    {
      "midi": 69,
      "hit": false,
      "t": 26999.97300000003,
      "d": 332.14252500000293,
      "v": 66
    },
    {
      "midi": 74,
      "hit": false,
      "t": 27214.258500000033,
      "d": 207.1426500000016,
      "v": 63
    },
    {
      "midi": 45,
      "hit": false,
      "t": 27449.972550000035,
      "d": 378.5710500000023,
      "v": 65
    },
    {
      "midi": 60,
      "hit": false,
      "t": 27642.829500000036,
      "d": 164.2855500000005,
      "v": 64
    },
    {
      "midi": 64,
      "hit": false,
      "t": 27642.829500000036,
      "d": 164.2855500000005,
      "v": 64
    },
    {
      "midi": 67,
      "hit": false,
      "t": 27642.829500000036,
      "d": 164.2855500000005,
      "v": 64
    },
    {
      "midi": 69,
      "hit": false,
      "t": 27642.829500000036,
      "d": 164.2855500000005,
      "v": 64
    },
    {
      "midi": 45,
      "hit": false,
      "t": 28071.400500000036,
      "d": 249.99975000000268,
      "v": 69
    },
    {
      "midi": 60,
      "hit": false,
      "t": 28285.686000000038,
      "d": 249.99975000000268,
      "v": 62
    },
    {
      "midi": 64,
      "hit": false,
      "t": 28285.686000000038,
      "d": 249.99975000000268,
      "v": 62
    },
    {
      "midi": 67,
      "hit": false,
      "t": 28285.686000000038,
      "d": 249.99975000000268,
      "v": 62
    },
    {
      "midi": 69,
      "hit": false,
      "t": 28285.686000000038,
      "d": 249.99975000000268,
      "v": 62
    },
    {
      "midi": 60,
      "hit": false,
      "t": 28714.25700000004,
      "d": 135.7141499999998,
      "v": 64
    },
    {
      "midi": 64,
      "hit": false,
      "t": 28714.25700000004,
      "d": 135.7141499999998,
      "v": 64
    },
    {
      "midi": 67,
      "hit": false,
      "t": 28714.25700000004,
      "d": 135.7141499999998,
      "v": 64
    },
    {
      "midi": 69,
      "hit": false,
      "t": 28714.25700000004,
      "d": 135.7141499999998,
      "v": 64
    },
    {
      "midi": 57,
      "hit": false,
      "t": 29142.82800000004,
      "d": 1096.4274750000004,
      "v": 71
    },
    {
      "midi": 66,
      "hit": false,
      "t": 29142.82800000004,
      "d": 1096.4274750000004,
      "v": 71
    },
    {
      "midi": 45,
      "hit": false,
      "t": 29157.11370000004,
      "d": 1546.4270250000009,
      "v": 72
    },
    {
      "midi": 62,
      "hit": false,
      "t": 29999.97000000004,
      "d": 239.2854750000006,
      "v": 60
    },
    {
      "midi": 69,
      "hit": false,
      "t": 30428.54100000004,
      "d": 332.14252500000293,
      "v": 66
    },
    {
      "midi": 74,
      "hit": false,
      "t": 30642.826500000043,
      "d": 207.1426500000016,
      "v": 63
    },
    {
      "midi": 56,
      "hit": false,
      "t": 30857.112000000045,
      "d": 778.5706500000015,
      "v": 68
    },
    {
      "midi": 59,
      "hit": false,
      "t": 30857.112000000045,
      "d": 778.5706500000015,
      "v": 68
    },
    {
      "midi": 64,
      "hit": false,
      "t": 30857.112000000045,
      "d": 778.5706500000015,
      "v": 68
    },
    {
      "midi": 52,
      "hit": false,
      "t": 30857.112000000045,
      "d": 782.1420749999997,
      "v": 73
    },
    {
      "midi": 45,
      "hit": false,
      "t": 31728.539700000045,
      "d": 782.1420750000034,
      "v": 73
    },
    {
      "midi": 57,
      "hit": false,
      "t": 31928.539500000046,
      "d": 464.2852500000008,
      "v": 68
    },
    {
      "midi": 61,
      "hit": false,
      "t": 31928.539500000046,
      "d": 464.2852500000008,
      "v": 68
    },
    {
      "midi": 64,
      "hit": false,
      "t": 31928.539500000046,
      "d": 464.2852500000008,
      "v": 68
    },
    {
      "midi": 59,
      "hit": false,
      "t": 32571.396000000048,
      "d": 778.5706499999978,
      "v": 68
    },
    {
      "midi": 62,
      "hit": false,
      "t": 32571.396000000048,
      "d": 778.5706499999978,
      "v": 68
    },
    {
      "midi": 64,
      "hit": false,
      "t": 32571.396000000048,
      "d": 778.5706499999978,
      "v": 68
    },
    {
      "midi": 68,
      "hit": false,
      "t": 32571.396000000048,
      "d": 778.5706499999978,
      "v": 68
    },
    {
      "midi": 52,
      "hit": false,
      "t": 32571.396000000048,
      "d": 782.1420749999997,
      "v": 73
    },
    {
      "midi": 45,
      "hit": false,
      "t": 33428.538000000044,
      "d": 335.71394999999757,
      "v": 69
    },
    {
      "midi": 57,
      "hit": false,
      "t": 33653.53777500004,
      "d": 396.4281750000009,
      "v": 64
    },
    {
      "midi": 64,
      "hit": false,
      "t": 33857.10900000004,
      "d": 249.9997499999954,
      "v": 79
    },
    {
      "midi": 52,
      "hit": false,
      "t": 34071.39450000004,
      "d": 214.28549999999814,
      "v": 68
    },
    {
      "midi": 56,
      "hit": false,
      "t": 34285.68000000004,
      "d": 778.5706500000015,
      "v": 68
    },
    {
      "midi": 59,
      "hit": false,
      "t": 34285.68000000004,
      "d": 778.5706500000015,
      "v": 68
    },
    {
      "midi": 64,
      "hit": false,
      "t": 34285.68000000004,
      "d": 778.5706500000015,
      "v": 68
    },
    {
      "midi": 52,
      "hit": false,
      "t": 34285.68000000004,
      "d": 782.1420750000034,
      "v": 73
    },
    {
      "midi": 45,
      "hit": false,
      "t": 35142.82200000004,
      "d": 335.71394999999757,
      "v": 69
    },
    {
      "midi": 57,
      "hit": false,
      "t": 35367.82177500003,
      "d": 396.4281750000009,
      "v": 64
    },
    {
      "midi": 64,
      "hit": false,
      "t": 35571.39300000003,
      "d": 249.9997499999954,
      "v": 79
    },
    {
      "midi": 52,
      "hit": false,
      "t": 35785.67850000003,
      "d": 214.28549999999814,
      "v": 68
    },
    {
      "midi": 59,
      "hit": false,
      "t": 35999.96400000003,
      "d": 778.5706500000015,
      "v": 68
    },
    {
      "midi": 62,
      "hit": false,
      "t": 35999.96400000003,
      "d": 778.5706500000015,
      "v": 68
    },
    {
      "midi": 64,
      "hit": false,
      "t": 35999.96400000003,
      "d": 778.5706500000015,
      "v": 68
    },
    {
      "midi": 68,
      "hit": false,
      "t": 35999.96400000003,
      "d": 778.5706500000015,
      "v": 68
    },
    {
      "midi": 52,
      "hit": false,
      "t": 35999.96400000003,
      "d": 782.1420750000034,
      "v": 73
    },
    {
      "midi": 45,
      "hit": false,
      "t": 36857.10600000003,
      "d": 335.71394999999757,
      "v": 67
    },
    {
      "midi": 64,
      "hit": false,
      "t": 37082.105775000025,
      "d": 396.4281750000009,
      "v": 62
    },
    {
      "midi": 57,
      "hit": false,
      "t": 37285.677000000025,
      "d": 249.9997499999954,
      "v": 77
    },
    {
      "midi": 52,
      "hit": false,
      "t": 37499.96250000002,
      "d": 214.28549999999814,
      "v": 77
    },
    {
      "midi": 52,
      "hit": false,
      "t": 37714.24800000002,
      "d": 214.28549999999814,
      "v": 69
    },
    {
      "midi": 71,
      "hit": false,
      "t": 37928.53350000002,
      "d": 224.9997749999966,
      "v": 79
    },
    {
      "midi": 56,
      "hit": false,
      "t": 38153.533275000016,
      "d": 185.71409999999742,
      "v": 64
    },
    {
      "midi": 59,
      "hit": false,
      "t": 38153.533275000016,
      "d": 185.71409999999742,
      "v": 64
    },
    {
      "midi": 64,
      "hit": false,
      "t": 38153.533275000016,
      "d": 185.71409999999742,
      "v": 64
    },
    {
      "midi": 45,
      "hit": false,
      "t": 38571.390000000014,
      "d": 335.71394999999757,
      "v": 69
    },
    {
      "midi": 57,
      "hit": false,
      "t": 38796.38977500001,
      "d": 396.4281750000009,
      "v": 64
    },
    {
      "midi": 64,
      "hit": false,
      "t": 38999.96100000001,
      "d": 249.9997499999954,
      "v": 79
    },
    {
      "midi": 52,
      "hit": false,
      "t": 39214.24650000001,
      "d": 214.28549999999814,
      "v": 68
    },
    {
      "midi": 50,
      "hit": false,
      "t": 39442.81770000001,
      "d": 603.5708249999952,
      "v": 73
    },
    {
      "midi": 57,
      "hit": false,
      "t": 39642.817500000005,
      "d": 403.57102499999746,
      "v": 68
    },
    {
      "midi": 62,
      "hit": false,
      "t": 39642.817500000005,
      "d": 403.57102499999746,
      "v": 68
    },
    {
      "midi": 66,
      "hit": false,
      "t": 39642.817500000005,
      "d": 403.57102499999746,
      "v": 68
    },
    {
      "midi": 55,
      "hit": false,
      "t": 40082.102775,
      "d": 974.9990249999973,
      "v": 68
    },
    {
      "midi": 59,
      "hit": false,
      "t": 40082.102775,
      "d": 974.9990249999973,
      "v": 68
    },
    {
      "midi": 62,
      "hit": false,
      "t": 40082.102775,
      "d": 974.9990249999973,
      "v": 68
    },
    {
      "midi": 43,
      "hit": false,
      "t": 40082.102775,
      "d": 978.5704499999993,
      "v": 73
    },
    {
      "midi": 47,
      "hit": false,
      "t": 41157.1017,
      "d": 782.1420749999961,
      "v": 73
    },
    {
      "midi": 54,
      "hit": false,
      "t": 41357.1015,
      "d": 464.2852500000008,
      "v": 68
    },
    {
      "midi": 59,
      "hit": false,
      "t": 41357.1015,
      "d": 464.2852500000008,
      "v": 68
    },
    {
      "midi": 63,
      "hit": false,
      "t": 41357.1015,
      "d": 464.2852500000008,
      "v": 68
    },
    {
      "midi": 56,
      "hit": false,
      "t": 41999.958,
      "d": 778.5706500000015,
      "v": 68
    },
    {
      "midi": 59,
      "hit": false,
      "t": 41999.958,
      "d": 778.5706500000015,
      "v": 68
    },
    {
      "midi": 64,
      "hit": false,
      "t": 41999.958,
      "d": 778.5706500000015,
      "v": 68
    },
    {
      "midi": 52,
      "hit": false,
      "t": 42003.529425,
      "d": 810.7134749999968,
      "v": 73
    },
    {
      "midi": 47,
      "hit": false,
      "t": 42857.1,
      "d": 214.28549999999814,
      "v": 69
    },
    {
      "midi": 66,
      "hit": false,
      "t": 43071.3855,
      "d": 224.9997749999966,
      "v": 79
    },
    {
      "midi": 54,
      "hit": false,
      "t": 43296.38527499999,
      "d": 185.71409999999742,
      "v": 64
    },
    {
      "midi": 59,
      "hit": false,
      "t": 43296.38527499999,
      "d": 185.71409999999742,
      "v": 64
    },
    {
      "midi": 63,
      "hit": false,
      "t": 43296.38527499999,
      "d": 185.71409999999742,
      "v": 64
    },
    {
      "midi": 56,
      "hit": false,
      "t": 43510.67077499999,
      "d": 974.9990249999973,
      "v": 68
    },
    {
      "midi": 59,
      "hit": false,
      "t": 43510.67077499999,
      "d": 974.9990249999973,
      "v": 68
    },
    {
      "midi": 64,
      "hit": false,
      "t": 43510.67077499999,
      "d": 974.9990249999973,
      "v": 68
    },
    {
      "midi": 52,
      "hit": false,
      "t": 43510.67077499999,
      "d": 978.5704499999993,
      "v": 73
    },
    {
      "midi": 47,
      "hit": false,
      "t": 44571.38399999999,
      "d": 214.28549999999814,
      "v": 69
    },
    {
      "midi": 66,
      "hit": false,
      "t": 44785.66949999999,
      "d": 224.9997749999966,
      "v": 79
    },
    {
      "midi": 54,
      "hit": false,
      "t": 45010.669274999986,
      "d": 185.71409999999742,
      "v": 64
    },
    {
      "midi": 59,
      "hit": false,
      "t": 45010.669274999986,
      "d": 185.71409999999742,
      "v": 64
    },
    {
      "midi": 63,
      "hit": false,
      "t": 45010.669274999986,
      "d": 185.71409999999742,
      "v": 64
    },
    {
      "midi": 52,
      "hit": false,
      "t": 45442.811699999984,
      "d": 782.1420749999961,
      "v": 73
    },
    {
      "midi": 56,
      "hit": false,
      "t": 45642.81149999998,
      "d": 464.2852500000008,
      "v": 68
    },
    {
      "midi": 59,
      "hit": false,
      "t": 45642.81149999998,
      "d": 464.2852500000008,
      "v": 68
    },
    {
      "midi": 64,
      "hit": false,
      "t": 45642.81149999998,
      "d": 464.2852500000008,
      "v": 68
    },
    {
      "midi": 57,
      "hit": false,
      "t": 46285.66799999998,
      "d": 778.5706500000015,
      "v": 68
    },
    {
      "midi": 61,
      "hit": false,
      "t": 46285.66799999998,
      "d": 778.5706500000015,
      "v": 68
    },
    {
      "midi": 66,
      "hit": false,
      "t": 46285.66799999998,
      "d": 778.5706500000015,
      "v": 68
    },
    {
      "midi": 45,
      "hit": false,
      "t": 46285.66799999998,
      "d": 782.1420750000034,
      "v": 73
    },
    {
      "midi": 45,
      "hit": false,
      "t": 47142.80999999998,
      "d": 335.71394999999757,
      "v": 67
    },
    {
      "midi": 66,
      "hit": false,
      "t": 47367.80977499998,
      "d": 396.4281750000009,
      "v": 62
    },
    {
      "midi": 59,
      "hit": false,
      "t": 47571.38099999998,
      "d": 249.9997499999954,
      "v": 77
    },
    {
      "midi": 54,
      "hit": false,
      "t": 47785.66649999998,
      "d": 214.28549999999814,
      "v": 77
    },
    {
      "midi": 61,
      "hit": false,
      "t": 47999.951999999976,
      "d": 1639.2840750000032,
      "v": 68
    },
    {
      "midi": 64,
      "hit": false,
      "t": 47999.951999999976,
      "d": 1639.2840750000032,
      "v": 68
    },
    {
      "midi": 67,
      "hit": false,
      "t": 47999.951999999976,
      "d": 1639.2840750000032,
      "v": 68
    },
    {
      "midi": 69,
      "hit": false,
      "t": 47999.951999999976,
      "d": 1639.2840750000032,
      "v": 68
    },
    {
      "midi": 45,
      "hit": false,
      "t": 48014.237699999976,
      "d": 1564.2841499999995,
      "v": 73
    },
    {
      "midi": 50,
      "hit": false,
      "t": 49728.521699999976,
      "d": 592.8565499999968,
      "v": 73
    },
    {
      "midi": 57,
      "hit": false,
      "t": 49928.52149999997,
      "d": 392.856749999999,
      "v": 68
    },
    {
      "midi": 62,
      "hit": false,
      "t": 49928.52149999997,
      "d": 392.856749999999,
      "v": 68
    },
    {
      "midi": 65,
      "hit": false,
      "t": 49928.52149999997,
      "d": 392.856749999999,
      "v": 68
    },
    {
      "midi": 59,
      "hit": false,
      "t": 50357.09249999997,
      "d": 596.4279749999987,
      "v": 68
    },
    {
      "midi": 62,
      "hit": false,
      "t": 50357.09249999997,
      "d": 596.4279749999987,
      "v": 68
    },
    {
      "midi": 64,
      "hit": false,
      "t": 50357.09249999997,
      "d": 596.4279749999987,
      "v": 68
    },
    {
      "midi": 67,
      "hit": false,
      "t": 50357.09249999997,
      "d": 596.4279749999987,
      "v": 68
    },
    {
      "midi": 52,
      "hit": false,
      "t": 50371.37819999997,
      "d": 607.1422499999971,
      "v": 73
    },
    {
      "midi": 57,
      "hit": false,
      "t": 50999.948999999964,
      "d": 389.2853249999971,
      "v": 68
    },
    {
      "midi": 60,
      "hit": false,
      "t": 50999.948999999964,
      "d": 389.2853249999971,
      "v": 68
    },
    {
      "midi": 65,
      "hit": false,
      "t": 50999.948999999964,
      "d": 389.2853249999971,
      "v": 68
    },
    {
      "midi": 53,
      "hit": false,
      "t": 51014.234699999965,
      "d": 399.99959999999555,
      "v": 73
    },
    {
      "midi": 57,
      "hit": false,
      "t": 51428.51999999996,
      "d": 149.99985000000015,
      "v": 73
    },
    {
      "midi": 60,
      "hit": false,
      "t": 51428.51999999996,
      "d": 149.99985000000015,
      "v": 73
    },
    {
      "midi": 65,
      "hit": false,
      "t": 51428.51999999996,
      "d": 149.99985000000015,
      "v": 73
    },
    {
      "midi": 53,
      "hit": false,
      "t": 51432.09142499996,
      "d": 1539.2841749999861,
      "v": 74
    },
    {
      "midi": 57,
      "hit": false,
      "t": 51642.80549999996,
      "d": 121.42844999999943,
      "v": 68
    },
    {
      "midi": 60,
      "hit": false,
      "t": 51642.80549999996,
      "d": 121.42844999999943,
      "v": 68
    },
    {
      "midi": 65,
      "hit": false,
      "t": 51642.80549999996,
      "d": 121.42844999999943,
      "v": 68
    },
    {
      "midi": 57,
      "hit": false,
      "t": 52071.376499999955,
      "d": 674.999324999997,
      "v": 68
    },
    {
      "midi": 60,
      "hit": false,
      "t": 52071.376499999955,
      "d": 674.999324999997,
      "v": 68
    },
    {
      "midi": 65,
      "hit": false,
      "t": 52071.376499999955,
      "d": 674.999324999997,
      "v": 68
    },
    {
      "midi": 50,
      "hit": false,
      "t": 53142.803999999946,
      "d": 617.8565250000029,
      "v": 73
    },
    {
      "midi": 57,
      "hit": false,
      "t": 53142.803999999946,
      "d": 617.8565250000029,
      "v": 68
    },
    {
      "midi": 62,
      "hit": false,
      "t": 53142.803999999946,
      "d": 617.8565250000029,
      "v": 68
    },
    {
      "midi": 65,
      "hit": false,
      "t": 53142.803999999946,
      "d": 617.8565250000029,
      "v": 68
    },
    {
      "midi": 57,
      "hit": false,
      "t": 53796.374774999946,
      "d": 974.9990249999973,
      "v": 68
    },
    {
      "midi": 62,
      "hit": false,
      "t": 53796.374774999946,
      "d": 974.9990249999973,
      "v": 68
    },
    {
      "midi": 66,
      "hit": false,
      "t": 53796.374774999946,
      "d": 974.9990249999973,
      "v": 68
    },
    {
      "midi": 50,
      "hit": false,
      "t": 53796.374774999946,
      "d": 978.5704499999993,
      "v": 73
    },
    {
      "midi": 57,
      "hit": false,
      "t": 54857.087999999945,
      "d": 1464.284249999997,
      "v": 68
    },
    {
      "midi": 60,
      "hit": false,
      "t": 54857.087999999945,
      "d": 1464.284249999997,
      "v": 68
    },
    {
      "midi": 64,
      "hit": false,
      "t": 54857.087999999945,
      "d": 1464.284249999997,
      "v": 68
    },
    {
      "midi": 45,
      "hit": false,
      "t": 54871.373699999946,
      "d": 1449.9985499999966,
      "v": 73
    },
    {
      "midi": 45,
      "hit": false,
      "t": 56378.51504999994,
      "d": 585.7137000000002,
      "v": 71
    },
    {
      "midi": 54,
      "hit": false,
      "t": 56785.65749999994,
      "d": 164.2855500000005,
      "v": 70
    },
    {
      "midi": 59,
      "hit": false,
      "t": 56785.65749999994,
      "d": 164.2855500000005,
      "v": 70
    },
    {
      "midi": 63,
      "hit": false,
      "t": 56785.65749999994,
      "d": 164.2855500000005,
      "v": 70
    },
    {
      "midi": 45,
      "hit": false,
      "t": 57214.22849999995,
      "d": 249.9997499999954,
      "v": 75
    },
    {
      "midi": 54,
      "hit": false,
      "t": 57428.513999999945,
      "d": 249.9997499999954,
      "v": 68
    },
    {
      "midi": 59,
      "hit": false,
      "t": 57428.513999999945,
      "d": 249.9997499999954,
      "v": 68
    },
    {
      "midi": 63,
      "hit": false,
      "t": 57428.513999999945,
      "d": 249.9997499999954,
      "v": 68
    },
    {
      "midi": 54,
      "hit": false,
      "t": 57857.08499999994,
      "d": 135.7141499999998,
      "v": 70
    },
    {
      "midi": 59,
      "hit": false,
      "t": 57857.08499999994,
      "d": 135.7141499999998,
      "v": 70
    },
    {
      "midi": 63,
      "hit": false,
      "t": 57857.08499999994,
      "d": 135.7141499999998,
      "v": 70
    },
    {
      "midi": 60,
      "hit": false,
      "t": 58285.65599999994,
      "d": 149.99985000000015,
      "v": 73
    },
    {
      "midi": 64,
      "hit": false,
      "t": 58285.65599999994,
      "d": 149.99985000000015,
      "v": 73
    },
    {
      "midi": 67,
      "hit": false,
      "t": 58285.65599999994,
      "d": 149.99985000000015,
      "v": 73
    },
    {
      "midi": 69,
      "hit": false,
      "t": 58285.65599999994,
      "d": 149.99985000000015,
      "v": 73
    },
    {
      "midi": 45,
      "hit": false,
      "t": 58289.22742499994,
      "d": 1460.7128249999878,
      "v": 74
    },
    {
      "midi": 60,
      "hit": false,
      "t": 58499.941499999935,
      "d": 121.42844999999943,
      "v": 68
    },
    {
      "midi": 64,
      "hit": false,
      "t": 58499.941499999935,
      "d": 121.42844999999943,
      "v": 68
    },
    {
      "midi": 67,
      "hit": false,
      "t": 58499.941499999935,
      "d": 121.42844999999943,
      "v": 68
    },
    {
      "midi": 69,
      "hit": false,
      "t": 58499.941499999935,
      "d": 121.42844999999943,
      "v": 68
    },
    {
      "midi": 60,
      "hit": false,
      "t": 58928.51249999993,
      "d": 674.999324999997,
      "v": 68
    },
    {
      "midi": 64,
      "hit": false,
      "t": 58928.51249999993,
      "d": 674.999324999997,
      "v": 68
    },
    {
      "midi": 67,
      "hit": false,
      "t": 58928.51249999993,
      "d": 674.999324999997,
      "v": 68
    },
    {
      "midi": 69,
      "hit": false,
      "t": 58928.51249999993,
      "d": 674.999324999997,
      "v": 68
    },
    {
      "midi": 45,
      "hit": false,
      "t": 59807.08304999993,
      "d": 585.7137000000002,
      "v": 71
    },
    {
      "midi": 57,
      "hit": false,
      "t": 60214.22549999993,
      "d": 164.2855500000005,
      "v": 70
    },
    {
      "midi": 59,
      "hit": false,
      "t": 60214.22549999993,
      "d": 164.2855500000005,
      "v": 70
    },
    {
      "midi": 62,
      "hit": false,
      "t": 60214.22549999993,
      "d": 164.2855500000005,
      "v": 70
    },
    {
      "midi": 66,
      "hit": false,
      "t": 60214.22549999993,
      "d": 164.2855500000005,
      "v": 70
    },
    {
      "midi": 45,
      "hit": false,
      "t": 60642.79649999993,
      "d": 249.9997499999954,
      "v": 75
    },
    {
      "midi": 57,
      "hit": false,
      "t": 60857.08199999993,
      "d": 249.9997499999954,
      "v": 68
    },
    {
      "midi": 59,
      "hit": false,
      "t": 60857.08199999993,
      "d": 249.9997499999954,
      "v": 68
    },
    {
      "midi": 62,
      "hit": false,
      "t": 60857.08199999993,
      "d": 249.9997499999954,
      "v": 68
    },
    {
      "midi": 66,
      "hit": false,
      "t": 60857.08199999993,
      "d": 249.9997499999954,
      "v": 68
    },
    {
      "midi": 57,
      "hit": false,
      "t": 61285.652999999926,
      "d": 135.7141499999998,
      "v": 70
    },
    {
      "midi": 59,
      "hit": false,
      "t": 61285.652999999926,
      "d": 135.7141499999998,
      "v": 70
    },
    {
      "midi": 62,
      "hit": false,
      "t": 61285.652999999926,
      "d": 135.7141499999998,
      "v": 70
    },
    {
      "midi": 66,
      "hit": false,
      "t": 61285.652999999926,
      "d": 135.7141499999998,
      "v": 70
    },
    {
      "midi": 45,
      "hit": false,
      "t": 61735.652549999926,
      "d": 378.57104999999865,
      "v": 65
    },
    {
      "midi": 57,
      "hit": false,
      "t": 61928.50949999993,
      "d": 164.2855500000005,
      "v": 64
    },
    {
      "midi": 60,
      "hit": false,
      "t": 61928.50949999993,
      "d": 164.2855500000005,
      "v": 64
    },
    {
      "midi": 64,
      "hit": false,
      "t": 61928.50949999993,
      "d": 164.2855500000005,
      "v": 64
    },
    {
      "midi": 45,
      "hit": false,
      "t": 62357.08049999992,
      "d": 249.9997499999954,
      "v": 69
    },
    {
      "midi": 57,
      "hit": false,
      "t": 62571.36599999992,
      "d": 249.9997499999954,
      "v": 62
    },
    {
      "midi": 60,
      "hit": false,
      "t": 62571.36599999992,
      "d": 249.9997499999954,
      "v": 62
    },
    {
      "midi": 64,
      "hit": false,
      "t": 62571.36599999992,
      "d": 249.9997499999954,
      "v": 62
    },
    {
      "midi": 57,
      "hit": false,
      "t": 62999.93699999992,
      "d": 135.7141499999998,
      "v": 64
    },
    {
      "midi": 60,
      "hit": false,
      "t": 62999.93699999992,
      "d": 135.7141499999998,
      "v": 64
    },
    {
      "midi": 64,
      "hit": false,
      "t": 62999.93699999992,
      "d": 135.7141499999998,
      "v": 64
    },
    {
      "midi": 57,
      "hit": false,
      "t": 63428.507999999914,
      "d": 824.9991749999972,
      "v": 69
    },
    {
      "midi": 62,
      "hit": false,
      "t": 63428.507999999914,
      "d": 824.9991749999972,
      "v": 69
    },
    {
      "midi": 66,
      "hit": false,
      "t": 63428.507999999914,
      "d": 824.9991749999972,
      "v": 69
    },
    {
      "midi": 45,
      "hit": false,
      "t": 63442.793699999915,
      "d": 1564.2841499999995,
      "v": 70
    },
    {
      "midi": 74,
      "hit": false,
      "t": 64296.36427499991,
      "d": 728.5707000000039,
      "v": 70
    },
    {
      "midi": 69,
      "hit": false,
      "t": 64499.93549999991,
      "d": 557.1423000000068,
      "v": 54
    },
    {
      "midi": 62,
      "hit": false,
      "t": 64928.506499999916,
      "d": 207.1426500000016,
      "v": 61
    },
    {
      "midi": 60,
      "hit": false,
      "t": 65142.791999999914,
      "d": 149.99985000000015,
      "v": 67
    },
    {
      "midi": 64,
      "hit": false,
      "t": 65142.791999999914,
      "d": 149.99985000000015,
      "v": 67
    },
    {
      "midi": 67,
      "hit": false,
      "t": 65142.791999999914,
      "d": 149.99985000000015,
      "v": 67
    },
    {
      "midi": 69,
      "hit": false,
      "t": 65142.791999999914,
      "d": 149.99985000000015,
      "v": 67
    },
    {
      "midi": 45,
      "hit": false,
      "t": 65146.363424999916,
      "d": 1539.2841749999934,
      "v": 68
    },
    {
      "midi": 60,
      "hit": false,
      "t": 65357.07749999991,
      "d": 121.42844999999943,
      "v": 62
    },
    {
      "midi": 64,
      "hit": false,
      "t": 65357.07749999991,
      "d": 121.42844999999943,
      "v": 62
    },
    {
      "midi": 67,
      "hit": false,
      "t": 65357.07749999991,
      "d": 121.42844999999943,
      "v": 62
    },
    {
      "midi": 69,
      "hit": false,
      "t": 65357.07749999991,
      "d": 121.42844999999943,
      "v": 62
    },
    {
      "midi": 60,
      "hit": false,
      "t": 65785.64849999991,
      "d": 674.999324999997,
      "v": 62
    },
    {
      "midi": 64,
      "hit": false,
      "t": 65785.64849999991,
      "d": 674.999324999997,
      "v": 62
    },
    {
      "midi": 67,
      "hit": false,
      "t": 65785.64849999991,
      "d": 674.999324999997,
      "v": 62
    },
    {
      "midi": 69,
      "hit": false,
      "t": 65785.64849999991,
      "d": 674.999324999997,
      "v": 62
    },
    {
      "midi": 45,
      "hit": false,
      "t": 66878.50454999991,
      "d": 378.57104999999865,
      "v": 65
    },
    {
      "midi": 54,
      "hit": false,
      "t": 67071.36149999991,
      "d": 164.2855500000005,
      "v": 64
    },
    {
      "midi": 57,
      "hit": false,
      "t": 67071.36149999991,
      "d": 164.2855500000005,
      "v": 64
    },
    {
      "midi": 62,
      "hit": false,
      "t": 67071.36149999991,
      "d": 164.2855500000005,
      "v": 64
    },
    {
      "midi": 45,
      "hit": false,
      "t": 67499.93249999991,
      "d": 249.99975000000268,
      "v": 69
    },
    {
      "midi": 54,
      "hit": false,
      "t": 67714.2179999999,
      "d": 249.99975000000268,
      "v": 62
    },
    {
      "midi": 57,
      "hit": false,
      "t": 67714.2179999999,
      "d": 249.99975000000268,
      "v": 62
    },
    {
      "midi": 62,
      "hit": false,
      "t": 67714.2179999999,
      "d": 249.99975000000268,
      "v": 62
    },
    {
      "midi": 54,
      "hit": false,
      "t": 68142.7889999999,
      "d": 135.7141499999998,
      "v": 64
    },
    {
      "midi": 57,
      "hit": false,
      "t": 68142.7889999999,
      "d": 135.7141499999998,
      "v": 64
    },
    {
      "midi": 62,
      "hit": false,
      "t": 68142.7889999999,
      "d": 135.7141499999998,
      "v": 64
    },
    {
      "midi": 45,
      "hit": false,
      "t": 68592.7885499999,
      "d": 378.57104999999865,
      "v": 65
    },
    {
      "midi": 57,
      "hit": false,
      "t": 68785.6454999999,
      "d": 164.2855500000005,
      "v": 64
    },
    {
      "midi": 60,
      "hit": false,
      "t": 68785.6454999999,
      "d": 164.2855500000005,
      "v": 64
    },
    {
      "midi": 64,
      "hit": false,
      "t": 68785.6454999999,
      "d": 164.2855500000005,
      "v": 64
    },
    {
      "midi": 45,
      "hit": false,
      "t": 69214.2164999999,
      "d": 249.99975000000268,
      "v": 69
    },
    {
      "midi": 57,
      "hit": false,
      "t": 69428.50199999989,
      "d": 249.99975000000268,
      "v": 62
    },
    {
      "midi": 60,
      "hit": false,
      "t": 69428.50199999989,
      "d": 249.99975000000268,
      "v": 62
    },
    {
      "midi": 64,
      "hit": false,
      "t": 69428.50199999989,
      "d": 249.99975000000268,
      "v": 62
    },
    {
      "midi": 57,
      "hit": false,
      "t": 69857.07299999989,
      "d": 135.7141499999998,
      "v": 64
    },
    {
      "midi": 60,
      "hit": false,
      "t": 69857.07299999989,
      "d": 135.7141499999998,
      "v": 64
    },
    {
      "midi": 64,
      "hit": false,
      "t": 69857.07299999989,
      "d": 135.7141499999998,
      "v": 64
    },
    {
      "midi": 45,
      "hit": false,
      "t": 70307.07254999988,
      "d": 378.57104999999865,
      "v": 65
    },
    {
      "midi": 57,
      "hit": false,
      "t": 70499.92949999988,
      "d": 164.2855500000005,
      "v": 64
    },
    {
      "midi": 62,
      "hit": false,
      "t": 70499.92949999988,
      "d": 164.2855500000005,
      "v": 64
    },
    {
      "midi": 66,
      "hit": false,
      "t": 70499.92949999988,
      "d": 164.2855500000005,
      "v": 64
    },
    {
      "midi": 45,
      "hit": false,
      "t": 70928.50049999988,
      "d": 249.99975000000268,
      "v": 69
    },
    {
      "midi": 57,
      "hit": false,
      "t": 71142.78599999988,
      "d": 249.99975000000268,
      "v": 62
    },
    {
      "midi": 62,
      "hit": false,
      "t": 71142.78599999988,
      "d": 249.99975000000268,
      "v": 62
    },
    {
      "midi": 66,
      "hit": false,
      "t": 71142.78599999988,
      "d": 249.99975000000268,
      "v": 62
    },
    {
      "midi": 57,
      "hit": false,
      "t": 71571.35699999987,
      "d": 135.7141499999998,
      "v": 64
    },
    {
      "midi": 62,
      "hit": false,
      "t": 71571.35699999987,
      "d": 135.7141499999998,
      "v": 64
    },
    {
      "midi": 66,
      "hit": false,
      "t": 71571.35699999987,
      "d": 135.7141499999998,
      "v": 64
    },
    {
      "midi": 60,
      "hit": false,
      "t": 71999.92799999987,
      "d": 149.99985000000743,
      "v": 67
    },
    {
      "midi": 64,
      "hit": false,
      "t": 71999.92799999987,
      "d": 149.99985000000743,
      "v": 67
    },
    {
      "midi": 67,
      "hit": false,
      "t": 71999.92799999987,
      "d": 149.99985000000743,
      "v": 67
    },
    {
      "midi": 69,
      "hit": false,
      "t": 71999.92799999987,
      "d": 149.99985000000743,
      "v": 67
    },
    {
      "midi": 45,
      "hit": false,
      "t": 72003.49942499987,
      "d": 1539.2841750000225,
      "v": 68
    },
    {
      "midi": 60,
      "hit": false,
      "t": 72214.21349999988,
      "d": 121.4284500000067,
      "v": 62
    },
    {
      "midi": 64,
      "hit": false,
      "t": 72214.21349999988,
      "d": 121.4284500000067,
      "v": 62
    },
    {
      "midi": 67,
      "hit": false,
      "t": 72214.21349999988,
      "d": 121.4284500000067,
      "v": 62
    },
    {
      "midi": 69,
      "hit": false,
      "t": 72214.21349999988,
      "d": 121.4284500000067,
      "v": 62
    },
    {
      "midi": 60,
      "hit": false,
      "t": 72642.78449999989,
      "d": 674.999324999997,
      "v": 62
    },
    {
      "midi": 64,
      "hit": false,
      "t": 72642.78449999989,
      "d": 674.999324999997,
      "v": 62
    },
    {
      "midi": 67,
      "hit": false,
      "t": 72642.78449999989,
      "d": 674.999324999997,
      "v": 62
    },
    {
      "midi": 69,
      "hit": false,
      "t": 72642.78449999989,
      "d": 674.999324999997,
      "v": 62
    },
    {
      "midi": 57,
      "hit": false,
      "t": 73714.2119999999,
      "d": 149.99984999999288,
      "v": 67
    },
    {
      "midi": 62,
      "hit": false,
      "t": 73714.2119999999,
      "d": 149.99984999999288,
      "v": 67
    },
    {
      "midi": 66,
      "hit": false,
      "t": 73714.2119999999,
      "d": 149.99984999999288,
      "v": 67
    },
    {
      "midi": 45,
      "hit": false,
      "t": 73728.49769999989,
      "d": 1574.9984250000125,
      "v": 68
    },
    {
      "midi": 57,
      "hit": false,
      "t": 73928.4974999999,
      "d": 121.4284500000067,
      "v": 62
    },
    {
      "midi": 62,
      "hit": false,
      "t": 73928.4974999999,
      "d": 121.4284500000067,
      "v": 62
    },
    {
      "midi": 66,
      "hit": false,
      "t": 73928.4974999999,
      "d": 121.4284500000067,
      "v": 62
    },
    {
      "midi": 57,
      "hit": false,
      "t": 74357.0684999999,
      "d": 674.999324999997,
      "v": 62
    },
    {
      "midi": 62,
      "hit": false,
      "t": 74357.0684999999,
      "d": 674.999324999997,
      "v": 62
    },
    {
      "midi": 66,
      "hit": false,
      "t": 74357.0684999999,
      "d": 674.999324999997,
      "v": 62
    },
    {
      "midi": 52,
      "hit": false,
      "t": 75442.7816999999,
      "d": 603.5708250000025,
      "v": 73
    },
    {
      "midi": 56,
      "hit": false,
      "t": 75642.78149999991,
      "d": 403.57102499999746,
      "v": 68
    },
    {
      "midi": 59,
      "hit": false,
      "t": 75642.78149999991,
      "d": 403.57102499999746,
      "v": 68
    },
    {
      "midi": 64,
      "hit": false,
      "t": 75642.78149999991,
      "d": 403.57102499999746,
      "v": 68
    },
    {
      "midi": 57,
      "hit": false,
      "t": 76082.06677499991,
      "d": 974.9990249999973,
      "v": 68
    },
    {
      "midi": 61,
      "hit": false,
      "t": 76082.06677499991,
      "d": 974.9990249999973,
      "v": 68
    },
    {
      "midi": 64,
      "hit": false,
      "t": 76082.06677499991,
      "d": 974.9990249999973,
      "v": 68
    },
    {
      "midi": 45,
      "hit": false,
      "t": 76085.63819999991,
      "d": 1007.14185,
      "v": 73
    },
    {
      "midi": 52,
      "hit": false,
      "t": 77142.77999999991,
      "d": 214.28549999999814,
      "v": 69
    },
    {
      "midi": 71,
      "hit": false,
      "t": 77357.06549999991,
      "d": 224.99977500000386,
      "v": 79
    },
    {
      "midi": 59,
      "hit": false,
      "t": 77582.06527499991,
      "d": 185.71409999999742,
      "v": 64
    },
    {
      "midi": 62,
      "hit": false,
      "t": 77582.06527499991,
      "d": 185.71409999999742,
      "v": 64
    },
    {
      "midi": 64,
      "hit": false,
      "t": 77582.06527499991,
      "d": 185.71409999999742,
      "v": 64
    },
    {
      "midi": 68,
      "hit": false,
      "t": 77582.06527499991,
      "d": 185.71409999999742,
      "v": 64
    },
    {
      "midi": 57,
      "hit": false,
      "t": 77796.35077499991,
      "d": 974.9990249999973,
      "v": 68
    },
    {
      "midi": 61,
      "hit": false,
      "t": 77796.35077499991,
      "d": 974.9990249999973,
      "v": 68
    },
    {
      "midi": 64,
      "hit": false,
      "t": 77796.35077499991,
      "d": 974.9990249999973,
      "v": 68
    },
    {
      "midi": 45,
      "hit": false,
      "t": 77796.35077499991,
      "d": 978.5704499999993,
      "v": 73
    },
    {
      "midi": 52,
      "hit": false,
      "t": 78871.3496999999,
      "d": 603.5708250000025,
      "v": 73
    },
    {
      "midi": 56,
      "hit": false,
      "t": 79071.34949999991,
      "d": 403.57102499999746,
      "v": 68
    },
    {
      "midi": 59,
      "hit": false,
      "t": 79071.34949999991,
      "d": 403.57102499999746,
      "v": 68
    },
    {
      "midi": 64,
      "hit": false,
      "t": 79071.34949999991,
      "d": 403.57102499999746,
      "v": 68
    },
    {
      "midi": 57,
      "hit": false,
      "t": 79510.63477499991,
      "d": 974.9990249999973,
      "v": 68
    },
    {
      "midi": 61,
      "hit": false,
      "t": 79510.63477499991,
      "d": 974.9990249999973,
      "v": 68
    },
    {
      "midi": 64,
      "hit": false,
      "t": 79510.63477499991,
      "d": 974.9990249999973,
      "v": 68
    },
    {
      "midi": 45,
      "hit": false,
      "t": 79514.20619999991,
      "d": 1007.14185,
      "v": 73
    },
    {
      "midi": 52,
      "hit": false,
      "t": 80571.34799999991,
      "d": 617.8565249999956,
      "v": 73
    },
    {
      "midi": 59,
      "hit": false,
      "t": 80571.34799999991,
      "d": 617.8565249999956,
      "v": 68
    },
    {
      "midi": 62,
      "hit": false,
      "t": 80571.34799999991,
      "d": 617.8565249999956,
      "v": 68
    },
    {
      "midi": 64,
      "hit": false,
      "t": 80571.34799999991,
      "d": 617.8565249999956,
      "v": 68
    },
    {
      "midi": 68,
      "hit": false,
      "t": 80571.34799999991,
      "d": 617.8565249999956,
      "v": 68
    },
    {
      "midi": 57,
      "hit": false,
      "t": 81224.91877499991,
      "d": 974.9990249999973,
      "v": 68
    },
    {
      "midi": 61,
      "hit": false,
      "t": 81224.91877499991,
      "d": 974.9990249999973,
      "v": 68
    },
    {
      "midi": 64,
      "hit": false,
      "t": 81224.91877499991,
      "d": 974.9990249999973,
      "v": 68
    },
    {
      "midi": 45,
      "hit": false,
      "t": 81224.91877499991,
      "d": 978.5704499999993,
      "v": 73
    },
    {
      "midi": 56,
      "hit": false,
      "t": 82285.63199999991,
      "d": 778.5706499999942,
      "v": 68
    },
    {
      "midi": 59,
      "hit": false,
      "t": 82285.63199999991,
      "d": 778.5706499999942,
      "v": 68
    },
    {
      "midi": 64,
      "hit": false,
      "t": 82285.63199999991,
      "d": 778.5706499999942,
      "v": 68
    },
    {
      "midi": 52,
      "hit": false,
      "t": 82285.63199999991,
      "d": 782.1420749999961,
      "v": 73
    },
    {
      "midi": 45,
      "hit": false,
      "t": 83142.7739999999,
      "d": 335.71395000000484,
      "v": 69
    },
    {
      "midi": 57,
      "hit": false,
      "t": 83367.7737749999,
      "d": 396.4281750000082,
      "v": 64
    },
    {
      "midi": 64,
      "hit": false,
      "t": 83571.34499999991,
      "d": 249.99975000000268,
      "v": 79
    },
    {
      "midi": 52,
      "hit": false,
      "t": 83785.63049999991,
      "d": 214.28549999999814,
      "v": 68
    },
    {
      "midi": 50,
      "hit": false,
      "t": 83999.91599999991,
      "d": 214.28549999999814,
      "v": 69
    },
    {
      "midi": 69,
      "hit": false,
      "t": 84214.20149999991,
      "d": 224.99977500000386,
      "v": 79
    },
    {
      "midi": 57,
      "hit": false,
      "t": 84439.20127499991,
      "d": 185.71409999999742,
      "v": 64
    },
    {
      "midi": 62,
      "hit": false,
      "t": 84439.20127499991,
      "d": 185.71409999999742,
      "v": 64
    },
    {
      "midi": 66,
      "hit": false,
      "t": 84439.20127499991,
      "d": 185.71409999999742,
      "v": 64
    },
    {
      "midi": 43,
      "hit": false,
      "t": 84871.34369999991,
      "d": 782.1420750000107,
      "v": 73
    },
    {
      "midi": 55,
      "hit": false,
      "t": 85071.34349999992,
      "d": 464.2852500000008,
      "v": 68
    },
    {
      "midi": 59,
      "hit": false,
      "t": 85071.34349999992,
      "d": 464.2852500000008,
      "v": 68
    },
    {
      "midi": 62,
      "hit": false,
      "t": 85071.34349999992,
      "d": 464.2852500000008,
      "v": 68
    },
    {
      "midi": 47,
      "hit": false,
      "t": 85714.19999999992,
      "d": 617.8565249999956,
      "v": 73
    },
    {
      "midi": 54,
      "hit": false,
      "t": 85714.19999999992,
      "d": 617.8565249999956,
      "v": 68
    },
    {
      "midi": 59,
      "hit": false,
      "t": 85714.19999999992,
      "d": 617.8565249999956,
      "v": 68
    },
    {
      "midi": 63,
      "hit": false,
      "t": 85714.19999999992,
      "d": 617.8565249999956,
      "v": 68
    },
    {
      "midi": 56,
      "hit": false,
      "t": 86367.77077499992,
      "d": 974.9990249999973,
      "v": 68
    },
    {
      "midi": 59,
      "hit": false,
      "t": 86367.77077499992,
      "d": 974.9990249999973,
      "v": 68
    },
    {
      "midi": 64,
      "hit": false,
      "t": 86367.77077499992,
      "d": 974.9990249999973,
      "v": 68
    },
    {
      "midi": 52,
      "hit": false,
      "t": 86371.34219999993,
      "d": 1007.14185,
      "v": 73
    },
    {
      "midi": 54,
      "hit": false,
      "t": 87428.48399999992,
      "d": 778.5706499999942,
      "v": 68
    },
    {
      "midi": 59,
      "hit": false,
      "t": 87428.48399999992,
      "d": 778.5706499999942,
      "v": 68
    },
    {
      "midi": 63,
      "hit": false,
      "t": 87428.48399999992,
      "d": 778.5706499999942,
      "v": 68
    },
    {
      "midi": 47,
      "hit": false,
      "t": 87428.48399999992,
      "d": 782.1420749999961,
      "v": 73
    },
    {
      "midi": 52,
      "hit": false,
      "t": 88285.62599999992,
      "d": 335.71395000000484,
      "v": 69
    },
    {
      "midi": 64,
      "hit": false,
      "t": 88510.62577499992,
      "d": 396.4281750000082,
      "v": 64
    },
    {
      "midi": 71,
      "hit": false,
      "t": 88714.19699999993,
      "d": 249.99975000000268,
      "v": 79
    },
    {
      "midi": 59,
      "hit": false,
      "t": 88928.48249999993,
      "d": 214.28549999999814,
      "v": 68
    },
    {
      "midi": 47,
      "hit": false,
      "t": 89142.76799999992,
      "d": 214.28549999999814,
      "v": 69
    },
    {
      "midi": 66,
      "hit": false,
      "t": 89357.05349999992,
      "d": 224.99977500000386,
      "v": 79
    },
    {
      "midi": 54,
      "hit": false,
      "t": 89582.05327499993,
      "d": 185.71409999999742,
      "v": 64
    },
    {
      "midi": 59,
      "hit": false,
      "t": 89582.05327499993,
      "d": 185.71409999999742,
      "v": 64
    },
    {
      "midi": 63,
      "hit": false,
      "t": 89582.05327499993,
      "d": 185.71409999999742,
      "v": 64
    },
    {
      "midi": 52,
      "hit": false,
      "t": 89999.90999999992,
      "d": 335.71395000000484,
      "v": 69
    },
    {
      "midi": 64,
      "hit": false,
      "t": 90224.90977499992,
      "d": 396.4281750000082,
      "v": 64
    },
    {
      "midi": 71,
      "hit": false,
      "t": 90428.48099999993,
      "d": 249.99975000000268,
      "v": 79
    },
    {
      "midi": 59,
      "hit": false,
      "t": 90642.76649999993,
      "d": 214.28549999999814,
      "v": 68
    },
    {
      "midi": 45,
      "hit": false,
      "t": 90857.05199999992,
      "d": 617.8565249999956,
      "v": 73
    },
    {
      "midi": 57,
      "hit": false,
      "t": 90857.05199999992,
      "d": 617.8565249999956,
      "v": 68
    },
    {
      "midi": 61,
      "hit": false,
      "t": 90857.05199999992,
      "d": 617.8565249999956,
      "v": 68
    },
    {
      "midi": 66,
      "hit": false,
      "t": 90857.05199999992,
      "d": 617.8565249999956,
      "v": 68
    },
    {
      "midi": 57,
      "hit": false,
      "t": 91510.62277499992,
      "d": 974.9990249999973,
      "v": 68
    },
    {
      "midi": 59,
      "hit": false,
      "t": 91510.62277499992,
      "d": 974.9990249999973,
      "v": 68
    },
    {
      "midi": 62,
      "hit": false,
      "t": 91510.62277499992,
      "d": 974.9990249999973,
      "v": 68
    },
    {
      "midi": 66,
      "hit": false,
      "t": 91510.62277499992,
      "d": 974.9990249999973,
      "v": 68
    },
    {
      "midi": 45,
      "hit": false,
      "t": 91510.62277499992,
      "d": 978.5704499999993,
      "v": 73
    },
    {
      "midi": 61,
      "hit": false,
      "t": 92571.33599999992,
      "d": 671.4279000000097,
      "v": 68
    },
    {
      "midi": 64,
      "hit": false,
      "t": 92571.33599999992,
      "d": 671.4279000000097,
      "v": 68
    },
    {
      "midi": 67,
      "hit": false,
      "t": 92571.33599999992,
      "d": 671.4279000000097,
      "v": 68
    },
    {
      "midi": 69,
      "hit": false,
      "t": 92571.33599999992,
      "d": 671.4279000000097,
      "v": 68
    },
    {
      "midi": 45,
      "hit": false,
      "t": 92592.76454999992,
      "d": 421.428150000007,
      "v": 74
    },
    {
      "midi": 45,
      "hit": false,
      "t": 93214.19249999993,
      "d": 239.28547499999695,
      "v": 61
    },
    {
      "midi": 61,
      "hit": false,
      "t": 93428.47799999993,
      "d": 289.2854249999946,
      "v": 66
    },
    {
      "midi": 64,
      "hit": false,
      "t": 93428.47799999993,
      "d": 289.2854249999946,
      "v": 66
    },
    {
      "midi": 67,
      "hit": false,
      "t": 93428.47799999993,
      "d": 289.2854249999946,
      "v": 66
    },
    {
      "midi": 69,
      "hit": false,
      "t": 93428.47799999993,
      "d": 289.2854249999946,
      "v": 66
    },
    {
      "midi": 61,
      "hit": false,
      "t": 93857.04899999993,
      "d": 146.42842500000552,
      "v": 81
    },
    {
      "midi": 64,
      "hit": false,
      "t": 93857.04899999993,
      "d": 146.42842500000552,
      "v": 81
    },
    {
      "midi": 67,
      "hit": false,
      "t": 93857.04899999993,
      "d": 146.42842500000552,
      "v": 81
    },
    {
      "midi": 69,
      "hit": false,
      "t": 93857.04899999993,
      "d": 146.42842500000552,
      "v": 81
    },
    {
      "midi": 50,
      "hit": false,
      "t": 94285.61999999994,
      "d": 214.28549999999814,
      "v": 69
    },
    {
      "midi": 69,
      "hit": false,
      "t": 94499.90549999994,
      "d": 224.99977500000386,
      "v": 79
    },
    {
      "midi": 57,
      "hit": false,
      "t": 94724.90527499994,
      "d": 185.71409999999742,
      "v": 64
    },
    {
      "midi": 62,
      "hit": false,
      "t": 94724.90527499994,
      "d": 185.71409999999742,
      "v": 64
    },
    {
      "midi": 65,
      "hit": false,
      "t": 94724.90527499994,
      "d": 185.71409999999742,
      "v": 64
    },
    {
      "midi": 59,
      "hit": false,
      "t": 94928.47649999993,
      "d": 596.4279749999987,
      "v": 68
    },
    {
      "midi": 62,
      "hit": false,
      "t": 94928.47649999993,
      "d": 596.4279749999987,
      "v": 68
    },
    {
      "midi": 64,
      "hit": false,
      "t": 94928.47649999993,
      "d": 596.4279749999987,
      "v": 68
    },
    {
      "midi": 67,
      "hit": false,
      "t": 94928.47649999993,
      "d": 596.4279749999987,
      "v": 68
    },
    {
      "midi": 52,
      "hit": false,
      "t": 94942.76219999992,
      "d": 607.1422500000044,
      "v": 73
    },
    {
      "midi": 57,
      "hit": false,
      "t": 95571.33299999993,
      "d": 389.2853249999898,
      "v": 68
    },
    {
      "midi": 60,
      "hit": false,
      "t": 95571.33299999993,
      "d": 389.2853249999898,
      "v": 68
    },
    {
      "midi": 65,
      "hit": false,
      "t": 95571.33299999993,
      "d": 389.2853249999898,
      "v": 68
    },
    {
      "midi": 53,
      "hit": false,
      "t": 95585.61869999992,
      "d": 399.99959999999555,
      "v": 73
    },
    {
      "midi": 57,
      "hit": false,
      "t": 95999.90399999991,
      "d": 149.99985000000743,
      "v": 73
    },
    {
      "midi": 60,
      "hit": false,
      "t": 95999.90399999991,
      "d": 149.99985000000743,
      "v": 73
    },
    {
      "midi": 65,
      "hit": false,
      "t": 95999.90399999991,
      "d": 149.99985000000743,
      "v": 73
    },
    {
      "midi": 53,
      "hit": false,
      "t": 96003.47542499991,
      "d": 1539.2841750000225,
      "v": 74
    },
    {
      "midi": 57,
      "hit": false,
      "t": 96214.18949999992,
      "d": 121.4284500000067,
      "v": 68
    },
    {
      "midi": 60,
      "hit": false,
      "t": 96214.18949999992,
      "d": 121.4284500000067,
      "v": 68
    },
    {
      "midi": 65,
      "hit": false,
      "t": 96214.18949999992,
      "d": 121.4284500000067,
      "v": 68
    },
    {
      "midi": 57,
      "hit": false,
      "t": 96642.76049999993,
      "d": 674.999324999997,
      "v": 68
    },
    {
      "midi": 60,
      "hit": false,
      "t": 96642.76049999993,
      "d": 674.999324999997,
      "v": 68
    },
    {
      "midi": 65,
      "hit": false,
      "t": 96642.76049999993,
      "d": 674.999324999997,
      "v": 68
    },
    {
      "midi": 50,
      "hit": false,
      "t": 97714.18799999994,
      "d": 214.28549999999814,
      "v": 69
    },
    {
      "midi": 69,
      "hit": false,
      "t": 97928.47349999993,
      "d": 224.99977500000386,
      "v": 79
    },
    {
      "midi": 57,
      "hit": false,
      "t": 98153.47327499994,
      "d": 185.71409999999742,
      "v": 64
    },
    {
      "midi": 62,
      "hit": false,
      "t": 98153.47327499994,
      "d": 185.71409999999742,
      "v": 64
    },
    {
      "midi": 65,
      "hit": false,
      "t": 98153.47327499994,
      "d": 185.71409999999742,
      "v": 64
    },
    {
      "midi": 50,
      "hit": false,
      "t": 98571.32999999993,
      "d": 335.71395000000484,
      "v": 69
    },
    {
      "midi": 62,
      "hit": false,
      "t": 98796.32977499993,
      "d": 396.4281750000082,
      "v": 64
    },
    {
      "midi": 69,
      "hit": false,
      "t": 98999.90099999994,
      "d": 249.99975000000268,
      "v": 79
    },
    {
      "midi": 57,
      "hit": false,
      "t": 99214.18649999994,
      "d": 214.28549999999814,
      "v": 68
    },
    {
      "midi": 57,
      "hit": false,
      "t": 99428.47199999994,
      "d": 671.4279000000097,
      "v": 68
    },
    {
      "midi": 60,
      "hit": false,
      "t": 99428.47199999994,
      "d": 671.4279000000097,
      "v": 68
    },
    {
      "midi": 64,
      "hit": false,
      "t": 99428.47199999994,
      "d": 671.4279000000097,
      "v": 68
    },
    {
      "midi": 45,
      "hit": false,
      "t": 99449.90054999993,
      "d": 421.428150000007,
      "v": 74
    },
    {
      "midi": 45,
      "hit": false,
      "t": 100071.32849999995,
      "d": 239.28547499999695,
      "v": 61
    },
    {
      "midi": 57,
      "hit": false,
      "t": 100285.61399999994,
      "d": 289.2854249999946,
      "v": 66
    },
    {
      "midi": 60,
      "hit": false,
      "t": 100285.61399999994,
      "d": 289.2854249999946,
      "v": 66
    },
    {
      "midi": 64,
      "hit": false,
      "t": 100285.61399999994,
      "d": 289.2854249999946,
      "v": 66
    },
    {
      "midi": 57,
      "hit": false,
      "t": 100714.18499999994,
      "d": 146.42842500000552,
      "v": 81
    },
    {
      "midi": 60,
      "hit": false,
      "t": 100714.18499999994,
      "d": 146.42842500000552,
      "v": 81
    },
    {
      "midi": 64,
      "hit": false,
      "t": 100714.18499999994,
      "d": 146.42842500000552,
      "v": 81
    },
    {
      "midi": 54,
      "hit": false,
      "t": 100928.47049999995,
      "d": 1846.4267249999975,
      "v": 68
    },
    {
      "midi": 59,
      "hit": false,
      "t": 100928.47049999995,
      "d": 1846.4267249999975,
      "v": 68
    },
    {
      "midi": 63,
      "hit": false,
      "t": 100928.47049999995,
      "d": 1846.4267249999975,
      "v": 68
    },
    {
      "midi": 45,
      "hit": false,
      "t": 100942.75619999995,
      "d": 1771.426800000001,
      "v": 73
    },
    {
      "midi": 60,
      "hit": false,
      "t": 102857.03999999995,
      "d": 671.4279000000097,
      "v": 68
    },
    {
      "midi": 64,
      "hit": false,
      "t": 102857.03999999995,
      "d": 671.4279000000097,
      "v": 68
    },
    {
      "midi": 67,
      "hit": false,
      "t": 102857.03999999995,
      "d": 671.4279000000097,
      "v": 68
    },
    {
      "midi": 69,
      "hit": false,
      "t": 102857.03999999995,
      "d": 671.4279000000097,
      "v": 68
    },
    {
      "midi": 45,
      "hit": false,
      "t": 102878.46854999995,
      "d": 421.428150000007,
      "v": 74
    },
    {
      "midi": 45,
      "hit": false,
      "t": 103499.89649999996,
      "d": 239.28547499999695,
      "v": 61
    },
    {
      "midi": 60,
      "hit": false,
      "t": 103714.18199999996,
      "d": 289.2854249999946,
      "v": 66
    },
    {
      "midi": 64,
      "hit": false,
      "t": 103714.18199999996,
      "d": 289.2854249999946,
      "v": 66
    },
    {
      "midi": 67,
      "hit": false,
      "t": 103714.18199999996,
      "d": 289.2854249999946,
      "v": 66
    },
    {
      "midi": 69,
      "hit": false,
      "t": 103714.18199999996,
      "d": 289.2854249999946,
      "v": 66
    },
    {
      "midi": 60,
      "hit": false,
      "t": 104142.75299999995,
      "d": 146.42842500000552,
      "v": 81
    },
    {
      "midi": 64,
      "hit": false,
      "t": 104142.75299999995,
      "d": 146.42842500000552,
      "v": 81
    },
    {
      "midi": 67,
      "hit": false,
      "t": 104142.75299999995,
      "d": 146.42842500000552,
      "v": 81
    },
    {
      "midi": 69,
      "hit": false,
      "t": 104142.75299999995,
      "d": 146.42842500000552,
      "v": 81
    },
    {
      "midi": 62,
      "hit": false,
      "t": 104357.03849999997,
      "d": 1303.5701249999838,
      "v": 77
    },
    {
      "midi": 66,
      "hit": false,
      "t": 104357.03849999997,
      "d": 1303.5701249999838,
      "v": 77
    },
    {
      "midi": 45,
      "hit": false,
      "t": 104371.32419999996,
      "d": 1753.5696749999915,
      "v": 78
    },
    {
      "midi": 57,
      "hit": false,
      "t": 105428.46599999996,
      "d": 232.14262499999313,
      "v": 66
    },
    {
      "midi": 59,
      "hit": false,
      "t": 105642.75149999995,
      "d": 17.857124999994994,
      "v": 62
    },
    {
      "midi": 66,
      "hit": false,
      "t": 105857.03699999995,
      "d": 332.14252500000293,
      "v": 72
    },
    {
      "midi": 69,
      "hit": false,
      "t": 106071.32249999995,
      "d": 207.14265000000887,
      "v": 69
    },
    {
      "midi": 45,
      "hit": false,
      "t": 106307.03654999996,
      "d": 378.57104999999865,
      "v": 61
    },
    {
      "midi": 57,
      "hit": false,
      "t": 106499.89349999996,
      "d": 164.2855500000005,
      "v": 60
    },
    {
      "midi": 60,
      "hit": false,
      "t": 106499.89349999996,
      "d": 164.2855500000005,
      "v": 60
    },
    {
      "midi": 64,
      "hit": false,
      "t": 106499.89349999996,
      "d": 164.2855500000005,
      "v": 60
    },
    {
      "midi": 45,
      "hit": false,
      "t": 106928.46449999996,
      "d": 249.99975000000268,
      "v": 65
    },
    {
      "midi": 57,
      "hit": false,
      "t": 107142.74999999996,
      "d": 249.99975000000268,
      "v": 58
    },
    {
      "midi": 60,
      "hit": false,
      "t": 107142.74999999996,
      "d": 249.99975000000268,
      "v": 58
    },
    {
      "midi": 64,
      "hit": false,
      "t": 107142.74999999996,
      "d": 249.99975000000268,
      "v": 58
    },
    {
      "midi": 57,
      "hit": false,
      "t": 107571.32099999995,
      "d": 135.7141499999998,
      "v": 60
    },
    {
      "midi": 60,
      "hit": false,
      "t": 107571.32099999995,
      "d": 135.7141499999998,
      "v": 60
    },
    {
      "midi": 64,
      "hit": false,
      "t": 107571.32099999995,
      "d": 135.7141499999998,
      "v": 60
    },
    {
      "midi": 57,
      "hit": false,
      "t": 108007.03484999995,
      "d": 464.2852500000008,
      "v": 79
    },
    {
      "midi": 60,
      "hit": false,
      "t": 108007.03484999995,
      "d": 464.2852500000008,
      "v": 79
    },
    {
      "midi": 64,
      "hit": false,
      "t": 108007.03484999995,
      "d": 464.2852500000008,
      "v": 79
    },
    {
      "midi": 57,
      "hit": false,
      "t": 108660.60562499995,
      "d": 935.7133500000054,
      "v": 60
    },
    {
      "midi": 60,
      "hit": false,
      "t": 108660.60562499995,
      "d": 935.7133500000054,
      "v": 60
    },
    {
      "midi": 64,
      "hit": false,
      "t": 108660.60562499995,
      "d": 935.7133500000054,
      "v": 60
    },
    {
      "midi": 52,
      "hit": false,
      "t": 109092.74804999995,
      "d": 514.285200000013,
      "v": 71
    },
    {
      "midi": 50,
      "hit": false,
      "t": 109735.60454999996,
      "d": 378.57104999999865,
      "v": 61
    },
    {
      "midi": 57,
      "hit": false,
      "t": 109928.46149999996,
      "d": 164.2855500000005,
      "v": 60
    },
    {
      "midi": 62,
      "hit": false,
      "t": 109928.46149999996,
      "d": 164.2855500000005,
      "v": 60
    },
    {
      "midi": 66,
      "hit": false,
      "t": 109928.46149999996,
      "d": 164.2855500000005,
      "v": 60
    },
    {
      "midi": 50,
      "hit": false,
      "t": 110357.03249999996,
      "d": 249.99975000000268,
      "v": 65
    },
    {
      "midi": 57,
      "hit": false,
      "t": 110571.31799999996,
      "d": 249.99975000000268,
      "v": 58
    },
    {
      "midi": 62,
      "hit": false,
      "t": 110571.31799999996,
      "d": 249.99975000000268,
      "v": 58
    },
    {
      "midi": 66,
      "hit": false,
      "t": 110571.31799999996,
      "d": 249.99975000000268,
      "v": 58
    },
    {
      "midi": 57,
      "hit": false,
      "t": 110999.88899999995,
      "d": 135.7141499999998,
      "v": 60
    },
    {
      "midi": 62,
      "hit": false,
      "t": 110999.88899999995,
      "d": 135.7141499999998,
      "v": 60
    },
    {
      "midi": 66,
      "hit": false,
      "t": 110999.88899999995,
      "d": 135.7141499999998,
      "v": 60
    },
    {
      "midi": 57,
      "hit": false,
      "t": 111435.60284999995,
      "d": 464.2852500000008,
      "v": 79
    },
    {
      "midi": 62,
      "hit": false,
      "t": 111435.60284999995,
      "d": 464.2852500000008,
      "v": 79
    },
    {
      "midi": 66,
      "hit": false,
      "t": 111435.60284999995,
      "d": 464.2852500000008,
      "v": 79
    },
    {
      "midi": 62,
      "hit": false,
      "t": 112089.17362499995,
      "d": 935.7133500000054,
      "v": 60
    },
    {
      "midi": 66,
      "hit": false,
      "t": 112089.17362499995,
      "d": 935.7133500000054,
      "v": 60
    },
    {
      "midi": 57,
      "hit": false,
      "t": 112521.31604999995,
      "d": 503.57092500000726,
      "v": 71
    },
    {
      "midi": 45,
      "hit": false,
      "t": 113164.17254999996,
      "d": 378.57104999999865,
      "v": 61
    },
    {
      "midi": 57,
      "hit": false,
      "t": 113357.02949999996,
      "d": 164.2855500000005,
      "v": 60
    },
    {
      "midi": 60,
      "hit": false,
      "t": 113357.02949999996,
      "d": 164.2855500000005,
      "v": 60
    },
    {
      "midi": 64,
      "hit": false,
      "t": 113357.02949999996,
      "d": 164.2855500000005,
      "v": 60
    },
    {
      "midi": 45,
      "hit": false,
      "t": 113785.60049999996,
      "d": 249.99975000000268,
      "v": 65
    },
    {
      "midi": 57,
      "hit": false,
      "t": 113999.88599999995,
      "d": 249.99975000000268,
      "v": 58
    },
    {
      "midi": 60,
      "hit": false,
      "t": 113999.88599999995,
      "d": 249.99975000000268,
      "v": 58
    },
    {
      "midi": 64,
      "hit": false,
      "t": 113999.88599999995,
      "d": 249.99975000000268,
      "v": 58
    },
    {
      "midi": 57,
      "hit": false,
      "t": 114428.45699999995,
      "d": 135.7141499999998,
      "v": 60
    },
    {
      "midi": 60,
      "hit": false,
      "t": 114428.45699999995,
      "d": 135.7141499999998,
      "v": 60
    },
    {
      "midi": 64,
      "hit": false,
      "t": 114428.45699999995,
      "d": 135.7141499999998,
      "v": 60
    },
    {
      "midi": 57,
      "hit": false,
      "t": 114864.17084999995,
      "d": 464.2852500000008,
      "v": 79
    },
    {
      "midi": 60,
      "hit": false,
      "t": 114864.17084999995,
      "d": 464.2852500000008,
      "v": 79
    },
    {
      "midi": 64,
      "hit": false,
      "t": 114864.17084999995,
      "d": 464.2852500000008,
      "v": 79
    },
    {
      "midi": 57,
      "hit": false,
      "t": 115517.74162499995,
      "d": 935.7133500000054,
      "v": 60
    },
    {
      "midi": 60,
      "hit": false,
      "t": 115517.74162499995,
      "d": 935.7133500000054,
      "v": 60
    },
    {
      "midi": 64,
      "hit": false,
      "t": 115517.74162499995,
      "d": 935.7133500000054,
      "v": 60
    },
    {
      "midi": 52,
      "hit": false,
      "t": 115949.88404999995,
      "d": 514.285200000013,
      "v": 71
    },
    {
      "midi": 50,
      "hit": false,
      "t": 116592.74054999996,
      "d": 378.57104999999865,
      "v": 61
    },
    {
      "midi": 57,
      "hit": false,
      "t": 116785.59749999996,
      "d": 164.2855500000005,
      "v": 60
    },
    {
      "midi": 62,
      "hit": false,
      "t": 116785.59749999996,
      "d": 164.2855500000005,
      "v": 60
    },
    {
      "midi": 66,
      "hit": false,
      "t": 116785.59749999996,
      "d": 164.2855500000005,
      "v": 60
    },
    {
      "midi": 50,
      "hit": false,
      "t": 117214.16849999996,
      "d": 249.99975000000268,
      "v": 65
    },
    {
      "midi": 57,
      "hit": false,
      "t": 117428.45399999995,
      "d": 249.99975000000268,
      "v": 58
    },
    {
      "midi": 62,
      "hit": false,
      "t": 117428.45399999995,
      "d": 249.99975000000268,
      "v": 58
    },
    {
      "midi": 66,
      "hit": false,
      "t": 117428.45399999995,
      "d": 249.99975000000268,
      "v": 58
    },
    {
      "midi": 57,
      "hit": false,
      "t": 117857.02499999995,
      "d": 135.7141499999998,
      "v": 60
    },
    {
      "midi": 62,
      "hit": false,
      "t": 117857.02499999995,
      "d": 135.7141499999998,
      "v": 60
    },
    {
      "midi": 66,
      "hit": false,
      "t": 117857.02499999995,
      "d": 135.7141499999998,
      "v": 60
    },
    {
      "midi": 57,
      "hit": false,
      "t": 118292.73884999995,
      "d": 464.2852500000008,
      "v": 79
    },
    {
      "midi": 62,
      "hit": false,
      "t": 118292.73884999995,
      "d": 464.2852500000008,
      "v": 79
    },
    {
      "midi": 66,
      "hit": false,
      "t": 118292.73884999995,
      "d": 464.2852500000008,
      "v": 79
    },
    {
      "midi": 62,
      "hit": false,
      "t": 118946.30962499995,
      "d": 935.7133500000054,
      "v": 60
    },
    {
      "midi": 66,
      "hit": false,
      "t": 118946.30962499995,
      "d": 935.7133500000054,
      "v": 60
    },
    {
      "midi": 57,
      "hit": false,
      "t": 119378.45204999995,
      "d": 503.57092500000726,
      "v": 71
    },
    {
      "midi": 57,
      "hit": false,
      "t": 119999.87999999996,
      "d": 671.4279000000097,
      "v": 62
    },
    {
      "midi": 60,
      "hit": false,
      "t": 119999.87999999996,
      "d": 671.4279000000097,
      "v": 62
    },
    {
      "midi": 64,
      "hit": false,
      "t": 119999.87999999996,
      "d": 671.4279000000097,
      "v": 62
    },
    {
      "midi": 45,
      "hit": false,
      "t": 120021.30854999996,
      "d": 421.428150000007,
      "v": 68
    },
    {
      "midi": 45,
      "hit": false,
      "t": 120642.73649999997,
      "d": 239.28547499999695,
      "v": 55
    },
    {
      "midi": 57,
      "hit": false,
      "t": 120857.02199999997,
      "d": 289.2854249999946,
      "v": 60
    },
    {
      "midi": 60,
      "hit": false,
      "t": 120857.02199999997,
      "d": 289.2854249999946,
      "v": 60
    },
    {
      "midi": 64,
      "hit": false,
      "t": 120857.02199999997,
      "d": 289.2854249999946,
      "v": 60
    },
    {
      "midi": 57,
      "hit": false,
      "t": 121285.59299999996,
      "d": 146.42842500000552,
      "v": 75
    },
    {
      "midi": 60,
      "hit": false,
      "t": 121285.59299999996,
      "d": 146.42842500000552,
      "v": 75
    },
    {
      "midi": 64,
      "hit": false,
      "t": 121285.59299999996,
      "d": 146.42842500000552,
      "v": 75
    },
    {
      "midi": 54,
      "hit": false,
      "t": 121499.87849999998,
      "d": 1032.1418249999988,
      "v": 69
    },
    {
      "midi": 59,
      "hit": false,
      "t": 121499.87849999998,
      "d": 1032.1418249999988,
      "v": 69
    },
    {
      "midi": 62,
      "hit": false,
      "t": 121499.87849999998,
      "d": 1032.1418249999988,
      "v": 69
    },
    {
      "midi": 45,
      "hit": false,
      "t": 121514.16419999997,
      "d": 1771.426800000001,
      "v": 70
    },
    {
      "midi": 71,
      "hit": false,
      "t": 122582.02027499997,
      "d": 728.5706999999966,
      "v": 70
    },
    {
      "midi": 66,
      "hit": false,
      "t": 122785.59149999998,
      "d": 557.1422999999922,
      "v": 54
    },
    {
      "midi": 59,
      "hit": false,
      "t": 123214.16249999998,
      "d": 207.14264999999432,
      "v": 61
    },
    {
      "midi": 57,
      "hit": false,
      "t": 123428.44799999997,
      "d": 1464.284249999997,
      "v": 62
    },
    {
      "midi": 60,
      "hit": false,
      "t": 123428.44799999997,
      "d": 1464.284249999997,
      "v": 62
    },
    {
      "midi": 64,
      "hit": false,
      "t": 123428.44799999997,
      "d": 1464.284249999997,
      "v": 62
    },
    {
      "midi": 45,
      "hit": false,
      "t": 123442.73369999997,
      "d": 1449.998550000004,
      "v": 67
    },
    {
      "midi": 54,
      "hit": false,
      "t": 124928.44649999998,
      "d": 357.1424999999872,
      "v": 67
    },
    {
      "midi": 59,
      "hit": false,
      "t": 124928.44649999998,
      "d": 357.1424999999872,
      "v": 67
    },
    {
      "midi": 62,
      "hit": false,
      "t": 124928.44649999998,
      "d": 357.1424999999872,
      "v": 67
    },
    {
      "midi": 45,
      "hit": false,
      "t": 124942.73219999997,
      "d": 1782.1410749999923,
      "v": 68
    },
    {
      "midi": 54,
      "hit": false,
      "t": 125357.01749999996,
      "d": 121.4284500000067,
      "v": 62
    },
    {
      "midi": 59,
      "hit": false,
      "t": 125357.01749999996,
      "d": 121.4284500000067,
      "v": 62
    },
    {
      "midi": 62,
      "hit": false,
      "t": 125357.01749999996,
      "d": 121.4284500000067,
      "v": 62
    },
    {
      "midi": 54,
      "hit": false,
      "t": 125785.58849999997,
      "d": 674.999324999997,
      "v": 62
    },
    {
      "midi": 59,
      "hit": false,
      "t": 125785.58849999997,
      "d": 674.999324999997,
      "v": 62
    },
    {
      "midi": 62,
      "hit": false,
      "t": 125785.58849999997,
      "d": 674.999324999997,
      "v": 62
    },
    {
      "midi": 57,
      "hit": false,
      "t": 126857.01599999996,
      "d": 671.4279000000097,
      "v": 62
    },
    {
      "midi": 60,
      "hit": false,
      "t": 126857.01599999996,
      "d": 671.4279000000097,
      "v": 62
    },
    {
      "midi": 64,
      "hit": false,
      "t": 126857.01599999996,
      "d": 671.4279000000097,
      "v": 62
    },
    {
      "midi": 45,
      "hit": false,
      "t": 126878.44454999996,
      "d": 421.428150000007,
      "v": 68
    },
    {
      "midi": 45,
      "hit": false,
      "t": 127499.87249999997,
      "d": 239.28547499999695,
      "v": 55
    },
    {
      "midi": 57,
      "hit": false,
      "t": 127714.15799999997,
      "d": 289.2854249999946,
      "v": 60
    },
    {
      "midi": 60,
      "hit": false,
      "t": 127714.15799999997,
      "d": 289.2854249999946,
      "v": 60
    },
    {
      "midi": 64,
      "hit": false,
      "t": 127714.15799999997,
      "d": 289.2854249999946,
      "v": 60
    },
    {
      "midi": 57,
      "hit": false,
      "t": 128142.72899999996,
      "d": 146.42842500000552,
      "v": 75
    },
    {
      "midi": 60,
      "hit": false,
      "t": 128142.72899999996,
      "d": 146.42842500000552,
      "v": 75
    },
    {
      "midi": 64,
      "hit": false,
      "t": 128142.72899999996,
      "d": 146.42842500000552,
      "v": 75
    },
    {
      "midi": 45,
      "hit": false,
      "t": 128592.72854999997,
      "d": 378.57104999999865,
      "v": 65
    },
    {
      "midi": 57,
      "hit": false,
      "t": 128785.58549999997,
      "d": 164.2855500000005,
      "v": 64
    },
    {
      "midi": 62,
      "hit": false,
      "t": 128785.58549999997,
      "d": 164.2855500000005,
      "v": 64
    },
    {
      "midi": 66,
      "hit": false,
      "t": 128785.58549999997,
      "d": 164.2855500000005,
      "v": 64
    },
    {
      "midi": 45,
      "hit": false,
      "t": 129214.15649999997,
      "d": 249.99975000000268,
      "v": 69
    },
    {
      "midi": 57,
      "hit": false,
      "t": 129428.44199999997,
      "d": 249.99975000000268,
      "v": 62
    },
    {
      "midi": 62,
      "hit": false,
      "t": 129428.44199999997,
      "d": 249.99975000000268,
      "v": 62
    },
    {
      "midi": 66,
      "hit": false,
      "t": 129428.44199999997,
      "d": 249.99975000000268,
      "v": 62
    },
    {
      "midi": 57,
      "hit": false,
      "t": 129857.01299999996,
      "d": 135.7141499999998,
      "v": 64
    },
    {
      "midi": 62,
      "hit": false,
      "t": 129857.01299999996,
      "d": 135.7141499999998,
      "v": 64
    },
    {
      "midi": 66,
      "hit": false,
      "t": 129857.01299999996,
      "d": 135.7141499999998,
      "v": 64
    },
    {
      "midi": 60,
      "hit": false,
      "t": 130285.58399999996,
      "d": 671.4279000000097,
      "v": 62
    },
    {
      "midi": 64,
      "hit": false,
      "t": 130285.58399999996,
      "d": 671.4279000000097,
      "v": 62
    },
    {
      "midi": 67,
      "hit": false,
      "t": 130285.58399999996,
      "d": 671.4279000000097,
      "v": 62
    },
    {
      "midi": 69,
      "hit": false,
      "t": 130285.58399999996,
      "d": 671.4279000000097,
      "v": 62
    },
    {
      "midi": 45,
      "hit": false,
      "t": 130307.01254999996,
      "d": 421.428150000007,
      "v": 68
    },
    {
      "midi": 45,
      "hit": false,
      "t": 130928.44049999997,
      "d": 239.2854750000115,
      "v": 55
    },
    {
      "midi": 60,
      "hit": false,
      "t": 131142.72599999997,
      "d": 289.2854250000091,
      "v": 60
    },
    {
      "midi": 64,
      "hit": false,
      "t": 131142.72599999997,
      "d": 289.2854250000091,
      "v": 60
    },
    {
      "midi": 67,
      "hit": false,
      "t": 131142.72599999997,
      "d": 289.2854250000091,
      "v": 60
    },
    {
      "midi": 69,
      "hit": false,
      "t": 131142.72599999997,
      "d": 289.2854250000091,
      "v": 60
    },
    {
      "midi": 60,
      "hit": false,
      "t": 131571.29699999996,
      "d": 146.42842499999097,
      "v": 75
    },
    {
      "midi": 64,
      "hit": false,
      "t": 131571.29699999996,
      "d": 146.42842499999097,
      "v": 75
    },
    {
      "midi": 67,
      "hit": false,
      "t": 131571.29699999996,
      "d": 146.42842499999097,
      "v": 75
    },
    {
      "midi": 69,
      "hit": false,
      "t": 131571.29699999996,
      "d": 146.42842499999097,
      "v": 75
    },
    {
      "midi": 54,
      "hit": false,
      "t": 131999.86799999996,
      "d": 149.99984999999288,
      "v": 67
    },
    {
      "midi": 57,
      "hit": false,
      "t": 131999.86799999996,
      "d": 149.99984999999288,
      "v": 67
    },
    {
      "midi": 62,
      "hit": false,
      "t": 131999.86799999996,
      "d": 149.99984999999288,
      "v": 67
    },
    {
      "midi": 45,
      "hit": false,
      "t": 132003.43942499996,
      "d": 1539.284175000008,
      "v": 68
    },
    {
      "midi": 54,
      "hit": false,
      "t": 132214.15349999996,
      "d": 121.4284500000067,
      "v": 62
    },
    {
      "midi": 57,
      "hit": false,
      "t": 132214.15349999996,
      "d": 121.4284500000067,
      "v": 62
    },
    {
      "midi": 62,
      "hit": false,
      "t": 132214.15349999996,
      "d": 121.4284500000067,
      "v": 62
    },
    {
      "midi": 54,
      "hit": false,
      "t": 132642.72449999995,
      "d": 674.9993250000116,
      "v": 62
    },
    {
      "midi": 57,
      "hit": false,
      "t": 132642.72449999995,
      "d": 674.9993250000116,
      "v": 62
    },
    {
      "midi": 62,
      "hit": false,
      "t": 132642.72449999995,
      "d": 674.9993250000116,
      "v": 62
    },
    {
      "midi": 57,
      "hit": false,
      "t": 133714.15199999997,
      "d": 149.99984999999288,
      "v": 67
    },
    {
      "midi": 60,
      "hit": false,
      "t": 133714.15199999997,
      "d": 149.99984999999288,
      "v": 67
    },
    {
      "midi": 64,
      "hit": false,
      "t": 133714.15199999997,
      "d": 149.99984999999288,
      "v": 67
    },
    {
      "midi": 45,
      "hit": false,
      "t": 133717.72342499997,
      "d": 1539.284175000008,
      "v": 68
    },
    {
      "midi": 57,
      "hit": false,
      "t": 133928.43749999997,
      "d": 121.4284500000067,
      "v": 62
    },
    {
      "midi": 60,
      "hit": false,
      "t": 133928.43749999997,
      "d": 121.4284500000067,
      "v": 62
    },
    {
      "midi": 64,
      "hit": false,
      "t": 133928.43749999997,
      "d": 121.4284500000067,
      "v": 62
    },
    {
      "midi": 57,
      "hit": false,
      "t": 134357.00849999997,
      "d": 674.9993250000116,
      "v": 62
    },
    {
      "midi": 60,
      "hit": false,
      "t": 134357.00849999997,
      "d": 674.9993250000116,
      "v": 62
    },
    {
      "midi": 64,
      "hit": false,
      "t": 134357.00849999997,
      "d": 674.9993250000116,
      "v": 62
    },
    {
      "midi": 57,
      "hit": false,
      "t": 135428.436,
      "d": 1639.2840750000032,
      "v": 62
    },
    {
      "midi": 62,
      "hit": false,
      "t": 135428.436,
      "d": 1639.2840750000032,
      "v": 62
    },
    {
      "midi": 66,
      "hit": false,
      "t": 135428.436,
      "d": 1639.2840750000032,
      "v": 62
    },
    {
      "midi": 45,
      "hit": false,
      "t": 135442.7217,
      "d": 1564.2841499999922,
      "v": 67
    },
    {
      "midi": 60,
      "hit": false,
      "t": 137142.72,
      "d": 671.4278999999806,
      "v": 62
    },
    {
      "midi": 64,
      "hit": false,
      "t": 137142.72,
      "d": 671.4278999999806,
      "v": 62
    },
    {
      "midi": 67,
      "hit": false,
      "t": 137142.72,
      "d": 671.4278999999806,
      "v": 62
    },
    {
      "midi": 69,
      "hit": false,
      "t": 137142.72,
      "d": 671.4278999999806,
      "v": 62
    },
    {
      "midi": 45,
      "hit": false,
      "t": 137164.14855,
      "d": 421.42814999999246,
      "v": 68
    },
    {
      "midi": 45,
      "hit": false,
      "t": 137785.5765,
      "d": 239.2854750000115,
      "v": 55
    },
    {
      "midi": 60,
      "hit": false,
      "t": 137999.862,
      "d": 289.2854250000091,
      "v": 60
    },
    {
      "midi": 64,
      "hit": false,
      "t": 137999.862,
      "d": 289.2854250000091,
      "v": 60
    },
    {
      "midi": 67,
      "hit": false,
      "t": 137999.862,
      "d": 289.2854250000091,
      "v": 60
    },
    {
      "midi": 69,
      "hit": false,
      "t": 137999.862,
      "d": 289.2854250000091,
      "v": 60
    },
    {
      "midi": 60,
      "hit": false,
      "t": 138428.433,
      "d": 146.42842499999097,
      "v": 75
    },
    {
      "midi": 64,
      "hit": false,
      "t": 138428.433,
      "d": 146.42842499999097,
      "v": 75
    },
    {
      "midi": 67,
      "hit": false,
      "t": 138428.433,
      "d": 146.42842499999097,
      "v": 75
    },
    {
      "midi": 69,
      "hit": false,
      "t": 138428.433,
      "d": 146.42842499999097,
      "v": 75
    },
    {
      "midi": 57,
      "hit": false,
      "t": 138857.004,
      "d": 1096.4274750000332,
      "v": 71
    },
    {
      "midi": 66,
      "hit": false,
      "t": 138857.004,
      "d": 1096.4274750000332,
      "v": 71
    },
    {
      "midi": 45,
      "hit": false,
      "t": 138871.2897,
      "d": 1546.4270250000409,
      "v": 72
    },
    {
      "midi": 62,
      "hit": false,
      "t": 139714.146,
      "d": 239.2854750000115,
      "v": 60
    },
    {
      "midi": 69,
      "hit": false,
      "t": 140142.71700000003,
      "d": 332.14252500000293,
      "v": 66
    },
    {
      "midi": 74,
      "hit": false,
      "t": 140357.00250000003,
      "d": 207.14264999999432,
      "v": 63
    },
    {
      "midi": 52,
      "hit": false,
      "t": 140571.28800000003,
      "d": 214.28549999999814,
      "v": 69
    },
    {
      "midi": 71,
      "hit": false,
      "t": 140785.57350000003,
      "d": 224.99977500000386,
      "v": 79
    },
    {
      "midi": 56,
      "hit": false,
      "t": 141010.57327500003,
      "d": 185.71410000001197,
      "v": 64
    },
    {
      "midi": 59,
      "hit": false,
      "t": 141010.57327500003,
      "d": 185.71410000001197,
      "v": 64
    },
    {
      "midi": 64,
      "hit": false,
      "t": 141010.57327500003,
      "d": 185.71410000001197,
      "v": 64
    },
    {
      "midi": 45,
      "hit": false,
      "t": 141442.71570000003,
      "d": 782.1420749999816,
      "v": 73
    },
    {
      "midi": 57,
      "hit": false,
      "t": 141642.71550000002,
      "d": 464.28524999998626,
      "v": 68
    },
    {
      "midi": 61,
      "hit": false,
      "t": 141642.71550000002,
      "d": 464.28524999998626,
      "v": 68
    },
    {
      "midi": 64,
      "hit": false,
      "t": 141642.71550000002,
      "d": 464.28524999998626,
      "v": 68
    },
    {
      "midi": 52,
      "hit": false,
      "t": 142285.57200000001,
      "d": 214.28549999999814,
      "v": 69
    },
    {
      "midi": 71,
      "hit": false,
      "t": 142499.8575,
      "d": 224.99977500000386,
      "v": 79
    },
    {
      "midi": 59,
      "hit": false,
      "t": 142724.85727500002,
      "d": 185.71410000001197,
      "v": 64
    },
    {
      "midi": 62,
      "hit": false,
      "t": 142724.85727500002,
      "d": 185.71410000001197,
      "v": 64
    },
    {
      "midi": 64,
      "hit": false,
      "t": 142724.85727500002,
      "d": 185.71410000001197,
      "v": 64
    },
    {
      "midi": 68,
      "hit": false,
      "t": 142724.85727500002,
      "d": 185.71410000001197,
      "v": 64
    },
    {
      "midi": 57,
      "hit": false,
      "t": 142939.14277500001,
      "d": 974.9990249999973,
      "v": 68
    },
    {
      "midi": 61,
      "hit": false,
      "t": 142939.14277500001,
      "d": 974.9990249999973,
      "v": 68
    },
    {
      "midi": 64,
      "hit": false,
      "t": 142939.14277500001,
      "d": 974.9990249999973,
      "v": 68
    },
    {
      "midi": 45,
      "hit": false,
      "t": 142939.14277500001,
      "d": 978.5704499999993,
      "v": 73
    },
    {
      "midi": 52,
      "hit": false,
      "t": 144014.1417,
      "d": 782.1420749999816,
      "v": 73
    },
    {
      "midi": 56,
      "hit": false,
      "t": 144214.1415,
      "d": 464.28524999998626,
      "v": 68
    },
    {
      "midi": 59,
      "hit": false,
      "t": 144214.1415,
      "d": 464.28524999998626,
      "v": 68
    },
    {
      "midi": 64,
      "hit": false,
      "t": 144214.1415,
      "d": 464.28524999998626,
      "v": 68
    },
    {
      "midi": 45,
      "hit": false,
      "t": 144856.998,
      "d": 335.71395000000484,
      "v": 69
    },
    {
      "midi": 57,
      "hit": false,
      "t": 145081.997775,
      "d": 396.4281749999791,
      "v": 64
    },
    {
      "midi": 64,
      "hit": false,
      "t": 145285.569,
      "d": 249.99974999998813,
      "v": 79
    },
    {
      "midi": 52,
      "hit": false,
      "t": 145499.8545,
      "d": 214.28549999999814,
      "v": 68
    },
    {
      "midi": 52,
      "hit": false,
      "t": 145714.13999999998,
      "d": 214.28549999999814,
      "v": 69
    },
    {
      "midi": 71,
      "hit": false,
      "t": 145928.42549999998,
      "d": 224.99977500000386,
      "v": 79
    },
    {
      "midi": 59,
      "hit": false,
      "t": 146153.425275,
      "d": 185.71410000001197,
      "v": 64
    },
    {
      "midi": 62,
      "hit": false,
      "t": 146153.425275,
      "d": 185.71410000001197,
      "v": 64
    },
    {
      "midi": 64,
      "hit": false,
      "t": 146153.425275,
      "d": 185.71410000001197,
      "v": 64
    },
    {
      "midi": 68,
      "hit": false,
      "t": 146153.425275,
      "d": 185.71410000001197,
      "v": 64
    },
    {
      "midi": 45,
      "hit": false,
      "t": 146367.71077499999,
      "d": 532.1423249999934,
      "v": 67
    },
    {
      "midi": 64,
      "hit": false,
      "t": 146796.28177499998,
      "d": 396.4281749999791,
      "v": 62
    },
    {
      "midi": 57,
      "hit": false,
      "t": 146999.85299999997,
      "d": 249.99974999998813,
      "v": 77
    },
    {
      "midi": 52,
      "hit": false,
      "t": 147214.13849999997,
      "d": 214.28549999999814,
      "v": 77
    },
    {
      "midi": 52,
      "hit": false,
      "t": 147442.70969999998,
      "d": 782.1420749999816,
      "v": 73
    },
    {
      "midi": 56,
      "hit": false,
      "t": 147642.70949999997,
      "d": 464.28524999998626,
      "v": 68
    },
    {
      "midi": 59,
      "hit": false,
      "t": 147642.70949999997,
      "d": 464.28524999998626,
      "v": 68
    },
    {
      "midi": 64,
      "hit": false,
      "t": 147642.70949999997,
      "d": 464.28524999998626,
      "v": 68
    },
    {
      "midi": 45,
      "hit": false,
      "t": 148285.56599999996,
      "d": 335.71395000000484,
      "v": 69
    },
    {
      "midi": 57,
      "hit": false,
      "t": 148510.56577499997,
      "d": 396.4281749999791,
      "v": 64
    },
    {
      "midi": 64,
      "hit": false,
      "t": 148714.13699999996,
      "d": 249.99974999998813,
      "v": 79
    },
    {
      "midi": 52,
      "hit": false,
      "t": 148928.42249999996,
      "d": 214.28549999999814,
      "v": 68
    },
    {
      "midi": 50,
      "hit": false,
      "t": 149156.99369999996,
      "d": 603.5708250000025,
      "v": 73
    },
    {
      "midi": 57,
      "hit": false,
      "t": 149356.99349999995,
      "d": 403.571025000012,
      "v": 68
    },
    {
      "midi": 62,
      "hit": false,
      "t": 149356.99349999995,
      "d": 403.571025000012,
      "v": 68
    },
    {
      "midi": 66,
      "hit": false,
      "t": 149356.99349999995,
      "d": 403.571025000012,
      "v": 68
    },
    {
      "midi": 55,
      "hit": false,
      "t": 149796.27877499996,
      "d": 974.9990249999973,
      "v": 68
    },
    {
      "midi": 59,
      "hit": false,
      "t": 149796.27877499996,
      "d": 974.9990249999973,
      "v": 68
    },
    {
      "midi": 62,
      "hit": false,
      "t": 149796.27877499996,
      "d": 974.9990249999973,
      "v": 68
    },
    {
      "midi": 43,
      "hit": false,
      "t": 149796.27877499996,
      "d": 978.5704499999993,
      "v": 73
    },
    {
      "midi": 47,
      "hit": false,
      "t": 150871.27769999995,
      "d": 782.1420749999816,
      "v": 73
    },
    {
      "midi": 54,
      "hit": false,
      "t": 151071.27749999994,
      "d": 464.28524999998626,
      "v": 68
    },
    {
      "midi": 59,
      "hit": false,
      "t": 151071.27749999994,
      "d": 464.28524999998626,
      "v": 68
    },
    {
      "midi": 63,
      "hit": false,
      "t": 151071.27749999994,
      "d": 464.28524999998626,
      "v": 68
    },
    {
      "midi": 52,
      "hit": false,
      "t": 151714.13399999993,
      "d": 335.71395000000484,
      "v": 69
    },
    {
      "midi": 64,
      "hit": false,
      "t": 151939.13377499994,
      "d": 396.4281749999791,
      "v": 64
    },
    {
      "midi": 71,
      "hit": false,
      "t": 152142.70499999993,
      "d": 249.99974999998813,
      "v": 79
    },
    {
      "midi": 59,
      "hit": false,
      "t": 152356.99049999993,
      "d": 214.28549999999814,
      "v": 68
    },
    {
      "midi": 54,
      "hit": false,
      "t": 152571.27599999993,
      "d": 778.5706500000088,
      "v": 68
    },
    {
      "midi": 59,
      "hit": false,
      "t": 152571.27599999993,
      "d": 778.5706500000088,
      "v": 68
    },
    {
      "midi": 63,
      "hit": false,
      "t": 152571.27599999993,
      "d": 778.5706500000088,
      "v": 68
    },
    {
      "midi": 47,
      "hit": false,
      "t": 152571.27599999993,
      "d": 782.1420750000107,
      "v": 73
    },
    {
      "midi": 52,
      "hit": false,
      "t": 153428.41799999995,
      "d": 335.71395000000484,
      "v": 69
    },
    {
      "midi": 64,
      "hit": false,
      "t": 153653.41777499995,
      "d": 396.4281749999791,
      "v": 64
    },
    {
      "midi": 71,
      "hit": false,
      "t": 153856.98899999994,
      "d": 249.99974999998813,
      "v": 79
    },
    {
      "midi": 59,
      "hit": false,
      "t": 154071.27449999994,
      "d": 214.28549999999814,
      "v": 68
    },
    {
      "midi": 47,
      "hit": false,
      "t": 154299.84569999995,
      "d": 782.1420749999816,
      "v": 73
    },
    {
      "midi": 54,
      "hit": false,
      "t": 154499.84549999994,
      "d": 464.28524999998626,
      "v": 68
    },
    {
      "midi": 59,
      "hit": false,
      "t": 154499.84549999994,
      "d": 464.28524999998626,
      "v": 68
    },
    {
      "midi": 63,
      "hit": false,
      "t": 154499.84549999994,
      "d": 464.28524999998626,
      "v": 68
    },
    {
      "midi": 52,
      "hit": false,
      "t": 155142.70199999993,
      "d": 335.71395000000484,
      "v": 69
    },
    {
      "midi": 64,
      "hit": false,
      "t": 155367.70177499994,
      "d": 396.4281749999791,
      "v": 64
    },
    {
      "midi": 71,
      "hit": false,
      "t": 155571.27299999993,
      "d": 249.99974999998813,
      "v": 79
    },
    {
      "midi": 59,
      "hit": false,
      "t": 155785.55849999993,
      "d": 214.28549999999814,
      "v": 68
    },
    {
      "midi": 45,
      "hit": false,
      "t": 155999.84399999992,
      "d": 214.28549999999814,
      "v": 69
    },
    {
      "midi": 61,
      "hit": false,
      "t": 156214.12949999992,
      "d": 224.99977500000386,
      "v": 79
    },
    {
      "midi": 57,
      "hit": false,
      "t": 156439.12927499993,
      "d": 185.71410000001197,
      "v": 64
    },
    {
      "midi": 61,
      "hit": false,
      "t": 156439.12927499993,
      "d": 185.71410000001197,
      "v": 64
    },
    {
      "midi": 66,
      "hit": false,
      "t": 156439.12927499993,
      "d": 185.71410000001197,
      "v": 64
    },
    {
      "midi": 57,
      "hit": false,
      "t": 156653.41477499992,
      "d": 974.9990249999973,
      "v": 68
    },
    {
      "midi": 59,
      "hit": false,
      "t": 156653.41477499992,
      "d": 974.9990249999973,
      "v": 68
    },
    {
      "midi": 62,
      "hit": false,
      "t": 156653.41477499992,
      "d": 974.9990249999973,
      "v": 68
    },
    {
      "midi": 66,
      "hit": false,
      "t": 156653.41477499992,
      "d": 974.9990249999973,
      "v": 68
    },
    {
      "midi": 45,
      "hit": false,
      "t": 156653.41477499992,
      "d": 978.5704499999993,
      "v": 73
    },
    {
      "midi": 61,
      "hit": false,
      "t": 157714.1279999999,
      "d": 149.99985000002198,
      "v": 73
    },
    {
      "midi": 64,
      "hit": false,
      "t": 157714.1279999999,
      "d": 149.99985000002198,
      "v": 73
    },
    {
      "midi": 67,
      "hit": false,
      "t": 157714.1279999999,
      "d": 149.99985000002198,
      "v": 73
    },
    {
      "midi": 69,
      "hit": false,
      "t": 157714.1279999999,
      "d": 149.99985000002198,
      "v": 73
    },
    {
      "midi": 45,
      "hit": false,
      "t": 157728.41369999992,
      "d": 1574.998425000027,
      "v": 74
    },
    {
      "midi": 61,
      "hit": false,
      "t": 157928.41349999994,
      "d": 121.4284500000067,
      "v": 68
    },
    {
      "midi": 64,
      "hit": false,
      "t": 157928.41349999994,
      "d": 121.4284500000067,
      "v": 68
    },
    {
      "midi": 67,
      "hit": false,
      "t": 157928.41349999994,
      "d": 121.4284500000067,
      "v": 68
    },
    {
      "midi": 69,
      "hit": false,
      "t": 157928.41349999994,
      "d": 121.4284500000067,
      "v": 68
    },
    {
      "midi": 61,
      "hit": false,
      "t": 158356.98449999993,
      "d": 674.9993250000116,
      "v": 68
    },
    {
      "midi": 64,
      "hit": false,
      "t": 158356.98449999993,
      "d": 674.9993250000116,
      "v": 68
    },
    {
      "midi": 67,
      "hit": false,
      "t": 158356.98449999993,
      "d": 674.9993250000116,
      "v": 68
    },
    {
      "midi": 69,
      "hit": false,
      "t": 158356.98449999993,
      "d": 674.9993250000116,
      "v": 68
    },
    {
      "midi": 50,
      "hit": false,
      "t": 159428.41199999995,
      "d": 607.1422500000044,
      "v": 73
    },
    {
      "midi": 57,
      "hit": false,
      "t": 159428.41199999995,
      "d": 607.1422500000044,
      "v": 68
    },
    {
      "midi": 62,
      "hit": false,
      "t": 159428.41199999995,
      "d": 607.1422500000044,
      "v": 68
    },
    {
      "midi": 65,
      "hit": false,
      "t": 159428.41199999995,
      "d": 607.1422500000044,
      "v": 68
    },
    {
      "midi": 59,
      "hit": false,
      "t": 160071.26849999995,
      "d": 596.4279749999987,
      "v": 68
    },
    {
      "midi": 62,
      "hit": false,
      "t": 160071.26849999995,
      "d": 596.4279749999987,
      "v": 68
    },
    {
      "midi": 64,
      "hit": false,
      "t": 160071.26849999995,
      "d": 596.4279749999987,
      "v": 68
    },
    {
      "midi": 67,
      "hit": false,
      "t": 160071.26849999995,
      "d": 596.4279749999987,
      "v": 68
    },
    {
      "midi": 52,
      "hit": false,
      "t": 160085.55419999996,
      "d": 607.1422500000044,
      "v": 73
    },
    {
      "midi": 57,
      "hit": false,
      "t": 160714.12499999997,
      "d": 389.2853250000044,
      "v": 68
    },
    {
      "midi": 60,
      "hit": false,
      "t": 160714.12499999997,
      "d": 389.2853250000044,
      "v": 68
    },
    {
      "midi": 65,
      "hit": false,
      "t": 160714.12499999997,
      "d": 389.2853250000044,
      "v": 68
    },
    {
      "midi": 53,
      "hit": false,
      "t": 160728.41069999998,
      "d": 399.9996000000101,
      "v": 73
    },
    {
      "midi": 57,
      "hit": false,
      "t": 161142.696,
      "d": 1639.2840750000032,
      "v": 68
    },
    {
      "midi": 60,
      "hit": false,
      "t": 161142.696,
      "d": 1639.2840750000032,
      "v": 68
    },
    {
      "midi": 65,
      "hit": false,
      "t": 161142.696,
      "d": 1639.2840750000032,
      "v": 68
    },
    {
      "midi": 53,
      "hit": false,
      "t": 161156.9817,
      "d": 1564.2841499999922,
      "v": 73
    },
    {
      "midi": 50,
      "hit": false,
      "t": 162856.98,
      "d": 617.8565250000102,
      "v": 73
    },
    {
      "midi": 57,
      "hit": false,
      "t": 162856.98,
      "d": 617.8565250000102,
      "v": 68
    },
    {
      "midi": 62,
      "hit": false,
      "t": 162856.98,
      "d": 617.8565250000102,
      "v": 68
    },
    {
      "midi": 65,
      "hit": false,
      "t": 162856.98,
      "d": 617.8565250000102,
      "v": 68
    },
    {
      "midi": 57,
      "hit": false,
      "t": 163510.550775,
      "d": 974.9990249999973,
      "v": 68
    },
    {
      "midi": 62,
      "hit": false,
      "t": 163510.550775,
      "d": 974.9990249999973,
      "v": 68
    },
    {
      "midi": 66,
      "hit": false,
      "t": 163510.550775,
      "d": 974.9990249999973,
      "v": 68
    },
    {
      "midi": 50,
      "hit": false,
      "t": 163510.550775,
      "d": 978.5704499999993,
      "v": 73
    },
    {
      "midi": 57,
      "hit": false,
      "t": 164571.264,
      "d": 671.4278999999806,
      "v": 68
    },
    {
      "midi": 60,
      "hit": false,
      "t": 164571.264,
      "d": 671.4278999999806,
      "v": 68
    },
    {
      "midi": 64,
      "hit": false,
      "t": 164571.264,
      "d": 671.4278999999806,
      "v": 68
    },
    {
      "midi": 45,
      "hit": false,
      "t": 164592.69255,
      "d": 421.42814999999246,
      "v": 74
    },
    {
      "midi": 45,
      "hit": false,
      "t": 165214.1205,
      "d": 239.2854750000115,
      "v": 61
    },
    {
      "midi": 57,
      "hit": false,
      "t": 165428.406,
      "d": 289.2854250000091,
      "v": 66
    },
    {
      "midi": 60,
      "hit": false,
      "t": 165428.406,
      "d": 289.2854250000091,
      "v": 66
    },
    {
      "midi": 64,
      "hit": false,
      "t": 165428.406,
      "d": 289.2854250000091,
      "v": 66
    },
    {
      "midi": 57,
      "hit": false,
      "t": 165856.97699999998,
      "d": 146.42842499999097,
      "v": 81
    },
    {
      "midi": 60,
      "hit": false,
      "t": 165856.97699999998,
      "d": 146.42842499999097,
      "v": 81
    },
    {
      "midi": 64,
      "hit": false,
      "t": 165856.97699999998,
      "d": 146.42842499999097,
      "v": 81
    },
    {
      "midi": 57,
      "hit": false,
      "t": 166071.26249999998,
      "d": 357.1425000000163,
      "v": 73
    },
    {
      "midi": 59,
      "hit": false,
      "t": 166071.26249999998,
      "d": 357.1425000000163,
      "v": 73
    },
    {
      "midi": 62,
      "hit": false,
      "t": 166071.26249999998,
      "d": 357.1425000000163,
      "v": 73
    },
    {
      "midi": 66,
      "hit": false,
      "t": 166071.26249999998,
      "d": 357.1425000000163,
      "v": 73
    },
    {
      "midi": 47,
      "hit": false,
      "t": 166074.83392499998,
      "d": 1746.4268250000314,
      "v": 74
    },
    {
      "midi": 57,
      "hit": false,
      "t": 166499.8335,
      "d": 121.4284500000067,
      "v": 68
    },
    {
      "midi": 59,
      "hit": false,
      "t": 166499.8335,
      "d": 121.4284500000067,
      "v": 68
    },
    {
      "midi": 62,
      "hit": false,
      "t": 166499.8335,
      "d": 121.4284500000067,
      "v": 68
    },
    {
      "midi": 66,
      "hit": false,
      "t": 166499.8335,
      "d": 121.4284500000067,
      "v": 68
    },
    {
      "midi": 57,
      "hit": false,
      "t": 166928.4045,
      "d": 674.9993250000116,
      "v": 68
    },
    {
      "midi": 59,
      "hit": false,
      "t": 166928.4045,
      "d": 674.9993250000116,
      "v": 68
    },
    {
      "midi": 62,
      "hit": false,
      "t": 166928.4045,
      "d": 674.9993250000116,
      "v": 68
    },
    {
      "midi": 66,
      "hit": false,
      "t": 166928.4045,
      "d": 674.9993250000116,
      "v": 68
    },
    {
      "midi": 45,
      "hit": false,
      "t": 168021.26055,
      "d": 378.57104999999865,
      "v": 65
    },
    {
      "midi": 57,
      "hit": false,
      "t": 168214.1175,
      "d": 164.2855500000005,
      "v": 64
    },
    {
      "midi": 60,
      "hit": false,
      "t": 168214.1175,
      "d": 164.2855500000005,
      "v": 64
    },
    {
      "midi": 64,
      "hit": false,
      "t": 168214.1175,
      "d": 164.2855500000005,
      "v": 64
    },
    {
      "midi": 45,
      "hit": false,
      "t": 168642.68850000002,
      "d": 249.99974999998813,
      "v": 69
    },
    {
      "midi": 57,
      "hit": false,
      "t": 168856.97400000002,
      "d": 249.99974999998813,
      "v": 62
    },
    {
      "midi": 60,
      "hit": false,
      "t": 168856.97400000002,
      "d": 249.99974999998813,
      "v": 62
    },
    {
      "midi": 64,
      "hit": false,
      "t": 168856.97400000002,
      "d": 249.99974999998813,
      "v": 62
    },
    {
      "midi": 57,
      "hit": false,
      "t": 169285.545,
      "d": 135.71415000001434,
      "v": 64
    },
    {
      "midi": 60,
      "hit": false,
      "t": 169285.545,
      "d": 135.71415000001434,
      "v": 64
    },
    {
      "midi": 64,
      "hit": false,
      "t": 169285.545,
      "d": 135.71415000001434,
      "v": 64
    },
    {
      "midi": 54,
      "hit": false,
      "t": 169499.83050000004,
      "d": 878.570550000004,
      "v": 62
    },
    {
      "midi": 59,
      "hit": false,
      "t": 169499.83050000004,
      "d": 878.570550000004,
      "v": 62
    },
    {
      "midi": 63,
      "hit": false,
      "t": 169499.83050000004,
      "d": 878.570550000004,
      "v": 62
    },
    {
      "midi": 45,
      "hit": false,
      "t": 169521.25905000005,
      "d": 628.5707999999868,
      "v": 68
    },
    {
      "midi": 45,
      "hit": false,
      "t": 170356.97250000003,
      "d": 239.2854750000115,
      "v": 55
    },
    {
      "midi": 54,
      "hit": false,
      "t": 170571.25800000003,
      "d": 289.2854250000091,
      "v": 60
    },
    {
      "midi": 59,
      "hit": false,
      "t": 170571.25800000003,
      "d": 289.2854250000091,
      "v": 60
    },
    {
      "midi": 63,
      "hit": false,
      "t": 170571.25800000003,
      "d": 289.2854250000091,
      "v": 60
    },
    {
      "midi": 54,
      "hit": false,
      "t": 170999.82900000003,
      "d": 146.42842499999097,
      "v": 75
    },
    {
      "midi": 59,
      "hit": false,
      "t": 170999.82900000003,
      "d": 146.42842499999097,
      "v": 75
    },
    {
      "midi": 63,
      "hit": false,
      "t": 170999.82900000003,
      "d": 146.42842499999097,
      "v": 75
    },
    {
      "midi": 57,
      "hit": false,
      "t": 171428.40000000002,
      "d": 149.99985000002198,
      "v": 67
    },
    {
      "midi": 60,
      "hit": false,
      "t": 171428.40000000002,
      "d": 149.99985000002198,
      "v": 67
    },
    {
      "midi": 64,
      "hit": false,
      "t": 171428.40000000002,
      "d": 149.99985000002198,
      "v": 67
    },
    {
      "midi": 45,
      "hit": false,
      "t": 171442.68570000003,
      "d": 1449.9985500000184,
      "v": 68
    },
    {
      "midi": 57,
      "hit": false,
      "t": 171642.68550000005,
      "d": 121.4284500000067,
      "v": 62
    },
    {
      "midi": 60,
      "hit": false,
      "t": 171642.68550000005,
      "d": 121.4284500000067,
      "v": 62
    },
    {
      "midi": 64,
      "hit": false,
      "t": 171642.68550000005,
      "d": 121.4284500000067,
      "v": 62
    },
    {
      "midi": 57,
      "hit": false,
      "t": 172071.25650000005,
      "d": 674.9993250000116,
      "v": 62
    },
    {
      "midi": 60,
      "hit": false,
      "t": 172071.25650000005,
      "d": 674.9993250000116,
      "v": 62
    },
    {
      "midi": 64,
      "hit": false,
      "t": 172071.25650000005,
      "d": 674.9993250000116,
      "v": 62
    },
    {
      "midi": 54,
      "hit": false,
      "t": 172928.39850000004,
      "d": 357.1425000000163,
      "v": 67
    },
    {
      "midi": 59,
      "hit": false,
      "t": 172928.39850000004,
      "d": 357.1425000000163,
      "v": 67
    },
    {
      "midi": 63,
      "hit": false,
      "t": 172928.39850000004,
      "d": 357.1425000000163,
      "v": 67
    },
    {
      "midi": 45,
      "hit": false,
      "t": 172942.68420000005,
      "d": 1782.1410750000214,
      "v": 68
    },
    {
      "midi": 54,
      "hit": false,
      "t": 173356.96950000006,
      "d": 121.4284500000067,
      "v": 62
    },
    {
      "midi": 59,
      "hit": false,
      "t": 173356.96950000006,
      "d": 121.4284500000067,
      "v": 62
    },
    {
      "midi": 63,
      "hit": false,
      "t": 173356.96950000006,
      "d": 121.4284500000067,
      "v": 62
    },
    {
      "midi": 54,
      "hit": false,
      "t": 173785.54050000006,
      "d": 674.9993250000116,
      "v": 62
    },
    {
      "midi": 59,
      "hit": false,
      "t": 173785.54050000006,
      "d": 674.9993250000116,
      "v": 62
    },
    {
      "midi": 63,
      "hit": false,
      "t": 173785.54050000006,
      "d": 674.9993250000116,
      "v": 62
    },
    {
      "midi": 57,
      "hit": false,
      "t": 174856.96800000008,
      "d": 671.4278999999806,
      "v": 62
    },
    {
      "midi": 60,
      "hit": false,
      "t": 174856.96800000008,
      "d": 671.4278999999806,
      "v": 62
    },
    {
      "midi": 64,
      "hit": false,
      "t": 174856.96800000008,
      "d": 671.4278999999806,
      "v": 62
    },
    {
      "midi": 45,
      "hit": false,
      "t": 174878.3965500001,
      "d": 421.42814999999246,
      "v": 68
    },
    {
      "midi": 45,
      "hit": false,
      "t": 175499.82450000008,
      "d": 239.2854750000115,
      "v": 55
    },
    {
      "midi": 57,
      "hit": false,
      "t": 175714.11000000007,
      "d": 289.2854250000091,
      "v": 60
    },
    {
      "midi": 60,
      "hit": false,
      "t": 175714.11000000007,
      "d": 289.2854250000091,
      "v": 60
    },
    {
      "midi": 64,
      "hit": false,
      "t": 175714.11000000007,
      "d": 289.2854250000091,
      "v": 60
    },
    {
      "midi": 57,
      "hit": false,
      "t": 176142.68100000007,
      "d": 146.42842499999097,
      "v": 75
    },
    {
      "midi": 60,
      "hit": false,
      "t": 176142.68100000007,
      "d": 146.42842499999097,
      "v": 75
    },
    {
      "midi": 64,
      "hit": false,
      "t": 176142.68100000007,
      "d": 146.42842499999097,
      "v": 75
    },
    {
      "midi": 54,
      "hit": false,
      "t": 176356.96650000007,
      "d": 985.7133000000031,
      "v": 62
    },
    {
      "midi": 59,
      "hit": false,
      "t": 176356.96650000007,
      "d": 985.7133000000031,
      "v": 62
    },
    {
      "midi": 62,
      "hit": false,
      "t": 176356.96650000007,
      "d": 985.7133000000031,
      "v": 62
    },
    {
      "midi": 45,
      "hit": false,
      "t": 176356.96650000007,
      "d": 989.284725000005,
      "v": 67
    },
    {
      "midi": 45,
      "hit": false,
      "t": 177428.39400000006,
      "d": 335.71395000000484,
      "v": 63
    },
    {
      "midi": 57,
      "hit": false,
      "t": 177653.39377500006,
      "d": 396.4281749999791,
      "v": 58
    },
    {
      "midi": 64,
      "hit": false,
      "t": 177856.96500000005,
      "d": 249.99974999998813,
      "v": 73
    },
    {
      "midi": 52,
      "hit": false,
      "t": 178071.25050000005,
      "d": 214.28549999999814,
      "v": 62
    }
  ]
}