{
  "jsonPath": "Rock/Classic Garage Rock/The Association/cherish.json",
  "path": "Rock\\Classic Garage Rock\\The Association\\Cherish.mid",
  "name": "Cherish",
  "difficulty": "Advanced",
  "bpm": 108.000108000108,
  "notes": [
    {
      "midi": 53,
      "hit": false,
      "t": 2499.997500000002,
      "d": 1446.757812500001,
      "v": 120
    },
    {
      "midi": 53,
      "hit": false,
      "t": 2499.997500000002,
      "d": 1446.757812500001,
      "v": 36
    },
    {
      "midi": 60,
      "hit": false,
      "t": 2777.7750000000024,
      "d": 729.1659375000004,
      "v": 120
    },
    {
      "midi": 60,
      "hit": false,
      "t": 2777.7750000000024,
      "d": 729.1659375000004,
      "v": 36
    },
    {
      "midi": 64,
      "hit": false,
      "t": 3055.5525000000025,
      "d": 677.0826562500001,
      "v": 120
    },
    {
      "midi": 64,
      "hit": false,
      "t": 3055.5525000000025,
      "d": 677.0826562500001,
      "v": 36
    },
    {
      "midi": 69,
      "hit": false,
      "t": 3333.3300000000027,
      "d": 434.02734375,
      "v": 120
    },
    {
      "midi": 69,
      "hit": false,
      "t": 3333.3300000000027,
      "d": 434.02734375,
      "v": 36
    },
    {
      "midi": 60,
      "hit": false,
      "t": 3611.107500000003,
      "d": 254.62937499999998,
      "v": 120
    },
    {
      "midi": 60,
      "hit": false,
      "t": 3611.107500000003,
      "d": 254.62937499999998,
      "v": 36
    },
    {
      "midi": 64,
      "hit": false,
      "t": 3888.885000000003,
      "d": 497.6846875000001,
      "v": 120
    },
    {
      "midi": 69,
      "hit": false,
      "t": 3888.885000000003,
      "d": 497.6846875000001,
      "v": 120
    },
    {
      "midi": 72,
      "hit": false,
      "t": 3888.885000000003,
      "d": 509.25874999999996,
      "v": 120
    },
    {
      "midi": 64,
      "hit": false,
      "t": 3888.885000000003,
      "d": 497.6846875000001,
      "v": 36
    },
    {
      "midi": 69,
      "hit": false,
      "t": 3888.885000000003,
      "d": 497.6846875000001,
      "v": 36
    },
    {
      "midi": 72,
      "hit": false,
      "t": 3888.885000000003,
      "d": 509.25874999999996,
      "v": 36
    },
    {
      "midi": 62,
      "hit": false,
      "t": 4444.440000000002,
      "d": 347.2218750000002,
      "v": 120
    },
    {
      "midi": 67,
      "hit": false,
      "t": 4444.440000000002,
      "d": 439.8143749999999,
      "v": 120
    },
    {
      "midi": 70,
      "hit": false,
      "t": 4444.440000000002,
      "d": 526.6198437499997,
      "v": 120
    },
    {
      "midi": 55,
      "hit": false,
      "t": 4444.440000000002,
      "d": 1782.4056250000003,
      "v": 120
    },
    {
      "midi": 58,
      "hit": false,
      "t": 4444.440000000002,
      "d": 1788.1926562500003,
      "v": 120
    },
    {
      "midi": 51,
      "hit": false,
      "t": 4444.440000000002,
      "d": 1834.4889062499997,
      "v": 120
    },
    {
      "midi": 62,
      "hit": false,
      "t": 4444.440000000002,
      "d": 347.2218750000002,
      "v": 36
    },
    {
      "midi": 67,
      "hit": false,
      "t": 4444.440000000002,
      "d": 439.8143749999999,
      "v": 36
    },
    {
      "midi": 70,
      "hit": false,
      "t": 4444.440000000002,
      "d": 526.6198437499997,
      "v": 36
    },
    {
      "midi": 55,
      "hit": false,
      "t": 4444.440000000002,
      "d": 1782.4056250000003,
      "v": 36
    },
    {
      "midi": 58,
      "hit": false,
      "t": 4444.440000000002,
      "d": 1788.1926562500003,
      "v": 36
    },
    {
      "midi": 51,
      "hit": false,
      "t": 4444.440000000002,
      "d": 1834.4889062499997,
      "v": 36
    },
    {
      "midi": 62,
      "hit": false,
      "t": 4999.995000000002,
      "d": 133.10171875000015,
      "v": 120
    },
    {
      "midi": 62,
      "hit": false,
      "t": 4999.995000000002,
      "d": 133.10171875000015,
      "v": 36
    },
    {
      "midi": 67,
      "hit": false,
      "t": 5277.772500000002,
      "d": 92.59249999999975,
      "v": 120
    },
    {
      "midi": 67,
      "hit": false,
      "t": 5277.772500000002,
      "d": 92.59249999999975,
      "v": 36
    },
    {
      "midi": 67,
      "hit": false,
      "t": 5555.550000000002,
      "d": 185.1850000000004,
      "v": 120
    },
    {
      "midi": 70,
      "hit": false,
      "t": 5555.550000000002,
      "d": 196.75906250000025,
      "v": 120
    },
    {
      "midi": 74,
      "hit": false,
      "t": 5555.550000000002,
      "d": 214.12015625000004,
      "v": 120
    },
    {
      "midi": 67,
      "hit": false,
      "t": 5555.550000000002,
      "d": 185.1850000000004,
      "v": 36
    },
    {
      "midi": 70,
      "hit": false,
      "t": 5555.550000000002,
      "d": 196.75906250000025,
      "v": 36
    },
    {
      "midi": 74,
      "hit": false,
      "t": 5555.550000000002,
      "d": 214.12015625000004,
      "v": 36
    },
    {
      "midi": 79,
      "hit": false,
      "t": 6111.105000000002,
      "d": 133.10171875000015,
      "v": 120
    },
    {
      "midi": 79,
      "hit": false,
      "t": 6111.105000000002,
      "d": 133.10171875000015,
      "v": 36
    },
    {
      "midi": 53,
      "hit": false,
      "t": 6666.660000000003,
      "d": 1597.2206250000008,
      "v": 120
    },
    {
      "midi": 53,
      "hit": false,
      "t": 6666.660000000003,
      "d": 1597.2206250000008,
      "v": 36
    },
    {
      "midi": 60,
      "hit": false,
      "t": 6944.437500000003,
      "d": 989.5823437499994,
      "v": 120
    },
    {
      "midi": 60,
      "hit": false,
      "t": 6944.437500000003,
      "d": 989.5823437499994,
      "v": 36
    },
    {
      "midi": 64,
      "hit": false,
      "t": 7222.215000000003,
      "d": 445.60140624999985,
      "v": 120
    },
    {
      "midi": 64,
      "hit": false,
      "t": 7222.215000000003,
      "d": 445.60140624999985,
      "v": 36
    },
    {
      "midi": 69,
      "hit": false,
      "t": 7499.992500000003,
      "d": 173.61093749999964,
      "v": 120
    },
    {
      "midi": 69,
      "hit": false,
      "t": 7499.992500000003,
      "d": 173.61093749999964,
      "v": 36
    },
    {
      "midi": 64,
      "hit": false,
      "t": 7777.770000000002,
      "d": 324.0737500000005,
      "v": 120
    },
    {
      "midi": 69,
      "hit": false,
      "t": 7777.770000000002,
      "d": 376.1570312500007,
      "v": 120
    },
    {
      "midi": 64,
      "hit": false,
      "t": 7777.770000000002,
      "d": 324.0737500000005,
      "v": 36
    },
    {
      "midi": 69,
      "hit": false,
      "t": 7777.770000000002,
      "d": 376.1570312500007,
      "v": 36
    },
    {
      "midi": 60,
      "hit": false,
      "t": 8055.547500000002,
      "d": 185.1850000000013,
      "v": 120
    },
    {
      "midi": 60,
      "hit": false,
      "t": 8055.547500000002,
      "d": 185.1850000000013,
      "v": 36
    },
    {
      "midi": 69,
      "hit": false,
      "t": 8333.325000000003,
      "d": 405.09218750000036,
      "v": 120
    },
    {
      "midi": 64,
      "hit": false,
      "t": 8333.325000000003,
      "d": 416.6662500000002,
      "v": 120
    },
    {
      "midi": 72,
      "hit": false,
      "t": 8333.325000000003,
      "d": 439.8143749999999,
      "v": 120
    },
    {
      "midi": 69,
      "hit": false,
      "t": 8333.325000000003,
      "d": 405.09218750000036,
      "v": 36
    },
    {
      "midi": 64,
      "hit": false,
      "t": 8333.325000000003,
      "d": 416.6662500000002,
      "v": 36
    },
    {
      "midi": 72,
      "hit": false,
      "t": 8333.325000000003,
      "d": 439.8143749999999,
      "v": 36
    },
    {
      "midi": 62,
      "hit": false,
      "t": 8888.880000000003,
      "d": 347.2218749999993,
      "v": 120
    },
    {
      "midi": 67,
      "hit": false,
      "t": 8888.880000000003,
      "d": 439.8143749999999,
      "v": 120
    },
    {
      "midi": 70,
      "hit": false,
      "t": 8888.880000000003,
      "d": 526.6198437500007,
      "v": 120
    },
    {
      "midi": 55,
      "hit": false,
      "t": 8888.880000000003,
      "d": 1782.4056249999994,
      "v": 120
    },
    {
      "midi": 58,
      "hit": false,
      "t": 8888.880000000003,
      "d": 1788.1926562499993,
      "v": 120
    },
    {
      "midi": 51,
      "hit": false,
      "t": 8888.880000000003,
      "d": 1834.4889062499988,
      "v": 120
    },
    {
      "midi": 62,
      "hit": false,
      "t": 8888.880000000003,
      "d": 347.2218749999993,
      "v": 36
    },
    {
      "midi": 67,
      "hit": false,
      "t": 8888.880000000003,
      "d": 439.8143749999999,
      "v": 36
    },
    {
      "midi": 70,
      "hit": false,
      "t": 8888.880000000003,
      "d": 526.6198437500007,
      "v": 36
    },
    {
      "midi": 55,
      "hit": false,
      "t": 8888.880000000003,
      "d": 1782.4056249999994,
      "v": 36
    },
    {
      "midi": 58,
      "hit": false,
      "t": 8888.880000000003,
      "d": 1788.1926562499993,
      "v": 36
    },
    {
      "midi": 51,
      "hit": false,
      "t": 8888.880000000003,
      "d": 1834.4889062499988,
      "v": 36
    },
    {
      "midi": 62,
      "hit": false,
      "t": 9444.435000000003,
      "d": 133.10171875000015,
      "v": 120
    },
    {
      "midi": 62,
      "hit": false,
      "t": 9444.435000000003,
      "d": 133.10171875000015,
      "v": 36
    },
    {
      "midi": 67,
      "hit": false,
      "t": 9722.212500000003,
      "d": 92.59250000000065,
      "v": 120
    },
    {
      "midi": 67,
      "hit": false,
      "t": 9722.212500000003,
      "d": 92.59250000000065,
      "v": 36
    },
    {
      "midi": 67,
      "hit": false,
      "t": 9999.990000000003,
      "d": 185.1849999999995,
      "v": 120
    },
    {
      "midi": 70,
      "hit": false,
      "t": 9999.990000000003,
      "d": 196.75906249999935,
      "v": 120
    },
    {
      "midi": 74,
      "hit": false,
      "t": 9999.990000000003,
      "d": 214.12015624999913,
      "v": 120
    },
    {
      "midi": 67,
      "hit": false,
      "t": 9999.990000000003,
      "d": 185.1849999999995,
      "v": 36
    },
    {
      "midi": 70,
      "hit": false,
      "t": 9999.990000000003,
      "d": 196.75906249999935,
      "v": 36
    },
    {
      "midi": 74,
      "hit": false,
      "t": 9999.990000000003,
      "d": 214.12015624999913,
      "v": 36
    },
    {
      "midi": 79,
      "hit": false,
      "t": 10555.545000000002,
      "d": 133.10171875000015,
      "v": 120
    },
    {
      "midi": 79,
      "hit": false,
      "t": 10555.545000000002,
      "d": 133.10171875000015,
      "v": 36
    },
    {
      "midi": 57,
      "hit": false,
      "t": 11111.1,
      "d": 567.1290625000001,
      "v": 120
    },
    {
      "midi": 60,
      "hit": false,
      "t": 11111.1,
      "d": 769.6751562499994,
      "v": 120
    },
    {
      "midi": 65,
      "hit": false,
      "t": 11111.1,
      "d": 902.7768749999977,
      "v": 120
    },
    {
      "midi": 41,
      "hit": false,
      "t": 11111.1,
      "d": 1076.3878124999992,
      "v": 120
    },
    {
      "midi": 57,
      "hit": false,
      "t": 11111.1,
      "d": 567.1290625000001,
      "v": 36
    },
    {
      "midi": 60,
      "hit": false,
      "t": 11111.1,
      "d": 769.6751562499994,
      "v": 36
    },
    {
      "midi": 65,
      "hit": false,
      "t": 11111.1,
      "d": 902.7768749999996,
      "v": 36
    },
    {
      "midi": 48,
      "hit": false,
      "t": 11666.655,
      "d": 69.44437499999913,
      "v": 120
    },
    {
      "midi": 57,
      "hit": false,
      "t": 11944.432499999999,
      "d": 162.03687499999978,
      "v": 120
    },
    {
      "midi": 60,
      "hit": false,
      "t": 12222.21,
      "d": 190.97203124999942,
      "v": 120
    },
    {
      "midi": 60,
      "hit": false,
      "t": 12499.9875,
      "d": 196.75906249999935,
      "v": 120
    },
    {
      "midi": 65,
      "hit": false,
      "t": 12499.9875,
      "d": 694.4437499999985,
      "v": 120
    },
    {
      "midi": 65,
      "hit": false,
      "t": 12499.9875,
      "d": 694.4437500000004,
      "v": 36
    },
    {
      "midi": 58,
      "hit": false,
      "t": 13333.319999999998,
      "d": 422.4532812499983,
      "v": 120
    },
    {
      "midi": 65,
      "hit": false,
      "t": 13333.319999999998,
      "d": 474.5365624999977,
      "v": 120
    },
    {
      "midi": 48,
      "hit": false,
      "t": 13333.319999999998,
      "d": 543.9809374999968,
      "v": 120
    },
    {
      "midi": 62,
      "hit": false,
      "t": 13333.319999999998,
      "d": 561.3420312499966,
      "v": 120
    },
    {
      "midi": 58,
      "hit": false,
      "t": 13333.32,
      "d": 422.4532812499983,
      "v": 36
    },
    {
      "midi": 65,
      "hit": false,
      "t": 13333.32,
      "d": 474.5365624999977,
      "v": 36
    },
    {
      "midi": 62,
      "hit": false,
      "t": 13333.32,
      "d": 561.3420312499984,
      "v": 36
    },
    {
      "midi": 58,
      "hit": false,
      "t": 13888.874999999995,
      "d": 167.8239062499997,
      "v": 120
    },
    {
      "midi": 58,
      "hit": false,
      "t": 13888.874999999998,
      "d": 167.8239062499997,
      "v": 36
    },
    {
      "midi": 62,
      "hit": false,
      "t": 14166.652499999995,
      "d": 196.75906249999935,
      "v": 120
    },
    {
      "midi": 62,
      "hit": false,
      "t": 14166.652499999998,
      "d": 196.75906249999935,
      "v": 36
    },
    {
      "midi": 65,
      "hit": false,
      "t": 14444.429999999995,
      "d": 358.79593750000095,
      "v": 120
    },
    {
      "midi": 65,
      "hit": false,
      "t": 14444.429999999998,
      "d": 358.79593750000095,
      "v": 36
    },
    {
      "midi": 62,
      "hit": false,
      "t": 14722.207499999995,
      "d": 231.48125000000073,
      "v": 120
    },
    {
      "midi": 62,
      "hit": false,
      "t": 14722.207499999999,
      "d": 231.48125000000073,
      "v": 36
    },
    {
      "midi": 62,
      "hit": false,
      "t": 14999.984999999995,
      "d": 138.88875000000007,
      "v": 120
    },
    {
      "midi": 58,
      "hit": false,
      "t": 14999.984999999995,
      "d": 173.61093749999964,
      "v": 120
    },
    {
      "midi": 62,
      "hit": false,
      "t": 14999.984999999999,
      "d": 138.88875000000007,
      "v": 36
    },
    {
      "midi": 58,
      "hit": false,
      "t": 14999.984999999999,
      "d": 173.61093749999964,
      "v": 36
    },
    {
      "midi": 58,
      "hit": false,
      "t": 15555.539999999995,
      "d": 596.064218749998,
      "v": 120
    },
    {
      "midi": 67,
      "hit": false,
      "t": 15555.539999999995,
      "d": 630.7864062499975,
      "v": 120
    },
    {
      "midi": 55,
      "hit": false,
      "t": 15555.539999999995,
      "d": 636.5734374999975,
      "v": 120
    },
    {
      "midi": 62,
      "hit": false,
      "t": 15555.539999999995,
      "d": 653.9345312499972,
      "v": 120
    },
    {
      "midi": 51,
      "hit": false,
      "t": 15555.539999999995,
      "d": 671.295624999997,
      "v": 120
    },
    {
      "midi": 58,
      "hit": false,
      "t": 15555.539999999999,
      "d": 596.064218749998,
      "v": 36
    },
    {
      "midi": 67,
      "hit": false,
      "t": 15555.539999999999,
      "d": 630.7864062499975,
      "v": 36
    },
    {
      "midi": 62,
      "hit": false,
      "t": 15555.539999999999,
      "d": 653.9345312499972,
      "v": 36
    },
    {
      "midi": 58,
      "hit": false,
      "t": 16388.872499999994,
      "d": 590.2771874999999,
      "v": 120
    },
    {
      "midi": 67,
      "hit": false,
      "t": 16388.872499999994,
      "d": 740.739999999998,
      "v": 120
    },
    {
      "midi": 62,
      "hit": false,
      "t": 16388.872499999994,
      "d": 844.9065624999967,
      "v": 120
    },
    {
      "midi": 58,
      "hit": false,
      "t": 16388.872499999998,
      "d": 590.2771874999999,
      "v": 36
    },
    {
      "midi": 67,
      "hit": false,
      "t": 16388.872499999998,
      "d": 740.7400000000016,
      "v": 36
    },
    {
      "midi": 62,
      "hit": false,
      "t": 16388.872499999998,
      "d": 844.9065625000003,
      "v": 36
    },
    {
      "midi": 51,
      "hit": false,
      "t": 16944.427499999994,
      "d": 150.4628124999981,
      "v": 120
    },
    {
      "midi": 58,
      "hit": false,
      "t": 17222.20499999999,
      "d": 167.8239062499997,
      "v": 120
    },
    {
      "midi": 58,
      "hit": false,
      "t": 17222.204999999998,
      "d": 167.8239062499997,
      "v": 36
    },
    {
      "midi": 58,
      "hit": false,
      "t": 17777.75999999999,
      "d": 474.5365625000013,
      "v": 120
    },
    {
      "midi": 65,
      "hit": false,
      "t": 17777.75999999999,
      "d": 515.0457812500026,
      "v": 120
    },
    {
      "midi": 48,
      "hit": false,
      "t": 17777.75999999999,
      "d": 677.0826562500042,
      "v": 120
    },
    {
      "midi": 62,
      "hit": false,
      "t": 17777.75999999999,
      "d": 700.2307812500039,
      "v": 120
    },
    {
      "midi": 58,
      "hit": false,
      "t": 17777.76,
      "d": 474.5365625000013,
      "v": 36
    },
    {
      "midi": 65,
      "hit": false,
      "t": 17777.76,
      "d": 515.0457812500026,
      "v": 36
    },
    {
      "midi": 62,
      "hit": false,
      "t": 17777.76,
      "d": 700.2307812500039,
      "v": 36
    },
    {
      "midi": 58,
      "hit": false,
      "t": 18611.092499999995,
      "d": 243.05531250000058,
      "v": 120
    },
    {
      "midi": 58,
      "hit": false,
      "t": 18611.092500000002,
      "d": 243.05531250000058,
      "v": 36
    },
    {
      "midi": 62,
      "hit": false,
      "t": 18888.869999999995,
      "d": 208.33312500000102,
      "v": 120
    },
    {
      "midi": 62,
      "hit": false,
      "t": 18888.870000000003,
      "d": 208.33312500000102,
      "v": 36
    },
    {
      "midi": 65,
      "hit": false,
      "t": 19166.647499999995,
      "d": 127.3146874999984,
      "v": 120
    },
    {
      "midi": 65,
      "hit": false,
      "t": 19166.647500000003,
      "d": 127.3146874999984,
      "v": 36
    },
    {
      "midi": 57,
      "hit": false,
      "t": 19999.979999999992,
      "d": 567.1290625000001,
      "v": 120
    },
    {
      "midi": 60,
      "hit": false,
      "t": 19999.979999999992,
      "d": 769.6751562499994,
      "v": 120
    },
    {
      "midi": 65,
      "hit": false,
      "t": 19999.979999999992,
      "d": 902.7768749999996,
      "v": 120
    },
    {
      "midi": 41,
      "hit": false,
      "t": 19999.979999999992,
      "d": 1076.3878124999974,
      "v": 120
    },
    {
      "midi": 57,
      "hit": false,
      "t": 19999.98,
      "d": 567.1290625000001,
      "v": 36
    },
    {
      "midi": 60,
      "hit": false,
      "t": 19999.98,
      "d": 769.6751562499994,
      "v": 36
    },
    {
      "midi": 65,
      "hit": false,
      "t": 19999.98,
      "d": 902.7768749999996,
      "v": 36
    },
    {
      "midi": 48,
      "hit": false,
      "t": 20555.534999999993,
      "d": 69.44437499999913,
      "v": 120
    },
    {
      "midi": 57,
      "hit": false,
      "t": 20833.312499999993,
      "d": 162.03687499999796,
      "v": 120
    },
    {
      "midi": 60,
      "hit": false,
      "t": 21111.08999999999,
      "d": 190.97203124999942,
      "v": 120
    },
    {
      "midi": 60,
      "hit": false,
      "t": 21388.86749999999,
      "d": 196.75906250000116,
      "v": 120
    },
    {
      "midi": 65,
      "hit": false,
      "t": 21388.86749999999,
      "d": 694.4437500000022,
      "v": 120
    },
    {
      "midi": 65,
      "hit": false,
      "t": 21388.8675,
      "d": 694.4437499999985,
      "v": 36
    },
    {
      "midi": 58,
      "hit": false,
      "t": 22222.19999999999,
      "d": 422.45328125000015,
      "v": 120
    },
    {
      "midi": 65,
      "hit": false,
      "t": 22222.19999999999,
      "d": 474.5365625000013,
      "v": 120
    },
    {
      "midi": 48,
      "hit": false,
      "t": 22222.19999999999,
      "d": 543.9809375000004,
      "v": 120
    },
    {
      "midi": 62,
      "hit": false,
      "t": 22222.19999999999,
      "d": 561.342031250002,
      "v": 120
    },
    {
      "midi": 58,
      "hit": false,
      "t": 22222.199999999997,
      "d": 422.45328125000015,
      "v": 36
    },
    {
      "midi": 65,
      "hit": false,
      "t": 22222.199999999997,
      "d": 474.5365625000013,
      "v": 36
    },
    {
      "midi": 62,
      "hit": false,
      "t": 22222.199999999997,
      "d": 561.342031250002,
      "v": 36
    },
    {
      "midi": 58,
      "hit": false,
      "t": 22777.75499999999,
      "d": 167.82390625000335,
      "v": 120
    },
    {
      "midi": 58,
      "hit": false,
      "t": 22777.754999999997,
      "d": 167.82390625000335,
      "v": 36
    },
    {
      "midi": 62,
      "hit": false,
      "t": 23055.532499999994,
      "d": 196.75906250000116,
      "v": 120
    },
    {
      "midi": 62,
      "hit": false,
      "t": 23055.5325,
      "d": 196.75906250000116,
      "v": 36
    },
    {
      "midi": 65,
      "hit": false,
      "t": 23333.309999999994,
      "d": 358.7959374999991,
      "v": 120
    },
    {
      "midi": 65,
      "hit": false,
      "t": 23333.31,
      "d": 358.7959374999991,
      "v": 36
    },
    {
      "midi": 62,
      "hit": false,
      "t": 23611.087499999994,
      "d": 231.48125000000073,
      "v": 120
    },
    {
      "midi": 62,
      "hit": false,
      "t": 23888.864999999994,
      "d": 138.88874999999825,
      "v": 120
    },
    {
      "midi": 58,
      "hit": false,
      "t": 23888.864999999994,
      "d": 173.61093749999782,
      "v": 120
    },
    {
      "midi": 58,
      "hit": false,
      "t": 24444.41999999999,
      "d": 596.0642187500016,
      "v": 120
    },
    {
      "midi": 67,
      "hit": false,
      "t": 24444.41999999999,
      "d": 630.7864062500012,
      "v": 120
    },
    {
      "midi": 55,
      "hit": false,
      "t": 24444.41999999999,
      "d": 636.5734375000029,
      "v": 120
    },
    {
      "midi": 62,
      "hit": false,
      "t": 24444.41999999999,
      "d": 653.9345312500045,
      "v": 120
    },
    {
      "midi": 51,
      "hit": false,
      "t": 24444.41999999999,
      "d": 671.2956250000061,
      "v": 120
    },
    {
      "midi": 58,
      "hit": false,
      "t": 24444.420000000002,
      "d": 596.0642187500016,
      "v": 36
    },
    {
      "midi": 67,
      "hit": false,
      "t": 24444.420000000002,
      "d": 630.7864062500012,
      "v": 36
    },
    {
      "midi": 62,
      "hit": false,
      "t": 24444.420000000002,
      "d": 653.9345312500009,
      "v": 36
    },
    {
      "midi": 58,
      "hit": false,
      "t": 25277.7525,
      "d": 590.2771874999999,
      "v": 120
    },
    {
      "midi": 67,
      "hit": false,
      "t": 25277.7525,
      "d": 740.739999999998,
      "v": 120
    },
    {
      "midi": 62,
      "hit": false,
      "t": 25277.7525,
      "d": 844.9065624999967,
      "v": 120
    },
    {
      "midi": 58,
      "hit": false,
      "t": 25277.752500000002,
      "d": 590.2771874999999,
      "v": 36
    },
    {
      "midi": 67,
      "hit": false,
      "t": 25277.752500000002,
      "d": 740.7400000000016,
      "v": 36
    },
    {
      "midi": 62,
      "hit": false,
      "t": 25277.752500000002,
      "d": 844.9065625000003,
      "v": 36
    },
    {
      "midi": 51,
      "hit": false,
      "t": 25833.3075,
      "d": 150.4628124999981,
      "v": 120
    },
    {
      "midi": 58,
      "hit": false,
      "t": 26111.084999999995,
      "d": 167.8239062499997,
      "v": 120
    },
    {
      "midi": 58,
      "hit": false,
      "t": 26111.085000000003,
      "d": 167.8239062499997,
      "v": 36
    },
    {
      "midi": 58,
      "hit": false,
      "t": 26666.639999999996,
      "d": 474.5365625000013,
      "v": 120
    },
    {
      "midi": 65,
      "hit": false,
      "t": 26666.639999999996,
      "d": 515.0457812500026,
      "v": 120
    },
    {
      "midi": 48,
      "hit": false,
      "t": 26666.639999999996,
      "d": 677.0826562500042,
      "v": 120
    },
    {
      "midi": 62,
      "hit": false,
      "t": 26666.639999999996,
      "d": 700.2307812500039,
      "v": 120
    },
    {
      "midi": 65,
      "hit": false,
      "t": 26666.640000000003,
      "d": 515.0457812500026,
      "v": 36
    },
    {
      "midi": 62,
      "hit": false,
      "t": 26666.640000000003,
      "d": 700.2307812500039,
      "v": 36
    },
    {
      "midi": 58,
      "hit": false,
      "t": 27499.9725,
      "d": 243.05531250000058,
      "v": 120
    },
    {
      "midi": 62,
      "hit": false,
      "t": 27777.75,
      "d": 208.33312500000102,
      "v": 120
    },
    {
      "midi": 65,
      "hit": false,
      "t": 28055.5275,
      "d": 127.3146874999984,
      "v": 120
    },
    {
      "midi": 60,
      "hit": false,
      "t": 28888.859999999997,
      "d": 613.4253124999996,
      "v": 120
    },
    {
      "midi": 64,
      "hit": false,
      "t": 28888.859999999997,
      "d": 688.6567187500004,
      "v": 120
    },
    {
      "midi": 45,
      "hit": false,
      "t": 28888.859999999997,
      "d": 711.8048437500001,
      "v": 120
    },
    {
      "midi": 67,
      "hit": false,
      "t": 28888.859999999997,
      "d": 729.1659375000017,
      "v": 120
    },
    {
      "midi": 64,
      "hit": false,
      "t": 28888.860000000004,
      "d": 688.6567187499968,
      "v": 36
    },
    {
      "midi": 67,
      "hit": false,
      "t": 28888.860000000004,
      "d": 729.1659374999981,
      "v": 36
    },
    {
      "midi": 52,
      "hit": false,
      "t": 29444.414999999997,
      "d": 104.16656249999869,
      "v": 120
    },
    {
      "midi": 60,
      "hit": false,
      "t": 29722.192499999997,
      "d": 185.1850000000013,
      "v": 120
    },
    {
      "midi": 64,
      "hit": false,
      "t": 29999.969999999998,
      "d": 179.39796874999956,
      "v": 120
    },
    {
      "midi": 64,
      "hit": false,
      "t": 29999.97,
      "d": 179.39796874999956,
      "v": 36
    },
    {
      "midi": 67,
      "hit": false,
      "t": 30277.747499999998,
      "d": 127.3146874999984,
      "v": 120
    },
    {
      "midi": 67,
      "hit": false,
      "t": 30277.7475,
      "d": 127.3146874999984,
      "v": 36
    },
    {
      "midi": 58,
      "hit": false,
      "t": 31111.079999999994,
      "d": 393.5181249999987,
      "v": 120
    },
    {
      "midi": 65,
      "hit": false,
      "t": 31111.079999999994,
      "d": 422.45328125000015,
      "v": 120
    },
    {
      "midi": 62,
      "hit": false,
      "t": 31111.079999999994,
      "d": 439.81437500000175,
      "v": 120
    },
    {
      "midi": 46,
      "hit": false,
      "t": 31111.079999999994,
      "d": 555.5550000000003,
      "v": 120
    },
    {
      "midi": 58,
      "hit": false,
      "t": 31111.079999999998,
      "d": 393.5181249999987,
      "v": 36
    },
    {
      "midi": 65,
      "hit": false,
      "t": 31111.079999999998,
      "d": 422.45328125000015,
      "v": 36
    },
    {
      "midi": 62,
      "hit": false,
      "t": 31111.079999999998,
      "d": 439.81437500000175,
      "v": 36
    },
    {
      "midi": 58,
      "hit": false,
      "t": 31944.412499999995,
      "d": 312.4996874999997,
      "v": 120
    },
    {
      "midi": 62,
      "hit": false,
      "t": 31944.412499999995,
      "d": 335.6478124999994,
      "v": 120
    },
    {
      "midi": 65,
      "hit": false,
      "t": 31944.412499999995,
      "d": 347.2218749999993,
      "v": 120
    },
    {
      "midi": 58,
      "hit": false,
      "t": 31944.4125,
      "d": 312.4996874999997,
      "v": 36
    },
    {
      "midi": 62,
      "hit": false,
      "t": 31944.4125,
      "d": 335.6478124999994,
      "v": 36
    },
    {
      "midi": 65,
      "hit": false,
      "t": 31944.4125,
      "d": 347.2218749999993,
      "v": 36
    },
    {
      "midi": 46,
      "hit": false,
      "t": 32222.189999999995,
      "d": 133.10171875000015,
      "v": 120
    },
    {
      "midi": 58,
      "hit": false,
      "t": 32499.967499999995,
      "d": 156.24984374999985,
      "v": 120
    },
    {
      "midi": 62,
      "hit": false,
      "t": 32777.744999999995,
      "d": 121.52765625000029,
      "v": 120
    },
    {
      "midi": 65,
      "hit": false,
      "t": 32777.744999999995,
      "d": 162.03687499999796,
      "v": 120
    },
    {
      "midi": 60,
      "hit": false,
      "t": 33333.299999999996,
      "d": 567.1290625000038,
      "v": 120
    },
    {
      "midi": 64,
      "hit": false,
      "t": 33333.299999999996,
      "d": 688.6567187500041,
      "v": 120
    },
    {
      "midi": 67,
      "hit": false,
      "t": 33333.299999999996,
      "d": 763.888125000005,
      "v": 120
    },
    {
      "midi": 45,
      "hit": false,
      "t": 33333.299999999996,
      "d": 1429.396718750002,
      "v": 120
    },
    {
      "midi": 60,
      "hit": false,
      "t": 33333.299999999996,
      "d": 567.1290624999965,
      "v": 36
    },
    {
      "midi": 64,
      "hit": false,
      "t": 33333.299999999996,
      "d": 688.6567187499968,
      "v": 36
    },
    {
      "midi": 67,
      "hit": false,
      "t": 33333.299999999996,
      "d": 763.8881249999977,
      "v": 36
    },
    {
      "midi": 52,
      "hit": false,
      "t": 33888.854999999996,
      "d": 283.56453125000553,
      "v": 120
    },
    {
      "midi": 60,
      "hit": false,
      "t": 34166.63249999999,
      "d": 248.84234375000233,
      "v": 36
    },
    {
      "midi": 60,
      "hit": false,
      "t": 34166.6325,
      "d": 248.84234375000233,
      "v": 120
    },
    {
      "midi": 64,
      "hit": false,
      "t": 34444.409999999996,
      "d": 162.03687499999796,
      "v": 36
    },
    {
      "midi": 64,
      "hit": false,
      "t": 34444.41,
      "d": 162.03687499999796,
      "v": 120
    },
    {
      "midi": 67,
      "hit": false,
      "t": 34722.18749999999,
      "d": 196.75906250000116,
      "v": 36
    },
    {
      "midi": 67,
      "hit": false,
      "t": 34722.1875,
      "d": 196.75906250000116,
      "v": 120
    },
    {
      "midi": 64,
      "hit": false,
      "t": 34999.965,
      "d": 104.16656250000233,
      "v": 36
    },
    {
      "midi": 64,
      "hit": false,
      "t": 34999.965000000004,
      "d": 104.16656250000233,
      "v": 120
    },
    {
      "midi": 58,
      "hit": false,
      "t": 35555.52,
      "d": 636.5734374999956,
      "v": 36
    },
    {
      "midi": 65,
      "hit": false,
      "t": 35555.52,
      "d": 648.1474999999991,
      "v": 36
    },
    {
      "midi": 62,
      "hit": false,
      "t": 35555.52,
      "d": 682.8696875000023,
      "v": 36
    },
    {
      "midi": 58,
      "hit": false,
      "t": 35555.520000000004,
      "d": 636.5734374999956,
      "v": 120
    },
    {
      "midi": 46,
      "hit": false,
      "t": 35555.520000000004,
      "d": 648.1474999999991,
      "v": 120
    },
    {
      "midi": 65,
      "hit": false,
      "t": 35555.520000000004,
      "d": 648.1474999999991,
      "v": 120
    },
    {
      "midi": 62,
      "hit": false,
      "t": 35555.520000000004,
      "d": 682.8696875000023,
      "v": 120
    },
    {
      "midi": 58,
      "hit": false,
      "t": 36388.8525,
      "d": 613.4253125000032,
      "v": 36
    },
    {
      "midi": 62,
      "hit": false,
      "t": 36388.8525,
      "d": 653.9345312500009,
      "v": 36
    },
    {
      "midi": 65,
      "hit": false,
      "t": 36388.8525,
      "d": 659.7215625000026,
      "v": 36
    },
    {
      "midi": 58,
      "hit": false,
      "t": 36388.85250000001,
      "d": 613.4253125000032,
      "v": 120
    },
    {
      "midi": 62,
      "hit": false,
      "t": 36388.85250000001,
      "d": 653.9345312500009,
      "v": 120
    },
    {
      "midi": 65,
      "hit": false,
      "t": 36388.85250000001,
      "d": 659.7215625000026,
      "v": 120
    },
    {
      "midi": 46,
      "hit": false,
      "t": 36388.85250000001,
      "d": 717.5918750000055,
      "v": 120
    },
    {
      "midi": 58,
      "hit": false,
      "t": 37222.185000000005,
      "d": 109.9535937499968,
      "v": 36
    },
    {
      "midi": 62,
      "hit": false,
      "t": 37222.185000000005,
      "d": 121.52765625000029,
      "v": 36
    },
    {
      "midi": 65,
      "hit": false,
      "t": 37222.185000000005,
      "d": 167.8239062499997,
      "v": 36
    },
    {
      "midi": 58,
      "hit": false,
      "t": 37222.18500000001,
      "d": 109.9535937499968,
      "v": 120
    },
    {
      "midi": 62,
      "hit": false,
      "t": 37222.18500000001,
      "d": 121.52765625000029,
      "v": 120
    },
    {
      "midi": 65,
      "hit": false,
      "t": 37222.18500000001,
      "d": 167.8239062499997,
      "v": 120
    },
    {
      "midi": 60,
      "hit": false,
      "t": 37777.740000000005,
      "d": 706.017812500002,
      "v": 36
    },
    {
      "midi": 64,
      "hit": false,
      "t": 37777.740000000005,
      "d": 891.2028124999997,
      "v": 36
    },
    {
      "midi": 67,
      "hit": false,
      "t": 37777.740000000005,
      "d": 896.9898437500015,
      "v": 36
    },
    {
      "midi": 60,
      "hit": false,
      "t": 37777.74000000001,
      "d": 706.017812500002,
      "v": 120
    },
    {
      "midi": 64,
      "hit": false,
      "t": 37777.74000000001,
      "d": 891.202812500007,
      "v": 120
    },
    {
      "midi": 67,
      "hit": false,
      "t": 37777.74000000001,
      "d": 896.9898437500087,
      "v": 120
    },
    {
      "midi": 45,
      "hit": false,
      "t": 37777.74000000001,
      "d": 1192.1284375000105,
      "v": 120
    },
    {
      "midi": 52,
      "hit": false,
      "t": 38611.07250000002,
      "d": 150.46281250000175,
      "v": 120
    },
    {
      "midi": 60,
      "hit": false,
      "t": 38888.85000000002,
      "d": 167.8239062499997,
      "v": 120
    },
    {
      "midi": 64,
      "hit": false,
      "t": 39166.62750000002,
      "d": 121.52765625000029,
      "v": 120
    },
    {
      "midi": 67,
      "hit": false,
      "t": 39166.62750000002,
      "d": 121.52765625000029,
      "v": 120
    },
    {
      "midi": 58,
      "hit": false,
      "t": 39999.96000000001,
      "d": 190.97203124999942,
      "v": 36
    },
    {
      "midi": 62,
      "hit": false,
      "t": 39999.96000000001,
      "d": 208.33312499999738,
      "v": 36
    },
    {
      "midi": 65,
      "hit": false,
      "t": 39999.96000000001,
      "d": 243.05531250000058,
      "v": 36
    },
    {
      "midi": 58,
      "hit": false,
      "t": 39999.96000000002,
      "d": 190.97203124999942,
      "v": 120
    },
    {
      "midi": 46,
      "hit": false,
      "t": 39999.96000000002,
      "d": 208.33312499999738,
      "v": 120
    },
    {
      "midi": 62,
      "hit": false,
      "t": 39999.96000000002,
      "d": 208.33312499999738,
      "v": 120
    },
    {
      "midi": 65,
      "hit": false,
      "t": 39999.96000000002,
      "d": 243.05531250000058,
      "v": 120
    },
    {
      "midi": 60,
      "hit": false,
      "t": 40555.515000000014,
      "d": 300.9256250000035,
      "v": 36
    },
    {
      "midi": 57,
      "hit": false,
      "t": 40555.515000000014,
      "d": 318.28671875000146,
      "v": 36
    },
    {
      "midi": 64,
      "hit": false,
      "t": 40555.515000000014,
      "d": 324.0737500000032,
      "v": 36
    },
    {
      "midi": 60,
      "hit": false,
      "t": 40555.51500000003,
      "d": 300.9256250000035,
      "v": 120
    },
    {
      "midi": 57,
      "hit": false,
      "t": 40555.51500000003,
      "d": 318.28671875000146,
      "v": 120
    },
    {
      "midi": 64,
      "hit": false,
      "t": 40555.51500000003,
      "d": 324.0737500000032,
      "v": 120
    },
    {
      "midi": 45,
      "hit": false,
      "t": 40555.51500000003,
      "d": 341.43484375000116,
      "v": 120
    },
    {
      "midi": 58,
      "hit": false,
      "t": 41111.070000000014,
      "d": 688.6567187499968,
      "v": 36
    },
    {
      "midi": 62,
      "hit": false,
      "t": 41111.070000000014,
      "d": 717.5918749999983,
      "v": 36
    },
    {
      "midi": 58,
      "hit": false,
      "t": 41111.07000000003,
      "d": 688.6567187499968,
      "v": 120
    },
    {
      "midi": 55,
      "hit": false,
      "t": 41111.07000000003,
      "d": 694.4437499999985,
      "v": 120
    },
    {
      "midi": 43,
      "hit": false,
      "t": 41111.07000000003,
      "d": 700.2307812500003,
      "v": 120
    },
    {
      "midi": 62,
      "hit": false,
      "t": 41111.07000000003,
      "d": 717.5918749999983,
      "v": 120
    },
    {
      "midi": 62,
      "hit": false,
      "t": 42222.180000000015,
      "d": 688.6567187499968,
      "v": 36
    },
    {
      "midi": 58,
      "hit": false,
      "t": 42222.180000000015,
      "d": 706.0178124999948,
      "v": 36
    },
    {
      "midi": 34,
      "hit": false,
      "t": 42222.18000000003,
      "d": 503.4717187499991,
      "v": 120
    },
    {
      "midi": 53,
      "hit": false,
      "t": 42222.18000000003,
      "d": 653.9345312500009,
      "v": 120
    },
    {
      "midi": 62,
      "hit": false,
      "t": 42222.18000000003,
      "d": 688.6567187500041,
      "v": 120
    },
    {
      "midi": 58,
      "hit": false,
      "t": 42222.18000000003,
      "d": 706.017812500002,
      "v": 120
    },
    {
      "midi": 46,
      "hit": false,
      "t": 43611.067500000034,
      "d": 243.05531250000058,
      "v": 120
    },
    {
      "midi": 53,
      "hit": false,
      "t": 43888.84500000004,
      "d": 277.7774999999965,
      "v": 120
    },
    {
      "midi": 58,
      "hit": false,
      "t": 44166.62250000001,
      "d": 214.12015624999913,
      "v": 36
    },
    {
      "midi": 58,
      "hit": false,
      "t": 44166.622500000034,
      "d": 214.12015624999913,
      "v": 120
    },
    {
      "midi": 53,
      "hit": false,
      "t": 44444.40000000003,
      "d": 300.9256250000035,
      "v": 120
    },
    {
      "midi": 46,
      "hit": false,
      "t": 44999.95500000003,
      "d": 156.2498437500035,
      "v": 120
    },
    {
      "midi": 53,
      "hit": false,
      "t": 45277.732500000035,
      "d": 196.75906250000116,
      "v": 120
    },
    {
      "midi": 58,
      "hit": false,
      "t": 45555.51000000001,
      "d": 393.5181250000023,
      "v": 36
    },
    {
      "midi": 58,
      "hit": false,
      "t": 45555.51000000004,
      "d": 393.5181250000023,
      "v": 120
    },
    {
      "midi": 62,
      "hit": false,
      "t": 46111.06500000001,
      "d": 138.88874999999825,
      "v": 36
    },
    {
      "midi": 62,
      "hit": false,
      "t": 46111.06500000004,
      "d": 138.88874999999825,
      "v": 120
    },
    {
      "midi": 64,
      "hit": false,
      "t": 46666.62000000001,
      "d": 607.6382812500015,
      "v": 36
    },
    {
      "midi": 36,
      "hit": false,
      "t": 46666.62000000004,
      "d": 347.22187499999563,
      "v": 120
    },
    {
      "midi": 64,
      "hit": false,
      "t": 46666.62000000004,
      "d": 607.6382812499942,
      "v": 120
    },
    {
      "midi": 60,
      "hit": false,
      "t": 46666.62000000004,
      "d": 630.7864062499939,
      "v": 120
    },
    {
      "midi": 48,
      "hit": false,
      "t": 47499.952500000036,
      "d": 1168.9803124999962,
      "v": 120
    },
    {
      "midi": 55,
      "hit": false,
      "t": 47777.73000000003,
      "d": 312.4996874999997,
      "v": 120
    },
    {
      "midi": 60,
      "hit": false,
      "t": 48055.50750000003,
      "d": 225.69421875000262,
      "v": 120
    },
    {
      "midi": 64,
      "hit": false,
      "t": 48333.28500000001,
      "d": 231.4812499999971,
      "v": 36
    },
    {
      "midi": 64,
      "hit": false,
      "t": 48333.28500000003,
      "d": 231.4812499999971,
      "v": 120
    },
    {
      "midi": 48,
      "hit": false,
      "t": 48888.84000000003,
      "d": 173.61093750000146,
      "v": 120
    },
    {
      "midi": 58,
      "hit": false,
      "t": 51111.06000000001,
      "d": 960.6471874999988,
      "v": 28
    },
    {
      "midi": 62,
      "hit": false,
      "t": 51111.06000000001,
      "d": 995.369375000002,
      "v": 20
    },
    {
      "midi": 43,
      "hit": false,
      "t": 51111.060000000034,
      "d": 954.8601562499971,
      "v": 72
    },
    {
      "midi": 58,
      "hit": false,
      "t": 51111.060000000034,
      "d": 960.6471874999988,
      "v": 94
    },
    {
      "midi": 55,
      "hit": false,
      "t": 51111.060000000034,
      "d": 966.4342187500006,
      "v": 102
    },
    {
      "midi": 62,
      "hit": false,
      "t": 51111.060000000034,
      "d": 995.369375000002,
      "v": 68
    },
    {
      "midi": 64,
      "hit": false,
      "t": 53333.28000000001,
      "d": 1446.7578124999927,
      "v": 27
    },
    {
      "midi": 60,
      "hit": false,
      "t": 53333.28000000001,
      "d": 1469.9059374999924,
      "v": 36
    },
    {
      "midi": 36,
      "hit": false,
      "t": 53333.280000000035,
      "d": 1307.8690624999945,
      "v": 89
    },
    {
      "midi": 55,
      "hit": false,
      "t": 53333.280000000035,
      "d": 1417.8226562499913,
      "v": 94
    },
    {
      "midi": 64,
      "hit": false,
      "t": 53333.280000000035,
      "d": 1446.7578124999927,
      "v": 89
    },
    {
      "midi": 60,
      "hit": false,
      "t": 53333.280000000035,
      "d": 1469.9059374999924,
      "v": 120
    },
    {
      "midi": 64,
      "hit": false,
      "t": 55555.50000000001,
      "d": 1024.3045312499962,
      "v": 25
    },
    {
      "midi": 57,
      "hit": false,
      "t": 55555.50000000001,
      "d": 1041.6656249999942,
      "v": 25
    },
    {
      "midi": 60,
      "hit": false,
      "t": 55555.50000000001,
      "d": 1041.6656249999942,
      "v": 27
    },
    {
      "midi": 64,
      "hit": false,
      "t": 55555.50000000003,
      "d": 1024.3045312499962,
      "v": 83
    },
    {
      "midi": 57,
      "hit": false,
      "t": 55555.50000000003,
      "d": 1041.6656249999942,
      "v": 83
    },
    {
      "midi": 60,
      "hit": false,
      "t": 55555.50000000003,
      "d": 1041.6656249999942,
      "v": 89
    },
    {
      "midi": 45,
      "hit": false,
      "t": 55555.50000000003,
      "d": 1053.2396874999977,
      "v": 77
    },
    {
      "midi": 59,
      "hit": false,
      "t": 57777.72,
      "d": 1192.1284375000032,
      "v": 36
    },
    {
      "midi": 64,
      "hit": false,
      "t": 57777.72,
      "d": 1226.8506250000064,
      "v": 23
    },
    {
      "midi": 56,
      "hit": false,
      "t": 57777.72000000003,
      "d": 1151.6192187500055,
      "v": 89
    },
    {
      "midi": 40,
      "hit": false,
      "t": 57777.72000000003,
      "d": 1157.4062500000073,
      "v": 83
    },
    {
      "midi": 59,
      "hit": false,
      "t": 57777.72000000003,
      "d": 1192.1284375000105,
      "v": 120
    },
    {
      "midi": 64,
      "hit": false,
      "t": 57777.72000000003,
      "d": 1226.8506250000137,
      "v": 77
    },
    {
      "midi": 64,
      "hit": false,
      "t": 59999.94000000001,
      "d": 1174.7673437500052,
      "v": 22
    },
    {
      "midi": 60,
      "hit": false,
      "t": 59999.94000000001,
      "d": 1203.7025000000067,
      "v": 28
    },
    {
      "midi": 55,
      "hit": false,
      "t": 59999.940000000046,
      "d": 1157.40625,
      "v": 102
    },
    {
      "midi": 36,
      "hit": false,
      "t": 59999.940000000046,
      "d": 1163.1932812500017,
      "v": 89
    },
    {
      "midi": 64,
      "hit": false,
      "t": 59999.940000000046,
      "d": 1174.7673437500052,
      "v": 72
    },
    {
      "midi": 60,
      "hit": false,
      "t": 59999.940000000046,
      "d": 1203.7025000000067,
      "v": 94
    },
    {
      "midi": 57,
      "hit": false,
      "t": 62222.16000000002,
      "d": 185.18499999999767,
      "v": 27
    },
    {
      "midi": 60,
      "hit": false,
      "t": 62222.16000000002,
      "d": 196.75906250000116,
      "v": 32
    },
    {
      "midi": 65,
      "hit": false,
      "t": 62222.16000000002,
      "d": 219.90718750000087,
      "v": 25
    },
    {
      "midi": 41,
      "hit": false,
      "t": 62222.160000000054,
      "d": 162.03687499999796,
      "v": 106
    },
    {
      "midi": 57,
      "hit": false,
      "t": 62222.160000000054,
      "d": 185.18499999999767,
      "v": 89
    },
    {
      "midi": 60,
      "hit": false,
      "t": 62222.160000000054,
      "d": 196.75906250000116,
      "v": 106
    },
    {
      "midi": 65,
      "hit": false,
      "t": 62222.160000000054,
      "d": 219.90718750000087,
      "v": 83
    },
    {
      "midi": 57,
      "hit": false,
      "t": 62592.53000000002,
      "d": 162.03687499999796,
      "v": 28
    },
    {
      "midi": 60,
      "hit": false,
      "t": 62592.53000000002,
      "d": 185.18499999999767,
      "v": 32
    },
    {
      "midi": 65,
      "hit": false,
      "t": 62592.53000000002,
      "d": 219.90718750000087,
      "v": 28
    },
    {
      "midi": 41,
      "hit": false,
      "t": 62592.53000000006,
      "d": 150.46281250000175,
      "v": 102
    },
    {
      "midi": 57,
      "hit": false,
      "t": 62592.53000000006,
      "d": 162.03687500000524,
      "v": 94
    },
    {
      "midi": 60,
      "hit": false,
      "t": 62592.53000000006,
      "d": 185.18500000000495,
      "v": 106
    },
    {
      "midi": 65,
      "hit": false,
      "t": 62592.53000000006,
      "d": 219.90718750000815,
      "v": 94
    },
    {
      "midi": 57,
      "hit": false,
      "t": 62962.90000000002,
      "d": 162.03687499999796,
      "v": 31
    },
    {
      "midi": 60,
      "hit": false,
      "t": 62962.90000000002,
      "d": 162.03687499999796,
      "v": 36
    },
    {
      "midi": 65,
      "hit": false,
      "t": 62962.90000000002,
      "d": 196.75906250000116,
      "v": 31
    },
    {
      "midi": 57,
      "hit": false,
      "t": 62962.90000000007,
      "d": 162.03687499999796,
      "v": 102
    },
    {
      "midi": 60,
      "hit": false,
      "t": 62962.90000000007,
      "d": 162.03687499999796,
      "v": 120
    },
    {
      "midi": 65,
      "hit": false,
      "t": 62962.90000000007,
      "d": 196.75906250000116,
      "v": 102
    },
    {
      "midi": 41,
      "hit": false,
      "t": 62962.90000000007,
      "d": 202.5460937500029,
      "v": 106
    },
    {
      "midi": 57,
      "hit": false,
      "t": 63333.270000000026,
      "d": 954.8601562499971,
      "v": 31
    },
    {
      "midi": 62,
      "hit": false,
      "t": 63333.270000000026,
      "d": 978.0082812499968,
      "v": 32
    },
    {
      "midi": 57,
      "hit": false,
      "t": 63333.27000000007,
      "d": 954.8601562499971,
      "v": 102
    },
    {
      "midi": 53,
      "hit": false,
      "t": 63333.27000000007,
      "d": 960.6471874999988,
      "v": 102
    },
    {
      "midi": 38,
      "hit": false,
      "t": 63333.27000000007,
      "d": 972.2212500000023,
      "v": 106
    },
    {
      "midi": 62,
      "hit": false,
      "t": 63333.27000000007,
      "d": 978.0082812500041,
      "v": 106
    },
    {
      "midi": 58,
      "hit": false,
      "t": 64444.38000000002,
      "d": 1122.684062500004,
      "v": 25
    },
    {
      "midi": 62,
      "hit": false,
      "t": 64444.38000000002,
      "d": 1180.554375000007,
      "v": 27
    },
    {
      "midi": 65,
      "hit": false,
      "t": 64444.38000000002,
      "d": 1192.1284375000105,
      "v": 25
    },
    {
      "midi": 46,
      "hit": false,
      "t": 64444.38000000007,
      "d": 1087.9618750000009,
      "v": 83
    },
    {
      "midi": 58,
      "hit": false,
      "t": 64444.38000000007,
      "d": 1122.6840624999968,
      "v": 83
    },
    {
      "midi": 62,
      "hit": false,
      "t": 64444.38000000007,
      "d": 1180.5543749999997,
      "v": 89
    },
    {
      "midi": 65,
      "hit": false,
      "t": 64444.38000000007,
      "d": 1192.1284375000032,
      "v": 83
    },
    {
      "midi": 58,
      "hit": false,
      "t": 66666.60000000003,
      "d": 1724.5353124999965,
      "v": 31
    },
    {
      "midi": 62,
      "hit": false,
      "t": 66666.60000000003,
      "d": 1759.2574999999924,
      "v": 25
    },
    {
      "midi": 55,
      "hit": false,
      "t": 66666.60000000008,
      "d": 1678.239062499997,
      "v": 89
    },
    {
      "midi": 43,
      "hit": false,
      "t": 66666.60000000008,
      "d": 1712.961249999993,
      "v": 89
    },
    {
      "midi": 58,
      "hit": false,
      "t": 66666.60000000008,
      "d": 1724.5353124999965,
      "v": 102
    },
    {
      "midi": 62,
      "hit": false,
      "t": 66666.60000000008,
      "d": 1759.2574999999924,
      "v": 83
    },
    {
      "midi": 67,
      "hit": false,
      "t": 68888.82000000004,
      "d": 972.2212500000023,
      "v": 32
    },
    {
      "midi": 58,
      "hit": false,
      "t": 68888.82000000004,
      "d": 983.7953125000058,
      "v": 32
    },
    {
      "midi": 62,
      "hit": false,
      "t": 68888.82000000004,
      "d": 983.7953125000058,
      "v": 32
    },
    {
      "midi": 55,
      "hit": false,
      "t": 68888.82000000008,
      "d": 949.0731249999953,
      "v": 102
    },
    {
      "midi": 67,
      "hit": false,
      "t": 68888.82000000008,
      "d": 972.2212500000023,
      "v": 106
    },
    {
      "midi": 51,
      "hit": false,
      "t": 68888.82000000008,
      "d": 983.7953125000058,
      "v": 89
    },
    {
      "midi": 58,
      "hit": false,
      "t": 68888.82000000008,
      "d": 983.7953125000058,
      "v": 106
    },
    {
      "midi": 62,
      "hit": false,
      "t": 68888.82000000008,
      "d": 983.7953125000058,
      "v": 106
    },
    {
      "midi": 64,
      "hit": false,
      "t": 71111.04000000004,
      "d": 3078.7006249999977,
      "v": 31
    },
    {
      "midi": 36,
      "hit": false,
      "t": 71111.04000000008,
      "d": 3043.9784375000017,
      "v": 106
    },
    {
      "midi": 55,
      "hit": false,
      "t": 71111.04000000008,
      "d": 3043.9784375000017,
      "v": 120
    },
    {
      "midi": 60,
      "hit": false,
      "t": 71111.04000000008,
      "d": 3055.5525000000052,
      "v": 120
    },
    {
      "midi": 64,
      "hit": false,
      "t": 71111.04000000008,
      "d": 3078.700625000012,
      "v": 102
    },
    {
      "midi": 57,
      "hit": false,
      "t": 75555.48000000004,
      "d": 624.9993749999994,
      "v": 28
    },
    {
      "midi": 60,
      "hit": false,
      "t": 75555.48000000004,
      "d": 636.5734375000029,
      "v": 28
    },
    {
      "midi": 41,
      "hit": false,
      "t": 75555.4800000001,
      "d": 520.8328124999971,
      "v": 89
    },
    {
      "midi": 53,
      "hit": false,
      "t": 75555.4800000001,
      "d": 613.4253124999959,
      "v": 102
    },
    {
      "midi": 57,
      "hit": false,
      "t": 75555.4800000001,
      "d": 624.9993749999994,
      "v": 94
    },
    {
      "midi": 60,
      "hit": false,
      "t": 75555.4800000001,
      "d": 636.5734375000029,
      "v": 94
    },
    {
      "midi": 60,
      "hit": false,
      "t": 77777.70000000004,
      "d": 1140.0451562499948,
      "v": 31
    },
    {
      "midi": 64,
      "hit": false,
      "t": 77777.70000000004,
      "d": 1157.40625,
      "v": 25
    },
    {
      "midi": 48,
      "hit": false,
      "t": 77777.7000000001,
      "d": 1064.8137500000012,
      "v": 94
    },
    {
      "midi": 55,
      "hit": false,
      "t": 77777.7000000001,
      "d": 1099.535937499997,
      "v": 94
    },
    {
      "midi": 60,
      "hit": false,
      "t": 77777.7000000001,
      "d": 1140.0451562499948,
      "v": 102
    },
    {
      "midi": 64,
      "hit": false,
      "t": 77777.7000000001,
      "d": 1157.40625,
      "v": 83
    },
    {
      "midi": 63,
      "hit": false,
      "t": 79999.92000000004,
      "d": 972.2212500000023,
      "v": 28
    },
    {
      "midi": 60,
      "hit": false,
      "t": 79999.92000000004,
      "d": 983.7953125000058,
      "v": 27
    },
    {
      "midi": 67,
      "hit": false,
      "t": 79999.92000000004,
      "d": 989.5823437500076,
      "v": 27
    },
    {
      "midi": 55,
      "hit": false,
      "t": 79999.9200000001,
      "d": 896.9898437499942,
      "v": 94
    },
    {
      "midi": 48,
      "hit": false,
      "t": 79999.9200000001,
      "d": 914.3509374999994,
      "v": 102
    },
    {
      "midi": 63,
      "hit": false,
      "t": 79999.9200000001,
      "d": 972.2212500000023,
      "v": 94
    },
    {
      "midi": 60,
      "hit": false,
      "t": 79999.9200000001,
      "d": 983.7953125000058,
      "v": 89
    },
    {
      "midi": 67,
      "hit": false,
      "t": 79999.9200000001,
      "d": 989.5823437500076,
      "v": 89
    },
    {
      "midi": 57,
      "hit": false,
      "t": 82222.14000000006,
      "d": 1348.3782812499994,
      "v": 16
    },
    {
      "midi": 66,
      "hit": false,
      "t": 82222.14000000006,
      "d": 1365.7393750000047,
      "v": 32
    },
    {
      "midi": 69,
      "hit": false,
      "t": 82222.14000000006,
      "d": 1394.6745312499988,
      "v": 28
    },
    {
      "midi": 60,
      "hit": false,
      "t": 82222.14000000006,
      "d": 1400.4615625000006,
      "v": 31
    },
    {
      "midi": 57,
      "hit": false,
      "t": 82222.14000000012,
      "d": 1348.3782812499994,
      "v": 52
    },
    {
      "midi": 66,
      "hit": false,
      "t": 82222.14000000012,
      "d": 1365.7393750000047,
      "v": 106
    },
    {
      "midi": 50,
      "hit": false,
      "t": 82222.14000000012,
      "d": 1388.8875000000116,
      "v": 94
    },
    {
      "midi": 69,
      "hit": false,
      "t": 82222.14000000012,
      "d": 1394.6745312500134,
      "v": 94
    },
    {
      "midi": 60,
      "hit": false,
      "t": 82222.14000000012,
      "d": 1400.4615625000151,
      "v": 102
    },
    {
      "midi": 58,
      "hit": false,
      "t": 84444.36000000006,
      "d": 1614.5817187499924,
      "v": 36
    },
    {
      "midi": 62,
      "hit": false,
      "t": 84444.36000000006,
      "d": 1637.7298437499994,
      "v": 27
    },
    {
      "midi": 53,
      "hit": false,
      "t": 84444.36000000013,
      "d": 1608.7946874999907,
      "v": 94
    },
    {
      "midi": 58,
      "hit": false,
      "t": 84444.36000000013,
      "d": 1614.5817187499924,
      "v": 120
    },
    {
      "midi": 46,
      "hit": false,
      "t": 84444.36000000013,
      "d": 1631.9428124999977,
      "v": 83
    },
    {
      "midi": 62,
      "hit": false,
      "t": 84444.36000000013,
      "d": 1637.7298437499994,
      "v": 89
    },
    {
      "midi": 60,
      "hit": false,
      "t": 86666.58000000006,
      "d": 1927.0814062499994,
      "v": 32
    },
    {
      "midi": 64,
      "hit": false,
      "t": 86666.58000000006,
      "d": 1950.2295312500064,
      "v": 28
    },
    {
      "midi": 55,
      "hit": false,
      "t": 86666.58000000013,
      "d": 1863.4240624999948,
      "v": 106
    },
    {
      "midi": 36,
      "hit": false,
      "t": 86666.58000000013,
      "d": 1898.1462499999907,
      "v": 106
    },
    {
      "midi": 60,
      "hit": false,
      "t": 86666.58000000013,
      "d": 1927.0814062499849,
      "v": 106
    },
    {
      "midi": 64,
      "hit": false,
      "t": 86666.58000000013,
      "d": 1950.2295312499919,
      "v": 94
    },
    {
      "midi": 57,
      "hit": false,
      "t": 88888.80000000006,
      "d": 468.7495312499959,
      "v": 28
    },
    {
      "midi": 69,
      "hit": false,
      "t": 88888.80000000006,
      "d": 543.9809374999895,
      "v": 28
    },
    {
      "midi": 65,
      "hit": false,
      "t": 88888.80000000006,
      "d": 549.7679687499913,
      "v": 31
    },
    {
      "midi": 62,
      "hit": false,
      "t": 88888.80000000006,
      "d": 572.9160937499983,
      "v": 28
    },
    {
      "midi": 57,
      "hit": false,
      "t": 88888.80000000012,
      "d": 468.7495312499959,
      "v": 94
    },
    {
      "midi": 50,
      "hit": false,
      "t": 88888.80000000012,
      "d": 486.11062500000116,
      "v": 127
    },
    {
      "midi": 69,
      "hit": false,
      "t": 88888.80000000012,
      "d": 543.9809375000041,
      "v": 94
    },
    {
      "midi": 65,
      "hit": false,
      "t": 88888.80000000012,
      "d": 549.7679687500058,
      "v": 102
    },
    {
      "midi": 62,
      "hit": false,
      "t": 88888.80000000012,
      "d": 572.9160937500128,
      "v": 94
    },
    {
      "midi": 58,
      "hit": false,
      "t": 89999.91000000006,
      "d": 266.20343750000757,
      "v": 38
    },
    {
      "midi": 62,
      "hit": false,
      "t": 89999.91000000006,
      "d": 283.5645312500128,
      "v": 32
    },
    {
      "midi": 53,
      "hit": false,
      "t": 89999.91000000013,
      "d": 237.26828124999884,
      "v": 127
    },
    {
      "midi": 58,
      "hit": false,
      "t": 89999.91000000013,
      "d": 266.203437499993,
      "v": 127
    },
    {
      "midi": 46,
      "hit": false,
      "t": 89999.91000000013,
      "d": 271.99046874999476,
      "v": 127
    },
    {
      "midi": 62,
      "hit": false,
      "t": 89999.91000000013,
      "d": 283.56453124999825,
      "v": 106
    },
    {
      "midi": 64,
      "hit": false,
      "t": 90555.46500000007,
      "d": 266.20343750000757,
      "v": 32
    },
    {
      "midi": 60,
      "hit": false,
      "t": 90555.46500000007,
      "d": 271.9904687500093,
      "v": 38
    },
    {
      "midi": 57,
      "hit": false,
      "t": 90555.46500000007,
      "d": 277.77750000001106,
      "v": 36
    },
    {
      "midi": 64,
      "hit": false,
      "t": 90555.46500000013,
      "d": 266.20343750000757,
      "v": 106
    },
    {
      "midi": 60,
      "hit": false,
      "t": 90555.46500000013,
      "d": 271.9904687500093,
      "v": 127
    },
    {
      "midi": 57,
      "hit": false,
      "t": 90555.46500000013,
      "d": 277.77750000001106,
      "v": 120
    },
    {
      "midi": 45,
      "hit": false,
      "t": 90555.46500000013,
      "d": 300.92562500001804,
      "v": 120
    },
    {
      "midi": 58,
      "hit": false,
      "t": 91111.02000000008,
      "d": 2002.3128125000076,
      "v": 36
    },
    {
      "midi": 62,
      "hit": false,
      "t": 91111.02000000008,
      "d": 2025.4609375000146,
      "v": 28
    },
    {
      "midi": 55,
      "hit": false,
      "t": 91111.02000000015,
      "d": 1984.9517187500023,
      "v": 127
    },
    {
      "midi": 58,
      "hit": false,
      "t": 91111.02000000015,
      "d": 2002.3128125000076,
      "v": 120
    },
    {
      "midi": 43,
      "hit": false,
      "t": 91111.02000000015,
      "d": 2008.0998437500093,
      "v": 120
    },
    {
      "midi": 62,
      "hit": false,
      "t": 91111.02000000015,
      "d": 2025.4609375000146,
      "v": 94
    },
    {
      "midi": 58,
      "hit": false,
      "t": 93333.24000000009,
      "d": 1047.452656249996,
      "v": 32
    },
    {
      "midi": 62,
      "hit": false,
      "t": 93333.24000000009,
      "d": 1059.0267187499994,
      "v": 36
    },
    {
      "midi": 67,
      "hit": false,
      "t": 93333.24000000009,
      "d": 1070.600781250003,
      "v": 36
    },
    {
      "midi": 58,
      "hit": false,
      "t": 93333.24000000017,
      "d": 1047.452656249996,
      "v": 106
    },
    {
      "midi": 62,
      "hit": false,
      "t": 93333.24000000017,
      "d": 1059.0267187499994,
      "v": 120
    },
    {
      "midi": 67,
      "hit": false,
      "t": 93333.24000000017,
      "d": 1070.600781250003,
      "v": 120
    },
    {
      "midi": 55,
      "hit": false,
      "t": 93333.24000000017,
      "d": 1093.74890625001,
      "v": 106
    },
    {
      "midi": 51,
      "hit": false,
      "t": 93333.24000000017,
      "d": 1105.3229687500134,
      "v": 106
    },
    {
      "midi": 60,
      "hit": false,
      "t": 95555.4600000001,
      "d": 1192.1284375000105,
      "v": 32
    },
    {
      "midi": 64,
      "hit": false,
      "t": 95555.4600000001,
      "d": 1203.702500000014,
      "v": 32
    },
    {
      "midi": 55,
      "hit": false,
      "t": 95555.46000000018,
      "d": 1128.4710937500058,
      "v": 106
    },
    {
      "midi": 48,
      "hit": false,
      "t": 95555.46000000018,
      "d": 1174.7673437500052,
      "v": 120
    },
    {
      "midi": 60,
      "hit": false,
      "t": 95555.46000000018,
      "d": 1192.1284375000105,
      "v": 106
    },
    {
      "midi": 64,
      "hit": false,
      "t": 95555.46000000018,
      "d": 1203.702500000014,
      "v": 106
    },
    {
      "midi": 62,
      "hit": false,
      "t": 97777.68000000011,
      "d": 2268.5162500000006,
      "v": 31
    },
    {
      "midi": 66,
      "hit": false,
      "t": 97777.68000000011,
      "d": 2268.5162500000006,
      "v": 36
    },
    {
      "midi": 57,
      "hit": false,
      "t": 97777.68000000011,
      "d": 2274.3032812500023,
      "v": 27
    },
    {
      "midi": 62,
      "hit": false,
      "t": 97777.6800000002,
      "d": 2268.5162500000006,
      "v": 102
    },
    {
      "midi": 66,
      "hit": false,
      "t": 97777.6800000002,
      "d": 2268.5162500000006,
      "v": 120
    },
    {
      "midi": 57,
      "hit": false,
      "t": 97777.6800000002,
      "d": 2274.3032812500023,
      "v": 89
    },
    {
      "midi": 50,
      "hit": false,
      "t": 97777.6800000002,
      "d": 2285.877343750006,
      "v": 106
    },
    {
      "midi": 57,
      "hit": false,
      "t": 100833.23250000011,
      "d": 248.84234375000233,
      "v": 38
    },
    {
      "midi": 57,
      "hit": false,
      "t": 100833.2325000002,
      "d": 248.84234375000233,
      "v": 127
    },
    {
      "midi": 62,
      "hit": false,
      "t": 101111.01000000011,
      "d": 237.26828124999884,
      "v": 36
    },
    {
      "midi": 62,
      "hit": false,
      "t": 101111.0100000002,
      "d": 237.26828124999884,
      "v": 120
    },
    {
      "midi": 60,
      "hit": false,
      "t": 101388.78750000011,
      "d": 185.18499999999767,
      "v": 36
    },
    {
      "midi": 60,
      "hit": false,
      "t": 101388.7875000002,
      "d": 185.18499999999767,
      "v": 120
    },
    {
      "midi": 59,
      "hit": false,
      "t": 101666.5650000001,
      "d": 185.18499999999767,
      "v": 36
    },
    {
      "midi": 59,
      "hit": false,
      "t": 101666.56500000019,
      "d": 185.18499999999767,
      "v": 120
    },
    {
      "midi": 57,
      "hit": false,
      "t": 101944.3425000001,
      "d": 121.52765624999302,
      "v": 36
    },
    {
      "midi": 57,
      "hit": false,
      "t": 101944.34250000019,
      "d": 121.52765624999302,
      "v": 120
    },
    {
      "midi": 62,
      "hit": false,
      "t": 102222.1200000001,
      "d": 1006.9434374999983,
      "v": 36
    },
    {
      "midi": 59,
      "hit": false,
      "t": 102222.1200000001,
      "d": 1012.73046875,
      "v": 38
    },
    {
      "midi": 55,
      "hit": false,
      "t": 102222.12000000018,
      "d": 995.3693750000093,
      "v": 127
    },
    {
      "midi": 62,
      "hit": false,
      "t": 102222.12000000018,
      "d": 1006.9434375000128,
      "v": 120
    },
    {
      "midi": 59,
      "hit": false,
      "t": 102222.12000000018,
      "d": 1012.7304687500146,
      "v": 127
    },
    {
      "midi": 43,
      "hit": false,
      "t": 103055.45250000019,
      "d": 1325.2301562500215,
      "v": 127
    },
    {
      "midi": 59,
      "hit": false,
      "t": 103333.2300000001,
      "d": 439.81437500000175,
      "v": 36
    },
    {
      "midi": 62,
      "hit": false,
      "t": 103333.2300000001,
      "d": 451.38843750000524,
      "v": 31
    },
    {
      "midi": 55,
      "hit": false,
      "t": 103333.2300000002,
      "d": 428.24031249999825,
      "v": 127
    },
    {
      "midi": 59,
      "hit": false,
      "t": 103333.2300000002,
      "d": 439.81437500000175,
      "v": 120
    },
    {
      "midi": 62,
      "hit": false,
      "t": 103333.2300000002,
      "d": 451.38843750000524,
      "v": 102
    },
    {
      "midi": 59,
      "hit": false,
      "t": 103888.7850000001,
      "d": 405.0921875000058,
      "v": 38
    },
    {
      "midi": 62,
      "hit": false,
      "t": 103888.7850000001,
      "d": 434.02734375,
      "v": 32
    },
    {
      "midi": 55,
      "hit": false,
      "t": 103888.7850000002,
      "d": 393.5181250000023,
      "v": 127
    },
    {
      "midi": 59,
      "hit": false,
      "t": 103888.7850000002,
      "d": 405.0921875000058,
      "v": 127
    },
    {
      "midi": 62,
      "hit": false,
      "t": 103888.7850000002,
      "d": 434.02734375,
      "v": 106
    },
    {
      "midi": 64,
      "hit": false,
      "t": 104444.3400000001,
      "d": 989.582343749993,
      "v": 31
    },
    {
      "midi": 60,
      "hit": false,
      "t": 104444.3400000001,
      "d": 1024.304531249989,
      "v": 36
    },
    {
      "midi": 64,
      "hit": false,
      "t": 104444.34000000021,
      "d": 989.582343749993,
      "v": 102
    },
    {
      "midi": 55,
      "hit": false,
      "t": 104444.34000000021,
      "d": 1006.9434374999983,
      "v": 120
    },
    {
      "midi": 60,
      "hit": false,
      "t": 104444.34000000021,
      "d": 1024.3045312500035,
      "v": 120
    },
    {
      "midi": 64,
      "hit": false,
      "t": 105555.45000000008,
      "d": 885.4157812500052,
      "v": 32
    },
    {
      "midi": 60,
      "hit": false,
      "t": 105555.45000000008,
      "d": 914.3509374999994,
      "v": 36
    },
    {
      "midi": 64,
      "hit": false,
      "t": 105555.45000000022,
      "d": 885.4157812500052,
      "v": 106
    },
    {
      "midi": 55,
      "hit": false,
      "t": 105555.45000000022,
      "d": 908.5639062500122,
      "v": 127
    },
    {
      "midi": 60,
      "hit": false,
      "t": 105555.45000000022,
      "d": 914.350937500014,
      "v": 120
    },
    {
      "midi": 62,
      "hit": false,
      "t": 106666.56000000008,
      "d": 1487.2670312499977,
      "v": 36
    },
    {
      "midi": 58,
      "hit": false,
      "t": 106666.56000000008,
      "d": 1504.628125000003,
      "v": 38
    },
    {
      "midi": 46,
      "hit": false,
      "t": 106666.56000000023,
      "d": 1458.3318750000035,
      "v": 120
    },
    {
      "midi": 53,
      "hit": false,
      "t": 106666.56000000023,
      "d": 1487.2670312499977,
      "v": 106
    },
    {
      "midi": 62,
      "hit": false,
      "t": 106666.56000000023,
      "d": 1487.2670312499977,
      "v": 120
    },
    {
      "midi": 58,
      "hit": false,
      "t": 106666.56000000023,
      "d": 1504.628125000003,
      "v": 127
    },
    {
      "midi": 58,
      "hit": false,
      "t": 108333.2250000001,
      "d": 98.37953125000058,
      "v": 38
    },
    {
      "midi": 62,
      "hit": false,
      "t": 108333.2250000001,
      "d": 138.88874999999825,
      "v": 36
    },
    {
      "midi": 53,
      "hit": false,
      "t": 108333.22500000024,
      "d": 86.80546874999709,
      "v": 120
    },
    {
      "midi": 58,
      "hit": false,
      "t": 108333.22500000024,
      "d": 98.37953125000058,
      "v": 127
    },
    {
      "midi": 62,
      "hit": false,
      "t": 108333.22500000024,
      "d": 138.88874999999825,
      "v": 120
    },
    {
      "midi": 48,
      "hit": false,
      "t": 108796.18750000023,
      "d": 1834.4889062500006,
      "v": 102
    },
    {
      "midi": 64,
      "hit": false,
      "t": 108888.78000000009,
      "d": 1793.979687500003,
      "v": 32
    },
    {
      "midi": 67,
      "hit": false,
      "t": 108888.78000000009,
      "d": 1799.7667187500047,
      "v": 32
    },
    {
      "midi": 60,
      "hit": false,
      "t": 108888.78000000009,
      "d": 1840.2759375000023,
      "v": 36
    },
    {
      "midi": 64,
      "hit": false,
      "t": 108888.78000000023,
      "d": 1793.979687500003,
      "v": 106
    },
    {
      "midi": 67,
      "hit": false,
      "t": 108888.78000000023,
      "d": 1799.7667187500047,
      "v": 106
    },
    {
      "midi": 60,
      "hit": false,
      "t": 108888.78000000023,
      "d": 1840.2759375000023,
      "v": 120
    },
    {
      "midi": 59,
      "hit": false,
      "t": 111111.00000000009,
      "d": 1059.0267187499994,
      "v": 36
    },
    {
      "midi": 62,
      "hit": false,
      "t": 111111.00000000009,
      "d": 1151.6192187499983,
      "v": 32
    },
    {
      "midi": 43,
      "hit": false,
      "t": 111111.00000000023,
      "d": 798.6103124999936,
      "v": 102
    },
    {
      "midi": 59,
      "hit": false,
      "t": 111111.00000000023,
      "d": 1059.0267187499994,
      "v": 120
    },
    {
      "midi": 55,
      "hit": false,
      "t": 111111.00000000023,
      "d": 1076.3878125000047,
      "v": 127
    },
    {
      "midi": 62,
      "hit": false,
      "t": 111111.00000000023,
      "d": 1151.6192187499983,
      "v": 106
    },
    {
      "midi": 59,
      "hit": false,
      "t": 112777.66500000008,
      "d": 248.84234375000233,
      "v": 38
    },
    {
      "midi": 62,
      "hit": false,
      "t": 112777.66500000008,
      "d": 266.20343750000757,
      "v": 32
    },
    {
      "midi": 55,
      "hit": false,
      "t": 112777.66500000023,
      "d": 225.69421874999534,
      "v": 120
    },
    {
      "midi": 59,
      "hit": false,
      "t": 112777.66500000023,
      "d": 248.84234375000233,
      "v": 127
    },
    {
      "midi": 62,
      "hit": false,
      "t": 112777.66500000023,
      "d": 266.20343750000757,
      "v": 106
    },
    {
      "midi": 64,
      "hit": false,
      "t": 113333.22000000009,
      "d": 1429.3967187499948,
      "v": 31
    },
    {
      "midi": 60,
      "hit": false,
      "t": 113333.22000000009,
      "d": 1487.2670312499977,
      "v": 38
    },
    {
      "midi": 64,
      "hit": false,
      "t": 113333.22000000023,
      "d": 1429.3967187499948,
      "v": 102
    },
    {
      "midi": 55,
      "hit": false,
      "t": 113333.22000000023,
      "d": 1458.331874999989,
      "v": 120
    },
    {
      "midi": 60,
      "hit": false,
      "t": 113333.22000000023,
      "d": 1487.2670312499831,
      "v": 127
    },
    {
      "midi": 60,
      "hit": false,
      "t": 114999.88500000008,
      "d": 127.31468749999476,
      "v": 36
    },
    {
      "midi": 64,
      "hit": false,
      "t": 114999.88500000008,
      "d": 133.1017187499965,
      "v": 32
    },
    {
      "midi": 55,
      "hit": false,
      "t": 114999.88500000021,
      "d": 127.31468749999476,
      "v": 127
    },
    {
      "midi": 60,
      "hit": false,
      "t": 114999.88500000021,
      "d": 127.31468749999476,
      "v": 120
    },
    {
      "midi": 64,
      "hit": false,
      "t": 114999.88500000021,
      "d": 133.1017187499965,
      "v": 106
    },
    {
      "midi": 58,
      "hit": false,
      "t": 115555.44000000008,
      "d": 1504.628125000003,
      "v": 38
    },
    {
      "midi": 62,
      "hit": false,
      "t": 115555.44000000008,
      "d": 1504.628125000003,
      "v": 32
    },
    {
      "midi": 46,
      "hit": false,
      "t": 115555.4400000002,
      "d": 1325.2301562499924,
      "v": 94
    },
    {
      "midi": 53,
      "hit": false,
      "t": 115555.4400000002,
      "d": 1475.6929687499942,
      "v": 102
    },
    {
      "midi": 58,
      "hit": false,
      "t": 115555.4400000002,
      "d": 1504.6281249999884,
      "v": 127
    },
    {
      "midi": 62,
      "hit": false,
      "t": 115555.4400000002,
      "d": 1504.6281249999884,
      "v": 106
    },
    {
      "midi": 58,
      "hit": false,
      "t": 117222.10500000008,
      "d": 156.2498437500035,
      "v": 38
    },
    {
      "midi": 62,
      "hit": false,
      "t": 117222.10500000008,
      "d": 185.18499999999767,
      "v": 31
    },
    {
      "midi": 53,
      "hit": false,
      "t": 117222.1050000002,
      "d": 144.67578125,
      "v": 94
    },
    {
      "midi": 58,
      "hit": false,
      "t": 117222.1050000002,
      "d": 156.2498437500035,
      "v": 127
    },
    {
      "midi": 62,
      "hit": false,
      "t": 117222.1050000002,
      "d": 185.18499999999767,
      "v": 102
    },
    {
      "midi": 60,
      "hit": false,
      "t": 117777.66000000008,
      "d": 1932.8684375000012,
      "v": 38
    },
    {
      "midi": 64,
      "hit": false,
      "t": 117777.66000000008,
      "d": 1950.2295312500064,
      "v": 32
    },
    {
      "midi": 55,
      "hit": false,
      "t": 117777.66000000019,
      "d": 1915.507343749996,
      "v": 120
    },
    {
      "midi": 60,
      "hit": false,
      "t": 117777.66000000019,
      "d": 1932.8684375000012,
      "v": 127
    },
    {
      "midi": 64,
      "hit": false,
      "t": 117777.66000000019,
      "d": 1950.2295312500064,
      "v": 106
    },
    {
      "midi": 59,
      "hit": false,
      "t": 119999.88000000008,
      "d": 2083.331250000003,
      "v": 28
    },
    {
      "midi": 62,
      "hit": false,
      "t": 119999.88000000008,
      "d": 2089.1182812500047,
      "v": 32
    },
    {
      "midi": 66,
      "hit": false,
      "t": 119999.88000000008,
      "d": 2100.692343750008,
      "v": 32
    },
    {
      "midi": 54,
      "hit": false,
      "t": 119999.8800000002,
      "d": 1961.8035937499953,
      "v": 89
    },
    {
      "midi": 47,
      "hit": false,
      "t": 119999.8800000002,
      "d": 1996.5257812499913,
      "v": 77
    },
    {
      "midi": 59,
      "hit": false,
      "t": 119999.8800000002,
      "d": 2083.3312499999884,
      "v": 94
    },
    {
      "midi": 62,
      "hit": false,
      "t": 119999.8800000002,
      "d": 2089.11828124999,
      "v": 106
    },
    {
      "midi": 66,
      "hit": false,
      "t": 119999.8800000002,
      "d": 2100.6923437499936,
      "v": 106
    },
    {
      "midi": 64,
      "hit": false,
      "t": 122222.10000000008,
      "d": 1903.933281250007,
      "v": 31
    },
    {
      "midi": 60,
      "hit": false,
      "t": 122222.10000000008,
      "d": 1984.9517187500023,
      "v": 36
    },
    {
      "midi": 67,
      "hit": false,
      "t": 122222.10000000008,
      "d": 1990.738750000004,
      "v": 28
    },
    {
      "midi": 55,
      "hit": false,
      "t": 122222.10000000018,
      "d": 1874.9981249999983,
      "v": 77
    },
    {
      "midi": 64,
      "hit": false,
      "t": 122222.10000000018,
      "d": 1903.9332812499924,
      "v": 102
    },
    {
      "midi": 48,
      "hit": false,
      "t": 122222.10000000018,
      "d": 1967.590624999997,
      "v": 72
    },
    {
      "midi": 60,
      "hit": false,
      "t": 122222.10000000018,
      "d": 1984.9517187500023,
      "v": 120
    },
    {
      "midi": 67,
      "hit": false,
      "t": 122222.10000000018,
      "d": 1990.738750000004,
      "v": 94
    },
    {
      "midi": 62,
      "hit": false,
      "t": 124444.32000000008,
      "d": 1423.609687499993,
      "v": 36
    },
    {
      "midi": 66,
      "hit": false,
      "t": 124444.32000000008,
      "d": 1435.1837499999965,
      "v": 32
    },
    {
      "midi": 59,
      "hit": false,
      "t": 124444.32000000008,
      "d": 1458.3318750000035,
      "v": 27
    },
    {
      "midi": 54,
      "hit": false,
      "t": 124444.32000000018,
      "d": 1417.8226562499913,
      "v": 102
    },
    {
      "midi": 62,
      "hit": false,
      "t": 124444.32000000018,
      "d": 1423.609687499993,
      "v": 120
    },
    {
      "midi": 66,
      "hit": false,
      "t": 124444.32000000018,
      "d": 1435.1837499999965,
      "v": 106
    },
    {
      "midi": 59,
      "hit": false,
      "t": 124444.32000000018,
      "d": 1458.3318750000035,
      "v": 89
    },
    {
      "midi": 47,
      "hit": false,
      "t": 124444.32000000018,
      "d": 1469.905937500007,
      "v": 94
    },
    {
      "midi": 64,
      "hit": false,
      "t": 126666.54000000008,
      "d": 1249.9987499999988,
      "v": 32
    },
    {
      "midi": 60,
      "hit": false,
      "t": 126666.54000000008,
      "d": 1302.08203125,
      "v": 36
    },
    {
      "midi": 67,
      "hit": false,
      "t": 126666.54000000008,
      "d": 1307.8690625000017,
      "v": 28
    },
    {
      "midi": 55,
      "hit": false,
      "t": 126666.54000000018,
      "d": 1192.1284375000105,
      "v": 94
    },
    {
      "midi": 64,
      "hit": false,
      "t": 126666.54000000018,
      "d": 1249.9987500000134,
      "v": 106
    },
    {
      "midi": 48,
      "hit": false,
      "t": 126666.54000000018,
      "d": 1273.1468750000204,
      "v": 94
    },
    {
      "midi": 60,
      "hit": false,
      "t": 126666.54000000018,
      "d": 1302.0820312500146,
      "v": 120
    },
    {
      "midi": 67,
      "hit": false,
      "t": 126666.54000000018,
      "d": 1307.8690625000163,
      "v": 94
    },
    {
      "midi": 59,
      "hit": false,
      "t": 128888.76000000008,
      "d": 1718.7482812499948,
      "v": 27
    },
    {
      "midi": 62,
      "hit": false,
      "t": 128888.76000000008,
      "d": 1724.5353124999965,
      "v": 28
    },
    {
      "midi": 66,
      "hit": false,
      "t": 128888.76000000008,
      "d": 1753.4704687499907,
      "v": 31
    },
    {
      "midi": 59,
      "hit": false,
      "t": 128888.7600000002,
      "d": 1718.7482812499948,
      "v": 89
    },
    {
      "midi": 62,
      "hit": false,
      "t": 128888.7600000002,
      "d": 1724.5353124999965,
      "v": 94
    },
    {
      "midi": 47,
      "hit": false,
      "t": 128888.7600000002,
      "d": 1736.109375,
      "v": 77
    },
    {
      "midi": 54,
      "hit": false,
      "t": 128888.7600000002,
      "d": 1741.8964062500017,
      "v": 89
    },
    {
      "midi": 66,
      "hit": false,
      "t": 128888.7600000002,
      "d": 1753.4704687500052,
      "v": 102
    },
    {
      "midi": 64,
      "hit": false,
      "t": 131110.98000000007,
      "d": 434.02734375,
      "v": 31
    },
    {
      "midi": 67,
      "hit": false,
      "t": 131110.98000000007,
      "d": 457.175468750007,
      "v": 31
    },
    {
      "midi": 60,
      "hit": false,
      "t": 131110.98000000007,
      "d": 468.7495312500105,
      "v": 31
    },
    {
      "midi": 64,
      "hit": false,
      "t": 131110.9800000002,
      "d": 434.02734375,
      "v": 102
    },
    {
      "midi": 67,
      "hit": false,
      "t": 131110.9800000002,
      "d": 457.175468750007,
      "v": 102
    },
    {
      "midi": 60,
      "hit": false,
      "t": 131110.9800000002,
      "d": 468.7495312500105,
      "v": 102
    },
    {
      "midi": 66,
      "hit": false,
      "t": 131666.5350000001,
      "d": 381.94406249999884,
      "v": 36
    },
    {
      "midi": 62,
      "hit": false,
      "t": 131666.5350000001,
      "d": 393.5181250000023,
      "v": 31
    },
    {
      "midi": 59,
      "hit": false,
      "t": 131666.5350000001,
      "d": 416.6662500000093,
      "v": 31
    },
    {
      "midi": 66,
      "hit": false,
      "t": 131666.53500000024,
      "d": 381.94406249999884,
      "v": 120
    },
    {
      "midi": 62,
      "hit": false,
      "t": 131666.53500000024,
      "d": 393.5181250000023,
      "v": 102
    },
    {
      "midi": 59,
      "hit": false,
      "t": 131666.53500000024,
      "d": 416.6662500000093,
      "v": 102
    },
    {
      "midi": 64,
      "hit": false,
      "t": 132222.0900000001,
      "d": 925.9249999999884,
      "v": 31
    },
    {
      "midi": 57,
      "hit": false,
      "t": 132222.0900000001,
      "d": 931.7120312499756,
      "v": 31
    },
    {
      "midi": 60,
      "hit": false,
      "t": 132222.0900000001,
      "d": 943.286093749979,
      "v": 32
    },
    {
      "midi": 64,
      "hit": false,
      "t": 132222.09000000026,
      "d": 925.9249999999884,
      "v": 102
    },
    {
      "midi": 57,
      "hit": false,
      "t": 132222.09000000026,
      "d": 931.7120312499756,
      "v": 102
    },
    {
      "midi": 60,
      "hit": false,
      "t": 132222.09000000026,
      "d": 943.286093749979,
      "v": 106
    },
    {
      "midi": 57,
      "hit": false,
      "t": 133333.2000000001,
      "d": 3987.2645312499953,
      "v": 28
    },
    {
      "midi": 60,
      "hit": false,
      "t": 133333.2000000001,
      "d": 3998.838593749999,
      "v": 32
    },
    {
      "midi": 64,
      "hit": false,
      "t": 133333.2000000001,
      "d": 3998.838593749999,
      "v": 28
    },
    {
      "midi": 53,
      "hit": false,
      "t": 133333.20000000024,
      "d": 3981.477500000008,
      "v": 120
    },
    {
      "midi": 57,
      "hit": false,
      "t": 133333.20000000024,
      "d": 3987.2645312499953,
      "v": 94
    },
    {
      "midi": 60,
      "hit": false,
      "t": 133333.20000000024,
      "d": 3998.838593749999,
      "v": 106
    },
    {
      "midi": 64,
      "hit": false,
      "t": 133333.20000000024,
      "d": 3998.838593749999,
      "v": 94
    },
    {
      "midi": 41,
      "hit": false,
      "t": 135555.42000000025,
      "d": 1782.4056249999849,
      "v": 83
    },
    {
      "midi": 62,
      "hit": false,
      "t": 137777.6400000001,
      "d": 2986.108124999999,
      "v": 32
    },
    {
      "midi": 57,
      "hit": false,
      "t": 137777.6400000001,
      "d": 2997.6821875000023,
      "v": 28
    },
    {
      "midi": 66,
      "hit": false,
      "t": 137777.6400000001,
      "d": 2997.6821875000023,
      "v": 38
    },
    {
      "midi": 50,
      "hit": false,
      "t": 137777.64000000022,
      "d": 2962.959999999992,
      "v": 72
    },
    {
      "midi": 38,
      "hit": false,
      "t": 137777.64000000022,
      "d": 2986.108124999999,
      "v": 62
    },
    {
      "midi": 62,
      "hit": false,
      "t": 137777.64000000022,
      "d": 2986.108124999999,
      "v": 106
    },
    {
      "midi": 57,
      "hit": false,
      "t": 137777.64000000022,
      "d": 2997.6821875000023,
      "v": 94
    },
    {
      "midi": 66,
      "hit": false,
      "t": 137777.64000000022,
      "d": 2997.6821875000023,
      "v": 127
    },
    {
      "midi": 59,
      "hit": false,
      "t": 141110.97000000012,
      "d": 451.3884374999907,
      "v": 32
    },
    {
      "midi": 62,
      "hit": false,
      "t": 141110.97000000012,
      "d": 462.9624999999942,
      "v": 28
    },
    {
      "midi": 71,
      "hit": false,
      "t": 141110.97000000012,
      "d": 462.9624999999942,
      "v": 38
    },
    {
      "midi": 55,
      "hit": false,
      "t": 141110.97000000023,
      "d": 451.3884374999907,
      "v": 106
    },
    {
      "midi": 59,
      "hit": false,
      "t": 141110.97000000023,
      "d": 451.3884374999907,
      "v": 106
    },
    {
      "midi": 62,
      "hit": false,
      "t": 141110.97000000023,
      "d": 462.9624999999942,
      "v": 94
    },
    {
      "midi": 71,
      "hit": false,
      "t": 141110.97000000023,
      "d": 462.9624999999942,
      "v": 127
    },
    {
      "midi": 72,
      "hit": false,
      "t": 141666.5250000001,
      "d": 422.4532812499965,
      "v": 38
    },
    {
      "midi": 60,
      "hit": false,
      "t": 141666.5250000001,
      "d": 451.3884374999907,
      "v": 38
    },
    {
      "midi": 64,
      "hit": false,
      "t": 141666.5250000001,
      "d": 462.9624999999942,
      "v": 32
    },
    {
      "midi": 72,
      "hit": false,
      "t": 141666.52500000023,
      "d": 422.4532812499965,
      "v": 127
    },
    {
      "midi": 55,
      "hit": false,
      "t": 141666.52500000023,
      "d": 428.2403124999837,
      "v": 102
    },
    {
      "midi": 60,
      "hit": false,
      "t": 141666.52500000023,
      "d": 451.3884374999907,
      "v": 127
    },
    {
      "midi": 64,
      "hit": false,
      "t": 141666.52500000023,
      "d": 462.9624999999942,
      "v": 106
    },
    {
      "midi": 57,
      "hit": false,
      "t": 142222.0800000001,
      "d": 2997.6821875000023,
      "v": 28
    },
    {
      "midi": 69,
      "hit": false,
      "t": 142222.0800000001,
      "d": 3055.5524999999907,
      "v": 36
    },
    {
      "midi": 69,
      "hit": false,
      "t": 142222.08000000022,
      "d": 2858.7934374999895,
      "v": 127
    },
    {
      "midi": 50,
      "hit": false,
      "t": 142222.08000000022,
      "d": 2962.959999999992,
      "v": 72
    },
    {
      "midi": 38,
      "hit": false,
      "t": 142222.08000000022,
      "d": 2986.108124999999,
      "v": 62
    },
    {
      "midi": 62,
      "hit": false,
      "t": 142222.08000000022,
      "d": 2986.108124999999,
      "v": 106
    },
    {
      "midi": 57,
      "hit": false,
      "t": 142222.08000000022,
      "d": 2997.6821875000023,
      "v": 94
    },
    {
      "midi": 66,
      "hit": false,
      "t": 142222.08000000022,
      "d": 2997.6821875000023,
      "v": 127
    },
    {
      "midi": 62,
      "hit": false,
      "t": 144444.3000000001,
      "d": 763.8881249999977,
      "v": 32
    },
    {
      "midi": 66,
      "hit": false,
      "t": 144444.3000000001,
      "d": 775.4621875000012,
      "v": 38
    },
    {
      "midi": 59,
      "hit": false,
      "t": 145555.4100000001,
      "d": 405.0921875000058,
      "v": 38
    },
    {
      "midi": 62,
      "hit": false,
      "t": 145555.4100000001,
      "d": 405.0921875000058,
      "v": 32
    },
    {
      "midi": 71,
      "hit": false,
      "t": 145555.4100000001,
      "d": 439.8143750000163,
      "v": 38
    },
    {
      "midi": 55,
      "hit": false,
      "t": 145555.41000000024,
      "d": 422.4532812499965,
      "v": 127
    },
    {
      "midi": 59,
      "hit": false,
      "t": 145555.41000000024,
      "d": 428.2403124999837,
      "v": 127
    },
    {
      "midi": 62,
      "hit": false,
      "t": 145555.41000000024,
      "d": 434.0273437499709,
      "v": 106
    },
    {
      "midi": 71,
      "hit": false,
      "t": 145555.41000000024,
      "d": 457.1754687499779,
      "v": 127
    },
    {
      "midi": 72,
      "hit": false,
      "t": 146110.9650000001,
      "d": 393.5181250000023,
      "v": 36
    },
    {
      "midi": 64,
      "hit": false,
      "t": 146110.9650000001,
      "d": 439.8143750000163,
      "v": 32
    },
    {
      "midi": 60,
      "hit": false,
      "t": 146110.9650000001,
      "d": 451.3884375000198,
      "v": 38
    },
    {
      "midi": 55,
      "hit": false,
      "t": 146110.9650000002,
      "d": 405.0921875000058,
      "v": 106
    },
    {
      "midi": 60,
      "hit": false,
      "t": 146110.9650000002,
      "d": 416.6662500000093,
      "v": 127
    },
    {
      "midi": 64,
      "hit": false,
      "t": 146110.9650000002,
      "d": 416.6662500000093,
      "v": 106
    },
    {
      "midi": 72,
      "hit": false,
      "t": 146110.9650000002,
      "d": 439.8143750000163,
      "v": 127
    },
    {
      "midi": 69,
      "hit": false,
      "t": 146666.52000000014,
      "d": 2233.7940625000047,
      "v": 38
    },
    {
      "midi": 62,
      "hit": false,
      "t": 146666.52000000014,
      "d": 2986.108124999999,
      "v": 32
    },
    {
      "midi": 57,
      "hit": false,
      "t": 146666.52000000014,
      "d": 2997.6821875000023,
      "v": 28
    },
    {
      "midi": 66,
      "hit": false,
      "t": 146666.52000000014,
      "d": 2997.6821875000023,
      "v": 38
    },
    {
      "midi": 38,
      "hit": false,
      "t": 146666.52000000022,
      "d": 2222.220000000001,
      "v": 62
    },
    {
      "midi": 50,
      "hit": false,
      "t": 146666.52000000022,
      "d": 2222.220000000001,
      "v": 72
    },
    {
      "midi": 57,
      "hit": false,
      "t": 146666.52000000022,
      "d": 2222.220000000001,
      "v": 94
    },
    {
      "midi": 62,
      "hit": false,
      "t": 146666.52000000022,
      "d": 2222.220000000001,
      "v": 106
    },
    {
      "midi": 66,
      "hit": false,
      "t": 146666.52000000022,
      "d": 2222.220000000001,
      "v": 127
    },
    {
      "midi": 69,
      "hit": false,
      "t": 146666.52000000022,
      "d": 2222.220000000001,
      "v": 127
    },
    {
      "midi": 69,
      "hit": false,
      "t": 148888.74000000022,
      "d": 11.574062500003492,
      "v": 127
    },
    {
      "midi": 50,
      "hit": false,
      "t": 148888.74000000022,
      "d": 740.7399999999907,
      "v": 72
    },
    {
      "midi": 38,
      "hit": false,
      "t": 148888.74000000022,
      "d": 763.8881249999977,
      "v": 62
    },
    {
      "midi": 62,
      "hit": false,
      "t": 148888.74000000022,
      "d": 763.8881249999977,
      "v": 106
    },
    {
      "midi": 57,
      "hit": false,
      "t": 148888.74000000022,
      "d": 775.4621875000012,
      "v": 94
    },
    {
      "midi": 66,
      "hit": false,
      "t": 148888.74000000022,
      "d": 775.4621875000012,
      "v": 127
    },
    {
      "midi": 62,
      "hit": false,
      "t": 149999.85000000015,
      "d": 173.61093749999418,
      "v": 32
    },
    {
      "midi": 66,
      "hit": false,
      "t": 149999.85000000015,
      "d": 214.12015624999185,
      "v": 32
    },
    {
      "midi": 69,
      "hit": false,
      "t": 149999.85000000015,
      "d": 289.3515625,
      "v": 36
    },
    {
      "midi": 62,
      "hit": false,
      "t": 149999.85000000024,
      "d": 173.61093749999418,
      "v": 106
    },
    {
      "midi": 66,
      "hit": false,
      "t": 149999.85000000024,
      "d": 214.12015624999185,
      "v": 106
    },
    {
      "midi": 69,
      "hit": false,
      "t": 149999.85000000024,
      "d": 289.3515625,
      "v": 120
    },
    {
      "midi": 69,
      "hit": false,
      "t": 150370.22000000015,
      "d": 295.1385937499872,
      "v": 36
    },
    {
      "midi": 62,
      "hit": false,
      "t": 150370.22000000023,
      "d": 179.39796875001048,
      "v": 94
    },
    {
      "midi": 66,
      "hit": false,
      "t": 150370.22000000023,
      "d": 219.90718750000815,
      "v": 83
    },
    {
      "midi": 69,
      "hit": false,
      "t": 150370.22000000023,
      "d": 295.1385937500163,
      "v": 120
    },
    {
      "midi": 62,
      "hit": false,
      "t": 150740.59000000014,
      "d": 173.61093749999418,
      "v": 31
    },
    {
      "midi": 66,
      "hit": false,
      "t": 150740.59000000014,
      "d": 214.12015624999185,
      "v": 36
    },
    {
      "midi": 69,
      "hit": false,
      "t": 150740.59000000014,
      "d": 324.0737499999814,
      "v": 36
    },
    {
      "midi": 62,
      "hit": false,
      "t": 150740.59000000026,
      "d": 173.61093749999418,
      "v": 102
    },
    {
      "midi": 66,
      "hit": false,
      "t": 150740.59000000026,
      "d": 214.12015624999185,
      "v": 120
    },
    {
      "midi": 69,
      "hit": false,
      "t": 150740.59000000026,
      "d": 324.0737499999814,
      "v": 120
    },
    {
      "midi": 62,
      "hit": false,
      "t": 151110.96000000014,
      "d": 162.0368749999907,
      "v": 31
    },
    {
      "midi": 66,
      "hit": false,
      "t": 151110.96000000014,
      "d": 248.84234375000233,
      "v": 36
    },
    {
      "midi": 69,
      "hit": false,
      "t": 151110.96000000014,
      "d": 347.22187499998836,
      "v": 32
    },
    {
      "midi": 62,
      "hit": false,
      "t": 151110.96000000025,
      "d": 162.0368749999907,
      "v": 102
    },
    {
      "midi": 66,
      "hit": false,
      "t": 151110.96000000025,
      "d": 248.84234375000233,
      "v": 120
    },
    {
      "midi": 69,
      "hit": false,
      "t": 151110.96000000025,
      "d": 347.22187499998836,
      "v": 106
    },
    {
      "midi": 65,
      "hit": false,
      "t": 151573.92250000013,
      "d": 3449.070624999993,
      "v": 27
    },
    {
      "midi": 69,
      "hit": false,
      "t": 151573.92250000013,
      "d": 3715.274062499986,
      "v": 32
    },
    {
      "midi": 62,
      "hit": false,
      "t": 151573.92250000013,
      "d": 3883.097968749993,
      "v": 31
    },
    {
      "midi": 58,
      "hit": false,
      "t": 151573.92250000013,
      "d": 3888.88499999998,
      "v": 80
    },
    {
      "midi": 65,
      "hit": false,
      "t": 151573.92250000025,
      "d": 3449.070624999993,
      "v": 89
    },
    {
      "midi": 69,
      "hit": false,
      "t": 151573.92250000025,
      "d": 3715.274062499986,
      "v": 106
    },
    {
      "midi": 62,
      "hit": false,
      "t": 151573.92250000025,
      "d": 3883.097968749993,
      "v": 102
    },
    {
      "midi": 31,
      "hit": false,
      "t": 151573.92250000025,
      "d": 3981.477499999979,
      "v": 106
    }
  ]
}