{
  "jsonPath": "Rock/Classic Garage Rock/The Association/never-my-love.json",
  "path": "Rock\\Classic Garage Rock\\The Association\\Never My Love.mid",
  "name": "Never My Love",
  "difficulty": "Advanced",
  "bpm": 93.00004185001883,
  "notes": [
    {
      "midi": 65,
      "hit": false,
      "t": 3897.8477083333332,
      "d": 241.93537499999957,
      "v": 101
    },
    {
      "midi": 66,
      "hit": false,
      "t": 4193.5464999999995,
      "d": 241.93537500000002,
      "v": 69
    },
    {
      "midi": 68,
      "hit": false,
      "t": 4516.1269999999995,
      "d": 288.97836458333313,
      "v": 86
    },
    {
      "midi": 60,
      "hit": false,
      "t": 4838.7074999999995,
      "d": 295.6987916666667,
      "v": 89
    },
    {
      "midi": 61,
      "hit": false,
      "t": 5161.288,
      "d": 483.87075000000004,
      "v": 93
    },
    {
      "midi": 56,
      "hit": false,
      "t": 5779.567291666666,
      "d": 470.4298958333329,
      "v": 76
    },
    {
      "midi": 61,
      "hit": false,
      "t": 5779.567291666666,
      "d": 483.87074999999913,
      "v": 91
    },
    {
      "midi": 65,
      "hit": false,
      "t": 5806.449,
      "d": 470.429895833332,
      "v": 93
    },
    {
      "midi": 56,
      "hit": false,
      "t": 6451.609999999998,
      "d": 134.40854166666668,
      "v": 73
    },
    {
      "midi": 61,
      "hit": false,
      "t": 6451.609999999998,
      "d": 134.40854166666668,
      "v": 83
    },
    {
      "midi": 65,
      "hit": false,
      "t": 6451.609999999998,
      "d": 134.40854166666668,
      "v": 80
    },
    {
      "midi": 56,
      "hit": false,
      "t": 6774.190499999998,
      "d": 107.52683333333334,
      "v": 73
    },
    {
      "midi": 61,
      "hit": false,
      "t": 6774.190499999998,
      "d": 107.52683333333334,
      "v": 86
    },
    {
      "midi": 65,
      "hit": false,
      "t": 6774.190499999998,
      "d": 107.52683333333334,
      "v": 89
    },
    {
      "midi": 65,
      "hit": false,
      "t": 7419.351499999998,
      "d": 80.64512500000001,
      "v": 89
    },
    {
      "midi": 61,
      "hit": false,
      "t": 7419.351499999998,
      "d": 1344.0854166666659,
      "v": 93
    },
    {
      "midi": 56,
      "hit": false,
      "t": 7419.351499999998,
      "d": 1411.2896874999997,
      "v": 73
    },
    {
      "midi": 66,
      "hit": false,
      "t": 7580.641749999998,
      "d": 154.56982291666645,
      "v": 81
    },
    {
      "midi": 65,
      "hit": false,
      "t": 7741.931999999998,
      "d": 1068.547906249999,
      "v": 67
    },
    {
      "midi": 65,
      "hit": false,
      "t": 9059.135708333331,
      "d": 537.6341666666649,
      "v": 93
    },
    {
      "midi": 66,
      "hit": false,
      "t": 9354.834499999997,
      "d": 241.9353749999991,
      "v": 79
    },
    {
      "midi": 68,
      "hit": false,
      "t": 9677.414999999995,
      "d": 275.5375104166669,
      "v": 81
    },
    {
      "midi": 60,
      "hit": false,
      "t": 9999.995499999995,
      "d": 349.46220833333246,
      "v": 89
    },
    {
      "midi": 61,
      "hit": false,
      "t": 10349.457708333328,
      "d": 483.87075000000004,
      "v": 93
    },
    {
      "midi": 56,
      "hit": false,
      "t": 10967.736999999994,
      "d": 537.6341666666667,
      "v": 81
    },
    {
      "midi": 61,
      "hit": false,
      "t": 10967.736999999994,
      "d": 564.5158749999991,
      "v": 86
    },
    {
      "midi": 65,
      "hit": false,
      "t": 10967.736999999994,
      "d": 564.5158749999991,
      "v": 89
    },
    {
      "midi": 56,
      "hit": false,
      "t": 11639.779708333326,
      "d": 215.0536666666667,
      "v": 69
    },
    {
      "midi": 61,
      "hit": false,
      "t": 11639.779708333326,
      "d": 241.9353749999991,
      "v": 71
    },
    {
      "midi": 65,
      "hit": false,
      "t": 11639.779708333326,
      "d": 241.9353749999991,
      "v": 70
    },
    {
      "midi": 56,
      "hit": false,
      "t": 11962.360208333324,
      "d": 107.52683333333334,
      "v": 73
    },
    {
      "midi": 61,
      "hit": false,
      "t": 11962.360208333324,
      "d": 107.52683333333334,
      "v": 69
    },
    {
      "midi": 65,
      "hit": false,
      "t": 11962.360208333324,
      "d": 134.40854166666577,
      "v": 80
    },
    {
      "midi": 65,
      "hit": false,
      "t": 12607.521208333323,
      "d": 107.52683333333334,
      "v": 97
    },
    {
      "midi": 61,
      "hit": false,
      "t": 12607.521208333323,
      "d": 1303.7628541666672,
      "v": 93
    },
    {
      "midi": 56,
      "hit": false,
      "t": 12607.521208333323,
      "d": 1384.4079791666663,
      "v": 73
    },
    {
      "midi": 66,
      "hit": false,
      "t": 12768.811458333323,
      "d": 161.29025000000001,
      "v": 79
    },
    {
      "midi": 65,
      "hit": false,
      "t": 12930.101708333323,
      "d": 1034.9457708333339,
      "v": 83
    },
    {
      "midi": 65,
      "hit": false,
      "t": 14193.541999999989,
      "d": 268.81708333333336,
      "v": 93
    },
    {
      "midi": 66,
      "hit": false,
      "t": 14516.122499999989,
      "d": 241.9353749999973,
      "v": 86
    },
    {
      "midi": 65,
      "hit": false,
      "t": 14543.004208333321,
      "d": 80.6451249999991,
      "v": 47
    },
    {
      "midi": 68,
      "hit": false,
      "t": 14838.702999999985,
      "d": 268.81708333333336,
      "v": 86
    },
    {
      "midi": 60,
      "hit": false,
      "t": 15134.40179166665,
      "d": 322.58050000000003,
      "v": 80
    },
    {
      "midi": 61,
      "hit": false,
      "t": 15456.98229166665,
      "d": 483.87075000000004,
      "v": 83
    },
    {
      "midi": 61,
      "hit": false,
      "t": 16102.14329166665,
      "d": 1283.6015729166666,
      "v": 88
    },
    {
      "midi": 65,
      "hit": false,
      "t": 16102.14329166665,
      "d": 1283.6015729166666,
      "v": 89
    },
    {
      "midi": 56,
      "hit": false,
      "t": 16129.024999999983,
      "d": 450.26861458333224,
      "v": 86
    },
    {
      "midi": 56,
      "hit": false,
      "t": 17069.88479166665,
      "d": 342.7417812499989,
      "v": 63
    },
    {
      "midi": 61,
      "hit": false,
      "t": 17392.46529166665,
      "d": 1176.0747395833314,
      "v": 83
    },
    {
      "midi": 65,
      "hit": false,
      "t": 17392.46529166665,
      "d": 1176.0747395833314,
      "v": 83
    },
    {
      "midi": 56,
      "hit": false,
      "t": 17419.34699999998,
      "d": 638.4405729166683,
      "v": 71
    },
    {
      "midi": 56,
      "hit": false,
      "t": 18064.50799999998,
      "d": 504.0320312500007,
      "v": 86
    },
    {
      "midi": 56,
      "hit": false,
      "t": 18682.787291666646,
      "d": 504.0320312500007,
      "v": 81
    },
    {
      "midi": 60,
      "hit": false,
      "t": 18682.787291666646,
      "d": 618.2792916666658,
      "v": 83
    },
    {
      "midi": 63,
      "hit": false,
      "t": 18682.787291666646,
      "d": 618.2792916666658,
      "v": 86
    },
    {
      "midi": 56,
      "hit": false,
      "t": 19354.829999999976,
      "d": 288.97836458333404,
      "v": 79
    },
    {
      "midi": 56,
      "hit": false,
      "t": 19650.528791666642,
      "d": 611.5588645833341,
      "v": 54
    },
    {
      "midi": 63,
      "hit": false,
      "t": 19677.410499999976,
      "d": 880.3759479166656,
      "v": 67
    },
    {
      "midi": 60,
      "hit": false,
      "t": 19677.410499999976,
      "d": 900.5372291666645,
      "v": 67
    },
    {
      "midi": 56,
      "hit": false,
      "t": 20322.571499999976,
      "d": 342.7417812499989,
      "v": 76
    },
    {
      "midi": 54,
      "hit": false,
      "t": 20618.270291666642,
      "d": 510.75245833333247,
      "v": 96
    },
    {
      "midi": 54,
      "hit": false,
      "t": 21263.431291666642,
      "d": 456.9890416666676,
      "v": 79
    },
    {
      "midi": 59,
      "hit": false,
      "t": 21263.431291666642,
      "d": 1270.1607187500013,
      "v": 91
    },
    {
      "midi": 63,
      "hit": false,
      "t": 21263.431291666642,
      "d": 1276.881145833333,
      "v": 88
    },
    {
      "midi": 54,
      "hit": false,
      "t": 21935.473999999977,
      "d": 604.8384374999987,
      "v": 83
    },
    {
      "midi": 63,
      "hit": false,
      "t": 22580.634999999977,
      "d": 557.7954479166692,
      "v": 86
    },
    {
      "midi": 54,
      "hit": false,
      "t": 22607.51670833331,
      "d": 530.913739583335,
      "v": 38
    },
    {
      "midi": 59,
      "hit": false,
      "t": 22607.51670833331,
      "d": 530.913739583335,
      "v": 83
    },
    {
      "midi": 61,
      "hit": false,
      "t": 23225.79599999998,
      "d": 268.81708333333154,
      "v": 86
    },
    {
      "midi": 66,
      "hit": false,
      "t": 23225.79599999998,
      "d": 403.2256249999955,
      "v": 93
    },
    {
      "midi": 58,
      "hit": false,
      "t": 23225.79599999998,
      "d": 483.8707499999946,
      "v": 81
    },
    {
      "midi": 65,
      "hit": false,
      "t": 23548.376499999977,
      "d": 268.81708333333154,
      "v": 87
    },
    {
      "midi": 61,
      "hit": false,
      "t": 23844.075291666642,
      "d": 107.52683333333334,
      "v": 76
    },
    {
      "midi": 61,
      "hit": false,
      "t": 24193.537499999977,
      "d": 1330.6445624999942,
      "v": 91
    },
    {
      "midi": 56,
      "hit": false,
      "t": 24193.537499999977,
      "d": 1370.9671249999956,
      "v": 91
    },
    {
      "midi": 65,
      "hit": false,
      "t": 24193.537499999977,
      "d": 1491.934812499996,
      "v": 89
    },
    {
      "midi": 70,
      "hit": false,
      "t": 24845.41892708331,
      "d": 141.12896874999933,
      "v": 79
    },
    {
      "midi": 73,
      "hit": false,
      "t": 25013.429604166642,
      "d": 309.1396458333329,
      "v": 65
    },
    {
      "midi": 75,
      "hit": false,
      "t": 25167.99942708331,
      "d": 577.9567291666644,
      "v": 91
    },
    {
      "midi": 73,
      "hit": false,
      "t": 25329.289677083307,
      "d": 416.66647916666625,
      "v": 71
    },
    {
      "midi": 70,
      "hit": false,
      "t": 25490.579927083305,
      "d": 255.37622916666805,
      "v": 63
    },
    {
      "midi": 61,
      "hit": false,
      "t": 25806.439999999973,
      "d": 2150.536666666667,
      "v": 93
    },
    {
      "midi": 58,
      "hit": false,
      "t": 25806.439999999973,
      "d": 2211.020510416667,
      "v": 83
    },
    {
      "midi": 65,
      "hit": false,
      "t": 25806.439999999973,
      "d": 2405.912895833335,
      "v": 93
    },
    {
      "midi": 65,
      "hit": false,
      "t": 28360.202291666643,
      "d": 2231.181791666666,
      "v": 87
    },
    {
      "midi": 61,
      "hit": false,
      "t": 28387.083999999977,
      "d": 2204.3000833333317,
      "v": 88
    },
    {
      "midi": 68,
      "hit": false,
      "t": 28387.083999999977,
      "d": 2204.3000833333317,
      "v": 79
    },
    {
      "midi": 82,
      "hit": false,
      "t": 29327.943791666643,
      "d": 134.4085416666676,
      "v": 91
    },
    {
      "midi": 94,
      "hit": false,
      "t": 29327.943791666643,
      "d": 134.4085416666676,
      "v": 84
    },
    {
      "midi": 92,
      "hit": false,
      "t": 29516.115749999975,
      "d": 80.6451249999991,
      "v": 78
    },
    {
      "midi": 80,
      "hit": false,
      "t": 29516.115749999975,
      "d": 107.52683333333334,
      "v": 85
    },
    {
      "midi": 77,
      "hit": false,
      "t": 29838.696249999975,
      "d": 107.52683333333334,
      "v": 69
    },
    {
      "midi": 89,
      "hit": false,
      "t": 29838.696249999975,
      "d": 107.52683333333334,
      "v": 76
    },
    {
      "midi": 87,
      "hit": false,
      "t": 29999.986499999974,
      "d": 107.52683333333334,
      "v": 79
    },
    {
      "midi": 75,
      "hit": false,
      "t": 29999.986499999974,
      "d": 134.4085416666676,
      "v": 79
    },
    {
      "midi": 73,
      "hit": false,
      "t": 30322.566999999974,
      "d": 241.93537500000093,
      "v": 76
    },
    {
      "midi": 85,
      "hit": false,
      "t": 30322.566999999974,
      "d": 241.93537500000093,
      "v": 79
    },
    {
      "midi": 75,
      "hit": false,
      "t": 30618.265791666643,
      "d": 295.6987916666658,
      "v": 81
    },
    {
      "midi": 87,
      "hit": false,
      "t": 30645.147499999977,
      "d": 268.81708333333154,
      "v": 56
    },
    {
      "midi": 54,
      "hit": false,
      "t": 30940.846291666643,
      "d": 2493.2784479166694,
      "v": 83
    },
    {
      "midi": 58,
      "hit": false,
      "t": 30940.846291666643,
      "d": 2493.2784479166694,
      "v": 96
    },
    {
      "midi": 70,
      "hit": false,
      "t": 30940.846291666643,
      "d": 2493.2784479166694,
      "v": 88
    },
    {
      "midi": 82,
      "hit": false,
      "t": 30940.846291666643,
      "d": 2493.2784479166694,
      "v": 61
    },
    {
      "midi": 61,
      "hit": false,
      "t": 30967.727999999977,
      "d": 2466.396739583335,
      "v": 73
    },
    {
      "midi": 66,
      "hit": false,
      "t": 30994.60970833331,
      "d": 2439.515031250001,
      "v": 69
    },
    {
      "midi": 85,
      "hit": false,
      "t": 33870.95249999998,
      "d": 188.17195833333244,
      "v": 91
    },
    {
      "midi": 82,
      "hit": false,
      "t": 34032.242749999976,
      "d": 147.8493958333347,
      "v": 88
    },
    {
      "midi": 61,
      "hit": false,
      "t": 34193.532999999974,
      "d": 551.0750208333266,
      "v": 73
    },
    {
      "midi": 65,
      "hit": false,
      "t": 34193.532999999974,
      "d": 611.5588645833268,
      "v": 67
    },
    {
      "midi": 80,
      "hit": false,
      "t": 34516.11349999997,
      "d": 315.86007291666465,
      "v": 88
    },
    {
      "midi": 77,
      "hit": false,
      "t": 34704.2854583333,
      "d": 188.17195833333244,
      "v": 87
    },
    {
      "midi": 65,
      "hit": false,
      "t": 34865.5757083333,
      "d": 215.0536666666667,
      "v": 93
    },
    {
      "midi": 66,
      "hit": false,
      "t": 35134.392791666636,
      "d": 241.93537500000093,
      "v": 71
    },
    {
      "midi": 75,
      "hit": false,
      "t": 35188.156208333305,
      "d": 241.93537500000093,
      "v": 83
    },
    {
      "midi": 68,
      "hit": false,
      "t": 35483.854999999974,
      "d": 275.5375104166669,
      "v": 88
    },
    {
      "midi": 73,
      "hit": false,
      "t": 35483.854999999974,
      "d": 282.25793749999866,
      "v": 71
    },
    {
      "midi": 60,
      "hit": false,
      "t": 35806.43549999997,
      "d": 295.6987916666694,
      "v": 76
    },
    {
      "midi": 75,
      "hit": false,
      "t": 35806.43549999997,
      "d": 295.6987916666694,
      "v": 86
    },
    {
      "midi": 61,
      "hit": false,
      "t": 36129.015999999974,
      "d": 537.6341666666631,
      "v": 83
    },
    {
      "midi": 73,
      "hit": false,
      "t": 36129.015999999974,
      "d": 940.8597916666622,
      "v": 59
    },
    {
      "midi": 56,
      "hit": false,
      "t": 36747.29529166664,
      "d": 961.0210729166647,
      "v": 81
    },
    {
      "midi": 65,
      "hit": false,
      "t": 36747.29529166664,
      "d": 1155.913458333329,
      "v": 80
    },
    {
      "midi": 61,
      "hit": false,
      "t": 36747.29529166664,
      "d": 1283.601572916661,
      "v": 86
    },
    {
      "midi": 56,
      "hit": false,
      "t": 37715.03679166664,
      "d": 342.7417812499989,
      "v": 58
    },
    {
      "midi": 56,
      "hit": false,
      "t": 38064.49899999997,
      "d": 1122.311322916663,
      "v": 61
    },
    {
      "midi": 61,
      "hit": false,
      "t": 38064.49899999997,
      "d": 1122.311322916663,
      "v": 69
    },
    {
      "midi": 65,
      "hit": false,
      "t": 38064.49899999997,
      "d": 1122.311322916663,
      "v": 70
    },
    {
      "midi": 56,
      "hit": false,
      "t": 39354.82099999996,
      "d": 430.1073333333334,
      "v": 71
    },
    {
      "midi": 60,
      "hit": false,
      "t": 39354.82099999996,
      "d": 1256.7198645833341,
      "v": 72
    },
    {
      "midi": 63,
      "hit": false,
      "t": 39354.82099999996,
      "d": 1256.7198645833341,
      "v": 86
    },
    {
      "midi": 68,
      "hit": false,
      "t": 39354.82099999996,
      "d": 1861.5583020833365,
      "v": 79
    },
    {
      "midi": 56,
      "hit": false,
      "t": 39973.100291666626,
      "d": 638.4405729166683,
      "v": 59
    },
    {
      "midi": 60,
      "hit": false,
      "t": 40618.261291666626,
      "d": 577.9567291666681,
      "v": 64
    },
    {
      "midi": 63,
      "hit": false,
      "t": 40618.261291666626,
      "d": 598.1180104166706,
      "v": 65
    },
    {
      "midi": 56,
      "hit": false,
      "t": 40618.261291666626,
      "d": 611.5588645833341,
      "v": 54
    },
    {
      "midi": 54,
      "hit": false,
      "t": 41290.30399999996,
      "d": 80.64512500000274,
      "v": 65
    },
    {
      "midi": 54,
      "hit": false,
      "t": 41935.46499999996,
      "d": 423.38690625000163,
      "v": 69
    },
    {
      "midi": 59,
      "hit": false,
      "t": 41935.46499999996,
      "d": 920.698510416667,
      "v": 86
    },
    {
      "midi": 63,
      "hit": false,
      "t": 41935.46499999996,
      "d": 1155.9134583333362,
      "v": 86
    },
    {
      "midi": 54,
      "hit": false,
      "t": 42580.62599999996,
      "d": 1202.956447916673,
      "v": 67
    },
    {
      "midi": 59,
      "hit": false,
      "t": 42903.206499999964,
      "d": 342.7417812499989,
      "v": 79
    },
    {
      "midi": 63,
      "hit": false,
      "t": 43225.78699999996,
      "d": 557.7954479166729,
      "v": 83
    },
    {
      "midi": 59,
      "hit": false,
      "t": 43252.668708333294,
      "d": 530.9137395833386,
      "v": 20
    },
    {
      "midi": 58,
      "hit": false,
      "t": 43548.367499999964,
      "d": 235.2149479166692,
      "v": 17
    },
    {
      "midi": 61,
      "hit": false,
      "t": 43844.06629166663,
      "d": 295.6987916666694,
      "v": 83
    },
    {
      "midi": 66,
      "hit": false,
      "t": 43844.06629166663,
      "d": 295.6987916666694,
      "v": 91
    },
    {
      "midi": 58,
      "hit": false,
      "t": 43844.06629166663,
      "d": 510.7524583333361,
      "v": 79
    },
    {
      "midi": 65,
      "hit": false,
      "t": 44193.52849999997,
      "d": 288.9783645833304,
      "v": 87
    },
    {
      "midi": 61,
      "hit": false,
      "t": 44489.22729166663,
      "d": 107.5268333333297,
      "v": 76
    },
    {
      "midi": 56,
      "hit": false,
      "t": 44838.689499999964,
      "d": 1223.1177291666754,
      "v": 83
    },
    {
      "midi": 61,
      "hit": false,
      "t": 44838.689499999964,
      "d": 1451.6122500000056,
      "v": 88
    },
    {
      "midi": 65,
      "hit": false,
      "t": 44838.689499999964,
      "d": 1451.6122500000056,
      "v": 89
    },
    {
      "midi": 70,
      "hit": false,
      "t": 45483.850499999964,
      "d": 107.52683333333698,
      "v": 91
    },
    {
      "midi": 77,
      "hit": false,
      "t": 45510.7322083333,
      "d": 80.64512500000274,
      "v": 97
    },
    {
      "midi": 73,
      "hit": false,
      "t": 45672.022458333304,
      "d": 53.76341666666849,
      "v": 46
    },
    {
      "midi": 75,
      "hit": false,
      "t": 45672.022458333304,
      "d": 80.64512500000274,
      "v": 86
    },
    {
      "midi": 70,
      "hit": false,
      "t": 46129.01149999997,
      "d": 134.40854166666395,
      "v": 58
    },
    {
      "midi": 58,
      "hit": false,
      "t": 46344.06516666664,
      "d": 2271.5043541666673,
      "v": 53
    },
    {
      "midi": 61,
      "hit": false,
      "t": 46424.71029166664,
      "d": 2076.611968749996,
      "v": 81
    },
    {
      "midi": 75,
      "hit": false,
      "t": 46451.591999999975,
      "d": 107.5268333333297,
      "v": 91
    },
    {
      "midi": 70,
      "hit": false,
      "t": 46451.591999999975,
      "d": 1276.8811458333294,
      "v": 86
    },
    {
      "midi": 65,
      "hit": false,
      "t": 46451.591999999975,
      "d": 1995.9668437499931,
      "v": 89
    },
    {
      "midi": 77,
      "hit": false,
      "t": 46612.88224999997,
      "d": 2076.611968749996,
      "v": 70
    },
    {
      "midi": 65,
      "hit": false,
      "t": 49005.354291666634,
      "d": 2170.697947916662,
      "v": 93
    },
    {
      "midi": 61,
      "hit": false,
      "t": 49032.23599999997,
      "d": 2090.0528229166594,
      "v": 91
    },
    {
      "midi": 68,
      "hit": false,
      "t": 49677.39699999997,
      "d": 1572.5799374999915,
      "v": 81
    },
    {
      "midi": 82,
      "hit": false,
      "t": 49999.977499999964,
      "d": 188.17195833333244,
      "v": 98
    },
    {
      "midi": 94,
      "hit": false,
      "t": 50026.8592083333,
      "d": 107.5268333333297,
      "v": 91
    },
    {
      "midi": 80,
      "hit": false,
      "t": 50188.1494583333,
      "d": 107.52683333333698,
      "v": 98
    },
    {
      "midi": 92,
      "hit": false,
      "t": 50215.03116666663,
      "d": 80.64512500000274,
      "v": 83
    },
    {
      "midi": 77,
      "hit": false,
      "t": 50456.96654166663,
      "d": 134.40854166666395,
      "v": 83
    },
    {
      "midi": 89,
      "hit": false,
      "t": 50483.848249999966,
      "d": 134.40854166666395,
      "v": 87
    },
    {
      "midi": 75,
      "hit": false,
      "t": 50645.138499999965,
      "d": 107.5268333333297,
      "v": 88
    },
    {
      "midi": 87,
      "hit": false,
      "t": 50645.138499999965,
      "d": 107.5268333333297,
      "v": 76
    },
    {
      "midi": 73,
      "hit": false,
      "t": 50967.71899999996,
      "d": 241.93537500000093,
      "v": 83
    },
    {
      "midi": 85,
      "hit": false,
      "t": 50967.71899999996,
      "d": 241.93537500000093,
      "v": 79
    },
    {
      "midi": 75,
      "hit": false,
      "t": 51263.41779166662,
      "d": 268.8170833333352,
      "v": 86
    },
    {
      "midi": 87,
      "hit": false,
      "t": 51290.29949999996,
      "d": 268.8170833333352,
      "v": 65
    },
    {
      "midi": 54,
      "hit": false,
      "t": 51585.99829166663,
      "d": 564.5158749999973,
      "v": 91
    },
    {
      "midi": 82,
      "hit": false,
      "t": 51585.99829166663,
      "d": 1827.9561666666632,
      "v": 67
    },
    {
      "midi": 70,
      "hit": false,
      "t": 51585.99829166663,
      "d": 2150.5366666666596,
      "v": 83
    },
    {
      "midi": 58,
      "hit": false,
      "t": 52258.040999999954,
      "d": 1552.4186562499963,
      "v": 88
    },
    {
      "midi": 54,
      "hit": false,
      "t": 52258.040999999954,
      "d": 1599.461645833333,
      "v": 69
    },
    {
      "midi": 61,
      "hit": false,
      "t": 52258.040999999954,
      "d": 1747.3110416666677,
      "v": 81
    },
    {
      "midi": 66,
      "hit": false,
      "t": 52258.040999999954,
      "d": 1801.0744583333362,
      "v": 76
    },
    {
      "midi": 65,
      "hit": false,
      "t": 54811.80329166662,
      "d": 1149.1930312499971,
      "v": 67
    },
    {
      "midi": 56,
      "hit": false,
      "t": 54838.684999999954,
      "d": 638.4405729166683,
      "v": 79
    },
    {
      "midi": 61,
      "hit": false,
      "t": 54838.684999999954,
      "d": 961.0210729166647,
      "v": 76
    },
    {
      "midi": 56,
      "hit": false,
      "t": 55483.845999999954,
      "d": 799.7308229166592,
      "v": 71
    },
    {
      "midi": 61,
      "hit": false,
      "t": 55806.42649999995,
      "d": 638.440572916661,
      "v": 73
    },
    {
      "midi": 65,
      "hit": false,
      "t": 55967.71674999995,
      "d": 752.6878333333298,
      "v": 72
    },
    {
      "midi": 56,
      "hit": false,
      "t": 56290.297249999945,
      "d": 430.1073333333334,
      "v": 71
    },
    {
      "midi": 61,
      "hit": false,
      "t": 56451.58749999994,
      "d": 268.8170833333352,
      "v": 73
    },
    {
      "midi": 65,
      "hit": false,
      "t": 73548.35399999995,
      "d": 268.8170833333279,
      "v": 93
    },
    {
      "midi": 66,
      "hit": false,
      "t": 73870.93449999994,
      "d": 241.93537499998638,
      "v": 86
    },
    {
      "midi": 65,
      "hit": false,
      "t": 73897.81620833327,
      "d": 80.64512499999546,
      "v": 47
    },
    {
      "midi": 68,
      "hit": false,
      "t": 74193.51499999993,
      "d": 268.8170833333279,
      "v": 86
    },
    {
      "midi": 60,
      "hit": false,
      "t": 74489.21379166658,
      "d": 322.5804999999964,
      "v": 80
    },
    {
      "midi": 61,
      "hit": false,
      "t": 74811.79429166658,
      "d": 483.87075000000186,
      "v": 83
    },
    {
      "midi": 61,
      "hit": false,
      "t": 75456.95529166659,
      "d": 1283.6015729166684,
      "v": 88
    },
    {
      "midi": 65,
      "hit": false,
      "t": 75456.95529166659,
      "d": 1283.6015729166684,
      "v": 89
    },
    {
      "midi": 56,
      "hit": false,
      "t": 75483.83699999991,
      "d": 477.1503229166701,
      "v": 86
    },
    {
      "midi": 56,
      "hit": false,
      "t": 76424.69679166659,
      "d": 315.86007291666465,
      "v": 63
    },
    {
      "midi": 61,
      "hit": false,
      "t": 76747.27729166659,
      "d": 1176.0747395833168,
      "v": 83
    },
    {
      "midi": 65,
      "hit": false,
      "t": 76747.27729166659,
      "d": 1176.0747395833168,
      "v": 83
    },
    {
      "midi": 56,
      "hit": false,
      "t": 76774.15899999991,
      "d": 638.440572916661,
      "v": 71
    },
    {
      "midi": 56,
      "hit": false,
      "t": 77419.3199999999,
      "d": 504.0320312499971,
      "v": 86
    },
    {
      "midi": 56,
      "hit": false,
      "t": 78037.59929166657,
      "d": 497.31160416666535,
      "v": 81
    },
    {
      "midi": 60,
      "hit": false,
      "t": 78037.59929166657,
      "d": 618.2792916666658,
      "v": 83
    },
    {
      "midi": 63,
      "hit": false,
      "t": 78037.59929166657,
      "d": 618.2792916666658,
      "v": 86
    },
    {
      "midi": 56,
      "hit": false,
      "t": 78709.6419999999,
      "d": 288.9783645833377,
      "v": 79
    },
    {
      "midi": 56,
      "hit": false,
      "t": 79005.34079166657,
      "d": 591.3975833333243,
      "v": 54
    },
    {
      "midi": 63,
      "hit": false,
      "t": 79032.2224999999,
      "d": 940.8597916666622,
      "v": 67
    },
    {
      "midi": 60,
      "hit": false,
      "t": 79032.2224999999,
      "d": 961.0210729166574,
      "v": 67
    },
    {
      "midi": 56,
      "hit": false,
      "t": 79677.3834999999,
      "d": 342.7417812499916,
      "v": 76
    },
    {
      "midi": 54,
      "hit": false,
      "t": 79973.08229166656,
      "d": 510.75245833332883,
      "v": 96
    },
    {
      "midi": 54,
      "hit": false,
      "t": 80618.24329166656,
      "d": 456.98904166666034,
      "v": 79
    },
    {
      "midi": 59,
      "hit": false,
      "t": 80618.24329166656,
      "d": 1196.2360208333266,
      "v": 91
    },
    {
      "midi": 63,
      "hit": false,
      "t": 80618.24329166656,
      "d": 1256.7198645833269,
      "v": 88
    },
    {
      "midi": 54,
      "hit": false,
      "t": 81290.28599999988,
      "d": 571.2363020833436,
      "v": 83
    },
    {
      "midi": 63,
      "hit": false,
      "t": 81935.44699999988,
      "d": 557.7954479166656,
      "v": 86
    },
    {
      "midi": 54,
      "hit": false,
      "t": 81962.32870833321,
      "d": 530.9137395833386,
      "v": 38
    },
    {
      "midi": 59,
      "hit": false,
      "t": 81962.32870833321,
      "d": 530.9137395833386,
      "v": 83
    },
    {
      "midi": 61,
      "hit": false,
      "t": 82580.60799999988,
      "d": 268.8170833333279,
      "v": 86
    },
    {
      "midi": 66,
      "hit": false,
      "t": 82580.60799999988,
      "d": 403.22562499999185,
      "v": 93
    },
    {
      "midi": 58,
      "hit": false,
      "t": 82580.60799999988,
      "d": 483.8707499999873,
      "v": 81
    },
    {
      "midi": 65,
      "hit": false,
      "t": 82903.18849999987,
      "d": 268.8170833333279,
      "v": 87
    },
    {
      "midi": 61,
      "hit": false,
      "t": 83198.88729166653,
      "d": 107.52683333333698,
      "v": 76
    },
    {
      "midi": 61,
      "hit": false,
      "t": 83548.34949999987,
      "d": 1330.6445625000051,
      "v": 91
    },
    {
      "midi": 56,
      "hit": false,
      "t": 83548.34949999987,
      "d": 1370.9671250000101,
      "v": 91
    },
    {
      "midi": 65,
      "hit": false,
      "t": 83548.34949999987,
      "d": 1491.9348125000106,
      "v": 89
    },
    {
      "midi": 70,
      "hit": false,
      "t": 84220.3922083332,
      "d": 107.52683333333698,
      "v": 79
    },
    {
      "midi": 73,
      "hit": false,
      "t": 84408.56416666653,
      "d": 80.64512499999546,
      "v": 65
    },
    {
      "midi": 75,
      "hit": false,
      "t": 84542.9727083332,
      "d": 557.7954479166801,
      "v": 91
    },
    {
      "midi": 73,
      "hit": false,
      "t": 84704.2629583332,
      "d": 396.50519791667466,
      "v": 71
    },
    {
      "midi": 70,
      "hit": false,
      "t": 84865.55320833321,
      "d": 235.2149479166692,
      "v": 63
    },
    {
      "midi": 65,
      "hit": false,
      "t": 85161.25199999988,
      "d": 2170.697947916662,
      "v": 93
    },
    {
      "midi": 61,
      "hit": false,
      "t": 85161.25199999988,
      "d": 2231.1817916666623,
      "v": 93
    },
    {
      "midi": 58,
      "hit": false,
      "t": 85161.25199999988,
      "d": 2291.6656354166626,
      "v": 83
    },
    {
      "midi": 65,
      "hit": false,
      "t": 87715.01429166654,
      "d": 2231.181791666633,
      "v": 87
    },
    {
      "midi": 61,
      "hit": false,
      "t": 87741.89599999986,
      "d": 2204.3000833333062,
      "v": 88
    },
    {
      "midi": 68,
      "hit": false,
      "t": 87741.89599999986,
      "d": 2204.3000833333062,
      "v": 79
    },
    {
      "midi": 82,
      "hit": false,
      "t": 88682.75579166652,
      "d": 134.40854166666395,
      "v": 91
    },
    {
      "midi": 94,
      "hit": false,
      "t": 88682.75579166652,
      "d": 134.40854166666395,
      "v": 88
    },
    {
      "midi": 92,
      "hit": false,
      "t": 88870.92774999986,
      "d": 80.64512499999546,
      "v": 81
    },
    {
      "midi": 80,
      "hit": false,
      "t": 88870.92774999986,
      "d": 107.52683333332243,
      "v": 91
    },
    {
      "midi": 77,
      "hit": false,
      "t": 89193.50824999984,
      "d": 107.52683333333698,
      "v": 67
    },
    {
      "midi": 89,
      "hit": false,
      "t": 89193.50824999984,
      "d": 107.52683333333698,
      "v": 70
    },
    {
      "midi": 87,
      "hit": false,
      "t": 89354.79849999984,
      "d": 107.52683333333698,
      "v": 79
    },
    {
      "midi": 75,
      "hit": false,
      "t": 89354.79849999984,
      "d": 134.40854166666395,
      "v": 81
    },
    {
      "midi": 73,
      "hit": false,
      "t": 89677.37899999984,
      "d": 241.93537500000093,
      "v": 76
    },
    {
      "midi": 85,
      "hit": false,
      "t": 89677.37899999984,
      "d": 241.93537500000093,
      "v": 76
    },
    {
      "midi": 75,
      "hit": false,
      "t": 89973.0777916665,
      "d": 295.69879166665487,
      "v": 81
    },
    {
      "midi": 87,
      "hit": false,
      "t": 89999.95949999982,
      "d": 268.8170833333279,
      "v": 56
    },
    {
      "midi": 54,
      "hit": false,
      "t": 90295.65829166648,
      "d": 2493.2784479166585,
      "v": 83
    },
    {
      "midi": 58,
      "hit": false,
      "t": 90295.65829166648,
      "d": 2493.2784479166585,
      "v": 96
    },
    {
      "midi": 70,
      "hit": false,
      "t": 90295.65829166648,
      "d": 2493.2784479166585,
      "v": 88
    },
    {
      "midi": 82,
      "hit": false,
      "t": 90295.65829166648,
      "d": 2493.2784479166585,
      "v": 61
    },
    {
      "midi": 61,
      "hit": false,
      "t": 90322.5399999998,
      "d": 2466.3967395833315,
      "v": 73
    },
    {
      "midi": 66,
      "hit": false,
      "t": 90349.42170833313,
      "d": 2439.5150312500045,
      "v": 69
    },
    {
      "midi": 85,
      "hit": false,
      "t": 93225.7644999998,
      "d": 188.17195833333244,
      "v": 91
    },
    {
      "midi": 82,
      "hit": false,
      "t": 93387.0547499998,
      "d": 154.56982291665918,
      "v": 88
    },
    {
      "midi": 65,
      "hit": false,
      "t": 93548.3449999998,
      "d": 571.2363020833291,
      "v": 67
    },
    {
      "midi": 61,
      "hit": false,
      "t": 93548.3449999998,
      "d": 584.6771562499925,
      "v": 73
    },
    {
      "midi": 80,
      "hit": false,
      "t": 93870.9254999998,
      "d": 315.86007291666465,
      "v": 88
    },
    {
      "midi": 77,
      "hit": false,
      "t": 94059.09745833313,
      "d": 188.17195833333244,
      "v": 87
    },
    {
      "midi": 65,
      "hit": false,
      "t": 94220.38770833313,
      "d": 215.0536666666594,
      "v": 93
    },
    {
      "midi": 66,
      "hit": false,
      "t": 94489.20479166646,
      "d": 241.93537500000093,
      "v": 71
    },
    {
      "midi": 75,
      "hit": false,
      "t": 94542.96820833313,
      "d": 241.93537500000093,
      "v": 83
    },
    {
      "midi": 73,
      "hit": false,
      "t": 94838.6669999998,
      "d": 262.09665624999616,
      "v": 71
    },
    {
      "midi": 68,
      "hit": false,
      "t": 94838.6669999998,
      "d": 288.9783645833231,
      "v": 88
    },
    {
      "midi": 60,
      "hit": false,
      "t": 95161.2474999998,
      "d": 295.6987916666694,
      "v": 76
    },
    {
      "midi": 75,
      "hit": false,
      "t": 95161.2474999998,
      "d": 295.6987916666694,
      "v": 86
    },
    {
      "midi": 61,
      "hit": false,
      "t": 95483.82799999979,
      "d": 537.6341666666704,
      "v": 83
    },
    {
      "midi": 73,
      "hit": false,
      "t": 95483.82799999979,
      "d": 940.8597916666622,
      "v": 59
    },
    {
      "midi": 56,
      "hit": false,
      "t": 96102.10729166646,
      "d": 961.0210729166574,
      "v": 81
    },
    {
      "midi": 61,
      "hit": false,
      "t": 96102.10729166646,
      "d": 1162.6338854166534,
      "v": 86
    },
    {
      "midi": 65,
      "hit": false,
      "t": 96102.10729166646,
      "d": 1196.2360208333266,
      "v": 80
    },
    {
      "midi": 56,
      "hit": false,
      "t": 97069.84879166645,
      "d": 342.74178125000617,
      "v": 58
    },
    {
      "midi": 56,
      "hit": false,
      "t": 97419.31099999978,
      "d": 1122.311322916663,
      "v": 61
    },
    {
      "midi": 61,
      "hit": false,
      "t": 97419.31099999978,
      "d": 1122.311322916663,
      "v": 69
    },
    {
      "midi": 65,
      "hit": false,
      "t": 97419.31099999978,
      "d": 1122.311322916663,
      "v": 70
    },
    {
      "midi": 56,
      "hit": false,
      "t": 98709.63299999978,
      "d": 443.54818749999686,
      "v": 71
    },
    {
      "midi": 60,
      "hit": false,
      "t": 98709.63299999978,
      "d": 1108.8704687499994,
      "v": 72
    },
    {
      "midi": 63,
      "hit": false,
      "t": 98709.63299999978,
      "d": 1229.8381562499999,
      "v": 86
    },
    {
      "midi": 68,
      "hit": false,
      "t": 98709.63299999978,
      "d": 1740.5906145833433,
      "v": 79
    },
    {
      "midi": 56,
      "hit": false,
      "t": 99327.91229166645,
      "d": 598.1180104166706,
      "v": 59
    },
    {
      "midi": 56,
      "hit": false,
      "t": 99973.07329166646,
      "d": 571.2363020833436,
      "v": 54
    },
    {
      "midi": 60,
      "hit": false,
      "t": 99973.07329166646,
      "d": 618.2792916666804,
      "v": 64
    },
    {
      "midi": 63,
      "hit": false,
      "t": 99973.07329166646,
      "d": 638.4405729166756,
      "v": 65
    },
    {
      "midi": 54,
      "hit": false,
      "t": 100645.1159999998,
      "d": 80.64512499999546,
      "v": 65
    },
    {
      "midi": 54,
      "hit": false,
      "t": 101290.2769999998,
      "d": 456.98904166666034,
      "v": 69
    },
    {
      "midi": 59,
      "hit": false,
      "t": 101290.2769999998,
      "d": 860.2146666666522,
      "v": 86
    },
    {
      "midi": 63,
      "hit": false,
      "t": 101290.2769999998,
      "d": 1229.8381562499853,
      "v": 86
    },
    {
      "midi": 54,
      "hit": false,
      "t": 101935.43799999979,
      "d": 1202.9564479166584,
      "v": 67
    },
    {
      "midi": 59,
      "hit": false,
      "t": 102258.01849999979,
      "d": 342.7417812499916,
      "v": 79
    },
    {
      "midi": 63,
      "hit": false,
      "t": 102580.59899999978,
      "d": 557.7954479166656,
      "v": 83
    },
    {
      "midi": 59,
      "hit": false,
      "t": 102607.48070833311,
      "d": 530.9137395833386,
      "v": 20
    },
    {
      "midi": 58,
      "hit": false,
      "t": 102903.17949999978,
      "d": 235.2149479166692,
      "v": 17
    },
    {
      "midi": 61,
      "hit": false,
      "t": 103198.87829166645,
      "d": 295.6987916666694,
      "v": 83
    },
    {
      "midi": 66,
      "hit": false,
      "t": 103198.87829166645,
      "d": 295.6987916666694,
      "v": 91
    },
    {
      "midi": 58,
      "hit": false,
      "t": 103198.87829166645,
      "d": 510.7524583333434,
      "v": 79
    },
    {
      "midi": 65,
      "hit": false,
      "t": 103548.34049999979,
      "d": 309.1396458333329,
      "v": 87
    },
    {
      "midi": 61,
      "hit": false,
      "t": 103844.03929166646,
      "d": 107.52683333333698,
      "v": 76
    },
    {
      "midi": 56,
      "hit": false,
      "t": 104193.5014999998,
      "d": 1142.4726041666436,
      "v": 83
    },
    {
      "midi": 61,
      "hit": false,
      "t": 104193.5014999998,
      "d": 1451.612249999962,
      "v": 88
    },
    {
      "midi": 65,
      "hit": false,
      "t": 104193.5014999998,
      "d": 1451.612249999962,
      "v": 89
    },
    {
      "midi": 70,
      "hit": false,
      "t": 104838.66249999979,
      "d": 107.52683333332243,
      "v": 91
    },
    {
      "midi": 77,
      "hit": false,
      "t": 104865.54420833311,
      "d": 80.64512499999546,
      "v": 97
    },
    {
      "midi": 73,
      "hit": false,
      "t": 105026.8344583331,
      "d": 53.76341666666849,
      "v": 46
    },
    {
      "midi": 75,
      "hit": false,
      "t": 105026.8344583331,
      "d": 80.64512499999546,
      "v": 86
    },
    {
      "midi": 70,
      "hit": false,
      "t": 105483.82349999977,
      "d": 134.40854166666395,
      "v": 58
    },
    {
      "midi": 58,
      "hit": false,
      "t": 105698.87716666643,
      "d": 2358.8699062499945,
      "v": 53
    },
    {
      "midi": 61,
      "hit": false,
      "t": 105779.52229166642,
      "d": 2170.697947916662,
      "v": 81
    },
    {
      "midi": 75,
      "hit": false,
      "t": 105806.40399999975,
      "d": 107.52683333333698,
      "v": 91
    },
    {
      "midi": 70,
      "hit": false,
      "t": 105806.40399999975,
      "d": 1337.3649895833369,
      "v": 86
    },
    {
      "midi": 65,
      "hit": false,
      "t": 105806.40399999975,
      "d": 2090.0528229166666,
      "v": 89
    },
    {
      "midi": 77,
      "hit": false,
      "t": 105967.69424999975,
      "d": 1881.7195833333244,
      "v": 70
    },
    {
      "midi": 65,
      "hit": false,
      "t": 108360.16629166642,
      "d": 2036.289406249969,
      "v": 93
    },
    {
      "midi": 61,
      "hit": false,
      "t": 108387.04799999975,
      "d": 2251.343072916643,
      "v": 91
    },
    {
      "midi": 68,
      "hit": false,
      "t": 109032.20899999974,
      "d": 1478.493958333318,
      "v": 81
    },
    {
      "midi": 82,
      "hit": false,
      "t": 109354.78949999974,
      "d": 188.17195833333244,
      "v": 98
    },
    {
      "midi": 94,
      "hit": false,
      "t": 109381.67120833306,
      "d": 107.52683333333698,
      "v": 91
    },
    {
      "midi": 80,
      "hit": false,
      "t": 109542.96145833307,
      "d": 94.08597916665894,
      "v": 98
    },
    {
      "midi": 92,
      "hit": false,
      "t": 109569.8431666664,
      "d": 80.64512499999546,
      "v": 83
    },
    {
      "midi": 77,
      "hit": false,
      "t": 109811.7785416664,
      "d": 114.24726041665417,
      "v": 83
    },
    {
      "midi": 89,
      "hit": false,
      "t": 109838.66024999972,
      "d": 127.68811458333221,
      "v": 87
    },
    {
      "midi": 75,
      "hit": false,
      "t": 109999.95049999973,
      "d": 107.52683333333698,
      "v": 88
    },
    {
      "midi": 87,
      "hit": false,
      "t": 109999.95049999973,
      "d": 107.52683333333698,
      "v": 76
    },
    {
      "midi": 73,
      "hit": false,
      "t": 110322.53099999973,
      "d": 241.93537500000093,
      "v": 83
    },
    {
      "midi": 85,
      "hit": false,
      "t": 110322.53099999973,
      "d": 241.93537500000093,
      "v": 79
    },
    {
      "midi": 75,
      "hit": false,
      "t": 110618.2297916664,
      "d": 268.8170833333279,
      "v": 86
    },
    {
      "midi": 87,
      "hit": false,
      "t": 110645.11149999972,
      "d": 268.8170833333279,
      "v": 65
    },
    {
      "midi": 54,
      "hit": false,
      "t": 110940.81029166638,
      "d": 564.5158749999973,
      "v": 91
    },
    {
      "midi": 82,
      "hit": false,
      "t": 110940.81029166638,
      "d": 1827.9561666666705,
      "v": 67
    },
    {
      "midi": 70,
      "hit": false,
      "t": 110940.81029166638,
      "d": 2022.8485520833347,
      "v": 83
    },
    {
      "midi": 58,
      "hit": false,
      "t": 111612.85299999971,
      "d": 1458.3326770833373,
      "v": 88
    },
    {
      "midi": 54,
      "hit": false,
      "t": 111612.85299999971,
      "d": 1505.375666666674,
      "v": 69
    },
    {
      "midi": 61,
      "hit": false,
      "t": 111612.85299999971,
      "d": 1747.311041666675,
      "v": 81
    },
    {
      "midi": 66,
      "hit": false,
      "t": 111612.85299999971,
      "d": 1801.0744583333435,
      "v": 76
    },
    {
      "midi": 65,
      "hit": false,
      "t": 114166.61529166639,
      "d": 1149.1930312499899,
      "v": 67
    },
    {
      "midi": 56,
      "hit": false,
      "t": 114193.49699999971,
      "d": 638.440572916661,
      "v": 79
    },
    {
      "midi": 61,
      "hit": false,
      "t": 114193.49699999971,
      "d": 961.0210729166574,
      "v": 76
    },
    {
      "midi": 56,
      "hit": false,
      "t": 114838.6579999997,
      "d": 799.7308229166665,
      "v": 71
    },
    {
      "midi": 61,
      "hit": false,
      "t": 115161.2384999997,
      "d": 638.4405729166756,
      "v": 73
    },
    {
      "midi": 65,
      "hit": false,
      "t": 115322.5287499997,
      "d": 752.6878333333298,
      "v": 72
    },
    {
      "midi": 56,
      "hit": false,
      "t": 115645.1092499997,
      "d": 430.1073333333334,
      "v": 71
    },
    {
      "midi": 61,
      "hit": false,
      "t": 115806.39949999971,
      "d": 268.8170833333279,
      "v": 73
    },
    {
      "midi": 65,
      "hit": false,
      "t": 135483.8099999997,
      "d": 268.8170833333279,
      "v": 93
    },
    {
      "midi": 66,
      "hit": false,
      "t": 135806.3904999997,
      "d": 241.93537500000093,
      "v": 86
    },
    {
      "midi": 65,
      "hit": false,
      "t": 135833.27220833302,
      "d": 80.64512500001001,
      "v": 47
    },
    {
      "midi": 68,
      "hit": false,
      "t": 136128.9709999997,
      "d": 268.8170833333279,
      "v": 86
    },
    {
      "midi": 60,
      "hit": false,
      "t": 136424.66979166635,
      "d": 322.58050000001094,
      "v": 80
    },
    {
      "midi": 61,
      "hit": false,
      "t": 136747.25029166637,
      "d": 483.87075000000186,
      "v": 83
    },
    {
      "midi": 61,
      "hit": false,
      "t": 137392.41129166636,
      "d": 1283.6015729166684,
      "v": 88
    },
    {
      "midi": 65,
      "hit": false,
      "t": 137392.41129166636,
      "d": 1283.6015729166684,
      "v": 89
    },
    {
      "midi": 56,
      "hit": false,
      "t": 137419.29299999968,
      "d": 470.4298958333384,
      "v": 86
    },
    {
      "midi": 56,
      "hit": false,
      "t": 138360.15279166636,
      "d": 342.7417812500207,
      "v": 63
    },
    {
      "midi": 61,
      "hit": false,
      "t": 138682.73329166637,
      "d": 1176.0747395833896,
      "v": 83
    },
    {
      "midi": 65,
      "hit": false,
      "t": 138682.73329166637,
      "d": 1176.0747395833896,
      "v": 83
    },
    {
      "midi": 56,
      "hit": false,
      "t": 138709.61499999973,
      "d": 638.4405729166756,
      "v": 71
    },
    {
      "midi": 56,
      "hit": false,
      "t": 139354.77599999975,
      "d": 504.03203125001164,
      "v": 86
    },
    {
      "midi": 56,
      "hit": false,
      "t": 139973.05529166642,
      "d": 497.31160416666535,
      "v": 81
    },
    {
      "midi": 60,
      "hit": false,
      "t": 139973.05529166642,
      "d": 618.2792916666658,
      "v": 83
    },
    {
      "midi": 63,
      "hit": false,
      "t": 139973.05529166642,
      "d": 618.2792916666658,
      "v": 86
    },
    {
      "midi": 56,
      "hit": false,
      "t": 140645.09799999974,
      "d": 288.9783645833377,
      "v": 79
    },
    {
      "midi": 56,
      "hit": false,
      "t": 140940.79679166642,
      "d": 564.5158749999828,
      "v": 54
    },
    {
      "midi": 63,
      "hit": false,
      "t": 140967.67849999975,
      "d": 934.1393645833305,
      "v": 67
    },
    {
      "midi": 60,
      "hit": false,
      "t": 140967.67849999975,
      "d": 954.3006458333402,
      "v": 67
    },
    {
      "midi": 56,
      "hit": false,
      "t": 141612.83949999974,
      "d": 342.7417812500207,
      "v": 76
    },
    {
      "midi": 54,
      "hit": false,
      "t": 141908.53829166642,
      "d": 470.4298958333384,
      "v": 96
    },
    {
      "midi": 54,
      "hit": false,
      "t": 142553.69929166642,
      "d": 456.9890416666749,
      "v": 79
    },
    {
      "midi": 63,
      "hit": false,
      "t": 142553.69929166642,
      "d": 1135.752177083341,
      "v": 88
    },
    {
      "midi": 59,
      "hit": false,
      "t": 142553.69929166642,
      "d": 1290.3220000000147,
      "v": 91
    },
    {
      "midi": 54,
      "hit": false,
      "t": 143225.74199999977,
      "d": 618.2792916666658,
      "v": 83
    },
    {
      "midi": 63,
      "hit": false,
      "t": 143870.90299999976,
      "d": 557.7954479166656,
      "v": 86
    },
    {
      "midi": 54,
      "hit": false,
      "t": 143897.78470833309,
      "d": 530.9137395833386,
      "v": 38
    },
    {
      "midi": 59,
      "hit": false,
      "t": 143897.78470833309,
      "d": 530.9137395833386,
      "v": 83
    },
    {
      "midi": 61,
      "hit": false,
      "t": 144516.06399999975,
      "d": 268.8170833333279,
      "v": 86
    },
    {
      "midi": 66,
      "hit": false,
      "t": 144516.06399999975,
      "d": 403.22562499999185,
      "v": 93
    },
    {
      "midi": 58,
      "hit": false,
      "t": 144516.06399999975,
      "d": 483.87075000000186,
      "v": 81
    },
    {
      "midi": 65,
      "hit": false,
      "t": 144838.64449999973,
      "d": 268.817083333357,
      "v": 87
    },
    {
      "midi": 61,
      "hit": false,
      "t": 145134.34329166642,
      "d": 107.52683333333698,
      "v": 76
    },
    {
      "midi": 65,
      "hit": false,
      "t": 145483.80549999975,
      "d": 1330.644562499976,
      "v": 89
    },
    {
      "midi": 61,
      "hit": false,
      "t": 145483.80549999975,
      "d": 1370.9671249999665,
      "v": 91
    },
    {
      "midi": 56,
      "hit": false,
      "t": 145483.80549999975,
      "d": 1404.5692604166397,
      "v": 91
    },
    {
      "midi": 70,
      "hit": false,
      "t": 146155.84820833307,
      "d": 107.52683333333698,
      "v": 79
    },
    {
      "midi": 73,
      "hit": false,
      "t": 146344.02016666642,
      "d": 80.64512500001001,
      "v": 65
    },
    {
      "midi": 75,
      "hit": false,
      "t": 146478.4287083331,
      "d": 557.7954479166365,
      "v": 91
    },
    {
      "midi": 73,
      "hit": false,
      "t": 146639.71895833308,
      "d": 396.50519791664556,
      "v": 71
    },
    {
      "midi": 70,
      "hit": false,
      "t": 146801.00920833307,
      "d": 235.21494791665464,
      "v": 63
    },
    {
      "midi": 65,
      "hit": false,
      "t": 147096.70799999972,
      "d": 2150.5366666666523,
      "v": 93
    },
    {
      "midi": 61,
      "hit": false,
      "t": 147096.70799999972,
      "d": 2211.0205104166525,
      "v": 93
    },
    {
      "midi": 58,
      "hit": false,
      "t": 147096.70799999972,
      "d": 2271.504354166653,
      "v": 83
    },
    {
      "midi": 65,
      "hit": false,
      "t": 149650.47029166637,
      "d": 2002.6872708333249,
      "v": 87
    },
    {
      "midi": 68,
      "hit": false,
      "t": 149677.3519999997,
      "d": 2150.5366666666523,
      "v": 79
    },
    {
      "midi": 61,
      "hit": false,
      "t": 149677.3519999997,
      "d": 2197.579656249989,
      "v": 88
    },
    {
      "midi": 82,
      "hit": false,
      "t": 150618.21179166637,
      "d": 134.40854166666395,
      "v": 91
    },
    {
      "midi": 94,
      "hit": false,
      "t": 150618.21179166637,
      "d": 134.40854166666395,
      "v": 88
    },
    {
      "midi": 92,
      "hit": false,
      "t": 150806.3837499997,
      "d": 80.64512500001001,
      "v": 81
    },
    {
      "midi": 80,
      "hit": false,
      "t": 150806.3837499997,
      "d": 100.80640625001979,
      "v": 91
    },
    {
      "midi": 77,
      "hit": false,
      "t": 151128.9642499997,
      "d": 107.52683333333698,
      "v": 67
    },
    {
      "midi": 89,
      "hit": false,
      "t": 151128.9642499997,
      "d": 107.52683333333698,
      "v": 70
    },
    {
      "midi": 87,
      "hit": false,
      "t": 151290.2544999997,
      "d": 107.52683333333698,
      "v": 79
    },
    {
      "midi": 75,
      "hit": false,
      "t": 151290.2544999997,
      "d": 134.40854166666395,
      "v": 81
    },
    {
      "midi": 73,
      "hit": false,
      "t": 151612.8349999997,
      "d": 241.93537499997183,
      "v": 76
    },
    {
      "midi": 85,
      "hit": false,
      "t": 151612.8349999997,
      "d": 241.93537499997183,
      "v": 76
    },
    {
      "midi": 75,
      "hit": false,
      "t": 151908.53379166636,
      "d": 295.69879166665487,
      "v": 81
    },
    {
      "midi": 87,
      "hit": false,
      "t": 151935.41549999968,
      "d": 268.8170833333279,
      "v": 56
    },
    {
      "midi": 58,
      "hit": false,
      "t": 152231.11429166634,
      "d": 2150.5366666666523,
      "v": 96
    },
    {
      "midi": 82,
      "hit": false,
      "t": 152231.11429166634,
      "d": 2264.7839270833065,
      "v": 61
    },
    {
      "midi": 54,
      "hit": false,
      "t": 152231.11429166634,
      "d": 2325.2677708333067,
      "v": 83
    },
    {
      "midi": 70,
      "hit": false,
      "t": 152231.11429166634,
      "d": 2385.751614583307,
      "v": 88
    },
    {
      "midi": 61,
      "hit": false,
      "t": 152257.99599999966,
      "d": 2379.0311874999898,
      "v": 73
    },
    {
      "midi": 66,
      "hit": false,
      "t": 152284.877708333,
      "d": 2157.2570937499986,
      "v": 69
    },
    {
      "midi": 85,
      "hit": false,
      "t": 155161.22049999965,
      "d": 188.1719583333179,
      "v": 91
    },
    {
      "midi": 82,
      "hit": false,
      "t": 155322.51074999964,
      "d": 154.56982291667373,
      "v": 88
    },
    {
      "midi": 65,
      "hit": false,
      "t": 155483.80099999966,
      "d": 564.5158750000119,
      "v": 67
    },
    {
      "midi": 61,
      "hit": false,
      "t": 155483.80099999966,
      "d": 577.9567291666754,
      "v": 73
    },
    {
      "midi": 80,
      "hit": false,
      "t": 155806.38149999967,
      "d": 315.86007291666465,
      "v": 88
    },
    {
      "midi": 77,
      "hit": false,
      "t": 155994.55345833302,
      "d": 188.1719583333179,
      "v": 87
    },
    {
      "midi": 65,
      "hit": false,
      "t": 156155.843708333,
      "d": 215.05366666667396,
      "v": 93
    },
    {
      "midi": 66,
      "hit": false,
      "t": 156424.66079166633,
      "d": 241.93537500000093,
      "v": 71
    },
    {
      "midi": 75,
      "hit": false,
      "t": 156478.424208333,
      "d": 241.93537500000093,
      "v": 83
    },
    {
      "midi": 68,
      "hit": false,
      "t": 156774.12299999964,
      "d": 255.37622916666442,
      "v": 88
    },
    {
      "midi": 73,
      "hit": false,
      "t": 156774.12299999964,
      "d": 262.0966562500107,
      "v": 71
    },
    {
      "midi": 60,
      "hit": false,
      "t": 157096.70349999965,
      "d": 295.69879166665487,
      "v": 76
    },
    {
      "midi": 75,
      "hit": false,
      "t": 157096.70349999965,
      "d": 295.69879166665487,
      "v": 86
    },
    {
      "midi": 61,
      "hit": false,
      "t": 158037.5632916663,
      "d": 1283.6015729166684,
      "v": 88
    },
    {
      "midi": 65,
      "hit": false,
      "t": 158037.5632916663,
      "d": 1283.6015729166684,
      "v": 89
    },
    {
      "midi": 56,
      "hit": false,
      "t": 158064.44499999963,
      "d": 443.5481875000114,
      "v": 86
    },
    {
      "midi": 56,
      "hit": false,
      "t": 159005.3047916663,
      "d": 342.7417812500207,
      "v": 63
    },
    {
      "midi": 65,
      "hit": false,
      "t": 159327.88529166632,
      "d": 1115.5908958333603,
      "v": 83
    },
    {
      "midi": 61,
      "hit": false,
      "t": 159327.88529166632,
      "d": 1142.4726041667163,
      "v": 83
    },
    {
      "midi": 56,
      "hit": false,
      "t": 159354.76699999967,
      "d": 591.3975833333388,
      "v": 71
    },
    {
      "midi": 56,
      "hit": false,
      "t": 159999.92799999967,
      "d": 450.2686145833577,
      "v": 86
    },
    {
      "midi": 56,
      "hit": false,
      "t": 160618.20729166636,
      "d": 456.9890416666749,
      "v": 81
    },
    {
      "midi": 60,
      "hit": false,
      "t": 160618.20729166636,
      "d": 618.2792916666658,
      "v": 83
    },
    {
      "midi": 63,
      "hit": false,
      "t": 160618.20729166636,
      "d": 618.2792916666658,
      "v": 86
    },
    {
      "midi": 56,
      "hit": false,
      "t": 161290.24999999968,
      "d": 288.9783645833377,
      "v": 79
    },
    {
      "midi": 56,
      "hit": false,
      "t": 161585.94879166636,
      "d": 638.4405729166465,
      "v": 54
    },
    {
      "midi": 60,
      "hit": false,
      "t": 161612.8304999997,
      "d": 853.4942395833205,
      "v": 67
    },
    {
      "midi": 63,
      "hit": false,
      "t": 161612.8304999997,
      "d": 954.3006458333111,
      "v": 67
    },
    {
      "midi": 56,
      "hit": false,
      "t": 162257.99149999968,
      "d": 342.7417812499916,
      "v": 76
    },
    {
      "midi": 54,
      "hit": false,
      "t": 162553.69029166634,
      "d": 490.59117708334816,
      "v": 96
    },
    {
      "midi": 54,
      "hit": false,
      "t": 163198.85129166636,
      "d": 456.9890416666749,
      "v": 79
    },
    {
      "midi": 59,
      "hit": false,
      "t": 163198.85129166636,
      "d": 1209.6768750000047,
      "v": 91
    },
    {
      "midi": 63,
      "hit": false,
      "t": 163198.85129166636,
      "d": 1216.397302083351,
      "v": 88
    },
    {
      "midi": 54,
      "hit": false,
      "t": 163870.8939999997,
      "d": 571.2363020833291,
      "v": 83
    },
    {
      "midi": 63,
      "hit": false,
      "t": 164516.0549999997,
      "d": 557.7954479166656,
      "v": 86
    },
    {
      "midi": 54,
      "hit": false,
      "t": 164542.93670833303,
      "d": 530.9137395833386,
      "v": 38
    },
    {
      "midi": 59,
      "hit": false,
      "t": 164542.93670833303,
      "d": 530.9137395833386,
      "v": 83
    },
    {
      "midi": 61,
      "hit": false,
      "t": 165161.2159999997,
      "d": 268.8170833333279,
      "v": 86
    },
    {
      "midi": 66,
      "hit": false,
      "t": 165161.2159999997,
      "d": 403.22562499999185,
      "v": 93
    },
    {
      "midi": 58,
      "hit": false,
      "t": 165161.2159999997,
      "d": 483.87075000000186,
      "v": 81
    },
    {
      "midi": 65,
      "hit": false,
      "t": 165483.79649999968,
      "d": 268.817083333357,
      "v": 87
    },
    {
      "midi": 61,
      "hit": false,
      "t": 165779.49529166636,
      "d": 107.52683333333698,
      "v": 76
    },
    {
      "midi": 61,
      "hit": false,
      "t": 166128.9574999997,
      "d": 1344.0854166666395,
      "v": 91
    },
    {
      "midi": 56,
      "hit": false,
      "t": 166128.9574999997,
      "d": 1384.40797916663,
      "v": 91
    },
    {
      "midi": 65,
      "hit": false,
      "t": 166128.9574999997,
      "d": 1505.3756666666304,
      "v": 89
    },
    {
      "midi": 70,
      "hit": false,
      "t": 166801.00020833302,
      "d": 107.52683333333698,
      "v": 79
    },
    {
      "midi": 73,
      "hit": false,
      "t": 166989.17216666637,
      "d": 80.64512500001001,
      "v": 65
    },
    {
      "midi": 75,
      "hit": false,
      "t": 167123.58070833303,
      "d": 497.31160416663624,
      "v": 91
    },
    {
      "midi": 73,
      "hit": false,
      "t": 167284.87095833302,
      "d": 396.50519791664556,
      "v": 71
    },
    {
      "midi": 70,
      "hit": false,
      "t": 167446.161208333,
      "d": 235.21494791665464,
      "v": 63
    },
    {
      "midi": 65,
      "hit": false,
      "t": 167741.85999999967,
      "d": 2150.5366666666523,
      "v": 93
    },
    {
      "midi": 61,
      "hit": false,
      "t": 167741.85999999967,
      "d": 2211.0205104166525,
      "v": 93
    },
    {
      "midi": 58,
      "hit": false,
      "t": 167741.85999999967,
      "d": 2271.504354166653,
      "v": 83
    },
    {
      "midi": 65,
      "hit": false,
      "t": 170295.6222916663,
      "d": 2231.1817916666623,
      "v": 87
    },
    {
      "midi": 61,
      "hit": false,
      "t": 170322.50399999964,
      "d": 2204.3000833333354,
      "v": 88
    },
    {
      "midi": 68,
      "hit": false,
      "t": 170322.50399999964,
      "d": 2204.3000833333354,
      "v": 79
    },
    {
      "midi": 82,
      "hit": false,
      "t": 171263.3637916663,
      "d": 134.40854166666395,
      "v": 91
    },
    {
      "midi": 94,
      "hit": false,
      "t": 171263.3637916663,
      "d": 134.40854166666395,
      "v": 88
    },
    {
      "midi": 92,
      "hit": false,
      "t": 171451.53574999963,
      "d": 80.64512500001001,
      "v": 81
    },
    {
      "midi": 80,
      "hit": false,
      "t": 171451.53574999963,
      "d": 94.0859791666735,
      "v": 91
    },
    {
      "midi": 77,
      "hit": false,
      "t": 171774.11624999964,
      "d": 100.80640624999069,
      "v": 67
    },
    {
      "midi": 89,
      "hit": false,
      "t": 171774.11624999964,
      "d": 100.80640624999069,
      "v": 70
    },
    {
      "midi": 87,
      "hit": false,
      "t": 171935.40649999963,
      "d": 107.52683333333698,
      "v": 79
    },
    {
      "midi": 75,
      "hit": false,
      "t": 171935.40649999963,
      "d": 134.40854166666395,
      "v": 81
    },
    {
      "midi": 73,
      "hit": false,
      "t": 172257.98699999964,
      "d": 241.93537500000093,
      "v": 76
    },
    {
      "midi": 85,
      "hit": false,
      "t": 172257.98699999964,
      "d": 241.93537500000093,
      "v": 76
    },
    {
      "midi": 75,
      "hit": false,
      "t": 172553.6857916663,
      "d": 295.69879166665487,
      "v": 81
    },
    {
      "midi": 87,
      "hit": false,
      "t": 172580.56749999963,
      "d": 268.8170833333279,
      "v": 56
    },
    {
      "midi": 82,
      "hit": false,
      "t": 172876.26629166628,
      "d": 2190.8592291666428,
      "v": 61
    },
    {
      "midi": 54,
      "hit": false,
      "t": 172876.26629166628,
      "d": 2251.343072916643,
      "v": 83
    },
    {
      "midi": 70,
      "hit": false,
      "t": 172876.26629166628,
      "d": 2305.106489583297,
      "v": 88
    },
    {
      "midi": 58,
      "hit": false,
      "t": 172876.26629166628,
      "d": 2385.751614583307,
      "v": 96
    },
    {
      "midi": 61,
      "hit": false,
      "t": 172903.1479999996,
      "d": 2298.3860624999797,
      "v": 73
    },
    {
      "midi": 66,
      "hit": false,
      "t": 172930.02970833294,
      "d": 2385.751614583307,
      "v": 69
    },
    {
      "midi": 85,
      "hit": false,
      "t": 175806.37249999956,
      "d": 188.1719583333179,
      "v": 91
    },
    {
      "midi": 82,
      "hit": false,
      "t": 175967.66274999955,
      "d": 147.84939583332743,
      "v": 88
    },
    {
      "midi": 61,
      "hit": false,
      "t": 176128.95299999954,
      "d": 544.3545937500312,
      "v": 73
    },
    {
      "midi": 65,
      "hit": false,
      "t": 176128.95299999954,
      "d": 611.5588645833777,
      "v": 67
    },
    {
      "midi": 80,
      "hit": false,
      "t": 176451.53349999955,
      "d": 315.86007291669375,
      "v": 88
    },
    {
      "midi": 77,
      "hit": false,
      "t": 176639.7054583329,
      "d": 188.171958333347,
      "v": 87
    },
    {
      "midi": 65,
      "hit": false,
      "t": 176800.99570833292,
      "d": 215.05366666667396,
      "v": 93
    },
    {
      "midi": 66,
      "hit": false,
      "t": 177069.81279166625,
      "d": 241.93537500000093,
      "v": 71
    },
    {
      "midi": 75,
      "hit": false,
      "t": 177123.5762083329,
      "d": 241.93537500000093,
      "v": 83
    },
    {
      "midi": 68,
      "hit": false,
      "t": 177419.27499999956,
      "d": 275.5375104166742,
      "v": 88
    },
    {
      "midi": 73,
      "hit": false,
      "t": 177419.27499999956,
      "d": 282.2579375000205,
      "v": 71
    },
    {
      "midi": 60,
      "hit": false,
      "t": 177741.85549999957,
      "d": 295.69879166665487,
      "v": 76
    },
    {
      "midi": 75,
      "hit": false,
      "t": 177741.85549999957,
      "d": 295.69879166665487,
      "v": 86
    },
    {
      "midi": 68,
      "hit": false,
      "t": 178064.436,
      "d": 107.52683333333698,
      "v": 88
    },
    {
      "midi": 77,
      "hit": false,
      "t": 178064.436,
      "d": 107.52683333333698,
      "v": 101
    },
    {
      "midi": 73,
      "hit": false,
      "t": 178064.436,
      "d": 134.40854166666395,
      "v": 98
    },
    {
      "midi": 68,
      "hit": false,
      "t": 178387.0165,
      "d": 107.52683333333698,
      "v": 91
    },
    {
      "midi": 73,
      "hit": false,
      "t": 178387.0165,
      "d": 134.40854166666395,
      "v": 93
    },
    {
      "midi": 78,
      "hit": false,
      "t": 178387.0165,
      "d": 134.40854166666395,
      "v": 101
    },
    {
      "midi": 61,
      "hit": false,
      "t": 178682.71529166622,
      "d": 1169.354312499985,
      "v": 88
    },
    {
      "midi": 65,
      "hit": false,
      "t": 178682.71529166622,
      "d": 1196.236020833312,
      "v": 89
    },
    {
      "midi": 56,
      "hit": false,
      "t": 178709.59699999954,
      "d": 430.1073333333188,
      "v": 86
    },
    {
      "midi": 68,
      "hit": false,
      "t": 178709.597,
      "d": 161.29024999999092,
      "v": 86
    },
    {
      "midi": 77,
      "hit": false,
      "t": 178709.597,
      "d": 288.9783645833377,
      "v": 110
    },
    {
      "midi": 73,
      "hit": false,
      "t": 178709.597,
      "d": 376.3439166666649,
      "v": 93
    },
    {
      "midi": 68,
      "hit": false,
      "t": 179032.17750000002,
      "d": 80.64512499998091,
      "v": 88
    },
    {
      "midi": 68,
      "hit": false,
      "t": 179247.23116666666,
      "d": 80.64512500001001,
      "v": 86
    },
    {
      "midi": 73,
      "hit": false,
      "t": 179247.23116666666,
      "d": 80.64512500001001,
      "v": 96
    },
    {
      "midi": 77,
      "hit": false,
      "t": 179247.23116666666,
      "d": 80.64512500001001,
      "v": 97
    },
    {
      "midi": 68,
      "hit": false,
      "t": 179542.92995833335,
      "d": 80.64512500001001,
      "v": 88
    },
    {
      "midi": 73,
      "hit": false,
      "t": 179542.92995833335,
      "d": 80.64512500001001,
      "v": 93
    },
    {
      "midi": 78,
      "hit": false,
      "t": 179542.92995833335,
      "d": 80.64512500001001,
      "v": 96
    },
    {
      "midi": 56,
      "hit": false,
      "t": 179650.4567916662,
      "d": 342.7417812500207,
      "v": 63
    },
    {
      "midi": 68,
      "hit": false,
      "t": 179865.51045833336,
      "d": 100.80640624999069,
      "v": 91
    },
    {
      "midi": 73,
      "hit": false,
      "t": 179865.51045833336,
      "d": 322.58049999998184,
      "v": 104
    },
    {
      "midi": 77,
      "hit": false,
      "t": 179865.51045833336,
      "d": 483.87074999997276,
      "v": 104
    },
    {
      "midi": 65,
      "hit": false,
      "t": 179973.0372916662,
      "d": 1115.5908958333603,
      "v": 83
    },
    {
      "midi": 61,
      "hit": false,
      "t": 179973.0372916662,
      "d": 1142.4726041667163,
      "v": 83
    },
    {
      "midi": 56,
      "hit": false,
      "t": 179999.91899999956,
      "d": 537.6341666666558,
      "v": 71
    },
    {
      "midi": 68,
      "hit": false,
      "t": 180188.09095833334,
      "d": 268.8170833333279,
      "v": 91
    },
    {
      "midi": 73,
      "hit": false,
      "t": 180322.4995,
      "d": 134.40854166666395,
      "v": 91
    },
    {
      "midi": 56,
      "hit": false,
      "t": 180645.07999999955,
      "d": 450.2686145833577,
      "v": 86
    },
    {
      "midi": 72,
      "hit": false,
      "t": 180645.08000000002,
      "d": 107.52683333333698,
      "v": 104
    },
    {
      "midi": 63,
      "hit": false,
      "t": 180645.08000000002,
      "d": 161.29024999999092,
      "v": 93
    },
    {
      "midi": 68,
      "hit": false,
      "t": 180671.96170833334,
      "d": 107.52683333333698,
      "v": 96
    },
    {
      "midi": 70,
      "hit": false,
      "t": 180967.6605,
      "d": 141.12896875001024,
      "v": 109
    },
    {
      "midi": 63,
      "hit": false,
      "t": 180967.6605,
      "d": 188.171958333347,
      "v": 88
    },
    {
      "midi": 56,
      "hit": false,
      "t": 181263.35929166625,
      "d": 504.03203125001164,
      "v": 81
    },
    {
      "midi": 60,
      "hit": false,
      "t": 181263.35929166625,
      "d": 618.2792916666658,
      "v": 83
    },
    {
      "midi": 63,
      "hit": false,
      "t": 181263.35929166625,
      "d": 618.2792916666658,
      "v": 86
    },
    {
      "midi": 63,
      "hit": false,
      "t": 181290.241,
      "d": 752.6878333333298,
      "v": 96
    },
    {
      "midi": 68,
      "hit": false,
      "t": 181290.241,
      "d": 779.5695416666567,
      "v": 101
    },
    {
      "midi": 56,
      "hit": false,
      "t": 181935.40199999957,
      "d": 288.9783645833377,
      "v": 79
    },
    {
      "midi": 56,
      "hit": false,
      "t": 182231.10079166625,
      "d": 598.118010416656,
      "v": 54
    },
    {
      "midi": 63,
      "hit": false,
      "t": 182231.10079166666,
      "d": 80.64512500001001,
      "v": 88
    },
    {
      "midi": 68,
      "hit": false,
      "t": 182231.10079166666,
      "d": 80.64512500001001,
      "v": 101
    },
    {
      "midi": 63,
      "hit": false,
      "t": 182257.98249999958,
      "d": 907.2576562500035,
      "v": 67
    },
    {
      "midi": 60,
      "hit": false,
      "t": 182257.98249999958,
      "d": 934.1393645833305,
      "v": 67
    },
    {
      "midi": 70,
      "hit": false,
      "t": 182392.39104166668,
      "d": 349.4622083333379,
      "v": 104
    },
    {
      "midi": 63,
      "hit": false,
      "t": 182392.39104166668,
      "d": 564.5158750000119,
      "v": 88
    },
    {
      "midi": 68,
      "hit": false,
      "t": 182741.85325000001,
      "d": 215.05366666667396,
      "v": 88
    },
    {
      "midi": 70,
      "hit": false,
      "t": 182876.26179166668,
      "d": 107.52683333333698,
      "v": 86
    },
    {
      "midi": 56,
      "hit": false,
      "t": 182903.14349999957,
      "d": 342.7417812500207,
      "v": 76
    },
    {
      "midi": 54,
      "hit": false,
      "t": 183198.84229166625,
      "d": 470.4298958333384,
      "v": 96
    },
    {
      "midi": 71,
      "hit": false,
      "t": 183198.8422916667,
      "d": 80.64512500001001,
      "v": 104
    },
    {
      "midi": 75,
      "hit": false,
      "t": 183198.8422916667,
      "d": 80.64512500001001,
      "v": 104
    },
    {
      "midi": 66,
      "hit": false,
      "t": 183198.8422916667,
      "d": 107.52683333333698,
      "v": 96
    },
    {
      "midi": 66,
      "hit": false,
      "t": 183548.30450000003,
      "d": 107.52683333333698,
      "v": 81
    },
    {
      "midi": 71,
      "hit": false,
      "t": 183548.30450000003,
      "d": 107.52683333333698,
      "v": 101
    },
    {
      "midi": 75,
      "hit": false,
      "t": 183548.30450000003,
      "d": 107.52683333333698,
      "v": 101
    },
    {
      "midi": 54,
      "hit": false,
      "t": 183844.00329166625,
      "d": 456.9890416666749,
      "v": 79
    },
    {
      "midi": 59,
      "hit": false,
      "t": 183844.00329166625,
      "d": 1189.515593750024,
      "v": 91
    },
    {
      "midi": 63,
      "hit": false,
      "t": 183844.00329166625,
      "d": 1310.4832812500244,
      "v": 88
    },
    {
      "midi": 66,
      "hit": false,
      "t": 183870.88500000004,
      "d": 107.52683333333698,
      "v": 81
    },
    {
      "midi": 71,
      "hit": false,
      "t": 183870.88500000004,
      "d": 349.4622083333379,
      "v": 101
    },
    {
      "midi": 75,
      "hit": false,
      "t": 183870.88500000004,
      "d": 430.1073333333479,
      "v": 109
    },
    {
      "midi": 66,
      "hit": false,
      "t": 184193.46550000005,
      "d": 241.93537500000093,
      "v": 88
    },
    {
      "midi": 71,
      "hit": false,
      "t": 184354.75575000004,
      "d": 107.52683333333698,
      "v": 96
    },
    {
      "midi": 54,
      "hit": false,
      "t": 184516.0459999996,
      "d": 564.5158750000119,
      "v": 83
    },
    {
      "midi": 66,
      "hit": false,
      "t": 184677.33625000005,
      "d": 107.52683333333698,
      "v": 83
    },
    {
      "midi": 71,
      "hit": false,
      "t": 184704.21795833338,
      "d": 80.64512500001001,
      "v": 98
    },
    {
      "midi": 75,
      "hit": false,
      "t": 184704.21795833338,
      "d": 80.64512500001001,
      "v": 104
    },
    {
      "midi": 66,
      "hit": false,
      "t": 184999.91675000006,
      "d": 349.4622083333088,
      "v": 88
    },
    {
      "midi": 71,
      "hit": false,
      "t": 185026.7984583334,
      "d": 26.88170833332697,
      "v": 91
    },
    {
      "midi": 75,
      "hit": false,
      "t": 185026.7984583334,
      "d": 537.6341666666558,
      "v": 109
    },
    {
      "midi": 63,
      "hit": false,
      "t": 185161.20699999962,
      "d": 557.7954479166656,
      "v": 86
    },
    {
      "midi": 54,
      "hit": false,
      "t": 185188.08870833294,
      "d": 530.9137395833386,
      "v": 38
    },
    {
      "midi": 59,
      "hit": false,
      "t": 185188.08870833294,
      "d": 530.9137395833386,
      "v": 83
    },
    {
      "midi": 71,
      "hit": false,
      "t": 185322.49725000004,
      "d": 268.8170833333279,
      "v": 86
    },
    {
      "midi": 66,
      "hit": false,
      "t": 185483.78750000003,
      "d": 403.22562499999185,
      "v": 83
    },
    {
      "midi": 69,
      "hit": false,
      "t": 185779.48629166672,
      "d": 53.76341666665394,
      "v": 97
    },
    {
      "midi": 61,
      "hit": false,
      "t": 185806.3679999996,
      "d": 268.8170833333279,
      "v": 86
    },
    {
      "midi": 66,
      "hit": false,
      "t": 185806.3679999996,
      "d": 403.22562499999185,
      "v": 93
    },
    {
      "midi": 58,
      "hit": false,
      "t": 185806.3679999996,
      "d": 483.87075000000186,
      "v": 81
    },
    {
      "midi": 70,
      "hit": false,
      "t": 185806.36800000005,
      "d": 430.1073333333188,
      "v": 104
    },
    {
      "midi": 65,
      "hit": false,
      "t": 186128.9484999996,
      "d": 268.817083333357,
      "v": 87
    },
    {
      "midi": 73,
      "hit": false,
      "t": 186128.94850000003,
      "d": 80.64512500001001,
      "v": 63
    },
    {
      "midi": 66,
      "hit": false,
      "t": 186128.94850000003,
      "d": 403.22562500002095,
      "v": 98
    },
    {
      "midi": 61,
      "hit": false,
      "t": 186424.64729166628,
      "d": 107.52683333333698,
      "v": 76
    },
    {
      "midi": 70,
      "hit": false,
      "t": 186451.52900000004,
      "d": 80.64512500001001,
      "v": 98
    },
    {
      "midi": 65,
      "hit": false,
      "t": 186774.1094999996,
      "d": 1404.5692604166397,
      "v": 89
    },
    {
      "midi": 61,
      "hit": false,
      "t": 186774.1094999996,
      "d": 1438.171395833313,
      "v": 91
    },
    {
      "midi": 56,
      "hit": false,
      "t": 186774.1094999996,
      "d": 1478.4939583333035,
      "v": 91
    },
    {
      "midi": 61,
      "hit": false,
      "t": 186774.10950000005,
      "d": 456.9890416666458,
      "v": 101
    },
    {
      "midi": 68,
      "hit": false,
      "t": 186774.10950000005,
      "d": 752.6878333333298,
      "v": 98
    },
    {
      "midi": 65,
      "hit": false,
      "t": 186800.99120833338,
      "d": 611.5588645833195,
      "v": 110
    },
    {
      "midi": 61,
      "hit": false,
      "t": 187419.27050000004,
      "d": 107.52683333333698,
      "v": 83
    },
    {
      "midi": 70,
      "hit": false,
      "t": 187446.15220833293,
      "d": 107.52683333333698,
      "v": 79
    },
    {
      "midi": 63,
      "hit": false,
      "t": 187607.4424583334,
      "d": 147.84939583332743,
      "v": 93
    },
    {
      "midi": 65,
      "hit": false,
      "t": 187607.4424583334,
      "d": 295.69879166665487,
      "v": 97
    },
    {
      "midi": 68,
      "hit": false,
      "t": 187607.4424583334,
      "d": 423.3869062499725,
      "v": 96
    },
    {
      "midi": 73,
      "hit": false,
      "t": 187634.32416666628,
      "d": 80.64512500001001,
      "v": 65
    },
    {
      "midi": 75,
      "hit": false,
      "t": 187768.73270833294,
      "d": 557.7954479166365,
      "v": 91
    },
    {
      "midi": 73,
      "hit": false,
      "t": 187930.02295833293,
      "d": 396.50519791664556,
      "v": 71
    },
    {
      "midi": 61,
      "hit": false,
      "t": 187930.02295833337,
      "d": 215.05366666664486,
      "v": 98
    },
    {
      "midi": 65,
      "hit": false,
      "t": 188064.43150000004,
      "d": 53.76341666665394,
      "v": 97
    },
    {
      "midi": 70,
      "hit": false,
      "t": 188091.31320833293,
      "d": 235.21494791665464,
      "v": 63
    },
    {
      "midi": 61,
      "hit": false,
      "t": 188387.01199999958,
      "d": 2150.5366666666523,
      "v": 93
    },
    {
      "midi": 58,
      "hit": false,
      "t": 188387.01199999958,
      "d": 2211.0205104166525,
      "v": 83
    },
    {
      "midi": 65,
      "hit": false,
      "t": 188387.01199999958,
      "d": 2405.9128958333167,
      "v": 93
    },
    {
      "midi": 65,
      "hit": false,
      "t": 190940.77429166622,
      "d": 2231.1817916666623,
      "v": 87
    },
    {
      "midi": 61,
      "hit": false,
      "t": 190967.65599999955,
      "d": 2204.3000833333354,
      "v": 88
    },
    {
      "midi": 68,
      "hit": false,
      "t": 190967.65599999955,
      "d": 2204.3000833333354,
      "v": 79
    },
    {
      "midi": 82,
      "hit": false,
      "t": 191908.51579166623,
      "d": 134.40854166666395,
      "v": 91
    },
    {
      "midi": 94,
      "hit": false,
      "t": 191908.51579166623,
      "d": 134.40854166666395,
      "v": 88
    },
    {
      "midi": 92,
      "hit": false,
      "t": 192096.68774999955,
      "d": 80.64512500001001,
      "v": 81
    },
    {
      "midi": 80,
      "hit": false,
      "t": 192096.68774999955,
      "d": 100.80640625001979,
      "v": 91
    },
    {
      "midi": 77,
      "hit": false,
      "t": 192419.26824999956,
      "d": 100.80640624999069,
      "v": 67
    },
    {
      "midi": 89,
      "hit": false,
      "t": 192419.26824999956,
      "d": 100.80640624999069,
      "v": 70
    },
    {
      "midi": 87,
      "hit": false,
      "t": 192580.55849999955,
      "d": 107.52683333333698,
      "v": 79
    },
    {
      "midi": 75,
      "hit": false,
      "t": 192580.55849999955,
      "d": 134.40854166666395,
      "v": 81
    },
    {
      "midi": 73,
      "hit": false,
      "t": 192903.13899999956,
      "d": 241.93537500000093,
      "v": 76
    },
    {
      "midi": 85,
      "hit": false,
      "t": 192903.13899999956,
      "d": 241.93537500000093,
      "v": 76
    },
    {
      "midi": 75,
      "hit": false,
      "t": 193198.8377916662,
      "d": 295.69879166665487,
      "v": 81
    },
    {
      "midi": 87,
      "hit": false,
      "t": 193225.71949999954,
      "d": 268.8170833333279,
      "v": 56
    },
    {
      "midi": 82,
      "hit": false,
      "t": 193521.4182916662,
      "d": 2251.343072916643,
      "v": 61
    },
    {
      "midi": 54,
      "hit": false,
      "t": 193521.4182916662,
      "d": 2305.106489583297,
      "v": 83
    },
    {
      "midi": 70,
      "hit": false,
      "t": 193521.4182916662,
      "d": 2365.590333333297,
      "v": 88
    },
    {
      "midi": 58,
      "hit": false,
      "t": 193521.4182916662,
      "d": 2439.515031249961,
      "v": 96
    },
    {
      "midi": 61,
      "hit": false,
      "t": 193548.29999999952,
      "d": 2358.86990624998,
      "v": 73
    },
    {
      "midi": 66,
      "hit": false,
      "t": 193575.18170833285,
      "d": 2143.816239583335,
      "v": 69
    },
    {
      "midi": 85,
      "hit": false,
      "t": 196451.52449999948,
      "d": 188.1719583333179,
      "v": 91
    },
    {
      "midi": 82,
      "hit": false,
      "t": 196612.81474999947,
      "d": 154.56982291667373,
      "v": 88
    },
    {
      "midi": 65,
      "hit": false,
      "t": 196774.1049999995,
      "d": 544.3545937500312,
      "v": 67
    },
    {
      "midi": 61,
      "hit": false,
      "t": 196774.1049999995,
      "d": 557.7954479166947,
      "v": 73
    },
    {
      "midi": 80,
      "hit": false,
      "t": 197096.6854999995,
      "d": 315.86007291669375,
      "v": 88
    },
    {
      "midi": 77,
      "hit": false,
      "t": 197284.85745833284,
      "d": 188.171958333347,
      "v": 87
    },
    {
      "midi": 65,
      "hit": false,
      "t": 197446.14770833286,
      "d": 215.05366666667396,
      "v": 93
    },
    {
      "midi": 66,
      "hit": false,
      "t": 197714.9647916662,
      "d": 241.93537500000093,
      "v": 71
    },
    {
      "midi": 75,
      "hit": false,
      "t": 197768.72820833285,
      "d": 241.93537500000093,
      "v": 83
    },
    {
      "midi": 68,
      "hit": false,
      "t": 198064.4269999995,
      "d": 275.5375104166742,
      "v": 88
    },
    {
      "midi": 73,
      "hit": false,
      "t": 198064.4269999995,
      "d": 282.2579375000205,
      "v": 71
    },
    {
      "midi": 60,
      "hit": false,
      "t": 198387.0074999995,
      "d": 295.69879166665487,
      "v": 76
    },
    {
      "midi": 75,
      "hit": false,
      "t": 198387.0074999995,
      "d": 295.69879166665487,
      "v": 86
    },
    {
      "midi": 65,
      "hit": false,
      "t": 198709.5879999995,
      "d": 1935.4830000000075,
      "v": 68
    },
    {
      "midi": 68,
      "hit": false,
      "t": 198709.5879999995,
      "d": 1955.6442812500172,
      "v": 89
    },
    {
      "midi": 73,
      "hit": false,
      "t": 198709.5879999995,
      "d": 1955.6442812500172,
      "v": 81
    }
  ]
}