{
  "jsonPath": "Rock/Classic Garage Rock/The Association/windy-millennium-remix-2000.json",
  "path": "Rock\\Classic Garage Rock\\The Association\\Windy (Millennium Remix 2000).mid",
  "name": "Windy (Millennium Remix 2000)",
  "difficulty": "Advanced",
  "bpm": 132.000132000132,
  "notes": [
    {
      "midi": 45,
      "hit": false,
      "t": 1818.18,
      "d": 422.34806249999997,
      "v": 101
    },
    {
      "midi": 48,
      "hit": false,
      "t": 2272.725,
      "d": 251.89368749999994,
      "v": 96
    },
    {
      "midi": 45,
      "hit": false,
      "t": 2499.9975,
      "d": 242.42399999999998,
      "v": 84
    },
    {
      "midi": 43,
      "hit": false,
      "t": 2727.27,
      "d": 446.9692500000001,
      "v": 82
    },
    {
      "midi": 41,
      "hit": false,
      "t": 3181.815,
      "d": 176.13618749999978,
      "v": 82
    },
    {
      "midi": 50,
      "hit": false,
      "t": 3409.0874999999996,
      "d": 210.2270625000001,
      "v": 101
    },
    {
      "midi": 50,
      "hit": false,
      "t": 3863.6324999999997,
      "d": 234.84825,
      "v": 84
    },
    {
      "midi": 48,
      "hit": false,
      "t": 4090.9049999999997,
      "d": 407.19656250000025,
      "v": 96
    },
    {
      "midi": 43,
      "hit": false,
      "t": 4545.45,
      "d": 229.16643750000003,
      "v": 82
    },
    {
      "midi": 45,
      "hit": false,
      "t": 4772.7225,
      "d": 223.48462500000005,
      "v": 101
    },
    {
      "midi": 48,
      "hit": false,
      "t": 4999.995,
      "d": 346.5905625000005,
      "v": 96
    },
    {
      "midi": 45,
      "hit": false,
      "t": 5454.54,
      "d": 439.39350000000013,
      "v": 96
    },
    {
      "midi": 48,
      "hit": false,
      "t": 5909.085,
      "d": 234.84825,
      "v": 96
    },
    {
      "midi": 45,
      "hit": false,
      "t": 6136.3575,
      "d": 189.39375000000018,
      "v": 96
    },
    {
      "midi": 43,
      "hit": false,
      "t": 6363.63,
      "d": 458.33287500000006,
      "v": 72
    },
    {
      "midi": 41,
      "hit": false,
      "t": 6818.175,
      "d": 179.92406250000022,
      "v": 72
    },
    {
      "midi": 50,
      "hit": false,
      "t": 7045.4475,
      "d": 223.48462500000005,
      "v": 96
    },
    {
      "midi": 50,
      "hit": false,
      "t": 7499.9925,
      "d": 265.1512499999999,
      "v": 84
    },
    {
      "midi": 48,
      "hit": false,
      "t": 7727.265,
      "d": 231.06037500000002,
      "v": 101
    },
    {
      "midi": 43,
      "hit": false,
      "t": 8181.81,
      "d": 907.1960625000002,
      "v": 101
    },
    {
      "midi": 57,
      "hit": false,
      "t": 9090.900000000001,
      "d": 445.0753124999992,
      "v": 84
    },
    {
      "midi": 60,
      "hit": false,
      "t": 9545.445000000002,
      "d": 232.95431250000001,
      "v": 82
    },
    {
      "midi": 57,
      "hit": false,
      "t": 9772.7175,
      "d": 206.43918750000012,
      "v": 101
    },
    {
      "midi": 55,
      "hit": false,
      "t": 9999.990000000002,
      "d": 392.0450624999994,
      "v": 96
    },
    {
      "midi": 53,
      "hit": false,
      "t": 10454.535000000002,
      "d": 219.69674999999916,
      "v": 96
    },
    {
      "midi": 62,
      "hit": false,
      "t": 10681.8075,
      "d": 193.18162499999926,
      "v": 84
    },
    {
      "midi": 62,
      "hit": false,
      "t": 11136.3525,
      "d": 278.40881249999984,
      "v": 84
    },
    {
      "midi": 60,
      "hit": false,
      "t": 11363.625,
      "d": 386.36325000000033,
      "v": 101
    },
    {
      "midi": 55,
      "hit": false,
      "t": 11818.17,
      "d": 236.7421875,
      "v": 101
    },
    {
      "midi": 57,
      "hit": false,
      "t": 12045.4425,
      "d": 214.0149375000001,
      "v": 76
    },
    {
      "midi": 60,
      "hit": false,
      "t": 12272.715,
      "d": 352.27237500000047,
      "v": 96
    },
    {
      "midi": 57,
      "hit": false,
      "t": 12727.26,
      "d": 433.71168749999924,
      "v": 96
    },
    {
      "midi": 60,
      "hit": false,
      "t": 13181.805,
      "d": 238.63612499999908,
      "v": 84
    },
    {
      "midi": 57,
      "hit": false,
      "t": 13409.0775,
      "d": 253.78762499999903,
      "v": 96
    },
    {
      "midi": 55,
      "hit": false,
      "t": 13636.349999999999,
      "d": 386.36325000000033,
      "v": 84
    },
    {
      "midi": 53,
      "hit": false,
      "t": 14090.894999999999,
      "d": 160.9846875000003,
      "v": 96
    },
    {
      "midi": 55,
      "hit": false,
      "t": 14318.1675,
      "d": 214.0149375000001,
      "v": 101
    },
    {
      "midi": 53,
      "hit": false,
      "t": 14990.5153125,
      "d": 1134.4685625000002,
      "v": 101
    },
    {
      "midi": 57,
      "hit": false,
      "t": 16363.619999999999,
      "d": 717.8023125,
      "v": 82
    },
    {
      "midi": 53,
      "hit": false,
      "t": 16363.619999999999,
      "d": 731.059874999999,
      "v": 72
    },
    {
      "midi": 60,
      "hit": false,
      "t": 16363.619999999999,
      "d": 734.8477500000008,
      "v": 82
    },
    {
      "midi": 55,
      "hit": false,
      "t": 17272.71,
      "d": 479.16618749999907,
      "v": 96
    },
    {
      "midi": 51,
      "hit": false,
      "t": 17272.71,
      "d": 511.36312499999985,
      "v": 76
    },
    {
      "midi": 58,
      "hit": false,
      "t": 17272.71,
      "d": 547.3479374999988,
      "v": 72
    },
    {
      "midi": 50,
      "hit": false,
      "t": 17954.527499999997,
      "d": 929.9233124999992,
      "v": 82
    },
    {
      "midi": 53,
      "hit": false,
      "t": 17954.527499999997,
      "d": 945.0748124999991,
      "v": 96
    },
    {
      "midi": 58,
      "hit": false,
      "t": 17954.527499999997,
      "d": 962.1202499999999,
      "v": 76
    },
    {
      "midi": 52,
      "hit": false,
      "t": 19090.889999999996,
      "d": 772.7265000000007,
      "v": 72
    },
    {
      "midi": 55,
      "hit": false,
      "t": 19090.889999999996,
      "d": 778.4083124999997,
      "v": 82
    },
    {
      "midi": 60,
      "hit": false,
      "t": 19090.889999999996,
      "d": 814.3931249999987,
      "v": 72
    },
    {
      "midi": 57,
      "hit": false,
      "t": 19999.979999999996,
      "d": 719.6962500000009,
      "v": 82
    },
    {
      "midi": 53,
      "hit": false,
      "t": 19999.979999999996,
      "d": 721.5901875000018,
      "v": 76
    },
    {
      "midi": 60,
      "hit": false,
      "t": 19999.979999999996,
      "d": 723.4841250000027,
      "v": 76
    },
    {
      "midi": 55,
      "hit": false,
      "t": 20909.07,
      "d": 490.52981250000084,
      "v": 96
    },
    {
      "midi": 51,
      "hit": false,
      "t": 20909.07,
      "d": 496.2116249999999,
      "v": 82
    },
    {
      "midi": 58,
      "hit": false,
      "t": 20909.07,
      "d": 579.5448749999996,
      "v": 82
    },
    {
      "midi": 53,
      "hit": false,
      "t": 21590.8875,
      "d": 920.4536249999983,
      "v": 96
    },
    {
      "midi": 50,
      "hit": false,
      "t": 21590.8875,
      "d": 924.2415000000001,
      "v": 76
    },
    {
      "midi": 58,
      "hit": false,
      "t": 21590.8875,
      "d": 946.96875,
      "v": 84
    },
    {
      "midi": 52,
      "hit": false,
      "t": 22727.25,
      "d": 757.5750000000007,
      "v": 84
    },
    {
      "midi": 55,
      "hit": false,
      "t": 22727.25,
      "d": 774.6204375000016,
      "v": 84
    },
    {
      "midi": 60,
      "hit": false,
      "t": 22727.25,
      "d": 806.8173750000024,
      "v": 84
    },
    {
      "midi": 57,
      "hit": false,
      "t": 23636.340000000004,
      "d": 702.6508125,
      "v": 82
    },
    {
      "midi": 60,
      "hit": false,
      "t": 23636.340000000004,
      "d": 717.8023125,
      "v": 96
    },
    {
      "midi": 53,
      "hit": false,
      "t": 23636.340000000004,
      "d": 727.2720000000008,
      "v": 82
    },
    {
      "midi": 55,
      "hit": false,
      "t": 24545.430000000004,
      "d": 486.74193749999904,
      "v": 96
    },
    {
      "midi": 51,
      "hit": false,
      "t": 24545.430000000004,
      "d": 509.46918749999895,
      "v": 84
    },
    {
      "midi": 58,
      "hit": false,
      "t": 24545.430000000004,
      "d": 535.9843125000007,
      "v": 96
    },
    {
      "midi": 53,
      "hit": false,
      "t": 25227.247500000005,
      "d": 776.5143749999988,
      "v": 96
    },
    {
      "midi": 50,
      "hit": false,
      "t": 25227.247500000005,
      "d": 804.9234374999978,
      "v": 82
    },
    {
      "midi": 58,
      "hit": false,
      "t": 25227.247500000005,
      "d": 808.7113124999996,
      "v": 76
    },
    {
      "midi": 52,
      "hit": false,
      "t": 26363.610000000004,
      "d": 753.7871249999989,
      "v": 76
    },
    {
      "midi": 55,
      "hit": false,
      "t": 26363.610000000004,
      "d": 778.4083124999997,
      "v": 84
    },
    {
      "midi": 60,
      "hit": false,
      "t": 26363.610000000004,
      "d": 804.9234375000015,
      "v": 82
    },
    {
      "midi": 57,
      "hit": false,
      "t": 27272.700000000004,
      "d": 666.6660000000011,
      "v": 84
    },
    {
      "midi": 53,
      "hit": false,
      "t": 27272.700000000004,
      "d": 678.0296250000029,
      "v": 82
    },
    {
      "midi": 60,
      "hit": false,
      "t": 27272.700000000004,
      "d": 681.8175000000047,
      "v": 82
    },
    {
      "midi": 55,
      "hit": false,
      "t": 28181.790000000008,
      "d": 426.1359374999993,
      "v": 101
    },
    {
      "midi": 51,
      "hit": false,
      "t": 28181.790000000008,
      "d": 452.651062500001,
      "v": 96
    },
    {
      "midi": 58,
      "hit": false,
      "t": 28181.790000000008,
      "d": 488.63587499999994,
      "v": 96
    },
    {
      "midi": 50,
      "hit": false,
      "t": 28863.60750000001,
      "d": 225.37856249999822,
      "v": 82
    },
    {
      "midi": 53,
      "hit": false,
      "t": 28863.60750000001,
      "d": 225.37856249999822,
      "v": 96
    },
    {
      "midi": 58,
      "hit": false,
      "t": 28863.60750000001,
      "d": 225.37856249999822,
      "v": 101
    },
    {
      "midi": 48,
      "hit": false,
      "t": 29545.425000000007,
      "d": 1058.7110624999987,
      "v": 84
    },
    {
      "midi": 53,
      "hit": false,
      "t": 29545.425000000007,
      "d": 1058.7110624999987,
      "v": 96
    },
    {
      "midi": 57,
      "hit": false,
      "t": 29545.425000000007,
      "d": 1058.7110624999987,
      "v": 84
    },
    {
      "midi": 36,
      "hit": false,
      "t": 30909.060000000005,
      "d": 242.42399999999907,
      "v": 84
    },
    {
      "midi": 36,
      "hit": false,
      "t": 31363.605000000003,
      "d": 238.6361250000009,
      "v": 96
    },
    {
      "midi": 36,
      "hit": false,
      "t": 31818.150000000005,
      "d": 227.27249999999913,
      "v": 96
    },
    {
      "midi": 36,
      "hit": false,
      "t": 32272.695000000003,
      "d": 193.18162500000108,
      "v": 96
    },
    {
      "midi": 57,
      "hit": false,
      "t": 32727.240000000005,
      "d": 717.8023125000036,
      "v": 82
    },
    {
      "midi": 53,
      "hit": false,
      "t": 32727.240000000005,
      "d": 731.0598750000063,
      "v": 72
    },
    {
      "midi": 60,
      "hit": false,
      "t": 32727.240000000005,
      "d": 734.8477500000081,
      "v": 82
    },
    {
      "midi": 55,
      "hit": false,
      "t": 33636.330000000016,
      "d": 479.16618749999907,
      "v": 96
    },
    {
      "midi": 51,
      "hit": false,
      "t": 33636.330000000016,
      "d": 511.3631249999962,
      "v": 76
    },
    {
      "midi": 58,
      "hit": false,
      "t": 33636.330000000016,
      "d": 547.3479374999952,
      "v": 72
    },
    {
      "midi": 50,
      "hit": false,
      "t": 34318.147500000014,
      "d": 929.9233125000028,
      "v": 82
    },
    {
      "midi": 53,
      "hit": false,
      "t": 34318.147500000014,
      "d": 945.0748125000027,
      "v": 96
    },
    {
      "midi": 58,
      "hit": false,
      "t": 34318.147500000014,
      "d": 962.1202499999999,
      "v": 76
    },
    {
      "midi": 52,
      "hit": false,
      "t": 35454.51000000002,
      "d": 772.726499999997,
      "v": 72
    },
    {
      "midi": 55,
      "hit": false,
      "t": 35454.51000000002,
      "d": 778.4083124999961,
      "v": 82
    },
    {
      "midi": 60,
      "hit": false,
      "t": 35454.51000000002,
      "d": 814.393124999995,
      "v": 72
    },
    {
      "midi": 57,
      "hit": false,
      "t": 36363.60000000001,
      "d": 719.6962500000009,
      "v": 82
    },
    {
      "midi": 53,
      "hit": false,
      "t": 36363.60000000001,
      "d": 721.5901874999981,
      "v": 76
    },
    {
      "midi": 60,
      "hit": false,
      "t": 36363.60000000001,
      "d": 723.4841249999954,
      "v": 76
    },
    {
      "midi": 55,
      "hit": false,
      "t": 37272.69000000001,
      "d": 490.5298124999972,
      "v": 96
    },
    {
      "midi": 51,
      "hit": false,
      "t": 37272.69000000001,
      "d": 496.2116249999963,
      "v": 82
    },
    {
      "midi": 58,
      "hit": false,
      "t": 37272.69000000001,
      "d": 579.5448749999996,
      "v": 82
    },
    {
      "midi": 53,
      "hit": false,
      "t": 37954.50750000001,
      "d": 920.4536250000019,
      "v": 96
    },
    {
      "midi": 50,
      "hit": false,
      "t": 37954.50750000001,
      "d": 924.2415000000037,
      "v": 76
    },
    {
      "midi": 58,
      "hit": false,
      "t": 37954.50750000001,
      "d": 946.9687500000073,
      "v": 84
    },
    {
      "midi": 52,
      "hit": false,
      "t": 39090.87000000002,
      "d": 757.5749999999971,
      "v": 84
    },
    {
      "midi": 55,
      "hit": false,
      "t": 39090.87000000002,
      "d": 774.6204374999943,
      "v": 84
    },
    {
      "midi": 60,
      "hit": false,
      "t": 39090.87000000002,
      "d": 806.8173749999914,
      "v": 84
    },
    {
      "midi": 57,
      "hit": false,
      "t": 39999.96000000001,
      "d": 702.6508124999964,
      "v": 82
    },
    {
      "midi": 60,
      "hit": false,
      "t": 39999.96000000001,
      "d": 717.8023124999963,
      "v": 96
    },
    {
      "midi": 53,
      "hit": false,
      "t": 39999.96000000001,
      "d": 727.2719999999972,
      "v": 82
    },
    {
      "midi": 55,
      "hit": false,
      "t": 40909.05,
      "d": 486.7419375000027,
      "v": 96
    },
    {
      "midi": 51,
      "hit": false,
      "t": 40909.05,
      "d": 509.4691875000062,
      "v": 84
    },
    {
      "midi": 58,
      "hit": false,
      "t": 40909.05,
      "d": 535.9843125000043,
      "v": 96
    },
    {
      "midi": 53,
      "hit": false,
      "t": 41590.86750000001,
      "d": 776.5143749999988,
      "v": 96
    },
    {
      "midi": 50,
      "hit": false,
      "t": 41590.86750000001,
      "d": 804.9234375000015,
      "v": 82
    },
    {
      "midi": 58,
      "hit": false,
      "t": 41590.86750000001,
      "d": 808.7113125000033,
      "v": 76
    },
    {
      "midi": 52,
      "hit": false,
      "t": 42727.23000000001,
      "d": 753.7871250000026,
      "v": 76
    },
    {
      "midi": 55,
      "hit": false,
      "t": 42727.23000000001,
      "d": 778.4083125000034,
      "v": 84
    },
    {
      "midi": 60,
      "hit": false,
      "t": 42727.23000000001,
      "d": 804.9234375000015,
      "v": 82
    },
    {
      "midi": 57,
      "hit": false,
      "t": 43636.320000000014,
      "d": 666.6659999999974,
      "v": 84
    },
    {
      "midi": 53,
      "hit": false,
      "t": 43636.320000000014,
      "d": 678.0296249999956,
      "v": 82
    },
    {
      "midi": 60,
      "hit": false,
      "t": 43636.320000000014,
      "d": 681.8174999999974,
      "v": 82
    },
    {
      "midi": 55,
      "hit": false,
      "t": 44545.41000000001,
      "d": 426.1359375000029,
      "v": 101
    },
    {
      "midi": 51,
      "hit": false,
      "t": 44545.41000000001,
      "d": 452.651062500001,
      "v": 96
    },
    {
      "midi": 58,
      "hit": false,
      "t": 44545.41000000001,
      "d": 488.63587499999994,
      "v": 96
    },
    {
      "midi": 50,
      "hit": false,
      "t": 45227.22750000001,
      "d": 225.37856250000186,
      "v": 82
    },
    {
      "midi": 53,
      "hit": false,
      "t": 45227.22750000001,
      "d": 225.37856250000186,
      "v": 96
    },
    {
      "midi": 58,
      "hit": false,
      "t": 45227.22750000001,
      "d": 225.37856250000186,
      "v": 101
    },
    {
      "midi": 48,
      "hit": false,
      "t": 45909.04500000001,
      "d": 1058.7110624999987,
      "v": 84
    },
    {
      "midi": 53,
      "hit": false,
      "t": 45909.04500000001,
      "d": 1058.7110624999987,
      "v": 96
    },
    {
      "midi": 57,
      "hit": false,
      "t": 45909.04500000001,
      "d": 1058.7110624999987,
      "v": 84
    },
    {
      "midi": 36,
      "hit": false,
      "t": 47272.680000000015,
      "d": 215.908875000001,
      "v": 96
    },
    {
      "midi": 36,
      "hit": false,
      "t": 47727.22500000001,
      "d": 219.6967500000028,
      "v": 96
    },
    {
      "midi": 36,
      "hit": false,
      "t": 48181.77000000002,
      "d": 221.59068750000006,
      "v": 96
    },
    {
      "midi": 36,
      "hit": false,
      "t": 48636.31500000002,
      "d": 231.06037500000093,
      "v": 96
    },
    {
      "midi": 36,
      "hit": false,
      "t": 49090.860000000015,
      "d": 214.01493749999645,
      "v": 101
    },
    {
      "midi": 65,
      "hit": false,
      "t": 49545.40500000001,
      "d": 187.49981249999837,
      "v": 101
    },
    {
      "midi": 69,
      "hit": false,
      "t": 49772.67750000001,
      "d": 187.49981249999837,
      "v": 101
    },
    {
      "midi": 72,
      "hit": false,
      "t": 50227.22250000001,
      "d": 225.37856250000186,
      "v": 101
    },
    {
      "midi": 77,
      "hit": false,
      "t": 50454.49500000001,
      "d": 117.42412499999773,
      "v": 101
    },
    {
      "midi": 67,
      "hit": false,
      "t": 50909.04000000001,
      "d": 541.6661250000034,
      "v": 101
    },
    {
      "midi": 74,
      "hit": false,
      "t": 50909.04000000001,
      "d": 554.923687500006,
      "v": 101
    },
    {
      "midi": 65,
      "hit": false,
      "t": 50909.04000000001,
      "d": 564.3933750000069,
      "v": 101
    },
    {
      "midi": 70,
      "hit": false,
      "t": 50909.04000000001,
      "d": 564.3933750000069,
      "v": 101
    },
    {
      "midi": 55,
      "hit": false,
      "t": 50909.04000000001,
      "d": 583.3327500000087,
      "v": 101
    },
    {
      "midi": 62,
      "hit": false,
      "t": 50909.04000000001,
      "d": 596.5903125000114,
      "v": 101
    },
    {
      "midi": 58,
      "hit": false,
      "t": 50909.04000000001,
      "d": 607.9539375000095,
      "v": 101
    },
    {
      "midi": 67,
      "hit": false,
      "t": 51590.85750000002,
      "d": 498.1055625000008,
      "v": 101
    },
    {
      "midi": 55,
      "hit": false,
      "t": 51590.85750000002,
      "d": 505.6813125000044,
      "v": 101
    },
    {
      "midi": 65,
      "hit": false,
      "t": 51590.85750000002,
      "d": 518.9388750000071,
      "v": 101
    },
    {
      "midi": 70,
      "hit": false,
      "t": 51590.85750000002,
      "d": 530.3025000000052,
      "v": 101
    },
    {
      "midi": 58,
      "hit": false,
      "t": 51590.85750000002,
      "d": 534.090375000007,
      "v": 101
    },
    {
      "midi": 74,
      "hit": false,
      "t": 51590.85750000002,
      "d": 534.090375000007,
      "v": 101
    },
    {
      "midi": 62,
      "hit": false,
      "t": 51590.85750000002,
      "d": 535.9843125000043,
      "v": 101
    },
    {
      "midi": 57,
      "hit": false,
      "t": 52272.675000000025,
      "d": 759.4689375000016,
      "v": 101
    },
    {
      "midi": 53,
      "hit": false,
      "t": 52272.675000000025,
      "d": 761.3628749999989,
      "v": 101
    },
    {
      "midi": 60,
      "hit": false,
      "t": 52272.675000000025,
      "d": 761.3628749999989,
      "v": 101
    },
    {
      "midi": 69,
      "hit": false,
      "t": 52272.675000000025,
      "d": 1895.8314374999973,
      "v": 101
    },
    {
      "midi": 72,
      "hit": false,
      "t": 52272.675000000025,
      "d": 1909.089,
      "v": 101
    },
    {
      "midi": 65,
      "hit": false,
      "t": 52272.675000000025,
      "d": 1910.9829374999972,
      "v": 101
    },
    {
      "midi": 76,
      "hit": false,
      "t": 52272.675000000025,
      "d": 1937.4980624999953,
      "v": 101
    },
    {
      "midi": 65,
      "hit": false,
      "t": 54545.40000000002,
      "d": 543.5600625000006,
      "v": 101
    },
    {
      "midi": 58,
      "hit": false,
      "t": 54545.40000000002,
      "d": 551.1358125000042,
      "v": 101
    },
    {
      "midi": 62,
      "hit": false,
      "t": 54545.40000000002,
      "d": 556.8176250000033,
      "v": 101
    },
    {
      "midi": 62,
      "hit": false,
      "t": 55227.21750000003,
      "d": 429.92381249999744,
      "v": 101
    },
    {
      "midi": 58,
      "hit": false,
      "t": 55227.21750000003,
      "d": 435.6056249999965,
      "v": 101
    },
    {
      "midi": 65,
      "hit": false,
      "t": 55227.21750000003,
      "d": 462.1207499999946,
      "v": 101
    },
    {
      "midi": 58,
      "hit": false,
      "t": 55909.035000000025,
      "d": 1899.619312499999,
      "v": 96
    },
    {
      "midi": 60,
      "hit": false,
      "t": 55909.035000000025,
      "d": 1909.089,
      "v": 101
    },
    {
      "midi": 48,
      "hit": false,
      "t": 55909.035000000025,
      "d": 1912.8768750000017,
      "v": 99
    },
    {
      "midi": 65,
      "hit": false,
      "t": 55909.035000000025,
      "d": 1922.3465625000026,
      "v": 101
    },
    {
      "midi": 67,
      "hit": false,
      "t": 55909.035000000025,
      "d": 1933.7101875000008,
      "v": 101
    },
    {
      "midi": 58,
      "hit": false,
      "t": 58181.760000000024,
      "d": 481.0601250000036,
      "v": 101
    },
    {
      "midi": 62,
      "hit": false,
      "t": 58181.760000000024,
      "d": 484.8480000000054,
      "v": 101
    },
    {
      "midi": 65,
      "hit": false,
      "t": 58181.760000000024,
      "d": 509.4691875000062,
      "v": 101
    },
    {
      "midi": 55,
      "hit": false,
      "t": 58181.760000000024,
      "d": 518.9388750000071,
      "v": 101
    },
    {
      "midi": 70,
      "hit": false,
      "t": 58863.57750000003,
      "d": 518.9388749999998,
      "v": 101
    },
    {
      "midi": 62,
      "hit": false,
      "t": 58863.57750000003,
      "d": 520.8328124999971,
      "v": 87
    },
    {
      "midi": 65,
      "hit": false,
      "t": 58863.57750000003,
      "d": 526.5146249999962,
      "v": 101
    },
    {
      "midi": 58,
      "hit": false,
      "t": 58863.57750000003,
      "d": 528.4085624999934,
      "v": 101
    },
    {
      "midi": 55,
      "hit": false,
      "t": 58863.57750000003,
      "d": 537.8782499999943,
      "v": 101
    },
    {
      "midi": 60,
      "hit": false,
      "t": 59545.395000000026,
      "d": 1958.3313750000016,
      "v": 101
    },
    {
      "midi": 64,
      "hit": false,
      "t": 59545.395000000026,
      "d": 1964.0131875000006,
      "v": 101
    },
    {
      "midi": 53,
      "hit": false,
      "t": 59545.395000000026,
      "d": 1977.2707500000033,
      "v": 101
    },
    {
      "midi": 57,
      "hit": false,
      "t": 59545.395000000026,
      "d": 1984.846500000007,
      "v": 101
    },
    {
      "midi": 69,
      "hit": false,
      "t": 59545.395000000026,
      "d": 2026.513125000005,
      "v": 101
    },
    {
      "midi": 77,
      "hit": false,
      "t": 62499.9375,
      "d": 142.04531249999854,
      "v": 111
    },
    {
      "midi": 77,
      "hit": false,
      "t": 62727.21,
      "d": 117.42412499999773,
      "v": 112
    },
    {
      "midi": 77,
      "hit": false,
      "t": 62954.4825,
      "d": 335.22693750000326,
      "v": 113
    },
    {
      "midi": 72,
      "hit": false,
      "t": 63409.027500000004,
      "d": 2499.997500000005,
      "v": 114
    },
    {
      "midi": 72,
      "hit": false,
      "t": 66136.29750000002,
      "d": 232.95431250000547,
      "v": 115
    },
    {
      "midi": 74,
      "hit": false,
      "t": 66363.57000000002,
      "d": 179.92406249999476,
      "v": 116
    },
    {
      "midi": 77,
      "hit": false,
      "t": 66590.84250000001,
      "d": 356.060249999995,
      "v": 117
    },
    {
      "midi": 79,
      "hit": false,
      "t": 67045.38750000001,
      "d": 1890.1496250000055,
      "v": 118
    },
    {
      "midi": 57,
      "hit": false,
      "t": 69090.84,
      "d": 717.8023125000036,
      "v": 82
    },
    {
      "midi": 53,
      "hit": false,
      "t": 69090.84,
      "d": 731.0598750000063,
      "v": 72
    },
    {
      "midi": 60,
      "hit": false,
      "t": 69090.84,
      "d": 734.8477500000008,
      "v": 82
    },
    {
      "midi": 55,
      "hit": false,
      "t": 69999.93,
      "d": 479.16618749999907,
      "v": 96
    },
    {
      "midi": 51,
      "hit": false,
      "t": 69999.93,
      "d": 511.3631250000035,
      "v": 76
    },
    {
      "midi": 58,
      "hit": false,
      "t": 69999.93,
      "d": 547.3479375000024,
      "v": 72
    },
    {
      "midi": 50,
      "hit": false,
      "t": 70681.7475,
      "d": 929.9233125000028,
      "v": 82
    },
    {
      "midi": 53,
      "hit": false,
      "t": 70681.7475,
      "d": 945.07481250001,
      "v": 96
    },
    {
      "midi": 58,
      "hit": false,
      "t": 70681.7475,
      "d": 962.1202500000072,
      "v": 76
    },
    {
      "midi": 52,
      "hit": false,
      "t": 71818.11,
      "d": 772.7265000000043,
      "v": 72
    },
    {
      "midi": 55,
      "hit": false,
      "t": 71818.11,
      "d": 778.4083125000034,
      "v": 82
    },
    {
      "midi": 60,
      "hit": false,
      "t": 71818.11,
      "d": 814.3931250000023,
      "v": 72
    },
    {
      "midi": 57,
      "hit": false,
      "t": 72727.2,
      "d": 719.6962499999936,
      "v": 82
    },
    {
      "midi": 53,
      "hit": false,
      "t": 72727.2,
      "d": 721.5901874999981,
      "v": 76
    },
    {
      "midi": 60,
      "hit": false,
      "t": 72727.2,
      "d": 723.4841250000027,
      "v": 76
    },
    {
      "midi": 55,
      "hit": false,
      "t": 73636.29,
      "d": 490.5298124999972,
      "v": 96
    },
    {
      "midi": 51,
      "hit": false,
      "t": 73636.29,
      "d": 496.2116249999963,
      "v": 82
    },
    {
      "midi": 58,
      "hit": false,
      "t": 73636.29,
      "d": 579.5448749999923,
      "v": 82
    },
    {
      "midi": 53,
      "hit": false,
      "t": 74318.10749999998,
      "d": 920.4536249999946,
      "v": 96
    },
    {
      "midi": 50,
      "hit": false,
      "t": 74318.10749999998,
      "d": 924.2414999999892,
      "v": 76
    },
    {
      "midi": 58,
      "hit": false,
      "t": 74318.10749999998,
      "d": 946.9687499999854,
      "v": 84
    },
    {
      "midi": 52,
      "hit": false,
      "t": 75454.46999999997,
      "d": 757.5749999999971,
      "v": 84
    },
    {
      "midi": 55,
      "hit": false,
      "t": 75454.46999999997,
      "d": 774.6204374999943,
      "v": 84
    },
    {
      "midi": 60,
      "hit": false,
      "t": 75454.46999999997,
      "d": 806.8173749999987,
      "v": 84
    },
    {
      "midi": 57,
      "hit": false,
      "t": 76363.55999999997,
      "d": 702.6508124999964,
      "v": 82
    },
    {
      "midi": 60,
      "hit": false,
      "t": 76363.55999999997,
      "d": 717.8023125000036,
      "v": 96
    },
    {
      "midi": 53,
      "hit": false,
      "t": 76363.55999999997,
      "d": 727.2719999999972,
      "v": 82
    },
    {
      "midi": 55,
      "hit": false,
      "t": 77272.64999999997,
      "d": 486.7419375000027,
      "v": 96
    },
    {
      "midi": 51,
      "hit": false,
      "t": 77272.64999999997,
      "d": 509.46918749999895,
      "v": 84
    },
    {
      "midi": 58,
      "hit": false,
      "t": 77272.64999999997,
      "d": 535.9843125000043,
      "v": 96
    },
    {
      "midi": 53,
      "hit": false,
      "t": 77954.46749999997,
      "d": 776.5143749999988,
      "v": 96
    },
    {
      "midi": 50,
      "hit": false,
      "t": 77954.46749999997,
      "d": 804.9234374999942,
      "v": 82
    },
    {
      "midi": 58,
      "hit": false,
      "t": 77954.46749999997,
      "d": 808.7113124999887,
      "v": 76
    },
    {
      "midi": 52,
      "hit": false,
      "t": 79090.82999999996,
      "d": 753.7871250000026,
      "v": 76
    },
    {
      "midi": 55,
      "hit": false,
      "t": 79090.82999999996,
      "d": 778.4083125000034,
      "v": 84
    },
    {
      "midi": 60,
      "hit": false,
      "t": 79090.82999999996,
      "d": 804.9234375000087,
      "v": 82
    },
    {
      "midi": 57,
      "hit": false,
      "t": 79999.91999999997,
      "d": 666.6659999999974,
      "v": 84
    },
    {
      "midi": 53,
      "hit": false,
      "t": 79999.91999999997,
      "d": 678.0296249999956,
      "v": 82
    },
    {
      "midi": 60,
      "hit": false,
      "t": 79999.91999999997,
      "d": 681.8174999999901,
      "v": 82
    },
    {
      "midi": 55,
      "hit": false,
      "t": 80909.00999999997,
      "d": 426.1359375000029,
      "v": 101
    },
    {
      "midi": 51,
      "hit": false,
      "t": 80909.00999999997,
      "d": 452.65106250000827,
      "v": 96
    },
    {
      "midi": 58,
      "hit": false,
      "t": 80909.00999999997,
      "d": 488.6358750000072,
      "v": 96
    },
    {
      "midi": 50,
      "hit": false,
      "t": 81590.82749999997,
      "d": 225.37856250000186,
      "v": 82
    },
    {
      "midi": 53,
      "hit": false,
      "t": 81590.82749999997,
      "d": 225.37856250000186,
      "v": 96
    },
    {
      "midi": 58,
      "hit": false,
      "t": 81590.82749999997,
      "d": 225.37856250000186,
      "v": 101
    },
    {
      "midi": 48,
      "hit": false,
      "t": 82272.64499999997,
      "d": 982.953562499999,
      "v": 84
    },
    {
      "midi": 53,
      "hit": false,
      "t": 82272.64499999997,
      "d": 982.953562499999,
      "v": 96
    },
    {
      "midi": 57,
      "hit": false,
      "t": 82272.64499999997,
      "d": 988.635374999998,
      "v": 84
    },
    {
      "midi": 36,
      "hit": false,
      "t": 83636.28000000003,
      "d": 255.68156250000175,
      "v": 96
    },
    {
      "midi": 36,
      "hit": false,
      "t": 84090.82500000003,
      "d": 231.06037500000093,
      "v": 96
    },
    {
      "midi": 36,
      "hit": false,
      "t": 84545.37000000002,
      "d": 255.68156250000175,
      "v": 101
    },
    {
      "midi": 36,
      "hit": false,
      "t": 84999.91500000002,
      "d": 223.48462499999732,
      "v": 96
    },
    {
      "midi": 36,
      "hit": false,
      "t": 85454.46000000002,
      "d": 215.9088749999937,
      "v": 101
    },
    {
      "midi": 65,
      "hit": false,
      "t": 85909.00500000002,
      "d": 151.51499999999942,
      "v": 101
    },
    {
      "midi": 69,
      "hit": false,
      "t": 86136.27750000003,
      "d": 149.62106249999488,
      "v": 101
    },
    {
      "midi": 72,
      "hit": false,
      "t": 86590.82250000002,
      "d": 187.49981249999837,
      "v": 101
    },
    {
      "midi": 77,
      "hit": false,
      "t": 86818.09500000002,
      "d": 117.424125000005,
      "v": 101
    },
    {
      "midi": 67,
      "hit": false,
      "t": 87272.64000000001,
      "d": 541.6661250000034,
      "v": 101
    },
    {
      "midi": 74,
      "hit": false,
      "t": 87272.64000000001,
      "d": 554.923687500006,
      "v": 101
    },
    {
      "midi": 65,
      "hit": false,
      "t": 87272.64000000001,
      "d": 564.3933749999997,
      "v": 101
    },
    {
      "midi": 70,
      "hit": false,
      "t": 87272.64000000001,
      "d": 564.3933749999997,
      "v": 101
    },
    {
      "midi": 55,
      "hit": false,
      "t": 87272.64000000001,
      "d": 583.3327500000014,
      "v": 101
    },
    {
      "midi": 62,
      "hit": false,
      "t": 87272.64000000001,
      "d": 596.5903125000041,
      "v": 101
    },
    {
      "midi": 58,
      "hit": false,
      "t": 87272.64000000001,
      "d": 607.9539375000022,
      "v": 101
    },
    {
      "midi": 67,
      "hit": false,
      "t": 87954.45750000002,
      "d": 498.1055625000008,
      "v": 101
    },
    {
      "midi": 55,
      "hit": false,
      "t": 87954.45750000002,
      "d": 505.6813125000044,
      "v": 101
    },
    {
      "midi": 65,
      "hit": false,
      "t": 87954.45750000002,
      "d": 518.9388750000071,
      "v": 101
    },
    {
      "midi": 70,
      "hit": false,
      "t": 87954.45750000002,
      "d": 530.3025000000052,
      "v": 101
    },
    {
      "midi": 58,
      "hit": false,
      "t": 87954.45750000002,
      "d": 534.0903749999998,
      "v": 101
    },
    {
      "midi": 74,
      "hit": false,
      "t": 87954.45750000002,
      "d": 534.0903749999998,
      "v": 101
    },
    {
      "midi": 62,
      "hit": false,
      "t": 87954.45750000002,
      "d": 535.9843125000043,
      "v": 101
    },
    {
      "midi": 57,
      "hit": false,
      "t": 88636.27500000002,
      "d": 759.4689375000016,
      "v": 101
    },
    {
      "midi": 53,
      "hit": false,
      "t": 88636.27500000002,
      "d": 761.3628750000062,
      "v": 101
    },
    {
      "midi": 60,
      "hit": false,
      "t": 88636.27500000002,
      "d": 761.3628750000062,
      "v": 101
    },
    {
      "midi": 69,
      "hit": false,
      "t": 88636.27500000002,
      "d": 1895.8314375000045,
      "v": 101
    },
    {
      "midi": 72,
      "hit": false,
      "t": 88636.27500000002,
      "d": 1909.0890000000072,
      "v": 101
    },
    {
      "midi": 65,
      "hit": false,
      "t": 88636.27500000002,
      "d": 1910.9829375000118,
      "v": 101
    },
    {
      "midi": 76,
      "hit": false,
      "t": 88636.27500000002,
      "d": 1937.498062500017,
      "v": 101
    },
    {
      "midi": 65,
      "hit": false,
      "t": 90909.00000000004,
      "d": 543.5600624999934,
      "v": 101
    },
    {
      "midi": 58,
      "hit": false,
      "t": 90909.00000000004,
      "d": 551.135812499997,
      "v": 101
    },
    {
      "midi": 62,
      "hit": false,
      "t": 90909.00000000004,
      "d": 556.817624999996,
      "v": 101
    },
    {
      "midi": 62,
      "hit": false,
      "t": 91590.81750000003,
      "d": 429.92381249999744,
      "v": 101
    },
    {
      "midi": 58,
      "hit": false,
      "t": 91590.81750000003,
      "d": 435.6056249999965,
      "v": 101
    },
    {
      "midi": 65,
      "hit": false,
      "t": 91590.81750000003,
      "d": 462.12075000000186,
      "v": 101
    },
    {
      "midi": 58,
      "hit": false,
      "t": 92272.63500000004,
      "d": 1899.619312499999,
      "v": 96
    },
    {
      "midi": 60,
      "hit": false,
      "t": 92272.63500000004,
      "d": 1909.0889999999927,
      "v": 101
    },
    {
      "midi": 48,
      "hit": false,
      "t": 92272.63500000004,
      "d": 1912.8768749999872,
      "v": 99
    },
    {
      "midi": 65,
      "hit": false,
      "t": 92272.63500000004,
      "d": 1922.3465624999808,
      "v": 101
    },
    {
      "midi": 67,
      "hit": false,
      "t": 92272.63500000004,
      "d": 1933.710187499979,
      "v": 101
    },
    {
      "midi": 58,
      "hit": false,
      "t": 94545.36000000002,
      "d": 481.0601250000036,
      "v": 101
    },
    {
      "midi": 62,
      "hit": false,
      "t": 94545.36000000002,
      "d": 484.84799999999814,
      "v": 101
    },
    {
      "midi": 65,
      "hit": false,
      "t": 94545.36000000002,
      "d": 509.46918749999895,
      "v": 101
    },
    {
      "midi": 55,
      "hit": false,
      "t": 94545.36000000002,
      "d": 518.9388749999925,
      "v": 101
    },
    {
      "midi": 70,
      "hit": false,
      "t": 95227.1775,
      "d": 518.9388750000071,
      "v": 101
    },
    {
      "midi": 62,
      "hit": false,
      "t": 95227.1775,
      "d": 520.8328125000116,
      "v": 87
    },
    {
      "midi": 65,
      "hit": false,
      "t": 95227.1775,
      "d": 526.5146250000107,
      "v": 101
    },
    {
      "midi": 58,
      "hit": false,
      "t": 95227.1775,
      "d": 528.4085625000153,
      "v": 101
    },
    {
      "midi": 55,
      "hit": false,
      "t": 95227.1775,
      "d": 537.8782500000088,
      "v": 101
    },
    {
      "midi": 60,
      "hit": false,
      "t": 95908.99500000001,
      "d": 1958.3313749999943,
      "v": 101
    },
    {
      "midi": 64,
      "hit": false,
      "t": 95908.99500000001,
      "d": 1964.0131874999934,
      "v": 101
    },
    {
      "midi": 53,
      "hit": false,
      "t": 95908.99500000001,
      "d": 1977.270749999996,
      "v": 101
    },
    {
      "midi": 57,
      "hit": false,
      "t": 95908.99500000001,
      "d": 1984.8464999999997,
      "v": 101
    },
    {
      "midi": 69,
      "hit": false,
      "t": 95908.99500000001,
      "d": 2026.5131249999977,
      "v": 101
    },
    {
      "midi": 53,
      "hit": false,
      "t": 98863.5375,
      "d": 128.78775000000314,
      "v": 101
    },
    {
      "midi": 58,
      "hit": false,
      "t": 98863.5375,
      "d": 136.36350000000675,
      "v": 84
    },
    {
      "midi": 62,
      "hit": false,
      "t": 98863.5375,
      "d": 140.15137500000128,
      "v": 101
    },
    {
      "midi": 58,
      "hit": false,
      "t": 99090.81000000001,
      "d": 121.21199999999953,
      "v": 82
    },
    {
      "midi": 53,
      "hit": false,
      "t": 99090.81000000001,
      "d": 130.68168749999313,
      "v": 101
    },
    {
      "midi": 62,
      "hit": false,
      "t": 99090.81000000001,
      "d": 142.04531249999127,
      "v": 101
    },
    {
      "midi": 58,
      "hit": false,
      "t": 99318.0825,
      "d": 295.4542499999952,
      "v": 79
    },
    {
      "midi": 53,
      "hit": false,
      "t": 99318.0825,
      "d": 304.9239374999888,
      "v": 101
    },
    {
      "midi": 62,
      "hit": false,
      "t": 99318.0825,
      "d": 310.6057499999879,
      "v": 101
    },
    {
      "midi": 55,
      "hit": false,
      "t": 99772.62749999999,
      "d": 2102.2706250000047,
      "v": 101
    },
    {
      "midi": 62,
      "hit": false,
      "t": 99772.62749999999,
      "d": 2102.2706250000047,
      "v": 101
    },
    {
      "midi": 65,
      "hit": false,
      "t": 99772.62749999999,
      "d": 2104.164562500009,
      "v": 101
    },
    {
      "midi": 58,
      "hit": false,
      "t": 99772.62749999999,
      "d": 2107.9524375000037,
      "v": 101
    },
    {
      "midi": 53,
      "hit": false,
      "t": 102499.89749999999,
      "d": 126.8938124999986,
      "v": 101
    },
    {
      "midi": 58,
      "hit": false,
      "t": 102499.89749999999,
      "d": 126.8938124999986,
      "v": 87
    },
    {
      "midi": 62,
      "hit": false,
      "t": 102499.89749999999,
      "d": 136.3634999999922,
      "v": 101
    },
    {
      "midi": 58,
      "hit": false,
      "t": 102727.16999999998,
      "d": 106.06050000000687,
      "v": 96
    },
    {
      "midi": 62,
      "hit": false,
      "t": 102727.16999999998,
      "d": 119.31806250000955,
      "v": 101
    },
    {
      "midi": 53,
      "hit": false,
      "t": 102727.16999999998,
      "d": 124.99987500000861,
      "v": 101
    },
    {
      "midi": 58,
      "hit": false,
      "t": 102954.44249999999,
      "d": 293.56031250000524,
      "v": 101
    },
    {
      "midi": 53,
      "hit": false,
      "t": 102954.44249999999,
      "d": 297.34818749999977,
      "v": 101
    },
    {
      "midi": 62,
      "hit": false,
      "t": 102954.44249999999,
      "d": 312.499687500007,
      "v": 101
    },
    {
      "midi": 58,
      "hit": false,
      "t": 103408.9875,
      "d": 1871.2102500000037,
      "v": 101
    },
    {
      "midi": 62,
      "hit": false,
      "t": 103408.9875,
      "d": 1876.8920625000028,
      "v": 101
    },
    {
      "midi": 55,
      "hit": false,
      "t": 103408.9875,
      "d": 1878.7860000000073,
      "v": 101
    },
    {
      "midi": 67,
      "hit": false,
      "t": 103408.9875,
      "d": 1882.5738750000019,
      "v": 101
    },
    {
      "midi": 57,
      "hit": false,
      "t": 105454.44,
      "d": 717.8023125000036,
      "v": 82
    },
    {
      "midi": 53,
      "hit": false,
      "t": 105454.44,
      "d": 731.0598750000063,
      "v": 72
    },
    {
      "midi": 60,
      "hit": false,
      "t": 105454.44,
      "d": 734.8477500000008,
      "v": 82
    },
    {
      "midi": 55,
      "hit": false,
      "t": 106363.53,
      "d": 479.16618749999907,
      "v": 96
    },
    {
      "midi": 51,
      "hit": false,
      "t": 106363.53,
      "d": 511.3631250000035,
      "v": 76
    },
    {
      "midi": 58,
      "hit": false,
      "t": 106363.53,
      "d": 547.3479375000024,
      "v": 72
    },
    {
      "midi": 50,
      "hit": false,
      "t": 107045.3475,
      "d": 929.9233125000028,
      "v": 82
    },
    {
      "midi": 53,
      "hit": false,
      "t": 107045.3475,
      "d": 945.07481250001,
      "v": 96
    },
    {
      "midi": 58,
      "hit": false,
      "t": 107045.3475,
      "d": 962.1202500000072,
      "v": 76
    },
    {
      "midi": 52,
      "hit": false,
      "t": 108181.71,
      "d": 772.7265000000043,
      "v": 72
    },
    {
      "midi": 55,
      "hit": false,
      "t": 108181.71,
      "d": 778.4083125000034,
      "v": 82
    },
    {
      "midi": 60,
      "hit": false,
      "t": 108181.71,
      "d": 814.3931250000023,
      "v": 72
    },
    {
      "midi": 57,
      "hit": false,
      "t": 109090.8,
      "d": 719.6962499999936,
      "v": 82
    },
    {
      "midi": 53,
      "hit": false,
      "t": 109090.8,
      "d": 721.5901874999981,
      "v": 76
    },
    {
      "midi": 60,
      "hit": false,
      "t": 109090.8,
      "d": 723.4841250000027,
      "v": 76
    },
    {
      "midi": 55,
      "hit": false,
      "t": 109999.89,
      "d": 490.5298124999972,
      "v": 96
    },
    {
      "midi": 51,
      "hit": false,
      "t": 109999.89,
      "d": 496.2116249999963,
      "v": 82
    },
    {
      "midi": 58,
      "hit": false,
      "t": 109999.89,
      "d": 579.5448749999923,
      "v": 82
    },
    {
      "midi": 53,
      "hit": false,
      "t": 110681.70749999999,
      "d": 920.4536249999946,
      "v": 96
    },
    {
      "midi": 50,
      "hit": false,
      "t": 110681.70749999999,
      "d": 924.2414999999892,
      "v": 76
    },
    {
      "midi": 58,
      "hit": false,
      "t": 110681.70749999999,
      "d": 946.9687499999854,
      "v": 84
    },
    {
      "midi": 52,
      "hit": false,
      "t": 111818.06999999998,
      "d": 757.5749999999971,
      "v": 84
    },
    {
      "midi": 55,
      "hit": false,
      "t": 111818.06999999998,
      "d": 774.6204374999943,
      "v": 84
    },
    {
      "midi": 60,
      "hit": false,
      "t": 111818.06999999998,
      "d": 806.8173749999987,
      "v": 84
    },
    {
      "midi": 57,
      "hit": false,
      "t": 112727.15999999997,
      "d": 702.6508124999964,
      "v": 82
    },
    {
      "midi": 60,
      "hit": false,
      "t": 112727.15999999997,
      "d": 717.8023125000036,
      "v": 96
    },
    {
      "midi": 53,
      "hit": false,
      "t": 112727.15999999997,
      "d": 727.2719999999972,
      "v": 82
    },
    {
      "midi": 55,
      "hit": false,
      "t": 113636.24999999997,
      "d": 486.7419375000027,
      "v": 96
    },
    {
      "midi": 51,
      "hit": false,
      "t": 113636.24999999997,
      "d": 509.46918749999895,
      "v": 84
    },
    {
      "midi": 58,
      "hit": false,
      "t": 113636.24999999997,
      "d": 535.9843125000043,
      "v": 96
    },
    {
      "midi": 53,
      "hit": false,
      "t": 114318.06749999998,
      "d": 776.5143749999988,
      "v": 96
    },
    {
      "midi": 50,
      "hit": false,
      "t": 114318.06749999998,
      "d": 804.9234374999942,
      "v": 82
    },
    {
      "midi": 58,
      "hit": false,
      "t": 114318.06749999998,
      "d": 808.7113124999887,
      "v": 76
    },
    {
      "midi": 52,
      "hit": false,
      "t": 115454.42999999996,
      "d": 753.7871250000026,
      "v": 76
    },
    {
      "midi": 55,
      "hit": false,
      "t": 115454.42999999996,
      "d": 778.4083125000034,
      "v": 84
    },
    {
      "midi": 60,
      "hit": false,
      "t": 115454.42999999996,
      "d": 804.9234375000087,
      "v": 82
    },
    {
      "midi": 57,
      "hit": false,
      "t": 116363.51999999997,
      "d": 666.6659999999974,
      "v": 84
    },
    {
      "midi": 53,
      "hit": false,
      "t": 116363.51999999997,
      "d": 678.0296249999956,
      "v": 82
    },
    {
      "midi": 60,
      "hit": false,
      "t": 116363.51999999997,
      "d": 681.8174999999901,
      "v": 82
    },
    {
      "midi": 55,
      "hit": false,
      "t": 117272.60999999997,
      "d": 426.1359375000029,
      "v": 101
    },
    {
      "midi": 51,
      "hit": false,
      "t": 117272.60999999997,
      "d": 452.65106250000827,
      "v": 96
    },
    {
      "midi": 58,
      "hit": false,
      "t": 117272.60999999997,
      "d": 488.6358750000072,
      "v": 96
    },
    {
      "midi": 50,
      "hit": false,
      "t": 117954.42749999998,
      "d": 225.37856250000186,
      "v": 82
    },
    {
      "midi": 53,
      "hit": false,
      "t": 117954.42749999998,
      "d": 225.37856250000186,
      "v": 96
    },
    {
      "midi": 58,
      "hit": false,
      "t": 117954.42749999998,
      "d": 225.37856250000186,
      "v": 101
    },
    {
      "midi": 48,
      "hit": false,
      "t": 118636.24499999998,
      "d": 965.9081250000017,
      "v": 84
    },
    {
      "midi": 53,
      "hit": false,
      "t": 118636.24499999998,
      "d": 982.953562499999,
      "v": 96
    },
    {
      "midi": 57,
      "hit": false,
      "t": 118636.24499999998,
      "d": 988.635374999998,
      "v": 84
    },
    {
      "midi": 57,
      "hit": false,
      "t": 119999.87999999998,
      "d": 717.8023125000036,
      "v": 82
    },
    {
      "midi": 53,
      "hit": false,
      "t": 119999.87999999998,
      "d": 731.0598750000063,
      "v": 72
    },
    {
      "midi": 60,
      "hit": false,
      "t": 119999.87999999998,
      "d": 734.8477500000008,
      "v": 82
    },
    {
      "midi": 55,
      "hit": false,
      "t": 120908.96999999997,
      "d": 479.16618749999907,
      "v": 96
    },
    {
      "midi": 51,
      "hit": false,
      "t": 120908.96999999997,
      "d": 511.3631250000035,
      "v": 76
    },
    {
      "midi": 58,
      "hit": false,
      "t": 120908.96999999997,
      "d": 547.3479375000024,
      "v": 72
    },
    {
      "midi": 50,
      "hit": false,
      "t": 121590.78749999998,
      "d": 929.9233125000028,
      "v": 82
    },
    {
      "midi": 53,
      "hit": false,
      "t": 121590.78749999998,
      "d": 945.07481250001,
      "v": 96
    },
    {
      "midi": 58,
      "hit": false,
      "t": 121590.78749999998,
      "d": 962.1202500000072,
      "v": 76
    },
    {
      "midi": 52,
      "hit": false,
      "t": 122727.14999999998,
      "d": 772.7265000000043,
      "v": 72
    },
    {
      "midi": 55,
      "hit": false,
      "t": 122727.14999999998,
      "d": 778.4083125000034,
      "v": 82
    },
    {
      "midi": 60,
      "hit": false,
      "t": 122727.14999999998,
      "d": 814.3931250000023,
      "v": 72
    },
    {
      "midi": 57,
      "hit": false,
      "t": 123636.23999999998,
      "d": 719.6962499999936,
      "v": 82
    },
    {
      "midi": 53,
      "hit": false,
      "t": 123636.23999999998,
      "d": 721.5901874999981,
      "v": 76
    },
    {
      "midi": 60,
      "hit": false,
      "t": 123636.23999999998,
      "d": 723.4841250000027,
      "v": 76
    },
    {
      "midi": 55,
      "hit": false,
      "t": 124545.32999999997,
      "d": 490.5298124999972,
      "v": 96
    },
    {
      "midi": 51,
      "hit": false,
      "t": 124545.32999999997,
      "d": 496.2116249999963,
      "v": 82
    },
    {
      "midi": 58,
      "hit": false,
      "t": 124545.32999999997,
      "d": 579.5448749999923,
      "v": 82
    },
    {
      "midi": 53,
      "hit": false,
      "t": 125227.14749999996,
      "d": 920.4536249999946,
      "v": 96
    },
    {
      "midi": 50,
      "hit": false,
      "t": 125227.14749999996,
      "d": 924.2414999999892,
      "v": 76
    },
    {
      "midi": 58,
      "hit": false,
      "t": 125227.14749999996,
      "d": 946.9687499999854,
      "v": 84
    },
    {
      "midi": 52,
      "hit": false,
      "t": 126363.50999999995,
      "d": 757.5749999999971,
      "v": 84
    },
    {
      "midi": 55,
      "hit": false,
      "t": 126363.50999999995,
      "d": 774.6204374999943,
      "v": 84
    },
    {
      "midi": 60,
      "hit": false,
      "t": 126363.50999999995,
      "d": 806.8173749999987,
      "v": 84
    },
    {
      "midi": 57,
      "hit": false,
      "t": 127272.59999999995,
      "d": 702.6508124999964,
      "v": 82
    },
    {
      "midi": 60,
      "hit": false,
      "t": 127272.59999999995,
      "d": 717.8023125000036,
      "v": 96
    },
    {
      "midi": 53,
      "hit": false,
      "t": 127272.59999999995,
      "d": 727.2719999999972,
      "v": 82
    },
    {
      "midi": 55,
      "hit": false,
      "t": 128181.68999999994,
      "d": 486.7419375000027,
      "v": 96
    },
    {
      "midi": 51,
      "hit": false,
      "t": 128181.68999999994,
      "d": 509.46918749999895,
      "v": 84
    },
    {
      "midi": 58,
      "hit": false,
      "t": 128181.68999999994,
      "d": 535.9843125000043,
      "v": 96
    },
    {
      "midi": 53,
      "hit": false,
      "t": 128863.50749999995,
      "d": 776.5143749999988,
      "v": 96
    },
    {
      "midi": 50,
      "hit": false,
      "t": 128863.50749999995,
      "d": 804.9234374999942,
      "v": 82
    },
    {
      "midi": 58,
      "hit": false,
      "t": 128863.50749999995,
      "d": 808.7113124999887,
      "v": 76
    },
    {
      "midi": 52,
      "hit": false,
      "t": 129999.86999999994,
      "d": 753.7871250000026,
      "v": 76
    },
    {
      "midi": 55,
      "hit": false,
      "t": 129999.86999999994,
      "d": 778.4083125000034,
      "v": 84
    },
    {
      "midi": 60,
      "hit": false,
      "t": 129999.86999999994,
      "d": 804.9234375000087,
      "v": 82
    },
    {
      "midi": 57,
      "hit": false,
      "t": 130908.95999999995,
      "d": 666.666000000012,
      "v": 84
    },
    {
      "midi": 53,
      "hit": false,
      "t": 130908.95999999995,
      "d": 678.0296250000101,
      "v": 82
    },
    {
      "midi": 60,
      "hit": false,
      "t": 130908.95999999995,
      "d": 681.8175000000192,
      "v": 82
    },
    {
      "midi": 55,
      "hit": false,
      "t": 131818.04999999996,
      "d": 426.13593749998836,
      "v": 101
    },
    {
      "midi": 51,
      "hit": false,
      "t": 131818.04999999996,
      "d": 452.6510624999937,
      "v": 96
    },
    {
      "midi": 58,
      "hit": false,
      "t": 131818.04999999996,
      "d": 488.6358750000072,
      "v": 96
    },
    {
      "midi": 50,
      "hit": false,
      "t": 132499.86749999996,
      "d": 225.37856250000186,
      "v": 82
    },
    {
      "midi": 53,
      "hit": false,
      "t": 132499.86749999996,
      "d": 225.37856250000186,
      "v": 96
    },
    {
      "midi": 58,
      "hit": false,
      "t": 132499.86749999996,
      "d": 225.37856250000186,
      "v": 101
    },
    {
      "midi": 48,
      "hit": false,
      "t": 133181.68499999997,
      "d": 965.9081249999872,
      "v": 84
    },
    {
      "midi": 53,
      "hit": false,
      "t": 133181.68499999997,
      "d": 982.9535624999844,
      "v": 96
    },
    {
      "midi": 57,
      "hit": false,
      "t": 133181.68499999997,
      "d": 988.6353749999835,
      "v": 84
    },
    {
      "midi": 57,
      "hit": false,
      "t": 134545.31999999995,
      "d": 717.8023124999891,
      "v": 82
    },
    {
      "midi": 53,
      "hit": false,
      "t": 134545.31999999995,
      "d": 731.0598749999772,
      "v": 72
    },
    {
      "midi": 60,
      "hit": false,
      "t": 134545.31999999995,
      "d": 734.8477499999863,
      "v": 82
    },
    {
      "midi": 55,
      "hit": false,
      "t": 135454.40999999995,
      "d": 479.16618749999907,
      "v": 96
    },
    {
      "midi": 51,
      "hit": false,
      "t": 135454.40999999995,
      "d": 511.3631250000035,
      "v": 76
    },
    {
      "midi": 58,
      "hit": false,
      "t": 135454.40999999995,
      "d": 547.347937500017,
      "v": 72
    },
    {
      "midi": 50,
      "hit": false,
      "t": 136136.22749999995,
      "d": 929.9233125000028,
      "v": 82
    },
    {
      "midi": 53,
      "hit": false,
      "t": 136136.22749999995,
      "d": 945.07481250001,
      "v": 96
    },
    {
      "midi": 58,
      "hit": false,
      "t": 136136.22749999995,
      "d": 962.1202500000072,
      "v": 76
    },
    {
      "midi": 52,
      "hit": false,
      "t": 137272.58999999997,
      "d": 772.7264999999898,
      "v": 72
    },
    {
      "midi": 55,
      "hit": false,
      "t": 137272.58999999997,
      "d": 778.4083124999888,
      "v": 82
    },
    {
      "midi": 60,
      "hit": false,
      "t": 137272.58999999997,
      "d": 814.3931250000023,
      "v": 72
    },
    {
      "midi": 57,
      "hit": false,
      "t": 138181.67999999996,
      "d": 719.6962500000081,
      "v": 82
    },
    {
      "midi": 53,
      "hit": false,
      "t": 138181.67999999996,
      "d": 721.5901874999981,
      "v": 76
    },
    {
      "midi": 60,
      "hit": false,
      "t": 138181.67999999996,
      "d": 723.4841249999881,
      "v": 76
    },
    {
      "midi": 55,
      "hit": false,
      "t": 139090.76999999996,
      "d": 490.5298124999972,
      "v": 96
    },
    {
      "midi": 51,
      "hit": false,
      "t": 139090.76999999996,
      "d": 496.2116249999963,
      "v": 82
    },
    {
      "midi": 58,
      "hit": false,
      "t": 139090.76999999996,
      "d": 579.5448749999923,
      "v": 82
    },
    {
      "midi": 53,
      "hit": false,
      "t": 139772.58749999997,
      "d": 920.4536249999946,
      "v": 96
    },
    {
      "midi": 50,
      "hit": false,
      "t": 139772.58749999997,
      "d": 924.2415000000037,
      "v": 76
    },
    {
      "midi": 58,
      "hit": false,
      "t": 139772.58749999997,
      "d": 946.96875,
      "v": 84
    },
    {
      "midi": 52,
      "hit": false,
      "t": 140908.94999999995,
      "d": 757.5750000000116,
      "v": 84
    },
    {
      "midi": 55,
      "hit": false,
      "t": 140908.94999999995,
      "d": 774.6204375000088,
      "v": 84
    },
    {
      "midi": 60,
      "hit": false,
      "t": 140908.94999999995,
      "d": 806.8173750000133,
      "v": 84
    },
    {
      "midi": 57,
      "hit": false,
      "t": 141818.03999999998,
      "d": 702.6508125000109,
      "v": 82
    },
    {
      "midi": 60,
      "hit": false,
      "t": 141818.03999999998,
      "d": 717.8023125000182,
      "v": 96
    },
    {
      "midi": 53,
      "hit": false,
      "t": 141818.03999999998,
      "d": 727.2720000000263,
      "v": 82
    },
    {
      "midi": 55,
      "hit": false,
      "t": 142727.13,
      "d": 486.7419374999881,
      "v": 96
    },
    {
      "midi": 51,
      "hit": false,
      "t": 142727.13,
      "d": 509.4691874999844,
      "v": 84
    },
    {
      "midi": 58,
      "hit": false,
      "t": 142727.13,
      "d": 535.9843124999898,
      "v": 96
    },
    {
      "midi": 50,
      "hit": false,
      "t": 143408.94749999998,
      "d": 907.1960625000065,
      "v": 82
    },
    {
      "midi": 53,
      "hit": false,
      "t": 143408.94749999998,
      "d": 907.1960625000065,
      "v": 96
    },
    {
      "midi": 58,
      "hit": false,
      "t": 143408.94749999998,
      "d": 907.1960625000065,
      "v": 76
    },
    {
      "midi": 52,
      "hit": false,
      "t": 144545.31,
      "d": 753.7871250000026,
      "v": 76
    },
    {
      "midi": 55,
      "hit": false,
      "t": 144545.31,
      "d": 778.4083124999888,
      "v": 84
    },
    {
      "midi": 60,
      "hit": false,
      "t": 144545.31,
      "d": 804.9234374999942,
      "v": 82
    },
    {
      "midi": 57,
      "hit": false,
      "t": 145454.4,
      "d": 666.6659999999974,
      "v": 84
    },
    {
      "midi": 53,
      "hit": false,
      "t": 145454.4,
      "d": 678.0296249999956,
      "v": 82
    },
    {
      "midi": 60,
      "hit": false,
      "t": 145454.4,
      "d": 681.8175000000047,
      "v": 82
    },
    {
      "midi": 55,
      "hit": false,
      "t": 146363.49,
      "d": 426.13593749998836,
      "v": 101
    },
    {
      "midi": 51,
      "hit": false,
      "t": 146363.49,
      "d": 452.6510624999937,
      "v": 96
    },
    {
      "midi": 58,
      "hit": false,
      "t": 146363.49,
      "d": 488.6358750000072,
      "v": 96
    },
    {
      "midi": 50,
      "hit": false,
      "t": 147045.3075,
      "d": 225.37856250000186,
      "v": 82
    },
    {
      "midi": 53,
      "hit": false,
      "t": 147045.3075,
      "d": 225.37856250000186,
      "v": 96
    },
    {
      "midi": 58,
      "hit": false,
      "t": 147045.3075,
      "d": 225.37856250000186,
      "v": 101
    },
    {
      "midi": 48,
      "hit": false,
      "t": 147727.125,
      "d": 1420.453125,
      "v": 84
    },
    {
      "midi": 53,
      "hit": false,
      "t": 147727.125,
      "d": 1437.4985624999972,
      "v": 96
    },
    {
      "midi": 57,
      "hit": false,
      "t": 147727.125,
      "d": 1443.1803749999963,
      "v": 84
    }
  ]
}