{
  "jsonPath": "Pop/C-Pop/Leon Lai/shi-jie-zhi-zui.json",
  "path": "Pop\\C-Pop\\Leon Lai\\Shi Jie Zhi Zui.mid",
  "name": "Shi Jie Zhi Zui",
  "difficulty": "Advanced",
  "bpm": 160,
  "notes": [
    {
      "midi": 33,
      "hit": false,
      "t": 169562.5,
      "d": 631.25,
      "v": 88
    },
    {
      "midi": 45,
      "hit": false,
      "t": 169568.75,
      "d": 668.75,
      "v": 85
    },
    {
      "midi": 57,
      "hit": false,
      "t": 169765.625,
      "d": 603.125,
      "v": 69
    },
    {
      "midi": 61,
      "hit": false,
      "t": 169946.875,
      "d": 403.125,
      "v": 82
    },
    {
      "midi": 64,
      "hit": false,
      "t": 170118.75,
      "d": 243.75,
      "v": 82
    },
    {
      "midi": 97,
      "hit": false,
      "t": 170315.625,
      "d": 140.625,
      "v": 100
    },
    {
      "midi": 69,
      "hit": false,
      "t": 170318.75,
      "d": 96.875,
      "v": 100
    },
    {
      "midi": 93,
      "hit": false,
      "t": 170496.875,
      "d": 137.5,
      "v": 93
    },
    {
      "midi": 88,
      "hit": false,
      "t": 170675,
      "d": 106.25,
      "v": 100
    },
    {
      "midi": 40,
      "hit": false,
      "t": 171037.5,
      "d": 612.5,
      "v": 100
    },
    {
      "midi": 52,
      "hit": false,
      "t": 171050,
      "d": 668.75,
      "v": 93
    },
    {
      "midi": 59,
      "hit": false,
      "t": 171250,
      "d": 540.625,
      "v": 58
    },
    {
      "midi": 64,
      "hit": false,
      "t": 171415.625,
      "d": 296.875,
      "v": 85
    },
    {
      "midi": 68,
      "hit": false,
      "t": 171593.75,
      "d": 234.375,
      "v": 86
    },
    {
      "midi": 71,
      "hit": false,
      "t": 171784.375,
      "d": 106.25,
      "v": 93
    },
    {
      "midi": 95,
      "hit": false,
      "t": 171790.625,
      "d": 62.5,
      "v": 85
    },
    {
      "midi": 92,
      "hit": false,
      "t": 171956.25,
      "d": 93.75,
      "v": 88
    },
    {
      "midi": 88,
      "hit": false,
      "t": 172143.75,
      "d": 96.875,
      "v": 100
    },
    {
      "midi": 54,
      "hit": false,
      "t": 172518.75,
      "d": 2537.5,
      "v": 88
    },
    {
      "midi": 42,
      "hit": false,
      "t": 172518.75,
      "d": 2546.875,
      "v": 93
    },
    {
      "midi": 66,
      "hit": false,
      "t": 172712.5,
      "d": 156.25,
      "v": 84
    },
    {
      "midi": 69,
      "hit": false,
      "t": 172890.625,
      "d": 168.75,
      "v": 82
    },
    {
      "midi": 73,
      "hit": false,
      "t": 173081.25,
      "d": 187.5,
      "v": 67
    },
    {
      "midi": 78,
      "hit": false,
      "t": 173281.25,
      "d": 59.375,
      "v": 84
    },
    {
      "midi": 81,
      "hit": false,
      "t": 173453.125,
      "d": 165.625,
      "v": 78
    },
    {
      "midi": 85,
      "hit": false,
      "t": 173621.875,
      "d": 184.375,
      "v": 48
    },
    {
      "midi": 90,
      "hit": false,
      "t": 173806.25,
      "d": 84.375,
      "v": 67
    },
    {
      "midi": 93,
      "hit": false,
      "t": 174034.375,
      "d": 175,
      "v": 68
    },
    {
      "midi": 97,
      "hit": false,
      "t": 174203.125,
      "d": 137.5,
      "v": 67
    },
    {
      "midi": 102,
      "hit": false,
      "t": 174384.375,
      "d": 140.625,
      "v": 71
    },
    {
      "midi": 97,
      "hit": false,
      "t": 174556.25,
      "d": 162.5,
      "v": 61
    },
    {
      "midi": 102,
      "hit": false,
      "t": 174721.875,
      "d": 68.75,
      "v": 88
    },
    {
      "midi": 93,
      "hit": false,
      "t": 174753.125,
      "d": 100,
      "v": 75
    },
    {
      "midi": 33,
      "hit": false,
      "t": 175515.625,
      "d": 359.375,
      "v": 90
    },
    {
      "midi": 45,
      "hit": false,
      "t": 175518.75,
      "d": 415.625,
      "v": 78
    },
    {
      "midi": 57,
      "hit": false,
      "t": 175706.25,
      "d": 571.875,
      "v": 68
    },
    {
      "midi": 61,
      "hit": false,
      "t": 175875,
      "d": 368.75,
      "v": 86
    },
    {
      "midi": 64,
      "hit": false,
      "t": 176056.25,
      "d": 240.625,
      "v": 82
    },
    {
      "midi": 85,
      "hit": false,
      "t": 176259.375,
      "d": 159.375,
      "v": 86
    },
    {
      "midi": 69,
      "hit": false,
      "t": 176262.5,
      "d": 78.125,
      "v": 68
    },
    {
      "midi": 81,
      "hit": false,
      "t": 176446.875,
      "d": 187.5,
      "v": 90
    },
    {
      "midi": 76,
      "hit": false,
      "t": 176628.125,
      "d": 90.625,
      "v": 96
    },
    {
      "midi": 73,
      "hit": false,
      "t": 176650,
      "d": 50,
      "v": 97
    },
    {
      "midi": 40,
      "hit": false,
      "t": 177021.875,
      "d": 659.375,
      "v": 102
    },
    {
      "midi": 52,
      "hit": false,
      "t": 177031.25,
      "d": 684.375,
      "v": 96
    },
    {
      "midi": 64,
      "hit": false,
      "t": 177203.125,
      "d": 556.25,
      "v": 85
    },
    {
      "midi": 68,
      "hit": false,
      "t": 177378.125,
      "d": 275,
      "v": 93
    },
    {
      "midi": 71,
      "hit": false,
      "t": 177553.125,
      "d": 218.75,
      "v": 68
    },
    {
      "midi": 83,
      "hit": false,
      "t": 177759.375,
      "d": 90.625,
      "v": 85
    },
    {
      "midi": 76,
      "hit": false,
      "t": 177778.125,
      "d": 71.875,
      "v": 85
    },
    {
      "midi": 80,
      "hit": false,
      "t": 177928.125,
      "d": 59.375,
      "v": 88
    },
    {
      "midi": 76,
      "hit": false,
      "t": 178118.75,
      "d": 81.25,
      "v": 96
    },
    {
      "midi": 80,
      "hit": false,
      "t": 178134.375,
      "d": 37.5,
      "v": 86
    },
    {
      "midi": 81,
      "hit": false,
      "t": 178478.125,
      "d": 71.875,
      "v": 100
    },
    {
      "midi": 54,
      "hit": false,
      "t": 178496.875,
      "d": 90.625,
      "v": 82
    },
    {
      "midi": 61,
      "hit": false,
      "t": 178500,
      "d": 75,
      "v": 88
    },
    {
      "midi": 69,
      "hit": false,
      "t": 178506.25,
      "d": 71.875,
      "v": 78
    },
    {
      "midi": 81,
      "hit": false,
      "t": 178653.125,
      "d": 43.75,
      "v": 88
    },
    {
      "midi": 61,
      "hit": false,
      "t": 178696.875,
      "d": 28.125,
      "v": 69
    },
    {
      "midi": 69,
      "hit": false,
      "t": 178706.25,
      "d": 28.125,
      "v": 58
    },
    {
      "midi": 81,
      "hit": false,
      "t": 178753.125,
      "d": 43.75,
      "v": 69
    },
    {
      "midi": 61,
      "hit": false,
      "t": 178800,
      "d": 18.75,
      "v": 71
    },
    {
      "midi": 81,
      "hit": false,
      "t": 178831.25,
      "d": 87.5,
      "v": 98
    },
    {
      "midi": 69,
      "hit": false,
      "t": 178868.75,
      "d": 68.75,
      "v": 78
    },
    {
      "midi": 61,
      "hit": false,
      "t": 178871.875,
      "d": 59.375,
      "v": 100
    },
    {
      "midi": 54,
      "hit": false,
      "t": 178890.625,
      "d": 62.5,
      "v": 93
    },
    {
      "midi": 80,
      "hit": false,
      "t": 179025,
      "d": 59.375,
      "v": 103
    },
    {
      "midi": 68,
      "hit": false,
      "t": 179053.125,
      "d": 59.375,
      "v": 105
    },
    {
      "midi": 59,
      "hit": false,
      "t": 179056.25,
      "d": 53.125,
      "v": 69
    },
    {
      "midi": 81,
      "hit": false,
      "t": 179212.5,
      "d": 75,
      "v": 100
    },
    {
      "midi": 54,
      "hit": false,
      "t": 179250,
      "d": 75,
      "v": 97
    },
    {
      "midi": 61,
      "hit": false,
      "t": 179256.25,
      "d": 53.125,
      "v": 100
    },
    {
      "midi": 69,
      "hit": false,
      "t": 179256.25,
      "d": 71.875,
      "v": 102
    },
    {
      "midi": 81,
      "hit": false,
      "t": 179403.125,
      "d": 43.75,
      "v": 98
    },
    {
      "midi": 61,
      "hit": false,
      "t": 179443.75,
      "d": 34.375,
      "v": 93
    },
    {
      "midi": 69,
      "hit": false,
      "t": 179450,
      "d": 28.125,
      "v": 72
    },
    {
      "midi": 81,
      "hit": false,
      "t": 179512.5,
      "d": 40.625,
      "v": 93
    },
    {
      "midi": 61,
      "hit": false,
      "t": 179546.875,
      "d": 34.375,
      "v": 97
    },
    {
      "midi": 69,
      "hit": false,
      "t": 179553.125,
      "d": 28.125,
      "v": 69
    },
    {
      "midi": 81,
      "hit": false,
      "t": 179587.5,
      "d": 75,
      "v": 88
    },
    {
      "midi": 61,
      "hit": false,
      "t": 179625,
      "d": 65.625,
      "v": 103
    },
    {
      "midi": 69,
      "hit": false,
      "t": 179631.25,
      "d": 87.5,
      "v": 98
    },
    {
      "midi": 54,
      "hit": false,
      "t": 179640.625,
      "d": 62.5,
      "v": 88
    },
    {
      "midi": 80,
      "hit": false,
      "t": 179796.875,
      "d": 68.75,
      "v": 100
    },
    {
      "midi": 59,
      "hit": false,
      "t": 179834.375,
      "d": 59.375,
      "v": 63
    },
    {
      "midi": 68,
      "hit": false,
      "t": 179837.5,
      "d": 50,
      "v": 97
    },
    {
      "midi": 61,
      "hit": false,
      "t": 180009.375,
      "d": 112.5,
      "v": 113
    },
    {
      "midi": 69,
      "hit": false,
      "t": 180009.375,
      "d": 131.25,
      "v": 107
    },
    {
      "midi": 78,
      "hit": false,
      "t": 180015.625,
      "d": 87.5,
      "v": 105
    },
    {
      "midi": 54,
      "hit": false,
      "t": 180015.625,
      "d": 137.5,
      "v": 107
    },
    {
      "midi": 81,
      "hit": false,
      "t": 180018.75,
      "d": 115.625,
      "v": 98
    }
  ]
}