{
  "jsonPath": "Pop/C-Pop/Leon Lai/yi-miao-zhong-liang-ge-shi-jie.json",
  "path": "Pop\\C-Pop\\Leon Lai\\Yi Miao Zhong Liang Ge Shi Jie.mid",
  "name": "Yi Miao Zhong Liang Ge Shi Jie",
  "difficulty": "Advanced",
  "bpm": 120,
  "notes": [
    {
      "midi": 79,
      "hit": false,
      "t": 2883.333333333333,
      "d": 233.33333333333348,
      "v": 71
    },
    {
      "midi": 67,
      "hit": false,
      "t": 3116.6666666666665,
      "d": 250,
      "v": 71
    },
    {
      "midi": 72,
      "hit": false,
      "t": 3366.6666666666665,
      "d": 233.33333333333348,
      "v": 79
    },
    {
      "midi": 74,
      "hit": false,
      "t": 3600,
      "d": 250,
      "v": 79
    },
    {
      "midi": 48,
      "hit": false,
      "t": 3850,
      "d": 483.33333333333303,
      "v": 67
    },
    {
      "midi": 74,
      "hit": false,
      "t": 3850,
      "d": 483.33333333333303,
      "v": 84
    },
    {
      "midi": 72,
      "hit": false,
      "t": 4333.333333333333,
      "d": 233.33333333333303,
      "v": 52
    },
    {
      "midi": 55,
      "hit": false,
      "t": 4333.333333333333,
      "d": 466.66666666666606,
      "v": 37
    },
    {
      "midi": 72,
      "hit": false,
      "t": 4566.666666666666,
      "d": 1683.3333333333321,
      "v": 79
    },
    {
      "midi": 64,
      "hit": false,
      "t": 4799.999999999999,
      "d": 483.33333333333303,
      "v": 51
    },
    {
      "midi": 55,
      "hit": false,
      "t": 5283.333333333332,
      "d": 250,
      "v": 45
    },
    {
      "midi": 67,
      "hit": false,
      "t": 5766.666666666665,
      "d": 250,
      "v": 46
    },
    {
      "midi": 79,
      "hit": false,
      "t": 6733.333333333331,
      "d": 233.33333333333303,
      "v": 68
    },
    {
      "midi": 67,
      "hit": false,
      "t": 6966.666666666664,
      "d": 250,
      "v": 58
    },
    {
      "midi": 72,
      "hit": false,
      "t": 7216.666666666664,
      "d": 233.33333333333303,
      "v": 79
    },
    {
      "midi": 74,
      "hit": false,
      "t": 7449.999999999997,
      "d": 233.33333333333303,
      "v": 95
    },
    {
      "midi": 45,
      "hit": false,
      "t": 7683.33333333333,
      "d": 250,
      "v": 66
    },
    {
      "midi": 74,
      "hit": false,
      "t": 7683.33333333333,
      "d": 1683.3333333333358,
      "v": 95
    },
    {
      "midi": 55,
      "hit": false,
      "t": 8166.666666666663,
      "d": 250.0000000000009,
      "v": 55
    },
    {
      "midi": 72,
      "hit": false,
      "t": 8166.666666666663,
      "d": 250.0000000000009,
      "v": 62
    },
    {
      "midi": 76,
      "hit": false,
      "t": 8416.666666666664,
      "d": 716.6666666666679,
      "v": 68
    },
    {
      "midi": 67,
      "hit": false,
      "t": 8649.999999999998,
      "d": 250,
      "v": 56
    },
    {
      "midi": 62,
      "hit": false,
      "t": 9133.333333333332,
      "d": 483.33333333333394,
      "v": 50
    },
    {
      "midi": 64,
      "hit": false,
      "t": 9616.666666666666,
      "d": 716.6666666666661,
      "v": 56
    },
    {
      "midi": 76,
      "hit": false,
      "t": 9616.666666666666,
      "d": 716.6666666666661,
      "v": 56
    },
    {
      "midi": 74,
      "hit": false,
      "t": 10099.999999999998,
      "d": 233.33333333333394,
      "v": 45
    },
    {
      "midi": 62,
      "hit": false,
      "t": 10099.999999999998,
      "d": 466.6666666666679,
      "v": 2
    },
    {
      "midi": 76,
      "hit": false,
      "t": 10566.666666666666,
      "d": 16.66666666666606,
      "v": 57
    },
    {
      "midi": 79,
      "hit": false,
      "t": 10566.666666666666,
      "d": 250,
      "v": 71
    },
    {
      "midi": 67,
      "hit": false,
      "t": 10816.666666666666,
      "d": 233.33333333333394,
      "v": 63
    },
    {
      "midi": 72,
      "hit": false,
      "t": 11050,
      "d": 250,
      "v": 71
    },
    {
      "midi": 74,
      "hit": false,
      "t": 11300,
      "d": 233.33333333333394,
      "v": 87
    },
    {
      "midi": 41,
      "hit": false,
      "t": 11533.333333333334,
      "d": 483.3333333333321,
      "v": 68
    },
    {
      "midi": 74,
      "hit": false,
      "t": 11533.333333333334,
      "d": 483.3333333333321,
      "v": 84
    },
    {
      "midi": 72,
      "hit": false,
      "t": 12016.666666666666,
      "d": 233.33333333333394,
      "v": 63
    },
    {
      "midi": 48,
      "hit": false,
      "t": 12016.666666666666,
      "d": 483.33333333333394,
      "v": 53
    },
    {
      "midi": 72,
      "hit": false,
      "t": 12250,
      "d": 483.33333333333394,
      "v": 84
    },
    {
      "midi": 60,
      "hit": false,
      "t": 12500,
      "d": 233.33333333333394,
      "v": 63
    },
    {
      "midi": 72,
      "hit": false,
      "t": 12983.333333333334,
      "d": 233.33333333333394,
      "v": 58
    },
    {
      "midi": 74,
      "hit": false,
      "t": 13216.666666666668,
      "d": 250,
      "v": 69
    },
    {
      "midi": 38,
      "hit": false,
      "t": 13466.666666666668,
      "d": 466.66666666666606,
      "v": 64
    },
    {
      "midi": 74,
      "hit": false,
      "t": 13466.666666666668,
      "d": 466.66666666666606,
      "v": 91
    },
    {
      "midi": 45,
      "hit": false,
      "t": 13933.333333333334,
      "d": 250,
      "v": 41
    },
    {
      "midi": 72,
      "hit": false,
      "t": 13933.333333333334,
      "d": 250,
      "v": 60
    },
    {
      "midi": 45,
      "hit": false,
      "t": 14183.333333333334,
      "d": 233.33333333333394,
      "v": 7
    },
    {
      "midi": 72,
      "hit": false,
      "t": 14183.333333333334,
      "d": 483.33333333333394,
      "v": 66
    },
    {
      "midi": 57,
      "hit": false,
      "t": 14416.666666666668,
      "d": 483.33333333333394,
      "v": 53
    },
    {
      "midi": 69,
      "hit": false,
      "t": 14900.000000000002,
      "d": 233.33333333333394,
      "v": 64
    },
    {
      "midi": 43,
      "hit": false,
      "t": 15383.333333333336,
      "d": 483.33333333333394,
      "v": 56
    },
    {
      "midi": 69,
      "hit": false,
      "t": 15383.333333333336,
      "d": 1433.3333333333321,
      "v": 82
    },
    {
      "midi": 50,
      "hit": false,
      "t": 15866.66666666667,
      "d": 233.33333333333394,
      "v": 61
    },
    {
      "midi": 55,
      "hit": false,
      "t": 16350.000000000004,
      "d": 233.33333333333212,
      "v": 55
    },
    {
      "midi": 67,
      "hit": false,
      "t": 16816.666666666668,
      "d": 250,
      "v": 43
    },
    {
      "midi": 67,
      "hit": false,
      "t": 17300,
      "d": 250,
      "v": 82
    },
    {
      "midi": 43,
      "hit": false,
      "t": 17300,
      "d": 966.6666666666642,
      "v": 63
    },
    {
      "midi": 50,
      "hit": false,
      "t": 17783.333333333332,
      "d": 250,
      "v": 50
    },
    {
      "midi": 55,
      "hit": false,
      "t": 18033.333333333332,
      "d": 233.33333333333212,
      "v": 42
    },
    {
      "midi": 79,
      "hit": false,
      "t": 18266.666666666664,
      "d": 233.33333333333212,
      "v": 71
    },
    {
      "midi": 67,
      "hit": false,
      "t": 18499.999999999996,
      "d": 250,
      "v": 71
    },
    {
      "midi": 72,
      "hit": false,
      "t": 18749.999999999996,
      "d": 233.33333333333212,
      "v": 79
    },
    {
      "midi": 74,
      "hit": false,
      "t": 18983.33333333333,
      "d": 250,
      "v": 79
    },
    {
      "midi": 48,
      "hit": false,
      "t": 19233.33333333333,
      "d": 466.6666666666679,
      "v": 67
    },
    {
      "midi": 74,
      "hit": false,
      "t": 19233.33333333333,
      "d": 466.6666666666679,
      "v": 84
    },
    {
      "midi": 72,
      "hit": false,
      "t": 19699.999999999996,
      "d": 250,
      "v": 52
    },
    {
      "midi": 55,
      "hit": false,
      "t": 19699.999999999996,
      "d": 483.3333333333321,
      "v": 37
    },
    {
      "midi": 72,
      "hit": false,
      "t": 19949.999999999996,
      "d": 483.3333333333321,
      "v": 79
    },
    {
      "midi": 64,
      "hit": false,
      "t": 20183.33333333333,
      "d": 483.3333333333321,
      "v": 51
    },
    {
      "midi": 72,
      "hit": false,
      "t": 20433.33333333333,
      "d": 233.33333333333212,
      "v": 42
    },
    {
      "midi": 55,
      "hit": false,
      "t": 20666.66666666666,
      "d": 250,
      "v": 45
    },
    {
      "midi": 71,
      "hit": false,
      "t": 20666.66666666666,
      "d": 250,
      "v": 50
    },
    {
      "midi": 72,
      "hit": false,
      "t": 20916.66666666666,
      "d": 233.33333333333212,
      "v": 73
    },
    {
      "midi": 67,
      "hit": false,
      "t": 21149.999999999993,
      "d": 233.33333333333212,
      "v": 46
    },
    {
      "midi": 71,
      "hit": false,
      "t": 21149.999999999993,
      "d": 233.33333333333212,
      "v": 67
    },
    {
      "midi": 69,
      "hit": false,
      "t": 21383.333333333325,
      "d": 250,
      "v": 47
    },
    {
      "midi": 67,
      "hit": false,
      "t": 21633.333333333325,
      "d": 233.33333333333212,
      "v": 43
    },
    {
      "midi": 65,
      "hit": false,
      "t": 21866.666666666657,
      "d": 250,
      "v": 48
    },
    {
      "midi": 64,
      "hit": false,
      "t": 22116.666666666657,
      "d": 233.33333333333212,
      "v": 43
    },
    {
      "midi": 79,
      "hit": false,
      "t": 22116.666666666657,
      "d": 233.33333333333212,
      "v": 68
    },
    {
      "midi": 62,
      "hit": false,
      "t": 22349.99999999999,
      "d": 233.33333333333212,
      "v": 43
    },
    {
      "midi": 67,
      "hit": false,
      "t": 22349.99999999999,
      "d": 233.33333333333212,
      "v": 58
    },
    {
      "midi": 60,
      "hit": false,
      "t": 22583.33333333332,
      "d": 250,
      "v": 56
    },
    {
      "midi": 72,
      "hit": false,
      "t": 22583.33333333332,
      "d": 250,
      "v": 79
    },
    {
      "midi": 59,
      "hit": false,
      "t": 22833.33333333332,
      "d": 233.33333333333212,
      "v": 61
    },
    {
      "midi": 74,
      "hit": false,
      "t": 22833.33333333332,
      "d": 233.33333333333212,
      "v": 95
    },
    {
      "midi": 45,
      "hit": false,
      "t": 23066.666666666653,
      "d": 250,
      "v": 66
    },
    {
      "midi": 57,
      "hit": false,
      "t": 23066.666666666653,
      "d": 250,
      "v": 56
    },
    {
      "midi": 74,
      "hit": false,
      "t": 23066.666666666653,
      "d": 1683.3333333333321,
      "v": 95
    },
    {
      "midi": 55,
      "hit": false,
      "t": 23549.99999999999,
      "d": 250,
      "v": 55
    },
    {
      "midi": 72,
      "hit": false,
      "t": 23549.99999999999,
      "d": 250,
      "v": 62
    },
    {
      "midi": 76,
      "hit": false,
      "t": 23799.99999999999,
      "d": 716.6666666666642,
      "v": 68
    },
    {
      "midi": 67,
      "hit": false,
      "t": 24033.33333333332,
      "d": 233.33333333333212,
      "v": 56
    },
    {
      "midi": 72,
      "hit": false,
      "t": 24266.666666666653,
      "d": 250,
      "v": 42
    },
    {
      "midi": 71,
      "hit": false,
      "t": 24516.666666666653,
      "d": 233.33333333333212,
      "v": 50
    },
    {
      "midi": 62,
      "hit": false,
      "t": 24516.666666666653,
      "d": 483.3333333333321,
      "v": 50
    },
    {
      "midi": 72,
      "hit": false,
      "t": 24749.999999999985,
      "d": 250,
      "v": 73
    },
    {
      "midi": 71,
      "hit": false,
      "t": 24999.999999999985,
      "d": 233.33333333333212,
      "v": 67
    },
    {
      "midi": 64,
      "hit": false,
      "t": 24999.999999999985,
      "d": 716.6666666666642,
      "v": 56
    },
    {
      "midi": 76,
      "hit": false,
      "t": 24999.999999999985,
      "d": 716.6666666666642,
      "v": 56
    },
    {
      "midi": 69,
      "hit": false,
      "t": 25233.333333333318,
      "d": 250,
      "v": 47
    },
    {
      "midi": 67,
      "hit": false,
      "t": 25483.333333333318,
      "d": 233.33333333333212,
      "v": 43
    },
    {
      "midi": 74,
      "hit": false,
      "t": 25483.333333333318,
      "d": 233.33333333333212,
      "v": 45
    },
    {
      "midi": 62,
      "hit": false,
      "t": 25483.333333333318,
      "d": 466.66666666666424,
      "v": 2
    },
    {
      "midi": 65,
      "hit": false,
      "t": 25716.66666666665,
      "d": 233.33333333333212,
      "v": 48
    },
    {
      "midi": 76,
      "hit": false,
      "t": 25949.99999999998,
      "d": 16.66666666666788,
      "v": 57
    },
    {
      "midi": 64,
      "hit": false,
      "t": 25949.99999999998,
      "d": 250,
      "v": 43
    },
    {
      "midi": 79,
      "hit": false,
      "t": 25949.99999999998,
      "d": 250,
      "v": 71
    },
    {
      "midi": 62,
      "hit": false,
      "t": 26199.99999999998,
      "d": 233.33333333333212,
      "v": 43
    },
    {
      "midi": 67,
      "hit": false,
      "t": 26199.99999999998,
      "d": 233.33333333333212,
      "v": 63
    },
    {
      "midi": 60,
      "hit": false,
      "t": 26433.333333333314,
      "d": 250,
      "v": 56
    },
    {
      "midi": 72,
      "hit": false,
      "t": 26433.333333333314,
      "d": 250,
      "v": 71
    },
    {
      "midi": 59,
      "hit": false,
      "t": 26683.333333333314,
      "d": 233.33333333333212,
      "v": 61
    },
    {
      "midi": 74,
      "hit": false,
      "t": 26683.333333333314,
      "d": 233.33333333333212,
      "v": 87
    },
    {
      "midi": 57,
      "hit": false,
      "t": 26916.666666666646,
      "d": 233.33333333333576,
      "v": 56
    },
    {
      "midi": 41,
      "hit": false,
      "t": 26916.666666666646,
      "d": 483.33333333333576,
      "v": 68
    },
    {
      "midi": 74,
      "hit": false,
      "t": 26916.666666666646,
      "d": 483.33333333333576,
      "v": 84
    },
    {
      "midi": 72,
      "hit": false,
      "t": 27399.99999999998,
      "d": 233.33333333333212,
      "v": 63
    },
    {
      "midi": 48,
      "hit": false,
      "t": 27399.99999999998,
      "d": 483.3333333333321,
      "v": 53
    },
    {
      "midi": 72,
      "hit": false,
      "t": 27633.333333333314,
      "d": 483.3333333333321,
      "v": 84
    },
    {
      "midi": 60,
      "hit": false,
      "t": 27883.333333333314,
      "d": 233.33333333333212,
      "v": 63
    },
    {
      "midi": 72,
      "hit": false,
      "t": 28366.666666666646,
      "d": 233.33333333333212,
      "v": 58
    },
    {
      "midi": 74,
      "hit": false,
      "t": 28599.999999999978,
      "d": 233.33333333333576,
      "v": 69
    },
    {
      "midi": 38,
      "hit": false,
      "t": 28833.333333333314,
      "d": 483.3333333333321,
      "v": 64
    },
    {
      "midi": 74,
      "hit": false,
      "t": 28833.333333333314,
      "d": 483.3333333333321,
      "v": 91
    },
    {
      "midi": 45,
      "hit": false,
      "t": 29316.666666666646,
      "d": 250,
      "v": 41
    },
    {
      "midi": 72,
      "hit": false,
      "t": 29316.666666666646,
      "d": 250,
      "v": 60
    },
    {
      "midi": 45,
      "hit": false,
      "t": 29566.666666666646,
      "d": 233.33333333333212,
      "v": 7
    },
    {
      "midi": 72,
      "hit": false,
      "t": 29566.666666666646,
      "d": 483.3333333333321,
      "v": 66
    },
    {
      "midi": 57,
      "hit": false,
      "t": 29799.999999999978,
      "d": 483.3333333333321,
      "v": 53
    },
    {
      "midi": 69,
      "hit": false,
      "t": 30283.33333333331,
      "d": 233.33333333333212,
      "v": 64
    },
    {
      "midi": 43,
      "hit": false,
      "t": 30766.666666666642,
      "d": 483.3333333333321,
      "v": 56
    },
    {
      "midi": 69,
      "hit": false,
      "t": 30766.666666666642,
      "d": 1433.3333333333285,
      "v": 82
    },
    {
      "midi": 50,
      "hit": false,
      "t": 31249.999999999975,
      "d": 233.33333333333212,
      "v": 61
    },
    {
      "midi": 55,
      "hit": false,
      "t": 31716.66666666664,
      "d": 250,
      "v": 55
    },
    {
      "midi": 67,
      "hit": false,
      "t": 32199.99999999997,
      "d": 250,
      "v": 43
    },
    {
      "midi": 67,
      "hit": false,
      "t": 32683.333333333303,
      "d": 249.99999999999636,
      "v": 82
    },
    {
      "midi": 43,
      "hit": false,
      "t": 32683.333333333303,
      "d": 966.6666666666679,
      "v": 63
    },
    {
      "midi": 50,
      "hit": false,
      "t": 33166.666666666635,
      "d": 233.33333333333576,
      "v": 50
    },
    {
      "midi": 55,
      "hit": false,
      "t": 33399.99999999997,
      "d": 250,
      "v": 42
    },
    {
      "midi": 31,
      "hit": false,
      "t": 33616.666666666635,
      "d": 566.6666666666715,
      "v": 64
    },
    {
      "midi": 43,
      "hit": false,
      "t": 34599.99999999997,
      "d": 1816.666666666657,
      "v": 73
    },
    {
      "midi": 55,
      "hit": false,
      "t": 34849.99999999997,
      "d": 1433.3333333333212,
      "v": 41
    },
    {
      "midi": 57,
      "hit": false,
      "t": 35083.33333333331,
      "d": 133.33333333333576,
      "v": 42
    },
    {
      "midi": 65,
      "hit": false,
      "t": 35333.33333333331,
      "d": 116.66666666666424,
      "v": 66
    },
    {
      "midi": 57,
      "hit": false,
      "t": 35566.666666666635,
      "d": 116.66666666666424,
      "v": 53
    },
    {
      "midi": 60,
      "hit": false,
      "t": 35816.666666666635,
      "d": 116.66666666666424,
      "v": 45
    },
    {
      "midi": 65,
      "hit": false,
      "t": 36049.99999999996,
      "d": 116.66666666666424,
      "v": 48
    },
    {
      "midi": 60,
      "hit": false,
      "t": 36283.33333333329,
      "d": 133.33333333333576,
      "v": 45
    },
    {
      "midi": 59,
      "hit": false,
      "t": 36533.33333333329,
      "d": 350,
      "v": 52
    },
    {
      "midi": 43,
      "hit": false,
      "t": 36533.33333333329,
      "d": 2399.999999999978,
      "v": 56
    },
    {
      "midi": 55,
      "hit": false,
      "t": 36766.66666666663,
      "d": 1199.9999999999854,
      "v": 26
    },
    {
      "midi": 62,
      "hit": false,
      "t": 37016.66666666663,
      "d": 116.66666666666424,
      "v": 46
    },
    {
      "midi": 67,
      "hit": false,
      "t": 37249.999999999956,
      "d": 116.66666666666424,
      "v": 53
    },
    {
      "midi": 71,
      "hit": false,
      "t": 37733.333333333285,
      "d": 116.66666666666424,
      "v": 35
    },
    {
      "midi": 74,
      "hit": false,
      "t": 37966.66666666661,
      "d": 133.33333333333576,
      "v": 30
    },
    {
      "midi": 55,
      "hit": false,
      "t": 38216.66666666661,
      "d": 716.666666666657,
      "v": 38
    },
    {
      "midi": 79,
      "hit": false,
      "t": 38333.33333333328,
      "d": 116.66666666666424,
      "v": 17
    },
    {
      "midi": 83,
      "hit": false,
      "t": 38333.33333333328,
      "d": 116.66666666666424,
      "v": 19
    },
    {
      "midi": 86,
      "hit": false,
      "t": 38449.99999999994,
      "d": 116.66666666666424,
      "v": 35
    },
    {
      "midi": 91,
      "hit": false,
      "t": 38449.99999999994,
      "d": 116.66666666666424,
      "v": 64
    },
    {
      "midi": 76,
      "hit": false,
      "t": 40383.33333333328,
      "d": 466.66666666666424,
      "v": 84
    },
    {
      "midi": 48,
      "hit": false,
      "t": 40383.33333333328,
      "d": 2633.333333333343,
      "v": 71
    },
    {
      "midi": 55,
      "hit": false,
      "t": 40849.99999999994,
      "d": 483.33333333333576,
      "v": 52
    },
    {
      "midi": 67,
      "hit": false,
      "t": 41333.33333333328,
      "d": 250,
      "v": 56
    },
    {
      "midi": 60,
      "hit": false,
      "t": 41333.33333333328,
      "d": 483.33333333333576,
      "v": 56
    },
    {
      "midi": 62,
      "hit": false,
      "t": 41816.66666666661,
      "d": 250,
      "v": 48
    },
    {
      "midi": 55,
      "hit": false,
      "t": 41816.66666666661,
      "d": 483.33333333333576,
      "v": 42
    },
    {
      "midi": 60,
      "hit": false,
      "t": 42299.99999999995,
      "d": 233.33333333333576,
      "v": 56
    },
    {
      "midi": 64,
      "hit": false,
      "t": 42299.99999999995,
      "d": 233.33333333333576,
      "v": 87
    },
    {
      "midi": 60,
      "hit": false,
      "t": 42783.333333333285,
      "d": 233.33333333333576,
      "v": 26
    },
    {
      "midi": 40,
      "hit": false,
      "t": 44216.66666666662,
      "d": 483.3333333333285,
      "v": 64
    },
    {
      "midi": 71,
      "hit": false,
      "t": 44216.66666666662,
      "d": 483.3333333333285,
      "v": 84
    },
    {
      "midi": 64,
      "hit": false,
      "t": 44699.99999999995,
      "d": 250,
      "v": 55
    },
    {
      "midi": 47,
      "hit": false,
      "t": 44699.99999999995,
      "d": 483.33333333333576,
      "v": 48
    },
    {
      "midi": 52,
      "hit": false,
      "t": 45183.333333333285,
      "d": 233.33333333333576,
      "v": 56
    },
    {
      "midi": 67,
      "hit": false,
      "t": 45183.333333333285,
      "d": 483.33333333333576,
      "v": 48
    },
    {
      "midi": 64,
      "hit": false,
      "t": 45666.66666666662,
      "d": 233.33333333333576,
      "v": 35
    },
    {
      "midi": 55,
      "hit": false,
      "t": 45666.66666666662,
      "d": 483.33333333333576,
      "v": 46
    },
    {
      "midi": 67,
      "hit": false,
      "t": 46149.999999999956,
      "d": 233.33333333333576,
      "v": 68
    },
    {
      "midi": 59,
      "hit": false,
      "t": 46149.999999999956,
      "d": 716.6666666666715,
      "v": 69
    },
    {
      "midi": 55,
      "hit": false,
      "t": 46866.66666666663,
      "d": 233.33333333333576,
      "v": 33
    },
    {
      "midi": 59,
      "hit": false,
      "t": 47099.99999999996,
      "d": 250,
      "v": 48
    },
    {
      "midi": 62,
      "hit": false,
      "t": 47099.99999999996,
      "d": 250,
      "v": 73
    },
    {
      "midi": 71,
      "hit": false,
      "t": 47099.99999999996,
      "d": 250,
      "v": 61
    },
    {
      "midi": 45,
      "hit": false,
      "t": 48066.666666666635,
      "d": 2650.0000000000073,
      "v": 67
    },
    {
      "midi": 72,
      "hit": false,
      "t": 48299.99999999996,
      "d": 250,
      "v": 46
    },
    {
      "midi": 71,
      "hit": false,
      "t": 48549.99999999996,
      "d": 233.33333333333576,
      "v": 82
    },
    {
      "midi": 72,
      "hit": false,
      "t": 48783.3333333333,
      "d": 250,
      "v": 115
    },
    {
      "midi": 50,
      "hit": false,
      "t": 48783.3333333333,
      "d": 1450.0000000000073,
      "v": 13
    },
    {
      "midi": 71,
      "hit": false,
      "t": 49033.3333333333,
      "d": 233.33333333333576,
      "v": 79
    },
    {
      "midi": 53,
      "hit": false,
      "t": 49033.3333333333,
      "d": 950.0000000000073,
      "v": 10
    },
    {
      "midi": 69,
      "hit": false,
      "t": 49266.666666666635,
      "d": 250,
      "v": 55
    },
    {
      "midi": 67,
      "hit": false,
      "t": 49516.666666666635,
      "d": 233.33333333333576,
      "v": 45
    },
    {
      "midi": 64,
      "hit": false,
      "t": 49749.99999999997,
      "d": 233.33333333333576,
      "v": 43
    },
    {
      "midi": 62,
      "hit": false,
      "t": 49983.33333333331,
      "d": 250,
      "v": 47
    },
    {
      "midi": 60,
      "hit": false,
      "t": 50233.33333333331,
      "d": 233.33333333333576,
      "v": 30
    },
    {
      "midi": 59,
      "hit": false,
      "t": 50466.66666666664,
      "d": 250,
      "v": 38
    },
    {
      "midi": 57,
      "hit": false,
      "t": 50716.66666666664,
      "d": 233.33333333333576,
      "v": 41
    },
    {
      "midi": 59,
      "hit": false,
      "t": 50949.99999999998,
      "d": 233.33333333333576,
      "v": 99
    },
    {
      "midi": 60,
      "hit": false,
      "t": 51183.333333333314,
      "d": 250,
      "v": 60
    },
    {
      "midi": 40,
      "hit": false,
      "t": 51916.66666666664,
      "d": 483.33333333333576,
      "v": 60
    },
    {
      "midi": 71,
      "hit": false,
      "t": 51916.66666666664,
      "d": 716.6666666666715,
      "v": 38
    },
    {
      "midi": 47,
      "hit": false,
      "t": 52399.99999999998,
      "d": 233.33333333333576,
      "v": 55
    },
    {
      "midi": 71,
      "hit": false,
      "t": 52866.66666666665,
      "d": 483.33333333333576,
      "v": 53
    },
    {
      "midi": 52,
      "hit": false,
      "t": 52866.66666666665,
      "d": 1933.3333333333358,
      "v": 45
    },
    {
      "midi": 55,
      "hit": false,
      "t": 53349.999999999985,
      "d": 483.33333333333576,
      "v": 38
    },
    {
      "midi": 67,
      "hit": false,
      "t": 53833.33333333332,
      "d": 250,
      "v": 57
    },
    {
      "midi": 59,
      "hit": false,
      "t": 53833.33333333332,
      "d": 716.6666666666642,
      "v": 46
    },
    {
      "midi": 55,
      "hit": false,
      "t": 54549.999999999985,
      "d": 250,
      "v": 32
    },
    {
      "midi": 59,
      "hit": false,
      "t": 54549.999999999985,
      "d": 250,
      "v": 47
    },
    {
      "midi": 67,
      "hit": false,
      "t": 54799.999999999985,
      "d": 233.33333333333576,
      "v": 66
    },
    {
      "midi": 76,
      "hit": false,
      "t": 55033.33333333332,
      "d": 250,
      "v": 82
    },
    {
      "midi": 71,
      "hit": false,
      "t": 55283.33333333332,
      "d": 233.33333333333576,
      "v": 10
    },
    {
      "midi": 67,
      "hit": false,
      "t": 55516.66666666666,
      "d": 233.33333333333576,
      "v": 45
    },
    {
      "midi": 41,
      "hit": false,
      "t": 55749.99999999999,
      "d": 483.33333333333576,
      "v": 63
    },
    {
      "midi": 69,
      "hit": false,
      "t": 55749.99999999999,
      "d": 733.3333333333358,
      "v": 76
    },
    {
      "midi": 48,
      "hit": false,
      "t": 56233.33333333333,
      "d": 250,
      "v": 42
    },
    {
      "midi": 53,
      "hit": false,
      "t": 56716.666666666664,
      "d": 483.33333333333576,
      "v": 42
    },
    {
      "midi": 72,
      "hit": false,
      "t": 56716.666666666664,
      "d": 716.6666666666715,
      "v": 64
    },
    {
      "midi": 60,
      "hit": false,
      "t": 57200,
      "d": 233.33333333333576,
      "v": 42
    },
    {
      "midi": 65,
      "hit": false,
      "t": 57433.333333333336,
      "d": 250,
      "v": 33
    },
    {
      "midi": 72,
      "hit": false,
      "t": 57683.333333333336,
      "d": 233.33333333332848,
      "v": 48
    },
    {
      "midi": 67,
      "hit": false,
      "t": 57683.333333333336,
      "d": 483.3333333333285,
      "v": 68
    },
    {
      "midi": 52,
      "hit": false,
      "t": 57683.333333333336,
      "d": 950,
      "v": 66
    },
    {
      "midi": 64,
      "hit": false,
      "t": 58166.666666666664,
      "d": 233.33333333333576,
      "v": 31
    },
    {
      "midi": 64,
      "hit": false,
      "t": 58633.333333333336,
      "d": 483.33333333333576,
      "v": 64
    },
    {
      "midi": 72,
      "hit": false,
      "t": 58633.333333333336,
      "d": 483.33333333333576,
      "v": 64
    },
    {
      "midi": 67,
      "hit": false,
      "t": 59116.66666666667,
      "d": 250,
      "v": 43
    },
    {
      "midi": 64,
      "hit": false,
      "t": 59366.66666666667,
      "d": 233.33333333332848,
      "v": 58
    },
    {
      "midi": 40,
      "hit": false,
      "t": 59600,
      "d": 250,
      "v": 64
    },
    {
      "midi": 68,
      "hit": false,
      "t": 59600,
      "d": 250,
      "v": 82
    },
    {
      "midi": 59,
      "hit": false,
      "t": 60083.333333333336,
      "d": 233.33333333333576,
      "v": 41
    },
    {
      "midi": 52,
      "hit": false,
      "t": 60083.333333333336,
      "d": 966.6666666666715,
      "v": 27
    },
    {
      "midi": 56,
      "hit": false,
      "t": 60566.66666666667,
      "d": 233.33333333333576,
      "v": 29
    },
    {
      "midi": 64,
      "hit": false,
      "t": 60566.66666666667,
      "d": 483.33333333333576,
      "v": 66
    },
    {
      "midi": 56,
      "hit": false,
      "t": 61050.00000000001,
      "d": 233.33333333333576,
      "v": 4
    },
    {
      "midi": 59,
      "hit": false,
      "t": 61050.00000000001,
      "d": 233.33333333333576,
      "v": 43
    },
    {
      "midi": 60,
      "hit": false,
      "t": 61533.33333333334,
      "d": 716.6666666666715,
      "v": 60
    },
    {
      "midi": 45,
      "hit": false,
      "t": 61533.33333333334,
      "d": 950.0000000000073,
      "v": 53
    },
    {
      "midi": 52,
      "hit": false,
      "t": 62250.000000000015,
      "d": 483.33333333333576,
      "v": 61
    },
    {
      "midi": 57,
      "hit": false,
      "t": 62483.33333333335,
      "d": 250,
      "v": 64
    },
    {
      "midi": 59,
      "hit": false,
      "t": 62733.33333333335,
      "d": 233.33333333333576,
      "v": 95
    },
    {
      "midi": 60,
      "hit": false,
      "t": 62966.666666666686,
      "d": 233.33333333333576,
      "v": 67
    },
    {
      "midi": 64,
      "hit": false,
      "t": 63200.00000000002,
      "d": 250,
      "v": 56
    },
    {
      "midi": 38,
      "hit": false,
      "t": 63450.00000000002,
      "d": 483.33333333333576,
      "v": 64
    },
    {
      "midi": 62,
      "hit": false,
      "t": 63450.00000000002,
      "d": 716.6666666666715,
      "v": 63
    },
    {
      "midi": 45,
      "hit": false,
      "t": 63933.33333333336,
      "d": 233.33333333333576,
      "v": 36
    },
    {
      "midi": 66,
      "hit": false,
      "t": 64416.66666666669,
      "d": 233.33333333333576,
      "v": 38
    },
    {
      "midi": 50,
      "hit": false,
      "t": 64416.66666666669,
      "d": 1433.3333333333358,
      "v": 56
    },
    {
      "midi": 62,
      "hit": false,
      "t": 64883.333333333365,
      "d": 250,
      "v": 28
    },
    {
      "midi": 57,
      "hit": false,
      "t": 65133.333333333365,
      "d": 716.6666666666642,
      "v": 55
    },
    {
      "midi": 69,
      "hit": false,
      "t": 65366.6666666667,
      "d": 483.3333333333285,
      "v": 64
    },
    {
      "midi": 62,
      "hit": false,
      "t": 65850.00000000003,
      "d": 250,
      "v": 19
    },
    {
      "midi": 66,
      "hit": false,
      "t": 66333.33333333336,
      "d": 233.33333333332848,
      "v": 84
    },
    {
      "midi": 62,
      "hit": false,
      "t": 66566.66666666669,
      "d": 250,
      "v": 53
    },
    {
      "midi": 55,
      "hit": false,
      "t": 67300.00000000003,
      "d": 716.666666666657,
      "v": 69
    },
    {
      "midi": 57,
      "hit": false,
      "t": 67300.00000000003,
      "d": 716.666666666657,
      "v": 67
    },
    {
      "midi": 62,
      "hit": false,
      "t": 67300.00000000003,
      "d": 716.666666666657,
      "v": 64
    },
    {
      "midi": 43,
      "hit": false,
      "t": 67300.00000000003,
      "d": 1433.333333333314,
      "v": 60
    },
    {
      "midi": 50,
      "hit": false,
      "t": 68016.66666666669,
      "d": 483.3333333333285,
      "v": 43
    },
    {
      "midi": 55,
      "hit": false,
      "t": 68250.00000000001,
      "d": 250,
      "v": 38
    },
    {
      "midi": 62,
      "hit": false,
      "t": 68500.00000000001,
      "d": 233.33333333332848,
      "v": 69
    },
    {
      "midi": 57,
      "hit": false,
      "t": 68733.33333333334,
      "d": 250,
      "v": 35
    },
    {
      "midi": 53,
      "hit": false,
      "t": 68983.33333333334,
      "d": 233.33333333334303,
      "v": 21
    },
    {
      "midi": 53,
      "hit": false,
      "t": 69216.66666666669,
      "d": 233.33333333332848,
      "v": 76
    },
    {
      "midi": 57,
      "hit": false,
      "t": 69216.66666666669,
      "d": 233.33333333332848,
      "v": 76
    },
    {
      "midi": 60,
      "hit": false,
      "t": 69216.66666666669,
      "d": 233.33333333332848,
      "v": 66
    },
    {
      "midi": 43,
      "hit": false,
      "t": 69216.66666666669,
      "d": 1199.9999999999854,
      "v": 64
    },
    {
      "midi": 53,
      "hit": false,
      "t": 69700.00000000001,
      "d": 233.33333333332848,
      "v": 29
    },
    {
      "midi": 50,
      "hit": false,
      "t": 69933.33333333334,
      "d": 483.3333333333285,
      "v": 51
    },
    {
      "midi": 53,
      "hit": false,
      "t": 70183.33333333334,
      "d": 233.33333333332848,
      "v": 46
    },
    {
      "midi": 60,
      "hit": false,
      "t": 70416.66666666667,
      "d": 233.33333333332848,
      "v": 53
    },
    {
      "midi": 55,
      "hit": false,
      "t": 70650,
      "d": 250,
      "v": 35
    },
    {
      "midi": 72,
      "hit": false,
      "t": 71133.33333333333,
      "d": 250,
      "v": 71
    },
    {
      "midi": 64,
      "hit": false,
      "t": 71133.33333333333,
      "d": 483.3333333333285,
      "v": 79
    },
    {
      "midi": 67,
      "hit": false,
      "t": 71133.33333333333,
      "d": 483.3333333333285,
      "v": 76
    },
    {
      "midi": 48,
      "hit": false,
      "t": 71133.33333333333,
      "d": 2883.333333333314,
      "v": 67
    },
    {
      "midi": 55,
      "hit": false,
      "t": 71866.66666666666,
      "d": 949.9999999999854,
      "v": 58
    },
    {
      "midi": 60,
      "hit": false,
      "t": 72099.99999999999,
      "d": 233.33333333332848,
      "v": 64
    },
    {
      "midi": 62,
      "hit": false,
      "t": 72333.33333333331,
      "d": 250,
      "v": 64
    },
    {
      "midi": 64,
      "hit": false,
      "t": 72583.33333333331,
      "d": 233.33333333332848,
      "v": 84
    },
    {
      "midi": 67,
      "hit": false,
      "t": 72816.66666666664,
      "d": 966.6666666666715,
      "v": 63
    },
    {
      "midi": 60,
      "hit": false,
      "t": 73066.66666666664,
      "d": 716.6666666666715,
      "v": 50
    },
    {
      "midi": 55,
      "hit": false,
      "t": 73066.66666666664,
      "d": 950,
      "v": 35
    },
    {
      "midi": 62,
      "hit": false,
      "t": 74016.66666666664,
      "d": 250,
      "v": 87
    },
    {
      "midi": 64,
      "hit": false,
      "t": 74499.99999999997,
      "d": 250,
      "v": 71
    },
    {
      "midi": 67,
      "hit": false,
      "t": 74749.99999999997,
      "d": 233.33333333332848,
      "v": 42
    },
    {
      "midi": 40,
      "hit": false,
      "t": 74983.3333333333,
      "d": 483.3333333333285,
      "v": 62
    },
    {
      "midi": 67,
      "hit": false,
      "t": 74983.3333333333,
      "d": 966.666666666657,
      "v": 76
    },
    {
      "midi": 47,
      "hit": false,
      "t": 75466.66666666663,
      "d": 233.33333333332848,
      "v": 45
    },
    {
      "midi": 59,
      "hit": false,
      "t": 75949.99999999996,
      "d": 233.33333333332848,
      "v": 58
    },
    {
      "midi": 52,
      "hit": false,
      "t": 75949.99999999996,
      "d": 1916.6666666666424,
      "v": 63
    },
    {
      "midi": 55,
      "hit": false,
      "t": 76183.33333333328,
      "d": 716.666666666657,
      "v": 55
    },
    {
      "midi": 62,
      "hit": false,
      "t": 76433.33333333328,
      "d": 233.33333333332848,
      "v": 64
    },
    {
      "midi": 59,
      "hit": false,
      "t": 76666.66666666661,
      "d": 233.33333333332848,
      "v": 57
    },
    {
      "midi": 59,
      "hit": false,
      "t": 76899.99999999994,
      "d": 733.3333333333285,
      "v": 62
    },
    {
      "midi": 67,
      "hit": false,
      "t": 76899.99999999994,
      "d": 733.3333333333285,
      "v": 62
    },
    {
      "midi": 55,
      "hit": false,
      "t": 76899.99999999994,
      "d": 966.666666666657,
      "v": 23
    },
    {
      "midi": 59,
      "hit": false,
      "t": 77866.6666666666,
      "d": 250,
      "v": 76
    },
    {
      "midi": 67,
      "hit": false,
      "t": 77866.6666666666,
      "d": 250,
      "v": 55
    },
    {
      "midi": 59,
      "hit": false,
      "t": 78349.99999999993,
      "d": 483.33333333334303,
      "v": 57
    },
    {
      "midi": 67,
      "hit": false,
      "t": 78349.99999999993,
      "d": 483.33333333334303,
      "v": 46
    },
    {
      "midi": 67,
      "hit": false,
      "t": 78833.33333333327,
      "d": 233.33333333334303,
      "v": 24
    },
    {
      "midi": 45,
      "hit": false,
      "t": 78833.33333333327,
      "d": 1683.3333333333285,
      "v": 62
    },
    {
      "midi": 72,
      "hit": false,
      "t": 79066.66666666661,
      "d": 250,
      "v": 52
    },
    {
      "midi": 52,
      "hit": false,
      "t": 79066.66666666661,
      "d": 716.666666666657,
      "v": 35
    },
    {
      "midi": 71,
      "hit": false,
      "t": 79316.66666666661,
      "d": 233.33333333332848,
      "v": 73
    },
    {
      "midi": 72,
      "hit": false,
      "t": 79549.99999999994,
      "d": 233.33333333332848,
      "v": 99
    },
    {
      "midi": 57,
      "hit": false,
      "t": 79783.33333333327,
      "d": 250,
      "v": 23
    },
    {
      "midi": 71,
      "hit": false,
      "t": 79783.33333333327,
      "d": 250,
      "v": 82
    },
    {
      "midi": 69,
      "hit": false,
      "t": 80033.33333333327,
      "d": 233.33333333332848,
      "v": 34
    },
    {
      "midi": 52,
      "hit": false,
      "t": 80033.33333333327,
      "d": 483.3333333333285,
      "v": 5
    },
    {
      "midi": 67,
      "hit": false,
      "t": 80266.6666666666,
      "d": 250,
      "v": 46
    },
    {
      "midi": 57,
      "hit": false,
      "t": 80516.6666666666,
      "d": 233.33333333332848,
      "v": 42
    },
    {
      "midi": 65,
      "hit": false,
      "t": 80516.6666666666,
      "d": 233.33333333332848,
      "v": 64
    },
    {
      "midi": 64,
      "hit": false,
      "t": 80749.99999999993,
      "d": 250,
      "v": 68
    },
    {
      "midi": 45,
      "hit": false,
      "t": 80749.99999999993,
      "d": 966.666666666657,
      "v": 66
    },
    {
      "midi": 62,
      "hit": false,
      "t": 80999.99999999993,
      "d": 233.33333333332848,
      "v": 19
    },
    {
      "midi": 52,
      "hit": false,
      "t": 80999.99999999993,
      "d": 466.66666666665697,
      "v": 22
    },
    {
      "midi": 62,
      "hit": false,
      "t": 81233.33333333326,
      "d": 233.33333333332848,
      "v": 52
    },
    {
      "midi": 57,
      "hit": false,
      "t": 81466.66666666658,
      "d": 250,
      "v": 61
    },
    {
      "midi": 60,
      "hit": false,
      "t": 81716.66666666658,
      "d": 233.33333333332848,
      "v": 79
    },
    {
      "midi": 52,
      "hit": false,
      "t": 81949.99999999991,
      "d": 250,
      "v": 48
    },
    {
      "midi": 59,
      "hit": false,
      "t": 82199.99999999991,
      "d": 233.33333333332848,
      "v": 66
    },
    {
      "midi": 62,
      "hit": false,
      "t": 82433.33333333324,
      "d": 233.33333333334303,
      "v": 47
    },
    {
      "midi": 59,
      "hit": false,
      "t": 82666.66666666658,
      "d": 250,
      "v": 71
    },
    {
      "midi": 40,
      "hit": false,
      "t": 82666.66666666658,
      "d": 1449.9999999999854,
      "v": 60
    },
    {
      "midi": 47,
      "hit": false,
      "t": 82916.66666666658,
      "d": 716.666666666657,
      "v": 26
    },
    {
      "midi": 55,
      "hit": false,
      "t": 83149.99999999991,
      "d": 250,
      "v": 35
    },
    {
      "midi": 55,
      "hit": false,
      "t": 83399.99999999991,
      "d": 233.33333333332848,
      "v": 27
    },
    {
      "midi": 64,
      "hit": false,
      "t": 83399.99999999991,
      "d": 233.33333333332848,
      "v": 66
    },
    {
      "midi": 59,
      "hit": false,
      "t": 83633.33333333324,
      "d": 250,
      "v": 64
    },
    {
      "midi": 47,
      "hit": false,
      "t": 83883.33333333324,
      "d": 466.66666666665697,
      "v": 45
    },
    {
      "midi": 52,
      "hit": false,
      "t": 84116.66666666657,
      "d": 233.33333333332848,
      "v": 46
    },
    {
      "midi": 55,
      "hit": false,
      "t": 84349.9999999999,
      "d": 250,
      "v": 36
    },
    {
      "midi": 47,
      "hit": false,
      "t": 84599.9999999999,
      "d": 483.3333333333285,
      "v": 28
    },
    {
      "midi": 52,
      "hit": false,
      "t": 84599.9999999999,
      "d": 716.666666666657,
      "v": 60
    },
    {
      "midi": 55,
      "hit": false,
      "t": 84599.9999999999,
      "d": 716.666666666657,
      "v": 56
    },
    {
      "midi": 62,
      "hit": false,
      "t": 84599.9999999999,
      "d": 716.666666666657,
      "v": 60
    },
    {
      "midi": 40,
      "hit": false,
      "t": 84599.9999999999,
      "d": 966.666666666657,
      "v": 36
    },
    {
      "midi": 47,
      "hit": false,
      "t": 85316.66666666656,
      "d": 250,
      "v": 11
    },
    {
      "midi": 52,
      "hit": false,
      "t": 85566.66666666656,
      "d": 233.33333333332848,
      "v": 63
    },
    {
      "midi": 62,
      "hit": false,
      "t": 85566.66666666656,
      "d": 233.33333333332848,
      "v": 29
    },
    {
      "midi": 47,
      "hit": false,
      "t": 85799.99999999988,
      "d": 233.33333333332848,
      "v": 58
    },
    {
      "midi": 57,
      "hit": false,
      "t": 86033.33333333321,
      "d": 250,
      "v": 64
    },
    {
      "midi": 59,
      "hit": false,
      "t": 86283.33333333321,
      "d": 233.33333333334303,
      "v": 68
    },
    {
      "midi": 41,
      "hit": false,
      "t": 86516.66666666656,
      "d": 250,
      "v": 68
    },
    {
      "midi": 60,
      "hit": false,
      "t": 86516.66666666656,
      "d": 250,
      "v": 84
    },
    {
      "midi": 48,
      "hit": false,
      "t": 86766.66666666656,
      "d": 233.33333333332848,
      "v": 64
    },
    {
      "midi": 72,
      "hit": false,
      "t": 87233.33333333321,
      "d": 483.3333333333285,
      "v": 63
    },
    {
      "midi": 53,
      "hit": false,
      "t": 87233.33333333321,
      "d": 733.3333333333285,
      "v": 45
    },
    {
      "midi": 60,
      "hit": false,
      "t": 87483.33333333321,
      "d": 233.33333333332848,
      "v": 57
    },
    {
      "midi": 65,
      "hit": false,
      "t": 87716.66666666654,
      "d": 250,
      "v": 46
    },
    {
      "midi": 72,
      "hit": false,
      "t": 87966.66666666654,
      "d": 233.33333333332848,
      "v": 79
    },
    {
      "midi": 65,
      "hit": false,
      "t": 88199.99999999987,
      "d": 250,
      "v": 42
    },
    {
      "midi": 40,
      "hit": false,
      "t": 88449.99999999987,
      "d": 233.33333333332848,
      "v": 66
    },
    {
      "midi": 64,
      "hit": false,
      "t": 88449.99999999987,
      "d": 466.66666666665697,
      "v": 76
    },
    {
      "midi": 67,
      "hit": false,
      "t": 88449.99999999987,
      "d": 466.66666666665697,
      "v": 69
    },
    {
      "midi": 72,
      "hit": false,
      "t": 88449.99999999987,
      "d": 466.66666666665697,
      "v": 64
    },
    {
      "midi": 64,
      "hit": false,
      "t": 88916.66666666653,
      "d": 250,
      "v": 27
    },
    {
      "midi": 52,
      "hit": false,
      "t": 89166.66666666653,
      "d": 483.3333333333285,
      "v": 32
    },
    {
      "midi": 72,
      "hit": false,
      "t": 89399.99999999985,
      "d": 250,
      "v": 62
    },
    {
      "midi": 59,
      "hit": false,
      "t": 89649.99999999985,
      "d": 233.33333333332848,
      "v": 64
    },
    {
      "midi": 67,
      "hit": false,
      "t": 89883.33333333318,
      "d": 250,
      "v": 57
    },
    {
      "midi": 64,
      "hit": false,
      "t": 90133.33333333318,
      "d": 233.33333333334303,
      "v": 62
    },
    {
      "midi": 72,
      "hit": false,
      "t": 90133.33333333318,
      "d": 233.33333333334303,
      "v": 46
    },
    {
      "midi": 64,
      "hit": false,
      "t": 90366.66666666653,
      "d": 233.33333333332848,
      "v": 43
    },
    {
      "midi": 67,
      "hit": false,
      "t": 90366.66666666653,
      "d": 233.33333333332848,
      "v": 69
    },
    {
      "midi": 52,
      "hit": false,
      "t": 90366.66666666653,
      "d": 966.666666666657,
      "v": 64
    },
    {
      "midi": 55,
      "hit": false,
      "t": 90599.99999999985,
      "d": 483.3333333333285,
      "v": 26
    },
    {
      "midi": 59,
      "hit": false,
      "t": 91083.33333333318,
      "d": 250,
      "v": 63
    },
    {
      "midi": 67,
      "hit": false,
      "t": 91083.33333333318,
      "d": 250,
      "v": 66
    },
    {
      "midi": 55,
      "hit": false,
      "t": 91333.33333333318,
      "d": 233.33333333332848,
      "v": 26
    },
    {
      "midi": 62,
      "hit": false,
      "t": 91566.66666666651,
      "d": 233.33333333332848,
      "v": 68
    },
    {
      "midi": 57,
      "hit": false,
      "t": 92283.33333333317,
      "d": 483.3333333333285,
      "v": 63
    },
    {
      "midi": 60,
      "hit": false,
      "t": 92283.33333333317,
      "d": 483.3333333333285,
      "v": 64
    },
    {
      "midi": 45,
      "hit": false,
      "t": 92283.33333333317,
      "d": 1199.9999999999854,
      "v": 62
    },
    {
      "midi": 52,
      "hit": false,
      "t": 92533.33333333317,
      "d": 233.33333333332848,
      "v": 43
    },
    {
      "midi": 57,
      "hit": false,
      "t": 92766.6666666665,
      "d": 483.3333333333285,
      "v": 37
    },
    {
      "midi": 52,
      "hit": false,
      "t": 93016.6666666665,
      "d": 233.33333333332848,
      "v": 21
    },
    {
      "midi": 72,
      "hit": false,
      "t": 93733.33333333315,
      "d": 233.33333333334303,
      "v": 76
    },
    {
      "midi": 76,
      "hit": false,
      "t": 93733.33333333315,
      "d": 233.33333333334303,
      "v": 73
    },
    {
      "midi": 71,
      "hit": false,
      "t": 93966.6666666665,
      "d": 250,
      "v": 66
    },
    {
      "midi": 74,
      "hit": false,
      "t": 93966.6666666665,
      "d": 250,
      "v": 58
    },
    {
      "midi": 53,
      "hit": false,
      "t": 94216.6666666665,
      "d": 1200,
      "v": 67
    },
    {
      "midi": 60,
      "hit": false,
      "t": 94216.6666666665,
      "d": 1200,
      "v": 62
    },
    {
      "midi": 69,
      "hit": false,
      "t": 94216.6666666665,
      "d": 1200,
      "v": 82
    },
    {
      "midi": 72,
      "hit": false,
      "t": 94216.6666666665,
      "d": 1200,
      "v": 84
    },
    {
      "midi": 69,
      "hit": false,
      "t": 96133.33333333317,
      "d": 716.6666666666715,
      "v": 99
    },
    {
      "midi": 74,
      "hit": false,
      "t": 96133.33333333317,
      "d": 716.6666666666715,
      "v": 84
    },
    {
      "midi": 50,
      "hit": false,
      "t": 96133.33333333317,
      "d": 966.6666666666715,
      "v": 68
    },
    {
      "midi": 57,
      "hit": false,
      "t": 96133.33333333317,
      "d": 966.6666666666715,
      "v": 67
    },
    {
      "midi": 69,
      "hit": false,
      "t": 97099.99999999984,
      "d": 233.33333333332848,
      "v": 68
    },
    {
      "midi": 74,
      "hit": false,
      "t": 97099.99999999984,
      "d": 233.33333333332848,
      "v": 63
    },
    {
      "midi": 67,
      "hit": false,
      "t": 98049.99999999984,
      "d": 250,
      "v": 84
    },
    {
      "midi": 74,
      "hit": false,
      "t": 98049.99999999984,
      "d": 250,
      "v": 76
    },
    {
      "midi": 71,
      "hit": false,
      "t": 98049.99999999984,
      "d": 483.3333333333285,
      "v": 91
    },
    {
      "midi": 43,
      "hit": false,
      "t": 98049.99999999984,
      "d": 733.3333333333285,
      "v": 79
    },
    {
      "midi": 67,
      "hit": false,
      "t": 98533.33333333317,
      "d": 250,
      "v": 19
    },
    {
      "midi": 50,
      "hit": false,
      "t": 98783.33333333317,
      "d": 233.33333333332848,
      "v": 55
    },
    {
      "midi": 67,
      "hit": false,
      "t": 99016.6666666665,
      "d": 233.33333333332848,
      "v": 62
    },
    {
      "midi": 74,
      "hit": false,
      "t": 99249.99999999983,
      "d": 250,
      "v": 56
    },
    {
      "midi": 71,
      "hit": false,
      "t": 99499.99999999983,
      "d": 233.33333333332848,
      "v": 46
    },
    {
      "midi": 55,
      "hit": false,
      "t": 99983.33333333315,
      "d": 233.33333333332848,
      "v": 67
    },
    {
      "midi": 62,
      "hit": false,
      "t": 99983.33333333315,
      "d": 233.33333333332848,
      "v": 82
    },
    {
      "midi": 71,
      "hit": false,
      "t": 99983.33333333315,
      "d": 233.33333333332848,
      "v": 91
    },
    {
      "midi": 74,
      "hit": false,
      "t": 99983.33333333315,
      "d": 233.33333333332848,
      "v": 99
    },
    {
      "midi": 79,
      "hit": false,
      "t": 99983.33333333315,
      "d": 233.33333333332848,
      "v": 76
    },
    {
      "midi": 55,
      "hit": false,
      "t": 100216.66666666648,
      "d": 250,
      "v": 68
    },
    {
      "midi": 62,
      "hit": false,
      "t": 100216.66666666648,
      "d": 250,
      "v": 69
    },
    {
      "midi": 71,
      "hit": false,
      "t": 100216.66666666648,
      "d": 250,
      "v": 87
    },
    {
      "midi": 74,
      "hit": false,
      "t": 100216.66666666648,
      "d": 250,
      "v": 91
    },
    {
      "midi": 79,
      "hit": false,
      "t": 100216.66666666648,
      "d": 250,
      "v": 73
    },
    {
      "midi": 76,
      "hit": false,
      "t": 101899.99999999981,
      "d": 250,
      "v": 71
    },
    {
      "midi": 67,
      "hit": false,
      "t": 101899.99999999981,
      "d": 483.3333333333285,
      "v": 82
    },
    {
      "midi": 72,
      "hit": false,
      "t": 101899.99999999981,
      "d": 483.3333333333285,
      "v": 87
    },
    {
      "midi": 48,
      "hit": false,
      "t": 101899.99999999981,
      "d": 1199.9999999999854,
      "v": 66
    },
    {
      "midi": 76,
      "hit": false,
      "t": 102383.33333333314,
      "d": 233.33333333332848,
      "v": 6
    },
    {
      "midi": 76,
      "hit": false,
      "t": 102866.66666666647,
      "d": 233.33333333332848,
      "v": 69
    },
    {
      "midi": 67,
      "hit": false,
      "t": 102866.66666666647,
      "d": 483.3333333333285,
      "v": 84
    },
    {
      "midi": 72,
      "hit": false,
      "t": 102866.66666666647,
      "d": 483.3333333333285,
      "v": 82
    },
    {
      "midi": 67,
      "hit": false,
      "t": 103349.9999999998,
      "d": 233.33333333332848,
      "v": 28
    },
    {
      "midi": 76,
      "hit": false,
      "t": 103349.9999999998,
      "d": 233.33333333332848,
      "v": 22
    },
    {
      "midi": 67,
      "hit": false,
      "t": 103816.66666666645,
      "d": 483.33333333334303,
      "v": 76
    },
    {
      "midi": 71,
      "hit": false,
      "t": 103816.66666666645,
      "d": 483.33333333334303,
      "v": 82
    },
    {
      "midi": 76,
      "hit": false,
      "t": 103816.66666666645,
      "d": 733.333333333343,
      "v": 69
    },
    {
      "midi": 52,
      "hit": false,
      "t": 103816.66666666645,
      "d": 966.6666666666715,
      "v": 64
    },
    {
      "midi": 59,
      "hit": false,
      "t": 103816.66666666645,
      "d": 1216.6666666666715,
      "v": 63
    },
    {
      "midi": 71,
      "hit": false,
      "t": 104783.33333333312,
      "d": 250,
      "v": 99
    },
    {
      "midi": 76,
      "hit": false,
      "t": 104783.33333333312,
      "d": 250,
      "v": 76
    },
    {
      "midi": 72,
      "hit": false,
      "t": 105749.99999999978,
      "d": 483.3333333333285,
      "v": 87
    },
    {
      "midi": 76,
      "hit": false,
      "t": 105749.99999999978,
      "d": 483.3333333333285,
      "v": 69
    },
    {
      "midi": 69,
      "hit": false,
      "t": 105749.99999999978,
      "d": 716.666666666657,
      "v": 87
    },
    {
      "midi": 57,
      "hit": false,
      "t": 105749.99999999978,
      "d": 949.9999999999854,
      "v": 68
    },
    {
      "midi": 69,
      "hit": false,
      "t": 106699.99999999977,
      "d": 250,
      "v": 87
    },
    {
      "midi": 72,
      "hit": false,
      "t": 106699.99999999977,
      "d": 250,
      "v": 87
    },
    {
      "midi": 76,
      "hit": false,
      "t": 106699.99999999977,
      "d": 250,
      "v": 63
    },
    {
      "midi": 67,
      "hit": false,
      "t": 107433.3333333331,
      "d": 233.33333333332848,
      "v": 47
    },
    {
      "midi": 71,
      "hit": false,
      "t": 107433.3333333331,
      "d": 233.33333333332848,
      "v": 30
    },
    {
      "midi": 76,
      "hit": false,
      "t": 107433.3333333331,
      "d": 233.33333333332848,
      "v": 14
    },
    {
      "midi": 67,
      "hit": false,
      "t": 107666.66666666642,
      "d": 250,
      "v": 76
    },
    {
      "midi": 71,
      "hit": false,
      "t": 107666.66666666642,
      "d": 250,
      "v": 79
    },
    {
      "midi": 76,
      "hit": false,
      "t": 107666.66666666642,
      "d": 250,
      "v": 67
    },
    {
      "midi": 52,
      "hit": false,
      "t": 107666.66666666642,
      "d": 966.6666666666715,
      "v": 63
    },
    {
      "midi": 59,
      "hit": false,
      "t": 107666.66666666642,
      "d": 966.6666666666715,
      "v": 57
    },
    {
      "midi": 79,
      "hit": false,
      "t": 108383.3333333331,
      "d": 250,
      "v": 46
    },
    {
      "midi": 91,
      "hit": false,
      "t": 108383.3333333331,
      "d": 250,
      "v": 56
    },
    {
      "midi": 52,
      "hit": false,
      "t": 108633.3333333331,
      "d": 233.33333333332848,
      "v": 40
    },
    {
      "midi": 59,
      "hit": false,
      "t": 108633.3333333331,
      "d": 233.33333333332848,
      "v": 46
    },
    {
      "midi": 79,
      "hit": false,
      "t": 108633.3333333331,
      "d": 233.33333333332848,
      "v": 87
    },
    {
      "midi": 91,
      "hit": false,
      "t": 108633.3333333331,
      "d": 233.33333333332848,
      "v": 82
    },
    {
      "midi": 76,
      "hit": false,
      "t": 109116.66666666642,
      "d": 233.33333333332848,
      "v": 82
    },
    {
      "midi": 88,
      "hit": false,
      "t": 109116.66666666642,
      "d": 233.33333333332848,
      "v": 82
    },
    {
      "midi": 77,
      "hit": false,
      "t": 109599.99999999975,
      "d": 466.6666666666715,
      "v": 84
    },
    {
      "midi": 81,
      "hit": false,
      "t": 109599.99999999975,
      "d": 466.6666666666715,
      "v": 91
    },
    {
      "midi": 53,
      "hit": false,
      "t": 109599.99999999975,
      "d": 1433.3333333333285,
      "v": 68
    },
    {
      "midi": 72,
      "hit": false,
      "t": 110549.99999999975,
      "d": 250,
      "v": 87
    },
    {
      "midi": 77,
      "hit": false,
      "t": 110549.99999999975,
      "d": 250,
      "v": 79
    },
    {
      "midi": 67,
      "hit": false,
      "t": 111516.66666666642,
      "d": 483.3333333333285,
      "v": 76
    },
    {
      "midi": 71,
      "hit": false,
      "t": 111516.66666666642,
      "d": 483.3333333333285,
      "v": 84
    },
    {
      "midi": 74,
      "hit": false,
      "t": 111516.66666666642,
      "d": 483.3333333333285,
      "v": 66
    },
    {
      "midi": 55,
      "hit": false,
      "t": 111516.66666666642,
      "d": 966.666666666657,
      "v": 62
    },
    {
      "midi": 62,
      "hit": false,
      "t": 111516.66666666642,
      "d": 966.666666666657,
      "v": 53
    },
    {
      "midi": 67,
      "hit": false,
      "t": 112233.33333333308,
      "d": 250,
      "v": 27
    },
    {
      "midi": 71,
      "hit": false,
      "t": 112233.33333333308,
      "d": 250,
      "v": 22
    },
    {
      "midi": 67,
      "hit": false,
      "t": 112483.33333333308,
      "d": 233.33333333332848,
      "v": 95
    },
    {
      "midi": 71,
      "hit": false,
      "t": 112483.33333333308,
      "d": 233.33333333332848,
      "v": 103
    },
    {
      "midi": 74,
      "hit": false,
      "t": 112483.33333333308,
      "d": 233.33333333332848,
      "v": 68
    },
    {
      "midi": 48,
      "hit": false,
      "t": 113433.33333333307,
      "d": 250,
      "v": 56
    },
    {
      "midi": 72,
      "hit": false,
      "t": 113433.33333333307,
      "d": 483.3333333333285,
      "v": 87
    },
    {
      "midi": 76,
      "hit": false,
      "t": 113433.33333333307,
      "d": 483.3333333333285,
      "v": 95
    },
    {
      "midi": 79,
      "hit": false,
      "t": 113433.33333333307,
      "d": 483.3333333333285,
      "v": 71
    },
    {
      "midi": 60,
      "hit": false,
      "t": 114166.6666666664,
      "d": 233.33333333332848,
      "v": 4
    },
    {
      "midi": 72,
      "hit": false,
      "t": 114399.99999999972,
      "d": 233.33333333332848,
      "v": 91
    },
    {
      "midi": 76,
      "hit": false,
      "t": 114399.99999999972,
      "d": 233.33333333332848,
      "v": 87
    },
    {
      "midi": 79,
      "hit": false,
      "t": 114399.99999999972,
      "d": 233.33333333332848,
      "v": 67
    },
    {
      "midi": 60,
      "hit": false,
      "t": 114633.33333333305,
      "d": 250,
      "v": 28
    },
    {
      "midi": 67,
      "hit": false,
      "t": 114633.33333333305,
      "d": 250,
      "v": 55
    },
    {
      "midi": 72,
      "hit": false,
      "t": 114883.33333333305,
      "d": 233.33333333332848,
      "v": 55
    },
    {
      "midi": 79,
      "hit": false,
      "t": 114883.33333333305,
      "d": 233.33333333332848,
      "v": 28
    },
    {
      "midi": 79,
      "hit": false,
      "t": 115116.66666666638,
      "d": 250,
      "v": 50
    },
    {
      "midi": 71,
      "hit": false,
      "t": 115366.66666666638,
      "d": 233.33333333332848,
      "v": 87
    },
    {
      "midi": 79,
      "hit": false,
      "t": 115366.66666666638,
      "d": 233.33333333332848,
      "v": 73
    },
    {
      "midi": 62,
      "hit": false,
      "t": 115366.66666666638,
      "d": 466.66666666665697,
      "v": 66
    },
    {
      "midi": 74,
      "hit": false,
      "t": 115366.66666666638,
      "d": 466.66666666665697,
      "v": 91
    },
    {
      "midi": 55,
      "hit": false,
      "t": 115366.66666666638,
      "d": 949.9999999999854,
      "v": 64
    },
    {
      "midi": 71,
      "hit": false,
      "t": 115833.33333333304,
      "d": 250,
      "v": 57
    },
    {
      "midi": 79,
      "hit": false,
      "t": 115833.33333333304,
      "d": 250,
      "v": 58
    },
    {
      "midi": 62,
      "hit": false,
      "t": 116083.33333333304,
      "d": 233.33333333332848,
      "v": 55
    },
    {
      "midi": 71,
      "hit": false,
      "t": 116316.66666666637,
      "d": 250,
      "v": 99
    },
    {
      "midi": 79,
      "hit": false,
      "t": 116316.66666666637,
      "d": 250,
      "v": 76
    },
    {
      "midi": 72,
      "hit": false,
      "t": 116566.66666666637,
      "d": 233.33333333332848,
      "v": 21
    },
    {
      "midi": 72,
      "hit": false,
      "t": 116799.9999999997,
      "d": 250,
      "v": 82
    },
    {
      "midi": 84,
      "hit": false,
      "t": 116799.9999999997,
      "d": 250,
      "v": 82
    },
    {
      "midi": 88,
      "hit": false,
      "t": 117049.9999999997,
      "d": 233.33333333332848,
      "v": 33
    },
    {
      "midi": 76,
      "hit": false,
      "t": 117283.33333333302,
      "d": 233.33333333332848,
      "v": 87
    },
    {
      "midi": 88,
      "hit": false,
      "t": 117283.33333333302,
      "d": 233.33333333332848,
      "v": 91
    },
    {
      "midi": 60,
      "hit": false,
      "t": 117283.33333333302,
      "d": 1199.9999999999854,
      "v": 66
    },
    {
      "midi": 67,
      "hit": false,
      "t": 117283.33333333302,
      "d": 1199.9999999999854,
      "v": 68
    },
    {
      "midi": 72,
      "hit": false,
      "t": 117999.99999999968,
      "d": 250,
      "v": 41
    },
    {
      "midi": 72,
      "hit": false,
      "t": 118249.99999999968,
      "d": 233.33333333332848,
      "v": 82
    },
    {
      "midi": 79,
      "hit": false,
      "t": 118249.99999999968,
      "d": 233.33333333332848,
      "v": 67
    },
    {
      "midi": 72,
      "hit": false,
      "t": 118483.33333333301,
      "d": 233.33333333332848,
      "v": 23
    },
    {
      "midi": 71,
      "hit": false,
      "t": 118966.66666666634,
      "d": 233.33333333334303,
      "v": 20
    },
    {
      "midi": 74,
      "hit": false,
      "t": 118966.66666666634,
      "d": 233.33333333334303,
      "v": 12
    },
    {
      "midi": 71,
      "hit": false,
      "t": 119199.99999999968,
      "d": 483.33333333334303,
      "v": 87
    },
    {
      "midi": 74,
      "hit": false,
      "t": 119199.99999999968,
      "d": 483.33333333334303,
      "v": 95
    },
    {
      "midi": 79,
      "hit": false,
      "t": 119199.99999999968,
      "d": 483.33333333334303,
      "v": 73
    },
    {
      "midi": 52,
      "hit": false,
      "t": 119199.99999999968,
      "d": 1200,
      "v": 66
    },
    {
      "midi": 59,
      "hit": false,
      "t": 119199.99999999968,
      "d": 1200,
      "v": 61
    },
    {
      "midi": 71,
      "hit": false,
      "t": 119933.33333333302,
      "d": 233.33333333332848,
      "v": 33
    },
    {
      "midi": 71,
      "hit": false,
      "t": 120166.66666666635,
      "d": 233.33333333332848,
      "v": 84
    },
    {
      "midi": 74,
      "hit": false,
      "t": 120166.66666666635,
      "d": 233.33333333332848,
      "v": 82
    },
    {
      "midi": 79,
      "hit": false,
      "t": 120166.66666666635,
      "d": 233.33333333332848,
      "v": 66
    },
    {
      "midi": 69,
      "hit": false,
      "t": 121133.33333333301,
      "d": 483.3333333333285,
      "v": 84
    },
    {
      "midi": 72,
      "hit": false,
      "t": 121133.33333333301,
      "d": 483.3333333333285,
      "v": 84
    },
    {
      "midi": 76,
      "hit": false,
      "t": 121133.33333333301,
      "d": 483.3333333333285,
      "v": 69
    },
    {
      "midi": 57,
      "hit": false,
      "t": 121133.33333333301,
      "d": 1199.9999999999854,
      "v": 71
    },
    {
      "midi": 69,
      "hit": false,
      "t": 121849.99999999967,
      "d": 233.33333333332848,
      "v": 31
    },
    {
      "midi": 69,
      "hit": false,
      "t": 122083.333333333,
      "d": 250,
      "v": 87
    },
    {
      "midi": 76,
      "hit": false,
      "t": 122083.333333333,
      "d": 250,
      "v": 69
    },
    {
      "midi": 64,
      "hit": false,
      "t": 122333.333333333,
      "d": 233.33333333332848,
      "v": 36
    },
    {
      "midi": 69,
      "hit": false,
      "t": 122566.66666666632,
      "d": 250,
      "v": 50
    },
    {
      "midi": 76,
      "hit": false,
      "t": 122566.66666666632,
      "d": 250,
      "v": 27
    },
    {
      "midi": 67,
      "hit": false,
      "t": 123049.99999999965,
      "d": 483.3333333333285,
      "v": 84
    },
    {
      "midi": 71,
      "hit": false,
      "t": 123049.99999999965,
      "d": 483.3333333333285,
      "v": 79
    },
    {
      "midi": 76,
      "hit": false,
      "t": 123049.99999999965,
      "d": 483.3333333333285,
      "v": 73
    },
    {
      "midi": 52,
      "hit": false,
      "t": 123049.99999999965,
      "d": 1199.9999999999854,
      "v": 62
    },
    {
      "midi": 59,
      "hit": false,
      "t": 123049.99999999965,
      "d": 1449.9999999999854,
      "v": 55
    },
    {
      "midi": 67,
      "hit": false,
      "t": 124016.66666666631,
      "d": 233.33333333332848,
      "v": 84
    },
    {
      "midi": 76,
      "hit": false,
      "t": 124016.66666666631,
      "d": 233.33333333332848,
      "v": 67
    },
    {
      "midi": 69,
      "hit": false,
      "t": 124966.66666666631,
      "d": 483.3333333333285,
      "v": 82
    },
    {
      "midi": 72,
      "hit": false,
      "t": 124966.66666666631,
      "d": 483.3333333333285,
      "v": 82
    },
    {
      "midi": 77,
      "hit": false,
      "t": 124966.66666666631,
      "d": 483.3333333333285,
      "v": 69
    },
    {
      "midi": 53,
      "hit": false,
      "t": 124966.66666666631,
      "d": 1449.9999999999854,
      "v": 67
    },
    {
      "midi": 60,
      "hit": false,
      "t": 124966.66666666631,
      "d": 1449.9999999999854,
      "v": 63
    },
    {
      "midi": 69,
      "hit": false,
      "t": 125699.99999999964,
      "d": 233.33333333332848,
      "v": 18
    },
    {
      "midi": 69,
      "hit": false,
      "t": 125933.33333333296,
      "d": 483.3333333333285,
      "v": 84
    },
    {
      "midi": 72,
      "hit": false,
      "t": 125933.33333333296,
      "d": 483.3333333333285,
      "v": 84
    },
    {
      "midi": 77,
      "hit": false,
      "t": 125933.33333333296,
      "d": 483.3333333333285,
      "v": 66
    },
    {
      "midi": 67,
      "hit": false,
      "t": 126899.99999999962,
      "d": 483.3333333333285,
      "v": 82
    },
    {
      "midi": 71,
      "hit": false,
      "t": 126899.99999999962,
      "d": 483.3333333333285,
      "v": 84
    },
    {
      "midi": 74,
      "hit": false,
      "t": 126899.99999999962,
      "d": 483.3333333333285,
      "v": 68
    },
    {
      "midi": 55,
      "hit": false,
      "t": 126899.99999999962,
      "d": 1199.9999999999854,
      "v": 56
    },
    {
      "midi": 67,
      "hit": false,
      "t": 127616.66666666628,
      "d": 233.33333333332848,
      "v": 23
    },
    {
      "midi": 74,
      "hit": false,
      "t": 127616.66666666628,
      "d": 233.33333333332848,
      "v": 20
    },
    {
      "midi": 67,
      "hit": false,
      "t": 127849.9999999996,
      "d": 250,
      "v": 82
    },
    {
      "midi": 71,
      "hit": false,
      "t": 127849.9999999996,
      "d": 483.3333333333285,
      "v": 82
    },
    {
      "midi": 74,
      "hit": false,
      "t": 127849.9999999996,
      "d": 483.3333333333285,
      "v": 71
    },
    {
      "midi": 67,
      "hit": false,
      "t": 128333.33333333294,
      "d": 250,
      "v": 5
    },
    {
      "midi": 74,
      "hit": false,
      "t": 128333.33333333294,
      "d": 250,
      "v": 5
    },
    {
      "midi": 76,
      "hit": false,
      "t": 128816.66666666626,
      "d": 250,
      "v": 71
    },
    {
      "midi": 67,
      "hit": false,
      "t": 128816.66666666626,
      "d": 483.3333333333285,
      "v": 84
    },
    {
      "midi": 72,
      "hit": false,
      "t": 128816.66666666626,
      "d": 483.3333333333285,
      "v": 79
    },
    {
      "midi": 48,
      "hit": false,
      "t": 128816.66666666626,
      "d": 1683.333333333314,
      "v": 61
    },
    {
      "midi": 67,
      "hit": false,
      "t": 129299.99999999959,
      "d": 233.33333333332848,
      "v": 55
    },
    {
      "midi": 55,
      "hit": false,
      "t": 129533.33333333292,
      "d": 966.666666666657,
      "v": 52
    },
    {
      "midi": 60,
      "hit": false,
      "t": 129783.33333333292,
      "d": 233.33333333332848,
      "v": 69
    },
    {
      "midi": 62,
      "hit": false,
      "t": 130016.66666666625,
      "d": 250,
      "v": 82
    },
    {
      "midi": 64,
      "hit": false,
      "t": 130266.66666666625,
      "d": 233.33333333332848,
      "v": 87
    },
    {
      "midi": 62,
      "hit": false,
      "t": 130499.99999999958,
      "d": 233.33333333332848,
      "v": 57
    },
    {
      "midi": 48,
      "hit": false,
      "t": 130733.3333333329,
      "d": 250,
      "v": 62
    },
    {
      "midi": 60,
      "hit": false,
      "t": 130733.3333333329,
      "d": 250,
      "v": 82
    },
    {
      "midi": 79,
      "hit": false,
      "t": 131699.99999999956,
      "d": 250,
      "v": 71
    },
    {
      "midi": 67,
      "hit": false,
      "t": 131949.99999999956,
      "d": 233.33333333334303,
      "v": 71
    },
    {
      "midi": 72,
      "hit": false,
      "t": 132183.3333333329,
      "d": 233.33333333334303,
      "v": 79
    },
    {
      "midi": 74,
      "hit": false,
      "t": 132416.66666666625,
      "d": 250,
      "v": 79
    },
    {
      "midi": 48,
      "hit": false,
      "t": 132666.66666666625,
      "d": 483.33333333334303,
      "v": 67
    },
    {
      "midi": 74,
      "hit": false,
      "t": 132666.66666666625,
      "d": 483.33333333334303,
      "v": 84
    },
    {
      "midi": 72,
      "hit": false,
      "t": 133149.9999999996,
      "d": 233.33333333334303,
      "v": 52
    },
    {
      "midi": 55,
      "hit": false,
      "t": 133149.9999999996,
      "d": 483.33333333334303,
      "v": 37
    },
    {
      "midi": 72,
      "hit": false,
      "t": 133383.33333333294,
      "d": 483.33333333334303,
      "v": 79
    },
    {
      "midi": 64,
      "hit": false,
      "t": 133633.33333333294,
      "d": 466.66666666668607,
      "v": 51
    },
    {
      "midi": 72,
      "hit": false,
      "t": 133866.66666666628,
      "d": 233.33333333334303,
      "v": 42
    },
    {
      "midi": 55,
      "hit": false,
      "t": 134099.99999999962,
      "d": 250,
      "v": 45
    },
    {
      "midi": 71,
      "hit": false,
      "t": 134099.99999999962,
      "d": 250,
      "v": 50
    },
    {
      "midi": 72,
      "hit": false,
      "t": 134349.99999999962,
      "d": 233.33333333334303,
      "v": 73
    },
    {
      "midi": 67,
      "hit": false,
      "t": 134583.33333333296,
      "d": 250,
      "v": 46
    },
    {
      "midi": 71,
      "hit": false,
      "t": 134583.33333333296,
      "d": 250,
      "v": 67
    },
    {
      "midi": 69,
      "hit": false,
      "t": 134833.33333333296,
      "d": 233.33333333334303,
      "v": 47
    },
    {
      "midi": 67,
      "hit": false,
      "t": 135066.6666666663,
      "d": 233.33333333334303,
      "v": 43
    },
    {
      "midi": 65,
      "hit": false,
      "t": 135299.99999999965,
      "d": 250,
      "v": 48
    },
    {
      "midi": 64,
      "hit": false,
      "t": 135549.99999999965,
      "d": 233.33333333334303,
      "v": 43
    },
    {
      "midi": 79,
      "hit": false,
      "t": 135549.99999999965,
      "d": 233.33333333334303,
      "v": 68
    },
    {
      "midi": 62,
      "hit": false,
      "t": 135783.333333333,
      "d": 250,
      "v": 43
    },
    {
      "midi": 67,
      "hit": false,
      "t": 135783.333333333,
      "d": 250,
      "v": 58
    },
    {
      "midi": 60,
      "hit": false,
      "t": 136033.333333333,
      "d": 233.33333333334303,
      "v": 56
    },
    {
      "midi": 72,
      "hit": false,
      "t": 136033.333333333,
      "d": 233.33333333334303,
      "v": 79
    },
    {
      "midi": 59,
      "hit": false,
      "t": 136266.66666666634,
      "d": 250,
      "v": 61
    },
    {
      "midi": 74,
      "hit": false,
      "t": 136266.66666666634,
      "d": 250,
      "v": 95
    },
    {
      "midi": 45,
      "hit": false,
      "t": 136516.66666666634,
      "d": 233.33333333334303,
      "v": 66
    },
    {
      "midi": 57,
      "hit": false,
      "t": 136516.66666666634,
      "d": 233.33333333334303,
      "v": 56
    },
    {
      "midi": 74,
      "hit": false,
      "t": 136516.66666666634,
      "d": 1683.333333333343,
      "v": 95
    },
    {
      "midi": 55,
      "hit": false,
      "t": 136983.333333333,
      "d": 250,
      "v": 55
    },
    {
      "midi": 72,
      "hit": false,
      "t": 136983.333333333,
      "d": 250,
      "v": 62
    },
    {
      "midi": 76,
      "hit": false,
      "t": 137233.333333333,
      "d": 716.6666666666861,
      "v": 68
    },
    {
      "midi": 67,
      "hit": false,
      "t": 137466.66666666634,
      "d": 250,
      "v": 56
    },
    {
      "midi": 72,
      "hit": false,
      "t": 137716.66666666634,
      "d": 233.33333333334303,
      "v": 42
    },
    {
      "midi": 71,
      "hit": false,
      "t": 137949.99999999968,
      "d": 250,
      "v": 50
    },
    {
      "midi": 62,
      "hit": false,
      "t": 137949.99999999968,
      "d": 483.33333333334303,
      "v": 50
    },
    {
      "midi": 72,
      "hit": false,
      "t": 138199.99999999968,
      "d": 233.33333333334303,
      "v": 73
    },
    {
      "midi": 71,
      "hit": false,
      "t": 138433.33333333302,
      "d": 233.33333333334303,
      "v": 67
    },
    {
      "midi": 64,
      "hit": false,
      "t": 138433.33333333302,
      "d": 716.6666666666861,
      "v": 56
    },
    {
      "midi": 76,
      "hit": false,
      "t": 138433.33333333302,
      "d": 716.6666666666861,
      "v": 56
    },
    {
      "midi": 69,
      "hit": false,
      "t": 138666.66666666637,
      "d": 250,
      "v": 47
    },
    {
      "midi": 67,
      "hit": false,
      "t": 138916.66666666637,
      "d": 233.33333333334303,
      "v": 43
    },
    {
      "midi": 74,
      "hit": false,
      "t": 138916.66666666637,
      "d": 233.33333333334303,
      "v": 45
    },
    {
      "midi": 62,
      "hit": false,
      "t": 138916.66666666637,
      "d": 483.33333333334303,
      "v": 2
    },
    {
      "midi": 65,
      "hit": false,
      "t": 139149.9999999997,
      "d": 250,
      "v": 48
    },
    {
      "midi": 76,
      "hit": false,
      "t": 139399.9999999997,
      "d": 16.666666666656965,
      "v": 57
    },
    {
      "midi": 64,
      "hit": false,
      "t": 139399.9999999997,
      "d": 233.33333333331393,
      "v": 43
    },
    {
      "midi": 79,
      "hit": false,
      "t": 139399.9999999997,
      "d": 233.33333333331393,
      "v": 71
    },
    {
      "midi": 62,
      "hit": false,
      "t": 139633.33333333302,
      "d": 233.33333333334303,
      "v": 43
    },
    {
      "midi": 67,
      "hit": false,
      "t": 139633.33333333302,
      "d": 233.33333333334303,
      "v": 63
    },
    {
      "midi": 60,
      "hit": false,
      "t": 139866.66666666637,
      "d": 250,
      "v": 56
    },
    {
      "midi": 72,
      "hit": false,
      "t": 139866.66666666637,
      "d": 250,
      "v": 71
    },
    {
      "midi": 59,
      "hit": false,
      "t": 140116.66666666637,
      "d": 233.33333333334303,
      "v": 61
    },
    {
      "midi": 74,
      "hit": false,
      "t": 140116.66666666637,
      "d": 233.33333333334303,
      "v": 87
    },
    {
      "midi": 57,
      "hit": false,
      "t": 140349.9999999997,
      "d": 250,
      "v": 56
    },
    {
      "midi": 41,
      "hit": false,
      "t": 140349.9999999997,
      "d": 483.33333333334303,
      "v": 68
    },
    {
      "midi": 74,
      "hit": false,
      "t": 140349.9999999997,
      "d": 483.33333333334303,
      "v": 84
    },
    {
      "midi": 72,
      "hit": false,
      "t": 140833.33333333305,
      "d": 250,
      "v": 63
    },
    {
      "midi": 48,
      "hit": false,
      "t": 140833.33333333305,
      "d": 483.33333333334303,
      "v": 53
    },
    {
      "midi": 72,
      "hit": false,
      "t": 141083.33333333305,
      "d": 466.66666666668607,
      "v": 84
    },
    {
      "midi": 60,
      "hit": false,
      "t": 141316.6666666664,
      "d": 233.33333333334303,
      "v": 63
    },
    {
      "midi": 72,
      "hit": false,
      "t": 141799.99999999974,
      "d": 233.33333333334303,
      "v": 58
    },
    {
      "midi": 74,
      "hit": false,
      "t": 142033.33333333308,
      "d": 250,
      "v": 69
    },
    {
      "midi": 38,
      "hit": false,
      "t": 142283.33333333308,
      "d": 466.66666666665697,
      "v": 64
    },
    {
      "midi": 74,
      "hit": false,
      "t": 142283.33333333308,
      "d": 466.66666666665697,
      "v": 91
    },
    {
      "midi": 45,
      "hit": false,
      "t": 142749.99999999974,
      "d": 250,
      "v": 41
    },
    {
      "midi": 72,
      "hit": false,
      "t": 142749.99999999974,
      "d": 250,
      "v": 60
    },
    {
      "midi": 45,
      "hit": false,
      "t": 142999.99999999974,
      "d": 233.33333333334303,
      "v": 7
    },
    {
      "midi": 72,
      "hit": false,
      "t": 142999.99999999974,
      "d": 483.33333333334303,
      "v": 66
    },
    {
      "midi": 57,
      "hit": false,
      "t": 143233.33333333308,
      "d": 483.33333333334303,
      "v": 53
    },
    {
      "midi": 69,
      "hit": false,
      "t": 143716.66666666642,
      "d": 250,
      "v": 64
    },
    {
      "midi": 43,
      "hit": false,
      "t": 144199.99999999974,
      "d": 483.33333333334303,
      "v": 56
    },
    {
      "midi": 69,
      "hit": false,
      "t": 144199.99999999974,
      "d": 1450.000000000029,
      "v": 82
    },
    {
      "midi": 50,
      "hit": false,
      "t": 144683.33333333308,
      "d": 233.33333333334303,
      "v": 61
    },
    {
      "midi": 55,
      "hit": false,
      "t": 145166.66666666642,
      "d": 233.33333333334303,
      "v": 55
    },
    {
      "midi": 67,
      "hit": false,
      "t": 145649.99999999977,
      "d": 233.33333333334303,
      "v": 43
    },
    {
      "midi": 67,
      "hit": false,
      "t": 146116.66666666645,
      "d": 250,
      "v": 82
    },
    {
      "midi": 43,
      "hit": false,
      "t": 146116.66666666645,
      "d": 966.666666666657,
      "v": 63
    },
    {
      "midi": 50,
      "hit": false,
      "t": 146599.9999999998,
      "d": 250,
      "v": 50
    },
    {
      "midi": 55,
      "hit": false,
      "t": 146849.9999999998,
      "d": 233.33333333331393,
      "v": 42
    },
    {
      "midi": 31,
      "hit": false,
      "t": 147066.66666666645,
      "d": 550,
      "v": 64
    },
    {
      "midi": 43,
      "hit": false,
      "t": 148049.9999999998,
      "d": 1799.9999999999418,
      "v": 73
    },
    {
      "midi": 55,
      "hit": false,
      "t": 148283.33333333314,
      "d": 1449.9999999999418,
      "v": 41
    },
    {
      "midi": 57,
      "hit": false,
      "t": 148533.33333333314,
      "d": 116.66666666665697,
      "v": 42
    },
    {
      "midi": 65,
      "hit": false,
      "t": 148766.66666666645,
      "d": 116.66666666665697,
      "v": 66
    },
    {
      "midi": 57,
      "hit": false,
      "t": 148999.99999999977,
      "d": 133.33333333334303,
      "v": 53
    },
    {
      "midi": 60,
      "hit": false,
      "t": 149249.99999999977,
      "d": 116.66666666665697,
      "v": 45
    },
    {
      "midi": 65,
      "hit": false,
      "t": 149483.33333333308,
      "d": 116.66666666665697,
      "v": 48
    },
    {
      "midi": 60,
      "hit": false,
      "t": 149733.33333333308,
      "d": 116.66666666665697,
      "v": 45
    },
    {
      "midi": 59,
      "hit": false,
      "t": 149966.6666666664,
      "d": 366.66666666665697,
      "v": 52
    },
    {
      "midi": 43,
      "hit": false,
      "t": 149966.6666666664,
      "d": 2399.999999999942,
      "v": 56
    },
    {
      "midi": 55,
      "hit": false,
      "t": 150216.6666666664,
      "d": 1199.999999999971,
      "v": 26
    },
    {
      "midi": 62,
      "hit": false,
      "t": 150449.9999999997,
      "d": 116.66666666665697,
      "v": 46
    },
    {
      "midi": 67,
      "hit": false,
      "t": 150683.33333333302,
      "d": 133.33333333334303,
      "v": 53
    },
    {
      "midi": 71,
      "hit": false,
      "t": 151166.66666666637,
      "d": 116.66666666665697,
      "v": 35
    },
    {
      "midi": 74,
      "hit": false,
      "t": 151416.66666666637,
      "d": 116.66666666665697,
      "v": 30
    },
    {
      "midi": 55,
      "hit": false,
      "t": 151649.99999999968,
      "d": 716.666666666657,
      "v": 38
    },
    {
      "midi": 79,
      "hit": false,
      "t": 151766.66666666634,
      "d": 116.66666666665697,
      "v": 17
    },
    {
      "midi": 83,
      "hit": false,
      "t": 151766.66666666634,
      "d": 116.66666666665697,
      "v": 19
    },
    {
      "midi": 86,
      "hit": false,
      "t": 151883.333333333,
      "d": 133.33333333334303,
      "v": 35
    },
    {
      "midi": 91,
      "hit": false,
      "t": 151883.333333333,
      "d": 133.33333333334303,
      "v": 64
    },
    {
      "midi": 72,
      "hit": false,
      "t": 153816.66666666634,
      "d": 233.33333333334303,
      "v": 71
    },
    {
      "midi": 64,
      "hit": false,
      "t": 153816.66666666634,
      "d": 483.33333333334303,
      "v": 79
    },
    {
      "midi": 67,
      "hit": false,
      "t": 153816.66666666634,
      "d": 483.33333333334303,
      "v": 76
    },
    {
      "midi": 48,
      "hit": false,
      "t": 153816.66666666634,
      "d": 2883.333333333372,
      "v": 67
    },
    {
      "midi": 55,
      "hit": false,
      "t": 154533.33333333302,
      "d": 966.6666666666861,
      "v": 58
    },
    {
      "midi": 60,
      "hit": false,
      "t": 154766.66666666637,
      "d": 250,
      "v": 64
    },
    {
      "midi": 62,
      "hit": false,
      "t": 155016.66666666637,
      "d": 233.33333333334303,
      "v": 64
    },
    {
      "midi": 64,
      "hit": false,
      "t": 155249.9999999997,
      "d": 250,
      "v": 84
    },
    {
      "midi": 67,
      "hit": false,
      "t": 155499.9999999997,
      "d": 950,
      "v": 63
    },
    {
      "midi": 60,
      "hit": false,
      "t": 155733.33333333305,
      "d": 716.666666666657,
      "v": 50
    },
    {
      "midi": 55,
      "hit": false,
      "t": 155733.33333333305,
      "d": 966.666666666657,
      "v": 35
    },
    {
      "midi": 62,
      "hit": false,
      "t": 156699.9999999997,
      "d": 233.33333333334303,
      "v": 87
    },
    {
      "midi": 64,
      "hit": false,
      "t": 157183.33333333305,
      "d": 233.33333333334303,
      "v": 71
    },
    {
      "midi": 67,
      "hit": false,
      "t": 157416.6666666664,
      "d": 250,
      "v": 42
    },
    {
      "midi": 40,
      "hit": false,
      "t": 157666.6666666664,
      "d": 466.66666666668607,
      "v": 62
    },
    {
      "midi": 67,
      "hit": false,
      "t": 157666.6666666664,
      "d": 950.0000000000291,
      "v": 76
    },
    {
      "midi": 47,
      "hit": false,
      "t": 158133.33333333308,
      "d": 250,
      "v": 45
    },
    {
      "midi": 59,
      "hit": false,
      "t": 158616.66666666642,
      "d": 250,
      "v": 58
    },
    {
      "midi": 52,
      "hit": false,
      "t": 158616.66666666642,
      "d": 1933.333333333343,
      "v": 63
    },
    {
      "midi": 55,
      "hit": false,
      "t": 158866.66666666642,
      "d": 716.6666666666861,
      "v": 55
    },
    {
      "midi": 62,
      "hit": false,
      "t": 159099.99999999977,
      "d": 233.33333333334303,
      "v": 64
    },
    {
      "midi": 59,
      "hit": false,
      "t": 159333.3333333331,
      "d": 250,
      "v": 57
    },
    {
      "midi": 59,
      "hit": false,
      "t": 159583.3333333331,
      "d": 716.666666666657,
      "v": 62
    },
    {
      "midi": 67,
      "hit": false,
      "t": 159583.3333333331,
      "d": 716.666666666657,
      "v": 62
    },
    {
      "midi": 55,
      "hit": false,
      "t": 159583.3333333331,
      "d": 966.666666666657,
      "v": 23
    },
    {
      "midi": 59,
      "hit": false,
      "t": 160549.99999999977,
      "d": 233.33333333334303,
      "v": 76
    },
    {
      "midi": 67,
      "hit": false,
      "t": 160549.99999999977,
      "d": 233.33333333334303,
      "v": 55
    },
    {
      "midi": 59,
      "hit": false,
      "t": 161016.66666666645,
      "d": 483.33333333334303,
      "v": 57
    },
    {
      "midi": 67,
      "hit": false,
      "t": 161016.66666666645,
      "d": 483.33333333334303,
      "v": 46
    },
    {
      "midi": 67,
      "hit": false,
      "t": 161499.9999999998,
      "d": 250,
      "v": 24
    },
    {
      "midi": 45,
      "hit": false,
      "t": 161499.9999999998,
      "d": 1683.3333333333721,
      "v": 62
    },
    {
      "midi": 72,
      "hit": false,
      "t": 161749.9999999998,
      "d": 233.33333333334303,
      "v": 52
    },
    {
      "midi": 52,
      "hit": false,
      "t": 161749.9999999998,
      "d": 716.6666666666861,
      "v": 35
    },
    {
      "midi": 71,
      "hit": false,
      "t": 161983.33333333314,
      "d": 250,
      "v": 73
    },
    {
      "midi": 72,
      "hit": false,
      "t": 162233.33333333314,
      "d": 233.33333333334303,
      "v": 99
    },
    {
      "midi": 57,
      "hit": false,
      "t": 162466.66666666648,
      "d": 233.33333333334303,
      "v": 23
    },
    {
      "midi": 71,
      "hit": false,
      "t": 162466.66666666648,
      "d": 233.33333333334303,
      "v": 82
    },
    {
      "midi": 69,
      "hit": false,
      "t": 162699.99999999983,
      "d": 250,
      "v": 34
    },
    {
      "midi": 52,
      "hit": false,
      "t": 162699.99999999983,
      "d": 483.33333333334303,
      "v": 5
    },
    {
      "midi": 67,
      "hit": false,
      "t": 162949.99999999983,
      "d": 233.33333333334303,
      "v": 46
    },
    {
      "midi": 57,
      "hit": false,
      "t": 163183.33333333317,
      "d": 250,
      "v": 42
    },
    {
      "midi": 65,
      "hit": false,
      "t": 163183.33333333317,
      "d": 250,
      "v": 64
    },
    {
      "midi": 64,
      "hit": false,
      "t": 163433.33333333317,
      "d": 233.33333333334303,
      "v": 68
    },
    {
      "midi": 45,
      "hit": false,
      "t": 163433.33333333317,
      "d": 950.0000000000291,
      "v": 66
    },
    {
      "midi": 62,
      "hit": false,
      "t": 163666.6666666665,
      "d": 233.33333333334303,
      "v": 19
    },
    {
      "midi": 52,
      "hit": false,
      "t": 163666.6666666665,
      "d": 483.33333333334303,
      "v": 22
    },
    {
      "midi": 62,
      "hit": false,
      "t": 163899.99999999985,
      "d": 250,
      "v": 52
    },
    {
      "midi": 57,
      "hit": false,
      "t": 164149.99999999985,
      "d": 233.33333333334303,
      "v": 61
    },
    {
      "midi": 60,
      "hit": false,
      "t": 164383.3333333332,
      "d": 250,
      "v": 79
    },
    {
      "midi": 52,
      "hit": false,
      "t": 164633.3333333332,
      "d": 233.33333333334303,
      "v": 48
    },
    {
      "midi": 59,
      "hit": false,
      "t": 164866.66666666654,
      "d": 250,
      "v": 66
    },
    {
      "midi": 62,
      "hit": false,
      "t": 165116.66666666654,
      "d": 233.33333333331393,
      "v": 47
    },
    {
      "midi": 59,
      "hit": false,
      "t": 165349.99999999985,
      "d": 233.33333333334303,
      "v": 71
    },
    {
      "midi": 40,
      "hit": false,
      "t": 165349.99999999985,
      "d": 1433.3333333333721,
      "v": 60
    },
    {
      "midi": 47,
      "hit": false,
      "t": 165583.3333333332,
      "d": 733.333333333343,
      "v": 26
    },
    {
      "midi": 55,
      "hit": false,
      "t": 165833.3333333332,
      "d": 233.33333333334303,
      "v": 35
    },
    {
      "midi": 55,
      "hit": false,
      "t": 166066.66666666654,
      "d": 250,
      "v": 27
    },
    {
      "midi": 64,
      "hit": false,
      "t": 166066.66666666654,
      "d": 250,
      "v": 66
    },
    {
      "midi": 59,
      "hit": false,
      "t": 166316.66666666654,
      "d": 233.33333333334303,
      "v": 64
    },
    {
      "midi": 47,
      "hit": false,
      "t": 166549.99999999988,
      "d": 483.33333333334303,
      "v": 45
    },
    {
      "midi": 52,
      "hit": false,
      "t": 166783.33333333323,
      "d": 250,
      "v": 46
    },
    {
      "midi": 55,
      "hit": false,
      "t": 167033.33333333323,
      "d": 233.33333333334303,
      "v": 36
    },
    {
      "midi": 47,
      "hit": false,
      "t": 167266.66666666657,
      "d": 483.33333333334303,
      "v": 28
    },
    {
      "midi": 52,
      "hit": false,
      "t": 167266.66666666657,
      "d": 733.333333333343,
      "v": 60
    },
    {
      "midi": 55,
      "hit": false,
      "t": 167266.66666666657,
      "d": 733.333333333343,
      "v": 56
    },
    {
      "midi": 62,
      "hit": false,
      "t": 167266.66666666657,
      "d": 733.333333333343,
      "v": 60
    },
    {
      "midi": 40,
      "hit": false,
      "t": 167266.66666666657,
      "d": 966.6666666666861,
      "v": 36
    },
    {
      "midi": 47,
      "hit": false,
      "t": 167999.9999999999,
      "d": 233.33333333334303,
      "v": 11
    },
    {
      "midi": 52,
      "hit": false,
      "t": 168233.33333333326,
      "d": 233.33333333334303,
      "v": 63
    },
    {
      "midi": 62,
      "hit": false,
      "t": 168233.33333333326,
      "d": 233.33333333334303,
      "v": 29
    },
    {
      "midi": 47,
      "hit": false,
      "t": 168466.6666666666,
      "d": 250,
      "v": 58
    },
    {
      "midi": 57,
      "hit": false,
      "t": 168716.6666666666,
      "d": 233.33333333334303,
      "v": 64
    },
    {
      "midi": 59,
      "hit": false,
      "t": 168949.99999999994,
      "d": 250,
      "v": 68
    },
    {
      "midi": 41,
      "hit": false,
      "t": 169199.99999999994,
      "d": 233.33333333334303,
      "v": 68
    },
    {
      "midi": 60,
      "hit": false,
      "t": 169199.99999999994,
      "d": 233.33333333334303,
      "v": 84
    },
    {
      "midi": 48,
      "hit": false,
      "t": 169433.33333333328,
      "d": 250,
      "v": 64
    },
    {
      "midi": 72,
      "hit": false,
      "t": 169916.66666666663,
      "d": 483.33333333334303,
      "v": 63
    },
    {
      "midi": 53,
      "hit": false,
      "t": 169916.66666666663,
      "d": 716.6666666666861,
      "v": 45
    },
    {
      "midi": 60,
      "hit": false,
      "t": 170149.99999999997,
      "d": 250,
      "v": 57
    },
    {
      "midi": 65,
      "hit": false,
      "t": 170399.99999999997,
      "d": 233.33333333334303,
      "v": 46
    },
    {
      "midi": 72,
      "hit": false,
      "t": 170633.3333333333,
      "d": 250,
      "v": 79
    },
    {
      "midi": 65,
      "hit": false,
      "t": 170883.3333333333,
      "d": 233.33333333334303,
      "v": 42
    },
    {
      "midi": 40,
      "hit": false,
      "t": 171116.66666666666,
      "d": 233.33333333331393,
      "v": 66
    },
    {
      "midi": 64,
      "hit": false,
      "t": 171116.66666666666,
      "d": 483.33333333331393,
      "v": 76
    },
    {
      "midi": 67,
      "hit": false,
      "t": 171116.66666666666,
      "d": 483.33333333331393,
      "v": 69
    },
    {
      "midi": 72,
      "hit": false,
      "t": 171116.66666666666,
      "d": 483.33333333331393,
      "v": 64
    },
    {
      "midi": 64,
      "hit": false,
      "t": 171599.99999999997,
      "d": 233.33333333334303,
      "v": 27
    },
    {
      "midi": 52,
      "hit": false,
      "t": 171833.3333333333,
      "d": 483.33333333334303,
      "v": 32
    },
    {
      "midi": 72,
      "hit": false,
      "t": 172083.3333333333,
      "d": 233.33333333334303,
      "v": 62
    },
    {
      "midi": 59,
      "hit": false,
      "t": 172316.66666666666,
      "d": 250,
      "v": 64
    },
    {
      "midi": 67,
      "hit": false,
      "t": 172566.66666666666,
      "d": 233.33333333334303,
      "v": 57
    },
    {
      "midi": 64,
      "hit": false,
      "t": 172800,
      "d": 233.33333333331393,
      "v": 62
    },
    {
      "midi": 72,
      "hit": false,
      "t": 172800,
      "d": 233.33333333331393,
      "v": 46
    },
    {
      "midi": 64,
      "hit": false,
      "t": 173033.3333333333,
      "d": 250,
      "v": 43
    },
    {
      "midi": 67,
      "hit": false,
      "t": 173033.3333333333,
      "d": 250,
      "v": 69
    },
    {
      "midi": 52,
      "hit": false,
      "t": 173033.3333333333,
      "d": 966.6666666666861,
      "v": 64
    },
    {
      "midi": 55,
      "hit": false,
      "t": 173283.3333333333,
      "d": 483.33333333334303,
      "v": 26
    },
    {
      "midi": 59,
      "hit": false,
      "t": 173766.66666666666,
      "d": 233.33333333334303,
      "v": 63
    },
    {
      "midi": 67,
      "hit": false,
      "t": 173766.66666666666,
      "d": 233.33333333334303,
      "v": 66
    },
    {
      "midi": 55,
      "hit": false,
      "t": 174000,
      "d": 250,
      "v": 26
    },
    {
      "midi": 62,
      "hit": false,
      "t": 174250,
      "d": 233.33333333334303,
      "v": 68
    },
    {
      "midi": 57,
      "hit": false,
      "t": 174966.66666666666,
      "d": 483.33333333334303,
      "v": 63
    },
    {
      "midi": 60,
      "hit": false,
      "t": 174966.66666666666,
      "d": 483.33333333334303,
      "v": 64
    },
    {
      "midi": 45,
      "hit": false,
      "t": 174966.66666666666,
      "d": 1200.000000000029,
      "v": 62
    },
    {
      "midi": 52,
      "hit": false,
      "t": 175200,
      "d": 250,
      "v": 43
    },
    {
      "midi": 57,
      "hit": false,
      "t": 175450,
      "d": 466.66666666668607,
      "v": 37
    },
    {
      "midi": 52,
      "hit": false,
      "t": 175683.33333333334,
      "d": 233.33333333334303,
      "v": 21
    },
    {
      "midi": 72,
      "hit": false,
      "t": 176400.00000000003,
      "d": 250,
      "v": 76
    },
    {
      "midi": 76,
      "hit": false,
      "t": 176400.00000000003,
      "d": 250,
      "v": 73
    },
    {
      "midi": 71,
      "hit": false,
      "t": 176650.00000000003,
      "d": 233.33333333334303,
      "v": 66
    },
    {
      "midi": 74,
      "hit": false,
      "t": 176650.00000000003,
      "d": 233.33333333334303,
      "v": 58
    },
    {
      "midi": 53,
      "hit": false,
      "t": 176883.33333333337,
      "d": 1200,
      "v": 67
    },
    {
      "midi": 60,
      "hit": false,
      "t": 176883.33333333337,
      "d": 1200,
      "v": 62
    },
    {
      "midi": 69,
      "hit": false,
      "t": 176883.33333333337,
      "d": 1200,
      "v": 82
    },
    {
      "midi": 72,
      "hit": false,
      "t": 176883.33333333337,
      "d": 1200,
      "v": 84
    },
    {
      "midi": 69,
      "hit": false,
      "t": 178800.00000000003,
      "d": 733.333333333343,
      "v": 99
    },
    {
      "midi": 74,
      "hit": false,
      "t": 178800.00000000003,
      "d": 733.333333333343,
      "v": 84
    },
    {
      "midi": 50,
      "hit": false,
      "t": 178800.00000000003,
      "d": 966.6666666666861,
      "v": 68
    },
    {
      "midi": 57,
      "hit": false,
      "t": 178800.00000000003,
      "d": 966.6666666666861,
      "v": 67
    },
    {
      "midi": 69,
      "hit": false,
      "t": 179766.66666666672,
      "d": 250,
      "v": 68
    },
    {
      "midi": 74,
      "hit": false,
      "t": 179766.66666666672,
      "d": 250,
      "v": 63
    },
    {
      "midi": 67,
      "hit": false,
      "t": 180733.3333333334,
      "d": 233.33333333334303,
      "v": 84
    },
    {
      "midi": 74,
      "hit": false,
      "t": 180733.3333333334,
      "d": 233.33333333334303,
      "v": 76
    },
    {
      "midi": 71,
      "hit": false,
      "t": 180733.3333333334,
      "d": 483.33333333334303,
      "v": 91
    },
    {
      "midi": 43,
      "hit": false,
      "t": 180733.3333333334,
      "d": 716.6666666666861,
      "v": 79
    },
    {
      "midi": 67,
      "hit": false,
      "t": 181216.66666666674,
      "d": 233.33333333334303,
      "v": 19
    },
    {
      "midi": 50,
      "hit": false,
      "t": 181450.0000000001,
      "d": 250,
      "v": 55
    },
    {
      "midi": 67,
      "hit": false,
      "t": 181700.0000000001,
      "d": 233.33333333334303,
      "v": 62
    },
    {
      "midi": 74,
      "hit": false,
      "t": 181933.33333333343,
      "d": 233.33333333334303,
      "v": 56
    },
    {
      "midi": 71,
      "hit": false,
      "t": 182166.66666666677,
      "d": 250,
      "v": 46
    },
    {
      "midi": 55,
      "hit": false,
      "t": 182650.00000000012,
      "d": 250,
      "v": 67
    },
    {
      "midi": 62,
      "hit": false,
      "t": 182650.00000000012,
      "d": 250,
      "v": 82
    },
    {
      "midi": 71,
      "hit": false,
      "t": 182650.00000000012,
      "d": 250,
      "v": 91
    },
    {
      "midi": 74,
      "hit": false,
      "t": 182650.00000000012,
      "d": 250,
      "v": 99
    },
    {
      "midi": 79,
      "hit": false,
      "t": 182650.00000000012,
      "d": 250,
      "v": 76
    },
    {
      "midi": 55,
      "hit": false,
      "t": 182900.00000000012,
      "d": 233.33333333331393,
      "v": 68
    },
    {
      "midi": 62,
      "hit": false,
      "t": 182900.00000000012,
      "d": 233.33333333331393,
      "v": 69
    },
    {
      "midi": 71,
      "hit": false,
      "t": 182900.00000000012,
      "d": 233.33333333331393,
      "v": 87
    },
    {
      "midi": 74,
      "hit": false,
      "t": 182900.00000000012,
      "d": 233.33333333331393,
      "v": 91
    },
    {
      "midi": 79,
      "hit": false,
      "t": 182900.00000000012,
      "d": 233.33333333331393,
      "v": 73
    },
    {
      "midi": 76,
      "hit": false,
      "t": 184583.33333333343,
      "d": 233.33333333331393,
      "v": 71
    },
    {
      "midi": 67,
      "hit": false,
      "t": 184583.33333333343,
      "d": 466.66666666665697,
      "v": 82
    },
    {
      "midi": 72,
      "hit": false,
      "t": 184583.33333333343,
      "d": 466.66666666665697,
      "v": 87
    },
    {
      "midi": 48,
      "hit": false,
      "t": 184583.33333333343,
      "d": 1200,
      "v": 66
    },
    {
      "midi": 76,
      "hit": false,
      "t": 185050.0000000001,
      "d": 250,
      "v": 6
    },
    {
      "midi": 76,
      "hit": false,
      "t": 185533.33333333343,
      "d": 250,
      "v": 69
    },
    {
      "midi": 67,
      "hit": false,
      "t": 185533.33333333343,
      "d": 483.33333333334303,
      "v": 84
    },
    {
      "midi": 72,
      "hit": false,
      "t": 185533.33333333343,
      "d": 483.33333333334303,
      "v": 82
    },
    {
      "midi": 67,
      "hit": false,
      "t": 186016.66666666677,
      "d": 250,
      "v": 28
    },
    {
      "midi": 76,
      "hit": false,
      "t": 186016.66666666677,
      "d": 250,
      "v": 22
    },
    {
      "midi": 67,
      "hit": false,
      "t": 186500.0000000001,
      "d": 483.33333333334303,
      "v": 76
    },
    {
      "midi": 71,
      "hit": false,
      "t": 186500.0000000001,
      "d": 483.33333333334303,
      "v": 82
    },
    {
      "midi": 76,
      "hit": false,
      "t": 186500.0000000001,
      "d": 716.6666666666861,
      "v": 69
    },
    {
      "midi": 52,
      "hit": false,
      "t": 186500.0000000001,
      "d": 966.6666666666861,
      "v": 64
    },
    {
      "midi": 59,
      "hit": false,
      "t": 186500.0000000001,
      "d": 1200.000000000029,
      "v": 63
    },
    {
      "midi": 71,
      "hit": false,
      "t": 187466.66666666677,
      "d": 233.33333333334303,
      "v": 99
    },
    {
      "midi": 76,
      "hit": false,
      "t": 187466.66666666677,
      "d": 233.33333333334303,
      "v": 76
    },
    {
      "midi": 72,
      "hit": false,
      "t": 188416.66666666677,
      "d": 483.33333333334303,
      "v": 87
    },
    {
      "midi": 76,
      "hit": false,
      "t": 188416.66666666677,
      "d": 483.33333333334303,
      "v": 69
    },
    {
      "midi": 69,
      "hit": false,
      "t": 188416.66666666677,
      "d": 733.333333333343,
      "v": 87
    },
    {
      "midi": 57,
      "hit": false,
      "t": 188416.66666666677,
      "d": 966.6666666666861,
      "v": 68
    },
    {
      "midi": 69,
      "hit": false,
      "t": 189383.33333333346,
      "d": 233.33333333334303,
      "v": 87
    },
    {
      "midi": 72,
      "hit": false,
      "t": 189383.33333333346,
      "d": 233.33333333334303,
      "v": 87
    },
    {
      "midi": 76,
      "hit": false,
      "t": 189383.33333333346,
      "d": 233.33333333334303,
      "v": 63
    },
    {
      "midi": 67,
      "hit": false,
      "t": 190100.00000000012,
      "d": 250,
      "v": 47
    },
    {
      "midi": 71,
      "hit": false,
      "t": 190100.00000000012,
      "d": 250,
      "v": 30
    },
    {
      "midi": 76,
      "hit": false,
      "t": 190100.00000000012,
      "d": 250,
      "v": 14
    },
    {
      "midi": 67,
      "hit": false,
      "t": 190350.00000000012,
      "d": 233.33333333331393,
      "v": 76
    },
    {
      "midi": 71,
      "hit": false,
      "t": 190350.00000000012,
      "d": 233.33333333331393,
      "v": 79
    },
    {
      "midi": 76,
      "hit": false,
      "t": 190350.00000000012,
      "d": 233.33333333331393,
      "v": 67
    },
    {
      "midi": 52,
      "hit": false,
      "t": 190350.00000000012,
      "d": 950,
      "v": 63
    },
    {
      "midi": 59,
      "hit": false,
      "t": 190350.00000000012,
      "d": 950,
      "v": 57
    },
    {
      "midi": 79,
      "hit": false,
      "t": 191066.66666666677,
      "d": 233.33333333334303,
      "v": 46
    },
    {
      "midi": 91,
      "hit": false,
      "t": 191066.66666666677,
      "d": 233.33333333334303,
      "v": 56
    },
    {
      "midi": 52,
      "hit": false,
      "t": 191300.00000000012,
      "d": 250,
      "v": 40
    },
    {
      "midi": 59,
      "hit": false,
      "t": 191300.00000000012,
      "d": 250,
      "v": 46
    },
    {
      "midi": 79,
      "hit": false,
      "t": 191300.00000000012,
      "d": 250,
      "v": 87
    },
    {
      "midi": 91,
      "hit": false,
      "t": 191300.00000000012,
      "d": 250,
      "v": 82
    },
    {
      "midi": 76,
      "hit": false,
      "t": 191783.33333333346,
      "d": 250,
      "v": 82
    },
    {
      "midi": 88,
      "hit": false,
      "t": 191783.33333333346,
      "d": 250,
      "v": 82
    },
    {
      "midi": 77,
      "hit": false,
      "t": 192266.66666666677,
      "d": 483.33333333334303,
      "v": 84
    },
    {
      "midi": 81,
      "hit": false,
      "t": 192266.66666666677,
      "d": 483.33333333334303,
      "v": 91
    },
    {
      "midi": 53,
      "hit": false,
      "t": 192266.66666666677,
      "d": 1450.000000000029,
      "v": 68
    },
    {
      "midi": 72,
      "hit": false,
      "t": 193233.33333333346,
      "d": 233.33333333334303,
      "v": 87
    },
    {
      "midi": 77,
      "hit": false,
      "t": 193233.33333333346,
      "d": 233.33333333334303,
      "v": 79
    },
    {
      "midi": 67,
      "hit": false,
      "t": 194183.33333333346,
      "d": 483.33333333334303,
      "v": 76
    },
    {
      "midi": 71,
      "hit": false,
      "t": 194183.33333333346,
      "d": 483.33333333334303,
      "v": 84
    },
    {
      "midi": 74,
      "hit": false,
      "t": 194183.33333333346,
      "d": 483.33333333334303,
      "v": 66
    },
    {
      "midi": 55,
      "hit": false,
      "t": 194183.33333333346,
      "d": 966.6666666666861,
      "v": 62
    },
    {
      "midi": 62,
      "hit": false,
      "t": 194183.33333333346,
      "d": 966.6666666666861,
      "v": 53
    },
    {
      "midi": 67,
      "hit": false,
      "t": 194916.6666666668,
      "d": 233.33333333334303,
      "v": 27
    },
    {
      "midi": 71,
      "hit": false,
      "t": 194916.6666666668,
      "d": 233.33333333334303,
      "v": 22
    },
    {
      "midi": 67,
      "hit": false,
      "t": 195150.00000000015,
      "d": 233.33333333334303,
      "v": 95
    },
    {
      "midi": 71,
      "hit": false,
      "t": 195150.00000000015,
      "d": 233.33333333334303,
      "v": 103
    },
    {
      "midi": 74,
      "hit": false,
      "t": 195150.00000000015,
      "d": 233.33333333334303,
      "v": 68
    },
    {
      "midi": 48,
      "hit": false,
      "t": 196116.66666666683,
      "d": 233.33333333334303,
      "v": 56
    },
    {
      "midi": 72,
      "hit": false,
      "t": 196116.66666666683,
      "d": 483.33333333334303,
      "v": 87
    },
    {
      "midi": 76,
      "hit": false,
      "t": 196116.66666666683,
      "d": 483.33333333334303,
      "v": 95
    },
    {
      "midi": 79,
      "hit": false,
      "t": 196116.66666666683,
      "d": 483.33333333334303,
      "v": 71
    },
    {
      "midi": 60,
      "hit": false,
      "t": 196833.33333333352,
      "d": 233.33333333334303,
      "v": 4
    },
    {
      "midi": 72,
      "hit": false,
      "t": 197066.66666666686,
      "d": 250,
      "v": 91
    },
    {
      "midi": 76,
      "hit": false,
      "t": 197066.66666666686,
      "d": 250,
      "v": 87
    },
    {
      "midi": 79,
      "hit": false,
      "t": 197066.66666666686,
      "d": 250,
      "v": 67
    },
    {
      "midi": 60,
      "hit": false,
      "t": 197316.66666666686,
      "d": 233.33333333334303,
      "v": 28
    },
    {
      "midi": 67,
      "hit": false,
      "t": 197316.66666666686,
      "d": 233.33333333334303,
      "v": 55
    },
    {
      "midi": 72,
      "hit": false,
      "t": 197550.0000000002,
      "d": 250,
      "v": 55
    },
    {
      "midi": 79,
      "hit": false,
      "t": 197550.0000000002,
      "d": 250,
      "v": 28
    },
    {
      "midi": 79,
      "hit": false,
      "t": 197800.0000000002,
      "d": 233.33333333334303,
      "v": 50
    },
    {
      "midi": 71,
      "hit": false,
      "t": 198033.33333333355,
      "d": 250,
      "v": 87
    },
    {
      "midi": 79,
      "hit": false,
      "t": 198033.33333333355,
      "d": 250,
      "v": 73
    },
    {
      "midi": 62,
      "hit": false,
      "t": 198033.33333333355,
      "d": 483.33333333334303,
      "v": 66
    },
    {
      "midi": 74,
      "hit": false,
      "t": 198033.33333333355,
      "d": 483.33333333334303,
      "v": 91
    },
    {
      "midi": 55,
      "hit": false,
      "t": 198033.33333333355,
      "d": 966.6666666666861,
      "v": 64
    },
    {
      "midi": 71,
      "hit": false,
      "t": 198516.6666666669,
      "d": 233.33333333334303,
      "v": 57
    },
    {
      "midi": 79,
      "hit": false,
      "t": 198516.6666666669,
      "d": 233.33333333334303,
      "v": 58
    },
    {
      "midi": 62,
      "hit": false,
      "t": 198750.00000000023,
      "d": 250,
      "v": 55
    },
    {
      "midi": 71,
      "hit": false,
      "t": 199000.00000000023,
      "d": 233.33333333334303,
      "v": 99
    },
    {
      "midi": 79,
      "hit": false,
      "t": 199000.00000000023,
      "d": 233.33333333334303,
      "v": 76
    },
    {
      "midi": 72,
      "hit": false,
      "t": 199233.33333333358,
      "d": 250,
      "v": 21
    },
    {
      "midi": 72,
      "hit": false,
      "t": 199483.33333333358,
      "d": 233.33333333334303,
      "v": 82
    },
    {
      "midi": 84,
      "hit": false,
      "t": 199483.33333333358,
      "d": 233.33333333334303,
      "v": 82
    },
    {
      "midi": 88,
      "hit": false,
      "t": 199716.66666666692,
      "d": 233.33333333334303,
      "v": 33
    },
    {
      "midi": 76,
      "hit": false,
      "t": 199950.00000000026,
      "d": 250,
      "v": 87
    },
    {
      "midi": 88,
      "hit": false,
      "t": 199950.00000000026,
      "d": 250,
      "v": 91
    },
    {
      "midi": 60,
      "hit": false,
      "t": 199950.00000000026,
      "d": 1216.666666666686,
      "v": 66
    },
    {
      "midi": 67,
      "hit": false,
      "t": 199950.00000000026,
      "d": 1216.666666666686,
      "v": 68
    },
    {
      "midi": 72,
      "hit": false,
      "t": 200683.3333333336,
      "d": 233.33333333334303,
      "v": 41
    },
    {
      "midi": 72,
      "hit": false,
      "t": 200916.66666666695,
      "d": 250,
      "v": 82
    },
    {
      "midi": 79,
      "hit": false,
      "t": 200916.66666666695,
      "d": 250,
      "v": 67
    },
    {
      "midi": 72,
      "hit": false,
      "t": 201166.66666666695,
      "d": 233.33333333334303,
      "v": 23
    },
    {
      "midi": 71,
      "hit": false,
      "t": 201633.33333333363,
      "d": 250,
      "v": 20
    },
    {
      "midi": 74,
      "hit": false,
      "t": 201633.33333333363,
      "d": 250,
      "v": 12
    },
    {
      "midi": 71,
      "hit": false,
      "t": 201883.33333333363,
      "d": 483.33333333334303,
      "v": 87
    },
    {
      "midi": 74,
      "hit": false,
      "t": 201883.33333333363,
      "d": 483.33333333334303,
      "v": 95
    },
    {
      "midi": 79,
      "hit": false,
      "t": 201883.33333333363,
      "d": 483.33333333334303,
      "v": 73
    },
    {
      "midi": 52,
      "hit": false,
      "t": 201883.33333333363,
      "d": 1200.000000000029,
      "v": 66
    },
    {
      "midi": 59,
      "hit": false,
      "t": 201883.33333333363,
      "d": 1200.000000000029,
      "v": 61
    },
    {
      "midi": 71,
      "hit": false,
      "t": 202600.00000000032,
      "d": 233.33333333334303,
      "v": 33
    },
    {
      "midi": 71,
      "hit": false,
      "t": 202833.33333333366,
      "d": 250,
      "v": 84
    },
    {
      "midi": 74,
      "hit": false,
      "t": 202833.33333333366,
      "d": 250,
      "v": 82
    },
    {
      "midi": 79,
      "hit": false,
      "t": 202833.33333333366,
      "d": 250,
      "v": 66
    },
    {
      "midi": 69,
      "hit": false,
      "t": 203800.00000000035,
      "d": 483.33333333334303,
      "v": 84
    },
    {
      "midi": 72,
      "hit": false,
      "t": 203800.00000000035,
      "d": 483.33333333334303,
      "v": 84
    },
    {
      "midi": 76,
      "hit": false,
      "t": 203800.00000000035,
      "d": 483.33333333334303,
      "v": 69
    },
    {
      "midi": 57,
      "hit": false,
      "t": 203800.00000000035,
      "d": 1200.000000000029,
      "v": 71
    },
    {
      "midi": 69,
      "hit": false,
      "t": 204516.66666666704,
      "d": 250,
      "v": 31
    },
    {
      "midi": 69,
      "hit": false,
      "t": 204766.66666666704,
      "d": 233.33333333334303,
      "v": 87
    },
    {
      "midi": 76,
      "hit": false,
      "t": 204766.66666666704,
      "d": 233.33333333334303,
      "v": 69
    },
    {
      "midi": 64,
      "hit": false,
      "t": 205000.00000000038,
      "d": 250,
      "v": 36
    },
    {
      "midi": 69,
      "hit": false,
      "t": 205250.00000000038,
      "d": 233.33333333334303,
      "v": 50
    },
    {
      "midi": 76,
      "hit": false,
      "t": 205250.00000000038,
      "d": 233.33333333334303,
      "v": 27
    },
    {
      "midi": 67,
      "hit": false,
      "t": 205733.33333333372,
      "d": 466.66666666665697,
      "v": 84
    },
    {
      "midi": 71,
      "hit": false,
      "t": 205733.33333333372,
      "d": 466.66666666665697,
      "v": 79
    },
    {
      "midi": 76,
      "hit": false,
      "t": 205733.33333333372,
      "d": 466.66666666665697,
      "v": 73
    },
    {
      "midi": 52,
      "hit": false,
      "t": 205733.33333333372,
      "d": 1200,
      "v": 62
    },
    {
      "midi": 59,
      "hit": false,
      "t": 205733.33333333372,
      "d": 1433.333333333343,
      "v": 55
    },
    {
      "midi": 67,
      "hit": false,
      "t": 206683.33333333372,
      "d": 250,
      "v": 84
    },
    {
      "midi": 76,
      "hit": false,
      "t": 206683.33333333372,
      "d": 250,
      "v": 67
    },
    {
      "midi": 69,
      "hit": false,
      "t": 207650.0000000004,
      "d": 483.33333333334303,
      "v": 82
    },
    {
      "midi": 72,
      "hit": false,
      "t": 207650.0000000004,
      "d": 483.33333333334303,
      "v": 82
    },
    {
      "midi": 77,
      "hit": false,
      "t": 207650.0000000004,
      "d": 483.33333333334303,
      "v": 69
    },
    {
      "midi": 53,
      "hit": false,
      "t": 207650.0000000004,
      "d": 1433.333333333343,
      "v": 67
    },
    {
      "midi": 60,
      "hit": false,
      "t": 207650.0000000004,
      "d": 1433.333333333343,
      "v": 63
    },
    {
      "midi": 69,
      "hit": false,
      "t": 208366.6666666671,
      "d": 250,
      "v": 18
    },
    {
      "midi": 69,
      "hit": false,
      "t": 208616.6666666671,
      "d": 466.66666666665697,
      "v": 84
    },
    {
      "midi": 72,
      "hit": false,
      "t": 208616.6666666671,
      "d": 466.66666666665697,
      "v": 84
    },
    {
      "midi": 77,
      "hit": false,
      "t": 208616.6666666671,
      "d": 466.66666666665697,
      "v": 66
    },
    {
      "midi": 67,
      "hit": false,
      "t": 209566.6666666671,
      "d": 483.33333333331393,
      "v": 82
    },
    {
      "midi": 71,
      "hit": false,
      "t": 209566.6666666671,
      "d": 483.33333333331393,
      "v": 84
    },
    {
      "midi": 74,
      "hit": false,
      "t": 209566.6666666671,
      "d": 483.33333333331393,
      "v": 68
    },
    {
      "midi": 55,
      "hit": false,
      "t": 209566.6666666671,
      "d": 1200,
      "v": 56
    },
    {
      "midi": 67,
      "hit": false,
      "t": 210300.0000000004,
      "d": 233.33333333334303,
      "v": 23
    },
    {
      "midi": 74,
      "hit": false,
      "t": 210300.0000000004,
      "d": 233.33333333334303,
      "v": 20
    },
    {
      "midi": 67,
      "hit": false,
      "t": 210533.33333333375,
      "d": 233.33333333334303,
      "v": 82
    },
    {
      "midi": 71,
      "hit": false,
      "t": 210533.33333333375,
      "d": 483.33333333334303,
      "v": 82
    },
    {
      "midi": 74,
      "hit": false,
      "t": 210533.33333333375,
      "d": 483.33333333334303,
      "v": 71
    },
    {
      "midi": 67,
      "hit": false,
      "t": 211016.6666666671,
      "d": 233.33333333334303,
      "v": 5
    },
    {
      "midi": 74,
      "hit": false,
      "t": 211016.6666666671,
      "d": 233.33333333334303,
      "v": 5
    },
    {
      "midi": 76,
      "hit": false,
      "t": 211500.00000000044,
      "d": 233.33333333331393,
      "v": 71
    },
    {
      "midi": 67,
      "hit": false,
      "t": 211500.00000000044,
      "d": 466.66666666665697,
      "v": 84
    },
    {
      "midi": 72,
      "hit": false,
      "t": 211500.00000000044,
      "d": 466.66666666665697,
      "v": 79
    },
    {
      "midi": 48,
      "hit": false,
      "t": 211500.00000000044,
      "d": 1683.333333333343,
      "v": 61
    },
    {
      "midi": 67,
      "hit": false,
      "t": 211966.6666666671,
      "d": 250,
      "v": 55
    },
    {
      "midi": 55,
      "hit": false,
      "t": 212216.6666666671,
      "d": 966.6666666666861,
      "v": 52
    },
    {
      "midi": 60,
      "hit": false,
      "t": 212450.00000000044,
      "d": 250,
      "v": 69
    },
    {
      "midi": 62,
      "hit": false,
      "t": 212700.00000000044,
      "d": 233.33333333334303,
      "v": 82
    },
    {
      "midi": 64,
      "hit": false,
      "t": 212933.33333333378,
      "d": 250,
      "v": 87
    },
    {
      "midi": 62,
      "hit": false,
      "t": 213183.33333333378,
      "d": 233.33333333334303,
      "v": 57
    },
    {
      "midi": 48,
      "hit": false,
      "t": 213416.66666666712,
      "d": 233.33333333334303,
      "v": 62
    },
    {
      "midi": 60,
      "hit": false,
      "t": 213416.66666666712,
      "d": 233.33333333334303,
      "v": 82
    },
    {
      "midi": 67,
      "hit": false,
      "t": 214383.3333333338,
      "d": 233.33333333334303,
      "v": 84
    },
    {
      "midi": 71,
      "hit": false,
      "t": 214383.3333333338,
      "d": 233.33333333334303,
      "v": 99
    },
    {
      "midi": 74,
      "hit": false,
      "t": 214383.3333333338,
      "d": 233.33333333334303,
      "v": 103
    },
    {
      "midi": 79,
      "hit": false,
      "t": 214383.3333333338,
      "d": 233.33333333334303,
      "v": 79
    },
    {
      "midi": 67,
      "hit": false,
      "t": 214850.0000000005,
      "d": 250,
      "v": 91
    },
    {
      "midi": 71,
      "hit": false,
      "t": 214850.0000000005,
      "d": 250,
      "v": 107
    },
    {
      "midi": 74,
      "hit": false,
      "t": 214850.0000000005,
      "d": 250,
      "v": 99
    },
    {
      "midi": 79,
      "hit": false,
      "t": 214850.0000000005,
      "d": 250,
      "v": 76
    },
    {
      "midi": 76,
      "hit": false,
      "t": 215333.33333333384,
      "d": 250,
      "v": 71
    },
    {
      "midi": 67,
      "hit": false,
      "t": 215333.33333333384,
      "d": 483.33333333334303,
      "v": 82
    },
    {
      "midi": 72,
      "hit": false,
      "t": 215333.33333333384,
      "d": 483.33333333334303,
      "v": 87
    },
    {
      "midi": 48,
      "hit": false,
      "t": 215333.33333333384,
      "d": 1200.000000000029,
      "v": 66
    },
    {
      "midi": 76,
      "hit": false,
      "t": 215816.66666666718,
      "d": 250,
      "v": 6
    },
    {
      "midi": 76,
      "hit": false,
      "t": 216300.00000000052,
      "d": 233.33333333334303,
      "v": 69
    },
    {
      "midi": 67,
      "hit": false,
      "t": 216300.00000000052,
      "d": 483.33333333334303,
      "v": 84
    },
    {
      "midi": 72,
      "hit": false,
      "t": 216300.00000000052,
      "d": 483.33333333334303,
      "v": 82
    },
    {
      "midi": 67,
      "hit": false,
      "t": 216783.33333333387,
      "d": 233.33333333334303,
      "v": 28
    },
    {
      "midi": 76,
      "hit": false,
      "t": 216783.33333333387,
      "d": 233.33333333334303,
      "v": 22
    },
    {
      "midi": 67,
      "hit": false,
      "t": 217266.6666666672,
      "d": 483.33333333334303,
      "v": 76
    },
    {
      "midi": 71,
      "hit": false,
      "t": 217266.6666666672,
      "d": 483.33333333334303,
      "v": 82
    },
    {
      "midi": 76,
      "hit": false,
      "t": 217266.6666666672,
      "d": 716.6666666666861,
      "v": 69
    },
    {
      "midi": 52,
      "hit": false,
      "t": 217266.6666666672,
      "d": 950.0000000000291,
      "v": 64
    },
    {
      "midi": 59,
      "hit": false,
      "t": 217266.6666666672,
      "d": 1200.000000000029,
      "v": 63
    },
    {
      "midi": 71,
      "hit": false,
      "t": 218216.66666666724,
      "d": 250,
      "v": 99
    },
    {
      "midi": 76,
      "hit": false,
      "t": 218216.66666666724,
      "d": 250,
      "v": 76
    },
    {
      "midi": 72,
      "hit": false,
      "t": 219183.33333333393,
      "d": 483.33333333334303,
      "v": 87
    },
    {
      "midi": 76,
      "hit": false,
      "t": 219183.33333333393,
      "d": 483.33333333334303,
      "v": 69
    },
    {
      "midi": 69,
      "hit": false,
      "t": 219183.33333333393,
      "d": 716.6666666666861,
      "v": 87
    },
    {
      "midi": 57,
      "hit": false,
      "t": 219183.33333333393,
      "d": 966.6666666666861,
      "v": 68
    },
    {
      "midi": 69,
      "hit": false,
      "t": 220150.0000000006,
      "d": 233.33333333334303,
      "v": 87
    },
    {
      "midi": 72,
      "hit": false,
      "t": 220150.0000000006,
      "d": 233.33333333334303,
      "v": 87
    },
    {
      "midi": 76,
      "hit": false,
      "t": 220150.0000000006,
      "d": 233.33333333334303,
      "v": 63
    },
    {
      "midi": 67,
      "hit": false,
      "t": 220866.66666666727,
      "d": 233.33333333334303,
      "v": 47
    },
    {
      "midi": 71,
      "hit": false,
      "t": 220866.66666666727,
      "d": 233.33333333334303,
      "v": 30
    },
    {
      "midi": 76,
      "hit": false,
      "t": 220866.66666666727,
      "d": 233.33333333334303,
      "v": 14
    },
    {
      "midi": 67,
      "hit": false,
      "t": 221100.0000000006,
      "d": 250,
      "v": 76
    },
    {
      "midi": 71,
      "hit": false,
      "t": 221100.0000000006,
      "d": 250,
      "v": 79
    },
    {
      "midi": 76,
      "hit": false,
      "t": 221100.0000000006,
      "d": 250,
      "v": 67
    },
    {
      "midi": 52,
      "hit": false,
      "t": 221100.0000000006,
      "d": 966.6666666666861,
      "v": 63
    },
    {
      "midi": 59,
      "hit": false,
      "t": 221100.0000000006,
      "d": 966.6666666666861,
      "v": 57
    },
    {
      "midi": 79,
      "hit": false,
      "t": 221833.33333333395,
      "d": 233.33333333334303,
      "v": 46
    },
    {
      "midi": 91,
      "hit": false,
      "t": 221833.33333333395,
      "d": 233.33333333334303,
      "v": 56
    },
    {
      "midi": 52,
      "hit": false,
      "t": 222066.6666666673,
      "d": 250,
      "v": 40
    },
    {
      "midi": 59,
      "hit": false,
      "t": 222066.6666666673,
      "d": 250,
      "v": 46
    },
    {
      "midi": 79,
      "hit": false,
      "t": 222066.6666666673,
      "d": 250,
      "v": 87
    },
    {
      "midi": 91,
      "hit": false,
      "t": 222066.6666666673,
      "d": 250,
      "v": 82
    },
    {
      "midi": 76,
      "hit": false,
      "t": 222550.00000000064,
      "d": 233.33333333334303,
      "v": 82
    },
    {
      "midi": 88,
      "hit": false,
      "t": 222550.00000000064,
      "d": 233.33333333334303,
      "v": 82
    },
    {
      "midi": 77,
      "hit": false,
      "t": 223033.33333333398,
      "d": 483.33333333334303,
      "v": 84
    },
    {
      "midi": 81,
      "hit": false,
      "t": 223033.33333333398,
      "d": 483.33333333334303,
      "v": 91
    },
    {
      "midi": 53,
      "hit": false,
      "t": 223033.33333333398,
      "d": 1433.333333333343,
      "v": 68
    },
    {
      "midi": 72,
      "hit": false,
      "t": 223983.33333333398,
      "d": 250,
      "v": 87
    },
    {
      "midi": 77,
      "hit": false,
      "t": 223983.33333333398,
      "d": 250,
      "v": 79
    },
    {
      "midi": 67,
      "hit": false,
      "t": 224950.00000000064,
      "d": 483.33333333334303,
      "v": 76
    },
    {
      "midi": 71,
      "hit": false,
      "t": 224950.00000000064,
      "d": 483.33333333334303,
      "v": 84
    },
    {
      "midi": 74,
      "hit": false,
      "t": 224950.00000000064,
      "d": 483.33333333334303,
      "v": 66
    },
    {
      "midi": 55,
      "hit": false,
      "t": 224950.00000000064,
      "d": 966.6666666666861,
      "v": 62
    },
    {
      "midi": 62,
      "hit": false,
      "t": 224950.00000000064,
      "d": 966.6666666666861,
      "v": 53
    },
    {
      "midi": 67,
      "hit": false,
      "t": 225666.66666666733,
      "d": 250,
      "v": 27
    },
    {
      "midi": 71,
      "hit": false,
      "t": 225666.66666666733,
      "d": 250,
      "v": 22
    },
    {
      "midi": 67,
      "hit": false,
      "t": 225916.66666666733,
      "d": 233.33333333334303,
      "v": 95
    },
    {
      "midi": 71,
      "hit": false,
      "t": 225916.66666666733,
      "d": 233.33333333334303,
      "v": 103
    },
    {
      "midi": 74,
      "hit": false,
      "t": 225916.66666666733,
      "d": 233.33333333334303,
      "v": 68
    },
    {
      "midi": 48,
      "hit": false,
      "t": 226866.66666666733,
      "d": 250,
      "v": 56
    },
    {
      "midi": 72,
      "hit": false,
      "t": 226866.66666666733,
      "d": 483.33333333334303,
      "v": 87
    },
    {
      "midi": 76,
      "hit": false,
      "t": 226866.66666666733,
      "d": 483.33333333334303,
      "v": 95
    },
    {
      "midi": 79,
      "hit": false,
      "t": 226866.66666666733,
      "d": 483.33333333334303,
      "v": 71
    },
    {
      "midi": 60,
      "hit": false,
      "t": 227600.00000000067,
      "d": 233.33333333334303,
      "v": 4
    },
    {
      "midi": 72,
      "hit": false,
      "t": 227833.333333334,
      "d": 250,
      "v": 91
    },
    {
      "midi": 76,
      "hit": false,
      "t": 227833.333333334,
      "d": 250,
      "v": 87
    },
    {
      "midi": 79,
      "hit": false,
      "t": 227833.333333334,
      "d": 250,
      "v": 67
    },
    {
      "midi": 60,
      "hit": false,
      "t": 228083.333333334,
      "d": 233.33333333334303,
      "v": 28
    },
    {
      "midi": 67,
      "hit": false,
      "t": 228083.333333334,
      "d": 233.33333333334303,
      "v": 55
    },
    {
      "midi": 72,
      "hit": false,
      "t": 228316.66666666736,
      "d": 233.33333333334303,
      "v": 55
    },
    {
      "midi": 79,
      "hit": false,
      "t": 228316.66666666736,
      "d": 233.33333333334303,
      "v": 28
    },
    {
      "midi": 79,
      "hit": false,
      "t": 228550.0000000007,
      "d": 250,
      "v": 50
    },
    {
      "midi": 71,
      "hit": false,
      "t": 228800.0000000007,
      "d": 233.33333333334303,
      "v": 87
    },
    {
      "midi": 79,
      "hit": false,
      "t": 228800.0000000007,
      "d": 233.33333333334303,
      "v": 73
    },
    {
      "midi": 62,
      "hit": false,
      "t": 228800.0000000007,
      "d": 483.33333333334303,
      "v": 66
    },
    {
      "midi": 74,
      "hit": false,
      "t": 228800.0000000007,
      "d": 483.33333333334303,
      "v": 91
    },
    {
      "midi": 55,
      "hit": false,
      "t": 228800.0000000007,
      "d": 966.6666666666861,
      "v": 64
    },
    {
      "midi": 71,
      "hit": false,
      "t": 229283.33333333404,
      "d": 233.33333333334303,
      "v": 57
    },
    {
      "midi": 79,
      "hit": false,
      "t": 229283.33333333404,
      "d": 233.33333333334303,
      "v": 58
    },
    {
      "midi": 62,
      "hit": false,
      "t": 229516.66666666738,
      "d": 250,
      "v": 55
    },
    {
      "midi": 71,
      "hit": false,
      "t": 229766.66666666738,
      "d": 233.33333333334303,
      "v": 99
    },
    {
      "midi": 79,
      "hit": false,
      "t": 229766.66666666738,
      "d": 233.33333333334303,
      "v": 76
    },
    {
      "midi": 72,
      "hit": false,
      "t": 230000.00000000073,
      "d": 233.33333333334303,
      "v": 21
    },
    {
      "midi": 72,
      "hit": false,
      "t": 230233.33333333407,
      "d": 250,
      "v": 82
    },
    {
      "midi": 84,
      "hit": false,
      "t": 230233.33333333407,
      "d": 250,
      "v": 82
    },
    {
      "midi": 88,
      "hit": false,
      "t": 230483.33333333407,
      "d": 233.33333333334303,
      "v": 33
    },
    {
      "midi": 76,
      "hit": false,
      "t": 230716.6666666674,
      "d": 250,
      "v": 87
    },
    {
      "midi": 88,
      "hit": false,
      "t": 230716.6666666674,
      "d": 250,
      "v": 91
    },
    {
      "midi": 60,
      "hit": false,
      "t": 230716.6666666674,
      "d": 1200,
      "v": 66
    },
    {
      "midi": 67,
      "hit": false,
      "t": 230716.6666666674,
      "d": 1200,
      "v": 68
    },
    {
      "midi": 72,
      "hit": false,
      "t": 231433.33333333407,
      "d": 250,
      "v": 41
    },
    {
      "midi": 72,
      "hit": false,
      "t": 231683.33333333407,
      "d": 233.33333333334303,
      "v": 82
    },
    {
      "midi": 79,
      "hit": false,
      "t": 231683.33333333407,
      "d": 233.33333333334303,
      "v": 67
    },
    {
      "midi": 72,
      "hit": false,
      "t": 231916.6666666674,
      "d": 250,
      "v": 23
    },
    {
      "midi": 71,
      "hit": false,
      "t": 232400.00000000076,
      "d": 250,
      "v": 20
    },
    {
      "midi": 74,
      "hit": false,
      "t": 232400.00000000076,
      "d": 250,
      "v": 12
    },
    {
      "midi": 71,
      "hit": false,
      "t": 232650.00000000076,
      "d": 466.66666666665697,
      "v": 87
    },
    {
      "midi": 74,
      "hit": false,
      "t": 232650.00000000076,
      "d": 466.66666666665697,
      "v": 95
    },
    {
      "midi": 79,
      "hit": false,
      "t": 232650.00000000076,
      "d": 466.66666666665697,
      "v": 73
    },
    {
      "midi": 52,
      "hit": false,
      "t": 232650.00000000076,
      "d": 1200,
      "v": 66
    },
    {
      "midi": 59,
      "hit": false,
      "t": 232650.00000000076,
      "d": 1200,
      "v": 61
    },
    {
      "midi": 71,
      "hit": false,
      "t": 233366.6666666674,
      "d": 233.33333333334303,
      "v": 33
    },
    {
      "midi": 71,
      "hit": false,
      "t": 233600.00000000076,
      "d": 250,
      "v": 84
    },
    {
      "midi": 74,
      "hit": false,
      "t": 233600.00000000076,
      "d": 250,
      "v": 82
    },
    {
      "midi": 79,
      "hit": false,
      "t": 233600.00000000076,
      "d": 250,
      "v": 66
    },
    {
      "midi": 69,
      "hit": false,
      "t": 234566.6666666674,
      "d": 483.33333333334303,
      "v": 84
    },
    {
      "midi": 72,
      "hit": false,
      "t": 234566.6666666674,
      "d": 483.33333333334303,
      "v": 84
    },
    {
      "midi": 76,
      "hit": false,
      "t": 234566.6666666674,
      "d": 483.33333333334303,
      "v": 69
    },
    {
      "midi": 57,
      "hit": false,
      "t": 234566.6666666674,
      "d": 1200.000000000029,
      "v": 71
    },
    {
      "midi": 69,
      "hit": false,
      "t": 235283.3333333341,
      "d": 250,
      "v": 31
    },
    {
      "midi": 69,
      "hit": false,
      "t": 235533.3333333341,
      "d": 233.33333333334303,
      "v": 87
    },
    {
      "midi": 76,
      "hit": false,
      "t": 235533.3333333341,
      "d": 233.33333333334303,
      "v": 69
    },
    {
      "midi": 64,
      "hit": false,
      "t": 235766.66666666744,
      "d": 233.33333333334303,
      "v": 36
    },
    {
      "midi": 69,
      "hit": false,
      "t": 236000.0000000008,
      "d": 250,
      "v": 50
    },
    {
      "midi": 76,
      "hit": false,
      "t": 236000.0000000008,
      "d": 250,
      "v": 27
    },
    {
      "midi": 67,
      "hit": false,
      "t": 236483.3333333341,
      "d": 483.33333333334303,
      "v": 84
    },
    {
      "midi": 71,
      "hit": false,
      "t": 236483.3333333341,
      "d": 483.33333333334303,
      "v": 79
    },
    {
      "midi": 76,
      "hit": false,
      "t": 236483.3333333341,
      "d": 483.33333333334303,
      "v": 73
    },
    {
      "midi": 52,
      "hit": false,
      "t": 236483.3333333341,
      "d": 1200.000000000029,
      "v": 62
    },
    {
      "midi": 59,
      "hit": false,
      "t": 236483.3333333341,
      "d": 1450.000000000029,
      "v": 55
    },
    {
      "midi": 67,
      "hit": false,
      "t": 237450.0000000008,
      "d": 233.33333333334303,
      "v": 84
    },
    {
      "midi": 76,
      "hit": false,
      "t": 237450.0000000008,
      "d": 233.33333333334303,
      "v": 67
    },
    {
      "midi": 69,
      "hit": false,
      "t": 238416.66666666747,
      "d": 466.66666666665697,
      "v": 82
    },
    {
      "midi": 72,
      "hit": false,
      "t": 238416.66666666747,
      "d": 466.66666666665697,
      "v": 82
    },
    {
      "midi": 77,
      "hit": false,
      "t": 238416.66666666747,
      "d": 466.66666666665697,
      "v": 69
    },
    {
      "midi": 53,
      "hit": false,
      "t": 238416.66666666747,
      "d": 1433.333333333343,
      "v": 67
    },
    {
      "midi": 60,
      "hit": false,
      "t": 238416.66666666747,
      "d": 1433.333333333343,
      "v": 63
    },
    {
      "midi": 69,
      "hit": false,
      "t": 239133.33333333413,
      "d": 233.33333333334303,
      "v": 18
    },
    {
      "midi": 69,
      "hit": false,
      "t": 239366.66666666747,
      "d": 483.33333333334303,
      "v": 84
    },
    {
      "midi": 72,
      "hit": false,
      "t": 239366.66666666747,
      "d": 483.33333333334303,
      "v": 84
    },
    {
      "midi": 77,
      "hit": false,
      "t": 239366.66666666747,
      "d": 483.33333333334303,
      "v": 66
    },
    {
      "midi": 67,
      "hit": false,
      "t": 240333.33333333416,
      "d": 483.33333333334303,
      "v": 82
    },
    {
      "midi": 71,
      "hit": false,
      "t": 240333.33333333416,
      "d": 483.33333333334303,
      "v": 84
    },
    {
      "midi": 74,
      "hit": false,
      "t": 240333.33333333416,
      "d": 483.33333333334303,
      "v": 68
    },
    {
      "midi": 55,
      "hit": false,
      "t": 240333.33333333416,
      "d": 1200.000000000029,
      "v": 56
    },
    {
      "midi": 67,
      "hit": false,
      "t": 241050.00000000084,
      "d": 250,
      "v": 23
    },
    {
      "midi": 74,
      "hit": false,
      "t": 241050.00000000084,
      "d": 250,
      "v": 20
    },
    {
      "midi": 67,
      "hit": false,
      "t": 241300.00000000084,
      "d": 233.33333333334303,
      "v": 82
    },
    {
      "midi": 71,
      "hit": false,
      "t": 241300.00000000084,
      "d": 483.33333333334303,
      "v": 82
    },
    {
      "midi": 74,
      "hit": false,
      "t": 241300.00000000084,
      "d": 483.33333333334303,
      "v": 71
    },
    {
      "midi": 67,
      "hit": false,
      "t": 241783.3333333342,
      "d": 233.33333333334303,
      "v": 5
    },
    {
      "midi": 74,
      "hit": false,
      "t": 241783.3333333342,
      "d": 233.33333333334303,
      "v": 5
    },
    {
      "midi": 76,
      "hit": false,
      "t": 242250.00000000087,
      "d": 250,
      "v": 71
    },
    {
      "midi": 67,
      "hit": false,
      "t": 242250.00000000087,
      "d": 483.33333333334303,
      "v": 84
    },
    {
      "midi": 72,
      "hit": false,
      "t": 242250.00000000087,
      "d": 483.33333333334303,
      "v": 79
    },
    {
      "midi": 48,
      "hit": false,
      "t": 242250.00000000087,
      "d": 1683.3333333333721,
      "v": 61
    },
    {
      "midi": 67,
      "hit": false,
      "t": 242733.33333333422,
      "d": 250,
      "v": 55
    },
    {
      "midi": 55,
      "hit": false,
      "t": 242983.33333333422,
      "d": 950.0000000000291,
      "v": 52
    },
    {
      "midi": 60,
      "hit": false,
      "t": 243216.66666666756,
      "d": 233.33333333334303,
      "v": 69
    },
    {
      "midi": 62,
      "hit": false,
      "t": 243450.0000000009,
      "d": 250,
      "v": 82
    },
    {
      "midi": 64,
      "hit": false,
      "t": 243700.0000000009,
      "d": 233.33333333334303,
      "v": 87
    },
    {
      "midi": 62,
      "hit": false,
      "t": 243933.33333333425,
      "d": 250,
      "v": 57
    },
    {
      "midi": 48,
      "hit": false,
      "t": 244183.33333333425,
      "d": 233.33333333334303,
      "v": 62
    },
    {
      "midi": 60,
      "hit": false,
      "t": 244183.33333333425,
      "d": 233.33333333334303,
      "v": 82
    },
    {
      "midi": 74,
      "hit": false,
      "t": 244416.6666666676,
      "d": 250,
      "v": 67
    },
    {
      "midi": 72,
      "hit": false,
      "t": 244666.6666666676,
      "d": 233.33333333334303,
      "v": 71
    },
    {
      "midi": 74,
      "hit": false,
      "t": 244900.00000000093,
      "d": 233.33333333334303,
      "v": 95
    },
    {
      "midi": 72,
      "hit": false,
      "t": 245133.33333333427,
      "d": 250,
      "v": 95
    },
    {
      "midi": 71,
      "hit": false,
      "t": 245383.33333333427,
      "d": 233.33333333334303,
      "v": 73
    },
    {
      "midi": 69,
      "hit": false,
      "t": 245616.66666666762,
      "d": 250,
      "v": 69
    },
    {
      "midi": 67,
      "hit": false,
      "t": 245866.66666666762,
      "d": 233.33333333334303,
      "v": 87
    },
    {
      "midi": 69,
      "hit": false,
      "t": 246100.00000000096,
      "d": 483.33333333334303,
      "v": 99
    },
    {
      "midi": 53,
      "hit": false,
      "t": 246100.00000000096,
      "d": 1200.000000000029,
      "v": 69
    },
    {
      "midi": 60,
      "hit": false,
      "t": 246350.00000000096,
      "d": 233.33333333334303,
      "v": 26
    },
    {
      "midi": 65,
      "hit": false,
      "t": 246583.3333333343,
      "d": 233.33333333334303,
      "v": 53
    },
    {
      "midi": 72,
      "hit": false,
      "t": 246583.3333333343,
      "d": 233.33333333334303,
      "v": 28
    },
    {
      "midi": 60,
      "hit": false,
      "t": 246816.66666666765,
      "d": 483.33333333334303,
      "v": 43
    },
    {
      "midi": 65,
      "hit": false,
      "t": 247066.66666666765,
      "d": 233.33333333334303,
      "v": 91
    },
    {
      "midi": 72,
      "hit": false,
      "t": 247066.66666666765,
      "d": 233.33333333334303,
      "v": 64
    },
    {
      "midi": 69,
      "hit": false,
      "t": 247550.000000001,
      "d": 233.33333333334303,
      "v": 55
    },
    {
      "midi": 67,
      "hit": false,
      "t": 248016.66666666765,
      "d": 250,
      "v": 87
    },
    {
      "midi": 74,
      "hit": false,
      "t": 248016.66666666765,
      "d": 250,
      "v": 76
    },
    {
      "midi": 62,
      "hit": false,
      "t": 248016.66666666765,
      "d": 966.6666666666861,
      "v": 79
    },
    {
      "midi": 55,
      "hit": false,
      "t": 248016.66666666765,
      "d": 1450,
      "v": 67
    },
    {
      "midi": 67,
      "hit": false,
      "t": 248500.000000001,
      "d": 250,
      "v": 28
    },
    {
      "midi": 71,
      "hit": false,
      "t": 248983.33333333433,
      "d": 250,
      "v": 91
    },
    {
      "midi": 74,
      "hit": false,
      "t": 248983.33333333433,
      "d": 250,
      "v": 66
    },
    {
      "midi": 79,
      "hit": false,
      "t": 249283.33333333433,
      "d": 166.66666666665697,
      "v": 28
    },
    {
      "midi": 83,
      "hit": false,
      "t": 249350.000000001,
      "d": 166.66666666665697,
      "v": 56
    },
    {
      "midi": 86,
      "hit": false,
      "t": 249450.000000001,
      "d": 150,
      "v": 64
    },
    {
      "midi": 79,
      "hit": false,
      "t": 249616.66666666765,
      "d": 300,
      "v": 37
    },
    {
      "midi": 83,
      "hit": false,
      "t": 249700.000000001,
      "d": 233.33333333331393,
      "v": 62
    },
    {
      "midi": 91,
      "hit": false,
      "t": 249800.000000001,
      "d": 266.66666666665697,
      "v": 53
    },
    {
      "midi": 86,
      "hit": false,
      "t": 249816.66666666765,
      "d": 183.33333333331393,
      "v": 58
    },
    {
      "midi": 95,
      "hit": false,
      "t": 249866.66666666765,
      "d": 200,
      "v": 46
    },
    {
      "midi": 98,
      "hit": false,
      "t": 249883.3333333343,
      "d": 150,
      "v": 61
    },
    {
      "midi": 103,
      "hit": false,
      "t": 249950.00000000096,
      "d": 716.6666666666861,
      "v": 68
    },
    {
      "midi": 79,
      "hit": false,
      "t": 250900.000000001,
      "d": 250,
      "v": 71
    },
    {
      "midi": 67,
      "hit": false,
      "t": 251150.000000001,
      "d": 233.33333333334303,
      "v": 71
    },
    {
      "midi": 72,
      "hit": false,
      "t": 251383.33333333433,
      "d": 250,
      "v": 79
    },
    {
      "midi": 74,
      "hit": false,
      "t": 251633.33333333433,
      "d": 233.33333333334303,
      "v": 79
    },
    {
      "midi": 48,
      "hit": false,
      "t": 251866.66666666768,
      "d": 483.33333333331393,
      "v": 67
    },
    {
      "midi": 74,
      "hit": false,
      "t": 251866.66666666768,
      "d": 483.33333333331393,
      "v": 84
    },
    {
      "midi": 72,
      "hit": false,
      "t": 252350.000000001,
      "d": 233.33333333334303,
      "v": 52
    },
    {
      "midi": 55,
      "hit": false,
      "t": 252350.000000001,
      "d": 483.33333333334303,
      "v": 37
    },
    {
      "midi": 72,
      "hit": false,
      "t": 252583.33333333433,
      "d": 483.33333333334303,
      "v": 79
    },
    {
      "midi": 64,
      "hit": false,
      "t": 252833.33333333433,
      "d": 483.33333333334303,
      "v": 51
    },
    {
      "midi": 72,
      "hit": false,
      "t": 253066.66666666768,
      "d": 250,
      "v": 42
    },
    {
      "midi": 55,
      "hit": false,
      "t": 253316.66666666768,
      "d": 233.33333333334303,
      "v": 45
    },
    {
      "midi": 71,
      "hit": false,
      "t": 253316.66666666768,
      "d": 233.33333333334303,
      "v": 50
    },
    {
      "midi": 72,
      "hit": false,
      "t": 253550.00000000102,
      "d": 250,
      "v": 73
    },
    {
      "midi": 67,
      "hit": false,
      "t": 253800.00000000102,
      "d": 233.33333333334303,
      "v": 46
    },
    {
      "midi": 71,
      "hit": false,
      "t": 253800.00000000102,
      "d": 233.33333333334303,
      "v": 67
    },
    {
      "midi": 69,
      "hit": false,
      "t": 254033.33333333436,
      "d": 233.33333333334303,
      "v": 47
    },
    {
      "midi": 67,
      "hit": false,
      "t": 254266.6666666677,
      "d": 250,
      "v": 43
    },
    {
      "midi": 65,
      "hit": false,
      "t": 254516.6666666677,
      "d": 233.33333333334303,
      "v": 48
    },
    {
      "midi": 64,
      "hit": false,
      "t": 254750.00000000105,
      "d": 250,
      "v": 43
    },
    {
      "midi": 79,
      "hit": false,
      "t": 254750.00000000105,
      "d": 250,
      "v": 68
    },
    {
      "midi": 62,
      "hit": false,
      "t": 255000.00000000105,
      "d": 233.33333333334303,
      "v": 43
    },
    {
      "midi": 67,
      "hit": false,
      "t": 255000.00000000105,
      "d": 233.33333333334303,
      "v": 58
    },
    {
      "midi": 60,
      "hit": false,
      "t": 255233.3333333344,
      "d": 233.33333333334303,
      "v": 56
    },
    {
      "midi": 72,
      "hit": false,
      "t": 255233.3333333344,
      "d": 233.33333333334303,
      "v": 79
    },
    {
      "midi": 59,
      "hit": false,
      "t": 255466.66666666773,
      "d": 250,
      "v": 61
    },
    {
      "midi": 74,
      "hit": false,
      "t": 255466.66666666773,
      "d": 250,
      "v": 95
    },
    {
      "midi": 45,
      "hit": false,
      "t": 255716.66666666773,
      "d": 233.33333333334303,
      "v": 66
    },
    {
      "midi": 57,
      "hit": false,
      "t": 255716.66666666773,
      "d": 233.33333333334303,
      "v": 56
    },
    {
      "midi": 74,
      "hit": false,
      "t": 255716.66666666773,
      "d": 1683.3333333333721,
      "v": 95
    },
    {
      "midi": 55,
      "hit": false,
      "t": 256200.00000000108,
      "d": 233.33333333334303,
      "v": 55
    },
    {
      "midi": 72,
      "hit": false,
      "t": 256200.00000000108,
      "d": 233.33333333334303,
      "v": 62
    },
    {
      "midi": 76,
      "hit": false,
      "t": 256433.33333333442,
      "d": 716.6666666666861,
      "v": 68
    },
    {
      "midi": 67,
      "hit": false,
      "t": 256683.33333333442,
      "d": 233.33333333334303,
      "v": 56
    },
    {
      "midi": 72,
      "hit": false,
      "t": 256916.66666666776,
      "d": 233.33333333334303,
      "v": 42
    },
    {
      "midi": 71,
      "hit": false,
      "t": 257150.0000000011,
      "d": 250,
      "v": 50
    },
    {
      "midi": 62,
      "hit": false,
      "t": 257150.0000000011,
      "d": 483.33333333334303,
      "v": 50
    },
    {
      "midi": 72,
      "hit": false,
      "t": 257400.0000000011,
      "d": 233.33333333334303,
      "v": 73
    },
    {
      "midi": 71,
      "hit": false,
      "t": 257633.33333333445,
      "d": 250,
      "v": 67
    },
    {
      "midi": 64,
      "hit": false,
      "t": 257633.33333333445,
      "d": 733.3333333333139,
      "v": 56
    },
    {
      "midi": 76,
      "hit": false,
      "t": 257633.33333333445,
      "d": 733.3333333333139,
      "v": 56
    },
    {
      "midi": 69,
      "hit": false,
      "t": 257883.33333333445,
      "d": 233.33333333331393,
      "v": 47
    },
    {
      "midi": 67,
      "hit": false,
      "t": 258116.66666666776,
      "d": 250,
      "v": 43
    },
    {
      "midi": 74,
      "hit": false,
      "t": 258116.66666666776,
      "d": 250,
      "v": 45
    },
    {
      "midi": 62,
      "hit": false,
      "t": 258116.66666666776,
      "d": 483.33333333334303,
      "v": 2
    },
    {
      "midi": 65,
      "hit": false,
      "t": 258366.66666666776,
      "d": 233.33333333334303,
      "v": 48
    },
    {
      "midi": 76,
      "hit": false,
      "t": 258600.0000000011,
      "d": 16.666666666656965,
      "v": 57
    },
    {
      "midi": 64,
      "hit": false,
      "t": 258600.0000000011,
      "d": 233.33333333331393,
      "v": 43
    },
    {
      "midi": 79,
      "hit": false,
      "t": 258600.0000000011,
      "d": 233.33333333331393,
      "v": 71
    },
    {
      "midi": 62,
      "hit": false,
      "t": 258833.33333333442,
      "d": 250,
      "v": 43
    },
    {
      "midi": 67,
      "hit": false,
      "t": 258833.33333333442,
      "d": 250,
      "v": 63
    },
    {
      "midi": 60,
      "hit": false,
      "t": 259083.33333333442,
      "d": 233.33333333334303,
      "v": 56
    },
    {
      "midi": 72,
      "hit": false,
      "t": 259083.33333333442,
      "d": 233.33333333334303,
      "v": 71
    },
    {
      "midi": 59,
      "hit": false,
      "t": 259316.66666666776,
      "d": 250,
      "v": 61
    },
    {
      "midi": 74,
      "hit": false,
      "t": 259316.66666666776,
      "d": 250,
      "v": 87
    },
    {
      "midi": 57,
      "hit": false,
      "t": 259566.66666666776,
      "d": 233.33333333334303,
      "v": 56
    },
    {
      "midi": 41,
      "hit": false,
      "t": 259566.66666666776,
      "d": 466.66666666668607,
      "v": 68
    },
    {
      "midi": 74,
      "hit": false,
      "t": 259566.66666666776,
      "d": 466.66666666668607,
      "v": 84
    },
    {
      "midi": 72,
      "hit": false,
      "t": 260033.33333333445,
      "d": 250,
      "v": 63
    },
    {
      "midi": 48,
      "hit": false,
      "t": 260033.33333333445,
      "d": 483.33333333334303,
      "v": 53
    },
    {
      "midi": 72,
      "hit": false,
      "t": 260283.33333333445,
      "d": 483.33333333334303,
      "v": 84
    },
    {
      "midi": 60,
      "hit": false,
      "t": 260516.6666666678,
      "d": 250,
      "v": 63
    },
    {
      "midi": 72,
      "hit": false,
      "t": 261000.00000000114,
      "d": 250,
      "v": 58
    },
    {
      "midi": 74,
      "hit": false,
      "t": 261250.00000000114,
      "d": 233.33333333331393,
      "v": 69
    },
    {
      "midi": 38,
      "hit": false,
      "t": 261483.33333333445,
      "d": 483.33333333331393,
      "v": 64
    },
    {
      "midi": 74,
      "hit": false,
      "t": 261483.33333333445,
      "d": 483.33333333331393,
      "v": 91
    },
    {
      "midi": 45,
      "hit": false,
      "t": 261966.66666666776,
      "d": 233.33333333334303,
      "v": 41
    },
    {
      "midi": 72,
      "hit": false,
      "t": 261966.66666666776,
      "d": 233.33333333334303,
      "v": 60
    },
    {
      "midi": 45,
      "hit": false,
      "t": 262200.0000000011,
      "d": 250,
      "v": 7
    },
    {
      "midi": 72,
      "hit": false,
      "t": 262200.0000000011,
      "d": 483.33333333331393,
      "v": 66
    },
    {
      "midi": 57,
      "hit": false,
      "t": 262450.0000000011,
      "d": 466.66666666662786,
      "v": 53
    },
    {
      "midi": 69,
      "hit": false,
      "t": 262916.66666666773,
      "d": 250,
      "v": 64
    },
    {
      "midi": 43,
      "hit": false,
      "t": 263400.0000000011,
      "d": 483.33333333331393,
      "v": 56
    },
    {
      "midi": 69,
      "hit": false,
      "t": 263400.0000000011,
      "d": 1449.9999999999418,
      "v": 82
    },
    {
      "midi": 50,
      "hit": false,
      "t": 263883.3333333344,
      "d": 250,
      "v": 61
    },
    {
      "midi": 55,
      "hit": false,
      "t": 264366.66666666773,
      "d": 233.33333333331393,
      "v": 55
    },
    {
      "midi": 67,
      "hit": false,
      "t": 264850.00000000105,
      "d": 233.33333333331393,
      "v": 43
    },
    {
      "midi": 67,
      "hit": false,
      "t": 265333.33333333436,
      "d": 233.33333333331393,
      "v": 82
    },
    {
      "midi": 43,
      "hit": false,
      "t": 265333.33333333436,
      "d": 950,
      "v": 63
    },
    {
      "midi": 50,
      "hit": false,
      "t": 265816.6666666677,
      "d": 233.33333333331393,
      "v": 50
    },
    {
      "midi": 55,
      "hit": false,
      "t": 266050.000000001,
      "d": 233.33333333337214,
      "v": 42
    },
    {
      "midi": 31,
      "hit": false,
      "t": 266266.6666666677,
      "d": 550,
      "v": 64
    },
    {
      "midi": 43,
      "hit": false,
      "t": 267250.000000001,
      "d": 1800.0000000001164,
      "v": 73
    },
    {
      "midi": 55,
      "hit": false,
      "t": 267483.3333333343,
      "d": 1450.0000000001164,
      "v": 41
    },
    {
      "midi": 57,
      "hit": false,
      "t": 267733.3333333343,
      "d": 116.66666666668607,
      "v": 42
    },
    {
      "midi": 65,
      "hit": false,
      "t": 267966.6666666677,
      "d": 133.33333333331393,
      "v": 66
    },
    {
      "midi": 57,
      "hit": false,
      "t": 268216.6666666677,
      "d": 116.66666666668607,
      "v": 53
    },
    {
      "midi": 60,
      "hit": false,
      "t": 268450.00000000105,
      "d": 116.66666666668607,
      "v": 45
    },
    {
      "midi": 65,
      "hit": false,
      "t": 268700.00000000105,
      "d": 116.66666666668607,
      "v": 48
    },
    {
      "midi": 60,
      "hit": false,
      "t": 268933.3333333344,
      "d": 116.66666666668607,
      "v": 45
    },
    {
      "midi": 59,
      "hit": false,
      "t": 269166.6666666678,
      "d": 366.66666666668607,
      "v": 52
    },
    {
      "midi": 43,
      "hit": false,
      "t": 269166.6666666678,
      "d": 2416.6666666668607,
      "v": 56
    },
    {
      "midi": 55,
      "hit": false,
      "t": 269416.6666666678,
      "d": 1200.0000000001164,
      "v": 26
    },
    {
      "midi": 62,
      "hit": false,
      "t": 269650.00000000116,
      "d": 116.66666666668607,
      "v": 46
    },
    {
      "midi": 67,
      "hit": false,
      "t": 269900.00000000116,
      "d": 116.66666666668607,
      "v": 53
    },
    {
      "midi": 71,
      "hit": false,
      "t": 270383.33333333454,
      "d": 116.66666666668607,
      "v": 35
    },
    {
      "midi": 74,
      "hit": false,
      "t": 270616.6666666679,
      "d": 116.66666666668607,
      "v": 30
    },
    {
      "midi": 55,
      "hit": false,
      "t": 270850.0000000013,
      "d": 733.3333333333721,
      "v": 38
    },
    {
      "midi": 79,
      "hit": false,
      "t": 270983.3333333346,
      "d": 116.66666666668607,
      "v": 17
    },
    {
      "midi": 83,
      "hit": false,
      "t": 270983.3333333346,
      "d": 116.66666666668607,
      "v": 19
    },
    {
      "midi": 86,
      "hit": false,
      "t": 271100.0000000013,
      "d": 116.66666666668607,
      "v": 35
    },
    {
      "midi": 91,
      "hit": false,
      "t": 271100.0000000013,
      "d": 116.66666666668607,
      "v": 64
    },
    {
      "midi": 67,
      "hit": false,
      "t": 271766.66666666797,
      "d": 233.33333333331393,
      "v": 42
    },
    {
      "midi": 71,
      "hit": false,
      "t": 271866.66666666797,
      "d": 133.33333333331393,
      "v": 48
    },
    {
      "midi": 74,
      "hit": false,
      "t": 271950.0000000013,
      "d": 116.66666666662786,
      "v": 50
    },
    {
      "midi": 79,
      "hit": false,
      "t": 272033.3333333346,
      "d": 133.33333333331393,
      "v": 45
    },
    {
      "midi": 83,
      "hit": false,
      "t": 272100.0000000012,
      "d": 83.33333333337214,
      "v": 51
    },
    {
      "midi": 86,
      "hit": false,
      "t": 272166.6666666679,
      "d": 150,
      "v": 64
    },
    {
      "midi": 103,
      "hit": false,
      "t": 272783.3333333346,
      "d": 183.33333333337214,
      "v": 46
    },
    {
      "midi": 72,
      "hit": false,
      "t": 272833.3333333346,
      "d": 1950,
      "v": 27
    },
    {
      "midi": 100,
      "hit": false,
      "t": 272866.6666666679,
      "d": 133.33333333337214,
      "v": 45
    },
    {
      "midi": 76,
      "hit": false,
      "t": 272933.3333333346,
      "d": 66.66666666668607,
      "v": 24
    },
    {
      "midi": 98,
      "hit": false,
      "t": 272950.0000000013,
      "d": 100,
      "v": 35
    },
    {
      "midi": 96,
      "hit": false,
      "t": 273000.0000000013,
      "d": 1783.333333333314,
      "v": 62
    },
    {
      "midi": 79,
      "hit": false,
      "t": 273000.0000000013,
      "d": 1816.6666666666279,
      "v": 46
    }
  ]
}