{
  "jsonPath": "World/Canadian Pop/Céline Dion/le-ballet.json",
  "path": "World\\Canadian Pop\\Céline Dion\\Le Ballet.mid",
  "name": "Le Ballet",
  "difficulty": "Advanced",
  "bpm": 80,
  "notes": [
    {
      "midi": 60,
      "hit": false,
      "t": 21750,
      "d": 476.5625,
      "v": 89
    },
    {
      "midi": 65,
      "hit": false,
      "t": 21757.8125,
      "d": 500,
      "v": 92
    },
    {
      "midi": 67,
      "hit": false,
      "t": 22257.8125,
      "d": 1796.875,
      "v": 90
    },
    {
      "midi": 62,
      "hit": false,
      "t": 22265.625,
      "d": 1781.25,
      "v": 96
    },
    {
      "midi": 65,
      "hit": false,
      "t": 34953.125,
      "d": 4000,
      "v": 109
    },
    {
      "midi": 67,
      "hit": false,
      "t": 35476.5625,
      "d": 3468.75,
      "v": 117
    },
    {
      "midi": 74,
      "hit": false,
      "t": 36007.8125,
      "d": 2945.3125,
      "v": 102
    },
    {
      "midi": 62,
      "hit": false,
      "t": 36515.625,
      "d": 2445.3125,
      "v": 109
    },
    {
      "midi": 67,
      "hit": false,
      "t": 39015.625,
      "d": 1265.625,
      "v": 105
    },
    {
      "midi": 63,
      "hit": false,
      "t": 39015.625,
      "d": 1312.5,
      "v": 93
    },
    {
      "midi": 70,
      "hit": false,
      "t": 39015.625,
      "d": 1328.125,
      "v": 107
    },
    {
      "midi": 39,
      "hit": false,
      "t": 39031.25,
      "d": 1414.0625,
      "v": 83
    },
    {
      "midi": 65,
      "hit": false,
      "t": 40515.625,
      "d": 1328.125,
      "v": 95
    },
    {
      "midi": 62,
      "hit": false,
      "t": 40515.625,
      "d": 1335.9375,
      "v": 105
    },
    {
      "midi": 46,
      "hit": false,
      "t": 40515.625,
      "d": 1429.6875,
      "v": 98
    },
    {
      "midi": 58,
      "hit": false,
      "t": 40523.4375,
      "d": 1289.0625,
      "v": 100
    },
    {
      "midi": 69,
      "hit": false,
      "t": 41992.1875,
      "d": 1351.5625,
      "v": 92
    },
    {
      "midi": 65,
      "hit": false,
      "t": 41992.1875,
      "d": 1406.25,
      "v": 96
    },
    {
      "midi": 41,
      "hit": false,
      "t": 41992.1875,
      "d": 1468.75,
      "v": 75
    },
    {
      "midi": 60,
      "hit": false,
      "t": 42000,
      "d": 1343.75,
      "v": 71
    },
    {
      "midi": 62,
      "hit": false,
      "t": 43515.625,
      "d": 960.9375,
      "v": 100
    },
    {
      "midi": 58,
      "hit": false,
      "t": 43523.4375,
      "d": 1375,
      "v": 95
    },
    {
      "midi": 43,
      "hit": false,
      "t": 43523.4375,
      "d": 1390.625,
      "v": 98
    },
    {
      "midi": 67,
      "hit": false,
      "t": 43523.4375,
      "d": 1398.4375,
      "v": 95
    },
    {
      "midi": 62,
      "hit": false,
      "t": 44500,
      "d": 492.1875,
      "v": 100
    },
    {
      "midi": 58,
      "hit": false,
      "t": 45000,
      "d": 1375,
      "v": 95
    },
    {
      "midi": 63,
      "hit": false,
      "t": 45000,
      "d": 1406.25,
      "v": 93
    },
    {
      "midi": 55,
      "hit": false,
      "t": 45000,
      "d": 1429.6875,
      "v": 78
    },
    {
      "midi": 39,
      "hit": false,
      "t": 45000,
      "d": 1476.5625,
      "v": 93
    },
    {
      "midi": 62,
      "hit": false,
      "t": 46484.375,
      "d": 1281.25,
      "v": 90
    },
    {
      "midi": 65,
      "hit": false,
      "t": 46484.375,
      "d": 1296.875,
      "v": 83
    },
    {
      "midi": 58,
      "hit": false,
      "t": 46492.1875,
      "d": 1257.8125,
      "v": 90
    },
    {
      "midi": 46,
      "hit": false,
      "t": 46500,
      "d": 1453.125,
      "v": 90
    },
    {
      "midi": 65,
      "hit": false,
      "t": 47984.375,
      "d": 1234.375,
      "v": 75
    },
    {
      "midi": 69,
      "hit": false,
      "t": 47984.375,
      "d": 1359.375,
      "v": 68
    },
    {
      "midi": 60,
      "hit": false,
      "t": 47992.1875,
      "d": 1117.1875,
      "v": 78
    },
    {
      "midi": 41,
      "hit": false,
      "t": 47992.1875,
      "d": 1429.6875,
      "v": 79
    },
    {
      "midi": 60,
      "hit": false,
      "t": 49265.625,
      "d": 3234.375,
      "v": 57
    },
    {
      "midi": 65,
      "hit": false,
      "t": 49335.9375,
      "d": 3156.25,
      "v": 78
    },
    {
      "midi": 67,
      "hit": false,
      "t": 49375,
      "d": 3117.1875,
      "v": 93
    },
    {
      "midi": 72,
      "hit": false,
      "t": 49453.125,
      "d": 3039.0625,
      "v": 79
    },
    {
      "midi": 36,
      "hit": false,
      "t": 49468.75,
      "d": 3031.25,
      "v": 90
    },
    {
      "midi": 79,
      "hit": false,
      "t": 52500,
      "d": 2125,
      "v": 119
    },
    {
      "midi": 86,
      "hit": false,
      "t": 52984.375,
      "d": 1656.25,
      "v": 85
    },
    {
      "midi": 81,
      "hit": false,
      "t": 54789.0625,
      "d": 3632.8125,
      "v": 102
    },
    {
      "midi": 74,
      "hit": false,
      "t": 55257.8125,
      "d": 1992.1875,
      "v": 95
    },
    {
      "midi": 72,
      "hit": false,
      "t": 57250,
      "d": 2500,
      "v": 95
    },
    {
      "midi": 67,
      "hit": false,
      "t": 58250,
      "d": 1250,
      "v": 95
    },
    {
      "midi": 65,
      "hit": false,
      "t": 59500,
      "d": 250,
      "v": 114
    },
    {
      "midi": 67,
      "hit": false,
      "t": 59750,
      "d": 250,
      "v": 117
    },
    {
      "midi": 62,
      "hit": false,
      "t": 67773.4375,
      "d": 210.9375,
      "v": 76
    },
    {
      "midi": 65,
      "hit": false,
      "t": 68007.8125,
      "d": 265.625,
      "v": 98
    },
    {
      "midi": 67,
      "hit": false,
      "t": 68242.1875,
      "d": 218.75,
      "v": 111
    },
    {
      "midi": 70,
      "hit": false,
      "t": 68484.375,
      "d": 242.1875,
      "v": 121
    },
    {
      "midi": 67,
      "hit": false,
      "t": 68742.1875,
      "d": 976.5625,
      "v": 111
    },
    {
      "midi": 77,
      "hit": false,
      "t": 70718.75,
      "d": 210.9375,
      "v": 115
    },
    {
      "midi": 72,
      "hit": false,
      "t": 70718.75,
      "d": 265.625,
      "v": 98
    },
    {
      "midi": 77,
      "hit": false,
      "t": 71250,
      "d": 406.25,
      "v": 111
    },
    {
      "midi": 72,
      "hit": false,
      "t": 71250,
      "d": 414.0625,
      "v": 98
    },
    {
      "midi": 79,
      "hit": false,
      "t": 71726.5625,
      "d": 226.5625,
      "v": 111
    },
    {
      "midi": 74,
      "hit": false,
      "t": 71734.375,
      "d": 210.9375,
      "v": 107
    },
    {
      "midi": 43,
      "hit": false,
      "t": 78000,
      "d": 3179.6875,
      "v": 78
    },
    {
      "midi": 65,
      "hit": false,
      "t": 78500,
      "d": 226.5625,
      "v": 100
    },
    {
      "midi": 60,
      "hit": false,
      "t": 78500,
      "d": 234.375,
      "v": 88
    },
    {
      "midi": 55,
      "hit": false,
      "t": 78750,
      "d": 132.8125,
      "v": 56
    },
    {
      "midi": 65,
      "hit": false,
      "t": 79000,
      "d": 187.5,
      "v": 93
    },
    {
      "midi": 60,
      "hit": false,
      "t": 79000,
      "d": 210.9375,
      "v": 88
    },
    {
      "midi": 55,
      "hit": false,
      "t": 79250,
      "d": 2164.0625,
      "v": 59
    },
    {
      "midi": 65,
      "hit": false,
      "t": 79500,
      "d": 414.0625,
      "v": 98
    },
    {
      "midi": 60,
      "hit": false,
      "t": 79500,
      "d": 429.6875,
      "v": 90
    },
    {
      "midi": 67,
      "hit": false,
      "t": 80000,
      "d": 1632.8125,
      "v": 86
    },
    {
      "midi": 62,
      "hit": false,
      "t": 80000,
      "d": 1695.3125,
      "v": 93
    },
    {
      "midi": 43,
      "hit": false,
      "t": 81500,
      "d": 2390.625,
      "v": 93
    },
    {
      "midi": 60,
      "hit": false,
      "t": 81750,
      "d": 210.9375,
      "v": 89
    },
    {
      "midi": 65,
      "hit": false,
      "t": 81750,
      "d": 218.75,
      "v": 89
    },
    {
      "midi": 62,
      "hit": false,
      "t": 82000,
      "d": 54.6875,
      "v": 85
    },
    {
      "midi": 67,
      "hit": false,
      "t": 82000,
      "d": 62.5,
      "v": 81
    },
    {
      "midi": 55,
      "hit": false,
      "t": 82250,
      "d": 1695.3125,
      "v": 62
    },
    {
      "midi": 74,
      "hit": false,
      "t": 82531.25,
      "d": 265.625,
      "v": 119
    },
    {
      "midi": 77,
      "hit": false,
      "t": 82531.25,
      "d": 312.5,
      "v": 115
    },
    {
      "midi": 73,
      "hit": false,
      "t": 82781.25,
      "d": 250,
      "v": 98
    },
    {
      "midi": 72,
      "hit": false,
      "t": 83000,
      "d": 93.75,
      "v": 85
    },
    {
      "midi": 70,
      "hit": false,
      "t": 83257.8125,
      "d": 273.4375,
      "v": 127
    },
    {
      "midi": 67,
      "hit": false,
      "t": 83515.625,
      "d": 234.375,
      "v": 109
    },
    {
      "midi": 65,
      "hit": false,
      "t": 83750,
      "d": 250,
      "v": 89
    },
    {
      "midi": 74,
      "hit": false,
      "t": 93023.4375,
      "d": 265.625,
      "v": 115
    },
    {
      "midi": 77,
      "hit": false,
      "t": 93023.4375,
      "d": 296.875,
      "v": 107
    },
    {
      "midi": 73,
      "hit": false,
      "t": 93265.625,
      "d": 234.375,
      "v": 93
    },
    {
      "midi": 72,
      "hit": false,
      "t": 93484.375,
      "d": 101.5625,
      "v": 86
    },
    {
      "midi": 70,
      "hit": false,
      "t": 93750,
      "d": 218.75,
      "v": 125
    },
    {
      "midi": 67,
      "hit": false,
      "t": 93992.1875,
      "d": 179.6875,
      "v": 89
    },
    {
      "midi": 70,
      "hit": false,
      "t": 94250,
      "d": 843.75,
      "v": 127
    },
    {
      "midi": 67,
      "hit": false,
      "t": 95210.9375,
      "d": 234.375,
      "v": 115
    },
    {
      "midi": 65,
      "hit": false,
      "t": 95468.75,
      "d": 203.125,
      "v": 98
    },
    {
      "midi": 62,
      "hit": false,
      "t": 95710.9375,
      "d": 289.0625,
      "v": 95
    },
    {
      "midi": 67,
      "hit": false,
      "t": 96015.625,
      "d": 1265.625,
      "v": 105
    },
    {
      "midi": 63,
      "hit": false,
      "t": 96015.625,
      "d": 1312.5,
      "v": 93
    },
    {
      "midi": 70,
      "hit": false,
      "t": 96015.625,
      "d": 1328.125,
      "v": 107
    },
    {
      "midi": 39,
      "hit": false,
      "t": 96031.25,
      "d": 1414.0625,
      "v": 83
    },
    {
      "midi": 65,
      "hit": false,
      "t": 97515.625,
      "d": 1328.125,
      "v": 95
    },
    {
      "midi": 62,
      "hit": false,
      "t": 97515.625,
      "d": 1335.9375,
      "v": 105
    },
    {
      "midi": 46,
      "hit": false,
      "t": 97515.625,
      "d": 1429.6875,
      "v": 98
    },
    {
      "midi": 58,
      "hit": false,
      "t": 97523.4375,
      "d": 1289.0625,
      "v": 100
    },
    {
      "midi": 69,
      "hit": false,
      "t": 98992.1875,
      "d": 1351.5625,
      "v": 92
    },
    {
      "midi": 65,
      "hit": false,
      "t": 98992.1875,
      "d": 1406.25,
      "v": 96
    },
    {
      "midi": 41,
      "hit": false,
      "t": 98992.1875,
      "d": 1468.75,
      "v": 75
    },
    {
      "midi": 60,
      "hit": false,
      "t": 99000,
      "d": 1343.75,
      "v": 71
    },
    {
      "midi": 62,
      "hit": false,
      "t": 100515.625,
      "d": 960.9375,
      "v": 100
    },
    {
      "midi": 58,
      "hit": false,
      "t": 100523.4375,
      "d": 1375,
      "v": 95
    },
    {
      "midi": 43,
      "hit": false,
      "t": 100523.4375,
      "d": 1390.625,
      "v": 98
    },
    {
      "midi": 67,
      "hit": false,
      "t": 100523.4375,
      "d": 1398.4375,
      "v": 95
    },
    {
      "midi": 62,
      "hit": false,
      "t": 101500,
      "d": 492.1875,
      "v": 100
    },
    {
      "midi": 58,
      "hit": false,
      "t": 102000,
      "d": 1375,
      "v": 95
    },
    {
      "midi": 63,
      "hit": false,
      "t": 102000,
      "d": 1406.25,
      "v": 93
    },
    {
      "midi": 55,
      "hit": false,
      "t": 102000,
      "d": 1429.6875,
      "v": 78
    },
    {
      "midi": 39,
      "hit": false,
      "t": 102000,
      "d": 1476.5625,
      "v": 93
    },
    {
      "midi": 62,
      "hit": false,
      "t": 103484.375,
      "d": 1281.25,
      "v": 90
    },
    {
      "midi": 65,
      "hit": false,
      "t": 103484.375,
      "d": 1296.875,
      "v": 83
    },
    {
      "midi": 58,
      "hit": false,
      "t": 103492.1875,
      "d": 1257.8125,
      "v": 90
    },
    {
      "midi": 46,
      "hit": false,
      "t": 103500,
      "d": 1453.125,
      "v": 90
    },
    {
      "midi": 65,
      "hit": false,
      "t": 104984.375,
      "d": 1234.375,
      "v": 75
    },
    {
      "midi": 69,
      "hit": false,
      "t": 104984.375,
      "d": 1359.375,
      "v": 68
    },
    {
      "midi": 60,
      "hit": false,
      "t": 104992.1875,
      "d": 1117.1875,
      "v": 78
    },
    {
      "midi": 41,
      "hit": false,
      "t": 104992.1875,
      "d": 1429.6875,
      "v": 79
    },
    {
      "midi": 60,
      "hit": false,
      "t": 106265.625,
      "d": 3234.375,
      "v": 57
    },
    {
      "midi": 65,
      "hit": false,
      "t": 106335.9375,
      "d": 3156.25,
      "v": 78
    },
    {
      "midi": 67,
      "hit": false,
      "t": 106375,
      "d": 3117.1875,
      "v": 93
    },
    {
      "midi": 72,
      "hit": false,
      "t": 106453.125,
      "d": 3039.0625,
      "v": 79
    },
    {
      "midi": 36,
      "hit": false,
      "t": 106468.75,
      "d": 3031.25,
      "v": 90
    },
    {
      "midi": 84,
      "hit": false,
      "t": 110000,
      "d": 2125,
      "v": 119
    },
    {
      "midi": 91,
      "hit": false,
      "t": 110484.375,
      "d": 1656.25,
      "v": 105
    },
    {
      "midi": 89,
      "hit": false,
      "t": 112742.1875,
      "d": 304.6875,
      "v": 92
    },
    {
      "midi": 86,
      "hit": false,
      "t": 113007.8125,
      "d": 218.75,
      "v": 90
    },
    {
      "midi": 84,
      "hit": false,
      "t": 113250,
      "d": 257.8125,
      "v": 113
    },
    {
      "midi": 86,
      "hit": false,
      "t": 113492.1875,
      "d": 234.375,
      "v": 107
    },
    {
      "midi": 79,
      "hit": false,
      "t": 113742.1875,
      "d": 515.625,
      "v": 123
    },
    {
      "midi": 77,
      "hit": false,
      "t": 114289.0625,
      "d": 906.25,
      "v": 111
    },
    {
      "midi": 72,
      "hit": false,
      "t": 116492.1875,
      "d": 304.6875,
      "v": 125
    },
    {
      "midi": 74,
      "hit": false,
      "t": 116742.1875,
      "d": 234.375,
      "v": 119
    },
    {
      "midi": 62,
      "hit": false,
      "t": 117000,
      "d": 2140.625,
      "v": 109
    },
    {
      "midi": 67,
      "hit": false,
      "t": 117000,
      "d": 2140.625,
      "v": 113
    },
    {
      "midi": 65,
      "hit": false,
      "t": 120500,
      "d": 210.9375,
      "v": 105
    },
    {
      "midi": 67,
      "hit": false,
      "t": 120750,
      "d": 195.3125,
      "v": 107
    },
    {
      "midi": 70,
      "hit": false,
      "t": 121000,
      "d": 218.75,
      "v": 119
    },
    {
      "midi": 67,
      "hit": false,
      "t": 121250,
      "d": 539.0625,
      "v": 109
    },
    {
      "midi": 62,
      "hit": false,
      "t": 121750,
      "d": 234.375,
      "v": 95
    },
    {
      "midi": 65,
      "hit": false,
      "t": 122000,
      "d": 210.9375,
      "v": 113
    },
    {
      "midi": 70,
      "hit": false,
      "t": 122250,
      "d": 234.375,
      "v": 127
    },
    {
      "midi": 67,
      "hit": false,
      "t": 122500,
      "d": 257.8125,
      "v": 123
    },
    {
      "midi": 65,
      "hit": false,
      "t": 122750,
      "d": 281.25,
      "v": 117
    },
    {
      "midi": 67,
      "hit": false,
      "t": 123015.625,
      "d": 1265.625,
      "v": 105
    },
    {
      "midi": 63,
      "hit": false,
      "t": 123015.625,
      "d": 1312.5,
      "v": 93
    },
    {
      "midi": 70,
      "hit": false,
      "t": 123015.625,
      "d": 1328.125,
      "v": 107
    },
    {
      "midi": 39,
      "hit": false,
      "t": 123031.25,
      "d": 1414.0625,
      "v": 83
    },
    {
      "midi": 65,
      "hit": false,
      "t": 124515.625,
      "d": 1328.125,
      "v": 95
    },
    {
      "midi": 62,
      "hit": false,
      "t": 124515.625,
      "d": 1335.9375,
      "v": 105
    },
    {
      "midi": 46,
      "hit": false,
      "t": 124515.625,
      "d": 1429.6875,
      "v": 98
    },
    {
      "midi": 58,
      "hit": false,
      "t": 124523.4375,
      "d": 1289.0625,
      "v": 100
    },
    {
      "midi": 69,
      "hit": false,
      "t": 125992.1875,
      "d": 1351.5625,
      "v": 92
    },
    {
      "midi": 65,
      "hit": false,
      "t": 125992.1875,
      "d": 1406.25,
      "v": 96
    },
    {
      "midi": 41,
      "hit": false,
      "t": 125992.1875,
      "d": 1468.75,
      "v": 75
    },
    {
      "midi": 60,
      "hit": false,
      "t": 126000,
      "d": 1343.75,
      "v": 71
    },
    {
      "midi": 62,
      "hit": false,
      "t": 127515.625,
      "d": 960.9375,
      "v": 100
    },
    {
      "midi": 58,
      "hit": false,
      "t": 127523.4375,
      "d": 1375,
      "v": 95
    },
    {
      "midi": 43,
      "hit": false,
      "t": 127523.4375,
      "d": 1390.625,
      "v": 98
    },
    {
      "midi": 67,
      "hit": false,
      "t": 127523.4375,
      "d": 1398.4375,
      "v": 95
    },
    {
      "midi": 62,
      "hit": false,
      "t": 128500,
      "d": 492.1875,
      "v": 100
    },
    {
      "midi": 67,
      "hit": false,
      "t": 129015.625,
      "d": 1265.625,
      "v": 105
    },
    {
      "midi": 63,
      "hit": false,
      "t": 129015.625,
      "d": 1312.5,
      "v": 93
    },
    {
      "midi": 70,
      "hit": false,
      "t": 129015.625,
      "d": 1328.125,
      "v": 107
    },
    {
      "midi": 39,
      "hit": false,
      "t": 129031.25,
      "d": 1414.0625,
      "v": 83
    },
    {
      "midi": 65,
      "hit": false,
      "t": 130515.625,
      "d": 1328.125,
      "v": 95
    },
    {
      "midi": 62,
      "hit": false,
      "t": 130515.625,
      "d": 1335.9375,
      "v": 105
    },
    {
      "midi": 46,
      "hit": false,
      "t": 130515.625,
      "d": 1429.6875,
      "v": 98
    },
    {
      "midi": 58,
      "hit": false,
      "t": 130523.4375,
      "d": 1289.0625,
      "v": 100
    },
    {
      "midi": 69,
      "hit": false,
      "t": 131992.1875,
      "d": 1351.5625,
      "v": 92
    },
    {
      "midi": 65,
      "hit": false,
      "t": 131992.1875,
      "d": 1406.25,
      "v": 96
    },
    {
      "midi": 41,
      "hit": false,
      "t": 131992.1875,
      "d": 1468.75,
      "v": 75
    },
    {
      "midi": 60,
      "hit": false,
      "t": 132000,
      "d": 1343.75,
      "v": 71
    },
    {
      "midi": 62,
      "hit": false,
      "t": 133515.625,
      "d": 960.9375,
      "v": 100
    },
    {
      "midi": 58,
      "hit": false,
      "t": 133523.4375,
      "d": 1375,
      "v": 95
    },
    {
      "midi": 43,
      "hit": false,
      "t": 133523.4375,
      "d": 1390.625,
      "v": 98
    },
    {
      "midi": 67,
      "hit": false,
      "t": 133523.4375,
      "d": 1398.4375,
      "v": 95
    },
    {
      "midi": 62,
      "hit": false,
      "t": 134500,
      "d": 492.1875,
      "v": 100
    },
    {
      "midi": 67,
      "hit": false,
      "t": 135015.625,
      "d": 1265.625,
      "v": 105
    },
    {
      "midi": 63,
      "hit": false,
      "t": 135015.625,
      "d": 1312.5,
      "v": 93
    },
    {
      "midi": 70,
      "hit": false,
      "t": 135015.625,
      "d": 1328.125,
      "v": 107
    },
    {
      "midi": 39,
      "hit": false,
      "t": 135031.25,
      "d": 1414.0625,
      "v": 83
    },
    {
      "midi": 65,
      "hit": false,
      "t": 136515.625,
      "d": 1328.125,
      "v": 95
    },
    {
      "midi": 62,
      "hit": false,
      "t": 136515.625,
      "d": 1335.9375,
      "v": 105
    },
    {
      "midi": 46,
      "hit": false,
      "t": 136515.625,
      "d": 1429.6875,
      "v": 98
    },
    {
      "midi": 58,
      "hit": false,
      "t": 136523.4375,
      "d": 1289.0625,
      "v": 100
    },
    {
      "midi": 69,
      "hit": false,
      "t": 137992.1875,
      "d": 1351.5625,
      "v": 92
    },
    {
      "midi": 65,
      "hit": false,
      "t": 137992.1875,
      "d": 1406.25,
      "v": 96
    },
    {
      "midi": 41,
      "hit": false,
      "t": 137992.1875,
      "d": 1468.75,
      "v": 75
    },
    {
      "midi": 60,
      "hit": false,
      "t": 138000,
      "d": 1343.75,
      "v": 71
    },
    {
      "midi": 62,
      "hit": false,
      "t": 139515.625,
      "d": 960.9375,
      "v": 100
    },
    {
      "midi": 58,
      "hit": false,
      "t": 139523.4375,
      "d": 1375,
      "v": 95
    },
    {
      "midi": 43,
      "hit": false,
      "t": 139523.4375,
      "d": 1390.625,
      "v": 98
    },
    {
      "midi": 67,
      "hit": false,
      "t": 139523.4375,
      "d": 1398.4375,
      "v": 95
    },
    {
      "midi": 62,
      "hit": false,
      "t": 140500,
      "d": 492.1875,
      "v": 100
    },
    {
      "midi": 58,
      "hit": false,
      "t": 141000,
      "d": 1375,
      "v": 95
    },
    {
      "midi": 63,
      "hit": false,
      "t": 141000,
      "d": 1406.25,
      "v": 93
    },
    {
      "midi": 55,
      "hit": false,
      "t": 141000,
      "d": 1429.6875,
      "v": 78
    },
    {
      "midi": 39,
      "hit": false,
      "t": 141000,
      "d": 1476.5625,
      "v": 93
    },
    {
      "midi": 62,
      "hit": false,
      "t": 142484.375,
      "d": 1281.25,
      "v": 90
    },
    {
      "midi": 65,
      "hit": false,
      "t": 142484.375,
      "d": 1296.875,
      "v": 83
    },
    {
      "midi": 58,
      "hit": false,
      "t": 142492.1875,
      "d": 1257.8125,
      "v": 90
    },
    {
      "midi": 46,
      "hit": false,
      "t": 142500,
      "d": 1453.125,
      "v": 90
    },
    {
      "midi": 65,
      "hit": false,
      "t": 143984.375,
      "d": 1234.375,
      "v": 75
    },
    {
      "midi": 69,
      "hit": false,
      "t": 143984.375,
      "d": 1359.375,
      "v": 68
    },
    {
      "midi": 60,
      "hit": false,
      "t": 143992.1875,
      "d": 1117.1875,
      "v": 78
    },
    {
      "midi": 41,
      "hit": false,
      "t": 143992.1875,
      "d": 1429.6875,
      "v": 79
    },
    {
      "midi": 60,
      "hit": false,
      "t": 145265.625,
      "d": 3234.375,
      "v": 57
    },
    {
      "midi": 65,
      "hit": false,
      "t": 145335.9375,
      "d": 3156.25,
      "v": 78
    },
    {
      "midi": 67,
      "hit": false,
      "t": 145375,
      "d": 3117.1875,
      "v": 93
    },
    {
      "midi": 72,
      "hit": false,
      "t": 145453.125,
      "d": 3039.0625,
      "v": 79
    },
    {
      "midi": 36,
      "hit": false,
      "t": 145468.75,
      "d": 3031.25,
      "v": 90
    },
    {
      "midi": 84,
      "hit": false,
      "t": 149000,
      "d": 2125,
      "v": 119
    },
    {
      "midi": 91,
      "hit": false,
      "t": 149484.375,
      "d": 1656.25,
      "v": 105
    },
    {
      "midi": 89,
      "hit": false,
      "t": 151742.1875,
      "d": 304.6875,
      "v": 92
    },
    {
      "midi": 86,
      "hit": false,
      "t": 152007.8125,
      "d": 218.75,
      "v": 90
    },
    {
      "midi": 84,
      "hit": false,
      "t": 152250,
      "d": 257.8125,
      "v": 113
    },
    {
      "midi": 86,
      "hit": false,
      "t": 152492.1875,
      "d": 234.375,
      "v": 107
    },
    {
      "midi": 79,
      "hit": false,
      "t": 152742.1875,
      "d": 515.625,
      "v": 123
    },
    {
      "midi": 77,
      "hit": false,
      "t": 153289.0625,
      "d": 906.25,
      "v": 111
    },
    {
      "midi": 82,
      "hit": false,
      "t": 154734.375,
      "d": 304.6875,
      "v": 119
    },
    {
      "midi": 77,
      "hit": false,
      "t": 154742.1875,
      "d": 281.25,
      "v": 119
    },
    {
      "midi": 79,
      "hit": false,
      "t": 155000,
      "d": 140.625,
      "v": 109
    },
    {
      "midi": 72,
      "hit": false,
      "t": 155273.4375,
      "d": 453.125,
      "v": 109
    },
    {
      "midi": 77,
      "hit": false,
      "t": 155273.4375,
      "d": 500,
      "v": 113
    },
    {
      "midi": 74,
      "hit": false,
      "t": 155757.8125,
      "d": 195.3125,
      "v": 119
    },
    {
      "midi": 67,
      "hit": false,
      "t": 156000,
      "d": 1882.8125,
      "v": 107
    },
    {
      "midi": 62,
      "hit": false,
      "t": 156007.8125,
      "d": 1976.5625,
      "v": 83
    },
    {
      "midi": 67,
      "hit": false,
      "t": 157984.375,
      "d": 156.25,
      "v": 79
    },
    {
      "midi": 70,
      "hit": false,
      "t": 158242.1875,
      "d": 187.5,
      "v": 127
    },
    {
      "midi": 67,
      "hit": false,
      "t": 158476.5625,
      "d": 226.5625,
      "v": 115
    },
    {
      "midi": 62,
      "hit": false,
      "t": 158726.5625,
      "d": 242.1875,
      "v": 123
    },
    {
      "midi": 68,
      "hit": false,
      "t": 159000,
      "d": 2617.1875,
      "v": 121
    },
    {
      "midi": 63,
      "hit": false,
      "t": 159007.8125,
      "d": 2601.5625,
      "v": 111
    },
    {
      "midi": 80,
      "hit": false,
      "t": 165648.4375,
      "d": 46.875,
      "v": 50
    },
    {
      "midi": 92,
      "hit": false,
      "t": 165742.1875,
      "d": 39.0625,
      "v": 69
    },
    {
      "midi": 80,
      "hit": false,
      "t": 165843.75,
      "d": 62.5,
      "v": 57
    },
    {
      "midi": 92,
      "hit": false,
      "t": 165945.3125,
      "d": 46.875,
      "v": 85
    },
    {
      "midi": 80,
      "hit": false,
      "t": 166015.625,
      "d": 70.3125,
      "v": 79
    },
    {
      "midi": 92,
      "hit": false,
      "t": 166109.375,
      "d": 54.6875,
      "v": 113
    },
    {
      "midi": 80,
      "hit": false,
      "t": 166195.3125,
      "d": 70.3125,
      "v": 83
    },
    {
      "midi": 92,
      "hit": false,
      "t": 166281.25,
      "d": 62.5,
      "v": 113
    },
    {
      "midi": 80,
      "hit": false,
      "t": 166359.375,
      "d": 70.3125,
      "v": 80
    },
    {
      "midi": 92,
      "hit": false,
      "t": 166453.125,
      "d": 62.5,
      "v": 119
    },
    {
      "midi": 80,
      "hit": false,
      "t": 166523.4375,
      "d": 78.125,
      "v": 79
    },
    {
      "midi": 92,
      "hit": false,
      "t": 166617.1875,
      "d": 62.5,
      "v": 119
    },
    {
      "midi": 80,
      "hit": false,
      "t": 166703.125,
      "d": 62.5,
      "v": 74
    },
    {
      "midi": 92,
      "hit": false,
      "t": 166773.4375,
      "d": 78.125,
      "v": 123
    },
    {
      "midi": 80,
      "hit": false,
      "t": 166867.1875,
      "d": 125,
      "v": 105
    },
    {
      "midi": 75,
      "hit": false,
      "t": 177234.375,
      "d": 70.3125,
      "v": 66
    },
    {
      "midi": 78,
      "hit": false,
      "t": 177250,
      "d": 70.3125,
      "v": 68
    },
    {
      "midi": 75,
      "hit": false,
      "t": 177484.375,
      "d": 156.25,
      "v": 80
    },
    {
      "midi": 78,
      "hit": false,
      "t": 177484.375,
      "d": 164.0625,
      "v": 78
    },
    {
      "midi": 75,
      "hit": false,
      "t": 177734.375,
      "d": 171.875,
      "v": 119
    },
    {
      "midi": 78,
      "hit": false,
      "t": 177734.375,
      "d": 179.6875,
      "v": 119
    },
    {
      "midi": 75,
      "hit": false,
      "t": 177968.75,
      "d": 164.0625,
      "v": 111
    },
    {
      "midi": 78,
      "hit": false,
      "t": 177976.5625,
      "d": 179.6875,
      "v": 102
    },
    {
      "midi": 75,
      "hit": false,
      "t": 178242.1875,
      "d": 179.6875,
      "v": 125
    },
    {
      "midi": 78,
      "hit": false,
      "t": 178242.1875,
      "d": 187.5,
      "v": 119
    },
    {
      "midi": 75,
      "hit": false,
      "t": 178515.625,
      "d": 164.0625,
      "v": 125
    },
    {
      "midi": 78,
      "hit": false,
      "t": 178515.625,
      "d": 171.875,
      "v": 121
    },
    {
      "midi": 75,
      "hit": false,
      "t": 178757.8125,
      "d": 148.4375,
      "v": 121
    },
    {
      "midi": 78,
      "hit": false,
      "t": 178757.8125,
      "d": 156.25,
      "v": 113
    },
    {
      "midi": 75,
      "hit": false,
      "t": 178992.1875,
      "d": 171.875,
      "v": 123
    },
    {
      "midi": 78,
      "hit": false,
      "t": 178992.1875,
      "d": 187.5,
      "v": 119
    },
    {
      "midi": 75,
      "hit": false,
      "t": 179250,
      "d": 164.0625,
      "v": 119
    },
    {
      "midi": 78,
      "hit": false,
      "t": 179250,
      "d": 187.5,
      "v": 115
    },
    {
      "midi": 75,
      "hit": false,
      "t": 179476.5625,
      "d": 171.875,
      "v": 111
    },
    {
      "midi": 78,
      "hit": false,
      "t": 179476.5625,
      "d": 187.5,
      "v": 107
    },
    {
      "midi": 75,
      "hit": false,
      "t": 179734.375,
      "d": 171.875,
      "v": 119
    },
    {
      "midi": 78,
      "hit": false,
      "t": 179734.375,
      "d": 187.5,
      "v": 113
    },
    {
      "midi": 75,
      "hit": false,
      "t": 180000,
      "d": 257.8125,
      "v": 121
    },
    {
      "midi": 78,
      "hit": false,
      "t": 180007.8125,
      "d": 265.625,
      "v": 117
    },
    {
      "midi": 74,
      "hit": false,
      "t": 180234.375,
      "d": 296.875,
      "v": 93
    },
    {
      "midi": 73,
      "hit": false,
      "t": 180492.1875,
      "d": 187.5,
      "v": 125
    },
    {
      "midi": 71,
      "hit": false,
      "t": 180742.1875,
      "d": 218.75,
      "v": 109
    },
    {
      "midi": 68,
      "hit": false,
      "t": 180992.1875,
      "d": 148.4375,
      "v": 113
    },
    {
      "midi": 71,
      "hit": false,
      "t": 181250,
      "d": 460.9375,
      "v": 121
    },
    {
      "midi": 68,
      "hit": false,
      "t": 181742.1875,
      "d": 476.5625,
      "v": 127
    },
    {
      "midi": 66,
      "hit": false,
      "t": 182234.375,
      "d": 429.6875,
      "v": 117
    },
    {
      "midi": 68,
      "hit": false,
      "t": 183015.625,
      "d": 1265.625,
      "v": 105
    },
    {
      "midi": 64,
      "hit": false,
      "t": 183015.625,
      "d": 1312.5,
      "v": 93
    },
    {
      "midi": 71,
      "hit": false,
      "t": 183015.625,
      "d": 1328.125,
      "v": 107
    },
    {
      "midi": 40,
      "hit": false,
      "t": 183031.25,
      "d": 1414.0625,
      "v": 83
    },
    {
      "midi": 66,
      "hit": false,
      "t": 184515.625,
      "d": 1328.125,
      "v": 95
    },
    {
      "midi": 63,
      "hit": false,
      "t": 184515.625,
      "d": 1335.9375,
      "v": 105
    },
    {
      "midi": 47,
      "hit": false,
      "t": 184515.625,
      "d": 1429.6875,
      "v": 98
    },
    {
      "midi": 59,
      "hit": false,
      "t": 184523.4375,
      "d": 1289.0625,
      "v": 100
    },
    {
      "midi": 70,
      "hit": false,
      "t": 185992.1875,
      "d": 1351.5625,
      "v": 92
    },
    {
      "midi": 66,
      "hit": false,
      "t": 185992.1875,
      "d": 1406.25,
      "v": 96
    },
    {
      "midi": 42,
      "hit": false,
      "t": 185992.1875,
      "d": 1468.75,
      "v": 75
    },
    {
      "midi": 61,
      "hit": false,
      "t": 186000,
      "d": 1343.75,
      "v": 71
    },
    {
      "midi": 63,
      "hit": false,
      "t": 187515.625,
      "d": 960.9375,
      "v": 100
    },
    {
      "midi": 59,
      "hit": false,
      "t": 187523.4375,
      "d": 1375,
      "v": 95
    },
    {
      "midi": 44,
      "hit": false,
      "t": 187523.4375,
      "d": 1390.625,
      "v": 98
    },
    {
      "midi": 68,
      "hit": false,
      "t": 187523.4375,
      "d": 1398.4375,
      "v": 95
    },
    {
      "midi": 63,
      "hit": false,
      "t": 188500,
      "d": 492.1875,
      "v": 100
    },
    {
      "midi": 59,
      "hit": false,
      "t": 189000,
      "d": 1375,
      "v": 95
    },
    {
      "midi": 64,
      "hit": false,
      "t": 189000,
      "d": 1406.25,
      "v": 93
    },
    {
      "midi": 56,
      "hit": false,
      "t": 189000,
      "d": 1429.6875,
      "v": 78
    },
    {
      "midi": 40,
      "hit": false,
      "t": 189000,
      "d": 1476.5625,
      "v": 93
    },
    {
      "midi": 63,
      "hit": false,
      "t": 190484.375,
      "d": 1281.25,
      "v": 90
    },
    {
      "midi": 66,
      "hit": false,
      "t": 190484.375,
      "d": 1296.875,
      "v": 83
    },
    {
      "midi": 59,
      "hit": false,
      "t": 190492.1875,
      "d": 1257.8125,
      "v": 90
    },
    {
      "midi": 47,
      "hit": false,
      "t": 190500,
      "d": 1453.125,
      "v": 90
    },
    {
      "midi": 42,
      "hit": false,
      "t": 191992.1875,
      "d": 1429.6875,
      "v": 79
    },
    {
      "midi": 61,
      "hit": false,
      "t": 192000,
      "d": 1117.1875,
      "v": 90
    },
    {
      "midi": 66,
      "hit": false,
      "t": 192000,
      "d": 1234.375,
      "v": 90
    },
    {
      "midi": 54,
      "hit": false,
      "t": 192000,
      "d": 1351.5625,
      "v": 90
    },
    {
      "midi": 61,
      "hit": false,
      "t": 193265.625,
      "d": 3234.375,
      "v": 57
    },
    {
      "midi": 66,
      "hit": false,
      "t": 193335.9375,
      "d": 3156.25,
      "v": 78
    },
    {
      "midi": 68,
      "hit": false,
      "t": 193375,
      "d": 3117.1875,
      "v": 93
    },
    {
      "midi": 73,
      "hit": false,
      "t": 193453.125,
      "d": 3039.0625,
      "v": 79
    },
    {
      "midi": 37,
      "hit": false,
      "t": 193468.75,
      "d": 3031.25,
      "v": 90
    },
    {
      "midi": 85,
      "hit": false,
      "t": 197000,
      "d": 2125,
      "v": 119
    },
    {
      "midi": 92,
      "hit": false,
      "t": 197484.375,
      "d": 1656.25,
      "v": 105
    },
    {
      "midi": 90,
      "hit": false,
      "t": 199742.1875,
      "d": 304.6875,
      "v": 92
    },
    {
      "midi": 87,
      "hit": false,
      "t": 200007.8125,
      "d": 218.75,
      "v": 90
    },
    {
      "midi": 85,
      "hit": false,
      "t": 200250,
      "d": 257.8125,
      "v": 113
    },
    {
      "midi": 87,
      "hit": false,
      "t": 200492.1875,
      "d": 234.375,
      "v": 107
    },
    {
      "midi": 80,
      "hit": false,
      "t": 200742.1875,
      "d": 515.625,
      "v": 123
    },
    {
      "midi": 78,
      "hit": false,
      "t": 201289.0625,
      "d": 906.25,
      "v": 111
    },
    {
      "midi": 73,
      "hit": false,
      "t": 203492.1875,
      "d": 304.6875,
      "v": 125
    },
    {
      "midi": 75,
      "hit": false,
      "t": 203742.1875,
      "d": 234.375,
      "v": 119
    },
    {
      "midi": 56,
      "hit": false,
      "t": 204000,
      "d": 257.8125,
      "v": 105
    },
    {
      "midi": 68,
      "hit": false,
      "t": 204000,
      "d": 257.8125,
      "v": 105
    },
    {
      "midi": 54,
      "hit": false,
      "t": 204250,
      "d": 195.3125,
      "v": 121
    },
    {
      "midi": 66,
      "hit": false,
      "t": 204250,
      "d": 195.3125,
      "v": 121
    },
    {
      "midi": 56,
      "hit": false,
      "t": 204500,
      "d": 218.75,
      "v": 111
    },
    {
      "midi": 68,
      "hit": false,
      "t": 204500,
      "d": 218.75,
      "v": 111
    },
    {
      "midi": 59,
      "hit": false,
      "t": 204750,
      "d": 250,
      "v": 114
    },
    {
      "midi": 71,
      "hit": false,
      "t": 204750,
      "d": 250,
      "v": 114
    },
    {
      "midi": 56,
      "hit": false,
      "t": 205000,
      "d": 273.4375,
      "v": 117
    },
    {
      "midi": 68,
      "hit": false,
      "t": 205000,
      "d": 273.4375,
      "v": 117
    },
    {
      "midi": 61,
      "hit": false,
      "t": 205250,
      "d": 273.4375,
      "v": 117
    },
    {
      "midi": 73,
      "hit": false,
      "t": 205250,
      "d": 273.4375,
      "v": 117
    },
    {
      "midi": 59,
      "hit": false,
      "t": 205500,
      "d": 273.4375,
      "v": 117
    },
    {
      "midi": 71,
      "hit": false,
      "t": 205500,
      "d": 273.4375,
      "v": 117
    },
    {
      "midi": 61,
      "hit": false,
      "t": 205750,
      "d": 273.4375,
      "v": 117
    },
    {
      "midi": 73,
      "hit": false,
      "t": 205750,
      "d": 273.4375,
      "v": 117
    },
    {
      "midi": 62,
      "hit": false,
      "t": 206000,
      "d": 273.4375,
      "v": 117
    },
    {
      "midi": 74,
      "hit": false,
      "t": 206000,
      "d": 273.4375,
      "v": 117
    },
    {
      "midi": 63,
      "hit": false,
      "t": 206250,
      "d": 273.4375,
      "v": 117
    },
    {
      "midi": 75,
      "hit": false,
      "t": 206250,
      "d": 273.4375,
      "v": 117
    },
    {
      "midi": 66,
      "hit": false,
      "t": 206500,
      "d": 273.4375,
      "v": 117
    },
    {
      "midi": 78,
      "hit": false,
      "t": 206500,
      "d": 273.4375,
      "v": 117
    },
    {
      "midi": 63,
      "hit": false,
      "t": 206750,
      "d": 273.4375,
      "v": 117
    },
    {
      "midi": 75,
      "hit": false,
      "t": 206750,
      "d": 273.4375,
      "v": 117
    },
    {
      "midi": 68,
      "hit": false,
      "t": 207015.625,
      "d": 1265.625,
      "v": 105
    },
    {
      "midi": 64,
      "hit": false,
      "t": 207015.625,
      "d": 1312.5,
      "v": 93
    },
    {
      "midi": 71,
      "hit": false,
      "t": 207015.625,
      "d": 1328.125,
      "v": 107
    },
    {
      "midi": 40,
      "hit": false,
      "t": 207031.25,
      "d": 1414.0625,
      "v": 83
    },
    {
      "midi": 66,
      "hit": false,
      "t": 208515.625,
      "d": 1328.125,
      "v": 95
    },
    {
      "midi": 63,
      "hit": false,
      "t": 208515.625,
      "d": 1335.9375,
      "v": 105
    },
    {
      "midi": 47,
      "hit": false,
      "t": 208515.625,
      "d": 1429.6875,
      "v": 98
    },
    {
      "midi": 59,
      "hit": false,
      "t": 208523.4375,
      "d": 1289.0625,
      "v": 100
    },
    {
      "midi": 70,
      "hit": false,
      "t": 209992.1875,
      "d": 1351.5625,
      "v": 92
    },
    {
      "midi": 66,
      "hit": false,
      "t": 209992.1875,
      "d": 1406.25,
      "v": 96
    },
    {
      "midi": 42,
      "hit": false,
      "t": 209992.1875,
      "d": 1468.75,
      "v": 75
    },
    {
      "midi": 61,
      "hit": false,
      "t": 210000,
      "d": 1343.75,
      "v": 71
    },
    {
      "midi": 63,
      "hit": false,
      "t": 211515.625,
      "d": 960.9375,
      "v": 100
    },
    {
      "midi": 59,
      "hit": false,
      "t": 211523.4375,
      "d": 1375,
      "v": 95
    },
    {
      "midi": 44,
      "hit": false,
      "t": 211523.4375,
      "d": 1390.625,
      "v": 98
    },
    {
      "midi": 68,
      "hit": false,
      "t": 211523.4375,
      "d": 1398.4375,
      "v": 95
    },
    {
      "midi": 63,
      "hit": false,
      "t": 212500,
      "d": 492.1875,
      "v": 100
    },
    {
      "midi": 68,
      "hit": false,
      "t": 213015.625,
      "d": 1265.625,
      "v": 105
    },
    {
      "midi": 64,
      "hit": false,
      "t": 213015.625,
      "d": 1312.5,
      "v": 93
    },
    {
      "midi": 71,
      "hit": false,
      "t": 213015.625,
      "d": 1328.125,
      "v": 107
    },
    {
      "midi": 40,
      "hit": false,
      "t": 213031.25,
      "d": 1414.0625,
      "v": 83
    },
    {
      "midi": 66,
      "hit": false,
      "t": 214515.625,
      "d": 1328.125,
      "v": 95
    },
    {
      "midi": 63,
      "hit": false,
      "t": 214515.625,
      "d": 1335.9375,
      "v": 105
    },
    {
      "midi": 47,
      "hit": false,
      "t": 214515.625,
      "d": 1429.6875,
      "v": 98
    },
    {
      "midi": 59,
      "hit": false,
      "t": 214523.4375,
      "d": 1289.0625,
      "v": 100
    },
    {
      "midi": 70,
      "hit": false,
      "t": 215992.1875,
      "d": 1351.5625,
      "v": 92
    },
    {
      "midi": 66,
      "hit": false,
      "t": 215992.1875,
      "d": 1406.25,
      "v": 96
    },
    {
      "midi": 42,
      "hit": false,
      "t": 215992.1875,
      "d": 1468.75,
      "v": 75
    },
    {
      "midi": 61,
      "hit": false,
      "t": 216000,
      "d": 1343.75,
      "v": 71
    },
    {
      "midi": 63,
      "hit": false,
      "t": 217515.625,
      "d": 960.9375,
      "v": 100
    },
    {
      "midi": 59,
      "hit": false,
      "t": 217523.4375,
      "d": 1375,
      "v": 95
    },
    {
      "midi": 44,
      "hit": false,
      "t": 217523.4375,
      "d": 1390.625,
      "v": 98
    },
    {
      "midi": 68,
      "hit": false,
      "t": 217523.4375,
      "d": 1398.4375,
      "v": 95
    },
    {
      "midi": 63,
      "hit": false,
      "t": 218500,
      "d": 492.1875,
      "v": 100
    },
    {
      "midi": 68,
      "hit": false,
      "t": 219015.625,
      "d": 1265.625,
      "v": 105
    },
    {
      "midi": 64,
      "hit": false,
      "t": 219015.625,
      "d": 1312.5,
      "v": 93
    },
    {
      "midi": 71,
      "hit": false,
      "t": 219015.625,
      "d": 1328.125,
      "v": 107
    },
    {
      "midi": 40,
      "hit": false,
      "t": 219031.25,
      "d": 1414.0625,
      "v": 83
    },
    {
      "midi": 66,
      "hit": false,
      "t": 220515.625,
      "d": 1328.125,
      "v": 95
    },
    {
      "midi": 63,
      "hit": false,
      "t": 220515.625,
      "d": 1335.9375,
      "v": 105
    },
    {
      "midi": 47,
      "hit": false,
      "t": 220515.625,
      "d": 1429.6875,
      "v": 98
    },
    {
      "midi": 59,
      "hit": false,
      "t": 220523.4375,
      "d": 1289.0625,
      "v": 100
    },
    {
      "midi": 70,
      "hit": false,
      "t": 221992.1875,
      "d": 1351.5625,
      "v": 92
    },
    {
      "midi": 66,
      "hit": false,
      "t": 221992.1875,
      "d": 1406.25,
      "v": 96
    },
    {
      "midi": 42,
      "hit": false,
      "t": 221992.1875,
      "d": 1468.75,
      "v": 75
    },
    {
      "midi": 61,
      "hit": false,
      "t": 222000,
      "d": 1343.75,
      "v": 71
    },
    {
      "midi": 63,
      "hit": false,
      "t": 223515.625,
      "d": 960.9375,
      "v": 100
    },
    {
      "midi": 59,
      "hit": false,
      "t": 223523.4375,
      "d": 1375,
      "v": 95
    },
    {
      "midi": 44,
      "hit": false,
      "t": 223523.4375,
      "d": 1390.625,
      "v": 98
    },
    {
      "midi": 68,
      "hit": false,
      "t": 223523.4375,
      "d": 1398.4375,
      "v": 95
    },
    {
      "midi": 63,
      "hit": false,
      "t": 224500,
      "d": 492.1875,
      "v": 100
    },
    {
      "midi": 40,
      "hit": false,
      "t": 225000,
      "d": 250,
      "v": 93
    },
    {
      "midi": 56,
      "hit": false,
      "t": 225000,
      "d": 250,
      "v": 78
    },
    {
      "midi": 59,
      "hit": false,
      "t": 225000,
      "d": 250,
      "v": 95
    },
    {
      "midi": 64,
      "hit": false,
      "t": 225000,
      "d": 250,
      "v": 93
    },
    {
      "midi": 68,
      "hit": false,
      "t": 225000,
      "d": 250,
      "v": 78
    },
    {
      "midi": 47,
      "hit": false,
      "t": 226500,
      "d": 250,
      "v": 90
    },
    {
      "midi": 59,
      "hit": false,
      "t": 226500,
      "d": 250,
      "v": 90
    },
    {
      "midi": 63,
      "hit": false,
      "t": 226500,
      "d": 250,
      "v": 90
    },
    {
      "midi": 66,
      "hit": false,
      "t": 226500,
      "d": 250,
      "v": 83
    },
    {
      "midi": 47,
      "hit": false,
      "t": 227000,
      "d": 250,
      "v": 90
    },
    {
      "midi": 59,
      "hit": false,
      "t": 227000,
      "d": 250,
      "v": 90
    },
    {
      "midi": 63,
      "hit": false,
      "t": 227000,
      "d": 250,
      "v": 90
    },
    {
      "midi": 66,
      "hit": false,
      "t": 227000,
      "d": 250,
      "v": 83
    },
    {
      "midi": 66,
      "hit": false,
      "t": 227984.375,
      "d": 1234.375,
      "v": 75
    },
    {
      "midi": 70,
      "hit": false,
      "t": 227984.375,
      "d": 1359.375,
      "v": 68
    },
    {
      "midi": 61,
      "hit": false,
      "t": 227992.1875,
      "d": 1117.1875,
      "v": 78
    },
    {
      "midi": 42,
      "hit": false,
      "t": 227992.1875,
      "d": 1429.6875,
      "v": 79
    },
    {
      "midi": 61,
      "hit": false,
      "t": 229265.625,
      "d": 1234.375,
      "v": 57
    },
    {
      "midi": 66,
      "hit": false,
      "t": 229335.9375,
      "d": 1156.25,
      "v": 78
    },
    {
      "midi": 68,
      "hit": false,
      "t": 229375,
      "d": 1117.1875,
      "v": 93
    },
    {
      "midi": 73,
      "hit": false,
      "t": 229453.125,
      "d": 1039.0625,
      "v": 79
    },
    {
      "midi": 37,
      "hit": false,
      "t": 229468.75,
      "d": 3031.25,
      "v": 90
    },
    {
      "midi": 66,
      "hit": false,
      "t": 230500,
      "d": 421.875,
      "v": 121
    },
    {
      "midi": 68,
      "hit": false,
      "t": 230500,
      "d": 429.6875,
      "v": 125
    },
    {
      "midi": 73,
      "hit": false,
      "t": 230500,
      "d": 437.5,
      "v": 113
    },
    {
      "midi": 68,
      "hit": false,
      "t": 231000,
      "d": 1234.375,
      "v": 117
    },
    {
      "midi": 65,
      "hit": false,
      "t": 231000,
      "d": 1242.1875,
      "v": 98
    },
    {
      "midi": 73,
      "hit": false,
      "t": 231000,
      "d": 1265.625,
      "v": 102
    },
    {
      "midi": 78,
      "hit": false,
      "t": 232781.25,
      "d": 2710.9375,
      "v": 127
    },
    {
      "midi": 80,
      "hit": false,
      "t": 233000,
      "d": 2523.4375,
      "v": 121
    },
    {
      "midi": 73,
      "hit": false,
      "t": 233234.375,
      "d": 2250,
      "v": 119
    },
    {
      "midi": 75,
      "hit": false,
      "t": 233484.375,
      "d": 2000,
      "v": 107
    },
    {
      "midi": 68,
      "hit": false,
      "t": 233742.1875,
      "d": 1726.5625,
      "v": 107
    },
    {
      "midi": 66,
      "hit": false,
      "t": 234250,
      "d": 1250,
      "v": 107
    },
    {
      "midi": 90,
      "hit": false,
      "t": 235742.1875,
      "d": 304.6875,
      "v": 92
    },
    {
      "midi": 87,
      "hit": false,
      "t": 236007.8125,
      "d": 218.75,
      "v": 90
    },
    {
      "midi": 85,
      "hit": false,
      "t": 236250,
      "d": 257.8125,
      "v": 113
    },
    {
      "midi": 87,
      "hit": false,
      "t": 236492.1875,
      "d": 234.375,
      "v": 107
    },
    {
      "midi": 80,
      "hit": false,
      "t": 236742.1875,
      "d": 515.625,
      "v": 123
    },
    {
      "midi": 78,
      "hit": false,
      "t": 237289.0625,
      "d": 906.25,
      "v": 111
    },
    {
      "midi": 83,
      "hit": false,
      "t": 238734.375,
      "d": 304.6875,
      "v": 119
    },
    {
      "midi": 78,
      "hit": false,
      "t": 238742.1875,
      "d": 281.25,
      "v": 119
    },
    {
      "midi": 80,
      "hit": false,
      "t": 239000,
      "d": 140.625,
      "v": 109
    },
    {
      "midi": 73,
      "hit": false,
      "t": 239273.4375,
      "d": 453.125,
      "v": 109
    },
    {
      "midi": 78,
      "hit": false,
      "t": 239273.4375,
      "d": 500,
      "v": 113
    },
    {
      "midi": 75,
      "hit": false,
      "t": 239757.8125,
      "d": 195.3125,
      "v": 119
    },
    {
      "midi": 68,
      "hit": false,
      "t": 240000,
      "d": 2617.1875,
      "v": 121
    },
    {
      "midi": 63,
      "hit": false,
      "t": 240007.8125,
      "d": 2601.5625,
      "v": 111
    },
    {
      "midi": 80,
      "hit": false,
      "t": 246648.4375,
      "d": 46.875,
      "v": 50
    },
    {
      "midi": 92,
      "hit": false,
      "t": 246742.1875,
      "d": 39.0625,
      "v": 69
    },
    {
      "midi": 80,
      "hit": false,
      "t": 246843.75,
      "d": 62.5,
      "v": 57
    },
    {
      "midi": 92,
      "hit": false,
      "t": 246945.3125,
      "d": 46.875,
      "v": 85
    },
    {
      "midi": 80,
      "hit": false,
      "t": 247015.625,
      "d": 70.3125,
      "v": 79
    },
    {
      "midi": 92,
      "hit": false,
      "t": 247109.375,
      "d": 54.6875,
      "v": 113
    },
    {
      "midi": 80,
      "hit": false,
      "t": 247195.3125,
      "d": 70.3125,
      "v": 83
    },
    {
      "midi": 92,
      "hit": false,
      "t": 247281.25,
      "d": 62.5,
      "v": 113
    },
    {
      "midi": 80,
      "hit": false,
      "t": 247359.375,
      "d": 70.3125,
      "v": 80
    },
    {
      "midi": 92,
      "hit": false,
      "t": 247453.125,
      "d": 62.5,
      "v": 119
    },
    {
      "midi": 80,
      "hit": false,
      "t": 247523.4375,
      "d": 78.125,
      "v": 79
    },
    {
      "midi": 92,
      "hit": false,
      "t": 247617.1875,
      "d": 62.5,
      "v": 119
    },
    {
      "midi": 80,
      "hit": false,
      "t": 247703.125,
      "d": 62.5,
      "v": 74
    },
    {
      "midi": 92,
      "hit": false,
      "t": 247773.4375,
      "d": 78.125,
      "v": 123
    },
    {
      "midi": 80,
      "hit": false,
      "t": 247867.1875,
      "d": 125,
      "v": 105
    },
    {
      "midi": 68,
      "hit": false,
      "t": 252000,
      "d": 2617.1875,
      "v": 121
    },
    {
      "midi": 63,
      "hit": false,
      "t": 252007.8125,
      "d": 2601.5625,
      "v": 111
    },
    {
      "midi": 74,
      "hit": false,
      "t": 258000,
      "d": 62.5,
      "v": 95
    },
    {
      "midi": 75,
      "hit": false,
      "t": 258000,
      "d": 445.3125,
      "v": 115
    },
    {
      "midi": 78,
      "hit": false,
      "t": 258000,
      "d": 476.5625,
      "v": 117
    },
    {
      "midi": 75,
      "hit": false,
      "t": 258500,
      "d": 140.625,
      "v": 119
    },
    {
      "midi": 78,
      "hit": false,
      "t": 258500,
      "d": 148.4375,
      "v": 111
    },
    {
      "midi": 75,
      "hit": false,
      "t": 258992.1875,
      "d": 93.75,
      "v": 79
    },
    {
      "midi": 78,
      "hit": false,
      "t": 259226.5625,
      "d": 62.5,
      "v": 90
    },
    {
      "midi": 80,
      "hit": false,
      "t": 259507.8125,
      "d": 429.6875,
      "v": 127
    },
    {
      "midi": 78,
      "hit": false,
      "t": 259992.1875,
      "d": 609.375,
      "v": 127
    },
    {
      "midi": 78,
      "hit": false,
      "t": 260726.5625,
      "d": 156.25,
      "v": 115
    },
    {
      "midi": 74,
      "hit": false,
      "t": 260984.375,
      "d": 85.9375,
      "v": 102
    },
    {
      "midi": 78,
      "hit": false,
      "t": 260984.375,
      "d": 460.9375,
      "v": 127
    },
    {
      "midi": 75,
      "hit": false,
      "t": 260992.1875,
      "d": 429.6875,
      "v": 127
    },
    {
      "midi": 75,
      "hit": false,
      "t": 261500,
      "d": 406.25,
      "v": 119
    },
    {
      "midi": 78,
      "hit": false,
      "t": 261500,
      "d": 523.4375,
      "v": 111
    },
    {
      "midi": 75,
      "hit": false,
      "t": 262007.8125,
      "d": 101.5625,
      "v": 89
    },
    {
      "midi": 78,
      "hit": false,
      "t": 262257.8125,
      "d": 85.9375,
      "v": 113
    },
    {
      "midi": 80,
      "hit": false,
      "t": 262500,
      "d": 250,
      "v": 127
    },
    {
      "midi": 78,
      "hit": false,
      "t": 262718.75,
      "d": 218.75,
      "v": 75
    },
    {
      "midi": 75,
      "hit": false,
      "t": 262984.375,
      "d": 117.1875,
      "v": 115
    },
    {
      "midi": 73,
      "hit": false,
      "t": 263226.5625,
      "d": 140.625,
      "v": 127
    },
    {
      "midi": 74,
      "hit": false,
      "t": 263265.625,
      "d": 242.1875,
      "v": 49
    },
    {
      "midi": 73,
      "hit": false,
      "t": 263476.5625,
      "d": 203.125,
      "v": 98
    },
    {
      "midi": 71,
      "hit": false,
      "t": 263718.75,
      "d": 250,
      "v": 102
    },
    {
      "midi": 68,
      "hit": false,
      "t": 264000,
      "d": 1437.5,
      "v": 121
    },
    {
      "midi": 63,
      "hit": false,
      "t": 264007.8125,
      "d": 1492.1875,
      "v": 111
    }
  ]
}