{
  "jsonPath": "World/Canadian Pop/Céline Dion/my-heart-will-go-on-love-theme-from-titanic.json",
  "path": "World\\Canadian Pop\\Céline Dion\\My Heart Will Go On (Love Theme from Titanic).mid",
  "name": "My Heart Will Go On (Love Theme from Titanic)",
  "difficulty": "Intermediate",
  "bpm": 120,
  "notes": [
    {
      "midi": 64,
      "hit": false,
      "t": 4848.387776041667,
      "d": 272.27704166666626,
      "v": 75
    },
    {
      "midi": 49,
      "hit": false,
      "t": 4885.516463541667,
      "d": 2045.1718697916658,
      "v": 73
    },
    {
      "midi": 71,
      "hit": false,
      "t": 5151.605390625,
      "d": 259.90081250000003,
      "v": 86
    },
    {
      "midi": 56,
      "hit": false,
      "t": 5160.8875625,
      "d": 312.4997864583329,
      "v": 60
    },
    {
      "midi": 76,
      "hit": false,
      "t": 5448.634890625,
      "d": 102.10389062499962,
      "v": 77
    },
    {
      "midi": 61,
      "hit": false,
      "t": 5473.387348958333,
      "d": 284.6532708333325,
      "v": 70
    },
    {
      "midi": 56,
      "hit": false,
      "t": 5742.570333333332,
      "d": 315.5938437499999,
      "v": 68
    },
    {
      "midi": 76,
      "hit": false,
      "t": 5745.664390624999,
      "d": 108.29200520833274,
      "v": 78
    },
    {
      "midi": 61,
      "hit": false,
      "t": 6058.164177083332,
      "d": 284.6532708333334,
      "v": 73
    },
    {
      "midi": 71,
      "hit": false,
      "t": 6327.347161458332,
      "d": 225.86618229166652,
      "v": 75
    },
    {
      "midi": 56,
      "hit": false,
      "t": 6339.7233906249985,
      "d": 306.3116718749998,
      "v": 58
    },
    {
      "midi": 64,
      "hit": false,
      "t": 6633.658833333332,
      "d": 139.23257812500015,
      "v": 66
    },
    {
      "midi": 61,
      "hit": false,
      "t": 6649.129119791665,
      "d": 566.2124843750007,
      "v": 73
    },
    {
      "midi": 47,
      "hit": false,
      "t": 7218.435661458333,
      "d": 2308.1667395833365,
      "v": 83
    },
    {
      "midi": 64,
      "hit": false,
      "t": 7221.52971875,
      "d": 247.5245833333338,
      "v": 69
    },
    {
      "midi": 71,
      "hit": false,
      "t": 7521.653276041668,
      "d": 219.6780677083334,
      "v": 71
    },
    {
      "midi": 54,
      "hit": false,
      "t": 7546.405734375001,
      "d": 262.99486979166704,
      "v": 73
    },
    {
      "midi": 76,
      "hit": false,
      "t": 7812.494661458335,
      "d": 126.856348958333,
      "v": 88
    },
    {
      "midi": 59,
      "hit": false,
      "t": 7824.870890625001,
      "d": 284.6532708333334,
      "v": 70
    },
    {
      "midi": 76,
      "hit": false,
      "t": 8103.336046875002,
      "d": 111.38606249999975,
      "v": 88
    },
    {
      "midi": 54,
      "hit": false,
      "t": 8112.618218750002,
      "d": 284.6532708333325,
      "v": 62
    },
    {
      "midi": 59,
      "hit": false,
      "t": 8403.459604166668,
      "d": 306.3116718750007,
      "v": 74
    },
    {
      "midi": 54,
      "hit": false,
      "t": 8678.830703125002,
      "d": 324.8760156249991,
      "v": 60
    },
    {
      "midi": 71,
      "hit": false,
      "t": 8715.959390625003,
      "d": 204.20778124999924,
      "v": 62
    },
    {
      "midi": 59,
      "hit": false,
      "t": 9003.706718750002,
      "d": 507.4253958333338,
      "v": 76
    },
    {
      "midi": 64,
      "hit": false,
      "t": 9012.988890625002,
      "d": 157.7969218750004,
      "v": 64
    },
    {
      "midi": 45,
      "hit": false,
      "t": 9560.637031250002,
      "d": 2289.6023958333335,
      "v": 83
    },
    {
      "midi": 64,
      "hit": false,
      "t": 9582.295432291668,
      "d": 269.18298437500016,
      "v": 64
    },
    {
      "midi": 71,
      "hit": false,
      "t": 9885.513046875001,
      "d": 185.6434375000008,
      "v": 84
    },
    {
      "midi": 52,
      "hit": false,
      "t": 9885.513046875001,
      "d": 287.7473281250004,
      "v": 64
    },
    {
      "midi": 73,
      "hit": false,
      "t": 10163.978203125002,
      "d": 157.7969218749986,
      "v": 78
    },
    {
      "midi": 57,
      "hit": false,
      "t": 10173.260375000002,
      "d": 284.6532708333325,
      "v": 78
    },
    {
      "midi": 76,
      "hit": false,
      "t": 10176.354432291668,
      "d": 120.66823437499988,
      "v": 61
    },
    {
      "midi": 52,
      "hit": false,
      "t": 10457.913645833334,
      "d": 324.87601562500095,
      "v": 67
    },
    {
      "midi": 76,
      "hit": false,
      "t": 10485.760161458335,
      "d": 133.04446354166794,
      "v": 78
    },
    {
      "midi": 73,
      "hit": false,
      "t": 10491.948276041669,
      "d": 167.07909375000054,
      "v": 80
    },
    {
      "midi": 57,
      "hit": false,
      "t": 10770.413432291669,
      "d": 281.5592135416664,
      "v": 80
    },
    {
      "midi": 52,
      "hit": false,
      "t": 11058.16076041667,
      "d": 340.3463020833333,
      "v": 63
    },
    {
      "midi": 71,
      "hit": false,
      "t": 11086.00727604167,
      "d": 139.23257812500015,
      "v": 93
    },
    {
      "midi": 73,
      "hit": false,
      "t": 11379.942718750002,
      "d": 136.13852083333222,
      "v": 80
    },
    {
      "midi": 57,
      "hit": false,
      "t": 11379.942718750002,
      "d": 615.7174010416675,
      "v": 80
    },
    {
      "midi": 64,
      "hit": false,
      "t": 11401.601119791669,
      "d": 123.76229166666599,
      "v": 59
    },
    {
      "midi": 45,
      "hit": false,
      "t": 12004.94229166667,
      "d": 2178.21633333333,
      "v": 88
    },
    {
      "midi": 64,
      "hit": false,
      "t": 12017.318520833336,
      "d": 241.33646874999977,
      "v": 75
    },
    {
      "midi": 52,
      "hit": false,
      "t": 12292.689619791669,
      "d": 312.4997864583329,
      "v": 63
    },
    {
      "midi": 71,
      "hit": false,
      "t": 12295.783677083335,
      "d": 241.33646874999977,
      "v": 70
    },
    {
      "midi": 76,
      "hit": false,
      "t": 12568.06071875,
      "d": 108.29200520833365,
      "v": 78
    },
    {
      "midi": 57,
      "hit": false,
      "t": 12583.531005208335,
      "d": 266.08892708333224,
      "v": 76
    },
    {
      "midi": 52,
      "hit": false,
      "t": 12852.713989583333,
      "d": 358.91064583333355,
      "v": 70
    },
    {
      "midi": 76,
      "hit": false,
      "t": 12865.09021875,
      "d": 105.19794791666754,
      "v": 82
    },
    {
      "midi": 57,
      "hit": false,
      "t": 13193.060291666667,
      "d": 1095.296281249999,
      "v": 80
    },
    {
      "midi": 64,
      "hit": false,
      "t": 14396.648578125,
      "d": 244.43052604166587,
      "v": 74
    },
    {
      "midi": 49,
      "hit": false,
      "t": 14421.401036458332,
      "d": 2283.414281250005,
      "v": 77
    },
    {
      "midi": 71,
      "hit": false,
      "t": 14665.831562499998,
      "d": 238.24241145833366,
      "v": 78
    },
    {
      "midi": 56,
      "hit": false,
      "t": 14681.301848958332,
      "d": 275.37109895833237,
      "v": 77
    },
    {
      "midi": 76,
      "hit": false,
      "t": 14947.390776041664,
      "d": 126.85634895833391,
      "v": 90
    },
    {
      "midi": 61,
      "hit": false,
      "t": 14969.04917708333,
      "d": 290.84138541666834,
      "v": 77
    },
    {
      "midi": 56,
      "hit": false,
      "t": 15241.326218749999,
      "d": 303.21761458333276,
      "v": 68
    },
    {
      "midi": 76,
      "hit": false,
      "t": 15250.608390624999,
      "d": 133.04446354166612,
      "v": 86
    },
    {
      "midi": 61,
      "hit": false,
      "t": 15535.261661458331,
      "d": 297.0295000000024,
      "v": 77
    },
    {
      "midi": 71,
      "hit": false,
      "t": 15810.632760416665,
      "d": 219.67806770833522,
      "v": 66
    },
    {
      "midi": 56,
      "hit": false,
      "t": 15816.820875,
      "d": 318.68790104166874,
      "v": 50
    },
    {
      "midi": 64,
      "hit": false,
      "t": 16126.226604166668,
      "d": 185.6434375000008,
      "v": 70
    },
    {
      "midi": 61,
      "hit": false,
      "t": 16144.790947916668,
      "d": 615.7174010416657,
      "v": 84
    },
    {
      "midi": 47,
      "hit": false,
      "t": 16726.473718750003,
      "d": 2326.7310833333213,
      "v": 80
    },
    {
      "midi": 64,
      "hit": false,
      "t": 16732.661833333335,
      "d": 241.33646874999977,
      "v": 67
    },
    {
      "midi": 54,
      "hit": false,
      "t": 17008.03293229167,
      "d": 300.12355729166666,
      "v": 65
    },
    {
      "midi": 71,
      "hit": false,
      "t": 17026.59727604167,
      "d": 241.33646874999977,
      "v": 73
    },
    {
      "midi": 59,
      "hit": false,
      "t": 17308.156489583336,
      "d": 287.74732812499497,
      "v": 78
    },
    {
      "midi": 76,
      "hit": false,
      "t": 17317.438661458335,
      "d": 126.85634895833209,
      "v": 84
    },
    {
      "midi": 54,
      "hit": false,
      "t": 17589.715703125,
      "d": 349.6284739583316,
      "v": 65
    },
    {
      "midi": 76,
      "hit": false,
      "t": 17614.46816145833,
      "d": 139.23257812500015,
      "v": 82
    },
    {
      "midi": 59,
      "hit": false,
      "t": 17914.591718749998,
      "d": 300.123557291663,
      "v": 83
    },
    {
      "midi": 54,
      "hit": false,
      "t": 18196.150932291665,
      "d": 343.44035937499575,
      "v": 58
    },
    {
      "midi": 71,
      "hit": false,
      "t": 18205.433104166663,
      "d": 210.39589583333145,
      "v": 82
    },
    {
      "midi": 64,
      "hit": false,
      "t": 18514.838833333328,
      "d": 170.17315104166482,
      "v": 74
    },
    {
      "midi": 59,
      "hit": false,
      "t": 18524.121005208326,
      "d": 532.1778541666645,
      "v": 85
    },
    {
      "midi": 45,
      "hit": false,
      "t": 19068.67508854166,
      "d": 2042.0778124999888,
      "v": 83
    },
    {
      "midi": 64,
      "hit": false,
      "t": 19081.051317708327,
      "d": 222.7721249999995,
      "v": 74
    },
    {
      "midi": 52,
      "hit": false,
      "t": 19371.89270312499,
      "d": 306.31167187499886,
      "v": 67
    },
    {
      "midi": 71,
      "hit": false,
      "t": 19381.17487499999,
      "d": 216.5840104166673,
      "v": 75
    },
    {
      "midi": 57,
      "hit": false,
      "t": 19672.016260416658,
      "d": 290.8413854166647,
      "v": 85
    },
    {
      "midi": 76,
      "hit": false,
      "t": 19675.110317708324,
      "d": 120.66823437499988,
      "v": 82
    },
    {
      "midi": 52,
      "hit": false,
      "t": 19953.575473958324,
      "d": 315.59384374999354,
      "v": 58
    },
    {
      "midi": 76,
      "hit": false,
      "t": 19972.13981770832,
      "d": 126.85634895833209,
      "v": 82
    },
    {
      "midi": 57,
      "hit": false,
      "t": 20266.075260416652,
      "d": 272.27704166666445,
      "v": 83
    },
    {
      "midi": 52,
      "hit": false,
      "t": 20547.634473958315,
      "d": 343.4403593749994,
      "v": 65
    },
    {
      "midi": 71,
      "hit": false,
      "t": 20581.66910416665,
      "d": 207.30183854166535,
      "v": 77
    },
    {
      "midi": 64,
      "hit": false,
      "t": 20869.416432291648,
      "d": 207.30183854166535,
      "v": 71
    },
    {
      "midi": 57,
      "hit": false,
      "t": 20881.792661458316,
      "d": 686.8807187499951,
      "v": 88
    },
    {
      "midi": 64,
      "hit": false,
      "t": 21478.94571874998,
      "d": 219.67806770832976,
      "v": 75
    },
    {
      "midi": 47,
      "hit": false,
      "t": 21485.13383333331,
      "d": 2261.7558802083295,
      "v": 88
    },
    {
      "midi": 71,
      "hit": false,
      "t": 21766.693046874974,
      "d": 244.43052604166587,
      "v": 73
    },
    {
      "midi": 52,
      "hit": false,
      "t": 21791.445505208307,
      "d": 284.6532708333325,
      "v": 64
    },
    {
      "midi": 76,
      "hit": false,
      "t": 22048.25226041664,
      "d": 120.66823437499988,
      "v": 90
    },
    {
      "midi": 57,
      "hit": false,
      "t": 22066.81660416664,
      "d": 275.3710989583342,
      "v": 85
    },
    {
      "midi": 76,
      "hit": false,
      "t": 22345.28176041664,
      "d": 86.63360416666546,
      "v": 95
    },
    {
      "midi": 52,
      "hit": false,
      "t": 22348.375817708307,
      "d": 340.3463020833333,
      "v": 63
    },
    {
      "midi": 57,
      "hit": false,
      "t": 22682.53400520831,
      "d": 1045.7913645833323,
      "v": 88
    },
    {
      "midi": 52,
      "hit": false,
      "t": 23861.36983333331,
      "d": 2301.9786249999997,
      "v": 90
    },
    {
      "midi": 56,
      "hit": false,
      "t": 24161.493390624975,
      "d": 259.90081250000003,
      "v": 50
    },
    {
      "midi": 59,
      "hit": false,
      "t": 24449.240718749974,
      "d": 324.8760156249991,
      "v": 88
    },
    {
      "midi": 64,
      "hit": false,
      "t": 24752.458333333307,
      "d": 739.4796927083335,
      "v": 98
    },
    {
      "midi": 64,
      "hit": false,
      "t": 25649.73494791664,
      "d": 272.2770416666681,
      "v": 82
    },
    {
      "midi": 59,
      "hit": false,
      "t": 25943.670390624975,
      "d": 290.8413854166647,
      "v": 82
    },
    {
      "midi": 54,
      "hit": false,
      "t": 26237.605833333306,
      "d": 1568.6870468749985,
      "v": 59
    },
    {
      "midi": 56,
      "hit": false,
      "t": 26525.353161458304,
      "d": 278.4651562500003,
      "v": 68
    },
    {
      "midi": 59,
      "hit": false,
      "t": 26828.570776041637,
      "d": 284.6532708333325,
      "v": 93
    },
    {
      "midi": 64,
      "hit": false,
      "t": 27122.506218749968,
      "d": 145.42069270833235,
      "v": 93
    },
    {
      "midi": 64,
      "hit": false,
      "t": 27422.629776041635,
      "d": 272.2770416666681,
      "v": 88
    },
    {
      "midi": 59,
      "hit": false,
      "t": 27713.471161458303,
      "d": 293.93544270833445,
      "v": 86
    },
    {
      "midi": 54,
      "hit": false,
      "t": 28016.688776041636,
      "d": 541.4600260416664,
      "v": 83
    },
    {
      "midi": 52,
      "hit": false,
      "t": 28610.747776041637,
      "d": 1615.097906250001,
      "v": 90
    },
    {
      "midi": 54,
      "hit": false,
      "t": 28901.589161458305,
      "d": 303.21761458333276,
      "v": 70
    },
    {
      "midi": 57,
      "hit": false,
      "t": 29195.52460416664,
      "d": 315.5938437499972,
      "v": 93
    },
    {
      "midi": 64,
      "hit": false,
      "t": 29492.554104166637,
      "d": 343.4403593749994,
      "v": 82
    },
    {
      "midi": 57,
      "hit": false,
      "t": 29795.77171874997,
      "d": 293.93544270833445,
      "v": 78
    },
    {
      "midi": 54,
      "hit": false,
      "t": 30092.80121874997,
      "d": 262.99486979166977,
      "v": 62
    },
    {
      "midi": 52,
      "hit": false,
      "t": 30392.92477604164,
      "d": 439.3561354166668,
      "v": 80
    },
    {
      "midi": 52,
      "hit": false,
      "t": 30983.88971874997,
      "d": 1197.4001718749969,
      "v": 82
    },
    {
      "midi": 56,
      "hit": false,
      "t": 31271.63704687497,
      "d": 321.781958333333,
      "v": 75
    },
    {
      "midi": 59,
      "hit": false,
      "t": 31571.760604166637,
      "d": 340.3463020833333,
      "v": 101
    },
    {
      "midi": 64,
      "hit": false,
      "t": 31874.97821874997,
      "d": 337.2522447916672,
      "v": 98
    },
    {
      "midi": 47,
      "hit": false,
      "t": 32172.00771874997,
      "d": 1181.9298854166773,
      "v": 98
    },
    {
      "midi": 63,
      "hit": false,
      "t": 32175.101776041636,
      "d": 297.02950000000055,
      "v": 78
    },
    {
      "midi": 59,
      "hit": false,
      "t": 32465.943161458305,
      "d": 331.064130208335,
      "v": 78
    },
    {
      "midi": 54,
      "hit": false,
      "t": 32769.16077604164,
      "d": 513.6135104166751,
      "v": 70
    },
    {
      "midi": 52,
      "hit": false,
      "t": 33363.219776041646,
      "d": 1933.7858072916715,
      "v": 98
    },
    {
      "midi": 56,
      "hit": false,
      "t": 33654.06116145832,
      "d": 309.4057291666686,
      "v": 66
    },
    {
      "midi": 59,
      "hit": false,
      "t": 33957.278776041654,
      "d": 309.40572916666133,
      "v": 90
    },
    {
      "midi": 64,
      "hit": false,
      "t": 34251.214218749985,
      "d": 204.20778124999924,
      "v": 63
    },
    {
      "midi": 64,
      "hit": false,
      "t": 34548.24371874998,
      "d": 290.8413854166647,
      "v": 80
    },
    {
      "midi": 59,
      "hit": false,
      "t": 34839.08510416665,
      "d": 371.28687500000524,
      "v": 75
    },
    {
      "midi": 56,
      "hit": false,
      "t": 35148.490833333315,
      "d": 244.43052604166587,
      "v": 62
    },
    {
      "midi": 52,
      "hit": false,
      "t": 35442.426276041646,
      "d": 287.7473281249986,
      "v": 90
    },
    {
      "midi": 54,
      "hit": false,
      "t": 35748.73794791664,
      "d": 1618.1919635416707,
      "v": 83
    },
    {
      "midi": 59,
      "hit": false,
      "t": 36042.67339062497,
      "d": 157.7969218750004,
      "v": 78
    },
    {
      "midi": 59,
      "hit": false,
      "t": 36336.6088333333,
      "d": 331.0641302083386,
      "v": 95
    },
    {
      "midi": 64,
      "hit": false,
      "t": 36642.920505208305,
      "d": 566.2124843750062,
      "v": 104
    },
    {
      "midi": 59,
      "hit": false,
      "t": 37224.60327604164,
      "d": 272.2770416666681,
      "v": 82
    },
    {
      "midi": 54,
      "hit": false,
      "t": 37530.914947916644,
      "d": 560.0243697916667,
      "v": 80
    },
    {
      "midi": 45,
      "hit": false,
      "t": 38115.69177604165,
      "d": 2240.097479166652,
      "v": 93
    },
    {
      "midi": 61,
      "hit": false,
      "t": 38409.62721874998,
      "d": 99.00983333332988,
      "v": 72
    },
    {
      "midi": 61,
      "hit": false,
      "t": 38703.56266145831,
      "d": 297.0294999999969,
      "v": 72
    },
    {
      "midi": 64,
      "hit": false,
      "t": 39006.78027604164,
      "d": 597.1530572916672,
      "v": 101
    },
    {
      "midi": 61,
      "hit": false,
      "t": 39600.83927604164,
      "d": 290.8413854166647,
      "v": 64
    },
    {
      "midi": 57,
      "hit": false,
      "t": 39900.9628333333,
      "d": 256.8067552083303,
      "v": 79
    },
    {
      "midi": 52,
      "hit": false,
      "t": 40197.9923333333,
      "d": 241.33646874999977,
      "v": 67
    },
    {
      "midi": 57,
      "hit": false,
      "t": 40491.92777604163,
      "d": 300.123557291663,
      "v": 108
    },
    {
      "midi": 45,
      "hit": false,
      "t": 40491.92777604163,
      "d": 1769.8007708333243,
      "v": 93
    },
    {
      "midi": 59,
      "hit": false,
      "t": 40788.95727604163,
      "d": 235.14835416666756,
      "v": 93
    },
    {
      "midi": 61,
      "hit": false,
      "t": 41082.89271874996,
      "d": 247.52458333333198,
      "v": 107
    },
    {
      "midi": 64,
      "hit": false,
      "t": 41376.82816145829,
      "d": 272.2770416666681,
      "v": 104
    },
    {
      "midi": 69,
      "hit": false,
      "t": 41680.045776041625,
      "d": 303.2176145833291,
      "v": 95
    },
    {
      "midi": 71,
      "hit": false,
      "t": 41973.981218749956,
      "d": 235.14835416666756,
      "v": 98
    },
    {
      "midi": 73,
      "hit": false,
      "t": 42271.01071874995,
      "d": 238.24241145833366,
      "v": 102
    },
    {
      "midi": 47,
      "hit": false,
      "t": 42277.198833333285,
      "d": 529.0837968749984,
      "v": 90
    },
    {
      "midi": 75,
      "hit": false,
      "t": 42568.04021874995,
      "d": 238.24241145833366,
      "v": 102
    },
    {
      "midi": 52,
      "hit": false,
      "t": 42871.25783333328,
      "d": 2301.9786250000034,
      "v": 90
    },
    {
      "midi": 56,
      "hit": false,
      "t": 43171.38139062494,
      "d": 259.9008124999964,
      "v": 50
    },
    {
      "midi": 59,
      "hit": false,
      "t": 43459.12871874994,
      "d": 324.8760156250064,
      "v": 88
    },
    {
      "midi": 64,
      "hit": false,
      "t": 43762.34633333328,
      "d": 739.4796927083371,
      "v": 98
    },
    {
      "midi": 64,
      "hit": false,
      "t": 44659.622947916614,
      "d": 272.2770416666681,
      "v": 82
    },
    {
      "midi": 59,
      "hit": false,
      "t": 44953.55839062495,
      "d": 290.8413854166647,
      "v": 82
    },
    {
      "midi": 54,
      "hit": false,
      "t": 45247.49383333328,
      "d": 1568.6870468749985,
      "v": 59
    },
    {
      "midi": 56,
      "hit": false,
      "t": 45535.24116145828,
      "d": 278.4651562500003,
      "v": 68
    },
    {
      "midi": 59,
      "hit": false,
      "t": 45838.45877604162,
      "d": 284.6532708333325,
      "v": 93
    },
    {
      "midi": 64,
      "hit": false,
      "t": 46132.39421874995,
      "d": 145.420692708336,
      "v": 93
    },
    {
      "midi": 64,
      "hit": false,
      "t": 46432.51777604162,
      "d": 272.2770416666681,
      "v": 88
    },
    {
      "midi": 59,
      "hit": false,
      "t": 46723.359161458284,
      "d": 293.9354427083308,
      "v": 86
    },
    {
      "midi": 54,
      "hit": false,
      "t": 47026.57677604161,
      "d": 541.4600260416628,
      "v": 83
    },
    {
      "midi": 52,
      "hit": false,
      "t": 47620.63577604161,
      "d": 1615.0979062499828,
      "v": 90
    },
    {
      "midi": 54,
      "hit": false,
      "t": 47911.47716145827,
      "d": 303.2176145833291,
      "v": 70
    },
    {
      "midi": 57,
      "hit": false,
      "t": 48205.4126041666,
      "d": 315.59384374999354,
      "v": 93
    },
    {
      "midi": 64,
      "hit": false,
      "t": 48502.4421041666,
      "d": 343.44035937499575,
      "v": 82
    },
    {
      "midi": 57,
      "hit": false,
      "t": 48805.65971874993,
      "d": 293.9354427083308,
      "v": 78
    },
    {
      "midi": 54,
      "hit": false,
      "t": 49102.689218749925,
      "d": 262.9948697916625,
      "v": 62
    },
    {
      "midi": 52,
      "hit": false,
      "t": 49402.81277604159,
      "d": 439.3561354166668,
      "v": 80
    },
    {
      "midi": 52,
      "hit": false,
      "t": 49993.77771874992,
      "d": 1197.4001718750078,
      "v": 82
    },
    {
      "midi": 56,
      "hit": false,
      "t": 50281.52504687492,
      "d": 321.7819583333403,
      "v": 75
    },
    {
      "midi": 59,
      "hit": false,
      "t": 50581.64860416659,
      "d": 340.3463020833369,
      "v": 101
    },
    {
      "midi": 64,
      "hit": false,
      "t": 50884.86621874993,
      "d": 337.2522447916708,
      "v": 98
    },
    {
      "midi": 47,
      "hit": false,
      "t": 51181.89571874993,
      "d": 1181.92988541667,
      "v": 98
    },
    {
      "midi": 63,
      "hit": false,
      "t": 51184.9897760416,
      "d": 297.0294999999969,
      "v": 78
    },
    {
      "midi": 59,
      "hit": false,
      "t": 51475.83116145826,
      "d": 331.06413020833133,
      "v": 78
    },
    {
      "midi": 54,
      "hit": false,
      "t": 51779.04877604159,
      "d": 513.6135104166751,
      "v": 70
    },
    {
      "midi": 52,
      "hit": false,
      "t": 52373.1077760416,
      "d": 1933.7858072916642,
      "v": 98
    },
    {
      "midi": 56,
      "hit": false,
      "t": 52663.949161458266,
      "d": 309.4057291666686,
      "v": 66
    },
    {
      "midi": 59,
      "hit": false,
      "t": 52967.1667760416,
      "d": 309.40572916666133,
      "v": 90
    },
    {
      "midi": 64,
      "hit": false,
      "t": 53261.10221874993,
      "d": 204.20778124999924,
      "v": 63
    },
    {
      "midi": 64,
      "hit": false,
      "t": 53558.13171874993,
      "d": 290.8413854166647,
      "v": 80
    },
    {
      "midi": 59,
      "hit": false,
      "t": 53848.973104166595,
      "d": 371.28687500000524,
      "v": 75
    },
    {
      "midi": 56,
      "hit": false,
      "t": 54158.37883333326,
      "d": 244.43052604166587,
      "v": 62
    },
    {
      "midi": 52,
      "hit": false,
      "t": 54452.314276041594,
      "d": 287.7473281249986,
      "v": 90
    },
    {
      "midi": 54,
      "hit": false,
      "t": 54758.62594791659,
      "d": 1618.1919635416707,
      "v": 83
    },
    {
      "midi": 59,
      "hit": false,
      "t": 55052.56139062492,
      "d": 157.7969218750004,
      "v": 78
    },
    {
      "midi": 59,
      "hit": false,
      "t": 55346.49683333325,
      "d": 331.0641302083386,
      "v": 95
    },
    {
      "midi": 66,
      "hit": false,
      "t": 55652.80850520825,
      "d": 566.2124843750062,
      "v": 104
    },
    {
      "midi": 59,
      "hit": false,
      "t": 56234.49127604159,
      "d": 272.2770416666681,
      "v": 82
    },
    {
      "midi": 54,
      "hit": false,
      "t": 56540.80294791659,
      "d": 560.0243697916667,
      "v": 80
    },
    {
      "midi": 45,
      "hit": false,
      "t": 57125.579776041595,
      "d": 2240.0974791666595,
      "v": 93
    },
    {
      "midi": 57,
      "hit": false,
      "t": 57422.60927604159,
      "d": 284.6532708333325,
      "v": 78
    },
    {
      "midi": 59,
      "hit": false,
      "t": 57716.54471874992,
      "d": 315.5938437500008,
      "v": 93
    },
    {
      "midi": 64,
      "hit": false,
      "t": 58035.23261979159,
      "d": 3592.2005156249943,
      "v": 93
    },
    {
      "midi": 64,
      "hit": false,
      "t": 99941.14457812492,
      "d": 244.43052604167315,
      "v": 74
    },
    {
      "midi": 49,
      "hit": false,
      "t": 99965.89703645826,
      "d": 2283.414281250036,
      "v": 77
    },
    {
      "midi": 71,
      "hit": false,
      "t": 100210.32756249992,
      "d": 238.24241145834094,
      "v": 78
    },
    {
      "midi": 56,
      "hit": false,
      "t": 100225.79784895826,
      "d": 275.37109895834874,
      "v": 77
    },
    {
      "midi": 76,
      "hit": false,
      "t": 100491.8867760416,
      "d": 126.85634895833209,
      "v": 90
    },
    {
      "midi": 61,
      "hit": false,
      "t": 100513.54517708327,
      "d": 290.841385416672,
      "v": 77
    },
    {
      "midi": 56,
      "hit": false,
      "t": 100785.82221874993,
      "d": 303.21761458335095,
      "v": 68
    },
    {
      "midi": 76,
      "hit": false,
      "t": 100795.10439062494,
      "d": 133.04446354167885,
      "v": 86
    },
    {
      "midi": 61,
      "hit": false,
      "t": 101079.75766145828,
      "d": 297.0295000000042,
      "v": 77
    },
    {
      "midi": 71,
      "hit": false,
      "t": 101355.12876041661,
      "d": 219.67806770832976,
      "v": 66
    },
    {
      "midi": 56,
      "hit": false,
      "t": 101361.31687499995,
      "d": 318.6879010416742,
      "v": 50
    },
    {
      "midi": 64,
      "hit": false,
      "t": 101670.72260416661,
      "d": 185.6434375000099,
      "v": 70
    },
    {
      "midi": 61,
      "hit": false,
      "t": 101689.28694791663,
      "d": 615.7174010416784,
      "v": 84
    },
    {
      "midi": 47,
      "hit": false,
      "t": 102270.96971874997,
      "d": 2326.731083333332,
      "v": 80
    },
    {
      "midi": 64,
      "hit": false,
      "t": 102277.1578333333,
      "d": 241.33646874999977,
      "v": 67
    },
    {
      "midi": 54,
      "hit": false,
      "t": 102552.52893229164,
      "d": 300.123557291663,
      "v": 65
    },
    {
      "midi": 71,
      "hit": false,
      "t": 102571.09327604163,
      "d": 241.33646874999977,
      "v": 73
    },
    {
      "midi": 59,
      "hit": false,
      "t": 102852.6524895833,
      "d": 287.7473281249986,
      "v": 78
    },
    {
      "midi": 76,
      "hit": false,
      "t": 102861.9346614583,
      "d": 126.85634895833209,
      "v": 84
    },
    {
      "midi": 54,
      "hit": false,
      "t": 103134.21170312497,
      "d": 349.6284739583207,
      "v": 65
    },
    {
      "midi": 76,
      "hit": false,
      "t": 103158.9641614583,
      "d": 139.2325781249965,
      "v": 82
    },
    {
      "midi": 59,
      "hit": false,
      "t": 103459.08771874996,
      "d": 300.12355729167757,
      "v": 83
    },
    {
      "midi": 54,
      "hit": false,
      "t": 103740.64693229162,
      "d": 343.4403593750176,
      "v": 58
    },
    {
      "midi": 71,
      "hit": false,
      "t": 103749.92910416663,
      "d": 210.39589583333873,
      "v": 82
    },
    {
      "midi": 64,
      "hit": false,
      "t": 104059.3348333333,
      "d": 170.1731510416721,
      "v": 74
    },
    {
      "midi": 59,
      "hit": false,
      "t": 104068.6170052083,
      "d": 532.1778541666718,
      "v": 85
    },
    {
      "midi": 45,
      "hit": false,
      "t": 104613.17108854164,
      "d": 2042.077812500036,
      "v": 83
    },
    {
      "midi": 64,
      "hit": false,
      "t": 104625.5473177083,
      "d": 222.77212500000314,
      "v": 74
    },
    {
      "midi": 52,
      "hit": false,
      "t": 104916.38870312498,
      "d": 306.31167187502433,
      "v": 67
    },
    {
      "midi": 71,
      "hit": false,
      "t": 104925.67087499998,
      "d": 216.58401041667094,
      "v": 75
    },
    {
      "midi": 57,
      "hit": false,
      "t": 105216.51226041665,
      "d": 290.841385416672,
      "v": 85
    },
    {
      "midi": 76,
      "hit": false,
      "t": 105219.60631770833,
      "d": 120.66823437499988,
      "v": 82
    },
    {
      "midi": 52,
      "hit": false,
      "t": 105498.07147395832,
      "d": 315.59384375001537,
      "v": 58
    },
    {
      "midi": 76,
      "hit": false,
      "t": 105516.63581770833,
      "d": 126.85634895833209,
      "v": 82
    },
    {
      "midi": 57,
      "hit": false,
      "t": 105810.57126041666,
      "d": 272.27704166667536,
      "v": 83
    },
    {
      "midi": 52,
      "hit": false,
      "t": 106092.13047395834,
      "d": 343.440359375003,
      "v": 65
    },
    {
      "midi": 71,
      "hit": false,
      "t": 106126.16510416668,
      "d": 207.30183854166535,
      "v": 77
    },
    {
      "midi": 64,
      "hit": false,
      "t": 106413.91243229168,
      "d": 207.30183854166535,
      "v": 71
    },
    {
      "midi": 57,
      "hit": false,
      "t": 106426.28866145834,
      "d": 686.880718750006,
      "v": 88
    },
    {
      "midi": 64,
      "hit": false,
      "t": 107023.44171875001,
      "d": 219.67806770834432,
      "v": 75
    },
    {
      "midi": 47,
      "hit": false,
      "t": 107029.62983333334,
      "d": 2261.7558802083513,
      "v": 88
    },
    {
      "midi": 71,
      "hit": false,
      "t": 107311.18904687502,
      "d": 244.4305260416586,
      "v": 73
    },
    {
      "midi": 52,
      "hit": false,
      "t": 107335.94150520835,
      "d": 284.6532708333252,
      "v": 64
    },
    {
      "midi": 76,
      "hit": false,
      "t": 107592.74826041667,
      "d": 120.66823437499988,
      "v": 90
    },
    {
      "midi": 57,
      "hit": false,
      "t": 107611.31260416667,
      "d": 275.3710989583342,
      "v": 85
    },
    {
      "midi": 76,
      "hit": false,
      "t": 107889.77776041668,
      "d": 86.63360416668002,
      "v": 95
    },
    {
      "midi": 52,
      "hit": false,
      "t": 107892.87181770835,
      "d": 340.3463020833442,
      "v": 63
    },
    {
      "midi": 57,
      "hit": false,
      "t": 108227.03000520836,
      "d": 1045.7913645833323,
      "v": 88
    },
    {
      "midi": 52,
      "hit": false,
      "t": 109405.86583333336,
      "d": 2301.9786250000034,
      "v": 90
    },
    {
      "midi": 56,
      "hit": false,
      "t": 109705.98939062504,
      "d": 259.9008124999964,
      "v": 50
    },
    {
      "midi": 59,
      "hit": false,
      "t": 109993.73671875003,
      "d": 324.8760156250064,
      "v": 88
    },
    {
      "midi": 64,
      "hit": false,
      "t": 110296.95433333337,
      "d": 739.4796927083371,
      "v": 98
    },
    {
      "midi": 64,
      "hit": false,
      "t": 111194.2309479167,
      "d": 272.2770416666608,
      "v": 82
    },
    {
      "midi": 59,
      "hit": false,
      "t": 111488.16639062503,
      "d": 290.841385416672,
      "v": 82
    },
    {
      "midi": 54,
      "hit": false,
      "t": 111782.10183333338,
      "d": 1568.687046874984,
      "v": 59
    },
    {
      "midi": 56,
      "hit": false,
      "t": 112069.84916145838,
      "d": 278.465156249993,
      "v": 68
    },
    {
      "midi": 59,
      "hit": false,
      "t": 112373.0667760417,
      "d": 284.6532708333398,
      "v": 93
    },
    {
      "midi": 64,
      "hit": false,
      "t": 112667.00221875004,
      "d": 145.42069270832872,
      "v": 93
    },
    {
      "midi": 64,
      "hit": false,
      "t": 112967.1257760417,
      "d": 272.2770416666608,
      "v": 88
    },
    {
      "midi": 59,
      "hit": false,
      "t": 113257.96716145836,
      "d": 293.9354427083308,
      "v": 86
    },
    {
      "midi": 54,
      "hit": false,
      "t": 113561.1847760417,
      "d": 541.4600260416628,
      "v": 83
    },
    {
      "midi": 52,
      "hit": false,
      "t": 114155.2437760417,
      "d": 1615.0979062500119,
      "v": 90
    },
    {
      "midi": 54,
      "hit": false,
      "t": 114446.08516145837,
      "d": 303.2176145833364,
      "v": 70
    },
    {
      "midi": 57,
      "hit": false,
      "t": 114740.0206041667,
      "d": 315.5938437500008,
      "v": 93
    },
    {
      "midi": 64,
      "hit": false,
      "t": 115037.0501041667,
      "d": 343.440359375003,
      "v": 82
    },
    {
      "midi": 57,
      "hit": false,
      "t": 115340.26771875004,
      "d": 293.9354427083308,
      "v": 78
    },
    {
      "midi": 54,
      "hit": false,
      "t": 115637.29721875004,
      "d": 262.99486979166977,
      "v": 62
    },
    {
      "midi": 52,
      "hit": false,
      "t": 115937.4207760417,
      "d": 439.3561354166595,
      "v": 80
    },
    {
      "midi": 52,
      "hit": false,
      "t": 116528.38571875003,
      "d": 1197.4001718749932,
      "v": 82
    },
    {
      "midi": 56,
      "hit": false,
      "t": 116816.13304687502,
      "d": 321.781958333333,
      "v": 75
    },
    {
      "midi": 59,
      "hit": false,
      "t": 117116.25660416669,
      "d": 340.34630208332965,
      "v": 101
    },
    {
      "midi": 64,
      "hit": false,
      "t": 117419.47421875002,
      "d": 337.25224479165627,
      "v": 98
    },
    {
      "midi": 47,
      "hit": false,
      "t": 117716.50371875001,
      "d": 1181.9298854166555,
      "v": 98
    },
    {
      "midi": 63,
      "hit": false,
      "t": 117719.59777604169,
      "d": 297.02949999998964,
      "v": 78
    },
    {
      "midi": 59,
      "hit": false,
      "t": 118010.43916145834,
      "d": 331.0641302083386,
      "v": 78
    },
    {
      "midi": 54,
      "hit": false,
      "t": 118313.65677604168,
      "d": 513.6135104166606,
      "v": 70
    },
    {
      "midi": 52,
      "hit": false,
      "t": 118907.71577604167,
      "d": 1933.7858072916715,
      "v": 98
    },
    {
      "midi": 56,
      "hit": false,
      "t": 119198.55716145833,
      "d": 309.4057291666686,
      "v": 66
    },
    {
      "midi": 59,
      "hit": false,
      "t": 119501.77477604167,
      "d": 309.4057291666686,
      "v": 90
    },
    {
      "midi": 64,
      "hit": false,
      "t": 119795.71021875,
      "d": 204.20778125000652,
      "v": 63
    },
    {
      "midi": 64,
      "hit": false,
      "t": 120092.73971875,
      "d": 290.841385416672,
      "v": 80
    },
    {
      "midi": 59,
      "hit": false,
      "t": 120383.58110416667,
      "d": 371.28687500000524,
      "v": 75
    },
    {
      "midi": 56,
      "hit": false,
      "t": 120692.98683333334,
      "d": 244.43052604167315,
      "v": 62
    },
    {
      "midi": 52,
      "hit": false,
      "t": 120986.92227604169,
      "d": 287.7473281249986,
      "v": 90
    },
    {
      "midi": 54,
      "hit": false,
      "t": 121293.23394791668,
      "d": 1618.1919635416707,
      "v": 83
    },
    {
      "midi": 59,
      "hit": false,
      "t": 121587.16939062503,
      "d": 157.79692187499313,
      "v": 78
    },
    {
      "midi": 59,
      "hit": false,
      "t": 121881.10483333336,
      "d": 331.06413020832406,
      "v": 95
    },
    {
      "midi": 64,
      "hit": false,
      "t": 122187.41650520836,
      "d": 566.2124843749916,
      "v": 104
    },
    {
      "midi": 59,
      "hit": false,
      "t": 122769.09927604168,
      "d": 272.27704166667536,
      "v": 82
    },
    {
      "midi": 54,
      "hit": false,
      "t": 123075.4109479167,
      "d": 560.0243697916594,
      "v": 80
    },
    {
      "midi": 45,
      "hit": false,
      "t": 123660.18777604168,
      "d": 2240.097479166652,
      "v": 93
    },
    {
      "midi": 52,
      "hit": false,
      "t": 123966.49944791668,
      "d": 278.465156249993,
      "v": 73
    },
    {
      "midi": 57,
      "hit": false,
      "t": 124260.43489062501,
      "d": 256.80675520833756,
      "v": 86
    },
    {
      "midi": 64,
      "hit": false,
      "t": 124554.37033333334,
      "d": 563.1184270833328,
      "v": 78
    },
    {
      "midi": 57,
      "hit": false,
      "t": 125132.95904687501,
      "d": 272.2770416666608,
      "v": 86
    },
    {
      "midi": 52,
      "hit": false,
      "t": 125429.988546875,
      "d": 426.9799062499951,
      "v": 78
    },
    {
      "midi": 61,
      "hit": false,
      "t": 126036.42377604167,
      "d": 201.11372395833314,
      "v": 56
    },
    {
      "midi": 45,
      "hit": false,
      "t": 126036.42377604167,
      "d": 1769.8007708333316,
      "v": 93
    },
    {
      "midi": 59,
      "hit": false,
      "t": 127202.883375,
      "d": 262.99486979166977,
      "v": 74
    },
    {
      "midi": 47,
      "hit": false,
      "t": 127821.69483333334,
      "d": 529.0837968749984,
      "v": 90
    },
    {
      "midi": 61,
      "hit": false,
      "t": 127834.0710625,
      "d": 114.48011979166768,
      "v": 66
    },
    {
      "midi": 52,
      "hit": false,
      "t": 128415.75383333335,
      "d": 2301.9786250000034,
      "v": 90
    },
    {
      "midi": 56,
      "hit": false,
      "t": 128715.87739062503,
      "d": 259.9008124999964,
      "v": 50
    },
    {
      "midi": 59,
      "hit": false,
      "t": 129003.62471875003,
      "d": 324.8760156250064,
      "v": 88
    },
    {
      "midi": 64,
      "hit": false,
      "t": 129306.84233333336,
      "d": 739.4796927083371,
      "v": 98
    },
    {
      "midi": 64,
      "hit": false,
      "t": 130204.1189479167,
      "d": 272.2770416666608,
      "v": 82
    },
    {
      "midi": 59,
      "hit": false,
      "t": 130498.05439062502,
      "d": 290.841385416672,
      "v": 82
    },
    {
      "midi": 54,
      "hit": false,
      "t": 130791.98983333337,
      "d": 1568.6870468749985,
      "v": 59
    },
    {
      "midi": 56,
      "hit": false,
      "t": 131079.73716145835,
      "d": 278.465156249993,
      "v": 68
    },
    {
      "midi": 59,
      "hit": false,
      "t": 131382.95477604168,
      "d": 284.6532708333398,
      "v": 93
    },
    {
      "midi": 64,
      "hit": false,
      "t": 131676.89021875002,
      "d": 145.42069270834327,
      "v": 93
    },
    {
      "midi": 64,
      "hit": false,
      "t": 131977.01377604168,
      "d": 272.27704166667536,
      "v": 88
    },
    {
      "midi": 59,
      "hit": false,
      "t": 132267.85516145837,
      "d": 293.93544270834536,
      "v": 86
    },
    {
      "midi": 54,
      "hit": false,
      "t": 132571.07277604172,
      "d": 541.4600260416628,
      "v": 83
    },
    {
      "midi": 52,
      "hit": false,
      "t": 133165.13177604173,
      "d": 1615.09790625007,
      "v": 90
    },
    {
      "midi": 54,
      "hit": false,
      "t": 133455.97316145842,
      "d": 303.21761458335095,
      "v": 70
    },
    {
      "midi": 57,
      "hit": false,
      "t": 133749.90860416676,
      "d": 315.59384375001537,
      "v": 93
    },
    {
      "midi": 64,
      "hit": false,
      "t": 134046.93810416677,
      "d": 343.44035937503213,
      "v": 82
    },
    {
      "midi": 57,
      "hit": false,
      "t": 134350.15571875012,
      "d": 293.93544270834536,
      "v": 78
    },
    {
      "midi": 54,
      "hit": false,
      "t": 134647.18521875012,
      "d": 262.99486979166977,
      "v": 62
    },
    {
      "midi": 52,
      "hit": false,
      "t": 134947.30877604178,
      "d": 439.3561354166595,
      "v": 80
    },
    {
      "midi": 52,
      "hit": false,
      "t": 135538.2737187501,
      "d": 1197.4001718750224,
      "v": 82
    },
    {
      "midi": 56,
      "hit": false,
      "t": 135826.0210468751,
      "d": 321.781958333333,
      "v": 75
    },
    {
      "midi": 59,
      "hit": false,
      "t": 136126.14460416677,
      "d": 340.3463020833442,
      "v": 101
    },
    {
      "midi": 64,
      "hit": false,
      "t": 136429.36221875012,
      "d": 337.25224479168537,
      "v": 98
    },
    {
      "midi": 48,
      "hit": false,
      "t": 136726.39171875012,
      "d": 1181.92988541667,
      "v": 98
    },
    {
      "midi": 60,
      "hit": false,
      "t": 136729.48577604178,
      "d": 297.0295000000333,
      "v": 78
    },
    {
      "midi": 56,
      "hit": false,
      "t": 137020.32716145847,
      "d": 331.0641302083386,
      "v": 78
    },
    {
      "midi": 54,
      "hit": false,
      "t": 137323.54477604182,
      "d": 513.613510416646,
      "v": 70
    },
    {
      "midi": 49,
      "hit": false,
      "t": 137917.6037760418,
      "d": 1661.5087656249816,
      "v": 98
    },
    {
      "midi": 56,
      "hit": false,
      "t": 138511.6627760418,
      "d": 309.4057291666686,
      "v": 90
    },
    {
      "midi": 61,
      "hit": false,
      "t": 138805.59821875015,
      "d": 204.20778124997742,
      "v": 63
    },
    {
      "midi": 61,
      "hit": false,
      "t": 139102.62771875013,
      "d": 290.84138541665743,
      "v": 80
    },
    {
      "midi": 56,
      "hit": false,
      "t": 139393.46910416678,
      "d": 371.2868749999907,
      "v": 75
    },
    {
      "midi": 49,
      "hit": false,
      "t": 139702.87483333345,
      "d": 244.4305260416586,
      "v": 84
    },
    {
      "midi": 44,
      "hit": false,
      "t": 140303.12194791678,
      "d": 1618.1919635416707,
      "v": 83
    },
    {
      "midi": 59,
      "hit": false,
      "t": 140572.30493229176,
      "d": 136.13852083333768,
      "v": 65
    },
    {
      "midi": 59,
      "hit": false,
      "t": 140844.58197395844,
      "d": 232.05429687499418,
      "v": 82
    },
    {
      "midi": 64,
      "hit": false,
      "t": 141169.45798958343,
      "d": 194.92560937500093,
      "v": 93
    },
    {
      "midi": 64,
      "hit": false,
      "t": 141772.79916145845,
      "d": 204.20778125000652,
      "v": 84
    },
    {
      "midi": 59,
      "hit": false,
      "t": 142088.39300520846,
      "d": 207.30183854166535,
      "v": 93
    },
    {
      "midi": 45,
      "hit": false,
      "t": 142670.0757760418,
      "d": 2240.097479166696,
      "v": 93
    },
    {
      "midi": 64,
      "hit": false,
      "t": 142976.38744791682,
      "d": 173.26720833333093,
      "v": 74
    },
    {
      "midi": 63,
      "hit": false,
      "t": 143270.32289062516,
      "d": 160.8909791666665,
      "v": 78
    },
    {
      "midi": 64,
      "hit": false,
      "t": 143554.9761614585,
      "d": 136.13852083333768,
      "v": 93
    },
    {
      "midi": 64,
      "hit": false,
      "t": 144130.4708177085,
      "d": 170.1731510416721,
      "v": 104
    },
    {
      "midi": 63,
      "hit": false,
      "t": 144439.87654687517,
      "d": 145.42069270834327,
      "v": 98
    },
    {
      "midi": 64,
      "hit": false,
      "t": 144736.90604687517,
      "d": 306.3116718749807,
      "v": 104
    },
    {
      "midi": 64,
      "hit": false,
      "t": 145318.58881770849,
      "d": 213.4899531250121,
      "v": 93
    },
    {
      "midi": 63,
      "hit": false,
      "t": 145609.43020312517,
      "d": 194.92560937500093,
      "v": 70
    },
    {
      "midi": 64,
      "hit": false,
      "t": 145915.74187500018,
      "d": 445.5442500000063,
      "v": 95
    },
    {
      "midi": 63,
      "hit": false,
      "t": 146512.89493229185,
      "d": 247.52458333334653,
      "v": 90
    },
    {
      "midi": 61,
      "hit": false,
      "t": 146825.3947187502,
      "d": 349.6284739583207,
      "v": 98
    },
    {
      "midi": 64,
      "hit": false,
      "t": 175940.47383333335,
      "d": 1178.8358281250112,
      "v": 1
    },
    {
      "midi": 68,
      "hit": false,
      "t": 175940.47383333335,
      "d": 1178.8358281250112,
      "v": 1
    },
    {
      "midi": 63,
      "hit": false,
      "t": 177128.59183333337,
      "d": 584.7768281250028,
      "v": 1
    },
    {
      "midi": 66,
      "hit": false,
      "t": 177128.59183333337,
      "d": 584.7768281250028,
      "v": 1
    },
    {
      "midi": 61,
      "hit": false,
      "t": 177722.65083333338,
      "d": 584.7768281250028,
      "v": 1
    },
    {
      "midi": 64,
      "hit": false,
      "t": 177722.65083333338,
      "d": 584.7768281250028,
      "v": 1
    },
    {
      "midi": 59,
      "hit": false,
      "t": 178316.70983333339,
      "d": 584.7768281250028,
      "v": 1
    },
    {
      "midi": 63,
      "hit": false,
      "t": 178316.70983333339,
      "d": 584.7768281250028,
      "v": 1
    },
    {
      "midi": 49,
      "hit": false,
      "t": 185445.41783333354,
      "d": 2370.0478854166868,
      "v": 60
    },
    {
      "midi": 56,
      "hit": false,
      "t": 185742.44733333355,
      "d": 2073.0183854166826,
      "v": 58
    },
    {
      "midi": 61,
      "hit": false,
      "t": 186042.5708906252,
      "d": 1772.8948281250196,
      "v": 73
    },
    {
      "midi": 47,
      "hit": false,
      "t": 187806.18354687523,
      "d": 2385.51817187501,
      "v": 58
    },
    {
      "midi": 54,
      "hit": false,
      "t": 188106.3071041669,
      "d": 2085.394614583347,
      "v": 58
    },
    {
      "midi": 59,
      "hit": false,
      "t": 188412.6187760419,
      "d": 1779.0829427083372,
      "v": 54
    },
    {
      "midi": 45,
      "hit": false,
      "t": 190204.0779479169,
      "d": 2237.003421875008,
      "v": 64
    },
    {
      "midi": 52,
      "hit": false,
      "t": 190498.01339062524,
      "d": 2069.9243281249946,
      "v": 56
    },
    {
      "midi": 57,
      "hit": false,
      "t": 190798.1369479169,
      "d": 1769.8007708333316,
      "v": 57
    },
    {
      "midi": 45,
      "hit": false,
      "t": 192571.0317760419,
      "d": 1185.0239427083288,
      "v": 56
    },
    {
      "midi": 52,
      "hit": false,
      "t": 192864.96721875024,
      "d": 891.0884999999835,
      "v": 60
    },
    {
      "midi": 57,
      "hit": false,
      "t": 193165.0907760419,
      "d": 590.9649427083205,
      "v": 50
    },
    {
      "midi": 47,
      "hit": false,
      "t": 193762.24383333357,
      "d": 1181.92988541667,
      "v": 67
    },
    {
      "midi": 54,
      "hit": false,
      "t": 194056.17927604192,
      "d": 887.9944427083246,
      "v": 56
    },
    {
      "midi": 59,
      "hit": false,
      "t": 194353.20877604192,
      "d": 590.9649427083205,
      "v": 56
    },
    {
      "midi": 49,
      "hit": false,
      "t": 194956.5499479169,
      "d": 2363.85977083334,
      "v": 56
    },
    {
      "midi": 56,
      "hit": false,
      "t": 195253.5794479169,
      "d": 2066.830270833336,
      "v": 58
    },
    {
      "midi": 61,
      "hit": false,
      "t": 195550.60894791692,
      "d": 1769.8007708333316,
      "v": 56
    },
    {
      "midi": 47,
      "hit": false,
      "t": 197317.3156614586,
      "d": 2379.3300572916633,
      "v": 70
    },
    {
      "midi": 54,
      "hit": false,
      "t": 197608.15704687525,
      "d": 2088.488671875006,
      "v": 52
    },
    {
      "midi": 59,
      "hit": false,
      "t": 197914.46871875026,
      "d": 1782.176999999996,
      "v": 55
    },
    {
      "midi": 45,
      "hit": false,
      "t": 199702.8338333336,
      "d": 2370.0478854166577,
      "v": 60
    },
    {
      "midi": 52,
      "hit": false,
      "t": 199996.76927604194,
      "d": 2076.1124427083123,
      "v": 68
    },
    {
      "midi": 57,
      "hit": false,
      "t": 200299.98689062527,
      "d": 1772.8948281249905,
      "v": 58
    },
    {
      "midi": 44,
      "hit": false,
      "t": 202079.0698333336,
      "d": 1011.7567343749979,
      "v": 80
    },
    {
      "midi": 44,
      "hit": false,
      "t": 203257.90566145862,
      "d": 1033.415135416668,
      "v": 92
    },
    {
      "midi": 65,
      "hit": false,
      "t": 214554.3088333334,
      "d": 584.7768281250028,
      "v": 1
    },
    {
      "midi": 68,
      "hit": false,
      "t": 214554.3088333334,
      "d": 584.7768281250028,
      "v": 1
    },
    {
      "midi": 63,
      "hit": false,
      "t": 215148.3678333334,
      "d": 584.7768281250028,
      "v": 1
    },
    {
      "midi": 67,
      "hit": false,
      "t": 215148.3678333334,
      "d": 584.7768281250028,
      "v": 1
    },
    {
      "midi": 60,
      "hit": false,
      "t": 215742.42683333342,
      "d": 287.7473281249986,
      "v": 1
    },
    {
      "midi": 65,
      "hit": false,
      "t": 215742.42683333342,
      "d": 287.7473281249986,
      "v": 1
    },
    {
      "midi": 56,
      "hit": false,
      "t": 216039.45633333342,
      "d": 881.806328125007,
      "v": 1
    },
    {
      "midi": 63,
      "hit": false,
      "t": 216039.45633333342,
      "d": 881.806328125007,
      "v": 1
    },
    {
      "midi": 58,
      "hit": false,
      "t": 216930.54483333344,
      "d": 584.7768281250028,
      "v": 1
    },
    {
      "midi": 65,
      "hit": false,
      "t": 216930.54483333344,
      "d": 584.7768281250028,
      "v": 1
    },
    {
      "midi": 56,
      "hit": false,
      "t": 223465.19383333344,
      "d": 2366.953828124999,
      "v": 1
    },
    {
      "midi": 65,
      "hit": false,
      "t": 223465.19383333344,
      "d": 2366.953828124999,
      "v": 1
    },
    {
      "midi": 58,
      "hit": false,
      "t": 225841.42983333344,
      "d": 1772.8948281249905,
      "v": 1
    },
    {
      "midi": 67,
      "hit": false,
      "t": 225841.42983333344,
      "d": 1772.8948281249905,
      "v": 1
    },
    {
      "midi": 56,
      "hit": false,
      "t": 231782.01983333344,
      "d": 584.7768281250028,
      "v": 1
    },
    {
      "midi": 68,
      "hit": false,
      "t": 231782.01983333344,
      "d": 584.7768281250028,
      "v": 1
    },
    {
      "midi": 58,
      "hit": false,
      "t": 232376.07883333345,
      "d": 584.7768281250028,
      "v": 1
    },
    {
      "midi": 70,
      "hit": false,
      "t": 232376.07883333345,
      "d": 584.7768281250028,
      "v": 1
    },
    {
      "midi": 56,
      "hit": false,
      "t": 232970.13783333346,
      "d": 584.7768281250028,
      "v": 1
    },
    {
      "midi": 68,
      "hit": false,
      "t": 232970.13783333346,
      "d": 584.7768281250028,
      "v": 1
    },
    {
      "midi": 65,
      "hit": false,
      "t": 233564.19683333347,
      "d": 584.7768281250028,
      "v": 1
    },
    {
      "midi": 68,
      "hit": false,
      "t": 233564.19683333347,
      "d": 584.7768281250028,
      "v": 1
    },
    {
      "midi": 63,
      "hit": false,
      "t": 234158.25583333347,
      "d": 584.7768281250028,
      "v": 1
    },
    {
      "midi": 67,
      "hit": false,
      "t": 234158.25583333347,
      "d": 584.7768281250028,
      "v": 1
    },
    {
      "midi": 60,
      "hit": false,
      "t": 234752.31483333348,
      "d": 584.7768281250028,
      "v": 1
    },
    {
      "midi": 65,
      "hit": false,
      "t": 234752.31483333348,
      "d": 584.7768281250028,
      "v": 1
    },
    {
      "midi": 58,
      "hit": false,
      "t": 235346.3738333335,
      "d": 2366.953828124999,
      "v": 1
    },
    {
      "midi": 63,
      "hit": false,
      "t": 235346.3738333335,
      "d": 2366.953828124999,
      "v": 1
    },
    {
      "midi": 60,
      "hit": false,
      "t": 242775.20539062528,
      "d": 262.99486979166977,
      "v": 86
    },
    {
      "midi": 56,
      "hit": false,
      "t": 243069.14083333363,
      "d": 303.21761458335095,
      "v": 70
    },
    {
      "midi": 63,
      "hit": false,
      "t": 243366.17033333363,
      "d": 1500.6177864583442,
      "v": 87
    },
    {
      "midi": 58,
      "hit": false,
      "t": 245148.34733333366,
      "d": 284.6532708333398,
      "v": 72
    },
    {
      "midi": 55,
      "hit": false,
      "t": 245445.37683333366,
      "d": 290.84138541665743,
      "v": 80
    },
    {
      "midi": 63,
      "hit": false,
      "t": 245742.40633333367,
      "d": 1392.3257812499942,
      "v": 90
    },
    {
      "midi": 41,
      "hit": false,
      "t": 247202.80137500033,
      "d": 2376.2360000000335,
      "v": 60
    },
    {
      "midi": 61,
      "hit": false,
      "t": 247527.67739062532,
      "d": 287.7473281249986,
      "v": 78
    },
    {
      "midi": 53,
      "hit": false,
      "t": 247821.61283333367,
      "d": 281.55921354168095,
      "v": 77
    },
    {
      "midi": 63,
      "hit": false,
      "t": 248115.548276042,
      "d": 538.365968750004,
      "v": 90
    },
    {
      "midi": 61,
      "hit": false,
      "t": 248706.51321875036,
      "d": 284.6532708333398,
      "v": 83
    },
    {
      "midi": 53,
      "hit": false,
      "t": 249003.54271875037,
      "d": 578.588713541656,
      "v": 84
    },
    {
      "midi": 43,
      "hit": false,
      "t": 249582.13143229202,
      "d": 2345.2954270832997,
      "v": 67
    },
    {
      "midi": 55,
      "hit": false,
      "t": 249597.60171875035,
      "d": 346.53441666666185,
      "v": 61
    },
    {
      "midi": 58,
      "hit": false,
      "t": 249897.725276042,
      "d": 324.87601562499185,
      "v": 70
    },
    {
      "midi": 61,
      "hit": false,
      "t": 250194.754776042,
      "d": 297.0294999999751,
      "v": 70
    },
    {
      "midi": 63,
      "hit": false,
      "t": 250491.784276042,
      "d": 306.3116718750098,
      "v": 66
    },
    {
      "midi": 67,
      "hit": false,
      "t": 250788.813776042,
      "d": 293.93544270834536,
      "v": 64
    },
    {
      "midi": 68,
      "hit": false,
      "t": 251085.843276042,
      "d": 334.15818749999744,
      "v": 75
    },
    {
      "midi": 70,
      "hit": false,
      "t": 251389.06089062532,
      "d": 538.365968750004,
      "v": 75
    },
    {
      "midi": 44,
      "hit": false,
      "t": 251952.17931770865,
      "d": 4798.8828593749495,
      "v": 70
    },
    {
      "midi": 60,
      "hit": false,
      "t": 252280.14939062533,
      "d": 284.6532708333398,
      "v": 70
    },
    {
      "midi": 56,
      "hit": false,
      "t": 252577.17889062534,
      "d": 262.99486979166977,
      "v": 68
    },
    {
      "midi": 63,
      "hit": false,
      "t": 252874.20839062534,
      "d": 538.365968750004,
      "v": 78
    },
    {
      "midi": 60,
      "hit": false,
      "t": 253462.079276042,
      "d": 315.59384374998626,
      "v": 95
    },
    {
      "midi": 56,
      "hit": false,
      "t": 253762.20283333366,
      "d": 590.9649427083205,
      "v": 72
    },
    {
      "midi": 58,
      "hit": false,
      "t": 254653.29133333365,
      "d": 297.0295000000042,
      "v": 78
    },
    {
      "midi": 55,
      "hit": false,
      "t": 254953.4148906253,
      "d": 266.0889270833286,
      "v": 71
    },
    {
      "midi": 63,
      "hit": false,
      "t": 255247.35033333363,
      "d": 541.4600260416628,
      "v": 70
    },
    {
      "midi": 58,
      "hit": false,
      "t": 255838.31527604195,
      "d": 315.59384374998626,
      "v": 75
    },
    {
      "midi": 55,
      "hit": false,
      "t": 256141.53289062527,
      "d": 473.39076562499395,
      "v": 74
    },
    {
      "midi": 41,
      "hit": false,
      "t": 256732.4978333336,
      "d": 4808.165031249926,
      "v": 59
    },
    {
      "midi": 61,
      "hit": false,
      "t": 257029.5273333336,
      "d": 284.6532708333398,
      "v": 60
    },
    {
      "midi": 53,
      "hit": false,
      "t": 257326.5568333336,
      "d": 290.84138541665743,
      "v": 80
    },
    {
      "midi": 63,
      "hit": false,
      "t": 257626.68039062526,
      "d": 3818.066697916569,
      "v": 83
    }
  ]
}