{
  "jsonPath": "World/Canadian Pop/Céline Dion/where-does-my-heart-beat-now.json",
  "path": "World\\Canadian Pop\\Céline Dion\\Where Does My Heart Beat Now.mid",
  "name": "Where Does My Heart Beat Now",
  "difficulty": "Advanced",
  "bpm": 113.00030886751091,
  "notes": [
    {
      "midi": 82,
      "hit": false,
      "t": 37228.8865,
      "d": 289.15639999999985,
      "v": 80
    },
    {
      "midi": 81,
      "hit": false,
      "t": 37590.332,
      "d": 289.15639999999985,
      "v": 80
    },
    {
      "midi": 77,
      "hit": false,
      "t": 37951.777500000004,
      "d": 578.3127999999997,
      "v": 80
    },
    {
      "midi": 94,
      "hit": false,
      "t": 38674.66850000001,
      "d": 289.15639999999985,
      "v": 40
    },
    {
      "midi": 93,
      "hit": false,
      "t": 39036.11400000001,
      "d": 289.15639999999985,
      "v": 40
    },
    {
      "midi": 89,
      "hit": false,
      "t": 39397.55950000001,
      "d": 867.4691999999995,
      "v": 40
    },
    {
      "midi": 77,
      "hit": false,
      "t": 41927.67800000001,
      "d": 289.15639999999985,
      "v": 80
    },
    {
      "midi": 75,
      "hit": false,
      "t": 42289.12350000001,
      "d": 433.7346000000034,
      "v": 80
    },
    {
      "midi": 78,
      "hit": false,
      "t": 42831.29175000001,
      "d": 144.57820000000356,
      "v": 80
    },
    {
      "midi": 78,
      "hit": false,
      "t": 43012.01450000001,
      "d": 144.57820000000356,
      "v": 80
    },
    {
      "midi": 77,
      "hit": false,
      "t": 43192.73725000001,
      "d": 144.57820000000356,
      "v": 80
    },
    {
      "midi": 77,
      "hit": false,
      "t": 43373.460000000014,
      "d": 1156.6255999999994,
      "v": 80
    },
    {
      "midi": 74,
      "hit": false,
      "t": 47349.360499999995,
      "d": 4120.4787,
      "v": 80
    },
    {
      "midi": 84,
      "hit": false,
      "t": 49156.58800000001,
      "d": 289.15639999999985,
      "v": 80
    },
    {
      "midi": 86,
      "hit": false,
      "t": 49518.03350000001,
      "d": 578.3127999999997,
      "v": 80
    },
    {
      "midi": 58,
      "hit": false,
      "t": 52048.151999999995,
      "d": 5204.815199999997,
      "v": 80
    },
    {
      "midi": 62,
      "hit": false,
      "t": 52048.151999999995,
      "d": 5204.815199999997,
      "v": 80
    },
    {
      "midi": 69,
      "hit": false,
      "t": 52048.151999999995,
      "d": 5204.815199999997,
      "v": 80
    },
    {
      "midi": 70,
      "hit": false,
      "t": 53132.48849999999,
      "d": 4120.4787,
      "v": 80
    },
    {
      "midi": 82,
      "hit": false,
      "t": 54578.27050000001,
      "d": 144.57820000000356,
      "v": 80
    },
    {
      "midi": 81,
      "hit": false,
      "t": 54758.993250000014,
      "d": 144.57820000000356,
      "v": 80
    },
    {
      "midi": 77,
      "hit": false,
      "t": 54939.716000000015,
      "d": 867.4691999999995,
      "v": 80
    },
    {
      "midi": 55,
      "hit": false,
      "t": 57831.27999999999,
      "d": 5204.815199999997,
      "v": 80
    },
    {
      "midi": 58,
      "hit": false,
      "t": 57831.27999999999,
      "d": 5204.815199999997,
      "v": 80
    },
    {
      "midi": 65,
      "hit": false,
      "t": 57831.27999999999,
      "d": 5204.815199999997,
      "v": 80
    },
    {
      "midi": 67,
      "hit": false,
      "t": 58915.61649999999,
      "d": 4120.4787,
      "v": 80
    },
    {
      "midi": 77,
      "hit": false,
      "t": 60722.84400000001,
      "d": 289.15639999999985,
      "v": 80
    },
    {
      "midi": 79,
      "hit": false,
      "t": 61084.28950000001,
      "d": 578.3127999999997,
      "v": 80
    },
    {
      "midi": 63,
      "hit": false,
      "t": 63614.40799999999,
      "d": 180.72275000000081,
      "v": 80
    },
    {
      "midi": 60,
      "hit": false,
      "t": 63614.40799999999,
      "d": 5204.81519999999,
      "v": 80
    },
    {
      "midi": 67,
      "hit": false,
      "t": 63614.40799999999,
      "d": 5204.81519999999,
      "v": 80
    },
    {
      "midi": 74,
      "hit": false,
      "t": 64698.744499999986,
      "d": 4120.478699999992,
      "v": 80
    },
    {
      "midi": 65,
      "hit": false,
      "t": 66505.97200000001,
      "d": 867.4692000000068,
      "v": 80
    },
    {
      "midi": 67,
      "hit": false,
      "t": 67590.30850000001,
      "d": 289.1564000000071,
      "v": 80
    },
    {
      "midi": 65,
      "hit": false,
      "t": 67951.75400000002,
      "d": 578.3127999999997,
      "v": 80
    },
    {
      "midi": 72,
      "hit": false,
      "t": 69397.53599999998,
      "d": 867.4692000000068,
      "v": 80
    },
    {
      "midi": 72,
      "hit": false,
      "t": 70481.87249999998,
      "d": 4120.478699999992,
      "v": 80
    },
    {
      "midi": 74,
      "hit": false,
      "t": 70481.87249999998,
      "d": 4120.478699999992,
      "v": 80
    },
    {
      "midi": 82,
      "hit": false,
      "t": 71204.76350000002,
      "d": 578.3127999999997,
      "v": 80
    },
    {
      "midi": 81,
      "hit": false,
      "t": 71927.65450000002,
      "d": 289.1564000000071,
      "v": 80
    },
    {
      "midi": 77,
      "hit": false,
      "t": 72289.10000000002,
      "d": 867.4692000000068,
      "v": 80
    },
    {
      "midi": 58,
      "hit": false,
      "t": 75180.66399999998,
      "d": 5204.815199999997,
      "v": 80
    },
    {
      "midi": 62,
      "hit": false,
      "t": 75180.66399999998,
      "d": 5204.815199999997,
      "v": 80
    },
    {
      "midi": 69,
      "hit": false,
      "t": 75180.66399999998,
      "d": 5204.815199999997,
      "v": 80
    },
    {
      "midi": 70,
      "hit": false,
      "t": 76265.00049999998,
      "d": 4120.478699999992,
      "v": 80
    },
    {
      "midi": 84,
      "hit": false,
      "t": 77710.78250000003,
      "d": 144.57820000000356,
      "v": 80
    },
    {
      "midi": 86,
      "hit": false,
      "t": 77891.50525000003,
      "d": 144.57820000000356,
      "v": 80
    },
    {
      "midi": 79,
      "hit": false,
      "t": 78072.22800000003,
      "d": 867.4692000000068,
      "v": 80
    },
    {
      "midi": 55,
      "hit": false,
      "t": 80963.79199999997,
      "d": 5204.815199999997,
      "v": 80
    },
    {
      "midi": 58,
      "hit": false,
      "t": 80963.79199999997,
      "d": 5204.815199999997,
      "v": 80
    },
    {
      "midi": 65,
      "hit": false,
      "t": 80963.79199999997,
      "d": 5204.815199999997,
      "v": 80
    },
    {
      "midi": 67,
      "hit": false,
      "t": 82048.12849999998,
      "d": 4120.478699999992,
      "v": 80
    },
    {
      "midi": 79,
      "hit": false,
      "t": 83493.91050000004,
      "d": 289.1564000000071,
      "v": 80
    },
    {
      "midi": 79,
      "hit": false,
      "t": 84216.80150000005,
      "d": 867.4692000000068,
      "v": 80
    },
    {
      "midi": 60,
      "hit": false,
      "t": 86746.91999999997,
      "d": 2313.251199999999,
      "v": 80
    },
    {
      "midi": 63,
      "hit": false,
      "t": 86746.91999999997,
      "d": 2313.251199999999,
      "v": 80
    },
    {
      "midi": 67,
      "hit": false,
      "t": 86746.91999999997,
      "d": 2313.251199999999,
      "v": 80
    },
    {
      "midi": 74,
      "hit": false,
      "t": 87831.25649999997,
      "d": 1734.938399999999,
      "v": 80
    },
    {
      "midi": 77,
      "hit": false,
      "t": 89277.03850000005,
      "d": 289.1564000000071,
      "v": 80
    },
    {
      "midi": 65,
      "hit": false,
      "t": 89638.48399999997,
      "d": 2313.251199999999,
      "v": 80
    },
    {
      "midi": 69,
      "hit": false,
      "t": 89638.48399999997,
      "d": 2313.251199999999,
      "v": 80
    },
    {
      "midi": 65,
      "hit": false,
      "t": 89638.48400000005,
      "d": 289.1564000000071,
      "v": 80
    },
    {
      "midi": 67,
      "hit": false,
      "t": 89999.92950000006,
      "d": 289.1564000000071,
      "v": 40
    },
    {
      "midi": 69,
      "hit": false,
      "t": 90361.37500000006,
      "d": 289.1564000000071,
      "v": 40
    },
    {
      "midi": 70,
      "hit": false,
      "t": 90722.82050000006,
      "d": 289.1564000000071,
      "v": 40
    },
    {
      "midi": 77,
      "hit": false,
      "t": 91084.26600000006,
      "d": 578.3127999999997,
      "v": 80
    },
    {
      "midi": 70,
      "hit": false,
      "t": 92530.04800000007,
      "d": 1156.6255999999994,
      "v": 80
    },
    {
      "midi": 74,
      "hit": false,
      "t": 92530.04800000007,
      "d": 1156.6255999999994,
      "v": 80
    },
    {
      "midi": 77,
      "hit": false,
      "t": 92530.04800000007,
      "d": 1156.6255999999994,
      "v": 80
    },
    {
      "midi": 70,
      "hit": false,
      "t": 93975.83000000007,
      "d": 578.3127999999997,
      "v": 80
    },
    {
      "midi": 74,
      "hit": false,
      "t": 93975.83000000007,
      "d": 578.3127999999997,
      "v": 80
    },
    {
      "midi": 77,
      "hit": false,
      "t": 93975.83000000007,
      "d": 578.3127999999997,
      "v": 80
    },
    {
      "midi": 65,
      "hit": false,
      "t": 94698.72100000008,
      "d": 578.3127999999997,
      "v": 80
    },
    {
      "midi": 70,
      "hit": false,
      "t": 94698.72100000008,
      "d": 578.3127999999997,
      "v": 80
    },
    {
      "midi": 74,
      "hit": false,
      "t": 94698.72100000008,
      "d": 578.3127999999997,
      "v": 80
    },
    {
      "midi": 62,
      "hit": false,
      "t": 95421.61200000008,
      "d": 1012.0473999999958,
      "v": 80
    },
    {
      "midi": 67,
      "hit": false,
      "t": 95421.61200000008,
      "d": 1012.0473999999958,
      "v": 80
    },
    {
      "midi": 70,
      "hit": false,
      "t": 95421.61200000008,
      "d": 1012.0473999999958,
      "v": 80
    },
    {
      "midi": 77,
      "hit": false,
      "t": 96505.94850000007,
      "d": 289.1564000000071,
      "v": 80
    },
    {
      "midi": 62,
      "hit": false,
      "t": 96867.39400000007,
      "d": 289.1564000000071,
      "v": 80
    },
    {
      "midi": 67,
      "hit": false,
      "t": 96867.39400000007,
      "d": 289.1564000000071,
      "v": 80
    },
    {
      "midi": 70,
      "hit": false,
      "t": 96867.39400000007,
      "d": 289.1564000000071,
      "v": 80
    },
    {
      "midi": 72,
      "hit": false,
      "t": 97228.83950000007,
      "d": 289.1564000000071,
      "v": 80
    },
    {
      "midi": 67,
      "hit": false,
      "t": 97590.28500000008,
      "d": 578.3127999999997,
      "v": 80
    },
    {
      "midi": 70,
      "hit": false,
      "t": 97590.28500000008,
      "d": 578.3127999999997,
      "v": 80
    },
    {
      "midi": 74,
      "hit": false,
      "t": 97590.28500000008,
      "d": 578.3127999999997,
      "v": 80
    },
    {
      "midi": 63,
      "hit": false,
      "t": 98313.17600000008,
      "d": 2313.251199999999,
      "v": 80
    },
    {
      "midi": 67,
      "hit": false,
      "t": 98313.17600000008,
      "d": 2313.251199999999,
      "v": 80
    },
    {
      "midi": 70,
      "hit": false,
      "t": 98313.17600000008,
      "d": 2313.251199999999,
      "v": 80
    },
    {
      "midi": 65,
      "hit": false,
      "t": 101204.74000000008,
      "d": 867.4692000000068,
      "v": 80
    },
    {
      "midi": 69,
      "hit": false,
      "t": 101204.74000000008,
      "d": 867.4692000000068,
      "v": 80
    },
    {
      "midi": 74,
      "hit": false,
      "t": 101204.74000000008,
      "d": 867.4692000000068,
      "v": 80
    },
    {
      "midi": 65,
      "hit": false,
      "t": 102289.07650000008,
      "d": 578.3127999999997,
      "v": 80
    },
    {
      "midi": 69,
      "hit": false,
      "t": 102289.07650000008,
      "d": 578.3127999999997,
      "v": 80
    },
    {
      "midi": 74,
      "hit": false,
      "t": 102289.07650000008,
      "d": 578.3127999999997,
      "v": 80
    },
    {
      "midi": 65,
      "hit": false,
      "t": 103011.96750000009,
      "d": 578.3127999999997,
      "v": 80
    },
    {
      "midi": 69,
      "hit": false,
      "t": 103011.96750000009,
      "d": 578.3127999999997,
      "v": 80
    },
    {
      "midi": 72,
      "hit": false,
      "t": 103011.96750000009,
      "d": 578.3127999999997,
      "v": 80
    },
    {
      "midi": 70,
      "hit": false,
      "t": 103734.85850000009,
      "d": 939.7583000000013,
      "v": 80
    },
    {
      "midi": 74,
      "hit": false,
      "t": 103734.85850000009,
      "d": 939.7583000000013,
      "v": 80
    },
    {
      "midi": 77,
      "hit": false,
      "t": 103734.85850000009,
      "d": 939.7583000000013,
      "v": 80
    },
    {
      "midi": 70,
      "hit": false,
      "t": 105180.6405000001,
      "d": 289.1564000000071,
      "v": 80
    },
    {
      "midi": 74,
      "hit": false,
      "t": 105180.6405000001,
      "d": 289.1564000000071,
      "v": 80
    },
    {
      "midi": 70,
      "hit": false,
      "t": 105542.0860000001,
      "d": 289.1564000000071,
      "v": 80
    },
    {
      "midi": 72,
      "hit": false,
      "t": 105903.5315000001,
      "d": 289.1564000000071,
      "v": 80
    },
    {
      "midi": 70,
      "hit": false,
      "t": 106264.9770000001,
      "d": 180.72275000000081,
      "v": 80
    },
    {
      "midi": 74,
      "hit": false,
      "t": 106264.9770000001,
      "d": 180.72275000000081,
      "v": 80
    },
    {
      "midi": 77,
      "hit": false,
      "t": 106264.9770000001,
      "d": 939.7583000000013,
      "v": 80
    },
    {
      "midi": 70,
      "hit": false,
      "t": 106987.8680000001,
      "d": 216.86729999999807,
      "v": 80
    },
    {
      "midi": 74,
      "hit": false,
      "t": 106987.8680000001,
      "d": 216.86729999999807,
      "v": 80
    },
    {
      "midi": 67,
      "hit": false,
      "t": 106987.8680000001,
      "d": 867.4691999999923,
      "v": 80
    },
    {
      "midi": 67,
      "hit": false,
      "t": 108072.2045000001,
      "d": 289.1564000000071,
      "v": 80
    },
    {
      "midi": 67,
      "hit": false,
      "t": 108433.6500000001,
      "d": 1156.6255999999994,
      "v": 80
    },
    {
      "midi": 70,
      "hit": false,
      "t": 108433.6500000001,
      "d": 1156.6255999999994,
      "v": 80
    },
    {
      "midi": 74,
      "hit": false,
      "t": 108433.6500000001,
      "d": 1156.6255999999994,
      "v": 80
    },
    {
      "midi": 63,
      "hit": false,
      "t": 109879.4320000001,
      "d": 867.4692000000068,
      "v": 80
    },
    {
      "midi": 67,
      "hit": false,
      "t": 109879.4320000001,
      "d": 867.4692000000068,
      "v": 80
    },
    {
      "midi": 70,
      "hit": false,
      "t": 109879.4320000001,
      "d": 867.4692000000068,
      "v": 80
    },
    {
      "midi": 63,
      "hit": false,
      "t": 110963.76850000011,
      "d": 867.4692000000068,
      "v": 80
    },
    {
      "midi": 67,
      "hit": false,
      "t": 110963.76850000011,
      "d": 867.4692000000068,
      "v": 80
    },
    {
      "midi": 70,
      "hit": false,
      "t": 110963.76850000011,
      "d": 867.4692000000068,
      "v": 80
    },
    {
      "midi": 63,
      "hit": false,
      "t": 112048.10500000011,
      "d": 578.3127999999997,
      "v": 80
    },
    {
      "midi": 67,
      "hit": false,
      "t": 112048.10500000011,
      "d": 578.3127999999997,
      "v": 80
    },
    {
      "midi": 70,
      "hit": false,
      "t": 112048.10500000011,
      "d": 578.3127999999997,
      "v": 80
    },
    {
      "midi": 65,
      "hit": false,
      "t": 112770.99600000012,
      "d": 578.3127999999997,
      "v": 80
    },
    {
      "midi": 69,
      "hit": false,
      "t": 112770.99600000012,
      "d": 578.3127999999997,
      "v": 80
    },
    {
      "midi": 74,
      "hit": false,
      "t": 112770.99600000012,
      "d": 578.3127999999997,
      "v": 80
    },
    {
      "midi": 65,
      "hit": false,
      "t": 113855.33250000012,
      "d": 1734.938399999999,
      "v": 80
    },
    {
      "midi": 69,
      "hit": false,
      "t": 113855.33250000012,
      "d": 1734.938399999999,
      "v": 80
    },
    {
      "midi": 74,
      "hit": false,
      "t": 113855.33250000012,
      "d": 1734.938399999999,
      "v": 80
    },
    {
      "midi": 67,
      "hit": false,
      "t": 115662.55999999997,
      "d": 867.4692000000068,
      "v": 80
    },
    {
      "midi": 72,
      "hit": false,
      "t": 115662.55999999997,
      "d": 867.4692000000068,
      "v": 80
    },
    {
      "midi": 65,
      "hit": false,
      "t": 116746.89649999997,
      "d": 1662.6493000000046,
      "v": 80
    },
    {
      "midi": 70,
      "hit": false,
      "t": 116746.89649999997,
      "d": 1662.6493000000046,
      "v": 80
    },
    {
      "midi": 86,
      "hit": false,
      "t": 118373.40125000013,
      "d": 72.2890999999945,
      "v": 80
    },
    {
      "midi": 87,
      "hit": false,
      "t": 118463.76262500012,
      "d": 72.2890999999945,
      "v": 80
    },
    {
      "midi": 89,
      "hit": false,
      "t": 118554.12400000011,
      "d": 1012.0473999999958,
      "v": 80
    },
    {
      "midi": 77,
      "hit": false,
      "t": 118915.56949999998,
      "d": 289.1564000000071,
      "v": 80
    },
    {
      "midi": 70,
      "hit": false,
      "t": 119277.01499999998,
      "d": 650.6018999999942,
      "v": 80
    },
    {
      "midi": 87,
      "hit": false,
      "t": 119638.4605000001,
      "d": 72.2890999999945,
      "v": 80
    },
    {
      "midi": 86,
      "hit": false,
      "t": 119728.8218750001,
      "d": 72.2890999999945,
      "v": 80
    },
    {
      "midi": 84,
      "hit": false,
      "t": 119819.18325000009,
      "d": 1337.3483500000002,
      "v": 80
    },
    {
      "midi": 63,
      "hit": false,
      "t": 121445.68799999998,
      "d": 867.4692000000068,
      "v": 80
    },
    {
      "midi": 67,
      "hit": false,
      "t": 121445.68799999998,
      "d": 867.4692000000068,
      "v": 80
    },
    {
      "midi": 62,
      "hit": false,
      "t": 122530.02449999998,
      "d": 1518.071100000001,
      "v": 80
    },
    {
      "midi": 65,
      "hit": false,
      "t": 122530.02449999998,
      "d": 1518.071100000001,
      "v": 80
    },
    {
      "midi": 86,
      "hit": false,
      "t": 124156.5292500001,
      "d": 72.2890999999945,
      "v": 80
    },
    {
      "midi": 87,
      "hit": false,
      "t": 124246.89062500009,
      "d": 72.2890999999945,
      "v": 80
    },
    {
      "midi": 82,
      "hit": false,
      "t": 124337.252,
      "d": 289.1564000000071,
      "v": 80
    },
    {
      "midi": 89,
      "hit": false,
      "t": 124337.25200000008,
      "d": 1012.0473999999958,
      "v": 80
    },
    {
      "midi": 77,
      "hit": false,
      "t": 124698.6975,
      "d": 289.1564000000071,
      "v": 80
    },
    {
      "midi": 70,
      "hit": false,
      "t": 125060.143,
      "d": 578.3127999999997,
      "v": 80
    },
    {
      "midi": 87,
      "hit": false,
      "t": 125421.58850000007,
      "d": 72.2890999999945,
      "v": 80
    },
    {
      "midi": 86,
      "hit": false,
      "t": 125511.94987500006,
      "d": 72.2890999999945,
      "v": 80
    },
    {
      "midi": 84,
      "hit": false,
      "t": 125602.31125000006,
      "d": 1337.3483500000002,
      "v": 80
    },
    {
      "midi": 63,
      "hit": false,
      "t": 127228.81599999999,
      "d": 867.4692000000068,
      "v": 80
    },
    {
      "midi": 67,
      "hit": false,
      "t": 127228.81599999999,
      "d": 867.4692000000068,
      "v": 80
    },
    {
      "midi": 67,
      "hit": false,
      "t": 128313.1525,
      "d": 1590.3601999999955,
      "v": 80
    },
    {
      "midi": 70,
      "hit": false,
      "t": 128313.1525,
      "d": 1590.3601999999955,
      "v": 80
    },
    {
      "midi": 58,
      "hit": false,
      "t": 130120.37999999999,
      "d": 867.4692000000068,
      "v": 80
    },
    {
      "midi": 63,
      "hit": false,
      "t": 130120.37999999999,
      "d": 867.4692000000068,
      "v": 80
    },
    {
      "midi": 67,
      "hit": false,
      "t": 130120.37999999999,
      "d": 867.4692000000068,
      "v": 80
    },
    {
      "midi": 57,
      "hit": false,
      "t": 131204.7165,
      "d": 1662.64929999999,
      "v": 80
    },
    {
      "midi": 60,
      "hit": false,
      "t": 131204.7165,
      "d": 1662.64929999999,
      "v": 80
    },
    {
      "midi": 65,
      "hit": false,
      "t": 131204.7165,
      "d": 1662.64929999999,
      "v": 80
    },
    {
      "midi": 72,
      "hit": false,
      "t": 135180.61700000006,
      "d": 289.1564000000071,
      "v": 80
    },
    {
      "midi": 74,
      "hit": false,
      "t": 135542.06250000006,
      "d": 289.1564000000071,
      "v": 80
    },
    {
      "midi": 71,
      "hit": false,
      "t": 150361.32800000007,
      "d": 867.4691999999923,
      "v": 80
    },
    {
      "midi": 75,
      "hit": false,
      "t": 150361.32800000007,
      "d": 867.4691999999923,
      "v": 80
    },
    {
      "midi": 78,
      "hit": false,
      "t": 150361.32800000007,
      "d": 867.4691999999923,
      "v": 80
    },
    {
      "midi": 82,
      "hit": false,
      "t": 150361.32800000007,
      "d": 867.4691999999923,
      "v": 80
    },
    {
      "midi": 80,
      "hit": false,
      "t": 151445.66450000007,
      "d": 289.1564000000071,
      "v": 80
    },
    {
      "midi": 78,
      "hit": false,
      "t": 151807.11000000007,
      "d": 433.73459999999614,
      "v": 80
    },
    {
      "midi": 80,
      "hit": false,
      "t": 152349.27825000006,
      "d": 433.73459999999614,
      "v": 80
    },
    {
      "midi": 82,
      "hit": false,
      "t": 152891.44650000005,
      "d": 289.1564000000071,
      "v": 80
    },
    {
      "midi": 70,
      "hit": false,
      "t": 153252.89200000005,
      "d": 578.3128000000142,
      "v": 80
    },
    {
      "midi": 73,
      "hit": false,
      "t": 153252.89200000005,
      "d": 578.3128000000142,
      "v": 80
    },
    {
      "midi": 77,
      "hit": false,
      "t": 153252.89200000005,
      "d": 578.3128000000142,
      "v": 80
    },
    {
      "midi": 80,
      "hit": false,
      "t": 153252.89200000005,
      "d": 578.3128000000142,
      "v": 80
    },
    {
      "midi": 73,
      "hit": false,
      "t": 153975.78300000005,
      "d": 578.3128000000142,
      "v": 80
    },
    {
      "midi": 73,
      "hit": false,
      "t": 154698.67400000006,
      "d": 578.3128000000142,
      "v": 80
    },
    {
      "midi": 85,
      "hit": false,
      "t": 154698.67400000006,
      "d": 578.3128000000142,
      "v": 80
    },
    {
      "midi": 70,
      "hit": false,
      "t": 155421.56500000006,
      "d": 578.3128000000142,
      "v": 80
    },
    {
      "midi": 82,
      "hit": false,
      "t": 155421.56500000006,
      "d": 578.3128000000142,
      "v": 80
    },
    {
      "midi": 71,
      "hit": false,
      "t": 156144.45600000006,
      "d": 867.4691999999923,
      "v": 80
    },
    {
      "midi": 75,
      "hit": false,
      "t": 156144.45600000006,
      "d": 867.4691999999923,
      "v": 80
    },
    {
      "midi": 78,
      "hit": false,
      "t": 156144.45600000006,
      "d": 867.4691999999923,
      "v": 80
    },
    {
      "midi": 82,
      "hit": false,
      "t": 156144.45600000006,
      "d": 867.4691999999923,
      "v": 80
    },
    {
      "midi": 80,
      "hit": false,
      "t": 157228.79250000007,
      "d": 289.1564000000071,
      "v": 80
    },
    {
      "midi": 78,
      "hit": false,
      "t": 157590.23800000007,
      "d": 433.73459999999614,
      "v": 80
    },
    {
      "midi": 80,
      "hit": false,
      "t": 158132.40625000006,
      "d": 433.73459999999614,
      "v": 80
    },
    {
      "midi": 82,
      "hit": false,
      "t": 158674.57450000005,
      "d": 289.1564000000071,
      "v": 80
    },
    {
      "midi": 70,
      "hit": false,
      "t": 159036.02000000005,
      "d": 578.3128000000142,
      "v": 80
    },
    {
      "midi": 73,
      "hit": false,
      "t": 159036.02000000005,
      "d": 578.3128000000142,
      "v": 80
    },
    {
      "midi": 77,
      "hit": false,
      "t": 159036.02000000005,
      "d": 578.3128000000142,
      "v": 80
    },
    {
      "midi": 80,
      "hit": false,
      "t": 159036.02000000005,
      "d": 578.3128000000142,
      "v": 80
    },
    {
      "midi": 77,
      "hit": false,
      "t": 159758.91100000005,
      "d": 578.3128000000142,
      "v": 80
    },
    {
      "midi": 89,
      "hit": false,
      "t": 159758.91100000005,
      "d": 578.3128000000142,
      "v": 80
    },
    {
      "midi": 73,
      "hit": false,
      "t": 160481.80200000005,
      "d": 578.3128000000142,
      "v": 80
    },
    {
      "midi": 85,
      "hit": false,
      "t": 160481.80200000005,
      "d": 578.3128000000142,
      "v": 80
    },
    {
      "midi": 70,
      "hit": false,
      "t": 161204.69300000006,
      "d": 578.3128000000142,
      "v": 80
    },
    {
      "midi": 82,
      "hit": false,
      "t": 161204.69300000006,
      "d": 578.3128000000142,
      "v": 80
    },
    {
      "midi": 68,
      "hit": false,
      "t": 161927.58400000006,
      "d": 1734.9384000000136,
      "v": 80
    },
    {
      "midi": 71,
      "hit": false,
      "t": 161927.58400000006,
      "d": 1734.9384000000136,
      "v": 80
    },
    {
      "midi": 75,
      "hit": false,
      "t": 161927.58400000006,
      "d": 1734.9384000000136,
      "v": 80
    },
    {
      "midi": 78,
      "hit": false,
      "t": 161927.58400000006,
      "d": 1734.9384000000136,
      "v": 80
    },
    {
      "midi": 68,
      "hit": false,
      "t": 164096.25700000007,
      "d": 578.3128000000142,
      "v": 80
    },
    {
      "midi": 71,
      "hit": false,
      "t": 164096.25700000007,
      "d": 578.3128000000142,
      "v": 80
    },
    {
      "midi": 75,
      "hit": false,
      "t": 164096.25700000007,
      "d": 578.3128000000142,
      "v": 80
    },
    {
      "midi": 78,
      "hit": false,
      "t": 164096.25700000007,
      "d": 578.3128000000142,
      "v": 80
    },
    {
      "midi": 34,
      "hit": false,
      "t": 164819.14800000007,
      "d": 1734.9384000000136,
      "v": 104
    },
    {
      "midi": 37,
      "hit": false,
      "t": 164819.14800000007,
      "d": 1734.9384000000136,
      "v": 104
    },
    {
      "midi": 41,
      "hit": false,
      "t": 164819.14800000007,
      "d": 1734.9384000000136,
      "v": 104
    },
    {
      "midi": 44,
      "hit": false,
      "t": 164819.14800000007,
      "d": 1734.9384000000136,
      "v": 104
    },
    {
      "midi": 70,
      "hit": false,
      "t": 164819.14800000007,
      "d": 1734.9384000000136,
      "v": 104
    },
    {
      "midi": 73,
      "hit": false,
      "t": 164819.14800000007,
      "d": 1734.9384000000136,
      "v": 104
    },
    {
      "midi": 77,
      "hit": false,
      "t": 164819.14800000007,
      "d": 1734.9384000000136,
      "v": 104
    },
    {
      "midi": 80,
      "hit": false,
      "t": 164819.14800000007,
      "d": 1734.9384000000136,
      "v": 104
    },
    {
      "midi": 70,
      "hit": false,
      "t": 166987.82100000008,
      "d": 578.3128000000142,
      "v": 80
    },
    {
      "midi": 73,
      "hit": false,
      "t": 166987.82100000008,
      "d": 578.3128000000142,
      "v": 80
    },
    {
      "midi": 77,
      "hit": false,
      "t": 166987.82100000008,
      "d": 578.3128000000142,
      "v": 80
    },
    {
      "midi": 80,
      "hit": false,
      "t": 166987.82100000008,
      "d": 578.3128000000142,
      "v": 80
    },
    {
      "midi": 67,
      "hit": false,
      "t": 167710.7120000001,
      "d": 2313.251199999999,
      "v": 80
    },
    {
      "midi": 70,
      "hit": false,
      "t": 167710.7120000001,
      "d": 2313.251199999999,
      "v": 80
    },
    {
      "midi": 77,
      "hit": false,
      "t": 167710.7120000001,
      "d": 2313.251199999999,
      "v": 80
    },
    {
      "midi": 63,
      "hit": false,
      "t": 170602.2760000001,
      "d": 2313.251199999999,
      "v": 80
    },
    {
      "midi": 67,
      "hit": false,
      "t": 170602.2760000001,
      "d": 2313.251199999999,
      "v": 80
    },
    {
      "midi": 72,
      "hit": false,
      "t": 170602.2760000001,
      "d": 2313.251199999999,
      "v": 80
    },
    {
      "midi": 63,
      "hit": false,
      "t": 173493.8400000001,
      "d": 2313.251199999999,
      "v": 80
    },
    {
      "midi": 69,
      "hit": false,
      "t": 173493.8400000001,
      "d": 2313.251199999999,
      "v": 80
    },
    {
      "midi": 72,
      "hit": false,
      "t": 173493.8400000001,
      "d": 2313.251199999999,
      "v": 80
    },
    {
      "midi": 74,
      "hit": false,
      "t": 177469.7405,
      "d": 4120.478700000007,
      "v": 80
    },
    {
      "midi": 84,
      "hit": false,
      "t": 179276.9680000001,
      "d": 289.1564000000071,
      "v": 80
    },
    {
      "midi": 86,
      "hit": false,
      "t": 179638.4135000001,
      "d": 578.3128000000142,
      "v": 80
    },
    {
      "midi": 58,
      "hit": false,
      "t": 182168.53200000004,
      "d": 5204.815200000012,
      "v": 80
    },
    {
      "midi": 62,
      "hit": false,
      "t": 182168.53200000004,
      "d": 5204.815200000012,
      "v": 80
    },
    {
      "midi": 69,
      "hit": false,
      "t": 182168.53200000004,
      "d": 5204.815200000012,
      "v": 80
    },
    {
      "midi": 70,
      "hit": false,
      "t": 183252.86850000004,
      "d": 4120.478700000007,
      "v": 80
    },
    {
      "midi": 82,
      "hit": false,
      "t": 184698.65050000013,
      "d": 144.578199999989,
      "v": 80
    },
    {
      "midi": 81,
      "hit": false,
      "t": 184879.37325000012,
      "d": 144.578199999989,
      "v": 80
    },
    {
      "midi": 77,
      "hit": false,
      "t": 185060.0960000001,
      "d": 867.4691999999923,
      "v": 80
    },
    {
      "midi": 55,
      "hit": false,
      "t": 187951.66000000006,
      "d": 5204.815200000012,
      "v": 80
    },
    {
      "midi": 58,
      "hit": false,
      "t": 187951.66000000006,
      "d": 5204.815200000012,
      "v": 80
    },
    {
      "midi": 65,
      "hit": false,
      "t": 187951.66000000006,
      "d": 5204.815200000012,
      "v": 80
    },
    {
      "midi": 67,
      "hit": false,
      "t": 189035.99650000007,
      "d": 4120.478700000007,
      "v": 80
    },
    {
      "midi": 77,
      "hit": false,
      "t": 190843.2240000001,
      "d": 289.1564000000071,
      "v": 80
    },
    {
      "midi": 79,
      "hit": false,
      "t": 191204.6695000001,
      "d": 578.3128000000142,
      "v": 80
    },
    {
      "midi": 63,
      "hit": false,
      "t": 193734.7880000001,
      "d": 180.72274999998626,
      "v": 80
    },
    {
      "midi": 60,
      "hit": false,
      "t": 193734.7880000001,
      "d": 5204.815199999983,
      "v": 80
    },
    {
      "midi": 67,
      "hit": false,
      "t": 193734.7880000001,
      "d": 5204.815199999983,
      "v": 80
    },
    {
      "midi": 74,
      "hit": false,
      "t": 194819.12450000006,
      "d": 4120.478700000007,
      "v": 80
    },
    {
      "midi": 65,
      "hit": false,
      "t": 196626.35200000013,
      "d": 867.4691999999923,
      "v": 80
    },
    {
      "midi": 67,
      "hit": false,
      "t": 197710.68850000013,
      "d": 289.1564000000071,
      "v": 80
    },
    {
      "midi": 65,
      "hit": false,
      "t": 198072.13400000014,
      "d": 578.3128000000142,
      "v": 80
    },
    {
      "midi": 72,
      "hit": false,
      "t": 199517.91600000008,
      "d": 867.4691999999923,
      "v": 80
    },
    {
      "midi": 72,
      "hit": false,
      "t": 200602.2525000001,
      "d": 4120.478700000007,
      "v": 80
    },
    {
      "midi": 74,
      "hit": false,
      "t": 200602.2525000001,
      "d": 4120.478700000007,
      "v": 80
    },
    {
      "midi": 82,
      "hit": false,
      "t": 201325.14350000015,
      "d": 578.3128000000142,
      "v": 80
    },
    {
      "midi": 81,
      "hit": false,
      "t": 202048.03450000015,
      "d": 289.1564000000071,
      "v": 80
    },
    {
      "midi": 77,
      "hit": false,
      "t": 202409.48000000016,
      "d": 867.4691999999923,
      "v": 80
    },
    {
      "midi": 58,
      "hit": false,
      "t": 205301.0440000001,
      "d": 5204.815200000012,
      "v": 80
    },
    {
      "midi": 62,
      "hit": false,
      "t": 205301.0440000001,
      "d": 5204.815200000012,
      "v": 80
    },
    {
      "midi": 69,
      "hit": false,
      "t": 205301.0440000001,
      "d": 5204.815200000012,
      "v": 80
    },
    {
      "midi": 70,
      "hit": false,
      "t": 206385.38050000012,
      "d": 4120.478700000007,
      "v": 80
    },
    {
      "midi": 84,
      "hit": false,
      "t": 207831.16250000015,
      "d": 144.578199999989,
      "v": 80
    },
    {
      "midi": 86,
      "hit": false,
      "t": 208011.88525000014,
      "d": 144.578199999989,
      "v": 80
    },
    {
      "midi": 79,
      "hit": false,
      "t": 208192.60800000012,
      "d": 867.4691999999923,
      "v": 80
    },
    {
      "midi": 55,
      "hit": false,
      "t": 211084.17200000014,
      "d": 5204.815200000012,
      "v": 80
    },
    {
      "midi": 58,
      "hit": false,
      "t": 211084.17200000014,
      "d": 5204.815200000012,
      "v": 80
    },
    {
      "midi": 65,
      "hit": false,
      "t": 211084.17200000014,
      "d": 5204.815200000012,
      "v": 80
    },
    {
      "midi": 67,
      "hit": false,
      "t": 212168.50850000014,
      "d": 4120.478700000007,
      "v": 80
    },
    {
      "midi": 79,
      "hit": false,
      "t": 213614.29050000012,
      "d": 289.1564000000071,
      "v": 80
    },
    {
      "midi": 79,
      "hit": false,
      "t": 214337.18150000012,
      "d": 867.4691999999923,
      "v": 80
    },
    {
      "midi": 60,
      "hit": false,
      "t": 216867.30000000016,
      "d": 2313.251199999999,
      "v": 80
    },
    {
      "midi": 63,
      "hit": false,
      "t": 216867.30000000016,
      "d": 2313.251199999999,
      "v": 80
    },
    {
      "midi": 67,
      "hit": false,
      "t": 216867.30000000016,
      "d": 2313.251199999999,
      "v": 80
    },
    {
      "midi": 74,
      "hit": false,
      "t": 217951.63650000017,
      "d": 1734.9383999999845,
      "v": 80
    },
    {
      "midi": 77,
      "hit": false,
      "t": 219397.41850000012,
      "d": 289.1564000000071,
      "v": 80
    },
    {
      "midi": 65,
      "hit": false,
      "t": 219758.86400000012,
      "d": 289.1564000000071,
      "v": 80
    },
    {
      "midi": 65,
      "hit": false,
      "t": 219758.86400000015,
      "d": 2313.251199999999,
      "v": 80
    },
    {
      "midi": 69,
      "hit": false,
      "t": 219758.86400000015,
      "d": 2313.251199999999,
      "v": 80
    },
    {
      "midi": 67,
      "hit": false,
      "t": 220120.30950000012,
      "d": 289.1564000000071,
      "v": 40
    },
    {
      "midi": 69,
      "hit": false,
      "t": 220481.75500000012,
      "d": 289.1564000000071,
      "v": 40
    },
    {
      "midi": 70,
      "hit": false,
      "t": 220843.20050000012,
      "d": 289.1564000000071,
      "v": 40
    },
    {
      "midi": 77,
      "hit": false,
      "t": 221204.64600000012,
      "d": 578.3128000000142,
      "v": 80
    },
    {
      "midi": 70,
      "hit": false,
      "t": 222650.42800000013,
      "d": 1156.6255999999994,
      "v": 80
    },
    {
      "midi": 74,
      "hit": false,
      "t": 222650.42800000013,
      "d": 1156.6255999999994,
      "v": 80
    },
    {
      "midi": 77,
      "hit": false,
      "t": 222650.42800000013,
      "d": 1156.6255999999994,
      "v": 80
    },
    {
      "midi": 70,
      "hit": false,
      "t": 224096.21000000014,
      "d": 578.3128000000142,
      "v": 80
    },
    {
      "midi": 74,
      "hit": false,
      "t": 224096.21000000014,
      "d": 578.3128000000142,
      "v": 80
    },
    {
      "midi": 77,
      "hit": false,
      "t": 224096.21000000014,
      "d": 578.3128000000142,
      "v": 80
    },
    {
      "midi": 65,
      "hit": false,
      "t": 224819.10100000014,
      "d": 578.3128000000142,
      "v": 80
    },
    {
      "midi": 70,
      "hit": false,
      "t": 224819.10100000014,
      "d": 578.3128000000142,
      "v": 80
    },
    {
      "midi": 74,
      "hit": false,
      "t": 224819.10100000014,
      "d": 578.3128000000142,
      "v": 80
    },
    {
      "midi": 62,
      "hit": false,
      "t": 225541.99200000014,
      "d": 1012.0474000000104,
      "v": 80
    },
    {
      "midi": 67,
      "hit": false,
      "t": 225541.99200000014,
      "d": 1012.0474000000104,
      "v": 80
    },
    {
      "midi": 70,
      "hit": false,
      "t": 225541.99200000014,
      "d": 1012.0474000000104,
      "v": 80
    },
    {
      "midi": 77,
      "hit": false,
      "t": 226626.32850000015,
      "d": 289.1564000000071,
      "v": 80
    },
    {
      "midi": 62,
      "hit": false,
      "t": 226987.77400000015,
      "d": 289.1564000000071,
      "v": 80
    },
    {
      "midi": 67,
      "hit": false,
      "t": 226987.77400000015,
      "d": 289.1564000000071,
      "v": 80
    },
    {
      "midi": 70,
      "hit": false,
      "t": 226987.77400000015,
      "d": 289.1564000000071,
      "v": 80
    },
    {
      "midi": 72,
      "hit": false,
      "t": 227349.21950000015,
      "d": 289.1564000000071,
      "v": 80
    },
    {
      "midi": 67,
      "hit": false,
      "t": 227710.66500000015,
      "d": 578.3128000000142,
      "v": 80
    },
    {
      "midi": 70,
      "hit": false,
      "t": 227710.66500000015,
      "d": 578.3128000000142,
      "v": 80
    },
    {
      "midi": 74,
      "hit": false,
      "t": 227710.66500000015,
      "d": 578.3128000000142,
      "v": 80
    },
    {
      "midi": 63,
      "hit": false,
      "t": 228433.55600000016,
      "d": 2313.251199999999,
      "v": 80
    },
    {
      "midi": 67,
      "hit": false,
      "t": 228433.55600000016,
      "d": 2313.251199999999,
      "v": 80
    },
    {
      "midi": 70,
      "hit": false,
      "t": 228433.55600000016,
      "d": 2313.251199999999,
      "v": 80
    },
    {
      "midi": 65,
      "hit": false,
      "t": 231325.12000000017,
      "d": 867.4691999999923,
      "v": 80
    },
    {
      "midi": 69,
      "hit": false,
      "t": 231325.12000000017,
      "d": 867.4691999999923,
      "v": 80
    },
    {
      "midi": 74,
      "hit": false,
      "t": 231325.12000000017,
      "d": 867.4691999999923,
      "v": 80
    },
    {
      "midi": 65,
      "hit": false,
      "t": 232409.45650000017,
      "d": 578.3128000000142,
      "v": 80
    },
    {
      "midi": 69,
      "hit": false,
      "t": 232409.45650000017,
      "d": 578.3128000000142,
      "v": 80
    },
    {
      "midi": 74,
      "hit": false,
      "t": 232409.45650000017,
      "d": 578.3128000000142,
      "v": 80
    },
    {
      "midi": 65,
      "hit": false,
      "t": 233132.34750000018,
      "d": 578.3128000000142,
      "v": 80
    },
    {
      "midi": 69,
      "hit": false,
      "t": 233132.34750000018,
      "d": 578.3128000000142,
      "v": 80
    },
    {
      "midi": 72,
      "hit": false,
      "t": 233132.34750000018,
      "d": 578.3128000000142,
      "v": 80
    },
    {
      "midi": 70,
      "hit": false,
      "t": 233855.23850000018,
      "d": 939.7582999999868,
      "v": 80
    },
    {
      "midi": 74,
      "hit": false,
      "t": 233855.23850000018,
      "d": 939.7582999999868,
      "v": 80
    },
    {
      "midi": 77,
      "hit": false,
      "t": 233855.23850000018,
      "d": 939.7582999999868,
      "v": 80
    },
    {
      "midi": 70,
      "hit": false,
      "t": 235301.02050000016,
      "d": 289.1564000000071,
      "v": 80
    },
    {
      "midi": 74,
      "hit": false,
      "t": 235301.02050000016,
      "d": 289.1564000000071,
      "v": 80
    },
    {
      "midi": 70,
      "hit": false,
      "t": 235662.46600000016,
      "d": 289.1564000000071,
      "v": 80
    },
    {
      "midi": 72,
      "hit": false,
      "t": 236023.91150000016,
      "d": 289.1564000000071,
      "v": 80
    },
    {
      "midi": 70,
      "hit": false,
      "t": 236385.35700000016,
      "d": 180.72274999998626,
      "v": 80
    },
    {
      "midi": 74,
      "hit": false,
      "t": 236385.35700000016,
      "d": 180.72274999998626,
      "v": 80
    },
    {
      "midi": 77,
      "hit": false,
      "t": 236385.35700000016,
      "d": 939.7582999999868,
      "v": 80
    },
    {
      "midi": 70,
      "hit": false,
      "t": 237108.24800000014,
      "d": 216.86730000001262,
      "v": 80
    },
    {
      "midi": 74,
      "hit": false,
      "t": 237108.24800000014,
      "d": 216.86730000001262,
      "v": 80
    },
    {
      "midi": 67,
      "hit": false,
      "t": 237108.24800000014,
      "d": 867.4692000000214,
      "v": 80
    },
    {
      "midi": 67,
      "hit": false,
      "t": 238192.58450000017,
      "d": 289.1564000000071,
      "v": 80
    },
    {
      "midi": 67,
      "hit": false,
      "t": 238554.03000000017,
      "d": 1156.6255999999994,
      "v": 80
    },
    {
      "midi": 70,
      "hit": false,
      "t": 238554.03000000017,
      "d": 1156.6255999999994,
      "v": 80
    },
    {
      "midi": 74,
      "hit": false,
      "t": 238554.03000000017,
      "d": 1156.6255999999994,
      "v": 80
    },
    {
      "midi": 63,
      "hit": false,
      "t": 239999.81200000018,
      "d": 867.4691999999923,
      "v": 80
    },
    {
      "midi": 67,
      "hit": false,
      "t": 239999.81200000018,
      "d": 867.4691999999923,
      "v": 80
    },
    {
      "midi": 70,
      "hit": false,
      "t": 239999.81200000018,
      "d": 867.4691999999923,
      "v": 80
    },
    {
      "midi": 63,
      "hit": false,
      "t": 241084.14850000018,
      "d": 867.4691999999923,
      "v": 80
    },
    {
      "midi": 67,
      "hit": false,
      "t": 241084.14850000018,
      "d": 867.4691999999923,
      "v": 80
    },
    {
      "midi": 70,
      "hit": false,
      "t": 241084.14850000018,
      "d": 867.4691999999923,
      "v": 80
    },
    {
      "midi": 63,
      "hit": false,
      "t": 242168.4850000002,
      "d": 578.3128000000142,
      "v": 80
    },
    {
      "midi": 67,
      "hit": false,
      "t": 242168.4850000002,
      "d": 578.3128000000142,
      "v": 80
    },
    {
      "midi": 70,
      "hit": false,
      "t": 242168.4850000002,
      "d": 578.3128000000142,
      "v": 80
    },
    {
      "midi": 65,
      "hit": false,
      "t": 242891.3760000002,
      "d": 578.3128000000142,
      "v": 80
    },
    {
      "midi": 69,
      "hit": false,
      "t": 242891.3760000002,
      "d": 578.3128000000142,
      "v": 80
    },
    {
      "midi": 74,
      "hit": false,
      "t": 242891.3760000002,
      "d": 578.3128000000142,
      "v": 80
    },
    {
      "midi": 65,
      "hit": false,
      "t": 243975.7125000002,
      "d": 1734.9384000000136,
      "v": 80
    },
    {
      "midi": 69,
      "hit": false,
      "t": 243975.7125000002,
      "d": 1734.9384000000136,
      "v": 80
    },
    {
      "midi": 74,
      "hit": false,
      "t": 243975.7125000002,
      "d": 1734.9384000000136,
      "v": 80
    },
    {
      "midi": 67,
      "hit": false,
      "t": 245782.94000000015,
      "d": 867.4691999999923,
      "v": 80
    },
    {
      "midi": 72,
      "hit": false,
      "t": 245782.94000000015,
      "d": 867.4691999999923,
      "v": 80
    },
    {
      "midi": 65,
      "hit": false,
      "t": 246867.27650000015,
      "d": 1662.64929999999,
      "v": 80
    },
    {
      "midi": 70,
      "hit": false,
      "t": 246867.27650000015,
      "d": 1662.64929999999,
      "v": 80
    },
    {
      "midi": 77,
      "hit": false,
      "t": 249035.94950000013,
      "d": 289.1564000000071,
      "v": 80
    },
    {
      "midi": 70,
      "hit": false,
      "t": 249397.39500000014,
      "d": 650.6019000000088,
      "v": 80
    },
    {
      "midi": 70,
      "hit": false,
      "t": 254457.63200000022,
      "d": 1156.6255999999994,
      "v": 80
    },
    {
      "midi": 74,
      "hit": false,
      "t": 254457.63200000022,
      "d": 1156.6255999999994,
      "v": 80
    },
    {
      "midi": 77,
      "hit": false,
      "t": 254457.63200000022,
      "d": 1156.6255999999994,
      "v": 80
    },
    {
      "midi": 70,
      "hit": false,
      "t": 255903.41400000022,
      "d": 578.3128000000142,
      "v": 80
    },
    {
      "midi": 74,
      "hit": false,
      "t": 255903.41400000022,
      "d": 578.3128000000142,
      "v": 80
    },
    {
      "midi": 77,
      "hit": false,
      "t": 255903.41400000022,
      "d": 578.3128000000142,
      "v": 80
    },
    {
      "midi": 65,
      "hit": false,
      "t": 256626.30500000023,
      "d": 578.3128000000142,
      "v": 80
    },
    {
      "midi": 70,
      "hit": false,
      "t": 256626.30500000023,
      "d": 578.3128000000142,
      "v": 80
    },
    {
      "midi": 74,
      "hit": false,
      "t": 256626.30500000023,
      "d": 578.3128000000142,
      "v": 80
    },
    {
      "midi": 62,
      "hit": false,
      "t": 257349.19600000023,
      "d": 1012.0474000000104,
      "v": 80
    },
    {
      "midi": 67,
      "hit": false,
      "t": 257349.19600000023,
      "d": 1012.0474000000104,
      "v": 80
    },
    {
      "midi": 70,
      "hit": false,
      "t": 257349.19600000023,
      "d": 1012.0474000000104,
      "v": 80
    },
    {
      "midi": 77,
      "hit": false,
      "t": 258433.53250000023,
      "d": 289.1564000000071,
      "v": 80
    },
    {
      "midi": 62,
      "hit": false,
      "t": 258794.97800000024,
      "d": 289.1564000000071,
      "v": 80
    },
    {
      "midi": 67,
      "hit": false,
      "t": 258794.97800000024,
      "d": 289.1564000000071,
      "v": 80
    },
    {
      "midi": 70,
      "hit": false,
      "t": 258794.97800000024,
      "d": 289.1564000000071,
      "v": 80
    },
    {
      "midi": 72,
      "hit": false,
      "t": 259156.42350000024,
      "d": 289.1564000000071,
      "v": 80
    },
    {
      "midi": 67,
      "hit": false,
      "t": 259517.86900000024,
      "d": 578.3128000000142,
      "v": 80
    },
    {
      "midi": 70,
      "hit": false,
      "t": 259517.86900000024,
      "d": 578.3128000000142,
      "v": 80
    },
    {
      "midi": 74,
      "hit": false,
      "t": 259517.86900000024,
      "d": 578.3128000000142,
      "v": 80
    },
    {
      "midi": 63,
      "hit": false,
      "t": 260240.76000000024,
      "d": 2313.251199999999,
      "v": 80
    },
    {
      "midi": 67,
      "hit": false,
      "t": 260240.76000000024,
      "d": 2313.251199999999,
      "v": 80
    },
    {
      "midi": 70,
      "hit": false,
      "t": 260240.76000000024,
      "d": 2313.251199999999,
      "v": 80
    },
    {
      "midi": 65,
      "hit": false,
      "t": 263132.32400000026,
      "d": 867.4691999999923,
      "v": 80
    },
    {
      "midi": 69,
      "hit": false,
      "t": 263132.32400000026,
      "d": 867.4691999999923,
      "v": 80
    },
    {
      "midi": 74,
      "hit": false,
      "t": 263132.32400000026,
      "d": 867.4691999999923,
      "v": 80
    },
    {
      "midi": 65,
      "hit": false,
      "t": 264216.66050000023,
      "d": 578.3128000000142,
      "v": 80
    },
    {
      "midi": 69,
      "hit": false,
      "t": 264216.66050000023,
      "d": 578.3128000000142,
      "v": 80
    },
    {
      "midi": 74,
      "hit": false,
      "t": 264216.66050000023,
      "d": 578.3128000000142,
      "v": 80
    },
    {
      "midi": 65,
      "hit": false,
      "t": 264939.55150000023,
      "d": 578.3128000000142,
      "v": 80
    },
    {
      "midi": 69,
      "hit": false,
      "t": 264939.55150000023,
      "d": 578.3128000000142,
      "v": 80
    },
    {
      "midi": 72,
      "hit": false,
      "t": 264939.55150000023,
      "d": 578.3128000000142,
      "v": 80
    },
    {
      "midi": 70,
      "hit": false,
      "t": 265662.44250000024,
      "d": 939.7582999999868,
      "v": 80
    },
    {
      "midi": 74,
      "hit": false,
      "t": 265662.44250000024,
      "d": 939.7582999999868,
      "v": 80
    },
    {
      "midi": 77,
      "hit": false,
      "t": 265662.44250000024,
      "d": 939.7582999999868,
      "v": 80
    },
    {
      "midi": 70,
      "hit": false,
      "t": 267108.22450000024,
      "d": 289.156399999978,
      "v": 80
    },
    {
      "midi": 74,
      "hit": false,
      "t": 267108.22450000024,
      "d": 289.156399999978,
      "v": 80
    },
    {
      "midi": 70,
      "hit": false,
      "t": 267469.6700000002,
      "d": 289.156399999978,
      "v": 80
    },
    {
      "midi": 72,
      "hit": false,
      "t": 267831.1155000002,
      "d": 289.156399999978,
      "v": 80
    },
    {
      "midi": 70,
      "hit": false,
      "t": 268192.56100000016,
      "d": 180.72275000001537,
      "v": 80
    },
    {
      "midi": 74,
      "hit": false,
      "t": 268192.56100000016,
      "d": 180.72275000001537,
      "v": 80
    },
    {
      "midi": 77,
      "hit": false,
      "t": 268192.56100000016,
      "d": 939.7582999999868,
      "v": 80
    },
    {
      "midi": 70,
      "hit": false,
      "t": 268915.45200000016,
      "d": 216.86729999998352,
      "v": 80
    },
    {
      "midi": 74,
      "hit": false,
      "t": 268915.45200000016,
      "d": 216.86729999998352,
      "v": 80
    },
    {
      "midi": 67,
      "hit": false,
      "t": 268915.45200000016,
      "d": 867.4691999999923,
      "v": 80
    },
    {
      "midi": 67,
      "hit": false,
      "t": 269999.78850000014,
      "d": 289.156399999978,
      "v": 80
    },
    {
      "midi": 67,
      "hit": false,
      "t": 270361.2340000001,
      "d": 1156.6256000000285,
      "v": 80
    },
    {
      "midi": 70,
      "hit": false,
      "t": 270361.2340000001,
      "d": 1156.6256000000285,
      "v": 80
    },
    {
      "midi": 74,
      "hit": false,
      "t": 270361.2340000001,
      "d": 1156.6256000000285,
      "v": 80
    },
    {
      "midi": 63,
      "hit": false,
      "t": 271807.0160000001,
      "d": 867.4691999999923,
      "v": 80
    },
    {
      "midi": 67,
      "hit": false,
      "t": 271807.0160000001,
      "d": 867.4691999999923,
      "v": 80
    },
    {
      "midi": 70,
      "hit": false,
      "t": 271807.0160000001,
      "d": 867.4691999999923,
      "v": 80
    },
    {
      "midi": 63,
      "hit": false,
      "t": 272891.3525000001,
      "d": 867.4691999999923,
      "v": 80
    },
    {
      "midi": 67,
      "hit": false,
      "t": 272891.3525000001,
      "d": 867.4691999999923,
      "v": 80
    },
    {
      "midi": 70,
      "hit": false,
      "t": 272891.3525000001,
      "d": 867.4691999999923,
      "v": 80
    },
    {
      "midi": 63,
      "hit": false,
      "t": 273975.6890000001,
      "d": 578.3128000000142,
      "v": 80
    },
    {
      "midi": 67,
      "hit": false,
      "t": 273975.6890000001,
      "d": 578.3128000000142,
      "v": 80
    },
    {
      "midi": 70,
      "hit": false,
      "t": 273975.6890000001,
      "d": 578.3128000000142,
      "v": 80
    },
    {
      "midi": 65,
      "hit": false,
      "t": 274698.5800000001,
      "d": 578.3128000000142,
      "v": 80
    },
    {
      "midi": 69,
      "hit": false,
      "t": 274698.5800000001,
      "d": 578.3128000000142,
      "v": 80
    },
    {
      "midi": 74,
      "hit": false,
      "t": 274698.5800000001,
      "d": 578.3128000000142,
      "v": 80
    },
    {
      "midi": 65,
      "hit": false,
      "t": 275782.9165000001,
      "d": 1734.9383999999845,
      "v": 80
    },
    {
      "midi": 69,
      "hit": false,
      "t": 275782.9165000001,
      "d": 1734.9383999999845,
      "v": 80
    },
    {
      "midi": 74,
      "hit": false,
      "t": 275782.9165000001,
      "d": 1734.9383999999845,
      "v": 80
    },
    {
      "midi": 67,
      "hit": false,
      "t": 280481.70800000016,
      "d": 867.4691999999923,
      "v": 56
    },
    {
      "midi": 72,
      "hit": false,
      "t": 280481.70800000016,
      "d": 867.4691999999923,
      "v": 56
    },
    {
      "midi": 65,
      "hit": false,
      "t": 281566.04450000013,
      "d": 1662.64929999999,
      "v": 56
    },
    {
      "midi": 70,
      "hit": false,
      "t": 281566.04450000013,
      "d": 1662.64929999999,
      "v": 56
    },
    {
      "midi": 89,
      "hit": false,
      "t": 284096.1630000001,
      "d": 289.156399999978,
      "v": 80
    },
    {
      "midi": 82,
      "hit": false,
      "t": 284457.6085000001,
      "d": 867.4691999999923,
      "v": 80
    },
    {
      "midi": 67,
      "hit": false,
      "t": 286264.8360000001,
      "d": 867.4691999999923,
      "v": 56
    },
    {
      "midi": 72,
      "hit": false,
      "t": 286264.8360000001,
      "d": 867.4691999999923,
      "v": 56
    },
    {
      "midi": 65,
      "hit": false,
      "t": 287349.1725000001,
      "d": 1662.64929999999,
      "v": 56
    },
    {
      "midi": 70,
      "hit": false,
      "t": 287349.1725000001,
      "d": 1662.64929999999,
      "v": 56
    },
    {
      "midi": 77,
      "hit": false,
      "t": 288433.5090000001,
      "d": 289.156399999978,
      "v": 80
    },
    {
      "midi": 82,
      "hit": false,
      "t": 288794.95450000005,
      "d": 289.156399999978,
      "v": 80
    },
    {
      "midi": 81,
      "hit": false,
      "t": 289156.4,
      "d": 289.156399999978,
      "v": 80
    },
    {
      "midi": 77,
      "hit": false,
      "t": 289517.8455,
      "d": 1951.8057000000263,
      "v": 80
    },
    {
      "midi": 67,
      "hit": false,
      "t": 292047.9640000001,
      "d": 867.4691999999923,
      "v": 56
    },
    {
      "midi": 72,
      "hit": false,
      "t": 292047.9640000001,
      "d": 867.4691999999923,
      "v": 56
    },
    {
      "midi": 65,
      "hit": false,
      "t": 293132.30050000007,
      "d": 1662.64929999999,
      "v": 56
    },
    {
      "midi": 70,
      "hit": false,
      "t": 293132.30050000007,
      "d": 1662.64929999999,
      "v": 56
    },
    {
      "midi": 84,
      "hit": false,
      "t": 294578.0825,
      "d": 144.578199999989,
      "v": 80
    },
    {
      "midi": 82,
      "hit": false,
      "t": 294758.80525000003,
      "d": 144.578199999989,
      "v": 80
    },
    {
      "midi": 79,
      "hit": false,
      "t": 294939.52800000005,
      "d": 289.156399999978,
      "v": 80
    },
    {
      "midi": 82,
      "hit": false,
      "t": 295300.9735,
      "d": 2024.0948000000208,
      "v": 80
    },
    {
      "midi": 67,
      "hit": false,
      "t": 297831.09200000006,
      "d": 867.4691999999923,
      "v": 56
    },
    {
      "midi": 72,
      "hit": false,
      "t": 297831.09200000006,
      "d": 867.4691999999923,
      "v": 56
    },
    {
      "midi": 65,
      "hit": false,
      "t": 298915.42850000004,
      "d": 1662.64929999999,
      "v": 56
    },
    {
      "midi": 70,
      "hit": false,
      "t": 298915.42850000004,
      "d": 1662.64929999999,
      "v": 56
    },
    {
      "midi": 77,
      "hit": false,
      "t": 299999.765,
      "d": 289.156399999978,
      "v": 80
    },
    {
      "midi": 82,
      "hit": false,
      "t": 300361.2105,
      "d": 289.156399999978,
      "v": 80
    },
    {
      "midi": 81,
      "hit": false,
      "t": 300722.65599999996,
      "d": 289.156399999978,
      "v": 80
    },
    {
      "midi": 77,
      "hit": false,
      "t": 301084.10149999993,
      "d": 1951.8057000000263,
      "v": 80
    },
    {
      "midi": 67,
      "hit": false,
      "t": 303614.22000000003,
      "d": 867.4691999999923,
      "v": 70
    },
    {
      "midi": 72,
      "hit": false,
      "t": 303614.22000000003,
      "d": 867.4691999999923,
      "v": 70
    },
    {
      "midi": 65,
      "hit": false,
      "t": 304698.5565,
      "d": 1662.64929999999,
      "v": 64
    },
    {
      "midi": 70,
      "hit": false,
      "t": 304698.5565,
      "d": 1662.64929999999,
      "v": 64
    },
    {
      "midi": 84,
      "hit": false,
      "t": 306144.33849999995,
      "d": 144.578199999989,
      "v": 55
    },
    {
      "midi": 82,
      "hit": false,
      "t": 306325.06124999997,
      "d": 144.578199999989,
      "v": 54
    },
    {
      "midi": 79,
      "hit": false,
      "t": 306505.784,
      "d": 289.156399999978,
      "v": 53
    },
    {
      "midi": 82,
      "hit": false,
      "t": 306867.22949999996,
      "d": 2024.0948000000208,
      "v": 51
    },
    {
      "midi": 67,
      "hit": false,
      "t": 309397.348,
      "d": 867.4691999999923,
      "v": 35
    },
    {
      "midi": 72,
      "hit": false,
      "t": 309397.348,
      "d": 867.4691999999923,
      "v": 35
    },
    {
      "midi": 65,
      "hit": false,
      "t": 310481.6845,
      "d": 1662.64929999999,
      "v": 29
    },
    {
      "midi": 70,
      "hit": false,
      "t": 310481.6845,
      "d": 1662.64929999999,
      "v": 29
    },
    {
      "midi": 77,
      "hit": false,
      "t": 311566.02099999995,
      "d": 289.156399999978,
      "v": 23
    },
    {
      "midi": 82,
      "hit": false,
      "t": 311927.4664999999,
      "d": 289.156399999978,
      "v": 20
    },
    {
      "midi": 81,
      "hit": false,
      "t": 312288.9119999999,
      "d": 289.156399999978,
      "v": 18
    },
    {
      "midi": 77,
      "hit": false,
      "t": 312650.35749999987,
      "d": 1951.8057000000263,
      "v": 16
    }
  ]
}