{
  "jsonPath": "Unknown/Unknown/Nelly featuring Kelly Rowland/dilemma.json",
  "path": "Unknown\\Unknown\\Nelly featuring Kelly Rowland\\Dilemma.mid",
  "name": "Dilemma",
  "difficulty": "Advanced",
  "bpm": 85.00004250002125,
  "notes": [
    {
      "midi": 43,
      "hit": false,
      "t": 0,
      "d": 1411.7640000000001,
      "v": 97
    },
    {
      "midi": 58,
      "hit": false,
      "t": 0,
      "d": 1411.7640000000001,
      "v": 100
    },
    {
      "midi": 62,
      "hit": false,
      "t": 0,
      "d": 1411.7640000000001,
      "v": 94
    },
    {
      "midi": 65,
      "hit": false,
      "t": 0,
      "d": 1411.7640000000001,
      "v": 99
    },
    {
      "midi": 93,
      "hit": false,
      "t": 0,
      "d": 132.352875,
      "v": 102
    },
    {
      "midi": 105,
      "hit": false,
      "t": 0,
      "d": 132.352875,
      "v": 102
    },
    {
      "midi": 89,
      "hit": false,
      "t": 352.94100000000003,
      "d": 95.5881875,
      "v": 94
    },
    {
      "midi": 101,
      "hit": false,
      "t": 352.94100000000003,
      "d": 95.5881875,
      "v": 94
    },
    {
      "midi": 86,
      "hit": false,
      "t": 529.4115,
      "d": 132.35287500000004,
      "v": 96
    },
    {
      "midi": 98,
      "hit": false,
      "t": 529.4115,
      "d": 132.35287500000004,
      "v": 96
    },
    {
      "midi": 93,
      "hit": false,
      "t": 882.3525000000001,
      "d": 124.99993749999999,
      "v": 100
    },
    {
      "midi": 105,
      "hit": false,
      "t": 882.3525000000001,
      "d": 124.99993749999999,
      "v": 100
    },
    {
      "midi": 91,
      "hit": false,
      "t": 1235.2935,
      "d": 102.94112500000006,
      "v": 96
    },
    {
      "midi": 103,
      "hit": false,
      "t": 1235.2935,
      "d": 102.94112500000006,
      "v": 96
    },
    {
      "midi": 67,
      "hit": false,
      "t": 1411.7640000000001,
      "d": 1352.9405000000002,
      "v": 90
    },
    {
      "midi": 60,
      "hit": false,
      "t": 1411.7640000000001,
      "d": 1360.2934375,
      "v": 90
    },
    {
      "midi": 64,
      "hit": false,
      "t": 1411.7640000000001,
      "d": 1382.35225,
      "v": 99
    },
    {
      "midi": 48,
      "hit": false,
      "t": 1411.7640000000001,
      "d": 1411.7640000000001,
      "v": 92
    },
    {
      "midi": 84,
      "hit": false,
      "t": 2294.1165,
      "d": 102.94112499999983,
      "v": 89
    },
    {
      "midi": 96,
      "hit": false,
      "t": 2294.1165,
      "d": 102.94112499999983,
      "v": 89
    },
    {
      "midi": 88,
      "hit": false,
      "t": 2470.587,
      "d": 88.23525000000018,
      "v": 86
    },
    {
      "midi": 100,
      "hit": false,
      "t": 2470.587,
      "d": 88.23525000000018,
      "v": 86
    },
    {
      "midi": 89,
      "hit": false,
      "t": 2647.0575000000003,
      "d": 88.23525000000018,
      "v": 91
    },
    {
      "midi": 101,
      "hit": false,
      "t": 2647.0575000000003,
      "d": 88.23525000000018,
      "v": 91
    },
    {
      "midi": 45,
      "hit": false,
      "t": 2823.5280000000002,
      "d": 1411.7640000000001,
      "v": 98
    },
    {
      "midi": 60,
      "hit": false,
      "t": 2823.5280000000002,
      "d": 1411.7640000000001,
      "v": 92
    },
    {
      "midi": 64,
      "hit": false,
      "t": 2823.5280000000002,
      "d": 1411.7640000000001,
      "v": 87
    },
    {
      "midi": 67,
      "hit": false,
      "t": 2823.5280000000002,
      "d": 1411.7640000000001,
      "v": 95
    },
    {
      "midi": 91,
      "hit": false,
      "t": 2823.5280000000007,
      "d": 117.64699999999993,
      "v": 95
    },
    {
      "midi": 103,
      "hit": false,
      "t": 2823.5280000000007,
      "d": 117.64699999999993,
      "v": 95
    },
    {
      "midi": 88,
      "hit": false,
      "t": 3176.4690000000005,
      "d": 88.23525000000018,
      "v": 91
    },
    {
      "midi": 100,
      "hit": false,
      "t": 3176.4690000000005,
      "d": 88.23525000000018,
      "v": 91
    },
    {
      "midi": 84,
      "hit": false,
      "t": 3352.939500000001,
      "d": 124.99993750000021,
      "v": 91
    },
    {
      "midi": 96,
      "hit": false,
      "t": 3352.939500000001,
      "d": 124.99993750000021,
      "v": 91
    },
    {
      "midi": 91,
      "hit": false,
      "t": 3705.880500000001,
      "d": 132.35287500000004,
      "v": 98
    },
    {
      "midi": 103,
      "hit": false,
      "t": 3705.880500000001,
      "d": 132.35287500000004,
      "v": 98
    },
    {
      "midi": 89,
      "hit": false,
      "t": 4058.8215000000014,
      "d": 110.29406249999965,
      "v": 98
    },
    {
      "midi": 101,
      "hit": false,
      "t": 4058.8215000000014,
      "d": 110.29406249999965,
      "v": 98
    },
    {
      "midi": 50,
      "hit": false,
      "t": 4235.292,
      "d": 1058.8230000000003,
      "v": 97
    },
    {
      "midi": 57,
      "hit": false,
      "t": 4235.292,
      "d": 1058.8230000000003,
      "v": 97
    },
    {
      "midi": 62,
      "hit": false,
      "t": 4235.292,
      "d": 1058.8230000000003,
      "v": 89
    },
    {
      "midi": 65,
      "hit": false,
      "t": 4235.292,
      "d": 1058.8230000000003,
      "v": 95
    },
    {
      "midi": 45,
      "hit": false,
      "t": 5294.115000000001,
      "d": 338.23512500000015,
      "v": 97
    },
    {
      "midi": 57,
      "hit": false,
      "t": 5294.115000000001,
      "d": 338.23512500000015,
      "v": 96
    },
    {
      "midi": 60,
      "hit": false,
      "t": 5294.115000000001,
      "d": 345.5880625,
      "v": 94
    },
    {
      "midi": 89,
      "hit": false,
      "t": 5294.115000000002,
      "d": 95.58818749999955,
      "v": 96
    },
    {
      "midi": 101,
      "hit": false,
      "t": 5294.115000000002,
      "d": 95.58818749999955,
      "v": 96
    },
    {
      "midi": 43,
      "hit": false,
      "t": 5647.0560000000005,
      "d": 1411.7640000000001,
      "v": 97
    },
    {
      "midi": 58,
      "hit": false,
      "t": 5647.0560000000005,
      "d": 1411.7640000000001,
      "v": 100
    },
    {
      "midi": 62,
      "hit": false,
      "t": 5647.0560000000005,
      "d": 1411.7640000000001,
      "v": 94
    },
    {
      "midi": 65,
      "hit": false,
      "t": 5647.0560000000005,
      "d": 1411.7640000000001,
      "v": 99
    },
    {
      "midi": 93,
      "hit": false,
      "t": 5647.056000000001,
      "d": 117.64699999999993,
      "v": 103
    },
    {
      "midi": 105,
      "hit": false,
      "t": 5647.056000000001,
      "d": 117.64699999999993,
      "v": 103
    },
    {
      "midi": 89,
      "hit": false,
      "t": 5999.997000000001,
      "d": 80.8823124999999,
      "v": 91
    },
    {
      "midi": 101,
      "hit": false,
      "t": 5999.997000000001,
      "d": 80.8823124999999,
      "v": 91
    },
    {
      "midi": 86,
      "hit": false,
      "t": 6176.467500000001,
      "d": 117.64699999999993,
      "v": 91
    },
    {
      "midi": 98,
      "hit": false,
      "t": 6176.467500000001,
      "d": 117.64699999999993,
      "v": 91
    },
    {
      "midi": 93,
      "hit": false,
      "t": 6529.4085000000005,
      "d": 102.94112500000028,
      "v": 103
    },
    {
      "midi": 105,
      "hit": false,
      "t": 6529.4085000000005,
      "d": 102.94112500000028,
      "v": 103
    },
    {
      "midi": 91,
      "hit": false,
      "t": 6882.349500000001,
      "d": 117.64699999999993,
      "v": 91
    },
    {
      "midi": 103,
      "hit": false,
      "t": 6882.349500000001,
      "d": 117.64699999999993,
      "v": 91
    },
    {
      "midi": 67,
      "hit": false,
      "t": 7058.820000000001,
      "d": 1352.9404999999997,
      "v": 90
    },
    {
      "midi": 60,
      "hit": false,
      "t": 7058.820000000001,
      "d": 1360.2934374999995,
      "v": 90
    },
    {
      "midi": 64,
      "hit": false,
      "t": 7058.820000000001,
      "d": 1382.352249999999,
      "v": 99
    },
    {
      "midi": 48,
      "hit": false,
      "t": 7058.820000000001,
      "d": 1411.7639999999983,
      "v": 92
    },
    {
      "midi": 84,
      "hit": false,
      "t": 7941.1725000000015,
      "d": 110.29406250000011,
      "v": 89
    },
    {
      "midi": 96,
      "hit": false,
      "t": 7941.1725000000015,
      "d": 110.29406250000011,
      "v": 89
    },
    {
      "midi": 88,
      "hit": false,
      "t": 8117.643000000002,
      "d": 95.58818749999955,
      "v": 92
    },
    {
      "midi": 100,
      "hit": false,
      "t": 8117.643000000002,
      "d": 95.58818749999955,
      "v": 92
    },
    {
      "midi": 89,
      "hit": false,
      "t": 8294.113500000001,
      "d": 80.8823124999999,
      "v": 92
    },
    {
      "midi": 101,
      "hit": false,
      "t": 8294.113500000001,
      "d": 80.8823124999999,
      "v": 92
    },
    {
      "midi": 45,
      "hit": false,
      "t": 8470.583999999999,
      "d": 1411.7639999999992,
      "v": 98
    },
    {
      "midi": 60,
      "hit": false,
      "t": 8470.583999999999,
      "d": 1411.7639999999992,
      "v": 92
    },
    {
      "midi": 64,
      "hit": false,
      "t": 8470.583999999999,
      "d": 1411.7639999999992,
      "v": 87
    },
    {
      "midi": 67,
      "hit": false,
      "t": 8470.583999999999,
      "d": 1411.7639999999992,
      "v": 95
    },
    {
      "midi": 91,
      "hit": false,
      "t": 8470.584,
      "d": 110.2940624999992,
      "v": 96
    },
    {
      "midi": 103,
      "hit": false,
      "t": 8470.584,
      "d": 110.2940624999992,
      "v": 96
    },
    {
      "midi": 88,
      "hit": false,
      "t": 8823.525,
      "d": 80.8823124999999,
      "v": 91
    },
    {
      "midi": 100,
      "hit": false,
      "t": 8823.525,
      "d": 80.8823124999999,
      "v": 91
    },
    {
      "midi": 84,
      "hit": false,
      "t": 8999.995499999999,
      "d": 117.64700000000084,
      "v": 88
    },
    {
      "midi": 96,
      "hit": false,
      "t": 8999.995499999999,
      "d": 117.64700000000084,
      "v": 88
    },
    {
      "midi": 91,
      "hit": false,
      "t": 9352.9365,
      "d": 124.99993750000067,
      "v": 98
    },
    {
      "midi": 103,
      "hit": false,
      "t": 9352.9365,
      "d": 124.99993750000067,
      "v": 98
    },
    {
      "midi": 89,
      "hit": false,
      "t": 9705.8775,
      "d": 102.94112499999937,
      "v": 98
    },
    {
      "midi": 101,
      "hit": false,
      "t": 9705.8775,
      "d": 102.94112499999937,
      "v": 98
    },
    {
      "midi": 62,
      "hit": false,
      "t": 9882.347999999998,
      "d": 1397.0581249999996,
      "v": 89
    },
    {
      "midi": 65,
      "hit": false,
      "t": 9882.347999999998,
      "d": 1397.0581249999996,
      "v": 95
    },
    {
      "midi": 50,
      "hit": false,
      "t": 9882.347999999998,
      "d": 1411.7639999999992,
      "v": 97
    },
    {
      "midi": 57,
      "hit": false,
      "t": 9882.347999999998,
      "d": 1411.7639999999992,
      "v": 97
    },
    {
      "midi": 89,
      "hit": false,
      "t": 10941.171,
      "d": 102.94112499999937,
      "v": 94
    },
    {
      "midi": 101,
      "hit": false,
      "t": 10941.171,
      "d": 102.94112499999937,
      "v": 94
    },
    {
      "midi": 43,
      "hit": false,
      "t": 11294.111999999997,
      "d": 1411.7639999999992,
      "v": 97
    },
    {
      "midi": 58,
      "hit": false,
      "t": 11294.111999999997,
      "d": 1411.7639999999992,
      "v": 100
    },
    {
      "midi": 62,
      "hit": false,
      "t": 11294.111999999997,
      "d": 1411.7639999999992,
      "v": 94
    },
    {
      "midi": 65,
      "hit": false,
      "t": 11294.111999999997,
      "d": 1411.7639999999992,
      "v": 99
    },
    {
      "midi": 93,
      "hit": false,
      "t": 11294.112,
      "d": 132.3528750000005,
      "v": 102
    },
    {
      "midi": 105,
      "hit": false,
      "t": 11294.112,
      "d": 132.3528750000005,
      "v": 102
    },
    {
      "midi": 89,
      "hit": false,
      "t": 11647.053,
      "d": 95.58818749999955,
      "v": 94
    },
    {
      "midi": 101,
      "hit": false,
      "t": 11647.053,
      "d": 95.58818749999955,
      "v": 94
    },
    {
      "midi": 86,
      "hit": false,
      "t": 11823.5235,
      "d": 132.3528750000005,
      "v": 96
    },
    {
      "midi": 98,
      "hit": false,
      "t": 11823.5235,
      "d": 132.3528750000005,
      "v": 96
    },
    {
      "midi": 93,
      "hit": false,
      "t": 12176.4645,
      "d": 124.99993750000067,
      "v": 100
    },
    {
      "midi": 105,
      "hit": false,
      "t": 12176.4645,
      "d": 124.99993750000067,
      "v": 100
    },
    {
      "midi": 91,
      "hit": false,
      "t": 12529.4055,
      "d": 102.94112499999937,
      "v": 96
    },
    {
      "midi": 103,
      "hit": false,
      "t": 12529.4055,
      "d": 102.94112499999937,
      "v": 96
    },
    {
      "midi": 67,
      "hit": false,
      "t": 12705.875999999997,
      "d": 1352.9405000000006,
      "v": 90
    },
    {
      "midi": 60,
      "hit": false,
      "t": 12705.875999999997,
      "d": 1360.2934375000004,
      "v": 90
    },
    {
      "midi": 64,
      "hit": false,
      "t": 12705.875999999997,
      "d": 1382.35225,
      "v": 99
    },
    {
      "midi": 48,
      "hit": false,
      "t": 12705.875999999997,
      "d": 1411.7639999999992,
      "v": 92
    },
    {
      "midi": 84,
      "hit": false,
      "t": 13588.228500000001,
      "d": 102.94112499999937,
      "v": 89
    },
    {
      "midi": 96,
      "hit": false,
      "t": 13588.228500000001,
      "d": 102.94112499999937,
      "v": 89
    },
    {
      "midi": 88,
      "hit": false,
      "t": 13764.699,
      "d": 88.23524999999972,
      "v": 86
    },
    {
      "midi": 100,
      "hit": false,
      "t": 13764.699,
      "d": 88.23524999999972,
      "v": 86
    },
    {
      "midi": 89,
      "hit": false,
      "t": 13941.1695,
      "d": 88.23524999999972,
      "v": 91
    },
    {
      "midi": 101,
      "hit": false,
      "t": 13941.1695,
      "d": 88.23524999999972,
      "v": 91
    },
    {
      "midi": 45,
      "hit": false,
      "t": 14117.639999999996,
      "d": 1411.7639999999992,
      "v": 98
    },
    {
      "midi": 60,
      "hit": false,
      "t": 14117.639999999996,
      "d": 1411.7639999999992,
      "v": 92
    },
    {
      "midi": 64,
      "hit": false,
      "t": 14117.639999999996,
      "d": 1411.7639999999992,
      "v": 87
    },
    {
      "midi": 67,
      "hit": false,
      "t": 14117.639999999996,
      "d": 1411.7639999999992,
      "v": 95
    },
    {
      "midi": 91,
      "hit": false,
      "t": 14117.64,
      "d": 117.64700000000084,
      "v": 95
    },
    {
      "midi": 103,
      "hit": false,
      "t": 14117.64,
      "d": 117.64700000000084,
      "v": 95
    },
    {
      "midi": 88,
      "hit": false,
      "t": 14470.581,
      "d": 88.23524999999972,
      "v": 91
    },
    {
      "midi": 100,
      "hit": false,
      "t": 14470.581,
      "d": 88.23524999999972,
      "v": 91
    },
    {
      "midi": 84,
      "hit": false,
      "t": 14647.0515,
      "d": 124.99993750000067,
      "v": 91
    },
    {
      "midi": 96,
      "hit": false,
      "t": 14647.0515,
      "d": 124.99993750000067,
      "v": 91
    },
    {
      "midi": 91,
      "hit": false,
      "t": 14999.9925,
      "d": 132.3528750000005,
      "v": 98
    },
    {
      "midi": 103,
      "hit": false,
      "t": 14999.9925,
      "d": 132.3528750000005,
      "v": 98
    },
    {
      "midi": 89,
      "hit": false,
      "t": 15352.933500000001,
      "d": 110.2940624999992,
      "v": 98
    },
    {
      "midi": 101,
      "hit": false,
      "t": 15352.933500000001,
      "d": 110.2940624999992,
      "v": 98
    },
    {
      "midi": 50,
      "hit": false,
      "t": 15529.403999999995,
      "d": 1058.8230000000003,
      "v": 97
    },
    {
      "midi": 57,
      "hit": false,
      "t": 15529.403999999995,
      "d": 1058.8230000000003,
      "v": 97
    },
    {
      "midi": 62,
      "hit": false,
      "t": 15529.403999999995,
      "d": 1058.8230000000003,
      "v": 89
    },
    {
      "midi": 65,
      "hit": false,
      "t": 15529.403999999995,
      "d": 1058.8230000000003,
      "v": 95
    },
    {
      "midi": 45,
      "hit": false,
      "t": 16588.226999999995,
      "d": 338.23512499999924,
      "v": 97
    },
    {
      "midi": 57,
      "hit": false,
      "t": 16588.226999999995,
      "d": 338.23512499999924,
      "v": 96
    },
    {
      "midi": 60,
      "hit": false,
      "t": 16588.226999999995,
      "d": 345.58806249999907,
      "v": 94
    },
    {
      "midi": 89,
      "hit": false,
      "t": 16588.227,
      "d": 95.58818750000137,
      "v": 96
    },
    {
      "midi": 101,
      "hit": false,
      "t": 16588.227,
      "d": 95.58818750000137,
      "v": 96
    },
    {
      "midi": 43,
      "hit": false,
      "t": 16941.167999999994,
      "d": 1411.7639999999992,
      "v": 97
    },
    {
      "midi": 58,
      "hit": false,
      "t": 16941.167999999994,
      "d": 1411.7639999999992,
      "v": 100
    },
    {
      "midi": 62,
      "hit": false,
      "t": 16941.167999999994,
      "d": 1411.7639999999992,
      "v": 94
    },
    {
      "midi": 65,
      "hit": false,
      "t": 16941.167999999994,
      "d": 1411.7639999999992,
      "v": 99
    },
    {
      "midi": 93,
      "hit": false,
      "t": 16941.168,
      "d": 117.64700000000084,
      "v": 103
    },
    {
      "midi": 105,
      "hit": false,
      "t": 16941.168,
      "d": 117.64700000000084,
      "v": 103
    },
    {
      "midi": 89,
      "hit": false,
      "t": 17294.109000000004,
      "d": 80.88231250000172,
      "v": 91
    },
    {
      "midi": 101,
      "hit": false,
      "t": 17294.109000000004,
      "d": 80.88231250000172,
      "v": 91
    },
    {
      "midi": 86,
      "hit": false,
      "t": 17470.579500000007,
      "d": 117.64700000000084,
      "v": 91
    },
    {
      "midi": 98,
      "hit": false,
      "t": 17470.579500000007,
      "d": 117.64700000000084,
      "v": 91
    },
    {
      "midi": 93,
      "hit": false,
      "t": 17823.52050000001,
      "d": 102.9411250000012,
      "v": 103
    },
    {
      "midi": 105,
      "hit": false,
      "t": 17823.52050000001,
      "d": 102.9411250000012,
      "v": 103
    },
    {
      "midi": 91,
      "hit": false,
      "t": 18176.461500000012,
      "d": 117.64700000000084,
      "v": 91
    },
    {
      "midi": 103,
      "hit": false,
      "t": 18176.461500000012,
      "d": 117.64700000000084,
      "v": 91
    },
    {
      "midi": 67,
      "hit": false,
      "t": 18352.931999999993,
      "d": 1352.9405000000006,
      "v": 90
    },
    {
      "midi": 60,
      "hit": false,
      "t": 18352.931999999993,
      "d": 1360.2934375000004,
      "v": 90
    },
    {
      "midi": 64,
      "hit": false,
      "t": 18352.931999999993,
      "d": 1382.35225,
      "v": 99
    },
    {
      "midi": 48,
      "hit": false,
      "t": 18352.931999999993,
      "d": 1411.7639999999992,
      "v": 92
    },
    {
      "midi": 84,
      "hit": false,
      "t": 19235.284500000012,
      "d": 110.29406250000102,
      "v": 89
    },
    {
      "midi": 96,
      "hit": false,
      "t": 19235.284500000012,
      "d": 110.29406250000102,
      "v": 89
    },
    {
      "midi": 88,
      "hit": false,
      "t": 19411.755000000012,
      "d": 95.58818750000137,
      "v": 92
    },
    {
      "midi": 100,
      "hit": false,
      "t": 19411.755000000012,
      "d": 95.58818750000137,
      "v": 92
    },
    {
      "midi": 89,
      "hit": false,
      "t": 19588.225500000015,
      "d": 80.88231250000172,
      "v": 92
    },
    {
      "midi": 101,
      "hit": false,
      "t": 19588.225500000015,
      "d": 80.88231250000172,
      "v": 92
    },
    {
      "midi": 45,
      "hit": false,
      "t": 19764.695999999993,
      "d": 1411.7639999999992,
      "v": 98
    },
    {
      "midi": 60,
      "hit": false,
      "t": 19764.695999999993,
      "d": 1411.7639999999992,
      "v": 92
    },
    {
      "midi": 64,
      "hit": false,
      "t": 19764.695999999993,
      "d": 1411.7639999999992,
      "v": 87
    },
    {
      "midi": 67,
      "hit": false,
      "t": 19764.695999999993,
      "d": 1411.7639999999992,
      "v": 95
    },
    {
      "midi": 91,
      "hit": false,
      "t": 19764.696000000018,
      "d": 110.29406250000102,
      "v": 96
    },
    {
      "midi": 103,
      "hit": false,
      "t": 19764.696000000018,
      "d": 110.29406250000102,
      "v": 96
    },
    {
      "midi": 88,
      "hit": false,
      "t": 20117.63700000002,
      "d": 80.88231250000172,
      "v": 91
    },
    {
      "midi": 100,
      "hit": false,
      "t": 20117.63700000002,
      "d": 80.88231250000172,
      "v": 91
    },
    {
      "midi": 84,
      "hit": false,
      "t": 20294.107500000024,
      "d": 117.64700000000084,
      "v": 88
    },
    {
      "midi": 96,
      "hit": false,
      "t": 20294.107500000024,
      "d": 117.64700000000084,
      "v": 88
    },
    {
      "midi": 91,
      "hit": false,
      "t": 20647.048500000026,
      "d": 124.99993750000067,
      "v": 98
    },
    {
      "midi": 103,
      "hit": false,
      "t": 20647.048500000026,
      "d": 124.99993750000067,
      "v": 98
    },
    {
      "midi": 89,
      "hit": false,
      "t": 20999.989500000025,
      "d": 102.9411250000012,
      "v": 98
    },
    {
      "midi": 101,
      "hit": false,
      "t": 20999.989500000025,
      "d": 102.9411250000012,
      "v": 98
    },
    {
      "midi": 62,
      "hit": false,
      "t": 21176.459999999992,
      "d": 1397.0581249999996,
      "v": 89
    },
    {
      "midi": 65,
      "hit": false,
      "t": 21176.459999999992,
      "d": 1397.0581249999996,
      "v": 95
    },
    {
      "midi": 50,
      "hit": false,
      "t": 21176.459999999992,
      "d": 1411.7639999999992,
      "v": 97
    },
    {
      "midi": 57,
      "hit": false,
      "t": 21176.459999999992,
      "d": 1411.7639999999992,
      "v": 97
    },
    {
      "midi": 43,
      "hit": false,
      "t": 22588.22399999999,
      "d": 1411.7639999999992,
      "v": 97
    },
    {
      "midi": 58,
      "hit": false,
      "t": 22588.22399999999,
      "d": 1411.7639999999992,
      "v": 100
    },
    {
      "midi": 62,
      "hit": false,
      "t": 22588.22399999999,
      "d": 1411.7639999999992,
      "v": 94
    },
    {
      "midi": 65,
      "hit": false,
      "t": 22588.22399999999,
      "d": 1411.7639999999992,
      "v": 99
    },
    {
      "midi": 67,
      "hit": false,
      "t": 23999.98799999999,
      "d": 1352.9405000000006,
      "v": 90
    },
    {
      "midi": 60,
      "hit": false,
      "t": 23999.98799999999,
      "d": 1360.2934375000004,
      "v": 90
    },
    {
      "midi": 64,
      "hit": false,
      "t": 23999.98799999999,
      "d": 1382.35225,
      "v": 99
    },
    {
      "midi": 48,
      "hit": false,
      "t": 23999.98799999999,
      "d": 1411.7639999999992,
      "v": 92
    },
    {
      "midi": 45,
      "hit": false,
      "t": 25411.75199999999,
      "d": 1411.7639999999992,
      "v": 98
    },
    {
      "midi": 60,
      "hit": false,
      "t": 25411.75199999999,
      "d": 1411.7639999999992,
      "v": 92
    },
    {
      "midi": 64,
      "hit": false,
      "t": 25411.75199999999,
      "d": 1411.7639999999992,
      "v": 87
    },
    {
      "midi": 67,
      "hit": false,
      "t": 25411.75199999999,
      "d": 1411.7639999999992,
      "v": 95
    },
    {
      "midi": 50,
      "hit": false,
      "t": 26823.51599999999,
      "d": 1058.8230000000003,
      "v": 97
    },
    {
      "midi": 57,
      "hit": false,
      "t": 26823.51599999999,
      "d": 1058.8230000000003,
      "v": 97
    },
    {
      "midi": 62,
      "hit": false,
      "t": 26823.51599999999,
      "d": 1058.8230000000003,
      "v": 89
    },
    {
      "midi": 65,
      "hit": false,
      "t": 26823.51599999999,
      "d": 1058.8230000000003,
      "v": 95
    },
    {
      "midi": 45,
      "hit": false,
      "t": 27882.33899999999,
      "d": 338.23512499999924,
      "v": 97
    },
    {
      "midi": 57,
      "hit": false,
      "t": 27882.33899999999,
      "d": 338.23512499999924,
      "v": 96
    },
    {
      "midi": 60,
      "hit": false,
      "t": 27882.33899999999,
      "d": 345.58806249999907,
      "v": 94
    },
    {
      "midi": 43,
      "hit": false,
      "t": 28235.279999999988,
      "d": 1411.7639999999992,
      "v": 97
    },
    {
      "midi": 58,
      "hit": false,
      "t": 28235.279999999988,
      "d": 1411.7639999999992,
      "v": 100
    },
    {
      "midi": 62,
      "hit": false,
      "t": 28235.279999999988,
      "d": 1411.7639999999992,
      "v": 94
    },
    {
      "midi": 65,
      "hit": false,
      "t": 28235.279999999988,
      "d": 1411.7639999999992,
      "v": 99
    },
    {
      "midi": 67,
      "hit": false,
      "t": 29647.043999999987,
      "d": 1352.9405000000006,
      "v": 90
    },
    {
      "midi": 60,
      "hit": false,
      "t": 29647.043999999987,
      "d": 1360.2934375000004,
      "v": 90
    },
    {
      "midi": 64,
      "hit": false,
      "t": 29647.043999999987,
      "d": 1382.35225,
      "v": 99
    },
    {
      "midi": 48,
      "hit": false,
      "t": 29647.043999999987,
      "d": 1411.7639999999992,
      "v": 92
    },
    {
      "midi": 45,
      "hit": false,
      "t": 31058.807999999986,
      "d": 1411.7639999999992,
      "v": 98
    },
    {
      "midi": 60,
      "hit": false,
      "t": 31058.807999999986,
      "d": 1411.7639999999992,
      "v": 92
    },
    {
      "midi": 64,
      "hit": false,
      "t": 31058.807999999986,
      "d": 1411.7639999999992,
      "v": 87
    },
    {
      "midi": 67,
      "hit": false,
      "t": 31058.807999999986,
      "d": 1411.7639999999992,
      "v": 95
    },
    {
      "midi": 62,
      "hit": false,
      "t": 32470.571999999986,
      "d": 1397.0581250000032,
      "v": 89
    },
    {
      "midi": 65,
      "hit": false,
      "t": 32470.571999999986,
      "d": 1397.0581250000032,
      "v": 95
    },
    {
      "midi": 50,
      "hit": false,
      "t": 32470.571999999986,
      "d": 1411.7640000000029,
      "v": 97
    },
    {
      "midi": 57,
      "hit": false,
      "t": 32470.571999999986,
      "d": 1411.7640000000029,
      "v": 97
    },
    {
      "midi": 43,
      "hit": false,
      "t": 33882.33599999999,
      "d": 1411.7640000000029,
      "v": 97
    },
    {
      "midi": 58,
      "hit": false,
      "t": 33882.33599999999,
      "d": 1411.7640000000029,
      "v": 100
    },
    {
      "midi": 62,
      "hit": false,
      "t": 33882.33599999999,
      "d": 1411.7640000000029,
      "v": 94
    },
    {
      "midi": 65,
      "hit": false,
      "t": 33882.33599999999,
      "d": 1411.7640000000029,
      "v": 99
    },
    {
      "midi": 67,
      "hit": false,
      "t": 35294.09999999999,
      "d": 1352.940499999997,
      "v": 90
    },
    {
      "midi": 60,
      "hit": false,
      "t": 35294.09999999999,
      "d": 1360.2934374999968,
      "v": 90
    },
    {
      "midi": 64,
      "hit": false,
      "t": 35294.09999999999,
      "d": 1382.3522499999963,
      "v": 99
    },
    {
      "midi": 48,
      "hit": false,
      "t": 35294.09999999999,
      "d": 1411.7639999999956,
      "v": 92
    },
    {
      "midi": 45,
      "hit": false,
      "t": 36705.86399999999,
      "d": 1411.7640000000029,
      "v": 98
    },
    {
      "midi": 60,
      "hit": false,
      "t": 36705.86399999999,
      "d": 1411.7640000000029,
      "v": 92
    },
    {
      "midi": 64,
      "hit": false,
      "t": 36705.86399999999,
      "d": 1411.7640000000029,
      "v": 87
    },
    {
      "midi": 67,
      "hit": false,
      "t": 36705.86399999999,
      "d": 1411.7640000000029,
      "v": 95
    },
    {
      "midi": 50,
      "hit": false,
      "t": 38117.62799999999,
      "d": 1058.8229999999967,
      "v": 97
    },
    {
      "midi": 57,
      "hit": false,
      "t": 38117.62799999999,
      "d": 1058.8229999999967,
      "v": 97
    },
    {
      "midi": 62,
      "hit": false,
      "t": 38117.62799999999,
      "d": 1058.8229999999967,
      "v": 89
    },
    {
      "midi": 65,
      "hit": false,
      "t": 38117.62799999999,
      "d": 1058.8229999999967,
      "v": 95
    },
    {
      "midi": 45,
      "hit": false,
      "t": 39176.45099999999,
      "d": 338.23512499999924,
      "v": 97
    },
    {
      "midi": 57,
      "hit": false,
      "t": 39176.45099999999,
      "d": 338.23512499999924,
      "v": 96
    },
    {
      "midi": 60,
      "hit": false,
      "t": 39176.45099999999,
      "d": 345.58806249999907,
      "v": 94
    },
    {
      "midi": 43,
      "hit": false,
      "t": 39529.391999999985,
      "d": 1411.7640000000029,
      "v": 97
    },
    {
      "midi": 58,
      "hit": false,
      "t": 39529.391999999985,
      "d": 1411.7640000000029,
      "v": 100
    },
    {
      "midi": 62,
      "hit": false,
      "t": 39529.391999999985,
      "d": 1411.7640000000029,
      "v": 94
    },
    {
      "midi": 65,
      "hit": false,
      "t": 39529.391999999985,
      "d": 1411.7640000000029,
      "v": 99
    },
    {
      "midi": 67,
      "hit": false,
      "t": 40941.15599999999,
      "d": 1352.940499999997,
      "v": 90
    },
    {
      "midi": 60,
      "hit": false,
      "t": 40941.15599999999,
      "d": 1360.2934374999968,
      "v": 90
    },
    {
      "midi": 64,
      "hit": false,
      "t": 40941.15599999999,
      "d": 1382.3522499999963,
      "v": 99
    },
    {
      "midi": 48,
      "hit": false,
      "t": 40941.15599999999,
      "d": 1411.7639999999956,
      "v": 92
    },
    {
      "midi": 45,
      "hit": false,
      "t": 42352.919999999984,
      "d": 1411.7640000000029,
      "v": 98
    },
    {
      "midi": 60,
      "hit": false,
      "t": 42352.919999999984,
      "d": 1411.7640000000029,
      "v": 92
    },
    {
      "midi": 64,
      "hit": false,
      "t": 42352.919999999984,
      "d": 1411.7640000000029,
      "v": 87
    },
    {
      "midi": 67,
      "hit": false,
      "t": 42352.919999999984,
      "d": 1411.7640000000029,
      "v": 95
    },
    {
      "midi": 62,
      "hit": false,
      "t": 43764.68399999999,
      "d": 1397.0581250000032,
      "v": 89
    },
    {
      "midi": 65,
      "hit": false,
      "t": 43764.68399999999,
      "d": 1397.0581250000032,
      "v": 95
    },
    {
      "midi": 50,
      "hit": false,
      "t": 43764.68399999999,
      "d": 1411.7640000000029,
      "v": 97
    },
    {
      "midi": 57,
      "hit": false,
      "t": 43764.68399999999,
      "d": 1411.7640000000029,
      "v": 97
    },
    {
      "midi": 43,
      "hit": false,
      "t": 45176.44799999999,
      "d": 1411.7640000000029,
      "v": 97
    },
    {
      "midi": 58,
      "hit": false,
      "t": 45176.44799999999,
      "d": 1411.7640000000029,
      "v": 100
    },
    {
      "midi": 62,
      "hit": false,
      "t": 45176.44799999999,
      "d": 1411.7640000000029,
      "v": 94
    },
    {
      "midi": 65,
      "hit": false,
      "t": 45176.44799999999,
      "d": 1411.7640000000029,
      "v": 99
    },
    {
      "midi": 67,
      "hit": false,
      "t": 46588.21199999999,
      "d": 1352.940499999997,
      "v": 90
    },
    {
      "midi": 60,
      "hit": false,
      "t": 46588.21199999999,
      "d": 1360.2934374999968,
      "v": 90
    },
    {
      "midi": 64,
      "hit": false,
      "t": 46588.21199999999,
      "d": 1382.3522499999963,
      "v": 99
    },
    {
      "midi": 48,
      "hit": false,
      "t": 46588.21199999999,
      "d": 1411.7639999999956,
      "v": 92
    },
    {
      "midi": 45,
      "hit": false,
      "t": 47999.97599999999,
      "d": 1411.7640000000029,
      "v": 98
    },
    {
      "midi": 60,
      "hit": false,
      "t": 47999.97599999999,
      "d": 1411.7640000000029,
      "v": 92
    },
    {
      "midi": 64,
      "hit": false,
      "t": 47999.97599999999,
      "d": 1411.7640000000029,
      "v": 87
    },
    {
      "midi": 67,
      "hit": false,
      "t": 47999.97599999999,
      "d": 1411.7640000000029,
      "v": 95
    },
    {
      "midi": 50,
      "hit": false,
      "t": 49411.73999999999,
      "d": 1058.8229999999967,
      "v": 97
    },
    {
      "midi": 57,
      "hit": false,
      "t": 49411.73999999999,
      "d": 1058.8229999999967,
      "v": 97
    },
    {
      "midi": 62,
      "hit": false,
      "t": 49411.73999999999,
      "d": 1058.8229999999967,
      "v": 89
    },
    {
      "midi": 65,
      "hit": false,
      "t": 49411.73999999999,
      "d": 1058.8229999999967,
      "v": 95
    },
    {
      "midi": 45,
      "hit": false,
      "t": 50470.56299999999,
      "d": 338.23512499999924,
      "v": 97
    },
    {
      "midi": 57,
      "hit": false,
      "t": 50470.56299999999,
      "d": 338.23512499999924,
      "v": 96
    },
    {
      "midi": 60,
      "hit": false,
      "t": 50470.56299999999,
      "d": 345.58806249999907,
      "v": 94
    },
    {
      "midi": 43,
      "hit": false,
      "t": 50823.503999999986,
      "d": 1411.7640000000029,
      "v": 97
    },
    {
      "midi": 58,
      "hit": false,
      "t": 50823.503999999986,
      "d": 1411.7640000000029,
      "v": 100
    },
    {
      "midi": 62,
      "hit": false,
      "t": 50823.503999999986,
      "d": 1411.7640000000029,
      "v": 94
    },
    {
      "midi": 65,
      "hit": false,
      "t": 50823.503999999986,
      "d": 1411.7640000000029,
      "v": 99
    },
    {
      "midi": 67,
      "hit": false,
      "t": 52235.26799999999,
      "d": 1352.940499999997,
      "v": 90
    },
    {
      "midi": 60,
      "hit": false,
      "t": 52235.26799999999,
      "d": 1360.2934374999968,
      "v": 90
    },
    {
      "midi": 64,
      "hit": false,
      "t": 52235.26799999999,
      "d": 1382.3522499999963,
      "v": 99
    },
    {
      "midi": 48,
      "hit": false,
      "t": 52235.26799999999,
      "d": 1411.7639999999956,
      "v": 92
    },
    {
      "midi": 45,
      "hit": false,
      "t": 53647.031999999985,
      "d": 1411.7640000000029,
      "v": 98
    },
    {
      "midi": 60,
      "hit": false,
      "t": 53647.031999999985,
      "d": 1411.7640000000029,
      "v": 92
    },
    {
      "midi": 64,
      "hit": false,
      "t": 53647.031999999985,
      "d": 1411.7640000000029,
      "v": 87
    },
    {
      "midi": 67,
      "hit": false,
      "t": 53647.031999999985,
      "d": 1411.7640000000029,
      "v": 95
    },
    {
      "midi": 62,
      "hit": false,
      "t": 55058.79599999999,
      "d": 1397.0581250000032,
      "v": 89
    },
    {
      "midi": 65,
      "hit": false,
      "t": 55058.79599999999,
      "d": 1397.0581250000032,
      "v": 95
    },
    {
      "midi": 50,
      "hit": false,
      "t": 55058.79599999999,
      "d": 1411.7640000000029,
      "v": 97
    },
    {
      "midi": 57,
      "hit": false,
      "t": 55058.79599999999,
      "d": 1411.7640000000029,
      "v": 97
    },
    {
      "midi": 89,
      "hit": false,
      "t": 56117.61900000002,
      "d": 88.2352499999979,
      "v": 91
    },
    {
      "midi": 101,
      "hit": false,
      "t": 56117.61900000002,
      "d": 88.2352499999979,
      "v": 91
    },
    {
      "midi": 43,
      "hit": false,
      "t": 56470.55999999999,
      "d": 1411.7640000000029,
      "v": 97
    },
    {
      "midi": 58,
      "hit": false,
      "t": 56470.55999999999,
      "d": 1411.7640000000029,
      "v": 100
    },
    {
      "midi": 62,
      "hit": false,
      "t": 56470.55999999999,
      "d": 1411.7640000000029,
      "v": 94
    },
    {
      "midi": 65,
      "hit": false,
      "t": 56470.55999999999,
      "d": 1411.7640000000029,
      "v": 99
    },
    {
      "midi": 93,
      "hit": false,
      "t": 56470.56000000002,
      "d": 132.35287499999686,
      "v": 102
    },
    {
      "midi": 105,
      "hit": false,
      "t": 56470.56000000002,
      "d": 132.35287499999686,
      "v": 102
    },
    {
      "midi": 89,
      "hit": false,
      "t": 56823.50100000002,
      "d": 95.58818749999773,
      "v": 94
    },
    {
      "midi": 101,
      "hit": false,
      "t": 56823.50100000002,
      "d": 95.58818749999773,
      "v": 94
    },
    {
      "midi": 86,
      "hit": false,
      "t": 56999.971500000014,
      "d": 132.35287499999686,
      "v": 96
    },
    {
      "midi": 98,
      "hit": false,
      "t": 56999.971500000014,
      "d": 132.35287499999686,
      "v": 96
    },
    {
      "midi": 93,
      "hit": false,
      "t": 57352.91250000001,
      "d": 124.99993749999703,
      "v": 100
    },
    {
      "midi": 105,
      "hit": false,
      "t": 57352.91250000001,
      "d": 124.99993749999703,
      "v": 100
    },
    {
      "midi": 91,
      "hit": false,
      "t": 57705.85350000001,
      "d": 102.94112499999756,
      "v": 96
    },
    {
      "midi": 103,
      "hit": false,
      "t": 57705.85350000001,
      "d": 102.94112499999756,
      "v": 96
    },
    {
      "midi": 67,
      "hit": false,
      "t": 57882.32399999999,
      "d": 1352.940499999997,
      "v": 90
    },
    {
      "midi": 60,
      "hit": false,
      "t": 57882.32399999999,
      "d": 1360.2934374999968,
      "v": 90
    },
    {
      "midi": 64,
      "hit": false,
      "t": 57882.32399999999,
      "d": 1382.3522499999963,
      "v": 99
    },
    {
      "midi": 48,
      "hit": false,
      "t": 57882.32399999999,
      "d": 1411.7639999999956,
      "v": 92
    },
    {
      "midi": 84,
      "hit": false,
      "t": 58764.67650000001,
      "d": 102.94112499999756,
      "v": 89
    },
    {
      "midi": 96,
      "hit": false,
      "t": 58764.67650000001,
      "d": 102.94112499999756,
      "v": 89
    },
    {
      "midi": 88,
      "hit": false,
      "t": 58941.147000000004,
      "d": 88.2352499999979,
      "v": 86
    },
    {
      "midi": 100,
      "hit": false,
      "t": 58941.147000000004,
      "d": 88.2352499999979,
      "v": 86
    },
    {
      "midi": 89,
      "hit": false,
      "t": 59117.6175,
      "d": 88.2352499999979,
      "v": 91
    },
    {
      "midi": 101,
      "hit": false,
      "t": 59117.6175,
      "d": 88.2352499999979,
      "v": 91
    },
    {
      "midi": 45,
      "hit": false,
      "t": 59294.08799999999,
      "d": 1411.7640000000029,
      "v": 98
    },
    {
      "midi": 60,
      "hit": false,
      "t": 59294.08799999999,
      "d": 1411.7640000000029,
      "v": 92
    },
    {
      "midi": 64,
      "hit": false,
      "t": 59294.08799999999,
      "d": 1411.7640000000029,
      "v": 87
    },
    {
      "midi": 67,
      "hit": false,
      "t": 59294.08799999999,
      "d": 1411.7640000000029,
      "v": 95
    },
    {
      "midi": 91,
      "hit": false,
      "t": 59294.087999999996,
      "d": 117.6469999999972,
      "v": 95
    },
    {
      "midi": 103,
      "hit": false,
      "t": 59294.087999999996,
      "d": 117.6469999999972,
      "v": 95
    },
    {
      "midi": 88,
      "hit": false,
      "t": 59647.028999999995,
      "d": 88.2352499999979,
      "v": 91
    },
    {
      "midi": 100,
      "hit": false,
      "t": 59647.028999999995,
      "d": 88.2352499999979,
      "v": 91
    },
    {
      "midi": 84,
      "hit": false,
      "t": 59823.49949999999,
      "d": 124.99993749999703,
      "v": 91
    },
    {
      "midi": 96,
      "hit": false,
      "t": 59823.49949999999,
      "d": 124.99993749999703,
      "v": 91
    },
    {
      "midi": 91,
      "hit": false,
      "t": 60176.44049999999,
      "d": 132.35287499999686,
      "v": 98
    },
    {
      "midi": 103,
      "hit": false,
      "t": 60176.44049999999,
      "d": 132.35287499999686,
      "v": 98
    },
    {
      "midi": 89,
      "hit": false,
      "t": 60529.38149999999,
      "d": 110.29406249999738,
      "v": 98
    },
    {
      "midi": 101,
      "hit": false,
      "t": 60529.38149999999,
      "d": 110.29406249999738,
      "v": 98
    },
    {
      "midi": 50,
      "hit": false,
      "t": 60705.85199999999,
      "d": 1058.8229999999967,
      "v": 97
    },
    {
      "midi": 57,
      "hit": false,
      "t": 60705.85199999999,
      "d": 1058.8229999999967,
      "v": 97
    },
    {
      "midi": 62,
      "hit": false,
      "t": 60705.85199999999,
      "d": 1058.8229999999967,
      "v": 89
    },
    {
      "midi": 65,
      "hit": false,
      "t": 60705.85199999999,
      "d": 1058.8229999999967,
      "v": 95
    },
    {
      "midi": 45,
      "hit": false,
      "t": 61764.67499999999,
      "d": 338.23512499999924,
      "v": 97
    },
    {
      "midi": 57,
      "hit": false,
      "t": 61764.67499999999,
      "d": 338.23512499999924,
      "v": 96
    },
    {
      "midi": 60,
      "hit": false,
      "t": 61764.67499999999,
      "d": 345.58806249999907,
      "v": 94
    },
    {
      "midi": 89,
      "hit": false,
      "t": 61764.67499999999,
      "d": 95.58818749999773,
      "v": 96
    },
    {
      "midi": 101,
      "hit": false,
      "t": 61764.67499999999,
      "d": 95.58818749999773,
      "v": 96
    },
    {
      "midi": 43,
      "hit": false,
      "t": 62117.61599999999,
      "d": 1411.7640000000029,
      "v": 97
    },
    {
      "midi": 58,
      "hit": false,
      "t": 62117.61599999999,
      "d": 1411.7640000000029,
      "v": 100
    },
    {
      "midi": 62,
      "hit": false,
      "t": 62117.61599999999,
      "d": 1411.7640000000029,
      "v": 94
    },
    {
      "midi": 65,
      "hit": false,
      "t": 62117.61599999999,
      "d": 1411.7640000000029,
      "v": 99
    },
    {
      "midi": 93,
      "hit": false,
      "t": 62117.61599999999,
      "d": 117.6469999999972,
      "v": 103
    },
    {
      "midi": 105,
      "hit": false,
      "t": 62117.61599999999,
      "d": 117.6469999999972,
      "v": 103
    },
    {
      "midi": 89,
      "hit": false,
      "t": 62470.556999999986,
      "d": 80.88231249999808,
      "v": 91
    },
    {
      "midi": 101,
      "hit": false,
      "t": 62470.556999999986,
      "d": 80.88231249999808,
      "v": 91
    },
    {
      "midi": 86,
      "hit": false,
      "t": 62647.02749999998,
      "d": 117.6469999999972,
      "v": 91
    },
    {
      "midi": 98,
      "hit": false,
      "t": 62647.02749999998,
      "d": 117.6469999999972,
      "v": 91
    },
    {
      "midi": 93,
      "hit": false,
      "t": 62999.96849999998,
      "d": 102.94112499999756,
      "v": 103
    },
    {
      "midi": 105,
      "hit": false,
      "t": 62999.96849999998,
      "d": 102.94112499999756,
      "v": 103
    },
    {
      "midi": 91,
      "hit": false,
      "t": 63352.90949999998,
      "d": 117.6469999999972,
      "v": 91
    },
    {
      "midi": 103,
      "hit": false,
      "t": 63352.90949999998,
      "d": 117.6469999999972,
      "v": 91
    },
    {
      "midi": 67,
      "hit": false,
      "t": 63529.37999999999,
      "d": 1352.940499999997,
      "v": 90
    },
    {
      "midi": 60,
      "hit": false,
      "t": 63529.37999999999,
      "d": 1360.2934374999968,
      "v": 90
    },
    {
      "midi": 64,
      "hit": false,
      "t": 63529.37999999999,
      "d": 1382.3522499999963,
      "v": 99
    },
    {
      "midi": 48,
      "hit": false,
      "t": 63529.37999999999,
      "d": 1411.7639999999956,
      "v": 92
    },
    {
      "midi": 84,
      "hit": false,
      "t": 64411.73249999998,
      "d": 110.29406249999738,
      "v": 89
    },
    {
      "midi": 96,
      "hit": false,
      "t": 64411.73249999998,
      "d": 110.29406249999738,
      "v": 89
    },
    {
      "midi": 88,
      "hit": false,
      "t": 64588.20299999997,
      "d": 95.58818749999773,
      "v": 92
    },
    {
      "midi": 100,
      "hit": false,
      "t": 64588.20299999997,
      "d": 95.58818749999773,
      "v": 92
    },
    {
      "midi": 89,
      "hit": false,
      "t": 64764.67349999997,
      "d": 80.88231249999808,
      "v": 92
    },
    {
      "midi": 101,
      "hit": false,
      "t": 64764.67349999997,
      "d": 80.88231249999808,
      "v": 92
    },
    {
      "midi": 91,
      "hit": false,
      "t": 64941.143999999964,
      "d": 110.29406249999738,
      "v": 96
    },
    {
      "midi": 103,
      "hit": false,
      "t": 64941.143999999964,
      "d": 110.29406249999738,
      "v": 96
    },
    {
      "midi": 45,
      "hit": false,
      "t": 64941.143999999986,
      "d": 1411.7639999999956,
      "v": 98
    },
    {
      "midi": 60,
      "hit": false,
      "t": 64941.143999999986,
      "d": 1411.7639999999956,
      "v": 92
    },
    {
      "midi": 64,
      "hit": false,
      "t": 64941.143999999986,
      "d": 1411.7639999999956,
      "v": 87
    },
    {
      "midi": 67,
      "hit": false,
      "t": 64941.143999999986,
      "d": 1411.7639999999956,
      "v": 95
    },
    {
      "midi": 88,
      "hit": false,
      "t": 65294.08499999996,
      "d": 80.88231249999808,
      "v": 91
    },
    {
      "midi": 100,
      "hit": false,
      "t": 65294.08499999996,
      "d": 80.88231249999808,
      "v": 91
    },
    {
      "midi": 84,
      "hit": false,
      "t": 65470.55549999996,
      "d": 117.6469999999972,
      "v": 88
    },
    {
      "midi": 96,
      "hit": false,
      "t": 65470.55549999996,
      "d": 117.6469999999972,
      "v": 88
    },
    {
      "midi": 91,
      "hit": false,
      "t": 65823.49649999995,
      "d": 124.99993750000431,
      "v": 98
    },
    {
      "midi": 103,
      "hit": false,
      "t": 65823.49649999995,
      "d": 124.99993750000431,
      "v": 98
    },
    {
      "midi": 89,
      "hit": false,
      "t": 66176.43749999996,
      "d": 102.94112499999756,
      "v": 98
    },
    {
      "midi": 101,
      "hit": false,
      "t": 66176.43749999996,
      "d": 102.94112499999756,
      "v": 98
    },
    {
      "midi": 62,
      "hit": false,
      "t": 66352.90799999998,
      "d": 1397.058124999996,
      "v": 89
    },
    {
      "midi": 65,
      "hit": false,
      "t": 66352.90799999998,
      "d": 1397.058124999996,
      "v": 95
    },
    {
      "midi": 50,
      "hit": false,
      "t": 66352.90799999998,
      "d": 1411.7639999999956,
      "v": 97
    },
    {
      "midi": 57,
      "hit": false,
      "t": 66352.90799999998,
      "d": 1411.7639999999956,
      "v": 97
    },
    {
      "midi": 89,
      "hit": false,
      "t": 67411.73099999996,
      "d": 102.94112499999756,
      "v": 94
    },
    {
      "midi": 101,
      "hit": false,
      "t": 67411.73099999996,
      "d": 102.94112499999756,
      "v": 94
    },
    {
      "midi": 93,
      "hit": false,
      "t": 67764.67199999995,
      "d": 132.35287499999686,
      "v": 102
    },
    {
      "midi": 105,
      "hit": false,
      "t": 67764.67199999995,
      "d": 132.35287499999686,
      "v": 102
    },
    {
      "midi": 43,
      "hit": false,
      "t": 67764.67199999998,
      "d": 1411.7639999999956,
      "v": 97
    },
    {
      "midi": 58,
      "hit": false,
      "t": 67764.67199999998,
      "d": 1411.7639999999956,
      "v": 100
    },
    {
      "midi": 62,
      "hit": false,
      "t": 67764.67199999998,
      "d": 1411.7639999999956,
      "v": 94
    },
    {
      "midi": 65,
      "hit": false,
      "t": 67764.67199999998,
      "d": 1411.7639999999956,
      "v": 99
    },
    {
      "midi": 89,
      "hit": false,
      "t": 68117.61299999994,
      "d": 95.588187500005,
      "v": 94
    },
    {
      "midi": 101,
      "hit": false,
      "t": 68117.61299999994,
      "d": 95.588187500005,
      "v": 94
    },
    {
      "midi": 86,
      "hit": false,
      "t": 68294.08349999995,
      "d": 132.35287499999686,
      "v": 96
    },
    {
      "midi": 98,
      "hit": false,
      "t": 68294.08349999995,
      "d": 132.35287499999686,
      "v": 96
    },
    {
      "midi": 93,
      "hit": false,
      "t": 68647.02449999994,
      "d": 124.99993750000431,
      "v": 100
    },
    {
      "midi": 105,
      "hit": false,
      "t": 68647.02449999994,
      "d": 124.99993750000431,
      "v": 100
    },
    {
      "midi": 91,
      "hit": false,
      "t": 68999.96549999995,
      "d": 102.94112499999756,
      "v": 96
    },
    {
      "midi": 103,
      "hit": false,
      "t": 68999.96549999995,
      "d": 102.94112499999756,
      "v": 96
    },
    {
      "midi": 67,
      "hit": false,
      "t": 69176.43599999997,
      "d": 1352.940499999997,
      "v": 90
    },
    {
      "midi": 60,
      "hit": false,
      "t": 69176.43599999997,
      "d": 1360.293437500004,
      "v": 90
    },
    {
      "midi": 64,
      "hit": false,
      "t": 69176.43599999997,
      "d": 1382.3522500000108,
      "v": 99
    },
    {
      "midi": 48,
      "hit": false,
      "t": 69176.43599999997,
      "d": 1411.7640000000101,
      "v": 92
    },
    {
      "midi": 84,
      "hit": false,
      "t": 70058.78849999995,
      "d": 102.94112499999756,
      "v": 89
    },
    {
      "midi": 96,
      "hit": false,
      "t": 70058.78849999995,
      "d": 102.94112499999756,
      "v": 89
    },
    {
      "midi": 88,
      "hit": false,
      "t": 70235.25899999995,
      "d": 88.2352499999979,
      "v": 86
    },
    {
      "midi": 100,
      "hit": false,
      "t": 70235.25899999995,
      "d": 88.2352499999979,
      "v": 86
    },
    {
      "midi": 89,
      "hit": false,
      "t": 70411.72949999994,
      "d": 88.2352499999979,
      "v": 91
    },
    {
      "midi": 101,
      "hit": false,
      "t": 70411.72949999994,
      "d": 88.2352499999979,
      "v": 91
    },
    {
      "midi": 91,
      "hit": false,
      "t": 70588.19999999994,
      "d": 117.6469999999972,
      "v": 95
    },
    {
      "midi": 103,
      "hit": false,
      "t": 70588.19999999994,
      "d": 117.6469999999972,
      "v": 95
    },
    {
      "midi": 45,
      "hit": false,
      "t": 70588.19999999998,
      "d": 1411.7639999999956,
      "v": 98
    },
    {
      "midi": 60,
      "hit": false,
      "t": 70588.19999999998,
      "d": 1411.7639999999956,
      "v": 92
    },
    {
      "midi": 64,
      "hit": false,
      "t": 70588.19999999998,
      "d": 1411.7639999999956,
      "v": 87
    },
    {
      "midi": 67,
      "hit": false,
      "t": 70588.19999999998,
      "d": 1411.7639999999956,
      "v": 95
    },
    {
      "midi": 88,
      "hit": false,
      "t": 70941.14099999993,
      "d": 88.2352499999979,
      "v": 91
    },
    {
      "midi": 100,
      "hit": false,
      "t": 70941.14099999993,
      "d": 88.2352499999979,
      "v": 91
    },
    {
      "midi": 84,
      "hit": false,
      "t": 71117.61149999993,
      "d": 124.99993750000431,
      "v": 91
    },
    {
      "midi": 96,
      "hit": false,
      "t": 71117.61149999993,
      "d": 124.99993750000431,
      "v": 91
    },
    {
      "midi": 91,
      "hit": false,
      "t": 71470.55249999993,
      "d": 132.35287499999686,
      "v": 98
    },
    {
      "midi": 103,
      "hit": false,
      "t": 71470.55249999993,
      "d": 132.35287499999686,
      "v": 98
    },
    {
      "midi": 89,
      "hit": false,
      "t": 71823.49349999992,
      "d": 110.29406250000466,
      "v": 98
    },
    {
      "midi": 101,
      "hit": false,
      "t": 71823.49349999992,
      "d": 110.29406250000466,
      "v": 98
    },
    {
      "midi": 50,
      "hit": false,
      "t": 71999.96399999998,
      "d": 1058.823000000004,
      "v": 97
    },
    {
      "midi": 57,
      "hit": false,
      "t": 71999.96399999998,
      "d": 1058.823000000004,
      "v": 97
    },
    {
      "midi": 62,
      "hit": false,
      "t": 71999.96399999998,
      "d": 1058.823000000004,
      "v": 89
    },
    {
      "midi": 65,
      "hit": false,
      "t": 71999.96399999998,
      "d": 1058.823000000004,
      "v": 95
    },
    {
      "midi": 89,
      "hit": false,
      "t": 73058.78699999992,
      "d": 95.588187500005,
      "v": 96
    },
    {
      "midi": 101,
      "hit": false,
      "t": 73058.78699999992,
      "d": 95.588187500005,
      "v": 96
    },
    {
      "midi": 45,
      "hit": false,
      "t": 73058.78699999998,
      "d": 338.2351250000065,
      "v": 97
    },
    {
      "midi": 57,
      "hit": false,
      "t": 73058.78699999998,
      "d": 338.2351250000065,
      "v": 96
    },
    {
      "midi": 60,
      "hit": false,
      "t": 73058.78699999998,
      "d": 345.5880625000136,
      "v": 94
    },
    {
      "midi": 93,
      "hit": false,
      "t": 73411.72799999993,
      "d": 117.6469999999972,
      "v": 103
    },
    {
      "midi": 105,
      "hit": false,
      "t": 73411.72799999993,
      "d": 117.6469999999972,
      "v": 103
    },
    {
      "midi": 43,
      "hit": false,
      "t": 73411.728,
      "d": 1411.7639999999956,
      "v": 97
    },
    {
      "midi": 58,
      "hit": false,
      "t": 73411.728,
      "d": 1411.7639999999956,
      "v": 100
    },
    {
      "midi": 62,
      "hit": false,
      "t": 73411.728,
      "d": 1411.7639999999956,
      "v": 94
    },
    {
      "midi": 65,
      "hit": false,
      "t": 73411.728,
      "d": 1411.7639999999956,
      "v": 99
    },
    {
      "midi": 89,
      "hit": false,
      "t": 73764.66899999992,
      "d": 80.88231250000536,
      "v": 91
    },
    {
      "midi": 101,
      "hit": false,
      "t": 73764.66899999992,
      "d": 80.88231250000536,
      "v": 91
    },
    {
      "midi": 86,
      "hit": false,
      "t": 73941.13949999993,
      "d": 117.6469999999972,
      "v": 91
    },
    {
      "midi": 98,
      "hit": false,
      "t": 73941.13949999993,
      "d": 117.6469999999972,
      "v": 91
    },
    {
      "midi": 93,
      "hit": false,
      "t": 74294.08049999992,
      "d": 102.94112499999756,
      "v": 103
    },
    {
      "midi": 105,
      "hit": false,
      "t": 74294.08049999992,
      "d": 102.94112499999756,
      "v": 103
    },
    {
      "midi": 91,
      "hit": false,
      "t": 74647.02149999992,
      "d": 117.6469999999972,
      "v": 91
    },
    {
      "midi": 103,
      "hit": false,
      "t": 74647.02149999992,
      "d": 117.6469999999972,
      "v": 91
    },
    {
      "midi": 67,
      "hit": false,
      "t": 74823.492,
      "d": 1352.940499999997,
      "v": 90
    },
    {
      "midi": 60,
      "hit": false,
      "t": 74823.492,
      "d": 1360.293437500004,
      "v": 90
    },
    {
      "midi": 64,
      "hit": false,
      "t": 74823.492,
      "d": 1382.3522500000108,
      "v": 99
    },
    {
      "midi": 48,
      "hit": false,
      "t": 74823.492,
      "d": 1411.7640000000101,
      "v": 92
    },
    {
      "midi": 84,
      "hit": false,
      "t": 75705.84449999992,
      "d": 110.29406250000466,
      "v": 89
    },
    {
      "midi": 96,
      "hit": false,
      "t": 75705.84449999992,
      "d": 110.29406250000466,
      "v": 89
    },
    {
      "midi": 88,
      "hit": false,
      "t": 75882.31499999993,
      "d": 95.588187500005,
      "v": 92
    },
    {
      "midi": 100,
      "hit": false,
      "t": 75882.31499999993,
      "d": 95.588187500005,
      "v": 92
    },
    {
      "midi": 89,
      "hit": false,
      "t": 76058.78549999994,
      "d": 80.88231250000536,
      "v": 92
    },
    {
      "midi": 101,
      "hit": false,
      "t": 76058.78549999994,
      "d": 80.88231250000536,
      "v": 92
    }
  ]
}