{
  "jsonPath": "Rock/Pop Rock/Annie Lennox/walking-on-broken-glass.json",
  "path": "Rock\\Pop Rock\\Annie Lennox\\Walking On Broken Glass.mid",
  "name": "Walking On Broken Glass",
  "difficulty": "Advanced",
  "bpm": 200,
  "notes": [
    {
      "midi": 72,
      "hit": false,
      "t": 6050.4,
      "d": 241.59583333333285,
      "v": 93
    },
    {
      "midi": 84,
      "hit": false,
      "t": 6050.4,
      "d": 241.59583333333285,
      "v": 87
    },
    {
      "midi": 79,
      "hit": false,
      "t": 6302.499999999999,
      "d": 241.59583333333376,
      "v": 89
    },
    {
      "midi": 91,
      "hit": false,
      "t": 6302.499999999999,
      "d": 241.59583333333376,
      "v": 81
    },
    {
      "midi": 76,
      "hit": false,
      "t": 6554.599999999999,
      "d": 241.59583333333376,
      "v": 90
    },
    {
      "midi": 88,
      "hit": false,
      "t": 6554.599999999999,
      "d": 241.59583333333376,
      "v": 96
    },
    {
      "midi": 77,
      "hit": false,
      "t": 6806.7,
      "d": 241.59583333333376,
      "v": 84
    },
    {
      "midi": 89,
      "hit": false,
      "t": 6806.7,
      "d": 241.59583333333376,
      "v": 80
    },
    {
      "midi": 84,
      "hit": false,
      "t": 7058.8,
      "d": 241.59583333333376,
      "v": 88
    },
    {
      "midi": 96,
      "hit": false,
      "t": 7058.8,
      "d": 241.59583333333376,
      "v": 91
    },
    {
      "midi": 89,
      "hit": false,
      "t": 7310.900000000001,
      "d": 241.59583333333376,
      "v": 85
    },
    {
      "midi": 101,
      "hit": false,
      "t": 7310.900000000001,
      "d": 241.59583333333376,
      "v": 78
    },
    {
      "midi": 88,
      "hit": false,
      "t": 7815.100000000001,
      "d": 241.59583333333376,
      "v": 86
    },
    {
      "midi": 100,
      "hit": false,
      "t": 7815.100000000001,
      "d": 241.59583333333376,
      "v": 89
    },
    {
      "midi": 84,
      "hit": false,
      "t": 8319.300000000001,
      "d": 241.59583333333285,
      "v": 86
    },
    {
      "midi": 96,
      "hit": false,
      "t": 8319.300000000001,
      "d": 241.59583333333285,
      "v": 95
    },
    {
      "midi": 79,
      "hit": false,
      "t": 8823.5,
      "d": 241.59583333333285,
      "v": 84
    },
    {
      "midi": 91,
      "hit": false,
      "t": 8823.5,
      "d": 241.59583333333285,
      "v": 84
    },
    {
      "midi": 86,
      "hit": false,
      "t": 9579.8,
      "d": 346.6375000000007,
      "v": 78
    },
    {
      "midi": 98,
      "hit": false,
      "t": 9579.8,
      "d": 346.6375000000007,
      "v": 96
    },
    {
      "midi": 72,
      "hit": false,
      "t": 10084,
      "d": 241.59583333333285,
      "v": 96
    },
    {
      "midi": 84,
      "hit": false,
      "t": 10084,
      "d": 241.59583333333285,
      "v": 92
    },
    {
      "midi": 79,
      "hit": false,
      "t": 10336.1,
      "d": 241.59583333333285,
      "v": 86
    },
    {
      "midi": 91,
      "hit": false,
      "t": 10336.1,
      "d": 241.59583333333285,
      "v": 84
    },
    {
      "midi": 76,
      "hit": false,
      "t": 10588.2,
      "d": 241.59583333333285,
      "v": 97
    },
    {
      "midi": 88,
      "hit": false,
      "t": 10588.2,
      "d": 241.59583333333285,
      "v": 90
    },
    {
      "midi": 77,
      "hit": false,
      "t": 10840.300000000001,
      "d": 241.59583333333285,
      "v": 85
    },
    {
      "midi": 89,
      "hit": false,
      "t": 10840.300000000001,
      "d": 241.59583333333285,
      "v": 87
    },
    {
      "midi": 84,
      "hit": false,
      "t": 11092.400000000001,
      "d": 241.59583333333285,
      "v": 80
    },
    {
      "midi": 96,
      "hit": false,
      "t": 11092.400000000001,
      "d": 241.59583333333285,
      "v": 93
    },
    {
      "midi": 89,
      "hit": false,
      "t": 11344.500000000002,
      "d": 241.59583333333285,
      "v": 82
    },
    {
      "midi": 101,
      "hit": false,
      "t": 11344.500000000002,
      "d": 241.59583333333285,
      "v": 97
    },
    {
      "midi": 88,
      "hit": false,
      "t": 11848.7,
      "d": 241.59583333333285,
      "v": 96
    },
    {
      "midi": 100,
      "hit": false,
      "t": 11848.7,
      "d": 241.59583333333285,
      "v": 79
    },
    {
      "midi": 84,
      "hit": false,
      "t": 12352.9,
      "d": 241.59583333333285,
      "v": 91
    },
    {
      "midi": 96,
      "hit": false,
      "t": 12352.9,
      "d": 241.59583333333285,
      "v": 94
    },
    {
      "midi": 79,
      "hit": false,
      "t": 12857.099999999999,
      "d": 241.59583333333285,
      "v": 83
    },
    {
      "midi": 91,
      "hit": false,
      "t": 12857.099999999999,
      "d": 241.59583333333285,
      "v": 80
    },
    {
      "midi": 86,
      "hit": false,
      "t": 13613.399999999998,
      "d": 346.6375000000007,
      "v": 78
    },
    {
      "midi": 98,
      "hit": false,
      "t": 13613.399999999998,
      "d": 346.6375000000007,
      "v": 90
    },
    {
      "midi": 72,
      "hit": false,
      "t": 14117.599999999999,
      "d": 241.59583333333285,
      "v": 92
    },
    {
      "midi": 84,
      "hit": false,
      "t": 14117.599999999999,
      "d": 241.59583333333285,
      "v": 94
    },
    {
      "midi": 79,
      "hit": false,
      "t": 14369.699999999999,
      "d": 241.59583333333285,
      "v": 83
    },
    {
      "midi": 91,
      "hit": false,
      "t": 14369.699999999999,
      "d": 241.59583333333285,
      "v": 83
    },
    {
      "midi": 76,
      "hit": false,
      "t": 14621.8,
      "d": 241.59583333333285,
      "v": 87
    },
    {
      "midi": 88,
      "hit": false,
      "t": 14621.8,
      "d": 241.59583333333285,
      "v": 89
    },
    {
      "midi": 77,
      "hit": false,
      "t": 14873.9,
      "d": 241.59583333333285,
      "v": 86
    },
    {
      "midi": 89,
      "hit": false,
      "t": 14873.9,
      "d": 241.59583333333285,
      "v": 95
    },
    {
      "midi": 84,
      "hit": false,
      "t": 15126,
      "d": 241.59583333333285,
      "v": 84
    },
    {
      "midi": 96,
      "hit": false,
      "t": 15126,
      "d": 241.59583333333285,
      "v": 84
    },
    {
      "midi": 89,
      "hit": false,
      "t": 15378.1,
      "d": 241.59583333333285,
      "v": 93
    },
    {
      "midi": 101,
      "hit": false,
      "t": 15378.1,
      "d": 241.59583333333285,
      "v": 92
    },
    {
      "midi": 88,
      "hit": false,
      "t": 15882.3,
      "d": 241.59583333333285,
      "v": 79
    },
    {
      "midi": 100,
      "hit": false,
      "t": 15882.3,
      "d": 241.59583333333285,
      "v": 78
    },
    {
      "midi": 84,
      "hit": false,
      "t": 16386.5,
      "d": 241.59583333333285,
      "v": 88
    },
    {
      "midi": 96,
      "hit": false,
      "t": 16386.5,
      "d": 241.59583333333285,
      "v": 93
    },
    {
      "midi": 79,
      "hit": false,
      "t": 16890.7,
      "d": 241.59583333333285,
      "v": 95
    },
    {
      "midi": 91,
      "hit": false,
      "t": 16890.7,
      "d": 241.59583333333285,
      "v": 91
    },
    {
      "midi": 48,
      "hit": false,
      "t": 17142.8,
      "d": 115.54583333333358,
      "v": 81
    },
    {
      "midi": 50,
      "hit": false,
      "t": 17268.85,
      "d": 115.54583333333358,
      "v": 93
    },
    {
      "midi": 52,
      "hit": false,
      "t": 17394.899999999998,
      "d": 115.54583333333358,
      "v": 94
    },
    {
      "midi": 53,
      "hit": false,
      "t": 17520.949999999997,
      "d": 115.54583333333358,
      "v": 83
    },
    {
      "midi": 53,
      "hit": false,
      "t": 17646.999999999996,
      "d": 115.54583333333358,
      "v": 82
    },
    {
      "midi": 86,
      "hit": false,
      "t": 17646.999999999996,
      "d": 346.6374999999971,
      "v": 83
    },
    {
      "midi": 98,
      "hit": false,
      "t": 17646.999999999996,
      "d": 346.6374999999971,
      "v": 93
    },
    {
      "midi": 55,
      "hit": false,
      "t": 17773.049999999996,
      "d": 115.54583333333358,
      "v": 78
    },
    {
      "midi": 57,
      "hit": false,
      "t": 17899.099999999995,
      "d": 115.54583333333358,
      "v": 83
    },
    {
      "midi": 59,
      "hit": false,
      "t": 18025.149999999994,
      "d": 115.54583333333358,
      "v": 83
    },
    {
      "midi": 60,
      "hit": false,
      "t": 18151.199999999993,
      "d": 115.54583333333358,
      "v": 82
    },
    {
      "midi": 72,
      "hit": false,
      "t": 18151.199999999993,
      "d": 241.59583333333285,
      "v": 85
    },
    {
      "midi": 84,
      "hit": false,
      "t": 18151.199999999993,
      "d": 241.59583333333285,
      "v": 88
    },
    {
      "midi": 79,
      "hit": false,
      "t": 18403.299999999992,
      "d": 241.59583333333285,
      "v": 83
    },
    {
      "midi": 91,
      "hit": false,
      "t": 18403.299999999992,
      "d": 241.59583333333285,
      "v": 78
    },
    {
      "midi": 76,
      "hit": false,
      "t": 18655.39999999999,
      "d": 241.59583333333285,
      "v": 92
    },
    {
      "midi": 88,
      "hit": false,
      "t": 18655.39999999999,
      "d": 241.59583333333285,
      "v": 85
    },
    {
      "midi": 77,
      "hit": false,
      "t": 18907.49999999999,
      "d": 241.59583333333285,
      "v": 80
    },
    {
      "midi": 89,
      "hit": false,
      "t": 18907.49999999999,
      "d": 241.59583333333285,
      "v": 81
    },
    {
      "midi": 84,
      "hit": false,
      "t": 19159.599999999988,
      "d": 241.59583333333285,
      "v": 86
    },
    {
      "midi": 96,
      "hit": false,
      "t": 19159.599999999988,
      "d": 241.59583333333285,
      "v": 80
    },
    {
      "midi": 89,
      "hit": false,
      "t": 19411.699999999986,
      "d": 241.59583333333285,
      "v": 78
    },
    {
      "midi": 101,
      "hit": false,
      "t": 19411.699999999986,
      "d": 241.59583333333285,
      "v": 93
    },
    {
      "midi": 88,
      "hit": false,
      "t": 19915.899999999987,
      "d": 241.59583333333285,
      "v": 94
    },
    {
      "midi": 100,
      "hit": false,
      "t": 19915.899999999987,
      "d": 241.59583333333285,
      "v": 82
    },
    {
      "midi": 84,
      "hit": false,
      "t": 20420.099999999988,
      "d": 241.59583333333285,
      "v": 81
    },
    {
      "midi": 96,
      "hit": false,
      "t": 20420.099999999988,
      "d": 241.59583333333285,
      "v": 94
    },
    {
      "midi": 79,
      "hit": false,
      "t": 20924.29999999999,
      "d": 241.59583333333285,
      "v": 93
    },
    {
      "midi": 91,
      "hit": false,
      "t": 20924.29999999999,
      "d": 241.59583333333285,
      "v": 89
    },
    {
      "midi": 43,
      "hit": false,
      "t": 21680.599999999988,
      "d": 346.6375000000007,
      "v": 89
    },
    {
      "midi": 55,
      "hit": false,
      "t": 21680.599999999988,
      "d": 346.6375000000007,
      "v": 88
    },
    {
      "midi": 72,
      "hit": false,
      "t": 22184.79999999999,
      "d": 241.59583333333285,
      "v": 79
    },
    {
      "midi": 84,
      "hit": false,
      "t": 22184.79999999999,
      "d": 241.59583333333285,
      "v": 93
    },
    {
      "midi": 79,
      "hit": false,
      "t": 22436.899999999987,
      "d": 241.59583333333285,
      "v": 92
    },
    {
      "midi": 91,
      "hit": false,
      "t": 22436.899999999987,
      "d": 241.59583333333285,
      "v": 87
    },
    {
      "midi": 76,
      "hit": false,
      "t": 22688.999999999985,
      "d": 241.59583333333285,
      "v": 92
    },
    {
      "midi": 88,
      "hit": false,
      "t": 22688.999999999985,
      "d": 241.59583333333285,
      "v": 82
    },
    {
      "midi": 77,
      "hit": false,
      "t": 22941.099999999984,
      "d": 241.59583333333285,
      "v": 83
    },
    {
      "midi": 89,
      "hit": false,
      "t": 22941.099999999984,
      "d": 241.59583333333285,
      "v": 90
    },
    {
      "midi": 84,
      "hit": false,
      "t": 23193.199999999983,
      "d": 241.59583333333285,
      "v": 88
    },
    {
      "midi": 96,
      "hit": false,
      "t": 23193.199999999983,
      "d": 241.59583333333285,
      "v": 95
    },
    {
      "midi": 89,
      "hit": false,
      "t": 23445.29999999998,
      "d": 241.59583333333285,
      "v": 78
    },
    {
      "midi": 101,
      "hit": false,
      "t": 23445.29999999998,
      "d": 241.59583333333285,
      "v": 95
    },
    {
      "midi": 88,
      "hit": false,
      "t": 23949.49999999998,
      "d": 241.59583333333285,
      "v": 96
    },
    {
      "midi": 100,
      "hit": false,
      "t": 23949.49999999998,
      "d": 241.59583333333285,
      "v": 93
    },
    {
      "midi": 84,
      "hit": false,
      "t": 24453.699999999983,
      "d": 241.59583333333285,
      "v": 81
    },
    {
      "midi": 96,
      "hit": false,
      "t": 24453.699999999983,
      "d": 241.59583333333285,
      "v": 88
    },
    {
      "midi": 79,
      "hit": false,
      "t": 24957.899999999983,
      "d": 241.59583333333285,
      "v": 83
    },
    {
      "midi": 91,
      "hit": false,
      "t": 24957.899999999983,
      "d": 241.59583333333285,
      "v": 86
    },
    {
      "midi": 86,
      "hit": false,
      "t": 25714.199999999983,
      "d": 346.6375000000007,
      "v": 94
    },
    {
      "midi": 98,
      "hit": false,
      "t": 25714.199999999983,
      "d": 346.6375000000007,
      "v": 89
    },
    {
      "midi": 72,
      "hit": false,
      "t": 26218.399999999983,
      "d": 241.59583333333285,
      "v": 97
    },
    {
      "midi": 84,
      "hit": false,
      "t": 26218.399999999983,
      "d": 241.59583333333285,
      "v": 91
    },
    {
      "midi": 79,
      "hit": false,
      "t": 26470.49999999998,
      "d": 241.59583333333285,
      "v": 89
    },
    {
      "midi": 91,
      "hit": false,
      "t": 26470.49999999998,
      "d": 241.59583333333285,
      "v": 86
    },
    {
      "midi": 76,
      "hit": false,
      "t": 26722.59999999998,
      "d": 241.59583333333285,
      "v": 81
    },
    {
      "midi": 88,
      "hit": false,
      "t": 26722.59999999998,
      "d": 241.59583333333285,
      "v": 93
    },
    {
      "midi": 77,
      "hit": false,
      "t": 26974.69999999998,
      "d": 241.59583333333285,
      "v": 94
    },
    {
      "midi": 89,
      "hit": false,
      "t": 26974.69999999998,
      "d": 241.59583333333285,
      "v": 90
    },
    {
      "midi": 84,
      "hit": false,
      "t": 27226.799999999977,
      "d": 241.59583333333285,
      "v": 92
    },
    {
      "midi": 96,
      "hit": false,
      "t": 27226.799999999977,
      "d": 241.59583333333285,
      "v": 91
    },
    {
      "midi": 89,
      "hit": false,
      "t": 27478.899999999976,
      "d": 241.59583333333285,
      "v": 88
    },
    {
      "midi": 101,
      "hit": false,
      "t": 27478.899999999976,
      "d": 241.59583333333285,
      "v": 88
    },
    {
      "midi": 88,
      "hit": false,
      "t": 27983.099999999977,
      "d": 241.59583333333285,
      "v": 80
    },
    {
      "midi": 100,
      "hit": false,
      "t": 27983.099999999977,
      "d": 241.59583333333285,
      "v": 86
    },
    {
      "midi": 84,
      "hit": false,
      "t": 28487.299999999977,
      "d": 241.59583333333285,
      "v": 82
    },
    {
      "midi": 96,
      "hit": false,
      "t": 28487.299999999977,
      "d": 241.59583333333285,
      "v": 78
    },
    {
      "midi": 79,
      "hit": false,
      "t": 28991.499999999978,
      "d": 241.59583333333285,
      "v": 96
    },
    {
      "midi": 91,
      "hit": false,
      "t": 28991.499999999978,
      "d": 241.59583333333285,
      "v": 83
    },
    {
      "midi": 86,
      "hit": false,
      "t": 29747.799999999977,
      "d": 346.6375000000007,
      "v": 83
    },
    {
      "midi": 98,
      "hit": false,
      "t": 29747.799999999977,
      "d": 346.6375000000007,
      "v": 95
    },
    {
      "midi": 41,
      "hit": false,
      "t": 30251.999999999978,
      "d": 4023.095833333333,
      "v": 85
    },
    {
      "midi": 41,
      "hit": false,
      "t": 38319.199999999975,
      "d": 4023.095833333333,
      "v": 88
    },
    {
      "midi": 57,
      "hit": false,
      "t": 46386.39999999997,
      "d": 1859.237500000003,
      "v": 79
    },
    {
      "midi": 60,
      "hit": false,
      "t": 46386.39999999997,
      "d": 1859.237500000003,
      "v": 84
    },
    {
      "midi": 64,
      "hit": false,
      "t": 46386.39999999997,
      "d": 1859.237500000003,
      "v": 82
    },
    {
      "midi": 64,
      "hit": false,
      "t": 48403.199999999975,
      "d": 976.8874999999971,
      "v": 89
    },
    {
      "midi": 55,
      "hit": false,
      "t": 48403.199999999975,
      "d": 1859.2374999999956,
      "v": 93
    },
    {
      "midi": 60,
      "hit": false,
      "t": 48403.199999999975,
      "d": 1859.2374999999956,
      "v": 91
    },
    {
      "midi": 64,
      "hit": false,
      "t": 49663.699999999975,
      "d": 241.59583333333285,
      "v": 90
    },
    {
      "midi": 67,
      "hit": false,
      "t": 49915.799999999974,
      "d": 241.59583333333285,
      "v": 78
    },
    {
      "midi": 72,
      "hit": false,
      "t": 50167.89999999997,
      "d": 241.59583333333285,
      "v": 81
    },
    {
      "midi": 60,
      "hit": false,
      "t": 50419.99999999997,
      "d": 1355.0374999999985,
      "v": 87
    },
    {
      "midi": 65,
      "hit": false,
      "t": 50419.99999999997,
      "d": 1355.0374999999985,
      "v": 97
    },
    {
      "midi": 69,
      "hit": false,
      "t": 50419.99999999997,
      "d": 1355.0374999999985,
      "v": 88
    },
    {
      "midi": 60,
      "hit": false,
      "t": 51932.59999999997,
      "d": 472.6875,
      "v": 88
    },
    {
      "midi": 65,
      "hit": false,
      "t": 51932.59999999997,
      "d": 472.6875,
      "v": 95
    },
    {
      "midi": 69,
      "hit": false,
      "t": 51932.59999999997,
      "d": 472.6875,
      "v": 83
    },
    {
      "midi": 60,
      "hit": false,
      "t": 52436.79999999997,
      "d": 850.8375000000015,
      "v": 96
    },
    {
      "midi": 64,
      "hit": false,
      "t": 52436.79999999997,
      "d": 850.8375000000015,
      "v": 91
    },
    {
      "midi": 67,
      "hit": false,
      "t": 52436.79999999997,
      "d": 850.8375000000015,
      "v": 94
    },
    {
      "midi": 48,
      "hit": false,
      "t": 53445.19999999997,
      "d": 472.6875,
      "v": 93
    },
    {
      "midi": 60,
      "hit": false,
      "t": 53445.19999999997,
      "d": 472.6875,
      "v": 93
    },
    {
      "midi": 64,
      "hit": false,
      "t": 53445.19999999997,
      "d": 472.6875,
      "v": 90
    },
    {
      "midi": 67,
      "hit": false,
      "t": 53445.19999999997,
      "d": 472.6875,
      "v": 80
    },
    {
      "midi": 47,
      "hit": false,
      "t": 53949.399999999965,
      "d": 472.6875,
      "v": 91
    },
    {
      "midi": 59,
      "hit": false,
      "t": 53949.399999999965,
      "d": 472.6875,
      "v": 78
    },
    {
      "midi": 62,
      "hit": false,
      "t": 53949.399999999965,
      "d": 472.6875,
      "v": 97
    },
    {
      "midi": 67,
      "hit": false,
      "t": 53949.399999999965,
      "d": 472.6875,
      "v": 82
    },
    {
      "midi": 45,
      "hit": false,
      "t": 54453.59999999996,
      "d": 1859.2374999999956,
      "v": 89
    },
    {
      "midi": 52,
      "hit": false,
      "t": 54453.59999999996,
      "d": 1859.2374999999956,
      "v": 84
    },
    {
      "midi": 57,
      "hit": false,
      "t": 54453.59999999996,
      "d": 1859.2374999999956,
      "v": 93
    },
    {
      "midi": 60,
      "hit": false,
      "t": 54453.59999999996,
      "d": 1859.2374999999956,
      "v": 87
    },
    {
      "midi": 64,
      "hit": false,
      "t": 55966.19999999996,
      "d": 241.59583333333285,
      "v": 83
    },
    {
      "midi": 67,
      "hit": false,
      "t": 56218.29999999996,
      "d": 241.59583333333285,
      "v": 82
    },
    {
      "midi": 62,
      "hit": false,
      "t": 56470.39999999996,
      "d": 976.8874999999971,
      "v": 88
    },
    {
      "midi": 64,
      "hit": false,
      "t": 56470.39999999996,
      "d": 976.8874999999971,
      "v": 87
    },
    {
      "midi": 67,
      "hit": false,
      "t": 56470.39999999996,
      "d": 976.8874999999971,
      "v": 89
    },
    {
      "midi": 62,
      "hit": false,
      "t": 57478.79999999995,
      "d": 472.6875,
      "v": 80
    },
    {
      "midi": 64,
      "hit": false,
      "t": 57478.79999999995,
      "d": 472.6875,
      "v": 82
    },
    {
      "midi": 67,
      "hit": false,
      "t": 57478.79999999995,
      "d": 472.6875,
      "v": 83
    },
    {
      "midi": 62,
      "hit": false,
      "t": 57982.99999999995,
      "d": 472.6875,
      "v": 96
    },
    {
      "midi": 64,
      "hit": false,
      "t": 57982.99999999995,
      "d": 472.6875,
      "v": 94
    },
    {
      "midi": 67,
      "hit": false,
      "t": 57982.99999999995,
      "d": 472.6875,
      "v": 87
    },
    {
      "midi": 60,
      "hit": false,
      "t": 58487.199999999946,
      "d": 1985.2874999999985,
      "v": 96
    },
    {
      "midi": 65,
      "hit": false,
      "t": 58487.199999999946,
      "d": 1985.2874999999985,
      "v": 93
    },
    {
      "midi": 67,
      "hit": false,
      "t": 58487.199999999946,
      "d": 1985.2874999999985,
      "v": 97
    },
    {
      "midi": 59,
      "hit": false,
      "t": 60503.99999999994,
      "d": 1985.2874999999985,
      "v": 80
    },
    {
      "midi": 62,
      "hit": false,
      "t": 60503.99999999994,
      "d": 1985.2874999999985,
      "v": 83
    },
    {
      "midi": 67,
      "hit": false,
      "t": 60503.99999999994,
      "d": 1985.2874999999985,
      "v": 85
    },
    {
      "midi": 84,
      "hit": false,
      "t": 62520.79999999994,
      "d": 178.5708333333314,
      "v": 81
    },
    {
      "midi": 72,
      "hit": false,
      "t": 62520.79999999994,
      "d": 189.0749999999971,
      "v": 90
    },
    {
      "midi": 84,
      "hit": false,
      "t": 63024.999999999935,
      "d": 152.31041666666715,
      "v": 81
    },
    {
      "midi": 72,
      "hit": false,
      "t": 63024.999999999935,
      "d": 183.82291666666424,
      "v": 88
    },
    {
      "midi": 84,
      "hit": false,
      "t": 63529.19999999993,
      "d": 126.05000000000291,
      "v": 96
    },
    {
      "midi": 72,
      "hit": false,
      "t": 63529.19999999993,
      "d": 152.31041666666715,
      "v": 87
    },
    {
      "midi": 84,
      "hit": false,
      "t": 64033.39999999993,
      "d": 136.5541666666686,
      "v": 88
    },
    {
      "midi": 72,
      "hit": false,
      "t": 64033.39999999993,
      "d": 157.5625,
      "v": 86
    },
    {
      "midi": 72,
      "hit": false,
      "t": 64537.599999999926,
      "d": 126.05000000000291,
      "v": 79
    },
    {
      "midi": 84,
      "hit": false,
      "t": 64537.599999999926,
      "d": 141.80625000000146,
      "v": 87
    },
    {
      "midi": 84,
      "hit": false,
      "t": 65041.79999999993,
      "d": 120.79791666667006,
      "v": 78
    },
    {
      "midi": 72,
      "hit": false,
      "t": 65041.79999999993,
      "d": 136.5541666666686,
      "v": 92
    },
    {
      "midi": 84,
      "hit": false,
      "t": 65545.99999999993,
      "d": 120.79791666666279,
      "v": 86
    },
    {
      "midi": 72,
      "hit": false,
      "t": 65545.99999999993,
      "d": 126.05000000000291,
      "v": 96
    },
    {
      "midi": 72,
      "hit": false,
      "t": 66050.19999999992,
      "d": 141.80624999999418,
      "v": 79
    },
    {
      "midi": 84,
      "hit": false,
      "t": 66050.19999999992,
      "d": 152.31041666665988,
      "v": 88
    },
    {
      "midi": 72,
      "hit": false,
      "t": 66554.39999999992,
      "d": 241.59583333334012,
      "v": 94
    },
    {
      "midi": 84,
      "hit": false,
      "t": 66554.39999999992,
      "d": 241.59583333334012,
      "v": 90
    },
    {
      "midi": 79,
      "hit": false,
      "t": 66806.49999999993,
      "d": 241.59583333334012,
      "v": 93
    },
    {
      "midi": 91,
      "hit": false,
      "t": 66806.49999999993,
      "d": 241.59583333334012,
      "v": 88
    },
    {
      "midi": 76,
      "hit": false,
      "t": 67058.59999999993,
      "d": 241.59583333334012,
      "v": 91
    },
    {
      "midi": 88,
      "hit": false,
      "t": 67058.59999999993,
      "d": 241.59583333334012,
      "v": 92
    },
    {
      "midi": 77,
      "hit": false,
      "t": 67310.69999999994,
      "d": 241.59583333334012,
      "v": 79
    },
    {
      "midi": 89,
      "hit": false,
      "t": 67310.69999999994,
      "d": 241.59583333334012,
      "v": 94
    },
    {
      "midi": 84,
      "hit": false,
      "t": 67562.79999999994,
      "d": 241.59583333334012,
      "v": 80
    },
    {
      "midi": 96,
      "hit": false,
      "t": 67562.79999999994,
      "d": 241.59583333334012,
      "v": 91
    },
    {
      "midi": 89,
      "hit": false,
      "t": 67814.89999999995,
      "d": 241.59583333334012,
      "v": 86
    },
    {
      "midi": 101,
      "hit": false,
      "t": 67814.89999999995,
      "d": 241.59583333334012,
      "v": 86
    },
    {
      "midi": 88,
      "hit": false,
      "t": 68319.09999999996,
      "d": 241.59583333334012,
      "v": 86
    },
    {
      "midi": 100,
      "hit": false,
      "t": 68319.09999999996,
      "d": 241.59583333334012,
      "v": 82
    },
    {
      "midi": 84,
      "hit": false,
      "t": 68823.29999999997,
      "d": 241.59583333334012,
      "v": 79
    },
    {
      "midi": 96,
      "hit": false,
      "t": 68823.29999999997,
      "d": 241.59583333334012,
      "v": 95
    },
    {
      "midi": 79,
      "hit": false,
      "t": 69327.49999999999,
      "d": 241.59583333334012,
      "v": 79
    },
    {
      "midi": 91,
      "hit": false,
      "t": 69327.49999999999,
      "d": 241.59583333334012,
      "v": 90
    },
    {
      "midi": 86,
      "hit": false,
      "t": 70083.79999999999,
      "d": 346.6374999999971,
      "v": 83
    },
    {
      "midi": 98,
      "hit": false,
      "t": 70083.79999999999,
      "d": 346.6374999999971,
      "v": 97
    },
    {
      "midi": 84,
      "hit": false,
      "t": 70587.99999999999,
      "d": 178.5708333333314,
      "v": 87
    },
    {
      "midi": 72,
      "hit": false,
      "t": 70587.99999999999,
      "d": 189.0749999999971,
      "v": 81
    },
    {
      "midi": 84,
      "hit": false,
      "t": 71092.19999999998,
      "d": 152.31041666665988,
      "v": 87
    },
    {
      "midi": 72,
      "hit": false,
      "t": 71092.19999999998,
      "d": 183.82291666665697,
      "v": 78
    },
    {
      "midi": 84,
      "hit": false,
      "t": 71596.39999999998,
      "d": 126.05000000000291,
      "v": 92
    },
    {
      "midi": 72,
      "hit": false,
      "t": 71596.39999999998,
      "d": 152.31041666667443,
      "v": 92
    },
    {
      "midi": 84,
      "hit": false,
      "t": 72100.59999999999,
      "d": 136.5541666666686,
      "v": 82
    },
    {
      "midi": 72,
      "hit": false,
      "t": 72100.59999999999,
      "d": 157.5625,
      "v": 86
    },
    {
      "midi": 72,
      "hit": false,
      "t": 72604.79999999999,
      "d": 126.05000000000291,
      "v": 96
    },
    {
      "midi": 84,
      "hit": false,
      "t": 72604.79999999999,
      "d": 141.80625000000873,
      "v": 90
    },
    {
      "midi": 84,
      "hit": false,
      "t": 73109,
      "d": 120.79791666666279,
      "v": 96
    },
    {
      "midi": 72,
      "hit": false,
      "t": 73109,
      "d": 136.5541666666686,
      "v": 85
    },
    {
      "midi": 84,
      "hit": false,
      "t": 73613.2,
      "d": 120.79791666666279,
      "v": 92
    },
    {
      "midi": 72,
      "hit": false,
      "t": 73613.2,
      "d": 126.05000000000291,
      "v": 87
    },
    {
      "midi": 72,
      "hit": false,
      "t": 74117.4,
      "d": 141.80624999999418,
      "v": 80
    },
    {
      "midi": 84,
      "hit": false,
      "t": 74117.4,
      "d": 152.31041666665988,
      "v": 84
    },
    {
      "midi": 72,
      "hit": false,
      "t": 74621.59999999999,
      "d": 241.59583333334012,
      "v": 96
    },
    {
      "midi": 84,
      "hit": false,
      "t": 74621.59999999999,
      "d": 241.59583333334012,
      "v": 96
    },
    {
      "midi": 79,
      "hit": false,
      "t": 74873.7,
      "d": 241.59583333334012,
      "v": 97
    },
    {
      "midi": 91,
      "hit": false,
      "t": 74873.7,
      "d": 241.59583333334012,
      "v": 93
    },
    {
      "midi": 76,
      "hit": false,
      "t": 75125.8,
      "d": 241.59583333334012,
      "v": 92
    },
    {
      "midi": 88,
      "hit": false,
      "t": 75125.8,
      "d": 241.59583333334012,
      "v": 89
    },
    {
      "midi": 77,
      "hit": false,
      "t": 75377.90000000001,
      "d": 241.59583333334012,
      "v": 80
    },
    {
      "midi": 89,
      "hit": false,
      "t": 75377.90000000001,
      "d": 241.59583333334012,
      "v": 81
    },
    {
      "midi": 84,
      "hit": false,
      "t": 75630.00000000001,
      "d": 241.59583333334012,
      "v": 86
    },
    {
      "midi": 96,
      "hit": false,
      "t": 75630.00000000001,
      "d": 241.59583333334012,
      "v": 86
    },
    {
      "midi": 89,
      "hit": false,
      "t": 75882.10000000002,
      "d": 241.59583333334012,
      "v": 94
    },
    {
      "midi": 101,
      "hit": false,
      "t": 75882.10000000002,
      "d": 241.59583333334012,
      "v": 81
    },
    {
      "midi": 88,
      "hit": false,
      "t": 76386.30000000003,
      "d": 241.59583333334012,
      "v": 81
    },
    {
      "midi": 100,
      "hit": false,
      "t": 76386.30000000003,
      "d": 241.59583333334012,
      "v": 93
    },
    {
      "midi": 84,
      "hit": false,
      "t": 76890.50000000004,
      "d": 241.59583333334012,
      "v": 85
    },
    {
      "midi": 96,
      "hit": false,
      "t": 76890.50000000004,
      "d": 241.59583333334012,
      "v": 95
    },
    {
      "midi": 79,
      "hit": false,
      "t": 77394.70000000006,
      "d": 241.59583333334012,
      "v": 86
    },
    {
      "midi": 91,
      "hit": false,
      "t": 77394.70000000006,
      "d": 241.59583333334012,
      "v": 93
    },
    {
      "midi": 86,
      "hit": false,
      "t": 78151.00000000006,
      "d": 346.6374999999971,
      "v": 91
    },
    {
      "midi": 98,
      "hit": false,
      "t": 78151.00000000006,
      "d": 346.6374999999971,
      "v": 86
    },
    {
      "midi": 64,
      "hit": false,
      "t": 78655.20000000006,
      "d": 1733.1875,
      "v": 97
    },
    {
      "midi": 69,
      "hit": false,
      "t": 78655.20000000006,
      "d": 1733.1875,
      "v": 80
    },
    {
      "midi": 72,
      "hit": false,
      "t": 78655.20000000006,
      "d": 1733.1875,
      "v": 90
    },
    {
      "midi": 67,
      "hit": false,
      "t": 80419.90000000005,
      "d": 241.59583333334012,
      "v": 86
    },
    {
      "midi": 71,
      "hit": false,
      "t": 80419.90000000005,
      "d": 241.59583333334012,
      "v": 84
    },
    {
      "midi": 74,
      "hit": false,
      "t": 80419.90000000005,
      "d": 241.59583333334012,
      "v": 91
    },
    {
      "midi": 64,
      "hit": false,
      "t": 80672.00000000006,
      "d": 1481.0874999999942,
      "v": 86
    },
    {
      "midi": 69,
      "hit": false,
      "t": 80672.00000000006,
      "d": 1481.0874999999942,
      "v": 89
    },
    {
      "midi": 72,
      "hit": false,
      "t": 80672.00000000006,
      "d": 1481.0874999999942,
      "v": 83
    },
    {
      "midi": 67,
      "hit": false,
      "t": 82184.60000000005,
      "d": 472.6875,
      "v": 96
    },
    {
      "midi": 71,
      "hit": false,
      "t": 82184.60000000005,
      "d": 472.6875,
      "v": 89
    },
    {
      "midi": 74,
      "hit": false,
      "t": 82184.60000000005,
      "d": 472.6875,
      "v": 81
    },
    {
      "midi": 67,
      "hit": false,
      "t": 82688.80000000005,
      "d": 346.6374999999971,
      "v": 82
    },
    {
      "midi": 72,
      "hit": false,
      "t": 82688.80000000005,
      "d": 346.6374999999971,
      "v": 79
    },
    {
      "midi": 76,
      "hit": false,
      "t": 82688.80000000005,
      "d": 346.6374999999971,
      "v": 83
    },
    {
      "midi": 60,
      "hit": false,
      "t": 86722.40000000004,
      "d": 2237.387499999997,
      "v": 86
    },
    {
      "midi": 65,
      "hit": false,
      "t": 86722.40000000004,
      "d": 2237.387499999997,
      "v": 94
    },
    {
      "midi": 67,
      "hit": false,
      "t": 86722.40000000004,
      "d": 2237.387499999997,
      "v": 87
    },
    {
      "midi": 53,
      "hit": false,
      "t": 88991.30000000003,
      "d": 241.59583333334012,
      "v": 88
    },
    {
      "midi": 65,
      "hit": false,
      "t": 88991.30000000003,
      "d": 241.59583333334012,
      "v": 92
    },
    {
      "midi": 52,
      "hit": false,
      "t": 89243.40000000004,
      "d": 241.59583333334012,
      "v": 82
    },
    {
      "midi": 64,
      "hit": false,
      "t": 89243.40000000004,
      "d": 241.59583333334012,
      "v": 97
    },
    {
      "midi": 50,
      "hit": false,
      "t": 89495.50000000004,
      "d": 241.59583333334012,
      "v": 88
    },
    {
      "midi": 62,
      "hit": false,
      "t": 89495.50000000004,
      "d": 241.59583333334012,
      "v": 87
    },
    {
      "midi": 48,
      "hit": false,
      "t": 89747.60000000005,
      "d": 241.59583333334012,
      "v": 79
    },
    {
      "midi": 60,
      "hit": false,
      "t": 89747.60000000005,
      "d": 241.59583333334012,
      "v": 78
    },
    {
      "midi": 45,
      "hit": false,
      "t": 89999.70000000006,
      "d": 241.59583333334012,
      "v": 94
    },
    {
      "midi": 57,
      "hit": false,
      "t": 89999.70000000006,
      "d": 241.59583333334012,
      "v": 94
    },
    {
      "midi": 43,
      "hit": false,
      "t": 90251.80000000006,
      "d": 241.59583333334012,
      "v": 94
    },
    {
      "midi": 55,
      "hit": false,
      "t": 90251.80000000006,
      "d": 241.59583333334012,
      "v": 91
    },
    {
      "midi": 45,
      "hit": false,
      "t": 90503.90000000007,
      "d": 241.59583333334012,
      "v": 95
    },
    {
      "midi": 57,
      "hit": false,
      "t": 90503.90000000007,
      "d": 241.59583333334012,
      "v": 78
    },
    {
      "midi": 48,
      "hit": false,
      "t": 90756.00000000007,
      "d": 241.59583333334012,
      "v": 78
    },
    {
      "midi": 55,
      "hit": false,
      "t": 90756.00000000007,
      "d": 241.59583333334012,
      "v": 82
    },
    {
      "midi": 60,
      "hit": false,
      "t": 90756.00000000007,
      "d": 241.59583333334012,
      "v": 82
    },
    {
      "midi": 64,
      "hit": false,
      "t": 90756.00000000007,
      "d": 241.59583333334012,
      "v": 85
    },
    {
      "midi": 60,
      "hit": false,
      "t": 95293.80000000008,
      "d": 241.59583333334012,
      "v": 84
    },
    {
      "midi": 64,
      "hit": false,
      "t": 95545.90000000008,
      "d": 472.6875,
      "v": 84
    },
    {
      "midi": 62,
      "hit": false,
      "t": 96050.10000000008,
      "d": 241.59583333334012,
      "v": 94
    },
    {
      "midi": 60,
      "hit": false,
      "t": 96302.20000000008,
      "d": 241.59583333334012,
      "v": 87
    },
    {
      "midi": 60,
      "hit": false,
      "t": 96554.30000000009,
      "d": 241.59583333334012,
      "v": 92
    },
    {
      "midi": 64,
      "hit": false,
      "t": 96806.4000000001,
      "d": 241.59583333334012,
      "v": 86
    },
    {
      "midi": 60,
      "hit": false,
      "t": 97058.5000000001,
      "d": 472.6875,
      "v": 92
    },
    {
      "midi": 55,
      "hit": false,
      "t": 97562.7000000001,
      "d": 241.59583333334012,
      "v": 95
    },
    {
      "midi": 60,
      "hit": false,
      "t": 97814.8000000001,
      "d": 241.59583333334012,
      "v": 80
    },
    {
      "midi": 67,
      "hit": false,
      "t": 98066.90000000011,
      "d": 115.54583333333721,
      "v": 83
    },
    {
      "midi": 60,
      "hit": false,
      "t": 98066.90000000011,
      "d": 724.7875000000204,
      "v": 87
    },
    {
      "midi": 67,
      "hit": false,
      "t": 98319.00000000012,
      "d": 115.54583333333721,
      "v": 84
    },
    {
      "midi": 67,
      "hit": false,
      "t": 98571.10000000012,
      "d": 115.54583333333721,
      "v": 84
    },
    {
      "midi": 65,
      "hit": false,
      "t": 98823.20000000013,
      "d": 1228.987500000003,
      "v": 93
    },
    {
      "midi": 69,
      "hit": false,
      "t": 98823.20000000013,
      "d": 1228.987500000003,
      "v": 79
    },
    {
      "midi": 72,
      "hit": false,
      "t": 100083.70000000013,
      "d": 241.59583333334012,
      "v": 95
    },
    {
      "midi": 67,
      "hit": false,
      "t": 100335.80000000013,
      "d": 241.59583333334012,
      "v": 84
    },
    {
      "midi": 65,
      "hit": false,
      "t": 100587.90000000014,
      "d": 241.59583333334012,
      "v": 96
    },
    {
      "midi": 67,
      "hit": false,
      "t": 100840.00000000015,
      "d": 241.59583333334012,
      "v": 78
    },
    {
      "midi": 60,
      "hit": false,
      "t": 101092.10000000015,
      "d": 241.59583333334012,
      "v": 97
    },
    {
      "midi": 62,
      "hit": false,
      "t": 101344.20000000016,
      "d": 241.59583333334012,
      "v": 85
    },
    {
      "midi": 48,
      "hit": false,
      "t": 101596.30000000016,
      "d": 724.7875000000058,
      "v": 86
    },
    {
      "midi": 55,
      "hit": false,
      "t": 101596.30000000016,
      "d": 724.7875000000058,
      "v": 78
    },
    {
      "midi": 60,
      "hit": false,
      "t": 101596.30000000016,
      "d": 724.7875000000058,
      "v": 90
    },
    {
      "midi": 64,
      "hit": false,
      "t": 101596.30000000016,
      "d": 724.7875000000058,
      "v": 85
    },
    {
      "midi": 47,
      "hit": false,
      "t": 102352.60000000017,
      "d": 472.6875,
      "v": 93
    },
    {
      "midi": 55,
      "hit": false,
      "t": 102352.60000000017,
      "d": 472.6875,
      "v": 78
    },
    {
      "midi": 59,
      "hit": false,
      "t": 102352.60000000017,
      "d": 472.6875,
      "v": 96
    },
    {
      "midi": 62,
      "hit": false,
      "t": 102352.60000000017,
      "d": 472.6875,
      "v": 86
    },
    {
      "midi": 64,
      "hit": false,
      "t": 102856.80000000016,
      "d": 241.59583333334012,
      "v": 88
    },
    {
      "midi": 57,
      "hit": false,
      "t": 103108.90000000017,
      "d": 241.59583333334012,
      "v": 81
    },
    {
      "midi": 60,
      "hit": false,
      "t": 103361.00000000017,
      "d": 241.59583333334012,
      "v": 95
    },
    {
      "midi": 64,
      "hit": false,
      "t": 103613.10000000018,
      "d": 241.59583333334012,
      "v": 92
    },
    {
      "midi": 69,
      "hit": false,
      "t": 103865.20000000019,
      "d": 241.59583333334012,
      "v": 95
    },
    {
      "midi": 64,
      "hit": false,
      "t": 104117.30000000019,
      "d": 241.59583333334012,
      "v": 85
    },
    {
      "midi": 60,
      "hit": false,
      "t": 104369.4000000002,
      "d": 241.59583333334012,
      "v": 85
    },
    {
      "midi": 62,
      "hit": false,
      "t": 104621.5000000002,
      "d": 241.59583333334012,
      "v": 90
    },
    {
      "midi": 64,
      "hit": false,
      "t": 104873.60000000021,
      "d": 346.6374999999971,
      "v": 96
    },
    {
      "midi": 67,
      "hit": false,
      "t": 105377.8000000002,
      "d": 472.6875,
      "v": 88
    },
    {
      "midi": 72,
      "hit": false,
      "t": 105377.8000000002,
      "d": 472.6875,
      "v": 82
    },
    {
      "midi": 76,
      "hit": false,
      "t": 105377.8000000002,
      "d": 472.6875,
      "v": 79
    },
    {
      "midi": 64,
      "hit": false,
      "t": 105882.0000000002,
      "d": 472.6875,
      "v": 88
    },
    {
      "midi": 67,
      "hit": false,
      "t": 105882.0000000002,
      "d": 472.6875,
      "v": 92
    },
    {
      "midi": 72,
      "hit": false,
      "t": 105882.0000000002,
      "d": 472.6875,
      "v": 87
    },
    {
      "midi": 64,
      "hit": false,
      "t": 106386.2000000002,
      "d": 241.59583333334012,
      "v": 80
    },
    {
      "midi": 65,
      "hit": false,
      "t": 106638.3000000002,
      "d": 241.59583333334012,
      "v": 78
    },
    {
      "midi": 76,
      "hit": false,
      "t": 106890.40000000021,
      "d": 241.59583333334012,
      "v": 79
    },
    {
      "midi": 74,
      "hit": false,
      "t": 107142.50000000022,
      "d": 241.59583333334012,
      "v": 89
    },
    {
      "midi": 76,
      "hit": false,
      "t": 107394.60000000022,
      "d": 241.59583333334012,
      "v": 97
    },
    {
      "midi": 74,
      "hit": false,
      "t": 107646.70000000023,
      "d": 241.59583333334012,
      "v": 91
    },
    {
      "midi": 72,
      "hit": false,
      "t": 107898.80000000024,
      "d": 241.59583333334012,
      "v": 97
    },
    {
      "midi": 74,
      "hit": false,
      "t": 108150.90000000024,
      "d": 241.59583333334012,
      "v": 97
    },
    {
      "midi": 72,
      "hit": false,
      "t": 108403.00000000025,
      "d": 241.59583333334012,
      "v": 93
    },
    {
      "midi": 76,
      "hit": false,
      "t": 108655.10000000025,
      "d": 241.59583333334012,
      "v": 91
    },
    {
      "midi": 74,
      "hit": false,
      "t": 108907.20000000026,
      "d": 346.6374999999971,
      "v": 97
    },
    {
      "midi": 67,
      "hit": false,
      "t": 110419.80000000025,
      "d": 346.6374999999971,
      "v": 85
    },
    {
      "midi": 71,
      "hit": false,
      "t": 110419.80000000025,
      "d": 346.6374999999971,
      "v": 82
    },
    {
      "midi": 74,
      "hit": false,
      "t": 110419.80000000025,
      "d": 346.6374999999971,
      "v": 86
    },
    {
      "midi": 84,
      "hit": false,
      "t": 110924.00000000025,
      "d": 178.5708333333314,
      "v": 90
    },
    {
      "midi": 72,
      "hit": false,
      "t": 110924.00000000025,
      "d": 189.0749999999971,
      "v": 89
    },
    {
      "midi": 84,
      "hit": false,
      "t": 111428.20000000024,
      "d": 152.31041666665988,
      "v": 91
    },
    {
      "midi": 72,
      "hit": false,
      "t": 111428.20000000024,
      "d": 183.82291666665697,
      "v": 89
    },
    {
      "midi": 84,
      "hit": false,
      "t": 111932.40000000024,
      "d": 126.05000000000291,
      "v": 83
    },
    {
      "midi": 72,
      "hit": false,
      "t": 111932.40000000024,
      "d": 152.31041666667443,
      "v": 93
    },
    {
      "midi": 84,
      "hit": false,
      "t": 112436.60000000025,
      "d": 136.5541666666686,
      "v": 81
    },
    {
      "midi": 72,
      "hit": false,
      "t": 112436.60000000025,
      "d": 157.5625,
      "v": 88
    },
    {
      "midi": 72,
      "hit": false,
      "t": 112940.80000000025,
      "d": 126.05000000000291,
      "v": 93
    },
    {
      "midi": 84,
      "hit": false,
      "t": 112940.80000000025,
      "d": 141.80625000000873,
      "v": 87
    },
    {
      "midi": 84,
      "hit": false,
      "t": 113445.00000000026,
      "d": 120.79791666666279,
      "v": 81
    },
    {
      "midi": 72,
      "hit": false,
      "t": 113445.00000000026,
      "d": 136.5541666666686,
      "v": 78
    },
    {
      "midi": 84,
      "hit": false,
      "t": 113949.20000000026,
      "d": 120.79791666666279,
      "v": 80
    },
    {
      "midi": 72,
      "hit": false,
      "t": 113949.20000000026,
      "d": 126.05000000000291,
      "v": 95
    },
    {
      "midi": 72,
      "hit": false,
      "t": 114453.40000000026,
      "d": 141.80624999999418,
      "v": 87
    },
    {
      "midi": 84,
      "hit": false,
      "t": 114453.40000000026,
      "d": 152.31041666665988,
      "v": 78
    },
    {
      "midi": 72,
      "hit": false,
      "t": 114957.60000000025,
      "d": 241.59583333334012,
      "v": 92
    },
    {
      "midi": 84,
      "hit": false,
      "t": 114957.60000000025,
      "d": 241.59583333334012,
      "v": 82
    },
    {
      "midi": 79,
      "hit": false,
      "t": 115209.70000000026,
      "d": 241.59583333334012,
      "v": 83
    },
    {
      "midi": 91,
      "hit": false,
      "t": 115209.70000000026,
      "d": 241.59583333334012,
      "v": 94
    },
    {
      "midi": 76,
      "hit": false,
      "t": 115461.80000000026,
      "d": 241.59583333334012,
      "v": 97
    },
    {
      "midi": 88,
      "hit": false,
      "t": 115461.80000000026,
      "d": 241.59583333334012,
      "v": 84
    },
    {
      "midi": 77,
      "hit": false,
      "t": 115713.90000000027,
      "d": 241.59583333334012,
      "v": 88
    },
    {
      "midi": 89,
      "hit": false,
      "t": 115713.90000000027,
      "d": 241.59583333334012,
      "v": 84
    },
    {
      "midi": 84,
      "hit": false,
      "t": 115966.00000000028,
      "d": 241.59583333334012,
      "v": 87
    },
    {
      "midi": 96,
      "hit": false,
      "t": 115966.00000000028,
      "d": 241.59583333334012,
      "v": 88
    },
    {
      "midi": 89,
      "hit": false,
      "t": 116218.10000000028,
      "d": 241.59583333334012,
      "v": 88
    },
    {
      "midi": 101,
      "hit": false,
      "t": 116218.10000000028,
      "d": 241.59583333334012,
      "v": 82
    },
    {
      "midi": 88,
      "hit": false,
      "t": 116722.3000000003,
      "d": 241.59583333334012,
      "v": 94
    },
    {
      "midi": 100,
      "hit": false,
      "t": 116722.3000000003,
      "d": 241.59583333334012,
      "v": 89
    },
    {
      "midi": 84,
      "hit": false,
      "t": 117226.5000000003,
      "d": 241.59583333334012,
      "v": 93
    },
    {
      "midi": 96,
      "hit": false,
      "t": 117226.5000000003,
      "d": 241.59583333334012,
      "v": 80
    },
    {
      "midi": 79,
      "hit": false,
      "t": 117730.70000000032,
      "d": 241.59583333334012,
      "v": 95
    },
    {
      "midi": 91,
      "hit": false,
      "t": 117730.70000000032,
      "d": 241.59583333334012,
      "v": 97
    },
    {
      "midi": 86,
      "hit": false,
      "t": 118487.00000000032,
      "d": 346.6374999999971,
      "v": 86
    },
    {
      "midi": 98,
      "hit": false,
      "t": 118487.00000000032,
      "d": 346.6374999999971,
      "v": 89
    },
    {
      "midi": 72,
      "hit": false,
      "t": 119495.40000000031,
      "d": 241.59583333334012,
      "v": 75
    },
    {
      "midi": 79,
      "hit": false,
      "t": 119747.50000000032,
      "d": 115.54583333333721,
      "v": 73
    },
    {
      "midi": 72,
      "hit": false,
      "t": 120251.70000000032,
      "d": 241.59583333334012,
      "v": 64
    },
    {
      "midi": 79,
      "hit": false,
      "t": 120503.80000000032,
      "d": 115.54583333333721,
      "v": 69
    },
    {
      "midi": 72,
      "hit": false,
      "t": 121512.20000000033,
      "d": 241.59583333334012,
      "v": 69
    },
    {
      "midi": 79,
      "hit": false,
      "t": 121764.30000000034,
      "d": 115.54583333333721,
      "v": 73
    },
    {
      "midi": 72,
      "hit": false,
      "t": 122268.50000000033,
      "d": 241.59583333334012,
      "v": 81
    },
    {
      "midi": 79,
      "hit": false,
      "t": 122520.60000000034,
      "d": 115.54583333333721,
      "v": 78
    },
    {
      "midi": 72,
      "hit": false,
      "t": 123529.00000000035,
      "d": 241.59583333334012,
      "v": 65
    },
    {
      "midi": 79,
      "hit": false,
      "t": 123781.10000000036,
      "d": 115.54583333333721,
      "v": 69
    },
    {
      "midi": 72,
      "hit": false,
      "t": 124285.30000000035,
      "d": 241.59583333334012,
      "v": 80
    },
    {
      "midi": 79,
      "hit": false,
      "t": 124537.40000000036,
      "d": 115.54583333333721,
      "v": 79
    },
    {
      "midi": 72,
      "hit": false,
      "t": 127562.60000000036,
      "d": 241.59583333334012,
      "v": 64
    },
    {
      "midi": 79,
      "hit": false,
      "t": 127814.70000000036,
      "d": 115.54583333333721,
      "v": 82
    },
    {
      "midi": 72,
      "hit": false,
      "t": 128318.90000000036,
      "d": 241.59583333334012,
      "v": 70
    },
    {
      "midi": 79,
      "hit": false,
      "t": 128571.00000000036,
      "d": 115.54583333333721,
      "v": 71
    },
    {
      "midi": 72,
      "hit": false,
      "t": 129579.40000000037,
      "d": 241.59583333334012,
      "v": 68
    },
    {
      "midi": 79,
      "hit": false,
      "t": 129831.50000000038,
      "d": 115.54583333333721,
      "v": 70
    },
    {
      "midi": 72,
      "hit": false,
      "t": 130335.70000000038,
      "d": 241.59583333334012,
      "v": 81
    },
    {
      "midi": 79,
      "hit": false,
      "t": 130587.80000000038,
      "d": 115.54583333333721,
      "v": 73
    },
    {
      "midi": 72,
      "hit": false,
      "t": 131596.2000000004,
      "d": 241.59583333332557,
      "v": 82
    },
    {
      "midi": 79,
      "hit": false,
      "t": 131848.3000000004,
      "d": 115.54583333333721,
      "v": 67
    },
    {
      "midi": 72,
      "hit": false,
      "t": 132352.5000000004,
      "d": 241.59583333332557,
      "v": 75
    },
    {
      "midi": 79,
      "hit": false,
      "t": 132604.6000000004,
      "d": 115.54583333333721,
      "v": 74
    },
    {
      "midi": 84,
      "hit": false,
      "t": 134117.20000000042,
      "d": 115.54583333333721,
      "v": 66
    },
    {
      "midi": 79,
      "hit": false,
      "t": 134243.25000000044,
      "d": 115.54583333333721,
      "v": 66
    },
    {
      "midi": 77,
      "hit": false,
      "t": 134369.30000000045,
      "d": 115.54583333333721,
      "v": 63
    },
    {
      "midi": 84,
      "hit": false,
      "t": 134495.35000000047,
      "d": 115.54583333333721,
      "v": 82
    },
    {
      "midi": 79,
      "hit": false,
      "t": 134621.4000000005,
      "d": 115.54583333333721,
      "v": 71
    },
    {
      "midi": 77,
      "hit": false,
      "t": 134747.4500000005,
      "d": 115.54583333333721,
      "v": 73
    },
    {
      "midi": 84,
      "hit": false,
      "t": 134873.50000000052,
      "d": 115.54583333333721,
      "v": 72
    },
    {
      "midi": 79,
      "hit": false,
      "t": 134999.55000000054,
      "d": 346.63750000001164,
      "v": 70
    },
    {
      "midi": 72,
      "hit": false,
      "t": 135629.80000000054,
      "d": 241.59583333332557,
      "v": 73
    },
    {
      "midi": 79,
      "hit": false,
      "t": 135881.90000000055,
      "d": 115.54583333333721,
      "v": 81
    },
    {
      "midi": 72,
      "hit": false,
      "t": 136386.10000000056,
      "d": 241.59583333332557,
      "v": 82
    },
    {
      "midi": 79,
      "hit": false,
      "t": 136638.20000000056,
      "d": 115.54583333333721,
      "v": 70
    },
    {
      "midi": 72,
      "hit": false,
      "t": 137646.60000000056,
      "d": 241.59583333332557,
      "v": 66
    },
    {
      "midi": 79,
      "hit": false,
      "t": 137898.70000000056,
      "d": 115.54583333333721,
      "v": 73
    },
    {
      "midi": 72,
      "hit": false,
      "t": 138402.90000000058,
      "d": 241.59583333332557,
      "v": 69
    },
    {
      "midi": 79,
      "hit": false,
      "t": 138655.00000000058,
      "d": 115.54583333333721,
      "v": 70
    },
    {
      "midi": 72,
      "hit": false,
      "t": 139663.40000000058,
      "d": 241.59583333332557,
      "v": 82
    },
    {
      "midi": 79,
      "hit": false,
      "t": 139915.50000000058,
      "d": 115.54583333333721,
      "v": 66
    },
    {
      "midi": 72,
      "hit": false,
      "t": 140419.7000000006,
      "d": 241.59583333332557,
      "v": 76
    },
    {
      "midi": 79,
      "hit": false,
      "t": 140671.8000000006,
      "d": 115.54583333333721,
      "v": 82
    },
    {
      "midi": 89,
      "hit": false,
      "t": 142940.7000000006,
      "d": 73.52916666667443,
      "v": 75
    },
    {
      "midi": 88,
      "hit": false,
      "t": 143024.73333333395,
      "d": 73.52916666667443,
      "v": 82
    },
    {
      "midi": 86,
      "hit": false,
      "t": 143108.7666666673,
      "d": 73.52916666667443,
      "v": 78
    },
    {
      "midi": 84,
      "hit": false,
      "t": 143192.80000000066,
      "d": 241.59583333332557,
      "v": 64
    },
    {
      "midi": 72,
      "hit": false,
      "t": 143697.00000000064,
      "d": 241.59583333332557,
      "v": 74
    },
    {
      "midi": 79,
      "hit": false,
      "t": 143949.10000000065,
      "d": 115.54583333333721,
      "v": 66
    },
    {
      "midi": 72,
      "hit": false,
      "t": 144453.30000000066,
      "d": 241.59583333332557,
      "v": 66
    },
    {
      "midi": 79,
      "hit": false,
      "t": 144705.40000000066,
      "d": 115.54583333333721,
      "v": 79
    },
    {
      "midi": 72,
      "hit": false,
      "t": 145713.80000000066,
      "d": 241.59583333332557,
      "v": 72
    },
    {
      "midi": 79,
      "hit": false,
      "t": 145965.90000000066,
      "d": 115.54583333333721,
      "v": 65
    },
    {
      "midi": 72,
      "hit": false,
      "t": 146470.10000000068,
      "d": 241.59583333332557,
      "v": 82
    },
    {
      "midi": 79,
      "hit": false,
      "t": 146722.20000000068,
      "d": 115.54583333333721,
      "v": 70
    },
    {
      "midi": 74,
      "hit": false,
      "t": 149243.20000000068,
      "d": 346.63750000001164,
      "v": 75
    },
    {
      "midi": 79,
      "hit": false,
      "t": 149243.20000000068,
      "d": 346.63750000001164,
      "v": 72
    },
    {
      "midi": 74,
      "hit": false,
      "t": 149747.4000000007,
      "d": 346.63750000001164,
      "v": 65
    },
    {
      "midi": 79,
      "hit": false,
      "t": 149747.4000000007,
      "d": 346.63750000001164,
      "v": 75
    },
    {
      "midi": 72,
      "hit": false,
      "t": 150251.6000000007,
      "d": 115.54583333333721,
      "v": 65
    },
    {
      "midi": 74,
      "hit": false,
      "t": 150251.6000000007,
      "d": 115.54583333333721,
      "v": 65
    },
    {
      "midi": 79,
      "hit": false,
      "t": 150251.6000000007,
      "d": 115.54583333333721,
      "v": 70
    },
    {
      "midi": 72,
      "hit": false,
      "t": 150503.7000000007,
      "d": 115.54583333333721,
      "v": 81
    },
    {
      "midi": 74,
      "hit": false,
      "t": 150503.7000000007,
      "d": 115.54583333333721,
      "v": 67
    },
    {
      "midi": 79,
      "hit": false,
      "t": 150503.7000000007,
      "d": 115.54583333333721,
      "v": 65
    },
    {
      "midi": 72,
      "hit": false,
      "t": 150755.80000000072,
      "d": 115.54583333333721,
      "v": 77
    },
    {
      "midi": 74,
      "hit": false,
      "t": 150755.80000000072,
      "d": 115.54583333333721,
      "v": 67
    },
    {
      "midi": 79,
      "hit": false,
      "t": 150755.80000000072,
      "d": 115.54583333333721,
      "v": 66
    },
    {
      "midi": 72,
      "hit": false,
      "t": 151007.90000000072,
      "d": 115.54583333333721,
      "v": 73
    },
    {
      "midi": 74,
      "hit": false,
      "t": 151007.90000000072,
      "d": 115.54583333333721,
      "v": 73
    },
    {
      "midi": 79,
      "hit": false,
      "t": 151007.90000000072,
      "d": 115.54583333333721,
      "v": 66
    },
    {
      "midi": 62,
      "hit": false,
      "t": 158318.80000000072,
      "d": 231.09166666667443,
      "v": 85
    },
    {
      "midi": 71,
      "hit": false,
      "t": 158318.80000000072,
      "d": 236.34375,
      "v": 86
    },
    {
      "midi": 67,
      "hit": false,
      "t": 158318.80000000072,
      "d": 241.59583333332557,
      "v": 93
    },
    {
      "midi": 71,
      "hit": false,
      "t": 158823.0000000007,
      "d": 225.83958333331975,
      "v": 89
    },
    {
      "midi": 62,
      "hit": false,
      "t": 158823.0000000007,
      "d": 231.09166666664532,
      "v": 78
    },
    {
      "midi": 67,
      "hit": false,
      "t": 158823.0000000007,
      "d": 241.59583333332557,
      "v": 90
    },
    {
      "midi": 41,
      "hit": false,
      "t": 159327.20000000068,
      "d": 3996.8354166666686,
      "v": 78
    },
    {
      "midi": 41,
      "hit": false,
      "t": 167394.4000000007,
      "d": 3996.8354166666686,
      "v": 94
    },
    {
      "midi": 55,
      "hit": false,
      "t": 175461.6000000007,
      "d": 1355.0375000000058,
      "v": 78
    },
    {
      "midi": 60,
      "hit": false,
      "t": 175461.6000000007,
      "d": 1386.5500000000175,
      "v": 89
    },
    {
      "midi": 64,
      "hit": false,
      "t": 175461.6000000007,
      "d": 1428.5666666666802,
      "v": 91
    },
    {
      "midi": 55,
      "hit": false,
      "t": 176974.2000000007,
      "d": 236.34375,
      "v": 88
    },
    {
      "midi": 64,
      "hit": false,
      "t": 177226.30000000072,
      "d": 1649.1541666666744,
      "v": 83
    },
    {
      "midi": 60,
      "hit": false,
      "t": 178991.00000000073,
      "d": 199.5791666666628,
      "v": 97
    },
    {
      "midi": 67,
      "hit": false,
      "t": 179243.10000000073,
      "d": 1654.40625,
      "v": 83
    },
    {
      "midi": 67,
      "hit": false,
      "t": 181007.80000000075,
      "d": 225.83958333331975,
      "v": 88
    },
    {
      "midi": 60,
      "hit": false,
      "t": 181259.90000000072,
      "d": 173.31875000000582,
      "v": 81
    },
    {
      "midi": 64,
      "hit": false,
      "t": 181512.00000000073,
      "d": 971.635416666657,
      "v": 84
    },
    {
      "midi": 67,
      "hit": false,
      "t": 181512.00000000073,
      "d": 987.3916666666628,
      "v": 85
    },
    {
      "midi": 60,
      "hit": false,
      "t": 181512.00000000073,
      "d": 997.895833333343,
      "v": 87
    },
    {
      "midi": 76,
      "hit": false,
      "t": 182520.40000000075,
      "d": 252.10000000000582,
      "v": 83
    },
    {
      "midi": 72,
      "hit": false,
      "t": 182772.50000000076,
      "d": 220.58749999999418,
      "v": 83
    },
    {
      "midi": 74,
      "hit": false,
      "t": 183024.60000000076,
      "d": 231.09166666667443,
      "v": 90
    },
    {
      "midi": 71,
      "hit": false,
      "t": 183276.70000000077,
      "d": 183.82291666665697,
      "v": 83
    },
    {
      "midi": 72,
      "hit": false,
      "t": 183528.80000000075,
      "d": 1733.1875,
      "v": 84
    },
    {
      "midi": 62,
      "hit": false,
      "t": 185293.50000000076,
      "d": 241.59583333332557,
      "v": 93
    },
    {
      "midi": 64,
      "hit": false,
      "t": 185545.60000000076,
      "d": 1355.0375000000058,
      "v": 85
    },
    {
      "midi": 64,
      "hit": false,
      "t": 187058.20000000077,
      "d": 472.6875,
      "v": 88
    },
    {
      "midi": 65,
      "hit": false,
      "t": 187562.40000000078,
      "d": 1481.0874999999942,
      "v": 89
    },
    {
      "midi": 65,
      "hit": false,
      "t": 189075.0000000008,
      "d": 472.6875,
      "v": 87
    },
    {
      "midi": 67,
      "hit": false,
      "t": 189579.2000000008,
      "d": 346.63750000001164,
      "v": 86
    },
    {
      "midi": 67,
      "hit": false,
      "t": 190083.4000000008,
      "d": 346.63750000001164,
      "v": 95
    },
    {
      "midi": 67,
      "hit": false,
      "t": 190587.60000000082,
      "d": 346.63750000001164,
      "v": 79
    },
    {
      "midi": 67,
      "hit": false,
      "t": 191091.80000000083,
      "d": 346.63750000001164,
      "v": 86
    },
    {
      "midi": 62,
      "hit": false,
      "t": 191596.00000000084,
      "d": 115.54583333333721,
      "v": 95
    },
    {
      "midi": 67,
      "hit": false,
      "t": 191596.00000000084,
      "d": 115.54583333333721,
      "v": 88
    },
    {
      "midi": 62,
      "hit": false,
      "t": 191848.10000000085,
      "d": 115.54583333333721,
      "v": 92
    },
    {
      "midi": 67,
      "hit": false,
      "t": 191848.10000000085,
      "d": 115.54583333333721,
      "v": 88
    },
    {
      "midi": 62,
      "hit": false,
      "t": 192100.20000000086,
      "d": 115.54583333333721,
      "v": 82
    },
    {
      "midi": 67,
      "hit": false,
      "t": 192100.20000000086,
      "d": 115.54583333333721,
      "v": 78
    },
    {
      "midi": 62,
      "hit": false,
      "t": 192352.30000000086,
      "d": 115.54583333333721,
      "v": 83
    },
    {
      "midi": 67,
      "hit": false,
      "t": 192352.30000000086,
      "d": 115.54583333333721,
      "v": 82
    },
    {
      "midi": 62,
      "hit": false,
      "t": 192604.40000000087,
      "d": 115.54583333333721,
      "v": 90
    },
    {
      "midi": 67,
      "hit": false,
      "t": 192604.40000000087,
      "d": 115.54583333333721,
      "v": 92
    },
    {
      "midi": 62,
      "hit": false,
      "t": 192856.50000000087,
      "d": 115.54583333333721,
      "v": 91
    },
    {
      "midi": 67,
      "hit": false,
      "t": 192856.50000000087,
      "d": 115.54583333333721,
      "v": 90
    },
    {
      "midi": 62,
      "hit": false,
      "t": 193108.60000000088,
      "d": 115.54583333333721,
      "v": 91
    },
    {
      "midi": 67,
      "hit": false,
      "t": 193108.60000000088,
      "d": 115.54583333333721,
      "v": 87
    },
    {
      "midi": 62,
      "hit": false,
      "t": 193360.70000000088,
      "d": 115.54583333333721,
      "v": 79
    },
    {
      "midi": 67,
      "hit": false,
      "t": 193360.70000000088,
      "d": 115.54583333333721,
      "v": 78
    },
    {
      "midi": 60,
      "hit": false,
      "t": 193612.8000000009,
      "d": 115.54583333333721,
      "v": 80
    },
    {
      "midi": 62,
      "hit": false,
      "t": 193612.8000000009,
      "d": 115.54583333333721,
      "v": 92
    },
    {
      "midi": 67,
      "hit": false,
      "t": 193612.8000000009,
      "d": 115.54583333333721,
      "v": 90
    },
    {
      "midi": 60,
      "hit": false,
      "t": 193864.9000000009,
      "d": 115.54583333333721,
      "v": 85
    },
    {
      "midi": 62,
      "hit": false,
      "t": 193864.9000000009,
      "d": 115.54583333333721,
      "v": 79
    },
    {
      "midi": 67,
      "hit": false,
      "t": 193864.9000000009,
      "d": 115.54583333333721,
      "v": 95
    },
    {
      "midi": 60,
      "hit": false,
      "t": 194117.0000000009,
      "d": 115.54583333333721,
      "v": 96
    },
    {
      "midi": 62,
      "hit": false,
      "t": 194117.0000000009,
      "d": 115.54583333333721,
      "v": 91
    },
    {
      "midi": 67,
      "hit": false,
      "t": 194117.0000000009,
      "d": 115.54583333333721,
      "v": 94
    },
    {
      "midi": 60,
      "hit": false,
      "t": 194369.1000000009,
      "d": 115.54583333333721,
      "v": 80
    },
    {
      "midi": 62,
      "hit": false,
      "t": 194369.1000000009,
      "d": 115.54583333333721,
      "v": 90
    },
    {
      "midi": 67,
      "hit": false,
      "t": 194369.1000000009,
      "d": 115.54583333333721,
      "v": 94
    },
    {
      "midi": 60,
      "hit": false,
      "t": 194621.2000000009,
      "d": 115.54583333333721,
      "v": 92
    },
    {
      "midi": 62,
      "hit": false,
      "t": 194621.2000000009,
      "d": 115.54583333333721,
      "v": 96
    },
    {
      "midi": 67,
      "hit": false,
      "t": 194621.2000000009,
      "d": 115.54583333333721,
      "v": 78
    },
    {
      "midi": 60,
      "hit": false,
      "t": 194873.30000000092,
      "d": 115.54583333333721,
      "v": 87
    },
    {
      "midi": 62,
      "hit": false,
      "t": 194873.30000000092,
      "d": 115.54583333333721,
      "v": 89
    },
    {
      "midi": 67,
      "hit": false,
      "t": 194873.30000000092,
      "d": 115.54583333333721,
      "v": 93
    },
    {
      "midi": 60,
      "hit": false,
      "t": 195125.40000000093,
      "d": 115.54583333333721,
      "v": 93
    },
    {
      "midi": 62,
      "hit": false,
      "t": 195125.40000000093,
      "d": 115.54583333333721,
      "v": 81
    },
    {
      "midi": 67,
      "hit": false,
      "t": 195125.40000000093,
      "d": 115.54583333333721,
      "v": 84
    },
    {
      "midi": 60,
      "hit": false,
      "t": 195377.50000000093,
      "d": 115.54583333333721,
      "v": 81
    },
    {
      "midi": 62,
      "hit": false,
      "t": 195377.50000000093,
      "d": 115.54583333333721,
      "v": 80
    },
    {
      "midi": 67,
      "hit": false,
      "t": 195377.50000000093,
      "d": 115.54583333333721,
      "v": 96
    },
    {
      "midi": 60,
      "hit": false,
      "t": 195629.60000000094,
      "d": 115.54583333333721,
      "v": 91
    },
    {
      "midi": 62,
      "hit": false,
      "t": 195629.60000000094,
      "d": 115.54583333333721,
      "v": 92
    },
    {
      "midi": 67,
      "hit": false,
      "t": 195629.60000000094,
      "d": 115.54583333333721,
      "v": 87
    },
    {
      "midi": 60,
      "hit": false,
      "t": 195881.70000000094,
      "d": 115.54583333333721,
      "v": 84
    },
    {
      "midi": 62,
      "hit": false,
      "t": 195881.70000000094,
      "d": 115.54583333333721,
      "v": 78
    },
    {
      "midi": 67,
      "hit": false,
      "t": 195881.70000000094,
      "d": 115.54583333333721,
      "v": 88
    },
    {
      "midi": 60,
      "hit": false,
      "t": 196133.80000000095,
      "d": 115.54583333333721,
      "v": 81
    },
    {
      "midi": 62,
      "hit": false,
      "t": 196133.80000000095,
      "d": 115.54583333333721,
      "v": 91
    },
    {
      "midi": 67,
      "hit": false,
      "t": 196133.80000000095,
      "d": 115.54583333333721,
      "v": 94
    },
    {
      "midi": 60,
      "hit": false,
      "t": 196385.90000000095,
      "d": 115.54583333333721,
      "v": 90
    },
    {
      "midi": 62,
      "hit": false,
      "t": 196385.90000000095,
      "d": 115.54583333333721,
      "v": 81
    },
    {
      "midi": 67,
      "hit": false,
      "t": 196385.90000000095,
      "d": 115.54583333333721,
      "v": 96
    },
    {
      "midi": 60,
      "hit": false,
      "t": 196638.00000000096,
      "d": 115.54583333333721,
      "v": 96
    },
    {
      "midi": 62,
      "hit": false,
      "t": 196638.00000000096,
      "d": 115.54583333333721,
      "v": 95
    },
    {
      "midi": 67,
      "hit": false,
      "t": 196638.00000000096,
      "d": 115.54583333333721,
      "v": 78
    },
    {
      "midi": 60,
      "hit": false,
      "t": 196890.10000000097,
      "d": 115.54583333333721,
      "v": 93
    },
    {
      "midi": 62,
      "hit": false,
      "t": 196890.10000000097,
      "d": 115.54583333333721,
      "v": 87
    },
    {
      "midi": 67,
      "hit": false,
      "t": 196890.10000000097,
      "d": 115.54583333333721,
      "v": 82
    },
    {
      "midi": 60,
      "hit": false,
      "t": 197142.20000000097,
      "d": 115.54583333333721,
      "v": 78
    },
    {
      "midi": 62,
      "hit": false,
      "t": 197142.20000000097,
      "d": 115.54583333333721,
      "v": 85
    },
    {
      "midi": 67,
      "hit": false,
      "t": 197142.20000000097,
      "d": 115.54583333333721,
      "v": 88
    },
    {
      "midi": 60,
      "hit": false,
      "t": 197394.30000000098,
      "d": 115.54583333333721,
      "v": 87
    },
    {
      "midi": 62,
      "hit": false,
      "t": 197394.30000000098,
      "d": 115.54583333333721,
      "v": 80
    },
    {
      "midi": 67,
      "hit": false,
      "t": 197394.30000000098,
      "d": 115.54583333333721,
      "v": 85
    },
    {
      "midi": 72,
      "hit": false,
      "t": 197646.40000000098,
      "d": 241.59583333332557,
      "v": 86
    },
    {
      "midi": 84,
      "hit": false,
      "t": 197646.40000000098,
      "d": 241.59583333332557,
      "v": 93
    },
    {
      "midi": 79,
      "hit": false,
      "t": 197898.500000001,
      "d": 241.59583333332557,
      "v": 93
    },
    {
      "midi": 91,
      "hit": false,
      "t": 197898.500000001,
      "d": 241.59583333332557,
      "v": 90
    },
    {
      "midi": 76,
      "hit": false,
      "t": 198150.600000001,
      "d": 241.59583333332557,
      "v": 88
    },
    {
      "midi": 88,
      "hit": false,
      "t": 198150.600000001,
      "d": 241.59583333332557,
      "v": 82
    },
    {
      "midi": 77,
      "hit": false,
      "t": 198402.700000001,
      "d": 241.59583333332557,
      "v": 95
    },
    {
      "midi": 89,
      "hit": false,
      "t": 198402.700000001,
      "d": 241.59583333332557,
      "v": 81
    },
    {
      "midi": 84,
      "hit": false,
      "t": 198654.800000001,
      "d": 241.59583333332557,
      "v": 95
    },
    {
      "midi": 96,
      "hit": false,
      "t": 198654.800000001,
      "d": 241.59583333332557,
      "v": 85
    },
    {
      "midi": 89,
      "hit": false,
      "t": 198906.900000001,
      "d": 241.59583333332557,
      "v": 95
    },
    {
      "midi": 101,
      "hit": false,
      "t": 198906.900000001,
      "d": 241.59583333332557,
      "v": 91
    },
    {
      "midi": 88,
      "hit": false,
      "t": 199411.100000001,
      "d": 241.59583333332557,
      "v": 81
    },
    {
      "midi": 100,
      "hit": false,
      "t": 199411.100000001,
      "d": 241.59583333332557,
      "v": 86
    },
    {
      "midi": 84,
      "hit": false,
      "t": 199915.30000000098,
      "d": 241.59583333332557,
      "v": 97
    },
    {
      "midi": 96,
      "hit": false,
      "t": 199915.30000000098,
      "d": 241.59583333332557,
      "v": 97
    },
    {
      "midi": 79,
      "hit": false,
      "t": 200419.50000000096,
      "d": 241.59583333332557,
      "v": 97
    },
    {
      "midi": 91,
      "hit": false,
      "t": 200419.50000000096,
      "d": 241.59583333332557,
      "v": 80
    },
    {
      "midi": 86,
      "hit": false,
      "t": 201175.80000000095,
      "d": 346.63750000001164,
      "v": 92
    },
    {
      "midi": 98,
      "hit": false,
      "t": 201175.80000000095,
      "d": 346.63750000001164,
      "v": 94
    },
    {
      "midi": 72,
      "hit": false,
      "t": 201680.00000000096,
      "d": 241.59583333332557,
      "v": 95
    },
    {
      "midi": 84,
      "hit": false,
      "t": 201680.00000000096,
      "d": 241.59583333332557,
      "v": 89
    },
    {
      "midi": 79,
      "hit": false,
      "t": 201932.10000000097,
      "d": 241.59583333332557,
      "v": 79
    },
    {
      "midi": 91,
      "hit": false,
      "t": 201932.10000000097,
      "d": 241.59583333332557,
      "v": 93
    },
    {
      "midi": 76,
      "hit": false,
      "t": 202184.20000000097,
      "d": 241.59583333332557,
      "v": 86
    },
    {
      "midi": 88,
      "hit": false,
      "t": 202184.20000000097,
      "d": 241.59583333332557,
      "v": 95
    },
    {
      "midi": 77,
      "hit": false,
      "t": 202436.30000000098,
      "d": 241.59583333332557,
      "v": 78
    },
    {
      "midi": 89,
      "hit": false,
      "t": 202436.30000000098,
      "d": 241.59583333332557,
      "v": 87
    },
    {
      "midi": 84,
      "hit": false,
      "t": 202688.40000000098,
      "d": 241.59583333332557,
      "v": 92
    },
    {
      "midi": 96,
      "hit": false,
      "t": 202688.40000000098,
      "d": 241.59583333332557,
      "v": 84
    },
    {
      "midi": 89,
      "hit": false,
      "t": 202940.500000001,
      "d": 241.59583333332557,
      "v": 88
    },
    {
      "midi": 101,
      "hit": false,
      "t": 202940.500000001,
      "d": 241.59583333332557,
      "v": 96
    },
    {
      "midi": 88,
      "hit": false,
      "t": 203444.70000000097,
      "d": 241.59583333332557,
      "v": 97
    },
    {
      "midi": 100,
      "hit": false,
      "t": 203444.70000000097,
      "d": 241.59583333332557,
      "v": 94
    },
    {
      "midi": 84,
      "hit": false,
      "t": 203948.90000000095,
      "d": 241.59583333332557,
      "v": 85
    },
    {
      "midi": 96,
      "hit": false,
      "t": 203948.90000000095,
      "d": 241.59583333332557,
      "v": 91
    },
    {
      "midi": 79,
      "hit": false,
      "t": 204453.10000000094,
      "d": 241.59583333332557,
      "v": 88
    },
    {
      "midi": 91,
      "hit": false,
      "t": 204453.10000000094,
      "d": 241.59583333332557,
      "v": 85
    },
    {
      "midi": 86,
      "hit": false,
      "t": 205209.40000000093,
      "d": 346.63750000001164,
      "v": 90
    },
    {
      "midi": 98,
      "hit": false,
      "t": 205209.40000000093,
      "d": 346.63750000001164,
      "v": 83
    },
    {
      "midi": 72,
      "hit": false,
      "t": 205713.60000000094,
      "d": 241.59583333332557,
      "v": 78
    },
    {
      "midi": 84,
      "hit": false,
      "t": 205713.60000000094,
      "d": 241.59583333332557,
      "v": 79
    },
    {
      "midi": 79,
      "hit": false,
      "t": 205965.70000000094,
      "d": 241.59583333332557,
      "v": 79
    },
    {
      "midi": 91,
      "hit": false,
      "t": 205965.70000000094,
      "d": 241.59583333332557,
      "v": 95
    },
    {
      "midi": 76,
      "hit": false,
      "t": 206217.80000000095,
      "d": 241.59583333332557,
      "v": 92
    },
    {
      "midi": 88,
      "hit": false,
      "t": 206217.80000000095,
      "d": 241.59583333332557,
      "v": 80
    },
    {
      "midi": 77,
      "hit": false,
      "t": 206469.90000000095,
      "d": 241.59583333332557,
      "v": 97
    },
    {
      "midi": 89,
      "hit": false,
      "t": 206469.90000000095,
      "d": 241.59583333332557,
      "v": 88
    },
    {
      "midi": 84,
      "hit": false,
      "t": 206722.00000000096,
      "d": 241.59583333332557,
      "v": 82
    },
    {
      "midi": 96,
      "hit": false,
      "t": 206722.00000000096,
      "d": 241.59583333332557,
      "v": 80
    },
    {
      "midi": 89,
      "hit": false,
      "t": 206974.10000000097,
      "d": 241.59583333332557,
      "v": 84
    },
    {
      "midi": 101,
      "hit": false,
      "t": 206974.10000000097,
      "d": 241.59583333332557,
      "v": 79
    },
    {
      "midi": 88,
      "hit": false,
      "t": 207478.30000000095,
      "d": 241.59583333332557,
      "v": 88
    },
    {
      "midi": 100,
      "hit": false,
      "t": 207478.30000000095,
      "d": 241.59583333332557,
      "v": 96
    },
    {
      "midi": 84,
      "hit": false,
      "t": 207982.50000000093,
      "d": 241.59583333332557,
      "v": 95
    },
    {
      "midi": 96,
      "hit": false,
      "t": 207982.50000000093,
      "d": 241.59583333332557,
      "v": 97
    },
    {
      "midi": 79,
      "hit": false,
      "t": 208486.7000000009,
      "d": 241.59583333332557,
      "v": 95
    },
    {
      "midi": 91,
      "hit": false,
      "t": 208486.7000000009,
      "d": 241.59583333332557,
      "v": 83
    },
    {
      "midi": 86,
      "hit": false,
      "t": 209243.0000000009,
      "d": 346.63750000001164,
      "v": 97
    },
    {
      "midi": 98,
      "hit": false,
      "t": 209243.0000000009,
      "d": 346.63750000001164,
      "v": 91
    },
    {
      "midi": 72,
      "hit": false,
      "t": 209747.2000000009,
      "d": 241.59583333332557,
      "v": 90
    },
    {
      "midi": 84,
      "hit": false,
      "t": 209747.2000000009,
      "d": 241.59583333332557,
      "v": 95
    },
    {
      "midi": 79,
      "hit": false,
      "t": 209999.30000000092,
      "d": 241.59583333332557,
      "v": 78
    },
    {
      "midi": 91,
      "hit": false,
      "t": 209999.30000000092,
      "d": 241.59583333332557,
      "v": 96
    },
    {
      "midi": 76,
      "hit": false,
      "t": 210251.40000000093,
      "d": 241.59583333332557,
      "v": 86
    },
    {
      "midi": 88,
      "hit": false,
      "t": 210251.40000000093,
      "d": 241.59583333332557,
      "v": 80
    },
    {
      "midi": 77,
      "hit": false,
      "t": 210503.50000000093,
      "d": 241.59583333332557,
      "v": 95
    },
    {
      "midi": 89,
      "hit": false,
      "t": 210503.50000000093,
      "d": 241.59583333332557,
      "v": 92
    },
    {
      "midi": 84,
      "hit": false,
      "t": 210755.60000000094,
      "d": 241.59583333332557,
      "v": 90
    },
    {
      "midi": 96,
      "hit": false,
      "t": 210755.60000000094,
      "d": 241.59583333332557,
      "v": 81
    },
    {
      "midi": 89,
      "hit": false,
      "t": 211007.70000000094,
      "d": 241.59583333332557,
      "v": 94
    },
    {
      "midi": 101,
      "hit": false,
      "t": 211007.70000000094,
      "d": 241.59583333332557,
      "v": 79
    },
    {
      "midi": 88,
      "hit": false,
      "t": 211511.90000000093,
      "d": 241.59583333332557,
      "v": 78
    },
    {
      "midi": 100,
      "hit": false,
      "t": 211511.90000000093,
      "d": 241.59583333332557,
      "v": 83
    },
    {
      "midi": 84,
      "hit": false,
      "t": 212016.1000000009,
      "d": 241.59583333332557,
      "v": 87
    },
    {
      "midi": 96,
      "hit": false,
      "t": 212016.1000000009,
      "d": 241.59583333332557,
      "v": 86
    },
    {
      "midi": 79,
      "hit": false,
      "t": 212520.3000000009,
      "d": 241.59583333332557,
      "v": 90
    },
    {
      "midi": 91,
      "hit": false,
      "t": 212520.3000000009,
      "d": 241.59583333332557,
      "v": 89
    },
    {
      "midi": 86,
      "hit": false,
      "t": 213276.60000000088,
      "d": 346.63750000001164,
      "v": 79
    },
    {
      "midi": 98,
      "hit": false,
      "t": 213276.60000000088,
      "d": 346.63750000001164,
      "v": 80
    },
    {
      "midi": 72,
      "hit": false,
      "t": 213780.8000000009,
      "d": 241.59583333332557,
      "v": 97
    },
    {
      "midi": 84,
      "hit": false,
      "t": 213780.8000000009,
      "d": 241.59583333332557,
      "v": 90
    },
    {
      "midi": 79,
      "hit": false,
      "t": 214032.9000000009,
      "d": 241.59583333332557,
      "v": 81
    },
    {
      "midi": 91,
      "hit": false,
      "t": 214032.9000000009,
      "d": 241.59583333332557,
      "v": 96
    },
    {
      "midi": 76,
      "hit": false,
      "t": 214285.0000000009,
      "d": 241.59583333332557,
      "v": 87
    },
    {
      "midi": 88,
      "hit": false,
      "t": 214285.0000000009,
      "d": 241.59583333332557,
      "v": 96
    },
    {
      "midi": 77,
      "hit": false,
      "t": 214537.1000000009,
      "d": 241.59583333332557,
      "v": 83
    },
    {
      "midi": 89,
      "hit": false,
      "t": 214537.1000000009,
      "d": 241.59583333332557,
      "v": 83
    },
    {
      "midi": 84,
      "hit": false,
      "t": 214789.2000000009,
      "d": 241.59583333332557,
      "v": 82
    },
    {
      "midi": 96,
      "hit": false,
      "t": 214789.2000000009,
      "d": 241.59583333332557,
      "v": 95
    },
    {
      "midi": 89,
      "hit": false,
      "t": 215041.30000000092,
      "d": 241.59583333332557,
      "v": 78
    },
    {
      "midi": 101,
      "hit": false,
      "t": 215041.30000000092,
      "d": 241.59583333332557,
      "v": 86
    },
    {
      "midi": 88,
      "hit": false,
      "t": 215545.5000000009,
      "d": 241.59583333332557,
      "v": 90
    },
    {
      "midi": 100,
      "hit": false,
      "t": 215545.5000000009,
      "d": 241.59583333332557,
      "v": 92
    },
    {
      "midi": 84,
      "hit": false,
      "t": 216049.70000000088,
      "d": 241.59583333332557,
      "v": 84
    },
    {
      "midi": 96,
      "hit": false,
      "t": 216049.70000000088,
      "d": 241.59583333332557,
      "v": 93
    },
    {
      "midi": 79,
      "hit": false,
      "t": 216553.90000000087,
      "d": 241.59583333332557,
      "v": 97
    },
    {
      "midi": 91,
      "hit": false,
      "t": 216553.90000000087,
      "d": 241.59583333332557,
      "v": 81
    },
    {
      "midi": 86,
      "hit": false,
      "t": 217310.20000000086,
      "d": 346.63750000001164,
      "v": 79
    },
    {
      "midi": 98,
      "hit": false,
      "t": 217310.20000000086,
      "d": 346.63750000001164,
      "v": 96
    },
    {
      "midi": 72,
      "hit": false,
      "t": 217814.40000000087,
      "d": 241.59583333332557,
      "v": 85
    },
    {
      "midi": 84,
      "hit": false,
      "t": 217814.40000000087,
      "d": 241.59583333332557,
      "v": 90
    },
    {
      "midi": 79,
      "hit": false,
      "t": 218066.50000000087,
      "d": 241.59583333332557,
      "v": 94
    },
    {
      "midi": 91,
      "hit": false,
      "t": 218066.50000000087,
      "d": 241.59583333332557,
      "v": 83
    },
    {
      "midi": 76,
      "hit": false,
      "t": 218318.60000000088,
      "d": 241.59583333332557,
      "v": 97
    },
    {
      "midi": 88,
      "hit": false,
      "t": 218318.60000000088,
      "d": 241.59583333332557,
      "v": 86
    },
    {
      "midi": 77,
      "hit": false,
      "t": 218570.70000000088,
      "d": 241.59583333332557,
      "v": 95
    },
    {
      "midi": 89,
      "hit": false,
      "t": 218570.70000000088,
      "d": 241.59583333332557,
      "v": 90
    },
    {
      "midi": 84,
      "hit": false,
      "t": 218822.8000000009,
      "d": 241.59583333332557,
      "v": 86
    },
    {
      "midi": 96,
      "hit": false,
      "t": 218822.8000000009,
      "d": 241.59583333332557,
      "v": 93
    },
    {
      "midi": 89,
      "hit": false,
      "t": 219074.9000000009,
      "d": 241.59583333332557,
      "v": 91
    },
    {
      "midi": 101,
      "hit": false,
      "t": 219074.9000000009,
      "d": 241.59583333332557,
      "v": 86
    },
    {
      "midi": 88,
      "hit": false,
      "t": 219579.10000000088,
      "d": 241.59583333332557,
      "v": 83
    },
    {
      "midi": 100,
      "hit": false,
      "t": 219579.10000000088,
      "d": 241.59583333332557,
      "v": 79
    },
    {
      "midi": 84,
      "hit": false,
      "t": 220083.30000000086,
      "d": 241.59583333332557,
      "v": 80
    },
    {
      "midi": 96,
      "hit": false,
      "t": 220083.30000000086,
      "d": 241.59583333332557,
      "v": 88
    },
    {
      "midi": 79,
      "hit": false,
      "t": 220587.50000000084,
      "d": 241.59583333332557,
      "v": 85
    },
    {
      "midi": 91,
      "hit": false,
      "t": 220587.50000000084,
      "d": 241.59583333332557,
      "v": 88
    },
    {
      "midi": 86,
      "hit": false,
      "t": 221343.80000000083,
      "d": 346.63750000001164,
      "v": 91
    },
    {
      "midi": 98,
      "hit": false,
      "t": 221343.80000000083,
      "d": 346.63750000001164,
      "v": 84
    },
    {
      "midi": 72,
      "hit": false,
      "t": 221848.00000000084,
      "d": 241.59583333332557,
      "v": 89
    },
    {
      "midi": 84,
      "hit": false,
      "t": 221848.00000000084,
      "d": 241.59583333332557,
      "v": 81
    },
    {
      "midi": 79,
      "hit": false,
      "t": 222100.10000000085,
      "d": 241.59583333332557,
      "v": 78
    },
    {
      "midi": 91,
      "hit": false,
      "t": 222100.10000000085,
      "d": 241.59583333332557,
      "v": 95
    },
    {
      "midi": 76,
      "hit": false,
      "t": 222352.20000000086,
      "d": 241.59583333332557,
      "v": 85
    },
    {
      "midi": 88,
      "hit": false,
      "t": 222352.20000000086,
      "d": 241.59583333332557,
      "v": 93
    },
    {
      "midi": 77,
      "hit": false,
      "t": 222604.30000000086,
      "d": 241.59583333332557,
      "v": 94
    },
    {
      "midi": 89,
      "hit": false,
      "t": 222604.30000000086,
      "d": 241.59583333332557,
      "v": 82
    },
    {
      "midi": 84,
      "hit": false,
      "t": 222856.40000000087,
      "d": 241.59583333332557,
      "v": 90
    },
    {
      "midi": 96,
      "hit": false,
      "t": 222856.40000000087,
      "d": 241.59583333332557,
      "v": 85
    },
    {
      "midi": 89,
      "hit": false,
      "t": 223108.50000000087,
      "d": 241.59583333332557,
      "v": 93
    },
    {
      "midi": 101,
      "hit": false,
      "t": 223108.50000000087,
      "d": 241.59583333332557,
      "v": 88
    },
    {
      "midi": 88,
      "hit": false,
      "t": 223612.70000000086,
      "d": 241.59583333332557,
      "v": 85
    },
    {
      "midi": 100,
      "hit": false,
      "t": 223612.70000000086,
      "d": 241.59583333332557,
      "v": 90
    },
    {
      "midi": 84,
      "hit": false,
      "t": 224116.90000000084,
      "d": 241.59583333332557,
      "v": 96
    },
    {
      "midi": 96,
      "hit": false,
      "t": 224116.90000000084,
      "d": 241.59583333332557,
      "v": 90
    },
    {
      "midi": 79,
      "hit": false,
      "t": 224621.10000000082,
      "d": 241.59583333332557,
      "v": 97
    },
    {
      "midi": 91,
      "hit": false,
      "t": 224621.10000000082,
      "d": 241.59583333332557,
      "v": 78
    },
    {
      "midi": 86,
      "hit": false,
      "t": 225377.4000000008,
      "d": 346.63750000001164,
      "v": 81
    },
    {
      "midi": 98,
      "hit": false,
      "t": 225377.4000000008,
      "d": 346.63750000001164,
      "v": 90
    },
    {
      "midi": 72,
      "hit": false,
      "t": 225881.60000000082,
      "d": 241.59583333332557,
      "v": 92
    },
    {
      "midi": 84,
      "hit": false,
      "t": 225881.60000000082,
      "d": 241.59583333332557,
      "v": 91
    },
    {
      "midi": 79,
      "hit": false,
      "t": 226133.70000000083,
      "d": 241.59583333332557,
      "v": 80
    },
    {
      "midi": 91,
      "hit": false,
      "t": 226133.70000000083,
      "d": 241.59583333332557,
      "v": 81
    },
    {
      "midi": 76,
      "hit": false,
      "t": 226385.80000000083,
      "d": 241.59583333332557,
      "v": 84
    },
    {
      "midi": 88,
      "hit": false,
      "t": 226385.80000000083,
      "d": 241.59583333332557,
      "v": 96
    },
    {
      "midi": 77,
      "hit": false,
      "t": 226637.90000000084,
      "d": 241.59583333332557,
      "v": 79
    },
    {
      "midi": 89,
      "hit": false,
      "t": 226637.90000000084,
      "d": 241.59583333332557,
      "v": 81
    },
    {
      "midi": 84,
      "hit": false,
      "t": 226890.00000000084,
      "d": 241.59583333332557,
      "v": 94
    },
    {
      "midi": 96,
      "hit": false,
      "t": 226890.00000000084,
      "d": 241.59583333332557,
      "v": 91
    },
    {
      "midi": 89,
      "hit": false,
      "t": 227142.10000000085,
      "d": 241.59583333332557,
      "v": 84
    },
    {
      "midi": 101,
      "hit": false,
      "t": 227142.10000000085,
      "d": 241.59583333332557,
      "v": 96
    },
    {
      "midi": 88,
      "hit": false,
      "t": 227646.30000000083,
      "d": 241.59583333332557,
      "v": 97
    },
    {
      "midi": 100,
      "hit": false,
      "t": 227646.30000000083,
      "d": 241.59583333332557,
      "v": 91
    },
    {
      "midi": 84,
      "hit": false,
      "t": 228150.50000000081,
      "d": 241.59583333332557,
      "v": 94
    },
    {
      "midi": 96,
      "hit": false,
      "t": 228150.50000000081,
      "d": 241.59583333332557,
      "v": 82
    },
    {
      "midi": 79,
      "hit": false,
      "t": 228654.7000000008,
      "d": 241.59583333332557,
      "v": 86
    },
    {
      "midi": 91,
      "hit": false,
      "t": 228654.7000000008,
      "d": 241.59583333332557,
      "v": 78
    },
    {
      "midi": 86,
      "hit": false,
      "t": 229411.0000000008,
      "d": 346.63750000001164,
      "v": 93
    },
    {
      "midi": 98,
      "hit": false,
      "t": 229411.0000000008,
      "d": 346.63750000001164,
      "v": 97
    },
    {
      "midi": 72,
      "hit": false,
      "t": 229915.2000000008,
      "d": 241.59583333332557,
      "v": 88
    },
    {
      "midi": 84,
      "hit": false,
      "t": 229915.2000000008,
      "d": 241.59583333332557,
      "v": 83
    },
    {
      "midi": 79,
      "hit": false,
      "t": 230167.3000000008,
      "d": 241.59583333332557,
      "v": 95
    },
    {
      "midi": 91,
      "hit": false,
      "t": 230167.3000000008,
      "d": 241.59583333332557,
      "v": 92
    },
    {
      "midi": 76,
      "hit": false,
      "t": 230419.4000000008,
      "d": 241.59583333332557,
      "v": 81
    },
    {
      "midi": 88,
      "hit": false,
      "t": 230419.4000000008,
      "d": 241.59583333332557,
      "v": 82
    },
    {
      "midi": 77,
      "hit": false,
      "t": 230671.50000000081,
      "d": 241.59583333332557,
      "v": 87
    },
    {
      "midi": 89,
      "hit": false,
      "t": 230671.50000000081,
      "d": 241.59583333332557,
      "v": 94
    },
    {
      "midi": 84,
      "hit": false,
      "t": 230923.60000000082,
      "d": 241.59583333332557,
      "v": 79
    },
    {
      "midi": 96,
      "hit": false,
      "t": 230923.60000000082,
      "d": 241.59583333332557,
      "v": 88
    },
    {
      "midi": 89,
      "hit": false,
      "t": 231175.70000000083,
      "d": 241.59583333332557,
      "v": 82
    },
    {
      "midi": 101,
      "hit": false,
      "t": 231175.70000000083,
      "d": 241.59583333332557,
      "v": 92
    },
    {
      "midi": 88,
      "hit": false,
      "t": 231679.9000000008,
      "d": 241.59583333332557,
      "v": 81
    },
    {
      "midi": 100,
      "hit": false,
      "t": 231679.9000000008,
      "d": 241.59583333332557,
      "v": 83
    },
    {
      "midi": 84,
      "hit": false,
      "t": 232184.1000000008,
      "d": 241.59583333332557,
      "v": 92
    },
    {
      "midi": 96,
      "hit": false,
      "t": 232184.1000000008,
      "d": 241.59583333332557,
      "v": 79
    },
    {
      "midi": 79,
      "hit": false,
      "t": 232688.30000000077,
      "d": 241.59583333332557,
      "v": 80
    },
    {
      "midi": 91,
      "hit": false,
      "t": 232688.30000000077,
      "d": 241.59583333332557,
      "v": 91
    },
    {
      "midi": 86,
      "hit": false,
      "t": 233444.60000000076,
      "d": 346.63750000001164,
      "v": 94
    },
    {
      "midi": 98,
      "hit": false,
      "t": 233444.60000000076,
      "d": 346.63750000001164,
      "v": 78
    },
    {
      "midi": 72,
      "hit": false,
      "t": 233948.80000000077,
      "d": 241.59583333332557,
      "v": 86
    },
    {
      "midi": 84,
      "hit": false,
      "t": 233948.80000000077,
      "d": 241.59583333332557,
      "v": 86
    },
    {
      "midi": 79,
      "hit": false,
      "t": 234200.90000000078,
      "d": 241.59583333332557,
      "v": 90
    },
    {
      "midi": 91,
      "hit": false,
      "t": 234200.90000000078,
      "d": 241.59583333332557,
      "v": 92
    },
    {
      "midi": 76,
      "hit": false,
      "t": 234453.0000000008,
      "d": 241.59583333332557,
      "v": 89
    },
    {
      "midi": 88,
      "hit": false,
      "t": 234453.0000000008,
      "d": 241.59583333332557,
      "v": 93
    },
    {
      "midi": 77,
      "hit": false,
      "t": 234705.1000000008,
      "d": 241.59583333332557,
      "v": 83
    },
    {
      "midi": 89,
      "hit": false,
      "t": 234705.1000000008,
      "d": 241.59583333332557,
      "v": 93
    },
    {
      "midi": 84,
      "hit": false,
      "t": 234957.2000000008,
      "d": 241.59583333332557,
      "v": 86
    },
    {
      "midi": 96,
      "hit": false,
      "t": 234957.2000000008,
      "d": 241.59583333332557,
      "v": 87
    },
    {
      "midi": 89,
      "hit": false,
      "t": 235209.3000000008,
      "d": 241.59583333332557,
      "v": 90
    },
    {
      "midi": 101,
      "hit": false,
      "t": 235209.3000000008,
      "d": 241.59583333332557,
      "v": 92
    },
    {
      "midi": 88,
      "hit": false,
      "t": 235713.5000000008,
      "d": 241.59583333332557,
      "v": 92
    },
    {
      "midi": 100,
      "hit": false,
      "t": 235713.5000000008,
      "d": 241.59583333332557,
      "v": 83
    },
    {
      "midi": 84,
      "hit": false,
      "t": 236217.70000000077,
      "d": 241.59583333332557,
      "v": 82
    },
    {
      "midi": 96,
      "hit": false,
      "t": 236217.70000000077,
      "d": 241.59583333332557,
      "v": 93
    },
    {
      "midi": 79,
      "hit": false,
      "t": 236721.90000000075,
      "d": 241.59583333332557,
      "v": 86
    },
    {
      "midi": 91,
      "hit": false,
      "t": 236721.90000000075,
      "d": 241.59583333332557,
      "v": 84
    },
    {
      "midi": 86,
      "hit": false,
      "t": 237478.20000000074,
      "d": 346.63750000001164,
      "v": 94
    },
    {
      "midi": 98,
      "hit": false,
      "t": 237478.20000000074,
      "d": 346.63750000001164,
      "v": 90
    },
    {
      "midi": 72,
      "hit": false,
      "t": 237982.40000000075,
      "d": 241.59583333332557,
      "v": 86
    },
    {
      "midi": 84,
      "hit": false,
      "t": 237982.40000000075,
      "d": 241.59583333332557,
      "v": 85
    },
    {
      "midi": 79,
      "hit": false,
      "t": 238234.50000000076,
      "d": 241.59583333332557,
      "v": 94
    },
    {
      "midi": 91,
      "hit": false,
      "t": 238234.50000000076,
      "d": 241.59583333332557,
      "v": 78
    },
    {
      "midi": 76,
      "hit": false,
      "t": 238486.60000000076,
      "d": 241.59583333332557,
      "v": 84
    },
    {
      "midi": 88,
      "hit": false,
      "t": 238486.60000000076,
      "d": 241.59583333332557,
      "v": 88
    },
    {
      "midi": 77,
      "hit": false,
      "t": 238738.70000000077,
      "d": 241.59583333332557,
      "v": 94
    },
    {
      "midi": 89,
      "hit": false,
      "t": 238738.70000000077,
      "d": 241.59583333332557,
      "v": 95
    },
    {
      "midi": 84,
      "hit": false,
      "t": 238990.80000000077,
      "d": 241.59583333332557,
      "v": 93
    },
    {
      "midi": 96,
      "hit": false,
      "t": 238990.80000000077,
      "d": 241.59583333332557,
      "v": 93
    },
    {
      "midi": 89,
      "hit": false,
      "t": 239242.90000000078,
      "d": 241.59583333332557,
      "v": 82
    },
    {
      "midi": 101,
      "hit": false,
      "t": 239242.90000000078,
      "d": 241.59583333332557,
      "v": 84
    },
    {
      "midi": 88,
      "hit": false,
      "t": 239747.10000000076,
      "d": 241.59583333332557,
      "v": 93
    },
    {
      "midi": 100,
      "hit": false,
      "t": 239747.10000000076,
      "d": 241.59583333332557,
      "v": 91
    },
    {
      "midi": 84,
      "hit": false,
      "t": 240251.30000000075,
      "d": 241.59583333332557,
      "v": 95
    },
    {
      "midi": 96,
      "hit": false,
      "t": 240251.30000000075,
      "d": 241.59583333332557,
      "v": 86
    },
    {
      "midi": 79,
      "hit": false,
      "t": 240755.50000000073,
      "d": 241.59583333332557,
      "v": 86
    },
    {
      "midi": 91,
      "hit": false,
      "t": 240755.50000000073,
      "d": 241.59583333332557,
      "v": 97
    },
    {
      "midi": 86,
      "hit": false,
      "t": 241511.80000000072,
      "d": 346.63750000001164,
      "v": 82
    },
    {
      "midi": 98,
      "hit": false,
      "t": 241511.80000000072,
      "d": 346.63750000001164,
      "v": 91
    },
    {
      "midi": 72,
      "hit": false,
      "t": 242016.00000000073,
      "d": 241.59583333332557,
      "v": 95
    },
    {
      "midi": 84,
      "hit": false,
      "t": 242016.00000000073,
      "d": 241.59583333332557,
      "v": 78
    },
    {
      "midi": 79,
      "hit": false,
      "t": 242268.10000000073,
      "d": 241.59583333332557,
      "v": 90
    },
    {
      "midi": 91,
      "hit": false,
      "t": 242268.10000000073,
      "d": 241.59583333332557,
      "v": 82
    },
    {
      "midi": 76,
      "hit": false,
      "t": 242520.20000000074,
      "d": 241.59583333332557,
      "v": 85
    },
    {
      "midi": 88,
      "hit": false,
      "t": 242520.20000000074,
      "d": 241.59583333332557,
      "v": 94
    },
    {
      "midi": 77,
      "hit": false,
      "t": 242772.30000000075,
      "d": 241.59583333332557,
      "v": 91
    },
    {
      "midi": 89,
      "hit": false,
      "t": 242772.30000000075,
      "d": 241.59583333332557,
      "v": 95
    },
    {
      "midi": 84,
      "hit": false,
      "t": 243024.40000000075,
      "d": 241.59583333332557,
      "v": 92
    },
    {
      "midi": 96,
      "hit": false,
      "t": 243024.40000000075,
      "d": 241.59583333332557,
      "v": 96
    },
    {
      "midi": 89,
      "hit": false,
      "t": 243276.50000000076,
      "d": 241.59583333332557,
      "v": 85
    },
    {
      "midi": 101,
      "hit": false,
      "t": 243276.50000000076,
      "d": 241.59583333332557,
      "v": 92
    },
    {
      "midi": 88,
      "hit": false,
      "t": 243780.70000000074,
      "d": 241.59583333332557,
      "v": 80
    },
    {
      "midi": 100,
      "hit": false,
      "t": 243780.70000000074,
      "d": 241.59583333332557,
      "v": 79
    },
    {
      "midi": 84,
      "hit": false,
      "t": 244284.90000000072,
      "d": 241.59583333332557,
      "v": 94
    },
    {
      "midi": 96,
      "hit": false,
      "t": 244284.90000000072,
      "d": 241.59583333332557,
      "v": 94
    },
    {
      "midi": 79,
      "hit": false,
      "t": 244789.1000000007,
      "d": 241.59583333332557,
      "v": 93
    },
    {
      "midi": 91,
      "hit": false,
      "t": 244789.1000000007,
      "d": 241.59583333332557,
      "v": 85
    },
    {
      "midi": 86,
      "hit": false,
      "t": 245545.4000000007,
      "d": 346.63750000001164,
      "v": 94
    },
    {
      "midi": 98,
      "hit": false,
      "t": 245545.4000000007,
      "d": 346.63750000001164,
      "v": 83
    },
    {
      "midi": 72,
      "hit": false,
      "t": 246049.6000000007,
      "d": 225.83958333331975,
      "v": 102
    },
    {
      "midi": 64,
      "hit": false,
      "t": 246049.6000000007,
      "d": 231.09166666664532,
      "v": 96
    },
    {
      "midi": 67,
      "hit": false,
      "t": 246049.6000000007,
      "d": 236.3437499999709,
      "v": 93
    }
  ]
}