{
  "jsonPath": "Soul/Neo Soul/KeKe Wyatt/without-you.json",
  "path": "Soul\\Neo Soul\\KeKe Wyatt\\Without You.mid",
  "name": "Without You",
  "difficulty": "Intermediate",
  "bpm": 64,
  "notes": [
    {
      "midi": 77,
      "hit": false,
      "t": 183750,
      "d": 810.546875,
      "v": 113
    },
    {
      "midi": 74,
      "hit": false,
      "t": 183750,
      "d": 830.078125,
      "v": 127
    },
    {
      "midi": 70,
      "hit": false,
      "t": 183750,
      "d": 839.84375,
      "v": 127
    },
    {
      "midi": 58,
      "hit": false,
      "t": 183750,
      "d": 1914.0625,
      "v": 107
    },
    {
      "midi": 65,
      "hit": false,
      "t": 184687.5,
      "d": 517.578125,
      "v": 119
    },
    {
      "midi": 70,
      "hit": false,
      "t": 184687.5,
      "d": 1279.296875,
      "v": 127
    },
    {
      "midi": 74,
      "hit": false,
      "t": 184687.5,
      "d": 1572.265625,
      "v": 127
    },
    {
      "midi": 65,
      "hit": false,
      "t": 185361.328125,
      "d": 312.5,
      "v": 57
    },
    {
      "midi": 65,
      "hit": false,
      "t": 185839.84375,
      "d": 449.21875,
      "v": 42
    },
    {
      "midi": 70,
      "hit": false,
      "t": 186308.59375,
      "d": 97.65625,
      "v": 49
    },
    {
      "midi": 77,
      "hit": false,
      "t": 186552.734375,
      "d": 468.75,
      "v": 107
    },
    {
      "midi": 65,
      "hit": false,
      "t": 186552.734375,
      "d": 722.65625,
      "v": 119
    },
    {
      "midi": 74,
      "hit": false,
      "t": 186552.734375,
      "d": 722.65625,
      "v": 127
    },
    {
      "midi": 58,
      "hit": false,
      "t": 186552.734375,
      "d": 732.421875,
      "v": 102
    },
    {
      "midi": 70,
      "hit": false,
      "t": 186552.734375,
      "d": 849.609375,
      "v": 119
    },
    {
      "midi": 63,
      "hit": false,
      "t": 187490.234375,
      "d": 1503.90625,
      "v": 119
    },
    {
      "midi": 67,
      "hit": false,
      "t": 187490.234375,
      "d": 3125,
      "v": 119
    },
    {
      "midi": 70,
      "hit": false,
      "t": 187500,
      "d": 2519.53125,
      "v": 119
    },
    {
      "midi": 63,
      "hit": false,
      "t": 189121.09375,
      "d": 341.796875,
      "v": 60
    },
    {
      "midi": 63,
      "hit": false,
      "t": 189599.609375,
      "d": 410.15625,
      "v": 56
    },
    {
      "midi": 70,
      "hit": false,
      "t": 190068.359375,
      "d": 839.84375,
      "v": 68
    },
    {
      "midi": 63,
      "hit": false,
      "t": 190078.125,
      "d": 292.96875,
      "v": 19
    },
    {
      "midi": 63,
      "hit": false,
      "t": 190537.109375,
      "d": 332.03125,
      "v": 59
    },
    {
      "midi": 67,
      "hit": false,
      "t": 190771.484375,
      "d": 371.09375,
      "v": 85
    },
    {
      "midi": 65,
      "hit": false,
      "t": 191240.234375,
      "d": 859.375,
      "v": 119
    },
    {
      "midi": 74,
      "hit": false,
      "t": 191240.234375,
      "d": 859.375,
      "v": 119
    },
    {
      "midi": 70,
      "hit": false,
      "t": 191240.234375,
      "d": 2480.46875,
      "v": 127
    },
    {
      "midi": 74,
      "hit": false,
      "t": 192158.203125,
      "d": 1542.96875,
      "v": 44
    },
    {
      "midi": 65,
      "hit": false,
      "t": 192167.96875,
      "d": 283.203125,
      "v": 34
    },
    {
      "midi": 58,
      "hit": false,
      "t": 192177.734375,
      "d": 771.484375,
      "v": 60
    },
    {
      "midi": 65,
      "hit": false,
      "t": 192607.421875,
      "d": 87.890625,
      "v": 52
    },
    {
      "midi": 65,
      "hit": false,
      "t": 192851.5625,
      "d": 312.5,
      "v": 53
    },
    {
      "midi": 65,
      "hit": false,
      "t": 193349.609375,
      "d": 478.515625,
      "v": 40
    },
    {
      "midi": 58,
      "hit": false,
      "t": 193808.59375,
      "d": 205.078125,
      "v": 56
    },
    {
      "midi": 72,
      "hit": false,
      "t": 194042.96875,
      "d": 234.375,
      "v": 127
    },
    {
      "midi": 77,
      "hit": false,
      "t": 194042.96875,
      "d": 664.0625,
      "v": 119
    },
    {
      "midi": 74,
      "hit": false,
      "t": 194267.578125,
      "d": 283.203125,
      "v": 98
    },
    {
      "midi": 70,
      "hit": false,
      "t": 194521.484375,
      "d": 312.5,
      "v": 89
    },
    {
      "midi": 67,
      "hit": false,
      "t": 194990.234375,
      "d": 2373.046875,
      "v": 113
    },
    {
      "midi": 64,
      "hit": false,
      "t": 195000,
      "d": 136.71875,
      "v": 93
    },
    {
      "midi": 70,
      "hit": false,
      "t": 195000,
      "d": 2421.875,
      "v": 102
    },
    {
      "midi": 63,
      "hit": false,
      "t": 195937.5,
      "d": 546.875,
      "v": 56
    },
    {
      "midi": 63,
      "hit": false,
      "t": 196630.859375,
      "d": 810.546875,
      "v": 49
    },
    {
      "midi": 60,
      "hit": false,
      "t": 197802.734375,
      "d": 107.421875,
      "v": 119
    },
    {
      "midi": 68,
      "hit": false,
      "t": 197802.734375,
      "d": 146.484375,
      "v": 127
    },
    {
      "midi": 63,
      "hit": false,
      "t": 197802.734375,
      "d": 166.015625,
      "v": 119
    },
    {
      "midi": 63,
      "hit": false,
      "t": 198017.578125,
      "d": 488.28125,
      "v": 89
    },
    {
      "midi": 67,
      "hit": false,
      "t": 198027.34375,
      "d": 468.75,
      "v": 113
    },
    {
      "midi": 58,
      "hit": false,
      "t": 198037.109375,
      "d": 449.21875,
      "v": 113
    },
    {
      "midi": 62,
      "hit": false,
      "t": 198740.234375,
      "d": 859.375,
      "v": 113
    },
    {
      "midi": 65,
      "hit": false,
      "t": 198740.234375,
      "d": 888.671875,
      "v": 119
    },
    {
      "midi": 70,
      "hit": false,
      "t": 198740.234375,
      "d": 888.671875,
      "v": 113
    },
    {
      "midi": 58,
      "hit": false,
      "t": 198740.234375,
      "d": 3505.859375,
      "v": 113
    },
    {
      "midi": 70,
      "hit": false,
      "t": 199677.734375,
      "d": 1738.28125,
      "v": 98
    },
    {
      "midi": 65,
      "hit": false,
      "t": 199687.5,
      "d": 1708.984375,
      "v": 98
    },
    {
      "midi": 62,
      "hit": false,
      "t": 200136.71875,
      "d": 214.84375,
      "v": 46
    },
    {
      "midi": 62,
      "hit": false,
      "t": 200625,
      "d": 585.9375,
      "v": 42
    },
    {
      "midi": 77,
      "hit": false,
      "t": 201552.734375,
      "d": 742.1875,
      "v": 113
    },
    {
      "midi": 74,
      "hit": false,
      "t": 201552.734375,
      "d": 761.71875,
      "v": 127
    },
    {
      "midi": 70,
      "hit": false,
      "t": 201552.734375,
      "d": 781.25,
      "v": 127
    },
    {
      "midi": 63,
      "hit": false,
      "t": 202509.765625,
      "d": 810.546875,
      "v": 113
    },
    {
      "midi": 72,
      "hit": false,
      "t": 202509.765625,
      "d": 849.609375,
      "v": 119
    },
    {
      "midi": 68,
      "hit": false,
      "t": 202509.765625,
      "d": 1738.28125,
      "v": 119
    },
    {
      "midi": 63,
      "hit": false,
      "t": 203437.5,
      "d": 517.578125,
      "v": 59
    },
    {
      "midi": 72,
      "hit": false,
      "t": 203437.5,
      "d": 791.015625,
      "v": 93
    },
    {
      "midi": 68,
      "hit": false,
      "t": 204375,
      "d": 361.328125,
      "v": 119
    },
    {
      "midi": 72,
      "hit": false,
      "t": 204384.765625,
      "d": 410.15625,
      "v": 119
    },
    {
      "midi": 70,
      "hit": false,
      "t": 204833.984375,
      "d": 185.546875,
      "v": 102
    },
    {
      "midi": 74,
      "hit": false,
      "t": 204833.984375,
      "d": 195.3125,
      "v": 107
    },
    {
      "midi": 75,
      "hit": false,
      "t": 205078.125,
      "d": 351.5625,
      "v": 102
    },
    {
      "midi": 72,
      "hit": false,
      "t": 205078.125,
      "d": 400.390625,
      "v": 113
    },
    {
      "midi": 70,
      "hit": false,
      "t": 205527.34375,
      "d": 175.78125,
      "v": 102
    },
    {
      "midi": 74,
      "hit": false,
      "t": 205527.34375,
      "d": 175.78125,
      "v": 102
    },
    {
      "midi": 68,
      "hit": false,
      "t": 205761.71875,
      "d": 429.6875,
      "v": 113
    },
    {
      "midi": 72,
      "hit": false,
      "t": 205761.71875,
      "d": 439.453125,
      "v": 107
    },
    {
      "midi": 77,
      "hit": false,
      "t": 206240.234375,
      "d": 830.078125,
      "v": 113
    },
    {
      "midi": 70,
      "hit": false,
      "t": 206240.234375,
      "d": 888.671875,
      "v": 119
    },
    {
      "midi": 74,
      "hit": false,
      "t": 206240.234375,
      "d": 1806.640625,
      "v": 119
    },
    {
      "midi": 77,
      "hit": false,
      "t": 207187.5,
      "d": 820.3125,
      "v": 80
    },
    {
      "midi": 70,
      "hit": false,
      "t": 207187.5,
      "d": 878.90625,
      "v": 76
    },
    {
      "midi": 74,
      "hit": false,
      "t": 208125,
      "d": 839.84375,
      "v": 85
    },
    {
      "midi": 70,
      "hit": false,
      "t": 208125,
      "d": 869.140625,
      "v": 72
    },
    {
      "midi": 77,
      "hit": false,
      "t": 208134.765625,
      "d": 791.015625,
      "v": 85
    },
    {
      "midi": 74,
      "hit": false,
      "t": 209052.734375,
      "d": 644.53125,
      "v": 72
    },
    {
      "midi": 77,
      "hit": false,
      "t": 209052.734375,
      "d": 664.0625,
      "v": 76
    },
    {
      "midi": 70,
      "hit": false,
      "t": 209052.734375,
      "d": 791.015625,
      "v": 56
    },
    {
      "midi": 75,
      "hit": false,
      "t": 209990.234375,
      "d": 859.375,
      "v": 113
    },
    {
      "midi": 70,
      "hit": false,
      "t": 209990.234375,
      "d": 869.140625,
      "v": 113
    },
    {
      "midi": 67,
      "hit": false,
      "t": 209990.234375,
      "d": 1201.171875,
      "v": 93
    },
    {
      "midi": 75,
      "hit": false,
      "t": 210927.734375,
      "d": 820.3125,
      "v": 76
    },
    {
      "midi": 70,
      "hit": false,
      "t": 210927.734375,
      "d": 888.671875,
      "v": 89
    },
    {
      "midi": 67,
      "hit": false,
      "t": 211386.71875,
      "d": 429.6875,
      "v": 45
    },
    {
      "midi": 74,
      "hit": false,
      "t": 211875,
      "d": 488.28125,
      "v": 127
    },
    {
      "midi": 75,
      "hit": false,
      "t": 212343.75,
      "d": 273.4375,
      "v": 102
    },
    {
      "midi": 70,
      "hit": false,
      "t": 212578.125,
      "d": 820.3125,
      "v": 127
    },
    {
      "midi": 58,
      "hit": false,
      "t": 213740.234375,
      "d": 966.796875,
      "v": 107
    },
    {
      "midi": 65,
      "hit": false,
      "t": 213740.234375,
      "d": 1269.53125,
      "v": 113
    },
    {
      "midi": 74,
      "hit": false,
      "t": 213740.234375,
      "d": 1298.828125,
      "v": 119
    },
    {
      "midi": 70,
      "hit": false,
      "t": 213740.234375,
      "d": 1308.59375,
      "v": 127
    },
    {
      "midi": 58,
      "hit": false,
      "t": 214912.109375,
      "d": 2011.71875,
      "v": 59
    },
    {
      "midi": 70,
      "hit": false,
      "t": 215146.484375,
      "d": 156.25,
      "v": 127
    },
    {
      "midi": 75,
      "hit": false,
      "t": 215146.484375,
      "d": 166.015625,
      "v": 127
    },
    {
      "midi": 67,
      "hit": false,
      "t": 215156.25,
      "d": 117.1875,
      "v": 107
    },
    {
      "midi": 65,
      "hit": false,
      "t": 215380.859375,
      "d": 566.40625,
      "v": 113
    },
    {
      "midi": 74,
      "hit": false,
      "t": 215380.859375,
      "d": 585.9375,
      "v": 119
    },
    {
      "midi": 70,
      "hit": false,
      "t": 215380.859375,
      "d": 625,
      "v": 119
    },
    {
      "midi": 63,
      "hit": false,
      "t": 216083.984375,
      "d": 146.484375,
      "v": 119
    },
    {
      "midi": 67,
      "hit": false,
      "t": 216083.984375,
      "d": 146.484375,
      "v": 107
    },
    {
      "midi": 70,
      "hit": false,
      "t": 216093.75,
      "d": 136.71875,
      "v": 107
    },
    {
      "midi": 62,
      "hit": false,
      "t": 216318.359375,
      "d": 683.59375,
      "v": 113
    },
    {
      "midi": 70,
      "hit": false,
      "t": 216318.359375,
      "d": 878.90625,
      "v": 89
    },
    {
      "midi": 65,
      "hit": false,
      "t": 216318.359375,
      "d": 1054.6875,
      "v": 119
    },
    {
      "midi": 62,
      "hit": false,
      "t": 217080.078125,
      "d": 244.140625,
      "v": 68
    },
    {
      "midi": 69,
      "hit": false,
      "t": 217490.234375,
      "d": 1425.78125,
      "v": 113
    },
    {
      "midi": 60,
      "hit": false,
      "t": 217500,
      "d": 1337.890625,
      "v": 127
    },
    {
      "midi": 65,
      "hit": false,
      "t": 217500,
      "d": 1406.25,
      "v": 127
    },
    {
      "midi": 89,
      "hit": false,
      "t": 218916.015625,
      "d": 1777.34375,
      "v": 107
    },
    {
      "midi": 84,
      "hit": false,
      "t": 219013.671875,
      "d": 1679.6875,
      "v": 107
    },
    {
      "midi": 81,
      "hit": false,
      "t": 219062.5,
      "d": 1650.390625,
      "v": 98
    },
    {
      "midi": 77,
      "hit": false,
      "t": 219160.15625,
      "d": 1562.5,
      "v": 107
    }
  ]
}