{
  "jsonPath": "Rock/Alternative Rock/Radiohead/lucky-live-in-florence.json",
  "path": "Rock\\Alternative Rock\\Radiohead\\Lucky (Live In Florence).mid",
  "name": "Lucky (Live In Florence)",
  "difficulty": "Advanced",
  "bpm": 66.000066000066,
  "notes": [
    {
      "midi": 40,
      "hit": false,
      "t": 0,
      "d": 909.09,
      "v": 127
    },
    {
      "midi": 52,
      "hit": false,
      "t": 909.09,
      "d": 909.09,
      "v": 127
    },
    {
      "midi": 55,
      "hit": false,
      "t": 909.09,
      "d": 909.09,
      "v": 127
    },
    {
      "midi": 59,
      "hit": false,
      "t": 909.09,
      "d": 909.09,
      "v": 127
    },
    {
      "midi": 45,
      "hit": false,
      "t": 1818.18,
      "d": 454.54499999999985,
      "v": 127
    },
    {
      "midi": 52,
      "hit": false,
      "t": 2272.725,
      "d": 454.5450000000001,
      "v": 127
    },
    {
      "midi": 57,
      "hit": false,
      "t": 2727.27,
      "d": 454.5450000000001,
      "v": 127
    },
    {
      "midi": 60,
      "hit": false,
      "t": 2727.27,
      "d": 454.5450000000001,
      "v": 127
    },
    {
      "midi": 64,
      "hit": false,
      "t": 2727.27,
      "d": 454.5450000000001,
      "v": 127
    },
    {
      "midi": 55,
      "hit": false,
      "t": 3181.815,
      "d": 227.27250000000004,
      "v": 127
    },
    {
      "midi": 50,
      "hit": false,
      "t": 3409.0875,
      "d": 227.27250000000004,
      "v": 127
    },
    {
      "midi": 55,
      "hit": false,
      "t": 3409.0875,
      "d": 227.27250000000004,
      "v": 127
    },
    {
      "midi": 43,
      "hit": false,
      "t": 3636.36,
      "d": 909.0899999999997,
      "v": 127
    },
    {
      "midi": 55,
      "hit": false,
      "t": 4545.45,
      "d": 454.5450000000001,
      "v": 127
    },
    {
      "midi": 59,
      "hit": false,
      "t": 4545.45,
      "d": 454.5450000000001,
      "v": 127
    },
    {
      "midi": 67,
      "hit": false,
      "t": 4545.45,
      "d": 454.5450000000001,
      "v": 127
    },
    {
      "midi": 55,
      "hit": false,
      "t": 4999.995,
      "d": 227.27250000000004,
      "v": 127
    },
    {
      "midi": 59,
      "hit": false,
      "t": 4999.995,
      "d": 227.27250000000004,
      "v": 127
    },
    {
      "midi": 55,
      "hit": false,
      "t": 5227.2675,
      "d": 227.27250000000004,
      "v": 127
    },
    {
      "midi": 59,
      "hit": false,
      "t": 5227.2675,
      "d": 227.27250000000004,
      "v": 127
    },
    {
      "midi": 54,
      "hit": false,
      "t": 5454.54,
      "d": 909.0900000000001,
      "v": 127
    },
    {
      "midi": 59,
      "hit": false,
      "t": 5454.54,
      "d": 909.0900000000001,
      "v": 127
    },
    {
      "midi": 54,
      "hit": false,
      "t": 6363.63,
      "d": 454.5450000000001,
      "v": 127
    },
    {
      "midi": 59,
      "hit": false,
      "t": 6363.63,
      "d": 454.5450000000001,
      "v": 127
    },
    {
      "midi": 62,
      "hit": false,
      "t": 6363.63,
      "d": 454.5450000000001,
      "v": 127
    },
    {
      "midi": 59,
      "hit": false,
      "t": 6818.175,
      "d": 227.27250000000004,
      "v": 127
    },
    {
      "midi": 62,
      "hit": false,
      "t": 7045.4475,
      "d": 227.27250000000004,
      "v": 127
    },
    {
      "midi": 66,
      "hit": false,
      "t": 7272.72,
      "d": 227.27250000000004,
      "v": 127
    },
    {
      "midi": 64,
      "hit": false,
      "t": 7499.9925,
      "d": 227.27250000000004,
      "v": 127
    },
    {
      "midi": 54,
      "hit": false,
      "t": 7727.265,
      "d": 454.5450000000001,
      "v": 127
    },
    {
      "midi": 54,
      "hit": false,
      "t": 8181.81,
      "d": 227.27250000000004,
      "v": 127
    },
    {
      "midi": 59,
      "hit": false,
      "t": 8181.81,
      "d": 227.27250000000004,
      "v": 127
    },
    {
      "midi": 62,
      "hit": false,
      "t": 8409.0825,
      "d": 227.27249999999913,
      "v": 127
    },
    {
      "midi": 59,
      "hit": false,
      "t": 8636.355,
      "d": 227.27249999999913,
      "v": 127
    },
    {
      "midi": 55,
      "hit": false,
      "t": 8863.627499999999,
      "d": 227.27249999999913,
      "v": 127
    },
    {
      "midi": 59,
      "hit": false,
      "t": 8863.627499999999,
      "d": 227.27249999999913,
      "v": 127
    },
    {
      "midi": 40,
      "hit": false,
      "t": 9090.899999999998,
      "d": 909.0900000000001,
      "v": 127
    },
    {
      "midi": 52,
      "hit": false,
      "t": 9999.989999999998,
      "d": 454.5450000000001,
      "v": 127
    },
    {
      "midi": 55,
      "hit": false,
      "t": 9999.989999999998,
      "d": 454.5450000000001,
      "v": 127
    },
    {
      "midi": 59,
      "hit": false,
      "t": 9999.989999999998,
      "d": 454.5450000000001,
      "v": 127
    },
    {
      "midi": 52,
      "hit": false,
      "t": 10454.534999999998,
      "d": 227.27249999999913,
      "v": 127
    },
    {
      "midi": 59,
      "hit": false,
      "t": 10681.807499999997,
      "d": 227.27249999999913,
      "v": 127
    },
    {
      "midi": 64,
      "hit": false,
      "t": 10681.807499999997,
      "d": 227.27249999999913,
      "v": 127
    },
    {
      "midi": 47,
      "hit": false,
      "t": 10909.079999999996,
      "d": 454.5450000000001,
      "v": 127
    },
    {
      "midi": 47,
      "hit": false,
      "t": 11363.624999999996,
      "d": 454.5450000000001,
      "v": 127
    },
    {
      "midi": 52,
      "hit": false,
      "t": 11363.624999999996,
      "d": 454.5450000000001,
      "v": 127
    },
    {
      "midi": 47,
      "hit": false,
      "t": 11818.169999999996,
      "d": 227.27249999999913,
      "v": 127
    },
    {
      "midi": 52,
      "hit": false,
      "t": 11818.169999999996,
      "d": 227.27249999999913,
      "v": 127
    },
    {
      "midi": 55,
      "hit": false,
      "t": 11818.169999999996,
      "d": 227.27249999999913,
      "v": 127
    },
    {
      "midi": 59,
      "hit": false,
      "t": 11818.169999999996,
      "d": 227.27249999999913,
      "v": 127
    },
    {
      "midi": 47,
      "hit": false,
      "t": 12045.442499999996,
      "d": 227.27249999999913,
      "v": 127
    },
    {
      "midi": 52,
      "hit": false,
      "t": 12045.442499999996,
      "d": 227.27249999999913,
      "v": 127
    },
    {
      "midi": 55,
      "hit": false,
      "t": 12045.442499999996,
      "d": 227.27249999999913,
      "v": 127
    },
    {
      "midi": 59,
      "hit": false,
      "t": 12045.442499999996,
      "d": 227.27249999999913,
      "v": 127
    },
    {
      "midi": 47,
      "hit": false,
      "t": 12272.714999999995,
      "d": 227.27249999999913,
      "v": 127
    },
    {
      "midi": 52,
      "hit": false,
      "t": 12272.714999999995,
      "d": 227.27249999999913,
      "v": 127
    },
    {
      "midi": 55,
      "hit": false,
      "t": 12272.714999999995,
      "d": 227.27249999999913,
      "v": 127
    },
    {
      "midi": 59,
      "hit": false,
      "t": 12272.714999999995,
      "d": 227.27249999999913,
      "v": 127
    },
    {
      "midi": 50,
      "hit": false,
      "t": 12499.987499999994,
      "d": 227.27249999999913,
      "v": 127
    },
    {
      "midi": 55,
      "hit": false,
      "t": 12499.987499999994,
      "d": 227.27249999999913,
      "v": 127
    },
    {
      "midi": 48,
      "hit": false,
      "t": 12727.259999999993,
      "d": 909.0900000000001,
      "v": 127
    },
    {
      "midi": 52,
      "hit": false,
      "t": 12727.259999999993,
      "d": 909.0900000000001,
      "v": 127
    },
    {
      "midi": 52,
      "hit": false,
      "t": 13636.349999999993,
      "d": 454.5450000000001,
      "v": 127
    },
    {
      "midi": 55,
      "hit": false,
      "t": 13636.349999999993,
      "d": 454.5450000000001,
      "v": 127
    },
    {
      "midi": 60,
      "hit": false,
      "t": 13636.349999999993,
      "d": 454.5450000000001,
      "v": 127
    },
    {
      "midi": 52,
      "hit": false,
      "t": 14090.894999999993,
      "d": 227.27249999999913,
      "v": 127
    },
    {
      "midi": 55,
      "hit": false,
      "t": 14090.894999999993,
      "d": 227.27249999999913,
      "v": 127
    },
    {
      "midi": 60,
      "hit": false,
      "t": 14090.894999999993,
      "d": 227.27249999999913,
      "v": 127
    },
    {
      "midi": 52,
      "hit": false,
      "t": 14318.167499999992,
      "d": 227.27249999999913,
      "v": 127
    },
    {
      "midi": 55,
      "hit": false,
      "t": 14318.167499999992,
      "d": 227.27249999999913,
      "v": 127
    },
    {
      "midi": 60,
      "hit": false,
      "t": 14318.167499999992,
      "d": 227.27249999999913,
      "v": 127
    },
    {
      "midi": 43,
      "hit": false,
      "t": 14545.439999999991,
      "d": 909.0900000000001,
      "v": 127
    },
    {
      "midi": 55,
      "hit": false,
      "t": 15454.529999999992,
      "d": 454.5450000000001,
      "v": 127
    },
    {
      "midi": 59,
      "hit": false,
      "t": 15454.529999999992,
      "d": 454.5450000000001,
      "v": 127
    },
    {
      "midi": 67,
      "hit": false,
      "t": 15454.529999999992,
      "d": 454.5450000000001,
      "v": 127
    },
    {
      "midi": 55,
      "hit": false,
      "t": 15909.074999999992,
      "d": 227.27249999999913,
      "v": 127
    },
    {
      "midi": 59,
      "hit": false,
      "t": 15909.074999999992,
      "d": 227.27249999999913,
      "v": 127
    },
    {
      "midi": 67,
      "hit": false,
      "t": 15909.074999999992,
      "d": 227.27249999999913,
      "v": 127
    },
    {
      "midi": 55,
      "hit": false,
      "t": 16136.34749999999,
      "d": 227.27249999999913,
      "v": 127
    },
    {
      "midi": 59,
      "hit": false,
      "t": 16136.34749999999,
      "d": 227.27249999999913,
      "v": 127
    },
    {
      "midi": 67,
      "hit": false,
      "t": 16136.34749999999,
      "d": 227.27249999999913,
      "v": 127
    },
    {
      "midi": 54,
      "hit": false,
      "t": 16363.61999999999,
      "d": 909.0899999999983,
      "v": 127
    },
    {
      "midi": 59,
      "hit": false,
      "t": 16363.61999999999,
      "d": 909.0899999999983,
      "v": 127
    },
    {
      "midi": 54,
      "hit": false,
      "t": 17272.70999999999,
      "d": 454.54499999999825,
      "v": 127
    },
    {
      "midi": 59,
      "hit": false,
      "t": 17272.70999999999,
      "d": 454.54499999999825,
      "v": 127
    },
    {
      "midi": 62,
      "hit": false,
      "t": 17272.70999999999,
      "d": 454.54499999999825,
      "v": 127
    },
    {
      "midi": 66,
      "hit": false,
      "t": 17272.70999999999,
      "d": 454.54499999999825,
      "v": 127
    },
    {
      "midi": 54,
      "hit": false,
      "t": 17727.254999999986,
      "d": 227.27249999999913,
      "v": 127
    },
    {
      "midi": 59,
      "hit": false,
      "t": 17727.254999999986,
      "d": 227.27249999999913,
      "v": 127
    },
    {
      "midi": 50,
      "hit": false,
      "t": 17954.527499999986,
      "d": 227.27249999999913,
      "v": 127
    },
    {
      "midi": 55,
      "hit": false,
      "t": 17954.527499999986,
      "d": 227.27249999999913,
      "v": 127
    },
    {
      "midi": 40,
      "hit": false,
      "t": 18181.799999999985,
      "d": 909.0900000000001,
      "v": 127
    },
    {
      "midi": 52,
      "hit": false,
      "t": 19090.889999999985,
      "d": 454.54499999999825,
      "v": 127
    },
    {
      "midi": 55,
      "hit": false,
      "t": 19090.889999999985,
      "d": 454.54499999999825,
      "v": 127
    },
    {
      "midi": 59,
      "hit": false,
      "t": 19090.889999999985,
      "d": 454.54499999999825,
      "v": 127
    },
    {
      "midi": 47,
      "hit": false,
      "t": 19545.434999999983,
      "d": 227.27249999999913,
      "v": 127
    },
    {
      "midi": 59,
      "hit": false,
      "t": 19772.707499999982,
      "d": 227.27249999999913,
      "v": 127
    },
    {
      "midi": 64,
      "hit": false,
      "t": 19772.707499999982,
      "d": 227.27249999999913,
      "v": 127
    },
    {
      "midi": 47,
      "hit": false,
      "t": 19999.97999999998,
      "d": 454.54499999999825,
      "v": 127
    },
    {
      "midi": 47,
      "hit": false,
      "t": 20454.52499999998,
      "d": 454.54499999999825,
      "v": 127
    },
    {
      "midi": 52,
      "hit": false,
      "t": 20454.52499999998,
      "d": 454.54499999999825,
      "v": 127
    },
    {
      "midi": 47,
      "hit": false,
      "t": 20909.069999999978,
      "d": 227.27249999999913,
      "v": 127
    },
    {
      "midi": 52,
      "hit": false,
      "t": 20909.069999999978,
      "d": 227.27249999999913,
      "v": 127
    },
    {
      "midi": 55,
      "hit": false,
      "t": 20909.069999999978,
      "d": 227.27249999999913,
      "v": 127
    },
    {
      "midi": 59,
      "hit": false,
      "t": 20909.069999999978,
      "d": 227.27249999999913,
      "v": 127
    },
    {
      "midi": 47,
      "hit": false,
      "t": 21136.342499999977,
      "d": 227.27249999999913,
      "v": 127
    },
    {
      "midi": 52,
      "hit": false,
      "t": 21136.342499999977,
      "d": 227.27249999999913,
      "v": 127
    },
    {
      "midi": 55,
      "hit": false,
      "t": 21136.342499999977,
      "d": 227.27249999999913,
      "v": 127
    },
    {
      "midi": 59,
      "hit": false,
      "t": 21136.342499999977,
      "d": 227.27249999999913,
      "v": 127
    },
    {
      "midi": 47,
      "hit": false,
      "t": 21363.614999999976,
      "d": 227.27249999999913,
      "v": 127
    },
    {
      "midi": 52,
      "hit": false,
      "t": 21363.614999999976,
      "d": 227.27249999999913,
      "v": 127
    },
    {
      "midi": 55,
      "hit": false,
      "t": 21363.614999999976,
      "d": 227.27249999999913,
      "v": 127
    },
    {
      "midi": 59,
      "hit": false,
      "t": 21363.614999999976,
      "d": 227.27249999999913,
      "v": 127
    },
    {
      "midi": 47,
      "hit": false,
      "t": 21590.887499999975,
      "d": 227.27249999999913,
      "v": 127
    },
    {
      "midi": 52,
      "hit": false,
      "t": 21590.887499999975,
      "d": 227.27249999999913,
      "v": 127
    },
    {
      "midi": 55,
      "hit": false,
      "t": 21590.887499999975,
      "d": 227.27249999999913,
      "v": 127
    },
    {
      "midi": 59,
      "hit": false,
      "t": 21590.887499999975,
      "d": 227.27249999999913,
      "v": 127
    },
    {
      "midi": 40,
      "hit": false,
      "t": 21818.159999999974,
      "d": 909.0900000000001,
      "v": 127
    },
    {
      "midi": 52,
      "hit": false,
      "t": 22727.249999999975,
      "d": 454.54499999999825,
      "v": 127
    },
    {
      "midi": 55,
      "hit": false,
      "t": 22727.249999999975,
      "d": 454.54499999999825,
      "v": 127
    },
    {
      "midi": 59,
      "hit": false,
      "t": 22727.249999999975,
      "d": 454.54499999999825,
      "v": 127
    },
    {
      "midi": 47,
      "hit": false,
      "t": 23181.794999999973,
      "d": 227.27249999999913,
      "v": 127
    },
    {
      "midi": 59,
      "hit": false,
      "t": 23409.067499999972,
      "d": 227.27249999999913,
      "v": 127
    },
    {
      "midi": 64,
      "hit": false,
      "t": 23409.067499999972,
      "d": 227.27249999999913,
      "v": 127
    },
    {
      "midi": 47,
      "hit": false,
      "t": 23636.33999999997,
      "d": 454.54499999999825,
      "v": 127
    },
    {
      "midi": 47,
      "hit": false,
      "t": 24090.88499999997,
      "d": 454.54499999999825,
      "v": 127
    },
    {
      "midi": 52,
      "hit": false,
      "t": 24090.88499999997,
      "d": 454.54499999999825,
      "v": 127
    },
    {
      "midi": 47,
      "hit": false,
      "t": 24545.429999999968,
      "d": 227.27249999999913,
      "v": 127
    },
    {
      "midi": 52,
      "hit": false,
      "t": 24545.429999999968,
      "d": 227.27249999999913,
      "v": 127
    },
    {
      "midi": 55,
      "hit": false,
      "t": 24545.429999999968,
      "d": 227.27249999999913,
      "v": 127
    },
    {
      "midi": 59,
      "hit": false,
      "t": 24545.429999999968,
      "d": 227.27249999999913,
      "v": 127
    },
    {
      "midi": 47,
      "hit": false,
      "t": 24772.702499999967,
      "d": 227.27249999999913,
      "v": 127
    },
    {
      "midi": 52,
      "hit": false,
      "t": 24772.702499999967,
      "d": 227.27249999999913,
      "v": 127
    },
    {
      "midi": 55,
      "hit": false,
      "t": 24772.702499999967,
      "d": 227.27249999999913,
      "v": 127
    },
    {
      "midi": 59,
      "hit": false,
      "t": 24772.702499999967,
      "d": 227.27249999999913,
      "v": 127
    },
    {
      "midi": 47,
      "hit": false,
      "t": 24999.974999999966,
      "d": 227.27249999999913,
      "v": 127
    },
    {
      "midi": 52,
      "hit": false,
      "t": 24999.974999999966,
      "d": 227.27249999999913,
      "v": 127
    },
    {
      "midi": 55,
      "hit": false,
      "t": 24999.974999999966,
      "d": 227.27249999999913,
      "v": 127
    },
    {
      "midi": 59,
      "hit": false,
      "t": 24999.974999999966,
      "d": 227.27249999999913,
      "v": 127
    },
    {
      "midi": 47,
      "hit": false,
      "t": 25227.247499999965,
      "d": 227.27249999999913,
      "v": 127
    },
    {
      "midi": 52,
      "hit": false,
      "t": 25227.247499999965,
      "d": 227.27249999999913,
      "v": 127
    },
    {
      "midi": 55,
      "hit": false,
      "t": 25227.247499999965,
      "d": 227.27249999999913,
      "v": 127
    },
    {
      "midi": 59,
      "hit": false,
      "t": 25227.247499999965,
      "d": 227.27249999999913,
      "v": 127
    },
    {
      "midi": 40,
      "hit": false,
      "t": 25454.519999999964,
      "d": 909.0900000000001,
      "v": 127
    },
    {
      "midi": 52,
      "hit": false,
      "t": 26363.609999999964,
      "d": 454.54499999999825,
      "v": 127
    },
    {
      "midi": 55,
      "hit": false,
      "t": 26363.609999999964,
      "d": 454.54499999999825,
      "v": 127
    },
    {
      "midi": 59,
      "hit": false,
      "t": 26363.609999999964,
      "d": 454.54499999999825,
      "v": 127
    },
    {
      "midi": 52,
      "hit": false,
      "t": 26818.154999999962,
      "d": 227.27249999999913,
      "v": 127
    },
    {
      "midi": 55,
      "hit": false,
      "t": 26818.154999999962,
      "d": 227.27249999999913,
      "v": 127
    },
    {
      "midi": 59,
      "hit": false,
      "t": 26818.154999999962,
      "d": 227.27249999999913,
      "v": 127
    },
    {
      "midi": 52,
      "hit": false,
      "t": 27045.42749999996,
      "d": 227.27249999999913,
      "v": 127
    },
    {
      "midi": 55,
      "hit": false,
      "t": 27045.42749999996,
      "d": 227.27249999999913,
      "v": 127
    },
    {
      "midi": 59,
      "hit": false,
      "t": 27045.42749999996,
      "d": 227.27249999999913,
      "v": 127
    },
    {
      "midi": 45,
      "hit": false,
      "t": 27272.69999999996,
      "d": 909.0900000000001,
      "v": 127
    },
    {
      "midi": 52,
      "hit": false,
      "t": 28181.78999999996,
      "d": 454.54499999999825,
      "v": 127
    },
    {
      "midi": 57,
      "hit": false,
      "t": 28181.78999999996,
      "d": 454.54499999999825,
      "v": 127
    },
    {
      "midi": 60,
      "hit": false,
      "t": 28181.78999999996,
      "d": 454.54499999999825,
      "v": 127
    },
    {
      "midi": 64,
      "hit": false,
      "t": 28181.78999999996,
      "d": 454.54499999999825,
      "v": 127
    },
    {
      "midi": 50,
      "hit": false,
      "t": 28636.33499999996,
      "d": 227.27249999999913,
      "v": 127
    },
    {
      "midi": 55,
      "hit": false,
      "t": 28636.33499999996,
      "d": 227.27249999999913,
      "v": 127
    },
    {
      "midi": 50,
      "hit": false,
      "t": 28863.60749999996,
      "d": 227.27249999999913,
      "v": 127
    },
    {
      "midi": 55,
      "hit": false,
      "t": 28863.60749999996,
      "d": 227.27249999999913,
      "v": 127
    },
    {
      "midi": 43,
      "hit": false,
      "t": 29090.879999999957,
      "d": 909.0900000000001,
      "v": 127
    },
    {
      "midi": 55,
      "hit": false,
      "t": 29999.969999999958,
      "d": 454.54499999999825,
      "v": 127
    },
    {
      "midi": 59,
      "hit": false,
      "t": 29999.969999999958,
      "d": 454.54499999999825,
      "v": 127
    },
    {
      "midi": 67,
      "hit": false,
      "t": 29999.969999999958,
      "d": 454.54499999999825,
      "v": 127
    },
    {
      "midi": 55,
      "hit": false,
      "t": 30454.514999999956,
      "d": 227.27249999999913,
      "v": 127
    },
    {
      "midi": 59,
      "hit": false,
      "t": 30454.514999999956,
      "d": 227.27249999999913,
      "v": 127
    },
    {
      "midi": 67,
      "hit": false,
      "t": 30454.514999999956,
      "d": 227.27249999999913,
      "v": 127
    },
    {
      "midi": 55,
      "hit": false,
      "t": 30681.787499999955,
      "d": 227.27249999999913,
      "v": 127
    },
    {
      "midi": 59,
      "hit": false,
      "t": 30681.787499999955,
      "d": 227.27249999999913,
      "v": 127
    },
    {
      "midi": 67,
      "hit": false,
      "t": 30681.787499999955,
      "d": 227.27249999999913,
      "v": 127
    },
    {
      "midi": 54,
      "hit": false,
      "t": 30909.059999999954,
      "d": 909.0900000000001,
      "v": 127
    },
    {
      "midi": 59,
      "hit": false,
      "t": 30909.059999999954,
      "d": 909.0900000000001,
      "v": 127
    },
    {
      "midi": 54,
      "hit": false,
      "t": 31818.149999999954,
      "d": 454.54499999999825,
      "v": 127
    },
    {
      "midi": 59,
      "hit": false,
      "t": 31818.149999999954,
      "d": 454.54499999999825,
      "v": 127
    },
    {
      "midi": 62,
      "hit": false,
      "t": 31818.149999999954,
      "d": 454.54499999999825,
      "v": 127
    },
    {
      "midi": 59,
      "hit": false,
      "t": 32272.694999999952,
      "d": 227.27249999999913,
      "v": 127
    },
    {
      "midi": 62,
      "hit": false,
      "t": 32499.96749999995,
      "d": 227.27249999999913,
      "v": 127
    },
    {
      "midi": 66,
      "hit": false,
      "t": 32727.23999999995,
      "d": 227.27250000000276,
      "v": 127
    },
    {
      "midi": 64,
      "hit": false,
      "t": 32954.51249999995,
      "d": 227.27249999999913,
      "v": 127
    },
    {
      "midi": 54,
      "hit": false,
      "t": 33181.78499999995,
      "d": 454.54499999999825,
      "v": 127
    },
    {
      "midi": 54,
      "hit": false,
      "t": 33636.32999999995,
      "d": 227.27249999999913,
      "v": 127
    },
    {
      "midi": 62,
      "hit": false,
      "t": 33863.60249999995,
      "d": 227.27249999999913,
      "v": 127
    },
    {
      "midi": 45,
      "hit": false,
      "t": 34090.87499999995,
      "d": 454.54499999999825,
      "v": 127
    },
    {
      "midi": 40,
      "hit": false,
      "t": 34545.41999999995,
      "d": 909.0899999999965,
      "v": 127
    },
    {
      "midi": 52,
      "hit": false,
      "t": 35454.509999999944,
      "d": 454.54499999999825,
      "v": 127
    },
    {
      "midi": 55,
      "hit": false,
      "t": 35454.509999999944,
      "d": 454.54499999999825,
      "v": 127
    },
    {
      "midi": 59,
      "hit": false,
      "t": 35454.509999999944,
      "d": 454.54499999999825,
      "v": 127
    },
    {
      "midi": 52,
      "hit": false,
      "t": 35909.05499999994,
      "d": 227.27249999999913,
      "v": 127
    },
    {
      "midi": 59,
      "hit": false,
      "t": 36136.32749999994,
      "d": 227.27249999999913,
      "v": 127
    },
    {
      "midi": 64,
      "hit": false,
      "t": 36136.32749999994,
      "d": 227.27249999999913,
      "v": 127
    },
    {
      "midi": 52,
      "hit": false,
      "t": 36363.59999999994,
      "d": 454.54499999999825,
      "v": 127
    },
    {
      "midi": 55,
      "hit": false,
      "t": 36363.59999999994,
      "d": 454.54499999999825,
      "v": 127
    },
    {
      "midi": 59,
      "hit": false,
      "t": 36363.59999999994,
      "d": 454.54499999999825,
      "v": 127
    },
    {
      "midi": 40,
      "hit": false,
      "t": 36818.14499999994,
      "d": 454.54499999999825,
      "v": 127
    },
    {
      "midi": 47,
      "hit": false,
      "t": 36818.14499999994,
      "d": 454.54499999999825,
      "v": 127
    },
    {
      "midi": 52,
      "hit": false,
      "t": 37272.68999999994,
      "d": 227.27249999999913,
      "v": 127
    },
    {
      "midi": 55,
      "hit": false,
      "t": 37272.68999999994,
      "d": 227.27249999999913,
      "v": 127
    },
    {
      "midi": 55,
      "hit": false,
      "t": 37499.962499999936,
      "d": 227.27249999999913,
      "v": 127
    },
    {
      "midi": 52,
      "hit": false,
      "t": 37727.234999999935,
      "d": 227.27249999999913,
      "v": 127
    },
    {
      "midi": 50,
      "hit": false,
      "t": 37954.507499999934,
      "d": 227.27249999999913,
      "v": 127
    },
    {
      "midi": 55,
      "hit": false,
      "t": 37954.507499999934,
      "d": 227.27249999999913,
      "v": 127
    },
    {
      "midi": 48,
      "hit": false,
      "t": 38181.77999999993,
      "d": 909.0899999999965,
      "v": 127
    },
    {
      "midi": 52,
      "hit": false,
      "t": 38181.77999999993,
      "d": 909.0899999999965,
      "v": 127
    },
    {
      "midi": 52,
      "hit": false,
      "t": 39090.86999999993,
      "d": 909.0899999999965,
      "v": 127
    },
    {
      "midi": 55,
      "hit": false,
      "t": 39090.86999999993,
      "d": 909.0899999999965,
      "v": 127
    },
    {
      "midi": 60,
      "hit": false,
      "t": 39090.86999999993,
      "d": 909.0899999999965,
      "v": 127
    },
    {
      "midi": 64,
      "hit": false,
      "t": 39090.86999999993,
      "d": 909.0899999999965,
      "v": 127
    },
    {
      "midi": 43,
      "hit": false,
      "t": 39999.95999999993,
      "d": 909.0899999999965,
      "v": 127
    },
    {
      "midi": 47,
      "hit": false,
      "t": 39999.95999999993,
      "d": 909.0899999999965,
      "v": 127
    },
    {
      "midi": 50,
      "hit": false,
      "t": 40909.04999999992,
      "d": 454.54499999999825,
      "v": 127
    },
    {
      "midi": 55,
      "hit": false,
      "t": 40909.04999999992,
      "d": 454.54499999999825,
      "v": 127
    },
    {
      "midi": 59,
      "hit": false,
      "t": 40909.04999999992,
      "d": 454.54499999999825,
      "v": 127
    },
    {
      "midi": 50,
      "hit": false,
      "t": 41363.59499999992,
      "d": 227.27249999999913,
      "v": 127
    },
    {
      "midi": 55,
      "hit": false,
      "t": 41363.59499999992,
      "d": 227.27249999999913,
      "v": 127
    },
    {
      "midi": 59,
      "hit": false,
      "t": 41363.59499999992,
      "d": 227.27249999999913,
      "v": 127
    },
    {
      "midi": 50,
      "hit": false,
      "t": 41590.86749999992,
      "d": 227.27249999999913,
      "v": 127
    },
    {
      "midi": 55,
      "hit": false,
      "t": 41590.86749999992,
      "d": 227.27249999999913,
      "v": 127
    },
    {
      "midi": 59,
      "hit": false,
      "t": 41590.86749999992,
      "d": 227.27249999999913,
      "v": 127
    },
    {
      "midi": 54,
      "hit": false,
      "t": 41818.13999999992,
      "d": 909.0899999999965,
      "v": 127
    },
    {
      "midi": 59,
      "hit": false,
      "t": 41818.13999999992,
      "d": 909.0899999999965,
      "v": 127
    },
    {
      "midi": 54,
      "hit": false,
      "t": 42727.229999999916,
      "d": 454.54499999999825,
      "v": 127
    },
    {
      "midi": 59,
      "hit": false,
      "t": 42727.229999999916,
      "d": 454.54499999999825,
      "v": 127
    },
    {
      "midi": 62,
      "hit": false,
      "t": 42727.229999999916,
      "d": 454.54499999999825,
      "v": 127
    },
    {
      "midi": 66,
      "hit": false,
      "t": 42727.229999999916,
      "d": 454.54499999999825,
      "v": 127
    },
    {
      "midi": 54,
      "hit": false,
      "t": 43181.774999999914,
      "d": 227.27249999999913,
      "v": 127
    },
    {
      "midi": 59,
      "hit": false,
      "t": 43181.774999999914,
      "d": 227.27249999999913,
      "v": 127
    },
    {
      "midi": 54,
      "hit": false,
      "t": 43409.04749999991,
      "d": 227.27249999999913,
      "v": 127
    },
    {
      "midi": 59,
      "hit": false,
      "t": 43409.04749999991,
      "d": 227.27249999999913,
      "v": 127
    },
    {
      "midi": 40,
      "hit": false,
      "t": 43636.31999999991,
      "d": 909.0899999999965,
      "v": 127
    },
    {
      "midi": 52,
      "hit": false,
      "t": 44545.40999999991,
      "d": 454.54499999999825,
      "v": 127
    },
    {
      "midi": 55,
      "hit": false,
      "t": 44545.40999999991,
      "d": 454.54499999999825,
      "v": 127
    },
    {
      "midi": 59,
      "hit": false,
      "t": 44545.40999999991,
      "d": 454.54499999999825,
      "v": 127
    },
    {
      "midi": 47,
      "hit": false,
      "t": 44999.95499999991,
      "d": 227.27249999999913,
      "v": 127
    },
    {
      "midi": 59,
      "hit": false,
      "t": 45227.227499999906,
      "d": 227.27249999999913,
      "v": 127
    },
    {
      "midi": 64,
      "hit": false,
      "t": 45227.227499999906,
      "d": 227.27249999999913,
      "v": 127
    },
    {
      "midi": 47,
      "hit": false,
      "t": 45454.499999999905,
      "d": 454.54499999999825,
      "v": 127
    },
    {
      "midi": 47,
      "hit": false,
      "t": 45909.044999999904,
      "d": 454.54499999999825,
      "v": 127
    },
    {
      "midi": 52,
      "hit": false,
      "t": 45909.044999999904,
      "d": 454.54499999999825,
      "v": 127
    },
    {
      "midi": 47,
      "hit": false,
      "t": 46363.5899999999,
      "d": 227.27249999999913,
      "v": 127
    },
    {
      "midi": 52,
      "hit": false,
      "t": 46363.5899999999,
      "d": 227.27249999999913,
      "v": 127
    },
    {
      "midi": 55,
      "hit": false,
      "t": 46363.5899999999,
      "d": 227.27249999999913,
      "v": 127
    },
    {
      "midi": 59,
      "hit": false,
      "t": 46363.5899999999,
      "d": 227.27249999999913,
      "v": 127
    },
    {
      "midi": 47,
      "hit": false,
      "t": 46590.8624999999,
      "d": 227.27249999999913,
      "v": 127
    },
    {
      "midi": 52,
      "hit": false,
      "t": 46590.8624999999,
      "d": 227.27249999999913,
      "v": 127
    },
    {
      "midi": 55,
      "hit": false,
      "t": 46590.8624999999,
      "d": 227.27249999999913,
      "v": 127
    },
    {
      "midi": 59,
      "hit": false,
      "t": 46590.8624999999,
      "d": 227.27249999999913,
      "v": 127
    },
    {
      "midi": 47,
      "hit": false,
      "t": 46818.1349999999,
      "d": 227.27249999999913,
      "v": 127
    },
    {
      "midi": 52,
      "hit": false,
      "t": 46818.1349999999,
      "d": 227.27249999999913,
      "v": 127
    },
    {
      "midi": 55,
      "hit": false,
      "t": 46818.1349999999,
      "d": 227.27249999999913,
      "v": 127
    },
    {
      "midi": 59,
      "hit": false,
      "t": 46818.1349999999,
      "d": 227.27249999999913,
      "v": 127
    },
    {
      "midi": 47,
      "hit": false,
      "t": 47045.4074999999,
      "d": 227.27249999999913,
      "v": 127
    },
    {
      "midi": 52,
      "hit": false,
      "t": 47045.4074999999,
      "d": 227.27249999999913,
      "v": 127
    },
    {
      "midi": 55,
      "hit": false,
      "t": 47045.4074999999,
      "d": 227.27249999999913,
      "v": 127
    },
    {
      "midi": 59,
      "hit": false,
      "t": 47045.4074999999,
      "d": 227.27249999999913,
      "v": 127
    },
    {
      "midi": 40,
      "hit": false,
      "t": 47272.6799999999,
      "d": 909.0899999999965,
      "v": 127
    },
    {
      "midi": 52,
      "hit": false,
      "t": 48181.769999999895,
      "d": 454.54499999999825,
      "v": 127
    },
    {
      "midi": 55,
      "hit": false,
      "t": 48181.769999999895,
      "d": 454.54499999999825,
      "v": 127
    },
    {
      "midi": 59,
      "hit": false,
      "t": 48181.769999999895,
      "d": 454.54499999999825,
      "v": 127
    },
    {
      "midi": 52,
      "hit": false,
      "t": 48636.31499999989,
      "d": 227.27249999999913,
      "v": 127
    },
    {
      "midi": 55,
      "hit": false,
      "t": 48636.31499999989,
      "d": 227.27249999999913,
      "v": 127
    },
    {
      "midi": 59,
      "hit": false,
      "t": 48636.31499999989,
      "d": 227.27249999999913,
      "v": 127
    },
    {
      "midi": 52,
      "hit": false,
      "t": 48863.58749999989,
      "d": 227.27249999999913,
      "v": 127
    },
    {
      "midi": 55,
      "hit": false,
      "t": 48863.58749999989,
      "d": 227.27249999999913,
      "v": 127
    },
    {
      "midi": 59,
      "hit": false,
      "t": 48863.58749999989,
      "d": 227.27249999999913,
      "v": 127
    },
    {
      "midi": 40,
      "hit": false,
      "t": 49090.85999999989,
      "d": 454.54499999999825,
      "v": 127
    },
    {
      "midi": 47,
      "hit": false,
      "t": 49090.85999999989,
      "d": 454.54499999999825,
      "v": 127
    },
    {
      "midi": 40,
      "hit": false,
      "t": 49545.40499999989,
      "d": 454.54499999999825,
      "v": 127
    },
    {
      "midi": 47,
      "hit": false,
      "t": 49545.40499999989,
      "d": 454.54499999999825,
      "v": 127
    },
    {
      "midi": 52,
      "hit": false,
      "t": 49999.94999999989,
      "d": 454.54499999999825,
      "v": 127
    },
    {
      "midi": 55,
      "hit": false,
      "t": 49999.94999999989,
      "d": 454.54499999999825,
      "v": 127
    },
    {
      "midi": 59,
      "hit": false,
      "t": 49999.94999999989,
      "d": 454.54499999999825,
      "v": 127
    },
    {
      "midi": 47,
      "hit": false,
      "t": 50454.494999999886,
      "d": 454.54499999999825,
      "v": 127
    },
    {
      "midi": 52,
      "hit": false,
      "t": 50454.494999999886,
      "d": 454.54499999999825,
      "v": 127
    },
    {
      "midi": 55,
      "hit": false,
      "t": 50454.494999999886,
      "d": 454.54499999999825,
      "v": 127
    },
    {
      "midi": 59,
      "hit": false,
      "t": 50454.494999999886,
      "d": 454.54499999999825,
      "v": 127
    },
    {
      "midi": 45,
      "hit": false,
      "t": 50909.039999999884,
      "d": 909.0899999999965,
      "v": 127
    },
    {
      "midi": 52,
      "hit": false,
      "t": 50909.039999999884,
      "d": 909.0899999999965,
      "v": 127
    },
    {
      "midi": 57,
      "hit": false,
      "t": 50909.039999999884,
      "d": 909.0899999999965,
      "v": 127
    },
    {
      "midi": 61,
      "hit": false,
      "t": 50909.039999999884,
      "d": 909.0899999999965,
      "v": 127
    },
    {
      "midi": 64,
      "hit": false,
      "t": 50909.039999999884,
      "d": 909.0899999999965,
      "v": 127
    },
    {
      "midi": 45,
      "hit": false,
      "t": 51818.12999999988,
      "d": 454.54499999999825,
      "v": 127
    },
    {
      "midi": 52,
      "hit": false,
      "t": 51818.12999999988,
      "d": 454.54499999999825,
      "v": 127
    },
    {
      "midi": 57,
      "hit": false,
      "t": 51818.12999999988,
      "d": 454.54499999999825,
      "v": 127
    },
    {
      "midi": 61,
      "hit": false,
      "t": 51818.12999999988,
      "d": 454.54499999999825,
      "v": 127
    },
    {
      "midi": 64,
      "hit": false,
      "t": 51818.12999999988,
      "d": 454.54499999999825,
      "v": 127
    },
    {
      "midi": 45,
      "hit": false,
      "t": 52272.67499999988,
      "d": 454.54499999999825,
      "v": 127
    },
    {
      "midi": 52,
      "hit": false,
      "t": 52272.67499999988,
      "d": 454.54499999999825,
      "v": 127
    },
    {
      "midi": 57,
      "hit": false,
      "t": 52272.67499999988,
      "d": 454.54499999999825,
      "v": 127
    },
    {
      "midi": 61,
      "hit": false,
      "t": 52272.67499999988,
      "d": 454.54499999999825,
      "v": 127
    },
    {
      "midi": 64,
      "hit": false,
      "t": 52272.67499999988,
      "d": 454.54499999999825,
      "v": 127
    },
    {
      "midi": 45,
      "hit": false,
      "t": 52727.21999999988,
      "d": 909.0899999999965,
      "v": 127
    },
    {
      "midi": 52,
      "hit": false,
      "t": 52727.21999999988,
      "d": 909.0899999999965,
      "v": 127
    },
    {
      "midi": 57,
      "hit": false,
      "t": 52727.21999999988,
      "d": 909.0899999999965,
      "v": 127
    },
    {
      "midi": 61,
      "hit": false,
      "t": 52727.21999999988,
      "d": 909.0899999999965,
      "v": 127
    },
    {
      "midi": 64,
      "hit": false,
      "t": 52727.21999999988,
      "d": 909.0899999999965,
      "v": 127
    },
    {
      "midi": 45,
      "hit": false,
      "t": 53636.309999999874,
      "d": 454.54499999999825,
      "v": 127
    },
    {
      "midi": 52,
      "hit": false,
      "t": 53636.309999999874,
      "d": 454.54499999999825,
      "v": 127
    },
    {
      "midi": 57,
      "hit": false,
      "t": 53636.309999999874,
      "d": 454.54499999999825,
      "v": 127
    },
    {
      "midi": 61,
      "hit": false,
      "t": 53636.309999999874,
      "d": 454.54499999999825,
      "v": 127
    },
    {
      "midi": 64,
      "hit": false,
      "t": 53636.309999999874,
      "d": 454.54499999999825,
      "v": 127
    },
    {
      "midi": 45,
      "hit": false,
      "t": 54090.85499999987,
      "d": 227.27249999999913,
      "v": 127
    },
    {
      "midi": 52,
      "hit": false,
      "t": 54090.85499999987,
      "d": 227.27249999999913,
      "v": 127
    },
    {
      "midi": 57,
      "hit": false,
      "t": 54090.85499999987,
      "d": 227.27249999999913,
      "v": 127
    },
    {
      "midi": 61,
      "hit": false,
      "t": 54090.85499999987,
      "d": 227.27249999999913,
      "v": 127
    },
    {
      "midi": 64,
      "hit": false,
      "t": 54090.85499999987,
      "d": 227.27249999999913,
      "v": 127
    },
    {
      "midi": 45,
      "hit": false,
      "t": 54318.12749999987,
      "d": 227.27249999999913,
      "v": 127
    },
    {
      "midi": 52,
      "hit": false,
      "t": 54318.12749999987,
      "d": 227.27249999999913,
      "v": 127
    },
    {
      "midi": 57,
      "hit": false,
      "t": 54318.12749999987,
      "d": 227.27249999999913,
      "v": 127
    },
    {
      "midi": 61,
      "hit": false,
      "t": 54318.12749999987,
      "d": 227.27249999999913,
      "v": 127
    },
    {
      "midi": 64,
      "hit": false,
      "t": 54318.12749999987,
      "d": 227.27249999999913,
      "v": 127
    },
    {
      "midi": 40,
      "hit": false,
      "t": 54545.39999999987,
      "d": 909.0899999999965,
      "v": 127
    },
    {
      "midi": 47,
      "hit": false,
      "t": 54545.39999999987,
      "d": 909.0899999999965,
      "v": 127
    },
    {
      "midi": 52,
      "hit": false,
      "t": 54545.39999999987,
      "d": 909.0899999999965,
      "v": 127
    },
    {
      "midi": 55,
      "hit": false,
      "t": 54545.39999999987,
      "d": 909.0899999999965,
      "v": 127
    },
    {
      "midi": 59,
      "hit": false,
      "t": 54545.39999999987,
      "d": 909.0899999999965,
      "v": 127
    },
    {
      "midi": 64,
      "hit": false,
      "t": 54545.39999999987,
      "d": 909.0899999999965,
      "v": 127
    },
    {
      "midi": 40,
      "hit": false,
      "t": 55454.48999999987,
      "d": 454.54499999999825,
      "v": 127
    },
    {
      "midi": 47,
      "hit": false,
      "t": 55454.48999999987,
      "d": 454.54499999999825,
      "v": 127
    },
    {
      "midi": 52,
      "hit": false,
      "t": 55454.48999999987,
      "d": 454.54499999999825,
      "v": 127
    },
    {
      "midi": 55,
      "hit": false,
      "t": 55454.48999999987,
      "d": 454.54499999999825,
      "v": 127
    },
    {
      "midi": 59,
      "hit": false,
      "t": 55454.48999999987,
      "d": 454.54499999999825,
      "v": 127
    },
    {
      "midi": 64,
      "hit": false,
      "t": 55454.48999999987,
      "d": 454.54499999999825,
      "v": 127
    },
    {
      "midi": 40,
      "hit": false,
      "t": 55909.034999999865,
      "d": 454.54499999999825,
      "v": 127
    },
    {
      "midi": 47,
      "hit": false,
      "t": 55909.034999999865,
      "d": 454.54499999999825,
      "v": 127
    },
    {
      "midi": 52,
      "hit": false,
      "t": 55909.034999999865,
      "d": 454.54499999999825,
      "v": 127
    },
    {
      "midi": 55,
      "hit": false,
      "t": 55909.034999999865,
      "d": 454.54499999999825,
      "v": 127
    },
    {
      "midi": 59,
      "hit": false,
      "t": 55909.034999999865,
      "d": 454.54499999999825,
      "v": 127
    },
    {
      "midi": 64,
      "hit": false,
      "t": 55909.034999999865,
      "d": 454.54499999999825,
      "v": 127
    },
    {
      "midi": 40,
      "hit": false,
      "t": 56363.57999999986,
      "d": 909.0899999999965,
      "v": 127
    },
    {
      "midi": 47,
      "hit": false,
      "t": 56363.57999999986,
      "d": 909.0899999999965,
      "v": 127
    },
    {
      "midi": 52,
      "hit": false,
      "t": 56363.57999999986,
      "d": 909.0899999999965,
      "v": 127
    },
    {
      "midi": 55,
      "hit": false,
      "t": 56363.57999999986,
      "d": 909.0899999999965,
      "v": 127
    },
    {
      "midi": 59,
      "hit": false,
      "t": 56363.57999999986,
      "d": 909.0899999999965,
      "v": 127
    },
    {
      "midi": 64,
      "hit": false,
      "t": 56363.57999999986,
      "d": 909.0899999999965,
      "v": 127
    },
    {
      "midi": 40,
      "hit": false,
      "t": 57272.66999999986,
      "d": 454.54499999999825,
      "v": 127
    },
    {
      "midi": 47,
      "hit": false,
      "t": 57272.66999999986,
      "d": 454.54499999999825,
      "v": 127
    },
    {
      "midi": 52,
      "hit": false,
      "t": 57272.66999999986,
      "d": 454.54499999999825,
      "v": 127
    },
    {
      "midi": 55,
      "hit": false,
      "t": 57272.66999999986,
      "d": 454.54499999999825,
      "v": 127
    },
    {
      "midi": 59,
      "hit": false,
      "t": 57272.66999999986,
      "d": 454.54499999999825,
      "v": 127
    },
    {
      "midi": 64,
      "hit": false,
      "t": 57272.66999999986,
      "d": 454.54499999999825,
      "v": 127
    },
    {
      "midi": 40,
      "hit": false,
      "t": 57727.21499999986,
      "d": 227.27249999999913,
      "v": 127
    },
    {
      "midi": 45,
      "hit": false,
      "t": 57727.21499999986,
      "d": 227.27249999999913,
      "v": 127
    },
    {
      "midi": 52,
      "hit": false,
      "t": 57727.21499999986,
      "d": 227.27249999999913,
      "v": 127
    },
    {
      "midi": 57,
      "hit": false,
      "t": 57727.21499999986,
      "d": 227.27249999999913,
      "v": 127
    },
    {
      "midi": 61,
      "hit": false,
      "t": 57727.21499999986,
      "d": 227.27249999999913,
      "v": 127
    },
    {
      "midi": 64,
      "hit": false,
      "t": 57727.21499999986,
      "d": 227.27249999999913,
      "v": 127
    },
    {
      "midi": 40,
      "hit": false,
      "t": 57954.48749999986,
      "d": 227.27249999999913,
      "v": 127
    },
    {
      "midi": 45,
      "hit": false,
      "t": 57954.48749999986,
      "d": 227.27249999999913,
      "v": 127
    },
    {
      "midi": 52,
      "hit": false,
      "t": 57954.48749999986,
      "d": 227.27249999999913,
      "v": 127
    },
    {
      "midi": 57,
      "hit": false,
      "t": 57954.48749999986,
      "d": 227.27249999999913,
      "v": 127
    },
    {
      "midi": 61,
      "hit": false,
      "t": 57954.48749999986,
      "d": 227.27249999999913,
      "v": 127
    },
    {
      "midi": 64,
      "hit": false,
      "t": 57954.48749999986,
      "d": 227.27249999999913,
      "v": 127
    },
    {
      "midi": 45,
      "hit": false,
      "t": 58181.75999999986,
      "d": 909.0899999999965,
      "v": 127
    },
    {
      "midi": 52,
      "hit": false,
      "t": 58181.75999999986,
      "d": 909.0899999999965,
      "v": 127
    },
    {
      "midi": 57,
      "hit": false,
      "t": 58181.75999999986,
      "d": 909.0899999999965,
      "v": 127
    },
    {
      "midi": 61,
      "hit": false,
      "t": 58181.75999999986,
      "d": 909.0899999999965,
      "v": 127
    },
    {
      "midi": 64,
      "hit": false,
      "t": 58181.75999999986,
      "d": 909.0899999999965,
      "v": 127
    },
    {
      "midi": 45,
      "hit": false,
      "t": 59090.84999999985,
      "d": 454.54499999999825,
      "v": 127
    },
    {
      "midi": 52,
      "hit": false,
      "t": 59090.84999999985,
      "d": 454.54499999999825,
      "v": 127
    },
    {
      "midi": 57,
      "hit": false,
      "t": 59090.84999999985,
      "d": 454.54499999999825,
      "v": 127
    },
    {
      "midi": 61,
      "hit": false,
      "t": 59090.84999999985,
      "d": 454.54499999999825,
      "v": 127
    },
    {
      "midi": 64,
      "hit": false,
      "t": 59090.84999999985,
      "d": 454.54499999999825,
      "v": 127
    },
    {
      "midi": 45,
      "hit": false,
      "t": 59545.39499999985,
      "d": 454.54499999999825,
      "v": 127
    },
    {
      "midi": 52,
      "hit": false,
      "t": 59545.39499999985,
      "d": 454.54499999999825,
      "v": 127
    },
    {
      "midi": 57,
      "hit": false,
      "t": 59545.39499999985,
      "d": 454.54499999999825,
      "v": 127
    },
    {
      "midi": 61,
      "hit": false,
      "t": 59545.39499999985,
      "d": 454.54499999999825,
      "v": 127
    },
    {
      "midi": 64,
      "hit": false,
      "t": 59545.39499999985,
      "d": 454.54499999999825,
      "v": 127
    },
    {
      "midi": 45,
      "hit": false,
      "t": 59999.93999999985,
      "d": 909.0899999999965,
      "v": 127
    },
    {
      "midi": 52,
      "hit": false,
      "t": 59999.93999999985,
      "d": 909.0899999999965,
      "v": 127
    },
    {
      "midi": 57,
      "hit": false,
      "t": 59999.93999999985,
      "d": 909.0899999999965,
      "v": 127
    },
    {
      "midi": 61,
      "hit": false,
      "t": 59999.93999999985,
      "d": 909.0899999999965,
      "v": 127
    },
    {
      "midi": 64,
      "hit": false,
      "t": 59999.93999999985,
      "d": 909.0899999999965,
      "v": 127
    },
    {
      "midi": 45,
      "hit": false,
      "t": 60909.029999999846,
      "d": 454.54499999999825,
      "v": 127
    },
    {
      "midi": 52,
      "hit": false,
      "t": 60909.029999999846,
      "d": 454.54499999999825,
      "v": 127
    },
    {
      "midi": 57,
      "hit": false,
      "t": 60909.029999999846,
      "d": 454.54499999999825,
      "v": 127
    },
    {
      "midi": 61,
      "hit": false,
      "t": 60909.029999999846,
      "d": 454.54499999999825,
      "v": 127
    },
    {
      "midi": 64,
      "hit": false,
      "t": 60909.029999999846,
      "d": 454.54499999999825,
      "v": 127
    },
    {
      "midi": 45,
      "hit": false,
      "t": 61363.574999999844,
      "d": 227.27249999999913,
      "v": 127
    },
    {
      "midi": 52,
      "hit": false,
      "t": 61363.574999999844,
      "d": 227.27249999999913,
      "v": 127
    },
    {
      "midi": 57,
      "hit": false,
      "t": 61363.574999999844,
      "d": 227.27249999999913,
      "v": 127
    },
    {
      "midi": 61,
      "hit": false,
      "t": 61363.574999999844,
      "d": 227.27249999999913,
      "v": 127
    },
    {
      "midi": 64,
      "hit": false,
      "t": 61363.574999999844,
      "d": 227.27249999999913,
      "v": 127
    },
    {
      "midi": 45,
      "hit": false,
      "t": 61590.84749999984,
      "d": 227.27249999999913,
      "v": 127
    },
    {
      "midi": 52,
      "hit": false,
      "t": 61590.84749999984,
      "d": 227.27249999999913,
      "v": 127
    },
    {
      "midi": 57,
      "hit": false,
      "t": 61590.84749999984,
      "d": 227.27249999999913,
      "v": 127
    },
    {
      "midi": 61,
      "hit": false,
      "t": 61590.84749999984,
      "d": 227.27249999999913,
      "v": 127
    },
    {
      "midi": 64,
      "hit": false,
      "t": 61590.84749999984,
      "d": 227.27249999999913,
      "v": 127
    },
    {
      "midi": 40,
      "hit": false,
      "t": 61818.11999999984,
      "d": 909.0899999999965,
      "v": 127
    },
    {
      "midi": 47,
      "hit": false,
      "t": 61818.11999999984,
      "d": 909.0899999999965,
      "v": 127
    },
    {
      "midi": 52,
      "hit": false,
      "t": 61818.11999999984,
      "d": 909.0899999999965,
      "v": 127
    },
    {
      "midi": 55,
      "hit": false,
      "t": 61818.11999999984,
      "d": 909.0899999999965,
      "v": 127
    },
    {
      "midi": 59,
      "hit": false,
      "t": 61818.11999999984,
      "d": 909.0899999999965,
      "v": 127
    },
    {
      "midi": 64,
      "hit": false,
      "t": 61818.11999999984,
      "d": 909.0899999999965,
      "v": 127
    },
    {
      "midi": 40,
      "hit": false,
      "t": 62727.20999999984,
      "d": 454.54499999999825,
      "v": 127
    },
    {
      "midi": 47,
      "hit": false,
      "t": 62727.20999999984,
      "d": 454.54499999999825,
      "v": 127
    },
    {
      "midi": 52,
      "hit": false,
      "t": 62727.20999999984,
      "d": 454.54499999999825,
      "v": 127
    },
    {
      "midi": 55,
      "hit": false,
      "t": 62727.20999999984,
      "d": 454.54499999999825,
      "v": 127
    },
    {
      "midi": 59,
      "hit": false,
      "t": 62727.20999999984,
      "d": 454.54499999999825,
      "v": 127
    },
    {
      "midi": 64,
      "hit": false,
      "t": 62727.20999999984,
      "d": 454.54499999999825,
      "v": 127
    },
    {
      "midi": 40,
      "hit": false,
      "t": 63181.75499999984,
      "d": 454.54499999999825,
      "v": 127
    },
    {
      "midi": 47,
      "hit": false,
      "t": 63181.75499999984,
      "d": 454.54499999999825,
      "v": 127
    },
    {
      "midi": 52,
      "hit": false,
      "t": 63181.75499999984,
      "d": 454.54499999999825,
      "v": 127
    },
    {
      "midi": 55,
      "hit": false,
      "t": 63181.75499999984,
      "d": 454.54499999999825,
      "v": 127
    },
    {
      "midi": 59,
      "hit": false,
      "t": 63181.75499999984,
      "d": 454.54499999999825,
      "v": 127
    },
    {
      "midi": 64,
      "hit": false,
      "t": 63181.75499999984,
      "d": 454.54499999999825,
      "v": 127
    },
    {
      "midi": 40,
      "hit": false,
      "t": 63636.299999999836,
      "d": 909.0899999999965,
      "v": 127
    },
    {
      "midi": 47,
      "hit": false,
      "t": 63636.299999999836,
      "d": 909.0899999999965,
      "v": 127
    },
    {
      "midi": 52,
      "hit": false,
      "t": 63636.299999999836,
      "d": 909.0899999999965,
      "v": 127
    },
    {
      "midi": 55,
      "hit": false,
      "t": 63636.299999999836,
      "d": 909.0899999999965,
      "v": 127
    },
    {
      "midi": 59,
      "hit": false,
      "t": 63636.299999999836,
      "d": 909.0899999999965,
      "v": 127
    },
    {
      "midi": 64,
      "hit": false,
      "t": 63636.299999999836,
      "d": 909.0899999999965,
      "v": 127
    },
    {
      "midi": 40,
      "hit": false,
      "t": 64545.38999999983,
      "d": 454.54499999999825,
      "v": 127
    },
    {
      "midi": 47,
      "hit": false,
      "t": 64545.38999999983,
      "d": 454.54499999999825,
      "v": 127
    },
    {
      "midi": 52,
      "hit": false,
      "t": 64545.38999999983,
      "d": 454.54499999999825,
      "v": 127
    },
    {
      "midi": 55,
      "hit": false,
      "t": 64545.38999999983,
      "d": 454.54499999999825,
      "v": 127
    },
    {
      "midi": 59,
      "hit": false,
      "t": 64545.38999999983,
      "d": 454.54499999999825,
      "v": 127
    },
    {
      "midi": 64,
      "hit": false,
      "t": 64545.38999999983,
      "d": 454.54499999999825,
      "v": 127
    },
    {
      "midi": 40,
      "hit": false,
      "t": 64999.93499999983,
      "d": 227.27249999999913,
      "v": 127
    },
    {
      "midi": 45,
      "hit": false,
      "t": 64999.93499999983,
      "d": 227.27249999999913,
      "v": 127
    },
    {
      "midi": 52,
      "hit": false,
      "t": 64999.93499999983,
      "d": 227.27249999999913,
      "v": 127
    },
    {
      "midi": 57,
      "hit": false,
      "t": 64999.93499999983,
      "d": 227.27249999999913,
      "v": 127
    },
    {
      "midi": 61,
      "hit": false,
      "t": 64999.93499999983,
      "d": 227.27249999999913,
      "v": 127
    },
    {
      "midi": 64,
      "hit": false,
      "t": 64999.93499999983,
      "d": 227.27249999999913,
      "v": 127
    },
    {
      "midi": 40,
      "hit": false,
      "t": 65227.20749999983,
      "d": 227.27249999999913,
      "v": 127
    },
    {
      "midi": 45,
      "hit": false,
      "t": 65227.20749999983,
      "d": 227.27249999999913,
      "v": 127
    },
    {
      "midi": 52,
      "hit": false,
      "t": 65227.20749999983,
      "d": 227.27249999999913,
      "v": 127
    },
    {
      "midi": 57,
      "hit": false,
      "t": 65227.20749999983,
      "d": 227.27249999999913,
      "v": 127
    },
    {
      "midi": 61,
      "hit": false,
      "t": 65227.20749999983,
      "d": 227.27249999999913,
      "v": 127
    },
    {
      "midi": 64,
      "hit": false,
      "t": 65227.20749999983,
      "d": 227.27249999999913,
      "v": 127
    },
    {
      "midi": 45,
      "hit": false,
      "t": 65454.47999999983,
      "d": 909.0900000000038,
      "v": 127
    },
    {
      "midi": 52,
      "hit": false,
      "t": 65454.47999999983,
      "d": 909.0900000000038,
      "v": 127
    },
    {
      "midi": 57,
      "hit": false,
      "t": 65454.47999999983,
      "d": 909.0900000000038,
      "v": 127
    },
    {
      "midi": 61,
      "hit": false,
      "t": 65454.47999999983,
      "d": 909.0900000000038,
      "v": 127
    },
    {
      "midi": 64,
      "hit": false,
      "t": 65454.47999999983,
      "d": 909.0900000000038,
      "v": 127
    },
    {
      "midi": 45,
      "hit": false,
      "t": 66363.56999999983,
      "d": 454.54499999999825,
      "v": 127
    },
    {
      "midi": 52,
      "hit": false,
      "t": 66363.56999999983,
      "d": 454.54499999999825,
      "v": 127
    },
    {
      "midi": 57,
      "hit": false,
      "t": 66363.56999999983,
      "d": 454.54499999999825,
      "v": 127
    },
    {
      "midi": 61,
      "hit": false,
      "t": 66363.56999999983,
      "d": 454.54499999999825,
      "v": 127
    },
    {
      "midi": 64,
      "hit": false,
      "t": 66363.56999999983,
      "d": 454.54499999999825,
      "v": 127
    },
    {
      "midi": 45,
      "hit": false,
      "t": 66818.11499999983,
      "d": 454.54499999999825,
      "v": 127
    },
    {
      "midi": 52,
      "hit": false,
      "t": 66818.11499999983,
      "d": 454.54499999999825,
      "v": 127
    },
    {
      "midi": 57,
      "hit": false,
      "t": 66818.11499999983,
      "d": 454.54499999999825,
      "v": 127
    },
    {
      "midi": 61,
      "hit": false,
      "t": 66818.11499999983,
      "d": 454.54499999999825,
      "v": 127
    },
    {
      "midi": 64,
      "hit": false,
      "t": 66818.11499999983,
      "d": 454.54499999999825,
      "v": 127
    },
    {
      "midi": 45,
      "hit": false,
      "t": 67272.65999999983,
      "d": 909.0899999999965,
      "v": 127
    },
    {
      "midi": 52,
      "hit": false,
      "t": 67272.65999999983,
      "d": 909.0899999999965,
      "v": 127
    },
    {
      "midi": 57,
      "hit": false,
      "t": 67272.65999999983,
      "d": 909.0899999999965,
      "v": 127
    },
    {
      "midi": 61,
      "hit": false,
      "t": 67272.65999999983,
      "d": 909.0899999999965,
      "v": 127
    },
    {
      "midi": 64,
      "hit": false,
      "t": 67272.65999999983,
      "d": 909.0899999999965,
      "v": 127
    },
    {
      "midi": 45,
      "hit": false,
      "t": 68181.74999999983,
      "d": 454.54499999999825,
      "v": 127
    },
    {
      "midi": 52,
      "hit": false,
      "t": 68181.74999999983,
      "d": 454.54499999999825,
      "v": 127
    },
    {
      "midi": 57,
      "hit": false,
      "t": 68181.74999999983,
      "d": 454.54499999999825,
      "v": 127
    },
    {
      "midi": 61,
      "hit": false,
      "t": 68181.74999999983,
      "d": 454.54499999999825,
      "v": 127
    },
    {
      "midi": 64,
      "hit": false,
      "t": 68181.74999999983,
      "d": 454.54499999999825,
      "v": 127
    },
    {
      "midi": 45,
      "hit": false,
      "t": 68636.29499999982,
      "d": 227.2725000000064,
      "v": 127
    },
    {
      "midi": 52,
      "hit": false,
      "t": 68636.29499999982,
      "d": 227.2725000000064,
      "v": 127
    },
    {
      "midi": 57,
      "hit": false,
      "t": 68636.29499999982,
      "d": 227.2725000000064,
      "v": 127
    },
    {
      "midi": 61,
      "hit": false,
      "t": 68636.29499999982,
      "d": 227.2725000000064,
      "v": 127
    },
    {
      "midi": 64,
      "hit": false,
      "t": 68636.29499999982,
      "d": 227.2725000000064,
      "v": 127
    },
    {
      "midi": 45,
      "hit": false,
      "t": 68863.56749999983,
      "d": 227.2725000000064,
      "v": 127
    },
    {
      "midi": 52,
      "hit": false,
      "t": 68863.56749999983,
      "d": 227.2725000000064,
      "v": 127
    },
    {
      "midi": 57,
      "hit": false,
      "t": 68863.56749999983,
      "d": 227.2725000000064,
      "v": 127
    },
    {
      "midi": 61,
      "hit": false,
      "t": 68863.56749999983,
      "d": 227.2725000000064,
      "v": 127
    },
    {
      "midi": 64,
      "hit": false,
      "t": 68863.56749999983,
      "d": 227.2725000000064,
      "v": 127
    },
    {
      "midi": 40,
      "hit": false,
      "t": 69090.83999999984,
      "d": 909.0899999999965,
      "v": 127
    },
    {
      "midi": 47,
      "hit": false,
      "t": 69090.83999999984,
      "d": 909.0899999999965,
      "v": 127
    },
    {
      "midi": 52,
      "hit": false,
      "t": 69090.83999999984,
      "d": 909.0899999999965,
      "v": 127
    },
    {
      "midi": 55,
      "hit": false,
      "t": 69090.83999999984,
      "d": 909.0899999999965,
      "v": 127
    },
    {
      "midi": 59,
      "hit": false,
      "t": 69090.83999999984,
      "d": 909.0899999999965,
      "v": 127
    },
    {
      "midi": 64,
      "hit": false,
      "t": 69090.83999999984,
      "d": 909.0899999999965,
      "v": 127
    },
    {
      "midi": 40,
      "hit": false,
      "t": 69999.92999999983,
      "d": 454.54499999999825,
      "v": 127
    },
    {
      "midi": 47,
      "hit": false,
      "t": 69999.92999999983,
      "d": 454.54499999999825,
      "v": 127
    },
    {
      "midi": 52,
      "hit": false,
      "t": 69999.92999999983,
      "d": 454.54499999999825,
      "v": 127
    },
    {
      "midi": 55,
      "hit": false,
      "t": 69999.92999999983,
      "d": 454.54499999999825,
      "v": 127
    },
    {
      "midi": 59,
      "hit": false,
      "t": 69999.92999999983,
      "d": 454.54499999999825,
      "v": 127
    },
    {
      "midi": 64,
      "hit": false,
      "t": 69999.92999999983,
      "d": 454.54499999999825,
      "v": 127
    },
    {
      "midi": 40,
      "hit": false,
      "t": 70454.47499999983,
      "d": 454.54499999999825,
      "v": 127
    },
    {
      "midi": 47,
      "hit": false,
      "t": 70454.47499999983,
      "d": 454.54499999999825,
      "v": 127
    },
    {
      "midi": 52,
      "hit": false,
      "t": 70454.47499999983,
      "d": 454.54499999999825,
      "v": 127
    },
    {
      "midi": 55,
      "hit": false,
      "t": 70454.47499999983,
      "d": 454.54499999999825,
      "v": 127
    },
    {
      "midi": 59,
      "hit": false,
      "t": 70454.47499999983,
      "d": 454.54499999999825,
      "v": 127
    },
    {
      "midi": 64,
      "hit": false,
      "t": 70454.47499999983,
      "d": 454.54499999999825,
      "v": 127
    },
    {
      "midi": 40,
      "hit": false,
      "t": 70909.01999999983,
      "d": 909.0899999999965,
      "v": 127
    },
    {
      "midi": 47,
      "hit": false,
      "t": 70909.01999999983,
      "d": 909.0899999999965,
      "v": 127
    },
    {
      "midi": 52,
      "hit": false,
      "t": 70909.01999999983,
      "d": 909.0899999999965,
      "v": 127
    },
    {
      "midi": 55,
      "hit": false,
      "t": 70909.01999999983,
      "d": 909.0899999999965,
      "v": 127
    },
    {
      "midi": 59,
      "hit": false,
      "t": 70909.01999999983,
      "d": 909.0899999999965,
      "v": 127
    },
    {
      "midi": 64,
      "hit": false,
      "t": 70909.01999999983,
      "d": 909.0899999999965,
      "v": 127
    },
    {
      "midi": 40,
      "hit": false,
      "t": 71818.10999999983,
      "d": 454.54499999999825,
      "v": 127
    },
    {
      "midi": 47,
      "hit": false,
      "t": 71818.10999999983,
      "d": 454.54499999999825,
      "v": 127
    },
    {
      "midi": 52,
      "hit": false,
      "t": 71818.10999999983,
      "d": 454.54499999999825,
      "v": 127
    },
    {
      "midi": 55,
      "hit": false,
      "t": 71818.10999999983,
      "d": 454.54499999999825,
      "v": 127
    },
    {
      "midi": 59,
      "hit": false,
      "t": 71818.10999999983,
      "d": 454.54499999999825,
      "v": 127
    },
    {
      "midi": 64,
      "hit": false,
      "t": 71818.10999999983,
      "d": 454.54499999999825,
      "v": 127
    },
    {
      "midi": 40,
      "hit": false,
      "t": 72272.65499999982,
      "d": 227.2725000000064,
      "v": 127
    },
    {
      "midi": 45,
      "hit": false,
      "t": 72272.65499999982,
      "d": 227.2725000000064,
      "v": 127
    },
    {
      "midi": 52,
      "hit": false,
      "t": 72272.65499999982,
      "d": 227.2725000000064,
      "v": 127
    },
    {
      "midi": 57,
      "hit": false,
      "t": 72272.65499999982,
      "d": 227.2725000000064,
      "v": 127
    },
    {
      "midi": 61,
      "hit": false,
      "t": 72272.65499999982,
      "d": 227.2725000000064,
      "v": 127
    },
    {
      "midi": 64,
      "hit": false,
      "t": 72272.65499999982,
      "d": 227.2725000000064,
      "v": 127
    },
    {
      "midi": 40,
      "hit": false,
      "t": 72499.92749999983,
      "d": 227.2725000000064,
      "v": 127
    },
    {
      "midi": 45,
      "hit": false,
      "t": 72499.92749999983,
      "d": 227.2725000000064,
      "v": 127
    },
    {
      "midi": 52,
      "hit": false,
      "t": 72499.92749999983,
      "d": 227.2725000000064,
      "v": 127
    },
    {
      "midi": 57,
      "hit": false,
      "t": 72499.92749999983,
      "d": 227.2725000000064,
      "v": 127
    },
    {
      "midi": 61,
      "hit": false,
      "t": 72499.92749999983,
      "d": 227.2725000000064,
      "v": 127
    },
    {
      "midi": 64,
      "hit": false,
      "t": 72499.92749999983,
      "d": 227.2725000000064,
      "v": 127
    },
    {
      "midi": 48,
      "hit": false,
      "t": 72727.19999999984,
      "d": 454.54499999999825,
      "v": 127
    },
    {
      "midi": 52,
      "hit": false,
      "t": 72727.19999999984,
      "d": 454.54499999999825,
      "v": 127
    },
    {
      "midi": 52,
      "hit": false,
      "t": 73181.74499999984,
      "d": 454.54499999999825,
      "v": 127
    },
    {
      "midi": 58,
      "hit": false,
      "t": 73181.74499999984,
      "d": 454.54499999999825,
      "v": 127
    },
    {
      "midi": 58,
      "hit": false,
      "t": 73636.28999999983,
      "d": 454.54499999999825,
      "v": 127
    },
    {
      "midi": 60,
      "hit": false,
      "t": 73636.28999999983,
      "d": 454.54499999999825,
      "v": 127
    },
    {
      "midi": 58,
      "hit": false,
      "t": 74090.83499999983,
      "d": 454.54499999999825,
      "v": 127
    },
    {
      "midi": 60,
      "hit": false,
      "t": 74090.83499999983,
      "d": 454.54499999999825,
      "v": 127
    },
    {
      "midi": 47,
      "hit": false,
      "t": 74545.37999999983,
      "d": 3636.3600000000006,
      "v": 127
    },
    {
      "midi": 51,
      "hit": false,
      "t": 74545.37999999983,
      "d": 3636.3600000000006,
      "v": 127
    },
    {
      "midi": 57,
      "hit": false,
      "t": 74545.37999999983,
      "d": 3636.3600000000006,
      "v": 127
    },
    {
      "midi": 59,
      "hit": false,
      "t": 74545.37999999983,
      "d": 3636.3600000000006,
      "v": 127
    },
    {
      "midi": 40,
      "hit": false,
      "t": 78181.73999999983,
      "d": 909.0899999999965,
      "v": 127
    },
    {
      "midi": 47,
      "hit": false,
      "t": 78181.73999999983,
      "d": 909.0899999999965,
      "v": 127
    },
    {
      "midi": 52,
      "hit": false,
      "t": 79090.82999999983,
      "d": 454.54499999999825,
      "v": 127
    },
    {
      "midi": 55,
      "hit": false,
      "t": 79090.82999999983,
      "d": 454.54499999999825,
      "v": 127
    },
    {
      "midi": 52,
      "hit": false,
      "t": 79545.37499999983,
      "d": 227.2725000000064,
      "v": 127
    },
    {
      "midi": 55,
      "hit": false,
      "t": 79545.37499999983,
      "d": 227.2725000000064,
      "v": 127
    },
    {
      "midi": 59,
      "hit": false,
      "t": 79772.64749999983,
      "d": 454.54499999999825,
      "v": 127
    },
    {
      "midi": 64,
      "hit": false,
      "t": 79772.64749999983,
      "d": 454.54499999999825,
      "v": 127
    },
    {
      "midi": 55,
      "hit": false,
      "t": 80227.19249999983,
      "d": 681.8175000000047,
      "v": 127
    },
    {
      "midi": 59,
      "hit": false,
      "t": 80227.19249999983,
      "d": 681.8175000000047,
      "v": 127
    },
    {
      "midi": 40,
      "hit": false,
      "t": 80909.00999999983,
      "d": 227.2725000000064,
      "v": 127
    },
    {
      "midi": 59,
      "hit": false,
      "t": 81136.28249999984,
      "d": 454.54499999999825,
      "v": 127
    },
    {
      "midi": 64,
      "hit": false,
      "t": 81136.28249999984,
      "d": 454.54499999999825,
      "v": 127
    },
    {
      "midi": 55,
      "hit": false,
      "t": 81590.82749999984,
      "d": 227.2725000000064,
      "v": 127
    },
    {
      "midi": 59,
      "hit": false,
      "t": 81590.82749999984,
      "d": 227.2725000000064,
      "v": 127
    },
    {
      "midi": 40,
      "hit": false,
      "t": 81818.09999999985,
      "d": 909.0899999999965,
      "v": 127
    },
    {
      "midi": 47,
      "hit": false,
      "t": 81818.09999999985,
      "d": 909.0899999999965,
      "v": 127
    },
    {
      "midi": 52,
      "hit": false,
      "t": 82727.18999999984,
      "d": 454.54499999999825,
      "v": 127
    },
    {
      "midi": 55,
      "hit": false,
      "t": 82727.18999999984,
      "d": 454.54499999999825,
      "v": 127
    },
    {
      "midi": 52,
      "hit": false,
      "t": 83181.73499999984,
      "d": 227.2725000000064,
      "v": 127
    },
    {
      "midi": 55,
      "hit": false,
      "t": 83181.73499999984,
      "d": 227.2725000000064,
      "v": 127
    },
    {
      "midi": 59,
      "hit": false,
      "t": 83409.00749999985,
      "d": 454.54499999999825,
      "v": 127
    },
    {
      "midi": 64,
      "hit": false,
      "t": 83409.00749999985,
      "d": 454.54499999999825,
      "v": 127
    },
    {
      "midi": 55,
      "hit": false,
      "t": 83863.55249999985,
      "d": 227.2725000000064,
      "v": 127
    },
    {
      "midi": 59,
      "hit": false,
      "t": 83863.55249999985,
      "d": 227.2725000000064,
      "v": 127
    },
    {
      "midi": 40,
      "hit": false,
      "t": 84090.82499999985,
      "d": 227.2725000000064,
      "v": 127
    },
    {
      "midi": 47,
      "hit": false,
      "t": 84090.82499999985,
      "d": 227.2725000000064,
      "v": 127
    },
    {
      "midi": 40,
      "hit": false,
      "t": 84318.09749999986,
      "d": 227.2725000000064,
      "v": 127
    },
    {
      "midi": 47,
      "hit": false,
      "t": 84318.09749999986,
      "d": 227.2725000000064,
      "v": 127
    },
    {
      "midi": 41,
      "hit": false,
      "t": 84545.36999999986,
      "d": 227.2725000000064,
      "v": 127
    },
    {
      "midi": 47,
      "hit": false,
      "t": 84545.36999999986,
      "d": 227.2725000000064,
      "v": 127
    },
    {
      "midi": 41,
      "hit": false,
      "t": 84772.64249999987,
      "d": 227.2725000000064,
      "v": 127
    },
    {
      "midi": 47,
      "hit": false,
      "t": 84772.64249999987,
      "d": 227.2725000000064,
      "v": 127
    },
    {
      "midi": 41,
      "hit": false,
      "t": 84999.91499999988,
      "d": 227.2725000000064,
      "v": 127
    },
    {
      "midi": 47,
      "hit": false,
      "t": 84999.91499999988,
      "d": 227.2725000000064,
      "v": 127
    },
    {
      "midi": 41,
      "hit": false,
      "t": 85227.18749999988,
      "d": 227.2725000000064,
      "v": 127
    },
    {
      "midi": 47,
      "hit": false,
      "t": 85227.18749999988,
      "d": 227.2725000000064,
      "v": 127
    },
    {
      "midi": 40,
      "hit": false,
      "t": 85454.45999999989,
      "d": 909.0899999999965,
      "v": 127
    },
    {
      "midi": 47,
      "hit": false,
      "t": 85454.45999999989,
      "d": 909.0899999999965,
      "v": 127
    },
    {
      "midi": 52,
      "hit": false,
      "t": 86363.54999999989,
      "d": 454.54499999999825,
      "v": 127
    },
    {
      "midi": 55,
      "hit": false,
      "t": 86363.54999999989,
      "d": 454.54499999999825,
      "v": 127
    },
    {
      "midi": 52,
      "hit": false,
      "t": 86818.09499999988,
      "d": 227.2725000000064,
      "v": 127
    },
    {
      "midi": 55,
      "hit": false,
      "t": 86818.09499999988,
      "d": 227.2725000000064,
      "v": 127
    },
    {
      "midi": 59,
      "hit": false,
      "t": 87045.36749999989,
      "d": 454.54499999999825,
      "v": 127
    },
    {
      "midi": 64,
      "hit": false,
      "t": 87045.36749999989,
      "d": 454.54499999999825,
      "v": 127
    },
    {
      "midi": 55,
      "hit": false,
      "t": 87499.91249999989,
      "d": 227.2725000000064,
      "v": 127
    },
    {
      "midi": 59,
      "hit": false,
      "t": 87499.91249999989,
      "d": 227.2725000000064,
      "v": 127
    },
    {
      "midi": 40,
      "hit": false,
      "t": 87727.1849999999,
      "d": 454.54499999999825,
      "v": 127
    },
    {
      "midi": 47,
      "hit": false,
      "t": 87727.1849999999,
      "d": 454.54499999999825,
      "v": 127
    },
    {
      "midi": 52,
      "hit": false,
      "t": 88181.7299999999,
      "d": 227.2725000000064,
      "v": 127
    },
    {
      "midi": 55,
      "hit": false,
      "t": 88181.7299999999,
      "d": 227.2725000000064,
      "v": 127
    },
    {
      "midi": 59,
      "hit": false,
      "t": 88181.7299999999,
      "d": 227.2725000000064,
      "v": 127
    },
    {
      "midi": 52,
      "hit": false,
      "t": 88409.0024999999,
      "d": 227.2725000000064,
      "v": 127
    },
    {
      "midi": 55,
      "hit": false,
      "t": 88409.0024999999,
      "d": 227.2725000000064,
      "v": 127
    },
    {
      "midi": 59,
      "hit": false,
      "t": 88409.0024999999,
      "d": 227.2725000000064,
      "v": 127
    },
    {
      "midi": 52,
      "hit": false,
      "t": 88636.2749999999,
      "d": 227.2725000000064,
      "v": 127
    },
    {
      "midi": 55,
      "hit": false,
      "t": 88636.2749999999,
      "d": 227.2725000000064,
      "v": 127
    },
    {
      "midi": 59,
      "hit": false,
      "t": 88636.2749999999,
      "d": 227.2725000000064,
      "v": 127
    },
    {
      "midi": 52,
      "hit": false,
      "t": 88863.54749999991,
      "d": 227.2725000000064,
      "v": 127
    },
    {
      "midi": 55,
      "hit": false,
      "t": 88863.54749999991,
      "d": 227.2725000000064,
      "v": 127
    },
    {
      "midi": 59,
      "hit": false,
      "t": 88863.54749999991,
      "d": 227.2725000000064,
      "v": 127
    },
    {
      "midi": 40,
      "hit": false,
      "t": 89090.81999999992,
      "d": 909.0899999999965,
      "v": 127
    },
    {
      "midi": 47,
      "hit": false,
      "t": 89090.81999999992,
      "d": 909.0899999999965,
      "v": 127
    },
    {
      "midi": 40,
      "hit": false,
      "t": 89999.90999999992,
      "d": 681.8175000000047,
      "v": 127
    },
    {
      "midi": 47,
      "hit": false,
      "t": 89999.90999999992,
      "d": 681.8175000000047,
      "v": 127
    },
    {
      "midi": 59,
      "hit": false,
      "t": 90681.72749999992,
      "d": 454.54499999999825,
      "v": 127
    },
    {
      "midi": 64,
      "hit": false,
      "t": 90681.72749999992,
      "d": 454.54499999999825,
      "v": 127
    },
    {
      "midi": 55,
      "hit": false,
      "t": 91136.27249999992,
      "d": 227.2725000000064,
      "v": 127
    },
    {
      "midi": 59,
      "hit": false,
      "t": 91136.27249999992,
      "d": 227.2725000000064,
      "v": 127
    },
    {
      "midi": 40,
      "hit": false,
      "t": 91363.54499999993,
      "d": 454.54499999999825,
      "v": 127
    },
    {
      "midi": 47,
      "hit": false,
      "t": 91363.54499999993,
      "d": 454.54499999999825,
      "v": 127
    },
    {
      "midi": 40,
      "hit": false,
      "t": 91818.08999999992,
      "d": 227.2725000000064,
      "v": 127
    },
    {
      "midi": 47,
      "hit": false,
      "t": 91818.08999999992,
      "d": 227.2725000000064,
      "v": 127
    },
    {
      "midi": 59,
      "hit": false,
      "t": 92045.36249999993,
      "d": 227.2725000000064,
      "v": 127
    },
    {
      "midi": 64,
      "hit": false,
      "t": 92045.36249999993,
      "d": 227.2725000000064,
      "v": 127
    },
    {
      "midi": 40,
      "hit": false,
      "t": 92272.63499999994,
      "d": 227.2725000000064,
      "v": 127
    },
    {
      "midi": 47,
      "hit": false,
      "t": 92272.63499999994,
      "d": 227.2725000000064,
      "v": 127
    },
    {
      "midi": 55,
      "hit": false,
      "t": 92499.90749999994,
      "d": 227.2725000000064,
      "v": 127
    },
    {
      "midi": 59,
      "hit": false,
      "t": 92499.90749999994,
      "d": 227.2725000000064,
      "v": 127
    },
    {
      "midi": 40,
      "hit": false,
      "t": 92727.17999999995,
      "d": 909.0899999999965,
      "v": 127
    },
    {
      "midi": 52,
      "hit": false,
      "t": 93636.26999999995,
      "d": 909.0899999999965,
      "v": 127
    },
    {
      "midi": 55,
      "hit": false,
      "t": 93636.26999999995,
      "d": 909.0899999999965,
      "v": 127
    },
    {
      "midi": 59,
      "hit": false,
      "t": 93636.26999999995,
      "d": 909.0899999999965,
      "v": 127
    },
    {
      "midi": 45,
      "hit": false,
      "t": 94545.35999999994,
      "d": 454.54499999999825,
      "v": 127
    },
    {
      "midi": 52,
      "hit": false,
      "t": 94999.90499999994,
      "d": 454.54499999999825,
      "v": 127
    },
    {
      "midi": 57,
      "hit": false,
      "t": 95454.44999999994,
      "d": 454.54499999999825,
      "v": 127
    },
    {
      "midi": 60,
      "hit": false,
      "t": 95454.44999999994,
      "d": 454.54499999999825,
      "v": 127
    },
    {
      "midi": 64,
      "hit": false,
      "t": 95454.44999999994,
      "d": 454.54499999999825,
      "v": 127
    },
    {
      "midi": 55,
      "hit": false,
      "t": 95908.99499999994,
      "d": 227.2725000000064,
      "v": 127
    },
    {
      "midi": 50,
      "hit": false,
      "t": 96136.26749999994,
      "d": 227.2725000000064,
      "v": 127
    },
    {
      "midi": 55,
      "hit": false,
      "t": 96136.26749999994,
      "d": 227.2725000000064,
      "v": 127
    },
    {
      "midi": 43,
      "hit": false,
      "t": 96363.53999999995,
      "d": 909.0899999999965,
      "v": 127
    },
    {
      "midi": 55,
      "hit": false,
      "t": 97272.62999999995,
      "d": 454.54499999999825,
      "v": 127
    },
    {
      "midi": 59,
      "hit": false,
      "t": 97272.62999999995,
      "d": 454.54499999999825,
      "v": 127
    },
    {
      "midi": 67,
      "hit": false,
      "t": 97272.62999999995,
      "d": 454.54499999999825,
      "v": 127
    },
    {
      "midi": 55,
      "hit": false,
      "t": 97727.17499999994,
      "d": 227.2725000000064,
      "v": 127
    },
    {
      "midi": 59,
      "hit": false,
      "t": 97727.17499999994,
      "d": 227.2725000000064,
      "v": 127
    },
    {
      "midi": 55,
      "hit": false,
      "t": 97954.44749999995,
      "d": 227.2725000000064,
      "v": 127
    },
    {
      "midi": 59,
      "hit": false,
      "t": 97954.44749999995,
      "d": 227.2725000000064,
      "v": 127
    },
    {
      "midi": 54,
      "hit": false,
      "t": 98181.71999999996,
      "d": 909.0899999999965,
      "v": 127
    },
    {
      "midi": 59,
      "hit": false,
      "t": 98181.71999999996,
      "d": 909.0899999999965,
      "v": 127
    },
    {
      "midi": 54,
      "hit": false,
      "t": 99090.80999999995,
      "d": 454.54499999999825,
      "v": 127
    },
    {
      "midi": 59,
      "hit": false,
      "t": 99090.80999999995,
      "d": 454.54499999999825,
      "v": 127
    },
    {
      "midi": 62,
      "hit": false,
      "t": 99090.80999999995,
      "d": 454.54499999999825,
      "v": 127
    },
    {
      "midi": 59,
      "hit": false,
      "t": 99545.35499999995,
      "d": 227.2725000000064,
      "v": 127
    },
    {
      "midi": 62,
      "hit": false,
      "t": 99772.62749999996,
      "d": 227.2725000000064,
      "v": 127
    },
    {
      "midi": 66,
      "hit": false,
      "t": 99999.89999999997,
      "d": 227.2725000000064,
      "v": 127
    },
    {
      "midi": 64,
      "hit": false,
      "t": 100227.17249999997,
      "d": 227.2725000000064,
      "v": 127
    },
    {
      "midi": 54,
      "hit": false,
      "t": 100454.44499999998,
      "d": 454.54499999999825,
      "v": 127
    },
    {
      "midi": 54,
      "hit": false,
      "t": 100908.98999999998,
      "d": 227.2725000000064,
      "v": 127
    },
    {
      "midi": 59,
      "hit": false,
      "t": 100908.98999999998,
      "d": 227.2725000000064,
      "v": 127
    },
    {
      "midi": 62,
      "hit": false,
      "t": 101136.26249999998,
      "d": 227.2725000000064,
      "v": 127
    },
    {
      "midi": 59,
      "hit": false,
      "t": 101363.53499999999,
      "d": 227.2725000000064,
      "v": 127
    },
    {
      "midi": 55,
      "hit": false,
      "t": 101590.8075,
      "d": 227.2725000000064,
      "v": 127
    },
    {
      "midi": 59,
      "hit": false,
      "t": 101590.8075,
      "d": 227.2725000000064,
      "v": 127
    },
    {
      "midi": 40,
      "hit": false,
      "t": 101818.08,
      "d": 909.0899999999965,
      "v": 127
    },
    {
      "midi": 52,
      "hit": false,
      "t": 102727.17,
      "d": 454.54499999999825,
      "v": 127
    },
    {
      "midi": 55,
      "hit": false,
      "t": 102727.17,
      "d": 454.54499999999825,
      "v": 127
    },
    {
      "midi": 59,
      "hit": false,
      "t": 102727.17,
      "d": 454.54499999999825,
      "v": 127
    },
    {
      "midi": 52,
      "hit": false,
      "t": 103181.715,
      "d": 227.2725000000064,
      "v": 127
    },
    {
      "midi": 59,
      "hit": false,
      "t": 103408.9875,
      "d": 227.2725000000064,
      "v": 127
    },
    {
      "midi": 64,
      "hit": false,
      "t": 103408.9875,
      "d": 227.2725000000064,
      "v": 127
    },
    {
      "midi": 47,
      "hit": false,
      "t": 103636.26000000001,
      "d": 454.54499999999825,
      "v": 127
    },
    {
      "midi": 47,
      "hit": false,
      "t": 104090.80500000001,
      "d": 454.54499999999825,
      "v": 127
    },
    {
      "midi": 52,
      "hit": false,
      "t": 104090.80500000001,
      "d": 454.54499999999825,
      "v": 127
    },
    {
      "midi": 47,
      "hit": false,
      "t": 104545.35,
      "d": 227.2725000000064,
      "v": 127
    },
    {
      "midi": 52,
      "hit": false,
      "t": 104545.35,
      "d": 227.2725000000064,
      "v": 127
    },
    {
      "midi": 55,
      "hit": false,
      "t": 104545.35,
      "d": 227.2725000000064,
      "v": 127
    },
    {
      "midi": 59,
      "hit": false,
      "t": 104545.35,
      "d": 227.2725000000064,
      "v": 127
    },
    {
      "midi": 47,
      "hit": false,
      "t": 104772.62250000001,
      "d": 227.2725000000064,
      "v": 127
    },
    {
      "midi": 52,
      "hit": false,
      "t": 104772.62250000001,
      "d": 227.2725000000064,
      "v": 127
    },
    {
      "midi": 55,
      "hit": false,
      "t": 104772.62250000001,
      "d": 227.2725000000064,
      "v": 127
    },
    {
      "midi": 59,
      "hit": false,
      "t": 104772.62250000001,
      "d": 227.2725000000064,
      "v": 127
    },
    {
      "midi": 47,
      "hit": false,
      "t": 104999.89500000002,
      "d": 227.2725000000064,
      "v": 127
    },
    {
      "midi": 52,
      "hit": false,
      "t": 104999.89500000002,
      "d": 227.2725000000064,
      "v": 127
    },
    {
      "midi": 55,
      "hit": false,
      "t": 104999.89500000002,
      "d": 227.2725000000064,
      "v": 127
    },
    {
      "midi": 59,
      "hit": false,
      "t": 104999.89500000002,
      "d": 227.2725000000064,
      "v": 127
    },
    {
      "midi": 50,
      "hit": false,
      "t": 105227.16750000003,
      "d": 227.2725000000064,
      "v": 127
    },
    {
      "midi": 55,
      "hit": false,
      "t": 105227.16750000003,
      "d": 227.2725000000064,
      "v": 127
    },
    {
      "midi": 48,
      "hit": false,
      "t": 105454.44000000003,
      "d": 909.0899999999965,
      "v": 127
    },
    {
      "midi": 52,
      "hit": false,
      "t": 105454.44000000003,
      "d": 909.0899999999965,
      "v": 127
    },
    {
      "midi": 52,
      "hit": false,
      "t": 106363.53000000003,
      "d": 454.54499999999825,
      "v": 127
    },
    {
      "midi": 55,
      "hit": false,
      "t": 106363.53000000003,
      "d": 454.54499999999825,
      "v": 127
    },
    {
      "midi": 60,
      "hit": false,
      "t": 106363.53000000003,
      "d": 454.54499999999825,
      "v": 127
    },
    {
      "midi": 52,
      "hit": false,
      "t": 106818.07500000003,
      "d": 227.2725000000064,
      "v": 127
    },
    {
      "midi": 55,
      "hit": false,
      "t": 106818.07500000003,
      "d": 227.2725000000064,
      "v": 127
    },
    {
      "midi": 60,
      "hit": false,
      "t": 106818.07500000003,
      "d": 227.2725000000064,
      "v": 127
    },
    {
      "midi": 52,
      "hit": false,
      "t": 107045.34750000003,
      "d": 227.2725000000064,
      "v": 127
    },
    {
      "midi": 55,
      "hit": false,
      "t": 107045.34750000003,
      "d": 227.2725000000064,
      "v": 127
    },
    {
      "midi": 60,
      "hit": false,
      "t": 107045.34750000003,
      "d": 227.2725000000064,
      "v": 127
    },
    {
      "midi": 43,
      "hit": false,
      "t": 107272.62000000004,
      "d": 909.0899999999965,
      "v": 127
    },
    {
      "midi": 55,
      "hit": false,
      "t": 108181.71000000004,
      "d": 454.54499999999825,
      "v": 127
    },
    {
      "midi": 59,
      "hit": false,
      "t": 108181.71000000004,
      "d": 454.54499999999825,
      "v": 127
    },
    {
      "midi": 67,
      "hit": false,
      "t": 108181.71000000004,
      "d": 454.54499999999825,
      "v": 127
    },
    {
      "midi": 55,
      "hit": false,
      "t": 108636.25500000003,
      "d": 227.2725000000064,
      "v": 127
    },
    {
      "midi": 59,
      "hit": false,
      "t": 108636.25500000003,
      "d": 227.2725000000064,
      "v": 127
    },
    {
      "midi": 67,
      "hit": false,
      "t": 108636.25500000003,
      "d": 227.2725000000064,
      "v": 127
    },
    {
      "midi": 55,
      "hit": false,
      "t": 108863.52750000004,
      "d": 227.2725000000064,
      "v": 127
    },
    {
      "midi": 59,
      "hit": false,
      "t": 108863.52750000004,
      "d": 227.2725000000064,
      "v": 127
    },
    {
      "midi": 67,
      "hit": false,
      "t": 108863.52750000004,
      "d": 227.2725000000064,
      "v": 127
    },
    {
      "midi": 54,
      "hit": false,
      "t": 109090.80000000005,
      "d": 909.0899999999965,
      "v": 127
    },
    {
      "midi": 59,
      "hit": false,
      "t": 109090.80000000005,
      "d": 909.0899999999965,
      "v": 127
    },
    {
      "midi": 54,
      "hit": false,
      "t": 109999.89000000004,
      "d": 454.54499999999825,
      "v": 127
    },
    {
      "midi": 59,
      "hit": false,
      "t": 109999.89000000004,
      "d": 454.54499999999825,
      "v": 127
    },
    {
      "midi": 62,
      "hit": false,
      "t": 109999.89000000004,
      "d": 454.54499999999825,
      "v": 127
    },
    {
      "midi": 66,
      "hit": false,
      "t": 109999.89000000004,
      "d": 454.54499999999825,
      "v": 127
    },
    {
      "midi": 54,
      "hit": false,
      "t": 110454.43500000004,
      "d": 227.2725000000064,
      "v": 127
    },
    {
      "midi": 59,
      "hit": false,
      "t": 110454.43500000004,
      "d": 227.2725000000064,
      "v": 127
    },
    {
      "midi": 50,
      "hit": false,
      "t": 110681.70750000005,
      "d": 227.2725000000064,
      "v": 127
    },
    {
      "midi": 55,
      "hit": false,
      "t": 110681.70750000005,
      "d": 227.2725000000064,
      "v": 127
    },
    {
      "midi": 40,
      "hit": false,
      "t": 110908.98000000005,
      "d": 909.0899999999965,
      "v": 127
    },
    {
      "midi": 52,
      "hit": false,
      "t": 111818.07000000005,
      "d": 454.54499999999825,
      "v": 127
    },
    {
      "midi": 55,
      "hit": false,
      "t": 111818.07000000005,
      "d": 454.54499999999825,
      "v": 127
    },
    {
      "midi": 59,
      "hit": false,
      "t": 111818.07000000005,
      "d": 454.54499999999825,
      "v": 127
    },
    {
      "midi": 47,
      "hit": false,
      "t": 112272.61500000005,
      "d": 227.2725000000064,
      "v": 127
    },
    {
      "midi": 59,
      "hit": false,
      "t": 112499.88750000006,
      "d": 227.2725000000064,
      "v": 127
    },
    {
      "midi": 64,
      "hit": false,
      "t": 112499.88750000006,
      "d": 227.2725000000064,
      "v": 127
    },
    {
      "midi": 47,
      "hit": false,
      "t": 112727.16000000006,
      "d": 454.54499999999825,
      "v": 127
    },
    {
      "midi": 47,
      "hit": false,
      "t": 113181.70500000006,
      "d": 454.54499999999825,
      "v": 127
    },
    {
      "midi": 52,
      "hit": false,
      "t": 113181.70500000006,
      "d": 454.54499999999825,
      "v": 127
    },
    {
      "midi": 47,
      "hit": false,
      "t": 113636.25000000006,
      "d": 227.2725000000064,
      "v": 127
    },
    {
      "midi": 52,
      "hit": false,
      "t": 113636.25000000006,
      "d": 227.2725000000064,
      "v": 127
    },
    {
      "midi": 55,
      "hit": false,
      "t": 113636.25000000006,
      "d": 227.2725000000064,
      "v": 127
    },
    {
      "midi": 59,
      "hit": false,
      "t": 113636.25000000006,
      "d": 227.2725000000064,
      "v": 127
    },
    {
      "midi": 47,
      "hit": false,
      "t": 113863.52250000006,
      "d": 227.2725000000064,
      "v": 127
    },
    {
      "midi": 52,
      "hit": false,
      "t": 113863.52250000006,
      "d": 227.2725000000064,
      "v": 127
    },
    {
      "midi": 55,
      "hit": false,
      "t": 113863.52250000006,
      "d": 227.2725000000064,
      "v": 127
    },
    {
      "midi": 59,
      "hit": false,
      "t": 113863.52250000006,
      "d": 227.2725000000064,
      "v": 127
    },
    {
      "midi": 47,
      "hit": false,
      "t": 114090.79500000007,
      "d": 227.2725000000064,
      "v": 127
    },
    {
      "midi": 52,
      "hit": false,
      "t": 114090.79500000007,
      "d": 227.2725000000064,
      "v": 127
    },
    {
      "midi": 55,
      "hit": false,
      "t": 114090.79500000007,
      "d": 227.2725000000064,
      "v": 127
    },
    {
      "midi": 59,
      "hit": false,
      "t": 114090.79500000007,
      "d": 227.2725000000064,
      "v": 127
    },
    {
      "midi": 47,
      "hit": false,
      "t": 114318.06750000008,
      "d": 227.2725000000064,
      "v": 127
    },
    {
      "midi": 52,
      "hit": false,
      "t": 114318.06750000008,
      "d": 227.2725000000064,
      "v": 127
    },
    {
      "midi": 55,
      "hit": false,
      "t": 114318.06750000008,
      "d": 227.2725000000064,
      "v": 127
    },
    {
      "midi": 59,
      "hit": false,
      "t": 114318.06750000008,
      "d": 227.2725000000064,
      "v": 127
    },
    {
      "midi": 40,
      "hit": false,
      "t": 114545.34000000008,
      "d": 909.0899999999965,
      "v": 127
    },
    {
      "midi": 52,
      "hit": false,
      "t": 115454.43000000008,
      "d": 454.54499999999825,
      "v": 127
    },
    {
      "midi": 55,
      "hit": false,
      "t": 115454.43000000008,
      "d": 454.54499999999825,
      "v": 127
    },
    {
      "midi": 59,
      "hit": false,
      "t": 115454.43000000008,
      "d": 454.54499999999825,
      "v": 127
    },
    {
      "midi": 47,
      "hit": false,
      "t": 115908.97500000008,
      "d": 227.2725000000064,
      "v": 127
    },
    {
      "midi": 59,
      "hit": false,
      "t": 116136.24750000008,
      "d": 227.2725000000064,
      "v": 127
    },
    {
      "midi": 64,
      "hit": false,
      "t": 116136.24750000008,
      "d": 227.2725000000064,
      "v": 127
    },
    {
      "midi": 47,
      "hit": false,
      "t": 116363.52000000009,
      "d": 454.54499999999825,
      "v": 127
    },
    {
      "midi": 47,
      "hit": false,
      "t": 116818.06500000009,
      "d": 454.54499999999825,
      "v": 127
    },
    {
      "midi": 52,
      "hit": false,
      "t": 116818.06500000009,
      "d": 454.54499999999825,
      "v": 127
    },
    {
      "midi": 47,
      "hit": false,
      "t": 117272.61000000009,
      "d": 227.2725000000064,
      "v": 127
    },
    {
      "midi": 52,
      "hit": false,
      "t": 117272.61000000009,
      "d": 227.2725000000064,
      "v": 127
    },
    {
      "midi": 55,
      "hit": false,
      "t": 117272.61000000009,
      "d": 227.2725000000064,
      "v": 127
    },
    {
      "midi": 59,
      "hit": false,
      "t": 117272.61000000009,
      "d": 227.2725000000064,
      "v": 127
    },
    {
      "midi": 47,
      "hit": false,
      "t": 117499.8825000001,
      "d": 227.2725000000064,
      "v": 127
    },
    {
      "midi": 52,
      "hit": false,
      "t": 117499.8825000001,
      "d": 227.2725000000064,
      "v": 127
    },
    {
      "midi": 55,
      "hit": false,
      "t": 117499.8825000001,
      "d": 227.2725000000064,
      "v": 127
    },
    {
      "midi": 59,
      "hit": false,
      "t": 117499.8825000001,
      "d": 227.2725000000064,
      "v": 127
    },
    {
      "midi": 47,
      "hit": false,
      "t": 117727.1550000001,
      "d": 227.2725000000064,
      "v": 127
    },
    {
      "midi": 52,
      "hit": false,
      "t": 117727.1550000001,
      "d": 227.2725000000064,
      "v": 127
    },
    {
      "midi": 55,
      "hit": false,
      "t": 117727.1550000001,
      "d": 227.2725000000064,
      "v": 127
    },
    {
      "midi": 59,
      "hit": false,
      "t": 117727.1550000001,
      "d": 227.2725000000064,
      "v": 127
    },
    {
      "midi": 47,
      "hit": false,
      "t": 117954.4275000001,
      "d": 227.2725000000064,
      "v": 127
    },
    {
      "midi": 52,
      "hit": false,
      "t": 117954.4275000001,
      "d": 227.2725000000064,
      "v": 127
    },
    {
      "midi": 55,
      "hit": false,
      "t": 117954.4275000001,
      "d": 227.2725000000064,
      "v": 127
    },
    {
      "midi": 59,
      "hit": false,
      "t": 117954.4275000001,
      "d": 227.2725000000064,
      "v": 127
    },
    {
      "midi": 40,
      "hit": false,
      "t": 118181.70000000011,
      "d": 909.0899999999965,
      "v": 127
    },
    {
      "midi": 52,
      "hit": false,
      "t": 119090.79000000011,
      "d": 454.54499999999825,
      "v": 127
    },
    {
      "midi": 55,
      "hit": false,
      "t": 119090.79000000011,
      "d": 454.54499999999825,
      "v": 127
    },
    {
      "midi": 59,
      "hit": false,
      "t": 119090.79000000011,
      "d": 454.54499999999825,
      "v": 127
    },
    {
      "midi": 52,
      "hit": false,
      "t": 119545.33500000011,
      "d": 227.2725000000064,
      "v": 127
    },
    {
      "midi": 55,
      "hit": false,
      "t": 119545.33500000011,
      "d": 227.2725000000064,
      "v": 127
    },
    {
      "midi": 59,
      "hit": false,
      "t": 119545.33500000011,
      "d": 227.2725000000064,
      "v": 127
    },
    {
      "midi": 52,
      "hit": false,
      "t": 119772.60750000011,
      "d": 227.2725000000064,
      "v": 127
    },
    {
      "midi": 55,
      "hit": false,
      "t": 119772.60750000011,
      "d": 227.2725000000064,
      "v": 127
    },
    {
      "midi": 59,
      "hit": false,
      "t": 119772.60750000011,
      "d": 227.2725000000064,
      "v": 127
    },
    {
      "midi": 45,
      "hit": false,
      "t": 119999.88000000012,
      "d": 909.0899999999965,
      "v": 127
    },
    {
      "midi": 52,
      "hit": false,
      "t": 120908.97000000012,
      "d": 454.54499999999825,
      "v": 127
    },
    {
      "midi": 57,
      "hit": false,
      "t": 120908.97000000012,
      "d": 454.54499999999825,
      "v": 127
    },
    {
      "midi": 60,
      "hit": false,
      "t": 120908.97000000012,
      "d": 454.54499999999825,
      "v": 127
    },
    {
      "midi": 64,
      "hit": false,
      "t": 120908.97000000012,
      "d": 454.54499999999825,
      "v": 127
    },
    {
      "midi": 50,
      "hit": false,
      "t": 121363.51500000012,
      "d": 227.2725000000064,
      "v": 127
    },
    {
      "midi": 55,
      "hit": false,
      "t": 121363.51500000012,
      "d": 227.2725000000064,
      "v": 127
    },
    {
      "midi": 50,
      "hit": false,
      "t": 121590.78750000012,
      "d": 227.2725000000064,
      "v": 127
    },
    {
      "midi": 55,
      "hit": false,
      "t": 121590.78750000012,
      "d": 227.2725000000064,
      "v": 127
    },
    {
      "midi": 43,
      "hit": false,
      "t": 121818.06000000013,
      "d": 909.0899999999965,
      "v": 127
    },
    {
      "midi": 55,
      "hit": false,
      "t": 122727.15000000013,
      "d": 454.54499999999825,
      "v": 127
    },
    {
      "midi": 59,
      "hit": false,
      "t": 122727.15000000013,
      "d": 454.54499999999825,
      "v": 127
    },
    {
      "midi": 67,
      "hit": false,
      "t": 122727.15000000013,
      "d": 454.54499999999825,
      "v": 127
    },
    {
      "midi": 55,
      "hit": false,
      "t": 123181.69500000012,
      "d": 227.2725000000064,
      "v": 127
    },
    {
      "midi": 59,
      "hit": false,
      "t": 123181.69500000012,
      "d": 227.2725000000064,
      "v": 127
    },
    {
      "midi": 67,
      "hit": false,
      "t": 123181.69500000012,
      "d": 227.2725000000064,
      "v": 127
    },
    {
      "midi": 55,
      "hit": false,
      "t": 123408.96750000013,
      "d": 227.2725000000064,
      "v": 127
    },
    {
      "midi": 59,
      "hit": false,
      "t": 123408.96750000013,
      "d": 227.2725000000064,
      "v": 127
    },
    {
      "midi": 67,
      "hit": false,
      "t": 123408.96750000013,
      "d": 227.2725000000064,
      "v": 127
    },
    {
      "midi": 54,
      "hit": false,
      "t": 123636.24000000014,
      "d": 909.0899999999965,
      "v": 127
    },
    {
      "midi": 59,
      "hit": false,
      "t": 123636.24000000014,
      "d": 909.0899999999965,
      "v": 127
    },
    {
      "midi": 54,
      "hit": false,
      "t": 124545.33000000013,
      "d": 454.54499999999825,
      "v": 127
    },
    {
      "midi": 59,
      "hit": false,
      "t": 124545.33000000013,
      "d": 454.54499999999825,
      "v": 127
    },
    {
      "midi": 62,
      "hit": false,
      "t": 124545.33000000013,
      "d": 454.54499999999825,
      "v": 127
    },
    {
      "midi": 59,
      "hit": false,
      "t": 124999.87500000013,
      "d": 227.2725000000064,
      "v": 127
    },
    {
      "midi": 62,
      "hit": false,
      "t": 125227.14750000014,
      "d": 227.2725000000064,
      "v": 127
    },
    {
      "midi": 66,
      "hit": false,
      "t": 125454.42000000014,
      "d": 227.2725000000064,
      "v": 127
    },
    {
      "midi": 64,
      "hit": false,
      "t": 125681.69250000015,
      "d": 227.2725000000064,
      "v": 127
    },
    {
      "midi": 54,
      "hit": false,
      "t": 125908.96500000016,
      "d": 454.54499999999825,
      "v": 127
    },
    {
      "midi": 54,
      "hit": false,
      "t": 126363.51000000015,
      "d": 227.2725000000064,
      "v": 127
    },
    {
      "midi": 62,
      "hit": false,
      "t": 126590.78250000016,
      "d": 227.2725000000064,
      "v": 127
    },
    {
      "midi": 45,
      "hit": false,
      "t": 126818.05500000017,
      "d": 454.54499999999825,
      "v": 127
    },
    {
      "midi": 40,
      "hit": false,
      "t": 127272.60000000017,
      "d": 909.0899999999965,
      "v": 127
    },
    {
      "midi": 52,
      "hit": false,
      "t": 128181.69000000016,
      "d": 454.54499999999825,
      "v": 127
    },
    {
      "midi": 55,
      "hit": false,
      "t": 128181.69000000016,
      "d": 454.54499999999825,
      "v": 127
    },
    {
      "midi": 59,
      "hit": false,
      "t": 128181.69000000016,
      "d": 454.54499999999825,
      "v": 127
    },
    {
      "midi": 52,
      "hit": false,
      "t": 128636.23500000016,
      "d": 227.2725000000064,
      "v": 127
    },
    {
      "midi": 59,
      "hit": false,
      "t": 128863.50750000017,
      "d": 227.2725000000064,
      "v": 127
    },
    {
      "midi": 64,
      "hit": false,
      "t": 128863.50750000017,
      "d": 227.2725000000064,
      "v": 127
    },
    {
      "midi": 52,
      "hit": false,
      "t": 129090.78000000017,
      "d": 454.54499999999825,
      "v": 127
    },
    {
      "midi": 55,
      "hit": false,
      "t": 129090.78000000017,
      "d": 454.54499999999825,
      "v": 127
    },
    {
      "midi": 59,
      "hit": false,
      "t": 129090.78000000017,
      "d": 454.54499999999825,
      "v": 127
    },
    {
      "midi": 40,
      "hit": false,
      "t": 129545.32500000017,
      "d": 454.54499999999825,
      "v": 127
    },
    {
      "midi": 47,
      "hit": false,
      "t": 129545.32500000017,
      "d": 454.54499999999825,
      "v": 127
    },
    {
      "midi": 52,
      "hit": false,
      "t": 129999.87000000017,
      "d": 227.2725000000064,
      "v": 127
    },
    {
      "midi": 55,
      "hit": false,
      "t": 129999.87000000017,
      "d": 227.2725000000064,
      "v": 127
    },
    {
      "midi": 55,
      "hit": false,
      "t": 130227.14250000018,
      "d": 227.2725000000064,
      "v": 127
    },
    {
      "midi": 52,
      "hit": false,
      "t": 130454.41500000018,
      "d": 227.2725000000064,
      "v": 127
    },
    {
      "midi": 50,
      "hit": false,
      "t": 130681.68750000019,
      "d": 227.2725000000064,
      "v": 127
    },
    {
      "midi": 55,
      "hit": false,
      "t": 130681.68750000019,
      "d": 227.2725000000064,
      "v": 127
    },
    {
      "midi": 48,
      "hit": false,
      "t": 130908.9600000002,
      "d": 909.0899999999965,
      "v": 127
    },
    {
      "midi": 52,
      "hit": false,
      "t": 130908.9600000002,
      "d": 909.0899999999965,
      "v": 127
    },
    {
      "midi": 52,
      "hit": false,
      "t": 131818.0500000002,
      "d": 909.0899999999965,
      "v": 127
    },
    {
      "midi": 55,
      "hit": false,
      "t": 131818.0500000002,
      "d": 909.0899999999965,
      "v": 127
    },
    {
      "midi": 60,
      "hit": false,
      "t": 131818.0500000002,
      "d": 909.0899999999965,
      "v": 127
    },
    {
      "midi": 64,
      "hit": false,
      "t": 131818.0500000002,
      "d": 909.0899999999965,
      "v": 127
    },
    {
      "midi": 43,
      "hit": false,
      "t": 132727.1400000002,
      "d": 909.0899999999965,
      "v": 127
    },
    {
      "midi": 47,
      "hit": false,
      "t": 132727.1400000002,
      "d": 909.0899999999965,
      "v": 127
    },
    {
      "midi": 50,
      "hit": false,
      "t": 133636.23000000019,
      "d": 454.5450000000128,
      "v": 127
    },
    {
      "midi": 55,
      "hit": false,
      "t": 133636.23000000019,
      "d": 454.5450000000128,
      "v": 127
    },
    {
      "midi": 59,
      "hit": false,
      "t": 133636.23000000019,
      "d": 454.5450000000128,
      "v": 127
    },
    {
      "midi": 50,
      "hit": false,
      "t": 134090.7750000002,
      "d": 227.27249999999185,
      "v": 127
    },
    {
      "midi": 55,
      "hit": false,
      "t": 134090.7750000002,
      "d": 227.27249999999185,
      "v": 127
    },
    {
      "midi": 59,
      "hit": false,
      "t": 134090.7750000002,
      "d": 227.27249999999185,
      "v": 127
    },
    {
      "midi": 50,
      "hit": false,
      "t": 134318.0475000002,
      "d": 227.27249999999185,
      "v": 127
    },
    {
      "midi": 55,
      "hit": false,
      "t": 134318.0475000002,
      "d": 227.27249999999185,
      "v": 127
    },
    {
      "midi": 59,
      "hit": false,
      "t": 134318.0475000002,
      "d": 227.27249999999185,
      "v": 127
    },
    {
      "midi": 54,
      "hit": false,
      "t": 134545.32000000018,
      "d": 909.0899999999965,
      "v": 127
    },
    {
      "midi": 59,
      "hit": false,
      "t": 134545.32000000018,
      "d": 909.0899999999965,
      "v": 127
    },
    {
      "midi": 54,
      "hit": false,
      "t": 135454.41000000018,
      "d": 454.5450000000128,
      "v": 127
    },
    {
      "midi": 59,
      "hit": false,
      "t": 135454.41000000018,
      "d": 454.5450000000128,
      "v": 127
    },
    {
      "midi": 62,
      "hit": false,
      "t": 135454.41000000018,
      "d": 454.5450000000128,
      "v": 127
    },
    {
      "midi": 66,
      "hit": false,
      "t": 135454.41000000018,
      "d": 454.5450000000128,
      "v": 127
    },
    {
      "midi": 54,
      "hit": false,
      "t": 135908.9550000002,
      "d": 227.27249999999185,
      "v": 127
    },
    {
      "midi": 59,
      "hit": false,
      "t": 135908.9550000002,
      "d": 227.27249999999185,
      "v": 127
    },
    {
      "midi": 54,
      "hit": false,
      "t": 136136.22750000018,
      "d": 227.27249999999185,
      "v": 127
    },
    {
      "midi": 59,
      "hit": false,
      "t": 136136.22750000018,
      "d": 227.27249999999185,
      "v": 127
    },
    {
      "midi": 40,
      "hit": false,
      "t": 136363.50000000017,
      "d": 909.0899999999965,
      "v": 127
    },
    {
      "midi": 52,
      "hit": false,
      "t": 137272.59000000017,
      "d": 454.5450000000128,
      "v": 127
    },
    {
      "midi": 55,
      "hit": false,
      "t": 137272.59000000017,
      "d": 454.5450000000128,
      "v": 127
    },
    {
      "midi": 59,
      "hit": false,
      "t": 137272.59000000017,
      "d": 454.5450000000128,
      "v": 127
    },
    {
      "midi": 47,
      "hit": false,
      "t": 137727.13500000018,
      "d": 227.27249999999185,
      "v": 127
    },
    {
      "midi": 59,
      "hit": false,
      "t": 137954.40750000018,
      "d": 227.27249999999185,
      "v": 127
    },
    {
      "midi": 64,
      "hit": false,
      "t": 137954.40750000018,
      "d": 227.27249999999185,
      "v": 127
    },
    {
      "midi": 47,
      "hit": false,
      "t": 138181.68000000017,
      "d": 454.5450000000128,
      "v": 127
    },
    {
      "midi": 47,
      "hit": false,
      "t": 138636.22500000018,
      "d": 454.5450000000128,
      "v": 127
    },
    {
      "midi": 52,
      "hit": false,
      "t": 138636.22500000018,
      "d": 454.5450000000128,
      "v": 127
    },
    {
      "midi": 47,
      "hit": false,
      "t": 139090.7700000002,
      "d": 227.27249999999185,
      "v": 127
    },
    {
      "midi": 52,
      "hit": false,
      "t": 139090.7700000002,
      "d": 227.27249999999185,
      "v": 127
    },
    {
      "midi": 55,
      "hit": false,
      "t": 139090.7700000002,
      "d": 227.27249999999185,
      "v": 127
    },
    {
      "midi": 59,
      "hit": false,
      "t": 139090.7700000002,
      "d": 227.27249999999185,
      "v": 127
    },
    {
      "midi": 47,
      "hit": false,
      "t": 139318.04250000019,
      "d": 227.27249999999185,
      "v": 127
    },
    {
      "midi": 52,
      "hit": false,
      "t": 139318.04250000019,
      "d": 227.27249999999185,
      "v": 127
    },
    {
      "midi": 55,
      "hit": false,
      "t": 139318.04250000019,
      "d": 227.27249999999185,
      "v": 127
    },
    {
      "midi": 59,
      "hit": false,
      "t": 139318.04250000019,
      "d": 227.27249999999185,
      "v": 127
    },
    {
      "midi": 47,
      "hit": false,
      "t": 139545.31500000018,
      "d": 227.27249999999185,
      "v": 127
    },
    {
      "midi": 52,
      "hit": false,
      "t": 139545.31500000018,
      "d": 227.27249999999185,
      "v": 127
    },
    {
      "midi": 55,
      "hit": false,
      "t": 139545.31500000018,
      "d": 227.27249999999185,
      "v": 127
    },
    {
      "midi": 59,
      "hit": false,
      "t": 139545.31500000018,
      "d": 227.27249999999185,
      "v": 127
    },
    {
      "midi": 47,
      "hit": false,
      "t": 139772.58750000017,
      "d": 227.27249999999185,
      "v": 127
    },
    {
      "midi": 52,
      "hit": false,
      "t": 139772.58750000017,
      "d": 227.27249999999185,
      "v": 127
    },
    {
      "midi": 55,
      "hit": false,
      "t": 139772.58750000017,
      "d": 227.27249999999185,
      "v": 127
    },
    {
      "midi": 59,
      "hit": false,
      "t": 139772.58750000017,
      "d": 227.27249999999185,
      "v": 127
    },
    {
      "midi": 40,
      "hit": false,
      "t": 139999.86000000016,
      "d": 909.0899999999965,
      "v": 127
    },
    {
      "midi": 52,
      "hit": false,
      "t": 140908.95000000016,
      "d": 454.5450000000128,
      "v": 127
    },
    {
      "midi": 55,
      "hit": false,
      "t": 140908.95000000016,
      "d": 454.5450000000128,
      "v": 127
    },
    {
      "midi": 59,
      "hit": false,
      "t": 140908.95000000016,
      "d": 454.5450000000128,
      "v": 127
    },
    {
      "midi": 52,
      "hit": false,
      "t": 141363.49500000017,
      "d": 227.27249999999185,
      "v": 127
    },
    {
      "midi": 55,
      "hit": false,
      "t": 141363.49500000017,
      "d": 227.27249999999185,
      "v": 127
    },
    {
      "midi": 59,
      "hit": false,
      "t": 141363.49500000017,
      "d": 227.27249999999185,
      "v": 127
    },
    {
      "midi": 52,
      "hit": false,
      "t": 141590.76750000016,
      "d": 227.27249999999185,
      "v": 127
    },
    {
      "midi": 55,
      "hit": false,
      "t": 141590.76750000016,
      "d": 227.27249999999185,
      "v": 127
    },
    {
      "midi": 59,
      "hit": false,
      "t": 141590.76750000016,
      "d": 227.27249999999185,
      "v": 127
    },
    {
      "midi": 40,
      "hit": false,
      "t": 141818.04000000015,
      "d": 454.5450000000128,
      "v": 127
    },
    {
      "midi": 47,
      "hit": false,
      "t": 141818.04000000015,
      "d": 454.5450000000128,
      "v": 127
    },
    {
      "midi": 40,
      "hit": false,
      "t": 142272.58500000017,
      "d": 454.5450000000128,
      "v": 127
    },
    {
      "midi": 47,
      "hit": false,
      "t": 142272.58500000017,
      "d": 454.5450000000128,
      "v": 127
    },
    {
      "midi": 52,
      "hit": false,
      "t": 142727.13000000018,
      "d": 454.5450000000128,
      "v": 127
    },
    {
      "midi": 55,
      "hit": false,
      "t": 142727.13000000018,
      "d": 454.5450000000128,
      "v": 127
    },
    {
      "midi": 59,
      "hit": false,
      "t": 142727.13000000018,
      "d": 454.5450000000128,
      "v": 127
    },
    {
      "midi": 47,
      "hit": false,
      "t": 143181.6750000002,
      "d": 454.5450000000128,
      "v": 127
    },
    {
      "midi": 52,
      "hit": false,
      "t": 143181.6750000002,
      "d": 454.5450000000128,
      "v": 127
    },
    {
      "midi": 55,
      "hit": false,
      "t": 143181.6750000002,
      "d": 454.5450000000128,
      "v": 127
    },
    {
      "midi": 59,
      "hit": false,
      "t": 143181.6750000002,
      "d": 454.5450000000128,
      "v": 127
    },
    {
      "midi": 45,
      "hit": false,
      "t": 143636.2200000002,
      "d": 909.0899999999965,
      "v": 127
    },
    {
      "midi": 52,
      "hit": false,
      "t": 143636.2200000002,
      "d": 909.0899999999965,
      "v": 127
    },
    {
      "midi": 57,
      "hit": false,
      "t": 143636.2200000002,
      "d": 909.0899999999965,
      "v": 127
    },
    {
      "midi": 61,
      "hit": false,
      "t": 143636.2200000002,
      "d": 909.0899999999965,
      "v": 127
    },
    {
      "midi": 64,
      "hit": false,
      "t": 143636.2200000002,
      "d": 909.0899999999965,
      "v": 127
    },
    {
      "midi": 45,
      "hit": false,
      "t": 144545.3100000002,
      "d": 454.5450000000128,
      "v": 127
    },
    {
      "midi": 52,
      "hit": false,
      "t": 144545.3100000002,
      "d": 454.5450000000128,
      "v": 127
    },
    {
      "midi": 57,
      "hit": false,
      "t": 144545.3100000002,
      "d": 454.5450000000128,
      "v": 127
    },
    {
      "midi": 61,
      "hit": false,
      "t": 144545.3100000002,
      "d": 454.5450000000128,
      "v": 127
    },
    {
      "midi": 64,
      "hit": false,
      "t": 144545.3100000002,
      "d": 454.5450000000128,
      "v": 127
    },
    {
      "midi": 45,
      "hit": false,
      "t": 144999.8550000002,
      "d": 454.5450000000128,
      "v": 127
    },
    {
      "midi": 52,
      "hit": false,
      "t": 144999.8550000002,
      "d": 454.5450000000128,
      "v": 127
    },
    {
      "midi": 57,
      "hit": false,
      "t": 144999.8550000002,
      "d": 454.5450000000128,
      "v": 127
    },
    {
      "midi": 61,
      "hit": false,
      "t": 144999.8550000002,
      "d": 454.5450000000128,
      "v": 127
    },
    {
      "midi": 64,
      "hit": false,
      "t": 144999.8550000002,
      "d": 454.5450000000128,
      "v": 127
    },
    {
      "midi": 45,
      "hit": false,
      "t": 145454.40000000023,
      "d": 909.0899999999965,
      "v": 127
    },
    {
      "midi": 52,
      "hit": false,
      "t": 145454.40000000023,
      "d": 909.0899999999965,
      "v": 127
    },
    {
      "midi": 57,
      "hit": false,
      "t": 145454.40000000023,
      "d": 909.0899999999965,
      "v": 127
    },
    {
      "midi": 61,
      "hit": false,
      "t": 145454.40000000023,
      "d": 909.0899999999965,
      "v": 127
    },
    {
      "midi": 64,
      "hit": false,
      "t": 145454.40000000023,
      "d": 909.0899999999965,
      "v": 127
    },
    {
      "midi": 45,
      "hit": false,
      "t": 146363.49000000022,
      "d": 454.5450000000128,
      "v": 127
    },
    {
      "midi": 52,
      "hit": false,
      "t": 146363.49000000022,
      "d": 454.5450000000128,
      "v": 127
    },
    {
      "midi": 57,
      "hit": false,
      "t": 146363.49000000022,
      "d": 454.5450000000128,
      "v": 127
    },
    {
      "midi": 61,
      "hit": false,
      "t": 146363.49000000022,
      "d": 454.5450000000128,
      "v": 127
    },
    {
      "midi": 64,
      "hit": false,
      "t": 146363.49000000022,
      "d": 454.5450000000128,
      "v": 127
    },
    {
      "midi": 45,
      "hit": false,
      "t": 146818.03500000024,
      "d": 227.27249999999185,
      "v": 127
    },
    {
      "midi": 52,
      "hit": false,
      "t": 146818.03500000024,
      "d": 227.27249999999185,
      "v": 127
    },
    {
      "midi": 57,
      "hit": false,
      "t": 146818.03500000024,
      "d": 227.27249999999185,
      "v": 127
    },
    {
      "midi": 61,
      "hit": false,
      "t": 146818.03500000024,
      "d": 227.27249999999185,
      "v": 127
    },
    {
      "midi": 64,
      "hit": false,
      "t": 146818.03500000024,
      "d": 227.27249999999185,
      "v": 127
    },
    {
      "midi": 45,
      "hit": false,
      "t": 147045.30750000023,
      "d": 227.27249999999185,
      "v": 127
    },
    {
      "midi": 52,
      "hit": false,
      "t": 147045.30750000023,
      "d": 227.27249999999185,
      "v": 127
    },
    {
      "midi": 57,
      "hit": false,
      "t": 147045.30750000023,
      "d": 227.27249999999185,
      "v": 127
    },
    {
      "midi": 61,
      "hit": false,
      "t": 147045.30750000023,
      "d": 227.27249999999185,
      "v": 127
    },
    {
      "midi": 64,
      "hit": false,
      "t": 147045.30750000023,
      "d": 227.27249999999185,
      "v": 127
    },
    {
      "midi": 40,
      "hit": false,
      "t": 147272.58000000022,
      "d": 909.0899999999965,
      "v": 127
    },
    {
      "midi": 47,
      "hit": false,
      "t": 147272.58000000022,
      "d": 909.0899999999965,
      "v": 127
    },
    {
      "midi": 52,
      "hit": false,
      "t": 147272.58000000022,
      "d": 909.0899999999965,
      "v": 127
    },
    {
      "midi": 55,
      "hit": false,
      "t": 147272.58000000022,
      "d": 909.0899999999965,
      "v": 127
    },
    {
      "midi": 59,
      "hit": false,
      "t": 147272.58000000022,
      "d": 909.0899999999965,
      "v": 127
    },
    {
      "midi": 64,
      "hit": false,
      "t": 147272.58000000022,
      "d": 909.0899999999965,
      "v": 127
    },
    {
      "midi": 40,
      "hit": false,
      "t": 148181.67000000022,
      "d": 454.5450000000128,
      "v": 127
    },
    {
      "midi": 47,
      "hit": false,
      "t": 148181.67000000022,
      "d": 454.5450000000128,
      "v": 127
    },
    {
      "midi": 52,
      "hit": false,
      "t": 148181.67000000022,
      "d": 454.5450000000128,
      "v": 127
    },
    {
      "midi": 55,
      "hit": false,
      "t": 148181.67000000022,
      "d": 454.5450000000128,
      "v": 127
    },
    {
      "midi": 59,
      "hit": false,
      "t": 148181.67000000022,
      "d": 454.5450000000128,
      "v": 127
    },
    {
      "midi": 64,
      "hit": false,
      "t": 148181.67000000022,
      "d": 454.5450000000128,
      "v": 127
    },
    {
      "midi": 40,
      "hit": false,
      "t": 148636.21500000023,
      "d": 454.5450000000128,
      "v": 127
    },
    {
      "midi": 47,
      "hit": false,
      "t": 148636.21500000023,
      "d": 454.5450000000128,
      "v": 127
    },
    {
      "midi": 52,
      "hit": false,
      "t": 148636.21500000023,
      "d": 454.5450000000128,
      "v": 127
    },
    {
      "midi": 55,
      "hit": false,
      "t": 148636.21500000023,
      "d": 454.5450000000128,
      "v": 127
    },
    {
      "midi": 59,
      "hit": false,
      "t": 148636.21500000023,
      "d": 454.5450000000128,
      "v": 127
    },
    {
      "midi": 64,
      "hit": false,
      "t": 148636.21500000023,
      "d": 454.5450000000128,
      "v": 127
    },
    {
      "midi": 40,
      "hit": false,
      "t": 149090.76000000024,
      "d": 909.0899999999965,
      "v": 127
    },
    {
      "midi": 47,
      "hit": false,
      "t": 149090.76000000024,
      "d": 909.0899999999965,
      "v": 127
    },
    {
      "midi": 52,
      "hit": false,
      "t": 149090.76000000024,
      "d": 909.0899999999965,
      "v": 127
    },
    {
      "midi": 55,
      "hit": false,
      "t": 149090.76000000024,
      "d": 909.0899999999965,
      "v": 127
    },
    {
      "midi": 59,
      "hit": false,
      "t": 149090.76000000024,
      "d": 909.0899999999965,
      "v": 127
    },
    {
      "midi": 64,
      "hit": false,
      "t": 149090.76000000024,
      "d": 909.0899999999965,
      "v": 127
    },
    {
      "midi": 40,
      "hit": false,
      "t": 149999.85000000024,
      "d": 454.5450000000128,
      "v": 127
    },
    {
      "midi": 47,
      "hit": false,
      "t": 149999.85000000024,
      "d": 454.5450000000128,
      "v": 127
    },
    {
      "midi": 52,
      "hit": false,
      "t": 149999.85000000024,
      "d": 454.5450000000128,
      "v": 127
    },
    {
      "midi": 55,
      "hit": false,
      "t": 149999.85000000024,
      "d": 454.5450000000128,
      "v": 127
    },
    {
      "midi": 59,
      "hit": false,
      "t": 149999.85000000024,
      "d": 454.5450000000128,
      "v": 127
    },
    {
      "midi": 64,
      "hit": false,
      "t": 149999.85000000024,
      "d": 454.5450000000128,
      "v": 127
    },
    {
      "midi": 40,
      "hit": false,
      "t": 150454.39500000025,
      "d": 227.27249999999185,
      "v": 127
    },
    {
      "midi": 45,
      "hit": false,
      "t": 150454.39500000025,
      "d": 227.27249999999185,
      "v": 127
    },
    {
      "midi": 52,
      "hit": false,
      "t": 150454.39500000025,
      "d": 227.27249999999185,
      "v": 127
    },
    {
      "midi": 57,
      "hit": false,
      "t": 150454.39500000025,
      "d": 227.27249999999185,
      "v": 127
    },
    {
      "midi": 61,
      "hit": false,
      "t": 150454.39500000025,
      "d": 227.27249999999185,
      "v": 127
    },
    {
      "midi": 64,
      "hit": false,
      "t": 150454.39500000025,
      "d": 227.27249999999185,
      "v": 127
    },
    {
      "midi": 40,
      "hit": false,
      "t": 150681.66750000024,
      "d": 227.27249999999185,
      "v": 127
    },
    {
      "midi": 45,
      "hit": false,
      "t": 150681.66750000024,
      "d": 227.27249999999185,
      "v": 127
    },
    {
      "midi": 52,
      "hit": false,
      "t": 150681.66750000024,
      "d": 227.27249999999185,
      "v": 127
    },
    {
      "midi": 57,
      "hit": false,
      "t": 150681.66750000024,
      "d": 227.27249999999185,
      "v": 127
    },
    {
      "midi": 61,
      "hit": false,
      "t": 150681.66750000024,
      "d": 227.27249999999185,
      "v": 127
    },
    {
      "midi": 64,
      "hit": false,
      "t": 150681.66750000024,
      "d": 227.27249999999185,
      "v": 127
    },
    {
      "midi": 45,
      "hit": false,
      "t": 150908.94000000024,
      "d": 909.0899999999965,
      "v": 127
    },
    {
      "midi": 52,
      "hit": false,
      "t": 150908.94000000024,
      "d": 909.0899999999965,
      "v": 127
    },
    {
      "midi": 57,
      "hit": false,
      "t": 150908.94000000024,
      "d": 909.0899999999965,
      "v": 127
    },
    {
      "midi": 61,
      "hit": false,
      "t": 150908.94000000024,
      "d": 909.0899999999965,
      "v": 127
    },
    {
      "midi": 64,
      "hit": false,
      "t": 150908.94000000024,
      "d": 909.0899999999965,
      "v": 127
    },
    {
      "midi": 45,
      "hit": false,
      "t": 151818.03000000023,
      "d": 454.5450000000128,
      "v": 127
    },
    {
      "midi": 52,
      "hit": false,
      "t": 151818.03000000023,
      "d": 454.5450000000128,
      "v": 127
    },
    {
      "midi": 57,
      "hit": false,
      "t": 151818.03000000023,
      "d": 454.5450000000128,
      "v": 127
    },
    {
      "midi": 61,
      "hit": false,
      "t": 151818.03000000023,
      "d": 454.5450000000128,
      "v": 127
    },
    {
      "midi": 64,
      "hit": false,
      "t": 151818.03000000023,
      "d": 454.5450000000128,
      "v": 127
    },
    {
      "midi": 45,
      "hit": false,
      "t": 152272.57500000024,
      "d": 454.5450000000128,
      "v": 127
    },
    {
      "midi": 52,
      "hit": false,
      "t": 152272.57500000024,
      "d": 454.5450000000128,
      "v": 127
    },
    {
      "midi": 57,
      "hit": false,
      "t": 152272.57500000024,
      "d": 454.5450000000128,
      "v": 127
    },
    {
      "midi": 61,
      "hit": false,
      "t": 152272.57500000024,
      "d": 454.5450000000128,
      "v": 127
    },
    {
      "midi": 64,
      "hit": false,
      "t": 152272.57500000024,
      "d": 454.5450000000128,
      "v": 127
    },
    {
      "midi": 45,
      "hit": false,
      "t": 152727.12000000026,
      "d": 909.0899999999965,
      "v": 127
    },
    {
      "midi": 52,
      "hit": false,
      "t": 152727.12000000026,
      "d": 909.0899999999965,
      "v": 127
    },
    {
      "midi": 57,
      "hit": false,
      "t": 152727.12000000026,
      "d": 909.0899999999965,
      "v": 127
    },
    {
      "midi": 61,
      "hit": false,
      "t": 152727.12000000026,
      "d": 909.0899999999965,
      "v": 127
    },
    {
      "midi": 64,
      "hit": false,
      "t": 152727.12000000026,
      "d": 909.0899999999965,
      "v": 127
    },
    {
      "midi": 45,
      "hit": false,
      "t": 153636.21000000025,
      "d": 454.5450000000128,
      "v": 127
    },
    {
      "midi": 52,
      "hit": false,
      "t": 153636.21000000025,
      "d": 454.5450000000128,
      "v": 127
    },
    {
      "midi": 57,
      "hit": false,
      "t": 153636.21000000025,
      "d": 454.5450000000128,
      "v": 127
    },
    {
      "midi": 61,
      "hit": false,
      "t": 153636.21000000025,
      "d": 454.5450000000128,
      "v": 127
    },
    {
      "midi": 64,
      "hit": false,
      "t": 153636.21000000025,
      "d": 454.5450000000128,
      "v": 127
    },
    {
      "midi": 45,
      "hit": false,
      "t": 154090.75500000027,
      "d": 227.27249999999185,
      "v": 127
    },
    {
      "midi": 52,
      "hit": false,
      "t": 154090.75500000027,
      "d": 227.27249999999185,
      "v": 127
    },
    {
      "midi": 57,
      "hit": false,
      "t": 154090.75500000027,
      "d": 227.27249999999185,
      "v": 127
    },
    {
      "midi": 61,
      "hit": false,
      "t": 154090.75500000027,
      "d": 227.27249999999185,
      "v": 127
    },
    {
      "midi": 64,
      "hit": false,
      "t": 154090.75500000027,
      "d": 227.27249999999185,
      "v": 127
    },
    {
      "midi": 45,
      "hit": false,
      "t": 154318.02750000026,
      "d": 227.27249999999185,
      "v": 127
    },
    {
      "midi": 52,
      "hit": false,
      "t": 154318.02750000026,
      "d": 227.27249999999185,
      "v": 127
    },
    {
      "midi": 57,
      "hit": false,
      "t": 154318.02750000026,
      "d": 227.27249999999185,
      "v": 127
    },
    {
      "midi": 61,
      "hit": false,
      "t": 154318.02750000026,
      "d": 227.27249999999185,
      "v": 127
    },
    {
      "midi": 64,
      "hit": false,
      "t": 154318.02750000026,
      "d": 227.27249999999185,
      "v": 127
    },
    {
      "midi": 40,
      "hit": false,
      "t": 154545.30000000025,
      "d": 909.0899999999965,
      "v": 127
    },
    {
      "midi": 47,
      "hit": false,
      "t": 154545.30000000025,
      "d": 909.0899999999965,
      "v": 127
    },
    {
      "midi": 52,
      "hit": false,
      "t": 154545.30000000025,
      "d": 909.0899999999965,
      "v": 127
    },
    {
      "midi": 55,
      "hit": false,
      "t": 154545.30000000025,
      "d": 909.0899999999965,
      "v": 127
    },
    {
      "midi": 59,
      "hit": false,
      "t": 154545.30000000025,
      "d": 909.0899999999965,
      "v": 127
    },
    {
      "midi": 64,
      "hit": false,
      "t": 154545.30000000025,
      "d": 909.0899999999965,
      "v": 127
    },
    {
      "midi": 40,
      "hit": false,
      "t": 155454.39000000025,
      "d": 454.5450000000128,
      "v": 127
    },
    {
      "midi": 47,
      "hit": false,
      "t": 155454.39000000025,
      "d": 454.5450000000128,
      "v": 127
    },
    {
      "midi": 52,
      "hit": false,
      "t": 155454.39000000025,
      "d": 454.5450000000128,
      "v": 127
    },
    {
      "midi": 55,
      "hit": false,
      "t": 155454.39000000025,
      "d": 454.5450000000128,
      "v": 127
    },
    {
      "midi": 59,
      "hit": false,
      "t": 155454.39000000025,
      "d": 454.5450000000128,
      "v": 127
    },
    {
      "midi": 64,
      "hit": false,
      "t": 155454.39000000025,
      "d": 454.5450000000128,
      "v": 127
    },
    {
      "midi": 40,
      "hit": false,
      "t": 155908.93500000026,
      "d": 454.5450000000128,
      "v": 127
    },
    {
      "midi": 47,
      "hit": false,
      "t": 155908.93500000026,
      "d": 454.5450000000128,
      "v": 127
    },
    {
      "midi": 52,
      "hit": false,
      "t": 155908.93500000026,
      "d": 454.5450000000128,
      "v": 127
    },
    {
      "midi": 55,
      "hit": false,
      "t": 155908.93500000026,
      "d": 454.5450000000128,
      "v": 127
    },
    {
      "midi": 59,
      "hit": false,
      "t": 155908.93500000026,
      "d": 454.5450000000128,
      "v": 127
    },
    {
      "midi": 64,
      "hit": false,
      "t": 155908.93500000026,
      "d": 454.5450000000128,
      "v": 127
    },
    {
      "midi": 40,
      "hit": false,
      "t": 156363.48000000027,
      "d": 909.0899999999965,
      "v": 127
    },
    {
      "midi": 47,
      "hit": false,
      "t": 156363.48000000027,
      "d": 909.0899999999965,
      "v": 127
    },
    {
      "midi": 52,
      "hit": false,
      "t": 156363.48000000027,
      "d": 909.0899999999965,
      "v": 127
    },
    {
      "midi": 55,
      "hit": false,
      "t": 156363.48000000027,
      "d": 909.0899999999965,
      "v": 127
    },
    {
      "midi": 59,
      "hit": false,
      "t": 156363.48000000027,
      "d": 909.0899999999965,
      "v": 127
    },
    {
      "midi": 64,
      "hit": false,
      "t": 156363.48000000027,
      "d": 909.0899999999965,
      "v": 127
    },
    {
      "midi": 40,
      "hit": false,
      "t": 157272.57000000027,
      "d": 454.5450000000128,
      "v": 127
    },
    {
      "midi": 47,
      "hit": false,
      "t": 157272.57000000027,
      "d": 454.5450000000128,
      "v": 127
    },
    {
      "midi": 52,
      "hit": false,
      "t": 157272.57000000027,
      "d": 454.5450000000128,
      "v": 127
    },
    {
      "midi": 55,
      "hit": false,
      "t": 157272.57000000027,
      "d": 454.5450000000128,
      "v": 127
    },
    {
      "midi": 59,
      "hit": false,
      "t": 157272.57000000027,
      "d": 454.5450000000128,
      "v": 127
    },
    {
      "midi": 64,
      "hit": false,
      "t": 157272.57000000027,
      "d": 454.5450000000128,
      "v": 127
    },
    {
      "midi": 40,
      "hit": false,
      "t": 157727.11500000028,
      "d": 227.27249999999185,
      "v": 127
    },
    {
      "midi": 45,
      "hit": false,
      "t": 157727.11500000028,
      "d": 227.27249999999185,
      "v": 127
    },
    {
      "midi": 52,
      "hit": false,
      "t": 157727.11500000028,
      "d": 227.27249999999185,
      "v": 127
    },
    {
      "midi": 57,
      "hit": false,
      "t": 157727.11500000028,
      "d": 227.27249999999185,
      "v": 127
    },
    {
      "midi": 61,
      "hit": false,
      "t": 157727.11500000028,
      "d": 227.27249999999185,
      "v": 127
    },
    {
      "midi": 64,
      "hit": false,
      "t": 157727.11500000028,
      "d": 227.27249999999185,
      "v": 127
    },
    {
      "midi": 40,
      "hit": false,
      "t": 157954.38750000027,
      "d": 227.27249999999185,
      "v": 127
    },
    {
      "midi": 45,
      "hit": false,
      "t": 157954.38750000027,
      "d": 227.27249999999185,
      "v": 127
    },
    {
      "midi": 52,
      "hit": false,
      "t": 157954.38750000027,
      "d": 227.27249999999185,
      "v": 127
    },
    {
      "midi": 57,
      "hit": false,
      "t": 157954.38750000027,
      "d": 227.27249999999185,
      "v": 127
    },
    {
      "midi": 61,
      "hit": false,
      "t": 157954.38750000027,
      "d": 227.27249999999185,
      "v": 127
    },
    {
      "midi": 64,
      "hit": false,
      "t": 157954.38750000027,
      "d": 227.27249999999185,
      "v": 127
    },
    {
      "midi": 45,
      "hit": false,
      "t": 158181.66000000027,
      "d": 909.0899999999965,
      "v": 127
    },
    {
      "midi": 52,
      "hit": false,
      "t": 158181.66000000027,
      "d": 909.0899999999965,
      "v": 127
    },
    {
      "midi": 57,
      "hit": false,
      "t": 158181.66000000027,
      "d": 909.0899999999965,
      "v": 127
    },
    {
      "midi": 61,
      "hit": false,
      "t": 158181.66000000027,
      "d": 909.0899999999965,
      "v": 127
    },
    {
      "midi": 64,
      "hit": false,
      "t": 158181.66000000027,
      "d": 909.0899999999965,
      "v": 127
    },
    {
      "midi": 45,
      "hit": false,
      "t": 159090.75000000026,
      "d": 454.5450000000128,
      "v": 127
    },
    {
      "midi": 52,
      "hit": false,
      "t": 159090.75000000026,
      "d": 454.5450000000128,
      "v": 127
    },
    {
      "midi": 57,
      "hit": false,
      "t": 159090.75000000026,
      "d": 454.5450000000128,
      "v": 127
    },
    {
      "midi": 61,
      "hit": false,
      "t": 159090.75000000026,
      "d": 454.5450000000128,
      "v": 127
    },
    {
      "midi": 64,
      "hit": false,
      "t": 159090.75000000026,
      "d": 454.5450000000128,
      "v": 127
    },
    {
      "midi": 45,
      "hit": false,
      "t": 159545.29500000027,
      "d": 454.5450000000128,
      "v": 127
    },
    {
      "midi": 52,
      "hit": false,
      "t": 159545.29500000027,
      "d": 454.5450000000128,
      "v": 127
    },
    {
      "midi": 57,
      "hit": false,
      "t": 159545.29500000027,
      "d": 454.5450000000128,
      "v": 127
    },
    {
      "midi": 61,
      "hit": false,
      "t": 159545.29500000027,
      "d": 454.5450000000128,
      "v": 127
    },
    {
      "midi": 64,
      "hit": false,
      "t": 159545.29500000027,
      "d": 454.5450000000128,
      "v": 127
    },
    {
      "midi": 45,
      "hit": false,
      "t": 159999.8400000003,
      "d": 909.0899999999965,
      "v": 127
    },
    {
      "midi": 52,
      "hit": false,
      "t": 159999.8400000003,
      "d": 909.0899999999965,
      "v": 127
    },
    {
      "midi": 57,
      "hit": false,
      "t": 159999.8400000003,
      "d": 909.0899999999965,
      "v": 127
    },
    {
      "midi": 61,
      "hit": false,
      "t": 159999.8400000003,
      "d": 909.0899999999965,
      "v": 127
    },
    {
      "midi": 64,
      "hit": false,
      "t": 159999.8400000003,
      "d": 909.0899999999965,
      "v": 127
    },
    {
      "midi": 45,
      "hit": false,
      "t": 160908.93000000028,
      "d": 454.5450000000128,
      "v": 127
    },
    {
      "midi": 52,
      "hit": false,
      "t": 160908.93000000028,
      "d": 454.5450000000128,
      "v": 127
    },
    {
      "midi": 57,
      "hit": false,
      "t": 160908.93000000028,
      "d": 454.5450000000128,
      "v": 127
    },
    {
      "midi": 61,
      "hit": false,
      "t": 160908.93000000028,
      "d": 454.5450000000128,
      "v": 127
    },
    {
      "midi": 64,
      "hit": false,
      "t": 160908.93000000028,
      "d": 454.5450000000128,
      "v": 127
    },
    {
      "midi": 45,
      "hit": false,
      "t": 161363.4750000003,
      "d": 227.27249999999185,
      "v": 127
    },
    {
      "midi": 52,
      "hit": false,
      "t": 161363.4750000003,
      "d": 227.27249999999185,
      "v": 127
    },
    {
      "midi": 57,
      "hit": false,
      "t": 161363.4750000003,
      "d": 227.27249999999185,
      "v": 127
    },
    {
      "midi": 61,
      "hit": false,
      "t": 161363.4750000003,
      "d": 227.27249999999185,
      "v": 127
    },
    {
      "midi": 64,
      "hit": false,
      "t": 161363.4750000003,
      "d": 227.27249999999185,
      "v": 127
    },
    {
      "midi": 45,
      "hit": false,
      "t": 161590.7475000003,
      "d": 227.27249999999185,
      "v": 127
    },
    {
      "midi": 52,
      "hit": false,
      "t": 161590.7475000003,
      "d": 227.27249999999185,
      "v": 127
    },
    {
      "midi": 57,
      "hit": false,
      "t": 161590.7475000003,
      "d": 227.27249999999185,
      "v": 127
    },
    {
      "midi": 61,
      "hit": false,
      "t": 161590.7475000003,
      "d": 227.27249999999185,
      "v": 127
    },
    {
      "midi": 64,
      "hit": false,
      "t": 161590.7475000003,
      "d": 227.27249999999185,
      "v": 127
    },
    {
      "midi": 40,
      "hit": false,
      "t": 161818.02000000028,
      "d": 909.0899999999965,
      "v": 127
    },
    {
      "midi": 47,
      "hit": false,
      "t": 161818.02000000028,
      "d": 909.0899999999965,
      "v": 127
    },
    {
      "midi": 52,
      "hit": false,
      "t": 161818.02000000028,
      "d": 909.0899999999965,
      "v": 127
    },
    {
      "midi": 55,
      "hit": false,
      "t": 161818.02000000028,
      "d": 909.0899999999965,
      "v": 127
    },
    {
      "midi": 59,
      "hit": false,
      "t": 161818.02000000028,
      "d": 909.0899999999965,
      "v": 127
    },
    {
      "midi": 64,
      "hit": false,
      "t": 161818.02000000028,
      "d": 909.0899999999965,
      "v": 127
    },
    {
      "midi": 40,
      "hit": false,
      "t": 162727.11000000028,
      "d": 454.5450000000128,
      "v": 127
    },
    {
      "midi": 47,
      "hit": false,
      "t": 162727.11000000028,
      "d": 454.5450000000128,
      "v": 127
    },
    {
      "midi": 52,
      "hit": false,
      "t": 162727.11000000028,
      "d": 454.5450000000128,
      "v": 127
    },
    {
      "midi": 55,
      "hit": false,
      "t": 162727.11000000028,
      "d": 454.5450000000128,
      "v": 127
    },
    {
      "midi": 59,
      "hit": false,
      "t": 162727.11000000028,
      "d": 454.5450000000128,
      "v": 127
    },
    {
      "midi": 64,
      "hit": false,
      "t": 162727.11000000028,
      "d": 454.5450000000128,
      "v": 127
    },
    {
      "midi": 40,
      "hit": false,
      "t": 163181.6550000003,
      "d": 454.5450000000128,
      "v": 127
    },
    {
      "midi": 47,
      "hit": false,
      "t": 163181.6550000003,
      "d": 454.5450000000128,
      "v": 127
    },
    {
      "midi": 52,
      "hit": false,
      "t": 163181.6550000003,
      "d": 454.5450000000128,
      "v": 127
    },
    {
      "midi": 55,
      "hit": false,
      "t": 163181.6550000003,
      "d": 454.5450000000128,
      "v": 127
    },
    {
      "midi": 59,
      "hit": false,
      "t": 163181.6550000003,
      "d": 454.5450000000128,
      "v": 127
    },
    {
      "midi": 64,
      "hit": false,
      "t": 163181.6550000003,
      "d": 454.5450000000128,
      "v": 127
    },
    {
      "midi": 40,
      "hit": false,
      "t": 163636.2000000003,
      "d": 909.0899999999965,
      "v": 127
    },
    {
      "midi": 47,
      "hit": false,
      "t": 163636.2000000003,
      "d": 909.0899999999965,
      "v": 127
    },
    {
      "midi": 52,
      "hit": false,
      "t": 163636.2000000003,
      "d": 909.0899999999965,
      "v": 127
    },
    {
      "midi": 55,
      "hit": false,
      "t": 163636.2000000003,
      "d": 909.0899999999965,
      "v": 127
    },
    {
      "midi": 59,
      "hit": false,
      "t": 163636.2000000003,
      "d": 909.0899999999965,
      "v": 127
    },
    {
      "midi": 64,
      "hit": false,
      "t": 163636.2000000003,
      "d": 909.0899999999965,
      "v": 127
    },
    {
      "midi": 40,
      "hit": false,
      "t": 164545.2900000003,
      "d": 454.5450000000128,
      "v": 127
    },
    {
      "midi": 47,
      "hit": false,
      "t": 164545.2900000003,
      "d": 454.5450000000128,
      "v": 127
    },
    {
      "midi": 52,
      "hit": false,
      "t": 164545.2900000003,
      "d": 454.5450000000128,
      "v": 127
    },
    {
      "midi": 55,
      "hit": false,
      "t": 164545.2900000003,
      "d": 454.5450000000128,
      "v": 127
    },
    {
      "midi": 59,
      "hit": false,
      "t": 164545.2900000003,
      "d": 454.5450000000128,
      "v": 127
    },
    {
      "midi": 64,
      "hit": false,
      "t": 164545.2900000003,
      "d": 454.5450000000128,
      "v": 127
    },
    {
      "midi": 40,
      "hit": false,
      "t": 164999.8350000003,
      "d": 227.27249999999185,
      "v": 127
    },
    {
      "midi": 45,
      "hit": false,
      "t": 164999.8350000003,
      "d": 227.27249999999185,
      "v": 127
    },
    {
      "midi": 52,
      "hit": false,
      "t": 164999.8350000003,
      "d": 227.27249999999185,
      "v": 127
    },
    {
      "midi": 57,
      "hit": false,
      "t": 164999.8350000003,
      "d": 227.27249999999185,
      "v": 127
    },
    {
      "midi": 61,
      "hit": false,
      "t": 164999.8350000003,
      "d": 227.27249999999185,
      "v": 127
    },
    {
      "midi": 64,
      "hit": false,
      "t": 164999.8350000003,
      "d": 227.27249999999185,
      "v": 127
    },
    {
      "midi": 40,
      "hit": false,
      "t": 165227.1075000003,
      "d": 227.27249999999185,
      "v": 127
    },
    {
      "midi": 45,
      "hit": false,
      "t": 165227.1075000003,
      "d": 227.27249999999185,
      "v": 127
    },
    {
      "midi": 52,
      "hit": false,
      "t": 165227.1075000003,
      "d": 227.27249999999185,
      "v": 127
    },
    {
      "midi": 57,
      "hit": false,
      "t": 165227.1075000003,
      "d": 227.27249999999185,
      "v": 127
    },
    {
      "midi": 61,
      "hit": false,
      "t": 165227.1075000003,
      "d": 227.27249999999185,
      "v": 127
    },
    {
      "midi": 64,
      "hit": false,
      "t": 165227.1075000003,
      "d": 227.27249999999185,
      "v": 127
    },
    {
      "midi": 48,
      "hit": false,
      "t": 165454.3800000003,
      "d": 454.5450000000128,
      "v": 127
    },
    {
      "midi": 52,
      "hit": false,
      "t": 165454.3800000003,
      "d": 454.5450000000128,
      "v": 127
    },
    {
      "midi": 52,
      "hit": false,
      "t": 165908.9250000003,
      "d": 454.5450000000128,
      "v": 127
    },
    {
      "midi": 58,
      "hit": false,
      "t": 165908.9250000003,
      "d": 454.5450000000128,
      "v": 127
    },
    {
      "midi": 58,
      "hit": false,
      "t": 166363.47000000032,
      "d": 454.5450000000128,
      "v": 127
    },
    {
      "midi": 60,
      "hit": false,
      "t": 166363.47000000032,
      "d": 454.5450000000128,
      "v": 127
    },
    {
      "midi": 58,
      "hit": false,
      "t": 166818.01500000033,
      "d": 454.5450000000128,
      "v": 127
    },
    {
      "midi": 60,
      "hit": false,
      "t": 166818.01500000033,
      "d": 454.5450000000128,
      "v": 127
    },
    {
      "midi": 47,
      "hit": false,
      "t": 167272.56000000035,
      "d": 3636.359999999986,
      "v": 127
    },
    {
      "midi": 51,
      "hit": false,
      "t": 167272.56000000035,
      "d": 3636.359999999986,
      "v": 127
    },
    {
      "midi": 57,
      "hit": false,
      "t": 167272.56000000035,
      "d": 3636.359999999986,
      "v": 127
    },
    {
      "midi": 59,
      "hit": false,
      "t": 167272.56000000035,
      "d": 3636.359999999986,
      "v": 127
    },
    {
      "midi": 40,
      "hit": false,
      "t": 170908.92000000033,
      "d": 909.0899999999965,
      "v": 127
    },
    {
      "midi": 54,
      "hit": false,
      "t": 171818.01000000033,
      "d": 227.27249999999185,
      "v": 127
    },
    {
      "midi": 66,
      "hit": false,
      "t": 171818.01000000033,
      "d": 227.27249999999185,
      "v": 127
    },
    {
      "midi": 54,
      "hit": false,
      "t": 172045.28250000032,
      "d": 227.27249999999185,
      "v": 127
    },
    {
      "midi": 66,
      "hit": false,
      "t": 172045.28250000032,
      "d": 227.27249999999185,
      "v": 127
    },
    {
      "midi": 54,
      "hit": false,
      "t": 172272.5550000003,
      "d": 227.27249999999185,
      "v": 127
    },
    {
      "midi": 66,
      "hit": false,
      "t": 172272.5550000003,
      "d": 227.27249999999185,
      "v": 127
    },
    {
      "midi": 54,
      "hit": false,
      "t": 172499.8275000003,
      "d": 227.27249999999185,
      "v": 127
    },
    {
      "midi": 66,
      "hit": false,
      "t": 172499.8275000003,
      "d": 227.27249999999185,
      "v": 127
    },
    {
      "midi": 54,
      "hit": false,
      "t": 172727.1000000003,
      "d": 227.27249999999185,
      "v": 127
    },
    {
      "midi": 66,
      "hit": false,
      "t": 172727.1000000003,
      "d": 227.27249999999185,
      "v": 127
    },
    {
      "midi": 40,
      "hit": false,
      "t": 172954.3725000003,
      "d": 28.409062499995343,
      "v": 127
    },
    {
      "midi": 50,
      "hit": false,
      "t": 172954.3725000003,
      "d": 28.409062499995343,
      "v": 127
    },
    {
      "midi": 55,
      "hit": false,
      "t": 172954.3725000003,
      "d": 28.409062499995343,
      "v": 127
    },
    {
      "midi": 52,
      "hit": false,
      "t": 173181.64500000028,
      "d": 454.5450000000128,
      "v": 127
    },
    {
      "midi": 55,
      "hit": false,
      "t": 173181.64500000028,
      "d": 454.5450000000128,
      "v": 127
    },
    {
      "midi": 64,
      "hit": false,
      "t": 173181.64500000028,
      "d": 454.5450000000128,
      "v": 127
    },
    {
      "midi": 40,
      "hit": false,
      "t": 173636.1900000003,
      "d": 28.409062499995343,
      "v": 127
    },
    {
      "midi": 50,
      "hit": false,
      "t": 173636.1900000003,
      "d": 28.409062499995343,
      "v": 127
    },
    {
      "midi": 55,
      "hit": false,
      "t": 173636.1900000003,
      "d": 28.409062499995343,
      "v": 127
    },
    {
      "midi": 40,
      "hit": false,
      "t": 173863.46250000029,
      "d": 28.409062499995343,
      "v": 127
    },
    {
      "midi": 50,
      "hit": false,
      "t": 173863.46250000029,
      "d": 28.409062499995343,
      "v": 127
    },
    {
      "midi": 55,
      "hit": false,
      "t": 173863.46250000029,
      "d": 28.409062499995343,
      "v": 127
    },
    {
      "midi": 50,
      "hit": false,
      "t": 174090.73500000028,
      "d": 454.5450000000128,
      "v": 127
    },
    {
      "midi": 55,
      "hit": false,
      "t": 174090.73500000028,
      "d": 454.5450000000128,
      "v": 127
    },
    {
      "midi": 62,
      "hit": false,
      "t": 174090.73500000028,
      "d": 454.5450000000128,
      "v": 127
    },
    {
      "midi": 40,
      "hit": false,
      "t": 174545.2800000003,
      "d": 28.409062499995343,
      "v": 127
    },
    {
      "midi": 50,
      "hit": false,
      "t": 174545.2800000003,
      "d": 28.409062499995343,
      "v": 127
    },
    {
      "midi": 55,
      "hit": false,
      "t": 174545.2800000003,
      "d": 28.409062499995343,
      "v": 127
    },
    {
      "midi": 40,
      "hit": false,
      "t": 174772.55250000028,
      "d": 28.409062499995343,
      "v": 127
    },
    {
      "midi": 50,
      "hit": false,
      "t": 174772.55250000028,
      "d": 28.409062499995343,
      "v": 127
    },
    {
      "midi": 55,
      "hit": false,
      "t": 174772.55250000028,
      "d": 28.409062499995343,
      "v": 127
    },
    {
      "midi": 48,
      "hit": false,
      "t": 174999.82500000027,
      "d": 454.5450000000128,
      "v": 127
    },
    {
      "midi": 55,
      "hit": false,
      "t": 174999.82500000027,
      "d": 454.5450000000128,
      "v": 127
    },
    {
      "midi": 60,
      "hit": false,
      "t": 174999.82500000027,
      "d": 454.5450000000128,
      "v": 127
    },
    {
      "midi": 40,
      "hit": false,
      "t": 175454.3700000003,
      "d": 28.409062499995343,
      "v": 127
    },
    {
      "midi": 50,
      "hit": false,
      "t": 175454.3700000003,
      "d": 28.409062499995343,
      "v": 127
    },
    {
      "midi": 55,
      "hit": false,
      "t": 175454.3700000003,
      "d": 28.409062499995343,
      "v": 127
    },
    {
      "midi": 40,
      "hit": false,
      "t": 175681.64250000028,
      "d": 28.409062499995343,
      "v": 127
    },
    {
      "midi": 50,
      "hit": false,
      "t": 175681.64250000028,
      "d": 28.409062499995343,
      "v": 127
    },
    {
      "midi": 55,
      "hit": false,
      "t": 175681.64250000028,
      "d": 28.409062499995343,
      "v": 127
    },
    {
      "midi": 42,
      "hit": false,
      "t": 175908.91500000027,
      "d": 681.8175000000047,
      "v": 127
    },
    {
      "midi": 55,
      "hit": false,
      "t": 176590.73250000027,
      "d": 227.27249999999185,
      "v": 127
    },
    {
      "midi": 42,
      "hit": false,
      "t": 176818.00500000027,
      "d": 227.27249999999185,
      "v": 127
    },
    {
      "midi": 55,
      "hit": false,
      "t": 177045.27750000026,
      "d": 227.27249999999185,
      "v": 127
    },
    {
      "midi": 42,
      "hit": false,
      "t": 177272.55000000025,
      "d": 227.27249999999185,
      "v": 127
    },
    {
      "midi": 55,
      "hit": false,
      "t": 177499.82250000024,
      "d": 227.27249999999185,
      "v": 127
    },
    {
      "midi": 42,
      "hit": false,
      "t": 177727.09500000023,
      "d": 227.27249999999185,
      "v": 127
    },
    {
      "midi": 55,
      "hit": false,
      "t": 177954.36750000023,
      "d": 227.27249999999185,
      "v": 127
    },
    {
      "midi": 40,
      "hit": false,
      "t": 178181.64000000022,
      "d": 454.5450000000128,
      "v": 127
    },
    {
      "midi": 40,
      "hit": false,
      "t": 178636.18500000023,
      "d": 227.27249999999185,
      "v": 127
    },
    {
      "midi": 40,
      "hit": false,
      "t": 178863.45750000022,
      "d": 227.27249999999185,
      "v": 127
    },
    {
      "midi": 54,
      "hit": false,
      "t": 179090.7300000002,
      "d": 227.27249999999185,
      "v": 127
    },
    {
      "midi": 55,
      "hit": false,
      "t": 179090.7300000002,
      "d": 227.27249999999185,
      "v": 127
    },
    {
      "midi": 66,
      "hit": false,
      "t": 179090.7300000002,
      "d": 227.27249999999185,
      "v": 127
    },
    {
      "midi": 54,
      "hit": false,
      "t": 179318.0025000002,
      "d": 227.27249999999185,
      "v": 127
    },
    {
      "midi": 55,
      "hit": false,
      "t": 179318.0025000002,
      "d": 227.27249999999185,
      "v": 127
    },
    {
      "midi": 66,
      "hit": false,
      "t": 179318.0025000002,
      "d": 227.27249999999185,
      "v": 127
    },
    {
      "midi": 54,
      "hit": false,
      "t": 179545.2750000002,
      "d": 227.27249999999185,
      "v": 127
    },
    {
      "midi": 55,
      "hit": false,
      "t": 179545.2750000002,
      "d": 227.27249999999185,
      "v": 127
    },
    {
      "midi": 66,
      "hit": false,
      "t": 179545.2750000002,
      "d": 227.27249999999185,
      "v": 127
    },
    {
      "midi": 54,
      "hit": false,
      "t": 179772.5475000002,
      "d": 227.27249999999185,
      "v": 127
    },
    {
      "midi": 55,
      "hit": false,
      "t": 179772.5475000002,
      "d": 227.27249999999185,
      "v": 127
    },
    {
      "midi": 66,
      "hit": false,
      "t": 179772.5475000002,
      "d": 227.27249999999185,
      "v": 127
    },
    {
      "midi": 54,
      "hit": false,
      "t": 179999.82000000018,
      "d": 227.27249999999185,
      "v": 127
    },
    {
      "midi": 55,
      "hit": false,
      "t": 179999.82000000018,
      "d": 227.27249999999185,
      "v": 127
    },
    {
      "midi": 66,
      "hit": false,
      "t": 179999.82000000018,
      "d": 227.27249999999185,
      "v": 127
    },
    {
      "midi": 40,
      "hit": false,
      "t": 180227.09250000017,
      "d": 28.409062499995343,
      "v": 127
    },
    {
      "midi": 50,
      "hit": false,
      "t": 180227.09250000017,
      "d": 28.409062499995343,
      "v": 127
    },
    {
      "midi": 55,
      "hit": false,
      "t": 180227.09250000017,
      "d": 28.409062499995343,
      "v": 127
    },
    {
      "midi": 52,
      "hit": false,
      "t": 180454.36500000017,
      "d": 454.5450000000128,
      "v": 127
    },
    {
      "midi": 55,
      "hit": false,
      "t": 180454.36500000017,
      "d": 454.5450000000128,
      "v": 127
    },
    {
      "midi": 64,
      "hit": false,
      "t": 180454.36500000017,
      "d": 454.5450000000128,
      "v": 127
    },
    {
      "midi": 40,
      "hit": false,
      "t": 180908.91000000018,
      "d": 28.409062499995343,
      "v": 127
    },
    {
      "midi": 50,
      "hit": false,
      "t": 180908.91000000018,
      "d": 28.409062499995343,
      "v": 127
    },
    {
      "midi": 55,
      "hit": false,
      "t": 180908.91000000018,
      "d": 28.409062499995343,
      "v": 127
    },
    {
      "midi": 40,
      "hit": false,
      "t": 181136.18250000017,
      "d": 28.409062499995343,
      "v": 127
    },
    {
      "midi": 50,
      "hit": false,
      "t": 181136.18250000017,
      "d": 28.409062499995343,
      "v": 127
    },
    {
      "midi": 55,
      "hit": false,
      "t": 181136.18250000017,
      "d": 28.409062499995343,
      "v": 127
    },
    {
      "midi": 50,
      "hit": false,
      "t": 181363.45500000016,
      "d": 454.5450000000128,
      "v": 127
    },
    {
      "midi": 55,
      "hit": false,
      "t": 181363.45500000016,
      "d": 454.5450000000128,
      "v": 127
    },
    {
      "midi": 62,
      "hit": false,
      "t": 181363.45500000016,
      "d": 454.5450000000128,
      "v": 127
    },
    {
      "midi": 40,
      "hit": false,
      "t": 181818.00000000017,
      "d": 28.409062499995343,
      "v": 127
    },
    {
      "midi": 50,
      "hit": false,
      "t": 181818.00000000017,
      "d": 28.409062499995343,
      "v": 127
    },
    {
      "midi": 55,
      "hit": false,
      "t": 181818.00000000017,
      "d": 28.409062499995343,
      "v": 127
    },
    {
      "midi": 40,
      "hit": false,
      "t": 182045.27250000017,
      "d": 28.409062499995343,
      "v": 127
    },
    {
      "midi": 50,
      "hit": false,
      "t": 182045.27250000017,
      "d": 28.409062499995343,
      "v": 127
    },
    {
      "midi": 55,
      "hit": false,
      "t": 182045.27250000017,
      "d": 28.409062499995343,
      "v": 127
    },
    {
      "midi": 48,
      "hit": false,
      "t": 182272.54500000016,
      "d": 454.5450000000128,
      "v": 127
    },
    {
      "midi": 55,
      "hit": false,
      "t": 182272.54500000016,
      "d": 454.5450000000128,
      "v": 127
    },
    {
      "midi": 60,
      "hit": false,
      "t": 182272.54500000016,
      "d": 454.5450000000128,
      "v": 127
    },
    {
      "midi": 40,
      "hit": false,
      "t": 182727.09000000017,
      "d": 28.409062499995343,
      "v": 127
    },
    {
      "midi": 50,
      "hit": false,
      "t": 182727.09000000017,
      "d": 28.409062499995343,
      "v": 127
    },
    {
      "midi": 55,
      "hit": false,
      "t": 182727.09000000017,
      "d": 28.409062499995343,
      "v": 127
    },
    {
      "midi": 40,
      "hit": false,
      "t": 182954.36250000016,
      "d": 28.409062499995343,
      "v": 127
    },
    {
      "midi": 50,
      "hit": false,
      "t": 182954.36250000016,
      "d": 28.409062499995343,
      "v": 127
    },
    {
      "midi": 55,
      "hit": false,
      "t": 182954.36250000016,
      "d": 28.409062499995343,
      "v": 127
    },
    {
      "midi": 42,
      "hit": false,
      "t": 183181.63500000015,
      "d": 681.8175000000047,
      "v": 127
    },
    {
      "midi": 50,
      "hit": false,
      "t": 183181.63500000015,
      "d": 681.8175000000047,
      "v": 127
    },
    {
      "midi": 55,
      "hit": false,
      "t": 183863.45250000016,
      "d": 227.27249999999185,
      "v": 127
    },
    {
      "midi": 59,
      "hit": false,
      "t": 183863.45250000016,
      "d": 227.27249999999185,
      "v": 127
    },
    {
      "midi": 64,
      "hit": false,
      "t": 183863.45250000016,
      "d": 227.27249999999185,
      "v": 127
    },
    {
      "midi": 42,
      "hit": false,
      "t": 184090.72500000015,
      "d": 227.27249999999185,
      "v": 127
    },
    {
      "midi": 55,
      "hit": false,
      "t": 184317.99750000014,
      "d": 227.27249999999185,
      "v": 127
    },
    {
      "midi": 59,
      "hit": false,
      "t": 184317.99750000014,
      "d": 227.27249999999185,
      "v": 127
    },
    {
      "midi": 64,
      "hit": false,
      "t": 184317.99750000014,
      "d": 227.27249999999185,
      "v": 127
    },
    {
      "midi": 42,
      "hit": false,
      "t": 184545.27000000014,
      "d": 227.27249999999185,
      "v": 127
    },
    {
      "midi": 55,
      "hit": false,
      "t": 184772.54250000013,
      "d": 227.27249999999185,
      "v": 127
    },
    {
      "midi": 59,
      "hit": false,
      "t": 184772.54250000013,
      "d": 227.27249999999185,
      "v": 127
    },
    {
      "midi": 64,
      "hit": false,
      "t": 184772.54250000013,
      "d": 227.27249999999185,
      "v": 127
    },
    {
      "midi": 42,
      "hit": false,
      "t": 184999.81500000012,
      "d": 227.27249999999185,
      "v": 127
    },
    {
      "midi": 55,
      "hit": false,
      "t": 185227.0875000001,
      "d": 227.27249999999185,
      "v": 127
    },
    {
      "midi": 59,
      "hit": false,
      "t": 185227.0875000001,
      "d": 227.27249999999185,
      "v": 127
    },
    {
      "midi": 64,
      "hit": false,
      "t": 185227.0875000001,
      "d": 227.27249999999185,
      "v": 127
    },
    {
      "midi": 40,
      "hit": false,
      "t": 185454.3600000001,
      "d": 454.5450000000128,
      "v": 127
    },
    {
      "midi": 40,
      "hit": false,
      "t": 185908.90500000012,
      "d": 227.27249999999185,
      "v": 127
    },
    {
      "midi": 40,
      "hit": false,
      "t": 186136.1775000001,
      "d": 227.27249999999185,
      "v": 127
    },
    {
      "midi": 54,
      "hit": false,
      "t": 186363.4500000001,
      "d": 227.27249999999185,
      "v": 127
    },
    {
      "midi": 55,
      "hit": false,
      "t": 186363.4500000001,
      "d": 227.27249999999185,
      "v": 127
    },
    {
      "midi": 66,
      "hit": false,
      "t": 186363.4500000001,
      "d": 227.27249999999185,
      "v": 127
    },
    {
      "midi": 54,
      "hit": false,
      "t": 186590.7225000001,
      "d": 227.27249999999185,
      "v": 127
    },
    {
      "midi": 55,
      "hit": false,
      "t": 186590.7225000001,
      "d": 227.27249999999185,
      "v": 127
    },
    {
      "midi": 66,
      "hit": false,
      "t": 186590.7225000001,
      "d": 227.27249999999185,
      "v": 127
    },
    {
      "midi": 54,
      "hit": false,
      "t": 186817.99500000008,
      "d": 227.27249999999185,
      "v": 127
    },
    {
      "midi": 55,
      "hit": false,
      "t": 186817.99500000008,
      "d": 227.27249999999185,
      "v": 127
    },
    {
      "midi": 66,
      "hit": false,
      "t": 186817.99500000008,
      "d": 227.27249999999185,
      "v": 127
    },
    {
      "midi": 54,
      "hit": false,
      "t": 187045.26750000007,
      "d": 227.27249999999185,
      "v": 127
    },
    {
      "midi": 55,
      "hit": false,
      "t": 187045.26750000007,
      "d": 227.27249999999185,
      "v": 127
    },
    {
      "midi": 66,
      "hit": false,
      "t": 187045.26750000007,
      "d": 227.27249999999185,
      "v": 127
    },
    {
      "midi": 54,
      "hit": false,
      "t": 187272.54000000007,
      "d": 227.27249999999185,
      "v": 127
    },
    {
      "midi": 55,
      "hit": false,
      "t": 187272.54000000007,
      "d": 227.27249999999185,
      "v": 127
    },
    {
      "midi": 66,
      "hit": false,
      "t": 187272.54000000007,
      "d": 227.27249999999185,
      "v": 127
    },
    {
      "midi": 40,
      "hit": false,
      "t": 187499.81250000006,
      "d": 28.409062499995343,
      "v": 127
    },
    {
      "midi": 50,
      "hit": false,
      "t": 187499.81250000006,
      "d": 28.409062499995343,
      "v": 127
    },
    {
      "midi": 55,
      "hit": false,
      "t": 187499.81250000006,
      "d": 28.409062499995343,
      "v": 127
    },
    {
      "midi": 52,
      "hit": false,
      "t": 187727.08500000005,
      "d": 454.5450000000128,
      "v": 127
    },
    {
      "midi": 55,
      "hit": false,
      "t": 187727.08500000005,
      "d": 454.5450000000128,
      "v": 127
    },
    {
      "midi": 64,
      "hit": false,
      "t": 187727.08500000005,
      "d": 454.5450000000128,
      "v": 127
    },
    {
      "midi": 40,
      "hit": false,
      "t": 188181.63000000006,
      "d": 28.409062499995343,
      "v": 127
    },
    {
      "midi": 50,
      "hit": false,
      "t": 188181.63000000006,
      "d": 28.409062499995343,
      "v": 127
    },
    {
      "midi": 55,
      "hit": false,
      "t": 188181.63000000006,
      "d": 28.409062499995343,
      "v": 127
    },
    {
      "midi": 40,
      "hit": false,
      "t": 188408.90250000005,
      "d": 28.409062499995343,
      "v": 127
    },
    {
      "midi": 50,
      "hit": false,
      "t": 188408.90250000005,
      "d": 28.409062499995343,
      "v": 127
    },
    {
      "midi": 55,
      "hit": false,
      "t": 188408.90250000005,
      "d": 28.409062499995343,
      "v": 127
    },
    {
      "midi": 50,
      "hit": false,
      "t": 188636.17500000005,
      "d": 454.5450000000128,
      "v": 127
    },
    {
      "midi": 55,
      "hit": false,
      "t": 188636.17500000005,
      "d": 454.5450000000128,
      "v": 127
    },
    {
      "midi": 62,
      "hit": false,
      "t": 188636.17500000005,
      "d": 454.5450000000128,
      "v": 127
    },
    {
      "midi": 40,
      "hit": false,
      "t": 189090.72000000006,
      "d": 28.409062499995343,
      "v": 127
    },
    {
      "midi": 50,
      "hit": false,
      "t": 189090.72000000006,
      "d": 28.409062499995343,
      "v": 127
    },
    {
      "midi": 55,
      "hit": false,
      "t": 189090.72000000006,
      "d": 28.409062499995343,
      "v": 127
    },
    {
      "midi": 40,
      "hit": false,
      "t": 189317.99250000005,
      "d": 28.409062499995343,
      "v": 127
    },
    {
      "midi": 50,
      "hit": false,
      "t": 189317.99250000005,
      "d": 28.409062499995343,
      "v": 127
    },
    {
      "midi": 55,
      "hit": false,
      "t": 189317.99250000005,
      "d": 28.409062499995343,
      "v": 127
    },
    {
      "midi": 48,
      "hit": false,
      "t": 189545.26500000004,
      "d": 454.5450000000128,
      "v": 127
    },
    {
      "midi": 55,
      "hit": false,
      "t": 189545.26500000004,
      "d": 454.5450000000128,
      "v": 127
    },
    {
      "midi": 60,
      "hit": false,
      "t": 189545.26500000004,
      "d": 454.5450000000128,
      "v": 127
    },
    {
      "midi": 40,
      "hit": false,
      "t": 189999.81000000006,
      "d": 28.409062499995343,
      "v": 127
    },
    {
      "midi": 50,
      "hit": false,
      "t": 189999.81000000006,
      "d": 28.409062499995343,
      "v": 127
    },
    {
      "midi": 55,
      "hit": false,
      "t": 189999.81000000006,
      "d": 28.409062499995343,
      "v": 127
    },
    {
      "midi": 40,
      "hit": false,
      "t": 190227.08250000005,
      "d": 28.409062499995343,
      "v": 127
    },
    {
      "midi": 50,
      "hit": false,
      "t": 190227.08250000005,
      "d": 28.409062499995343,
      "v": 127
    },
    {
      "midi": 55,
      "hit": false,
      "t": 190227.08250000005,
      "d": 28.409062499995343,
      "v": 127
    },
    {
      "midi": 42,
      "hit": false,
      "t": 190454.35500000004,
      "d": 681.8175000000047,
      "v": 127
    },
    {
      "midi": 50,
      "hit": false,
      "t": 190454.35500000004,
      "d": 681.8175000000047,
      "v": 127
    },
    {
      "midi": 55,
      "hit": false,
      "t": 191136.17250000004,
      "d": 227.27249999999185,
      "v": 127
    },
    {
      "midi": 59,
      "hit": false,
      "t": 191136.17250000004,
      "d": 227.27249999999185,
      "v": 127
    },
    {
      "midi": 64,
      "hit": false,
      "t": 191136.17250000004,
      "d": 227.27249999999185,
      "v": 127
    },
    {
      "midi": 42,
      "hit": false,
      "t": 191363.44500000004,
      "d": 227.27249999999185,
      "v": 127
    },
    {
      "midi": 42,
      "hit": false,
      "t": 191590.71750000003,
      "d": 227.27249999999185,
      "v": 127
    },
    {
      "midi": 42,
      "hit": false,
      "t": 191817.99000000002,
      "d": 227.27249999999185,
      "v": 127
    },
    {
      "midi": 43,
      "hit": false,
      "t": 192045.2625,
      "d": 227.27249999999185,
      "v": 95
    },
    {
      "midi": 42,
      "hit": false,
      "t": 192272.535,
      "d": 454.5450000000128,
      "v": 127
    },
    {
      "midi": 40,
      "hit": false,
      "t": 192727.08000000002,
      "d": 454.5450000000128,
      "v": 127
    },
    {
      "midi": 40,
      "hit": false,
      "t": 193181.62500000003,
      "d": 227.27249999999185,
      "v": 127
    },
    {
      "midi": 40,
      "hit": false,
      "t": 193408.89750000002,
      "d": 227.27249999999185,
      "v": 127
    },
    {
      "midi": 54,
      "hit": false,
      "t": 193636.17,
      "d": 227.27249999999185,
      "v": 127
    },
    {
      "midi": 55,
      "hit": false,
      "t": 193636.17,
      "d": 227.27249999999185,
      "v": 127
    },
    {
      "midi": 66,
      "hit": false,
      "t": 193636.17,
      "d": 227.27249999999185,
      "v": 127
    },
    {
      "midi": 54,
      "hit": false,
      "t": 193863.4425,
      "d": 227.27249999999185,
      "v": 127
    },
    {
      "midi": 55,
      "hit": false,
      "t": 193863.4425,
      "d": 227.27249999999185,
      "v": 127
    },
    {
      "midi": 66,
      "hit": false,
      "t": 193863.4425,
      "d": 227.27249999999185,
      "v": 127
    },
    {
      "midi": 54,
      "hit": false,
      "t": 194090.715,
      "d": 227.27249999999185,
      "v": 127
    },
    {
      "midi": 55,
      "hit": false,
      "t": 194090.715,
      "d": 227.27249999999185,
      "v": 127
    },
    {
      "midi": 66,
      "hit": false,
      "t": 194090.715,
      "d": 227.27249999999185,
      "v": 127
    },
    {
      "midi": 54,
      "hit": false,
      "t": 194317.9875,
      "d": 227.27249999999185,
      "v": 127
    },
    {
      "midi": 55,
      "hit": false,
      "t": 194317.9875,
      "d": 227.27249999999185,
      "v": 127
    },
    {
      "midi": 66,
      "hit": false,
      "t": 194317.9875,
      "d": 227.27249999999185,
      "v": 127
    },
    {
      "midi": 54,
      "hit": false,
      "t": 194545.25999999998,
      "d": 227.27249999999185,
      "v": 127
    },
    {
      "midi": 55,
      "hit": false,
      "t": 194545.25999999998,
      "d": 227.27249999999185,
      "v": 127
    },
    {
      "midi": 66,
      "hit": false,
      "t": 194545.25999999998,
      "d": 227.27249999999185,
      "v": 127
    },
    {
      "midi": 40,
      "hit": false,
      "t": 194772.53249999997,
      "d": 28.409062499995343,
      "v": 127
    },
    {
      "midi": 50,
      "hit": false,
      "t": 194772.53249999997,
      "d": 28.409062499995343,
      "v": 127
    },
    {
      "midi": 55,
      "hit": false,
      "t": 194772.53249999997,
      "d": 28.409062499995343,
      "v": 127
    },
    {
      "midi": 52,
      "hit": false,
      "t": 194999.80499999996,
      "d": 454.5450000000128,
      "v": 127
    },
    {
      "midi": 55,
      "hit": false,
      "t": 194999.80499999996,
      "d": 454.5450000000128,
      "v": 127
    },
    {
      "midi": 64,
      "hit": false,
      "t": 194999.80499999996,
      "d": 454.5450000000128,
      "v": 127
    },
    {
      "midi": 40,
      "hit": false,
      "t": 195454.34999999998,
      "d": 28.409062499995343,
      "v": 127
    },
    {
      "midi": 50,
      "hit": false,
      "t": 195454.34999999998,
      "d": 28.409062499995343,
      "v": 127
    },
    {
      "midi": 55,
      "hit": false,
      "t": 195454.34999999998,
      "d": 28.409062499995343,
      "v": 127
    },
    {
      "midi": 40,
      "hit": false,
      "t": 195681.62249999997,
      "d": 28.409062499995343,
      "v": 127
    },
    {
      "midi": 50,
      "hit": false,
      "t": 195681.62249999997,
      "d": 28.409062499995343,
      "v": 127
    },
    {
      "midi": 55,
      "hit": false,
      "t": 195681.62249999997,
      "d": 28.409062499995343,
      "v": 127
    },
    {
      "midi": 50,
      "hit": false,
      "t": 195908.89499999996,
      "d": 454.5450000000128,
      "v": 127
    },
    {
      "midi": 55,
      "hit": false,
      "t": 195908.89499999996,
      "d": 454.5450000000128,
      "v": 127
    },
    {
      "midi": 62,
      "hit": false,
      "t": 195908.89499999996,
      "d": 454.5450000000128,
      "v": 127
    },
    {
      "midi": 40,
      "hit": false,
      "t": 196363.43999999997,
      "d": 28.409062499995343,
      "v": 127
    },
    {
      "midi": 50,
      "hit": false,
      "t": 196363.43999999997,
      "d": 28.409062499995343,
      "v": 127
    },
    {
      "midi": 55,
      "hit": false,
      "t": 196363.43999999997,
      "d": 28.409062499995343,
      "v": 127
    },
    {
      "midi": 40,
      "hit": false,
      "t": 196590.71249999997,
      "d": 28.409062499995343,
      "v": 127
    },
    {
      "midi": 50,
      "hit": false,
      "t": 196590.71249999997,
      "d": 28.409062499995343,
      "v": 127
    },
    {
      "midi": 55,
      "hit": false,
      "t": 196590.71249999997,
      "d": 28.409062499995343,
      "v": 127
    },
    {
      "midi": 48,
      "hit": false,
      "t": 196817.98499999996,
      "d": 454.5450000000128,
      "v": 127
    },
    {
      "midi": 55,
      "hit": false,
      "t": 196817.98499999996,
      "d": 454.5450000000128,
      "v": 127
    },
    {
      "midi": 60,
      "hit": false,
      "t": 196817.98499999996,
      "d": 454.5450000000128,
      "v": 127
    },
    {
      "midi": 40,
      "hit": false,
      "t": 197272.52999999997,
      "d": 28.409062499995343,
      "v": 127
    },
    {
      "midi": 50,
      "hit": false,
      "t": 197272.52999999997,
      "d": 28.409062499995343,
      "v": 127
    },
    {
      "midi": 55,
      "hit": false,
      "t": 197272.52999999997,
      "d": 28.409062499995343,
      "v": 127
    },
    {
      "midi": 40,
      "hit": false,
      "t": 197499.80249999996,
      "d": 28.409062499995343,
      "v": 127
    },
    {
      "midi": 50,
      "hit": false,
      "t": 197499.80249999996,
      "d": 28.409062499995343,
      "v": 127
    },
    {
      "midi": 55,
      "hit": false,
      "t": 197499.80249999996,
      "d": 28.409062499995343,
      "v": 127
    },
    {
      "midi": 42,
      "hit": false,
      "t": 197727.07499999995,
      "d": 681.8175000000047,
      "v": 127
    },
    {
      "midi": 50,
      "hit": false,
      "t": 197727.07499999995,
      "d": 681.8175000000047,
      "v": 127
    },
    {
      "midi": 55,
      "hit": false,
      "t": 198408.89249999996,
      "d": 227.27249999999185,
      "v": 127
    },
    {
      "midi": 59,
      "hit": false,
      "t": 198408.89249999996,
      "d": 227.27249999999185,
      "v": 127
    },
    {
      "midi": 64,
      "hit": false,
      "t": 198408.89249999996,
      "d": 227.27249999999185,
      "v": 127
    },
    {
      "midi": 42,
      "hit": false,
      "t": 198636.16499999995,
      "d": 227.27249999999185,
      "v": 127
    },
    {
      "midi": 42,
      "hit": false,
      "t": 198863.43749999994,
      "d": 227.27249999999185,
      "v": 127
    },
    {
      "midi": 42,
      "hit": false,
      "t": 199090.70999999993,
      "d": 227.27249999999185,
      "v": 127
    },
    {
      "midi": 43,
      "hit": false,
      "t": 199317.98249999993,
      "d": 227.27249999999185,
      "v": 95
    },
    {
      "midi": 42,
      "hit": false,
      "t": 199545.25499999992,
      "d": 454.5450000000128,
      "v": 127
    },
    {
      "midi": 40,
      "hit": false,
      "t": 199999.79999999993,
      "d": 454.5450000000128,
      "v": 127
    },
    {
      "midi": 40,
      "hit": false,
      "t": 200454.34499999994,
      "d": 227.27249999999185,
      "v": 127
    },
    {
      "midi": 40,
      "hit": false,
      "t": 200681.61749999993,
      "d": 227.27249999999185,
      "v": 127
    },
    {
      "midi": 54,
      "hit": false,
      "t": 200908.88999999993,
      "d": 227.27249999999185,
      "v": 127
    },
    {
      "midi": 55,
      "hit": false,
      "t": 200908.88999999993,
      "d": 227.27249999999185,
      "v": 127
    },
    {
      "midi": 66,
      "hit": false,
      "t": 200908.88999999993,
      "d": 227.27249999999185,
      "v": 127
    },
    {
      "midi": 54,
      "hit": false,
      "t": 201136.16249999992,
      "d": 227.27249999999185,
      "v": 127
    },
    {
      "midi": 55,
      "hit": false,
      "t": 201136.16249999992,
      "d": 227.27249999999185,
      "v": 127
    },
    {
      "midi": 66,
      "hit": false,
      "t": 201136.16249999992,
      "d": 227.27249999999185,
      "v": 127
    },
    {
      "midi": 54,
      "hit": false,
      "t": 201363.4349999999,
      "d": 227.27249999999185,
      "v": 127
    },
    {
      "midi": 55,
      "hit": false,
      "t": 201363.4349999999,
      "d": 227.27249999999185,
      "v": 127
    },
    {
      "midi": 66,
      "hit": false,
      "t": 201363.4349999999,
      "d": 227.27249999999185,
      "v": 127
    },
    {
      "midi": 54,
      "hit": false,
      "t": 201590.7074999999,
      "d": 227.27249999999185,
      "v": 127
    },
    {
      "midi": 55,
      "hit": false,
      "t": 201590.7074999999,
      "d": 227.27249999999185,
      "v": 127
    },
    {
      "midi": 66,
      "hit": false,
      "t": 201590.7074999999,
      "d": 227.27249999999185,
      "v": 127
    },
    {
      "midi": 54,
      "hit": false,
      "t": 201817.9799999999,
      "d": 227.27249999999185,
      "v": 127
    },
    {
      "midi": 55,
      "hit": false,
      "t": 201817.9799999999,
      "d": 227.27249999999185,
      "v": 127
    },
    {
      "midi": 66,
      "hit": false,
      "t": 201817.9799999999,
      "d": 227.27249999999185,
      "v": 127
    },
    {
      "midi": 40,
      "hit": false,
      "t": 202045.2524999999,
      "d": 28.409062499995343,
      "v": 127
    },
    {
      "midi": 50,
      "hit": false,
      "t": 202045.2524999999,
      "d": 28.409062499995343,
      "v": 127
    },
    {
      "midi": 55,
      "hit": false,
      "t": 202045.2524999999,
      "d": 28.409062499995343,
      "v": 127
    },
    {
      "midi": 52,
      "hit": false,
      "t": 202272.52499999988,
      "d": 454.5450000000128,
      "v": 127
    },
    {
      "midi": 55,
      "hit": false,
      "t": 202272.52499999988,
      "d": 454.5450000000128,
      "v": 127
    },
    {
      "midi": 64,
      "hit": false,
      "t": 202272.52499999988,
      "d": 454.5450000000128,
      "v": 127
    },
    {
      "midi": 40,
      "hit": false,
      "t": 202727.0699999999,
      "d": 28.409062499995343,
      "v": 127
    },
    {
      "midi": 50,
      "hit": false,
      "t": 202727.0699999999,
      "d": 28.409062499995343,
      "v": 127
    },
    {
      "midi": 55,
      "hit": false,
      "t": 202727.0699999999,
      "d": 28.409062499995343,
      "v": 127
    },
    {
      "midi": 40,
      "hit": false,
      "t": 202954.34249999988,
      "d": 28.409062499995343,
      "v": 127
    },
    {
      "midi": 50,
      "hit": false,
      "t": 202954.34249999988,
      "d": 28.409062499995343,
      "v": 127
    },
    {
      "midi": 55,
      "hit": false,
      "t": 202954.34249999988,
      "d": 28.409062499995343,
      "v": 127
    },
    {
      "midi": 50,
      "hit": false,
      "t": 203181.61499999987,
      "d": 454.5450000000128,
      "v": 127
    },
    {
      "midi": 55,
      "hit": false,
      "t": 203181.61499999987,
      "d": 454.5450000000128,
      "v": 127
    },
    {
      "midi": 62,
      "hit": false,
      "t": 203181.61499999987,
      "d": 454.5450000000128,
      "v": 127
    },
    {
      "midi": 40,
      "hit": false,
      "t": 203636.1599999999,
      "d": 28.409062499995343,
      "v": 127
    },
    {
      "midi": 50,
      "hit": false,
      "t": 203636.1599999999,
      "d": 28.409062499995343,
      "v": 127
    },
    {
      "midi": 55,
      "hit": false,
      "t": 203636.1599999999,
      "d": 28.409062499995343,
      "v": 127
    },
    {
      "midi": 40,
      "hit": false,
      "t": 203863.43249999988,
      "d": 28.409062499995343,
      "v": 127
    },
    {
      "midi": 50,
      "hit": false,
      "t": 203863.43249999988,
      "d": 28.409062499995343,
      "v": 127
    },
    {
      "midi": 55,
      "hit": false,
      "t": 203863.43249999988,
      "d": 28.409062499995343,
      "v": 127
    },
    {
      "midi": 48,
      "hit": false,
      "t": 204090.70499999987,
      "d": 454.5450000000128,
      "v": 127
    },
    {
      "midi": 55,
      "hit": false,
      "t": 204090.70499999987,
      "d": 454.5450000000128,
      "v": 127
    },
    {
      "midi": 60,
      "hit": false,
      "t": 204090.70499999987,
      "d": 454.5450000000128,
      "v": 127
    },
    {
      "midi": 40,
      "hit": false,
      "t": 204545.24999999988,
      "d": 28.409062499995343,
      "v": 127
    },
    {
      "midi": 50,
      "hit": false,
      "t": 204545.24999999988,
      "d": 28.409062499995343,
      "v": 127
    },
    {
      "midi": 55,
      "hit": false,
      "t": 204545.24999999988,
      "d": 28.409062499995343,
      "v": 127
    },
    {
      "midi": 40,
      "hit": false,
      "t": 204772.52249999988,
      "d": 28.409062499995343,
      "v": 127
    },
    {
      "midi": 50,
      "hit": false,
      "t": 204772.52249999988,
      "d": 28.409062499995343,
      "v": 127
    },
    {
      "midi": 55,
      "hit": false,
      "t": 204772.52249999988,
      "d": 28.409062499995343,
      "v": 127
    },
    {
      "midi": 42,
      "hit": false,
      "t": 204999.79499999987,
      "d": 681.8175000000047,
      "v": 127
    },
    {
      "midi": 50,
      "hit": false,
      "t": 204999.79499999987,
      "d": 681.8175000000047,
      "v": 127
    },
    {
      "midi": 55,
      "hit": false,
      "t": 205681.61249999987,
      "d": 227.27249999999185,
      "v": 127
    },
    {
      "midi": 59,
      "hit": false,
      "t": 205681.61249999987,
      "d": 227.27249999999185,
      "v": 127
    },
    {
      "midi": 64,
      "hit": false,
      "t": 205681.61249999987,
      "d": 227.27249999999185,
      "v": 127
    },
    {
      "midi": 42,
      "hit": false,
      "t": 205908.88499999986,
      "d": 227.27249999999185,
      "v": 127
    },
    {
      "midi": 42,
      "hit": false,
      "t": 206136.15749999986,
      "d": 227.27249999999185,
      "v": 127
    },
    {
      "midi": 42,
      "hit": false,
      "t": 206363.42999999985,
      "d": 227.27249999999185,
      "v": 127
    },
    {
      "midi": 43,
      "hit": false,
      "t": 206590.70249999984,
      "d": 227.27249999999185,
      "v": 95
    },
    {
      "midi": 42,
      "hit": false,
      "t": 206817.97499999983,
      "d": 454.5450000000128,
      "v": 127
    },
    {
      "midi": 45,
      "hit": false,
      "t": 207272.51999999984,
      "d": 909.0899999999965,
      "v": 127
    },
    {
      "midi": 52,
      "hit": false,
      "t": 207272.51999999984,
      "d": 909.0899999999965,
      "v": 127
    },
    {
      "midi": 57,
      "hit": false,
      "t": 207272.51999999984,
      "d": 909.0899999999965,
      "v": 127
    },
    {
      "midi": 61,
      "hit": false,
      "t": 207272.51999999984,
      "d": 909.0899999999965,
      "v": 127
    },
    {
      "midi": 64,
      "hit": false,
      "t": 207272.51999999984,
      "d": 909.0899999999965,
      "v": 127
    },
    {
      "midi": 45,
      "hit": false,
      "t": 208181.60999999984,
      "d": 454.5450000000128,
      "v": 127
    },
    {
      "midi": 52,
      "hit": false,
      "t": 208181.60999999984,
      "d": 454.5450000000128,
      "v": 127
    },
    {
      "midi": 57,
      "hit": false,
      "t": 208181.60999999984,
      "d": 454.5450000000128,
      "v": 127
    },
    {
      "midi": 61,
      "hit": false,
      "t": 208181.60999999984,
      "d": 454.5450000000128,
      "v": 127
    },
    {
      "midi": 64,
      "hit": false,
      "t": 208181.60999999984,
      "d": 454.5450000000128,
      "v": 127
    },
    {
      "midi": 45,
      "hit": false,
      "t": 208636.15499999985,
      "d": 454.5450000000128,
      "v": 127
    },
    {
      "midi": 52,
      "hit": false,
      "t": 208636.15499999985,
      "d": 454.5450000000128,
      "v": 127
    },
    {
      "midi": 57,
      "hit": false,
      "t": 208636.15499999985,
      "d": 454.5450000000128,
      "v": 127
    },
    {
      "midi": 61,
      "hit": false,
      "t": 208636.15499999985,
      "d": 454.5450000000128,
      "v": 127
    },
    {
      "midi": 64,
      "hit": false,
      "t": 208636.15499999985,
      "d": 454.5450000000128,
      "v": 127
    },
    {
      "midi": 45,
      "hit": false,
      "t": 209090.69999999987,
      "d": 909.0899999999965,
      "v": 127
    },
    {
      "midi": 52,
      "hit": false,
      "t": 209090.69999999987,
      "d": 909.0899999999965,
      "v": 127
    },
    {
      "midi": 57,
      "hit": false,
      "t": 209090.69999999987,
      "d": 909.0899999999965,
      "v": 127
    },
    {
      "midi": 61,
      "hit": false,
      "t": 209090.69999999987,
      "d": 909.0899999999965,
      "v": 127
    },
    {
      "midi": 64,
      "hit": false,
      "t": 209090.69999999987,
      "d": 909.0899999999965,
      "v": 127
    },
    {
      "midi": 45,
      "hit": false,
      "t": 209999.78999999986,
      "d": 454.5450000000128,
      "v": 127
    },
    {
      "midi": 52,
      "hit": false,
      "t": 209999.78999999986,
      "d": 454.5450000000128,
      "v": 127
    },
    {
      "midi": 57,
      "hit": false,
      "t": 209999.78999999986,
      "d": 454.5450000000128,
      "v": 127
    },
    {
      "midi": 61,
      "hit": false,
      "t": 209999.78999999986,
      "d": 454.5450000000128,
      "v": 127
    },
    {
      "midi": 64,
      "hit": false,
      "t": 209999.78999999986,
      "d": 454.5450000000128,
      "v": 127
    },
    {
      "midi": 45,
      "hit": false,
      "t": 210454.33499999988,
      "d": 227.27249999999185,
      "v": 127
    },
    {
      "midi": 52,
      "hit": false,
      "t": 210454.33499999988,
      "d": 227.27249999999185,
      "v": 127
    },
    {
      "midi": 57,
      "hit": false,
      "t": 210454.33499999988,
      "d": 227.27249999999185,
      "v": 127
    },
    {
      "midi": 61,
      "hit": false,
      "t": 210454.33499999988,
      "d": 227.27249999999185,
      "v": 127
    },
    {
      "midi": 64,
      "hit": false,
      "t": 210454.33499999988,
      "d": 227.27249999999185,
      "v": 127
    },
    {
      "midi": 45,
      "hit": false,
      "t": 210681.60749999987,
      "d": 227.27249999999185,
      "v": 127
    },
    {
      "midi": 52,
      "hit": false,
      "t": 210681.60749999987,
      "d": 227.27249999999185,
      "v": 127
    },
    {
      "midi": 57,
      "hit": false,
      "t": 210681.60749999987,
      "d": 227.27249999999185,
      "v": 127
    },
    {
      "midi": 61,
      "hit": false,
      "t": 210681.60749999987,
      "d": 227.27249999999185,
      "v": 127
    },
    {
      "midi": 64,
      "hit": false,
      "t": 210681.60749999987,
      "d": 227.27249999999185,
      "v": 127
    },
    {
      "midi": 40,
      "hit": false,
      "t": 210908.87999999986,
      "d": 909.0899999999965,
      "v": 127
    },
    {
      "midi": 47,
      "hit": false,
      "t": 210908.87999999986,
      "d": 909.0899999999965,
      "v": 127
    },
    {
      "midi": 52,
      "hit": false,
      "t": 210908.87999999986,
      "d": 909.0899999999965,
      "v": 127
    },
    {
      "midi": 55,
      "hit": false,
      "t": 210908.87999999986,
      "d": 909.0899999999965,
      "v": 127
    },
    {
      "midi": 59,
      "hit": false,
      "t": 210908.87999999986,
      "d": 909.0899999999965,
      "v": 127
    },
    {
      "midi": 64,
      "hit": false,
      "t": 210908.87999999986,
      "d": 909.0899999999965,
      "v": 127
    },
    {
      "midi": 40,
      "hit": false,
      "t": 211817.96999999986,
      "d": 454.5450000000128,
      "v": 127
    },
    {
      "midi": 47,
      "hit": false,
      "t": 211817.96999999986,
      "d": 454.5450000000128,
      "v": 127
    },
    {
      "midi": 52,
      "hit": false,
      "t": 211817.96999999986,
      "d": 454.5450000000128,
      "v": 127
    },
    {
      "midi": 55,
      "hit": false,
      "t": 211817.96999999986,
      "d": 454.5450000000128,
      "v": 127
    },
    {
      "midi": 59,
      "hit": false,
      "t": 211817.96999999986,
      "d": 454.5450000000128,
      "v": 127
    },
    {
      "midi": 64,
      "hit": false,
      "t": 211817.96999999986,
      "d": 454.5450000000128,
      "v": 127
    },
    {
      "midi": 40,
      "hit": false,
      "t": 212272.51499999987,
      "d": 454.5450000000128,
      "v": 127
    },
    {
      "midi": 47,
      "hit": false,
      "t": 212272.51499999987,
      "d": 454.5450000000128,
      "v": 127
    },
    {
      "midi": 52,
      "hit": false,
      "t": 212272.51499999987,
      "d": 454.5450000000128,
      "v": 127
    },
    {
      "midi": 55,
      "hit": false,
      "t": 212272.51499999987,
      "d": 454.5450000000128,
      "v": 127
    },
    {
      "midi": 59,
      "hit": false,
      "t": 212272.51499999987,
      "d": 454.5450000000128,
      "v": 127
    },
    {
      "midi": 64,
      "hit": false,
      "t": 212272.51499999987,
      "d": 454.5450000000128,
      "v": 127
    },
    {
      "midi": 40,
      "hit": false,
      "t": 212727.05999999988,
      "d": 909.0899999999965,
      "v": 127
    },
    {
      "midi": 47,
      "hit": false,
      "t": 212727.05999999988,
      "d": 909.0899999999965,
      "v": 127
    },
    {
      "midi": 52,
      "hit": false,
      "t": 212727.05999999988,
      "d": 909.0899999999965,
      "v": 127
    },
    {
      "midi": 55,
      "hit": false,
      "t": 212727.05999999988,
      "d": 909.0899999999965,
      "v": 127
    },
    {
      "midi": 59,
      "hit": false,
      "t": 212727.05999999988,
      "d": 909.0899999999965,
      "v": 127
    },
    {
      "midi": 64,
      "hit": false,
      "t": 212727.05999999988,
      "d": 909.0899999999965,
      "v": 127
    },
    {
      "midi": 40,
      "hit": false,
      "t": 213636.14999999988,
      "d": 454.5450000000128,
      "v": 127
    },
    {
      "midi": 47,
      "hit": false,
      "t": 213636.14999999988,
      "d": 454.5450000000128,
      "v": 127
    },
    {
      "midi": 52,
      "hit": false,
      "t": 213636.14999999988,
      "d": 454.5450000000128,
      "v": 127
    },
    {
      "midi": 55,
      "hit": false,
      "t": 213636.14999999988,
      "d": 454.5450000000128,
      "v": 127
    },
    {
      "midi": 59,
      "hit": false,
      "t": 213636.14999999988,
      "d": 454.5450000000128,
      "v": 127
    },
    {
      "midi": 64,
      "hit": false,
      "t": 213636.14999999988,
      "d": 454.5450000000128,
      "v": 127
    },
    {
      "midi": 40,
      "hit": false,
      "t": 214090.6949999999,
      "d": 227.27249999999185,
      "v": 127
    },
    {
      "midi": 45,
      "hit": false,
      "t": 214090.6949999999,
      "d": 227.27249999999185,
      "v": 127
    },
    {
      "midi": 52,
      "hit": false,
      "t": 214090.6949999999,
      "d": 227.27249999999185,
      "v": 127
    },
    {
      "midi": 57,
      "hit": false,
      "t": 214090.6949999999,
      "d": 227.27249999999185,
      "v": 127
    },
    {
      "midi": 61,
      "hit": false,
      "t": 214090.6949999999,
      "d": 227.27249999999185,
      "v": 127
    },
    {
      "midi": 64,
      "hit": false,
      "t": 214090.6949999999,
      "d": 227.27249999999185,
      "v": 127
    },
    {
      "midi": 40,
      "hit": false,
      "t": 214317.96749999988,
      "d": 227.27249999999185,
      "v": 127
    },
    {
      "midi": 45,
      "hit": false,
      "t": 214317.96749999988,
      "d": 227.27249999999185,
      "v": 127
    },
    {
      "midi": 52,
      "hit": false,
      "t": 214317.96749999988,
      "d": 227.27249999999185,
      "v": 127
    },
    {
      "midi": 57,
      "hit": false,
      "t": 214317.96749999988,
      "d": 227.27249999999185,
      "v": 127
    },
    {
      "midi": 61,
      "hit": false,
      "t": 214317.96749999988,
      "d": 227.27249999999185,
      "v": 127
    },
    {
      "midi": 64,
      "hit": false,
      "t": 214317.96749999988,
      "d": 227.27249999999185,
      "v": 127
    },
    {
      "midi": 45,
      "hit": false,
      "t": 214545.23999999987,
      "d": 909.0899999999965,
      "v": 127
    },
    {
      "midi": 52,
      "hit": false,
      "t": 214545.23999999987,
      "d": 909.0899999999965,
      "v": 127
    },
    {
      "midi": 57,
      "hit": false,
      "t": 214545.23999999987,
      "d": 909.0899999999965,
      "v": 127
    },
    {
      "midi": 61,
      "hit": false,
      "t": 214545.23999999987,
      "d": 909.0899999999965,
      "v": 127
    },
    {
      "midi": 64,
      "hit": false,
      "t": 214545.23999999987,
      "d": 909.0899999999965,
      "v": 127
    },
    {
      "midi": 45,
      "hit": false,
      "t": 215454.32999999987,
      "d": 454.5450000000128,
      "v": 127
    },
    {
      "midi": 52,
      "hit": false,
      "t": 215454.32999999987,
      "d": 454.5450000000128,
      "v": 127
    },
    {
      "midi": 57,
      "hit": false,
      "t": 215454.32999999987,
      "d": 454.5450000000128,
      "v": 127
    },
    {
      "midi": 61,
      "hit": false,
      "t": 215454.32999999987,
      "d": 454.5450000000128,
      "v": 127
    },
    {
      "midi": 64,
      "hit": false,
      "t": 215454.32999999987,
      "d": 454.5450000000128,
      "v": 127
    },
    {
      "midi": 45,
      "hit": false,
      "t": 215908.87499999988,
      "d": 454.5450000000128,
      "v": 127
    },
    {
      "midi": 52,
      "hit": false,
      "t": 215908.87499999988,
      "d": 454.5450000000128,
      "v": 127
    },
    {
      "midi": 57,
      "hit": false,
      "t": 215908.87499999988,
      "d": 454.5450000000128,
      "v": 127
    },
    {
      "midi": 61,
      "hit": false,
      "t": 215908.87499999988,
      "d": 454.5450000000128,
      "v": 127
    },
    {
      "midi": 64,
      "hit": false,
      "t": 215908.87499999988,
      "d": 454.5450000000128,
      "v": 127
    },
    {
      "midi": 45,
      "hit": false,
      "t": 216363.4199999999,
      "d": 909.0899999999965,
      "v": 127
    },
    {
      "midi": 52,
      "hit": false,
      "t": 216363.4199999999,
      "d": 909.0899999999965,
      "v": 127
    },
    {
      "midi": 57,
      "hit": false,
      "t": 216363.4199999999,
      "d": 909.0899999999965,
      "v": 127
    },
    {
      "midi": 61,
      "hit": false,
      "t": 216363.4199999999,
      "d": 909.0899999999965,
      "v": 127
    },
    {
      "midi": 64,
      "hit": false,
      "t": 216363.4199999999,
      "d": 909.0899999999965,
      "v": 127
    },
    {
      "midi": 45,
      "hit": false,
      "t": 217272.5099999999,
      "d": 454.5450000000128,
      "v": 127
    },
    {
      "midi": 52,
      "hit": false,
      "t": 217272.5099999999,
      "d": 454.5450000000128,
      "v": 127
    },
    {
      "midi": 57,
      "hit": false,
      "t": 217272.5099999999,
      "d": 454.5450000000128,
      "v": 127
    },
    {
      "midi": 61,
      "hit": false,
      "t": 217272.5099999999,
      "d": 454.5450000000128,
      "v": 127
    },
    {
      "midi": 64,
      "hit": false,
      "t": 217272.5099999999,
      "d": 454.5450000000128,
      "v": 127
    },
    {
      "midi": 45,
      "hit": false,
      "t": 217727.0549999999,
      "d": 227.27249999999185,
      "v": 127
    },
    {
      "midi": 52,
      "hit": false,
      "t": 217727.0549999999,
      "d": 227.27249999999185,
      "v": 127
    },
    {
      "midi": 57,
      "hit": false,
      "t": 217727.0549999999,
      "d": 227.27249999999185,
      "v": 127
    },
    {
      "midi": 61,
      "hit": false,
      "t": 217727.0549999999,
      "d": 227.27249999999185,
      "v": 127
    },
    {
      "midi": 64,
      "hit": false,
      "t": 217727.0549999999,
      "d": 227.27249999999185,
      "v": 127
    },
    {
      "midi": 45,
      "hit": false,
      "t": 217954.3274999999,
      "d": 227.27249999999185,
      "v": 127
    },
    {
      "midi": 52,
      "hit": false,
      "t": 217954.3274999999,
      "d": 227.27249999999185,
      "v": 127
    },
    {
      "midi": 57,
      "hit": false,
      "t": 217954.3274999999,
      "d": 227.27249999999185,
      "v": 127
    },
    {
      "midi": 61,
      "hit": false,
      "t": 217954.3274999999,
      "d": 227.27249999999185,
      "v": 127
    },
    {
      "midi": 64,
      "hit": false,
      "t": 217954.3274999999,
      "d": 227.27249999999185,
      "v": 127
    },
    {
      "midi": 40,
      "hit": false,
      "t": 218181.5999999999,
      "d": 909.0899999999965,
      "v": 127
    },
    {
      "midi": 47,
      "hit": false,
      "t": 218181.5999999999,
      "d": 909.0899999999965,
      "v": 127
    },
    {
      "midi": 52,
      "hit": false,
      "t": 218181.5999999999,
      "d": 909.0899999999965,
      "v": 127
    },
    {
      "midi": 55,
      "hit": false,
      "t": 218181.5999999999,
      "d": 909.0899999999965,
      "v": 127
    },
    {
      "midi": 59,
      "hit": false,
      "t": 218181.5999999999,
      "d": 909.0899999999965,
      "v": 127
    },
    {
      "midi": 64,
      "hit": false,
      "t": 218181.5999999999,
      "d": 909.0899999999965,
      "v": 127
    },
    {
      "midi": 40,
      "hit": false,
      "t": 219090.6899999999,
      "d": 454.5450000000128,
      "v": 127
    },
    {
      "midi": 47,
      "hit": false,
      "t": 219090.6899999999,
      "d": 454.5450000000128,
      "v": 127
    },
    {
      "midi": 52,
      "hit": false,
      "t": 219090.6899999999,
      "d": 454.5450000000128,
      "v": 127
    },
    {
      "midi": 55,
      "hit": false,
      "t": 219090.6899999999,
      "d": 454.5450000000128,
      "v": 127
    },
    {
      "midi": 59,
      "hit": false,
      "t": 219090.6899999999,
      "d": 454.5450000000128,
      "v": 127
    },
    {
      "midi": 64,
      "hit": false,
      "t": 219090.6899999999,
      "d": 454.5450000000128,
      "v": 127
    },
    {
      "midi": 40,
      "hit": false,
      "t": 219545.2349999999,
      "d": 454.5450000000128,
      "v": 127
    },
    {
      "midi": 47,
      "hit": false,
      "t": 219545.2349999999,
      "d": 454.5450000000128,
      "v": 127
    },
    {
      "midi": 52,
      "hit": false,
      "t": 219545.2349999999,
      "d": 454.5450000000128,
      "v": 127
    },
    {
      "midi": 55,
      "hit": false,
      "t": 219545.2349999999,
      "d": 454.5450000000128,
      "v": 127
    },
    {
      "midi": 59,
      "hit": false,
      "t": 219545.2349999999,
      "d": 454.5450000000128,
      "v": 127
    },
    {
      "midi": 64,
      "hit": false,
      "t": 219545.2349999999,
      "d": 454.5450000000128,
      "v": 127
    },
    {
      "midi": 40,
      "hit": false,
      "t": 219999.7799999999,
      "d": 909.0899999999965,
      "v": 127
    },
    {
      "midi": 47,
      "hit": false,
      "t": 219999.7799999999,
      "d": 909.0899999999965,
      "v": 127
    },
    {
      "midi": 52,
      "hit": false,
      "t": 219999.7799999999,
      "d": 909.0899999999965,
      "v": 127
    },
    {
      "midi": 55,
      "hit": false,
      "t": 219999.7799999999,
      "d": 909.0899999999965,
      "v": 127
    },
    {
      "midi": 59,
      "hit": false,
      "t": 219999.7799999999,
      "d": 909.0899999999965,
      "v": 127
    },
    {
      "midi": 64,
      "hit": false,
      "t": 219999.7799999999,
      "d": 909.0899999999965,
      "v": 127
    },
    {
      "midi": 40,
      "hit": false,
      "t": 220908.8699999999,
      "d": 454.5450000000128,
      "v": 127
    },
    {
      "midi": 47,
      "hit": false,
      "t": 220908.8699999999,
      "d": 454.5450000000128,
      "v": 127
    },
    {
      "midi": 52,
      "hit": false,
      "t": 220908.8699999999,
      "d": 454.5450000000128,
      "v": 127
    },
    {
      "midi": 55,
      "hit": false,
      "t": 220908.8699999999,
      "d": 454.5450000000128,
      "v": 127
    },
    {
      "midi": 59,
      "hit": false,
      "t": 220908.8699999999,
      "d": 454.5450000000128,
      "v": 127
    },
    {
      "midi": 64,
      "hit": false,
      "t": 220908.8699999999,
      "d": 454.5450000000128,
      "v": 127
    },
    {
      "midi": 40,
      "hit": false,
      "t": 221363.41499999992,
      "d": 227.27249999999185,
      "v": 127
    },
    {
      "midi": 45,
      "hit": false,
      "t": 221363.41499999992,
      "d": 227.27249999999185,
      "v": 127
    },
    {
      "midi": 52,
      "hit": false,
      "t": 221363.41499999992,
      "d": 227.27249999999185,
      "v": 127
    },
    {
      "midi": 57,
      "hit": false,
      "t": 221363.41499999992,
      "d": 227.27249999999185,
      "v": 127
    },
    {
      "midi": 61,
      "hit": false,
      "t": 221363.41499999992,
      "d": 227.27249999999185,
      "v": 127
    },
    {
      "midi": 64,
      "hit": false,
      "t": 221363.41499999992,
      "d": 227.27249999999185,
      "v": 127
    },
    {
      "midi": 40,
      "hit": false,
      "t": 221590.6874999999,
      "d": 227.27249999999185,
      "v": 127
    },
    {
      "midi": 45,
      "hit": false,
      "t": 221590.6874999999,
      "d": 227.27249999999185,
      "v": 127
    },
    {
      "midi": 52,
      "hit": false,
      "t": 221590.6874999999,
      "d": 227.27249999999185,
      "v": 127
    },
    {
      "midi": 57,
      "hit": false,
      "t": 221590.6874999999,
      "d": 227.27249999999185,
      "v": 127
    },
    {
      "midi": 61,
      "hit": false,
      "t": 221590.6874999999,
      "d": 227.27249999999185,
      "v": 127
    },
    {
      "midi": 64,
      "hit": false,
      "t": 221590.6874999999,
      "d": 227.27249999999185,
      "v": 127
    },
    {
      "midi": 45,
      "hit": false,
      "t": 221817.9599999999,
      "d": 909.0899999999965,
      "v": 127
    },
    {
      "midi": 52,
      "hit": false,
      "t": 221817.9599999999,
      "d": 909.0899999999965,
      "v": 127
    },
    {
      "midi": 57,
      "hit": false,
      "t": 221817.9599999999,
      "d": 909.0899999999965,
      "v": 127
    },
    {
      "midi": 61,
      "hit": false,
      "t": 221817.9599999999,
      "d": 909.0899999999965,
      "v": 127
    },
    {
      "midi": 64,
      "hit": false,
      "t": 221817.9599999999,
      "d": 909.0899999999965,
      "v": 127
    },
    {
      "midi": 45,
      "hit": false,
      "t": 222727.0499999999,
      "d": 454.5450000000128,
      "v": 127
    },
    {
      "midi": 52,
      "hit": false,
      "t": 222727.0499999999,
      "d": 454.5450000000128,
      "v": 127
    },
    {
      "midi": 57,
      "hit": false,
      "t": 222727.0499999999,
      "d": 454.5450000000128,
      "v": 127
    },
    {
      "midi": 61,
      "hit": false,
      "t": 222727.0499999999,
      "d": 454.5450000000128,
      "v": 127
    },
    {
      "midi": 64,
      "hit": false,
      "t": 222727.0499999999,
      "d": 454.5450000000128,
      "v": 127
    },
    {
      "midi": 45,
      "hit": false,
      "t": 223181.5949999999,
      "d": 454.5450000000128,
      "v": 127
    },
    {
      "midi": 52,
      "hit": false,
      "t": 223181.5949999999,
      "d": 454.5450000000128,
      "v": 127
    },
    {
      "midi": 57,
      "hit": false,
      "t": 223181.5949999999,
      "d": 454.5450000000128,
      "v": 127
    },
    {
      "midi": 61,
      "hit": false,
      "t": 223181.5949999999,
      "d": 454.5450000000128,
      "v": 127
    },
    {
      "midi": 64,
      "hit": false,
      "t": 223181.5949999999,
      "d": 454.5450000000128,
      "v": 127
    },
    {
      "midi": 45,
      "hit": false,
      "t": 223636.13999999993,
      "d": 909.0899999999965,
      "v": 127
    },
    {
      "midi": 52,
      "hit": false,
      "t": 223636.13999999993,
      "d": 909.0899999999965,
      "v": 127
    },
    {
      "midi": 57,
      "hit": false,
      "t": 223636.13999999993,
      "d": 909.0899999999965,
      "v": 127
    },
    {
      "midi": 61,
      "hit": false,
      "t": 223636.13999999993,
      "d": 909.0899999999965,
      "v": 127
    },
    {
      "midi": 64,
      "hit": false,
      "t": 223636.13999999993,
      "d": 909.0899999999965,
      "v": 127
    },
    {
      "midi": 45,
      "hit": false,
      "t": 224545.22999999992,
      "d": 454.5450000000128,
      "v": 127
    },
    {
      "midi": 52,
      "hit": false,
      "t": 224545.22999999992,
      "d": 454.5450000000128,
      "v": 127
    },
    {
      "midi": 57,
      "hit": false,
      "t": 224545.22999999992,
      "d": 454.5450000000128,
      "v": 127
    },
    {
      "midi": 61,
      "hit": false,
      "t": 224545.22999999992,
      "d": 454.5450000000128,
      "v": 127
    },
    {
      "midi": 64,
      "hit": false,
      "t": 224545.22999999992,
      "d": 454.5450000000128,
      "v": 127
    },
    {
      "midi": 45,
      "hit": false,
      "t": 224999.77499999994,
      "d": 227.27249999999185,
      "v": 127
    },
    {
      "midi": 52,
      "hit": false,
      "t": 224999.77499999994,
      "d": 227.27249999999185,
      "v": 127
    },
    {
      "midi": 57,
      "hit": false,
      "t": 224999.77499999994,
      "d": 227.27249999999185,
      "v": 127
    },
    {
      "midi": 61,
      "hit": false,
      "t": 224999.77499999994,
      "d": 227.27249999999185,
      "v": 127
    },
    {
      "midi": 64,
      "hit": false,
      "t": 224999.77499999994,
      "d": 227.27249999999185,
      "v": 127
    },
    {
      "midi": 45,
      "hit": false,
      "t": 225227.04749999993,
      "d": 227.27249999999185,
      "v": 127
    },
    {
      "midi": 52,
      "hit": false,
      "t": 225227.04749999993,
      "d": 227.27249999999185,
      "v": 127
    },
    {
      "midi": 57,
      "hit": false,
      "t": 225227.04749999993,
      "d": 227.27249999999185,
      "v": 127
    },
    {
      "midi": 61,
      "hit": false,
      "t": 225227.04749999993,
      "d": 227.27249999999185,
      "v": 127
    },
    {
      "midi": 64,
      "hit": false,
      "t": 225227.04749999993,
      "d": 227.27249999999185,
      "v": 127
    },
    {
      "midi": 40,
      "hit": false,
      "t": 225454.31999999992,
      "d": 909.0899999999965,
      "v": 127
    },
    {
      "midi": 47,
      "hit": false,
      "t": 225454.31999999992,
      "d": 909.0899999999965,
      "v": 127
    },
    {
      "midi": 52,
      "hit": false,
      "t": 225454.31999999992,
      "d": 909.0899999999965,
      "v": 127
    },
    {
      "midi": 55,
      "hit": false,
      "t": 225454.31999999992,
      "d": 909.0899999999965,
      "v": 127
    },
    {
      "midi": 59,
      "hit": false,
      "t": 225454.31999999992,
      "d": 909.0899999999965,
      "v": 127
    },
    {
      "midi": 64,
      "hit": false,
      "t": 225454.31999999992,
      "d": 909.0899999999965,
      "v": 127
    },
    {
      "midi": 40,
      "hit": false,
      "t": 226363.40999999992,
      "d": 454.5450000000128,
      "v": 127
    },
    {
      "midi": 47,
      "hit": false,
      "t": 226363.40999999992,
      "d": 454.5450000000128,
      "v": 127
    },
    {
      "midi": 52,
      "hit": false,
      "t": 226363.40999999992,
      "d": 454.5450000000128,
      "v": 127
    },
    {
      "midi": 55,
      "hit": false,
      "t": 226363.40999999992,
      "d": 454.5450000000128,
      "v": 127
    },
    {
      "midi": 59,
      "hit": false,
      "t": 226363.40999999992,
      "d": 454.5450000000128,
      "v": 127
    },
    {
      "midi": 64,
      "hit": false,
      "t": 226363.40999999992,
      "d": 454.5450000000128,
      "v": 127
    },
    {
      "midi": 40,
      "hit": false,
      "t": 226817.95499999993,
      "d": 454.5450000000128,
      "v": 127
    },
    {
      "midi": 47,
      "hit": false,
      "t": 226817.95499999993,
      "d": 454.5450000000128,
      "v": 127
    },
    {
      "midi": 52,
      "hit": false,
      "t": 226817.95499999993,
      "d": 454.5450000000128,
      "v": 127
    },
    {
      "midi": 55,
      "hit": false,
      "t": 226817.95499999993,
      "d": 454.5450000000128,
      "v": 127
    },
    {
      "midi": 59,
      "hit": false,
      "t": 226817.95499999993,
      "d": 454.5450000000128,
      "v": 127
    },
    {
      "midi": 64,
      "hit": false,
      "t": 226817.95499999993,
      "d": 454.5450000000128,
      "v": 127
    },
    {
      "midi": 40,
      "hit": false,
      "t": 227272.49999999994,
      "d": 909.0899999999965,
      "v": 127
    },
    {
      "midi": 47,
      "hit": false,
      "t": 227272.49999999994,
      "d": 909.0899999999965,
      "v": 127
    },
    {
      "midi": 52,
      "hit": false,
      "t": 227272.49999999994,
      "d": 909.0899999999965,
      "v": 127
    },
    {
      "midi": 55,
      "hit": false,
      "t": 227272.49999999994,
      "d": 909.0899999999965,
      "v": 127
    },
    {
      "midi": 59,
      "hit": false,
      "t": 227272.49999999994,
      "d": 909.0899999999965,
      "v": 127
    },
    {
      "midi": 64,
      "hit": false,
      "t": 227272.49999999994,
      "d": 909.0899999999965,
      "v": 127
    },
    {
      "midi": 40,
      "hit": false,
      "t": 228181.58999999994,
      "d": 454.5450000000128,
      "v": 127
    },
    {
      "midi": 47,
      "hit": false,
      "t": 228181.58999999994,
      "d": 454.5450000000128,
      "v": 127
    },
    {
      "midi": 52,
      "hit": false,
      "t": 228181.58999999994,
      "d": 454.5450000000128,
      "v": 127
    },
    {
      "midi": 55,
      "hit": false,
      "t": 228181.58999999994,
      "d": 454.5450000000128,
      "v": 127
    },
    {
      "midi": 59,
      "hit": false,
      "t": 228181.58999999994,
      "d": 454.5450000000128,
      "v": 127
    },
    {
      "midi": 64,
      "hit": false,
      "t": 228181.58999999994,
      "d": 454.5450000000128,
      "v": 127
    },
    {
      "midi": 40,
      "hit": false,
      "t": 228636.13499999995,
      "d": 227.27249999999185,
      "v": 127
    },
    {
      "midi": 45,
      "hit": false,
      "t": 228636.13499999995,
      "d": 227.27249999999185,
      "v": 127
    },
    {
      "midi": 52,
      "hit": false,
      "t": 228636.13499999995,
      "d": 227.27249999999185,
      "v": 127
    },
    {
      "midi": 57,
      "hit": false,
      "t": 228636.13499999995,
      "d": 227.27249999999185,
      "v": 127
    },
    {
      "midi": 61,
      "hit": false,
      "t": 228636.13499999995,
      "d": 227.27249999999185,
      "v": 127
    },
    {
      "midi": 64,
      "hit": false,
      "t": 228636.13499999995,
      "d": 227.27249999999185,
      "v": 127
    },
    {
      "midi": 40,
      "hit": false,
      "t": 228863.40749999994,
      "d": 227.27249999999185,
      "v": 127
    },
    {
      "midi": 45,
      "hit": false,
      "t": 228863.40749999994,
      "d": 227.27249999999185,
      "v": 127
    },
    {
      "midi": 52,
      "hit": false,
      "t": 228863.40749999994,
      "d": 227.27249999999185,
      "v": 127
    },
    {
      "midi": 57,
      "hit": false,
      "t": 228863.40749999994,
      "d": 227.27249999999185,
      "v": 127
    },
    {
      "midi": 61,
      "hit": false,
      "t": 228863.40749999994,
      "d": 227.27249999999185,
      "v": 127
    },
    {
      "midi": 64,
      "hit": false,
      "t": 228863.40749999994,
      "d": 227.27249999999185,
      "v": 127
    },
    {
      "midi": 48,
      "hit": false,
      "t": 229090.67999999993,
      "d": 454.5450000000128,
      "v": 127
    },
    {
      "midi": 52,
      "hit": false,
      "t": 229090.67999999993,
      "d": 454.5450000000128,
      "v": 127
    },
    {
      "midi": 52,
      "hit": false,
      "t": 229545.22499999995,
      "d": 454.5450000000128,
      "v": 127
    },
    {
      "midi": 58,
      "hit": false,
      "t": 229545.22499999995,
      "d": 454.5450000000128,
      "v": 127
    },
    {
      "midi": 58,
      "hit": false,
      "t": 229999.76999999996,
      "d": 454.5450000000128,
      "v": 127
    },
    {
      "midi": 60,
      "hit": false,
      "t": 229999.76999999996,
      "d": 454.5450000000128,
      "v": 127
    },
    {
      "midi": 58,
      "hit": false,
      "t": 230454.31499999997,
      "d": 454.5450000000128,
      "v": 127
    },
    {
      "midi": 60,
      "hit": false,
      "t": 230454.31499999997,
      "d": 454.5450000000128,
      "v": 127
    },
    {
      "midi": 47,
      "hit": false,
      "t": 230908.86,
      "d": 3636.359999999986,
      "v": 127
    },
    {
      "midi": 51,
      "hit": false,
      "t": 230908.86,
      "d": 3636.359999999986,
      "v": 127
    },
    {
      "midi": 57,
      "hit": false,
      "t": 230908.86,
      "d": 3636.359999999986,
      "v": 127
    },
    {
      "midi": 59,
      "hit": false,
      "t": 230908.86,
      "d": 3636.359999999986,
      "v": 127
    }
  ]
}