{
  "jsonPath": "Unknown/Unknown/Max Martine/show-me-the-meaning-of-being-lonely.json",
  "path": "Unknown\\Unknown\\Max Martine\\Show Me the Meaning of Being lonely.mid",
  "name": "Show Me the Meaning of Being lonely",
  "difficulty": "Advanced",
  "bpm": 84.000084000084,
  "notes": [
    {
      "midi": 55,
      "hit": false,
      "t": 0,
      "d": 2857.14,
      "v": 100
    },
    {
      "midi": 58,
      "hit": false,
      "t": 0,
      "d": 2857.14,
      "v": 100
    },
    {
      "midi": 62,
      "hit": false,
      "t": 0,
      "d": 2857.14,
      "v": 100
    },
    {
      "midi": 70,
      "hit": false,
      "t": 357.1425,
      "d": 357.1425,
      "v": 100
    },
    {
      "midi": 74,
      "hit": false,
      "t": 357.1425,
      "d": 357.1425,
      "v": 100
    },
    {
      "midi": 70,
      "hit": false,
      "t": 714.285,
      "d": 357.14250000000004,
      "v": 100
    },
    {
      "midi": 74,
      "hit": false,
      "t": 714.285,
      "d": 357.14250000000004,
      "v": 100
    },
    {
      "midi": 70,
      "hit": false,
      "t": 1071.4275,
      "d": 357.1424999999999,
      "v": 100
    },
    {
      "midi": 74,
      "hit": false,
      "t": 1071.4275,
      "d": 357.1424999999999,
      "v": 100
    },
    {
      "midi": 70,
      "hit": false,
      "t": 1428.57,
      "d": 357.1424999999999,
      "v": 100
    },
    {
      "midi": 74,
      "hit": false,
      "t": 1428.57,
      "d": 357.1424999999999,
      "v": 100
    },
    {
      "midi": 70,
      "hit": false,
      "t": 1785.7124999999999,
      "d": 714.2850000000001,
      "v": 100
    },
    {
      "midi": 74,
      "hit": false,
      "t": 1785.7124999999999,
      "d": 714.2850000000001,
      "v": 100
    },
    {
      "midi": 70,
      "hit": false,
      "t": 2499.9975,
      "d": 357.1424999999999,
      "v": 100
    },
    {
      "midi": 74,
      "hit": false,
      "t": 2499.9975,
      "d": 357.1424999999999,
      "v": 100
    },
    {
      "midi": 75,
      "hit": false,
      "t": 2857.14,
      "d": 714.2849999999999,
      "v": 100
    },
    {
      "midi": 67,
      "hit": false,
      "t": 2857.14,
      "d": 1071.4275000000002,
      "v": 100
    },
    {
      "midi": 70,
      "hit": false,
      "t": 2857.14,
      "d": 1071.4275000000002,
      "v": 100
    },
    {
      "midi": 51,
      "hit": false,
      "t": 2857.14,
      "d": 1071.4275000000002,
      "v": 100
    },
    {
      "midi": 55,
      "hit": false,
      "t": 2857.14,
      "d": 1071.4275000000002,
      "v": 100
    },
    {
      "midi": 58,
      "hit": false,
      "t": 2857.14,
      "d": 1071.4275000000002,
      "v": 100
    },
    {
      "midi": 72,
      "hit": false,
      "t": 3571.4249999999997,
      "d": 357.1424999999999,
      "v": 100
    },
    {
      "midi": 70,
      "hit": false,
      "t": 3928.5674999999997,
      "d": 1071.4275000000002,
      "v": 100
    },
    {
      "midi": 65,
      "hit": false,
      "t": 3928.5675,
      "d": 1785.7124999999996,
      "v": 100
    },
    {
      "midi": 53,
      "hit": false,
      "t": 3928.5675,
      "d": 1785.7124999999996,
      "v": 100
    },
    {
      "midi": 57,
      "hit": false,
      "t": 3928.5675,
      "d": 1785.7124999999996,
      "v": 100
    },
    {
      "midi": 60,
      "hit": false,
      "t": 3928.5675,
      "d": 1785.7124999999996,
      "v": 100
    },
    {
      "midi": 69,
      "hit": false,
      "t": 4999.995,
      "d": 357.1424999999999,
      "v": 100
    },
    {
      "midi": 67,
      "hit": false,
      "t": 5357.1375,
      "d": 178.57124999999996,
      "v": 100
    },
    {
      "midi": 69,
      "hit": false,
      "t": 5535.70875,
      "d": 178.57124999999996,
      "v": 100
    },
    {
      "midi": 70,
      "hit": false,
      "t": 5714.28,
      "d": 2142.8550000000005,
      "v": 100
    },
    {
      "midi": 43,
      "hit": false,
      "t": 5714.28,
      "d": 357.1424999999999,
      "v": 100
    },
    {
      "midi": 50,
      "hit": false,
      "t": 6071.4225,
      "d": 357.1424999999999,
      "v": 100
    },
    {
      "midi": 55,
      "hit": false,
      "t": 6428.565,
      "d": 357.1424999999999,
      "v": 100
    },
    {
      "midi": 58,
      "hit": false,
      "t": 6785.7074999999995,
      "d": 1785.7125000000005,
      "v": 100
    },
    {
      "midi": 67,
      "hit": false,
      "t": 7857.135,
      "d": 357.1424999999999,
      "v": 100
    },
    {
      "midi": 69,
      "hit": false,
      "t": 8214.2775,
      "d": 357.1424999999999,
      "v": 100
    },
    {
      "midi": 70,
      "hit": false,
      "t": 8571.42,
      "d": 714.2849999999999,
      "v": 100
    },
    {
      "midi": 51,
      "hit": false,
      "t": 8571.42,
      "d": 357.1424999999999,
      "v": 100
    },
    {
      "midi": 55,
      "hit": false,
      "t": 8928.5625,
      "d": 357.1424999999999,
      "v": 100
    },
    {
      "midi": 74,
      "hit": false,
      "t": 9285.705,
      "d": 357.1424999999999,
      "v": 100
    },
    {
      "midi": 58,
      "hit": false,
      "t": 9285.705,
      "d": 357.1424999999999,
      "v": 100
    },
    {
      "midi": 72,
      "hit": false,
      "t": 9642.8475,
      "d": 714.2849999999999,
      "v": 100
    },
    {
      "midi": 53,
      "hit": false,
      "t": 9642.8475,
      "d": 714.2849999999999,
      "v": 100
    },
    {
      "midi": 70,
      "hit": false,
      "t": 10357.1325,
      "d": 357.1424999999999,
      "v": 100
    },
    {
      "midi": 57,
      "hit": false,
      "t": 10357.1325,
      "d": 357.1424999999999,
      "v": 100
    },
    {
      "midi": 69,
      "hit": false,
      "t": 10714.275,
      "d": 357.1424999999999,
      "v": 100
    },
    {
      "midi": 60,
      "hit": false,
      "t": 10714.275,
      "d": 714.2849999999999,
      "v": 100
    },
    {
      "midi": 67,
      "hit": false,
      "t": 11071.4175,
      "d": 714.2849999999999,
      "v": 100
    },
    {
      "midi": 43,
      "hit": false,
      "t": 11428.56,
      "d": 357.1424999999999,
      "v": 100
    },
    {
      "midi": 70,
      "hit": false,
      "t": 11785.7025,
      "d": 357.1424999999999,
      "v": 100
    },
    {
      "midi": 50,
      "hit": false,
      "t": 11785.7025,
      "d": 357.1424999999999,
      "v": 100
    },
    {
      "midi": 70,
      "hit": false,
      "t": 12142.845,
      "d": 357.1424999999999,
      "v": 100
    },
    {
      "midi": 55,
      "hit": false,
      "t": 12142.845,
      "d": 357.1424999999999,
      "v": 100
    },
    {
      "midi": 70,
      "hit": false,
      "t": 12499.9875,
      "d": 357.1424999999999,
      "v": 100
    },
    {
      "midi": 58,
      "hit": false,
      "t": 12499.9875,
      "d": 1785.7124999999996,
      "v": 100
    },
    {
      "midi": 70,
      "hit": false,
      "t": 12857.13,
      "d": 1071.4274999999998,
      "v": 100
    },
    {
      "midi": 67,
      "hit": false,
      "t": 13928.557499999999,
      "d": 178.57125000000087,
      "v": 100
    },
    {
      "midi": 69,
      "hit": false,
      "t": 14107.12875,
      "d": 178.57125000000087,
      "v": 100
    },
    {
      "midi": 51,
      "hit": false,
      "t": 14285.699999999999,
      "d": 357.1424999999999,
      "v": 100
    },
    {
      "midi": 70,
      "hit": false,
      "t": 14285.7,
      "d": 714.2849999999999,
      "v": 100
    },
    {
      "midi": 55,
      "hit": false,
      "t": 14642.842499999999,
      "d": 357.1424999999999,
      "v": 100
    },
    {
      "midi": 58,
      "hit": false,
      "t": 14999.984999999999,
      "d": 357.1424999999999,
      "v": 100
    },
    {
      "midi": 72,
      "hit": false,
      "t": 14999.985,
      "d": 357.1424999999999,
      "v": 100
    },
    {
      "midi": 53,
      "hit": false,
      "t": 15357.127499999999,
      "d": 714.2849999999999,
      "v": 100
    },
    {
      "midi": 69,
      "hit": false,
      "t": 15357.1275,
      "d": 1785.7124999999996,
      "v": 100
    },
    {
      "midi": 57,
      "hit": false,
      "t": 16071.412499999999,
      "d": 357.14250000000175,
      "v": 100
    },
    {
      "midi": 60,
      "hit": false,
      "t": 16428.555,
      "d": 714.2849999999999,
      "v": 100
    },
    {
      "midi": 43,
      "hit": false,
      "t": 17142.84,
      "d": 357.14250000000175,
      "v": 100
    },
    {
      "midi": 70,
      "hit": false,
      "t": 17499.982500000002,
      "d": 357.14250000000175,
      "v": 100
    },
    {
      "midi": 50,
      "hit": false,
      "t": 17499.982500000002,
      "d": 357.14250000000175,
      "v": 100
    },
    {
      "midi": 70,
      "hit": false,
      "t": 17857.125000000004,
      "d": 357.14250000000175,
      "v": 100
    },
    {
      "midi": 55,
      "hit": false,
      "t": 17857.125000000004,
      "d": 357.14250000000175,
      "v": 100
    },
    {
      "midi": 67,
      "hit": false,
      "t": 18214.267500000005,
      "d": 357.14250000000175,
      "v": 100
    },
    {
      "midi": 58,
      "hit": false,
      "t": 18214.267500000005,
      "d": 1785.7125000000015,
      "v": 100
    },
    {
      "midi": 70,
      "hit": false,
      "t": 18571.410000000007,
      "d": 1071.4275000000016,
      "v": 100
    },
    {
      "midi": 67,
      "hit": false,
      "t": 19642.83750000001,
      "d": 178.57125000000087,
      "v": 100
    },
    {
      "midi": 69,
      "hit": false,
      "t": 19821.40875000001,
      "d": 178.57125000000087,
      "v": 100
    },
    {
      "midi": 51,
      "hit": false,
      "t": 19999.980000000007,
      "d": 357.14250000000175,
      "v": 100
    },
    {
      "midi": 70,
      "hit": false,
      "t": 19999.98000000001,
      "d": 714.2849999999999,
      "v": 100
    },
    {
      "midi": 55,
      "hit": false,
      "t": 20357.12250000001,
      "d": 357.14250000000175,
      "v": 100
    },
    {
      "midi": 72,
      "hit": false,
      "t": 20714.26500000001,
      "d": 357.14250000000175,
      "v": 100
    },
    {
      "midi": 58,
      "hit": false,
      "t": 20714.26500000001,
      "d": 357.14250000000175,
      "v": 100
    },
    {
      "midi": 69,
      "hit": false,
      "t": 21071.407500000012,
      "d": 1428.5699999999997,
      "v": 100
    },
    {
      "midi": 53,
      "hit": false,
      "t": 21071.407500000012,
      "d": 714.2849999999999,
      "v": 100
    },
    {
      "midi": 57,
      "hit": false,
      "t": 21785.692500000012,
      "d": 357.14250000000175,
      "v": 100
    },
    {
      "midi": 60,
      "hit": false,
      "t": 22142.835000000014,
      "d": 714.2849999999999,
      "v": 100
    },
    {
      "midi": 65,
      "hit": false,
      "t": 22499.97750000001,
      "d": 357.14250000000175,
      "v": 100
    },
    {
      "midi": 69,
      "hit": false,
      "t": 22857.120000000014,
      "d": 714.2849999999999,
      "v": 100
    },
    {
      "midi": 53,
      "hit": false,
      "t": 22857.120000000014,
      "d": 357.14250000000175,
      "v": 100
    },
    {
      "midi": 57,
      "hit": false,
      "t": 23214.262500000015,
      "d": 357.14250000000175,
      "v": 100
    },
    {
      "midi": 70,
      "hit": false,
      "t": 23571.405000000013,
      "d": 357.14250000000175,
      "v": 100
    },
    {
      "midi": 60,
      "hit": false,
      "t": 23571.405000000017,
      "d": 357.14250000000175,
      "v": 100
    },
    {
      "midi": 67,
      "hit": false,
      "t": 23928.547500000015,
      "d": 1785.7125000000015,
      "v": 100
    },
    {
      "midi": 51,
      "hit": false,
      "t": 23928.54750000002,
      "d": 714.2849999999999,
      "v": 100
    },
    {
      "midi": 55,
      "hit": false,
      "t": 24642.83250000002,
      "d": 357.14250000000175,
      "v": 100
    },
    {
      "midi": 58,
      "hit": false,
      "t": 24999.97500000002,
      "d": 714.2849999999999,
      "v": 100
    },
    {
      "midi": 67,
      "hit": false,
      "t": 25714.260000000017,
      "d": 714.2849999999999,
      "v": 100
    },
    {
      "midi": 50,
      "hit": false,
      "t": 25714.26000000002,
      "d": 357.14250000000175,
      "v": 100
    },
    {
      "midi": 57,
      "hit": false,
      "t": 26071.402500000022,
      "d": 357.14250000000175,
      "v": 100
    },
    {
      "midi": 69,
      "hit": false,
      "t": 26428.545000000016,
      "d": 357.14250000000175,
      "v": 100
    },
    {
      "midi": 60,
      "hit": false,
      "t": 26428.545000000024,
      "d": 1071.4275000000016,
      "v": 100
    },
    {
      "midi": 66,
      "hit": false,
      "t": 26785.68750000002,
      "d": 714.2849999999999,
      "v": 100
    },
    {
      "midi": 67,
      "hit": false,
      "t": 27499.972500000018,
      "d": 357.14250000000175,
      "v": 100
    },
    {
      "midi": 57,
      "hit": false,
      "t": 27499.972500000025,
      "d": 357.14250000000175,
      "v": 100
    },
    {
      "midi": 69,
      "hit": false,
      "t": 27857.11500000002,
      "d": 357.14250000000175,
      "v": 100
    },
    {
      "midi": 60,
      "hit": false,
      "t": 27857.115000000027,
      "d": 714.2849999999999,
      "v": 100
    },
    {
      "midi": 67,
      "hit": false,
      "t": 28214.25750000002,
      "d": 714.2849999999999,
      "v": 100
    },
    {
      "midi": 43,
      "hit": false,
      "t": 28571.400000000027,
      "d": 357.14250000000175,
      "v": 100
    },
    {
      "midi": 70,
      "hit": false,
      "t": 28928.54250000002,
      "d": 714.2849999999999,
      "v": 100
    },
    {
      "midi": 50,
      "hit": false,
      "t": 28928.54250000003,
      "d": 357.14250000000175,
      "v": 100
    },
    {
      "midi": 55,
      "hit": false,
      "t": 29285.68500000003,
      "d": 357.14250000000175,
      "v": 100
    },
    {
      "midi": 67,
      "hit": false,
      "t": 29642.82750000002,
      "d": 357.14250000000175,
      "v": 100
    },
    {
      "midi": 58,
      "hit": false,
      "t": 29642.827500000032,
      "d": 1785.7125000000015,
      "v": 100
    },
    {
      "midi": 70,
      "hit": false,
      "t": 29999.970000000023,
      "d": 1071.4275000000016,
      "v": 100
    },
    {
      "midi": 67,
      "hit": false,
      "t": 31071.397500000025,
      "d": 357.14250000000175,
      "v": 100
    },
    {
      "midi": 70,
      "hit": false,
      "t": 31428.540000000026,
      "d": 714.2849999999999,
      "v": 100
    },
    {
      "midi": 51,
      "hit": false,
      "t": 31428.540000000034,
      "d": 357.14250000000175,
      "v": 100
    },
    {
      "midi": 55,
      "hit": false,
      "t": 31785.682500000035,
      "d": 357.14250000000175,
      "v": 100
    },
    {
      "midi": 72,
      "hit": false,
      "t": 32142.825000000026,
      "d": 357.14250000000175,
      "v": 100
    },
    {
      "midi": 58,
      "hit": false,
      "t": 32142.825000000037,
      "d": 357.14250000000175,
      "v": 100
    },
    {
      "midi": 69,
      "hit": false,
      "t": 32499.967500000028,
      "d": 1785.7125000000015,
      "v": 100
    },
    {
      "midi": 53,
      "hit": false,
      "t": 32499.96750000004,
      "d": 714.2849999999999,
      "v": 100
    },
    {
      "midi": 57,
      "hit": false,
      "t": 33214.25250000004,
      "d": 357.14250000000175,
      "v": 100
    },
    {
      "midi": 60,
      "hit": false,
      "t": 33571.39500000004,
      "d": 714.2850000000035,
      "v": 100
    },
    {
      "midi": 43,
      "hit": false,
      "t": 34285.680000000044,
      "d": 357.14250000000175,
      "v": 100
    },
    {
      "midi": 70,
      "hit": false,
      "t": 34642.82250000003,
      "d": 714.2850000000035,
      "v": 100
    },
    {
      "midi": 50,
      "hit": false,
      "t": 34642.822500000046,
      "d": 357.14250000000175,
      "v": 100
    },
    {
      "midi": 55,
      "hit": false,
      "t": 34999.96500000005,
      "d": 357.14250000000175,
      "v": 100
    },
    {
      "midi": 67,
      "hit": false,
      "t": 35357.107500000035,
      "d": 357.14250000000175,
      "v": 100
    },
    {
      "midi": 58,
      "hit": false,
      "t": 35357.10750000005,
      "d": 1785.7125000000015,
      "v": 100
    },
    {
      "midi": 70,
      "hit": false,
      "t": 35714.25000000004,
      "d": 1071.427499999998,
      "v": 100
    },
    {
      "midi": 67,
      "hit": false,
      "t": 36785.677500000034,
      "d": 178.57125000000087,
      "v": 100
    },
    {
      "midi": 69,
      "hit": false,
      "t": 36964.248750000035,
      "d": 178.57125000000087,
      "v": 100
    },
    {
      "midi": 70,
      "hit": false,
      "t": 37142.820000000036,
      "d": 714.2850000000035,
      "v": 100
    },
    {
      "midi": 51,
      "hit": false,
      "t": 37142.82000000005,
      "d": 357.14250000000175,
      "v": 100
    },
    {
      "midi": 55,
      "hit": false,
      "t": 37499.96250000005,
      "d": 357.14250000000175,
      "v": 100
    },
    {
      "midi": 72,
      "hit": false,
      "t": 37857.10500000004,
      "d": 357.14250000000175,
      "v": 100
    },
    {
      "midi": 58,
      "hit": false,
      "t": 37857.105000000054,
      "d": 357.14250000000175,
      "v": 100
    },
    {
      "midi": 69,
      "hit": false,
      "t": 38214.24750000004,
      "d": 1428.5699999999997,
      "v": 100
    },
    {
      "midi": 53,
      "hit": false,
      "t": 38214.247500000056,
      "d": 714.2850000000035,
      "v": 100
    },
    {
      "midi": 57,
      "hit": false,
      "t": 38928.53250000006,
      "d": 357.14250000000175,
      "v": 100
    },
    {
      "midi": 60,
      "hit": false,
      "t": 39285.67500000006,
      "d": 714.2850000000035,
      "v": 100
    },
    {
      "midi": 65,
      "hit": false,
      "t": 39642.81750000004,
      "d": 357.14250000000175,
      "v": 100
    },
    {
      "midi": 69,
      "hit": false,
      "t": 39999.96000000004,
      "d": 714.2850000000035,
      "v": 100
    },
    {
      "midi": 53,
      "hit": false,
      "t": 39999.960000000065,
      "d": 357.14250000000175,
      "v": 100
    },
    {
      "midi": 57,
      "hit": false,
      "t": 40357.102500000066,
      "d": 357.14250000000175,
      "v": 100
    },
    {
      "midi": 70,
      "hit": false,
      "t": 40714.245000000046,
      "d": 357.14250000000175,
      "v": 100
    },
    {
      "midi": 60,
      "hit": false,
      "t": 40714.24500000007,
      "d": 357.14250000000175,
      "v": 100
    },
    {
      "midi": 67,
      "hit": false,
      "t": 41071.38750000005,
      "d": 1785.7125000000015,
      "v": 100
    },
    {
      "midi": 51,
      "hit": false,
      "t": 41071.38750000007,
      "d": 714.2850000000035,
      "v": 100
    },
    {
      "midi": 55,
      "hit": false,
      "t": 41785.67250000007,
      "d": 357.14250000000175,
      "v": 100
    },
    {
      "midi": 58,
      "hit": false,
      "t": 42142.815000000075,
      "d": 714.2850000000035,
      "v": 100
    },
    {
      "midi": 67,
      "hit": false,
      "t": 42857.10000000005,
      "d": 714.2850000000035,
      "v": 100
    },
    {
      "midi": 50,
      "hit": false,
      "t": 42857.10000000008,
      "d": 357.14250000000175,
      "v": 100
    },
    {
      "midi": 57,
      "hit": false,
      "t": 43214.24250000008,
      "d": 357.14250000000175,
      "v": 100
    },
    {
      "midi": 69,
      "hit": false,
      "t": 43571.38500000005,
      "d": 357.14250000000175,
      "v": 100
    },
    {
      "midi": 60,
      "hit": false,
      "t": 43571.38500000008,
      "d": 1071.427499999998,
      "v": 100
    },
    {
      "midi": 66,
      "hit": false,
      "t": 43928.527500000055,
      "d": 714.2850000000035,
      "v": 100
    },
    {
      "midi": 67,
      "hit": false,
      "t": 44642.81250000006,
      "d": 357.14250000000175,
      "v": 100
    },
    {
      "midi": 57,
      "hit": false,
      "t": 44642.81250000008,
      "d": 357.14250000000175,
      "v": 100
    },
    {
      "midi": 69,
      "hit": false,
      "t": 44999.95500000006,
      "d": 357.14250000000175,
      "v": 100
    },
    {
      "midi": 50,
      "hit": false,
      "t": 44999.95500000008,
      "d": 714.2850000000035,
      "v": 100
    },
    {
      "midi": 67,
      "hit": false,
      "t": 45357.09750000006,
      "d": 357.14250000000175,
      "v": 100
    },
    {
      "midi": 43,
      "hit": false,
      "t": 45714.240000000085,
      "d": 357.14250000000175,
      "v": 100
    },
    {
      "midi": 70,
      "hit": false,
      "t": 46071.382500000065,
      "d": 357.14250000000175,
      "v": 100
    },
    {
      "midi": 74,
      "hit": false,
      "t": 46071.382500000065,
      "d": 357.14250000000175,
      "v": 100
    },
    {
      "midi": 50,
      "hit": false,
      "t": 46071.38250000009,
      "d": 357.14250000000175,
      "v": 100
    },
    {
      "midi": 70,
      "hit": false,
      "t": 46428.52500000007,
      "d": 357.14250000000175,
      "v": 100
    },
    {
      "midi": 74,
      "hit": false,
      "t": 46428.52500000007,
      "d": 357.14250000000175,
      "v": 100
    },
    {
      "midi": 55,
      "hit": false,
      "t": 46428.52500000009,
      "d": 357.14250000000175,
      "v": 100
    },
    {
      "midi": 70,
      "hit": false,
      "t": 46785.66750000007,
      "d": 357.14250000000175,
      "v": 100
    },
    {
      "midi": 74,
      "hit": false,
      "t": 46785.66750000007,
      "d": 357.14250000000175,
      "v": 100
    },
    {
      "midi": 50,
      "hit": false,
      "t": 46785.66750000009,
      "d": 357.14250000000175,
      "v": 100
    },
    {
      "midi": 70,
      "hit": false,
      "t": 47142.81000000007,
      "d": 357.14250000000175,
      "v": 100
    },
    {
      "midi": 74,
      "hit": false,
      "t": 47142.81000000007,
      "d": 357.14250000000175,
      "v": 100
    },
    {
      "midi": 58,
      "hit": false,
      "t": 47142.81000000009,
      "d": 357.14250000000175,
      "v": 100
    },
    {
      "midi": 70,
      "hit": false,
      "t": 47499.95250000007,
      "d": 714.2850000000035,
      "v": 100
    },
    {
      "midi": 74,
      "hit": false,
      "t": 47499.95250000007,
      "d": 714.2850000000035,
      "v": 100
    },
    {
      "midi": 50,
      "hit": false,
      "t": 47499.952500000094,
      "d": 357.14250000000175,
      "v": 100
    },
    {
      "midi": 55,
      "hit": false,
      "t": 47857.095000000096,
      "d": 357.14250000000175,
      "v": 100
    },
    {
      "midi": 70,
      "hit": false,
      "t": 48214.237500000076,
      "d": 357.14250000000175,
      "v": 100
    },
    {
      "midi": 74,
      "hit": false,
      "t": 48214.237500000076,
      "d": 357.14250000000175,
      "v": 100
    },
    {
      "midi": 50,
      "hit": false,
      "t": 48214.2375000001,
      "d": 357.14250000000175,
      "v": 100
    },
    {
      "midi": 67,
      "hit": false,
      "t": 48571.38,
      "d": 1071.427499999998,
      "v": 100
    },
    {
      "midi": 70,
      "hit": false,
      "t": 48571.38,
      "d": 1071.427499999998,
      "v": 100
    },
    {
      "midi": 76,
      "hit": false,
      "t": 48571.38000000008,
      "d": 714.2850000000035,
      "v": 100
    },
    {
      "midi": 40,
      "hit": false,
      "t": 48571.3800000001,
      "d": 357.14250000000175,
      "v": 100
    },
    {
      "midi": 46,
      "hit": false,
      "t": 48928.5225000001,
      "d": 357.14250000000175,
      "v": 100
    },
    {
      "midi": 72,
      "hit": false,
      "t": 49285.66500000008,
      "d": 357.14250000000175,
      "v": 100
    },
    {
      "midi": 51,
      "hit": false,
      "t": 49285.6650000001,
      "d": 357.14250000000175,
      "v": 100
    },
    {
      "midi": 65,
      "hit": false,
      "t": 49642.807499999995,
      "d": 1785.7125000000015,
      "v": 100
    },
    {
      "midi": 70,
      "hit": false,
      "t": 49642.80750000008,
      "d": 1071.427499999998,
      "v": 100
    },
    {
      "midi": 41,
      "hit": false,
      "t": 49642.807500000104,
      "d": 714.2850000000035,
      "v": 100
    },
    {
      "midi": 48,
      "hit": false,
      "t": 50357.09250000011,
      "d": 357.14250000000175,
      "v": 100
    },
    {
      "midi": 69,
      "hit": false,
      "t": 50714.23500000008,
      "d": 714.2850000000035,
      "v": 100
    },
    {
      "midi": 53,
      "hit": false,
      "t": 50714.23500000011,
      "d": 357.14250000000175,
      "v": 100
    },
    {
      "midi": 41,
      "hit": false,
      "t": 51071.37750000011,
      "d": 357.14250000000175,
      "v": 100
    },
    {
      "midi": 43,
      "hit": false,
      "t": 51428.52000000011,
      "d": 357.14250000000175,
      "v": 100
    },
    {
      "midi": 70,
      "hit": false,
      "t": 51785.662500000086,
      "d": 357.14250000000175,
      "v": 100
    },
    {
      "midi": 74,
      "hit": false,
      "t": 51785.662500000086,
      "d": 357.14250000000175,
      "v": 100
    },
    {
      "midi": 50,
      "hit": false,
      "t": 51785.662500000115,
      "d": 357.14250000000175,
      "v": 100
    },
    {
      "midi": 70,
      "hit": false,
      "t": 52142.80500000009,
      "d": 357.14250000000175,
      "v": 100
    },
    {
      "midi": 74,
      "hit": false,
      "t": 52142.80500000009,
      "d": 357.14250000000175,
      "v": 100
    },
    {
      "midi": 55,
      "hit": false,
      "t": 52142.80500000012,
      "d": 357.14250000000175,
      "v": 100
    },
    {
      "midi": 70,
      "hit": false,
      "t": 52499.94750000009,
      "d": 357.14250000000175,
      "v": 100
    },
    {
      "midi": 74,
      "hit": false,
      "t": 52499.94750000009,
      "d": 357.14250000000175,
      "v": 100
    },
    {
      "midi": 50,
      "hit": false,
      "t": 52499.94750000012,
      "d": 357.14250000000175,
      "v": 100
    },
    {
      "midi": 70,
      "hit": false,
      "t": 52857.09000000009,
      "d": 357.14250000000175,
      "v": 100
    },
    {
      "midi": 74,
      "hit": false,
      "t": 52857.09000000009,
      "d": 357.14250000000175,
      "v": 100
    },
    {
      "midi": 58,
      "hit": false,
      "t": 52857.09000000012,
      "d": 357.14250000000175,
      "v": 100
    },
    {
      "midi": 70,
      "hit": false,
      "t": 53214.23250000009,
      "d": 714.2850000000035,
      "v": 100
    },
    {
      "midi": 74,
      "hit": false,
      "t": 53214.23250000009,
      "d": 714.2850000000035,
      "v": 100
    },
    {
      "midi": 50,
      "hit": false,
      "t": 53214.23250000012,
      "d": 357.14250000000175,
      "v": 100
    },
    {
      "midi": 55,
      "hit": false,
      "t": 53571.375000000124,
      "d": 357.14250000000175,
      "v": 100
    },
    {
      "midi": 70,
      "hit": false,
      "t": 53928.517500000096,
      "d": 357.14250000000175,
      "v": 100
    },
    {
      "midi": 74,
      "hit": false,
      "t": 53928.517500000096,
      "d": 357.14250000000175,
      "v": 100
    },
    {
      "midi": 50,
      "hit": false,
      "t": 53928.517500000125,
      "d": 357.14250000000175,
      "v": 100
    },
    {
      "midi": 67,
      "hit": false,
      "t": 54285.659999999996,
      "d": 1071.427499999998,
      "v": 100
    },
    {
      "midi": 70,
      "hit": false,
      "t": 54285.659999999996,
      "d": 1071.427499999998,
      "v": 100
    },
    {
      "midi": 76,
      "hit": false,
      "t": 54285.6600000001,
      "d": 714.2850000000035,
      "v": 100
    },
    {
      "midi": 40,
      "hit": false,
      "t": 54285.66000000013,
      "d": 357.14250000000175,
      "v": 100
    },
    {
      "midi": 46,
      "hit": false,
      "t": 54642.80250000013,
      "d": 357.14250000000175,
      "v": 100
    },
    {
      "midi": 72,
      "hit": false,
      "t": 54999.9450000001,
      "d": 357.14250000000175,
      "v": 100
    },
    {
      "midi": 51,
      "hit": false,
      "t": 54999.94500000013,
      "d": 357.14250000000175,
      "v": 100
    },
    {
      "midi": 65,
      "hit": false,
      "t": 55357.087499999994,
      "d": 1785.7125000000015,
      "v": 100
    },
    {
      "midi": 70,
      "hit": false,
      "t": 55357.0875000001,
      "d": 1071.427499999998,
      "v": 100
    },
    {
      "midi": 41,
      "hit": false,
      "t": 55357.08750000013,
      "d": 714.2850000000035,
      "v": 100
    },
    {
      "midi": 48,
      "hit": false,
      "t": 56071.372500000136,
      "d": 357.14250000000175,
      "v": 100
    },
    {
      "midi": 69,
      "hit": false,
      "t": 56428.5150000001,
      "d": 714.2850000000035,
      "v": 100
    },
    {
      "midi": 53,
      "hit": false,
      "t": 56428.51500000014,
      "d": 357.14250000000175,
      "v": 100
    },
    {
      "midi": 41,
      "hit": false,
      "t": 56785.65750000014,
      "d": 357.14250000000175,
      "v": 100
    },
    {
      "midi": 46,
      "hit": false,
      "t": 57142.80000000014,
      "d": 357.14250000000175,
      "v": 100
    },
    {
      "midi": 53,
      "hit": false,
      "t": 57499.94250000014,
      "d": 357.14250000000175,
      "v": 100
    },
    {
      "midi": 70,
      "hit": false,
      "t": 57857.085,
      "d": 714.2850000000035,
      "v": 100
    },
    {
      "midi": 77,
      "hit": false,
      "t": 57857.08500000011,
      "d": 357.14250000000175,
      "v": 100
    },
    {
      "midi": 58,
      "hit": false,
      "t": 57857.085000000145,
      "d": 357.14250000000175,
      "v": 100
    },
    {
      "midi": 74,
      "hit": false,
      "t": 58214.22750000011,
      "d": 357.14250000000175,
      "v": 100
    },
    {
      "midi": 53,
      "hit": false,
      "t": 58214.22750000015,
      "d": 357.14250000000175,
      "v": 100
    },
    {
      "midi": 70,
      "hit": false,
      "t": 58571.37,
      "d": 1428.5699999999997,
      "v": 100
    },
    {
      "midi": 77,
      "hit": false,
      "t": 58571.37000000011,
      "d": 1071.427499999998,
      "v": 100
    },
    {
      "midi": 62,
      "hit": false,
      "t": 58571.37000000015,
      "d": 357.14250000000175,
      "v": 100
    },
    {
      "midi": 53,
      "hit": false,
      "t": 58928.51250000015,
      "d": 357.14250000000175,
      "v": 100
    },
    {
      "midi": 58,
      "hit": false,
      "t": 59285.65500000015,
      "d": 357.14250000000175,
      "v": 100
    },
    {
      "midi": 74,
      "hit": false,
      "t": 59642.79750000011,
      "d": 357.14250000000175,
      "v": 100
    },
    {
      "midi": 53,
      "hit": false,
      "t": 59642.79750000015,
      "d": 357.14250000000175,
      "v": 100
    },
    {
      "midi": 72,
      "hit": false,
      "t": 59999.94,
      "d": 1071.427499999998,
      "v": 100
    },
    {
      "midi": 78,
      "hit": false,
      "t": 59999.94000000011,
      "d": 714.2850000000035,
      "v": 100
    },
    {
      "midi": 42,
      "hit": false,
      "t": 59999.940000000155,
      "d": 357.14250000000175,
      "v": 100
    },
    {
      "midi": 50,
      "hit": false,
      "t": 60357.08250000016,
      "d": 357.14250000000175,
      "v": 100
    },
    {
      "midi": 74,
      "hit": false,
      "t": 60714.225000000115,
      "d": 357.14250000000175,
      "v": 100
    },
    {
      "midi": 54,
      "hit": false,
      "t": 60714.22500000016,
      "d": 357.14250000000175,
      "v": 100
    },
    {
      "midi": 72,
      "hit": false,
      "t": 61071.3675,
      "d": 1785.7125000000015,
      "v": 100
    },
    {
      "midi": 78,
      "hit": false,
      "t": 61071.36750000012,
      "d": 714.2850000000035,
      "v": 100
    },
    {
      "midi": 50,
      "hit": false,
      "t": 61071.36750000016,
      "d": 357.14250000000175,
      "v": 100
    },
    {
      "midi": 57,
      "hit": false,
      "t": 61428.51000000016,
      "d": 357.14250000000175,
      "v": 100
    },
    {
      "midi": 79,
      "hit": false,
      "t": 61785.65250000012,
      "d": 357.14250000000175,
      "v": 100
    },
    {
      "midi": 50,
      "hit": false,
      "t": 61785.652500000164,
      "d": 357.14250000000175,
      "v": 100
    },
    {
      "midi": 81,
      "hit": false,
      "t": 62142.79500000012,
      "d": 357.14250000000175,
      "v": 100
    },
    {
      "midi": 54,
      "hit": false,
      "t": 62142.795000000166,
      "d": 357.14250000000175,
      "v": 100
    },
    {
      "midi": 81,
      "hit": false,
      "t": 62499.937500000124,
      "d": 714.2850000000035,
      "v": 100
    },
    {
      "midi": 50,
      "hit": false,
      "t": 62499.93750000017,
      "d": 357.14250000000175,
      "v": 100
    },
    {
      "midi": 70,
      "hit": false,
      "t": 62857.08,
      "d": 2857.1399999999994,
      "v": 100
    },
    {
      "midi": 74,
      "hit": false,
      "t": 62857.08,
      "d": 2857.1399999999994,
      "v": 100
    },
    {
      "midi": 43,
      "hit": false,
      "t": 62857.08000000017,
      "d": 357.14250000000175,
      "v": 100
    },
    {
      "midi": 79,
      "hit": false,
      "t": 63214.22250000013,
      "d": 1785.7125000000015,
      "v": 100
    },
    {
      "midi": 50,
      "hit": false,
      "t": 63214.22250000017,
      "d": 357.14250000000175,
      "v": 100
    },
    {
      "midi": 55,
      "hit": false,
      "t": 63571.36500000017,
      "d": 357.14250000000175,
      "v": 100
    },
    {
      "midi": 50,
      "hit": false,
      "t": 63928.507500000174,
      "d": 357.14250000000175,
      "v": 100
    },
    {
      "midi": 58,
      "hit": false,
      "t": 64285.650000000176,
      "d": 357.14250000000175,
      "v": 100
    },
    {
      "midi": 50,
      "hit": false,
      "t": 64642.79250000018,
      "d": 357.14250000000175,
      "v": 100
    },
    {
      "midi": 55,
      "hit": false,
      "t": 64999.93500000018,
      "d": 357.14250000000175,
      "v": 100
    },
    {
      "midi": 74,
      "hit": false,
      "t": 65357.07750000013,
      "d": 357.14250000000175,
      "v": 100
    },
    {
      "midi": 50,
      "hit": false,
      "t": 65357.07750000018,
      "d": 357.14249999999447,
      "v": 100
    },
    {
      "midi": 67,
      "hit": false,
      "t": 65714.22,
      "d": 357.14250000000175,
      "v": 100
    },
    {
      "midi": 70,
      "hit": false,
      "t": 65714.22,
      "d": 357.14250000000175,
      "v": 100
    },
    {
      "midi": 75,
      "hit": false,
      "t": 65714.22000000013,
      "d": 357.14250000000175,
      "v": 100
    },
    {
      "midi": 39,
      "hit": false,
      "t": 65714.22000000018,
      "d": 1071.4275000000052,
      "v": 100
    },
    {
      "midi": 51,
      "hit": false,
      "t": 65714.22000000018,
      "d": 1071.4275000000052,
      "v": 100
    },
    {
      "midi": 67,
      "hit": false,
      "t": 66071.3625,
      "d": 357.14250000000175,
      "v": 100
    },
    {
      "midi": 70,
      "hit": false,
      "t": 66071.3625,
      "d": 357.14250000000175,
      "v": 100
    },
    {
      "midi": 75,
      "hit": false,
      "t": 66071.36250000013,
      "d": 357.14250000000175,
      "v": 100
    },
    {
      "midi": 67,
      "hit": false,
      "t": 66428.505,
      "d": 357.14250000000175,
      "v": 100
    },
    {
      "midi": 70,
      "hit": false,
      "t": 66428.505,
      "d": 357.14250000000175,
      "v": 100
    },
    {
      "midi": 75,
      "hit": false,
      "t": 66428.50500000014,
      "d": 357.14250000000175,
      "v": 100
    },
    {
      "midi": 69,
      "hit": false,
      "t": 66785.6475,
      "d": 357.14250000000175,
      "v": 100
    },
    {
      "midi": 65,
      "hit": false,
      "t": 66785.6475,
      "d": 1785.7125000000087,
      "v": 100
    },
    {
      "midi": 72,
      "hit": false,
      "t": 66785.64750000014,
      "d": 357.14250000000175,
      "v": 100
    },
    {
      "midi": 41,
      "hit": false,
      "t": 66785.64750000018,
      "d": 1785.7124999999942,
      "v": 100
    },
    {
      "midi": 53,
      "hit": false,
      "t": 66785.64750000018,
      "d": 1785.7124999999942,
      "v": 100
    },
    {
      "midi": 70,
      "hit": false,
      "t": 67142.79000000014,
      "d": 357.14250000000175,
      "v": 100
    },
    {
      "midi": 69,
      "hit": false,
      "t": 67499.93250000014,
      "d": 357.14250000000175,
      "v": 100
    },
    {
      "midi": 72,
      "hit": false,
      "t": 67857.07500000014,
      "d": 357.14250000000175,
      "v": 100
    },
    {
      "midi": 67,
      "hit": false,
      "t": 68214.21750000014,
      "d": 178.5712499999936,
      "v": 100
    },
    {
      "midi": 69,
      "hit": false,
      "t": 68392.78875000014,
      "d": 178.5712499999936,
      "v": 100
    },
    {
      "midi": 70,
      "hit": false,
      "t": 68571.36000000013,
      "d": 2142.854999999996,
      "v": 100
    },
    {
      "midi": 43,
      "hit": false,
      "t": 68571.36000000018,
      "d": 357.14250000000175,
      "v": 100
    },
    {
      "midi": 50,
      "hit": false,
      "t": 68928.50250000018,
      "d": 357.14250000000175,
      "v": 100
    },
    {
      "midi": 55,
      "hit": false,
      "t": 69285.64500000018,
      "d": 357.14250000000175,
      "v": 100
    },
    {
      "midi": 58,
      "hit": false,
      "t": 69642.78750000018,
      "d": 1785.7124999999942,
      "v": 100
    },
    {
      "midi": 67,
      "hit": false,
      "t": 70714.21500000013,
      "d": 357.14250000000175,
      "v": 100
    },
    {
      "midi": 69,
      "hit": false,
      "t": 71071.35750000013,
      "d": 357.14250000000175,
      "v": 100
    },
    {
      "midi": 70,
      "hit": false,
      "t": 71428.50000000013,
      "d": 714.2850000000035,
      "v": 100
    },
    {
      "midi": 51,
      "hit": false,
      "t": 71428.50000000017,
      "d": 357.14250000000175,
      "v": 100
    },
    {
      "midi": 55,
      "hit": false,
      "t": 71785.64250000018,
      "d": 357.14250000000175,
      "v": 100
    },
    {
      "midi": 74,
      "hit": false,
      "t": 72142.78500000013,
      "d": 357.14250000000175,
      "v": 100
    },
    {
      "midi": 58,
      "hit": false,
      "t": 72142.78500000018,
      "d": 357.14250000000175,
      "v": 100
    },
    {
      "midi": 72,
      "hit": false,
      "t": 72499.92750000014,
      "d": 714.2850000000035,
      "v": 100
    },
    {
      "midi": 53,
      "hit": false,
      "t": 72499.92750000018,
      "d": 714.2850000000035,
      "v": 100
    },
    {
      "midi": 70,
      "hit": false,
      "t": 73214.21250000014,
      "d": 357.14250000000175,
      "v": 100
    },
    {
      "midi": 57,
      "hit": false,
      "t": 73214.21250000018,
      "d": 357.14250000000175,
      "v": 100
    },
    {
      "midi": 69,
      "hit": false,
      "t": 73571.35500000014,
      "d": 357.14250000000175,
      "v": 100
    },
    {
      "midi": 60,
      "hit": false,
      "t": 73571.35500000019,
      "d": 714.2850000000035,
      "v": 100
    },
    {
      "midi": 67,
      "hit": false,
      "t": 73928.49750000014,
      "d": 714.2850000000035,
      "v": 100
    },
    {
      "midi": 43,
      "hit": false,
      "t": 74285.64000000019,
      "d": 357.14250000000175,
      "v": 100
    },
    {
      "midi": 70,
      "hit": false,
      "t": 74642.78250000015,
      "d": 714.2850000000035,
      "v": 100
    },
    {
      "midi": 50,
      "hit": false,
      "t": 74642.78250000019,
      "d": 357.14250000000175,
      "v": 100
    },
    {
      "midi": 55,
      "hit": false,
      "t": 74999.92500000019,
      "d": 357.14250000000175,
      "v": 100
    },
    {
      "midi": 70,
      "hit": false,
      "t": 75357.06750000015,
      "d": 357.14250000000175,
      "v": 100
    },
    {
      "midi": 58,
      "hit": false,
      "t": 75357.0675000002,
      "d": 1785.7124999999942,
      "v": 100
    },
    {
      "midi": 70,
      "hit": false,
      "t": 75714.21000000015,
      "d": 1071.4275000000052,
      "v": 100
    },
    {
      "midi": 67,
      "hit": false,
      "t": 76785.63750000016,
      "d": 178.5712499999936,
      "v": 100
    },
    {
      "midi": 69,
      "hit": false,
      "t": 76964.20875000015,
      "d": 178.5712499999936,
      "v": 100
    },
    {
      "midi": 70,
      "hit": false,
      "t": 77142.78000000014,
      "d": 714.2850000000035,
      "v": 100
    },
    {
      "midi": 51,
      "hit": false,
      "t": 77142.78000000019,
      "d": 357.14250000000175,
      "v": 100
    },
    {
      "midi": 55,
      "hit": false,
      "t": 77499.92250000019,
      "d": 357.14250000000175,
      "v": 100
    },
    {
      "midi": 72,
      "hit": false,
      "t": 77857.06500000015,
      "d": 357.14250000000175,
      "v": 100
    },
    {
      "midi": 58,
      "hit": false,
      "t": 77857.06500000019,
      "d": 357.14250000000175,
      "v": 100
    },
    {
      "midi": 69,
      "hit": false,
      "t": 78214.20750000015,
      "d": 1785.7124999999942,
      "v": 100
    },
    {
      "midi": 53,
      "hit": false,
      "t": 78214.2075000002,
      "d": 714.2850000000035,
      "v": 100
    },
    {
      "midi": 57,
      "hit": false,
      "t": 78928.4925000002,
      "d": 357.14250000000175,
      "v": 100
    },
    {
      "midi": 60,
      "hit": false,
      "t": 79285.6350000002,
      "d": 714.2850000000035,
      "v": 100
    },
    {
      "midi": 43,
      "hit": false,
      "t": 79999.9200000002,
      "d": 357.14250000000175,
      "v": 100
    },
    {
      "midi": 70,
      "hit": false,
      "t": 80357.06250000015,
      "d": 714.2850000000035,
      "v": 100
    },
    {
      "midi": 50,
      "hit": false,
      "t": 80357.0625000002,
      "d": 357.14250000000175,
      "v": 100
    },
    {
      "midi": 55,
      "hit": false,
      "t": 80714.2050000002,
      "d": 357.14250000000175,
      "v": 100
    },
    {
      "midi": 67,
      "hit": false,
      "t": 81071.34750000015,
      "d": 357.14250000000175,
      "v": 100
    },
    {
      "midi": 58,
      "hit": false,
      "t": 81071.3475000002,
      "d": 1785.7124999999942,
      "v": 100
    },
    {
      "midi": 70,
      "hit": false,
      "t": 81428.49000000015,
      "d": 1071.4275000000052,
      "v": 100
    },
    {
      "midi": 67,
      "hit": false,
      "t": 82499.91750000016,
      "d": 357.14250000000175,
      "v": 100
    },
    {
      "midi": 70,
      "hit": false,
      "t": 82857.06000000016,
      "d": 714.2850000000035,
      "v": 100
    },
    {
      "midi": 51,
      "hit": false,
      "t": 82857.0600000002,
      "d": 357.14250000000175,
      "v": 100
    },
    {
      "midi": 55,
      "hit": false,
      "t": 83214.2025000002,
      "d": 357.14250000000175,
      "v": 100
    },
    {
      "midi": 72,
      "hit": false,
      "t": 83571.34500000016,
      "d": 357.14250000000175,
      "v": 100
    },
    {
      "midi": 58,
      "hit": false,
      "t": 83571.3450000002,
      "d": 357.14250000000175,
      "v": 100
    },
    {
      "midi": 69,
      "hit": false,
      "t": 83928.48750000016,
      "d": 1428.570000000007,
      "v": 100
    },
    {
      "midi": 53,
      "hit": false,
      "t": 83928.4875000002,
      "d": 714.2850000000035,
      "v": 100
    },
    {
      "midi": 57,
      "hit": false,
      "t": 84642.77250000021,
      "d": 357.14250000000175,
      "v": 100
    },
    {
      "midi": 60,
      "hit": false,
      "t": 84999.91500000021,
      "d": 714.2850000000035,
      "v": 100
    },
    {
      "midi": 65,
      "hit": false,
      "t": 85357.05750000017,
      "d": 357.14250000000175,
      "v": 100
    },
    {
      "midi": 69,
      "hit": false,
      "t": 85714.20000000017,
      "d": 714.2850000000035,
      "v": 100
    },
    {
      "midi": 53,
      "hit": false,
      "t": 85714.20000000022,
      "d": 357.14250000000175,
      "v": 100
    },
    {
      "midi": 57,
      "hit": false,
      "t": 86071.34250000022,
      "d": 357.14250000000175,
      "v": 100
    },
    {
      "midi": 70,
      "hit": false,
      "t": 86428.48500000018,
      "d": 357.14250000000175,
      "v": 100
    },
    {
      "midi": 60,
      "hit": false,
      "t": 86428.48500000022,
      "d": 357.14250000000175,
      "v": 100
    },
    {
      "midi": 69,
      "hit": false,
      "t": 86785.62750000018,
      "d": 714.2850000000035,
      "v": 100
    },
    {
      "midi": 51,
      "hit": false,
      "t": 86785.62750000022,
      "d": 714.2850000000035,
      "v": 100
    },
    {
      "midi": 67,
      "hit": false,
      "t": 87499.91250000018,
      "d": 714.2850000000035,
      "v": 100
    },
    {
      "midi": 55,
      "hit": false,
      "t": 87499.91250000022,
      "d": 357.14250000000175,
      "v": 100
    },
    {
      "midi": 58,
      "hit": false,
      "t": 87857.05500000023,
      "d": 714.2850000000035,
      "v": 100
    },
    {
      "midi": 62,
      "hit": false,
      "t": 88214.19750000018,
      "d": 357.14250000000175,
      "v": 100
    },
    {
      "midi": 67,
      "hit": false,
      "t": 88571.34000000019,
      "d": 714.2850000000035,
      "v": 100
    },
    {
      "midi": 50,
      "hit": false,
      "t": 88571.34000000023,
      "d": 357.14250000000175,
      "v": 100
    },
    {
      "midi": 57,
      "hit": false,
      "t": 88928.48250000023,
      "d": 357.14250000000175,
      "v": 100
    },
    {
      "midi": 69,
      "hit": false,
      "t": 89285.62500000019,
      "d": 357.14250000000175,
      "v": 100
    },
    {
      "midi": 60,
      "hit": false,
      "t": 89285.62500000023,
      "d": 1071.4275000000052,
      "v": 100
    },
    {
      "midi": 66,
      "hit": false,
      "t": 89642.76750000019,
      "d": 714.2850000000035,
      "v": 100
    },
    {
      "midi": 67,
      "hit": false,
      "t": 90357.0525000002,
      "d": 357.14250000000175,
      "v": 100
    },
    {
      "midi": 57,
      "hit": false,
      "t": 90357.05250000024,
      "d": 357.14250000000175,
      "v": 100
    },
    {
      "midi": 69,
      "hit": false,
      "t": 90714.1950000002,
      "d": 357.14250000000175,
      "v": 100
    },
    {
      "midi": 60,
      "hit": false,
      "t": 90714.19500000024,
      "d": 714.2850000000035,
      "v": 100
    },
    {
      "midi": 67,
      "hit": false,
      "t": 91071.3375000002,
      "d": 714.2850000000035,
      "v": 100
    },
    {
      "midi": 43,
      "hit": false,
      "t": 91428.48000000024,
      "d": 357.14250000000175,
      "v": 100
    },
    {
      "midi": 70,
      "hit": false,
      "t": 91785.6225000002,
      "d": 714.2850000000035,
      "v": 100
    },
    {
      "midi": 50,
      "hit": false,
      "t": 91785.62250000025,
      "d": 357.14250000000175,
      "v": 100
    },
    {
      "midi": 55,
      "hit": false,
      "t": 92142.76500000025,
      "d": 357.14250000000175,
      "v": 100
    },
    {
      "midi": 67,
      "hit": false,
      "t": 92499.9075000002,
      "d": 357.14250000000175,
      "v": 100
    },
    {
      "midi": 58,
      "hit": false,
      "t": 92499.90750000025,
      "d": 1785.7124999999942,
      "v": 100
    },
    {
      "midi": 70,
      "hit": false,
      "t": 92857.0500000002,
      "d": 1071.4275000000052,
      "v": 100
    },
    {
      "midi": 67,
      "hit": false,
      "t": 93928.47750000021,
      "d": 178.5712499999936,
      "v": 100
    },
    {
      "midi": 69,
      "hit": false,
      "t": 94107.0487500002,
      "d": 178.5712499999936,
      "v": 100
    },
    {
      "midi": 70,
      "hit": false,
      "t": 94285.6200000002,
      "d": 714.2850000000035,
      "v": 100
    },
    {
      "midi": 51,
      "hit": false,
      "t": 94285.62000000024,
      "d": 357.14250000000175,
      "v": 100
    },
    {
      "midi": 55,
      "hit": false,
      "t": 94642.76250000024,
      "d": 357.14250000000175,
      "v": 100
    },
    {
      "midi": 72,
      "hit": false,
      "t": 94999.9050000002,
      "d": 357.14250000000175,
      "v": 100
    },
    {
      "midi": 58,
      "hit": false,
      "t": 94999.90500000025,
      "d": 357.14250000000175,
      "v": 100
    },
    {
      "midi": 69,
      "hit": false,
      "t": 95357.0475000002,
      "d": 1785.7124999999942,
      "v": 100
    },
    {
      "midi": 53,
      "hit": false,
      "t": 95357.04750000025,
      "d": 714.2850000000035,
      "v": 100
    },
    {
      "midi": 57,
      "hit": false,
      "t": 96071.33250000025,
      "d": 357.14250000000175,
      "v": 100
    },
    {
      "midi": 60,
      "hit": false,
      "t": 96428.47500000025,
      "d": 714.2850000000035,
      "v": 100
    },
    {
      "midi": 43,
      "hit": false,
      "t": 97142.76000000026,
      "d": 357.14250000000175,
      "v": 100
    },
    {
      "midi": 70,
      "hit": false,
      "t": 97499.9025000002,
      "d": 357.14250000000175,
      "v": 100
    },
    {
      "midi": 50,
      "hit": false,
      "t": 97499.90250000026,
      "d": 357.14250000000175,
      "v": 100
    },
    {
      "midi": 70,
      "hit": false,
      "t": 97857.0450000002,
      "d": 357.14250000000175,
      "v": 100
    },
    {
      "midi": 55,
      "hit": false,
      "t": 97857.04500000026,
      "d": 357.14250000000175,
      "v": 100
    },
    {
      "midi": 67,
      "hit": false,
      "t": 98214.1875000002,
      "d": 357.14250000000175,
      "v": 100
    },
    {
      "midi": 58,
      "hit": false,
      "t": 98214.18750000026,
      "d": 1785.7124999999942,
      "v": 100
    },
    {
      "midi": 70,
      "hit": false,
      "t": 98571.3300000002,
      "d": 1071.4275000000052,
      "v": 100
    },
    {
      "midi": 67,
      "hit": false,
      "t": 99642.75750000021,
      "d": 178.5712499999936,
      "v": 100
    },
    {
      "midi": 69,
      "hit": false,
      "t": 99821.3287500002,
      "d": 178.5712499999936,
      "v": 100
    },
    {
      "midi": 70,
      "hit": false,
      "t": 99999.9000000002,
      "d": 714.2850000000035,
      "v": 100
    },
    {
      "midi": 51,
      "hit": false,
      "t": 99999.90000000026,
      "d": 357.14250000000175,
      "v": 100
    },
    {
      "midi": 55,
      "hit": false,
      "t": 100357.04250000026,
      "d": 357.14250000000175,
      "v": 100
    },
    {
      "midi": 72,
      "hit": false,
      "t": 100714.1850000002,
      "d": 357.14250000000175,
      "v": 100
    },
    {
      "midi": 58,
      "hit": false,
      "t": 100714.18500000026,
      "d": 357.14250000000175,
      "v": 100
    },
    {
      "midi": 69,
      "hit": false,
      "t": 101071.3275000002,
      "d": 714.2850000000035,
      "v": 100
    },
    {
      "midi": 53,
      "hit": false,
      "t": 101071.32750000026,
      "d": 714.2850000000035,
      "v": 100
    },
    {
      "midi": 67,
      "hit": false,
      "t": 101785.6125000002,
      "d": 178.5712499999936,
      "v": 100
    },
    {
      "midi": 57,
      "hit": false,
      "t": 101785.61250000026,
      "d": 357.14250000000175,
      "v": 100
    },
    {
      "midi": 65,
      "hit": false,
      "t": 101964.1837500002,
      "d": 535.7137499999953,
      "v": 100
    },
    {
      "midi": 60,
      "hit": false,
      "t": 102142.75500000027,
      "d": 714.2850000000035,
      "v": 100
    },
    {
      "midi": 65,
      "hit": false,
      "t": 102499.8975000002,
      "d": 357.14250000000175,
      "v": 100
    },
    {
      "midi": 69,
      "hit": false,
      "t": 102857.0400000002,
      "d": 714.2850000000035,
      "v": 100
    },
    {
      "midi": 72,
      "hit": false,
      "t": 102857.0400000002,
      "d": 714.2850000000035,
      "v": 100
    },
    {
      "midi": 77,
      "hit": false,
      "t": 102857.0400000002,
      "d": 714.2850000000035,
      "v": 100
    },
    {
      "midi": 53,
      "hit": false,
      "t": 102857.04000000027,
      "d": 357.14250000000175,
      "v": 100
    },
    {
      "midi": 57,
      "hit": false,
      "t": 103214.18250000027,
      "d": 357.14250000000175,
      "v": 100
    },
    {
      "midi": 74,
      "hit": false,
      "t": 103571.3250000002,
      "d": 357.14250000000175,
      "v": 100
    },
    {
      "midi": 60,
      "hit": false,
      "t": 103571.32500000027,
      "d": 357.14250000000175,
      "v": 100
    },
    {
      "midi": 72,
      "hit": false,
      "t": 103928.4675000002,
      "d": 714.2850000000035,
      "v": 100
    },
    {
      "midi": 51,
      "hit": false,
      "t": 103928.46750000028,
      "d": 714.2850000000035,
      "v": 100
    },
    {
      "midi": 67,
      "hit": false,
      "t": 104642.7525000002,
      "d": 1071.4275000000052,
      "v": 100
    },
    {
      "midi": 70,
      "hit": false,
      "t": 104642.7525000002,
      "d": 1071.4275000000052,
      "v": 100
    },
    {
      "midi": 55,
      "hit": false,
      "t": 104642.75250000028,
      "d": 357.14250000000175,
      "v": 100
    },
    {
      "midi": 58,
      "hit": false,
      "t": 104999.89500000028,
      "d": 714.2850000000035,
      "v": 100
    },
    {
      "midi": 66,
      "hit": false,
      "t": 105714.18000000002,
      "d": 2857.1399999999994,
      "v": 100
    },
    {
      "midi": 69,
      "hit": false,
      "t": 105714.18000000002,
      "d": 2857.1399999999994,
      "v": 100
    },
    {
      "midi": 72,
      "hit": false,
      "t": 105714.18000000021,
      "d": 714.2850000000035,
      "v": 100
    },
    {
      "midi": 50,
      "hit": false,
      "t": 105714.18000000028,
      "d": 357.14250000000175,
      "v": 100
    },
    {
      "midi": 57,
      "hit": false,
      "t": 106071.32250000029,
      "d": 357.14250000000175,
      "v": 100
    },
    {
      "midi": 72,
      "hit": false,
      "t": 106428.46500000021,
      "d": 357.14250000000175,
      "v": 100
    },
    {
      "midi": 60,
      "hit": false,
      "t": 106428.46500000029,
      "d": 1071.4275000000052,
      "v": 100
    },
    {
      "midi": 74,
      "hit": false,
      "t": 106785.60750000022,
      "d": 714.2850000000035,
      "v": 100
    },
    {
      "midi": 74,
      "hit": false,
      "t": 107499.89250000022,
      "d": 357.14250000000175,
      "v": 100
    },
    {
      "midi": 57,
      "hit": false,
      "t": 107499.8925000003,
      "d": 357.14250000000175,
      "v": 100
    },
    {
      "midi": 77,
      "hit": false,
      "t": 107857.03500000022,
      "d": 357.14250000000175,
      "v": 100
    },
    {
      "midi": 50,
      "hit": false,
      "t": 107857.0350000003,
      "d": 714.2850000000035,
      "v": 100
    },
    {
      "midi": 79,
      "hit": false,
      "t": 108214.17750000022,
      "d": 357.14250000000175,
      "v": 100
    },
    {
      "midi": 43,
      "hit": false,
      "t": 108571.3200000003,
      "d": 357.14250000000175,
      "v": 100
    },
    {
      "midi": 70,
      "hit": false,
      "t": 108928.46250000023,
      "d": 357.14250000000175,
      "v": 100
    },
    {
      "midi": 74,
      "hit": false,
      "t": 108928.46250000023,
      "d": 357.14250000000175,
      "v": 100
    },
    {
      "midi": 46,
      "hit": false,
      "t": 108928.4625000003,
      "d": 357.14250000000175,
      "v": 100
    },
    {
      "midi": 70,
      "hit": false,
      "t": 109285.60500000023,
      "d": 357.14250000000175,
      "v": 100
    },
    {
      "midi": 74,
      "hit": false,
      "t": 109285.60500000023,
      "d": 357.14250000000175,
      "v": 100
    },
    {
      "midi": 55,
      "hit": false,
      "t": 109285.6050000003,
      "d": 357.14250000000175,
      "v": 100
    },
    {
      "midi": 70,
      "hit": false,
      "t": 109642.74750000023,
      "d": 357.14250000000175,
      "v": 100
    },
    {
      "midi": 74,
      "hit": false,
      "t": 109642.74750000023,
      "d": 357.14250000000175,
      "v": 100
    },
    {
      "midi": 46,
      "hit": false,
      "t": 109642.7475000003,
      "d": 357.14250000000175,
      "v": 100
    },
    {
      "midi": 70,
      "hit": false,
      "t": 109999.89000000023,
      "d": 357.14250000000175,
      "v": 100
    },
    {
      "midi": 74,
      "hit": false,
      "t": 109999.89000000023,
      "d": 357.14250000000175,
      "v": 100
    },
    {
      "midi": 58,
      "hit": false,
      "t": 109999.8900000003,
      "d": 357.14250000000175,
      "v": 100
    },
    {
      "midi": 70,
      "hit": false,
      "t": 110357.03250000023,
      "d": 714.2850000000035,
      "v": 100
    },
    {
      "midi": 74,
      "hit": false,
      "t": 110357.03250000023,
      "d": 714.2850000000035,
      "v": 100
    },
    {
      "midi": 46,
      "hit": false,
      "t": 110357.0325000003,
      "d": 357.14250000000175,
      "v": 100
    },
    {
      "midi": 55,
      "hit": false,
      "t": 110714.17500000031,
      "d": 357.14250000000175,
      "v": 100
    },
    {
      "midi": 70,
      "hit": false,
      "t": 111071.31750000024,
      "d": 357.14250000000175,
      "v": 100
    },
    {
      "midi": 74,
      "hit": false,
      "t": 111071.31750000024,
      "d": 357.14250000000175,
      "v": 100
    },
    {
      "midi": 46,
      "hit": false,
      "t": 111071.31750000031,
      "d": 357.14250000000175,
      "v": 100
    },
    {
      "midi": 67,
      "hit": false,
      "t": 111428.46000000002,
      "d": 1071.4275000000052,
      "v": 100
    },
    {
      "midi": 70,
      "hit": false,
      "t": 111428.46000000002,
      "d": 1071.4275000000052,
      "v": 100
    },
    {
      "midi": 76,
      "hit": false,
      "t": 111428.46000000024,
      "d": 714.2850000000035,
      "v": 100
    },
    {
      "midi": 39,
      "hit": false,
      "t": 111428.46000000031,
      "d": 357.14250000000175,
      "v": 100
    },
    {
      "midi": 46,
      "hit": false,
      "t": 111785.60250000031,
      "d": 357.14250000000175,
      "v": 100
    },
    {
      "midi": 72,
      "hit": false,
      "t": 112142.74500000024,
      "d": 357.14250000000175,
      "v": 100
    },
    {
      "midi": 51,
      "hit": false,
      "t": 112142.74500000032,
      "d": 357.14250000000175,
      "v": 100
    },
    {
      "midi": 65,
      "hit": false,
      "t": 112499.88750000003,
      "d": 1785.7124999999942,
      "v": 100
    },
    {
      "midi": 70,
      "hit": false,
      "t": 112499.88750000024,
      "d": 1071.4275000000052,
      "v": 100
    },
    {
      "midi": 41,
      "hit": false,
      "t": 112499.88750000032,
      "d": 714.2850000000035,
      "v": 100
    },
    {
      "midi": 48,
      "hit": false,
      "t": 113214.17250000032,
      "d": 357.14250000000175,
      "v": 100
    },
    {
      "midi": 69,
      "hit": false,
      "t": 113571.31500000025,
      "d": 714.2850000000035,
      "v": 100
    },
    {
      "midi": 53,
      "hit": false,
      "t": 113571.31500000032,
      "d": 357.14250000000175,
      "v": 100
    },
    {
      "midi": 41,
      "hit": false,
      "t": 113928.45750000032,
      "d": 357.14250000000175,
      "v": 100
    },
    {
      "midi": 43,
      "hit": false,
      "t": 114285.60000000033,
      "d": 357.14250000000175,
      "v": 100
    },
    {
      "midi": 70,
      "hit": false,
      "t": 114642.74250000025,
      "d": 357.14250000000175,
      "v": 100
    },
    {
      "midi": 74,
      "hit": false,
      "t": 114642.74250000025,
      "d": 357.14250000000175,
      "v": 100
    },
    {
      "midi": 46,
      "hit": false,
      "t": 114642.74250000033,
      "d": 357.14250000000175,
      "v": 100
    },
    {
      "midi": 70,
      "hit": false,
      "t": 114999.88500000026,
      "d": 357.14250000000175,
      "v": 100
    },
    {
      "midi": 74,
      "hit": false,
      "t": 114999.88500000026,
      "d": 357.14250000000175,
      "v": 100
    },
    {
      "midi": 55,
      "hit": false,
      "t": 114999.88500000033,
      "d": 357.14250000000175,
      "v": 100
    },
    {
      "midi": 70,
      "hit": false,
      "t": 115357.02750000026,
      "d": 357.14250000000175,
      "v": 100
    },
    {
      "midi": 74,
      "hit": false,
      "t": 115357.02750000026,
      "d": 357.14250000000175,
      "v": 100
    },
    {
      "midi": 46,
      "hit": false,
      "t": 115357.02750000033,
      "d": 357.14250000000175,
      "v": 100
    },
    {
      "midi": 70,
      "hit": false,
      "t": 115714.17000000026,
      "d": 357.14250000000175,
      "v": 100
    },
    {
      "midi": 74,
      "hit": false,
      "t": 115714.17000000026,
      "d": 357.14250000000175,
      "v": 100
    },
    {
      "midi": 58,
      "hit": false,
      "t": 115714.17000000033,
      "d": 357.14250000000175,
      "v": 100
    },
    {
      "midi": 70,
      "hit": false,
      "t": 116071.31250000026,
      "d": 714.2850000000035,
      "v": 100
    },
    {
      "midi": 74,
      "hit": false,
      "t": 116071.31250000026,
      "d": 714.2850000000035,
      "v": 100
    },
    {
      "midi": 46,
      "hit": false,
      "t": 116071.31250000033,
      "d": 357.14250000000175,
      "v": 100
    },
    {
      "midi": 55,
      "hit": false,
      "t": 116428.45500000034,
      "d": 357.14250000000175,
      "v": 100
    },
    {
      "midi": 70,
      "hit": false,
      "t": 116785.59750000027,
      "d": 357.14250000000175,
      "v": 100
    },
    {
      "midi": 74,
      "hit": false,
      "t": 116785.59750000027,
      "d": 357.14250000000175,
      "v": 100
    },
    {
      "midi": 46,
      "hit": false,
      "t": 116785.59750000034,
      "d": 357.14250000000175,
      "v": 100
    },
    {
      "midi": 67,
      "hit": false,
      "t": 117142.74000000002,
      "d": 1071.4275000000052,
      "v": 100
    },
    {
      "midi": 70,
      "hit": false,
      "t": 117142.74000000002,
      "d": 1071.4275000000052,
      "v": 100
    },
    {
      "midi": 76,
      "hit": false,
      "t": 117142.74000000027,
      "d": 714.2850000000035,
      "v": 100
    },
    {
      "midi": 39,
      "hit": false,
      "t": 117142.74000000034,
      "d": 357.14250000000175,
      "v": 100
    },
    {
      "midi": 46,
      "hit": false,
      "t": 117499.88250000034,
      "d": 357.14250000000175,
      "v": 100
    },
    {
      "midi": 72,
      "hit": false,
      "t": 117857.02500000027,
      "d": 357.14250000000175,
      "v": 100
    },
    {
      "midi": 51,
      "hit": false,
      "t": 117857.02500000034,
      "d": 357.14250000000175,
      "v": 100
    },
    {
      "midi": 65,
      "hit": false,
      "t": 118214.16750000003,
      "d": 1785.7124999999942,
      "v": 100
    },
    {
      "midi": 70,
      "hit": false,
      "t": 118214.16750000027,
      "d": 1071.4275000000052,
      "v": 100
    },
    {
      "midi": 41,
      "hit": false,
      "t": 118214.16750000035,
      "d": 714.2850000000035,
      "v": 100
    },
    {
      "midi": 48,
      "hit": false,
      "t": 118928.45250000035,
      "d": 357.14250000000175,
      "v": 100
    },
    {
      "midi": 69,
      "hit": false,
      "t": 119285.59500000028,
      "d": 714.2850000000035,
      "v": 100
    },
    {
      "midi": 53,
      "hit": false,
      "t": 119285.59500000035,
      "d": 357.14250000000175,
      "v": 100
    },
    {
      "midi": 41,
      "hit": false,
      "t": 119642.73750000035,
      "d": 357.14250000000175,
      "v": 100
    },
    {
      "midi": 46,
      "hit": false,
      "t": 119999.88000000035,
      "d": 357.14250000000175,
      "v": 100
    },
    {
      "midi": 53,
      "hit": false,
      "t": 120357.02250000036,
      "d": 357.14250000000175,
      "v": 100
    },
    {
      "midi": 70,
      "hit": false,
      "t": 120714.16500000002,
      "d": 714.2850000000035,
      "v": 100
    },
    {
      "midi": 77,
      "hit": false,
      "t": 120714.16500000028,
      "d": 357.14250000000175,
      "v": 100
    },
    {
      "midi": 58,
      "hit": false,
      "t": 120714.16500000036,
      "d": 357.14250000000175,
      "v": 100
    },
    {
      "midi": 74,
      "hit": false,
      "t": 121071.30750000029,
      "d": 357.14250000000175,
      "v": 100
    },
    {
      "midi": 53,
      "hit": false,
      "t": 121071.30750000036,
      "d": 357.14250000000175,
      "v": 100
    },
    {
      "midi": 70,
      "hit": false,
      "t": 121428.45000000003,
      "d": 1428.570000000007,
      "v": 100
    },
    {
      "midi": 77,
      "hit": false,
      "t": 121428.45000000029,
      "d": 1071.4275000000052,
      "v": 100
    },
    {
      "midi": 62,
      "hit": false,
      "t": 121428.45000000036,
      "d": 357.14250000000175,
      "v": 100
    },
    {
      "midi": 53,
      "hit": false,
      "t": 121785.59250000036,
      "d": 357.14250000000175,
      "v": 100
    },
    {
      "midi": 58,
      "hit": false,
      "t": 122142.73500000036,
      "d": 357.14250000000175,
      "v": 100
    },
    {
      "midi": 74,
      "hit": false,
      "t": 122499.8775000003,
      "d": 357.14250000000175,
      "v": 100
    },
    {
      "midi": 53,
      "hit": false,
      "t": 122499.87750000037,
      "d": 357.14250000000175,
      "v": 100
    },
    {
      "midi": 72,
      "hit": false,
      "t": 122857.02000000003,
      "d": 1071.4275000000052,
      "v": 100
    },
    {
      "midi": 78,
      "hit": false,
      "t": 122857.0200000003,
      "d": 714.2850000000035,
      "v": 100
    },
    {
      "midi": 42,
      "hit": false,
      "t": 122857.02000000037,
      "d": 357.14250000000175,
      "v": 100
    },
    {
      "midi": 50,
      "hit": false,
      "t": 123214.16250000037,
      "d": 357.14250000000175,
      "v": 100
    },
    {
      "midi": 74,
      "hit": false,
      "t": 123571.3050000003,
      "d": 357.14250000000175,
      "v": 100
    },
    {
      "midi": 54,
      "hit": false,
      "t": 123571.30500000037,
      "d": 357.14250000000175,
      "v": 100
    },
    {
      "midi": 72,
      "hit": false,
      "t": 123928.44750000004,
      "d": 1785.7124999999942,
      "v": 100
    },
    {
      "midi": 78,
      "hit": false,
      "t": 123928.4475000003,
      "d": 714.2850000000035,
      "v": 100
    },
    {
      "midi": 50,
      "hit": false,
      "t": 123928.44750000037,
      "d": 357.14250000000175,
      "v": 100
    },
    {
      "midi": 57,
      "hit": false,
      "t": 124285.59000000037,
      "d": 357.14250000000175,
      "v": 100
    },
    {
      "midi": 79,
      "hit": false,
      "t": 124642.7325000003,
      "d": 357.14250000000175,
      "v": 100
    },
    {
      "midi": 50,
      "hit": false,
      "t": 124642.73250000038,
      "d": 357.14250000000175,
      "v": 100
    },
    {
      "midi": 81,
      "hit": false,
      "t": 124999.8750000003,
      "d": 357.14250000000175,
      "v": 100
    },
    {
      "midi": 54,
      "hit": false,
      "t": 124999.87500000038,
      "d": 357.14250000000175,
      "v": 100
    },
    {
      "midi": 81,
      "hit": false,
      "t": 125357.01750000031,
      "d": 714.2850000000035,
      "v": 100
    },
    {
      "midi": 50,
      "hit": false,
      "t": 125357.01750000038,
      "d": 357.14250000000175,
      "v": 100
    },
    {
      "midi": 70,
      "hit": false,
      "t": 125714.16000000003,
      "d": 2857.1399999999994,
      "v": 100
    },
    {
      "midi": 74,
      "hit": false,
      "t": 125714.16000000003,
      "d": 2857.1399999999994,
      "v": 100
    },
    {
      "midi": 43,
      "hit": false,
      "t": 125714.16000000038,
      "d": 357.14250000000175,
      "v": 100
    },
    {
      "midi": 79,
      "hit": false,
      "t": 126071.30250000031,
      "d": 1785.7124999999942,
      "v": 100
    },
    {
      "midi": 50,
      "hit": false,
      "t": 126071.30250000038,
      "d": 357.14250000000175,
      "v": 100
    },
    {
      "midi": 55,
      "hit": false,
      "t": 126428.44500000039,
      "d": 357.14250000000175,
      "v": 100
    },
    {
      "midi": 50,
      "hit": false,
      "t": 126785.58750000039,
      "d": 357.14250000000175,
      "v": 100
    },
    {
      "midi": 58,
      "hit": false,
      "t": 127142.73000000039,
      "d": 357.14250000000175,
      "v": 100
    },
    {
      "midi": 50,
      "hit": false,
      "t": 127499.87250000039,
      "d": 357.14250000000175,
      "v": 100
    },
    {
      "midi": 55,
      "hit": false,
      "t": 127857.01500000039,
      "d": 357.14250000000175,
      "v": 100
    },
    {
      "midi": 74,
      "hit": false,
      "t": 128214.1575000003,
      "d": 357.14250000000175,
      "v": 100
    },
    {
      "midi": 50,
      "hit": false,
      "t": 128214.1575000004,
      "d": 357.14250000000175,
      "v": 100
    },
    {
      "midi": 67,
      "hit": false,
      "t": 128571.30000000003,
      "d": 357.14250000000175,
      "v": 100
    },
    {
      "midi": 70,
      "hit": false,
      "t": 128571.30000000003,
      "d": 357.14250000000175,
      "v": 100
    },
    {
      "midi": 79,
      "hit": false,
      "t": 128571.30000000031,
      "d": 357.14250000000175,
      "v": 100
    },
    {
      "midi": 39,
      "hit": false,
      "t": 128571.3000000004,
      "d": 1428.570000000007,
      "v": 100
    },
    {
      "midi": 51,
      "hit": false,
      "t": 128571.3000000004,
      "d": 1428.570000000007,
      "v": 100
    },
    {
      "midi": 67,
      "hit": false,
      "t": 128928.44250000003,
      "d": 357.14250000000175,
      "v": 100
    },
    {
      "midi": 70,
      "hit": false,
      "t": 128928.44250000003,
      "d": 357.14250000000175,
      "v": 100
    },
    {
      "midi": 77,
      "hit": false,
      "t": 128928.44250000031,
      "d": 357.14250000000175,
      "v": 100
    },
    {
      "midi": 67,
      "hit": false,
      "t": 129285.58500000004,
      "d": 357.14250000000175,
      "v": 100
    },
    {
      "midi": 70,
      "hit": false,
      "t": 129285.58500000004,
      "d": 357.14250000000175,
      "v": 100
    },
    {
      "midi": 77,
      "hit": false,
      "t": 129285.58500000031,
      "d": 357.14250000000175,
      "v": 100
    },
    {
      "midi": 67,
      "hit": false,
      "t": 129642.72750000004,
      "d": 357.14250000000175,
      "v": 100
    },
    {
      "midi": 70,
      "hit": false,
      "t": 129642.72750000004,
      "d": 357.14250000000175,
      "v": 100
    },
    {
      "midi": 74,
      "hit": false,
      "t": 129642.72750000031,
      "d": 357.14250000000175,
      "v": 100
    },
    {
      "midi": 69,
      "hit": false,
      "t": 129999.87000000004,
      "d": 357.14250000000175,
      "v": 100
    },
    {
      "midi": 72,
      "hit": false,
      "t": 129999.87000000004,
      "d": 357.14250000000175,
      "v": 100
    },
    {
      "midi": 79,
      "hit": false,
      "t": 129999.87000000032,
      "d": 357.14250000000175,
      "v": 100
    },
    {
      "midi": 41,
      "hit": false,
      "t": 129999.8700000004,
      "d": 357.14250000000175,
      "v": 100
    },
    {
      "midi": 53,
      "hit": false,
      "t": 129999.8700000004,
      "d": 357.14250000000175,
      "v": 100
    },
    {
      "midi": 69,
      "hit": false,
      "t": 130357.01250000004,
      "d": 1071.4274999999907,
      "v": 100
    },
    {
      "midi": 72,
      "hit": false,
      "t": 130357.01250000004,
      "d": 1071.4274999999907,
      "v": 100
    },
    {
      "midi": 77,
      "hit": false,
      "t": 130357.01250000032,
      "d": 1071.4275000000052,
      "v": 100
    },
    {
      "midi": 41,
      "hit": false,
      "t": 130357.0125000004,
      "d": 1071.4275000000052,
      "v": 100
    },
    {
      "midi": 53,
      "hit": false,
      "t": 130357.0125000004,
      "d": 1071.4275000000052,
      "v": 100
    },
    {
      "midi": 72,
      "hit": false,
      "t": 131428.44000000032,
      "d": 714.2850000000035,
      "v": 100
    },
    {
      "midi": 76,
      "hit": false,
      "t": 131428.44000000032,
      "d": 714.2850000000035,
      "v": 100
    },
    {
      "midi": 81,
      "hit": false,
      "t": 131428.44000000032,
      "d": 714.2850000000035,
      "v": 100
    },
    {
      "midi": 45,
      "hit": false,
      "t": 131428.4400000004,
      "d": 357.1424999999872,
      "v": 100
    },
    {
      "midi": 52,
      "hit": false,
      "t": 131785.5825000004,
      "d": 357.1424999999872,
      "v": 100
    },
    {
      "midi": 76,
      "hit": false,
      "t": 132142.72500000033,
      "d": 714.2850000000035,
      "v": 100
    },
    {
      "midi": 57,
      "hit": false,
      "t": 132142.72500000038,
      "d": 357.1424999999872,
      "v": 100
    },
    {
      "midi": 60,
      "hit": false,
      "t": 132499.86750000037,
      "d": 1785.7124999999942,
      "v": 100
    },
    {
      "midi": 69,
      "hit": false,
      "t": 132857.01000000033,
      "d": 357.1424999999872,
      "v": 100
    },
    {
      "midi": 71,
      "hit": false,
      "t": 133214.15250000032,
      "d": 357.1424999999872,
      "v": 100
    },
    {
      "midi": 72,
      "hit": false,
      "t": 133571.2950000003,
      "d": 357.1424999999872,
      "v": 100
    },
    {
      "midi": 72,
      "hit": false,
      "t": 133928.4375000003,
      "d": 714.2850000000035,
      "v": 100
    },
    {
      "midi": 53,
      "hit": false,
      "t": 134285.58000000037,
      "d": 357.1424999999872,
      "v": 100
    },
    {
      "midi": 69,
      "hit": false,
      "t": 134642.7225000003,
      "d": 357.1424999999872,
      "v": 100
    },
    {
      "midi": 57,
      "hit": false,
      "t": 134642.72250000035,
      "d": 357.1424999999872,
      "v": 100
    },
    {
      "midi": 76,
      "hit": false,
      "t": 134999.86500000028,
      "d": 357.1424999999872,
      "v": 100
    },
    {
      "midi": 60,
      "hit": false,
      "t": 134999.86500000034,
      "d": 357.1424999999872,
      "v": 100
    },
    {
      "midi": 74,
      "hit": false,
      "t": 135357.00750000027,
      "d": 714.2850000000035,
      "v": 100
    },
    {
      "midi": 55,
      "hit": false,
      "t": 135357.00750000033,
      "d": 714.2850000000035,
      "v": 100
    },
    {
      "midi": 72,
      "hit": false,
      "t": 136071.29250000027,
      "d": 357.1424999999872,
      "v": 100
    },
    {
      "midi": 59,
      "hit": false,
      "t": 136071.29250000033,
      "d": 357.1424999999872,
      "v": 100
    },
    {
      "midi": 71,
      "hit": false,
      "t": 136428.43500000026,
      "d": 357.1424999999872,
      "v": 100
    },
    {
      "midi": 62,
      "hit": false,
      "t": 136428.43500000032,
      "d": 714.2850000000035,
      "v": 100
    },
    {
      "midi": 72,
      "hit": false,
      "t": 136785.57750000025,
      "d": 357.1424999999872,
      "v": 100
    },
    {
      "midi": 69,
      "hit": false,
      "t": 137142.72000000023,
      "d": 714.2850000000035,
      "v": 100
    },
    {
      "midi": 45,
      "hit": false,
      "t": 137142.72000000032,
      "d": 357.1424999999872,
      "v": 100
    },
    {
      "midi": 52,
      "hit": false,
      "t": 137499.8625000003,
      "d": 357.1424999999872,
      "v": 100
    },
    {
      "midi": 76,
      "hit": false,
      "t": 137857.00500000024,
      "d": 714.2850000000035,
      "v": 100
    },
    {
      "midi": 57,
      "hit": false,
      "t": 137857.0050000003,
      "d": 357.1424999999872,
      "v": 100
    },
    {
      "midi": 60,
      "hit": false,
      "t": 138214.14750000028,
      "d": 1785.7124999999942,
      "v": 100
    },
    {
      "midi": 69,
      "hit": false,
      "t": 138571.29000000024,
      "d": 357.1424999999872,
      "v": 100
    },
    {
      "midi": 71,
      "hit": false,
      "t": 138928.43250000023,
      "d": 357.1424999999872,
      "v": 100
    },
    {
      "midi": 72,
      "hit": false,
      "t": 139285.57500000022,
      "d": 357.1424999999872,
      "v": 100
    },
    {
      "midi": 72,
      "hit": false,
      "t": 139642.7175000002,
      "d": 1428.570000000007,
      "v": 100
    },
    {
      "midi": 53,
      "hit": false,
      "t": 139999.86000000028,
      "d": 357.1424999999872,
      "v": 100
    },
    {
      "midi": 57,
      "hit": false,
      "t": 140357.00250000026,
      "d": 357.1424999999872,
      "v": 100
    },
    {
      "midi": 60,
      "hit": false,
      "t": 140714.14500000025,
      "d": 357.1424999999872,
      "v": 100
    },
    {
      "midi": 74,
      "hit": false,
      "t": 141071.2875000002,
      "d": 714.2850000000035,
      "v": 100
    },
    {
      "midi": 55,
      "hit": false,
      "t": 141071.28750000024,
      "d": 1071.4274999999907,
      "v": 100
    },
    {
      "midi": 72,
      "hit": false,
      "t": 141785.5725000002,
      "d": 357.1424999999872,
      "v": 100
    },
    {
      "midi": 76,
      "hit": false,
      "t": 142142.7150000002,
      "d": 357.1424999999872,
      "v": 100
    },
    {
      "midi": 62,
      "hit": false,
      "t": 142142.71500000023,
      "d": 714.2850000000035,
      "v": 100
    },
    {
      "midi": 76,
      "hit": false,
      "t": 142499.8575000002,
      "d": 357.1424999999872,
      "v": 100
    },
    {
      "midi": 48,
      "hit": false,
      "t": 142857.00000000023,
      "d": 357.1424999999872,
      "v": 100
    },
    {
      "midi": 55,
      "hit": false,
      "t": 143214.14250000022,
      "d": 357.1424999999872,
      "v": 100
    },
    {
      "midi": 72,
      "hit": false,
      "t": 143571.28500000018,
      "d": 178.57125000000815,
      "v": 100
    },
    {
      "midi": 76,
      "hit": false,
      "t": 143571.28500000018,
      "d": 178.57125000000815,
      "v": 100
    },
    {
      "midi": 60,
      "hit": false,
      "t": 143571.2850000002,
      "d": 714.2850000000035,
      "v": 100
    },
    {
      "midi": 72,
      "hit": false,
      "t": 143749.8562500002,
      "d": 178.57125000000815,
      "v": 100
    },
    {
      "midi": 76,
      "hit": false,
      "t": 143749.8562500002,
      "d": 178.57125000000815,
      "v": 100
    },
    {
      "midi": 72,
      "hit": false,
      "t": 143928.4275000002,
      "d": 178.57125000000815,
      "v": 100
    },
    {
      "midi": 76,
      "hit": false,
      "t": 143928.4275000002,
      "d": 178.57125000000815,
      "v": 100
    },
    {
      "midi": 72,
      "hit": false,
      "t": 144106.9987500002,
      "d": 535.7137499999953,
      "v": 100
    },
    {
      "midi": 76,
      "hit": false,
      "t": 144106.9987500002,
      "d": 535.7137499999953,
      "v": 100
    },
    {
      "midi": 53,
      "hit": false,
      "t": 144285.5700000002,
      "d": 357.1424999999872,
      "v": 100
    },
    {
      "midi": 72,
      "hit": false,
      "t": 144642.7125000002,
      "d": 178.57125000000815,
      "v": 100
    },
    {
      "midi": 76,
      "hit": false,
      "t": 144642.7125000002,
      "d": 178.57125000000815,
      "v": 100
    },
    {
      "midi": 57,
      "hit": false,
      "t": 144642.7125000002,
      "d": 357.1424999999872,
      "v": 100
    },
    {
      "midi": 72,
      "hit": false,
      "t": 144821.2837500002,
      "d": 535.7137499999953,
      "v": 100
    },
    {
      "midi": 76,
      "hit": false,
      "t": 144821.2837500002,
      "d": 535.7137499999953,
      "v": 100
    },
    {
      "midi": 60,
      "hit": false,
      "t": 144999.85500000019,
      "d": 714.2850000000035,
      "v": 100
    },
    {
      "midi": 74,
      "hit": false,
      "t": 145356.9975000002,
      "d": 178.57125000000815,
      "v": 100
    },
    {
      "midi": 71,
      "hit": false,
      "t": 145535.5687500002,
      "d": 535.7137499999953,
      "v": 100
    },
    {
      "midi": 52,
      "hit": false,
      "t": 145714.1400000002,
      "d": 357.1424999999872,
      "v": 100
    },
    {
      "midi": 55,
      "hit": false,
      "t": 146071.28250000018,
      "d": 357.1424999999872,
      "v": 100
    },
    {
      "midi": 71,
      "hit": false,
      "t": 146071.2825000002,
      "d": 178.57125000000815,
      "v": 100
    },
    {
      "midi": 71,
      "hit": false,
      "t": 146249.8537500002,
      "d": 714.2850000000035,
      "v": 100
    },
    {
      "midi": 59,
      "hit": false,
      "t": 146428.42500000016,
      "d": 714.2850000000035,
      "v": 100
    },
    {
      "midi": 68,
      "hit": false,
      "t": 146964.13875000022,
      "d": 178.57125000000815,
      "v": 100
    },
    {
      "midi": 76,
      "hit": false,
      "t": 146964.13875000022,
      "d": 178.57125000000815,
      "v": 100
    },
    {
      "midi": 52,
      "hit": false,
      "t": 147142.71000000017,
      "d": 357.1424999999872,
      "v": 100
    },
    {
      "midi": 68,
      "hit": false,
      "t": 147142.71000000022,
      "d": 357.1424999999872,
      "v": 100
    },
    {
      "midi": 76,
      "hit": false,
      "t": 147142.71000000022,
      "d": 357.1424999999872,
      "v": 100
    },
    {
      "midi": 56,
      "hit": false,
      "t": 147499.85250000015,
      "d": 357.1424999999872,
      "v": 100
    },
    {
      "midi": 69,
      "hit": false,
      "t": 147499.8525000002,
      "d": 178.57125000000815,
      "v": 100
    },
    {
      "midi": 78,
      "hit": false,
      "t": 147499.8525000002,
      "d": 178.57125000000815,
      "v": 100
    },
    {
      "midi": 71,
      "hit": false,
      "t": 147678.42375000022,
      "d": 535.7137499999953,
      "v": 100
    },
    {
      "midi": 80,
      "hit": false,
      "t": 147678.42375000022,
      "d": 535.7137499999953,
      "v": 100
    },
    {
      "midi": 59,
      "hit": false,
      "t": 147856.99500000014,
      "d": 714.2850000000035,
      "v": 100
    },
    {
      "midi": 72,
      "hit": false,
      "t": 148214.13750000022,
      "d": 357.1424999999872,
      "v": 100
    },
    {
      "midi": 76,
      "hit": false,
      "t": 148214.13750000022,
      "d": 357.1424999999872,
      "v": 100
    },
    {
      "midi": 45,
      "hit": false,
      "t": 148571.28000000014,
      "d": 357.1424999999872,
      "v": 100
    },
    {
      "midi": 69,
      "hit": false,
      "t": 148571.2800000002,
      "d": 1785.7124999999942,
      "v": 100
    },
    {
      "midi": 76,
      "hit": false,
      "t": 148571.2800000002,
      "d": 1785.7124999999942,
      "v": 100
    },
    {
      "midi": 81,
      "hit": false,
      "t": 148571.2800000002,
      "d": 1785.7124999999942,
      "v": 100
    },
    {
      "midi": 52,
      "hit": false,
      "t": 148928.42250000013,
      "d": 357.1424999999872,
      "v": 100
    },
    {
      "midi": 57,
      "hit": false,
      "t": 149285.56500000012,
      "d": 357.1424999999872,
      "v": 100
    },
    {
      "midi": 52,
      "hit": false,
      "t": 149642.7075000001,
      "d": 357.1424999999872,
      "v": 100
    },
    {
      "midi": 60,
      "hit": false,
      "t": 149999.8500000001,
      "d": 357.1424999999872,
      "v": 100
    },
    {
      "midi": 52,
      "hit": false,
      "t": 150356.99250000008,
      "d": 357.1424999999872,
      "v": 100
    },
    {
      "midi": 79,
      "hit": false,
      "t": 150356.9925000002,
      "d": 535.7137499999953,
      "v": 100
    },
    {
      "midi": 57,
      "hit": false,
      "t": 150714.13500000007,
      "d": 357.1424999999872,
      "v": 100
    },
    {
      "midi": 77,
      "hit": false,
      "t": 150892.7062500002,
      "d": 535.7137499999953,
      "v": 100
    },
    {
      "midi": 52,
      "hit": false,
      "t": 151071.27750000005,
      "d": 357.1424999999872,
      "v": 100
    },
    {
      "midi": 41,
      "hit": false,
      "t": 151428.42000000004,
      "d": 357.1424999999872,
      "v": 100
    },
    {
      "midi": 76,
      "hit": false,
      "t": 151428.4200000002,
      "d": 535.7137499999953,
      "v": 100
    },
    {
      "midi": 48,
      "hit": false,
      "t": 151785.56250000003,
      "d": 357.1424999999872,
      "v": 100
    },
    {
      "midi": 74,
      "hit": false,
      "t": 151964.13375000018,
      "d": 535.7137499999953,
      "v": 100
    },
    {
      "midi": 57,
      "hit": false,
      "t": 152142.70500000002,
      "d": 357.1424999999872,
      "v": 100
    },
    {
      "midi": 43,
      "hit": false,
      "t": 152499.8475,
      "d": 714.2850000000035,
      "v": 100
    },
    {
      "midi": 72,
      "hit": false,
      "t": 152499.84750000018,
      "d": 1071.4274999999907,
      "v": 100
    },
    {
      "midi": 50,
      "hit": false,
      "t": 153214.1325,
      "d": 357.1424999999872,
      "v": 100
    },
    {
      "midi": 55,
      "hit": false,
      "t": 153571.275,
      "d": 714.2850000000035,
      "v": 100
    },
    {
      "midi": 72,
      "hit": false,
      "t": 153571.27500000017,
      "d": 178.57125000000815,
      "v": 100
    },
    {
      "midi": 74,
      "hit": false,
      "t": 153749.84625000018,
      "d": 178.57125000000815,
      "v": 100
    },
    {
      "midi": 76,
      "hit": false,
      "t": 153928.41750000019,
      "d": 178.57125000000815,
      "v": 100
    },
    {
      "midi": 77,
      "hit": false,
      "t": 154106.9887500002,
      "d": 178.57125000000815,
      "v": 100
    },
    {
      "midi": 45,
      "hit": false,
      "t": 154285.56,
      "d": 357.1424999999872,
      "v": 100
    },
    {
      "midi": 76,
      "hit": false,
      "t": 154285.5600000002,
      "d": 357.1424999999872,
      "v": 100
    },
    {
      "midi": 52,
      "hit": false,
      "t": 154642.70249999998,
      "d": 357.1424999999872,
      "v": 100
    },
    {
      "midi": 74,
      "hit": false,
      "t": 154642.7025000002,
      "d": 357.1424999999872,
      "v": 100
    },
    {
      "midi": 57,
      "hit": false,
      "t": 154999.84499999997,
      "d": 357.1424999999872,
      "v": 100
    },
    {
      "midi": 76,
      "hit": false,
      "t": 154999.84500000018,
      "d": 357.1424999999872,
      "v": 100
    },
    {
      "midi": 52,
      "hit": false,
      "t": 155356.98749999996,
      "d": 357.1424999999872,
      "v": 100
    },
    {
      "midi": 72,
      "hit": false,
      "t": 155356.98750000016,
      "d": 1785.7124999999942,
      "v": 100
    },
    {
      "midi": 60,
      "hit": false,
      "t": 155714.12999999995,
      "d": 357.1424999999872,
      "v": 100
    },
    {
      "midi": 52,
      "hit": false,
      "t": 156071.27249999993,
      "d": 357.1424999999872,
      "v": 100
    },
    {
      "midi": 57,
      "hit": false,
      "t": 156428.41499999992,
      "d": 357.1424999999872,
      "v": 100
    },
    {
      "midi": 52,
      "hit": false,
      "t": 156785.5574999999,
      "d": 357.1424999999872,
      "v": 100
    },
    {
      "midi": 41,
      "hit": false,
      "t": 157142.6999999999,
      "d": 357.1424999999872,
      "v": 100
    },
    {
      "midi": 53,
      "hit": false,
      "t": 157142.6999999999,
      "d": 357.1424999999872,
      "v": 100
    },
    {
      "midi": 60,
      "hit": false,
      "t": 157142.70000000016,
      "d": 357.1424999999872,
      "v": 100
    },
    {
      "midi": 65,
      "hit": false,
      "t": 157142.70000000016,
      "d": 357.1424999999872,
      "v": 100
    },
    {
      "midi": 69,
      "hit": false,
      "t": 157142.70000000016,
      "d": 357.1424999999872,
      "v": 100
    },
    {
      "midi": 41,
      "hit": false,
      "t": 157499.84249999988,
      "d": 357.1424999999872,
      "v": 100
    },
    {
      "midi": 53,
      "hit": false,
      "t": 157499.84249999988,
      "d": 357.1424999999872,
      "v": 100
    },
    {
      "midi": 60,
      "hit": false,
      "t": 157499.84250000014,
      "d": 357.1424999999872,
      "v": 100
    },
    {
      "midi": 65,
      "hit": false,
      "t": 157499.84250000014,
      "d": 357.1424999999872,
      "v": 100
    },
    {
      "midi": 69,
      "hit": false,
      "t": 157499.84250000014,
      "d": 357.1424999999872,
      "v": 100
    },
    {
      "midi": 43,
      "hit": false,
      "t": 158571.26999999987,
      "d": 357.1424999999872,
      "v": 100
    },
    {
      "midi": 55,
      "hit": false,
      "t": 158571.26999999987,
      "d": 357.1424999999872,
      "v": 100
    },
    {
      "midi": 62,
      "hit": false,
      "t": 158571.27000000014,
      "d": 357.1424999999872,
      "v": 100
    },
    {
      "midi": 65,
      "hit": false,
      "t": 158571.27000000014,
      "d": 357.1424999999872,
      "v": 100
    },
    {
      "midi": 67,
      "hit": false,
      "t": 158571.27000000014,
      "d": 357.1424999999872,
      "v": 100
    },
    {
      "midi": 71,
      "hit": false,
      "t": 158571.27000000014,
      "d": 357.1424999999872,
      "v": 100
    },
    {
      "midi": 43,
      "hit": false,
      "t": 158928.41249999986,
      "d": 357.1424999999872,
      "v": 100
    },
    {
      "midi": 55,
      "hit": false,
      "t": 158928.41249999986,
      "d": 357.1424999999872,
      "v": 100
    },
    {
      "midi": 62,
      "hit": false,
      "t": 158928.41250000012,
      "d": 357.1424999999872,
      "v": 100
    },
    {
      "midi": 65,
      "hit": false,
      "t": 158928.41250000012,
      "d": 357.1424999999872,
      "v": 100
    },
    {
      "midi": 67,
      "hit": false,
      "t": 158928.41250000012,
      "d": 357.1424999999872,
      "v": 100
    },
    {
      "midi": 71,
      "hit": false,
      "t": 158928.41250000012,
      "d": 357.1424999999872,
      "v": 100
    },
    {
      "midi": 69,
      "hit": false,
      "t": 159642.6975000001,
      "d": 178.57125000000815,
      "v": 100
    },
    {
      "midi": 71,
      "hit": false,
      "t": 159821.2687500001,
      "d": 178.57125000000815,
      "v": 100
    },
    {
      "midi": 45,
      "hit": false,
      "t": 159999.83999999985,
      "d": 357.1424999999872,
      "v": 100
    },
    {
      "midi": 72,
      "hit": false,
      "t": 159999.8400000001,
      "d": 2142.8550000000105,
      "v": 100
    },
    {
      "midi": 52,
      "hit": false,
      "t": 160356.98249999984,
      "d": 357.1424999999872,
      "v": 100
    },
    {
      "midi": 57,
      "hit": false,
      "t": 160714.12499999983,
      "d": 357.1424999999872,
      "v": 100
    },
    {
      "midi": 60,
      "hit": false,
      "t": 161071.2674999998,
      "d": 1785.7124999999942,
      "v": 100
    },
    {
      "midi": 69,
      "hit": false,
      "t": 162142.69500000012,
      "d": 357.1424999999872,
      "v": 100
    },
    {
      "midi": 71,
      "hit": false,
      "t": 162499.8375000001,
      "d": 357.1424999999872,
      "v": 100
    },
    {
      "midi": 53,
      "hit": false,
      "t": 162856.9799999998,
      "d": 357.1424999999872,
      "v": 100
    },
    {
      "midi": 72,
      "hit": false,
      "t": 162856.9800000001,
      "d": 714.2850000000035,
      "v": 100
    },
    {
      "midi": 57,
      "hit": false,
      "t": 163214.1224999998,
      "d": 357.1424999999872,
      "v": 100
    },
    {
      "midi": 60,
      "hit": false,
      "t": 163571.26499999978,
      "d": 357.1424999999872,
      "v": 100
    },
    {
      "midi": 76,
      "hit": false,
      "t": 163571.2650000001,
      "d": 357.1424999999872,
      "v": 100
    },
    {
      "midi": 55,
      "hit": false,
      "t": 163928.40749999977,
      "d": 714.2850000000035,
      "v": 100
    },
    {
      "midi": 74,
      "hit": false,
      "t": 163928.4075000001,
      "d": 714.2850000000035,
      "v": 100
    },
    {
      "midi": 59,
      "hit": false,
      "t": 164642.69249999977,
      "d": 357.1424999999872,
      "v": 100
    },
    {
      "midi": 72,
      "hit": false,
      "t": 164642.6925000001,
      "d": 357.1424999999872,
      "v": 100
    },
    {
      "midi": 62,
      "hit": false,
      "t": 164999.83499999976,
      "d": 714.2850000000035,
      "v": 100
    },
    {
      "midi": 71,
      "hit": false,
      "t": 164999.83500000008,
      "d": 357.1424999999872,
      "v": 100
    },
    {
      "midi": 69,
      "hit": false,
      "t": 165356.97750000007,
      "d": 2499.9974999999977,
      "v": 100
    },
    {
      "midi": 45,
      "hit": false,
      "t": 165714.11999999976,
      "d": 357.1424999999872,
      "v": 100
    },
    {
      "midi": 52,
      "hit": false,
      "t": 166071.26249999975,
      "d": 357.1424999999872,
      "v": 100
    },
    {
      "midi": 57,
      "hit": false,
      "t": 166428.40499999974,
      "d": 357.1424999999872,
      "v": 100
    },
    {
      "midi": 60,
      "hit": false,
      "t": 166785.54749999972,
      "d": 1785.7124999999942,
      "v": 100
    },
    {
      "midi": 69,
      "hit": false,
      "t": 168214.11750000005,
      "d": 178.57125000000815,
      "v": 100
    },
    {
      "midi": 71,
      "hit": false,
      "t": 168392.68875000006,
      "d": 178.57125000000815,
      "v": 100
    },
    {
      "midi": 53,
      "hit": false,
      "t": 168571.25999999972,
      "d": 357.1424999999872,
      "v": 100
    },
    {
      "midi": 72,
      "hit": false,
      "t": 168571.26000000007,
      "d": 714.2850000000035,
      "v": 100
    },
    {
      "midi": 57,
      "hit": false,
      "t": 168928.4024999997,
      "d": 357.1424999999872,
      "v": 100
    },
    {
      "midi": 60,
      "hit": false,
      "t": 169285.5449999997,
      "d": 357.1424999999872,
      "v": 100
    },
    {
      "midi": 76,
      "hit": false,
      "t": 169285.54500000007,
      "d": 357.1424999999872,
      "v": 100
    },
    {
      "midi": 55,
      "hit": false,
      "t": 169642.68749999968,
      "d": 714.2850000000035,
      "v": 100
    },
    {
      "midi": 74,
      "hit": false,
      "t": 169642.68750000006,
      "d": 714.2850000000035,
      "v": 100
    },
    {
      "midi": 59,
      "hit": false,
      "t": 170356.97249999968,
      "d": 357.1424999999872,
      "v": 100
    },
    {
      "midi": 72,
      "hit": false,
      "t": 170356.97250000006,
      "d": 357.1424999999872,
      "v": 100
    },
    {
      "midi": 62,
      "hit": false,
      "t": 170714.11499999967,
      "d": 714.2850000000035,
      "v": 100
    },
    {
      "midi": 76,
      "hit": false,
      "t": 170714.11500000005,
      "d": 357.1424999999872,
      "v": 100
    },
    {
      "midi": 76,
      "hit": false,
      "t": 171071.25750000004,
      "d": 2499.9974999999977,
      "v": 100
    },
    {
      "midi": 48,
      "hit": false,
      "t": 171428.39999999967,
      "d": 357.1424999999872,
      "v": 100
    },
    {
      "midi": 52,
      "hit": false,
      "t": 171785.54249999966,
      "d": 357.1424999999872,
      "v": 100
    },
    {
      "midi": 55,
      "hit": false,
      "t": 172142.68499999965,
      "d": 357.1424999999872,
      "v": 100
    },
    {
      "midi": 52,
      "hit": false,
      "t": 172499.82749999964,
      "d": 357.1424999999872,
      "v": 100
    },
    {
      "midi": 60,
      "hit": false,
      "t": 172856.96999999962,
      "d": 357.1424999999872,
      "v": 100
    },
    {
      "midi": 52,
      "hit": false,
      "t": 173214.1124999996,
      "d": 357.1424999999872,
      "v": 100
    },
    {
      "midi": 55,
      "hit": false,
      "t": 173571.2549999996,
      "d": 357.1424999999872,
      "v": 100
    },
    {
      "midi": 52,
      "hit": false,
      "t": 173928.39749999958,
      "d": 357.1424999999872,
      "v": 100
    },
    {
      "midi": 74,
      "hit": false,
      "t": 173928.39750000002,
      "d": 178.57125000000815,
      "v": 100
    },
    {
      "midi": 72,
      "hit": false,
      "t": 174106.96875000003,
      "d": 178.57125000000815,
      "v": 100
    },
    {
      "midi": 40,
      "hit": false,
      "t": 174285.53999999957,
      "d": 357.1424999999872,
      "v": 100
    },
    {
      "midi": 71,
      "hit": false,
      "t": 174285.54000000004,
      "d": 1428.570000000007,
      "v": 100
    },
    {
      "midi": 47,
      "hit": false,
      "t": 174642.68249999956,
      "d": 357.1424999999872,
      "v": 100
    },
    {
      "midi": 50,
      "hit": false,
      "t": 174999.82499999955,
      "d": 357.1424999999872,
      "v": 100
    },
    {
      "midi": 47,
      "hit": false,
      "t": 175356.96749999953,
      "d": 357.1424999999872,
      "v": 100
    },
    {
      "midi": 56,
      "hit": false,
      "t": 175714.10999999952,
      "d": 357.1424999999872,
      "v": 100
    },
    {
      "midi": 47,
      "hit": false,
      "t": 176071.2524999995,
      "d": 357.1424999999872,
      "v": 100
    },
    {
      "midi": 71,
      "hit": false,
      "t": 176071.25250000003,
      "d": 178.57125000000815,
      "v": 100
    },
    {
      "midi": 69,
      "hit": false,
      "t": 176249.82375000004,
      "d": 178.57125000000815,
      "v": 100
    },
    {
      "midi": 50,
      "hit": false,
      "t": 176428.3949999995,
      "d": 357.1424999999872,
      "v": 100
    },
    {
      "midi": 68,
      "hit": false,
      "t": 176428.39500000005,
      "d": 178.57125000000815,
      "v": 100
    },
    {
      "midi": 65,
      "hit": false,
      "t": 176606.96625000006,
      "d": 178.57125000000815,
      "v": 100
    },
    {
      "midi": 47,
      "hit": false,
      "t": 176785.53749999948,
      "d": 357.1424999999872,
      "v": 100
    },
    {
      "midi": 64,
      "hit": false,
      "t": 176785.53750000006,
      "d": 178.57125000000815,
      "v": 100
    },
    {
      "midi": 62,
      "hit": false,
      "t": 176964.10875000007,
      "d": 178.57125000000815,
      "v": 100
    },
    {
      "midi": 45,
      "hit": false,
      "t": 177142.67999999947,
      "d": 357.1424999999872,
      "v": 100
    },
    {
      "midi": 60,
      "hit": false,
      "t": 177142.68000000008,
      "d": 1428.570000000007,
      "v": 100
    },
    {
      "midi": 52,
      "hit": false,
      "t": 177499.82249999946,
      "d": 357.1424999999872,
      "v": 100
    },
    {
      "midi": 57,
      "hit": false,
      "t": 177856.96499999944,
      "d": 357.1424999999872,
      "v": 100
    },
    {
      "midi": 52,
      "hit": false,
      "t": 178214.10749999943,
      "d": 357.1424999999872,
      "v": 100
    },
    {
      "midi": 60,
      "hit": false,
      "t": 178571.24999999942,
      "d": 1428.570000000007,
      "v": 100
    },
    {
      "midi": 77,
      "hit": false,
      "t": 178928.39250000007,
      "d": 357.1424999999872,
      "v": 100
    },
    {
      "midi": 81,
      "hit": false,
      "t": 178928.39250000007,
      "d": 357.1424999999872,
      "v": 100
    },
    {
      "midi": 77,
      "hit": false,
      "t": 179285.53500000006,
      "d": 357.1424999999872,
      "v": 100
    },
    {
      "midi": 81,
      "hit": false,
      "t": 179285.53500000006,
      "d": 357.1424999999872,
      "v": 100
    },
    {
      "midi": 77,
      "hit": false,
      "t": 179642.67750000005,
      "d": 714.2850000000035,
      "v": 100
    },
    {
      "midi": 81,
      "hit": false,
      "t": 179642.67750000005,
      "d": 714.2850000000035,
      "v": 100
    },
    {
      "midi": 41,
      "hit": false,
      "t": 179999.81999999942,
      "d": 357.1424999999872,
      "v": 100
    },
    {
      "midi": 48,
      "hit": false,
      "t": 180356.9624999994,
      "d": 357.1424999999872,
      "v": 100
    },
    {
      "midi": 77,
      "hit": false,
      "t": 180356.96250000005,
      "d": 357.1424999999872,
      "v": 100
    },
    {
      "midi": 81,
      "hit": false,
      "t": 180356.96250000005,
      "d": 357.1424999999872,
      "v": 100
    },
    {
      "midi": 57,
      "hit": false,
      "t": 180714.1049999994,
      "d": 357.1424999999872,
      "v": 100
    },
    {
      "midi": 77,
      "hit": false,
      "t": 180714.10500000004,
      "d": 357.1424999999872,
      "v": 100
    },
    {
      "midi": 81,
      "hit": false,
      "t": 180714.10500000004,
      "d": 357.1424999999872,
      "v": 100
    },
    {
      "midi": 43,
      "hit": false,
      "t": 181071.2474999994,
      "d": 714.2850000000035,
      "v": 100
    },
    {
      "midi": 74,
      "hit": false,
      "t": 181071.24750000003,
      "d": 714.2850000000035,
      "v": 100
    },
    {
      "midi": 79,
      "hit": false,
      "t": 181071.24750000003,
      "d": 714.2850000000035,
      "v": 100
    },
    {
      "midi": 84,
      "hit": false,
      "t": 181071.24750000003,
      "d": 714.2850000000035,
      "v": 100
    },
    {
      "midi": 50,
      "hit": false,
      "t": 181785.5324999994,
      "d": 357.1424999999872,
      "v": 100
    },
    {
      "midi": 74,
      "hit": false,
      "t": 181785.53250000003,
      "d": 357.1424999999872,
      "v": 100
    },
    {
      "midi": 79,
      "hit": false,
      "t": 181785.53250000003,
      "d": 357.1424999999872,
      "v": 100
    },
    {
      "midi": 83,
      "hit": false,
      "t": 181785.53250000003,
      "d": 357.1424999999872,
      "v": 100
    },
    {
      "midi": 59,
      "hit": false,
      "t": 182142.67499999938,
      "d": 714.2850000000035,
      "v": 100
    },
    {
      "midi": 83,
      "hit": false,
      "t": 182142.67500000002,
      "d": 357.1424999999872,
      "v": 100
    },
    {
      "midi": 81,
      "hit": false,
      "t": 182499.8175,
      "d": 357.1424999999872,
      "v": 100
    },
    {
      "midi": 45,
      "hit": false,
      "t": 182856.95999999938,
      "d": 357.1424999999872,
      "v": 100
    },
    {
      "midi": 81,
      "hit": false,
      "t": 182856.96,
      "d": 357.1424999999872,
      "v": 100
    },
    {
      "midi": 52,
      "hit": false,
      "t": 183214.10249999937,
      "d": 357.1424999999872,
      "v": 100
    },
    {
      "midi": 72,
      "hit": false,
      "t": 183214.10249999998,
      "d": 357.1424999999872,
      "v": 100
    },
    {
      "midi": 76,
      "hit": false,
      "t": 183214.10249999998,
      "d": 357.1424999999872,
      "v": 100
    },
    {
      "midi": 57,
      "hit": false,
      "t": 183571.24499999936,
      "d": 357.1424999999872,
      "v": 100
    },
    {
      "midi": 72,
      "hit": false,
      "t": 183571.24499999997,
      "d": 357.1424999999872,
      "v": 100
    },
    {
      "midi": 76,
      "hit": false,
      "t": 183571.24499999997,
      "d": 357.1424999999872,
      "v": 100
    },
    {
      "midi": 52,
      "hit": false,
      "t": 183928.38749999934,
      "d": 357.1424999999872,
      "v": 100
    },
    {
      "midi": 72,
      "hit": false,
      "t": 183928.38749999995,
      "d": 357.1424999999872,
      "v": 100
    },
    {
      "midi": 76,
      "hit": false,
      "t": 183928.38749999995,
      "d": 357.1424999999872,
      "v": 100
    },
    {
      "midi": 60,
      "hit": false,
      "t": 184285.52999999933,
      "d": 357.1424999999872,
      "v": 100
    },
    {
      "midi": 72,
      "hit": false,
      "t": 184285.52999999994,
      "d": 357.1424999999872,
      "v": 100
    },
    {
      "midi": 76,
      "hit": false,
      "t": 184285.52999999994,
      "d": 357.1424999999872,
      "v": 100
    },
    {
      "midi": 52,
      "hit": false,
      "t": 184642.67249999932,
      "d": 357.1424999999872,
      "v": 100
    },
    {
      "midi": 72,
      "hit": false,
      "t": 184642.67249999993,
      "d": 714.2850000000035,
      "v": 100
    },
    {
      "midi": 76,
      "hit": false,
      "t": 184642.67249999993,
      "d": 714.2850000000035,
      "v": 100
    },
    {
      "midi": 57,
      "hit": false,
      "t": 184999.8149999993,
      "d": 357.1424999999872,
      "v": 100
    },
    {
      "midi": 52,
      "hit": false,
      "t": 185356.9574999993,
      "d": 357.1424999999872,
      "v": 100
    },
    {
      "midi": 72,
      "hit": false,
      "t": 185356.95749999993,
      "d": 357.1424999999872,
      "v": 100
    },
    {
      "midi": 76,
      "hit": false,
      "t": 185356.95749999993,
      "d": 357.1424999999872,
      "v": 100
    },
    {
      "midi": 41,
      "hit": false,
      "t": 185714.09999999928,
      "d": 357.1424999999872,
      "v": 100
    },
    {
      "midi": 77,
      "hit": false,
      "t": 185714.09999999992,
      "d": 714.2850000000035,
      "v": 100
    },
    {
      "midi": 69,
      "hit": false,
      "t": 185714.10000000003,
      "d": 1071.4274999999907,
      "v": 100
    },
    {
      "midi": 72,
      "hit": false,
      "t": 185714.10000000003,
      "d": 1071.4274999999907,
      "v": 100
    },
    {
      "midi": 48,
      "hit": false,
      "t": 186071.24249999927,
      "d": 357.1424999999872,
      "v": 100
    },
    {
      "midi": 53,
      "hit": false,
      "t": 186428.38499999925,
      "d": 357.1424999999872,
      "v": 100
    },
    {
      "midi": 74,
      "hit": false,
      "t": 186428.38499999992,
      "d": 357.1424999999872,
      "v": 100
    },
    {
      "midi": 43,
      "hit": false,
      "t": 186785.52749999924,
      "d": 714.2850000000035,
      "v": 100
    },
    {
      "midi": 72,
      "hit": false,
      "t": 186785.5274999999,
      "d": 1071.4274999999907,
      "v": 100
    },
    {
      "midi": 67,
      "hit": false,
      "t": 186785.52750000003,
      "d": 1785.7124999999942,
      "v": 100
    },
    {
      "midi": 50,
      "hit": false,
      "t": 187499.81249999924,
      "d": 357.1424999999872,
      "v": 100
    },
    {
      "midi": 55,
      "hit": false,
      "t": 187856.95499999923,
      "d": 357.1424999999872,
      "v": 100
    },
    {
      "midi": 71,
      "hit": false,
      "t": 187856.9549999999,
      "d": 714.2850000000035,
      "v": 100
    },
    {
      "midi": 43,
      "hit": false,
      "t": 188214.09749999922,
      "d": 357.1424999999872,
      "v": 100
    },
    {
      "midi": 45,
      "hit": false,
      "t": 188571.2399999992,
      "d": 357.1424999999872,
      "v": 100
    },
    {
      "midi": 52,
      "hit": false,
      "t": 188928.3824999992,
      "d": 357.1424999999872,
      "v": 100
    },
    {
      "midi": 72,
      "hit": false,
      "t": 188928.3824999999,
      "d": 357.1424999999872,
      "v": 100
    },
    {
      "midi": 76,
      "hit": false,
      "t": 188928.3824999999,
      "d": 357.1424999999872,
      "v": 100
    },
    {
      "midi": 57,
      "hit": false,
      "t": 189285.52499999918,
      "d": 357.1424999999872,
      "v": 100
    },
    {
      "midi": 72,
      "hit": false,
      "t": 189285.52499999988,
      "d": 357.1424999999872,
      "v": 100
    },
    {
      "midi": 76,
      "hit": false,
      "t": 189285.52499999988,
      "d": 357.1424999999872,
      "v": 100
    },
    {
      "midi": 52,
      "hit": false,
      "t": 189642.66749999917,
      "d": 357.1424999999872,
      "v": 100
    },
    {
      "midi": 72,
      "hit": false,
      "t": 189642.66749999986,
      "d": 357.1424999999872,
      "v": 100
    },
    {
      "midi": 76,
      "hit": false,
      "t": 189642.66749999986,
      "d": 357.1424999999872,
      "v": 100
    },
    {
      "midi": 60,
      "hit": false,
      "t": 189999.80999999915,
      "d": 357.1424999999872,
      "v": 100
    },
    {
      "midi": 72,
      "hit": false,
      "t": 189999.80999999985,
      "d": 357.1424999999872,
      "v": 100
    },
    {
      "midi": 76,
      "hit": false,
      "t": 189999.80999999985,
      "d": 357.1424999999872,
      "v": 100
    },
    {
      "midi": 52,
      "hit": false,
      "t": 190356.95249999914,
      "d": 357.1424999999872,
      "v": 100
    },
    {
      "midi": 72,
      "hit": false,
      "t": 190356.95249999984,
      "d": 714.2850000000035,
      "v": 100
    },
    {
      "midi": 76,
      "hit": false,
      "t": 190356.95249999984,
      "d": 714.2850000000035,
      "v": 100
    },
    {
      "midi": 57,
      "hit": false,
      "t": 190714.09499999913,
      "d": 357.1424999999872,
      "v": 100
    },
    {
      "midi": 52,
      "hit": false,
      "t": 191071.23749999912,
      "d": 357.1424999999872,
      "v": 100
    },
    {
      "midi": 72,
      "hit": false,
      "t": 191071.23749999984,
      "d": 357.1424999999872,
      "v": 100
    },
    {
      "midi": 76,
      "hit": false,
      "t": 191071.23749999984,
      "d": 357.1424999999872,
      "v": 100
    },
    {
      "midi": 41,
      "hit": false,
      "t": 191428.3799999991,
      "d": 357.1424999999872,
      "v": 100
    },
    {
      "midi": 77,
      "hit": false,
      "t": 191428.37999999983,
      "d": 714.2850000000035,
      "v": 100
    },
    {
      "midi": 69,
      "hit": false,
      "t": 191428.38000000003,
      "d": 1071.4274999999907,
      "v": 100
    },
    {
      "midi": 72,
      "hit": false,
      "t": 191428.38000000003,
      "d": 1071.4274999999907,
      "v": 100
    },
    {
      "midi": 48,
      "hit": false,
      "t": 191785.5224999991,
      "d": 357.1424999999872,
      "v": 100
    },
    {
      "midi": 53,
      "hit": false,
      "t": 192142.66499999908,
      "d": 357.1424999999872,
      "v": 100
    },
    {
      "midi": 74,
      "hit": false,
      "t": 192142.66499999983,
      "d": 357.1424999999872,
      "v": 100
    },
    {
      "midi": 43,
      "hit": false,
      "t": 192499.80749999906,
      "d": 714.2850000000035,
      "v": 100
    },
    {
      "midi": 72,
      "hit": false,
      "t": 192499.80749999982,
      "d": 1071.4274999999907,
      "v": 100
    },
    {
      "midi": 67,
      "hit": false,
      "t": 192499.80750000002,
      "d": 1785.7124999999942,
      "v": 100
    },
    {
      "midi": 50,
      "hit": false,
      "t": 193214.09249999907,
      "d": 357.1424999999872,
      "v": 100
    },
    {
      "midi": 55,
      "hit": false,
      "t": 193571.23499999905,
      "d": 357.1424999999872,
      "v": 100
    },
    {
      "midi": 71,
      "hit": false,
      "t": 193571.2349999998,
      "d": 714.2850000000035,
      "v": 100
    },
    {
      "midi": 50,
      "hit": false,
      "t": 193928.37749999904,
      "d": 357.1424999999872,
      "v": 100
    },
    {
      "midi": 48,
      "hit": false,
      "t": 194285.51999999903,
      "d": 357.1424999999872,
      "v": 100
    },
    {
      "midi": 55,
      "hit": false,
      "t": 194642.66249999902,
      "d": 357.1424999999872,
      "v": 100
    },
    {
      "midi": 60,
      "hit": false,
      "t": 194999.804999999,
      "d": 357.1424999999872,
      "v": 100
    },
    {
      "midi": 79,
      "hit": false,
      "t": 194999.80499999982,
      "d": 357.1424999999872,
      "v": 100
    },
    {
      "midi": 72,
      "hit": false,
      "t": 194999.80500000002,
      "d": 714.2850000000035,
      "v": 100
    },
    {
      "midi": 55,
      "hit": false,
      "t": 195356.947499999,
      "d": 357.1424999999872,
      "v": 100
    },
    {
      "midi": 76,
      "hit": false,
      "t": 195356.9474999998,
      "d": 357.1424999999872,
      "v": 100
    },
    {
      "midi": 64,
      "hit": false,
      "t": 195714.08999999898,
      "d": 357.1424999999872,
      "v": 100
    },
    {
      "midi": 79,
      "hit": false,
      "t": 195714.0899999998,
      "d": 1071.4274999999907,
      "v": 100
    },
    {
      "midi": 72,
      "hit": false,
      "t": 195714.09000000003,
      "d": 1428.570000000007,
      "v": 100
    },
    {
      "midi": 55,
      "hit": false,
      "t": 196071.23249999897,
      "d": 357.1424999999872,
      "v": 100
    },
    {
      "midi": 60,
      "hit": false,
      "t": 196428.37499999895,
      "d": 357.1424999999872,
      "v": 100
    },
    {
      "midi": 55,
      "hit": false,
      "t": 196785.51749999894,
      "d": 357.1424999999872,
      "v": 100
    },
    {
      "midi": 76,
      "hit": false,
      "t": 196785.51749999978,
      "d": 357.1424999999872,
      "v": 100
    },
    {
      "midi": 44,
      "hit": false,
      "t": 197142.65999999893,
      "d": 357.1424999999872,
      "v": 100
    },
    {
      "midi": 80,
      "hit": false,
      "t": 197142.65999999977,
      "d": 714.2850000000035,
      "v": 100
    },
    {
      "midi": 74,
      "hit": false,
      "t": 197142.66000000003,
      "d": 1071.4274999999907,
      "v": 100
    },
    {
      "midi": 52,
      "hit": false,
      "t": 197499.8024999989,
      "d": 357.1424999999872,
      "v": 100
    },
    {
      "midi": 56,
      "hit": false,
      "t": 197856.9449999989,
      "d": 357.1424999999872,
      "v": 100
    },
    {
      "midi": 76,
      "hit": false,
      "t": 197856.94499999977,
      "d": 357.1424999999872,
      "v": 100
    },
    {
      "midi": 52,
      "hit": false,
      "t": 198214.0874999989,
      "d": 357.1424999999872,
      "v": 100
    },
    {
      "midi": 80,
      "hit": false,
      "t": 198214.08749999976,
      "d": 714.2850000000035,
      "v": 100
    },
    {
      "midi": 74,
      "hit": false,
      "t": 198214.08750000002,
      "d": 1785.7124999999942,
      "v": 100
    },
    {
      "midi": 59,
      "hit": false,
      "t": 198571.22999999888,
      "d": 357.1424999999872,
      "v": 100
    },
    {
      "midi": 52,
      "hit": false,
      "t": 198928.37249999886,
      "d": 357.1424999999872,
      "v": 100
    },
    {
      "midi": 81,
      "hit": false,
      "t": 198928.37249999976,
      "d": 357.1424999999872,
      "v": 100
    },
    {
      "midi": 56,
      "hit": false,
      "t": 199285.51499999885,
      "d": 357.1424999999872,
      "v": 100
    },
    {
      "midi": 83,
      "hit": false,
      "t": 199285.51499999975,
      "d": 357.1424999999872,
      "v": 100
    },
    {
      "midi": 52,
      "hit": false,
      "t": 199642.65749999884,
      "d": 357.1424999999872,
      "v": 100
    },
    {
      "midi": 83,
      "hit": false,
      "t": 199642.65749999974,
      "d": 714.2850000000035,
      "v": 100
    },
    {
      "midi": 45,
      "hit": false,
      "t": 199999.79999999882,
      "d": 357.1424999999872,
      "v": 100
    },
    {
      "midi": 72,
      "hit": false,
      "t": 199999.80000000002,
      "d": 2857.140000000014,
      "v": 100
    },
    {
      "midi": 76,
      "hit": false,
      "t": 199999.80000000002,
      "d": 2857.140000000014,
      "v": 100
    },
    {
      "midi": 52,
      "hit": false,
      "t": 200356.9424999988,
      "d": 357.1424999999872,
      "v": 100
    },
    {
      "midi": 81,
      "hit": false,
      "t": 200356.94249999974,
      "d": 1785.7124999999942,
      "v": 100
    },
    {
      "midi": 57,
      "hit": false,
      "t": 200714.0849999988,
      "d": 357.1424999999872,
      "v": 100
    },
    {
      "midi": 52,
      "hit": false,
      "t": 201071.2274999988,
      "d": 357.1424999999872,
      "v": 100
    },
    {
      "midi": 60,
      "hit": false,
      "t": 201428.36999999877,
      "d": 357.1424999999872,
      "v": 100
    },
    {
      "midi": 52,
      "hit": false,
      "t": 201785.51249999876,
      "d": 357.1424999999872,
      "v": 100
    },
    {
      "midi": 57,
      "hit": false,
      "t": 202142.65499999875,
      "d": 357.1424999999872,
      "v": 100
    },
    {
      "midi": 52,
      "hit": false,
      "t": 202499.79749999873,
      "d": 357.1424999999872,
      "v": 100
    },
    {
      "midi": 76,
      "hit": false,
      "t": 202499.79749999972,
      "d": 357.1424999999872,
      "v": 100
    },
    {
      "midi": 41,
      "hit": false,
      "t": 202856.93999999872,
      "d": 1428.570000000007,
      "v": 100
    },
    {
      "midi": 53,
      "hit": false,
      "t": 202856.93999999872,
      "d": 1428.570000000007,
      "v": 100
    },
    {
      "midi": 77,
      "hit": false,
      "t": 202856.9399999997,
      "d": 357.1424999999872,
      "v": 100
    },
    {
      "midi": 69,
      "hit": false,
      "t": 202856.94000000003,
      "d": 357.1424999999872,
      "v": 100
    },
    {
      "midi": 72,
      "hit": false,
      "t": 202856.94000000003,
      "d": 357.1424999999872,
      "v": 100
    },
    {
      "midi": 77,
      "hit": false,
      "t": 203214.0824999997,
      "d": 357.1424999999872,
      "v": 100
    },
    {
      "midi": 69,
      "hit": false,
      "t": 203214.08250000002,
      "d": 357.1424999999872,
      "v": 100
    },
    {
      "midi": 72,
      "hit": false,
      "t": 203214.08250000002,
      "d": 357.1424999999872,
      "v": 100
    },
    {
      "midi": 76,
      "hit": false,
      "t": 203571.2249999997,
      "d": 357.1424999999872,
      "v": 100
    },
    {
      "midi": 69,
      "hit": false,
      "t": 203571.225,
      "d": 357.1424999999872,
      "v": 100
    },
    {
      "midi": 72,
      "hit": false,
      "t": 203571.225,
      "d": 357.1424999999872,
      "v": 100
    },
    {
      "midi": 74,
      "hit": false,
      "t": 203928.36749999967,
      "d": 357.1424999999872,
      "v": 100
    },
    {
      "midi": 69,
      "hit": false,
      "t": 203928.3675,
      "d": 357.1424999999872,
      "v": 100
    },
    {
      "midi": 72,
      "hit": false,
      "t": 203928.3675,
      "d": 357.1424999999872,
      "v": 100
    },
    {
      "midi": 43,
      "hit": false,
      "t": 204285.50999999873,
      "d": 357.1424999999872,
      "v": 100
    },
    {
      "midi": 55,
      "hit": false,
      "t": 204285.50999999873,
      "d": 357.1424999999872,
      "v": 100
    },
    {
      "midi": 72,
      "hit": false,
      "t": 204285.50999999966,
      "d": 357.1424999999872,
      "v": 100
    },
    {
      "midi": 62,
      "hit": false,
      "t": 204285.50999999998,
      "d": 357.1424999999872,
      "v": 100
    },
    {
      "midi": 67,
      "hit": false,
      "t": 204285.50999999998,
      "d": 357.1424999999872,
      "v": 100
    },
    {
      "midi": 43,
      "hit": false,
      "t": 204642.65249999872,
      "d": 1071.4274999999907,
      "v": 100
    },
    {
      "midi": 55,
      "hit": false,
      "t": 204642.65249999872,
      "d": 1071.4274999999907,
      "v": 100
    },
    {
      "midi": 71,
      "hit": false,
      "t": 204642.65249999965,
      "d": 1071.4274999999907,
      "v": 100
    },
    {
      "midi": 62,
      "hit": false,
      "t": 204642.65249999997,
      "d": 1071.4274999999907,
      "v": 100
    },
    {
      "midi": 67,
      "hit": false,
      "t": 204642.65249999997,
      "d": 1071.4274999999907,
      "v": 100
    },
    {
      "midi": 45,
      "hit": false,
      "t": 205714.0799999987,
      "d": 2857.140000000014,
      "v": 100
    },
    {
      "midi": 57,
      "hit": false,
      "t": 205714.0799999987,
      "d": 2857.140000000014,
      "v": 100
    },
    {
      "midi": 64,
      "hit": false,
      "t": 205714.07999999964,
      "d": 2857.140000000014,
      "v": 100
    },
    {
      "midi": 69,
      "hit": false,
      "t": 205714.07999999964,
      "d": 2857.140000000014,
      "v": 100
    },
    {
      "midi": 72,
      "hit": false,
      "t": 205714.07999999964,
      "d": 2857.140000000014,
      "v": 100
    }
  ]
}