{
  "jsonPath": "Unknown/Unknown/Bert Kaempfert And His Orchestra/and-there-was-love.json",
  "path": "Unknown\\Unknown\\Bert Kaempfert And His Orchestra\\And There Was Love.mid",
  "name": "And There Was Love",
  "difficulty": "Advanced",
  "bpm": 75,
  "notes": [
    {
      "midi": 48,
      "hit": false,
      "t": 0,
      "d": 2162.1613333333335,
      "v": 59
    },
    {
      "midi": 55,
      "hit": false,
      "t": 67.56754166666667,
      "d": 1714.526369791667,
      "v": 56
    },
    {
      "midi": 60,
      "hit": false,
      "t": 92.90536979166667,
      "d": 1680.7425989583335,
      "v": 53
    },
    {
      "midi": 63,
      "hit": false,
      "t": 160.47291145833333,
      "d": 1680.7425989583337,
      "v": 55
    },
    {
      "midi": 67,
      "hit": false,
      "t": 202.702625,
      "d": 1655.4047708333337,
      "v": 55
    },
    {
      "midi": 72,
      "hit": false,
      "t": 278.71610937500003,
      "d": 1655.4047708333335,
      "v": 54
    },
    {
      "midi": 60,
      "hit": false,
      "t": 2162.1613333333335,
      "d": 532.094390625,
      "v": 87
    },
    {
      "midi": 63,
      "hit": false,
      "t": 2702.701666666667,
      "d": 532.094390625,
      "v": 85
    },
    {
      "midi": 67,
      "hit": false,
      "t": 3243.242,
      "d": 844.5942708333332,
      "v": 82
    },
    {
      "midi": 67,
      "hit": false,
      "t": 4324.322666666667,
      "d": 861.48615625,
      "v": 78
    },
    {
      "midi": 65,
      "hit": false,
      "t": 5405.403333333334,
      "d": 532.0943906250004,
      "v": 82
    },
    {
      "midi": 63,
      "hit": false,
      "t": 5945.943666666667,
      "d": 532.0943906250004,
      "v": 82
    },
    {
      "midi": 41,
      "hit": false,
      "t": 6486.484,
      "d": 3581.079708333331,
      "v": 66
    },
    {
      "midi": 65,
      "hit": false,
      "t": 6486.484,
      "d": 903.7158697916666,
      "v": 85
    },
    {
      "midi": 48,
      "hit": false,
      "t": 7297.2945,
      "d": 2694.255723958333,
      "v": 71
    },
    {
      "midi": 65,
      "hit": false,
      "t": 7567.564666666667,
      "d": 4493.241520833333,
      "v": 79
    },
    {
      "midi": 56,
      "hit": false,
      "t": 8108.105,
      "d": 1925.6749375,
      "v": 59
    },
    {
      "midi": 60,
      "hit": false,
      "t": 8918.9155,
      "d": 1131.7563229166662,
      "v": 52
    },
    {
      "midi": 38,
      "hit": false,
      "t": 9729.725999999999,
      "d": 3141.8906874999993,
      "v": 72
    },
    {
      "midi": 53,
      "hit": false,
      "t": 10540.536499999998,
      "d": 2407.093671875,
      "v": 70
    },
    {
      "midi": 60,
      "hit": false,
      "t": 11351.346999999998,
      "d": 1638.512885416667,
      "v": 84
    },
    {
      "midi": 68,
      "hit": false,
      "t": 12162.157499999998,
      "d": 819.2564427083344,
      "v": 79
    },
    {
      "midi": 43,
      "hit": false,
      "t": 12972.967999999999,
      "d": 3201.012286458332,
      "v": 78
    },
    {
      "midi": 55,
      "hit": false,
      "t": 13783.778499999999,
      "d": 2913.8502343749988,
      "v": 76
    },
    {
      "midi": 60,
      "hit": false,
      "t": 14594.588999999998,
      "d": 2195.945104166667,
      "v": 76
    },
    {
      "midi": 62,
      "hit": false,
      "t": 15135.129333333334,
      "d": 532.0943906249995,
      "v": 91
    },
    {
      "midi": 68,
      "hit": false,
      "t": 15405.399499999998,
      "d": 1376.6886614583327,
      "v": 65
    },
    {
      "midi": 63,
      "hit": false,
      "t": 15675.669666666667,
      "d": 532.0943906249995,
      "v": 88
    },
    {
      "midi": 43,
      "hit": false,
      "t": 16216.209999999997,
      "d": 3150.3366302083323,
      "v": 78
    },
    {
      "midi": 67,
      "hit": false,
      "t": 16216.21,
      "d": 1072.6347239583338,
      "v": 89
    },
    {
      "midi": 55,
      "hit": false,
      "t": 17027.0205,
      "d": 2373.3099010416627,
      "v": 69
    },
    {
      "midi": 65,
      "hit": false,
      "t": 17297.290666666668,
      "d": 1021.9590677083324,
      "v": 84
    },
    {
      "midi": 59,
      "hit": false,
      "t": 17837.831,
      "d": 1638.5128854166614,
      "v": 68
    },
    {
      "midi": 63,
      "hit": false,
      "t": 18378.371333333333,
      "d": 506.75656249999884,
      "v": 85
    },
    {
      "midi": 67,
      "hit": false,
      "t": 18648.641499999998,
      "d": 869.9320989583284,
      "v": 55
    },
    {
      "midi": 62,
      "hit": false,
      "t": 18918.911666666663,
      "d": 380.0674218749991,
      "v": 88
    },
    {
      "midi": 48,
      "hit": false,
      "t": 19459.451999999994,
      "d": 6469.592114583331,
      "v": 71
    },
    {
      "midi": 62,
      "hit": false,
      "t": 19459.451999999997,
      "d": 1055.7428385416679,
      "v": 92
    },
    {
      "midi": 55,
      "hit": false,
      "t": 20270.262499999993,
      "d": 1587.8372291666674,
      "v": 69
    },
    {
      "midi": 60,
      "hit": false,
      "t": 20540.532666666666,
      "d": 971.2834114583347,
      "v": 79
    },
    {
      "midi": 60,
      "hit": false,
      "t": 21081.072999999993,
      "d": 1976.3505937499976,
      "v": 72
    },
    {
      "midi": 60,
      "hit": false,
      "t": 21621.613333333335,
      "d": 532.0943906249995,
      "v": 71
    },
    {
      "midi": 55,
      "hit": false,
      "t": 21891.883499999993,
      "d": 1368.2427187499998,
      "v": 64
    },
    {
      "midi": 59,
      "hit": false,
      "t": 22162.15366666667,
      "d": 532.0943906249995,
      "v": 80
    },
    {
      "midi": 62,
      "hit": false,
      "t": 22702.693999999992,
      "d": 1300.6751770833325,
      "v": 75
    },
    {
      "midi": 60,
      "hit": false,
      "t": 22702.694000000003,
      "d": 929.0536979166682,
      "v": 82
    },
    {
      "midi": 55,
      "hit": false,
      "t": 23513.504499999992,
      "d": 1402.0264895833316,
      "v": 57
    },
    {
      "midi": 60,
      "hit": false,
      "t": 23783.77466666667,
      "d": 3648.647250000002,
      "v": 74
    },
    {
      "midi": 62,
      "hit": false,
      "t": 24324.31499999999,
      "d": 1241.553578125,
      "v": 61
    },
    {
      "midi": 55,
      "hit": false,
      "t": 25135.12549999999,
      "d": 819.2564427083344,
      "v": 46
    },
    {
      "midi": 48,
      "hit": false,
      "t": 25945.93599999999,
      "d": 7787.159177083344,
      "v": 58
    },
    {
      "midi": 55,
      "hit": false,
      "t": 26756.746499999994,
      "d": 1216.2157499999994,
      "v": 72
    },
    {
      "midi": 63,
      "hit": false,
      "t": 27525.327286458327,
      "d": 1317.5670624999984,
      "v": 71
    },
    {
      "midi": 63,
      "hit": false,
      "t": 28108.09733333334,
      "d": 532.0943906249995,
      "v": 91
    },
    {
      "midi": 55,
      "hit": false,
      "t": 28378.367499999993,
      "d": 1570.9453437500015,
      "v": 56
    },
    {
      "midi": 67,
      "hit": false,
      "t": 28648.637666666673,
      "d": 532.0943906249995,
      "v": 91
    },
    {
      "midi": 64,
      "hit": false,
      "t": 29146.948286458326,
      "d": 1562.4994010416704,
      "v": 76
    },
    {
      "midi": 67,
      "hit": false,
      "t": 29189.177999999993,
      "d": 2871.6205208333377,
      "v": 80
    },
    {
      "midi": 72,
      "hit": false,
      "t": 29189.178000000007,
      "d": 954.3915260416652,
      "v": 95
    },
    {
      "midi": 70,
      "hit": false,
      "t": 29239.853656249994,
      "d": 3167.2285156250036,
      "v": 86
    },
    {
      "midi": 55,
      "hit": false,
      "t": 29999.988499999996,
      "d": 2018.5803072916679,
      "v": 57
    },
    {
      "midi": 72,
      "hit": false,
      "t": 30270.258666666672,
      "d": 853.0402135416662,
      "v": 92
    },
    {
      "midi": 64,
      "hit": false,
      "t": 30810.798999999995,
      "d": 1587.8372291666674,
      "v": 67
    },
    {
      "midi": 72,
      "hit": false,
      "t": 31351.339333333337,
      "d": 532.0943906249995,
      "v": 96
    },
    {
      "midi": 70,
      "hit": false,
      "t": 31891.87966666667,
      "d": 413.85119270833457,
      "v": 95
    },
    {
      "midi": 63,
      "hit": false,
      "t": 32432.42,
      "d": 1249.9995208333348,
      "v": 85
    },
    {
      "midi": 60,
      "hit": false,
      "t": 32432.42,
      "d": 1317.5670625000057,
      "v": 78
    },
    {
      "midi": 41,
      "hit": false,
      "t": 32432.42,
      "d": 6326.011088541687,
      "v": 72
    },
    {
      "midi": 70,
      "hit": false,
      "t": 32432.420000000006,
      "d": 1072.6347239583338,
      "v": 98
    },
    {
      "midi": 53,
      "hit": false,
      "t": 33243.2305,
      "d": 1224.6616927083378,
      "v": 66
    },
    {
      "midi": 68,
      "hit": false,
      "t": 33513.500666666674,
      "d": 954.3915260416688,
      "v": 89
    },
    {
      "midi": 60,
      "hit": false,
      "t": 34054.041000000005,
      "d": 1216.215750000003,
      "v": 82
    },
    {
      "midi": 65,
      "hit": false,
      "t": 34054.041000000005,
      "d": 1216.215750000003,
      "v": 86
    },
    {
      "midi": 68,
      "hit": false,
      "t": 34594.58133333334,
      "d": 532.0943906250031,
      "v": 95
    },
    {
      "midi": 53,
      "hit": false,
      "t": 34864.851500000004,
      "d": 1216.2157500000103,
      "v": 59
    },
    {
      "midi": 67,
      "hit": false,
      "t": 35135.12166666668,
      "d": 532.0943906250031,
      "v": 92
    },
    {
      "midi": 56,
      "hit": false,
      "t": 35675.66200000001,
      "d": 3234.796057291671,
      "v": 71
    },
    {
      "midi": 63,
      "hit": false,
      "t": 35675.66200000001,
      "d": 3234.796057291671,
      "v": 82
    },
    {
      "midi": 68,
      "hit": false,
      "t": 35675.66200000002,
      "d": 869.9320989583357,
      "v": 88
    },
    {
      "midi": 48,
      "hit": false,
      "t": 36486.47250000002,
      "d": 1511.823744791669,
      "v": 72
    },
    {
      "midi": 68,
      "hit": false,
      "t": 36756.74266666669,
      "d": 3395.2689687500024,
      "v": 87
    },
    {
      "midi": 72,
      "hit": false,
      "t": 37255.05328645835,
      "d": 1596.2831718750022,
      "v": 84
    },
    {
      "midi": 75,
      "hit": false,
      "t": 37297.28300000002,
      "d": 1587.8372291666674,
      "v": 93
    },
    {
      "midi": 48,
      "hit": false,
      "t": 38108.09350000002,
      "d": 802.3645572916648,
      "v": 68
    },
    {
      "midi": 70,
      "hit": false,
      "t": 38876.67428645835,
      "d": 5185.808822916661,
      "v": 90
    },
    {
      "midi": 74,
      "hit": false,
      "t": 38918.90400000002,
      "d": 5211.146651041658,
      "v": 93
    },
    {
      "midi": 46,
      "hit": false,
      "t": 38918.90400000002,
      "d": 5244.930421874989,
      "v": 73
    },
    {
      "midi": 64,
      "hit": false,
      "t": 41081.065333333354,
      "d": 532.0943906250031,
      "v": 92
    },
    {
      "midi": 65,
      "hit": false,
      "t": 41351.335500000016,
      "d": 878.3780416666632,
      "v": 69
    },
    {
      "midi": 65,
      "hit": false,
      "t": 41621.60566666669,
      "d": 532.0943906250031,
      "v": 87
    },
    {
      "midi": 67,
      "hit": false,
      "t": 42162.146000000015,
      "d": 2170.6072760416573,
      "v": 67
    },
    {
      "midi": 70,
      "hit": false,
      "t": 42162.14600000003,
      "d": 869.9320989583357,
      "v": 92
    },
    {
      "midi": 56,
      "hit": false,
      "t": 42972.956500000015,
      "d": 2415.539614583322,
      "v": 60
    },
    {
      "midi": 70,
      "hit": false,
      "t": 43243.2266666667,
      "d": 1342.9048906250027,
      "v": 91
    },
    {
      "midi": 62,
      "hit": false,
      "t": 43783.767000000014,
      "d": 1613.1750572916571,
      "v": 60
    },
    {
      "midi": 68,
      "hit": false,
      "t": 44594.57750000001,
      "d": 802.3645572916648,
      "v": 59
    },
    {
      "midi": 68,
      "hit": false,
      "t": 44594.577500000036,
      "d": 709.4591874999969,
      "v": 87
    },
    {
      "midi": 72,
      "hit": false,
      "t": 45405.388000000006,
      "d": 1452.702145833333,
      "v": 65
    },
    {
      "midi": 68,
      "hit": false,
      "t": 45405.388000000006,
      "d": 1461.1480885416677,
      "v": 79
    },
    {
      "midi": 63,
      "hit": false,
      "t": 45405.388000000006,
      "d": 2804.052979166663,
      "v": 78
    },
    {
      "midi": 39,
      "hit": false,
      "t": 45405.388000000006,
      "d": 3175.6744583333348,
      "v": 66
    },
    {
      "midi": 68,
      "hit": false,
      "t": 45405.388000000035,
      "d": 1376.6886614583345,
      "v": 92
    },
    {
      "midi": 46,
      "hit": false,
      "t": 46216.198500000006,
      "d": 2432.431499999999,
      "v": 76
    },
    {
      "midi": 70,
      "hit": false,
      "t": 47027.009000000005,
      "d": 1444.2562031249981,
      "v": 78
    },
    {
      "midi": 74,
      "hit": false,
      "t": 47027.009000000005,
      "d": 1452.702145833333,
      "v": 80
    },
    {
      "midi": 51,
      "hit": false,
      "t": 47027.009000000005,
      "d": 1554.0534583333356,
      "v": 76
    },
    {
      "midi": 67,
      "hit": false,
      "t": 47027.009000000035,
      "d": 371.62147916666436,
      "v": 89
    },
    {
      "midi": 67,
      "hit": false,
      "t": 47432.41425000003,
      "d": 363.17553645833686,
      "v": 86
    },
    {
      "midi": 67,
      "hit": false,
      "t": 47837.819500000034,
      "d": 363.17553645833686,
      "v": 88
    },
    {
      "midi": 65,
      "hit": false,
      "t": 48243.22475000004,
      "d": 396.95930729166867,
      "v": 85
    },
    {
      "midi": 72,
      "hit": false,
      "t": 48648.630000000005,
      "d": 1368.2427187499998,
      "v": 71
    },
    {
      "midi": 68,
      "hit": false,
      "t": 48648.630000000005,
      "d": 1427.3643177083359,
      "v": 70
    },
    {
      "midi": 38,
      "hit": false,
      "t": 48648.630000000005,
      "d": 1621.6209999999992,
      "v": 71
    },
    {
      "midi": 65,
      "hit": false,
      "t": 48648.630000000005,
      "d": 3023.6474895833308,
      "v": 69
    },
    {
      "midi": 67,
      "hit": false,
      "t": 48648.63000000004,
      "d": 3175.6744583333348,
      "v": 84
    },
    {
      "midi": 41,
      "hit": false,
      "t": 49459.440500000004,
      "d": 810.8104999999996,
      "v": 50
    },
    {
      "midi": 71,
      "hit": false,
      "t": 50270.251000000004,
      "d": 1452.702145833333,
      "v": 77
    },
    {
      "midi": 67,
      "hit": false,
      "t": 50270.251000000004,
      "d": 1478.03997395833,
      "v": 68
    },
    {
      "midi": 43,
      "hit": false,
      "t": 50270.251000000004,
      "d": 1621.6209999999992,
      "v": 72
    },
    {
      "midi": 63,
      "hit": false,
      "t": 51891.872,
      "d": 2305.742359374999,
      "v": 61
    },
    {
      "midi": 36,
      "hit": false,
      "t": 51891.872,
      "d": 2322.6342447916686,
      "v": 76
    },
    {
      "midi": 67,
      "hit": false,
      "t": 51891.872,
      "d": 2449.3233854166683,
      "v": 68
    },
    {
      "midi": 72,
      "hit": false,
      "t": 51891.872,
      "d": 2584.458468750003,
      "v": 75
    },
    {
      "midi": 60,
      "hit": false,
      "t": 54054.03333333338,
      "d": 532.0943906250031,
      "v": 92
    },
    {
      "midi": 63,
      "hit": false,
      "t": 54594.573666666714,
      "d": 532.0943906250031,
      "v": 90
    },
    {
      "midi": 67,
      "hit": false,
      "t": 55135.11400000005,
      "d": 844.5942708333314,
      "v": 87
    },
    {
      "midi": 67,
      "hit": false,
      "t": 56216.19466666671,
      "d": 861.4861562500009,
      "v": 83
    },
    {
      "midi": 72,
      "hit": false,
      "t": 57297.27533333338,
      "d": 532.0943906250031,
      "v": 87
    },
    {
      "midi": 70,
      "hit": false,
      "t": 57837.81566666672,
      "d": 532.0943906250031,
      "v": 87
    },
    {
      "midi": 41,
      "hit": false,
      "t": 58378.35600000001,
      "d": 3581.079708333338,
      "v": 71
    },
    {
      "midi": 68,
      "hit": false,
      "t": 58378.35600000006,
      "d": 532.0943906250031,
      "v": 90
    },
    {
      "midi": 67,
      "hit": false,
      "t": 58918.896333333396,
      "d": 532.0943906250031,
      "v": 85
    },
    {
      "midi": 48,
      "hit": false,
      "t": 59189.16650000001,
      "d": 2694.255723958333,
      "v": 76
    },
    {
      "midi": 65,
      "hit": false,
      "t": 59459.436666666734,
      "d": 4493.241520833333,
      "v": 82
    },
    {
      "midi": 56,
      "hit": false,
      "t": 59999.977000000006,
      "d": 1925.6749375,
      "v": 64
    },
    {
      "midi": 60,
      "hit": false,
      "t": 60810.787500000006,
      "d": 1131.75632291667,
      "v": 71
    },
    {
      "midi": 38,
      "hit": false,
      "t": 61621.598000000005,
      "d": 3141.890687500003,
      "v": 77
    },
    {
      "midi": 53,
      "hit": false,
      "t": 62432.40850000001,
      "d": 2407.0936718749945,
      "v": 75
    },
    {
      "midi": 60,
      "hit": false,
      "t": 63243.21900000001,
      "d": 1638.5128854166614,
      "v": 89
    },
    {
      "midi": 68,
      "hit": false,
      "t": 64054.02950000001,
      "d": 819.2564427083271,
      "v": 84
    },
    {
      "midi": 43,
      "hit": false,
      "t": 64864.840000000004,
      "d": 3201.0122864583464,
      "v": 83
    },
    {
      "midi": 55,
      "hit": false,
      "t": 65675.6505,
      "d": 2913.850234375015,
      "v": 81
    },
    {
      "midi": 60,
      "hit": false,
      "t": 66486.46100000001,
      "d": 2195.945104166676,
      "v": 81
    },
    {
      "midi": 62,
      "hit": false,
      "t": 67027.0013333334,
      "d": 532.0943906250031,
      "v": 96
    },
    {
      "midi": 68,
      "hit": false,
      "t": 67297.27150000002,
      "d": 1376.6886614583345,
      "v": 76
    },
    {
      "midi": 63,
      "hit": false,
      "t": 67567.54166666674,
      "d": 532.0943906250031,
      "v": 93
    },
    {
      "midi": 43,
      "hit": false,
      "t": 68108.08200000002,
      "d": 3150.336630208345,
      "v": 83
    },
    {
      "midi": 67,
      "hit": false,
      "t": 68108.08200000008,
      "d": 1072.6347239583265,
      "v": 94
    },
    {
      "midi": 55,
      "hit": false,
      "t": 68918.89250000002,
      "d": 2373.309901041692,
      "v": 74
    },
    {
      "midi": 65,
      "hit": false,
      "t": 69189.16266666674,
      "d": 1021.9590677083324,
      "v": 89
    },
    {
      "midi": 59,
      "hit": false,
      "t": 69729.70300000002,
      "d": 1638.5128854166833,
      "v": 73
    },
    {
      "midi": 63,
      "hit": false,
      "t": 70270.2433333334,
      "d": 506.75656249999884,
      "v": 90
    },
    {
      "midi": 67,
      "hit": false,
      "t": 70540.51350000003,
      "d": 869.9320989583503,
      "v": 60
    },
    {
      "midi": 62,
      "hit": false,
      "t": 70810.78366666674,
      "d": 380.0674218750064,
      "v": 93
    },
    {
      "midi": 48,
      "hit": false,
      "t": 71351.32400000004,
      "d": 6469.592114583371,
      "v": 76
    },
    {
      "midi": 62,
      "hit": false,
      "t": 71351.32400000008,
      "d": 1055.7428385416715,
      "v": 97
    },
    {
      "midi": 55,
      "hit": false,
      "t": 72162.13450000004,
      "d": 1072.634723958341,
      "v": 74
    },
    {
      "midi": 60,
      "hit": false,
      "t": 72432.40466666676,
      "d": 971.2834114583384,
      "v": 84
    },
    {
      "midi": 60,
      "hit": false,
      "t": 72972.94500000005,
      "d": 1570.9453437500051,
      "v": 77
    },
    {
      "midi": 60,
      "hit": false,
      "t": 73513.48533333343,
      "d": 532.0943906250031,
      "v": 76
    },
    {
      "midi": 55,
      "hit": false,
      "t": 73783.75550000006,
      "d": 1106.4184947916656,
      "v": 69
    },
    {
      "midi": 59,
      "hit": false,
      "t": 74054.02566666677,
      "d": 532.0943906250031,
      "v": 85
    },
    {
      "midi": 62,
      "hit": false,
      "t": 74594.56600000005,
      "d": 895.26992708334,
      "v": 80
    },
    {
      "midi": 60,
      "hit": false,
      "t": 74594.56600000011,
      "d": 929.0536979166645,
      "v": 87
    },
    {
      "midi": 55,
      "hit": false,
      "t": 75405.37650000006,
      "d": 996.6212395833427,
      "v": 62
    },
    {
      "midi": 60,
      "hit": false,
      "t": 75675.64666666677,
      "d": 3648.6472499999945,
      "v": 79
    },
    {
      "midi": 62,
      "hit": false,
      "t": 76216.18700000006,
      "d": 836.1483281250112,
      "v": 66
    },
    {
      "midi": 55,
      "hit": false,
      "t": 77026.99750000007,
      "d": 819.2564427083416,
      "v": 51
    },
    {
      "midi": 48,
      "hit": false,
      "t": 77837.80800000008,
      "d": 7787.159177083362,
      "v": 63
    },
    {
      "midi": 55,
      "hit": false,
      "t": 78648.61850000008,
      "d": 751.6889010416635,
      "v": 77
    },
    {
      "midi": 63,
      "hit": false,
      "t": 79417.19928645842,
      "d": 1224.6616927083378,
      "v": 90
    },
    {
      "midi": 63,
      "hit": false,
      "t": 79999.96933333343,
      "d": 532.0943906250031,
      "v": 96
    },
    {
      "midi": 55,
      "hit": false,
      "t": 80270.23950000008,
      "d": 1562.4994010416704,
      "v": 53
    },
    {
      "midi": 67,
      "hit": false,
      "t": 80540.50966666677,
      "d": 532.0943906250031,
      "v": 96
    },
    {
      "midi": 64,
      "hit": false,
      "t": 81038.82028645842,
      "d": 751.6889010416635,
      "v": 81
    },
    {
      "midi": 67,
      "hit": false,
      "t": 81081.05000000009,
      "d": 2871.6205208333413,
      "v": 85
    },
    {
      "midi": 72,
      "hit": false,
      "t": 81081.0500000001,
      "d": 954.3915260416688,
      "v": 100
    },
    {
      "midi": 70,
      "hit": false,
      "t": 81131.72565625008,
      "d": 1537.161572916666,
      "v": 91
    },
    {
      "midi": 55,
      "hit": false,
      "t": 81891.86050000008,
      "d": 1613.175057291679,
      "v": 62
    },
    {
      "midi": 72,
      "hit": false,
      "t": 82162.13066666678,
      "d": 853.0402135416662,
      "v": 97
    },
    {
      "midi": 64,
      "hit": false,
      "t": 82702.67100000009,
      "d": 1587.8372291666747,
      "v": 72
    },
    {
      "midi": 72,
      "hit": false,
      "t": 83243.21133333344,
      "d": 532.0943906250031,
      "v": 101
    },
    {
      "midi": 70,
      "hit": false,
      "t": 83783.75166666678,
      "d": 413.8511927083309,
      "v": 100
    },
    {
      "midi": 60,
      "hit": false,
      "t": 84324.2920000001,
      "d": 1224.6616927083378,
      "v": 83
    },
    {
      "midi": 63,
      "hit": false,
      "t": 84324.2920000001,
      "d": 1241.5535781250073,
      "v": 86
    },
    {
      "midi": 41,
      "hit": false,
      "t": 84324.2920000001,
      "d": 6326.011088541665,
      "v": 77
    },
    {
      "midi": 70,
      "hit": false,
      "t": 84324.29200000012,
      "d": 1072.6347239583265,
      "v": 103
    },
    {
      "midi": 53,
      "hit": false,
      "t": 85135.10250000011,
      "d": 1216.2157499999885,
      "v": 71
    },
    {
      "midi": 68,
      "hit": false,
      "t": 85405.37266666678,
      "d": 954.3915260416688,
      "v": 94
    },
    {
      "midi": 60,
      "hit": false,
      "t": 85945.9130000001,
      "d": 1216.2157499999885,
      "v": 87
    },
    {
      "midi": 65,
      "hit": false,
      "t": 85945.9130000001,
      "d": 1216.2157499999885,
      "v": 84
    },
    {
      "midi": 68,
      "hit": false,
      "t": 86486.45333333345,
      "d": 532.0943906250031,
      "v": 100
    },
    {
      "midi": 53,
      "hit": false,
      "t": 86756.7235000001,
      "d": 810.8104999999923,
      "v": 64
    },
    {
      "midi": 67,
      "hit": false,
      "t": 87026.99366666679,
      "d": 532.0943906250031,
      "v": 97
    },
    {
      "midi": 56,
      "hit": false,
      "t": 87567.53400000009,
      "d": 3234.7960572916927,
      "v": 76
    },
    {
      "midi": 63,
      "hit": false,
      "t": 87567.53400000009,
      "d": 3234.7960572916927,
      "v": 87
    },
    {
      "midi": 68,
      "hit": false,
      "t": 87567.53400000013,
      "d": 869.9320989583357,
      "v": 93
    },
    {
      "midi": 48,
      "hit": false,
      "t": 88378.3445000001,
      "d": 701.0132447916694,
      "v": 77
    },
    {
      "midi": 68,
      "hit": false,
      "t": 88648.6146666668,
      "d": 3395.268968749995,
      "v": 92
    },
    {
      "midi": 72,
      "hit": false,
      "t": 89146.92528645843,
      "d": 1596.2831718750094,
      "v": 98
    },
    {
      "midi": 75,
      "hit": false,
      "t": 89189.1550000001,
      "d": 1587.8372291666747,
      "v": 102
    },
    {
      "midi": 48,
      "hit": false,
      "t": 89999.96550000011,
      "d": 802.3645572916721,
      "v": 73
    },
    {
      "midi": 70,
      "hit": false,
      "t": 90810.77600000011,
      "d": 3209.458229166674,
      "v": 95
    },
    {
      "midi": 46,
      "hit": false,
      "t": 90810.77600000011,
      "d": 3310.8095416666765,
      "v": 78
    },
    {
      "midi": 74,
      "hit": false,
      "t": 90886.78948437511,
      "d": 5211.146651041679,
      "v": 98
    },
    {
      "midi": 77,
      "hit": false,
      "t": 92972.93733333347,
      "d": 532.0943906250031,
      "v": 97
    },
    {
      "midi": 65,
      "hit": false,
      "t": 93243.20750000012,
      "d": 878.3780416666705,
      "v": 74
    },
    {
      "midi": 75,
      "hit": false,
      "t": 93513.4776666668,
      "d": 532.0943906250031,
      "v": 92
    },
    {
      "midi": 67,
      "hit": false,
      "t": 94054.01800000013,
      "d": 2170.607276041672,
      "v": 72
    },
    {
      "midi": 74,
      "hit": false,
      "t": 94054.01800000014,
      "d": 1072.6347239583265,
      "v": 97
    },
    {
      "midi": 56,
      "hit": false,
      "t": 94864.82850000012,
      "d": 2415.539614583351,
      "v": 65
    },
    {
      "midi": 72,
      "hit": false,
      "t": 95135.0986666668,
      "d": 1072.6347239583265,
      "v": 92
    },
    {
      "midi": 62,
      "hit": false,
      "t": 95675.63900000013,
      "d": 1613.175057291679,
      "v": 65
    },
    {
      "midi": 70,
      "hit": false,
      "t": 96216.17933333346,
      "d": 456.0809062500048,
      "v": 92
    },
    {
      "midi": 68,
      "hit": false,
      "t": 96486.44950000013,
      "d": 802.3645572916721,
      "v": 64
    },
    {
      "midi": 68,
      "hit": false,
      "t": 96756.7196666668,
      "d": 456.0809062500048,
      "v": 92
    },
    {
      "midi": 39,
      "hit": false,
      "t": 97297.26000000014,
      "d": 9408.780177083361,
      "v": 86
    },
    {
      "midi": 68,
      "hit": false,
      "t": 97297.26000000014,
      "d": 1072.6347239583265,
      "v": 97
    },
    {
      "midi": 46,
      "hit": false,
      "t": 98108.07050000015,
      "d": 8597.969677083354,
      "v": 85
    },
    {
      "midi": 67,
      "hit": false,
      "t": 98378.3406666668,
      "d": 920.6077552083298,
      "v": 94
    },
    {
      "midi": 55,
      "hit": false,
      "t": 98918.88100000015,
      "d": 2711.14760937501,
      "v": 78
    },
    {
      "midi": 67,
      "hit": false,
      "t": 99459.42133333346,
      "d": 532.0943906250031,
      "v": 91
    },
    {
      "midi": 60,
      "hit": false,
      "t": 99729.69150000016,
      "d": 869.9320989583357,
      "v": 81
    },
    {
      "midi": 65,
      "hit": false,
      "t": 99999.9616666668,
      "d": 532.0943906250031,
      "v": 90
    },
    {
      "midi": 67,
      "hit": false,
      "t": 100540.50200000014,
      "d": 3175.6744583333348,
      "v": 89
    },
    {
      "midi": 62,
      "hit": false,
      "t": 100540.50200000017,
      "d": 1224.6616927083232,
      "v": 75
    },
    {
      "midi": 67,
      "hit": false,
      "t": 102162.12300000015,
      "d": 4501.687463541675,
      "v": 72
    },
    {
      "midi": 72,
      "hit": false,
      "t": 102972.93350000016,
      "d": 962.8374687500036,
      "v": 80
    },
    {
      "midi": 74,
      "hit": false,
      "t": 103783.74400000017,
      "d": 2863.174578124992,
      "v": 73
    },
    {
      "midi": 70,
      "hit": false,
      "t": 103783.74400000017,
      "d": 2896.958348958331,
      "v": 71
    },
    {
      "midi": 68,
      "hit": false,
      "t": 107026.98600000014,
      "d": 2347.972072916673,
      "v": 87
    },
    {
      "midi": 67,
      "hit": false,
      "t": 109459.41750000014,
      "d": 802.3645572916721,
      "v": 84
    },
    {
      "midi": 65,
      "hit": false,
      "t": 110270.22800000015,
      "d": 624.999760416671,
      "v": 85
    },
    {
      "midi": 72,
      "hit": false,
      "t": 110270.22800000016,
      "d": 253.37828124999942,
      "v": 59
    },
    {
      "midi": 80,
      "hit": false,
      "t": 110270.22800000016,
      "d": 253.37828124999942,
      "v": 62
    },
    {
      "midi": 77,
      "hit": false,
      "t": 110270.22800000016,
      "d": 287.1620520833385,
      "v": 66
    },
    {
      "midi": 65,
      "hit": false,
      "t": 111081.03850000016,
      "d": 1157.0941510416596,
      "v": 81
    },
    {
      "midi": 80,
      "hit": false,
      "t": 111081.03850000017,
      "d": 177.36479687500105,
      "v": 58
    },
    {
      "midi": 77,
      "hit": false,
      "t": 111081.03850000017,
      "d": 202.70262500000536,
      "v": 66
    },
    {
      "midi": 72,
      "hit": false,
      "t": 111081.03850000017,
      "d": 211.14856770834012,
      "v": 56
    },
    {
      "midi": 77,
      "hit": false,
      "t": 111891.84900000018,
      "d": 177.36479687500105,
      "v": 67
    },
    {
      "midi": 72,
      "hit": false,
      "t": 111891.84900000018,
      "d": 202.70262500000536,
      "v": 58
    },
    {
      "midi": 80,
      "hit": false,
      "t": 111891.84900000018,
      "d": 202.70262500000536,
      "v": 62
    },
    {
      "midi": 65,
      "hit": false,
      "t": 112702.65950000015,
      "d": 793.9186145833373,
      "v": 85
    },
    {
      "midi": 77,
      "hit": false,
      "t": 112702.65950000018,
      "d": 202.70262500000536,
      "v": 65
    },
    {
      "midi": 80,
      "hit": false,
      "t": 112702.65950000018,
      "d": 211.14856770834012,
      "v": 60
    },
    {
      "midi": 72,
      "hit": false,
      "t": 112702.65950000018,
      "d": 261.8242239583342,
      "v": 59
    },
    {
      "midi": 68,
      "hit": false,
      "t": 113513.47000000016,
      "d": 616.5538177083363,
      "v": 85
    },
    {
      "midi": 71,
      "hit": false,
      "t": 113513.47000000019,
      "d": 211.14856770834012,
      "v": 59
    },
    {
      "midi": 74,
      "hit": false,
      "t": 113513.47000000019,
      "d": 211.14856770834012,
      "v": 68
    },
    {
      "midi": 77,
      "hit": false,
      "t": 113513.47000000019,
      "d": 236.48639583334443,
      "v": 56
    },
    {
      "midi": 80,
      "hit": false,
      "t": 113513.47000000019,
      "d": 261.82422395834874,
      "v": 65
    },
    {
      "midi": 68,
      "hit": false,
      "t": 114324.28050000017,
      "d": 802.3645572916721,
      "v": 87
    },
    {
      "midi": 80,
      "hit": false,
      "t": 114324.28050000021,
      "d": 177.36479687500105,
      "v": 57
    },
    {
      "midi": 74,
      "hit": false,
      "t": 114324.28050000021,
      "d": 211.14856770834012,
      "v": 64
    },
    {
      "midi": 77,
      "hit": false,
      "t": 114324.28050000021,
      "d": 211.14856770834012,
      "v": 52
    },
    {
      "midi": 71,
      "hit": false,
      "t": 114324.28050000021,
      "d": 236.48639583334443,
      "v": 57
    },
    {
      "midi": 67,
      "hit": false,
      "t": 115135.09100000017,
      "d": 802.3645572916721,
      "v": 89
    },
    {
      "midi": 79,
      "hit": false,
      "t": 115135.09100000022,
      "d": 177.36479687500105,
      "v": 39
    },
    {
      "midi": 77,
      "hit": false,
      "t": 115135.09100000022,
      "d": 185.81073958333582,
      "v": 48
    },
    {
      "midi": 74,
      "hit": false,
      "t": 115135.09100000022,
      "d": 211.14856770834012,
      "v": 65
    },
    {
      "midi": 71,
      "hit": false,
      "t": 115135.09100000022,
      "d": 236.48639583334443,
      "v": 66
    },
    {
      "midi": 65,
      "hit": false,
      "t": 115945.90150000018,
      "d": 802.3645572916721,
      "v": 86
    },
    {
      "midi": 71,
      "hit": false,
      "t": 115945.90150000023,
      "d": 202.70262500000536,
      "v": 55
    },
    {
      "midi": 74,
      "hit": false,
      "t": 115945.90150000023,
      "d": 211.14856770834012,
      "v": 53
    },
    {
      "midi": 77,
      "hit": false,
      "t": 115945.90150000023,
      "d": 211.14856770834012,
      "v": 52
    },
    {
      "midi": 79,
      "hit": false,
      "t": 115945.90150000023,
      "d": 211.14856770834012,
      "v": 40
    },
    {
      "midi": 63,
      "hit": false,
      "t": 116756.71200000019,
      "d": 667.2294739583303,
      "v": 86
    },
    {
      "midi": 72,
      "hit": false,
      "t": 116756.71200000023,
      "d": 202.70262500000536,
      "v": 60
    },
    {
      "midi": 75,
      "hit": false,
      "t": 116756.71200000023,
      "d": 236.48639583334443,
      "v": 70
    },
    {
      "midi": 79,
      "hit": false,
      "t": 116756.71200000023,
      "d": 236.48639583334443,
      "v": 62
    },
    {
      "midi": 63,
      "hit": false,
      "t": 117567.52250000018,
      "d": 1300.6751770833362,
      "v": 88
    },
    {
      "midi": 72,
      "hit": false,
      "t": 117567.52250000024,
      "d": 177.36479687500105,
      "v": 47
    },
    {
      "midi": 75,
      "hit": false,
      "t": 117567.52250000024,
      "d": 211.14856770834012,
      "v": 58
    },
    {
      "midi": 79,
      "hit": false,
      "t": 117567.52250000024,
      "d": 236.48639583334443,
      "v": 50
    },
    {
      "midi": 72,
      "hit": false,
      "t": 118378.33300000025,
      "d": 177.36479687500105,
      "v": 53
    },
    {
      "midi": 75,
      "hit": false,
      "t": 118378.33300000025,
      "d": 185.81073958333582,
      "v": 59
    },
    {
      "midi": 79,
      "hit": false,
      "t": 118378.33300000025,
      "d": 211.14856770834012,
      "v": 57
    },
    {
      "midi": 63,
      "hit": false,
      "t": 119189.14350000018,
      "d": 802.3645572916721,
      "v": 89
    },
    {
      "midi": 75,
      "hit": false,
      "t": 119189.14350000025,
      "d": 177.36479687500105,
      "v": 63
    },
    {
      "midi": 72,
      "hit": false,
      "t": 119189.14350000025,
      "d": 202.70262500000536,
      "v": 49
    },
    {
      "midi": 79,
      "hit": false,
      "t": 119189.14350000025,
      "d": 261.8242239583342,
      "v": 58
    },
    {
      "midi": 67,
      "hit": false,
      "t": 119999.95400000019,
      "d": 582.7700468749972,
      "v": 93
    },
    {
      "midi": 79,
      "hit": false,
      "t": 119999.95400000026,
      "d": 202.70262500000536,
      "v": 62
    },
    {
      "midi": 75,
      "hit": false,
      "t": 119999.95400000026,
      "d": 211.14856770834012,
      "v": 59
    },
    {
      "midi": 72,
      "hit": false,
      "t": 119999.95400000026,
      "d": 236.48639583334443,
      "v": 61
    },
    {
      "midi": 82,
      "hit": false,
      "t": 119999.95400000026,
      "d": 261.82422395834874,
      "v": 59
    },
    {
      "midi": 67,
      "hit": false,
      "t": 120810.76450000018,
      "d": 802.3645572916721,
      "v": 90
    },
    {
      "midi": 79,
      "hit": false,
      "t": 120810.76450000028,
      "d": 152.02696874999674,
      "v": 57
    },
    {
      "midi": 72,
      "hit": false,
      "t": 120810.76450000028,
      "d": 211.14856770832557,
      "v": 59
    },
    {
      "midi": 75,
      "hit": false,
      "t": 120810.76450000028,
      "d": 211.14856770832557,
      "v": 58
    },
    {
      "midi": 82,
      "hit": false,
      "t": 120810.76450000028,
      "d": 236.48639583332988,
      "v": 60
    },
    {
      "midi": 65,
      "hit": false,
      "t": 121621.57500000019,
      "d": 793.9186145833373,
      "v": 89
    },
    {
      "midi": 79,
      "hit": false,
      "t": 121621.57500000027,
      "d": 185.81073958333582,
      "v": 53
    },
    {
      "midi": 72,
      "hit": false,
      "t": 121621.57500000027,
      "d": 211.14856770834012,
      "v": 56
    },
    {
      "midi": 75,
      "hit": false,
      "t": 121621.57500000027,
      "d": 211.14856770834012,
      "v": 63
    },
    {
      "midi": 82,
      "hit": false,
      "t": 121621.57500000027,
      "d": 236.48639583334443,
      "v": 60
    },
    {
      "midi": 63,
      "hit": false,
      "t": 122432.3855000002,
      "d": 768.580786458333,
      "v": 91
    },
    {
      "midi": 79,
      "hit": false,
      "t": 122432.38550000028,
      "d": 177.36479687500105,
      "v": 53
    },
    {
      "midi": 72,
      "hit": false,
      "t": 122432.38550000028,
      "d": 185.81073958333582,
      "v": 57
    },
    {
      "midi": 75,
      "hit": false,
      "t": 122432.38550000028,
      "d": 211.14856770834012,
      "v": 62
    },
    {
      "midi": 82,
      "hit": false,
      "t": 122432.38550000028,
      "d": 261.8242239583342,
      "v": 54
    },
    {
      "midi": 62,
      "hit": false,
      "t": 123243.1960000002,
      "d": 667.2294739583303,
      "v": 89
    },
    {
      "midi": 72,
      "hit": false,
      "t": 123243.19600000029,
      "d": 228.0404531249951,
      "v": 59
    },
    {
      "midi": 74,
      "hit": false,
      "t": 123243.19600000029,
      "d": 244.93233854166465,
      "v": 59
    },
    {
      "midi": 77,
      "hit": false,
      "t": 123243.19600000029,
      "d": 244.93233854166465,
      "v": 60
    },
    {
      "midi": 80,
      "hit": false,
      "t": 123243.19600000029,
      "d": 244.93233854166465,
      "v": 56
    },
    {
      "midi": 62,
      "hit": false,
      "t": 124054.00650000019,
      "d": 1199.3238645833335,
      "v": 89
    },
    {
      "midi": 80,
      "hit": false,
      "t": 124054.00650000028,
      "d": 177.36479687500105,
      "v": 58
    },
    {
      "midi": 77,
      "hit": false,
      "t": 124054.00650000028,
      "d": 202.70262500000536,
      "v": 66
    },
    {
      "midi": 72,
      "hit": false,
      "t": 124054.00650000028,
      "d": 211.14856770834012,
      "v": 56
    },
    {
      "midi": 74,
      "hit": false,
      "t": 124054.00650000028,
      "d": 211.14856770834012,
      "v": 56
    },
    {
      "midi": 77,
      "hit": false,
      "t": 124864.81700000029,
      "d": 177.36479687500105,
      "v": 62
    },
    {
      "midi": 72,
      "hit": false,
      "t": 124864.81700000029,
      "d": 202.70262500000536,
      "v": 58
    },
    {
      "midi": 74,
      "hit": false,
      "t": 124864.81700000029,
      "d": 202.70262500000536,
      "v": 58
    },
    {
      "midi": 80,
      "hit": false,
      "t": 124864.81700000029,
      "d": 202.70262500000536,
      "v": 62
    },
    {
      "midi": 62,
      "hit": false,
      "t": 125675.62750000019,
      "d": 802.3645572916721,
      "v": 84
    },
    {
      "midi": 77,
      "hit": false,
      "t": 125675.6275000003,
      "d": 202.70262500000536,
      "v": 62
    },
    {
      "midi": 80,
      "hit": false,
      "t": 125675.6275000003,
      "d": 211.14856770834012,
      "v": 60
    },
    {
      "midi": 72,
      "hit": false,
      "t": 125675.6275000003,
      "d": 261.8242239583342,
      "v": 59
    },
    {
      "midi": 74,
      "hit": false,
      "t": 125675.6275000003,
      "d": 261.8242239583342,
      "v": 58
    },
    {
      "midi": 63,
      "hit": false,
      "t": 126486.4380000002,
      "d": 802.3645572916721,
      "v": 86
    },
    {
      "midi": 71,
      "hit": false,
      "t": 126486.4380000003,
      "d": 211.14856770834012,
      "v": 59
    },
    {
      "midi": 74,
      "hit": false,
      "t": 126486.4380000003,
      "d": 211.14856770834012,
      "v": 68
    },
    {
      "midi": 77,
      "hit": false,
      "t": 126486.4380000003,
      "d": 236.48639583334443,
      "v": 56
    },
    {
      "midi": 79,
      "hit": false,
      "t": 126486.4380000003,
      "d": 261.82422395834874,
      "v": 55
    },
    {
      "midi": 62,
      "hit": false,
      "t": 127297.2485000002,
      "d": 802.3645572916721,
      "v": 84
    },
    {
      "midi": 79,
      "hit": false,
      "t": 127297.24850000032,
      "d": 177.36479687500105,
      "v": 52
    },
    {
      "midi": 74,
      "hit": false,
      "t": 127297.24850000032,
      "d": 211.14856770834012,
      "v": 64
    },
    {
      "midi": 77,
      "hit": false,
      "t": 127297.24850000032,
      "d": 211.14856770834012,
      "v": 52
    },
    {
      "midi": 71,
      "hit": false,
      "t": 127297.24850000032,
      "d": 236.48639583334443,
      "v": 57
    },
    {
      "midi": 63,
      "hit": false,
      "t": 128108.05900000021,
      "d": 802.3645572916721,
      "v": 88
    },
    {
      "midi": 77,
      "hit": false,
      "t": 128108.05900000033,
      "d": 185.81073958333582,
      "v": 48
    },
    {
      "midi": 79,
      "hit": false,
      "t": 128108.05900000033,
      "d": 194.2566822916706,
      "v": 59
    },
    {
      "midi": 74,
      "hit": false,
      "t": 128108.05900000033,
      "d": 211.14856770834012,
      "v": 65
    },
    {
      "midi": 71,
      "hit": false,
      "t": 128108.05900000033,
      "d": 236.48639583334443,
      "v": 66
    },
    {
      "midi": 65,
      "hit": false,
      "t": 128918.86950000022,
      "d": 802.3645572916721,
      "v": 85
    },
    {
      "midi": 71,
      "hit": false,
      "t": 128918.86950000034,
      "d": 202.70262500000536,
      "v": 55
    },
    {
      "midi": 74,
      "hit": false,
      "t": 128918.86950000034,
      "d": 211.14856770834012,
      "v": 53
    },
    {
      "midi": 77,
      "hit": false,
      "t": 128918.86950000034,
      "d": 211.14856770834012,
      "v": 52
    },
    {
      "midi": 79,
      "hit": false,
      "t": 128918.86950000034,
      "d": 211.14856770834012,
      "v": 61
    },
    {
      "midi": 67,
      "hit": false,
      "t": 129729.68000000023,
      "d": 667.2294739583303,
      "v": 88
    },
    {
      "midi": 72,
      "hit": false,
      "t": 129729.68000000034,
      "d": 202.70262500000536,
      "v": 60
    },
    {
      "midi": 75,
      "hit": false,
      "t": 129729.68000000034,
      "d": 236.48639583334443,
      "v": 70
    },
    {
      "midi": 79,
      "hit": false,
      "t": 129729.68000000034,
      "d": 236.48639583334443,
      "v": 62
    },
    {
      "midi": 67,
      "hit": false,
      "t": 130540.49050000022,
      "d": 2195.9451041666616,
      "v": 85
    },
    {
      "midi": 72,
      "hit": false,
      "t": 130540.49050000035,
      "d": 177.36479687500105,
      "v": 47
    },
    {
      "midi": 75,
      "hit": false,
      "t": 130540.49050000035,
      "d": 211.14856770834012,
      "v": 58
    },
    {
      "midi": 79,
      "hit": false,
      "t": 130540.49050000035,
      "d": 236.48639583334443,
      "v": 50
    },
    {
      "midi": 72,
      "hit": false,
      "t": 131351.30100000036,
      "d": 177.3647968749865,
      "v": 53
    },
    {
      "midi": 75,
      "hit": false,
      "t": 131351.30100000036,
      "d": 185.8107395833067,
      "v": 59
    },
    {
      "midi": 79,
      "hit": false,
      "t": 131351.30100000036,
      "d": 211.14856770829647,
      "v": 57
    },
    {
      "midi": 75,
      "hit": false,
      "t": 132162.11150000032,
      "d": 177.3647968749865,
      "v": 63
    },
    {
      "midi": 72,
      "hit": false,
      "t": 132162.11150000032,
      "d": 202.70262499997625,
      "v": 49
    },
    {
      "midi": 79,
      "hit": false,
      "t": 132162.11150000032,
      "d": 261.8242239583051,
      "v": 58
    },
    {
      "midi": 72,
      "hit": false,
      "t": 132972.92200000022,
      "d": 2246.6207604166702,
      "v": 91
    },
    {
      "midi": 79,
      "hit": false,
      "t": 132972.92200000028,
      "d": 202.70262500000536,
      "v": 62
    },
    {
      "midi": 76,
      "hit": false,
      "t": 132972.92200000028,
      "d": 211.14856770832557,
      "v": 59
    },
    {
      "midi": 72,
      "hit": false,
      "t": 132972.92200000028,
      "d": 236.48639583331533,
      "v": 61
    },
    {
      "midi": 82,
      "hit": false,
      "t": 132972.92200000028,
      "d": 261.8242239583051,
      "v": 59
    },
    {
      "midi": 79,
      "hit": false,
      "t": 133783.73250000025,
      "d": 194.25668229165603,
      "v": 57
    },
    {
      "midi": 72,
      "hit": false,
      "t": 133783.73250000025,
      "d": 211.14856770832557,
      "v": 59
    },
    {
      "midi": 76,
      "hit": false,
      "t": 133783.73250000025,
      "d": 211.14856770832557,
      "v": 58
    },
    {
      "midi": 82,
      "hit": false,
      "t": 133783.73250000025,
      "d": 236.48639583331533,
      "v": 58
    },
    {
      "midi": 79,
      "hit": false,
      "t": 134594.54300000024,
      "d": 194.25668229165603,
      "v": 53
    },
    {
      "midi": 72,
      "hit": false,
      "t": 134594.54300000024,
      "d": 211.14856770832557,
      "v": 56
    },
    {
      "midi": 76,
      "hit": false,
      "t": 134594.54300000024,
      "d": 211.14856770832557,
      "v": 57
    },
    {
      "midi": 82,
      "hit": false,
      "t": 134594.54300000024,
      "d": 236.48639583331533,
      "v": 60
    },
    {
      "midi": 79,
      "hit": false,
      "t": 135405.35350000023,
      "d": 177.3647968749865,
      "v": 53
    },
    {
      "midi": 72,
      "hit": false,
      "t": 135405.35350000023,
      "d": 185.8107395833067,
      "v": 57
    },
    {
      "midi": 76,
      "hit": false,
      "t": 135405.35350000023,
      "d": 211.14856770829647,
      "v": 57
    },
    {
      "midi": 82,
      "hit": false,
      "t": 135405.35350000023,
      "d": 261.8242239583051,
      "v": 54
    },
    {
      "midi": 70,
      "hit": false,
      "t": 135405.35350000023,
      "d": 802.3645572916721,
      "v": 87
    },
    {
      "midi": 72,
      "hit": false,
      "t": 136216.1640000002,
      "d": 253.37828125001397,
      "v": 59
    },
    {
      "midi": 80,
      "hit": false,
      "t": 136216.1640000002,
      "d": 253.37828125001397,
      "v": 62
    },
    {
      "midi": 77,
      "hit": false,
      "t": 136216.1640000002,
      "d": 287.16205208335305,
      "v": 66
    },
    {
      "midi": 68,
      "hit": false,
      "t": 136216.16400000022,
      "d": 684.1213593750144,
      "v": 90
    },
    {
      "midi": 80,
      "hit": false,
      "t": 137026.97450000021,
      "d": 177.3647968749865,
      "v": 58
    },
    {
      "midi": 77,
      "hit": false,
      "t": 137026.97450000021,
      "d": 202.70262499997625,
      "v": 66
    },
    {
      "midi": 72,
      "hit": false,
      "t": 137026.97450000021,
      "d": 211.14856770829647,
      "v": 56
    },
    {
      "midi": 68,
      "hit": false,
      "t": 137026.97450000024,
      "d": 1249.999520833342,
      "v": 86
    },
    {
      "midi": 77,
      "hit": false,
      "t": 137837.78500000018,
      "d": 177.3647968749865,
      "v": 67
    },
    {
      "midi": 72,
      "hit": false,
      "t": 137837.78500000018,
      "d": 202.70262499997625,
      "v": 58
    },
    {
      "midi": 80,
      "hit": false,
      "t": 137837.78500000018,
      "d": 202.70262499997625,
      "v": 62
    },
    {
      "midi": 77,
      "hit": false,
      "t": 138648.59550000014,
      "d": 202.70262500000536,
      "v": 65
    },
    {
      "midi": 80,
      "hit": false,
      "t": 138648.59550000014,
      "d": 211.14856770832557,
      "v": 60
    },
    {
      "midi": 72,
      "hit": false,
      "t": 138648.59550000014,
      "d": 261.8242239583342,
      "v": 59
    },
    {
      "midi": 68,
      "hit": false,
      "t": 138648.59550000026,
      "d": 802.3645572916721,
      "v": 86
    },
    {
      "midi": 70,
      "hit": false,
      "t": 139459.40600000013,
      "d": 211.14856770832557,
      "v": 59
    },
    {
      "midi": 74,
      "hit": false,
      "t": 139459.40600000013,
      "d": 211.14856770832557,
      "v": 68
    },
    {
      "midi": 77,
      "hit": false,
      "t": 139459.40600000013,
      "d": 236.48639583331533,
      "v": 56
    },
    {
      "midi": 80,
      "hit": false,
      "t": 139459.40600000013,
      "d": 261.8242239583051,
      "v": 65
    },
    {
      "midi": 72,
      "hit": false,
      "t": 139459.40600000025,
      "d": 608.107874999987,
      "v": 88
    },
    {
      "midi": 80,
      "hit": false,
      "t": 140270.2165000001,
      "d": 177.3647968749865,
      "v": 57
    },
    {
      "midi": 74,
      "hit": false,
      "t": 140270.2165000001,
      "d": 211.14856770832557,
      "v": 64
    },
    {
      "midi": 77,
      "hit": false,
      "t": 140270.2165000001,
      "d": 211.14856770832557,
      "v": 52
    },
    {
      "midi": 70,
      "hit": false,
      "t": 140270.2165000001,
      "d": 236.48639583331533,
      "v": 57
    },
    {
      "midi": 72,
      "hit": false,
      "t": 140270.21650000024,
      "d": 802.3645572916721,
      "v": 86
    },
    {
      "midi": 80,
      "hit": false,
      "t": 141081.0270000001,
      "d": 177.3647968749865,
      "v": 39
    },
    {
      "midi": 77,
      "hit": false,
      "t": 141081.0270000001,
      "d": 185.8107395833067,
      "v": 48
    },
    {
      "midi": 74,
      "hit": false,
      "t": 141081.0270000001,
      "d": 211.14856770829647,
      "v": 65
    },
    {
      "midi": 70,
      "hit": false,
      "t": 141081.0270000001,
      "d": 236.48639583328622,
      "v": 53
    },
    {
      "midi": 70,
      "hit": false,
      "t": 141081.02700000023,
      "d": 793.9186145833228,
      "v": 88
    },
    {
      "midi": 70,
      "hit": false,
      "t": 141891.83750000005,
      "d": 202.70262500000536,
      "v": 53
    },
    {
      "midi": 74,
      "hit": false,
      "t": 141891.83750000005,
      "d": 211.14856770832557,
      "v": 53
    },
    {
      "midi": 77,
      "hit": false,
      "t": 141891.83750000005,
      "d": 211.14856770832557,
      "v": 52
    },
    {
      "midi": 80,
      "hit": false,
      "t": 141891.83750000005,
      "d": 211.14856770832557,
      "v": 40
    },
    {
      "midi": 68,
      "hit": false,
      "t": 141891.83750000023,
      "d": 802.3645572916721,
      "v": 85
    },
    {
      "midi": 70,
      "hit": false,
      "t": 142702.64800000004,
      "d": 202.70262500000536,
      "v": 60
    },
    {
      "midi": 74,
      "hit": false,
      "t": 142702.64800000004,
      "d": 236.48639583334443,
      "v": 70
    },
    {
      "midi": 79,
      "hit": false,
      "t": 142702.64800000004,
      "d": 236.48639583334443,
      "v": 62
    },
    {
      "midi": 82,
      "hit": false,
      "t": 142702.64800000004,
      "d": 236.48639583334443,
      "v": 62
    },
    {
      "midi": 67,
      "hit": false,
      "t": 142702.64800000022,
      "d": 658.7835312499956,
      "v": 89
    },
    {
      "midi": 70,
      "hit": false,
      "t": 143513.45850000007,
      "d": 177.3647968749865,
      "v": 47
    },
    {
      "midi": 74,
      "hit": false,
      "t": 143513.45850000007,
      "d": 211.14856770832557,
      "v": 58
    },
    {
      "midi": 79,
      "hit": false,
      "t": 143513.45850000007,
      "d": 236.48639583331533,
      "v": 50
    },
    {
      "midi": 82,
      "hit": false,
      "t": 143513.45850000007,
      "d": 236.48639583331533,
      "v": 50
    },
    {
      "midi": 67,
      "hit": false,
      "t": 143513.4585000002,
      "d": 1300.6751770833216,
      "v": 86
    },
    {
      "midi": 70,
      "hit": false,
      "t": 144324.26900000006,
      "d": 177.3647968749865,
      "v": 53
    },
    {
      "midi": 74,
      "hit": false,
      "t": 144324.26900000006,
      "d": 185.8107395833067,
      "v": 59
    },
    {
      "midi": 79,
      "hit": false,
      "t": 144324.26900000006,
      "d": 211.14856770829647,
      "v": 57
    },
    {
      "midi": 82,
      "hit": false,
      "t": 144324.26900000006,
      "d": 211.14856770829647,
      "v": 57
    },
    {
      "midi": 74,
      "hit": false,
      "t": 145135.07950000002,
      "d": 177.3647968749865,
      "v": 63
    },
    {
      "midi": 70,
      "hit": false,
      "t": 145135.07950000002,
      "d": 202.70262499997625,
      "v": 49
    },
    {
      "midi": 79,
      "hit": false,
      "t": 145135.07950000002,
      "d": 261.8242239583051,
      "v": 58
    },
    {
      "midi": 82,
      "hit": false,
      "t": 145135.07950000002,
      "d": 261.8242239583051,
      "v": 58
    },
    {
      "midi": 67,
      "hit": false,
      "t": 145135.0795000002,
      "d": 793.9186145833228,
      "v": 85
    },
    {
      "midi": 79,
      "hit": false,
      "t": 145945.88999999998,
      "d": 202.70262500000536,
      "v": 62
    },
    {
      "midi": 76,
      "hit": false,
      "t": 145945.88999999998,
      "d": 211.14856770832557,
      "v": 59
    },
    {
      "midi": 72,
      "hit": false,
      "t": 145945.88999999998,
      "d": 236.48639583331533,
      "v": 61
    },
    {
      "midi": 82,
      "hit": false,
      "t": 145945.88999999998,
      "d": 261.8242239583051,
      "v": 59
    },
    {
      "midi": 70,
      "hit": false,
      "t": 145945.8900000002,
      "d": 591.2159895833465,
      "v": 87
    },
    {
      "midi": 79,
      "hit": false,
      "t": 146756.70049999995,
      "d": 194.25668229165603,
      "v": 57
    },
    {
      "midi": 72,
      "hit": false,
      "t": 146756.70049999995,
      "d": 211.14856770832557,
      "v": 59
    },
    {
      "midi": 76,
      "hit": false,
      "t": 146756.70049999995,
      "d": 211.14856770832557,
      "v": 58
    },
    {
      "midi": 82,
      "hit": false,
      "t": 146756.70049999995,
      "d": 236.48639583331533,
      "v": 60
    },
    {
      "midi": 70,
      "hit": false,
      "t": 146756.7005000002,
      "d": 802.3645572916721,
      "v": 85
    },
    {
      "midi": 79,
      "hit": false,
      "t": 147567.51099999994,
      "d": 185.81073958333582,
      "v": 53
    },
    {
      "midi": 72,
      "hit": false,
      "t": 147567.51099999994,
      "d": 211.14856770832557,
      "v": 56
    },
    {
      "midi": 76,
      "hit": false,
      "t": 147567.51099999994,
      "d": 211.14856770832557,
      "v": 63
    },
    {
      "midi": 82,
      "hit": false,
      "t": 147567.51099999994,
      "d": 236.48639583331533,
      "v": 60
    },
    {
      "midi": 68,
      "hit": false,
      "t": 147567.5110000002,
      "d": 802.3645572916721,
      "v": 86
    },
    {
      "midi": 79,
      "hit": false,
      "t": 148378.32149999993,
      "d": 177.3647968749865,
      "v": 53
    },
    {
      "midi": 72,
      "hit": false,
      "t": 148378.32149999993,
      "d": 185.8107395833067,
      "v": 57
    },
    {
      "midi": 76,
      "hit": false,
      "t": 148378.32149999993,
      "d": 211.14856770829647,
      "v": 62
    },
    {
      "midi": 82,
      "hit": false,
      "t": 148378.32149999993,
      "d": 261.8242239583051,
      "v": 54
    },
    {
      "midi": 67,
      "hit": false,
      "t": 148378.3215000002,
      "d": 802.3645572916721,
      "v": 87
    },
    {
      "midi": 72,
      "hit": false,
      "t": 149189.1319999999,
      "d": 253.37828125001397,
      "v": 59
    },
    {
      "midi": 80,
      "hit": false,
      "t": 149189.1319999999,
      "d": 253.37828125001397,
      "v": 56
    },
    {
      "midi": 77,
      "hit": false,
      "t": 149189.1319999999,
      "d": 287.16205208335305,
      "v": 60
    },
    {
      "midi": 65,
      "hit": false,
      "t": 149189.1320000002,
      "d": 692.5673020833347,
      "v": 87
    },
    {
      "midi": 80,
      "hit": false,
      "t": 149999.94249999992,
      "d": 177.3647968749865,
      "v": 58
    },
    {
      "midi": 77,
      "hit": false,
      "t": 149999.94249999992,
      "d": 202.70262499997625,
      "v": 66
    },
    {
      "midi": 72,
      "hit": false,
      "t": 149999.94249999992,
      "d": 211.14856770829647,
      "v": 56
    },
    {
      "midi": 65,
      "hit": false,
      "t": 149999.94250000018,
      "d": 1275.3373489583319,
      "v": 83
    },
    {
      "midi": 77,
      "hit": false,
      "t": 150810.75299999988,
      "d": 177.3647968749865,
      "v": 67
    },
    {
      "midi": 72,
      "hit": false,
      "t": 150810.75299999988,
      "d": 202.70262499997625,
      "v": 58
    },
    {
      "midi": 80,
      "hit": false,
      "t": 150810.75299999988,
      "d": 202.70262499997625,
      "v": 62
    },
    {
      "midi": 77,
      "hit": false,
      "t": 151621.56349999984,
      "d": 202.70262500000536,
      "v": 65
    },
    {
      "midi": 80,
      "hit": false,
      "t": 151621.56349999984,
      "d": 211.14856770832557,
      "v": 60
    },
    {
      "midi": 72,
      "hit": false,
      "t": 151621.56349999984,
      "d": 261.8242239583342,
      "v": 59
    },
    {
      "midi": 65,
      "hit": false,
      "t": 151621.56350000016,
      "d": 802.3645572916721,
      "v": 89
    },
    {
      "midi": 70,
      "hit": false,
      "t": 152432.37399999984,
      "d": 211.14856770832557,
      "v": 59
    },
    {
      "midi": 74,
      "hit": false,
      "t": 152432.37399999984,
      "d": 211.14856770832557,
      "v": 68
    },
    {
      "midi": 77,
      "hit": false,
      "t": 152432.37399999984,
      "d": 236.48639583331533,
      "v": 56
    },
    {
      "midi": 80,
      "hit": false,
      "t": 152432.37399999984,
      "d": 261.8242239583051,
      "v": 55
    },
    {
      "midi": 70,
      "hit": false,
      "t": 152432.37400000016,
      "d": 709.4591875000042,
      "v": 89
    },
    {
      "midi": 80,
      "hit": false,
      "t": 153243.1844999998,
      "d": 177.3647968749865,
      "v": 52
    },
    {
      "midi": 74,
      "hit": false,
      "t": 153243.1844999998,
      "d": 211.14856770832557,
      "v": 64
    },
    {
      "midi": 77,
      "hit": false,
      "t": 153243.1844999998,
      "d": 211.14856770832557,
      "v": 52
    },
    {
      "midi": 70,
      "hit": false,
      "t": 153243.1844999998,
      "d": 236.48639583331533,
      "v": 57
    },
    {
      "midi": 70,
      "hit": false,
      "t": 153243.18450000015,
      "d": 608.107874999987,
      "v": 86
    },
    {
      "midi": 77,
      "hit": false,
      "t": 154053.9949999998,
      "d": 185.81073958333582,
      "v": 48
    },
    {
      "midi": 80,
      "hit": false,
      "t": 154053.9949999998,
      "d": 194.25668229165603,
      "v": 59
    },
    {
      "midi": 74,
      "hit": false,
      "t": 154053.9949999998,
      "d": 211.14856770832557,
      "v": 65
    },
    {
      "midi": 70,
      "hit": false,
      "t": 154053.9949999998,
      "d": 236.48639583331533,
      "v": 66
    },
    {
      "midi": 70,
      "hit": false,
      "t": 154053.99500000014,
      "d": 743.2429583333433,
      "v": 91
    },
    {
      "midi": 70,
      "hit": false,
      "t": 154864.80549999978,
      "d": 202.70262500000536,
      "v": 55
    },
    {
      "midi": 74,
      "hit": false,
      "t": 154864.80549999978,
      "d": 211.14856770832557,
      "v": 53
    },
    {
      "midi": 77,
      "hit": false,
      "t": 154864.80549999978,
      "d": 211.14856770832557,
      "v": 52
    },
    {
      "midi": 80,
      "hit": false,
      "t": 154864.80549999978,
      "d": 211.14856770832557,
      "v": 61
    },
    {
      "midi": 68,
      "hit": false,
      "t": 154864.80550000016,
      "d": 802.3645572916721,
      "v": 89
    },
    {
      "midi": 83,
      "hit": false,
      "t": 155675.61599999978,
      "d": 1621.6210000000137,
      "v": 52
    },
    {
      "midi": 79,
      "hit": false,
      "t": 155675.61599999978,
      "d": 1630.066942708334,
      "v": 55
    },
    {
      "midi": 74,
      "hit": false,
      "t": 155675.61599999978,
      "d": 1689.1885416666628,
      "v": 52
    },
    {
      "midi": 77,
      "hit": false,
      "t": 155675.61599999978,
      "d": 1697.634484374983,
      "v": 53
    },
    {
      "midi": 67,
      "hit": false,
      "t": 155675.61600000015,
      "d": 641.891645833326,
      "v": 90
    },
    {
      "midi": 67,
      "hit": false,
      "t": 156486.42650000015,
      "d": 1283.7832916666812,
      "v": 83
    },
    {
      "midi": 68,
      "hit": false,
      "t": 158108.04750000016,
      "d": 523.6484479166684,
      "v": 76
    },
    {
      "midi": 68,
      "hit": false,
      "t": 158918.85800000015,
      "d": 1081.0806666666758,
      "v": 79
    },
    {
      "midi": 70,
      "hit": false,
      "t": 160135.07375000016,
      "d": 1131.7563229166553,
      "v": 77
    },
    {
      "midi": 68,
      "hit": false,
      "t": 161351.28950000016,
      "d": 785.4726718750026,
      "v": 76
    },
    {
      "midi": 67,
      "hit": false,
      "t": 162162.10000000015,
      "d": 1216.215750000003,
      "v": 78
    },
    {
      "midi": 60,
      "hit": false,
      "t": 164324.26133333347,
      "d": 532.0943906249886,
      "v": 87
    },
    {
      "midi": 63,
      "hit": false,
      "t": 164864.80166666678,
      "d": 532.0943906249886,
      "v": 85
    },
    {
      "midi": 67,
      "hit": false,
      "t": 165405.3420000001,
      "d": 844.5942708333314,
      "v": 82
    },
    {
      "midi": 67,
      "hit": false,
      "t": 166486.42266666677,
      "d": 861.4861562500009,
      "v": 78
    },
    {
      "midi": 65,
      "hit": false,
      "t": 167567.50333333344,
      "d": 532.0943906249886,
      "v": 82
    },
    {
      "midi": 63,
      "hit": false,
      "t": 168108.04366666675,
      "d": 532.0943906249886,
      "v": 82
    },
    {
      "midi": 72,
      "hit": false,
      "t": 168648.58399999977,
      "d": 253.37828125001397,
      "v": 59
    },
    {
      "midi": 80,
      "hit": false,
      "t": 168648.58399999977,
      "d": 253.37828125001397,
      "v": 62
    },
    {
      "midi": 77,
      "hit": false,
      "t": 168648.58399999977,
      "d": 287.16205208335305,
      "v": 66
    },
    {
      "midi": 65,
      "hit": false,
      "t": 168648.58400000006,
      "d": 709.4591875000042,
      "v": 85
    },
    {
      "midi": 80,
      "hit": false,
      "t": 169459.3944999998,
      "d": 177.3647968749865,
      "v": 58
    },
    {
      "midi": 77,
      "hit": false,
      "t": 169459.3944999998,
      "d": 202.70262499997625,
      "v": 66
    },
    {
      "midi": 72,
      "hit": false,
      "t": 169459.3944999998,
      "d": 211.14856770829647,
      "v": 56
    },
    {
      "midi": 65,
      "hit": false,
      "t": 169459.39450000005,
      "d": 3285.4717135416577,
      "v": 77
    },
    {
      "midi": 77,
      "hit": false,
      "t": 170270.20499999975,
      "d": 177.3647968749865,
      "v": 67
    },
    {
      "midi": 72,
      "hit": false,
      "t": 170270.20499999975,
      "d": 202.70262499997625,
      "v": 58
    },
    {
      "midi": 80,
      "hit": false,
      "t": 170270.20499999975,
      "d": 202.70262499997625,
      "v": 62
    },
    {
      "midi": 77,
      "hit": false,
      "t": 171081.01549999972,
      "d": 202.70262500000536,
      "v": 65
    },
    {
      "midi": 80,
      "hit": false,
      "t": 171081.01549999972,
      "d": 211.14856770832557,
      "v": 60
    },
    {
      "midi": 72,
      "hit": false,
      "t": 171081.01549999972,
      "d": 261.8242239583342,
      "v": 59
    },
    {
      "midi": 72,
      "hit": false,
      "t": 171891.8259999997,
      "d": 211.14856770832557,
      "v": 55
    },
    {
      "midi": 74,
      "hit": false,
      "t": 171891.8259999997,
      "d": 211.14856770832557,
      "v": 68
    },
    {
      "midi": 77,
      "hit": false,
      "t": 171891.8259999997,
      "d": 236.48639583331533,
      "v": 56
    },
    {
      "midi": 80,
      "hit": false,
      "t": 171891.8259999997,
      "d": 261.8242239583051,
      "v": 65
    },
    {
      "midi": 80,
      "hit": false,
      "t": 172702.63649999967,
      "d": 177.3647968749865,
      "v": 57
    },
    {
      "midi": 74,
      "hit": false,
      "t": 172702.63649999967,
      "d": 211.14856770832557,
      "v": 64
    },
    {
      "midi": 77,
      "hit": false,
      "t": 172702.63649999967,
      "d": 211.14856770832557,
      "v": 52
    },
    {
      "midi": 72,
      "hit": false,
      "t": 172702.63649999967,
      "d": 236.48639583331533,
      "v": 53
    },
    {
      "midi": 80,
      "hit": false,
      "t": 173513.44699999967,
      "d": 177.3647968749865,
      "v": 39
    },
    {
      "midi": 77,
      "hit": false,
      "t": 173513.44699999967,
      "d": 185.8107395833067,
      "v": 48
    },
    {
      "midi": 74,
      "hit": false,
      "t": 173513.44699999967,
      "d": 211.14856770829647,
      "v": 65
    },
    {
      "midi": 72,
      "hit": false,
      "t": 173513.44699999967,
      "d": 236.48639583328622,
      "v": 56
    },
    {
      "midi": 72,
      "hit": false,
      "t": 174324.25749999963,
      "d": 202.70262500000536,
      "v": 47
    },
    {
      "midi": 74,
      "hit": false,
      "t": 174324.25749999963,
      "d": 211.14856770832557,
      "v": 53
    },
    {
      "midi": 77,
      "hit": false,
      "t": 174324.25749999963,
      "d": 211.14856770832557,
      "v": 52
    },
    {
      "midi": 80,
      "hit": false,
      "t": 174324.25749999963,
      "d": 211.14856770832557,
      "v": 40
    },
    {
      "midi": 71,
      "hit": false,
      "t": 175135.06799999962,
      "d": 202.70262500000536,
      "v": 60
    },
    {
      "midi": 74,
      "hit": false,
      "t": 175135.06799999962,
      "d": 236.48639583334443,
      "v": 61
    },
    {
      "midi": 77,
      "hit": false,
      "t": 175135.06799999962,
      "d": 236.48639583334443,
      "v": 59
    },
    {
      "midi": 79,
      "hit": false,
      "t": 175135.06799999962,
      "d": 236.48639583334443,
      "v": 58
    },
    {
      "midi": 71,
      "hit": false,
      "t": 175945.87849999964,
      "d": 177.3647968749865,
      "v": 47
    },
    {
      "midi": 74,
      "hit": false,
      "t": 175945.87849999964,
      "d": 211.14856770832557,
      "v": 58
    },
    {
      "midi": 77,
      "hit": false,
      "t": 175945.87849999964,
      "d": 236.48639583331533,
      "v": 50
    },
    {
      "midi": 79,
      "hit": false,
      "t": 175945.87849999964,
      "d": 236.48639583331533,
      "v": 50
    },
    {
      "midi": 71,
      "hit": false,
      "t": 176756.68899999963,
      "d": 177.3647968749865,
      "v": 53
    },
    {
      "midi": 74,
      "hit": false,
      "t": 176756.68899999963,
      "d": 185.8107395833067,
      "v": 59
    },
    {
      "midi": 77,
      "hit": false,
      "t": 176756.68899999963,
      "d": 211.14856770829647,
      "v": 57
    },
    {
      "midi": 79,
      "hit": false,
      "t": 176756.68899999963,
      "d": 211.14856770829647,
      "v": 57
    },
    {
      "midi": 62,
      "hit": false,
      "t": 177297.22933333338,
      "d": 532.0943906249886,
      "v": 91
    },
    {
      "midi": 74,
      "hit": false,
      "t": 177567.4994999996,
      "d": 177.3647968749865,
      "v": 57
    },
    {
      "midi": 71,
      "hit": false,
      "t": 177567.4994999996,
      "d": 202.70262499997625,
      "v": 49
    },
    {
      "midi": 77,
      "hit": false,
      "t": 177567.4994999996,
      "d": 261.8242239583051,
      "v": 58
    },
    {
      "midi": 79,
      "hit": false,
      "t": 177567.4994999996,
      "d": 261.8242239583051,
      "v": 58
    },
    {
      "midi": 63,
      "hit": false,
      "t": 177837.7696666667,
      "d": 532.0943906249886,
      "v": 88
    },
    {
      "midi": 77,
      "hit": false,
      "t": 178378.30999999956,
      "d": 202.70262500000536,
      "v": 57
    },
    {
      "midi": 79,
      "hit": false,
      "t": 178378.30999999956,
      "d": 202.70262500000536,
      "v": 60
    },
    {
      "midi": 74,
      "hit": false,
      "t": 178378.30999999956,
      "d": 211.14856770832557,
      "v": 59
    },
    {
      "midi": 71,
      "hit": false,
      "t": 178378.30999999956,
      "d": 236.48639583331533,
      "v": 61
    },
    {
      "midi": 67,
      "hit": false,
      "t": 178378.31,
      "d": 1072.6347239583265,
      "v": 89
    },
    {
      "midi": 77,
      "hit": false,
      "t": 179189.12049999955,
      "d": 177.3647968749865,
      "v": 57
    },
    {
      "midi": 79,
      "hit": false,
      "t": 179189.12049999955,
      "d": 185.8107395833067,
      "v": 57
    },
    {
      "midi": 71,
      "hit": false,
      "t": 179189.12049999955,
      "d": 211.14856770829647,
      "v": 59
    },
    {
      "midi": 74,
      "hit": false,
      "t": 179189.12049999955,
      "d": 211.14856770829647,
      "v": 58
    },
    {
      "midi": 65,
      "hit": false,
      "t": 179459.39066666664,
      "d": 1021.959067708347,
      "v": 84
    },
    {
      "midi": 77,
      "hit": false,
      "t": 179999.93099999952,
      "d": 185.81073958333582,
      "v": 53
    },
    {
      "midi": 79,
      "hit": false,
      "t": 179999.93099999952,
      "d": 185.81073958333582,
      "v": 53
    },
    {
      "midi": 71,
      "hit": false,
      "t": 179999.93099999952,
      "d": 211.14856770832557,
      "v": 56
    },
    {
      "midi": 74,
      "hit": false,
      "t": 179999.93099999952,
      "d": 211.14856770832557,
      "v": 61
    },
    {
      "midi": 63,
      "hit": false,
      "t": 180540.47133333332,
      "d": 506.75656249999884,
      "v": 85
    },
    {
      "midi": 77,
      "hit": false,
      "t": 180810.7414999995,
      "d": 177.3647968749865,
      "v": 53
    },
    {
      "midi": 79,
      "hit": false,
      "t": 180810.7414999995,
      "d": 177.3647968749865,
      "v": 50
    },
    {
      "midi": 71,
      "hit": false,
      "t": 180810.7414999995,
      "d": 185.8107395833067,
      "v": 56
    },
    {
      "midi": 74,
      "hit": false,
      "t": 180810.7414999995,
      "d": 211.14856770829647,
      "v": 57
    },
    {
      "midi": 62,
      "hit": false,
      "t": 181081.01166666666,
      "d": 380.06742187499185,
      "v": 88
    },
    {
      "midi": 72,
      "hit": false,
      "t": 181621.55199999947,
      "d": 228.0404531249951,
      "v": 59
    },
    {
      "midi": 75,
      "hit": false,
      "t": 181621.55199999947,
      "d": 244.93233854166465,
      "v": 59
    },
    {
      "midi": 79,
      "hit": false,
      "t": 181621.55199999947,
      "d": 244.93233854166465,
      "v": 60
    },
    {
      "midi": 62,
      "hit": false,
      "t": 181621.552,
      "d": 1055.742838541657,
      "v": 92
    },
    {
      "midi": 79,
      "hit": false,
      "t": 182432.36249999946,
      "d": 202.70262500000536,
      "v": 66
    },
    {
      "midi": 72,
      "hit": false,
      "t": 182432.36249999946,
      "d": 211.14856770832557,
      "v": 56
    },
    {
      "midi": 75,
      "hit": false,
      "t": 182432.36249999946,
      "d": 211.14856770832557,
      "v": 56
    },
    {
      "midi": 60,
      "hit": false,
      "t": 182702.63266666664,
      "d": 971.2834114583384,
      "v": 79
    },
    {
      "midi": 79,
      "hit": false,
      "t": 183243.17299999946,
      "d": 177.3647968749865,
      "v": 62
    },
    {
      "midi": 72,
      "hit": false,
      "t": 183243.17299999946,
      "d": 202.70262499997625,
      "v": 58
    },
    {
      "midi": 75,
      "hit": false,
      "t": 183243.17299999946,
      "d": 202.70262499997625,
      "v": 58
    },
    {
      "midi": 60,
      "hit": false,
      "t": 183783.71333333332,
      "d": 532.0943906249886,
      "v": 71
    },
    {
      "midi": 79,
      "hit": false,
      "t": 184053.98349999942,
      "d": 202.70262500000536,
      "v": 62
    },
    {
      "midi": 72,
      "hit": false,
      "t": 184053.98349999942,
      "d": 261.8242239583342,
      "v": 59
    },
    {
      "midi": 75,
      "hit": false,
      "t": 184053.98349999942,
      "d": 261.8242239583342,
      "v": 58
    },
    {
      "midi": 59,
      "hit": false,
      "t": 184324.25366666663,
      "d": 532.0943906249886,
      "v": 80
    },
    {
      "midi": 72,
      "hit": false,
      "t": 184864.7939999994,
      "d": 211.14856770832557,
      "v": 59
    },
    {
      "midi": 75,
      "hit": false,
      "t": 184864.7939999994,
      "d": 211.14856770832557,
      "v": 68
    },
    {
      "midi": 79,
      "hit": false,
      "t": 184864.7939999994,
      "d": 261.8242239583342,
      "v": 55
    },
    {
      "midi": 60,
      "hit": false,
      "t": 184864.79399999994,
      "d": 929.0536979166791,
      "v": 82
    },
    {
      "midi": 79,
      "hit": false,
      "t": 185675.6044999994,
      "d": 177.3647968749865,
      "v": 52
    },
    {
      "midi": 75,
      "hit": false,
      "t": 185675.6044999994,
      "d": 211.14856770832557,
      "v": 64
    },
    {
      "midi": 72,
      "hit": false,
      "t": 185675.6044999994,
      "d": 236.48639583331533,
      "v": 57
    },
    {
      "midi": 60,
      "hit": false,
      "t": 185945.8746666666,
      "d": 3648.647250000009,
      "v": 74
    },
    {
      "midi": 79,
      "hit": false,
      "t": 186486.4149999994,
      "d": 194.25668229165603,
      "v": 59
    },
    {
      "midi": 75,
      "hit": false,
      "t": 186486.4149999994,
      "d": 211.14856770832557,
      "v": 65
    },
    {
      "midi": 72,
      "hit": false,
      "t": 186486.4149999994,
      "d": 236.48639583331533,
      "v": 66
    },
    {
      "midi": 72,
      "hit": false,
      "t": 187297.2254999994,
      "d": 202.70262500000536,
      "v": 55
    },
    {
      "midi": 75,
      "hit": false,
      "t": 187297.2254999994,
      "d": 211.14856770832557,
      "v": 53
    },
    {
      "midi": 79,
      "hit": false,
      "t": 187297.2254999994,
      "d": 211.14856770832557,
      "v": 61
    },
    {
      "midi": 72,
      "hit": false,
      "t": 188108.03599999938,
      "d": 202.70262500000536,
      "v": 60
    },
    {
      "midi": 75,
      "hit": false,
      "t": 188108.03599999938,
      "d": 236.48639583334443,
      "v": 70
    },
    {
      "midi": 79,
      "hit": false,
      "t": 188108.03599999938,
      "d": 236.48639583334443,
      "v": 62
    },
    {
      "midi": 72,
      "hit": false,
      "t": 188918.8464999994,
      "d": 177.3647968749865,
      "v": 47
    },
    {
      "midi": 75,
      "hit": false,
      "t": 188918.8464999994,
      "d": 211.14856770832557,
      "v": 58
    },
    {
      "midi": 79,
      "hit": false,
      "t": 188918.8464999994,
      "d": 236.48639583331533,
      "v": 50
    },
    {
      "midi": 72,
      "hit": false,
      "t": 189729.6569999994,
      "d": 177.3647968749865,
      "v": 53
    },
    {
      "midi": 75,
      "hit": false,
      "t": 189729.6569999994,
      "d": 185.8107395833067,
      "v": 59
    },
    {
      "midi": 79,
      "hit": false,
      "t": 189729.6569999994,
      "d": 211.14856770829647,
      "v": 57
    },
    {
      "midi": 63,
      "hit": false,
      "t": 190270.1973333333,
      "d": 532.0943906249886,
      "v": 91
    },
    {
      "midi": 75,
      "hit": false,
      "t": 190540.46749999936,
      "d": 177.3647968749865,
      "v": 63
    },
    {
      "midi": 72,
      "hit": false,
      "t": 190540.46749999936,
      "d": 202.70262499997625,
      "v": 49
    },
    {
      "midi": 79,
      "hit": false,
      "t": 190540.46749999936,
      "d": 261.8242239583051,
      "v": 58
    },
    {
      "midi": 67,
      "hit": false,
      "t": 190810.7376666666,
      "d": 532.0943906249886,
      "v": 91
    },
    {
      "midi": 79,
      "hit": false,
      "t": 191351.27799999932,
      "d": 202.70262500000536,
      "v": 62
    },
    {
      "midi": 76,
      "hit": false,
      "t": 191351.27799999932,
      "d": 211.14856770832557,
      "v": 59
    },
    {
      "midi": 72,
      "hit": false,
      "t": 191351.27799999932,
      "d": 236.48639583331533,
      "v": 61
    },
    {
      "midi": 82,
      "hit": false,
      "t": 191351.27799999932,
      "d": 261.8242239583051,
      "v": 59
    },
    {
      "midi": 72,
      "hit": false,
      "t": 191351.2779999999,
      "d": 954.3915260416688,
      "v": 95
    },
    {
      "midi": 79,
      "hit": false,
      "t": 192162.08849999928,
      "d": 194.25668229165603,
      "v": 57
    },
    {
      "midi": 72,
      "hit": false,
      "t": 192162.08849999928,
      "d": 211.14856770832557,
      "v": 59
    },
    {
      "midi": 76,
      "hit": false,
      "t": 192162.08849999928,
      "d": 211.14856770832557,
      "v": 58
    },
    {
      "midi": 82,
      "hit": false,
      "t": 192162.08849999928,
      "d": 236.48639583331533,
      "v": 58
    },
    {
      "midi": 72,
      "hit": false,
      "t": 192432.35866666658,
      "d": 853.0402135416807,
      "v": 92
    },
    {
      "midi": 79,
      "hit": false,
      "t": 192972.89899999928,
      "d": 194.25668229165603,
      "v": 53
    },
    {
      "midi": 72,
      "hit": false,
      "t": 192972.89899999928,
      "d": 211.14856770832557,
      "v": 56
    },
    {
      "midi": 76,
      "hit": false,
      "t": 192972.89899999928,
      "d": 211.14856770832557,
      "v": 57
    },
    {
      "midi": 82,
      "hit": false,
      "t": 192972.89899999928,
      "d": 236.48639583331533,
      "v": 60
    },
    {
      "midi": 72,
      "hit": false,
      "t": 193513.43933333326,
      "d": 532.0943906249886,
      "v": 96
    },
    {
      "midi": 79,
      "hit": false,
      "t": 193783.70949999927,
      "d": 177.3647968749865,
      "v": 53
    },
    {
      "midi": 72,
      "hit": false,
      "t": 193783.70949999927,
      "d": 185.8107395833067,
      "v": 57
    },
    {
      "midi": 76,
      "hit": false,
      "t": 193783.70949999927,
      "d": 211.14856770829647,
      "v": 57
    },
    {
      "midi": 82,
      "hit": false,
      "t": 193783.70949999927,
      "d": 261.8242239583051,
      "v": 54
    },
    {
      "midi": 70,
      "hit": false,
      "t": 194053.97966666656,
      "d": 413.8511927083309,
      "v": 95
    },
    {
      "midi": 72,
      "hit": false,
      "t": 194594.51999999923,
      "d": 253.37828125001397,
      "v": 59
    },
    {
      "midi": 80,
      "hit": false,
      "t": 194594.51999999923,
      "d": 253.37828125001397,
      "v": 62
    },
    {
      "midi": 77,
      "hit": false,
      "t": 194594.51999999923,
      "d": 287.16205208335305,
      "v": 66
    },
    {
      "midi": 70,
      "hit": false,
      "t": 194594.5199999999,
      "d": 1072.6347239583265,
      "v": 98
    },
    {
      "midi": 80,
      "hit": false,
      "t": 195405.33049999925,
      "d": 177.3647968749865,
      "v": 58
    },
    {
      "midi": 77,
      "hit": false,
      "t": 195405.33049999925,
      "d": 202.70262499997625,
      "v": 66
    },
    {
      "midi": 72,
      "hit": false,
      "t": 195405.33049999925,
      "d": 211.14856770829647,
      "v": 56
    },
    {
      "midi": 68,
      "hit": false,
      "t": 195675.60066666655,
      "d": 954.3915260416688,
      "v": 89
    },
    {
      "midi": 77,
      "hit": false,
      "t": 196216.14099999922,
      "d": 177.3647968749865,
      "v": 67
    },
    {
      "midi": 72,
      "hit": false,
      "t": 196216.14099999922,
      "d": 202.70262499997625,
      "v": 58
    },
    {
      "midi": 80,
      "hit": false,
      "t": 196216.14099999922,
      "d": 202.70262499997625,
      "v": 62
    },
    {
      "midi": 68,
      "hit": false,
      "t": 196756.68133333322,
      "d": 532.0943906249886,
      "v": 95
    },
    {
      "midi": 77,
      "hit": false,
      "t": 197026.95149999918,
      "d": 202.70262500000536,
      "v": 65
    },
    {
      "midi": 80,
      "hit": false,
      "t": 197026.95149999918,
      "d": 211.14856770832557,
      "v": 60
    },
    {
      "midi": 72,
      "hit": false,
      "t": 197026.95149999918,
      "d": 261.8242239583342,
      "v": 59
    },
    {
      "midi": 67,
      "hit": false,
      "t": 197297.22166666653,
      "d": 532.0943906249886,
      "v": 92
    },
    {
      "midi": 72,
      "hit": false,
      "t": 197837.76199999917,
      "d": 211.14856770832557,
      "v": 59
    },
    {
      "midi": 77,
      "hit": false,
      "t": 197837.76199999917,
      "d": 236.48639583331533,
      "v": 56
    },
    {
      "midi": 80,
      "hit": false,
      "t": 197837.76199999917,
      "d": 261.8242239583051,
      "v": 65
    },
    {
      "midi": 68,
      "hit": false,
      "t": 197837.76199999984,
      "d": 869.9320989583211,
      "v": 88
    },
    {
      "midi": 80,
      "hit": false,
      "t": 198648.57249999914,
      "d": 177.3647968749865,
      "v": 57
    },
    {
      "midi": 77,
      "hit": false,
      "t": 198648.57249999914,
      "d": 211.14856770832557,
      "v": 52
    },
    {
      "midi": 72,
      "hit": false,
      "t": 198648.57249999914,
      "d": 236.48639583331533,
      "v": 57
    },
    {
      "midi": 68,
      "hit": false,
      "t": 198918.8426666665,
      "d": 2179.053218749992,
      "v": 87
    },
    {
      "midi": 80,
      "hit": false,
      "t": 199459.38299999913,
      "d": 177.3647968749865,
      "v": 39
    },
    {
      "midi": 77,
      "hit": false,
      "t": 199459.38299999913,
      "d": 185.8107395833067,
      "v": 48
    },
    {
      "midi": 72,
      "hit": false,
      "t": 199459.38299999913,
      "d": 236.48639583331533,
      "v": 53
    },
    {
      "midi": 72,
      "hit": false,
      "t": 200270.19349999912,
      "d": 202.70262500000536,
      "v": 53
    },
    {
      "midi": 77,
      "hit": false,
      "t": 200270.19349999912,
      "d": 211.14856770832557,
      "v": 52
    },
    {
      "midi": 80,
      "hit": false,
      "t": 200270.19349999912,
      "d": 211.14856770832557,
      "v": 40
    },
    {
      "midi": 71,
      "hit": false,
      "t": 201004.99051562411,
      "d": 1824.323625000019,
      "v": 60
    },
    {
      "midi": 74,
      "hit": false,
      "t": 201055.66617187412,
      "d": 1858.1073958333582,
      "v": 70
    },
    {
      "midi": 77,
      "hit": false,
      "t": 201106.34182812413,
      "d": 1858.1073958333582,
      "v": 62
    },
    {
      "midi": 79,
      "hit": false,
      "t": 201157.01748437414,
      "d": 1858.1073958333582,
      "v": 62
    },
    {
      "midi": 62,
      "hit": false,
      "t": 203243.16533333313,
      "d": 532.0943906249886,
      "v": 92
    },
    {
      "midi": 63,
      "hit": false,
      "t": 203783.70566666644,
      "d": 532.0943906249886,
      "v": 87
    },
    {
      "midi": 67,
      "hit": false,
      "t": 204324.24599999975,
      "d": 1047.2968958333367,
      "v": 89
    },
    {
      "midi": 65,
      "hit": false,
      "t": 205405.32666666643,
      "d": 979.7293541666586,
      "v": 83
    },
    {
      "midi": 63,
      "hit": false,
      "t": 206486.40733333307,
      "d": 532.0943906249886,
      "v": 77
    },
    {
      "midi": 62,
      "hit": false,
      "t": 207026.94766666638,
      "d": 439.1890208333207,
      "v": 80
    },
    {
      "midi": 72,
      "hit": false,
      "t": 207567.48799999917,
      "d": 253.37828125001397,
      "v": 59
    },
    {
      "midi": 79,
      "hit": false,
      "t": 207567.48799999917,
      "d": 253.37828125001397,
      "v": 56
    },
    {
      "midi": 84,
      "hit": false,
      "t": 207567.48799999917,
      "d": 253.37828125001397,
      "v": 56
    },
    {
      "midi": 75,
      "hit": false,
      "t": 207567.48799999917,
      "d": 287.16205208335305,
      "v": 60
    },
    {
      "midi": 62,
      "hit": false,
      "t": 207567.4879999997,
      "d": 802.3645572916721,
      "v": 80
    },
    {
      "midi": 79,
      "hit": false,
      "t": 208378.2984999992,
      "d": 177.3647968749865,
      "v": 58
    },
    {
      "midi": 84,
      "hit": false,
      "t": 208378.2984999992,
      "d": 177.3647968749865,
      "v": 58
    },
    {
      "midi": 75,
      "hit": false,
      "t": 208378.2984999992,
      "d": 202.70262499997625,
      "v": 66
    },
    {
      "midi": 72,
      "hit": false,
      "t": 208378.2984999992,
      "d": 211.14856770829647,
      "v": 56
    },
    {
      "midi": 60,
      "hit": false,
      "t": 208378.29849999968,
      "d": 1097.9725520833454,
      "v": 75
    },
    {
      "midi": 75,
      "hit": false,
      "t": 209189.10899999915,
      "d": 177.3647968749865,
      "v": 67
    },
    {
      "midi": 72,
      "hit": false,
      "t": 209189.10899999915,
      "d": 202.70262499997625,
      "v": 58
    },
    {
      "midi": 79,
      "hit": false,
      "t": 209189.10899999915,
      "d": 202.70262499997625,
      "v": 62
    },
    {
      "midi": 84,
      "hit": false,
      "t": 209189.10899999915,
      "d": 202.70262499997625,
      "v": 62
    },
    {
      "midi": 60,
      "hit": false,
      "t": 209729.64933333304,
      "d": 532.0943906249886,
      "v": 75
    },
    {
      "midi": 75,
      "hit": false,
      "t": 209999.91949999912,
      "d": 202.70262500000536,
      "v": 65
    },
    {
      "midi": 79,
      "hit": false,
      "t": 209999.91949999912,
      "d": 211.14856770832557,
      "v": 60
    },
    {
      "midi": 84,
      "hit": false,
      "t": 209999.91949999912,
      "d": 211.14856770832557,
      "v": 60
    },
    {
      "midi": 72,
      "hit": false,
      "t": 209999.91949999912,
      "d": 261.8242239583342,
      "v": 59
    },
    {
      "midi": 59,
      "hit": false,
      "t": 210270.18966666635,
      "d": 532.0943906249886,
      "v": 75
    },
    {
      "midi": 72,
      "hit": false,
      "t": 210810.7299999991,
      "d": 211.14856770832557,
      "v": 59
    },
    {
      "midi": 75,
      "hit": false,
      "t": 210810.7299999991,
      "d": 211.14856770832557,
      "v": 68
    },
    {
      "midi": 79,
      "hit": false,
      "t": 210810.7299999991,
      "d": 236.48639583331533,
      "v": 56
    },
    {
      "midi": 84,
      "hit": false,
      "t": 210810.7299999991,
      "d": 261.8242239583051,
      "v": 55
    },
    {
      "midi": 60,
      "hit": false,
      "t": 210810.72999999966,
      "d": 743.2429583333433,
      "v": 77
    },
    {
      "midi": 84,
      "hit": false,
      "t": 211621.54049999907,
      "d": 177.3647968749865,
      "v": 52
    },
    {
      "midi": 75,
      "hit": false,
      "t": 211621.54049999907,
      "d": 211.14856770832557,
      "v": 64
    },
    {
      "midi": 79,
      "hit": false,
      "t": 211621.54049999907,
      "d": 211.14856770832557,
      "v": 52
    },
    {
      "midi": 72,
      "hit": false,
      "t": 211621.54049999907,
      "d": 236.48639583331533,
      "v": 57
    },
    {
      "midi": 60,
      "hit": false,
      "t": 211621.54049999968,
      "d": 3175.67445833332,
      "v": 72
    },
    {
      "midi": 79,
      "hit": false,
      "t": 212432.35099999906,
      "d": 185.81073958333582,
      "v": 48
    },
    {
      "midi": 84,
      "hit": false,
      "t": 212432.35099999906,
      "d": 194.25668229165603,
      "v": 59
    },
    {
      "midi": 75,
      "hit": false,
      "t": 212432.35099999906,
      "d": 211.14856770832557,
      "v": 65
    },
    {
      "midi": 72,
      "hit": false,
      "t": 212432.35099999906,
      "d": 236.48639583331533,
      "v": 66
    },
    {
      "midi": 72,
      "hit": false,
      "t": 213243.16149999906,
      "d": 202.70262500000536,
      "v": 55
    },
    {
      "midi": 75,
      "hit": false,
      "t": 213243.16149999906,
      "d": 211.14856770832557,
      "v": 53
    },
    {
      "midi": 79,
      "hit": false,
      "t": 213243.16149999906,
      "d": 211.14856770832557,
      "v": 52
    },
    {
      "midi": 84,
      "hit": false,
      "t": 213243.16149999906,
      "d": 211.14856770832557,
      "v": 61
    },
    {
      "midi": 84,
      "hit": false,
      "t": 214053.97199999905,
      "d": 1621.6210000000137,
      "v": 52
    },
    {
      "midi": 79,
      "hit": false,
      "t": 214053.97199999905,
      "d": 1630.066942708334,
      "v": 55
    },
    {
      "midi": 72,
      "hit": false,
      "t": 214053.97199999905,
      "d": 1689.1885416666628,
      "v": 52
    },
    {
      "midi": 75,
      "hit": false,
      "t": 214053.97199999905,
      "d": 1697.634484374983,
      "v": 53
    },
    {
      "midi": 36,
      "hit": false,
      "t": 246486.39199999903,
      "d": 734.797015624994,
      "v": 81
    },
    {
      "midi": 43,
      "hit": false,
      "t": 247297.20249999902,
      "d": 793.9186145833228,
      "v": 70
    },
    {
      "midi": 51,
      "hit": false,
      "t": 248108.01299999902,
      "d": 734.797015624994,
      "v": 86
    },
    {
      "midi": 55,
      "hit": false,
      "t": 248918.823499999,
      "d": 869.9320989583211,
      "v": 71
    },
    {
      "midi": 62,
      "hit": false,
      "t": 249729.633999999,
      "d": 1258.4454635416623,
      "v": 73
    },
    {
      "midi": 67,
      "hit": false,
      "t": 250540.444499999,
      "d": 329.39176562501234,
      "v": 67
    },
    {
      "midi": 72,
      "hit": false,
      "t": 251351.254999999,
      "d": 734.797015624994,
      "v": 70
    },
    {
      "midi": 75,
      "hit": false,
      "t": 252162.06549999898,
      "d": 869.9320989583211,
      "v": 71
    },
    {
      "midi": 79,
      "hit": false,
      "t": 252972.87599999897,
      "d": 1258.4454635416623,
      "v": 72
    },
    {
      "midi": 86,
      "hit": false,
      "t": 253783.68649999896,
      "d": 329.39176562501234,
      "v": 73
    }
  ]
}