{
  "jsonPath": "Unknown/Unknown/Bert Kaempfert And His Orchestra/in-the-mood.json",
  "path": "Unknown\\Unknown\\Bert Kaempfert And His Orchestra\\In The Mood.mid",
  "name": "In The Mood",
  "difficulty": "Advanced",
  "bpm": 169.00456312320432,
  "notes": [
    {
      "midi": 48,
      "hit": false,
      "t": 7011.645,
      "d": 192.30249999999978,
      "v": 68
    },
    {
      "midi": 60,
      "hit": false,
      "t": 7011.645,
      "d": 207.09499999999935,
      "v": 52
    },
    {
      "midi": 51,
      "hit": false,
      "t": 7248.325,
      "d": 88.75500000000011,
      "v": 34
    },
    {
      "midi": 63,
      "hit": false,
      "t": 7248.325,
      "d": 118.34000000000015,
      "v": 56
    },
    {
      "midi": 68,
      "hit": false,
      "t": 7366.665,
      "d": 59.17000000000007,
      "v": 36
    },
    {
      "midi": 56,
      "hit": false,
      "t": 7366.665,
      "d": 88.75500000000011,
      "v": 56
    },
    {
      "midi": 54,
      "hit": false,
      "t": 7603.345,
      "d": 73.96249999999964,
      "v": 60
    },
    {
      "midi": 66,
      "hit": false,
      "t": 7603.345,
      "d": 73.96249999999964,
      "v": 56
    },
    {
      "midi": 53,
      "hit": false,
      "t": 7958.365,
      "d": 73.96249999999964,
      "v": 58
    },
    {
      "midi": 65,
      "hit": false,
      "t": 7958.365,
      "d": 88.7549999999992,
      "v": 76
    },
    {
      "midi": 63,
      "hit": false,
      "t": 8313.384999999998,
      "d": 73.96249999999964,
      "v": 80
    },
    {
      "midi": 51,
      "hit": false,
      "t": 8313.384999999998,
      "d": 103.54749999999876,
      "v": 72
    },
    {
      "midi": 65,
      "hit": false,
      "t": 8668.404999999997,
      "d": 73.96249999999964,
      "v": 56
    },
    {
      "midi": 53,
      "hit": false,
      "t": 8668.404999999997,
      "d": 103.54749999999876,
      "v": 58
    },
    {
      "midi": 44,
      "hit": false,
      "t": 9023.424999999996,
      "d": 88.7549999999992,
      "v": 37
    },
    {
      "midi": 65,
      "hit": false,
      "t": 9141.764999999994,
      "d": 133.1324999999997,
      "v": 66
    },
    {
      "midi": 66,
      "hit": false,
      "t": 9141.764999999994,
      "d": 310.6424999999999,
      "v": 48
    },
    {
      "midi": 54,
      "hit": false,
      "t": 9141.764999999994,
      "d": 340.22749999999905,
      "v": 66
    },
    {
      "midi": 65,
      "hit": false,
      "t": 9496.784999999993,
      "d": 295.85000000000036,
      "v": 29
    },
    {
      "midi": 53,
      "hit": false,
      "t": 9496.784999999993,
      "d": 340.2275000000009,
      "v": 37
    },
    {
      "midi": 59,
      "hit": false,
      "t": 9851.804999999993,
      "d": 103.54750000000058,
      "v": 66
    },
    {
      "midi": 63,
      "hit": false,
      "t": 9851.804999999993,
      "d": 399.39750000000095,
      "v": 66
    },
    {
      "midi": 60,
      "hit": false,
      "t": 9851.804999999993,
      "d": 428.9825000000001,
      "v": 66
    },
    {
      "midi": 56,
      "hit": false,
      "t": 10443.504999999994,
      "d": 88.7549999999992,
      "v": 80
    },
    {
      "midi": 68,
      "hit": false,
      "t": 12218.604999999992,
      "d": 73.96249999999964,
      "v": 72
    },
    {
      "midi": 80,
      "hit": false,
      "t": 12218.604999999992,
      "d": 73.96249999999964,
      "v": 64
    },
    {
      "midi": 80,
      "hit": false,
      "t": 12573.624999999993,
      "d": 73.96249999999964,
      "v": 68
    },
    {
      "midi": 68,
      "hit": false,
      "t": 12573.624999999993,
      "d": 88.7549999999992,
      "v": 76
    },
    {
      "midi": 68,
      "hit": false,
      "t": 18608.964999999993,
      "d": 73.96250000000146,
      "v": 66
    },
    {
      "midi": 74,
      "hit": false,
      "t": 18727.304999999993,
      "d": 162.71749999999884,
      "v": 66
    },
    {
      "midi": 78,
      "hit": false,
      "t": 18727.304999999993,
      "d": 192.30249999999796,
      "v": 64
    },
    {
      "midi": 75,
      "hit": false,
      "t": 18727.304999999993,
      "d": 207.09499999999753,
      "v": 50
    },
    {
      "midi": 77,
      "hit": false,
      "t": 19082.32499999999,
      "d": 147.92499999999927,
      "v": 68
    },
    {
      "midi": 73,
      "hit": false,
      "t": 19082.32499999999,
      "d": 281.057499999999,
      "v": 80
    },
    {
      "midi": 75,
      "hit": false,
      "t": 19319.00499999999,
      "d": 59.169999999998254,
      "v": 33
    },
    {
      "midi": 72,
      "hit": false,
      "t": 19319.00499999999,
      "d": 73.96249999999782,
      "v": 68
    },
    {
      "midi": 80,
      "hit": false,
      "t": 19674.024999999987,
      "d": 59.169999999998254,
      "v": 80
    },
    {
      "midi": 92,
      "hit": false,
      "t": 19674.024999999987,
      "d": 88.75499999999738,
      "v": 84
    },
    {
      "midi": 63,
      "hit": false,
      "t": 20029.044999999984,
      "d": 59.169999999998254,
      "v": 76
    },
    {
      "midi": 72,
      "hit": false,
      "t": 20147.38499999998,
      "d": 177.5099999999984,
      "v": 76
    },
    {
      "midi": 68,
      "hit": false,
      "t": 20147.38499999998,
      "d": 192.30249999999796,
      "v": 76
    },
    {
      "midi": 66,
      "hit": false,
      "t": 20502.404999999977,
      "d": 207.09500000000116,
      "v": 76
    },
    {
      "midi": 54,
      "hit": false,
      "t": 20502.404999999977,
      "d": 236.6800000000003,
      "v": 84
    },
    {
      "midi": 63,
      "hit": false,
      "t": 20739.084999999977,
      "d": 59.169999999998254,
      "v": 84
    },
    {
      "midi": 51,
      "hit": false,
      "t": 20739.084999999977,
      "d": 103.54749999999694,
      "v": 62
    },
    {
      "midi": 56,
      "hit": false,
      "t": 21094.104999999974,
      "d": 88.75500000000102,
      "v": 80
    },
    {
      "midi": 68,
      "hit": false,
      "t": 21094.104999999974,
      "d": 103.54750000000058,
      "v": 92
    },
    {
      "midi": 46,
      "hit": false,
      "t": 38253.40499999998,
      "d": 207.09500000000116,
      "v": 88
    },
    {
      "midi": 34,
      "hit": false,
      "t": 38253.40499999998,
      "d": 236.6800000000003,
      "v": 66
    },
    {
      "midi": 72,
      "hit": false,
      "t": 38253.40499999998,
      "d": 236.6800000000003,
      "v": 66
    },
    {
      "midi": 74,
      "hit": false,
      "t": 38253.40499999998,
      "d": 236.6800000000003,
      "v": 68
    },
    {
      "midi": 80,
      "hit": false,
      "t": 38253.40499999998,
      "d": 236.6800000000003,
      "v": 92
    },
    {
      "midi": 84,
      "hit": false,
      "t": 38253.40499999998,
      "d": 236.6800000000003,
      "v": 80
    },
    {
      "midi": 74,
      "hit": false,
      "t": 39318.464999999975,
      "d": 192.30249999999796,
      "v": 68
    },
    {
      "midi": 80,
      "hit": false,
      "t": 39318.464999999975,
      "d": 192.30249999999796,
      "v": 92
    },
    {
      "midi": 34,
      "hit": false,
      "t": 39318.464999999975,
      "d": 207.09500000000116,
      "v": 84
    },
    {
      "midi": 72,
      "hit": false,
      "t": 39318.464999999975,
      "d": 207.09500000000116,
      "v": 84
    },
    {
      "midi": 77,
      "hit": false,
      "t": 39318.464999999975,
      "d": 207.09500000000116,
      "v": 92
    },
    {
      "midi": 82,
      "hit": false,
      "t": 39318.464999999975,
      "d": 207.09500000000116,
      "v": 80
    },
    {
      "midi": 46,
      "hit": false,
      "t": 39318.464999999975,
      "d": 221.88750000000437,
      "v": 92
    },
    {
      "midi": 74,
      "hit": false,
      "t": 40620.20499999998,
      "d": 428.98249999999825,
      "v": 80
    },
    {
      "midi": 72,
      "hit": false,
      "t": 40620.20499999998,
      "d": 443.77500000000146,
      "v": 80
    },
    {
      "midi": 84,
      "hit": false,
      "t": 40620.20499999998,
      "d": 488.1525000000038,
      "v": 88
    },
    {
      "midi": 46,
      "hit": false,
      "t": 40620.20499999998,
      "d": 502.945000000007,
      "v": 92
    },
    {
      "midi": 34,
      "hit": false,
      "t": 40620.20499999998,
      "d": 517.7375000000102,
      "v": 80
    },
    {
      "midi": 77,
      "hit": false,
      "t": 40620.20499999998,
      "d": 517.7375000000102,
      "v": 80
    },
    {
      "midi": 80,
      "hit": false,
      "t": 40620.20499999998,
      "d": 517.7375000000102,
      "v": 97
    },
    {
      "midi": 73,
      "hit": false,
      "t": 41211.90499999999,
      "d": 177.51000000000204,
      "v": 97
    },
    {
      "midi": 77,
      "hit": false,
      "t": 41211.90499999999,
      "d": 192.30250000000524,
      "v": 58
    },
    {
      "midi": 39,
      "hit": false,
      "t": 41211.90499999999,
      "d": 207.09500000000844,
      "v": 97
    },
    {
      "midi": 80,
      "hit": false,
      "t": 41211.90499999999,
      "d": 207.09500000000844,
      "v": 80
    },
    {
      "midi": 82,
      "hit": false,
      "t": 41211.90499999999,
      "d": 221.88750000001164,
      "v": 72
    },
    {
      "midi": 39,
      "hit": false,
      "t": 42158.625,
      "d": 162.71749999999884,
      "v": 92
    },
    {
      "midi": 82,
      "hit": false,
      "t": 42158.625,
      "d": 162.71749999999884,
      "v": 66
    },
    {
      "midi": 73,
      "hit": false,
      "t": 42158.625,
      "d": 177.51000000000204,
      "v": 84
    },
    {
      "midi": 79,
      "hit": false,
      "t": 42158.625,
      "d": 177.51000000000204,
      "v": 80
    },
    {
      "midi": 77,
      "hit": false,
      "t": 42158.625,
      "d": 192.30250000000524,
      "v": 68
    },
    {
      "midi": 70,
      "hit": false,
      "t": 43460.365000000005,
      "d": 88.75499999999738,
      "v": 88
    },
    {
      "midi": 73,
      "hit": false,
      "t": 43460.365000000005,
      "d": 133.1324999999997,
      "v": 97
    },
    {
      "midi": 77,
      "hit": false,
      "t": 43460.365000000005,
      "d": 133.1324999999997,
      "v": 76
    },
    {
      "midi": 80,
      "hit": false,
      "t": 43460.365000000005,
      "d": 133.1324999999997,
      "v": 80
    },
    {
      "midi": 39,
      "hit": false,
      "t": 43460.365000000005,
      "d": 162.71749999999884,
      "v": 102
    },
    {
      "midi": 62,
      "hit": false,
      "t": 78962.365,
      "d": 44.37750000000233,
      "v": 37
    },
    {
      "midi": 59,
      "hit": false,
      "t": 78962.365,
      "d": 73.96250000000873,
      "v": 52
    },
    {
      "midi": 65,
      "hit": false,
      "t": 78962.365,
      "d": 88.75500000000466,
      "v": 52
    },
    {
      "midi": 68,
      "hit": false,
      "t": 78962.365,
      "d": 103.54750000000058,
      "v": 52
    },
    {
      "midi": 58,
      "hit": false,
      "t": 79435.725,
      "d": 236.67999999999302,
      "v": 29
    },
    {
      "midi": 68,
      "hit": false,
      "t": 79435.725,
      "d": 251.47249999998894,
      "v": 37
    },
    {
      "midi": 61,
      "hit": false,
      "t": 79435.725,
      "d": 266.26499999998487,
      "v": 52
    },
    {
      "midi": 65,
      "hit": false,
      "t": 79435.725,
      "d": 266.26499999998487,
      "v": 48
    },
    {
      "midi": 58,
      "hit": false,
      "t": 80027.42499999999,
      "d": 147.9250000000029,
      "v": 28
    },
    {
      "midi": 61,
      "hit": false,
      "t": 80027.42499999999,
      "d": 162.71749999999884,
      "v": 50
    },
    {
      "midi": 63,
      "hit": false,
      "t": 80027.42499999999,
      "d": 162.71749999999884,
      "v": 54
    },
    {
      "midi": 67,
      "hit": false,
      "t": 80027.42499999999,
      "d": 162.71749999999884,
      "v": 58
    },
    {
      "midi": 59,
      "hit": false,
      "t": 81802.525,
      "d": 103.54750000000058,
      "v": 42
    },
    {
      "midi": 62,
      "hit": false,
      "t": 81802.525,
      "d": 103.54750000000058,
      "v": 40
    },
    {
      "midi": 65,
      "hit": false,
      "t": 81802.525,
      "d": 103.54750000000058,
      "v": 30
    },
    {
      "midi": 68,
      "hit": false,
      "t": 81802.525,
      "d": 147.9250000000029,
      "v": 58
    },
    {
      "midi": 58,
      "hit": false,
      "t": 82275.885,
      "d": 207.09500000000116,
      "v": 30
    },
    {
      "midi": 65,
      "hit": false,
      "t": 82275.885,
      "d": 207.09500000000116,
      "v": 48
    },
    {
      "midi": 61,
      "hit": false,
      "t": 82275.885,
      "d": 236.68000000000757,
      "v": 56
    },
    {
      "midi": 68,
      "hit": false,
      "t": 82275.885,
      "d": 251.4725000000035,
      "v": 56
    },
    {
      "midi": 63,
      "hit": false,
      "t": 82867.58499999999,
      "d": 118.33999999999651,
      "v": 44
    },
    {
      "midi": 58,
      "hit": false,
      "t": 82867.58499999999,
      "d": 133.13249999999243,
      "v": 37
    },
    {
      "midi": 61,
      "hit": false,
      "t": 82867.58499999999,
      "d": 133.13249999999243,
      "v": 52
    },
    {
      "midi": 67,
      "hit": false,
      "t": 82867.58499999999,
      "d": 147.92499999998836,
      "v": 62
    },
    {
      "midi": 59,
      "hit": false,
      "t": 84642.68499999998,
      "d": 103.54750000000058,
      "v": 46
    },
    {
      "midi": 62,
      "hit": false,
      "t": 84642.68499999998,
      "d": 103.54750000000058,
      "v": 44
    },
    {
      "midi": 65,
      "hit": false,
      "t": 84642.68499999998,
      "d": 103.54750000000058,
      "v": 36
    },
    {
      "midi": 68,
      "hit": false,
      "t": 84642.68499999998,
      "d": 133.13250000000698,
      "v": 50
    },
    {
      "midi": 65,
      "hit": false,
      "t": 85116.04499999998,
      "d": 207.09500000000116,
      "v": 34
    },
    {
      "midi": 58,
      "hit": false,
      "t": 85116.04499999998,
      "d": 221.8874999999971,
      "v": 46
    },
    {
      "midi": 61,
      "hit": false,
      "t": 85116.04499999998,
      "d": 221.8874999999971,
      "v": 56
    },
    {
      "midi": 68,
      "hit": false,
      "t": 85116.04499999998,
      "d": 236.67999999999302,
      "v": 52
    },
    {
      "midi": 58,
      "hit": false,
      "t": 85707.74499999998,
      "d": 103.54750000000058,
      "v": 46
    },
    {
      "midi": 61,
      "hit": false,
      "t": 85707.74499999998,
      "d": 118.33999999999651,
      "v": 54
    },
    {
      "midi": 63,
      "hit": false,
      "t": 85707.74499999998,
      "d": 118.33999999999651,
      "v": 56
    },
    {
      "midi": 67,
      "hit": false,
      "t": 85707.74499999998,
      "d": 118.33999999999651,
      "v": 66
    },
    {
      "midi": 63,
      "hit": false,
      "t": 86536.12499999997,
      "d": 192.30250000000524,
      "v": 58
    },
    {
      "midi": 55,
      "hit": false,
      "t": 86536.12499999997,
      "d": 221.88750000001164,
      "v": 66
    },
    {
      "midi": 58,
      "hit": false,
      "t": 86536.12499999997,
      "d": 221.88750000001164,
      "v": 62
    },
    {
      "midi": 57,
      "hit": false,
      "t": 87246.16499999998,
      "d": 221.8874999999971,
      "v": 62
    },
    {
      "midi": 54,
      "hit": false,
      "t": 87246.16499999998,
      "d": 236.67999999999302,
      "v": 50
    },
    {
      "midi": 60,
      "hit": false,
      "t": 87246.16499999998,
      "d": 251.47249999998894,
      "v": 60
    },
    {
      "midi": 63,
      "hit": false,
      "t": 87246.16499999998,
      "d": 266.26499999998487,
      "v": 58
    },
    {
      "midi": 55,
      "hit": false,
      "t": 87956.20499999996,
      "d": 103.54750000000058,
      "v": 58
    },
    {
      "midi": 58,
      "hit": false,
      "t": 87956.20499999996,
      "d": 133.13250000000698,
      "v": 46
    },
    {
      "midi": 63,
      "hit": false,
      "t": 87956.20499999996,
      "d": 162.7175000000134,
      "v": 50
    },
    {
      "midi": 59,
      "hit": false,
      "t": 88192.88499999997,
      "d": 118.33999999999651,
      "v": 60
    },
    {
      "midi": 58,
      "hit": false,
      "t": 88547.90499999996,
      "d": 103.54750000000058,
      "v": 66
    },
    {
      "midi": 56,
      "hit": false,
      "t": 88902.92499999996,
      "d": 251.4725000000035,
      "v": 54
    },
    {
      "midi": 62,
      "hit": false,
      "t": 90323.00499999996,
      "d": 44.37750000000233,
      "v": 37
    },
    {
      "midi": 59,
      "hit": false,
      "t": 90323.00499999996,
      "d": 73.96250000000873,
      "v": 52
    },
    {
      "midi": 65,
      "hit": false,
      "t": 90323.00499999996,
      "d": 88.75500000000466,
      "v": 52
    },
    {
      "midi": 68,
      "hit": false,
      "t": 90323.00499999996,
      "d": 103.54750000000058,
      "v": 52
    },
    {
      "midi": 58,
      "hit": false,
      "t": 90796.36499999996,
      "d": 236.67999999999302,
      "v": 29
    },
    {
      "midi": 68,
      "hit": false,
      "t": 90796.36499999996,
      "d": 251.47249999998894,
      "v": 37
    },
    {
      "midi": 61,
      "hit": false,
      "t": 90796.36499999996,
      "d": 266.26499999998487,
      "v": 52
    },
    {
      "midi": 65,
      "hit": false,
      "t": 90796.36499999996,
      "d": 266.26499999998487,
      "v": 48
    },
    {
      "midi": 58,
      "hit": false,
      "t": 91388.06499999994,
      "d": 147.9250000000029,
      "v": 28
    },
    {
      "midi": 61,
      "hit": false,
      "t": 91388.06499999994,
      "d": 162.71749999999884,
      "v": 50
    },
    {
      "midi": 63,
      "hit": false,
      "t": 91388.06499999994,
      "d": 162.71749999999884,
      "v": 54
    },
    {
      "midi": 67,
      "hit": false,
      "t": 91388.06499999994,
      "d": 162.71749999999884,
      "v": 58
    },
    {
      "midi": 59,
      "hit": false,
      "t": 93163.16499999995,
      "d": 103.54750000000058,
      "v": 42
    },
    {
      "midi": 62,
      "hit": false,
      "t": 93163.16499999995,
      "d": 103.54750000000058,
      "v": 40
    },
    {
      "midi": 65,
      "hit": false,
      "t": 93163.16499999995,
      "d": 103.54750000000058,
      "v": 30
    },
    {
      "midi": 68,
      "hit": false,
      "t": 93163.16499999995,
      "d": 147.9250000000029,
      "v": 58
    },
    {
      "midi": 58,
      "hit": false,
      "t": 93636.52499999995,
      "d": 207.09500000000116,
      "v": 30
    },
    {
      "midi": 65,
      "hit": false,
      "t": 93636.52499999995,
      "d": 207.09500000000116,
      "v": 48
    },
    {
      "midi": 61,
      "hit": false,
      "t": 93636.52499999995,
      "d": 236.68000000000757,
      "v": 56
    },
    {
      "midi": 68,
      "hit": false,
      "t": 93636.52499999995,
      "d": 251.4725000000035,
      "v": 56
    },
    {
      "midi": 63,
      "hit": false,
      "t": 94228.22499999995,
      "d": 118.33999999999651,
      "v": 44
    },
    {
      "midi": 58,
      "hit": false,
      "t": 94228.22499999995,
      "d": 133.13249999999243,
      "v": 37
    },
    {
      "midi": 61,
      "hit": false,
      "t": 94228.22499999995,
      "d": 133.13249999999243,
      "v": 52
    },
    {
      "midi": 67,
      "hit": false,
      "t": 94228.22499999995,
      "d": 147.92499999998836,
      "v": 62
    },
    {
      "midi": 59,
      "hit": false,
      "t": 96003.32499999994,
      "d": 103.54750000000058,
      "v": 46
    },
    {
      "midi": 62,
      "hit": false,
      "t": 96003.32499999994,
      "d": 103.54750000000058,
      "v": 44
    },
    {
      "midi": 65,
      "hit": false,
      "t": 96003.32499999994,
      "d": 103.54750000000058,
      "v": 36
    },
    {
      "midi": 68,
      "hit": false,
      "t": 96003.32499999994,
      "d": 133.13250000000698,
      "v": 50
    },
    {
      "midi": 65,
      "hit": false,
      "t": 96476.68499999994,
      "d": 207.09500000000116,
      "v": 34
    },
    {
      "midi": 58,
      "hit": false,
      "t": 96476.68499999994,
      "d": 221.8874999999971,
      "v": 46
    },
    {
      "midi": 61,
      "hit": false,
      "t": 96476.68499999994,
      "d": 221.8874999999971,
      "v": 56
    },
    {
      "midi": 68,
      "hit": false,
      "t": 96476.68499999994,
      "d": 236.67999999999302,
      "v": 52
    },
    {
      "midi": 58,
      "hit": false,
      "t": 97068.38499999994,
      "d": 103.54750000000058,
      "v": 46
    },
    {
      "midi": 61,
      "hit": false,
      "t": 97068.38499999994,
      "d": 118.33999999999651,
      "v": 54
    },
    {
      "midi": 63,
      "hit": false,
      "t": 97068.38499999994,
      "d": 118.33999999999651,
      "v": 56
    },
    {
      "midi": 67,
      "hit": false,
      "t": 97068.38499999994,
      "d": 118.33999999999651,
      "v": 66
    },
    {
      "midi": 63,
      "hit": false,
      "t": 97896.76499999993,
      "d": 192.30250000000524,
      "v": 58
    },
    {
      "midi": 55,
      "hit": false,
      "t": 97896.76499999993,
      "d": 221.88750000001164,
      "v": 66
    },
    {
      "midi": 58,
      "hit": false,
      "t": 97896.76499999993,
      "d": 221.88750000001164,
      "v": 62
    },
    {
      "midi": 57,
      "hit": false,
      "t": 98606.80499999993,
      "d": 221.8874999999971,
      "v": 62
    },
    {
      "midi": 54,
      "hit": false,
      "t": 98606.80499999993,
      "d": 236.67999999999302,
      "v": 50
    },
    {
      "midi": 60,
      "hit": false,
      "t": 98606.80499999993,
      "d": 251.47249999998894,
      "v": 60
    },
    {
      "midi": 63,
      "hit": false,
      "t": 98606.80499999993,
      "d": 266.26499999998487,
      "v": 58
    },
    {
      "midi": 55,
      "hit": false,
      "t": 99316.84499999991,
      "d": 103.54750000000058,
      "v": 58
    },
    {
      "midi": 58,
      "hit": false,
      "t": 99316.84499999991,
      "d": 133.13250000000698,
      "v": 46
    },
    {
      "midi": 63,
      "hit": false,
      "t": 99316.84499999991,
      "d": 162.7175000000134,
      "v": 50
    },
    {
      "midi": 59,
      "hit": false,
      "t": 99553.52499999992,
      "d": 118.33999999999651,
      "v": 60
    },
    {
      "midi": 58,
      "hit": false,
      "t": 99908.54499999991,
      "d": 103.54750000000058,
      "v": 66
    },
    {
      "midi": 56,
      "hit": false,
      "t": 100263.56499999992,
      "d": 251.4725000000035,
      "v": 54
    },
    {
      "midi": 68,
      "hit": false,
      "t": 100736.92499999992,
      "d": 2115.3274999999994,
      "v": 60
    },
    {
      "midi": 63,
      "hit": false,
      "t": 100736.92499999992,
      "d": 2130.1199999999953,
      "v": 64
    },
    {
      "midi": 60,
      "hit": false,
      "t": 100736.92499999992,
      "d": 2144.9124999999913,
      "v": 46
    },
    {
      "midi": 65,
      "hit": false,
      "t": 100781.30249999992,
      "d": 2085.742499999993,
      "v": 22
    },
    {
      "midi": 56,
      "hit": false,
      "t": 100781.3025,
      "d": 192.30250000000524,
      "v": 127
    },
    {
      "midi": 32,
      "hit": false,
      "t": 100944.01999999992,
      "d": 1139.0224999999919,
      "v": 66
    },
    {
      "midi": 44,
      "hit": false,
      "t": 100958.81249999991,
      "d": 1272.1549999999988,
      "v": 58
    },
    {
      "midi": 56,
      "hit": false,
      "t": 101136.32250000001,
      "d": 162.71749999999884,
      "v": 127
    },
    {
      "midi": 58,
      "hit": false,
      "t": 101373.0025,
      "d": 147.9250000000029,
      "v": 100
    },
    {
      "midi": 60,
      "hit": false,
      "t": 101520.9275,
      "d": 192.30250000000524,
      "v": 104
    },
    {
      "midi": 56,
      "hit": false,
      "t": 101861.15500000001,
      "d": 177.50999999999476,
      "v": 114
    },
    {
      "midi": 58,
      "hit": false,
      "t": 102201.3825,
      "d": 236.67999999999302,
      "v": 118
    },
    {
      "midi": 58,
      "hit": false,
      "t": 102556.4025,
      "d": 103.54750000000058,
      "v": 114
    },
    {
      "midi": 60,
      "hit": false,
      "t": 102674.7425,
      "d": 103.54750000000058,
      "v": 106
    },
    {
      "midi": 61,
      "hit": false,
      "t": 102807.875,
      "d": 88.75500000000466,
      "v": 100
    },
    {
      "midi": 60,
      "hit": false,
      "t": 102941.0075,
      "d": 266.2649999999994,
      "v": 80
    },
    {
      "midi": 49,
      "hit": false,
      "t": 103192.47999999991,
      "d": 29.585000000006403,
      "v": 31
    },
    {
      "midi": 51,
      "hit": false,
      "t": 103192.47999999991,
      "d": 236.67999999999302,
      "v": 68
    },
    {
      "midi": 60,
      "hit": false,
      "t": 103222.06499999992,
      "d": 133.13249999999243,
      "v": 76
    },
    {
      "midi": 65,
      "hit": false,
      "t": 103236.85749999991,
      "d": 236.67999999997846,
      "v": 84
    },
    {
      "midi": 55,
      "hit": false,
      "t": 103251.6499999999,
      "d": 118.33999999999651,
      "v": 56
    },
    {
      "midi": 61,
      "hit": false,
      "t": 103251.6499999999,
      "d": 251.47249999998894,
      "v": 42
    },
    {
      "midi": 60,
      "hit": false,
      "t": 103443.9524999999,
      "d": 118.33999999999651,
      "v": 62
    },
    {
      "midi": 63,
      "hit": false,
      "t": 103458.7449999999,
      "d": 103.54750000000058,
      "v": 50
    },
    {
      "midi": 58,
      "hit": false,
      "t": 103488.33,
      "d": 103.54750000000058,
      "v": 116
    },
    {
      "midi": 63,
      "hit": false,
      "t": 103636.255,
      "d": 207.09500000000116,
      "v": 112
    },
    {
      "midi": 60,
      "hit": false,
      "t": 103961.69,
      "d": 236.67999999999302,
      "v": 112
    },
    {
      "midi": 61,
      "hit": false,
      "t": 104331.5025,
      "d": 162.71749999999884,
      "v": 127
    },
    {
      "midi": 62,
      "hit": false,
      "t": 104538.5975,
      "d": 162.71749999999884,
      "v": 112
    },
    {
      "midi": 63,
      "hit": false,
      "t": 104701.315,
      "d": 133.13250000000698,
      "v": 114
    },
    {
      "midi": 66,
      "hit": false,
      "t": 104893.61750000001,
      "d": 118.33999999999651,
      "v": 118
    },
    {
      "midi": 65,
      "hit": false,
      "t": 105233.845,
      "d": 133.13250000000698,
      "v": 106
    },
    {
      "midi": 63,
      "hit": false,
      "t": 105574.07250000001,
      "d": 133.13250000000698,
      "v": 127
    },
    {
      "midi": 51,
      "hit": false,
      "t": 105588.86499999989,
      "d": 59.169999999998254,
      "v": 60
    },
    {
      "midi": 61,
      "hit": false,
      "t": 105588.86499999989,
      "d": 59.169999999998254,
      "v": 68
    },
    {
      "midi": 67,
      "hit": false,
      "t": 105588.86499999989,
      "d": 59.169999999998254,
      "v": 58
    },
    {
      "midi": 72,
      "hit": false,
      "t": 105588.86499999989,
      "d": 59.169999999998254,
      "v": 52
    },
    {
      "midi": 65,
      "hit": false,
      "t": 105929.09250000001,
      "d": 103.54750000000058,
      "v": 116
    },
    {
      "midi": 67,
      "hit": false,
      "t": 105943.8849999999,
      "d": 59.169999999998254,
      "v": 84
    },
    {
      "midi": 72,
      "hit": false,
      "t": 105943.8849999999,
      "d": 59.169999999998254,
      "v": 68
    },
    {
      "midi": 51,
      "hit": false,
      "t": 105958.67749999989,
      "d": 59.169999999998254,
      "v": 52
    },
    {
      "midi": 61,
      "hit": false,
      "t": 105958.67749999989,
      "d": 59.169999999998254,
      "v": 88
    },
    {
      "midi": 68,
      "hit": false,
      "t": 106062.22500000002,
      "d": 133.13250000000698,
      "v": 118
    },
    {
      "midi": 60,
      "hit": false,
      "t": 106269.31999999989,
      "d": 59.169999999998254,
      "v": 76
    },
    {
      "midi": 51,
      "hit": false,
      "t": 106284.11249999989,
      "d": 59.169999999998254,
      "v": 58
    },
    {
      "midi": 68,
      "hit": false,
      "t": 106284.11249999989,
      "d": 73.96249999999418,
      "v": 92
    },
    {
      "midi": 56,
      "hit": false,
      "t": 106298.90499999988,
      "d": 29.585000000006403,
      "v": 60
    },
    {
      "midi": 70,
      "hit": false,
      "t": 106313.69750000002,
      "d": 133.13250000000698,
      "v": 127
    },
    {
      "midi": 71,
      "hit": false,
      "t": 106668.71750000003,
      "d": 118.33999999999651,
      "v": 116
    },
    {
      "midi": 70,
      "hit": false,
      "t": 106787.05750000002,
      "d": 118.33999999999651,
      "v": 104
    },
    {
      "midi": 68,
      "hit": false,
      "t": 107156.87000000002,
      "d": 177.50999999999476,
      "v": 127
    },
    {
      "midi": 80,
      "hit": false,
      "t": 107378.75749999988,
      "d": 73.96249999999418,
      "v": 72
    },
    {
      "midi": 77,
      "hit": false,
      "t": 107393.54999999987,
      "d": 44.37750000000233,
      "v": 62
    },
    {
      "midi": 72,
      "hit": false,
      "t": 107393.54999999987,
      "d": 59.169999999998254,
      "v": 72
    },
    {
      "midi": 65,
      "hit": false,
      "t": 107393.55000000002,
      "d": 133.13250000000698,
      "v": 104
    },
    {
      "midi": 66,
      "hit": false,
      "t": 107408.34249999987,
      "d": 44.37750000000233,
      "v": 80
    },
    {
      "midi": 56,
      "hit": false,
      "t": 107408.34249999987,
      "d": 59.169999999998254,
      "v": 56
    },
    {
      "midi": 68,
      "hit": false,
      "t": 107526.68250000002,
      "d": 162.71749999999884,
      "v": 112
    },
    {
      "midi": 71,
      "hit": false,
      "t": 107763.36250000002,
      "d": 162.71749999999884,
      "v": 127
    },
    {
      "midi": 72,
      "hit": false,
      "t": 108074.00499999986,
      "d": 59.169999999998254,
      "v": 68
    },
    {
      "midi": 77,
      "hit": false,
      "t": 108074.00499999986,
      "d": 59.169999999998254,
      "v": 68
    },
    {
      "midi": 56,
      "hit": false,
      "t": 108074.00499999986,
      "d": 73.96249999999418,
      "v": 64
    },
    {
      "midi": 75,
      "hit": false,
      "t": 108074.00499999986,
      "d": 73.96249999999418,
      "v": 66
    },
    {
      "midi": 80,
      "hit": false,
      "t": 108074.00499999986,
      "d": 73.96249999999418,
      "v": 66
    },
    {
      "midi": 65,
      "hit": false,
      "t": 108088.79749999986,
      "d": 44.37750000000233,
      "v": 84
    },
    {
      "midi": 71,
      "hit": false,
      "t": 108088.79750000002,
      "d": 162.71749999999884,
      "v": 112
    },
    {
      "midi": 70,
      "hit": false,
      "t": 108236.72250000002,
      "d": 118.33999999999651,
      "v": 90
    },
    {
      "midi": 68,
      "hit": false,
      "t": 108576.95000000001,
      "d": 207.09500000000116,
      "v": 118
    },
    {
      "midi": 65,
      "hit": false,
      "t": 108917.17750000002,
      "d": 147.9250000000029,
      "v": 118
    },
    {
      "midi": 63,
      "hit": false,
      "t": 109286.99000000002,
      "d": 147.9250000000029,
      "v": 118
    },
    {
      "midi": 68,
      "hit": false,
      "t": 109494.08500000002,
      "d": 118.33999999999651,
      "v": 122
    },
    {
      "midi": 63,
      "hit": false,
      "t": 109849.10500000001,
      "d": 88.75500000000466,
      "v": 94
    },
    {
      "midi": 66,
      "hit": false,
      "t": 109982.23750000002,
      "d": 162.71749999999884,
      "v": 102
    },
    {
      "midi": 65,
      "hit": false,
      "t": 110204.12500000001,
      "d": 147.9250000000029,
      "v": 112
    },
    {
      "midi": 63,
      "hit": false,
      "t": 110337.25750000002,
      "d": 147.9250000000029,
      "v": 110
    },
    {
      "midi": 39,
      "hit": false,
      "t": 110559.14499999986,
      "d": 133.13249999999243,
      "v": 62
    },
    {
      "midi": 65,
      "hit": false,
      "t": 110559.14500000002,
      "d": 73.96249999999418,
      "v": 90
    },
    {
      "midi": 49,
      "hit": false,
      "t": 110677.48499999986,
      "d": 177.50999999999476,
      "v": 84
    },
    {
      "midi": 63,
      "hit": false,
      "t": 110677.48499999986,
      "d": 177.50999999999476,
      "v": 66
    },
    {
      "midi": 54,
      "hit": false,
      "t": 110677.48499999986,
      "d": 207.09500000000116,
      "v": 76
    },
    {
      "midi": 60,
      "hit": false,
      "t": 110677.48499999986,
      "d": 221.8874999999971,
      "v": 68
    },
    {
      "midi": 57,
      "hit": false,
      "t": 110677.48499999986,
      "d": 236.67999999999302,
      "v": 68
    },
    {
      "midi": 59,
      "hit": false,
      "t": 110692.27750000001,
      "d": 103.54750000000058,
      "v": 110
    },
    {
      "midi": 60,
      "hit": false,
      "t": 110810.61750000001,
      "d": 147.9250000000029,
      "v": 98
    },
    {
      "midi": 63,
      "hit": false,
      "t": 111032.50499999984,
      "d": 177.50999999999476,
      "v": 54
    },
    {
      "midi": 55,
      "hit": false,
      "t": 111032.50499999984,
      "d": 192.3024999999907,
      "v": 58
    },
    {
      "midi": 58,
      "hit": false,
      "t": 111032.50499999984,
      "d": 340.22749999997905,
      "v": 64
    },
    {
      "midi": 56,
      "hit": false,
      "t": 111047.29750000002,
      "d": 177.50999999999476,
      "v": 102
    },
    {
      "midi": 54,
      "hit": false,
      "t": 111269.18499999984,
      "d": 73.96249999999418,
      "v": 68
    },
    {
      "midi": 63,
      "hit": false,
      "t": 111269.18499999984,
      "d": 88.7549999999901,
      "v": 52
    },
    {
      "midi": 60,
      "hit": false,
      "t": 111269.18499999984,
      "d": 118.33999999998196,
      "v": 66
    },
    {
      "midi": 56,
      "hit": false,
      "t": 111283.97750000001,
      "d": 147.9250000000029,
      "v": 116
    },
    {
      "midi": 53,
      "hit": false,
      "t": 111668.5825,
      "d": 310.64250000000175,
      "v": 92
    },
    {
      "midi": 80,
      "hit": false,
      "t": 112334.24499999982,
      "d": 88.7549999999901,
      "v": 76
    },
    {
      "midi": 60,
      "hit": false,
      "t": 112349.03749999982,
      "d": 59.169999999998254,
      "v": 72
    },
    {
      "midi": 65,
      "hit": false,
      "t": 112349.03749999982,
      "d": 59.169999999998254,
      "v": 72
    },
    {
      "midi": 68,
      "hit": false,
      "t": 112349.03749999982,
      "d": 59.169999999998254,
      "v": 72
    },
    {
      "midi": 54,
      "hit": false,
      "t": 112349.03749999982,
      "d": 73.96249999999418,
      "v": 52
    },
    {
      "midi": 61,
      "hit": false,
      "t": 112837.18999999981,
      "d": 59.169999999998254,
      "v": 62
    },
    {
      "midi": 68,
      "hit": false,
      "t": 112837.18999999981,
      "d": 73.96249999999418,
      "v": 72
    },
    {
      "midi": 80,
      "hit": false,
      "t": 112837.18999999981,
      "d": 73.96249999999418,
      "v": 72
    },
    {
      "midi": 54,
      "hit": false,
      "t": 112851.98249999981,
      "d": 59.169999999998254,
      "v": 46
    },
    {
      "midi": 65,
      "hit": false,
      "t": 112851.98249999981,
      "d": 59.169999999998254,
      "v": 50
    },
    {
      "midi": 60,
      "hit": false,
      "t": 112881.56749999982,
      "d": 29.58499999999185,
      "v": 42
    },
    {
      "midi": 80,
      "hit": false,
      "t": 113547.2299999998,
      "d": 88.7549999999901,
      "v": 56
    },
    {
      "midi": 68,
      "hit": false,
      "t": 113562.0224999998,
      "d": 59.169999999998254,
      "v": 72
    },
    {
      "midi": 73,
      "hit": false,
      "t": 113562.0224999998,
      "d": 59.169999999998254,
      "v": 54
    },
    {
      "midi": 58,
      "hit": false,
      "t": 113562.0224999998,
      "d": 73.96249999999418,
      "v": 54
    },
    {
      "midi": 70,
      "hit": false,
      "t": 113562.0224999998,
      "d": 73.96249999999418,
      "v": 50
    },
    {
      "midi": 68,
      "hit": false,
      "t": 114124.1374999998,
      "d": 59.169999999998254,
      "v": 64
    },
    {
      "midi": 71,
      "hit": false,
      "t": 114124.1374999998,
      "d": 73.96249999999418,
      "v": 56
    },
    {
      "midi": 74,
      "hit": false,
      "t": 114124.1374999998,
      "d": 73.96249999999418,
      "v": 58
    },
    {
      "midi": 80,
      "hit": false,
      "t": 114124.1374999998,
      "d": 73.96249999999418,
      "v": 72
    },
    {
      "midi": 66,
      "hit": false,
      "t": 114804.59249999978,
      "d": 59.170000000012806,
      "v": 66
    },
    {
      "midi": 70,
      "hit": false,
      "t": 114804.59249999978,
      "d": 73.96250000000873,
      "v": 62
    },
    {
      "midi": 72,
      "hit": false,
      "t": 114804.59249999978,
      "d": 73.96250000000873,
      "v": 64
    },
    {
      "midi": 80,
      "hit": false,
      "t": 114804.59249999978,
      "d": 73.96250000000873,
      "v": 56
    },
    {
      "midi": 77,
      "hit": false,
      "t": 114834.17749999979,
      "d": 29.585000000006403,
      "v": 44
    },
    {
      "midi": 66,
      "hit": false,
      "t": 115174.4049999998,
      "d": 44.37750000000233,
      "v": 84
    },
    {
      "midi": 72,
      "hit": false,
      "t": 115174.4049999998,
      "d": 44.37750000000233,
      "v": 37
    },
    {
      "midi": 77,
      "hit": false,
      "t": 115174.4049999998,
      "d": 59.169999999998254,
      "v": 48
    },
    {
      "midi": 80,
      "hit": false,
      "t": 115189.19749999979,
      "d": 29.585000000006403,
      "v": 29
    },
    {
      "midi": 80,
      "hit": false,
      "t": 115869.6524999998,
      "d": 73.96249999999418,
      "v": 50
    },
    {
      "midi": 68,
      "hit": false,
      "t": 115884.44499999979,
      "d": 44.37750000000233,
      "v": 64
    },
    {
      "midi": 75,
      "hit": false,
      "t": 115884.44499999979,
      "d": 73.96249999999418,
      "v": 56
    },
    {
      "midi": 63,
      "hit": false,
      "t": 115899.23749999978,
      "d": 59.169999999998254,
      "v": 68
    },
    {
      "midi": 65,
      "hit": false,
      "t": 116357.80499999979,
      "d": 73.96249999999418,
      "v": 48
    },
    {
      "midi": 56,
      "hit": false,
      "t": 116357.80499999979,
      "d": 88.7549999999901,
      "v": 62
    },
    {
      "midi": 61,
      "hit": false,
      "t": 116357.80499999979,
      "d": 88.7549999999901,
      "v": 54
    },
    {
      "midi": 68,
      "hit": false,
      "t": 116357.80499999979,
      "d": 88.7549999999901,
      "v": 44
    },
    {
      "midi": 77,
      "hit": false,
      "t": 116357.80499999979,
      "d": 88.7549999999901,
      "v": 66
    },
    {
      "midi": 73,
      "hit": false,
      "t": 116357.80499999979,
      "d": 103.54749999998603,
      "v": 60
    },
    {
      "midi": 87,
      "hit": false,
      "t": 117319.31749999977,
      "d": 1227.7774999999965,
      "v": 68
    },
    {
      "midi": 75,
      "hit": false,
      "t": 117334.10999999977,
      "d": 1227.7774999999965,
      "v": 84
    },
    {
      "midi": 61,
      "hit": false,
      "t": 117348.90249999976,
      "d": 29.585000000006403,
      "v": 37
    },
    {
      "midi": 85,
      "hit": false,
      "t": 117348.90249999976,
      "d": 177.5100000000093,
      "v": 33
    },
    {
      "midi": 80,
      "hit": false,
      "t": 118768.98249999977,
      "d": 73.96249999999418,
      "v": 107
    },
    {
      "midi": 61,
      "hit": false,
      "t": 120869.51749999975,
      "d": 103.54750000000058,
      "v": 88
    },
    {
      "midi": 65,
      "hit": false,
      "t": 120869.51749999975,
      "d": 103.54750000000058,
      "v": 80
    },
    {
      "midi": 67,
      "hit": false,
      "t": 120869.51749999975,
      "d": 103.54750000000058,
      "v": 92
    },
    {
      "midi": 75,
      "hit": false,
      "t": 120869.51749999975,
      "d": 118.33999999999651,
      "v": 68
    },
    {
      "midi": 72,
      "hit": false,
      "t": 120869.51749999975,
      "d": 133.13249999999243,
      "v": 76
    },
    {
      "midi": 51,
      "hit": false,
      "t": 120869.51749999975,
      "d": 147.92499999998836,
      "v": 72
    },
    {
      "midi": 51,
      "hit": false,
      "t": 121268.91499999975,
      "d": 162.71749999998428,
      "v": 62
    },
    {
      "midi": 75,
      "hit": false,
      "t": 121342.87749999974,
      "d": 147.92499999998836,
      "v": 58
    },
    {
      "midi": 66,
      "hit": false,
      "t": 121342.87749999974,
      "d": 162.71749999998428,
      "v": 58
    },
    {
      "midi": 69,
      "hit": false,
      "t": 121342.87749999974,
      "d": 192.3024999999907,
      "v": 68
    },
    {
      "midi": 72,
      "hit": false,
      "t": 121342.87749999974,
      "d": 192.3024999999907,
      "v": 62
    },
    {
      "midi": 61,
      "hit": false,
      "t": 121357.66999999974,
      "d": 73.96249999999418,
      "v": 42
    },
    {
      "midi": 66,
      "hit": false,
      "t": 121579.55749999973,
      "d": 73.96249999999418,
      "v": 84
    },
    {
      "midi": 69,
      "hit": false,
      "t": 121579.55749999973,
      "d": 73.96249999999418,
      "v": 72
    },
    {
      "midi": 72,
      "hit": false,
      "t": 121594.34999999973,
      "d": 88.75500000000466,
      "v": 76
    },
    {
      "midi": 75,
      "hit": false,
      "t": 121594.34999999973,
      "d": 88.75500000000466,
      "v": 64
    },
    {
      "midi": 51,
      "hit": false,
      "t": 121949.36999999973,
      "d": 162.71749999999884,
      "v": 50
    },
    {
      "midi": 61,
      "hit": false,
      "t": 123472.99749999974,
      "d": 147.9250000000029,
      "v": 88
    },
    {
      "midi": 39,
      "hit": false,
      "t": 123694.88499999973,
      "d": 118.33999999999651,
      "v": 72
    },
    {
      "midi": 61,
      "hit": false,
      "t": 123813.22499999973,
      "d": 133.13250000000698,
      "v": 88
    },
    {
      "midi": 44,
      "hit": false,
      "t": 124049.90499999974,
      "d": 103.54750000000058,
      "v": 68
    },
    {
      "midi": 60,
      "hit": false,
      "t": 124049.90499999974,
      "d": 133.13250000000698,
      "v": 84
    }
  ]
}