{
  "jsonPath": "Unknown/Unknown/Final Cut/and-i-love-her.json",
  "path": "Unknown\\Unknown\\Final Cut\\And I Love Her.mid",
  "name": "And I Love Her",
  "difficulty": "Advanced",
  "bpm": 96.99995311668933,
  "notes": [
    {
      "midi": 42,
      "hit": false,
      "t": 4948.456,
      "d": 927.8355000000001,
      "v": 76
    },
    {
      "midi": 61,
      "hit": false,
      "t": 4948.456,
      "d": 963.9179916666671,
      "v": 58
    },
    {
      "midi": 69,
      "hit": false,
      "t": 4948.456,
      "d": 1036.0829750000003,
      "v": 80
    },
    {
      "midi": 57,
      "hit": false,
      "t": 4948.456,
      "d": 1046.3922583333333,
      "v": 63
    },
    {
      "midi": 37,
      "hit": false,
      "t": 5876.2915,
      "d": 814.433383333333,
      "v": 85
    },
    {
      "midi": 69,
      "hit": false,
      "t": 6494.8485,
      "d": 479.38167499999963,
      "v": 89
    },
    {
      "midi": 66,
      "hit": false,
      "t": 7422.683999999999,
      "d": 1015.4644083333333,
      "v": 76
    },
    {
      "midi": 69,
      "hit": false,
      "t": 7422.683999999999,
      "d": 1046.3922583333333,
      "v": 78
    },
    {
      "midi": 78,
      "hit": false,
      "t": 7422.683999999999,
      "d": 1046.3922583333333,
      "v": 85
    },
    {
      "midi": 61,
      "hit": false,
      "t": 7577.3232499999995,
      "d": 860.8251583333331,
      "v": 60
    },
    {
      "midi": 81,
      "hit": false,
      "t": 8969.0765,
      "d": 536.0827333333345,
      "v": 100
    },
    {
      "midi": 69,
      "hit": false,
      "t": 8969.0765,
      "d": 659.7941333333347,
      "v": 87
    },
    {
      "midi": 78,
      "hit": false,
      "t": 9432.99425,
      "d": 139.17532500000016,
      "v": 78
    },
    {
      "midi": 56,
      "hit": false,
      "t": 9896.912,
      "d": 242.2681583333342,
      "v": 72
    },
    {
      "midi": 35,
      "hit": false,
      "t": 9896.912,
      "d": 809.278741666667,
      "v": 78
    },
    {
      "midi": 40,
      "hit": false,
      "t": 9896.912,
      "d": 855.670516666667,
      "v": 70
    },
    {
      "midi": 52,
      "hit": false,
      "t": 9896.912,
      "d": 865.979800000001,
      "v": 59
    },
    {
      "midi": 59,
      "hit": false,
      "t": 9994.850191666666,
      "d": 737.1137583333348,
      "v": 74
    },
    {
      "midi": 61,
      "hit": false,
      "t": 9994.850191666666,
      "d": 793.8148166666688,
      "v": 80
    },
    {
      "midi": 59,
      "hit": false,
      "t": 12706.191708333336,
      "d": 1917.5267000000003,
      "v": 100
    },
    {
      "midi": 71,
      "hit": false,
      "t": 12989.697000000002,
      "d": 1618.557483333334,
      "v": 82
    },
    {
      "midi": 64,
      "hit": false,
      "t": 13608.254000000003,
      "d": 943.2994250000011,
      "v": 85
    },
    {
      "midi": 61,
      "hit": false,
      "t": 14226.811000000003,
      "d": 360.82491666666647,
      "v": 82
    },
    {
      "midi": 54,
      "hit": false,
      "t": 14860.831925000002,
      "d": 2458.764074999999,
      "v": 89
    },
    {
      "midi": 57,
      "hit": false,
      "t": 14860.831925000002,
      "d": 2458.764074999999,
      "v": 91
    },
    {
      "midi": 61,
      "hit": false,
      "t": 14860.831925000002,
      "d": 2458.764074999999,
      "v": 84
    },
    {
      "midi": 66,
      "hit": false,
      "t": 14860.831925000002,
      "d": 2458.764074999999,
      "v": 96
    },
    {
      "midi": 64,
      "hit": false,
      "t": 17319.596,
      "d": 1412.3718166666695,
      "v": 95
    },
    {
      "midi": 61,
      "hit": false,
      "t": 17319.596,
      "d": 2402.0630166666706,
      "v": 74
    },
    {
      "midi": 68,
      "hit": false,
      "t": 17324.75064166667,
      "d": 1417.5264583333337,
      "v": 104
    },
    {
      "midi": 76,
      "hit": false,
      "t": 18865.988500000003,
      "d": 536.0827333333327,
      "v": 102
    },
    {
      "midi": 68,
      "hit": false,
      "t": 19175.267000000003,
      "d": 417.52597500000047,
      "v": 91
    },
    {
      "midi": 64,
      "hit": false,
      "t": 19484.545500000004,
      "d": 201.03102500000023,
      "v": 89
    },
    {
      "midi": 66,
      "hit": false,
      "t": 19793.824000000004,
      "d": 1412.3718166666695,
      "v": 95
    },
    {
      "midi": 61,
      "hit": false,
      "t": 19793.824000000004,
      "d": 2402.0630166666706,
      "v": 74
    },
    {
      "midi": 69,
      "hit": false,
      "t": 19798.978641666672,
      "d": 1417.5264583333337,
      "v": 104
    },
    {
      "midi": 78,
      "hit": false,
      "t": 21340.216500000006,
      "d": 536.0827333333327,
      "v": 102
    },
    {
      "midi": 69,
      "hit": false,
      "t": 21649.495000000006,
      "d": 417.52597500000047,
      "v": 91
    },
    {
      "midi": 66,
      "hit": false,
      "t": 21958.773500000007,
      "d": 201.03102500000023,
      "v": 89
    },
    {
      "midi": 52,
      "hit": false,
      "t": 22283.515925000007,
      "d": 2458.764074999999,
      "v": 89
    },
    {
      "midi": 56,
      "hit": false,
      "t": 22283.515925000007,
      "d": 2458.764074999999,
      "v": 91
    },
    {
      "midi": 61,
      "hit": false,
      "t": 22283.515925000007,
      "d": 2458.764074999999,
      "v": 84
    },
    {
      "midi": 64,
      "hit": false,
      "t": 22283.515925000007,
      "d": 2458.764074999999,
      "v": 96
    },
    {
      "midi": 42,
      "hit": false,
      "t": 24742.280000000006,
      "d": 2474.227999999999,
      "v": 84
    },
    {
      "midi": 54,
      "hit": false,
      "t": 24742.280000000006,
      "d": 2474.227999999999,
      "v": 98
    },
    {
      "midi": 61,
      "hit": false,
      "t": 24742.280000000006,
      "d": 2474.227999999999,
      "v": 76
    },
    {
      "midi": 73,
      "hit": false,
      "t": 24742.280000000006,
      "d": 2474.227999999999,
      "v": 104
    },
    {
      "midi": 69,
      "hit": false,
      "t": 24896.919250000006,
      "d": 2319.588749999999,
      "v": 82
    },
    {
      "midi": 66,
      "hit": false,
      "t": 25051.558500000006,
      "d": 2164.949499999999,
      "v": 96
    },
    {
      "midi": 37,
      "hit": false,
      "t": 27216.508000000005,
      "d": 2376.2898083333384,
      "v": 98
    },
    {
      "midi": 44,
      "hit": false,
      "t": 27659.807183333338,
      "d": 1953.6091916666737,
      "v": 98
    },
    {
      "midi": 49,
      "hit": false,
      "t": 28139.18885833334,
      "d": 1458.7635916666732,
      "v": 90
    },
    {
      "midi": 61,
      "hit": false,
      "t": 28159.807425000006,
      "d": 649.4848499999971,
      "v": 80
    },
    {
      "midi": 56,
      "hit": false,
      "t": 28159.807425000006,
      "d": 706.1859083333329,
      "v": 80
    },
    {
      "midi": 64,
      "hit": false,
      "t": 28170.11670833334,
      "d": 659.7941333333329,
      "v": 101
    },
    {
      "midi": 64,
      "hit": false,
      "t": 29103.106850000007,
      "d": 237.11351666666815,
      "v": 98
    },
    {
      "midi": 61,
      "hit": false,
      "t": 29226.818250000008,
      "d": 314.43314166666823,
      "v": 78
    },
    {
      "midi": 40,
      "hit": false,
      "t": 29690.73600000001,
      "d": 2474.227999999999,
      "v": 90
    },
    {
      "midi": 45,
      "hit": false,
      "t": 29690.73600000001,
      "d": 2474.227999999999,
      "v": 83
    },
    {
      "midi": 52,
      "hit": false,
      "t": 29690.73600000001,
      "d": 2474.227999999999,
      "v": 77
    },
    {
      "midi": 61,
      "hit": false,
      "t": 29690.73600000001,
      "d": 2474.227999999999,
      "v": 102
    },
    {
      "midi": 64,
      "hit": false,
      "t": 29721.66385000001,
      "d": 2443.300149999999,
      "v": 102
    },
    {
      "midi": 57,
      "hit": false,
      "t": 32195.89185000001,
      "d": 2175.2587833333346,
      "v": 77
    },
    {
      "midi": 63,
      "hit": false,
      "t": 32206.201133333343,
      "d": 1273.1964916666693,
      "v": 96
    },
    {
      "midi": 47,
      "hit": false,
      "t": 32206.201133333343,
      "d": 2159.7948583333346,
      "v": 80
    },
    {
      "midi": 71,
      "hit": false,
      "t": 32216.510416666675,
      "d": 1670.1039000000055,
      "v": 90
    },
    {
      "midi": 51,
      "hit": false,
      "t": 32216.510416666675,
      "d": 2149.4855750000024,
      "v": 92
    },
    {
      "midi": 69,
      "hit": false,
      "t": 32793.830283333344,
      "d": 989.6912000000011,
      "v": 99
    },
    {
      "midi": 66,
      "hit": false,
      "t": 33412.387283333344,
      "d": 479.3816750000042,
      "v": 101
    },
    {
      "midi": 59,
      "hit": false,
      "t": 34030.944283333345,
      "d": 567.0105833333364,
      "v": 88
    },
    {
      "midi": 56,
      "hit": false,
      "t": 34639.19200000002,
      "d": 242.26815833333967,
      "v": 84
    },
    {
      "midi": 35,
      "hit": false,
      "t": 34639.19200000002,
      "d": 809.2787416666761,
      "v": 90
    },
    {
      "midi": 40,
      "hit": false,
      "t": 34639.19200000002,
      "d": 855.6705166666725,
      "v": 82
    },
    {
      "midi": 52,
      "hit": false,
      "t": 34639.19200000002,
      "d": 865.9798000000083,
      "v": 71
    },
    {
      "midi": 59,
      "hit": false,
      "t": 34737.130191666685,
      "d": 737.1137583333402,
      "v": 86
    },
    {
      "midi": 61,
      "hit": false,
      "t": 34737.130191666685,
      "d": 793.8148166666724,
      "v": 92
    },
    {
      "midi": 59,
      "hit": false,
      "t": 37448.47170833336,
      "d": 1917.526699999995,
      "v": 112
    },
    {
      "midi": 71,
      "hit": false,
      "t": 37731.97700000003,
      "d": 1618.5574833333303,
      "v": 94
    },
    {
      "midi": 64,
      "hit": false,
      "t": 38350.53400000003,
      "d": 943.2994249999974,
      "v": 97
    },
    {
      "midi": 61,
      "hit": false,
      "t": 38969.09100000003,
      "d": 360.82491666666465,
      "v": 94
    },
    {
      "midi": 57,
      "hit": false,
      "t": 39587.64800000002,
      "d": 1036.0829749999975,
      "v": 89
    },
    {
      "midi": 66,
      "hit": false,
      "t": 39587.64800000002,
      "d": 1077.3201083333333,
      "v": 74
    },
    {
      "midi": 42,
      "hit": false,
      "t": 39587.64800000002,
      "d": 1103.0933166666655,
      "v": 78
    },
    {
      "midi": 61,
      "hit": false,
      "t": 39623.73049166669,
      "d": 1067.0108249999976,
      "v": 85
    },
    {
      "midi": 69,
      "hit": false,
      "t": 39623.73049166669,
      "d": 1087.6293916666618,
      "v": 104
    },
    {
      "midi": 69,
      "hit": false,
      "t": 41134.04050000002,
      "d": 407.21669166666834,
      "v": 104
    },
    {
      "midi": 66,
      "hit": false,
      "t": 41443.31900000002,
      "d": 350.51563333333615,
      "v": 102
    },
    {
      "midi": 61,
      "hit": false,
      "t": 41752.59750000002,
      "d": 170.10317500000383,
      "v": 78
    },
    {
      "midi": 64,
      "hit": false,
      "t": 42061.87600000002,
      "d": 1412.3718166666658,
      "v": 95
    },
    {
      "midi": 61,
      "hit": false,
      "t": 42061.87600000002,
      "d": 2402.063016666667,
      "v": 74
    },
    {
      "midi": 68,
      "hit": false,
      "t": 42067.030641666686,
      "d": 1417.5264583333337,
      "v": 104
    },
    {
      "midi": 76,
      "hit": false,
      "t": 43608.26850000002,
      "d": 536.0827333333364,
      "v": 102
    },
    {
      "midi": 68,
      "hit": false,
      "t": 43917.54700000002,
      "d": 417.52597499999683,
      "v": 91
    },
    {
      "midi": 64,
      "hit": false,
      "t": 44226.82550000002,
      "d": 201.0310249999966,
      "v": 89
    },
    {
      "midi": 66,
      "hit": false,
      "t": 44536.10400000002,
      "d": 1412.3718166666658,
      "v": 95
    },
    {
      "midi": 61,
      "hit": false,
      "t": 44536.10400000002,
      "d": 2402.063016666667,
      "v": 74
    },
    {
      "midi": 69,
      "hit": false,
      "t": 44541.25864166669,
      "d": 1417.5264583333337,
      "v": 104
    },
    {
      "midi": 78,
      "hit": false,
      "t": 46082.49650000002,
      "d": 536.0827333333364,
      "v": 102
    },
    {
      "midi": 69,
      "hit": false,
      "t": 46391.77500000002,
      "d": 417.52597499999683,
      "v": 91
    },
    {
      "midi": 66,
      "hit": false,
      "t": 46701.05350000002,
      "d": 201.0310249999966,
      "v": 89
    },
    {
      "midi": 37,
      "hit": false,
      "t": 47010.332000000024,
      "d": 2474.228000000003,
      "v": 83
    },
    {
      "midi": 44,
      "hit": false,
      "t": 47010.332000000024,
      "d": 2474.228000000003,
      "v": 90
    },
    {
      "midi": 56,
      "hit": false,
      "t": 47010.332000000024,
      "d": 2474.228000000003,
      "v": 77
    },
    {
      "midi": 64,
      "hit": false,
      "t": 47010.332000000024,
      "d": 2474.228000000003,
      "v": 102
    },
    {
      "midi": 68,
      "hit": false,
      "t": 47041.259850000024,
      "d": 2443.3001500000028,
      "v": 102
    },
    {
      "midi": 42,
      "hit": false,
      "t": 49484.56000000003,
      "d": 2376.2898083333275,
      "v": 98
    },
    {
      "midi": 37,
      "hit": false,
      "t": 49927.85918333336,
      "d": 1953.6091916666555,
      "v": 98
    },
    {
      "midi": 61,
      "hit": false,
      "t": 50427.85942500003,
      "d": 649.4848500000007,
      "v": 80
    },
    {
      "midi": 57,
      "hit": false,
      "t": 50427.85942500003,
      "d": 706.1859083333329,
      "v": 80
    },
    {
      "midi": 66,
      "hit": false,
      "t": 50438.16870833337,
      "d": 659.7941333333292,
      "v": 101
    },
    {
      "midi": 66,
      "hit": false,
      "t": 51371.15885000003,
      "d": 237.1135166666645,
      "v": 98
    },
    {
      "midi": 61,
      "hit": false,
      "t": 51494.87025000003,
      "d": 314.43314166666096,
      "v": 78
    },
    {
      "midi": 37,
      "hit": false,
      "t": 51958.788000000015,
      "d": 2376.2898083333203,
      "v": 98
    },
    {
      "midi": 44,
      "hit": false,
      "t": 52402.08718333335,
      "d": 1953.6091916666483,
      "v": 98
    },
    {
      "midi": 49,
      "hit": false,
      "t": 52881.46885833335,
      "d": 1458.763591666655,
      "v": 90
    },
    {
      "midi": 61,
      "hit": false,
      "t": 52902.08742500001,
      "d": 649.4848500000007,
      "v": 80
    },
    {
      "midi": 56,
      "hit": false,
      "t": 52902.08742500001,
      "d": 706.1859083333329,
      "v": 80
    },
    {
      "midi": 64,
      "hit": false,
      "t": 52912.39670833335,
      "d": 659.7941333333292,
      "v": 101
    },
    {
      "midi": 64,
      "hit": false,
      "t": 53845.38685000001,
      "d": 237.1135166666645,
      "v": 98
    },
    {
      "midi": 61,
      "hit": false,
      "t": 53969.09825000001,
      "d": 314.43314166666096,
      "v": 78
    },
    {
      "midi": 40,
      "hit": false,
      "t": 54433.015999999996,
      "d": 2474.228000000003,
      "v": 90
    },
    {
      "midi": 45,
      "hit": false,
      "t": 54433.015999999996,
      "d": 2474.228000000003,
      "v": 83
    },
    {
      "midi": 52,
      "hit": false,
      "t": 54433.015999999996,
      "d": 2474.228000000003,
      "v": 77
    },
    {
      "midi": 61,
      "hit": false,
      "t": 54433.015999999996,
      "d": 2474.228000000003,
      "v": 102
    },
    {
      "midi": 64,
      "hit": false,
      "t": 54463.943849999996,
      "d": 2443.3001500000028,
      "v": 102
    },
    {
      "midi": 54,
      "hit": false,
      "t": 56907.244,
      "d": 1036.0829749999975,
      "v": 89
    },
    {
      "midi": 63,
      "hit": false,
      "t": 56907.244,
      "d": 1077.3201083333333,
      "v": 74
    },
    {
      "midi": 47,
      "hit": false,
      "t": 56907.244,
      "d": 1103.0933166666655,
      "v": 78
    },
    {
      "midi": 57,
      "hit": false,
      "t": 56943.32649166667,
      "d": 1067.0108249999976,
      "v": 85
    },
    {
      "midi": 66,
      "hit": false,
      "t": 56943.32649166667,
      "d": 1087.6293916666618,
      "v": 104
    },
    {
      "midi": 66,
      "hit": false,
      "t": 58453.63649999999,
      "d": 407.21669166666834,
      "v": 104
    },
    {
      "midi": 63,
      "hit": false,
      "t": 58762.91499999999,
      "d": 350.51563333333615,
      "v": 102
    },
    {
      "midi": 57,
      "hit": false,
      "t": 59072.193499999994,
      "d": 170.10317500000383,
      "v": 78
    },
    {
      "midi": 59,
      "hit": false,
      "t": 59072.193499999994,
      "d": 268.0413666666718,
      "v": 104
    },
    {
      "midi": 40,
      "hit": false,
      "t": 59381.472,
      "d": 927.835500000001,
      "v": 89
    },
    {
      "midi": 56,
      "hit": false,
      "t": 59381.472,
      "d": 963.917991666669,
      "v": 71
    },
    {
      "midi": 61,
      "hit": false,
      "t": 59381.472,
      "d": 1036.0829750000048,
      "v": 93
    },
    {
      "midi": 52,
      "hit": false,
      "t": 59381.472,
      "d": 1046.3922583333406,
      "v": 76
    },
    {
      "midi": 35,
      "hit": false,
      "t": 60309.3075,
      "d": 814.433383333344,
      "v": 98
    },
    {
      "midi": 64,
      "hit": false,
      "t": 60927.86450000001,
      "d": 479.3816749999969,
      "v": 102
    },
    {
      "midi": 61,
      "hit": false,
      "t": 61391.78225000001,
      "d": 195.8763833333287,
      "v": 79
    },
    {
      "midi": 59,
      "hit": false,
      "t": 61855.700000000004,
      "d": 1015.4644083333333,
      "v": 89
    },
    {
      "midi": 64,
      "hit": false,
      "t": 61855.700000000004,
      "d": 1046.3922583333333,
      "v": 91
    },
    {
      "midi": 71,
      "hit": false,
      "t": 61855.700000000004,
      "d": 1046.3922583333333,
      "v": 98
    },
    {
      "midi": 56,
      "hit": false,
      "t": 62010.339250000005,
      "d": 860.8251583333331,
      "v": 73
    },
    {
      "midi": 73,
      "hit": false,
      "t": 63402.092500000006,
      "d": 536.0827333333364,
      "v": 113
    },
    {
      "midi": 61,
      "hit": false,
      "t": 63402.092500000006,
      "d": 659.7941333333365,
      "v": 100
    },
    {
      "midi": 71,
      "hit": false,
      "t": 63866.01025000001,
      "d": 139.1753250000038,
      "v": 91
    },
    {
      "midi": 37,
      "hit": false,
      "t": 64329.92800000001,
      "d": 2474.2279999999955,
      "v": 63
    },
    {
      "midi": 44,
      "hit": false,
      "t": 64329.92800000001,
      "d": 2474.2279999999955,
      "v": 70
    },
    {
      "midi": 56,
      "hit": false,
      "t": 64329.92800000001,
      "d": 2474.2279999999955,
      "v": 57
    },
    {
      "midi": 64,
      "hit": false,
      "t": 64329.92800000001,
      "d": 2474.2279999999955,
      "v": 82
    },
    {
      "midi": 68,
      "hit": false,
      "t": 64360.85585000001,
      "d": 2443.3001499999955,
      "v": 82
    },
    {
      "midi": 61,
      "hit": false,
      "t": 66804.156,
      "d": 567.0105833333364,
      "v": 72
    },
    {
      "midi": 59,
      "hit": false,
      "t": 66804.156,
      "d": 592.7837916666758,
      "v": 76
    },
    {
      "midi": 63,
      "hit": false,
      "t": 66804.156,
      "d": 592.7837916666758,
      "v": 85
    },
    {
      "midi": 66,
      "hit": false,
      "t": 66804.156,
      "d": 613.4023583333474,
      "v": 85
    },
    {
      "midi": 47,
      "hit": false,
      "t": 66804.156,
      "d": 2453.6094333333313,
      "v": 82
    },
    {
      "midi": 71,
      "hit": false,
      "t": 68654.67235833335,
      "d": 216.49494999999297,
      "v": 93
    },
    {
      "midi": 73,
      "hit": false,
      "t": 68814.46625000001,
      "d": 226.80423333332874,
      "v": 82
    },
    {
      "midi": 75,
      "hit": false,
      "t": 68969.1055,
      "d": 195.87638333333598,
      "v": 85
    },
    {
      "midi": 37,
      "hit": false,
      "t": 69278.384,
      "d": 2474.2279999999882,
      "v": 63
    },
    {
      "midi": 44,
      "hit": false,
      "t": 69278.384,
      "d": 2474.2279999999882,
      "v": 70
    },
    {
      "midi": 56,
      "hit": false,
      "t": 69278.384,
      "d": 2474.2279999999882,
      "v": 57
    },
    {
      "midi": 64,
      "hit": false,
      "t": 69278.384,
      "d": 2474.2279999999882,
      "v": 82
    },
    {
      "midi": 68,
      "hit": false,
      "t": 69309.31185,
      "d": 2443.3001499999955,
      "v": 82
    },
    {
      "midi": 63,
      "hit": false,
      "t": 71762.92128333333,
      "d": 917.5262166666653,
      "v": 62
    },
    {
      "midi": 59,
      "hit": false,
      "t": 71762.92128333333,
      "d": 989.6911999999866,
      "v": 61
    },
    {
      "midi": 39,
      "hit": false,
      "t": 71773.23056666667,
      "d": 567.0105833333364,
      "v": 70
    },
    {
      "midi": 68,
      "hit": false,
      "t": 71773.23056666667,
      "d": 943.2994249999902,
      "v": 82
    },
    {
      "midi": 44,
      "hit": false,
      "t": 71783.53985,
      "d": 500.00024166666844,
      "v": 53
    },
    {
      "midi": 68,
      "hit": false,
      "t": 73299.00449999998,
      "d": 489.6909583333327,
      "v": 102
    },
    {
      "midi": 61,
      "hit": false,
      "t": 74237.14928333332,
      "d": 917.5262166666653,
      "v": 62
    },
    {
      "midi": 56,
      "hit": false,
      "t": 74237.14928333332,
      "d": 989.6911999999866,
      "v": 61
    },
    {
      "midi": 44,
      "hit": false,
      "t": 74247.45856666665,
      "d": 567.0105833333364,
      "v": 70
    },
    {
      "midi": 64,
      "hit": false,
      "t": 74247.45856666665,
      "d": 943.2994249999902,
      "v": 82
    },
    {
      "midi": 37,
      "hit": false,
      "t": 74257.76784999999,
      "d": 500.00024166666844,
      "v": 53
    },
    {
      "midi": 64,
      "hit": false,
      "t": 75773.23249999997,
      "d": 489.6909583333327,
      "v": 102
    },
    {
      "midi": 39,
      "hit": false,
      "t": 76701.06799999997,
      "d": 2474.2279999999882,
      "v": 70
    },
    {
      "midi": 44,
      "hit": false,
      "t": 76701.06799999997,
      "d": 2474.2279999999882,
      "v": 63
    },
    {
      "midi": 59,
      "hit": false,
      "t": 76701.06799999997,
      "d": 2474.2279999999882,
      "v": 57
    },
    {
      "midi": 68,
      "hit": false,
      "t": 76701.06799999997,
      "d": 2474.2279999999882,
      "v": 82
    },
    {
      "midi": 71,
      "hit": false,
      "t": 76731.99584999996,
      "d": 2443.3001499999955,
      "v": 82
    },
    {
      "midi": 59,
      "hit": false,
      "t": 79175.29599999996,
      "d": 242.2681583333324,
      "v": 72
    },
    {
      "midi": 42,
      "hit": false,
      "t": 79175.29599999996,
      "d": 809.2787416666688,
      "v": 78
    },
    {
      "midi": 47,
      "hit": false,
      "t": 79175.29599999996,
      "d": 855.6705166666798,
      "v": 70
    },
    {
      "midi": 54,
      "hit": false,
      "t": 79175.29599999996,
      "d": 865.9798000000155,
      "v": 59
    },
    {
      "midi": 63,
      "hit": false,
      "t": 79273.23419166662,
      "d": 737.1137583333475,
      "v": 74
    },
    {
      "midi": 63,
      "hit": false,
      "t": 81984.5757083333,
      "d": 1881.444208333327,
      "v": 100
    },
    {
      "midi": 75,
      "hit": false,
      "t": 82268.08099999996,
      "d": 1618.5574833333376,
      "v": 82
    },
    {
      "midi": 66,
      "hit": false,
      "t": 82886.63799999996,
      "d": 943.2994250000047,
      "v": 85
    },
    {
      "midi": 61,
      "hit": false,
      "t": 84134.0612833333,
      "d": 917.5262166666653,
      "v": 79
    },
    {
      "midi": 57,
      "hit": false,
      "t": 84134.0612833333,
      "d": 989.6911999999866,
      "v": 78
    },
    {
      "midi": 37,
      "hit": false,
      "t": 84144.37056666664,
      "d": 567.0105833333364,
      "v": 87
    },
    {
      "midi": 66,
      "hit": false,
      "t": 84144.37056666664,
      "d": 943.2994249999902,
      "v": 99
    },
    {
      "midi": 42,
      "hit": false,
      "t": 84154.67984999997,
      "d": 500.00024166666844,
      "v": 70
    },
    {
      "midi": 66,
      "hit": false,
      "t": 85670.14449999995,
      "d": 489.6909583333327,
      "v": 119
    },
    {
      "midi": 52,
      "hit": false,
      "t": 86613.44392499996,
      "d": 2458.764074999999,
      "v": 89
    },
    {
      "midi": 56,
      "hit": false,
      "t": 86613.44392499996,
      "d": 2458.764074999999,
      "v": 91
    },
    {
      "midi": 61,
      "hit": false,
      "t": 86613.44392499996,
      "d": 2458.764074999999,
      "v": 84
    },
    {
      "midi": 64,
      "hit": false,
      "t": 86613.44392499996,
      "d": 2458.764074999999,
      "v": 96
    },
    {
      "midi": 42,
      "hit": false,
      "t": 89072.20799999996,
      "d": 2376.289808333342,
      "v": 98
    },
    {
      "midi": 37,
      "hit": false,
      "t": 89515.50718333329,
      "d": 1953.6091916666774,
      "v": 98
    },
    {
      "midi": 61,
      "hit": false,
      "t": 90015.50742499996,
      "d": 649.484850000008,
      "v": 80
    },
    {
      "midi": 57,
      "hit": false,
      "t": 90015.50742499996,
      "d": 706.1859083333402,
      "v": 80
    },
    {
      "midi": 66,
      "hit": false,
      "t": 90025.8167083333,
      "d": 659.7941333333438,
      "v": 101
    },
    {
      "midi": 66,
      "hit": false,
      "t": 90958.80684999996,
      "d": 237.1135166666645,
      "v": 98
    },
    {
      "midi": 61,
      "hit": false,
      "t": 91082.51824999996,
      "d": 314.43314166666823,
      "v": 78
    },
    {
      "midi": 49,
      "hit": false,
      "t": 91546.43599999997,
      "d": 2474.2279999999882,
      "v": 84
    },
    {
      "midi": 52,
      "hit": false,
      "t": 91546.43599999997,
      "d": 2474.2279999999882,
      "v": 98
    },
    {
      "midi": 61,
      "hit": false,
      "t": 91546.43599999997,
      "d": 2474.2279999999882,
      "v": 76
    },
    {
      "midi": 73,
      "hit": false,
      "t": 91546.43599999997,
      "d": 2474.2279999999882,
      "v": 104
    },
    {
      "midi": 68,
      "hit": false,
      "t": 91701.07524999997,
      "d": 2319.5887499999953,
      "v": 82
    },
    {
      "midi": 64,
      "hit": false,
      "t": 91855.71449999996,
      "d": 2164.9495000000024,
      "v": 96
    },
    {
      "midi": 57,
      "hit": false,
      "t": 94020.66399999996,
      "d": 1036.0829749999975,
      "v": 89
    },
    {
      "midi": 66,
      "hit": false,
      "t": 94020.66399999996,
      "d": 1077.320108333326,
      "v": 74
    },
    {
      "midi": 42,
      "hit": false,
      "t": 94020.66399999996,
      "d": 1103.0933166666655,
      "v": 78
    },
    {
      "midi": 61,
      "hit": false,
      "t": 94056.74649166662,
      "d": 1067.0108250000048,
      "v": 85
    },
    {
      "midi": 69,
      "hit": false,
      "t": 94056.74649166662,
      "d": 1087.6293916666764,
      "v": 104
    },
    {
      "midi": 69,
      "hit": false,
      "t": 95567.05649999996,
      "d": 407.21669166666106,
      "v": 104
    },
    {
      "midi": 66,
      "hit": false,
      "t": 95876.33499999996,
      "d": 350.5156333333289,
      "v": 102
    },
    {
      "midi": 61,
      "hit": false,
      "t": 96185.61349999996,
      "d": 170.10317499999655,
      "v": 78
    },
    {
      "midi": 37,
      "hit": false,
      "t": 96494.89199999996,
      "d": 2474.2279999999882,
      "v": 83
    },
    {
      "midi": 44,
      "hit": false,
      "t": 96494.89199999996,
      "d": 2474.2279999999882,
      "v": 90
    },
    {
      "midi": 56,
      "hit": false,
      "t": 96494.89199999996,
      "d": 2474.2279999999882,
      "v": 77
    },
    {
      "midi": 64,
      "hit": false,
      "t": 96494.89199999996,
      "d": 2474.2279999999882,
      "v": 102
    },
    {
      "midi": 68,
      "hit": false,
      "t": 96525.81984999996,
      "d": 2443.3001499999955,
      "v": 102
    },
    {
      "midi": 40,
      "hit": false,
      "t": 98969.11999999995,
      "d": 2474.2279999999882,
      "v": 90
    },
    {
      "midi": 45,
      "hit": false,
      "t": 98969.11999999995,
      "d": 2474.2279999999882,
      "v": 83
    },
    {
      "midi": 52,
      "hit": false,
      "t": 98969.11999999995,
      "d": 2474.2279999999882,
      "v": 77
    },
    {
      "midi": 61,
      "hit": false,
      "t": 98969.11999999995,
      "d": 2474.2279999999882,
      "v": 102
    },
    {
      "midi": 64,
      "hit": false,
      "t": 99000.04784999994,
      "d": 2443.3001499999955,
      "v": 102
    },
    {
      "midi": 35,
      "hit": false,
      "t": 101443.34799999994,
      "d": 2376.289808333342,
      "v": 98
    },
    {
      "midi": 42,
      "hit": false,
      "t": 101886.64718333328,
      "d": 1953.6091916666774,
      "v": 98
    },
    {
      "midi": 47,
      "hit": false,
      "t": 102366.02885833327,
      "d": 1458.7635916666768,
      "v": 90
    },
    {
      "midi": 57,
      "hit": false,
      "t": 102386.64742499994,
      "d": 649.484850000008,
      "v": 80
    },
    {
      "midi": 54,
      "hit": false,
      "t": 102386.64742499994,
      "d": 706.1859083333402,
      "v": 80
    },
    {
      "midi": 63,
      "hit": false,
      "t": 102396.95670833328,
      "d": 659.7941333333438,
      "v": 101
    },
    {
      "midi": 63,
      "hit": false,
      "t": 103329.94684999995,
      "d": 237.1135166666645,
      "v": 98
    },
    {
      "midi": 57,
      "hit": false,
      "t": 103453.65824999995,
      "d": 314.43314166666823,
      "v": 78
    },
    {
      "midi": 40,
      "hit": false,
      "t": 103917.57599999996,
      "d": 927.835500000001,
      "v": 89
    },
    {
      "midi": 56,
      "hit": false,
      "t": 103917.57599999996,
      "d": 963.9179916666617,
      "v": 71
    },
    {
      "midi": 61,
      "hit": false,
      "t": 103917.57599999996,
      "d": 1036.0829749999975,
      "v": 93
    },
    {
      "midi": 52,
      "hit": false,
      "t": 103917.57599999996,
      "d": 1046.3922583333333,
      "v": 76
    },
    {
      "midi": 35,
      "hit": false,
      "t": 104845.41149999996,
      "d": 814.4333833333367,
      "v": 98
    },
    {
      "midi": 64,
      "hit": false,
      "t": 105463.96849999996,
      "d": 479.38167500001146,
      "v": 102
    },
    {
      "midi": 61,
      "hit": false,
      "t": 105927.88624999997,
      "d": 195.87638333333598,
      "v": 79
    },
    {
      "midi": 59,
      "hit": false,
      "t": 106391.80399999997,
      "d": 1015.464408333326,
      "v": 89
    },
    {
      "midi": 64,
      "hit": false,
      "t": 106391.80399999997,
      "d": 1046.3922583333188,
      "v": 91
    },
    {
      "midi": 71,
      "hit": false,
      "t": 106391.80399999997,
      "d": 1046.3922583333188,
      "v": 98
    },
    {
      "midi": 56,
      "hit": false,
      "t": 106546.44324999997,
      "d": 860.8251583333331,
      "v": 73
    },
    {
      "midi": 73,
      "hit": false,
      "t": 107938.19649999996,
      "d": 536.0827333333291,
      "v": 113
    },
    {
      "midi": 61,
      "hit": false,
      "t": 107938.19649999996,
      "d": 659.7941333333292,
      "v": 100
    },
    {
      "midi": 71,
      "hit": false,
      "t": 108402.11424999996,
      "d": 139.1753250000038,
      "v": 91
    },
    {
      "midi": 43,
      "hit": false,
      "t": 108866.03199999996,
      "d": 2474.2279999999882,
      "v": 84
    },
    {
      "midi": 55,
      "hit": false,
      "t": 108866.03199999996,
      "d": 2474.2279999999882,
      "v": 98
    },
    {
      "midi": 62,
      "hit": false,
      "t": 108866.03199999996,
      "d": 2474.2279999999882,
      "v": 76
    },
    {
      "midi": 74,
      "hit": false,
      "t": 108866.03199999996,
      "d": 2474.2279999999882,
      "v": 104
    },
    {
      "midi": 70,
      "hit": false,
      "t": 109020.67124999996,
      "d": 2319.5887499999953,
      "v": 82
    },
    {
      "midi": 67,
      "hit": false,
      "t": 109175.31049999995,
      "d": 2164.9495000000024,
      "v": 96
    },
    {
      "midi": 38,
      "hit": false,
      "t": 111340.25999999995,
      "d": 2474.2279999999882,
      "v": 83
    },
    {
      "midi": 45,
      "hit": false,
      "t": 111340.25999999995,
      "d": 2474.2279999999882,
      "v": 90
    },
    {
      "midi": 57,
      "hit": false,
      "t": 111340.25999999995,
      "d": 2474.2279999999882,
      "v": 77
    },
    {
      "midi": 65,
      "hit": false,
      "t": 111340.25999999995,
      "d": 2474.2279999999882,
      "v": 102
    },
    {
      "midi": 69,
      "hit": false,
      "t": 111371.18784999994,
      "d": 2443.3001499999955,
      "v": 102
    },
    {
      "midi": 43,
      "hit": false,
      "t": 113814.48799999994,
      "d": 2474.2279999999882,
      "v": 84
    },
    {
      "midi": 55,
      "hit": false,
      "t": 113814.48799999994,
      "d": 2474.2279999999882,
      "v": 98
    },
    {
      "midi": 62,
      "hit": false,
      "t": 113814.48799999994,
      "d": 2474.2279999999882,
      "v": 76
    },
    {
      "midi": 74,
      "hit": false,
      "t": 113814.48799999994,
      "d": 2474.2279999999882,
      "v": 104
    },
    {
      "midi": 70,
      "hit": false,
      "t": 113969.12724999993,
      "d": 2319.5887499999953,
      "v": 82
    },
    {
      "midi": 67,
      "hit": false,
      "t": 114123.76649999993,
      "d": 2164.9495000000024,
      "v": 96
    },
    {
      "midi": 38,
      "hit": false,
      "t": 116288.71599999993,
      "d": 2376.289808333342,
      "v": 98
    },
    {
      "midi": 45,
      "hit": false,
      "t": 116732.01518333326,
      "d": 1953.6091916666774,
      "v": 98
    },
    {
      "midi": 50,
      "hit": false,
      "t": 117211.39685833326,
      "d": 1458.7635916666768,
      "v": 90
    },
    {
      "midi": 62,
      "hit": false,
      "t": 117232.01542499993,
      "d": 649.484850000008,
      "v": 80
    },
    {
      "midi": 57,
      "hit": false,
      "t": 117232.01542499993,
      "d": 706.1859083333402,
      "v": 80
    },
    {
      "midi": 65,
      "hit": false,
      "t": 117242.32470833327,
      "d": 659.7941333333438,
      "v": 101
    },
    {
      "midi": 65,
      "hit": false,
      "t": 118175.31484999994,
      "d": 237.1135166666645,
      "v": 98
    },
    {
      "midi": 62,
      "hit": false,
      "t": 118299.02624999994,
      "d": 314.43314166666823,
      "v": 78
    },
    {
      "midi": 38,
      "hit": false,
      "t": 118762.94399999994,
      "d": 2474.2279999999882,
      "v": 90
    },
    {
      "midi": 43,
      "hit": false,
      "t": 118762.94399999994,
      "d": 2474.2279999999882,
      "v": 83
    },
    {
      "midi": 58,
      "hit": false,
      "t": 118762.94399999994,
      "d": 2474.2279999999882,
      "v": 77
    },
    {
      "midi": 67,
      "hit": false,
      "t": 118762.94399999994,
      "d": 2474.2279999999882,
      "v": 102
    },
    {
      "midi": 70,
      "hit": false,
      "t": 118793.87184999994,
      "d": 2443.3001499999955,
      "v": 102
    },
    {
      "midi": 50,
      "hit": false,
      "t": 121237.17199999993,
      "d": 2474.2279999999882,
      "v": 84
    },
    {
      "midi": 53,
      "hit": false,
      "t": 121237.17199999993,
      "d": 2474.2279999999882,
      "v": 98
    },
    {
      "midi": 62,
      "hit": false,
      "t": 121237.17199999993,
      "d": 2474.2279999999882,
      "v": 76
    },
    {
      "midi": 74,
      "hit": false,
      "t": 121237.17199999993,
      "d": 2474.2279999999882,
      "v": 104
    },
    {
      "midi": 69,
      "hit": false,
      "t": 121391.81124999993,
      "d": 2319.5887499999953,
      "v": 82
    },
    {
      "midi": 65,
      "hit": false,
      "t": 121546.45049999992,
      "d": 2164.9495000000024,
      "v": 96
    },
    {
      "midi": 34,
      "hit": false,
      "t": 123711.39999999992,
      "d": 2474.2279999999882,
      "v": 83
    },
    {
      "midi": 41,
      "hit": false,
      "t": 123711.39999999992,
      "d": 2474.2279999999882,
      "v": 90
    },
    {
      "midi": 53,
      "hit": false,
      "t": 123711.39999999992,
      "d": 2474.2279999999882,
      "v": 77
    },
    {
      "midi": 62,
      "hit": false,
      "t": 123711.39999999992,
      "d": 2474.2279999999882,
      "v": 102
    },
    {
      "midi": 65,
      "hit": false,
      "t": 123742.32784999991,
      "d": 2443.3001499999955,
      "v": 102
    },
    {
      "midi": 60,
      "hit": false,
      "t": 126195.93728333325,
      "d": 917.5262166666653,
      "v": 79
    },
    {
      "midi": 55,
      "hit": false,
      "t": 126195.93728333325,
      "d": 989.6911999999866,
      "v": 78
    },
    {
      "midi": 43,
      "hit": false,
      "t": 126206.24656666658,
      "d": 567.0105833333364,
      "v": 87
    },
    {
      "midi": 64,
      "hit": false,
      "t": 126206.24656666658,
      "d": 943.2994249999902,
      "v": 99
    },
    {
      "midi": 36,
      "hit": false,
      "t": 126216.55584999992,
      "d": 500.00024166666844,
      "v": 70
    },
    {
      "midi": 64,
      "hit": false,
      "t": 127732.0204999999,
      "d": 489.6909583333327,
      "v": 119
    },
    {
      "midi": 41,
      "hit": false,
      "t": 128659.8559999999,
      "d": 376.28884166668286,
      "v": 78
    },
    {
      "midi": 36,
      "hit": false,
      "t": 128659.8559999999,
      "d": 407.21669166669017,
      "v": 89
    },
    {
      "midi": 53,
      "hit": false,
      "t": 128665.01064166657,
      "d": 365.9795583333471,
      "v": 75
    },
    {
      "midi": 57,
      "hit": false,
      "t": 128670.16528333323,
      "d": 355.6702750000113,
      "v": 85
    },
    {
      "midi": 60,
      "hit": false,
      "t": 128680.47456666657,
      "d": 376.28884166668286,
      "v": 91
    },
    {
      "midi": 62,
      "hit": false,
      "t": 128685.62920833324,
      "d": 396.9074083333544,
      "v": 82
    },
    {
      "midi": 62,
      "hit": false,
      "t": 131134.08399999992,
      "d": 1087.6293916666473,
      "v": 91
    },
    {
      "midi": 65,
      "hit": false,
      "t": 131134.08399999992,
      "d": 1123.711883333308,
      "v": 95
    },
    {
      "midi": 50,
      "hit": false,
      "t": 131134.08399999992,
      "d": 2443.3001499999373,
      "v": 97
    },
    {
      "midi": 57,
      "hit": false,
      "t": 131134.08399999992,
      "d": 2443.3001499999373,
      "v": 68
    },
    {
      "midi": 72,
      "hit": false,
      "t": 132371.1979999999,
      "d": 432.98989999998594,
      "v": 110
    },
    {
      "midi": 65,
      "hit": false,
      "t": 132680.47649999987,
      "d": 376.28884166665375,
      "v": 95
    },
    {
      "midi": 62,
      "hit": false,
      "t": 132989.75499999986,
      "d": 304.12385833333246,
      "v": 112
    },
    {
      "midi": 60,
      "hit": false,
      "t": 133299.03349999984,
      "d": 278.3506500000076,
      "v": 99
    },
    {
      "midi": 43,
      "hit": false,
      "t": 133608.31199999986,
      "d": 2376.2898083333275,
      "v": 98
    },
    {
      "midi": 38,
      "hit": false,
      "t": 134051.61118333318,
      "d": 1953.6091916666774,
      "v": 98
    },
    {
      "midi": 62,
      "hit": false,
      "t": 134551.61142499984,
      "d": 649.484850000008,
      "v": 80
    },
    {
      "midi": 58,
      "hit": false,
      "t": 134551.61142499984,
      "d": 706.1859083333402,
      "v": 80
    },
    {
      "midi": 67,
      "hit": false,
      "t": 134561.92070833317,
      "d": 659.7941333333438,
      "v": 101
    },
    {
      "midi": 67,
      "hit": false,
      "t": 135494.91084999984,
      "d": 237.1135166666645,
      "v": 98
    },
    {
      "midi": 62,
      "hit": false,
      "t": 135618.62224999984,
      "d": 314.43314166666823,
      "v": 78
    },
    {
      "midi": 53,
      "hit": false,
      "t": 136098.00392499985,
      "d": 2458.7640750000137,
      "v": 89
    },
    {
      "midi": 57,
      "hit": false,
      "t": 136098.00392499985,
      "d": 2458.7640750000137,
      "v": 91
    },
    {
      "midi": 62,
      "hit": false,
      "t": 136098.00392499985,
      "d": 2458.7640750000137,
      "v": 84
    },
    {
      "midi": 65,
      "hit": false,
      "t": 136098.00392499985,
      "d": 2458.7640750000137,
      "v": 96
    },
    {
      "midi": 55,
      "hit": false,
      "t": 138572.23192499985,
      "d": 2458.7640750000137,
      "v": 89
    },
    {
      "midi": 58,
      "hit": false,
      "t": 138572.23192499985,
      "d": 2458.7640750000137,
      "v": 91
    },
    {
      "midi": 62,
      "hit": false,
      "t": 138572.23192499985,
      "d": 2458.7640750000137,
      "v": 84
    },
    {
      "midi": 67,
      "hit": false,
      "t": 138572.23192499985,
      "d": 2458.7640750000137,
      "v": 96
    },
    {
      "midi": 57,
      "hit": false,
      "t": 141030.99599999987,
      "d": 1036.0829749999975,
      "v": 89
    },
    {
      "midi": 65,
      "hit": false,
      "t": 141030.99599999987,
      "d": 1077.3201083333406,
      "v": 74
    },
    {
      "midi": 50,
      "hit": false,
      "t": 141030.99599999987,
      "d": 1103.0933166666655,
      "v": 78
    },
    {
      "midi": 62,
      "hit": false,
      "t": 141067.07849166653,
      "d": 1067.0108250000048,
      "v": 85
    },
    {
      "midi": 69,
      "hit": false,
      "t": 141067.07849166653,
      "d": 1087.6293916666764,
      "v": 104
    },
    {
      "midi": 69,
      "hit": false,
      "t": 142577.38849999988,
      "d": 407.21669166666106,
      "v": 104
    },
    {
      "midi": 65,
      "hit": false,
      "t": 142886.66699999987,
      "d": 350.515633333358,
      "v": 102
    },
    {
      "midi": 62,
      "hit": false,
      "t": 143195.94549999989,
      "d": 170.10317499999655,
      "v": 78
    },
    {
      "midi": 58,
      "hit": false,
      "t": 143505.22399999987,
      "d": 1036.0829749999975,
      "v": 89
    },
    {
      "midi": 67,
      "hit": false,
      "t": 143505.22399999987,
      "d": 1077.3201083333406,
      "v": 74
    },
    {
      "midi": 43,
      "hit": false,
      "t": 143505.22399999987,
      "d": 1103.0933166666655,
      "v": 78
    },
    {
      "midi": 62,
      "hit": false,
      "t": 143541.30649166653,
      "d": 1067.0108250000048,
      "v": 85
    },
    {
      "midi": 70,
      "hit": false,
      "t": 143541.30649166653,
      "d": 1087.6293916666764,
      "v": 104
    },
    {
      "midi": 70,
      "hit": false,
      "t": 145051.6164999999,
      "d": 407.21669166666106,
      "v": 104
    },
    {
      "midi": 67,
      "hit": false,
      "t": 145360.89499999987,
      "d": 350.515633333358,
      "v": 102
    },
    {
      "midi": 62,
      "hit": false,
      "t": 145670.1734999999,
      "d": 170.10317499999655,
      "v": 78
    },
    {
      "midi": 38,
      "hit": false,
      "t": 145979.45199999987,
      "d": 2474.228000000003,
      "v": 83
    },
    {
      "midi": 45,
      "hit": false,
      "t": 145979.45199999987,
      "d": 2474.228000000003,
      "v": 90
    },
    {
      "midi": 57,
      "hit": false,
      "t": 145979.45199999987,
      "d": 2474.228000000003,
      "v": 77
    },
    {
      "midi": 65,
      "hit": false,
      "t": 145979.45199999987,
      "d": 2474.228000000003,
      "v": 102
    },
    {
      "midi": 69,
      "hit": false,
      "t": 146010.37984999988,
      "d": 2443.3001499999955,
      "v": 102
    },
    {
      "midi": 34,
      "hit": false,
      "t": 148453.67999999988,
      "d": 2474.228000000003,
      "v": 83
    },
    {
      "midi": 41,
      "hit": false,
      "t": 148453.67999999988,
      "d": 2474.228000000003,
      "v": 90
    },
    {
      "midi": 53,
      "hit": false,
      "t": 148453.67999999988,
      "d": 2474.228000000003,
      "v": 77
    },
    {
      "midi": 62,
      "hit": false,
      "t": 148453.67999999988,
      "d": 2474.228000000003,
      "v": 102
    },
    {
      "midi": 65,
      "hit": false,
      "t": 148484.60784999988,
      "d": 2443.3001499999955,
      "v": 102
    },
    {
      "midi": 52,
      "hit": false,
      "t": 150943.37192499987,
      "d": 2458.7640750000137,
      "v": 89
    },
    {
      "midi": 55,
      "hit": false,
      "t": 150943.37192499987,
      "d": 2458.7640750000137,
      "v": 91
    },
    {
      "midi": 60,
      "hit": false,
      "t": 150943.37192499987,
      "d": 2458.7640750000137,
      "v": 84
    },
    {
      "midi": 64,
      "hit": false,
      "t": 150943.37192499987,
      "d": 2458.7640750000137,
      "v": 96
    },
    {
      "midi": 41,
      "hit": false,
      "t": 153402.13599999988,
      "d": 927.8354999999865,
      "v": 89
    },
    {
      "midi": 57,
      "hit": false,
      "t": 153402.13599999988,
      "d": 963.9179916666471,
      "v": 71
    },
    {
      "midi": 62,
      "hit": false,
      "t": 153402.13599999988,
      "d": 1036.0829749999684,
      "v": 93
    },
    {
      "midi": 53,
      "hit": false,
      "t": 153402.13599999988,
      "d": 1046.3922583333042,
      "v": 76
    },
    {
      "midi": 36,
      "hit": false,
      "t": 154329.97149999987,
      "d": 814.433383333293,
      "v": 98
    },
    {
      "midi": 65,
      "hit": false,
      "t": 154948.52849999984,
      "d": 479.38167499998235,
      "v": 102
    },
    {
      "midi": 62,
      "hit": false,
      "t": 155412.44624999983,
      "d": 195.87638333332143,
      "v": 79
    },
    {
      "midi": 60,
      "hit": false,
      "t": 155876.36399999983,
      "d": 1015.4644083333551,
      "v": 89
    },
    {
      "midi": 65,
      "hit": false,
      "t": 155876.36399999983,
      "d": 1046.3922583333624,
      "v": 91
    },
    {
      "midi": 72,
      "hit": false,
      "t": 155876.36399999983,
      "d": 1046.3922583333624,
      "v": 98
    },
    {
      "midi": 57,
      "hit": false,
      "t": 156031.00324999983,
      "d": 860.8251583333476,
      "v": 73
    },
    {
      "midi": 74,
      "hit": false,
      "t": 157422.75649999984,
      "d": 536.0827333333145,
      "v": 113
    },
    {
      "midi": 62,
      "hit": false,
      "t": 157422.75649999984,
      "d": 659.7941333333147,
      "v": 100
    },
    {
      "midi": 72,
      "hit": false,
      "t": 157886.67424999984,
      "d": 139.17532499998924,
      "v": 91
    },
    {
      "midi": 62,
      "hit": false,
      "t": 158350.59199999983,
      "d": 242.26815833334695,
      "v": 84
    },
    {
      "midi": 38,
      "hit": false,
      "t": 158350.59199999983,
      "d": 809.2787416666688,
      "v": 90
    },
    {
      "midi": 43,
      "hit": false,
      "t": 158350.59199999983,
      "d": 855.6705166666652,
      "v": 82
    },
    {
      "midi": 58,
      "hit": false,
      "t": 158350.59199999983,
      "d": 865.979800000001,
      "v": 71
    },
    {
      "midi": 67,
      "hit": false,
      "t": 158448.5301916665,
      "d": 737.1137583333184,
      "v": 86
    },
    {
      "midi": 67,
      "hit": false,
      "t": 161159.87170833317,
      "d": 1881.444208333327,
      "v": 112
    },
    {
      "midi": 79,
      "hit": false,
      "t": 161443.37699999983,
      "d": 1618.5574833333376,
      "v": 94
    },
    {
      "midi": 70,
      "hit": false,
      "t": 162061.93399999983,
      "d": 943.2994250000047,
      "v": 97
    },
    {
      "midi": 41,
      "hit": false,
      "t": 163299.04799999984,
      "d": 1922.68134166667,
      "v": 88
    },
    {
      "midi": 53,
      "hit": false,
      "t": 163335.1304916665,
      "d": 2087.6298750000133,
      "v": 90
    },
    {
      "midi": 57,
      "hit": false,
      "t": 163335.1304916665,
      "d": 2087.6298750000133,
      "v": 82
    },
    {
      "midi": 60,
      "hit": false,
      "t": 163350.59441666648,
      "d": 2072.165950000024,
      "v": 94
    },
    {
      "midi": 62,
      "hit": false,
      "t": 163371.21298333316,
      "d": 2051.5473833333526,
      "v": 92
    },
    {
      "midi": 57,
      "hit": false,
      "t": 165463.99749999985,
      "d": 154.63925000000745,
      "v": 78
    },
    {
      "midi": 36,
      "hit": false,
      "t": 165618.63674999986,
      "d": 103.0928333333286,
      "v": 58
    },
    {
      "midi": 57,
      "hit": false,
      "t": 165773.27599999987,
      "d": 1190.722225000005,
      "v": 96
    },
    {
      "midi": 62,
      "hit": false,
      "t": 165773.27599999987,
      "d": 1546.3925000000163,
      "v": 96
    },
    {
      "midi": 60,
      "hit": false,
      "t": 165773.27599999987,
      "d": 1664.949258333363,
      "v": 90
    },
    {
      "midi": 41,
      "hit": false,
      "t": 165773.27599999987,
      "d": 2226.8052000000316,
      "v": 90
    },
    {
      "midi": 53,
      "hit": false,
      "t": 165927.91524999987,
      "d": 1510.3100083333557,
      "v": 90
    },
    {
      "midi": 57,
      "hit": false,
      "t": 167319.66849999988,
      "d": 500.000241666683,
      "v": 112
    },
    {
      "midi": 62,
      "hit": false,
      "t": 167783.5862499999,
      "d": 216.49494999999297,
      "v": 112
    },
    {
      "midi": 43,
      "hit": false,
      "t": 168247.5039999999,
      "d": 1922.68134166667,
      "v": 88
    },
    {
      "midi": 58,
      "hit": false,
      "t": 168283.58649166656,
      "d": 2087.6298750000133,
      "v": 90
    },
    {
      "midi": 62,
      "hit": false,
      "t": 168283.58649166656,
      "d": 2087.6298750000133,
      "v": 82
    },
    {
      "midi": 67,
      "hit": false,
      "t": 168299.05041666655,
      "d": 2072.165950000024,
      "v": 94
    },
    {
      "midi": 70,
      "hit": false,
      "t": 168319.66898333322,
      "d": 2051.5473833333526,
      "v": 92
    },
    {
      "midi": 62,
      "hit": false,
      "t": 170412.45349999992,
      "d": 154.63925000000745,
      "v": 78
    },
    {
      "midi": 38,
      "hit": false,
      "t": 170567.09274999992,
      "d": 103.0928333333286,
      "v": 58
    },
    {
      "midi": 62,
      "hit": false,
      "t": 170721.73199999993,
      "d": 1190.722225000005,
      "v": 96
    },
    {
      "midi": 70,
      "hit": false,
      "t": 170721.73199999993,
      "d": 1546.3925000000163,
      "v": 96
    },
    {
      "midi": 67,
      "hit": false,
      "t": 170721.73199999993,
      "d": 1664.949258333363,
      "v": 90
    },
    {
      "midi": 43,
      "hit": false,
      "t": 170721.73199999993,
      "d": 2226.8052000000316,
      "v": 90
    },
    {
      "midi": 58,
      "hit": false,
      "t": 170876.37124999994,
      "d": 1510.3100083333557,
      "v": 90
    },
    {
      "midi": 62,
      "hit": false,
      "t": 172268.12449999995,
      "d": 500.000241666683,
      "v": 112
    },
    {
      "midi": 70,
      "hit": false,
      "t": 172732.04224999997,
      "d": 216.49494999999297,
      "v": 112
    },
    {
      "midi": 38,
      "hit": false,
      "t": 173195.95999999996,
      "d": 2474.228000000003,
      "v": 83
    },
    {
      "midi": 45,
      "hit": false,
      "t": 173195.95999999996,
      "d": 2474.228000000003,
      "v": 90
    },
    {
      "midi": 57,
      "hit": false,
      "t": 173195.95999999996,
      "d": 2474.228000000003,
      "v": 77
    },
    {
      "midi": 66,
      "hit": false,
      "t": 173195.95999999996,
      "d": 2474.228000000003,
      "v": 102
    },
    {
      "midi": 69,
      "hit": false,
      "t": 173226.88784999997,
      "d": 2443.3001499999955,
      "v": 102
    },
    {
      "midi": 38,
      "hit": false,
      "t": 175670.18799999997,
      "d": 1922.681341666641,
      "v": 89
    },
    {
      "midi": 57,
      "hit": false,
      "t": 175706.27049166663,
      "d": 592.7837916666758,
      "v": 91
    },
    {
      "midi": 62,
      "hit": false,
      "t": 175706.27049166663,
      "d": 592.7837916666758,
      "v": 83
    },
    {
      "midi": 66,
      "hit": false,
      "t": 175721.73441666662,
      "d": 577.3198666666867,
      "v": 95
    },
    {
      "midi": 69,
      "hit": false,
      "t": 175742.3529833333,
      "d": 556.7013000000152,
      "v": 93
    },
    {
      "midi": 74,
      "hit": false,
      "t": 176309.36356666664,
      "d": 1288.660416666622,
      "v": 95
    },
    {
      "midi": 81,
      "hit": false,
      "t": 176912.45664166662,
      "d": 1139.175808333297,
      "v": 95
    },
    {
      "midi": 69,
      "hit": false,
      "t": 177531.01364166662,
      "d": 298.96921666665,
      "v": 95
    },
    {
      "midi": 62,
      "hit": false,
      "t": 177835.13749999992,
      "d": 154.63925000000745,
      "v": 79
    },
    {
      "midi": 38,
      "hit": false,
      "t": 178103.1788666666,
      "d": 2010.3102499999804,
      "v": 59
    },
    {
      "midi": 50,
      "hit": false,
      "t": 178144.41599999994,
      "d": 1891.7534916666627,
      "v": 91
    },
    {
      "midi": 69,
      "hit": false,
      "t": 178144.41599999994,
      "d": 1907.2174166666518,
      "v": 97
    },
    {
      "midi": 62,
      "hit": false,
      "t": 178144.41599999994,
      "d": 2242.2691249999625,
      "v": 97
    },
    {
      "midi": 66,
      "hit": false,
      "t": 178144.41599999994,
      "d": 2474.2279999999737,
      "v": 91
    },
    {
      "midi": 74,
      "hit": false,
      "t": 178185.65313333328,
      "d": 1855.670999999973,
      "v": 95
    },
    {
      "midi": 81,
      "hit": false,
      "t": 178237.19954999996,
      "d": 1675.2585416666407,
      "v": 95
    },
    {
      "midi": 57,
      "hit": false,
      "t": 178299.05524999995,
      "d": 1510.3100083333266,
      "v": 91
    }
  ]
}