{
  "jsonPath": "Jazz/Swedish Jazz/Marie Fredriksson/ordet-ar-farval.json",
  "path": "Jazz\\Swedish Jazz\\Marie Fredriksson\\Ordet Är Farväl.mid",
  "name": "Ordet Är Farväl",
  "difficulty": "Advanced",
  "bpm": 127.97024265290844,
  "notes": [
    {
      "midi": 53,
      "hit": false,
      "t": 1406.577,
      "d": 1025.6290625,
      "v": 104
    },
    {
      "midi": 60,
      "hit": false,
      "t": 1406.577,
      "d": 1304.0140937499998,
      "v": 97
    },
    {
      "midi": 69,
      "hit": false,
      "t": 1406.577,
      "d": 1318.6659374999997,
      "v": 88
    },
    {
      "midi": 57,
      "hit": false,
      "t": 1406.577,
      "d": 1333.3177812499996,
      "v": 100
    },
    {
      "midi": 41,
      "hit": false,
      "t": 1406.577,
      "d": 2813.1539999999986,
      "v": 107
    },
    {
      "midi": 65,
      "hit": false,
      "t": 1465.184375,
      "d": 1269.8264583333328,
      "v": 92
    },
    {
      "midi": 53,
      "hit": false,
      "t": 2637.331875,
      "d": 2632.4479270833326,
      "v": 104
    },
    {
      "midi": 69,
      "hit": false,
      "t": 2813.1539999999995,
      "d": 493.2787395833334,
      "v": 88
    },
    {
      "midi": 60,
      "hit": false,
      "t": 2813.1539999999995,
      "d": 879.1106249999998,
      "v": 97
    },
    {
      "midi": 57,
      "hit": false,
      "t": 2813.1539999999995,
      "d": 1211.219083333333,
      "v": 100
    },
    {
      "midi": 65,
      "hit": false,
      "t": 2813.1539999999995,
      "d": 2705.707145833333,
      "v": 92
    },
    {
      "midi": 67,
      "hit": false,
      "t": 3223.4056249999994,
      "d": 561.6540104166666,
      "v": 90
    },
    {
      "midi": 58,
      "hit": false,
      "t": 3282.0129999999995,
      "d": 356.5281979166666,
      "v": 99
    },
    {
      "midi": 60,
      "hit": false,
      "t": 3692.2646249999993,
      "d": 346.76030208333304,
      "v": 97
    },
    {
      "midi": 69,
      "hit": false,
      "t": 3750.8719999999994,
      "d": 468.85899999999947,
      "v": 88
    },
    {
      "midi": 58,
      "hit": false,
      "t": 4161.123624999999,
      "d": 58.60737499999959,
      "v": 99
    },
    {
      "midi": 61,
      "hit": false,
      "t": 4161.123624999999,
      "d": 58.60737499999959,
      "v": 96
    },
    {
      "midi": 70,
      "hit": false,
      "t": 4161.123624999999,
      "d": 1484.720166666666,
      "v": 87
    },
    {
      "midi": 46,
      "hit": false,
      "t": 4161.123624999999,
      "d": 2861.9934791666656,
      "v": 107
    },
    {
      "midi": 58,
      "hit": false,
      "t": 4219.730999999999,
      "d": 1343.0856770833334,
      "v": 99
    },
    {
      "midi": 61,
      "hit": false,
      "t": 4219.730999999999,
      "d": 1352.853572916667,
      "v": 96
    },
    {
      "midi": 53,
      "hit": false,
      "t": 5450.485874999999,
      "d": 1460.3004270833317,
      "v": 104
    },
    {
      "midi": 73,
      "hit": false,
      "t": 5626.307999999999,
      "d": 571.4219062499997,
      "v": 84
    },
    {
      "midi": 58,
      "hit": false,
      "t": 5626.307999999999,
      "d": 1064.7006458333326,
      "v": 99
    },
    {
      "midi": 61,
      "hit": false,
      "t": 5626.307999999999,
      "d": 1123.3080208333322,
      "v": 96
    },
    {
      "midi": 65,
      "hit": false,
      "t": 5626.307999999999,
      "d": 1225.8709270833324,
      "v": 92
    },
    {
      "midi": 72,
      "hit": false,
      "t": 6095.166999999999,
      "d": 498.1626875000002,
      "v": 85
    },
    {
      "midi": 70,
      "hit": false,
      "t": 6564.025999999999,
      "d": 551.8861145833325,
      "v": 87
    },
    {
      "midi": 57,
      "hit": false,
      "t": 6974.277624999998,
      "d": 117.2147500000001,
      "v": 100
    },
    {
      "midi": 60,
      "hit": false,
      "t": 6974.277624999998,
      "d": 117.2147500000001,
      "v": 97
    },
    {
      "midi": 53,
      "hit": false,
      "t": 6974.277624999998,
      "d": 1186.79934375,
      "v": 104
    },
    {
      "midi": 65,
      "hit": false,
      "t": 7032.884999999998,
      "d": 1318.665937499998,
      "v": 92
    },
    {
      "midi": 41,
      "hit": false,
      "t": 7032.884999999998,
      "d": 2837.573739583331,
      "v": 107
    },
    {
      "midi": 60,
      "hit": false,
      "t": 7091.492374999998,
      "d": 1308.8980416666654,
      "v": 97
    },
    {
      "midi": 69,
      "hit": false,
      "t": 7091.492374999998,
      "d": 1338.2017291666652,
      "v": 88
    },
    {
      "midi": 57,
      "hit": false,
      "t": 7091.492374999998,
      "d": 1347.969624999998,
      "v": 100
    },
    {
      "midi": 53,
      "hit": false,
      "t": 8263.639874999997,
      "d": 4058.560718750001,
      "v": 104
    },
    {
      "midi": 69,
      "hit": false,
      "t": 8439.461999999996,
      "d": 463.97505208333314,
      "v": 88
    },
    {
      "midi": 60,
      "hit": false,
      "t": 8439.461999999996,
      "d": 937.7180000000008,
      "v": 97
    },
    {
      "midi": 57,
      "hit": false,
      "t": 8439.461999999996,
      "d": 1264.9425104166676,
      "v": 100
    },
    {
      "midi": 65,
      "hit": false,
      "t": 8439.461999999996,
      "d": 2691.055302083334,
      "v": 92
    },
    {
      "midi": 58,
      "hit": false,
      "t": 8908.320999999996,
      "d": 336.9924062499995,
      "v": 99
    },
    {
      "midi": 67,
      "hit": false,
      "t": 8908.320999999996,
      "d": 766.7798229166674,
      "v": 90
    },
    {
      "midi": 69,
      "hit": false,
      "t": 9377.179999999997,
      "d": 263.7331875,
      "v": 88
    },
    {
      "midi": 60,
      "hit": false,
      "t": 9377.179999999997,
      "d": 336.9924062499995,
      "v": 97
    },
    {
      "midi": 61,
      "hit": false,
      "t": 9846.038999999997,
      "d": 1875.4359999999997,
      "v": 96
    },
    {
      "midi": 58,
      "hit": false,
      "t": 9846.038999999997,
      "d": 2344.295,
      "v": 99
    },
    {
      "midi": 46,
      "hit": false,
      "t": 9846.038999999997,
      "d": 2564.0726562500004,
      "v": 107
    },
    {
      "midi": 70,
      "hit": false,
      "t": 9846.038999999997,
      "d": 5748.4066979166655,
      "v": 87
    },
    {
      "midi": 65,
      "hit": false,
      "t": 11252.615999999996,
      "d": 986.5574791666677,
      "v": 92
    },
    {
      "midi": 61,
      "hit": false,
      "t": 11721.474999999997,
      "d": 732.5921875000004,
      "v": 96
    },
    {
      "midi": 58,
      "hit": false,
      "t": 12190.333999999997,
      "d": 410.25162499999897,
      "v": 99
    },
    {
      "midi": 41,
      "hit": false,
      "t": 12424.763499999997,
      "d": 253.9652916666655,
      "v": 107
    },
    {
      "midi": 53,
      "hit": false,
      "t": 12483.370874999997,
      "d": 2490.813437499999,
      "v": 104
    },
    {
      "midi": 61,
      "hit": false,
      "t": 12600.585624999996,
      "d": 58.60737499999959,
      "v": 96
    },
    {
      "midi": 58,
      "hit": false,
      "t": 12600.585624999996,
      "d": 1934.043375000001,
      "v": 99
    },
    {
      "midi": 65,
      "hit": false,
      "t": 12659.192999999996,
      "d": 1963.347062500001,
      "v": 92
    },
    {
      "midi": 61,
      "hit": false,
      "t": 12659.192999999996,
      "d": 2207.5444583333338,
      "v": 96
    },
    {
      "midi": 46,
      "hit": false,
      "t": 12659.192999999996,
      "d": 2251.4999895833334,
      "v": 107
    },
    {
      "midi": 58,
      "hit": false,
      "t": 14534.628999999997,
      "d": 752.1279791666657,
      "v": 99
    },
    {
      "midi": 61,
      "hit": false,
      "t": 15003.487999999996,
      "d": 239.31344791666743,
      "v": 96
    },
    {
      "midi": 65,
      "hit": false,
      "t": 15003.487999999996,
      "d": 263.7331875,
      "v": 92
    },
    {
      "midi": 46,
      "hit": false,
      "t": 15003.487999999996,
      "d": 527.466375,
      "v": 107
    },
    {
      "midi": 58,
      "hit": false,
      "t": 15472.346999999996,
      "d": 58.60737499999959,
      "v": 99
    },
    {
      "midi": 51,
      "hit": false,
      "t": 15472.346999999996,
      "d": 1230.7548750000005,
      "v": 106
    },
    {
      "midi": 55,
      "hit": false,
      "t": 15472.346999999996,
      "d": 1318.6659375,
      "v": 102
    },
    {
      "midi": 58,
      "hit": false,
      "t": 15530.954374999996,
      "d": 1347.9696249999997,
      "v": 99
    },
    {
      "midi": 63,
      "hit": false,
      "t": 15530.954374999996,
      "d": 1655.6583437499994,
      "v": 94
    },
    {
      "midi": 51,
      "hit": false,
      "t": 16703.101874999997,
      "d": 2691.055302083332,
      "v": 106
    },
    {
      "midi": 58,
      "hit": false,
      "t": 16878.923999999995,
      "d": 468.8590000000004,
      "v": 99
    },
    {
      "midi": 55,
      "hit": false,
      "t": 16878.923999999995,
      "d": 1308.8980416666673,
      "v": 102
    },
    {
      "midi": 60,
      "hit": false,
      "t": 17289.175624999996,
      "d": 527.466375,
      "v": 97
    },
    {
      "midi": 58,
      "hit": false,
      "t": 17347.782999999996,
      "d": 791.1995625000018,
      "v": 99
    },
    {
      "midi": 46,
      "hit": false,
      "t": 17816.641999999996,
      "d": 410.2516250000008,
      "v": 107
    },
    {
      "midi": 61,
      "hit": false,
      "t": 17816.641999999996,
      "d": 429.7874166666661,
      "v": 96
    },
    {
      "midi": 63,
      "hit": false,
      "t": 17816.641999999996,
      "d": 1831.48046875,
      "v": 94
    },
    {
      "midi": 44,
      "hit": false,
      "t": 18226.893624999997,
      "d": 2871.761374999998,
      "v": 107
    },
    {
      "midi": 56,
      "hit": false,
      "t": 18285.500999999997,
      "d": 1406.5770000000011,
      "v": 101
    },
    {
      "midi": 60,
      "hit": false,
      "t": 18285.500999999997,
      "d": 1406.5770000000011,
      "v": 97
    },
    {
      "midi": 51,
      "hit": false,
      "t": 19516.255874999995,
      "d": 1279.5943541666675,
      "v": 106
    },
    {
      "midi": 60,
      "hit": false,
      "t": 19692.077999999998,
      "d": 468.8590000000004,
      "v": 97
    },
    {
      "midi": 56,
      "hit": false,
      "t": 19692.077999999998,
      "d": 937.7180000000008,
      "v": 101
    },
    {
      "midi": 63,
      "hit": false,
      "t": 19750.685374999997,
      "d": 996.3253750000003,
      "v": 94
    },
    {
      "midi": 60,
      "hit": false,
      "t": 20160.936999999998,
      "d": 703.2884999999987,
      "v": 97
    },
    {
      "midi": 56,
      "hit": false,
      "t": 20629.796,
      "d": 468.85899999999674,
      "v": 101
    },
    {
      "midi": 53,
      "hit": false,
      "t": 21098.654999999995,
      "d": 1123.308020833334,
      "v": 104
    },
    {
      "midi": 65,
      "hit": false,
      "t": 21098.654999999995,
      "d": 1264.9425104166694,
      "v": 92
    },
    {
      "midi": 49,
      "hit": false,
      "t": 21098.654999999995,
      "d": 1406.5770000000011,
      "v": 107
    },
    {
      "midi": 56,
      "hit": false,
      "t": 21098.654999999995,
      "d": 1406.5770000000011,
      "v": 101
    },
    {
      "midi": 61,
      "hit": false,
      "t": 21098.654999999995,
      "d": 1406.5770000000011,
      "v": 96
    },
    {
      "midi": 53,
      "hit": false,
      "t": 22329.409874999998,
      "d": 1333.3177812499998,
      "v": 104
    },
    {
      "midi": 61,
      "hit": false,
      "t": 22505.231999999996,
      "d": 468.8590000000004,
      "v": 96
    },
    {
      "midi": 56,
      "hit": false,
      "t": 22505.231999999996,
      "d": 937.7180000000008,
      "v": 101
    },
    {
      "midi": 49,
      "hit": false,
      "t": 22505.231999999996,
      "d": 991.4414270833331,
      "v": 107
    },
    {
      "midi": 65,
      "hit": false,
      "t": 22505.231999999996,
      "d": 1006.0932708333348,
      "v": 92
    },
    {
      "midi": 61,
      "hit": false,
      "t": 22974.090999999997,
      "d": 800.9674583333326,
      "v": 96
    },
    {
      "midi": 56,
      "hit": false,
      "t": 23442.949999999997,
      "d": 410.25162499999715,
      "v": 101
    },
    {
      "midi": 44,
      "hit": false,
      "t": 23442.949999999997,
      "d": 468.85899999999674,
      "v": 107
    },
    {
      "midi": 42,
      "hit": false,
      "t": 23853.201624999994,
      "d": 2739.8947812499973,
      "v": 107
    },
    {
      "midi": 54,
      "hit": false,
      "t": 23911.808999999994,
      "d": 1230.7548749999987,
      "v": 103
    },
    {
      "midi": 61,
      "hit": false,
      "t": 23911.808999999994,
      "d": 1313.7819895833309,
      "v": 96
    },
    {
      "midi": 58,
      "hit": false,
      "t": 23911.808999999994,
      "d": 1362.621468749996,
      "v": 99
    },
    {
      "midi": 54,
      "hit": false,
      "t": 25142.563874999993,
      "d": 175.82212499999878,
      "v": 103
    },
    {
      "midi": 58,
      "hit": false,
      "t": 25318.38599999999,
      "d": 58.60737499999959,
      "v": 99
    },
    {
      "midi": 61,
      "hit": false,
      "t": 25318.38599999999,
      "d": 58.60737499999959,
      "v": 96
    },
    {
      "midi": 54,
      "hit": false,
      "t": 25318.38599999999,
      "d": 1054.93275,
      "v": 103
    },
    {
      "midi": 58,
      "hit": false,
      "t": 25376.99337499999,
      "d": 1050.0488020833327,
      "v": 99
    },
    {
      "midi": 61,
      "hit": false,
      "t": 25376.99337499999,
      "d": 1172.1474999999991,
      "v": 96
    },
    {
      "midi": 46,
      "hit": false,
      "t": 26490.53349999999,
      "d": 229.54555208333477,
      "v": 107
    },
    {
      "midi": 59,
      "hit": false,
      "t": 26724.962999999992,
      "d": 9.767895833334478,
      "v": 98
    },
    {
      "midi": 60,
      "hit": false,
      "t": 26724.962999999992,
      "d": 9.767895833334478,
      "v": 97
    },
    {
      "midi": 51,
      "hit": false,
      "t": 26724.962999999992,
      "d": 1230.7548750000024,
      "v": 106
    },
    {
      "midi": 66,
      "hit": false,
      "t": 26724.962999999992,
      "d": 1255.174614583335,
      "v": 91
    },
    {
      "midi": 54,
      "hit": false,
      "t": 26724.962999999992,
      "d": 1260.0585625000022,
      "v": 103
    },
    {
      "midi": 61,
      "hit": false,
      "t": 26724.962999999992,
      "d": 1304.0140937500037,
      "v": 96
    },
    {
      "midi": 63,
      "hit": false,
      "t": 26724.962999999992,
      "d": 1304.0140937500037,
      "v": 94
    },
    {
      "midi": 58,
      "hit": false,
      "t": 26724.962999999992,
      "d": 1406.5770000000048,
      "v": 99
    },
    {
      "midi": 51,
      "hit": false,
      "t": 27955.717874999995,
      "d": 117.21475000000282,
      "v": 106
    },
    {
      "midi": 51,
      "hit": false,
      "t": 28072.932624999998,
      "d": 1103.772229166665,
      "v": 106
    },
    {
      "midi": 63,
      "hit": false,
      "t": 28131.539999999997,
      "d": 468.8590000000004,
      "v": 94
    },
    {
      "midi": 58,
      "hit": false,
      "t": 28131.539999999997,
      "d": 937.7180000000008,
      "v": 99
    },
    {
      "midi": 54,
      "hit": false,
      "t": 28131.539999999997,
      "d": 957.2537916666661,
      "v": 103
    },
    {
      "midi": 66,
      "hit": false,
      "t": 28131.539999999997,
      "d": 1098.8882812499978,
      "v": 91
    },
    {
      "midi": 63,
      "hit": false,
      "t": 28600.398999999998,
      "d": 947.4858958333316,
      "v": 94
    },
    {
      "midi": 58,
      "hit": false,
      "t": 29069.257999999998,
      "d": 332.1084583333286,
      "v": 99
    },
    {
      "midi": 46,
      "hit": false,
      "t": 29069.257999999998,
      "d": 503.0466354166638,
      "v": 107
    },
    {
      "midi": 53,
      "hit": false,
      "t": 29538.116999999995,
      "d": 1030.5130104166674,
      "v": 104
    },
    {
      "midi": 65,
      "hit": false,
      "t": 29538.116999999995,
      "d": 1338.2017291666707,
      "v": 92
    },
    {
      "midi": 57,
      "hit": false,
      "t": 29538.116999999995,
      "d": 1343.085677083338,
      "v": 100
    },
    {
      "midi": 60,
      "hit": false,
      "t": 29538.116999999995,
      "d": 1382.1572604166722,
      "v": 97
    },
    {
      "midi": 41,
      "hit": false,
      "t": 29538.116999999995,
      "d": 2705.707145833341,
      "v": 107
    },
    {
      "midi": 53,
      "hit": false,
      "t": 30768.871874999997,
      "d": 1328.4338333333362,
      "v": 104
    },
    {
      "midi": 57,
      "hit": false,
      "t": 30944.694,
      "d": 1172.1474999999991,
      "v": 100
    },
    {
      "midi": 60,
      "hit": false,
      "t": 30944.694,
      "d": 1245.4067187500004,
      "v": 97
    },
    {
      "midi": 65,
      "hit": false,
      "t": 30944.694,
      "d": 1255.174614583335,
      "v": 92
    },
    {
      "midi": 57,
      "hit": false,
      "t": 32116.8415,
      "d": 234.42950000000565,
      "v": 100
    },
    {
      "midi": 53,
      "hit": false,
      "t": 32175.448875,
      "d": 175.82212500000605,
      "v": 104
    },
    {
      "midi": 48,
      "hit": false,
      "t": 32175.448875,
      "d": 297.9208229166725,
      "v": 107
    },
    {
      "midi": 65,
      "hit": false,
      "t": 32351.271000000004,
      "d": 1279.5943541666675,
      "v": 92
    },
    {
      "midi": 53,
      "hit": false,
      "t": 32351.271000000004,
      "d": 1289.362250000002,
      "v": 104
    },
    {
      "midi": 60,
      "hit": false,
      "t": 32351.271000000004,
      "d": 1362.6214687499996,
      "v": 97
    },
    {
      "midi": 57,
      "hit": false,
      "t": 32351.271000000004,
      "d": 1406.5770000000011,
      "v": 100
    },
    {
      "midi": 53,
      "hit": false,
      "t": 33640.633250000006,
      "d": 117.21474999999919,
      "v": 104
    },
    {
      "midi": 60,
      "hit": false,
      "t": 33757.848000000005,
      "d": 468.85899999999674,
      "v": 97
    },
    {
      "midi": 57,
      "hit": false,
      "t": 33757.848000000005,
      "d": 937.7179999999935,
      "v": 100
    },
    {
      "midi": 65,
      "hit": false,
      "t": 33757.848000000005,
      "d": 1328.433833333329,
      "v": 92
    },
    {
      "midi": 53,
      "hit": false,
      "t": 33757.848000000005,
      "d": 2515.2331770833334,
      "v": 104
    },
    {
      "midi": 60,
      "hit": false,
      "t": 34226.707,
      "d": 468.85899999999674,
      "v": 97
    },
    {
      "midi": 63,
      "hit": false,
      "t": 34226.707,
      "d": 849.8069374999977,
      "v": 94
    },
    {
      "midi": 60,
      "hit": false,
      "t": 34695.566,
      "d": 332.1084583333359,
      "v": 97
    },
    {
      "midi": 57,
      "hit": false,
      "t": 34695.566,
      "d": 356.52819791666843,
      "v": 100
    },
    {
      "midi": 48,
      "hit": false,
      "t": 34695.566,
      "d": 420.0195208333389,
      "v": 107
    },
    {
      "midi": 58,
      "hit": false,
      "t": 35105.817625,
      "d": 1465.1843750000116,
      "v": 99
    },
    {
      "midi": 46,
      "hit": false,
      "t": 35105.817625,
      "d": 2871.761375000009,
      "v": 107
    },
    {
      "midi": 61,
      "hit": false,
      "t": 35164.425,
      "d": 1343.0856770833416,
      "v": 96
    },
    {
      "midi": 65,
      "hit": false,
      "t": 35164.425,
      "d": 1352.853572916676,
      "v": 92
    },
    {
      "midi": 53,
      "hit": false,
      "t": 36395.17987500001,
      "d": 1450.5325312500063,
      "v": 104
    },
    {
      "midi": 61,
      "hit": false,
      "t": 36571.002000000015,
      "d": 58.60737499999959,
      "v": 96
    },
    {
      "midi": 65,
      "hit": false,
      "t": 36571.002000000015,
      "d": 1147.7277604166666,
      "v": 92
    },
    {
      "midi": 58,
      "hit": false,
      "t": 36571.002000000015,
      "d": 1220.9869791666642,
      "v": 99
    },
    {
      "midi": 61,
      "hit": false,
      "t": 36629.609375000015,
      "d": 1123.308020833334,
      "v": 96
    },
    {
      "midi": 51,
      "hit": false,
      "t": 37977.57900000001,
      "d": 1113.5401249999995,
      "v": 106
    },
    {
      "midi": 63,
      "hit": false,
      "t": 37977.57900000001,
      "d": 1352.8535729166688,
      "v": 94
    },
    {
      "midi": 55,
      "hit": false,
      "t": 37977.57900000001,
      "d": 1387.0412083333358,
      "v": 102
    },
    {
      "midi": 58,
      "hit": false,
      "t": 37977.57900000001,
      "d": 1387.0412083333358,
      "v": 99
    },
    {
      "midi": 39,
      "hit": false,
      "t": 37977.57900000001,
      "d": 1474.9522708333388,
      "v": 107
    },
    {
      "midi": 51,
      "hit": false,
      "t": 39208.33387500001,
      "d": 2681.2874062500123,
      "v": 106
    },
    {
      "midi": 58,
      "hit": false,
      "t": 39384.15600000002,
      "d": 468.859000000004,
      "v": 99
    },
    {
      "midi": 46,
      "hit": false,
      "t": 39384.15600000002,
      "d": 488.394791666673,
      "v": 107
    },
    {
      "midi": 55,
      "hit": false,
      "t": 39384.15600000002,
      "d": 937.718000000008,
      "v": 102
    },
    {
      "midi": 63,
      "hit": false,
      "t": 39384.15600000002,
      "d": 2749.662677083339,
      "v": 94
    },
    {
      "midi": 60,
      "hit": false,
      "t": 39853.01500000002,
      "d": 463.9750520833404,
      "v": 97
    },
    {
      "midi": 48,
      "hit": false,
      "t": 39853.01500000002,
      "d": 493.2787395833366,
      "v": 107
    },
    {
      "midi": 58,
      "hit": false,
      "t": 39853.01500000002,
      "d": 537.2342708333381,
      "v": 99
    },
    {
      "midi": 49,
      "hit": false,
      "t": 40263.266625000026,
      "d": 512.8145312499983,
      "v": 107
    },
    {
      "midi": 55,
      "hit": false,
      "t": 40321.874000000025,
      "d": 356.52819791666843,
      "v": 102
    },
    {
      "midi": 61,
      "hit": false,
      "t": 40321.874000000025,
      "d": 459.09110416666226,
      "v": 96
    },
    {
      "midi": 60,
      "hit": false,
      "t": 40790.73300000002,
      "d": 1396.8091041666703,
      "v": 97
    },
    {
      "midi": 56,
      "hit": false,
      "t": 40790.73300000002,
      "d": 1406.5770000000048,
      "v": 101
    },
    {
      "midi": 44,
      "hit": false,
      "t": 40790.73300000002,
      "d": 2847.3416354166693,
      "v": 107
    },
    {
      "midi": 51,
      "hit": false,
      "t": 42021.48787500002,
      "d": 1387.0412083333358,
      "v": 106
    },
    {
      "midi": 56,
      "hit": false,
      "t": 42197.31000000003,
      "d": 58.60737499999959,
      "v": 101
    },
    {
      "midi": 60,
      "hit": false,
      "t": 42197.31000000003,
      "d": 58.60737499999959,
      "v": 97
    },
    {
      "midi": 60,
      "hit": false,
      "t": 42255.91737500003,
      "d": 1220.9869791666642,
      "v": 97
    },
    {
      "midi": 63,
      "hit": false,
      "t": 42255.91737500003,
      "d": 1269.8264583333294,
      "v": 94
    },
    {
      "midi": 56,
      "hit": false,
      "t": 42255.91737500003,
      "d": 1347.969624999998,
      "v": 101
    },
    {
      "midi": 53,
      "hit": false,
      "t": 43603.887000000024,
      "d": 1079.3524895833325,
      "v": 104
    },
    {
      "midi": 65,
      "hit": false,
      "t": 43603.887000000024,
      "d": 1284.4783020833347,
      "v": 92
    },
    {
      "midi": 61,
      "hit": false,
      "t": 43603.887000000024,
      "d": 1377.2733125000013,
      "v": 96
    },
    {
      "midi": 56,
      "hit": false,
      "t": 43603.887000000024,
      "d": 1406.5770000000048,
      "v": 101
    },
    {
      "midi": 49,
      "hit": false,
      "t": 43603.887000000024,
      "d": 1929.1594270833375,
      "v": 107
    },
    {
      "midi": 53,
      "hit": false,
      "t": 44834.64187500002,
      "d": 1269.826458333344,
      "v": 104
    },
    {
      "midi": 61,
      "hit": false,
      "t": 45010.46400000003,
      "d": 468.85899999999674,
      "v": 96
    },
    {
      "midi": 56,
      "hit": false,
      "t": 45010.46400000003,
      "d": 879.1106250000012,
      "v": 101
    },
    {
      "midi": 65,
      "hit": false,
      "t": 45010.46400000003,
      "d": 1054.9327500000072,
      "v": 92
    },
    {
      "midi": 44,
      "hit": false,
      "t": 45479.323000000026,
      "d": 463.9750520833404,
      "v": 107
    },
    {
      "midi": 61,
      "hit": false,
      "t": 45479.323000000026,
      "d": 786.3156145833418,
      "v": 96
    },
    {
      "midi": 56,
      "hit": false,
      "t": 45889.57462500003,
      "d": 380.947937500001,
      "v": 101
    },
    {
      "midi": 41,
      "hit": false,
      "t": 45889.57462500003,
      "d": 522.58242708334,
      "v": 107
    },
    {
      "midi": 58,
      "hit": false,
      "t": 46358.433625000034,
      "d": 58.60737499999959,
      "v": 99
    },
    {
      "midi": 61,
      "hit": false,
      "t": 46358.433625000034,
      "d": 58.60737499999959,
      "v": 96
    },
    {
      "midi": 54,
      "hit": false,
      "t": 46358.433625000034,
      "d": 1289.3622499999983,
      "v": 103
    },
    {
      "midi": 61,
      "hit": false,
      "t": 46417.041000000034,
      "d": 1343.0856770833343,
      "v": 96
    },
    {
      "midi": 58,
      "hit": false,
      "t": 46417.041000000034,
      "d": 1377.2733125000013,
      "v": 99
    },
    {
      "midi": 42,
      "hit": false,
      "t": 46417.041000000034,
      "d": 2847.3416354166693,
      "v": 107
    },
    {
      "midi": 54,
      "hit": false,
      "t": 47647.79587500003,
      "d": 175.82212500000605,
      "v": 103
    },
    {
      "midi": 58,
      "hit": false,
      "t": 47823.61800000004,
      "d": 1113.5401249999995,
      "v": 99
    },
    {
      "midi": 54,
      "hit": false,
      "t": 47823.61800000004,
      "d": 1133.0759166666685,
      "v": 103
    },
    {
      "midi": 61,
      "hit": false,
      "t": 47823.61800000004,
      "d": 1196.5672395833317,
      "v": 96
    },
    {
      "midi": 51,
      "hit": false,
      "t": 49230.195000000036,
      "d": 58.60737499999959,
      "v": 106
    },
    {
      "midi": 58,
      "hit": false,
      "t": 49230.195000000036,
      "d": 58.60737499999959,
      "v": 99
    },
    {
      "midi": 51,
      "hit": false,
      "t": 49288.802375000036,
      "d": 1172.1474999999991,
      "v": 106
    },
    {
      "midi": 54,
      "hit": false,
      "t": 49288.802375000036,
      "d": 1191.683291666668,
      "v": 103
    },
    {
      "midi": 66,
      "hit": false,
      "t": 49288.802375000036,
      "d": 1264.9425104166658,
      "v": 91
    },
    {
      "midi": 58,
      "hit": false,
      "t": 49288.802375000036,
      "d": 1347.969624999998,
      "v": 99
    },
    {
      "midi": 63,
      "hit": false,
      "t": 49288.802375000036,
      "d": 1347.969624999998,
      "v": 94
    },
    {
      "midi": 61,
      "hit": false,
      "t": 49288.802375000036,
      "d": 1367.5054166666669,
      "v": 96
    },
    {
      "midi": 51,
      "hit": false,
      "t": 50460.949875000035,
      "d": 175.82212499999878,
      "v": 106
    },
    {
      "midi": 63,
      "hit": false,
      "t": 50636.77200000003,
      "d": 468.859000000004,
      "v": 94
    },
    {
      "midi": 54,
      "hit": false,
      "t": 50636.77200000003,
      "d": 932.8340520833372,
      "v": 103
    },
    {
      "midi": 58,
      "hit": false,
      "t": 50636.77200000003,
      "d": 937.7180000000008,
      "v": 99
    },
    {
      "midi": 66,
      "hit": false,
      "t": 50636.77200000003,
      "d": 1040.2809062500019,
      "v": 91
    },
    {
      "midi": 51,
      "hit": false,
      "t": 50636.77200000003,
      "d": 1421.2288437500029,
      "v": 106
    },
    {
      "midi": 63,
      "hit": false,
      "t": 51105.63100000004,
      "d": 615.3774374999994,
      "v": 94
    },
    {
      "midi": 58,
      "hit": false,
      "t": 51574.490000000034,
      "d": 322.3405625000014,
      "v": 99
    },
    {
      "midi": 41,
      "hit": false,
      "t": 52043.34900000004,
      "d": 29.30368749999616,
      "v": 107
    },
    {
      "midi": 53,
      "hit": false,
      "t": 52043.34900000004,
      "d": 1045.1648541666655,
      "v": 104
    },
    {
      "midi": 60,
      "hit": false,
      "t": 52043.34900000004,
      "d": 1352.8535729166688,
      "v": 97
    },
    {
      "midi": 57,
      "hit": false,
      "t": 52043.34900000004,
      "d": 1357.7375208333324,
      "v": 100
    },
    {
      "midi": 65,
      "hit": false,
      "t": 52043.34900000004,
      "d": 1406.5769999999975,
      "v": 92
    },
    {
      "midi": 41,
      "hit": false,
      "t": 52072.652687500035,
      "d": 1377.2733125000013,
      "v": 127
    },
    {
      "midi": 53,
      "hit": false,
      "t": 53274.10387500004,
      "d": 1582.3991250000036,
      "v": 104
    },
    {
      "midi": 41,
      "hit": false,
      "t": 53449.926000000036,
      "d": 1308.8980416666673,
      "v": 107
    },
    {
      "midi": 65,
      "hit": false,
      "t": 53449.926000000036,
      "d": 1352.8535729166688,
      "v": 92
    },
    {
      "midi": 57,
      "hit": false,
      "t": 53449.926000000036,
      "d": 1406.5770000000048,
      "v": 100
    },
    {
      "midi": 60,
      "hit": false,
      "t": 53449.926000000036,
      "d": 1406.5770000000048,
      "v": 97
    },
    {
      "midi": 43,
      "hit": false,
      "t": 53454.8099479167,
      "d": 1445.6485833333427,
      "v": 127
    },
    {
      "midi": 69,
      "hit": false,
      "t": 53918.78500000003,
      "d": 488.3947916666657,
      "v": 88
    },
    {
      "midi": 72,
      "hit": false,
      "t": 54387.64400000003,
      "d": 239.31344791666925,
      "v": 85
    },
    {
      "midi": 48,
      "hit": false,
      "t": 54680.680875000035,
      "d": 263.7331875000091,
      "v": 107
    },
    {
      "midi": 45,
      "hit": false,
      "t": 54846.735104166706,
      "d": 1406.577000000012,
      "v": 127
    },
    {
      "midi": 53,
      "hit": false,
      "t": 54856.50300000004,
      "d": 1230.754875000006,
      "v": 104
    },
    {
      "midi": 77,
      "hit": false,
      "t": 54856.50300000004,
      "d": 1269.8264583333366,
      "v": 80
    },
    {
      "midi": 65,
      "hit": false,
      "t": 54856.50300000004,
      "d": 1347.9696250000052,
      "v": 92
    },
    {
      "midi": 60,
      "hit": false,
      "t": 54856.50300000004,
      "d": 1367.5054166666741,
      "v": 97
    },
    {
      "midi": 57,
      "hit": false,
      "t": 54856.50300000004,
      "d": 1377.2733125000086,
      "v": 100
    },
    {
      "midi": 53,
      "hit": false,
      "t": 56087.25787500005,
      "d": 175.82212500000605,
      "v": 104
    },
    {
      "midi": 48,
      "hit": false,
      "t": 56224.008416666715,
      "d": 976.7895833333387,
      "v": 127
    },
    {
      "midi": 77,
      "hit": false,
      "t": 56263.08000000005,
      "d": 883.9945729166648,
      "v": 80
    },
    {
      "midi": 53,
      "hit": false,
      "t": 56263.08000000005,
      "d": 967.0216875000042,
      "v": 104
    },
    {
      "midi": 57,
      "hit": false,
      "t": 56263.08000000005,
      "d": 996.3253750000076,
      "v": 100
    },
    {
      "midi": 60,
      "hit": false,
      "t": 56263.08000000005,
      "d": 996.3253750000076,
      "v": 97
    },
    {
      "midi": 65,
      "hit": false,
      "t": 56263.08000000005,
      "d": 1264.9425104166658,
      "v": 92
    },
    {
      "midi": 77,
      "hit": false,
      "t": 57200.79800000005,
      "d": 454.20715624999866,
      "v": 80
    },
    {
      "midi": 48,
      "hit": false,
      "t": 57200.79800000005,
      "d": 503.0466354166638,
      "v": 107
    },
    {
      "midi": 53,
      "hit": false,
      "t": 57259.40537500006,
      "d": 249.08134374999645,
      "v": 104
    },
    {
      "midi": 57,
      "hit": false,
      "t": 57259.40537500006,
      "d": 263.73318749999453,
      "v": 100
    },
    {
      "midi": 60,
      "hit": false,
      "t": 57259.40537500006,
      "d": 268.61713541665813,
      "v": 97
    },
    {
      "midi": 58,
      "hit": false,
      "t": 57635.46936458333,
      "d": 34.18763541665248,
      "v": 127
    },
    {
      "midi": 62,
      "hit": false,
      "t": 57640.353312499996,
      "d": 1250.2906666666531,
      "v": 127
    },
    {
      "midi": 65,
      "hit": false,
      "t": 57645.23726041666,
      "d": 1230.7548749999914,
      "v": 127
    },
    {
      "midi": 50,
      "hit": false,
      "t": 57650.12120833332,
      "d": 1201.4511874999953,
      "v": 127
    },
    {
      "midi": 53,
      "hit": false,
      "t": 57659.889104166716,
      "d": 2412.6702708333323,
      "v": 127
    },
    {
      "midi": 53,
      "hit": false,
      "t": 57664.77305208332,
      "d": 908.4143124999973,
      "v": 127
    },
    {
      "midi": 58,
      "hit": false,
      "t": 57669.656999999985,
      "d": 971.9056354166678,
      "v": 127
    },
    {
      "midi": 46,
      "hit": false,
      "t": 57669.65700000005,
      "d": 34.187635416667035,
      "v": 107
    },
    {
      "midi": 58,
      "hit": false,
      "t": 57669.65700000005,
      "d": 58.60737499999959,
      "v": 99
    },
    {
      "midi": 62,
      "hit": false,
      "t": 57669.65700000005,
      "d": 58.60737499999959,
      "v": 95
    },
    {
      "midi": 65,
      "hit": false,
      "t": 57669.65700000005,
      "d": 58.60737499999959,
      "v": 92
    },
    {
      "midi": 50,
      "hit": false,
      "t": 57674.540947916714,
      "d": 2422.438166666667,
      "v": 127
    },
    {
      "midi": 46,
      "hit": false,
      "t": 57703.84463541672,
      "d": 1372.3893645833305,
      "v": 127
    },
    {
      "midi": 58,
      "hit": false,
      "t": 57728.26437500005,
      "d": 1152.6117083333302,
      "v": 99
    },
    {
      "midi": 65,
      "hit": false,
      "t": 57728.26437500005,
      "d": 1206.3351354166662,
      "v": 92
    },
    {
      "midi": 62,
      "hit": false,
      "t": 57728.26437500005,
      "d": 1216.1030312500006,
      "v": 95
    },
    {
      "midi": 77,
      "hit": false,
      "t": 57728.26437500005,
      "d": 3462.7190729166614,
      "v": 80
    },
    {
      "midi": 58,
      "hit": false,
      "t": 58641.56263541665,
      "d": 249.08134374999645,
      "v": 127
    },
    {
      "midi": 53,
      "hit": false,
      "t": 58641.56263541665,
      "d": 317.4566145833305,
      "v": 127
    },
    {
      "midi": 58,
      "hit": false,
      "t": 58890.64397916665,
      "d": 83.02711458333215,
      "v": 127
    },
    {
      "midi": 58,
      "hit": false,
      "t": 58900.41187500005,
      "d": 175.82212499999878,
      "v": 99
    },
    {
      "midi": 50,
      "hit": false,
      "t": 58949.25135416665,
      "d": 971.9056354166751,
      "v": 127
    },
    {
      "midi": 58,
      "hit": false,
      "t": 59042.046364583315,
      "d": 39.07158333333791,
      "v": 127
    },
    {
      "midi": 65,
      "hit": false,
      "t": 59071.35005208332,
      "d": 766.7798229166656,
      "v": 127
    },
    {
      "midi": 53,
      "hit": false,
      "t": 59071.35005208332,
      "d": 810.7353541666671,
      "v": 127
    },
    {
      "midi": 62,
      "hit": false,
      "t": 59071.35005208332,
      "d": 820.5032500000016,
      "v": 127
    },
    {
      "midi": 58,
      "hit": false,
      "t": 59076.23400000005,
      "d": 937.7180000000008,
      "v": 99
    },
    {
      "midi": 62,
      "hit": false,
      "t": 59076.23400000005,
      "d": 937.7180000000008,
      "v": 95
    },
    {
      "midi": 65,
      "hit": false,
      "t": 59076.23400000005,
      "d": 937.7180000000008,
      "v": 92
    },
    {
      "midi": 46,
      "hit": false,
      "t": 59076.23400000005,
      "d": 996.3253750000003,
      "v": 107
    },
    {
      "midi": 59,
      "hit": false,
      "t": 59081.11794791665,
      "d": 4.883947916663601,
      "v": 127
    },
    {
      "midi": 58,
      "hit": false,
      "t": 59081.11794791665,
      "d": 840.0390416666705,
      "v": 127
    },
    {
      "midi": 50,
      "hit": false,
      "t": 59965.112520833325,
      "d": 278.38503125000716,
      "v": 127
    },
    {
      "midi": 58,
      "hit": false,
      "t": 59994.41620833333,
      "d": 9.767895833334478,
      "v": 127
    },
    {
      "midi": 53,
      "hit": false,
      "t": 59994.41620833333,
      "d": 205.1258125000022,
      "v": 127
    },
    {
      "midi": 58,
      "hit": false,
      "t": 60004.18410416666,
      "d": 336.9924062499995,
      "v": 127
    },
    {
      "midi": 65,
      "hit": false,
      "t": 60013.95200000005,
      "d": 278.3850312499999,
      "v": 92
    },
    {
      "midi": 62,
      "hit": false,
      "t": 60013.95200000005,
      "d": 293.03687499999796,
      "v": 95
    },
    {
      "midi": 41,
      "hit": false,
      "t": 60013.95200000005,
      "d": 493.2787395833293,
      "v": 107
    },
    {
      "midi": 58,
      "hit": false,
      "t": 60013.95200000005,
      "d": 1289.3622499999983,
      "v": 99
    },
    {
      "midi": 62,
      "hit": false,
      "t": 60018.83594791666,
      "d": 195.35791666666773,
      "v": 127
    },
    {
      "midi": 65,
      "hit": false,
      "t": 60023.719895833325,
      "d": 146.51843750000262,
      "v": 127
    },
    {
      "midi": 58,
      "hit": false,
      "t": 60468.159156249996,
      "d": 29.303687499988882,
      "v": 127
    },
    {
      "midi": 51,
      "hit": false,
      "t": 60468.159156249996,
      "d": 752.127979166653,
      "v": 127
    },
    {
      "midi": 55,
      "hit": false,
      "t": 60482.810999999994,
      "d": 4.883947916663601,
      "v": 127
    },
    {
      "midi": 55,
      "hit": false,
      "t": 60487.69494791666,
      "d": 1230.7548749999914,
      "v": 127
    },
    {
      "midi": 57,
      "hit": false,
      "t": 60492.57889583332,
      "d": 68.3752708333268,
      "v": 127
    },
    {
      "midi": 58,
      "hit": false,
      "t": 60497.462843749985,
      "d": 1240.5227708333332,
      "v": 127
    },
    {
      "midi": 63,
      "hit": false,
      "t": 60502.34679166665,
      "d": 1216.1030312500006,
      "v": 127
    },
    {
      "midi": 55,
      "hit": false,
      "t": 61718.44982291665,
      "d": 166.0542291666643,
      "v": 127
    },
    {
      "midi": 51,
      "hit": false,
      "t": 61718.44982291665,
      "d": 556.7700624999998,
      "v": 127
    },
    {
      "midi": 58,
      "hit": false,
      "t": 61869.852208333316,
      "d": 4.883947916663601,
      "v": 127
    },
    {
      "midi": 63,
      "hit": false,
      "t": 61874.73615624998,
      "d": 400.48372916666995,
      "v": 127
    },
    {
      "midi": 58,
      "hit": false,
      "t": 61874.73615624998,
      "d": 410.2516250000044,
      "v": 127
    },
    {
      "midi": 55,
      "hit": false,
      "t": 61884.50405208331,
      "d": 415.135572916668,
      "v": 127
    },
    {
      "midi": 55,
      "hit": false,
      "t": 62343.59515624998,
      "d": 4.883947916663601,
      "v": 127
    },
    {
      "midi": 58,
      "hit": false,
      "t": 62343.59515624998,
      "d": 19.53579166666168,
      "v": 127
    },
    {
      "midi": 55,
      "hit": false,
      "t": 62348.47910416665,
      "d": 649.5650729166664,
      "v": 127
    },
    {
      "midi": 51,
      "hit": false,
      "t": 62358.24699999998,
      "d": 586.0737499999959,
      "v": 127
    },
    {
      "midi": 63,
      "hit": false,
      "t": 62358.24699999998,
      "d": 595.8416458333304,
      "v": 127
    },
    {
      "midi": 58,
      "hit": false,
      "t": 62363.130947916645,
      "d": 634.9132291666683,
      "v": 127
    },
    {
      "midi": 57,
      "hit": false,
      "t": 63208.05393749998,
      "d": 92.79501041666663,
      "v": 127
    },
    {
      "midi": 50,
      "hit": false,
      "t": 63252.00946874998,
      "d": 722.8242916666641,
      "v": 127
    },
    {
      "midi": 53,
      "hit": false,
      "t": 63291.08105208331,
      "d": 53.72342708333599,
      "v": 127
    },
    {
      "midi": 57,
      "hit": false,
      "t": 63300.848947916646,
      "d": 957.2537916666624,
      "v": 127
    },
    {
      "midi": 62,
      "hit": false,
      "t": 63335.03658333331,
      "d": 1240.522770833326,
      "v": 127
    },
    {
      "midi": 53,
      "hit": false,
      "t": 63344.80447916665,
      "d": 908.4143124999973,
      "v": 127
    },
    {
      "midi": 50,
      "hit": false,
      "t": 64072.512718749975,
      "d": 556.7700624999998,
      "v": 127
    },
    {
      "midi": 53,
      "hit": false,
      "t": 64253.218791666644,
      "d": 293.03687499999796,
      "v": 127
    },
    {
      "midi": 57,
      "hit": false,
      "t": 64258.10273958331,
      "d": 327.224510416665,
      "v": 127
    },
    {
      "midi": 53,
      "hit": false,
      "t": 64570.675406249975,
      "d": 122.09869791666279,
      "v": 127
    },
    {
      "midi": 57,
      "hit": false,
      "t": 64683.00620833331,
      "d": 9.767895833327202,
      "v": 127
    },
    {
      "midi": 50,
      "hit": false,
      "t": 64687.890156249974,
      "d": 888.8785208333211,
      "v": 127
    },
    {
      "midi": 53,
      "hit": false,
      "t": 64692.77410416664,
      "d": 942.6019479166644,
      "v": 127
    },
    {
      "midi": 57,
      "hit": false,
      "t": 64692.77410416664,
      "d": 942.6019479166644,
      "v": 127
    },
    {
      "midi": 62,
      "hit": false,
      "t": 64697.6580520833,
      "d": 405.36767708333355,
      "v": 127
    },
    {
      "midi": 62,
      "hit": false,
      "t": 65171.40099999997,
      "d": 708.1724479166733,
      "v": 127
    },
    {
      "midi": 50,
      "hit": false,
      "t": 65620.7242083333,
      "d": 332.10845833334315,
      "v": 127
    },
    {
      "midi": 53,
      "hit": false,
      "t": 65635.3760520833,
      "d": 288.15292708334164,
      "v": 127
    },
    {
      "midi": 57,
      "hit": false,
      "t": 65635.3760520833,
      "d": 332.10845833334315,
      "v": 127
    },
    {
      "midi": 55,
      "hit": false,
      "t": 66045.6276770833,
      "d": 34.18763541667431,
      "v": 127
    },
    {
      "midi": 51,
      "hit": false,
      "t": 66065.16346874998,
      "d": 1382.1572604166722,
      "v": 127
    },
    {
      "midi": 58,
      "hit": false,
      "t": 66079.81531249998,
      "d": 24.419739583332557,
      "v": 127
    },
    {
      "midi": 55,
      "hit": false,
      "t": 66079.81531249998,
      "d": 1416.344895833332,
      "v": 127
    },
    {
      "midi": 58,
      "hit": false,
      "t": 66104.23505208331,
      "d": 1367.5054166666669,
      "v": 127
    },
    {
      "midi": 63,
      "hit": false,
      "t": 66109.11899999998,
      "d": 1318.6659375000017,
      "v": 127
    },
    {
      "midi": 51,
      "hit": false,
      "t": 67501.04415624998,
      "d": 864.4587812500104,
      "v": 127
    },
    {
      "midi": 55,
      "hit": false,
      "t": 67505.92810416664,
      "d": 14.651843750005355,
      "v": 127
    },
    {
      "midi": 58,
      "hit": false,
      "t": 67505.92810416664,
      "d": 34.18763541667431,
      "v": 127
    },
    {
      "midi": 55,
      "hit": false,
      "t": 67520.57994791665,
      "d": 449.32320833334234,
      "v": 127
    },
    {
      "midi": 63,
      "hit": false,
      "t": 67540.11573958331,
      "d": 586.0737500000105,
      "v": 127
    },
    {
      "midi": 58,
      "hit": false,
      "t": 67540.11573958331,
      "d": 752.1279791666748,
      "v": 127
    },
    {
      "midi": 55,
      "hit": false,
      "t": 67969.90315624999,
      "d": 478.6268958333385,
      "v": 127
    },
    {
      "midi": 55,
      "hit": false,
      "t": 68448.53005208333,
      "d": 249.08134374998917,
      "v": 127
    },
    {
      "midi": 51,
      "hit": false,
      "t": 68448.53005208333,
      "d": 263.73318749999453,
      "v": 127
    },
    {
      "midi": 58,
      "hit": false,
      "t": 68453.41399999999,
      "d": 4.883947916663601,
      "v": 127
    },
    {
      "midi": 58,
      "hit": false,
      "t": 68458.29794791665,
      "d": 322.3405625000014,
      "v": 127
    },
    {
      "midi": 63,
      "hit": false,
      "t": 68463.18189583332,
      "d": 258.8492395833309,
      "v": 127
    },
    {
      "midi": 58,
      "hit": false,
      "t": 68902.73720833332,
      "d": 9.767895833327202,
      "v": 127
    },
    {
      "midi": 53,
      "hit": false,
      "t": 68907.62115624998,
      "d": 1308.89804166666,
      "v": 127
    },
    {
      "midi": 58,
      "hit": false,
      "t": 68912.50510416664,
      "d": 1372.3893645833305,
      "v": 127
    },
    {
      "midi": 62,
      "hit": false,
      "t": 68917.38905208331,
      "d": 1352.8535729166615,
      "v": 127
    },
    {
      "midi": 65,
      "hit": false,
      "t": 68922.27299999997,
      "d": 1289.3622500000056,
      "v": 127
    },
    {
      "midi": 50,
      "hit": false,
      "t": 68922.27299999997,
      "d": 1323.5498854166653,
      "v": 127
    },
    {
      "midi": 50,
      "hit": false,
      "t": 70328.84999999998,
      "d": 1142.8438125000102,
      "v": 127
    },
    {
      "midi": 58,
      "hit": false,
      "t": 70333.73394791664,
      "d": 4.883947916663601,
      "v": 127
    },
    {
      "midi": 53,
      "hit": false,
      "t": 70333.73394791664,
      "d": 869.342729166674,
      "v": 127
    },
    {
      "midi": 58,
      "hit": false,
      "t": 70338.6178958333,
      "d": 781.4316666666709,
      "v": 127
    },
    {
      "midi": 62,
      "hit": false,
      "t": 70338.6178958333,
      "d": 796.0835104166763,
      "v": 127
    },
    {
      "midi": 65,
      "hit": false,
      "t": 70353.26973958331,
      "d": 752.1279791666602,
      "v": 127
    },
    {
      "midi": 59,
      "hit": false,
      "t": 70367.92158333331,
      "d": 9.767895833327202,
      "v": 127
    },
    {
      "midi": 58,
      "hit": false,
      "t": 71120.04956249997,
      "d": 170.93817708334245,
      "v": 127
    },
    {
      "midi": 53,
      "hit": false,
      "t": 71290.98773958332,
      "d": 166.0542291666643,
      "v": 127
    },
    {
      "midi": 58,
      "hit": false,
      "t": 71290.98773958332,
      "d": 258.8492395833455,
      "v": 127
    },
    {
      "midi": 62,
      "hit": false,
      "t": 71300.75563541664,
      "d": 234.42950000001292,
      "v": 127
    },
    {
      "midi": 65,
      "hit": false,
      "t": 71315.40747916665,
      "d": 263.7331875000091,
      "v": 127
    },
    {
      "midi": 53,
      "hit": false,
      "t": 71720.77515624999,
      "d": 1323.54988541668,
      "v": 127
    },
    {
      "midi": 60,
      "hit": false,
      "t": 71735.427,
      "d": 4.883947916663601,
      "v": 127
    },
    {
      "midi": 57,
      "hit": false,
      "t": 71735.427,
      "d": 1362.6214687500033,
      "v": 127
    },
    {
      "midi": 60,
      "hit": false,
      "t": 71740.31094791666,
      "d": 942.6019479166716,
      "v": 127
    },
    {
      "midi": 65,
      "hit": false,
      "t": 71740.31094791666,
      "d": 1284.478302083342,
      "v": 127
    },
    {
      "midi": 60,
      "hit": false,
      "t": 72682.91289583333,
      "d": 385.83188541667187,
      "v": 127
    },
    {
      "midi": 53,
      "hit": false,
      "t": 73112.7003125,
      "d": 908.4143124999973,
      "v": 127
    },
    {
      "midi": 57,
      "hit": false,
      "t": 73117.58426041667,
      "d": 24.419739583332557,
      "v": 127
    },
    {
      "midi": 60,
      "hit": false,
      "t": 73122.46820833333,
      "d": 19.535791666668956,
      "v": 127
    },
    {
      "midi": 57,
      "hit": false,
      "t": 73142.004,
      "d": 937.7179999999935,
      "v": 127
    },
    {
      "midi": 60,
      "hit": false,
      "t": 73142.004,
      "d": 962.137739583326,
      "v": 127
    },
    {
      "midi": 65,
      "hit": false,
      "t": 73142.004,
      "d": 1015.8611666666548,
      "v": 127
    },
    {
      "midi": 53,
      "hit": false,
      "t": 74074.83805208333,
      "d": 180.7060729166551,
      "v": 127
    },
    {
      "midi": 57,
      "hit": false,
      "t": 74079.722,
      "d": 146.51843749999534,
      "v": 127
    },
    {
      "midi": 60,
      "hit": false,
      "t": 74104.14173958333,
      "d": 83.02711458332487,
      "v": 127
    },
    {
      "midi": 55,
      "hit": false,
      "t": 74548.58099999999,
      "d": 14.651843750005355,
      "v": 127
    },
    {
      "midi": 58,
      "hit": false,
      "t": 74548.58099999999,
      "d": 29.30368750001071,
      "v": 127
    },
    {
      "midi": 55,
      "hit": false,
      "t": 74563.23284375,
      "d": 766.7798229166656,
      "v": 127
    },
    {
      "midi": 62,
      "hit": false,
      "t": 74577.8846875,
      "d": 776.5477187499928,
      "v": 127
    },
    {
      "midi": 58,
      "hit": false,
      "t": 74577.8846875,
      "d": 903.5303645833337,
      "v": 127
    },
    {
      "midi": 50,
      "hit": false,
      "t": 74587.65258333333,
      "d": 1216.103031250008,
      "v": 127
    },
    {
      "midi": 55,
      "hit": false,
      "t": 75330.01266666666,
      "d": 136.75054166666814,
      "v": 127
    },
    {
      "midi": 55,
      "hit": false,
      "t": 75466.76320833333,
      "d": 351.6442500000121,
      "v": 127
    },
    {
      "midi": 58,
      "hit": false,
      "t": 75481.41505208334,
      "d": 29.30368749999616,
      "v": 127
    },
    {
      "midi": 58,
      "hit": false,
      "t": 75510.71873958333,
      "d": 317.4566145833378,
      "v": 127
    },
    {
      "midi": 62,
      "hit": false,
      "t": 75525.37058333334,
      "d": 219.77765624999302,
      "v": 127
    },
    {
      "midi": 57,
      "hit": false,
      "t": 75911.20246875001,
      "d": 14.651843749990803,
      "v": 127
    },
    {
      "midi": 53,
      "hit": false,
      "t": 75916.08641666667,
      "d": 888.8785208333138,
      "v": 127
    },
    {
      "midi": 57,
      "hit": false,
      "t": 75925.8543125,
      "d": 908.4143124999828,
      "v": 127
    },
    {
      "midi": 60,
      "hit": false,
      "t": 75930.73826041666,
      "d": 9.767895833327202,
      "v": 127
    },
    {
      "midi": 60,
      "hit": false,
      "t": 75940.50615624999,
      "d": 893.762468749992,
      "v": 127
    },
    {
      "midi": 65,
      "hit": false,
      "t": 75945.39010416665,
      "d": 859.5748333333322,
      "v": 127
    },
    {
      "midi": 60,
      "hit": false,
      "t": 76887.99205208331,
      "d": 9.767895833327202,
      "v": 127
    },
    {
      "midi": 53,
      "hit": false,
      "t": 76887.99205208331,
      "d": 307.68871874999604,
      "v": 127
    },
    {
      "midi": 57,
      "hit": false,
      "t": 76892.87599999997,
      "d": 9.767895833327202,
      "v": 127
    },
    {
      "midi": 60,
      "hit": false,
      "t": 76897.75994791664,
      "d": 268.6171354166727,
      "v": 127
    },
    {
      "midi": 57,
      "hit": false,
      "t": 76902.6438958333,
      "d": 332.10845833334315,
      "v": 127
    },
    {
      "midi": 65,
      "hit": false,
      "t": 76907.52784374997,
      "d": 244.19739583334012,
      "v": 127
    },
    {
      "midi": 51,
      "hit": false,
      "t": 77332.43131249998,
      "d": 659.3329687499936,
      "v": 127
    },
    {
      "midi": 55,
      "hit": false,
      "t": 77347.08315624998,
      "d": 19.535791666668956,
      "v": 127
    },
    {
      "midi": 58,
      "hit": false,
      "t": 77361.73499999999,
      "d": 14.651843749990803,
      "v": 127
    },
    {
      "midi": 55,
      "hit": false,
      "t": 77366.61894791665,
      "d": 747.2440312499821,
      "v": 127
    },
    {
      "midi": 57,
      "hit": false,
      "t": 77371.50289583331,
      "d": 19.535791666654404,
      "v": 127
    },
    {
      "midi": 58,
      "hit": false,
      "t": 77376.38684374998,
      "d": 766.779822916651,
      "v": 127
    },
    {
      "midi": 63,
      "hit": false,
      "t": 77381.27079166664,
      "d": 761.8958749999874,
      "v": 127
    },
    {
      "midi": 55,
      "hit": false,
      "t": 78113.86297916663,
      "d": 170.9381770833279,
      "v": 127
    },
    {
      "midi": 51,
      "hit": false,
      "t": 78113.86297916663,
      "d": 527.4663749999891,
      "v": 127
    },
    {
      "midi": 58,
      "hit": false,
      "t": 78284.80115624996,
      "d": 24.419739583332557,
      "v": 127
    },
    {
      "midi": 55,
      "hit": false,
      "t": 78284.80115624996,
      "d": 429.7874166666588,
      "v": 127
    },
    {
      "midi": 58,
      "hit": false,
      "t": 78309.22089583329,
      "d": 361.41214583332476,
      "v": 127
    },
    {
      "midi": 63,
      "hit": false,
      "t": 78314.10484374996,
      "d": 317.4566145833378,
      "v": 127
    },
    {
      "midi": 55,
      "hit": false,
      "t": 78714.58857291662,
      "d": 498.16268750000745,
      "v": 127
    },
    {
      "midi": 58,
      "hit": false,
      "t": 78729.24041666662,
      "d": 39.07158333333791,
      "v": 127
    },
    {
      "midi": 51,
      "hit": false,
      "t": 78729.24041666662,
      "d": 874.226677083323,
      "v": 127
    },
    {
      "midi": 58,
      "hit": false,
      "t": 78768.31199999996,
      "d": 810.7353541666525,
      "v": 127
    },
    {
      "midi": 63,
      "hit": false,
      "t": 78773.19594791663,
      "d": 634.913229166661,
      "v": 127
    },
    {
      "midi": 55,
      "hit": false,
      "t": 79212.75126041663,
      "d": 463.9750520833186,
      "v": 127
    },
    {
      "midi": 55,
      "hit": false,
      "t": 79676.72631249994,
      "d": 376.06398958334466,
      "v": 127
    },
    {
      "midi": 63,
      "hit": false,
      "t": 79691.37815624995,
      "d": 249.08134375000373,
      "v": 127
    },
    {
      "midi": 51,
      "hit": false,
      "t": 79691.37815624995,
      "d": 273.5010833333363,
      "v": 127
    },
    {
      "midi": 58,
      "hit": false,
      "t": 79691.37815624995,
      "d": 302.80477083333244,
      "v": 127
    },
    {
      "midi": 55,
      "hit": false,
      "t": 80135.81741666663,
      "d": 24.419739583332557,
      "v": 127
    },
    {
      "midi": 58,
      "hit": false,
      "t": 80150.46926041663,
      "d": 820.5032499999943,
      "v": 127
    },
    {
      "midi": 62,
      "hit": false,
      "t": 80150.46926041663,
      "d": 820.5032499999943,
      "v": 127
    },
    {
      "midi": 55,
      "hit": false,
      "t": 80160.23715624996,
      "d": 766.7798229166656,
      "v": 127
    },
    {
      "midi": 50,
      "hit": false,
      "t": 80165.12110416662,
      "d": 859.5748333333322,
      "v": 127
    },
    {
      "midi": 55,
      "hit": false,
      "t": 80927.01697916663,
      "d": 156.2863333333371,
      "v": 127
    },
    {
      "midi": 50,
      "hit": false,
      "t": 81083.30331249996,
      "d": 249.08134374998917,
      "v": 127
    },
    {
      "midi": 55,
      "hit": false,
      "t": 81083.30331249996,
      "d": 302.80477083333244,
      "v": 127
    },
    {
      "midi": 58,
      "hit": false,
      "t": 81097.95515624997,
      "d": 9.767895833327202,
      "v": 127
    },
    {
      "midi": 58,
      "hit": false,
      "t": 81107.7230520833,
      "d": 322.3405625000014,
      "v": 127
    },
    {
      "midi": 62,
      "hit": false,
      "t": 81112.60699999996,
      "d": 258.8492395833309,
      "v": 127
    },
    {
      "midi": 57,
      "hit": false,
      "t": 81527.74257291663,
      "d": 19.535791666668956,
      "v": 127
    },
    {
      "midi": 60,
      "hit": false,
      "t": 81542.39441666663,
      "d": 4.883947916663601,
      "v": 127
    },
    {
      "midi": 53,
      "hit": false,
      "t": 81542.39441666663,
      "d": 879.1106250000012,
      "v": 127
    },
    {
      "midi": 57,
      "hit": false,
      "t": 81547.2783645833,
      "d": 913.2982604166755,
      "v": 127
    },
    {
      "midi": 60,
      "hit": false,
      "t": 81547.2783645833,
      "d": 913.2982604166755,
      "v": 127
    },
    {
      "midi": 65,
      "hit": false,
      "t": 81557.04626041662,
      "d": 849.806937500005,
      "v": 127
    },
    {
      "midi": 57,
      "hit": false,
      "t": 82475.22846874998,
      "d": 29.30368750001071,
      "v": 127
    },
    {
      "midi": 60,
      "hit": false,
      "t": 82489.88031249998,
      "d": 14.651843750005355,
      "v": 127
    },
    {
      "midi": 53,
      "hit": false,
      "t": 82489.88031249998,
      "d": 263.7331875000091,
      "v": 127
    },
    {
      "midi": 60,
      "hit": false,
      "t": 82504.53215624999,
      "d": 317.4566145833378,
      "v": 127
    },
    {
      "midi": 57,
      "hit": false,
      "t": 82504.53215624999,
      "d": 346.76030208333395,
      "v": 127
    },
    {
      "midi": 65,
      "hit": false,
      "t": 82509.41610416665,
      "d": 297.92082291666884,
      "v": 127
    },
    {
      "midi": 55,
      "hit": false,
      "t": 82963.62326041666,
      "d": 14.651843749990803,
      "v": 127
    },
    {
      "midi": 51,
      "hit": false,
      "t": 82963.62326041666,
      "d": 737.4761354166549,
      "v": 127
    },
    {
      "midi": 58,
      "hit": false,
      "t": 82968.50720833332,
      "d": 9.767895833327202,
      "v": 127
    },
    {
      "midi": 52,
      "hit": false,
      "t": 82978.27510416665,
      "d": 9.767895833327202,
      "v": 127
    },
    {
      "midi": 55,
      "hit": false,
      "t": 82978.27510416665,
      "d": 957.2537916666624,
      "v": 127
    },
    {
      "midi": 58,
      "hit": false,
      "t": 82978.27510416665,
      "d": 962.137739583326,
      "v": 127
    },
    {
      "midi": 63,
      "hit": false,
      "t": 82983.15905208331,
      "d": 1343.0856770833343,
      "v": 127
    },
    {
      "midi": 51,
      "hit": false,
      "t": 83769.47466666665,
      "d": 434.67136458332243,
      "v": 127
    },
    {
      "midi": 55,
      "hit": false,
      "t": 83935.52889583331,
      "d": 434.671364583337,
      "v": 127
    },
    {
      "midi": 58,
      "hit": false,
      "t": 83940.41284374997,
      "d": 415.135572916668,
      "v": 127
    },
    {
      "midi": 51,
      "hit": false,
      "t": 84218.79787499997,
      "d": 874.2266770833376,
      "v": 127
    },
    {
      "midi": 55,
      "hit": false,
      "t": 84384.85210416665,
      "d": 19.535791666654404,
      "v": 127
    },
    {
      "midi": 58,
      "hit": false,
      "t": 84394.61999999998,
      "d": 952.3698437499988,
      "v": 127
    },
    {
      "midi": 63,
      "hit": false,
      "t": 84399.50394791664,
      "d": 1255.1746145833313,
      "v": 127
    },
    {
      "midi": 55,
      "hit": false,
      "t": 84404.38789583331,
      "d": 942.6019479166716,
      "v": 127
    },
    {
      "midi": 51,
      "hit": false,
      "t": 85161.39982291665,
      "d": 420.0195208333316,
      "v": 127
    },
    {
      "midi": 55,
      "hit": false,
      "t": 85346.98984374998,
      "d": 302.80477083333244,
      "v": 127
    },
    {
      "midi": 58,
      "hit": false,
      "t": 85346.98984374998,
      "d": 322.34056249998685,
      "v": 127
    },
    {
      "midi": 55,
      "hit": false,
      "t": 85649.79461458331,
      "d": 170.9381770833279,
      "v": 127
    },
    {
      "midi": 51,
      "hit": false,
      "t": 85664.4464583333,
      "d": 835.1550937499997,
      "v": 127
    },
    {
      "midi": 58,
      "hit": false,
      "t": 85776.77726041664,
      "d": 48.839479166665114,
      "v": 127
    },
    {
      "midi": 63,
      "hit": false,
      "t": 85791.42910416664,
      "d": 1362.6214687499887,
      "v": 127
    },
    {
      "midi": 52,
      "hit": false,
      "t": 85820.73279166664,
      "d": 39.07158333332336,
      "v": 127
    },
    {
      "midi": 55,
      "hit": false,
      "t": 85820.73279166664,
      "d": 957.2537916666624,
      "v": 127
    },
    {
      "midi": 58,
      "hit": false,
      "t": 85825.6167395833,
      "d": 957.2537916666624,
      "v": 127
    },
    {
      "midi": 51,
      "hit": false,
      "t": 86582.62866666664,
      "d": 336.9924062499922,
      "v": 127
    },
    {
      "midi": 55,
      "hit": false,
      "t": 86777.9865833333,
      "d": 405.36767708332627,
      "v": 127
    },
    {
      "midi": 58,
      "hit": false,
      "t": 86782.87053124997,
      "d": 400.48372916666267,
      "v": 127
    },
    {
      "midi": 51,
      "hit": false,
      "t": 87085.6753020833,
      "d": 1533.5596458333312,
      "v": 127
    },
    {
      "midi": 55,
      "hit": false,
      "t": 87212.65794791662,
      "d": 39.07158333332336,
      "v": 127
    },
    {
      "midi": 58,
      "hit": false,
      "t": 87217.54189583329,
      "d": 39.07158333332336,
      "v": 127
    },
    {
      "midi": 63,
      "hit": false,
      "t": 87222.42584374995,
      "d": 1216.1030312499934,
      "v": 127
    },
    {
      "midi": 55,
      "hit": false,
      "t": 87251.72953124995,
      "d": 1372.389364583345,
      "v": 127
    },
    {
      "midi": 58,
      "hit": false,
      "t": 87256.61347916661,
      "d": 1347.9696250000125,
      "v": 127
    },
    {
      "midi": 65,
      "hit": false,
      "t": 88589.93126041662,
      "d": 2031.7223333333386,
      "v": 127
    },
    {
      "midi": 61,
      "hit": false,
      "t": 88604.58310416662,
      "d": 2031.7223333333386,
      "v": 127
    },
    {
      "midi": 58,
      "hit": false,
      "t": 88604.58310416662,
      "d": 2046.374177083344,
      "v": 127
    },
    {
      "midi": 58,
      "hit": false,
      "t": 90489.78700000004,
      "d": 752.1279791666602,
      "v": 99
    },
    {
      "midi": 61,
      "hit": false,
      "t": 90958.64600000004,
      "d": 239.31344791666197,
      "v": 96
    },
    {
      "midi": 65,
      "hit": false,
      "t": 90958.64600000004,
      "d": 263.73318749999453,
      "v": 92
    },
    {
      "midi": 46,
      "hit": false,
      "t": 90958.64600000004,
      "d": 527.4663750000036,
      "v": 107
    },
    {
      "midi": 58,
      "hit": false,
      "t": 91427.50500000003,
      "d": 58.60737500000687,
      "v": 99
    },
    {
      "midi": 51,
      "hit": false,
      "t": 91427.50500000003,
      "d": 1230.7548750000133,
      "v": 106
    },
    {
      "midi": 55,
      "hit": false,
      "t": 91427.50500000003,
      "d": 1318.6659375000163,
      "v": 102
    },
    {
      "midi": 58,
      "hit": false,
      "t": 91486.11237500004,
      "d": 1347.9696250000125,
      "v": 99
    },
    {
      "midi": 63,
      "hit": false,
      "t": 91486.11237500004,
      "d": 1655.6583437500085,
      "v": 94
    },
    {
      "midi": 51,
      "hit": false,
      "t": 92658.25987500005,
      "d": 2691.0553020833468,
      "v": 106
    },
    {
      "midi": 58,
      "hit": false,
      "t": 92834.08200000005,
      "d": 468.85899999999674,
      "v": 99
    },
    {
      "midi": 55,
      "hit": false,
      "t": 92834.08200000005,
      "d": 1308.89804166666,
      "v": 102
    },
    {
      "midi": 60,
      "hit": false,
      "t": 93244.33362500004,
      "d": 527.4663750000036,
      "v": 97
    },
    {
      "midi": 58,
      "hit": false,
      "t": 93302.94100000005,
      "d": 791.1995624999981,
      "v": 99
    },
    {
      "midi": 46,
      "hit": false,
      "t": 93771.80000000005,
      "d": 410.2516250000044,
      "v": 107
    },
    {
      "midi": 61,
      "hit": false,
      "t": 93771.80000000005,
      "d": 429.7874166666734,
      "v": 96
    },
    {
      "midi": 63,
      "hit": false,
      "t": 93771.80000000005,
      "d": 1831.4804687500146,
      "v": 94
    },
    {
      "midi": 44,
      "hit": false,
      "t": 94182.05162500005,
      "d": 2871.7613750000164,
      "v": 107
    },
    {
      "midi": 56,
      "hit": false,
      "t": 94240.65900000006,
      "d": 1406.5770000000048,
      "v": 101
    },
    {
      "midi": 60,
      "hit": false,
      "t": 94240.65900000006,
      "d": 1406.5770000000048,
      "v": 97
    },
    {
      "midi": 51,
      "hit": false,
      "t": 95471.41387500006,
      "d": 1279.5943541666784,
      "v": 106
    },
    {
      "midi": 60,
      "hit": false,
      "t": 95647.23600000006,
      "d": 468.8590000000113,
      "v": 97
    },
    {
      "midi": 56,
      "hit": false,
      "t": 95647.23600000006,
      "d": 937.718000000008,
      "v": 101
    },
    {
      "midi": 63,
      "hit": false,
      "t": 95705.84337500007,
      "d": 996.3253750000003,
      "v": 94
    },
    {
      "midi": 60,
      "hit": false,
      "t": 96116.09500000007,
      "d": 703.2884999999951,
      "v": 97
    },
    {
      "midi": 56,
      "hit": false,
      "t": 96584.95400000007,
      "d": 468.85899999999674,
      "v": 101
    },
    {
      "midi": 53,
      "hit": false,
      "t": 97053.81300000007,
      "d": 1123.3080208333267,
      "v": 104
    },
    {
      "midi": 65,
      "hit": false,
      "t": 97053.81300000007,
      "d": 1264.9425104166585,
      "v": 92
    },
    {
      "midi": 49,
      "hit": false,
      "t": 97053.81300000007,
      "d": 1406.5769999999902,
      "v": 107
    },
    {
      "midi": 56,
      "hit": false,
      "t": 97053.81300000007,
      "d": 1406.5769999999902,
      "v": 101
    },
    {
      "midi": 61,
      "hit": false,
      "t": 97053.81300000007,
      "d": 1406.5769999999902,
      "v": 96
    },
    {
      "midi": 53,
      "hit": false,
      "t": 98284.56787500007,
      "d": 1333.3177812499925,
      "v": 104
    },
    {
      "midi": 61,
      "hit": false,
      "t": 98460.39000000006,
      "d": 468.85899999999674,
      "v": 96
    },
    {
      "midi": 56,
      "hit": false,
      "t": 98460.39000000006,
      "d": 937.7179999999935,
      "v": 101
    },
    {
      "midi": 49,
      "hit": false,
      "t": 98460.39000000006,
      "d": 991.4414270833222,
      "v": 107
    },
    {
      "midi": 65,
      "hit": false,
      "t": 98460.39000000006,
      "d": 1006.0932708333276,
      "v": 92
    },
    {
      "midi": 61,
      "hit": false,
      "t": 98929.24900000005,
      "d": 800.9674583333399,
      "v": 96
    },
    {
      "midi": 56,
      "hit": false,
      "t": 99398.10800000005,
      "d": 410.2516250000044,
      "v": 101
    },
    {
      "midi": 44,
      "hit": false,
      "t": 99398.10800000005,
      "d": 468.8590000000113,
      "v": 107
    },
    {
      "midi": 42,
      "hit": false,
      "t": 99808.35962500006,
      "d": 2739.8947812500264,
      "v": 107
    },
    {
      "midi": 54,
      "hit": false,
      "t": 99866.96700000006,
      "d": 1230.7548749999987,
      "v": 103
    },
    {
      "midi": 61,
      "hit": false,
      "t": 99866.96700000006,
      "d": 1313.7819895833381,
      "v": 96
    },
    {
      "midi": 58,
      "hit": false,
      "t": 99866.96700000006,
      "d": 1362.6214687500033,
      "v": 99
    },
    {
      "midi": 54,
      "hit": false,
      "t": 101097.72187500006,
      "d": 175.82212500000605,
      "v": 103
    },
    {
      "midi": 58,
      "hit": false,
      "t": 101273.54400000007,
      "d": 58.60737500000687,
      "v": 99
    },
    {
      "midi": 61,
      "hit": false,
      "t": 101273.54400000007,
      "d": 58.60737500000687,
      "v": 96
    },
    {
      "midi": 54,
      "hit": false,
      "t": 101273.54400000007,
      "d": 1054.9327500000072,
      "v": 103
    },
    {
      "midi": 58,
      "hit": false,
      "t": 101332.15137500007,
      "d": 1050.048802083329,
      "v": 99
    },
    {
      "midi": 61,
      "hit": false,
      "t": 101332.15137500007,
      "d": 1172.1475000000064,
      "v": 96
    },
    {
      "midi": 46,
      "hit": false,
      "t": 102445.69150000007,
      "d": 229.54555208333477,
      "v": 107
    },
    {
      "midi": 59,
      "hit": false,
      "t": 102680.12100000007,
      "d": 9.767895833327202,
      "v": 98
    },
    {
      "midi": 60,
      "hit": false,
      "t": 102680.12100000007,
      "d": 9.767895833327202,
      "v": 97
    },
    {
      "midi": 51,
      "hit": false,
      "t": 102680.12100000007,
      "d": 1230.7548749999987,
      "v": 106
    },
    {
      "midi": 66,
      "hit": false,
      "t": 102680.12100000007,
      "d": 1255.1746145833313,
      "v": 91
    },
    {
      "midi": 54,
      "hit": false,
      "t": 102680.12100000007,
      "d": 1260.0585624999949,
      "v": 103
    },
    {
      "midi": 61,
      "hit": false,
      "t": 102680.12100000007,
      "d": 1304.0140937499964,
      "v": 96
    },
    {
      "midi": 63,
      "hit": false,
      "t": 102680.12100000007,
      "d": 1304.0140937499964,
      "v": 94
    },
    {
      "midi": 58,
      "hit": false,
      "t": 102680.12100000007,
      "d": 1406.5770000000048,
      "v": 99
    },
    {
      "midi": 51,
      "hit": false,
      "t": 103910.87587500007,
      "d": 117.21474999999919,
      "v": 106
    },
    {
      "midi": 51,
      "hit": false,
      "t": 104028.09062500007,
      "d": 1103.7722291666723,
      "v": 106
    },
    {
      "midi": 63,
      "hit": false,
      "t": 104086.69800000008,
      "d": 468.85899999999674,
      "v": 94
    },
    {
      "midi": 58,
      "hit": false,
      "t": 104086.69800000008,
      "d": 937.7179999999935,
      "v": 99
    },
    {
      "midi": 54,
      "hit": false,
      "t": 104086.69800000008,
      "d": 957.2537916666624,
      "v": 103
    },
    {
      "midi": 66,
      "hit": false,
      "t": 104086.69800000008,
      "d": 1098.8882812499942,
      "v": 91
    },
    {
      "midi": 63,
      "hit": false,
      "t": 104555.55700000007,
      "d": 947.4858958333207,
      "v": 94
    },
    {
      "midi": 58,
      "hit": false,
      "t": 105024.41600000007,
      "d": 332.1084583333286,
      "v": 99
    },
    {
      "midi": 46,
      "hit": false,
      "t": 105024.41600000007,
      "d": 503.0466354166565,
      "v": 107
    },
    {
      "midi": 53,
      "hit": false,
      "t": 105493.27500000007,
      "d": 1030.51301041666,
      "v": 104
    },
    {
      "midi": 65,
      "hit": false,
      "t": 105493.27500000007,
      "d": 1338.2017291666707,
      "v": 92
    },
    {
      "midi": 57,
      "hit": false,
      "t": 105493.27500000007,
      "d": 1343.0856770833343,
      "v": 100
    },
    {
      "midi": 60,
      "hit": false,
      "t": 105493.27500000007,
      "d": 1382.1572604166722,
      "v": 97
    },
    {
      "midi": 41,
      "hit": false,
      "t": 105493.27500000007,
      "d": 2705.707145833352,
      "v": 107
    },
    {
      "midi": 53,
      "hit": false,
      "t": 106724.02987500007,
      "d": 1328.4338333333435,
      "v": 104
    },
    {
      "midi": 57,
      "hit": false,
      "t": 106899.85200000007,
      "d": 1172.1475000000064,
      "v": 100
    },
    {
      "midi": 60,
      "hit": false,
      "t": 106899.85200000007,
      "d": 1245.4067187500186,
      "v": 97
    },
    {
      "midi": 65,
      "hit": false,
      "t": 106899.85200000007,
      "d": 1255.1746145833458,
      "v": 92
    },
    {
      "midi": 57,
      "hit": false,
      "t": 108071.99950000008,
      "d": 234.42950000001292,
      "v": 100
    },
    {
      "midi": 53,
      "hit": false,
      "t": 108130.60687500008,
      "d": 175.82212500000605,
      "v": 104
    },
    {
      "midi": 48,
      "hit": false,
      "t": 108130.60687500008,
      "d": 297.92082291666884,
      "v": 107
    },
    {
      "midi": 65,
      "hit": false,
      "t": 108306.42900000009,
      "d": 1279.5943541666638,
      "v": 92
    },
    {
      "midi": 53,
      "hit": false,
      "t": 108306.42900000009,
      "d": 1289.362249999991,
      "v": 104
    },
    {
      "midi": 60,
      "hit": false,
      "t": 108306.42900000009,
      "d": 1362.6214687499887,
      "v": 97
    },
    {
      "midi": 57,
      "hit": false,
      "t": 108306.42900000009,
      "d": 1406.5769999999902,
      "v": 100
    },
    {
      "midi": 53,
      "hit": false,
      "t": 109595.79125000008,
      "d": 117.21474999999919,
      "v": 104
    },
    {
      "midi": 60,
      "hit": false,
      "t": 109713.00600000008,
      "d": 468.85899999999674,
      "v": 97
    },
    {
      "midi": 57,
      "hit": false,
      "t": 109713.00600000008,
      "d": 937.7179999999935,
      "v": 100
    },
    {
      "midi": 65,
      "hit": false,
      "t": 109713.00600000008,
      "d": 1328.4338333333144,
      "v": 92
    },
    {
      "midi": 53,
      "hit": false,
      "t": 109713.00600000008,
      "d": 2515.2331770833116,
      "v": 104
    },
    {
      "midi": 60,
      "hit": false,
      "t": 110181.86500000008,
      "d": 468.85899999999674,
      "v": 97
    },
    {
      "midi": 63,
      "hit": false,
      "t": 110181.86500000008,
      "d": 849.8069374999905,
      "v": 94
    },
    {
      "midi": 60,
      "hit": false,
      "t": 110650.72400000007,
      "d": 332.1084583333286,
      "v": 97
    },
    {
      "midi": 57,
      "hit": false,
      "t": 110650.72400000007,
      "d": 356.52819791666116,
      "v": 100
    },
    {
      "midi": 48,
      "hit": false,
      "t": 110650.72400000007,
      "d": 420.0195208333171,
      "v": 107
    },
    {
      "midi": 58,
      "hit": false,
      "t": 111060.97562500006,
      "d": 1465.1843749999825,
      "v": 99
    },
    {
      "midi": 46,
      "hit": false,
      "t": 111060.97562500006,
      "d": 2871.7613749999873,
      "v": 107
    },
    {
      "midi": 61,
      "hit": false,
      "t": 111119.58300000006,
      "d": 1343.0856770833343,
      "v": 96
    },
    {
      "midi": 65,
      "hit": false,
      "t": 111119.58300000006,
      "d": 1352.8535729166615,
      "v": 92
    },
    {
      "midi": 53,
      "hit": false,
      "t": 112350.33787500006,
      "d": 1450.5325312499917,
      "v": 104
    },
    {
      "midi": 61,
      "hit": false,
      "t": 112526.16000000005,
      "d": 58.60737500000687,
      "v": 96
    },
    {
      "midi": 65,
      "hit": false,
      "t": 112526.16000000005,
      "d": 1147.7277604166738,
      "v": 92
    },
    {
      "midi": 58,
      "hit": false,
      "t": 112526.16000000005,
      "d": 1220.9869791666715,
      "v": 99
    },
    {
      "midi": 61,
      "hit": false,
      "t": 112584.76737500005,
      "d": 1123.3080208333267,
      "v": 96
    },
    {
      "midi": 51,
      "hit": false,
      "t": 113932.73700000005,
      "d": 1113.5401249999995,
      "v": 106
    },
    {
      "midi": 63,
      "hit": false,
      "t": 113932.73700000005,
      "d": 1352.8535729166615,
      "v": 94
    },
    {
      "midi": 55,
      "hit": false,
      "t": 113932.73700000005,
      "d": 1387.0412083333213,
      "v": 102
    },
    {
      "midi": 58,
      "hit": false,
      "t": 113932.73700000005,
      "d": 1387.0412083333213,
      "v": 99
    },
    {
      "midi": 39,
      "hit": false,
      "t": 113932.73700000005,
      "d": 1474.9522708333243,
      "v": 107
    },
    {
      "midi": 51,
      "hit": false,
      "t": 115163.49187500005,
      "d": 2681.2874062499614,
      "v": 106
    },
    {
      "midi": 58,
      "hit": false,
      "t": 115339.31400000004,
      "d": 468.85899999999674,
      "v": 99
    },
    {
      "midi": 46,
      "hit": false,
      "t": 115339.31400000004,
      "d": 488.3947916666657,
      "v": 107
    },
    {
      "midi": 55,
      "hit": false,
      "t": 115339.31400000004,
      "d": 937.7179999999935,
      "v": 102
    },
    {
      "midi": 63,
      "hit": false,
      "t": 115339.31400000004,
      "d": 2749.66267708331,
      "v": 94
    },
    {
      "midi": 60,
      "hit": false,
      "t": 115808.17300000004,
      "d": 463.97505208333314,
      "v": 97
    },
    {
      "midi": 48,
      "hit": false,
      "t": 115808.17300000004,
      "d": 493.2787395833293,
      "v": 107
    },
    {
      "midi": 58,
      "hit": false,
      "t": 115808.17300000004,
      "d": 537.2342708333308,
      "v": 99
    },
    {
      "midi": 49,
      "hit": false,
      "t": 116218.42462500004,
      "d": 512.8145312499837,
      "v": 107
    },
    {
      "midi": 55,
      "hit": false,
      "t": 116277.03200000004,
      "d": 356.52819791666116,
      "v": 102
    },
    {
      "midi": 61,
      "hit": false,
      "t": 116277.03200000004,
      "d": 459.091104166655,
      "v": 96
    },
    {
      "midi": 60,
      "hit": false,
      "t": 116745.89100000002,
      "d": 1396.809104166663,
      "v": 97
    },
    {
      "midi": 56,
      "hit": false,
      "t": 116745.89100000002,
      "d": 1406.5769999999902,
      "v": 101
    },
    {
      "midi": 44,
      "hit": false,
      "t": 116745.89100000002,
      "d": 2847.3416354166548,
      "v": 107
    },
    {
      "midi": 51,
      "hit": false,
      "t": 117976.64587500002,
      "d": 1387.0412083333358,
      "v": 106
    },
    {
      "midi": 56,
      "hit": false,
      "t": 118152.46800000001,
      "d": 58.60737500000687,
      "v": 101
    },
    {
      "midi": 60,
      "hit": false,
      "t": 118152.46800000001,
      "d": 58.60737500000687,
      "v": 97
    },
    {
      "midi": 60,
      "hit": false,
      "t": 118211.07537500001,
      "d": 1220.9869791666715,
      "v": 97
    },
    {
      "midi": 63,
      "hit": false,
      "t": 118211.07537500001,
      "d": 1269.8264583333366,
      "v": 94
    },
    {
      "midi": 56,
      "hit": false,
      "t": 118211.07537500001,
      "d": 1347.969624999998,
      "v": 101
    },
    {
      "midi": 53,
      "hit": false,
      "t": 119559.04500000001,
      "d": 1079.3524895833252,
      "v": 104
    },
    {
      "midi": 65,
      "hit": false,
      "t": 119559.04500000001,
      "d": 1284.4783020833274,
      "v": 92
    },
    {
      "midi": 61,
      "hit": false,
      "t": 119559.04500000001,
      "d": 1377.273312499994,
      "v": 96
    },
    {
      "midi": 56,
      "hit": false,
      "t": 119559.04500000001,
      "d": 1406.5769999999902,
      "v": 101
    },
    {
      "midi": 49,
      "hit": false,
      "t": 119559.04500000001,
      "d": 1929.1594270833157,
      "v": 107
    },
    {
      "midi": 53,
      "hit": false,
      "t": 120789.79987500001,
      "d": 1269.8264583333075,
      "v": 104
    },
    {
      "midi": 61,
      "hit": false,
      "t": 120965.622,
      "d": 468.85899999999674,
      "v": 96
    },
    {
      "midi": 56,
      "hit": false,
      "t": 120965.622,
      "d": 879.1106249999866,
      "v": 101
    },
    {
      "midi": 65,
      "hit": false,
      "t": 120965.622,
      "d": 1054.9327499999781,
      "v": 92
    },
    {
      "midi": 44,
      "hit": false,
      "t": 121434.481,
      "d": 463.9750520833186,
      "v": 107
    },
    {
      "midi": 61,
      "hit": false,
      "t": 121434.481,
      "d": 786.31561458332,
      "v": 96
    },
    {
      "midi": 56,
      "hit": false,
      "t": 121844.73262499999,
      "d": 380.9479374999937,
      "v": 101
    },
    {
      "midi": 41,
      "hit": false,
      "t": 121844.73262499999,
      "d": 522.5824270833255,
      "v": 107
    },
    {
      "midi": 58,
      "hit": false,
      "t": 122313.59162499999,
      "d": 58.60737499999232,
      "v": 99
    },
    {
      "midi": 61,
      "hit": false,
      "t": 122313.59162499999,
      "d": 58.60737499999232,
      "v": 96
    },
    {
      "midi": 54,
      "hit": false,
      "t": 122313.59162499999,
      "d": 1289.362249999991,
      "v": 103
    },
    {
      "midi": 61,
      "hit": false,
      "t": 122372.19899999998,
      "d": 1343.0856770833343,
      "v": 96
    },
    {
      "midi": 58,
      "hit": false,
      "t": 122372.19899999998,
      "d": 1377.273312499994,
      "v": 99
    },
    {
      "midi": 42,
      "hit": false,
      "t": 122372.19899999998,
      "d": 2847.3416354166548,
      "v": 107
    },
    {
      "midi": 54,
      "hit": false,
      "t": 123602.95387499998,
      "d": 175.8221249999915,
      "v": 103
    },
    {
      "midi": 58,
      "hit": false,
      "t": 123778.77599999997,
      "d": 1113.5401249999995,
      "v": 99
    },
    {
      "midi": 54,
      "hit": false,
      "t": 123778.77599999997,
      "d": 1133.0759166666685,
      "v": 103
    },
    {
      "midi": 61,
      "hit": false,
      "t": 123778.77599999997,
      "d": 1196.567239583339,
      "v": 96
    },
    {
      "midi": 51,
      "hit": false,
      "t": 125185.35299999997,
      "d": 58.60737499999232,
      "v": 106
    },
    {
      "midi": 58,
      "hit": false,
      "t": 125185.35299999997,
      "d": 58.60737499999232,
      "v": 99
    },
    {
      "midi": 51,
      "hit": false,
      "t": 125243.96037499997,
      "d": 1172.1475000000064,
      "v": 106
    },
    {
      "midi": 54,
      "hit": false,
      "t": 125243.96037499997,
      "d": 1191.6832916666754,
      "v": 103
    },
    {
      "midi": 66,
      "hit": false,
      "t": 125243.96037499997,
      "d": 1264.942510416673,
      "v": 91
    },
    {
      "midi": 58,
      "hit": false,
      "t": 125243.96037499997,
      "d": 1347.9696250000125,
      "v": 99
    },
    {
      "midi": 63,
      "hit": false,
      "t": 125243.96037499997,
      "d": 1347.9696250000125,
      "v": 94
    },
    {
      "midi": 61,
      "hit": false,
      "t": 125243.96037499997,
      "d": 1367.5054166666814,
      "v": 96
    },
    {
      "midi": 51,
      "hit": false,
      "t": 126416.10787499997,
      "d": 175.82212500000605,
      "v": 106
    },
    {
      "midi": 63,
      "hit": false,
      "t": 126591.92999999998,
      "d": 468.85899999999674,
      "v": 94
    },
    {
      "midi": 54,
      "hit": false,
      "t": 126591.92999999998,
      "d": 932.8340520833299,
      "v": 103
    },
    {
      "midi": 58,
      "hit": false,
      "t": 126591.92999999998,
      "d": 937.7179999999935,
      "v": 99
    },
    {
      "midi": 66,
      "hit": false,
      "t": 126591.92999999998,
      "d": 1040.2809062499873,
      "v": 91
    },
    {
      "midi": 51,
      "hit": false,
      "t": 126591.92999999998,
      "d": 1421.2288437499956,
      "v": 106
    },
    {
      "midi": 63,
      "hit": false,
      "t": 127060.78899999998,
      "d": 615.3774374999921,
      "v": 94
    },
    {
      "midi": 58,
      "hit": false,
      "t": 127529.64799999997,
      "d": 322.3405625000014,
      "v": 99
    },
    {
      "midi": 41,
      "hit": false,
      "t": 127998.50699999997,
      "d": 29.30368750001071,
      "v": 107
    },
    {
      "midi": 53,
      "hit": false,
      "t": 127998.50699999997,
      "d": 1045.16485416668,
      "v": 104
    },
    {
      "midi": 60,
      "hit": false,
      "t": 127998.50699999997,
      "d": 1352.853572916676,
      "v": 97
    },
    {
      "midi": 57,
      "hit": false,
      "t": 127998.50699999997,
      "d": 1357.7375208333397,
      "v": 100
    },
    {
      "midi": 65,
      "hit": false,
      "t": 127998.50699999997,
      "d": 1406.5770000000048,
      "v": 92
    },
    {
      "midi": 41,
      "hit": false,
      "t": 128027.81068749998,
      "d": 1377.273312499994,
      "v": 127
    },
    {
      "midi": 53,
      "hit": false,
      "t": 129229.26187499998,
      "d": 1582.3991249999672,
      "v": 104
    },
    {
      "midi": 41,
      "hit": false,
      "t": 129405.08399999997,
      "d": 1308.8980416666454,
      "v": 107
    },
    {
      "midi": 65,
      "hit": false,
      "t": 129405.08399999997,
      "d": 1352.853572916647,
      "v": 92
    },
    {
      "midi": 57,
      "hit": false,
      "t": 129405.08399999997,
      "d": 1406.5769999999757,
      "v": 100
    },
    {
      "midi": 60,
      "hit": false,
      "t": 129405.08399999997,
      "d": 1406.5769999999757,
      "v": 97
    },
    {
      "midi": 43,
      "hit": false,
      "t": 129409.96794791664,
      "d": 1445.6485833333136,
      "v": 127
    },
    {
      "midi": 69,
      "hit": false,
      "t": 129873.94299999997,
      "d": 488.3947916666657,
      "v": 88
    },
    {
      "midi": 72,
      "hit": false,
      "t": 130342.80199999997,
      "d": 239.31344791666197,
      "v": 85
    },
    {
      "midi": 48,
      "hit": false,
      "t": 130635.83887499996,
      "d": 263.73318749999453,
      "v": 107
    },
    {
      "midi": 45,
      "hit": false,
      "t": 130801.89310416662,
      "d": 1406.5769999999757,
      "v": 127
    },
    {
      "midi": 53,
      "hit": false,
      "t": 130811.66099999995,
      "d": 1230.7548749999987,
      "v": 104
    },
    {
      "midi": 77,
      "hit": false,
      "t": 130811.66099999995,
      "d": 1269.8264583333366,
      "v": 80
    },
    {
      "midi": 65,
      "hit": false,
      "t": 130811.66099999995,
      "d": 1347.9696250000125,
      "v": 92
    },
    {
      "midi": 60,
      "hit": false,
      "t": 130811.66099999995,
      "d": 1367.5054166666669,
      "v": 97
    },
    {
      "midi": 57,
      "hit": false,
      "t": 130811.66099999995,
      "d": 1377.273312499994,
      "v": 100
    },
    {
      "midi": 53,
      "hit": false,
      "t": 132042.41587499995,
      "d": 175.82212499997695,
      "v": 104
    },
    {
      "midi": 48,
      "hit": false,
      "t": 132179.16641666662,
      "d": 976.7895833333314,
      "v": 127
    },
    {
      "midi": 77,
      "hit": false,
      "t": 132218.23799999992,
      "d": 883.9945729166793,
      "v": 80
    },
    {
      "midi": 53,
      "hit": false,
      "t": 132218.23799999992,
      "d": 967.0216875000333,
      "v": 104
    },
    {
      "midi": 57,
      "hit": false,
      "t": 132218.23799999992,
      "d": 996.325375000044,
      "v": 100
    },
    {
      "midi": 60,
      "hit": false,
      "t": 132218.23799999992,
      "d": 996.325375000044,
      "v": 97
    },
    {
      "midi": 65,
      "hit": false,
      "t": 132218.23799999992,
      "d": 1264.9425104167312,
      "v": 92
    },
    {
      "midi": 77,
      "hit": false,
      "t": 133155.95599999995,
      "d": 454.2071562500496,
      "v": 80
    },
    {
      "midi": 48,
      "hit": false,
      "t": 133155.95599999995,
      "d": 503.0466354167438,
      "v": 107
    },
    {
      "midi": 53,
      "hit": false,
      "t": 133214.56337499997,
      "d": 249.08134375000373,
      "v": 104
    },
    {
      "midi": 57,
      "hit": false,
      "t": 133214.56337499997,
      "d": 263.7331875000091,
      "v": 100
    },
    {
      "midi": 60,
      "hit": false,
      "t": 133214.56337499997,
      "d": 268.61713541668723,
      "v": 97
    },
    {
      "midi": 58,
      "hit": false,
      "t": 133590.6273645833,
      "d": 34.18763541671797,
      "v": 127
    },
    {
      "midi": 62,
      "hit": false,
      "t": 133595.5113125,
      "d": 1250.2906666666968,
      "v": 127
    },
    {
      "midi": 65,
      "hit": false,
      "t": 133600.39526041667,
      "d": 1230.7548750000133,
      "v": 127
    },
    {
      "midi": 50,
      "hit": false,
      "t": 133605.27920833335,
      "d": 1201.4511875000026,
      "v": 127
    },
    {
      "midi": 53,
      "hit": false,
      "t": 133615.04710416668,
      "d": 2412.670270833303,
      "v": 127
    },
    {
      "midi": 53,
      "hit": false,
      "t": 133619.93105208335,
      "d": 908.4143125000119,
      "v": 127
    },
    {
      "midi": 46,
      "hit": false,
      "t": 133624.815,
      "d": 34.18763541668886,
      "v": 107
    },
    {
      "midi": 58,
      "hit": false,
      "t": 133624.815,
      "d": 58.60737500002142,
      "v": 99
    },
    {
      "midi": 62,
      "hit": false,
      "t": 133624.815,
      "d": 58.60737500002142,
      "v": 95
    },
    {
      "midi": 65,
      "hit": false,
      "t": 133624.815,
      "d": 58.60737500002142,
      "v": 92
    },
    {
      "midi": 58,
      "hit": false,
      "t": 133624.81500000003,
      "d": 971.9056354166532,
      "v": 127
    },
    {
      "midi": 50,
      "hit": false,
      "t": 133629.69894791668,
      "d": 2422.4381666666304,
      "v": 127
    },
    {
      "midi": 46,
      "hit": false,
      "t": 133659.0026354167,
      "d": 1372.3893645833014,
      "v": 127
    },
    {
      "midi": 58,
      "hit": false,
      "t": 133683.42237500002,
      "d": 1152.6117083333374,
      "v": 99
    },
    {
      "midi": 65,
      "hit": false,
      "t": 133683.42237500002,
      "d": 1206.3351354166516,
      "v": 92
    },
    {
      "midi": 62,
      "hit": false,
      "t": 133683.42237500002,
      "d": 1216.1030312499788,
      "v": 95
    },
    {
      "midi": 77,
      "hit": false,
      "t": 133683.42237500002,
      "d": 3462.7190729166323,
      "v": 80
    },
    {
      "midi": 58,
      "hit": false,
      "t": 134596.72063541668,
      "d": 249.08134375000373,
      "v": 127
    },
    {
      "midi": 53,
      "hit": false,
      "t": 134596.72063541668,
      "d": 317.45661458332324,
      "v": 127
    },
    {
      "midi": 58,
      "hit": false,
      "t": 134845.8019791667,
      "d": 83.02711458332487,
      "v": 127
    },
    {
      "midi": 58,
      "hit": false,
      "t": 134855.56987500002,
      "d": 175.82212499997695,
      "v": 99
    },
    {
      "midi": 50,
      "hit": false,
      "t": 134904.40935416668,
      "d": 971.9056354166532,
      "v": 127
    },
    {
      "midi": 58,
      "hit": false,
      "t": 134997.20436458333,
      "d": 39.07158333333791,
      "v": 127
    },
    {
      "midi": 65,
      "hit": false,
      "t": 135026.50805208334,
      "d": 766.7798229166656,
      "v": 127
    },
    {
      "midi": 53,
      "hit": false,
      "t": 135026.50805208334,
      "d": 810.7353541666525,
      "v": 127
    },
    {
      "midi": 62,
      "hit": false,
      "t": 135026.50805208334,
      "d": 820.5032499999797,
      "v": 127
    },
    {
      "midi": 58,
      "hit": false,
      "t": 135031.392,
      "d": 937.7179999999935,
      "v": 99
    },
    {
      "midi": 62,
      "hit": false,
      "t": 135031.392,
      "d": 937.7179999999935,
      "v": 95
    },
    {
      "midi": 65,
      "hit": false,
      "t": 135031.392,
      "d": 937.7179999999935,
      "v": 92
    },
    {
      "midi": 46,
      "hit": false,
      "t": 135031.392,
      "d": 996.3253749999858,
      "v": 107
    },
    {
      "midi": 59,
      "hit": false,
      "t": 135036.27594791667,
      "d": 4.883947916678153,
      "v": 127
    },
    {
      "midi": 58,
      "hit": false,
      "t": 135036.27594791667,
      "d": 840.0390416666633,
      "v": 127
    },
    {
      "midi": 50,
      "hit": false,
      "t": 135920.27052083332,
      "d": 278.38503125004354,
      "v": 127
    },
    {
      "midi": 58,
      "hit": false,
      "t": 135949.57420833333,
      "d": 9.767895833327202,
      "v": 127
    },
    {
      "midi": 53,
      "hit": false,
      "t": 135949.57420833333,
      "d": 205.12581250001676,
      "v": 127
    },
    {
      "midi": 58,
      "hit": false,
      "t": 135959.34210416666,
      "d": 336.99240625003586,
      "v": 127
    },
    {
      "midi": 65,
      "hit": false,
      "t": 135969.11,
      "d": 278.38503124998533,
      "v": 92
    },
    {
      "midi": 62,
      "hit": false,
      "t": 135969.11,
      "d": 293.0368749999907,
      "v": 95
    },
    {
      "midi": 41,
      "hit": false,
      "t": 135969.11,
      "d": 493.2787395833293,
      "v": 107
    },
    {
      "midi": 58,
      "hit": false,
      "t": 135969.11,
      "d": 1289.3622500000056,
      "v": 99
    },
    {
      "midi": 62,
      "hit": false,
      "t": 135973.99394791666,
      "d": 195.35791666668956,
      "v": 127
    },
    {
      "midi": 65,
      "hit": false,
      "t": 135978.87789583334,
      "d": 146.51843749999534,
      "v": 127
    },
    {
      "midi": 58,
      "hit": false,
      "t": 136423.31715625004,
      "d": 29.303687500039814,
      "v": 127
    },
    {
      "midi": 51,
      "hit": false,
      "t": 136423.31715625004,
      "d": 752.1279791667184,
      "v": 127
    },
    {
      "midi": 55,
      "hit": false,
      "t": 136437.96900000004,
      "d": 4.883947916678153,
      "v": 127
    },
    {
      "midi": 55,
      "hit": false,
      "t": 136442.85294791672,
      "d": 1230.7548750000424,
      "v": 127
    },
    {
      "midi": 57,
      "hit": false,
      "t": 136447.7368958334,
      "d": 68.37527083334862,
      "v": 127
    },
    {
      "midi": 58,
      "hit": false,
      "t": 136452.62084375008,
      "d": 1240.5227708333405,
      "v": 127
    },
    {
      "midi": 63,
      "hit": false,
      "t": 136457.50479166675,
      "d": 1216.103031250008,
      "v": 127
    },
    {
      "midi": 55,
      "hit": false,
      "t": 137673.60782291676,
      "d": 166.05422916664975,
      "v": 127
    },
    {
      "midi": 51,
      "hit": false,
      "t": 137673.60782291676,
      "d": 556.7700624999707,
      "v": 127
    },
    {
      "midi": 58,
      "hit": false,
      "t": 137825.0102083334,
      "d": 4.883947916678153,
      "v": 127
    },
    {
      "midi": 63,
      "hit": false,
      "t": 137829.89415625008,
      "d": 400.4837291666481,
      "v": 127
    },
    {
      "midi": 58,
      "hit": false,
      "t": 137829.89415625008,
      "d": 410.2516249999753,
      "v": 127
    },
    {
      "midi": 55,
      "hit": false,
      "t": 137839.6620520834,
      "d": 415.1355729166535,
      "v": 127
    },
    {
      "midi": 55,
      "hit": false,
      "t": 138298.75315625005,
      "d": 4.883947916678153,
      "v": 127
    },
    {
      "midi": 58,
      "hit": false,
      "t": 138298.75315625005,
      "d": 19.535791666683508,
      "v": 127
    },
    {
      "midi": 55,
      "hit": false,
      "t": 138303.63710416673,
      "d": 649.5650729166518,
      "v": 127
    },
    {
      "midi": 51,
      "hit": false,
      "t": 138313.40500000006,
      "d": 586.0737500000105,
      "v": 127
    },
    {
      "midi": 63,
      "hit": false,
      "t": 138313.40500000006,
      "d": 595.8416458333377,
      "v": 127
    },
    {
      "midi": 58,
      "hit": false,
      "t": 138318.28894791674,
      "d": 634.9132291666465,
      "v": 127
    },
    {
      "midi": 57,
      "hit": false,
      "t": 139163.21193750005,
      "d": 92.79501041665208,
      "v": 127
    },
    {
      "midi": 50,
      "hit": false,
      "t": 139207.16746875003,
      "d": 722.8242916666495,
      "v": 127
    },
    {
      "midi": 53,
      "hit": false,
      "t": 139246.23905208337,
      "d": 53.723427083314164,
      "v": 127
    },
    {
      "midi": 57,
      "hit": false,
      "t": 139256.0069479167,
      "d": 957.2537916666479,
      "v": 127
    },
    {
      "midi": 62,
      "hit": false,
      "t": 139290.19458333336,
      "d": 1240.5227708333405,
      "v": 127
    },
    {
      "midi": 53,
      "hit": false,
      "t": 139299.9624791667,
      "d": 908.4143124999828,
      "v": 127
    },
    {
      "midi": 50,
      "hit": false,
      "t": 140027.67071875,
      "d": 556.7700624999998,
      "v": 127
    },
    {
      "midi": 53,
      "hit": false,
      "t": 140208.37679166667,
      "d": 293.0368750000198,
      "v": 127
    },
    {
      "midi": 57,
      "hit": false,
      "t": 140213.26073958335,
      "d": 327.22451041667955,
      "v": 127
    },
    {
      "midi": 53,
      "hit": false,
      "t": 140525.83340625002,
      "d": 122.09869791669189,
      "v": 127
    },
    {
      "midi": 57,
      "hit": false,
      "t": 140638.16420833336,
      "d": 9.767895833356306,
      "v": 127
    },
    {
      "midi": 50,
      "hit": false,
      "t": 140643.04815625004,
      "d": 888.8785208333284,
      "v": 127
    },
    {
      "midi": 53,
      "hit": false,
      "t": 140647.9321041667,
      "d": 942.6019479166425,
      "v": 127
    },
    {
      "midi": 57,
      "hit": false,
      "t": 140647.9321041667,
      "d": 942.6019479166425,
      "v": 127
    },
    {
      "midi": 62,
      "hit": false,
      "t": 140652.8160520834,
      "d": 405.36767708332627,
      "v": 127
    },
    {
      "midi": 62,
      "hit": false,
      "t": 141126.55900000004,
      "d": 708.1724479166442,
      "v": 127
    },
    {
      "midi": 50,
      "hit": false,
      "t": 141575.88220833335,
      "d": 332.1084583333286,
      "v": 127
    },
    {
      "midi": 53,
      "hit": false,
      "t": 141590.53405208336,
      "d": 288.15292708331253,
      "v": 127
    },
    {
      "midi": 57,
      "hit": false,
      "t": 141590.53405208336,
      "d": 332.1084583333286,
      "v": 127
    },
    {
      "midi": 55,
      "hit": false,
      "t": 142000.78567708336,
      "d": 34.18763541665976,
      "v": 127
    },
    {
      "midi": 51,
      "hit": false,
      "t": 142020.32146875001,
      "d": 1382.1572604166577,
      "v": 127
    },
    {
      "midi": 58,
      "hit": false,
      "t": 142034.97331250002,
      "d": 24.419739583332557,
      "v": 127
    },
    {
      "midi": 55,
      "hit": false,
      "t": 142034.97331250002,
      "d": 1416.3448958333174,
      "v": 127
    },
    {
      "midi": 58,
      "hit": false,
      "t": 142059.39305208335,
      "d": 1367.5054166666523,
      "v": 127
    },
    {
      "midi": 63,
      "hit": false,
      "t": 142064.27700000003,
      "d": 1318.6659374999872,
      "v": 127
    },
    {
      "midi": 51,
      "hit": false,
      "t": 143456.20215625002,
      "d": 864.4587812499958,
      "v": 127
    },
    {
      "midi": 55,
      "hit": false,
      "t": 143461.0861041667,
      "d": 14.651843750005355,
      "v": 127
    },
    {
      "midi": 58,
      "hit": false,
      "t": 143461.0861041667,
      "d": 34.18763541665976,
      "v": 127
    },
    {
      "midi": 55,
      "hit": false,
      "t": 143475.7379479167,
      "d": 449.32320833331323,
      "v": 127
    },
    {
      "midi": 63,
      "hit": false,
      "t": 143495.27373958335,
      "d": 586.0737499999814,
      "v": 127
    },
    {
      "midi": 58,
      "hit": false,
      "t": 143495.27373958335,
      "d": 752.1279791666602,
      "v": 127
    },
    {
      "midi": 55,
      "hit": false,
      "t": 143925.06115625,
      "d": 478.62689583332394,
      "v": 127
    },
    {
      "midi": 55,
      "hit": false,
      "t": 144403.68805208334,
      "d": 249.08134375003283,
      "v": 127
    },
    {
      "midi": 51,
      "hit": false,
      "t": 144403.68805208334,
      "d": 263.7331875000382,
      "v": 127
    },
    {
      "midi": 58,
      "hit": false,
      "t": 144408.57200000001,
      "d": 4.883947916678153,
      "v": 127
    },
    {
      "midi": 58,
      "hit": false,
      "t": 144413.4559479167,
      "d": 322.3405625000014,
      "v": 127
    },
    {
      "midi": 63,
      "hit": false,
      "t": 144418.33989583337,
      "d": 258.8492395833309,
      "v": 127
    },
    {
      "midi": 58,
      "hit": false,
      "t": 144857.89520833336,
      "d": 9.767895833356306,
      "v": 127
    },
    {
      "midi": 53,
      "hit": false,
      "t": 144862.77915625004,
      "d": 1308.8980416667182,
      "v": 127
    },
    {
      "midi": 58,
      "hit": false,
      "t": 144867.6631041667,
      "d": 1372.3893645833887,
      "v": 127
    },
    {
      "midi": 62,
      "hit": false,
      "t": 144872.5470520834,
      "d": 1352.8535729167052,
      "v": 127
    },
    {
      "midi": 65,
      "hit": false,
      "t": 144877.43100000007,
      "d": 1289.3622500000056,
      "v": 127
    },
    {
      "midi": 50,
      "hit": false,
      "t": 144877.43100000007,
      "d": 1323.5498854166945,
      "v": 127
    },
    {
      "midi": 50,
      "hit": false,
      "t": 146284.0080000001,
      "d": 1142.8438125000393,
      "v": 127
    },
    {
      "midi": 58,
      "hit": false,
      "t": 146288.89194791677,
      "d": 4.883947916678153,
      "v": 127
    },
    {
      "midi": 53,
      "hit": false,
      "t": 146288.89194791677,
      "d": 869.342729166674,
      "v": 127
    },
    {
      "midi": 58,
      "hit": false,
      "t": 146293.77589583345,
      "d": 781.4316666666709,
      "v": 127
    },
    {
      "midi": 62,
      "hit": false,
      "t": 146293.77589583345,
      "d": 796.0835104166763,
      "v": 127
    },
    {
      "midi": 65,
      "hit": false,
      "t": 146308.42773958345,
      "d": 752.1279791666602,
      "v": 127
    },
    {
      "midi": 59,
      "hit": false,
      "t": 146323.07958333346,
      "d": 9.767895833327202,
      "v": 127
    },
    {
      "midi": 58,
      "hit": false,
      "t": 147075.20756250012,
      "d": 170.9381770833279,
      "v": 127
    },
    {
      "midi": 53,
      "hit": false,
      "t": 147246.14573958344,
      "d": 166.05422916667885,
      "v": 127
    },
    {
      "midi": 58,
      "hit": false,
      "t": 147246.14573958344,
      "d": 258.84923958336003,
      "v": 127
    },
    {
      "midi": 62,
      "hit": false,
      "t": 147255.91363541677,
      "d": 234.42950000002747,
      "v": 127
    },
    {
      "midi": 65,
      "hit": false,
      "t": 147270.56547916678,
      "d": 263.7331875000382,
      "v": 127
    },
    {
      "midi": 53,
      "hit": false,
      "t": 147675.93315625016,
      "d": 1323.5498854166653,
      "v": 127
    },
    {
      "midi": 60,
      "hit": false,
      "t": 147690.58500000017,
      "d": 4.883947916678153,
      "v": 127
    },
    {
      "midi": 57,
      "hit": false,
      "t": 147690.58500000017,
      "d": 1362.6214687500033,
      "v": 127
    },
    {
      "midi": 60,
      "hit": false,
      "t": 147695.46894791684,
      "d": 942.6019479166716,
      "v": 127
    },
    {
      "midi": 65,
      "hit": false,
      "t": 147695.46894791684,
      "d": 1284.4783020833274,
      "v": 127
    },
    {
      "midi": 60,
      "hit": false,
      "t": 148638.07089583352,
      "d": 385.83188541664276,
      "v": 127
    },
    {
      "midi": 53,
      "hit": false,
      "t": 149067.85831250018,
      "d": 908.4143125000119,
      "v": 127
    },
    {
      "midi": 57,
      "hit": false,
      "t": 149072.74226041685,
      "d": 24.419739583332557,
      "v": 127
    },
    {
      "midi": 60,
      "hit": false,
      "t": 149077.62620833353,
      "d": 19.535791666654404,
      "v": 127
    },
    {
      "midi": 57,
      "hit": false,
      "t": 149097.1620000002,
      "d": 937.7180000000226,
      "v": 127
    },
    {
      "midi": 60,
      "hit": false,
      "t": 149097.1620000002,
      "d": 962.1377395833551,
      "v": 127
    },
    {
      "midi": 65,
      "hit": false,
      "t": 149097.1620000002,
      "d": 1015.8611666666984,
      "v": 127
    },
    {
      "midi": 53,
      "hit": false,
      "t": 150029.99605208353,
      "d": 180.7060729167133,
      "v": 127
    },
    {
      "midi": 57,
      "hit": false,
      "t": 150034.8800000002,
      "d": 146.51843750002445,
      "v": 127
    },
    {
      "midi": 60,
      "hit": false,
      "t": 150059.29973958354,
      "d": 83.02711458335398,
      "v": 127
    },
    {
      "midi": 55,
      "hit": false,
      "t": 150503.73900000023,
      "d": 14.651843750005355,
      "v": 127
    },
    {
      "midi": 58,
      "hit": false,
      "t": 150503.73900000023,
      "d": 29.30368750001071,
      "v": 127
    },
    {
      "midi": 55,
      "hit": false,
      "t": 150518.39084375024,
      "d": 766.7798229166656,
      "v": 127
    },
    {
      "midi": 62,
      "hit": false,
      "t": 150533.04268750024,
      "d": 776.5477187499928,
      "v": 127
    },
    {
      "midi": 58,
      "hit": false,
      "t": 150533.04268750024,
      "d": 903.5303645833337,
      "v": 127
    },
    {
      "midi": 50,
      "hit": false,
      "t": 150542.81058333357,
      "d": 1216.103031250008,
      "v": 127
    },
    {
      "midi": 55,
      "hit": false,
      "t": 151285.1706666669,
      "d": 136.75054166666814,
      "v": 127
    },
    {
      "midi": 55,
      "hit": false,
      "t": 151421.92120833357,
      "d": 351.6442500000121,
      "v": 127
    },
    {
      "midi": 58,
      "hit": false,
      "t": 151436.57305208358,
      "d": 29.30368750001071,
      "v": 127
    },
    {
      "midi": 58,
      "hit": false,
      "t": 151465.8767395836,
      "d": 317.45661458332324,
      "v": 127
    },
    {
      "midi": 62,
      "hit": false,
      "t": 151480.5285833336,
      "d": 219.77765624999302,
      "v": 127
    },
    {
      "midi": 57,
      "hit": false,
      "t": 151866.36046875024,
      "d": 14.651843750005355,
      "v": 127
    },
    {
      "midi": 53,
      "hit": false,
      "t": 151871.24441666692,
      "d": 888.8785208333575,
      "v": 127
    },
    {
      "midi": 57,
      "hit": false,
      "t": 151881.01231250024,
      "d": 908.414312500041,
      "v": 127
    },
    {
      "midi": 60,
      "hit": false,
      "t": 151885.89626041692,
      "d": 9.767895833327202,
      "v": 127
    },
    {
      "midi": 60,
      "hit": false,
      "t": 151895.66415625025,
      "d": 893.7624687500356,
      "v": 127
    },
    {
      "midi": 65,
      "hit": false,
      "t": 151900.54810416693,
      "d": 859.5748333333468,
      "v": 127
    },
    {
      "midi": 60,
      "hit": false,
      "t": 152843.15005208363,
      "d": 9.767895833356306,
      "v": 127
    },
    {
      "midi": 53,
      "hit": false,
      "t": 152843.15005208363,
      "d": 307.68871875005425,
      "v": 127
    },
    {
      "midi": 57,
      "hit": false,
      "t": 152848.0340000003,
      "d": 9.767895833356306,
      "v": 127
    },
    {
      "midi": 60,
      "hit": false,
      "t": 152852.91794791698,
      "d": 268.61713541668723,
      "v": 127
    },
    {
      "midi": 57,
      "hit": false,
      "t": 152857.80189583366,
      "d": 332.1084583333577,
      "v": 127
    },
    {
      "midi": 65,
      "hit": false,
      "t": 152862.68584375034,
      "d": 244.19739583332557,
      "v": 127
    },
    {
      "midi": 51,
      "hit": false,
      "t": 153287.58931250035,
      "d": 659.3329687500373,
      "v": 127
    },
    {
      "midi": 55,
      "hit": false,
      "t": 153302.24115625035,
      "d": 19.535791666683508,
      "v": 127
    },
    {
      "midi": 58,
      "hit": false,
      "t": 153316.89300000036,
      "d": 14.651843750034459,
      "v": 127
    },
    {
      "midi": 55,
      "hit": false,
      "t": 153321.77694791704,
      "d": 747.2440312500112,
      "v": 127
    },
    {
      "midi": 57,
      "hit": false,
      "t": 153326.66089583372,
      "d": 19.535791666683508,
      "v": 127
    },
    {
      "midi": 58,
      "hit": false,
      "t": 153331.5448437504,
      "d": 766.7798229166656,
      "v": 127
    },
    {
      "midi": 63,
      "hit": false,
      "t": 153336.42879166707,
      "d": 761.8958749999874,
      "v": 127
    },
    {
      "midi": 55,
      "hit": false,
      "t": 154069.02097916705,
      "d": 170.938177083357,
      "v": 127
    },
    {
      "midi": 51,
      "hit": false,
      "t": 154069.02097916705,
      "d": 527.4663750000182,
      "v": 127
    },
    {
      "midi": 58,
      "hit": false,
      "t": 154239.9591562504,
      "d": 24.419739583332557,
      "v": 127
    },
    {
      "midi": 55,
      "hit": false,
      "t": 154239.9591562504,
      "d": 429.7874166666588,
      "v": 127
    },
    {
      "midi": 58,
      "hit": false,
      "t": 154264.37889583374,
      "d": 361.4121458333393,
      "v": 127
    },
    {
      "midi": 63,
      "hit": false,
      "t": 154269.26284375042,
      "d": 317.45661458332324,
      "v": 127
    },
    {
      "midi": 55,
      "hit": false,
      "t": 154669.74657291707,
      "d": 498.16268750000745,
      "v": 127
    },
    {
      "midi": 58,
      "hit": false,
      "t": 154684.39841666707,
      "d": 39.07158333333791,
      "v": 127
    },
    {
      "midi": 51,
      "hit": false,
      "t": 154684.39841666707,
      "d": 874.226677083323,
      "v": 127
    },
    {
      "midi": 58,
      "hit": false,
      "t": 154723.4700000004,
      "d": 810.7353541666525,
      "v": 127
    },
    {
      "midi": 63,
      "hit": false,
      "t": 154728.3539479171,
      "d": 634.9132291666465,
      "v": 127
    },
    {
      "midi": 55,
      "hit": false,
      "t": 155167.90926041707,
      "d": 463.9750520833186,
      "v": 127
    },
    {
      "midi": 55,
      "hit": false,
      "t": 155631.8843125004,
      "d": 376.06398958334466,
      "v": 127
    },
    {
      "midi": 63,
      "hit": false,
      "t": 155646.5361562504,
      "d": 249.08134375000373,
      "v": 127
    },
    {
      "midi": 51,
      "hit": false,
      "t": 155646.5361562504,
      "d": 273.5010833333363,
      "v": 127
    },
    {
      "midi": 58,
      "hit": false,
      "t": 155646.5361562504,
      "d": 302.804770833347,
      "v": 127
    },
    {
      "midi": 55,
      "hit": false,
      "t": 156090.97541666706,
      "d": 24.419739583332557,
      "v": 127
    },
    {
      "midi": 58,
      "hit": false,
      "t": 156105.62726041707,
      "d": 820.5032499999797,
      "v": 127
    },
    {
      "midi": 62,
      "hit": false,
      "t": 156105.62726041707,
      "d": 820.5032499999797,
      "v": 127
    },
    {
      "midi": 55,
      "hit": false,
      "t": 156115.3951562504,
      "d": 766.7798229166656,
      "v": 127
    },
    {
      "midi": 50,
      "hit": false,
      "t": 156120.27910416707,
      "d": 859.5748333333177,
      "v": 127
    },
    {
      "midi": 55,
      "hit": false,
      "t": 156882.17497916706,
      "d": 156.28633333332255,
      "v": 127
    },
    {
      "midi": 50,
      "hit": false,
      "t": 157038.46131250038,
      "d": 249.08134375000373,
      "v": 127
    },
    {
      "midi": 55,
      "hit": false,
      "t": 157038.46131250038,
      "d": 302.804770833347,
      "v": 127
    },
    {
      "midi": 58,
      "hit": false,
      "t": 157053.1131562504,
      "d": 9.767895833327202,
      "v": 127
    },
    {
      "midi": 58,
      "hit": false,
      "t": 157062.8810520837,
      "d": 322.3405625000014,
      "v": 127
    },
    {
      "midi": 62,
      "hit": false,
      "t": 157067.7650000004,
      "d": 258.8492395833309,
      "v": 127
    },
    {
      "midi": 57,
      "hit": false,
      "t": 157482.90057291705,
      "d": 19.535791666683508,
      "v": 127
    },
    {
      "midi": 60,
      "hit": false,
      "t": 157497.55241666705,
      "d": 4.883947916678153,
      "v": 127
    },
    {
      "midi": 53,
      "hit": false,
      "t": 157497.55241666705,
      "d": 879.1106250000012,
      "v": 127
    },
    {
      "midi": 57,
      "hit": false,
      "t": 157502.43636458373,
      "d": 913.2982604166609,
      "v": 127
    },
    {
      "midi": 60,
      "hit": false,
      "t": 157502.43636458373,
      "d": 913.2982604166609,
      "v": 127
    },
    {
      "midi": 65,
      "hit": false,
      "t": 157512.20426041706,
      "d": 849.8069374999905,
      "v": 127
    },
    {
      "midi": 57,
      "hit": false,
      "t": 158430.3864687504,
      "d": 29.30368750001071,
      "v": 127
    },
    {
      "midi": 60,
      "hit": false,
      "t": 158445.0383125004,
      "d": 14.651843750005355,
      "v": 127
    },
    {
      "midi": 53,
      "hit": false,
      "t": 158445.0383125004,
      "d": 263.7331875000091,
      "v": 127
    },
    {
      "midi": 60,
      "hit": false,
      "t": 158459.6901562504,
      "d": 317.45661458335235,
      "v": 127
    },
    {
      "midi": 57,
      "hit": false,
      "t": 158459.6901562504,
      "d": 346.76030208336306,
      "v": 127
    },
    {
      "midi": 65,
      "hit": false,
      "t": 158464.57410416708,
      "d": 297.92082291666884,
      "v": 127
    },
    {
      "midi": 55,
      "hit": false,
      "t": 158918.7812604171,
      "d": 14.651843750005355,
      "v": 127
    },
    {
      "midi": 51,
      "hit": false,
      "t": 158918.7812604171,
      "d": 737.476135416684,
      "v": 127
    },
    {
      "midi": 58,
      "hit": false,
      "t": 158923.66520833378,
      "d": 9.767895833327202,
      "v": 127
    },
    {
      "midi": 52,
      "hit": false,
      "t": 158933.4331041671,
      "d": 9.767895833356306,
      "v": 127
    },
    {
      "midi": 55,
      "hit": false,
      "t": 158933.4331041671,
      "d": 957.253791666677,
      "v": 127
    },
    {
      "midi": 58,
      "hit": false,
      "t": 158933.4331041671,
      "d": 962.1377395833551,
      "v": 127
    },
    {
      "midi": 63,
      "hit": false,
      "t": 158938.3170520838,
      "d": 1343.0856770833489,
      "v": 127
    },
    {
      "midi": 51,
      "hit": false,
      "t": 159724.6326666671,
      "d": 434.6713645833661,
      "v": 127
    },
    {
      "midi": 55,
      "hit": false,
      "t": 159890.6868958338,
      "d": 434.6713645833661,
      "v": 127
    },
    {
      "midi": 58,
      "hit": false,
      "t": 159895.57084375047,
      "d": 415.1355729166826,
      "v": 127
    },
    {
      "midi": 51,
      "hit": false,
      "t": 160173.95587500048,
      "d": 874.2266770833521,
      "v": 127
    },
    {
      "midi": 55,
      "hit": false,
      "t": 160340.01010416716,
      "d": 19.535791666683508,
      "v": 127
    },
    {
      "midi": 58,
      "hit": false,
      "t": 160349.7780000005,
      "d": 952.3698437499988,
      "v": 127
    },
    {
      "midi": 63,
      "hit": false,
      "t": 160354.66194791716,
      "d": 1255.1746145833167,
      "v": 127
    },
    {
      "midi": 55,
      "hit": false,
      "t": 160359.54589583384,
      "d": 942.6019479166425,
      "v": 127
    },
    {
      "midi": 51,
      "hit": false,
      "t": 161116.55782291715,
      "d": 420.0195208333316,
      "v": 127
    },
    {
      "midi": 55,
      "hit": false,
      "t": 161302.14784375048,
      "d": 302.8047708333179,
      "v": 127
    },
    {
      "midi": 58,
      "hit": false,
      "t": 161302.14784375048,
      "d": 322.3405625000014,
      "v": 127
    },
    {
      "midi": 55,
      "hit": false,
      "t": 161604.9526145838,
      "d": 170.938177083357,
      "v": 127
    },
    {
      "midi": 51,
      "hit": false,
      "t": 161619.6044583338,
      "d": 835.1550937500142,
      "v": 127
    },
    {
      "midi": 58,
      "hit": false,
      "t": 161731.93526041714,
      "d": 48.83947916669422,
      "v": 127
    },
    {
      "midi": 63,
      "hit": false,
      "t": 161746.58710416715,
      "d": 1362.6214687500033,
      "v": 127
    },
    {
      "midi": 52,
      "hit": false,
      "t": 161775.89079166716,
      "d": 39.07158333333791,
      "v": 127
    },
    {
      "midi": 55,
      "hit": false,
      "t": 161775.89079166716,
      "d": 957.2537916666479,
      "v": 127
    },
    {
      "midi": 58,
      "hit": false,
      "t": 161780.77473958384,
      "d": 957.2537916666479,
      "v": 127
    },
    {
      "midi": 51,
      "hit": false,
      "t": 162537.78666666715,
      "d": 336.99240625000675,
      "v": 127
    },
    {
      "midi": 55,
      "hit": false,
      "t": 162733.1445833338,
      "d": 405.3676770833554,
      "v": 127
    },
    {
      "midi": 58,
      "hit": false,
      "t": 162738.0285312505,
      "d": 400.4837291666772,
      "v": 127
    },
    {
      "midi": 51,
      "hit": false,
      "t": 163040.83330208383,
      "d": 1533.5596458333603,
      "v": 127
    },
    {
      "midi": 55,
      "hit": false,
      "t": 163167.81594791717,
      "d": 39.071583333367016,
      "v": 127
    },
    {
      "midi": 58,
      "hit": false,
      "t": 163172.69989583385,
      "d": 39.071583333367016,
      "v": 127
    },
    {
      "midi": 63,
      "hit": false,
      "t": 163177.58384375053,
      "d": 1216.103031250008,
      "v": 127
    },
    {
      "midi": 55,
      "hit": false,
      "t": 163206.88753125054,
      "d": 1372.3893645833305,
      "v": 127
    },
    {
      "midi": 58,
      "hit": false,
      "t": 163211.77147916722,
      "d": 1377.2733124999795,
      "v": 127
    },
    {
      "midi": 50,
      "hit": false,
      "t": 164549.97320833334,
      "d": 34.18763541665976,
      "v": 127
    },
    {
      "midi": 69,
      "hit": false,
      "t": 164549.97320833334,
      "d": 1430.9967395833519,
      "v": 127
    },
    {
      "midi": 57,
      "hit": false,
      "t": 164554.85715625001,
      "d": 1289.3622499999765,
      "v": 127
    },
    {
      "midi": 74,
      "hit": false,
      "t": 164554.85715625001,
      "d": 1387.0412083333358,
      "v": 127
    },
    {
      "midi": 53,
      "hit": false,
      "t": 164564.62505208334,
      "d": 1294.2461979166546,
      "v": 127
    },
    {
      "midi": 77,
      "hit": false,
      "t": 164564.62505208334,
      "d": 1323.5498854166653,
      "v": 127
    },
    {
      "midi": 50,
      "hit": false,
      "t": 164584.16084375,
      "d": 1235.6388229166623,
      "v": 127
    },
    {
      "midi": 50,
      "hit": false,
      "t": 165819.79966666666,
      "d": 625.1453333334357,
      "v": 127
    },
    {
      "midi": 53,
      "hit": false,
      "t": 165980.9699479167,
      "d": 380.9479375000228,
      "v": 127
    },
    {
      "midi": 57,
      "hit": false,
      "t": 165985.85389583337,
      "d": 380.9479375000228,
      "v": 127
    },
    {
      "midi": 69,
      "hit": false,
      "t": 166000.50573958337,
      "d": 400.4837291667063,
      "v": 127
    },
    {
      "midi": 74,
      "hit": false,
      "t": 166010.2736354167,
      "d": 361.4121458333684,
      "v": 127
    },
    {
      "midi": 77,
      "hit": false,
      "t": 166024.9254791667,
      "d": 322.3405625000014,
      "v": 127
    },
    {
      "midi": 69,
      "hit": false,
      "t": 166430.2931562501,
      "d": 654.44902083333,
      "v": 127
    },
    {
      "midi": 74,
      "hit": false,
      "t": 166430.2931562501,
      "d": 849.8069375000196,
      "v": 127
    },
    {
      "midi": 50,
      "hit": false,
      "t": 166444.9450000001,
      "d": 781.4316666666709,
      "v": 127
    },
    {
      "midi": 77,
      "hit": false,
      "t": 166444.9450000001,
      "d": 805.8514062500035,
      "v": 127
    },
    {
      "midi": 57,
      "hit": false,
      "t": 166449.82894791677,
      "d": 805.8514062500035,
      "v": 127
    },
    {
      "midi": 53,
      "hit": false,
      "t": 166459.5968437501,
      "d": 752.1279791666602,
      "v": 127
    },
    {
      "midi": 69,
      "hit": false,
      "t": 167211.72482291676,
      "d": 107.44685416668653,
      "v": 127
    },
    {
      "midi": 51,
      "hit": false,
      "t": 167387.54694791677,
      "d": 1147.7277604166884,
      "v": 127
    },
    {
      "midi": 68,
      "hit": false,
      "t": 167402.19879166677,
      "d": 1133.075916666683,
      "v": 127
    },
    {
      "midi": 60,
      "hit": false,
      "t": 167407.08273958345,
      "d": 1240.5227708333405,
      "v": 127
    },
    {
      "midi": 72,
      "hit": false,
      "t": 167416.85063541678,
      "d": 1260.058562500024,
      "v": 127
    },
    {
      "midi": 56,
      "hit": false,
      "t": 167421.73458333345,
      "d": 1240.5227708333405,
      "v": 127
    },
    {
      "midi": 54,
      "hit": false,
      "t": 167436.38642708346,
      "d": 24.419739583332557,
      "v": 127
    },
    {
      "midi": 75,
      "hit": false,
      "t": 167446.1543229168,
      "d": 1230.7548750000133,
      "v": 127
    },
    {
      "midi": 51,
      "hit": false,
      "t": 168632.95366666678,
      "d": 488.39479166668025,
      "v": 127
    },
    {
      "midi": 68,
      "hit": false,
      "t": 168672.02525000012,
      "d": 556.7700624999998,
      "v": 127
    },
    {
      "midi": 56,
      "hit": false,
      "t": 168813.65973958347,
      "d": 249.08134375000373,
      "v": 127
    },
    {
      "midi": 60,
      "hit": false,
      "t": 168818.54368750015,
      "d": 175.82212500000605,
      "v": 127
    },
    {
      "midi": 72,
      "hit": false,
      "t": 168838.0794791668,
      "d": 361.4121458333102,
      "v": 127
    },
    {
      "midi": 75,
      "hit": false,
      "t": 168842.96342708348,
      "d": 346.76030208330485,
      "v": 127
    },
    {
      "midi": 51,
      "hit": false,
      "t": 169243.44715625013,
      "d": 659.3329687500081,
      "v": 127
    },
    {
      "midi": 68,
      "hit": false,
      "t": 169243.44715625013,
      "d": 805.8514062500035,
      "v": 127
    },
    {
      "midi": 56,
      "hit": false,
      "t": 169248.3311041668,
      "d": 791.1995624999981,
      "v": 127
    },
    {
      "midi": 72,
      "hit": false,
      "t": 169258.09900000013,
      "d": 722.8242916666786,
      "v": 127
    },
    {
      "midi": 60,
      "hit": false,
      "t": 169258.09900000013,
      "d": 771.6637708333437,
      "v": 127
    },
    {
      "midi": 75,
      "hit": false,
      "t": 169258.09900000013,
      "d": 805.8514062500035,
      "v": 127
    },
    {
      "midi": 51,
      "hit": false,
      "t": 170024.8788229168,
      "d": 1323.5498854166945,
      "v": 127
    },
    {
      "midi": 39,
      "hit": false,
      "t": 170200.7009479168,
      "d": 1460.3004270833626,
      "v": 127
    },
    {
      "midi": 58,
      "hit": false,
      "t": 170205.58489583348,
      "d": 1245.4067187500186,
      "v": 127
    },
    {
      "midi": 67,
      "hit": false,
      "t": 170220.2367395835,
      "d": 1152.6117083333374,
      "v": 127
    },
    {
      "midi": 75,
      "hit": false,
      "t": 170220.2367395835,
      "d": 1225.8709270833351,
      "v": 127
    },
    {
      "midi": 55,
      "hit": false,
      "t": 170220.2367395835,
      "d": 1240.5227708333405,
      "v": 127
    },
    {
      "midi": 70,
      "hit": false,
      "t": 170230.00463541682,
      "d": 1230.7548750000133,
      "v": 127
    },
    {
      "midi": 51,
      "hit": false,
      "t": 171446.10766666682,
      "d": 586.0737500000105,
      "v": 127
    },
    {
      "midi": 67,
      "hit": false,
      "t": 171446.10766666682,
      "d": 1391.925156250014,
      "v": 127
    },
    {
      "midi": 70,
      "hit": false,
      "t": 171607.27794791682,
      "d": 410.2516250000044,
      "v": 127
    },
    {
      "midi": 43,
      "hit": false,
      "t": 171607.27794791682,
      "d": 571.4219062500342,
      "v": 127
    },
    {
      "midi": 75,
      "hit": false,
      "t": 171612.1618958335,
      "d": 376.06398958331556,
      "v": 127
    },
    {
      "midi": 55,
      "hit": false,
      "t": 171612.1618958335,
      "d": 390.7158333333209,
      "v": 127
    },
    {
      "midi": 58,
      "hit": false,
      "t": 171617.04584375018,
      "d": 361.4121458333102,
      "v": 127
    },
    {
      "midi": 46,
      "hit": false,
      "t": 172081.0208958335,
      "d": 473.742947916704,
      "v": 127
    },
    {
      "midi": 70,
      "hit": false,
      "t": 172085.90484375018,
      "d": 698.4045520833461,
      "v": 127
    },
    {
      "midi": 51,
      "hit": false,
      "t": 172085.90484375018,
      "d": 796.0835104166472,
      "v": 127
    },
    {
      "midi": 55,
      "hit": false,
      "t": 172090.78879166686,
      "d": 737.4761354166549,
      "v": 127
    },
    {
      "midi": 75,
      "hit": false,
      "t": 172090.78879166686,
      "d": 830.271145833307,
      "v": 127
    },
    {
      "midi": 58,
      "hit": false,
      "t": 172095.67273958353,
      "d": 800.9674583332962,
      "v": 127
    },
    {
      "midi": 43,
      "hit": false,
      "t": 172217.7714375002,
      "d": 97.67895833333023,
      "v": 127
    },
    {
      "midi": 48,
      "hit": false,
      "t": 172525.4601562502,
      "d": 473.7429479166458,
      "v": 127
    },
    {
      "midi": 53,
      "hit": false,
      "t": 173038.27468750018,
      "d": 1206.3351354166516,
      "v": 127
    },
    {
      "midi": 50,
      "hit": false,
      "t": 173038.27468750018,
      "d": 1264.942510416673,
      "v": 127
    },
    {
      "midi": 46,
      "hit": false,
      "t": 173038.27468750018,
      "d": 1382.1572604166577,
      "v": 127
    },
    {
      "midi": 58,
      "hit": false,
      "t": 173043.15863541685,
      "d": 1133.075916666654,
      "v": 127
    },
    {
      "midi": 70,
      "hit": false,
      "t": 173062.6944270835,
      "d": 1235.6388229166623,
      "v": 127
    },
    {
      "midi": 74,
      "hit": false,
      "t": 173072.46232291684,
      "d": 1299.1301458333328,
      "v": 127
    },
    {
      "midi": 77,
      "hit": false,
      "t": 173087.11416666684,
      "d": 1240.5227708333405,
      "v": 127
    },
    {
      "midi": 57,
      "hit": false,
      "t": 174415.54800000016,
      "d": 376.06398958337377,
      "v": 127
    },
    {
      "midi": 50,
      "hit": false,
      "t": 174415.54800000016,
      "d": 385.83188541670097,
      "v": 127
    },
    {
      "midi": 74,
      "hit": false,
      "t": 174420.43194791683,
      "d": 439.55531250004424,
      "v": 127
    },
    {
      "midi": 53,
      "hit": false,
      "t": 174425.3158958335,
      "d": 366.29609375001746,
      "v": 127
    },
    {
      "midi": 77,
      "hit": false,
      "t": 174439.96773958352,
      "d": 390.71583333335,
      "v": 127
    },
    {
      "midi": 45,
      "hit": false,
      "t": 174449.73563541684,
      "d": 1352.8535729167343,
      "v": 127
    },
    {
      "midi": 69,
      "hit": false,
      "t": 174454.61958333352,
      "d": 405.3676770833554,
      "v": 127
    },
    {
      "midi": 53,
      "hit": false,
      "t": 174874.63910416688,
      "d": 805.8514062500326,
      "v": 127
    },
    {
      "midi": 50,
      "hit": false,
      "t": 174874.63910416688,
      "d": 879.1106250000303,
      "v": 127
    },
    {
      "midi": 57,
      "hit": false,
      "t": 174879.52305208356,
      "d": 830.2711458333652,
      "v": 127
    },
    {
      "midi": 74,
      "hit": false,
      "t": 174884.40700000024,
      "d": 820.5032500000088,
      "v": 127
    },
    {
      "midi": 77,
      "hit": false,
      "t": 174899.05884375024,
      "d": 810.7353541666816,
      "v": 127
    },
    {
      "midi": 69,
      "hit": false,
      "t": 174899.05884375024,
      "d": 835.1550937500142,
      "v": 127
    },
    {
      "midi": 44,
      "hit": false,
      "t": 175797.7052604169,
      "d": 1406.5770000000484,
      "v": 127
    },
    {
      "midi": 68,
      "hit": false,
      "t": 175846.54473958357,
      "d": 1098.8882812500233,
      "v": 127
    },
    {
      "midi": 72,
      "hit": false,
      "t": 175846.54473958357,
      "d": 1225.8709270833642,
      "v": 127
    },
    {
      "midi": 51,
      "hit": false,
      "t": 175851.42868750024,
      "d": 1152.6117083333374,
      "v": 127
    },
    {
      "midi": 56,
      "hit": false,
      "t": 175861.19658333357,
      "d": 1240.5227708333696,
      "v": 127
    },
    {
      "midi": 75,
      "hit": false,
      "t": 175875.84842708358,
      "d": 1186.7993437500263,
      "v": 127
    },
    {
      "midi": 60,
      "hit": false,
      "t": 175875.84842708358,
      "d": 1216.103031250037,
      "v": 127
    },
    {
      "midi": 68,
      "hit": false,
      "t": 177057.76382291692,
      "d": 586.0737500000105,
      "v": 127
    },
    {
      "midi": 51,
      "hit": false,
      "t": 177087.06751041693,
      "d": 571.4219062500051,
      "v": 127
    },
    {
      "midi": 75,
      "hit": false,
      "t": 177214.05015625028,
      "d": 361.4121458333393,
      "v": 127
    },
    {
      "midi": 72,
      "hit": false,
      "t": 177214.05015625028,
      "d": 415.1355729166535,
      "v": 127
    },
    {
      "midi": 44,
      "hit": false,
      "t": 177262.88963541694,
      "d": 444.4392604166933,
      "v": 127
    },
    {
      "midi": 60,
      "hit": false,
      "t": 177272.65753125027,
      "d": 302.804770833347,
      "v": 127
    },
    {
      "midi": 56,
      "hit": false,
      "t": 177272.65753125027,
      "d": 346.76030208333395,
      "v": 127
    },
    {
      "midi": 51,
      "hit": false,
      "t": 177687.79310416695,
      "d": 669.1008645833645,
      "v": 127
    },
    {
      "midi": 72,
      "hit": false,
      "t": 177687.79310416695,
      "d": 747.2440312500403,
      "v": 127
    },
    {
      "midi": 60,
      "hit": false,
      "t": 177687.79310416695,
      "d": 757.0119270833966,
      "v": 127
    },
    {
      "midi": 68,
      "hit": false,
      "t": 177687.79310416695,
      "d": 835.1550937500724,
      "v": 127
    },
    {
      "midi": 43,
      "hit": false,
      "t": 177692.67705208363,
      "d": 444.4392604166642,
      "v": 127
    },
    {
      "midi": 75,
      "hit": false,
      "t": 177692.67705208363,
      "d": 854.6908854167268,
      "v": 127
    },
    {
      "midi": 56,
      "hit": false,
      "t": 177702.44494791696,
      "d": 766.7798229167238,
      "v": 127
    },
    {
      "midi": 41,
      "hit": false,
      "t": 178166.4200000003,
      "d": 429.78741666671704,
      "v": 127
    },
    {
      "midi": 51,
      "hit": false,
      "t": 178439.92108333367,
      "d": 151.4023854166735,
      "v": 127
    },
    {
      "midi": 51,
      "hit": false,
      "t": 178620.62715625035,
      "d": 1157.4956562499865,
      "v": 127
    },
    {
      "midi": 39,
      "hit": false,
      "t": 178654.814791667,
      "d": 1089.120385416667,
      "v": 127
    },
    {
      "midi": 58,
      "hit": false,
      "t": 178664.58268750034,
      "d": 1225.8709270833351,
      "v": 127
    },
    {
      "midi": 55,
      "hit": false,
      "t": 178664.58268750034,
      "d": 1235.6388229166623,
      "v": 127
    },
    {
      "midi": 67,
      "hit": false,
      "t": 178674.35058333367,
      "d": 1128.191968750005,
      "v": 127
    },
    {
      "midi": 75,
      "hit": false,
      "t": 178679.23453125035,
      "d": 1206.3351354166516,
      "v": 127
    },
    {
      "midi": 70,
      "hit": false,
      "t": 178679.23453125035,
      "d": 1225.8709270833351,
      "v": 127
    },
    {
      "midi": 39,
      "hit": false,
      "t": 179851.38203125034,
      "d": 180.7060729166842,
      "v": 127
    },
    {
      "midi": 51,
      "hit": false,
      "t": 179890.45361458368,
      "d": 146.51843750002445,
      "v": 127
    },
    {
      "midi": 67,
      "hit": false,
      "t": 179900.221510417,
      "d": 600.7255937500449,
      "v": 127
    },
    {
      "midi": 51,
      "hit": false,
      "t": 180036.9720520837,
      "d": 503.0466354167147,
      "v": 127
    },
    {
      "midi": 58,
      "hit": false,
      "t": 180056.50784375035,
      "d": 390.71583333335,
      "v": 127
    },
    {
      "midi": 70,
      "hit": false,
      "t": 180066.27573958368,
      "d": 390.71583333335,
      "v": 127
    },
    {
      "midi": 55,
      "hit": false,
      "t": 180071.15968750036,
      "d": 390.71583333335,
      "v": 127
    },
    {
      "midi": 75,
      "hit": false,
      "t": 180080.9275833337,
      "d": 361.4121458333393,
      "v": 127
    },
    {
      "midi": 67,
      "hit": false,
      "t": 180515.59894791705,
      "d": 737.4761354167131,
      "v": 127
    },
    {
      "midi": 70,
      "hit": false,
      "t": 180525.36684375038,
      "d": 683.7527083333989,
      "v": 127
    },
    {
      "midi": 75,
      "hit": false,
      "t": 180530.25079166706,
      "d": 805.8514062500326,
      "v": 127
    },
    {
      "midi": 50,
      "hit": false,
      "t": 180535.13473958374,
      "d": 444.4392604166933,
      "v": 127
    },
    {
      "midi": 55,
      "hit": false,
      "t": 180544.9026354171,
      "d": 708.1724479166733,
      "v": 127
    },
    {
      "midi": 51,
      "hit": false,
      "t": 180544.9026354171,
      "d": 752.1279791666602,
      "v": 127
    },
    {
      "midi": 58,
      "hit": false,
      "t": 180549.78658333377,
      "d": 786.31561458332,
      "v": 127
    },
    {
      "midi": 48,
      "hit": false,
      "t": 180994.22584375044,
      "d": 429.7874166666588,
      "v": 127
    },
    {
      "midi": 70,
      "hit": false,
      "t": 181453.3169479171,
      "d": 1304.014093750011,
      "v": 127
    },
    {
      "midi": 46,
      "hit": false,
      "t": 181453.3169479171,
      "d": 1465.1843750000116,
      "v": 127
    },
    {
      "midi": 58,
      "hit": false,
      "t": 181463.08484375043,
      "d": 1255.1746145833458,
      "v": 127
    },
    {
      "midi": 50,
      "hit": false,
      "t": 181477.73668750044,
      "d": 1113.5401249999995,
      "v": 127
    },
    {
      "midi": 53,
      "hit": false,
      "t": 181477.73668750044,
      "d": 1250.2906666666677,
      "v": 127
    },
    {
      "midi": 74,
      "hit": false,
      "t": 181487.50458333376,
      "d": 1338.2017291666707,
      "v": 127
    },
    {
      "midi": 77,
      "hit": false,
      "t": 181502.15642708377,
      "d": 1279.5943541666784,
      "v": 127
    },
    {
      "midi": 50,
      "hit": false,
      "t": 182688.95577083377,
      "d": 556.7700624999998,
      "v": 127
    },
    {
      "midi": 74,
      "hit": false,
      "t": 182864.77789583377,
      "d": 410.2516250000044,
      "v": 127
    },
    {
      "midi": 77,
      "hit": false,
      "t": 182879.42973958378,
      "d": 376.06398958331556,
      "v": 127
    },
    {
      "midi": 53,
      "hit": false,
      "t": 182884.31368750046,
      "d": 361.4121458333102,
      "v": 127
    },
    {
      "midi": 69,
      "hit": false,
      "t": 182894.08158333378,
      "d": 376.06398958331556,
      "v": 127
    },
    {
      "midi": 45,
      "hit": false,
      "t": 182903.8494791671,
      "d": 1391.925156250043,
      "v": 127
    },
    {
      "midi": 57,
      "hit": false,
      "t": 182913.61737500044,
      "d": 249.08134375000373,
      "v": 127
    },
    {
      "midi": 50,
      "hit": false,
      "t": 183314.10110416712,
      "d": 796.0835104167054,
      "v": 127
    },
    {
      "midi": 53,
      "hit": false,
      "t": 183318.9850520838,
      "d": 747.2440312500112,
      "v": 127
    },
    {
      "midi": 57,
      "hit": false,
      "t": 183318.9850520838,
      "d": 800.9674583333544,
      "v": 127
    },
    {
      "midi": 69,
      "hit": false,
      "t": 183328.75294791712,
      "d": 654.4490208333591,
      "v": 127
    },
    {
      "midi": 74,
      "hit": false,
      "t": 183333.6368958338,
      "d": 786.3156145833491,
      "v": 127
    },
    {
      "midi": 77,
      "hit": false,
      "t": 183338.52084375048,
      "d": 766.7798229166656,
      "v": 127
    },
    {
      "midi": 69,
      "hit": false,
      "t": 184080.8809270838,
      "d": 68.37527083334862,
      "v": 127
    },
    {
      "midi": 51,
      "hit": false,
      "t": 184237.16726041716,
      "d": 1181.9153958333482,
      "v": 127
    },
    {
      "midi": 68,
      "hit": false,
      "t": 184246.9351562505,
      "d": 1167.2635520833428,
      "v": 127
    },
    {
      "midi": 56,
      "hit": false,
      "t": 184246.9351562505,
      "d": 1284.4783020833565,
      "v": 127
    },
    {
      "midi": 60,
      "hit": false,
      "t": 184251.81910416717,
      "d": 1264.942510416673,
      "v": 127
    },
    {
      "midi": 44,
      "hit": false,
      "t": 184251.81910416717,
      "d": 1343.0856770833489,
      "v": 127
    },
    {
      "midi": 72,
      "hit": false,
      "t": 184271.35489583382,
      "d": 1245.4067187500186,
      "v": 127
    },
    {
      "midi": 75,
      "hit": false,
      "t": 184276.2388437505,
      "d": 1220.986979166686,
      "v": 127
    },
    {
      "midi": 68,
      "hit": false,
      "t": 185516.76161458384,
      "d": 107.44685416668653,
      "v": 127
    },
    {
      "midi": 51,
      "hit": false,
      "t": 185516.76161458384,
      "d": 126.98264583334094,
      "v": 127
    },
    {
      "midi": 51,
      "hit": false,
      "t": 185668.1640000005,
      "d": 376.06398958337377,
      "v": 127
    },
    {
      "midi": 44,
      "hit": false,
      "t": 185673.0479479172,
      "d": 449.32320833337144,
      "v": 127
    },
    {
      "midi": 68,
      "hit": false,
      "t": 185677.93189583387,
      "d": 395.5997812500282,
      "v": 127
    },
    {
      "midi": 72,
      "hit": false,
      "t": 185692.58373958388,
      "d": 366.29609375001746,
      "v": 127
    },
    {
      "midi": 60,
      "hit": false,
      "t": 185697.46768750055,
      "d": 293.0368749999907,
      "v": 127
    },
    {
      "midi": 56,
      "hit": false,
      "t": 185697.46768750055,
      "d": 332.1084583333286,
      "v": 127
    },
    {
      "midi": 75,
      "hit": false,
      "t": 185697.46768750055,
      "d": 332.1084583333286,
      "v": 127
    },
    {
      "midi": 51,
      "hit": false,
      "t": 186117.48720833389,
      "d": 664.2169166666863,
      "v": 127
    },
    {
      "midi": 68,
      "hit": false,
      "t": 186127.25510416724,
      "d": 820.5032499999797,
      "v": 127
    },
    {
      "midi": 56,
      "hit": false,
      "t": 186127.25510416724,
      "d": 825.3871979166579,
      "v": 127
    },
    {
      "midi": 72,
      "hit": false,
      "t": 186132.13905208392,
      "d": 693.5206041666388,
      "v": 127
    },
    {
      "midi": 60,
      "hit": false,
      "t": 186132.13905208392,
      "d": 791.199562499969,
      "v": 127
    },
    {
      "midi": 75,
      "hit": false,
      "t": 186132.13905208392,
      "d": 830.271145833307,
      "v": 127
    },
    {
      "midi": 43,
      "hit": false,
      "t": 186151.67484375057,
      "d": 415.1355729166535,
      "v": 127
    },
    {
      "midi": 41,
      "hit": false,
      "t": 186596.11410416724,
      "d": 400.4837291666481,
      "v": 127
    },
    {
      "midi": 51,
      "hit": false,
      "t": 186908.68677083388,
      "d": 1323.5498854166653,
      "v": 127
    },
    {
      "midi": 39,
      "hit": false,
      "t": 187069.85705208388,
      "d": 2881.5292708333873,
      "v": 127
    },
    {
      "midi": 75,
      "hit": false,
      "t": 187089.39284375054,
      "d": 1245.4067187500186,
      "v": 127
    },
    {
      "midi": 55,
      "hit": false,
      "t": 187104.04468750054,
      "d": 1255.1746145833458,
      "v": 127
    },
    {
      "midi": 58,
      "hit": false,
      "t": 187108.92863541722,
      "d": 1220.986979166657,
      "v": 127
    },
    {
      "midi": 67,
      "hit": false,
      "t": 187118.69653125055,
      "d": 1137.959864583332,
      "v": 127
    },
    {
      "midi": 70,
      "hit": false,
      "t": 187118.69653125055,
      "d": 1211.2190833333298,
      "v": 127
    },
    {
      "midi": 67,
      "hit": false,
      "t": 188329.91561458388,
      "d": 1528.6756979167112,
      "v": 127
    },
    {
      "midi": 51,
      "hit": false,
      "t": 188344.56745833388,
      "d": 439.55531250001513,
      "v": 127
    },
    {
      "midi": 75,
      "hit": false,
      "t": 188495.96984375056,
      "d": 376.06398958334466,
      "v": 127
    },
    {
      "midi": 70,
      "hit": false,
      "t": 188510.62168750056,
      "d": 376.06398958334466,
      "v": 127
    },
    {
      "midi": 58,
      "hit": false,
      "t": 188525.27353125057,
      "d": 1211.2190833333298,
      "v": 127
    },
    {
      "midi": 55,
      "hit": false,
      "t": 188525.27353125057,
      "d": 1240.5227708333405,
      "v": 127
    },
    {
      "midi": 51,
      "hit": false,
      "t": 188784.1227708339,
      "d": 918.1822083333391,
      "v": 127
    },
    {
      "midi": 75,
      "hit": false,
      "t": 188969.71279166723,
      "d": 849.8069375000196,
      "v": 127
    },
    {
      "midi": 70,
      "hit": false,
      "t": 188969.71279166723,
      "d": 874.2266770833521,
      "v": 127
    },
    {
      "midi": 51,
      "hit": false,
      "t": 189765.7963020839,
      "d": 146.51843749999534,
      "v": 127
    },
    {
      "midi": 67,
      "hit": false,
      "t": 189902.54684375058,
      "d": 1377.2733125000377,
      "v": 127
    },
    {
      "midi": 51,
      "hit": false,
      "t": 189912.3147395839,
      "d": 1357.7375208333833,
      "v": 127
    },
    {
      "midi": 75,
      "hit": false,
      "t": 189917.19868750058,
      "d": 1294.2461979166837,
      "v": 127
    },
    {
      "midi": 70,
      "hit": false,
      "t": 189917.19868750058,
      "d": 1323.5498854166945,
      "v": 127
    },
    {
      "midi": 55,
      "hit": false,
      "t": 189931.8505312506,
      "d": 1308.898041666689,
      "v": 127
    },
    {
      "midi": 58,
      "hit": false,
      "t": 189936.73447916727,
      "d": 1260.0585624999949,
      "v": 127
    },
    {
      "midi": 51,
      "hit": false,
      "t": 191299.35594791727,
      "d": 19.535791666683508,
      "v": 127
    },
    {
      "midi": 55,
      "hit": false,
      "t": 191314.00779166727,
      "d": 1235.6388229166914,
      "v": 127
    },
    {
      "midi": 58,
      "hit": false,
      "t": 191314.00779166727,
      "d": 1279.5943541667075,
      "v": 127
    },
    {
      "midi": 51,
      "hit": false,
      "t": 191318.89173958395,
      "d": 1245.4067187500186,
      "v": 127
    },
    {
      "midi": 67,
      "hit": false,
      "t": 191323.77568750063,
      "d": 1045.16485416668,
      "v": 127
    },
    {
      "midi": 70,
      "hit": false,
      "t": 191328.6596354173,
      "d": 981.6735312500095,
      "v": 127
    },
    {
      "midi": 75,
      "hit": false,
      "t": 191328.6596354173,
      "d": 1152.6117083333374,
      "v": 127
    },
    {
      "midi": 50,
      "hit": false,
      "t": 191792.63468750066,
      "d": 444.4392604166642,
      "v": 127
    },
    {
      "midi": 48,
      "hit": false,
      "t": 192266.37763541733,
      "d": 439.55531249998603,
      "v": 127
    },
    {
      "midi": 70,
      "hit": false,
      "t": 192618.0218854173,
      "d": 4014.605187500041,
      "v": 127
    },
    {
      "midi": 74,
      "hit": false,
      "t": 192671.74531250066,
      "d": 3999.953343750036,
      "v": 127
    },
    {
      "midi": 62,
      "hit": false,
      "t": 192705.93294791732,
      "d": 4317.409958333388,
      "v": 127
    },
    {
      "midi": 53,
      "hit": false,
      "t": 192720.58479166732,
      "d": 6393.087822916743,
      "v": 127
    },
    {
      "midi": 50,
      "hit": false,
      "t": 192720.58479166732,
      "d": 6402.85571875007,
      "v": 127
    },
    {
      "midi": 58,
      "hit": false,
      "t": 192725.468739584,
      "d": 19.535791666683508,
      "v": 127
    },
    {
      "midi": 46,
      "hit": false,
      "t": 192725.468739584,
      "d": 2754.5466250000172,
      "v": 127
    },
    {
      "midi": 77,
      "hit": false,
      "t": 192730.35268750068,
      "d": 3926.694125000009,
      "v": 127
    },
    {
      "midi": 58,
      "hit": false,
      "t": 192745.00453125068,
      "d": 5465.137718750018,
      "v": 127
    },
    {
      "midi": 65,
      "hit": false,
      "t": 192759.6563750007,
      "d": 4209.963104166673,
      "v": 127
    },
    {
      "midi": 82,
      "hit": false,
      "t": 198161.30277083404,
      "d": 3164.7982500000508,
      "v": 127
    },
    {
      "midi": 58,
      "hit": false,
      "t": 198210.1422500007,
      "d": 2935.2526979167014,
      "v": 127
    },
    {
      "midi": 62,
      "hit": false,
      "t": 198219.91014583403,
      "d": 3819.24727083341,
      "v": 127
    },
    {
      "midi": 86,
      "hit": false,
      "t": 198258.98172916737,
      "d": 3052.467447916715,
      "v": 127
    },
    {
      "midi": 46,
      "hit": false,
      "t": 198312.7051562507,
      "d": 2715.4750416666793,
      "v": 127
    },
    {
      "midi": 65,
      "hit": false,
      "t": 198317.5891041674,
      "d": 3706.916468750045,
      "v": 127
    },
    {
      "midi": 89,
      "hit": false,
      "t": 198356.66068750073,
      "d": 2954.788489583356,
      "v": 127
    },
    {
      "midi": 46,
      "hit": false,
      "t": 201081.90362500073,
      "d": 6490.766781250044,
      "v": 127
    },
    {
      "midi": 50,
      "hit": false,
      "t": 201106.32336458407,
      "d": 6129.354635416705,
      "v": 127
    },
    {
      "midi": 58,
      "hit": false,
      "t": 201145.3949479174,
      "d": 6060.979364583356,
      "v": 127
    },
    {
      "midi": 53,
      "hit": false,
      "t": 201174.69863541742,
      "d": 6046.327520833351,
      "v": 127
    }
  ]
}