{
  "jsonPath": "Pop/Classic Portuguese Pop/Paulo Gonzo/sete-vidas.json",
  "path": "Pop\\Classic Portuguese Pop\\Paulo Gonzo\\Sete Vidas.mid",
  "name": "Sete Vidas",
  "difficulty": "Advanced",
  "bpm": 93.000186000372,
  "notes": [
    {
      "midi": 31,
      "hit": false,
      "t": 3750,
      "d": 1562.5,
      "v": 64
    },
    {
      "midi": 38,
      "hit": false,
      "t": 5625,
      "d": 1953.125,
      "v": 64
    },
    {
      "midi": 31,
      "hit": false,
      "t": 7500,
      "d": 1562.5,
      "v": 64
    },
    {
      "midi": 38,
      "hit": false,
      "t": 9375,
      "d": 566.40625,
      "v": 64
    },
    {
      "midi": 40,
      "hit": false,
      "t": 9843.75,
      "d": 1328.125,
      "v": 64
    },
    {
      "midi": 74,
      "hit": false,
      "t": 10771.484375,
      "d": 6748.046875,
      "v": 84
    },
    {
      "midi": 81,
      "hit": false,
      "t": 10859.375,
      "d": 263.671875,
      "v": 84
    },
    {
      "midi": 79,
      "hit": false,
      "t": 10986.328125,
      "d": 6474.609375,
      "v": 84
    },
    {
      "midi": 83,
      "hit": false,
      "t": 11025.390625,
      "d": 6445.3125,
      "v": 84
    },
    {
      "midi": 86,
      "hit": false,
      "t": 11181.640625,
      "d": 6318.359375,
      "v": 84
    },
    {
      "midi": 31,
      "hit": false,
      "t": 11250,
      "d": 1562.5,
      "v": 64
    },
    {
      "midi": 38,
      "hit": false,
      "t": 13125,
      "d": 1953.125,
      "v": 64
    },
    {
      "midi": 31,
      "hit": false,
      "t": 15000,
      "d": 1562.5,
      "v": 64
    },
    {
      "midi": 38,
      "hit": false,
      "t": 16875,
      "d": 468.75,
      "v": 64
    },
    {
      "midi": 40,
      "hit": false,
      "t": 17343.75,
      "d": 957.03125,
      "v": 64
    },
    {
      "midi": 74,
      "hit": false,
      "t": 18271.484375,
      "d": 6210.9375,
      "v": 84
    },
    {
      "midi": 81,
      "hit": false,
      "t": 18388.671875,
      "d": 292.96875,
      "v": 84
    },
    {
      "midi": 79,
      "hit": false,
      "t": 18486.328125,
      "d": 5957.03125,
      "v": 84
    },
    {
      "midi": 83,
      "hit": false,
      "t": 18544.921875,
      "d": 5878.90625,
      "v": 84
    },
    {
      "midi": 86,
      "hit": false,
      "t": 18701.171875,
      "d": 5732.421875,
      "v": 84
    },
    {
      "midi": 31,
      "hit": false,
      "t": 18769.53125,
      "d": 1562.5,
      "v": 54
    },
    {
      "midi": 38,
      "hit": false,
      "t": 20585.9375,
      "d": 1953.125,
      "v": 54
    },
    {
      "midi": 31,
      "hit": false,
      "t": 22460.9375,
      "d": 1562.5,
      "v": 54
    },
    {
      "midi": 38,
      "hit": false,
      "t": 24335.9375,
      "d": 1953.125,
      "v": 54
    },
    {
      "midi": 50,
      "hit": false,
      "t": 26250,
      "d": 3789.0625,
      "v": 74
    },
    {
      "midi": 43,
      "hit": false,
      "t": 26250,
      "d": 3798.828125,
      "v": 74
    },
    {
      "midi": 53,
      "hit": false,
      "t": 26250,
      "d": 3847.65625,
      "v": 74
    },
    {
      "midi": 55,
      "hit": false,
      "t": 30000,
      "d": 3691.40625,
      "v": 74
    },
    {
      "midi": 48,
      "hit": false,
      "t": 30000,
      "d": 3720.703125,
      "v": 74
    },
    {
      "midi": 52,
      "hit": false,
      "t": 30000,
      "d": 3720.703125,
      "v": 74
    },
    {
      "midi": 67,
      "hit": false,
      "t": 32333.984375,
      "d": 214.84375,
      "v": 84
    },
    {
      "midi": 67,
      "hit": false,
      "t": 32773.4375,
      "d": 4072.265625,
      "v": 84
    },
    {
      "midi": 72,
      "hit": false,
      "t": 33222.65625,
      "d": 3642.578125,
      "v": 84
    },
    {
      "midi": 79,
      "hit": false,
      "t": 33701.171875,
      "d": 3144.53125,
      "v": 84
    },
    {
      "midi": 48,
      "hit": false,
      "t": 33750,
      "d": 3193.359375,
      "v": 54
    },
    {
      "midi": 59,
      "hit": false,
      "t": 37500,
      "d": 6513.671875,
      "v": 54
    },
    {
      "midi": 67,
      "hit": false,
      "t": 37500,
      "d": 6533.203125,
      "v": 54
    },
    {
      "midi": 43,
      "hit": false,
      "t": 37500,
      "d": 6572.265625,
      "v": 54
    },
    {
      "midi": 59,
      "hit": false,
      "t": 40283.203125,
      "d": 488.28125,
      "v": 84
    },
    {
      "midi": 67,
      "hit": false,
      "t": 40283.203125,
      "d": 507.8125,
      "v": 84
    },
    {
      "midi": 69,
      "hit": false,
      "t": 40722.65625,
      "d": 576.171875,
      "v": 84
    },
    {
      "midi": 60,
      "hit": false,
      "t": 40742.1875,
      "d": 507.8125,
      "v": 84
    },
    {
      "midi": 62,
      "hit": false,
      "t": 41240.234375,
      "d": 3593.75,
      "v": 84
    },
    {
      "midi": 71,
      "hit": false,
      "t": 41240.234375,
      "d": 3671.875,
      "v": 84
    },
    {
      "midi": 62,
      "hit": false,
      "t": 45000,
      "d": 1953.125,
      "v": 54
    },
    {
      "midi": 66,
      "hit": false,
      "t": 45000,
      "d": 1953.125,
      "v": 54
    },
    {
      "midi": 50,
      "hit": false,
      "t": 45000,
      "d": 3779.296875,
      "v": 54
    },
    {
      "midi": 67,
      "hit": false,
      "t": 46396.484375,
      "d": 478.515625,
      "v": 84
    },
    {
      "midi": 64,
      "hit": false,
      "t": 46396.484375,
      "d": 498.046875,
      "v": 84
    },
    {
      "midi": 66,
      "hit": false,
      "t": 46835.9375,
      "d": 927.734375,
      "v": 84
    },
    {
      "midi": 62,
      "hit": false,
      "t": 46865.234375,
      "d": 878.90625,
      "v": 84
    },
    {
      "midi": 64,
      "hit": false,
      "t": 47812.5,
      "d": 937.5,
      "v": 84
    },
    {
      "midi": 60,
      "hit": false,
      "t": 47822.265625,
      "d": 937.5,
      "v": 84
    },
    {
      "midi": 43,
      "hit": false,
      "t": 48759.765625,
      "d": 7167.96875,
      "v": 54
    },
    {
      "midi": 59,
      "hit": false,
      "t": 48759.765625,
      "d": 3330.078125,
      "v": 84
    },
    {
      "midi": 62,
      "hit": false,
      "t": 48759.765625,
      "d": 3330.078125,
      "v": 84
    },
    {
      "midi": 43,
      "hit": false,
      "t": 56162.109375,
      "d": 3818.359375,
      "v": 54
    },
    {
      "midi": 62,
      "hit": false,
      "t": 56250,
      "d": 3398.4375,
      "v": 84
    },
    {
      "midi": 71,
      "hit": false,
      "t": 56250,
      "d": 3447.265625,
      "v": 84
    },
    {
      "midi": 65,
      "hit": false,
      "t": 56250,
      "d": 3613.28125,
      "v": 84
    },
    {
      "midi": 64,
      "hit": false,
      "t": 59960.9375,
      "d": 3496.09375,
      "v": 84
    },
    {
      "midi": 67,
      "hit": false,
      "t": 59960.9375,
      "d": 3505.859375,
      "v": 84
    },
    {
      "midi": 72,
      "hit": false,
      "t": 59970.703125,
      "d": 3466.796875,
      "v": 84
    },
    {
      "midi": 48,
      "hit": false,
      "t": 59990.234375,
      "d": 3583.984375,
      "v": 54
    },
    {
      "midi": 55,
      "hit": false,
      "t": 62314.453125,
      "d": 4482.421875,
      "v": 84
    },
    {
      "midi": 60,
      "hit": false,
      "t": 62783.203125,
      "d": 4111.328125,
      "v": 84
    },
    {
      "midi": 62,
      "hit": false,
      "t": 63242.1875,
      "d": 498.046875,
      "v": 84
    },
    {
      "midi": 64,
      "hit": false,
      "t": 63740.234375,
      "d": 3144.53125,
      "v": 84
    },
    {
      "midi": 48,
      "hit": false,
      "t": 63750,
      "d": 3320.3125,
      "v": 54
    },
    {
      "midi": 55,
      "hit": false,
      "t": 67500,
      "d": 3662.109375,
      "v": 84
    },
    {
      "midi": 59,
      "hit": false,
      "t": 67500,
      "d": 3662.109375,
      "v": 84
    },
    {
      "midi": 50,
      "hit": false,
      "t": 67500,
      "d": 3671.875,
      "v": 84
    },
    {
      "midi": 43,
      "hit": false,
      "t": 67500,
      "d": 3701.171875,
      "v": 84
    },
    {
      "midi": 62,
      "hit": false,
      "t": 69814.453125,
      "d": 5097.65625,
      "v": 84
    },
    {
      "midi": 67,
      "hit": false,
      "t": 70283.203125,
      "d": 527.34375,
      "v": 84
    },
    {
      "midi": 69,
      "hit": false,
      "t": 70751.953125,
      "d": 4169.921875,
      "v": 84
    },
    {
      "midi": 66,
      "hit": false,
      "t": 71191.40625,
      "d": 3720.703125,
      "v": 84
    },
    {
      "midi": 50,
      "hit": false,
      "t": 74814.453125,
      "d": 5849.609375,
      "v": 84
    },
    {
      "midi": 43,
      "hit": false,
      "t": 74833.984375,
      "d": 5888.671875,
      "v": 84
    },
    {
      "midi": 55,
      "hit": false,
      "t": 74902.34375,
      "d": 5751.953125,
      "v": 84
    },
    {
      "midi": 59,
      "hit": false,
      "t": 75029.296875,
      "d": 5654.296875,
      "v": 84
    },
    {
      "midi": 36,
      "hit": false,
      "t": 82480.46875,
      "d": 11259.765625,
      "v": 54
    },
    {
      "midi": 55,
      "hit": false,
      "t": 82500,
      "d": 10917.96875,
      "v": 54
    },
    {
      "midi": 52,
      "hit": false,
      "t": 82500,
      "d": 10957.03125,
      "v": 54
    },
    {
      "midi": 60,
      "hit": false,
      "t": 82500,
      "d": 11064.453125,
      "v": 54
    },
    {
      "midi": 48,
      "hit": false,
      "t": 82500,
      "d": 11250,
      "v": 54
    },
    {
      "midi": 79,
      "hit": false,
      "t": 91826.171875,
      "d": 458.984375,
      "v": 84
    },
    {
      "midi": 76,
      "hit": false,
      "t": 91835.9375,
      "d": 546.875,
      "v": 84
    },
    {
      "midi": 79,
      "hit": false,
      "t": 92304.6875,
      "d": 68.359375,
      "v": 84
    },
    {
      "midi": 78,
      "hit": false,
      "t": 92314.453125,
      "d": 468.75,
      "v": 84
    },
    {
      "midi": 74,
      "hit": false,
      "t": 92333.984375,
      "d": 498.046875,
      "v": 84
    },
    {
      "midi": 76,
      "hit": false,
      "t": 92792.96875,
      "d": 966.796875,
      "v": 84
    },
    {
      "midi": 72,
      "hit": false,
      "t": 92812.5,
      "d": 947.265625,
      "v": 84
    },
    {
      "midi": 55,
      "hit": false,
      "t": 93730.46875,
      "d": 7578.125,
      "v": 54
    },
    {
      "midi": 50,
      "hit": false,
      "t": 93740.234375,
      "d": 6953.125,
      "v": 54
    },
    {
      "midi": 59,
      "hit": false,
      "t": 93740.234375,
      "d": 7314.453125,
      "v": 54
    },
    {
      "midi": 74,
      "hit": false,
      "t": 93740.234375,
      "d": 3076.171875,
      "v": 84
    },
    {
      "midi": 71,
      "hit": false,
      "t": 93750,
      "d": 3027.34375,
      "v": 84
    },
    {
      "midi": 43,
      "hit": false,
      "t": 93759.765625,
      "d": 11240.234375,
      "v": 54
    },
    {
      "midi": 83,
      "hit": false,
      "t": 99824.21875,
      "d": 4873.046875,
      "v": 84
    },
    {
      "midi": 81,
      "hit": false,
      "t": 100292.96875,
      "d": 458.984375,
      "v": 84
    },
    {
      "midi": 79,
      "hit": false,
      "t": 100712.890625,
      "d": 3974.609375,
      "v": 84
    },
    {
      "midi": 74,
      "hit": false,
      "t": 101181.640625,
      "d": 3505.859375,
      "v": 84
    },
    {
      "midi": 59,
      "hit": false,
      "t": 101259.765625,
      "d": 3310.546875,
      "v": 54
    },
    {
      "midi": 62,
      "hit": false,
      "t": 101259.765625,
      "d": 3720.703125,
      "v": 54
    },
    {
      "midi": 57,
      "hit": false,
      "t": 104960.9375,
      "d": 3359.375,
      "v": 54
    },
    {
      "midi": 50,
      "hit": false,
      "t": 104970.703125,
      "d": 3593.75,
      "v": 54
    },
    {
      "midi": 54,
      "hit": false,
      "t": 104970.703125,
      "d": 3632.8125,
      "v": 54
    },
    {
      "midi": 62,
      "hit": false,
      "t": 105927.734375,
      "d": 449.21875,
      "v": 84
    },
    {
      "midi": 66,
      "hit": false,
      "t": 105927.734375,
      "d": 449.21875,
      "v": 84
    },
    {
      "midi": 64,
      "hit": false,
      "t": 106386.71875,
      "d": 458.984375,
      "v": 84
    },
    {
      "midi": 67,
      "hit": false,
      "t": 106396.484375,
      "d": 419.921875,
      "v": 84
    },
    {
      "midi": 66,
      "hit": false,
      "t": 106826.171875,
      "d": 478.515625,
      "v": 84
    },
    {
      "midi": 69,
      "hit": false,
      "t": 106835.9375,
      "d": 517.578125,
      "v": 84
    },
    {
      "midi": 71,
      "hit": false,
      "t": 107294.921875,
      "d": 537.109375,
      "v": 84
    },
    {
      "midi": 67,
      "hit": false,
      "t": 107304.6875,
      "d": 498.046875,
      "v": 84
    },
    {
      "midi": 69,
      "hit": false,
      "t": 107783.203125,
      "d": 917.96875,
      "v": 84
    },
    {
      "midi": 72,
      "hit": false,
      "t": 107792.96875,
      "d": 976.5625,
      "v": 84
    },
    {
      "midi": 71,
      "hit": false,
      "t": 108681.640625,
      "d": 3486.328125,
      "v": 84
    },
    {
      "midi": 67,
      "hit": false,
      "t": 108691.40625,
      "d": 3447.265625,
      "v": 84
    },
    {
      "midi": 59,
      "hit": false,
      "t": 108720.703125,
      "d": 4531.25,
      "v": 54
    },
    {
      "midi": 50,
      "hit": false,
      "t": 108730.46875,
      "d": 4501.953125,
      "v": 54
    },
    {
      "midi": 43,
      "hit": false,
      "t": 108730.46875,
      "d": 4511.71875,
      "v": 54
    },
    {
      "midi": 55,
      "hit": false,
      "t": 108769.53125,
      "d": 234.375,
      "v": 54
    },
    {
      "midi": 43,
      "hit": false,
      "t": 113359.375,
      "d": 1035.15625,
      "v": 54
    },
    {
      "midi": 59,
      "hit": false,
      "t": 113369.140625,
      "d": 966.796875,
      "v": 54
    },
    {
      "midi": 74,
      "hit": false,
      "t": 113369.140625,
      "d": 937.5,
      "v": 84
    },
    {
      "midi": 71,
      "hit": false,
      "t": 113378.90625,
      "d": 927.734375,
      "v": 84
    },
    {
      "midi": 45,
      "hit": false,
      "t": 114306.640625,
      "d": 966.796875,
      "v": 54
    },
    {
      "midi": 60,
      "hit": false,
      "t": 114316.40625,
      "d": 839.84375,
      "v": 54
    },
    {
      "midi": 72,
      "hit": false,
      "t": 114316.40625,
      "d": 957.03125,
      "v": 84
    },
    {
      "midi": 69,
      "hit": false,
      "t": 114335.9375,
      "d": 878.90625,
      "v": 84
    },
    {
      "midi": 62,
      "hit": false,
      "t": 115185.546875,
      "d": 966.796875,
      "v": 54
    },
    {
      "midi": 47,
      "hit": false,
      "t": 115224.609375,
      "d": 1005.859375,
      "v": 54
    },
    {
      "midi": 67,
      "hit": false,
      "t": 115263.671875,
      "d": 634.765625,
      "v": 84
    },
    {
      "midi": 71,
      "hit": false,
      "t": 115283.203125,
      "d": 703.125,
      "v": 84
    },
    {
      "midi": 64,
      "hit": false,
      "t": 116152.34375,
      "d": 3378.90625,
      "v": 54
    },
    {
      "midi": 60,
      "hit": false,
      "t": 116152.34375,
      "d": 3408.203125,
      "v": 54
    },
    {
      "midi": 55,
      "hit": false,
      "t": 116171.875,
      "d": 3349.609375,
      "v": 54
    },
    {
      "midi": 48,
      "hit": false,
      "t": 116191.40625,
      "d": 3378.90625,
      "v": 54
    },
    {
      "midi": 60,
      "hit": false,
      "t": 116230.46875,
      "d": 3007.8125,
      "v": 84
    },
    {
      "midi": 64,
      "hit": false,
      "t": 116240.234375,
      "d": 3017.578125,
      "v": 84
    },
    {
      "midi": 62,
      "hit": false,
      "t": 119472.65625,
      "d": 205.078125,
      "v": 84
    },
    {
      "midi": 59,
      "hit": false,
      "t": 119501.953125,
      "d": 166.015625,
      "v": 84
    },
    {
      "midi": 57,
      "hit": false,
      "t": 119941.40625,
      "d": 3232.421875,
      "v": 84
    },
    {
      "midi": 60,
      "hit": false,
      "t": 119951.171875,
      "d": 3222.65625,
      "v": 84
    },
    {
      "midi": 60,
      "hit": false,
      "t": 119970.703125,
      "d": 3378.90625,
      "v": 54
    },
    {
      "midi": 45,
      "hit": false,
      "t": 119970.703125,
      "d": 3427.734375,
      "v": 54
    },
    {
      "midi": 57,
      "hit": false,
      "t": 119980.46875,
      "d": 3359.375,
      "v": 54
    },
    {
      "midi": 59,
      "hit": false,
      "t": 123701.171875,
      "d": 3564.453125,
      "v": 54
    },
    {
      "midi": 55,
      "hit": false,
      "t": 123701.171875,
      "d": 3789.0625,
      "v": 54
    },
    {
      "midi": 43,
      "hit": false,
      "t": 123710.9375,
      "d": 3759.765625,
      "v": 54
    },
    {
      "midi": 74,
      "hit": false,
      "t": 125605.46875,
      "d": 5527.34375,
      "v": 84
    },
    {
      "midi": 79,
      "hit": false,
      "t": 126083.984375,
      "d": 1425.78125,
      "v": 84
    },
    {
      "midi": 81,
      "hit": false,
      "t": 126552.734375,
      "d": 595.703125,
      "v": 84
    },
    {
      "midi": 83,
      "hit": false,
      "t": 127011.71875,
      "d": 478.515625,
      "v": 84
    },
    {
      "midi": 81,
      "hit": false,
      "t": 127412.109375,
      "d": 3642.578125,
      "v": 84
    },
    {
      "midi": 54,
      "hit": false,
      "t": 127441.40625,
      "d": 3330.078125,
      "v": 54
    },
    {
      "midi": 50,
      "hit": false,
      "t": 127441.40625,
      "d": 3369.140625,
      "v": 54
    },
    {
      "midi": 57,
      "hit": false,
      "t": 127451.171875,
      "d": 3339.84375,
      "v": 54
    },
    {
      "midi": 78,
      "hit": false,
      "t": 127451.171875,
      "d": 3613.28125,
      "v": 84
    },
    {
      "midi": 86,
      "hit": false,
      "t": 127470.703125,
      "d": 3603.515625,
      "v": 84
    },
    {
      "midi": 31,
      "hit": false,
      "t": 131250,
      "d": 3515.625,
      "v": 59
    },
    {
      "midi": 59,
      "hit": false,
      "t": 132636.71875,
      "d": 107.421875,
      "v": 84
    },
    {
      "midi": 62,
      "hit": false,
      "t": 132666.015625,
      "d": 87.890625,
      "v": 84
    },
    {
      "midi": 59,
      "hit": false,
      "t": 133085.9375,
      "d": 537.109375,
      "v": 84
    },
    {
      "midi": 62,
      "hit": false,
      "t": 133095.703125,
      "d": 468.75,
      "v": 84
    },
    {
      "midi": 38,
      "hit": false,
      "t": 133134.765625,
      "d": 507.8125,
      "v": 59
    },
    {
      "midi": 57,
      "hit": false,
      "t": 133574.21875,
      "d": 97.65625,
      "v": 84
    },
    {
      "midi": 60,
      "hit": false,
      "t": 133574.21875,
      "d": 136.71875,
      "v": 84
    },
    {
      "midi": 40,
      "hit": false,
      "t": 133613.28125,
      "d": 1435.546875,
      "v": 59
    },
    {
      "midi": 60,
      "hit": false,
      "t": 134023.4375,
      "d": 527.34375,
      "v": 84
    },
    {
      "midi": 57,
      "hit": false,
      "t": 134033.203125,
      "d": 478.515625,
      "v": 84
    },
    {
      "midi": 59,
      "hit": false,
      "t": 134482.421875,
      "d": 5136.71875,
      "v": 84
    },
    {
      "midi": 62,
      "hit": false,
      "t": 134492.1875,
      "d": 439.453125,
      "v": 84
    },
    {
      "midi": 31,
      "hit": false,
      "t": 134980.46875,
      "d": 3134.765625,
      "v": 59
    },
    {
      "midi": 55,
      "hit": false,
      "t": 135000,
      "d": 4599.609375,
      "v": 84
    },
    {
      "midi": 38,
      "hit": false,
      "t": 136875,
      "d": 498.046875,
      "v": 59
    },
    {
      "midi": 40,
      "hit": false,
      "t": 137353.515625,
      "d": 1406.25,
      "v": 59
    },
    {
      "midi": 74,
      "hit": false,
      "t": 138291.015625,
      "d": 6738.28125,
      "v": 84
    },
    {
      "midi": 79,
      "hit": false,
      "t": 138369.140625,
      "d": 6708.984375,
      "v": 84
    },
    {
      "midi": 81,
      "hit": false,
      "t": 138515.625,
      "d": 195.3125,
      "v": 84
    },
    {
      "midi": 83,
      "hit": false,
      "t": 138642.578125,
      "d": 6455.078125,
      "v": 84
    },
    {
      "midi": 31,
      "hit": false,
      "t": 138701.171875,
      "d": 3310.546875,
      "v": 59
    },
    {
      "midi": 86,
      "hit": false,
      "t": 138750,
      "d": 6328.125,
      "v": 84
    },
    {
      "midi": 59,
      "hit": false,
      "t": 140156.25,
      "d": 478.515625,
      "v": 84
    },
    {
      "midi": 55,
      "hit": false,
      "t": 140166.015625,
      "d": 439.453125,
      "v": 84
    },
    {
      "midi": 60,
      "hit": false,
      "t": 140556.640625,
      "d": 527.34375,
      "v": 84
    },
    {
      "midi": 57,
      "hit": false,
      "t": 140566.40625,
      "d": 498.046875,
      "v": 84
    },
    {
      "midi": 38,
      "hit": false,
      "t": 140595.703125,
      "d": 507.8125,
      "v": 59
    },
    {
      "midi": 55,
      "hit": false,
      "t": 141025.390625,
      "d": 527.34375,
      "v": 84
    },
    {
      "midi": 59,
      "hit": false,
      "t": 141054.6875,
      "d": 517.578125,
      "v": 84
    },
    {
      "midi": 40,
      "hit": false,
      "t": 141083.984375,
      "d": 1425.78125,
      "v": 59
    },
    {
      "midi": 60,
      "hit": false,
      "t": 141503.90625,
      "d": 595.703125,
      "v": 84
    },
    {
      "midi": 57,
      "hit": false,
      "t": 141523.4375,
      "d": 478.515625,
      "v": 84
    },
    {
      "midi": 62,
      "hit": false,
      "t": 141962.890625,
      "d": 400.390625,
      "v": 84
    },
    {
      "midi": 59,
      "hit": false,
      "t": 141992.1875,
      "d": 361.328125,
      "v": 84
    },
    {
      "midi": 31,
      "hit": false,
      "t": 142460.9375,
      "d": 3105.46875,
      "v": 59
    },
    {
      "midi": 62,
      "hit": false,
      "t": 142470.703125,
      "d": 1728.515625,
      "v": 84
    },
    {
      "midi": 59,
      "hit": false,
      "t": 142480.46875,
      "d": 1708.984375,
      "v": 84
    },
    {
      "midi": 53,
      "hit": false,
      "t": 144257.8125,
      "d": 166.015625,
      "v": 84
    },
    {
      "midi": 57,
      "hit": false,
      "t": 144326.171875,
      "d": 654.296875,
      "v": 84
    },
    {
      "midi": 54,
      "hit": false,
      "t": 144365.234375,
      "d": 781.25,
      "v": 84
    },
    {
      "midi": 38,
      "hit": false,
      "t": 144384.765625,
      "d": 439.453125,
      "v": 59
    },
    {
      "midi": 62,
      "hit": false,
      "t": 144804.6875,
      "d": 419.921875,
      "v": 84
    },
    {
      "midi": 40,
      "hit": false,
      "t": 144824.21875,
      "d": 1220.703125,
      "v": 59
    },
    {
      "midi": 51,
      "hit": false,
      "t": 145185.546875,
      "d": 166.015625,
      "v": 84
    },
    {
      "midi": 55,
      "hit": false,
      "t": 145253.90625,
      "d": 4990.234375,
      "v": 84
    },
    {
      "midi": 52,
      "hit": false,
      "t": 145341.796875,
      "d": 908.203125,
      "v": 84
    },
    {
      "midi": 60,
      "hit": false,
      "t": 145732.421875,
      "d": 458.984375,
      "v": 84
    },
    {
      "midi": 74,
      "hit": false,
      "t": 145849.609375,
      "d": 4179.6875,
      "v": 84
    },
    {
      "midi": 79,
      "hit": false,
      "t": 145878.90625,
      "d": 4150.390625,
      "v": 84
    },
    {
      "midi": 81,
      "hit": false,
      "t": 146035.15625,
      "d": 195.3125,
      "v": 84
    },
    {
      "midi": 31,
      "hit": false,
      "t": 146152.34375,
      "d": 1933.59375,
      "v": 59
    },
    {
      "midi": 83,
      "hit": false,
      "t": 146152.34375,
      "d": 3847.65625,
      "v": 84
    },
    {
      "midi": 59,
      "hit": false,
      "t": 146230.46875,
      "d": 3994.140625,
      "v": 84
    },
    {
      "midi": 50,
      "hit": false,
      "t": 146240.234375,
      "d": 3964.84375,
      "v": 84
    },
    {
      "midi": 43,
      "hit": false,
      "t": 146250,
      "d": 6982.421875,
      "v": 54
    },
    {
      "midi": 59,
      "hit": false,
      "t": 146250,
      "d": 7460.9375,
      "v": 54
    },
    {
      "midi": 86,
      "hit": false,
      "t": 146259.765625,
      "d": 3701.171875,
      "v": 64
    },
    {
      "midi": 62,
      "hit": false,
      "t": 147119.140625,
      "d": 908.203125,
      "v": 64
    },
    {
      "midi": 67,
      "hit": false,
      "t": 147119.140625,
      "d": 927.734375,
      "v": 64
    },
    {
      "midi": 67,
      "hit": false,
      "t": 148984.375,
      "d": 966.796875,
      "v": 64
    },
    {
      "midi": 62,
      "hit": false,
      "t": 148994.140625,
      "d": 947.265625,
      "v": 64
    },
    {
      "midi": 62,
      "hit": false,
      "t": 150908.203125,
      "d": 917.96875,
      "v": 64
    },
    {
      "midi": 67,
      "hit": false,
      "t": 150908.203125,
      "d": 927.734375,
      "v": 64
    },
    {
      "midi": 62,
      "hit": false,
      "t": 152812.5,
      "d": 869.140625,
      "v": 64
    },
    {
      "midi": 67,
      "hit": false,
      "t": 152812.5,
      "d": 898.4375,
      "v": 64
    },
    {
      "midi": 43,
      "hit": false,
      "t": 153701.171875,
      "d": 3740.234375,
      "v": 54
    },
    {
      "midi": 53,
      "hit": false,
      "t": 153701.171875,
      "d": 3847.65625,
      "v": 54
    },
    {
      "midi": 50,
      "hit": false,
      "t": 153710.9375,
      "d": 3515.625,
      "v": 54
    },
    {
      "midi": 65,
      "hit": false,
      "t": 154658.203125,
      "d": 898.4375,
      "v": 64
    },
    {
      "midi": 62,
      "hit": false,
      "t": 154667.96875,
      "d": 869.140625,
      "v": 64
    },
    {
      "midi": 65,
      "hit": false,
      "t": 156542.96875,
      "d": 927.734375,
      "v": 64
    },
    {
      "midi": 62,
      "hit": false,
      "t": 156552.734375,
      "d": 908.203125,
      "v": 64
    },
    {
      "midi": 52,
      "hit": false,
      "t": 157460.9375,
      "d": 3613.28125,
      "v": 54
    },
    {
      "midi": 55,
      "hit": false,
      "t": 157480.46875,
      "d": 3505.859375,
      "v": 54
    },
    {
      "midi": 48,
      "hit": false,
      "t": 157480.46875,
      "d": 3515.625,
      "v": 54
    },
    {
      "midi": 64,
      "hit": false,
      "t": 158437.5,
      "d": 917.96875,
      "v": 64
    },
    {
      "midi": 72,
      "hit": false,
      "t": 158437.5,
      "d": 917.96875,
      "v": 64
    },
    {
      "midi": 67,
      "hit": false,
      "t": 158437.5,
      "d": 927.734375,
      "v": 64
    },
    {
      "midi": 65,
      "hit": false,
      "t": 159375,
      "d": 9.765625,
      "v": 64
    },
    {
      "midi": 64,
      "hit": false,
      "t": 159375,
      "d": 468.75,
      "v": 84
    },
    {
      "midi": 62,
      "hit": false,
      "t": 159843.75,
      "d": 585.9375,
      "v": 84
    },
    {
      "midi": 67,
      "hit": false,
      "t": 160312.5,
      "d": 117.1875,
      "v": 64
    },
    {
      "midi": 60,
      "hit": false,
      "t": 160312.5,
      "d": 537.109375,
      "v": 84
    },
    {
      "midi": 72,
      "hit": false,
      "t": 160312.5,
      "d": 957.03125,
      "v": 64
    },
    {
      "midi": 67,
      "hit": false,
      "t": 160781.25,
      "d": 488.28125,
      "v": 64
    },
    {
      "midi": 64,
      "hit": false,
      "t": 160781.25,
      "d": 498.046875,
      "v": 64
    },
    {
      "midi": 55,
      "hit": false,
      "t": 160781.25,
      "d": 664.0625,
      "v": 84
    },
    {
      "midi": 48,
      "hit": false,
      "t": 161171.875,
      "d": 3593.75,
      "v": 54
    },
    {
      "midi": 52,
      "hit": false,
      "t": 161181.640625,
      "d": 3505.859375,
      "v": 54
    },
    {
      "midi": 55,
      "hit": false,
      "t": 161191.40625,
      "d": 3583.984375,
      "v": 54
    },
    {
      "midi": 55,
      "hit": false,
      "t": 164892.578125,
      "d": 3613.28125,
      "v": 54
    },
    {
      "midi": 50,
      "hit": false,
      "t": 164951.171875,
      "d": 7236.328125,
      "v": 54
    },
    {
      "midi": 43,
      "hit": false,
      "t": 164970.703125,
      "d": 7412.109375,
      "v": 54
    },
    {
      "midi": 59,
      "hit": false,
      "t": 167773.4375,
      "d": 468.75,
      "v": 84
    },
    {
      "midi": 62,
      "hit": false,
      "t": 167783.203125,
      "d": 507.8125,
      "v": 84
    },
    {
      "midi": 64,
      "hit": false,
      "t": 168232.421875,
      "d": 468.75,
      "v": 84
    },
    {
      "midi": 60,
      "hit": false,
      "t": 168242.1875,
      "d": 488.28125,
      "v": 84
    },
    {
      "midi": 59,
      "hit": false,
      "t": 168701.171875,
      "d": 3750,
      "v": 54
    },
    {
      "midi": 62,
      "hit": false,
      "t": 168710.9375,
      "d": 2714.84375,
      "v": 84
    },
    {
      "midi": 59,
      "hit": false,
      "t": 168730.46875,
      "d": 2695.3125,
      "v": 84
    },
    {
      "midi": 50,
      "hit": false,
      "t": 172441.40625,
      "d": 3652.34375,
      "v": 54
    },
    {
      "midi": 57,
      "hit": false,
      "t": 172451.171875,
      "d": 3525.390625,
      "v": 54
    },
    {
      "midi": 54,
      "hit": false,
      "t": 172470.703125,
      "d": 3603.515625,
      "v": 54
    },
    {
      "midi": 60,
      "hit": false,
      "t": 174316.40625,
      "d": 615.234375,
      "v": 84
    },
    {
      "midi": 52,
      "hit": false,
      "t": 174335.9375,
      "d": 576.171875,
      "v": 84
    },
    {
      "midi": 54,
      "hit": false,
      "t": 174853.515625,
      "d": 166.015625,
      "v": 84
    },
    {
      "midi": 62,
      "hit": false,
      "t": 174853.515625,
      "d": 205.078125,
      "v": 84
    },
    {
      "midi": 54,
      "hit": false,
      "t": 175312.5,
      "d": 927.734375,
      "v": 84
    },
    {
      "midi": 62,
      "hit": false,
      "t": 175312.5,
      "d": 947.265625,
      "v": 84
    },
    {
      "midi": 59,
      "hit": false,
      "t": 176250,
      "d": 3828.125,
      "v": 54
    },
    {
      "midi": 57,
      "hit": false,
      "t": 176269.53125,
      "d": 9.765625,
      "v": 54
    },
    {
      "midi": 43,
      "hit": false,
      "t": 176269.53125,
      "d": 11259.765625,
      "v": 54
    },
    {
      "midi": 50,
      "hit": false,
      "t": 176279.296875,
      "d": 11240.234375,
      "v": 54
    },
    {
      "midi": 55,
      "hit": false,
      "t": 179970.703125,
      "d": 3769.53125,
      "v": 54
    },
    {
      "midi": 76,
      "hit": false,
      "t": 181875,
      "d": 419.921875,
      "v": 84
    },
    {
      "midi": 72,
      "hit": false,
      "t": 181884.765625,
      "d": 439.453125,
      "v": 84
    },
    {
      "midi": 74,
      "hit": false,
      "t": 182304.6875,
      "d": 478.515625,
      "v": 84
    },
    {
      "midi": 76,
      "hit": false,
      "t": 182324.21875,
      "d": 39.0625,
      "v": 84
    },
    {
      "midi": 71,
      "hit": false,
      "t": 182324.21875,
      "d": 449.21875,
      "v": 84
    },
    {
      "midi": 69,
      "hit": false,
      "t": 182783.203125,
      "d": 937.5,
      "v": 84
    },
    {
      "midi": 72,
      "hit": false,
      "t": 182783.203125,
      "d": 957.03125,
      "v": 84
    },
    {
      "midi": 74,
      "hit": false,
      "t": 183671.875,
      "d": 3183.59375,
      "v": 84
    },
    {
      "midi": 71,
      "hit": false,
      "t": 183720.703125,
      "d": 3125,
      "v": 84
    },
    {
      "midi": 53,
      "hit": false,
      "t": 183740.234375,
      "d": 3750,
      "v": 54
    },
    {
      "midi": 52,
      "hit": false,
      "t": 187460.9375,
      "d": 7509.765625,
      "v": 54
    },
    {
      "midi": 55,
      "hit": false,
      "t": 187470.703125,
      "d": 11318.359375,
      "v": 54
    },
    {
      "midi": 48,
      "hit": false,
      "t": 187490.234375,
      "d": 7275.390625,
      "v": 54
    },
    {
      "midi": 91,
      "hit": false,
      "t": 189287.109375,
      "d": 5156.25,
      "v": 84
    },
    {
      "midi": 86,
      "hit": false,
      "t": 190273.4375,
      "d": 966.796875,
      "v": 84
    },
    {
      "midi": 60,
      "hit": false,
      "t": 191210.9375,
      "d": 3691.40625,
      "v": 54
    },
    {
      "midi": 84,
      "hit": false,
      "t": 191210.9375,
      "d": 3271.484375,
      "v": 84
    },
    {
      "midi": 59,
      "hit": false,
      "t": 194951.171875,
      "d": 3564.453125,
      "v": 54
    },
    {
      "midi": 43,
      "hit": false,
      "t": 194960.9375,
      "d": 3720.703125,
      "v": 54
    },
    {
      "midi": 50,
      "hit": false,
      "t": 195000,
      "d": 3349.609375,
      "v": 54
    },
    {
      "midi": 86,
      "hit": false,
      "t": 197773.4375,
      "d": 107.421875,
      "v": 84
    },
    {
      "midi": 88,
      "hit": false,
      "t": 197841.796875,
      "d": 908.203125,
      "v": 84
    },
    {
      "midi": 50,
      "hit": false,
      "t": 198710.9375,
      "d": 3339.84375,
      "v": 54
    },
    {
      "midi": 54,
      "hit": false,
      "t": 198730.46875,
      "d": 1669.921875,
      "v": 54
    },
    {
      "midi": 57,
      "hit": false,
      "t": 198740.234375,
      "d": 3310.546875,
      "v": 54
    },
    {
      "midi": 86,
      "hit": false,
      "t": 198740.234375,
      "d": 2851.5625,
      "v": 84
    },
    {
      "midi": 86,
      "hit": false,
      "t": 201611.328125,
      "d": 19.53125,
      "v": 84
    },
    {
      "midi": 55,
      "hit": false,
      "t": 202500,
      "d": 3457.03125,
      "v": 54
    },
    {
      "midi": 59,
      "hit": false,
      "t": 202500,
      "d": 3457.03125,
      "v": 54
    },
    {
      "midi": 50,
      "hit": false,
      "t": 202500,
      "d": 3476.5625,
      "v": 54
    },
    {
      "midi": 43,
      "hit": false,
      "t": 202500,
      "d": 3525.390625,
      "v": 54
    },
    {
      "midi": 52,
      "hit": false,
      "t": 206250,
      "d": 9111.328125,
      "v": 54
    },
    {
      "midi": 60,
      "hit": false,
      "t": 206250,
      "d": 9111.328125,
      "v": 54
    },
    {
      "midi": 55,
      "hit": false,
      "t": 206250,
      "d": 9140.625,
      "v": 54
    },
    {
      "midi": 48,
      "hit": false,
      "t": 206250,
      "d": 9169.921875,
      "v": 54
    },
    {
      "midi": 48,
      "hit": false,
      "t": 215546.875,
      "d": 595.703125,
      "v": 54
    },
    {
      "midi": 64,
      "hit": false,
      "t": 215566.40625,
      "d": 566.40625,
      "v": 54
    },
    {
      "midi": 79,
      "hit": false,
      "t": 215615.234375,
      "d": 468.75,
      "v": 84
    },
    {
      "midi": 76,
      "hit": false,
      "t": 215615.234375,
      "d": 507.8125,
      "v": 84
    },
    {
      "midi": 72,
      "hit": false,
      "t": 215615.234375,
      "d": 546.875,
      "v": 84
    },
    {
      "midi": 62,
      "hit": false,
      "t": 216044.921875,
      "d": 556.640625,
      "v": 54
    },
    {
      "midi": 47,
      "hit": false,
      "t": 216074.21875,
      "d": 517.578125,
      "v": 54
    },
    {
      "midi": 78,
      "hit": false,
      "t": 216093.75,
      "d": 507.8125,
      "v": 84
    },
    {
      "midi": 74,
      "hit": false,
      "t": 216103.515625,
      "d": 341.796875,
      "v": 84
    },
    {
      "midi": 71,
      "hit": false,
      "t": 216113.28125,
      "d": 478.515625,
      "v": 84
    },
    {
      "midi": 60,
      "hit": false,
      "t": 216542.96875,
      "d": 927.734375,
      "v": 54
    },
    {
      "midi": 45,
      "hit": false,
      "t": 216542.96875,
      "d": 957.03125,
      "v": 54
    },
    {
      "midi": 72,
      "hit": false,
      "t": 216582.03125,
      "d": 693.359375,
      "v": 84
    },
    {
      "midi": 69,
      "hit": false,
      "t": 216582.03125,
      "d": 937.5,
      "v": 84
    },
    {
      "midi": 76,
      "hit": false,
      "t": 216582.03125,
      "d": 947.265625,
      "v": 84
    },
    {
      "midi": 55,
      "hit": false,
      "t": 217451.171875,
      "d": 11367.1875,
      "v": 54
    },
    {
      "midi": 59,
      "hit": false,
      "t": 217460.9375,
      "d": 11093.75,
      "v": 54
    },
    {
      "midi": 43,
      "hit": false,
      "t": 217460.9375,
      "d": 11279.296875,
      "v": 54
    },
    {
      "midi": 67,
      "hit": false,
      "t": 217490.234375,
      "d": 3525.390625,
      "v": 84
    },
    {
      "midi": 74,
      "hit": false,
      "t": 217490.234375,
      "d": 3583.984375,
      "v": 84
    },
    {
      "midi": 71,
      "hit": false,
      "t": 217490.234375,
      "d": 3593.75,
      "v": 84
    },
    {
      "midi": 83,
      "hit": false,
      "t": 223583.984375,
      "d": 4804.6875,
      "v": 84
    },
    {
      "midi": 81,
      "hit": false,
      "t": 224072.265625,
      "d": 458.984375,
      "v": 84
    },
    {
      "midi": 79,
      "hit": false,
      "t": 224501.953125,
      "d": 3886.71875,
      "v": 84
    },
    {
      "midi": 74,
      "hit": false,
      "t": 224980.46875,
      "d": 3427.734375,
      "v": 84
    },
    {
      "midi": 50,
      "hit": false,
      "t": 228691.40625,
      "d": 3632.8125,
      "v": 54
    },
    {
      "midi": 54,
      "hit": false,
      "t": 228710.9375,
      "d": 3515.625,
      "v": 54
    },
    {
      "midi": 57,
      "hit": false,
      "t": 228740.234375,
      "d": 3417.96875,
      "v": 54
    },
    {
      "midi": 62,
      "hit": false,
      "t": 229638.671875,
      "d": 507.8125,
      "v": 84
    },
    {
      "midi": 66,
      "hit": false,
      "t": 229667.96875,
      "d": 410.15625,
      "v": 84
    },
    {
      "midi": 67,
      "hit": false,
      "t": 230097.65625,
      "d": 537.109375,
      "v": 84
    },
    {
      "midi": 64,
      "hit": false,
      "t": 230126.953125,
      "d": 439.453125,
      "v": 84
    },
    {
      "midi": 66,
      "hit": false,
      "t": 230585.9375,
      "d": 849.609375,
      "v": 84
    },
    {
      "midi": 69,
      "hit": false,
      "t": 230585.9375,
      "d": 1914.0625,
      "v": 84
    },
    {
      "midi": 72,
      "hit": false,
      "t": 231484.375,
      "d": 1044.921875,
      "v": 84
    },
    {
      "midi": 55,
      "hit": false,
      "t": 232392.578125,
      "d": 10820.3125,
      "v": 54
    },
    {
      "midi": 59,
      "hit": false,
      "t": 232402.34375,
      "d": 7441.40625,
      "v": 54
    },
    {
      "midi": 43,
      "hit": false,
      "t": 232412.109375,
      "d": 7460.9375,
      "v": 54
    },
    {
      "midi": 67,
      "hit": false,
      "t": 232441.40625,
      "d": 3437.5,
      "v": 84
    },
    {
      "midi": 71,
      "hit": false,
      "t": 232451.171875,
      "d": 3417.96875,
      "v": 84
    },
    {
      "midi": 71,
      "hit": false,
      "t": 237167.96875,
      "d": 888.671875,
      "v": 84
    },
    {
      "midi": 74,
      "hit": false,
      "t": 237167.96875,
      "d": 888.671875,
      "v": 84
    },
    {
      "midi": 72,
      "hit": false,
      "t": 238046.875,
      "d": 966.796875,
      "v": 84
    },
    {
      "midi": 69,
      "hit": false,
      "t": 238056.640625,
      "d": 957.03125,
      "v": 84
    },
    {
      "midi": 71,
      "hit": false,
      "t": 238066.40625,
      "d": 29.296875,
      "v": 84
    },
    {
      "midi": 67,
      "hit": false,
      "t": 239033.203125,
      "d": 625,
      "v": 84
    },
    {
      "midi": 71,
      "hit": false,
      "t": 239052.734375,
      "d": 869.140625,
      "v": 84
    },
    {
      "midi": 52,
      "hit": false,
      "t": 239853.515625,
      "d": 3330.078125,
      "v": 54
    },
    {
      "midi": 48,
      "hit": false,
      "t": 239873.046875,
      "d": 3261.71875,
      "v": 54
    },
    {
      "midi": 64,
      "hit": false,
      "t": 239960.9375,
      "d": 3115.234375,
      "v": 84
    },
    {
      "midi": 60,
      "hit": false,
      "t": 239980.46875,
      "d": 2988.28125,
      "v": 84
    },
    {
      "midi": 47,
      "hit": false,
      "t": 243222.65625,
      "d": 507.8125,
      "v": 54
    },
    {
      "midi": 59,
      "hit": false,
      "t": 243242.1875,
      "d": 78.125,
      "v": 84
    },
    {
      "midi": 62,
      "hit": false,
      "t": 243242.1875,
      "d": 107.421875,
      "v": 84
    },
    {
      "midi": 57,
      "hit": false,
      "t": 243701.171875,
      "d": 2871.09375,
      "v": 84
    },
    {
      "midi": 45,
      "hit": false,
      "t": 243710.9375,
      "d": 3769.53125,
      "v": 54
    },
    {
      "midi": 60,
      "hit": false,
      "t": 243710.9375,
      "d": 2851.5625,
      "v": 84
    },
    {
      "midi": 59,
      "hit": false,
      "t": 247402.34375,
      "d": 3847.65625,
      "v": 54
    },
    {
      "midi": 43,
      "hit": false,
      "t": 247412.109375,
      "d": 3857.421875,
      "v": 54
    },
    {
      "midi": 50,
      "hit": false,
      "t": 247412.109375,
      "d": 7353.515625,
      "v": 54
    },
    {
      "midi": 74,
      "hit": false,
      "t": 249316.40625,
      "d": 5136.71875,
      "v": 84
    },
    {
      "midi": 79,
      "hit": false,
      "t": 249814.453125,
      "d": 1484.375,
      "v": 84
    },
    {
      "midi": 81,
      "hit": false,
      "t": 250302.734375,
      "d": 439.453125,
      "v": 84
    },
    {
      "midi": 83,
      "hit": false,
      "t": 250732.421875,
      "d": 507.8125,
      "v": 84
    },
    {
      "midi": 54,
      "hit": false,
      "t": 251191.40625,
      "d": 3242.1875,
      "v": 54
    },
    {
      "midi": 57,
      "hit": false,
      "t": 251191.40625,
      "d": 3583.984375,
      "v": 54
    },
    {
      "midi": 86,
      "hit": false,
      "t": 251201.171875,
      "d": 3212.890625,
      "v": 84
    },
    {
      "midi": 78,
      "hit": false,
      "t": 251210.9375,
      "d": 3232.421875,
      "v": 84
    },
    {
      "midi": 81,
      "hit": false,
      "t": 251210.9375,
      "d": 3251.953125,
      "v": 84
    },
    {
      "midi": 50,
      "hit": false,
      "t": 254941.40625,
      "d": 3525.390625,
      "v": 54
    },
    {
      "midi": 55,
      "hit": false,
      "t": 254941.40625,
      "d": 5263.671875,
      "v": 54
    },
    {
      "midi": 55,
      "hit": false,
      "t": 255000,
      "d": 1621.09375,
      "v": 84
    },
    {
      "midi": 59,
      "hit": false,
      "t": 255000,
      "d": 1679.6875,
      "v": 84
    },
    {
      "midi": 43,
      "hit": false,
      "t": 255000,
      "d": 1718.75,
      "v": 84
    },
    {
      "midi": 55,
      "hit": false,
      "t": 256865.234375,
      "d": 742.1875,
      "v": 84
    },
    {
      "midi": 59,
      "hit": false,
      "t": 256865.234375,
      "d": 810.546875,
      "v": 84
    },
    {
      "midi": 43,
      "hit": false,
      "t": 256865.234375,
      "d": 1884.765625,
      "v": 84
    },
    {
      "midi": 59,
      "hit": false,
      "t": 257792.96875,
      "d": 673.828125,
      "v": 84
    },
    {
      "midi": 62,
      "hit": false,
      "t": 257792.96875,
      "d": 917.96875,
      "v": 84
    },
    {
      "midi": 55,
      "hit": false,
      "t": 257802.734375,
      "d": 820.3125,
      "v": 84
    },
    {
      "midi": 67,
      "hit": false,
      "t": 257812.5,
      "d": 732.421875,
      "v": 84
    },
    {
      "midi": 55,
      "hit": false,
      "t": 258730.46875,
      "d": 3466.796875,
      "v": 84
    },
    {
      "midi": 67,
      "hit": false,
      "t": 258740.234375,
      "d": 3457.03125,
      "v": 84
    },
    {
      "midi": 64,
      "hit": false,
      "t": 258740.234375,
      "d": 3593.75,
      "v": 84
    },
    {
      "midi": 60,
      "hit": false,
      "t": 258759.765625,
      "d": 3417.96875,
      "v": 84
    },
    {
      "midi": 48,
      "hit": false,
      "t": 258759.765625,
      "d": 3583.984375,
      "v": 84
    },
    {
      "midi": 62,
      "hit": false,
      "t": 262470.703125,
      "d": 3486.328125,
      "v": 84
    },
    {
      "midi": 59,
      "hit": false,
      "t": 262480.46875,
      "d": 3437.5,
      "v": 84
    },
    {
      "midi": 43,
      "hit": false,
      "t": 262480.46875,
      "d": 3642.578125,
      "v": 84
    },
    {
      "midi": 55,
      "hit": false,
      "t": 262490.234375,
      "d": 3320.3125,
      "v": 84
    },
    {
      "midi": 74,
      "hit": false,
      "t": 264355.46875,
      "d": 5205.078125,
      "v": 84
    },
    {
      "midi": 79,
      "hit": false,
      "t": 264843.75,
      "d": 1425.78125,
      "v": 84
    },
    {
      "midi": 81,
      "hit": false,
      "t": 265341.796875,
      "d": 390.625,
      "v": 84
    },
    {
      "midi": 83,
      "hit": false,
      "t": 265742.1875,
      "d": 498.046875,
      "v": 84
    },
    {
      "midi": 81,
      "hit": false,
      "t": 266201.171875,
      "d": 3369.140625,
      "v": 84
    },
    {
      "midi": 86,
      "hit": false,
      "t": 266220.703125,
      "d": 3310.546875,
      "v": 84
    },
    {
      "midi": 62,
      "hit": false,
      "t": 266220.703125,
      "d": 3496.09375,
      "v": 84
    },
    {
      "midi": 78,
      "hit": false,
      "t": 266230.46875,
      "d": 3320.3125,
      "v": 84
    },
    {
      "midi": 66,
      "hit": false,
      "t": 266230.46875,
      "d": 3476.5625,
      "v": 84
    },
    {
      "midi": 57,
      "hit": false,
      "t": 266240.234375,
      "d": 3486.328125,
      "v": 84
    },
    {
      "midi": 50,
      "hit": false,
      "t": 266240.234375,
      "d": 3515.625,
      "v": 84
    },
    {
      "midi": 31,
      "hit": false,
      "t": 270000,
      "d": 1562.5,
      "v": 84
    },
    {
      "midi": 38,
      "hit": false,
      "t": 271826.171875,
      "d": 507.8125,
      "v": 84
    },
    {
      "midi": 40,
      "hit": false,
      "t": 272363.28125,
      "d": 1386.71875,
      "v": 84
    },
    {
      "midi": 43,
      "hit": false,
      "t": 273740.234375,
      "d": 1826.171875,
      "v": 84
    },
    {
      "midi": 38,
      "hit": false,
      "t": 275576.171875,
      "d": 488.28125,
      "v": 84
    },
    {
      "midi": 40,
      "hit": false,
      "t": 276083.984375,
      "d": 1005.859375,
      "v": 84
    },
    {
      "midi": 38,
      "hit": false,
      "t": 277041.015625,
      "d": 439.453125,
      "v": 84
    },
    {
      "midi": 31,
      "hit": false,
      "t": 277519.53125,
      "d": 1611.328125,
      "v": 84
    },
    {
      "midi": 53,
      "hit": false,
      "t": 279257.8125,
      "d": 166.015625,
      "v": 84
    },
    {
      "midi": 57,
      "hit": false,
      "t": 279365.234375,
      "d": 654.296875,
      "v": 84
    },
    {
      "midi": 54,
      "hit": false,
      "t": 279375,
      "d": 791.015625,
      "v": 84
    },
    {
      "midi": 62,
      "hit": false,
      "t": 279853.515625,
      "d": 419.921875,
      "v": 84
    },
    {
      "midi": 51,
      "hit": false,
      "t": 280185.546875,
      "d": 146.484375,
      "v": 84
    },
    {
      "midi": 55,
      "hit": false,
      "t": 280312.5,
      "d": 605.46875,
      "v": 84
    },
    {
      "midi": 52,
      "hit": false,
      "t": 280332.03125,
      "d": 878.90625,
      "v": 84
    },
    {
      "midi": 60,
      "hit": false,
      "t": 280742.1875,
      "d": 449.21875,
      "v": 84
    },
    {
      "midi": 55,
      "hit": false,
      "t": 281201.171875,
      "d": 3798.828125,
      "v": 84
    },
    {
      "midi": 59,
      "hit": false,
      "t": 281210.9375,
      "d": 3789.0625,
      "v": 84
    },
    {
      "midi": 50,
      "hit": false,
      "t": 281220.703125,
      "d": 3779.296875,
      "v": 84
    }
  ]
}