{
  "jsonPath": "Animes/Flame Of Recca MIDI Collection/opening.json",
  "path": "Animes\\Flame Of Recca MIDI Collection\\Opening.mid",
  "name": "Opening",
  "difficulty": "Advanced",
  "bpm": 163.9998469334762,
  "notes": [
    {
      "midi": 65,
      "hit": false,
      "t": 182.927,
      "d": 91.46349999999998,
      "v": 100
    },
    {
      "midi": 57,
      "hit": false,
      "t": 182.927,
      "d": 91.46349999999998,
      "v": 100
    },
    {
      "midi": 48,
      "hit": false,
      "t": 182.927,
      "d": 91.46349999999998,
      "v": 100
    },
    {
      "midi": 53,
      "hit": false,
      "t": 182.927,
      "d": 91.46349999999998,
      "v": 100
    },
    {
      "midi": 60,
      "hit": false,
      "t": 182.927,
      "d": 91.46349999999998,
      "v": 100
    },
    {
      "midi": 65,
      "hit": false,
      "t": 182.927,
      "d": 91.46349999999998,
      "v": 100
    },
    {
      "midi": 57,
      "hit": false,
      "t": 182.927,
      "d": 91.46349999999998,
      "v": 100
    },
    {
      "midi": 48,
      "hit": false,
      "t": 182.927,
      "d": 91.46349999999998,
      "v": 100
    },
    {
      "midi": 53,
      "hit": false,
      "t": 182.927,
      "d": 91.46349999999998,
      "v": 100
    },
    {
      "midi": 60,
      "hit": false,
      "t": 182.927,
      "d": 91.46349999999998,
      "v": 100
    },
    {
      "midi": 65,
      "hit": false,
      "t": 274.3905,
      "d": 91.46350000000001,
      "v": 100
    },
    {
      "midi": 57,
      "hit": false,
      "t": 274.3905,
      "d": 91.46350000000001,
      "v": 100
    },
    {
      "midi": 48,
      "hit": false,
      "t": 274.3905,
      "d": 91.46350000000001,
      "v": 100
    },
    {
      "midi": 53,
      "hit": false,
      "t": 274.3905,
      "d": 91.46350000000001,
      "v": 100
    },
    {
      "midi": 60,
      "hit": false,
      "t": 274.3905,
      "d": 91.46350000000001,
      "v": 100
    },
    {
      "midi": 65,
      "hit": false,
      "t": 274.3905,
      "d": 91.46350000000001,
      "v": 100
    },
    {
      "midi": 57,
      "hit": false,
      "t": 274.3905,
      "d": 91.46350000000001,
      "v": 100
    },
    {
      "midi": 48,
      "hit": false,
      "t": 274.3905,
      "d": 91.46350000000001,
      "v": 100
    },
    {
      "midi": 53,
      "hit": false,
      "t": 274.3905,
      "d": 91.46350000000001,
      "v": 100
    },
    {
      "midi": 60,
      "hit": false,
      "t": 274.3905,
      "d": 91.46350000000001,
      "v": 100
    },
    {
      "midi": 48,
      "hit": false,
      "t": 365.854,
      "d": 1463.416,
      "v": 100
    },
    {
      "midi": 57,
      "hit": false,
      "t": 365.854,
      "d": 1463.416,
      "v": 100
    },
    {
      "midi": 65,
      "hit": false,
      "t": 365.854,
      "d": 1463.416,
      "v": 100
    },
    {
      "midi": 60,
      "hit": false,
      "t": 365.854,
      "d": 1463.416,
      "v": 100
    },
    {
      "midi": 53,
      "hit": false,
      "t": 365.854,
      "d": 1463.416,
      "v": 100
    },
    {
      "midi": 48,
      "hit": false,
      "t": 365.854,
      "d": 1463.416,
      "v": 100
    },
    {
      "midi": 57,
      "hit": false,
      "t": 365.854,
      "d": 1463.416,
      "v": 100
    },
    {
      "midi": 65,
      "hit": false,
      "t": 365.854,
      "d": 1463.416,
      "v": 100
    },
    {
      "midi": 60,
      "hit": false,
      "t": 365.854,
      "d": 1463.416,
      "v": 100
    },
    {
      "midi": 53,
      "hit": false,
      "t": 365.854,
      "d": 1463.416,
      "v": 100
    },
    {
      "midi": 65,
      "hit": false,
      "t": 365.854,
      "d": 365.854,
      "v": 100
    },
    {
      "midi": 29,
      "hit": false,
      "t": 365.854,
      "d": 1463.416,
      "v": 100
    },
    {
      "midi": 36,
      "hit": false,
      "t": 365.854,
      "d": 731.7079999999999,
      "v": 100
    },
    {
      "midi": 49,
      "hit": false,
      "t": 365.854,
      "d": 731.7079999999999,
      "v": 100
    },
    {
      "midi": 60,
      "hit": false,
      "t": 731.708,
      "d": 365.8539999999999,
      "v": 100
    },
    {
      "midi": 62,
      "hit": false,
      "t": 1097.562,
      "d": 182.9269999999999,
      "v": 100
    },
    {
      "midi": 60,
      "hit": false,
      "t": 1280.4889999999998,
      "d": 182.9269999999999,
      "v": 100
    },
    {
      "midi": 58,
      "hit": false,
      "t": 1463.4159999999997,
      "d": 182.9269999999999,
      "v": 100
    },
    {
      "midi": 62,
      "hit": false,
      "t": 1646.3429999999996,
      "d": 182.9269999999999,
      "v": 100
    },
    {
      "midi": 60,
      "hit": false,
      "t": 1829.2699999999995,
      "d": 182.9269999999999,
      "v": 100
    },
    {
      "midi": 65,
      "hit": false,
      "t": 1829.27,
      "d": 548.781,
      "v": 100
    },
    {
      "midi": 46,
      "hit": false,
      "t": 1829.27,
      "d": 548.781,
      "v": 100
    },
    {
      "midi": 58,
      "hit": false,
      "t": 1829.27,
      "d": 548.781,
      "v": 100
    },
    {
      "midi": 53,
      "hit": false,
      "t": 1829.27,
      "d": 548.781,
      "v": 100
    },
    {
      "midi": 62,
      "hit": false,
      "t": 1829.27,
      "d": 548.781,
      "v": 100
    },
    {
      "midi": 65,
      "hit": false,
      "t": 1829.27,
      "d": 548.781,
      "v": 100
    },
    {
      "midi": 46,
      "hit": false,
      "t": 1829.27,
      "d": 548.781,
      "v": 100
    },
    {
      "midi": 58,
      "hit": false,
      "t": 1829.27,
      "d": 548.781,
      "v": 100
    },
    {
      "midi": 53,
      "hit": false,
      "t": 1829.27,
      "d": 548.781,
      "v": 100
    },
    {
      "midi": 62,
      "hit": false,
      "t": 1829.27,
      "d": 548.781,
      "v": 100
    },
    {
      "midi": 34,
      "hit": false,
      "t": 1829.27,
      "d": 548.781,
      "v": 100
    },
    {
      "midi": 36,
      "hit": false,
      "t": 1829.27,
      "d": 548.781,
      "v": 100
    },
    {
      "midi": 49,
      "hit": false,
      "t": 1829.27,
      "d": 548.781,
      "v": 100
    },
    {
      "midi": 58,
      "hit": false,
      "t": 2012.1969999999994,
      "d": 182.9269999999999,
      "v": 100
    },
    {
      "midi": 57,
      "hit": false,
      "t": 2195.1239999999993,
      "d": 182.92700000000013,
      "v": 100
    },
    {
      "midi": 55,
      "hit": false,
      "t": 2378.0509999999995,
      "d": 914.6349999999998,
      "v": 100
    },
    {
      "midi": 67,
      "hit": false,
      "t": 2378.051,
      "d": 731.7080000000001,
      "v": 100
    },
    {
      "midi": 64,
      "hit": false,
      "t": 2378.051,
      "d": 731.7080000000001,
      "v": 100
    },
    {
      "midi": 55,
      "hit": false,
      "t": 2378.051,
      "d": 731.7080000000001,
      "v": 100
    },
    {
      "midi": 48,
      "hit": false,
      "t": 2378.051,
      "d": 731.7080000000001,
      "v": 100
    },
    {
      "midi": 60,
      "hit": false,
      "t": 2378.051,
      "d": 731.7080000000001,
      "v": 100
    },
    {
      "midi": 67,
      "hit": false,
      "t": 2378.051,
      "d": 731.7080000000001,
      "v": 100
    },
    {
      "midi": 64,
      "hit": false,
      "t": 2378.051,
      "d": 731.7080000000001,
      "v": 100
    },
    {
      "midi": 55,
      "hit": false,
      "t": 2378.051,
      "d": 731.7080000000001,
      "v": 100
    },
    {
      "midi": 48,
      "hit": false,
      "t": 2378.051,
      "d": 731.7080000000001,
      "v": 100
    },
    {
      "midi": 60,
      "hit": false,
      "t": 2378.051,
      "d": 731.7080000000001,
      "v": 100
    },
    {
      "midi": 36,
      "hit": false,
      "t": 2378.051,
      "d": 548.781,
      "v": 100
    },
    {
      "midi": 36,
      "hit": false,
      "t": 2378.051,
      "d": 365.8539999999998,
      "v": 100
    },
    {
      "midi": 49,
      "hit": false,
      "t": 2378.051,
      "d": 731.7079999999996,
      "v": 100
    },
    {
      "midi": 36,
      "hit": false,
      "t": 2743.9049999999997,
      "d": 91.46349999999984,
      "v": 100
    },
    {
      "midi": 36,
      "hit": false,
      "t": 2835.3684999999996,
      "d": 91.46349999999984,
      "v": 100
    },
    {
      "midi": 40,
      "hit": false,
      "t": 2926.8319999999994,
      "d": 365.85400000000027,
      "v": 100
    },
    {
      "midi": 39,
      "hit": false,
      "t": 2926.832,
      "d": 365.8539999999989,
      "v": 100
    },
    {
      "midi": 65,
      "hit": false,
      "t": 3109.759,
      "d": 91.46349999999984,
      "v": 80
    },
    {
      "midi": 57,
      "hit": false,
      "t": 3109.759,
      "d": 91.46349999999984,
      "v": 80
    },
    {
      "midi": 69,
      "hit": false,
      "t": 3109.759,
      "d": 91.46349999999984,
      "v": 80
    },
    {
      "midi": 62,
      "hit": false,
      "t": 3109.759,
      "d": 91.46349999999984,
      "v": 80
    },
    {
      "midi": 50,
      "hit": false,
      "t": 3109.759,
      "d": 91.46349999999984,
      "v": 80
    },
    {
      "midi": 65,
      "hit": false,
      "t": 3109.759,
      "d": 91.46349999999984,
      "v": 80
    },
    {
      "midi": 57,
      "hit": false,
      "t": 3109.759,
      "d": 91.46349999999984,
      "v": 80
    },
    {
      "midi": 69,
      "hit": false,
      "t": 3109.759,
      "d": 91.46349999999984,
      "v": 80
    },
    {
      "midi": 62,
      "hit": false,
      "t": 3109.759,
      "d": 91.46349999999984,
      "v": 80
    },
    {
      "midi": 50,
      "hit": false,
      "t": 3109.759,
      "d": 91.46349999999984,
      "v": 80
    },
    {
      "midi": 65,
      "hit": false,
      "t": 3201.2225,
      "d": 91.46349999999984,
      "v": 80
    },
    {
      "midi": 50,
      "hit": false,
      "t": 3201.2225,
      "d": 91.46349999999984,
      "v": 80
    },
    {
      "midi": 57,
      "hit": false,
      "t": 3201.2225,
      "d": 91.46349999999984,
      "v": 80
    },
    {
      "midi": 69,
      "hit": false,
      "t": 3201.2225,
      "d": 91.46349999999984,
      "v": 80
    },
    {
      "midi": 62,
      "hit": false,
      "t": 3201.2225,
      "d": 91.46349999999984,
      "v": 80
    },
    {
      "midi": 65,
      "hit": false,
      "t": 3201.2225,
      "d": 91.46349999999984,
      "v": 80
    },
    {
      "midi": 50,
      "hit": false,
      "t": 3201.2225,
      "d": 91.46349999999984,
      "v": 80
    },
    {
      "midi": 57,
      "hit": false,
      "t": 3201.2225,
      "d": 91.46349999999984,
      "v": 80
    },
    {
      "midi": 69,
      "hit": false,
      "t": 3201.2225,
      "d": 91.46349999999984,
      "v": 80
    },
    {
      "midi": 62,
      "hit": false,
      "t": 3201.2225,
      "d": 91.46349999999984,
      "v": 80
    },
    {
      "midi": 38,
      "hit": false,
      "t": 3292.685999999999,
      "d": 182.92700000000013,
      "v": 100
    },
    {
      "midi": 65,
      "hit": false,
      "t": 3292.6859999999992,
      "d": 365.8539999999998,
      "v": 100
    },
    {
      "midi": 50,
      "hit": false,
      "t": 3292.6859999999997,
      "d": 365.8539999999998,
      "v": 100
    },
    {
      "midi": 62,
      "hit": false,
      "t": 3292.6859999999997,
      "d": 365.8539999999998,
      "v": 100
    },
    {
      "midi": 69,
      "hit": false,
      "t": 3292.6859999999997,
      "d": 365.8539999999998,
      "v": 100
    },
    {
      "midi": 65,
      "hit": false,
      "t": 3292.6859999999997,
      "d": 365.8539999999998,
      "v": 100
    },
    {
      "midi": 57,
      "hit": false,
      "t": 3292.6859999999997,
      "d": 365.8539999999998,
      "v": 100
    },
    {
      "midi": 50,
      "hit": false,
      "t": 3292.6859999999997,
      "d": 365.8539999999998,
      "v": 100
    },
    {
      "midi": 62,
      "hit": false,
      "t": 3292.6859999999997,
      "d": 365.8539999999998,
      "v": 100
    },
    {
      "midi": 69,
      "hit": false,
      "t": 3292.6859999999997,
      "d": 365.8539999999998,
      "v": 100
    },
    {
      "midi": 65,
      "hit": false,
      "t": 3292.6859999999997,
      "d": 365.8539999999998,
      "v": 100
    },
    {
      "midi": 57,
      "hit": false,
      "t": 3292.6859999999997,
      "d": 365.8539999999998,
      "v": 100
    },
    {
      "midi": 36,
      "hit": false,
      "t": 3292.6859999999997,
      "d": 365.85400000000027,
      "v": 100
    },
    {
      "midi": 39,
      "hit": false,
      "t": 3292.6859999999997,
      "d": 365.85400000000027,
      "v": 90
    },
    {
      "midi": 49,
      "hit": false,
      "t": 3292.6859999999997,
      "d": 731.7080000000005,
      "v": 100
    },
    {
      "midi": 38,
      "hit": false,
      "t": 3475.612999999999,
      "d": 182.92700000000013,
      "v": 100
    },
    {
      "midi": 46,
      "hit": false,
      "t": 3475.613,
      "d": 182.92700000000013,
      "v": 80
    },
    {
      "midi": 60,
      "hit": false,
      "t": 3658.539999999999,
      "d": 365.8539999999998,
      "v": 100
    },
    {
      "midi": 38,
      "hit": false,
      "t": 3658.539999999999,
      "d": 182.92700000000013,
      "v": 100
    },
    {
      "midi": 65,
      "hit": false,
      "t": 3658.5399999999995,
      "d": 365.8539999999998,
      "v": 100
    },
    {
      "midi": 62,
      "hit": false,
      "t": 3658.5399999999995,
      "d": 365.8539999999998,
      "v": 100
    },
    {
      "midi": 69,
      "hit": false,
      "t": 3658.5399999999995,
      "d": 365.8539999999998,
      "v": 100
    },
    {
      "midi": 57,
      "hit": false,
      "t": 3658.5399999999995,
      "d": 365.8539999999998,
      "v": 100
    },
    {
      "midi": 50,
      "hit": false,
      "t": 3658.5399999999995,
      "d": 365.8539999999998,
      "v": 100
    },
    {
      "midi": 65,
      "hit": false,
      "t": 3658.5399999999995,
      "d": 365.8539999999998,
      "v": 100
    },
    {
      "midi": 62,
      "hit": false,
      "t": 3658.5399999999995,
      "d": 365.8539999999998,
      "v": 100
    },
    {
      "midi": 69,
      "hit": false,
      "t": 3658.5399999999995,
      "d": 365.8539999999998,
      "v": 100
    },
    {
      "midi": 57,
      "hit": false,
      "t": 3658.5399999999995,
      "d": 365.8539999999998,
      "v": 100
    },
    {
      "midi": 50,
      "hit": false,
      "t": 3658.5399999999995,
      "d": 365.8539999999998,
      "v": 100
    },
    {
      "midi": 46,
      "hit": false,
      "t": 3658.54,
      "d": 182.92700000000013,
      "v": 80
    },
    {
      "midi": 39,
      "hit": false,
      "t": 3658.54,
      "d": 365.85400000000027,
      "v": 90
    },
    {
      "midi": 40,
      "hit": false,
      "t": 3658.54,
      "d": 365.85400000000027,
      "v": 100
    },
    {
      "midi": 38,
      "hit": false,
      "t": 3841.466999999999,
      "d": 182.92700000000013,
      "v": 100
    },
    {
      "midi": 46,
      "hit": false,
      "t": 3841.467,
      "d": 182.92700000000013,
      "v": 80
    },
    {
      "midi": 60,
      "hit": false,
      "t": 4024.393999999999,
      "d": 365.8539999999998,
      "v": 100
    },
    {
      "midi": 69,
      "hit": false,
      "t": 4024.3939999999993,
      "d": 365.85400000000027,
      "v": 100
    },
    {
      "midi": 65,
      "hit": false,
      "t": 4024.3939999999993,
      "d": 365.85400000000027,
      "v": 100
    },
    {
      "midi": 62,
      "hit": false,
      "t": 4024.3939999999993,
      "d": 365.85400000000027,
      "v": 100
    },
    {
      "midi": 57,
      "hit": false,
      "t": 4024.3939999999993,
      "d": 365.85400000000027,
      "v": 100
    },
    {
      "midi": 50,
      "hit": false,
      "t": 4024.3939999999993,
      "d": 365.85400000000027,
      "v": 100
    },
    {
      "midi": 69,
      "hit": false,
      "t": 4024.3939999999993,
      "d": 365.85400000000027,
      "v": 100
    },
    {
      "midi": 65,
      "hit": false,
      "t": 4024.3939999999993,
      "d": 365.85400000000027,
      "v": 100
    },
    {
      "midi": 62,
      "hit": false,
      "t": 4024.3939999999993,
      "d": 365.85400000000027,
      "v": 100
    },
    {
      "midi": 57,
      "hit": false,
      "t": 4024.3939999999993,
      "d": 365.85400000000027,
      "v": 100
    },
    {
      "midi": 50,
      "hit": false,
      "t": 4024.3939999999993,
      "d": 365.85400000000027,
      "v": 100
    },
    {
      "midi": 38,
      "hit": false,
      "t": 4024.3939999999993,
      "d": 182.92699999999968,
      "v": 100
    },
    {
      "midi": 46,
      "hit": false,
      "t": 4024.3940000000002,
      "d": 182.92699999999968,
      "v": 80
    },
    {
      "midi": 36,
      "hit": false,
      "t": 4024.3940000000002,
      "d": 182.92699999999968,
      "v": 100
    },
    {
      "midi": 39,
      "hit": false,
      "t": 4024.3940000000002,
      "d": 365.85399999999936,
      "v": 90
    },
    {
      "midi": 38,
      "hit": false,
      "t": 4207.320999999999,
      "d": 182.92699999999968,
      "v": 100
    },
    {
      "midi": 46,
      "hit": false,
      "t": 4207.321,
      "d": 182.92699999999968,
      "v": 80
    },
    {
      "midi": 36,
      "hit": false,
      "t": 4207.321,
      "d": 182.92699999999968,
      "v": 100
    },
    {
      "midi": 60,
      "hit": false,
      "t": 4390.247999999999,
      "d": 365.85400000000027,
      "v": 100
    },
    {
      "midi": 38,
      "hit": false,
      "t": 4390.247999999999,
      "d": 182.92699999999968,
      "v": 100
    },
    {
      "midi": 50,
      "hit": false,
      "t": 4390.248,
      "d": 182.92699999999968,
      "v": 100
    },
    {
      "midi": 69,
      "hit": false,
      "t": 4390.248,
      "d": 182.92699999999968,
      "v": 100
    },
    {
      "midi": 57,
      "hit": false,
      "t": 4390.248,
      "d": 182.92699999999968,
      "v": 100
    },
    {
      "midi": 65,
      "hit": false,
      "t": 4390.248,
      "d": 182.92699999999968,
      "v": 100
    },
    {
      "midi": 62,
      "hit": false,
      "t": 4390.248,
      "d": 182.92699999999968,
      "v": 100
    },
    {
      "midi": 50,
      "hit": false,
      "t": 4390.248,
      "d": 182.92699999999968,
      "v": 100
    },
    {
      "midi": 69,
      "hit": false,
      "t": 4390.248,
      "d": 182.92699999999968,
      "v": 100
    },
    {
      "midi": 57,
      "hit": false,
      "t": 4390.248,
      "d": 182.92699999999968,
      "v": 100
    },
    {
      "midi": 65,
      "hit": false,
      "t": 4390.248,
      "d": 182.92699999999968,
      "v": 100
    },
    {
      "midi": 62,
      "hit": false,
      "t": 4390.248,
      "d": 182.92699999999968,
      "v": 100
    },
    {
      "midi": 46,
      "hit": false,
      "t": 4390.248,
      "d": 182.92699999999968,
      "v": 80
    },
    {
      "midi": 40,
      "hit": false,
      "t": 4390.248,
      "d": 365.85399999999936,
      "v": 100
    },
    {
      "midi": 39,
      "hit": false,
      "t": 4390.248,
      "d": 365.85399999999936,
      "v": 90
    },
    {
      "midi": 38,
      "hit": false,
      "t": 4573.174999999998,
      "d": 182.92699999999968,
      "v": 100
    },
    {
      "midi": 53,
      "hit": false,
      "t": 4573.174999999999,
      "d": 91.46349999999984,
      "v": 80
    },
    {
      "midi": 65,
      "hit": false,
      "t": 4573.174999999999,
      "d": 91.46349999999984,
      "v": 80
    },
    {
      "midi": 46,
      "hit": false,
      "t": 4573.174999999999,
      "d": 91.46349999999984,
      "v": 80
    },
    {
      "midi": 58,
      "hit": false,
      "t": 4573.174999999999,
      "d": 91.46349999999984,
      "v": 80
    },
    {
      "midi": 62,
      "hit": false,
      "t": 4573.174999999999,
      "d": 91.46349999999984,
      "v": 80
    },
    {
      "midi": 53,
      "hit": false,
      "t": 4573.174999999999,
      "d": 91.46349999999984,
      "v": 80
    },
    {
      "midi": 65,
      "hit": false,
      "t": 4573.174999999999,
      "d": 91.46349999999984,
      "v": 80
    },
    {
      "midi": 46,
      "hit": false,
      "t": 4573.174999999999,
      "d": 91.46349999999984,
      "v": 80
    },
    {
      "midi": 58,
      "hit": false,
      "t": 4573.174999999999,
      "d": 91.46349999999984,
      "v": 80
    },
    {
      "midi": 62,
      "hit": false,
      "t": 4573.174999999999,
      "d": 91.46349999999984,
      "v": 80
    },
    {
      "midi": 46,
      "hit": false,
      "t": 4573.174999999999,
      "d": 182.92699999999968,
      "v": 80
    },
    {
      "midi": 65,
      "hit": false,
      "t": 4664.638499999999,
      "d": 91.46349999999984,
      "v": 80
    },
    {
      "midi": 46,
      "hit": false,
      "t": 4664.638499999999,
      "d": 91.46349999999984,
      "v": 80
    },
    {
      "midi": 62,
      "hit": false,
      "t": 4664.638499999999,
      "d": 91.46349999999984,
      "v": 80
    },
    {
      "midi": 58,
      "hit": false,
      "t": 4664.638499999999,
      "d": 91.46349999999984,
      "v": 80
    },
    {
      "midi": 53,
      "hit": false,
      "t": 4664.638499999999,
      "d": 91.46349999999984,
      "v": 80
    },
    {
      "midi": 65,
      "hit": false,
      "t": 4664.638499999999,
      "d": 91.46349999999984,
      "v": 80
    },
    {
      "midi": 46,
      "hit": false,
      "t": 4664.638499999999,
      "d": 91.46349999999984,
      "v": 80
    },
    {
      "midi": 62,
      "hit": false,
      "t": 4664.638499999999,
      "d": 91.46349999999984,
      "v": 80
    },
    {
      "midi": 58,
      "hit": false,
      "t": 4664.638499999999,
      "d": 91.46349999999984,
      "v": 80
    },
    {
      "midi": 53,
      "hit": false,
      "t": 4664.638499999999,
      "d": 91.46349999999984,
      "v": 80
    },
    {
      "midi": 34,
      "hit": false,
      "t": 4756.101999999998,
      "d": 182.92699999999968,
      "v": 100
    },
    {
      "midi": 53,
      "hit": false,
      "t": 4756.101999999999,
      "d": 365.85400000000027,
      "v": 100
    },
    {
      "midi": 58,
      "hit": false,
      "t": 4756.101999999999,
      "d": 365.85400000000027,
      "v": 100
    },
    {
      "midi": 46,
      "hit": false,
      "t": 4756.101999999999,
      "d": 365.85400000000027,
      "v": 100
    },
    {
      "midi": 65,
      "hit": false,
      "t": 4756.101999999999,
      "d": 365.85400000000027,
      "v": 100
    },
    {
      "midi": 62,
      "hit": false,
      "t": 4756.101999999999,
      "d": 365.85400000000027,
      "v": 100
    },
    {
      "midi": 53,
      "hit": false,
      "t": 4756.101999999999,
      "d": 365.85400000000027,
      "v": 100
    },
    {
      "midi": 58,
      "hit": false,
      "t": 4756.101999999999,
      "d": 365.85400000000027,
      "v": 100
    },
    {
      "midi": 46,
      "hit": false,
      "t": 4756.101999999999,
      "d": 365.85400000000027,
      "v": 100
    },
    {
      "midi": 65,
      "hit": false,
      "t": 4756.101999999999,
      "d": 365.85400000000027,
      "v": 100
    },
    {
      "midi": 62,
      "hit": false,
      "t": 4756.101999999999,
      "d": 365.85400000000027,
      "v": 100
    },
    {
      "midi": 62,
      "hit": false,
      "t": 4756.101999999999,
      "d": 182.92699999999968,
      "v": 100
    },
    {
      "midi": 39,
      "hit": false,
      "t": 4756.101999999999,
      "d": 365.85399999999936,
      "v": 90
    },
    {
      "midi": 36,
      "hit": false,
      "t": 4756.101999999999,
      "d": 365.85399999999936,
      "v": 100
    },
    {
      "midi": 49,
      "hit": false,
      "t": 4756.101999999999,
      "d": 548.780999999999,
      "v": 100
    },
    {
      "midi": 34,
      "hit": false,
      "t": 4939.028999999998,
      "d": 182.92699999999968,
      "v": 100
    },
    {
      "midi": 58,
      "hit": false,
      "t": 4939.028999999999,
      "d": 182.92699999999968,
      "v": 100
    },
    {
      "midi": 46,
      "hit": false,
      "t": 4939.028999999999,
      "d": 182.92699999999968,
      "v": 80
    },
    {
      "midi": 34,
      "hit": false,
      "t": 5121.955999999997,
      "d": 182.92699999999968,
      "v": 100
    },
    {
      "midi": 69,
      "hit": false,
      "t": 5121.955999999998,
      "d": 182.92699999999968,
      "v": 100
    },
    {
      "midi": 40,
      "hit": false,
      "t": 5121.955999999998,
      "d": 182.92699999999968,
      "v": 100
    },
    {
      "midi": 46,
      "hit": false,
      "t": 5121.955999999998,
      "d": 182.92699999999968,
      "v": 80
    },
    {
      "midi": 39,
      "hit": false,
      "t": 5121.955999999998,
      "d": 365.85399999999936,
      "v": 90
    },
    {
      "midi": 36,
      "hit": false,
      "t": 5304.882999999997,
      "d": 365.85400000000027,
      "v": 100
    },
    {
      "midi": 67,
      "hit": false,
      "t": 5304.882999999998,
      "d": 365.85400000000027,
      "v": 100
    },
    {
      "midi": 36,
      "hit": false,
      "t": 5304.882999999998,
      "d": 365.85399999999936,
      "v": 100
    },
    {
      "midi": 49,
      "hit": false,
      "t": 5304.882999999998,
      "d": 731.7079999999987,
      "v": 100
    },
    {
      "midi": 55,
      "hit": false,
      "t": 5304.882999999999,
      "d": 365.85400000000027,
      "v": 100
    },
    {
      "midi": 64,
      "hit": false,
      "t": 5304.882999999999,
      "d": 365.85400000000027,
      "v": 100
    },
    {
      "midi": 48,
      "hit": false,
      "t": 5304.882999999999,
      "d": 365.85400000000027,
      "v": 100
    },
    {
      "midi": 67,
      "hit": false,
      "t": 5304.882999999999,
      "d": 365.85400000000027,
      "v": 100
    },
    {
      "midi": 60,
      "hit": false,
      "t": 5304.882999999999,
      "d": 365.85400000000027,
      "v": 100
    },
    {
      "midi": 55,
      "hit": false,
      "t": 5304.882999999999,
      "d": 365.85400000000027,
      "v": 100
    },
    {
      "midi": 64,
      "hit": false,
      "t": 5304.882999999999,
      "d": 365.85400000000027,
      "v": 100
    },
    {
      "midi": 48,
      "hit": false,
      "t": 5304.882999999999,
      "d": 365.85400000000027,
      "v": 100
    },
    {
      "midi": 67,
      "hit": false,
      "t": 5304.882999999999,
      "d": 365.85400000000027,
      "v": 100
    },
    {
      "midi": 60,
      "hit": false,
      "t": 5304.882999999999,
      "d": 365.85400000000027,
      "v": 100
    },
    {
      "midi": 46,
      "hit": false,
      "t": 5487.809999999998,
      "d": 182.92699999999968,
      "v": 80
    },
    {
      "midi": 39,
      "hit": false,
      "t": 5487.809999999998,
      "d": 365.85399999999936,
      "v": 90
    },
    {
      "midi": 36,
      "hit": false,
      "t": 5670.736999999997,
      "d": 182.92699999999968,
      "v": 100
    },
    {
      "midi": 46,
      "hit": false,
      "t": 5670.736999999997,
      "d": 182.92699999999968,
      "v": 80
    },
    {
      "midi": 36,
      "hit": false,
      "t": 5670.736999999997,
      "d": 182.92699999999968,
      "v": 100
    },
    {
      "midi": 65,
      "hit": false,
      "t": 5670.736999999998,
      "d": 182.92699999999968,
      "v": 100
    },
    {
      "midi": 55,
      "hit": false,
      "t": 5670.736999999999,
      "d": 182.92699999999968,
      "v": 100
    },
    {
      "midi": 67,
      "hit": false,
      "t": 5670.736999999999,
      "d": 182.92699999999968,
      "v": 100
    },
    {
      "midi": 60,
      "hit": false,
      "t": 5670.736999999999,
      "d": 182.92699999999968,
      "v": 100
    },
    {
      "midi": 64,
      "hit": false,
      "t": 5670.736999999999,
      "d": 182.92699999999968,
      "v": 100
    },
    {
      "midi": 48,
      "hit": false,
      "t": 5670.736999999999,
      "d": 182.92699999999968,
      "v": 100
    },
    {
      "midi": 55,
      "hit": false,
      "t": 5670.736999999999,
      "d": 182.92699999999968,
      "v": 100
    },
    {
      "midi": 67,
      "hit": false,
      "t": 5670.736999999999,
      "d": 182.92699999999968,
      "v": 100
    },
    {
      "midi": 60,
      "hit": false,
      "t": 5670.736999999999,
      "d": 182.92699999999968,
      "v": 100
    },
    {
      "midi": 64,
      "hit": false,
      "t": 5670.736999999999,
      "d": 182.92699999999968,
      "v": 100
    },
    {
      "midi": 48,
      "hit": false,
      "t": 5670.736999999999,
      "d": 182.92699999999968,
      "v": 100
    },
    {
      "midi": 36,
      "hit": false,
      "t": 5853.663999999997,
      "d": 182.92699999999968,
      "v": 100
    },
    {
      "midi": 46,
      "hit": false,
      "t": 5853.663999999997,
      "d": 182.92699999999968,
      "v": 80
    },
    {
      "midi": 39,
      "hit": false,
      "t": 5853.663999999997,
      "d": 365.85399999999936,
      "v": 90
    },
    {
      "midi": 40,
      "hit": false,
      "t": 5853.663999999997,
      "d": 365.85399999999936,
      "v": 100
    },
    {
      "midi": 67,
      "hit": false,
      "t": 5853.663999999998,
      "d": 365.85400000000027,
      "v": 100
    },
    {
      "midi": 64,
      "hit": false,
      "t": 5853.663999999999,
      "d": 182.92699999999968,
      "v": 100
    },
    {
      "midi": 48,
      "hit": false,
      "t": 5853.663999999999,
      "d": 182.92699999999968,
      "v": 100
    },
    {
      "midi": 67,
      "hit": false,
      "t": 5853.663999999999,
      "d": 182.92699999999968,
      "v": 100
    },
    {
      "midi": 60,
      "hit": false,
      "t": 5853.663999999999,
      "d": 182.92699999999968,
      "v": 100
    },
    {
      "midi": 55,
      "hit": false,
      "t": 5853.663999999999,
      "d": 182.92699999999968,
      "v": 100
    },
    {
      "midi": 64,
      "hit": false,
      "t": 5853.663999999999,
      "d": 182.92699999999968,
      "v": 100
    },
    {
      "midi": 48,
      "hit": false,
      "t": 5853.663999999999,
      "d": 182.92699999999968,
      "v": 100
    },
    {
      "midi": 67,
      "hit": false,
      "t": 5853.663999999999,
      "d": 182.92699999999968,
      "v": 100
    },
    {
      "midi": 60,
      "hit": false,
      "t": 5853.663999999999,
      "d": 182.92699999999968,
      "v": 100
    },
    {
      "midi": 55,
      "hit": false,
      "t": 5853.663999999999,
      "d": 182.92699999999968,
      "v": 100
    },
    {
      "midi": 36,
      "hit": false,
      "t": 6036.590999999997,
      "d": 182.92699999999968,
      "v": 100
    },
    {
      "midi": 46,
      "hit": false,
      "t": 6036.590999999997,
      "d": 182.92699999999968,
      "v": 80
    },
    {
      "midi": 65,
      "hit": false,
      "t": 6036.5909999999985,
      "d": 91.46349999999984,
      "v": 80
    },
    {
      "midi": 57,
      "hit": false,
      "t": 6036.5909999999985,
      "d": 91.46349999999984,
      "v": 80
    },
    {
      "midi": 69,
      "hit": false,
      "t": 6036.5909999999985,
      "d": 91.46349999999984,
      "v": 80
    },
    {
      "midi": 62,
      "hit": false,
      "t": 6036.5909999999985,
      "d": 91.46349999999984,
      "v": 80
    },
    {
      "midi": 50,
      "hit": false,
      "t": 6036.5909999999985,
      "d": 91.46349999999984,
      "v": 80
    },
    {
      "midi": 65,
      "hit": false,
      "t": 6036.5909999999985,
      "d": 91.46349999999984,
      "v": 80
    },
    {
      "midi": 57,
      "hit": false,
      "t": 6036.5909999999985,
      "d": 91.46349999999984,
      "v": 80
    },
    {
      "midi": 69,
      "hit": false,
      "t": 6036.5909999999985,
      "d": 91.46349999999984,
      "v": 80
    },
    {
      "midi": 62,
      "hit": false,
      "t": 6036.5909999999985,
      "d": 91.46349999999984,
      "v": 80
    },
    {
      "midi": 50,
      "hit": false,
      "t": 6036.5909999999985,
      "d": 91.46349999999984,
      "v": 80
    },
    {
      "midi": 65,
      "hit": false,
      "t": 6128.054499999998,
      "d": 91.46349999999984,
      "v": 80
    },
    {
      "midi": 50,
      "hit": false,
      "t": 6128.054499999998,
      "d": 91.46349999999984,
      "v": 80
    },
    {
      "midi": 57,
      "hit": false,
      "t": 6128.054499999998,
      "d": 91.46349999999984,
      "v": 80
    },
    {
      "midi": 69,
      "hit": false,
      "t": 6128.054499999998,
      "d": 91.46349999999984,
      "v": 80
    },
    {
      "midi": 62,
      "hit": false,
      "t": 6128.054499999998,
      "d": 91.46349999999984,
      "v": 80
    },
    {
      "midi": 65,
      "hit": false,
      "t": 6128.054499999998,
      "d": 91.46349999999984,
      "v": 80
    },
    {
      "midi": 50,
      "hit": false,
      "t": 6128.054499999998,
      "d": 91.46349999999984,
      "v": 80
    },
    {
      "midi": 57,
      "hit": false,
      "t": 6128.054499999998,
      "d": 91.46349999999984,
      "v": 80
    },
    {
      "midi": 69,
      "hit": false,
      "t": 6128.054499999998,
      "d": 91.46349999999984,
      "v": 80
    },
    {
      "midi": 62,
      "hit": false,
      "t": 6128.054499999998,
      "d": 91.46349999999984,
      "v": 80
    },
    {
      "midi": 38,
      "hit": false,
      "t": 6219.517999999996,
      "d": 182.92699999999968,
      "v": 100
    },
    {
      "midi": 36,
      "hit": false,
      "t": 6219.517999999996,
      "d": 365.85399999999936,
      "v": 100
    },
    {
      "midi": 39,
      "hit": false,
      "t": 6219.517999999996,
      "d": 365.85399999999936,
      "v": 90
    },
    {
      "midi": 49,
      "hit": false,
      "t": 6219.517999999996,
      "d": 731.7079999999987,
      "v": 100
    },
    {
      "midi": 50,
      "hit": false,
      "t": 6219.517999999998,
      "d": 365.85400000000027,
      "v": 100
    },
    {
      "midi": 62,
      "hit": false,
      "t": 6219.517999999998,
      "d": 365.85400000000027,
      "v": 100
    },
    {
      "midi": 69,
      "hit": false,
      "t": 6219.517999999998,
      "d": 365.85400000000027,
      "v": 100
    },
    {
      "midi": 65,
      "hit": false,
      "t": 6219.517999999998,
      "d": 365.85400000000027,
      "v": 100
    },
    {
      "midi": 57,
      "hit": false,
      "t": 6219.517999999998,
      "d": 365.85400000000027,
      "v": 100
    },
    {
      "midi": 50,
      "hit": false,
      "t": 6219.517999999998,
      "d": 365.85400000000027,
      "v": 100
    },
    {
      "midi": 62,
      "hit": false,
      "t": 6219.517999999998,
      "d": 365.85400000000027,
      "v": 100
    },
    {
      "midi": 69,
      "hit": false,
      "t": 6219.517999999998,
      "d": 365.85400000000027,
      "v": 100
    },
    {
      "midi": 65,
      "hit": false,
      "t": 6219.517999999998,
      "d": 365.85400000000027,
      "v": 100
    },
    {
      "midi": 57,
      "hit": false,
      "t": 6219.517999999998,
      "d": 365.85400000000027,
      "v": 100
    },
    {
      "midi": 65,
      "hit": false,
      "t": 6219.517999999998,
      "d": 365.85400000000027,
      "v": 100
    },
    {
      "midi": 38,
      "hit": false,
      "t": 6402.444999999996,
      "d": 182.92699999999968,
      "v": 100
    },
    {
      "midi": 46,
      "hit": false,
      "t": 6402.444999999996,
      "d": 182.92699999999968,
      "v": 80
    },
    {
      "midi": 38,
      "hit": false,
      "t": 6585.371999999996,
      "d": 182.92699999999968,
      "v": 100
    },
    {
      "midi": 46,
      "hit": false,
      "t": 6585.371999999996,
      "d": 182.92699999999968,
      "v": 80
    },
    {
      "midi": 39,
      "hit": false,
      "t": 6585.371999999996,
      "d": 365.85399999999936,
      "v": 90
    },
    {
      "midi": 40,
      "hit": false,
      "t": 6585.371999999996,
      "d": 365.85399999999936,
      "v": 100
    },
    {
      "midi": 65,
      "hit": false,
      "t": 6585.3719999999985,
      "d": 365.85400000000027,
      "v": 100
    },
    {
      "midi": 62,
      "hit": false,
      "t": 6585.3719999999985,
      "d": 365.85400000000027,
      "v": 100
    },
    {
      "midi": 69,
      "hit": false,
      "t": 6585.3719999999985,
      "d": 365.85400000000027,
      "v": 100
    },
    {
      "midi": 57,
      "hit": false,
      "t": 6585.3719999999985,
      "d": 365.85400000000027,
      "v": 100
    },
    {
      "midi": 50,
      "hit": false,
      "t": 6585.3719999999985,
      "d": 365.85400000000027,
      "v": 100
    },
    {
      "midi": 65,
      "hit": false,
      "t": 6585.3719999999985,
      "d": 365.85400000000027,
      "v": 100
    },
    {
      "midi": 62,
      "hit": false,
      "t": 6585.3719999999985,
      "d": 365.85400000000027,
      "v": 100
    },
    {
      "midi": 69,
      "hit": false,
      "t": 6585.3719999999985,
      "d": 365.85400000000027,
      "v": 100
    },
    {
      "midi": 57,
      "hit": false,
      "t": 6585.3719999999985,
      "d": 365.85400000000027,
      "v": 100
    },
    {
      "midi": 50,
      "hit": false,
      "t": 6585.3719999999985,
      "d": 365.85400000000027,
      "v": 100
    },
    {
      "midi": 60,
      "hit": false,
      "t": 6585.3719999999985,
      "d": 365.85400000000027,
      "v": 100
    },
    {
      "midi": 38,
      "hit": false,
      "t": 6768.298999999995,
      "d": 182.92699999999968,
      "v": 100
    },
    {
      "midi": 46,
      "hit": false,
      "t": 6768.298999999995,
      "d": 182.92699999999968,
      "v": 80
    },
    {
      "midi": 38,
      "hit": false,
      "t": 6951.225999999995,
      "d": 182.92699999999968,
      "v": 100
    },
    {
      "midi": 46,
      "hit": false,
      "t": 6951.225999999995,
      "d": 182.92699999999968,
      "v": 80
    },
    {
      "midi": 36,
      "hit": false,
      "t": 6951.225999999995,
      "d": 182.92699999999968,
      "v": 100
    },
    {
      "midi": 39,
      "hit": false,
      "t": 6951.225999999995,
      "d": 365.85399999999936,
      "v": 90
    },
    {
      "midi": 69,
      "hit": false,
      "t": 6951.225999999999,
      "d": 365.85400000000027,
      "v": 100
    },
    {
      "midi": 65,
      "hit": false,
      "t": 6951.225999999999,
      "d": 365.85400000000027,
      "v": 100
    },
    {
      "midi": 62,
      "hit": false,
      "t": 6951.225999999999,
      "d": 365.85400000000027,
      "v": 100
    },
    {
      "midi": 57,
      "hit": false,
      "t": 6951.225999999999,
      "d": 365.85400000000027,
      "v": 100
    },
    {
      "midi": 50,
      "hit": false,
      "t": 6951.225999999999,
      "d": 365.85400000000027,
      "v": 100
    },
    {
      "midi": 69,
      "hit": false,
      "t": 6951.225999999999,
      "d": 365.85400000000027,
      "v": 100
    },
    {
      "midi": 65,
      "hit": false,
      "t": 6951.225999999999,
      "d": 365.85400000000027,
      "v": 100
    },
    {
      "midi": 62,
      "hit": false,
      "t": 6951.225999999999,
      "d": 365.85400000000027,
      "v": 100
    },
    {
      "midi": 57,
      "hit": false,
      "t": 6951.225999999999,
      "d": 365.85400000000027,
      "v": 100
    },
    {
      "midi": 50,
      "hit": false,
      "t": 6951.225999999999,
      "d": 365.85400000000027,
      "v": 100
    },
    {
      "midi": 60,
      "hit": false,
      "t": 6951.225999999999,
      "d": 365.85400000000027,
      "v": 100
    },
    {
      "midi": 38,
      "hit": false,
      "t": 7134.152999999995,
      "d": 182.92699999999968,
      "v": 100
    },
    {
      "midi": 46,
      "hit": false,
      "t": 7134.152999999995,
      "d": 182.92699999999968,
      "v": 80
    },
    {
      "midi": 36,
      "hit": false,
      "t": 7134.152999999995,
      "d": 182.92699999999968,
      "v": 100
    },
    {
      "midi": 38,
      "hit": false,
      "t": 7317.0799999999945,
      "d": 182.92699999999968,
      "v": 100
    },
    {
      "midi": 46,
      "hit": false,
      "t": 7317.0799999999945,
      "d": 182.92699999999968,
      "v": 80
    },
    {
      "midi": 40,
      "hit": false,
      "t": 7317.0799999999945,
      "d": 365.85399999999936,
      "v": 100
    },
    {
      "midi": 39,
      "hit": false,
      "t": 7317.0799999999945,
      "d": 365.85399999999936,
      "v": 90
    },
    {
      "midi": 50,
      "hit": false,
      "t": 7317.079999999999,
      "d": 182.92699999999968,
      "v": 100
    },
    {
      "midi": 69,
      "hit": false,
      "t": 7317.079999999999,
      "d": 182.92699999999968,
      "v": 100
    },
    {
      "midi": 57,
      "hit": false,
      "t": 7317.079999999999,
      "d": 182.92699999999968,
      "v": 100
    },
    {
      "midi": 65,
      "hit": false,
      "t": 7317.079999999999,
      "d": 182.92699999999968,
      "v": 100
    },
    {
      "midi": 62,
      "hit": false,
      "t": 7317.079999999999,
      "d": 182.92699999999968,
      "v": 100
    },
    {
      "midi": 50,
      "hit": false,
      "t": 7317.079999999999,
      "d": 182.92699999999968,
      "v": 100
    },
    {
      "midi": 69,
      "hit": false,
      "t": 7317.079999999999,
      "d": 182.92699999999968,
      "v": 100
    },
    {
      "midi": 57,
      "hit": false,
      "t": 7317.079999999999,
      "d": 182.92699999999968,
      "v": 100
    },
    {
      "midi": 65,
      "hit": false,
      "t": 7317.079999999999,
      "d": 182.92699999999968,
      "v": 100
    },
    {
      "midi": 62,
      "hit": false,
      "t": 7317.079999999999,
      "d": 182.92699999999968,
      "v": 100
    },
    {
      "midi": 60,
      "hit": false,
      "t": 7317.079999999999,
      "d": 365.85400000000027,
      "v": 100
    },
    {
      "midi": 38,
      "hit": false,
      "t": 7500.006999999994,
      "d": 182.92699999999968,
      "v": 100
    },
    {
      "midi": 46,
      "hit": false,
      "t": 7500.006999999994,
      "d": 182.92699999999968,
      "v": 80
    },
    {
      "midi": 53,
      "hit": false,
      "t": 7500.006999999999,
      "d": 91.46349999999984,
      "v": 80
    },
    {
      "midi": 65,
      "hit": false,
      "t": 7500.006999999999,
      "d": 91.46349999999984,
      "v": 80
    },
    {
      "midi": 46,
      "hit": false,
      "t": 7500.006999999999,
      "d": 91.46349999999984,
      "v": 80
    },
    {
      "midi": 58,
      "hit": false,
      "t": 7500.006999999999,
      "d": 91.46349999999984,
      "v": 80
    },
    {
      "midi": 62,
      "hit": false,
      "t": 7500.006999999999,
      "d": 91.46349999999984,
      "v": 80
    },
    {
      "midi": 53,
      "hit": false,
      "t": 7500.006999999999,
      "d": 91.46349999999984,
      "v": 80
    },
    {
      "midi": 65,
      "hit": false,
      "t": 7500.006999999999,
      "d": 91.46349999999984,
      "v": 80
    },
    {
      "midi": 46,
      "hit": false,
      "t": 7500.006999999999,
      "d": 91.46349999999984,
      "v": 80
    },
    {
      "midi": 58,
      "hit": false,
      "t": 7500.006999999999,
      "d": 91.46349999999984,
      "v": 80
    },
    {
      "midi": 62,
      "hit": false,
      "t": 7500.006999999999,
      "d": 91.46349999999984,
      "v": 80
    },
    {
      "midi": 65,
      "hit": false,
      "t": 7591.4704999999985,
      "d": 91.46349999999984,
      "v": 80
    },
    {
      "midi": 46,
      "hit": false,
      "t": 7591.4704999999985,
      "d": 91.46349999999984,
      "v": 80
    },
    {
      "midi": 62,
      "hit": false,
      "t": 7591.4704999999985,
      "d": 91.46349999999984,
      "v": 80
    },
    {
      "midi": 58,
      "hit": false,
      "t": 7591.4704999999985,
      "d": 91.46349999999984,
      "v": 80
    },
    {
      "midi": 53,
      "hit": false,
      "t": 7591.4704999999985,
      "d": 91.46349999999984,
      "v": 80
    },
    {
      "midi": 65,
      "hit": false,
      "t": 7591.4704999999985,
      "d": 91.46349999999984,
      "v": 80
    },
    {
      "midi": 46,
      "hit": false,
      "t": 7591.4704999999985,
      "d": 91.46349999999984,
      "v": 80
    },
    {
      "midi": 62,
      "hit": false,
      "t": 7591.4704999999985,
      "d": 91.46349999999984,
      "v": 80
    },
    {
      "midi": 58,
      "hit": false,
      "t": 7591.4704999999985,
      "d": 91.46349999999984,
      "v": 80
    },
    {
      "midi": 53,
      "hit": false,
      "t": 7591.4704999999985,
      "d": 91.46349999999984,
      "v": 80
    },
    {
      "midi": 34,
      "hit": false,
      "t": 7682.933999999994,
      "d": 182.92699999999968,
      "v": 100
    },
    {
      "midi": 39,
      "hit": false,
      "t": 7682.933999999994,
      "d": 365.85399999999936,
      "v": 90
    },
    {
      "midi": 36,
      "hit": false,
      "t": 7682.933999999994,
      "d": 365.85399999999936,
      "v": 100
    },
    {
      "midi": 49,
      "hit": false,
      "t": 7682.933999999994,
      "d": 548.780999999999,
      "v": 100
    },
    {
      "midi": 53,
      "hit": false,
      "t": 7682.933999999998,
      "d": 365.85400000000027,
      "v": 100
    },
    {
      "midi": 58,
      "hit": false,
      "t": 7682.933999999998,
      "d": 365.85400000000027,
      "v": 100
    },
    {
      "midi": 46,
      "hit": false,
      "t": 7682.933999999998,
      "d": 365.85400000000027,
      "v": 100
    },
    {
      "midi": 65,
      "hit": false,
      "t": 7682.933999999998,
      "d": 365.85400000000027,
      "v": 100
    },
    {
      "midi": 62,
      "hit": false,
      "t": 7682.933999999998,
      "d": 365.85400000000027,
      "v": 100
    },
    {
      "midi": 53,
      "hit": false,
      "t": 7682.933999999998,
      "d": 365.85400000000027,
      "v": 100
    },
    {
      "midi": 58,
      "hit": false,
      "t": 7682.933999999998,
      "d": 365.85400000000027,
      "v": 100
    },
    {
      "midi": 46,
      "hit": false,
      "t": 7682.933999999998,
      "d": 365.85400000000027,
      "v": 100
    },
    {
      "midi": 65,
      "hit": false,
      "t": 7682.933999999998,
      "d": 365.85400000000027,
      "v": 100
    },
    {
      "midi": 62,
      "hit": false,
      "t": 7682.933999999998,
      "d": 365.85400000000027,
      "v": 100
    },
    {
      "midi": 62,
      "hit": false,
      "t": 7682.933999999999,
      "d": 182.92699999999968,
      "v": 100
    },
    {
      "midi": 34,
      "hit": false,
      "t": 7865.8609999999935,
      "d": 182.92699999999968,
      "v": 100
    },
    {
      "midi": 46,
      "hit": false,
      "t": 7865.8609999999935,
      "d": 182.92699999999968,
      "v": 80
    },
    {
      "midi": 60,
      "hit": false,
      "t": 7865.860999999999,
      "d": 182.92699999999968,
      "v": 100
    },
    {
      "midi": 34,
      "hit": false,
      "t": 8048.787999999993,
      "d": 182.92699999999968,
      "v": 100
    },
    {
      "midi": 40,
      "hit": false,
      "t": 8048.787999999993,
      "d": 182.92699999999968,
      "v": 100
    },
    {
      "midi": 46,
      "hit": false,
      "t": 8048.787999999993,
      "d": 182.92699999999968,
      "v": 80
    },
    {
      "midi": 39,
      "hit": false,
      "t": 8048.787999999993,
      "d": 365.85399999999936,
      "v": 90
    },
    {
      "midi": 58,
      "hit": false,
      "t": 8048.787999999999,
      "d": 182.92699999999968,
      "v": 100
    },
    {
      "midi": 36,
      "hit": false,
      "t": 8231.714999999993,
      "d": 365.85399999999936,
      "v": 100
    },
    {
      "midi": 36,
      "hit": false,
      "t": 8231.714999999993,
      "d": 365.85399999999936,
      "v": 100
    },
    {
      "midi": 49,
      "hit": false,
      "t": 8231.714999999993,
      "d": 731.7079999999987,
      "v": 100
    },
    {
      "midi": 55,
      "hit": false,
      "t": 8231.714999999998,
      "d": 365.85399999999936,
      "v": 100
    },
    {
      "midi": 64,
      "hit": false,
      "t": 8231.714999999998,
      "d": 365.85399999999936,
      "v": 100
    },
    {
      "midi": 48,
      "hit": false,
      "t": 8231.714999999998,
      "d": 365.85399999999936,
      "v": 100
    },
    {
      "midi": 67,
      "hit": false,
      "t": 8231.714999999998,
      "d": 365.85399999999936,
      "v": 100
    },
    {
      "midi": 60,
      "hit": false,
      "t": 8231.714999999998,
      "d": 365.85399999999936,
      "v": 100
    },
    {
      "midi": 55,
      "hit": false,
      "t": 8231.714999999998,
      "d": 365.85399999999936,
      "v": 100
    },
    {
      "midi": 64,
      "hit": false,
      "t": 8231.714999999998,
      "d": 365.85399999999936,
      "v": 100
    },
    {
      "midi": 48,
      "hit": false,
      "t": 8231.714999999998,
      "d": 365.85399999999936,
      "v": 100
    },
    {
      "midi": 67,
      "hit": false,
      "t": 8231.714999999998,
      "d": 365.85399999999936,
      "v": 100
    },
    {
      "midi": 60,
      "hit": false,
      "t": 8231.714999999998,
      "d": 365.85399999999936,
      "v": 100
    },
    {
      "midi": 60,
      "hit": false,
      "t": 8231.714999999998,
      "d": 365.85399999999936,
      "v": 100
    },
    {
      "midi": 46,
      "hit": false,
      "t": 8414.641999999993,
      "d": 182.92699999999968,
      "v": 80
    },
    {
      "midi": 39,
      "hit": false,
      "t": 8414.641999999993,
      "d": 365.85399999999936,
      "v": 90
    },
    {
      "midi": 36,
      "hit": false,
      "t": 8597.568999999992,
      "d": 182.92699999999968,
      "v": 100
    },
    {
      "midi": 46,
      "hit": false,
      "t": 8597.568999999992,
      "d": 182.92699999999968,
      "v": 80
    },
    {
      "midi": 36,
      "hit": false,
      "t": 8597.568999999992,
      "d": 182.92699999999968,
      "v": 100
    },
    {
      "midi": 55,
      "hit": false,
      "t": 8597.568999999998,
      "d": 182.92699999999968,
      "v": 100
    },
    {
      "midi": 67,
      "hit": false,
      "t": 8597.568999999998,
      "d": 182.92699999999968,
      "v": 100
    },
    {
      "midi": 60,
      "hit": false,
      "t": 8597.568999999998,
      "d": 182.92699999999968,
      "v": 100
    },
    {
      "midi": 64,
      "hit": false,
      "t": 8597.568999999998,
      "d": 182.92699999999968,
      "v": 100
    },
    {
      "midi": 48,
      "hit": false,
      "t": 8597.568999999998,
      "d": 182.92699999999968,
      "v": 100
    },
    {
      "midi": 55,
      "hit": false,
      "t": 8597.568999999998,
      "d": 182.92699999999968,
      "v": 100
    },
    {
      "midi": 67,
      "hit": false,
      "t": 8597.568999999998,
      "d": 182.92699999999968,
      "v": 100
    },
    {
      "midi": 60,
      "hit": false,
      "t": 8597.568999999998,
      "d": 182.92699999999968,
      "v": 100
    },
    {
      "midi": 64,
      "hit": false,
      "t": 8597.568999999998,
      "d": 182.92699999999968,
      "v": 100
    },
    {
      "midi": 48,
      "hit": false,
      "t": 8597.568999999998,
      "d": 182.92699999999968,
      "v": 100
    },
    {
      "midi": 58,
      "hit": false,
      "t": 8597.568999999998,
      "d": 182.92699999999968,
      "v": 100
    },
    {
      "midi": 36,
      "hit": false,
      "t": 8780.495999999992,
      "d": 182.92699999999968,
      "v": 100
    },
    {
      "midi": 46,
      "hit": false,
      "t": 8780.495999999992,
      "d": 182.92699999999968,
      "v": 80
    },
    {
      "midi": 39,
      "hit": false,
      "t": 8780.495999999992,
      "d": 365.85399999999936,
      "v": 90
    },
    {
      "midi": 40,
      "hit": false,
      "t": 8780.495999999992,
      "d": 365.85399999999936,
      "v": 100
    },
    {
      "midi": 64,
      "hit": false,
      "t": 8780.495999999997,
      "d": 182.92699999999968,
      "v": 100
    },
    {
      "midi": 48,
      "hit": false,
      "t": 8780.495999999997,
      "d": 182.92699999999968,
      "v": 100
    },
    {
      "midi": 67,
      "hit": false,
      "t": 8780.495999999997,
      "d": 182.92699999999968,
      "v": 100
    },
    {
      "midi": 60,
      "hit": false,
      "t": 8780.495999999997,
      "d": 182.92699999999968,
      "v": 100
    },
    {
      "midi": 55,
      "hit": false,
      "t": 8780.495999999997,
      "d": 182.92699999999968,
      "v": 100
    },
    {
      "midi": 64,
      "hit": false,
      "t": 8780.495999999997,
      "d": 182.92699999999968,
      "v": 100
    },
    {
      "midi": 48,
      "hit": false,
      "t": 8780.495999999997,
      "d": 182.92699999999968,
      "v": 100
    },
    {
      "midi": 67,
      "hit": false,
      "t": 8780.495999999997,
      "d": 182.92699999999968,
      "v": 100
    },
    {
      "midi": 60,
      "hit": false,
      "t": 8780.495999999997,
      "d": 182.92699999999968,
      "v": 100
    },
    {
      "midi": 55,
      "hit": false,
      "t": 8780.495999999997,
      "d": 182.92699999999968,
      "v": 100
    },
    {
      "midi": 57,
      "hit": false,
      "t": 8780.495999999997,
      "d": 182.92699999999968,
      "v": 100
    },
    {
      "midi": 36,
      "hit": false,
      "t": 8963.422999999992,
      "d": 182.92699999999968,
      "v": 100
    },
    {
      "midi": 46,
      "hit": false,
      "t": 8963.422999999992,
      "d": 182.92699999999968,
      "v": 80
    },
    {
      "midi": 65,
      "hit": false,
      "t": 8963.422999999997,
      "d": 91.46349999999984,
      "v": 80
    },
    {
      "midi": 57,
      "hit": false,
      "t": 8963.422999999997,
      "d": 91.46349999999984,
      "v": 80
    },
    {
      "midi": 69,
      "hit": false,
      "t": 8963.422999999997,
      "d": 91.46349999999984,
      "v": 80
    },
    {
      "midi": 62,
      "hit": false,
      "t": 8963.422999999997,
      "d": 91.46349999999984,
      "v": 80
    },
    {
      "midi": 50,
      "hit": false,
      "t": 8963.422999999997,
      "d": 91.46349999999984,
      "v": 80
    },
    {
      "midi": 65,
      "hit": false,
      "t": 8963.422999999997,
      "d": 91.46349999999984,
      "v": 80
    },
    {
      "midi": 57,
      "hit": false,
      "t": 8963.422999999997,
      "d": 91.46349999999984,
      "v": 80
    },
    {
      "midi": 69,
      "hit": false,
      "t": 8963.422999999997,
      "d": 91.46349999999984,
      "v": 80
    },
    {
      "midi": 62,
      "hit": false,
      "t": 8963.422999999997,
      "d": 91.46349999999984,
      "v": 80
    },
    {
      "midi": 50,
      "hit": false,
      "t": 8963.422999999997,
      "d": 91.46349999999984,
      "v": 80
    },
    {
      "midi": 55,
      "hit": false,
      "t": 8963.422999999997,
      "d": 182.92699999999968,
      "v": 100
    },
    {
      "midi": 65,
      "hit": false,
      "t": 9054.886499999997,
      "d": 91.46349999999984,
      "v": 80
    },
    {
      "midi": 50,
      "hit": false,
      "t": 9054.886499999997,
      "d": 91.46349999999984,
      "v": 80
    },
    {
      "midi": 57,
      "hit": false,
      "t": 9054.886499999997,
      "d": 91.46349999999984,
      "v": 80
    },
    {
      "midi": 69,
      "hit": false,
      "t": 9054.886499999997,
      "d": 91.46349999999984,
      "v": 80
    },
    {
      "midi": 62,
      "hit": false,
      "t": 9054.886499999997,
      "d": 91.46349999999984,
      "v": 80
    },
    {
      "midi": 65,
      "hit": false,
      "t": 9054.886499999997,
      "d": 91.46349999999984,
      "v": 80
    },
    {
      "midi": 50,
      "hit": false,
      "t": 9054.886499999997,
      "d": 91.46349999999984,
      "v": 80
    },
    {
      "midi": 57,
      "hit": false,
      "t": 9054.886499999997,
      "d": 91.46349999999984,
      "v": 80
    },
    {
      "midi": 69,
      "hit": false,
      "t": 9054.886499999997,
      "d": 91.46349999999984,
      "v": 80
    },
    {
      "midi": 62,
      "hit": false,
      "t": 9054.886499999997,
      "d": 91.46349999999984,
      "v": 80
    },
    {
      "midi": 38,
      "hit": false,
      "t": 9146.349999999991,
      "d": 182.92699999999968,
      "v": 100
    },
    {
      "midi": 36,
      "hit": false,
      "t": 9146.349999999991,
      "d": 365.85399999999936,
      "v": 100
    },
    {
      "midi": 39,
      "hit": false,
      "t": 9146.349999999991,
      "d": 365.85399999999936,
      "v": 90
    },
    {
      "midi": 49,
      "hit": false,
      "t": 9146.349999999991,
      "d": 731.7079999999987,
      "v": 100
    },
    {
      "midi": 50,
      "hit": false,
      "t": 9146.349999999997,
      "d": 365.85399999999936,
      "v": 100
    },
    {
      "midi": 62,
      "hit": false,
      "t": 9146.349999999997,
      "d": 365.85399999999936,
      "v": 100
    },
    {
      "midi": 69,
      "hit": false,
      "t": 9146.349999999997,
      "d": 365.85399999999936,
      "v": 100
    },
    {
      "midi": 65,
      "hit": false,
      "t": 9146.349999999997,
      "d": 365.85399999999936,
      "v": 100
    },
    {
      "midi": 57,
      "hit": false,
      "t": 9146.349999999997,
      "d": 365.85399999999936,
      "v": 100
    },
    {
      "midi": 50,
      "hit": false,
      "t": 9146.349999999997,
      "d": 365.85399999999936,
      "v": 100
    },
    {
      "midi": 62,
      "hit": false,
      "t": 9146.349999999997,
      "d": 365.85399999999936,
      "v": 100
    },
    {
      "midi": 69,
      "hit": false,
      "t": 9146.349999999997,
      "d": 365.85399999999936,
      "v": 100
    },
    {
      "midi": 65,
      "hit": false,
      "t": 9146.349999999997,
      "d": 365.85399999999936,
      "v": 100
    },
    {
      "midi": 57,
      "hit": false,
      "t": 9146.349999999997,
      "d": 365.85399999999936,
      "v": 100
    },
    {
      "midi": 65,
      "hit": false,
      "t": 9146.349999999997,
      "d": 365.85399999999936,
      "v": 100
    },
    {
      "midi": 38,
      "hit": false,
      "t": 9329.276999999991,
      "d": 182.92699999999968,
      "v": 100
    },
    {
      "midi": 46,
      "hit": false,
      "t": 9329.276999999991,
      "d": 182.92699999999968,
      "v": 80
    },
    {
      "midi": 38,
      "hit": false,
      "t": 9512.20399999999,
      "d": 182.92699999999968,
      "v": 100
    },
    {
      "midi": 46,
      "hit": false,
      "t": 9512.20399999999,
      "d": 182.92699999999968,
      "v": 80
    },
    {
      "midi": 39,
      "hit": false,
      "t": 9512.20399999999,
      "d": 365.85399999999936,
      "v": 90
    },
    {
      "midi": 40,
      "hit": false,
      "t": 9512.20399999999,
      "d": 365.85399999999936,
      "v": 100
    },
    {
      "midi": 65,
      "hit": false,
      "t": 9512.203999999996,
      "d": 365.85399999999936,
      "v": 100
    },
    {
      "midi": 62,
      "hit": false,
      "t": 9512.203999999996,
      "d": 365.85399999999936,
      "v": 100
    },
    {
      "midi": 69,
      "hit": false,
      "t": 9512.203999999996,
      "d": 365.85399999999936,
      "v": 100
    },
    {
      "midi": 57,
      "hit": false,
      "t": 9512.203999999996,
      "d": 365.85399999999936,
      "v": 100
    },
    {
      "midi": 50,
      "hit": false,
      "t": 9512.203999999996,
      "d": 365.85399999999936,
      "v": 100
    },
    {
      "midi": 65,
      "hit": false,
      "t": 9512.203999999996,
      "d": 365.85399999999936,
      "v": 100
    },
    {
      "midi": 62,
      "hit": false,
      "t": 9512.203999999996,
      "d": 365.85399999999936,
      "v": 100
    },
    {
      "midi": 69,
      "hit": false,
      "t": 9512.203999999996,
      "d": 365.85399999999936,
      "v": 100
    },
    {
      "midi": 57,
      "hit": false,
      "t": 9512.203999999996,
      "d": 365.85399999999936,
      "v": 100
    },
    {
      "midi": 50,
      "hit": false,
      "t": 9512.203999999996,
      "d": 365.85399999999936,
      "v": 100
    },
    {
      "midi": 60,
      "hit": false,
      "t": 9512.203999999996,
      "d": 365.85399999999936,
      "v": 100
    },
    {
      "midi": 38,
      "hit": false,
      "t": 9695.13099999999,
      "d": 182.92699999999968,
      "v": 100
    },
    {
      "midi": 46,
      "hit": false,
      "t": 9695.13099999999,
      "d": 182.92699999999968,
      "v": 80
    },
    {
      "midi": 38,
      "hit": false,
      "t": 9878.05799999999,
      "d": 182.92699999999968,
      "v": 100
    },
    {
      "midi": 46,
      "hit": false,
      "t": 9878.05799999999,
      "d": 182.92699999999968,
      "v": 80
    },
    {
      "midi": 36,
      "hit": false,
      "t": 9878.05799999999,
      "d": 182.92699999999968,
      "v": 100
    },
    {
      "midi": 39,
      "hit": false,
      "t": 9878.05799999999,
      "d": 365.85399999999936,
      "v": 90
    },
    {
      "midi": 69,
      "hit": false,
      "t": 9878.057999999995,
      "d": 365.85399999999936,
      "v": 100
    },
    {
      "midi": 65,
      "hit": false,
      "t": 9878.057999999995,
      "d": 365.85399999999936,
      "v": 100
    },
    {
      "midi": 62,
      "hit": false,
      "t": 9878.057999999995,
      "d": 365.85399999999936,
      "v": 100
    },
    {
      "midi": 57,
      "hit": false,
      "t": 9878.057999999995,
      "d": 365.85399999999936,
      "v": 100
    },
    {
      "midi": 50,
      "hit": false,
      "t": 9878.057999999995,
      "d": 365.85399999999936,
      "v": 100
    },
    {
      "midi": 69,
      "hit": false,
      "t": 9878.057999999995,
      "d": 365.85399999999936,
      "v": 100
    },
    {
      "midi": 65,
      "hit": false,
      "t": 9878.057999999995,
      "d": 365.85399999999936,
      "v": 100
    },
    {
      "midi": 62,
      "hit": false,
      "t": 9878.057999999995,
      "d": 365.85399999999936,
      "v": 100
    },
    {
      "midi": 57,
      "hit": false,
      "t": 9878.057999999995,
      "d": 365.85399999999936,
      "v": 100
    },
    {
      "midi": 50,
      "hit": false,
      "t": 9878.057999999995,
      "d": 365.85399999999936,
      "v": 100
    },
    {
      "midi": 60,
      "hit": false,
      "t": 9878.057999999995,
      "d": 365.85399999999936,
      "v": 100
    },
    {
      "midi": 38,
      "hit": false,
      "t": 10060.98499999999,
      "d": 182.92699999999968,
      "v": 100
    },
    {
      "midi": 46,
      "hit": false,
      "t": 10060.98499999999,
      "d": 182.92699999999968,
      "v": 80
    },
    {
      "midi": 36,
      "hit": false,
      "t": 10060.98499999999,
      "d": 182.92699999999968,
      "v": 100
    },
    {
      "midi": 38,
      "hit": false,
      "t": 10243.91199999999,
      "d": 182.92699999999968,
      "v": 100
    },
    {
      "midi": 46,
      "hit": false,
      "t": 10243.91199999999,
      "d": 182.92699999999968,
      "v": 80
    },
    {
      "midi": 40,
      "hit": false,
      "t": 10243.91199999999,
      "d": 365.85399999999936,
      "v": 100
    },
    {
      "midi": 39,
      "hit": false,
      "t": 10243.91199999999,
      "d": 365.85399999999936,
      "v": 90
    },
    {
      "midi": 50,
      "hit": false,
      "t": 10243.911999999995,
      "d": 182.92699999999968,
      "v": 100
    },
    {
      "midi": 69,
      "hit": false,
      "t": 10243.911999999995,
      "d": 182.92699999999968,
      "v": 100
    },
    {
      "midi": 57,
      "hit": false,
      "t": 10243.911999999995,
      "d": 182.92699999999968,
      "v": 100
    },
    {
      "midi": 65,
      "hit": false,
      "t": 10243.911999999995,
      "d": 182.92699999999968,
      "v": 100
    },
    {
      "midi": 62,
      "hit": false,
      "t": 10243.911999999995,
      "d": 182.92699999999968,
      "v": 100
    },
    {
      "midi": 50,
      "hit": false,
      "t": 10243.911999999995,
      "d": 182.92699999999968,
      "v": 100
    },
    {
      "midi": 69,
      "hit": false,
      "t": 10243.911999999995,
      "d": 182.92699999999968,
      "v": 100
    },
    {
      "midi": 57,
      "hit": false,
      "t": 10243.911999999995,
      "d": 182.92699999999968,
      "v": 100
    },
    {
      "midi": 65,
      "hit": false,
      "t": 10243.911999999995,
      "d": 182.92699999999968,
      "v": 100
    },
    {
      "midi": 62,
      "hit": false,
      "t": 10243.911999999995,
      "d": 182.92699999999968,
      "v": 100
    },
    {
      "midi": 60,
      "hit": false,
      "t": 10243.911999999995,
      "d": 365.85399999999936,
      "v": 100
    },
    {
      "midi": 38,
      "hit": false,
      "t": 10426.838999999989,
      "d": 182.92699999999968,
      "v": 100
    },
    {
      "midi": 46,
      "hit": false,
      "t": 10426.838999999989,
      "d": 182.92699999999968,
      "v": 80
    },
    {
      "midi": 53,
      "hit": false,
      "t": 10426.838999999994,
      "d": 91.46349999999984,
      "v": 80
    },
    {
      "midi": 65,
      "hit": false,
      "t": 10426.838999999994,
      "d": 91.46349999999984,
      "v": 80
    },
    {
      "midi": 46,
      "hit": false,
      "t": 10426.838999999994,
      "d": 91.46349999999984,
      "v": 80
    },
    {
      "midi": 58,
      "hit": false,
      "t": 10426.838999999994,
      "d": 91.46349999999984,
      "v": 80
    },
    {
      "midi": 62,
      "hit": false,
      "t": 10426.838999999994,
      "d": 91.46349999999984,
      "v": 80
    },
    {
      "midi": 53,
      "hit": false,
      "t": 10426.838999999994,
      "d": 91.46349999999984,
      "v": 80
    },
    {
      "midi": 65,
      "hit": false,
      "t": 10426.838999999994,
      "d": 91.46349999999984,
      "v": 80
    },
    {
      "midi": 46,
      "hit": false,
      "t": 10426.838999999994,
      "d": 91.46349999999984,
      "v": 80
    },
    {
      "midi": 58,
      "hit": false,
      "t": 10426.838999999994,
      "d": 91.46349999999984,
      "v": 80
    },
    {
      "midi": 62,
      "hit": false,
      "t": 10426.838999999994,
      "d": 91.46349999999984,
      "v": 80
    },
    {
      "midi": 65,
      "hit": false,
      "t": 10518.302499999994,
      "d": 91.46349999999984,
      "v": 80
    },
    {
      "midi": 46,
      "hit": false,
      "t": 10518.302499999994,
      "d": 91.46349999999984,
      "v": 80
    },
    {
      "midi": 62,
      "hit": false,
      "t": 10518.302499999994,
      "d": 91.46349999999984,
      "v": 80
    },
    {
      "midi": 58,
      "hit": false,
      "t": 10518.302499999994,
      "d": 91.46349999999984,
      "v": 80
    },
    {
      "midi": 53,
      "hit": false,
      "t": 10518.302499999994,
      "d": 91.46349999999984,
      "v": 80
    },
    {
      "midi": 65,
      "hit": false,
      "t": 10518.302499999994,
      "d": 91.46349999999984,
      "v": 80
    },
    {
      "midi": 46,
      "hit": false,
      "t": 10518.302499999994,
      "d": 91.46349999999984,
      "v": 80
    },
    {
      "midi": 62,
      "hit": false,
      "t": 10518.302499999994,
      "d": 91.46349999999984,
      "v": 80
    },
    {
      "midi": 58,
      "hit": false,
      "t": 10518.302499999994,
      "d": 91.46349999999984,
      "v": 80
    },
    {
      "midi": 53,
      "hit": false,
      "t": 10518.302499999994,
      "d": 91.46349999999984,
      "v": 80
    },
    {
      "midi": 34,
      "hit": false,
      "t": 10609.765999999989,
      "d": 182.92699999999968,
      "v": 100
    },
    {
      "midi": 39,
      "hit": false,
      "t": 10609.765999999989,
      "d": 365.85399999999936,
      "v": 90
    },
    {
      "midi": 36,
      "hit": false,
      "t": 10609.765999999989,
      "d": 365.85399999999936,
      "v": 100
    },
    {
      "midi": 49,
      "hit": false,
      "t": 10609.765999999989,
      "d": 548.780999999999,
      "v": 100
    },
    {
      "midi": 53,
      "hit": false,
      "t": 10609.765999999994,
      "d": 365.85399999999936,
      "v": 100
    },
    {
      "midi": 58,
      "hit": false,
      "t": 10609.765999999994,
      "d": 365.85399999999936,
      "v": 100
    },
    {
      "midi": 46,
      "hit": false,
      "t": 10609.765999999994,
      "d": 365.85399999999936,
      "v": 100
    },
    {
      "midi": 65,
      "hit": false,
      "t": 10609.765999999994,
      "d": 365.85399999999936,
      "v": 100
    },
    {
      "midi": 62,
      "hit": false,
      "t": 10609.765999999994,
      "d": 365.85399999999936,
      "v": 100
    },
    {
      "midi": 53,
      "hit": false,
      "t": 10609.765999999994,
      "d": 365.85399999999936,
      "v": 100
    },
    {
      "midi": 58,
      "hit": false,
      "t": 10609.765999999994,
      "d": 365.85399999999936,
      "v": 100
    },
    {
      "midi": 46,
      "hit": false,
      "t": 10609.765999999994,
      "d": 365.85399999999936,
      "v": 100
    },
    {
      "midi": 65,
      "hit": false,
      "t": 10609.765999999994,
      "d": 365.85399999999936,
      "v": 100
    },
    {
      "midi": 62,
      "hit": false,
      "t": 10609.765999999994,
      "d": 365.85399999999936,
      "v": 100
    },
    {
      "midi": 62,
      "hit": false,
      "t": 10609.765999999994,
      "d": 182.92699999999968,
      "v": 100
    },
    {
      "midi": 34,
      "hit": false,
      "t": 10792.692999999988,
      "d": 182.92699999999968,
      "v": 100
    },
    {
      "midi": 46,
      "hit": false,
      "t": 10792.692999999988,
      "d": 182.92699999999968,
      "v": 80
    },
    {
      "midi": 58,
      "hit": false,
      "t": 10792.692999999994,
      "d": 182.92699999999968,
      "v": 100
    },
    {
      "midi": 34,
      "hit": false,
      "t": 10975.619999999988,
      "d": 182.92699999999968,
      "v": 100
    },
    {
      "midi": 40,
      "hit": false,
      "t": 10975.619999999988,
      "d": 182.92699999999968,
      "v": 100
    },
    {
      "midi": 46,
      "hit": false,
      "t": 10975.619999999988,
      "d": 182.92699999999968,
      "v": 80
    },
    {
      "midi": 39,
      "hit": false,
      "t": 10975.619999999988,
      "d": 365.85399999999936,
      "v": 90
    },
    {
      "midi": 69,
      "hit": false,
      "t": 10975.619999999994,
      "d": 182.92699999999968,
      "v": 100
    },
    {
      "midi": 36,
      "hit": false,
      "t": 11158.546999999988,
      "d": 365.85399999999936,
      "v": 100
    },
    {
      "midi": 36,
      "hit": false,
      "t": 11158.546999999988,
      "d": 365.85399999999936,
      "v": 100
    },
    {
      "midi": 49,
      "hit": false,
      "t": 11158.546999999988,
      "d": 731.7079999999987,
      "v": 100
    },
    {
      "midi": 55,
      "hit": false,
      "t": 11158.546999999993,
      "d": 365.85399999999936,
      "v": 100
    },
    {
      "midi": 64,
      "hit": false,
      "t": 11158.546999999993,
      "d": 365.85399999999936,
      "v": 100
    },
    {
      "midi": 48,
      "hit": false,
      "t": 11158.546999999993,
      "d": 365.85399999999936,
      "v": 100
    },
    {
      "midi": 67,
      "hit": false,
      "t": 11158.546999999993,
      "d": 365.85399999999936,
      "v": 100
    },
    {
      "midi": 60,
      "hit": false,
      "t": 11158.546999999993,
      "d": 365.85399999999936,
      "v": 100
    },
    {
      "midi": 55,
      "hit": false,
      "t": 11158.546999999993,
      "d": 365.85399999999936,
      "v": 100
    },
    {
      "midi": 64,
      "hit": false,
      "t": 11158.546999999993,
      "d": 365.85399999999936,
      "v": 100
    },
    {
      "midi": 48,
      "hit": false,
      "t": 11158.546999999993,
      "d": 365.85399999999936,
      "v": 100
    },
    {
      "midi": 67,
      "hit": false,
      "t": 11158.546999999993,
      "d": 365.85399999999936,
      "v": 100
    },
    {
      "midi": 60,
      "hit": false,
      "t": 11158.546999999993,
      "d": 365.85399999999936,
      "v": 100
    },
    {
      "midi": 67,
      "hit": false,
      "t": 11158.546999999993,
      "d": 365.85399999999936,
      "v": 100
    },
    {
      "midi": 46,
      "hit": false,
      "t": 11341.473999999987,
      "d": 182.92699999999968,
      "v": 80
    },
    {
      "midi": 39,
      "hit": false,
      "t": 11341.473999999987,
      "d": 365.85399999999936,
      "v": 90
    },
    {
      "midi": 36,
      "hit": false,
      "t": 11524.400999999987,
      "d": 182.92699999999968,
      "v": 100
    },
    {
      "midi": 46,
      "hit": false,
      "t": 11524.400999999987,
      "d": 182.92699999999968,
      "v": 80
    },
    {
      "midi": 36,
      "hit": false,
      "t": 11524.400999999987,
      "d": 182.92699999999968,
      "v": 100
    },
    {
      "midi": 55,
      "hit": false,
      "t": 11524.400999999993,
      "d": 182.92699999999968,
      "v": 100
    },
    {
      "midi": 67,
      "hit": false,
      "t": 11524.400999999993,
      "d": 182.92699999999968,
      "v": 100
    },
    {
      "midi": 60,
      "hit": false,
      "t": 11524.400999999993,
      "d": 182.92699999999968,
      "v": 100
    },
    {
      "midi": 64,
      "hit": false,
      "t": 11524.400999999993,
      "d": 182.92699999999968,
      "v": 100
    },
    {
      "midi": 48,
      "hit": false,
      "t": 11524.400999999993,
      "d": 182.92699999999968,
      "v": 100
    },
    {
      "midi": 55,
      "hit": false,
      "t": 11524.400999999993,
      "d": 182.92699999999968,
      "v": 100
    },
    {
      "midi": 67,
      "hit": false,
      "t": 11524.400999999993,
      "d": 182.92699999999968,
      "v": 100
    },
    {
      "midi": 60,
      "hit": false,
      "t": 11524.400999999993,
      "d": 182.92699999999968,
      "v": 100
    },
    {
      "midi": 64,
      "hit": false,
      "t": 11524.400999999993,
      "d": 182.92699999999968,
      "v": 100
    },
    {
      "midi": 48,
      "hit": false,
      "t": 11524.400999999993,
      "d": 182.92699999999968,
      "v": 100
    },
    {
      "midi": 65,
      "hit": false,
      "t": 11524.400999999993,
      "d": 182.92699999999968,
      "v": 100
    },
    {
      "midi": 36,
      "hit": false,
      "t": 11707.327999999987,
      "d": 182.92699999999968,
      "v": 100
    },
    {
      "midi": 46,
      "hit": false,
      "t": 11707.327999999987,
      "d": 182.92699999999968,
      "v": 80
    },
    {
      "midi": 39,
      "hit": false,
      "t": 11707.327999999987,
      "d": 365.85399999999936,
      "v": 90
    },
    {
      "midi": 40,
      "hit": false,
      "t": 11707.327999999987,
      "d": 365.85399999999936,
      "v": 100
    },
    {
      "midi": 64,
      "hit": false,
      "t": 11707.327999999992,
      "d": 182.92699999999968,
      "v": 100
    },
    {
      "midi": 48,
      "hit": false,
      "t": 11707.327999999992,
      "d": 182.92699999999968,
      "v": 100
    },
    {
      "midi": 67,
      "hit": false,
      "t": 11707.327999999992,
      "d": 182.92699999999968,
      "v": 100
    },
    {
      "midi": 60,
      "hit": false,
      "t": 11707.327999999992,
      "d": 182.92699999999968,
      "v": 100
    },
    {
      "midi": 55,
      "hit": false,
      "t": 11707.327999999992,
      "d": 182.92699999999968,
      "v": 100
    },
    {
      "midi": 64,
      "hit": false,
      "t": 11707.327999999992,
      "d": 182.92699999999968,
      "v": 100
    },
    {
      "midi": 48,
      "hit": false,
      "t": 11707.327999999992,
      "d": 182.92699999999968,
      "v": 100
    },
    {
      "midi": 67,
      "hit": false,
      "t": 11707.327999999992,
      "d": 182.92699999999968,
      "v": 100
    },
    {
      "midi": 60,
      "hit": false,
      "t": 11707.327999999992,
      "d": 182.92699999999968,
      "v": 100
    },
    {
      "midi": 55,
      "hit": false,
      "t": 11707.327999999992,
      "d": 182.92699999999968,
      "v": 100
    },
    {
      "midi": 67,
      "hit": false,
      "t": 11707.327999999992,
      "d": 365.85399999999936,
      "v": 100
    },
    {
      "midi": 36,
      "hit": false,
      "t": 11890.254999999986,
      "d": 182.92699999999968,
      "v": 100
    },
    {
      "midi": 46,
      "hit": false,
      "t": 11890.254999999986,
      "d": 182.92699999999968,
      "v": 80
    },
    {
      "midi": 65,
      "hit": false,
      "t": 11890.254999999992,
      "d": 91.46349999999984,
      "v": 80
    },
    {
      "midi": 57,
      "hit": false,
      "t": 11890.254999999992,
      "d": 91.46349999999984,
      "v": 80
    },
    {
      "midi": 69,
      "hit": false,
      "t": 11890.254999999992,
      "d": 91.46349999999984,
      "v": 80
    },
    {
      "midi": 62,
      "hit": false,
      "t": 11890.254999999992,
      "d": 91.46349999999984,
      "v": 80
    },
    {
      "midi": 50,
      "hit": false,
      "t": 11890.254999999992,
      "d": 91.46349999999984,
      "v": 80
    },
    {
      "midi": 65,
      "hit": false,
      "t": 11890.254999999992,
      "d": 91.46349999999984,
      "v": 80
    },
    {
      "midi": 57,
      "hit": false,
      "t": 11890.254999999992,
      "d": 91.46349999999984,
      "v": 80
    },
    {
      "midi": 69,
      "hit": false,
      "t": 11890.254999999992,
      "d": 91.46349999999984,
      "v": 80
    },
    {
      "midi": 62,
      "hit": false,
      "t": 11890.254999999992,
      "d": 91.46349999999984,
      "v": 80
    },
    {
      "midi": 50,
      "hit": false,
      "t": 11890.254999999992,
      "d": 91.46349999999984,
      "v": 80
    },
    {
      "midi": 65,
      "hit": false,
      "t": 11981.718499999992,
      "d": 91.46349999999984,
      "v": 80
    },
    {
      "midi": 50,
      "hit": false,
      "t": 11981.718499999992,
      "d": 91.46349999999984,
      "v": 80
    },
    {
      "midi": 57,
      "hit": false,
      "t": 11981.718499999992,
      "d": 91.46349999999984,
      "v": 80
    },
    {
      "midi": 69,
      "hit": false,
      "t": 11981.718499999992,
      "d": 91.46349999999984,
      "v": 80
    },
    {
      "midi": 62,
      "hit": false,
      "t": 11981.718499999992,
      "d": 91.46349999999984,
      "v": 80
    },
    {
      "midi": 65,
      "hit": false,
      "t": 11981.718499999992,
      "d": 91.46349999999984,
      "v": 80
    },
    {
      "midi": 50,
      "hit": false,
      "t": 11981.718499999992,
      "d": 91.46349999999984,
      "v": 80
    },
    {
      "midi": 57,
      "hit": false,
      "t": 11981.718499999992,
      "d": 91.46349999999984,
      "v": 80
    },
    {
      "midi": 69,
      "hit": false,
      "t": 11981.718499999992,
      "d": 91.46349999999984,
      "v": 80
    },
    {
      "midi": 62,
      "hit": false,
      "t": 11981.718499999992,
      "d": 91.46349999999984,
      "v": 80
    },
    {
      "midi": 38,
      "hit": false,
      "t": 12073.181999999986,
      "d": 182.92699999999968,
      "v": 100
    },
    {
      "midi": 36,
      "hit": false,
      "t": 12073.181999999986,
      "d": 365.85399999999936,
      "v": 100
    },
    {
      "midi": 39,
      "hit": false,
      "t": 12073.181999999986,
      "d": 365.85399999999936,
      "v": 90
    },
    {
      "midi": 49,
      "hit": false,
      "t": 12073.181999999986,
      "d": 731.7079999999987,
      "v": 100
    },
    {
      "midi": 50,
      "hit": false,
      "t": 12073.181999999992,
      "d": 365.85399999999936,
      "v": 100
    },
    {
      "midi": 62,
      "hit": false,
      "t": 12073.181999999992,
      "d": 365.85399999999936,
      "v": 100
    },
    {
      "midi": 69,
      "hit": false,
      "t": 12073.181999999992,
      "d": 365.85399999999936,
      "v": 100
    },
    {
      "midi": 65,
      "hit": false,
      "t": 12073.181999999992,
      "d": 365.85399999999936,
      "v": 100
    },
    {
      "midi": 57,
      "hit": false,
      "t": 12073.181999999992,
      "d": 365.85399999999936,
      "v": 100
    },
    {
      "midi": 50,
      "hit": false,
      "t": 12073.181999999992,
      "d": 365.85399999999936,
      "v": 100
    },
    {
      "midi": 62,
      "hit": false,
      "t": 12073.181999999992,
      "d": 365.85399999999936,
      "v": 100
    },
    {
      "midi": 69,
      "hit": false,
      "t": 12073.181999999992,
      "d": 365.85399999999936,
      "v": 100
    },
    {
      "midi": 65,
      "hit": false,
      "t": 12073.181999999992,
      "d": 365.85399999999936,
      "v": 100
    },
    {
      "midi": 57,
      "hit": false,
      "t": 12073.181999999992,
      "d": 365.85399999999936,
      "v": 100
    },
    {
      "midi": 65,
      "hit": false,
      "t": 12073.181999999992,
      "d": 365.85399999999936,
      "v": 100
    },
    {
      "midi": 38,
      "hit": false,
      "t": 12256.108999999986,
      "d": 182.92699999999968,
      "v": 100
    },
    {
      "midi": 46,
      "hit": false,
      "t": 12256.108999999986,
      "d": 182.92699999999968,
      "v": 80
    },
    {
      "midi": 38,
      "hit": false,
      "t": 12439.035999999986,
      "d": 182.92699999999968,
      "v": 100
    },
    {
      "midi": 46,
      "hit": false,
      "t": 12439.035999999986,
      "d": 182.92699999999968,
      "v": 80
    },
    {
      "midi": 39,
      "hit": false,
      "t": 12439.035999999986,
      "d": 365.85399999999936,
      "v": 90
    },
    {
      "midi": 40,
      "hit": false,
      "t": 12439.035999999986,
      "d": 365.85399999999936,
      "v": 100
    },
    {
      "midi": 65,
      "hit": false,
      "t": 12439.035999999991,
      "d": 365.85399999999936,
      "v": 100
    },
    {
      "midi": 62,
      "hit": false,
      "t": 12439.035999999991,
      "d": 365.85399999999936,
      "v": 100
    },
    {
      "midi": 69,
      "hit": false,
      "t": 12439.035999999991,
      "d": 365.85399999999936,
      "v": 100
    },
    {
      "midi": 57,
      "hit": false,
      "t": 12439.035999999991,
      "d": 365.85399999999936,
      "v": 100
    },
    {
      "midi": 50,
      "hit": false,
      "t": 12439.035999999991,
      "d": 365.85399999999936,
      "v": 100
    },
    {
      "midi": 65,
      "hit": false,
      "t": 12439.035999999991,
      "d": 365.85399999999936,
      "v": 100
    },
    {
      "midi": 62,
      "hit": false,
      "t": 12439.035999999991,
      "d": 365.85399999999936,
      "v": 100
    },
    {
      "midi": 69,
      "hit": false,
      "t": 12439.035999999991,
      "d": 365.85399999999936,
      "v": 100
    },
    {
      "midi": 57,
      "hit": false,
      "t": 12439.035999999991,
      "d": 365.85399999999936,
      "v": 100
    },
    {
      "midi": 50,
      "hit": false,
      "t": 12439.035999999991,
      "d": 365.85399999999936,
      "v": 100
    },
    {
      "midi": 60,
      "hit": false,
      "t": 12439.035999999991,
      "d": 365.85399999999936,
      "v": 100
    },
    {
      "midi": 38,
      "hit": false,
      "t": 12621.962999999985,
      "d": 182.92699999999968,
      "v": 100
    },
    {
      "midi": 46,
      "hit": false,
      "t": 12621.962999999985,
      "d": 182.92699999999968,
      "v": 80
    },
    {
      "midi": 38,
      "hit": false,
      "t": 12804.889999999985,
      "d": 182.92699999999968,
      "v": 100
    },
    {
      "midi": 46,
      "hit": false,
      "t": 12804.889999999985,
      "d": 182.92699999999968,
      "v": 80
    },
    {
      "midi": 36,
      "hit": false,
      "t": 12804.889999999985,
      "d": 182.92699999999968,
      "v": 100
    },
    {
      "midi": 39,
      "hit": false,
      "t": 12804.889999999985,
      "d": 365.85399999999936,
      "v": 90
    },
    {
      "midi": 69,
      "hit": false,
      "t": 12804.88999999999,
      "d": 365.85399999999936,
      "v": 100
    },
    {
      "midi": 65,
      "hit": false,
      "t": 12804.88999999999,
      "d": 365.85399999999936,
      "v": 100
    },
    {
      "midi": 62,
      "hit": false,
      "t": 12804.88999999999,
      "d": 365.85399999999936,
      "v": 100
    },
    {
      "midi": 57,
      "hit": false,
      "t": 12804.88999999999,
      "d": 365.85399999999936,
      "v": 100
    },
    {
      "midi": 50,
      "hit": false,
      "t": 12804.88999999999,
      "d": 365.85399999999936,
      "v": 100
    },
    {
      "midi": 69,
      "hit": false,
      "t": 12804.88999999999,
      "d": 365.85399999999936,
      "v": 100
    },
    {
      "midi": 65,
      "hit": false,
      "t": 12804.88999999999,
      "d": 365.85399999999936,
      "v": 100
    },
    {
      "midi": 62,
      "hit": false,
      "t": 12804.88999999999,
      "d": 365.85399999999936,
      "v": 100
    },
    {
      "midi": 57,
      "hit": false,
      "t": 12804.88999999999,
      "d": 365.85399999999936,
      "v": 100
    },
    {
      "midi": 50,
      "hit": false,
      "t": 12804.88999999999,
      "d": 365.85399999999936,
      "v": 100
    },
    {
      "midi": 60,
      "hit": false,
      "t": 12804.88999999999,
      "d": 365.85399999999936,
      "v": 100
    },
    {
      "midi": 38,
      "hit": false,
      "t": 12987.816999999985,
      "d": 182.92699999999968,
      "v": 100
    },
    {
      "midi": 46,
      "hit": false,
      "t": 12987.816999999985,
      "d": 182.92699999999968,
      "v": 80
    },
    {
      "midi": 36,
      "hit": false,
      "t": 12987.816999999985,
      "d": 182.92699999999968,
      "v": 100
    },
    {
      "midi": 38,
      "hit": false,
      "t": 13170.743999999984,
      "d": 182.92699999999968,
      "v": 100
    },
    {
      "midi": 46,
      "hit": false,
      "t": 13170.743999999984,
      "d": 182.92699999999968,
      "v": 80
    },
    {
      "midi": 40,
      "hit": false,
      "t": 13170.743999999984,
      "d": 365.85399999999936,
      "v": 100
    },
    {
      "midi": 39,
      "hit": false,
      "t": 13170.743999999984,
      "d": 365.85399999999936,
      "v": 90
    },
    {
      "midi": 50,
      "hit": false,
      "t": 13170.74399999999,
      "d": 182.92699999999968,
      "v": 100
    },
    {
      "midi": 69,
      "hit": false,
      "t": 13170.74399999999,
      "d": 182.92699999999968,
      "v": 100
    },
    {
      "midi": 57,
      "hit": false,
      "t": 13170.74399999999,
      "d": 182.92699999999968,
      "v": 100
    },
    {
      "midi": 65,
      "hit": false,
      "t": 13170.74399999999,
      "d": 182.92699999999968,
      "v": 100
    },
    {
      "midi": 62,
      "hit": false,
      "t": 13170.74399999999,
      "d": 182.92699999999968,
      "v": 100
    },
    {
      "midi": 50,
      "hit": false,
      "t": 13170.74399999999,
      "d": 182.92699999999968,
      "v": 100
    },
    {
      "midi": 69,
      "hit": false,
      "t": 13170.74399999999,
      "d": 182.92699999999968,
      "v": 100
    },
    {
      "midi": 57,
      "hit": false,
      "t": 13170.74399999999,
      "d": 182.92699999999968,
      "v": 100
    },
    {
      "midi": 65,
      "hit": false,
      "t": 13170.74399999999,
      "d": 182.92699999999968,
      "v": 100
    },
    {
      "midi": 62,
      "hit": false,
      "t": 13170.74399999999,
      "d": 182.92699999999968,
      "v": 100
    },
    {
      "midi": 60,
      "hit": false,
      "t": 13170.74399999999,
      "d": 365.85399999999936,
      "v": 100
    },
    {
      "midi": 38,
      "hit": false,
      "t": 13353.670999999984,
      "d": 182.92699999999968,
      "v": 100
    },
    {
      "midi": 46,
      "hit": false,
      "t": 13353.670999999984,
      "d": 182.92699999999968,
      "v": 80
    },
    {
      "midi": 62,
      "hit": false,
      "t": 13353.67099999999,
      "d": 91.46349999999984,
      "v": 80
    },
    {
      "midi": 58,
      "hit": false,
      "t": 13353.67099999999,
      "d": 91.46349999999984,
      "v": 80
    },
    {
      "midi": 53,
      "hit": false,
      "t": 13353.67099999999,
      "d": 91.46349999999984,
      "v": 80
    },
    {
      "midi": 65,
      "hit": false,
      "t": 13353.67099999999,
      "d": 91.46349999999984,
      "v": 80
    },
    {
      "midi": 46,
      "hit": false,
      "t": 13353.67099999999,
      "d": 91.46349999999984,
      "v": 80
    },
    {
      "midi": 62,
      "hit": false,
      "t": 13353.67099999999,
      "d": 91.46349999999984,
      "v": 80
    },
    {
      "midi": 58,
      "hit": false,
      "t": 13353.67099999999,
      "d": 91.46349999999984,
      "v": 80
    },
    {
      "midi": 53,
      "hit": false,
      "t": 13353.67099999999,
      "d": 91.46349999999984,
      "v": 80
    },
    {
      "midi": 65,
      "hit": false,
      "t": 13353.67099999999,
      "d": 91.46349999999984,
      "v": 80
    },
    {
      "midi": 46,
      "hit": false,
      "t": 13353.67099999999,
      "d": 91.46349999999984,
      "v": 80
    },
    {
      "midi": 65,
      "hit": false,
      "t": 13445.13449999999,
      "d": 91.46349999999984,
      "v": 80
    },
    {
      "midi": 58,
      "hit": false,
      "t": 13445.13449999999,
      "d": 91.46349999999984,
      "v": 80
    },
    {
      "midi": 53,
      "hit": false,
      "t": 13445.13449999999,
      "d": 91.46349999999984,
      "v": 80
    },
    {
      "midi": 46,
      "hit": false,
      "t": 13445.13449999999,
      "d": 91.46349999999984,
      "v": 80
    },
    {
      "midi": 62,
      "hit": false,
      "t": 13445.13449999999,
      "d": 91.46349999999984,
      "v": 80
    },
    {
      "midi": 65,
      "hit": false,
      "t": 13445.13449999999,
      "d": 91.46349999999984,
      "v": 80
    },
    {
      "midi": 58,
      "hit": false,
      "t": 13445.13449999999,
      "d": 91.46349999999984,
      "v": 80
    },
    {
      "midi": 53,
      "hit": false,
      "t": 13445.13449999999,
      "d": 91.46349999999984,
      "v": 80
    },
    {
      "midi": 46,
      "hit": false,
      "t": 13445.13449999999,
      "d": 91.46349999999984,
      "v": 80
    },
    {
      "midi": 62,
      "hit": false,
      "t": 13445.13449999999,
      "d": 91.46349999999984,
      "v": 80
    },
    {
      "midi": 34,
      "hit": false,
      "t": 13536.597999999984,
      "d": 182.92699999999968,
      "v": 100
    },
    {
      "midi": 39,
      "hit": false,
      "t": 13536.597999999984,
      "d": 365.85399999999936,
      "v": 90
    },
    {
      "midi": 36,
      "hit": false,
      "t": 13536.597999999984,
      "d": 365.85399999999936,
      "v": 100
    },
    {
      "midi": 49,
      "hit": false,
      "t": 13536.597999999984,
      "d": 548.780999999999,
      "v": 100
    },
    {
      "midi": 62,
      "hit": false,
      "t": 13536.597999999989,
      "d": 365.85399999999936,
      "v": 100
    },
    {
      "midi": 53,
      "hit": false,
      "t": 13536.597999999989,
      "d": 365.85399999999936,
      "v": 100
    },
    {
      "midi": 65,
      "hit": false,
      "t": 13536.597999999989,
      "d": 365.85399999999936,
      "v": 100
    },
    {
      "midi": 46,
      "hit": false,
      "t": 13536.597999999989,
      "d": 365.85399999999936,
      "v": 100
    },
    {
      "midi": 58,
      "hit": false,
      "t": 13536.597999999989,
      "d": 365.85399999999936,
      "v": 100
    },
    {
      "midi": 62,
      "hit": false,
      "t": 13536.597999999989,
      "d": 365.85399999999936,
      "v": 100
    },
    {
      "midi": 53,
      "hit": false,
      "t": 13536.597999999989,
      "d": 365.85399999999936,
      "v": 100
    },
    {
      "midi": 65,
      "hit": false,
      "t": 13536.597999999989,
      "d": 365.85399999999936,
      "v": 100
    },
    {
      "midi": 46,
      "hit": false,
      "t": 13536.597999999989,
      "d": 365.85399999999936,
      "v": 100
    },
    {
      "midi": 58,
      "hit": false,
      "t": 13536.597999999989,
      "d": 365.85399999999936,
      "v": 100
    },
    {
      "midi": 62,
      "hit": false,
      "t": 13536.597999999989,
      "d": 182.92699999999968,
      "v": 100
    },
    {
      "midi": 34,
      "hit": false,
      "t": 13719.524999999983,
      "d": 182.92699999999968,
      "v": 100
    },
    {
      "midi": 46,
      "hit": false,
      "t": 13719.524999999983,
      "d": 182.92699999999968,
      "v": 80
    },
    {
      "midi": 60,
      "hit": false,
      "t": 13719.524999999989,
      "d": 182.92699999999968,
      "v": 100
    },
    {
      "midi": 34,
      "hit": false,
      "t": 13902.451999999983,
      "d": 182.92699999999968,
      "v": 100
    },
    {
      "midi": 40,
      "hit": false,
      "t": 13902.451999999983,
      "d": 182.92699999999968,
      "v": 100
    },
    {
      "midi": 46,
      "hit": false,
      "t": 13902.451999999983,
      "d": 182.92699999999968,
      "v": 80
    },
    {
      "midi": 39,
      "hit": false,
      "t": 13902.451999999983,
      "d": 365.85399999999936,
      "v": 90
    },
    {
      "midi": 58,
      "hit": false,
      "t": 13902.451999999988,
      "d": 182.92699999999968,
      "v": 100
    },
    {
      "midi": 36,
      "hit": false,
      "t": 14085.378999999983,
      "d": 365.85399999999936,
      "v": 100
    },
    {
      "midi": 36,
      "hit": false,
      "t": 14085.378999999983,
      "d": 365.85399999999936,
      "v": 100
    },
    {
      "midi": 49,
      "hit": false,
      "t": 14085.378999999983,
      "d": 731.7079999999987,
      "v": 100
    },
    {
      "midi": 64,
      "hit": false,
      "t": 14085.378999999988,
      "d": 365.85399999999936,
      "v": 100
    },
    {
      "midi": 60,
      "hit": false,
      "t": 14085.378999999988,
      "d": 365.85399999999936,
      "v": 100
    },
    {
      "midi": 48,
      "hit": false,
      "t": 14085.378999999988,
      "d": 365.85399999999936,
      "v": 100
    },
    {
      "midi": 55,
      "hit": false,
      "t": 14085.378999999988,
      "d": 365.85399999999936,
      "v": 100
    },
    {
      "midi": 67,
      "hit": false,
      "t": 14085.378999999988,
      "d": 365.85399999999936,
      "v": 100
    },
    {
      "midi": 64,
      "hit": false,
      "t": 14085.378999999988,
      "d": 365.85399999999936,
      "v": 100
    },
    {
      "midi": 60,
      "hit": false,
      "t": 14085.378999999988,
      "d": 365.85399999999936,
      "v": 100
    },
    {
      "midi": 48,
      "hit": false,
      "t": 14085.378999999988,
      "d": 365.85399999999936,
      "v": 100
    },
    {
      "midi": 55,
      "hit": false,
      "t": 14085.378999999988,
      "d": 365.85399999999936,
      "v": 100
    },
    {
      "midi": 67,
      "hit": false,
      "t": 14085.378999999988,
      "d": 365.85399999999936,
      "v": 100
    },
    {
      "midi": 60,
      "hit": false,
      "t": 14085.378999999988,
      "d": 914.6350000000002,
      "v": 100
    },
    {
      "midi": 46,
      "hit": false,
      "t": 14268.305999999982,
      "d": 182.92699999999968,
      "v": 80
    },
    {
      "midi": 39,
      "hit": false,
      "t": 14268.305999999982,
      "d": 365.85399999999936,
      "v": 90
    },
    {
      "midi": 36,
      "hit": false,
      "t": 14451.232999999982,
      "d": 182.92699999999968,
      "v": 100
    },
    {
      "midi": 46,
      "hit": false,
      "t": 14451.232999999982,
      "d": 182.92699999999968,
      "v": 80
    },
    {
      "midi": 36,
      "hit": false,
      "t": 14451.232999999982,
      "d": 182.92699999999968,
      "v": 100
    },
    {
      "midi": 67,
      "hit": false,
      "t": 14451.232999999987,
      "d": 182.92699999999968,
      "v": 100
    },
    {
      "midi": 60,
      "hit": false,
      "t": 14451.232999999987,
      "d": 182.92699999999968,
      "v": 100
    },
    {
      "midi": 64,
      "hit": false,
      "t": 14451.232999999987,
      "d": 182.92699999999968,
      "v": 100
    },
    {
      "midi": 55,
      "hit": false,
      "t": 14451.232999999987,
      "d": 182.92699999999968,
      "v": 100
    },
    {
      "midi": 48,
      "hit": false,
      "t": 14451.232999999987,
      "d": 182.92699999999968,
      "v": 100
    },
    {
      "midi": 67,
      "hit": false,
      "t": 14451.232999999987,
      "d": 182.92699999999968,
      "v": 100
    },
    {
      "midi": 60,
      "hit": false,
      "t": 14451.232999999987,
      "d": 182.92699999999968,
      "v": 100
    },
    {
      "midi": 64,
      "hit": false,
      "t": 14451.232999999987,
      "d": 182.92699999999968,
      "v": 100
    },
    {
      "midi": 55,
      "hit": false,
      "t": 14451.232999999987,
      "d": 182.92699999999968,
      "v": 100
    },
    {
      "midi": 48,
      "hit": false,
      "t": 14451.232999999987,
      "d": 182.92699999999968,
      "v": 100
    },
    {
      "midi": 39,
      "hit": false,
      "t": 14634.159999999982,
      "d": 365.85400000000845,
      "v": 100
    },
    {
      "midi": 40,
      "hit": false,
      "t": 14634.159999999982,
      "d": 182.92699999999968,
      "v": 100
    },
    {
      "midi": 46,
      "hit": false,
      "t": 14634.159999999982,
      "d": 182.92699999999968,
      "v": 80
    },
    {
      "midi": 39,
      "hit": false,
      "t": 14634.159999999982,
      "d": 365.85399999999936,
      "v": 90
    },
    {
      "midi": 64,
      "hit": false,
      "t": 14634.159999999987,
      "d": 365.85399999999936,
      "v": 100
    },
    {
      "midi": 60,
      "hit": false,
      "t": 14634.159999999987,
      "d": 365.85399999999936,
      "v": 100
    },
    {
      "midi": 67,
      "hit": false,
      "t": 14634.159999999987,
      "d": 365.85399999999936,
      "v": 100
    },
    {
      "midi": 55,
      "hit": false,
      "t": 14634.159999999987,
      "d": 365.85399999999936,
      "v": 100
    },
    {
      "midi": 48,
      "hit": false,
      "t": 14634.159999999987,
      "d": 365.85399999999936,
      "v": 100
    },
    {
      "midi": 64,
      "hit": false,
      "t": 14634.159999999987,
      "d": 365.85399999999936,
      "v": 100
    },
    {
      "midi": 60,
      "hit": false,
      "t": 14634.159999999987,
      "d": 365.85399999999936,
      "v": 100
    },
    {
      "midi": 67,
      "hit": false,
      "t": 14634.159999999987,
      "d": 365.85399999999936,
      "v": 100
    },
    {
      "midi": 55,
      "hit": false,
      "t": 14634.159999999987,
      "d": 365.85399999999936,
      "v": 100
    },
    {
      "midi": 48,
      "hit": false,
      "t": 14634.159999999987,
      "d": 365.85399999999936,
      "v": 100
    },
    {
      "midi": 40,
      "hit": false,
      "t": 14817.086999999981,
      "d": 91.46349999999984,
      "v": 100
    },
    {
      "midi": 40,
      "hit": false,
      "t": 14908.550499999981,
      "d": 91.46349999999984,
      "v": 100
    },
    {
      "midi": 36,
      "hit": false,
      "t": 15000.013999999981,
      "d": 365.85399999999936,
      "v": 100
    },
    {
      "midi": 49,
      "hit": false,
      "t": 15000.013999999981,
      "d": 731.7079999999987,
      "v": 100
    },
    {
      "midi": 53,
      "hit": false,
      "t": 15000.013999999986,
      "d": 1280.4889999999996,
      "v": 100
    },
    {
      "midi": 57,
      "hit": false,
      "t": 15000.013999999986,
      "d": 1280.4889999999996,
      "v": 100
    },
    {
      "midi": 65,
      "hit": false,
      "t": 15000.013999999986,
      "d": 1280.4889999999996,
      "v": 100
    },
    {
      "midi": 60,
      "hit": false,
      "t": 15000.013999999986,
      "d": 1280.4889999999996,
      "v": 100
    },
    {
      "midi": 48,
      "hit": false,
      "t": 15000.013999999986,
      "d": 1280.4889999999996,
      "v": 100
    },
    {
      "midi": 53,
      "hit": false,
      "t": 15000.013999999986,
      "d": 1280.4889999999996,
      "v": 100
    },
    {
      "midi": 57,
      "hit": false,
      "t": 15000.013999999986,
      "d": 1280.4889999999996,
      "v": 100
    },
    {
      "midi": 65,
      "hit": false,
      "t": 15000.013999999986,
      "d": 1280.4889999999996,
      "v": 100
    },
    {
      "midi": 60,
      "hit": false,
      "t": 15000.013999999986,
      "d": 1280.4889999999996,
      "v": 100
    },
    {
      "midi": 48,
      "hit": false,
      "t": 15000.013999999986,
      "d": 1280.4889999999996,
      "v": 100
    },
    {
      "midi": 29,
      "hit": false,
      "t": 15000.01399999999,
      "d": 182.92699999999968,
      "v": 100
    },
    {
      "midi": 53,
      "hit": false,
      "t": 15000.014,
      "d": 1280.4889999999978,
      "v": 100
    },
    {
      "midi": 46,
      "hit": false,
      "t": 15182.94099999998,
      "d": 182.92699999999968,
      "v": 80
    },
    {
      "midi": 29,
      "hit": false,
      "t": 15182.94099999999,
      "d": 182.92699999999968,
      "v": 100
    },
    {
      "midi": 46,
      "hit": false,
      "t": 15365.86799999998,
      "d": 182.92699999999968,
      "v": 80
    },
    {
      "midi": 40,
      "hit": false,
      "t": 15365.86799999998,
      "d": 365.85399999999936,
      "v": 100
    },
    {
      "midi": 29,
      "hit": false,
      "t": 15365.86799999999,
      "d": 182.92699999999968,
      "v": 100
    },
    {
      "midi": 60,
      "hit": false,
      "t": 15365.867999999999,
      "d": 548.780999999999,
      "v": 100
    },
    {
      "midi": 57,
      "hit": false,
      "t": 15365.867999999999,
      "d": 320.12225000000035,
      "v": 100
    },
    {
      "midi": 60,
      "hit": false,
      "t": 15365.867999999999,
      "d": 320.12225000000035,
      "v": 100
    },
    {
      "midi": 46,
      "hit": false,
      "t": 15548.79499999998,
      "d": 182.92699999999968,
      "v": 80
    },
    {
      "midi": 29,
      "hit": false,
      "t": 15548.79499999999,
      "d": 182.92699999999968,
      "v": 100
    },
    {
      "midi": 65,
      "hit": false,
      "t": 15548.794999999998,
      "d": 914.6349999999984,
      "v": 100
    },
    {
      "midi": 46,
      "hit": false,
      "t": 15731.72199999998,
      "d": 182.92699999999968,
      "v": 80
    },
    {
      "midi": 36,
      "hit": false,
      "t": 15731.72199999998,
      "d": 182.92699999999968,
      "v": 100
    },
    {
      "midi": 29,
      "hit": false,
      "t": 15731.721999999989,
      "d": 182.92699999999968,
      "v": 100
    },
    {
      "midi": 57,
      "hit": false,
      "t": 15731.722,
      "d": 320.12225000000035,
      "v": 100
    },
    {
      "midi": 60,
      "hit": false,
      "t": 15731.722,
      "d": 320.12225000000035,
      "v": 100
    },
    {
      "midi": 46,
      "hit": false,
      "t": 15914.64899999998,
      "d": 182.92699999999968,
      "v": 80
    },
    {
      "midi": 36,
      "hit": false,
      "t": 15914.64899999998,
      "d": 182.92699999999968,
      "v": 100
    },
    {
      "midi": 29,
      "hit": false,
      "t": 15914.648999999989,
      "d": 182.92699999999968,
      "v": 100
    },
    {
      "midi": 60,
      "hit": false,
      "t": 15914.648999999998,
      "d": 548.780999999999,
      "v": 100
    },
    {
      "midi": 46,
      "hit": false,
      "t": 16097.57599999998,
      "d": 182.92699999999968,
      "v": 80
    },
    {
      "midi": 40,
      "hit": false,
      "t": 16097.57599999998,
      "d": 365.85399999999936,
      "v": 100
    },
    {
      "midi": 29,
      "hit": false,
      "t": 16097.575999999988,
      "d": 182.92699999999968,
      "v": 100
    },
    {
      "midi": 57,
      "hit": false,
      "t": 16097.575999999997,
      "d": 365.85399999999936,
      "v": 100
    },
    {
      "midi": 57,
      "hit": false,
      "t": 16097.576000000001,
      "d": 320.12225000000035,
      "v": 100
    },
    {
      "midi": 60,
      "hit": false,
      "t": 16097.576000000001,
      "d": 320.12225000000035,
      "v": 100
    },
    {
      "midi": 46,
      "hit": false,
      "t": 16280.502999999979,
      "d": 182.92699999999968,
      "v": 80
    },
    {
      "midi": 65,
      "hit": false,
      "t": 16280.502999999986,
      "d": 91.46349999999984,
      "v": 80
    },
    {
      "midi": 58,
      "hit": false,
      "t": 16280.502999999986,
      "d": 91.46349999999984,
      "v": 80
    },
    {
      "midi": 46,
      "hit": false,
      "t": 16280.502999999986,
      "d": 91.46349999999984,
      "v": 80
    },
    {
      "midi": 53,
      "hit": false,
      "t": 16280.502999999986,
      "d": 91.46349999999984,
      "v": 80
    },
    {
      "midi": 62,
      "hit": false,
      "t": 16280.502999999986,
      "d": 91.46349999999984,
      "v": 80
    },
    {
      "midi": 65,
      "hit": false,
      "t": 16280.502999999986,
      "d": 91.46349999999984,
      "v": 80
    },
    {
      "midi": 58,
      "hit": false,
      "t": 16280.502999999986,
      "d": 91.46349999999984,
      "v": 80
    },
    {
      "midi": 46,
      "hit": false,
      "t": 16280.502999999986,
      "d": 91.46349999999984,
      "v": 80
    },
    {
      "midi": 53,
      "hit": false,
      "t": 16280.502999999986,
      "d": 91.46349999999984,
      "v": 80
    },
    {
      "midi": 62,
      "hit": false,
      "t": 16280.502999999986,
      "d": 91.46349999999984,
      "v": 80
    },
    {
      "midi": 29,
      "hit": false,
      "t": 16280.502999999988,
      "d": 182.9270000000015,
      "v": 100
    },
    {
      "midi": 53,
      "hit": false,
      "t": 16280.502999999997,
      "d": 182.92699999999968,
      "v": 100
    },
    {
      "midi": 65,
      "hit": false,
      "t": 16371.966499999986,
      "d": 91.46349999999984,
      "v": 80
    },
    {
      "midi": 58,
      "hit": false,
      "t": 16371.966499999986,
      "d": 91.46349999999984,
      "v": 80
    },
    {
      "midi": 46,
      "hit": false,
      "t": 16371.966499999986,
      "d": 91.46349999999984,
      "v": 80
    },
    {
      "midi": 53,
      "hit": false,
      "t": 16371.966499999986,
      "d": 91.46349999999984,
      "v": 80
    },
    {
      "midi": 62,
      "hit": false,
      "t": 16371.966499999986,
      "d": 91.46349999999984,
      "v": 80
    },
    {
      "midi": 65,
      "hit": false,
      "t": 16371.966499999986,
      "d": 91.46349999999984,
      "v": 80
    },
    {
      "midi": 58,
      "hit": false,
      "t": 16371.966499999986,
      "d": 91.46349999999984,
      "v": 80
    },
    {
      "midi": 46,
      "hit": false,
      "t": 16371.966499999986,
      "d": 91.46349999999984,
      "v": 80
    },
    {
      "midi": 53,
      "hit": false,
      "t": 16371.966499999986,
      "d": 91.46349999999984,
      "v": 80
    },
    {
      "midi": 62,
      "hit": false,
      "t": 16371.966499999986,
      "d": 91.46349999999984,
      "v": 80
    },
    {
      "midi": 46,
      "hit": false,
      "t": 16463.42999999998,
      "d": 182.92699999999968,
      "v": 80
    },
    {
      "midi": 36,
      "hit": false,
      "t": 16463.42999999998,
      "d": 365.85399999999936,
      "v": 100
    },
    {
      "midi": 46,
      "hit": false,
      "t": 16463.429999999986,
      "d": 548.780999999999,
      "v": 100
    },
    {
      "midi": 58,
      "hit": false,
      "t": 16463.429999999986,
      "d": 548.780999999999,
      "v": 100
    },
    {
      "midi": 65,
      "hit": false,
      "t": 16463.429999999986,
      "d": 548.780999999999,
      "v": 100
    },
    {
      "midi": 62,
      "hit": false,
      "t": 16463.429999999986,
      "d": 548.780999999999,
      "v": 100
    },
    {
      "midi": 53,
      "hit": false,
      "t": 16463.429999999986,
      "d": 548.780999999999,
      "v": 100
    },
    {
      "midi": 46,
      "hit": false,
      "t": 16463.429999999986,
      "d": 548.780999999999,
      "v": 100
    },
    {
      "midi": 58,
      "hit": false,
      "t": 16463.429999999986,
      "d": 548.780999999999,
      "v": 100
    },
    {
      "midi": 65,
      "hit": false,
      "t": 16463.429999999986,
      "d": 548.780999999999,
      "v": 100
    },
    {
      "midi": 62,
      "hit": false,
      "t": 16463.429999999986,
      "d": 548.780999999999,
      "v": 100
    },
    {
      "midi": 53,
      "hit": false,
      "t": 16463.429999999986,
      "d": 548.780999999999,
      "v": 100
    },
    {
      "midi": 34,
      "hit": false,
      "t": 16463.42999999999,
      "d": 182.92699999999968,
      "v": 100
    },
    {
      "midi": 57,
      "hit": false,
      "t": 16463.429999999997,
      "d": 1097.561999999998,
      "v": 100
    },
    {
      "midi": 57,
      "hit": false,
      "t": 16463.43,
      "d": 320.12225000000035,
      "v": 100
    },
    {
      "midi": 60,
      "hit": false,
      "t": 16463.43,
      "d": 320.12225000000035,
      "v": 100
    },
    {
      "midi": 46,
      "hit": false,
      "t": 16646.356999999978,
      "d": 182.92699999999968,
      "v": 80
    },
    {
      "midi": 34,
      "hit": false,
      "t": 16646.35699999999,
      "d": 182.92699999999968,
      "v": 100
    },
    {
      "midi": 40,
      "hit": false,
      "t": 16829.283999999978,
      "d": 182.92699999999968,
      "v": 100
    },
    {
      "midi": 46,
      "hit": false,
      "t": 16829.283999999978,
      "d": 182.92699999999968,
      "v": 80
    },
    {
      "midi": 34,
      "hit": false,
      "t": 16829.28399999999,
      "d": 182.92699999999968,
      "v": 100
    },
    {
      "midi": 60,
      "hit": false,
      "t": 16829.283999999996,
      "d": 548.780999999999,
      "v": 100
    },
    {
      "midi": 60,
      "hit": false,
      "t": 16829.284,
      "d": 137.19525000000067,
      "v": 100
    },
    {
      "midi": 57,
      "hit": false,
      "t": 16829.284,
      "d": 137.19525000000067,
      "v": 100
    },
    {
      "midi": 46,
      "hit": false,
      "t": 17012.210999999978,
      "d": 182.92699999999968,
      "v": 80
    },
    {
      "midi": 36,
      "hit": false,
      "t": 17012.210999999978,
      "d": 365.85399999999936,
      "v": 100
    },
    {
      "midi": 48,
      "hit": false,
      "t": 17012.210999999985,
      "d": 731.7079999999987,
      "v": 100
    },
    {
      "midi": 60,
      "hit": false,
      "t": 17012.210999999985,
      "d": 731.7079999999987,
      "v": 100
    },
    {
      "midi": 67,
      "hit": false,
      "t": 17012.210999999985,
      "d": 731.7079999999987,
      "v": 100
    },
    {
      "midi": 64,
      "hit": false,
      "t": 17012.210999999985,
      "d": 731.7079999999987,
      "v": 100
    },
    {
      "midi": 55,
      "hit": false,
      "t": 17012.210999999985,
      "d": 731.7079999999987,
      "v": 100
    },
    {
      "midi": 48,
      "hit": false,
      "t": 17012.210999999985,
      "d": 731.7079999999987,
      "v": 100
    },
    {
      "midi": 60,
      "hit": false,
      "t": 17012.210999999985,
      "d": 731.7079999999987,
      "v": 100
    },
    {
      "midi": 67,
      "hit": false,
      "t": 17012.210999999985,
      "d": 731.7079999999987,
      "v": 100
    },
    {
      "midi": 64,
      "hit": false,
      "t": 17012.210999999985,
      "d": 731.7079999999987,
      "v": 100
    },
    {
      "midi": 55,
      "hit": false,
      "t": 17012.210999999985,
      "d": 731.7079999999987,
      "v": 100
    },
    {
      "midi": 36,
      "hit": false,
      "t": 17012.21099999999,
      "d": 365.85399999999936,
      "v": 100
    },
    {
      "midi": 62,
      "hit": false,
      "t": 17012.210999999996,
      "d": 914.6349999999984,
      "v": 100
    },
    {
      "midi": 57,
      "hit": false,
      "t": 17012.211,
      "d": 320.12225000000035,
      "v": 100
    },
    {
      "midi": 60,
      "hit": false,
      "t": 17012.211,
      "d": 320.12225000000035,
      "v": 100
    },
    {
      "midi": 46,
      "hit": false,
      "t": 17195.137999999977,
      "d": 182.92699999999968,
      "v": 80
    },
    {
      "midi": 46,
      "hit": false,
      "t": 17378.064999999977,
      "d": 182.92699999999968,
      "v": 80
    },
    {
      "midi": 36,
      "hit": false,
      "t": 17378.064999999977,
      "d": 182.92699999999968,
      "v": 100
    },
    {
      "midi": 36,
      "hit": false,
      "t": 17378.064999999988,
      "d": 182.92699999999968,
      "v": 100
    },
    {
      "midi": 60,
      "hit": false,
      "t": 17378.064999999995,
      "d": 365.85399999999936,
      "v": 100
    },
    {
      "midi": 57,
      "hit": false,
      "t": 17378.065,
      "d": 182.92699999999968,
      "v": 100
    },
    {
      "midi": 60,
      "hit": false,
      "t": 17378.065,
      "d": 182.92699999999968,
      "v": 100
    },
    {
      "midi": 46,
      "hit": false,
      "t": 17560.991999999977,
      "d": 182.92699999999968,
      "v": 80
    },
    {
      "midi": 40,
      "hit": false,
      "t": 17560.991999999977,
      "d": 365.85399999999936,
      "v": 100
    },
    {
      "midi": 36,
      "hit": false,
      "t": 17560.991999999987,
      "d": 182.92699999999968,
      "v": 100
    },
    {
      "midi": 57,
      "hit": false,
      "t": 17560.991999999995,
      "d": 365.85399999999936,
      "v": 100
    },
    {
      "midi": 58,
      "hit": false,
      "t": 17560.992,
      "d": 182.92699999999968,
      "v": 100
    },
    {
      "midi": 62,
      "hit": false,
      "t": 17560.992,
      "d": 182.92699999999968,
      "v": 100
    },
    {
      "midi": 46,
      "hit": false,
      "t": 17743.918999999976,
      "d": 182.92699999999968,
      "v": 80
    },
    {
      "midi": 65,
      "hit": false,
      "t": 17743.918999999983,
      "d": 91.46350000000166,
      "v": 80
    },
    {
      "midi": 57,
      "hit": false,
      "t": 17743.918999999983,
      "d": 91.46350000000166,
      "v": 80
    },
    {
      "midi": 48,
      "hit": false,
      "t": 17743.918999999983,
      "d": 91.46350000000166,
      "v": 80
    },
    {
      "midi": 53,
      "hit": false,
      "t": 17743.918999999983,
      "d": 91.46350000000166,
      "v": 80
    },
    {
      "midi": 60,
      "hit": false,
      "t": 17743.918999999983,
      "d": 91.46350000000166,
      "v": 80
    },
    {
      "midi": 65,
      "hit": false,
      "t": 17743.918999999983,
      "d": 91.46350000000166,
      "v": 80
    },
    {
      "midi": 57,
      "hit": false,
      "t": 17743.918999999983,
      "d": 91.46350000000166,
      "v": 80
    },
    {
      "midi": 48,
      "hit": false,
      "t": 17743.918999999983,
      "d": 91.46350000000166,
      "v": 80
    },
    {
      "midi": 53,
      "hit": false,
      "t": 17743.918999999983,
      "d": 91.46350000000166,
      "v": 80
    },
    {
      "midi": 60,
      "hit": false,
      "t": 17743.918999999983,
      "d": 91.46350000000166,
      "v": 80
    },
    {
      "midi": 36,
      "hit": false,
      "t": 17743.918999999987,
      "d": 182.92699999999968,
      "v": 100
    },
    {
      "midi": 60,
      "hit": false,
      "t": 17743.918999999994,
      "d": 182.92699999999968,
      "v": 100
    },
    {
      "midi": 57,
      "hit": false,
      "t": 17743.918999999998,
      "d": 365.85399999999936,
      "v": 100
    },
    {
      "midi": 60,
      "hit": false,
      "t": 17743.918999999998,
      "d": 365.85399999999936,
      "v": 100
    },
    {
      "midi": 65,
      "hit": false,
      "t": 17835.382499999985,
      "d": 91.46350000000166,
      "v": 80
    },
    {
      "midi": 60,
      "hit": false,
      "t": 17835.382499999985,
      "d": 91.46350000000166,
      "v": 80
    },
    {
      "midi": 53,
      "hit": false,
      "t": 17835.382499999985,
      "d": 91.46350000000166,
      "v": 80
    },
    {
      "midi": 57,
      "hit": false,
      "t": 17835.382499999985,
      "d": 91.46350000000166,
      "v": 80
    },
    {
      "midi": 48,
      "hit": false,
      "t": 17835.382499999985,
      "d": 91.46350000000166,
      "v": 80
    },
    {
      "midi": 65,
      "hit": false,
      "t": 17835.382499999985,
      "d": 91.46350000000166,
      "v": 80
    },
    {
      "midi": 60,
      "hit": false,
      "t": 17835.382499999985,
      "d": 91.46350000000166,
      "v": 80
    },
    {
      "midi": 53,
      "hit": false,
      "t": 17835.382499999985,
      "d": 91.46350000000166,
      "v": 80
    },
    {
      "midi": 57,
      "hit": false,
      "t": 17835.382499999985,
      "d": 91.46350000000166,
      "v": 80
    },
    {
      "midi": 48,
      "hit": false,
      "t": 17835.382499999985,
      "d": 91.46350000000166,
      "v": 80
    },
    {
      "midi": 46,
      "hit": false,
      "t": 17926.845999999976,
      "d": 182.92699999999968,
      "v": 80
    },
    {
      "midi": 36,
      "hit": false,
      "t": 17926.845999999976,
      "d": 365.85399999999936,
      "v": 100
    },
    {
      "midi": 53,
      "hit": false,
      "t": 17926.845999999987,
      "d": 1280.4890000000014,
      "v": 100
    },
    {
      "midi": 57,
      "hit": false,
      "t": 17926.845999999987,
      "d": 1280.4890000000014,
      "v": 100
    },
    {
      "midi": 65,
      "hit": false,
      "t": 17926.845999999987,
      "d": 1280.4890000000014,
      "v": 100
    },
    {
      "midi": 60,
      "hit": false,
      "t": 17926.845999999987,
      "d": 1280.4890000000014,
      "v": 100
    },
    {
      "midi": 48,
      "hit": false,
      "t": 17926.845999999987,
      "d": 1280.4890000000014,
      "v": 100
    },
    {
      "midi": 53,
      "hit": false,
      "t": 17926.845999999987,
      "d": 1280.4890000000014,
      "v": 100
    },
    {
      "midi": 57,
      "hit": false,
      "t": 17926.845999999987,
      "d": 1280.4890000000014,
      "v": 100
    },
    {
      "midi": 65,
      "hit": false,
      "t": 17926.845999999987,
      "d": 1280.4890000000014,
      "v": 100
    },
    {
      "midi": 60,
      "hit": false,
      "t": 17926.845999999987,
      "d": 1280.4890000000014,
      "v": 100
    },
    {
      "midi": 48,
      "hit": false,
      "t": 17926.845999999987,
      "d": 1280.4890000000014,
      "v": 100
    },
    {
      "midi": 29,
      "hit": false,
      "t": 17926.845999999987,
      "d": 182.92699999999968,
      "v": 100
    },
    {
      "midi": 53,
      "hit": false,
      "t": 17926.845999999994,
      "d": 1280.4889999999978,
      "v": 100
    },
    {
      "midi": 46,
      "hit": false,
      "t": 18109.772999999976,
      "d": 182.92699999999968,
      "v": 80
    },
    {
      "midi": 29,
      "hit": false,
      "t": 18109.772999999986,
      "d": 182.92699999999968,
      "v": 100
    },
    {
      "midi": 46,
      "hit": false,
      "t": 18292.699999999975,
      "d": 182.92699999999968,
      "v": 80
    },
    {
      "midi": 40,
      "hit": false,
      "t": 18292.699999999975,
      "d": 365.85399999999936,
      "v": 100
    },
    {
      "midi": 29,
      "hit": false,
      "t": 18292.699999999986,
      "d": 182.92699999999968,
      "v": 100
    },
    {
      "midi": 60,
      "hit": false,
      "t": 18292.699999999993,
      "d": 548.780999999999,
      "v": 100
    },
    {
      "midi": 57,
      "hit": false,
      "t": 18292.699999999997,
      "d": 320.12225000000035,
      "v": 100
    },
    {
      "midi": 60,
      "hit": false,
      "t": 18292.699999999997,
      "d": 320.12225000000035,
      "v": 100
    },
    {
      "midi": 46,
      "hit": false,
      "t": 18475.626999999975,
      "d": 182.92699999999968,
      "v": 80
    },
    {
      "midi": 29,
      "hit": false,
      "t": 18475.626999999986,
      "d": 182.92699999999968,
      "v": 100
    },
    {
      "midi": 62,
      "hit": false,
      "t": 18475.626999999993,
      "d": 914.6349999999984,
      "v": 100
    },
    {
      "midi": 46,
      "hit": false,
      "t": 18658.553999999975,
      "d": 182.92699999999968,
      "v": 80
    },
    {
      "midi": 36,
      "hit": false,
      "t": 18658.553999999975,
      "d": 182.92699999999968,
      "v": 100
    },
    {
      "midi": 29,
      "hit": false,
      "t": 18658.553999999986,
      "d": 182.92699999999968,
      "v": 100
    },
    {
      "midi": 57,
      "hit": false,
      "t": 18658.553999999996,
      "d": 320.12225000000035,
      "v": 100
    },
    {
      "midi": 60,
      "hit": false,
      "t": 18658.553999999996,
      "d": 320.12225000000035,
      "v": 100
    },
    {
      "midi": 46,
      "hit": false,
      "t": 18841.480999999974,
      "d": 182.92699999999968,
      "v": 80
    },
    {
      "midi": 36,
      "hit": false,
      "t": 18841.480999999974,
      "d": 182.92699999999968,
      "v": 100
    },
    {
      "midi": 29,
      "hit": false,
      "t": 18841.480999999985,
      "d": 182.92699999999968,
      "v": 100
    },
    {
      "midi": 60,
      "hit": false,
      "t": 18841.480999999992,
      "d": 548.780999999999,
      "v": 100
    },
    {
      "midi": 46,
      "hit": false,
      "t": 19024.407999999974,
      "d": 182.92699999999968,
      "v": 80
    },
    {
      "midi": 40,
      "hit": false,
      "t": 19024.407999999974,
      "d": 365.85399999999936,
      "v": 100
    },
    {
      "midi": 29,
      "hit": false,
      "t": 19024.407999999985,
      "d": 182.92699999999968,
      "v": 100
    },
    {
      "midi": 57,
      "hit": false,
      "t": 19024.407999999992,
      "d": 365.85399999999936,
      "v": 100
    },
    {
      "midi": 57,
      "hit": false,
      "t": 19024.407999999996,
      "d": 320.12225000000035,
      "v": 100
    },
    {
      "midi": 60,
      "hit": false,
      "t": 19024.407999999996,
      "d": 320.12225000000035,
      "v": 100
    },
    {
      "midi": 46,
      "hit": false,
      "t": 19207.334999999974,
      "d": 182.92699999999968,
      "v": 80
    },
    {
      "midi": 29,
      "hit": false,
      "t": 19207.334999999985,
      "d": 182.92699999999968,
      "v": 100
    },
    {
      "midi": 65,
      "hit": false,
      "t": 19207.33499999999,
      "d": 91.46350000000166,
      "v": 80
    },
    {
      "midi": 58,
      "hit": false,
      "t": 19207.33499999999,
      "d": 91.46350000000166,
      "v": 80
    },
    {
      "midi": 46,
      "hit": false,
      "t": 19207.33499999999,
      "d": 91.46350000000166,
      "v": 80
    },
    {
      "midi": 53,
      "hit": false,
      "t": 19207.33499999999,
      "d": 91.46350000000166,
      "v": 80
    },
    {
      "midi": 62,
      "hit": false,
      "t": 19207.33499999999,
      "d": 91.46350000000166,
      "v": 80
    },
    {
      "midi": 65,
      "hit": false,
      "t": 19207.33499999999,
      "d": 91.46350000000166,
      "v": 80
    },
    {
      "midi": 58,
      "hit": false,
      "t": 19207.33499999999,
      "d": 91.46350000000166,
      "v": 80
    },
    {
      "midi": 46,
      "hit": false,
      "t": 19207.33499999999,
      "d": 91.46350000000166,
      "v": 80
    },
    {
      "midi": 53,
      "hit": false,
      "t": 19207.33499999999,
      "d": 91.46350000000166,
      "v": 80
    },
    {
      "midi": 62,
      "hit": false,
      "t": 19207.33499999999,
      "d": 91.46350000000166,
      "v": 80
    },
    {
      "midi": 53,
      "hit": false,
      "t": 19207.334999999992,
      "d": 182.92699999999968,
      "v": 100
    },
    {
      "midi": 65,
      "hit": false,
      "t": 19298.79849999999,
      "d": 91.46350000000166,
      "v": 80
    },
    {
      "midi": 58,
      "hit": false,
      "t": 19298.79849999999,
      "d": 91.46350000000166,
      "v": 80
    },
    {
      "midi": 46,
      "hit": false,
      "t": 19298.79849999999,
      "d": 91.46350000000166,
      "v": 80
    },
    {
      "midi": 53,
      "hit": false,
      "t": 19298.79849999999,
      "d": 91.46350000000166,
      "v": 80
    },
    {
      "midi": 62,
      "hit": false,
      "t": 19298.79849999999,
      "d": 91.46350000000166,
      "v": 80
    },
    {
      "midi": 65,
      "hit": false,
      "t": 19298.79849999999,
      "d": 91.46350000000166,
      "v": 80
    },
    {
      "midi": 58,
      "hit": false,
      "t": 19298.79849999999,
      "d": 91.46350000000166,
      "v": 80
    },
    {
      "midi": 46,
      "hit": false,
      "t": 19298.79849999999,
      "d": 91.46350000000166,
      "v": 80
    },
    {
      "midi": 53,
      "hit": false,
      "t": 19298.79849999999,
      "d": 91.46350000000166,
      "v": 80
    },
    {
      "midi": 62,
      "hit": false,
      "t": 19298.79849999999,
      "d": 91.46350000000166,
      "v": 80
    },
    {
      "midi": 46,
      "hit": false,
      "t": 19390.261999999973,
      "d": 182.92699999999968,
      "v": 80
    },
    {
      "midi": 36,
      "hit": false,
      "t": 19390.261999999973,
      "d": 365.85399999999936,
      "v": 100
    },
    {
      "midi": 34,
      "hit": false,
      "t": 19390.261999999984,
      "d": 182.92699999999968,
      "v": 100
    },
    {
      "midi": 46,
      "hit": false,
      "t": 19390.26199999999,
      "d": 548.780999999999,
      "v": 100
    },
    {
      "midi": 58,
      "hit": false,
      "t": 19390.26199999999,
      "d": 548.780999999999,
      "v": 100
    },
    {
      "midi": 65,
      "hit": false,
      "t": 19390.26199999999,
      "d": 548.780999999999,
      "v": 100
    },
    {
      "midi": 62,
      "hit": false,
      "t": 19390.26199999999,
      "d": 548.780999999999,
      "v": 100
    },
    {
      "midi": 53,
      "hit": false,
      "t": 19390.26199999999,
      "d": 548.780999999999,
      "v": 100
    },
    {
      "midi": 46,
      "hit": false,
      "t": 19390.26199999999,
      "d": 548.780999999999,
      "v": 100
    },
    {
      "midi": 58,
      "hit": false,
      "t": 19390.26199999999,
      "d": 548.780999999999,
      "v": 100
    },
    {
      "midi": 65,
      "hit": false,
      "t": 19390.26199999999,
      "d": 548.780999999999,
      "v": 100
    },
    {
      "midi": 62,
      "hit": false,
      "t": 19390.26199999999,
      "d": 548.780999999999,
      "v": 100
    },
    {
      "midi": 53,
      "hit": false,
      "t": 19390.26199999999,
      "d": 548.780999999999,
      "v": 100
    },
    {
      "midi": 57,
      "hit": false,
      "t": 19390.26199999999,
      "d": 1097.561999999998,
      "v": 100
    },
    {
      "midi": 57,
      "hit": false,
      "t": 19390.261999999995,
      "d": 320.12225000000035,
      "v": 100
    },
    {
      "midi": 60,
      "hit": false,
      "t": 19390.261999999995,
      "d": 320.12225000000035,
      "v": 100
    },
    {
      "midi": 46,
      "hit": false,
      "t": 19573.188999999973,
      "d": 182.92699999999968,
      "v": 80
    },
    {
      "midi": 34,
      "hit": false,
      "t": 19573.188999999984,
      "d": 182.92699999999968,
      "v": 100
    },
    {
      "midi": 40,
      "hit": false,
      "t": 19756.115999999973,
      "d": 182.92699999999968,
      "v": 100
    },
    {
      "midi": 46,
      "hit": false,
      "t": 19756.115999999973,
      "d": 182.92699999999968,
      "v": 80
    },
    {
      "midi": 34,
      "hit": false,
      "t": 19756.115999999984,
      "d": 182.92699999999968,
      "v": 100
    },
    {
      "midi": 60,
      "hit": false,
      "t": 19756.11599999999,
      "d": 548.780999999999,
      "v": 100
    },
    {
      "midi": 57,
      "hit": false,
      "t": 19756.115999999995,
      "d": 137.19525000000067,
      "v": 100
    },
    {
      "midi": 60,
      "hit": false,
      "t": 19756.115999999995,
      "d": 137.19525000000067,
      "v": 100
    },
    {
      "midi": 46,
      "hit": false,
      "t": 19939.042999999972,
      "d": 182.92699999999968,
      "v": 80
    },
    {
      "midi": 36,
      "hit": false,
      "t": 19939.042999999972,
      "d": 365.85399999999936,
      "v": 100
    },
    {
      "midi": 36,
      "hit": false,
      "t": 19939.042999999983,
      "d": 365.85399999999936,
      "v": 100
    },
    {
      "midi": 48,
      "hit": false,
      "t": 19939.04299999999,
      "d": 731.7079999999987,
      "v": 100
    },
    {
      "midi": 60,
      "hit": false,
      "t": 19939.04299999999,
      "d": 731.7079999999987,
      "v": 100
    },
    {
      "midi": 67,
      "hit": false,
      "t": 19939.04299999999,
      "d": 731.7079999999987,
      "v": 100
    },
    {
      "midi": 64,
      "hit": false,
      "t": 19939.04299999999,
      "d": 731.7079999999987,
      "v": 100
    },
    {
      "midi": 55,
      "hit": false,
      "t": 19939.04299999999,
      "d": 731.7079999999987,
      "v": 100
    },
    {
      "midi": 48,
      "hit": false,
      "t": 19939.04299999999,
      "d": 731.7079999999987,
      "v": 100
    },
    {
      "midi": 60,
      "hit": false,
      "t": 19939.04299999999,
      "d": 731.7079999999987,
      "v": 100
    },
    {
      "midi": 67,
      "hit": false,
      "t": 19939.04299999999,
      "d": 731.7079999999987,
      "v": 100
    },
    {
      "midi": 64,
      "hit": false,
      "t": 19939.04299999999,
      "d": 731.7079999999987,
      "v": 100
    },
    {
      "midi": 55,
      "hit": false,
      "t": 19939.04299999999,
      "d": 731.7079999999987,
      "v": 100
    },
    {
      "midi": 64,
      "hit": false,
      "t": 19939.04299999999,
      "d": 914.6349999999984,
      "v": 100
    },
    {
      "midi": 57,
      "hit": false,
      "t": 19939.042999999994,
      "d": 320.12225000000035,
      "v": 100
    },
    {
      "midi": 60,
      "hit": false,
      "t": 19939.042999999994,
      "d": 320.12225000000035,
      "v": 100
    },
    {
      "midi": 46,
      "hit": false,
      "t": 20121.969999999972,
      "d": 182.92699999999968,
      "v": 80
    },
    {
      "midi": 46,
      "hit": false,
      "t": 20304.89699999997,
      "d": 182.92699999999968,
      "v": 80
    },
    {
      "midi": 36,
      "hit": false,
      "t": 20304.89699999997,
      "d": 182.92699999999968,
      "v": 100
    },
    {
      "midi": 36,
      "hit": false,
      "t": 20304.896999999983,
      "d": 182.92699999999968,
      "v": 100
    },
    {
      "midi": 60,
      "hit": false,
      "t": 20304.89699999999,
      "d": 365.85399999999936,
      "v": 100
    },
    {
      "midi": 57,
      "hit": false,
      "t": 20304.896999999994,
      "d": 182.92699999999968,
      "v": 100
    },
    {
      "midi": 60,
      "hit": false,
      "t": 20304.896999999994,
      "d": 182.92699999999968,
      "v": 100
    },
    {
      "midi": 46,
      "hit": false,
      "t": 20487.82399999997,
      "d": 182.92699999999968,
      "v": 80
    },
    {
      "midi": 40,
      "hit": false,
      "t": 20487.82399999997,
      "d": 365.85399999999936,
      "v": 100
    },
    {
      "midi": 36,
      "hit": false,
      "t": 20487.823999999982,
      "d": 182.92699999999968,
      "v": 100
    },
    {
      "midi": 57,
      "hit": false,
      "t": 20487.82399999999,
      "d": 365.85399999999936,
      "v": 100
    },
    {
      "midi": 58,
      "hit": false,
      "t": 20487.823999999993,
      "d": 182.92699999999968,
      "v": 100
    },
    {
      "midi": 62,
      "hit": false,
      "t": 20487.823999999993,
      "d": 182.92699999999968,
      "v": 100
    },
    {
      "midi": 46,
      "hit": false,
      "t": 20670.75099999997,
      "d": 182.92699999999968,
      "v": 80
    },
    {
      "midi": 36,
      "hit": false,
      "t": 20670.750999999982,
      "d": 182.92699999999968,
      "v": 100
    },
    {
      "midi": 65,
      "hit": false,
      "t": 20670.75099999999,
      "d": 91.46350000000166,
      "v": 80
    },
    {
      "midi": 57,
      "hit": false,
      "t": 20670.75099999999,
      "d": 91.46350000000166,
      "v": 80
    },
    {
      "midi": 48,
      "hit": false,
      "t": 20670.75099999999,
      "d": 91.46350000000166,
      "v": 80
    },
    {
      "midi": 53,
      "hit": false,
      "t": 20670.75099999999,
      "d": 91.46350000000166,
      "v": 80
    },
    {
      "midi": 60,
      "hit": false,
      "t": 20670.75099999999,
      "d": 91.46350000000166,
      "v": 80
    },
    {
      "midi": 65,
      "hit": false,
      "t": 20670.75099999999,
      "d": 91.46350000000166,
      "v": 80
    },
    {
      "midi": 57,
      "hit": false,
      "t": 20670.75099999999,
      "d": 91.46350000000166,
      "v": 80
    },
    {
      "midi": 48,
      "hit": false,
      "t": 20670.75099999999,
      "d": 91.46350000000166,
      "v": 80
    },
    {
      "midi": 53,
      "hit": false,
      "t": 20670.75099999999,
      "d": 91.46350000000166,
      "v": 80
    },
    {
      "midi": 60,
      "hit": false,
      "t": 20670.75099999999,
      "d": 91.46350000000166,
      "v": 80
    },
    {
      "midi": 60,
      "hit": false,
      "t": 20670.75099999999,
      "d": 182.92699999999968,
      "v": 100
    },
    {
      "midi": 57,
      "hit": false,
      "t": 20670.750999999993,
      "d": 365.85399999999936,
      "v": 100
    },
    {
      "midi": 60,
      "hit": false,
      "t": 20670.750999999993,
      "d": 365.85399999999936,
      "v": 100
    },
    {
      "midi": 65,
      "hit": false,
      "t": 20762.21449999999,
      "d": 91.46350000000166,
      "v": 80
    },
    {
      "midi": 60,
      "hit": false,
      "t": 20762.21449999999,
      "d": 91.46350000000166,
      "v": 80
    },
    {
      "midi": 53,
      "hit": false,
      "t": 20762.21449999999,
      "d": 91.46350000000166,
      "v": 80
    },
    {
      "midi": 57,
      "hit": false,
      "t": 20762.21449999999,
      "d": 91.46350000000166,
      "v": 80
    },
    {
      "midi": 48,
      "hit": false,
      "t": 20762.21449999999,
      "d": 91.46350000000166,
      "v": 80
    },
    {
      "midi": 65,
      "hit": false,
      "t": 20762.21449999999,
      "d": 91.46350000000166,
      "v": 80
    },
    {
      "midi": 60,
      "hit": false,
      "t": 20762.21449999999,
      "d": 91.46350000000166,
      "v": 80
    },
    {
      "midi": 53,
      "hit": false,
      "t": 20762.21449999999,
      "d": 91.46350000000166,
      "v": 80
    },
    {
      "midi": 57,
      "hit": false,
      "t": 20762.21449999999,
      "d": 91.46350000000166,
      "v": 80
    },
    {
      "midi": 48,
      "hit": false,
      "t": 20762.21449999999,
      "d": 91.46350000000166,
      "v": 80
    },
    {
      "midi": 46,
      "hit": false,
      "t": 20853.67799999997,
      "d": 182.92699999999968,
      "v": 80
    },
    {
      "midi": 36,
      "hit": false,
      "t": 20853.67799999997,
      "d": 365.85399999999936,
      "v": 100
    },
    {
      "midi": 29,
      "hit": false,
      "t": 20853.67799999998,
      "d": 182.92699999999968,
      "v": 100
    },
    {
      "midi": 53,
      "hit": false,
      "t": 20853.67799999999,
      "d": 1280.4889999999978,
      "v": 100
    },
    {
      "midi": 53,
      "hit": false,
      "t": 20853.677999999993,
      "d": 1280.4890000000014,
      "v": 100
    },
    {
      "midi": 57,
      "hit": false,
      "t": 20853.677999999993,
      "d": 1280.4890000000014,
      "v": 100
    },
    {
      "midi": 65,
      "hit": false,
      "t": 20853.677999999993,
      "d": 1280.4890000000014,
      "v": 100
    },
    {
      "midi": 60,
      "hit": false,
      "t": 20853.677999999993,
      "d": 1280.4890000000014,
      "v": 100
    },
    {
      "midi": 48,
      "hit": false,
      "t": 20853.677999999993,
      "d": 1280.4890000000014,
      "v": 100
    },
    {
      "midi": 53,
      "hit": false,
      "t": 20853.677999999993,
      "d": 1280.4890000000014,
      "v": 100
    },
    {
      "midi": 57,
      "hit": false,
      "t": 20853.677999999993,
      "d": 1280.4890000000014,
      "v": 100
    },
    {
      "midi": 65,
      "hit": false,
      "t": 20853.677999999993,
      "d": 1280.4890000000014,
      "v": 100
    },
    {
      "midi": 60,
      "hit": false,
      "t": 20853.677999999993,
      "d": 1280.4890000000014,
      "v": 100
    },
    {
      "midi": 48,
      "hit": false,
      "t": 20853.677999999993,
      "d": 1280.4890000000014,
      "v": 100
    },
    {
      "midi": 46,
      "hit": false,
      "t": 21036.60499999997,
      "d": 182.92699999999968,
      "v": 80
    },
    {
      "midi": 29,
      "hit": false,
      "t": 21036.60499999998,
      "d": 182.92699999999968,
      "v": 100
    },
    {
      "midi": 46,
      "hit": false,
      "t": 21219.53199999997,
      "d": 182.92699999999968,
      "v": 80
    },
    {
      "midi": 40,
      "hit": false,
      "t": 21219.53199999997,
      "d": 365.85399999999936,
      "v": 100
    },
    {
      "midi": 29,
      "hit": false,
      "t": 21219.53199999998,
      "d": 182.92699999999968,
      "v": 100
    },
    {
      "midi": 60,
      "hit": false,
      "t": 21219.53199999999,
      "d": 548.780999999999,
      "v": 100
    },
    {
      "midi": 57,
      "hit": false,
      "t": 21219.531999999992,
      "d": 320.12225000000035,
      "v": 100
    },
    {
      "midi": 60,
      "hit": false,
      "t": 21219.531999999992,
      "d": 320.12225000000035,
      "v": 100
    },
    {
      "midi": 46,
      "hit": false,
      "t": 21402.45899999997,
      "d": 182.92699999999968,
      "v": 80
    },
    {
      "midi": 29,
      "hit": false,
      "t": 21402.45899999998,
      "d": 182.92699999999968,
      "v": 100
    },
    {
      "midi": 62,
      "hit": false,
      "t": 21402.458999999988,
      "d": 914.6349999999984,
      "v": 100
    },
    {
      "midi": 46,
      "hit": false,
      "t": 21585.38599999997,
      "d": 182.92699999999968,
      "v": 80
    },
    {
      "midi": 36,
      "hit": false,
      "t": 21585.38599999997,
      "d": 182.92699999999968,
      "v": 100
    },
    {
      "midi": 29,
      "hit": false,
      "t": 21585.38599999998,
      "d": 182.92699999999968,
      "v": 100
    },
    {
      "midi": 57,
      "hit": false,
      "t": 21585.38599999999,
      "d": 320.12225000000035,
      "v": 100
    },
    {
      "midi": 60,
      "hit": false,
      "t": 21585.38599999999,
      "d": 320.12225000000035,
      "v": 100
    },
    {
      "midi": 46,
      "hit": false,
      "t": 21768.31299999997,
      "d": 182.92699999999968,
      "v": 80
    },
    {
      "midi": 36,
      "hit": false,
      "t": 21768.31299999997,
      "d": 182.92699999999968,
      "v": 100
    },
    {
      "midi": 29,
      "hit": false,
      "t": 21768.31299999998,
      "d": 182.92699999999968,
      "v": 100
    },
    {
      "midi": 60,
      "hit": false,
      "t": 21768.312999999987,
      "d": 548.780999999999,
      "v": 100
    },
    {
      "midi": 46,
      "hit": false,
      "t": 21951.23999999997,
      "d": 182.92699999999968,
      "v": 80
    },
    {
      "midi": 40,
      "hit": false,
      "t": 21951.23999999997,
      "d": 365.85399999999936,
      "v": 100
    },
    {
      "midi": 29,
      "hit": false,
      "t": 21951.23999999998,
      "d": 182.92699999999968,
      "v": 100
    },
    {
      "midi": 57,
      "hit": false,
      "t": 21951.239999999987,
      "d": 365.85399999999936,
      "v": 100
    },
    {
      "midi": 57,
      "hit": false,
      "t": 21951.23999999999,
      "d": 320.12225000000035,
      "v": 100
    },
    {
      "midi": 60,
      "hit": false,
      "t": 21951.23999999999,
      "d": 320.12225000000035,
      "v": 100
    },
    {
      "midi": 46,
      "hit": false,
      "t": 22134.16699999997,
      "d": 182.92699999999968,
      "v": 80
    },
    {
      "midi": 29,
      "hit": false,
      "t": 22134.16699999998,
      "d": 182.92699999999968,
      "v": 100
    },
    {
      "midi": 53,
      "hit": false,
      "t": 22134.166999999987,
      "d": 182.92699999999968,
      "v": 100
    },
    {
      "midi": 65,
      "hit": false,
      "t": 22134.166999999994,
      "d": 91.46350000000166,
      "v": 80
    },
    {
      "midi": 58,
      "hit": false,
      "t": 22134.166999999994,
      "d": 91.46350000000166,
      "v": 80
    },
    {
      "midi": 46,
      "hit": false,
      "t": 22134.166999999994,
      "d": 91.46350000000166,
      "v": 80
    },
    {
      "midi": 53,
      "hit": false,
      "t": 22134.166999999994,
      "d": 91.46350000000166,
      "v": 80
    },
    {
      "midi": 62,
      "hit": false,
      "t": 22134.166999999994,
      "d": 91.46350000000166,
      "v": 80
    },
    {
      "midi": 65,
      "hit": false,
      "t": 22134.166999999994,
      "d": 91.46350000000166,
      "v": 80
    },
    {
      "midi": 58,
      "hit": false,
      "t": 22134.166999999994,
      "d": 91.46350000000166,
      "v": 80
    },
    {
      "midi": 46,
      "hit": false,
      "t": 22134.166999999994,
      "d": 91.46350000000166,
      "v": 80
    },
    {
      "midi": 53,
      "hit": false,
      "t": 22134.166999999994,
      "d": 91.46350000000166,
      "v": 80
    },
    {
      "midi": 62,
      "hit": false,
      "t": 22134.166999999994,
      "d": 91.46350000000166,
      "v": 80
    },
    {
      "midi": 65,
      "hit": false,
      "t": 22225.630499999996,
      "d": 91.46350000000166,
      "v": 80
    },
    {
      "midi": 58,
      "hit": false,
      "t": 22225.630499999996,
      "d": 91.46350000000166,
      "v": 80
    },
    {
      "midi": 46,
      "hit": false,
      "t": 22225.630499999996,
      "d": 91.46350000000166,
      "v": 80
    },
    {
      "midi": 53,
      "hit": false,
      "t": 22225.630499999996,
      "d": 91.46350000000166,
      "v": 80
    },
    {
      "midi": 62,
      "hit": false,
      "t": 22225.630499999996,
      "d": 91.46350000000166,
      "v": 80
    },
    {
      "midi": 65,
      "hit": false,
      "t": 22225.630499999996,
      "d": 91.46350000000166,
      "v": 80
    },
    {
      "midi": 58,
      "hit": false,
      "t": 22225.630499999996,
      "d": 91.46350000000166,
      "v": 80
    },
    {
      "midi": 46,
      "hit": false,
      "t": 22225.630499999996,
      "d": 91.46350000000166,
      "v": 80
    },
    {
      "midi": 53,
      "hit": false,
      "t": 22225.630499999996,
      "d": 91.46350000000166,
      "v": 80
    },
    {
      "midi": 62,
      "hit": false,
      "t": 22225.630499999996,
      "d": 91.46350000000166,
      "v": 80
    },
    {
      "midi": 46,
      "hit": false,
      "t": 22317.09399999997,
      "d": 182.92699999999968,
      "v": 80
    },
    {
      "midi": 36,
      "hit": false,
      "t": 22317.09399999997,
      "d": 365.85399999999936,
      "v": 100
    },
    {
      "midi": 34,
      "hit": false,
      "t": 22317.09399999998,
      "d": 182.92699999999968,
      "v": 100
    },
    {
      "midi": 57,
      "hit": false,
      "t": 22317.093999999986,
      "d": 1097.561999999998,
      "v": 100
    },
    {
      "midi": 57,
      "hit": false,
      "t": 22317.09399999999,
      "d": 320.12225000000035,
      "v": 100
    },
    {
      "midi": 60,
      "hit": false,
      "t": 22317.09399999999,
      "d": 320.12225000000035,
      "v": 100
    },
    {
      "midi": 46,
      "hit": false,
      "t": 22317.093999999997,
      "d": 548.780999999999,
      "v": 100
    },
    {
      "midi": 58,
      "hit": false,
      "t": 22317.093999999997,
      "d": 548.780999999999,
      "v": 100
    },
    {
      "midi": 65,
      "hit": false,
      "t": 22317.093999999997,
      "d": 548.780999999999,
      "v": 100
    },
    {
      "midi": 62,
      "hit": false,
      "t": 22317.093999999997,
      "d": 548.780999999999,
      "v": 100
    },
    {
      "midi": 53,
      "hit": false,
      "t": 22317.093999999997,
      "d": 548.780999999999,
      "v": 100
    },
    {
      "midi": 46,
      "hit": false,
      "t": 22317.093999999997,
      "d": 548.780999999999,
      "v": 100
    },
    {
      "midi": 58,
      "hit": false,
      "t": 22317.093999999997,
      "d": 548.780999999999,
      "v": 100
    },
    {
      "midi": 65,
      "hit": false,
      "t": 22317.093999999997,
      "d": 548.780999999999,
      "v": 100
    },
    {
      "midi": 62,
      "hit": false,
      "t": 22317.093999999997,
      "d": 548.780999999999,
      "v": 100
    },
    {
      "midi": 53,
      "hit": false,
      "t": 22317.093999999997,
      "d": 548.780999999999,
      "v": 100
    },
    {
      "midi": 46,
      "hit": false,
      "t": 22500.020999999968,
      "d": 182.92699999999968,
      "v": 80
    },
    {
      "midi": 34,
      "hit": false,
      "t": 22500.02099999998,
      "d": 182.92699999999968,
      "v": 100
    },
    {
      "midi": 40,
      "hit": false,
      "t": 22682.947999999968,
      "d": 182.92699999999968,
      "v": 100
    },
    {
      "midi": 46,
      "hit": false,
      "t": 22682.947999999968,
      "d": 182.92699999999968,
      "v": 80
    },
    {
      "midi": 34,
      "hit": false,
      "t": 22682.94799999998,
      "d": 182.92699999999968,
      "v": 100
    },
    {
      "midi": 60,
      "hit": false,
      "t": 22682.947999999986,
      "d": 548.780999999999,
      "v": 100
    },
    {
      "midi": 57,
      "hit": false,
      "t": 22682.94799999999,
      "d": 137.19525000000067,
      "v": 100
    },
    {
      "midi": 60,
      "hit": false,
      "t": 22682.94799999999,
      "d": 137.19525000000067,
      "v": 100
    },
    {
      "midi": 46,
      "hit": false,
      "t": 22865.874999999967,
      "d": 182.92699999999968,
      "v": 80
    },
    {
      "midi": 36,
      "hit": false,
      "t": 22865.874999999967,
      "d": 365.85399999999936,
      "v": 100
    },
    {
      "midi": 36,
      "hit": false,
      "t": 22865.874999999978,
      "d": 365.85399999999936,
      "v": 100
    },
    {
      "midi": 64,
      "hit": false,
      "t": 22865.874999999985,
      "d": 914.6349999999984,
      "v": 100
    },
    {
      "midi": 57,
      "hit": false,
      "t": 22865.87499999999,
      "d": 320.12225000000035,
      "v": 100
    },
    {
      "midi": 60,
      "hit": false,
      "t": 22865.87499999999,
      "d": 320.12225000000035,
      "v": 100
    },
    {
      "midi": 48,
      "hit": false,
      "t": 22865.874999999996,
      "d": 731.7079999999987,
      "v": 100
    },
    {
      "midi": 60,
      "hit": false,
      "t": 22865.874999999996,
      "d": 731.7079999999987,
      "v": 100
    },
    {
      "midi": 67,
      "hit": false,
      "t": 22865.874999999996,
      "d": 731.7079999999987,
      "v": 100
    },
    {
      "midi": 64,
      "hit": false,
      "t": 22865.874999999996,
      "d": 731.7079999999987,
      "v": 100
    },
    {
      "midi": 55,
      "hit": false,
      "t": 22865.874999999996,
      "d": 731.7079999999987,
      "v": 100
    },
    {
      "midi": 48,
      "hit": false,
      "t": 22865.874999999996,
      "d": 731.7079999999987,
      "v": 100
    },
    {
      "midi": 60,
      "hit": false,
      "t": 22865.874999999996,
      "d": 731.7079999999987,
      "v": 100
    },
    {
      "midi": 67,
      "hit": false,
      "t": 22865.874999999996,
      "d": 731.7079999999987,
      "v": 100
    },
    {
      "midi": 64,
      "hit": false,
      "t": 22865.874999999996,
      "d": 731.7079999999987,
      "v": 100
    },
    {
      "midi": 55,
      "hit": false,
      "t": 22865.874999999996,
      "d": 731.7079999999987,
      "v": 100
    },
    {
      "midi": 46,
      "hit": false,
      "t": 23048.801999999967,
      "d": 182.92699999999968,
      "v": 80
    },
    {
      "midi": 46,
      "hit": false,
      "t": 23231.728999999967,
      "d": 182.92699999999968,
      "v": 80
    },
    {
      "midi": 36,
      "hit": false,
      "t": 23231.728999999967,
      "d": 182.92699999999968,
      "v": 100
    },
    {
      "midi": 36,
      "hit": false,
      "t": 23231.728999999978,
      "d": 182.92699999999968,
      "v": 100
    },
    {
      "midi": 60,
      "hit": false,
      "t": 23231.728999999985,
      "d": 365.85399999999936,
      "v": 100
    },
    {
      "midi": 57,
      "hit": false,
      "t": 23231.72899999999,
      "d": 182.92699999999968,
      "v": 100
    },
    {
      "midi": 60,
      "hit": false,
      "t": 23231.72899999999,
      "d": 182.92699999999968,
      "v": 100
    },
    {
      "midi": 46,
      "hit": false,
      "t": 23414.655999999966,
      "d": 182.92699999999968,
      "v": 80
    },
    {
      "midi": 40,
      "hit": false,
      "t": 23414.655999999966,
      "d": 365.85399999999936,
      "v": 100
    },
    {
      "midi": 36,
      "hit": false,
      "t": 23414.655999999977,
      "d": 182.92699999999968,
      "v": 100
    },
    {
      "midi": 57,
      "hit": false,
      "t": 23414.655999999984,
      "d": 365.85399999999936,
      "v": 100
    },
    {
      "midi": 58,
      "hit": false,
      "t": 23414.655999999988,
      "d": 182.92699999999968,
      "v": 100
    },
    {
      "midi": 62,
      "hit": false,
      "t": 23414.655999999988,
      "d": 182.92699999999968,
      "v": 100
    },
    {
      "midi": 46,
      "hit": false,
      "t": 23597.582999999966,
      "d": 182.92699999999968,
      "v": 80
    },
    {
      "midi": 36,
      "hit": false,
      "t": 23597.582999999977,
      "d": 182.92699999999968,
      "v": 100
    },
    {
      "midi": 60,
      "hit": false,
      "t": 23597.582999999984,
      "d": 182.92699999999968,
      "v": 100
    },
    {
      "midi": 57,
      "hit": false,
      "t": 23597.582999999988,
      "d": 365.85399999999936,
      "v": 100
    },
    {
      "midi": 60,
      "hit": false,
      "t": 23597.582999999988,
      "d": 365.85399999999936,
      "v": 100
    },
    {
      "midi": 65,
      "hit": false,
      "t": 23597.582999999995,
      "d": 91.46350000000166,
      "v": 80
    },
    {
      "midi": 57,
      "hit": false,
      "t": 23597.582999999995,
      "d": 91.46350000000166,
      "v": 80
    },
    {
      "midi": 48,
      "hit": false,
      "t": 23597.582999999995,
      "d": 91.46350000000166,
      "v": 80
    },
    {
      "midi": 53,
      "hit": false,
      "t": 23597.582999999995,
      "d": 91.46350000000166,
      "v": 80
    },
    {
      "midi": 60,
      "hit": false,
      "t": 23597.582999999995,
      "d": 91.46350000000166,
      "v": 80
    },
    {
      "midi": 65,
      "hit": false,
      "t": 23597.582999999995,
      "d": 91.46350000000166,
      "v": 80
    },
    {
      "midi": 57,
      "hit": false,
      "t": 23597.582999999995,
      "d": 91.46350000000166,
      "v": 80
    },
    {
      "midi": 48,
      "hit": false,
      "t": 23597.582999999995,
      "d": 91.46350000000166,
      "v": 80
    },
    {
      "midi": 53,
      "hit": false,
      "t": 23597.582999999995,
      "d": 91.46350000000166,
      "v": 80
    },
    {
      "midi": 60,
      "hit": false,
      "t": 23597.582999999995,
      "d": 91.46350000000166,
      "v": 80
    },
    {
      "midi": 65,
      "hit": false,
      "t": 23689.046499999997,
      "d": 91.46350000000166,
      "v": 80
    },
    {
      "midi": 60,
      "hit": false,
      "t": 23689.046499999997,
      "d": 91.46350000000166,
      "v": 80
    },
    {
      "midi": 53,
      "hit": false,
      "t": 23689.046499999997,
      "d": 91.46350000000166,
      "v": 80
    },
    {
      "midi": 57,
      "hit": false,
      "t": 23689.046499999997,
      "d": 91.46350000000166,
      "v": 80
    },
    {
      "midi": 48,
      "hit": false,
      "t": 23689.046499999997,
      "d": 91.46350000000166,
      "v": 80
    },
    {
      "midi": 65,
      "hit": false,
      "t": 23689.046499999997,
      "d": 91.46350000000166,
      "v": 80
    },
    {
      "midi": 60,
      "hit": false,
      "t": 23689.046499999997,
      "d": 91.46350000000166,
      "v": 80
    },
    {
      "midi": 53,
      "hit": false,
      "t": 23689.046499999997,
      "d": 91.46350000000166,
      "v": 80
    },
    {
      "midi": 57,
      "hit": false,
      "t": 23689.046499999997,
      "d": 91.46350000000166,
      "v": 80
    },
    {
      "midi": 48,
      "hit": false,
      "t": 23689.046499999997,
      "d": 91.46350000000166,
      "v": 80
    },
    {
      "midi": 46,
      "hit": false,
      "t": 23780.509999999966,
      "d": 182.92699999999968,
      "v": 80
    },
    {
      "midi": 36,
      "hit": false,
      "t": 23780.509999999966,
      "d": 365.85399999999936,
      "v": 100
    },
    {
      "midi": 29,
      "hit": false,
      "t": 23780.509999999977,
      "d": 182.92699999999968,
      "v": 100
    },
    {
      "midi": 53,
      "hit": false,
      "t": 23780.509999999984,
      "d": 1280.4889999999978,
      "v": 100
    },
    {
      "midi": 53,
      "hit": false,
      "t": 23780.51,
      "d": 1280.4890000000014,
      "v": 100
    },
    {
      "midi": 57,
      "hit": false,
      "t": 23780.51,
      "d": 1280.4890000000014,
      "v": 100
    },
    {
      "midi": 65,
      "hit": false,
      "t": 23780.51,
      "d": 1280.4890000000014,
      "v": 100
    },
    {
      "midi": 60,
      "hit": false,
      "t": 23780.51,
      "d": 1280.4890000000014,
      "v": 100
    },
    {
      "midi": 48,
      "hit": false,
      "t": 23780.51,
      "d": 1280.4890000000014,
      "v": 100
    },
    {
      "midi": 53,
      "hit": false,
      "t": 23780.51,
      "d": 1280.4890000000014,
      "v": 100
    },
    {
      "midi": 57,
      "hit": false,
      "t": 23780.51,
      "d": 1280.4890000000014,
      "v": 100
    },
    {
      "midi": 65,
      "hit": false,
      "t": 23780.51,
      "d": 1280.4890000000014,
      "v": 100
    },
    {
      "midi": 60,
      "hit": false,
      "t": 23780.51,
      "d": 1280.4890000000014,
      "v": 100
    },
    {
      "midi": 48,
      "hit": false,
      "t": 23780.51,
      "d": 1280.4890000000014,
      "v": 100
    },
    {
      "midi": 46,
      "hit": false,
      "t": 23963.436999999965,
      "d": 182.92699999999968,
      "v": 80
    },
    {
      "midi": 29,
      "hit": false,
      "t": 23963.436999999976,
      "d": 182.92699999999968,
      "v": 100
    },
    {
      "midi": 46,
      "hit": false,
      "t": 24146.363999999965,
      "d": 182.92699999999968,
      "v": 80
    },
    {
      "midi": 40,
      "hit": false,
      "t": 24146.363999999965,
      "d": 365.85399999999936,
      "v": 100
    },
    {
      "midi": 29,
      "hit": false,
      "t": 24146.363999999976,
      "d": 182.92699999999968,
      "v": 100
    },
    {
      "midi": 60,
      "hit": false,
      "t": 24146.363999999983,
      "d": 548.780999999999,
      "v": 100
    },
    {
      "midi": 57,
      "hit": false,
      "t": 24146.363999999987,
      "d": 320.12225000000035,
      "v": 100
    },
    {
      "midi": 60,
      "hit": false,
      "t": 24146.363999999987,
      "d": 320.12225000000035,
      "v": 100
    },
    {
      "midi": 46,
      "hit": false,
      "t": 24329.290999999965,
      "d": 182.92699999999968,
      "v": 80
    },
    {
      "midi": 29,
      "hit": false,
      "t": 24329.290999999976,
      "d": 182.92699999999968,
      "v": 100
    },
    {
      "midi": 62,
      "hit": false,
      "t": 24329.290999999983,
      "d": 914.6349999999984,
      "v": 100
    },
    {
      "midi": 46,
      "hit": false,
      "t": 24512.217999999964,
      "d": 182.92699999999968,
      "v": 80
    },
    {
      "midi": 36,
      "hit": false,
      "t": 24512.217999999964,
      "d": 182.92699999999968,
      "v": 100
    },
    {
      "midi": 29,
      "hit": false,
      "t": 24512.217999999975,
      "d": 182.92699999999968,
      "v": 100
    },
    {
      "midi": 57,
      "hit": false,
      "t": 24512.217999999986,
      "d": 320.12225000000035,
      "v": 100
    },
    {
      "midi": 60,
      "hit": false,
      "t": 24512.217999999986,
      "d": 320.12225000000035,
      "v": 100
    },
    {
      "midi": 46,
      "hit": false,
      "t": 24695.144999999964,
      "d": 182.92699999999968,
      "v": 80
    },
    {
      "midi": 36,
      "hit": false,
      "t": 24695.144999999964,
      "d": 182.92699999999968,
      "v": 100
    },
    {
      "midi": 29,
      "hit": false,
      "t": 24695.144999999975,
      "d": 182.92699999999968,
      "v": 100
    },
    {
      "midi": 60,
      "hit": false,
      "t": 24695.144999999982,
      "d": 548.780999999999,
      "v": 100
    },
    {
      "midi": 46,
      "hit": false,
      "t": 24878.071999999964,
      "d": 182.92699999999968,
      "v": 80
    },
    {
      "midi": 40,
      "hit": false,
      "t": 24878.071999999964,
      "d": 365.85399999999936,
      "v": 100
    },
    {
      "midi": 29,
      "hit": false,
      "t": 24878.071999999975,
      "d": 182.92699999999968,
      "v": 100
    },
    {
      "midi": 57,
      "hit": false,
      "t": 24878.071999999982,
      "d": 365.85399999999936,
      "v": 100
    },
    {
      "midi": 57,
      "hit": false,
      "t": 24878.071999999986,
      "d": 320.12225000000035,
      "v": 100
    },
    {
      "midi": 60,
      "hit": false,
      "t": 24878.071999999986,
      "d": 320.12225000000035,
      "v": 100
    },
    {
      "midi": 46,
      "hit": false,
      "t": 25060.998999999963,
      "d": 182.92699999999968,
      "v": 80
    },
    {
      "midi": 29,
      "hit": false,
      "t": 25060.998999999974,
      "d": 182.92699999999968,
      "v": 100
    },
    {
      "midi": 53,
      "hit": false,
      "t": 25060.99899999998,
      "d": 182.92699999999968,
      "v": 100
    },
    {
      "midi": 65,
      "hit": false,
      "t": 25060.999,
      "d": 91.46350000000166,
      "v": 80
    },
    {
      "midi": 58,
      "hit": false,
      "t": 25060.999,
      "d": 91.46350000000166,
      "v": 80
    },
    {
      "midi": 46,
      "hit": false,
      "t": 25060.999,
      "d": 91.46350000000166,
      "v": 80
    },
    {
      "midi": 53,
      "hit": false,
      "t": 25060.999,
      "d": 91.46350000000166,
      "v": 80
    },
    {
      "midi": 62,
      "hit": false,
      "t": 25060.999,
      "d": 91.46350000000166,
      "v": 80
    },
    {
      "midi": 65,
      "hit": false,
      "t": 25060.999,
      "d": 91.46350000000166,
      "v": 80
    },
    {
      "midi": 58,
      "hit": false,
      "t": 25060.999,
      "d": 91.46350000000166,
      "v": 80
    },
    {
      "midi": 46,
      "hit": false,
      "t": 25060.999,
      "d": 91.46350000000166,
      "v": 80
    },
    {
      "midi": 53,
      "hit": false,
      "t": 25060.999,
      "d": 91.46350000000166,
      "v": 80
    },
    {
      "midi": 62,
      "hit": false,
      "t": 25060.999,
      "d": 91.46350000000166,
      "v": 80
    },
    {
      "midi": 65,
      "hit": false,
      "t": 25152.4625,
      "d": 91.46350000000166,
      "v": 80
    },
    {
      "midi": 58,
      "hit": false,
      "t": 25152.4625,
      "d": 91.46350000000166,
      "v": 80
    },
    {
      "midi": 46,
      "hit": false,
      "t": 25152.4625,
      "d": 91.46350000000166,
      "v": 80
    },
    {
      "midi": 53,
      "hit": false,
      "t": 25152.4625,
      "d": 91.46350000000166,
      "v": 80
    },
    {
      "midi": 62,
      "hit": false,
      "t": 25152.4625,
      "d": 91.46350000000166,
      "v": 80
    },
    {
      "midi": 65,
      "hit": false,
      "t": 25152.4625,
      "d": 91.46350000000166,
      "v": 80
    },
    {
      "midi": 58,
      "hit": false,
      "t": 25152.4625,
      "d": 91.46350000000166,
      "v": 80
    },
    {
      "midi": 46,
      "hit": false,
      "t": 25152.4625,
      "d": 91.46350000000166,
      "v": 80
    },
    {
      "midi": 53,
      "hit": false,
      "t": 25152.4625,
      "d": 91.46350000000166,
      "v": 80
    },
    {
      "midi": 62,
      "hit": false,
      "t": 25152.4625,
      "d": 91.46350000000166,
      "v": 80
    },
    {
      "midi": 46,
      "hit": false,
      "t": 25243.925999999963,
      "d": 182.92699999999968,
      "v": 80
    },
    {
      "midi": 36,
      "hit": false,
      "t": 25243.925999999963,
      "d": 365.85399999999936,
      "v": 100
    },
    {
      "midi": 34,
      "hit": false,
      "t": 25243.925999999974,
      "d": 182.92699999999968,
      "v": 100
    },
    {
      "midi": 57,
      "hit": false,
      "t": 25243.92599999998,
      "d": 1097.561999999998,
      "v": 100
    },
    {
      "midi": 57,
      "hit": false,
      "t": 25243.925999999985,
      "d": 320.12225000000035,
      "v": 100
    },
    {
      "midi": 60,
      "hit": false,
      "t": 25243.925999999985,
      "d": 320.12225000000035,
      "v": 100
    },
    {
      "midi": 46,
      "hit": false,
      "t": 25243.926000000003,
      "d": 548.780999999999,
      "v": 100
    },
    {
      "midi": 58,
      "hit": false,
      "t": 25243.926000000003,
      "d": 548.780999999999,
      "v": 100
    },
    {
      "midi": 65,
      "hit": false,
      "t": 25243.926000000003,
      "d": 548.780999999999,
      "v": 100
    },
    {
      "midi": 62,
      "hit": false,
      "t": 25243.926000000003,
      "d": 548.780999999999,
      "v": 100
    },
    {
      "midi": 53,
      "hit": false,
      "t": 25243.926000000003,
      "d": 548.780999999999,
      "v": 100
    },
    {
      "midi": 46,
      "hit": false,
      "t": 25243.926000000003,
      "d": 548.780999999999,
      "v": 100
    },
    {
      "midi": 58,
      "hit": false,
      "t": 25243.926000000003,
      "d": 548.780999999999,
      "v": 100
    },
    {
      "midi": 65,
      "hit": false,
      "t": 25243.926000000003,
      "d": 548.780999999999,
      "v": 100
    },
    {
      "midi": 62,
      "hit": false,
      "t": 25243.926000000003,
      "d": 548.780999999999,
      "v": 100
    },
    {
      "midi": 53,
      "hit": false,
      "t": 25243.926000000003,
      "d": 548.780999999999,
      "v": 100
    },
    {
      "midi": 46,
      "hit": false,
      "t": 25426.852999999963,
      "d": 182.92699999999968,
      "v": 80
    },
    {
      "midi": 34,
      "hit": false,
      "t": 25426.852999999974,
      "d": 182.92699999999968,
      "v": 100
    },
    {
      "midi": 40,
      "hit": false,
      "t": 25609.779999999962,
      "d": 182.92699999999968,
      "v": 100
    },
    {
      "midi": 46,
      "hit": false,
      "t": 25609.779999999962,
      "d": 182.92699999999968,
      "v": 80
    },
    {
      "midi": 34,
      "hit": false,
      "t": 25609.779999999973,
      "d": 182.92699999999968,
      "v": 100
    },
    {
      "midi": 60,
      "hit": false,
      "t": 25609.77999999998,
      "d": 548.780999999999,
      "v": 100
    },
    {
      "midi": 57,
      "hit": false,
      "t": 25609.779999999984,
      "d": 137.19525000000067,
      "v": 100
    },
    {
      "midi": 60,
      "hit": false,
      "t": 25609.779999999984,
      "d": 137.19525000000067,
      "v": 100
    },
    {
      "midi": 46,
      "hit": false,
      "t": 25792.706999999962,
      "d": 182.92699999999968,
      "v": 80
    },
    {
      "midi": 36,
      "hit": false,
      "t": 25792.706999999962,
      "d": 365.85399999999936,
      "v": 100
    },
    {
      "midi": 36,
      "hit": false,
      "t": 25792.706999999973,
      "d": 365.85399999999936,
      "v": 100
    },
    {
      "midi": 64,
      "hit": false,
      "t": 25792.70699999998,
      "d": 914.6349999999984,
      "v": 100
    },
    {
      "midi": 57,
      "hit": false,
      "t": 25792.706999999984,
      "d": 320.12225000000035,
      "v": 100
    },
    {
      "midi": 60,
      "hit": false,
      "t": 25792.706999999984,
      "d": 320.12225000000035,
      "v": 100
    },
    {
      "midi": 48,
      "hit": false,
      "t": 25792.707000000002,
      "d": 875.0008166666667,
      "v": 100
    },
    {
      "midi": 55,
      "hit": false,
      "t": 25792.707000000002,
      "d": 887.1959499999975,
      "v": 100
    },
    {
      "midi": 60,
      "hit": false,
      "t": 25792.707000000002,
      "d": 896.3422999999966,
      "v": 100
    },
    {
      "midi": 64,
      "hit": false,
      "t": 25792.707000000002,
      "d": 905.4886499999957,
      "v": 100
    },
    {
      "midi": 67,
      "hit": false,
      "t": 25792.707000000002,
      "d": 914.6349999999948,
      "v": 100
    },
    {
      "midi": 48,
      "hit": false,
      "t": 25792.707000000002,
      "d": 875.0008166666667,
      "v": 100
    },
    {
      "midi": 55,
      "hit": false,
      "t": 25792.707000000002,
      "d": 887.1959499999975,
      "v": 100
    },
    {
      "midi": 60,
      "hit": false,
      "t": 25792.707000000002,
      "d": 896.3422999999966,
      "v": 100
    },
    {
      "midi": 64,
      "hit": false,
      "t": 25792.707000000002,
      "d": 905.4886499999957,
      "v": 100
    },
    {
      "midi": 67,
      "hit": false,
      "t": 25792.707000000002,
      "d": 914.6349999999948,
      "v": 100
    },
    {
      "midi": 46,
      "hit": false,
      "t": 25975.63399999996,
      "d": 182.92699999999968,
      "v": 80
    },
    {
      "midi": 46,
      "hit": false,
      "t": 26158.56099999996,
      "d": 182.92699999999968,
      "v": 80
    },
    {
      "midi": 36,
      "hit": false,
      "t": 26158.56099999996,
      "d": 182.92699999999968,
      "v": 100
    },
    {
      "midi": 36,
      "hit": false,
      "t": 26158.560999999972,
      "d": 182.92699999999968,
      "v": 100
    },
    {
      "midi": 60,
      "hit": false,
      "t": 26158.56099999998,
      "d": 365.85399999999936,
      "v": 100
    },
    {
      "midi": 57,
      "hit": false,
      "t": 26158.560999999983,
      "d": 182.92699999999968,
      "v": 100
    },
    {
      "midi": 60,
      "hit": false,
      "t": 26158.560999999983,
      "d": 182.92699999999968,
      "v": 100
    },
    {
      "midi": 46,
      "hit": false,
      "t": 26341.48799999996,
      "d": 182.92699999999968,
      "v": 80
    },
    {
      "midi": 40,
      "hit": false,
      "t": 26341.48799999996,
      "d": 365.85399999999936,
      "v": 100
    },
    {
      "midi": 36,
      "hit": false,
      "t": 26341.487999999972,
      "d": 182.92699999999968,
      "v": 100
    },
    {
      "midi": 57,
      "hit": false,
      "t": 26341.48799999998,
      "d": 365.85399999999936,
      "v": 100
    },
    {
      "midi": 58,
      "hit": false,
      "t": 26341.487999999983,
      "d": 182.92699999999968,
      "v": 100
    },
    {
      "midi": 62,
      "hit": false,
      "t": 26341.487999999983,
      "d": 182.92699999999968,
      "v": 100
    },
    {
      "midi": 46,
      "hit": false,
      "t": 26524.41499999996,
      "d": 182.92699999999968,
      "v": 80
    },
    {
      "midi": 36,
      "hit": false,
      "t": 26524.41499999997,
      "d": 182.92699999999968,
      "v": 100
    },
    {
      "midi": 60,
      "hit": false,
      "t": 26524.41499999998,
      "d": 182.92699999999968,
      "v": 100
    },
    {
      "midi": 52,
      "hit": false,
      "t": 26670.7566,
      "d": 2926.831999999995,
      "v": 100
    },
    {
      "midi": 52,
      "hit": false,
      "t": 26670.7566,
      "d": 2926.831999999995,
      "v": 100
    },
    {
      "midi": 57,
      "hit": false,
      "t": 26682.95173333333,
      "d": 2926.8319999999985,
      "v": 100
    },
    {
      "midi": 57,
      "hit": false,
      "t": 26682.95173333333,
      "d": 2926.8319999999985,
      "v": 100
    },
    {
      "midi": 60,
      "hit": false,
      "t": 26689.0493,
      "d": 2926.8319999999985,
      "v": 100
    },
    {
      "midi": 60,
      "hit": false,
      "t": 26689.0493,
      "d": 2926.8319999999985,
      "v": 100
    },
    {
      "midi": 64,
      "hit": false,
      "t": 26698.195649999998,
      "d": 2926.8319999999985,
      "v": 100
    },
    {
      "midi": 64,
      "hit": false,
      "t": 26698.195649999998,
      "d": 2926.8319999999985,
      "v": 100
    },
    {
      "midi": 36,
      "hit": false,
      "t": 26707.34199999996,
      "d": 365.85399999999936,
      "v": 100
    },
    {
      "midi": 46,
      "hit": false,
      "t": 26707.34199999996,
      "d": 365.85399999999936,
      "v": 80
    },
    {
      "midi": 49,
      "hit": false,
      "t": 26707.34199999996,
      "d": 731.7079999999987,
      "v": 100
    },
    {
      "midi": 33,
      "hit": false,
      "t": 26707.34199999997,
      "d": 182.92699999999968,
      "v": 100
    },
    {
      "midi": 52,
      "hit": false,
      "t": 26707.34199999998,
      "d": 1463.4159999999974,
      "v": 100
    },
    {
      "midi": 64,
      "hit": false,
      "t": 26707.341999999982,
      "d": 548.780999999999,
      "v": 100
    },
    {
      "midi": 69,
      "hit": false,
      "t": 26707.341999999997,
      "d": 2926.8319999999985,
      "v": 100
    },
    {
      "midi": 69,
      "hit": false,
      "t": 26707.341999999997,
      "d": 2926.8319999999985,
      "v": 100
    },
    {
      "midi": 33,
      "hit": false,
      "t": 26890.26899999997,
      "d": 182.92699999999968,
      "v": 100
    },
    {
      "midi": 57,
      "hit": false,
      "t": 26890.26899999998,
      "d": 1463.4159999999974,
      "v": 100
    },
    {
      "midi": 36,
      "hit": false,
      "t": 27073.19599999996,
      "d": 182.92699999999968,
      "v": 100
    },
    {
      "midi": 46,
      "hit": false,
      "t": 27073.19599999996,
      "d": 365.85399999999936,
      "v": 80
    },
    {
      "midi": 33,
      "hit": false,
      "t": 27073.19599999997,
      "d": 182.92699999999968,
      "v": 100
    },
    {
      "midi": 60,
      "hit": false,
      "t": 27073.195999999978,
      "d": 365.85399999999936,
      "v": 100
    },
    {
      "midi": 40,
      "hit": false,
      "t": 27256.12299999996,
      "d": 365.85399999999936,
      "v": 100
    },
    {
      "midi": 36,
      "hit": false,
      "t": 27256.12299999997,
      "d": 365.85399999999936,
      "v": 100
    },
    {
      "midi": 64,
      "hit": false,
      "t": 27256.122999999978,
      "d": 365.85399999999936,
      "v": 100
    },
    {
      "midi": 60,
      "hit": false,
      "t": 27256.12299999998,
      "d": 320.12225000000035,
      "v": 100
    },
    {
      "midi": 46,
      "hit": false,
      "t": 27439.04999999996,
      "d": 365.85399999999936,
      "v": 80
    },
    {
      "midi": 60,
      "hit": false,
      "t": 27439.049999999977,
      "d": 1097.561999999998,
      "v": 100
    },
    {
      "midi": 36,
      "hit": false,
      "t": 27621.97699999996,
      "d": 182.92699999999968,
      "v": 100
    },
    {
      "midi": 36,
      "hit": false,
      "t": 27621.97699999997,
      "d": 182.92699999999968,
      "v": 100
    },
    {
      "midi": 64,
      "hit": false,
      "t": 27621.976999999977,
      "d": 1097.561999999998,
      "v": 100
    },
    {
      "midi": 60,
      "hit": false,
      "t": 27621.97699999998,
      "d": 731.7079999999987,
      "v": 100
    },
    {
      "midi": 40,
      "hit": false,
      "t": 27804.90399999996,
      "d": 365.85399999999936,
      "v": 100
    },
    {
      "midi": 46,
      "hit": false,
      "t": 27804.90399999996,
      "d": 365.85399999999936,
      "v": 80
    },
    {
      "midi": 40,
      "hit": false,
      "t": 27804.90399999997,
      "d": 365.85399999999936,
      "v": 100
    },
    {
      "midi": 36,
      "hit": false,
      "t": 28170.757999999958,
      "d": 365.85399999999936,
      "v": 100
    },
    {
      "midi": 46,
      "hit": false,
      "t": 28170.757999999958,
      "d": 365.85399999999936,
      "v": 80
    },
    {
      "midi": 33,
      "hit": false,
      "t": 28170.75799999997,
      "d": 182.92699999999968,
      "v": 100
    },
    {
      "midi": 52,
      "hit": false,
      "t": 28170.757999999976,
      "d": 1463.4159999999974,
      "v": 100
    },
    {
      "midi": 33,
      "hit": false,
      "t": 28353.68499999997,
      "d": 182.92699999999968,
      "v": 100
    },
    {
      "midi": 57,
      "hit": false,
      "t": 28353.684999999976,
      "d": 1280.4889999999978,
      "v": 100
    },
    {
      "midi": 36,
      "hit": false,
      "t": 28536.611999999957,
      "d": 182.92699999999968,
      "v": 100
    },
    {
      "midi": 46,
      "hit": false,
      "t": 28536.611999999957,
      "d": 365.85399999999936,
      "v": 80
    },
    {
      "midi": 33,
      "hit": false,
      "t": 28536.61199999997,
      "d": 182.92699999999968,
      "v": 100
    },
    {
      "midi": 60,
      "hit": false,
      "t": 28536.611999999976,
      "d": 365.85399999999936,
      "v": 100
    },
    {
      "midi": 60,
      "hit": false,
      "t": 28536.61199999998,
      "d": 365.85399999999936,
      "v": 100
    },
    {
      "midi": 40,
      "hit": false,
      "t": 28719.538999999957,
      "d": 365.85399999999936,
      "v": 100
    },
    {
      "midi": 36,
      "hit": false,
      "t": 28719.538999999968,
      "d": 365.85399999999936,
      "v": 100
    },
    {
      "midi": 67,
      "hit": false,
      "t": 28719.538999999975,
      "d": 365.85399999999936,
      "v": 100
    },
    {
      "midi": 46,
      "hit": false,
      "t": 28902.465999999957,
      "d": 365.85399999999936,
      "v": 80
    },
    {
      "midi": 60,
      "hit": false,
      "t": 28902.465999999975,
      "d": 731.7079999999987,
      "v": 100
    },
    {
      "midi": 62,
      "hit": false,
      "t": 28902.46599999998,
      "d": 365.85399999999936,
      "v": 100
    },
    {
      "midi": 36,
      "hit": false,
      "t": 29085.392999999956,
      "d": 182.92699999999968,
      "v": 100
    },
    {
      "midi": 36,
      "hit": false,
      "t": 29085.392999999967,
      "d": 182.92699999999968,
      "v": 100
    },
    {
      "midi": 64,
      "hit": false,
      "t": 29085.392999999975,
      "d": 548.780999999999,
      "v": 100
    },
    {
      "midi": 40,
      "hit": false,
      "t": 29268.319999999956,
      "d": 365.85399999999936,
      "v": 100
    },
    {
      "midi": 46,
      "hit": false,
      "t": 29268.319999999956,
      "d": 365.85399999999936,
      "v": 80
    },
    {
      "midi": 40,
      "hit": false,
      "t": 29268.319999999967,
      "d": 365.85399999999936,
      "v": 100
    },
    {
      "midi": 64,
      "hit": false,
      "t": 29268.319999999978,
      "d": 365.85399999999936,
      "v": 100
    },
    {
      "midi": 50,
      "hit": false,
      "t": 29597.588599999995,
      "d": 2926.8319999999985,
      "v": 100
    },
    {
      "midi": 50,
      "hit": false,
      "t": 29597.588599999995,
      "d": 2926.8319999999985,
      "v": 100
    },
    {
      "midi": 57,
      "hit": false,
      "t": 29609.78373333333,
      "d": 2926.8319999999985,
      "v": 100
    },
    {
      "midi": 57,
      "hit": false,
      "t": 29609.78373333333,
      "d": 2926.8319999999985,
      "v": 100
    },
    {
      "midi": 62,
      "hit": false,
      "t": 29615.881299999997,
      "d": 2926.8319999999985,
      "v": 100
    },
    {
      "midi": 62,
      "hit": false,
      "t": 29615.881299999997,
      "d": 2926.8319999999985,
      "v": 100
    },
    {
      "midi": 65,
      "hit": false,
      "t": 29625.027649999996,
      "d": 2926.8319999999985,
      "v": 100
    },
    {
      "midi": 65,
      "hit": false,
      "t": 29625.027649999996,
      "d": 2926.8319999999985,
      "v": 100
    },
    {
      "midi": 36,
      "hit": false,
      "t": 29634.173999999955,
      "d": 365.85399999999936,
      "v": 100
    },
    {
      "midi": 46,
      "hit": false,
      "t": 29634.173999999955,
      "d": 365.85399999999936,
      "v": 80
    },
    {
      "midi": 38,
      "hit": false,
      "t": 29634.173999999966,
      "d": 182.92699999999968,
      "v": 100
    },
    {
      "midi": 50,
      "hit": false,
      "t": 29634.173999999974,
      "d": 2926.831999999995,
      "v": 100
    },
    {
      "midi": 65,
      "hit": false,
      "t": 29634.173999999977,
      "d": 548.780999999999,
      "v": 100
    },
    {
      "midi": 69,
      "hit": false,
      "t": 29634.173999999995,
      "d": 2926.8319999999985,
      "v": 100
    },
    {
      "midi": 69,
      "hit": false,
      "t": 29634.173999999995,
      "d": 2926.8319999999985,
      "v": 100
    },
    {
      "midi": 38,
      "hit": false,
      "t": 29817.100999999966,
      "d": 182.92699999999968,
      "v": 100
    },
    {
      "midi": 57,
      "hit": false,
      "t": 29817.100999999973,
      "d": 548.780999999999,
      "v": 100
    },
    {
      "midi": 36,
      "hit": false,
      "t": 30000.027999999955,
      "d": 182.92699999999968,
      "v": 100
    },
    {
      "midi": 46,
      "hit": false,
      "t": 30000.027999999955,
      "d": 365.85399999999936,
      "v": 80
    },
    {
      "midi": 38,
      "hit": false,
      "t": 30000.027999999966,
      "d": 182.92699999999968,
      "v": 100
    },
    {
      "midi": 62,
      "hit": false,
      "t": 30000.027999999973,
      "d": 548.780999999999,
      "v": 100
    },
    {
      "midi": 40,
      "hit": false,
      "t": 30182.954999999954,
      "d": 365.85399999999936,
      "v": 100
    },
    {
      "midi": 41,
      "hit": false,
      "t": 30182.954999999965,
      "d": 365.85399999999936,
      "v": 100
    },
    {
      "midi": 65,
      "hit": false,
      "t": 30182.954999999973,
      "d": 548.780999999999,
      "v": 100
    },
    {
      "midi": 62,
      "hit": false,
      "t": 30182.954999999976,
      "d": 137.19525000000067,
      "v": 100
    },
    {
      "midi": 46,
      "hit": false,
      "t": 30365.881999999954,
      "d": 365.85399999999936,
      "v": 80
    },
    {
      "midi": 57,
      "hit": false,
      "t": 30365.881999999972,
      "d": 182.92699999999968,
      "v": 100
    },
    {
      "midi": 62,
      "hit": false,
      "t": 30365.881999999976,
      "d": 365.85399999999936,
      "v": 100
    },
    {
      "midi": 36,
      "hit": false,
      "t": 30548.808999999954,
      "d": 182.92699999999968,
      "v": 100
    },
    {
      "midi": 41,
      "hit": false,
      "t": 30548.808999999965,
      "d": 182.92699999999968,
      "v": 100
    },
    {
      "midi": 62,
      "hit": false,
      "t": 30548.808999999972,
      "d": 914.6349999999984,
      "v": 100
    },
    {
      "midi": 57,
      "hit": false,
      "t": 30548.808999999972,
      "d": 2012.1969999999965,
      "v": 100
    },
    {
      "midi": 40,
      "hit": false,
      "t": 30731.735999999953,
      "d": 365.85399999999936,
      "v": 100
    },
    {
      "midi": 46,
      "hit": false,
      "t": 30731.735999999953,
      "d": 365.85399999999936,
      "v": 80
    },
    {
      "midi": 45,
      "hit": false,
      "t": 30731.735999999964,
      "d": 365.85399999999936,
      "v": 100
    },
    {
      "midi": 65,
      "hit": false,
      "t": 30731.73599999997,
      "d": 365.85399999999936,
      "v": 100
    },
    {
      "midi": 60,
      "hit": false,
      "t": 30731.735999999975,
      "d": 182.92699999999968,
      "v": 100
    },
    {
      "midi": 62,
      "hit": false,
      "t": 30914.662999999975,
      "d": 731.7079999999987,
      "v": 100
    },
    {
      "midi": 36,
      "hit": false,
      "t": 31097.589999999953,
      "d": 182.92699999999968,
      "v": 100
    },
    {
      "midi": 46,
      "hit": false,
      "t": 31097.589999999953,
      "d": 365.85399999999936,
      "v": 80
    },
    {
      "midi": 38,
      "hit": false,
      "t": 31097.589999999964,
      "d": 182.92699999999968,
      "v": 100
    },
    {
      "midi": 67,
      "hit": false,
      "t": 31097.58999999997,
      "d": 182.92699999999968,
      "v": 100
    },
    {
      "midi": 40,
      "hit": false,
      "t": 31280.516999999953,
      "d": 365.85399999999936,
      "v": 100
    },
    {
      "midi": 38,
      "hit": false,
      "t": 31280.516999999963,
      "d": 182.92699999999968,
      "v": 100
    },
    {
      "midi": 65,
      "hit": false,
      "t": 31280.51699999997,
      "d": 365.85399999999936,
      "v": 100
    },
    {
      "midi": 46,
      "hit": false,
      "t": 31463.443999999952,
      "d": 365.85399999999936,
      "v": 80
    },
    {
      "midi": 38,
      "hit": false,
      "t": 31463.443999999963,
      "d": 182.92699999999968,
      "v": 100
    },
    {
      "midi": 62,
      "hit": false,
      "t": 31463.44399999997,
      "d": 365.85399999999936,
      "v": 100
    },
    {
      "midi": 36,
      "hit": false,
      "t": 31646.370999999952,
      "d": 182.92699999999968,
      "v": 100
    },
    {
      "midi": 41,
      "hit": false,
      "t": 31646.370999999963,
      "d": 365.85399999999936,
      "v": 100
    },
    {
      "midi": 64,
      "hit": false,
      "t": 31646.37099999997,
      "d": 365.85399999999936,
      "v": 100
    },
    {
      "midi": 40,
      "hit": false,
      "t": 31829.29799999995,
      "d": 182.92699999999968,
      "v": 100
    },
    {
      "midi": 46,
      "hit": false,
      "t": 31829.29799999995,
      "d": 365.85399999999936,
      "v": 80
    },
    {
      "midi": 62,
      "hit": false,
      "t": 31829.29799999997,
      "d": 731.7079999999987,
      "v": 100
    },
    {
      "midi": 36,
      "hit": false,
      "t": 32012.22499999995,
      "d": 182.92699999999968,
      "v": 100
    },
    {
      "midi": 41,
      "hit": false,
      "t": 32012.224999999962,
      "d": 182.92699999999968,
      "v": 100
    },
    {
      "midi": 65,
      "hit": false,
      "t": 32012.22499999997,
      "d": 548.780999999999,
      "v": 100
    },
    {
      "midi": 46,
      "hit": false,
      "t": 32195.15199999995,
      "d": 365.85399999999936,
      "v": 80
    },
    {
      "midi": 40,
      "hit": false,
      "t": 32195.15199999995,
      "d": 365.85399999999936,
      "v": 100
    },
    {
      "midi": 41,
      "hit": false,
      "t": 32195.15199999995,
      "d": 365.85399999999936,
      "v": 100
    },
    {
      "midi": 45,
      "hit": false,
      "t": 32195.151999999962,
      "d": 365.85399999999936,
      "v": 100
    },
    {
      "midi": 52,
      "hit": false,
      "t": 32524.420599999994,
      "d": 2926.8319999999985,
      "v": 100
    },
    {
      "midi": 52,
      "hit": false,
      "t": 32524.420599999994,
      "d": 2926.8319999999985,
      "v": 100
    },
    {
      "midi": 57,
      "hit": false,
      "t": 32536.61573333333,
      "d": 2926.8319999999985,
      "v": 100
    },
    {
      "midi": 57,
      "hit": false,
      "t": 32536.61573333333,
      "d": 2926.8319999999985,
      "v": 100
    },
    {
      "midi": 60,
      "hit": false,
      "t": 32542.713299999996,
      "d": 2926.831999999995,
      "v": 100
    },
    {
      "midi": 60,
      "hit": false,
      "t": 32542.713299999996,
      "d": 2926.831999999995,
      "v": 100
    },
    {
      "midi": 64,
      "hit": false,
      "t": 32551.859649999995,
      "d": 2926.8319999999985,
      "v": 100
    },
    {
      "midi": 64,
      "hit": false,
      "t": 32551.859649999995,
      "d": 2926.8319999999985,
      "v": 100
    },
    {
      "midi": 36,
      "hit": false,
      "t": 32561.00599999995,
      "d": 365.85399999999936,
      "v": 100
    },
    {
      "midi": 46,
      "hit": false,
      "t": 32561.00599999995,
      "d": 365.85399999999936,
      "v": 80
    },
    {
      "midi": 33,
      "hit": false,
      "t": 32561.00599999996,
      "d": 182.92699999999968,
      "v": 100
    },
    {
      "midi": 52,
      "hit": false,
      "t": 32561.00599999997,
      "d": 2926.8320000000276,
      "v": 100
    },
    {
      "midi": 64,
      "hit": false,
      "t": 32561.005999999972,
      "d": 548.7810000000027,
      "v": 100
    },
    {
      "midi": 69,
      "hit": false,
      "t": 32561.005999999994,
      "d": 2926.832000000002,
      "v": 100
    },
    {
      "midi": 69,
      "hit": false,
      "t": 32561.005999999994,
      "d": 2926.832000000002,
      "v": 100
    },
    {
      "midi": 33,
      "hit": false,
      "t": 32743.93299999996,
      "d": 182.92700000000332,
      "v": 100
    },
    {
      "midi": 57,
      "hit": false,
      "t": 32743.932999999968,
      "d": 1280.4890000000087,
      "v": 100
    },
    {
      "midi": 36,
      "hit": false,
      "t": 32926.85999999995,
      "d": 182.92700000000332,
      "v": 100
    },
    {
      "midi": 46,
      "hit": false,
      "t": 32926.85999999995,
      "d": 365.85400000000664,
      "v": 80
    },
    {
      "midi": 33,
      "hit": false,
      "t": 32926.859999999964,
      "d": 182.92700000000332,
      "v": 100
    },
    {
      "midi": 60,
      "hit": false,
      "t": 32926.85999999997,
      "d": 1097.5620000000054,
      "v": 100
    },
    {
      "midi": 40,
      "hit": false,
      "t": 33109.78699999995,
      "d": 365.85400000000664,
      "v": 100
    },
    {
      "midi": 36,
      "hit": false,
      "t": 33109.78699999997,
      "d": 365.85399999999936,
      "v": 100
    },
    {
      "midi": 64,
      "hit": false,
      "t": 33109.786999999975,
      "d": 365.85399999999936,
      "v": 100
    },
    {
      "midi": 60,
      "hit": false,
      "t": 33109.786999999975,
      "d": 137.19524999999703,
      "v": 100
    },
    {
      "midi": 46,
      "hit": false,
      "t": 33292.713999999956,
      "d": 365.85400000000664,
      "v": 80
    },
    {
      "midi": 60,
      "hit": false,
      "t": 33292.71399999997,
      "d": 731.7079999999987,
      "v": 100
    },
    {
      "midi": 36,
      "hit": false,
      "t": 33475.64099999996,
      "d": 182.92700000000332,
      "v": 100
    },
    {
      "midi": 36,
      "hit": false,
      "t": 33475.64099999997,
      "d": 182.92700000000332,
      "v": 100
    },
    {
      "midi": 64,
      "hit": false,
      "t": 33475.640999999974,
      "d": 365.85399999999936,
      "v": 100
    },
    {
      "midi": 40,
      "hit": false,
      "t": 33658.56799999996,
      "d": 365.85399999999936,
      "v": 100
    },
    {
      "midi": 46,
      "hit": false,
      "t": 33658.56799999996,
      "d": 365.85399999999936,
      "v": 80
    },
    {
      "midi": 40,
      "hit": false,
      "t": 33658.56799999997,
      "d": 365.85399999999936,
      "v": 100
    },
    {
      "midi": 64,
      "hit": false,
      "t": 33841.49499999997,
      "d": 365.85400000000664,
      "v": 100
    },
    {
      "midi": 36,
      "hit": false,
      "t": 34024.42199999996,
      "d": 365.85399999999936,
      "v": 100
    },
    {
      "midi": 46,
      "hit": false,
      "t": 34024.42199999996,
      "d": 365.85399999999936,
      "v": 80
    },
    {
      "midi": 33,
      "hit": false,
      "t": 34024.42199999997,
      "d": 182.92700000000332,
      "v": 100
    },
    {
      "midi": 60,
      "hit": false,
      "t": 34024.42199999998,
      "d": 182.92700000000332,
      "v": 100
    },
    {
      "midi": 57,
      "hit": false,
      "t": 34024.42199999998,
      "d": 1463.4160000000193,
      "v": 100
    },
    {
      "midi": 33,
      "hit": false,
      "t": 34207.34899999997,
      "d": 182.92700000000332,
      "v": 100
    },
    {
      "midi": 64,
      "hit": false,
      "t": 34207.34899999998,
      "d": 182.92700000000332,
      "v": 100
    },
    {
      "midi": 60,
      "hit": false,
      "t": 34207.34899999998,
      "d": 548.78100000001,
      "v": 100
    },
    {
      "midi": 36,
      "hit": false,
      "t": 34390.27599999996,
      "d": 182.92700000000332,
      "v": 100
    },
    {
      "midi": 46,
      "hit": false,
      "t": 34390.27599999996,
      "d": 365.85400000000664,
      "v": 80
    },
    {
      "midi": 60,
      "hit": false,
      "t": 34390.27599999997,
      "d": 365.85399999999936,
      "v": 100
    },
    {
      "midi": 33,
      "hit": false,
      "t": 34390.275999999976,
      "d": 182.92700000000332,
      "v": 100
    },
    {
      "midi": 67,
      "hit": false,
      "t": 34390.27599999998,
      "d": 182.92700000000332,
      "v": 100
    },
    {
      "midi": 40,
      "hit": false,
      "t": 34573.202999999965,
      "d": 365.85400000000664,
      "v": 100
    },
    {
      "midi": 36,
      "hit": false,
      "t": 34573.20299999998,
      "d": 365.85399999999936,
      "v": 100
    },
    {
      "midi": 67,
      "hit": false,
      "t": 34573.20299999999,
      "d": 365.85400000000664,
      "v": 100
    },
    {
      "midi": 46,
      "hit": false,
      "t": 34756.12999999997,
      "d": 365.85400000000664,
      "v": 80
    },
    {
      "midi": 62,
      "hit": false,
      "t": 34756.12999999997,
      "d": 365.85399999999936,
      "v": 100
    },
    {
      "midi": 60,
      "hit": false,
      "t": 34756.12999999999,
      "d": 731.708000000006,
      "v": 100
    },
    {
      "midi": 36,
      "hit": false,
      "t": 34939.05699999997,
      "d": 182.92700000000332,
      "v": 100
    },
    {
      "midi": 36,
      "hit": false,
      "t": 34939.05699999998,
      "d": 182.92700000000332,
      "v": 100
    },
    {
      "midi": 64,
      "hit": false,
      "t": 34939.05699999999,
      "d": 548.7810000000027,
      "v": 100
    },
    {
      "midi": 64,
      "hit": false,
      "t": 35121.98399999997,
      "d": 365.85399999999936,
      "v": 100
    },
    {
      "midi": 40,
      "hit": false,
      "t": 35121.983999999975,
      "d": 365.85399999999936,
      "v": 100
    },
    {
      "midi": 46,
      "hit": false,
      "t": 35121.983999999975,
      "d": 365.85399999999936,
      "v": 80
    },
    {
      "midi": 40,
      "hit": false,
      "t": 35121.98399999998,
      "d": 365.85399999999936,
      "v": 100
    },
    {
      "midi": 50,
      "hit": false,
      "t": 35451.25259999999,
      "d": 2963.4174000000057,
      "v": 100
    },
    {
      "midi": 50,
      "hit": false,
      "t": 35451.25259999999,
      "d": 2963.4174000000057,
      "v": 100
    },
    {
      "midi": 57,
      "hit": false,
      "t": 35463.44773333333,
      "d": 2954.271050000003,
      "v": 100
    },
    {
      "midi": 57,
      "hit": false,
      "t": 35463.44773333333,
      "d": 2954.271050000003,
      "v": 100
    },
    {
      "midi": 62,
      "hit": false,
      "t": 35469.54529999999,
      "d": 2945.1247000000076,
      "v": 100
    },
    {
      "midi": 62,
      "hit": false,
      "t": 35469.54529999999,
      "d": 2945.1247000000076,
      "v": 100
    },
    {
      "midi": 65,
      "hit": false,
      "t": 35478.69164999999,
      "d": 2935.978350000005,
      "v": 100
    },
    {
      "midi": 65,
      "hit": false,
      "t": 35478.69164999999,
      "d": 2935.978350000005,
      "v": 100
    },
    {
      "midi": 65,
      "hit": false,
      "t": 35487.83799999997,
      "d": 548.7810000000027,
      "v": 100
    },
    {
      "midi": 36,
      "hit": false,
      "t": 35487.837999999974,
      "d": 365.85399999999936,
      "v": 100
    },
    {
      "midi": 46,
      "hit": false,
      "t": 35487.837999999974,
      "d": 365.85399999999936,
      "v": 80
    },
    {
      "midi": 38,
      "hit": false,
      "t": 35487.83799999998,
      "d": 182.92700000000332,
      "v": 100
    },
    {
      "midi": 69,
      "hit": false,
      "t": 35487.837999999996,
      "d": 2926.832000000002,
      "v": 100
    },
    {
      "midi": 69,
      "hit": false,
      "t": 35487.837999999996,
      "d": 2926.832000000002,
      "v": 100
    },
    {
      "midi": 50,
      "hit": false,
      "t": 35487.837999999996,
      "d": 2926.832000000046,
      "v": 100
    },
    {
      "midi": 38,
      "hit": false,
      "t": 35670.764999999985,
      "d": 182.92700000000332,
      "v": 100
    },
    {
      "midi": 57,
      "hit": false,
      "t": 35670.765,
      "d": 914.6350000000166,
      "v": 100
    },
    {
      "midi": 36,
      "hit": false,
      "t": 35853.69199999997,
      "d": 182.92700000000332,
      "v": 100
    },
    {
      "midi": 46,
      "hit": false,
      "t": 35853.69199999997,
      "d": 365.85400000000664,
      "v": 80
    },
    {
      "midi": 38,
      "hit": false,
      "t": 35853.69199999999,
      "d": 182.92700000000332,
      "v": 100
    },
    {
      "midi": 62,
      "hit": false,
      "t": 35853.692,
      "d": 365.85400000000664,
      "v": 100
    },
    {
      "midi": 62,
      "hit": false,
      "t": 36036.61899999997,
      "d": 137.19524999999703,
      "v": 100
    },
    {
      "midi": 40,
      "hit": false,
      "t": 36036.61899999998,
      "d": 365.85400000000664,
      "v": 100
    },
    {
      "midi": 41,
      "hit": false,
      "t": 36036.61899999999,
      "d": 365.85399999999936,
      "v": 100
    },
    {
      "midi": 65,
      "hit": false,
      "t": 36036.619000000006,
      "d": 365.85400000000664,
      "v": 100
    },
    {
      "midi": 62,
      "hit": false,
      "t": 36219.545999999966,
      "d": 365.85399999999936,
      "v": 100
    },
    {
      "midi": 46,
      "hit": false,
      "t": 36219.54599999998,
      "d": 365.85400000000664,
      "v": 80
    },
    {
      "midi": 62,
      "hit": false,
      "t": 36219.54600000001,
      "d": 548.78100000001,
      "v": 100
    },
    {
      "midi": 36,
      "hit": false,
      "t": 36402.47299999998,
      "d": 182.92700000000332,
      "v": 100
    },
    {
      "midi": 41,
      "hit": false,
      "t": 36402.47299999999,
      "d": 182.92700000000332,
      "v": 100
    },
    {
      "midi": 65,
      "hit": false,
      "t": 36402.47300000001,
      "d": 548.78100000001,
      "v": 100
    },
    {
      "midi": 60,
      "hit": false,
      "t": 36585.399999999965,
      "d": 182.92700000000332,
      "v": 100
    },
    {
      "midi": 40,
      "hit": false,
      "t": 36585.39999999999,
      "d": 365.85399999999936,
      "v": 100
    },
    {
      "midi": 46,
      "hit": false,
      "t": 36585.39999999999,
      "d": 365.85399999999936,
      "v": 80
    },
    {
      "midi": 45,
      "hit": false,
      "t": 36585.399999999994,
      "d": 365.85399999999936,
      "v": 100
    },
    {
      "midi": 57,
      "hit": false,
      "t": 36585.400000000016,
      "d": 1829.270000000026,
      "v": 100
    },
    {
      "midi": 62,
      "hit": false,
      "t": 36768.32699999997,
      "d": 1097.561999999998,
      "v": 100
    },
    {
      "midi": 62,
      "hit": false,
      "t": 36768.32700000002,
      "d": 548.78100000001,
      "v": 100
    },
    {
      "midi": 36,
      "hit": false,
      "t": 36951.253999999986,
      "d": 365.85399999999936,
      "v": 100
    },
    {
      "midi": 46,
      "hit": false,
      "t": 36951.253999999986,
      "d": 365.85399999999936,
      "v": 80
    },
    {
      "midi": 38,
      "hit": false,
      "t": 36951.25399999999,
      "d": 182.92700000000332,
      "v": 100
    },
    {
      "midi": 67,
      "hit": false,
      "t": 36951.25400000002,
      "d": 182.92700000000332,
      "v": 100
    },
    {
      "midi": 38,
      "hit": false,
      "t": 37134.181,
      "d": 182.92700000000332,
      "v": 100
    },
    {
      "midi": 65,
      "hit": false,
      "t": 37134.181000000026,
      "d": 365.85400000000664,
      "v": 100
    },
    {
      "midi": 46,
      "hit": false,
      "t": 37317.107999999986,
      "d": 365.85399999999936,
      "v": 80
    },
    {
      "midi": 40,
      "hit": false,
      "t": 37317.107999999986,
      "d": 365.85399999999936,
      "v": 100
    },
    {
      "midi": 38,
      "hit": false,
      "t": 37317.108,
      "d": 182.92700000000332,
      "v": 100
    },
    {
      "midi": 62,
      "hit": false,
      "t": 37317.10800000003,
      "d": 365.85400000000664,
      "v": 100
    },
    {
      "midi": 41,
      "hit": false,
      "t": 37500.035,
      "d": 365.85399999999936,
      "v": 100
    },
    {
      "midi": 64,
      "hit": false,
      "t": 37500.03500000003,
      "d": 365.85400000000664,
      "v": 100
    },
    {
      "midi": 36,
      "hit": false,
      "t": 37682.961999999985,
      "d": 274.39050000000134,
      "v": 100
    },
    {
      "midi": 46,
      "hit": false,
      "t": 37682.961999999985,
      "d": 365.85399999999936,
      "v": 80
    },
    {
      "midi": 62,
      "hit": false,
      "t": 37682.962000000036,
      "d": 731.708000000006,
      "v": 100
    },
    {
      "midi": 41,
      "hit": false,
      "t": 37865.889,
      "d": 182.92700000000332,
      "v": 100
    },
    {
      "midi": 65,
      "hit": false,
      "t": 37865.88900000004,
      "d": 548.7810000000027,
      "v": 100
    },
    {
      "midi": 40,
      "hit": false,
      "t": 37957.352499999986,
      "d": 91.46349999999802,
      "v": 100
    },
    {
      "midi": 40,
      "hit": false,
      "t": 38048.815999999984,
      "d": 182.92700000000332,
      "v": 100
    },
    {
      "midi": 45,
      "hit": false,
      "t": 38048.816000000006,
      "d": 365.85399999999936,
      "v": 100
    },
    {
      "midi": 40,
      "hit": false,
      "t": 38231.74299999999,
      "d": 91.46349999999802,
      "v": 100
    },
    {
      "midi": 40,
      "hit": false,
      "t": 38323.206499999986,
      "d": 91.46349999999802,
      "v": 100
    },
    {
      "midi": 65,
      "hit": false,
      "t": 38414.66999999997,
      "d": 365.85399999999936,
      "v": 100
    },
    {
      "midi": 46,
      "hit": false,
      "t": 38414.669999999984,
      "d": 182.92700000000332,
      "v": 80
    },
    {
      "midi": 36,
      "hit": false,
      "t": 38414.669999999984,
      "d": 365.85400000000664,
      "v": 100
    },
    {
      "midi": 49,
      "hit": false,
      "t": 38414.669999999984,
      "d": 731.7080000000133,
      "v": 100
    },
    {
      "midi": 62,
      "hit": false,
      "t": 38414.67,
      "d": 365.85399999999936,
      "v": 100
    },
    {
      "midi": 55,
      "hit": false,
      "t": 38414.67,
      "d": 365.85399999999936,
      "v": 100
    },
    {
      "midi": 67,
      "hit": false,
      "t": 38414.67,
      "d": 365.85399999999936,
      "v": 100
    },
    {
      "midi": 58,
      "hit": false,
      "t": 38414.67,
      "d": 365.85399999999936,
      "v": 100
    },
    {
      "midi": 50,
      "hit": false,
      "t": 38414.67,
      "d": 365.85399999999936,
      "v": 100
    },
    {
      "midi": 62,
      "hit": false,
      "t": 38414.67,
      "d": 365.85399999999936,
      "v": 100
    },
    {
      "midi": 55,
      "hit": false,
      "t": 38414.67,
      "d": 365.85399999999936,
      "v": 100
    },
    {
      "midi": 67,
      "hit": false,
      "t": 38414.67,
      "d": 365.85399999999936,
      "v": 100
    },
    {
      "midi": 58,
      "hit": false,
      "t": 38414.67,
      "d": 365.85399999999936,
      "v": 100
    },
    {
      "midi": 50,
      "hit": false,
      "t": 38414.67,
      "d": 365.85399999999936,
      "v": 100
    },
    {
      "midi": 31,
      "hit": false,
      "t": 38414.670000000006,
      "d": 182.92700000000332,
      "v": 100
    },
    {
      "midi": 46,
      "hit": false,
      "t": 38597.59699999999,
      "d": 182.92700000000332,
      "v": 80
    },
    {
      "midi": 31,
      "hit": false,
      "t": 38597.59700000001,
      "d": 182.92700000000332,
      "v": 100
    },
    {
      "midi": 62,
      "hit": false,
      "t": 38780.52399999997,
      "d": 137.19524999999703,
      "v": 100
    },
    {
      "midi": 46,
      "hit": false,
      "t": 38780.52399999999,
      "d": 182.92700000000332,
      "v": 80
    },
    {
      "midi": 40,
      "hit": false,
      "t": 38780.52399999999,
      "d": 365.85400000000664,
      "v": 100
    },
    {
      "midi": 58,
      "hit": false,
      "t": 38780.524,
      "d": 182.92700000000332,
      "v": 100
    },
    {
      "midi": 50,
      "hit": false,
      "t": 38780.524,
      "d": 182.92700000000332,
      "v": 100
    },
    {
      "midi": 62,
      "hit": false,
      "t": 38780.524,
      "d": 182.92700000000332,
      "v": 100
    },
    {
      "midi": 55,
      "hit": false,
      "t": 38780.524,
      "d": 182.92700000000332,
      "v": 100
    },
    {
      "midi": 67,
      "hit": false,
      "t": 38780.524,
      "d": 182.92700000000332,
      "v": 100
    },
    {
      "midi": 58,
      "hit": false,
      "t": 38780.524,
      "d": 182.92700000000332,
      "v": 100
    },
    {
      "midi": 50,
      "hit": false,
      "t": 38780.524,
      "d": 182.92700000000332,
      "v": 100
    },
    {
      "midi": 62,
      "hit": false,
      "t": 38780.524,
      "d": 182.92700000000332,
      "v": 100
    },
    {
      "midi": 55,
      "hit": false,
      "t": 38780.524,
      "d": 182.92700000000332,
      "v": 100
    },
    {
      "midi": 67,
      "hit": false,
      "t": 38780.524,
      "d": 182.92700000000332,
      "v": 100
    },
    {
      "midi": 31,
      "hit": false,
      "t": 38780.52400000001,
      "d": 182.92700000000332,
      "v": 100
    },
    {
      "midi": 62,
      "hit": false,
      "t": 38963.450999999965,
      "d": 731.7079999999987,
      "v": 100
    },
    {
      "midi": 46,
      "hit": false,
      "t": 38963.450999999994,
      "d": 182.92700000000332,
      "v": 80
    },
    {
      "midi": 62,
      "hit": false,
      "t": 38963.451,
      "d": 548.7810000000027,
      "v": 100
    },
    {
      "midi": 58,
      "hit": false,
      "t": 38963.451,
      "d": 548.7810000000027,
      "v": 100
    },
    {
      "midi": 55,
      "hit": false,
      "t": 38963.451,
      "d": 548.7810000000027,
      "v": 100
    },
    {
      "midi": 67,
      "hit": false,
      "t": 38963.451,
      "d": 548.7810000000027,
      "v": 100
    },
    {
      "midi": 50,
      "hit": false,
      "t": 38963.451,
      "d": 548.7810000000027,
      "v": 100
    },
    {
      "midi": 62,
      "hit": false,
      "t": 38963.451,
      "d": 548.7810000000027,
      "v": 100
    },
    {
      "midi": 58,
      "hit": false,
      "t": 38963.451,
      "d": 548.7810000000027,
      "v": 100
    },
    {
      "midi": 55,
      "hit": false,
      "t": 38963.451,
      "d": 548.7810000000027,
      "v": 100
    },
    {
      "midi": 67,
      "hit": false,
      "t": 38963.451,
      "d": 548.7810000000027,
      "v": 100
    },
    {
      "midi": 50,
      "hit": false,
      "t": 38963.451,
      "d": 548.7810000000027,
      "v": 100
    },
    {
      "midi": 31,
      "hit": false,
      "t": 38963.451000000015,
      "d": 182.92700000000332,
      "v": 100
    },
    {
      "midi": 46,
      "hit": false,
      "t": 39146.378,
      "d": 182.92700000000332,
      "v": 80
    },
    {
      "midi": 36,
      "hit": false,
      "t": 39146.378,
      "d": 182.92700000000332,
      "v": 100
    },
    {
      "midi": 31,
      "hit": false,
      "t": 39146.37800000002,
      "d": 182.92700000000332,
      "v": 100
    },
    {
      "midi": 36,
      "hit": false,
      "t": 39329.305,
      "d": 182.92700000000332,
      "v": 100
    },
    {
      "midi": 46,
      "hit": false,
      "t": 39329.305,
      "d": 182.92700000000332,
      "v": 80
    },
    {
      "midi": 31,
      "hit": false,
      "t": 39329.30500000002,
      "d": 182.92700000000332,
      "v": 100
    },
    {
      "midi": 58,
      "hit": false,
      "t": 39512.232,
      "d": 182.92700000000332,
      "v": 100
    },
    {
      "midi": 55,
      "hit": false,
      "t": 39512.232,
      "d": 182.92700000000332,
      "v": 100
    },
    {
      "midi": 62,
      "hit": false,
      "t": 39512.232,
      "d": 182.92700000000332,
      "v": 100
    },
    {
      "midi": 67,
      "hit": false,
      "t": 39512.232,
      "d": 182.92700000000332,
      "v": 100
    },
    {
      "midi": 50,
      "hit": false,
      "t": 39512.232,
      "d": 182.92700000000332,
      "v": 100
    },
    {
      "midi": 58,
      "hit": false,
      "t": 39512.232,
      "d": 182.92700000000332,
      "v": 100
    },
    {
      "midi": 55,
      "hit": false,
      "t": 39512.232,
      "d": 182.92700000000332,
      "v": 100
    },
    {
      "midi": 62,
      "hit": false,
      "t": 39512.232,
      "d": 182.92700000000332,
      "v": 100
    },
    {
      "midi": 67,
      "hit": false,
      "t": 39512.232,
      "d": 182.92700000000332,
      "v": 100
    },
    {
      "midi": 50,
      "hit": false,
      "t": 39512.232,
      "d": 182.92700000000332,
      "v": 100
    },
    {
      "midi": 46,
      "hit": false,
      "t": 39512.232,
      "d": 182.92700000000332,
      "v": 80
    },
    {
      "midi": 40,
      "hit": false,
      "t": 39512.232,
      "d": 365.85400000000664,
      "v": 100
    },
    {
      "midi": 31,
      "hit": false,
      "t": 39512.232000000025,
      "d": 182.92700000000332,
      "v": 100
    },
    {
      "midi": 69,
      "hit": false,
      "t": 39695.15900000001,
      "d": 91.46349999999802,
      "v": 80
    },
    {
      "midi": 60,
      "hit": false,
      "t": 39695.15900000001,
      "d": 91.46349999999802,
      "v": 80
    },
    {
      "midi": 52,
      "hit": false,
      "t": 39695.15900000001,
      "d": 91.46349999999802,
      "v": 80
    },
    {
      "midi": 57,
      "hit": false,
      "t": 39695.15900000001,
      "d": 91.46349999999802,
      "v": 80
    },
    {
      "midi": 64,
      "hit": false,
      "t": 39695.15900000001,
      "d": 91.46349999999802,
      "v": 80
    },
    {
      "midi": 69,
      "hit": false,
      "t": 39695.15900000001,
      "d": 91.46349999999802,
      "v": 80
    },
    {
      "midi": 60,
      "hit": false,
      "t": 39695.15900000001,
      "d": 91.46349999999802,
      "v": 80
    },
    {
      "midi": 52,
      "hit": false,
      "t": 39695.15900000001,
      "d": 91.46349999999802,
      "v": 80
    },
    {
      "midi": 57,
      "hit": false,
      "t": 39695.15900000001,
      "d": 91.46349999999802,
      "v": 80
    },
    {
      "midi": 64,
      "hit": false,
      "t": 39695.15900000001,
      "d": 91.46349999999802,
      "v": 80
    },
    {
      "midi": 46,
      "hit": false,
      "t": 39695.15900000001,
      "d": 182.92700000000332,
      "v": 80
    },
    {
      "midi": 31,
      "hit": false,
      "t": 39695.15900000003,
      "d": 182.92700000000332,
      "v": 100
    },
    {
      "midi": 52,
      "hit": false,
      "t": 39786.622500000005,
      "d": 91.46349999999802,
      "v": 80
    },
    {
      "midi": 60,
      "hit": false,
      "t": 39786.622500000005,
      "d": 91.46349999999802,
      "v": 80
    },
    {
      "midi": 69,
      "hit": false,
      "t": 39786.622500000005,
      "d": 91.46349999999802,
      "v": 80
    },
    {
      "midi": 64,
      "hit": false,
      "t": 39786.622500000005,
      "d": 91.46349999999802,
      "v": 80
    },
    {
      "midi": 57,
      "hit": false,
      "t": 39786.622500000005,
      "d": 91.46349999999802,
      "v": 80
    },
    {
      "midi": 52,
      "hit": false,
      "t": 39786.622500000005,
      "d": 91.46349999999802,
      "v": 80
    },
    {
      "midi": 60,
      "hit": false,
      "t": 39786.622500000005,
      "d": 91.46349999999802,
      "v": 80
    },
    {
      "midi": 69,
      "hit": false,
      "t": 39786.622500000005,
      "d": 91.46349999999802,
      "v": 80
    },
    {
      "midi": 64,
      "hit": false,
      "t": 39786.622500000005,
      "d": 91.46349999999802,
      "v": 80
    },
    {
      "midi": 57,
      "hit": false,
      "t": 39786.622500000005,
      "d": 91.46349999999802,
      "v": 80
    },
    {
      "midi": 64,
      "hit": false,
      "t": 39878.08599999997,
      "d": 365.85399999999936,
      "v": 100
    },
    {
      "midi": 60,
      "hit": false,
      "t": 39878.086,
      "d": 365.85399999999936,
      "v": 100
    },
    {
      "midi": 57,
      "hit": false,
      "t": 39878.086,
      "d": 365.85399999999936,
      "v": 100
    },
    {
      "midi": 69,
      "hit": false,
      "t": 39878.086,
      "d": 365.85399999999936,
      "v": 100
    },
    {
      "midi": 64,
      "hit": false,
      "t": 39878.086,
      "d": 365.85399999999936,
      "v": 100
    },
    {
      "midi": 52,
      "hit": false,
      "t": 39878.086,
      "d": 365.85399999999936,
      "v": 100
    },
    {
      "midi": 60,
      "hit": false,
      "t": 39878.086,
      "d": 365.85399999999936,
      "v": 100
    },
    {
      "midi": 57,
      "hit": false,
      "t": 39878.086,
      "d": 365.85399999999936,
      "v": 100
    },
    {
      "midi": 69,
      "hit": false,
      "t": 39878.086,
      "d": 365.85399999999936,
      "v": 100
    },
    {
      "midi": 64,
      "hit": false,
      "t": 39878.086,
      "d": 365.85399999999936,
      "v": 100
    },
    {
      "midi": 52,
      "hit": false,
      "t": 39878.086,
      "d": 365.85399999999936,
      "v": 100
    },
    {
      "midi": 46,
      "hit": false,
      "t": 39878.08600000001,
      "d": 182.92700000000332,
      "v": 80
    },
    {
      "midi": 36,
      "hit": false,
      "t": 39878.08600000001,
      "d": 365.85400000000664,
      "v": 100
    },
    {
      "midi": 33,
      "hit": false,
      "t": 39878.08600000003,
      "d": 182.92700000000332,
      "v": 100
    },
    {
      "midi": 46,
      "hit": false,
      "t": 40061.01300000001,
      "d": 182.92700000000332,
      "v": 80
    },
    {
      "midi": 33,
      "hit": false,
      "t": 40061.013000000035,
      "d": 182.92700000000332,
      "v": 100
    },
    {
      "midi": 60,
      "hit": false,
      "t": 40243.939999999966,
      "d": 137.19524999999703,
      "v": 100
    },
    {
      "midi": 60,
      "hit": false,
      "t": 40243.94,
      "d": 182.92700000000332,
      "v": 100
    },
    {
      "midi": 52,
      "hit": false,
      "t": 40243.94,
      "d": 182.92700000000332,
      "v": 100
    },
    {
      "midi": 64,
      "hit": false,
      "t": 40243.94,
      "d": 182.92700000000332,
      "v": 100
    },
    {
      "midi": 57,
      "hit": false,
      "t": 40243.94,
      "d": 182.92700000000332,
      "v": 100
    },
    {
      "midi": 69,
      "hit": false,
      "t": 40243.94,
      "d": 182.92700000000332,
      "v": 100
    },
    {
      "midi": 60,
      "hit": false,
      "t": 40243.94,
      "d": 182.92700000000332,
      "v": 100
    },
    {
      "midi": 52,
      "hit": false,
      "t": 40243.94,
      "d": 182.92700000000332,
      "v": 100
    },
    {
      "midi": 64,
      "hit": false,
      "t": 40243.94,
      "d": 182.92700000000332,
      "v": 100
    },
    {
      "midi": 57,
      "hit": false,
      "t": 40243.94,
      "d": 182.92700000000332,
      "v": 100
    },
    {
      "midi": 69,
      "hit": false,
      "t": 40243.94,
      "d": 182.92700000000332,
      "v": 100
    },
    {
      "midi": 46,
      "hit": false,
      "t": 40243.94000000002,
      "d": 182.92700000000332,
      "v": 80
    },
    {
      "midi": 40,
      "hit": false,
      "t": 40243.94000000002,
      "d": 365.85400000000664,
      "v": 100
    },
    {
      "midi": 33,
      "hit": false,
      "t": 40243.94000000004,
      "d": 182.92700000000332,
      "v": 100
    },
    {
      "midi": 60,
      "hit": false,
      "t": 40426.86699999996,
      "d": 731.7079999999987,
      "v": 100
    },
    {
      "midi": 64,
      "hit": false,
      "t": 40426.867000000006,
      "d": 548.7810000000027,
      "v": 100
    },
    {
      "midi": 60,
      "hit": false,
      "t": 40426.867000000006,
      "d": 548.7810000000027,
      "v": 100
    },
    {
      "midi": 57,
      "hit": false,
      "t": 40426.867000000006,
      "d": 548.7810000000027,
      "v": 100
    },
    {
      "midi": 69,
      "hit": false,
      "t": 40426.867000000006,
      "d": 548.7810000000027,
      "v": 100
    },
    {
      "midi": 52,
      "hit": false,
      "t": 40426.867000000006,
      "d": 548.7810000000027,
      "v": 100
    },
    {
      "midi": 64,
      "hit": false,
      "t": 40426.867000000006,
      "d": 548.7810000000027,
      "v": 100
    },
    {
      "midi": 60,
      "hit": false,
      "t": 40426.867000000006,
      "d": 548.7810000000027,
      "v": 100
    },
    {
      "midi": 57,
      "hit": false,
      "t": 40426.867000000006,
      "d": 548.7810000000027,
      "v": 100
    },
    {
      "midi": 69,
      "hit": false,
      "t": 40426.867000000006,
      "d": 548.7810000000027,
      "v": 100
    },
    {
      "midi": 52,
      "hit": false,
      "t": 40426.867000000006,
      "d": 548.7810000000027,
      "v": 100
    },
    {
      "midi": 46,
      "hit": false,
      "t": 40426.86700000002,
      "d": 182.92700000000332,
      "v": 80
    },
    {
      "midi": 33,
      "hit": false,
      "t": 40426.86700000004,
      "d": 182.92700000000332,
      "v": 100
    },
    {
      "midi": 36,
      "hit": false,
      "t": 40609.79400000002,
      "d": 182.92700000000332,
      "v": 100
    },
    {
      "midi": 46,
      "hit": false,
      "t": 40609.79400000002,
      "d": 182.92700000000332,
      "v": 80
    },
    {
      "midi": 33,
      "hit": false,
      "t": 40609.794000000045,
      "d": 182.92700000000332,
      "v": 100
    },
    {
      "midi": 36,
      "hit": false,
      "t": 40792.72100000003,
      "d": 182.92700000000332,
      "v": 100
    },
    {
      "midi": 46,
      "hit": false,
      "t": 40792.72100000003,
      "d": 182.92700000000332,
      "v": 80
    },
    {
      "midi": 33,
      "hit": false,
      "t": 40792.72100000005,
      "d": 182.92700000000332,
      "v": 100
    },
    {
      "midi": 60,
      "hit": false,
      "t": 40975.64800000001,
      "d": 182.92700000000332,
      "v": 100
    },
    {
      "midi": 57,
      "hit": false,
      "t": 40975.64800000001,
      "d": 182.92700000000332,
      "v": 100
    },
    {
      "midi": 64,
      "hit": false,
      "t": 40975.64800000001,
      "d": 182.92700000000332,
      "v": 100
    },
    {
      "midi": 69,
      "hit": false,
      "t": 40975.64800000001,
      "d": 182.92700000000332,
      "v": 100
    },
    {
      "midi": 52,
      "hit": false,
      "t": 40975.64800000001,
      "d": 182.92700000000332,
      "v": 100
    },
    {
      "midi": 60,
      "hit": false,
      "t": 40975.64800000001,
      "d": 182.92700000000332,
      "v": 100
    },
    {
      "midi": 57,
      "hit": false,
      "t": 40975.64800000001,
      "d": 182.92700000000332,
      "v": 100
    },
    {
      "midi": 64,
      "hit": false,
      "t": 40975.64800000001,
      "d": 182.92700000000332,
      "v": 100
    },
    {
      "midi": 69,
      "hit": false,
      "t": 40975.64800000001,
      "d": 182.92700000000332,
      "v": 100
    },
    {
      "midi": 52,
      "hit": false,
      "t": 40975.64800000001,
      "d": 182.92700000000332,
      "v": 100
    },
    {
      "midi": 46,
      "hit": false,
      "t": 40975.64800000003,
      "d": 182.92700000000332,
      "v": 80
    },
    {
      "midi": 40,
      "hit": false,
      "t": 40975.64800000003,
      "d": 365.85400000000664,
      "v": 100
    },
    {
      "midi": 33,
      "hit": false,
      "t": 40975.64800000005,
      "d": 182.92700000000332,
      "v": 100
    },
    {
      "midi": 46,
      "hit": false,
      "t": 41158.57500000001,
      "d": 91.46349999999802,
      "v": 80
    },
    {
      "midi": 58,
      "hit": false,
      "t": 41158.57500000001,
      "d": 91.46349999999802,
      "v": 80
    },
    {
      "midi": 65,
      "hit": false,
      "t": 41158.57500000001,
      "d": 91.46349999999802,
      "v": 80
    },
    {
      "midi": 62,
      "hit": false,
      "t": 41158.57500000001,
      "d": 91.46349999999802,
      "v": 80
    },
    {
      "midi": 53,
      "hit": false,
      "t": 41158.57500000001,
      "d": 91.46349999999802,
      "v": 80
    },
    {
      "midi": 46,
      "hit": false,
      "t": 41158.57500000001,
      "d": 91.46349999999802,
      "v": 80
    },
    {
      "midi": 58,
      "hit": false,
      "t": 41158.57500000001,
      "d": 91.46349999999802,
      "v": 80
    },
    {
      "midi": 65,
      "hit": false,
      "t": 41158.57500000001,
      "d": 91.46349999999802,
      "v": 80
    },
    {
      "midi": 62,
      "hit": false,
      "t": 41158.57500000001,
      "d": 91.46349999999802,
      "v": 80
    },
    {
      "midi": 53,
      "hit": false,
      "t": 41158.57500000001,
      "d": 91.46349999999802,
      "v": 80
    },
    {
      "midi": 46,
      "hit": false,
      "t": 41158.57500000003,
      "d": 182.92700000000332,
      "v": 80
    },
    {
      "midi": 33,
      "hit": false,
      "t": 41158.575000000055,
      "d": 182.92700000000332,
      "v": 100
    },
    {
      "midi": 46,
      "hit": false,
      "t": 41250.03850000001,
      "d": 91.46349999999802,
      "v": 80
    },
    {
      "midi": 53,
      "hit": false,
      "t": 41250.03850000001,
      "d": 91.46349999999802,
      "v": 80
    },
    {
      "midi": 62,
      "hit": false,
      "t": 41250.03850000001,
      "d": 91.46349999999802,
      "v": 80
    },
    {
      "midi": 58,
      "hit": false,
      "t": 41250.03850000001,
      "d": 91.46349999999802,
      "v": 80
    },
    {
      "midi": 65,
      "hit": false,
      "t": 41250.03850000001,
      "d": 91.46349999999802,
      "v": 80
    },
    {
      "midi": 46,
      "hit": false,
      "t": 41250.03850000001,
      "d": 91.46349999999802,
      "v": 80
    },
    {
      "midi": 53,
      "hit": false,
      "t": 41250.03850000001,
      "d": 91.46349999999802,
      "v": 80
    },
    {
      "midi": 62,
      "hit": false,
      "t": 41250.03850000001,
      "d": 91.46349999999802,
      "v": 80
    },
    {
      "midi": 58,
      "hit": false,
      "t": 41250.03850000001,
      "d": 91.46349999999802,
      "v": 80
    },
    {
      "midi": 65,
      "hit": false,
      "t": 41250.03850000001,
      "d": 91.46349999999802,
      "v": 80
    },
    {
      "midi": 65,
      "hit": false,
      "t": 41341.501999999964,
      "d": 365.85399999999936,
      "v": 100
    },
    {
      "midi": 46,
      "hit": false,
      "t": 41341.50200000001,
      "d": 365.85399999999936,
      "v": 100
    },
    {
      "midi": 62,
      "hit": false,
      "t": 41341.50200000001,
      "d": 365.85399999999936,
      "v": 100
    },
    {
      "midi": 53,
      "hit": false,
      "t": 41341.50200000001,
      "d": 365.85399999999936,
      "v": 100
    },
    {
      "midi": 58,
      "hit": false,
      "t": 41341.50200000001,
      "d": 365.85399999999936,
      "v": 100
    },
    {
      "midi": 65,
      "hit": false,
      "t": 41341.50200000001,
      "d": 365.85399999999936,
      "v": 100
    },
    {
      "midi": 46,
      "hit": false,
      "t": 41341.50200000001,
      "d": 365.85399999999936,
      "v": 100
    },
    {
      "midi": 62,
      "hit": false,
      "t": 41341.50200000001,
      "d": 365.85399999999936,
      "v": 100
    },
    {
      "midi": 53,
      "hit": false,
      "t": 41341.50200000001,
      "d": 365.85399999999936,
      "v": 100
    },
    {
      "midi": 58,
      "hit": false,
      "t": 41341.50200000001,
      "d": 365.85399999999936,
      "v": 100
    },
    {
      "midi": 65,
      "hit": false,
      "t": 41341.50200000001,
      "d": 365.85399999999936,
      "v": 100
    },
    {
      "midi": 46,
      "hit": false,
      "t": 41341.50200000004,
      "d": 182.92700000000332,
      "v": 80
    },
    {
      "midi": 36,
      "hit": false,
      "t": 41341.50200000004,
      "d": 365.85400000000664,
      "v": 100
    },
    {
      "midi": 34,
      "hit": false,
      "t": 41341.50200000006,
      "d": 182.92700000000332,
      "v": 100
    },
    {
      "midi": 46,
      "hit": false,
      "t": 41524.42900000004,
      "d": 182.92700000000332,
      "v": 80
    },
    {
      "midi": 34,
      "hit": false,
      "t": 41524.42900000006,
      "d": 182.92700000000332,
      "v": 100
    },
    {
      "midi": 62,
      "hit": false,
      "t": 41707.35599999996,
      "d": 137.19524999999703,
      "v": 100
    },
    {
      "midi": 62,
      "hit": false,
      "t": 41707.35600000001,
      "d": 182.92700000000332,
      "v": 100
    },
    {
      "midi": 58,
      "hit": false,
      "t": 41707.35600000001,
      "d": 182.92700000000332,
      "v": 100
    },
    {
      "midi": 65,
      "hit": false,
      "t": 41707.35600000001,
      "d": 182.92700000000332,
      "v": 100
    },
    {
      "midi": 46,
      "hit": false,
      "t": 41707.35600000001,
      "d": 182.92700000000332,
      "v": 100
    },
    {
      "midi": 53,
      "hit": false,
      "t": 41707.35600000001,
      "d": 182.92700000000332,
      "v": 100
    },
    {
      "midi": 62,
      "hit": false,
      "t": 41707.35600000001,
      "d": 182.92700000000332,
      "v": 100
    },
    {
      "midi": 58,
      "hit": false,
      "t": 41707.35600000001,
      "d": 182.92700000000332,
      "v": 100
    },
    {
      "midi": 65,
      "hit": false,
      "t": 41707.35600000001,
      "d": 182.92700000000332,
      "v": 100
    },
    {
      "midi": 46,
      "hit": false,
      "t": 41707.35600000001,
      "d": 182.92700000000332,
      "v": 100
    },
    {
      "midi": 53,
      "hit": false,
      "t": 41707.35600000001,
      "d": 182.92700000000332,
      "v": 100
    },
    {
      "midi": 46,
      "hit": false,
      "t": 41707.35600000004,
      "d": 182.92700000000332,
      "v": 80
    },
    {
      "midi": 40,
      "hit": false,
      "t": 41707.35600000004,
      "d": 365.85400000000664,
      "v": 100
    },
    {
      "midi": 34,
      "hit": false,
      "t": 41707.356000000065,
      "d": 182.92700000000332,
      "v": 100
    },
    {
      "midi": 62,
      "hit": false,
      "t": 41890.28299999996,
      "d": 1097.561999999998,
      "v": 100
    },
    {
      "midi": 58,
      "hit": false,
      "t": 41890.28300000001,
      "d": 548.7810000000027,
      "v": 100
    },
    {
      "midi": 65,
      "hit": false,
      "t": 41890.28300000001,
      "d": 548.7810000000027,
      "v": 100
    },
    {
      "midi": 62,
      "hit": false,
      "t": 41890.28300000001,
      "d": 548.7810000000027,
      "v": 100
    },
    {
      "midi": 53,
      "hit": false,
      "t": 41890.28300000001,
      "d": 548.7810000000027,
      "v": 100
    },
    {
      "midi": 46,
      "hit": false,
      "t": 41890.28300000001,
      "d": 548.7810000000027,
      "v": 100
    },
    {
      "midi": 58,
      "hit": false,
      "t": 41890.28300000001,
      "d": 548.7810000000027,
      "v": 100
    },
    {
      "midi": 65,
      "hit": false,
      "t": 41890.28300000001,
      "d": 548.7810000000027,
      "v": 100
    },
    {
      "midi": 62,
      "hit": false,
      "t": 41890.28300000001,
      "d": 548.7810000000027,
      "v": 100
    },
    {
      "midi": 53,
      "hit": false,
      "t": 41890.28300000001,
      "d": 548.7810000000027,
      "v": 100
    },
    {
      "midi": 46,
      "hit": false,
      "t": 41890.28300000001,
      "d": 548.7810000000027,
      "v": 100
    },
    {
      "midi": 46,
      "hit": false,
      "t": 41890.28300000005,
      "d": 182.92700000000332,
      "v": 80
    },
    {
      "midi": 34,
      "hit": false,
      "t": 41890.28300000007,
      "d": 182.92700000000332,
      "v": 100
    },
    {
      "midi": 36,
      "hit": false,
      "t": 42073.21000000005,
      "d": 182.92700000000332,
      "v": 100
    },
    {
      "midi": 46,
      "hit": false,
      "t": 42073.21000000005,
      "d": 182.92700000000332,
      "v": 80
    },
    {
      "midi": 34,
      "hit": false,
      "t": 42073.21000000007,
      "d": 182.92700000000332,
      "v": 100
    },
    {
      "midi": 36,
      "hit": false,
      "t": 42256.13700000005,
      "d": 182.92700000000332,
      "v": 100
    },
    {
      "midi": 46,
      "hit": false,
      "t": 42256.13700000005,
      "d": 182.92700000000332,
      "v": 80
    },
    {
      "midi": 34,
      "hit": false,
      "t": 42256.137000000075,
      "d": 182.92700000000332,
      "v": 100
    },
    {
      "midi": 46,
      "hit": false,
      "t": 42439.06400000001,
      "d": 365.85399999999936,
      "v": 100
    },
    {
      "midi": 62,
      "hit": false,
      "t": 42439.06400000001,
      "d": 365.85399999999936,
      "v": 100
    },
    {
      "midi": 53,
      "hit": false,
      "t": 42439.06400000001,
      "d": 365.85399999999936,
      "v": 100
    },
    {
      "midi": 58,
      "hit": false,
      "t": 42439.06400000001,
      "d": 365.85399999999936,
      "v": 100
    },
    {
      "midi": 65,
      "hit": false,
      "t": 42439.06400000001,
      "d": 365.85399999999936,
      "v": 100
    },
    {
      "midi": 46,
      "hit": false,
      "t": 42439.06400000001,
      "d": 365.85399999999936,
      "v": 100
    },
    {
      "midi": 62,
      "hit": false,
      "t": 42439.06400000001,
      "d": 365.85399999999936,
      "v": 100
    },
    {
      "midi": 53,
      "hit": false,
      "t": 42439.06400000001,
      "d": 365.85399999999936,
      "v": 100
    },
    {
      "midi": 58,
      "hit": false,
      "t": 42439.06400000001,
      "d": 365.85399999999936,
      "v": 100
    },
    {
      "midi": 65,
      "hit": false,
      "t": 42439.06400000001,
      "d": 365.85399999999936,
      "v": 100
    },
    {
      "midi": 46,
      "hit": false,
      "t": 42439.06400000006,
      "d": 182.92700000000332,
      "v": 80
    },
    {
      "midi": 40,
      "hit": false,
      "t": 42439.06400000006,
      "d": 365.85400000000664,
      "v": 100
    },
    {
      "midi": 34,
      "hit": false,
      "t": 42439.06400000008,
      "d": 182.92700000000332,
      "v": 100
    },
    {
      "midi": 46,
      "hit": false,
      "t": 42621.99100000006,
      "d": 182.92700000000332,
      "v": 80
    },
    {
      "midi": 34,
      "hit": false,
      "t": 42621.99100000008,
      "d": 182.92700000000332,
      "v": 100
    },
    {
      "midi": 46,
      "hit": false,
      "t": 42804.91800000001,
      "d": 365.85399999999936,
      "v": 100
    },
    {
      "midi": 62,
      "hit": false,
      "t": 42804.91800000001,
      "d": 365.85399999999936,
      "v": 100
    },
    {
      "midi": 53,
      "hit": false,
      "t": 42804.91800000001,
      "d": 365.85399999999936,
      "v": 100
    },
    {
      "midi": 58,
      "hit": false,
      "t": 42804.91800000001,
      "d": 365.85399999999936,
      "v": 100
    },
    {
      "midi": 65,
      "hit": false,
      "t": 42804.91800000001,
      "d": 365.85399999999936,
      "v": 100
    },
    {
      "midi": 46,
      "hit": false,
      "t": 42804.91800000001,
      "d": 365.85399999999936,
      "v": 100
    },
    {
      "midi": 62,
      "hit": false,
      "t": 42804.91800000001,
      "d": 365.85399999999936,
      "v": 100
    },
    {
      "midi": 53,
      "hit": false,
      "t": 42804.91800000001,
      "d": 365.85399999999936,
      "v": 100
    },
    {
      "midi": 58,
      "hit": false,
      "t": 42804.91800000001,
      "d": 365.85399999999936,
      "v": 100
    },
    {
      "midi": 65,
      "hit": false,
      "t": 42804.91800000001,
      "d": 365.85399999999936,
      "v": 100
    },
    {
      "midi": 46,
      "hit": false,
      "t": 42804.91800000006,
      "d": 182.92700000000332,
      "v": 80
    },
    {
      "midi": 36,
      "hit": false,
      "t": 42804.91800000006,
      "d": 365.85400000000664,
      "v": 100
    },
    {
      "midi": 34,
      "hit": false,
      "t": 42804.918000000085,
      "d": 182.92700000000332,
      "v": 100
    },
    {
      "midi": 46,
      "hit": false,
      "t": 42987.84500000007,
      "d": 182.92700000000332,
      "v": 80
    },
    {
      "midi": 34,
      "hit": false,
      "t": 42987.84500000009,
      "d": 182.92700000000332,
      "v": 100
    },
    {
      "midi": 62,
      "hit": false,
      "t": 43170.77199999996,
      "d": 365.85399999999936,
      "v": 100
    },
    {
      "midi": 62,
      "hit": false,
      "t": 43170.77200000001,
      "d": 182.92700000000332,
      "v": 100
    },
    {
      "midi": 58,
      "hit": false,
      "t": 43170.77200000001,
      "d": 182.92700000000332,
      "v": 100
    },
    {
      "midi": 65,
      "hit": false,
      "t": 43170.77200000001,
      "d": 182.92700000000332,
      "v": 100
    },
    {
      "midi": 46,
      "hit": false,
      "t": 43170.77200000001,
      "d": 182.92700000000332,
      "v": 100
    },
    {
      "midi": 53,
      "hit": false,
      "t": 43170.77200000001,
      "d": 182.92700000000332,
      "v": 100
    },
    {
      "midi": 62,
      "hit": false,
      "t": 43170.77200000001,
      "d": 182.92700000000332,
      "v": 100
    },
    {
      "midi": 58,
      "hit": false,
      "t": 43170.77200000001,
      "d": 182.92700000000332,
      "v": 100
    },
    {
      "midi": 65,
      "hit": false,
      "t": 43170.77200000001,
      "d": 182.92700000000332,
      "v": 100
    },
    {
      "midi": 46,
      "hit": false,
      "t": 43170.77200000001,
      "d": 182.92700000000332,
      "v": 100
    },
    {
      "midi": 53,
      "hit": false,
      "t": 43170.77200000001,
      "d": 182.92700000000332,
      "v": 100
    },
    {
      "midi": 46,
      "hit": false,
      "t": 43170.77200000007,
      "d": 182.92700000000332,
      "v": 80
    },
    {
      "midi": 40,
      "hit": false,
      "t": 43170.77200000007,
      "d": 365.85400000000664,
      "v": 100
    },
    {
      "midi": 34,
      "hit": false,
      "t": 43170.77200000009,
      "d": 182.92700000000332,
      "v": 100
    },
    {
      "midi": 58,
      "hit": false,
      "t": 43353.699000000015,
      "d": 548.7810000000027,
      "v": 100
    },
    {
      "midi": 65,
      "hit": false,
      "t": 43353.699000000015,
      "d": 548.7810000000027,
      "v": 100
    },
    {
      "midi": 62,
      "hit": false,
      "t": 43353.699000000015,
      "d": 548.7810000000027,
      "v": 100
    },
    {
      "midi": 53,
      "hit": false,
      "t": 43353.699000000015,
      "d": 548.7810000000027,
      "v": 100
    },
    {
      "midi": 46,
      "hit": false,
      "t": 43353.699000000015,
      "d": 548.7810000000027,
      "v": 100
    },
    {
      "midi": 58,
      "hit": false,
      "t": 43353.699000000015,
      "d": 548.7810000000027,
      "v": 100
    },
    {
      "midi": 65,
      "hit": false,
      "t": 43353.699000000015,
      "d": 548.7810000000027,
      "v": 100
    },
    {
      "midi": 62,
      "hit": false,
      "t": 43353.699000000015,
      "d": 548.7810000000027,
      "v": 100
    },
    {
      "midi": 53,
      "hit": false,
      "t": 43353.699000000015,
      "d": 548.7810000000027,
      "v": 100
    },
    {
      "midi": 46,
      "hit": false,
      "t": 43353.699000000015,
      "d": 548.7810000000027,
      "v": 100
    },
    {
      "midi": 46,
      "hit": false,
      "t": 43353.69900000007,
      "d": 182.92700000000332,
      "v": 80
    },
    {
      "midi": 34,
      "hit": false,
      "t": 43353.699000000095,
      "d": 182.92700000000332,
      "v": 100
    },
    {
      "midi": 64,
      "hit": false,
      "t": 43536.62599999996,
      "d": 365.85399999999936,
      "v": 100
    },
    {
      "midi": 36,
      "hit": false,
      "t": 43536.62600000008,
      "d": 182.92700000000332,
      "v": 100
    },
    {
      "midi": 46,
      "hit": false,
      "t": 43536.62600000008,
      "d": 182.92700000000332,
      "v": 80
    },
    {
      "midi": 34,
      "hit": false,
      "t": 43536.6260000001,
      "d": 182.92700000000332,
      "v": 100
    },
    {
      "midi": 36,
      "hit": false,
      "t": 43719.55300000008,
      "d": 182.92700000000332,
      "v": 100
    },
    {
      "midi": 46,
      "hit": false,
      "t": 43719.55300000008,
      "d": 182.92700000000332,
      "v": 80
    },
    {
      "midi": 34,
      "hit": false,
      "t": 43719.5530000001,
      "d": 182.92700000000332,
      "v": 100
    },
    {
      "midi": 65,
      "hit": false,
      "t": 43902.47999999996,
      "d": 365.85399999999936,
      "v": 100
    },
    {
      "midi": 62,
      "hit": false,
      "t": 43902.48000000002,
      "d": 182.92700000000332,
      "v": 100
    },
    {
      "midi": 58,
      "hit": false,
      "t": 43902.48000000002,
      "d": 182.92700000000332,
      "v": 100
    },
    {
      "midi": 65,
      "hit": false,
      "t": 43902.48000000002,
      "d": 182.92700000000332,
      "v": 100
    },
    {
      "midi": 46,
      "hit": false,
      "t": 43902.48000000002,
      "d": 182.92700000000332,
      "v": 100
    },
    {
      "midi": 53,
      "hit": false,
      "t": 43902.48000000002,
      "d": 182.92700000000332,
      "v": 100
    },
    {
      "midi": 62,
      "hit": false,
      "t": 43902.48000000002,
      "d": 182.92700000000332,
      "v": 100
    },
    {
      "midi": 58,
      "hit": false,
      "t": 43902.48000000002,
      "d": 182.92700000000332,
      "v": 100
    },
    {
      "midi": 65,
      "hit": false,
      "t": 43902.48000000002,
      "d": 182.92700000000332,
      "v": 100
    },
    {
      "midi": 46,
      "hit": false,
      "t": 43902.48000000002,
      "d": 182.92700000000332,
      "v": 100
    },
    {
      "midi": 53,
      "hit": false,
      "t": 43902.48000000002,
      "d": 182.92700000000332,
      "v": 100
    },
    {
      "midi": 46,
      "hit": false,
      "t": 43902.48000000008,
      "d": 182.92700000000332,
      "v": 80
    },
    {
      "midi": 40,
      "hit": false,
      "t": 43902.48000000008,
      "d": 365.85400000000664,
      "v": 100
    },
    {
      "midi": 34,
      "hit": false,
      "t": 43902.480000000105,
      "d": 182.92700000000332,
      "v": 100
    },
    {
      "midi": 48,
      "hit": false,
      "t": 44085.40700000002,
      "d": 91.46349999999802,
      "v": 80
    },
    {
      "midi": 60,
      "hit": false,
      "t": 44085.40700000002,
      "d": 91.46349999999802,
      "v": 80
    },
    {
      "midi": 67,
      "hit": false,
      "t": 44085.40700000002,
      "d": 91.46349999999802,
      "v": 80
    },
    {
      "midi": 64,
      "hit": false,
      "t": 44085.40700000002,
      "d": 91.46349999999802,
      "v": 80
    },
    {
      "midi": 55,
      "hit": false,
      "t": 44085.40700000002,
      "d": 91.46349999999802,
      "v": 80
    },
    {
      "midi": 48,
      "hit": false,
      "t": 44085.40700000002,
      "d": 91.46349999999802,
      "v": 80
    },
    {
      "midi": 60,
      "hit": false,
      "t": 44085.40700000002,
      "d": 91.46349999999802,
      "v": 80
    },
    {
      "midi": 67,
      "hit": false,
      "t": 44085.40700000002,
      "d": 91.46349999999802,
      "v": 80
    },
    {
      "midi": 64,
      "hit": false,
      "t": 44085.40700000002,
      "d": 91.46349999999802,
      "v": 80
    },
    {
      "midi": 55,
      "hit": false,
      "t": 44085.40700000002,
      "d": 91.46349999999802,
      "v": 80
    },
    {
      "midi": 46,
      "hit": false,
      "t": 44085.40700000009,
      "d": 182.92700000000332,
      "v": 80
    },
    {
      "midi": 34,
      "hit": false,
      "t": 44085.40700000011,
      "d": 182.92700000000332,
      "v": 100
    },
    {
      "midi": 48,
      "hit": false,
      "t": 44176.87050000002,
      "d": 91.46349999999802,
      "v": 80
    },
    {
      "midi": 55,
      "hit": false,
      "t": 44176.87050000002,
      "d": 91.46349999999802,
      "v": 80
    },
    {
      "midi": 64,
      "hit": false,
      "t": 44176.87050000002,
      "d": 91.46349999999802,
      "v": 80
    },
    {
      "midi": 60,
      "hit": false,
      "t": 44176.87050000002,
      "d": 91.46349999999802,
      "v": 80
    },
    {
      "midi": 67,
      "hit": false,
      "t": 44176.87050000002,
      "d": 91.46349999999802,
      "v": 80
    },
    {
      "midi": 48,
      "hit": false,
      "t": 44176.87050000002,
      "d": 91.46349999999802,
      "v": 80
    },
    {
      "midi": 55,
      "hit": false,
      "t": 44176.87050000002,
      "d": 91.46349999999802,
      "v": 80
    },
    {
      "midi": 64,
      "hit": false,
      "t": 44176.87050000002,
      "d": 91.46349999999802,
      "v": 80
    },
    {
      "midi": 60,
      "hit": false,
      "t": 44176.87050000002,
      "d": 91.46349999999802,
      "v": 80
    },
    {
      "midi": 67,
      "hit": false,
      "t": 44176.87050000002,
      "d": 91.46349999999802,
      "v": 80
    },
    {
      "midi": 64,
      "hit": false,
      "t": 44268.33399999996,
      "d": 1463.4159999999974,
      "v": 100
    },
    {
      "midi": 60,
      "hit": false,
      "t": 44268.33399999996,
      "d": 5121.955999999991,
      "v": 100
    },
    {
      "midi": 48,
      "hit": false,
      "t": 44268.33400000002,
      "d": 365.85399999999936,
      "v": 100
    },
    {
      "midi": 64,
      "hit": false,
      "t": 44268.33400000002,
      "d": 365.85399999999936,
      "v": 100
    },
    {
      "midi": 55,
      "hit": false,
      "t": 44268.33400000002,
      "d": 365.85399999999936,
      "v": 100
    },
    {
      "midi": 60,
      "hit": false,
      "t": 44268.33400000002,
      "d": 365.85399999999936,
      "v": 100
    },
    {
      "midi": 67,
      "hit": false,
      "t": 44268.33400000002,
      "d": 365.85399999999936,
      "v": 100
    },
    {
      "midi": 48,
      "hit": false,
      "t": 44268.33400000002,
      "d": 365.85399999999936,
      "v": 100
    },
    {
      "midi": 64,
      "hit": false,
      "t": 44268.33400000002,
      "d": 365.85399999999936,
      "v": 100
    },
    {
      "midi": 55,
      "hit": false,
      "t": 44268.33400000002,
      "d": 365.85399999999936,
      "v": 100
    },
    {
      "midi": 60,
      "hit": false,
      "t": 44268.33400000002,
      "d": 365.85399999999936,
      "v": 100
    },
    {
      "midi": 67,
      "hit": false,
      "t": 44268.33400000002,
      "d": 365.85399999999936,
      "v": 100
    },
    {
      "midi": 46,
      "hit": false,
      "t": 44268.33400000009,
      "d": 182.92700000000332,
      "v": 80
    },
    {
      "midi": 36,
      "hit": false,
      "t": 44268.33400000009,
      "d": 365.85400000000664,
      "v": 100
    },
    {
      "midi": 49,
      "hit": false,
      "t": 44268.33400000009,
      "d": 731.7080000000133,
      "v": 100
    },
    {
      "midi": 36,
      "hit": false,
      "t": 44268.33400000011,
      "d": 182.92700000000332,
      "v": 100
    },
    {
      "midi": 46,
      "hit": false,
      "t": 44451.26100000009,
      "d": 182.92700000000332,
      "v": 80
    },
    {
      "midi": 36,
      "hit": false,
      "t": 44451.261000000115,
      "d": 182.92700000000332,
      "v": 100
    },
    {
      "midi": 64,
      "hit": false,
      "t": 44634.18800000002,
      "d": 182.92700000000332,
      "v": 100
    },
    {
      "midi": 60,
      "hit": false,
      "t": 44634.18800000002,
      "d": 182.92700000000332,
      "v": 100
    },
    {
      "midi": 67,
      "hit": false,
      "t": 44634.18800000002,
      "d": 182.92700000000332,
      "v": 100
    },
    {
      "midi": 48,
      "hit": false,
      "t": 44634.18800000002,
      "d": 182.92700000000332,
      "v": 100
    },
    {
      "midi": 55,
      "hit": false,
      "t": 44634.18800000002,
      "d": 182.92700000000332,
      "v": 100
    },
    {
      "midi": 64,
      "hit": false,
      "t": 44634.18800000002,
      "d": 182.92700000000332,
      "v": 100
    },
    {
      "midi": 60,
      "hit": false,
      "t": 44634.18800000002,
      "d": 182.92700000000332,
      "v": 100
    },
    {
      "midi": 67,
      "hit": false,
      "t": 44634.18800000002,
      "d": 182.92700000000332,
      "v": 100
    },
    {
      "midi": 48,
      "hit": false,
      "t": 44634.18800000002,
      "d": 182.92700000000332,
      "v": 100
    },
    {
      "midi": 55,
      "hit": false,
      "t": 44634.18800000002,
      "d": 182.92700000000332,
      "v": 100
    },
    {
      "midi": 46,
      "hit": false,
      "t": 44634.1880000001,
      "d": 182.92700000000332,
      "v": 80
    },
    {
      "midi": 40,
      "hit": false,
      "t": 44634.1880000001,
      "d": 365.85400000000664,
      "v": 100
    },
    {
      "midi": 36,
      "hit": false,
      "t": 44634.18800000012,
      "d": 182.92700000000332,
      "v": 100
    },
    {
      "midi": 60,
      "hit": false,
      "t": 44817.11500000002,
      "d": 548.7810000000027,
      "v": 100
    },
    {
      "midi": 67,
      "hit": false,
      "t": 44817.11500000002,
      "d": 548.7810000000027,
      "v": 100
    },
    {
      "midi": 64,
      "hit": false,
      "t": 44817.11500000002,
      "d": 548.7810000000027,
      "v": 100
    },
    {
      "midi": 55,
      "hit": false,
      "t": 44817.11500000002,
      "d": 548.7810000000027,
      "v": 100
    },
    {
      "midi": 48,
      "hit": false,
      "t": 44817.11500000002,
      "d": 548.7810000000027,
      "v": 100
    },
    {
      "midi": 60,
      "hit": false,
      "t": 44817.11500000002,
      "d": 548.7810000000027,
      "v": 100
    },
    {
      "midi": 67,
      "hit": false,
      "t": 44817.11500000002,
      "d": 548.7810000000027,
      "v": 100
    },
    {
      "midi": 64,
      "hit": false,
      "t": 44817.11500000002,
      "d": 548.7810000000027,
      "v": 100
    },
    {
      "midi": 55,
      "hit": false,
      "t": 44817.11500000002,
      "d": 548.7810000000027,
      "v": 100
    },
    {
      "midi": 48,
      "hit": false,
      "t": 44817.11500000002,
      "d": 548.7810000000027,
      "v": 100
    },
    {
      "midi": 46,
      "hit": false,
      "t": 44817.1150000001,
      "d": 182.92700000000332,
      "v": 80
    },
    {
      "midi": 36,
      "hit": false,
      "t": 44817.11500000012,
      "d": 182.92700000000332,
      "v": 100
    },
    {
      "midi": 46,
      "hit": false,
      "t": 45000.0420000001,
      "d": 182.92700000000332,
      "v": 80
    },
    {
      "midi": 36,
      "hit": false,
      "t": 45000.0420000001,
      "d": 182.92700000000332,
      "v": 100
    },
    {
      "midi": 36,
      "hit": false,
      "t": 45000.042000000125,
      "d": 182.92700000000332,
      "v": 100
    },
    {
      "midi": 46,
      "hit": false,
      "t": 45182.96900000011,
      "d": 182.92700000000332,
      "v": 80
    },
    {
      "midi": 36,
      "hit": false,
      "t": 45182.96900000011,
      "d": 182.92700000000332,
      "v": 100
    },
    {
      "midi": 36,
      "hit": false,
      "t": 45182.96900000013,
      "d": 182.92700000000332,
      "v": 100
    },
    {
      "midi": 64,
      "hit": false,
      "t": 45365.89600000002,
      "d": 182.92700000000332,
      "v": 100
    },
    {
      "midi": 60,
      "hit": false,
      "t": 45365.89600000002,
      "d": 182.92700000000332,
      "v": 100
    },
    {
      "midi": 67,
      "hit": false,
      "t": 45365.89600000002,
      "d": 182.92700000000332,
      "v": 100
    },
    {
      "midi": 48,
      "hit": false,
      "t": 45365.89600000002,
      "d": 182.92700000000332,
      "v": 100
    },
    {
      "midi": 55,
      "hit": false,
      "t": 45365.89600000002,
      "d": 182.92700000000332,
      "v": 100
    },
    {
      "midi": 64,
      "hit": false,
      "t": 45365.89600000002,
      "d": 182.92700000000332,
      "v": 100
    },
    {
      "midi": 60,
      "hit": false,
      "t": 45365.89600000002,
      "d": 182.92700000000332,
      "v": 100
    },
    {
      "midi": 67,
      "hit": false,
      "t": 45365.89600000002,
      "d": 182.92700000000332,
      "v": 100
    },
    {
      "midi": 48,
      "hit": false,
      "t": 45365.89600000002,
      "d": 182.92700000000332,
      "v": 100
    },
    {
      "midi": 55,
      "hit": false,
      "t": 45365.89600000002,
      "d": 182.92700000000332,
      "v": 100
    },
    {
      "midi": 46,
      "hit": false,
      "t": 45365.89600000011,
      "d": 182.92700000000332,
      "v": 80
    },
    {
      "midi": 40,
      "hit": false,
      "t": 45365.89600000011,
      "d": 365.85400000000664,
      "v": 100
    },
    {
      "midi": 36,
      "hit": false,
      "t": 45365.89600000013,
      "d": 182.92700000000332,
      "v": 100
    },
    {
      "midi": 46,
      "hit": false,
      "t": 45548.823000000026,
      "d": 91.46349999999802,
      "v": 80
    },
    {
      "midi": 58,
      "hit": false,
      "t": 45548.823000000026,
      "d": 91.46349999999802,
      "v": 80
    },
    {
      "midi": 65,
      "hit": false,
      "t": 45548.823000000026,
      "d": 91.46349999999802,
      "v": 80
    },
    {
      "midi": 62,
      "hit": false,
      "t": 45548.823000000026,
      "d": 91.46349999999802,
      "v": 80
    },
    {
      "midi": 53,
      "hit": false,
      "t": 45548.823000000026,
      "d": 91.46349999999802,
      "v": 80
    },
    {
      "midi": 46,
      "hit": false,
      "t": 45548.823000000026,
      "d": 91.46349999999802,
      "v": 80
    },
    {
      "midi": 58,
      "hit": false,
      "t": 45548.823000000026,
      "d": 91.46349999999802,
      "v": 80
    },
    {
      "midi": 65,
      "hit": false,
      "t": 45548.823000000026,
      "d": 91.46349999999802,
      "v": 80
    },
    {
      "midi": 62,
      "hit": false,
      "t": 45548.823000000026,
      "d": 91.46349999999802,
      "v": 80
    },
    {
      "midi": 53,
      "hit": false,
      "t": 45548.823000000026,
      "d": 91.46349999999802,
      "v": 80
    },
    {
      "midi": 46,
      "hit": false,
      "t": 45548.82300000011,
      "d": 182.92700000000332,
      "v": 80
    },
    {
      "midi": 36,
      "hit": false,
      "t": 45548.823000000135,
      "d": 182.92700000000332,
      "v": 100
    },
    {
      "midi": 46,
      "hit": false,
      "t": 45640.286500000024,
      "d": 91.46349999999802,
      "v": 80
    },
    {
      "midi": 53,
      "hit": false,
      "t": 45640.286500000024,
      "d": 91.46349999999802,
      "v": 80
    },
    {
      "midi": 62,
      "hit": false,
      "t": 45640.286500000024,
      "d": 91.46349999999802,
      "v": 80
    },
    {
      "midi": 58,
      "hit": false,
      "t": 45640.286500000024,
      "d": 91.46349999999802,
      "v": 80
    },
    {
      "midi": 65,
      "hit": false,
      "t": 45640.286500000024,
      "d": 91.46349999999802,
      "v": 80
    },
    {
      "midi": 46,
      "hit": false,
      "t": 45640.286500000024,
      "d": 91.46349999999802,
      "v": 80
    },
    {
      "midi": 53,
      "hit": false,
      "t": 45640.286500000024,
      "d": 91.46349999999802,
      "v": 80
    },
    {
      "midi": 62,
      "hit": false,
      "t": 45640.286500000024,
      "d": 91.46349999999802,
      "v": 80
    },
    {
      "midi": 58,
      "hit": false,
      "t": 45640.286500000024,
      "d": 91.46349999999802,
      "v": 80
    },
    {
      "midi": 65,
      "hit": false,
      "t": 45640.286500000024,
      "d": 91.46349999999802,
      "v": 80
    },
    {
      "midi": 65,
      "hit": false,
      "t": 45731.749999999956,
      "d": 1463.4159999999974,
      "v": 100
    },
    {
      "midi": 46,
      "hit": false,
      "t": 45731.75000000002,
      "d": 365.85399999999936,
      "v": 100
    },
    {
      "midi": 62,
      "hit": false,
      "t": 45731.75000000002,
      "d": 365.85399999999936,
      "v": 100
    },
    {
      "midi": 53,
      "hit": false,
      "t": 45731.75000000002,
      "d": 365.85399999999936,
      "v": 100
    },
    {
      "midi": 58,
      "hit": false,
      "t": 45731.75000000002,
      "d": 365.85399999999936,
      "v": 100
    },
    {
      "midi": 65,
      "hit": false,
      "t": 45731.75000000002,
      "d": 365.85399999999936,
      "v": 100
    },
    {
      "midi": 46,
      "hit": false,
      "t": 45731.75000000002,
      "d": 365.85399999999936,
      "v": 100
    },
    {
      "midi": 62,
      "hit": false,
      "t": 45731.75000000002,
      "d": 365.85399999999936,
      "v": 100
    },
    {
      "midi": 53,
      "hit": false,
      "t": 45731.75000000002,
      "d": 365.85399999999936,
      "v": 100
    },
    {
      "midi": 58,
      "hit": false,
      "t": 45731.75000000002,
      "d": 365.85399999999936,
      "v": 100
    },
    {
      "midi": 65,
      "hit": false,
      "t": 45731.75000000002,
      "d": 365.85399999999936,
      "v": 100
    },
    {
      "midi": 46,
      "hit": false,
      "t": 45731.75000000012,
      "d": 182.92700000000332,
      "v": 80
    },
    {
      "midi": 36,
      "hit": false,
      "t": 45731.75000000012,
      "d": 365.85400000000664,
      "v": 100
    },
    {
      "midi": 49,
      "hit": false,
      "t": 45731.75000000012,
      "d": 731.7080000000133,
      "v": 100
    },
    {
      "midi": 34,
      "hit": false,
      "t": 45731.75000000014,
      "d": 182.92700000000332,
      "v": 100
    },
    {
      "midi": 46,
      "hit": false,
      "t": 45914.67700000012,
      "d": 182.92700000000332,
      "v": 80
    },
    {
      "midi": 34,
      "hit": false,
      "t": 45914.67700000014,
      "d": 182.92700000000332,
      "v": 100
    },
    {
      "midi": 62,
      "hit": false,
      "t": 46097.60400000002,
      "d": 182.92700000000332,
      "v": 100
    },
    {
      "midi": 58,
      "hit": false,
      "t": 46097.60400000002,
      "d": 182.92700000000332,
      "v": 100
    },
    {
      "midi": 65,
      "hit": false,
      "t": 46097.60400000002,
      "d": 182.92700000000332,
      "v": 100
    },
    {
      "midi": 46,
      "hit": false,
      "t": 46097.60400000002,
      "d": 182.92700000000332,
      "v": 100
    },
    {
      "midi": 53,
      "hit": false,
      "t": 46097.60400000002,
      "d": 182.92700000000332,
      "v": 100
    },
    {
      "midi": 62,
      "hit": false,
      "t": 46097.60400000002,
      "d": 182.92700000000332,
      "v": 100
    },
    {
      "midi": 58,
      "hit": false,
      "t": 46097.60400000002,
      "d": 182.92700000000332,
      "v": 100
    },
    {
      "midi": 65,
      "hit": false,
      "t": 46097.60400000002,
      "d": 182.92700000000332,
      "v": 100
    },
    {
      "midi": 46,
      "hit": false,
      "t": 46097.60400000002,
      "d": 182.92700000000332,
      "v": 100
    },
    {
      "midi": 53,
      "hit": false,
      "t": 46097.60400000002,
      "d": 182.92700000000332,
      "v": 100
    },
    {
      "midi": 46,
      "hit": false,
      "t": 46097.60400000012,
      "d": 182.92700000000332,
      "v": 80
    },
    {
      "midi": 40,
      "hit": false,
      "t": 46097.60400000012,
      "d": 365.85400000000664,
      "v": 100
    },
    {
      "midi": 34,
      "hit": false,
      "t": 46097.604000000145,
      "d": 182.92700000000332,
      "v": 100
    },
    {
      "midi": 58,
      "hit": false,
      "t": 46280.531000000025,
      "d": 548.7810000000027,
      "v": 100
    },
    {
      "midi": 65,
      "hit": false,
      "t": 46280.531000000025,
      "d": 548.7810000000027,
      "v": 100
    },
    {
      "midi": 62,
      "hit": false,
      "t": 46280.531000000025,
      "d": 548.7810000000027,
      "v": 100
    },
    {
      "midi": 53,
      "hit": false,
      "t": 46280.531000000025,
      "d": 548.7810000000027,
      "v": 100
    },
    {
      "midi": 46,
      "hit": false,
      "t": 46280.531000000025,
      "d": 548.7810000000027,
      "v": 100
    },
    {
      "midi": 58,
      "hit": false,
      "t": 46280.531000000025,
      "d": 548.7810000000027,
      "v": 100
    },
    {
      "midi": 65,
      "hit": false,
      "t": 46280.531000000025,
      "d": 548.7810000000027,
      "v": 100
    },
    {
      "midi": 62,
      "hit": false,
      "t": 46280.531000000025,
      "d": 548.7810000000027,
      "v": 100
    },
    {
      "midi": 53,
      "hit": false,
      "t": 46280.531000000025,
      "d": 548.7810000000027,
      "v": 100
    },
    {
      "midi": 46,
      "hit": false,
      "t": 46280.531000000025,
      "d": 548.7810000000027,
      "v": 100
    },
    {
      "midi": 46,
      "hit": false,
      "t": 46280.53100000013,
      "d": 182.92700000000332,
      "v": 80
    },
    {
      "midi": 34,
      "hit": false,
      "t": 46280.53100000015,
      "d": 182.92700000000332,
      "v": 100
    },
    {
      "midi": 36,
      "hit": false,
      "t": 46463.45800000013,
      "d": 182.92700000000332,
      "v": 100
    },
    {
      "midi": 46,
      "hit": false,
      "t": 46463.45800000013,
      "d": 182.92700000000332,
      "v": 80
    },
    {
      "midi": 34,
      "hit": false,
      "t": 46463.45800000015,
      "d": 182.92700000000332,
      "v": 100
    },
    {
      "midi": 36,
      "hit": false,
      "t": 46646.38500000013,
      "d": 182.92700000000332,
      "v": 100
    },
    {
      "midi": 46,
      "hit": false,
      "t": 46646.38500000013,
      "d": 182.92700000000332,
      "v": 80
    },
    {
      "midi": 34,
      "hit": false,
      "t": 46646.385000000155,
      "d": 182.92700000000332,
      "v": 100
    },
    {
      "midi": 62,
      "hit": false,
      "t": 46829.31200000003,
      "d": 182.92700000000332,
      "v": 100
    },
    {
      "midi": 58,
      "hit": false,
      "t": 46829.31200000003,
      "d": 182.92700000000332,
      "v": 100
    },
    {
      "midi": 65,
      "hit": false,
      "t": 46829.31200000003,
      "d": 182.92700000000332,
      "v": 100
    },
    {
      "midi": 46,
      "hit": false,
      "t": 46829.31200000003,
      "d": 182.92700000000332,
      "v": 100
    },
    {
      "midi": 53,
      "hit": false,
      "t": 46829.31200000003,
      "d": 182.92700000000332,
      "v": 100
    },
    {
      "midi": 62,
      "hit": false,
      "t": 46829.31200000003,
      "d": 182.92700000000332,
      "v": 100
    },
    {
      "midi": 58,
      "hit": false,
      "t": 46829.31200000003,
      "d": 182.92700000000332,
      "v": 100
    },
    {
      "midi": 65,
      "hit": false,
      "t": 46829.31200000003,
      "d": 182.92700000000332,
      "v": 100
    },
    {
      "midi": 46,
      "hit": false,
      "t": 46829.31200000003,
      "d": 182.92700000000332,
      "v": 100
    },
    {
      "midi": 53,
      "hit": false,
      "t": 46829.31200000003,
      "d": 182.92700000000332,
      "v": 100
    },
    {
      "midi": 46,
      "hit": false,
      "t": 46829.312000000136,
      "d": 182.92700000000332,
      "v": 80
    },
    {
      "midi": 40,
      "hit": false,
      "t": 46829.312000000136,
      "d": 365.85400000000664,
      "v": 100
    },
    {
      "midi": 34,
      "hit": false,
      "t": 46829.31200000016,
      "d": 182.92700000000332,
      "v": 100
    },
    {
      "midi": 60,
      "hit": false,
      "t": 47012.23900000003,
      "d": 91.46349999999802,
      "v": 80
    },
    {
      "midi": 52,
      "hit": false,
      "t": 47012.23900000003,
      "d": 91.46349999999802,
      "v": 80
    },
    {
      "midi": 64,
      "hit": false,
      "t": 47012.23900000003,
      "d": 91.46349999999802,
      "v": 80
    },
    {
      "midi": 57,
      "hit": false,
      "t": 47012.23900000003,
      "d": 91.46349999999802,
      "v": 80
    },
    {
      "midi": 45,
      "hit": false,
      "t": 47012.23900000003,
      "d": 91.46349999999802,
      "v": 80
    },
    {
      "midi": 60,
      "hit": false,
      "t": 47012.23900000003,
      "d": 91.46349999999802,
      "v": 80
    },
    {
      "midi": 52,
      "hit": false,
      "t": 47012.23900000003,
      "d": 91.46349999999802,
      "v": 80
    },
    {
      "midi": 64,
      "hit": false,
      "t": 47012.23900000003,
      "d": 91.46349999999802,
      "v": 80
    },
    {
      "midi": 57,
      "hit": false,
      "t": 47012.23900000003,
      "d": 91.46349999999802,
      "v": 80
    },
    {
      "midi": 45,
      "hit": false,
      "t": 47012.23900000003,
      "d": 91.46349999999802,
      "v": 80
    },
    {
      "midi": 46,
      "hit": false,
      "t": 47012.23900000014,
      "d": 182.92700000000332,
      "v": 80
    },
    {
      "midi": 34,
      "hit": false,
      "t": 47012.23900000016,
      "d": 182.92700000000332,
      "v": 100
    },
    {
      "midi": 60,
      "hit": false,
      "t": 47103.70250000003,
      "d": 91.46349999999802,
      "v": 80
    },
    {
      "midi": 45,
      "hit": false,
      "t": 47103.70250000003,
      "d": 91.46349999999802,
      "v": 80
    },
    {
      "midi": 57,
      "hit": false,
      "t": 47103.70250000003,
      "d": 91.46349999999802,
      "v": 80
    },
    {
      "midi": 52,
      "hit": false,
      "t": 47103.70250000003,
      "d": 91.46349999999802,
      "v": 80
    },
    {
      "midi": 64,
      "hit": false,
      "t": 47103.70250000003,
      "d": 91.46349999999802,
      "v": 80
    },
    {
      "midi": 60,
      "hit": false,
      "t": 47103.70250000003,
      "d": 91.46349999999802,
      "v": 80
    },
    {
      "midi": 45,
      "hit": false,
      "t": 47103.70250000003,
      "d": 91.46349999999802,
      "v": 80
    },
    {
      "midi": 57,
      "hit": false,
      "t": 47103.70250000003,
      "d": 91.46349999999802,
      "v": 80
    },
    {
      "midi": 52,
      "hit": false,
      "t": 47103.70250000003,
      "d": 91.46349999999802,
      "v": 80
    },
    {
      "midi": 64,
      "hit": false,
      "t": 47103.70250000003,
      "d": 91.46349999999802,
      "v": 80
    },
    {
      "midi": 67,
      "hit": false,
      "t": 47195.165999999954,
      "d": 2195.123999999996,
      "v": 100
    },
    {
      "midi": 60,
      "hit": false,
      "t": 47195.16600000003,
      "d": 365.85399999999936,
      "v": 100
    },
    {
      "midi": 57,
      "hit": false,
      "t": 47195.16600000003,
      "d": 365.85399999999936,
      "v": 100
    },
    {
      "midi": 52,
      "hit": false,
      "t": 47195.16600000003,
      "d": 365.85399999999936,
      "v": 100
    },
    {
      "midi": 45,
      "hit": false,
      "t": 47195.16600000003,
      "d": 365.85399999999936,
      "v": 100
    },
    {
      "midi": 64,
      "hit": false,
      "t": 47195.16600000003,
      "d": 365.85399999999936,
      "v": 100
    },
    {
      "midi": 60,
      "hit": false,
      "t": 47195.16600000003,
      "d": 365.85399999999936,
      "v": 100
    },
    {
      "midi": 57,
      "hit": false,
      "t": 47195.16600000003,
      "d": 365.85399999999936,
      "v": 100
    },
    {
      "midi": 52,
      "hit": false,
      "t": 47195.16600000003,
      "d": 365.85399999999936,
      "v": 100
    },
    {
      "midi": 45,
      "hit": false,
      "t": 47195.16600000003,
      "d": 365.85399999999936,
      "v": 100
    },
    {
      "midi": 64,
      "hit": false,
      "t": 47195.16600000003,
      "d": 365.85399999999936,
      "v": 100
    },
    {
      "midi": 46,
      "hit": false,
      "t": 47195.16600000014,
      "d": 182.92700000000332,
      "v": 80
    },
    {
      "midi": 36,
      "hit": false,
      "t": 47195.16600000014,
      "d": 365.85400000000664,
      "v": 100
    },
    {
      "midi": 49,
      "hit": false,
      "t": 47195.16600000014,
      "d": 731.7080000000133,
      "v": 100
    },
    {
      "midi": 33,
      "hit": false,
      "t": 47195.166000000165,
      "d": 182.92700000000332,
      "v": 100
    },
    {
      "midi": 46,
      "hit": false,
      "t": 47378.093000000146,
      "d": 182.92700000000332,
      "v": 80
    },
    {
      "midi": 33,
      "hit": false,
      "t": 47378.09300000017,
      "d": 182.92700000000332,
      "v": 100
    },
    {
      "midi": 60,
      "hit": false,
      "t": 47561.020000000026,
      "d": 182.92700000000332,
      "v": 100
    },
    {
      "midi": 57,
      "hit": false,
      "t": 47561.020000000026,
      "d": 182.92700000000332,
      "v": 100
    },
    {
      "midi": 52,
      "hit": false,
      "t": 47561.020000000026,
      "d": 182.92700000000332,
      "v": 100
    },
    {
      "midi": 45,
      "hit": false,
      "t": 47561.020000000026,
      "d": 182.92700000000332,
      "v": 100
    },
    {
      "midi": 64,
      "hit": false,
      "t": 47561.020000000026,
      "d": 182.92700000000332,
      "v": 100
    },
    {
      "midi": 60,
      "hit": false,
      "t": 47561.020000000026,
      "d": 182.92700000000332,
      "v": 100
    },
    {
      "midi": 57,
      "hit": false,
      "t": 47561.020000000026,
      "d": 182.92700000000332,
      "v": 100
    },
    {
      "midi": 52,
      "hit": false,
      "t": 47561.020000000026,
      "d": 182.92700000000332,
      "v": 100
    },
    {
      "midi": 45,
      "hit": false,
      "t": 47561.020000000026,
      "d": 182.92700000000332,
      "v": 100
    },
    {
      "midi": 64,
      "hit": false,
      "t": 47561.020000000026,
      "d": 182.92700000000332,
      "v": 100
    },
    {
      "midi": 46,
      "hit": false,
      "t": 47561.02000000015,
      "d": 182.92700000000332,
      "v": 80
    },
    {
      "midi": 40,
      "hit": false,
      "t": 47561.02000000015,
      "d": 365.85400000000664,
      "v": 100
    },
    {
      "midi": 33,
      "hit": false,
      "t": 47561.02000000017,
      "d": 182.92700000000332,
      "v": 100
    },
    {
      "midi": 57,
      "hit": false,
      "t": 47743.94700000003,
      "d": 548.7810000000027,
      "v": 100
    },
    {
      "midi": 60,
      "hit": false,
      "t": 47743.94700000003,
      "d": 548.7810000000027,
      "v": 100
    },
    {
      "midi": 52,
      "hit": false,
      "t": 47743.94700000003,
      "d": 548.7810000000027,
      "v": 100
    },
    {
      "midi": 64,
      "hit": false,
      "t": 47743.94700000003,
      "d": 548.7810000000027,
      "v": 100
    },
    {
      "midi": 45,
      "hit": false,
      "t": 47743.94700000003,
      "d": 548.7810000000027,
      "v": 100
    },
    {
      "midi": 57,
      "hit": false,
      "t": 47743.94700000003,
      "d": 548.7810000000027,
      "v": 100
    },
    {
      "midi": 60,
      "hit": false,
      "t": 47743.94700000003,
      "d": 548.7810000000027,
      "v": 100
    },
    {
      "midi": 52,
      "hit": false,
      "t": 47743.94700000003,
      "d": 548.7810000000027,
      "v": 100
    },
    {
      "midi": 64,
      "hit": false,
      "t": 47743.94700000003,
      "d": 548.7810000000027,
      "v": 100
    },
    {
      "midi": 45,
      "hit": false,
      "t": 47743.94700000003,
      "d": 548.7810000000027,
      "v": 100
    },
    {
      "midi": 46,
      "hit": false,
      "t": 47743.94700000015,
      "d": 182.92700000000332,
      "v": 80
    },
    {
      "midi": 33,
      "hit": false,
      "t": 47743.947000000175,
      "d": 182.92700000000332,
      "v": 100
    },
    {
      "midi": 36,
      "hit": false,
      "t": 47926.874000000156,
      "d": 182.92700000000332,
      "v": 100
    },
    {
      "midi": 46,
      "hit": false,
      "t": 47926.874000000156,
      "d": 182.92700000000332,
      "v": 80
    },
    {
      "midi": 33,
      "hit": false,
      "t": 47926.87400000018,
      "d": 182.92700000000332,
      "v": 100
    },
    {
      "midi": 36,
      "hit": false,
      "t": 48109.80100000016,
      "d": 182.92700000000332,
      "v": 100
    },
    {
      "midi": 46,
      "hit": false,
      "t": 48109.80100000016,
      "d": 182.92700000000332,
      "v": 80
    },
    {
      "midi": 33,
      "hit": false,
      "t": 48109.80100000018,
      "d": 182.92700000000332,
      "v": 100
    },
    {
      "midi": 60,
      "hit": false,
      "t": 48292.72800000003,
      "d": 182.92700000000332,
      "v": 100
    },
    {
      "midi": 45,
      "hit": false,
      "t": 48292.72800000003,
      "d": 182.92700000000332,
      "v": 100
    },
    {
      "midi": 52,
      "hit": false,
      "t": 48292.72800000003,
      "d": 182.92700000000332,
      "v": 100
    },
    {
      "midi": 64,
      "hit": false,
      "t": 48292.72800000003,
      "d": 182.92700000000332,
      "v": 100
    },
    {
      "midi": 57,
      "hit": false,
      "t": 48292.72800000003,
      "d": 182.92700000000332,
      "v": 100
    },
    {
      "midi": 60,
      "hit": false,
      "t": 48292.72800000003,
      "d": 182.92700000000332,
      "v": 100
    },
    {
      "midi": 45,
      "hit": false,
      "t": 48292.72800000003,
      "d": 182.92700000000332,
      "v": 100
    },
    {
      "midi": 52,
      "hit": false,
      "t": 48292.72800000003,
      "d": 182.92700000000332,
      "v": 100
    },
    {
      "midi": 64,
      "hit": false,
      "t": 48292.72800000003,
      "d": 182.92700000000332,
      "v": 100
    },
    {
      "midi": 57,
      "hit": false,
      "t": 48292.72800000003,
      "d": 182.92700000000332,
      "v": 100
    },
    {
      "midi": 46,
      "hit": false,
      "t": 48292.72800000016,
      "d": 182.92700000000332,
      "v": 80
    },
    {
      "midi": 40,
      "hit": false,
      "t": 48292.72800000016,
      "d": 365.85400000000664,
      "v": 100
    },
    {
      "midi": 33,
      "hit": false,
      "t": 48292.728000000185,
      "d": 182.92700000000332,
      "v": 100
    },
    {
      "midi": 48,
      "hit": false,
      "t": 48475.655000000035,
      "d": 91.46349999999802,
      "v": 80
    },
    {
      "midi": 60,
      "hit": false,
      "t": 48475.655000000035,
      "d": 91.46349999999802,
      "v": 80
    },
    {
      "midi": 67,
      "hit": false,
      "t": 48475.655000000035,
      "d": 91.46349999999802,
      "v": 80
    },
    {
      "midi": 64,
      "hit": false,
      "t": 48475.655000000035,
      "d": 91.46349999999802,
      "v": 80
    },
    {
      "midi": 55,
      "hit": false,
      "t": 48475.655000000035,
      "d": 91.46349999999802,
      "v": 80
    },
    {
      "midi": 48,
      "hit": false,
      "t": 48475.655000000035,
      "d": 91.46349999999802,
      "v": 80
    },
    {
      "midi": 60,
      "hit": false,
      "t": 48475.655000000035,
      "d": 91.46349999999802,
      "v": 80
    },
    {
      "midi": 67,
      "hit": false,
      "t": 48475.655000000035,
      "d": 91.46349999999802,
      "v": 80
    },
    {
      "midi": 64,
      "hit": false,
      "t": 48475.655000000035,
      "d": 91.46349999999802,
      "v": 80
    },
    {
      "midi": 55,
      "hit": false,
      "t": 48475.655000000035,
      "d": 91.46349999999802,
      "v": 80
    },
    {
      "midi": 46,
      "hit": false,
      "t": 48475.655000000166,
      "d": 182.92700000000332,
      "v": 80
    },
    {
      "midi": 33,
      "hit": false,
      "t": 48475.65500000019,
      "d": 182.92700000000332,
      "v": 100
    },
    {
      "midi": 48,
      "hit": false,
      "t": 48567.11850000003,
      "d": 91.46349999999802,
      "v": 80
    },
    {
      "midi": 55,
      "hit": false,
      "t": 48567.11850000003,
      "d": 91.46349999999802,
      "v": 80
    },
    {
      "midi": 64,
      "hit": false,
      "t": 48567.11850000003,
      "d": 91.46349999999802,
      "v": 80
    },
    {
      "midi": 60,
      "hit": false,
      "t": 48567.11850000003,
      "d": 91.46349999999802,
      "v": 80
    },
    {
      "midi": 67,
      "hit": false,
      "t": 48567.11850000003,
      "d": 91.46349999999802,
      "v": 80
    },
    {
      "midi": 48,
      "hit": false,
      "t": 48567.11850000003,
      "d": 91.46349999999802,
      "v": 80
    },
    {
      "midi": 55,
      "hit": false,
      "t": 48567.11850000003,
      "d": 91.46349999999802,
      "v": 80
    },
    {
      "midi": 64,
      "hit": false,
      "t": 48567.11850000003,
      "d": 91.46349999999802,
      "v": 80
    },
    {
      "midi": 60,
      "hit": false,
      "t": 48567.11850000003,
      "d": 91.46349999999802,
      "v": 80
    },
    {
      "midi": 67,
      "hit": false,
      "t": 48567.11850000003,
      "d": 91.46349999999802,
      "v": 80
    },
    {
      "midi": 67,
      "hit": false,
      "t": 48658.58200000003,
      "d": 1463.4159999999974,
      "v": 100
    },
    {
      "midi": 60,
      "hit": false,
      "t": 48658.58200000003,
      "d": 1463.4159999999974,
      "v": 100
    },
    {
      "midi": 48,
      "hit": false,
      "t": 48658.58200000003,
      "d": 1463.4159999999974,
      "v": 100
    },
    {
      "midi": 55,
      "hit": false,
      "t": 48658.58200000003,
      "d": 1463.4159999999974,
      "v": 100
    },
    {
      "midi": 64,
      "hit": false,
      "t": 48658.58200000003,
      "d": 1463.4159999999974,
      "v": 100
    },
    {
      "midi": 67,
      "hit": false,
      "t": 48658.58200000003,
      "d": 1463.4159999999974,
      "v": 100
    },
    {
      "midi": 60,
      "hit": false,
      "t": 48658.58200000003,
      "d": 1463.4159999999974,
      "v": 100
    },
    {
      "midi": 48,
      "hit": false,
      "t": 48658.58200000003,
      "d": 1463.4159999999974,
      "v": 100
    },
    {
      "midi": 55,
      "hit": false,
      "t": 48658.58200000003,
      "d": 1463.4159999999974,
      "v": 100
    },
    {
      "midi": 64,
      "hit": false,
      "t": 48658.58200000003,
      "d": 1463.4159999999974,
      "v": 100
    },
    {
      "midi": 40,
      "hit": false,
      "t": 48658.58200000017,
      "d": 365.85399999999936,
      "v": 100
    },
    {
      "midi": 49,
      "hit": false,
      "t": 48658.58200000017,
      "d": 731.708000000006,
      "v": 100
    },
    {
      "midi": 31,
      "hit": false,
      "t": 48658.58200000019,
      "d": 365.85399999999936,
      "v": 100
    },
    {
      "midi": 41,
      "hit": false,
      "t": 49024.43600000017,
      "d": 182.92700000000332,
      "v": 100
    },
    {
      "midi": 36,
      "hit": false,
      "t": 49024.43600000017,
      "d": 182.92700000000332,
      "v": 100
    },
    {
      "midi": 31,
      "hit": false,
      "t": 49024.43600000019,
      "d": 182.92700000000332,
      "v": 100
    },
    {
      "midi": 36,
      "hit": false,
      "t": 49207.36300000017,
      "d": 182.92700000000332,
      "v": 100
    },
    {
      "midi": 41,
      "hit": false,
      "t": 49207.36300000017,
      "d": 182.92700000000332,
      "v": 100
    },
    {
      "midi": 31,
      "hit": false,
      "t": 49207.363000000194,
      "d": 182.92700000000332,
      "v": 100
    },
    {
      "midi": 40,
      "hit": false,
      "t": 49390.290000000175,
      "d": 182.92700000000332,
      "v": 100
    },
    {
      "midi": 41,
      "hit": false,
      "t": 49390.290000000175,
      "d": 182.92700000000332,
      "v": 100
    },
    {
      "midi": 31,
      "hit": false,
      "t": 49390.2900000002,
      "d": 182.92700000000332,
      "v": 100
    },
    {
      "midi": 41,
      "hit": false,
      "t": 49573.21700000018,
      "d": 182.92700000000332,
      "v": 100
    },
    {
      "midi": 40,
      "hit": false,
      "t": 49573.21700000018,
      "d": 182.92700000000332,
      "v": 100
    },
    {
      "midi": 31,
      "hit": false,
      "t": 49573.2170000002,
      "d": 182.92700000000332,
      "v": 100
    },
    {
      "midi": 41,
      "hit": false,
      "t": 49756.14400000018,
      "d": 182.92700000000332,
      "v": 100
    },
    {
      "midi": 40,
      "hit": false,
      "t": 49756.14400000018,
      "d": 182.92700000000332,
      "v": 100
    },
    {
      "midi": 31,
      "hit": false,
      "t": 49756.144000000204,
      "d": 182.92700000000332,
      "v": 100
    },
    {
      "midi": 40,
      "hit": false,
      "t": 49939.071000000185,
      "d": 182.92700000000332,
      "v": 100
    },
    {
      "midi": 41,
      "hit": false,
      "t": 49939.071000000185,
      "d": 182.92700000000332,
      "v": 100
    },
    {
      "midi": 31,
      "hit": false,
      "t": 49939.07100000021,
      "d": 182.92700000000332,
      "v": 100
    },
    {
      "midi": 69,
      "hit": false,
      "t": 50121.99799999995,
      "d": 548.7810000000027,
      "v": 100
    },
    {
      "midi": 65,
      "hit": false,
      "t": 50121.99799999995,
      "d": 548.7810000000027,
      "v": 100
    },
    {
      "midi": 57,
      "hit": false,
      "t": 50121.99800000003,
      "d": 182.92700000000332,
      "v": 100
    },
    {
      "midi": 48,
      "hit": false,
      "t": 50121.99800000003,
      "d": 182.92700000000332,
      "v": 100
    },
    {
      "midi": 65,
      "hit": false,
      "t": 50121.99800000003,
      "d": 182.92700000000332,
      "v": 100
    },
    {
      "midi": 60,
      "hit": false,
      "t": 50121.99800000003,
      "d": 182.92700000000332,
      "v": 100
    },
    {
      "midi": 53,
      "hit": false,
      "t": 50121.99800000003,
      "d": 182.92700000000332,
      "v": 100
    },
    {
      "midi": 57,
      "hit": false,
      "t": 50121.99800000003,
      "d": 182.92700000000332,
      "v": 100
    },
    {
      "midi": 48,
      "hit": false,
      "t": 50121.99800000003,
      "d": 182.92700000000332,
      "v": 100
    },
    {
      "midi": 65,
      "hit": false,
      "t": 50121.99800000003,
      "d": 182.92700000000332,
      "v": 100
    },
    {
      "midi": 60,
      "hit": false,
      "t": 50121.99800000003,
      "d": 182.92700000000332,
      "v": 100
    },
    {
      "midi": 53,
      "hit": false,
      "t": 50121.99800000003,
      "d": 182.92700000000332,
      "v": 100
    },
    {
      "midi": 46,
      "hit": false,
      "t": 50121.99800000019,
      "d": 182.92700000000332,
      "v": 80
    },
    {
      "midi": 36,
      "hit": false,
      "t": 50121.99800000019,
      "d": 365.85400000000664,
      "v": 100
    },
    {
      "midi": 49,
      "hit": false,
      "t": 50121.99800000019,
      "d": 731.7080000000133,
      "v": 100
    },
    {
      "midi": 29,
      "hit": false,
      "t": 50121.99800000021,
      "d": 182.92700000000332,
      "v": 100
    },
    {
      "midi": 57,
      "hit": false,
      "t": 50304.92500000003,
      "d": 182.92700000000332,
      "v": 100
    },
    {
      "midi": 53,
      "hit": false,
      "t": 50304.92500000003,
      "d": 182.92700000000332,
      "v": 100
    },
    {
      "midi": 60,
      "hit": false,
      "t": 50304.92500000003,
      "d": 182.92700000000332,
      "v": 100
    },
    {
      "midi": 48,
      "hit": false,
      "t": 50304.92500000003,
      "d": 182.92700000000332,
      "v": 100
    },
    {
      "midi": 65,
      "hit": false,
      "t": 50304.92500000003,
      "d": 182.92700000000332,
      "v": 100
    },
    {
      "midi": 57,
      "hit": false,
      "t": 50304.92500000003,
      "d": 182.92700000000332,
      "v": 100
    },
    {
      "midi": 53,
      "hit": false,
      "t": 50304.92500000003,
      "d": 182.92700000000332,
      "v": 100
    },
    {
      "midi": 60,
      "hit": false,
      "t": 50304.92500000003,
      "d": 182.92700000000332,
      "v": 100
    },
    {
      "midi": 48,
      "hit": false,
      "t": 50304.92500000003,
      "d": 182.92700000000332,
      "v": 100
    },
    {
      "midi": 65,
      "hit": false,
      "t": 50304.92500000003,
      "d": 182.92700000000332,
      "v": 100
    },
    {
      "midi": 46,
      "hit": false,
      "t": 50304.92500000019,
      "d": 182.92700000000332,
      "v": 80
    },
    {
      "midi": 29,
      "hit": false,
      "t": 50304.925000000214,
      "d": 182.92700000000332,
      "v": 100
    },
    {
      "midi": 65,
      "hit": false,
      "t": 50487.852000000035,
      "d": 182.92700000000332,
      "v": 100
    },
    {
      "midi": 57,
      "hit": false,
      "t": 50487.852000000035,
      "d": 182.92700000000332,
      "v": 100
    },
    {
      "midi": 48,
      "hit": false,
      "t": 50487.852000000035,
      "d": 182.92700000000332,
      "v": 100
    },
    {
      "midi": 60,
      "hit": false,
      "t": 50487.852000000035,
      "d": 182.92700000000332,
      "v": 100
    },
    {
      "midi": 53,
      "hit": false,
      "t": 50487.852000000035,
      "d": 182.92700000000332,
      "v": 100
    },
    {
      "midi": 65,
      "hit": false,
      "t": 50487.852000000035,
      "d": 182.92700000000332,
      "v": 100
    },
    {
      "midi": 57,
      "hit": false,
      "t": 50487.852000000035,
      "d": 182.92700000000332,
      "v": 100
    },
    {
      "midi": 48,
      "hit": false,
      "t": 50487.852000000035,
      "d": 182.92700000000332,
      "v": 100
    },
    {
      "midi": 60,
      "hit": false,
      "t": 50487.852000000035,
      "d": 182.92700000000332,
      "v": 100
    },
    {
      "midi": 53,
      "hit": false,
      "t": 50487.852000000035,
      "d": 182.92700000000332,
      "v": 100
    },
    {
      "midi": 46,
      "hit": false,
      "t": 50487.852000000195,
      "d": 182.92700000000332,
      "v": 80
    },
    {
      "midi": 40,
      "hit": false,
      "t": 50487.852000000195,
      "d": 365.85400000000664,
      "v": 100
    },
    {
      "midi": 29,
      "hit": false,
      "t": 50487.85200000022,
      "d": 182.92700000000332,
      "v": 100
    },
    {
      "midi": 60,
      "hit": false,
      "t": 50670.77899999995,
      "d": 137.19524999999703,
      "v": 100
    },
    {
      "midi": 57,
      "hit": false,
      "t": 50670.77899999995,
      "d": 137.19524999999703,
      "v": 100
    },
    {
      "midi": 60,
      "hit": false,
      "t": 50670.77900000004,
      "d": 365.85399999999936,
      "v": 100
    },
    {
      "midi": 57,
      "hit": false,
      "t": 50670.77900000004,
      "d": 365.85399999999936,
      "v": 100
    },
    {
      "midi": 53,
      "hit": false,
      "t": 50670.77900000004,
      "d": 365.85399999999936,
      "v": 100
    },
    {
      "midi": 48,
      "hit": false,
      "t": 50670.77900000004,
      "d": 365.85399999999936,
      "v": 100
    },
    {
      "midi": 65,
      "hit": false,
      "t": 50670.77900000004,
      "d": 365.85399999999936,
      "v": 100
    },
    {
      "midi": 60,
      "hit": false,
      "t": 50670.77900000004,
      "d": 365.85399999999936,
      "v": 100
    },
    {
      "midi": 57,
      "hit": false,
      "t": 50670.77900000004,
      "d": 365.85399999999936,
      "v": 100
    },
    {
      "midi": 53,
      "hit": false,
      "t": 50670.77900000004,
      "d": 365.85399999999936,
      "v": 100
    },
    {
      "midi": 48,
      "hit": false,
      "t": 50670.77900000004,
      "d": 365.85399999999936,
      "v": 100
    },
    {
      "midi": 65,
      "hit": false,
      "t": 50670.77900000004,
      "d": 365.85399999999936,
      "v": 100
    },
    {
      "midi": 46,
      "hit": false,
      "t": 50670.7790000002,
      "d": 182.92700000000332,
      "v": 80
    },
    {
      "midi": 29,
      "hit": false,
      "t": 50670.77900000022,
      "d": 182.92700000000332,
      "v": 100
    },
    {
      "midi": 60,
      "hit": false,
      "t": 50853.70599999995,
      "d": 548.7810000000027,
      "v": 100
    },
    {
      "midi": 57,
      "hit": false,
      "t": 50853.70599999995,
      "d": 548.7810000000027,
      "v": 100
    },
    {
      "midi": 46,
      "hit": false,
      "t": 50853.7060000002,
      "d": 182.92700000000332,
      "v": 80
    },
    {
      "midi": 36,
      "hit": false,
      "t": 50853.7060000002,
      "d": 182.92700000000332,
      "v": 100
    },
    {
      "midi": 29,
      "hit": false,
      "t": 50853.706000000224,
      "d": 182.92700000000332,
      "v": 100
    },
    {
      "midi": 57,
      "hit": false,
      "t": 51036.63300000004,
      "d": 182.92700000000332,
      "v": 100
    },
    {
      "midi": 65,
      "hit": false,
      "t": 51036.63300000004,
      "d": 182.92700000000332,
      "v": 100
    },
    {
      "midi": 60,
      "hit": false,
      "t": 51036.63300000004,
      "d": 182.92700000000332,
      "v": 100
    },
    {
      "midi": 48,
      "hit": false,
      "t": 51036.63300000004,
      "d": 182.92700000000332,
      "v": 100
    },
    {
      "midi": 53,
      "hit": false,
      "t": 51036.63300000004,
      "d": 182.92700000000332,
      "v": 100
    },
    {
      "midi": 57,
      "hit": false,
      "t": 51036.63300000004,
      "d": 182.92700000000332,
      "v": 100
    },
    {
      "midi": 65,
      "hit": false,
      "t": 51036.63300000004,
      "d": 182.92700000000332,
      "v": 100
    },
    {
      "midi": 60,
      "hit": false,
      "t": 51036.63300000004,
      "d": 182.92700000000332,
      "v": 100
    },
    {
      "midi": 48,
      "hit": false,
      "t": 51036.63300000004,
      "d": 182.92700000000332,
      "v": 100
    },
    {
      "midi": 53,
      "hit": false,
      "t": 51036.63300000004,
      "d": 182.92700000000332,
      "v": 100
    },
    {
      "midi": 36,
      "hit": false,
      "t": 51036.633000000205,
      "d": 182.92700000000332,
      "v": 100
    },
    {
      "midi": 46,
      "hit": false,
      "t": 51036.633000000205,
      "d": 182.92700000000332,
      "v": 80
    },
    {
      "midi": 29,
      "hit": false,
      "t": 51036.63300000023,
      "d": 182.92700000000332,
      "v": 100
    },
    {
      "midi": 48,
      "hit": false,
      "t": 51219.56000000004,
      "d": 182.92700000000332,
      "v": 100
    },
    {
      "midi": 57,
      "hit": false,
      "t": 51219.56000000004,
      "d": 182.92700000000332,
      "v": 100
    },
    {
      "midi": 60,
      "hit": false,
      "t": 51219.56000000004,
      "d": 182.92700000000332,
      "v": 100
    },
    {
      "midi": 65,
      "hit": false,
      "t": 51219.56000000004,
      "d": 182.92700000000332,
      "v": 100
    },
    {
      "midi": 53,
      "hit": false,
      "t": 51219.56000000004,
      "d": 182.92700000000332,
      "v": 100
    },
    {
      "midi": 48,
      "hit": false,
      "t": 51219.56000000004,
      "d": 182.92700000000332,
      "v": 100
    },
    {
      "midi": 57,
      "hit": false,
      "t": 51219.56000000004,
      "d": 182.92700000000332,
      "v": 100
    },
    {
      "midi": 60,
      "hit": false,
      "t": 51219.56000000004,
      "d": 182.92700000000332,
      "v": 100
    },
    {
      "midi": 65,
      "hit": false,
      "t": 51219.56000000004,
      "d": 182.92700000000332,
      "v": 100
    },
    {
      "midi": 53,
      "hit": false,
      "t": 51219.56000000004,
      "d": 182.92700000000332,
      "v": 100
    },
    {
      "midi": 46,
      "hit": false,
      "t": 51219.56000000021,
      "d": 182.92700000000332,
      "v": 80
    },
    {
      "midi": 40,
      "hit": false,
      "t": 51219.56000000021,
      "d": 365.85400000000664,
      "v": 100
    },
    {
      "midi": 29,
      "hit": false,
      "t": 51219.56000000023,
      "d": 182.92700000000332,
      "v": 100
    },
    {
      "midi": 60,
      "hit": false,
      "t": 51402.487000000045,
      "d": 182.92700000000332,
      "v": 100
    },
    {
      "midi": 57,
      "hit": false,
      "t": 51402.487000000045,
      "d": 182.92700000000332,
      "v": 100
    },
    {
      "midi": 48,
      "hit": false,
      "t": 51402.487000000045,
      "d": 182.92700000000332,
      "v": 100
    },
    {
      "midi": 53,
      "hit": false,
      "t": 51402.487000000045,
      "d": 182.92700000000332,
      "v": 100
    },
    {
      "midi": 65,
      "hit": false,
      "t": 51402.487000000045,
      "d": 182.92700000000332,
      "v": 100
    },
    {
      "midi": 60,
      "hit": false,
      "t": 51402.487000000045,
      "d": 182.92700000000332,
      "v": 100
    },
    {
      "midi": 57,
      "hit": false,
      "t": 51402.487000000045,
      "d": 182.92700000000332,
      "v": 100
    },
    {
      "midi": 48,
      "hit": false,
      "t": 51402.487000000045,
      "d": 182.92700000000332,
      "v": 100
    },
    {
      "midi": 53,
      "hit": false,
      "t": 51402.487000000045,
      "d": 182.92700000000332,
      "v": 100
    },
    {
      "midi": 65,
      "hit": false,
      "t": 51402.487000000045,
      "d": 182.92700000000332,
      "v": 100
    },
    {
      "midi": 46,
      "hit": false,
      "t": 51402.48700000021,
      "d": 182.92700000000332,
      "v": 80
    },
    {
      "midi": 29,
      "hit": false,
      "t": 51402.487000000234,
      "d": 182.92700000000332,
      "v": 100
    },
    {
      "midi": 60,
      "hit": false,
      "t": 51585.41399999995,
      "d": 365.85399999999936,
      "v": 100
    },
    {
      "midi": 57,
      "hit": false,
      "t": 51585.41399999995,
      "d": 365.85399999999936,
      "v": 100
    },
    {
      "midi": 60,
      "hit": false,
      "t": 51585.41400000005,
      "d": 182.92700000000332,
      "v": 100
    },
    {
      "midi": 53,
      "hit": false,
      "t": 51585.41400000005,
      "d": 182.92700000000332,
      "v": 100
    },
    {
      "midi": 48,
      "hit": false,
      "t": 51585.41400000005,
      "d": 182.92700000000332,
      "v": 100
    },
    {
      "midi": 65,
      "hit": false,
      "t": 51585.41400000005,
      "d": 182.92700000000332,
      "v": 100
    },
    {
      "midi": 57,
      "hit": false,
      "t": 51585.41400000005,
      "d": 182.92700000000332,
      "v": 100
    },
    {
      "midi": 60,
      "hit": false,
      "t": 51585.41400000005,
      "d": 182.92700000000332,
      "v": 100
    },
    {
      "midi": 53,
      "hit": false,
      "t": 51585.41400000005,
      "d": 182.92700000000332,
      "v": 100
    },
    {
      "midi": 48,
      "hit": false,
      "t": 51585.41400000005,
      "d": 182.92700000000332,
      "v": 100
    },
    {
      "midi": 65,
      "hit": false,
      "t": 51585.41400000005,
      "d": 182.92700000000332,
      "v": 100
    },
    {
      "midi": 57,
      "hit": false,
      "t": 51585.41400000005,
      "d": 182.92700000000332,
      "v": 100
    },
    {
      "midi": 46,
      "hit": false,
      "t": 51585.414000000215,
      "d": 182.92700000000332,
      "v": 80
    },
    {
      "midi": 36,
      "hit": false,
      "t": 51585.414000000215,
      "d": 365.85400000000664,
      "v": 100
    },
    {
      "midi": 29,
      "hit": false,
      "t": 51585.41400000024,
      "d": 182.92700000000332,
      "v": 100
    },
    {
      "midi": 57,
      "hit": false,
      "t": 51768.34100000005,
      "d": 182.92700000000332,
      "v": 100
    },
    {
      "midi": 53,
      "hit": false,
      "t": 51768.34100000005,
      "d": 182.92700000000332,
      "v": 100
    },
    {
      "midi": 60,
      "hit": false,
      "t": 51768.34100000005,
      "d": 182.92700000000332,
      "v": 100
    },
    {
      "midi": 65,
      "hit": false,
      "t": 51768.34100000005,
      "d": 182.92700000000332,
      "v": 100
    },
    {
      "midi": 48,
      "hit": false,
      "t": 51768.34100000005,
      "d": 182.92700000000332,
      "v": 100
    },
    {
      "midi": 57,
      "hit": false,
      "t": 51768.34100000005,
      "d": 182.92700000000332,
      "v": 100
    },
    {
      "midi": 53,
      "hit": false,
      "t": 51768.34100000005,
      "d": 182.92700000000332,
      "v": 100
    },
    {
      "midi": 60,
      "hit": false,
      "t": 51768.34100000005,
      "d": 182.92700000000332,
      "v": 100
    },
    {
      "midi": 65,
      "hit": false,
      "t": 51768.34100000005,
      "d": 182.92700000000332,
      "v": 100
    },
    {
      "midi": 48,
      "hit": false,
      "t": 51768.34100000005,
      "d": 182.92700000000332,
      "v": 100
    },
    {
      "midi": 46,
      "hit": false,
      "t": 51768.34100000022,
      "d": 182.92700000000332,
      "v": 80
    },
    {
      "midi": 29,
      "hit": false,
      "t": 51768.34100000024,
      "d": 182.92700000000332,
      "v": 100
    },
    {
      "midi": 69,
      "hit": false,
      "t": 51951.26799999995,
      "d": 365.85399999999936,
      "v": 100
    },
    {
      "midi": 65,
      "hit": false,
      "t": 51951.26799999995,
      "d": 365.85399999999936,
      "v": 100
    },
    {
      "midi": 60,
      "hit": false,
      "t": 51951.268000000055,
      "d": 182.92700000000332,
      "v": 100
    },
    {
      "midi": 48,
      "hit": false,
      "t": 51951.268000000055,
      "d": 182.92700000000332,
      "v": 100
    },
    {
      "midi": 53,
      "hit": false,
      "t": 51951.268000000055,
      "d": 182.92700000000332,
      "v": 100
    },
    {
      "midi": 65,
      "hit": false,
      "t": 51951.268000000055,
      "d": 182.92700000000332,
      "v": 100
    },
    {
      "midi": 57,
      "hit": false,
      "t": 51951.268000000055,
      "d": 182.92700000000332,
      "v": 100
    },
    {
      "midi": 60,
      "hit": false,
      "t": 51951.268000000055,
      "d": 182.92700000000332,
      "v": 100
    },
    {
      "midi": 48,
      "hit": false,
      "t": 51951.268000000055,
      "d": 182.92700000000332,
      "v": 100
    },
    {
      "midi": 53,
      "hit": false,
      "t": 51951.268000000055,
      "d": 182.92700000000332,
      "v": 100
    },
    {
      "midi": 65,
      "hit": false,
      "t": 51951.268000000055,
      "d": 182.92700000000332,
      "v": 100
    },
    {
      "midi": 57,
      "hit": false,
      "t": 51951.268000000055,
      "d": 182.92700000000332,
      "v": 100
    },
    {
      "midi": 40,
      "hit": false,
      "t": 51951.26800000022,
      "d": 182.92700000000332,
      "v": 100
    },
    {
      "midi": 46,
      "hit": false,
      "t": 51951.26800000022,
      "d": 182.92700000000332,
      "v": 80
    },
    {
      "midi": 29,
      "hit": false,
      "t": 51951.268000000244,
      "d": 182.92700000000332,
      "v": 100
    },
    {
      "midi": 53,
      "hit": false,
      "t": 52134.19500000006,
      "d": 365.85399999999936,
      "v": 100
    },
    {
      "midi": 65,
      "hit": false,
      "t": 52134.19500000006,
      "d": 365.85399999999936,
      "v": 100
    },
    {
      "midi": 57,
      "hit": false,
      "t": 52134.19500000006,
      "d": 365.85399999999936,
      "v": 100
    },
    {
      "midi": 48,
      "hit": false,
      "t": 52134.19500000006,
      "d": 365.85399999999936,
      "v": 100
    },
    {
      "midi": 60,
      "hit": false,
      "t": 52134.19500000006,
      "d": 365.85399999999936,
      "v": 100
    },
    {
      "midi": 53,
      "hit": false,
      "t": 52134.19500000006,
      "d": 365.85399999999936,
      "v": 100
    },
    {
      "midi": 65,
      "hit": false,
      "t": 52134.19500000006,
      "d": 365.85399999999936,
      "v": 100
    },
    {
      "midi": 57,
      "hit": false,
      "t": 52134.19500000006,
      "d": 365.85399999999936,
      "v": 100
    },
    {
      "midi": 48,
      "hit": false,
      "t": 52134.19500000006,
      "d": 365.85399999999936,
      "v": 100
    },
    {
      "midi": 60,
      "hit": false,
      "t": 52134.19500000006,
      "d": 365.85399999999936,
      "v": 100
    },
    {
      "midi": 46,
      "hit": false,
      "t": 52134.195000000225,
      "d": 182.92700000000332,
      "v": 80
    },
    {
      "midi": 36,
      "hit": false,
      "t": 52134.195000000225,
      "d": 365.85400000000664,
      "v": 100
    },
    {
      "midi": 29,
      "hit": false,
      "t": 52134.19500000025,
      "d": 182.92700000000332,
      "v": 100
    },
    {
      "midi": 67,
      "hit": false,
      "t": 52317.12199999995,
      "d": 365.85399999999936,
      "v": 100
    },
    {
      "midi": 64,
      "hit": false,
      "t": 52317.12199999995,
      "d": 365.85399999999936,
      "v": 100
    },
    {
      "midi": 46,
      "hit": false,
      "t": 52317.12200000023,
      "d": 182.92700000000332,
      "v": 80
    },
    {
      "midi": 29,
      "hit": false,
      "t": 52317.12200000025,
      "d": 182.92700000000332,
      "v": 100
    },
    {
      "midi": 65,
      "hit": false,
      "t": 52500.04900000006,
      "d": 182.92700000000332,
      "v": 100
    },
    {
      "midi": 48,
      "hit": false,
      "t": 52500.04900000006,
      "d": 182.92700000000332,
      "v": 100
    },
    {
      "midi": 60,
      "hit": false,
      "t": 52500.04900000006,
      "d": 182.92700000000332,
      "v": 100
    },
    {
      "midi": 53,
      "hit": false,
      "t": 52500.04900000006,
      "d": 182.92700000000332,
      "v": 100
    },
    {
      "midi": 57,
      "hit": false,
      "t": 52500.04900000006,
      "d": 182.92700000000332,
      "v": 100
    },
    {
      "midi": 65,
      "hit": false,
      "t": 52500.04900000006,
      "d": 182.92700000000332,
      "v": 100
    },
    {
      "midi": 48,
      "hit": false,
      "t": 52500.04900000006,
      "d": 182.92700000000332,
      "v": 100
    },
    {
      "midi": 60,
      "hit": false,
      "t": 52500.04900000006,
      "d": 182.92700000000332,
      "v": 100
    },
    {
      "midi": 53,
      "hit": false,
      "t": 52500.04900000006,
      "d": 182.92700000000332,
      "v": 100
    },
    {
      "midi": 57,
      "hit": false,
      "t": 52500.04900000006,
      "d": 182.92700000000332,
      "v": 100
    },
    {
      "midi": 36,
      "hit": false,
      "t": 52500.04900000023,
      "d": 182.92700000000332,
      "v": 100
    },
    {
      "midi": 46,
      "hit": false,
      "t": 52500.04900000023,
      "d": 182.92700000000332,
      "v": 80
    },
    {
      "midi": 29,
      "hit": false,
      "t": 52500.049000000254,
      "d": 182.92700000000332,
      "v": 100
    },
    {
      "midi": 65,
      "hit": false,
      "t": 52682.97599999995,
      "d": 365.85399999999936,
      "v": 100
    },
    {
      "midi": 62,
      "hit": false,
      "t": 52682.97599999995,
      "d": 365.85399999999936,
      "v": 100
    },
    {
      "midi": 57,
      "hit": false,
      "t": 52682.97600000006,
      "d": 182.92700000000332,
      "v": 100
    },
    {
      "midi": 65,
      "hit": false,
      "t": 52682.97600000006,
      "d": 182.92700000000332,
      "v": 100
    },
    {
      "midi": 53,
      "hit": false,
      "t": 52682.97600000006,
      "d": 182.92700000000332,
      "v": 100
    },
    {
      "midi": 48,
      "hit": false,
      "t": 52682.97600000006,
      "d": 182.92700000000332,
      "v": 100
    },
    {
      "midi": 60,
      "hit": false,
      "t": 52682.97600000006,
      "d": 182.92700000000332,
      "v": 100
    },
    {
      "midi": 57,
      "hit": false,
      "t": 52682.97600000006,
      "d": 182.92700000000332,
      "v": 100
    },
    {
      "midi": 65,
      "hit": false,
      "t": 52682.97600000006,
      "d": 182.92700000000332,
      "v": 100
    },
    {
      "midi": 53,
      "hit": false,
      "t": 52682.97600000006,
      "d": 182.92700000000332,
      "v": 100
    },
    {
      "midi": 48,
      "hit": false,
      "t": 52682.97600000006,
      "d": 182.92700000000332,
      "v": 100
    },
    {
      "midi": 60,
      "hit": false,
      "t": 52682.97600000006,
      "d": 182.92700000000332,
      "v": 100
    },
    {
      "midi": 46,
      "hit": false,
      "t": 52682.976000000235,
      "d": 182.92700000000332,
      "v": 80
    },
    {
      "midi": 40,
      "hit": false,
      "t": 52682.976000000235,
      "d": 365.85400000000664,
      "v": 100
    },
    {
      "midi": 31,
      "hit": false,
      "t": 52682.97600000026,
      "d": 182.92700000000332,
      "v": 100
    },
    {
      "midi": 57,
      "hit": false,
      "t": 52865.903000000064,
      "d": 182.92700000000332,
      "v": 100
    },
    {
      "midi": 53,
      "hit": false,
      "t": 52865.903000000064,
      "d": 182.92700000000332,
      "v": 100
    },
    {
      "midi": 48,
      "hit": false,
      "t": 52865.903000000064,
      "d": 182.92700000000332,
      "v": 100
    },
    {
      "midi": 65,
      "hit": false,
      "t": 52865.903000000064,
      "d": 182.92700000000332,
      "v": 100
    },
    {
      "midi": 60,
      "hit": false,
      "t": 52865.903000000064,
      "d": 182.92700000000332,
      "v": 100
    },
    {
      "midi": 57,
      "hit": false,
      "t": 52865.903000000064,
      "d": 182.92700000000332,
      "v": 100
    },
    {
      "midi": 53,
      "hit": false,
      "t": 52865.903000000064,
      "d": 182.92700000000332,
      "v": 100
    },
    {
      "midi": 48,
      "hit": false,
      "t": 52865.903000000064,
      "d": 182.92700000000332,
      "v": 100
    },
    {
      "midi": 65,
      "hit": false,
      "t": 52865.903000000064,
      "d": 182.92700000000332,
      "v": 100
    },
    {
      "midi": 60,
      "hit": false,
      "t": 52865.903000000064,
      "d": 182.92700000000332,
      "v": 100
    },
    {
      "midi": 46,
      "hit": false,
      "t": 52865.90300000024,
      "d": 182.92700000000332,
      "v": 80
    },
    {
      "midi": 31,
      "hit": false,
      "t": 52865.90300000026,
      "d": 182.92700000000332,
      "v": 100
    },
    {
      "midi": 69,
      "hit": false,
      "t": 53048.82999999995,
      "d": 548.7810000000027,
      "v": 100
    },
    {
      "midi": 65,
      "hit": false,
      "t": 53048.82999999995,
      "d": 548.7810000000027,
      "v": 100
    },
    {
      "midi": 61,
      "hit": false,
      "t": 53048.83000000007,
      "d": 182.92700000000332,
      "v": 100
    },
    {
      "midi": 52,
      "hit": false,
      "t": 53048.83000000007,
      "d": 182.92700000000332,
      "v": 100
    },
    {
      "midi": 69,
      "hit": false,
      "t": 53048.83000000007,
      "d": 182.92700000000332,
      "v": 100
    },
    {
      "midi": 64,
      "hit": false,
      "t": 53048.83000000007,
      "d": 182.92700000000332,
      "v": 100
    },
    {
      "midi": 57,
      "hit": false,
      "t": 53048.83000000007,
      "d": 182.92700000000332,
      "v": 100
    },
    {
      "midi": 61,
      "hit": false,
      "t": 53048.83000000007,
      "d": 182.92700000000332,
      "v": 100
    },
    {
      "midi": 52,
      "hit": false,
      "t": 53048.83000000007,
      "d": 182.92700000000332,
      "v": 100
    },
    {
      "midi": 69,
      "hit": false,
      "t": 53048.83000000007,
      "d": 182.92700000000332,
      "v": 100
    },
    {
      "midi": 64,
      "hit": false,
      "t": 53048.83000000007,
      "d": 182.92700000000332,
      "v": 100
    },
    {
      "midi": 57,
      "hit": false,
      "t": 53048.83000000007,
      "d": 182.92700000000332,
      "v": 100
    },
    {
      "midi": 46,
      "hit": false,
      "t": 53048.83000000024,
      "d": 182.92700000000332,
      "v": 80
    },
    {
      "midi": 36,
      "hit": false,
      "t": 53048.83000000024,
      "d": 365.85400000000664,
      "v": 100
    },
    {
      "midi": 33,
      "hit": false,
      "t": 53048.830000000264,
      "d": 182.92700000000332,
      "v": 100
    },
    {
      "midi": 61,
      "hit": false,
      "t": 53231.75700000007,
      "d": 182.92700000000332,
      "v": 100
    },
    {
      "midi": 57,
      "hit": false,
      "t": 53231.75700000007,
      "d": 182.92700000000332,
      "v": 100
    },
    {
      "midi": 64,
      "hit": false,
      "t": 53231.75700000007,
      "d": 182.92700000000332,
      "v": 100
    },
    {
      "midi": 52,
      "hit": false,
      "t": 53231.75700000007,
      "d": 182.92700000000332,
      "v": 100
    },
    {
      "midi": 69,
      "hit": false,
      "t": 53231.75700000007,
      "d": 182.92700000000332,
      "v": 100
    },
    {
      "midi": 61,
      "hit": false,
      "t": 53231.75700000007,
      "d": 182.92700000000332,
      "v": 100
    },
    {
      "midi": 57,
      "hit": false,
      "t": 53231.75700000007,
      "d": 182.92700000000332,
      "v": 100
    },
    {
      "midi": 64,
      "hit": false,
      "t": 53231.75700000007,
      "d": 182.92700000000332,
      "v": 100
    },
    {
      "midi": 52,
      "hit": false,
      "t": 53231.75700000007,
      "d": 182.92700000000332,
      "v": 100
    },
    {
      "midi": 69,
      "hit": false,
      "t": 53231.75700000007,
      "d": 182.92700000000332,
      "v": 100
    },
    {
      "midi": 46,
      "hit": false,
      "t": 53231.757000000245,
      "d": 182.92700000000332,
      "v": 80
    },
    {
      "midi": 33,
      "hit": false,
      "t": 53231.75700000027,
      "d": 182.92700000000332,
      "v": 100
    },
    {
      "midi": 69,
      "hit": false,
      "t": 53414.684000000074,
      "d": 182.92700000000332,
      "v": 100
    },
    {
      "midi": 61,
      "hit": false,
      "t": 53414.684000000074,
      "d": 182.92700000000332,
      "v": 100
    },
    {
      "midi": 52,
      "hit": false,
      "t": 53414.684000000074,
      "d": 182.92700000000332,
      "v": 100
    },
    {
      "midi": 64,
      "hit": false,
      "t": 53414.684000000074,
      "d": 182.92700000000332,
      "v": 100
    },
    {
      "midi": 57,
      "hit": false,
      "t": 53414.684000000074,
      "d": 182.92700000000332,
      "v": 100
    },
    {
      "midi": 69,
      "hit": false,
      "t": 53414.684000000074,
      "d": 182.92700000000332,
      "v": 100
    },
    {
      "midi": 61,
      "hit": false,
      "t": 53414.684000000074,
      "d": 182.92700000000332,
      "v": 100
    },
    {
      "midi": 52,
      "hit": false,
      "t": 53414.684000000074,
      "d": 182.92700000000332,
      "v": 100
    },
    {
      "midi": 64,
      "hit": false,
      "t": 53414.684000000074,
      "d": 182.92700000000332,
      "v": 100
    },
    {
      "midi": 57,
      "hit": false,
      "t": 53414.684000000074,
      "d": 182.92700000000332,
      "v": 100
    },
    {
      "midi": 46,
      "hit": false,
      "t": 53414.68400000025,
      "d": 182.92700000000332,
      "v": 80
    },
    {
      "midi": 40,
      "hit": false,
      "t": 53414.68400000025,
      "d": 365.85400000000664,
      "v": 100
    },
    {
      "midi": 33,
      "hit": false,
      "t": 53414.68400000027,
      "d": 182.92700000000332,
      "v": 100
    },
    {
      "midi": 61,
      "hit": false,
      "t": 53597.61099999995,
      "d": 137.19524999999703,
      "v": 100
    },
    {
      "midi": 57,
      "hit": false,
      "t": 53597.61099999995,
      "d": 137.19524999999703,
      "v": 100
    },
    {
      "midi": 64,
      "hit": false,
      "t": 53597.61100000008,
      "d": 365.85399999999936,
      "v": 100
    },
    {
      "midi": 61,
      "hit": false,
      "t": 53597.61100000008,
      "d": 365.85399999999936,
      "v": 100
    },
    {
      "midi": 57,
      "hit": false,
      "t": 53597.61100000008,
      "d": 365.85399999999936,
      "v": 100
    },
    {
      "midi": 52,
      "hit": false,
      "t": 53597.61100000008,
      "d": 365.85399999999936,
      "v": 100
    },
    {
      "midi": 69,
      "hit": false,
      "t": 53597.61100000008,
      "d": 365.85399999999936,
      "v": 100
    },
    {
      "midi": 64,
      "hit": false,
      "t": 53597.61100000008,
      "d": 365.85399999999936,
      "v": 100
    },
    {
      "midi": 61,
      "hit": false,
      "t": 53597.61100000008,
      "d": 365.85399999999936,
      "v": 100
    },
    {
      "midi": 57,
      "hit": false,
      "t": 53597.61100000008,
      "d": 365.85399999999936,
      "v": 100
    },
    {
      "midi": 52,
      "hit": false,
      "t": 53597.61100000008,
      "d": 365.85399999999936,
      "v": 100
    },
    {
      "midi": 69,
      "hit": false,
      "t": 53597.61100000008,
      "d": 365.85399999999936,
      "v": 100
    },
    {
      "midi": 46,
      "hit": false,
      "t": 53597.61100000025,
      "d": 182.92700000000332,
      "v": 80
    },
    {
      "midi": 33,
      "hit": false,
      "t": 53597.61100000027,
      "d": 182.92700000000332,
      "v": 100
    },
    {
      "midi": 61,
      "hit": false,
      "t": 53780.53799999995,
      "d": 548.7810000000027,
      "v": 100
    },
    {
      "midi": 57,
      "hit": false,
      "t": 53780.53799999995,
      "d": 548.7810000000027,
      "v": 100
    },
    {
      "midi": 46,
      "hit": false,
      "t": 53780.538000000255,
      "d": 182.92700000000332,
      "v": 80
    },
    {
      "midi": 36,
      "hit": false,
      "t": 53780.538000000255,
      "d": 182.92700000000332,
      "v": 100
    },
    {
      "midi": 33,
      "hit": false,
      "t": 53780.53800000028,
      "d": 182.92700000000332,
      "v": 100
    },
    {
      "midi": 61,
      "hit": false,
      "t": 53963.46500000008,
      "d": 182.92700000000332,
      "v": 100
    },
    {
      "midi": 69,
      "hit": false,
      "t": 53963.46500000008,
      "d": 182.92700000000332,
      "v": 100
    },
    {
      "midi": 64,
      "hit": false,
      "t": 53963.46500000008,
      "d": 182.92700000000332,
      "v": 100
    },
    {
      "midi": 52,
      "hit": false,
      "t": 53963.46500000008,
      "d": 182.92700000000332,
      "v": 100
    },
    {
      "midi": 57,
      "hit": false,
      "t": 53963.46500000008,
      "d": 182.92700000000332,
      "v": 100
    },
    {
      "midi": 61,
      "hit": false,
      "t": 53963.46500000008,
      "d": 182.92700000000332,
      "v": 100
    },
    {
      "midi": 69,
      "hit": false,
      "t": 53963.46500000008,
      "d": 182.92700000000332,
      "v": 100
    },
    {
      "midi": 64,
      "hit": false,
      "t": 53963.46500000008,
      "d": 182.92700000000332,
      "v": 100
    },
    {
      "midi": 52,
      "hit": false,
      "t": 53963.46500000008,
      "d": 182.92700000000332,
      "v": 100
    },
    {
      "midi": 57,
      "hit": false,
      "t": 53963.46500000008,
      "d": 182.92700000000332,
      "v": 100
    },
    {
      "midi": 36,
      "hit": false,
      "t": 53963.46500000026,
      "d": 182.92700000000332,
      "v": 100
    },
    {
      "midi": 46,
      "hit": false,
      "t": 53963.46500000026,
      "d": 182.92700000000332,
      "v": 80
    },
    {
      "midi": 33,
      "hit": false,
      "t": 53963.46500000028,
      "d": 182.92700000000332,
      "v": 100
    },
    {
      "midi": 52,
      "hit": false,
      "t": 54146.39200000008,
      "d": 182.92700000000332,
      "v": 100
    },
    {
      "midi": 61,
      "hit": false,
      "t": 54146.39200000008,
      "d": 182.92700000000332,
      "v": 100
    },
    {
      "midi": 64,
      "hit": false,
      "t": 54146.39200000008,
      "d": 182.92700000000332,
      "v": 100
    },
    {
      "midi": 69,
      "hit": false,
      "t": 54146.39200000008,
      "d": 182.92700000000332,
      "v": 100
    },
    {
      "midi": 57,
      "hit": false,
      "t": 54146.39200000008,
      "d": 182.92700000000332,
      "v": 100
    },
    {
      "midi": 52,
      "hit": false,
      "t": 54146.39200000008,
      "d": 182.92700000000332,
      "v": 100
    },
    {
      "midi": 61,
      "hit": false,
      "t": 54146.39200000008,
      "d": 182.92700000000332,
      "v": 100
    },
    {
      "midi": 64,
      "hit": false,
      "t": 54146.39200000008,
      "d": 182.92700000000332,
      "v": 100
    },
    {
      "midi": 69,
      "hit": false,
      "t": 54146.39200000008,
      "d": 182.92700000000332,
      "v": 100
    },
    {
      "midi": 57,
      "hit": false,
      "t": 54146.39200000008,
      "d": 182.92700000000332,
      "v": 100
    },
    {
      "midi": 46,
      "hit": false,
      "t": 54146.39200000026,
      "d": 182.92700000000332,
      "v": 80
    },
    {
      "midi": 40,
      "hit": false,
      "t": 54146.39200000026,
      "d": 365.85400000000664,
      "v": 100
    },
    {
      "midi": 33,
      "hit": false,
      "t": 54146.39200000028,
      "d": 182.92700000000332,
      "v": 100
    },
    {
      "midi": 64,
      "hit": false,
      "t": 54329.31900000008,
      "d": 182.92700000000332,
      "v": 100
    },
    {
      "midi": 61,
      "hit": false,
      "t": 54329.31900000008,
      "d": 182.92700000000332,
      "v": 100
    },
    {
      "midi": 52,
      "hit": false,
      "t": 54329.31900000008,
      "d": 182.92700000000332,
      "v": 100
    },
    {
      "midi": 57,
      "hit": false,
      "t": 54329.31900000008,
      "d": 182.92700000000332,
      "v": 100
    },
    {
      "midi": 69,
      "hit": false,
      "t": 54329.31900000008,
      "d": 182.92700000000332,
      "v": 100
    },
    {
      "midi": 64,
      "hit": false,
      "t": 54329.31900000008,
      "d": 182.92700000000332,
      "v": 100
    },
    {
      "midi": 61,
      "hit": false,
      "t": 54329.31900000008,
      "d": 182.92700000000332,
      "v": 100
    },
    {
      "midi": 52,
      "hit": false,
      "t": 54329.31900000008,
      "d": 182.92700000000332,
      "v": 100
    },
    {
      "midi": 57,
      "hit": false,
      "t": 54329.31900000008,
      "d": 182.92700000000332,
      "v": 100
    },
    {
      "midi": 69,
      "hit": false,
      "t": 54329.31900000008,
      "d": 182.92700000000332,
      "v": 100
    },
    {
      "midi": 46,
      "hit": false,
      "t": 54329.319000000265,
      "d": 182.92700000000332,
      "v": 80
    },
    {
      "midi": 33,
      "hit": false,
      "t": 54329.31900000029,
      "d": 182.92700000000332,
      "v": 100
    },
    {
      "midi": 61,
      "hit": false,
      "t": 54512.245999999956,
      "d": 365.85399999999936,
      "v": 100
    },
    {
      "midi": 57,
      "hit": false,
      "t": 54512.245999999956,
      "d": 365.85399999999936,
      "v": 100
    },
    {
      "midi": 64,
      "hit": false,
      "t": 54512.24600000009,
      "d": 182.92700000000332,
      "v": 100
    },
    {
      "midi": 57,
      "hit": false,
      "t": 54512.24600000009,
      "d": 182.92700000000332,
      "v": 100
    },
    {
      "midi": 52,
      "hit": false,
      "t": 54512.24600000009,
      "d": 182.92700000000332,
      "v": 100
    },
    {
      "midi": 69,
      "hit": false,
      "t": 54512.24600000009,
      "d": 182.92700000000332,
      "v": 100
    },
    {
      "midi": 61,
      "hit": false,
      "t": 54512.24600000009,
      "d": 182.92700000000332,
      "v": 100
    },
    {
      "midi": 64,
      "hit": false,
      "t": 54512.24600000009,
      "d": 182.92700000000332,
      "v": 100
    },
    {
      "midi": 57,
      "hit": false,
      "t": 54512.24600000009,
      "d": 182.92700000000332,
      "v": 100
    },
    {
      "midi": 52,
      "hit": false,
      "t": 54512.24600000009,
      "d": 182.92700000000332,
      "v": 100
    },
    {
      "midi": 69,
      "hit": false,
      "t": 54512.24600000009,
      "d": 182.92700000000332,
      "v": 100
    },
    {
      "midi": 61,
      "hit": false,
      "t": 54512.24600000009,
      "d": 182.92700000000332,
      "v": 100
    },
    {
      "midi": 46,
      "hit": false,
      "t": 54512.24600000027,
      "d": 182.92700000000332,
      "v": 80
    },
    {
      "midi": 36,
      "hit": false,
      "t": 54512.24600000027,
      "d": 365.85400000000664,
      "v": 100
    },
    {
      "midi": 33,
      "hit": false,
      "t": 54512.24600000029,
      "d": 182.92700000000332,
      "v": 100
    },
    {
      "midi": 61,
      "hit": false,
      "t": 54695.17300000009,
      "d": 182.92700000000332,
      "v": 100
    },
    {
      "midi": 57,
      "hit": false,
      "t": 54695.17300000009,
      "d": 182.92700000000332,
      "v": 100
    },
    {
      "midi": 64,
      "hit": false,
      "t": 54695.17300000009,
      "d": 182.92700000000332,
      "v": 100
    },
    {
      "midi": 69,
      "hit": false,
      "t": 54695.17300000009,
      "d": 182.92700000000332,
      "v": 100
    },
    {
      "midi": 52,
      "hit": false,
      "t": 54695.17300000009,
      "d": 182.92700000000332,
      "v": 100
    },
    {
      "midi": 61,
      "hit": false,
      "t": 54695.17300000009,
      "d": 182.92700000000332,
      "v": 100
    },
    {
      "midi": 57,
      "hit": false,
      "t": 54695.17300000009,
      "d": 182.92700000000332,
      "v": 100
    },
    {
      "midi": 64,
      "hit": false,
      "t": 54695.17300000009,
      "d": 182.92700000000332,
      "v": 100
    },
    {
      "midi": 69,
      "hit": false,
      "t": 54695.17300000009,
      "d": 182.92700000000332,
      "v": 100
    },
    {
      "midi": 52,
      "hit": false,
      "t": 54695.17300000009,
      "d": 182.92700000000332,
      "v": 100
    },
    {
      "midi": 46,
      "hit": false,
      "t": 54695.17300000027,
      "d": 182.92700000000332,
      "v": 80
    },
    {
      "midi": 33,
      "hit": false,
      "t": 54695.17300000029,
      "d": 182.92700000000332,
      "v": 100
    },
    {
      "midi": 69,
      "hit": false,
      "t": 54878.099999999955,
      "d": 365.85399999999936,
      "v": 100
    },
    {
      "midi": 65,
      "hit": false,
      "t": 54878.099999999955,
      "d": 365.85399999999936,
      "v": 100
    },
    {
      "midi": 64,
      "hit": false,
      "t": 54878.10000000009,
      "d": 182.92700000000332,
      "v": 100
    },
    {
      "midi": 52,
      "hit": false,
      "t": 54878.10000000009,
      "d": 182.92700000000332,
      "v": 100
    },
    {
      "midi": 57,
      "hit": false,
      "t": 54878.10000000009,
      "d": 182.92700000000332,
      "v": 100
    },
    {
      "midi": 69,
      "hit": false,
      "t": 54878.10000000009,
      "d": 182.92700000000332,
      "v": 100
    },
    {
      "midi": 61,
      "hit": false,
      "t": 54878.10000000009,
      "d": 182.92700000000332,
      "v": 100
    },
    {
      "midi": 64,
      "hit": false,
      "t": 54878.10000000009,
      "d": 182.92700000000332,
      "v": 100
    },
    {
      "midi": 52,
      "hit": false,
      "t": 54878.10000000009,
      "d": 182.92700000000332,
      "v": 100
    },
    {
      "midi": 57,
      "hit": false,
      "t": 54878.10000000009,
      "d": 182.92700000000332,
      "v": 100
    },
    {
      "midi": 69,
      "hit": false,
      "t": 54878.10000000009,
      "d": 182.92700000000332,
      "v": 100
    },
    {
      "midi": 61,
      "hit": false,
      "t": 54878.10000000009,
      "d": 182.92700000000332,
      "v": 100
    },
    {
      "midi": 40,
      "hit": false,
      "t": 54878.100000000275,
      "d": 182.92700000000332,
      "v": 100
    },
    {
      "midi": 46,
      "hit": false,
      "t": 54878.100000000275,
      "d": 182.92700000000332,
      "v": 80
    },
    {
      "midi": 33,
      "hit": false,
      "t": 54878.1000000003,
      "d": 182.92700000000332,
      "v": 100
    },
    {
      "midi": 57,
      "hit": false,
      "t": 55061.0270000001,
      "d": 365.85399999999936,
      "v": 100
    },
    {
      "midi": 69,
      "hit": false,
      "t": 55061.0270000001,
      "d": 365.85399999999936,
      "v": 100
    },
    {
      "midi": 61,
      "hit": false,
      "t": 55061.0270000001,
      "d": 365.85399999999936,
      "v": 100
    },
    {
      "midi": 52,
      "hit": false,
      "t": 55061.0270000001,
      "d": 365.85399999999936,
      "v": 100
    },
    {
      "midi": 64,
      "hit": false,
      "t": 55061.0270000001,
      "d": 365.85399999999936,
      "v": 100
    },
    {
      "midi": 57,
      "hit": false,
      "t": 55061.0270000001,
      "d": 365.85399999999936,
      "v": 100
    },
    {
      "midi": 69,
      "hit": false,
      "t": 55061.0270000001,
      "d": 365.85399999999936,
      "v": 100
    },
    {
      "midi": 61,
      "hit": false,
      "t": 55061.0270000001,
      "d": 365.85399999999936,
      "v": 100
    },
    {
      "midi": 52,
      "hit": false,
      "t": 55061.0270000001,
      "d": 365.85399999999936,
      "v": 100
    },
    {
      "midi": 64,
      "hit": false,
      "t": 55061.0270000001,
      "d": 365.85399999999936,
      "v": 100
    },
    {
      "midi": 46,
      "hit": false,
      "t": 55061.02700000028,
      "d": 182.92700000000332,
      "v": 80
    },
    {
      "midi": 36,
      "hit": false,
      "t": 55061.02700000028,
      "d": 365.85400000000664,
      "v": 100
    },
    {
      "midi": 33,
      "hit": false,
      "t": 55061.0270000003,
      "d": 182.92700000000332,
      "v": 100
    },
    {
      "midi": 67,
      "hit": false,
      "t": 55243.953999999954,
      "d": 365.85399999999936,
      "v": 100
    },
    {
      "midi": 64,
      "hit": false,
      "t": 55243.953999999954,
      "d": 365.85399999999936,
      "v": 100
    },
    {
      "midi": 46,
      "hit": false,
      "t": 55243.95400000028,
      "d": 182.92700000000332,
      "v": 80
    },
    {
      "midi": 33,
      "hit": false,
      "t": 55243.9540000003,
      "d": 182.92700000000332,
      "v": 100
    },
    {
      "midi": 69,
      "hit": false,
      "t": 55426.881000000096,
      "d": 182.92700000000332,
      "v": 100
    },
    {
      "midi": 52,
      "hit": false,
      "t": 55426.881000000096,
      "d": 182.92700000000332,
      "v": 100
    },
    {
      "midi": 64,
      "hit": false,
      "t": 55426.881000000096,
      "d": 182.92700000000332,
      "v": 100
    },
    {
      "midi": 57,
      "hit": false,
      "t": 55426.881000000096,
      "d": 182.92700000000332,
      "v": 100
    },
    {
      "midi": 61,
      "hit": false,
      "t": 55426.881000000096,
      "d": 182.92700000000332,
      "v": 100
    },
    {
      "midi": 69,
      "hit": false,
      "t": 55426.881000000096,
      "d": 182.92700000000332,
      "v": 100
    },
    {
      "midi": 52,
      "hit": false,
      "t": 55426.881000000096,
      "d": 182.92700000000332,
      "v": 100
    },
    {
      "midi": 64,
      "hit": false,
      "t": 55426.881000000096,
      "d": 182.92700000000332,
      "v": 100
    },
    {
      "midi": 57,
      "hit": false,
      "t": 55426.881000000096,
      "d": 182.92700000000332,
      "v": 100
    },
    {
      "midi": 61,
      "hit": false,
      "t": 55426.881000000096,
      "d": 182.92700000000332,
      "v": 100
    },
    {
      "midi": 36,
      "hit": false,
      "t": 55426.881000000285,
      "d": 182.92700000000332,
      "v": 100
    },
    {
      "midi": 46,
      "hit": false,
      "t": 55426.881000000285,
      "d": 182.92700000000332,
      "v": 80
    },
    {
      "midi": 33,
      "hit": false,
      "t": 55426.88100000031,
      "d": 182.92700000000332,
      "v": 100
    },
    {
      "midi": 65,
      "hit": false,
      "t": 55609.80799999995,
      "d": 365.85399999999936,
      "v": 100
    },
    {
      "midi": 62,
      "hit": false,
      "t": 55609.80799999995,
      "d": 365.85399999999936,
      "v": 100
    },
    {
      "midi": 61,
      "hit": false,
      "t": 55609.8080000001,
      "d": 182.92700000000332,
      "v": 100
    },
    {
      "midi": 69,
      "hit": false,
      "t": 55609.8080000001,
      "d": 182.92700000000332,
      "v": 100
    },
    {
      "midi": 57,
      "hit": false,
      "t": 55609.8080000001,
      "d": 182.92700000000332,
      "v": 100
    },
    {
      "midi": 52,
      "hit": false,
      "t": 55609.8080000001,
      "d": 182.92700000000332,
      "v": 100
    },
    {
      "midi": 64,
      "hit": false,
      "t": 55609.8080000001,
      "d": 182.92700000000332,
      "v": 100
    },
    {
      "midi": 61,
      "hit": false,
      "t": 55609.8080000001,
      "d": 182.92700000000332,
      "v": 100
    },
    {
      "midi": 69,
      "hit": false,
      "t": 55609.8080000001,
      "d": 182.92700000000332,
      "v": 100
    },
    {
      "midi": 57,
      "hit": false,
      "t": 55609.8080000001,
      "d": 182.92700000000332,
      "v": 100
    },
    {
      "midi": 52,
      "hit": false,
      "t": 55609.8080000001,
      "d": 182.92700000000332,
      "v": 100
    },
    {
      "midi": 64,
      "hit": false,
      "t": 55609.8080000001,
      "d": 182.92700000000332,
      "v": 100
    },
    {
      "midi": 46,
      "hit": false,
      "t": 55609.80800000029,
      "d": 182.92700000000332,
      "v": 80
    },
    {
      "midi": 40,
      "hit": false,
      "t": 55609.80800000029,
      "d": 365.85400000000664,
      "v": 100
    },
    {
      "midi": 36,
      "hit": false,
      "t": 55609.80800000031,
      "d": 182.92700000000332,
      "v": 100
    },
    {
      "midi": 52,
      "hit": false,
      "t": 55792.7350000001,
      "d": 182.92700000000332,
      "v": 100
    },
    {
      "midi": 64,
      "hit": false,
      "t": 55792.7350000001,
      "d": 182.92700000000332,
      "v": 100
    },
    {
      "midi": 69,
      "hit": false,
      "t": 55792.7350000001,
      "d": 182.92700000000332,
      "v": 100
    },
    {
      "midi": 57,
      "hit": false,
      "t": 55792.7350000001,
      "d": 182.92700000000332,
      "v": 100
    },
    {
      "midi": 61,
      "hit": false,
      "t": 55792.7350000001,
      "d": 182.92700000000332,
      "v": 100
    },
    {
      "midi": 52,
      "hit": false,
      "t": 55792.7350000001,
      "d": 182.92700000000332,
      "v": 100
    },
    {
      "midi": 64,
      "hit": false,
      "t": 55792.7350000001,
      "d": 182.92700000000332,
      "v": 100
    },
    {
      "midi": 69,
      "hit": false,
      "t": 55792.7350000001,
      "d": 182.92700000000332,
      "v": 100
    },
    {
      "midi": 57,
      "hit": false,
      "t": 55792.7350000001,
      "d": 182.92700000000332,
      "v": 100
    },
    {
      "midi": 61,
      "hit": false,
      "t": 55792.7350000001,
      "d": 182.92700000000332,
      "v": 100
    },
    {
      "midi": 46,
      "hit": false,
      "t": 55792.73500000029,
      "d": 182.92700000000332,
      "v": 80
    },
    {
      "midi": 36,
      "hit": false,
      "t": 55792.73500000031,
      "d": 182.92700000000332,
      "v": 100
    },
    {
      "midi": 67,
      "hit": false,
      "t": 55975.66199999995,
      "d": 274.39050000000134,
      "v": 100
    },
    {
      "midi": 64,
      "hit": false,
      "t": 55975.66199999995,
      "d": 274.39050000000134,
      "v": 100
    },
    {
      "midi": 65,
      "hit": false,
      "t": 55975.662000000106,
      "d": 182.92700000000332,
      "v": 100
    },
    {
      "midi": 57,
      "hit": false,
      "t": 55975.662000000106,
      "d": 182.92700000000332,
      "v": 100
    },
    {
      "midi": 69,
      "hit": false,
      "t": 55975.662000000106,
      "d": 182.92700000000332,
      "v": 100
    },
    {
      "midi": 50,
      "hit": false,
      "t": 55975.662000000106,
      "d": 182.92700000000332,
      "v": 100
    },
    {
      "midi": 62,
      "hit": false,
      "t": 55975.662000000106,
      "d": 182.92700000000332,
      "v": 100
    },
    {
      "midi": 65,
      "hit": false,
      "t": 55975.662000000106,
      "d": 182.92700000000332,
      "v": 100
    },
    {
      "midi": 57,
      "hit": false,
      "t": 55975.662000000106,
      "d": 182.92700000000332,
      "v": 100
    },
    {
      "midi": 69,
      "hit": false,
      "t": 55975.662000000106,
      "d": 182.92700000000332,
      "v": 100
    },
    {
      "midi": 50,
      "hit": false,
      "t": 55975.662000000106,
      "d": 182.92700000000332,
      "v": 100
    },
    {
      "midi": 62,
      "hit": false,
      "t": 55975.662000000106,
      "d": 182.92700000000332,
      "v": 100
    },
    {
      "midi": 46,
      "hit": false,
      "t": 55975.662000000295,
      "d": 182.92700000000332,
      "v": 80
    },
    {
      "midi": 36,
      "hit": false,
      "t": 55975.662000000295,
      "d": 365.85400000000664,
      "v": 100
    },
    {
      "midi": 38,
      "hit": false,
      "t": 55975.66200000032,
      "d": 182.92700000000332,
      "v": 100
    },
    {
      "midi": 69,
      "hit": false,
      "t": 56158.58900000011,
      "d": 182.92700000000332,
      "v": 100
    },
    {
      "midi": 57,
      "hit": false,
      "t": 56158.58900000011,
      "d": 182.92700000000332,
      "v": 100
    },
    {
      "midi": 50,
      "hit": false,
      "t": 56158.58900000011,
      "d": 182.92700000000332,
      "v": 100
    },
    {
      "midi": 62,
      "hit": false,
      "t": 56158.58900000011,
      "d": 182.92700000000332,
      "v": 100
    },
    {
      "midi": 65,
      "hit": false,
      "t": 56158.58900000011,
      "d": 182.92700000000332,
      "v": 100
    },
    {
      "midi": 69,
      "hit": false,
      "t": 56158.58900000011,
      "d": 182.92700000000332,
      "v": 100
    },
    {
      "midi": 57,
      "hit": false,
      "t": 56158.58900000011,
      "d": 182.92700000000332,
      "v": 100
    },
    {
      "midi": 50,
      "hit": false,
      "t": 56158.58900000011,
      "d": 182.92700000000332,
      "v": 100
    },
    {
      "midi": 62,
      "hit": false,
      "t": 56158.58900000011,
      "d": 182.92700000000332,
      "v": 100
    },
    {
      "midi": 65,
      "hit": false,
      "t": 56158.58900000011,
      "d": 182.92700000000332,
      "v": 100
    },
    {
      "midi": 46,
      "hit": false,
      "t": 56158.5890000003,
      "d": 182.92700000000332,
      "v": 80
    },
    {
      "midi": 38,
      "hit": false,
      "t": 56158.58900000032,
      "d": 182.92700000000332,
      "v": 100
    },
    {
      "midi": 65,
      "hit": false,
      "t": 56250.052499999954,
      "d": 274.39050000000134,
      "v": 100
    },
    {
      "midi": 62,
      "hit": false,
      "t": 56250.052499999954,
      "d": 274.39050000000134,
      "v": 100
    },
    {
      "midi": 50,
      "hit": false,
      "t": 56341.51600000011,
      "d": 182.92700000000332,
      "v": 100
    },
    {
      "midi": 65,
      "hit": false,
      "t": 56341.51600000011,
      "d": 182.92700000000332,
      "v": 100
    },
    {
      "midi": 69,
      "hit": false,
      "t": 56341.51600000011,
      "d": 182.92700000000332,
      "v": 100
    },
    {
      "midi": 57,
      "hit": false,
      "t": 56341.51600000011,
      "d": 182.92700000000332,
      "v": 100
    },
    {
      "midi": 62,
      "hit": false,
      "t": 56341.51600000011,
      "d": 182.92700000000332,
      "v": 100
    },
    {
      "midi": 50,
      "hit": false,
      "t": 56341.51600000011,
      "d": 182.92700000000332,
      "v": 100
    },
    {
      "midi": 65,
      "hit": false,
      "t": 56341.51600000011,
      "d": 182.92700000000332,
      "v": 100
    },
    {
      "midi": 69,
      "hit": false,
      "t": 56341.51600000011,
      "d": 182.92700000000332,
      "v": 100
    },
    {
      "midi": 57,
      "hit": false,
      "t": 56341.51600000011,
      "d": 182.92700000000332,
      "v": 100
    },
    {
      "midi": 62,
      "hit": false,
      "t": 56341.51600000011,
      "d": 182.92700000000332,
      "v": 100
    },
    {
      "midi": 40,
      "hit": false,
      "t": 56341.5160000003,
      "d": 182.92700000000332,
      "v": 100
    },
    {
      "midi": 46,
      "hit": false,
      "t": 56341.5160000003,
      "d": 182.92700000000332,
      "v": 80
    },
    {
      "midi": 38,
      "hit": false,
      "t": 56341.51600000032,
      "d": 182.92700000000332,
      "v": 100
    },
    {
      "midi": 64,
      "hit": false,
      "t": 56524.442999999956,
      "d": 182.92700000000332,
      "v": 100
    },
    {
      "midi": 60,
      "hit": false,
      "t": 56524.442999999956,
      "d": 182.92700000000332,
      "v": 100
    },
    {
      "midi": 62,
      "hit": false,
      "t": 56524.443000000116,
      "d": 365.85399999999936,
      "v": 100
    },
    {
      "midi": 57,
      "hit": false,
      "t": 56524.443000000116,
      "d": 365.85399999999936,
      "v": 100
    },
    {
      "midi": 50,
      "hit": false,
      "t": 56524.443000000116,
      "d": 365.85399999999936,
      "v": 100
    },
    {
      "midi": 65,
      "hit": false,
      "t": 56524.443000000116,
      "d": 365.85399999999936,
      "v": 100
    },
    {
      "midi": 69,
      "hit": false,
      "t": 56524.443000000116,
      "d": 365.85399999999936,
      "v": 100
    },
    {
      "midi": 62,
      "hit": false,
      "t": 56524.443000000116,
      "d": 365.85399999999936,
      "v": 100
    },
    {
      "midi": 57,
      "hit": false,
      "t": 56524.443000000116,
      "d": 365.85399999999936,
      "v": 100
    },
    {
      "midi": 50,
      "hit": false,
      "t": 56524.443000000116,
      "d": 365.85399999999936,
      "v": 100
    },
    {
      "midi": 65,
      "hit": false,
      "t": 56524.443000000116,
      "d": 365.85399999999936,
      "v": 100
    },
    {
      "midi": 69,
      "hit": false,
      "t": 56524.443000000116,
      "d": 365.85399999999936,
      "v": 100
    },
    {
      "midi": 46,
      "hit": false,
      "t": 56524.443000000305,
      "d": 182.92700000000332,
      "v": 80
    },
    {
      "midi": 36,
      "hit": false,
      "t": 56524.443000000305,
      "d": 365.85400000000664,
      "v": 100
    },
    {
      "midi": 38,
      "hit": false,
      "t": 56524.44300000033,
      "d": 182.92700000000332,
      "v": 100
    },
    {
      "midi": 65,
      "hit": false,
      "t": 56707.36999999996,
      "d": 548.7810000000027,
      "v": 100
    },
    {
      "midi": 62,
      "hit": false,
      "t": 56707.36999999996,
      "d": 548.7810000000027,
      "v": 100
    },
    {
      "midi": 46,
      "hit": false,
      "t": 56707.37000000031,
      "d": 182.92700000000332,
      "v": 80
    },
    {
      "midi": 38,
      "hit": false,
      "t": 56707.37000000033,
      "d": 182.92700000000332,
      "v": 100
    },
    {
      "midi": 57,
      "hit": false,
      "t": 56890.297000000115,
      "d": 182.92700000000332,
      "v": 100
    },
    {
      "midi": 69,
      "hit": false,
      "t": 56890.297000000115,
      "d": 182.92700000000332,
      "v": 100
    },
    {
      "midi": 50,
      "hit": false,
      "t": 56890.297000000115,
      "d": 182.92700000000332,
      "v": 100
    },
    {
      "midi": 62,
      "hit": false,
      "t": 56890.297000000115,
      "d": 182.92700000000332,
      "v": 100
    },
    {
      "midi": 65,
      "hit": false,
      "t": 56890.297000000115,
      "d": 182.92700000000332,
      "v": 100
    },
    {
      "midi": 57,
      "hit": false,
      "t": 56890.297000000115,
      "d": 182.92700000000332,
      "v": 100
    },
    {
      "midi": 69,
      "hit": false,
      "t": 56890.297000000115,
      "d": 182.92700000000332,
      "v": 100
    },
    {
      "midi": 50,
      "hit": false,
      "t": 56890.297000000115,
      "d": 182.92700000000332,
      "v": 100
    },
    {
      "midi": 62,
      "hit": false,
      "t": 56890.297000000115,
      "d": 182.92700000000332,
      "v": 100
    },
    {
      "midi": 65,
      "hit": false,
      "t": 56890.297000000115,
      "d": 182.92700000000332,
      "v": 100
    },
    {
      "midi": 36,
      "hit": false,
      "t": 56890.29700000031,
      "d": 182.92700000000332,
      "v": 100
    },
    {
      "midi": 46,
      "hit": false,
      "t": 56890.29700000031,
      "d": 182.92700000000332,
      "v": 80
    },
    {
      "midi": 38,
      "hit": false,
      "t": 56890.29700000033,
      "d": 182.92700000000332,
      "v": 100
    },
    {
      "midi": 69,
      "hit": false,
      "t": 57073.22400000012,
      "d": 182.92700000000332,
      "v": 100
    },
    {
      "midi": 50,
      "hit": false,
      "t": 57073.22400000012,
      "d": 182.92700000000332,
      "v": 100
    },
    {
      "midi": 65,
      "hit": false,
      "t": 57073.22400000012,
      "d": 182.92700000000332,
      "v": 100
    },
    {
      "midi": 62,
      "hit": false,
      "t": 57073.22400000012,
      "d": 182.92700000000332,
      "v": 100
    },
    {
      "midi": 57,
      "hit": false,
      "t": 57073.22400000012,
      "d": 182.92700000000332,
      "v": 100
    },
    {
      "midi": 69,
      "hit": false,
      "t": 57073.22400000012,
      "d": 182.92700000000332,
      "v": 100
    },
    {
      "midi": 50,
      "hit": false,
      "t": 57073.22400000012,
      "d": 182.92700000000332,
      "v": 100
    },
    {
      "midi": 65,
      "hit": false,
      "t": 57073.22400000012,
      "d": 182.92700000000332,
      "v": 100
    },
    {
      "midi": 62,
      "hit": false,
      "t": 57073.22400000012,
      "d": 182.92700000000332,
      "v": 100
    },
    {
      "midi": 57,
      "hit": false,
      "t": 57073.22400000012,
      "d": 182.92700000000332,
      "v": 100
    },
    {
      "midi": 46,
      "hit": false,
      "t": 57073.224000000315,
      "d": 182.92700000000332,
      "v": 80
    },
    {
      "midi": 40,
      "hit": false,
      "t": 57073.224000000315,
      "d": 365.85400000000664,
      "v": 100
    },
    {
      "midi": 38,
      "hit": false,
      "t": 57073.22400000034,
      "d": 182.92700000000332,
      "v": 100
    },
    {
      "midi": 65,
      "hit": false,
      "t": 57256.15100000012,
      "d": 182.92700000000332,
      "v": 100
    },
    {
      "midi": 57,
      "hit": false,
      "t": 57256.15100000012,
      "d": 182.92700000000332,
      "v": 100
    },
    {
      "midi": 69,
      "hit": false,
      "t": 57256.15100000012,
      "d": 182.92700000000332,
      "v": 100
    },
    {
      "midi": 50,
      "hit": false,
      "t": 57256.15100000012,
      "d": 182.92700000000332,
      "v": 100
    },
    {
      "midi": 62,
      "hit": false,
      "t": 57256.15100000012,
      "d": 182.92700000000332,
      "v": 100
    },
    {
      "midi": 65,
      "hit": false,
      "t": 57256.15100000012,
      "d": 182.92700000000332,
      "v": 100
    },
    {
      "midi": 57,
      "hit": false,
      "t": 57256.15100000012,
      "d": 182.92700000000332,
      "v": 100
    },
    {
      "midi": 69,
      "hit": false,
      "t": 57256.15100000012,
      "d": 182.92700000000332,
      "v": 100
    },
    {
      "midi": 50,
      "hit": false,
      "t": 57256.15100000012,
      "d": 182.92700000000332,
      "v": 100
    },
    {
      "midi": 62,
      "hit": false,
      "t": 57256.15100000012,
      "d": 182.92700000000332,
      "v": 100
    },
    {
      "midi": 46,
      "hit": false,
      "t": 57256.15100000032,
      "d": 182.92700000000332,
      "v": 80
    },
    {
      "midi": 38,
      "hit": false,
      "t": 57256.15100000034,
      "d": 182.92700000000332,
      "v": 100
    },
    {
      "midi": 67,
      "hit": false,
      "t": 57439.077999999965,
      "d": 274.39050000000134,
      "v": 100
    },
    {
      "midi": 64,
      "hit": false,
      "t": 57439.077999999965,
      "d": 274.39050000000134,
      "v": 100
    },
    {
      "midi": 57,
      "hit": false,
      "t": 57439.078000000125,
      "d": 182.92700000000332,
      "v": 100
    },
    {
      "midi": 69,
      "hit": false,
      "t": 57439.078000000125,
      "d": 182.92700000000332,
      "v": 100
    },
    {
      "midi": 50,
      "hit": false,
      "t": 57439.078000000125,
      "d": 182.92700000000332,
      "v": 100
    },
    {
      "midi": 62,
      "hit": false,
      "t": 57439.078000000125,
      "d": 182.92700000000332,
      "v": 100
    },
    {
      "midi": 65,
      "hit": false,
      "t": 57439.078000000125,
      "d": 182.92700000000332,
      "v": 100
    },
    {
      "midi": 57,
      "hit": false,
      "t": 57439.078000000125,
      "d": 182.92700000000332,
      "v": 100
    },
    {
      "midi": 69,
      "hit": false,
      "t": 57439.078000000125,
      "d": 182.92700000000332,
      "v": 100
    },
    {
      "midi": 50,
      "hit": false,
      "t": 57439.078000000125,
      "d": 182.92700000000332,
      "v": 100
    },
    {
      "midi": 62,
      "hit": false,
      "t": 57439.078000000125,
      "d": 182.92700000000332,
      "v": 100
    },
    {
      "midi": 65,
      "hit": false,
      "t": 57439.078000000125,
      "d": 182.92700000000332,
      "v": 100
    },
    {
      "midi": 46,
      "hit": false,
      "t": 57439.07800000032,
      "d": 182.92700000000332,
      "v": 80
    },
    {
      "midi": 36,
      "hit": false,
      "t": 57439.07800000032,
      "d": 365.85400000000664,
      "v": 100
    },
    {
      "midi": 38,
      "hit": false,
      "t": 57439.07800000034,
      "d": 182.92700000000332,
      "v": 100
    },
    {
      "midi": 62,
      "hit": false,
      "t": 57622.00500000013,
      "d": 182.92700000000332,
      "v": 100
    },
    {
      "midi": 57,
      "hit": false,
      "t": 57622.00500000013,
      "d": 182.92700000000332,
      "v": 100
    },
    {
      "midi": 65,
      "hit": false,
      "t": 57622.00500000013,
      "d": 182.92700000000332,
      "v": 100
    },
    {
      "midi": 69,
      "hit": false,
      "t": 57622.00500000013,
      "d": 182.92700000000332,
      "v": 100
    },
    {
      "midi": 50,
      "hit": false,
      "t": 57622.00500000013,
      "d": 182.92700000000332,
      "v": 100
    },
    {
      "midi": 62,
      "hit": false,
      "t": 57622.00500000013,
      "d": 182.92700000000332,
      "v": 100
    },
    {
      "midi": 57,
      "hit": false,
      "t": 57622.00500000013,
      "d": 182.92700000000332,
      "v": 100
    },
    {
      "midi": 65,
      "hit": false,
      "t": 57622.00500000013,
      "d": 182.92700000000332,
      "v": 100
    },
    {
      "midi": 69,
      "hit": false,
      "t": 57622.00500000013,
      "d": 182.92700000000332,
      "v": 100
    },
    {
      "midi": 50,
      "hit": false,
      "t": 57622.00500000013,
      "d": 182.92700000000332,
      "v": 100
    },
    {
      "midi": 46,
      "hit": false,
      "t": 57622.005000000325,
      "d": 182.92700000000332,
      "v": 80
    },
    {
      "midi": 38,
      "hit": false,
      "t": 57622.00500000035,
      "d": 182.92700000000332,
      "v": 100
    },
    {
      "midi": 65,
      "hit": false,
      "t": 57713.468499999966,
      "d": 274.39050000000134,
      "v": 100
    },
    {
      "midi": 62,
      "hit": false,
      "t": 57713.468499999966,
      "d": 274.39050000000134,
      "v": 100
    },
    {
      "midi": 50,
      "hit": false,
      "t": 57804.93200000013,
      "d": 182.92700000000332,
      "v": 100
    },
    {
      "midi": 62,
      "hit": false,
      "t": 57804.93200000013,
      "d": 182.92700000000332,
      "v": 100
    },
    {
      "midi": 69,
      "hit": false,
      "t": 57804.93200000013,
      "d": 182.92700000000332,
      "v": 100
    },
    {
      "midi": 65,
      "hit": false,
      "t": 57804.93200000013,
      "d": 182.92700000000332,
      "v": 100
    },
    {
      "midi": 57,
      "hit": false,
      "t": 57804.93200000013,
      "d": 182.92700000000332,
      "v": 100
    },
    {
      "midi": 50,
      "hit": false,
      "t": 57804.93200000013,
      "d": 182.92700000000332,
      "v": 100
    },
    {
      "midi": 62,
      "hit": false,
      "t": 57804.93200000013,
      "d": 182.92700000000332,
      "v": 100
    },
    {
      "midi": 69,
      "hit": false,
      "t": 57804.93200000013,
      "d": 182.92700000000332,
      "v": 100
    },
    {
      "midi": 65,
      "hit": false,
      "t": 57804.93200000013,
      "d": 182.92700000000332,
      "v": 100
    },
    {
      "midi": 57,
      "hit": false,
      "t": 57804.93200000013,
      "d": 182.92700000000332,
      "v": 100
    },
    {
      "midi": 40,
      "hit": false,
      "t": 57804.93200000033,
      "d": 182.92700000000332,
      "v": 100
    },
    {
      "midi": 46,
      "hit": false,
      "t": 57804.93200000033,
      "d": 182.92700000000332,
      "v": 80
    },
    {
      "midi": 38,
      "hit": false,
      "t": 57804.93200000035,
      "d": 182.92700000000332,
      "v": 100
    },
    {
      "midi": 64,
      "hit": false,
      "t": 57987.85899999997,
      "d": 182.92700000000332,
      "v": 100
    },
    {
      "midi": 60,
      "hit": false,
      "t": 57987.85899999997,
      "d": 182.92700000000332,
      "v": 100
    },
    {
      "midi": 65,
      "hit": false,
      "t": 57987.859000000135,
      "d": 365.85399999999936,
      "v": 100
    },
    {
      "midi": 62,
      "hit": false,
      "t": 57987.859000000135,
      "d": 365.85399999999936,
      "v": 100
    },
    {
      "midi": 69,
      "hit": false,
      "t": 57987.859000000135,
      "d": 365.85399999999936,
      "v": 100
    },
    {
      "midi": 50,
      "hit": false,
      "t": 57987.859000000135,
      "d": 365.85399999999936,
      "v": 100
    },
    {
      "midi": 57,
      "hit": false,
      "t": 57987.859000000135,
      "d": 365.85399999999936,
      "v": 100
    },
    {
      "midi": 65,
      "hit": false,
      "t": 57987.859000000135,
      "d": 365.85399999999936,
      "v": 100
    },
    {
      "midi": 62,
      "hit": false,
      "t": 57987.859000000135,
      "d": 365.85399999999936,
      "v": 100
    },
    {
      "midi": 69,
      "hit": false,
      "t": 57987.859000000135,
      "d": 365.85399999999936,
      "v": 100
    },
    {
      "midi": 50,
      "hit": false,
      "t": 57987.859000000135,
      "d": 365.85399999999936,
      "v": 100
    },
    {
      "midi": 57,
      "hit": false,
      "t": 57987.859000000135,
      "d": 365.85399999999936,
      "v": 100
    },
    {
      "midi": 46,
      "hit": false,
      "t": 57987.85900000033,
      "d": 182.92700000000332,
      "v": 80
    },
    {
      "midi": 36,
      "hit": false,
      "t": 57987.85900000033,
      "d": 365.85400000000664,
      "v": 100
    },
    {
      "midi": 38,
      "hit": false,
      "t": 57987.85900000035,
      "d": 182.92700000000332,
      "v": 100
    },
    {
      "midi": 65,
      "hit": false,
      "t": 58170.78599999997,
      "d": 365.85399999999936,
      "v": 100
    },
    {
      "midi": 62,
      "hit": false,
      "t": 58170.78599999997,
      "d": 365.85399999999936,
      "v": 100
    },
    {
      "midi": 46,
      "hit": false,
      "t": 58170.786000000335,
      "d": 182.92700000000332,
      "v": 80
    },
    {
      "midi": 38,
      "hit": false,
      "t": 58170.78600000036,
      "d": 182.92700000000332,
      "v": 100
    },
    {
      "midi": 50,
      "hit": false,
      "t": 58353.713000000134,
      "d": 182.92700000000332,
      "v": 100
    },
    {
      "midi": 57,
      "hit": false,
      "t": 58353.713000000134,
      "d": 182.92700000000332,
      "v": 100
    },
    {
      "midi": 65,
      "hit": false,
      "t": 58353.713000000134,
      "d": 182.92700000000332,
      "v": 100
    },
    {
      "midi": 62,
      "hit": false,
      "t": 58353.713000000134,
      "d": 182.92700000000332,
      "v": 100
    },
    {
      "midi": 69,
      "hit": false,
      "t": 58353.713000000134,
      "d": 182.92700000000332,
      "v": 100
    },
    {
      "midi": 50,
      "hit": false,
      "t": 58353.713000000134,
      "d": 182.92700000000332,
      "v": 100
    },
    {
      "midi": 57,
      "hit": false,
      "t": 58353.713000000134,
      "d": 182.92700000000332,
      "v": 100
    },
    {
      "midi": 65,
      "hit": false,
      "t": 58353.713000000134,
      "d": 182.92700000000332,
      "v": 100
    },
    {
      "midi": 62,
      "hit": false,
      "t": 58353.713000000134,
      "d": 182.92700000000332,
      "v": 100
    },
    {
      "midi": 69,
      "hit": false,
      "t": 58353.713000000134,
      "d": 182.92700000000332,
      "v": 100
    },
    {
      "midi": 36,
      "hit": false,
      "t": 58353.71300000034,
      "d": 182.92700000000332,
      "v": 100
    },
    {
      "midi": 46,
      "hit": false,
      "t": 58353.71300000034,
      "d": 182.92700000000332,
      "v": 80
    },
    {
      "midi": 38,
      "hit": false,
      "t": 58353.71300000036,
      "d": 182.92700000000332,
      "v": 100
    },
    {
      "midi": 67,
      "hit": false,
      "t": 58536.63999999997,
      "d": 365.85399999999936,
      "v": 100
    },
    {
      "midi": 64,
      "hit": false,
      "t": 58536.63999999997,
      "d": 365.85399999999936,
      "v": 100
    },
    {
      "midi": 65,
      "hit": false,
      "t": 58536.64000000014,
      "d": 182.92700000000332,
      "v": 100
    },
    {
      "midi": 57,
      "hit": false,
      "t": 58536.64000000014,
      "d": 182.92700000000332,
      "v": 100
    },
    {
      "midi": 50,
      "hit": false,
      "t": 58536.64000000014,
      "d": 182.92700000000332,
      "v": 100
    },
    {
      "midi": 69,
      "hit": false,
      "t": 58536.64000000014,
      "d": 182.92700000000332,
      "v": 100
    },
    {
      "midi": 62,
      "hit": false,
      "t": 58536.64000000014,
      "d": 182.92700000000332,
      "v": 100
    },
    {
      "midi": 65,
      "hit": false,
      "t": 58536.64000000014,
      "d": 182.92700000000332,
      "v": 100
    },
    {
      "midi": 57,
      "hit": false,
      "t": 58536.64000000014,
      "d": 182.92700000000332,
      "v": 100
    },
    {
      "midi": 50,
      "hit": false,
      "t": 58536.64000000014,
      "d": 182.92700000000332,
      "v": 100
    },
    {
      "midi": 69,
      "hit": false,
      "t": 58536.64000000014,
      "d": 182.92700000000332,
      "v": 100
    },
    {
      "midi": 62,
      "hit": false,
      "t": 58536.64000000014,
      "d": 182.92700000000332,
      "v": 100
    },
    {
      "midi": 46,
      "hit": false,
      "t": 58536.64000000034,
      "d": 182.92700000000332,
      "v": 80
    },
    {
      "midi": 40,
      "hit": false,
      "t": 58536.64000000034,
      "d": 365.85400000000664,
      "v": 100
    },
    {
      "midi": 38,
      "hit": false,
      "t": 58536.64000000036,
      "d": 182.92700000000332,
      "v": 100
    },
    {
      "midi": 65,
      "hit": false,
      "t": 58719.56700000014,
      "d": 182.92700000000332,
      "v": 100
    },
    {
      "midi": 62,
      "hit": false,
      "t": 58719.56700000014,
      "d": 182.92700000000332,
      "v": 100
    },
    {
      "midi": 50,
      "hit": false,
      "t": 58719.56700000014,
      "d": 182.92700000000332,
      "v": 100
    },
    {
      "midi": 69,
      "hit": false,
      "t": 58719.56700000014,
      "d": 182.92700000000332,
      "v": 100
    },
    {
      "midi": 57,
      "hit": false,
      "t": 58719.56700000014,
      "d": 182.92700000000332,
      "v": 100
    },
    {
      "midi": 65,
      "hit": false,
      "t": 58719.56700000014,
      "d": 182.92700000000332,
      "v": 100
    },
    {
      "midi": 62,
      "hit": false,
      "t": 58719.56700000014,
      "d": 182.92700000000332,
      "v": 100
    },
    {
      "midi": 50,
      "hit": false,
      "t": 58719.56700000014,
      "d": 182.92700000000332,
      "v": 100
    },
    {
      "midi": 69,
      "hit": false,
      "t": 58719.56700000014,
      "d": 182.92700000000332,
      "v": 100
    },
    {
      "midi": 57,
      "hit": false,
      "t": 58719.56700000014,
      "d": 182.92700000000332,
      "v": 100
    },
    {
      "midi": 46,
      "hit": false,
      "t": 58719.567000000345,
      "d": 182.92700000000332,
      "v": 80
    },
    {
      "midi": 38,
      "hit": false,
      "t": 58719.56700000037,
      "d": 182.92700000000332,
      "v": 100
    },
    {
      "midi": 70,
      "hit": false,
      "t": 58902.49399999997,
      "d": 548.7810000000027,
      "v": 100
    },
    {
      "midi": 67,
      "hit": false,
      "t": 58902.49399999997,
      "d": 548.7810000000027,
      "v": 100
    },
    {
      "midi": 62,
      "hit": false,
      "t": 58902.494000000144,
      "d": 182.92700000000332,
      "v": 100
    },
    {
      "midi": 53,
      "hit": false,
      "t": 58902.494000000144,
      "d": 182.92700000000332,
      "v": 100
    },
    {
      "midi": 65,
      "hit": false,
      "t": 58902.494000000144,
      "d": 182.92700000000332,
      "v": 100
    },
    {
      "midi": 46,
      "hit": false,
      "t": 58902.494000000144,
      "d": 182.92700000000332,
      "v": 100
    },
    {
      "midi": 58,
      "hit": false,
      "t": 58902.494000000144,
      "d": 182.92700000000332,
      "v": 100
    },
    {
      "midi": 62,
      "hit": false,
      "t": 58902.494000000144,
      "d": 182.92700000000332,
      "v": 100
    },
    {
      "midi": 53,
      "hit": false,
      "t": 58902.494000000144,
      "d": 182.92700000000332,
      "v": 100
    },
    {
      "midi": 65,
      "hit": false,
      "t": 58902.494000000144,
      "d": 182.92700000000332,
      "v": 100
    },
    {
      "midi": 46,
      "hit": false,
      "t": 58902.494000000144,
      "d": 182.92700000000332,
      "v": 100
    },
    {
      "midi": 58,
      "hit": false,
      "t": 58902.494000000144,
      "d": 182.92700000000332,
      "v": 100
    },
    {
      "midi": 46,
      "hit": false,
      "t": 58902.49400000035,
      "d": 182.92700000000332,
      "v": 80
    },
    {
      "midi": 36,
      "hit": false,
      "t": 58902.49400000035,
      "d": 365.85400000000664,
      "v": 100
    },
    {
      "midi": 34,
      "hit": false,
      "t": 58902.49400000037,
      "d": 182.92700000000332,
      "v": 100
    },
    {
      "midi": 62,
      "hit": false,
      "t": 59085.42100000015,
      "d": 182.92700000000332,
      "v": 100
    },
    {
      "midi": 65,
      "hit": false,
      "t": 59085.42100000015,
      "d": 182.92700000000332,
      "v": 100
    },
    {
      "midi": 58,
      "hit": false,
      "t": 59085.42100000015,
      "d": 182.92700000000332,
      "v": 100
    },
    {
      "midi": 53,
      "hit": false,
      "t": 59085.42100000015,
      "d": 182.92700000000332,
      "v": 100
    },
    {
      "midi": 46,
      "hit": false,
      "t": 59085.42100000015,
      "d": 182.92700000000332,
      "v": 100
    },
    {
      "midi": 62,
      "hit": false,
      "t": 59085.42100000015,
      "d": 182.92700000000332,
      "v": 100
    },
    {
      "midi": 65,
      "hit": false,
      "t": 59085.42100000015,
      "d": 182.92700000000332,
      "v": 100
    },
    {
      "midi": 58,
      "hit": false,
      "t": 59085.42100000015,
      "d": 182.92700000000332,
      "v": 100
    },
    {
      "midi": 53,
      "hit": false,
      "t": 59085.42100000015,
      "d": 182.92700000000332,
      "v": 100
    },
    {
      "midi": 46,
      "hit": false,
      "t": 59085.42100000015,
      "d": 182.92700000000332,
      "v": 100
    },
    {
      "midi": 46,
      "hit": false,
      "t": 59085.42100000035,
      "d": 182.92700000000332,
      "v": 80
    },
    {
      "midi": 34,
      "hit": false,
      "t": 59085.42100000037,
      "d": 182.92700000000332,
      "v": 100
    },
    {
      "midi": 46,
      "hit": false,
      "t": 59268.34800000015,
      "d": 182.92700000000332,
      "v": 100
    },
    {
      "midi": 53,
      "hit": false,
      "t": 59268.34800000015,
      "d": 182.92700000000332,
      "v": 100
    },
    {
      "midi": 58,
      "hit": false,
      "t": 59268.34800000015,
      "d": 182.92700000000332,
      "v": 100
    },
    {
      "midi": 65,
      "hit": false,
      "t": 59268.34800000015,
      "d": 182.92700000000332,
      "v": 100
    },
    {
      "midi": 62,
      "hit": false,
      "t": 59268.34800000015,
      "d": 182.92700000000332,
      "v": 100
    },
    {
      "midi": 46,
      "hit": false,
      "t": 59268.34800000015,
      "d": 182.92700000000332,
      "v": 100
    },
    {
      "midi": 53,
      "hit": false,
      "t": 59268.34800000015,
      "d": 182.92700000000332,
      "v": 100
    },
    {
      "midi": 58,
      "hit": false,
      "t": 59268.34800000015,
      "d": 182.92700000000332,
      "v": 100
    },
    {
      "midi": 65,
      "hit": false,
      "t": 59268.34800000015,
      "d": 182.92700000000332,
      "v": 100
    },
    {
      "midi": 62,
      "hit": false,
      "t": 59268.34800000015,
      "d": 182.92700000000332,
      "v": 100
    },
    {
      "midi": 46,
      "hit": false,
      "t": 59268.348000000355,
      "d": 182.92700000000332,
      "v": 80
    },
    {
      "midi": 40,
      "hit": false,
      "t": 59268.348000000355,
      "d": 365.85400000000664,
      "v": 100
    },
    {
      "midi": 34,
      "hit": false,
      "t": 59268.34800000038,
      "d": 182.92700000000332,
      "v": 100
    },
    {
      "midi": 62,
      "hit": false,
      "t": 59451.27499999997,
      "d": 137.19524999999703,
      "v": 100
    },
    {
      "midi": 58,
      "hit": false,
      "t": 59451.27499999997,
      "d": 137.19524999999703,
      "v": 100
    },
    {
      "midi": 62,
      "hit": false,
      "t": 59451.275000000154,
      "d": 365.85399999999936,
      "v": 100
    },
    {
      "midi": 46,
      "hit": false,
      "t": 59451.275000000154,
      "d": 365.85399999999936,
      "v": 100
    },
    {
      "midi": 65,
      "hit": false,
      "t": 59451.275000000154,
      "d": 365.85399999999936,
      "v": 100
    },
    {
      "midi": 58,
      "hit": false,
      "t": 59451.275000000154,
      "d": 365.85399999999936,
      "v": 100
    },
    {
      "midi": 53,
      "hit": false,
      "t": 59451.275000000154,
      "d": 365.85399999999936,
      "v": 100
    },
    {
      "midi": 62,
      "hit": false,
      "t": 59451.275000000154,
      "d": 365.85399999999936,
      "v": 100
    },
    {
      "midi": 46,
      "hit": false,
      "t": 59451.275000000154,
      "d": 365.85399999999936,
      "v": 100
    },
    {
      "midi": 65,
      "hit": false,
      "t": 59451.275000000154,
      "d": 365.85399999999936,
      "v": 100
    },
    {
      "midi": 58,
      "hit": false,
      "t": 59451.275000000154,
      "d": 365.85399999999936,
      "v": 100
    },
    {
      "midi": 53,
      "hit": false,
      "t": 59451.275000000154,
      "d": 365.85399999999936,
      "v": 100
    },
    {
      "midi": 46,
      "hit": false,
      "t": 59451.27500000036,
      "d": 182.92700000000332,
      "v": 80
    },
    {
      "midi": 34,
      "hit": false,
      "t": 59451.27500000038,
      "d": 182.92700000000332,
      "v": 100
    },
    {
      "midi": 62,
      "hit": false,
      "t": 59634.20199999997,
      "d": 365.85399999999936,
      "v": 100
    },
    {
      "midi": 58,
      "hit": false,
      "t": 59634.20199999997,
      "d": 365.85399999999936,
      "v": 100
    },
    {
      "midi": 46,
      "hit": false,
      "t": 59634.20200000036,
      "d": 182.92700000000332,
      "v": 80
    },
    {
      "midi": 36,
      "hit": false,
      "t": 59634.20200000036,
      "d": 182.92700000000332,
      "v": 100
    },
    {
      "midi": 34,
      "hit": false,
      "t": 59634.20200000038,
      "d": 182.92700000000332,
      "v": 100
    },
    {
      "midi": 53,
      "hit": false,
      "t": 59817.12900000015,
      "d": 182.92700000000332,
      "v": 100
    },
    {
      "midi": 46,
      "hit": false,
      "t": 59817.12900000015,
      "d": 182.92700000000332,
      "v": 100
    },
    {
      "midi": 58,
      "hit": false,
      "t": 59817.12900000015,
      "d": 182.92700000000332,
      "v": 100
    },
    {
      "midi": 65,
      "hit": false,
      "t": 59817.12900000015,
      "d": 182.92700000000332,
      "v": 100
    },
    {
      "midi": 62,
      "hit": false,
      "t": 59817.12900000015,
      "d": 182.92700000000332,
      "v": 100
    },
    {
      "midi": 53,
      "hit": false,
      "t": 59817.12900000015,
      "d": 182.92700000000332,
      "v": 100
    },
    {
      "midi": 46,
      "hit": false,
      "t": 59817.12900000015,
      "d": 182.92700000000332,
      "v": 100
    },
    {
      "midi": 58,
      "hit": false,
      "t": 59817.12900000015,
      "d": 182.92700000000332,
      "v": 100
    },
    {
      "midi": 65,
      "hit": false,
      "t": 59817.12900000015,
      "d": 182.92700000000332,
      "v": 100
    },
    {
      "midi": 62,
      "hit": false,
      "t": 59817.12900000015,
      "d": 182.92700000000332,
      "v": 100
    },
    {
      "midi": 36,
      "hit": false,
      "t": 59817.129000000365,
      "d": 182.92700000000332,
      "v": 100
    },
    {
      "midi": 46,
      "hit": false,
      "t": 59817.129000000365,
      "d": 182.92700000000332,
      "v": 80
    },
    {
      "midi": 34,
      "hit": false,
      "t": 59817.12900000039,
      "d": 182.92700000000332,
      "v": 100
    },
    {
      "midi": 69,
      "hit": false,
      "t": 60000.05599999997,
      "d": 365.85399999999936,
      "v": 100
    },
    {
      "midi": 65,
      "hit": false,
      "t": 60000.05599999997,
      "d": 365.85399999999936,
      "v": 100
    },
    {
      "midi": 65,
      "hit": false,
      "t": 60000.05600000016,
      "d": 182.92700000000332,
      "v": 100
    },
    {
      "midi": 58,
      "hit": false,
      "t": 60000.05600000016,
      "d": 182.92700000000332,
      "v": 100
    },
    {
      "midi": 62,
      "hit": false,
      "t": 60000.05600000016,
      "d": 182.92700000000332,
      "v": 100
    },
    {
      "midi": 46,
      "hit": false,
      "t": 60000.05600000016,
      "d": 182.92700000000332,
      "v": 100
    },
    {
      "midi": 53,
      "hit": false,
      "t": 60000.05600000016,
      "d": 182.92700000000332,
      "v": 100
    },
    {
      "midi": 65,
      "hit": false,
      "t": 60000.05600000016,
      "d": 182.92700000000332,
      "v": 100
    },
    {
      "midi": 58,
      "hit": false,
      "t": 60000.05600000016,
      "d": 182.92700000000332,
      "v": 100
    },
    {
      "midi": 62,
      "hit": false,
      "t": 60000.05600000016,
      "d": 182.92700000000332,
      "v": 100
    },
    {
      "midi": 46,
      "hit": false,
      "t": 60000.05600000016,
      "d": 182.92700000000332,
      "v": 100
    },
    {
      "midi": 53,
      "hit": false,
      "t": 60000.05600000016,
      "d": 182.92700000000332,
      "v": 100
    },
    {
      "midi": 46,
      "hit": false,
      "t": 60000.05600000037,
      "d": 182.92700000000332,
      "v": 80
    },
    {
      "midi": 40,
      "hit": false,
      "t": 60000.05600000037,
      "d": 365.85400000000664,
      "v": 100
    },
    {
      "midi": 34,
      "hit": false,
      "t": 60000.05600000039,
      "d": 182.92700000000332,
      "v": 100
    },
    {
      "midi": 58,
      "hit": false,
      "t": 60182.98300000016,
      "d": 182.92700000000332,
      "v": 100
    },
    {
      "midi": 62,
      "hit": false,
      "t": 60182.98300000016,
      "d": 182.92700000000332,
      "v": 100
    },
    {
      "midi": 46,
      "hit": false,
      "t": 60182.98300000016,
      "d": 182.92700000000332,
      "v": 100
    },
    {
      "midi": 65,
      "hit": false,
      "t": 60182.98300000016,
      "d": 182.92700000000332,
      "v": 100
    },
    {
      "midi": 53,
      "hit": false,
      "t": 60182.98300000016,
      "d": 182.92700000000332,
      "v": 100
    },
    {
      "midi": 58,
      "hit": false,
      "t": 60182.98300000016,
      "d": 182.92700000000332,
      "v": 100
    },
    {
      "midi": 62,
      "hit": false,
      "t": 60182.98300000016,
      "d": 182.92700000000332,
      "v": 100
    },
    {
      "midi": 46,
      "hit": false,
      "t": 60182.98300000016,
      "d": 182.92700000000332,
      "v": 100
    },
    {
      "midi": 65,
      "hit": false,
      "t": 60182.98300000016,
      "d": 182.92700000000332,
      "v": 100
    },
    {
      "midi": 53,
      "hit": false,
      "t": 60182.98300000016,
      "d": 182.92700000000332,
      "v": 100
    },
    {
      "midi": 46,
      "hit": false,
      "t": 60182.98300000037,
      "d": 182.92700000000332,
      "v": 80
    },
    {
      "midi": 34,
      "hit": false,
      "t": 60182.98300000039,
      "d": 182.92700000000332,
      "v": 100
    },
    {
      "midi": 67,
      "hit": false,
      "t": 60365.90999999997,
      "d": 365.85399999999936,
      "v": 100
    },
    {
      "midi": 64,
      "hit": false,
      "t": 60365.90999999997,
      "d": 365.85399999999936,
      "v": 100
    },
    {
      "midi": 55,
      "hit": false,
      "t": 60365.91000000016,
      "d": 182.92700000000332,
      "v": 100
    },
    {
      "midi": 60,
      "hit": false,
      "t": 60365.91000000016,
      "d": 182.92700000000332,
      "v": 100
    },
    {
      "midi": 64,
      "hit": false,
      "t": 60365.91000000016,
      "d": 182.92700000000332,
      "v": 100
    },
    {
      "midi": 48,
      "hit": false,
      "t": 60365.91000000016,
      "d": 182.92700000000332,
      "v": 100
    },
    {
      "midi": 67,
      "hit": false,
      "t": 60365.91000000016,
      "d": 182.92700000000332,
      "v": 100
    },
    {
      "midi": 55,
      "hit": false,
      "t": 60365.91000000016,
      "d": 182.92700000000332,
      "v": 100
    },
    {
      "midi": 60,
      "hit": false,
      "t": 60365.91000000016,
      "d": 182.92700000000332,
      "v": 100
    },
    {
      "midi": 64,
      "hit": false,
      "t": 60365.91000000016,
      "d": 182.92700000000332,
      "v": 100
    },
    {
      "midi": 48,
      "hit": false,
      "t": 60365.91000000016,
      "d": 182.92700000000332,
      "v": 100
    },
    {
      "midi": 67,
      "hit": false,
      "t": 60365.91000000016,
      "d": 182.92700000000332,
      "v": 100
    },
    {
      "midi": 46,
      "hit": false,
      "t": 60365.910000000375,
      "d": 182.92700000000332,
      "v": 80
    },
    {
      "midi": 36,
      "hit": false,
      "t": 60365.910000000375,
      "d": 365.85400000000664,
      "v": 100
    },
    {
      "midi": 36,
      "hit": false,
      "t": 60365.9100000004,
      "d": 182.92700000000332,
      "v": 100
    },
    {
      "midi": 55,
      "hit": false,
      "t": 60548.83700000017,
      "d": 182.92700000000332,
      "v": 100
    },
    {
      "midi": 60,
      "hit": false,
      "t": 60548.83700000017,
      "d": 182.92700000000332,
      "v": 100
    },
    {
      "midi": 67,
      "hit": false,
      "t": 60548.83700000017,
      "d": 182.92700000000332,
      "v": 100
    },
    {
      "midi": 48,
      "hit": false,
      "t": 60548.83700000017,
      "d": 182.92700000000332,
      "v": 100
    },
    {
      "midi": 64,
      "hit": false,
      "t": 60548.83700000017,
      "d": 182.92700000000332,
      "v": 100
    },
    {
      "midi": 55,
      "hit": false,
      "t": 60548.83700000017,
      "d": 182.92700000000332,
      "v": 100
    },
    {
      "midi": 60,
      "hit": false,
      "t": 60548.83700000017,
      "d": 182.92700000000332,
      "v": 100
    },
    {
      "midi": 67,
      "hit": false,
      "t": 60548.83700000017,
      "d": 182.92700000000332,
      "v": 100
    },
    {
      "midi": 48,
      "hit": false,
      "t": 60548.83700000017,
      "d": 182.92700000000332,
      "v": 100
    },
    {
      "midi": 64,
      "hit": false,
      "t": 60548.83700000017,
      "d": 182.92700000000332,
      "v": 100
    },
    {
      "midi": 46,
      "hit": false,
      "t": 60548.83700000038,
      "d": 182.92700000000332,
      "v": 80
    },
    {
      "midi": 36,
      "hit": false,
      "t": 60548.8370000004,
      "d": 182.92700000000332,
      "v": 100
    },
    {
      "midi": 65,
      "hit": false,
      "t": 60731.76399999997,
      "d": 365.85399999999936,
      "v": 100
    },
    {
      "midi": 62,
      "hit": false,
      "t": 60731.76399999997,
      "d": 365.85399999999936,
      "v": 100
    },
    {
      "midi": 48,
      "hit": false,
      "t": 60731.76400000017,
      "d": 182.92700000000332,
      "v": 100
    },
    {
      "midi": 64,
      "hit": false,
      "t": 60731.76400000017,
      "d": 182.92700000000332,
      "v": 100
    },
    {
      "midi": 60,
      "hit": false,
      "t": 60731.76400000017,
      "d": 182.92700000000332,
      "v": 100
    },
    {
      "midi": 67,
      "hit": false,
      "t": 60731.76400000017,
      "d": 182.92700000000332,
      "v": 100
    },
    {
      "midi": 55,
      "hit": false,
      "t": 60731.76400000017,
      "d": 182.92700000000332,
      "v": 100
    },
    {
      "midi": 48,
      "hit": false,
      "t": 60731.76400000017,
      "d": 182.92700000000332,
      "v": 100
    },
    {
      "midi": 64,
      "hit": false,
      "t": 60731.76400000017,
      "d": 182.92700000000332,
      "v": 100
    },
    {
      "midi": 60,
      "hit": false,
      "t": 60731.76400000017,
      "d": 182.92700000000332,
      "v": 100
    },
    {
      "midi": 67,
      "hit": false,
      "t": 60731.76400000017,
      "d": 182.92700000000332,
      "v": 100
    },
    {
      "midi": 55,
      "hit": false,
      "t": 60731.76400000017,
      "d": 182.92700000000332,
      "v": 100
    },
    {
      "midi": 46,
      "hit": false,
      "t": 60731.76400000038,
      "d": 182.92700000000332,
      "v": 80
    },
    {
      "midi": 40,
      "hit": false,
      "t": 60731.76400000038,
      "d": 365.85399999999936,
      "v": 100
    },
    {
      "midi": 36,
      "hit": false,
      "t": 60731.7640000004,
      "d": 182.92700000000332,
      "v": 100
    },
    {
      "midi": 60,
      "hit": false,
      "t": 60914.69100000017,
      "d": 365.85399999999936,
      "v": 100
    },
    {
      "midi": 55,
      "hit": false,
      "t": 60914.69100000017,
      "d": 365.85399999999936,
      "v": 100
    },
    {
      "midi": 67,
      "hit": false,
      "t": 60914.69100000017,
      "d": 365.85399999999936,
      "v": 100
    },
    {
      "midi": 64,
      "hit": false,
      "t": 60914.69100000017,
      "d": 365.85399999999936,
      "v": 100
    },
    {
      "midi": 48,
      "hit": false,
      "t": 60914.69100000017,
      "d": 365.85399999999936,
      "v": 100
    },
    {
      "midi": 60,
      "hit": false,
      "t": 60914.69100000017,
      "d": 365.85399999999936,
      "v": 100
    },
    {
      "midi": 55,
      "hit": false,
      "t": 60914.69100000017,
      "d": 365.85399999999936,
      "v": 100
    },
    {
      "midi": 67,
      "hit": false,
      "t": 60914.69100000017,
      "d": 365.85399999999936,
      "v": 100
    },
    {
      "midi": 64,
      "hit": false,
      "t": 60914.69100000017,
      "d": 365.85399999999936,
      "v": 100
    },
    {
      "midi": 48,
      "hit": false,
      "t": 60914.69100000017,
      "d": 365.85399999999936,
      "v": 100
    },
    {
      "midi": 41,
      "hit": false,
      "t": 60914.691000000385,
      "d": 91.46349999999802,
      "v": 60
    },
    {
      "midi": 46,
      "hit": false,
      "t": 60914.691000000385,
      "d": 182.92699999999604,
      "v": 80
    },
    {
      "midi": 36,
      "hit": false,
      "t": 60914.691000000406,
      "d": 182.92700000000332,
      "v": 100
    },
    {
      "midi": 41,
      "hit": false,
      "t": 61006.15450000038,
      "d": 91.46349999999802,
      "v": 70
    },
    {
      "midi": 64,
      "hit": false,
      "t": 61097.617999999966,
      "d": 365.85399999999936,
      "v": 100
    },
    {
      "midi": 60,
      "hit": false,
      "t": 61097.617999999966,
      "d": 365.85399999999936,
      "v": 100
    },
    {
      "midi": 41,
      "hit": false,
      "t": 61097.61800000038,
      "d": 182.92700000000332,
      "v": 80
    },
    {
      "midi": 46,
      "hit": false,
      "t": 61097.61800000038,
      "d": 182.92700000000332,
      "v": 80
    },
    {
      "midi": 36,
      "hit": false,
      "t": 61097.61800000038,
      "d": 365.85399999999936,
      "v": 100
    },
    {
      "midi": 36,
      "hit": false,
      "t": 61097.61800000041,
      "d": 182.92700000000332,
      "v": 100
    },
    {
      "midi": 60,
      "hit": false,
      "t": 61280.54500000017,
      "d": 182.92700000000332,
      "v": 100
    },
    {
      "midi": 67,
      "hit": false,
      "t": 61280.54500000017,
      "d": 182.92700000000332,
      "v": 100
    },
    {
      "midi": 64,
      "hit": false,
      "t": 61280.54500000017,
      "d": 182.92700000000332,
      "v": 100
    },
    {
      "midi": 55,
      "hit": false,
      "t": 61280.54500000017,
      "d": 182.92700000000332,
      "v": 100
    },
    {
      "midi": 48,
      "hit": false,
      "t": 61280.54500000017,
      "d": 182.92700000000332,
      "v": 100
    },
    {
      "midi": 60,
      "hit": false,
      "t": 61280.54500000017,
      "d": 182.92700000000332,
      "v": 100
    },
    {
      "midi": 67,
      "hit": false,
      "t": 61280.54500000017,
      "d": 182.92700000000332,
      "v": 100
    },
    {
      "midi": 64,
      "hit": false,
      "t": 61280.54500000017,
      "d": 182.92700000000332,
      "v": 100
    },
    {
      "midi": 55,
      "hit": false,
      "t": 61280.54500000017,
      "d": 182.92700000000332,
      "v": 100
    },
    {
      "midi": 48,
      "hit": false,
      "t": 61280.54500000017,
      "d": 182.92700000000332,
      "v": 100
    },
    {
      "midi": 41,
      "hit": false,
      "t": 61280.545000000384,
      "d": 91.46349999999802,
      "v": 100
    },
    {
      "midi": 46,
      "hit": false,
      "t": 61280.545000000384,
      "d": 182.92699999999604,
      "v": 80
    },
    {
      "midi": 36,
      "hit": false,
      "t": 61280.54500000041,
      "d": 182.92700000000332,
      "v": 100
    },
    {
      "midi": 41,
      "hit": false,
      "t": 61372.00850000038,
      "d": 91.46349999999802,
      "v": 100
    },
    {
      "midi": 65,
      "hit": false,
      "t": 61463.471999999965,
      "d": 365.85399999999936,
      "v": 100
    },
    {
      "midi": 62,
      "hit": false,
      "t": 61463.471999999965,
      "d": 365.85399999999936,
      "v": 100
    },
    {
      "midi": 60,
      "hit": false,
      "t": 61463.472000000176,
      "d": 182.92700000000332,
      "v": 100
    },
    {
      "midi": 55,
      "hit": false,
      "t": 61463.472000000176,
      "d": 182.92700000000332,
      "v": 100
    },
    {
      "midi": 64,
      "hit": false,
      "t": 61463.472000000176,
      "d": 182.92700000000332,
      "v": 100
    },
    {
      "midi": 67,
      "hit": false,
      "t": 61463.472000000176,
      "d": 182.92700000000332,
      "v": 100
    },
    {
      "midi": 48,
      "hit": false,
      "t": 61463.472000000176,
      "d": 182.92700000000332,
      "v": 100
    },
    {
      "midi": 60,
      "hit": false,
      "t": 61463.472000000176,
      "d": 182.92700000000332,
      "v": 100
    },
    {
      "midi": 55,
      "hit": false,
      "t": 61463.472000000176,
      "d": 182.92700000000332,
      "v": 100
    },
    {
      "midi": 64,
      "hit": false,
      "t": 61463.472000000176,
      "d": 182.92700000000332,
      "v": 100
    },
    {
      "midi": 67,
      "hit": false,
      "t": 61463.472000000176,
      "d": 182.92700000000332,
      "v": 100
    },
    {
      "midi": 48,
      "hit": false,
      "t": 61463.472000000176,
      "d": 182.92700000000332,
      "v": 100
    },
    {
      "midi": 40,
      "hit": false,
      "t": 61463.47200000038,
      "d": 182.92700000000332,
      "v": 100
    },
    {
      "midi": 46,
      "hit": false,
      "t": 61463.47200000038,
      "d": 182.92700000000332,
      "v": 80
    },
    {
      "midi": 36,
      "hit": false,
      "t": 61463.472000000416,
      "d": 182.92700000000332,
      "v": 100
    },
    {
      "midi": 64,
      "hit": false,
      "t": 61646.39900000018,
      "d": 182.92700000000332,
      "v": 100
    },
    {
      "midi": 48,
      "hit": false,
      "t": 61646.39900000018,
      "d": 182.92700000000332,
      "v": 100
    },
    {
      "midi": 60,
      "hit": false,
      "t": 61646.39900000018,
      "d": 182.92700000000332,
      "v": 100
    },
    {
      "midi": 55,
      "hit": false,
      "t": 61646.39900000018,
      "d": 182.92700000000332,
      "v": 100
    },
    {
      "midi": 67,
      "hit": false,
      "t": 61646.39900000018,
      "d": 182.92700000000332,
      "v": 100
    },
    {
      "midi": 64,
      "hit": false,
      "t": 61646.39900000018,
      "d": 182.92700000000332,
      "v": 100
    },
    {
      "midi": 48,
      "hit": false,
      "t": 61646.39900000018,
      "d": 182.92700000000332,
      "v": 100
    },
    {
      "midi": 60,
      "hit": false,
      "t": 61646.39900000018,
      "d": 182.92700000000332,
      "v": 100
    },
    {
      "midi": 55,
      "hit": false,
      "t": 61646.39900000018,
      "d": 182.92700000000332,
      "v": 100
    },
    {
      "midi": 67,
      "hit": false,
      "t": 61646.39900000018,
      "d": 182.92700000000332,
      "v": 100
    },
    {
      "midi": 40,
      "hit": false,
      "t": 61646.39900000038,
      "d": 91.46349999999802,
      "v": 100
    },
    {
      "midi": 46,
      "hit": false,
      "t": 61646.39900000038,
      "d": 182.92699999999604,
      "v": 80
    },
    {
      "midi": 36,
      "hit": false,
      "t": 61646.39900000042,
      "d": 182.92700000000332,
      "v": 100
    },
    {
      "midi": 40,
      "hit": false,
      "t": 61737.86250000038,
      "d": 91.46349999999802,
      "v": 100
    },
    {
      "midi": 69,
      "hit": false,
      "t": 61829.325999999965,
      "d": 548.7810000000027,
      "v": 100
    },
    {
      "midi": 65,
      "hit": false,
      "t": 61829.325999999965,
      "d": 548.7810000000027,
      "v": 100
    },
    {
      "midi": 57,
      "hit": false,
      "t": 61829.32600000018,
      "d": 182.92700000000332,
      "v": 100
    },
    {
      "midi": 48,
      "hit": false,
      "t": 61829.32600000018,
      "d": 182.92700000000332,
      "v": 100
    },
    {
      "midi": 65,
      "hit": false,
      "t": 61829.32600000018,
      "d": 182.92700000000332,
      "v": 100
    },
    {
      "midi": 60,
      "hit": false,
      "t": 61829.32600000018,
      "d": 182.92700000000332,
      "v": 100
    },
    {
      "midi": 53,
      "hit": false,
      "t": 61829.32600000018,
      "d": 182.92700000000332,
      "v": 100
    },
    {
      "midi": 57,
      "hit": false,
      "t": 61829.32600000018,
      "d": 182.92700000000332,
      "v": 100
    },
    {
      "midi": 48,
      "hit": false,
      "t": 61829.32600000018,
      "d": 182.92700000000332,
      "v": 100
    },
    {
      "midi": 65,
      "hit": false,
      "t": 61829.32600000018,
      "d": 182.92700000000332,
      "v": 100
    },
    {
      "midi": 60,
      "hit": false,
      "t": 61829.32600000018,
      "d": 182.92700000000332,
      "v": 100
    },
    {
      "midi": 53,
      "hit": false,
      "t": 61829.32600000018,
      "d": 182.92700000000332,
      "v": 100
    },
    {
      "midi": 46,
      "hit": false,
      "t": 61829.32600000038,
      "d": 182.92700000000332,
      "v": 80
    },
    {
      "midi": 36,
      "hit": false,
      "t": 61829.32600000038,
      "d": 365.85400000000664,
      "v": 100
    },
    {
      "midi": 49,
      "hit": false,
      "t": 61829.32600000038,
      "d": 731.7080000000133,
      "v": 100
    },
    {
      "midi": 29,
      "hit": false,
      "t": 61829.32600000042,
      "d": 182.92700000000332,
      "v": 100
    },
    {
      "midi": 57,
      "hit": false,
      "t": 62012.253000000186,
      "d": 182.92700000000332,
      "v": 100
    },
    {
      "midi": 53,
      "hit": false,
      "t": 62012.253000000186,
      "d": 182.92700000000332,
      "v": 100
    },
    {
      "midi": 60,
      "hit": false,
      "t": 62012.253000000186,
      "d": 182.92700000000332,
      "v": 100
    },
    {
      "midi": 48,
      "hit": false,
      "t": 62012.253000000186,
      "d": 182.92700000000332,
      "v": 100
    },
    {
      "midi": 65,
      "hit": false,
      "t": 62012.253000000186,
      "d": 182.92700000000332,
      "v": 100
    },
    {
      "midi": 57,
      "hit": false,
      "t": 62012.253000000186,
      "d": 182.92700000000332,
      "v": 100
    },
    {
      "midi": 53,
      "hit": false,
      "t": 62012.253000000186,
      "d": 182.92700000000332,
      "v": 100
    },
    {
      "midi": 60,
      "hit": false,
      "t": 62012.253000000186,
      "d": 182.92700000000332,
      "v": 100
    },
    {
      "midi": 48,
      "hit": false,
      "t": 62012.253000000186,
      "d": 182.92700000000332,
      "v": 100
    },
    {
      "midi": 65,
      "hit": false,
      "t": 62012.253000000186,
      "d": 182.92700000000332,
      "v": 100
    },
    {
      "midi": 46,
      "hit": false,
      "t": 62012.25300000038,
      "d": 182.92700000000332,
      "v": 80
    },
    {
      "midi": 29,
      "hit": false,
      "t": 62012.253000000426,
      "d": 182.92700000000332,
      "v": 100
    },
    {
      "midi": 65,
      "hit": false,
      "t": 62195.18000000019,
      "d": 182.92700000000332,
      "v": 100
    },
    {
      "midi": 57,
      "hit": false,
      "t": 62195.18000000019,
      "d": 182.92700000000332,
      "v": 100
    },
    {
      "midi": 48,
      "hit": false,
      "t": 62195.18000000019,
      "d": 182.92700000000332,
      "v": 100
    },
    {
      "midi": 60,
      "hit": false,
      "t": 62195.18000000019,
      "d": 182.92700000000332,
      "v": 100
    },
    {
      "midi": 53,
      "hit": false,
      "t": 62195.18000000019,
      "d": 182.92700000000332,
      "v": 100
    },
    {
      "midi": 65,
      "hit": false,
      "t": 62195.18000000019,
      "d": 182.92700000000332,
      "v": 100
    },
    {
      "midi": 57,
      "hit": false,
      "t": 62195.18000000019,
      "d": 182.92700000000332,
      "v": 100
    },
    {
      "midi": 48,
      "hit": false,
      "t": 62195.18000000019,
      "d": 182.92700000000332,
      "v": 100
    },
    {
      "midi": 60,
      "hit": false,
      "t": 62195.18000000019,
      "d": 182.92700000000332,
      "v": 100
    },
    {
      "midi": 53,
      "hit": false,
      "t": 62195.18000000019,
      "d": 182.92700000000332,
      "v": 100
    },
    {
      "midi": 46,
      "hit": false,
      "t": 62195.180000000386,
      "d": 182.92700000000332,
      "v": 80
    },
    {
      "midi": 40,
      "hit": false,
      "t": 62195.180000000386,
      "d": 365.85400000000664,
      "v": 100
    },
    {
      "midi": 29,
      "hit": false,
      "t": 62195.18000000043,
      "d": 182.92700000000332,
      "v": 100
    },
    {
      "midi": 60,
      "hit": false,
      "t": 62378.10699999997,
      "d": 137.19524999999703,
      "v": 100
    },
    {
      "midi": 57,
      "hit": false,
      "t": 62378.10699999997,
      "d": 137.19524999999703,
      "v": 100
    },
    {
      "midi": 60,
      "hit": false,
      "t": 62378.10700000019,
      "d": 365.85399999999936,
      "v": 100
    },
    {
      "midi": 57,
      "hit": false,
      "t": 62378.10700000019,
      "d": 365.85399999999936,
      "v": 100
    },
    {
      "midi": 53,
      "hit": false,
      "t": 62378.10700000019,
      "d": 365.85399999999936,
      "v": 100
    },
    {
      "midi": 48,
      "hit": false,
      "t": 62378.10700000019,
      "d": 365.85399999999936,
      "v": 100
    },
    {
      "midi": 65,
      "hit": false,
      "t": 62378.10700000019,
      "d": 365.85399999999936,
      "v": 100
    },
    {
      "midi": 60,
      "hit": false,
      "t": 62378.10700000019,
      "d": 365.85399999999936,
      "v": 100
    },
    {
      "midi": 57,
      "hit": false,
      "t": 62378.10700000019,
      "d": 365.85399999999936,
      "v": 100
    },
    {
      "midi": 53,
      "hit": false,
      "t": 62378.10700000019,
      "d": 365.85399999999936,
      "v": 100
    },
    {
      "midi": 48,
      "hit": false,
      "t": 62378.10700000019,
      "d": 365.85399999999936,
      "v": 100
    },
    {
      "midi": 65,
      "hit": false,
      "t": 62378.10700000019,
      "d": 365.85399999999936,
      "v": 100
    },
    {
      "midi": 46,
      "hit": false,
      "t": 62378.10700000039,
      "d": 182.92700000000332,
      "v": 80
    },
    {
      "midi": 29,
      "hit": false,
      "t": 62378.10700000043,
      "d": 182.92700000000332,
      "v": 100
    },
    {
      "midi": 60,
      "hit": false,
      "t": 62561.03399999996,
      "d": 548.7810000000027,
      "v": 100
    },
    {
      "midi": 57,
      "hit": false,
      "t": 62561.03399999996,
      "d": 548.7810000000027,
      "v": 100
    },
    {
      "midi": 46,
      "hit": false,
      "t": 62561.03400000039,
      "d": 182.92700000000332,
      "v": 80
    },
    {
      "midi": 36,
      "hit": false,
      "t": 62561.03400000039,
      "d": 182.92700000000332,
      "v": 100
    },
    {
      "midi": 29,
      "hit": false,
      "t": 62561.034000000436,
      "d": 182.92700000000332,
      "v": 100
    },
    {
      "midi": 57,
      "hit": false,
      "t": 62743.96100000019,
      "d": 182.92700000000332,
      "v": 100
    },
    {
      "midi": 65,
      "hit": false,
      "t": 62743.96100000019,
      "d": 182.92700000000332,
      "v": 100
    },
    {
      "midi": 60,
      "hit": false,
      "t": 62743.96100000019,
      "d": 182.92700000000332,
      "v": 100
    },
    {
      "midi": 48,
      "hit": false,
      "t": 62743.96100000019,
      "d": 182.92700000000332,
      "v": 100
    },
    {
      "midi": 53,
      "hit": false,
      "t": 62743.96100000019,
      "d": 182.92700000000332,
      "v": 100
    },
    {
      "midi": 57,
      "hit": false,
      "t": 62743.96100000019,
      "d": 182.92700000000332,
      "v": 100
    },
    {
      "midi": 65,
      "hit": false,
      "t": 62743.96100000019,
      "d": 182.92700000000332,
      "v": 100
    },
    {
      "midi": 60,
      "hit": false,
      "t": 62743.96100000019,
      "d": 182.92700000000332,
      "v": 100
    },
    {
      "midi": 48,
      "hit": false,
      "t": 62743.96100000019,
      "d": 182.92700000000332,
      "v": 100
    },
    {
      "midi": 53,
      "hit": false,
      "t": 62743.96100000019,
      "d": 182.92700000000332,
      "v": 100
    },
    {
      "midi": 36,
      "hit": false,
      "t": 62743.961000000396,
      "d": 182.92700000000332,
      "v": 100
    },
    {
      "midi": 46,
      "hit": false,
      "t": 62743.961000000396,
      "d": 182.92700000000332,
      "v": 80
    },
    {
      "midi": 29,
      "hit": false,
      "t": 62743.96100000044,
      "d": 182.92700000000332,
      "v": 100
    },
    {
      "midi": 48,
      "hit": false,
      "t": 62926.888000000195,
      "d": 182.92700000000332,
      "v": 100
    },
    {
      "midi": 57,
      "hit": false,
      "t": 62926.888000000195,
      "d": 182.92700000000332,
      "v": 100
    },
    {
      "midi": 60,
      "hit": false,
      "t": 62926.888000000195,
      "d": 182.92700000000332,
      "v": 100
    },
    {
      "midi": 65,
      "hit": false,
      "t": 62926.888000000195,
      "d": 182.92700000000332,
      "v": 100
    },
    {
      "midi": 53,
      "hit": false,
      "t": 62926.888000000195,
      "d": 182.92700000000332,
      "v": 100
    },
    {
      "midi": 48,
      "hit": false,
      "t": 62926.888000000195,
      "d": 182.92700000000332,
      "v": 100
    },
    {
      "midi": 57,
      "hit": false,
      "t": 62926.888000000195,
      "d": 182.92700000000332,
      "v": 100
    },
    {
      "midi": 60,
      "hit": false,
      "t": 62926.888000000195,
      "d": 182.92700000000332,
      "v": 100
    },
    {
      "midi": 65,
      "hit": false,
      "t": 62926.888000000195,
      "d": 182.92700000000332,
      "v": 100
    },
    {
      "midi": 53,
      "hit": false,
      "t": 62926.888000000195,
      "d": 182.92700000000332,
      "v": 100
    },
    {
      "midi": 46,
      "hit": false,
      "t": 62926.8880000004,
      "d": 182.92700000000332,
      "v": 80
    },
    {
      "midi": 40,
      "hit": false,
      "t": 62926.8880000004,
      "d": 365.85400000000664,
      "v": 100
    },
    {
      "midi": 29,
      "hit": false,
      "t": 62926.88800000044,
      "d": 182.92700000000332,
      "v": 100
    },
    {
      "midi": 60,
      "hit": false,
      "t": 63109.8150000002,
      "d": 182.92700000000332,
      "v": 100
    },
    {
      "midi": 57,
      "hit": false,
      "t": 63109.8150000002,
      "d": 182.92700000000332,
      "v": 100
    },
    {
      "midi": 48,
      "hit": false,
      "t": 63109.8150000002,
      "d": 182.92700000000332,
      "v": 100
    },
    {
      "midi": 53,
      "hit": false,
      "t": 63109.8150000002,
      "d": 182.92700000000332,
      "v": 100
    },
    {
      "midi": 65,
      "hit": false,
      "t": 63109.8150000002,
      "d": 182.92700000000332,
      "v": 100
    },
    {
      "midi": 60,
      "hit": false,
      "t": 63109.8150000002,
      "d": 182.92700000000332,
      "v": 100
    },
    {
      "midi": 57,
      "hit": false,
      "t": 63109.8150000002,
      "d": 182.92700000000332,
      "v": 100
    },
    {
      "midi": 48,
      "hit": false,
      "t": 63109.8150000002,
      "d": 182.92700000000332,
      "v": 100
    },
    {
      "midi": 53,
      "hit": false,
      "t": 63109.8150000002,
      "d": 182.92700000000332,
      "v": 100
    },
    {
      "midi": 65,
      "hit": false,
      "t": 63109.8150000002,
      "d": 182.92700000000332,
      "v": 100
    },
    {
      "midi": 46,
      "hit": false,
      "t": 63109.8150000004,
      "d": 182.92700000000332,
      "v": 80
    },
    {
      "midi": 29,
      "hit": false,
      "t": 63109.815000000446,
      "d": 182.92700000000332,
      "v": 100
    },
    {
      "midi": 60,
      "hit": false,
      "t": 63292.74199999997,
      "d": 365.85399999999936,
      "v": 100
    },
    {
      "midi": 57,
      "hit": false,
      "t": 63292.74199999997,
      "d": 365.85399999999936,
      "v": 100
    },
    {
      "midi": 60,
      "hit": false,
      "t": 63292.7420000002,
      "d": 182.92700000000332,
      "v": 100
    },
    {
      "midi": 53,
      "hit": false,
      "t": 63292.7420000002,
      "d": 182.92700000000332,
      "v": 100
    },
    {
      "midi": 48,
      "hit": false,
      "t": 63292.7420000002,
      "d": 182.92700000000332,
      "v": 100
    },
    {
      "midi": 65,
      "hit": false,
      "t": 63292.7420000002,
      "d": 182.92700000000332,
      "v": 100
    },
    {
      "midi": 57,
      "hit": false,
      "t": 63292.7420000002,
      "d": 182.92700000000332,
      "v": 100
    },
    {
      "midi": 60,
      "hit": false,
      "t": 63292.7420000002,
      "d": 182.92700000000332,
      "v": 100
    },
    {
      "midi": 53,
      "hit": false,
      "t": 63292.7420000002,
      "d": 182.92700000000332,
      "v": 100
    },
    {
      "midi": 48,
      "hit": false,
      "t": 63292.7420000002,
      "d": 182.92700000000332,
      "v": 100
    },
    {
      "midi": 65,
      "hit": false,
      "t": 63292.7420000002,
      "d": 182.92700000000332,
      "v": 100
    },
    {
      "midi": 57,
      "hit": false,
      "t": 63292.7420000002,
      "d": 182.92700000000332,
      "v": 100
    },
    {
      "midi": 46,
      "hit": false,
      "t": 63292.742000000406,
      "d": 182.92700000000332,
      "v": 80
    },
    {
      "midi": 36,
      "hit": false,
      "t": 63292.742000000406,
      "d": 365.85400000000664,
      "v": 100
    },
    {
      "midi": 29,
      "hit": false,
      "t": 63292.74200000045,
      "d": 182.92700000000332,
      "v": 100
    },
    {
      "midi": 57,
      "hit": false,
      "t": 63475.669000000205,
      "d": 182.92700000000332,
      "v": 100
    },
    {
      "midi": 53,
      "hit": false,
      "t": 63475.669000000205,
      "d": 182.92700000000332,
      "v": 100
    },
    {
      "midi": 60,
      "hit": false,
      "t": 63475.669000000205,
      "d": 182.92700000000332,
      "v": 100
    },
    {
      "midi": 65,
      "hit": false,
      "t": 63475.669000000205,
      "d": 182.92700000000332,
      "v": 100
    },
    {
      "midi": 48,
      "hit": false,
      "t": 63475.669000000205,
      "d": 182.92700000000332,
      "v": 100
    },
    {
      "midi": 57,
      "hit": false,
      "t": 63475.669000000205,
      "d": 182.92700000000332,
      "v": 100
    },
    {
      "midi": 53,
      "hit": false,
      "t": 63475.669000000205,
      "d": 182.92700000000332,
      "v": 100
    },
    {
      "midi": 60,
      "hit": false,
      "t": 63475.669000000205,
      "d": 182.92700000000332,
      "v": 100
    },
    {
      "midi": 65,
      "hit": false,
      "t": 63475.669000000205,
      "d": 182.92700000000332,
      "v": 100
    },
    {
      "midi": 48,
      "hit": false,
      "t": 63475.669000000205,
      "d": 182.92700000000332,
      "v": 100
    },
    {
      "midi": 46,
      "hit": false,
      "t": 63475.66900000041,
      "d": 182.92700000000332,
      "v": 80
    },
    {
      "midi": 29,
      "hit": false,
      "t": 63475.66900000045,
      "d": 182.92700000000332,
      "v": 100
    },
    {
      "midi": 69,
      "hit": false,
      "t": 63658.59599999997,
      "d": 365.85399999999936,
      "v": 100
    },
    {
      "midi": 65,
      "hit": false,
      "t": 63658.59599999997,
      "d": 365.85399999999936,
      "v": 100
    },
    {
      "midi": 60,
      "hit": false,
      "t": 63658.59600000021,
      "d": 182.92700000000332,
      "v": 100
    },
    {
      "midi": 48,
      "hit": false,
      "t": 63658.59600000021,
      "d": 182.92700000000332,
      "v": 100
    },
    {
      "midi": 53,
      "hit": false,
      "t": 63658.59600000021,
      "d": 182.92700000000332,
      "v": 100
    },
    {
      "midi": 65,
      "hit": false,
      "t": 63658.59600000021,
      "d": 182.92700000000332,
      "v": 100
    },
    {
      "midi": 57,
      "hit": false,
      "t": 63658.59600000021,
      "d": 182.92700000000332,
      "v": 100
    },
    {
      "midi": 60,
      "hit": false,
      "t": 63658.59600000021,
      "d": 182.92700000000332,
      "v": 100
    },
    {
      "midi": 48,
      "hit": false,
      "t": 63658.59600000021,
      "d": 182.92700000000332,
      "v": 100
    },
    {
      "midi": 53,
      "hit": false,
      "t": 63658.59600000021,
      "d": 182.92700000000332,
      "v": 100
    },
    {
      "midi": 65,
      "hit": false,
      "t": 63658.59600000021,
      "d": 182.92700000000332,
      "v": 100
    },
    {
      "midi": 57,
      "hit": false,
      "t": 63658.59600000021,
      "d": 182.92700000000332,
      "v": 100
    },
    {
      "midi": 40,
      "hit": false,
      "t": 63658.59600000041,
      "d": 182.92700000000332,
      "v": 100
    },
    {
      "midi": 46,
      "hit": false,
      "t": 63658.59600000041,
      "d": 182.92700000000332,
      "v": 80
    },
    {
      "midi": 29,
      "hit": false,
      "t": 63658.596000000456,
      "d": 182.92700000000332,
      "v": 100
    },
    {
      "midi": 53,
      "hit": false,
      "t": 63841.52300000021,
      "d": 365.85399999999936,
      "v": 100
    },
    {
      "midi": 65,
      "hit": false,
      "t": 63841.52300000021,
      "d": 365.85399999999936,
      "v": 100
    },
    {
      "midi": 57,
      "hit": false,
      "t": 63841.52300000021,
      "d": 365.85399999999936,
      "v": 100
    },
    {
      "midi": 48,
      "hit": false,
      "t": 63841.52300000021,
      "d": 365.85399999999936,
      "v": 100
    },
    {
      "midi": 60,
      "hit": false,
      "t": 63841.52300000021,
      "d": 365.85399999999936,
      "v": 100
    },
    {
      "midi": 53,
      "hit": false,
      "t": 63841.52300000021,
      "d": 365.85399999999936,
      "v": 100
    },
    {
      "midi": 65,
      "hit": false,
      "t": 63841.52300000021,
      "d": 365.85399999999936,
      "v": 100
    },
    {
      "midi": 57,
      "hit": false,
      "t": 63841.52300000021,
      "d": 365.85399999999936,
      "v": 100
    },
    {
      "midi": 48,
      "hit": false,
      "t": 63841.52300000021,
      "d": 365.85399999999936,
      "v": 100
    },
    {
      "midi": 60,
      "hit": false,
      "t": 63841.52300000021,
      "d": 365.85399999999936,
      "v": 100
    },
    {
      "midi": 46,
      "hit": false,
      "t": 63841.523000000416,
      "d": 182.92700000000332,
      "v": 80
    },
    {
      "midi": 36,
      "hit": false,
      "t": 63841.523000000416,
      "d": 365.85400000000664,
      "v": 100
    },
    {
      "midi": 29,
      "hit": false,
      "t": 63841.52300000046,
      "d": 182.92700000000332,
      "v": 100
    },
    {
      "midi": 67,
      "hit": false,
      "t": 64024.44999999997,
      "d": 365.85399999999936,
      "v": 100
    },
    {
      "midi": 64,
      "hit": false,
      "t": 64024.44999999997,
      "d": 365.85399999999936,
      "v": 100
    },
    {
      "midi": 46,
      "hit": false,
      "t": 64024.45000000042,
      "d": 182.92700000000332,
      "v": 80
    },
    {
      "midi": 29,
      "hit": false,
      "t": 64024.45000000046,
      "d": 182.92700000000332,
      "v": 100
    },
    {
      "midi": 65,
      "hit": false,
      "t": 64207.37700000021,
      "d": 182.92700000000332,
      "v": 100
    },
    {
      "midi": 48,
      "hit": false,
      "t": 64207.37700000021,
      "d": 182.92700000000332,
      "v": 100
    },
    {
      "midi": 60,
      "hit": false,
      "t": 64207.37700000021,
      "d": 182.92700000000332,
      "v": 100
    },
    {
      "midi": 53,
      "hit": false,
      "t": 64207.37700000021,
      "d": 182.92700000000332,
      "v": 100
    },
    {
      "midi": 57,
      "hit": false,
      "t": 64207.37700000021,
      "d": 182.92700000000332,
      "v": 100
    },
    {
      "midi": 65,
      "hit": false,
      "t": 64207.37700000021,
      "d": 182.92700000000332,
      "v": 100
    },
    {
      "midi": 48,
      "hit": false,
      "t": 64207.37700000021,
      "d": 182.92700000000332,
      "v": 100
    },
    {
      "midi": 60,
      "hit": false,
      "t": 64207.37700000021,
      "d": 182.92700000000332,
      "v": 100
    },
    {
      "midi": 53,
      "hit": false,
      "t": 64207.37700000021,
      "d": 182.92700000000332,
      "v": 100
    },
    {
      "midi": 57,
      "hit": false,
      "t": 64207.37700000021,
      "d": 182.92700000000332,
      "v": 100
    },
    {
      "midi": 36,
      "hit": false,
      "t": 64207.37700000042,
      "d": 182.92700000000332,
      "v": 100
    },
    {
      "midi": 46,
      "hit": false,
      "t": 64207.37700000042,
      "d": 182.92700000000332,
      "v": 80
    },
    {
      "midi": 29,
      "hit": false,
      "t": 64207.377000000466,
      "d": 182.92700000000332,
      "v": 100
    },
    {
      "midi": 65,
      "hit": false,
      "t": 64390.30399999997,
      "d": 365.85399999999936,
      "v": 100
    },
    {
      "midi": 62,
      "hit": false,
      "t": 64390.30399999997,
      "d": 365.85399999999936,
      "v": 100
    },
    {
      "midi": 57,
      "hit": false,
      "t": 64390.304000000215,
      "d": 182.92700000000332,
      "v": 100
    },
    {
      "midi": 65,
      "hit": false,
      "t": 64390.304000000215,
      "d": 182.92700000000332,
      "v": 100
    },
    {
      "midi": 53,
      "hit": false,
      "t": 64390.304000000215,
      "d": 182.92700000000332,
      "v": 100
    },
    {
      "midi": 48,
      "hit": false,
      "t": 64390.304000000215,
      "d": 182.92700000000332,
      "v": 100
    },
    {
      "midi": 60,
      "hit": false,
      "t": 64390.304000000215,
      "d": 182.92700000000332,
      "v": 100
    },
    {
      "midi": 57,
      "hit": false,
      "t": 64390.304000000215,
      "d": 182.92700000000332,
      "v": 100
    },
    {
      "midi": 65,
      "hit": false,
      "t": 64390.304000000215,
      "d": 182.92700000000332,
      "v": 100
    },
    {
      "midi": 53,
      "hit": false,
      "t": 64390.304000000215,
      "d": 182.92700000000332,
      "v": 100
    },
    {
      "midi": 48,
      "hit": false,
      "t": 64390.304000000215,
      "d": 182.92700000000332,
      "v": 100
    },
    {
      "midi": 60,
      "hit": false,
      "t": 64390.304000000215,
      "d": 182.92700000000332,
      "v": 100
    },
    {
      "midi": 46,
      "hit": false,
      "t": 64390.304000000426,
      "d": 182.92700000000332,
      "v": 80
    },
    {
      "midi": 40,
      "hit": false,
      "t": 64390.304000000426,
      "d": 365.85400000000664,
      "v": 100
    },
    {
      "midi": 31,
      "hit": false,
      "t": 64390.30400000047,
      "d": 182.92700000000332,
      "v": 100
    },
    {
      "midi": 57,
      "hit": false,
      "t": 64573.23100000022,
      "d": 182.92700000000332,
      "v": 100
    },
    {
      "midi": 53,
      "hit": false,
      "t": 64573.23100000022,
      "d": 182.92700000000332,
      "v": 100
    },
    {
      "midi": 48,
      "hit": false,
      "t": 64573.23100000022,
      "d": 182.92700000000332,
      "v": 100
    },
    {
      "midi": 65,
      "hit": false,
      "t": 64573.23100000022,
      "d": 182.92700000000332,
      "v": 100
    },
    {
      "midi": 60,
      "hit": false,
      "t": 64573.23100000022,
      "d": 182.92700000000332,
      "v": 100
    },
    {
      "midi": 57,
      "hit": false,
      "t": 64573.23100000022,
      "d": 182.92700000000332,
      "v": 100
    },
    {
      "midi": 53,
      "hit": false,
      "t": 64573.23100000022,
      "d": 182.92700000000332,
      "v": 100
    },
    {
      "midi": 48,
      "hit": false,
      "t": 64573.23100000022,
      "d": 182.92700000000332,
      "v": 100
    },
    {
      "midi": 65,
      "hit": false,
      "t": 64573.23100000022,
      "d": 182.92700000000332,
      "v": 100
    },
    {
      "midi": 60,
      "hit": false,
      "t": 64573.23100000022,
      "d": 182.92700000000332,
      "v": 100
    },
    {
      "midi": 46,
      "hit": false,
      "t": 64573.23100000043,
      "d": 182.92700000000332,
      "v": 80
    },
    {
      "midi": 31,
      "hit": false,
      "t": 64573.23100000047,
      "d": 182.92700000000332,
      "v": 100
    },
    {
      "midi": 69,
      "hit": false,
      "t": 64756.15799999997,
      "d": 548.7810000000027,
      "v": 100
    },
    {
      "midi": 65,
      "hit": false,
      "t": 64756.15799999997,
      "d": 548.7810000000027,
      "v": 100
    },
    {
      "midi": 61,
      "hit": false,
      "t": 64756.15800000022,
      "d": 182.92700000000332,
      "v": 100
    },
    {
      "midi": 52,
      "hit": false,
      "t": 64756.15800000022,
      "d": 182.92700000000332,
      "v": 100
    },
    {
      "midi": 69,
      "hit": false,
      "t": 64756.15800000022,
      "d": 182.92700000000332,
      "v": 100
    },
    {
      "midi": 64,
      "hit": false,
      "t": 64756.15800000022,
      "d": 182.92700000000332,
      "v": 100
    },
    {
      "midi": 57,
      "hit": false,
      "t": 64756.15800000022,
      "d": 182.92700000000332,
      "v": 100
    },
    {
      "midi": 61,
      "hit": false,
      "t": 64756.15800000022,
      "d": 182.92700000000332,
      "v": 100
    },
    {
      "midi": 52,
      "hit": false,
      "t": 64756.15800000022,
      "d": 182.92700000000332,
      "v": 100
    },
    {
      "midi": 69,
      "hit": false,
      "t": 64756.15800000022,
      "d": 182.92700000000332,
      "v": 100
    },
    {
      "midi": 64,
      "hit": false,
      "t": 64756.15800000022,
      "d": 182.92700000000332,
      "v": 100
    },
    {
      "midi": 57,
      "hit": false,
      "t": 64756.15800000022,
      "d": 182.92700000000332,
      "v": 100
    },
    {
      "midi": 46,
      "hit": false,
      "t": 64756.15800000043,
      "d": 182.92700000000332,
      "v": 80
    },
    {
      "midi": 36,
      "hit": false,
      "t": 64756.15800000043,
      "d": 365.85400000000664,
      "v": 100
    },
    {
      "midi": 33,
      "hit": false,
      "t": 64756.158000000476,
      "d": 182.92700000000332,
      "v": 100
    },
    {
      "midi": 61,
      "hit": false,
      "t": 64939.085000000225,
      "d": 182.92700000000332,
      "v": 100
    },
    {
      "midi": 57,
      "hit": false,
      "t": 64939.085000000225,
      "d": 182.92700000000332,
      "v": 100
    },
    {
      "midi": 64,
      "hit": false,
      "t": 64939.085000000225,
      "d": 182.92700000000332,
      "v": 100
    },
    {
      "midi": 52,
      "hit": false,
      "t": 64939.085000000225,
      "d": 182.92700000000332,
      "v": 100
    },
    {
      "midi": 69,
      "hit": false,
      "t": 64939.085000000225,
      "d": 182.92700000000332,
      "v": 100
    },
    {
      "midi": 61,
      "hit": false,
      "t": 64939.085000000225,
      "d": 182.92700000000332,
      "v": 100
    },
    {
      "midi": 57,
      "hit": false,
      "t": 64939.085000000225,
      "d": 182.92700000000332,
      "v": 100
    },
    {
      "midi": 64,
      "hit": false,
      "t": 64939.085000000225,
      "d": 182.92700000000332,
      "v": 100
    },
    {
      "midi": 52,
      "hit": false,
      "t": 64939.085000000225,
      "d": 182.92700000000332,
      "v": 100
    },
    {
      "midi": 69,
      "hit": false,
      "t": 64939.085000000225,
      "d": 182.92700000000332,
      "v": 100
    },
    {
      "midi": 46,
      "hit": false,
      "t": 64939.085000000436,
      "d": 182.92700000000332,
      "v": 80
    },
    {
      "midi": 33,
      "hit": false,
      "t": 64939.08500000048,
      "d": 182.92700000000332,
      "v": 100
    },
    {
      "midi": 69,
      "hit": false,
      "t": 65122.01200000023,
      "d": 182.92700000000332,
      "v": 100
    },
    {
      "midi": 61,
      "hit": false,
      "t": 65122.01200000023,
      "d": 182.92700000000332,
      "v": 100
    },
    {
      "midi": 52,
      "hit": false,
      "t": 65122.01200000023,
      "d": 182.92700000000332,
      "v": 100
    },
    {
      "midi": 64,
      "hit": false,
      "t": 65122.01200000023,
      "d": 182.92700000000332,
      "v": 100
    },
    {
      "midi": 57,
      "hit": false,
      "t": 65122.01200000023,
      "d": 182.92700000000332,
      "v": 100
    },
    {
      "midi": 69,
      "hit": false,
      "t": 65122.01200000023,
      "d": 182.92700000000332,
      "v": 100
    },
    {
      "midi": 61,
      "hit": false,
      "t": 65122.01200000023,
      "d": 182.92700000000332,
      "v": 100
    },
    {
      "midi": 52,
      "hit": false,
      "t": 65122.01200000023,
      "d": 182.92700000000332,
      "v": 100
    },
    {
      "midi": 64,
      "hit": false,
      "t": 65122.01200000023,
      "d": 182.92700000000332,
      "v": 100
    },
    {
      "midi": 57,
      "hit": false,
      "t": 65122.01200000023,
      "d": 182.92700000000332,
      "v": 100
    },
    {
      "midi": 46,
      "hit": false,
      "t": 65122.01200000044,
      "d": 182.92700000000332,
      "v": 80
    },
    {
      "midi": 40,
      "hit": false,
      "t": 65122.01200000044,
      "d": 365.85400000000664,
      "v": 100
    },
    {
      "midi": 33,
      "hit": false,
      "t": 65122.01200000048,
      "d": 182.92700000000332,
      "v": 100
    },
    {
      "midi": 61,
      "hit": false,
      "t": 65304.93899999997,
      "d": 137.19524999999703,
      "v": 100
    },
    {
      "midi": 57,
      "hit": false,
      "t": 65304.93899999997,
      "d": 137.19524999999703,
      "v": 100
    },
    {
      "midi": 64,
      "hit": false,
      "t": 65304.93900000023,
      "d": 365.85400000000664,
      "v": 100
    },
    {
      "midi": 61,
      "hit": false,
      "t": 65304.93900000023,
      "d": 365.85400000000664,
      "v": 100
    },
    {
      "midi": 57,
      "hit": false,
      "t": 65304.93900000023,
      "d": 365.85400000000664,
      "v": 100
    },
    {
      "midi": 52,
      "hit": false,
      "t": 65304.93900000023,
      "d": 365.85400000000664,
      "v": 100
    },
    {
      "midi": 69,
      "hit": false,
      "t": 65304.93900000023,
      "d": 365.85400000000664,
      "v": 100
    },
    {
      "midi": 64,
      "hit": false,
      "t": 65304.93900000023,
      "d": 365.85400000000664,
      "v": 100
    },
    {
      "midi": 61,
      "hit": false,
      "t": 65304.93900000023,
      "d": 365.85400000000664,
      "v": 100
    },
    {
      "midi": 57,
      "hit": false,
      "t": 65304.93900000023,
      "d": 365.85400000000664,
      "v": 100
    },
    {
      "midi": 52,
      "hit": false,
      "t": 65304.93900000023,
      "d": 365.85400000000664,
      "v": 100
    },
    {
      "midi": 69,
      "hit": false,
      "t": 65304.93900000023,
      "d": 365.85400000000664,
      "v": 100
    },
    {
      "midi": 46,
      "hit": false,
      "t": 65304.93900000044,
      "d": 182.92700000000332,
      "v": 80
    },
    {
      "midi": 33,
      "hit": false,
      "t": 65304.939000000486,
      "d": 182.92700000000332,
      "v": 100
    },
    {
      "midi": 61,
      "hit": false,
      "t": 65487.865999999965,
      "d": 548.7810000000027,
      "v": 100
    },
    {
      "midi": 57,
      "hit": false,
      "t": 65487.865999999965,
      "d": 548.7810000000027,
      "v": 100
    },
    {
      "midi": 46,
      "hit": false,
      "t": 65487.866000000446,
      "d": 182.92699999999604,
      "v": 80
    },
    {
      "midi": 36,
      "hit": false,
      "t": 65487.866000000446,
      "d": 182.92699999999604,
      "v": 100
    },
    {
      "midi": 33,
      "hit": false,
      "t": 65487.86600000049,
      "d": 182.92699999999604,
      "v": 100
    },
    {
      "midi": 61,
      "hit": false,
      "t": 65670.79300000024,
      "d": 182.92699999999604,
      "v": 100
    },
    {
      "midi": 69,
      "hit": false,
      "t": 65670.79300000024,
      "d": 182.92699999999604,
      "v": 100
    },
    {
      "midi": 64,
      "hit": false,
      "t": 65670.79300000024,
      "d": 182.92699999999604,
      "v": 100
    },
    {
      "midi": 52,
      "hit": false,
      "t": 65670.79300000024,
      "d": 182.92699999999604,
      "v": 100
    },
    {
      "midi": 57,
      "hit": false,
      "t": 65670.79300000024,
      "d": 182.92699999999604,
      "v": 100
    },
    {
      "midi": 61,
      "hit": false,
      "t": 65670.79300000024,
      "d": 182.92699999999604,
      "v": 100
    },
    {
      "midi": 69,
      "hit": false,
      "t": 65670.79300000024,
      "d": 182.92699999999604,
      "v": 100
    },
    {
      "midi": 64,
      "hit": false,
      "t": 65670.79300000024,
      "d": 182.92699999999604,
      "v": 100
    },
    {
      "midi": 52,
      "hit": false,
      "t": 65670.79300000024,
      "d": 182.92699999999604,
      "v": 100
    },
    {
      "midi": 57,
      "hit": false,
      "t": 65670.79300000024,
      "d": 182.92699999999604,
      "v": 100
    },
    {
      "midi": 36,
      "hit": false,
      "t": 65670.79300000044,
      "d": 182.92699999999604,
      "v": 100
    },
    {
      "midi": 46,
      "hit": false,
      "t": 65670.79300000044,
      "d": 182.92699999999604,
      "v": 80
    },
    {
      "midi": 33,
      "hit": false,
      "t": 65670.79300000049,
      "d": 182.92699999999604,
      "v": 100
    },
    {
      "midi": 52,
      "hit": false,
      "t": 65853.72000000023,
      "d": 182.92699999999604,
      "v": 100
    },
    {
      "midi": 61,
      "hit": false,
      "t": 65853.72000000023,
      "d": 182.92699999999604,
      "v": 100
    },
    {
      "midi": 64,
      "hit": false,
      "t": 65853.72000000023,
      "d": 182.92699999999604,
      "v": 100
    },
    {
      "midi": 69,
      "hit": false,
      "t": 65853.72000000023,
      "d": 182.92699999999604,
      "v": 100
    },
    {
      "midi": 57,
      "hit": false,
      "t": 65853.72000000023,
      "d": 182.92699999999604,
      "v": 100
    },
    {
      "midi": 52,
      "hit": false,
      "t": 65853.72000000023,
      "d": 182.92699999999604,
      "v": 100
    },
    {
      "midi": 61,
      "hit": false,
      "t": 65853.72000000023,
      "d": 182.92699999999604,
      "v": 100
    },
    {
      "midi": 64,
      "hit": false,
      "t": 65853.72000000023,
      "d": 182.92699999999604,
      "v": 100
    },
    {
      "midi": 69,
      "hit": false,
      "t": 65853.72000000023,
      "d": 182.92699999999604,
      "v": 100
    },
    {
      "midi": 57,
      "hit": false,
      "t": 65853.72000000023,
      "d": 182.92699999999604,
      "v": 100
    },
    {
      "midi": 46,
      "hit": false,
      "t": 65853.72000000044,
      "d": 182.92699999999604,
      "v": 80
    },
    {
      "midi": 40,
      "hit": false,
      "t": 65853.72000000044,
      "d": 365.8539999999921,
      "v": 100
    },
    {
      "midi": 33,
      "hit": false,
      "t": 65853.72000000048,
      "d": 182.92699999999604,
      "v": 100
    },
    {
      "midi": 64,
      "hit": false,
      "t": 66036.64700000023,
      "d": 182.92699999999604,
      "v": 100
    },
    {
      "midi": 61,
      "hit": false,
      "t": 66036.64700000023,
      "d": 182.92699999999604,
      "v": 100
    },
    {
      "midi": 52,
      "hit": false,
      "t": 66036.64700000023,
      "d": 182.92699999999604,
      "v": 100
    },
    {
      "midi": 57,
      "hit": false,
      "t": 66036.64700000023,
      "d": 182.92699999999604,
      "v": 100
    },
    {
      "midi": 69,
      "hit": false,
      "t": 66036.64700000023,
      "d": 182.92699999999604,
      "v": 100
    },
    {
      "midi": 64,
      "hit": false,
      "t": 66036.64700000023,
      "d": 182.92699999999604,
      "v": 100
    },
    {
      "midi": 61,
      "hit": false,
      "t": 66036.64700000023,
      "d": 182.92699999999604,
      "v": 100
    },
    {
      "midi": 52,
      "hit": false,
      "t": 66036.64700000023,
      "d": 182.92699999999604,
      "v": 100
    },
    {
      "midi": 57,
      "hit": false,
      "t": 66036.64700000023,
      "d": 182.92699999999604,
      "v": 100
    },
    {
      "midi": 69,
      "hit": false,
      "t": 66036.64700000023,
      "d": 182.92699999999604,
      "v": 100
    },
    {
      "midi": 46,
      "hit": false,
      "t": 66036.64700000043,
      "d": 182.92699999999604,
      "v": 80
    },
    {
      "midi": 33,
      "hit": false,
      "t": 66036.64700000048,
      "d": 182.92699999999604,
      "v": 100
    },
    {
      "midi": 61,
      "hit": false,
      "t": 66219.57399999996,
      "d": 365.85400000000664,
      "v": 100
    },
    {
      "midi": 57,
      "hit": false,
      "t": 66219.57399999996,
      "d": 365.85400000000664,
      "v": 100
    },
    {
      "midi": 64,
      "hit": false,
      "t": 66219.57400000023,
      "d": 182.92699999999604,
      "v": 100
    },
    {
      "midi": 57,
      "hit": false,
      "t": 66219.57400000023,
      "d": 182.92699999999604,
      "v": 100
    },
    {
      "midi": 52,
      "hit": false,
      "t": 66219.57400000023,
      "d": 182.92699999999604,
      "v": 100
    },
    {
      "midi": 69,
      "hit": false,
      "t": 66219.57400000023,
      "d": 182.92699999999604,
      "v": 100
    },
    {
      "midi": 61,
      "hit": false,
      "t": 66219.57400000023,
      "d": 182.92699999999604,
      "v": 100
    },
    {
      "midi": 64,
      "hit": false,
      "t": 66219.57400000023,
      "d": 182.92699999999604,
      "v": 100
    },
    {
      "midi": 57,
      "hit": false,
      "t": 66219.57400000023,
      "d": 182.92699999999604,
      "v": 100
    },
    {
      "midi": 52,
      "hit": false,
      "t": 66219.57400000023,
      "d": 182.92699999999604,
      "v": 100
    },
    {
      "midi": 69,
      "hit": false,
      "t": 66219.57400000023,
      "d": 182.92699999999604,
      "v": 100
    },
    {
      "midi": 61,
      "hit": false,
      "t": 66219.57400000023,
      "d": 182.92699999999604,
      "v": 100
    },
    {
      "midi": 46,
      "hit": false,
      "t": 66219.57400000043,
      "d": 182.92699999999604,
      "v": 80
    },
    {
      "midi": 36,
      "hit": false,
      "t": 66219.57400000043,
      "d": 365.8539999999921,
      "v": 100
    },
    {
      "midi": 33,
      "hit": false,
      "t": 66219.57400000047,
      "d": 182.92699999999604,
      "v": 100
    },
    {
      "midi": 61,
      "hit": false,
      "t": 66402.50100000022,
      "d": 182.92699999999604,
      "v": 100
    },
    {
      "midi": 57,
      "hit": false,
      "t": 66402.50100000022,
      "d": 182.92699999999604,
      "v": 100
    },
    {
      "midi": 64,
      "hit": false,
      "t": 66402.50100000022,
      "d": 182.92699999999604,
      "v": 100
    },
    {
      "midi": 69,
      "hit": false,
      "t": 66402.50100000022,
      "d": 182.92699999999604,
      "v": 100
    },
    {
      "midi": 52,
      "hit": false,
      "t": 66402.50100000022,
      "d": 182.92699999999604,
      "v": 100
    },
    {
      "midi": 61,
      "hit": false,
      "t": 66402.50100000022,
      "d": 182.92699999999604,
      "v": 100
    },
    {
      "midi": 57,
      "hit": false,
      "t": 66402.50100000022,
      "d": 182.92699999999604,
      "v": 100
    },
    {
      "midi": 64,
      "hit": false,
      "t": 66402.50100000022,
      "d": 182.92699999999604,
      "v": 100
    },
    {
      "midi": 69,
      "hit": false,
      "t": 66402.50100000022,
      "d": 182.92699999999604,
      "v": 100
    },
    {
      "midi": 52,
      "hit": false,
      "t": 66402.50100000022,
      "d": 182.92699999999604,
      "v": 100
    },
    {
      "midi": 46,
      "hit": false,
      "t": 66402.50100000043,
      "d": 182.92699999999604,
      "v": 80
    },
    {
      "midi": 33,
      "hit": false,
      "t": 66402.50100000047,
      "d": 182.92699999999604,
      "v": 100
    },
    {
      "midi": 69,
      "hit": false,
      "t": 66585.42799999997,
      "d": 365.85400000000664,
      "v": 100
    },
    {
      "midi": 65,
      "hit": false,
      "t": 66585.42799999997,
      "d": 365.85400000000664,
      "v": 100
    },
    {
      "midi": 64,
      "hit": false,
      "t": 66585.42800000022,
      "d": 182.92699999999604,
      "v": 100
    },
    {
      "midi": 52,
      "hit": false,
      "t": 66585.42800000022,
      "d": 182.92699999999604,
      "v": 100
    },
    {
      "midi": 57,
      "hit": false,
      "t": 66585.42800000022,
      "d": 182.92699999999604,
      "v": 100
    },
    {
      "midi": 69,
      "hit": false,
      "t": 66585.42800000022,
      "d": 182.92699999999604,
      "v": 100
    },
    {
      "midi": 61,
      "hit": false,
      "t": 66585.42800000022,
      "d": 182.92699999999604,
      "v": 100
    },
    {
      "midi": 64,
      "hit": false,
      "t": 66585.42800000022,
      "d": 182.92699999999604,
      "v": 100
    },
    {
      "midi": 52,
      "hit": false,
      "t": 66585.42800000022,
      "d": 182.92699999999604,
      "v": 100
    },
    {
      "midi": 57,
      "hit": false,
      "t": 66585.42800000022,
      "d": 182.92699999999604,
      "v": 100
    },
    {
      "midi": 69,
      "hit": false,
      "t": 66585.42800000022,
      "d": 182.92699999999604,
      "v": 100
    },
    {
      "midi": 61,
      "hit": false,
      "t": 66585.42800000022,
      "d": 182.92699999999604,
      "v": 100
    },
    {
      "midi": 40,
      "hit": false,
      "t": 66585.42800000042,
      "d": 182.92699999999604,
      "v": 100
    },
    {
      "midi": 46,
      "hit": false,
      "t": 66585.42800000042,
      "d": 182.92699999999604,
      "v": 80
    },
    {
      "midi": 33,
      "hit": false,
      "t": 66585.42800000047,
      "d": 182.92699999999604,
      "v": 100
    },
    {
      "midi": 57,
      "hit": false,
      "t": 66768.35500000021,
      "d": 365.85400000000664,
      "v": 100
    },
    {
      "midi": 69,
      "hit": false,
      "t": 66768.35500000021,
      "d": 365.85400000000664,
      "v": 100
    },
    {
      "midi": 61,
      "hit": false,
      "t": 66768.35500000021,
      "d": 365.85400000000664,
      "v": 100
    },
    {
      "midi": 52,
      "hit": false,
      "t": 66768.35500000021,
      "d": 365.85400000000664,
      "v": 100
    },
    {
      "midi": 64,
      "hit": false,
      "t": 66768.35500000021,
      "d": 365.85400000000664,
      "v": 100
    },
    {
      "midi": 57,
      "hit": false,
      "t": 66768.35500000021,
      "d": 365.85400000000664,
      "v": 100
    },
    {
      "midi": 69,
      "hit": false,
      "t": 66768.35500000021,
      "d": 365.85400000000664,
      "v": 100
    },
    {
      "midi": 61,
      "hit": false,
      "t": 66768.35500000021,
      "d": 365.85400000000664,
      "v": 100
    },
    {
      "midi": 52,
      "hit": false,
      "t": 66768.35500000021,
      "d": 365.85400000000664,
      "v": 100
    },
    {
      "midi": 64,
      "hit": false,
      "t": 66768.35500000021,
      "d": 365.85400000000664,
      "v": 100
    },
    {
      "midi": 46,
      "hit": false,
      "t": 66768.35500000042,
      "d": 182.92699999999604,
      "v": 80
    },
    {
      "midi": 36,
      "hit": false,
      "t": 66768.35500000042,
      "d": 365.8539999999921,
      "v": 100
    },
    {
      "midi": 33,
      "hit": false,
      "t": 66768.35500000046,
      "d": 182.92699999999604,
      "v": 100
    },
    {
      "midi": 67,
      "hit": false,
      "t": 66951.28199999998,
      "d": 365.85400000000664,
      "v": 100
    },
    {
      "midi": 64,
      "hit": false,
      "t": 66951.28199999998,
      "d": 365.85400000000664,
      "v": 100
    },
    {
      "midi": 46,
      "hit": false,
      "t": 66951.28200000041,
      "d": 182.92699999999604,
      "v": 80
    },
    {
      "midi": 33,
      "hit": false,
      "t": 66951.28200000046,
      "d": 182.92699999999604,
      "v": 100
    },
    {
      "midi": 69,
      "hit": false,
      "t": 67134.20900000022,
      "d": 182.92699999999604,
      "v": 100
    },
    {
      "midi": 52,
      "hit": false,
      "t": 67134.20900000022,
      "d": 182.92699999999604,
      "v": 100
    },
    {
      "midi": 64,
      "hit": false,
      "t": 67134.20900000022,
      "d": 182.92699999999604,
      "v": 100
    },
    {
      "midi": 57,
      "hit": false,
      "t": 67134.20900000022,
      "d": 182.92699999999604,
      "v": 100
    },
    {
      "midi": 61,
      "hit": false,
      "t": 67134.20900000022,
      "d": 182.92699999999604,
      "v": 100
    },
    {
      "midi": 69,
      "hit": false,
      "t": 67134.20900000022,
      "d": 182.92699999999604,
      "v": 100
    },
    {
      "midi": 52,
      "hit": false,
      "t": 67134.20900000022,
      "d": 182.92699999999604,
      "v": 100
    },
    {
      "midi": 64,
      "hit": false,
      "t": 67134.20900000022,
      "d": 182.92699999999604,
      "v": 100
    },
    {
      "midi": 57,
      "hit": false,
      "t": 67134.20900000022,
      "d": 182.92699999999604,
      "v": 100
    },
    {
      "midi": 61,
      "hit": false,
      "t": 67134.20900000022,
      "d": 182.92699999999604,
      "v": 100
    },
    {
      "midi": 36,
      "hit": false,
      "t": 67134.20900000041,
      "d": 182.92699999999604,
      "v": 100
    },
    {
      "midi": 46,
      "hit": false,
      "t": 67134.20900000041,
      "d": 182.92699999999604,
      "v": 80
    },
    {
      "midi": 33,
      "hit": false,
      "t": 67134.20900000045,
      "d": 182.92699999999604,
      "v": 100
    },
    {
      "midi": 65,
      "hit": false,
      "t": 67317.13599999998,
      "d": 365.85400000000664,
      "v": 100
    },
    {
      "midi": 62,
      "hit": false,
      "t": 67317.13599999998,
      "d": 365.85400000000664,
      "v": 100
    },
    {
      "midi": 61,
      "hit": false,
      "t": 67317.13600000022,
      "d": 182.92699999999604,
      "v": 100
    },
    {
      "midi": 69,
      "hit": false,
      "t": 67317.13600000022,
      "d": 182.92699999999604,
      "v": 100
    },
    {
      "midi": 57,
      "hit": false,
      "t": 67317.13600000022,
      "d": 182.92699999999604,
      "v": 100
    },
    {
      "midi": 52,
      "hit": false,
      "t": 67317.13600000022,
      "d": 182.92699999999604,
      "v": 100
    },
    {
      "midi": 64,
      "hit": false,
      "t": 67317.13600000022,
      "d": 182.92699999999604,
      "v": 100
    },
    {
      "midi": 61,
      "hit": false,
      "t": 67317.13600000022,
      "d": 182.92699999999604,
      "v": 100
    },
    {
      "midi": 69,
      "hit": false,
      "t": 67317.13600000022,
      "d": 182.92699999999604,
      "v": 100
    },
    {
      "midi": 57,
      "hit": false,
      "t": 67317.13600000022,
      "d": 182.92699999999604,
      "v": 100
    },
    {
      "midi": 52,
      "hit": false,
      "t": 67317.13600000022,
      "d": 182.92699999999604,
      "v": 100
    },
    {
      "midi": 64,
      "hit": false,
      "t": 67317.13600000022,
      "d": 182.92699999999604,
      "v": 100
    },
    {
      "midi": 46,
      "hit": false,
      "t": 67317.1360000004,
      "d": 182.92699999999604,
      "v": 80
    },
    {
      "midi": 40,
      "hit": false,
      "t": 67317.1360000004,
      "d": 365.8539999999921,
      "v": 100
    },
    {
      "midi": 36,
      "hit": false,
      "t": 67317.13600000045,
      "d": 182.92699999999604,
      "v": 100
    },
    {
      "midi": 52,
      "hit": false,
      "t": 67500.06300000021,
      "d": 182.92699999999604,
      "v": 100
    },
    {
      "midi": 64,
      "hit": false,
      "t": 67500.06300000021,
      "d": 182.92699999999604,
      "v": 100
    },
    {
      "midi": 69,
      "hit": false,
      "t": 67500.06300000021,
      "d": 182.92699999999604,
      "v": 100
    },
    {
      "midi": 57,
      "hit": false,
      "t": 67500.06300000021,
      "d": 182.92699999999604,
      "v": 100
    },
    {
      "midi": 61,
      "hit": false,
      "t": 67500.06300000021,
      "d": 182.92699999999604,
      "v": 100
    },
    {
      "midi": 52,
      "hit": false,
      "t": 67500.06300000021,
      "d": 182.92699999999604,
      "v": 100
    },
    {
      "midi": 64,
      "hit": false,
      "t": 67500.06300000021,
      "d": 182.92699999999604,
      "v": 100
    },
    {
      "midi": 69,
      "hit": false,
      "t": 67500.06300000021,
      "d": 182.92699999999604,
      "v": 100
    },
    {
      "midi": 57,
      "hit": false,
      "t": 67500.06300000021,
      "d": 182.92699999999604,
      "v": 100
    },
    {
      "midi": 61,
      "hit": false,
      "t": 67500.06300000021,
      "d": 182.92699999999604,
      "v": 100
    },
    {
      "midi": 46,
      "hit": false,
      "t": 67500.0630000004,
      "d": 182.92699999999604,
      "v": 80
    },
    {
      "midi": 36,
      "hit": false,
      "t": 67500.06300000045,
      "d": 182.92699999999604,
      "v": 100
    },
    {
      "midi": 67,
      "hit": false,
      "t": 67682.98999999999,
      "d": 274.39049999999406,
      "v": 100
    },
    {
      "midi": 64,
      "hit": false,
      "t": 67682.98999999999,
      "d": 274.39049999999406,
      "v": 100
    },
    {
      "midi": 65,
      "hit": false,
      "t": 67682.99000000021,
      "d": 182.92699999999604,
      "v": 100
    },
    {
      "midi": 57,
      "hit": false,
      "t": 67682.99000000021,
      "d": 182.92699999999604,
      "v": 100
    },
    {
      "midi": 69,
      "hit": false,
      "t": 67682.99000000021,
      "d": 182.92699999999604,
      "v": 100
    },
    {
      "midi": 50,
      "hit": false,
      "t": 67682.99000000021,
      "d": 182.92699999999604,
      "v": 100
    },
    {
      "midi": 62,
      "hit": false,
      "t": 67682.99000000021,
      "d": 182.92699999999604,
      "v": 100
    },
    {
      "midi": 65,
      "hit": false,
      "t": 67682.99000000021,
      "d": 182.92699999999604,
      "v": 100
    },
    {
      "midi": 57,
      "hit": false,
      "t": 67682.99000000021,
      "d": 182.92699999999604,
      "v": 100
    },
    {
      "midi": 69,
      "hit": false,
      "t": 67682.99000000021,
      "d": 182.92699999999604,
      "v": 100
    },
    {
      "midi": 50,
      "hit": false,
      "t": 67682.99000000021,
      "d": 182.92699999999604,
      "v": 100
    },
    {
      "midi": 62,
      "hit": false,
      "t": 67682.99000000021,
      "d": 182.92699999999604,
      "v": 100
    },
    {
      "midi": 46,
      "hit": false,
      "t": 67682.9900000004,
      "d": 182.92699999999604,
      "v": 80
    },
    {
      "midi": 36,
      "hit": false,
      "t": 67682.9900000004,
      "d": 365.8539999999921,
      "v": 100
    },
    {
      "midi": 38,
      "hit": false,
      "t": 67682.99000000044,
      "d": 182.92699999999604,
      "v": 100
    },
    {
      "midi": 69,
      "hit": false,
      "t": 67865.9170000002,
      "d": 182.92699999999604,
      "v": 100
    },
    {
      "midi": 57,
      "hit": false,
      "t": 67865.9170000002,
      "d": 182.92699999999604,
      "v": 100
    },
    {
      "midi": 50,
      "hit": false,
      "t": 67865.9170000002,
      "d": 182.92699999999604,
      "v": 100
    },
    {
      "midi": 62,
      "hit": false,
      "t": 67865.9170000002,
      "d": 182.92699999999604,
      "v": 100
    },
    {
      "midi": 65,
      "hit": false,
      "t": 67865.9170000002,
      "d": 182.92699999999604,
      "v": 100
    },
    {
      "midi": 69,
      "hit": false,
      "t": 67865.9170000002,
      "d": 182.92699999999604,
      "v": 100
    },
    {
      "midi": 57,
      "hit": false,
      "t": 67865.9170000002,
      "d": 182.92699999999604,
      "v": 100
    },
    {
      "midi": 50,
      "hit": false,
      "t": 67865.9170000002,
      "d": 182.92699999999604,
      "v": 100
    },
    {
      "midi": 62,
      "hit": false,
      "t": 67865.9170000002,
      "d": 182.92699999999604,
      "v": 100
    },
    {
      "midi": 65,
      "hit": false,
      "t": 67865.9170000002,
      "d": 182.92699999999604,
      "v": 100
    },
    {
      "midi": 46,
      "hit": false,
      "t": 67865.9170000004,
      "d": 182.92699999999604,
      "v": 80
    },
    {
      "midi": 38,
      "hit": false,
      "t": 67865.91700000044,
      "d": 182.92699999999604,
      "v": 100
    },
    {
      "midi": 65,
      "hit": false,
      "t": 67957.38049999998,
      "d": 274.39049999999406,
      "v": 100
    },
    {
      "midi": 62,
      "hit": false,
      "t": 67957.38049999998,
      "d": 274.39049999999406,
      "v": 100
    },
    {
      "midi": 50,
      "hit": false,
      "t": 68048.8440000002,
      "d": 182.92699999999604,
      "v": 100
    },
    {
      "midi": 65,
      "hit": false,
      "t": 68048.8440000002,
      "d": 182.92699999999604,
      "v": 100
    },
    {
      "midi": 69,
      "hit": false,
      "t": 68048.8440000002,
      "d": 182.92699999999604,
      "v": 100
    },
    {
      "midi": 57,
      "hit": false,
      "t": 68048.8440000002,
      "d": 182.92699999999604,
      "v": 100
    },
    {
      "midi": 62,
      "hit": false,
      "t": 68048.8440000002,
      "d": 182.92699999999604,
      "v": 100
    },
    {
      "midi": 50,
      "hit": false,
      "t": 68048.8440000002,
      "d": 182.92699999999604,
      "v": 100
    },
    {
      "midi": 65,
      "hit": false,
      "t": 68048.8440000002,
      "d": 182.92699999999604,
      "v": 100
    },
    {
      "midi": 69,
      "hit": false,
      "t": 68048.8440000002,
      "d": 182.92699999999604,
      "v": 100
    },
    {
      "midi": 57,
      "hit": false,
      "t": 68048.8440000002,
      "d": 182.92699999999604,
      "v": 100
    },
    {
      "midi": 62,
      "hit": false,
      "t": 68048.8440000002,
      "d": 182.92699999999604,
      "v": 100
    },
    {
      "midi": 40,
      "hit": false,
      "t": 68048.84400000039,
      "d": 182.92699999999604,
      "v": 100
    },
    {
      "midi": 46,
      "hit": false,
      "t": 68048.84400000039,
      "d": 182.92699999999604,
      "v": 80
    },
    {
      "midi": 38,
      "hit": false,
      "t": 68048.84400000043,
      "d": 182.92699999999604,
      "v": 100
    },
    {
      "midi": 64,
      "hit": false,
      "t": 68231.77099999998,
      "d": 182.92699999999604,
      "v": 100
    },
    {
      "midi": 60,
      "hit": false,
      "t": 68231.77099999998,
      "d": 182.92699999999604,
      "v": 100
    },
    {
      "midi": 62,
      "hit": false,
      "t": 68231.7710000002,
      "d": 365.85400000000664,
      "v": 100
    },
    {
      "midi": 57,
      "hit": false,
      "t": 68231.7710000002,
      "d": 365.85400000000664,
      "v": 100
    },
    {
      "midi": 50,
      "hit": false,
      "t": 68231.7710000002,
      "d": 365.85400000000664,
      "v": 100
    },
    {
      "midi": 65,
      "hit": false,
      "t": 68231.7710000002,
      "d": 365.85400000000664,
      "v": 100
    },
    {
      "midi": 69,
      "hit": false,
      "t": 68231.7710000002,
      "d": 365.85400000000664,
      "v": 100
    },
    {
      "midi": 62,
      "hit": false,
      "t": 68231.7710000002,
      "d": 365.85400000000664,
      "v": 100
    },
    {
      "midi": 57,
      "hit": false,
      "t": 68231.7710000002,
      "d": 365.85400000000664,
      "v": 100
    },
    {
      "midi": 50,
      "hit": false,
      "t": 68231.7710000002,
      "d": 365.85400000000664,
      "v": 100
    },
    {
      "midi": 65,
      "hit": false,
      "t": 68231.7710000002,
      "d": 365.85400000000664,
      "v": 100
    },
    {
      "midi": 69,
      "hit": false,
      "t": 68231.7710000002,
      "d": 365.85400000000664,
      "v": 100
    },
    {
      "midi": 46,
      "hit": false,
      "t": 68231.77100000039,
      "d": 182.92699999999604,
      "v": 80
    },
    {
      "midi": 36,
      "hit": false,
      "t": 68231.77100000039,
      "d": 365.8539999999921,
      "v": 100
    },
    {
      "midi": 38,
      "hit": false,
      "t": 68231.77100000043,
      "d": 182.92699999999604,
      "v": 100
    },
    {
      "midi": 65,
      "hit": false,
      "t": 68414.69799999997,
      "d": 548.7810000000027,
      "v": 100
    },
    {
      "midi": 62,
      "hit": false,
      "t": 68414.69799999997,
      "d": 548.7810000000027,
      "v": 100
    },
    {
      "midi": 46,
      "hit": false,
      "t": 68414.69800000038,
      "d": 182.92699999999604,
      "v": 80
    },
    {
      "midi": 38,
      "hit": false,
      "t": 68414.69800000043,
      "d": 182.92699999999604,
      "v": 100
    },
    {
      "midi": 57,
      "hit": false,
      "t": 68597.6250000002,
      "d": 182.92699999999604,
      "v": 100
    },
    {
      "midi": 69,
      "hit": false,
      "t": 68597.6250000002,
      "d": 182.92699999999604,
      "v": 100
    },
    {
      "midi": 50,
      "hit": false,
      "t": 68597.6250000002,
      "d": 182.92699999999604,
      "v": 100
    },
    {
      "midi": 62,
      "hit": false,
      "t": 68597.6250000002,
      "d": 182.92699999999604,
      "v": 100
    },
    {
      "midi": 65,
      "hit": false,
      "t": 68597.6250000002,
      "d": 182.92699999999604,
      "v": 100
    },
    {
      "midi": 57,
      "hit": false,
      "t": 68597.6250000002,
      "d": 182.92699999999604,
      "v": 100
    },
    {
      "midi": 69,
      "hit": false,
      "t": 68597.6250000002,
      "d": 182.92699999999604,
      "v": 100
    },
    {
      "midi": 50,
      "hit": false,
      "t": 68597.6250000002,
      "d": 182.92699999999604,
      "v": 100
    },
    {
      "midi": 62,
      "hit": false,
      "t": 68597.6250000002,
      "d": 182.92699999999604,
      "v": 100
    },
    {
      "midi": 65,
      "hit": false,
      "t": 68597.6250000002,
      "d": 182.92699999999604,
      "v": 100
    },
    {
      "midi": 36,
      "hit": false,
      "t": 68597.62500000038,
      "d": 182.92699999999604,
      "v": 100
    },
    {
      "midi": 46,
      "hit": false,
      "t": 68597.62500000038,
      "d": 182.92699999999604,
      "v": 80
    },
    {
      "midi": 38,
      "hit": false,
      "t": 68597.62500000042,
      "d": 182.92699999999604,
      "v": 100
    },
    {
      "midi": 69,
      "hit": false,
      "t": 68780.5520000002,
      "d": 182.92699999999604,
      "v": 100
    },
    {
      "midi": 50,
      "hit": false,
      "t": 68780.5520000002,
      "d": 182.92699999999604,
      "v": 100
    },
    {
      "midi": 65,
      "hit": false,
      "t": 68780.5520000002,
      "d": 182.92699999999604,
      "v": 100
    },
    {
      "midi": 62,
      "hit": false,
      "t": 68780.5520000002,
      "d": 182.92699999999604,
      "v": 100
    },
    {
      "midi": 57,
      "hit": false,
      "t": 68780.5520000002,
      "d": 182.92699999999604,
      "v": 100
    },
    {
      "midi": 69,
      "hit": false,
      "t": 68780.5520000002,
      "d": 182.92699999999604,
      "v": 100
    },
    {
      "midi": 50,
      "hit": false,
      "t": 68780.5520000002,
      "d": 182.92699999999604,
      "v": 100
    },
    {
      "midi": 65,
      "hit": false,
      "t": 68780.5520000002,
      "d": 182.92699999999604,
      "v": 100
    },
    {
      "midi": 62,
      "hit": false,
      "t": 68780.5520000002,
      "d": 182.92699999999604,
      "v": 100
    },
    {
      "midi": 57,
      "hit": false,
      "t": 68780.5520000002,
      "d": 182.92699999999604,
      "v": 100
    },
    {
      "midi": 46,
      "hit": false,
      "t": 68780.55200000037,
      "d": 182.92699999999604,
      "v": 80
    },
    {
      "midi": 40,
      "hit": false,
      "t": 68780.55200000037,
      "d": 365.8539999999921,
      "v": 100
    },
    {
      "midi": 38,
      "hit": false,
      "t": 68780.55200000042,
      "d": 182.92699999999604,
      "v": 100
    },
    {
      "midi": 65,
      "hit": false,
      "t": 68963.4790000002,
      "d": 182.92699999999604,
      "v": 100
    },
    {
      "midi": 57,
      "hit": false,
      "t": 68963.4790000002,
      "d": 182.92699999999604,
      "v": 100
    },
    {
      "midi": 69,
      "hit": false,
      "t": 68963.4790000002,
      "d": 182.92699999999604,
      "v": 100
    },
    {
      "midi": 50,
      "hit": false,
      "t": 68963.4790000002,
      "d": 182.92699999999604,
      "v": 100
    },
    {
      "midi": 62,
      "hit": false,
      "t": 68963.4790000002,
      "d": 182.92699999999604,
      "v": 100
    },
    {
      "midi": 65,
      "hit": false,
      "t": 68963.4790000002,
      "d": 182.92699999999604,
      "v": 100
    },
    {
      "midi": 57,
      "hit": false,
      "t": 68963.4790000002,
      "d": 182.92699999999604,
      "v": 100
    },
    {
      "midi": 69,
      "hit": false,
      "t": 68963.4790000002,
      "d": 182.92699999999604,
      "v": 100
    },
    {
      "midi": 50,
      "hit": false,
      "t": 68963.4790000002,
      "d": 182.92699999999604,
      "v": 100
    },
    {
      "midi": 62,
      "hit": false,
      "t": 68963.4790000002,
      "d": 182.92699999999604,
      "v": 100
    },
    {
      "midi": 46,
      "hit": false,
      "t": 68963.47900000037,
      "d": 182.92699999999604,
      "v": 80
    },
    {
      "midi": 38,
      "hit": false,
      "t": 68963.47900000041,
      "d": 182.92699999999604,
      "v": 100
    },
    {
      "midi": 67,
      "hit": false,
      "t": 69146.40599999997,
      "d": 274.39049999999406,
      "v": 100
    },
    {
      "midi": 64,
      "hit": false,
      "t": 69146.40599999997,
      "d": 274.39049999999406,
      "v": 100
    },
    {
      "midi": 57,
      "hit": false,
      "t": 69146.40600000019,
      "d": 182.92699999999604,
      "v": 100
    },
    {
      "midi": 69,
      "hit": false,
      "t": 69146.40600000019,
      "d": 182.92699999999604,
      "v": 100
    },
    {
      "midi": 50,
      "hit": false,
      "t": 69146.40600000019,
      "d": 182.92699999999604,
      "v": 100
    },
    {
      "midi": 62,
      "hit": false,
      "t": 69146.40600000019,
      "d": 182.92699999999604,
      "v": 100
    },
    {
      "midi": 65,
      "hit": false,
      "t": 69146.40600000019,
      "d": 182.92699999999604,
      "v": 100
    },
    {
      "midi": 57,
      "hit": false,
      "t": 69146.40600000019,
      "d": 182.92699999999604,
      "v": 100
    },
    {
      "midi": 69,
      "hit": false,
      "t": 69146.40600000019,
      "d": 182.92699999999604,
      "v": 100
    },
    {
      "midi": 50,
      "hit": false,
      "t": 69146.40600000019,
      "d": 182.92699999999604,
      "v": 100
    },
    {
      "midi": 62,
      "hit": false,
      "t": 69146.40600000019,
      "d": 182.92699999999604,
      "v": 100
    },
    {
      "midi": 65,
      "hit": false,
      "t": 69146.40600000019,
      "d": 182.92699999999604,
      "v": 100
    },
    {
      "midi": 46,
      "hit": false,
      "t": 69146.40600000037,
      "d": 182.92699999999604,
      "v": 80
    },
    {
      "midi": 36,
      "hit": false,
      "t": 69146.40600000037,
      "d": 365.8539999999921,
      "v": 100
    },
    {
      "midi": 38,
      "hit": false,
      "t": 69146.40600000041,
      "d": 182.92699999999604,
      "v": 100
    },
    {
      "midi": 62,
      "hit": false,
      "t": 69329.33300000019,
      "d": 182.92699999999604,
      "v": 100
    },
    {
      "midi": 57,
      "hit": false,
      "t": 69329.33300000019,
      "d": 182.92699999999604,
      "v": 100
    },
    {
      "midi": 65,
      "hit": false,
      "t": 69329.33300000019,
      "d": 182.92699999999604,
      "v": 100
    },
    {
      "midi": 69,
      "hit": false,
      "t": 69329.33300000019,
      "d": 182.92699999999604,
      "v": 100
    },
    {
      "midi": 50,
      "hit": false,
      "t": 69329.33300000019,
      "d": 182.92699999999604,
      "v": 100
    },
    {
      "midi": 62,
      "hit": false,
      "t": 69329.33300000019,
      "d": 182.92699999999604,
      "v": 100
    },
    {
      "midi": 57,
      "hit": false,
      "t": 69329.33300000019,
      "d": 182.92699999999604,
      "v": 100
    },
    {
      "midi": 65,
      "hit": false,
      "t": 69329.33300000019,
      "d": 182.92699999999604,
      "v": 100
    },
    {
      "midi": 69,
      "hit": false,
      "t": 69329.33300000019,
      "d": 182.92699999999604,
      "v": 100
    },
    {
      "midi": 50,
      "hit": false,
      "t": 69329.33300000019,
      "d": 182.92699999999604,
      "v": 100
    },
    {
      "midi": 46,
      "hit": false,
      "t": 69329.33300000036,
      "d": 182.92699999999604,
      "v": 80
    },
    {
      "midi": 38,
      "hit": false,
      "t": 69329.3330000004,
      "d": 182.92699999999604,
      "v": 100
    },
    {
      "midi": 65,
      "hit": false,
      "t": 69420.79649999997,
      "d": 274.39049999999406,
      "v": 100
    },
    {
      "midi": 62,
      "hit": false,
      "t": 69420.79649999997,
      "d": 274.39049999999406,
      "v": 100
    },
    {
      "midi": 50,
      "hit": false,
      "t": 69512.26000000018,
      "d": 182.92699999999604,
      "v": 100
    },
    {
      "midi": 62,
      "hit": false,
      "t": 69512.26000000018,
      "d": 182.92699999999604,
      "v": 100
    },
    {
      "midi": 69,
      "hit": false,
      "t": 69512.26000000018,
      "d": 182.92699999999604,
      "v": 100
    },
    {
      "midi": 65,
      "hit": false,
      "t": 69512.26000000018,
      "d": 182.92699999999604,
      "v": 100
    },
    {
      "midi": 57,
      "hit": false,
      "t": 69512.26000000018,
      "d": 182.92699999999604,
      "v": 100
    },
    {
      "midi": 50,
      "hit": false,
      "t": 69512.26000000018,
      "d": 182.92699999999604,
      "v": 100
    },
    {
      "midi": 62,
      "hit": false,
      "t": 69512.26000000018,
      "d": 182.92699999999604,
      "v": 100
    },
    {
      "midi": 69,
      "hit": false,
      "t": 69512.26000000018,
      "d": 182.92699999999604,
      "v": 100
    },
    {
      "midi": 65,
      "hit": false,
      "t": 69512.26000000018,
      "d": 182.92699999999604,
      "v": 100
    },
    {
      "midi": 57,
      "hit": false,
      "t": 69512.26000000018,
      "d": 182.92699999999604,
      "v": 100
    },
    {
      "midi": 40,
      "hit": false,
      "t": 69512.26000000036,
      "d": 182.92699999999604,
      "v": 100
    },
    {
      "midi": 46,
      "hit": false,
      "t": 69512.26000000036,
      "d": 182.92699999999604,
      "v": 80
    },
    {
      "midi": 38,
      "hit": false,
      "t": 69512.2600000004,
      "d": 182.92699999999604,
      "v": 100
    },
    {
      "midi": 64,
      "hit": false,
      "t": 69695.18699999996,
      "d": 182.92699999999604,
      "v": 100
    },
    {
      "midi": 60,
      "hit": false,
      "t": 69695.18699999996,
      "d": 182.92699999999604,
      "v": 100
    },
    {
      "midi": 65,
      "hit": false,
      "t": 69695.18700000018,
      "d": 365.85400000000664,
      "v": 100
    },
    {
      "midi": 62,
      "hit": false,
      "t": 69695.18700000018,
      "d": 365.85400000000664,
      "v": 100
    },
    {
      "midi": 69,
      "hit": false,
      "t": 69695.18700000018,
      "d": 365.85400000000664,
      "v": 100
    },
    {
      "midi": 50,
      "hit": false,
      "t": 69695.18700000018,
      "d": 365.85400000000664,
      "v": 100
    },
    {
      "midi": 57,
      "hit": false,
      "t": 69695.18700000018,
      "d": 365.85400000000664,
      "v": 100
    },
    {
      "midi": 65,
      "hit": false,
      "t": 69695.18700000018,
      "d": 365.85400000000664,
      "v": 100
    },
    {
      "midi": 62,
      "hit": false,
      "t": 69695.18700000018,
      "d": 365.85400000000664,
      "v": 100
    },
    {
      "midi": 69,
      "hit": false,
      "t": 69695.18700000018,
      "d": 365.85400000000664,
      "v": 100
    },
    {
      "midi": 50,
      "hit": false,
      "t": 69695.18700000018,
      "d": 365.85400000000664,
      "v": 100
    },
    {
      "midi": 57,
      "hit": false,
      "t": 69695.18700000018,
      "d": 365.85400000000664,
      "v": 100
    },
    {
      "midi": 46,
      "hit": false,
      "t": 69695.18700000035,
      "d": 182.92699999999604,
      "v": 80
    },
    {
      "midi": 36,
      "hit": false,
      "t": 69695.18700000035,
      "d": 365.8539999999921,
      "v": 100
    },
    {
      "midi": 38,
      "hit": false,
      "t": 69695.1870000004,
      "d": 182.92699999999604,
      "v": 100
    },
    {
      "midi": 65,
      "hit": false,
      "t": 69878.11399999996,
      "d": 365.85400000000664,
      "v": 100
    },
    {
      "midi": 62,
      "hit": false,
      "t": 69878.11399999996,
      "d": 365.85400000000664,
      "v": 100
    },
    {
      "midi": 46,
      "hit": false,
      "t": 69878.11400000035,
      "d": 182.92699999999604,
      "v": 80
    },
    {
      "midi": 38,
      "hit": false,
      "t": 69878.1140000004,
      "d": 182.92699999999604,
      "v": 100
    },
    {
      "midi": 50,
      "hit": false,
      "t": 70061.04100000019,
      "d": 182.92699999999604,
      "v": 100
    },
    {
      "midi": 57,
      "hit": false,
      "t": 70061.04100000019,
      "d": 182.92699999999604,
      "v": 100
    },
    {
      "midi": 65,
      "hit": false,
      "t": 70061.04100000019,
      "d": 182.92699999999604,
      "v": 100
    },
    {
      "midi": 62,
      "hit": false,
      "t": 70061.04100000019,
      "d": 182.92699999999604,
      "v": 100
    },
    {
      "midi": 69,
      "hit": false,
      "t": 70061.04100000019,
      "d": 182.92699999999604,
      "v": 100
    },
    {
      "midi": 50,
      "hit": false,
      "t": 70061.04100000019,
      "d": 182.92699999999604,
      "v": 100
    },
    {
      "midi": 57,
      "hit": false,
      "t": 70061.04100000019,
      "d": 182.92699999999604,
      "v": 100
    },
    {
      "midi": 65,
      "hit": false,
      "t": 70061.04100000019,
      "d": 182.92699999999604,
      "v": 100
    },
    {
      "midi": 62,
      "hit": false,
      "t": 70061.04100000019,
      "d": 182.92699999999604,
      "v": 100
    },
    {
      "midi": 69,
      "hit": false,
      "t": 70061.04100000019,
      "d": 182.92699999999604,
      "v": 100
    },
    {
      "midi": 36,
      "hit": false,
      "t": 70061.04100000035,
      "d": 182.92699999999604,
      "v": 100
    },
    {
      "midi": 46,
      "hit": false,
      "t": 70061.04100000035,
      "d": 182.92699999999604,
      "v": 80
    },
    {
      "midi": 38,
      "hit": false,
      "t": 70061.04100000039,
      "d": 182.92699999999604,
      "v": 100
    },
    {
      "midi": 67,
      "hit": false,
      "t": 70243.96799999996,
      "d": 365.85400000000664,
      "v": 100
    },
    {
      "midi": 64,
      "hit": false,
      "t": 70243.96799999996,
      "d": 365.85400000000664,
      "v": 100
    },
    {
      "midi": 65,
      "hit": false,
      "t": 70243.96800000018,
      "d": 182.92699999999604,
      "v": 100
    },
    {
      "midi": 57,
      "hit": false,
      "t": 70243.96800000018,
      "d": 182.92699999999604,
      "v": 100
    },
    {
      "midi": 50,
      "hit": false,
      "t": 70243.96800000018,
      "d": 182.92699999999604,
      "v": 100
    },
    {
      "midi": 69,
      "hit": false,
      "t": 70243.96800000018,
      "d": 182.92699999999604,
      "v": 100
    },
    {
      "midi": 62,
      "hit": false,
      "t": 70243.96800000018,
      "d": 182.92699999999604,
      "v": 100
    },
    {
      "midi": 65,
      "hit": false,
      "t": 70243.96800000018,
      "d": 182.92699999999604,
      "v": 100
    },
    {
      "midi": 57,
      "hit": false,
      "t": 70243.96800000018,
      "d": 182.92699999999604,
      "v": 100
    },
    {
      "midi": 50,
      "hit": false,
      "t": 70243.96800000018,
      "d": 182.92699999999604,
      "v": 100
    },
    {
      "midi": 69,
      "hit": false,
      "t": 70243.96800000018,
      "d": 182.92699999999604,
      "v": 100
    },
    {
      "midi": 62,
      "hit": false,
      "t": 70243.96800000018,
      "d": 182.92699999999604,
      "v": 100
    },
    {
      "midi": 46,
      "hit": false,
      "t": 70243.96800000034,
      "d": 182.92699999999604,
      "v": 80
    },
    {
      "midi": 40,
      "hit": false,
      "t": 70243.96800000034,
      "d": 365.8539999999921,
      "v": 100
    },
    {
      "midi": 38,
      "hit": false,
      "t": 70243.96800000039,
      "d": 182.92699999999604,
      "v": 100
    },
    {
      "midi": 65,
      "hit": false,
      "t": 70426.89500000018,
      "d": 182.92699999999604,
      "v": 100
    },
    {
      "midi": 62,
      "hit": false,
      "t": 70426.89500000018,
      "d": 182.92699999999604,
      "v": 100
    },
    {
      "midi": 50,
      "hit": false,
      "t": 70426.89500000018,
      "d": 182.92699999999604,
      "v": 100
    },
    {
      "midi": 69,
      "hit": false,
      "t": 70426.89500000018,
      "d": 182.92699999999604,
      "v": 100
    },
    {
      "midi": 57,
      "hit": false,
      "t": 70426.89500000018,
      "d": 182.92699999999604,
      "v": 100
    },
    {
      "midi": 65,
      "hit": false,
      "t": 70426.89500000018,
      "d": 182.92699999999604,
      "v": 100
    },
    {
      "midi": 62,
      "hit": false,
      "t": 70426.89500000018,
      "d": 182.92699999999604,
      "v": 100
    },
    {
      "midi": 50,
      "hit": false,
      "t": 70426.89500000018,
      "d": 182.92699999999604,
      "v": 100
    },
    {
      "midi": 69,
      "hit": false,
      "t": 70426.89500000018,
      "d": 182.92699999999604,
      "v": 100
    },
    {
      "midi": 57,
      "hit": false,
      "t": 70426.89500000018,
      "d": 182.92699999999604,
      "v": 100
    },
    {
      "midi": 46,
      "hit": false,
      "t": 70426.89500000034,
      "d": 182.92699999999604,
      "v": 80
    },
    {
      "midi": 38,
      "hit": false,
      "t": 70426.89500000038,
      "d": 182.92699999999604,
      "v": 100
    },
    {
      "midi": 70,
      "hit": false,
      "t": 70609.82199999997,
      "d": 548.7810000000027,
      "v": 100
    },
    {
      "midi": 67,
      "hit": false,
      "t": 70609.82199999997,
      "d": 548.7810000000027,
      "v": 100
    },
    {
      "midi": 62,
      "hit": false,
      "t": 70609.82200000017,
      "d": 182.92699999999604,
      "v": 100
    },
    {
      "midi": 53,
      "hit": false,
      "t": 70609.82200000017,
      "d": 182.92699999999604,
      "v": 100
    },
    {
      "midi": 65,
      "hit": false,
      "t": 70609.82200000017,
      "d": 182.92699999999604,
      "v": 100
    },
    {
      "midi": 46,
      "hit": false,
      "t": 70609.82200000017,
      "d": 182.92699999999604,
      "v": 100
    },
    {
      "midi": 58,
      "hit": false,
      "t": 70609.82200000017,
      "d": 182.92699999999604,
      "v": 100
    },
    {
      "midi": 62,
      "hit": false,
      "t": 70609.82200000017,
      "d": 182.92699999999604,
      "v": 100
    },
    {
      "midi": 53,
      "hit": false,
      "t": 70609.82200000017,
      "d": 182.92699999999604,
      "v": 100
    },
    {
      "midi": 65,
      "hit": false,
      "t": 70609.82200000017,
      "d": 182.92699999999604,
      "v": 100
    },
    {
      "midi": 46,
      "hit": false,
      "t": 70609.82200000017,
      "d": 182.92699999999604,
      "v": 100
    },
    {
      "midi": 58,
      "hit": false,
      "t": 70609.82200000017,
      "d": 182.92699999999604,
      "v": 100
    },
    {
      "midi": 46,
      "hit": false,
      "t": 70609.82200000033,
      "d": 182.92699999999604,
      "v": 80
    },
    {
      "midi": 36,
      "hit": false,
      "t": 70609.82200000033,
      "d": 365.8539999999921,
      "v": 100
    },
    {
      "midi": 34,
      "hit": false,
      "t": 70609.82200000038,
      "d": 182.92699999999604,
      "v": 100
    },
    {
      "midi": 62,
      "hit": false,
      "t": 70792.74900000017,
      "d": 182.92699999999604,
      "v": 100
    },
    {
      "midi": 65,
      "hit": false,
      "t": 70792.74900000017,
      "d": 182.92699999999604,
      "v": 100
    },
    {
      "midi": 58,
      "hit": false,
      "t": 70792.74900000017,
      "d": 182.92699999999604,
      "v": 100
    },
    {
      "midi": 53,
      "hit": false,
      "t": 70792.74900000017,
      "d": 182.92699999999604,
      "v": 100
    },
    {
      "midi": 46,
      "hit": false,
      "t": 70792.74900000017,
      "d": 182.92699999999604,
      "v": 100
    },
    {
      "midi": 62,
      "hit": false,
      "t": 70792.74900000017,
      "d": 182.92699999999604,
      "v": 100
    },
    {
      "midi": 65,
      "hit": false,
      "t": 70792.74900000017,
      "d": 182.92699999999604,
      "v": 100
    },
    {
      "midi": 58,
      "hit": false,
      "t": 70792.74900000017,
      "d": 182.92699999999604,
      "v": 100
    },
    {
      "midi": 53,
      "hit": false,
      "t": 70792.74900000017,
      "d": 182.92699999999604,
      "v": 100
    },
    {
      "midi": 46,
      "hit": false,
      "t": 70792.74900000017,
      "d": 182.92699999999604,
      "v": 100
    },
    {
      "midi": 46,
      "hit": false,
      "t": 70792.74900000033,
      "d": 182.92699999999604,
      "v": 80
    },
    {
      "midi": 34,
      "hit": false,
      "t": 70792.74900000037,
      "d": 182.92699999999604,
      "v": 100
    },
    {
      "midi": 46,
      "hit": false,
      "t": 70975.67600000017,
      "d": 182.92699999999604,
      "v": 100
    },
    {
      "midi": 53,
      "hit": false,
      "t": 70975.67600000017,
      "d": 182.92699999999604,
      "v": 100
    },
    {
      "midi": 58,
      "hit": false,
      "t": 70975.67600000017,
      "d": 182.92699999999604,
      "v": 100
    },
    {
      "midi": 65,
      "hit": false,
      "t": 70975.67600000017,
      "d": 182.92699999999604,
      "v": 100
    },
    {
      "midi": 62,
      "hit": false,
      "t": 70975.67600000017,
      "d": 182.92699999999604,
      "v": 100
    },
    {
      "midi": 46,
      "hit": false,
      "t": 70975.67600000017,
      "d": 182.92699999999604,
      "v": 100
    },
    {
      "midi": 53,
      "hit": false,
      "t": 70975.67600000017,
      "d": 182.92699999999604,
      "v": 100
    },
    {
      "midi": 58,
      "hit": false,
      "t": 70975.67600000017,
      "d": 182.92699999999604,
      "v": 100
    },
    {
      "midi": 65,
      "hit": false,
      "t": 70975.67600000017,
      "d": 182.92699999999604,
      "v": 100
    },
    {
      "midi": 62,
      "hit": false,
      "t": 70975.67600000017,
      "d": 182.92699999999604,
      "v": 100
    },
    {
      "midi": 46,
      "hit": false,
      "t": 70975.67600000033,
      "d": 182.92699999999604,
      "v": 80
    },
    {
      "midi": 40,
      "hit": false,
      "t": 70975.67600000033,
      "d": 365.8539999999921,
      "v": 100
    },
    {
      "midi": 34,
      "hit": false,
      "t": 70975.67600000037,
      "d": 182.92699999999604,
      "v": 100
    },
    {
      "midi": 62,
      "hit": false,
      "t": 71158.60299999997,
      "d": 137.1952500000043,
      "v": 100
    },
    {
      "midi": 58,
      "hit": false,
      "t": 71158.60299999997,
      "d": 137.1952500000043,
      "v": 100
    },
    {
      "midi": 62,
      "hit": false,
      "t": 71158.60300000016,
      "d": 365.85400000000664,
      "v": 100
    },
    {
      "midi": 46,
      "hit": false,
      "t": 71158.60300000016,
      "d": 365.85400000000664,
      "v": 100
    },
    {
      "midi": 65,
      "hit": false,
      "t": 71158.60300000016,
      "d": 365.85400000000664,
      "v": 100
    },
    {
      "midi": 58,
      "hit": false,
      "t": 71158.60300000016,
      "d": 365.85400000000664,
      "v": 100
    },
    {
      "midi": 53,
      "hit": false,
      "t": 71158.60300000016,
      "d": 365.85400000000664,
      "v": 100
    },
    {
      "midi": 62,
      "hit": false,
      "t": 71158.60300000016,
      "d": 365.85400000000664,
      "v": 100
    },
    {
      "midi": 46,
      "hit": false,
      "t": 71158.60300000016,
      "d": 365.85400000000664,
      "v": 100
    },
    {
      "midi": 65,
      "hit": false,
      "t": 71158.60300000016,
      "d": 365.85400000000664,
      "v": 100
    },
    {
      "midi": 58,
      "hit": false,
      "t": 71158.60300000016,
      "d": 365.85400000000664,
      "v": 100
    },
    {
      "midi": 53,
      "hit": false,
      "t": 71158.60300000016,
      "d": 365.85400000000664,
      "v": 100
    },
    {
      "midi": 46,
      "hit": false,
      "t": 71158.60300000032,
      "d": 182.92699999999604,
      "v": 80
    },
    {
      "midi": 34,
      "hit": false,
      "t": 71158.60300000037,
      "d": 182.92699999999604,
      "v": 100
    },
    {
      "midi": 62,
      "hit": false,
      "t": 71341.52999999998,
      "d": 365.85400000000664,
      "v": 100
    },
    {
      "midi": 58,
      "hit": false,
      "t": 71341.52999999998,
      "d": 365.85400000000664,
      "v": 100
    },
    {
      "midi": 46,
      "hit": false,
      "t": 71341.53000000032,
      "d": 182.92699999999604,
      "v": 80
    },
    {
      "midi": 36,
      "hit": false,
      "t": 71341.53000000032,
      "d": 182.92699999999604,
      "v": 100
    },
    {
      "midi": 34,
      "hit": false,
      "t": 71341.53000000036,
      "d": 182.92699999999604,
      "v": 100
    },
    {
      "midi": 53,
      "hit": false,
      "t": 71524.45700000017,
      "d": 182.92699999999604,
      "v": 100
    },
    {
      "midi": 46,
      "hit": false,
      "t": 71524.45700000017,
      "d": 182.92699999999604,
      "v": 100
    },
    {
      "midi": 58,
      "hit": false,
      "t": 71524.45700000017,
      "d": 182.92699999999604,
      "v": 100
    },
    {
      "midi": 65,
      "hit": false,
      "t": 71524.45700000017,
      "d": 182.92699999999604,
      "v": 100
    },
    {
      "midi": 62,
      "hit": false,
      "t": 71524.45700000017,
      "d": 182.92699999999604,
      "v": 100
    },
    {
      "midi": 53,
      "hit": false,
      "t": 71524.45700000017,
      "d": 182.92699999999604,
      "v": 100
    },
    {
      "midi": 46,
      "hit": false,
      "t": 71524.45700000017,
      "d": 182.92699999999604,
      "v": 100
    },
    {
      "midi": 58,
      "hit": false,
      "t": 71524.45700000017,
      "d": 182.92699999999604,
      "v": 100
    },
    {
      "midi": 65,
      "hit": false,
      "t": 71524.45700000017,
      "d": 182.92699999999604,
      "v": 100
    },
    {
      "midi": 62,
      "hit": false,
      "t": 71524.45700000017,
      "d": 182.92699999999604,
      "v": 100
    },
    {
      "midi": 36,
      "hit": false,
      "t": 71524.45700000032,
      "d": 182.92699999999604,
      "v": 100
    },
    {
      "midi": 46,
      "hit": false,
      "t": 71524.45700000032,
      "d": 182.92699999999604,
      "v": 80
    },
    {
      "midi": 34,
      "hit": false,
      "t": 71524.45700000036,
      "d": 182.92699999999604,
      "v": 100
    },
    {
      "midi": 69,
      "hit": false,
      "t": 71707.38399999999,
      "d": 365.85400000000664,
      "v": 100
    },
    {
      "midi": 65,
      "hit": false,
      "t": 71707.38399999999,
      "d": 365.85400000000664,
      "v": 100
    },
    {
      "midi": 65,
      "hit": false,
      "t": 71707.38400000017,
      "d": 182.92699999999604,
      "v": 100
    },
    {
      "midi": 58,
      "hit": false,
      "t": 71707.38400000017,
      "d": 182.92699999999604,
      "v": 100
    },
    {
      "midi": 62,
      "hit": false,
      "t": 71707.38400000017,
      "d": 182.92699999999604,
      "v": 100
    },
    {
      "midi": 46,
      "hit": false,
      "t": 71707.38400000017,
      "d": 182.92699999999604,
      "v": 100
    },
    {
      "midi": 53,
      "hit": false,
      "t": 71707.38400000017,
      "d": 182.92699999999604,
      "v": 100
    },
    {
      "midi": 65,
      "hit": false,
      "t": 71707.38400000017,
      "d": 182.92699999999604,
      "v": 100
    },
    {
      "midi": 58,
      "hit": false,
      "t": 71707.38400000017,
      "d": 182.92699999999604,
      "v": 100
    },
    {
      "midi": 62,
      "hit": false,
      "t": 71707.38400000017,
      "d": 182.92699999999604,
      "v": 100
    },
    {
      "midi": 46,
      "hit": false,
      "t": 71707.38400000017,
      "d": 182.92699999999604,
      "v": 100
    },
    {
      "midi": 53,
      "hit": false,
      "t": 71707.38400000017,
      "d": 182.92699999999604,
      "v": 100
    },
    {
      "midi": 46,
      "hit": false,
      "t": 71707.38400000031,
      "d": 182.92699999999604,
      "v": 80
    },
    {
      "midi": 40,
      "hit": false,
      "t": 71707.38400000031,
      "d": 365.8539999999921,
      "v": 100
    },
    {
      "midi": 34,
      "hit": false,
      "t": 71707.38400000035,
      "d": 182.92699999999604,
      "v": 100
    },
    {
      "midi": 58,
      "hit": false,
      "t": 71890.31100000016,
      "d": 182.92699999999604,
      "v": 100
    },
    {
      "midi": 62,
      "hit": false,
      "t": 71890.31100000016,
      "d": 182.92699999999604,
      "v": 100
    },
    {
      "midi": 46,
      "hit": false,
      "t": 71890.31100000016,
      "d": 182.92699999999604,
      "v": 100
    },
    {
      "midi": 65,
      "hit": false,
      "t": 71890.31100000016,
      "d": 182.92699999999604,
      "v": 100
    },
    {
      "midi": 53,
      "hit": false,
      "t": 71890.31100000016,
      "d": 182.92699999999604,
      "v": 100
    },
    {
      "midi": 58,
      "hit": false,
      "t": 71890.31100000016,
      "d": 182.92699999999604,
      "v": 100
    },
    {
      "midi": 62,
      "hit": false,
      "t": 71890.31100000016,
      "d": 182.92699999999604,
      "v": 100
    },
    {
      "midi": 46,
      "hit": false,
      "t": 71890.31100000016,
      "d": 182.92699999999604,
      "v": 100
    },
    {
      "midi": 65,
      "hit": false,
      "t": 71890.31100000016,
      "d": 182.92699999999604,
      "v": 100
    },
    {
      "midi": 53,
      "hit": false,
      "t": 71890.31100000016,
      "d": 182.92699999999604,
      "v": 100
    },
    {
      "midi": 46,
      "hit": false,
      "t": 71890.3110000003,
      "d": 182.92699999999604,
      "v": 80
    },
    {
      "midi": 34,
      "hit": false,
      "t": 71890.31100000035,
      "d": 182.92699999999604,
      "v": 100
    },
    {
      "midi": 67,
      "hit": false,
      "t": 72073.238,
      "d": 365.85400000000664,
      "v": 100
    },
    {
      "midi": 64,
      "hit": false,
      "t": 72073.238,
      "d": 365.85400000000664,
      "v": 100
    },
    {
      "midi": 60,
      "hit": false,
      "t": 72073.23800000016,
      "d": 182.92699999999604,
      "v": 100
    },
    {
      "midi": 64,
      "hit": false,
      "t": 72073.23800000016,
      "d": 182.92699999999604,
      "v": 100
    },
    {
      "midi": 45,
      "hit": false,
      "t": 72073.23800000016,
      "d": 182.92699999999604,
      "v": 100
    },
    {
      "midi": 57,
      "hit": false,
      "t": 72073.23800000016,
      "d": 182.92699999999604,
      "v": 100
    },
    {
      "midi": 52,
      "hit": false,
      "t": 72073.23800000016,
      "d": 182.92699999999604,
      "v": 100
    },
    {
      "midi": 60,
      "hit": false,
      "t": 72073.23800000016,
      "d": 182.92699999999604,
      "v": 100
    },
    {
      "midi": 64,
      "hit": false,
      "t": 72073.23800000016,
      "d": 182.92699999999604,
      "v": 100
    },
    {
      "midi": 45,
      "hit": false,
      "t": 72073.23800000016,
      "d": 182.92699999999604,
      "v": 100
    },
    {
      "midi": 57,
      "hit": false,
      "t": 72073.23800000016,
      "d": 182.92699999999604,
      "v": 100
    },
    {
      "midi": 52,
      "hit": false,
      "t": 72073.23800000016,
      "d": 182.92699999999604,
      "v": 100
    },
    {
      "midi": 46,
      "hit": false,
      "t": 72073.2380000003,
      "d": 182.92699999999604,
      "v": 80
    },
    {
      "midi": 36,
      "hit": false,
      "t": 72073.2380000003,
      "d": 365.8539999999921,
      "v": 100
    },
    {
      "midi": 33,
      "hit": false,
      "t": 72073.23800000035,
      "d": 182.92699999999604,
      "v": 100
    },
    {
      "midi": 52,
      "hit": false,
      "t": 72256.16500000015,
      "d": 182.92699999999604,
      "v": 100
    },
    {
      "midi": 45,
      "hit": false,
      "t": 72256.16500000015,
      "d": 182.92699999999604,
      "v": 100
    },
    {
      "midi": 64,
      "hit": false,
      "t": 72256.16500000015,
      "d": 182.92699999999604,
      "v": 100
    },
    {
      "midi": 57,
      "hit": false,
      "t": 72256.16500000015,
      "d": 182.92699999999604,
      "v": 100
    },
    {
      "midi": 60,
      "hit": false,
      "t": 72256.16500000015,
      "d": 182.92699999999604,
      "v": 100
    },
    {
      "midi": 52,
      "hit": false,
      "t": 72256.16500000015,
      "d": 182.92699999999604,
      "v": 100
    },
    {
      "midi": 45,
      "hit": false,
      "t": 72256.16500000015,
      "d": 182.92699999999604,
      "v": 100
    },
    {
      "midi": 64,
      "hit": false,
      "t": 72256.16500000015,
      "d": 182.92699999999604,
      "v": 100
    },
    {
      "midi": 57,
      "hit": false,
      "t": 72256.16500000015,
      "d": 182.92699999999604,
      "v": 100
    },
    {
      "midi": 60,
      "hit": false,
      "t": 72256.16500000015,
      "d": 182.92699999999604,
      "v": 100
    },
    {
      "midi": 46,
      "hit": false,
      "t": 72256.1650000003,
      "d": 182.92699999999604,
      "v": 80
    },
    {
      "midi": 33,
      "hit": false,
      "t": 72256.16500000034,
      "d": 182.92699999999604,
      "v": 100
    },
    {
      "midi": 65,
      "hit": false,
      "t": 72439.092,
      "d": 365.85400000000664,
      "v": 100
    },
    {
      "midi": 62,
      "hit": false,
      "t": 72439.092,
      "d": 365.85400000000664,
      "v": 100
    },
    {
      "midi": 45,
      "hit": false,
      "t": 72439.09200000015,
      "d": 182.92699999999604,
      "v": 100
    },
    {
      "midi": 57,
      "hit": false,
      "t": 72439.09200000015,
      "d": 182.92699999999604,
      "v": 100
    },
    {
      "midi": 52,
      "hit": false,
      "t": 72439.09200000015,
      "d": 182.92699999999604,
      "v": 100
    },
    {
      "midi": 64,
      "hit": false,
      "t": 72439.09200000015,
      "d": 182.92699999999604,
      "v": 100
    },
    {
      "midi": 60,
      "hit": false,
      "t": 72439.09200000015,
      "d": 182.92699999999604,
      "v": 100
    },
    {
      "midi": 45,
      "hit": false,
      "t": 72439.09200000015,
      "d": 182.92699999999604,
      "v": 100
    },
    {
      "midi": 57,
      "hit": false,
      "t": 72439.09200000015,
      "d": 182.92699999999604,
      "v": 100
    },
    {
      "midi": 52,
      "hit": false,
      "t": 72439.09200000015,
      "d": 182.92699999999604,
      "v": 100
    },
    {
      "midi": 64,
      "hit": false,
      "t": 72439.09200000015,
      "d": 182.92699999999604,
      "v": 100
    },
    {
      "midi": 60,
      "hit": false,
      "t": 72439.09200000015,
      "d": 182.92699999999604,
      "v": 100
    },
    {
      "midi": 46,
      "hit": false,
      "t": 72439.0920000003,
      "d": 182.92699999999604,
      "v": 80
    },
    {
      "midi": 40,
      "hit": false,
      "t": 72439.0920000003,
      "d": 365.8539999999921,
      "v": 100
    },
    {
      "midi": 33,
      "hit": false,
      "t": 72439.09200000034,
      "d": 182.92699999999604,
      "v": 100
    },
    {
      "midi": 60,
      "hit": false,
      "t": 72622.01900000015,
      "d": 365.85400000000664,
      "v": 100
    },
    {
      "midi": 64,
      "hit": false,
      "t": 72622.01900000015,
      "d": 365.85400000000664,
      "v": 100
    },
    {
      "midi": 57,
      "hit": false,
      "t": 72622.01900000015,
      "d": 365.85400000000664,
      "v": 100
    },
    {
      "midi": 45,
      "hit": false,
      "t": 72622.01900000015,
      "d": 365.85400000000664,
      "v": 100
    },
    {
      "midi": 52,
      "hit": false,
      "t": 72622.01900000015,
      "d": 365.85400000000664,
      "v": 100
    },
    {
      "midi": 60,
      "hit": false,
      "t": 72622.01900000015,
      "d": 365.85400000000664,
      "v": 100
    },
    {
      "midi": 64,
      "hit": false,
      "t": 72622.01900000015,
      "d": 365.85400000000664,
      "v": 100
    },
    {
      "midi": 57,
      "hit": false,
      "t": 72622.01900000015,
      "d": 365.85400000000664,
      "v": 100
    },
    {
      "midi": 45,
      "hit": false,
      "t": 72622.01900000015,
      "d": 365.85400000000664,
      "v": 100
    },
    {
      "midi": 52,
      "hit": false,
      "t": 72622.01900000015,
      "d": 365.85400000000664,
      "v": 100
    },
    {
      "midi": 46,
      "hit": false,
      "t": 72622.01900000029,
      "d": 182.92699999999604,
      "v": 80
    },
    {
      "midi": 33,
      "hit": false,
      "t": 72622.01900000033,
      "d": 182.92699999999604,
      "v": 100
    },
    {
      "midi": 64,
      "hit": false,
      "t": 72804.94600000001,
      "d": 320.12225000000035,
      "v": 100
    },
    {
      "midi": 60,
      "hit": false,
      "t": 72804.94600000001,
      "d": 320.12225000000035,
      "v": 100
    },
    {
      "midi": 36,
      "hit": false,
      "t": 72804.94600000029,
      "d": 182.92699999999604,
      "v": 100
    },
    {
      "midi": 46,
      "hit": false,
      "t": 72804.94600000029,
      "d": 182.92699999999604,
      "v": 80
    },
    {
      "midi": 33,
      "hit": false,
      "t": 72804.94600000033,
      "d": 182.92699999999604,
      "v": 100
    },
    {
      "midi": 60,
      "hit": false,
      "t": 72987.87300000015,
      "d": 182.92699999999604,
      "v": 100
    },
    {
      "midi": 45,
      "hit": false,
      "t": 72987.87300000015,
      "d": 182.92699999999604,
      "v": 100
    },
    {
      "midi": 52,
      "hit": false,
      "t": 72987.87300000015,
      "d": 182.92699999999604,
      "v": 100
    },
    {
      "midi": 64,
      "hit": false,
      "t": 72987.87300000015,
      "d": 182.92699999999604,
      "v": 100
    },
    {
      "midi": 57,
      "hit": false,
      "t": 72987.87300000015,
      "d": 182.92699999999604,
      "v": 100
    },
    {
      "midi": 60,
      "hit": false,
      "t": 72987.87300000015,
      "d": 182.92699999999604,
      "v": 100
    },
    {
      "midi": 45,
      "hit": false,
      "t": 72987.87300000015,
      "d": 182.92699999999604,
      "v": 100
    },
    {
      "midi": 52,
      "hit": false,
      "t": 72987.87300000015,
      "d": 182.92699999999604,
      "v": 100
    },
    {
      "midi": 64,
      "hit": false,
      "t": 72987.87300000015,
      "d": 182.92699999999604,
      "v": 100
    },
    {
      "midi": 57,
      "hit": false,
      "t": 72987.87300000015,
      "d": 182.92699999999604,
      "v": 100
    },
    {
      "midi": 40,
      "hit": false,
      "t": 72987.87300000028,
      "d": 91.46349999999802,
      "v": 100
    },
    {
      "midi": 46,
      "hit": false,
      "t": 72987.87300000028,
      "d": 182.92699999999604,
      "v": 80
    },
    {
      "midi": 33,
      "hit": false,
      "t": 72987.87300000033,
      "d": 182.92699999999604,
      "v": 100
    },
    {
      "midi": 40,
      "hit": false,
      "t": 73079.33650000028,
      "d": 91.46349999999802,
      "v": 100
    },
    {
      "midi": 64,
      "hit": false,
      "t": 73170.80000000002,
      "d": 365.85400000000664,
      "v": 100
    },
    {
      "midi": 60,
      "hit": false,
      "t": 73170.80000000002,
      "d": 365.85400000000664,
      "v": 100
    },
    {
      "midi": 52,
      "hit": false,
      "t": 73170.80000000015,
      "d": 182.92699999999604,
      "v": 100
    },
    {
      "midi": 57,
      "hit": false,
      "t": 73170.80000000015,
      "d": 182.92699999999604,
      "v": 100
    },
    {
      "midi": 60,
      "hit": false,
      "t": 73170.80000000015,
      "d": 182.92699999999604,
      "v": 100
    },
    {
      "midi": 45,
      "hit": false,
      "t": 73170.80000000015,
      "d": 182.92699999999604,
      "v": 100
    },
    {
      "midi": 64,
      "hit": false,
      "t": 73170.80000000015,
      "d": 182.92699999999604,
      "v": 100
    },
    {
      "midi": 52,
      "hit": false,
      "t": 73170.80000000015,
      "d": 182.92699999999604,
      "v": 100
    },
    {
      "midi": 57,
      "hit": false,
      "t": 73170.80000000015,
      "d": 182.92699999999604,
      "v": 100
    },
    {
      "midi": 60,
      "hit": false,
      "t": 73170.80000000015,
      "d": 182.92699999999604,
      "v": 100
    },
    {
      "midi": 45,
      "hit": false,
      "t": 73170.80000000015,
      "d": 182.92699999999604,
      "v": 100
    },
    {
      "midi": 64,
      "hit": false,
      "t": 73170.80000000015,
      "d": 182.92699999999604,
      "v": 100
    },
    {
      "midi": 40,
      "hit": false,
      "t": 73170.80000000028,
      "d": 182.92699999999604,
      "v": 100
    },
    {
      "midi": 46,
      "hit": false,
      "t": 73170.80000000028,
      "d": 182.92699999999604,
      "v": 80
    },
    {
      "midi": 33,
      "hit": false,
      "t": 73170.80000000032,
      "d": 182.92699999999604,
      "v": 100
    },
    {
      "midi": 60,
      "hit": false,
      "t": 73353.72700000014,
      "d": 182.92699999999604,
      "v": 100
    },
    {
      "midi": 57,
      "hit": false,
      "t": 73353.72700000014,
      "d": 182.92699999999604,
      "v": 100
    },
    {
      "midi": 45,
      "hit": false,
      "t": 73353.72700000014,
      "d": 182.92699999999604,
      "v": 100
    },
    {
      "midi": 64,
      "hit": false,
      "t": 73353.72700000014,
      "d": 182.92699999999604,
      "v": 100
    },
    {
      "midi": 52,
      "hit": false,
      "t": 73353.72700000014,
      "d": 182.92699999999604,
      "v": 100
    },
    {
      "midi": 60,
      "hit": false,
      "t": 73353.72700000014,
      "d": 182.92699999999604,
      "v": 100
    },
    {
      "midi": 57,
      "hit": false,
      "t": 73353.72700000014,
      "d": 182.92699999999604,
      "v": 100
    },
    {
      "midi": 45,
      "hit": false,
      "t": 73353.72700000014,
      "d": 182.92699999999604,
      "v": 100
    },
    {
      "midi": 64,
      "hit": false,
      "t": 73353.72700000014,
      "d": 182.92699999999604,
      "v": 100
    },
    {
      "midi": 52,
      "hit": false,
      "t": 73353.72700000014,
      "d": 182.92699999999604,
      "v": 100
    },
    {
      "midi": 40,
      "hit": false,
      "t": 73353.72700000028,
      "d": 91.46349999999802,
      "v": 100
    },
    {
      "midi": 46,
      "hit": false,
      "t": 73353.72700000028,
      "d": 182.92699999999604,
      "v": 80
    },
    {
      "midi": 33,
      "hit": false,
      "t": 73353.72700000032,
      "d": 182.92699999999604,
      "v": 100
    },
    {
      "midi": 40,
      "hit": false,
      "t": 73445.19050000027,
      "d": 91.46349999999802,
      "v": 100
    },
    {
      "midi": 65,
      "hit": false,
      "t": 73536.65399999998,
      "d": 365.85400000000664,
      "v": 100
    },
    {
      "midi": 65,
      "hit": false,
      "t": 73536.65400000002,
      "d": 1463.4159999999974,
      "v": 100
    },
    {
      "midi": 60,
      "hit": false,
      "t": 73536.65400000002,
      "d": 1463.4159999999974,
      "v": 100
    },
    {
      "midi": 48,
      "hit": false,
      "t": 73536.65400000014,
      "d": 365.85400000000664,
      "v": 100
    },
    {
      "midi": 60,
      "hit": false,
      "t": 73536.65400000014,
      "d": 365.85400000000664,
      "v": 100
    },
    {
      "midi": 65,
      "hit": false,
      "t": 73536.65400000014,
      "d": 365.85400000000664,
      "v": 100
    },
    {
      "midi": 53,
      "hit": false,
      "t": 73536.65400000014,
      "d": 365.85400000000664,
      "v": 100
    },
    {
      "midi": 57,
      "hit": false,
      "t": 73536.65400000014,
      "d": 365.85400000000664,
      "v": 100
    },
    {
      "midi": 48,
      "hit": false,
      "t": 73536.65400000014,
      "d": 365.85400000000664,
      "v": 100
    },
    {
      "midi": 60,
      "hit": false,
      "t": 73536.65400000014,
      "d": 365.85400000000664,
      "v": 100
    },
    {
      "midi": 65,
      "hit": false,
      "t": 73536.65400000014,
      "d": 365.85400000000664,
      "v": 100
    },
    {
      "midi": 53,
      "hit": false,
      "t": 73536.65400000014,
      "d": 365.85400000000664,
      "v": 100
    },
    {
      "midi": 57,
      "hit": false,
      "t": 73536.65400000014,
      "d": 365.85400000000664,
      "v": 100
    },
    {
      "midi": 36,
      "hit": false,
      "t": 73536.65400000027,
      "d": 365.8539999999921,
      "v": 100
    },
    {
      "midi": 39,
      "hit": false,
      "t": 73536.65400000027,
      "d": 365.8539999999921,
      "v": 90
    },
    {
      "midi": 49,
      "hit": false,
      "t": 73536.65400000027,
      "d": 731.7079999999842,
      "v": 100
    },
    {
      "midi": 29,
      "hit": false,
      "t": 73536.65400000032,
      "d": 182.92699999999604,
      "v": 100
    },
    {
      "midi": 46,
      "hit": false,
      "t": 73719.58100000027,
      "d": 182.92699999999604,
      "v": 80
    },
    {
      "midi": 29,
      "hit": false,
      "t": 73719.58100000031,
      "d": 182.92699999999604,
      "v": 100
    },
    {
      "midi": 60,
      "hit": false,
      "t": 73902.50799999999,
      "d": 365.85400000000664,
      "v": 100
    },
    {
      "midi": 57,
      "hit": false,
      "t": 73902.50800000015,
      "d": 365.85400000000664,
      "v": 100
    },
    {
      "midi": 60,
      "hit": false,
      "t": 73902.50800000015,
      "d": 365.85400000000664,
      "v": 100
    },
    {
      "midi": 65,
      "hit": false,
      "t": 73902.50800000015,
      "d": 365.85400000000664,
      "v": 100
    },
    {
      "midi": 53,
      "hit": false,
      "t": 73902.50800000015,
      "d": 365.85400000000664,
      "v": 100
    },
    {
      "midi": 48,
      "hit": false,
      "t": 73902.50800000015,
      "d": 365.85400000000664,
      "v": 100
    },
    {
      "midi": 57,
      "hit": false,
      "t": 73902.50800000015,
      "d": 365.85400000000664,
      "v": 100
    },
    {
      "midi": 60,
      "hit": false,
      "t": 73902.50800000015,
      "d": 365.85400000000664,
      "v": 100
    },
    {
      "midi": 65,
      "hit": false,
      "t": 73902.50800000015,
      "d": 365.85400000000664,
      "v": 100
    },
    {
      "midi": 53,
      "hit": false,
      "t": 73902.50800000015,
      "d": 365.85400000000664,
      "v": 100
    },
    {
      "midi": 48,
      "hit": false,
      "t": 73902.50800000015,
      "d": 365.85400000000664,
      "v": 100
    },
    {
      "midi": 46,
      "hit": false,
      "t": 73902.50800000026,
      "d": 182.92699999999604,
      "v": 80
    },
    {
      "midi": 39,
      "hit": false,
      "t": 73902.50800000026,
      "d": 365.8539999999921,
      "v": 90
    },
    {
      "midi": 40,
      "hit": false,
      "t": 73902.50800000026,
      "d": 365.8539999999921,
      "v": 100
    },
    {
      "midi": 29,
      "hit": false,
      "t": 73902.5080000003,
      "d": 182.92699999999604,
      "v": 100
    },
    {
      "midi": 46,
      "hit": false,
      "t": 74085.43500000026,
      "d": 182.92699999999604,
      "v": 80
    },
    {
      "midi": 29,
      "hit": false,
      "t": 74085.4350000003,
      "d": 182.92699999999604,
      "v": 100
    },
    {
      "midi": 60,
      "hit": false,
      "t": 74268.362,
      "d": 365.85400000000664,
      "v": 100
    },
    {
      "midi": 48,
      "hit": false,
      "t": 74268.36200000015,
      "d": 365.85400000000664,
      "v": 100
    },
    {
      "midi": 53,
      "hit": false,
      "t": 74268.36200000015,
      "d": 365.85400000000664,
      "v": 100
    },
    {
      "midi": 60,
      "hit": false,
      "t": 74268.36200000015,
      "d": 365.85400000000664,
      "v": 100
    },
    {
      "midi": 57,
      "hit": false,
      "t": 74268.36200000015,
      "d": 365.85400000000664,
      "v": 100
    },
    {
      "midi": 65,
      "hit": false,
      "t": 74268.36200000015,
      "d": 365.85400000000664,
      "v": 100
    },
    {
      "midi": 48,
      "hit": false,
      "t": 74268.36200000015,
      "d": 365.85400000000664,
      "v": 100
    },
    {
      "midi": 53,
      "hit": false,
      "t": 74268.36200000015,
      "d": 365.85400000000664,
      "v": 100
    },
    {
      "midi": 60,
      "hit": false,
      "t": 74268.36200000015,
      "d": 365.85400000000664,
      "v": 100
    },
    {
      "midi": 57,
      "hit": false,
      "t": 74268.36200000015,
      "d": 365.85400000000664,
      "v": 100
    },
    {
      "midi": 65,
      "hit": false,
      "t": 74268.36200000015,
      "d": 365.85400000000664,
      "v": 100
    },
    {
      "midi": 46,
      "hit": false,
      "t": 74268.36200000026,
      "d": 182.92699999999604,
      "v": 80
    },
    {
      "midi": 36,
      "hit": false,
      "t": 74268.36200000026,
      "d": 182.92699999999604,
      "v": 100
    },
    {
      "midi": 39,
      "hit": false,
      "t": 74268.36200000026,
      "d": 365.8539999999921,
      "v": 90
    },
    {
      "midi": 29,
      "hit": false,
      "t": 74268.3620000003,
      "d": 182.92699999999604,
      "v": 100
    },
    {
      "midi": 46,
      "hit": false,
      "t": 74451.28900000025,
      "d": 182.92699999999604,
      "v": 80
    },
    {
      "midi": 36,
      "hit": false,
      "t": 74451.28900000025,
      "d": 182.92699999999604,
      "v": 100
    },
    {
      "midi": 29,
      "hit": false,
      "t": 74451.2890000003,
      "d": 182.92699999999604,
      "v": 100
    },
    {
      "midi": 60,
      "hit": false,
      "t": 74634.216,
      "d": 365.85400000000664,
      "v": 100
    },
    {
      "midi": 48,
      "hit": false,
      "t": 74634.21600000016,
      "d": 182.92699999999604,
      "v": 100
    },
    {
      "midi": 53,
      "hit": false,
      "t": 74634.21600000016,
      "d": 182.92699999999604,
      "v": 100
    },
    {
      "midi": 57,
      "hit": false,
      "t": 74634.21600000016,
      "d": 182.92699999999604,
      "v": 100
    },
    {
      "midi": 60,
      "hit": false,
      "t": 74634.21600000016,
      "d": 182.92699999999604,
      "v": 100
    },
    {
      "midi": 65,
      "hit": false,
      "t": 74634.21600000016,
      "d": 182.92699999999604,
      "v": 100
    },
    {
      "midi": 48,
      "hit": false,
      "t": 74634.21600000016,
      "d": 182.92699999999604,
      "v": 100
    },
    {
      "midi": 53,
      "hit": false,
      "t": 74634.21600000016,
      "d": 182.92699999999604,
      "v": 100
    },
    {
      "midi": 57,
      "hit": false,
      "t": 74634.21600000016,
      "d": 182.92699999999604,
      "v": 100
    },
    {
      "midi": 60,
      "hit": false,
      "t": 74634.21600000016,
      "d": 182.92699999999604,
      "v": 100
    },
    {
      "midi": 65,
      "hit": false,
      "t": 74634.21600000016,
      "d": 182.92699999999604,
      "v": 100
    },
    {
      "midi": 46,
      "hit": false,
      "t": 74634.21600000025,
      "d": 182.92699999999604,
      "v": 80
    },
    {
      "midi": 40,
      "hit": false,
      "t": 74634.21600000025,
      "d": 365.8539999999921,
      "v": 100
    },
    {
      "midi": 39,
      "hit": false,
      "t": 74634.21600000025,
      "d": 365.8539999999921,
      "v": 90
    },
    {
      "midi": 29,
      "hit": false,
      "t": 74634.21600000029,
      "d": 182.92699999999604,
      "v": 100
    },
    {
      "midi": 53,
      "hit": false,
      "t": 74817.14300000016,
      "d": 91.46349999999802,
      "v": 80
    },
    {
      "midi": 65,
      "hit": false,
      "t": 74817.14300000016,
      "d": 91.46349999999802,
      "v": 80
    },
    {
      "midi": 46,
      "hit": false,
      "t": 74817.14300000016,
      "d": 91.46349999999802,
      "v": 80
    },
    {
      "midi": 58,
      "hit": false,
      "t": 74817.14300000016,
      "d": 91.46349999999802,
      "v": 80
    },
    {
      "midi": 62,
      "hit": false,
      "t": 74817.14300000016,
      "d": 91.46349999999802,
      "v": 80
    },
    {
      "midi": 53,
      "hit": false,
      "t": 74817.14300000016,
      "d": 91.46349999999802,
      "v": 80
    },
    {
      "midi": 65,
      "hit": false,
      "t": 74817.14300000016,
      "d": 91.46349999999802,
      "v": 80
    },
    {
      "midi": 46,
      "hit": false,
      "t": 74817.14300000016,
      "d": 91.46349999999802,
      "v": 80
    },
    {
      "midi": 58,
      "hit": false,
      "t": 74817.14300000016,
      "d": 91.46349999999802,
      "v": 80
    },
    {
      "midi": 62,
      "hit": false,
      "t": 74817.14300000016,
      "d": 91.46349999999802,
      "v": 80
    },
    {
      "midi": 46,
      "hit": false,
      "t": 74817.14300000024,
      "d": 182.92699999999604,
      "v": 80
    },
    {
      "midi": 29,
      "hit": false,
      "t": 74817.14300000029,
      "d": 182.92699999999604,
      "v": 100
    },
    {
      "midi": 65,
      "hit": false,
      "t": 74908.60650000015,
      "d": 91.46349999999802,
      "v": 80
    },
    {
      "midi": 46,
      "hit": false,
      "t": 74908.60650000015,
      "d": 91.46349999999802,
      "v": 80
    },
    {
      "midi": 62,
      "hit": false,
      "t": 74908.60650000015,
      "d": 91.46349999999802,
      "v": 80
    },
    {
      "midi": 58,
      "hit": false,
      "t": 74908.60650000015,
      "d": 91.46349999999802,
      "v": 80
    },
    {
      "midi": 53,
      "hit": false,
      "t": 74908.60650000015,
      "d": 91.46349999999802,
      "v": 80
    },
    {
      "midi": 65,
      "hit": false,
      "t": 74908.60650000015,
      "d": 91.46349999999802,
      "v": 80
    },
    {
      "midi": 46,
      "hit": false,
      "t": 74908.60650000015,
      "d": 91.46349999999802,
      "v": 80
    },
    {
      "midi": 62,
      "hit": false,
      "t": 74908.60650000015,
      "d": 91.46349999999802,
      "v": 80
    },
    {
      "midi": 58,
      "hit": false,
      "t": 74908.60650000015,
      "d": 91.46349999999802,
      "v": 80
    },
    {
      "midi": 53,
      "hit": false,
      "t": 74908.60650000015,
      "d": 91.46349999999802,
      "v": 80
    },
    {
      "midi": 62,
      "hit": false,
      "t": 75000.07,
      "d": 182.92699999999604,
      "v": 100
    },
    {
      "midi": 53,
      "hit": false,
      "t": 75000.07000000015,
      "d": 365.85400000000664,
      "v": 100
    },
    {
      "midi": 58,
      "hit": false,
      "t": 75000.07000000015,
      "d": 365.85400000000664,
      "v": 100
    },
    {
      "midi": 46,
      "hit": false,
      "t": 75000.07000000015,
      "d": 365.85400000000664,
      "v": 100
    },
    {
      "midi": 65,
      "hit": false,
      "t": 75000.07000000015,
      "d": 365.85400000000664,
      "v": 100
    },
    {
      "midi": 62,
      "hit": false,
      "t": 75000.07000000015,
      "d": 365.85400000000664,
      "v": 100
    },
    {
      "midi": 53,
      "hit": false,
      "t": 75000.07000000015,
      "d": 365.85400000000664,
      "v": 100
    },
    {
      "midi": 58,
      "hit": false,
      "t": 75000.07000000015,
      "d": 365.85400000000664,
      "v": 100
    },
    {
      "midi": 46,
      "hit": false,
      "t": 75000.07000000015,
      "d": 365.85400000000664,
      "v": 100
    },
    {
      "midi": 65,
      "hit": false,
      "t": 75000.07000000015,
      "d": 365.85400000000664,
      "v": 100
    },
    {
      "midi": 62,
      "hit": false,
      "t": 75000.07000000015,
      "d": 365.85400000000664,
      "v": 100
    },
    {
      "midi": 39,
      "hit": false,
      "t": 75000.07000000024,
      "d": 365.8539999999921,
      "v": 90
    },
    {
      "midi": 36,
      "hit": false,
      "t": 75000.07000000024,
      "d": 365.8539999999921,
      "v": 100
    },
    {
      "midi": 49,
      "hit": false,
      "t": 75000.07000000024,
      "d": 548.7809999999881,
      "v": 100
    },
    {
      "midi": 34,
      "hit": false,
      "t": 75000.07000000028,
      "d": 182.92699999999604,
      "v": 100
    },
    {
      "midi": 58,
      "hit": false,
      "t": 75182.997,
      "d": 182.92699999999604,
      "v": 100
    },
    {
      "midi": 46,
      "hit": false,
      "t": 75182.99700000024,
      "d": 182.92699999999604,
      "v": 80
    },
    {
      "midi": 34,
      "hit": false,
      "t": 75182.99700000028,
      "d": 182.92699999999604,
      "v": 100
    },
    {
      "midi": 69,
      "hit": false,
      "t": 75365.924,
      "d": 182.92699999999604,
      "v": 100
    },
    {
      "midi": 40,
      "hit": false,
      "t": 75365.92400000023,
      "d": 182.92699999999604,
      "v": 100
    },
    {
      "midi": 46,
      "hit": false,
      "t": 75365.92400000023,
      "d": 182.92699999999604,
      "v": 80
    },
    {
      "midi": 39,
      "hit": false,
      "t": 75365.92400000023,
      "d": 365.8539999999921,
      "v": 90
    },
    {
      "midi": 34,
      "hit": false,
      "t": 75365.92400000028,
      "d": 182.92699999999604,
      "v": 100
    },
    {
      "midi": 67,
      "hit": false,
      "t": 75548.851,
      "d": 365.85400000000664,
      "v": 100
    },
    {
      "midi": 55,
      "hit": false,
      "t": 75548.85100000016,
      "d": 365.85400000000664,
      "v": 100
    },
    {
      "midi": 64,
      "hit": false,
      "t": 75548.85100000016,
      "d": 365.85400000000664,
      "v": 100
    },
    {
      "midi": 48,
      "hit": false,
      "t": 75548.85100000016,
      "d": 365.85400000000664,
      "v": 100
    },
    {
      "midi": 67,
      "hit": false,
      "t": 75548.85100000016,
      "d": 365.85400000000664,
      "v": 100
    },
    {
      "midi": 60,
      "hit": false,
      "t": 75548.85100000016,
      "d": 365.85400000000664,
      "v": 100
    },
    {
      "midi": 55,
      "hit": false,
      "t": 75548.85100000016,
      "d": 365.85400000000664,
      "v": 100
    },
    {
      "midi": 64,
      "hit": false,
      "t": 75548.85100000016,
      "d": 365.85400000000664,
      "v": 100
    },
    {
      "midi": 48,
      "hit": false,
      "t": 75548.85100000016,
      "d": 365.85400000000664,
      "v": 100
    },
    {
      "midi": 67,
      "hit": false,
      "t": 75548.85100000016,
      "d": 365.85400000000664,
      "v": 100
    },
    {
      "midi": 60,
      "hit": false,
      "t": 75548.85100000016,
      "d": 365.85400000000664,
      "v": 100
    },
    {
      "midi": 36,
      "hit": false,
      "t": 75548.85100000023,
      "d": 365.8539999999921,
      "v": 100
    },
    {
      "midi": 49,
      "hit": false,
      "t": 75548.85100000023,
      "d": 731.7079999999842,
      "v": 100
    },
    {
      "midi": 36,
      "hit": false,
      "t": 75548.85100000027,
      "d": 365.85400000000664,
      "v": 100
    },
    {
      "midi": 46,
      "hit": false,
      "t": 75731.77800000022,
      "d": 182.92699999999604,
      "v": 80
    },
    {
      "midi": 39,
      "hit": false,
      "t": 75731.77800000022,
      "d": 365.8539999999921,
      "v": 90
    },
    {
      "midi": 65,
      "hit": false,
      "t": 75914.705,
      "d": 182.92699999999604,
      "v": 100
    },
    {
      "midi": 55,
      "hit": false,
      "t": 75914.70500000016,
      "d": 182.92699999999604,
      "v": 100
    },
    {
      "midi": 67,
      "hit": false,
      "t": 75914.70500000016,
      "d": 182.92699999999604,
      "v": 100
    },
    {
      "midi": 60,
      "hit": false,
      "t": 75914.70500000016,
      "d": 182.92699999999604,
      "v": 100
    },
    {
      "midi": 64,
      "hit": false,
      "t": 75914.70500000016,
      "d": 182.92699999999604,
      "v": 100
    },
    {
      "midi": 48,
      "hit": false,
      "t": 75914.70500000016,
      "d": 182.92699999999604,
      "v": 100
    },
    {
      "midi": 55,
      "hit": false,
      "t": 75914.70500000016,
      "d": 182.92699999999604,
      "v": 100
    },
    {
      "midi": 67,
      "hit": false,
      "t": 75914.70500000016,
      "d": 182.92699999999604,
      "v": 100
    },
    {
      "midi": 60,
      "hit": false,
      "t": 75914.70500000016,
      "d": 182.92699999999604,
      "v": 100
    },
    {
      "midi": 64,
      "hit": false,
      "t": 75914.70500000016,
      "d": 182.92699999999604,
      "v": 100
    },
    {
      "midi": 48,
      "hit": false,
      "t": 75914.70500000016,
      "d": 182.92699999999604,
      "v": 100
    },
    {
      "midi": 46,
      "hit": false,
      "t": 75914.70500000022,
      "d": 182.92699999999604,
      "v": 80
    },
    {
      "midi": 36,
      "hit": false,
      "t": 75914.70500000022,
      "d": 182.92699999999604,
      "v": 100
    },
    {
      "midi": 36,
      "hit": false,
      "t": 75914.70500000028,
      "d": 182.92699999999604,
      "v": 100
    },
    {
      "midi": 67,
      "hit": false,
      "t": 76097.632,
      "d": 365.85400000000664,
      "v": 100
    },
    {
      "midi": 64,
      "hit": false,
      "t": 76097.63200000016,
      "d": 182.92699999999604,
      "v": 100
    },
    {
      "midi": 48,
      "hit": false,
      "t": 76097.63200000016,
      "d": 182.92699999999604,
      "v": 100
    },
    {
      "midi": 67,
      "hit": false,
      "t": 76097.63200000016,
      "d": 182.92699999999604,
      "v": 100
    },
    {
      "midi": 60,
      "hit": false,
      "t": 76097.63200000016,
      "d": 182.92699999999604,
      "v": 100
    },
    {
      "midi": 55,
      "hit": false,
      "t": 76097.63200000016,
      "d": 182.92699999999604,
      "v": 100
    },
    {
      "midi": 64,
      "hit": false,
      "t": 76097.63200000016,
      "d": 182.92699999999604,
      "v": 100
    },
    {
      "midi": 48,
      "hit": false,
      "t": 76097.63200000016,
      "d": 182.92699999999604,
      "v": 100
    },
    {
      "midi": 67,
      "hit": false,
      "t": 76097.63200000016,
      "d": 182.92699999999604,
      "v": 100
    },
    {
      "midi": 60,
      "hit": false,
      "t": 76097.63200000016,
      "d": 182.92699999999604,
      "v": 100
    },
    {
      "midi": 55,
      "hit": false,
      "t": 76097.63200000016,
      "d": 182.92699999999604,
      "v": 100
    },
    {
      "midi": 46,
      "hit": false,
      "t": 76097.63200000022,
      "d": 182.92699999999604,
      "v": 80
    },
    {
      "midi": 39,
      "hit": false,
      "t": 76097.63200000022,
      "d": 365.8539999999921,
      "v": 90
    },
    {
      "midi": 40,
      "hit": false,
      "t": 76097.63200000022,
      "d": 365.8539999999921,
      "v": 100
    },
    {
      "midi": 36,
      "hit": false,
      "t": 76097.63200000027,
      "d": 182.92699999999604,
      "v": 100
    },
    {
      "midi": 65,
      "hit": false,
      "t": 76280.55900000015,
      "d": 91.46349999999802,
      "v": 80
    },
    {
      "midi": 57,
      "hit": false,
      "t": 76280.55900000015,
      "d": 91.46349999999802,
      "v": 80
    },
    {
      "midi": 69,
      "hit": false,
      "t": 76280.55900000015,
      "d": 91.46349999999802,
      "v": 80
    },
    {
      "midi": 62,
      "hit": false,
      "t": 76280.55900000015,
      "d": 91.46349999999802,
      "v": 80
    },
    {
      "midi": 50,
      "hit": false,
      "t": 76280.55900000015,
      "d": 91.46349999999802,
      "v": 80
    },
    {
      "midi": 65,
      "hit": false,
      "t": 76280.55900000015,
      "d": 91.46349999999802,
      "v": 80
    },
    {
      "midi": 57,
      "hit": false,
      "t": 76280.55900000015,
      "d": 91.46349999999802,
      "v": 80
    },
    {
      "midi": 69,
      "hit": false,
      "t": 76280.55900000015,
      "d": 91.46349999999802,
      "v": 80
    },
    {
      "midi": 62,
      "hit": false,
      "t": 76280.55900000015,
      "d": 91.46349999999802,
      "v": 80
    },
    {
      "midi": 50,
      "hit": false,
      "t": 76280.55900000015,
      "d": 91.46349999999802,
      "v": 80
    },
    {
      "midi": 46,
      "hit": false,
      "t": 76280.55900000021,
      "d": 182.92699999999604,
      "v": 80
    },
    {
      "midi": 36,
      "hit": false,
      "t": 76280.55900000027,
      "d": 182.92699999999604,
      "v": 100
    },
    {
      "midi": 65,
      "hit": false,
      "t": 76372.02250000015,
      "d": 91.46349999999802,
      "v": 80
    },
    {
      "midi": 50,
      "hit": false,
      "t": 76372.02250000015,
      "d": 91.46349999999802,
      "v": 80
    },
    {
      "midi": 57,
      "hit": false,
      "t": 76372.02250000015,
      "d": 91.46349999999802,
      "v": 80
    },
    {
      "midi": 69,
      "hit": false,
      "t": 76372.02250000015,
      "d": 91.46349999999802,
      "v": 80
    },
    {
      "midi": 62,
      "hit": false,
      "t": 76372.02250000015,
      "d": 91.46349999999802,
      "v": 80
    },
    {
      "midi": 65,
      "hit": false,
      "t": 76372.02250000015,
      "d": 91.46349999999802,
      "v": 80
    },
    {
      "midi": 50,
      "hit": false,
      "t": 76372.02250000015,
      "d": 91.46349999999802,
      "v": 80
    },
    {
      "midi": 57,
      "hit": false,
      "t": 76372.02250000015,
      "d": 91.46349999999802,
      "v": 80
    },
    {
      "midi": 69,
      "hit": false,
      "t": 76372.02250000015,
      "d": 91.46349999999802,
      "v": 80
    },
    {
      "midi": 62,
      "hit": false,
      "t": 76372.02250000015,
      "d": 91.46349999999802,
      "v": 80
    },
    {
      "midi": 65,
      "hit": false,
      "t": 76463.486,
      "d": 365.85400000000664,
      "v": 100
    },
    {
      "midi": 50,
      "hit": false,
      "t": 76463.48600000015,
      "d": 365.85400000000664,
      "v": 100
    },
    {
      "midi": 62,
      "hit": false,
      "t": 76463.48600000015,
      "d": 365.85400000000664,
      "v": 100
    },
    {
      "midi": 69,
      "hit": false,
      "t": 76463.48600000015,
      "d": 365.85400000000664,
      "v": 100
    },
    {
      "midi": 65,
      "hit": false,
      "t": 76463.48600000015,
      "d": 365.85400000000664,
      "v": 100
    },
    {
      "midi": 57,
      "hit": false,
      "t": 76463.48600000015,
      "d": 365.85400000000664,
      "v": 100
    },
    {
      "midi": 50,
      "hit": false,
      "t": 76463.48600000015,
      "d": 365.85400000000664,
      "v": 100
    },
    {
      "midi": 62,
      "hit": false,
      "t": 76463.48600000015,
      "d": 365.85400000000664,
      "v": 100
    },
    {
      "midi": 69,
      "hit": false,
      "t": 76463.48600000015,
      "d": 365.85400000000664,
      "v": 100
    },
    {
      "midi": 65,
      "hit": false,
      "t": 76463.48600000015,
      "d": 365.85400000000664,
      "v": 100
    },
    {
      "midi": 57,
      "hit": false,
      "t": 76463.48600000015,
      "d": 365.85400000000664,
      "v": 100
    },
    {
      "midi": 36,
      "hit": false,
      "t": 76463.48600000021,
      "d": 365.8539999999921,
      "v": 100
    },
    {
      "midi": 39,
      "hit": false,
      "t": 76463.48600000021,
      "d": 365.8539999999921,
      "v": 90
    },
    {
      "midi": 49,
      "hit": false,
      "t": 76463.48600000021,
      "d": 731.7079999999842,
      "v": 100
    },
    {
      "midi": 38,
      "hit": false,
      "t": 76463.48600000027,
      "d": 182.92699999999604,
      "v": 100
    },
    {
      "midi": 46,
      "hit": false,
      "t": 76646.4130000002,
      "d": 182.92699999999604,
      "v": 80
    },
    {
      "midi": 38,
      "hit": false,
      "t": 76646.41300000026,
      "d": 182.92699999999604,
      "v": 100
    },
    {
      "midi": 60,
      "hit": false,
      "t": 76829.34000000001,
      "d": 365.85400000000664,
      "v": 100
    },
    {
      "midi": 65,
      "hit": false,
      "t": 76829.34000000016,
      "d": 365.85400000000664,
      "v": 100
    },
    {
      "midi": 62,
      "hit": false,
      "t": 76829.34000000016,
      "d": 365.85400000000664,
      "v": 100
    },
    {
      "midi": 69,
      "hit": false,
      "t": 76829.34000000016,
      "d": 365.85400000000664,
      "v": 100
    },
    {
      "midi": 57,
      "hit": false,
      "t": 76829.34000000016,
      "d": 365.85400000000664,
      "v": 100
    },
    {
      "midi": 50,
      "hit": false,
      "t": 76829.34000000016,
      "d": 365.85400000000664,
      "v": 100
    },
    {
      "midi": 65,
      "hit": false,
      "t": 76829.34000000016,
      "d": 365.85400000000664,
      "v": 100
    },
    {
      "midi": 62,
      "hit": false,
      "t": 76829.34000000016,
      "d": 365.85400000000664,
      "v": 100
    },
    {
      "midi": 69,
      "hit": false,
      "t": 76829.34000000016,
      "d": 365.85400000000664,
      "v": 100
    },
    {
      "midi": 57,
      "hit": false,
      "t": 76829.34000000016,
      "d": 365.85400000000664,
      "v": 100
    },
    {
      "midi": 50,
      "hit": false,
      "t": 76829.34000000016,
      "d": 365.85400000000664,
      "v": 100
    },
    {
      "midi": 46,
      "hit": false,
      "t": 76829.3400000002,
      "d": 182.92699999999604,
      "v": 80
    },
    {
      "midi": 39,
      "hit": false,
      "t": 76829.3400000002,
      "d": 365.8539999999921,
      "v": 90
    },
    {
      "midi": 40,
      "hit": false,
      "t": 76829.3400000002,
      "d": 365.8539999999921,
      "v": 100
    },
    {
      "midi": 38,
      "hit": false,
      "t": 76829.34000000026,
      "d": 182.92699999999604,
      "v": 100
    },
    {
      "midi": 46,
      "hit": false,
      "t": 77012.2670000002,
      "d": 182.92699999999604,
      "v": 80
    },
    {
      "midi": 38,
      "hit": false,
      "t": 77012.26700000025,
      "d": 182.92699999999604,
      "v": 100
    },
    {
      "midi": 60,
      "hit": false,
      "t": 77195.19400000002,
      "d": 365.85400000000664,
      "v": 100
    },
    {
      "midi": 69,
      "hit": false,
      "t": 77195.19400000016,
      "d": 365.85400000000664,
      "v": 100
    },
    {
      "midi": 65,
      "hit": false,
      "t": 77195.19400000016,
      "d": 365.85400000000664,
      "v": 100
    },
    {
      "midi": 62,
      "hit": false,
      "t": 77195.19400000016,
      "d": 365.85400000000664,
      "v": 100
    },
    {
      "midi": 57,
      "hit": false,
      "t": 77195.19400000016,
      "d": 365.85400000000664,
      "v": 100
    },
    {
      "midi": 50,
      "hit": false,
      "t": 77195.19400000016,
      "d": 365.85400000000664,
      "v": 100
    },
    {
      "midi": 69,
      "hit": false,
      "t": 77195.19400000016,
      "d": 365.85400000000664,
      "v": 100
    },
    {
      "midi": 65,
      "hit": false,
      "t": 77195.19400000016,
      "d": 365.85400000000664,
      "v": 100
    },
    {
      "midi": 62,
      "hit": false,
      "t": 77195.19400000016,
      "d": 365.85400000000664,
      "v": 100
    },
    {
      "midi": 57,
      "hit": false,
      "t": 77195.19400000016,
      "d": 365.85400000000664,
      "v": 100
    },
    {
      "midi": 50,
      "hit": false,
      "t": 77195.19400000016,
      "d": 365.85400000000664,
      "v": 100
    },
    {
      "midi": 46,
      "hit": false,
      "t": 77195.19400000019,
      "d": 182.92699999999604,
      "v": 80
    },
    {
      "midi": 36,
      "hit": false,
      "t": 77195.19400000019,
      "d": 182.92699999999604,
      "v": 100
    },
    {
      "midi": 39,
      "hit": false,
      "t": 77195.19400000019,
      "d": 365.8539999999921,
      "v": 90
    },
    {
      "midi": 38,
      "hit": false,
      "t": 77195.19400000025,
      "d": 182.92699999999604,
      "v": 100
    },
    {
      "midi": 46,
      "hit": false,
      "t": 77378.12100000019,
      "d": 182.92699999999604,
      "v": 80
    },
    {
      "midi": 36,
      "hit": false,
      "t": 77378.12100000019,
      "d": 182.92699999999604,
      "v": 100
    },
    {
      "midi": 38,
      "hit": false,
      "t": 77378.12100000025,
      "d": 182.92699999999604,
      "v": 100
    },
    {
      "midi": 60,
      "hit": false,
      "t": 77561.04800000002,
      "d": 365.85400000000664,
      "v": 100
    },
    {
      "midi": 50,
      "hit": false,
      "t": 77561.04800000017,
      "d": 182.92699999999604,
      "v": 100
    },
    {
      "midi": 69,
      "hit": false,
      "t": 77561.04800000017,
      "d": 182.92699999999604,
      "v": 100
    },
    {
      "midi": 57,
      "hit": false,
      "t": 77561.04800000017,
      "d": 182.92699999999604,
      "v": 100
    },
    {
      "midi": 65,
      "hit": false,
      "t": 77561.04800000017,
      "d": 182.92699999999604,
      "v": 100
    },
    {
      "midi": 62,
      "hit": false,
      "t": 77561.04800000017,
      "d": 182.92699999999604,
      "v": 100
    },
    {
      "midi": 50,
      "hit": false,
      "t": 77561.04800000017,
      "d": 182.92699999999604,
      "v": 100
    },
    {
      "midi": 69,
      "hit": false,
      "t": 77561.04800000017,
      "d": 182.92699999999604,
      "v": 100
    },
    {
      "midi": 57,
      "hit": false,
      "t": 77561.04800000017,
      "d": 182.92699999999604,
      "v": 100
    },
    {
      "midi": 65,
      "hit": false,
      "t": 77561.04800000017,
      "d": 182.92699999999604,
      "v": 100
    },
    {
      "midi": 62,
      "hit": false,
      "t": 77561.04800000017,
      "d": 182.92699999999604,
      "v": 100
    },
    {
      "midi": 46,
      "hit": false,
      "t": 77561.04800000018,
      "d": 182.92699999999604,
      "v": 80
    },
    {
      "midi": 40,
      "hit": false,
      "t": 77561.04800000018,
      "d": 365.8539999999921,
      "v": 100
    },
    {
      "midi": 39,
      "hit": false,
      "t": 77561.04800000018,
      "d": 365.8539999999921,
      "v": 90
    },
    {
      "midi": 38,
      "hit": false,
      "t": 77561.04800000024,
      "d": 182.92699999999604,
      "v": 100
    },
    {
      "midi": 62,
      "hit": false,
      "t": 77743.97500000017,
      "d": 91.46349999999802,
      "v": 80
    },
    {
      "midi": 58,
      "hit": false,
      "t": 77743.97500000017,
      "d": 91.46349999999802,
      "v": 80
    },
    {
      "midi": 53,
      "hit": false,
      "t": 77743.97500000017,
      "d": 91.46349999999802,
      "v": 80
    },
    {
      "midi": 65,
      "hit": false,
      "t": 77743.97500000017,
      "d": 91.46349999999802,
      "v": 80
    },
    {
      "midi": 46,
      "hit": false,
      "t": 77743.97500000017,
      "d": 91.46349999999802,
      "v": 80
    },
    {
      "midi": 62,
      "hit": false,
      "t": 77743.97500000017,
      "d": 91.46349999999802,
      "v": 80
    },
    {
      "midi": 58,
      "hit": false,
      "t": 77743.97500000017,
      "d": 91.46349999999802,
      "v": 80
    },
    {
      "midi": 53,
      "hit": false,
      "t": 77743.97500000017,
      "d": 91.46349999999802,
      "v": 80
    },
    {
      "midi": 65,
      "hit": false,
      "t": 77743.97500000017,
      "d": 91.46349999999802,
      "v": 80
    },
    {
      "midi": 46,
      "hit": false,
      "t": 77743.97500000017,
      "d": 91.46349999999802,
      "v": 80
    },
    {
      "midi": 46,
      "hit": false,
      "t": 77743.97500000018,
      "d": 182.92699999999604,
      "v": 80
    },
    {
      "midi": 38,
      "hit": false,
      "t": 77743.97500000024,
      "d": 182.92699999999604,
      "v": 100
    },
    {
      "midi": 65,
      "hit": false,
      "t": 77835.43850000016,
      "d": 91.46349999999802,
      "v": 80
    },
    {
      "midi": 58,
      "hit": false,
      "t": 77835.43850000016,
      "d": 91.46349999999802,
      "v": 80
    },
    {
      "midi": 53,
      "hit": false,
      "t": 77835.43850000016,
      "d": 91.46349999999802,
      "v": 80
    },
    {
      "midi": 46,
      "hit": false,
      "t": 77835.43850000016,
      "d": 91.46349999999802,
      "v": 80
    },
    {
      "midi": 62,
      "hit": false,
      "t": 77835.43850000016,
      "d": 91.46349999999802,
      "v": 80
    },
    {
      "midi": 65,
      "hit": false,
      "t": 77835.43850000016,
      "d": 91.46349999999802,
      "v": 80
    },
    {
      "midi": 58,
      "hit": false,
      "t": 77835.43850000016,
      "d": 91.46349999999802,
      "v": 80
    },
    {
      "midi": 53,
      "hit": false,
      "t": 77835.43850000016,
      "d": 91.46349999999802,
      "v": 80
    },
    {
      "midi": 46,
      "hit": false,
      "t": 77835.43850000016,
      "d": 91.46349999999802,
      "v": 80
    },
    {
      "midi": 62,
      "hit": false,
      "t": 77835.43850000016,
      "d": 91.46349999999802,
      "v": 80
    },
    {
      "midi": 62,
      "hit": false,
      "t": 77926.90200000003,
      "d": 182.92699999999604,
      "v": 100
    },
    {
      "midi": 62,
      "hit": false,
      "t": 77926.90200000016,
      "d": 365.85400000000664,
      "v": 100
    },
    {
      "midi": 53,
      "hit": false,
      "t": 77926.90200000016,
      "d": 365.85400000000664,
      "v": 100
    },
    {
      "midi": 65,
      "hit": false,
      "t": 77926.90200000016,
      "d": 365.85400000000664,
      "v": 100
    },
    {
      "midi": 46,
      "hit": false,
      "t": 77926.90200000016,
      "d": 365.85400000000664,
      "v": 100
    },
    {
      "midi": 58,
      "hit": false,
      "t": 77926.90200000016,
      "d": 365.85400000000664,
      "v": 100
    },
    {
      "midi": 62,
      "hit": false,
      "t": 77926.90200000016,
      "d": 365.85400000000664,
      "v": 100
    },
    {
      "midi": 53,
      "hit": false,
      "t": 77926.90200000016,
      "d": 365.85400000000664,
      "v": 100
    },
    {
      "midi": 65,
      "hit": false,
      "t": 77926.90200000016,
      "d": 365.85400000000664,
      "v": 100
    },
    {
      "midi": 46,
      "hit": false,
      "t": 77926.90200000016,
      "d": 365.85400000000664,
      "v": 100
    },
    {
      "midi": 58,
      "hit": false,
      "t": 77926.90200000016,
      "d": 365.85400000000664,
      "v": 100
    },
    {
      "midi": 39,
      "hit": false,
      "t": 77926.90200000018,
      "d": 365.8539999999921,
      "v": 90
    },
    {
      "midi": 36,
      "hit": false,
      "t": 77926.90200000018,
      "d": 365.8539999999921,
      "v": 100
    },
    {
      "midi": 49,
      "hit": false,
      "t": 77926.90200000018,
      "d": 548.7809999999881,
      "v": 100
    },
    {
      "midi": 34,
      "hit": false,
      "t": 77926.90200000023,
      "d": 182.92699999999604,
      "v": 100
    },
    {
      "midi": 60,
      "hit": false,
      "t": 78109.82900000003,
      "d": 182.92699999999604,
      "v": 100
    },
    {
      "midi": 46,
      "hit": false,
      "t": 78109.82900000017,
      "d": 182.92699999999604,
      "v": 80
    },
    {
      "midi": 34,
      "hit": false,
      "t": 78109.82900000023,
      "d": 182.92699999999604,
      "v": 100
    },
    {
      "midi": 58,
      "hit": false,
      "t": 78292.75600000002,
      "d": 182.92699999999604,
      "v": 100
    },
    {
      "midi": 40,
      "hit": false,
      "t": 78292.75600000017,
      "d": 182.92699999999604,
      "v": 100
    },
    {
      "midi": 46,
      "hit": false,
      "t": 78292.75600000017,
      "d": 182.92699999999604,
      "v": 80
    },
    {
      "midi": 39,
      "hit": false,
      "t": 78292.75600000017,
      "d": 365.8539999999921,
      "v": 90
    },
    {
      "midi": 34,
      "hit": false,
      "t": 78292.75600000023,
      "d": 182.92699999999604,
      "v": 100
    },
    {
      "midi": 60,
      "hit": false,
      "t": 78475.68300000002,
      "d": 365.85400000000664,
      "v": 100
    },
    {
      "midi": 64,
      "hit": false,
      "t": 78475.68300000016,
      "d": 365.85400000000664,
      "v": 100
    },
    {
      "midi": 60,
      "hit": false,
      "t": 78475.68300000016,
      "d": 365.85400000000664,
      "v": 100
    },
    {
      "midi": 48,
      "hit": false,
      "t": 78475.68300000016,
      "d": 365.85400000000664,
      "v": 100
    },
    {
      "midi": 55,
      "hit": false,
      "t": 78475.68300000016,
      "d": 365.85400000000664,
      "v": 100
    },
    {
      "midi": 67,
      "hit": false,
      "t": 78475.68300000016,
      "d": 365.85400000000664,
      "v": 100
    },
    {
      "midi": 64,
      "hit": false,
      "t": 78475.68300000016,
      "d": 365.85400000000664,
      "v": 100
    },
    {
      "midi": 60,
      "hit": false,
      "t": 78475.68300000016,
      "d": 365.85400000000664,
      "v": 100
    },
    {
      "midi": 48,
      "hit": false,
      "t": 78475.68300000016,
      "d": 365.85400000000664,
      "v": 100
    },
    {
      "midi": 55,
      "hit": false,
      "t": 78475.68300000016,
      "d": 365.85400000000664,
      "v": 100
    },
    {
      "midi": 67,
      "hit": false,
      "t": 78475.68300000016,
      "d": 365.85400000000664,
      "v": 100
    },
    {
      "midi": 36,
      "hit": false,
      "t": 78475.68300000016,
      "d": 365.8539999999921,
      "v": 100
    },
    {
      "midi": 49,
      "hit": false,
      "t": 78475.68300000016,
      "d": 731.7079999999842,
      "v": 100
    },
    {
      "midi": 36,
      "hit": false,
      "t": 78475.68300000022,
      "d": 365.85400000000664,
      "v": 100
    },
    {
      "midi": 46,
      "hit": false,
      "t": 78658.61000000016,
      "d": 182.92699999999604,
      "v": 80
    },
    {
      "midi": 39,
      "hit": false,
      "t": 78658.61000000016,
      "d": 365.8539999999921,
      "v": 90
    },
    {
      "midi": 58,
      "hit": false,
      "t": 78841.53700000003,
      "d": 182.92699999999604,
      "v": 100
    },
    {
      "midi": 46,
      "hit": false,
      "t": 78841.53700000016,
      "d": 182.92699999999604,
      "v": 80
    },
    {
      "midi": 36,
      "hit": false,
      "t": 78841.53700000016,
      "d": 182.92699999999604,
      "v": 100
    },
    {
      "midi": 67,
      "hit": false,
      "t": 78841.53700000017,
      "d": 182.92699999999604,
      "v": 100
    },
    {
      "midi": 60,
      "hit": false,
      "t": 78841.53700000017,
      "d": 182.92699999999604,
      "v": 100
    },
    {
      "midi": 64,
      "hit": false,
      "t": 78841.53700000017,
      "d": 182.92699999999604,
      "v": 100
    },
    {
      "midi": 55,
      "hit": false,
      "t": 78841.53700000017,
      "d": 182.92699999999604,
      "v": 100
    },
    {
      "midi": 48,
      "hit": false,
      "t": 78841.53700000017,
      "d": 182.92699999999604,
      "v": 100
    },
    {
      "midi": 67,
      "hit": false,
      "t": 78841.53700000017,
      "d": 182.92699999999604,
      "v": 100
    },
    {
      "midi": 60,
      "hit": false,
      "t": 78841.53700000017,
      "d": 182.92699999999604,
      "v": 100
    },
    {
      "midi": 64,
      "hit": false,
      "t": 78841.53700000017,
      "d": 182.92699999999604,
      "v": 100
    },
    {
      "midi": 55,
      "hit": false,
      "t": 78841.53700000017,
      "d": 182.92699999999604,
      "v": 100
    },
    {
      "midi": 48,
      "hit": false,
      "t": 78841.53700000017,
      "d": 182.92699999999604,
      "v": 100
    },
    {
      "midi": 36,
      "hit": false,
      "t": 78841.53700000023,
      "d": 182.92699999999604,
      "v": 100
    },
    {
      "midi": 57,
      "hit": false,
      "t": 79024.46400000002,
      "d": 182.92699999999604,
      "v": 100
    },
    {
      "midi": 41,
      "hit": false,
      "t": 79024.46400000015,
      "d": 365.8539999999921,
      "v": 127
    },
    {
      "midi": 39,
      "hit": false,
      "t": 79024.46400000015,
      "d": 365.8539999999921,
      "v": 90
    },
    {
      "midi": 40,
      "hit": false,
      "t": 79024.46400000015,
      "d": 365.8539999999921,
      "v": 100
    },
    {
      "midi": 64,
      "hit": false,
      "t": 79024.46400000017,
      "d": 365.85400000000664,
      "v": 100
    },
    {
      "midi": 60,
      "hit": false,
      "t": 79024.46400000017,
      "d": 365.85400000000664,
      "v": 100
    },
    {
      "midi": 67,
      "hit": false,
      "t": 79024.46400000017,
      "d": 365.85400000000664,
      "v": 100
    },
    {
      "midi": 55,
      "hit": false,
      "t": 79024.46400000017,
      "d": 365.85400000000664,
      "v": 100
    },
    {
      "midi": 48,
      "hit": false,
      "t": 79024.46400000017,
      "d": 365.85400000000664,
      "v": 100
    },
    {
      "midi": 64,
      "hit": false,
      "t": 79024.46400000017,
      "d": 365.85400000000664,
      "v": 100
    },
    {
      "midi": 60,
      "hit": false,
      "t": 79024.46400000017,
      "d": 365.85400000000664,
      "v": 100
    },
    {
      "midi": 67,
      "hit": false,
      "t": 79024.46400000017,
      "d": 365.85400000000664,
      "v": 100
    },
    {
      "midi": 55,
      "hit": false,
      "t": 79024.46400000017,
      "d": 365.85400000000664,
      "v": 100
    },
    {
      "midi": 48,
      "hit": false,
      "t": 79024.46400000017,
      "d": 365.85400000000664,
      "v": 100
    },
    {
      "midi": 36,
      "hit": false,
      "t": 79024.46400000023,
      "d": 182.92699999999604,
      "v": 100
    },
    {
      "midi": 55,
      "hit": false,
      "t": 79207.39100000002,
      "d": 182.92699999999604,
      "v": 100
    },
    {
      "midi": 36,
      "hit": false,
      "t": 79207.39100000022,
      "d": 182.92699999999604,
      "v": 100
    },
    {
      "midi": 65,
      "hit": false,
      "t": 79390.31800000001,
      "d": 2926.831999999995,
      "v": 100
    },
    {
      "midi": 40,
      "hit": false,
      "t": 79390.31800000014,
      "d": 731.7079999999987,
      "v": 100
    },
    {
      "midi": 49,
      "hit": false,
      "t": 79390.31800000014,
      "d": 731.7079999999987,
      "v": 100
    },
    {
      "midi": 46,
      "hit": false,
      "t": 79390.31800000014,
      "d": 731.7079999999987,
      "v": 100
    },
    {
      "midi": 48,
      "hit": false,
      "t": 79390.31800000017,
      "d": 2926.831999999995,
      "v": 100
    },
    {
      "midi": 57,
      "hit": false,
      "t": 79390.31800000017,
      "d": 2926.831999999995,
      "v": 100
    },
    {
      "midi": 65,
      "hit": false,
      "t": 79390.31800000017,
      "d": 2926.831999999995,
      "v": 100
    },
    {
      "midi": 60,
      "hit": false,
      "t": 79390.31800000017,
      "d": 2926.831999999995,
      "v": 100
    },
    {
      "midi": 53,
      "hit": false,
      "t": 79390.31800000017,
      "d": 2926.831999999995,
      "v": 100
    },
    {
      "midi": 48,
      "hit": false,
      "t": 79390.31800000017,
      "d": 2926.831999999995,
      "v": 100
    },
    {
      "midi": 57,
      "hit": false,
      "t": 79390.31800000017,
      "d": 2926.831999999995,
      "v": 100
    },
    {
      "midi": 65,
      "hit": false,
      "t": 79390.31800000017,
      "d": 2926.831999999995,
      "v": 100
    },
    {
      "midi": 60,
      "hit": false,
      "t": 79390.31800000017,
      "d": 2926.831999999995,
      "v": 100
    },
    {
      "midi": 53,
      "hit": false,
      "t": 79390.31800000017,
      "d": 2926.831999999995,
      "v": 100
    },
    {
      "midi": 29,
      "hit": false,
      "t": 79390.31800000022,
      "d": 2926.831999999995,
      "v": 100
    }
  ]
}