{
  "jsonPath": "Rock/Rap Rock/Jonathan Davis/love-on-the-rocks.json",
  "path": "Rock\\Rap Rock\\Jonathan Davis\\Love On The Rocks.mid",
  "name": "Love On The Rocks",
  "difficulty": "Advanced",
  "bpm": 72.00002880001152,
  "notes": [
    {
      "midi": 45,
      "hit": false,
      "t": 6963.758366666668,
      "d": 746.375766666667,
      "v": 112
    },
    {
      "midi": 64,
      "hit": false,
      "t": 6963.758366666668,
      "d": 1652.1716000000006,
      "v": 112
    },
    {
      "midi": 69,
      "hit": false,
      "t": 6963.758366666668,
      "d": 1905.7944333333335,
      "v": 112
    },
    {
      "midi": 72,
      "hit": false,
      "t": 6963.758366666668,
      "d": 1934.7799000000005,
      "v": 112
    },
    {
      "midi": 52,
      "hit": false,
      "t": 6978.2511,
      "d": 956.5204000000003,
      "v": 69
    },
    {
      "midi": 45,
      "hit": false,
      "t": 6978.2511,
      "d": 971.0131333333338,
      "v": 64
    },
    {
      "midi": 57,
      "hit": false,
      "t": 6985.497466666667,
      "d": 971.0131333333338,
      "v": 86
    },
    {
      "midi": 60,
      "hit": false,
      "t": 6999.9902,
      "d": 971.0131333333338,
      "v": 81
    },
    {
      "midi": 52,
      "hit": false,
      "t": 7398.540366666668,
      "d": 557.9702333333335,
      "v": 112
    },
    {
      "midi": 60,
      "hit": false,
      "t": 7833.322366666668,
      "d": 579.7093333333332,
      "v": 112
    },
    {
      "midi": 45,
      "hit": false,
      "t": 8268.104366666666,
      "d": 1673.9106999999985,
      "v": 66
    },
    {
      "midi": 52,
      "hit": false,
      "t": 8268.104366666668,
      "d": 630.4339,
      "v": 112
    },
    {
      "midi": 52,
      "hit": false,
      "t": 8282.597099999999,
      "d": 1659.417966666666,
      "v": 62
    },
    {
      "midi": 57,
      "hit": false,
      "t": 8282.597099999999,
      "d": 1659.417966666666,
      "v": 86
    },
    {
      "midi": 60,
      "hit": false,
      "t": 8297.089833333332,
      "d": 2065.2145,
      "v": 76
    },
    {
      "midi": 45,
      "hit": false,
      "t": 8702.886366666668,
      "d": 608.6948000000011,
      "v": 112
    },
    {
      "midi": 60,
      "hit": false,
      "t": 8702.886366666668,
      "d": 746.3757666666679,
      "v": 112
    },
    {
      "midi": 64,
      "hit": false,
      "t": 8702.886366666668,
      "d": 1050.7231666666685,
      "v": 112
    },
    {
      "midi": 52,
      "hit": false,
      "t": 9137.668366666669,
      "d": 608.6948000000011,
      "v": 112
    },
    {
      "midi": 69,
      "hit": false,
      "t": 9572.45036666667,
      "d": 673.9120999999996,
      "v": 112
    },
    {
      "midi": 67,
      "hit": false,
      "t": 10007.232366666669,
      "d": 413.0429000000004,
      "v": 112
    },
    {
      "midi": 52,
      "hit": false,
      "t": 10028.971466666664,
      "d": 355.07196666666823,
      "v": 69
    },
    {
      "midi": 53,
      "hit": false,
      "t": 10434.767999999998,
      "d": 1260.8677999999982,
      "v": 70
    },
    {
      "midi": 60,
      "hit": false,
      "t": 10442.01436666667,
      "d": 86.95639999999912,
      "v": 112
    },
    {
      "midi": 41,
      "hit": false,
      "t": 10442.01436666667,
      "d": 579.7093333333323,
      "v": 112
    },
    {
      "midi": 65,
      "hit": false,
      "t": 10442.01436666667,
      "d": 2282.605499999996,
      "v": 112
    },
    {
      "midi": 57,
      "hit": false,
      "t": 10442.01436666667,
      "d": 2347.8227999999963,
      "v": 112
    },
    {
      "midi": 69,
      "hit": false,
      "t": 10449.26073333333,
      "d": 1246.3750666666656,
      "v": 67
    },
    {
      "midi": 67,
      "hit": false,
      "t": 10456.507099999997,
      "d": 1239.1286999999993,
      "v": 66
    },
    {
      "midi": 60,
      "hit": false,
      "t": 10463.753466666663,
      "d": 1231.882333333333,
      "v": 73
    },
    {
      "midi": 48,
      "hit": false,
      "t": 10876.79636666667,
      "d": 579.7093333333323,
      "v": 112
    },
    {
      "midi": 53,
      "hit": false,
      "t": 11311.578366666668,
      "d": 579.7093333333323,
      "v": 112
    },
    {
      "midi": 53,
      "hit": false,
      "t": 11739.113999999996,
      "d": 1992.7508333333335,
      "v": 48
    },
    {
      "midi": 48,
      "hit": false,
      "t": 11746.360366666668,
      "d": 608.6947999999993,
      "v": 112
    },
    {
      "midi": 67,
      "hit": false,
      "t": 11760.853099999997,
      "d": 615.9411666666656,
      "v": 90
    },
    {
      "midi": 72,
      "hit": false,
      "t": 11760.853099999997,
      "d": 1507.2442666666648,
      "v": 90
    },
    {
      "midi": 65,
      "hit": false,
      "t": 11768.099466666663,
      "d": 789.8539666666657,
      "v": 54
    },
    {
      "midi": 60,
      "hit": false,
      "t": 11768.099466666663,
      "d": 1833.330766666666,
      "v": 66
    },
    {
      "midi": 41,
      "hit": false,
      "t": 12181.142366666667,
      "d": 1905.7944333333344,
      "v": 112
    },
    {
      "midi": 67,
      "hit": false,
      "t": 12601.431633333328,
      "d": 999.9986000000008,
      "v": 90
    },
    {
      "midi": 67,
      "hit": false,
      "t": 12615.924366666666,
      "d": 630.4339,
      "v": 112
    },
    {
      "midi": 69,
      "hit": false,
      "t": 13050.706366666662,
      "d": 659.419366666667,
      "v": 67
    },
    {
      "midi": 65,
      "hit": false,
      "t": 13050.706366666665,
      "d": 630.4339000000018,
      "v": 112
    },
    {
      "midi": 64,
      "hit": false,
      "t": 13485.488366666666,
      "d": 608.6948000000011,
      "v": 112
    },
    {
      "midi": 72,
      "hit": false,
      "t": 13507.227466666662,
      "d": 369.5647000000008,
      "v": 67
    },
    {
      "midi": 35,
      "hit": false,
      "t": 13920.270366666668,
      "d": 695.6511999999984,
      "v": 112
    },
    {
      "midi": 63,
      "hit": false,
      "t": 13920.270366666668,
      "d": 1652.1715999999979,
      "v": 112
    },
    {
      "midi": 57,
      "hit": false,
      "t": 13920.270366666668,
      "d": 1999.997199999998,
      "v": 112
    },
    {
      "midi": 54,
      "hit": false,
      "t": 13934.763099999996,
      "d": 956.5203999999994,
      "v": 69
    },
    {
      "midi": 47,
      "hit": false,
      "t": 13934.763099999996,
      "d": 971.013133333332,
      "v": 64
    },
    {
      "midi": 57,
      "hit": false,
      "t": 13949.255833333329,
      "d": 1210.1432333333323,
      "v": 60
    },
    {
      "midi": 42,
      "hit": false,
      "t": 14355.052366666667,
      "d": 652.1729999999989,
      "v": 112
    },
    {
      "midi": 47,
      "hit": false,
      "t": 14789.834366666666,
      "d": 579.7093333333323,
      "v": 112
    },
    {
      "midi": 47,
      "hit": false,
      "t": 15224.616366666662,
      "d": 1702.8961666666655,
      "v": 66
    },
    {
      "midi": 42,
      "hit": false,
      "t": 15224.616366666665,
      "d": 630.4339,
      "v": 112
    },
    {
      "midi": 54,
      "hit": false,
      "t": 15239.109099999994,
      "d": 1688.403433333333,
      "v": 62
    },
    {
      "midi": 57,
      "hit": false,
      "t": 15239.109099999994,
      "d": 1688.403433333333,
      "v": 86
    },
    {
      "midi": 63,
      "hit": false,
      "t": 15253.601833333327,
      "d": 2007.243566666668,
      "v": 76
    },
    {
      "midi": 69,
      "hit": false,
      "t": 15659.398366666665,
      "d": 1934.7799000000014,
      "v": 112
    },
    {
      "midi": 63,
      "hit": false,
      "t": 15659.398366666665,
      "d": 1978.2581000000027,
      "v": 112
    },
    {
      "midi": 35,
      "hit": false,
      "t": 15659.398366666665,
      "d": 2050.7217666666693,
      "v": 112
    },
    {
      "midi": 54,
      "hit": false,
      "t": 16978.237099999995,
      "d": 369.564699999999,
      "v": 69
    },
    {
      "midi": 40,
      "hit": false,
      "t": 17391.279999999995,
      "d": 1130.4331999999995,
      "v": 70
    },
    {
      "midi": 68,
      "hit": false,
      "t": 17398.526366666665,
      "d": 1094.201366666668,
      "v": 112
    },
    {
      "midi": 76,
      "hit": false,
      "t": 17398.526366666665,
      "d": 1115.940466666667,
      "v": 112
    },
    {
      "midi": 47,
      "hit": false,
      "t": 17398.526366666665,
      "d": 3514.4878333333363,
      "v": 112
    },
    {
      "midi": 40,
      "hit": false,
      "t": 17398.526366666665,
      "d": 3586.951500000003,
      "v": 112
    },
    {
      "midi": 52,
      "hit": false,
      "t": 17398.526366666665,
      "d": 3608.6906000000017,
      "v": 112
    },
    {
      "midi": 68,
      "hit": false,
      "t": 17405.772733333328,
      "d": 3355.067766666667,
      "v": 67
    },
    {
      "midi": 64,
      "hit": false,
      "t": 17413.019099999994,
      "d": 1217.3896000000022,
      "v": 66
    },
    {
      "midi": 56,
      "hit": false,
      "t": 17420.26546666666,
      "d": 1231.8823333333348,
      "v": 73
    },
    {
      "midi": 59,
      "hit": false,
      "t": 17427.511833333327,
      "d": 1202.8968666666697,
      "v": 64
    },
    {
      "midi": 62,
      "hit": false,
      "t": 18268.090366666667,
      "d": 1072.4622666666655,
      "v": 112
    },
    {
      "midi": 65,
      "hit": false,
      "t": 18268.090366666667,
      "d": 1094.2013666666644,
      "v": 112
    },
    {
      "midi": 74,
      "hit": false,
      "t": 18268.090366666667,
      "d": 1188.4041333333298,
      "v": 112
    },
    {
      "midi": 40,
      "hit": false,
      "t": 18695.625999999997,
      "d": 1028.9840666666641,
      "v": 48
    },
    {
      "midi": 56,
      "hit": false,
      "t": 18724.61146666666,
      "d": 963.7667666666639,
      "v": 66
    },
    {
      "midi": 64,
      "hit": false,
      "t": 18724.61146666666,
      "d": 1746.374366666667,
      "v": 54
    },
    {
      "midi": 59,
      "hit": false,
      "t": 18731.857833333328,
      "d": 1949.272633333334,
      "v": 57
    },
    {
      "midi": 60,
      "hit": false,
      "t": 19137.654366666666,
      "d": 1115.940466666667,
      "v": 112
    },
    {
      "midi": 72,
      "hit": false,
      "t": 19137.654366666666,
      "d": 1137.6795666666658,
      "v": 112
    },
    {
      "midi": 64,
      "hit": false,
      "t": 19137.654366666666,
      "d": 1166.665033333331,
      "v": 112
    },
    {
      "midi": 52,
      "hit": false,
      "t": 20007.21836666666,
      "d": 340.57923333333383,
      "v": 79
    },
    {
      "midi": 59,
      "hit": false,
      "t": 20007.218366666664,
      "d": 826.0858000000007,
      "v": 112
    },
    {
      "midi": 62,
      "hit": false,
      "t": 20007.218366666664,
      "d": 826.0858000000007,
      "v": 112
    },
    {
      "midi": 71,
      "hit": false,
      "t": 20007.218366666664,
      "d": 826.0858000000007,
      "v": 112
    },
    {
      "midi": 56,
      "hit": false,
      "t": 20217.362999999994,
      "d": 572.462966666666,
      "v": 90
    },
    {
      "midi": 52,
      "hit": false,
      "t": 20666.63773333333,
      "d": 195.6518999999971,
      "v": 73
    },
    {
      "midi": 45,
      "hit": false,
      "t": 20876.782366666666,
      "d": 985.5058666666664,
      "v": 112
    },
    {
      "midi": 33,
      "hit": false,
      "t": 20876.782366666666,
      "d": 1043.4768000000004,
      "v": 112
    },
    {
      "midi": 52,
      "hit": false,
      "t": 20891.27509999999,
      "d": 956.5203999999976,
      "v": 69
    },
    {
      "midi": 45,
      "hit": false,
      "t": 20891.27509999999,
      "d": 971.0131333333302,
      "v": 64
    },
    {
      "midi": 57,
      "hit": false,
      "t": 20898.521466666658,
      "d": 971.0131333333302,
      "v": 86
    },
    {
      "midi": 60,
      "hit": false,
      "t": 20913.01419999999,
      "d": 971.0131333333302,
      "v": 81
    },
    {
      "midi": 64,
      "hit": false,
      "t": 21094.173366666666,
      "d": 202.89826666666704,
      "v": 112
    },
    {
      "midi": 72,
      "hit": false,
      "t": 21094.173366666666,
      "d": 202.89826666666704,
      "v": 112
    },
    {
      "midi": 64,
      "hit": false,
      "t": 21311.564366666666,
      "d": 297.10103333333245,
      "v": 112
    },
    {
      "midi": 72,
      "hit": false,
      "t": 21311.564366666666,
      "d": 297.10103333333245,
      "v": 112
    },
    {
      "midi": 60,
      "hit": false,
      "t": 21528.955366666665,
      "d": 202.89826666666704,
      "v": 112
    },
    {
      "midi": 69,
      "hit": false,
      "t": 21528.955366666665,
      "d": 202.89826666666704,
      "v": 112
    },
    {
      "midi": 60,
      "hit": false,
      "t": 21746.346366666665,
      "d": 826.0858000000007,
      "v": 112
    },
    {
      "midi": 64,
      "hit": false,
      "t": 21746.346366666665,
      "d": 826.0858000000007,
      "v": 112
    },
    {
      "midi": 69,
      "hit": false,
      "t": 21746.346366666665,
      "d": 971.0131333333338,
      "v": 112
    },
    {
      "midi": 72,
      "hit": false,
      "t": 21746.346366666665,
      "d": 971.0131333333338,
      "v": 112
    },
    {
      "midi": 57,
      "hit": false,
      "t": 21746.346366666665,
      "d": 1007.2449666666689,
      "v": 112
    },
    {
      "midi": 45,
      "hit": false,
      "t": 22181.128366666653,
      "d": 1673.9107000000004,
      "v": 66
    },
    {
      "midi": 52,
      "hit": false,
      "t": 22195.621099999986,
      "d": 1659.4179666666678,
      "v": 62
    },
    {
      "midi": 57,
      "hit": false,
      "t": 22195.621099999986,
      "d": 1659.4179666666678,
      "v": 86
    },
    {
      "midi": 60,
      "hit": false,
      "t": 22210.11383333332,
      "d": 2065.214500000002,
      "v": 76
    },
    {
      "midi": 45,
      "hit": false,
      "t": 22615.910366666667,
      "d": 579.7093333333323,
      "v": 112
    },
    {
      "midi": 60,
      "hit": false,
      "t": 22615.910366666667,
      "d": 818.8394333333308,
      "v": 112
    },
    {
      "midi": 64,
      "hit": false,
      "t": 22615.910366666667,
      "d": 1007.2449666666653,
      "v": 112
    },
    {
      "midi": 52,
      "hit": false,
      "t": 23050.692366666666,
      "d": 579.7093333333323,
      "v": 112
    },
    {
      "midi": 69,
      "hit": false,
      "t": 23485.474366666665,
      "d": 594.2020666666649,
      "v": 112
    },
    {
      "midi": 60,
      "hit": false,
      "t": 23485.474366666665,
      "d": 934.7812999999987,
      "v": 112
    },
    {
      "midi": 67,
      "hit": false,
      "t": 23920.256366666665,
      "d": 521.7383999999984,
      "v": 112
    },
    {
      "midi": 52,
      "hit": false,
      "t": 23941.995466666653,
      "d": 355.0719666666664,
      "v": 69
    },
    {
      "midi": 53,
      "hit": false,
      "t": 24347.791999999987,
      "d": 1260.8678,
      "v": 70
    },
    {
      "midi": 41,
      "hit": false,
      "t": 24355.038366666664,
      "d": 594.2020666666649,
      "v": 112
    },
    {
      "midi": 69,
      "hit": false,
      "t": 24362.28473333332,
      "d": 1246.3750666666674,
      "v": 67
    },
    {
      "midi": 67,
      "hit": false,
      "t": 24369.531099999986,
      "d": 1239.1287000000011,
      "v": 66
    },
    {
      "midi": 60,
      "hit": false,
      "t": 24376.777466666652,
      "d": 1231.8823333333348,
      "v": 73
    },
    {
      "midi": 65,
      "hit": false,
      "t": 24572.429366666664,
      "d": 202.89826666666704,
      "v": 112
    },
    {
      "midi": 57,
      "hit": false,
      "t": 24572.429366666664,
      "d": 355.0719666666664,
      "v": 112
    },
    {
      "midi": 60,
      "hit": false,
      "t": 24572.429366666664,
      "d": 391.30379999999786,
      "v": 112
    },
    {
      "midi": 65,
      "hit": false,
      "t": 24789.820366666663,
      "d": 202.8982666666634,
      "v": 112
    },
    {
      "midi": 48,
      "hit": false,
      "t": 24789.820366666663,
      "d": 579.7093333333287,
      "v": 112
    },
    {
      "midi": 65,
      "hit": false,
      "t": 25007.21136666666,
      "d": 202.89826666666704,
      "v": 112
    },
    {
      "midi": 53,
      "hit": false,
      "t": 25224.60236666666,
      "d": 594.2020666666649,
      "v": 112
    },
    {
      "midi": 60,
      "hit": false,
      "t": 25224.60236666666,
      "d": 782.6075999999994,
      "v": 112
    },
    {
      "midi": 65,
      "hit": false,
      "t": 25224.60236666666,
      "d": 782.6075999999994,
      "v": 112
    },
    {
      "midi": 57,
      "hit": false,
      "t": 25224.60236666666,
      "d": 818.8394333333345,
      "v": 112
    },
    {
      "midi": 53,
      "hit": false,
      "t": 25652.137999999988,
      "d": 1992.7508333333317,
      "v": 48
    },
    {
      "midi": 41,
      "hit": false,
      "t": 25659.384366666658,
      "d": 2478.2574000000022,
      "v": 112
    },
    {
      "midi": 67,
      "hit": false,
      "t": 25673.877099999987,
      "d": 615.9411666666674,
      "v": 90
    },
    {
      "midi": 72,
      "hit": false,
      "t": 25673.877099999987,
      "d": 1507.2442666666684,
      "v": 90
    },
    {
      "midi": 65,
      "hit": false,
      "t": 25681.123466666653,
      "d": 789.8539666666693,
      "v": 54
    },
    {
      "midi": 60,
      "hit": false,
      "t": 25681.123466666653,
      "d": 1833.330766666666,
      "v": 66
    },
    {
      "midi": 60,
      "hit": false,
      "t": 26094.16636666666,
      "d": 826.0858000000007,
      "v": 112
    },
    {
      "midi": 65,
      "hit": false,
      "t": 26094.16636666666,
      "d": 826.0858000000007,
      "v": 112
    },
    {
      "midi": 69,
      "hit": false,
      "t": 26094.16636666666,
      "d": 826.0858000000007,
      "v": 112
    },
    {
      "midi": 67,
      "hit": false,
      "t": 26514.455633333324,
      "d": 999.9985999999953,
      "v": 90
    },
    {
      "midi": 69,
      "hit": false,
      "t": 26963.730366666656,
      "d": 659.4193666666652,
      "v": 67
    },
    {
      "midi": 60,
      "hit": false,
      "t": 26963.730366666663,
      "d": 1007.2449666666653,
      "v": 112
    },
    {
      "midi": 65,
      "hit": false,
      "t": 26963.730366666663,
      "d": 1007.2449666666653,
      "v": 112
    },
    {
      "midi": 69,
      "hit": false,
      "t": 26963.730366666663,
      "d": 1007.2449666666653,
      "v": 112
    },
    {
      "midi": 72,
      "hit": false,
      "t": 26963.730366666663,
      "d": 1021.7376999999979,
      "v": 112
    },
    {
      "midi": 72,
      "hit": false,
      "t": 27420.251466666654,
      "d": 369.564699999999,
      "v": 67
    },
    {
      "midi": 43,
      "hit": false,
      "t": 27833.29436666666,
      "d": 557.9702333333335,
      "v": 112
    },
    {
      "midi": 59,
      "hit": false,
      "t": 27833.29436666666,
      "d": 760.8685000000005,
      "v": 112
    },
    {
      "midi": 59,
      "hit": false,
      "t": 27847.787099999987,
      "d": 956.5203999999976,
      "v": 69
    },
    {
      "midi": 43,
      "hit": false,
      "t": 27847.787099999987,
      "d": 971.0131333333302,
      "v": 64
    },
    {
      "midi": 62,
      "hit": false,
      "t": 27855.033466666653,
      "d": 971.0131333333302,
      "v": 86
    },
    {
      "midi": 67,
      "hit": false,
      "t": 27869.526199999986,
      "d": 971.0131333333302,
      "v": 81
    },
    {
      "midi": 50,
      "hit": false,
      "t": 28268.07636666666,
      "d": 557.9702333333371,
      "v": 112
    },
    {
      "midi": 71,
      "hit": false,
      "t": 28702.858366666664,
      "d": 202.89826666666704,
      "v": 112
    },
    {
      "midi": 67,
      "hit": false,
      "t": 28702.858366666664,
      "d": 318.8401333333313,
      "v": 112
    },
    {
      "midi": 62,
      "hit": false,
      "t": 28702.858366666664,
      "d": 391.30379999999786,
      "v": 112
    },
    {
      "midi": 59,
      "hit": false,
      "t": 28702.858366666664,
      "d": 594.2020666666613,
      "v": 112
    },
    {
      "midi": 71,
      "hit": false,
      "t": 28920.249366666663,
      "d": 202.8982666666634,
      "v": 112
    },
    {
      "midi": 43,
      "hit": false,
      "t": 29137.64036666665,
      "d": 1673.9107000000004,
      "v": 66
    },
    {
      "midi": 71,
      "hit": false,
      "t": 29137.64036666666,
      "d": 202.89826666666704,
      "v": 112
    },
    {
      "midi": 50,
      "hit": false,
      "t": 29137.64036666666,
      "d": 543.4775000000009,
      "v": 112
    },
    {
      "midi": 59,
      "hit": false,
      "t": 29152.13309999998,
      "d": 1659.4179666666678,
      "v": 62
    },
    {
      "midi": 62,
      "hit": false,
      "t": 29152.13309999998,
      "d": 1659.4179666666678,
      "v": 86
    },
    {
      "midi": 67,
      "hit": false,
      "t": 29166.625833333313,
      "d": 2065.214500000002,
      "v": 76
    },
    {
      "midi": 67,
      "hit": false,
      "t": 29355.03136666666,
      "d": 1362.3169333333353,
      "v": 112
    },
    {
      "midi": 71,
      "hit": false,
      "t": 29355.03136666666,
      "d": 1362.3169333333353,
      "v": 112
    },
    {
      "midi": 62,
      "hit": false,
      "t": 29355.03136666666,
      "d": 1413.041500000003,
      "v": 112
    },
    {
      "midi": 43,
      "hit": false,
      "t": 29572.42236666666,
      "d": 557.9702333333371,
      "v": 112
    },
    {
      "midi": 50,
      "hit": false,
      "t": 30007.20436666666,
      "d": 652.1729999999989,
      "v": 112
    },
    {
      "midi": 71,
      "hit": false,
      "t": 30876.768366666663,
      "d": 202.89826666666704,
      "v": 112
    },
    {
      "midi": 59,
      "hit": false,
      "t": 30898.507466666648,
      "d": 355.0719666666664,
      "v": 69
    },
    {
      "midi": 71,
      "hit": false,
      "t": 31094.159366666663,
      "d": 318.84013333333496,
      "v": 112
    },
    {
      "midi": 40,
      "hit": false,
      "t": 31304.303999999982,
      "d": 1130.4331999999995,
      "v": 70
    },
    {
      "midi": 59,
      "hit": false,
      "t": 31311.550366666663,
      "d": 115.94186666666792,
      "v": 112
    },
    {
      "midi": 62,
      "hit": false,
      "t": 31311.550366666663,
      "d": 202.89826666666704,
      "v": 112
    },
    {
      "midi": 55,
      "hit": false,
      "t": 31311.550366666663,
      "d": 333.33286666666754,
      "v": 112
    },
    {
      "midi": 40,
      "hit": false,
      "t": 31311.550366666663,
      "d": 615.9411666666674,
      "v": 112
    },
    {
      "midi": 64,
      "hit": false,
      "t": 31318.796733333314,
      "d": 3355.067766666667,
      "v": 67
    },
    {
      "midi": 59,
      "hit": false,
      "t": 31326.04309999998,
      "d": 1217.3896000000022,
      "v": 66
    },
    {
      "midi": 52,
      "hit": false,
      "t": 31333.289466666647,
      "d": 1231.8823333333348,
      "v": 73
    },
    {
      "midi": 55,
      "hit": false,
      "t": 31340.535833333313,
      "d": 1202.8968666666697,
      "v": 64
    },
    {
      "midi": 64,
      "hit": false,
      "t": 31347.782199999998,
      "d": 173.91279999999824,
      "v": 112
    },
    {
      "midi": 64,
      "hit": false,
      "t": 31528.941366666662,
      "d": 202.89826666666704,
      "v": 112
    },
    {
      "midi": 64,
      "hit": false,
      "t": 31746.332366666662,
      "d": 202.89826666666704,
      "v": 112
    },
    {
      "midi": 47,
      "hit": false,
      "t": 31746.332366666662,
      "d": 543.4775000000045,
      "v": 112
    },
    {
      "midi": 62,
      "hit": false,
      "t": 31963.72336666666,
      "d": 1021.7377000000088,
      "v": 112
    },
    {
      "midi": 59,
      "hit": false,
      "t": 31963.72336666666,
      "d": 1057.9695333333402,
      "v": 112
    },
    {
      "midi": 64,
      "hit": false,
      "t": 31999.955199999997,
      "d": 985.5058666666737,
      "v": 112
    },
    {
      "midi": 55,
      "hit": false,
      "t": 32181.114366666665,
      "d": 543.4775000000045,
      "v": 112
    },
    {
      "midi": 40,
      "hit": false,
      "t": 32608.649999999983,
      "d": 1028.9840666666605,
      "v": 48
    },
    {
      "midi": 47,
      "hit": false,
      "t": 32615.896366666668,
      "d": 594.2020666666649,
      "v": 112
    },
    {
      "midi": 52,
      "hit": false,
      "t": 32637.63546666665,
      "d": 963.7667666666639,
      "v": 66
    },
    {
      "midi": 59,
      "hit": false,
      "t": 32637.63546666665,
      "d": 1746.374366666667,
      "v": 54
    },
    {
      "midi": 55,
      "hit": false,
      "t": 32644.881833333315,
      "d": 1949.2726333333303,
      "v": 57
    },
    {
      "midi": 40,
      "hit": false,
      "t": 33050.67836666667,
      "d": 1101.4477333333343,
      "v": 112
    },
    {
      "midi": 67,
      "hit": false,
      "t": 33050.67836666667,
      "d": 1768.1134666666621,
      "v": 112
    },
    {
      "midi": 71,
      "hit": false,
      "t": 33050.67836666667,
      "d": 1768.1134666666621,
      "v": 112
    },
    {
      "midi": 74,
      "hit": false,
      "t": 33050.67836666667,
      "d": 1768.1134666666621,
      "v": 112
    },
    {
      "midi": 79,
      "hit": false,
      "t": 33050.67836666667,
      "d": 1768.1134666666621,
      "v": 112
    },
    {
      "midi": 50,
      "hit": false,
      "t": 33920.242366666644,
      "d": 340.57923333333747,
      "v": 79
    },
    {
      "midi": 55,
      "hit": false,
      "t": 33920.242366666665,
      "d": 826.0858000000007,
      "v": 112
    },
    {
      "midi": 52,
      "hit": false,
      "t": 34130.38699999998,
      "d": 572.462966666666,
      "v": 90
    },
    {
      "midi": 50,
      "hit": false,
      "t": 34579.66173333331,
      "d": 195.6519000000044,
      "v": 73
    },
    {
      "midi": 53,
      "hit": false,
      "t": 34782.55999999998,
      "d": 833.332166666667,
      "v": 70
    },
    {
      "midi": 41,
      "hit": false,
      "t": 34789.806366666664,
      "d": 3405.7923333333383,
      "v": 112
    },
    {
      "midi": 65,
      "hit": false,
      "t": 34797.052733333316,
      "d": 2362.315533333327,
      "v": 67
    },
    {
      "midi": 72,
      "hit": false,
      "t": 34804.29909999998,
      "d": 1978.258099999999,
      "v": 66
    },
    {
      "midi": 60,
      "hit": false,
      "t": 34811.54546666665,
      "d": 804.3467000000019,
      "v": 73
    },
    {
      "midi": 48,
      "hit": false,
      "t": 35224.58836666666,
      "d": 3181.1549666666688,
      "v": 112
    },
    {
      "midi": 53,
      "hit": false,
      "t": 35441.97936666667,
      "d": 297.1010333333397,
      "v": 112
    },
    {
      "midi": 67,
      "hit": false,
      "t": 35659.37036666665,
      "d": 405.7965333333341,
      "v": 67
    },
    {
      "midi": 69,
      "hit": false,
      "t": 35659.37036666667,
      "d": 202.89826666667068,
      "v": 112
    },
    {
      "midi": 60,
      "hit": false,
      "t": 35659.37036666667,
      "d": 318.8401333333386,
      "v": 112
    },
    {
      "midi": 65,
      "hit": false,
      "t": 35659.37036666667,
      "d": 333.3328666666712,
      "v": 112
    },
    {
      "midi": 69,
      "hit": false,
      "t": 35876.76136666667,
      "d": 202.89826666667068,
      "v": 112
    },
    {
      "midi": 53,
      "hit": false,
      "t": 36086.90599999998,
      "d": 1992.7508333333317,
      "v": 48
    },
    {
      "midi": 69,
      "hit": false,
      "t": 36094.152366666676,
      "d": 202.8982666666634,
      "v": 112
    },
    {
      "midi": 69,
      "hit": false,
      "t": 36108.64509999998,
      "d": 999.998599999999,
      "v": 70
    },
    {
      "midi": 60,
      "hit": false,
      "t": 36115.891466666646,
      "d": 1833.330766666666,
      "v": 66
    },
    {
      "midi": 60,
      "hit": false,
      "t": 36311.54336666667,
      "d": 1449.2733333333308,
      "v": 112
    },
    {
      "midi": 65,
      "hit": false,
      "t": 36311.54336666667,
      "d": 1449.2733333333308,
      "v": 112
    },
    {
      "midi": 69,
      "hit": false,
      "t": 36311.54336666667,
      "d": 1449.2733333333308,
      "v": 112
    },
    {
      "midi": 72,
      "hit": false,
      "t": 36949.22363333331,
      "d": 1188.4041333333298,
      "v": 70
    },
    {
      "midi": 67,
      "hit": false,
      "t": 37398.498366666645,
      "d": 760.8684999999969,
      "v": 67
    },
    {
      "midi": 69,
      "hit": false,
      "t": 37833.28036666667,
      "d": 202.8982666666634,
      "v": 112
    },
    {
      "midi": 69,
      "hit": false,
      "t": 37855.01946666664,
      "d": 369.56469999999536,
      "v": 67
    },
    {
      "midi": 69,
      "hit": false,
      "t": 38050.67136666667,
      "d": 202.8982666666634,
      "v": 112
    },
    {
      "midi": 69,
      "hit": false,
      "t": 38268.062366666665,
      "d": 413.0429000000004,
      "v": 112
    },
    {
      "midi": 57,
      "hit": false,
      "t": 38268.062366666665,
      "d": 543.4775000000009,
      "v": 112
    },
    {
      "midi": 63,
      "hit": false,
      "t": 38268.062366666665,
      "d": 543.4775000000009,
      "v": 112
    },
    {
      "midi": 42,
      "hit": false,
      "t": 38268.062366666665,
      "d": 1840.5771333333323,
      "v": 112
    },
    {
      "midi": 35,
      "hit": false,
      "t": 38268.062366666665,
      "d": 1862.3162333333312,
      "v": 112
    },
    {
      "midi": 54,
      "hit": false,
      "t": 38282.55509999997,
      "d": 956.5204000000012,
      "v": 69
    },
    {
      "midi": 47,
      "hit": false,
      "t": 38282.55509999997,
      "d": 971.0131333333338,
      "v": 64
    },
    {
      "midi": 57,
      "hit": false,
      "t": 38289.801466666635,
      "d": 971.0131333333338,
      "v": 86
    },
    {
      "midi": 63,
      "hit": false,
      "t": 38304.29419999997,
      "d": 971.0131333333338,
      "v": 81
    },
    {
      "midi": 69,
      "hit": false,
      "t": 38702.844366666664,
      "d": 202.89826666667068,
      "v": 112
    },
    {
      "midi": 69,
      "hit": false,
      "t": 38920.23536666667,
      "d": 202.8982666666634,
      "v": 112
    },
    {
      "midi": 63,
      "hit": false,
      "t": 39137.626366666664,
      "d": 1971.0117333333255,
      "v": 112
    },
    {
      "midi": 69,
      "hit": false,
      "t": 39137.626366666664,
      "d": 2014.4899333333233,
      "v": 112
    },
    {
      "midi": 57,
      "hit": false,
      "t": 39137.626366666664,
      "d": 2253.6200333333254,
      "v": 112
    },
    {
      "midi": 47,
      "hit": false,
      "t": 39572.408366666634,
      "d": 1673.9107000000004,
      "v": 66
    },
    {
      "midi": 54,
      "hit": false,
      "t": 39586.90109999997,
      "d": 1659.4179666666678,
      "v": 62
    },
    {
      "midi": 57,
      "hit": false,
      "t": 39586.90109999997,
      "d": 1659.4179666666678,
      "v": 86
    },
    {
      "midi": 63,
      "hit": false,
      "t": 39601.3938333333,
      "d": 2065.214500000002,
      "v": 76
    },
    {
      "midi": 47,
      "hit": false,
      "t": 40007.19036666666,
      "d": 557.9702333333335,
      "v": 112
    },
    {
      "midi": 42,
      "hit": false,
      "t": 40441.97236666666,
      "d": 615.9411666666638,
      "v": 112
    },
    {
      "midi": 35,
      "hit": false,
      "t": 40876.75436666666,
      "d": 1057.9695333333293,
      "v": 112
    },
    {
      "midi": 69,
      "hit": false,
      "t": 41311.53636666665,
      "d": 333.3328666666712,
      "v": 112
    },
    {
      "midi": 54,
      "hit": false,
      "t": 41333.27546666664,
      "d": 355.0719666666628,
      "v": 69
    },
    {
      "midi": 66,
      "hit": false,
      "t": 41528.927366666656,
      "d": 202.89826666667068,
      "v": 112
    },
    {
      "midi": 52,
      "hit": false,
      "t": 41746.31836666666,
      "d": 543.4775000000009,
      "v": 112
    },
    {
      "midi": 56,
      "hit": false,
      "t": 41746.31836666666,
      "d": 4471.008233333327,
      "v": 112
    },
    {
      "midi": 64,
      "hit": false,
      "t": 41746.31836666666,
      "d": 4528.979166666657,
      "v": 112
    },
    {
      "midi": 68,
      "hit": false,
      "t": 41746.31836666666,
      "d": 4543.47189999999,
      "v": 112
    },
    {
      "midi": 40,
      "hit": false,
      "t": 42181.10036666666,
      "d": 579.7093333333323,
      "v": 112
    },
    {
      "midi": 52,
      "hit": false,
      "t": 42615.88236666666,
      "d": 594.2020666666649,
      "v": 112
    },
    {
      "midi": 53,
      "hit": false,
      "t": 43050.66436666666,
      "d": 594.2020666666649,
      "v": 112
    },
    {
      "midi": 52,
      "hit": false,
      "t": 43485.446366666656,
      "d": 594.2020666666649,
      "v": 112
    },
    {
      "midi": 40,
      "hit": false,
      "t": 43920.228366666655,
      "d": 673.9121000000014,
      "v": 112
    },
    {
      "midi": 52,
      "hit": false,
      "t": 44355.010366666655,
      "d": 579.7093333333323,
      "v": 112
    },
    {
      "midi": 53,
      "hit": false,
      "t": 44789.792366666654,
      "d": 615.9411666666638,
      "v": 112
    },
    {
      "midi": 52,
      "hit": false,
      "t": 45224.57436666665,
      "d": 557.9702333333335,
      "v": 112
    },
    {
      "midi": 40,
      "hit": false,
      "t": 45659.35636666665,
      "d": 594.2020666666649,
      "v": 112
    },
    {
      "midi": 53,
      "hit": false,
      "t": 46094.13836666665,
      "d": 557.9702333333335,
      "v": 112
    },
    {
      "midi": 65,
      "hit": false,
      "t": 46094.13836666665,
      "d": 1021.7376999999979,
      "v": 112
    },
    {
      "midi": 62,
      "hit": false,
      "t": 46094.13836666665,
      "d": 1079.7086333333282,
      "v": 112
    },
    {
      "midi": 74,
      "hit": false,
      "t": 46094.13836666665,
      "d": 1101.447733333327,
      "v": 112
    },
    {
      "midi": 40,
      "hit": false,
      "t": 46528.92036666665,
      "d": 630.4338999999964,
      "v": 112
    },
    {
      "midi": 52,
      "hit": false,
      "t": 46963.70236666665,
      "d": 615.9411666666565,
      "v": 112
    },
    {
      "midi": 64,
      "hit": false,
      "t": 46963.70236666665,
      "d": 1007.244966666658,
      "v": 112
    },
    {
      "midi": 72,
      "hit": false,
      "t": 46963.70236666665,
      "d": 1007.244966666658,
      "v": 112
    },
    {
      "midi": 60,
      "hit": false,
      "t": 46963.70236666665,
      "d": 1043.4767999999895,
      "v": 112
    },
    {
      "midi": 40,
      "hit": false,
      "t": 47398.48436666664,
      "d": 594.2020666666649,
      "v": 112
    },
    {
      "midi": 50,
      "hit": false,
      "t": 47833.26636666664,
      "d": 594.2020666666649,
      "v": 112
    },
    {
      "midi": 59,
      "hit": false,
      "t": 47833.26636666664,
      "d": 855.0712666666659,
      "v": 112
    },
    {
      "midi": 62,
      "hit": false,
      "t": 47833.26636666664,
      "d": 855.0712666666659,
      "v": 112
    },
    {
      "midi": 71,
      "hit": false,
      "t": 47833.26636666664,
      "d": 913.0421999999962,
      "v": 112
    },
    {
      "midi": 40,
      "hit": false,
      "t": 48268.04836666664,
      "d": 413.0429000000004,
      "v": 112
    },
    {
      "midi": 33,
      "hit": false,
      "t": 48702.83036666664,
      "d": 594.2020666666649,
      "v": 112
    },
    {
      "midi": 52,
      "hit": false,
      "t": 48717.323099999965,
      "d": 956.5204000000012,
      "v": 69
    },
    {
      "midi": 45,
      "hit": false,
      "t": 48717.323099999965,
      "d": 971.0131333333338,
      "v": 64
    },
    {
      "midi": 57,
      "hit": false,
      "t": 48731.8158333333,
      "d": 1210.143233333336,
      "v": 60
    },
    {
      "midi": 72,
      "hit": false,
      "t": 49137.61236666664,
      "d": 413.0429000000004,
      "v": 112
    },
    {
      "midi": 60,
      "hit": false,
      "t": 49137.61236666664,
      "d": 543.4775000000009,
      "v": 112
    },
    {
      "midi": 64,
      "hit": false,
      "t": 49137.61236666664,
      "d": 543.4775000000009,
      "v": 112
    },
    {
      "midi": 69,
      "hit": false,
      "t": 49137.61236666664,
      "d": 543.4775000000009,
      "v": 112
    },
    {
      "midi": 45,
      "hit": false,
      "t": 49137.61236666664,
      "d": 557.9702333333335,
      "v": 112
    },
    {
      "midi": 72,
      "hit": false,
      "t": 49572.39436666664,
      "d": 413.0429000000004,
      "v": 112
    },
    {
      "midi": 52,
      "hit": false,
      "t": 49572.39436666664,
      "d": 543.4775000000009,
      "v": 112
    },
    {
      "midi": 45,
      "hit": false,
      "t": 50007.17636666663,
      "d": 1702.8961666666655,
      "v": 66
    },
    {
      "midi": 72,
      "hit": false,
      "t": 50007.17636666664,
      "d": 413.0429000000004,
      "v": 112
    },
    {
      "midi": 57,
      "hit": false,
      "t": 50007.17636666664,
      "d": 1471.0124333333297,
      "v": 112
    },
    {
      "midi": 52,
      "hit": false,
      "t": 50021.66909999996,
      "d": 1688.403433333333,
      "v": 62
    },
    {
      "midi": 57,
      "hit": false,
      "t": 50021.66909999996,
      "d": 1688.403433333333,
      "v": 86
    },
    {
      "midi": 60,
      "hit": false,
      "t": 50036.161833333295,
      "d": 2007.2435666666643,
      "v": 76
    },
    {
      "midi": 69,
      "hit": false,
      "t": 50441.95836666664,
      "d": 826.0858000000007,
      "v": 112
    },
    {
      "midi": 64,
      "hit": false,
      "t": 50441.95836666664,
      "d": 971.0131333333338,
      "v": 112
    },
    {
      "midi": 72,
      "hit": false,
      "t": 50441.95836666664,
      "d": 971.0131333333338,
      "v": 112
    },
    {
      "midi": 60,
      "hit": false,
      "t": 50441.95836666664,
      "d": 985.5058666666664,
      "v": 112
    },
    {
      "midi": 69,
      "hit": false,
      "t": 51311.522366666635,
      "d": 413.0429000000004,
      "v": 112
    },
    {
      "midi": 45,
      "hit": false,
      "t": 51311.522366666635,
      "d": 934.7812999999951,
      "v": 112
    },
    {
      "midi": 67,
      "hit": false,
      "t": 51746.304366666634,
      "d": 557.9702333333262,
      "v": 112
    },
    {
      "midi": 52,
      "hit": false,
      "t": 51760.79709999996,
      "d": 369.56470000000263,
      "v": 69
    },
    {
      "midi": 41,
      "hit": false,
      "t": 52173.83999999996,
      "d": 1130.4331999999995,
      "v": 70
    },
    {
      "midi": 48,
      "hit": false,
      "t": 52181.086366666634,
      "d": 3594.1978666666546,
      "v": 112
    },
    {
      "midi": 41,
      "hit": false,
      "t": 52181.086366666634,
      "d": 3615.9369666666535,
      "v": 112
    },
    {
      "midi": 60,
      "hit": false,
      "t": 52195.57909999996,
      "d": 1173.9113999999972,
      "v": 67
    },
    {
      "midi": 57,
      "hit": false,
      "t": 52202.825466666625,
      "d": 1231.8823333333276,
      "v": 73
    },
    {
      "midi": 57,
      "hit": false,
      "t": 52398.47736666663,
      "d": 202.8982666666634,
      "v": 112
    },
    {
      "midi": 60,
      "hit": false,
      "t": 52398.47736666663,
      "d": 202.8982666666634,
      "v": 112
    },
    {
      "midi": 65,
      "hit": false,
      "t": 52398.47736666663,
      "d": 202.8982666666634,
      "v": 112
    },
    {
      "midi": 65,
      "hit": false,
      "t": 52615.868366666626,
      "d": 202.8982666666634,
      "v": 112
    },
    {
      "midi": 65,
      "hit": false,
      "t": 52833.25936666662,
      "d": 202.8982666666634,
      "v": 112
    },
    {
      "midi": 57,
      "hit": false,
      "t": 53050.65036666662,
      "d": 826.0858000000007,
      "v": 112
    },
    {
      "midi": 60,
      "hit": false,
      "t": 53050.65036666662,
      "d": 826.0858000000007,
      "v": 112
    },
    {
      "midi": 65,
      "hit": false,
      "t": 53050.65036666662,
      "d": 826.0858000000007,
      "v": 112
    },
    {
      "midi": 41,
      "hit": false,
      "t": 53478.18599999995,
      "d": 1594.200666666664,
      "v": 48
    },
    {
      "midi": 57,
      "hit": false,
      "t": 53507.171466666616,
      "d": 818.8394333333345,
      "v": 66
    },
    {
      "midi": 65,
      "hit": false,
      "t": 53507.171466666616,
      "d": 1920.2871666666615,
      "v": 57
    },
    {
      "midi": 60,
      "hit": false,
      "t": 53514.41783333328,
      "d": 746.3757666666716,
      "v": 57
    },
    {
      "midi": 69,
      "hit": false,
      "t": 53920.214366666616,
      "d": 1652.1716000000015,
      "v": 112
    },
    {
      "midi": 72,
      "hit": false,
      "t": 53920.214366666616,
      "d": 1652.1716000000015,
      "v": 112
    },
    {
      "midi": 77,
      "hit": false,
      "t": 53920.214366666616,
      "d": 1652.1716000000015,
      "v": 112
    },
    {
      "midi": 81,
      "hit": false,
      "t": 53920.214366666616,
      "d": 1652.1716000000015,
      "v": 112
    },
    {
      "midi": 60,
      "hit": false,
      "t": 54369.48909999995,
      "d": 398.5501666666678,
      "v": 64
    },
    {
      "midi": 57,
      "hit": false,
      "t": 54789.778366666615,
      "d": 420.28926666666666,
      "v": 79
    },
    {
      "midi": 53,
      "hit": false,
      "t": 55231.80673333328,
      "d": 318.8401333333313,
      "v": 73
    },
    {
      "midi": 43,
      "hit": false,
      "t": 55652.09599999995,
      "d": 1260.8678,
      "v": 70
    },
    {
      "midi": 43,
      "hit": false,
      "t": 55659.34236666662,
      "d": 543.4775000000009,
      "v": 112
    },
    {
      "midi": 59,
      "hit": false,
      "t": 55666.58873333328,
      "d": 1246.3750666666674,
      "v": 67
    },
    {
      "midi": 57,
      "hit": false,
      "t": 55673.835099999946,
      "d": 1239.1287000000011,
      "v": 66
    },
    {
      "midi": 50,
      "hit": false,
      "t": 55681.08146666661,
      "d": 1231.8823333333348,
      "v": 73
    },
    {
      "midi": 50,
      "hit": false,
      "t": 56094.12436666662,
      "d": 521.7384000000093,
      "v": 112
    },
    {
      "midi": 59,
      "hit": false,
      "t": 56311.51536666662,
      "d": 391.3038000000088,
      "v": 112
    },
    {
      "midi": 71,
      "hit": false,
      "t": 56528.906366666626,
      "d": 202.89826666667068,
      "v": 112
    },
    {
      "midi": 67,
      "hit": false,
      "t": 56528.906366666626,
      "d": 333.3328666666712,
      "v": 112
    },
    {
      "midi": 62,
      "hit": false,
      "t": 56528.906366666626,
      "d": 355.07196666667005,
      "v": 112
    },
    {
      "midi": 55,
      "hit": false,
      "t": 56528.906366666626,
      "d": 2384.0546333333186,
      "v": 112
    },
    {
      "midi": 71,
      "hit": false,
      "t": 56746.29736666663,
      "d": 202.8982666666634,
      "v": 112
    },
    {
      "midi": 43,
      "hit": false,
      "t": 56956.441999999945,
      "d": 1992.750833333339,
      "v": 48
    },
    {
      "midi": 71,
      "hit": false,
      "t": 56963.688366666625,
      "d": 202.8982666666634,
      "v": 112
    },
    {
      "midi": 57,
      "hit": false,
      "t": 56978.18109999994,
      "d": 615.941166666671,
      "v": 90
    },
    {
      "midi": 62,
      "hit": false,
      "t": 56978.18109999994,
      "d": 1507.2442666666684,
      "v": 90
    },
    {
      "midi": 55,
      "hit": false,
      "t": 56985.42746666661,
      "d": 789.8539666666693,
      "v": 54
    },
    {
      "midi": 50,
      "hit": false,
      "t": 56985.42746666661,
      "d": 1833.3307666666733,
      "v": 66
    },
    {
      "midi": 62,
      "hit": false,
      "t": 57181.07936666662,
      "d": 623.1875333333301,
      "v": 112
    },
    {
      "midi": 67,
      "hit": false,
      "t": 57181.07936666662,
      "d": 623.1875333333301,
      "v": 112
    },
    {
      "midi": 71,
      "hit": false,
      "t": 57181.07936666662,
      "d": 623.1875333333301,
      "v": 112
    },
    {
      "midi": 57,
      "hit": false,
      "t": 57818.75963333328,
      "d": 999.9986000000063,
      "v": 90
    },
    {
      "midi": 71,
      "hit": false,
      "t": 57833.25236666662,
      "d": 1028.9840666666641,
      "v": 112
    },
    {
      "midi": 62,
      "hit": false,
      "t": 57833.25236666662,
      "d": 1210.1432333333287,
      "v": 112
    },
    {
      "midi": 67,
      "hit": false,
      "t": 57833.25236666662,
      "d": 1246.3750666666601,
      "v": 112
    },
    {
      "midi": 59,
      "hit": false,
      "t": 58268.03436666661,
      "d": 659.4193666666761,
      "v": 67
    },
    {
      "midi": 62,
      "hit": false,
      "t": 58724.555466666614,
      "d": 369.56470000000263,
      "v": 67
    },
    {
      "midi": 71,
      "hit": false,
      "t": 58920.20736666661,
      "d": 333.3328666666639,
      "v": 112
    },
    {
      "midi": 62,
      "hit": false,
      "t": 59137.59836666661,
      "d": 282.6082999999999,
      "v": 112
    },
    {
      "midi": 59,
      "hit": false,
      "t": 59137.59836666661,
      "d": 333.3328666666639,
      "v": 112
    },
    {
      "midi": 69,
      "hit": false,
      "t": 59137.59836666661,
      "d": 355.0719666666628,
      "v": 112
    },
    {
      "midi": 40,
      "hit": false,
      "t": 59137.59836666661,
      "d": 1673.9107000000004,
      "v": 112
    },
    {
      "midi": 55,
      "hit": false,
      "t": 59137.59836666661,
      "d": 1826.0843999999997,
      "v": 112
    },
    {
      "midi": 47,
      "hit": false,
      "t": 59137.59836666661,
      "d": 1884.05533333333,
      "v": 112
    },
    {
      "midi": 52,
      "hit": false,
      "t": 59152.09109999995,
      "d": 956.5204000000012,
      "v": 69
    },
    {
      "midi": 40,
      "hit": false,
      "t": 59152.09109999995,
      "d": 971.0131333333338,
      "v": 64
    },
    {
      "midi": 55,
      "hit": false,
      "t": 59159.33746666661,
      "d": 971.0131333333338,
      "v": 86
    },
    {
      "midi": 62,
      "hit": false,
      "t": 59173.830199999946,
      "d": 971.0131333333338,
      "v": 81
    },
    {
      "midi": 67,
      "hit": false,
      "t": 59354.98936666661,
      "d": 297.10103333333245,
      "v": 112
    },
    {
      "midi": 64,
      "hit": false,
      "t": 59572.380366666606,
      "d": 355.07196666667005,
      "v": 112
    },
    {
      "midi": 67,
      "hit": false,
      "t": 59789.77136666661,
      "d": 2681.1556666666584,
      "v": 112
    },
    {
      "midi": 62,
      "hit": false,
      "t": 59789.77136666661,
      "d": 2702.8947666666572,
      "v": 112
    },
    {
      "midi": 59,
      "hit": false,
      "t": 59789.77136666661,
      "d": 2717.38749999999,
      "v": 112
    },
    {
      "midi": 40,
      "hit": false,
      "t": 60441.94436666661,
      "d": 1673.9107000000004,
      "v": 66
    },
    {
      "midi": 52,
      "hit": false,
      "t": 60456.437099999945,
      "d": 1659.4179666666678,
      "v": 62
    },
    {
      "midi": 55,
      "hit": false,
      "t": 60456.437099999945,
      "d": 1659.4179666666678,
      "v": 86
    },
    {
      "midi": 62,
      "hit": false,
      "t": 60470.92983333328,
      "d": 2065.214500000002,
      "v": 76
    },
    {
      "midi": 40,
      "hit": false,
      "t": 60876.726366666604,
      "d": 1007.2449666666653,
      "v": 112
    },
    {
      "midi": 55,
      "hit": false,
      "t": 61746.2903666666,
      "d": 594.2020666666649,
      "v": 112
    },
    {
      "midi": 40,
      "hit": false,
      "t": 62181.0723666666,
      "d": 413.0429000000004,
      "v": 112
    },
    {
      "midi": 52,
      "hit": false,
      "t": 62202.811466666615,
      "d": 355.0719666666628,
      "v": 69
    },
    {
      "midi": 41,
      "hit": false,
      "t": 62615.8543666666,
      "d": 3572.4587666666557,
      "v": 112
    },
    {
      "midi": 57,
      "hit": false,
      "t": 62630.34709999995,
      "d": 956.5204000000012,
      "v": 69
    },
    {
      "midi": 41,
      "hit": false,
      "t": 62630.34709999995,
      "d": 971.0131333333338,
      "v": 64
    },
    {
      "midi": 60,
      "hit": false,
      "t": 62644.83983333328,
      "d": 1210.143233333336,
      "v": 60
    },
    {
      "midi": 48,
      "hit": false,
      "t": 63050.6363666666,
      "d": 3224.6331666666665,
      "v": 112
    },
    {
      "midi": 69,
      "hit": false,
      "t": 63485.4183666666,
      "d": 202.8982666666634,
      "v": 112
    },
    {
      "midi": 60,
      "hit": false,
      "t": 63485.4183666666,
      "d": 282.6082999999926,
      "v": 112
    },
    {
      "midi": 65,
      "hit": false,
      "t": 63485.4183666666,
      "d": 297.1010333333252,
      "v": 112
    },
    {
      "midi": 57,
      "hit": false,
      "t": 63485.4183666666,
      "d": 369.56469999999536,
      "v": 112
    },
    {
      "midi": 69,
      "hit": false,
      "t": 63702.809366666595,
      "d": 202.8982666666634,
      "v": 112
    },
    {
      "midi": 69,
      "hit": false,
      "t": 63920.20036666659,
      "d": 413.0429000000004,
      "v": 112
    },
    {
      "midi": 41,
      "hit": false,
      "t": 63920.20036666661,
      "d": 1702.8961666666582,
      "v": 66
    },
    {
      "midi": 57,
      "hit": false,
      "t": 63934.693099999946,
      "d": 1688.4034333333257,
      "v": 62
    },
    {
      "midi": 60,
      "hit": false,
      "t": 63934.693099999946,
      "d": 1688.4034333333257,
      "v": 86
    },
    {
      "midi": 65,
      "hit": false,
      "t": 63949.18583333328,
      "d": 2007.2435666666715,
      "v": 76
    },
    {
      "midi": 57,
      "hit": false,
      "t": 64354.98236666659,
      "d": 1652.1716000000015,
      "v": 112
    },
    {
      "midi": 65,
      "hit": false,
      "t": 64354.98236666659,
      "d": 1840.5771333333396,
      "v": 112
    },
    {
      "midi": 69,
      "hit": false,
      "t": 64354.98236666659,
      "d": 1840.5771333333396,
      "v": 112
    },
    {
      "midi": 60,
      "hit": false,
      "t": 64354.98236666659,
      "d": 1862.3162333333457,
      "v": 112
    },
    {
      "midi": 57,
      "hit": false,
      "t": 65673.82109999994,
      "d": 369.56470000000263,
      "v": 69
    },
    {
      "midi": 47,
      "hit": false,
      "t": 66086.86399999994,
      "d": 1130.433200000014,
      "v": 70
    },
    {
      "midi": 35,
      "hit": false,
      "t": 66094.11036666659,
      "d": 413.0429000000149,
      "v": 112
    },
    {
      "midi": 57,
      "hit": false,
      "t": 66094.11036666659,
      "d": 1137.6795666667022,
      "v": 112
    },
    {
      "midi": 59,
      "hit": false,
      "t": 66108.60309999995,
      "d": 1217.3896000000095,
      "v": 60
    },
    {
      "midi": 54,
      "hit": false,
      "t": 66115.84946666662,
      "d": 1231.882333333342,
      "v": 73
    },
    {
      "midi": 57,
      "hit": false,
      "t": 66123.0958333333,
      "d": 1202.8968666666624,
      "v": 64
    },
    {
      "midi": 42,
      "hit": false,
      "t": 66528.89236666661,
      "d": 499.9993000000104,
      "v": 112
    },
    {
      "midi": 47,
      "hit": false,
      "t": 66963.67436666662,
      "d": 2478.257400000017,
      "v": 112
    },
    {
      "midi": 63,
      "hit": false,
      "t": 67181.06536666662,
      "d": 202.89826666667068,
      "v": 112
    },
    {
      "midi": 47,
      "hit": false,
      "t": 67391.20999999996,
      "d": 1507.2442666666757,
      "v": 48
    },
    {
      "midi": 63,
      "hit": false,
      "t": 67398.45636666662,
      "d": 202.89826666667068,
      "v": 112
    },
    {
      "midi": 54,
      "hit": false,
      "t": 67420.19546666663,
      "d": 818.8394333333417,
      "v": 66
    },
    {
      "midi": 63,
      "hit": false,
      "t": 67420.19546666663,
      "d": 2021.7363000000187,
      "v": 54
    },
    {
      "midi": 66,
      "hit": false,
      "t": 67420.19546666663,
      "d": 2036.2290333333513,
      "v": 57
    },
    {
      "midi": 57,
      "hit": false,
      "t": 67427.4418333333,
      "d": 1101.4477333333343,
      "v": 57
    },
    {
      "midi": 63,
      "hit": false,
      "t": 67615.84736666663,
      "d": 202.89826666667068,
      "v": 112
    },
    {
      "midi": 63,
      "hit": false,
      "t": 67833.23836666663,
      "d": 1137.679566666673,
      "v": 112
    },
    {
      "midi": 57,
      "hit": false,
      "t": 67833.23836666663,
      "d": 1152.1723000000056,
      "v": 112
    },
    {
      "midi": 51,
      "hit": false,
      "t": 68282.51309999997,
      "d": 1231.8823333333567,
      "v": 64
    },
    {
      "midi": 54,
      "hit": false,
      "t": 68702.80236666664,
      "d": 702.8975666666665,
      "v": 79
    },
    {
      "midi": 63,
      "hit": false,
      "t": 69137.58436666663,
      "d": 202.89826666667068,
      "v": 112
    },
    {
      "midi": 47,
      "hit": false,
      "t": 69144.8307333333,
      "d": 318.8401333333459,
      "v": 73
    },
    {
      "midi": 63,
      "hit": false,
      "t": 69354.97536666664,
      "d": 202.89826666665613,
      "v": 112
    },
    {
      "midi": 40,
      "hit": false,
      "t": 69565.12,
      "d": 1304.346000000005,
      "v": 70
    },
    {
      "midi": 52,
      "hit": false,
      "t": 69572.36636666663,
      "d": 579.7093333333469,
      "v": 112
    },
    {
      "midi": 56,
      "hit": false,
      "t": 69572.36636666663,
      "d": 3797.0961333333544,
      "v": 112
    },
    {
      "midi": 59,
      "hit": false,
      "t": 69572.36636666663,
      "d": 4021.7335000000166,
      "v": 112
    },
    {
      "midi": 64,
      "hit": false,
      "t": 69572.36636666663,
      "d": 4043.472600000023,
      "v": 112
    },
    {
      "midi": 59,
      "hit": false,
      "t": 69594.10546666666,
      "d": 1231.882333333342,
      "v": 73
    },
    {
      "midi": 64,
      "hit": false,
      "t": 69594.10546666666,
      "d": 1275.3605333333398,
      "v": 64
    },
    {
      "midi": 40,
      "hit": false,
      "t": 70007.14836666663,
      "d": 594.2020666666795,
      "v": 112
    },
    {
      "midi": 52,
      "hit": false,
      "t": 70441.93036666664,
      "d": 557.9702333333407,
      "v": 112
    },
    {
      "midi": 40,
      "hit": false,
      "t": 70869.466,
      "d": 1652.1716000000015,
      "v": 48
    },
    {
      "midi": 53,
      "hit": false,
      "t": 70876.71236666664,
      "d": 615.941166666671,
      "v": 112
    },
    {
      "midi": 56,
      "hit": false,
      "t": 70898.45146666667,
      "d": 1623.1861333333363,
      "v": 66
    },
    {
      "midi": 64,
      "hit": false,
      "t": 70898.45146666667,
      "d": 1623.1861333333363,
      "v": 57
    },
    {
      "midi": 59,
      "hit": false,
      "t": 70905.69783333334,
      "d": 1615.9397666666628,
      "v": 57
    },
    {
      "midi": 68,
      "hit": false,
      "t": 70934.6833,
      "d": 2108.6926999999996,
      "v": 60
    },
    {
      "midi": 52,
      "hit": false,
      "t": 71311.49436666665,
      "d": 543.4774999999936,
      "v": 112
    },
    {
      "midi": 40,
      "hit": false,
      "t": 71746.27636666664,
      "d": 673.9121000000014,
      "v": 112
    },
    {
      "midi": 52,
      "hit": false,
      "t": 72181.05836666665,
      "d": 579.7093333333323,
      "v": 112
    },
    {
      "midi": 56,
      "hit": false,
      "t": 72608.594,
      "d": 398.5501666666678,
      "v": 65
    },
    {
      "midi": 53,
      "hit": false,
      "t": 72615.84036666664,
      "d": 557.9702333333407,
      "v": 112
    },
    {
      "midi": 52,
      "hit": false,
      "t": 73050.62236666665,
      "d": 579.7093333333323,
      "v": 112
    },
    {
      "midi": 56,
      "hit": false,
      "t": 73065.11510000001,
      "d": 746.3757666666788,
      "v": 69
    },
    {
      "midi": 40,
      "hit": false,
      "t": 73065.11510000001,
      "d": 760.8685000000114,
      "v": 64
    },
    {
      "midi": 59,
      "hit": false,
      "t": 73072.36146666668,
      "d": 760.8685000000114,
      "v": 86
    },
    {
      "midi": 64,
      "hit": false,
      "t": 73086.85420000002,
      "d": 804.3467000000092,
      "v": 81
    },
    {
      "midi": 68,
      "hit": false,
      "t": 73485.40436666664,
      "d": 413.0429000000004,
      "v": 112
    },
    {
      "midi": 40,
      "hit": false,
      "t": 73485.40436666664,
      "d": 615.941166666671,
      "v": 112
    },
    {
      "midi": 64,
      "hit": false,
      "t": 73920.18636666665,
      "d": 543.4774999999936,
      "v": 112
    },
    {
      "midi": 59,
      "hit": false,
      "t": 73920.18636666665,
      "d": 594.2020666666649,
      "v": 112
    },
    {
      "midi": 68,
      "hit": false,
      "t": 73920.18636666665,
      "d": 630.4339000000036,
      "v": 112
    },
    {
      "midi": 50,
      "hit": false,
      "t": 73920.18636666665,
      "d": 1021.7377000000124,
      "v": 112
    },
    {
      "midi": 38,
      "hit": false,
      "t": 73920.18636666665,
      "d": 1101.4477333333489,
      "v": 112
    },
    {
      "midi": 56,
      "hit": false,
      "t": 73934.67910000002,
      "d": 746.3757666666788,
      "v": 69
    },
    {
      "midi": 38,
      "hit": false,
      "t": 73934.67910000002,
      "d": 760.8685000000114,
      "v": 64
    },
    {
      "midi": 59,
      "hit": false,
      "t": 73941.9254666667,
      "d": 760.8685000000114,
      "v": 86
    },
    {
      "midi": 64,
      "hit": false,
      "t": 73956.41820000003,
      "d": 804.3467000000092,
      "v": 81
    },
    {
      "midi": 69,
      "hit": false,
      "t": 74354.96836666664,
      "d": 413.0429000000149,
      "v": 112
    },
    {
      "midi": 64,
      "hit": false,
      "t": 74789.75036666666,
      "d": 521.738400000002,
      "v": 112
    },
    {
      "midi": 69,
      "hit": false,
      "t": 74789.75036666666,
      "d": 521.738400000002,
      "v": 112
    },
    {
      "midi": 59,
      "hit": false,
      "t": 74789.75036666666,
      "d": 543.4775000000081,
      "v": 112
    },
    {
      "midi": 49,
      "hit": false,
      "t": 74789.75036666666,
      "d": 1021.7377000000124,
      "v": 112
    },
    {
      "midi": 37,
      "hit": false,
      "t": 74789.75036666666,
      "d": 1101.4477333333489,
      "v": 112
    },
    {
      "midi": 52,
      "hit": false,
      "t": 74804.24310000004,
      "d": 746.3757666666788,
      "v": 69
    },
    {
      "midi": 49,
      "hit": false,
      "t": 74804.24310000004,
      "d": 760.8685000000114,
      "v": 64
    },
    {
      "midi": 57,
      "hit": false,
      "t": 74811.48946666671,
      "d": 760.8685000000114,
      "v": 86
    },
    {
      "midi": 61,
      "hit": false,
      "t": 74825.98220000004,
      "d": 804.3467000000092,
      "v": 81
    },
    {
      "midi": 71,
      "hit": false,
      "t": 75224.53236666667,
      "d": 413.0429000000004,
      "v": 112
    },
    {
      "midi": 68,
      "hit": false,
      "t": 75659.31436666667,
      "d": 521.738400000002,
      "v": 112
    },
    {
      "midi": 64,
      "hit": false,
      "t": 75659.31436666667,
      "d": 557.9702333333407,
      "v": 112
    },
    {
      "midi": 71,
      "hit": false,
      "t": 75659.31436666667,
      "d": 557.9702333333407,
      "v": 112
    },
    {
      "midi": 59,
      "hit": false,
      "t": 75659.31436666667,
      "d": 579.7093333333469,
      "v": 112
    },
    {
      "midi": 35,
      "hit": false,
      "t": 75659.31436666667,
      "d": 913.0422000000108,
      "v": 112
    },
    {
      "midi": 47,
      "hit": false,
      "t": 75659.31436666667,
      "d": 913.0422000000108,
      "v": 112
    },
    {
      "midi": 56,
      "hit": false,
      "t": 75673.80710000005,
      "d": 746.3757666666788,
      "v": 69
    },
    {
      "midi": 35,
      "hit": false,
      "t": 75673.80710000005,
      "d": 760.8685000000114,
      "v": 64
    },
    {
      "midi": 59,
      "hit": false,
      "t": 75681.05346666672,
      "d": 760.8685000000114,
      "v": 86
    },
    {
      "midi": 64,
      "hit": false,
      "t": 75695.54620000006,
      "d": 804.3467000000092,
      "v": 81
    },
    {
      "midi": 73,
      "hit": false,
      "t": 76094.09636666668,
      "d": 413.0429000000004,
      "v": 112
    },
    {
      "midi": 45,
      "hit": false,
      "t": 76521.63200000007,
      "d": 833.3321666666889,
      "v": 70
    },
    {
      "midi": 45,
      "hit": false,
      "t": 76528.87836666669,
      "d": 565.2165999999852,
      "v": 112
    },
    {
      "midi": 33,
      "hit": false,
      "t": 76528.87836666669,
      "d": 623.1875333333155,
      "v": 112
    },
    {
      "midi": 61,
      "hit": false,
      "t": 76528.87836666669,
      "d": 775.3612333333149,
      "v": 112
    },
    {
      "midi": 64,
      "hit": false,
      "t": 76528.87836666669,
      "d": 775.3612333333149,
      "v": 112
    },
    {
      "midi": 73,
      "hit": false,
      "t": 76528.87836666669,
      "d": 775.3612333333149,
      "v": 112
    },
    {
      "midi": 69,
      "hit": false,
      "t": 76528.87836666669,
      "d": 797.100333333321,
      "v": 112
    },
    {
      "midi": 57,
      "hit": false,
      "t": 76536.1247333334,
      "d": 1992.7508333333826,
      "v": 67
    },
    {
      "midi": 64,
      "hit": false,
      "t": 76543.37110000008,
      "d": 1978.2581000000355,
      "v": 66
    },
    {
      "midi": 52,
      "hit": false,
      "t": 76550.61746666675,
      "d": 804.3467000000092,
      "v": 73
    },
    {
      "midi": 52,
      "hit": false,
      "t": 76963.66036666668,
      "d": 601.4484333333239,
      "v": 112
    },
    {
      "midi": 69,
      "hit": false,
      "t": 77398.44236666667,
      "d": 413.0429000000004,
      "v": 112
    },
    {
      "midi": 64,
      "hit": false,
      "t": 77398.44236666667,
      "d": 485.5065666666778,
      "v": 112
    },
    {
      "midi": 73,
      "hit": false,
      "t": 77398.44236666667,
      "d": 543.4775000000081,
      "v": 112
    },
    {
      "midi": 76,
      "hit": false,
      "t": 77398.44236666667,
      "d": 543.4775000000081,
      "v": 112
    },
    {
      "midi": 61,
      "hit": false,
      "t": 77398.44236666667,
      "d": 992.7522333333472,
      "v": 112
    },
    {
      "midi": 59,
      "hit": false,
      "t": 77398.44236666676,
      "d": 405.7965333333268,
      "v": 67
    },
    {
      "midi": 45,
      "hit": false,
      "t": 77825.97800000009,
      "d": 1992.7508333333826,
      "v": 48
    },
    {
      "midi": 69,
      "hit": false,
      "t": 77833.22436666668,
      "d": 202.89826666667068,
      "v": 112
    },
    {
      "midi": 61,
      "hit": false,
      "t": 77847.7171000001,
      "d": 999.9986000000354,
      "v": 70
    },
    {
      "midi": 52,
      "hit": false,
      "t": 77854.96346666677,
      "d": 1833.3307666666951,
      "v": 66
    },
    {
      "midi": 69,
      "hit": false,
      "t": 78050.61536666668,
      "d": 579.7093333333323,
      "v": 112
    },
    {
      "midi": 64,
      "hit": false,
      "t": 78050.61536666668,
      "d": 739.1294000000053,
      "v": 112
    },
    {
      "midi": 71,
      "hit": false,
      "t": 78086.84720000002,
      "d": 681.1584666666604,
      "v": 112
    },
    {
      "midi": 45,
      "hit": false,
      "t": 78268.00636666668,
      "d": 543.4775000000081,
      "v": 112
    },
    {
      "midi": 59,
      "hit": false,
      "t": 78688.29563333346,
      "d": 999.9986000000063,
      "v": 70
    },
    {
      "midi": 69,
      "hit": false,
      "t": 78702.78836666667,
      "d": 202.89826666668523,
      "v": 112
    },
    {
      "midi": 52,
      "hit": false,
      "t": 78702.78836666667,
      "d": 623.1875333333592,
      "v": 112
    },
    {
      "midi": 64,
      "hit": false,
      "t": 78920.17936666669,
      "d": 347.8255999999965,
      "v": 112
    },
    {
      "midi": 69,
      "hit": false,
      "t": 78920.17936666669,
      "d": 369.56470000000263,
      "v": 112
    },
    {
      "midi": 71,
      "hit": false,
      "t": 78956.41120000003,
      "d": 521.738400000002,
      "v": 112
    },
    {
      "midi": 61,
      "hit": false,
      "t": 79137.5703666668,
      "d": 659.4193666666688,
      "v": 67
    },
    {
      "midi": 64,
      "hit": false,
      "t": 79354.9613666667,
      "d": 463.7674666666717,
      "v": 112
    },
    {
      "midi": 69,
      "hit": false,
      "t": 79354.9613666667,
      "d": 521.738400000002,
      "v": 112
    },
    {
      "midi": 73,
      "hit": false,
      "t": 79354.9613666667,
      "d": 543.4775000000081,
      "v": 112
    },
    {
      "midi": 64,
      "hit": false,
      "t": 79594.0914666668,
      "d": 369.5647000000172,
      "v": 67
    },
    {
      "midi": 45,
      "hit": false,
      "t": 79999.88800000015,
      "d": 1130.433200000014,
      "v": 70
    },
    {
      "midi": 61,
      "hit": false,
      "t": 80007.13436666671,
      "d": 65.21730000000389,
      "v": 112
    },
    {
      "midi": 45,
      "hit": false,
      "t": 80007.13436666671,
      "d": 992.7522333333327,
      "v": 112
    },
    {
      "midi": 33,
      "hit": false,
      "t": 80007.13436666671,
      "d": 1086.9550000000017,
      "v": 112
    },
    {
      "midi": 64,
      "hit": false,
      "t": 80007.13436666671,
      "d": 1202.8968666666624,
      "v": 112
    },
    {
      "midi": 56,
      "hit": false,
      "t": 80007.13436666671,
      "d": 1239.1287000000011,
      "v": 112
    },
    {
      "midi": 56,
      "hit": false,
      "t": 80021.62710000016,
      "d": 1173.9114000000118,
      "v": 67
    },
    {
      "midi": 52,
      "hit": false,
      "t": 80028.87346666683,
      "d": 1231.882333333342,
      "v": 73
    },
    {
      "midi": 52,
      "hit": false,
      "t": 80876.69836666671,
      "d": 1065.2159000000102,
      "v": 112
    },
    {
      "midi": 45,
      "hit": false,
      "t": 81304.23400000017,
      "d": 1594.2006666666857,
      "v": 48
    },
    {
      "midi": 76,
      "hit": false,
      "t": 81311.48036666671,
      "d": 333.3328666666639,
      "v": 112
    },
    {
      "midi": 52,
      "hit": false,
      "t": 81333.21946666684,
      "d": 818.8394333333417,
      "v": 66
    },
    {
      "midi": 57,
      "hit": false,
      "t": 81333.21946666684,
      "d": 1920.2871666666906,
      "v": 57
    },
    {
      "midi": 61,
      "hit": false,
      "t": 81333.21946666684,
      "d": 2007.243566666686,
      "v": 54
    },
    {
      "midi": 56,
      "hit": false,
      "t": 81340.46583333351,
      "d": 746.3757666666643,
      "v": 57
    },
    {
      "midi": 73,
      "hit": false,
      "t": 81528.87136666672,
      "d": 268.11556666666,
      "v": 112
    },
    {
      "midi": 74,
      "hit": false,
      "t": 81746.2623666667,
      "d": 202.89826666668523,
      "v": 112
    },
    {
      "midi": 45,
      "hit": false,
      "t": 81746.2623666667,
      "d": 521.7384000000166,
      "v": 112
    },
    {
      "midi": 68,
      "hit": false,
      "t": 81963.65336666672,
      "d": 521.7383999999875,
      "v": 112
    },
    {
      "midi": 73,
      "hit": false,
      "t": 81963.65336666672,
      "d": 521.7383999999875,
      "v": 112
    },
    {
      "midi": 76,
      "hit": false,
      "t": 81963.65336666672,
      "d": 579.7093333333178,
      "v": 112
    },
    {
      "midi": 52,
      "hit": false,
      "t": 82181.04436666673,
      "d": 565.2165999999706,
      "v": 112
    },
    {
      "midi": 56,
      "hit": false,
      "t": 82195.53710000018,
      "d": 398.5501666666678,
      "v": 64
    },
    {
      "midi": 74,
      "hit": false,
      "t": 82398.43536666672,
      "d": 623.1875333333155,
      "v": 112
    },
    {
      "midi": 57,
      "hit": false,
      "t": 82615.8263666667,
      "d": 1007.2449666666653,
      "v": 112
    },
    {
      "midi": 52,
      "hit": false,
      "t": 82615.82636666685,
      "d": 420.28926666667394,
      "v": 79
    },
    {
      "midi": 61,
      "hit": false,
      "t": 82833.2173666667,
      "d": 521.738400000002,
      "v": 112
    },
    {
      "midi": 73,
      "hit": false,
      "t": 82833.2173666667,
      "d": 543.4775000000081,
      "v": 112
    },
    {
      "midi": 68,
      "hit": false,
      "t": 82833.2173666667,
      "d": 565.2166000000143,
      "v": 112
    },
    {
      "midi": 49,
      "hit": false,
      "t": 83057.85473333353,
      "d": 318.8401333333313,
      "v": 73
    },
    {
      "midi": 45,
      "hit": false,
      "t": 83478.14400000019,
      "d": 1304.346000000005,
      "v": 70
    },
    {
      "midi": 62,
      "hit": false,
      "t": 83485.3903666667,
      "d": 521.738400000002,
      "v": 112
    },
    {
      "midi": 55,
      "hit": false,
      "t": 83485.3903666667,
      "d": 3586.9514999999956,
      "v": 112
    },
    {
      "midi": 59,
      "hit": false,
      "t": 83485.3903666667,
      "d": 3608.6906000000017,
      "v": 112
    },
    {
      "midi": 45,
      "hit": false,
      "t": 83485.3903666667,
      "d": 3644.9224333333405,
      "v": 112
    },
    {
      "midi": 62,
      "hit": false,
      "t": 83507.12946666685,
      "d": 1231.882333333342,
      "v": 73
    },
    {
      "midi": 67,
      "hit": false,
      "t": 83507.12946666685,
      "d": 1275.3605333333398,
      "v": 64
    },
    {
      "midi": 76,
      "hit": false,
      "t": 83920.17236666671,
      "d": 347.82559999998193,
      "v": 112
    },
    {
      "midi": 74,
      "hit": false,
      "t": 84137.5633666667,
      "d": 202.89826666665613,
      "v": 112
    },
    {
      "midi": 67,
      "hit": false,
      "t": 84354.95436666669,
      "d": 347.8255999999965,
      "v": 112
    },
    {
      "midi": 73,
      "hit": false,
      "t": 84354.95436666669,
      "d": 369.56470000000263,
      "v": 112
    },
    {
      "midi": 62,
      "hit": false,
      "t": 84354.95436666669,
      "d": 391.3038000000088,
      "v": 112
    },
    {
      "midi": 71,
      "hit": false,
      "t": 84572.34536666669,
      "d": 413.0429000000004,
      "v": 112
    },
    {
      "midi": 45,
      "hit": false,
      "t": 84782.4900000002,
      "d": 1652.1716000000015,
      "v": 48
    },
    {
      "midi": 59,
      "hit": false,
      "t": 84811.47546666686,
      "d": 1623.1861333333363,
      "v": 66
    },
    {
      "midi": 67,
      "hit": false,
      "t": 84811.47546666686,
      "d": 1623.1861333333363,
      "v": 57
    },
    {
      "midi": 62,
      "hit": false,
      "t": 84818.72183333353,
      "d": 1615.9397666666628,
      "v": 57
    },
    {
      "midi": 71,
      "hit": false,
      "t": 84847.7073000002,
      "d": 2108.6926999999996,
      "v": 60
    },
    {
      "midi": 71,
      "hit": false,
      "t": 85007.1273666667,
      "d": 717.3902999999991,
      "v": 112
    },
    {
      "midi": 62,
      "hit": false,
      "t": 85007.1273666667,
      "d": 739.1294000000053,
      "v": 112
    },
    {
      "midi": 67,
      "hit": false,
      "t": 85007.1273666667,
      "d": 739.1294000000053,
      "v": 112
    },
    {
      "midi": 76,
      "hit": false,
      "t": 85007.1273666667,
      "d": 797.1003333333356,
      "v": 112
    },
    {
      "midi": 74,
      "hit": false,
      "t": 85659.30036666669,
      "d": 391.3038000000088,
      "v": 112
    },
    {
      "midi": 62,
      "hit": false,
      "t": 85876.6913666667,
      "d": 413.0429000000004,
      "v": 112
    },
    {
      "midi": 67,
      "hit": false,
      "t": 85876.6913666667,
      "d": 413.0429000000004,
      "v": 112
    },
    {
      "midi": 73,
      "hit": false,
      "t": 85876.6913666667,
      "d": 565.2165999999997,
      "v": 112
    },
    {
      "midi": 62,
      "hit": false,
      "t": 86311.4733666667,
      "d": 739.1293999999907,
      "v": 112
    },
    {
      "midi": 67,
      "hit": false,
      "t": 86311.4733666667,
      "d": 739.1293999999907,
      "v": 112
    },
    {
      "midi": 71,
      "hit": false,
      "t": 86311.4733666667,
      "d": 797.1003333333356,
      "v": 112
    },
    {
      "midi": 59,
      "hit": false,
      "t": 86521.61800000019,
      "d": 398.5501666666678,
      "v": 65
    },
    {
      "midi": 33,
      "hit": false,
      "t": 86963.6463666667,
      "d": 579.7093333333469,
      "v": 112
    },
    {
      "midi": 57,
      "hit": false,
      "t": 86978.1391000002,
      "d": 956.5204000000085,
      "v": 69
    },
    {
      "midi": 45,
      "hit": false,
      "t": 86978.1391000002,
      "d": 971.0131333333411,
      "v": 64
    },
    {
      "midi": 62,
      "hit": false,
      "t": 86985.38546666688,
      "d": 971.0131333333411,
      "v": 86
    },
    {
      "midi": 66,
      "hit": false,
      "t": 86999.87820000021,
      "d": 971.0131333333411,
      "v": 81
    },
    {
      "midi": 69,
      "hit": false,
      "t": 87398.4283666667,
      "d": 311.5937666666723,
      "v": 112
    },
    {
      "midi": 66,
      "hit": false,
      "t": 87398.4283666667,
      "d": 347.82560000001104,
      "v": 112
    },
    {
      "midi": 74,
      "hit": false,
      "t": 87398.4283666667,
      "d": 347.82560000001104,
      "v": 112
    },
    {
      "midi": 45,
      "hit": false,
      "t": 87398.4283666667,
      "d": 565.2165999999997,
      "v": 112
    },
    {
      "midi": 73,
      "hit": false,
      "t": 87615.8193666667,
      "d": 369.56470000000263,
      "v": 112
    },
    {
      "midi": 71,
      "hit": false,
      "t": 87833.21036666671,
      "d": 311.5937666666723,
      "v": 112
    },
    {
      "midi": 57,
      "hit": false,
      "t": 87833.21036666671,
      "d": 775.361233333344,
      "v": 112
    },
    {
      "midi": 69,
      "hit": false,
      "t": 88050.60136666671,
      "d": 202.89826666667068,
      "v": 112
    },
    {
      "midi": 66,
      "hit": false,
      "t": 88267.99236666672,
      "d": 413.0429000000004,
      "v": 112
    },
    {
      "midi": 69,
      "hit": false,
      "t": 88267.99236666672,
      "d": 413.0429000000004,
      "v": 112
    },
    {
      "midi": 74,
      "hit": false,
      "t": 88267.99236666672,
      "d": 717.3903000000137,
      "v": 112
    },
    {
      "midi": 45,
      "hit": false,
      "t": 88267.99236666689,
      "d": 427.53563333333295,
      "v": 66
    },
    {
      "midi": 57,
      "hit": false,
      "t": 88282.48510000022,
      "d": 413.0429000000004,
      "v": 62
    },
    {
      "midi": 62,
      "hit": false,
      "t": 88282.48510000022,
      "d": 413.0429000000004,
      "v": 86
    },
    {
      "midi": 66,
      "hit": false,
      "t": 88296.97783333356,
      "d": 398.5501666666678,
      "v": 76
    },
    {
      "midi": 48,
      "hit": false,
      "t": 88702.77436666672,
      "d": 992.7522333333472,
      "v": 112
    },
    {
      "midi": 60,
      "hit": false,
      "t": 88702.77436666672,
      "d": 1007.2449666666798,
      "v": 112
    },
    {
      "midi": 65,
      "hit": false,
      "t": 88702.77436666672,
      "d": 1028.984066666686,
      "v": 112
    },
    {
      "midi": 72,
      "hit": false,
      "t": 88702.77436666672,
      "d": 1028.984066666686,
      "v": 112
    },
    {
      "midi": 69,
      "hit": false,
      "t": 88702.77436666672,
      "d": 1065.2159000000247,
      "v": 112
    },
    {
      "midi": 57,
      "hit": false,
      "t": 88702.77436666672,
      "d": 1086.9550000000309,
      "v": 112
    },
    {
      "midi": 41,
      "hit": false,
      "t": 88702.77436666672,
      "d": 1123.1868333333696,
      "v": 112
    },
    {
      "midi": 57,
      "hit": false,
      "t": 88717.26710000023,
      "d": 746.3757666666788,
      "v": 69
    },
    {
      "midi": 41,
      "hit": false,
      "t": 88717.26710000023,
      "d": 760.8685000000114,
      "v": 64
    },
    {
      "midi": 60,
      "hit": false,
      "t": 88724.5134666669,
      "d": 760.8685000000114,
      "v": 86
    },
    {
      "midi": 65,
      "hit": false,
      "t": 88739.00620000024,
      "d": 804.3467000000092,
      "v": 81
    },
    {
      "midi": 43,
      "hit": false,
      "t": 89572.33836666674,
      "d": 826.0858000000298,
      "v": 112
    },
    {
      "midi": 50,
      "hit": false,
      "t": 89572.33836666674,
      "d": 826.0858000000298,
      "v": 112
    },
    {
      "midi": 59,
      "hit": false,
      "t": 89572.33836666674,
      "d": 826.0858000000298,
      "v": 112
    },
    {
      "midi": 62,
      "hit": false,
      "t": 89572.33836666674,
      "d": 826.0858000000298,
      "v": 112
    },
    {
      "midi": 67,
      "hit": false,
      "t": 89572.33836666674,
      "d": 826.0858000000298,
      "v": 112
    },
    {
      "midi": 71,
      "hit": false,
      "t": 89572.33836666674,
      "d": 826.0858000000298,
      "v": 112
    },
    {
      "midi": 74,
      "hit": false,
      "t": 89572.33836666674,
      "d": 826.0858000000298,
      "v": 112
    },
    {
      "midi": 59,
      "hit": false,
      "t": 89586.83110000024,
      "d": 746.3757666666788,
      "v": 69
    },
    {
      "midi": 43,
      "hit": false,
      "t": 89586.83110000024,
      "d": 760.8685000000114,
      "v": 64
    },
    {
      "midi": 62,
      "hit": false,
      "t": 89594.07746666692,
      "d": 760.8685000000114,
      "v": 86
    },
    {
      "midi": 67,
      "hit": false,
      "t": 89608.57020000025,
      "d": 804.3467000000092,
      "v": 81
    },
    {
      "midi": 45,
      "hit": false,
      "t": 90434.65600000026,
      "d": 1260.8678000000218,
      "v": 70
    },
    {
      "midi": 45,
      "hit": false,
      "t": 90441.90236666676,
      "d": 521.738400000002,
      "v": 112
    },
    {
      "midi": 64,
      "hit": false,
      "t": 90441.90236666676,
      "d": 775.3612333333294,
      "v": 112
    },
    {
      "midi": 76,
      "hit": false,
      "t": 90441.90236666676,
      "d": 775.3612333333294,
      "v": 112
    },
    {
      "midi": 73,
      "hit": false,
      "t": 90441.90236666676,
      "d": 797.1003333333356,
      "v": 112
    },
    {
      "midi": 61,
      "hit": false,
      "t": 90449.1487333336,
      "d": 1246.3750666666892,
      "v": 67
    },
    {
      "midi": 59,
      "hit": false,
      "t": 90456.39510000027,
      "d": 1239.1287000000157,
      "v": 66
    },
    {
      "midi": 52,
      "hit": false,
      "t": 90463.64146666694,
      "d": 1231.882333333342,
      "v": 73
    },
    {
      "midi": 52,
      "hit": false,
      "t": 90876.68436666677,
      "d": 601.4484333333239,
      "v": 112
    },
    {
      "midi": 76,
      "hit": false,
      "t": 91311.46636666676,
      "d": 202.89826666667068,
      "v": 112
    },
    {
      "midi": 69,
      "hit": false,
      "t": 91311.46636666676,
      "d": 289.85466666666616,
      "v": 112
    },
    {
      "midi": 73,
      "hit": false,
      "t": 91311.46636666676,
      "d": 311.5937666666723,
      "v": 112
    },
    {
      "midi": 64,
      "hit": false,
      "t": 91311.46636666676,
      "d": 333.33286666667846,
      "v": 112
    },
    {
      "midi": 61,
      "hit": false,
      "t": 91311.46636666676,
      "d": 949.2740333333495,
      "v": 112
    },
    {
      "midi": 76,
      "hit": false,
      "t": 91528.85736666677,
      "d": 543.4775000000081,
      "v": 112
    },
    {
      "midi": 45,
      "hit": false,
      "t": 91739.00200000028,
      "d": 1992.7508333333535,
      "v": 48
    },
    {
      "midi": 59,
      "hit": false,
      "t": 91760.74110000029,
      "d": 615.941166666671,
      "v": 90
    },
    {
      "midi": 64,
      "hit": false,
      "t": 91760.74110000029,
      "d": 1507.2442666666757,
      "v": 90
    },
    {
      "midi": 57,
      "hit": false,
      "t": 91767.98746666696,
      "d": 789.853966666662,
      "v": 54
    },
    {
      "midi": 52,
      "hit": false,
      "t": 91767.98746666696,
      "d": 1833.330766666666,
      "v": 66
    },
    {
      "midi": 64,
      "hit": false,
      "t": 91963.63936666677,
      "d": 717.3903000000137,
      "v": 112
    },
    {
      "midi": 69,
      "hit": false,
      "t": 91963.63936666677,
      "d": 717.3903000000137,
      "v": 112
    },
    {
      "midi": 74,
      "hit": false,
      "t": 91963.63936666677,
      "d": 739.1294000000198,
      "v": 112
    },
    {
      "midi": 45,
      "hit": false,
      "t": 92181.03036666678,
      "d": 565.2166000000143,
      "v": 112
    },
    {
      "midi": 59,
      "hit": false,
      "t": 92601.31963333362,
      "d": 999.9986000000063,
      "v": 90
    },
    {
      "midi": 73,
      "hit": false,
      "t": 92615.81236666678,
      "d": 202.89826666667068,
      "v": 112
    },
    {
      "midi": 52,
      "hit": false,
      "t": 92615.81236666678,
      "d": 521.738400000002,
      "v": 112
    },
    {
      "midi": 69,
      "hit": false,
      "t": 92833.20336666678,
      "d": 333.3328666666639,
      "v": 112
    },
    {
      "midi": 64,
      "hit": false,
      "t": 92833.20336666678,
      "d": 369.56470000000263,
      "v": 112
    },
    {
      "midi": 74,
      "hit": false,
      "t": 92833.20336666678,
      "d": 565.2165999999997,
      "v": 112
    },
    {
      "midi": 61,
      "hit": false,
      "t": 93050.59436666679,
      "d": 543.4774999999936,
      "v": 112
    },
    {
      "midi": 61,
      "hit": false,
      "t": 93050.59436666696,
      "d": 659.4193666666688,
      "v": 67
    },
    {
      "midi": 64,
      "hit": false,
      "t": 93267.98536666679,
      "d": 543.4774999999936,
      "v": 112
    },
    {
      "midi": 69,
      "hit": false,
      "t": 93267.98536666679,
      "d": 543.4774999999936,
      "v": 112
    },
    {
      "midi": 73,
      "hit": false,
      "t": 93267.98536666679,
      "d": 543.4774999999936,
      "v": 112
    },
    {
      "midi": 76,
      "hit": false,
      "t": 93267.98536666679,
      "d": 543.4774999999936,
      "v": 112
    },
    {
      "midi": 52,
      "hit": false,
      "t": 93485.37636666678,
      "d": 521.738400000002,
      "v": 112
    },
    {
      "midi": 64,
      "hit": false,
      "t": 93507.11546666696,
      "d": 369.5647000000172,
      "v": 67
    },
    {
      "midi": 45,
      "hit": false,
      "t": 93920.15836666679,
      "d": 579.7093333333323,
      "v": 112
    },
    {
      "midi": 52,
      "hit": false,
      "t": 93934.65110000032,
      "d": 956.5204000000085,
      "v": 69
    },
    {
      "midi": 45,
      "hit": false,
      "t": 93934.65110000032,
      "d": 971.0131333333411,
      "v": 64
    },
    {
      "midi": 56,
      "hit": false,
      "t": 93941.897466667,
      "d": 971.0131333333411,
      "v": 86
    },
    {
      "midi": 61,
      "hit": false,
      "t": 93956.39020000033,
      "d": 971.0131333333411,
      "v": 81
    },
    {
      "midi": 76,
      "hit": false,
      "t": 94354.94036666678,
      "d": 202.89826666667068,
      "v": 112
    },
    {
      "midi": 73,
      "hit": false,
      "t": 94354.94036666678,
      "d": 311.5937666666723,
      "v": 112
    },
    {
      "midi": 68,
      "hit": false,
      "t": 94354.94036666678,
      "d": 333.33286666667846,
      "v": 112
    },
    {
      "midi": 52,
      "hit": false,
      "t": 94354.94036666678,
      "d": 579.7093333333469,
      "v": 112
    },
    {
      "midi": 78,
      "hit": false,
      "t": 94572.33136666678,
      "d": 775.361233333344,
      "v": 112
    },
    {
      "midi": 61,
      "hit": false,
      "t": 94789.72236666679,
      "d": 797.1003333333356,
      "v": 112
    },
    {
      "midi": 68,
      "hit": false,
      "t": 95224.50436666679,
      "d": 289.85466666666616,
      "v": 112
    },
    {
      "midi": 76,
      "hit": false,
      "t": 95224.50436666679,
      "d": 333.3328666666639,
      "v": 112
    },
    {
      "midi": 52,
      "hit": false,
      "t": 95238.99710000034,
      "d": 101.44913333334262,
      "v": 69
    },
    {
      "midi": 45,
      "hit": false,
      "t": 95238.99710000034,
      "d": 115.9418666666752,
      "v": 64
    },
    {
      "midi": 55,
      "hit": false,
      "t": 95246.24346666702,
      "d": 1391.3024000000005,
      "v": 86
    },
    {
      "midi": 61,
      "hit": false,
      "t": 95260.73620000035,
      "d": 65.21730000000389,
      "v": 81
    },
    {
      "midi": 73,
      "hit": false,
      "t": 95441.8953666668,
      "d": 202.89826666667068,
      "v": 112
    },
    {
      "midi": 68,
      "hit": false,
      "t": 95623.05453333346,
      "d": 1782.6062000000238,
      "v": 112
    },
    {
      "midi": 74,
      "hit": false,
      "t": 95659.2863666668,
      "d": 202.89826666667068,
      "v": 112
    },
    {
      "midi": 61,
      "hit": false,
      "t": 95659.2863666668,
      "d": 949.274033333335,
      "v": 112
    },
    {
      "midi": 45,
      "hit": false,
      "t": 95659.2863666668,
      "d": 1028.9840666666714,
      "v": 112
    },
    {
      "midi": 52,
      "hit": false,
      "t": 96528.8503666668,
      "d": 579.7093333333469,
      "v": 112
    },
    {
      "midi": 45,
      "hit": false,
      "t": 96963.6323666668,
      "d": 413.0429000000004,
      "v": 112
    },
    {
      "midi": 45,
      "hit": false,
      "t": 96963.63236666702,
      "d": 427.53563333333295,
      "v": 66
    },
    {
      "midi": 52,
      "hit": false,
      "t": 96978.12510000035,
      "d": 413.0429000000004,
      "v": 62
    },
    {
      "midi": 55,
      "hit": false,
      "t": 96978.12510000035,
      "d": 413.0429000000004,
      "v": 86
    },
    {
      "midi": 61,
      "hit": false,
      "t": 96992.61783333369,
      "d": 398.5501666666678,
      "v": 76
    },
    {
      "midi": 69,
      "hit": false,
      "t": 97398.41436666681,
      "d": 28.985466666679713,
      "v": 112
    },
    {
      "midi": 76,
      "hit": false,
      "t": 97398.41436666681,
      "d": 28.985466666679713,
      "v": 112
    },
    {
      "midi": 66,
      "hit": false,
      "t": 97398.41436666681,
      "d": 1398.5487666667032,
      "v": 112
    },
    {
      "midi": 45,
      "hit": false,
      "t": 97398.41436666681,
      "d": 1536.22973333337,
      "v": 112
    },
    {
      "midi": 54,
      "hit": false,
      "t": 97398.41436666681,
      "d": 1550.7224666667025,
      "v": 112
    },
    {
      "midi": 59,
      "hit": false,
      "t": 97398.41436666681,
      "d": 1594.2006666667003,
      "v": 112
    },
    {
      "midi": 57,
      "hit": false,
      "t": 97412.90710000036,
      "d": 956.5204000000085,
      "v": 69
    },
    {
      "midi": 45,
      "hit": false,
      "t": 97412.90710000036,
      "d": 971.0131333333411,
      "v": 64
    },
    {
      "midi": 59,
      "hit": false,
      "t": 97420.15346666703,
      "d": 971.0131333333411,
      "v": 86
    },
    {
      "midi": 66,
      "hit": false,
      "t": 97434.64620000037,
      "d": 971.0131333333411,
      "v": 81
    },
    {
      "midi": 74,
      "hit": false,
      "t": 97615.80536666683,
      "d": 623.1875333333446,
      "v": 112
    },
    {
      "midi": 73,
      "hit": false,
      "t": 98050.58736666683,
      "d": 579.7093333333469,
      "v": 112
    },
    {
      "midi": 71,
      "hit": false,
      "t": 98485.36936666684,
      "d": 565.2165999999997,
      "v": 112
    },
    {
      "midi": 57,
      "hit": false,
      "t": 98717.25310000038,
      "d": 101.44913333334262,
      "v": 69
    },
    {
      "midi": 45,
      "hit": false,
      "t": 98717.25310000038,
      "d": 115.9418666666752,
      "v": 64
    },
    {
      "midi": 59,
      "hit": false,
      "t": 98724.49946666705,
      "d": 94.20276666666905,
      "v": 86
    },
    {
      "midi": 65,
      "hit": false,
      "t": 98738.99220000039,
      "d": 1391.3024000000005,
      "v": 81
    },
    {
      "midi": 76,
      "hit": false,
      "t": 98920.15136666685,
      "d": 579.7093333333323,
      "v": 112
    },
    {
      "midi": 65,
      "hit": false,
      "t": 98920.15136666685,
      "d": 2094.199966666667,
      "v": 112
    },
    {
      "midi": 53,
      "hit": false,
      "t": 99137.54236666684,
      "d": 1862.3162333333457,
      "v": 112
    },
    {
      "midi": 59,
      "hit": false,
      "t": 99137.54236666684,
      "d": 1862.3162333333457,
      "v": 112
    },
    {
      "midi": 74,
      "hit": false,
      "t": 99354.93336666684,
      "d": 659.4193666666688,
      "v": 112
    },
    {
      "midi": 73,
      "hit": false,
      "t": 99789.71536666685,
      "d": 1050.723166666663,
      "v": 112
    },
    {
      "midi": 45,
      "hit": false,
      "t": 100441.88836666706,
      "d": 427.53563333333295,
      "v": 66
    },
    {
      "midi": 57,
      "hit": false,
      "t": 100456.38110000039,
      "d": 413.0429000000004,
      "v": 62
    },
    {
      "midi": 59,
      "hit": false,
      "t": 100456.38110000039,
      "d": 413.0429000000004,
      "v": 86
    },
    {
      "midi": 65,
      "hit": false,
      "t": 100470.87383333372,
      "d": 398.5501666666678,
      "v": 76
    },
    {
      "midi": 71,
      "hit": false,
      "t": 100659.27936666684,
      "d": 333.3328666666639,
      "v": 112
    },
    {
      "midi": 45,
      "hit": false,
      "t": 100869.42400000039,
      "d": 1304.346000000005,
      "v": 70
    },
    {
      "midi": 69,
      "hit": false,
      "t": 100876.67036666685,
      "d": 57.97093333333032,
      "v": 112
    },
    {
      "midi": 45,
      "hit": false,
      "t": 100876.67036666685,
      "d": 101.44913333332806,
      "v": 112
    },
    {
      "midi": 64,
      "hit": false,
      "t": 100876.67036666685,
      "d": 463.7674666666717,
      "v": 112
    },
    {
      "midi": 74,
      "hit": false,
      "t": 100876.67036666685,
      "d": 521.738400000002,
      "v": 112
    },
    {
      "midi": 61,
      "hit": false,
      "t": 100876.67036666685,
      "d": 543.4775000000081,
      "v": 112
    },
    {
      "midi": 52,
      "hit": false,
      "t": 100876.67036666685,
      "d": 3471.009633333364,
      "v": 112
    },
    {
      "midi": 57,
      "hit": false,
      "t": 100898.40946666706,
      "d": 1231.882333333342,
      "v": 73
    },
    {
      "midi": 61,
      "hit": false,
      "t": 100898.40946666706,
      "d": 1275.3605333333398,
      "v": 64
    },
    {
      "midi": 73,
      "hit": false,
      "t": 101311.45236666685,
      "d": 333.33286666667846,
      "v": 112
    },
    {
      "midi": 69,
      "hit": false,
      "t": 101528.84336666686,
      "d": 797.1003333333501,
      "v": 112
    },
    {
      "midi": 64,
      "hit": false,
      "t": 101528.84336666686,
      "d": 811.5930666666827,
      "v": 112
    },
    {
      "midi": 71,
      "hit": false,
      "t": 101565.0752000002,
      "d": 797.1003333333501,
      "v": 112
    },
    {
      "midi": 45,
      "hit": false,
      "t": 102173.7700000004,
      "d": 1652.1716000000015,
      "v": 48
    },
    {
      "midi": 74,
      "hit": false,
      "t": 102181.01636666687,
      "d": 413.0429000000149,
      "v": 112
    },
    {
      "midi": 52,
      "hit": false,
      "t": 102202.75546666706,
      "d": 1623.1861333333363,
      "v": 66
    },
    {
      "midi": 61,
      "hit": false,
      "t": 102202.75546666706,
      "d": 1623.1861333333363,
      "v": 57
    },
    {
      "midi": 57,
      "hit": false,
      "t": 102210.00183333374,
      "d": 1615.9397666666628,
      "v": 57
    },
    {
      "midi": 64,
      "hit": false,
      "t": 102238.9873000004,
      "d": 2108.6926999999996,
      "v": 60
    },
    {
      "midi": 74,
      "hit": false,
      "t": 102615.79836666689,
      "d": 347.8255999999965,
      "v": 112
    },
    {
      "midi": 73,
      "hit": false,
      "t": 102833.18936666689,
      "d": 369.5646999999881,
      "v": 112
    },
    {
      "midi": 64,
      "hit": false,
      "t": 103050.58036666688,
      "d": 1239.1287000000011,
      "v": 112
    },
    {
      "midi": 69,
      "hit": false,
      "t": 103050.58036666688,
      "d": 1239.1287000000011,
      "v": 112
    },
    {
      "midi": 71,
      "hit": false,
      "t": 103086.81220000022,
      "d": 1166.6650333333237,
      "v": 112
    },
    {
      "midi": 52,
      "hit": false,
      "t": 103912.8980000004,
      "d": 398.5501666666678,
      "v": 65
    },
    {
      "midi": 57,
      "hit": false,
      "t": 104318.69453333355,
      "d": 3608.6906000000163,
      "v": 112
    },
    {
      "midi": 43,
      "hit": false,
      "t": 104347.6800000004,
      "d": 1304.346000000005,
      "v": 70
    },
    {
      "midi": 53,
      "hit": false,
      "t": 104354.92636666688,
      "d": 3644.9224333333405,
      "v": 112
    },
    {
      "midi": 43,
      "hit": false,
      "t": 104354.92636666688,
      "d": 3702.8933666666708,
      "v": 112
    },
    {
      "midi": 59,
      "hit": false,
      "t": 104354.92636666688,
      "d": 3702.8933666666708,
      "v": 112
    },
    {
      "midi": 59,
      "hit": false,
      "t": 104376.66546666707,
      "d": 1231.882333333342,
      "v": 73
    },
    {
      "midi": 62,
      "hit": false,
      "t": 104376.66546666707,
      "d": 1275.3605333333398,
      "v": 64
    },
    {
      "midi": 71,
      "hit": false,
      "t": 105224.49036666688,
      "d": 202.89826666667068,
      "v": 112
    },
    {
      "midi": 71,
      "hit": false,
      "t": 105441.88136666689,
      "d": 1028.9840666666714,
      "v": 112
    },
    {
      "midi": 43,
      "hit": false,
      "t": 105652.0260000004,
      "d": 1652.1716000000015,
      "v": 48
    },
    {
      "midi": 57,
      "hit": false,
      "t": 105681.01146666707,
      "d": 1623.1861333333363,
      "v": 66
    },
    {
      "midi": 62,
      "hit": false,
      "t": 105681.01146666707,
      "d": 1623.1861333333363,
      "v": 57
    },
    {
      "midi": 65,
      "hit": false,
      "t": 105681.01146666707,
      "d": 1623.1861333333363,
      "v": 54
    },
    {
      "midi": 59,
      "hit": false,
      "t": 105688.25783333374,
      "d": 1615.9397666666628,
      "v": 57
    },
    {
      "midi": 69,
      "hit": false,
      "t": 105717.24330000041,
      "d": 2108.6926999999996,
      "v": 60
    },
    {
      "midi": 72,
      "hit": false,
      "t": 106528.83636666689,
      "d": 826.0858000000007,
      "v": 112
    },
    {
      "midi": 57,
      "hit": false,
      "t": 107391.1540000004,
      "d": 398.5501666666678,
      "v": 65
    },
    {
      "midi": 71,
      "hit": false,
      "t": 107398.40036666689,
      "d": 601.4484333333385,
      "v": 112
    },
    {
      "midi": 52,
      "hit": false,
      "t": 107825.93600000041,
      "d": 833.3321666666889,
      "v": 70
    },
    {
      "midi": 64,
      "hit": false,
      "t": 107833.1823666669,
      "d": 992.7522333333327,
      "v": 112
    },
    {
      "midi": 56,
      "hit": false,
      "t": 107833.1823666669,
      "d": 1028.9840666666714,
      "v": 112
    },
    {
      "midi": 52,
      "hit": false,
      "t": 107833.1823666669,
      "d": 3471.0096333333495,
      "v": 112
    },
    {
      "midi": 64,
      "hit": false,
      "t": 107840.42873333374,
      "d": 1992.7508333333826,
      "v": 67
    },
    {
      "midi": 71,
      "hit": false,
      "t": 107847.67510000042,
      "d": 1978.2581000000355,
      "v": 66
    },
    {
      "midi": 59,
      "hit": false,
      "t": 107854.92146666709,
      "d": 804.3467000000092,
      "v": 73
    },
    {
      "midi": 40,
      "hit": false,
      "t": 108267.96436666689,
      "d": 2891.300300000017,
      "v": 112
    },
    {
      "midi": 62,
      "hit": false,
      "t": 108702.74636666689,
      "d": 579.7093333333469,
      "v": 112
    },
    {
      "midi": 66,
      "hit": false,
      "t": 108702.7463666671,
      "d": 405.7965333333268,
      "v": 67
    },
    {
      "midi": 52,
      "hit": false,
      "t": 109130.28200000043,
      "d": 1992.7508333333826,
      "v": 48
    },
    {
      "midi": 64,
      "hit": false,
      "t": 109137.5283666669,
      "d": 1434.7805999999982,
      "v": 112
    },
    {
      "midi": 68,
      "hit": false,
      "t": 109152.02110000043,
      "d": 999.9986000000354,
      "v": 70
    },
    {
      "midi": 59,
      "hit": false,
      "t": 109159.26746666711,
      "d": 1833.3307666666951,
      "v": 66
    },
    {
      "midi": 72,
      "hit": false,
      "t": 109572.3103666669,
      "d": 1065.2158999999956,
      "v": 112
    },
    {
      "midi": 66,
      "hit": false,
      "t": 109992.5996333338,
      "d": 999.9986000000063,
      "v": 70
    },
    {
      "midi": 71,
      "hit": false,
      "t": 110441.8743666669,
      "d": 985.5058666666737,
      "v": 112
    },
    {
      "midi": 62,
      "hit": false,
      "t": 110441.8743666669,
      "d": 1007.2449666666798,
      "v": 112
    },
    {
      "midi": 68,
      "hit": false,
      "t": 110441.87436666714,
      "d": 659.4193666666688,
      "v": 67
    },
    {
      "midi": 71,
      "hit": false,
      "t": 110898.39546666713,
      "d": 369.5647000000172,
      "v": 67
    },
    {
      "midi": 45,
      "hit": false,
      "t": 111311.43836666692,
      "d": 543.4775000000081,
      "v": 112
    },
    {
      "midi": 52,
      "hit": false,
      "t": 111325.9311000005,
      "d": 956.5204000000085,
      "v": 69
    },
    {
      "midi": 45,
      "hit": false,
      "t": 111325.9311000005,
      "d": 971.0131333333411,
      "v": 64
    },
    {
      "midi": 57,
      "hit": false,
      "t": 111333.17746666717,
      "d": 971.0131333333411,
      "v": 86
    },
    {
      "midi": 60,
      "hit": false,
      "t": 111347.6702000005,
      "d": 971.0131333333411,
      "v": 81
    },
    {
      "midi": 52,
      "hit": false,
      "t": 111746.22036666692,
      "d": 485.5065666666778,
      "v": 112
    },
    {
      "midi": 60,
      "hit": false,
      "t": 111963.61136666693,
      "d": 413.0429000000149,
      "v": 112
    },
    {
      "midi": 64,
      "hit": false,
      "t": 112181.00236666693,
      "d": 202.89826666668523,
      "v": 112
    },
    {
      "midi": 72,
      "hit": false,
      "t": 112181.00236666693,
      "d": 202.89826666668523,
      "v": 112
    },
    {
      "midi": 57,
      "hit": false,
      "t": 112181.00236666693,
      "d": 1007.2449666666944,
      "v": 112
    },
    {
      "midi": 64,
      "hit": false,
      "t": 112478.10340000028,
      "d": 340.57923333333747,
      "v": 112
    },
    {
      "midi": 72,
      "hit": false,
      "t": 112478.10340000028,
      "d": 427.53563333333295,
      "v": 112
    },
    {
      "midi": 45,
      "hit": false,
      "t": 112615.78436666718,
      "d": 427.53563333333295,
      "v": 66
    },
    {
      "midi": 52,
      "hit": false,
      "t": 112630.27710000052,
      "d": 413.0429000000004,
      "v": 62
    },
    {
      "midi": 57,
      "hit": false,
      "t": 112630.27710000052,
      "d": 413.0429000000004,
      "v": 86
    },
    {
      "midi": 60,
      "hit": false,
      "t": 112644.76983333385,
      "d": 398.5501666666678,
      "v": 76
    },
    {
      "midi": 69,
      "hit": false,
      "t": 112760.71170000029,
      "d": 369.56470000000263,
      "v": 112
    },
    {
      "midi": 60,
      "hit": false,
      "t": 112760.71170000029,
      "d": 449.2747333333391,
      "v": 112
    },
    {
      "midi": 45,
      "hit": false,
      "t": 113050.56636666696,
      "d": 652.1730000000098,
      "v": 112
    },
    {
      "midi": 72,
      "hit": false,
      "t": 113050.56636666696,
      "d": 1840.5771333333541,
      "v": 112
    },
    {
      "midi": 64,
      "hit": false,
      "t": 113050.56636666696,
      "d": 1884.0553333333664,
      "v": 112
    },
    {
      "midi": 52,
      "hit": false,
      "t": 113065.05910000052,
      "d": 746.3757666666788,
      "v": 69
    },
    {
      "midi": 45,
      "hit": false,
      "t": 113065.05910000052,
      "d": 760.8685000000114,
      "v": 64
    },
    {
      "midi": 57,
      "hit": false,
      "t": 113072.3054666672,
      "d": 760.8685000000114,
      "v": 86
    },
    {
      "midi": 60,
      "hit": false,
      "t": 113086.79820000053,
      "d": 804.3467000000092,
      "v": 81
    },
    {
      "midi": 52,
      "hit": false,
      "t": 113485.34836666696,
      "d": 615.941166666671,
      "v": 112
    },
    {
      "midi": 43,
      "hit": false,
      "t": 113920.13036666697,
      "d": 413.0429000000004,
      "v": 112
    },
    {
      "midi": 55,
      "hit": false,
      "t": 113934.62310000054,
      "d": 746.3757666666788,
      "v": 69
    },
    {
      "midi": 43,
      "hit": false,
      "t": 113934.62310000054,
      "d": 760.8685000000114,
      "v": 64
    },
    {
      "midi": 60,
      "hit": false,
      "t": 113941.86946666721,
      "d": 760.8685000000114,
      "v": 86
    },
    {
      "midi": 64,
      "hit": false,
      "t": 113956.36220000054,
      "d": 804.3467000000092,
      "v": 81
    },
    {
      "midi": 52,
      "hit": false,
      "t": 114354.91236666698,
      "d": 557.9702333333407,
      "v": 112
    },
    {
      "midi": 53,
      "hit": false,
      "t": 114782.44800000056,
      "d": 1260.8678000000218,
      "v": 70
    },
    {
      "midi": 41,
      "hit": false,
      "t": 114789.69436666698,
      "d": 1021.7377000000124,
      "v": 112
    },
    {
      "midi": 69,
      "hit": false,
      "t": 114796.94073333389,
      "d": 1246.3750666666892,
      "v": 67
    },
    {
      "midi": 67,
      "hit": false,
      "t": 114804.18710000056,
      "d": 1239.1287000000157,
      "v": 66
    },
    {
      "midi": 60,
      "hit": false,
      "t": 114811.43346666724,
      "d": 1231.882333333342,
      "v": 73
    },
    {
      "midi": 53,
      "hit": false,
      "t": 115224.47636666699,
      "d": 202.89826666667068,
      "v": 112
    },
    {
      "midi": 53,
      "hit": false,
      "t": 115441.867366667,
      "d": 202.89826666667068,
      "v": 112
    },
    {
      "midi": 65,
      "hit": false,
      "t": 115659.258366667,
      "d": 202.89826666667068,
      "v": 112
    },
    {
      "midi": 57,
      "hit": false,
      "t": 115659.258366667,
      "d": 369.56470000000263,
      "v": 112
    },
    {
      "midi": 53,
      "hit": false,
      "t": 115659.258366667,
      "d": 1413.0415000000066,
      "v": 112
    },
    {
      "midi": 65,
      "hit": false,
      "t": 115876.649366667,
      "d": 202.89826666667068,
      "v": 112
    },
    {
      "midi": 53,
      "hit": false,
      "t": 116086.79400000058,
      "d": 1992.7508333333535,
      "v": 48
    },
    {
      "midi": 65,
      "hit": false,
      "t": 116094.040366667,
      "d": 202.89826666667068,
      "v": 112
    },
    {
      "midi": 67,
      "hit": false,
      "t": 116108.53310000058,
      "d": 615.941166666671,
      "v": 90
    },
    {
      "midi": 72,
      "hit": false,
      "t": 116108.53310000058,
      "d": 1507.2442666666757,
      "v": 90
    },
    {
      "midi": 65,
      "hit": false,
      "t": 116115.77946666726,
      "d": 789.853966666662,
      "v": 54
    },
    {
      "midi": 60,
      "hit": false,
      "t": 116115.77946666726,
      "d": 1833.330766666666,
      "v": 66
    },
    {
      "midi": 65,
      "hit": false,
      "t": 116311.431366667,
      "d": 1934.7799000000086,
      "v": 112
    },
    {
      "midi": 57,
      "hit": false,
      "t": 116311.431366667,
      "d": 1971.0117333333474,
      "v": 112
    },
    {
      "midi": 67,
      "hit": false,
      "t": 116949.11163333392,
      "d": 999.9986000000063,
      "v": 90
    },
    {
      "midi": 48,
      "hit": false,
      "t": 116963.604366667,
      "d": 594.2020666666795,
      "v": 112
    },
    {
      "midi": 41,
      "hit": false,
      "t": 117398.38636666701,
      "d": 826.0858000000007,
      "v": 112
    },
    {
      "midi": 69,
      "hit": false,
      "t": 117398.38636666726,
      "d": 659.4193666666688,
      "v": 67
    },
    {
      "midi": 72,
      "hit": false,
      "t": 117854.90746666725,
      "d": 369.5647000000172,
      "v": 67
    },
    {
      "midi": 43,
      "hit": false,
      "t": 118267.95036666702,
      "d": 579.7093333333469,
      "v": 112
    },
    {
      "midi": 59,
      "hit": false,
      "t": 118282.44310000062,
      "d": 956.5204000000085,
      "v": 69
    },
    {
      "midi": 43,
      "hit": false,
      "t": 118282.44310000062,
      "d": 971.0131333333411,
      "v": 64
    },
    {
      "midi": 62,
      "hit": false,
      "t": 118289.68946666729,
      "d": 971.0131333333411,
      "v": 86
    },
    {
      "midi": 67,
      "hit": false,
      "t": 118304.18220000062,
      "d": 971.0131333333411,
      "v": 81
    },
    {
      "midi": 71,
      "hit": false,
      "t": 118702.73236666703,
      "d": 413.0429000000004,
      "v": 112
    },
    {
      "midi": 67,
      "hit": false,
      "t": 118702.73236666703,
      "d": 521.738400000002,
      "v": 112
    },
    {
      "midi": 62,
      "hit": false,
      "t": 118702.73236666703,
      "d": 543.4775000000081,
      "v": 112
    },
    {
      "midi": 50,
      "hit": false,
      "t": 118702.73236666703,
      "d": 594.2020666666795,
      "v": 112
    },
    {
      "midi": 71,
      "hit": false,
      "t": 119137.51436666703,
      "d": 282.60830000000715,
      "v": 112
    },
    {
      "midi": 59,
      "hit": false,
      "t": 119137.51436666703,
      "d": 1057.9695333333511,
      "v": 112
    },
    {
      "midi": 71,
      "hit": false,
      "t": 119427.36903333371,
      "d": 347.8255999999965,
      "v": 112
    },
    {
      "midi": 43,
      "hit": false,
      "t": 119572.2963666673,
      "d": 427.53563333333295,
      "v": 66
    },
    {
      "midi": 59,
      "hit": false,
      "t": 119586.78910000063,
      "d": 413.0429000000004,
      "v": 62
    },
    {
      "midi": 62,
      "hit": false,
      "t": 119586.78910000063,
      "d": 413.0429000000004,
      "v": 86
    },
    {
      "midi": 67,
      "hit": false,
      "t": 119601.28183333397,
      "d": 398.5501666666678,
      "v": 76
    },
    {
      "midi": 67,
      "hit": false,
      "t": 119717.22370000038,
      "d": 202.89826666667068,
      "v": 112
    },
    {
      "midi": 50,
      "hit": false,
      "t": 120007.07836666705,
      "d": 543.4775000000081,
      "v": 112
    },
    {
      "midi": 67,
      "hit": false,
      "t": 120007.07836666705,
      "d": 1173.9114000000118,
      "v": 112
    },
    {
      "midi": 71,
      "hit": false,
      "t": 120007.07836666705,
      "d": 1173.9114000000118,
      "v": 112
    },
    {
      "midi": 62,
      "hit": false,
      "t": 120007.07836666705,
      "d": 1188.4041333333444,
      "v": 112
    },
    {
      "midi": 59,
      "hit": false,
      "t": 120021.57110000064,
      "d": 746.3757666666788,
      "v": 69
    },
    {
      "midi": 43,
      "hit": false,
      "t": 120021.57110000064,
      "d": 760.8685000000114,
      "v": 64
    },
    {
      "midi": 62,
      "hit": false,
      "t": 120028.81746666731,
      "d": 760.8685000000114,
      "v": 86
    },
    {
      "midi": 67,
      "hit": false,
      "t": 120043.31020000065,
      "d": 804.3467000000092,
      "v": 81
    },
    {
      "midi": 43,
      "hit": false,
      "t": 120441.86036666705,
      "d": 557.9702333333407,
      "v": 112
    },
    {
      "midi": 41,
      "hit": false,
      "t": 120876.64236666706,
      "d": 1007.2449666666653,
      "v": 112
    },
    {
      "midi": 59,
      "hit": false,
      "t": 120891.13510000065,
      "d": 746.3757666666788,
      "v": 69
    },
    {
      "midi": 41,
      "hit": false,
      "t": 120891.13510000065,
      "d": 760.8685000000114,
      "v": 64
    },
    {
      "midi": 62,
      "hit": false,
      "t": 120898.38146666733,
      "d": 760.8685000000114,
      "v": 86
    },
    {
      "midi": 67,
      "hit": false,
      "t": 120912.87420000066,
      "d": 804.3467000000092,
      "v": 81
    },
    {
      "midi": 71,
      "hit": false,
      "t": 121311.42436666705,
      "d": 202.89826666667068,
      "v": 112
    },
    {
      "midi": 71,
      "hit": false,
      "t": 121528.81536666706,
      "d": 333.3328666666639,
      "v": 112
    },
    {
      "midi": 40,
      "hit": false,
      "t": 121738.96000000068,
      "d": 1130.433200000014,
      "v": 70
    },
    {
      "midi": 64,
      "hit": false,
      "t": 121746.20636666706,
      "d": 202.89826666667068,
      "v": 112
    },
    {
      "midi": 40,
      "hit": false,
      "t": 121746.20636666706,
      "d": 1152.1723000000202,
      "v": 112
    },
    {
      "midi": 64,
      "hit": false,
      "t": 121753.45273333401,
      "d": 3355.0677666667034,
      "v": 67
    },
    {
      "midi": 59,
      "hit": false,
      "t": 121760.69910000068,
      "d": 1217.3896000000095,
      "v": 66
    },
    {
      "midi": 52,
      "hit": false,
      "t": 121767.94546666736,
      "d": 1231.882333333342,
      "v": 73
    },
    {
      "midi": 55,
      "hit": false,
      "t": 121775.19183333403,
      "d": 1202.8968666666624,
      "v": 64
    },
    {
      "midi": 64,
      "hit": false,
      "t": 121963.59736666706,
      "d": 202.89826666667068,
      "v": 112
    },
    {
      "midi": 64,
      "hit": false,
      "t": 122180.98836666706,
      "d": 202.89826666667068,
      "v": 112
    },
    {
      "midi": 62,
      "hit": false,
      "t": 122398.37936666707,
      "d": 971.0131333333411,
      "v": 112
    },
    {
      "midi": 55,
      "hit": false,
      "t": 122398.37936666707,
      "d": 1043.4768000000186,
      "v": 112
    },
    {
      "midi": 59,
      "hit": false,
      "t": 122398.37936666707,
      "d": 1043.4768000000186,
      "v": 112
    },
    {
      "midi": 64,
      "hit": false,
      "t": 122441.85756666707,
      "d": 934.7813000000169,
      "v": 112
    },
    {
      "midi": 47,
      "hit": false,
      "t": 122615.77036666707,
      "d": 1043.4768000000186,
      "v": 112
    },
    {
      "midi": 40,
      "hit": false,
      "t": 123043.3060000007,
      "d": 1028.984066666686,
      "v": 48
    },
    {
      "midi": 52,
      "hit": false,
      "t": 123072.29146666736,
      "d": 963.7667666666821,
      "v": 66
    },
    {
      "midi": 59,
      "hit": false,
      "t": 123072.29146666736,
      "d": 1746.374366666685,
      "v": 54
    },
    {
      "midi": 55,
      "hit": false,
      "t": 123079.53783333403,
      "d": 1949.2726333333412,
      "v": 57
    },
    {
      "midi": 40,
      "hit": false,
      "t": 123485.33436666708,
      "d": 652.1730000000098,
      "v": 112
    },
    {
      "midi": 67,
      "hit": false,
      "t": 123485.33436666708,
      "d": 1137.6795666666876,
      "v": 112
    },
    {
      "midi": 74,
      "hit": false,
      "t": 123485.33436666708,
      "d": 1173.9114000000263,
      "v": 112
    },
    {
      "midi": 71,
      "hit": false,
      "t": 123485.33436666708,
      "d": 1188.404133333359,
      "v": 112
    },
    {
      "midi": 79,
      "hit": false,
      "t": 123485.33436666708,
      "d": 1188.404133333359,
      "v": 112
    },
    {
      "midi": 47,
      "hit": false,
      "t": 123920.11636666709,
      "d": 579.7093333333469,
      "v": 112
    },
    {
      "midi": 55,
      "hit": false,
      "t": 124354.8983666671,
      "d": 949.2740333333495,
      "v": 112
    },
    {
      "midi": 50,
      "hit": false,
      "t": 124354.89836666739,
      "d": 340.5792333333229,
      "v": 79
    },
    {
      "midi": 52,
      "hit": false,
      "t": 124565.04300000072,
      "d": 572.4629666666588,
      "v": 90
    },
    {
      "midi": 69,
      "hit": false,
      "t": 124789.6803666671,
      "d": 202.89826666667068,
      "v": 112
    },
    {
      "midi": 69,
      "hit": false,
      "t": 125007.0713666671,
      "d": 202.89826666667068,
      "v": 112
    },
    {
      "midi": 50,
      "hit": false,
      "t": 125014.31773333404,
      "d": 195.6518999999971,
      "v": 73
    },
    {
      "midi": 53,
      "hit": false,
      "t": 125217.21600000071,
      "d": 833.3321666666889,
      "v": 70
    },
    {
      "midi": 69,
      "hit": false,
      "t": 125224.46236666711,
      "d": 202.89826666667068,
      "v": 112
    },
    {
      "midi": 60,
      "hit": false,
      "t": 125224.46236666711,
      "d": 318.8401333333313,
      "v": 112
    },
    {
      "midi": 65,
      "hit": false,
      "t": 125224.46236666711,
      "d": 318.8401333333313,
      "v": 112
    },
    {
      "midi": 41,
      "hit": false,
      "t": 125224.46236666711,
      "d": 594.2020666666649,
      "v": 112
    },
    {
      "midi": 65,
      "hit": false,
      "t": 125231.70873333405,
      "d": 2362.3155333333852,
      "v": 67
    },
    {
      "midi": 72,
      "hit": false,
      "t": 125238.95510000072,
      "d": 1978.2581000000355,
      "v": 66
    },
    {
      "midi": 60,
      "hit": false,
      "t": 125246.2014666674,
      "d": 804.3467000000092,
      "v": 73
    },
    {
      "midi": 69,
      "hit": false,
      "t": 125441.85336666711,
      "d": 355.0719666666555,
      "v": 112
    },
    {
      "midi": 48,
      "hit": false,
      "t": 125659.2443666671,
      "d": 557.9702333333407,
      "v": 112
    },
    {
      "midi": 69,
      "hit": false,
      "t": 125876.6353666671,
      "d": 202.89826666667068,
      "v": 112
    },
    {
      "midi": 57,
      "hit": false,
      "t": 126094.02636666711,
      "d": 1007.2449666666653,
      "v": 112
    },
    {
      "midi": 60,
      "hit": false,
      "t": 126094.02636666711,
      "d": 2065.214500000002,
      "v": 112
    },
    {
      "midi": 65,
      "hit": false,
      "t": 126094.02636666711,
      "d": 2065.214500000002,
      "v": 112
    },
    {
      "midi": 69,
      "hit": false,
      "t": 126094.02636666711,
      "d": 2086.953600000008,
      "v": 112
    },
    {
      "midi": 67,
      "hit": false,
      "t": 126094.0263666674,
      "d": 405.7965333333268,
      "v": 67
    },
    {
      "midi": 53,
      "hit": false,
      "t": 126521.56200000073,
      "d": 1992.7508333333535,
      "v": 48
    },
    {
      "midi": 69,
      "hit": false,
      "t": 126543.30110000074,
      "d": 999.9986000000208,
      "v": 70
    },
    {
      "midi": 60,
      "hit": false,
      "t": 126550.54746666741,
      "d": 1833.3307666666806,
      "v": 66
    },
    {
      "midi": 41,
      "hit": false,
      "t": 126963.59036666711,
      "d": 1695.6498000000138,
      "v": 112
    },
    {
      "midi": 72,
      "hit": false,
      "t": 127383.87963333409,
      "d": 1188.4041333333298,
      "v": 70
    },
    {
      "midi": 67,
      "hit": false,
      "t": 127833.15436666743,
      "d": 760.8684999999969,
      "v": 67
    },
    {
      "midi": 57,
      "hit": false,
      "t": 128267.93636666711,
      "d": 202.89826666667068,
      "v": 112
    },
    {
      "midi": 69,
      "hit": false,
      "t": 128289.67546666742,
      "d": 369.56470000000263,
      "v": 67
    },
    {
      "midi": 57,
      "hit": false,
      "t": 128485.32736666712,
      "d": 202.89826666667068,
      "v": 112
    },
    {
      "midi": 47,
      "hit": false,
      "t": 128695.47200000077,
      "d": 1130.433200000014,
      "v": 70
    },
    {
      "midi": 57,
      "hit": false,
      "t": 128702.71836666712,
      "d": 1855.0698666666722,
      "v": 112
    },
    {
      "midi": 63,
      "hit": false,
      "t": 128702.71836666712,
      "d": 2086.9535999999935,
      "v": 112
    },
    {
      "midi": 42,
      "hit": false,
      "t": 128702.71836666712,
      "d": 3499.9951000000146,
      "v": 112
    },
    {
      "midi": 35,
      "hit": false,
      "t": 128702.71836666712,
      "d": 3521.734200000021,
      "v": 112
    },
    {
      "midi": 59,
      "hit": false,
      "t": 128717.21110000077,
      "d": 1217.3896000000095,
      "v": 60
    },
    {
      "midi": 54,
      "hit": false,
      "t": 128724.45746666745,
      "d": 1231.882333333342,
      "v": 73
    },
    {
      "midi": 57,
      "hit": false,
      "t": 128731.70383333412,
      "d": 1202.8968666666624,
      "v": 64
    },
    {
      "midi": 47,
      "hit": false,
      "t": 129999.81800000079,
      "d": 1507.2442666666466,
      "v": 48
    },
    {
      "midi": 54,
      "hit": false,
      "t": 130028.80346666745,
      "d": 818.8394333333417,
      "v": 66
    },
    {
      "midi": 63,
      "hit": false,
      "t": 130028.80346666745,
      "d": 2021.7362999999605,
      "v": 54
    },
    {
      "midi": 66,
      "hit": false,
      "t": 130028.80346666745,
      "d": 2036.2290333333076,
      "v": 57
    },
    {
      "midi": 57,
      "hit": false,
      "t": 130036.04983333412,
      "d": 1101.4477333333198,
      "v": 57
    },
    {
      "midi": 57,
      "hit": false,
      "t": 130659.23736666712,
      "d": 202.89826666665613,
      "v": 112
    },
    {
      "midi": 66,
      "hit": false,
      "t": 130659.23736666712,
      "d": 202.89826666665613,
      "v": 112
    },
    {
      "midi": 57,
      "hit": false,
      "t": 130876.62836666711,
      "d": 413.0429000000004,
      "v": 112
    },
    {
      "midi": 66,
      "hit": false,
      "t": 130876.62836666711,
      "d": 413.0429000000004,
      "v": 112
    },
    {
      "midi": 51,
      "hit": false,
      "t": 130891.12110000079,
      "d": 1231.8823333332984,
      "v": 64
    },
    {
      "midi": 66,
      "hit": false,
      "t": 131311.4103666671,
      "d": 391.3037999999942,
      "v": 112
    },
    {
      "midi": 57,
      "hit": false,
      "t": 131311.4103666671,
      "d": 427.5356333333184,
      "v": 112
    },
    {
      "midi": 54,
      "hit": false,
      "t": 131311.41036666743,
      "d": 702.897566666652,
      "v": 79
    },
    {
      "midi": 64,
      "hit": false,
      "t": 131601.2650333338,
      "d": 427.5356333333184,
      "v": 112
    },
    {
      "midi": 56,
      "hit": false,
      "t": 131608.51140000045,
      "d": 340.5792333333229,
      "v": 112
    },
    {
      "midi": 47,
      "hit": false,
      "t": 131753.4387333341,
      "d": 318.84013333331677,
      "v": 73
    },
    {
      "midi": 54,
      "hit": false,
      "t": 131898.3660666671,
      "d": 268.11556666667457,
      "v": 112
    },
    {
      "midi": 63,
      "hit": false,
      "t": 131898.3660666671,
      "d": 268.11556666667457,
      "v": 112
    },
    {
      "midi": 52,
      "hit": false,
      "t": 132173.72800000076,
      "d": 833.3321666666598,
      "v": 70
    },
    {
      "midi": 52,
      "hit": false,
      "t": 132180.97436666713,
      "d": 543.4775000000081,
      "v": 112
    },
    {
      "midi": 56,
      "hit": false,
      "t": 132180.97436666713,
      "d": 3985.501666666678,
      "v": 112
    },
    {
      "midi": 59,
      "hit": false,
      "t": 132180.97436666713,
      "d": 3985.501666666678,
      "v": 112
    },
    {
      "midi": 64,
      "hit": false,
      "t": 132180.97436666713,
      "d": 4021.733500000002,
      "v": 112
    },
    {
      "midi": 64,
      "hit": false,
      "t": 132188.2207333341,
      "d": 2362.3155333333707,
      "v": 67
    },
    {
      "midi": 71,
      "hit": false,
      "t": 132195.46710000077,
      "d": 1978.2581000000355,
      "v": 66
    },
    {
      "midi": 59,
      "hit": false,
      "t": 132202.71346666742,
      "d": 804.3466999999946,
      "v": 73
    },
    {
      "midi": 40,
      "hit": false,
      "t": 132615.75636666713,
      "d": 652.1730000000098,
      "v": 112
    },
    {
      "midi": 52,
      "hit": false,
      "t": 133050.53836666714,
      "d": 579.7093333333323,
      "v": 112
    },
    {
      "midi": 66,
      "hit": false,
      "t": 133050.53836666743,
      "d": 405.79653333334136,
      "v": 67
    },
    {
      "midi": 52,
      "hit": false,
      "t": 133478.07400000078,
      "d": 1992.7508333333826,
      "v": 48
    },
    {
      "midi": 53,
      "hit": false,
      "t": 133485.32036666715,
      "d": 673.9121000000159,
      "v": 112
    },
    {
      "midi": 68,
      "hit": false,
      "t": 133499.81310000079,
      "d": 999.9986000000208,
      "v": 70
    },
    {
      "midi": 59,
      "hit": false,
      "t": 133507.05946666744,
      "d": 1833.3307666667097,
      "v": 66
    },
    {
      "midi": 52,
      "hit": false,
      "t": 133920.10236666715,
      "d": 615.9411666666856,
      "v": 112
    },
    {
      "midi": 71,
      "hit": false,
      "t": 134340.39163333413,
      "d": 1188.404133333359,
      "v": 70
    },
    {
      "midi": 40,
      "hit": false,
      "t": 134354.88436666716,
      "d": 557.9702333333262,
      "v": 112
    },
    {
      "midi": 52,
      "hit": false,
      "t": 134789.66636666717,
      "d": 543.477499999979,
      "v": 112
    },
    {
      "midi": 66,
      "hit": false,
      "t": 134789.6663666675,
      "d": 760.8685000000114,
      "v": 67
    },
    {
      "midi": 53,
      "hit": false,
      "t": 135224.44836666714,
      "d": 557.9702333333262,
      "v": 112
    },
    {
      "midi": 68,
      "hit": false,
      "t": 135246.1874666675,
      "d": 369.5646999999881,
      "v": 67
    },
    {
      "midi": 52,
      "hit": false,
      "t": 135659.23036666715,
      "d": 615.9411666666565,
      "v": 112
    },
    {
      "midi": 56,
      "hit": false,
      "t": 135673.72310000082,
      "d": 746.3757666666643,
      "v": 69
    },
    {
      "midi": 40,
      "hit": false,
      "t": 135673.72310000082,
      "d": 760.8685000000114,
      "v": 64
    },
    {
      "midi": 59,
      "hit": false,
      "t": 135680.96946666748,
      "d": 760.8685000000114,
      "v": 86
    },
    {
      "midi": 64,
      "hit": false,
      "t": 135695.46220000082,
      "d": 804.3466999999946,
      "v": 81
    },
    {
      "midi": 68,
      "hit": false,
      "t": 136094.01236666713,
      "d": 413.0429000000004,
      "v": 112
    },
    {
      "midi": 40,
      "hit": false,
      "t": 136094.01236666713,
      "d": 615.9411666666856,
      "v": 112
    },
    {
      "midi": 64,
      "hit": false,
      "t": 136528.79436666713,
      "d": 521.738400000002,
      "v": 112
    },
    {
      "midi": 68,
      "hit": false,
      "t": 136528.79436666713,
      "d": 652.1730000000098,
      "v": 112
    },
    {
      "midi": 59,
      "hit": false,
      "t": 136528.79436666713,
      "d": 804.3467000000237,
      "v": 112
    },
    {
      "midi": 38,
      "hit": false,
      "t": 136528.79436666713,
      "d": 985.5058666667028,
      "v": 112
    },
    {
      "midi": 50,
      "hit": false,
      "t": 136528.79436666713,
      "d": 1007.2449666667089,
      "v": 112
    },
    {
      "midi": 56,
      "hit": false,
      "t": 136543.28710000083,
      "d": 746.3757666666643,
      "v": 69
    },
    {
      "midi": 38,
      "hit": false,
      "t": 136543.28710000083,
      "d": 760.8685000000114,
      "v": 64
    },
    {
      "midi": 59,
      "hit": false,
      "t": 136550.5334666675,
      "d": 760.8685000000114,
      "v": 86
    },
    {
      "midi": 64,
      "hit": false,
      "t": 136565.02620000084,
      "d": 804.3466999999946,
      "v": 81
    },
    {
      "midi": 69,
      "hit": false,
      "t": 136963.57636666714,
      "d": 413.0429000000295,
      "v": 112
    },
    {
      "midi": 69,
      "hit": false,
      "t": 137398.35836666718,
      "d": 557.9702333333262,
      "v": 112
    },
    {
      "midi": 64,
      "hit": false,
      "t": 137398.35836666718,
      "d": 594.2020666666504,
      "v": 112
    },
    {
      "midi": 59,
      "hit": false,
      "t": 137398.35836666718,
      "d": 804.3466999999946,
      "v": 112
    },
    {
      "midi": 49,
      "hit": false,
      "t": 137398.35836666718,
      "d": 985.5058666666737,
      "v": 112
    },
    {
      "midi": 37,
      "hit": false,
      "t": 137398.35836666718,
      "d": 1043.476800000004,
      "v": 112
    },
    {
      "midi": 52,
      "hit": false,
      "t": 137412.85110000084,
      "d": 746.3757666666643,
      "v": 69
    },
    {
      "midi": 49,
      "hit": false,
      "t": 137412.85110000084,
      "d": 760.8685000000114,
      "v": 64
    },
    {
      "midi": 57,
      "hit": false,
      "t": 137420.0974666675,
      "d": 760.8685000000114,
      "v": 86
    },
    {
      "midi": 61,
      "hit": false,
      "t": 137434.59020000085,
      "d": 804.3466999999946,
      "v": 81
    },
    {
      "midi": 71,
      "hit": false,
      "t": 137833.14036666718,
      "d": 413.0429000000004,
      "v": 112
    },
    {
      "midi": 71,
      "hit": false,
      "t": 138267.9223666672,
      "d": 413.0429000000004,
      "v": 112
    },
    {
      "midi": 64,
      "hit": false,
      "t": 138267.9223666672,
      "d": 543.4775000000081,
      "v": 112
    },
    {
      "midi": 68,
      "hit": false,
      "t": 138267.9223666672,
      "d": 579.7093333333323,
      "v": 112
    },
    {
      "midi": 47,
      "hit": false,
      "t": 138267.9223666672,
      "d": 876.810366666672,
      "v": 112
    },
    {
      "midi": 59,
      "hit": false,
      "t": 138267.9223666672,
      "d": 876.810366666672,
      "v": 112
    },
    {
      "midi": 35,
      "hit": false,
      "t": 138267.9223666672,
      "d": 891.3031000000192,
      "v": 112
    },
    {
      "midi": 56,
      "hit": false,
      "t": 138282.41510000086,
      "d": 746.3757666666643,
      "v": 69
    },
    {
      "midi": 35,
      "hit": false,
      "t": 138282.41510000086,
      "d": 760.8685000000114,
      "v": 64
    },
    {
      "midi": 59,
      "hit": false,
      "t": 138289.66146666752,
      "d": 760.8685000000114,
      "v": 86
    },
    {
      "midi": 64,
      "hit": false,
      "t": 138304.15420000086,
      "d": 804.3466999999946,
      "v": 81
    },
    {
      "midi": 73,
      "hit": false,
      "t": 139137.4863666672,
      "d": 28.98546666666516,
      "v": 112
    },
    {
      "midi": 45,
      "hit": false,
      "t": 139137.4863666672,
      "d": 565.2166000000143,
      "v": 112
    },
    {
      "midi": 33,
      "hit": false,
      "t": 139137.4863666672,
      "d": 623.1875333333446,
      "v": 112
    },
    {
      "midi": 61,
      "hit": false,
      "t": 139137.4863666672,
      "d": 775.3612333333585,
      "v": 112
    },
    {
      "midi": 64,
      "hit": false,
      "t": 139137.4863666672,
      "d": 775.3612333333585,
      "v": 112
    },
    {
      "midi": 69,
      "hit": false,
      "t": 139137.4863666672,
      "d": 797.1003333333647,
      "v": 112
    },
    {
      "midi": 52,
      "hit": false,
      "t": 139151.97910000087,
      "d": 956.5204000000085,
      "v": 69
    },
    {
      "midi": 45,
      "hit": false,
      "t": 139151.97910000087,
      "d": 971.0131333333557,
      "v": 64
    },
    {
      "midi": 57,
      "hit": false,
      "t": 139166.47183333422,
      "d": 1210.143233333336,
      "v": 60
    },
    {
      "midi": 52,
      "hit": false,
      "t": 139572.2683666672,
      "d": 601.4484333333676,
      "v": 112
    },
    {
      "midi": 69,
      "hit": false,
      "t": 140007.05036666724,
      "d": 413.0429000000004,
      "v": 112
    },
    {
      "midi": 64,
      "hit": false,
      "t": 140007.05036666724,
      "d": 485.5065666666778,
      "v": 112
    },
    {
      "midi": 73,
      "hit": false,
      "t": 140007.05036666724,
      "d": 543.4775000000081,
      "v": 112
    },
    {
      "midi": 76,
      "hit": false,
      "t": 140007.05036666724,
      "d": 543.4775000000081,
      "v": 112
    },
    {
      "midi": 61,
      "hit": false,
      "t": 140007.05036666724,
      "d": 992.7522333333327,
      "v": 112
    },
    {
      "midi": 69,
      "hit": false,
      "t": 140441.83236666725,
      "d": 202.89826666665613,
      "v": 112
    },
    {
      "midi": 45,
      "hit": false,
      "t": 140441.83236666754,
      "d": 1702.896166666702,
      "v": 66
    },
    {
      "midi": 52,
      "hit": false,
      "t": 140456.3251000009,
      "d": 1688.4034333333548,
      "v": 62
    },
    {
      "midi": 57,
      "hit": false,
      "t": 140456.3251000009,
      "d": 1688.4034333333548,
      "v": 86
    },
    {
      "midi": 61,
      "hit": false,
      "t": 140470.81783333424,
      "d": 2007.2435666666715,
      "v": 76
    },
    {
      "midi": 69,
      "hit": false,
      "t": 140659.22336666725,
      "d": 579.7093333333323,
      "v": 112
    },
    {
      "midi": 64,
      "hit": false,
      "t": 140659.22336666725,
      "d": 739.1294000000053,
      "v": 112
    },
    {
      "midi": 71,
      "hit": false,
      "t": 140695.45520000058,
      "d": 681.1584666666749,
      "v": 112
    },
    {
      "midi": 45,
      "hit": false,
      "t": 140876.61436666726,
      "d": 543.4775000000081,
      "v": 112
    },
    {
      "midi": 69,
      "hit": false,
      "t": 141311.39636666726,
      "d": 202.89826666665613,
      "v": 112
    },
    {
      "midi": 52,
      "hit": false,
      "t": 141311.39636666726,
      "d": 623.1875333333446,
      "v": 112
    },
    {
      "midi": 64,
      "hit": false,
      "t": 141528.78736666727,
      "d": 347.82560000001104,
      "v": 112
    },
    {
      "midi": 69,
      "hit": false,
      "t": 141528.78736666727,
      "d": 369.5647000000172,
      "v": 112
    },
    {
      "midi": 71,
      "hit": false,
      "t": 141565.0192000006,
      "d": 521.738400000002,
      "v": 112
    },
    {
      "midi": 64,
      "hit": false,
      "t": 141963.56936666727,
      "d": 463.7674666666426,
      "v": 112
    },
    {
      "midi": 69,
      "hit": false,
      "t": 141963.56936666727,
      "d": 521.7383999999729,
      "v": 112
    },
    {
      "midi": 73,
      "hit": false,
      "t": 141963.56936666727,
      "d": 543.477499999979,
      "v": 112
    },
    {
      "midi": 52,
      "hit": false,
      "t": 142195.45310000092,
      "d": 369.5646999999881,
      "v": 69
    },
    {
      "midi": 45,
      "hit": false,
      "t": 142608.49600000092,
      "d": 1130.4331999999995,
      "v": 70
    },
    {
      "midi": 61,
      "hit": false,
      "t": 142615.74236666725,
      "d": 65.21729999998934,
      "v": 112
    },
    {
      "midi": 45,
      "hit": false,
      "t": 142615.74236666725,
      "d": 992.7522333333036,
      "v": 112
    },
    {
      "midi": 33,
      "hit": false,
      "t": 142615.74236666725,
      "d": 1086.954999999958,
      "v": 112
    },
    {
      "midi": 64,
      "hit": false,
      "t": 142615.74236666725,
      "d": 1202.8968666666187,
      "v": 112
    },
    {
      "midi": 56,
      "hit": false,
      "t": 142615.74236666725,
      "d": 1239.128699999943,
      "v": 112
    },
    {
      "midi": 57,
      "hit": false,
      "t": 142630.23510000092,
      "d": 1217.389599999995,
      "v": 60
    },
    {
      "midi": 52,
      "hit": false,
      "t": 142637.48146666758,
      "d": 1231.882333333342,
      "v": 73
    },
    {
      "midi": 56,
      "hit": false,
      "t": 142644.72783333424,
      "d": 1202.896866666677,
      "v": 64
    },
    {
      "midi": 52,
      "hit": false,
      "t": 143485.30636666724,
      "d": 1065.215899999952,
      "v": 112
    },
    {
      "midi": 45,
      "hit": false,
      "t": 143912.84200000094,
      "d": 1420.2878666666802,
      "v": 48
    },
    {
      "midi": 76,
      "hit": false,
      "t": 143920.0883666672,
      "d": 333.3328666666639,
      "v": 112
    },
    {
      "midi": 52,
      "hit": false,
      "t": 143941.8274666676,
      "d": 963.7667666666675,
      "v": 66
    },
    {
      "midi": 61,
      "hit": false,
      "t": 143941.8274666676,
      "d": 1746.374366666685,
      "v": 54
    },
    {
      "midi": 64,
      "hit": false,
      "t": 143941.8274666676,
      "d": 2123.1854333333613,
      "v": 57
    },
    {
      "midi": 56,
      "hit": false,
      "t": 143949.07383333426,
      "d": 1949.2726333333703,
      "v": 57
    },
    {
      "midi": 73,
      "hit": false,
      "t": 144137.4793666672,
      "d": 268.11556666667457,
      "v": 112
    },
    {
      "midi": 74,
      "hit": false,
      "t": 144354.8703666672,
      "d": 202.89826666665613,
      "v": 112
    },
    {
      "midi": 45,
      "hit": false,
      "t": 144354.8703666672,
      "d": 521.738400000002,
      "v": 112
    },
    {
      "midi": 68,
      "hit": false,
      "t": 144572.2613666672,
      "d": 521.738400000002,
      "v": 112
    },
    {
      "midi": 73,
      "hit": false,
      "t": 144572.2613666672,
      "d": 521.738400000002,
      "v": 112
    },
    {
      "midi": 76,
      "hit": false,
      "t": 144572.2613666672,
      "d": 579.7093333333323,
      "v": 112
    },
    {
      "midi": 52,
      "hit": false,
      "t": 144789.6523666672,
      "d": 565.2166000000143,
      "v": 112
    },
    {
      "midi": 74,
      "hit": false,
      "t": 145007.0433666672,
      "d": 623.1875333333446,
      "v": 112
    },
    {
      "midi": 57,
      "hit": false,
      "t": 145224.4343666672,
      "d": 1007.2449666666798,
      "v": 112
    },
    {
      "midi": 52,
      "hit": false,
      "t": 145224.4343666676,
      "d": 420.2892666666594,
      "v": 79
    },
    {
      "midi": 61,
      "hit": false,
      "t": 145441.8253666672,
      "d": 521.738400000002,
      "v": 112
    },
    {
      "midi": 73,
      "hit": false,
      "t": 145441.8253666672,
      "d": 543.4775000000081,
      "v": 112
    },
    {
      "midi": 68,
      "hit": false,
      "t": 145441.8253666672,
      "d": 565.2166000000143,
      "v": 112
    },
    {
      "midi": 45,
      "hit": false,
      "t": 145666.46273333428,
      "d": 253.62283333335654,
      "v": 73
    },
    {
      "midi": 43,
      "hit": false,
      "t": 146086.75200000097,
      "d": 833.3321666666598,
      "v": 70
    },
    {
      "midi": 62,
      "hit": false,
      "t": 146093.99836666722,
      "d": 521.738400000002,
      "v": 112
    },
    {
      "midi": 55,
      "hit": false,
      "t": 146093.99836666722,
      "d": 3586.951500000112,
      "v": 112
    },
    {
      "midi": 59,
      "hit": false,
      "t": 146093.99836666722,
      "d": 3608.690600000118,
      "v": 112
    },
    {
      "midi": 45,
      "hit": false,
      "t": 146093.99836666722,
      "d": 3644.9224333334714,
      "v": 112
    },
    {
      "midi": 55,
      "hit": false,
      "t": 146101.24473333432,
      "d": 2362.3155333333707,
      "v": 67
    },
    {
      "midi": 62,
      "hit": false,
      "t": 146108.49110000097,
      "d": 1978.2581000000355,
      "v": 66
    },
    {
      "midi": 50,
      "hit": false,
      "t": 146115.73746666763,
      "d": 804.3466999999946,
      "v": 73
    },
    {
      "midi": 76,
      "hit": false,
      "t": 146528.78036666723,
      "d": 347.82560000001104,
      "v": 112
    },
    {
      "midi": 74,
      "hit": false,
      "t": 146746.17136666723,
      "d": 202.89826666668523,
      "v": 112
    },
    {
      "midi": 67,
      "hit": false,
      "t": 146963.56236666726,
      "d": 347.82560000001104,
      "v": 112
    },
    {
      "midi": 73,
      "hit": false,
      "t": 146963.56236666726,
      "d": 369.5647000000172,
      "v": 112
    },
    {
      "midi": 62,
      "hit": false,
      "t": 146963.56236666726,
      "d": 391.30380000002333,
      "v": 112
    },
    {
      "midi": 57,
      "hit": false,
      "t": 146963.56236666764,
      "d": 405.79653333334136,
      "v": 67
    },
    {
      "midi": 71,
      "hit": false,
      "t": 147180.95336666727,
      "d": 413.0429000000295,
      "v": 112
    },
    {
      "midi": 43,
      "hit": false,
      "t": 147391.098000001,
      "d": 1992.7508333333826,
      "v": 48
    },
    {
      "midi": 59,
      "hit": false,
      "t": 147412.837100001,
      "d": 999.9986000000208,
      "v": 70
    },
    {
      "midi": 50,
      "hit": false,
      "t": 147420.08346666765,
      "d": 1833.3307666667097,
      "v": 66
    },
    {
      "midi": 71,
      "hit": false,
      "t": 147615.7353666673,
      "d": 717.3902999999991,
      "v": 112
    },
    {
      "midi": 62,
      "hit": false,
      "t": 147615.7353666673,
      "d": 739.1294000000053,
      "v": 112
    },
    {
      "midi": 67,
      "hit": false,
      "t": 147615.7353666673,
      "d": 739.1294000000053,
      "v": 112
    },
    {
      "midi": 76,
      "hit": false,
      "t": 147615.7353666673,
      "d": 797.1003333333356,
      "v": 112
    },
    {
      "midi": 62,
      "hit": false,
      "t": 148253.41563333434,
      "d": 1188.404133333359,
      "v": 70
    },
    {
      "midi": 74,
      "hit": false,
      "t": 148267.9083666673,
      "d": 391.3037999999942,
      "v": 112
    },
    {
      "midi": 62,
      "hit": false,
      "t": 148485.2993666673,
      "d": 413.0429000000004,
      "v": 112
    },
    {
      "midi": 67,
      "hit": false,
      "t": 148485.2993666673,
      "d": 413.0429000000004,
      "v": 112
    },
    {
      "midi": 73,
      "hit": false,
      "t": 148485.2993666673,
      "d": 565.2166000000143,
      "v": 112
    },
    {
      "midi": 57,
      "hit": false,
      "t": 148702.6903666677,
      "d": 760.8685000000114,
      "v": 67
    },
    {
      "midi": 62,
      "hit": false,
      "t": 148920.08136666732,
      "d": 739.1294000000053,
      "v": 112
    },
    {
      "midi": 67,
      "hit": false,
      "t": 148920.08136666732,
      "d": 739.1294000000053,
      "v": 112
    },
    {
      "midi": 71,
      "hit": false,
      "t": 148920.08136666732,
      "d": 797.1003333333647,
      "v": 112
    },
    {
      "midi": 59,
      "hit": false,
      "t": 149159.2114666677,
      "d": 369.5646999999881,
      "v": 67
    },
    {
      "midi": 33,
      "hit": false,
      "t": 149572.25436666733,
      "d": 579.7093333333614,
      "v": 112
    },
    {
      "midi": 57,
      "hit": false,
      "t": 149586.74710000103,
      "d": 956.5204000000085,
      "v": 69
    },
    {
      "midi": 45,
      "hit": false,
      "t": 149586.74710000103,
      "d": 971.0131333333557,
      "v": 64
    },
    {
      "midi": 62,
      "hit": false,
      "t": 149593.99346666769,
      "d": 971.0131333333557,
      "v": 86
    },
    {
      "midi": 66,
      "hit": false,
      "t": 149608.48620000103,
      "d": 971.0131333333557,
      "v": 81
    },
    {
      "midi": 69,
      "hit": false,
      "t": 150007.03636666737,
      "d": 311.59376666665776,
      "v": 112
    },
    {
      "midi": 66,
      "hit": false,
      "t": 150007.03636666737,
      "d": 347.82559999998193,
      "v": 112
    },
    {
      "midi": 74,
      "hit": false,
      "t": 150007.03636666737,
      "d": 347.82559999998193,
      "v": 112
    },
    {
      "midi": 45,
      "hit": false,
      "t": 150007.03636666737,
      "d": 565.2165999999852,
      "v": 112
    },
    {
      "midi": 73,
      "hit": false,
      "t": 150224.42736666737,
      "d": 369.5646999999881,
      "v": 112
    },
    {
      "midi": 71,
      "hit": false,
      "t": 150441.81836666734,
      "d": 311.59376666665776,
      "v": 112
    },
    {
      "midi": 57,
      "hit": false,
      "t": 150441.81836666734,
      "d": 775.3612333333294,
      "v": 112
    },
    {
      "midi": 69,
      "hit": false,
      "t": 150659.20936666735,
      "d": 202.89826666665613,
      "v": 112
    },
    {
      "midi": 66,
      "hit": false,
      "t": 150876.60036666735,
      "d": 413.0429000000004,
      "v": 112
    },
    {
      "midi": 69,
      "hit": false,
      "t": 150876.60036666735,
      "d": 413.0429000000004,
      "v": 112
    },
    {
      "midi": 74,
      "hit": false,
      "t": 150876.60036666735,
      "d": 717.3902999999991,
      "v": 112
    },
    {
      "midi": 45,
      "hit": false,
      "t": 150876.60036666773,
      "d": 427.5356333333475,
      "v": 66
    },
    {
      "midi": 57,
      "hit": false,
      "t": 150891.09310000108,
      "d": 413.0429000000004,
      "v": 62
    },
    {
      "midi": 62,
      "hit": false,
      "t": 150891.09310000108,
      "d": 413.0429000000004,
      "v": 86
    },
    {
      "midi": 66,
      "hit": false,
      "t": 150905.58583333442,
      "d": 398.55016666665324,
      "v": 76
    },
    {
      "midi": 48,
      "hit": false,
      "t": 151311.38236666736,
      "d": 992.7522333333036,
      "v": 112
    },
    {
      "midi": 60,
      "hit": false,
      "t": 151311.38236666736,
      "d": 1007.2449666666507,
      "v": 112
    },
    {
      "midi": 65,
      "hit": false,
      "t": 151311.38236666736,
      "d": 1028.9840666666569,
      "v": 112
    },
    {
      "midi": 72,
      "hit": false,
      "t": 151311.38236666736,
      "d": 1028.9840666666569,
      "v": 112
    },
    {
      "midi": 69,
      "hit": false,
      "t": 151311.38236666736,
      "d": 1065.215899999981,
      "v": 112
    },
    {
      "midi": 57,
      "hit": false,
      "t": 151311.38236666736,
      "d": 1086.9549999999872,
      "v": 112
    },
    {
      "midi": 41,
      "hit": false,
      "t": 151311.38236666736,
      "d": 1123.1868333333114,
      "v": 112
    },
    {
      "midi": 57,
      "hit": false,
      "t": 151325.87510000108,
      "d": 746.3757666666643,
      "v": 69
    },
    {
      "midi": 41,
      "hit": false,
      "t": 151325.87510000108,
      "d": 760.8685000000114,
      "v": 64
    },
    {
      "midi": 60,
      "hit": false,
      "t": 151333.12146666774,
      "d": 760.8685000000114,
      "v": 86
    },
    {
      "midi": 65,
      "hit": false,
      "t": 151347.6142000011,
      "d": 804.3466999999946,
      "v": 81
    },
    {
      "midi": 43,
      "hit": false,
      "t": 152180.94636666734,
      "d": 826.0858000000007,
      "v": 112
    },
    {
      "midi": 50,
      "hit": false,
      "t": 152180.94636666734,
      "d": 826.0858000000007,
      "v": 112
    },
    {
      "midi": 59,
      "hit": false,
      "t": 152180.94636666734,
      "d": 826.0858000000007,
      "v": 112
    },
    {
      "midi": 62,
      "hit": false,
      "t": 152180.94636666734,
      "d": 826.0858000000007,
      "v": 112
    },
    {
      "midi": 67,
      "hit": false,
      "t": 152180.94636666734,
      "d": 826.0858000000007,
      "v": 112
    },
    {
      "midi": 71,
      "hit": false,
      "t": 152180.94636666734,
      "d": 826.0858000000007,
      "v": 112
    },
    {
      "midi": 74,
      "hit": false,
      "t": 152180.94636666734,
      "d": 826.0858000000007,
      "v": 112
    },
    {
      "midi": 59,
      "hit": false,
      "t": 152195.4391000011,
      "d": 746.3757666666643,
      "v": 69
    },
    {
      "midi": 43,
      "hit": false,
      "t": 152195.4391000011,
      "d": 760.8685000000114,
      "v": 64
    },
    {
      "midi": 62,
      "hit": false,
      "t": 152202.68546666775,
      "d": 760.8685000000114,
      "v": 86
    },
    {
      "midi": 67,
      "hit": false,
      "t": 152217.1782000011,
      "d": 804.3466999999946,
      "v": 81
    },
    {
      "midi": 45,
      "hit": false,
      "t": 153043.2640000011,
      "d": 1304.3460000000196,
      "v": 70
    },
    {
      "midi": 45,
      "hit": false,
      "t": 153050.51036666735,
      "d": 521.738400000002,
      "v": 112
    },
    {
      "midi": 64,
      "hit": false,
      "t": 153050.51036666735,
      "d": 775.3612333333294,
      "v": 112
    },
    {
      "midi": 76,
      "hit": false,
      "t": 153050.51036666735,
      "d": 775.3612333333294,
      "v": 112
    },
    {
      "midi": 73,
      "hit": false,
      "t": 153050.51036666735,
      "d": 797.1003333333356,
      "v": 112
    },
    {
      "midi": 57,
      "hit": false,
      "t": 153072.24946666777,
      "d": 1231.882333333342,
      "v": 73
    },
    {
      "midi": 61,
      "hit": false,
      "t": 153072.24946666777,
      "d": 1275.3605333333544,
      "v": 64
    },
    {
      "midi": 52,
      "hit": false,
      "t": 153485.29236666736,
      "d": 601.4484333333385,
      "v": 112
    },
    {
      "midi": 76,
      "hit": false,
      "t": 153920.07436666737,
      "d": 202.89826666665613,
      "v": 112
    },
    {
      "midi": 69,
      "hit": false,
      "t": 153920.07436666737,
      "d": 289.8546666666807,
      "v": 112
    },
    {
      "midi": 73,
      "hit": false,
      "t": 153920.07436666737,
      "d": 311.59376666668686,
      "v": 112
    },
    {
      "midi": 64,
      "hit": false,
      "t": 153920.07436666737,
      "d": 333.332866666693,
      "v": 112
    },
    {
      "midi": 61,
      "hit": false,
      "t": 153920.07436666737,
      "d": 949.2740333333786,
      "v": 112
    },
    {
      "midi": 76,
      "hit": false,
      "t": 154137.46536666737,
      "d": 543.4775000000373,
      "v": 112
    },
    {
      "midi": 45,
      "hit": false,
      "t": 154347.61000000112,
      "d": 1652.1716000000015,
      "v": 48
    },
    {
      "midi": 52,
      "hit": false,
      "t": 154376.5954666678,
      "d": 1623.1861333333363,
      "v": 66
    },
    {
      "midi": 61,
      "hit": false,
      "t": 154376.5954666678,
      "d": 1623.1861333333363,
      "v": 57
    },
    {
      "midi": 57,
      "hit": false,
      "t": 154383.84183333445,
      "d": 1615.9397666666773,
      "v": 57
    },
    {
      "midi": 64,
      "hit": false,
      "t": 154412.8273000011,
      "d": 2108.692699999985,
      "v": 60
    },
    {
      "midi": 64,
      "hit": false,
      "t": 154572.2473666674,
      "d": 717.3902999999991,
      "v": 112
    },
    {
      "midi": 69,
      "hit": false,
      "t": 154572.2473666674,
      "d": 717.3902999999991,
      "v": 112
    },
    {
      "midi": 74,
      "hit": false,
      "t": 154572.2473666674,
      "d": 739.1294000000053,
      "v": 112
    },
    {
      "midi": 45,
      "hit": false,
      "t": 154789.6383666674,
      "d": 565.2166000000143,
      "v": 112
    },
    {
      "midi": 73,
      "hit": false,
      "t": 155224.42036666741,
      "d": 202.89826666668523,
      "v": 112
    },
    {
      "midi": 52,
      "hit": false,
      "t": 155224.42036666741,
      "d": 521.7384000000311,
      "v": 112
    },
    {
      "midi": 69,
      "hit": false,
      "t": 155441.81136666745,
      "d": 333.3328666666639,
      "v": 112
    },
    {
      "midi": 64,
      "hit": false,
      "t": 155441.81136666745,
      "d": 369.5646999999881,
      "v": 112
    },
    {
      "midi": 74,
      "hit": false,
      "t": 155441.81136666745,
      "d": 565.2165999999852,
      "v": 112
    },
    {
      "midi": 61,
      "hit": false,
      "t": 155659.20236666745,
      "d": 543.477499999979,
      "v": 112
    },
    {
      "midi": 64,
      "hit": false,
      "t": 155876.59336666742,
      "d": 543.4775000000081,
      "v": 112
    },
    {
      "midi": 69,
      "hit": false,
      "t": 155876.59336666742,
      "d": 543.4775000000081,
      "v": 112
    },
    {
      "midi": 73,
      "hit": false,
      "t": 155876.59336666742,
      "d": 543.4775000000081,
      "v": 112
    },
    {
      "midi": 76,
      "hit": false,
      "t": 155876.59336666742,
      "d": 543.4775000000081,
      "v": 112
    },
    {
      "midi": 52,
      "hit": false,
      "t": 156086.73800000112,
      "d": 398.55016666665324,
      "v": 65
    },
    {
      "midi": 52,
      "hit": false,
      "t": 156093.98436666743,
      "d": 521.738400000002,
      "v": 112
    },
    {
      "midi": 45,
      "hit": false,
      "t": 156528.76636666743,
      "d": 579.7093333333323,
      "v": 112
    },
    {
      "midi": 52,
      "hit": false,
      "t": 156543.2591000011,
      "d": 956.5204000000085,
      "v": 69
    },
    {
      "midi": 45,
      "hit": false,
      "t": 156543.2591000011,
      "d": 971.0131333333557,
      "v": 64
    },
    {
      "midi": 56,
      "hit": false,
      "t": 156550.50546666776,
      "d": 971.0131333333557,
      "v": 86
    },
    {
      "midi": 61,
      "hit": false,
      "t": 156564.9982000011,
      "d": 971.0131333333557,
      "v": 81
    },
    {
      "midi": 76,
      "hit": false,
      "t": 156963.54836666744,
      "d": 202.89826666665613,
      "v": 112
    },
    {
      "midi": 73,
      "hit": false,
      "t": 156963.54836666744,
      "d": 311.59376666665776,
      "v": 112
    },
    {
      "midi": 68,
      "hit": false,
      "t": 156963.54836666744,
      "d": 333.3328666666639,
      "v": 112
    },
    {
      "midi": 52,
      "hit": false,
      "t": 156963.54836666744,
      "d": 579.7093333333323,
      "v": 112
    },
    {
      "midi": 78,
      "hit": false,
      "t": 157180.93936666744,
      "d": 775.3612333333294,
      "v": 112
    },
    {
      "midi": 61,
      "hit": false,
      "t": 157398.33036666745,
      "d": 797.1003333333356,
      "v": 112
    },
    {
      "midi": 68,
      "hit": false,
      "t": 157833.11236666745,
      "d": 289.8546666666516,
      "v": 112
    },
    {
      "midi": 76,
      "hit": false,
      "t": 157833.11236666745,
      "d": 333.3328666666639,
      "v": 112
    },
    {
      "midi": 52,
      "hit": false,
      "t": 157847.60510000112,
      "d": 101.44913333334262,
      "v": 69
    },
    {
      "midi": 45,
      "hit": false,
      "t": 157847.60510000112,
      "d": 115.94186666668975,
      "v": 64
    },
    {
      "midi": 55,
      "hit": false,
      "t": 157854.85146666778,
      "d": 1391.3024000000441,
      "v": 86
    },
    {
      "midi": 61,
      "hit": false,
      "t": 157869.34420000113,
      "d": 65.21729999998934,
      "v": 81
    },
    {
      "midi": 73,
      "hit": false,
      "t": 158050.50336666743,
      "d": 202.89826666668523,
      "v": 112
    },
    {
      "midi": 68,
      "hit": false,
      "t": 158231.6625333341,
      "d": 1782.6062000000384,
      "v": 112
    },
    {
      "midi": 74,
      "hit": false,
      "t": 158267.89436666746,
      "d": 202.89826666665613,
      "v": 112
    },
    {
      "midi": 61,
      "hit": false,
      "t": 158267.89436666746,
      "d": 949.2740333333495,
      "v": 112
    },
    {
      "midi": 45,
      "hit": false,
      "t": 158267.89436666746,
      "d": 1028.984066666686,
      "v": 112
    },
    {
      "midi": 52,
      "hit": false,
      "t": 159137.45836666747,
      "d": 579.7093333333323,
      "v": 112
    },
    {
      "midi": 45,
      "hit": false,
      "t": 159572.24036666748,
      "d": 413.0429000000004,
      "v": 112
    },
    {
      "midi": 45,
      "hit": false,
      "t": 159572.24036666783,
      "d": 427.5356333333475,
      "v": 66
    },
    {
      "midi": 52,
      "hit": false,
      "t": 159586.73310000118,
      "d": 413.0429000000004,
      "v": 62
    },
    {
      "midi": 55,
      "hit": false,
      "t": 159586.73310000118,
      "d": 413.0429000000004,
      "v": 86
    },
    {
      "midi": 61,
      "hit": false,
      "t": 159601.22583333452,
      "d": 398.55016666665324,
      "v": 76
    },
    {
      "midi": 69,
      "hit": false,
      "t": 160007.0223666675,
      "d": 28.98546666666516,
      "v": 112
    },
    {
      "midi": 76,
      "hit": false,
      "t": 160007.0223666675,
      "d": 28.98546666666516,
      "v": 112
    },
    {
      "midi": 66,
      "hit": false,
      "t": 160007.0223666675,
      "d": 1398.548766666674,
      "v": 112
    },
    {
      "midi": 45,
      "hit": false,
      "t": 160007.0223666675,
      "d": 1536.2297333333408,
      "v": 112
    },
    {
      "midi": 54,
      "hit": false,
      "t": 160007.0223666675,
      "d": 1550.722466666688,
      "v": 112
    },
    {
      "midi": 59,
      "hit": false,
      "t": 160007.0223666675,
      "d": 1594.2006666667003,
      "v": 112
    },
    {
      "midi": 57,
      "hit": false,
      "t": 160021.51510000118,
      "d": 956.5204000000085,
      "v": 69
    },
    {
      "midi": 45,
      "hit": false,
      "t": 160021.51510000118,
      "d": 971.0131333333557,
      "v": 64
    },
    {
      "midi": 59,
      "hit": false,
      "t": 160028.76146666784,
      "d": 971.0131333333557,
      "v": 86
    },
    {
      "midi": 66,
      "hit": false,
      "t": 160043.2542000012,
      "d": 971.0131333333557,
      "v": 81
    },
    {
      "midi": 74,
      "hit": false,
      "t": 160224.4133666675,
      "d": 623.1875333333446,
      "v": 112
    },
    {
      "midi": 73,
      "hit": false,
      "t": 160659.1953666675,
      "d": 579.7093333333323,
      "v": 112
    },
    {
      "midi": 71,
      "hit": false,
      "t": 161093.9773666675,
      "d": 565.2166000000143,
      "v": 112
    },
    {
      "midi": 57,
      "hit": false,
      "t": 161325.8611000012,
      "d": 101.44913333334262,
      "v": 69
    },
    {
      "midi": 45,
      "hit": false,
      "t": 161325.8611000012,
      "d": 115.94186666668975,
      "v": 64
    },
    {
      "midi": 59,
      "hit": false,
      "t": 161333.10746666786,
      "d": 94.2027666666836,
      "v": 86
    },
    {
      "midi": 65,
      "hit": false,
      "t": 161347.6002000012,
      "d": 1391.302400000015,
      "v": 81
    },
    {
      "midi": 76,
      "hit": false,
      "t": 161528.75936666748,
      "d": 579.7093333333614,
      "v": 112
    },
    {
      "midi": 65,
      "hit": false,
      "t": 161528.75936666748,
      "d": 2094.1999666667252,
      "v": 112
    },
    {
      "midi": 53,
      "hit": false,
      "t": 161746.1503666675,
      "d": 1862.3162333333457,
      "v": 112
    },
    {
      "midi": 59,
      "hit": false,
      "t": 161746.1503666675,
      "d": 1862.3162333333457,
      "v": 112
    },
    {
      "midi": 74,
      "hit": false,
      "t": 161963.54136666752,
      "d": 659.4193666666688,
      "v": 112
    },
    {
      "midi": 73,
      "hit": false,
      "t": 162398.32336666752,
      "d": 1050.723166666663,
      "v": 112
    },
    {
      "midi": 45,
      "hit": false,
      "t": 163050.49636666788,
      "d": 427.5356333333475,
      "v": 66
    },
    {
      "midi": 57,
      "hit": false,
      "t": 163064.98910000123,
      "d": 413.0429000000004,
      "v": 62
    },
    {
      "midi": 59,
      "hit": false,
      "t": 163064.98910000123,
      "d": 413.0429000000004,
      "v": 86
    },
    {
      "midi": 65,
      "hit": false,
      "t": 163079.48183333458,
      "d": 398.55016666665324,
      "v": 76
    },
    {
      "midi": 71,
      "hit": false,
      "t": 163267.8873666675,
      "d": 333.332866666693,
      "v": 112
    },
    {
      "midi": 45,
      "hit": false,
      "t": 163478.03200000123,
      "d": 1130.4331999999995,
      "v": 70
    },
    {
      "midi": 69,
      "hit": false,
      "t": 163485.2783666675,
      "d": 57.97093333333032,
      "v": 112
    },
    {
      "midi": 45,
      "hit": false,
      "t": 163485.2783666675,
      "d": 101.44913333334262,
      "v": 112
    },
    {
      "midi": 64,
      "hit": false,
      "t": 163485.2783666675,
      "d": 463.7674666667008,
      "v": 112
    },
    {
      "midi": 74,
      "hit": false,
      "t": 163485.2783666675,
      "d": 521.7384000000311,
      "v": 112
    },
    {
      "midi": 61,
      "hit": false,
      "t": 163485.2783666675,
      "d": 543.4775000000373,
      "v": 112
    },
    {
      "midi": 52,
      "hit": false,
      "t": 163485.2783666675,
      "d": 3471.009633333335,
      "v": 112
    },
    {
      "midi": 61,
      "hit": false,
      "t": 163499.77110000124,
      "d": 1217.389599999995,
      "v": 60
    },
    {
      "midi": 52,
      "hit": false,
      "t": 163507.0174666679,
      "d": 1231.882333333342,
      "v": 73
    },
    {
      "midi": 57,
      "hit": false,
      "t": 163514.26383333455,
      "d": 1202.896866666677,
      "v": 64
    },
    {
      "midi": 73,
      "hit": false,
      "t": 163920.06036666755,
      "d": 333.3328666666639,
      "v": 112
    },
    {
      "midi": 69,
      "hit": false,
      "t": 164137.45136666755,
      "d": 797.1003333333065,
      "v": 112
    },
    {
      "midi": 64,
      "hit": false,
      "t": 164137.45136666755,
      "d": 811.5930666666536,
      "v": 112
    },
    {
      "midi": 71,
      "hit": false,
      "t": 164173.68320000087,
      "d": 797.1003333333356,
      "v": 112
    },
    {
      "midi": 45,
      "hit": false,
      "t": 164782.37800000125,
      "d": 1507.2442666666757,
      "v": 48
    },
    {
      "midi": 74,
      "hit": false,
      "t": 164789.62436666753,
      "d": 413.0429000000004,
      "v": 112
    },
    {
      "midi": 52,
      "hit": false,
      "t": 164811.3634666679,
      "d": 818.8394333333417,
      "v": 66
    },
    {
      "midi": 61,
      "hit": false,
      "t": 164811.3634666679,
      "d": 2021.7362999999896,
      "v": 54
    },
    {
      "midi": 64,
      "hit": false,
      "t": 164811.3634666679,
      "d": 2036.2290333333367,
      "v": 57
    },
    {
      "midi": 57,
      "hit": false,
      "t": 164818.60983333457,
      "d": 1101.4477333333634,
      "v": 57
    },
    {
      "midi": 74,
      "hit": false,
      "t": 165224.40636666754,
      "d": 347.82560000001104,
      "v": 112
    },
    {
      "midi": 73,
      "hit": false,
      "t": 165441.79736666754,
      "d": 369.5646999999881,
      "v": 112
    },
    {
      "midi": 64,
      "hit": false,
      "t": 165659.18836666754,
      "d": 1239.128699999972,
      "v": 112
    },
    {
      "midi": 69,
      "hit": false,
      "t": 165659.18836666754,
      "d": 1239.128699999972,
      "v": 112
    },
    {
      "midi": 49,
      "hit": false,
      "t": 165673.68110000127,
      "d": 1231.882333333313,
      "v": 64
    },
    {
      "midi": 71,
      "hit": false,
      "t": 165695.42020000087,
      "d": 1166.6650333333237,
      "v": 112
    },
    {
      "midi": 52,
      "hit": false,
      "t": 166093.97036666793,
      "d": 702.897566666652,
      "v": 79
    },
    {
      "midi": 45,
      "hit": false,
      "t": 166535.9987333346,
      "d": 318.84013333331677,
      "v": 73
    },
    {
      "midi": 57,
      "hit": false,
      "t": 166927.30253333418,
      "d": 3608.6906000000017,
      "v": 112
    },
    {
      "midi": 53,
      "hit": false,
      "t": 166963.5343666675,
      "d": 3644.922433333355,
      "v": 112
    },
    {
      "midi": 43,
      "hit": false,
      "t": 166963.5343666675,
      "d": 3702.8933666666853,
      "v": 112
    },
    {
      "midi": 59,
      "hit": false,
      "t": 166963.5343666675,
      "d": 3702.8933666666853,
      "v": 112
    },
    {
      "midi": 57,
      "hit": false,
      "t": 166978.02710000126,
      "d": 956.5204000000085,
      "v": 69
    },
    {
      "midi": 43,
      "hit": false,
      "t": 166978.02710000126,
      "d": 971.0131333333557,
      "v": 64
    },
    {
      "midi": 59,
      "hit": false,
      "t": 166992.5198333346,
      "d": 1210.143233333336,
      "v": 60
    },
    {
      "midi": 71,
      "hit": false,
      "t": 167833.09836666752,
      "d": 202.89826666665613,
      "v": 112
    },
    {
      "midi": 71,
      "hit": false,
      "t": 168050.48936666752,
      "d": 1028.9840666666569,
      "v": 112
    },
    {
      "midi": 43,
      "hit": false,
      "t": 168267.88036666793,
      "d": 1702.896166666702,
      "v": 66
    },
    {
      "midi": 57,
      "hit": false,
      "t": 168282.37310000128,
      "d": 1688.4034333333548,
      "v": 62
    },
    {
      "midi": 59,
      "hit": false,
      "t": 168282.37310000128,
      "d": 1688.4034333333548,
      "v": 86
    },
    {
      "midi": 65,
      "hit": false,
      "t": 168296.86583333462,
      "d": 2007.2435666666715,
      "v": 76
    },
    {
      "midi": 72,
      "hit": false,
      "t": 169137.4443666675,
      "d": 826.0858000000007,
      "v": 112
    },
    {
      "midi": 71,
      "hit": false,
      "t": 170007.00836666752,
      "d": 601.4484333333385,
      "v": 112
    },
    {
      "midi": 57,
      "hit": false,
      "t": 170021.5011000013,
      "d": 369.5646999999881,
      "v": 69
    },
    {
      "midi": 40,
      "hit": false,
      "t": 170434.5440000013,
      "d": 1130.4331999999995,
      "v": 70
    },
    {
      "midi": 64,
      "hit": false,
      "t": 170441.79036666753,
      "d": 992.7522333333327,
      "v": 112
    },
    {
      "midi": 56,
      "hit": false,
      "t": 170441.79036666753,
      "d": 1028.9840666666569,
      "v": 112
    },
    {
      "midi": 52,
      "hit": false,
      "t": 170441.79036666753,
      "d": 3471.009633333335,
      "v": 112
    },
    {
      "midi": 64,
      "hit": false,
      "t": 170456.2831000013,
      "d": 1217.389599999995,
      "v": 60
    },
    {
      "midi": 56,
      "hit": false,
      "t": 170463.52946666797,
      "d": 1231.882333333342,
      "v": 73
    },
    {
      "midi": 59,
      "hit": false,
      "t": 170470.77583333463,
      "d": 1202.896866666677,
      "v": 64
    },
    {
      "midi": 40,
      "hit": false,
      "t": 170876.57236666753,
      "d": 2891.3003000000026,
      "v": 112
    },
    {
      "midi": 62,
      "hit": false,
      "t": 171311.35436666754,
      "d": 579.7093333333032,
      "v": 112
    },
    {
      "midi": 40,
      "hit": false,
      "t": 171738.89000000132,
      "d": 1420.2878666666802,
      "v": 48
    },
    {
      "midi": 64,
      "hit": false,
      "t": 171746.13636666752,
      "d": 1434.7806000000273,
      "v": 112
    },
    {
      "midi": 56,
      "hit": false,
      "t": 171767.875466668,
      "d": 963.7667666666675,
      "v": 66
    },
    {
      "midi": 64,
      "hit": false,
      "t": 171767.875466668,
      "d": 1746.374366666685,
      "v": 54
    },
    {
      "midi": 68,
      "hit": false,
      "t": 171767.875466668,
      "d": 2123.1854333333613,
      "v": 57
    },
    {
      "midi": 59,
      "hit": false,
      "t": 171775.12183333465,
      "d": 1949.2726333333703,
      "v": 57
    },
    {
      "midi": 72,
      "hit": false,
      "t": 172180.91836666752,
      "d": 1065.2159000000102,
      "v": 112
    },
    {
      "midi": 71,
      "hit": false,
      "t": 173050.48236666754,
      "d": 985.5058666666446,
      "v": 112
    },
    {
      "midi": 62,
      "hit": false,
      "t": 173050.48236666754,
      "d": 1007.2449666666507,
      "v": 112
    },
    {
      "midi": 56,
      "hit": false,
      "t": 173050.482366668,
      "d": 420.2892666666594,
      "v": 79
    },
    {
      "midi": 40,
      "hit": false,
      "t": 173492.51073333467,
      "d": 253.62283333335654,
      "v": 73
    },
    {
      "midi": 45,
      "hit": false,
      "t": 173912.80000000136,
      "d": 1304.3460000000196,
      "v": 70
    },
    {
      "midi": 45,
      "hit": false,
      "t": 173920.04636666752,
      "d": 985.5058666666737,
      "v": 112
    },
    {
      "midi": 33,
      "hit": false,
      "t": 173920.04636666752,
      "d": 1043.476800000004,
      "v": 112
    },
    {
      "midi": 57,
      "hit": false,
      "t": 173941.78546666802,
      "d": 1231.882333333342,
      "v": 73
    },
    {
      "midi": 60,
      "hit": false,
      "t": 173941.78546666802,
      "d": 1275.3605333333544,
      "v": 64
    },
    {
      "midi": 64,
      "hit": false,
      "t": 174137.43736666752,
      "d": 202.89826666665613,
      "v": 112
    },
    {
      "midi": 72,
      "hit": false,
      "t": 174137.43736666752,
      "d": 202.89826666665613,
      "v": 112
    },
    {
      "midi": 64,
      "hit": false,
      "t": 174354.82836666753,
      "d": 297.1010333333397,
      "v": 112
    },
    {
      "midi": 72,
      "hit": false,
      "t": 174354.82836666753,
      "d": 297.1010333333397,
      "v": 112
    },
    {
      "midi": 60,
      "hit": false,
      "t": 174572.21936666753,
      "d": 202.89826666665613,
      "v": 112
    },
    {
      "midi": 69,
      "hit": false,
      "t": 174572.21936666753,
      "d": 202.89826666665613,
      "v": 112
    },
    {
      "midi": 60,
      "hit": false,
      "t": 174789.61036666753,
      "d": 826.0858000000007,
      "v": 112
    },
    {
      "midi": 64,
      "hit": false,
      "t": 174789.61036666753,
      "d": 826.0858000000007,
      "v": 112
    },
    {
      "midi": 69,
      "hit": false,
      "t": 174789.61036666753,
      "d": 971.0131333333557,
      "v": 112
    },
    {
      "midi": 72,
      "hit": false,
      "t": 174789.61036666753,
      "d": 971.0131333333557,
      "v": 112
    },
    {
      "midi": 57,
      "hit": false,
      "t": 174789.61036666753,
      "d": 1007.2449666666798,
      "v": 112
    },
    {
      "midi": 45,
      "hit": false,
      "t": 175217.14600000138,
      "d": 1652.1716000000015,
      "v": 48
    },
    {
      "midi": 52,
      "hit": false,
      "t": 175246.13146666804,
      "d": 1623.1861333333363,
      "v": 66
    },
    {
      "midi": 60,
      "hit": false,
      "t": 175246.13146666804,
      "d": 1623.1861333333363,
      "v": 57
    },
    {
      "midi": 57,
      "hit": false,
      "t": 175253.3778333347,
      "d": 1615.9397666666773,
      "v": 57
    },
    {
      "midi": 64,
      "hit": false,
      "t": 175282.36330000137,
      "d": 2108.692699999985,
      "v": 60
    },
    {
      "midi": 45,
      "hit": false,
      "t": 175659.17436666755,
      "d": 579.7093333333323,
      "v": 112
    },
    {
      "midi": 60,
      "hit": false,
      "t": 175659.17436666755,
      "d": 818.8394333333417,
      "v": 112
    },
    {
      "midi": 64,
      "hit": false,
      "t": 175659.17436666755,
      "d": 1007.2449666666798,
      "v": 112
    },
    {
      "midi": 52,
      "hit": false,
      "t": 176093.95636666755,
      "d": 579.7093333333323,
      "v": 112
    },
    {
      "midi": 69,
      "hit": false,
      "t": 176528.73836666756,
      "d": 594.2020666666795,
      "v": 112
    },
    {
      "midi": 60,
      "hit": false,
      "t": 176528.73836666756,
      "d": 934.7813000000024,
      "v": 112
    },
    {
      "midi": 52,
      "hit": false,
      "t": 176956.27400000137,
      "d": 398.55016666665324,
      "v": 65
    },
    {
      "midi": 67,
      "hit": false,
      "t": 176963.52036666757,
      "d": 521.738400000002,
      "v": 112
    },
    {
      "midi": 41,
      "hit": false,
      "t": 177391.05600000135,
      "d": 1130.4331999999995,
      "v": 70
    },
    {
      "midi": 41,
      "hit": false,
      "t": 177398.30236666757,
      "d": 594.2020666666795,
      "v": 112
    },
    {
      "midi": 65,
      "hit": false,
      "t": 177412.79510000136,
      "d": 1217.389599999995,
      "v": 60
    },
    {
      "midi": 57,
      "hit": false,
      "t": 177420.04146666802,
      "d": 1231.882333333342,
      "v": 73
    },
    {
      "midi": 60,
      "hit": false,
      "t": 177427.28783333467,
      "d": 1202.896866666677,
      "v": 64
    },
    {
      "midi": 65,
      "hit": false,
      "t": 177615.69336666758,
      "d": 202.89826666665613,
      "v": 112
    },
    {
      "midi": 57,
      "hit": false,
      "t": 177615.69336666758,
      "d": 355.07196666667005,
      "v": 112
    },
    {
      "midi": 60,
      "hit": false,
      "t": 177615.69336666758,
      "d": 391.30380000002333,
      "v": 112
    },
    {
      "midi": 65,
      "hit": false,
      "t": 177833.08436666758,
      "d": 202.89826666668523,
      "v": 112
    },
    {
      "midi": 48,
      "hit": false,
      "t": 177833.08436666758,
      "d": 579.7093333333614,
      "v": 112
    },
    {
      "midi": 65,
      "hit": false,
      "t": 178050.4753666676,
      "d": 202.89826666665613,
      "v": 112
    },
    {
      "midi": 53,
      "hit": false,
      "t": 178267.86636666761,
      "d": 594.2020666666795,
      "v": 112
    },
    {
      "midi": 60,
      "hit": false,
      "t": 178267.86636666761,
      "d": 782.6076000000176,
      "v": 112
    },
    {
      "midi": 65,
      "hit": false,
      "t": 178267.86636666761,
      "d": 782.6076000000176,
      "v": 112
    },
    {
      "midi": 57,
      "hit": false,
      "t": 178267.86636666761,
      "d": 818.8394333333417,
      "v": 112
    },
    {
      "midi": 41,
      "hit": false,
      "t": 178695.40200000137,
      "d": 1420.2878666666802,
      "v": 48
    },
    {
      "midi": 41,
      "hit": false,
      "t": 178702.64836666762,
      "d": 2478.2574000000604,
      "v": 112
    },
    {
      "midi": 57,
      "hit": false,
      "t": 178724.38746666803,
      "d": 963.7667666666675,
      "v": 66
    },
    {
      "midi": 65,
      "hit": false,
      "t": 178724.38746666803,
      "d": 1746.374366666685,
      "v": 54
    },
    {
      "midi": 69,
      "hit": false,
      "t": 178724.38746666803,
      "d": 2123.1854333333613,
      "v": 57
    },
    {
      "midi": 60,
      "hit": false,
      "t": 178731.6338333347,
      "d": 1949.2726333333703,
      "v": 57
    },
    {
      "midi": 60,
      "hit": false,
      "t": 179137.43036666763,
      "d": 826.0858000000007,
      "v": 112
    },
    {
      "midi": 65,
      "hit": false,
      "t": 179137.43036666763,
      "d": 826.0858000000007,
      "v": 112
    },
    {
      "midi": 69,
      "hit": false,
      "t": 179137.43036666763,
      "d": 826.0858000000007,
      "v": 112
    },
    {
      "midi": 60,
      "hit": false,
      "t": 180006.99436666764,
      "d": 1007.2449666666798,
      "v": 112
    },
    {
      "midi": 65,
      "hit": false,
      "t": 180006.99436666764,
      "d": 1007.2449666666798,
      "v": 112
    },
    {
      "midi": 69,
      "hit": false,
      "t": 180006.99436666764,
      "d": 1007.2449666666798,
      "v": 112
    },
    {
      "midi": 72,
      "hit": false,
      "t": 180006.99436666764,
      "d": 1021.737700000027,
      "v": 112
    },
    {
      "midi": 57,
      "hit": false,
      "t": 180006.99436666805,
      "d": 420.2892666666594,
      "v": 79
    },
    {
      "midi": 41,
      "hit": false,
      "t": 180449.0227333347,
      "d": 253.62283333335654,
      "v": 73
    },
    {
      "midi": 43,
      "hit": false,
      "t": 180876.55836666765,
      "d": 557.9702333333553,
      "v": 112
    },
    {
      "midi": 59,
      "hit": false,
      "t": 180876.55836666765,
      "d": 760.8685000000114,
      "v": 112
    },
    {
      "midi": 59,
      "hit": false,
      "t": 180891.0511000014,
      "d": 956.5204000000085,
      "v": 69
    },
    {
      "midi": 43,
      "hit": false,
      "t": 180891.0511000014,
      "d": 971.0131333333557,
      "v": 64
    },
    {
      "midi": 62,
      "hit": false,
      "t": 180898.29746666807,
      "d": 971.0131333333557,
      "v": 86
    },
    {
      "midi": 67,
      "hit": false,
      "t": 180912.79020000141,
      "d": 971.0131333333557,
      "v": 81
    },
    {
      "midi": 50,
      "hit": false,
      "t": 181311.3403666677,
      "d": 557.9702333332971,
      "v": 112
    },
    {
      "midi": 71,
      "hit": false,
      "t": 181746.12236666767,
      "d": 202.89826666665613,
      "v": 112
    },
    {
      "midi": 67,
      "hit": false,
      "t": 181746.12236666767,
      "d": 318.8401333333459,
      "v": 112
    },
    {
      "midi": 62,
      "hit": false,
      "t": 181746.12236666767,
      "d": 391.30380000002333,
      "v": 112
    },
    {
      "midi": 59,
      "hit": false,
      "t": 181746.12236666767,
      "d": 594.2020666667086,
      "v": 112
    },
    {
      "midi": 71,
      "hit": false,
      "t": 181963.51336666767,
      "d": 202.89826666668523,
      "v": 112
    },
    {
      "midi": 71,
      "hit": false,
      "t": 182180.9043666677,
      "d": 202.89826666668523,
      "v": 112
    },
    {
      "midi": 50,
      "hit": false,
      "t": 182180.9043666677,
      "d": 543.4775000000373,
      "v": 112
    },
    {
      "midi": 43,
      "hit": false,
      "t": 182180.9043666681,
      "d": 1673.9107000000367,
      "v": 66
    },
    {
      "midi": 59,
      "hit": false,
      "t": 182195.39710000146,
      "d": 1659.4179666666896,
      "v": 62
    },
    {
      "midi": 62,
      "hit": false,
      "t": 182195.39710000146,
      "d": 1659.4179666666896,
      "v": 86
    },
    {
      "midi": 67,
      "hit": false,
      "t": 182209.8898333348,
      "d": 2065.214500000002,
      "v": 76
    },
    {
      "midi": 67,
      "hit": false,
      "t": 182398.29536666773,
      "d": 1362.3169333333208,
      "v": 112
    },
    {
      "midi": 71,
      "hit": false,
      "t": 182398.29536666773,
      "d": 1362.3169333333208,
      "v": 112
    },
    {
      "midi": 62,
      "hit": false,
      "t": 182398.29536666773,
      "d": 1413.041499999992,
      "v": 112
    },
    {
      "midi": 43,
      "hit": false,
      "t": 182615.68636666774,
      "d": 557.9702333333262,
      "v": 112
    },
    {
      "midi": 50,
      "hit": false,
      "t": 183050.46836666774,
      "d": 652.1729999999807,
      "v": 112
    },
    {
      "midi": 71,
      "hit": false,
      "t": 183920.03236666773,
      "d": 202.89826666665613,
      "v": 112
    },
    {
      "midi": 59,
      "hit": false,
      "t": 183941.77146666814,
      "d": 355.07196666667005,
      "v": 69
    },
    {
      "midi": 71,
      "hit": false,
      "t": 184137.42336666773,
      "d": 318.84013333331677,
      "v": 112
    },
    {
      "midi": 40,
      "hit": false,
      "t": 184347.56800000148,
      "d": 1304.3460000000196,
      "v": 70
    },
    {
      "midi": 59,
      "hit": false,
      "t": 184354.81436666774,
      "d": 115.94186666666064,
      "v": 112
    },
    {
      "midi": 62,
      "hit": false,
      "t": 184354.81436666774,
      "d": 202.89826666665613,
      "v": 112
    },
    {
      "midi": 55,
      "hit": false,
      "t": 184354.81436666774,
      "d": 333.3328666666348,
      "v": 112
    },
    {
      "midi": 40,
      "hit": false,
      "t": 184354.81436666774,
      "d": 615.9411666666565,
      "v": 112
    },
    {
      "midi": 55,
      "hit": false,
      "t": 184376.55346666815,
      "d": 1231.882333333342,
      "v": 73
    },
    {
      "midi": 59,
      "hit": false,
      "t": 184376.55346666815,
      "d": 1275.3605333333544,
      "v": 64
    },
    {
      "midi": 64,
      "hit": false,
      "t": 184391.04620000106,
      "d": 173.91279999999097,
      "v": 112
    },
    {
      "midi": 64,
      "hit": false,
      "t": 184572.2053666677,
      "d": 202.89826666665613,
      "v": 112
    },
    {
      "midi": 64,
      "hit": false,
      "t": 184789.5963666677,
      "d": 202.89826666668523,
      "v": 112
    },
    {
      "midi": 47,
      "hit": false,
      "t": 184789.5963666677,
      "d": 543.4775000000373,
      "v": 112
    },
    {
      "midi": 62,
      "hit": false,
      "t": 185006.98736666774,
      "d": 1021.7376999999979,
      "v": 112
    },
    {
      "midi": 59,
      "hit": false,
      "t": 185006.98736666774,
      "d": 1057.969533333322,
      "v": 112
    },
    {
      "midi": 64,
      "hit": false,
      "t": 185043.21920000107,
      "d": 985.5058666666737,
      "v": 112
    },
    {
      "midi": 55,
      "hit": false,
      "t": 185224.37836666775,
      "d": 543.4775000000081,
      "v": 112
    },
    {
      "midi": 40,
      "hit": false,
      "t": 185651.9140000015,
      "d": 1652.1716000000015,
      "v": 48
    },
    {
      "midi": 47,
      "hit": false,
      "t": 185659.16036666775,
      "d": 594.2020666666504,
      "v": 112
    },
    {
      "midi": 52,
      "hit": false,
      "t": 185680.89946666817,
      "d": 1623.1861333333363,
      "v": 66
    },
    {
      "midi": 59,
      "hit": false,
      "t": 185680.89946666817,
      "d": 1623.1861333333363,
      "v": 57
    },
    {
      "midi": 62,
      "hit": false,
      "t": 185680.89946666817,
      "d": 1623.1861333333363,
      "v": 54
    },
    {
      "midi": 55,
      "hit": false,
      "t": 185688.14583333483,
      "d": 1615.9397666666773,
      "v": 57
    },
    {
      "midi": 64,
      "hit": false,
      "t": 185717.1313000015,
      "d": 2108.692699999985,
      "v": 60
    },
    {
      "midi": 40,
      "hit": false,
      "t": 186093.94236666773,
      "d": 1101.4477333333343,
      "v": 112
    },
    {
      "midi": 67,
      "hit": false,
      "t": 186093.94236666773,
      "d": 1768.1134666666912,
      "v": 112
    },
    {
      "midi": 71,
      "hit": false,
      "t": 186093.94236666773,
      "d": 1768.1134666666912,
      "v": 112
    },
    {
      "midi": 74,
      "hit": false,
      "t": 186093.94236666773,
      "d": 1768.1134666666912,
      "v": 112
    },
    {
      "midi": 79,
      "hit": false,
      "t": 186093.94236666773,
      "d": 1768.1134666666912,
      "v": 112
    },
    {
      "midi": 55,
      "hit": false,
      "t": 186963.50636666775,
      "d": 826.0858000000007,
      "v": 112
    },
    {
      "midi": 52,
      "hit": false,
      "t": 187391.0420000015,
      "d": 398.55016666665324,
      "v": 65
    },
    {
      "midi": 41,
      "hit": false,
      "t": 187833.07036666776,
      "d": 1898.548066666699,
      "v": 112
    },
    {
      "midi": 57,
      "hit": false,
      "t": 187847.56310000148,
      "d": 956.5204000000085,
      "v": 69
    },
    {
      "midi": 41,
      "hit": false,
      "t": 187847.56310000148,
      "d": 971.0131333333557,
      "v": 64
    },
    {
      "midi": 60,
      "hit": false,
      "t": 187854.80946666814,
      "d": 971.0131333333557,
      "v": 86
    },
    {
      "midi": 65,
      "hit": false,
      "t": 187869.3022000015,
      "d": 971.0131333333557,
      "v": 81
    },
    {
      "midi": 48,
      "hit": false,
      "t": 188267.85236666776,
      "d": 1231.882333333342,
      "v": 112
    },
    {
      "midi": 69,
      "hit": false,
      "t": 188702.63436666777,
      "d": 202.89826666665613,
      "v": 112
    },
    {
      "midi": 60,
      "hit": false,
      "t": 188702.63436666777,
      "d": 333.3328666666639,
      "v": 112
    },
    {
      "midi": 65,
      "hit": false,
      "t": 188702.63436666777,
      "d": 369.5646999999881,
      "v": 112
    },
    {
      "midi": 69,
      "hit": false,
      "t": 188920.02536666777,
      "d": 202.89826666665613,
      "v": 112
    },
    {
      "midi": 69,
      "hit": false,
      "t": 189137.41636666778,
      "d": 413.0429000000004,
      "v": 112
    },
    {
      "midi": 41,
      "hit": false,
      "t": 189137.41636666819,
      "d": 1673.9107000000367,
      "v": 66
    },
    {
      "midi": 57,
      "hit": false,
      "t": 189151.90910000153,
      "d": 1659.4179666666896,
      "v": 62
    },
    {
      "midi": 60,
      "hit": false,
      "t": 189151.90910000153,
      "d": 1659.4179666666896,
      "v": 86
    },
    {
      "midi": 65,
      "hit": false,
      "t": 189166.40183333488,
      "d": 2065.214500000002,
      "v": 76
    },
    {
      "midi": 60,
      "hit": false,
      "t": 189572.19836666778,
      "d": 1840.5771333333396,
      "v": 112
    },
    {
      "midi": 65,
      "hit": false,
      "t": 189572.19836666778,
      "d": 1862.3162333333457,
      "v": 112
    },
    {
      "midi": 57,
      "hit": false,
      "t": 189572.19836666778,
      "d": 1898.54806666667,
      "v": 112
    },
    {
      "midi": 69,
      "hit": false,
      "t": 189572.19836666778,
      "d": 1898.54806666667,
      "v": 112
    },
    {
      "midi": 57,
      "hit": false,
      "t": 190898.28346666822,
      "d": 355.07196666667005,
      "v": 69
    },
    {
      "midi": 35,
      "hit": false,
      "t": 191311.32636666778,
      "d": 615.9411666666856,
      "v": 112
    },
    {
      "midi": 54,
      "hit": false,
      "t": 191325.81910000156,
      "d": 956.5204000000085,
      "v": 69
    },
    {
      "midi": 47,
      "hit": false,
      "t": 191325.81910000156,
      "d": 971.0131333333557,
      "v": 64
    },
    {
      "midi": 57,
      "hit": false,
      "t": 191340.3118333349,
      "d": 1210.143233333336,
      "v": 60
    },
    {
      "midi": 42,
      "hit": false,
      "t": 191746.1083666678,
      "d": 630.4339000000036,
      "v": 112
    },
    {
      "midi": 59,
      "hit": false,
      "t": 191963.4993666678,
      "d": 333.3328666666639,
      "v": 112
    },
    {
      "midi": 63,
      "hit": false,
      "t": 192180.8903666678,
      "d": 282.6082999999926,
      "v": 112
    },
    {
      "midi": 57,
      "hit": false,
      "t": 192180.8903666678,
      "d": 391.3037999999942,
      "v": 112
    },
    {
      "midi": 47,
      "hit": false,
      "t": 192180.8903666678,
      "d": 1884.0553333333519,
      "v": 112
    },
    {
      "midi": 63,
      "hit": false,
      "t": 192477.99140000113,
      "d": 282.6082999999926,
      "v": 112
    },
    {
      "midi": 47,
      "hit": false,
      "t": 192615.67236666824,
      "d": 1702.896166666702,
      "v": 66
    },
    {
      "midi": 54,
      "hit": false,
      "t": 192630.16510000158,
      "d": 1688.4034333333548,
      "v": 62
    },
    {
      "midi": 57,
      "hit": false,
      "t": 192630.16510000158,
      "d": 1688.4034333333548,
      "v": 86
    },
    {
      "midi": 63,
      "hit": false,
      "t": 192644.65783333493,
      "d": 2007.2435666666715,
      "v": 76
    },
    {
      "midi": 63,
      "hit": false,
      "t": 192767.8460666678,
      "d": 268.11556666667457,
      "v": 112
    },
    {
      "midi": 63,
      "hit": false,
      "t": 193050.4543666678,
      "d": 1173.9114000000118,
      "v": 112
    },
    {
      "midi": 57,
      "hit": false,
      "t": 193050.4543666678,
      "d": 1188.404133333359,
      "v": 112
    },
    {
      "midi": 35,
      "hit": false,
      "t": 193920.01836666782,
      "d": 1079.7086333333573,
      "v": 112
    },
    {
      "midi": 63,
      "hit": false,
      "t": 194354.80036666783,
      "d": 202.89826666665613,
      "v": 112
    },
    {
      "midi": 54,
      "hit": false,
      "t": 194369.2931000016,
      "d": 369.5646999999881,
      "v": 69
    },
    {
      "midi": 63,
      "hit": false,
      "t": 194572.19136666783,
      "d": 369.5647000000172,
      "v": 112
    },
    {
      "midi": 40,
      "hit": false,
      "t": 194782.3360000016,
      "d": 1304.3460000000196,
      "v": 70
    },
    {
      "midi": 52,
      "hit": false,
      "t": 194789.58236666783,
      "d": 557.9702333333262,
      "v": 112
    },
    {
      "midi": 55,
      "hit": false,
      "t": 194789.58236666783,
      "d": 985.5058666666446,
      "v": 112
    },
    {
      "midi": 59,
      "hit": false,
      "t": 194789.58236666783,
      "d": 1021.7376999999688,
      "v": 112
    },
    {
      "midi": 64,
      "hit": false,
      "t": 194789.58236666783,
      "d": 1021.7376999999688,
      "v": 112
    },
    {
      "midi": 59,
      "hit": false,
      "t": 194811.32146666828,
      "d": 1231.882333333342,
      "v": 73
    },
    {
      "midi": 64,
      "hit": false,
      "t": 194811.32146666828,
      "d": 1275.3605333333544,
      "v": 64
    },
    {
      "midi": 40,
      "hit": false,
      "t": 195224.36436666784,
      "d": 630.4338999999745,
      "v": 112
    },
    {
      "midi": 53,
      "hit": false,
      "t": 195659.14636666782,
      "d": 615.9411666666856,
      "v": 112
    },
    {
      "midi": 74,
      "hit": false,
      "t": 195659.14636666782,
      "d": 985.5058666666737,
      "v": 112
    },
    {
      "midi": 62,
      "hit": false,
      "t": 195659.14636666782,
      "d": 1021.7376999999979,
      "v": 112
    },
    {
      "midi": 65,
      "hit": false,
      "t": 195659.14636666782,
      "d": 1057.969533333322,
      "v": 112
    },
    {
      "midi": 40,
      "hit": false,
      "t": 196086.68200000163,
      "d": 1652.1716000000015,
      "v": 48
    },
    {
      "midi": 40,
      "hit": false,
      "t": 196093.92836666782,
      "d": 615.9411666666565,
      "v": 112
    },
    {
      "midi": 56,
      "hit": false,
      "t": 196115.6674666683,
      "d": 1623.1861333333363,
      "v": 66
    },
    {
      "midi": 64,
      "hit": false,
      "t": 196115.6674666683,
      "d": 1623.1861333333363,
      "v": 57
    },
    {
      "midi": 59,
      "hit": false,
      "t": 196122.91383333495,
      "d": 1615.9397666666773,
      "v": 57
    },
    {
      "midi": 68,
      "hit": false,
      "t": 196151.89930000162,
      "d": 2108.692699999985,
      "v": 60
    },
    {
      "midi": 54,
      "hit": false,
      "t": 196528.71036666783,
      "d": 579.7093333333032,
      "v": 112
    },
    {
      "midi": 64,
      "hit": false,
      "t": 196528.71036666783,
      "d": 840.5785333332897,
      "v": 112
    },
    {
      "midi": 60,
      "hit": false,
      "t": 196528.71036666783,
      "d": 1043.4767999999458,
      "v": 112
    },
    {
      "midi": 72,
      "hit": false,
      "t": 196528.71036666783,
      "d": 1043.4767999999458,
      "v": 112
    },
    {
      "midi": 40,
      "hit": false,
      "t": 196963.4923666678,
      "d": 413.04289999997127,
      "v": 112
    },
    {
      "midi": 56,
      "hit": false,
      "t": 197398.27436666779,
      "d": 543.477499999979,
      "v": 112
    },
    {
      "midi": 64,
      "hit": false,
      "t": 197398.27436666779,
      "d": 724.6366666666581,
      "v": 112
    },
    {
      "midi": 59,
      "hit": false,
      "t": 197398.27436666779,
      "d": 804.3466999999946,
      "v": 112
    },
    {
      "midi": 71,
      "hit": false,
      "t": 197398.27436666779,
      "d": 855.0712666666659,
      "v": 112
    },
    {
      "midi": 56,
      "hit": false,
      "t": 197825.81000000163,
      "d": 398.55016666665324,
      "v": 65
    },
    {
      "midi": 40,
      "hit": false,
      "t": 197833.05636666776,
      "d": 449.27473333338276,
      "v": 112
    },
    {
      "midi": 45,
      "hit": false,
      "t": 198267.8383666678,
      "d": 6608.686400000006,
      "v": 112
    },
    {
      "midi": 52,
      "hit": false,
      "t": 198267.8383666678,
      "d": 6608.686400000006,
      "v": 112
    },
    {
      "midi": 57,
      "hit": false,
      "t": 198267.8383666678,
      "d": 6608.686400000006,
      "v": 112
    },
    {
      "midi": 60,
      "hit": false,
      "t": 198267.8383666678,
      "d": 6608.686400000006,
      "v": 112
    },
    {
      "midi": 64,
      "hit": false,
      "t": 198267.8383666678,
      "d": 6608.686400000006,
      "v": 112
    },
    {
      "midi": 69,
      "hit": false,
      "t": 198267.8383666678,
      "d": 6608.686400000006,
      "v": 112
    },
    {
      "midi": 52,
      "hit": false,
      "t": 198282.3311000016,
      "d": 956.5204000000085,
      "v": 69
    },
    {
      "midi": 45,
      "hit": false,
      "t": 198282.3311000016,
      "d": 971.0131333333557,
      "v": 64
    },
    {
      "midi": 57,
      "hit": false,
      "t": 198289.57746666827,
      "d": 971.0131333333557,
      "v": 86
    },
    {
      "midi": 60,
      "hit": false,
      "t": 198304.07020000162,
      "d": 971.0131333333557,
      "v": 81
    },
    {
      "midi": 45,
      "hit": false,
      "t": 199572.1843666683,
      "d": 1673.9107000000367,
      "v": 66
    },
    {
      "midi": 52,
      "hit": false,
      "t": 199586.67710000166,
      "d": 1659.4179666666896,
      "v": 62
    },
    {
      "midi": 57,
      "hit": false,
      "t": 199586.67710000166,
      "d": 1659.4179666666896,
      "v": 86
    },
    {
      "midi": 60,
      "hit": false,
      "t": 199601.169833335,
      "d": 2065.214500000002,
      "v": 76
    },
    {
      "midi": 52,
      "hit": false,
      "t": 201333.05146666834,
      "d": 355.07196666667005,
      "v": 69
    },
    {
      "midi": 45,
      "hit": false,
      "t": 201738.8480000017,
      "d": 1130.4331999999995,
      "v": 70
    },
    {
      "midi": 57,
      "hit": false,
      "t": 201760.5871000017,
      "d": 1173.9113999999827,
      "v": 67
    },
    {
      "midi": 52,
      "hit": false,
      "t": 201767.83346666835,
      "d": 1231.882333333313,
      "v": 73
    },
    {
      "midi": 45,
      "hit": false,
      "t": 203043.19400000168,
      "d": 1594.2006666666712,
      "v": 48
    },
    {
      "midi": 57,
      "hit": false,
      "t": 203072.17946666834,
      "d": 753.6221333333524,
      "v": 57
    },
    {
      "midi": 52,
      "hit": false,
      "t": 203072.17946666834,
      "d": 818.8394333333417,
      "v": 66
    },
    {
      "midi": 60,
      "hit": false,
      "t": 203072.17946666834,
      "d": 2007.2435666666715,
      "v": 54
    },
    {
      "midi": 57,
      "hit": false,
      "t": 203934.4971000017,
      "d": 398.55016666665324,
      "v": 64
    },
    {
      "midi": 52,
      "hit": false,
      "t": 204354.78636666836,
      "d": 420.2892666666594,
      "v": 79
    },
    {
      "midi": 48,
      "hit": false,
      "t": 204796.81473333502,
      "d": 318.84013333331677,
      "v": 73
    },
    {
      "midi": 45,
      "hit": false,
      "t": 205224.35036666834,
      "d": 2695.6484000000346,
      "v": 64
    },
    {
      "midi": 52,
      "hit": false,
      "t": 205253.335833335,
      "d": 2652.1702000000223,
      "v": 73
    },
    {
      "midi": 57,
      "hit": false,
      "t": 205282.32130000167,
      "d": 2550.7210666666797,
      "v": 67
    },
    {
      "midi": 60,
      "hit": false,
      "t": 205311.30676666833,
      "d": 2637.6774666667043,
      "v": 44
    },
    {
      "midi": 64,
      "hit": false,
      "t": 205340.292233335,
      "d": 2521.7356000000145,
      "v": 54
    },
    {
      "midi": 69,
      "hit": false,
      "t": 205383.770433335,
      "d": 2623.184733333357,
      "v": 70
    }
  ]
}