{
  "jsonPath": "Unknown/Unknown/DJ Tatana/i-can-feat-stephan-maria.json",
  "path": "Unknown\\Unknown\\DJ Tatana\\I can feat Stephan Maria.mid",
  "name": "I can feat Stephan Maria",
  "difficulty": "Advanced",
  "bpm": 163.00007063336395,
  "notes": [
    {
      "midi": 76,
      "hit": false,
      "t": 7202.450866666666,
      "d": 121.16559166666684,
      "v": 92
    },
    {
      "midi": 72,
      "hit": false,
      "t": 7273.002983333333,
      "d": 82.82204999999976,
      "v": 87
    },
    {
      "midi": 69,
      "hit": false,
      "t": 7337.420133333333,
      "d": 101.22695000000022,
      "v": 103
    },
    {
      "midi": 67,
      "hit": false,
      "t": 7411.039733333333,
      "d": 90.49075833333336,
      "v": 103
    },
    {
      "midi": 78,
      "hit": false,
      "t": 8697.848991666666,
      "d": 412.57650833333355,
      "v": 103
    },
    {
      "midi": 74,
      "hit": false,
      "t": 8751.52995,
      "d": 340.49064999999973,
      "v": 108
    },
    {
      "midi": 69,
      "hit": false,
      "t": 8854.290641666666,
      "d": 259.20234166666705,
      "v": 92
    },
    {
      "midi": 76,
      "hit": false,
      "t": 10153.369833333334,
      "d": 110.4294000000009,
      "v": 73
    },
    {
      "midi": 72,
      "hit": false,
      "t": 10213.185758333335,
      "d": 87.4232749999992,
      "v": 108
    },
    {
      "midi": 69,
      "hit": false,
      "t": 10276.069166666668,
      "d": 122.6993333333321,
      "v": 108
    },
    {
      "midi": 67,
      "hit": false,
      "t": 10345.087541666668,
      "d": 210.12260833333312,
      "v": 103
    },
    {
      "midi": 78,
      "hit": false,
      "t": 11621.160608333334,
      "d": 165.64410000000134,
      "v": 108
    },
    {
      "midi": 74,
      "hit": false,
      "t": 11687.1115,
      "d": 136.50300833333313,
      "v": 92
    },
    {
      "midi": 69,
      "hit": false,
      "t": 11788.338450000001,
      "d": 142.63797499999964,
      "v": 103
    },
    {
      "midi": 64,
      "hit": false,
      "t": 13251.528,
      "d": 601.226733333333,
      "v": 51
    },
    {
      "midi": 69,
      "hit": false,
      "t": 13251.528,
      "d": 677.9138166666671,
      "v": 69
    },
    {
      "midi": 57,
      "hit": false,
      "t": 13251.528,
      "d": 707.0549083333335,
      "v": 78
    },
    {
      "midi": 72,
      "hit": false,
      "t": 13251.528,
      "d": 717.7911000000004,
      "v": 78
    },
    {
      "midi": 81,
      "hit": false,
      "t": 14564.410866666667,
      "d": 190.1839666666674,
      "v": 75
    },
    {
      "midi": 78,
      "hit": false,
      "t": 14647.232916666668,
      "d": 125.76681666666627,
      "v": 92
    },
    {
      "midi": 74,
      "hit": false,
      "t": 14760.729800000001,
      "d": 107.36191666666673,
      "v": 97
    },
    {
      "midi": 88,
      "hit": false,
      "t": 16061.342733333335,
      "d": 153.37416666666468,
      "v": 75
    },
    {
      "midi": 69,
      "hit": false,
      "t": 16062.876475000001,
      "d": 297.5458833333305,
      "v": 78
    },
    {
      "midi": 72,
      "hit": false,
      "t": 16095.085050000002,
      "d": 279.14098333332913,
      "v": 69
    },
    {
      "midi": 84,
      "hit": false,
      "t": 16108.888725,
      "d": 130.3680416666648,
      "v": 73
    },
    {
      "midi": 76,
      "hit": false,
      "t": 16177.9071,
      "d": 208.58886666666513,
      "v": 56
    },
    {
      "midi": 79,
      "hit": false,
      "t": 16220.851866666666,
      "d": 145.705458333332,
      "v": 92
    },
    {
      "midi": 81,
      "hit": false,
      "t": 17532.200991666665,
      "d": 121.16559166666775,
      "v": 97
    },
    {
      "midi": 62,
      "hit": false,
      "t": 17561.342083333333,
      "d": 394.171608333334,
      "v": 73
    },
    {
      "midi": 78,
      "hit": false,
      "t": 17621.158008333332,
      "d": 104.2944333333362,
      "v": 113
    },
    {
      "midi": 69,
      "hit": false,
      "t": 17674.838966666666,
      "d": 297.5458833333323,
      "v": 73
    },
    {
      "midi": 74,
      "hit": false,
      "t": 17717.783733333334,
      "d": 170.24532499999987,
      "v": 92
    },
    {
      "midi": 76,
      "hit": false,
      "t": 19009.194216666667,
      "d": 174.84655000000203,
      "v": 73
    },
    {
      "midi": 57,
      "hit": false,
      "t": 19049.071500000002,
      "d": 411.0427666666692,
      "v": 87
    },
    {
      "midi": 72,
      "hit": false,
      "t": 19059.80769166667,
      "d": 167.17784166666752,
      "v": 92
    },
    {
      "midi": 67,
      "hit": false,
      "t": 19185.574508333335,
      "d": 245.39866666666785,
      "v": 92
    },
    {
      "midi": 66,
      "hit": false,
      "t": 20437.107708333337,
      "d": 47.54599166666594,
      "v": 42
    },
    {
      "midi": 81,
      "hit": false,
      "t": 20484.653700000003,
      "d": 165.6440999999977,
      "v": 87
    },
    {
      "midi": 62,
      "hit": false,
      "t": 20509.19356666667,
      "d": 400.3065749999987,
      "v": 64
    },
    {
      "midi": 69,
      "hit": false,
      "t": 20530.665950000002,
      "d": 386.5028999999995,
      "v": 57
    },
    {
      "midi": 78,
      "hit": false,
      "t": 20578.21194166667,
      "d": 116.56436666666559,
      "v": 78
    },
    {
      "midi": 74,
      "hit": false,
      "t": 20664.101475,
      "d": 174.84655000000203,
      "v": 92
    },
    {
      "midi": 76,
      "hit": false,
      "t": 21961.646925,
      "d": 124.2330750000001,
      "v": 82
    },
    {
      "midi": 72,
      "hit": false,
      "t": 22006.125433333335,
      "d": 151.8404249999985,
      "v": 69
    },
    {
      "midi": 57,
      "hit": false,
      "t": 22010.726658333333,
      "d": 578.2206083333331,
      "v": 69
    },
    {
      "midi": 67,
      "hit": false,
      "t": 22130.358508333335,
      "d": 440.18385833333014,
      "v": 87
    },
    {
      "midi": 62,
      "hit": false,
      "t": 23421.768991666668,
      "d": 449.3863083333272,
      "v": 92
    },
    {
      "midi": 81,
      "hit": false,
      "t": 23449.376341666666,
      "d": 70.55211666666219,
      "v": 57
    },
    {
      "midi": 78,
      "hit": false,
      "t": 23481.584916666663,
      "d": 133.43552499999714,
      "v": 69
    },
    {
      "midi": 69,
      "hit": false,
      "t": 23558.271999999994,
      "d": 315.9507833333337,
      "v": 73
    },
    {
      "midi": 74,
      "hit": false,
      "t": 23590.480574999994,
      "d": 274.53975833333243,
      "v": 87
    },
    {
      "midi": 64,
      "hit": false,
      "t": 25030.663999999997,
      "d": 601.226733333333,
      "v": 51
    },
    {
      "midi": 69,
      "hit": false,
      "t": 25030.663999999997,
      "d": 677.9138166666671,
      "v": 69
    },
    {
      "midi": 57,
      "hit": false,
      "t": 25030.663999999997,
      "d": 707.0549083333353,
      "v": 78
    },
    {
      "midi": 72,
      "hit": false,
      "t": 25030.663999999997,
      "d": 717.7911000000022,
      "v": 78
    },
    {
      "midi": 81,
      "hit": false,
      "t": 26343.546866666667,
      "d": 190.1839666666674,
      "v": 75
    },
    {
      "midi": 78,
      "hit": false,
      "t": 26426.36891666667,
      "d": 125.76681666666627,
      "v": 92
    },
    {
      "midi": 74,
      "hit": false,
      "t": 26539.865800000003,
      "d": 107.36191666666491,
      "v": 97
    },
    {
      "midi": 88,
      "hit": false,
      "t": 27840.478733333333,
      "d": 153.37416666666468,
      "v": 75
    },
    {
      "midi": 69,
      "hit": false,
      "t": 27842.012475,
      "d": 297.54588333333595,
      "v": 78
    },
    {
      "midi": 72,
      "hit": false,
      "t": 27874.22105,
      "d": 279.1409833333382,
      "v": 69
    },
    {
      "midi": 84,
      "hit": false,
      "t": 27888.024725,
      "d": 130.36804166666843,
      "v": 73
    },
    {
      "midi": 76,
      "hit": false,
      "t": 27957.0431,
      "d": 208.5888666666724,
      "v": 56
    },
    {
      "midi": 79,
      "hit": false,
      "t": 27999.987866666666,
      "d": 145.70545833333745,
      "v": 92
    },
    {
      "midi": 81,
      "hit": false,
      "t": 29311.33699166667,
      "d": 121.16559166666775,
      "v": 97
    },
    {
      "midi": 62,
      "hit": false,
      "t": 29340.47808333334,
      "d": 394.171608333334,
      "v": 73
    },
    {
      "midi": 78,
      "hit": false,
      "t": 29400.294008333338,
      "d": 104.2944333333362,
      "v": 113
    },
    {
      "midi": 69,
      "hit": false,
      "t": 29453.974966666672,
      "d": 297.5458833333323,
      "v": 73
    },
    {
      "midi": 74,
      "hit": false,
      "t": 29496.91973333334,
      "d": 170.24532499999987,
      "v": 92
    },
    {
      "midi": 76,
      "hit": false,
      "t": 30788.330216666673,
      "d": 174.84655000000203,
      "v": 73
    },
    {
      "midi": 57,
      "hit": false,
      "t": 30828.207500000008,
      "d": 411.0427666666692,
      "v": 87
    },
    {
      "midi": 72,
      "hit": false,
      "t": 30838.943691666675,
      "d": 167.17784166666752,
      "v": 92
    },
    {
      "midi": 67,
      "hit": false,
      "t": 30964.71050833334,
      "d": 245.39866666666785,
      "v": 92
    },
    {
      "midi": 66,
      "hit": false,
      "t": 32216.243708333343,
      "d": 47.54599166666594,
      "v": 42
    },
    {
      "midi": 81,
      "hit": false,
      "t": 32263.78970000001,
      "d": 165.6440999999977,
      "v": 87
    },
    {
      "midi": 62,
      "hit": false,
      "t": 32288.329566666675,
      "d": 400.3065749999987,
      "v": 64
    },
    {
      "midi": 69,
      "hit": false,
      "t": 32309.80195000001,
      "d": 386.5028999999995,
      "v": 57
    },
    {
      "midi": 78,
      "hit": false,
      "t": 32357.347941666674,
      "d": 116.56436666666559,
      "v": 78
    },
    {
      "midi": 74,
      "hit": false,
      "t": 32443.237475000005,
      "d": 174.84655000000203,
      "v": 92
    },
    {
      "midi": 76,
      "hit": false,
      "t": 33740.78292500001,
      "d": 124.23307499999646,
      "v": 82
    },
    {
      "midi": 72,
      "hit": false,
      "t": 33785.26143333334,
      "d": 151.84042499999487,
      "v": 69
    },
    {
      "midi": 57,
      "hit": false,
      "t": 33789.86265833334,
      "d": 578.2206083333294,
      "v": 69
    },
    {
      "midi": 67,
      "hit": false,
      "t": 33909.49450833334,
      "d": 440.18385833333014,
      "v": 87
    },
    {
      "midi": 62,
      "hit": false,
      "t": 35200.90499166667,
      "d": 449.38630833333445,
      "v": 92
    },
    {
      "midi": 81,
      "hit": false,
      "t": 35228.51234166667,
      "d": 70.55211666666582,
      "v": 57
    },
    {
      "midi": 78,
      "hit": false,
      "t": 35260.720916666665,
      "d": 133.43552500000078,
      "v": 69
    },
    {
      "midi": 69,
      "hit": false,
      "t": 35337.408,
      "d": 315.9507833333337,
      "v": 73
    },
    {
      "midi": 74,
      "hit": false,
      "t": 35369.616575,
      "d": 274.5397583333397,
      "v": 87
    },
    {
      "midi": 62,
      "hit": false,
      "t": 36809.8,
      "d": 110.4294000000009,
      "v": 97
    },
    {
      "midi": 55,
      "hit": false,
      "t": 36809.8,
      "d": 116.56436666666559,
      "v": 108
    },
    {
      "midi": 59,
      "hit": false,
      "t": 36809.8,
      "d": 118.09810833333177,
      "v": 82
    },
    {
      "midi": 67,
      "hit": false,
      "t": 36809.8,
      "d": 124.23307499999646,
      "v": 92
    },
    {
      "midi": 59,
      "hit": false,
      "t": 37055.19866666666,
      "d": 93.55824166666571,
      "v": 108
    },
    {
      "midi": 55,
      "hit": false,
      "t": 37055.19866666666,
      "d": 99.6932083333304,
      "v": 119
    },
    {
      "midi": 62,
      "hit": false,
      "t": 37055.19866666666,
      "d": 121.16559166666411,
      "v": 113
    },
    {
      "midi": 67,
      "hit": false,
      "t": 37055.19866666666,
      "d": 151.84042500000214,
      "v": 108
    },
    {
      "midi": 55,
      "hit": false,
      "t": 37423.29666666667,
      "d": 251.53363333333255,
      "v": 108
    },
    {
      "midi": 60,
      "hit": false,
      "t": 37423.29666666667,
      "d": 266.87105000000156,
      "v": 108
    },
    {
      "midi": 64,
      "hit": false,
      "t": 37423.29666666667,
      "d": 291.4109166666676,
      "v": 103
    },
    {
      "midi": 55,
      "hit": false,
      "t": 37791.39466666667,
      "d": 188.6502249999976,
      "v": 103
    },
    {
      "midi": 62,
      "hit": false,
      "t": 37791.39466666667,
      "d": 243.8649249999944,
      "v": 103
    },
    {
      "midi": 59,
      "hit": false,
      "t": 37791.39466666667,
      "d": 246.93240833332675,
      "v": 87
    },
    {
      "midi": 62,
      "hit": false,
      "t": 38282.191999999995,
      "d": 87.42327500000101,
      "v": 92
    },
    {
      "midi": 59,
      "hit": false,
      "t": 38282.191999999995,
      "d": 104.2944333333362,
      "v": 97
    },
    {
      "midi": 67,
      "hit": false,
      "t": 38282.191999999995,
      "d": 118.09810833333904,
      "v": 103
    },
    {
      "midi": 62,
      "hit": false,
      "t": 38527.59066666667,
      "d": 115.03062499999942,
      "v": 108
    },
    {
      "midi": 59,
      "hit": false,
      "t": 38527.59066666667,
      "d": 116.56436666666559,
      "v": 103
    },
    {
      "midi": 67,
      "hit": false,
      "t": 38527.59066666667,
      "d": 165.6440999999977,
      "v": 108
    },
    {
      "midi": 55,
      "hit": false,
      "t": 38895.68866666667,
      "d": 200.92015833333426,
      "v": 108
    },
    {
      "midi": 60,
      "hit": false,
      "t": 38895.68866666667,
      "d": 210.1226083333313,
      "v": 87
    },
    {
      "midi": 64,
      "hit": false,
      "t": 38895.68866666667,
      "d": 231.594991666665,
      "v": 103
    },
    {
      "midi": 62,
      "hit": false,
      "t": 39263.78666666667,
      "d": 338.95690833333356,
      "v": 113
    },
    {
      "midi": 55,
      "hit": false,
      "t": 39263.78666666667,
      "d": 340.49064999999973,
      "v": 124
    },
    {
      "midi": 59,
      "hit": false,
      "t": 39263.78666666667,
      "d": 343.5581333333321,
      "v": 113
    },
    {
      "midi": 62,
      "hit": false,
      "t": 42699.368,
      "d": 99.69320833333768,
      "v": 97
    },
    {
      "midi": 55,
      "hit": false,
      "t": 42699.368,
      "d": 108.89565833333472,
      "v": 103
    },
    {
      "midi": 59,
      "hit": false,
      "t": 42699.368,
      "d": 110.4294000000009,
      "v": 92
    },
    {
      "midi": 67,
      "hit": false,
      "t": 42699.368,
      "d": 122.69933333333756,
      "v": 103
    },
    {
      "midi": 55,
      "hit": false,
      "t": 42944.76666666667,
      "d": 136.50300833333313,
      "v": 108
    },
    {
      "midi": 59,
      "hit": false,
      "t": 42944.76666666667,
      "d": 138.0367499999993,
      "v": 97
    },
    {
      "midi": 67,
      "hit": false,
      "t": 42944.76666666667,
      "d": 173.31280833333585,
      "v": 108
    },
    {
      "midi": 62,
      "hit": false,
      "t": 42944.76666666667,
      "d": 177.91403333333437,
      "v": 108
    },
    {
      "midi": 55,
      "hit": false,
      "t": 43312.86466666667,
      "d": 257.66859999999724,
      "v": 108
    },
    {
      "midi": 60,
      "hit": false,
      "t": 43312.86466666667,
      "d": 273.00601666666626,
      "v": 87
    },
    {
      "midi": 64,
      "hit": false,
      "t": 43312.86466666667,
      "d": 282.2084666666633,
      "v": 108
    },
    {
      "midi": 59,
      "hit": false,
      "t": 43680.962666666666,
      "d": 105.82817500000237,
      "v": 92
    },
    {
      "midi": 55,
      "hit": false,
      "t": 43680.962666666666,
      "d": 107.36191666666855,
      "v": 103
    },
    {
      "midi": 62,
      "hit": false,
      "t": 43680.962666666666,
      "d": 110.4294000000009,
      "v": 108
    },
    {
      "midi": 62,
      "hit": false,
      "t": 44171.76,
      "d": 82.82204999999522,
      "v": 108
    },
    {
      "midi": 59,
      "hit": false,
      "t": 44171.76,
      "d": 88.95701666665991,
      "v": 92
    },
    {
      "midi": 67,
      "hit": false,
      "t": 44171.76,
      "d": 99.69320833332313,
      "v": 108
    },
    {
      "midi": 59,
      "hit": false,
      "t": 44417.158666666655,
      "d": 101.22694999999658,
      "v": 92
    },
    {
      "midi": 67,
      "hit": false,
      "t": 44417.158666666655,
      "d": 116.56436666666559,
      "v": 108
    },
    {
      "midi": 62,
      "hit": false,
      "t": 44417.158666666655,
      "d": 119.63184999999794,
      "v": 113
    },
    {
      "midi": 60,
      "hit": false,
      "t": 44785.25666666665,
      "d": 245.39866666666785,
      "v": 103
    },
    {
      "midi": 55,
      "hit": false,
      "t": 44785.25666666665,
      "d": 253.06737499999872,
      "v": 97
    },
    {
      "midi": 64,
      "hit": false,
      "t": 44785.25666666665,
      "d": 274.53975833333243,
      "v": 108
    },
    {
      "midi": 59,
      "hit": false,
      "t": 45153.35466666665,
      "d": 98.15946666666423,
      "v": 92
    },
    {
      "midi": 55,
      "hit": false,
      "t": 45153.35466666665,
      "d": 118.09810833333177,
      "v": 108
    },
    {
      "midi": 62,
      "hit": false,
      "t": 45153.35466666665,
      "d": 122.69933333333029,
      "v": 113
    },
    {
      "midi": 55,
      "hit": false,
      "t": 48588.93599999998,
      "d": 107.36191666666855,
      "v": 92
    },
    {
      "midi": 59,
      "hit": false,
      "t": 48588.93599999998,
      "d": 121.16559166667139,
      "v": 92
    },
    {
      "midi": 62,
      "hit": false,
      "t": 48588.93599999998,
      "d": 124.23307500000374,
      "v": 97
    },
    {
      "midi": 67,
      "hit": false,
      "t": 48588.93599999998,
      "d": 134.96926666666695,
      "v": 92
    },
    {
      "midi": 55,
      "hit": false,
      "t": 48834.33466666665,
      "d": 122.69933333333756,
      "v": 108
    },
    {
      "midi": 59,
      "hit": false,
      "t": 48834.33466666665,
      "d": 134.96926666667423,
      "v": 78
    },
    {
      "midi": 62,
      "hit": false,
      "t": 48834.33466666665,
      "d": 156.44165000000794,
      "v": 97
    },
    {
      "midi": 67,
      "hit": false,
      "t": 48834.33466666665,
      "d": 174.8465500000093,
      "v": 92
    },
    {
      "midi": 55,
      "hit": false,
      "t": 49202.43266666666,
      "d": 273.00601666666626,
      "v": 108
    },
    {
      "midi": 60,
      "hit": false,
      "t": 49202.43266666666,
      "d": 279.14098333333095,
      "v": 103
    },
    {
      "midi": 64,
      "hit": false,
      "t": 49202.43266666666,
      "d": 300.61336666666466,
      "v": 113
    },
    {
      "midi": 55,
      "hit": false,
      "t": 49570.53066666666,
      "d": 93.55824166666571,
      "v": 113
    },
    {
      "midi": 59,
      "hit": false,
      "t": 49570.53066666666,
      "d": 95.09198333333188,
      "v": 87
    },
    {
      "midi": 62,
      "hit": false,
      "t": 49570.53066666666,
      "d": 102.76069166666275,
      "v": 108
    },
    {
      "midi": 62,
      "hit": false,
      "t": 50061.32799999999,
      "d": 95.09198333333188,
      "v": 108
    },
    {
      "midi": 59,
      "hit": false,
      "t": 50061.32799999999,
      "d": 108.89565833333472,
      "v": 108
    },
    {
      "midi": 67,
      "hit": false,
      "t": 50061.32799999999,
      "d": 119.63184999999794,
      "v": 113
    },
    {
      "midi": 59,
      "hit": false,
      "t": 50306.726666666655,
      "d": 133.43552500000078,
      "v": 92
    },
    {
      "midi": 62,
      "hit": false,
      "t": 50306.726666666655,
      "d": 157.97539166666684,
      "v": 108
    },
    {
      "midi": 67,
      "hit": false,
      "t": 50306.726666666655,
      "d": 173.31280833333585,
      "v": 113
    },
    {
      "midi": 55,
      "hit": false,
      "t": 50674.82466666666,
      "d": 226.9937666666665,
      "v": 108
    },
    {
      "midi": 60,
      "hit": false,
      "t": 50674.82466666666,
      "d": 228.52750833333266,
      "v": 108
    },
    {
      "midi": 64,
      "hit": false,
      "t": 50674.82466666666,
      "d": 246.93240833333402,
      "v": 113
    },
    {
      "midi": 62,
      "hit": false,
      "t": 51042.92266666666,
      "d": 99.6932083333304,
      "v": 124
    },
    {
      "midi": 59,
      "hit": false,
      "t": 51042.92266666666,
      "d": 107.36191666666127,
      "v": 113
    },
    {
      "midi": 55,
      "hit": false,
      "t": 51042.92266666666,
      "d": 131.90178333332733,
      "v": 124
    },
    {
      "midi": 38,
      "hit": false,
      "t": 66269.90993333331,
      "d": 680.9812999999995,
      "v": 78
    },
    {
      "midi": 45,
      "hit": false,
      "t": 67346.59658333332,
      "d": 1469.3245166666602,
      "v": 78
    },
    {
      "midi": 38,
      "hit": false,
      "t": 69213.16019166664,
      "d": 633.4353083333262,
      "v": 87
    },
    {
      "midi": 45,
      "hit": false,
      "t": 70295.9818083333,
      "d": 1401.839883333334,
      "v": 113
    },
    {
      "midi": 59,
      "hit": false,
      "t": 76565.91774166664,
      "d": 248.46615000000747,
      "v": 87
    },
    {
      "midi": 57,
      "hit": false,
      "t": 76800.58021666664,
      "d": 102.76069166667003,
      "v": 71
    },
    {
      "midi": 59,
      "hit": false,
      "t": 76937.08322499998,
      "d": 231.59499166667229,
      "v": 67
    },
    {
      "midi": 57,
      "hit": false,
      "t": 77173.27944166666,
      "d": 553.6807416666707,
      "v": 68
    },
    {
      "midi": 76,
      "hit": false,
      "t": 83766.83486666666,
      "d": 121.16559166667867,
      "v": 92
    },
    {
      "midi": 72,
      "hit": false,
      "t": 83837.38698333333,
      "d": 82.82205000000249,
      "v": 87
    },
    {
      "midi": 69,
      "hit": false,
      "t": 83901.80413333334,
      "d": 101.22694999999658,
      "v": 103
    },
    {
      "midi": 67,
      "hit": false,
      "t": 83975.42373333333,
      "d": 90.49075833334064,
      "v": 103
    },
    {
      "midi": 78,
      "hit": false,
      "t": 85262.23299166666,
      "d": 412.5765083333099,
      "v": 103
    },
    {
      "midi": 74,
      "hit": false,
      "t": 85315.91394999999,
      "d": 340.49064999999246,
      "v": 108
    },
    {
      "midi": 69,
      "hit": false,
      "t": 85418.67464166666,
      "d": 259.20234166664886,
      "v": 92
    },
    {
      "midi": 76,
      "hit": false,
      "t": 86717.7538333333,
      "d": 110.42940000000817,
      "v": 73
    },
    {
      "midi": 72,
      "hit": false,
      "t": 86777.56975833331,
      "d": 87.42327500000829,
      "v": 108
    },
    {
      "midi": 69,
      "hit": false,
      "t": 86840.45316666664,
      "d": 122.69933333333756,
      "v": 108
    },
    {
      "midi": 67,
      "hit": false,
      "t": 86909.47154166664,
      "d": 210.1226083333313,
      "v": 103
    },
    {
      "midi": 78,
      "hit": false,
      "t": 88185.54460833331,
      "d": 165.64410000000498,
      "v": 108
    },
    {
      "midi": 74,
      "hit": false,
      "t": 88251.49549999998,
      "d": 136.5030083333404,
      "v": 92
    },
    {
      "midi": 69,
      "hit": false,
      "t": 88352.72244999999,
      "d": 142.63797499999055,
      "v": 103
    },
    {
      "midi": 64,
      "hit": false,
      "t": 89815.91199999998,
      "d": 601.2267333333293,
      "v": 51
    },
    {
      "midi": 69,
      "hit": false,
      "t": 89815.91199999998,
      "d": 677.9138166666671,
      "v": 69
    },
    {
      "midi": 57,
      "hit": false,
      "t": 89815.91199999998,
      "d": 707.0549083333317,
      "v": 78
    },
    {
      "midi": 72,
      "hit": false,
      "t": 89815.91199999998,
      "d": 717.7911000000022,
      "v": 78
    },
    {
      "midi": 81,
      "hit": false,
      "t": 91128.79486666665,
      "d": 190.1839666666492,
      "v": 75
    },
    {
      "midi": 78,
      "hit": false,
      "t": 91211.61691666664,
      "d": 125.76681666665536,
      "v": 92
    },
    {
      "midi": 74,
      "hit": false,
      "t": 91325.11379999996,
      "d": 107.36191666666127,
      "v": 97
    },
    {
      "midi": 88,
      "hit": false,
      "t": 92625.72673333329,
      "d": 153.3741666666756,
      "v": 75
    },
    {
      "midi": 69,
      "hit": false,
      "t": 92627.26047499996,
      "d": 297.54588333332504,
      "v": 78
    },
    {
      "midi": 72,
      "hit": false,
      "t": 92659.46904999996,
      "d": 279.14098333333095,
      "v": 69
    },
    {
      "midi": 84,
      "hit": false,
      "t": 92673.27272499996,
      "d": 130.36804166666116,
      "v": 73
    },
    {
      "midi": 76,
      "hit": false,
      "t": 92742.29109999996,
      "d": 208.58886666665785,
      "v": 56
    },
    {
      "midi": 79,
      "hit": false,
      "t": 92785.23586666663,
      "d": 145.7054583333229,
      "v": 92
    },
    {
      "midi": 81,
      "hit": false,
      "t": 94096.58499166662,
      "d": 121.16559166666411,
      "v": 97
    },
    {
      "midi": 62,
      "hit": false,
      "t": 94125.72608333328,
      "d": 394.17160833333037,
      "v": 73
    },
    {
      "midi": 78,
      "hit": false,
      "t": 94185.54200833329,
      "d": 104.29443333332893,
      "v": 113
    },
    {
      "midi": 69,
      "hit": false,
      "t": 94239.22296666661,
      "d": 297.5458833333396,
      "v": 73
    },
    {
      "midi": 74,
      "hit": false,
      "t": 94282.16773333328,
      "d": 170.24532500001078,
      "v": 92
    },
    {
      "midi": 76,
      "hit": false,
      "t": 95573.57821666662,
      "d": 174.84655000001658,
      "v": 73
    },
    {
      "midi": 57,
      "hit": false,
      "t": 95613.45549999995,
      "d": 411.04276666669466,
      "v": 87
    },
    {
      "midi": 72,
      "hit": false,
      "t": 95624.19169166662,
      "d": 167.17784166667843,
      "v": 92
    },
    {
      "midi": 67,
      "hit": false,
      "t": 95749.95850833331,
      "d": 245.39866666667513,
      "v": 92
    },
    {
      "midi": 66,
      "hit": false,
      "t": 97001.49170833331,
      "d": 47.54599166667322,
      "v": 42
    },
    {
      "midi": 81,
      "hit": false,
      "t": 97049.03769999999,
      "d": 165.64410000000498,
      "v": 87
    },
    {
      "midi": 62,
      "hit": false,
      "t": 97073.57756666666,
      "d": 400.3065750000096,
      "v": 64
    },
    {
      "midi": 69,
      "hit": false,
      "t": 97095.04994999999,
      "d": 386.5029000000213,
      "v": 57
    },
    {
      "midi": 78,
      "hit": false,
      "t": 97142.59594166666,
      "d": 116.56436666667287,
      "v": 78
    },
    {
      "midi": 74,
      "hit": false,
      "t": 97228.485475,
      "d": 174.84655000000203,
      "v": 92
    },
    {
      "midi": 76,
      "hit": false,
      "t": 98526.03092500001,
      "d": 124.23307500001101,
      "v": 82
    },
    {
      "midi": 72,
      "hit": false,
      "t": 98570.50943333335,
      "d": 151.84042500000214,
      "v": 69
    },
    {
      "midi": 57,
      "hit": false,
      "t": 98575.11065833336,
      "d": 578.2206083333149,
      "v": 69
    },
    {
      "midi": 67,
      "hit": false,
      "t": 98694.74250833335,
      "d": 440.18385833333014,
      "v": 87
    },
    {
      "midi": 62,
      "hit": false,
      "t": 99986.15299166668,
      "d": 449.38630833334173,
      "v": 92
    },
    {
      "midi": 81,
      "hit": false,
      "t": 100013.76034166668,
      "d": 70.5521166666731,
      "v": 57
    },
    {
      "midi": 78,
      "hit": false,
      "t": 100045.9689166667,
      "d": 133.4355249999935,
      "v": 69
    },
    {
      "midi": 69,
      "hit": false,
      "t": 100122.65600000002,
      "d": 315.9507833333337,
      "v": 73
    },
    {
      "midi": 74,
      "hit": false,
      "t": 100154.86457500001,
      "d": 274.5397583333397,
      "v": 87
    },
    {
      "midi": 64,
      "hit": false,
      "t": 101595.04800000001,
      "d": 601.2267333333293,
      "v": 51
    },
    {
      "midi": 69,
      "hit": false,
      "t": 101595.04800000001,
      "d": 677.9138166666671,
      "v": 69
    },
    {
      "midi": 57,
      "hit": false,
      "t": 101595.04800000001,
      "d": 707.0549083333317,
      "v": 78
    },
    {
      "midi": 72,
      "hit": false,
      "t": 101595.04800000001,
      "d": 717.7911000000022,
      "v": 78
    },
    {
      "midi": 81,
      "hit": false,
      "t": 102907.93086666668,
      "d": 190.1839666666492,
      "v": 75
    },
    {
      "midi": 78,
      "hit": false,
      "t": 102990.75291666666,
      "d": 125.76681666665536,
      "v": 92
    },
    {
      "midi": 74,
      "hit": false,
      "t": 103104.24979999999,
      "d": 107.36191666666127,
      "v": 97
    },
    {
      "midi": 88,
      "hit": false,
      "t": 104404.86273333331,
      "d": 153.3741666666756,
      "v": 75
    },
    {
      "midi": 69,
      "hit": false,
      "t": 104406.39647499999,
      "d": 297.54588333332504,
      "v": 78
    },
    {
      "midi": 72,
      "hit": false,
      "t": 104438.60504999998,
      "d": 279.14098333333095,
      "v": 69
    },
    {
      "midi": 84,
      "hit": false,
      "t": 104452.40872499999,
      "d": 130.36804166666116,
      "v": 73
    },
    {
      "midi": 76,
      "hit": false,
      "t": 104521.42709999999,
      "d": 208.58886666665785,
      "v": 56
    },
    {
      "midi": 79,
      "hit": false,
      "t": 104564.37186666665,
      "d": 145.7054583333229,
      "v": 92
    },
    {
      "midi": 81,
      "hit": false,
      "t": 105875.72099166665,
      "d": 121.16559166666411,
      "v": 97
    },
    {
      "midi": 62,
      "hit": false,
      "t": 105904.86208333331,
      "d": 394.17160833333037,
      "v": 73
    },
    {
      "midi": 78,
      "hit": false,
      "t": 105964.67800833331,
      "d": 104.29443333332893,
      "v": 113
    },
    {
      "midi": 69,
      "hit": false,
      "t": 106018.35896666664,
      "d": 297.5458833333396,
      "v": 73
    },
    {
      "midi": 74,
      "hit": false,
      "t": 106061.3037333333,
      "d": 170.24532500001078,
      "v": 92
    },
    {
      "midi": 76,
      "hit": false,
      "t": 107352.71421666665,
      "d": 174.84655000001658,
      "v": 73
    },
    {
      "midi": 57,
      "hit": false,
      "t": 107392.59149999998,
      "d": 411.04276666669466,
      "v": 87
    },
    {
      "midi": 72,
      "hit": false,
      "t": 107403.32769166665,
      "d": 167.17784166667843,
      "v": 92
    },
    {
      "midi": 67,
      "hit": false,
      "t": 107529.09450833334,
      "d": 245.39866666667513,
      "v": 92
    },
    {
      "midi": 66,
      "hit": false,
      "t": 108780.62770833334,
      "d": 47.54599166667322,
      "v": 42
    },
    {
      "midi": 81,
      "hit": false,
      "t": 108828.17370000001,
      "d": 165.64410000000498,
      "v": 87
    },
    {
      "midi": 62,
      "hit": false,
      "t": 108852.71356666669,
      "d": 400.3065750000096,
      "v": 64
    },
    {
      "midi": 69,
      "hit": false,
      "t": 108874.18595000001,
      "d": 386.5029000000213,
      "v": 57
    },
    {
      "midi": 78,
      "hit": false,
      "t": 108921.73194166669,
      "d": 116.56436666667287,
      "v": 78
    },
    {
      "midi": 74,
      "hit": false,
      "t": 109007.62147500002,
      "d": 174.84655000000203,
      "v": 92
    },
    {
      "midi": 76,
      "hit": false,
      "t": 110305.16692500004,
      "d": 124.23307500001101,
      "v": 82
    },
    {
      "midi": 72,
      "hit": false,
      "t": 110349.64543333338,
      "d": 151.84042500000214,
      "v": 69
    },
    {
      "midi": 57,
      "hit": false,
      "t": 110354.24665833339,
      "d": 578.2206083333149,
      "v": 69
    },
    {
      "midi": 67,
      "hit": false,
      "t": 110473.87850833338,
      "d": 440.18385833333014,
      "v": 87
    },
    {
      "midi": 62,
      "hit": false,
      "t": 111765.2889916667,
      "d": 449.38630833334173,
      "v": 92
    },
    {
      "midi": 81,
      "hit": false,
      "t": 111792.89634166671,
      "d": 70.5521166666731,
      "v": 57
    },
    {
      "midi": 78,
      "hit": false,
      "t": 111825.10491666672,
      "d": 133.4355249999935,
      "v": 69
    },
    {
      "midi": 69,
      "hit": false,
      "t": 111901.79200000004,
      "d": 315.9507833333337,
      "v": 73
    },
    {
      "midi": 74,
      "hit": false,
      "t": 111934.00057500004,
      "d": 274.5397583333397,
      "v": 87
    },
    {
      "midi": 62,
      "hit": false,
      "t": 113374.18400000004,
      "d": 110.42939999999362,
      "v": 97
    },
    {
      "midi": 55,
      "hit": false,
      "t": 113374.18400000004,
      "d": 116.56436666665832,
      "v": 108
    },
    {
      "midi": 59,
      "hit": false,
      "t": 113374.18400000004,
      "d": 118.09810833333177,
      "v": 82
    },
    {
      "midi": 67,
      "hit": false,
      "t": 113374.18400000004,
      "d": 124.23307499999646,
      "v": 92
    },
    {
      "midi": 59,
      "hit": false,
      "t": 113619.5826666667,
      "d": 93.55824166667298,
      "v": 108
    },
    {
      "midi": 55,
      "hit": false,
      "t": 113619.5826666667,
      "d": 99.69320833333768,
      "v": 119
    },
    {
      "midi": 62,
      "hit": false,
      "t": 113619.5826666667,
      "d": 121.16559166666411,
      "v": 113
    },
    {
      "midi": 67,
      "hit": false,
      "t": 113619.5826666667,
      "d": 151.84042500000214,
      "v": 108
    },
    {
      "midi": 55,
      "hit": false,
      "t": 113987.6806666667,
      "d": 251.53363333333982,
      "v": 108
    },
    {
      "midi": 60,
      "hit": false,
      "t": 113987.6806666667,
      "d": 266.87105000000156,
      "v": 108
    },
    {
      "midi": 64,
      "hit": false,
      "t": 113987.6806666667,
      "d": 291.4109166666749,
      "v": 103
    },
    {
      "midi": 55,
      "hit": false,
      "t": 114355.77866666671,
      "d": 188.65022500000487,
      "v": 103
    },
    {
      "midi": 62,
      "hit": false,
      "t": 114355.77866666671,
      "d": 243.86492500000168,
      "v": 103
    },
    {
      "midi": 59,
      "hit": false,
      "t": 114355.77866666671,
      "d": 246.93240833333402,
      "v": 87
    },
    {
      "midi": 62,
      "hit": false,
      "t": 114846.57600000004,
      "d": 87.42327499999374,
      "v": 92
    },
    {
      "midi": 59,
      "hit": false,
      "t": 114846.57600000004,
      "d": 104.29443333332893,
      "v": 97
    },
    {
      "midi": 67,
      "hit": false,
      "t": 114846.57600000004,
      "d": 118.09810833333177,
      "v": 103
    },
    {
      "midi": 62,
      "hit": false,
      "t": 115091.9746666667,
      "d": 115.03062499999942,
      "v": 108
    },
    {
      "midi": 59,
      "hit": false,
      "t": 115091.9746666667,
      "d": 116.56436666667287,
      "v": 103
    },
    {
      "midi": 67,
      "hit": false,
      "t": 115091.9746666667,
      "d": 165.64410000001953,
      "v": 108
    },
    {
      "midi": 55,
      "hit": false,
      "t": 115460.07266666672,
      "d": 200.92015833333426,
      "v": 108
    },
    {
      "midi": 60,
      "hit": false,
      "t": 115460.07266666672,
      "d": 210.1226083333313,
      "v": 87
    },
    {
      "midi": 64,
      "hit": false,
      "t": 115460.07266666672,
      "d": 231.59499166665773,
      "v": 103
    },
    {
      "midi": 62,
      "hit": false,
      "t": 115828.17066666672,
      "d": 338.95690833333356,
      "v": 113
    },
    {
      "midi": 55,
      "hit": false,
      "t": 115828.17066666672,
      "d": 340.490650000007,
      "v": 124
    },
    {
      "midi": 59,
      "hit": false,
      "t": 115828.17066666672,
      "d": 343.55813333333936,
      "v": 113
    },
    {
      "midi": 62,
      "hit": false,
      "t": 119263.75200000005,
      "d": 99.69320833333768,
      "v": 97
    },
    {
      "midi": 55,
      "hit": false,
      "t": 119263.75200000005,
      "d": 108.89565833333472,
      "v": 103
    },
    {
      "midi": 59,
      "hit": false,
      "t": 119263.75200000005,
      "d": 110.42940000000817,
      "v": 92
    },
    {
      "midi": 67,
      "hit": false,
      "t": 119263.75200000005,
      "d": 122.69933333333756,
      "v": 103
    },
    {
      "midi": 55,
      "hit": false,
      "t": 119509.15066666673,
      "d": 136.5030083333404,
      "v": 108
    },
    {
      "midi": 59,
      "hit": false,
      "t": 119509.15066666673,
      "d": 138.03675000001385,
      "v": 97
    },
    {
      "midi": 67,
      "hit": false,
      "t": 119509.15066666673,
      "d": 173.31280833334313,
      "v": 108
    },
    {
      "midi": 62,
      "hit": false,
      "t": 119509.15066666673,
      "d": 177.91403333334893,
      "v": 108
    },
    {
      "midi": 55,
      "hit": false,
      "t": 119877.24866666674,
      "d": 257.6686000000045,
      "v": 108
    },
    {
      "midi": 60,
      "hit": false,
      "t": 119877.24866666674,
      "d": 273.00601666666626,
      "v": 87
    },
    {
      "midi": 64,
      "hit": false,
      "t": 119877.24866666674,
      "d": 282.2084666666633,
      "v": 108
    },
    {
      "midi": 59,
      "hit": false,
      "t": 120245.34666666674,
      "d": 105.82817500000237,
      "v": 92
    },
    {
      "midi": 55,
      "hit": false,
      "t": 120245.34666666674,
      "d": 107.36191666667582,
      "v": 103
    },
    {
      "midi": 62,
      "hit": false,
      "t": 120245.34666666674,
      "d": 110.42940000000817,
      "v": 108
    },
    {
      "midi": 62,
      "hit": false,
      "t": 120736.14400000007,
      "d": 82.82205000000249,
      "v": 108
    },
    {
      "midi": 59,
      "hit": false,
      "t": 120736.14400000007,
      "d": 88.95701666666719,
      "v": 92
    },
    {
      "midi": 67,
      "hit": false,
      "t": 120736.14400000007,
      "d": 99.69320833333768,
      "v": 108
    },
    {
      "midi": 59,
      "hit": false,
      "t": 120981.54266666675,
      "d": 101.22694999999658,
      "v": 92
    },
    {
      "midi": 67,
      "hit": false,
      "t": 120981.54266666675,
      "d": 116.56436666665832,
      "v": 108
    },
    {
      "midi": 62,
      "hit": false,
      "t": 120981.54266666675,
      "d": 119.63184999999066,
      "v": 113
    },
    {
      "midi": 60,
      "hit": false,
      "t": 121349.64066666673,
      "d": 245.39866666666057,
      "v": 103
    },
    {
      "midi": 55,
      "hit": false,
      "t": 121349.64066666673,
      "d": 253.06737499999872,
      "v": 97
    },
    {
      "midi": 64,
      "hit": false,
      "t": 121349.64066666673,
      "d": 274.53975833332515,
      "v": 108
    },
    {
      "midi": 59,
      "hit": false,
      "t": 121717.73866666673,
      "d": 98.15946666666423,
      "v": 92
    },
    {
      "midi": 55,
      "hit": false,
      "t": 121717.73866666673,
      "d": 118.09810833333177,
      "v": 108
    },
    {
      "midi": 62,
      "hit": false,
      "t": 121717.73866666673,
      "d": 122.69933333333756,
      "v": 113
    },
    {
      "midi": 55,
      "hit": false,
      "t": 125153.32000000007,
      "d": 107.36191666666127,
      "v": 92
    },
    {
      "midi": 59,
      "hit": false,
      "t": 125153.32000000007,
      "d": 121.16559166666411,
      "v": 92
    },
    {
      "midi": 62,
      "hit": false,
      "t": 125153.32000000007,
      "d": 124.23307499999646,
      "v": 97
    },
    {
      "midi": 67,
      "hit": false,
      "t": 125153.32000000007,
      "d": 134.96926666666695,
      "v": 92
    },
    {
      "midi": 55,
      "hit": false,
      "t": 125398.71866666674,
      "d": 122.69933333333756,
      "v": 108
    },
    {
      "midi": 59,
      "hit": false,
      "t": 125398.71866666674,
      "d": 134.96926666666695,
      "v": 78
    },
    {
      "midi": 62,
      "hit": false,
      "t": 125398.71866666674,
      "d": 156.4416499999934,
      "v": 97
    },
    {
      "midi": 67,
      "hit": false,
      "t": 125398.71866666674,
      "d": 174.84654999998747,
      "v": 92
    },
    {
      "midi": 55,
      "hit": false,
      "t": 125766.81666666672,
      "d": 273.00601666666626,
      "v": 108
    },
    {
      "midi": 60,
      "hit": false,
      "t": 125766.81666666672,
      "d": 279.14098333333095,
      "v": 103
    },
    {
      "midi": 64,
      "hit": false,
      "t": 125766.81666666672,
      "d": 300.6133666666574,
      "v": 113
    },
    {
      "midi": 55,
      "hit": false,
      "t": 126134.91466666672,
      "d": 93.55824166667298,
      "v": 113
    },
    {
      "midi": 59,
      "hit": false,
      "t": 126134.91466666672,
      "d": 95.09198333334643,
      "v": 87
    },
    {
      "midi": 62,
      "hit": false,
      "t": 126134.91466666672,
      "d": 102.76069166668458,
      "v": 108
    },
    {
      "midi": 62,
      "hit": false,
      "t": 126625.71200000007,
      "d": 95.09198333333188,
      "v": 108
    },
    {
      "midi": 59,
      "hit": false,
      "t": 126625.71200000007,
      "d": 108.89565833333472,
      "v": 108
    },
    {
      "midi": 67,
      "hit": false,
      "t": 126625.71200000007,
      "d": 119.63185000000522,
      "v": 113
    },
    {
      "midi": 59,
      "hit": false,
      "t": 126871.11066666675,
      "d": 133.4355249999935,
      "v": 92
    },
    {
      "midi": 62,
      "hit": false,
      "t": 126871.11066666675,
      "d": 157.97539166666684,
      "v": 108
    },
    {
      "midi": 67,
      "hit": false,
      "t": 126871.11066666675,
      "d": 173.31280833332858,
      "v": 113
    },
    {
      "midi": 55,
      "hit": false,
      "t": 127239.20866666675,
      "d": 226.9937666666665,
      "v": 108
    },
    {
      "midi": 60,
      "hit": false,
      "t": 127239.20866666675,
      "d": 228.52750833333994,
      "v": 108
    },
    {
      "midi": 64,
      "hit": false,
      "t": 127239.20866666675,
      "d": 246.93240833333402,
      "v": 113
    },
    {
      "midi": 62,
      "hit": false,
      "t": 127607.30666666674,
      "d": 99.69320833333768,
      "v": 124
    },
    {
      "midi": 59,
      "hit": false,
      "t": 127607.30666666674,
      "d": 107.36191666667582,
      "v": 113
    },
    {
      "midi": 55,
      "hit": false,
      "t": 127607.30666666674,
      "d": 131.90178333334916,
      "v": 124
    },
    {
      "midi": 45,
      "hit": false,
      "t": 131042.8880000001,
      "d": 308.28207499999553,
      "v": 97
    },
    {
      "midi": 61,
      "hit": false,
      "t": 131042.8880000001,
      "d": 338.956908333319,
      "v": 82
    },
    {
      "midi": 57,
      "hit": false,
      "t": 131042.8880000001,
      "d": 351.2268416666484,
      "v": 87
    },
    {
      "midi": 52,
      "hit": false,
      "t": 131042.8880000001,
      "d": 357.3618083333131,
      "v": 75
    },
    {
      "midi": 50,
      "hit": false,
      "t": 132147.18200000006,
      "d": 780.6745083333226,
      "v": 92
    },
    {
      "midi": 55,
      "hit": false,
      "t": 132147.18200000006,
      "d": 806.7481166666548,
      "v": 97
    },
    {
      "midi": 59,
      "hit": false,
      "t": 132147.18200000006,
      "d": 840.4904333333252,
      "v": 103
    },
    {
      "midi": 45,
      "hit": false,
      "t": 133987.67200000005,
      "d": 176.38029166666092,
      "v": 97
    },
    {
      "midi": 57,
      "hit": false,
      "t": 133987.67200000005,
      "d": 239.26369999998133,
      "v": 92
    },
    {
      "midi": 52,
      "hit": false,
      "t": 133987.67200000005,
      "d": 240.79744166665478,
      "v": 78
    },
    {
      "midi": 61,
      "hit": false,
      "t": 133987.67200000005,
      "d": 251.53363333331072,
      "v": 87
    },
    {
      "midi": 52,
      "hit": false,
      "t": 135091.96600000004,
      "d": 240.79744166668388,
      "v": 87
    },
    {
      "midi": 55,
      "hit": false,
      "t": 135091.96600000004,
      "d": 245.39866666667513,
      "v": 108
    },
    {
      "midi": 59,
      "hit": false,
      "t": 135091.96600000004,
      "d": 274.53975833335426,
      "v": 103
    },
    {
      "midi": 57,
      "hit": false,
      "t": 136932.45600000006,
      "d": 108.89565833332017,
      "v": 103
    },
    {
      "midi": 52,
      "hit": false,
      "t": 136932.45600000006,
      "d": 119.63184999997611,
      "v": 92
    },
    {
      "midi": 61,
      "hit": false,
      "t": 136932.45600000006,
      "d": 133.43552499997895,
      "v": 103
    },
    {
      "midi": 55,
      "hit": false,
      "t": 138036.75000000003,
      "d": 214.72383333332255,
      "v": 113
    },
    {
      "midi": 52,
      "hit": false,
      "t": 138036.75000000003,
      "d": 219.3250583333138,
      "v": 108
    },
    {
      "midi": 59,
      "hit": false,
      "t": 138036.75000000003,
      "d": 266.871049999987,
      "v": 119
    },
    {
      "midi": 45,
      "hit": false,
      "t": 139877.24000000002,
      "d": 119.63185000000522,
      "v": 103
    },
    {
      "midi": 57,
      "hit": false,
      "t": 139877.24000000002,
      "d": 122.69933333335212,
      "v": 108
    },
    {
      "midi": 52,
      "hit": false,
      "t": 139877.24000000002,
      "d": 133.43552500000806,
      "v": 97
    },
    {
      "midi": 61,
      "hit": false,
      "t": 139877.24000000002,
      "d": 165.64410000000498,
      "v": 113
    },
    {
      "midi": 55,
      "hit": false,
      "t": 140981.534,
      "d": 360.42929166666,
      "v": 113
    },
    {
      "midi": 52,
      "hit": false,
      "t": 140981.534,
      "d": 375.7667083333363,
      "v": 108
    },
    {
      "midi": 59,
      "hit": false,
      "t": 140981.534,
      "d": 377.30045000000973,
      "v": 113
    },
    {
      "midi": 38,
      "hit": false,
      "t": 142834.29393333333,
      "d": 680.981300000014,
      "v": 78
    },
    {
      "midi": 45,
      "hit": false,
      "t": 143910.98058333335,
      "d": 1469.3245166666748,
      "v": 78
    },
    {
      "midi": 38,
      "hit": false,
      "t": 145777.5441916667,
      "d": 633.4353083333408,
      "v": 87
    },
    {
      "midi": 45,
      "hit": false,
      "t": 146860.3658083334,
      "d": 1401.839883333334,
      "v": 113
    },
    {
      "midi": 45,
      "hit": false,
      "t": 153012.20363333338,
      "d": 102.76069166665548,
      "v": 113
    },
    {
      "midi": 59,
      "hit": false,
      "t": 153130.3017416667,
      "d": 248.46615000002203,
      "v": 87
    },
    {
      "midi": 57,
      "hit": false,
      "t": 153137.97045000005,
      "d": 210.1226083333313,
      "v": 108
    },
    {
      "midi": 45,
      "hit": false,
      "t": 153357.2955083334,
      "d": 99.69320833333768,
      "v": 108
    },
    {
      "midi": 57,
      "hit": false,
      "t": 153364.96421666673,
      "d": 102.76069166665548,
      "v": 71
    },
    {
      "midi": 57,
      "hit": false,
      "t": 153479.99484166672,
      "d": 236.19621666666353,
      "v": 92
    },
    {
      "midi": 59,
      "hit": false,
      "t": 153501.46722500006,
      "d": 231.59499166667229,
      "v": 67
    },
    {
      "midi": 52,
      "hit": false,
      "t": 153729.99473333338,
      "d": 501.5335250000062,
      "v": 113
    },
    {
      "midi": 57,
      "hit": false,
      "t": 153737.66344166672,
      "d": 553.6807416666707,
      "v": 68
    },
    {
      "midi": 64,
      "hit": false,
      "t": 154601.16000000006,
      "d": 601.2267333333439,
      "v": 51
    },
    {
      "midi": 69,
      "hit": false,
      "t": 154601.16000000006,
      "d": 677.9138166666671,
      "v": 69
    },
    {
      "midi": 57,
      "hit": false,
      "t": 154601.16000000006,
      "d": 707.0549083333462,
      "v": 78
    },
    {
      "midi": 72,
      "hit": false,
      "t": 154601.16000000006,
      "d": 717.7911000000022,
      "v": 78
    },
    {
      "midi": 81,
      "hit": false,
      "t": 155914.04286666674,
      "d": 190.18396666669287,
      "v": 75
    },
    {
      "midi": 78,
      "hit": false,
      "t": 155996.86491666676,
      "d": 125.76681666666991,
      "v": 92
    },
    {
      "midi": 74,
      "hit": false,
      "t": 156110.3618000001,
      "d": 107.36191666667582,
      "v": 97
    },
    {
      "midi": 88,
      "hit": false,
      "t": 157410.97473333345,
      "d": 153.3741666666756,
      "v": 75
    },
    {
      "midi": 69,
      "hit": false,
      "t": 157412.50847500013,
      "d": 297.5458833333396,
      "v": 78
    },
    {
      "midi": 72,
      "hit": false,
      "t": 157444.71705000012,
      "d": 279.1409833333455,
      "v": 69
    },
    {
      "midi": 84,
      "hit": false,
      "t": 157458.52072500013,
      "d": 130.36804166666116,
      "v": 73
    },
    {
      "midi": 76,
      "hit": false,
      "t": 157527.53910000014,
      "d": 208.58886666665785,
      "v": 56
    },
    {
      "midi": 79,
      "hit": false,
      "t": 157570.4838666668,
      "d": 145.70545833333745,
      "v": 92
    },
    {
      "midi": 81,
      "hit": false,
      "t": 158881.8329916668,
      "d": 121.16559166667867,
      "v": 97
    },
    {
      "midi": 62,
      "hit": false,
      "t": 158910.97408333348,
      "d": 394.17160833333037,
      "v": 73
    },
    {
      "midi": 78,
      "hit": false,
      "t": 158970.79000833348,
      "d": 104.29443333332893,
      "v": 113
    },
    {
      "midi": 69,
      "hit": false,
      "t": 159024.47096666682,
      "d": 297.5458833333105,
      "v": 73
    },
    {
      "midi": 74,
      "hit": false,
      "t": 159067.41573333347,
      "d": 170.24532499999623,
      "v": 92
    },
    {
      "midi": 76,
      "hit": false,
      "t": 160358.82621666678,
      "d": 174.84654999998747,
      "v": 73
    },
    {
      "midi": 57,
      "hit": false,
      "t": 160398.70350000012,
      "d": 411.0427666666801,
      "v": 87
    },
    {
      "midi": 72,
      "hit": false,
      "t": 160409.43969166678,
      "d": 167.17784166667843,
      "v": 92
    },
    {
      "midi": 67,
      "hit": false,
      "t": 160535.20650833345,
      "d": 245.39866666667513,
      "v": 92
    },
    {
      "midi": 66,
      "hit": false,
      "t": 161786.73970833348,
      "d": 47.54599166667322,
      "v": 42
    },
    {
      "midi": 81,
      "hit": false,
      "t": 161834.28570000015,
      "d": 165.6441000000341,
      "v": 87
    },
    {
      "midi": 62,
      "hit": false,
      "t": 161858.82556666684,
      "d": 400.30657499999506,
      "v": 64
    },
    {
      "midi": 69,
      "hit": false,
      "t": 161880.29795000018,
      "d": 386.5028999999922,
      "v": 57
    },
    {
      "midi": 78,
      "hit": false,
      "t": 161927.84394166686,
      "d": 116.56436666665832,
      "v": 78
    },
    {
      "midi": 74,
      "hit": false,
      "t": 162013.7334750002,
      "d": 174.84654999998747,
      "v": 92
    },
    {
      "midi": 76,
      "hit": false,
      "t": 163311.27892500017,
      "d": 124.23307499999646,
      "v": 82
    },
    {
      "midi": 72,
      "hit": false,
      "t": 163355.7574333335,
      "d": 151.84042500000214,
      "v": 69
    },
    {
      "midi": 57,
      "hit": false,
      "t": 163360.35865833348,
      "d": 578.2206083333294,
      "v": 69
    },
    {
      "midi": 67,
      "hit": false,
      "t": 163479.9905083335,
      "d": 440.18385833333014,
      "v": 87
    },
    {
      "midi": 62,
      "hit": false,
      "t": 164771.4009916668,
      "d": 449.3863083333126,
      "v": 92
    },
    {
      "midi": 81,
      "hit": false,
      "t": 164799.0083416668,
      "d": 70.55211666665855,
      "v": 57
    },
    {
      "midi": 78,
      "hit": false,
      "t": 164831.2169166668,
      "d": 133.43552499997895,
      "v": 69
    },
    {
      "midi": 69,
      "hit": false,
      "t": 164907.90400000013,
      "d": 315.9507833333337,
      "v": 73
    },
    {
      "midi": 74,
      "hit": false,
      "t": 164940.11257500012,
      "d": 274.53975833332515,
      "v": 87
    },
    {
      "midi": 64,
      "hit": false,
      "t": 166380.29600000012,
      "d": 601.2267333333439,
      "v": 51
    },
    {
      "midi": 69,
      "hit": false,
      "t": 166380.29600000012,
      "d": 677.9138166666671,
      "v": 69
    },
    {
      "midi": 57,
      "hit": false,
      "t": 166380.29600000012,
      "d": 707.0549083333462,
      "v": 78
    },
    {
      "midi": 72,
      "hit": false,
      "t": 166380.29600000012,
      "d": 717.7911000000022,
      "v": 78
    },
    {
      "midi": 81,
      "hit": false,
      "t": 167693.1788666668,
      "d": 190.18396666669287,
      "v": 75
    },
    {
      "midi": 78,
      "hit": false,
      "t": 167776.00091666682,
      "d": 125.76681666666991,
      "v": 92
    },
    {
      "midi": 74,
      "hit": false,
      "t": 167889.49780000016,
      "d": 107.36191666667582,
      "v": 97
    },
    {
      "midi": 88,
      "hit": false,
      "t": 169190.1107333335,
      "d": 153.3741666666756,
      "v": 75
    },
    {
      "midi": 69,
      "hit": false,
      "t": 169191.64447500018,
      "d": 297.5458833333396,
      "v": 78
    },
    {
      "midi": 72,
      "hit": false,
      "t": 169223.85305000018,
      "d": 279.1409833333455,
      "v": 69
    },
    {
      "midi": 84,
      "hit": false,
      "t": 169237.65672500018,
      "d": 130.36804166666116,
      "v": 73
    },
    {
      "midi": 76,
      "hit": false,
      "t": 169306.6751000002,
      "d": 208.58886666665785,
      "v": 56
    },
    {
      "midi": 79,
      "hit": false,
      "t": 169349.61986666685,
      "d": 145.70545833333745,
      "v": 92
    },
    {
      "midi": 81,
      "hit": false,
      "t": 170660.96899166686,
      "d": 121.16559166667867,
      "v": 97
    },
    {
      "midi": 62,
      "hit": false,
      "t": 170690.11008333354,
      "d": 394.17160833333037,
      "v": 73
    },
    {
      "midi": 78,
      "hit": false,
      "t": 170749.92600833354,
      "d": 104.29443333332893,
      "v": 113
    },
    {
      "midi": 69,
      "hit": false,
      "t": 170803.60696666688,
      "d": 297.5458833333105,
      "v": 73
    },
    {
      "midi": 74,
      "hit": false,
      "t": 170846.55173333353,
      "d": 170.24532499999623,
      "v": 92
    },
    {
      "midi": 76,
      "hit": false,
      "t": 172137.96221666684,
      "d": 174.84654999998747,
      "v": 73
    },
    {
      "midi": 57,
      "hit": false,
      "t": 172177.83950000018,
      "d": 411.0427666666801,
      "v": 87
    },
    {
      "midi": 72,
      "hit": false,
      "t": 172188.57569166683,
      "d": 167.17784166667843,
      "v": 92
    },
    {
      "midi": 67,
      "hit": false,
      "t": 172314.3425083335,
      "d": 245.39866666667513,
      "v": 92
    },
    {
      "midi": 66,
      "hit": false,
      "t": 173565.87570833354,
      "d": 47.54599166667322,
      "v": 42
    },
    {
      "midi": 81,
      "hit": false,
      "t": 173613.4217000002,
      "d": 165.6441000000341,
      "v": 87
    },
    {
      "midi": 62,
      "hit": false,
      "t": 173637.9615666669,
      "d": 400.30657499999506,
      "v": 64
    },
    {
      "midi": 69,
      "hit": false,
      "t": 173659.43395000024,
      "d": 386.5028999999922,
      "v": 57
    },
    {
      "midi": 78,
      "hit": false,
      "t": 173706.9799416669,
      "d": 116.56436666665832,
      "v": 78
    },
    {
      "midi": 74,
      "hit": false,
      "t": 173792.86947500025,
      "d": 174.84654999998747,
      "v": 92
    },
    {
      "midi": 76,
      "hit": false,
      "t": 175090.41492500022,
      "d": 124.23307499999646,
      "v": 82
    },
    {
      "midi": 72,
      "hit": false,
      "t": 175134.89343333355,
      "d": 151.84042500000214,
      "v": 69
    },
    {
      "midi": 57,
      "hit": false,
      "t": 175139.49465833354,
      "d": 578.2206083333294,
      "v": 69
    },
    {
      "midi": 67,
      "hit": false,
      "t": 175259.12650833355,
      "d": 440.18385833333014,
      "v": 87
    },
    {
      "midi": 62,
      "hit": false,
      "t": 176550.53699166686,
      "d": 449.3863083333126,
      "v": 92
    },
    {
      "midi": 81,
      "hit": false,
      "t": 176578.14434166686,
      "d": 70.55211666665855,
      "v": 57
    },
    {
      "midi": 78,
      "hit": false,
      "t": 176610.35291666686,
      "d": 133.43552499997895,
      "v": 69
    },
    {
      "midi": 69,
      "hit": false,
      "t": 176687.04000000018,
      "d": 315.9507833333337,
      "v": 73
    },
    {
      "midi": 74,
      "hit": false,
      "t": 176719.24857500018,
      "d": 274.53975833332515,
      "v": 87
    },
    {
      "midi": 76,
      "hit": false,
      "t": 178159.43200000018,
      "d": 42.94476666665287,
      "v": 73
    },
    {
      "midi": 72,
      "hit": false,
      "t": 178159.43200000018,
      "d": 85.88953333333484,
      "v": 92
    },
    {
      "midi": 57,
      "hit": false,
      "t": 178159.43200000018,
      "d": 319.0182666666806,
      "v": 87
    },
    {
      "midi": 67,
      "hit": false,
      "t": 178203.9105083335,
      "d": 245.39866666667513,
      "v": 92
    },
    {
      "midi": 66,
      "hit": false,
      "t": 179455.44370833354,
      "d": 47.54599166667322,
      "v": 42
    },
    {
      "midi": 81,
      "hit": false,
      "t": 179502.9897000002,
      "d": 165.6441000000341,
      "v": 87
    },
    {
      "midi": 62,
      "hit": false,
      "t": 179527.5295666669,
      "d": 400.30657499999506,
      "v": 64
    },
    {
      "midi": 69,
      "hit": false,
      "t": 179549.00195000024,
      "d": 386.5028999999922,
      "v": 57
    },
    {
      "midi": 78,
      "hit": false,
      "t": 179596.5479416669,
      "d": 116.56436666665832,
      "v": 78
    },
    {
      "midi": 74,
      "hit": false,
      "t": 179682.43747500025,
      "d": 174.84654999998747,
      "v": 92
    },
    {
      "midi": 76,
      "hit": false,
      "t": 180979.98292500022,
      "d": 124.23307499999646,
      "v": 82
    },
    {
      "midi": 72,
      "hit": false,
      "t": 181024.46143333355,
      "d": 151.84042500000214,
      "v": 69
    },
    {
      "midi": 57,
      "hit": false,
      "t": 181029.06265833354,
      "d": 578.2206083333294,
      "v": 69
    },
    {
      "midi": 67,
      "hit": false,
      "t": 181148.69450833354,
      "d": 440.18385833333014,
      "v": 87
    },
    {
      "midi": 62,
      "hit": false,
      "t": 182440.10499166686,
      "d": 449.3863083333126,
      "v": 92
    },
    {
      "midi": 81,
      "hit": false,
      "t": 182467.71234166686,
      "d": 70.55211666665855,
      "v": 57
    },
    {
      "midi": 78,
      "hit": false,
      "t": 182499.92091666686,
      "d": 133.43552499997895,
      "v": 69
    },
    {
      "midi": 69,
      "hit": false,
      "t": 182576.60800000018,
      "d": 315.9507833333337,
      "v": 73
    },
    {
      "midi": 74,
      "hit": false,
      "t": 182608.81657500018,
      "d": 274.53975833332515,
      "v": 87
    },
    {
      "midi": 76,
      "hit": false,
      "t": 184049.00000000017,
      "d": 42.94476666665287,
      "v": 73
    },
    {
      "midi": 72,
      "hit": false,
      "t": 184049.00000000017,
      "d": 85.88953333333484,
      "v": 92
    },
    {
      "midi": 57,
      "hit": false,
      "t": 184049.00000000017,
      "d": 319.0182666666806,
      "v": 87
    },
    {
      "midi": 67,
      "hit": false,
      "t": 184093.4785083335,
      "d": 245.39866666667513,
      "v": 92
    },
    {
      "midi": 66,
      "hit": false,
      "t": 185345.01170833354,
      "d": 47.54599166667322,
      "v": 42
    },
    {
      "midi": 81,
      "hit": false,
      "t": 185392.5577000002,
      "d": 165.6441000000341,
      "v": 87
    },
    {
      "midi": 62,
      "hit": false,
      "t": 185417.0975666669,
      "d": 400.30657499999506,
      "v": 64
    },
    {
      "midi": 69,
      "hit": false,
      "t": 185438.56995000024,
      "d": 386.5028999999922,
      "v": 57
    },
    {
      "midi": 78,
      "hit": false,
      "t": 185486.1159416669,
      "d": 116.56436666665832,
      "v": 78
    },
    {
      "midi": 74,
      "hit": false,
      "t": 185572.00547500025,
      "d": 174.84654999998747,
      "v": 92
    },
    {
      "midi": 76,
      "hit": false,
      "t": 186869.55092500022,
      "d": 124.23307499999646,
      "v": 82
    },
    {
      "midi": 72,
      "hit": false,
      "t": 186914.02943333355,
      "d": 151.84042500000214,
      "v": 69
    },
    {
      "midi": 57,
      "hit": false,
      "t": 186918.63065833354,
      "d": 578.2206083333294,
      "v": 69
    },
    {
      "midi": 67,
      "hit": false,
      "t": 187038.26250833354,
      "d": 440.18385833333014,
      "v": 87
    },
    {
      "midi": 62,
      "hit": false,
      "t": 188329.67299166686,
      "d": 449.3863083333126,
      "v": 92
    },
    {
      "midi": 81,
      "hit": false,
      "t": 188357.28034166686,
      "d": 70.55211666665855,
      "v": 57
    },
    {
      "midi": 78,
      "hit": false,
      "t": 188389.48891666686,
      "d": 133.43552499997895,
      "v": 69
    },
    {
      "midi": 69,
      "hit": false,
      "t": 188466.17600000018,
      "d": 315.9507833333337,
      "v": 73
    },
    {
      "midi": 74,
      "hit": false,
      "t": 188498.38457500018,
      "d": 274.53975833332515,
      "v": 87
    },
    {
      "midi": 45,
      "hit": false,
      "t": 189447.77066666685,
      "d": 139.57049166664365,
      "v": 127
    },
    {
      "midi": 57,
      "hit": false,
      "t": 189447.77066666685,
      "d": 139.57049166664365,
      "v": 127
    },
    {
      "midi": 47,
      "hit": false,
      "t": 189570.47000000018,
      "d": 217.79131666664034,
      "v": 124
    },
    {
      "midi": 59,
      "hit": false,
      "t": 189570.47000000018,
      "d": 217.79131666664034,
      "v": 124
    },
    {
      "midi": 45,
      "hit": false,
      "t": 189815.86866666682,
      "d": 107.36191666667582,
      "v": 119
    },
    {
      "midi": 57,
      "hit": false,
      "t": 189815.86866666682,
      "d": 107.36191666667582,
      "v": 119
    },
    {
      "midi": 50,
      "hit": false,
      "t": 189938.56800000017,
      "d": 223.92628333333414,
      "v": 127
    },
    {
      "midi": 62,
      "hit": false,
      "t": 189938.56800000017,
      "d": 223.92628333333414,
      "v": 127
    },
    {
      "midi": 47,
      "hit": false,
      "t": 190674.76400000017,
      "d": 213.1900916666782,
      "v": 127
    },
    {
      "midi": 59,
      "hit": false,
      "t": 190674.76400000017,
      "d": 213.1900916666782,
      "v": 127
    },
    {
      "midi": 45,
      "hit": false,
      "t": 190920.16266666685,
      "d": 162.57661666665808,
      "v": 108
    },
    {
      "midi": 57,
      "hit": false,
      "t": 190920.16266666685,
      "d": 162.57661666665808,
      "v": 108
    },
    {
      "midi": 47,
      "hit": false,
      "t": 191042.86200000017,
      "d": 245.39866666667513,
      "v": 127
    },
    {
      "midi": 59,
      "hit": false,
      "t": 191042.86200000017,
      "d": 245.39866666667513,
      "v": 127
    },
    {
      "midi": 45,
      "hit": false,
      "t": 191288.26066666684,
      "d": 116.56436666665832,
      "v": 124
    },
    {
      "midi": 57,
      "hit": false,
      "t": 191288.26066666684,
      "d": 116.56436666665832,
      "v": 124
    },
    {
      "midi": 50,
      "hit": false,
      "t": 191410.96000000017,
      "d": 254.60111666665762,
      "v": 127
    },
    {
      "midi": 62,
      "hit": false,
      "t": 191410.96000000017,
      "d": 254.60111666665762,
      "v": 127
    },
    {
      "midi": 47,
      "hit": false,
      "t": 191779.05800000016,
      "d": 228.5275083333254,
      "v": 127
    },
    {
      "midi": 59,
      "hit": false,
      "t": 191779.05800000016,
      "d": 228.5275083333254,
      "v": 127
    },
    {
      "midi": 45,
      "hit": false,
      "t": 192024.4566666668,
      "d": 128.8342999999877,
      "v": 108
    },
    {
      "midi": 57,
      "hit": false,
      "t": 192024.4566666668,
      "d": 128.8342999999877,
      "v": 108
    },
    {
      "midi": 47,
      "hit": false,
      "t": 192147.15600000013,
      "d": 237.72995833333698,
      "v": 127
    },
    {
      "midi": 59,
      "hit": false,
      "t": 192147.15600000013,
      "d": 237.72995833333698,
      "v": 127
    },
    {
      "midi": 45,
      "hit": false,
      "t": 192392.5546666668,
      "d": 124.23307499999646,
      "v": 119
    },
    {
      "midi": 57,
      "hit": false,
      "t": 192392.5546666668,
      "d": 124.23307499999646,
      "v": 119
    },
    {
      "midi": 50,
      "hit": false,
      "t": 192392.5546666668,
      "d": 202.45389999999315,
      "v": 127
    },
    {
      "midi": 62,
      "hit": false,
      "t": 192392.5546666668,
      "d": 202.45389999999315,
      "v": 127
    },
    {
      "midi": 47,
      "hit": false,
      "t": 192515.25400000013,
      "d": 216.257574999996,
      "v": 127
    },
    {
      "midi": 59,
      "hit": false,
      "t": 192515.25400000013,
      "d": 216.257574999996,
      "v": 127
    },
    {
      "midi": 45,
      "hit": false,
      "t": 192760.6526666668,
      "d": 113.49688333334052,
      "v": 127
    },
    {
      "midi": 57,
      "hit": false,
      "t": 192760.6526666668,
      "d": 113.49688333334052,
      "v": 127
    },
    {
      "midi": 50,
      "hit": false,
      "t": 192883.35200000016,
      "d": 223.92628333333414,
      "v": 127
    },
    {
      "midi": 62,
      "hit": false,
      "t": 192883.35200000016,
      "d": 223.92628333333414,
      "v": 127
    },
    {
      "midi": 47,
      "hit": false,
      "t": 193251.45000000016,
      "d": 242.33118333332823,
      "v": 127
    },
    {
      "midi": 59,
      "hit": false,
      "t": 193251.45000000016,
      "d": 242.33118333332823,
      "v": 127
    },
    {
      "midi": 45,
      "hit": false,
      "t": 193496.84866666683,
      "d": 108.89565833332017,
      "v": 108
    },
    {
      "midi": 57,
      "hit": false,
      "t": 193496.84866666683,
      "d": 108.89565833332017,
      "v": 108
    },
    {
      "midi": 50,
      "hit": false,
      "t": 193619.54800000016,
      "d": 154.90790833331994,
      "v": 127
    },
    {
      "midi": 62,
      "hit": false,
      "t": 193619.54800000016,
      "d": 154.90790833331994,
      "v": 127
    },
    {
      "midi": 50,
      "hit": false,
      "t": 193864.9466666668,
      "d": 139.57049166667275,
      "v": 127
    },
    {
      "midi": 62,
      "hit": false,
      "t": 193864.9466666668,
      "d": 139.57049166667275,
      "v": 127
    },
    {
      "midi": 54,
      "hit": false,
      "t": 194233.0446666668,
      "d": 503.06726666665054,
      "v": 127
    },
    {
      "midi": 66,
      "hit": false,
      "t": 194233.0446666668,
      "d": 503.06726666665054,
      "v": 127
    },
    {
      "midi": 47,
      "hit": false,
      "t": 194723.84200000012,
      "d": 157.97539166666684,
      "v": 127
    },
    {
      "midi": 59,
      "hit": false,
      "t": 194723.84200000012,
      "d": 157.97539166666684,
      "v": 127
    },
    {
      "midi": 45,
      "hit": false,
      "t": 195091.94000000012,
      "d": 231.59499166667229,
      "v": 127
    },
    {
      "midi": 57,
      "hit": false,
      "t": 195091.94000000012,
      "d": 231.59499166667229,
      "v": 127
    },
    {
      "midi": 45,
      "hit": false,
      "t": 201226.9066666668,
      "d": 139.57049166664365,
      "v": 127
    },
    {
      "midi": 57,
      "hit": false,
      "t": 201226.9066666668,
      "d": 139.57049166664365,
      "v": 127
    },
    {
      "midi": 47,
      "hit": false,
      "t": 201349.60600000012,
      "d": 217.79131666664034,
      "v": 124
    },
    {
      "midi": 59,
      "hit": false,
      "t": 201349.60600000012,
      "d": 217.79131666664034,
      "v": 124
    },
    {
      "midi": 45,
      "hit": false,
      "t": 201595.00466666676,
      "d": 107.36191666667582,
      "v": 119
    },
    {
      "midi": 57,
      "hit": false,
      "t": 201595.00466666676,
      "d": 107.36191666667582,
      "v": 119
    },
    {
      "midi": 50,
      "hit": false,
      "t": 201717.7040000001,
      "d": 223.92628333333414,
      "v": 127
    },
    {
      "midi": 62,
      "hit": false,
      "t": 201717.7040000001,
      "d": 223.92628333333414,
      "v": 127
    },
    {
      "midi": 47,
      "hit": false,
      "t": 202453.9000000001,
      "d": 213.1900916666782,
      "v": 127
    },
    {
      "midi": 59,
      "hit": false,
      "t": 202453.9000000001,
      "d": 213.1900916666782,
      "v": 127
    },
    {
      "midi": 45,
      "hit": false,
      "t": 202699.2986666668,
      "d": 162.57661666665808,
      "v": 108
    },
    {
      "midi": 57,
      "hit": false,
      "t": 202699.2986666668,
      "d": 162.57661666665808,
      "v": 108
    },
    {
      "midi": 47,
      "hit": false,
      "t": 202821.9980000001,
      "d": 245.39866666667513,
      "v": 127
    },
    {
      "midi": 59,
      "hit": false,
      "t": 202821.9980000001,
      "d": 245.39866666667513,
      "v": 127
    },
    {
      "midi": 45,
      "hit": false,
      "t": 203067.39666666678,
      "d": 116.56436666665832,
      "v": 124
    },
    {
      "midi": 57,
      "hit": false,
      "t": 203067.39666666678,
      "d": 116.56436666665832,
      "v": 124
    },
    {
      "midi": 50,
      "hit": false,
      "t": 203190.0960000001,
      "d": 254.60111666665762,
      "v": 127
    },
    {
      "midi": 62,
      "hit": false,
      "t": 203190.0960000001,
      "d": 254.60111666665762,
      "v": 127
    },
    {
      "midi": 47,
      "hit": false,
      "t": 203558.1940000001,
      "d": 228.5275083333254,
      "v": 127
    },
    {
      "midi": 59,
      "hit": false,
      "t": 203558.1940000001,
      "d": 228.5275083333254,
      "v": 127
    },
    {
      "midi": 45,
      "hit": false,
      "t": 203803.59266666675,
      "d": 128.8342999999877,
      "v": 108
    },
    {
      "midi": 57,
      "hit": false,
      "t": 203803.59266666675,
      "d": 128.8342999999877,
      "v": 108
    },
    {
      "midi": 47,
      "hit": false,
      "t": 203926.29200000007,
      "d": 237.72995833333698,
      "v": 127
    },
    {
      "midi": 59,
      "hit": false,
      "t": 203926.29200000007,
      "d": 237.72995833333698,
      "v": 127
    },
    {
      "midi": 45,
      "hit": false,
      "t": 204171.69066666675,
      "d": 124.23307499999646,
      "v": 119
    },
    {
      "midi": 57,
      "hit": false,
      "t": 204171.69066666675,
      "d": 124.23307499999646,
      "v": 119
    },
    {
      "midi": 50,
      "hit": false,
      "t": 204171.69066666675,
      "d": 202.45389999999315,
      "v": 127
    },
    {
      "midi": 62,
      "hit": false,
      "t": 204171.69066666675,
      "d": 202.45389999999315,
      "v": 127
    },
    {
      "midi": 47,
      "hit": false,
      "t": 204294.39000000007,
      "d": 216.257574999996,
      "v": 127
    },
    {
      "midi": 59,
      "hit": false,
      "t": 204294.39000000007,
      "d": 216.257574999996,
      "v": 127
    },
    {
      "midi": 45,
      "hit": false,
      "t": 204539.78866666675,
      "d": 113.49688333334052,
      "v": 127
    },
    {
      "midi": 57,
      "hit": false,
      "t": 204539.78866666675,
      "d": 113.49688333334052,
      "v": 127
    },
    {
      "midi": 50,
      "hit": false,
      "t": 204662.4880000001,
      "d": 223.92628333333414,
      "v": 127
    },
    {
      "midi": 62,
      "hit": false,
      "t": 204662.4880000001,
      "d": 223.92628333333414,
      "v": 127
    },
    {
      "midi": 47,
      "hit": false,
      "t": 205030.5860000001,
      "d": 242.33118333332823,
      "v": 127
    },
    {
      "midi": 59,
      "hit": false,
      "t": 205030.5860000001,
      "d": 242.33118333332823,
      "v": 127
    },
    {
      "midi": 45,
      "hit": false,
      "t": 205275.98466666677,
      "d": 108.89565833332017,
      "v": 108
    },
    {
      "midi": 57,
      "hit": false,
      "t": 205275.98466666677,
      "d": 108.89565833332017,
      "v": 108
    },
    {
      "midi": 50,
      "hit": false,
      "t": 205398.6840000001,
      "d": 154.90790833331994,
      "v": 127
    },
    {
      "midi": 62,
      "hit": false,
      "t": 205398.6840000001,
      "d": 154.90790833331994,
      "v": 127
    },
    {
      "midi": 50,
      "hit": false,
      "t": 205644.08266666674,
      "d": 139.57049166667275,
      "v": 127
    },
    {
      "midi": 62,
      "hit": false,
      "t": 205644.08266666674,
      "d": 139.57049166667275,
      "v": 127
    },
    {
      "midi": 54,
      "hit": false,
      "t": 206012.18066666674,
      "d": 503.06726666665054,
      "v": 127
    },
    {
      "midi": 66,
      "hit": false,
      "t": 206012.18066666674,
      "d": 503.06726666665054,
      "v": 127
    },
    {
      "midi": 47,
      "hit": false,
      "t": 206502.97800000006,
      "d": 157.97539166666684,
      "v": 127
    },
    {
      "midi": 59,
      "hit": false,
      "t": 206502.97800000006,
      "d": 157.97539166666684,
      "v": 127
    },
    {
      "midi": 45,
      "hit": false,
      "t": 206871.07600000006,
      "d": 231.59499166667229,
      "v": 127
    },
    {
      "midi": 57,
      "hit": false,
      "t": 206871.07600000006,
      "d": 231.59499166667229,
      "v": 127
    },
    {
      "midi": 45,
      "hit": false,
      "t": 213006.04266666673,
      "d": 139.57049166664365,
      "v": 127
    },
    {
      "midi": 57,
      "hit": false,
      "t": 213006.04266666673,
      "d": 139.57049166664365,
      "v": 127
    },
    {
      "midi": 47,
      "hit": false,
      "t": 213128.74200000006,
      "d": 217.79131666664034,
      "v": 124
    },
    {
      "midi": 59,
      "hit": false,
      "t": 213128.74200000006,
      "d": 217.79131666664034,
      "v": 124
    },
    {
      "midi": 45,
      "hit": false,
      "t": 213374.1406666667,
      "d": 107.36191666667582,
      "v": 119
    },
    {
      "midi": 57,
      "hit": false,
      "t": 213374.1406666667,
      "d": 107.36191666667582,
      "v": 119
    },
    {
      "midi": 62,
      "hit": false,
      "t": 213496.84000000005,
      "d": 176.38029166666092,
      "v": 123
    },
    {
      "midi": 62,
      "hit": false,
      "t": 213742.23866666673,
      "d": 81.2883083333436,
      "v": 103
    },
    {
      "midi": 62,
      "hit": false,
      "t": 213864.93800000008,
      "d": 199.38641666667536,
      "v": 123
    },
    {
      "midi": 59,
      "hit": false,
      "t": 214233.03600000008,
      "d": 213.1900916666782,
      "v": 103
    },
    {
      "midi": 57,
      "hit": false,
      "t": 214478.43466666676,
      "d": 162.57661666665808,
      "v": 86
    },
    {
      "midi": 62,
      "hit": false,
      "t": 214601.13400000008,
      "d": 180.98151666668127,
      "v": 123
    },
    {
      "midi": 59,
      "hit": false,
      "t": 214601.13400000008,
      "d": 245.39866666667513,
      "v": 109
    },
    {
      "midi": 62,
      "hit": false,
      "t": 214846.53266666675,
      "d": 78.2208249999967,
      "v": 115
    },
    {
      "midi": 57,
      "hit": false,
      "t": 214846.53266666675,
      "d": 116.56436666665832,
      "v": 98
    },
    {
      "midi": 62,
      "hit": false,
      "t": 214969.23200000008,
      "d": 188.65022499999031,
      "v": 123
    },
    {
      "midi": 59,
      "hit": false,
      "t": 215337.33000000007,
      "d": 228.5275083333254,
      "v": 103
    },
    {
      "midi": 57,
      "hit": false,
      "t": 215582.72866666672,
      "d": 128.8342999999877,
      "v": 86
    },
    {
      "midi": 62,
      "hit": false,
      "t": 215705.42800000004,
      "d": 180.98151666665217,
      "v": 123
    },
    {
      "midi": 59,
      "hit": false,
      "t": 215705.42800000004,
      "d": 237.72995833330788,
      "v": 103
    },
    {
      "midi": 62,
      "hit": false,
      "t": 215950.8266666667,
      "d": 72.085858333332,
      "v": 123
    },
    {
      "midi": 57,
      "hit": false,
      "t": 215950.8266666667,
      "d": 124.23307499999646,
      "v": 95
    },
    {
      "midi": 62,
      "hit": false,
      "t": 216073.526,
      "d": 79.75456666667014,
      "v": 123
    },
    {
      "midi": 59,
      "hit": false,
      "t": 216073.526,
      "d": 216.257574999996,
      "v": 115
    },
    {
      "midi": 57,
      "hit": false,
      "t": 216318.9246666667,
      "d": 113.49688333334052,
      "v": 103
    },
    {
      "midi": 62,
      "hit": false,
      "t": 216441.62400000004,
      "d": 223.92628333333414,
      "v": 115
    },
    {
      "midi": 59,
      "hit": false,
      "t": 216809.72200000004,
      "d": 242.33118333332823,
      "v": 103
    },
    {
      "midi": 57,
      "hit": false,
      "t": 217055.1206666667,
      "d": 108.89565833332017,
      "v": 86
    },
    {
      "midi": 62,
      "hit": false,
      "t": 217177.82000000004,
      "d": 154.90790833331994,
      "v": 123
    },
    {
      "midi": 62,
      "hit": false,
      "t": 217423.21866666668,
      "d": 139.57049166664365,
      "v": 115
    },
    {
      "midi": 59,
      "hit": false,
      "t": 217545.918,
      "d": 199.38641666664626,
      "v": 115
    },
    {
      "midi": 54,
      "hit": false,
      "t": 217791.31666666665,
      "d": 503.06726666665054,
      "v": 103
    },
    {
      "midi": 66,
      "hit": false,
      "t": 217791.31666666665,
      "d": 503.06726666665054,
      "v": 103
    },
    {
      "midi": 57,
      "hit": false,
      "t": 217914.01599999997,
      "d": 279.1409833333455,
      "v": 115
    },
    {
      "midi": 59,
      "hit": false,
      "t": 218282.11399999997,
      "d": 157.97539166666684,
      "v": 115
    },
    {
      "midi": 57,
      "hit": false,
      "t": 218650.21199999997,
      "d": 231.59499166667229,
      "v": 115
    },
    {
      "midi": 57,
      "hit": false,
      "t": 224785.17866666664,
      "d": 76.68708333332324,
      "v": 123
    },
    {
      "midi": 59,
      "hit": false,
      "t": 224907.87799999997,
      "d": 217.79131666666945,
      "v": 115
    },
    {
      "midi": 57,
      "hit": false,
      "t": 225153.27666666664,
      "d": 81.2883083333436,
      "v": 109
    },
    {
      "midi": 62,
      "hit": false,
      "t": 225275.976,
      "d": 176.38029166666092,
      "v": 123
    },
    {
      "midi": 62,
      "hit": false,
      "t": 225521.37466666667,
      "d": 81.2883083333436,
      "v": 103
    },
    {
      "midi": 62,
      "hit": false,
      "t": 225644.07400000002,
      "d": 199.38641666667536,
      "v": 123
    },
    {
      "midi": 59,
      "hit": false,
      "t": 226012.17200000002,
      "d": 213.1900916666782,
      "v": 103
    },
    {
      "midi": 57,
      "hit": false,
      "t": 226257.5706666667,
      "d": 162.57661666665808,
      "v": 86
    },
    {
      "midi": 62,
      "hit": false,
      "t": 226380.27000000002,
      "d": 180.98151666668127,
      "v": 123
    },
    {
      "midi": 59,
      "hit": false,
      "t": 226380.27000000002,
      "d": 245.39866666667513,
      "v": 109
    },
    {
      "midi": 62,
      "hit": false,
      "t": 226625.6686666667,
      "d": 78.2208249999967,
      "v": 115
    },
    {
      "midi": 57,
      "hit": false,
      "t": 226625.6686666667,
      "d": 116.56436666665832,
      "v": 98
    },
    {
      "midi": 62,
      "hit": false,
      "t": 226748.36800000002,
      "d": 188.65022499999031,
      "v": 123
    },
    {
      "midi": 59,
      "hit": false,
      "t": 227116.46600000001,
      "d": 228.5275083333254,
      "v": 103
    },
    {
      "midi": 57,
      "hit": false,
      "t": 227361.86466666666,
      "d": 128.8342999999877,
      "v": 86
    },
    {
      "midi": 62,
      "hit": false,
      "t": 227484.56399999998,
      "d": 180.98151666665217,
      "v": 123
    },
    {
      "midi": 59,
      "hit": false,
      "t": 227484.56399999998,
      "d": 237.72995833330788,
      "v": 103
    },
    {
      "midi": 62,
      "hit": false,
      "t": 227729.96266666663,
      "d": 72.085858333332,
      "v": 123
    },
    {
      "midi": 57,
      "hit": false,
      "t": 227729.96266666663,
      "d": 124.23307499999646,
      "v": 95
    },
    {
      "midi": 62,
      "hit": false,
      "t": 227852.66199999995,
      "d": 79.75456666667014,
      "v": 123
    },
    {
      "midi": 59,
      "hit": false,
      "t": 227852.66199999995,
      "d": 216.257574999996,
      "v": 115
    },
    {
      "midi": 57,
      "hit": false,
      "t": 228098.06066666663,
      "d": 113.49688333334052,
      "v": 103
    },
    {
      "midi": 62,
      "hit": false,
      "t": 228220.75999999998,
      "d": 223.92628333333414,
      "v": 115
    },
    {
      "midi": 59,
      "hit": false,
      "t": 228588.85799999998,
      "d": 242.33118333332823,
      "v": 103
    },
    {
      "midi": 57,
      "hit": false,
      "t": 228834.25666666665,
      "d": 108.89565833332017,
      "v": 86
    },
    {
      "midi": 62,
      "hit": false,
      "t": 228956.95599999998,
      "d": 154.90790833331994,
      "v": 123
    },
    {
      "midi": 62,
      "hit": false,
      "t": 229202.35466666662,
      "d": 139.57049166664365,
      "v": 115
    },
    {
      "midi": 59,
      "hit": false,
      "t": 229325.05399999995,
      "d": 199.38641666664626,
      "v": 115
    },
    {
      "midi": 54,
      "hit": false,
      "t": 229570.4526666666,
      "d": 503.06726666665054,
      "v": 103
    },
    {
      "midi": 66,
      "hit": false,
      "t": 229570.4526666666,
      "d": 503.06726666665054,
      "v": 103
    },
    {
      "midi": 57,
      "hit": false,
      "t": 229693.1519999999,
      "d": 279.1409833333455,
      "v": 115
    },
    {
      "midi": 59,
      "hit": false,
      "t": 230061.2499999999,
      "d": 157.97539166666684,
      "v": 115
    },
    {
      "midi": 57,
      "hit": false,
      "t": 230429.3479999999,
      "d": 231.59499166667229,
      "v": 115
    },
    {
      "midi": 57,
      "hit": false,
      "t": 236564.31466666659,
      "d": 76.68708333332324,
      "v": 123
    },
    {
      "midi": 59,
      "hit": false,
      "t": 236687.0139999999,
      "d": 217.79131666666945,
      "v": 115
    },
    {
      "midi": 57,
      "hit": false,
      "t": 236932.41266666658,
      "d": 81.2883083333436,
      "v": 109
    },
    {
      "midi": 62,
      "hit": false,
      "t": 237055.11199999994,
      "d": 176.38029166666092,
      "v": 123
    },
    {
      "midi": 62,
      "hit": false,
      "t": 237300.5106666666,
      "d": 81.2883083333436,
      "v": 103
    },
    {
      "midi": 62,
      "hit": false,
      "t": 237423.20999999996,
      "d": 199.38641666667536,
      "v": 123
    },
    {
      "midi": 59,
      "hit": false,
      "t": 237791.30799999996,
      "d": 213.1900916666782,
      "v": 103
    },
    {
      "midi": 57,
      "hit": false,
      "t": 238036.70666666664,
      "d": 162.57661666665808,
      "v": 86
    },
    {
      "midi": 62,
      "hit": false,
      "t": 238159.40599999996,
      "d": 180.98151666668127,
      "v": 123
    },
    {
      "midi": 59,
      "hit": false,
      "t": 238159.40599999996,
      "d": 245.39866666667513,
      "v": 109
    },
    {
      "midi": 62,
      "hit": false,
      "t": 238404.80466666663,
      "d": 78.2208249999967,
      "v": 115
    },
    {
      "midi": 57,
      "hit": false,
      "t": 238404.80466666663,
      "d": 116.56436666665832,
      "v": 98
    },
    {
      "midi": 62,
      "hit": false,
      "t": 238527.50399999996,
      "d": 188.65022499999031,
      "v": 123
    },
    {
      "midi": 59,
      "hit": false,
      "t": 238895.60199999996,
      "d": 228.5275083333254,
      "v": 103
    },
    {
      "midi": 57,
      "hit": false,
      "t": 239141.0006666666,
      "d": 128.8342999999877,
      "v": 86
    },
    {
      "midi": 62,
      "hit": false,
      "t": 239263.69999999992,
      "d": 180.98151666665217,
      "v": 123
    },
    {
      "midi": 59,
      "hit": false,
      "t": 239263.69999999992,
      "d": 237.72995833330788,
      "v": 103
    },
    {
      "midi": 62,
      "hit": false,
      "t": 239509.09866666657,
      "d": 72.085858333332,
      "v": 123
    },
    {
      "midi": 57,
      "hit": false,
      "t": 239509.09866666657,
      "d": 124.23307499999646,
      "v": 95
    },
    {
      "midi": 62,
      "hit": false,
      "t": 239631.7979999999,
      "d": 79.75456666667014,
      "v": 123
    },
    {
      "midi": 59,
      "hit": false,
      "t": 239631.7979999999,
      "d": 216.257574999996,
      "v": 115
    },
    {
      "midi": 57,
      "hit": false,
      "t": 239877.19666666657,
      "d": 113.49688333334052,
      "v": 103
    },
    {
      "midi": 62,
      "hit": false,
      "t": 239999.89599999992,
      "d": 223.92628333333414,
      "v": 115
    },
    {
      "midi": 59,
      "hit": false,
      "t": 240367.99399999992,
      "d": 242.33118333332823,
      "v": 103
    },
    {
      "midi": 57,
      "hit": false,
      "t": 240613.3926666666,
      "d": 108.89565833332017,
      "v": 86
    },
    {
      "midi": 62,
      "hit": false,
      "t": 240736.09199999992,
      "d": 154.90790833331994,
      "v": 123
    },
    {
      "midi": 62,
      "hit": false,
      "t": 240981.49066666656,
      "d": 139.57049166664365,
      "v": 115
    },
    {
      "midi": 59,
      "hit": false,
      "t": 241104.1899999999,
      "d": 199.38641666664626,
      "v": 115
    },
    {
      "midi": 54,
      "hit": false,
      "t": 241349.58866666653,
      "d": 503.06726666665054,
      "v": 103
    },
    {
      "midi": 66,
      "hit": false,
      "t": 241349.58866666653,
      "d": 503.06726666665054,
      "v": 103
    },
    {
      "midi": 57,
      "hit": false,
      "t": 241472.28799999985,
      "d": 279.1409833333455,
      "v": 115
    },
    {
      "midi": 59,
      "hit": false,
      "t": 241840.38599999985,
      "d": 157.97539166666684,
      "v": 115
    },
    {
      "midi": 57,
      "hit": false,
      "t": 242208.48399999985,
      "d": 231.59499166667229,
      "v": 115
    },
    {
      "midi": 50,
      "hit": false,
      "t": 242944.67999999985,
      "d": 3269.9372333333304,
      "v": 127
    },
    {
      "midi": 54,
      "hit": false,
      "t": 242944.67999999985,
      "d": 3279.139683333342,
      "v": 113
    }
  ]
}