{
  "jsonPath": "Pop/British Comedy/Python/outro-imagine.json",
  "path": "Pop\\British Comedy\\Python\\Outro (imagine).mid",
  "name": "Outro (imagine)",
  "difficulty": "Advanced",
  "bpm": 250,
  "notes": [
    {
      "midi": 71,
      "hit": false,
      "t": 7777.777,
      "d": 1111.110999999999,
      "v": 1
    },
    {
      "midi": 52,
      "hit": false,
      "t": 8888.887999999999,
      "d": 578.7036458333332,
      "v": 33
    },
    {
      "midi": 55,
      "hit": false,
      "t": 8888.887999999999,
      "d": 578.7036458333332,
      "v": 33
    },
    {
      "midi": 36,
      "hit": false,
      "t": 8888.887999999999,
      "d": 3888.888500000001,
      "v": 33
    },
    {
      "midi": 52,
      "hit": false,
      "t": 8888.888,
      "d": 578.7036458333314,
      "v": 100
    },
    {
      "midi": 55,
      "hit": false,
      "t": 8888.888,
      "d": 578.7036458333314,
      "v": 100
    },
    {
      "midi": 36,
      "hit": false,
      "t": 8888.888,
      "d": 3888.888499999999,
      "v": 100
    },
    {
      "midi": 48,
      "hit": false,
      "t": 9444.4435,
      "d": 555.5555000000004,
      "v": 100
    },
    {
      "midi": 48,
      "hit": false,
      "t": 9560.184229166665,
      "d": 555.5555000000004,
      "v": 38
    },
    {
      "midi": 52,
      "hit": false,
      "t": 9999.999,
      "d": 555.5555000000004,
      "v": 100
    },
    {
      "midi": 55,
      "hit": false,
      "t": 9999.999,
      "d": 555.5555000000004,
      "v": 100
    },
    {
      "midi": 52,
      "hit": false,
      "t": 10115.739729166666,
      "d": 555.5555000000004,
      "v": 42
    },
    {
      "midi": 55,
      "hit": false,
      "t": 10115.739729166666,
      "d": 555.5555000000004,
      "v": 43
    },
    {
      "midi": 48,
      "hit": false,
      "t": 10555.5545,
      "d": 578.7036458333332,
      "v": 100
    },
    {
      "midi": 48,
      "hit": false,
      "t": 10671.295229166666,
      "d": 578.7036458333332,
      "v": 39
    },
    {
      "midi": 52,
      "hit": false,
      "t": 11111.11,
      "d": 509.25920833333294,
      "v": 100
    },
    {
      "midi": 55,
      "hit": false,
      "t": 11111.11,
      "d": 532.4073541666658,
      "v": 100
    },
    {
      "midi": 52,
      "hit": false,
      "t": 11226.850729166666,
      "d": 509.25920833333294,
      "v": 40
    },
    {
      "midi": 55,
      "hit": false,
      "t": 11226.850729166666,
      "d": 532.4073541666658,
      "v": 42
    },
    {
      "midi": 48,
      "hit": false,
      "t": 11666.6655,
      "d": 601.8517916666679,
      "v": 100
    },
    {
      "midi": 48,
      "hit": false,
      "t": 11782.406229166665,
      "d": 601.8517916666679,
      "v": 40
    },
    {
      "midi": 52,
      "hit": false,
      "t": 12222.221,
      "d": 462.9629166666673,
      "v": 100
    },
    {
      "midi": 59,
      "hit": false,
      "t": 12222.221,
      "d": 486.1110625000001,
      "v": 100
    },
    {
      "midi": 55,
      "hit": false,
      "t": 12222.221,
      "d": 509.25920833333294,
      "v": 100
    },
    {
      "midi": 52,
      "hit": false,
      "t": 12337.961729166665,
      "d": 462.9629166666673,
      "v": 38
    },
    {
      "midi": 59,
      "hit": false,
      "t": 12337.961729166665,
      "d": 486.1110625000001,
      "v": 37
    },
    {
      "midi": 55,
      "hit": false,
      "t": 12337.961729166665,
      "d": 509.25920833333294,
      "v": 39
    },
    {
      "midi": 48,
      "hit": false,
      "t": 12777.7765,
      "d": 578.7036458333332,
      "v": 100
    },
    {
      "midi": 48,
      "hit": false,
      "t": 12893.517229166666,
      "d": 578.7036458333332,
      "v": 42
    },
    {
      "midi": 53,
      "hit": false,
      "t": 13333.332,
      "d": 555.5554999999986,
      "v": 100
    },
    {
      "midi": 57,
      "hit": false,
      "t": 13333.332,
      "d": 578.7036458333314,
      "v": 100
    },
    {
      "midi": 60,
      "hit": false,
      "t": 13333.332,
      "d": 578.7036458333314,
      "v": 100
    },
    {
      "midi": 41,
      "hit": false,
      "t": 13333.332,
      "d": 3472.2218749999975,
      "v": 100
    },
    {
      "midi": 53,
      "hit": false,
      "t": 13449.072729166666,
      "d": 555.5554999999986,
      "v": 39
    },
    {
      "midi": 57,
      "hit": false,
      "t": 13449.072729166666,
      "d": 578.7036458333314,
      "v": 40
    },
    {
      "midi": 60,
      "hit": false,
      "t": 13449.072729166666,
      "d": 578.7036458333314,
      "v": 40
    },
    {
      "midi": 41,
      "hit": false,
      "t": 13449.072729166666,
      "d": 3472.2218749999956,
      "v": 40
    },
    {
      "midi": 48,
      "hit": false,
      "t": 13888.887499999999,
      "d": 532.4073541666658,
      "v": 100
    },
    {
      "midi": 48,
      "hit": false,
      "t": 14004.628229166665,
      "d": 532.4073541666658,
      "v": 39
    },
    {
      "midi": 53,
      "hit": false,
      "t": 14444.442999999997,
      "d": 532.4073541666676,
      "v": 100
    },
    {
      "midi": 57,
      "hit": false,
      "t": 14444.442999999997,
      "d": 555.5555000000004,
      "v": 100
    },
    {
      "midi": 60,
      "hit": false,
      "t": 14444.442999999997,
      "d": 555.5555000000004,
      "v": 100
    },
    {
      "midi": 53,
      "hit": false,
      "t": 14560.183729166663,
      "d": 532.4073541666658,
      "v": 39
    },
    {
      "midi": 57,
      "hit": false,
      "t": 14560.183729166663,
      "d": 555.5554999999986,
      "v": 40
    },
    {
      "midi": 60,
      "hit": false,
      "t": 14560.183729166663,
      "d": 555.5554999999986,
      "v": 39
    },
    {
      "midi": 48,
      "hit": false,
      "t": 14999.998499999998,
      "d": 601.8517916666679,
      "v": 100
    },
    {
      "midi": 48,
      "hit": false,
      "t": 15115.739229166662,
      "d": 601.8517916666679,
      "v": 39
    },
    {
      "midi": 53,
      "hit": false,
      "t": 15555.553999999998,
      "d": 439.8147708333345,
      "v": 100
    },
    {
      "midi": 60,
      "hit": false,
      "t": 15555.553999999998,
      "d": 509.25920833333475,
      "v": 100
    },
    {
      "midi": 57,
      "hit": false,
      "t": 15555.553999999998,
      "d": 532.4073541666676,
      "v": 100
    },
    {
      "midi": 53,
      "hit": false,
      "t": 15671.294729166662,
      "d": 439.8147708333345,
      "v": 37
    },
    {
      "midi": 60,
      "hit": false,
      "t": 15671.294729166662,
      "d": 509.25920833333475,
      "v": 37
    },
    {
      "midi": 57,
      "hit": false,
      "t": 15671.294729166662,
      "d": 532.4073541666676,
      "v": 39
    },
    {
      "midi": 48,
      "hit": false,
      "t": 16111.109499999999,
      "d": 694.4443749999991,
      "v": 100
    },
    {
      "midi": 48,
      "hit": false,
      "t": 16226.850229166663,
      "d": 694.4443749999991,
      "v": 39
    },
    {
      "midi": 57,
      "hit": false,
      "t": 16666.664999999997,
      "d": 324.07404166666674,
      "v": 100
    },
    {
      "midi": 53,
      "hit": false,
      "t": 16666.664999999997,
      "d": 462.9629166666673,
      "v": 100
    },
    {
      "midi": 57,
      "hit": false,
      "t": 16782.40572916666,
      "d": 324.07404166666674,
      "v": 39
    },
    {
      "midi": 53,
      "hit": false,
      "t": 16782.40572916666,
      "d": 462.9629166666673,
      "v": 38
    },
    {
      "midi": 58,
      "hit": false,
      "t": 16944.44275,
      "d": 370.370333333336,
      "v": 100
    },
    {
      "midi": 58,
      "hit": false,
      "t": 17060.183479166662,
      "d": 370.370333333336,
      "v": 37
    },
    {
      "midi": 59,
      "hit": false,
      "t": 17222.2205,
      "d": 578.703645833335,
      "v": 100
    },
    {
      "midi": 59,
      "hit": false,
      "t": 17337.961229166664,
      "d": 578.703645833335,
      "v": 40
    },
    {
      "midi": 55,
      "hit": false,
      "t": 17777.776,
      "d": 509.25920833333294,
      "v": 100
    },
    {
      "midi": 52,
      "hit": false,
      "t": 17777.776,
      "d": 532.4073541666658,
      "v": 100
    },
    {
      "midi": 62,
      "hit": false,
      "t": 17777.776,
      "d": 555.5554999999986,
      "v": 100
    },
    {
      "midi": 36,
      "hit": false,
      "t": 17777.776,
      "d": 3842.5922083333244,
      "v": 100
    },
    {
      "midi": 55,
      "hit": false,
      "t": 17893.516729166666,
      "d": 509.25920833333294,
      "v": 36
    },
    {
      "midi": 52,
      "hit": false,
      "t": 17893.516729166666,
      "d": 532.4073541666658,
      "v": 33
    },
    {
      "midi": 62,
      "hit": false,
      "t": 17893.516729166666,
      "d": 555.5554999999986,
      "v": 42
    },
    {
      "midi": 36,
      "hit": false,
      "t": 17893.516729166666,
      "d": 3842.5922083333244,
      "v": 40
    },
    {
      "midi": 48,
      "hit": false,
      "t": 18333.3315,
      "d": 601.8517916666642,
      "v": 100
    },
    {
      "midi": 48,
      "hit": false,
      "t": 18449.072229166664,
      "d": 601.8517916666642,
      "v": 38
    },
    {
      "midi": 52,
      "hit": false,
      "t": 18888.887,
      "d": 532.4073541666658,
      "v": 100
    },
    {
      "midi": 55,
      "hit": false,
      "t": 18888.887,
      "d": 532.4073541666658,
      "v": 100
    },
    {
      "midi": 52,
      "hit": false,
      "t": 19004.627729166663,
      "d": 532.4073541666658,
      "v": 40
    },
    {
      "midi": 55,
      "hit": false,
      "t": 19004.627729166663,
      "d": 532.4073541666658,
      "v": 40
    },
    {
      "midi": 48,
      "hit": false,
      "t": 19444.442499999997,
      "d": 555.5554999999986,
      "v": 100
    },
    {
      "midi": 48,
      "hit": false,
      "t": 19560.18322916666,
      "d": 555.5554999999986,
      "v": 38
    },
    {
      "midi": 52,
      "hit": false,
      "t": 19999.997999999996,
      "d": 555.5554999999986,
      "v": 100
    },
    {
      "midi": 55,
      "hit": false,
      "t": 19999.997999999996,
      "d": 555.5554999999986,
      "v": 100
    },
    {
      "midi": 52,
      "hit": false,
      "t": 20115.73872916666,
      "d": 555.5554999999986,
      "v": 39
    },
    {
      "midi": 55,
      "hit": false,
      "t": 20115.73872916666,
      "d": 555.5554999999986,
      "v": 39
    },
    {
      "midi": 48,
      "hit": false,
      "t": 20555.553499999995,
      "d": 555.5554999999986,
      "v": 100
    },
    {
      "midi": 48,
      "hit": false,
      "t": 20671.29422916666,
      "d": 555.5554999999986,
      "v": 40
    },
    {
      "midi": 52,
      "hit": false,
      "t": 21111.108999999993,
      "d": 555.5554999999986,
      "v": 100
    },
    {
      "midi": 55,
      "hit": false,
      "t": 21111.108999999993,
      "d": 555.5554999999986,
      "v": 100
    },
    {
      "midi": 59,
      "hit": false,
      "t": 21111.108999999993,
      "d": 578.7036458333314,
      "v": 100
    },
    {
      "midi": 52,
      "hit": false,
      "t": 21226.849729166657,
      "d": 555.5554999999986,
      "v": 37
    },
    {
      "midi": 55,
      "hit": false,
      "t": 21226.849729166657,
      "d": 555.5554999999986,
      "v": 36
    },
    {
      "midi": 59,
      "hit": false,
      "t": 21226.849729166657,
      "d": 578.7036458333314,
      "v": 37
    },
    {
      "midi": 48,
      "hit": false,
      "t": 21666.66449999999,
      "d": 578.7036458333314,
      "v": 100
    },
    {
      "midi": 48,
      "hit": false,
      "t": 21782.405229166656,
      "d": 578.7036458333314,
      "v": 37
    },
    {
      "midi": 60,
      "hit": false,
      "t": 22222.21999999999,
      "d": 509.25920833333294,
      "v": 100
    },
    {
      "midi": 53,
      "hit": false,
      "t": 22222.21999999999,
      "d": 532.4073541666658,
      "v": 100
    },
    {
      "midi": 57,
      "hit": false,
      "t": 22222.21999999999,
      "d": 532.4073541666658,
      "v": 100
    },
    {
      "midi": 41,
      "hit": false,
      "t": 22222.21999999999,
      "d": 3726.8514791666566,
      "v": 100
    },
    {
      "midi": 60,
      "hit": false,
      "t": 22337.960729166654,
      "d": 509.25920833333294,
      "v": 39
    },
    {
      "midi": 53,
      "hit": false,
      "t": 22337.960729166654,
      "d": 532.4073541666658,
      "v": 39
    },
    {
      "midi": 57,
      "hit": false,
      "t": 22337.960729166654,
      "d": 532.4073541666658,
      "v": 37
    },
    {
      "midi": 41,
      "hit": false,
      "t": 22337.960729166654,
      "d": 3726.8514791666566,
      "v": 40
    },
    {
      "midi": 48,
      "hit": false,
      "t": 22777.77549999999,
      "d": 555.5554999999986,
      "v": 100
    },
    {
      "midi": 48,
      "hit": false,
      "t": 22893.516229166653,
      "d": 555.5554999999986,
      "v": 39
    },
    {
      "midi": 60,
      "hit": false,
      "t": 23333.330999999987,
      "d": 509.25920833333294,
      "v": 100
    },
    {
      "midi": 57,
      "hit": false,
      "t": 23333.330999999987,
      "d": 532.4073541666658,
      "v": 100
    },
    {
      "midi": 53,
      "hit": false,
      "t": 23333.330999999987,
      "d": 555.5554999999986,
      "v": 100
    },
    {
      "midi": 60,
      "hit": false,
      "t": 23449.07172916665,
      "d": 509.25920833333294,
      "v": 40
    },
    {
      "midi": 57,
      "hit": false,
      "t": 23449.07172916665,
      "d": 532.4073541666658,
      "v": 39
    },
    {
      "midi": 53,
      "hit": false,
      "t": 23449.07172916665,
      "d": 555.5554999999986,
      "v": 39
    },
    {
      "midi": 48,
      "hit": false,
      "t": 23888.886499999986,
      "d": 578.7036458333314,
      "v": 100
    },
    {
      "midi": 48,
      "hit": false,
      "t": 24004.62722916665,
      "d": 578.7036458333314,
      "v": 37
    },
    {
      "midi": 53,
      "hit": false,
      "t": 24444.441999999985,
      "d": 532.4073541666658,
      "v": 100
    },
    {
      "midi": 60,
      "hit": false,
      "t": 24444.441999999985,
      "d": 555.5554999999986,
      "v": 100
    },
    {
      "midi": 57,
      "hit": false,
      "t": 24444.441999999985,
      "d": 601.8517916666642,
      "v": 100
    },
    {
      "midi": 53,
      "hit": false,
      "t": 24560.18272916665,
      "d": 532.4073541666658,
      "v": 37
    },
    {
      "midi": 60,
      "hit": false,
      "t": 24560.18272916665,
      "d": 555.5554999999986,
      "v": 39
    },
    {
      "midi": 57,
      "hit": false,
      "t": 24560.18272916665,
      "d": 601.8517916666642,
      "v": 38
    },
    {
      "midi": 48,
      "hit": false,
      "t": 24999.997499999983,
      "d": 1041.6665624999987,
      "v": 100
    },
    {
      "midi": 48,
      "hit": false,
      "t": 25115.738229166647,
      "d": 1041.6665624999987,
      "v": 39
    },
    {
      "midi": 53,
      "hit": false,
      "t": 25555.55299999998,
      "d": 324.07404166666674,
      "v": 100
    },
    {
      "midi": 57,
      "hit": false,
      "t": 25555.55299999998,
      "d": 347.22218749999956,
      "v": 100
    },
    {
      "midi": 53,
      "hit": false,
      "t": 25671.293729166646,
      "d": 324.07404166666674,
      "v": 39
    },
    {
      "midi": 57,
      "hit": false,
      "t": 25671.293729166646,
      "d": 347.22218749999956,
      "v": 39
    },
    {
      "midi": 58,
      "hit": false,
      "t": 25833.330749999983,
      "d": 347.2221874999959,
      "v": 100
    },
    {
      "midi": 58,
      "hit": false,
      "t": 25949.071479166647,
      "d": 347.2221874999959,
      "v": 38
    },
    {
      "midi": 59,
      "hit": false,
      "t": 26111.10849999998,
      "d": 601.8517916666642,
      "v": 100
    },
    {
      "midi": 59,
      "hit": false,
      "t": 26226.849229166644,
      "d": 601.8517916666642,
      "v": 42
    },
    {
      "midi": 55,
      "hit": false,
      "t": 26666.66399999998,
      "d": 462.96291666666366,
      "v": 100
    },
    {
      "midi": 52,
      "hit": false,
      "t": 26666.66399999998,
      "d": 509.2592083333293,
      "v": 100
    },
    {
      "midi": 62,
      "hit": false,
      "t": 26666.66399999998,
      "d": 509.2592083333293,
      "v": 100
    },
    {
      "midi": 36,
      "hit": false,
      "t": 26666.66399999998,
      "d": 3842.5922083333207,
      "v": 100
    },
    {
      "midi": 48,
      "hit": false,
      "t": 27222.219499999974,
      "d": 601.8517916666642,
      "v": 100
    },
    {
      "midi": 64,
      "hit": false,
      "t": 27511.571322916665,
      "d": 219.90738541666724,
      "v": 87
    },
    {
      "midi": 55,
      "hit": false,
      "t": 27777.774999999972,
      "d": 532.4073541666658,
      "v": 100
    },
    {
      "midi": 52,
      "hit": false,
      "t": 27777.774999999972,
      "d": 555.5554999999986,
      "v": 100
    },
    {
      "midi": 67,
      "hit": false,
      "t": 27777.774999999998,
      "d": 578.7036458333314,
      "v": 102
    },
    {
      "midi": 48,
      "hit": false,
      "t": 28333.33049999997,
      "d": 555.5554999999986,
      "v": 100
    },
    {
      "midi": 64,
      "hit": false,
      "t": 28333.330499999996,
      "d": 335.64811458333133,
      "v": 81
    },
    {
      "midi": 67,
      "hit": false,
      "t": 28622.682322916662,
      "d": 1840.2775937499973,
      "v": 127
    },
    {
      "midi": 52,
      "hit": false,
      "t": 28888.88599999997,
      "d": 532.4073541666658,
      "v": 100
    },
    {
      "midi": 55,
      "hit": false,
      "t": 28888.88599999997,
      "d": 532.4073541666658,
      "v": 100
    },
    {
      "midi": 48,
      "hit": false,
      "t": 29444.441499999968,
      "d": 578.7036458333314,
      "v": 100
    },
    {
      "midi": 52,
      "hit": false,
      "t": 29999.996999999967,
      "d": 486.1110625000001,
      "v": 100
    },
    {
      "midi": 55,
      "hit": false,
      "t": 29999.996999999967,
      "d": 509.25920833333294,
      "v": 100
    },
    {
      "midi": 59,
      "hit": false,
      "t": 29999.996999999967,
      "d": 555.5554999999986,
      "v": 100
    },
    {
      "midi": 71,
      "hit": false,
      "t": 30474.533989583328,
      "d": 416.66662500000166,
      "v": 110
    },
    {
      "midi": 48,
      "hit": false,
      "t": 30555.552499999965,
      "d": 601.8517916666642,
      "v": 100
    },
    {
      "midi": 53,
      "hit": false,
      "t": 31111.107999999964,
      "d": 509.25920833333294,
      "v": 100
    },
    {
      "midi": 57,
      "hit": false,
      "t": 31111.107999999964,
      "d": 532.4073541666658,
      "v": 100
    },
    {
      "midi": 60,
      "hit": false,
      "t": 31111.107999999964,
      "d": 532.4073541666658,
      "v": 100
    },
    {
      "midi": 41,
      "hit": false,
      "t": 31111.107999999964,
      "d": 3796.295916666684,
      "v": 100
    },
    {
      "midi": 71,
      "hit": false,
      "t": 31111.107999999997,
      "d": 578.7036458333314,
      "v": 100
    },
    {
      "midi": 69,
      "hit": false,
      "t": 31643.515354166662,
      "d": 4594.906947916668,
      "v": 108
    },
    {
      "midi": 48,
      "hit": false,
      "t": 31666.663499999962,
      "d": 578.7036458333314,
      "v": 100
    },
    {
      "midi": 53,
      "hit": false,
      "t": 32222.21899999996,
      "d": 578.7036458333387,
      "v": 100
    },
    {
      "midi": 57,
      "hit": false,
      "t": 32222.21899999996,
      "d": 578.7036458333387,
      "v": 100
    },
    {
      "midi": 60,
      "hit": false,
      "t": 32222.21899999996,
      "d": 578.7036458333387,
      "v": 100
    },
    {
      "midi": 48,
      "hit": false,
      "t": 32777.77449999996,
      "d": 578.7036458333387,
      "v": 100
    },
    {
      "midi": 53,
      "hit": false,
      "t": 33333.329999999965,
      "d": 555.5555000000022,
      "v": 100
    },
    {
      "midi": 60,
      "hit": false,
      "t": 33333.329999999965,
      "d": 578.7036458333387,
      "v": 100
    },
    {
      "midi": 57,
      "hit": false,
      "t": 33333.329999999965,
      "d": 601.8517916666751,
      "v": 100
    },
    {
      "midi": 48,
      "hit": false,
      "t": 33888.88549999997,
      "d": 1087.9628541666825,
      "v": 100
    },
    {
      "midi": 57,
      "hit": false,
      "t": 34444.44099999998,
      "d": 300.92589583333756,
      "v": 100
    },
    {
      "midi": 53,
      "hit": false,
      "t": 34444.44099999998,
      "d": 347.2221875000032,
      "v": 100
    },
    {
      "midi": 58,
      "hit": false,
      "t": 34722.21874999998,
      "d": 347.2221875000105,
      "v": 100
    },
    {
      "midi": 59,
      "hit": false,
      "t": 34999.99649999999,
      "d": 555.5555000000022,
      "v": 100
    },
    {
      "midi": 55,
      "hit": false,
      "t": 35555.55199999999,
      "d": 509.2592083333366,
      "v": 100
    },
    {
      "midi": 52,
      "hit": false,
      "t": 35555.55199999999,
      "d": 555.5555000000022,
      "v": 100
    },
    {
      "midi": 62,
      "hit": false,
      "t": 35555.55199999999,
      "d": 555.5555000000022,
      "v": 100
    },
    {
      "midi": 36,
      "hit": false,
      "t": 35555.55199999999,
      "d": 3888.8885000000155,
      "v": 100
    },
    {
      "midi": 48,
      "hit": false,
      "t": 36111.10749999999,
      "d": 578.7036458333387,
      "v": 100
    },
    {
      "midi": 64,
      "hit": false,
      "t": 36400.459322916664,
      "d": 300.92589583333756,
      "v": 95
    },
    {
      "midi": 52,
      "hit": false,
      "t": 36666.66299999999,
      "d": 555.5555000000022,
      "v": 100
    },
    {
      "midi": 55,
      "hit": false,
      "t": 36666.66299999999,
      "d": 555.5555000000022,
      "v": 100
    },
    {
      "midi": 67,
      "hit": false,
      "t": 36666.663,
      "d": 590.2777187500033,
      "v": 112
    },
    {
      "midi": 48,
      "hit": false,
      "t": 37222.218499999995,
      "d": 601.8517916666679,
      "v": 100
    },
    {
      "midi": 64,
      "hit": false,
      "t": 37222.2185,
      "d": 335.6481145833386,
      "v": 80
    },
    {
      "midi": 67,
      "hit": false,
      "t": 37523.14439583334,
      "d": 1423.6109687499993,
      "v": 125
    },
    {
      "midi": 52,
      "hit": false,
      "t": 37777.774,
      "d": 555.5555000000022,
      "v": 100
    },
    {
      "midi": 55,
      "hit": false,
      "t": 37777.774,
      "d": 578.7036458333387,
      "v": 100
    },
    {
      "midi": 48,
      "hit": false,
      "t": 38333.3295,
      "d": 601.8517916666679,
      "v": 100
    },
    {
      "midi": 52,
      "hit": false,
      "t": 38888.885,
      "d": 555.5555000000022,
      "v": 100
    },
    {
      "midi": 55,
      "hit": false,
      "t": 38888.885,
      "d": 578.7036458333387,
      "v": 100
    },
    {
      "midi": 59,
      "hit": false,
      "t": 38888.885,
      "d": 578.7036458333387,
      "v": 100
    },
    {
      "midi": 71,
      "hit": false,
      "t": 38946.75536458334,
      "d": 567.1295729166668,
      "v": 120
    },
    {
      "midi": 48,
      "hit": false,
      "t": 39444.440500000004,
      "d": 578.7036458333387,
      "v": 100
    },
    {
      "midi": 69,
      "hit": false,
      "t": 39502.31086458334,
      "d": 5069.4439375,
      "v": 120
    },
    {
      "midi": 53,
      "hit": false,
      "t": 39999.99600000001,
      "d": 509.2592083333366,
      "v": 100
    },
    {
      "midi": 57,
      "hit": false,
      "t": 39999.99600000001,
      "d": 532.407354166673,
      "v": 100
    },
    {
      "midi": 60,
      "hit": false,
      "t": 39999.99600000001,
      "d": 532.407354166673,
      "v": 100
    },
    {
      "midi": 41,
      "hit": false,
      "t": 39999.99600000001,
      "d": 3703.7033333333675,
      "v": 100
    },
    {
      "midi": 48,
      "hit": false,
      "t": 40555.551500000016,
      "d": 578.7036458333387,
      "v": 100
    },
    {
      "midi": 60,
      "hit": false,
      "t": 41111.10700000002,
      "d": 555.5555000000022,
      "v": 100
    },
    {
      "midi": 53,
      "hit": false,
      "t": 41111.10700000002,
      "d": 578.7036458333387,
      "v": 100
    },
    {
      "midi": 57,
      "hit": false,
      "t": 41111.10700000002,
      "d": 578.7036458333387,
      "v": 100
    },
    {
      "midi": 48,
      "hit": false,
      "t": 41666.66250000002,
      "d": 601.8517916666679,
      "v": 100
    },
    {
      "midi": 53,
      "hit": false,
      "t": 42222.21800000002,
      "d": 532.4073541666658,
      "v": 100
    },
    {
      "midi": 57,
      "hit": false,
      "t": 42222.21800000002,
      "d": 578.7036458333387,
      "v": 100
    },
    {
      "midi": 60,
      "hit": false,
      "t": 42222.21800000002,
      "d": 601.8517916666751,
      "v": 100
    },
    {
      "midi": 48,
      "hit": false,
      "t": 42777.773500000025,
      "d": 925.9258333333491,
      "v": 100
    },
    {
      "midi": 57,
      "hit": false,
      "t": 43333.329000000034,
      "d": 324.07404166666674,
      "v": 100
    },
    {
      "midi": 53,
      "hit": false,
      "t": 43333.329000000034,
      "d": 347.2221875000032,
      "v": 100
    },
    {
      "midi": 58,
      "hit": false,
      "t": 43611.106750000035,
      "d": 370.37033333333966,
      "v": 100
    },
    {
      "midi": 59,
      "hit": false,
      "t": 43888.884500000044,
      "d": 578.7036458333387,
      "v": 100
    },
    {
      "midi": 55,
      "hit": false,
      "t": 44444.440000000046,
      "d": 532.4073541666658,
      "v": 100
    },
    {
      "midi": 62,
      "hit": false,
      "t": 44444.440000000046,
      "d": 555.5555000000022,
      "v": 100
    },
    {
      "midi": 52,
      "hit": false,
      "t": 44444.440000000046,
      "d": 578.7036458333387,
      "v": 100
    },
    {
      "midi": 36,
      "hit": false,
      "t": 44444.440000000046,
      "d": 3865.7403541666863,
      "v": 100
    },
    {
      "midi": 48,
      "hit": false,
      "t": 44999.99550000005,
      "d": 578.7036458333387,
      "v": 100
    },
    {
      "midi": 64,
      "hit": false,
      "t": 45312.49546875001,
      "d": 219.9073854166636,
      "v": 97
    },
    {
      "midi": 67,
      "hit": false,
      "t": 45555.55100000001,
      "d": 555.5555000000022,
      "v": 112
    },
    {
      "midi": 52,
      "hit": false,
      "t": 45555.55100000005,
      "d": 532.407354166673,
      "v": 100
    },
    {
      "midi": 55,
      "hit": false,
      "t": 45555.55100000005,
      "d": 532.407354166673,
      "v": 100
    },
    {
      "midi": 48,
      "hit": false,
      "t": 46111.10650000006,
      "d": 601.8517916666679,
      "v": 100
    },
    {
      "midi": 64,
      "hit": false,
      "t": 46134.254645833345,
      "d": 243.05553125000006,
      "v": 90
    },
    {
      "midi": 67,
      "hit": false,
      "t": 46388.88425000001,
      "d": 1412.0368958333347,
      "v": 127
    },
    {
      "midi": 52,
      "hit": false,
      "t": 46666.66200000006,
      "d": 601.8517916666679,
      "v": 100
    },
    {
      "midi": 55,
      "hit": false,
      "t": 46666.66200000006,
      "d": 601.8517916666679,
      "v": 100
    },
    {
      "midi": 48,
      "hit": false,
      "t": 47222.217500000064,
      "d": 624.9999375000043,
      "v": 100
    },
    {
      "midi": 52,
      "hit": false,
      "t": 47777.77300000007,
      "d": 532.4073541666658,
      "v": 100
    },
    {
      "midi": 55,
      "hit": false,
      "t": 47777.77300000007,
      "d": 532.4073541666658,
      "v": 100
    },
    {
      "midi": 59,
      "hit": false,
      "t": 47777.77300000007,
      "d": 578.7036458333387,
      "v": 100
    },
    {
      "midi": 71,
      "hit": false,
      "t": 47824.06929166668,
      "d": 324.07404166666674,
      "v": 110
    },
    {
      "midi": 48,
      "hit": false,
      "t": 48333.32850000007,
      "d": 601.8517916666679,
      "v": 100
    },
    {
      "midi": 71,
      "hit": false,
      "t": 48391.19886458335,
      "d": 937.4999062499992,
      "v": 114
    },
    {
      "midi": 53,
      "hit": false,
      "t": 48888.88400000007,
      "d": 555.5555000000022,
      "v": 100
    },
    {
      "midi": 57,
      "hit": false,
      "t": 48888.88400000007,
      "d": 555.5555000000022,
      "v": 100
    },
    {
      "midi": 60,
      "hit": false,
      "t": 48888.88400000007,
      "d": 555.5555000000022,
      "v": 100
    },
    {
      "midi": 41,
      "hit": false,
      "t": 48888.88400000007,
      "d": 3819.4440625000207,
      "v": 100
    },
    {
      "midi": 69,
      "hit": false,
      "t": 49386.56913541668,
      "d": 4930.555062500003,
      "v": 112
    },
    {
      "midi": 48,
      "hit": false,
      "t": 49444.43950000007,
      "d": 578.7036458333387,
      "v": 100
    },
    {
      "midi": 53,
      "hit": false,
      "t": 49999.995000000075,
      "d": 509.2592083333366,
      "v": 100
    },
    {
      "midi": 60,
      "hit": false,
      "t": 49999.995000000075,
      "d": 509.2592083333366,
      "v": 100
    },
    {
      "midi": 57,
      "hit": false,
      "t": 49999.995000000075,
      "d": 532.407354166673,
      "v": 100
    },
    {
      "midi": 48,
      "hit": false,
      "t": 50555.550500000085,
      "d": 624.9999375000043,
      "v": 100
    },
    {
      "midi": 53,
      "hit": false,
      "t": 51111.10600000009,
      "d": 509.2592083333366,
      "v": 100
    },
    {
      "midi": 57,
      "hit": false,
      "t": 51111.10600000009,
      "d": 555.5555000000022,
      "v": 100
    },
    {
      "midi": 60,
      "hit": false,
      "t": 51111.10600000009,
      "d": 555.5555000000022,
      "v": 100
    },
    {
      "midi": 48,
      "hit": false,
      "t": 51666.66150000009,
      "d": 1134.2591458333409,
      "v": 100
    },
    {
      "midi": 57,
      "hit": false,
      "t": 52222.21700000009,
      "d": 277.7777500000011,
      "v": 100
    },
    {
      "midi": 53,
      "hit": false,
      "t": 52222.21700000009,
      "d": 347.2221875000032,
      "v": 100
    },
    {
      "midi": 58,
      "hit": false,
      "t": 52499.99475000009,
      "d": 393.51847916666884,
      "v": 100
    },
    {
      "midi": 59,
      "hit": false,
      "t": 52777.772500000094,
      "d": 578.7036458333387,
      "v": 100
    },
    {
      "midi": 55,
      "hit": false,
      "t": 53333.328000000096,
      "d": 532.4073541666658,
      "v": 100
    },
    {
      "midi": 62,
      "hit": false,
      "t": 53333.328000000096,
      "d": 555.5555000000022,
      "v": 100
    },
    {
      "midi": 52,
      "hit": false,
      "t": 53333.328000000096,
      "d": 578.7036458333387,
      "v": 100
    },
    {
      "midi": 36,
      "hit": false,
      "t": 53333.328000000096,
      "d": 3842.59220833335,
      "v": 100
    },
    {
      "midi": 48,
      "hit": false,
      "t": 53888.8835000001,
      "d": 624.9999375000043,
      "v": 100
    },
    {
      "midi": 55,
      "hit": false,
      "t": 54444.4390000001,
      "d": 555.5555000000022,
      "v": 100
    },
    {
      "midi": 52,
      "hit": false,
      "t": 54444.4390000001,
      "d": 578.7036458333387,
      "v": 100
    },
    {
      "midi": 48,
      "hit": false,
      "t": 54999.9945000001,
      "d": 601.8517916666679,
      "v": 100
    },
    {
      "midi": 64,
      "hit": false,
      "t": 55243.050031250015,
      "d": 219.9073854166636,
      "v": 102
    },
    {
      "midi": 67,
      "hit": false,
      "t": 55486.105562500015,
      "d": 162.03702083333337,
      "v": 112
    },
    {
      "midi": 52,
      "hit": false,
      "t": 55555.550000000105,
      "d": 555.5555000000022,
      "v": 100
    },
    {
      "midi": 55,
      "hit": false,
      "t": 55555.550000000105,
      "d": 578.7036458333387,
      "v": 100
    },
    {
      "midi": 67,
      "hit": false,
      "t": 55763.88331250002,
      "d": 891.2036145833335,
      "v": 108
    },
    {
      "midi": 48,
      "hit": false,
      "t": 56111.10550000011,
      "d": 578.7036458333387,
      "v": 100
    },
    {
      "midi": 71,
      "hit": false,
      "t": 56666.661000000015,
      "d": 428.2406979166699,
      "v": 117
    },
    {
      "midi": 52,
      "hit": false,
      "t": 56666.66100000011,
      "d": 555.5555000000022,
      "v": 100
    },
    {
      "midi": 55,
      "hit": false,
      "t": 56666.66100000011,
      "d": 555.5555000000022,
      "v": 100
    },
    {
      "midi": 59,
      "hit": false,
      "t": 56666.66100000011,
      "d": 601.8517916666679,
      "v": 100
    },
    {
      "midi": 71,
      "hit": false,
      "t": 57222.21650000002,
      "d": 208.333312499999,
      "v": 110
    },
    {
      "midi": 48,
      "hit": false,
      "t": 57222.21650000011,
      "d": 578.7036458333387,
      "v": 100
    },
    {
      "midi": 69,
      "hit": false,
      "t": 57499.99425000002,
      "d": 4826.38840625,
      "v": 125
    },
    {
      "midi": 53,
      "hit": false,
      "t": 57777.77200000011,
      "d": 509.2592083333366,
      "v": 100
    },
    {
      "midi": 60,
      "hit": false,
      "t": 57777.77200000011,
      "d": 509.2592083333366,
      "v": 100
    },
    {
      "midi": 57,
      "hit": false,
      "t": 57777.77200000011,
      "d": 532.407354166673,
      "v": 100
    },
    {
      "midi": 41,
      "hit": false,
      "t": 57777.77200000011,
      "d": 3912.0366458333665,
      "v": 100
    },
    {
      "midi": 48,
      "hit": false,
      "t": 58333.32750000012,
      "d": 601.8517916666679,
      "v": 100
    },
    {
      "midi": 53,
      "hit": false,
      "t": 58888.883000000125,
      "d": 532.4073541666658,
      "v": 100
    },
    {
      "midi": 57,
      "hit": false,
      "t": 58888.883000000125,
      "d": 532.4073541666658,
      "v": 100
    },
    {
      "midi": 60,
      "hit": false,
      "t": 58888.883000000125,
      "d": 532.4073541666658,
      "v": 100
    },
    {
      "midi": 48,
      "hit": false,
      "t": 59444.43850000013,
      "d": 624.9999375000043,
      "v": 100
    },
    {
      "midi": 53,
      "hit": false,
      "t": 59999.99400000013,
      "d": 509.2592083333366,
      "v": 100
    },
    {
      "midi": 60,
      "hit": false,
      "t": 59999.99400000013,
      "d": 532.407354166673,
      "v": 100
    },
    {
      "midi": 57,
      "hit": false,
      "t": 59999.99400000013,
      "d": 555.5555000000095,
      "v": 100
    },
    {
      "midi": 48,
      "hit": false,
      "t": 60555.54950000014,
      "d": 601.8517916666679,
      "v": 100
    },
    {
      "midi": 53,
      "hit": false,
      "t": 61111.10500000014,
      "d": 555.5555000000022,
      "v": 100
    },
    {
      "midi": 57,
      "hit": false,
      "t": 61111.10500000014,
      "d": 578.7036458333387,
      "v": 100
    },
    {
      "midi": 60,
      "hit": false,
      "t": 61111.10500000014,
      "d": 578.7036458333387,
      "v": 100
    },
    {
      "midi": 48,
      "hit": false,
      "t": 61666.660500000144,
      "d": 601.8517916666679,
      "v": 100
    },
    {
      "midi": 53,
      "hit": false,
      "t": 62222.216000000146,
      "d": 277.7777500000011,
      "v": 100
    },
    {
      "midi": 57,
      "hit": false,
      "t": 62222.216000000146,
      "d": 486.1110625000001,
      "v": 100
    },
    {
      "midi": 60,
      "hit": false,
      "t": 62222.216000000146,
      "d": 509.2592083333366,
      "v": 100
    },
    {
      "midi": 41,
      "hit": false,
      "t": 62222.216000000146,
      "d": 1712.9627916666868,
      "v": 100
    },
    {
      "midi": 53,
      "hit": false,
      "t": 62777.77150000015,
      "d": 578.7036458333387,
      "v": 100
    },
    {
      "midi": 69,
      "hit": false,
      "t": 63090.27146875002,
      "d": 266.2036770833365,
      "v": 104
    },
    {
      "midi": 72,
      "hit": false,
      "t": 63333.32700000002,
      "d": 613.4258645833397,
      "v": 127
    },
    {
      "midi": 57,
      "hit": false,
      "t": 63333.32700000015,
      "d": 532.407354166673,
      "v": 100
    },
    {
      "midi": 60,
      "hit": false,
      "t": 63333.32700000015,
      "d": 578.703645833346,
      "v": 100
    },
    {
      "midi": 53,
      "hit": false,
      "t": 63888.88250000016,
      "d": 578.703645833346,
      "v": 100
    },
    {
      "midi": 69,
      "hit": false,
      "t": 63912.03064583336,
      "d": 243.05553125000006,
      "v": 98
    },
    {
      "midi": 72,
      "hit": false,
      "t": 64178.234322916695,
      "d": 1319.4443125000034,
      "v": 127
    },
    {
      "midi": 57,
      "hit": false,
      "t": 64444.43800000017,
      "d": 555.5555000000022,
      "v": 100
    },
    {
      "midi": 60,
      "hit": false,
      "t": 64444.43800000017,
      "d": 601.8517916666679,
      "v": 100
    },
    {
      "midi": 40,
      "hit": false,
      "t": 64444.43800000017,
      "d": 1689.8146458333358,
      "v": 100
    },
    {
      "midi": 52,
      "hit": false,
      "t": 64999.99350000017,
      "d": 555.5555000000022,
      "v": 100
    },
    {
      "midi": 76,
      "hit": false,
      "t": 65520.826781250034,
      "d": 347.2221875000032,
      "v": 112
    },
    {
      "midi": 57,
      "hit": false,
      "t": 65555.54900000017,
      "d": 532.407354166673,
      "v": 100
    },
    {
      "midi": 60,
      "hit": false,
      "t": 65555.54900000017,
      "d": 532.407354166673,
      "v": 100
    },
    {
      "midi": 76,
      "hit": false,
      "t": 66111.10450000003,
      "d": 1076.3887812500034,
      "v": 114
    },
    {
      "midi": 52,
      "hit": false,
      "t": 66111.10450000018,
      "d": 532.4073541666585,
      "v": 100
    },
    {
      "midi": 53,
      "hit": false,
      "t": 66666.66000000016,
      "d": 555.5555000000022,
      "v": 100
    },
    {
      "midi": 57,
      "hit": false,
      "t": 66666.66000000016,
      "d": 578.7036458333314,
      "v": 100
    },
    {
      "midi": 60,
      "hit": false,
      "t": 66666.66000000016,
      "d": 578.7036458333314,
      "v": 100
    },
    {
      "midi": 38,
      "hit": false,
      "t": 66666.66000000016,
      "d": 1643.518354166663,
      "v": 100
    },
    {
      "midi": 50,
      "hit": false,
      "t": 67222.21550000017,
      "d": 555.5555000000022,
      "v": 100
    },
    {
      "midi": 74,
      "hit": false,
      "t": 67233.7895729167,
      "d": 3321.758927083327,
      "v": 110
    },
    {
      "midi": 53,
      "hit": false,
      "t": 67777.77100000017,
      "d": 509.2592083333293,
      "v": 100
    },
    {
      "midi": 60,
      "hit": false,
      "t": 67777.77100000017,
      "d": 532.4073541666585,
      "v": 100
    },
    {
      "midi": 57,
      "hit": false,
      "t": 67777.77100000017,
      "d": 555.5554999999877,
      "v": 100
    },
    {
      "midi": 50,
      "hit": false,
      "t": 68333.32650000016,
      "d": 509.2592083333293,
      "v": 100
    },
    {
      "midi": 53,
      "hit": false,
      "t": 68888.88200000016,
      "d": 578.7036458333314,
      "v": 100
    },
    {
      "midi": 57,
      "hit": false,
      "t": 68888.88200000016,
      "d": 624.9999375000043,
      "v": 100
    },
    {
      "midi": 36,
      "hit": false,
      "t": 68888.88200000016,
      "d": 1597.2220625000045,
      "v": 100
    },
    {
      "midi": 48,
      "hit": false,
      "t": 69444.43750000016,
      "d": 578.7036458333314,
      "v": 100
    },
    {
      "midi": 53,
      "hit": false,
      "t": 69999.99300000016,
      "d": 486.1110625000001,
      "v": 100
    },
    {
      "midi": 57,
      "hit": false,
      "t": 69999.99300000016,
      "d": 509.2592083333293,
      "v": 100
    },
    {
      "midi": 60,
      "hit": false,
      "t": 69999.99300000016,
      "d": 555.5555000000022,
      "v": 100
    },
    {
      "midi": 48,
      "hit": false,
      "t": 70555.54850000016,
      "d": 578.7036458333314,
      "v": 100
    },
    {
      "midi": 62,
      "hit": false,
      "t": 71111.10400000017,
      "d": 555.5555000000022,
      "v": 100
    },
    {
      "midi": 59,
      "hit": false,
      "t": 71111.10400000017,
      "d": 578.7036458333314,
      "v": 100
    },
    {
      "midi": 43,
      "hit": false,
      "t": 71111.10400000017,
      "d": 3981.481083333332,
      "v": 100
    },
    {
      "midi": 71,
      "hit": false,
      "t": 71168.97436458337,
      "d": 277.77774999999383,
      "v": 122
    },
    {
      "midi": 71,
      "hit": false,
      "t": 71666.65950000002,
      "d": 1446.7591145833285,
      "v": 125
    },
    {
      "midi": 55,
      "hit": false,
      "t": 71666.65950000017,
      "d": 555.5555000000022,
      "v": 100
    },
    {
      "midi": 59,
      "hit": false,
      "t": 72222.21500000017,
      "d": 555.5555000000022,
      "v": 100
    },
    {
      "midi": 62,
      "hit": false,
      "t": 72222.21500000017,
      "d": 578.7036458333314,
      "v": 100
    },
    {
      "midi": 55,
      "hit": false,
      "t": 72777.77050000017,
      "d": 555.5555000000022,
      "v": 100
    },
    {
      "midi": 59,
      "hit": false,
      "t": 73333.32600000018,
      "d": 578.7036458333314,
      "v": 100
    },
    {
      "midi": 62,
      "hit": false,
      "t": 73333.32600000018,
      "d": 601.8517916666606,
      "v": 100
    },
    {
      "midi": 71,
      "hit": false,
      "t": 73368.04821875002,
      "d": 1122.6850729166617,
      "v": 125
    },
    {
      "midi": 55,
      "hit": false,
      "t": 73888.88150000018,
      "d": 601.8517916666606,
      "v": 100
    },
    {
      "midi": 72,
      "hit": false,
      "t": 74432.86292708335,
      "d": 578.7036458333314,
      "v": 104
    },
    {
      "midi": 64,
      "hit": false,
      "t": 74444.43700000017,
      "d": 509.25920833334385,
      "v": 100
    },
    {
      "midi": 60,
      "hit": false,
      "t": 74444.43700000017,
      "d": 532.407354166673,
      "v": 100
    },
    {
      "midi": 55,
      "hit": false,
      "t": 74999.99250000017,
      "d": 138.8888750000042,
      "v": 100
    },
    {
      "midi": 74,
      "hit": false,
      "t": 75011.56657291668,
      "d": 2766.203427083339,
      "v": 117
    },
    {
      "midi": 55,
      "hit": false,
      "t": 75555.54800000017,
      "d": 1874.9998124999984,
      "v": 100
    },
    {
      "midi": 62,
      "hit": false,
      "t": 75555.54800000017,
      "d": 1921.2961041666713,
      "v": 100
    },
    {
      "midi": 65,
      "hit": false,
      "t": 75555.54800000017,
      "d": 1944.4442500000005,
      "v": 100
    },
    {
      "midi": 50,
      "hit": false,
      "t": 75555.54800000017,
      "d": 2430.5553125000006,
      "v": 100
    },
    {
      "midi": 43,
      "hit": false,
      "t": 75555.54800000017,
      "d": 2476.8516041666735,
      "v": 100
    },
    {
      "midi": 76,
      "hit": false,
      "t": 77893.51072916668,
      "d": 462.96291666667094,
      "v": 110
    },
    {
      "midi": 79,
      "hit": false,
      "t": 78356.47364583335,
      "d": 1064.8147083333315,
      "v": 102
    },
    {
      "midi": 76,
      "hit": false,
      "t": 79467.58464583335,
      "d": 254.62960416666465,
      "v": 79
    },
    {
      "midi": 74,
      "hit": false,
      "t": 79710.64017708335,
      "d": 335.6481145833386,
      "v": 87
    },
    {
      "midi": 72,
      "hit": false,
      "t": 79999.99200000001,
      "d": 1990.7405416666734,
      "v": 110
    },
    {
      "midi": 52,
      "hit": false,
      "t": 79999.99200000017,
      "d": 555.5555000000022,
      "v": 100
    },
    {
      "midi": 55,
      "hit": false,
      "t": 79999.99200000017,
      "d": 555.5555000000022,
      "v": 100
    },
    {
      "midi": 36,
      "hit": false,
      "t": 79999.99200000017,
      "d": 3888.888500000001,
      "v": 100
    },
    {
      "midi": 48,
      "hit": false,
      "t": 80555.54750000018,
      "d": 624.9999375000043,
      "v": 100
    },
    {
      "midi": 64,
      "hit": false,
      "t": 80844.89932291668,
      "d": 219.9073854166636,
      "v": 87
    },
    {
      "midi": 67,
      "hit": false,
      "t": 81111.10300000002,
      "d": 578.7036458333314,
      "v": 102
    },
    {
      "midi": 52,
      "hit": false,
      "t": 81111.10300000018,
      "d": 555.5555000000022,
      "v": 100
    },
    {
      "midi": 55,
      "hit": false,
      "t": 81111.10300000018,
      "d": 578.7036458333314,
      "v": 100
    },
    {
      "midi": 64,
      "hit": false,
      "t": 81666.65850000002,
      "d": 335.6481145833386,
      "v": 81
    },
    {
      "midi": 48,
      "hit": false,
      "t": 81666.65850000018,
      "d": 578.7036458333314,
      "v": 100
    },
    {
      "midi": 67,
      "hit": false,
      "t": 81956.01032291669,
      "d": 1840.2775937500119,
      "v": 127
    },
    {
      "midi": 52,
      "hit": false,
      "t": 82222.21400000018,
      "d": 532.4073541666585,
      "v": 100
    },
    {
      "midi": 55,
      "hit": false,
      "t": 82222.21400000018,
      "d": 532.4073541666585,
      "v": 100
    },
    {
      "midi": 48,
      "hit": false,
      "t": 82777.76950000017,
      "d": 601.8517916666751,
      "v": 100
    },
    {
      "midi": 52,
      "hit": false,
      "t": 83333.32500000017,
      "d": 509.25920833334385,
      "v": 100
    },
    {
      "midi": 55,
      "hit": false,
      "t": 83333.32500000017,
      "d": 509.25920833334385,
      "v": 100
    },
    {
      "midi": 59,
      "hit": false,
      "t": 83333.32500000017,
      "d": 532.407354166673,
      "v": 100
    },
    {
      "midi": 71,
      "hit": false,
      "t": 83807.86198958337,
      "d": 416.666624999998,
      "v": 110
    },
    {
      "midi": 48,
      "hit": false,
      "t": 83888.88050000017,
      "d": 578.7036458333314,
      "v": 100
    },
    {
      "midi": 71,
      "hit": false,
      "t": 84444.43600000003,
      "d": 578.703645833346,
      "v": 100
    },
    {
      "midi": 53,
      "hit": false,
      "t": 84444.43600000018,
      "d": 532.4073541666585,
      "v": 100
    },
    {
      "midi": 57,
      "hit": false,
      "t": 84444.43600000018,
      "d": 555.5554999999877,
      "v": 100
    },
    {
      "midi": 60,
      "hit": false,
      "t": 84444.43600000018,
      "d": 555.5554999999877,
      "v": 100
    },
    {
      "midi": 41,
      "hit": false,
      "t": 84444.43600000018,
      "d": 3749.999624999982,
      "v": 100
    },
    {
      "midi": 69,
      "hit": false,
      "t": 84976.8433541667,
      "d": 4594.906947916679,
      "v": 108
    },
    {
      "midi": 48,
      "hit": false,
      "t": 84999.99150000016,
      "d": 578.7036458333314,
      "v": 100
    },
    {
      "midi": 60,
      "hit": false,
      "t": 85555.54700000017,
      "d": 509.2592083333293,
      "v": 100
    },
    {
      "midi": 53,
      "hit": false,
      "t": 85555.54700000017,
      "d": 532.4073541666585,
      "v": 100
    },
    {
      "midi": 57,
      "hit": false,
      "t": 85555.54700000017,
      "d": 532.4073541666585,
      "v": 100
    },
    {
      "midi": 48,
      "hit": false,
      "t": 86111.10250000015,
      "d": 601.8517916666751,
      "v": 100
    },
    {
      "midi": 53,
      "hit": false,
      "t": 86666.65800000016,
      "d": 532.407354166673,
      "v": 100
    },
    {
      "midi": 57,
      "hit": false,
      "t": 86666.65800000016,
      "d": 555.5555000000022,
      "v": 100
    },
    {
      "midi": 60,
      "hit": false,
      "t": 86666.65800000016,
      "d": 601.8517916666751,
      "v": 100
    },
    {
      "midi": 48,
      "hit": false,
      "t": 87222.21350000016,
      "d": 1064.8147083333315,
      "v": 100
    },
    {
      "midi": 57,
      "hit": false,
      "t": 87777.76900000016,
      "d": 324.07404166666674,
      "v": 100
    },
    {
      "midi": 53,
      "hit": false,
      "t": 87777.76900000016,
      "d": 393.51847916666884,
      "v": 100
    },
    {
      "midi": 58,
      "hit": false,
      "t": 88055.54675000015,
      "d": 324.0740416666813,
      "v": 100
    },
    {
      "midi": 59,
      "hit": false,
      "t": 88333.32450000016,
      "d": 578.7036458333314,
      "v": 100
    },
    {
      "midi": 55,
      "hit": false,
      "t": 88888.88000000016,
      "d": 532.4073541666585,
      "v": 100
    },
    {
      "midi": 52,
      "hit": false,
      "t": 88888.88000000016,
      "d": 601.8517916666606,
      "v": 100
    },
    {
      "midi": 62,
      "hit": false,
      "t": 88888.88000000016,
      "d": 601.8517916666606,
      "v": 100
    },
    {
      "midi": 36,
      "hit": false,
      "t": 88888.88000000016,
      "d": 3865.7403541666426,
      "v": 100
    },
    {
      "midi": 48,
      "hit": false,
      "t": 89444.43550000015,
      "d": 601.8517916666751,
      "v": 100
    },
    {
      "midi": 64,
      "hit": false,
      "t": 89733.78732291672,
      "d": 300.92589583333756,
      "v": 95
    },
    {
      "midi": 67,
      "hit": false,
      "t": 89999.99100000005,
      "d": 590.2777187500033,
      "v": 112
    },
    {
      "midi": 52,
      "hit": false,
      "t": 89999.99100000015,
      "d": 486.1110625000001,
      "v": 100
    },
    {
      "midi": 55,
      "hit": false,
      "t": 89999.99100000015,
      "d": 486.1110625000001,
      "v": 100
    },
    {
      "midi": 64,
      "hit": false,
      "t": 90555.54650000005,
      "d": 335.6481145833386,
      "v": 80
    },
    {
      "midi": 48,
      "hit": false,
      "t": 90555.54650000016,
      "d": 578.7036458333314,
      "v": 100
    },
    {
      "midi": 67,
      "hit": false,
      "t": 90856.47239583339,
      "d": 1423.6109687499993,
      "v": 125
    },
    {
      "midi": 55,
      "hit": false,
      "t": 91111.10200000016,
      "d": 532.4073541666585,
      "v": 100
    },
    {
      "midi": 52,
      "hit": false,
      "t": 91111.10200000016,
      "d": 555.5554999999877,
      "v": 100
    },
    {
      "midi": 48,
      "hit": false,
      "t": 91666.65750000015,
      "d": 578.7036458333314,
      "v": 100
    },
    {
      "midi": 52,
      "hit": false,
      "t": 92222.21300000015,
      "d": 532.4073541666585,
      "v": 100
    },
    {
      "midi": 55,
      "hit": false,
      "t": 92222.21300000015,
      "d": 555.5554999999877,
      "v": 100
    },
    {
      "midi": 59,
      "hit": false,
      "t": 92222.21300000015,
      "d": 578.7036458333168,
      "v": 100
    },
    {
      "midi": 71,
      "hit": false,
      "t": 92280.08336458339,
      "d": 567.1295729166741,
      "v": 120
    },
    {
      "midi": 48,
      "hit": false,
      "t": 92777.76850000014,
      "d": 578.7036458333314,
      "v": 100
    },
    {
      "midi": 69,
      "hit": false,
      "t": 92835.6388645834,
      "d": 5069.443937500007,
      "v": 120
    },
    {
      "midi": 53,
      "hit": false,
      "t": 93333.32400000014,
      "d": 578.7036458333314,
      "v": 100
    },
    {
      "midi": 57,
      "hit": false,
      "t": 93333.32400000014,
      "d": 578.7036458333314,
      "v": 100
    },
    {
      "midi": 60,
      "hit": false,
      "t": 93333.32400000014,
      "d": 578.7036458333314,
      "v": 100
    },
    {
      "midi": 41,
      "hit": false,
      "t": 93333.32400000014,
      "d": 3680.5551874999946,
      "v": 100
    },
    {
      "midi": 48,
      "hit": false,
      "t": 93888.87950000014,
      "d": 555.5555000000022,
      "v": 100
    },
    {
      "midi": 53,
      "hit": false,
      "t": 94444.43500000014,
      "d": 532.407354166673,
      "v": 100
    },
    {
      "midi": 57,
      "hit": false,
      "t": 94444.43500000014,
      "d": 555.5555000000022,
      "v": 100
    },
    {
      "midi": 60,
      "hit": false,
      "t": 94444.43500000014,
      "d": 555.5555000000022,
      "v": 100
    },
    {
      "midi": 48,
      "hit": false,
      "t": 94999.99050000015,
      "d": 601.8517916666751,
      "v": 100
    },
    {
      "midi": 53,
      "hit": false,
      "t": 95555.54600000015,
      "d": 532.407354166673,
      "v": 100
    },
    {
      "midi": 60,
      "hit": false,
      "t": 95555.54600000015,
      "d": 578.7036458333314,
      "v": 100
    },
    {
      "midi": 57,
      "hit": false,
      "t": 95555.54600000015,
      "d": 601.8517916666606,
      "v": 100
    },
    {
      "midi": 48,
      "hit": false,
      "t": 96111.10150000015,
      "d": 995.3702708333149,
      "v": 100
    },
    {
      "midi": 57,
      "hit": false,
      "t": 96666.65700000014,
      "d": 324.07404166666674,
      "v": 100
    },
    {
      "midi": 53,
      "hit": false,
      "t": 96666.65700000014,
      "d": 347.2221874999959,
      "v": 100
    },
    {
      "midi": 58,
      "hit": false,
      "t": 96944.43475000013,
      "d": 370.3703333333251,
      "v": 100
    },
    {
      "midi": 59,
      "hit": false,
      "t": 97222.21250000013,
      "d": 601.8517916666606,
      "v": 100
    },
    {
      "midi": 55,
      "hit": false,
      "t": 97777.76800000011,
      "d": 509.25920833334385,
      "v": 100
    },
    {
      "midi": 52,
      "hit": false,
      "t": 97777.76800000011,
      "d": 555.5555000000168,
      "v": 100
    },
    {
      "midi": 62,
      "hit": false,
      "t": 97777.76800000011,
      "d": 601.8517916666897,
      "v": 100
    },
    {
      "midi": 36,
      "hit": false,
      "t": 97777.76800000011,
      "d": 3888.88850000003,
      "v": 100
    },
    {
      "midi": 48,
      "hit": false,
      "t": 98333.32350000013,
      "d": 555.5555000000022,
      "v": 100
    },
    {
      "midi": 64,
      "hit": false,
      "t": 98645.82346875007,
      "d": 219.9073854166636,
      "v": 97
    },
    {
      "midi": 67,
      "hit": false,
      "t": 98888.87900000006,
      "d": 555.5555000000022,
      "v": 112
    },
    {
      "midi": 52,
      "hit": false,
      "t": 98888.87900000013,
      "d": 532.407354166673,
      "v": 100
    },
    {
      "midi": 55,
      "hit": false,
      "t": 98888.87900000013,
      "d": 532.407354166673,
      "v": 100
    },
    {
      "midi": 48,
      "hit": false,
      "t": 99444.43450000013,
      "d": 578.7036458333314,
      "v": 100
    },
    {
      "midi": 64,
      "hit": false,
      "t": 99467.58264583339,
      "d": 243.05553124999278,
      "v": 90
    },
    {
      "midi": 67,
      "hit": false,
      "t": 99722.21225000006,
      "d": 1412.0368958333274,
      "v": 127
    },
    {
      "midi": 55,
      "hit": false,
      "t": 99999.99000000014,
      "d": 555.5555000000022,
      "v": 100
    },
    {
      "midi": 52,
      "hit": false,
      "t": 99999.99000000014,
      "d": 578.7036458333314,
      "v": 100
    },
    {
      "midi": 48,
      "hit": false,
      "t": 100555.54550000014,
      "d": 601.8517916666751,
      "v": 100
    },
    {
      "midi": 52,
      "hit": false,
      "t": 101111.10100000014,
      "d": 555.5555000000022,
      "v": 100
    },
    {
      "midi": 55,
      "hit": false,
      "t": 101111.10100000014,
      "d": 555.5555000000022,
      "v": 100
    },
    {
      "midi": 59,
      "hit": false,
      "t": 101111.10100000014,
      "d": 578.7036458333314,
      "v": 100
    },
    {
      "midi": 71,
      "hit": false,
      "t": 101157.39729166671,
      "d": 324.07404166666674,
      "v": 110
    },
    {
      "midi": 48,
      "hit": false,
      "t": 101666.65650000014,
      "d": 578.7036458333314,
      "v": 100
    },
    {
      "midi": 71,
      "hit": false,
      "t": 101724.52686458337,
      "d": 937.4999062499992,
      "v": 114
    },
    {
      "midi": 53,
      "hit": false,
      "t": 102222.21200000015,
      "d": 532.4073541666585,
      "v": 100
    },
    {
      "midi": 57,
      "hit": false,
      "t": 102222.21200000015,
      "d": 578.7036458333168,
      "v": 100
    },
    {
      "midi": 60,
      "hit": false,
      "t": 102222.21200000015,
      "d": 578.7036458333168,
      "v": 100
    },
    {
      "midi": 41,
      "hit": false,
      "t": 102222.21200000015,
      "d": 3518.5181666666467,
      "v": 100
    },
    {
      "midi": 69,
      "hit": false,
      "t": 102719.8971354167,
      "d": 4930.555062500003,
      "v": 112
    },
    {
      "midi": 48,
      "hit": false,
      "t": 102777.76750000013,
      "d": 509.2592083333293,
      "v": 100
    },
    {
      "midi": 53,
      "hit": false,
      "t": 103333.32300000013,
      "d": 509.2592083333293,
      "v": 100
    },
    {
      "midi": 57,
      "hit": false,
      "t": 103333.32300000013,
      "d": 509.2592083333293,
      "v": 100
    },
    {
      "midi": 60,
      "hit": false,
      "t": 103333.32300000013,
      "d": 532.4073541666585,
      "v": 100
    },
    {
      "midi": 48,
      "hit": false,
      "t": 103888.87850000012,
      "d": 578.7036458333314,
      "v": 100
    },
    {
      "midi": 53,
      "hit": false,
      "t": 104444.43400000012,
      "d": 486.1110625000001,
      "v": 100
    },
    {
      "midi": 60,
      "hit": false,
      "t": 104444.43400000012,
      "d": 532.407354166673,
      "v": 100
    },
    {
      "midi": 57,
      "hit": false,
      "t": 104444.43400000012,
      "d": 578.7036458333314,
      "v": 100
    },
    {
      "midi": 48,
      "hit": false,
      "t": 104999.98950000013,
      "d": 833.333249999996,
      "v": 100
    },
    {
      "midi": 53,
      "hit": false,
      "t": 105555.54500000013,
      "d": 347.2221874999959,
      "v": 100
    },
    {
      "midi": 57,
      "hit": false,
      "t": 105555.54500000013,
      "d": 347.2221874999959,
      "v": 100
    },
    {
      "midi": 58,
      "hit": false,
      "t": 105833.32275000012,
      "d": 370.37033333333966,
      "v": 100
    },
    {
      "midi": 59,
      "hit": false,
      "t": 106111.10050000013,
      "d": 601.8517916666751,
      "v": 100
    },
    {
      "midi": 55,
      "hit": false,
      "t": 106666.65600000013,
      "d": 509.25920833334385,
      "v": 100
    },
    {
      "midi": 52,
      "hit": false,
      "t": 106666.65600000013,
      "d": 555.5555000000168,
      "v": 100
    },
    {
      "midi": 62,
      "hit": false,
      "t": 106666.65600000013,
      "d": 555.5555000000168,
      "v": 100
    },
    {
      "midi": 36,
      "hit": false,
      "t": 106666.65600000013,
      "d": 3888.88850000003,
      "v": 100
    },
    {
      "midi": 48,
      "hit": false,
      "t": 107222.21150000015,
      "d": 601.8517916666751,
      "v": 100
    },
    {
      "midi": 55,
      "hit": false,
      "t": 107777.76700000015,
      "d": 532.407354166673,
      "v": 100
    },
    {
      "midi": 52,
      "hit": false,
      "t": 107777.76700000015,
      "d": 555.5555000000022,
      "v": 100
    },
    {
      "midi": 48,
      "hit": false,
      "t": 108333.32250000015,
      "d": 578.7036458333314,
      "v": 100
    },
    {
      "midi": 64,
      "hit": false,
      "t": 108576.37803125003,
      "d": 219.9073854166636,
      "v": 102
    },
    {
      "midi": 67,
      "hit": false,
      "t": 108819.43356250002,
      "d": 162.03702083333337,
      "v": 112
    },
    {
      "midi": 52,
      "hit": false,
      "t": 108888.87800000016,
      "d": 601.8517916666751,
      "v": 100
    },
    {
      "midi": 55,
      "hit": false,
      "t": 108888.87800000016,
      "d": 601.8517916666751,
      "v": 100
    },
    {
      "midi": 67,
      "hit": false,
      "t": 109097.21131250002,
      "d": 891.2036145833263,
      "v": 108
    },
    {
      "midi": 48,
      "hit": false,
      "t": 109444.43350000016,
      "d": 578.7036458333314,
      "v": 100
    },
    {
      "midi": 71,
      "hit": false,
      "t": 109999.98900000002,
      "d": 428.2406979166699,
      "v": 117
    },
    {
      "midi": 52,
      "hit": false,
      "t": 109999.98900000016,
      "d": 555.5555000000022,
      "v": 100
    },
    {
      "midi": 55,
      "hit": false,
      "t": 109999.98900000016,
      "d": 555.5555000000022,
      "v": 100
    },
    {
      "midi": 59,
      "hit": false,
      "t": 109999.98900000016,
      "d": 601.8517916666751,
      "v": 100
    },
    {
      "midi": 71,
      "hit": false,
      "t": 110555.54450000002,
      "d": 208.3333125000063,
      "v": 110
    },
    {
      "midi": 48,
      "hit": false,
      "t": 110555.54450000016,
      "d": 578.7036458333314,
      "v": 100
    },
    {
      "midi": 69,
      "hit": false,
      "t": 110833.32225000003,
      "d": 4826.38840625,
      "v": 125
    },
    {
      "midi": 53,
      "hit": false,
      "t": 111111.10000000017,
      "d": 555.5555000000022,
      "v": 100
    },
    {
      "midi": 57,
      "hit": false,
      "t": 111111.10000000017,
      "d": 578.7036458333314,
      "v": 100
    },
    {
      "midi": 60,
      "hit": false,
      "t": 111111.10000000017,
      "d": 578.7036458333314,
      "v": 100
    },
    {
      "midi": 41,
      "hit": false,
      "t": 111111.10000000017,
      "d": 3958.3329375000176,
      "v": 100
    },
    {
      "midi": 48,
      "hit": false,
      "t": 111666.65550000017,
      "d": 555.5555000000022,
      "v": 100
    },
    {
      "midi": 53,
      "hit": false,
      "t": 112222.21100000017,
      "d": 578.7036458333314,
      "v": 100
    },
    {
      "midi": 57,
      "hit": false,
      "t": 112222.21100000017,
      "d": 578.7036458333314,
      "v": 100
    },
    {
      "midi": 60,
      "hit": false,
      "t": 112222.21100000017,
      "d": 578.7036458333314,
      "v": 100
    },
    {
      "midi": 48,
      "hit": false,
      "t": 112777.76650000017,
      "d": 578.7036458333314,
      "v": 100
    },
    {
      "midi": 53,
      "hit": false,
      "t": 113333.32200000017,
      "d": 555.5555000000022,
      "v": 100
    },
    {
      "midi": 57,
      "hit": false,
      "t": 113333.32200000017,
      "d": 555.5555000000022,
      "v": 100
    },
    {
      "midi": 60,
      "hit": false,
      "t": 113333.32200000017,
      "d": 555.5555000000022,
      "v": 100
    },
    {
      "midi": 48,
      "hit": false,
      "t": 113888.87750000018,
      "d": 624.9999375000043,
      "v": 100
    },
    {
      "midi": 53,
      "hit": false,
      "t": 114444.43300000018,
      "d": 555.5555000000022,
      "v": 100
    },
    {
      "midi": 57,
      "hit": false,
      "t": 114444.43300000018,
      "d": 601.8517916666751,
      "v": 100
    },
    {
      "midi": 60,
      "hit": false,
      "t": 114444.43300000018,
      "d": 601.8517916666751,
      "v": 100
    },
    {
      "midi": 48,
      "hit": false,
      "t": 114999.98850000018,
      "d": 601.8517916666751,
      "v": 100
    },
    {
      "midi": 53,
      "hit": false,
      "t": 115555.54400000018,
      "d": 92.59258333334583,
      "v": 100
    },
    {
      "midi": 57,
      "hit": false,
      "t": 115555.54400000018,
      "d": 393.51847916666884,
      "v": 100
    },
    {
      "midi": 60,
      "hit": false,
      "t": 115555.54400000018,
      "d": 462.96291666667094,
      "v": 100
    },
    {
      "midi": 41,
      "hit": false,
      "t": 115555.54400000018,
      "d": 1666.6665000000066,
      "v": 100
    },
    {
      "midi": 53,
      "hit": false,
      "t": 116111.09950000019,
      "d": 509.2592083333293,
      "v": 100
    },
    {
      "midi": 69,
      "hit": false,
      "t": 116423.59946875002,
      "d": 266.20367708332196,
      "v": 104
    },
    {
      "midi": 72,
      "hit": false,
      "t": 116666.65500000001,
      "d": 613.4258645833324,
      "v": 127
    },
    {
      "midi": 57,
      "hit": false,
      "t": 116666.65500000019,
      "d": 578.7036458333314,
      "v": 100
    },
    {
      "midi": 60,
      "hit": false,
      "t": 116666.65500000019,
      "d": 601.8517916666606,
      "v": 100
    },
    {
      "midi": 53,
      "hit": false,
      "t": 117222.21050000019,
      "d": 555.5554999999877,
      "v": 100
    },
    {
      "midi": 69,
      "hit": false,
      "t": 117245.35864583334,
      "d": 243.05553125000733,
      "v": 98
    },
    {
      "midi": 72,
      "hit": false,
      "t": 117511.56232291668,
      "d": 1319.4443124999962,
      "v": 127
    },
    {
      "midi": 57,
      "hit": false,
      "t": 117777.76600000018,
      "d": 601.8517916666751,
      "v": 100
    },
    {
      "midi": 60,
      "hit": false,
      "t": 117777.76600000018,
      "d": 624.9999375000043,
      "v": 100
    },
    {
      "midi": 40,
      "hit": false,
      "t": 117777.76600000018,
      "d": 1689.8146458333358,
      "v": 100
    },
    {
      "midi": 52,
      "hit": false,
      "t": 118333.32150000018,
      "d": 578.7036458333314,
      "v": 100
    },
    {
      "midi": 76,
      "hit": false,
      "t": 118854.15478125,
      "d": 347.2221874999959,
      "v": 112
    },
    {
      "midi": 57,
      "hit": false,
      "t": 118888.87700000018,
      "d": 555.5555000000022,
      "v": 100
    },
    {
      "midi": 60,
      "hit": false,
      "t": 118888.87700000018,
      "d": 578.7036458333314,
      "v": 100
    },
    {
      "midi": 76,
      "hit": false,
      "t": 119444.4325,
      "d": 1076.3887812500034,
      "v": 114
    },
    {
      "midi": 52,
      "hit": false,
      "t": 119444.43250000018,
      "d": 578.7036458333314,
      "v": 100
    },
    {
      "midi": 53,
      "hit": false,
      "t": 119999.98800000019,
      "d": 578.7036458333314,
      "v": 100
    },
    {
      "midi": 57,
      "hit": false,
      "t": 119999.98800000019,
      "d": 578.7036458333314,
      "v": 100
    },
    {
      "midi": 60,
      "hit": false,
      "t": 119999.98800000019,
      "d": 578.7036458333314,
      "v": 100
    },
    {
      "midi": 38,
      "hit": false,
      "t": 119999.98800000019,
      "d": 1620.3702083333337,
      "v": 100
    },
    {
      "midi": 50,
      "hit": false,
      "t": 120555.54350000019,
      "d": 578.7036458333314,
      "v": 100
    },
    {
      "midi": 74,
      "hit": false,
      "t": 120567.11757291667,
      "d": 3321.758927083327,
      "v": 110
    },
    {
      "midi": 53,
      "hit": false,
      "t": 121111.09900000019,
      "d": 532.4073541666585,
      "v": 100
    },
    {
      "midi": 57,
      "hit": false,
      "t": 121111.09900000019,
      "d": 578.7036458333168,
      "v": 100
    },
    {
      "midi": 60,
      "hit": false,
      "t": 121111.09900000019,
      "d": 601.851791666646,
      "v": 100
    },
    {
      "midi": 50,
      "hit": false,
      "t": 121666.65450000018,
      "d": 555.5554999999877,
      "v": 100
    },
    {
      "midi": 53,
      "hit": false,
      "t": 122222.21000000017,
      "d": 601.8517916666751,
      "v": 100
    },
    {
      "midi": 57,
      "hit": false,
      "t": 122222.21000000017,
      "d": 601.8517916666751,
      "v": 100
    },
    {
      "midi": 60,
      "hit": false,
      "t": 122222.21000000017,
      "d": 601.8517916666751,
      "v": 100
    },
    {
      "midi": 36,
      "hit": false,
      "t": 122222.21000000017,
      "d": 1712.962791666665,
      "v": 100
    },
    {
      "midi": 48,
      "hit": false,
      "t": 122777.76550000017,
      "d": 578.7036458333314,
      "v": 100
    },
    {
      "midi": 53,
      "hit": false,
      "t": 123333.32100000017,
      "d": 578.7036458333314,
      "v": 100
    },
    {
      "midi": 57,
      "hit": false,
      "t": 123333.32100000017,
      "d": 578.7036458333314,
      "v": 100
    },
    {
      "midi": 60,
      "hit": false,
      "t": 123333.32100000017,
      "d": 601.8517916666606,
      "v": 100
    },
    {
      "midi": 48,
      "hit": false,
      "t": 123888.87650000017,
      "d": 555.5554999999877,
      "v": 100
    },
    {
      "midi": 59,
      "hit": false,
      "t": 124444.43200000016,
      "d": 555.5555000000022,
      "v": 100
    },
    {
      "midi": 62,
      "hit": false,
      "t": 124444.43200000016,
      "d": 555.5555000000022,
      "v": 100
    },
    {
      "midi": 43,
      "hit": false,
      "t": 124444.43200000016,
      "d": 3981.4810833333613,
      "v": 100
    },
    {
      "midi": 71,
      "hit": false,
      "t": 124502.30236458333,
      "d": 277.77774999999383,
      "v": 122
    },
    {
      "midi": 71,
      "hit": false,
      "t": 124999.98749999999,
      "d": 1446.7591145833285,
      "v": 125
    },
    {
      "midi": 55,
      "hit": false,
      "t": 124999.98750000016,
      "d": 555.5555000000022,
      "v": 100
    },
    {
      "midi": 59,
      "hit": false,
      "t": 125555.54300000017,
      "d": 555.5555000000022,
      "v": 100
    },
    {
      "midi": 62,
      "hit": false,
      "t": 125555.54300000017,
      "d": 624.9999375000043,
      "v": 100
    },
    {
      "midi": 55,
      "hit": false,
      "t": 126111.09850000017,
      "d": 578.7036458333314,
      "v": 100
    },
    {
      "midi": 62,
      "hit": false,
      "t": 126666.65400000017,
      "d": 578.7036458333314,
      "v": 100
    },
    {
      "midi": 59,
      "hit": false,
      "t": 126666.65400000017,
      "d": 624.9999375000043,
      "v": 100
    },
    {
      "midi": 71,
      "hit": false,
      "t": 126701.37621874998,
      "d": 1122.6850729166617,
      "v": 125
    },
    {
      "midi": 55,
      "hit": false,
      "t": 127222.20950000017,
      "d": 601.8517916666751,
      "v": 100
    },
    {
      "midi": 72,
      "hit": false,
      "t": 127766.19092708331,
      "d": 578.7036458333314,
      "v": 104
    },
    {
      "midi": 64,
      "hit": false,
      "t": 127777.76500000017,
      "d": 462.96291666667094,
      "v": 100
    },
    {
      "midi": 60,
      "hit": false,
      "t": 127777.76500000017,
      "d": 509.25920833334385,
      "v": 100
    },
    {
      "midi": 55,
      "hit": false,
      "t": 128333.32050000019,
      "d": 138.8888750000042,
      "v": 100
    },
    {
      "midi": 74,
      "hit": false,
      "t": 128344.89457291664,
      "d": 2766.2034270833246,
      "v": 117
    },
    {
      "midi": 55,
      "hit": false,
      "t": 128888.8760000002,
      "d": 277.77774999999383,
      "v": 100
    },
    {
      "midi": 62,
      "hit": false,
      "t": 128888.8760000002,
      "d": 300.925895833323,
      "v": 100
    },
    {
      "midi": 65,
      "hit": false,
      "t": 128888.8760000002,
      "d": 347.2221874999959,
      "v": 100
    },
    {
      "midi": 50,
      "hit": false,
      "t": 128888.8760000002,
      "d": 2083.33312499999,
      "v": 100
    },
    {
      "midi": 43,
      "hit": false,
      "t": 128888.8760000002,
      "d": 2175.9257083333214,
      "v": 100
    },
    {
      "midi": 76,
      "hit": false,
      "t": 131226.83872916663,
      "d": 462.96291666667094,
      "v": 110
    },
    {
      "midi": 79,
      "hit": false,
      "t": 131689.8016458333,
      "d": 1064.814708333346,
      "v": 102
    },
    {
      "midi": 76,
      "hit": false,
      "t": 132800.9126458333,
      "d": 254.62960416666465,
      "v": 79
    },
    {
      "midi": 74,
      "hit": false,
      "t": 133043.9681770833,
      "d": 335.6481145833386,
      "v": 87
    },
    {
      "midi": 53,
      "hit": false,
      "t": 133333.32000000018,
      "d": 254.62960416666465,
      "v": 100
    },
    {
      "midi": 57,
      "hit": false,
      "t": 133333.32000000018,
      "d": 254.62960416666465,
      "v": 100
    },
    {
      "midi": 60,
      "hit": false,
      "t": 133333.32000000018,
      "d": 254.62960416666465,
      "v": 100
    },
    {
      "midi": 41,
      "hit": false,
      "t": 133333.32000000018,
      "d": 324.07404166666674,
      "v": 100
    },
    {
      "midi": 53,
      "hit": false,
      "t": 133888.87550000017,
      "d": 231.48145833332092,
      "v": 100
    },
    {
      "midi": 57,
      "hit": false,
      "t": 134444.43100000016,
      "d": 231.48145833332092,
      "v": 100
    },
    {
      "midi": 60,
      "hit": false,
      "t": 134444.43100000016,
      "d": 254.62960416666465,
      "v": 100
    },
    {
      "midi": 69,
      "hit": false,
      "t": 134803.22726041664,
      "d": 219.90738541667815,
      "v": 87
    },
    {
      "midi": 53,
      "hit": false,
      "t": 134999.98650000014,
      "d": 162.03702083331882,
      "v": 100
    },
    {
      "midi": 72,
      "hit": false,
      "t": 135023.1346458333,
      "d": 300.925895833323,
      "v": 97
    },
    {
      "midi": 62,
      "hit": false,
      "t": 135555.54200000013,
      "d": 254.62960416666465,
      "v": 100
    },
    {
      "midi": 59,
      "hit": false,
      "t": 135555.54200000013,
      "d": 347.2221875000105,
      "v": 100
    },
    {
      "midi": 43,
      "hit": false,
      "t": 135555.54200000013,
      "d": 370.3703333333542,
      "v": 100
    },
    {
      "midi": 55,
      "hit": false,
      "t": 135555.54200000013,
      "d": 370.3703333333542,
      "v": 100
    },
    {
      "midi": 71,
      "hit": false,
      "t": 135601.83829166665,
      "d": 1643.5183541666775,
      "v": 110
    },
    {
      "midi": 55,
      "hit": false,
      "t": 136111.09750000015,
      "d": 208.3333125000063,
      "v": 100
    },
    {
      "midi": 59,
      "hit": false,
      "t": 136666.65300000017,
      "d": 231.48145833332092,
      "v": 100
    },
    {
      "midi": 62,
      "hit": false,
      "t": 136666.65300000017,
      "d": 231.48145833332092,
      "v": 100
    },
    {
      "midi": 55,
      "hit": false,
      "t": 137222.20850000015,
      "d": 115.74072916666046,
      "v": 100
    },
    {
      "midi": 69,
      "hit": false,
      "t": 137280.0788645833,
      "d": 196.75923958333442,
      "v": 100
    },
    {
      "midi": 71,
      "hit": false,
      "t": 137534.70846874997,
      "d": 277.7777500000084,
      "v": 102
    },
    {
      "midi": 55,
      "hit": false,
      "t": 137777.76400000014,
      "d": 462.96291666667094,
      "v": 100
    },
    {
      "midi": 52,
      "hit": false,
      "t": 137777.76400000014,
      "d": 532.407354166673,
      "v": 100
    },
    {
      "midi": 36,
      "hit": false,
      "t": 137777.76400000014,
      "d": 1319.4443125000107,
      "v": 100
    },
    {
      "midi": 43,
      "hit": false,
      "t": 137777.76400000014,
      "d": 1342.5924583333544,
      "v": 100
    },
    {
      "midi": 72,
      "hit": false,
      "t": 137812.48621874998,
      "d": 416.6666250000126,
      "v": 106
    },
    {
      "midi": 48,
      "hit": false,
      "t": 138333.31950000016,
      "d": 254.62960416666465,
      "v": 100
    },
    {
      "midi": 72,
      "hit": false,
      "t": 138368.04171875,
      "d": 2407.4071666666714,
      "v": 106
    },
    {
      "midi": 55,
      "hit": false,
      "t": 138888.87500000015,
      "d": 208.3333125000063,
      "v": 100
    },
    {
      "midi": 59,
      "hit": false,
      "t": 138888.87500000015,
      "d": 231.48145833335002,
      "v": 100
    },
    {
      "midi": 48,
      "hit": false,
      "t": 139444.43050000016,
      "d": 138.8888750000042,
      "v": 100
    },
    {
      "midi": 60,
      "hit": false,
      "t": 139444.43050000016,
      "d": 138.8888750000042,
      "v": 100
    },
    {
      "midi": 64,
      "hit": false,
      "t": 139999.98600000018,
      "d": 532.407354166673,
      "v": 100
    },
    {
      "midi": 56,
      "hit": false,
      "t": 139999.98600000018,
      "d": 578.7036458333605,
      "v": 100
    },
    {
      "midi": 40,
      "hit": false,
      "t": 139999.98600000018,
      "d": 1296.296166666696,
      "v": 100
    },
    {
      "midi": 47,
      "hit": false,
      "t": 139999.98600000018,
      "d": 1342.5924583333835,
      "v": 100
    },
    {
      "midi": 52,
      "hit": false,
      "t": 140555.5415000002,
      "d": 208.3333125000063,
      "v": 100
    },
    {
      "midi": 56,
      "hit": false,
      "t": 141111.0970000002,
      "d": 208.3333125000063,
      "v": 100
    },
    {
      "midi": 62,
      "hit": false,
      "t": 141111.0970000002,
      "d": 277.7777500000084,
      "v": 100
    },
    {
      "midi": 52,
      "hit": false,
      "t": 141666.65250000023,
      "d": 138.8888750000042,
      "v": 100
    },
    {
      "midi": 60,
      "hit": false,
      "t": 142222.20800000025,
      "d": 254.62960416666465,
      "v": 100
    },
    {
      "midi": 53,
      "hit": false,
      "t": 142222.20800000025,
      "d": 300.9258958333521,
      "v": 100
    },
    {
      "midi": 57,
      "hit": false,
      "t": 142222.20800000025,
      "d": 300.9258958333521,
      "v": 100
    },
    {
      "midi": 41,
      "hit": false,
      "t": 142222.20800000025,
      "d": 324.07404166669585,
      "v": 100
    },
    {
      "midi": 53,
      "hit": false,
      "t": 142777.76350000026,
      "d": 254.62960416666465,
      "v": 100
    },
    {
      "midi": 60,
      "hit": false,
      "t": 143333.31900000025,
      "d": 185.18516666666255,
      "v": 100
    },
    {
      "midi": 57,
      "hit": false,
      "t": 143333.31900000025,
      "d": 231.48145833332092,
      "v": 100
    },
    {
      "midi": 69,
      "hit": false,
      "t": 143668.96711458333,
      "d": 173.6110937499907,
      "v": 108
    },
    {
      "midi": 72,
      "hit": false,
      "t": 143888.87449999998,
      "d": 567.1295729166595,
      "v": 110
    },
    {
      "midi": 53,
      "hit": false,
      "t": 143888.87450000024,
      "d": 138.8888750000042,
      "v": 100
    },
    {
      "midi": 71,
      "hit": false,
      "t": 144421.28185416665,
      "d": 381.944406249997,
      "v": 110
    },
    {
      "midi": 62,
      "hit": false,
      "t": 144444.43000000025,
      "d": 208.3333125000063,
      "v": 100
    },
    {
      "midi": 59,
      "hit": false,
      "t": 144444.43000000025,
      "d": 277.7777500000084,
      "v": 100
    },
    {
      "midi": 55,
      "hit": false,
      "t": 144444.43000000025,
      "d": 324.07404166666674,
      "v": 100
    },
    {
      "midi": 43,
      "hit": false,
      "t": 144444.43000000025,
      "d": 347.2221875000105,
      "v": 100
    },
    {
      "midi": 71,
      "hit": false,
      "t": 144999.98549999998,
      "d": 312.4999687499949,
      "v": 100
    },
    {
      "midi": 55,
      "hit": false,
      "t": 144999.98550000027,
      "d": 231.48145833332092,
      "v": 100
    },
    {
      "midi": 69,
      "hit": false,
      "t": 145324.05954166665,
      "d": 347.2221875000105,
      "v": 112
    },
    {
      "midi": 59,
      "hit": false,
      "t": 145555.54100000026,
      "d": 208.3333125000063,
      "v": 100
    },
    {
      "midi": 62,
      "hit": false,
      "t": 145555.54100000026,
      "d": 208.3333125000063,
      "v": 100
    },
    {
      "midi": 69,
      "hit": false,
      "t": 145821.74467708333,
      "d": 335.6481145833386,
      "v": 85
    },
    {
      "midi": 67,
      "hit": false,
      "t": 146111.0965,
      "d": 2673.610843749979,
      "v": 112
    },
    {
      "midi": 55,
      "hit": false,
      "t": 146111.09650000028,
      "d": 138.8888750000042,
      "v": 100
    },
    {
      "midi": 55,
      "hit": false,
      "t": 146666.6520000003,
      "d": 300.9258958333521,
      "v": 100
    },
    {
      "midi": 52,
      "hit": false,
      "t": 146666.6520000003,
      "d": 347.2221875000105,
      "v": 100
    },
    {
      "midi": 36,
      "hit": false,
      "t": 146666.6520000003,
      "d": 694.444375000021,
      "v": 100
    },
    {
      "midi": 43,
      "hit": false,
      "t": 146666.6520000003,
      "d": 740.7406666666793,
      "v": 100
    },
    {
      "midi": 48,
      "hit": false,
      "t": 147222.2075000003,
      "d": 208.3333125000063,
      "v": 100
    },
    {
      "midi": 55,
      "hit": false,
      "t": 147777.76300000033,
      "d": 208.3333125000063,
      "v": 100
    },
    {
      "midi": 59,
      "hit": false,
      "t": 147777.76300000033,
      "d": 208.3333125000063,
      "v": 100
    },
    {
      "midi": 48,
      "hit": false,
      "t": 148333.31850000034,
      "d": 162.03702083331882,
      "v": 100
    },
    {
      "midi": 60,
      "hit": false,
      "t": 148333.31850000034,
      "d": 162.03702083331882,
      "v": 100
    },
    {
      "midi": 64,
      "hit": false,
      "t": 148888.87400000033,
      "d": 300.9258958333521,
      "v": 100
    },
    {
      "midi": 56,
      "hit": false,
      "t": 148888.87400000033,
      "d": 370.3703333333542,
      "v": 100
    },
    {
      "midi": 40,
      "hit": false,
      "t": 148888.87400000033,
      "d": 787.0369583333377,
      "v": 100
    },
    {
      "midi": 47,
      "hit": false,
      "t": 148888.87400000033,
      "d": 856.4813958333398,
      "v": 100
    },
    {
      "midi": 52,
      "hit": false,
      "t": 149444.42950000035,
      "d": 277.7777499999793,
      "v": 100
    },
    {
      "midi": 56,
      "hit": false,
      "t": 149999.98500000034,
      "d": 208.3333125000063,
      "v": 100
    },
    {
      "midi": 62,
      "hit": false,
      "t": 149999.98500000034,
      "d": 231.48145833335002,
      "v": 100
    },
    {
      "midi": 52,
      "hit": false,
      "t": 150555.54050000035,
      "d": 185.18516666666255,
      "v": 100
    },
    {
      "midi": 60,
      "hit": false,
      "t": 151111.09600000034,
      "d": 277.7777500000084,
      "v": 100
    },
    {
      "midi": 53,
      "hit": false,
      "t": 151111.09600000034,
      "d": 300.9258958333521,
      "v": 100
    },
    {
      "midi": 57,
      "hit": false,
      "t": 151111.09600000034,
      "d": 300.9258958333521,
      "v": 100
    },
    {
      "midi": 41,
      "hit": false,
      "t": 151111.09600000034,
      "d": 393.51847916669794,
      "v": 100
    },
    {
      "midi": 53,
      "hit": false,
      "t": 151666.65150000036,
      "d": 254.62960416666465,
      "v": 100
    },
    {
      "midi": 69,
      "hit": false,
      "t": 151678.22557291665,
      "d": 127.31480208333232,
      "v": 122
    },
    {
      "midi": 69,
      "hit": false,
      "t": 151967.5773958333,
      "d": 474.5369895833428,
      "v": 127
    },
    {
      "midi": 57,
      "hit": false,
      "t": 152222.20700000034,
      "d": 231.48145833332092,
      "v": 100
    },
    {
      "midi": 60,
      "hit": false,
      "t": 152222.20700000034,
      "d": 231.48145833332092,
      "v": 100
    },
    {
      "midi": 72,
      "hit": false,
      "t": 152442.11438541664,
      "d": 567.1295729166886,
      "v": 102
    },
    {
      "midi": 53,
      "hit": false,
      "t": 152777.76250000033,
      "d": 162.03702083331882,
      "v": 100
    },
    {
      "midi": 71,
      "hit": false,
      "t": 152986.0958125,
      "d": 1967.5923958333442,
      "v": 104
    },
    {
      "midi": 62,
      "hit": false,
      "t": 153333.31800000032,
      "d": 231.48145833332092,
      "v": 100
    },
    {
      "midi": 59,
      "hit": false,
      "t": 153333.31800000032,
      "d": 347.2221874999814,
      "v": 100
    },
    {
      "midi": 43,
      "hit": false,
      "t": 153333.31800000032,
      "d": 370.3703333333251,
      "v": 100
    },
    {
      "midi": 55,
      "hit": false,
      "t": 153333.31800000032,
      "d": 370.3703333333251,
      "v": 100
    },
    {
      "midi": 55,
      "hit": false,
      "t": 153888.8735000003,
      "d": 254.62960416666465,
      "v": 100
    },
    {
      "midi": 62,
      "hit": false,
      "t": 154444.4290000003,
      "d": 208.3333125000063,
      "v": 100
    },
    {
      "midi": 59,
      "hit": false,
      "t": 154444.4290000003,
      "d": 231.48145833335002,
      "v": 100
    },
    {
      "midi": 55,
      "hit": false,
      "t": 154999.9845000003,
      "d": 162.03702083331882,
      "v": 100
    },
    {
      "midi": 69,
      "hit": false,
      "t": 155023.13264583334,
      "d": 173.6110937499907,
      "v": 100
    },
    {
      "midi": 71,
      "hit": false,
      "t": 155312.48446875,
      "d": 127.31480208333232,
      "v": 88
    },
    {
      "midi": 55,
      "hit": false,
      "t": 155555.5400000003,
      "d": 254.62960416666465,
      "v": 100
    },
    {
      "midi": 52,
      "hit": false,
      "t": 155555.5400000003,
      "d": 277.7777500000084,
      "v": 100
    },
    {
      "midi": 36,
      "hit": false,
      "t": 155555.5400000003,
      "d": 393.51847916666884,
      "v": 100
    },
    {
      "midi": 43,
      "hit": false,
      "t": 155555.5400000003,
      "d": 393.51847916666884,
      "v": 100
    },
    {
      "midi": 72,
      "hit": false,
      "t": 155567.11407291665,
      "d": 451.38884374999907,
      "v": 108
    },
    {
      "midi": 48,
      "hit": false,
      "t": 156111.0955000003,
      "d": 185.18516666666255,
      "v": 100
    },
    {
      "midi": 72,
      "hit": false,
      "t": 156145.81771874998,
      "d": 324.07404166666674,
      "v": 102
    },
    {
      "midi": 69,
      "hit": false,
      "t": 156435.16954166666,
      "d": 358.79626041665324,
      "v": 80
    },
    {
      "midi": 59,
      "hit": false,
      "t": 156666.65100000027,
      "d": 208.3333125000063,
      "v": 100
    },
    {
      "midi": 55,
      "hit": false,
      "t": 156666.65100000027,
      "d": 231.48145833335002,
      "v": 100
    },
    {
      "midi": 67,
      "hit": false,
      "t": 156736.0954375,
      "d": 2627.3145520833205,
      "v": 114
    },
    {
      "midi": 48,
      "hit": false,
      "t": 157222.2065000003,
      "d": 138.8888750000042,
      "v": 100
    },
    {
      "midi": 60,
      "hit": false,
      "t": 157222.2065000003,
      "d": 208.3333125000063,
      "v": 100
    },
    {
      "midi": 64,
      "hit": false,
      "t": 157777.7620000003,
      "d": 300.9258958333521,
      "v": 100
    },
    {
      "midi": 56,
      "hit": false,
      "t": 157777.7620000003,
      "d": 416.6666250000126,
      "v": 100
    },
    {
      "midi": 40,
      "hit": false,
      "t": 157777.7620000003,
      "d": 439.8147708333563,
      "v": 100
    },
    {
      "midi": 47,
      "hit": false,
      "t": 157777.7620000003,
      "d": 439.8147708333563,
      "v": 100
    },
    {
      "midi": 52,
      "hit": false,
      "t": 158333.31750000032,
      "d": 231.48145833332092,
      "v": 100
    },
    {
      "midi": 62,
      "hit": false,
      "t": 158888.8730000003,
      "d": 208.3333125000063,
      "v": 100
    },
    {
      "midi": 56,
      "hit": false,
      "t": 158888.8730000003,
      "d": 277.7777500000084,
      "v": 100
    },
    {
      "midi": 52,
      "hit": false,
      "t": 159444.42850000033,
      "d": 208.3333125000063,
      "v": 100
    },
    {
      "midi": 60,
      "hit": false,
      "t": 159999.98400000035,
      "d": 277.7777500000084,
      "v": 100
    },
    {
      "midi": 41,
      "hit": false,
      "t": 159999.98400000035,
      "d": 300.9258958333521,
      "v": 100
    },
    {
      "midi": 57,
      "hit": false,
      "t": 159999.98400000035,
      "d": 324.07404166669585,
      "v": 100
    },
    {
      "midi": 48,
      "hit": false,
      "t": 159999.98400000035,
      "d": 393.51847916669794,
      "v": 100
    },
    {
      "midi": 53,
      "hit": false,
      "t": 160555.53950000036,
      "d": 254.62960416666465,
      "v": 100
    },
    {
      "midi": 60,
      "hit": false,
      "t": 161111.09500000035,
      "d": 208.3333125000063,
      "v": 100
    },
    {
      "midi": 57,
      "hit": false,
      "t": 161111.09500000035,
      "d": 231.48145833335002,
      "v": 100
    },
    {
      "midi": 71,
      "hit": false,
      "t": 161412.0208958333,
      "d": 196.75923958333442,
      "v": 106
    },
    {
      "midi": 72,
      "hit": false,
      "t": 161585.6319895833,
      "d": 636.5740104166907,
      "v": 112
    },
    {
      "midi": 53,
      "hit": false,
      "t": 161666.65050000037,
      "d": 185.18516666666255,
      "v": 100
    },
    {
      "midi": 74,
      "hit": false,
      "t": 162199.05785416663,
      "d": 810.1851041666814,
      "v": 117
    },
    {
      "midi": 62,
      "hit": false,
      "t": 162222.20600000035,
      "d": 231.48145833332092,
      "v": 100
    },
    {
      "midi": 59,
      "hit": false,
      "t": 162222.20600000035,
      "d": 324.07404166663764,
      "v": 100
    },
    {
      "midi": 43,
      "hit": false,
      "t": 162222.20600000035,
      "d": 347.2221874999814,
      "v": 100
    },
    {
      "midi": 50,
      "hit": false,
      "t": 162222.20600000035,
      "d": 347.2221874999814,
      "v": 100
    },
    {
      "midi": 55,
      "hit": false,
      "t": 162777.76150000034,
      "d": 185.18516666666255,
      "v": 100
    },
    {
      "midi": 76,
      "hit": false,
      "t": 163043.9651770833,
      "d": 185.18516666666255,
      "v": 86
    },
    {
      "midi": 74,
      "hit": false,
      "t": 163229.15034374996,
      "d": 150.46294791667606,
      "v": 108
    },
    {
      "midi": 59,
      "hit": false,
      "t": 163333.31700000033,
      "d": 185.18516666666255,
      "v": 100
    },
    {
      "midi": 62,
      "hit": false,
      "t": 163333.31700000033,
      "d": 208.3333125000063,
      "v": 100
    },
    {
      "midi": 72,
      "hit": false,
      "t": 163368.03921874997,
      "d": 729.1665937500075,
      "v": 102
    },
    {
      "midi": 55,
      "hit": false,
      "t": 163888.87250000035,
      "d": 138.8888750000042,
      "v": 100
    },
    {
      "midi": 74,
      "hit": false,
      "t": 164097.20581249997,
      "d": 196.75923958333442,
      "v": 91
    },
    {
      "midi": 76,
      "hit": false,
      "t": 164398.1317083333,
      "d": 416.6666250000126,
      "v": 100
    },
    {
      "midi": 36,
      "hit": false,
      "t": 164444.42800000036,
      "d": 462.96291666667094,
      "v": 100
    },
    {
      "midi": 43,
      "hit": false,
      "t": 164444.42800000036,
      "d": 555.5555000000168,
      "v": 100
    },
    {
      "midi": 52,
      "hit": false,
      "t": 164444.42800000036,
      "d": 4305.5551250000135,
      "v": 100
    },
    {
      "midi": 55,
      "hit": false,
      "t": 164444.42800000036,
      "d": 4305.5551250000135,
      "v": 100
    },
    {
      "midi": 72,
      "hit": false,
      "t": 164814.7983333333,
      "d": 185.18516666666255,
      "v": 90
    },
    {
      "midi": 48,
      "hit": false,
      "t": 164999.98350000038,
      "d": 555.5554999999877,
      "v": 100
    },
    {
      "midi": 72,
      "hit": false,
      "t": 165208.31681249998,
      "d": 3171.2959791666653,
      "v": 108
    },
    {
      "midi": 31,
      "hit": false,
      "t": 165555.53900000037,
      "d": 601.851791666646,
      "v": 100
    },
    {
      "midi": 48,
      "hit": false,
      "t": 166111.09450000036,
      "d": 555.5554999999877,
      "v": 100
    },
    {
      "midi": 33,
      "hit": false,
      "t": 166666.65000000034,
      "d": 648.1480833333335,
      "v": 100
    },
    {
      "midi": 48,
      "hit": false,
      "t": 167222.20550000033,
      "d": 578.7036458333605,
      "v": 100
    },
    {
      "midi": 35,
      "hit": false,
      "t": 167777.76100000035,
      "d": 624.9999375000189,
      "v": 100
    },
    {
      "midi": 48,
      "hit": false,
      "t": 168333.31650000036,
      "d": 509.2592083333584,
      "v": 100
    },
    {
      "midi": 52,
      "hit": false,
      "t": 168888.87200000038,
      "d": 555.5554999999877,
      "v": 100
    },
    {
      "midi": 55,
      "hit": false,
      "t": 168888.87200000038,
      "d": 555.5554999999877,
      "v": 100
    },
    {
      "midi": 36,
      "hit": false,
      "t": 168888.87200000038,
      "d": 3888.888500000001,
      "v": 100
    },
    {
      "midi": 48,
      "hit": false,
      "t": 169444.42750000037,
      "d": 624.9999374999898,
      "v": 100
    },
    {
      "midi": 64,
      "hit": false,
      "t": 169733.77932291664,
      "d": 219.90738541667815,
      "v": 87
    },
    {
      "midi": 67,
      "hit": false,
      "t": 169999.98299999998,
      "d": 578.7036458333314,
      "v": 102
    },
    {
      "midi": 52,
      "hit": false,
      "t": 169999.98300000036,
      "d": 555.5554999999877,
      "v": 100
    },
    {
      "midi": 55,
      "hit": false,
      "t": 169999.98300000036,
      "d": 578.7036458333314,
      "v": 100
    },
    {
      "midi": 64,
      "hit": false,
      "t": 170555.53849999997,
      "d": 335.6481145833386,
      "v": 81
    },
    {
      "midi": 48,
      "hit": false,
      "t": 170555.53850000034,
      "d": 578.7036458333605,
      "v": 100
    },
    {
      "midi": 67,
      "hit": false,
      "t": 170844.89032291665,
      "d": 1840.2775937499828,
      "v": 127
    },
    {
      "midi": 52,
      "hit": false,
      "t": 171111.09400000036,
      "d": 532.407354166673,
      "v": 100
    },
    {
      "midi": 55,
      "hit": false,
      "t": 171111.09400000036,
      "d": 532.407354166673,
      "v": 100
    },
    {
      "midi": 48,
      "hit": false,
      "t": 171666.64950000038,
      "d": 601.851791666646,
      "v": 100
    },
    {
      "midi": 52,
      "hit": false,
      "t": 172222.20500000037,
      "d": 509.2592083333293,
      "v": 100
    },
    {
      "midi": 55,
      "hit": false,
      "t": 172222.20500000037,
      "d": 509.2592083333293,
      "v": 100
    },
    {
      "midi": 59,
      "hit": false,
      "t": 172222.20500000037,
      "d": 532.407354166673,
      "v": 100
    },
    {
      "midi": 71,
      "hit": false,
      "t": 172696.7419895833,
      "d": 416.6666250000126,
      "v": 110
    },
    {
      "midi": 48,
      "hit": false,
      "t": 172777.76050000038,
      "d": 578.7036458333314,
      "v": 100
    },
    {
      "midi": 71,
      "hit": false,
      "t": 173333.316,
      "d": 578.7036458333314,
      "v": 100
    },
    {
      "midi": 53,
      "hit": false,
      "t": 173333.31600000037,
      "d": 532.407354166673,
      "v": 100
    },
    {
      "midi": 57,
      "hit": false,
      "t": 173333.31600000037,
      "d": 555.5555000000168,
      "v": 100
    },
    {
      "midi": 60,
      "hit": false,
      "t": 173333.31600000037,
      "d": 555.5555000000168,
      "v": 100
    },
    {
      "midi": 41,
      "hit": false,
      "t": 173333.31600000037,
      "d": 3749.9996249999967,
      "v": 100
    },
    {
      "midi": 69,
      "hit": false,
      "t": 173865.72335416666,
      "d": 4594.906947916665,
      "v": 108
    },
    {
      "midi": 48,
      "hit": false,
      "t": 173888.8715000004,
      "d": 578.7036458333314,
      "v": 100
    },
    {
      "midi": 60,
      "hit": false,
      "t": 174444.42700000037,
      "d": 509.2592083333293,
      "v": 100
    },
    {
      "midi": 53,
      "hit": false,
      "t": 174444.42700000037,
      "d": 532.407354166673,
      "v": 100
    },
    {
      "midi": 57,
      "hit": false,
      "t": 174444.42700000037,
      "d": 532.407354166673,
      "v": 100
    },
    {
      "midi": 48,
      "hit": false,
      "t": 174999.9825000004,
      "d": 601.851791666646,
      "v": 100
    },
    {
      "midi": 53,
      "hit": false,
      "t": 175555.53800000038,
      "d": 532.4073541666439,
      "v": 100
    },
    {
      "midi": 57,
      "hit": false,
      "t": 175555.53800000038,
      "d": 555.5554999999877,
      "v": 100
    },
    {
      "midi": 60,
      "hit": false,
      "t": 175555.53800000038,
      "d": 601.851791666646,
      "v": 100
    },
    {
      "midi": 48,
      "hit": false,
      "t": 176111.09350000037,
      "d": 1064.814708333346,
      "v": 100
    },
    {
      "midi": 57,
      "hit": false,
      "t": 176666.64900000035,
      "d": 324.07404166666674,
      "v": 100
    },
    {
      "midi": 53,
      "hit": false,
      "t": 176666.64900000035,
      "d": 393.51847916666884,
      "v": 100
    },
    {
      "midi": 58,
      "hit": false,
      "t": 176944.42675000036,
      "d": 324.07404166666674,
      "v": 100
    },
    {
      "midi": 59,
      "hit": false,
      "t": 177222.20450000037,
      "d": 578.7036458333314,
      "v": 100
    },
    {
      "midi": 55,
      "hit": false,
      "t": 177777.76000000036,
      "d": 532.407354166673,
      "v": 100
    },
    {
      "midi": 52,
      "hit": false,
      "t": 177777.76000000036,
      "d": 601.8517916666751,
      "v": 100
    },
    {
      "midi": 62,
      "hit": false,
      "t": 177777.76000000036,
      "d": 601.8517916666751,
      "v": 100
    },
    {
      "midi": 36,
      "hit": false,
      "t": 177777.76000000036,
      "d": 3865.740354166657,
      "v": 100
    },
    {
      "midi": 48,
      "hit": false,
      "t": 178333.31550000038,
      "d": 601.851791666646,
      "v": 100
    },
    {
      "midi": 64,
      "hit": false,
      "t": 178622.66732291665,
      "d": 300.925895833323,
      "v": 95
    },
    {
      "midi": 67,
      "hit": false,
      "t": 178888.87099999998,
      "d": 590.2777187499742,
      "v": 112
    },
    {
      "midi": 52,
      "hit": false,
      "t": 178888.87100000036,
      "d": 486.11106249998556,
      "v": 100
    },
    {
      "midi": 55,
      "hit": false,
      "t": 178888.87100000036,
      "d": 486.11106249998556,
      "v": 100
    },
    {
      "midi": 64,
      "hit": false,
      "t": 179444.42649999997,
      "d": 335.6481145833095,
      "v": 80
    },
    {
      "midi": 48,
      "hit": false,
      "t": 179444.42650000035,
      "d": 578.7036458333314,
      "v": 100
    },
    {
      "midi": 67,
      "hit": false,
      "t": 179745.3523958333,
      "d": 1423.6109687499993,
      "v": 125
    },
    {
      "midi": 55,
      "hit": false,
      "t": 179999.98200000034,
      "d": 532.407354166673,
      "v": 100
    },
    {
      "midi": 52,
      "hit": false,
      "t": 179999.98200000034,
      "d": 555.5555000000168,
      "v": 100
    },
    {
      "midi": 48,
      "hit": false,
      "t": 180555.53750000036,
      "d": 578.7036458333314,
      "v": 100
    },
    {
      "midi": 52,
      "hit": false,
      "t": 181111.09300000034,
      "d": 532.407354166673,
      "v": 100
    },
    {
      "midi": 55,
      "hit": false,
      "t": 181111.09300000034,
      "d": 555.5555000000168,
      "v": 100
    },
    {
      "midi": 59,
      "hit": false,
      "t": 181111.09300000034,
      "d": 578.7036458333605,
      "v": 100
    },
    {
      "midi": 71,
      "hit": false,
      "t": 181168.9633645833,
      "d": 567.1295729166595,
      "v": 120
    },
    {
      "midi": 48,
      "hit": false,
      "t": 181666.64850000036,
      "d": 578.7036458333605,
      "v": 100
    },
    {
      "midi": 69,
      "hit": false,
      "t": 181724.51886458328,
      "d": 5069.443937500007,
      "v": 120
    },
    {
      "midi": 53,
      "hit": false,
      "t": 182222.20400000038,
      "d": 578.7036458333605,
      "v": 100
    },
    {
      "midi": 57,
      "hit": false,
      "t": 182222.20400000038,
      "d": 578.7036458333605,
      "v": 100
    },
    {
      "midi": 60,
      "hit": false,
      "t": 182222.20400000038,
      "d": 578.7036458333605,
      "v": 100
    },
    {
      "midi": 41,
      "hit": false,
      "t": 182222.20400000038,
      "d": 3680.555187500053,
      "v": 100
    },
    {
      "midi": 48,
      "hit": false,
      "t": 182777.7595000004,
      "d": 555.5555000000168,
      "v": 100
    },
    {
      "midi": 53,
      "hit": false,
      "t": 183333.3150000004,
      "d": 532.407354166673,
      "v": 100
    },
    {
      "midi": 57,
      "hit": false,
      "t": 183333.3150000004,
      "d": 555.5555000000168,
      "v": 100
    },
    {
      "midi": 60,
      "hit": false,
      "t": 183333.3150000004,
      "d": 555.5555000000168,
      "v": 100
    },
    {
      "midi": 48,
      "hit": false,
      "t": 183888.87050000043,
      "d": 601.851791666646,
      "v": 100
    },
    {
      "midi": 53,
      "hit": false,
      "t": 184444.4260000004,
      "d": 532.4073541666439,
      "v": 100
    },
    {
      "midi": 60,
      "hit": false,
      "t": 184444.4260000004,
      "d": 578.7036458333314,
      "v": 100
    },
    {
      "midi": 57,
      "hit": false,
      "t": 184444.4260000004,
      "d": 601.8517916666751,
      "v": 100
    },
    {
      "midi": 48,
      "hit": false,
      "t": 184999.9815000004,
      "d": 995.3702708333731,
      "v": 100
    },
    {
      "midi": 57,
      "hit": false,
      "t": 185555.53700000042,
      "d": 324.07404166666674,
      "v": 100
    },
    {
      "midi": 53,
      "hit": false,
      "t": 185555.53700000042,
      "d": 347.2221875000105,
      "v": 100
    },
    {
      "midi": 58,
      "hit": false,
      "t": 185833.31475000043,
      "d": 370.3703333333542,
      "v": 100
    },
    {
      "midi": 59,
      "hit": false,
      "t": 186111.09250000044,
      "d": 601.8517916666751,
      "v": 100
    },
    {
      "midi": 55,
      "hit": false,
      "t": 186666.64800000045,
      "d": 509.2592083333002,
      "v": 100
    },
    {
      "midi": 52,
      "hit": false,
      "t": 186666.64800000045,
      "d": 555.5554999999586,
      "v": 100
    },
    {
      "midi": 62,
      "hit": false,
      "t": 186666.64800000045,
      "d": 601.8517916666169,
      "v": 100
    },
    {
      "midi": 36,
      "hit": false,
      "t": 186666.64800000045,
      "d": 3888.888499999972,
      "v": 100
    },
    {
      "midi": 48,
      "hit": false,
      "t": 187222.2035000004,
      "d": 555.5554999999877,
      "v": 100
    },
    {
      "midi": 64,
      "hit": false,
      "t": 187534.70346874997,
      "d": 219.90738541667815,
      "v": 97
    },
    {
      "midi": 67,
      "hit": false,
      "t": 187777.759,
      "d": 555.5554999999877,
      "v": 112
    },
    {
      "midi": 52,
      "hit": false,
      "t": 187777.7590000004,
      "d": 532.407354166673,
      "v": 100
    },
    {
      "midi": 55,
      "hit": false,
      "t": 187777.7590000004,
      "d": 532.407354166673,
      "v": 100
    },
    {
      "midi": 48,
      "hit": false,
      "t": 188333.31450000042,
      "d": 578.7036458333314,
      "v": 100
    },
    {
      "midi": 64,
      "hit": false,
      "t": 188356.46264583332,
      "d": 243.05553124999278,
      "v": 90
    },
    {
      "midi": 67,
      "hit": false,
      "t": 188611.09225,
      "d": 1412.0368958333274,
      "v": 127
    },
    {
      "midi": 55,
      "hit": false,
      "t": 188888.8700000004,
      "d": 555.5555000000168,
      "v": 100
    },
    {
      "midi": 52,
      "hit": false,
      "t": 188888.8700000004,
      "d": 578.7036458333605,
      "v": 100
    },
    {
      "midi": 48,
      "hit": false,
      "t": 189444.42550000042,
      "d": 601.8517916666751,
      "v": 100
    },
    {
      "midi": 52,
      "hit": false,
      "t": 189999.98100000044,
      "d": 555.5554999999877,
      "v": 100
    },
    {
      "midi": 55,
      "hit": false,
      "t": 189999.98100000044,
      "d": 555.5554999999877,
      "v": 100
    },
    {
      "midi": 59,
      "hit": false,
      "t": 189999.98100000044,
      "d": 578.7036458333314,
      "v": 100
    },
    {
      "midi": 71,
      "hit": false,
      "t": 190046.27729166666,
      "d": 324.07404166666674,
      "v": 110
    },
    {
      "midi": 48,
      "hit": false,
      "t": 190555.53650000042,
      "d": 578.7036458333605,
      "v": 100
    },
    {
      "midi": 71,
      "hit": false,
      "t": 190613.40686458332,
      "d": 937.4999062500137,
      "v": 114
    },
    {
      "midi": 53,
      "hit": false,
      "t": 191111.09200000044,
      "d": 532.407354166673,
      "v": 100
    },
    {
      "midi": 57,
      "hit": false,
      "t": 191111.09200000044,
      "d": 578.7036458333605,
      "v": 100
    },
    {
      "midi": 60,
      "hit": false,
      "t": 191111.09200000044,
      "d": 578.7036458333605,
      "v": 100
    },
    {
      "midi": 41,
      "hit": false,
      "t": 191111.09200000044,
      "d": 3518.518166666705,
      "v": 100
    },
    {
      "midi": 69,
      "hit": false,
      "t": 191608.77713541666,
      "d": 4930.555062500003,
      "v": 112
    },
    {
      "midi": 48,
      "hit": false,
      "t": 191666.64750000046,
      "d": 509.2592083333293,
      "v": 100
    },
    {
      "midi": 53,
      "hit": false,
      "t": 192222.20300000045,
      "d": 509.2592083333293,
      "v": 100
    },
    {
      "midi": 57,
      "hit": false,
      "t": 192222.20300000045,
      "d": 509.2592083333293,
      "v": 100
    },
    {
      "midi": 60,
      "hit": false,
      "t": 192222.20300000045,
      "d": 532.407354166673,
      "v": 100
    },
    {
      "midi": 48,
      "hit": false,
      "t": 192777.75850000046,
      "d": 578.7036458333314,
      "v": 100
    },
    {
      "midi": 53,
      "hit": false,
      "t": 193333.31400000045,
      "d": 486.11106250001467,
      "v": 100
    },
    {
      "midi": 60,
      "hit": false,
      "t": 193333.31400000045,
      "d": 532.407354166673,
      "v": 100
    },
    {
      "midi": 57,
      "hit": false,
      "t": 193333.31400000045,
      "d": 578.7036458333605,
      "v": 100
    },
    {
      "midi": 48,
      "hit": false,
      "t": 193888.86950000047,
      "d": 833.3332500000251,
      "v": 100
    },
    {
      "midi": 53,
      "hit": false,
      "t": 194444.42500000048,
      "d": 347.2221875000105,
      "v": 100
    },
    {
      "midi": 57,
      "hit": false,
      "t": 194444.42500000048,
      "d": 347.2221875000105,
      "v": 100
    },
    {
      "midi": 58,
      "hit": false,
      "t": 194722.2027500005,
      "d": 370.3703333333542,
      "v": 100
    },
    {
      "midi": 59,
      "hit": false,
      "t": 194999.9805000005,
      "d": 601.8517916666751,
      "v": 100
    },
    {
      "midi": 55,
      "hit": false,
      "t": 195555.53600000052,
      "d": 509.2592083333002,
      "v": 100
    },
    {
      "midi": 52,
      "hit": false,
      "t": 195555.53600000052,
      "d": 555.5554999999586,
      "v": 100
    },
    {
      "midi": 62,
      "hit": false,
      "t": 195555.53600000052,
      "d": 555.5554999999586,
      "v": 100
    },
    {
      "midi": 36,
      "hit": false,
      "t": 195555.53600000052,
      "d": 3888.8884999999427,
      "v": 100
    },
    {
      "midi": 48,
      "hit": false,
      "t": 196111.09150000048,
      "d": 601.851791666646,
      "v": 100
    },
    {
      "midi": 55,
      "hit": false,
      "t": 196666.64700000046,
      "d": 532.4073541666439,
      "v": 100
    },
    {
      "midi": 52,
      "hit": false,
      "t": 196666.64700000046,
      "d": 555.5554999999877,
      "v": 100
    },
    {
      "midi": 48,
      "hit": false,
      "t": 197222.20250000045,
      "d": 578.7036458333314,
      "v": 100
    },
    {
      "midi": 64,
      "hit": false,
      "t": 197465.25803125,
      "d": 219.90738541667815,
      "v": 102
    },
    {
      "midi": 67,
      "hit": false,
      "t": 197708.31356250003,
      "d": 162.03702083331882,
      "v": 112
    },
    {
      "midi": 52,
      "hit": false,
      "t": 197777.75800000044,
      "d": 601.8517916666751,
      "v": 100
    },
    {
      "midi": 55,
      "hit": false,
      "t": 197777.75800000044,
      "d": 601.8517916666751,
      "v": 100
    },
    {
      "midi": 67,
      "hit": false,
      "t": 197986.0913125,
      "d": 891.2036145833263,
      "v": 108
    },
    {
      "midi": 48,
      "hit": false,
      "t": 198333.31350000045,
      "d": 578.7036458333314,
      "v": 100
    },
    {
      "midi": 71,
      "hit": false,
      "t": 198888.869,
      "d": 428.24069791665534,
      "v": 117
    },
    {
      "midi": 52,
      "hit": false,
      "t": 198888.86900000044,
      "d": 555.5555000000168,
      "v": 100
    },
    {
      "midi": 55,
      "hit": false,
      "t": 198888.86900000044,
      "d": 555.5555000000168,
      "v": 100
    },
    {
      "midi": 59,
      "hit": false,
      "t": 198888.86900000044,
      "d": 601.8517916666751,
      "v": 100
    },
    {
      "midi": 71,
      "hit": false,
      "t": 199444.4245,
      "d": 208.3333125000063,
      "v": 110
    },
    {
      "midi": 48,
      "hit": false,
      "t": 199444.42450000046,
      "d": 578.7036458333314,
      "v": 100
    },
    {
      "midi": 69,
      "hit": false,
      "t": 199722.20225,
      "d": 4826.388406250015,
      "v": 125
    },
    {
      "midi": 53,
      "hit": false,
      "t": 199999.98000000045,
      "d": 555.5555000000168,
      "v": 100
    },
    {
      "midi": 57,
      "hit": false,
      "t": 199999.98000000045,
      "d": 578.7036458333605,
      "v": 100
    },
    {
      "midi": 60,
      "hit": false,
      "t": 199999.98000000045,
      "d": 578.7036458333605,
      "v": 100
    },
    {
      "midi": 41,
      "hit": false,
      "t": 199999.98000000045,
      "d": 3958.332937500032,
      "v": 100
    },
    {
      "midi": 48,
      "hit": false,
      "t": 200555.53550000046,
      "d": 555.5555000000168,
      "v": 100
    },
    {
      "midi": 53,
      "hit": false,
      "t": 201111.09100000048,
      "d": 578.7036458333314,
      "v": 100
    },
    {
      "midi": 57,
      "hit": false,
      "t": 201111.09100000048,
      "d": 578.7036458333314,
      "v": 100
    },
    {
      "midi": 60,
      "hit": false,
      "t": 201111.09100000048,
      "d": 578.7036458333314,
      "v": 100
    },
    {
      "midi": 48,
      "hit": false,
      "t": 201666.64650000047,
      "d": 578.7036458333605,
      "v": 100
    },
    {
      "midi": 53,
      "hit": false,
      "t": 202222.20200000048,
      "d": 555.5555000000168,
      "v": 100
    },
    {
      "midi": 57,
      "hit": false,
      "t": 202222.20200000048,
      "d": 555.5555000000168,
      "v": 100
    },
    {
      "midi": 60,
      "hit": false,
      "t": 202222.20200000048,
      "d": 555.5555000000168,
      "v": 100
    },
    {
      "midi": 48,
      "hit": false,
      "t": 202777.7575000005,
      "d": 624.9999374999898,
      "v": 100
    },
    {
      "midi": 53,
      "hit": false,
      "t": 203333.3130000005,
      "d": 555.5554999999877,
      "v": 100
    },
    {
      "midi": 57,
      "hit": false,
      "t": 203333.3130000005,
      "d": 601.851791666646,
      "v": 100
    },
    {
      "midi": 60,
      "hit": false,
      "t": 203333.3130000005,
      "d": 601.851791666646,
      "v": 100
    },
    {
      "midi": 48,
      "hit": false,
      "t": 203888.86850000048,
      "d": 601.851791666646,
      "v": 100
    },
    {
      "midi": 53,
      "hit": false,
      "t": 204444.42400000046,
      "d": 92.59258333331672,
      "v": 100
    },
    {
      "midi": 57,
      "hit": false,
      "t": 204444.42400000046,
      "d": 393.51847916663974,
      "v": 100
    },
    {
      "midi": 60,
      "hit": false,
      "t": 204444.42400000046,
      "d": 462.96291666664183,
      "v": 100
    },
    {
      "midi": 41,
      "hit": false,
      "t": 204444.42400000046,
      "d": 1666.666499999963,
      "v": 100
    },
    {
      "midi": 53,
      "hit": false,
      "t": 204999.97950000045,
      "d": 509.2592083333293,
      "v": 100
    },
    {
      "midi": 69,
      "hit": false,
      "t": 205312.47946875,
      "d": 266.2036770833365,
      "v": 104
    },
    {
      "midi": 72,
      "hit": false,
      "t": 205555.535,
      "d": 613.4258645833179,
      "v": 127
    },
    {
      "midi": 57,
      "hit": false,
      "t": 205555.53500000044,
      "d": 578.7036458333314,
      "v": 100
    },
    {
      "midi": 60,
      "hit": false,
      "t": 205555.53500000044,
      "d": 601.8517916666751,
      "v": 100
    },
    {
      "midi": 53,
      "hit": false,
      "t": 206111.09050000043,
      "d": 555.5555000000168,
      "v": 100
    },
    {
      "midi": 69,
      "hit": false,
      "t": 206134.23864583333,
      "d": 243.05553124999278,
      "v": 98
    },
    {
      "midi": 72,
      "hit": false,
      "t": 206400.44232291667,
      "d": 1319.4443125000107,
      "v": 127
    },
    {
      "midi": 57,
      "hit": false,
      "t": 206666.64600000044,
      "d": 601.851791666646,
      "v": 100
    },
    {
      "midi": 60,
      "hit": false,
      "t": 206666.64600000044,
      "d": 624.9999374999898,
      "v": 100
    },
    {
      "midi": 40,
      "hit": false,
      "t": 206666.64600000044,
      "d": 1689.8146458333358,
      "v": 100
    },
    {
      "midi": 52,
      "hit": false,
      "t": 207222.20150000043,
      "d": 578.7036458333314,
      "v": 100
    },
    {
      "midi": 76,
      "hit": false,
      "t": 207743.03478125003,
      "d": 347.2221875000105,
      "v": 112
    },
    {
      "midi": 57,
      "hit": false,
      "t": 207777.75700000042,
      "d": 555.5555000000168,
      "v": 100
    },
    {
      "midi": 60,
      "hit": false,
      "t": 207777.75700000042,
      "d": 578.7036458333605,
      "v": 100
    },
    {
      "midi": 76,
      "hit": false,
      "t": 208333.31250000003,
      "d": 1076.3887812499888,
      "v": 114
    },
    {
      "midi": 52,
      "hit": false,
      "t": 208333.31250000044,
      "d": 578.7036458333605,
      "v": 100
    },
    {
      "midi": 53,
      "hit": false,
      "t": 208888.86800000045,
      "d": 578.7036458333605,
      "v": 100
    },
    {
      "midi": 57,
      "hit": false,
      "t": 208888.86800000045,
      "d": 578.7036458333605,
      "v": 100
    },
    {
      "midi": 60,
      "hit": false,
      "t": 208888.86800000045,
      "d": 578.7036458333605,
      "v": 100
    },
    {
      "midi": 38,
      "hit": false,
      "t": 208888.86800000045,
      "d": 1620.3702083333628,
      "v": 100
    },
    {
      "midi": 50,
      "hit": false,
      "t": 209444.42350000047,
      "d": 578.7036458333605,
      "v": 100
    },
    {
      "midi": 74,
      "hit": false,
      "t": 209455.99757291668,
      "d": 3321.7589270833414,
      "v": 110
    },
    {
      "midi": 53,
      "hit": false,
      "t": 209999.9790000005,
      "d": 532.407354166673,
      "v": 100
    },
    {
      "midi": 57,
      "hit": false,
      "t": 209999.9790000005,
      "d": 578.7036458333605,
      "v": 100
    },
    {
      "midi": 60,
      "hit": false,
      "t": 209999.9790000005,
      "d": 601.8517916667042,
      "v": 100
    },
    {
      "midi": 50,
      "hit": false,
      "t": 210555.5345000005,
      "d": 555.5555000000168,
      "v": 100
    },
    {
      "midi": 53,
      "hit": false,
      "t": 211111.09000000052,
      "d": 601.851791666646,
      "v": 100
    },
    {
      "midi": 57,
      "hit": false,
      "t": 211111.09000000052,
      "d": 601.851791666646,
      "v": 100
    },
    {
      "midi": 60,
      "hit": false,
      "t": 211111.09000000052,
      "d": 601.851791666646,
      "v": 100
    },
    {
      "midi": 36,
      "hit": false,
      "t": 211111.09000000052,
      "d": 1712.9627916666795,
      "v": 100
    },
    {
      "midi": 48,
      "hit": false,
      "t": 211666.6455000005,
      "d": 578.7036458333314,
      "v": 100
    },
    {
      "midi": 53,
      "hit": false,
      "t": 212222.2010000005,
      "d": 578.7036458333605,
      "v": 100
    },
    {
      "midi": 57,
      "hit": false,
      "t": 212222.2010000005,
      "d": 578.7036458333605,
      "v": 100
    },
    {
      "midi": 60,
      "hit": false,
      "t": 212222.2010000005,
      "d": 601.8517916667042,
      "v": 100
    },
    {
      "midi": 48,
      "hit": false,
      "t": 212777.7565000005,
      "d": 555.5555000000168,
      "v": 100
    },
    {
      "midi": 59,
      "hit": false,
      "t": 213333.31200000053,
      "d": 555.5554999999877,
      "v": 100
    },
    {
      "midi": 62,
      "hit": false,
      "t": 213333.31200000053,
      "d": 555.5554999999877,
      "v": 100
    },
    {
      "midi": 43,
      "hit": false,
      "t": 213333.31200000053,
      "d": 3981.4810833332594,
      "v": 100
    },
    {
      "midi": 71,
      "hit": false,
      "t": 213391.18236458336,
      "d": 277.7777500000084,
      "v": 122
    },
    {
      "midi": 71,
      "hit": false,
      "t": 213888.86750000005,
      "d": 1446.759114583343,
      "v": 125
    },
    {
      "midi": 55,
      "hit": false,
      "t": 213888.86750000052,
      "d": 555.5554999999877,
      "v": 100
    },
    {
      "midi": 59,
      "hit": false,
      "t": 214444.4230000005,
      "d": 555.5554999999877,
      "v": 100
    },
    {
      "midi": 62,
      "hit": false,
      "t": 214444.4230000005,
      "d": 624.9999374999898,
      "v": 100
    },
    {
      "midi": 55,
      "hit": false,
      "t": 214999.9785000005,
      "d": 578.7036458333314,
      "v": 100
    },
    {
      "midi": 62,
      "hit": false,
      "t": 215555.53400000048,
      "d": 578.7036458333605,
      "v": 100
    },
    {
      "midi": 59,
      "hit": false,
      "t": 215555.53400000048,
      "d": 624.9999375000189,
      "v": 100
    },
    {
      "midi": 71,
      "hit": false,
      "t": 215590.25621875006,
      "d": 1122.6850729166763,
      "v": 125
    },
    {
      "midi": 55,
      "hit": false,
      "t": 216111.0895000005,
      "d": 601.851791666646,
      "v": 100
    },
    {
      "midi": 72,
      "hit": false,
      "t": 216655.0709270834,
      "d": 578.7036458333314,
      "v": 104
    },
    {
      "midi": 64,
      "hit": false,
      "t": 216666.64500000048,
      "d": 462.96291666664183,
      "v": 100
    },
    {
      "midi": 60,
      "hit": false,
      "t": 216666.64500000048,
      "d": 509.2592083333002,
      "v": 100
    },
    {
      "midi": 55,
      "hit": false,
      "t": 217222.20050000044,
      "d": 138.8888750000042,
      "v": 100
    },
    {
      "midi": 74,
      "hit": false,
      "t": 217233.77457291674,
      "d": 2766.2034270833246,
      "v": 117
    },
    {
      "midi": 55,
      "hit": false,
      "t": 217777.75600000046,
      "d": 277.7777500000084,
      "v": 100
    },
    {
      "midi": 62,
      "hit": false,
      "t": 217777.75600000046,
      "d": 300.9258958333521,
      "v": 100
    },
    {
      "midi": 65,
      "hit": false,
      "t": 217777.75600000046,
      "d": 347.2221875000105,
      "v": 100
    },
    {
      "midi": 50,
      "hit": false,
      "t": 217777.75600000046,
      "d": 2083.3331250000047,
      "v": 100
    },
    {
      "midi": 43,
      "hit": false,
      "t": 217777.75600000046,
      "d": 2175.9257083333505,
      "v": 100
    },
    {
      "midi": 76,
      "hit": false,
      "t": 220115.71872916672,
      "d": 462.96291666667094,
      "v": 110
    },
    {
      "midi": 79,
      "hit": false,
      "t": 220578.6816458334,
      "d": 1064.814708333346,
      "v": 102
    },
    {
      "midi": 76,
      "hit": false,
      "t": 221689.7926458334,
      "d": 254.62960416666465,
      "v": 79
    },
    {
      "midi": 74,
      "hit": false,
      "t": 221932.8481770834,
      "d": 335.6481145833386,
      "v": 87
    },
    {
      "midi": 53,
      "hit": false,
      "t": 222222.20000000048,
      "d": 254.62960416666465,
      "v": 100
    },
    {
      "midi": 57,
      "hit": false,
      "t": 222222.20000000048,
      "d": 254.62960416666465,
      "v": 100
    },
    {
      "midi": 60,
      "hit": false,
      "t": 222222.20000000048,
      "d": 254.62960416666465,
      "v": 100
    },
    {
      "midi": 41,
      "hit": false,
      "t": 222222.20000000048,
      "d": 324.07404166666674,
      "v": 100
    },
    {
      "midi": 53,
      "hit": false,
      "t": 222777.75550000046,
      "d": 231.48145833332092,
      "v": 100
    },
    {
      "midi": 57,
      "hit": false,
      "t": 223333.31100000045,
      "d": 231.48145833332092,
      "v": 100
    },
    {
      "midi": 60,
      "hit": false,
      "t": 223333.31100000045,
      "d": 254.62960416666465,
      "v": 100
    },
    {
      "midi": 69,
      "hit": false,
      "t": 223692.10726041673,
      "d": 219.90738541667815,
      "v": 87
    },
    {
      "midi": 53,
      "hit": false,
      "t": 223888.86650000044,
      "d": 162.03702083331882,
      "v": 100
    },
    {
      "midi": 72,
      "hit": false,
      "t": 223912.0146458334,
      "d": 300.925895833323,
      "v": 97
    },
    {
      "midi": 62,
      "hit": false,
      "t": 224444.42200000043,
      "d": 254.62960416666465,
      "v": 100
    },
    {
      "midi": 59,
      "hit": false,
      "t": 224444.42200000043,
      "d": 347.2221875000105,
      "v": 100
    },
    {
      "midi": 43,
      "hit": false,
      "t": 224444.42200000043,
      "d": 370.3703333333542,
      "v": 100
    },
    {
      "midi": 55,
      "hit": false,
      "t": 224444.42200000043,
      "d": 370.3703333333542,
      "v": 100
    },
    {
      "midi": 71,
      "hit": false,
      "t": 224490.71829166674,
      "d": 1643.5183541666775,
      "v": 110
    },
    {
      "midi": 55,
      "hit": false,
      "t": 224999.97750000044,
      "d": 208.3333125000063,
      "v": 100
    },
    {
      "midi": 59,
      "hit": false,
      "t": 225555.53300000046,
      "d": 231.48145833332092,
      "v": 100
    },
    {
      "midi": 62,
      "hit": false,
      "t": 225555.53300000046,
      "d": 231.48145833332092,
      "v": 100
    },
    {
      "midi": 55,
      "hit": false,
      "t": 226111.08850000045,
      "d": 115.74072916666046,
      "v": 100
    },
    {
      "midi": 69,
      "hit": false,
      "t": 226168.9588645834,
      "d": 196.75923958333442,
      "v": 100
    },
    {
      "midi": 71,
      "hit": false,
      "t": 226423.58846875007,
      "d": 277.7777500000084,
      "v": 102
    },
    {
      "midi": 55,
      "hit": false,
      "t": 226666.64400000044,
      "d": 462.96291666667094,
      "v": 100
    },
    {
      "midi": 52,
      "hit": false,
      "t": 226666.64400000044,
      "d": 532.407354166673,
      "v": 100
    },
    {
      "midi": 36,
      "hit": false,
      "t": 226666.64400000044,
      "d": 1319.4443125000107,
      "v": 100
    },
    {
      "midi": 43,
      "hit": false,
      "t": 226666.64400000044,
      "d": 1342.5924583333544,
      "v": 100
    },
    {
      "midi": 72,
      "hit": false,
      "t": 226701.36621875007,
      "d": 416.6666250000126,
      "v": 106
    },
    {
      "midi": 48,
      "hit": false,
      "t": 227222.19950000045,
      "d": 254.62960416666465,
      "v": 100
    },
    {
      "midi": 72,
      "hit": false,
      "t": 227256.9217187501,
      "d": 2407.4071666666714,
      "v": 106
    },
    {
      "midi": 55,
      "hit": false,
      "t": 227777.75500000044,
      "d": 208.3333125000063,
      "v": 100
    },
    {
      "midi": 59,
      "hit": false,
      "t": 227777.75500000044,
      "d": 231.48145833335002,
      "v": 100
    },
    {
      "midi": 48,
      "hit": false,
      "t": 228333.31050000046,
      "d": 138.8888750000042,
      "v": 100
    },
    {
      "midi": 60,
      "hit": false,
      "t": 228333.31050000046,
      "d": 138.8888750000042,
      "v": 100
    },
    {
      "midi": 64,
      "hit": false,
      "t": 228888.86600000047,
      "d": 532.407354166673,
      "v": 100
    },
    {
      "midi": 56,
      "hit": false,
      "t": 228888.86600000047,
      "d": 578.7036458333605,
      "v": 100
    },
    {
      "midi": 40,
      "hit": false,
      "t": 228888.86600000047,
      "d": 1296.296166666696,
      "v": 100
    },
    {
      "midi": 47,
      "hit": false,
      "t": 228888.86600000047,
      "d": 1342.5924583333835,
      "v": 100
    },
    {
      "midi": 52,
      "hit": false,
      "t": 229444.4215000005,
      "d": 208.3333125000063,
      "v": 100
    },
    {
      "midi": 56,
      "hit": false,
      "t": 229999.9770000005,
      "d": 208.3333125000063,
      "v": 100
    },
    {
      "midi": 62,
      "hit": false,
      "t": 229999.9770000005,
      "d": 277.7777500000084,
      "v": 100
    },
    {
      "midi": 52,
      "hit": false,
      "t": 230555.53250000053,
      "d": 138.8888750000042,
      "v": 100
    },
    {
      "midi": 60,
      "hit": false,
      "t": 231111.08800000054,
      "d": 254.62960416666465,
      "v": 100
    },
    {
      "midi": 53,
      "hit": false,
      "t": 231111.08800000054,
      "d": 300.9258958333521,
      "v": 100
    },
    {
      "midi": 57,
      "hit": false,
      "t": 231111.08800000054,
      "d": 300.9258958333521,
      "v": 100
    },
    {
      "midi": 41,
      "hit": false,
      "t": 231111.08800000054,
      "d": 324.07404166669585,
      "v": 100
    },
    {
      "midi": 53,
      "hit": false,
      "t": 231666.64350000056,
      "d": 254.62960416666465,
      "v": 100
    },
    {
      "midi": 60,
      "hit": false,
      "t": 232222.19900000055,
      "d": 185.18516666666255,
      "v": 100
    },
    {
      "midi": 57,
      "hit": false,
      "t": 232222.19900000055,
      "d": 231.48145833332092,
      "v": 100
    },
    {
      "midi": 69,
      "hit": false,
      "t": 232557.84711458342,
      "d": 173.6110937499907,
      "v": 108
    },
    {
      "midi": 72,
      "hit": false,
      "t": 232777.75450000007,
      "d": 567.1295729166595,
      "v": 110
    },
    {
      "midi": 53,
      "hit": false,
      "t": 232777.75450000053,
      "d": 138.8888750000042,
      "v": 100
    },
    {
      "midi": 71,
      "hit": false,
      "t": 233310.16185416674,
      "d": 381.944406249997,
      "v": 110
    },
    {
      "midi": 62,
      "hit": false,
      "t": 233333.31000000055,
      "d": 208.3333125000063,
      "v": 100
    },
    {
      "midi": 59,
      "hit": false,
      "t": 233333.31000000055,
      "d": 277.7777500000084,
      "v": 100
    },
    {
      "midi": 55,
      "hit": false,
      "t": 233333.31000000055,
      "d": 324.07404166666674,
      "v": 100
    },
    {
      "midi": 43,
      "hit": false,
      "t": 233333.31000000055,
      "d": 347.2221875000105,
      "v": 100
    },
    {
      "midi": 71,
      "hit": false,
      "t": 233888.86550000007,
      "d": 312.4999687499949,
      "v": 100
    },
    {
      "midi": 55,
      "hit": false,
      "t": 233888.86550000057,
      "d": 231.48145833332092,
      "v": 100
    },
    {
      "midi": 69,
      "hit": false,
      "t": 234212.93954166674,
      "d": 347.2221875000105,
      "v": 112
    },
    {
      "midi": 59,
      "hit": false,
      "t": 234444.42100000056,
      "d": 208.3333125000063,
      "v": 100
    },
    {
      "midi": 62,
      "hit": false,
      "t": 234444.42100000056,
      "d": 208.3333125000063,
      "v": 100
    },
    {
      "midi": 69,
      "hit": false,
      "t": 234710.62467708343,
      "d": 335.6481145833386,
      "v": 85
    },
    {
      "midi": 67,
      "hit": false,
      "t": 234999.9765000001,
      "d": 2673.610843749979,
      "v": 112
    },
    {
      "midi": 55,
      "hit": false,
      "t": 234999.97650000057,
      "d": 138.8888750000042,
      "v": 100
    },
    {
      "midi": 55,
      "hit": false,
      "t": 235555.5320000006,
      "d": 300.9258958333521,
      "v": 100
    },
    {
      "midi": 52,
      "hit": false,
      "t": 235555.5320000006,
      "d": 347.2221875000105,
      "v": 100
    },
    {
      "midi": 36,
      "hit": false,
      "t": 235555.5320000006,
      "d": 694.444375000021,
      "v": 100
    },
    {
      "midi": 43,
      "hit": false,
      "t": 235555.5320000006,
      "d": 740.7406666666793,
      "v": 100
    },
    {
      "midi": 48,
      "hit": false,
      "t": 236111.0875000006,
      "d": 208.3333125000063,
      "v": 100
    },
    {
      "midi": 55,
      "hit": false,
      "t": 236666.64300000062,
      "d": 208.3333125000063,
      "v": 100
    },
    {
      "midi": 59,
      "hit": false,
      "t": 236666.64300000062,
      "d": 208.3333125000063,
      "v": 100
    },
    {
      "midi": 48,
      "hit": false,
      "t": 237222.19850000064,
      "d": 162.03702083331882,
      "v": 100
    },
    {
      "midi": 60,
      "hit": false,
      "t": 237222.19850000064,
      "d": 162.03702083331882,
      "v": 100
    },
    {
      "midi": 64,
      "hit": false,
      "t": 237777.75400000063,
      "d": 300.9258958333521,
      "v": 100
    },
    {
      "midi": 56,
      "hit": false,
      "t": 237777.75400000063,
      "d": 370.3703333333542,
      "v": 100
    },
    {
      "midi": 40,
      "hit": false,
      "t": 237777.75400000063,
      "d": 787.0369583333377,
      "v": 100
    },
    {
      "midi": 47,
      "hit": false,
      "t": 237777.75400000063,
      "d": 856.4813958333398,
      "v": 100
    },
    {
      "midi": 52,
      "hit": false,
      "t": 238333.30950000064,
      "d": 277.7777499999793,
      "v": 100
    },
    {
      "midi": 56,
      "hit": false,
      "t": 238888.86500000063,
      "d": 208.3333125000063,
      "v": 100
    },
    {
      "midi": 62,
      "hit": false,
      "t": 238888.86500000063,
      "d": 231.48145833335002,
      "v": 100
    },
    {
      "midi": 52,
      "hit": false,
      "t": 239444.42050000065,
      "d": 185.18516666666255,
      "v": 100
    },
    {
      "midi": 60,
      "hit": false,
      "t": 239999.97600000064,
      "d": 277.7777500000084,
      "v": 100
    },
    {
      "midi": 53,
      "hit": false,
      "t": 239999.97600000064,
      "d": 300.9258958333521,
      "v": 100
    },
    {
      "midi": 57,
      "hit": false,
      "t": 239999.97600000064,
      "d": 300.9258958333521,
      "v": 100
    },
    {
      "midi": 41,
      "hit": false,
      "t": 239999.97600000064,
      "d": 393.51847916669794,
      "v": 100
    },
    {
      "midi": 53,
      "hit": false,
      "t": 240555.53150000065,
      "d": 254.62960416666465,
      "v": 100
    },
    {
      "midi": 69,
      "hit": false,
      "t": 240567.10557291674,
      "d": 127.31480208333232,
      "v": 122
    },
    {
      "midi": 69,
      "hit": false,
      "t": 240856.4573958334,
      "d": 474.5369895833428,
      "v": 127
    },
    {
      "midi": 57,
      "hit": false,
      "t": 241111.08700000064,
      "d": 231.48145833332092,
      "v": 100
    },
    {
      "midi": 60,
      "hit": false,
      "t": 241111.08700000064,
      "d": 231.48145833332092,
      "v": 100
    },
    {
      "midi": 72,
      "hit": false,
      "t": 241330.99438541674,
      "d": 567.1295729166886,
      "v": 102
    },
    {
      "midi": 53,
      "hit": false,
      "t": 241666.64250000063,
      "d": 162.03702083331882,
      "v": 100
    },
    {
      "midi": 71,
      "hit": false,
      "t": 241874.97581250008,
      "d": 1967.5923958333442,
      "v": 104
    },
    {
      "midi": 62,
      "hit": false,
      "t": 242222.19800000062,
      "d": 231.48145833332092,
      "v": 100
    },
    {
      "midi": 59,
      "hit": false,
      "t": 242222.19800000062,
      "d": 347.2221874999814,
      "v": 100
    },
    {
      "midi": 43,
      "hit": false,
      "t": 242222.19800000062,
      "d": 370.3703333333251,
      "v": 100
    },
    {
      "midi": 55,
      "hit": false,
      "t": 242222.19800000062,
      "d": 370.3703333333251,
      "v": 100
    },
    {
      "midi": 55,
      "hit": false,
      "t": 242777.7535000006,
      "d": 254.62960416666465,
      "v": 100
    },
    {
      "midi": 62,
      "hit": false,
      "t": 243333.3090000006,
      "d": 208.3333125000063,
      "v": 100
    },
    {
      "midi": 59,
      "hit": false,
      "t": 243333.3090000006,
      "d": 231.48145833335002,
      "v": 100
    },
    {
      "midi": 55,
      "hit": false,
      "t": 243888.8645000006,
      "d": 162.03702083331882,
      "v": 100
    },
    {
      "midi": 69,
      "hit": false,
      "t": 243912.01264583343,
      "d": 173.6110937499907,
      "v": 100
    },
    {
      "midi": 71,
      "hit": false,
      "t": 244201.36446875008,
      "d": 127.31480208333232,
      "v": 88
    },
    {
      "midi": 55,
      "hit": false,
      "t": 244444.4200000006,
      "d": 254.62960416666465,
      "v": 100
    },
    {
      "midi": 52,
      "hit": false,
      "t": 244444.4200000006,
      "d": 277.7777500000084,
      "v": 100
    },
    {
      "midi": 36,
      "hit": false,
      "t": 244444.4200000006,
      "d": 393.51847916666884,
      "v": 100
    },
    {
      "midi": 43,
      "hit": false,
      "t": 244444.4200000006,
      "d": 393.51847916666884,
      "v": 100
    },
    {
      "midi": 72,
      "hit": false,
      "t": 244455.99407291674,
      "d": 451.38884374999907,
      "v": 108
    },
    {
      "midi": 48,
      "hit": false,
      "t": 244999.97550000058,
      "d": 185.18516666666255,
      "v": 100
    },
    {
      "midi": 72,
      "hit": false,
      "t": 245034.69771875007,
      "d": 324.07404166666674,
      "v": 102
    },
    {
      "midi": 69,
      "hit": false,
      "t": 245324.04954166675,
      "d": 358.79626041665324,
      "v": 80
    },
    {
      "midi": 59,
      "hit": false,
      "t": 245555.53100000057,
      "d": 208.3333125000063,
      "v": 100
    },
    {
      "midi": 55,
      "hit": false,
      "t": 245555.53100000057,
      "d": 231.48145833335002,
      "v": 100
    },
    {
      "midi": 67,
      "hit": false,
      "t": 245624.97543750008,
      "d": 2627.3145520833205,
      "v": 114
    },
    {
      "midi": 48,
      "hit": false,
      "t": 246111.0865000006,
      "d": 138.8888750000042,
      "v": 100
    },
    {
      "midi": 60,
      "hit": false,
      "t": 246111.0865000006,
      "d": 208.3333125000063,
      "v": 100
    },
    {
      "midi": 64,
      "hit": false,
      "t": 246666.6420000006,
      "d": 300.9258958333521,
      "v": 100
    },
    {
      "midi": 56,
      "hit": false,
      "t": 246666.6420000006,
      "d": 416.6666250000126,
      "v": 100
    },
    {
      "midi": 40,
      "hit": false,
      "t": 246666.6420000006,
      "d": 439.8147708333563,
      "v": 100
    },
    {
      "midi": 47,
      "hit": false,
      "t": 246666.6420000006,
      "d": 439.8147708333563,
      "v": 100
    },
    {
      "midi": 52,
      "hit": false,
      "t": 247222.19750000062,
      "d": 231.48145833332092,
      "v": 100
    },
    {
      "midi": 62,
      "hit": false,
      "t": 247777.7530000006,
      "d": 208.3333125000063,
      "v": 100
    },
    {
      "midi": 56,
      "hit": false,
      "t": 247777.7530000006,
      "d": 277.7777500000084,
      "v": 100
    },
    {
      "midi": 52,
      "hit": false,
      "t": 248333.30850000062,
      "d": 208.3333125000063,
      "v": 100
    },
    {
      "midi": 60,
      "hit": false,
      "t": 248888.86400000064,
      "d": 277.7777500000084,
      "v": 100
    },
    {
      "midi": 41,
      "hit": false,
      "t": 248888.86400000064,
      "d": 300.9258958333521,
      "v": 100
    },
    {
      "midi": 57,
      "hit": false,
      "t": 248888.86400000064,
      "d": 324.07404166669585,
      "v": 100
    },
    {
      "midi": 48,
      "hit": false,
      "t": 248888.86400000064,
      "d": 393.51847916669794,
      "v": 100
    },
    {
      "midi": 53,
      "hit": false,
      "t": 249444.41950000066,
      "d": 254.62960416666465,
      "v": 100
    },
    {
      "midi": 60,
      "hit": false,
      "t": 249999.97500000065,
      "d": 208.3333125000063,
      "v": 100
    },
    {
      "midi": 57,
      "hit": false,
      "t": 249999.97500000065,
      "d": 231.48145833335002,
      "v": 100
    },
    {
      "midi": 71,
      "hit": false,
      "t": 250300.9008958334,
      "d": 196.75923958333442,
      "v": 106
    },
    {
      "midi": 72,
      "hit": false,
      "t": 250474.51198958338,
      "d": 636.5740104166907,
      "v": 112
    },
    {
      "midi": 53,
      "hit": false,
      "t": 250555.53050000066,
      "d": 185.18516666666255,
      "v": 100
    },
    {
      "midi": 74,
      "hit": false,
      "t": 251087.93785416672,
      "d": 810.1851041666814,
      "v": 117
    },
    {
      "midi": 62,
      "hit": false,
      "t": 251111.08600000065,
      "d": 231.48145833332092,
      "v": 100
    },
    {
      "midi": 59,
      "hit": false,
      "t": 251111.08600000065,
      "d": 324.07404166663764,
      "v": 100
    },
    {
      "midi": 43,
      "hit": false,
      "t": 251111.08600000065,
      "d": 347.2221874999814,
      "v": 100
    },
    {
      "midi": 50,
      "hit": false,
      "t": 251111.08600000065,
      "d": 347.2221874999814,
      "v": 100
    },
    {
      "midi": 55,
      "hit": false,
      "t": 251666.64150000064,
      "d": 185.18516666666255,
      "v": 100
    },
    {
      "midi": 76,
      "hit": false,
      "t": 251932.8451770834,
      "d": 185.18516666666255,
      "v": 86
    },
    {
      "midi": 74,
      "hit": false,
      "t": 252118.03034375006,
      "d": 150.46294791667606,
      "v": 108
    },
    {
      "midi": 59,
      "hit": false,
      "t": 252222.19700000063,
      "d": 185.18516666666255,
      "v": 100
    },
    {
      "midi": 62,
      "hit": false,
      "t": 252222.19700000063,
      "d": 208.3333125000063,
      "v": 100
    },
    {
      "midi": 72,
      "hit": false,
      "t": 252256.91921875006,
      "d": 729.1665937500075,
      "v": 102
    },
    {
      "midi": 55,
      "hit": false,
      "t": 252777.75250000064,
      "d": 138.8888750000042,
      "v": 100
    },
    {
      "midi": 74,
      "hit": false,
      "t": 252986.08581250007,
      "d": 196.75923958333442,
      "v": 91
    },
    {
      "midi": 76,
      "hit": false,
      "t": 253287.0117083334,
      "d": 416.6666250000126,
      "v": 100
    },
    {
      "midi": 52,
      "hit": false,
      "t": 253333.30800000066,
      "d": 4305.5551250000135,
      "v": 100
    },
    {
      "midi": 55,
      "hit": false,
      "t": 253333.30800000066,
      "d": 4305.5551250000135,
      "v": 100
    },
    {
      "midi": 36,
      "hit": false,
      "t": 253333.30800000066,
      "d": 4398.147708333359,
      "v": 100
    },
    {
      "midi": 43,
      "hit": false,
      "t": 253333.30800000066,
      "d": 4398.147708333359,
      "v": 100
    },
    {
      "midi": 72,
      "hit": false,
      "t": 253703.6783333334,
      "d": 185.18516666666255,
      "v": 90
    },
    {
      "midi": 72,
      "hit": false,
      "t": 254097.19681250007,
      "d": 3171.2959791666653,
      "v": 108
    }
  ]
}