{
  "jsonPath": "Soundtracks/Video Game Music/Comix Zone/comix-zone-curseofthedeadships.json",
  "path": "Soundtracks\\Video Game Music\\Comix Zone\\Comix_Zone_CurseoftheDeadShips.mid",
  "name": "Comix_Zone_CurseoftheDeadShips",
  "difficulty": "Advanced",
  "bpm": 157.00024858372691,
  "notes": [
    {
      "midi": 76,
      "hit": false,
      "t": 191.08249999999998,
      "d": 1146.495,
      "v": 127
    },
    {
      "midi": 64,
      "hit": false,
      "t": 191.08249999999998,
      "d": 191.08249999999998,
      "v": 127
    },
    {
      "midi": 57,
      "hit": false,
      "t": 191.08249999999998,
      "d": 191.08249999999998,
      "v": 127
    },
    {
      "midi": 69,
      "hit": false,
      "t": 191.08249999999998,
      "d": 191.08249999999998,
      "v": 127
    },
    {
      "midi": 64,
      "hit": false,
      "t": 382.16499999999996,
      "d": 191.08249999999998,
      "v": 127
    },
    {
      "midi": 57,
      "hit": false,
      "t": 382.16499999999996,
      "d": 191.08249999999998,
      "v": 127
    },
    {
      "midi": 69,
      "hit": false,
      "t": 382.16499999999996,
      "d": 191.08249999999998,
      "v": 127
    },
    {
      "midi": 64,
      "hit": false,
      "t": 573.2475,
      "d": 382.16499999999996,
      "v": 127
    },
    {
      "midi": 57,
      "hit": false,
      "t": 573.2475,
      "d": 382.16499999999996,
      "v": 127
    },
    {
      "midi": 69,
      "hit": false,
      "t": 573.2475,
      "d": 382.16499999999996,
      "v": 127
    },
    {
      "midi": 64,
      "hit": false,
      "t": 955.4124999999999,
      "d": 191.08249999999998,
      "v": 127
    },
    {
      "midi": 57,
      "hit": false,
      "t": 955.4124999999999,
      "d": 191.08249999999998,
      "v": 127
    },
    {
      "midi": 69,
      "hit": false,
      "t": 955.4124999999999,
      "d": 191.08249999999998,
      "v": 127
    },
    {
      "midi": 64,
      "hit": false,
      "t": 1146.495,
      "d": 191.08249999999998,
      "v": 127
    },
    {
      "midi": 57,
      "hit": false,
      "t": 1146.495,
      "d": 191.08249999999998,
      "v": 127
    },
    {
      "midi": 69,
      "hit": false,
      "t": 1146.495,
      "d": 191.08249999999998,
      "v": 127
    },
    {
      "midi": 73,
      "hit": false,
      "t": 1337.5774999999999,
      "d": 191.08249999999998,
      "v": 127
    },
    {
      "midi": 64,
      "hit": false,
      "t": 1337.5774999999999,
      "d": 191.08249999999998,
      "v": 127
    },
    {
      "midi": 57,
      "hit": false,
      "t": 1337.5774999999999,
      "d": 191.08249999999998,
      "v": 127
    },
    {
      "midi": 69,
      "hit": false,
      "t": 1337.5774999999999,
      "d": 191.08249999999998,
      "v": 127
    },
    {
      "midi": 76,
      "hit": false,
      "t": 1528.6599999999999,
      "d": 1337.5774999999999,
      "v": 127
    },
    {
      "midi": 64,
      "hit": false,
      "t": 1528.6599999999999,
      "d": 191.08249999999998,
      "v": 127
    },
    {
      "midi": 57,
      "hit": false,
      "t": 1528.6599999999999,
      "d": 191.08249999999998,
      "v": 127
    },
    {
      "midi": 69,
      "hit": false,
      "t": 1528.6599999999999,
      "d": 191.08249999999998,
      "v": 127
    },
    {
      "midi": 61,
      "hit": false,
      "t": 1719.7424999999998,
      "d": 191.08249999999998,
      "v": 127
    },
    {
      "midi": 54,
      "hit": false,
      "t": 1719.7424999999998,
      "d": 191.08249999999998,
      "v": 127
    },
    {
      "midi": 66,
      "hit": false,
      "t": 1719.7424999999998,
      "d": 191.08249999999998,
      "v": 127
    },
    {
      "midi": 61,
      "hit": false,
      "t": 1910.8249999999998,
      "d": 191.08249999999998,
      "v": 127
    },
    {
      "midi": 54,
      "hit": false,
      "t": 1910.8249999999998,
      "d": 191.08249999999998,
      "v": 127
    },
    {
      "midi": 66,
      "hit": false,
      "t": 1910.8249999999998,
      "d": 191.08249999999998,
      "v": 127
    },
    {
      "midi": 61,
      "hit": false,
      "t": 2101.9075,
      "d": 191.08249999999998,
      "v": 127
    },
    {
      "midi": 54,
      "hit": false,
      "t": 2101.9075,
      "d": 191.08249999999998,
      "v": 127
    },
    {
      "midi": 66,
      "hit": false,
      "t": 2101.9075,
      "d": 191.08249999999998,
      "v": 127
    },
    {
      "midi": 61,
      "hit": false,
      "t": 2292.99,
      "d": 191.08249999999998,
      "v": 127
    },
    {
      "midi": 54,
      "hit": false,
      "t": 2292.99,
      "d": 191.08249999999998,
      "v": 127
    },
    {
      "midi": 66,
      "hit": false,
      "t": 2292.99,
      "d": 191.08249999999998,
      "v": 127
    },
    {
      "midi": 61,
      "hit": false,
      "t": 2484.0724999999998,
      "d": 382.16499999999996,
      "v": 127
    },
    {
      "midi": 54,
      "hit": false,
      "t": 2484.0724999999998,
      "d": 382.16499999999996,
      "v": 127
    },
    {
      "midi": 66,
      "hit": false,
      "t": 2484.0724999999998,
      "d": 382.16499999999996,
      "v": 127
    },
    {
      "midi": 78,
      "hit": false,
      "t": 2866.2374999999997,
      "d": 191.08249999999998,
      "v": 127
    },
    {
      "midi": 54,
      "hit": false,
      "t": 2866.2374999999997,
      "d": 191.08249999999998,
      "v": 127
    },
    {
      "midi": 66,
      "hit": false,
      "t": 2866.2374999999997,
      "d": 191.08249999999998,
      "v": 127
    },
    {
      "midi": 61,
      "hit": false,
      "t": 2866.2374999999997,
      "d": 382.16499999999996,
      "v": 127
    },
    {
      "midi": 76,
      "hit": false,
      "t": 3057.3199999999997,
      "d": 1337.5774999999994,
      "v": 127
    },
    {
      "midi": 54,
      "hit": false,
      "t": 3057.3199999999997,
      "d": 191.08249999999998,
      "v": 127
    },
    {
      "midi": 66,
      "hit": false,
      "t": 3057.3199999999997,
      "d": 191.08249999999998,
      "v": 127
    },
    {
      "midi": 57,
      "hit": false,
      "t": 3248.4024999999997,
      "d": 191.08249999999998,
      "v": 127
    },
    {
      "midi": 45,
      "hit": false,
      "t": 3248.4024999999997,
      "d": 191.08249999999998,
      "v": 127
    },
    {
      "midi": 57,
      "hit": false,
      "t": 3439.4849999999997,
      "d": 191.08249999999998,
      "v": 127
    },
    {
      "midi": 52,
      "hit": false,
      "t": 3439.4849999999997,
      "d": 191.08249999999998,
      "v": 127
    },
    {
      "midi": 57,
      "hit": false,
      "t": 3630.5674999999997,
      "d": 191.08249999999998,
      "v": 127
    },
    {
      "midi": 52,
      "hit": false,
      "t": 3630.5674999999997,
      "d": 191.08249999999998,
      "v": 127
    },
    {
      "midi": 57,
      "hit": false,
      "t": 3821.6499999999996,
      "d": 191.08249999999998,
      "v": 127
    },
    {
      "midi": 45,
      "hit": false,
      "t": 3821.6499999999996,
      "d": 191.08249999999998,
      "v": 127
    },
    {
      "midi": 57,
      "hit": false,
      "t": 4012.7324999999996,
      "d": 191.08249999999998,
      "v": 127
    },
    {
      "midi": 52,
      "hit": false,
      "t": 4012.7324999999996,
      "d": 191.08249999999998,
      "v": 127
    },
    {
      "midi": 57,
      "hit": false,
      "t": 4203.815,
      "d": 191.08249999999953,
      "v": 127
    },
    {
      "midi": 52,
      "hit": false,
      "t": 4203.815,
      "d": 191.08249999999953,
      "v": 127
    },
    {
      "midi": 71,
      "hit": false,
      "t": 4394.897499999999,
      "d": 191.08250000000044,
      "v": 127
    },
    {
      "midi": 81,
      "hit": false,
      "t": 4394.897499999999,
      "d": 191.08250000000044,
      "v": 127
    },
    {
      "midi": 57,
      "hit": false,
      "t": 4394.897499999999,
      "d": 191.08250000000044,
      "v": 127
    },
    {
      "midi": 45,
      "hit": false,
      "t": 4394.897499999999,
      "d": 191.08250000000044,
      "v": 127
    },
    {
      "midi": 70,
      "hit": false,
      "t": 4585.98,
      "d": 1719.7425000000003,
      "v": 127
    },
    {
      "midi": 82,
      "hit": false,
      "t": 4585.98,
      "d": 1719.7425000000003,
      "v": 127
    },
    {
      "midi": 57,
      "hit": false,
      "t": 4585.98,
      "d": 191.08250000000044,
      "v": 127
    },
    {
      "midi": 52,
      "hit": false,
      "t": 4585.98,
      "d": 191.08250000000044,
      "v": 127
    },
    {
      "midi": 69,
      "hit": false,
      "t": 4585.98,
      "d": 191.08250000000044,
      "v": 127
    },
    {
      "midi": 54,
      "hit": false,
      "t": 4777.0625,
      "d": 191.08250000000044,
      "v": 127
    },
    {
      "midi": 42,
      "hit": false,
      "t": 4777.0625,
      "d": 191.08250000000044,
      "v": 127
    },
    {
      "midi": 54,
      "hit": false,
      "t": 4968.145,
      "d": 191.08250000000044,
      "v": 127
    },
    {
      "midi": 49,
      "hit": false,
      "t": 4968.145,
      "d": 191.08250000000044,
      "v": 127
    },
    {
      "midi": 54,
      "hit": false,
      "t": 5159.227500000001,
      "d": 191.08250000000044,
      "v": 127
    },
    {
      "midi": 49,
      "hit": false,
      "t": 5159.227500000001,
      "d": 191.08250000000044,
      "v": 127
    },
    {
      "midi": 54,
      "hit": false,
      "t": 5350.310000000001,
      "d": 191.08250000000044,
      "v": 127
    },
    {
      "midi": 49,
      "hit": false,
      "t": 5350.310000000001,
      "d": 382.1650000000009,
      "v": 127
    },
    {
      "midi": 54,
      "hit": false,
      "t": 5541.392500000002,
      "d": 191.08250000000044,
      "v": 127
    },
    {
      "midi": 49,
      "hit": false,
      "t": 5732.475000000002,
      "d": 191.08250000000044,
      "v": 127
    },
    {
      "midi": 54,
      "hit": false,
      "t": 5732.475000000002,
      "d": 191.08250000000044,
      "v": 127
    },
    {
      "midi": 49,
      "hit": false,
      "t": 5923.557500000003,
      "d": 191.08250000000044,
      "v": 127
    },
    {
      "midi": 54,
      "hit": false,
      "t": 5923.557500000003,
      "d": 191.08250000000044,
      "v": 127
    },
    {
      "midi": 49,
      "hit": false,
      "t": 6114.640000000003,
      "d": 191.08250000000044,
      "v": 127
    },
    {
      "midi": 54,
      "hit": false,
      "t": 6114.640000000003,
      "d": 191.08250000000044,
      "v": 127
    },
    {
      "midi": 83,
      "hit": false,
      "t": 6305.7225,
      "d": 382.16499999999996,
      "v": 127
    },
    {
      "midi": 71,
      "hit": false,
      "t": 6305.7225,
      "d": 573.2474999999995,
      "v": 127
    },
    {
      "midi": 52,
      "hit": false,
      "t": 6305.7225000000035,
      "d": 191.08250000000044,
      "v": 127
    },
    {
      "midi": 40,
      "hit": false,
      "t": 6305.7225000000035,
      "d": 382.1650000000009,
      "v": 127
    },
    {
      "midi": 52,
      "hit": false,
      "t": 6496.805000000004,
      "d": 191.08250000000044,
      "v": 127
    },
    {
      "midi": 82,
      "hit": false,
      "t": 6687.8875,
      "d": 764.329999999999,
      "v": 127
    },
    {
      "midi": 47,
      "hit": false,
      "t": 6687.887500000004,
      "d": 191.08250000000044,
      "v": 127
    },
    {
      "midi": 52,
      "hit": false,
      "t": 6687.887500000004,
      "d": 764.3299999999999,
      "v": 127
    },
    {
      "midi": 62,
      "hit": false,
      "t": 6878.970000000005,
      "d": 95.54125000000022,
      "v": 127
    },
    {
      "midi": 64,
      "hit": false,
      "t": 6974.511250000005,
      "d": 286.62374999999975,
      "v": 127
    },
    {
      "midi": 62,
      "hit": false,
      "t": 7261.135000000005,
      "d": 382.16499999999996,
      "v": 127
    },
    {
      "midi": 59,
      "hit": false,
      "t": 7643.300000000005,
      "d": 191.08250000000044,
      "v": 127
    },
    {
      "midi": 76,
      "hit": false,
      "t": 7834.382499999999,
      "d": 573.2475000000004,
      "v": 127
    },
    {
      "midi": 52,
      "hit": false,
      "t": 7834.382500000005,
      "d": 191.08250000000044,
      "v": 127
    },
    {
      "midi": 47,
      "hit": false,
      "t": 7834.382500000005,
      "d": 382.1650000000009,
      "v": 127
    },
    {
      "midi": 52,
      "hit": false,
      "t": 8025.465000000006,
      "d": 191.08250000000044,
      "v": 127
    },
    {
      "midi": 47,
      "hit": false,
      "t": 8216.547500000006,
      "d": 191.08250000000044,
      "v": 127
    },
    {
      "midi": 52,
      "hit": false,
      "t": 8216.547500000006,
      "d": 191.08250000000044,
      "v": 127
    },
    {
      "midi": 62,
      "hit": false,
      "t": 8407.63,
      "d": 95.54125000000022,
      "v": 127
    },
    {
      "midi": 52,
      "hit": false,
      "t": 8407.630000000006,
      "d": 382.16499999999905,
      "v": 127
    },
    {
      "midi": 64,
      "hit": false,
      "t": 8503.17125,
      "d": 286.62375000000065,
      "v": 127
    },
    {
      "midi": 62,
      "hit": false,
      "t": 8789.795,
      "d": 382.16499999999905,
      "v": 127
    },
    {
      "midi": 50,
      "hit": false,
      "t": 8789.795000000006,
      "d": 191.08250000000044,
      "v": 127
    },
    {
      "midi": 47,
      "hit": false,
      "t": 8980.877500000006,
      "d": 382.1650000000009,
      "v": 127
    },
    {
      "midi": 59,
      "hit": false,
      "t": 9171.96,
      "d": 191.08250000000044,
      "v": 127
    },
    {
      "midi": 52,
      "hit": false,
      "t": 9363.0425,
      "d": 191.08250000000044,
      "v": 127
    },
    {
      "midi": 47,
      "hit": false,
      "t": 9363.042500000007,
      "d": 286.62375000000065,
      "v": 127
    },
    {
      "midi": 52,
      "hit": false,
      "t": 9554.125,
      "d": 191.08250000000044,
      "v": 127
    },
    {
      "midi": 52,
      "hit": false,
      "t": 9745.2075,
      "d": 191.08250000000044,
      "v": 127
    },
    {
      "midi": 62,
      "hit": false,
      "t": 9936.29,
      "d": 95.54125000000022,
      "v": 127
    },
    {
      "midi": 64,
      "hit": false,
      "t": 10031.831250000001,
      "d": 286.62375000000065,
      "v": 127
    },
    {
      "midi": 62,
      "hit": false,
      "t": 10318.455000000002,
      "d": 382.1650000000009,
      "v": 127
    },
    {
      "midi": 59,
      "hit": false,
      "t": 10700.620000000003,
      "d": 191.08250000000044,
      "v": 127
    },
    {
      "midi": 52,
      "hit": false,
      "t": 10891.702500000003,
      "d": 191.08250000000044,
      "v": 127
    },
    {
      "midi": 64,
      "hit": false,
      "t": 10891.702500000003,
      "d": 191.08250000000044,
      "v": 127
    },
    {
      "midi": 40,
      "hit": false,
      "t": 10891.702500000007,
      "d": 95.54125000000022,
      "v": 127
    },
    {
      "midi": 52,
      "hit": false,
      "t": 11082.785000000003,
      "d": 95.54125000000022,
      "v": 127
    },
    {
      "midi": 64,
      "hit": false,
      "t": 11082.785000000003,
      "d": 95.54125000000022,
      "v": 127
    },
    {
      "midi": 52,
      "hit": false,
      "t": 11178.326250000004,
      "d": 95.54125000000022,
      "v": 127
    },
    {
      "midi": 64,
      "hit": false,
      "t": 11178.326250000004,
      "d": 95.54125000000022,
      "v": 127
    },
    {
      "midi": 52,
      "hit": false,
      "t": 11273.867500000004,
      "d": 191.08250000000044,
      "v": 127
    },
    {
      "midi": 64,
      "hit": false,
      "t": 11273.867500000004,
      "d": 191.08250000000044,
      "v": 127
    },
    {
      "midi": 40,
      "hit": false,
      "t": 11273.867500000008,
      "d": 95.54125000000022,
      "v": 127
    },
    {
      "midi": 52,
      "hit": false,
      "t": 11464.950000000004,
      "d": 95.54125000000022,
      "v": 127
    },
    {
      "midi": 64,
      "hit": false,
      "t": 11464.950000000004,
      "d": 95.54125000000022,
      "v": 127
    },
    {
      "midi": 52,
      "hit": false,
      "t": 11560.491250000005,
      "d": 95.54125000000022,
      "v": 127
    },
    {
      "midi": 64,
      "hit": false,
      "t": 11560.491250000005,
      "d": 95.54125000000022,
      "v": 127
    },
    {
      "midi": 52,
      "hit": false,
      "t": 11656.032500000005,
      "d": 191.08250000000044,
      "v": 127
    },
    {
      "midi": 64,
      "hit": false,
      "t": 11656.032500000005,
      "d": 191.08250000000044,
      "v": 127
    },
    {
      "midi": 40,
      "hit": false,
      "t": 11656.032500000008,
      "d": 95.54125000000022,
      "v": 127
    },
    {
      "midi": 52,
      "hit": false,
      "t": 11847.115000000005,
      "d": 95.54125000000022,
      "v": 127
    },
    {
      "midi": 64,
      "hit": false,
      "t": 11847.115000000005,
      "d": 95.54125000000022,
      "v": 127
    },
    {
      "midi": 52,
      "hit": false,
      "t": 11942.656250000005,
      "d": 95.54125000000022,
      "v": 127
    },
    {
      "midi": 64,
      "hit": false,
      "t": 11942.656250000005,
      "d": 95.54125000000022,
      "v": 127
    },
    {
      "midi": 50,
      "hit": false,
      "t": 12038.197500000006,
      "d": 191.08250000000044,
      "v": 127
    },
    {
      "midi": 62,
      "hit": false,
      "t": 12038.197500000006,
      "d": 191.08250000000044,
      "v": 127
    },
    {
      "midi": 40,
      "hit": false,
      "t": 12038.19750000001,
      "d": 191.08250000000044,
      "v": 127
    },
    {
      "midi": 52,
      "hit": false,
      "t": 12229.280000000006,
      "d": 191.08250000000044,
      "v": 127
    },
    {
      "midi": 64,
      "hit": false,
      "t": 12229.280000000006,
      "d": 191.08250000000044,
      "v": 127
    },
    {
      "midi": 40,
      "hit": false,
      "t": 12229.28000000001,
      "d": 191.08250000000044,
      "v": 127
    },
    {
      "midi": 53,
      "hit": false,
      "t": 12420.362500000007,
      "d": 191.08250000000044,
      "v": 127
    },
    {
      "midi": 65,
      "hit": false,
      "t": 12420.362500000007,
      "d": 573.2475000000013,
      "v": 127
    },
    {
      "midi": 45,
      "hit": false,
      "t": 12420.36250000001,
      "d": 191.08250000000044,
      "v": 127
    },
    {
      "midi": 41,
      "hit": false,
      "t": 12420.36250000001,
      "d": 573.2475000000013,
      "v": 127
    },
    {
      "midi": 53,
      "hit": false,
      "t": 12611.445000000007,
      "d": 191.08250000000044,
      "v": 127
    },
    {
      "midi": 45,
      "hit": false,
      "t": 12611.44500000001,
      "d": 191.08250000000044,
      "v": 127
    },
    {
      "midi": 53,
      "hit": false,
      "t": 12802.527500000007,
      "d": 191.08250000000044,
      "v": 127
    },
    {
      "midi": 45,
      "hit": false,
      "t": 12802.527500000011,
      "d": 191.08250000000044,
      "v": 127
    },
    {
      "midi": 64,
      "hit": false,
      "t": 12993.610000000008,
      "d": 382.1650000000009,
      "v": 127
    },
    {
      "midi": 55,
      "hit": false,
      "t": 12993.610000000008,
      "d": 382.1650000000009,
      "v": 127
    },
    {
      "midi": 50,
      "hit": false,
      "t": 12993.610000000011,
      "d": 382.1650000000009,
      "v": 127
    },
    {
      "midi": 43,
      "hit": false,
      "t": 12993.610000000011,
      "d": 764.3300000000017,
      "v": 127
    },
    {
      "midi": 55,
      "hit": false,
      "t": 13375.775000000009,
      "d": 191.08250000000044,
      "v": 127
    },
    {
      "midi": 62,
      "hit": false,
      "t": 13375.775000000009,
      "d": 764.3300000000017,
      "v": 127
    },
    {
      "midi": 50,
      "hit": false,
      "t": 13375.775000000012,
      "d": 191.08250000000044,
      "v": 127
    },
    {
      "midi": 55,
      "hit": false,
      "t": 13566.85750000001,
      "d": 191.08250000000044,
      "v": 127
    },
    {
      "midi": 50,
      "hit": false,
      "t": 13566.857500000013,
      "d": 191.08250000000044,
      "v": 127
    },
    {
      "midi": 57,
      "hit": false,
      "t": 13757.94000000001,
      "d": 382.1650000000009,
      "v": 127
    },
    {
      "midi": 52,
      "hit": false,
      "t": 13757.940000000013,
      "d": 382.1650000000009,
      "v": 127
    },
    {
      "midi": 45,
      "hit": false,
      "t": 13757.940000000013,
      "d": 1337.5775000000012,
      "v": 127
    },
    {
      "midi": 57,
      "hit": false,
      "t": 14140.10500000001,
      "d": 191.08250000000044,
      "v": 127
    },
    {
      "midi": 61,
      "hit": false,
      "t": 14140.10500000001,
      "d": 955.4125000000022,
      "v": 127
    },
    {
      "midi": 49,
      "hit": false,
      "t": 14140.105000000014,
      "d": 955.4125000000004,
      "v": 127
    },
    {
      "midi": 57,
      "hit": false,
      "t": 14331.187500000011,
      "d": 191.08250000000044,
      "v": 127
    },
    {
      "midi": 57,
      "hit": false,
      "t": 14522.270000000011,
      "d": 191.08250000000044,
      "v": 127
    },
    {
      "midi": 57,
      "hit": false,
      "t": 14713.352500000012,
      "d": 191.08250000000044,
      "v": 127
    },
    {
      "midi": 57,
      "hit": false,
      "t": 14904.435000000012,
      "d": 191.08250000000044,
      "v": 127
    },
    {
      "midi": 62,
      "hit": false,
      "t": 15095.517500000013,
      "d": 191.08250000000044,
      "v": 127
    },
    {
      "midi": 57,
      "hit": false,
      "t": 15095.517500000013,
      "d": 573.2475000000013,
      "v": 127
    },
    {
      "midi": 57,
      "hit": false,
      "t": 15095.517500000014,
      "d": 382.16499999999905,
      "v": 127
    },
    {
      "midi": 64,
      "hit": false,
      "t": 15286.600000000013,
      "d": 191.08250000000044,
      "v": 127
    },
    {
      "midi": 65,
      "hit": false,
      "t": 15477.682500000014,
      "d": 191.08250000000044,
      "v": 127
    },
    {
      "midi": 41,
      "hit": false,
      "t": 15477.682500000014,
      "d": 191.08250000000044,
      "v": 127
    },
    {
      "midi": 60,
      "hit": false,
      "t": 15668.765000000014,
      "d": 764.3300000000017,
      "v": 127
    },
    {
      "midi": 72,
      "hit": false,
      "t": 15668.765000000014,
      "d": 764.3300000000017,
      "v": 127
    },
    {
      "midi": 41,
      "hit": false,
      "t": 15668.765000000014,
      "d": 191.08250000000044,
      "v": 127
    },
    {
      "midi": 41,
      "hit": false,
      "t": 15859.847500000014,
      "d": 191.08250000000044,
      "v": 127
    },
    {
      "midi": 43,
      "hit": false,
      "t": 16050.930000000015,
      "d": 382.1650000000009,
      "v": 127
    },
    {
      "midi": 59,
      "hit": false,
      "t": 16433.095000000016,
      "d": 191.08250000000044,
      "v": 127
    },
    {
      "midi": 71,
      "hit": false,
      "t": 16433.095000000016,
      "d": 286.62374999999884,
      "v": 127
    },
    {
      "midi": 43,
      "hit": false,
      "t": 16433.095000000016,
      "d": 191.08250000000044,
      "v": 127
    },
    {
      "midi": 55,
      "hit": false,
      "t": 16624.177500000016,
      "d": 191.08250000000044,
      "v": 127
    },
    {
      "midi": 43,
      "hit": false,
      "t": 16624.177500000016,
      "d": 191.08250000000044,
      "v": 127
    },
    {
      "midi": 74,
      "hit": false,
      "t": 16719.718750000015,
      "d": 286.62374999999884,
      "v": 127
    },
    {
      "midi": 50,
      "hit": false,
      "t": 16815.260000000017,
      "d": 191.08250000000044,
      "v": 127
    },
    {
      "midi": 57,
      "hit": false,
      "t": 16815.260000000017,
      "d": 1337.577500000003,
      "v": 127
    },
    {
      "midi": 73,
      "hit": false,
      "t": 17006.342500000013,
      "d": 1146.494999999999,
      "v": 127
    },
    {
      "midi": 76,
      "hit": false,
      "t": 17006.342500000013,
      "d": 1146.494999999999,
      "v": 127
    },
    {
      "midi": 45,
      "hit": false,
      "t": 17006.342500000017,
      "d": 191.08250000000044,
      "v": 127
    },
    {
      "midi": 45,
      "hit": false,
      "t": 17197.425000000017,
      "d": 191.08250000000044,
      "v": 127
    },
    {
      "midi": 45,
      "hit": false,
      "t": 17388.507500000018,
      "d": 191.08250000000044,
      "v": 127
    },
    {
      "midi": 45,
      "hit": false,
      "t": 17579.59000000002,
      "d": 382.1650000000009,
      "v": 127
    },
    {
      "midi": 45,
      "hit": false,
      "t": 17961.75500000002,
      "d": 191.08250000000044,
      "v": 127
    },
    {
      "midi": 50,
      "hit": false,
      "t": 18152.837500000012,
      "d": 191.08250000000044,
      "v": 127
    },
    {
      "midi": 62,
      "hit": false,
      "t": 18152.837500000012,
      "d": 191.08250000000044,
      "v": 127
    },
    {
      "midi": 50,
      "hit": false,
      "t": 18152.83750000002,
      "d": 191.08250000000044,
      "v": 127
    },
    {
      "midi": 52,
      "hit": false,
      "t": 18343.920000000013,
      "d": 191.08250000000044,
      "v": 127
    },
    {
      "midi": 64,
      "hit": false,
      "t": 18343.920000000013,
      "d": 191.08250000000044,
      "v": 127
    },
    {
      "midi": 52,
      "hit": false,
      "t": 18343.92000000002,
      "d": 191.08250000000044,
      "v": 127
    },
    {
      "midi": 53,
      "hit": false,
      "t": 18535.002500000013,
      "d": 191.08250000000044,
      "v": 127
    },
    {
      "midi": 65,
      "hit": false,
      "t": 18535.002500000013,
      "d": 573.2475000000013,
      "v": 127
    },
    {
      "midi": 45,
      "hit": false,
      "t": 18535.00250000002,
      "d": 191.08250000000044,
      "v": 127
    },
    {
      "midi": 41,
      "hit": false,
      "t": 18535.00250000002,
      "d": 573.2475000000013,
      "v": 127
    },
    {
      "midi": 53,
      "hit": false,
      "t": 18726.085000000014,
      "d": 191.08250000000044,
      "v": 127
    },
    {
      "midi": 45,
      "hit": false,
      "t": 18726.08500000002,
      "d": 191.08250000000044,
      "v": 127
    },
    {
      "midi": 53,
      "hit": false,
      "t": 18917.167500000014,
      "d": 191.08250000000044,
      "v": 127
    },
    {
      "midi": 45,
      "hit": false,
      "t": 18917.16750000002,
      "d": 191.08250000000044,
      "v": 127
    },
    {
      "midi": 64,
      "hit": false,
      "t": 19108.250000000015,
      "d": 382.1650000000009,
      "v": 127
    },
    {
      "midi": 55,
      "hit": false,
      "t": 19108.250000000015,
      "d": 382.1650000000009,
      "v": 127
    },
    {
      "midi": 50,
      "hit": false,
      "t": 19108.250000000022,
      "d": 382.1650000000009,
      "v": 127
    },
    {
      "midi": 43,
      "hit": false,
      "t": 19108.250000000022,
      "d": 764.3300000000017,
      "v": 127
    },
    {
      "midi": 55,
      "hit": false,
      "t": 19490.415000000015,
      "d": 191.08250000000044,
      "v": 127
    },
    {
      "midi": 62,
      "hit": false,
      "t": 19490.415000000015,
      "d": 764.3300000000017,
      "v": 127
    },
    {
      "midi": 50,
      "hit": false,
      "t": 19490.415000000023,
      "d": 191.08250000000044,
      "v": 127
    },
    {
      "midi": 55,
      "hit": false,
      "t": 19681.497500000016,
      "d": 191.08250000000044,
      "v": 127
    },
    {
      "midi": 50,
      "hit": false,
      "t": 19681.497500000023,
      "d": 191.08250000000044,
      "v": 127
    },
    {
      "midi": 57,
      "hit": false,
      "t": 19872.580000000016,
      "d": 382.1650000000009,
      "v": 127
    },
    {
      "midi": 52,
      "hit": false,
      "t": 19872.580000000024,
      "d": 382.1650000000009,
      "v": 127
    },
    {
      "midi": 45,
      "hit": false,
      "t": 19872.580000000024,
      "d": 1337.5774999999994,
      "v": 127
    },
    {
      "midi": 57,
      "hit": false,
      "t": 20254.745000000017,
      "d": 191.08250000000044,
      "v": 127
    },
    {
      "midi": 61,
      "hit": false,
      "t": 20254.745000000017,
      "d": 955.4125000000022,
      "v": 127
    },
    {
      "midi": 52,
      "hit": false,
      "t": 20254.745000000024,
      "d": 191.08250000000044,
      "v": 127
    },
    {
      "midi": 57,
      "hit": false,
      "t": 20445.827500000018,
      "d": 191.08250000000044,
      "v": 127
    },
    {
      "midi": 49,
      "hit": false,
      "t": 20445.827500000025,
      "d": 764.3299999999981,
      "v": 127
    },
    {
      "midi": 57,
      "hit": false,
      "t": 20636.910000000018,
      "d": 191.08250000000044,
      "v": 127
    },
    {
      "midi": 57,
      "hit": false,
      "t": 20827.99250000002,
      "d": 191.08250000000044,
      "v": 127
    },
    {
      "midi": 57,
      "hit": false,
      "t": 21019.07500000002,
      "d": 191.08250000000044,
      "v": 127
    },
    {
      "midi": 74,
      "hit": false,
      "t": 21210.15750000002,
      "d": 191.08250000000044,
      "v": 127
    },
    {
      "midi": 39,
      "hit": false,
      "t": 21210.157500000023,
      "d": 191.08250000000044,
      "v": 127
    },
    {
      "midi": 76,
      "hit": false,
      "t": 21401.24000000002,
      "d": 191.08250000000044,
      "v": 127
    },
    {
      "midi": 40,
      "hit": false,
      "t": 21401.240000000023,
      "d": 191.08250000000044,
      "v": 127
    },
    {
      "midi": 72,
      "hit": false,
      "t": 21592.32250000002,
      "d": 191.08250000000044,
      "v": 127
    },
    {
      "midi": 77,
      "hit": false,
      "t": 21592.32250000002,
      "d": 191.08250000000044,
      "v": 127
    },
    {
      "midi": 41,
      "hit": false,
      "t": 21592.322500000024,
      "d": 191.08250000000044,
      "v": 127
    },
    {
      "midi": 48,
      "hit": false,
      "t": 21592.322500000024,
      "d": 764.3300000000017,
      "v": 127
    },
    {
      "midi": 69,
      "hit": false,
      "t": 21783.40500000002,
      "d": 191.08250000000044,
      "v": 127
    },
    {
      "midi": 72,
      "hit": false,
      "t": 21783.40500000002,
      "d": 191.08250000000044,
      "v": 127
    },
    {
      "midi": 41,
      "hit": false,
      "t": 21783.405000000024,
      "d": 382.1650000000009,
      "v": 127
    },
    {
      "midi": 65,
      "hit": false,
      "t": 21974.48750000002,
      "d": 191.08250000000044,
      "v": 127
    },
    {
      "midi": 69,
      "hit": false,
      "t": 21974.48750000002,
      "d": 191.08250000000044,
      "v": 127
    },
    {
      "midi": 69,
      "hit": false,
      "t": 22165.57000000002,
      "d": 382.1650000000009,
      "v": 127
    },
    {
      "midi": 72,
      "hit": false,
      "t": 22165.57000000002,
      "d": 382.1650000000009,
      "v": 127
    },
    {
      "midi": 43,
      "hit": false,
      "t": 22165.570000000025,
      "d": 382.1650000000009,
      "v": 127
    },
    {
      "midi": 47,
      "hit": false,
      "t": 22356.652500000026,
      "d": 764.3300000000017,
      "v": 127
    },
    {
      "midi": 67,
      "hit": false,
      "t": 22547.735000000022,
      "d": 191.08250000000044,
      "v": 127
    },
    {
      "midi": 71,
      "hit": false,
      "t": 22547.735000000022,
      "d": 191.08250000000044,
      "v": 127
    },
    {
      "midi": 43,
      "hit": false,
      "t": 22547.735000000026,
      "d": 191.08250000000044,
      "v": 127
    },
    {
      "midi": 62,
      "hit": false,
      "t": 22738.817500000023,
      "d": 191.08250000000044,
      "v": 127
    },
    {
      "midi": 67,
      "hit": false,
      "t": 22738.817500000023,
      "d": 191.08250000000044,
      "v": 127
    },
    {
      "midi": 43,
      "hit": false,
      "t": 22738.817500000026,
      "d": 191.08250000000044,
      "v": 127
    },
    {
      "midi": 67,
      "hit": false,
      "t": 22929.900000000023,
      "d": 382.1650000000009,
      "v": 127
    },
    {
      "midi": 74,
      "hit": false,
      "t": 22929.900000000023,
      "d": 382.1650000000009,
      "v": 127
    },
    {
      "midi": 45,
      "hit": false,
      "t": 22929.900000000027,
      "d": 382.1650000000009,
      "v": 127
    },
    {
      "midi": 57,
      "hit": false,
      "t": 23120.982500000027,
      "d": 1146.4950000000026,
      "v": 127
    },
    {
      "midi": 67,
      "hit": false,
      "t": 23312.065000000024,
      "d": 191.08250000000044,
      "v": 127
    },
    {
      "midi": 73,
      "hit": false,
      "t": 23312.065000000024,
      "d": 191.08250000000044,
      "v": 127
    },
    {
      "midi": 45,
      "hit": false,
      "t": 23312.065000000028,
      "d": 191.08250000000044,
      "v": 127
    },
    {
      "midi": 64,
      "hit": false,
      "t": 23503.147500000025,
      "d": 764.3299999999981,
      "v": 127
    },
    {
      "midi": 69,
      "hit": false,
      "t": 23503.147500000025,
      "d": 764.3299999999981,
      "v": 127
    },
    {
      "midi": 45,
      "hit": false,
      "t": 23503.14750000003,
      "d": 191.08250000000044,
      "v": 127
    },
    {
      "midi": 45,
      "hit": false,
      "t": 23694.23000000003,
      "d": 382.1650000000009,
      "v": 127
    },
    {
      "midi": 45,
      "hit": false,
      "t": 24076.39500000003,
      "d": 191.08250000000044,
      "v": 127
    },
    {
      "midi": 62,
      "hit": false,
      "t": 24267.477500000023,
      "d": 191.08250000000044,
      "v": 127
    },
    {
      "midi": 47,
      "hit": false,
      "t": 24267.47750000003,
      "d": 191.08250000000044,
      "v": 127
    },
    {
      "midi": 64,
      "hit": false,
      "t": 24458.560000000023,
      "d": 191.08250000000044,
      "v": 127
    },
    {
      "midi": 47,
      "hit": false,
      "t": 24458.56000000003,
      "d": 191.08250000000044,
      "v": 127
    },
    {
      "midi": 64,
      "hit": false,
      "t": 24649.642500000024,
      "d": 191.08250000000044,
      "v": 127
    },
    {
      "midi": 47,
      "hit": false,
      "t": 24649.64250000003,
      "d": 191.08250000000044,
      "v": 127
    },
    {
      "midi": 52,
      "hit": false,
      "t": 24840.725000000024,
      "d": 191.08250000000044,
      "v": 127
    },
    {
      "midi": 40,
      "hit": false,
      "t": 24840.72500000003,
      "d": 191.08250000000044,
      "v": 127
    },
    {
      "midi": 52,
      "hit": false,
      "t": 25031.807500000024,
      "d": 191.08250000000044,
      "v": 127
    },
    {
      "midi": 47,
      "hit": false,
      "t": 25031.80750000003,
      "d": 191.08250000000044,
      "v": 127
    },
    {
      "midi": 52,
      "hit": false,
      "t": 25222.890000000025,
      "d": 191.08250000000044,
      "v": 127
    },
    {
      "midi": 40,
      "hit": false,
      "t": 25222.890000000032,
      "d": 191.08250000000044,
      "v": 127
    },
    {
      "midi": 52,
      "hit": false,
      "t": 25413.972500000025,
      "d": 191.08250000000044,
      "v": 127
    },
    {
      "midi": 40,
      "hit": false,
      "t": 25413.972500000033,
      "d": 191.08250000000044,
      "v": 127
    },
    {
      "midi": 52,
      "hit": false,
      "t": 25605.055000000026,
      "d": 191.08250000000044,
      "v": 127
    },
    {
      "midi": 40,
      "hit": false,
      "t": 25605.055000000033,
      "d": 191.08250000000044,
      "v": 127
    },
    {
      "midi": 52,
      "hit": false,
      "t": 25796.137500000026,
      "d": 191.08250000000044,
      "v": 127
    },
    {
      "midi": 40,
      "hit": false,
      "t": 25796.137500000033,
      "d": 191.08250000000044,
      "v": 127
    },
    {
      "midi": 57,
      "hit": false,
      "t": 25987.220000000027,
      "d": 191.08250000000044,
      "v": 127
    },
    {
      "midi": 52,
      "hit": false,
      "t": 25987.220000000034,
      "d": 191.08250000000044,
      "v": 127
    },
    {
      "midi": 59,
      "hit": false,
      "t": 26178.302500000027,
      "d": 191.08250000000044,
      "v": 127
    },
    {
      "midi": 52,
      "hit": false,
      "t": 26178.302500000034,
      "d": 191.08250000000044,
      "v": 127
    },
    {
      "midi": 60,
      "hit": false,
      "t": 26369.385000000028,
      "d": 382.1650000000009,
      "v": 127
    },
    {
      "midi": 64,
      "hit": false,
      "t": 26369.385000000028,
      "d": 382.1650000000009,
      "v": 127
    },
    {
      "midi": 57,
      "hit": false,
      "t": 26751.55000000003,
      "d": 191.08250000000044,
      "v": 127
    },
    {
      "midi": 45,
      "hit": false,
      "t": 26751.550000000036,
      "d": 191.08250000000044,
      "v": 127
    },
    {
      "midi": 57,
      "hit": false,
      "t": 26942.63250000003,
      "d": 191.08250000000044,
      "v": 127
    },
    {
      "midi": 45,
      "hit": false,
      "t": 26942.632500000036,
      "d": 191.08250000000044,
      "v": 127
    },
    {
      "midi": 57,
      "hit": false,
      "t": 27133.71500000003,
      "d": 382.1650000000009,
      "v": 127
    },
    {
      "midi": 45,
      "hit": false,
      "t": 27133.715000000037,
      "d": 382.1650000000009,
      "v": 127
    },
    {
      "midi": 56,
      "hit": false,
      "t": 27515.88000000003,
      "d": 191.08250000000044,
      "v": 127
    },
    {
      "midi": 51,
      "hit": false,
      "t": 27515.880000000037,
      "d": 191.08250000000044,
      "v": 127
    },
    {
      "midi": 55,
      "hit": false,
      "t": 27706.96250000003,
      "d": 191.08250000000044,
      "v": 127
    },
    {
      "midi": 51,
      "hit": false,
      "t": 27706.962500000038,
      "d": 191.08250000000044,
      "v": 127
    },
    {
      "midi": 56,
      "hit": false,
      "t": 27898.04500000003,
      "d": 382.1650000000009,
      "v": 127
    },
    {
      "midi": 51,
      "hit": false,
      "t": 27898.04500000004,
      "d": 382.1650000000009,
      "v": 127
    },
    {
      "midi": 58,
      "hit": false,
      "t": 28280.210000000032,
      "d": 382.1650000000009,
      "v": 127
    },
    {
      "midi": 39,
      "hit": false,
      "t": 28280.21000000004,
      "d": 191.08250000000044,
      "v": 127
    },
    {
      "midi": 39,
      "hit": false,
      "t": 28471.29250000004,
      "d": 191.08250000000044,
      "v": 127
    },
    {
      "midi": 63,
      "hit": false,
      "t": 28662.375000000033,
      "d": 382.1650000000009,
      "v": 127
    },
    {
      "midi": 46,
      "hit": false,
      "t": 28662.37500000004,
      "d": 191.08250000000044,
      "v": 127
    },
    {
      "midi": 46,
      "hit": false,
      "t": 28853.45750000004,
      "d": 191.08250000000044,
      "v": 127
    },
    {
      "midi": 60,
      "hit": false,
      "t": 29044.540000000034,
      "d": 191.08250000000044,
      "v": 127
    },
    {
      "midi": 55,
      "hit": false,
      "t": 29044.54000000004,
      "d": 191.08250000000044,
      "v": 127
    },
    {
      "midi": 58,
      "hit": false,
      "t": 29235.622500000034,
      "d": 191.08250000000044,
      "v": 127
    },
    {
      "midi": 55,
      "hit": false,
      "t": 29235.62250000004,
      "d": 191.08250000000044,
      "v": 127
    },
    {
      "midi": 60,
      "hit": false,
      "t": 29426.705000000034,
      "d": 382.1650000000009,
      "v": 127
    },
    {
      "midi": 55,
      "hit": false,
      "t": 29426.70500000004,
      "d": 382.1650000000009,
      "v": 127
    },
    {
      "midi": 60,
      "hit": false,
      "t": 29808.870000000035,
      "d": 191.08250000000044,
      "v": 127
    },
    {
      "midi": 55,
      "hit": false,
      "t": 29808.870000000043,
      "d": 191.08250000000044,
      "v": 127
    },
    {
      "midi": 60,
      "hit": false,
      "t": 29999.952500000036,
      "d": 191.08250000000044,
      "v": 127
    },
    {
      "midi": 55,
      "hit": false,
      "t": 29999.952500000043,
      "d": 191.08250000000044,
      "v": 127
    },
    {
      "midi": 60,
      "hit": false,
      "t": 30191.035000000036,
      "d": 191.08250000000044,
      "v": 127
    },
    {
      "midi": 55,
      "hit": false,
      "t": 30191.035000000044,
      "d": 191.08250000000044,
      "v": 127
    },
    {
      "midi": 59,
      "hit": false,
      "t": 30382.117500000037,
      "d": 191.08250000000044,
      "v": 127
    },
    {
      "midi": 62,
      "hit": false,
      "t": 30382.117500000037,
      "d": 191.08250000000044,
      "v": 127
    },
    {
      "midi": 59,
      "hit": false,
      "t": 30573.200000000037,
      "d": 191.08250000000044,
      "v": 127
    },
    {
      "midi": 64,
      "hit": false,
      "t": 30573.200000000037,
      "d": 191.08250000000044,
      "v": 127
    },
    {
      "midi": 83,
      "hit": false,
      "t": 30764.282500000038,
      "d": 191.08250000000044,
      "v": 127
    },
    {
      "midi": 64,
      "hit": false,
      "t": 30764.282500000045,
      "d": 191.08250000000044,
      "v": 127
    },
    {
      "midi": 59,
      "hit": false,
      "t": 30764.282500000045,
      "d": 191.08250000000044,
      "v": 127
    },
    {
      "midi": 81,
      "hit": false,
      "t": 30955.365000000038,
      "d": 191.08250000000044,
      "v": 127
    },
    {
      "midi": 52,
      "hit": false,
      "t": 30955.365000000045,
      "d": 191.08250000000044,
      "v": 127
    },
    {
      "midi": 40,
      "hit": false,
      "t": 30955.365000000045,
      "d": 191.08250000000044,
      "v": 127
    },
    {
      "midi": 52,
      "hit": false,
      "t": 31146.447500000046,
      "d": 191.08250000000044,
      "v": 127
    },
    {
      "midi": 47,
      "hit": false,
      "t": 31146.447500000046,
      "d": 191.08250000000044,
      "v": 127
    },
    {
      "midi": 69,
      "hit": false,
      "t": 31337.53000000004,
      "d": 191.08250000000044,
      "v": 127
    },
    {
      "midi": 52,
      "hit": false,
      "t": 31337.530000000046,
      "d": 191.08250000000044,
      "v": 127
    },
    {
      "midi": 40,
      "hit": false,
      "t": 31337.530000000046,
      "d": 191.08250000000044,
      "v": 127
    },
    {
      "midi": 83,
      "hit": false,
      "t": 31528.61250000004,
      "d": 191.08250000000044,
      "v": 127
    },
    {
      "midi": 52,
      "hit": false,
      "t": 31528.612500000047,
      "d": 191.08250000000044,
      "v": 127
    },
    {
      "midi": 40,
      "hit": false,
      "t": 31528.612500000047,
      "d": 191.08250000000044,
      "v": 127
    },
    {
      "midi": 81,
      "hit": false,
      "t": 31719.69500000004,
      "d": 191.08250000000044,
      "v": 127
    },
    {
      "midi": 52,
      "hit": false,
      "t": 31719.695000000047,
      "d": 191.08250000000044,
      "v": 127
    },
    {
      "midi": 40,
      "hit": false,
      "t": 31719.695000000047,
      "d": 191.08250000000044,
      "v": 127
    },
    {
      "midi": 80,
      "hit": false,
      "t": 31910.77750000004,
      "d": 191.08250000000044,
      "v": 127
    },
    {
      "midi": 52,
      "hit": false,
      "t": 31910.777500000047,
      "d": 191.08250000000044,
      "v": 127
    },
    {
      "midi": 40,
      "hit": false,
      "t": 31910.777500000047,
      "d": 191.08250000000044,
      "v": 127
    },
    {
      "midi": 76,
      "hit": false,
      "t": 32101.86000000004,
      "d": 191.08250000000044,
      "v": 127
    },
    {
      "midi": 57,
      "hit": false,
      "t": 32101.860000000048,
      "d": 191.08250000000044,
      "v": 127
    },
    {
      "midi": 52,
      "hit": false,
      "t": 32101.860000000048,
      "d": 191.08250000000044,
      "v": 127
    },
    {
      "midi": 74,
      "hit": false,
      "t": 32292.94250000004,
      "d": 573.2474999999977,
      "v": 127
    },
    {
      "midi": 59,
      "hit": false,
      "t": 32292.94250000005,
      "d": 191.08250000000044,
      "v": 127
    },
    {
      "midi": 52,
      "hit": false,
      "t": 32292.94250000005,
      "d": 191.08250000000044,
      "v": 127
    },
    {
      "midi": 52,
      "hit": false,
      "t": 32484.02500000005,
      "d": 191.08250000000044,
      "v": 127
    },
    {
      "midi": 60,
      "hit": false,
      "t": 32484.02500000005,
      "d": 382.16499999999724,
      "v": 127
    },
    {
      "midi": 57,
      "hit": false,
      "t": 32866.19000000004,
      "d": 191.0824999999968,
      "v": 127
    },
    {
      "midi": 45,
      "hit": false,
      "t": 32866.190000000046,
      "d": 191.0824999999968,
      "v": 127
    },
    {
      "midi": 57,
      "hit": false,
      "t": 33057.272500000036,
      "d": 191.0824999999968,
      "v": 127
    },
    {
      "midi": 45,
      "hit": false,
      "t": 33057.27250000004,
      "d": 191.0824999999968,
      "v": 127
    },
    {
      "midi": 80,
      "hit": false,
      "t": 33248.35500000003,
      "d": 191.0824999999968,
      "v": 127
    },
    {
      "midi": 57,
      "hit": false,
      "t": 33248.35500000004,
      "d": 382.1650000000009,
      "v": 127
    },
    {
      "midi": 45,
      "hit": false,
      "t": 33248.35500000004,
      "d": 382.1650000000009,
      "v": 127
    },
    {
      "midi": 81,
      "hit": false,
      "t": 33439.43750000003,
      "d": 191.0824999999968,
      "v": 127
    },
    {
      "midi": 80,
      "hit": false,
      "t": 33630.520000000026,
      "d": 191.0824999999968,
      "v": 127
    },
    {
      "midi": 56,
      "hit": false,
      "t": 33630.52000000004,
      "d": 191.0824999999968,
      "v": 127
    },
    {
      "midi": 51,
      "hit": false,
      "t": 33630.52000000004,
      "d": 191.0824999999968,
      "v": 127
    },
    {
      "midi": 79,
      "hit": false,
      "t": 33821.60250000002,
      "d": 191.0824999999968,
      "v": 127
    },
    {
      "midi": 55,
      "hit": false,
      "t": 33821.60250000004,
      "d": 191.0824999999968,
      "v": 127
    },
    {
      "midi": 51,
      "hit": false,
      "t": 33821.60250000004,
      "d": 191.0824999999968,
      "v": 127
    },
    {
      "midi": 80,
      "hit": false,
      "t": 34012.68500000002,
      "d": 382.1650000000009,
      "v": 127
    },
    {
      "midi": 56,
      "hit": false,
      "t": 34012.685000000034,
      "d": 382.1650000000009,
      "v": 127
    },
    {
      "midi": 51,
      "hit": false,
      "t": 34012.685000000034,
      "d": 382.1650000000009,
      "v": 127
    },
    {
      "midi": 75,
      "hit": false,
      "t": 34394.85000000002,
      "d": 191.0824999999968,
      "v": 127
    },
    {
      "midi": 58,
      "hit": false,
      "t": 34394.850000000035,
      "d": 382.1650000000009,
      "v": 127
    },
    {
      "midi": 51,
      "hit": false,
      "t": 34394.850000000035,
      "d": 382.1650000000009,
      "v": 127
    },
    {
      "midi": 74,
      "hit": false,
      "t": 34585.93250000002,
      "d": 191.0824999999968,
      "v": 127
    },
    {
      "midi": 75,
      "hit": false,
      "t": 34777.015000000014,
      "d": 382.1650000000009,
      "v": 127
    },
    {
      "midi": 58,
      "hit": false,
      "t": 34777.015000000036,
      "d": 191.0824999999968,
      "v": 127
    },
    {
      "midi": 63,
      "hit": false,
      "t": 34777.015000000036,
      "d": 382.1649999999936,
      "v": 127
    },
    {
      "midi": 58,
      "hit": false,
      "t": 34968.09750000003,
      "d": 191.0824999999968,
      "v": 127
    },
    {
      "midi": 72,
      "hit": false,
      "t": 35159.180000000015,
      "d": 191.0824999999968,
      "v": 127
    },
    {
      "midi": 60,
      "hit": false,
      "t": 35159.18000000003,
      "d": 191.0824999999968,
      "v": 127
    },
    {
      "midi": 55,
      "hit": false,
      "t": 35159.18000000003,
      "d": 191.0824999999968,
      "v": 127
    },
    {
      "midi": 70,
      "hit": false,
      "t": 35350.26250000001,
      "d": 191.0824999999968,
      "v": 127
    },
    {
      "midi": 58,
      "hit": false,
      "t": 35350.262500000026,
      "d": 191.0824999999968,
      "v": 127
    },
    {
      "midi": 55,
      "hit": false,
      "t": 35350.262500000026,
      "d": 191.0824999999968,
      "v": 127
    },
    {
      "midi": 72,
      "hit": false,
      "t": 35541.34500000001,
      "d": 382.1650000000009,
      "v": 127
    },
    {
      "midi": 60,
      "hit": false,
      "t": 35541.34500000002,
      "d": 382.1650000000009,
      "v": 127
    },
    {
      "midi": 55,
      "hit": false,
      "t": 35541.34500000002,
      "d": 382.1650000000009,
      "v": 127
    },
    {
      "midi": 52,
      "hit": false,
      "t": 35923.510000000024,
      "d": 191.0824999999968,
      "v": 127
    },
    {
      "midi": 40,
      "hit": false,
      "t": 35923.510000000024,
      "d": 191.0824999999968,
      "v": 127
    },
    {
      "midi": 53,
      "hit": false,
      "t": 36114.59250000002,
      "d": 191.0824999999968,
      "v": 127
    },
    {
      "midi": 41,
      "hit": false,
      "t": 36114.59250000002,
      "d": 191.0824999999968,
      "v": 127
    },
    {
      "midi": 54,
      "hit": false,
      "t": 36305.67500000002,
      "d": 191.0824999999968,
      "v": 127
    },
    {
      "midi": 42,
      "hit": false,
      "t": 36305.67500000002,
      "d": 191.0824999999968,
      "v": 127
    },
    {
      "midi": 67,
      "hit": false,
      "t": 36496.75750000001,
      "d": 955.4124999999985,
      "v": 127
    },
    {
      "midi": 55,
      "hit": false,
      "t": 36496.757500000014,
      "d": 191.0824999999968,
      "v": 127
    },
    {
      "midi": 43,
      "hit": false,
      "t": 36496.757500000014,
      "d": 382.1649999999936,
      "v": 127
    },
    {
      "midi": 55,
      "hit": false,
      "t": 36687.84000000001,
      "d": 191.0824999999968,
      "v": 127
    },
    {
      "midi": 55,
      "hit": false,
      "t": 36878.92250000001,
      "d": 191.0824999999968,
      "v": 127
    },
    {
      "midi": 43,
      "hit": false,
      "t": 36878.92250000001,
      "d": 382.1649999999936,
      "v": 127
    },
    {
      "midi": 55,
      "hit": false,
      "t": 37070.005000000005,
      "d": 382.1649999999936,
      "v": 127
    },
    {
      "midi": 43,
      "hit": false,
      "t": 37261.0875,
      "d": 382.1649999999936,
      "v": 127
    },
    {
      "midi": 55,
      "hit": false,
      "t": 37452.17,
      "d": 191.0824999999968,
      "v": 127
    },
    {
      "midi": 62,
      "hit": false,
      "t": 37452.170000000006,
      "d": 191.0824999999968,
      "v": 127
    },
    {
      "midi": 55,
      "hit": false,
      "t": 37643.252499999995,
      "d": 191.0824999999968,
      "v": 127
    },
    {
      "midi": 43,
      "hit": false,
      "t": 37643.252499999995,
      "d": 382.1649999999936,
      "v": 127
    },
    {
      "midi": 64,
      "hit": false,
      "t": 37643.2525,
      "d": 191.0824999999968,
      "v": 127
    },
    {
      "midi": 55,
      "hit": false,
      "t": 37834.33499999999,
      "d": 191.0824999999968,
      "v": 127
    },
    {
      "midi": 67,
      "hit": false,
      "t": 37834.335,
      "d": 1337.5774999999994,
      "v": 127
    },
    {
      "midi": 55,
      "hit": false,
      "t": 38025.41749999999,
      "d": 382.1650000000009,
      "v": 127
    },
    {
      "midi": 60,
      "hit": false,
      "t": 38025.41749999999,
      "d": 382.1650000000009,
      "v": 127
    },
    {
      "midi": 60,
      "hit": false,
      "t": 38407.58249999999,
      "d": 191.0824999999968,
      "v": 127
    },
    {
      "midi": 55,
      "hit": false,
      "t": 38407.58249999999,
      "d": 382.1649999999936,
      "v": 127
    },
    {
      "midi": 60,
      "hit": false,
      "t": 38598.664999999986,
      "d": 191.0824999999968,
      "v": 127
    },
    {
      "midi": 60,
      "hit": false,
      "t": 38789.74749999998,
      "d": 191.0824999999968,
      "v": 127
    },
    {
      "midi": 55,
      "hit": false,
      "t": 38789.74749999998,
      "d": 382.1649999999936,
      "v": 127
    },
    {
      "midi": 60,
      "hit": false,
      "t": 38980.82999999998,
      "d": 382.1649999999936,
      "v": 127
    },
    {
      "midi": 55,
      "hit": false,
      "t": 39171.91249999998,
      "d": 382.1649999999936,
      "v": 127
    },
    {
      "midi": 69,
      "hit": false,
      "t": 39171.9125,
      "d": 191.0824999999968,
      "v": 127
    },
    {
      "midi": 60,
      "hit": false,
      "t": 39362.99499999997,
      "d": 191.0824999999968,
      "v": 127
    },
    {
      "midi": 71,
      "hit": false,
      "t": 39362.994999999995,
      "d": 1337.5774999999994,
      "v": 127
    },
    {
      "midi": 62,
      "hit": false,
      "t": 39554.07749999997,
      "d": 191.0824999999968,
      "v": 127
    },
    {
      "midi": 55,
      "hit": false,
      "t": 39554.07749999997,
      "d": 382.1649999999936,
      "v": 127
    },
    {
      "midi": 62,
      "hit": false,
      "t": 39745.15999999997,
      "d": 191.0824999999968,
      "v": 127
    },
    {
      "midi": 55,
      "hit": false,
      "t": 39936.242499999964,
      "d": 382.1650000000009,
      "v": 127
    },
    {
      "midi": 62,
      "hit": false,
      "t": 39936.242499999964,
      "d": 382.1650000000009,
      "v": 127
    },
    {
      "midi": 62,
      "hit": false,
      "t": 40318.407499999965,
      "d": 191.0824999999968,
      "v": 127
    },
    {
      "midi": 55,
      "hit": false,
      "t": 40318.407499999965,
      "d": 382.1649999999936,
      "v": 127
    },
    {
      "midi": 62,
      "hit": false,
      "t": 40509.48999999996,
      "d": 191.0824999999968,
      "v": 127
    },
    {
      "midi": 62,
      "hit": false,
      "t": 40700.57249999996,
      "d": 191.0824999999968,
      "v": 127
    },
    {
      "midi": 55,
      "hit": false,
      "t": 40700.57249999996,
      "d": 382.1649999999936,
      "v": 127
    },
    {
      "midi": 64,
      "hit": false,
      "t": 40700.572499999995,
      "d": 191.0824999999968,
      "v": 127
    },
    {
      "midi": 62,
      "hit": false,
      "t": 40891.654999999955,
      "d": 191.0824999999968,
      "v": 127
    },
    {
      "midi": 67,
      "hit": false,
      "t": 40891.65499999999,
      "d": 1146.4950000000026,
      "v": 127
    },
    {
      "midi": 60,
      "hit": false,
      "t": 41082.73749999995,
      "d": 191.0824999999968,
      "v": 127
    },
    {
      "midi": 55,
      "hit": false,
      "t": 41082.73749999995,
      "d": 382.1649999999936,
      "v": 127
    },
    {
      "midi": 60,
      "hit": false,
      "t": 41273.81999999995,
      "d": 191.0824999999968,
      "v": 127
    },
    {
      "midi": 60,
      "hit": false,
      "t": 41464.902499999946,
      "d": 191.0824999999968,
      "v": 127
    },
    {
      "midi": 55,
      "hit": false,
      "t": 41464.902499999946,
      "d": 382.1649999999936,
      "v": 127
    },
    {
      "midi": 60,
      "hit": false,
      "t": 41655.98499999994,
      "d": 191.0824999999968,
      "v": 127
    },
    {
      "midi": 55,
      "hit": false,
      "t": 41847.06749999994,
      "d": 191.0824999999968,
      "v": 127
    },
    {
      "midi": 60,
      "hit": false,
      "t": 41847.06749999994,
      "d": 191.0824999999968,
      "v": 127
    },
    {
      "midi": 40,
      "hit": false,
      "t": 42038.149999999936,
      "d": 191.0824999999968,
      "v": 127
    },
    {
      "midi": 52,
      "hit": false,
      "t": 42038.149999999936,
      "d": 191.0824999999968,
      "v": 127
    },
    {
      "midi": 52,
      "hit": false,
      "t": 42038.149999999994,
      "d": 191.0824999999968,
      "v": 127
    },
    {
      "midi": 41,
      "hit": false,
      "t": 42229.23249999993,
      "d": 191.0824999999968,
      "v": 127
    },
    {
      "midi": 53,
      "hit": false,
      "t": 42229.23249999993,
      "d": 191.0824999999968,
      "v": 127
    },
    {
      "midi": 53,
      "hit": false,
      "t": 42229.23249999999,
      "d": 191.0824999999968,
      "v": 127
    },
    {
      "midi": 48,
      "hit": false,
      "t": 42420.31499999993,
      "d": 191.0824999999968,
      "v": 127
    },
    {
      "midi": 54,
      "hit": false,
      "t": 42420.31499999993,
      "d": 191.0824999999968,
      "v": 127
    },
    {
      "midi": 54,
      "hit": false,
      "t": 42420.31499999999,
      "d": 191.0824999999968,
      "v": 127
    },
    {
      "midi": 47,
      "hit": false,
      "t": 42611.39749999993,
      "d": 191.0824999999968,
      "v": 127
    },
    {
      "midi": 55,
      "hit": false,
      "t": 42611.39749999993,
      "d": 191.0824999999968,
      "v": 127
    },
    {
      "midi": 79,
      "hit": false,
      "t": 42611.397499999985,
      "d": 955.4124999999985,
      "v": 127
    },
    {
      "midi": 74,
      "hit": false,
      "t": 42611.397499999985,
      "d": 955.4124999999985,
      "v": 127
    },
    {
      "midi": 55,
      "hit": false,
      "t": 42802.47999999992,
      "d": 191.0824999999968,
      "v": 127
    },
    {
      "midi": 59,
      "hit": false,
      "t": 42802.47999999992,
      "d": 191.0824999999968,
      "v": 127
    },
    {
      "midi": 47,
      "hit": false,
      "t": 42993.56249999992,
      "d": 191.0824999999968,
      "v": 127
    },
    {
      "midi": 55,
      "hit": false,
      "t": 42993.56249999992,
      "d": 191.0824999999968,
      "v": 127
    },
    {
      "midi": 47,
      "hit": false,
      "t": 43184.64499999992,
      "d": 191.0824999999968,
      "v": 127
    },
    {
      "midi": 55,
      "hit": false,
      "t": 43184.64499999992,
      "d": 382.1649999999936,
      "v": 127
    },
    {
      "midi": 47,
      "hit": false,
      "t": 43375.72749999991,
      "d": 191.0824999999968,
      "v": 127
    },
    {
      "midi": 55,
      "hit": false,
      "t": 43566.80999999991,
      "d": 191.0824999999968,
      "v": 127
    },
    {
      "midi": 47,
      "hit": false,
      "t": 43566.80999999991,
      "d": 191.0824999999968,
      "v": 127
    },
    {
      "midi": 74,
      "hit": false,
      "t": 43566.80999999998,
      "d": 191.0824999999968,
      "v": 127
    },
    {
      "midi": 71,
      "hit": false,
      "t": 43566.80999999998,
      "d": 191.0824999999968,
      "v": 127
    },
    {
      "midi": 55,
      "hit": false,
      "t": 43757.89249999991,
      "d": 191.0824999999968,
      "v": 127
    },
    {
      "midi": 47,
      "hit": false,
      "t": 43757.89249999991,
      "d": 191.0824999999968,
      "v": 127
    },
    {
      "midi": 76,
      "hit": false,
      "t": 43757.89249999998,
      "d": 191.0824999999968,
      "v": 127
    },
    {
      "midi": 74,
      "hit": false,
      "t": 43757.89249999998,
      "d": 191.0824999999968,
      "v": 127
    },
    {
      "midi": 55,
      "hit": false,
      "t": 43948.974999999904,
      "d": 190.28632291666872,
      "v": 127
    },
    {
      "midi": 47,
      "hit": false,
      "t": 43948.974999999904,
      "d": 191.08250000000407,
      "v": 127
    },
    {
      "midi": 79,
      "hit": false,
      "t": 43948.97499999998,
      "d": 191.0824999999968,
      "v": 127
    },
    {
      "midi": 74,
      "hit": false,
      "t": 43948.97499999998,
      "d": 191.0824999999968,
      "v": 127
    },
    {
      "midi": 60,
      "hit": false,
      "t": 44140.05749999991,
      "d": 382.1650000000009,
      "v": 127
    },
    {
      "midi": 55,
      "hit": false,
      "t": 44140.05749999991,
      "d": 382.1650000000009,
      "v": 127
    },
    {
      "midi": 52,
      "hit": false,
      "t": 44140.05749999991,
      "d": 382.1650000000009,
      "v": 127
    },
    {
      "midi": 48,
      "hit": false,
      "t": 44140.05749999991,
      "d": 382.1650000000009,
      "v": 127
    },
    {
      "midi": 74,
      "hit": false,
      "t": 44140.05749999997,
      "d": 191.0824999999968,
      "v": 127
    },
    {
      "midi": 79,
      "hit": false,
      "t": 44140.05749999997,
      "d": 1146.4949999999953,
      "v": 127
    },
    {
      "midi": 72,
      "hit": false,
      "t": 44331.13999999997,
      "d": 955.4124999999985,
      "v": 127
    },
    {
      "midi": 60,
      "hit": false,
      "t": 44522.22249999991,
      "d": 191.0824999999968,
      "v": 127
    },
    {
      "midi": 55,
      "hit": false,
      "t": 44522.22249999991,
      "d": 382.1649999999936,
      "v": 127
    },
    {
      "midi": 52,
      "hit": false,
      "t": 44522.22249999991,
      "d": 382.1649999999936,
      "v": 127
    },
    {
      "midi": 48,
      "hit": false,
      "t": 44522.22249999991,
      "d": 382.1649999999936,
      "v": 127
    },
    {
      "midi": 60,
      "hit": false,
      "t": 44713.304999999906,
      "d": 191.0824999999968,
      "v": 127
    },
    {
      "midi": 60,
      "hit": false,
      "t": 44904.3874999999,
      "d": 191.0824999999968,
      "v": 127
    },
    {
      "midi": 55,
      "hit": false,
      "t": 44904.3874999999,
      "d": 382.1649999999936,
      "v": 127
    },
    {
      "midi": 52,
      "hit": false,
      "t": 44904.3874999999,
      "d": 382.1649999999936,
      "v": 127
    },
    {
      "midi": 48,
      "hit": false,
      "t": 44904.3874999999,
      "d": 382.1649999999936,
      "v": 127
    },
    {
      "midi": 60,
      "hit": false,
      "t": 45095.4699999999,
      "d": 382.1649999999936,
      "v": 127
    },
    {
      "midi": 55,
      "hit": false,
      "t": 45286.552499999896,
      "d": 382.1649999999936,
      "v": 127
    },
    {
      "midi": 52,
      "hit": false,
      "t": 45286.552499999896,
      "d": 382.1649999999936,
      "v": 127
    },
    {
      "midi": 48,
      "hit": false,
      "t": 45286.552499999896,
      "d": 382.1649999999936,
      "v": 127
    },
    {
      "midi": 81,
      "hit": false,
      "t": 45286.55249999997,
      "d": 191.0824999999968,
      "v": 127
    },
    {
      "midi": 76,
      "hit": false,
      "t": 45286.55249999997,
      "d": 191.0824999999968,
      "v": 127
    },
    {
      "midi": 60,
      "hit": false,
      "t": 45477.63499999989,
      "d": 191.0824999999968,
      "v": 127
    },
    {
      "midi": 79,
      "hit": false,
      "t": 45477.634999999966,
      "d": 191.0824999999968,
      "v": 127
    },
    {
      "midi": 83,
      "hit": false,
      "t": 45477.634999999966,
      "d": 1337.5774999999921,
      "v": 127
    },
    {
      "midi": 55,
      "hit": false,
      "t": 45668.71749999989,
      "d": 382.1650000000009,
      "v": 127
    },
    {
      "midi": 50,
      "hit": false,
      "t": 45668.71749999989,
      "d": 382.1650000000009,
      "v": 127
    },
    {
      "midi": 47,
      "hit": false,
      "t": 45668.71749999989,
      "d": 382.1650000000009,
      "v": 127
    },
    {
      "midi": 79,
      "hit": false,
      "t": 45668.71749999996,
      "d": 191.0824999999968,
      "v": 127
    },
    {
      "midi": 74,
      "hit": false,
      "t": 45859.79999999996,
      "d": 955.4124999999985,
      "v": 127
    },
    {
      "midi": 55,
      "hit": false,
      "t": 46050.88249999989,
      "d": 382.1650000000009,
      "v": 127
    },
    {
      "midi": 50,
      "hit": false,
      "t": 46050.88249999989,
      "d": 382.1650000000009,
      "v": 127
    },
    {
      "midi": 47,
      "hit": false,
      "t": 46050.88249999989,
      "d": 382.1650000000009,
      "v": 127
    },
    {
      "midi": 55,
      "hit": false,
      "t": 46433.04749999989,
      "d": 382.1650000000009,
      "v": 127
    },
    {
      "midi": 50,
      "hit": false,
      "t": 46433.04749999989,
      "d": 382.1650000000009,
      "v": 127
    },
    {
      "midi": 47,
      "hit": false,
      "t": 46433.04749999989,
      "d": 382.1650000000009,
      "v": 127
    },
    {
      "midi": 55,
      "hit": false,
      "t": 46815.21249999989,
      "d": 382.1650000000009,
      "v": 127
    },
    {
      "midi": 50,
      "hit": false,
      "t": 46815.21249999989,
      "d": 382.1650000000009,
      "v": 127
    },
    {
      "midi": 47,
      "hit": false,
      "t": 46815.21249999989,
      "d": 382.1650000000009,
      "v": 127
    },
    {
      "midi": 83,
      "hit": false,
      "t": 46815.21249999996,
      "d": 191.0824999999968,
      "v": 127
    },
    {
      "midi": 76,
      "hit": false,
      "t": 46815.21249999996,
      "d": 191.0824999999968,
      "v": 127
    },
    {
      "midi": 84,
      "hit": false,
      "t": 47006.294999999955,
      "d": 1719.7425000000003,
      "v": 127
    },
    {
      "midi": 79,
      "hit": false,
      "t": 47006.294999999955,
      "d": 1719.7425000000003,
      "v": 127
    },
    {
      "midi": 55,
      "hit": false,
      "t": 47197.37749999989,
      "d": 382.1649999999936,
      "v": 127
    },
    {
      "midi": 48,
      "hit": false,
      "t": 47197.37749999989,
      "d": 382.1649999999936,
      "v": 127
    },
    {
      "midi": 52,
      "hit": false,
      "t": 47197.37749999989,
      "d": 1528.6599999999744,
      "v": 127
    },
    {
      "midi": 60,
      "hit": false,
      "t": 47388.45999999989,
      "d": 191.0824999999968,
      "v": 127
    },
    {
      "midi": 60,
      "hit": false,
      "t": 47579.54249999989,
      "d": 191.0824999999968,
      "v": 127
    },
    {
      "midi": 55,
      "hit": false,
      "t": 47579.54249999989,
      "d": 382.1649999999936,
      "v": 127
    },
    {
      "midi": 48,
      "hit": false,
      "t": 47579.54249999989,
      "d": 382.1649999999936,
      "v": 127
    },
    {
      "midi": 60,
      "hit": false,
      "t": 47770.62499999988,
      "d": 191.0824999999968,
      "v": 127
    },
    {
      "midi": 60,
      "hit": false,
      "t": 47961.70749999988,
      "d": 191.0824999999968,
      "v": 127
    },
    {
      "midi": 55,
      "hit": false,
      "t": 47961.70749999988,
      "d": 382.1649999999936,
      "v": 127
    },
    {
      "midi": 48,
      "hit": false,
      "t": 47961.70749999988,
      "d": 382.1649999999936,
      "v": 127
    },
    {
      "midi": 60,
      "hit": false,
      "t": 48152.78999999988,
      "d": 191.0824999999968,
      "v": 127
    },
    {
      "midi": 60,
      "hit": false,
      "t": 48343.872499999874,
      "d": 191.0824999999968,
      "v": 127
    },
    {
      "midi": 55,
      "hit": false,
      "t": 48343.872499999874,
      "d": 382.1649999999936,
      "v": 127
    },
    {
      "midi": 48,
      "hit": false,
      "t": 48343.872499999874,
      "d": 382.1649999999936,
      "v": 127
    },
    {
      "midi": 60,
      "hit": false,
      "t": 48534.95499999987,
      "d": 191.0824999999968,
      "v": 127
    }
  ]
}