{
  "jsonPath": "Jazz/Avant-Garde Jazz/Lee Konitz/the-way-you-look-tonight-trio.json",
  "path": "Jazz\\Avant-Garde Jazz\\Lee Konitz\\The Way You Look Tonight (trio).mid",
  "name": "The Way You Look Tonight (trio)",
  "difficulty": "Advanced",
  "bpm": 85.00004250002125,
  "notes": [
    {
      "midi": 72,
      "hit": false,
      "t": 2852.9397499999995,
      "d": 1080.1465187499998,
      "v": 58
    },
    {
      "midi": 67,
      "hit": false,
      "t": 2857.3515124999994,
      "d": 1056.61711875,
      "v": 60
    },
    {
      "midi": 62,
      "hit": false,
      "t": 2861.7632749999993,
      "d": 833.8231124999998,
      "v": 62
    },
    {
      "midi": 57,
      "hit": false,
      "t": 2869.116212499999,
      "d": 916.1760125000001,
      "v": 52
    },
    {
      "midi": 77,
      "hit": false,
      "t": 4258.821399999999,
      "d": 742.6466874999987,
      "v": 43
    },
    {
      "midi": 65,
      "hit": false,
      "t": 4266.174337499999,
      "d": 494.85269374999916,
      "v": 36
    },
    {
      "midi": 72,
      "hit": false,
      "t": 4266.909631249999,
      "d": 699.2643562499989,
      "v": 46
    },
    {
      "midi": 57,
      "hit": false,
      "t": 4274.2625687499985,
      "d": 765.4407937499991,
      "v": 34
    },
    {
      "midi": 60,
      "hit": false,
      "t": 4278.674331249998,
      "d": 793.3819562499993,
      "v": 32
    },
    {
      "midi": 50,
      "hit": false,
      "t": 4300.733143749998,
      "d": 713.9702312499994,
      "v": 34
    },
    {
      "midi": 57,
      "hit": false,
      "t": 5673.526574999998,
      "d": 43.38233124999988,
      "v": 70
    },
    {
      "midi": 62,
      "hit": false,
      "t": 5675.732456249998,
      "d": 36.029393750000054,
      "v": 75
    },
    {
      "midi": 58,
      "hit": false,
      "t": 5680.144218749998,
      "d": 58.82349999999951,
      "v": 61
    },
    {
      "midi": 91,
      "hit": false,
      "t": 5683.085393749998,
      "d": 63.23526249999941,
      "v": 79
    },
    {
      "midi": 79,
      "hit": false,
      "t": 5688.967743749998,
      "d": 33.088218750000124,
      "v": 66
    },
    {
      "midi": 86,
      "hit": false,
      "t": 5690.438331249998,
      "d": 27.205868750000263,
      "v": 68
    },
    {
      "midi": 62,
      "hit": false,
      "t": 6149.261631249997,
      "d": 192.64696249999906,
      "v": 62
    },
    {
      "midi": 57,
      "hit": false,
      "t": 6150.732218749997,
      "d": 198.52931249999892,
      "v": 52
    },
    {
      "midi": 93,
      "hit": false,
      "t": 6151.467512499997,
      "d": 144.1175749999993,
      "v": 78
    },
    {
      "midi": 58,
      "hit": false,
      "t": 6158.0851562499965,
      "d": 180.14696874999936,
      "v": 51
    },
    {
      "midi": 81,
      "hit": false,
      "t": 6158.8204499999965,
      "d": 130.14699374999964,
      "v": 61
    },
    {
      "midi": 88,
      "hit": false,
      "t": 6163.232212499996,
      "d": 190.44108124999912,
      "v": 60
    },
    {
      "midi": 53,
      "hit": false,
      "t": 6166.173387499996,
      "d": 174.2646187499995,
      "v": 42
    },
    {
      "midi": 94,
      "hit": false,
      "t": 6414.702674999996,
      "d": 156.61756874999992,
      "v": 64
    },
    {
      "midi": 88,
      "hit": false,
      "t": 6416.173262499996,
      "d": 124.99993749999976,
      "v": 46
    },
    {
      "midi": 62,
      "hit": false,
      "t": 6419.849731249996,
      "d": 125.73523124999974,
      "v": 44
    },
    {
      "midi": 82,
      "hit": false,
      "t": 6421.320318749996,
      "d": 150.73521875000006,
      "v": 51
    },
    {
      "midi": 53,
      "hit": false,
      "t": 6424.996787499996,
      "d": 322.0586624999987,
      "v": 43
    },
    {
      "midi": 58,
      "hit": false,
      "t": 6425.732081249996,
      "d": 141.17640000000029,
      "v": 49
    },
    {
      "midi": 57,
      "hit": false,
      "t": 6436.761487499995,
      "d": 299.26455624999926,
      "v": 47
    },
    {
      "midi": 62,
      "hit": false,
      "t": 6611.026106249996,
      "d": 98.52936249999857,
      "v": 35
    },
    {
      "midi": 58,
      "hit": false,
      "t": 6625.731981249995,
      "d": 108.82347499999923,
      "v": 27
    },
    {
      "midi": 93,
      "hit": false,
      "t": 6632.349624999995,
      "d": 68.38231874999929,
      "v": 56
    },
    {
      "midi": 81,
      "hit": false,
      "t": 6638.231974999995,
      "d": 70.58819999999923,
      "v": 36
    },
    {
      "midi": 88,
      "hit": false,
      "t": 6649.996674999995,
      "d": 42.6470374999999,
      "v": 28
    },
    {
      "midi": 62,
      "hit": false,
      "t": 6865.437743749994,
      "d": 369.8527562499994,
      "v": 54
    },
    {
      "midi": 91,
      "hit": false,
      "t": 6869.849506249994,
      "d": 257.35281249999935,
      "v": 61
    },
    {
      "midi": 52,
      "hit": false,
      "t": 6871.320093749994,
      "d": 422.0586124999991,
      "v": 46
    },
    {
      "midi": 79,
      "hit": false,
      "t": 6873.525974999994,
      "d": 318.3821937499997,
      "v": 45
    },
    {
      "midi": 58,
      "hit": false,
      "t": 6877.202443749994,
      "d": 399.2645062499996,
      "v": 46
    },
    {
      "midi": 86,
      "hit": false,
      "t": 6885.290674999994,
      "d": 272.0586874999999,
      "v": 44
    },
    {
      "midi": 73,
      "hit": false,
      "t": 8223.525299999994,
      "d": 208.82342499999868,
      "v": 77
    },
    {
      "midi": 68,
      "hit": false,
      "t": 8227.937062499994,
      "d": 233.0881187499981,
      "v": 81
    },
    {
      "midi": 64,
      "hit": false,
      "t": 8231.613531249994,
      "d": 191.1763749999991,
      "v": 87
    },
    {
      "midi": 70,
      "hit": false,
      "t": 8234.554706249994,
      "d": 227.94106249999822,
      "v": 72
    },
    {
      "midi": 65,
      "hit": false,
      "t": 8247.054699999993,
      "d": 27.205868749999354,
      "v": 66
    },
    {
      "midi": 72,
      "hit": false,
      "t": 8497.054574999991,
      "d": 819.1172375000006,
      "v": 66
    },
    {
      "midi": 67,
      "hit": false,
      "t": 8499.260456249991,
      "d": 854.4113374999997,
      "v": 70
    },
    {
      "midi": 57,
      "hit": false,
      "t": 8505.87809999999,
      "d": 758.0878562500002,
      "v": 51
    },
    {
      "midi": 62,
      "hit": false,
      "t": 8510.28986249999,
      "d": 722.793756250001,
      "v": 59
    },
    {
      "midi": 70,
      "hit": false,
      "t": 9420.583524999991,
      "d": 98.52936249999948,
      "v": 71
    },
    {
      "midi": 61,
      "hit": false,
      "t": 9561.024631249991,
      "d": 269.8528062499954,
      "v": 52
    },
    {
      "midi": 60,
      "hit": false,
      "t": 9563.230512499991,
      "d": 137.49993124999855,
      "v": 53
    },
    {
      "midi": 65,
      "hit": false,
      "t": 9565.436393749991,
      "d": 199.99989999999707,
      "v": 55
    },
    {
      "midi": 55,
      "hit": false,
      "t": 9575.73050624999,
      "d": 172.05873749999773,
      "v": 50
    },
    {
      "midi": 72,
      "hit": false,
      "t": 9576.46579999999,
      "d": 93.3823062499996,
      "v": 88
    },
    {
      "midi": 58,
      "hit": false,
      "t": 9598.52461249999,
      "d": 183.82343749999745,
      "v": 33
    },
    {
      "midi": 70,
      "hit": false,
      "t": 9727.936312499989,
      "d": 116.17641249999724,
      "v": 65
    },
    {
      "midi": 64,
      "hit": false,
      "t": 9878.671531249985,
      "d": 408.8233250000012,
      "v": 49
    },
    {
      "midi": 60,
      "hit": false,
      "t": 9884.553881249985,
      "d": 476.4703500000014,
      "v": 33
    },
    {
      "midi": 54,
      "hit": false,
      "t": 9891.171524999985,
      "d": 1037.499481249999,
      "v": 32
    },
    {
      "midi": 69,
      "hit": false,
      "t": 9892.642112499985,
      "d": 355.88217500000064,
      "v": 57
    },
    {
      "midi": 81,
      "hit": false,
      "t": 10565.435893749987,
      "d": 370.58804999999666,
      "v": 55
    },
    {
      "midi": 77,
      "hit": false,
      "t": 10582.347649999987,
      "d": 338.2351249999974,
      "v": 48
    },
    {
      "midi": 74,
      "hit": false,
      "t": 10591.906468749987,
      "d": 309.5586687499981,
      "v": 50
    },
    {
      "midi": 64,
      "hit": false,
      "t": 10597.788818749987,
      "d": 334.5586562499975,
      "v": 42
    },
    {
      "midi": 60,
      "hit": false,
      "t": 10600.729993749987,
      "d": 292.6469124999985,
      "v": 34
    },
    {
      "midi": 69,
      "hit": false,
      "t": 10619.112337499986,
      "d": 213.97048124999856,
      "v": 33
    },
    {
      "midi": 82,
      "hit": false,
      "t": 11552.200106249984,
      "d": 180.88226249999934,
      "v": 64
    },
    {
      "midi": 70,
      "hit": false,
      "t": 11560.288337499984,
      "d": 159.55874374999985,
      "v": 64
    },
    {
      "midi": 62,
      "hit": false,
      "t": 11573.523624999983,
      "d": 152.9411,
      "v": 64
    },
    {
      "midi": 58,
      "hit": false,
      "t": 11574.258918749983,
      "d": 169.8528562499996,
      "v": 56
    },
    {
      "midi": 53,
      "hit": false,
      "t": 11578.670681249983,
      "d": 148.5293375000001,
      "v": 50
    },
    {
      "midi": 57,
      "hit": false,
      "t": 11582.347149999983,
      "d": 155.88227499999994,
      "v": 55
    },
    {
      "midi": 84,
      "hit": false,
      "t": 11781.611756249982,
      "d": 119.85288124999897,
      "v": 71
    },
    {
      "midi": 72,
      "hit": false,
      "t": 11784.552931249982,
      "d": 104.41171249999934,
      "v": 68
    },
    {
      "midi": 62,
      "hit": false,
      "t": 11787.494106249982,
      "d": 147.05874999999833,
      "v": 68
    },
    {
      "midi": 53,
      "hit": false,
      "t": 11788.964693749982,
      "d": 133.82346249999864,
      "v": 61
    },
    {
      "midi": 58,
      "hit": false,
      "t": 11794.111749999982,
      "d": 163.23521249999794,
      "v": 71
    },
    {
      "midi": 83,
      "hit": false,
      "t": 11795.582337499982,
      "d": 36.76468749999913,
      "v": 54
    },
    {
      "midi": 57,
      "hit": false,
      "t": 11798.523512499982,
      "d": 166.91168124999786,
      "v": 68
    },
    {
      "midi": 86,
      "hit": false,
      "t": 12022.05281249998,
      "d": 173.52932499999952,
      "v": 83
    },
    {
      "midi": 74,
      "hit": false,
      "t": 12025.72928124998,
      "d": 163.97050624999974,
      "v": 90
    },
    {
      "midi": 58,
      "hit": false,
      "t": 12028.67045624998,
      "d": 174.99991249999948,
      "v": 61
    },
    {
      "midi": 82,
      "hit": false,
      "t": 12029.40574999998,
      "d": 180.14696874999936,
      "v": 65
    },
    {
      "midi": 53,
      "hit": false,
      "t": 12030.87633749998,
      "d": 169.11756249999962,
      "v": 68
    },
    {
      "midi": 62,
      "hit": false,
      "t": 12031.61163124998,
      "d": 169.11756249999962,
      "v": 73
    },
    {
      "midi": 57,
      "hit": false,
      "t": 12032.34692499998,
      "d": 390.4409812499962,
      "v": 65
    },
    {
      "midi": 79,
      "hit": false,
      "t": 12033.81751249998,
      "d": 156.61756874999992,
      "v": 65
    },
    {
      "midi": 62,
      "hit": false,
      "t": 12240.435056249979,
      "d": 125.73523124999883,
      "v": 37
    },
    {
      "midi": 53,
      "hit": false,
      "t": 12247.052699999978,
      "d": 176.47049999999763,
      "v": 24
    },
    {
      "midi": 58,
      "hit": false,
      "t": 12258.082106249978,
      "d": 127.94111249999878,
      "v": 56
    },
    {
      "midi": 86,
      "hit": false,
      "t": 12261.023281249978,
      "d": 106.61759374999929,
      "v": 63
    },
    {
      "midi": 74,
      "hit": false,
      "t": 12264.699749999978,
      "d": 117.64699999999903,
      "v": 50
    },
    {
      "midi": 82,
      "hit": false,
      "t": 12272.052687499978,
      "d": 113.97053124999911,
      "v": 49
    },
    {
      "midi": 79,
      "hit": false,
      "t": 12288.229149999977,
      "d": 45.588212500000736,
      "v": 45
    },
    {
      "midi": 53,
      "hit": false,
      "t": 12488.229049999976,
      "d": 124.99993749999703,
      "v": 41
    },
    {
      "midi": 84,
      "hit": false,
      "t": 12494.111399999976,
      "d": 86.76466249999794,
      "v": 66
    },
    {
      "midi": 62,
      "hit": false,
      "t": 12494.846693749976,
      "d": 97.0587749999977,
      "v": 56
    },
    {
      "midi": 58,
      "hit": false,
      "t": 12498.523162499976,
      "d": 133.08816874999684,
      "v": 60
    },
    {
      "midi": 79,
      "hit": false,
      "t": 12507.346687499976,
      "d": 41.911743749999005,
      "v": 53
    },
    {
      "midi": 57,
      "hit": false,
      "t": 12508.817274999976,
      "d": 39.70586249999906,
      "v": 46
    },
    {
      "midi": 72,
      "hit": false,
      "t": 12511.023156249976,
      "d": 66.91173124999841,
      "v": 48
    },
    {
      "midi": 58,
      "hit": false,
      "t": 12737.493631249974,
      "d": 188.97049374999915,
      "v": 44
    },
    {
      "midi": 62,
      "hit": false,
      "t": 12744.111274999974,
      "d": 162.49991874999978,
      "v": 51
    },
    {
      "midi": 82,
      "hit": false,
      "t": 12744.846568749974,
      "d": 152.20580625000002,
      "v": 59
    },
    {
      "midi": 52,
      "hit": false,
      "t": 12747.787743749974,
      "d": 181.61755624999932,
      "v": 48
    },
    {
      "midi": 70,
      "hit": false,
      "t": 12751.464212499974,
      "d": 100.73524374999943,
      "v": 48
    },
    {
      "midi": 77,
      "hit": false,
      "t": 12772.052437499973,
      "d": 72.79408125000009,
      "v": 34
    },
    {
      "midi": 82,
      "hit": false,
      "t": 12981.611156249974,
      "d": 122.7940562499989,
      "v": 44
    },
    {
      "midi": 52,
      "hit": false,
      "t": 12988.228799999973,
      "d": 99.99994999999944,
      "v": 24
    },
    {
      "midi": 62,
      "hit": false,
      "t": 12989.699387499973,
      "d": 80.14701874999992,
      "v": 44
    },
    {
      "midi": 58,
      "hit": false,
      "t": 12990.434681249973,
      "d": 108.82347499999923,
      "v": 27
    },
    {
      "midi": 70,
      "hit": false,
      "t": 13000.728793749973,
      "d": 49.26468125000065,
      "v": 29
    },
    {
      "midi": 80,
      "hit": false,
      "t": 13220.581624999973,
      "d": 28.67645624999932,
      "v": 72
    },
    {
      "midi": 52,
      "hit": false,
      "t": 13224.258093749973,
      "d": 166.91168124999967,
      "v": 77
    },
    {
      "midi": 62,
      "hit": false,
      "t": 13227.199268749973,
      "d": 183.82343749999927,
      "v": 79
    },
    {
      "midi": 58,
      "hit": false,
      "t": 13227.934562499973,
      "d": 194.11754999999903,
      "v": 76
    },
    {
      "midi": 84,
      "hit": false,
      "t": 13228.669856249973,
      "d": 154.41168749999997,
      "v": 85
    },
    {
      "midi": 72,
      "hit": false,
      "t": 13231.611031249973,
      "d": 147.05875000000015,
      "v": 78
    },
    {
      "midi": 79,
      "hit": false,
      "t": 13243.375731249973,
      "d": 161.7646249999998,
      "v": 73
    },
    {
      "midi": 86,
      "hit": false,
      "t": 13463.963856249973,
      "d": 154.41168749999815,
      "v": 80
    },
    {
      "midi": 74,
      "hit": false,
      "t": 13466.905031249973,
      "d": 147.7940437499983,
      "v": 74
    },
    {
      "midi": 79,
      "hit": false,
      "t": 13468.375618749973,
      "d": 165.4410937499979,
      "v": 50
    },
    {
      "midi": 52,
      "hit": false,
      "t": 13469.110912499973,
      "d": 336.76453749999564,
      "v": 60
    },
    {
      "midi": 58,
      "hit": false,
      "t": 13469.846206249973,
      "d": 356.61746874999517,
      "v": 69
    },
    {
      "midi": 62,
      "hit": false,
      "t": 13470.581499999973,
      "d": 317.6468999999961,
      "v": 77
    },
    {
      "midi": 82,
      "hit": false,
      "t": 13487.493256249973,
      "d": 36.029393749999144,
      "v": 37
    },
    {
      "midi": 86,
      "hit": false,
      "t": 13692.640212499971,
      "d": 111.76464999999735,
      "v": 60
    },
    {
      "midi": 74,
      "hit": false,
      "t": 13699.993149999971,
      "d": 70.58819999999832,
      "v": 39
    },
    {
      "midi": 79,
      "hit": false,
      "t": 13709.551968749971,
      "d": 43.38233124999897,
      "v": 34
    },
    {
      "midi": 82,
      "hit": false,
      "t": 13730.14019374997,
      "d": 33.8235124999992,
      "v": 23
    },
    {
      "midi": 58,
      "hit": false,
      "t": 13902.198931249968,
      "d": 102.94112499999756,
      "v": 50
    },
    {
      "midi": 62,
      "hit": false,
      "t": 13923.522449999968,
      "d": 34.55880624999918,
      "v": 35
    },
    {
      "midi": 88,
      "hit": false,
      "t": 13926.463624999968,
      "d": 96.32348124999771,
      "v": 66
    },
    {
      "midi": 76,
      "hit": false,
      "t": 13927.934212499968,
      "d": 66.91173124999841,
      "v": 59
    },
    {
      "midi": 58,
      "hit": false,
      "t": 14174.992912499965,
      "d": 1302.2052312499945,
      "v": 69
    },
    {
      "midi": 82,
      "hit": false,
      "t": 14175.728206249965,
      "d": 222.79400624999835,
      "v": 72
    },
    {
      "midi": 89,
      "hit": false,
      "t": 14177.198793749965,
      "d": 188.97049374999915,
      "v": 74
    },
    {
      "midi": 63,
      "hit": false,
      "t": 14178.669381249965,
      "d": 744.1172749999951,
      "v": 69
    },
    {
      "midi": 77,
      "hit": false,
      "t": 14183.081143749965,
      "d": 237.499881249998,
      "v": 74
    },
    {
      "midi": 53,
      "hit": false,
      "t": 14184.551731249965,
      "d": 1319.8522812499941,
      "v": 57
    },
    {
      "midi": 88,
      "hit": false,
      "t": 14201.463487499965,
      "d": 34.55880624999918,
      "v": 36
    },
    {
      "midi": 60,
      "hit": false,
      "t": 14202.934074999965,
      "d": 32.35292499999923,
      "v": 29
    },
    {
      "midi": 67,
      "hit": false,
      "t": 14566.169187499963,
      "d": 80.14701874999992,
      "v": 47
    },
    {
      "midi": 60,
      "hit": false,
      "t": 14569.845656249963,
      "d": 999.2642062499963,
      "v": 31
    },
    {
      "midi": 69,
      "hit": false,
      "t": 14644.110324999963,
      "d": 86.02936874999978,
      "v": 45
    },
    {
      "midi": 70,
      "hit": false,
      "t": 14723.522049999963,
      "d": 27.941162499999336,
      "v": 49
    },
    {
      "midi": 72,
      "hit": false,
      "t": 14773.522024999962,
      "d": 86.76466249999976,
      "v": 54
    },
    {
      "midi": 74,
      "hit": false,
      "t": 14865.433743749962,
      "d": 72.79408124999827,
      "v": 43
    },
    {
      "midi": 75,
      "hit": false,
      "t": 14908.08078124996,
      "d": 73.52937500000007,
      "v": 65
    },
    {
      "midi": 78,
      "hit": false,
      "t": 14988.22779999996,
      "d": 44.11762500000077,
      "v": 34
    },
    {
      "midi": 79,
      "hit": false,
      "t": 15066.90423124996,
      "d": 74.26466875000006,
      "v": 34
    },
    {
      "midi": 81,
      "hit": false,
      "t": 15138.22772499996,
      "d": 77.94113749999997,
      "v": 43
    },
    {
      "midi": 82,
      "hit": false,
      "t": 15186.021818749961,
      "d": 66.91173124999841,
      "v": 64
    },
    {
      "midi": 86,
      "hit": false,
      "t": 15322.78645624996,
      "d": 60.29408750000039,
      "v": 51
    },
    {
      "midi": 86,
      "hit": false,
      "t": 15405.13935624996,
      "d": 86.02936874999978,
      "v": 24
    },
    {
      "midi": 87,
      "hit": false,
      "t": 15452.19815624996,
      "d": 66.17643749999843,
      "v": 25
    },
    {
      "midi": 88,
      "hit": false,
      "t": 15509.551068749959,
      "d": 65.44114375000026,
      "v": 55
    },
    {
      "midi": 89,
      "hit": false,
      "t": 15610.286312499959,
      "d": 80.8823124999999,
      "v": 73
    },
    {
      "midi": 60,
      "hit": false,
      "t": 15627.198068749958,
      "d": 456.61741875000007,
      "v": 20
    },
    {
      "midi": 63,
      "hit": false,
      "t": 15631.609831249958,
      "d": 222.05871250000018,
      "v": 46
    },
    {
      "midi": 57,
      "hit": false,
      "t": 15638.227474999958,
      "d": 458.08800625000003,
      "v": 58
    },
    {
      "midi": 87,
      "hit": false,
      "t": 15802.197981249958,
      "d": 69.11761250000018,
      "v": 62
    },
    {
      "midi": 81,
      "hit": false,
      "t": 15943.374381249958,
      "d": 124.26464375000069,
      "v": 45
    },
    {
      "midi": 53,
      "hit": false,
      "t": 15986.021418749959,
      "d": 997.7936187499981,
      "v": 19
    },
    {
      "midi": 86,
      "hit": false,
      "t": 16111.021356249958,
      "d": 116.91170625000086,
      "v": 71
    },
    {
      "midi": 65,
      "hit": false,
      "t": 16276.462449999959,
      "d": 74.26466875000006,
      "v": 73
    },
    {
      "midi": 84,
      "hit": false,
      "t": 16279.403624999959,
      "d": 119.85288125000079,
      "v": 79
    },
    {
      "midi": 86,
      "hit": false,
      "t": 16283.080093749959,
      "d": 104.41171250000116,
      "v": 51
    },
    {
      "midi": 81,
      "hit": false,
      "t": 16460.28588749996,
      "d": 114.70582500000091,
      "v": 65
    },
    {
      "midi": 77,
      "hit": false,
      "t": 16625.726981249958,
      "d": 85.29407500000161,
      "v": 34
    },
    {
      "midi": 62,
      "hit": false,
      "t": 16955.138581249957,
      "d": 113.9705312499973,
      "v": 56
    },
    {
      "midi": 60,
      "hit": false,
      "t": 16961.756224999957,
      "d": 127.20581874999698,
      "v": 49
    },
    {
      "midi": 65,
      "hit": false,
      "t": 16962.491518749957,
      "d": 41.17644999999902,
      "v": 42
    },
    {
      "midi": 74,
      "hit": false,
      "t": 17201.461987499955,
      "d": 167.64697499999602,
      "v": 71
    },
    {
      "midi": 79,
      "hit": false,
      "t": 17205.873749999955,
      "d": 138.23522499999672,
      "v": 68
    },
    {
      "midi": 67,
      "hit": false,
      "t": 17206.609043749955,
      "d": 130.8822874999969,
      "v": 71
    },
    {
      "midi": 65,
      "hit": false,
      "t": 17213.226687499955,
      "d": 150.73521874999642,
      "v": 63
    },
    {
      "midi": 62,
      "hit": false,
      "t": 17216.167862499955,
      "d": 162.49991874999614,
      "v": 64
    },
    {
      "midi": 60,
      "hit": false,
      "t": 17223.520799999955,
      "d": 154.41168749999633,
      "v": 50
    },
    {
      "midi": 77,
      "hit": false,
      "t": 17226.461974999955,
      "d": 100.73524374999761,
      "v": 40
    },
    {
      "midi": 65,
      "hit": false,
      "t": 17413.22658749995,
      "d": 125.73523124999701,
      "v": 53
    },
    {
      "midi": 74,
      "hit": false,
      "t": 17419.84423124995,
      "d": 95.58818749999773,
      "v": 74
    },
    {
      "midi": 62,
      "hit": false,
      "t": 17420.57952499995,
      "d": 150.73521874999642,
      "v": 41
    },
    {
      "midi": 81,
      "hit": false,
      "t": 17427.93246249995,
      "d": 119.11758749999717,
      "v": 79
    },
    {
      "midi": 69,
      "hit": false,
      "t": 17433.07951874995,
      "d": 66.17643749999843,
      "v": 69
    },
    {
      "midi": 60,
      "hit": false,
      "t": 17436.02069374995,
      "d": 137.49993124999673,
      "v": 36
    },
    {
      "midi": 84,
      "hit": false,
      "t": 17662.491168749948,
      "d": 178.6763812499994,
      "v": 90
    },
    {
      "midi": 62,
      "hit": false,
      "t": 17665.432343749948,
      "d": 213.97048124999856,
      "v": 74
    },
    {
      "midi": 77,
      "hit": false,
      "t": 17666.167637499948,
      "d": 164.70579999999973,
      "v": 83
    },
    {
      "midi": 65,
      "hit": false,
      "t": 17668.373518749948,
      "d": 183.0881437499993,
      "v": 71
    },
    {
      "midi": 72,
      "hit": false,
      "t": 17669.108812499948,
      "d": 167.64697499999966,
      "v": 80
    },
    {
      "midi": 60,
      "hit": false,
      "t": 17673.520574999948,
      "d": 193.38225624999905,
      "v": 62
    },
    {
      "midi": 81,
      "hit": false,
      "t": 17676.461749999948,
      "d": 152.9411,
      "v": 64
    },
    {
      "midi": 84,
      "hit": false,
      "t": 17878.667531249946,
      "d": 91.17642499999783,
      "v": 32
    },
    {
      "midi": 72,
      "hit": false,
      "t": 17907.343987499946,
      "d": 61.76467499999853,
      "v": 52
    },
    {
      "midi": 65,
      "hit": false,
      "t": 17909.549868749946,
      "d": 58.8234999999986,
      "v": 29
    },
    {
      "midi": 77,
      "hit": false,
      "t": 17913.226337499946,
      "d": 108.82347499999742,
      "v": 37
    },
    {
      "midi": 62,
      "hit": false,
      "t": 17925.726331249945,
      "d": 69.11761249999836,
      "v": 14
    },
    {
      "midi": 82,
      "hit": false,
      "t": 18112.490943749945,
      "d": 94.11759999999776,
      "v": 64
    },
    {
      "midi": 62,
      "hit": false,
      "t": 18119.108587499944,
      "d": 54.41173749999871,
      "v": 54
    },
    {
      "midi": 70,
      "hit": false,
      "t": 18119.843881249944,
      "d": 98.52936249999766,
      "v": 60
    },
    {
      "midi": 65,
      "hit": false,
      "t": 18125.726231249944,
      "d": 33.088218749999214,
      "v": 41
    },
    {
      "midi": 60,
      "hit": false,
      "t": 18137.490931249944,
      "d": 33.088218749999214,
      "v": 46
    },
    {
      "midi": 58,
      "hit": false,
      "t": 18374.255518749942,
      "d": 441.1762499999968,
      "v": 50
    },
    {
      "midi": 62,
      "hit": false,
      "t": 18374.990812499942,
      "d": 452.20565624999654,
      "v": 40
    },
    {
      "midi": 81,
      "hit": false,
      "t": 18378.667281249942,
      "d": 408.0880312499976,
      "v": 50
    },
    {
      "midi": 57,
      "hit": false,
      "t": 18388.22609999994,
      "d": 372.05863749999844,
      "v": 50
    },
    {
      "midi": 74,
      "hit": false,
      "t": 18389.69668749994,
      "d": 467.64682499999617,
      "v": 48
    },
    {
      "midi": 77,
      "hit": false,
      "t": 18392.63786249994,
      "d": 423.5291999999972,
      "v": 42
    },
    {
      "midi": 69,
      "hit": false,
      "t": 18394.10844999994,
      "d": 472.79388124999605,
      "v": 34
    },
    {
      "midi": 53,
      "hit": false,
      "t": 18394.84374374994,
      "d": 403.6762687499977,
      "v": 27
    },
    {
      "midi": 76,
      "hit": false,
      "t": 19102.196331249936,
      "d": 341.91159374999916,
      "v": 39
    },
    {
      "midi": 73,
      "hit": false,
      "t": 19102.931624999936,
      "d": 402.9409749999977,
      "v": 32
    },
    {
      "midi": 61,
      "hit": false,
      "t": 19105.872799999936,
      "d": 398.5292124999978,
      "v": 35
    },
    {
      "midi": 67,
      "hit": false,
      "t": 19106.608093749936,
      "d": 361.0292312499987,
      "v": 41
    },
    {
      "midi": 79,
      "hit": false,
      "t": 19108.078681249935,
      "d": 322.7939562499996,
      "v": 43
    },
    {
      "midi": 64,
      "hit": false,
      "t": 19116.166912499935,
      "d": 336.7645374999993,
      "v": 37
    },
    {
      "midi": 58,
      "hit": false,
      "t": 19122.049262499935,
      "d": 483.8232874999994,
      "v": 37
    },
    {
      "midi": 77,
      "hit": false,
      "t": 19792.637162499934,
      "d": 37.49998124999911,
      "v": 35
    },
    {
      "midi": 72,
      "hit": false,
      "t": 19797.784218749934,
      "d": 31.61763124999925,
      "v": 43
    },
    {
      "midi": 57,
      "hit": false,
      "t": 19810.284212499933,
      "d": 86.02936874999796,
      "v": 37
    },
    {
      "midi": 62,
      "hit": false,
      "t": 19813.960681249933,
      "d": 30.882337499999267,
      "v": 27
    },
    {
      "midi": 72,
      "hit": false,
      "t": 20249.98987499993,
      "d": 170.5881499999996,
      "v": 51
    },
    {
      "midi": 57,
      "hit": false,
      "t": 20256.60751874993,
      "d": 253.6763437499976,
      "v": 43
    },
    {
      "midi": 64,
      "hit": false,
      "t": 20261.75457499993,
      "d": 131.6175812500005,
      "v": 44
    },
    {
      "midi": 67,
      "hit": false,
      "t": 20272.78398124993,
      "d": 127.20581875000062,
      "v": 35
    },
    {
      "midi": 69,
      "hit": false,
      "t": 20280.13691874993,
      "d": 158.82344999999987,
      "v": 32
    },
    {
      "midi": 69,
      "hit": false,
      "t": 20513.225037499928,
      "d": 374.264518750002,
      "v": 41
    },
    {
      "midi": 74,
      "hit": false,
      "t": 20515.430918749928,
      "d": 376.470400000002,
      "v": 53
    },
    {
      "midi": 65,
      "hit": false,
      "t": 20524.254443749927,
      "d": 274.99986250000075,
      "v": 46
    },
    {
      "midi": 62,
      "hit": false,
      "t": 20525.725031249927,
      "d": 359.5586437500024,
      "v": 50
    },
    {
      "midi": 73,
      "hit": false,
      "t": 21184.54823124993,
      "d": 31.61763124999925,
      "v": 64
    },
    {
      "midi": 69,
      "hit": false,
      "t": 21188.95999374993,
      "d": 461.7644749999963,
      "v": 83
    },
    {
      "midi": 81,
      "hit": false,
      "t": 21189.69528749993,
      "d": 422.79390624999724,
      "v": 74
    },
    {
      "midi": 77,
      "hit": false,
      "t": 21192.63646249993,
      "d": 537.4997312499945,
      "v": 58
    },
    {
      "midi": 57,
      "hit": false,
      "t": 21193.37175624993,
      "d": 350.73511874999895,
      "v": 64
    },
    {
      "midi": 80,
      "hit": false,
      "t": 21197.04822499993,
      "d": 44.11762499999895,
      "v": 33
    },
    {
      "midi": 62,
      "hit": false,
      "t": 21200.72469374993,
      "d": 405.88214999999764,
      "v": 62
    },
    {
      "midi": 74,
      "hit": false,
      "t": 21202.19528124993,
      "d": 452.20565624999654,
      "v": 74
    },
    {
      "midi": 58,
      "hit": false,
      "t": 21205.87174999993,
      "d": 402.9409749999977,
      "v": 64
    },
    {
      "midi": 76,
      "hit": false,
      "t": 21916.900806249923,
      "d": 361.0292312499987,
      "v": 47
    },
    {
      "midi": 79,
      "hit": false,
      "t": 21919.841981249923,
      "d": 336.0292437499993,
      "v": 45
    },
    {
      "midi": 73,
      "hit": false,
      "t": 21927.194918749923,
      "d": 375.73510624999835,
      "v": 36
    },
    {
      "midi": 61,
      "hit": false,
      "t": 21935.283149999923,
      "d": 384.55863124999814,
      "v": 35
    },
    {
      "midi": 64,
      "hit": false,
      "t": 21939.694912499923,
      "d": 343.3821812499991,
      "v": 44
    },
    {
      "midi": 58,
      "hit": false,
      "t": 21949.253731249923,
      "d": 466.9115312499998,
      "v": 38
    },
    {
      "midi": 67,
      "hit": false,
      "t": 21970.577249999922,
      "d": 336.0292437499993,
      "v": 13
    },
    {
      "midi": 76,
      "hit": false,
      "t": 22609.54751874992,
      "d": 429.41154999999344,
      "v": 57
    },
    {
      "midi": 65,
      "hit": false,
      "t": 22614.69457499992,
      "d": 472.0585874999924,
      "v": 63
    },
    {
      "midi": 57,
      "hit": false,
      "t": 22615.42986874992,
      "d": 274.2645687499971,
      "v": 42
    },
    {
      "midi": 62,
      "hit": false,
      "t": 22619.84163124992,
      "d": 265.44104374999733,
      "v": 45
    },
    {
      "midi": 72,
      "hit": false,
      "t": 22620.57692499992,
      "d": 445.58801249999306,
      "v": 40
    },
    {
      "midi": 69,
      "hit": false,
      "t": 22629.40044999992,
      "d": 466.17623749999257,
      "v": 41
    },
    {
      "midi": 50,
      "hit": false,
      "t": 23088.959043749914,
      "d": 423.5291999999972,
      "v": 74
    },
    {
      "midi": 74,
      "hit": false,
      "t": 23322.78245624991,
      "d": 148.5293375000001,
      "v": 61
    },
    {
      "midi": 60,
      "hit": false,
      "t": 23325.72363124991,
      "d": 187.49990624999919,
      "v": 44
    },
    {
      "midi": 65,
      "hit": false,
      "t": 23330.13539374991,
      "d": 179.41167499999938,
      "v": 55
    },
    {
      "midi": 69,
      "hit": false,
      "t": 23331.60598124991,
      "d": 134.55875625000044,
      "v": 53
    },
    {
      "midi": 58,
      "hit": false,
      "t": 23764.693999999912,
      "d": 812.4995937499989,
      "v": 74
    },
    {
      "midi": 69,
      "hit": false,
      "t": 23765.429293749912,
      "d": 776.4701999999997,
      "v": 64
    },
    {
      "midi": 62,
      "hit": false,
      "t": 23766.899881249912,
      "d": 705.8820000000014,
      "v": 72
    },
    {
      "midi": 57,
      "hit": false,
      "t": 23774.988112499912,
      "d": 672.7937812500022,
      "v": 70
    },
    {
      "midi": 65,
      "hit": false,
      "t": 23776.458699999912,
      "d": 703.6761187500015,
      "v": 60
    },
    {
      "midi": 48,
      "hit": false,
      "t": 24471.311293749914,
      "d": 201.47048749999885,
      "v": 46
    },
    {
      "midi": 58,
      "hit": false,
      "t": 24708.81117499991,
      "d": 138.23522500000036,
      "v": 39
    },
    {
      "midi": 55,
      "hit": false,
      "t": 24713.95823124991,
      "d": 137.49993125000037,
      "v": 40
    },
    {
      "midi": 61,
      "hit": false,
      "t": 24716.16411249991,
      "d": 177.20579374999943,
      "v": 46
    },
    {
      "midi": 67,
      "hit": false,
      "t": 24727.92881249991,
      "d": 179.41167499999938,
      "v": 39
    },
    {
      "midi": 64,
      "hit": false,
      "t": 24743.36998124991,
      "d": 150.73521875000006,
      "v": 41
    },
    {
      "midi": 86,
      "hit": false,
      "t": 25188.22269999991,
      "d": 152.20580625000002,
      "v": 74
    },
    {
      "midi": 74,
      "hit": false,
      "t": 25194.10504999991,
      "d": 166.91168124999967,
      "v": 67
    },
    {
      "midi": 84,
      "hit": false,
      "t": 25436.01669374991,
      "d": 318.3821937499997,
      "v": 57
    },
    {
      "midi": 41,
      "hit": false,
      "t": 25438.95786874991,
      "d": 173.52932499999952,
      "v": 24
    },
    {
      "midi": 72,
      "hit": false,
      "t": 25446.31080624991,
      "d": 364.7056999999986,
      "v": 34
    },
    {
      "midi": 57,
      "hit": false,
      "t": 25449.98727499991,
      "d": 270.58810000000085,
      "v": 43
    },
    {
      "midi": 48,
      "hit": false,
      "t": 25452.19315624991,
      "d": 184.55873124999925,
      "v": 32
    },
    {
      "midi": 69,
      "hit": false,
      "t": 26152.192806249906,
      "d": 272.0586875000008,
      "v": 45
    },
    {
      "midi": 76,
      "hit": false,
      "t": 26152.928099999906,
      "d": 150.73521875000006,
      "v": 46
    },
    {
      "midi": 64,
      "hit": false,
      "t": 26590.427881249907,
      "d": 290.4410312500004,
      "v": 87
    },
    {
      "midi": 79,
      "hit": false,
      "t": 26591.898468749907,
      "d": 200.7351937500025,
      "v": 87
    },
    {
      "midi": 72,
      "hit": false,
      "t": 26596.310231249907,
      "d": 204.41166250000242,
      "v": 85
    },
    {
      "midi": 69,
      "hit": false,
      "t": 26597.045524999907,
      "d": 196.3234312500026,
      "v": 92
    },
    {
      "midi": 72,
      "hit": false,
      "t": 26859.545393749908,
      "d": 304.41161250000005,
      "v": 71
    },
    {
      "midi": 77,
      "hit": false,
      "t": 26864.692449999908,
      "d": 284.5586812500005,
      "v": 70
    },
    {
      "midi": 69,
      "hit": false,
      "t": 26870.574799999908,
      "d": 304.41161250000005,
      "v": 64
    },
    {
      "midi": 62,
      "hit": false,
      "t": 26872.780681249908,
      "d": 248.52928750000137,
      "v": 68
    },
    {
      "midi": 69,
      "hit": false,
      "t": 27567.633274999906,
      "d": 178.6763812499994,
      "v": 49
    },
    {
      "midi": 57,
      "hit": false,
      "t": 27569.103862499906,
      "d": 243.38223124999786,
      "v": 47
    },
    {
      "midi": 65,
      "hit": false,
      "t": 27570.574449999905,
      "d": 215.44106874999852,
      "v": 50
    },
    {
      "midi": 64,
      "hit": false,
      "t": 27575.721506249905,
      "d": 174.99991249999948,
      "v": 50
    },
    {
      "midi": 50,
      "hit": false,
      "t": 28088.956543749904,
      "d": 170.5881499999996,
      "v": 36
    },
    {
      "midi": 58,
      "hit": false,
      "t": 28240.427056249904,
      "d": 64.70584999999846,
      "v": 62
    },
    {
      "midi": 43,
      "hit": false,
      "t": 28276.456449999903,
      "d": 947.7936437499848,
      "v": 31
    },
    {
      "midi": 60,
      "hit": false,
      "t": 28302.191731249903,
      "d": 104.41171249999752,
      "v": 58
    },
    {
      "midi": 58,
      "hit": false,
      "t": 28371.3093437499,
      "d": 108.08818124999743,
      "v": 23
    },
    {
      "midi": 57,
      "hit": false,
      "t": 28468.3681187499,
      "d": 78.67643124999813,
      "v": 47
    },
    {
      "midi": 50,
      "hit": false,
      "t": 28561.750424999896,
      "d": 237.499881249998,
      "v": 33
    },
    {
      "midi": 54,
      "hit": false,
      "t": 28594.103349999896,
      "d": 63.97055624999848,
      "v": 43
    },
    {
      "midi": 57,
      "hit": false,
      "t": 28688.956243749893,
      "d": 131.6175812500005,
      "v": 60
    },
    {
      "midi": 54,
      "hit": false,
      "t": 28834.544406249894,
      "d": 69.11761249999836,
      "v": 38
    },
    {
      "midi": 55,
      "hit": false,
      "t": 28945.57376249989,
      "d": 77.20584374999817,
      "v": 46
    },
    {
      "midi": 53,
      "hit": false,
      "t": 28965.42669374989,
      "d": 327.20571874999587,
      "v": 32
    },
    {
      "midi": 57,
      "hit": false,
      "t": 29082.338399999888,
      "d": 111.76465000000098,
      "v": 45
    },
    {
      "midi": 58,
      "hit": false,
      "t": 29214.69127499989,
      "d": 72.79408124999827,
      "v": 67
    },
    {
      "midi": 60,
      "hit": false,
      "t": 29327.191218749886,
      "d": 74.26466874999824,
      "v": 60
    },
    {
      "midi": 61,
      "hit": false,
      "t": 29424.985287499883,
      "d": 79.41172500000175,
      "v": 45
    },
    {
      "midi": 63,
      "hit": false,
      "t": 29522.779356249885,
      "d": 30.147043749999284,
      "v": 32
    },
    {
      "midi": 64,
      "hit": false,
      "t": 29587.485206249883,
      "d": 62.499968749998516,
      "v": 62
    },
    {
      "midi": 48,
      "hit": false,
      "t": 29638.955768749882,
      "d": 719.8525812499938,
      "v": 42
    },
    {
      "midi": 65,
      "hit": false,
      "t": 29669.83810624988,
      "d": 50.735268749998795,
      "v": 17
    },
    {
      "midi": 58,
      "hit": false,
      "t": 29719.83808124988,
      "d": 95.58818749999773,
      "v": 3
    },
    {
      "midi": 66,
      "hit": false,
      "t": 29747.04394999988,
      "d": 47.05879999999888,
      "v": 39
    },
    {
      "midi": 67,
      "hit": false,
      "t": 29839.690962499877,
      "d": 50.735268749998795,
      "v": 45
    },
    {
      "midi": 74,
      "hit": false,
      "t": 30361.014231249876,
      "d": 138.97051875000034,
      "v": 77
    },
    {
      "midi": 64,
      "hit": false,
      "t": 30369.837756249875,
      "d": 137.49993125000037,
      "v": 84
    },
    {
      "midi": 70,
      "hit": false,
      "t": 30374.249518749875,
      "d": 466.9115312499962,
      "v": 70
    },
    {
      "midi": 67,
      "hit": false,
      "t": 30377.190693749875,
      "d": 164.70579999999973,
      "v": 73
    },
    {
      "midi": 60,
      "hit": false,
      "t": 30377.925987499875,
      "d": 188.23519999999917,
      "v": 67
    },
    {
      "midi": 73,
      "hit": false,
      "t": 30583.072943749874,
      "d": 108.08818125000107,
      "v": 61
    },
    {
      "midi": 64,
      "hit": false,
      "t": 30594.102349999874,
      "d": 99.99995000000126,
      "v": 58
    },
    {
      "midi": 67,
      "hit": false,
      "t": 30597.778818749874,
      "d": 232.35282499999812,
      "v": 49
    },
    {
      "midi": 58,
      "hit": false,
      "t": 30600.719993749874,
      "d": 135.29405000000042,
      "v": 67
    },
    {
      "midi": 72,
      "hit": false,
      "t": 30728.661106249874,
      "d": 81.61760624999806,
      "v": 38
    },
    {
      "midi": 64,
      "hit": false,
      "t": 30754.396387499874,
      "d": 91.17642499999783,
      "v": 58
    },
    {
      "midi": 56,
      "hit": false,
      "t": 30941.896293749873,
      "d": 161.0293312499998,
      "v": 51
    },
    {
      "midi": 63,
      "hit": false,
      "t": 30944.102174999873,
      "d": 102.9411250000012,
      "v": 59
    },
    {
      "midi": 68,
      "hit": false,
      "t": 30952.190406249872,
      "d": 87.49995625000156,
      "v": 37
    },
    {
      "midi": 69,
      "hit": false,
      "t": 31099.249156249873,
      "d": 327.20571874999587,
      "v": 53
    },
    {
      "midi": 60,
      "hit": false,
      "t": 31103.660918749873,
      "d": 199.2646062499989,
      "v": 37
    },
    {
      "midi": 57,
      "hit": false,
      "t": 31105.131506249872,
      "d": 263.2351624999974,
      "v": 46
    },
    {
      "midi": 64,
      "hit": false,
      "t": 31116.896206249872,
      "d": 287.4998562499968,
      "v": 43
    },
    {
      "midi": 61,
      "hit": false,
      "t": 31555.86657499987,
      "d": 111.029356250001,
      "v": 20
    },
    {
      "midi": 84,
      "hit": false,
      "t": 31766.16058749987,
      "d": 256.61751874999754,
      "v": 78
    },
    {
      "midi": 61,
      "hit": false,
      "t": 31772.04293749987,
      "d": 297.79396874999657,
      "v": 56
    },
    {
      "midi": 65,
      "hit": false,
      "t": 31774.98411249987,
      "d": 287.4998562499968,
      "v": 72
    },
    {
      "midi": 77,
      "hit": false,
      "t": 31775.71940624987,
      "d": 208.82342499999868,
      "v": 76
    },
    {
      "midi": 60,
      "hit": false,
      "t": 31776.45469999987,
      "d": 287.4998562499968,
      "v": 66
    },
    {
      "midi": 81,
      "hit": false,
      "t": 31777.92528749987,
      "d": 224.2645937499983,
      "v": 65
    },
    {
      "midi": 72,
      "hit": false,
      "t": 31780.86646249987,
      "d": 195.588137499999,
      "v": 72
    },
    {
      "midi": 55,
      "hit": false,
      "t": 31784.54293124987,
      "d": 272.0586874999972,
      "v": 62
    },
    {
      "midi": 58,
      "hit": false,
      "t": 31811.01350624987,
      "d": 273.52927499999714,
      "v": 32
    },
    {
      "midi": 89,
      "hit": false,
      "t": 32250.719168749867,
      "d": 163.23521249999612,
      "v": 72
    },
    {
      "midi": 61,
      "hit": false,
      "t": 32252.189756249867,
      "d": 235.2939999999944,
      "v": 67
    },
    {
      "midi": 65,
      "hit": false,
      "t": 32257.336812499867,
      "d": 155.8822749999963,
      "v": 74
    },
    {
      "midi": 84,
      "hit": false,
      "t": 32258.072106249867,
      "d": 130.8822874999969,
      "v": 81
    },
    {
      "midi": 77,
      "hit": false,
      "t": 32259.542693749867,
      "d": 105.88229999999749,
      "v": 74
    },
    {
      "midi": 60,
      "hit": false,
      "t": 32265.425043749867,
      "d": 149.26463124999646,
      "v": 47
    },
    {
      "midi": 55,
      "hit": false,
      "t": 32266.895631249867,
      "d": 149.99992499999644,
      "v": 66
    },
    {
      "midi": 58,
      "hit": false,
      "t": 32292.630912499866,
      "d": 169.85285624999597,
      "v": 34
    },
    {
      "midi": 64,
      "hit": false,
      "t": 32541.89549374986,
      "d": 366.1762875000095,
      "v": 56
    },
    {
      "midi": 60,
      "hit": false,
      "t": 32544.83666874986,
      "d": 417.64685000000827,
      "v": 54
    },
    {
      "midi": 93,
      "hit": false,
      "t": 32546.30725624986,
      "d": 323.52925000000323,
      "v": 74
    },
    {
      "midi": 81,
      "hit": false,
      "t": 32550.71901874986,
      "d": 261.7645749999974,
      "v": 58
    },
    {
      "midi": 88,
      "hit": false,
      "t": 32551.45431249986,
      "d": 314.7057249999998,
      "v": 59
    },
    {
      "midi": 54,
      "hit": false,
      "t": 32555.13078124986,
      "d": 322.7939562500069,
      "v": 50
    },
    {
      "midi": 60,
      "hit": false,
      "t": 33229.39514999987,
      "d": 258.82340000002296,
      "v": 47
    },
    {
      "midi": 54,
      "hit": false,
      "t": 33230.13044374988,
      "d": 272.05868750002264,
      "v": 50
    },
    {
      "midi": 64,
      "hit": false,
      "t": 33231.60103124988,
      "d": 247.79399375001958,
      "v": 50
    },
    {
      "midi": 92,
      "hit": false,
      "t": 33233.07161874988,
      "d": 199.26460625001346,
      "v": 60
    },
    {
      "midi": 96,
      "hit": false,
      "t": 33233.80691249988,
      "d": 237.49988125001255,
      "v": 63
    },
    {
      "midi": 84,
      "hit": false,
      "t": 33234.542206249884,
      "d": 195.58813750000263,
      "v": 63
    },
    {
      "midi": 93,
      "hit": false,
      "t": 33424.24799374989,
      "d": 39.70586250000633,
      "v": 35
    },
    {
      "midi": 54,
      "hit": false,
      "t": 33689.6890374999,
      "d": 111.029356250001,
      "v": 40
    },
    {
      "midi": 62,
      "hit": false,
      "t": 33893.3654062499,
      "d": 224.99988750001648,
      "v": 45
    },
    {
      "midi": 94,
      "hit": false,
      "t": 33901.4536374999,
      "d": 180.88226250001026,
      "v": 51
    },
    {
      "midi": 82,
      "hit": false,
      "t": 33906.600693749904,
      "d": 135.29405000000406,
      "v": 37
    },
    {
      "midi": 58,
      "hit": false,
      "t": 33913.953631249904,
      "d": 246.32340625001234,
      "v": 39
    },
    {
      "midi": 89,
      "hit": false,
      "t": 33919.835981249904,
      "d": 115.4411187500009,
      "v": 40
    },
    {
      "midi": 57,
      "hit": false,
      "t": 33931.6006812499,
      "d": 183.8234375000102,
      "v": 31
    },
    {
      "midi": 53,
      "hit": false,
      "t": 33941.8947937499,
      "d": 219.11753750001662,
      "v": 18
    },
    {
      "midi": 58,
      "hit": false,
      "t": 34350.71811874992,
      "d": 200.73519375002797,
      "v": 77
    },
    {
      "midi": 96,
      "hit": false,
      "t": 34352.923999999926,
      "d": 160.29403750001075,
      "v": 80
    },
    {
      "midi": 57,
      "hit": false,
      "t": 34357.335762499926,
      "d": 187.499906250021,
      "v": 74
    },
    {
      "midi": 62,
      "hit": false,
      "t": 34358.07105624993,
      "d": 173.5293250000177,
      "v": 79
    },
    {
      "midi": 84,
      "hit": false,
      "t": 34358.80634999993,
      "d": 127.94111250000424,
      "v": 87
    },
    {
      "midi": 91,
      "hit": false,
      "t": 34360.27693749993,
      "d": 153.67639375000726,
      "v": 78
    },
    {
      "midi": 53,
      "hit": false,
      "t": 34366.15928749993,
      "d": 157.35286250001081,
      "v": 64
    },
    {
      "midi": 86,
      "hit": false,
      "t": 34378.65928124994,
      "d": 33.8235124999992,
      "v": 44
    },
    {
      "midi": 62,
      "hit": false,
      "t": 34596.30623124995,
      "d": 154.41168750001088,
      "v": 68
    },
    {
      "midi": 58,
      "hit": false,
      "t": 34602.92387499996,
      "d": 172.05873750001047,
      "v": 74
    },
    {
      "midi": 53,
      "hit": false,
      "t": 34603.65916874996,
      "d": 150.73521875000733,
      "v": 51
    },
    {
      "midi": 98,
      "hit": false,
      "t": 34605.12975624996,
      "d": 147.7940437500074,
      "v": 77
    },
    {
      "midi": 57,
      "hit": false,
      "t": 34607.335637499964,
      "d": 384.5586312500309,
      "v": 59
    },
    {
      "midi": 86,
      "hit": false,
      "t": 34608.806224999964,
      "d": 111.76464999999735,
      "v": 79
    },
    {
      "midi": 91,
      "hit": false,
      "t": 34613.217987499964,
      "d": 108.08818125000107,
      "v": 74
    },
    {
      "midi": 62,
      "hit": false,
      "t": 34816.159062499966,
      "d": 132.35287500001868,
      "v": 57
    },
    {
      "midi": 53,
      "hit": false,
      "t": 34816.89435624997,
      "d": 130.1469937500151,
      "v": 45
    },
    {
      "midi": 98,
      "hit": false,
      "t": 34818.36494374997,
      "d": 130.88228750001872,
      "v": 61
    },
    {
      "midi": 58,
      "hit": false,
      "t": 34819.10023749997,
      "d": 161.02933125002164,
      "v": 51
    },
    {
      "midi": 86,
      "hit": false,
      "t": 34825.71788124998,
      "d": 128.67640625001513,
      "v": 63
    },
    {
      "midi": 91,
      "hit": false,
      "t": 34833.80611249998,
      "d": 129.41170000001148,
      "v": 63
    },
    {
      "midi": 62,
      "hit": false,
      "t": 35069.83540624999,
      "d": 102.94112500001211,
      "v": 53
    },
    {
      "midi": 58,
      "hit": false,
      "t": 35074.24716874999,
      "d": 155.8822750000254,
      "v": 55
    },
    {
      "midi": 96,
      "hit": false,
      "t": 35077.9236375,
      "d": 96.32348125000863,
      "v": 58
    },
    {
      "midi": 53,
      "hit": false,
      "t": 35078.65893125,
      "d": 129.41170000001148,
      "v": 45
    },
    {
      "midi": 57,
      "hit": false,
      "t": 35083.8059875,
      "d": 87.49995625000156,
      "v": 38
    },
    {
      "midi": 91,
      "hit": false,
      "t": 35084.54128125001,
      "d": 133.08816875000775,
      "v": 55
    },
    {
      "midi": 84,
      "hit": false,
      "t": 35086.01186875001,
      "d": 111.029356250001,
      "v": 56
    },
    {
      "midi": 58,
      "hit": false,
      "t": 35311.011756250016,
      "d": 187.49990625000646,
      "v": 29
    },
    {
      "midi": 62,
      "hit": false,
      "t": 35317.62940000002,
      "d": 144.11757500000385,
      "v": 53
    },
    {
      "midi": 94,
      "hit": false,
      "t": 35319.83528125002,
      "d": 134.55875625000044,
      "v": 60
    },
    {
      "midi": 52,
      "hit": false,
      "t": 35324.24704375002,
      "d": 138.97051875000034,
      "v": 36
    },
    {
      "midi": 82,
      "hit": false,
      "t": 35337.48233125002,
      "d": 125.73523125000065,
      "v": 42
    },
    {
      "midi": 94,
      "hit": false,
      "t": 35540.423406250025,
      "d": 134.558756250015,
      "v": 48
    },
    {
      "midi": 82,
      "hit": false,
      "t": 35542.62928750003,
      "d": 92.64701250000508,
      "v": 50
    },
    {
      "midi": 62,
      "hit": false,
      "t": 35544.09987500003,
      "d": 112.49994375000824,
      "v": 37
    },
    {
      "midi": 58,
      "hit": false,
      "t": 35547.77634375003,
      "d": 144.85286875000747,
      "v": 21
    },
    {
      "midi": 52,
      "hit": false,
      "t": 35558.07045625003,
      "d": 97.05877500000497,
      "v": 32
    },
    {
      "midi": 96,
      "hit": false,
      "t": 35758.07035625004,
      "d": 152.20580625001458,
      "v": 63
    },
    {
      "midi": 62,
      "hit": false,
      "t": 35763.95270625004,
      "d": 171.32344375001412,
      "v": 49
    },
    {
      "midi": 84,
      "hit": false,
      "t": 35764.688000000046,
      "d": 144.85286875000747,
      "v": 74
    },
    {
      "midi": 58,
      "hit": false,
      "t": 35768.36446875005,
      "d": 174.9999125000104,
      "v": 57
    },
    {
      "midi": 52,
      "hit": false,
      "t": 35771.30564375005,
      "d": 129.4117000000042,
      "v": 49
    },
    {
      "midi": 58,
      "hit": false,
      "t": 36019.83493125006,
      "d": 78.6764312500236,
      "v": 44
    },
    {
      "midi": 98,
      "hit": false,
      "t": 36021.30551875006,
      "d": 80.14701875002356,
      "v": 57
    },
    {
      "midi": 62,
      "hit": false,
      "t": 36022.04081250006,
      "d": 57.35291250001319,
      "v": 44
    },
    {
      "midi": 86,
      "hit": false,
      "t": 36023.51140000006,
      "d": 55.147031250009604,
      "v": 57
    },
    {
      "midi": 52,
      "hit": false,
      "t": 36039.68786250006,
      "d": 45.588212500020745,
      "v": 36
    },
    {
      "midi": 94,
      "hit": false,
      "t": 36040.423156250064,
      "d": 35.29410000000644,
      "v": 26
    },
    {
      "midi": 91,
      "hit": false,
      "t": 36044.09962500007,
      "d": 36.02939375001006,
      "v": 38
    },
    {
      "midi": 100,
      "hit": false,
      "t": 36480.86411250008,
      "d": 85.29407500000525,
      "v": 54
    },
    {
      "midi": 58,
      "hit": false,
      "t": 36483.80528750008,
      "d": 76.47055000000546,
      "v": 56
    },
    {
      "midi": 88,
      "hit": false,
      "t": 36485.27587500008,
      "d": 36.7646875000064,
      "v": 44
    },
    {
      "midi": 62,
      "hit": false,
      "t": 36497.77586875008,
      "d": 33.08821875000285,
      "v": 40
    },
    {
      "midi": 63,
      "hit": false,
      "t": 36747.77574375009,
      "d": 1555.8815750000358,
      "v": 55
    },
    {
      "midi": 101,
      "hit": false,
      "t": 36752.922800000095,
      "d": 82.35290000000532,
      "v": 63
    },
    {
      "midi": 89,
      "hit": false,
      "t": 36755.1286812501,
      "d": 112.49994375000824,
      "v": 50
    },
    {
      "midi": 58,
      "hit": false,
      "t": 36756.5992687501,
      "d": 1788.9696937500412,
      "v": 49
    },
    {
      "midi": 53,
      "hit": false,
      "t": 36813.9521812501,
      "d": 3715.4393187500827,
      "v": 13
    },
    {
      "midi": 65,
      "hit": false,
      "t": 37119.834381250104,
      "d": 41.91174375000264,
      "v": 51
    },
    {
      "midi": 70,
      "hit": false,
      "t": 37250.71666875011,
      "d": 77.2058437500018,
      "v": 58
    },
    {
      "midi": 75,
      "hit": false,
      "t": 37377.92248750011,
      "d": 113.23523749999731,
      "v": 55
    },
    {
      "midi": 71,
      "hit": false,
      "t": 37488.21655000011,
      "d": 108.82347499999742,
      "v": 37
    },
    {
      "midi": 72,
      "hit": false,
      "t": 37611.01060625011,
      "d": 66.91173125000205,
      "v": 45
    },
    {
      "midi": 79,
      "hit": false,
      "t": 37721.30466875011,
      "d": 96.32348125000135,
      "v": 61
    },
    {
      "midi": 74,
      "hit": false,
      "t": 38042.628037500115,
      "d": 68.38231875000201,
      "v": 54
    },
    {
      "midi": 60,
      "hit": false,
      "t": 38114.68682500012,
      "d": 382.35275000001275,
      "v": 15
    },
    {
      "midi": 75,
      "hit": false,
      "t": 38138.21622500012,
      "d": 52.2058562500024,
      "v": 51
    },
    {
      "midi": 79,
      "hit": false,
      "t": 38257.333812500125,
      "d": 66.91173125000205,
      "v": 58
    },
    {
      "midi": 82,
      "hit": false,
      "t": 38388.951393750125,
      "d": 68.38231875000201,
      "v": 31
    },
    {
      "midi": 83,
      "hit": false,
      "t": 38463.95135625013,
      "d": 57.352912500005914,
      "v": 50
    },
    {
      "midi": 86,
      "hit": false,
      "t": 38566.89248125014,
      "d": 92.6470124999978,
      "v": 72
    },
    {
      "midi": 83,
      "hit": false,
      "t": 38706.59829375014,
      "d": 35.29409999999916,
      "v": 45
    },
    {
      "midi": 84,
      "hit": false,
      "t": 38807.33353750014,
      "d": 94.11759999999776,
      "v": 76
    },
    {
      "midi": 79,
      "hit": false,
      "t": 38933.80406250014,
      "d": 82.35290000000532,
      "v": 67
    },
    {
      "midi": 63,
      "hit": false,
      "t": 38942.62758750014,
      "d": 538.9703187500127,
      "v": 35
    },
    {
      "midi": 58,
      "hit": false,
      "t": 38949.24523125014,
      "d": 402.940975000005,
      "v": 33
    },
    {
      "midi": 65,
      "hit": false,
      "t": 38959.53934375014,
      "d": 543.3820812500126,
      "v": 38
    },
    {
      "midi": 77,
      "hit": false,
      "t": 39060.27458750014,
      "d": 87.49995625000156,
      "v": 37
    },
    {
      "midi": 75,
      "hit": false,
      "t": 39135.27455000014,
      "d": 94.11760000000504,
      "v": 55
    },
    {
      "midi": 74,
      "hit": false,
      "t": 39259.53919375015,
      "d": 67.6470249999984,
      "v": 38
    },
    {
      "midi": 72,
      "hit": false,
      "t": 39386.74501250015,
      "d": 38.23527499999909,
      "v": 24
    },
    {
      "midi": 77,
      "hit": false,
      "t": 39606.597843750154,
      "d": 133.08816875000048,
      "v": 64
    },
    {
      "midi": 65,
      "hit": false,
      "t": 39607.33313750016,
      "d": 392.6468625000052,
      "v": 32
    },
    {
      "midi": 62,
      "hit": false,
      "t": 39619.09783750016,
      "d": 491.1762250000029,
      "v": 46
    },
    {
      "midi": 60,
      "hit": false,
      "t": 39620.56842500016,
      "d": 822.7937062500205,
      "v": 31
    },
    {
      "midi": 69,
      "hit": false,
      "t": 39777.18599375016,
      "d": 43.38233125000261,
      "v": 36
    },
    {
      "midi": 62,
      "hit": false,
      "t": 40302.92102500016,
      "d": 126.47052500001155,
      "v": 37
    },
    {
      "midi": 67,
      "hit": false,
      "t": 40303.65631875017,
      "d": 97.05877500000497,
      "v": 66
    },
    {
      "midi": 65,
      "hit": false,
      "t": 40324.97983750017,
      "d": 49.26468125000247,
      "v": 15
    },
    {
      "midi": 69,
      "hit": false,
      "t": 40466.15623750018,
      "d": 76.47054999999818,
      "v": 64
    },
    {
      "midi": 72,
      "hit": false,
      "t": 40643.36203125018,
      "d": 134.558756250015,
      "v": 66
    },
    {
      "midi": 62,
      "hit": false,
      "t": 40650.71496875018,
      "d": 116.17641250001179,
      "v": 67
    },
    {
      "midi": 65,
      "hit": false,
      "t": 40652.920850000184,
      "d": 166.91168125001423,
      "v": 61
    },
    {
      "midi": 64,
      "hit": false,
      "t": 40665.42084375019,
      "d": 27.941162500006612,
      "v": 57
    },
    {
      "midi": 58,
      "hit": false,
      "t": 40669.09731250019,
      "d": 270.5881000000154,
      "v": 60
    },
    {
      "midi": 70,
      "hit": false,
      "t": 40847.7736937502,
      "d": 61.76467500000581,
      "v": 56
    },
    {
      "midi": 62,
      "hit": false,
      "t": 40855.1266312502,
      "d": 63.970556250009395,
      "v": 56
    },
    {
      "midi": 56,
      "hit": false,
      "t": 40905.8619000002,
      "d": 99.26465625000856,
      "v": 31
    },
    {
      "midi": 69,
      "hit": false,
      "t": 41039.68536250021,
      "d": 466.9115312500144,
      "v": 68
    },
    {
      "midi": 57,
      "hit": false,
      "t": 41061.74417500021,
      "d": 516.9115062500132,
      "v": 56
    },
    {
      "midi": 58,
      "hit": false,
      "t": 41069.832406250214,
      "d": 335.2939500000066,
      "v": 38
    },
    {
      "midi": 62,
      "hit": false,
      "t": 41070.56770000022,
      "d": 398.5292125000051,
      "v": 44
    },
    {
      "midi": 65,
      "hit": false,
      "t": 41080.12651875022,
      "d": 391.9115687500016,
      "v": 25
    },
    {
      "midi": 58,
      "hit": false,
      "t": 41678.65563125022,
      "d": 349.2645312500099,
      "v": 38
    },
    {
      "midi": 67,
      "hit": false,
      "t": 41679.390925000225,
      "d": 248.52928750000865,
      "v": 44
    },
    {
      "midi": 55,
      "hit": false,
      "t": 41686.00856875023,
      "d": 118.38229375000083,
      "v": 48
    },
    {
      "midi": 61,
      "hit": false,
      "t": 41695.56738750023,
      "d": 465.44094374999986,
      "v": 35
    },
    {
      "midi": 64,
      "hit": false,
      "t": 41701.44973750023,
      "d": 347.79394375000265,
      "v": 45
    },
    {
      "midi": 41,
      "hit": false,
      "t": 42134.53775625023,
      "d": 66.17643749999843,
      "v": 38
    },
    {
      "midi": 65,
      "hit": false,
      "t": 42366.89058125023,
      "d": 54.411737500005984,
      "v": 48
    },
    {
      "midi": 57,
      "hit": false,
      "t": 42375.71410625023,
      "d": 43.38233125000261,
      "v": 43
    },
    {
      "midi": 60,
      "hit": false,
      "t": 42377.91998750023,
      "d": 33.8235124999992,
      "v": 50
    },
    {
      "midi": 60,
      "hit": false,
      "t": 42807.331537500235,
      "d": 118.38229375000083,
      "v": 47
    },
    {
      "midi": 52,
      "hit": false,
      "t": 42814.684475000235,
      "d": 154.4116875000036,
      "v": 47
    },
    {
      "midi": 55,
      "hit": false,
      "t": 42818.36094375024,
      "d": 94.11759999999776,
      "v": 42
    },
    {
      "midi": 48,
      "hit": false,
      "t": 42831.59623125024,
      "d": 266.9116312500046,
      "v": 38
    },
    {
      "midi": 62,
      "hit": false,
      "t": 43077.91963750024,
      "d": 216.9116562499985,
      "v": 54
    },
    {
      "midi": 53,
      "hit": false,
      "t": 43085.27257500024,
      "d": 178.6763812499994,
      "v": 32
    },
    {
      "midi": 57,
      "hit": false,
      "t": 43086.74316250024,
      "d": 225.73518124999828,
      "v": 49
    },
    {
      "midi": 50,
      "hit": false,
      "t": 43095.56668750024,
      "d": 169.8528562499996,
      "v": 44
    },
    {
      "midi": 55,
      "hit": false,
      "t": 43738.94871875024,
      "d": 116.17641250000452,
      "v": 41
    },
    {
      "midi": 58,
      "hit": false,
      "t": 43788.94869375024,
      "d": 446.3233062500076,
      "v": 74
    },
    {
      "midi": 69,
      "hit": false,
      "t": 43789.68398750024,
      "d": 527.205618750013,
      "v": 71
    },
    {
      "midi": 62,
      "hit": false,
      "t": 43791.15457500024,
      "d": 453.6762437500074,
      "v": 71
    },
    {
      "midi": 65,
      "hit": false,
      "t": 43799.242806250244,
      "d": 466.9115312500071,
      "v": 57
    },
    {
      "midi": 57,
      "hit": false,
      "t": 43809.536918750244,
      "d": 691.17612500002,
      "v": 64
    },
    {
      "midi": 67,
      "hit": false,
      "t": 44497.03657500025,
      "d": 306.6174937500182,
      "v": 39
    },
    {
      "midi": 58,
      "hit": false,
      "t": 44498.50716250025,
      "d": 157.35286250001081,
      "v": 57
    },
    {
      "midi": 61,
      "hit": false,
      "t": 44499.24245625026,
      "d": 264.70575000000827,
      "v": 52
    },
    {
      "midi": 55,
      "hit": false,
      "t": 44499.97775000026,
      "d": 274.999862500008,
      "v": 52
    },
    {
      "midi": 64,
      "hit": false,
      "t": 44512.47774375026,
      "d": 269.11751250000816,
      "v": 53
    },
    {
      "midi": 76,
      "hit": false,
      "t": 45205.12445625027,
      "d": 668.3820187500169,
      "v": 78
    },
    {
      "midi": 64,
      "hit": false,
      "t": 45208.80092500027,
      "d": 714.7055250000194,
      "v": 82
    },
    {
      "midi": 72,
      "hit": false,
      "t": 45212.477393750276,
      "d": 590.4408812500114,
      "v": 68
    },
    {
      "midi": 65,
      "hit": false,
      "t": 45213.21268750028,
      "d": 566.1761875000084,
      "v": 83
    },
    {
      "midi": 69,
      "hit": false,
      "t": 45213.94798125028,
      "d": 586.0291187500043,
      "v": 74
    },
    {
      "midi": 62,
      "hit": false,
      "t": 45914.682925000285,
      "d": 283.8233875000151,
      "v": 55
    },
    {
      "midi": 74,
      "hit": false,
      "t": 45921.30056875029,
      "d": 305.88220000001456,
      "v": 54
    },
    {
      "midi": 65,
      "hit": false,
      "t": 45922.03586250029,
      "d": 212.49989375000587,
      "v": 58
    },
    {
      "midi": 69,
      "hit": false,
      "t": 45936.7417375003,
      "d": 245.58811250000144,
      "v": 51
    },
    {
      "midi": 72,
      "hit": false,
      "t": 45938.2123250003,
      "d": 273.5292750000008,
      "v": 38
    },
    {
      "midi": 92,
      "hit": false,
      "t": 46606.59434375031,
      "d": 479.411525000025,
      "v": 67
    },
    {
      "midi": 61,
      "hit": false,
      "t": 46607.32963750031,
      "d": 600.7349937500258,
      "v": 50
    },
    {
      "midi": 65,
      "hit": false,
      "t": 46612.476693750315,
      "d": 441.91154375001497,
      "v": 55
    },
    {
      "midi": 80,
      "hit": false,
      "t": 46613.21198750032,
      "d": 452.94095000001107,
      "v": 60
    },
    {
      "midi": 87,
      "hit": false,
      "t": 46616.88845625032,
      "d": 463.97035625000717,
      "v": 62
    },
    {
      "midi": 60,
      "hit": false,
      "t": 46619.82963125032,
      "d": 419.8527312500082,
      "v": 52
    },
    {
      "midi": 56,
      "hit": false,
      "t": 46624.976687500326,
      "d": 488.23505000001023,
      "v": 53
    },
    {
      "midi": 61,
      "hit": false,
      "t": 47311.005756250335,
      "d": 524.9997375000166,
      "v": 28
    },
    {
      "midi": 91,
      "hit": false,
      "t": 47320.56457500034,
      "d": 249.264581250005,
      "v": 53
    },
    {
      "midi": 85,
      "hit": false,
      "t": 47322.77045625034,
      "d": 290.441031250004,
      "v": 47
    },
    {
      "midi": 79,
      "hit": false,
      "t": 47324.24104375034,
      "d": 299.9998500000074,
      "v": 41
    },
    {
      "midi": 64,
      "hit": false,
      "t": 47326.446925000346,
      "d": 344.8527687500027,
      "v": 45
    },
    {
      "midi": 55,
      "hit": false,
      "t": 47332.329275000346,
      "d": 354.41158750000614,
      "v": 41
    },
    {
      "midi": 63,
      "hit": false,
      "t": 48022.770106250355,
      "d": 400.7350937500014,
      "v": 26
    },
    {
      "midi": 84,
      "hit": false,
      "t": 48030.85833750036,
      "d": 275.7351562499971,
      "v": 53
    },
    {
      "midi": 72,
      "hit": false,
      "t": 48033.79951250036,
      "d": 283.0880937499969,
      "v": 36
    },
    {
      "midi": 58,
      "hit": false,
      "t": 48041.15245000036,
      "d": 522.7938562500058,
      "v": 35
    },
    {
      "midi": 60,
      "hit": false,
      "t": 48049.97597500036,
      "d": 499.26445624999906,
      "v": 33
    },
    {
      "midi": 53,
      "hit": false,
      "t": 48074.97596250036,
      "d": 526.4703250000093,
      "v": 14
    },
    {
      "midi": 83,
      "hit": false,
      "t": 48551.44631250036,
      "d": 76.47055000000546,
      "v": 50
    },
    {
      "midi": 63,
      "hit": false,
      "t": 48764.68150000036,
      "d": 597.7938187500113,
      "v": 33
    },
    {
      "midi": 58,
      "hit": false,
      "t": 48783.063843750366,
      "d": 630.1467437500105,
      "v": 48
    },
    {
      "midi": 84,
      "hit": false,
      "t": 49004.387262500364,
      "d": 153.67639375000726,
      "v": 80
    },
    {
      "midi": 72,
      "hit": false,
      "t": 49015.41666875037,
      "d": 102.20583125000121,
      "v": 68
    },
    {
      "midi": 83,
      "hit": false,
      "t": 49222.03421250037,
      "d": 141.17640000000392,
      "v": 72
    },
    {
      "midi": 63,
      "hit": false,
      "t": 49436.00469375038,
      "d": 75.73525625001639,
      "v": 52
    },
    {
      "midi": 84,
      "hit": false,
      "t": 49446.29880625038,
      "d": 111.02935625002283,
      "v": 73
    },
    {
      "midi": 60,
      "hit": false,
      "t": 49453.65174375038,
      "d": 38.970568750017264,
      "v": 50
    },
    {
      "midi": 72,
      "hit": false,
      "t": 49454.38703750038,
      "d": 58.08820625001681,
      "v": 64
    },
    {
      "midi": 54,
      "hit": false,
      "t": 49455.122331250386,
      "d": 80.14701875001629,
      "v": 42
    },
    {
      "midi": 78,
      "hit": false,
      "t": 49455.85762500039,
      "d": 136.02934375001496,
      "v": 47
    },
    {
      "midi": 81,
      "hit": false,
      "t": 49459.53409375039,
      "d": 111.02935625000828,
      "v": 55
    },
    {
      "midi": 72,
      "hit": false,
      "t": 49596.298731250405,
      "d": 65.44114375000208,
      "v": 34
    },
    {
      "midi": 84,
      "hit": false,
      "t": 49637.475181250404,
      "d": 81.61760625000898,
      "v": 34
    },
    {
      "midi": 78,
      "hit": false,
      "t": 49662.47516875041,
      "d": 86.02936875000887,
      "v": 25
    },
    {
      "midi": 81,
      "hit": false,
      "t": 49676.445750000414,
      "d": 49.26468125000247,
      "v": 33
    },
    {
      "midi": 72,
      "hit": false,
      "t": 49740.416306250416,
      "d": 62.499968750002154,
      "v": 36
    },
    {
      "midi": 84,
      "hit": false,
      "t": 49806.59274375042,
      "d": 59.55879375000222,
      "v": 34
    },
    {
      "midi": 78,
      "hit": false,
      "t": 49813.94568125042,
      "d": 94.11760000001232,
      "v": 36
    },
    {
      "midi": 81,
      "hit": false,
      "t": 49836.00449375042,
      "d": 44.11762500000623,
      "v": 36
    },
    {
      "midi": 72,
      "hit": false,
      "t": 49899.97505000043,
      "d": 57.352912500005914,
      "v": 35
    },
    {
      "midi": 84,
      "hit": false,
      "t": 49955.12208125043,
      "d": 74.26466875000915,
      "v": 30
    },
    {
      "midi": 78,
      "hit": false,
      "t": 49964.680900000436,
      "d": 98.52936250001221,
      "v": 37
    },
    {
      "midi": 81,
      "hit": false,
      "t": 49984.53383125044,
      "d": 46.32350625000254,
      "v": 38
    },
    {
      "midi": 72,
      "hit": false,
      "t": 50040.416156250445,
      "d": 71.32349375000194,
      "v": 37
    },
    {
      "midi": 84,
      "hit": false,
      "t": 50124.23964375045,
      "d": 83.08819375001622,
      "v": 48
    },
    {
      "midi": 78,
      "hit": false,
      "t": 50127.916112500454,
      "d": 91.91171875001601,
      "v": 34
    },
    {
      "midi": 81,
      "hit": false,
      "t": 50161.73962500045,
      "d": 35.294100000013714,
      "v": 25
    },
    {
      "midi": 63,
      "hit": false,
      "t": 50168.35726875046,
      "d": 52.20585625001695,
      "v": 36
    },
    {
      "midi": 60,
      "hit": false,
      "t": 50172.03373750046,
      "d": 37.49998125001002,
      "v": 42
    },
    {
      "midi": 72,
      "hit": false,
      "t": 50196.29843125046,
      "d": 75.73525625000912,
      "v": 30
    },
    {
      "midi": 84,
      "hit": false,
      "t": 50274.239568750476,
      "d": 70.5882000000056,
      "v": 24
    },
    {
      "midi": 78,
      "hit": false,
      "t": 50283.063093750476,
      "d": 82.3529000000126,
      "v": 34
    },
    {
      "midi": 81,
      "hit": false,
      "t": 50320.56307500048,
      "d": 27.941162500006612,
      "v": 20
    },
    {
      "midi": 72,
      "hit": false,
      "t": 50356.59246875049,
      "d": 67.6470249999984,
      "v": 31
    },
    {
      "midi": 78,
      "hit": false,
      "t": 50433.79831250049,
      "d": 88.9705437500088,
      "v": 33
    },
    {
      "midi": 84,
      "hit": false,
      "t": 50434.533606250494,
      "d": 44.11762500000623,
      "v": 28
    },
    {
      "midi": 81,
      "hit": false,
      "t": 50454.3865375005,
      "d": 47.7940937500025,
      "v": 35
    },
    {
      "midi": 72,
      "hit": false,
      "t": 50503.6512187505,
      "d": 72.05878749999829,
      "v": 34
    },
    {
      "midi": 78,
      "hit": false,
      "t": 50591.1511750005,
      "d": 113.97053125001548,
      "v": 30
    },
    {
      "midi": 84,
      "hit": false,
      "t": 50595.5629375005,
      "d": 67.64702500001295,
      "v": 35
    },
    {
      "midi": 81,
      "hit": false,
      "t": 50621.298218750504,
      "d": 39.70586250000633,
      "v": 25
    },
    {
      "midi": 72,
      "hit": false,
      "t": 50651.44526250051,
      "d": 66.91173125000932,
      "v": 34
    },
    {
      "midi": 61,
      "hit": false,
      "t": 50839.68046250052,
      "d": 151.4705125000255,
      "v": 46
    },
    {
      "midi": 65,
      "hit": false,
      "t": 50845.56281250052,
      "d": 124.26464375001524,
      "v": 52
    },
    {
      "midi": 60,
      "hit": false,
      "t": 50849.23928125052,
      "d": 150.7352187500219,
      "v": 54
    },
    {
      "midi": 56,
      "hit": false,
      "t": 50853.65104375052,
      "d": 159.55874375002168,
      "v": 46
    },
    {
      "midi": 84,
      "hit": false,
      "t": 50854.386337500524,
      "d": 122.05876250001165,
      "v": 72
    },
    {
      "midi": 72,
      "hit": false,
      "t": 50855.12163125053,
      "d": 74.26466875000187,
      "v": 63
    },
    {
      "midi": 77,
      "hit": false,
      "t": 50861.73927500053,
      "d": 92.6470124999978,
      "v": 55
    },
    {
      "midi": 80,
      "hit": false,
      "t": 50863.20986250053,
      "d": 118.3822937500081,
      "v": 38
    },
    {
      "midi": 61,
      "hit": false,
      "t": 51298.50376250054,
      "d": 222.79400625002745,
      "v": 62
    },
    {
      "midi": 65,
      "hit": false,
      "t": 51305.121406250546,
      "d": 180.88226250001753,
      "v": 81
    },
    {
      "midi": 85,
      "hit": false,
      "t": 51306.591993750546,
      "d": 124.26464375001524,
      "v": 76
    },
    {
      "midi": 87,
      "hit": false,
      "t": 51308.062581250546,
      "d": 194.11755000001722,
      "v": 80
    },
    {
      "midi": 56,
      "hit": false,
      "t": 51308.79787500055,
      "d": 167.64697500001057,
      "v": 80
    },
    {
      "midi": 75,
      "hit": false,
      "t": 51309.53316875055,
      "d": 195.5881375000099,
      "v": 91
    },
    {
      "midi": 60,
      "hit": false,
      "t": 51311.73905000056,
      "d": 208.8234250000096,
      "v": 79
    },
    {
      "midi": 80,
      "hit": false,
      "t": 51317.62140000056,
      "d": 194.8528437500063,
      "v": 67
    },
    {
      "midi": 56,
      "hit": false,
      "t": 51584.533031250576,
      "d": 437.49978125002235,
      "v": 63
    },
    {
      "midi": 65,
      "hit": false,
      "t": 51586.003618750576,
      "d": 471.32329375002155,
      "v": 57
    },
    {
      "midi": 85,
      "hit": false,
      "t": 51586.73891250058,
      "d": 193.3822562500136,
      "v": 63
    },
    {
      "midi": 61,
      "hit": false,
      "t": 51587.47420625058,
      "d": 549.999725000016,
      "v": 48
    },
    {
      "midi": 73,
      "hit": false,
      "t": 51588.94479375058,
      "d": 266.91163125001185,
      "v": 53
    },
    {
      "midi": 60,
      "hit": false,
      "t": 51594.09185000059,
      "d": 270.5881000000081,
      "v": 65
    },
    {
      "midi": 80,
      "hit": false,
      "t": 51594.82714375059,
      "d": 186.76461250000284,
      "v": 57
    },
    {
      "midi": 61,
      "hit": false,
      "t": 52235.2680000006,
      "d": 522.7938562500203,
      "v": 36
    },
    {
      "midi": 82,
      "hit": false,
      "t": 52246.297406250604,
      "d": 311.76455000000715,
      "v": 52
    },
    {
      "midi": 65,
      "hit": false,
      "t": 52252.1797562506,
      "d": 391.91156875001616,
      "v": 42
    },
    {
      "midi": 55,
      "hit": false,
      "t": 52252.91505000061,
      "d": 1108.8229750000392,
      "v": 44
    },
    {
      "midi": 70,
      "hit": false,
      "t": 52257.32681250061,
      "d": 350.73511875000986,
      "v": 36
    },
    {
      "midi": 75,
      "hit": false,
      "t": 52261.00328125061,
      "d": 312.4998437500035,
      "v": 40
    },
    {
      "midi": 67,
      "hit": false,
      "t": 52953.64999375062,
      "d": 487.49975625002844,
      "v": 39
    },
    {
      "midi": 61,
      "hit": false,
      "t": 52955.12058125062,
      "d": 521.3232687500276,
      "v": 37
    },
    {
      "midi": 76,
      "hit": false,
      "t": 52960.26763750063,
      "d": 529.4115000000311,
      "v": 35
    },
    {
      "midi": 71,
      "hit": false,
      "t": 52969.091162500634,
      "d": 511.0291562500206,
      "v": 44
    },
    {
      "midi": 73,
      "hit": false,
      "t": 52973.502925000634,
      "d": 396.32333125001605,
      "v": 30
    },
    {
      "midi": 64,
      "hit": false,
      "t": 52974.23821875064,
      "d": 379.41157500000554,
      "v": 36
    },
    {
      "midi": 58,
      "hit": false,
      "t": 53644.09082500066,
      "d": 1238.9699687500251,
      "v": 42
    },
    {
      "midi": 63,
      "hit": false,
      "t": 53649.97317500066,
      "d": 237.49988125000527,
      "v": 49
    },
    {
      "midi": 60,
      "hit": false,
      "t": 53661.002581250665,
      "d": 572.7938312500119,
      "v": 44
    },
    {
      "midi": 70,
      "hit": false,
      "t": 53671.296693750664,
      "d": 158.08815624999988,
      "v": 61
    },
    {
      "midi": 72,
      "hit": false,
      "t": 53896.296581250666,
      "d": 76.47055000000546,
      "v": 37
    },
    {
      "midi": 70,
      "hit": false,
      "t": 53929.38480000067,
      "d": 116.17641250000452,
      "v": 42
    },
    {
      "midi": 69,
      "hit": false,
      "t": 54030.855337500674,
      "d": 157.35286250000354,
      "v": 31
    },
    {
      "midi": 53,
      "hit": false,
      "t": 54062.47296875068,
      "d": 859.5583937500123,
      "v": 1
    },
    {
      "midi": 70,
      "hit": false,
      "t": 54241.149350000676,
      "d": 102.94112499999756,
      "v": 57
    },
    {
      "midi": 63,
      "hit": false,
      "t": 54381.59045625068,
      "d": 205.14695625000604,
      "v": 45
    },
    {
      "midi": 72,
      "hit": false,
      "t": 54383.79633750068,
      "d": 102.20583125000121,
      "v": 71
    },
    {
      "midi": 60,
      "hit": false,
      "t": 54410.26691250068,
      "d": 395.58803750000516,
      "v": 34
    },
    {
      "midi": 68,
      "hit": false,
      "t": 54613.943281250686,
      "d": 126.470524999997,
      "v": 59
    },
    {
      "midi": 65,
      "hit": false,
      "t": 54782.325550000685,
      "d": 115.4411187500009,
      "v": 40
    },
    {
      "midi": 63,
      "hit": false,
      "t": 54977.91368750069,
      "d": 102.94112499999756,
      "v": 42
    },
    {
      "midi": 67,
      "hit": false,
      "t": 55116.148912500685,
      "d": 444.85271875000035,
      "v": 66
    },
    {
      "midi": 58,
      "hit": false,
      "t": 55336.00174375068,
      "d": 295.58808750000026,
      "v": 65
    },
    {
      "midi": 55,
      "hit": false,
      "t": 55410.266412500685,
      "d": 57.35291249999864,
      "v": 27
    },
    {
      "midi": 59,
      "hit": false,
      "t": 55752.913300000684,
      "d": 202.94107500000246,
      "v": 63
    },
    {
      "midi": 56,
      "hit": false,
      "t": 55769.089762500684,
      "d": 141.91169375000027,
      "v": 42
    },
    {
      "midi": 56,
      "hit": false,
      "t": 55996.29553125069,
      "d": 327.2057187500104,
      "v": 46
    },
    {
      "midi": 59,
      "hit": false,
      "t": 55999.97200000069,
      "d": 336.0292437500102,
      "v": 28
    },
    {
      "midi": 65,
      "hit": false,
      "t": 56002.91317500069,
      "d": 390.4409812500089,
      "v": 44
    },
    {
      "midi": 53,
      "hit": false,
      "t": 56013.20728750069,
      "d": 362.4998187500096,
      "v": 36
    },
    {
      "midi": 62,
      "hit": false,
      "t": 56019.824931250696,
      "d": 255.14693125000485,
      "v": 60
    },
    {
      "midi": 61,
      "hit": false,
      "t": 56444.089425000704,
      "d": 77.94113750000542,
      "v": 59
    },
    {
      "midi": 56,
      "hit": false,
      "t": 56446.29530625071,
      "d": 28.676456250002957,
      "v": 52
    },
    {
      "midi": 46,
      "hit": false,
      "t": 56455.85412500071,
      "d": 88.23525000000518,
      "v": 47
    },
    {
      "midi": 84,
      "hit": false,
      "t": 56902.17743125072,
      "d": 129.41170000001148,
      "v": 80
    },
    {
      "midi": 72,
      "hit": false,
      "t": 56905.85390000072,
      "d": 119.85288125000807,
      "v": 81
    },
    {
      "midi": 60,
      "hit": false,
      "t": 56907.32448750072,
      "d": 179.41167500001757,
      "v": 70
    },
    {
      "midi": 56,
      "hit": false,
      "t": 56908.059781250726,
      "d": 160.29403750001075,
      "v": 74
    },
    {
      "midi": 61,
      "hit": false,
      "t": 56915.412718750726,
      "d": 186.02931875001377,
      "v": 60
    },
    {
      "midi": 65,
      "hit": false,
      "t": 56916.14801250073,
      "d": 151.47051250000368,
      "v": 70
    },
    {
      "midi": 83,
      "hit": false,
      "t": 56927.91271250073,
      "d": 36.76468749999913,
      "v": 36
    },
    {
      "midi": 73,
      "hit": false,
      "t": 57147.030250000746,
      "d": 149.26463125000737,
      "v": 57
    },
    {
      "midi": 65,
      "hit": false,
      "t": 57147.76554375075,
      "d": 166.91168125000695,
      "v": 50
    },
    {
      "midi": 56,
      "hit": false,
      "t": 57148.50083750075,
      "d": 167.6469750000033,
      "v": 59
    },
    {
      "midi": 85,
      "hit": false,
      "t": 57149.97142500075,
      "d": 150.73521875000006,
      "v": 74
    },
    {
      "midi": 60,
      "hit": false,
      "t": 57155.85377500075,
      "d": 168.38226875000692,
      "v": 55
    },
    {
      "midi": 61,
      "hit": false,
      "t": 57156.589068750756,
      "d": 180.88226250000298,
      "v": 57
    },
    {
      "midi": 56,
      "hit": false,
      "t": 57372.03013750076,
      "d": 361.0292312500096,
      "v": 49
    },
    {
      "midi": 60,
      "hit": false,
      "t": 57380.118368750766,
      "d": 255.8822250000012,
      "v": 36
    },
    {
      "midi": 61,
      "hit": false,
      "t": 57380.85366250077,
      "d": 288.23515000000043,
      "v": 39
    },
    {
      "midi": 65,
      "hit": false,
      "t": 57385.26542500077,
      "d": 251.4704625000013,
      "v": 58
    },
    {
      "midi": 75,
      "hit": false,
      "t": 57389.67718750077,
      "d": 277.9410375000007,
      "v": 50
    },
    {
      "midi": 87,
      "hit": false,
      "t": 57394.82424375077,
      "d": 306.61749374999636,
      "v": 56
    },
    {
      "midi": 61,
      "hit": false,
      "t": 57835.26520000077,
      "d": 310.29396250001446,
      "v": 44
    },
    {
      "midi": 55,
      "hit": false,
      "t": 57852.91225000077,
      "d": 277.2057437500116,
      "v": 51
    },
    {
      "midi": 64,
      "hit": false,
      "t": 57855.85342500077,
      "d": 266.91163125001185,
      "v": 45
    },
    {
      "midi": 76,
      "hit": false,
      "t": 57858.79460000077,
      "d": 188.97049375000643,
      "v": 50
    },
    {
      "midi": 88,
      "hit": false,
      "t": 57860.26518750077,
      "d": 239.70576250000886,
      "v": 49
    },
    {
      "midi": 82,
      "hit": false,
      "t": 57869.824006250776,
      "d": 224.99988750000193,
      "v": 37
    },
    {
      "midi": 85,
      "hit": false,
      "t": 57874.97106250078,
      "d": 211.02930624999863,
      "v": 33
    },
    {
      "midi": 61,
      "hit": false,
      "t": 58324.97083750079,
      "d": 174.99991250001767,
      "v": 75
    },
    {
      "midi": 91,
      "hit": false,
      "t": 58327.91201250079,
      "d": 135.29405000001134,
      "v": 75
    },
    {
      "midi": 86,
      "hit": false,
      "t": 58329.38260000079,
      "d": 122.05876250000438,
      "v": 75
    },
    {
      "midi": 79,
      "hit": false,
      "t": 58332.32377500079,
      "d": 88.97054375000153,
      "v": 71
    },
    {
      "midi": 55,
      "hit": false,
      "t": 58333.059068750794,
      "d": 139.70581250001123,
      "v": 74
    },
    {
      "midi": 64,
      "hit": false,
      "t": 58334.529656250794,
      "d": 126.47052500000427,
      "v": 72
    },
    {
      "midi": 94,
      "hit": false,
      "t": 58593.35305625081,
      "d": 169.85285625001416,
      "v": 81
    },
    {
      "midi": 61,
      "hit": false,
      "t": 58594.08835000081,
      "d": 235.29400000000896,
      "v": 78
    },
    {
      "midi": 82,
      "hit": false,
      "t": 58596.29423125082,
      "d": 165.44109375000698,
      "v": 86
    },
    {
      "midi": 55,
      "hit": false,
      "t": 58597.02952500082,
      "d": 188.2352000000028,
      "v": 80
    },
    {
      "midi": 64,
      "hit": false,
      "t": 58597.764818750824,
      "d": 197.79401874999894,
      "v": 83
    },
    {
      "midi": 87,
      "hit": false,
      "t": 58621.29421875082,
      "d": 128.67640625000058,
      "v": 42
    },
    {
      "midi": 55,
      "hit": false,
      "t": 58844.823518750825,
      "d": 127.94111250001879,
      "v": 59
    },
    {
      "midi": 94,
      "hit": false,
      "t": 58846.294106250825,
      "d": 70.58820000001288,
      "v": 68
    },
    {
      "midi": 82,
      "hit": false,
      "t": 58849.97057500083,
      "d": 71.32349375000922,
      "v": 65
    },
    {
      "midi": 61,
      "hit": false,
      "t": 58853.64704375083,
      "d": 146.32345625001471,
      "v": 26
    },
    {
      "midi": 64,
      "hit": false,
      "t": 58857.323512500836,
      "d": 98.52936250000494,
      "v": 57
    },
    {
      "midi": 61,
      "hit": false,
      "t": 59067.61752500085,
      "d": 386.0292187500236,
      "v": 53
    },
    {
      "midi": 55,
      "hit": false,
      "t": 59073.49987500085,
      "d": 294.85279375001846,
      "v": 54
    },
    {
      "midi": 87,
      "hit": false,
      "t": 59084.529281250856,
      "d": 100.7352437500158,
      "v": 56
    },
    {
      "midi": 75,
      "hit": false,
      "t": 59085.26457500086,
      "d": 91.91171875000873,
      "v": 56
    },
    {
      "midi": 64,
      "hit": false,
      "t": 59085.99986875086,
      "d": 257.35281250000844,
      "v": 49
    },
    {
      "midi": 75,
      "hit": false,
      "t": 59321.29386875087,
      "d": 53.67644375000236,
      "v": 45
    },
    {
      "midi": 87,
      "hit": false,
      "t": 59324.23504375087,
      "d": 71.32349375000194,
      "v": 52
    },
    {
      "midi": 63,
      "hit": false,
      "t": 59551.44081250088,
      "d": 338.97041875003924,
      "v": 64
    },
    {
      "midi": 60,
      "hit": false,
      "t": 59552.91140000088,
      "d": 197.79401875002077,
      "v": 62
    },
    {
      "midi": 58,
      "hit": false,
      "t": 59555.85257500088,
      "d": 386.0292187500454,
      "v": 51
    },
    {
      "midi": 91,
      "hit": false,
      "t": 59566.14668750088,
      "d": 80.88231250001263,
      "v": 65
    },
    {
      "midi": 53,
      "hit": false,
      "t": 59566.88198125088,
      "d": 352.20570625003893,
      "v": 44
    },
    {
      "midi": 79,
      "hit": false,
      "t": 59568.35256875088,
      "d": 95.58818750001228,
      "v": 70
    },
    {
      "midi": 89,
      "hit": false,
      "t": 59581.58785625088,
      "d": 35.29410000000644,
      "v": 50
    },
    {
      "midi": 90,
      "hit": false,
      "t": 59583.793737500884,
      "d": 96.32348125000863,
      "v": 37
    },
    {
      "midi": 60,
      "hit": false,
      "t": 59792.6171625009,
      "d": 157.35286250002537,
      "v": 18
    },
    {
      "midi": 91,
      "hit": false,
      "t": 59799.234806250905,
      "d": 40.44115625000995,
      "v": 58
    },
    {
      "midi": 89,
      "hit": false,
      "t": 59801.44068750091,
      "d": 69.11761250000563,
      "v": 63
    },
    {
      "midi": 79,
      "hit": false,
      "t": 59803.64656875091,
      "d": 59.55879375000222,
      "v": 57
    },
    {
      "midi": 63,
      "hit": false,
      "t": 60023.499400000925,
      "d": 145.5881625000111,
      "v": 48
    },
    {
      "midi": 72,
      "hit": false,
      "t": 60027.17586875093,
      "d": 97.05877500000497,
      "v": 56
    },
    {
      "midi": 84,
      "hit": false,
      "t": 60030.11704375093,
      "d": 68.38231875000201,
      "v": 40
    },
    {
      "midi": 60,
      "hit": false,
      "t": 60034.52880625093,
      "d": 150.73521875000733,
      "v": 35
    },
    {
      "midi": 58,
      "hit": false,
      "t": 60039.67586250093,
      "d": 150.73521875000733,
      "v": 37
    },
    {
      "midi": 53,
      "hit": false,
      "t": 60061.73467500093,
      "d": 691.1761250000345,
      "v": 20
    },
    {
      "midi": 82,
      "hit": false,
      "t": 60066.14643750093,
      "d": 127.2058187500079,
      "v": 20
    },
    {
      "midi": 63,
      "hit": false,
      "t": 60252.17575625094,
      "d": 109.55876875000104,
      "v": 45
    },
    {
      "midi": 58,
      "hit": false,
      "t": 60281.58750625094,
      "d": 617.6467500000363,
      "v": 23
    },
    {
      "midi": 60,
      "hit": false,
      "t": 60291.14632500094,
      "d": 101.47053749999759,
      "v": 29
    },
    {
      "midi": 63,
      "hit": false,
      "t": 60482.32270000094,
      "d": 119.85288125000807,
      "v": 62
    },
    {
      "midi": 87,
      "hit": false,
      "t": 60484.52858125095,
      "d": 133.8234625000041,
      "v": 77
    },
    {
      "midi": 75,
      "hit": false,
      "t": 60485.99916875095,
      "d": 129.4117000000042,
      "v": 81
    },
    {
      "midi": 60,
      "hit": false,
      "t": 60489.67563750095,
      "d": 150.73521875000006,
      "v": 38
    },
    {
      "midi": 63,
      "hit": false,
      "t": 60709.528468750956,
      "d": 88.97054375001608,
      "v": 46
    },
    {
      "midi": 75,
      "hit": false,
      "t": 60716.14611250096,
      "d": 68.38231875000929,
      "v": 58
    },
    {
      "midi": 87,
      "hit": false,
      "t": 60717.61670000096,
      "d": 56.61761875000957,
      "v": 64
    },
    {
      "midi": 60,
      "hit": false,
      "t": 60736.734337500966,
      "d": 54.411737500005984,
      "v": 32
    },
    {
      "midi": 60,
      "hit": false,
      "t": 60933.793062500976,
      "d": 405.14685625001584,
      "v": 26
    },
    {
      "midi": 63,
      "hit": false,
      "t": 60935.263650000976,
      "d": 197.79401875000622,
      "v": 60
    },
    {
      "midi": 54,
      "hit": false,
      "t": 60944.82246875098,
      "d": 358.82335000000603,
      "v": 55
    },
    {
      "midi": 69,
      "hit": false,
      "t": 60954.38128750098,
      "d": 140.4411062500003,
      "v": 64
    },
    {
      "midi": 81,
      "hit": false,
      "t": 60957.32246250098,
      "d": 133.08816875000048,
      "v": 57
    },
    {
      "midi": 63,
      "hit": false,
      "t": 61172.76353125098,
      "d": 113.97053125000093,
      "v": 28
    },
    {
      "midi": 81,
      "hit": false,
      "t": 61175.70470625098,
      "d": 106.6175937500011,
      "v": 47
    },
    {
      "midi": 69,
      "hit": false,
      "t": 61180.11646875098,
      "d": 58.8234999999986,
      "v": 48
    },
    {
      "midi": 60,
      "hit": false,
      "t": 61392.616362500994,
      "d": 417.6468500000192,
      "v": 36
    },
    {
      "midi": 63,
      "hit": false,
      "t": 61394.086950000994,
      "d": 177.94108750000305,
      "v": 63
    },
    {
      "midi": 54,
      "hit": false,
      "t": 61396.292831251,
      "d": 195.58813750000263,
      "v": 57
    },
    {
      "midi": 84,
      "hit": false,
      "t": 61403.645768751,
      "d": 146.32345625000016,
      "v": 82
    },
    {
      "midi": 72,
      "hit": false,
      "t": 61405.116356251,
      "d": 180.14696874999936,
      "v": 74
    },
    {
      "midi": 84,
      "hit": false,
      "t": 61630.851537501,
      "d": 66.1764375000057,
      "v": 53
    },
    {
      "midi": 72,
      "hit": false,
      "t": 61631.58683125101,
      "d": 73.52937500000553,
      "v": 47
    },
    {
      "midi": 63,
      "hit": false,
      "t": 61638.20447500101,
      "d": 86.76466250000522,
      "v": 38
    },
    {
      "midi": 54,
      "hit": false,
      "t": 61639.67506250101,
      "d": 126.47052500000427,
      "v": 36
    },
    {
      "midi": 83,
      "hit": false,
      "t": 61655.85152500101,
      "d": 44.11762499999895,
      "v": 30
    },
    {
      "midi": 54,
      "hit": false,
      "t": 61870.55730000101,
      "d": 301.4704375000292,
      "v": 53
    },
    {
      "midi": 78,
      "hit": false,
      "t": 61871.292593751015,
      "d": 122.79405625001527,
      "v": 53
    },
    {
      "midi": 66,
      "hit": false,
      "t": 61872.763181251015,
      "d": 111.7646500000119,
      "v": 64
    },
    {
      "midi": 63,
      "hit": false,
      "t": 61883.05729375102,
      "d": 74.26466875000187,
      "v": 51
    },
    {
      "midi": 60,
      "hit": false,
      "t": 61889.674937501026,
      "d": 129.4117000000042,
      "v": 28
    },
    {
      "midi": 78,
      "hit": false,
      "t": 62088.93954375103,
      "d": 86.02936875000887,
      "v": 50
    },
    {
      "midi": 63,
      "hit": false,
      "t": 62094.82189375103,
      "d": 77.20584375000908,
      "v": 50
    },
    {
      "midi": 66,
      "hit": false,
      "t": 62101.439537501035,
      "d": 33.08821875000285,
      "v": 45
    },
    {
      "midi": 61,
      "hit": false,
      "t": 62325.70413125104,
      "d": 192.64696250001725,
      "v": 42
    },
    {
      "midi": 65,
      "hit": false,
      "t": 62328.64530625104,
      "d": 158.82345000001078,
      "v": 74
    },
    {
      "midi": 56,
      "hit": false,
      "t": 62334.52765625104,
      "d": 139.70581250000396,
      "v": 73
    },
    {
      "midi": 80,
      "hit": false,
      "t": 62337.46883125104,
      "d": 127.94111250000424,
      "v": 79
    },
    {
      "midi": 68,
      "hit": false,
      "t": 62340.41000625104,
      "d": 138.9705187500076,
      "v": 82
    },
    {
      "midi": 60,
      "hit": false,
      "t": 62342.615887501044,
      "d": 166.1763875000106,
      "v": 60
    },
    {
      "midi": 75,
      "hit": false,
      "t": 62343.35118125105,
      "d": 164.70580000000336,
      "v": 74
    },
    {
      "midi": 80,
      "hit": false,
      "t": 62552.90990000106,
      "d": 84.5587812500089,
      "v": 53
    },
    {
      "midi": 65,
      "hit": false,
      "t": 62567.61577500106,
      "d": 84.5587812500089,
      "v": 54
    },
    {
      "midi": 68,
      "hit": false,
      "t": 62569.821656251064,
      "d": 74.9999625000055,
      "v": 55
    },
    {
      "midi": 56,
      "hit": false,
      "t": 62577.90988750107,
      "d": 100.73524375000125,
      "v": 44
    },
    {
      "midi": 61,
      "hit": false,
      "t": 62579.38047500107,
      "d": 126.47052500000427,
      "v": 34
    },
    {
      "midi": 60,
      "hit": false,
      "t": 62600.70399375107,
      "d": 73.52937499999825,
      "v": 35
    },
    {
      "midi": 77,
      "hit": false,
      "t": 62808.05683125107,
      "d": 146.32345625000744,
      "v": 53
    },
    {
      "midi": 56,
      "hit": false,
      "t": 62808.79212500108,
      "d": 169.85285625001416,
      "v": 49
    },
    {
      "midi": 61,
      "hit": false,
      "t": 62809.52741875108,
      "d": 153.67639375000726,
      "v": 34
    },
    {
      "midi": 65,
      "hit": false,
      "t": 62813.203887501084,
      "d": 130.8822874999969,
      "v": 50
    },
    {
      "midi": 72,
      "hit": false,
      "t": 62816.145062501084,
      "d": 123.52934999999707,
      "v": 51
    },
    {
      "midi": 60,
      "hit": false,
      "t": 62820.556825001084,
      "d": 134.55875625000044,
      "v": 46
    },
    {
      "midi": 77,
      "hit": false,
      "t": 63034.5273062511,
      "d": 76.47055000001274,
      "v": 37
    },
    {
      "midi": 65,
      "hit": false,
      "t": 63036.7331875011,
      "d": 105.14700625001569,
      "v": 45
    },
    {
      "midi": 72,
      "hit": false,
      "t": 63041.1449500011,
      "d": 103.67641875001573,
      "v": 45
    },
    {
      "midi": 56,
      "hit": false,
      "t": 63046.292006251104,
      "d": 93.3823062500087,
      "v": 27
    },
    {
      "midi": 61,
      "hit": false,
      "t": 63055.85082500111,
      "d": 92.64701250001235,
      "v": 23
    },
    {
      "midi": 76,
      "hit": false,
      "t": 63274.23306875112,
      "d": 80.14701875000901,
      "v": 40
    },
    {
      "midi": 71,
      "hit": false,
      "t": 63274.968362501124,
      "d": 116.17641250000452,
      "v": 41
    },
    {
      "midi": 56,
      "hit": false,
      "t": 63290.40953125113,
      "d": 152.20580625000002,
      "v": 45
    },
    {
      "midi": 61,
      "hit": false,
      "t": 63302.90952500113,
      "d": 97.0587749999977,
      "v": 32
    },
    {
      "midi": 75,
      "hit": false,
      "t": 63530.850587501125,
      "d": 442.64683750000404,
      "v": 44
    },
    {
      "midi": 55,
      "hit": false,
      "t": 63544.82116875113,
      "d": 620.5879249999998,
      "v": 40
    },
    {
      "midi": 63,
      "hit": false,
      "t": 63549.96822500113,
      "d": 376.47039999999834,
      "v": 36
    },
    {
      "midi": 70,
      "hit": false,
      "t": 63553.644693751135,
      "d": 341.9115937499955,
      "v": 47
    },
    {
      "midi": 60,
      "hit": false,
      "t": 64720.555875001126,
      "d": 140.44110625000758,
      "v": 53
    },
    {
      "midi": 64,
      "hit": false,
      "t": 64724.967637501126,
      "d": 95.588187500005,
      "v": 55
    },
    {
      "midi": 45,
      "hit": false,
      "t": 64727.908812501126,
      "d": 135.29405000001134,
      "v": 42
    },
    {
      "midi": 55,
      "hit": false,
      "t": 64741.144100001125,
      "d": 120.58817500001169,
      "v": 36
    },
    {
      "midi": 63,
      "hit": false,
      "t": 64999.967500001134,
      "d": 373.5292250000275,
      "v": 45
    },
    {
      "midi": 55,
      "hit": false,
      "t": 65005.11455625114,
      "d": 301.47043750002194,
      "v": 40
    },
    {
      "midi": 51,
      "hit": false,
      "t": 65022.761606251144,
      "d": 381.6174562500237,
      "v": 34
    },
    {
      "midi": 60,
      "hit": false,
      "t": 65029.37925000115,
      "d": 349.9998250000208,
      "v": 24
    },
    {
      "midi": 58,
      "hit": false,
      "t": 65031.58513125115,
      "d": 355.14688125001703,
      "v": 36
    },
    {
      "midi": 44,
      "hit": false,
      "t": 65038.202775001155,
      "d": 336.0292437500102,
      "v": 29
    },
    {
      "midi": 63,
      "hit": false,
      "t": 65741.14360000117,
      "d": 41.17644999999902,
      "v": 45
    },
    {
      "midi": 70,
      "hit": false,
      "t": 65746.29065625118,
      "d": 128.67640625000058,
      "v": 74
    },
    {
      "midi": 60,
      "hit": false,
      "t": 65752.17300625118,
      "d": 94.11759999999776,
      "v": 43
    },
    {
      "midi": 58,
      "hit": false,
      "t": 65783.79063750118,
      "d": 113.97053125000093,
      "v": 19
    },
    {
      "midi": 72,
      "hit": false,
      "t": 65891.87881875118,
      "d": 96.32348125000135,
      "v": 44
    },
    {
      "midi": 70,
      "hit": false,
      "t": 65944.08467500118,
      "d": 155.14698124999995,
      "v": 35
    },
    {
      "midi": 69,
      "hit": false,
      "t": 66043.34933125119,
      "d": 147.0587499999965,
      "v": 44
    },
    {
      "midi": 70,
      "hit": false,
      "t": 66238.20217500118,
      "d": 130.14699375000782,
      "v": 59
    },
    {
      "midi": 63,
      "hit": false,
      "t": 66389.67268750118,
      "d": 544.1173749999871,
      "v": 42
    },
    {
      "midi": 60,
      "hit": false,
      "t": 66403.64326875118,
      "d": 514.7056249999878,
      "v": 37
    },
    {
      "midi": 56,
      "hit": false,
      "t": 66410.26091250118,
      "d": 551.4703124999942,
      "v": 48
    },
    {
      "midi": 72,
      "hit": false,
      "t": 66410.99620625118,
      "d": 182.35284999999567,
      "v": 53
    },
    {
      "midi": 53,
      "hit": false,
      "t": 66411.73150000117,
      "d": 855.8819249999942,
      "v": 20
    },
    {
      "midi": 67,
      "hit": false,
      "t": 66612.46669375118,
      "d": 452.2056562499929,
      "v": 53
    },
    {
      "midi": 63,
      "hit": false,
      "t": 67067.61352500117,
      "d": 277.9410375000007,
      "v": 49
    },
    {
      "midi": 68,
      "hit": false,
      "t": 67071.28999375117,
      "d": 233.08811875000538,
      "v": 56
    },
    {
      "midi": 56,
      "hit": false,
      "t": 67094.08410000117,
      "d": 499.26445625000633,
      "v": 37
    },
    {
      "midi": 60,
      "hit": false,
      "t": 67094.81939375117,
      "d": 480.14681875001406,
      "v": 39
    },
    {
      "midi": 53,
      "hit": false,
      "t": 67563.20151250118,
      "d": 95.58818749999045,
      "v": 56
    },
    {
      "midi": 55,
      "hit": false,
      "t": 67798.49551250118,
      "d": 344.8527687500027,
      "v": 66
    },
    {
      "midi": 53,
      "hit": false,
      "t": 67799.23080625117,
      "d": 331.6174812500103,
      "v": 67
    },
    {
      "midi": 77,
      "hit": false,
      "t": 67799.96610000117,
      "d": 361.76452500000596,
      "v": 88
    },
    {
      "midi": 84,
      "hit": false,
      "t": 67801.43668750118,
      "d": 332.35277500000666,
      "v": 92
    },
    {
      "midi": 80,
      "hit": false,
      "t": 67802.90727500118,
      "d": 391.91156874998705,
      "v": 72
    },
    {
      "midi": 72,
      "hit": false,
      "t": 67803.64256875118,
      "d": 317.646900000007,
      "v": 85
    },
    {
      "midi": 62,
      "hit": false,
      "t": 67805.11315625119,
      "d": 322.0586624999996,
      "v": 81
    },
    {
      "midi": 58,
      "hit": false,
      "t": 67805.84845000118,
      "d": 377.2056937499874,
      "v": 74
    },
    {
      "midi": 80,
      "hit": false,
      "t": 68256.58351875117,
      "d": 235.29400000003807,
      "v": 48
    },
    {
      "midi": 58,
      "hit": false,
      "t": 68263.93645625118,
      "d": 225.73518125002738,
      "v": 56
    },
    {
      "midi": 77,
      "hit": false,
      "t": 68264.67175000117,
      "d": 191.17637500002456,
      "v": 67
    },
    {
      "midi": 86,
      "hit": false,
      "t": 68266.87763125118,
      "d": 150.7352187500219,
      "v": 61
    },
    {
      "midi": 62,
      "hit": false,
      "t": 68271.28939375118,
      "d": 187.49990625001374,
      "v": 60
    },
    {
      "midi": 84,
      "hit": false,
      "t": 68273.49527500119,
      "d": 142.6469875000039,
      "v": 71
    },
    {
      "midi": 53,
      "hit": false,
      "t": 68274.23056875118,
      "d": 189.70578750001732,
      "v": 51
    },
    {
      "midi": 55,
      "hit": false,
      "t": 68275.70115625119,
      "d": 186.0293187500065,
      "v": 55
    },
    {
      "midi": 74,
      "hit": false,
      "t": 68281.58350625119,
      "d": 160.29403750000347,
      "v": 55
    },
    {
      "midi": 84,
      "hit": false,
      "t": 68536.7304375012,
      "d": 538.9703187500272,
      "v": 47
    },
    {
      "midi": 72,
      "hit": false,
      "t": 68540.4069062512,
      "d": 308.8233750000072,
      "v": 47
    },
    {
      "midi": 62,
      "hit": false,
      "t": 68543.3480812512,
      "d": 331.6174812500103,
      "v": 45
    },
    {
      "midi": 58,
      "hit": false,
      "t": 68544.0833750012,
      "d": 355.14688125000976,
      "v": 51
    },
    {
      "midi": 80,
      "hit": false,
      "t": 68547.0245500012,
      "d": 430.14684375001525,
      "v": 34
    },
    {
      "midi": 53,
      "hit": false,
      "t": 68550.70101875119,
      "d": 342.6468875000137,
      "v": 51
    },
    {
      "midi": 77,
      "hit": false,
      "t": 68553.64219375119,
      "d": 304.4116125000146,
      "v": 46
    },
    {
      "midi": 55,
      "hit": false,
      "t": 68558.0539562512,
      "d": 345.5880625000136,
      "v": 39
    },
    {
      "midi": 53,
      "hit": false,
      "t": 69016.87725625122,
      "d": 93.38230625001597,
      "v": 35
    },
    {
      "midi": 58,
      "hit": false,
      "t": 69033.78901250122,
      "d": 62.49996875000943,
      "v": 25
    },
    {
      "midi": 55,
      "hit": false,
      "t": 69047.75959375122,
      "d": 38.97056875000999,
      "v": 26
    },
    {
      "midi": 84,
      "hit": false,
      "t": 69247.02420000124,
      "d": 299.26455624999653,
      "v": 62
    },
    {
      "midi": 62,
      "hit": false,
      "t": 69255.11243125124,
      "d": 412.49979374998657,
      "v": 46
    },
    {
      "midi": 58,
      "hit": false,
      "t": 69259.52419375125,
      "d": 413.2350874999829,
      "v": 34
    },
    {
      "midi": 52,
      "hit": false,
      "t": 69263.20066250124,
      "d": 994.1171499999764,
      "v": 34
    },
    {
      "midi": 77,
      "hit": false,
      "t": 69269.81830625124,
      "d": 211.76459999999497,
      "v": 43
    },
    {
      "midi": 72,
      "hit": false,
      "t": 69278.64183125124,
      "d": 108.82347499999742,
      "v": 26
    },
    {
      "midi": 58,
      "hit": false,
      "t": 69934.52385625122,
      "d": 362.4998187500023,
      "v": 36
    },
    {
      "midi": 62,
      "hit": false,
      "t": 69946.28855625122,
      "d": 450.7350687500002,
      "v": 30
    },
    {
      "midi": 98,
      "hit": false,
      "t": 70151.43551250122,
      "d": 119.85288125000079,
      "v": 87
    },
    {
      "midi": 96,
      "hit": false,
      "t": 70396.28833125123,
      "d": 96.3234812499868,
      "v": 67
    },
    {
      "midi": 98,
      "hit": false,
      "t": 70397.75891875122,
      "d": 59.55879374999495,
      "v": 74
    },
    {
      "midi": 93,
      "hit": false,
      "t": 70550.70001875122,
      "d": 133.8234625000041,
      "v": 71
    },
    {
      "midi": 62,
      "hit": false,
      "t": 70592.61176250121,
      "d": 533.0879687500128,
      "v": 22
    },
    {
      "midi": 60,
      "hit": false,
      "t": 70592.61176250121,
      "d": 560.2938375000085,
      "v": 27
    },
    {
      "midi": 53,
      "hit": false,
      "t": 70615.40586875122,
      "d": 1368.381668750022,
      "v": 22
    },
    {
      "midi": 57,
      "hit": false,
      "t": 70623.49410000122,
      "d": 1303.6758187500236,
      "v": 22
    },
    {
      "midi": 89,
      "hit": false,
      "t": 70718.34699375123,
      "d": 77.94113750000542,
      "v": 30
    },
    {
      "midi": 94,
      "hit": false,
      "t": 70849.96457500123,
      "d": 123.52934999999707,
      "v": 76
    },
    {
      "midi": 93,
      "hit": false,
      "t": 71131.58208125122,
      "d": 186.7646124999883,
      "v": 85
    },
    {
      "midi": 89,
      "hit": false,
      "t": 71317.61140000122,
      "d": 84.55878125001618,
      "v": 49
    },
    {
      "midi": 88,
      "hit": false,
      "t": 71329.37610000122,
      "d": 41.91174375000992,
      "v": 52
    },
    {
      "midi": 62,
      "hit": false,
      "t": 71333.78786250122,
      "d": 548.5291375000088,
      "v": 32
    },
    {
      "midi": 60,
      "hit": false,
      "t": 71334.52315625122,
      "d": 563.9703062500193,
      "v": 33
    },
    {
      "midi": 84,
      "hit": false,
      "t": 71467.61132500123,
      "d": 104.4117125000048,
      "v": 37
    },
    {
      "midi": 81,
      "hit": false,
      "t": 71645.55241250123,
      "d": 107.35288750000473,
      "v": 64
    },
    {
      "midi": 76,
      "hit": false,
      "t": 71977.16989375124,
      "d": 80.8823124999908,
      "v": 39
    },
    {
      "midi": 60,
      "hit": false,
      "t": 72091.87571875124,
      "d": 470.5880000000034,
      "v": 36
    },
    {
      "midi": 57,
      "hit": false,
      "t": 72095.55218750123,
      "d": 470.5880000000034,
      "v": 36
    },
    {
      "midi": 50,
      "hit": false,
      "t": 72105.84630000124,
      "d": 725.734931250001,
      "v": 36
    },
    {
      "midi": 53,
      "hit": false,
      "t": 72108.05218125125,
      "d": 522.0585624999949,
      "v": 36
    },
    {
      "midi": 77,
      "hit": false,
      "t": 72114.66982500124,
      "d": 146.32345625000016,
      "v": 44
    },
    {
      "midi": 79,
      "hit": false,
      "t": 72119.08158750125,
      "d": 53.67644374999509,
      "v": 40
    },
    {
      "midi": 77,
      "hit": false,
      "t": 72455.84612500125,
      "d": 138.97051874999306,
      "v": 66
    },
    {
      "midi": 74,
      "hit": false,
      "t": 72652.90485000124,
      "d": 118.38229374999355,
      "v": 73
    },
    {
      "midi": 69,
      "hit": false,
      "t": 72800.69889375124,
      "d": 132.3528750000114,
      "v": 54
    },
    {
      "midi": 57,
      "hit": false,
      "t": 72817.61065000124,
      "d": 66.1764375000057,
      "v": 31
    },
    {
      "midi": 67,
      "hit": false,
      "t": 72994.81644375125,
      "d": 91.17642499999783,
      "v": 66
    },
    {
      "midi": 62,
      "hit": false,
      "t": 73350.69861875124,
      "d": 40.44115625000268,
      "v": 44
    },
    {
      "midi": 62,
      "hit": false,
      "t": 73474.96326250125,
      "d": 399.9998000000196,
      "v": 34
    },
    {
      "midi": 67,
      "hit": false,
      "t": 73477.90443750125,
      "d": 365.4409937500168,
      "v": 63
    },
    {
      "midi": 58,
      "hit": false,
      "t": 73479.37502500125,
      "d": 391.17627500000526,
      "v": 48
    },
    {
      "midi": 53,
      "hit": false,
      "t": 73493.34560625126,
      "d": 572.7938312500337,
      "v": 18
    },
    {
      "midi": 57,
      "hit": false,
      "t": 73500.69854375126,
      "d": 670.5879000000277,
      "v": 36
    },
    {
      "midi": 69,
      "hit": false,
      "t": 73880.11011875127,
      "d": 163.9705062500143,
      "v": 78
    },
    {
      "midi": 67,
      "hit": false,
      "t": 73908.05128125128,
      "d": 34.55880625000282,
      "v": 31
    },
    {
      "midi": 58,
      "hit": false,
      "t": 74105.8453000013,
      "d": 82.35289999999804,
      "v": 42
    },
    {
      "midi": 62,
      "hit": false,
      "t": 74112.46294375129,
      "d": 34.55880625000282,
      "v": 28
    },
    {
      "midi": 70,
      "hit": false,
      "t": 74119.8158812513,
      "d": 130.88228749998962,
      "v": 74
    },
    {
      "midi": 69,
      "hit": false,
      "t": 74317.60990000129,
      "d": 36.029393749995506,
      "v": 49
    },
    {
      "midi": 61,
      "hit": false,
      "t": 74548.4921375013,
      "d": 511.76444999998785,
      "v": 51
    },
    {
      "midi": 64,
      "hit": false,
      "t": 74552.16860625129,
      "d": 521.323268749984,
      "v": 47
    },
    {
      "midi": 67,
      "hit": false,
      "t": 74552.90390000129,
      "d": 545.5879624999798,
      "v": 48
    },
    {
      "midi": 58,
      "hit": false,
      "t": 74556.58036875128,
      "d": 403.6762687500013,
      "v": 46
    },
    {
      "midi": 57,
      "hit": false,
      "t": 74571.28624375128,
      "d": 563.2350124999793,
      "v": 47
    },
    {
      "midi": 48,
      "hit": false,
      "t": 75094.81539375127,
      "d": 113.23523749999003,
      "v": 58
    },
    {
      "midi": 55,
      "hit": false,
      "t": 75344.07997500125,
      "d": 34.55880625000282,
      "v": 47
    },
    {
      "midi": 73,
      "hit": false,
      "t": 75571.28574375126,
      "d": 180.14696875000664,
      "v": 58
    },
    {
      "midi": 68,
      "hit": false,
      "t": 75579.37397500126,
      "d": 172.79403124999953,
      "v": 59
    },
    {
      "midi": 70,
      "hit": false,
      "t": 75580.10926875126,
      "d": 189.70578750000277,
      "v": 58
    },
    {
      "midi": 64,
      "hit": false,
      "t": 75580.84456250125,
      "d": 158.08815624999988,
      "v": 71
    },
    {
      "midi": 58,
      "hit": false,
      "t": 75587.46220625125,
      "d": 155.88227500001085,
      "v": 65
    },
    {
      "midi": 56,
      "hit": false,
      "t": 75823.49150000126,
      "d": 139.70581250000396,
      "v": 44
    },
    {
      "midi": 72,
      "hit": false,
      "t": 76041.13845000126,
      "d": 254.4116375000158,
      "v": 54
    },
    {
      "midi": 67,
      "hit": false,
      "t": 76042.60903750127,
      "d": 236.0292937500053,
      "v": 60
    },
    {
      "midi": 62,
      "hit": false,
      "t": 76046.28550625127,
      "d": 125.73523125000065,
      "v": 58
    },
    {
      "midi": 57,
      "hit": false,
      "t": 76055.10903125127,
      "d": 195.58813750000263,
      "v": 46
    },
    {
      "midi": 61,
      "hit": false,
      "t": 77235.99079375128,
      "d": 143.38228125002934,
      "v": 74
    },
    {
      "midi": 65,
      "hit": false,
      "t": 77237.46138125128,
      "d": 111.0293562500301,
      "v": 81
    },
    {
      "midi": 60,
      "hit": false,
      "t": 77238.19667500128,
      "d": 137.49993125002948,
      "v": 77
    },
    {
      "midi": 96,
      "hit": false,
      "t": 77245.54961250129,
      "d": 105.88230000002659,
      "v": 84
    },
    {
      "midi": 55,
      "hit": false,
      "t": 77246.28490625128,
      "d": 123.52935000002617,
      "v": 73
    },
    {
      "midi": 84,
      "hit": false,
      "t": 77247.75549375129,
      "d": 90.44113125001604,
      "v": 95
    },
    {
      "midi": 89,
      "hit": false,
      "t": 77248.49078750129,
      "d": 103.676418750023,
      "v": 82
    },
    {
      "midi": 93,
      "hit": false,
      "t": 77249.9613750013,
      "d": 77.20584375000908,
      "v": 83
    },
    {
      "midi": 58,
      "hit": false,
      "t": 77260.2554875013,
      "d": 31.617631250002887,
      "v": 40
    },
    {
      "midi": 61,
      "hit": false,
      "t": 77469.8142062513,
      "d": 184.5587312500138,
      "v": 58
    },
    {
      "midi": 94,
      "hit": false,
      "t": 77470.5495000013,
      "d": 161.7646250000107,
      "v": 76
    },
    {
      "midi": 82,
      "hit": false,
      "t": 77476.4318500013,
      "d": 169.85285625001416,
      "v": 72
    },
    {
      "midi": 65,
      "hit": false,
      "t": 77478.6377312513,
      "d": 111.76464999999735,
      "v": 66
    },
    {
      "midi": 60,
      "hit": false,
      "t": 77482.3142000013,
      "d": 94.11759999999776,
      "v": 54
    },
    {
      "midi": 55,
      "hit": false,
      "t": 77490.4024312513,
      "d": 110.29406250000466,
      "v": 58
    },
    {
      "midi": 58,
      "hit": false,
      "t": 77508.7847750013,
      "d": 114.70582500001183,
      "v": 35
    },
    {
      "midi": 81,
      "hit": false,
      "t": 77708.78467500133,
      "d": 338.9704187500174,
      "v": 60
    },
    {
      "midi": 60,
      "hit": false,
      "t": 77709.51996875132,
      "d": 519.8526812500058,
      "v": 52
    },
    {
      "midi": 93,
      "hit": false,
      "t": 77710.99055625133,
      "d": 402.940975000005,
      "v": 64
    },
    {
      "midi": 64,
      "hit": false,
      "t": 77713.19643750133,
      "d": 378.6762812500092,
      "v": 56
    },
    {
      "midi": 88,
      "hit": false,
      "t": 77716.13761250133,
      "d": 370.58805000000575,
      "v": 51
    },
    {
      "midi": 54,
      "hit": false,
      "t": 77720.54937500134,
      "d": 389.705687499998,
      "v": 49
    },
    {
      "midi": 54,
      "hit": false,
      "t": 78629.37245000133,
      "d": 141.91169375000754,
      "v": 74
    },
    {
      "midi": 60,
      "hit": false,
      "t": 78630.84303750134,
      "d": 164.7057999999961,
      "v": 72
    },
    {
      "midi": 97,
      "hit": false,
      "t": 78632.31362500135,
      "d": 100.73524374999397,
      "v": 74
    },
    {
      "midi": 64,
      "hit": false,
      "t": 78633.04891875134,
      "d": 128.67640625000058,
      "v": 74
    },
    {
      "midi": 89,
      "hit": false,
      "t": 78633.78421250134,
      "d": 95.588187500005,
      "v": 74
    },
    {
      "midi": 101,
      "hit": false,
      "t": 78635.25480000135,
      "d": 122.05876249998983,
      "v": 68
    },
    {
      "midi": 98,
      "hit": false,
      "t": 78713.93123125135,
      "d": 36.76468749999185,
      "v": 57
    },
    {
      "midi": 98,
      "hit": false,
      "t": 78871.28409375134,
      "d": 108.08818125000107,
      "v": 68
    },
    {
      "midi": 54,
      "hit": false,
      "t": 78874.96056250134,
      "d": 154.41168750001816,
      "v": 59
    },
    {
      "midi": 64,
      "hit": false,
      "t": 78878.63703125133,
      "d": 113.23523750001914,
      "v": 63
    },
    {
      "midi": 60,
      "hit": false,
      "t": 78883.78408750134,
      "d": 92.64701250000508,
      "v": 44
    },
    {
      "midi": 86,
      "hit": false,
      "t": 78885.98996875134,
      "d": 103.67641875000845,
      "v": 44
    },
    {
      "midi": 93,
      "hit": false,
      "t": 78887.46055625135,
      "d": 88.2352499999979,
      "v": 63
    },
    {
      "midi": 62,
      "hit": false,
      "t": 79106.57809375135,
      "d": 281.61750625002605,
      "v": 47
    },
    {
      "midi": 84,
      "hit": false,
      "t": 79109.51926875135,
      "d": 221.3234187500202,
      "v": 49
    },
    {
      "midi": 92,
      "hit": false,
      "t": 79110.25456250134,
      "d": 165.44109375000698,
      "v": 48
    },
    {
      "midi": 96,
      "hit": false,
      "t": 79113.19573750134,
      "d": 206.61754375002056,
      "v": 36
    },
    {
      "midi": 58,
      "hit": false,
      "t": 79117.60750000135,
      "d": 299.99985000003653,
      "v": 33
    },
    {
      "midi": 57,
      "hit": false,
      "t": 79124.22514375135,
      "d": 277.9410375000298,
      "v": 44
    },
    {
      "midi": 53,
      "hit": false,
      "t": 79137.46043125135,
      "d": 278.6763312500261,
      "v": 28
    },
    {
      "midi": 93,
      "hit": false,
      "t": 79252.90155000135,
      "d": 50.73526875000971,
      "v": 43
    },
    {
      "midi": 58,
      "hit": false,
      "t": 79546.28375625139,
      "d": 167.64697500002512,
      "v": 51
    },
    {
      "midi": 53,
      "hit": false,
      "t": 79549.22493125139,
      "d": 183.82343750001746,
      "v": 35
    },
    {
      "midi": 62,
      "hit": false,
      "t": 79550.6955187514,
      "d": 132.3528750000114,
      "v": 45
    },
    {
      "midi": 93,
      "hit": false,
      "t": 79551.43081250139,
      "d": 125.7352312500152,
      "v": 71
    },
    {
      "midi": 81,
      "hit": false,
      "t": 79552.9014000014,
      "d": 136.76463750001858,
      "v": 66
    },
    {
      "midi": 57,
      "hit": false,
      "t": 79559.5190437514,
      "d": 163.9705062500143,
      "v": 42
    },
    {
      "midi": 86,
      "hit": false,
      "t": 79564.6661000014,
      "d": 123.52935000001162,
      "v": 54
    },
    {
      "midi": 89,
      "hit": false,
      "t": 79568.3425687514,
      "d": 77.94113750000542,
      "v": 42
    },
    {
      "midi": 89,
      "hit": false,
      "t": 79813.19538750142,
      "d": 401.4703875000123,
      "v": 51
    },
    {
      "midi": 58,
      "hit": false,
      "t": 79823.48950000142,
      "d": 363.97040625000955,
      "v": 47
    },
    {
      "midi": 62,
      "hit": false,
      "t": 79825.69538125143,
      "d": 344.1174750000064,
      "v": 43
    },
    {
      "midi": 53,
      "hit": false,
      "t": 79827.16596875143,
      "d": 228.6763562499982,
      "v": 36
    },
    {
      "midi": 84,
      "hit": false,
      "t": 79829.37185000144,
      "d": 393.3821562499943,
      "v": 48
    },
    {
      "midi": 57,
      "hit": false,
      "t": 79835.98949375143,
      "d": 288.23514999999315,
      "v": 44
    },
    {
      "midi": 77,
      "hit": false,
      "t": 79844.81301875143,
      "d": 382.35275000000547,
      "v": 22
    },
    {
      "midi": 53,
      "hit": false,
      "t": 80319.07748750143,
      "d": 62.49996874999488,
      "v": 19
    },
    {
      "midi": 88,
      "hit": false,
      "t": 80493.34210625142,
      "d": 97.05877500001225,
      "v": 47
    },
    {
      "midi": 76,
      "hit": false,
      "t": 80501.43033750143,
      "d": 136.76463750001858,
      "v": 40
    },
    {
      "midi": 82,
      "hit": false,
      "t": 80502.90092500144,
      "d": 102.20583125001576,
      "v": 42
    },
    {
      "midi": 85,
      "hit": false,
      "t": 80506.57739375143,
      "d": 97.05877500001225,
      "v": 36
    },
    {
      "midi": 58,
      "hit": false,
      "t": 80513.19503750143,
      "d": 343.3821812500246,
      "v": 25
    },
    {
      "midi": 62,
      "hit": false,
      "t": 80514.66562500143,
      "d": 149.26463125001465,
      "v": 33
    },
    {
      "midi": 52,
      "hit": false,
      "t": 80526.43032500143,
      "d": 336.76453750001383,
      "v": 30
    },
    {
      "midi": 73,
      "hit": false,
      "t": 80937.45953125144,
      "d": 683.0878937500238,
      "v": 69
    },
    {
      "midi": 58,
      "hit": false,
      "t": 80945.54776250145,
      "d": 659.5584937500098,
      "v": 76
    },
    {
      "midi": 68,
      "hit": false,
      "t": 80946.28305625144,
      "d": 674.264368750024,
      "v": 72
    },
    {
      "midi": 64,
      "hit": false,
      "t": 80948.48893750145,
      "d": 618.3820437500108,
      "v": 74
    },
    {
      "midi": 56,
      "hit": false,
      "t": 81619.07683750146,
      "d": 45.58821250000619,
      "v": 38
    },
    {
      "midi": 63,
      "hit": false,
      "t": 81883.04729375147,
      "d": 592.6467624999932,
      "v": 53
    },
    {
      "midi": 77,
      "hit": false,
      "t": 81885.25317500148,
      "d": 422.05861249999725,
      "v": 66
    },
    {
      "midi": 70,
      "hit": false,
      "t": 81885.25317500148,
      "d": 436.7644874999969,
      "v": 60
    },
    {
      "midi": 58,
      "hit": false,
      "t": 81888.92964375147,
      "d": 1172.058237499994,
      "v": 49
    },
    {
      "midi": 67,
      "hit": false,
      "t": 81889.66493750147,
      "d": 318.38219375000335,
      "v": 58
    },
    {
      "midi": 53,
      "hit": false,
      "t": 81936.72373750147,
      "d": 1124.999437499995,
      "v": 22
    },
    {
      "midi": 67,
      "hit": false,
      "t": 82352.16470625147,
      "d": 149.99992499999644,
      "v": 37
    },
    {
      "midi": 63,
      "hit": false,
      "t": 82608.04693125146,
      "d": 363.2351125000132,
      "v": 34
    },
    {
      "midi": 70,
      "hit": false,
      "t": 82848.48798750147,
      "d": 177.20579374999215,
      "v": 67
    },
    {
      "midi": 75,
      "hit": false,
      "t": 83064.66435000146,
      "d": 88.97054374999425,
      "v": 69
    },
    {
      "midi": 74,
      "hit": false,
      "t": 83303.63481875145,
      "d": 166.91168124999967,
      "v": 68
    },
    {
      "midi": 63,
      "hit": false,
      "t": 83305.10540625146,
      "d": 152.94109999999637,
      "v": 51
    },
    {
      "midi": 66,
      "hit": false,
      "t": 83310.25246250146,
      "d": 144.85286874999292,
      "v": 47
    },
    {
      "midi": 62,
      "hit": false,
      "t": 83319.07598750146,
      "d": 152.20580624998547,
      "v": 46
    },
    {
      "midi": 69,
      "hit": false,
      "t": 83328.63480625146,
      "d": 118.38229374999355,
      "v": 38
    },
    {
      "midi": 72,
      "hit": false,
      "t": 83729.36990000145,
      "d": 450.73506874998566,
      "v": 49
    },
    {
      "midi": 63,
      "hit": false,
      "t": 83730.10519375144,
      "d": 383.82333749999816,
      "v": 57
    },
    {
      "midi": 66,
      "hit": false,
      "t": 83742.60518750144,
      "d": 398.5292124999978,
      "v": 53
    },
    {
      "midi": 69,
      "hit": false,
      "t": 83747.01695000145,
      "d": 354.41158749999886,
      "v": 48
    },
    {
      "midi": 57,
      "hit": false,
      "t": 83760.25223750145,
      "d": 580.1467687499826,
      "v": 51
    },
    {
      "midi": 63,
      "hit": false,
      "t": 84260.25198750143,
      "d": 111.02935625001555,
      "v": 46
    },
    {
      "midi": 69,
      "hit": false,
      "t": 84261.72257500143,
      "d": 199.26460625001346,
      "v": 56
    },
    {
      "midi": 53,
      "hit": false,
      "t": 84297.01667500143,
      "d": 91.17642500001239,
      "v": 26
    },
    {
      "midi": 66,
      "hit": false,
      "t": 84475.69305625145,
      "d": 199.2646062499989,
      "v": 62
    },
    {
      "midi": 63,
      "hit": false,
      "t": 84480.84011250145,
      "d": 119.85288125000079,
      "v": 46
    },
    {
      "midi": 53,
      "hit": false,
      "t": 84501.42833750145,
      "d": 387.499806250009,
      "v": 15
    },
    {
      "midi": 65,
      "hit": false,
      "t": 84713.92823125144,
      "d": 186.76461250003194,
      "v": 46
    },
    {
      "midi": 62,
      "hit": false,
      "t": 84721.28116875145,
      "d": 110.29406250000466,
      "v": 45
    },
    {
      "midi": 57,
      "hit": false,
      "t": 84730.83998750144,
      "d": 219.11753750003118,
      "v": 36
    },
    {
      "midi": 46,
      "hit": false,
      "t": 84732.31057500145,
      "d": 161.02933125001437,
      "v": 32
    },
    {
      "midi": 67,
      "hit": false,
      "t": 85182.31035000148,
      "d": 119.11758750000445,
      "v": 95
    },
    {
      "midi": 65,
      "hit": false,
      "t": 85414.6631750015,
      "d": 36.7646875000064,
      "v": 45
    },
    {
      "midi": 62,
      "hit": false,
      "t": 85427.8984625015,
      "d": 35.29409999999916,
      "v": 41
    },
    {
      "midi": 69,
      "hit": false,
      "t": 85433.0455187515,
      "d": 61.02938125000219,
      "v": 69
    },
    {
      "midi": 60,
      "hit": false,
      "t": 85454.3690375015,
      "d": 34.55880625000282,
      "v": 24
    },
    {
      "midi": 72,
      "hit": false,
      "t": 85678.6336312515,
      "d": 67.6470249999984,
      "v": 66
    },
    {
      "midi": 70,
      "hit": false,
      "t": 85905.1041062515,
      "d": 81.6176062500017,
      "v": 62
    },
    {
      "midi": 62,
      "hit": false,
      "t": 86155.83927500152,
      "d": 251.47046250001586,
      "v": 37
    },
    {
      "midi": 58,
      "hit": false,
      "t": 86157.30986250153,
      "d": 274.2645687500044,
      "v": 38
    },
    {
      "midi": 57,
      "hit": false,
      "t": 86163.92750625152,
      "d": 269.8528062500118,
      "v": 26
    },
    {
      "midi": 53,
      "hit": false,
      "t": 86164.66280000152,
      "d": 241.17635000000882,
      "v": 32
    },
    {
      "midi": 68,
      "hit": false,
      "t": 86166.86868125152,
      "d": 85.29407500001253,
      "v": 59
    },
    {
      "midi": 69,
      "hit": false,
      "t": 86241.86864375153,
      "d": 133.8234625000041,
      "v": 51
    },
    {
      "midi": 53,
      "hit": false,
      "t": 86656.57431875153,
      "d": 116.17641249998996,
      "v": 20
    },
    {
      "midi": 60,
      "hit": false,
      "t": 86657.30961250153,
      "d": 70.58819999999832,
      "v": 32
    },
    {
      "midi": 67,
      "hit": false,
      "t": 86897.01537500152,
      "d": 336.7645374999993,
      "v": 50
    },
    {
      "midi": 58,
      "hit": false,
      "t": 86905.83890000152,
      "d": 154.4116875000036,
      "v": 29
    },
    {
      "midi": 52,
      "hit": false,
      "t": 86930.83888750152,
      "d": 184.55873124999925,
      "v": 31
    },
    {
      "midi": 52,
      "hit": false,
      "t": 87363.19161250153,
      "d": 94.85289374999411,
      "v": 35
    },
    {
      "midi": 57,
      "hit": false,
      "t": 87586.72091250152,
      "d": 38.97056875000999,
      "v": 40
    },
    {
      "midi": 65,
      "hit": false,
      "t": 87588.92679375153,
      "d": 100.73524375000852,
      "v": 36
    },
    {
      "midi": 53,
      "hit": false,
      "t": 87595.54443750152,
      "d": 47.79409375000978,
      "v": 40
    },
    {
      "midi": 60,
      "hit": false,
      "t": 87600.69149375152,
      "d": 63.97055625000212,
      "v": 39
    },
    {
      "midi": 62,
      "hit": false,
      "t": 87623.48560000153,
      "d": 37.49998125000275,
      "v": 28
    },
    {
      "midi": 76,
      "hit": false,
      "t": 88040.39715625154,
      "d": 161.02933125001437,
      "v": 55
    },
    {
      "midi": 72,
      "hit": false,
      "t": 88044.07362500153,
      "d": 133.82346250001865,
      "v": 51
    },
    {
      "midi": 69,
      "hit": false,
      "t": 88047.01480000153,
      "d": 105.14700625001569,
      "v": 62
    },
    {
      "midi": 65,
      "hit": false,
      "t": 88050.69126875153,
      "d": 81.61760625001625,
      "v": 60
    },
    {
      "midi": 62,
      "hit": false,
      "t": 88055.83832500153,
      "d": 197.05872500002442,
      "v": 53
    },
    {
      "midi": 64,
      "hit": false,
      "t": 88303.63231875155,
      "d": 399.2645062500087,
      "v": 55
    },
    {
      "midi": 69,
      "hit": false,
      "t": 88304.36761250155,
      "d": 273.52927500000806,
      "v": 64
    },
    {
      "midi": 72,
      "hit": false,
      "t": 88307.30878750155,
      "d": 231.61753124999814,
      "v": 54
    },
    {
      "midi": 77,
      "hit": false,
      "t": 88319.07348750155,
      "d": 230.14694375000545,
      "v": 39
    },
    {
      "midi": 79,
      "hit": false,
      "t": 88324.22054375155,
      "d": 90.44113125000149,
      "v": 32
    },
    {
      "midi": 74,
      "hit": false,
      "t": 88332.30877500155,
      "d": 197.79401874999166,
      "v": 30
    },
    {
      "midi": 74,
      "hit": false,
      "t": 88757.30856250157,
      "d": 83.82348750000529,
      "v": 63
    },
    {
      "midi": 65,
      "hit": false,
      "t": 88769.80855625158,
      "d": 55.88232499999867,
      "v": 46
    },
    {
      "midi": 69,
      "hit": false,
      "t": 88770.54385000157,
      "d": 49.26468125000247,
      "v": 54
    },
    {
      "midi": 62,
      "hit": false,
      "t": 88774.22031875157,
      "d": 36.7646875000064,
      "v": 36
    },
    {
      "midi": 72,
      "hit": false,
      "t": 89019.80843125157,
      "d": 87.49995625000156,
      "v": 51
    },
    {
      "midi": 65,
      "hit": false,
      "t": 89040.39665625157,
      "d": 61.02938125000219,
      "v": 38
    },
    {
      "midi": 69,
      "hit": false,
      "t": 89041.13195000157,
      "d": 47.79409375000978,
      "v": 36
    },
    {
      "midi": 60,
      "hit": false,
      "t": 89066.86723125157,
      "d": 46.32350625000254,
      "v": 24
    },
    {
      "midi": 62,
      "hit": false,
      "t": 89458.04350625156,
      "d": 100.73524374999397,
      "v": 61
    },
    {
      "midi": 69,
      "hit": false,
      "t": 89458.77880000156,
      "d": 170.5881500000105,
      "v": 37
    },
    {
      "midi": 57,
      "hit": false,
      "t": 89469.07291250156,
      "d": 251.4704625000013,
      "v": 29
    },
    {
      "midi": 65,
      "hit": false,
      "t": 89469.80820625156,
      "d": 111.029356250001,
      "v": 46
    },
    {
      "midi": 58,
      "hit": false,
      "t": 89719.80808125157,
      "d": 448.5291875000112,
      "v": 53
    },
    {
      "midi": 61,
      "hit": false,
      "t": 89727.16101875156,
      "d": 430.14684375001525,
      "v": 42
    },
    {
      "midi": 67,
      "hit": false,
      "t": 89733.04336875156,
      "d": 371.3233437500021,
      "v": 40
    },
    {
      "midi": 64,
      "hit": false,
      "t": 89741.13160000156,
      "d": 382.35275000000547,
      "v": 47
    },
    {
      "midi": 55,
      "hit": false,
      "t": 89744.80806875156,
      "d": 346.3233562499954,
      "v": 40
    },
    {
      "midi": 51,
      "hit": false,
      "t": 90184.51373125159,
      "d": 82.35289999999804,
      "v": 38
    },
    {
      "midi": 64,
      "hit": false,
      "t": 90410.24891250159,
      "d": 645.587912500021,
      "v": 66
    },
    {
      "midi": 57,
      "hit": false,
      "t": 90411.71950000159,
      "d": 602.9408750000148,
      "v": 66
    },
    {
      "midi": 53,
      "hit": false,
      "t": 90413.9253812516,
      "d": 579.4114750000153,
      "v": 64
    },
    {
      "midi": 52,
      "hit": false,
      "t": 90416.8665562516,
      "d": 711.7643500000122,
      "v": 70
    },
    {
      "midi": 60,
      "hit": false,
      "t": 90421.2783187516,
      "d": 607.3526375000074,
      "v": 55
    },
    {
      "midi": 62,
      "hit": false,
      "t": 91149.21913125161,
      "d": 214.70577500000945,
      "v": 48
    },
    {
      "midi": 57,
      "hit": false,
      "t": 91153.63089375162,
      "d": 178.6763812499994,
      "v": 44
    },
    {
      "midi": 53,
      "hit": false,
      "t": 91154.36618750161,
      "d": 126.47052500001155,
      "v": 45
    },
    {
      "midi": 50,
      "hit": false,
      "t": 91155.83677500162,
      "d": 194.85284374999173,
      "v": 50
    },
    {
      "midi": 60,
      "hit": false,
      "t": 91158.77795000162,
      "d": 191.17637499999546,
      "v": 31
    },
    {
      "midi": 81,
      "hit": false,
      "t": 91858.04230625162,
      "d": 454.4115375000256,
      "v": 71
    },
    {
      "midi": 77,
      "hit": false,
      "t": 91860.24818750162,
      "d": 465.4409437500144,
      "v": 64
    },
    {
      "midi": 74,
      "hit": false,
      "t": 91862.45406875163,
      "d": 476.4703500000178,
      "v": 71
    },
    {
      "midi": 69,
      "hit": false,
      "t": 91864.65995000163,
      "d": 460.2938875000109,
      "v": 73
    },
    {
      "midi": 57,
      "hit": false,
      "t": 91869.07171250164,
      "d": 374.99981249999837,
      "v": 53
    },
    {
      "midi": 58,
      "hit": false,
      "t": 91872.01288750164,
      "d": 400.7350937500014,
      "v": 53
    },
    {
      "midi": 62,
      "hit": false,
      "t": 91872.74818125163,
      "d": 353.6762937500025,
      "v": 57
    },
    {
      "midi": 73,
      "hit": false,
      "t": 92527.89491250164,
      "d": 113.97053125000093,
      "v": 37
    },
    {
      "midi": 76,
      "hit": false,
      "t": 92534.51255625163,
      "d": 121.32346875000803,
      "v": 45
    },
    {
      "midi": 79,
      "hit": false,
      "t": 92535.98314375164,
      "d": 159.55874375000712,
      "v": 40
    },
    {
      "midi": 62,
      "hit": false,
      "t": 92538.18902500164,
      "d": 466.9115312500071,
      "v": 42
    },
    {
      "midi": 67,
      "hit": false,
      "t": 92538.92431875164,
      "d": 84.55878125000163,
      "v": 49
    },
    {
      "midi": 58,
      "hit": false,
      "t": 92542.60078750164,
      "d": 410.2939125000121,
      "v": 33
    },
    {
      "midi": 52,
      "hit": false,
      "t": 92553.63019375164,
      "d": 334.55865625001024,
      "v": 31
    },
    {
      "midi": 53,
      "hit": false,
      "t": 93205.10045625165,
      "d": 102.94112500001211,
      "v": 45
    },
    {
      "midi": 64,
      "hit": false,
      "t": 93213.18868750165,
      "d": 96.3234812500159,
      "v": 44
    },
    {
      "midi": 67,
      "hit": false,
      "t": 93229.36515000166,
      "d": 368.3821687500167,
      "v": 39
    },
    {
      "midi": 57,
      "hit": false,
      "t": 93238.18867500166,
      "d": 40.44115625000268,
      "v": 43
    },
    {
      "midi": 84,
      "hit": false,
      "t": 93238.92396875165,
      "d": 320.5880750000215,
      "v": 80
    },
    {
      "midi": 62,
      "hit": false,
      "t": 93249.21808125166,
      "d": 354.4115875000134,
      "v": 49
    },
    {
      "midi": 60,
      "hit": false,
      "t": 93252.89455000166,
      "d": 67.64702500001295,
      "v": 18
    },
    {
      "midi": 67,
      "hit": false,
      "t": 93666.86493125168,
      "d": 64.70585000001302,
      "v": 57
    },
    {
      "midi": 81,
      "hit": false,
      "t": 93674.95316250168,
      "d": 37.49998125000275,
      "v": 63
    },
    {
      "midi": 57,
      "hit": false,
      "t": 93686.71786250168,
      "d": 55.882325000013225,
      "v": 29
    },
    {
      "midi": 62,
      "hit": false,
      "t": 93690.39433125168,
      "d": 33.82351250000647,
      "v": 42
    },
    {
      "midi": 60,
      "hit": false,
      "t": 94379.3645750017,
      "d": 61.76467500002764,
      "v": 76
    },
    {
      "midi": 57,
      "hit": false,
      "t": 94383.77633750171,
      "d": 81.61760625001625,
      "v": 66
    },
    {
      "midi": 50,
      "hit": false,
      "t": 94397.01162500172,
      "d": 30.147043750010198,
      "v": 50
    },
    {
      "midi": 53,
      "hit": false,
      "t": 94398.48221250172,
      "d": 109.55876875000831,
      "v": 53
    },
    {
      "midi": 77,
      "hit": false,
      "t": 94860.24668750173,
      "d": 115.44111875000817,
      "v": 82
    },
    {
      "midi": 65,
      "hit": false,
      "t": 94865.39374375173,
      "d": 142.6469875000039,
      "v": 84
    },
    {
      "midi": 60,
      "hit": false,
      "t": 95116.86420625173,
      "d": 84.55878125000163,
      "v": 65
    },
    {
      "midi": 57,
      "hit": false,
      "t": 95119.07008750174,
      "d": 110.29406250000466,
      "v": 63
    },
    {
      "midi": 50,
      "hit": false,
      "t": 95133.77596250174,
      "d": 97.05877500001225,
      "v": 49
    },
    {
      "midi": 53,
      "hit": false,
      "t": 95139.65831250174,
      "d": 125.7352312500152,
      "v": 42
    },
    {
      "midi": 74,
      "hit": false,
      "t": 95353.62879375175,
      "d": 205.14695624999877,
      "v": 87
    },
    {
      "midi": 68,
      "hit": false,
      "t": 95358.77585000175,
      "d": 105.14700625000114,
      "v": 86
    },
    {
      "midi": 69,
      "hit": false,
      "t": 95472.74638125175,
      "d": 97.79406874999404,
      "v": 46
    },
    {
      "midi": 62,
      "hit": false,
      "t": 95619.06983750175,
      "d": 88.97054374999425,
      "v": 75
    },
    {
      "midi": 65,
      "hit": false,
      "t": 95826.42267500174,
      "d": 481.6174062500213,
      "v": 105
    },
    {
      "midi": 53,
      "hit": false,
      "t": 95833.77561250175,
      "d": 912.4995437500038,
      "v": 49
    },
    {
      "midi": 58,
      "hit": false,
      "t": 95835.98149375175,
      "d": 1183.0876437499974,
      "v": 60
    },
    {
      "midi": 62,
      "hit": false,
      "t": 95838.18737500175,
      "d": 424.9997874999972,
      "v": 60
    },
    {
      "midi": 57,
      "hit": false,
      "t": 95841.86384375175,
      "d": 1145.5876624999946,
      "v": 57
    },
    {
      "midi": 67,
      "hit": false,
      "t": 96277.15774375176,
      "d": 122.79405625000072,
      "v": 60
    },
    {
      "midi": 65,
      "hit": false,
      "t": 96375.68710625176,
      "d": 143.38228125000023,
      "v": 57
    },
    {
      "midi": 62,
      "hit": false,
      "t": 96489.65763750176,
      "d": 76.47054999999818,
      "v": 60
    },
    {
      "midi": 62,
      "hit": false,
      "t": 96705.09870625175,
      "d": 214.7057749999949,
      "v": 41
    },
    {
      "midi": 65,
      "hit": false,
      "t": 96708.77517500175,
      "d": 174.99991250000312,
      "v": 84
    },
    {
      "midi": 68,
      "hit": false,
      "t": 97190.39258125176,
      "d": 177.94108750000305,
      "v": 88
    },
    {
      "midi": 74,
      "hit": false,
      "t": 97191.86316875176,
      "d": 251.4704625000013,
      "v": 82
    },
    {
      "midi": 62,
      "hit": false,
      "t": 97205.83375000177,
      "d": 169.85285624998505,
      "v": 53
    },
    {
      "midi": 53,
      "hit": false,
      "t": 97213.92198125177,
      "d": 106.61759374999383,
      "v": 38
    },
    {
      "midi": 58,
      "hit": false,
      "t": 97219.80433125177,
      "d": 581.6173562500044,
      "v": 46
    },
    {
      "midi": 69,
      "hit": false,
      "t": 97372.01013750175,
      "d": 66.91173125000205,
      "v": 48
    },
    {
      "midi": 62,
      "hit": false,
      "t": 97491.86301875177,
      "d": 170.58814999999595,
      "v": 36
    },
    {
      "midi": 52,
      "hit": false,
      "t": 97503.62771875177,
      "d": 864.7054500000231,
      "v": 36
    },
    {
      "midi": 68,
      "hit": false,
      "t": 97558.77475000177,
      "d": 140.4411062500003,
      "v": 62
    },
    {
      "midi": 74,
      "hit": false,
      "t": 97570.53945000177,
      "d": 238.2351750000089,
      "v": 59
    },
    {
      "midi": 69,
      "hit": false,
      "t": 97693.33350625177,
      "d": 117.64700000001176,
      "v": 32
    },
    {
      "midi": 65,
      "hit": false,
      "t": 97870.53930000178,
      "d": 141.1764000000112,
      "v": 37
    },
    {
      "midi": 67,
      "hit": false,
      "t": 97886.71576250179,
      "d": 27.941162500006612,
      "v": 22
    },
    {
      "midi": 62,
      "hit": false,
      "t": 98000.68629375179,
      "d": 108.08818125000107,
      "v": 62
    },
    {
      "midi": 58,
      "hit": false,
      "t": 98118.33329375178,
      "d": 362.4998187500023,
      "v": 46
    },
    {
      "midi": 65,
      "hit": false,
      "t": 98176.42150000179,
      "d": 224.2645937500056,
      "v": 68
    },
    {
      "midi": 64,
      "hit": false,
      "t": 98184.50973125179,
      "d": 27.941162500006612,
      "v": 66
    },
    {
      "midi": 67,
      "hit": false,
      "t": 98361.7155250018,
      "d": 208.08813124998414,
      "v": 81
    },
    {
      "midi": 65,
      "hit": false,
      "t": 98510.98015625178,
      "d": 155.14698124999995,
      "v": 68
    },
    {
      "midi": 62,
      "hit": false,
      "t": 98716.86240625178,
      "d": 90.44113125000149,
      "v": 41
    },
    {
      "midi": 65,
      "hit": false,
      "t": 98846.27410625177,
      "d": 248.52928750000137,
      "v": 68
    },
    {
      "midi": 57,
      "hit": false,
      "t": 98851.42116250178,
      "d": 91.91171874999418,
      "v": 44
    },
    {
      "midi": 60,
      "hit": false,
      "t": 98854.36233750178,
      "d": 68.38231874999474,
      "v": 24
    },
    {
      "midi": 62,
      "hit": false,
      "t": 99101.42103750177,
      "d": 33.088218749995576,
      "v": 55
    },
    {
      "midi": 60,
      "hit": false,
      "t": 100610.24381250177,
      "d": 880.1466187500191,
      "v": 64
    },
    {
      "midi": 54,
      "hit": false,
      "t": 100614.65557500177,
      "d": 970.5877500000206,
      "v": 65
    },
    {
      "midi": 64,
      "hit": false,
      "t": 100616.12616250178,
      "d": 602.2055812500039,
      "v": 65
    },
    {
      "midi": 89,
      "hit": false,
      "t": 100952.15540625178,
      "d": 147.0587499999965,
      "v": 99
    },
    {
      "midi": 87,
      "hit": false,
      "t": 101141.86119375179,
      "d": 132.35287499999686,
      "v": 69
    },
    {
      "midi": 84,
      "hit": false,
      "t": 101308.03758125179,
      "d": 134.55875625000044,
      "v": 74
    },
    {
      "midi": 64,
      "hit": false,
      "t": 101309.5081687518,
      "d": 205.8822499999951,
      "v": 47
    },
    {
      "midi": 85,
      "hit": false,
      "t": 101509.50806875179,
      "d": 120.58817499999714,
      "v": 86
    },
    {
      "midi": 86,
      "hit": false,
      "t": 101660.24328750178,
      "d": 166.17638750001788,
      "v": 78
    },
    {
      "midi": 57,
      "hit": false,
      "t": 101667.59622500179,
      "d": 980.1465687500167,
      "v": 41
    },
    {
      "midi": 58,
      "hit": false,
      "t": 101672.0079875018,
      "d": 463.97035625000717,
      "v": 40
    },
    {
      "midi": 62,
      "hit": false,
      "t": 101674.2138687518,
      "d": 458.82330000000366,
      "v": 44
    },
    {
      "midi": 53,
      "hit": false,
      "t": 101680.0962187518,
      "d": 1049.2641812500078,
      "v": 35
    },
    {
      "midi": 81,
      "hit": false,
      "t": 101894.0667000018,
      "d": 51.470562500006054,
      "v": 36
    },
    {
      "midi": 84,
      "hit": false,
      "t": 102032.30192500181,
      "d": 155.8822749999963,
      "v": 96
    },
    {
      "midi": 82,
      "hit": false,
      "t": 102233.0371187518,
      "d": 161.7646250000107,
      "v": 80
    },
    {
      "midi": 62,
      "hit": false,
      "t": 102381.5664562518,
      "d": 294.8527937500039,
      "v": 40
    },
    {
      "midi": 78,
      "hit": false,
      "t": 102384.5076312518,
      "d": 185.2940249999956,
      "v": 55
    },
    {
      "midi": 58,
      "hit": false,
      "t": 102416.12526250181,
      "d": 297.0586750000075,
      "v": 29
    },
    {
      "midi": 81,
      "hit": false,
      "t": 102603.62516875181,
      "d": 119.11758750000445,
      "v": 90
    },
    {
      "midi": 79,
      "hit": false,
      "t": 102763.18391250182,
      "d": 146.32345625000016,
      "v": 72
    },
    {
      "midi": 78,
      "hit": false,
      "t": 102962.44851875181,
      "d": 115.44111874999362,
      "v": 80
    },
    {
      "midi": 62,
      "hit": false,
      "t": 103069.06611250181,
      "d": 75.73525625000184,
      "v": 44
    },
    {
      "midi": 58,
      "hit": false,
      "t": 103077.88963750181,
      "d": 97.79406875000859,
      "v": 34
    },
    {
      "midi": 52,
      "hit": false,
      "t": 103085.24257500182,
      "d": 72.79408125000191,
      "v": 27
    },
    {
      "midi": 76,
      "hit": false,
      "t": 103124.21314375181,
      "d": 147.7940437500074,
      "v": 49
    },
    {
      "midi": 75,
      "hit": false,
      "t": 103312.44834375182,
      "d": 88.97054374999425,
      "v": 60
    },
    {
      "midi": 74,
      "hit": false,
      "t": 103478.62473125181,
      "d": 101.47053750000487,
      "v": 60
    },
    {
      "midi": 73,
      "hit": false,
      "t": 103672.74228125182,
      "d": 119.11758750000445,
      "v": 64
    },
    {
      "midi": 58,
      "hit": false,
      "t": 103816.12456250182,
      "d": 116.17641250000452,
      "v": 50
    },
    {
      "midi": 72,
      "hit": false,
      "t": 103823.47750000183,
      "d": 156.61756874999264,
      "v": 50
    },
    {
      "midi": 52,
      "hit": false,
      "t": 103843.33043125183,
      "d": 45.58821249999164,
      "v": 30
    },
    {
      "midi": 62,
      "hit": false,
      "t": 103844.06572500183,
      "d": 41.91174374999537,
      "v": 31
    },
    {
      "midi": 71,
      "hit": false,
      "t": 104043.33033125183,
      "d": 69.11761250000563,
      "v": 57
    },
    {
      "midi": 74,
      "hit": false,
      "t": 104167.59497500183,
      "d": 217.64694999999483,
      "v": 80
    },
    {
      "midi": 71,
      "hit": false,
      "t": 104405.83015000183,
      "d": 79.41172499999811,
      "v": 44
    },
    {
      "midi": 67,
      "hit": false,
      "t": 104527.88891250183,
      "d": 533.0879687499983,
      "v": 42
    },
    {
      "midi": 72,
      "hit": false,
      "t": 104530.09479375184,
      "d": 761.0290312499856,
      "v": 69
    },
    {
      "midi": 63,
      "hit": false,
      "t": 104536.71243750183,
      "d": 571.3232437499973,
      "v": 42
    },
    {
      "midi": 62,
      "hit": false,
      "t": 104540.38890625183,
      "d": 814.7054749999952,
      "v": 46
    },
    {
      "midi": 58,
      "hit": false,
      "t": 104552.15360625183,
      "d": 858.0878062499978,
      "v": 42
    },
    {
      "midi": 63,
      "hit": false,
      "t": 105197.00622500182,
      "d": 211.76459999999497,
      "v": 33
    },
    {
      "midi": 67,
      "hit": false,
      "t": 105199.94740000182,
      "d": 83.08819374999439,
      "v": 42
    },
    {
      "midi": 73,
      "hit": false,
      "t": 105914.65292500182,
      "d": 163.97050624999974,
      "v": 83
    },
    {
      "midi": 80,
      "hit": false,
      "t": 105916.85880625182,
      "d": 176.47050000001036,
      "v": 91
    },
    {
      "midi": 68,
      "hit": false,
      "t": 105917.59410000182,
      "d": 131.6175812500005,
      "v": 77
    },
    {
      "midi": 77,
      "hit": false,
      "t": 105918.32939375182,
      "d": 167.64697500001057,
      "v": 87
    },
    {
      "midi": 77,
      "hit": false,
      "t": 106335.24095000184,
      "d": 174.99991250003222,
      "v": 80
    },
    {
      "midi": 73,
      "hit": false,
      "t": 106336.71153750185,
      "d": 202.94107500003884,
      "v": 70
    },
    {
      "midi": 68,
      "hit": false,
      "t": 106341.12330000185,
      "d": 170.58815000002505,
      "v": 79
    },
    {
      "midi": 67,
      "hit": false,
      "t": 106345.53506250186,
      "d": 87.49995625000156,
      "v": 62
    },
    {
      "midi": 63,
      "hit": false,
      "t": 106354.35858750186,
      "d": 151.47051250000368,
      "v": 57
    },
    {
      "midi": 66,
      "hit": false,
      "t": 106628.6231562519,
      "d": 240.44105625001248,
      "v": 67
    },
    {
      "midi": 75,
      "hit": false,
      "t": 106630.0937437519,
      "d": 175.73520624999946,
      "v": 58
    },
    {
      "midi": 71,
      "hit": false,
      "t": 106630.8290375019,
      "d": 170.58814999999595,
      "v": 67
    },
    {
      "midi": 63,
      "hit": false,
      "t": 106635.2408000019,
      "d": 59.55879374999495,
      "v": 50
    },
    {
      "midi": 73,
      "hit": false,
      "t": 107049.9464750019,
      "d": 198.5293125000171,
      "v": 64
    },
    {
      "midi": 68,
      "hit": false,
      "t": 107060.2405875019,
      "d": 127.94111250000424,
      "v": 67
    },
    {
      "midi": 56,
      "hit": false,
      "t": 107068.3288187519,
      "d": 283.8233875000151,
      "v": 74
    },
    {
      "midi": 72,
      "hit": false,
      "t": 107333.76986250191,
      "d": 194.85284375002084,
      "v": 66
    },
    {
      "midi": 62,
      "hit": false,
      "t": 107338.18162500192,
      "d": 250.7351687500195,
      "v": 77
    },
    {
      "midi": 57,
      "hit": false,
      "t": 107342.59338750193,
      "d": 329.41160000000673,
      "v": 67
    },
    {
      "midi": 65,
      "hit": false,
      "t": 107345.53456250193,
      "d": 202.2057812500134,
      "v": 68
    },
    {
      "midi": 69,
      "hit": false,
      "t": 107349.21103125192,
      "d": 150.73521875000733,
      "v": 60
    },
    {
      "midi": 71,
      "hit": false,
      "t": 107355.09338125192,
      "d": 202.2057812500134,
      "v": 57
    },
    {
      "midi": 68,
      "hit": false,
      "t": 107362.44631875193,
      "d": 161.0293312499998,
      "v": 19
    },
    {
      "midi": 69,
      "hit": false,
      "t": 107773.47552500194,
      "d": 116.91170625001541,
      "v": 71
    },
    {
      "midi": 62,
      "hit": false,
      "t": 107780.82846250194,
      "d": 143.38228125001478,
      "v": 76
    },
    {
      "midi": 65,
      "hit": false,
      "t": 107781.56375625194,
      "d": 94.11760000001232,
      "v": 62
    },
    {
      "midi": 53,
      "hit": false,
      "t": 107783.03434375195,
      "d": 222.7940062500129,
      "v": 66
    },
    {
      "midi": 60,
      "hit": false,
      "t": 107785.97551875195,
      "d": 149.999925000011,
      "v": 69
    },
    {
      "midi": 67,
      "hit": false,
      "t": 107805.09315625195,
      "d": 99.26465625000128,
      "v": 37
    },
    {
      "midi": 65,
      "hit": false,
      "t": 108030.82833750197,
      "d": 188.23519999999553,
      "v": 52
    },
    {
      "midi": 60,
      "hit": false,
      "t": 108032.29892500197,
      "d": 213.23518749998766,
      "v": 57
    },
    {
      "midi": 57,
      "hit": false,
      "t": 108044.79891875197,
      "d": 177.9410874999885,
      "v": 61
    },
    {
      "midi": 62,
      "hit": false,
      "t": 108047.00480000197,
      "d": 194.85284374999173,
      "v": 62
    },
    {
      "midi": 50,
      "hit": false,
      "t": 108047.74009375197,
      "d": 108.82347499999742,
      "v": 54
    },
    {
      "midi": 43,
      "hit": false,
      "t": 108257.29881250196,
      "d": 76.47054999999818,
      "v": 66
    },
    {
      "midi": 62,
      "hit": false,
      "t": 108474.21046875196,
      "d": 336.0292437500175,
      "v": 80
    },
    {
      "midi": 58,
      "hit": false,
      "t": 108475.68105625197,
      "d": 316.1763125000143,
      "v": 86
    },
    {
      "midi": 69,
      "hit": false,
      "t": 108477.15164375197,
      "d": 358.82335000000603,
      "v": 75
    },
    {
      "midi": 57,
      "hit": false,
      "t": 108478.62223125198,
      "d": 408.82332500000484,
      "v": 71
    },
    {
      "midi": 65,
      "hit": false,
      "t": 108483.03399375199,
      "d": 335.29394999999204,
      "v": 62
    },
    {
      "midi": 67,
      "hit": false,
      "t": 108909.504368752,
      "d": 400.73509374998685,
      "v": 62
    },
    {
      "midi": 58,
      "hit": false,
      "t": 108919.06318750199,
      "d": 352.2057062499953,
      "v": 64
    },
    {
      "midi": 62,
      "hit": false,
      "t": 108925.68083125199,
      "d": 300.7351437500038,
      "v": 71
    },
    {
      "midi": 55,
      "hit": false,
      "t": 108933.033768752,
      "d": 472.0585874999815,
      "v": 58
    },
    {
      "midi": 61,
      "hit": false,
      "t": 109409.50411875198,
      "d": 191.9116687499918,
      "v": 53
    },
    {
      "midi": 58,
      "hit": false,
      "t": 109411.71000000199,
      "d": 154.41168749998906,
      "v": 51
    },
    {
      "midi": 64,
      "hit": false,
      "t": 109420.53352500199,
      "d": 181.61755624998477,
      "v": 53
    },
    {
      "midi": 57,
      "hit": false,
      "t": 109421.26881875198,
      "d": 230.1469437499909,
      "v": 50
    },
    {
      "midi": 48,
      "hit": false,
      "t": 109445.53351250198,
      "d": 802.2054812500282,
      "v": 35
    },
    {
      "midi": 73,
      "hit": false,
      "t": 109891.12152500197,
      "d": 186.02931875002105,
      "v": 60
    },
    {
      "midi": 63,
      "hit": false,
      "t": 109898.47446250198,
      "d": 213.9704812500131,
      "v": 73
    },
    {
      "midi": 58,
      "hit": false,
      "t": 109899.94505000199,
      "d": 186.0293187500065,
      "v": 57
    },
    {
      "midi": 68,
      "hit": false,
      "t": 109905.82740000199,
      "d": 163.97050624999974,
      "v": 60
    },
    {
      "midi": 72,
      "hit": false,
      "t": 110166.856681252,
      "d": 248.52928750001593,
      "v": 47
    },
    {
      "midi": 57,
      "hit": false,
      "t": 110167.591975002,
      "d": 372.7939312500239,
      "v": 51
    },
    {
      "midi": 67,
      "hit": false,
      "t": 110169.062562502,
      "d": 226.47047500000917,
      "v": 51
    },
    {
      "midi": 62,
      "hit": false,
      "t": 110172.739031252,
      "d": 158.82345000001078,
      "v": 55
    },
    {
      "midi": 48,
      "hit": false,
      "t": 110603.62116875203,
      "d": 36.7646875000064,
      "v": 51
    },
    {
      "midi": 77,
      "hit": false,
      "t": 110852.88575000204,
      "d": 200.73519375003525,
      "v": 64
    },
    {
      "midi": 65,
      "hit": false,
      "t": 110855.09163125204,
      "d": 88.23525000001246,
      "v": 60
    },
    {
      "midi": 60,
      "hit": false,
      "t": 110857.29751250205,
      "d": 163.9705062500143,
      "v": 50
    },
    {
      "midi": 72,
      "hit": false,
      "t": 110860.97398125204,
      "d": 161.76462500002526,
      "v": 44
    },
    {
      "midi": 57,
      "hit": false,
      "t": 110861.70927500204,
      "d": 147.79404375002196,
      "v": 45
    },
    {
      "midi": 75,
      "hit": false,
      "t": 110872.00338750205,
      "d": 31.617631250002887,
      "v": 21
    },
    {
      "midi": 50,
      "hit": false,
      "t": 110874.94456250205,
      "d": 123.52935000001162,
      "v": 34
    },
    {
      "midi": 53,
      "hit": false,
      "t": 110875.67985625204,
      "d": 116.17641250001907,
      "v": 33
    },
    {
      "midi": 62,
      "hit": false,
      "t": 111572.73833125207,
      "d": 371.32334375001665,
      "v": 89
    },
    {
      "midi": 58,
      "hit": false,
      "t": 111573.47362500207,
      "d": 419.1174375000264,
      "v": 79
    },
    {
      "midi": 57,
      "hit": false,
      "t": 111574.20891875206,
      "d": 375.7351062500238,
      "v": 76
    },
    {
      "midi": 53,
      "hit": false,
      "t": 111574.94421250206,
      "d": 197.05872500000987,
      "v": 80
    },
    {
      "midi": 81,
      "hit": false,
      "t": 111581.56185625205,
      "d": 180.88226250000298,
      "v": 92
    },
    {
      "midi": 93,
      "hit": false,
      "t": 111583.03244375206,
      "d": 178.6763812499994,
      "v": 94
    },
    {
      "midi": 89,
      "hit": false,
      "t": 111583.76773750206,
      "d": 181.61755625001388,
      "v": 80
    },
    {
      "midi": 86,
      "hit": false,
      "t": 111585.23832500206,
      "d": 178.6763812499994,
      "v": 85
    },
    {
      "midi": 53,
      "hit": false,
      "t": 111808.03233125206,
      "d": 144.85286875002203,
      "v": 29
    },
    {
      "midi": 93,
      "hit": false,
      "t": 111819.06173750207,
      "d": 113.23523750001914,
      "v": 71
    },
    {
      "midi": 86,
      "hit": false,
      "t": 111830.82643750207,
      "d": 94.85289375000866,
      "v": 54
    },
    {
      "midi": 81,
      "hit": false,
      "t": 111832.29702500207,
      "d": 94.85289375000866,
      "v": 35
    },
    {
      "midi": 89,
      "hit": false,
      "t": 111834.50290625208,
      "d": 85.29407499999797,
      "v": 40
    },
    {
      "midi": 58,
      "hit": false,
      "t": 112072.73808125209,
      "d": 194.8528437500354,
      "v": 83
    },
    {
      "midi": 62,
      "hit": false,
      "t": 112074.2086687521,
      "d": 170.58815000002505,
      "v": 88
    },
    {
      "midi": 91,
      "hit": false,
      "t": 112075.6792562521,
      "d": 137.49993125001492,
      "v": 82
    },
    {
      "midi": 52,
      "hit": false,
      "t": 112076.4145500021,
      "d": 169.1175625000178,
      "v": 84
    },
    {
      "midi": 79,
      "hit": false,
      "t": 112082.2969000021,
      "d": 117.64700000001176,
      "v": 74
    },
    {
      "midi": 88,
      "hit": false,
      "t": 112083.7674875021,
      "d": 126.47052500001155,
      "v": 74
    },
    {
      "midi": 84,
      "hit": false,
      "t": 112085.23807500211,
      "d": 113.97053125000093,
      "v": 72
    },
    {
      "midi": 58,
      "hit": false,
      "t": 112741.85539375212,
      "d": 41.17644999999902,
      "v": 60
    },
    {
      "midi": 52,
      "hit": false,
      "t": 112744.79656875212,
      "d": 37.49998125000275,
      "v": 35
    },
    {
      "midi": 64,
      "hit": false,
      "t": 112974.94351250213,
      "d": 177.2057937500067,
      "v": 89
    },
    {
      "midi": 79,
      "hit": false,
      "t": 112976.41410000213,
      "d": 177.94108750000305,
      "v": 84
    },
    {
      "midi": 76,
      "hit": false,
      "t": 112978.61998125214,
      "d": 177.2057937500067,
      "v": 79
    },
    {
      "midi": 72,
      "hit": false,
      "t": 112980.82586250214,
      "d": 164.7057999999961,
      "v": 82
    },
    {
      "midi": 69,
      "hit": false,
      "t": 112981.56115625214,
      "d": 147.0587499999965,
      "v": 88
    },
    {
      "midi": 71,
      "hit": false,
      "t": 113008.76702500213,
      "d": 27.205868749995716,
      "v": 33
    },
    {
      "midi": 79,
      "hit": false,
      "t": 113200.67869375214,
      "d": 134.558756250015,
      "v": 57
    },
    {
      "midi": 69,
      "hit": false,
      "t": 113207.29633750214,
      "d": 116.91170625001541,
      "v": 62
    },
    {
      "midi": 72,
      "hit": false,
      "t": 113208.76692500214,
      "d": 132.35287500002596,
      "v": 59
    },
    {
      "midi": 76,
      "hit": false,
      "t": 113211.70810000214,
      "d": 109.55876875000831,
      "v": 58
    },
    {
      "midi": 64,
      "hit": false,
      "t": 113213.17868750215,
      "d": 126.47052500001155,
      "v": 67
    },
    {
      "midi": 77,
      "hit": false,
      "t": 113463.17856250217,
      "d": 156.61756874999264,
      "v": 75
    },
    {
      "midi": 72,
      "hit": false,
      "t": 113466.85503125217,
      "d": 183.088143749992,
      "v": 68
    },
    {
      "midi": 69,
      "hit": false,
      "t": 113467.59032500217,
      "d": 184.55873124999925,
      "v": 74
    },
    {
      "midi": 62,
      "hit": false,
      "t": 113470.53150000217,
      "d": 180.88226250000298,
      "v": 76
    },
    {
      "midi": 74,
      "hit": false,
      "t": 113486.70796250217,
      "d": 153.6763937499927,
      "v": 49
    },
    {
      "midi": 77,
      "hit": false,
      "t": 113695.53138750217,
      "d": 105.88230000001204,
      "v": 32
    },
    {
      "midi": 72,
      "hit": false,
      "t": 113707.29608750217,
      "d": 94.85289375000866,
      "v": 58
    },
    {
      "midi": 69,
      "hit": false,
      "t": 113708.03138125216,
      "d": 108.82347500001197,
      "v": 50
    },
    {
      "midi": 62,
      "hit": false,
      "t": 113713.17843750217,
      "d": 147.05875000001106,
      "v": 57
    },
    {
      "midi": 74,
      "hit": false,
      "t": 113720.53137500217,
      "d": 42.64703750000626,
      "v": 31
    },
    {
      "midi": 74,
      "hit": false,
      "t": 113933.76656250218,
      "d": 144.11757499999658,
      "v": 71
    },
    {
      "midi": 65,
      "hit": false,
      "t": 113939.64891250218,
      "d": 122.79405625000072,
      "v": 66
    },
    {
      "midi": 67,
      "hit": false,
      "t": 113948.47243750218,
      "d": 108.08818125000107,
      "v": 55
    },
    {
      "midi": 70,
      "hit": false,
      "t": 113952.88420000218,
      "d": 130.14699374999327,
      "v": 48
    },
    {
      "midi": 60,
      "hit": false,
      "t": 113953.61949375218,
      "d": 162.4999187499925,
      "v": 58
    },
    {
      "midi": 53,
      "hit": false,
      "t": 114195.53113750217,
      "d": 57.352912500005914,
      "v": 33
    },
    {
      "midi": 55,
      "hit": false,
      "t": 114198.47231250217,
      "d": 130.88228750000417,
      "v": 35
    },
    {
      "midi": 70,
      "hit": false,
      "t": 114397.73691875217,
      "d": 286.02926874998957,
      "v": 71
    },
    {
      "midi": 65,
      "hit": false,
      "t": 114404.35456250217,
      "d": 294.117499999993,
      "v": 70
    },
    {
      "midi": 58,
      "hit": false,
      "t": 114405.08985625216,
      "d": 225.73518124999828,
      "v": 56
    },
    {
      "midi": 62,
      "hit": false,
      "t": 114410.97220625216,
      "d": 395.5880374999979,
      "v": 70
    },
    {
      "midi": 55,
      "hit": false,
      "t": 114857.29551250215,
      "d": 241.17634999999427,
      "v": 57
    },
    {
      "midi": 58,
      "hit": false,
      "t": 115110.97185625214,
      "d": 28.67645625001751,
      "v": 56
    },
    {
      "midi": 61,
      "hit": false,
      "t": 115118.32479375215,
      "d": 186.02931874999194,
      "v": 49
    },
    {
      "midi": 57,
      "hit": false,
      "t": 115119.79538125216,
      "d": 121.32346874999348,
      "v": 54
    },
    {
      "midi": 64,
      "hit": false,
      "t": 115127.88361250216,
      "d": 143.38228124998568,
      "v": 49
    },
    {
      "midi": 69,
      "hit": false,
      "t": 115142.58948750216,
      "d": 97.79406874999404,
      "v": 30
    },
    {
      "midi": 60,
      "hit": false,
      "t": 115354.35408750214,
      "d": 64.70585000001302,
      "v": 71
    },
    {
      "midi": 61,
      "hit": false,
      "t": 115385.23642500215,
      "d": 66.91173125000205,
      "v": 52
    },
    {
      "midi": 62,
      "hit": false,
      "t": 115443.32463125215,
      "d": 105.14700625000114,
      "v": 68
    },
    {
      "midi": 65,
      "hit": false,
      "t": 115603.61866875215,
      "d": 110.29406250000466,
      "v": 75
    },
    {
      "midi": 67,
      "hit": false,
      "t": 115776.41270000215,
      "d": 98.52936250000494,
      "v": 71
    },
    {
      "midi": 41,
      "hit": false,
      "t": 115777.14799375215,
      "d": 573.5291250000009,
      "v": 38
    },
    {
      "midi": 48,
      "hit": false,
      "t": 115787.44210625216,
      "d": 896.3230812499969,
      "v": 57
    },
    {
      "midi": 57,
      "hit": false,
      "t": 115810.97150625216,
      "d": 347.0586500000063,
      "v": 33
    },
    {
      "midi": 74,
      "hit": false,
      "t": 115977.88318750216,
      "d": 133.8234625000041,
      "v": 87
    },
    {
      "midi": 72,
      "hit": false,
      "t": 116191.11837500216,
      "d": 112.49994374999369,
      "v": 78
    },
    {
      "midi": 68,
      "hit": false,
      "t": 116398.47121250215,
      "d": 89.70583750000515,
      "v": 73
    },
    {
      "midi": 74,
      "hit": false,
      "t": 116416.85355625214,
      "d": 146.32345625000016,
      "v": 65
    },
    {
      "midi": 57,
      "hit": false,
      "t": 116448.47118750215,
      "d": 175.73520624999946,
      "v": 32
    },
    {
      "midi": 69,
      "hit": false,
      "t": 116491.85351875215,
      "d": 106.61759374999383,
      "v": 54
    },
    {
      "midi": 72,
      "hit": false,
      "t": 116516.11821250214,
      "d": 63.97055625000212,
      "v": 34
    },
    {
      "midi": 62,
      "hit": false,
      "t": 116655.82402500215,
      "d": 59.5587937500095,
      "v": 40
    },
    {
      "midi": 65,
      "hit": false,
      "t": 116802.88277500216,
      "d": 150.73521874999278,
      "v": 76
    },
    {
      "midi": 67,
      "hit": false,
      "t": 116969.05916250215,
      "d": 89.70583750000515,
      "v": 51
    },
    {
      "midi": 65,
      "hit": false,
      "t": 117019.05913750215,
      "d": 129.41169999999693,
      "v": 42
    },
    {
      "midi": 62,
      "hit": false,
      "t": 117124.20614375215,
      "d": 65.44114374999481,
      "v": 49
    },
    {
      "midi": 60,
      "hit": false,
      "t": 117184.50023125214,
      "d": 216.9116562500276,
      "v": 36
    },
    {
      "midi": 57,
      "hit": false,
      "t": 117205.82375000215,
      "d": 250.7351687500195,
      "v": 30
    },
    {
      "midi": 50,
      "hit": false,
      "t": 117210.23551250216,
      "d": 212.49989375000587,
      "v": 26
    },
    {
      "midi": 53,
      "hit": false,
      "t": 117217.58845000216,
      "d": 236.76458750000165,
      "v": 30
    },
    {
      "midi": 65,
      "hit": false,
      "t": 117224.20609375216,
      "d": 258.8234000000084,
      "v": 47
    },
    {
      "midi": 62,
      "hit": false,
      "t": 117485.97066875217,
      "d": 39.70586250000633,
      "v": 55
    },
    {
      "midi": 91,
      "hit": false,
      "t": 118588.91129375217,
      "d": 82.35290000002715,
      "v": 70
    },
    {
      "midi": 86,
      "hit": false,
      "t": 118591.11717500217,
      "d": 61.02938125001674,
      "v": 64
    },
    {
      "midi": 79,
      "hit": false,
      "t": 118593.32305625218,
      "d": 43.38233125000261,
      "v": 54
    },
    {
      "midi": 62,
      "hit": false,
      "t": 118596.99952500217,
      "d": 41.91174375000992,
      "v": 51
    },
    {
      "midi": 58,
      "hit": false,
      "t": 118605.82305000217,
      "d": 69.11761250002019,
      "v": 43
    },
    {
      "midi": 57,
      "hit": false,
      "t": 118620.52892500217,
      "d": 36.764687500020955,
      "v": 34
    },
    {
      "midi": 93,
      "hit": false,
      "t": 119346.9991500022,
      "d": 60.294087500005844,
      "v": 80
    },
    {
      "midi": 81,
      "hit": false,
      "t": 119350.6756187522,
      "d": 48.52938750000612,
      "v": 71
    },
    {
      "midi": 94,
      "hit": false,
      "t": 119582.29315000221,
      "d": 58.8234999999986,
      "v": 71
    },
    {
      "midi": 82,
      "hit": false,
      "t": 119583.0284437522,
      "d": 49.26468125000247,
      "v": 62
    },
    {
      "midi": 93,
      "hit": false,
      "t": 119810.96950625221,
      "d": 61.02938125000219,
      "v": 75
    },
    {
      "midi": 81,
      "hit": false,
      "t": 119813.91068125221,
      "d": 57.352912500005914,
      "v": 71
    },
    {
      "midi": 91,
      "hit": false,
      "t": 120030.08704375221,
      "d": 129.41170000001148,
      "v": 62
    },
    {
      "midi": 79,
      "hit": false,
      "t": 120031.55763125222,
      "d": 134.55875625000044,
      "v": 55
    },
    {
      "midi": 85,
      "hit": false,
      "t": 120045.52821250222,
      "d": 127.94111250000424,
      "v": 46
    },
    {
      "midi": 88,
      "hit": false,
      "t": 120048.46938750222,
      "d": 129.41170000001148,
      "v": 34
    },
    {
      "midi": 58,
      "hit": false,
      "t": 120051.41056250222,
      "d": 166.17638750001788,
      "v": 34
    },
    {
      "midi": 52,
      "hit": false,
      "t": 120073.46937500223,
      "d": 147.05875000001106,
      "v": 33
    },
    {
      "midi": 62,
      "hit": false,
      "t": 120085.23407500223,
      "d": 99.99995000001218,
      "v": 20
    },
    {
      "midi": 58,
      "hit": false,
      "t": 120504.35151250224,
      "d": 47.05879999999888,
      "v": 35
    },
    {
      "midi": 63,
      "hit": false,
      "t": 120733.02786875224,
      "d": 197.79401875003532,
      "v": 75
    },
    {
      "midi": 75,
      "hit": false,
      "t": 120733.76316250223,
      "d": 169.8528562500287,
      "v": 81
    },
    {
      "midi": 68,
      "hit": false,
      "t": 120741.85139375224,
      "d": 148.5293375000183,
      "v": 70
    },
    {
      "midi": 64,
      "hit": false,
      "t": 120743.32198125224,
      "d": 161.76462500002526,
      "v": 84
    },
    {
      "midi": 70,
      "hit": false,
      "t": 120746.26315625224,
      "d": 128.67640625001513,
      "v": 65
    },
    {
      "midi": 65,
      "hit": false,
      "t": 120771.99843750225,
      "d": 36.7646875000064,
      "v": 35
    },
    {
      "midi": 61,
      "hit": false,
      "t": 120949.93952500228,
      "d": 155.8822749999963,
      "v": 54
    },
    {
      "midi": 73,
      "hit": false,
      "t": 120963.17481250229,
      "d": 170.5881499999814,
      "v": 45
    },
    {
      "midi": 64,
      "hit": false,
      "t": 120975.67480625228,
      "d": 104.41171249999024,
      "v": 58
    },
    {
      "midi": 68,
      "hit": false,
      "t": 120979.35127500228,
      "d": 113.23523749999003,
      "v": 59
    },
    {
      "midi": 70,
      "hit": false,
      "t": 120980.08656875227,
      "d": 249.26458124999772,
      "v": 56
    },
    {
      "midi": 58,
      "hit": false,
      "t": 121133.02766875227,
      "d": 281.61750624999695,
      "v": 54
    },
    {
      "midi": 56,
      "hit": false,
      "t": 121305.08640625227,
      "d": 156.61756874999264,
      "v": 45
    },
    {
      "midi": 57,
      "hit": false,
      "t": 121477.14514375226,
      "d": 286.76456250000047,
      "v": 70
    },
    {
      "midi": 72,
      "hit": false,
      "t": 121478.61573125227,
      "d": 91.91171874999418,
      "v": 62
    },
    {
      "midi": 67,
      "hit": false,
      "t": 121479.35102500227,
      "d": 97.79406874999404,
      "v": 70
    },
    {
      "midi": 62,
      "hit": false,
      "t": 121481.55690625227,
      "d": 130.88228749998962,
      "v": 70
    },
    {
      "midi": 69,
      "hit": false,
      "t": 121730.08619375226,
      "d": 220.5881250000093,
      "v": 65
    },
    {
      "midi": 60,
      "hit": false,
      "t": 121735.23325000226,
      "d": 253.6763437500049,
      "v": 62
    },
    {
      "midi": 64,
      "hit": false,
      "t": 121735.96854375226,
      "d": 208.8234250000096,
      "v": 66
    },
    {
      "midi": 53,
      "hit": false,
      "t": 121765.38029375227,
      "d": 366.9115812499949,
      "v": 50
    },
    {
      "midi": 65,
      "hit": false,
      "t": 122433.76231250227,
      "d": 346.3233562500245,
      "v": 82
    },
    {
      "midi": 69,
      "hit": false,
      "t": 122434.49760625226,
      "d": 181.61755625001388,
      "v": 73
    },
    {
      "midi": 60,
      "hit": false,
      "t": 122438.90936875227,
      "d": 336.76453750001383,
      "v": 68
    },
    {
      "midi": 61,
      "hit": false,
      "t": 122441.85054375227,
      "d": 62.49996875000943,
      "v": 74
    },
    {
      "midi": 62,
      "hit": false,
      "t": 122466.85053125228,
      "d": 31.617631250002887,
      "v": 44
    },
    {
      "midi": 70,
      "hit": false,
      "t": 122660.96808125227,
      "d": 148.5293375000183,
      "v": 69
    },
    {
      "midi": 61,
      "hit": false,
      "t": 122669.79160625227,
      "d": 146.32345625001471,
      "v": 65
    },
    {
      "midi": 51,
      "hit": false,
      "t": 122677.14454375228,
      "d": 172.7940312500141,
      "v": 59
    },
    {
      "midi": 50,
      "hit": false,
      "t": 122919.05618750228,
      "d": 957.3524625000282,
      "v": 60
    },
    {
      "midi": 63,
      "hit": false,
      "t": 122919.79148125228,
      "d": 544.8526687500271,
      "v": 74
    },
    {
      "midi": 68,
      "hit": false,
      "t": 122925.67383125228,
      "d": 237.499881249998,
      "v": 60
    },
    {
      "midi": 60,
      "hit": false,
      "t": 122926.40912500228,
      "d": 224.99988750000193,
      "v": 66
    },
    {
      "midi": 56,
      "hit": false,
      "t": 122968.32086875227,
      "d": 213.2351875000022,
      "v": 45
    },
    {
      "midi": 60,
      "hit": false,
      "t": 123192.58546250228,
      "d": 230.88223750001634,
      "v": 45
    },
    {
      "midi": 69,
      "hit": false,
      "t": 123194.05605000228,
      "d": 249.26458125001227,
      "v": 64
    },
    {
      "midi": 57,
      "hit": false,
      "t": 123198.46781250229,
      "d": 261.029281250012,
      "v": 54
    },
    {
      "midi": 68,
      "hit": false,
      "t": 123630.8205375023,
      "d": 38.97056875002454,
      "v": 45
    },
    {
      "midi": 60,
      "hit": false,
      "t": 123641.1146500023,
      "d": 341.17630000000645,
      "v": 57
    },
    {
      "midi": 66,
      "hit": false,
      "t": 123644.0558250023,
      "d": 360.29393750001327,
      "v": 56
    },
    {
      "midi": 63,
      "hit": false,
      "t": 123645.52641250231,
      "d": 295.58808750000026,
      "v": 50
    },
    {
      "midi": 72,
      "hit": false,
      "t": 123646.99700000232,
      "d": 367.6468750000058,
      "v": 38
    },
    {
      "midi": 69,
      "hit": false,
      "t": 123669.05581250232,
      "d": 228.67635624998366,
      "v": 41
    },
    {
      "midi": 62,
      "hit": false,
      "t": 124283.76138750232,
      "d": 341.9115937500028,
      "v": 45
    },
    {
      "midi": 58,
      "hit": false,
      "t": 124287.43785625232,
      "d": 349.99982500000624,
      "v": 45
    },
    {
      "midi": 57,
      "hit": false,
      "t": 124301.40843750232,
      "d": 912.4995437500183,
      "v": 34
    },
    {
      "midi": 53,
      "hit": false,
      "t": 124317.58490000233,
      "d": 890.4407312500116,
      "v": 22
    },
    {
      "midi": 70,
      "hit": false,
      "t": 124347.73194375233,
      "d": 102.20583125000121,
      "v": 51
    },
    {
      "midi": 72,
      "hit": false,
      "t": 124494.05540000233,
      "d": 78.67643125000177,
      "v": 47
    },
    {
      "midi": 70,
      "hit": false,
      "t": 124529.34950000232,
      "d": 119.85288125000079,
      "v": 34
    },
    {
      "midi": 69,
      "hit": false,
      "t": 124667.58472500232,
      "d": 57.352912500005914,
      "v": 35
    },
    {
      "midi": 70,
      "hit": false,
      "t": 124838.17287500233,
      "d": 75.73525625000184,
      "v": 63
    },
    {
      "midi": 62,
      "hit": false,
      "t": 124974.93751250234,
      "d": 262.4998687500047,
      "v": 37
    },
    {
      "midi": 58,
      "hit": false,
      "t": 124988.17280000234,
      "d": 252.20575624999765,
      "v": 36
    },
    {
      "midi": 74,
      "hit": false,
      "t": 124999.93750000234,
      "d": 105.88229999999749,
      "v": 53
    },
    {
      "midi": 77,
      "hit": false,
      "t": 125194.05505000234,
      "d": 76.47054999999818,
      "v": 70
    },
    {
      "midi": 81,
      "hit": false,
      "t": 125333.02556875233,
      "d": 138.97051874999306,
      "v": 84
    },
    {
      "midi": 84,
      "hit": false,
      "t": 125527.14311875233,
      "d": 68.38231875000929,
      "v": 77
    },
    {
      "midi": 72,
      "hit": false,
      "t": 125534.49605625233,
      "d": 63.235262500005774,
      "v": 66
    },
    {
      "midi": 69,
      "hit": false,
      "t": 125666.84893125235,
      "d": 61.02938125000219,
      "v": 39
    },
    {
      "midi": 73,
      "hit": false,
      "t": 125669.79010625235,
      "d": 216.17636250000214,
      "v": 51
    },
    {
      "midi": 58,
      "hit": false,
      "t": 125673.46657500234,
      "d": 109.55876875000831,
      "v": 44
    },
    {
      "midi": 85,
      "hit": false,
      "t": 125675.67245625235,
      "d": 208.0881312499987,
      "v": 65
    },
    {
      "midi": 64,
      "hit": false,
      "t": 125680.81951250235,
      "d": 167.64697499999602,
      "v": 50
    },
    {
      "midi": 82,
      "hit": false,
      "t": 125924.20174375235,
      "d": 52.94114999999874,
      "v": 38
    },
    {
      "midi": 86,
      "hit": false,
      "t": 126021.99581250234,
      "d": 233.08811875000538,
      "v": 76
    },
    {
      "midi": 74,
      "hit": false,
      "t": 126025.67228125234,
      "d": 239.70576250001614,
      "v": 71
    },
    {
      "midi": 84,
      "hit": false,
      "t": 126047.73109375234,
      "d": 41.91174374999537,
      "v": 42
    },
    {
      "midi": 82,
      "hit": false,
      "t": 126291.11332500236,
      "d": 72.05878750000556,
      "v": 51
    },
    {
      "midi": 63,
      "hit": false,
      "t": 126389.64268750236,
      "d": 67.64702499998384,
      "v": 58
    },
    {
      "midi": 75,
      "hit": false,
      "t": 126393.31915625236,
      "d": 201.47048749998794,
      "v": 75
    },
    {
      "midi": 87,
      "hit": false,
      "t": 126396.99562500235,
      "d": 255.14693124999758,
      "v": 74
    },
    {
      "midi": 58,
      "hit": false,
      "t": 126397.73091875235,
      "d": 122.79405625000072,
      "v": 49
    },
    {
      "midi": 82,
      "hit": false,
      "t": 126661.70137500235,
      "d": 49.26468125000247,
      "v": 38
    },
    {
      "midi": 88,
      "hit": false,
      "t": 126744.78956875236,
      "d": 238.97046875000524,
      "v": 73
    },
    {
      "midi": 76,
      "hit": false,
      "t": 126747.73074375236,
      "d": 201.4704875000025,
      "v": 67
    },
    {
      "midi": 82,
      "hit": false,
      "t": 126749.20133125236,
      "d": 152.94109999999637,
      "v": 46
    },
    {
      "midi": 82,
      "hit": false,
      "t": 127007.28943750236,
      "d": 38.23527499999909,
      "v": 33
    },
    {
      "midi": 82,
      "hit": false,
      "t": 127102.14233125235,
      "d": 264.70575000003737,
      "v": 65
    },
    {
      "midi": 67,
      "hit": false,
      "t": 127106.55409375236,
      "d": 281.6175062500406,
      "v": 54
    },
    {
      "midi": 89,
      "hit": false,
      "t": 127111.70115000237,
      "d": 253.67634375001944,
      "v": 76
    },
    {
      "midi": 77,
      "hit": false,
      "t": 127113.90703125237,
      "d": 234.55870625001262,
      "v": 71
    },
    {
      "midi": 63,
      "hit": false,
      "t": 127114.64232500237,
      "d": 297.79396875003295,
      "v": 46
    },
    {
      "midi": 58,
      "hit": false,
      "t": 127122.73055625237,
      "d": 257.35281250003027,
      "v": 47
    },
    {
      "midi": 62,
      "hit": false,
      "t": 127124.20114375238,
      "d": 263.2351625000301,
      "v": 51
    },
    {
      "midi": 86,
      "hit": false,
      "t": 127135.23055000238,
      "d": 253.67634375001944,
      "v": 41
    },
    {
      "midi": 67,
      "hit": false,
      "t": 127463.1715625024,
      "d": 253.67634374999034,
      "v": 64
    },
    {
      "midi": 58,
      "hit": false,
      "t": 127468.3186187524,
      "d": 227.9410624999873,
      "v": 70
    },
    {
      "midi": 63,
      "hit": false,
      "t": 127469.0539125024,
      "d": 264.7057499999937,
      "v": 70
    },
    {
      "midi": 62,
      "hit": false,
      "t": 127471.2597937524,
      "d": 241.17634999997972,
      "v": 54
    },
    {
      "midi": 86,
      "hit": false,
      "t": 127471.9950875024,
      "d": 224.99988749998738,
      "v": 69
    },
    {
      "midi": 91,
      "hit": false,
      "t": 127475.67155625239,
      "d": 199.2646062499989,
      "v": 76
    },
    {
      "midi": 79,
      "hit": false,
      "t": 127480.8186125024,
      "d": 216.91165624998393,
      "v": 74
    },
    {
      "midi": 85,
      "hit": false,
      "t": 127823.46550000239,
      "d": 200.7351937500207,
      "v": 69
    },
    {
      "midi": 77,
      "hit": false,
      "t": 127824.9360875024,
      "d": 196.32343125001353,
      "v": 71
    },
    {
      "midi": 89,
      "hit": false,
      "t": 127827.1419687524,
      "d": 241.91164375000517,
      "v": 68
    },
    {
      "midi": 63,
      "hit": false,
      "t": 127827.8772625024,
      "d": 268.3822187500191,
      "v": 50
    },
    {
      "midi": 58,
      "hit": false,
      "t": 127828.6125562524,
      "d": 243.3822312500124,
      "v": 64
    },
    {
      "midi": 67,
      "hit": false,
      "t": 127831.5537312524,
      "d": 259.5586937500193,
      "v": 60
    },
    {
      "midi": 62,
      "hit": false,
      "t": 127838.9066687524,
      "d": 232.35282500000903,
      "v": 63
    },
    {
      "midi": 86,
      "hit": false,
      "t": 128007.28893750241,
      "d": 76.47054999999818,
      "v": 60
    },
    {
      "midi": 67,
      "hit": false,
      "t": 128191.11237500241,
      "d": 236.76458750000165,
      "v": 64
    },
    {
      "midi": 58,
      "hit": false,
      "t": 128194.78884375241,
      "d": 279.4116250000079,
      "v": 65
    },
    {
      "midi": 62,
      "hit": false,
      "t": 128196.25943125242,
      "d": 216.91165624998393,
      "v": 68
    },
    {
      "midi": 63,
      "hit": false,
      "t": 128196.99472500241,
      "d": 261.76457500000834,
      "v": 55
    },
    {
      "midi": 87,
      "hit": false,
      "t": 128197.73001875241,
      "d": 228.6763562499982,
      "v": 71
    },
    {
      "midi": 79,
      "hit": false,
      "t": 128198.4653125024,
      "d": 205.8822499999951,
      "v": 77
    },
    {
      "midi": 91,
      "hit": false,
      "t": 128200.67119375241,
      "d": 210.29401249998773,
      "v": 74
    },
    {
      "midi": 85,
      "hit": false,
      "t": 128213.1711875024,
      "d": 29.4117499999993,
      "v": 47
    },
    {
      "midi": 57,
      "hit": false,
      "t": 128539.64161250241,
      "d": 229.41165000002366,
      "v": 63
    },
    {
      "midi": 67,
      "hit": false,
      "t": 128540.37690625241,
      "d": 258.0881062500266,
      "v": 57
    },
    {
      "midi": 63,
      "hit": false,
      "t": 128546.25925625241,
      "d": 282.35280000003695,
      "v": 44
    },
    {
      "midi": 85,
      "hit": false,
      "t": 128546.9945500024,
      "d": 144.85286875000747,
      "v": 64
    },
    {
      "midi": 89,
      "hit": false,
      "t": 128547.7298437524,
      "d": 180.88226250001753,
      "v": 67
    },
    {
      "midi": 77,
      "hit": false,
      "t": 128549.20043125241,
      "d": 181.61755625001388,
      "v": 63
    },
    {
      "midi": 86,
      "hit": false,
      "t": 128689.64153750241,
      "d": 39.70586250000633,
      "v": 45
    },
    {
      "midi": 86,
      "hit": false,
      "t": 128871.25909375245,
      "d": 205.14695625001332,
      "v": 53
    },
    {
      "midi": 80,
      "hit": false,
      "t": 128881.55320625246,
      "d": 147.0587499999965,
      "v": 51
    },
    {
      "midi": 74,
      "hit": false,
      "t": 128893.31790625246,
      "d": 193.3822562500136,
      "v": 42
    },
    {
      "midi": 63,
      "hit": false,
      "t": 128894.78849375247,
      "d": 262.4998687500047,
      "v": 53
    },
    {
      "midi": 67,
      "hit": false,
      "t": 128895.52378750246,
      "d": 222.7940062500129,
      "v": 44
    },
    {
      "midi": 57,
      "hit": false,
      "t": 128901.40613750246,
      "d": 197.05872500000987,
      "v": 53
    },
    {
      "midi": 84,
      "hit": false,
      "t": 129213.17068750248,
      "d": 177.20579375002126,
      "v": 63
    },
    {
      "midi": 80,
      "hit": false,
      "t": 129215.37656875249,
      "d": 163.9705062500143,
      "v": 50
    },
    {
      "midi": 72,
      "hit": false,
      "t": 129230.08244375249,
      "d": 170.58815000002505,
      "v": 29
    },
    {
      "midi": 63,
      "hit": false,
      "t": 129232.28832500249,
      "d": 254.41163750003034,
      "v": 47
    },
    {
      "midi": 57,
      "hit": false,
      "t": 129233.7589125025,
      "d": 177.9410875000176,
      "v": 45
    },
    {
      "midi": 67,
      "hit": false,
      "t": 129234.4942062525,
      "d": 186.02931875002105,
      "v": 39
    },
    {
      "midi": 81,
      "hit": false,
      "t": 129580.08226875252,
      "d": 108.08818125000107,
      "v": 54
    },
    {
      "midi": 57,
      "hit": false,
      "t": 129580.81756250252,
      "d": 171.32344375000685,
      "v": 51
    },
    {
      "midi": 63,
      "hit": false,
      "t": 129581.55285625251,
      "d": 240.44105625001248,
      "v": 33
    },
    {
      "midi": 67,
      "hit": false,
      "t": 129583.02344375252,
      "d": 135.2940499999968,
      "v": 40
    },
    {
      "midi": 78,
      "hit": false,
      "t": 129585.96461875252,
      "d": 32.35292499999923,
      "v": 30
    },
    {
      "midi": 77,
      "hit": false,
      "t": 129883.75858750253,
      "d": 234.55870624998352,
      "v": 44
    },
    {
      "midi": 62,
      "hit": false,
      "t": 129890.37623125252,
      "d": 533.8232624999946,
      "v": 43
    },
    {
      "midi": 60,
      "hit": false,
      "t": 129893.31740625252,
      "d": 605.8820500000002,
      "v": 45
    },
    {
      "midi": 72,
      "hit": false,
      "t": 129896.99387500252,
      "d": 228.6763562499982,
      "v": 36
    },
    {
      "midi": 55,
      "hit": false,
      "t": 129911.69975000252,
      "d": 883.087793750019,
      "v": 42
    },
    {
      "midi": 65,
      "hit": false,
      "t": 129920.52327500252,
      "d": 163.23521249998885,
      "v": 15
    },
    {
      "midi": 67,
      "hit": false,
      "t": 130569.05236250252,
      "d": 142.64698750001844,
      "v": 83
    },
    {
      "midi": 62,
      "hit": false,
      "t": 130570.52295000253,
      "d": 116.91170625001541,
      "v": 50
    },
    {
      "midi": 60,
      "hit": false,
      "t": 130571.99353750254,
      "d": 341.9115937500028,
      "v": 17
    },
    {
      "midi": 65,
      "hit": false,
      "t": 130573.46412500255,
      "d": 33.088218749995576,
      "v": 54
    },
    {
      "midi": 69,
      "hit": false,
      "t": 130816.11106250253,
      "d": 72.79408125000191,
      "v": 52
    },
    {
      "midi": 72,
      "hit": false,
      "t": 130935.22865000254,
      "d": 164.7057999999961,
      "v": 74
    },
    {
      "midi": 71,
      "hit": false,
      "t": 130946.25805625254,
      "d": 30.882337500006543,
      "v": 67
    },
    {
      "midi": 70,
      "hit": false,
      "t": 131156.55206875253,
      "d": 94.11759999996866,
      "v": 59
    },
    {
      "midi": 68,
      "hit": false,
      "t": 131301.4049375025,
      "d": 88.2352499999979,
      "v": 44
    },
    {
      "midi": 62,
      "hit": false,
      "t": 131305.8167000025,
      "d": 58.8234999999986,
      "v": 34
    },
    {
      "midi": 57,
      "hit": false,
      "t": 131308.0225812525,
      "d": 88.9705437499797,
      "v": 30
    },
    {
      "midi": 58,
      "hit": false,
      "t": 131313.9049312525,
      "d": 96.32348124997225,
      "v": 35
    },
    {
      "midi": 69,
      "hit": false,
      "t": 131347.7284437525,
      "d": 386.764512499969,
      "v": 56
    },
    {
      "midi": 60,
      "hit": false,
      "t": 131625.66948125247,
      "d": 109.55876875002286,
      "v": 24
    },
    {
      "midi": 67,
      "hit": false,
      "t": 131855.8164250025,
      "d": 573.52912500003,
      "v": 63
    },
    {
      "midi": 58,
      "hit": false,
      "t": 132027.1398687525,
      "d": 28.676456249988405,
      "v": 42
    },
    {
      "midi": 52,
      "hit": false,
      "t": 132062.4339687525,
      "d": 47.79409375000978,
      "v": 28
    },
    {
      "midi": 59,
      "hit": false,
      "t": 132476.40435000253,
      "d": 79.41172500001267,
      "v": 43
    },
    {
      "midi": 65,
      "hit": false,
      "t": 132710.96305625254,
      "d": 91.91171874999418,
      "v": 51
    },
    {
      "midi": 50,
      "hit": false,
      "t": 132714.63952500254,
      "d": 82.35289999999804,
      "v": 50
    },
    {
      "midi": 60,
      "hit": false,
      "t": 132716.84540625254,
      "d": 75.73525624998729,
      "v": 55
    },
    {
      "midi": 57,
      "hit": false,
      "t": 132721.99246250253,
      "d": 40.441156249988126,
      "v": 44
    },
    {
      "midi": 65,
      "hit": false,
      "t": 133182.28635000254,
      "d": 519.8526812499913,
      "v": 45
    },
    {
      "midi": 57,
      "hit": false,
      "t": 133183.02164375255,
      "d": 444.117425000004,
      "v": 47
    },
    {
      "midi": 60,
      "hit": false,
      "t": 133192.58046250255,
      "d": 521.323268749984,
      "v": 46
    },
    {
      "midi": 62,
      "hit": false,
      "t": 133199.19810625256,
      "d": 538.9703187499836,
      "v": 48
    },
    {
      "midi": 50,
      "hit": false,
      "t": 133202.87457500256,
      "d": 429.4115499999898,
      "v": 36
    },
    {
      "midi": 73,
      "hit": false,
      "t": 134117.58000000255,
      "d": 83.82348750004894,
      "v": 70
    },
    {
      "midi": 77,
      "hit": false,
      "t": 134121.99176250256,
      "d": 546.3232562500925,
      "v": 64
    },
    {
      "midi": 81,
      "hit": false,
      "t": 134124.93293750257,
      "d": 513.9703312500496,
      "v": 72
    },
    {
      "midi": 69,
      "hit": false,
      "t": 134127.13881875257,
      "d": 549.9997250000888,
      "v": 77
    },
    {
      "midi": 57,
      "hit": false,
      "t": 134133.75646250258,
      "d": 494.85269375002827,
      "v": 69
    },
    {
      "midi": 62,
      "hit": false,
      "t": 134139.63881250258,
      "d": 511.76445000004605,
      "v": 71
    },
    {
      "midi": 58,
      "hit": false,
      "t": 134140.3741062526,
      "d": 528.6762062500638,
      "v": 63
    },
    {
      "midi": 79,
      "hit": false,
      "t": 134165.3740937526,
      "d": 524.9997375000676,
      "v": 19
    },
    {
      "midi": 74,
      "hit": false,
      "t": 134202.1387812526,
      "d": 452.20565625003655,
      "v": 58
    },
    {
      "midi": 79,
      "hit": false,
      "t": 134843.31493125265,
      "d": 533.087968750071,
      "v": 59
    },
    {
      "midi": 76,
      "hit": false,
      "t": 134844.05022500266,
      "d": 452.94095000004745,
      "v": 53
    },
    {
      "midi": 73,
      "hit": false,
      "t": 134846.25610625267,
      "d": 484.55858125005034,
      "v": 46
    },
    {
      "midi": 58,
      "hit": false,
      "t": 134848.46198750267,
      "d": 413.2350875000411,
      "v": 49
    },
    {
      "midi": 67,
      "hit": false,
      "t": 134851.40316250268,
      "d": 421.32331875001546,
      "v": 53
    },
    {
      "midi": 62,
      "hit": false,
      "t": 134855.07963125268,
      "d": 455.14683125002193,
      "v": 57
    },
    {
      "midi": 52,
      "hit": false,
      "t": 134867.5796250027,
      "d": 332.35277500000666,
      "v": 37
    },
    {
      "midi": 72,
      "hit": false,
      "t": 135524.19694375273,
      "d": 489.7056375000102,
      "v": 51
    },
    {
      "midi": 64,
      "hit": false,
      "t": 135525.66753125272,
      "d": 441.1762500000186,
      "v": 53
    },
    {
      "midi": 69,
      "hit": false,
      "t": 135527.87341250273,
      "d": 446.3233062500076,
      "v": 45
    },
    {
      "midi": 60,
      "hit": false,
      "t": 135535.96164375273,
      "d": 441.9115437500004,
      "v": 42
    },
    {
      "midi": 57,
      "hit": false,
      "t": 135545.52046250273,
      "d": 905.1466062500549,
      "v": 38
    },
    {
      "midi": 53,
      "hit": false,
      "t": 135559.49104375273,
      "d": 911.7642500000657,
      "v": 24
    },
    {
      "midi": 65,
      "hit": false,
      "t": 136256.54951875276,
      "d": 166.17638750001788,
      "v": 50
    },
    {
      "midi": 69,
      "hit": false,
      "t": 136258.75540000276,
      "d": 255.14693125002668,
      "v": 55
    },
    {
      "midi": 64,
      "hit": false,
      "t": 136260.96128125276,
      "d": 208.0881312500278,
      "v": 44
    },
    {
      "midi": 60,
      "hit": false,
      "t": 136278.60833125276,
      "d": 188.23520000002463,
      "v": 31
    },
    {
      "midi": 61,
      "hit": false,
      "t": 136944.78446875277,
      "d": 508.8232750000607,
      "v": 69
    },
    {
      "midi": 56,
      "hit": false,
      "t": 136945.51976250278,
      "d": 483.82328750003944,
      "v": 73
    },
    {
      "midi": 60,
      "hit": false,
      "t": 136946.2550562528,
      "d": 418.3821437500301,
      "v": 74
    },
    {
      "midi": 65,
      "hit": false,
      "t": 136948.4609375028,
      "d": 438.97036875001504,
      "v": 79
    },
    {
      "midi": 92,
      "hit": false,
      "t": 136949.1962312528,
      "d": 492.6468125000247,
      "v": 83
    },
    {
      "midi": 80,
      "hit": false,
      "t": 136953.6079937528,
      "d": 466.91153124999255,
      "v": 90
    },
    {
      "midi": 85,
      "hit": false,
      "t": 136954.34328750282,
      "d": 558.0879562500049,
      "v": 77
    },
    {
      "midi": 89,
      "hit": false,
      "t": 136973.46092500282,
      "d": 406.61744375000126,
      "v": 36
    },
    {
      "midi": 90,
      "hit": false,
      "t": 136974.9315125028,
      "d": 600.7349937500258,
      "v": 30
    },
    {
      "midi": 88,
      "hit": false,
      "t": 136988.1668000028,
      "d": 47.79409375000978,
      "v": 36
    },
    {
      "midi": 61,
      "hit": false,
      "t": 137675.66645625283,
      "d": 470.5880000000179,
      "v": 46
    },
    {
      "midi": 91,
      "hit": false,
      "t": 137683.01939375282,
      "d": 123.52935000002617,
      "v": 47
    },
    {
      "midi": 79,
      "hit": false,
      "t": 137685.96056875284,
      "d": 172.79403125002864,
      "v": 41
    },
    {
      "midi": 55,
      "hit": false,
      "t": 137686.69586250285,
      "d": 405.14685625000857,
      "v": 53
    },
    {
      "midi": 85,
      "hit": false,
      "t": 137688.16645000284,
      "d": 159.55874375003623,
      "v": 37
    },
    {
      "midi": 64,
      "hit": false,
      "t": 137688.90174375285,
      "d": 367.6468750000058,
      "v": 46
    },
    {
      "midi": 87,
      "hit": false,
      "t": 137696.98997500286,
      "d": 149.999925000011,
      "v": 34
    },
    {
      "midi": 84,
      "hit": false,
      "t": 138144.78386875286,
      "d": 1066.9112312499783,
      "v": 95
    },
    {
      "midi": 63,
      "hit": false,
      "t": 138366.10728750285,
      "d": 64.70584999999846,
      "v": 56
    },
    {
      "midi": 58,
      "hit": false,
      "t": 138380.07786875285,
      "d": 144.85286874999292,
      "v": 49
    },
    {
      "midi": 60,
      "hit": false,
      "t": 138381.54845625284,
      "d": 38.97056874999544,
      "v": 40
    },
    {
      "midi": 63,
      "hit": false,
      "t": 139158.01865625285,
      "d": 28.676456249988405,
      "v": 40
    },
    {
      "midi": 58,
      "hit": false,
      "t": 139165.37159375285,
      "d": 138.23522499998217,
      "v": 52
    },
    {
      "midi": 87,
      "hit": false,
      "t": 139466.10673750282,
      "d": 257.35281250000116,
      "v": 84
    },
    {
      "midi": 84,
      "hit": false,
      "t": 139692.57721250283,
      "d": 86.76466250000522,
      "v": 42
    },
    {
      "midi": 85,
      "hit": false,
      "t": 139729.34190000282,
      "d": 132.3528750000114,
      "v": 48
    },
    {
      "midi": 86,
      "hit": false,
      "t": 139822.72420625284,
      "d": 66.91173125000205,
      "v": 72
    },
    {
      "midi": 63,
      "hit": false,
      "t": 139830.07714375283,
      "d": 289.70573750001495,
      "v": 32
    },
    {
      "midi": 60,
      "hit": false,
      "t": 139841.84184375283,
      "d": 1152.205306250049,
      "v": 36
    },
    {
      "midi": 54,
      "hit": false,
      "t": 139857.28301250283,
      "d": 463.2350624999963,
      "v": 40
    },
    {
      "midi": 87,
      "hit": false,
      "t": 139906.54769375283,
      "d": 188.97049375000643,
      "v": 72
    },
    {
      "midi": 86,
      "hit": false,
      "t": 140136.69463750283,
      "d": 64.70584999999846,
      "v": 57
    },
    {
      "midi": 85,
      "hit": false,
      "t": 140179.34167500283,
      "d": 108.08818125000107,
      "v": 65
    },
    {
      "midi": 84,
      "hit": false,
      "t": 140271.25339375282,
      "d": 92.64701250000508,
      "v": 48
    },
    {
      "midi": 84,
      "hit": false,
      "t": 140494.04740000283,
      "d": 204.41166250000242,
      "v": 90
    },
    {
      "midi": 63,
      "hit": false,
      "t": 140560.22383750282,
      "d": 289.70573750004405,
      "v": 31
    },
    {
      "midi": 54,
      "hit": false,
      "t": 140583.75323750282,
      "d": 449.9997750000621,
      "v": 32
    },
    {
      "midi": 83,
      "hit": false,
      "t": 140660.22378750282,
      "d": 80.14701875002356,
      "v": 55
    },
    {
      "midi": 82,
      "hit": false,
      "t": 140721.98846250284,
      "d": 109.55876875002286,
      "v": 58
    },
    {
      "midi": 81,
      "hit": false,
      "t": 140805.07665625284,
      "d": 71.32349375003832,
      "v": 56
    },
    {
      "midi": 78,
      "hit": false,
      "t": 140971.2530437529,
      "d": 75.73525624998729,
      "v": 34
    },
    {
      "midi": 79,
      "hit": false,
      "t": 140997.72361875288,
      "d": 41.17644999999902,
      "v": 29
    },
    {
      "midi": 77,
      "hit": false,
      "t": 141155.07648125288,
      "d": 41.17644999999902,
      "v": 24
    },
    {
      "midi": 77,
      "hit": false,
      "t": 141221.98821250288,
      "d": 63.235262500005774,
      "v": 30
    },
    {
      "midi": 65,
      "hit": false,
      "t": 141222.7235062529,
      "d": 307.3527874999854,
      "v": 36
    },
    {
      "midi": 60,
      "hit": false,
      "t": 141224.19409375289,
      "d": 384.5586312499945,
      "v": 41
    },
    {
      "midi": 61,
      "hit": false,
      "t": 141224.9293875029,
      "d": 369.8527562499803,
      "v": 37
    },
    {
      "midi": 56,
      "hit": false,
      "t": 141241.84114375288,
      "d": 1330.8816875000193,
      "v": 35
    },
    {
      "midi": 73,
      "hit": false,
      "t": 141379.34107500289,
      "d": 66.91173125000205,
      "v": 37
    },
    {
      "midi": 77,
      "hit": false,
      "t": 141492.57631250288,
      "d": 115.44111874999362,
      "v": 71
    },
    {
      "midi": 72,
      "hit": false,
      "t": 141669.04681250287,
      "d": 48.52938749999157,
      "v": 55
    },
    {
      "midi": 73,
      "hit": false,
      "t": 141784.48793125286,
      "d": 111.02935624998645,
      "v": 60
    },
    {
      "midi": 61,
      "hit": false,
      "t": 141919.78198125286,
      "d": 605.8820500000438,
      "v": 32
    },
    {
      "midi": 65,
      "hit": false,
      "t": 141921.25256875285,
      "d": 151.47051250003278,
      "v": 28
    },
    {
      "midi": 69,
      "hit": false,
      "t": 141965.37019375287,
      "d": 33.82351250000647,
      "v": 25
    },
    {
      "midi": 72,
      "hit": false,
      "t": 142055.0760312529,
      "d": 97.79406874999404,
      "v": 70
    },
    {
      "midi": 69,
      "hit": false,
      "t": 142221.9877125029,
      "d": 36.02939375001006,
      "v": 32
    },
    {
      "midi": 70,
      "hit": false,
      "t": 142336.6935375029,
      "d": 102.94112500001211,
      "v": 49
    },
    {
      "midi": 72,
      "hit": false,
      "t": 142490.3699312529,
      "d": 100.73524375000852,
      "v": 74
    },
    {
      "midi": 65,
      "hit": false,
      "t": 142634.48750625292,
      "d": 88.9705437500088,
      "v": 37
    },
    {
      "midi": 61,
      "hit": false,
      "t": 142641.10515000293,
      "d": 136.76463749998948,
      "v": 33
    },
    {
      "midi": 55,
      "hit": false,
      "t": 142644.78161875292,
      "d": 307.3527874999854,
      "v": 44
    },
    {
      "midi": 73,
      "hit": false,
      "t": 142648.45808750292,
      "d": 115.44111874999362,
      "v": 48
    },
    {
      "midi": 75,
      "hit": false,
      "t": 142831.54623125293,
      "d": 112.49994374997914,
      "v": 61
    },
    {
      "midi": 63,
      "hit": false,
      "t": 142858.75210000292,
      "d": 50.73526874999516,
      "v": 50
    },
    {
      "midi": 72,
      "hit": false,
      "t": 142998.4579125029,
      "d": 143.38228125000023,
      "v": 41
    },
    {
      "midi": 73,
      "hit": false,
      "t": 143181.5460562529,
      "d": 80.14701874999446,
      "v": 39
    },
    {
      "midi": 61,
      "hit": false,
      "t": 143314.6342250029,
      "d": 66.91173125000205,
      "v": 44
    },
    {
      "midi": 70,
      "hit": false,
      "t": 143352.1342062529,
      "d": 272.05868750001537,
      "v": 59
    },
    {
      "midi": 55,
      "hit": false,
      "t": 143363.8989062529,
      "d": 36.02939375001006,
      "v": 24
    },
    {
      "midi": 67,
      "hit": false,
      "t": 143688.8987437529,
      "d": 157.35286250000354,
      "v": 51
    },
    {
      "midi": 64,
      "hit": false,
      "t": 143969.78095625291,
      "d": 30.88233749999199,
      "v": 22
    },
    {
      "midi": 60,
      "hit": false,
      "t": 144113.8985312529,
      "d": 146.3234562499856,
      "v": 24
    },
    {
      "midi": 60,
      "hit": false,
      "t": 144335.2219500029,
      "d": 58.08820624998771,
      "v": 57
    },
    {
      "midi": 60,
      "hit": false,
      "t": 144732.28057500286,
      "d": 587.4997062500042,
      "v": 47
    },
    {
      "midi": 55,
      "hit": false,
      "t": 145329.33910000286,
      "d": 160.29403750001802,
      "v": 22
    },
    {
      "midi": 62,
      "hit": false,
      "t": 145444.04492500288,
      "d": 154.41168750001816,
      "v": 79
    },
    {
      "midi": 63,
      "hit": false,
      "t": 145646.2507062529,
      "d": 99.26465624998673,
      "v": 43
    },
    {
      "midi": 62,
      "hit": false,
      "t": 145671.9859875029,
      "d": 110.29406249997555,
      "v": 53
    },
    {
      "midi": 55,
      "hit": false,
      "t": 145732.2800750029,
      "d": 63.23526249997667,
      "v": 19
    },
    {
      "midi": 60,
      "hit": false,
      "t": 145787.42710625287,
      "d": 155.88227500001085,
      "v": 38
    },
    {
      "midi": 59,
      "hit": false,
      "t": 146008.01523125288,
      "d": 91.91171874999418,
      "v": 28
    },
    {
      "midi": 56,
      "hit": false,
      "t": 146129.33870000287,
      "d": 86.02936874999432,
      "v": 45
    },
    {
      "midi": 62,
      "hit": false,
      "t": 146130.80928750287,
      "d": 336.02924375000293,
      "v": 69
    },
    {
      "midi": 47,
      "hit": false,
      "t": 146155.80927500286,
      "d": 111.76464999999735,
      "v": 33
    },
    {
      "midi": 53,
      "hit": false,
      "t": 146368.30916875286,
      "d": 158.08815625001444,
      "v": 48
    },
    {
      "midi": 56,
      "hit": false,
      "t": 146877.13244375287,
      "d": 268.3822187500191,
      "v": 46
    },
    {
      "midi": 46,
      "hit": false,
      "t": 146885.95596875288,
      "d": 802.2054812500137,
      "v": 37
    },
    {
      "midi": 53,
      "hit": false,
      "t": 147619.0438375029,
      "d": 77.94113750001998,
      "v": 36
    },
    {
      "midi": 65,
      "hit": false,
      "t": 147977.8671875029,
      "d": 765.4407937499636,
      "v": 62
    },
    {
      "midi": 60,
      "hit": false,
      "t": 147978.60248125292,
      "d": 1163.2347124999505,
      "v": 55
    },
    {
      "midi": 61,
      "hit": false,
      "t": 147980.80836250292,
      "d": 824.2642937499622,
      "v": 56
    },
    {
      "midi": 56,
      "hit": false,
      "t": 147991.8377687529,
      "d": 1249.9993749999558,
      "v": 49
    },
    {
      "midi": 70,
      "hit": false,
      "t": 148485.9551687529,
      "d": 109.55876874999376,
      "v": 59
    },
    {
      "midi": 75,
      "hit": false,
      "t": 148632.2786250029,
      "d": 144.85286874999292,
      "v": 56
    },
    {
      "midi": 77,
      "hit": false,
      "t": 148808.74912500288,
      "d": 97.79406874999404,
      "v": 66
    },
    {
      "midi": 65,
      "hit": false,
      "t": 148835.95499375288,
      "d": 209.55871874999139,
      "v": 33
    },
    {
      "midi": 61,
      "hit": false,
      "t": 148858.0138062529,
      "d": 483.08799374997034,
      "v": 11
    },
    {
      "midi": 73,
      "hit": false,
      "t": 148969.77845625288,
      "d": 117.6469999999972,
      "v": 36
    },
    {
      "midi": 77,
      "hit": false,
      "t": 149145.51366250287,
      "d": 86.02936874999432,
      "v": 36
    },
    {
      "midi": 82,
      "hit": false,
      "t": 149280.80771250286,
      "d": 151.47051250000368,
      "v": 67
    },
    {
      "midi": 84,
      "hit": false,
      "t": 149472.71938125286,
      "d": 98.52936250000494,
      "v": 77
    },
    {
      "midi": 61,
      "hit": false,
      "t": 149628.60165625287,
      "d": 73.5293750000128,
      "v": 36
    },
    {
      "midi": 82,
      "hit": false,
      "t": 149668.30751875287,
      "d": 111.76464999999735,
      "v": 44
    },
    {
      "midi": 79,
      "hit": false,
      "t": 149908.74857500286,
      "d": 396.3233312499942,
      "v": 70
    },
    {
      "midi": 63,
      "hit": false,
      "t": 149932.27797500286,
      "d": 436.76448750001146,
      "v": 47
    },
    {
      "midi": 60,
      "hit": false,
      "t": 149941.83679375285,
      "d": 276.47044999999343,
      "v": 47
    },
    {
      "midi": 58,
      "hit": false,
      "t": 149949.18973125285,
      "d": 1163.9700062499905,
      "v": 43
    },
    {
      "midi": 53,
      "hit": false,
      "t": 149978.60148125284,
      "d": 1056.6171187500004,
      "v": 25
    },
    {
      "midi": 60,
      "hit": false,
      "t": 150323.45425000286,
      "d": 163.2352125000034,
      "v": 17
    },
    {
      "midi": 75,
      "hit": false,
      "t": 150350.66011875286,
      "d": 310.2939624999999,
      "v": 67
    },
    {
      "midi": 72,
      "hit": false,
      "t": 150598.45411250286,
      "d": 66.17643749999115,
      "v": 45
    },
    {
      "midi": 87,
      "hit": false,
      "t": 151130.07149375282,
      "d": 122.79405624998617,
      "v": 78
    },
    {
      "midi": 63,
      "hit": false,
      "t": 151135.2185500028,
      "d": 112.49994375000824,
      "v": 71
    },
    {
      "midi": 75,
      "hit": false,
      "t": 151135.95384375282,
      "d": 102.20583125000121,
      "v": 83
    },
    {
      "midi": 54,
      "hit": false,
      "t": 151140.36560625283,
      "d": 119.85288124997169,
      "v": 67
    },
    {
      "midi": 60,
      "hit": false,
      "t": 151141.10090000284,
      "d": 159.55874374994892,
      "v": 62
    },
    {
      "midi": 81,
      "hit": false,
      "t": 151158.01265625283,
      "d": 41.17644999999902,
      "v": 44
    },
    {
      "midi": 84,
      "hit": false,
      "t": 151370.51255000278,
      "d": 191.9116687499918,
      "v": 64
    },
    {
      "midi": 63,
      "hit": false,
      "t": 151378.60078125278,
      "d": 321.32336874998873,
      "v": 44
    },
    {
      "midi": 72,
      "hit": false,
      "t": 151383.74783750277,
      "d": 262.4998687499901,
      "v": 51
    },
    {
      "midi": 54,
      "hit": false,
      "t": 151387.42430625277,
      "d": 347.05864999999176,
      "v": 39
    },
    {
      "midi": 60,
      "hit": false,
      "t": 151389.63018750277,
      "d": 277.9410374999861,
      "v": 36
    },
    {
      "midi": 63,
      "hit": false,
      "t": 151808.74762500278,
      "d": 164.7058000000252,
      "v": 36
    },
    {
      "midi": 81,
      "hit": false,
      "t": 151814.62997500278,
      "d": 216.17636250000214,
      "v": 43
    },
    {
      "midi": 54,
      "hit": false,
      "t": 151819.77703125277,
      "d": 150.7352187500219,
      "v": 21
    },
    {
      "midi": 69,
      "hit": false,
      "t": 151828.6005562528,
      "d": 158.08815625001444,
      "v": 30
    },
    {
      "midi": 60,
      "hit": false,
      "t": 151830.8064375028,
      "d": 260.29398749998654,
      "v": 34
    },
    {
      "midi": 75,
      "hit": false,
      "t": 152040.36515625278,
      "d": 66.17643749999115,
      "v": 52
    },
    {
      "midi": 63,
      "hit": false,
      "t": 152063.15926250277,
      "d": 76.47054999999818,
      "v": 37
    },
    {
      "midi": 54,
      "hit": false,
      "t": 152071.98278750278,
      "d": 61.76467499998398,
      "v": 26
    },
    {
      "midi": 65,
      "hit": false,
      "t": 152510.95315625277,
      "d": 513.9703312500496,
      "v": 53
    },
    {
      "midi": 61,
      "hit": false,
      "t": 152519.04138750277,
      "d": 481.61740625003586,
      "v": 33
    },
    {
      "midi": 60,
      "hit": false,
      "t": 152524.92373750277,
      "d": 517.6468000000459,
      "v": 33
    },
    {
      "midi": 87,
      "hit": false,
      "t": 152529.33550000278,
      "d": 549.2644312500488,
      "v": 65
    },
    {
      "midi": 56,
      "hit": false,
      "t": 152532.2766750028,
      "d": 1366.1757875000476,
      "v": 33
    },
    {
      "midi": 75,
      "hit": false,
      "t": 152538.8943187528,
      "d": 384.5586312499945,
      "v": 53
    },
    {
      "midi": 85,
      "hit": false,
      "t": 153244.77631875282,
      "d": 102.94112500004121,
      "v": 71
    },
    {
      "midi": 65,
      "hit": false,
      "t": 153245.51161250283,
      "d": 341.176300000021,
      "v": 37
    },
    {
      "midi": 61,
      "hit": false,
      "t": 153246.24690625284,
      "d": 451.47036249999655,
      "v": 37
    },
    {
      "midi": 60,
      "hit": false,
      "t": 153274.18806875285,
      "d": 383.8233374999836,
      "v": 26
    },
    {
      "midi": 87,
      "hit": false,
      "t": 153393.30565625287,
      "d": 144.85286874999292,
      "v": 53
    },
    {
      "midi": 85,
      "hit": false,
      "t": 153441.83504375286,
      "d": 161.7646249999816,
      "v": 36
    },
    {
      "midi": 84,
      "hit": false,
      "t": 153553.59969375285,
      "d": 124.99993749998976,
      "v": 36
    },
    {
      "midi": 85,
      "hit": false,
      "t": 153772.71723125284,
      "d": 134.558756250015,
      "v": 73
    },
    {
      "midi": 55,
      "hit": false,
      "t": 153963.89360625285,
      "d": 595.5879375000368,
      "v": 42
    },
    {
      "midi": 65,
      "hit": false,
      "t": 153966.09948750286,
      "d": 541.1762000000454,
      "v": 31
    },
    {
      "midi": 61,
      "hit": false,
      "t": 153969.04066250287,
      "d": 574.9997125000227,
      "v": 33
    },
    {
      "midi": 87,
      "hit": false,
      "t": 153985.21712500288,
      "d": 184.55873124999925,
      "v": 54
    },
    {
      "midi": 88,
      "hit": false,
      "t": 154205.8052500029,
      "d": 258.08810625001206,
      "v": 57
    },
    {
      "midi": 90,
      "hit": false,
      "t": 154424.1874937529,
      "d": 199.26460624998435,
      "v": 62
    },
    {
      "midi": 61,
      "hit": false,
      "t": 154649.18738125288,
      "d": 178.6763812499994,
      "v": 34
    },
    {
      "midi": 55,
      "hit": false,
      "t": 154651.39326250288,
      "d": 187.49990624998463,
      "v": 43
    },
    {
      "midi": 91,
      "hit": false,
      "t": 154656.54031875287,
      "d": 161.0293312499998,
      "v": 71
    },
    {
      "midi": 64,
      "hit": false,
      "t": 154661.68737500286,
      "d": 143.38228125000023,
      "v": 40
    },
    {
      "midi": 92,
      "hit": false,
      "t": 154866.83433125287,
      "d": 114.70582500001183,
      "v": 72
    },
    {
      "midi": 55,
      "hit": false,
      "t": 154884.48138125287,
      "d": 227.20576875002007,
      "v": 20
    },
    {
      "midi": 61,
      "hit": false,
      "t": 154901.39313750286,
      "d": 79.41172500001267,
      "v": 32
    },
    {
      "midi": 64,
      "hit": false,
      "t": 154921.24606875287,
      "d": 35.29409999999916,
      "v": 24
    },
    {
      "midi": 93,
      "hit": false,
      "t": 155010.95190625289,
      "d": 107.35288750001928,
      "v": 65
    },
    {
      "midi": 61,
      "hit": false,
      "t": 155063.89305625288,
      "d": 103.676418750023,
      "v": 23
    },
    {
      "midi": 94,
      "hit": false,
      "t": 155124.92243750292,
      "d": 112.49994374997914,
      "v": 60
    },
    {
      "midi": 95,
      "hit": false,
      "t": 155244.0400250029,
      "d": 158.08815624998533,
      "v": 52
    },
    {
      "midi": 63,
      "hit": false,
      "t": 155385.2164250029,
      "d": 727.2055187499791,
      "v": 40
    },
    {
      "midi": 60,
      "hit": false,
      "t": 155404.3340625029,
      "d": 716.1761124999903,
      "v": 48
    },
    {
      "midi": 53,
      "hit": false,
      "t": 155412.4222937529,
      "d": 636.0290937499958,
      "v": 39
    },
    {
      "midi": 58,
      "hit": false,
      "t": 155413.8928812529,
      "d": 742.6466875000042,
      "v": 37
    },
    {
      "midi": 96,
      "hit": false,
      "t": 155420.5105250029,
      "d": 400.7350937500014,
      "v": 71
    },
    {
      "midi": 84,
      "hit": false,
      "t": 155439.6281625029,
      "d": 486.0291687500139,
      "v": 57
    },
    {
      "midi": 82,
      "hit": false,
      "t": 156503.5982187529,
      "d": 111.02935624998645,
      "v": 82
    },
    {
      "midi": 67,
      "hit": false,
      "t": 156508.74527500288,
      "d": 311.0292562499817,
      "v": 77
    },
    {
      "midi": 75,
      "hit": false,
      "t": 156509.4805687529,
      "d": 126.47052499998244,
      "v": 84
    },
    {
      "midi": 72,
      "hit": false,
      "t": 156513.15703750288,
      "d": 130.14699374997872,
      "v": 83
    },
    {
      "midi": 80,
      "hit": false,
      "t": 156520.50997500287,
      "d": 80.14701874999446,
      "v": 45
    },
    {
      "midi": 79,
      "hit": false,
      "t": 156525.65703125286,
      "d": 30.147043750010198,
      "v": 54
    },
    {
      "midi": 79,
      "hit": false,
      "t": 156788.15690000285,
      "d": 94.11759999999776,
      "v": 66
    },
    {
      "midi": 63,
      "hit": false,
      "t": 156799.18630625284,
      "d": 130.14699375000782,
      "v": 60
    },
    {
      "midi": 75,
      "hit": false,
      "t": 156802.12748125286,
      "d": 87.49995624998701,
      "v": 37
    },
    {
      "midi": 68,
      "hit": false,
      "t": 156802.86277500287,
      "d": 102.2058312499721,
      "v": 39
    },
    {
      "midi": 72,
      "hit": false,
      "t": 156804.33336250286,
      "d": 72.05878749999101,
      "v": 46
    },
    {
      "midi": 75,
      "hit": false,
      "t": 157193.30375625286,
      "d": 98.52936250000494,
      "v": 59
    },
    {
      "midi": 60,
      "hit": false,
      "t": 157212.42139375285,
      "d": 61.764675000013085,
      "v": 60
    },
    {
      "midi": 68,
      "hit": false,
      "t": 157213.15668750287,
      "d": 85.29407500001253,
      "v": 59
    },
    {
      "midi": 65,
      "hit": false,
      "t": 157220.50962500286,
      "d": 74.2646687500237,
      "v": 58
    },
    {
      "midi": 72,
      "hit": false,
      "t": 157480.06831875286,
      "d": 340.4410062500101,
      "v": 49
    },
    {
      "midi": 65,
      "hit": false,
      "t": 157485.95066875286,
      "d": 396.32333125002333,
      "v": 64
    },
    {
      "midi": 68,
      "hit": false,
      "t": 157488.15655000287,
      "d": 215.44106875002035,
      "v": 45
    },
    {
      "midi": 56,
      "hit": false,
      "t": 157496.24478125287,
      "d": 349.99982500000624,
      "v": 60
    },
    {
      "midi": 60,
      "hit": false,
      "t": 157512.42124375288,
      "d": 265.4410437500046,
      "v": 35
    },
    {
      "midi": 53,
      "hit": false,
      "t": 157913.8916312529,
      "d": 232.35282500000903,
      "v": 36
    },
    {
      "midi": 72,
      "hit": false,
      "t": 158150.6562187529,
      "d": 283.0880937499751,
      "v": 60
    },
    {
      "midi": 65,
      "hit": false,
      "t": 158152.8621000029,
      "d": 330.14689374997397,
      "v": 62
    },
    {
      "midi": 61,
      "hit": false,
      "t": 158158.7444500029,
      "d": 391.91156874998705,
      "v": 50
    },
    {
      "midi": 55,
      "hit": false,
      "t": 158181.5385562529,
      "d": 175.7352062499849,
      "v": 42
    },
    {
      "midi": 68,
      "hit": false,
      "t": 158868.3029187529,
      "d": 372.793931250053,
      "v": 49
    },
    {
      "midi": 43,
      "hit": false,
      "t": 158886.6852625029,
      "d": 469.85270625003614,
      "v": 32
    },
    {
      "midi": 61,
      "hit": false,
      "t": 158888.1558500029,
      "d": 336.76453750004293,
      "v": 37
    },
    {
      "midi": 58,
      "hit": false,
      "t": 158891.8323187529,
      "d": 308.0880812500254,
      "v": 23
    },
    {
      "midi": 64,
      "hit": false,
      "t": 158897.7146687529,
      "d": 326.4704250000359,
      "v": 45
    },
    {
      "midi": 61,
      "hit": false,
      "t": 159304.33211250295,
      "d": 50.73526874999516,
      "v": 35
    },
    {
      "midi": 67,
      "hit": false,
      "t": 159308.74387500295,
      "d": 117.6469999999972,
      "v": 49
    },
    {
      "midi": 36,
      "hit": false,
      "t": 159522.71435625295,
      "d": 203.67636875002063,
      "v": 24
    },
    {
      "midi": 52,
      "hit": false,
      "t": 159546.97905000296,
      "d": 291.17632500003674,
      "v": 30
    },
    {
      "midi": 72,
      "hit": false,
      "t": 159741.096600003,
      "d": 341.9115937500028,
      "v": 38
    },
    {
      "midi": 84,
      "hit": false,
      "t": 159741.831893753,
      "d": 346.32335624998086,
      "v": 53
    },
    {
      "midi": 84,
      "hit": false,
      "t": 160222.71400625297,
      "d": 483.82328750001034,
      "v": 49
    },
    {
      "midi": 72,
      "hit": false,
      "t": 160227.86106250295,
      "d": 388.9703937500308,
      "v": 41
    },
    {
      "midi": 61,
      "hit": false,
      "t": 160230.80223750297,
      "d": 494.85269374999916,
      "v": 31
    },
    {
      "midi": 64,
      "hit": false,
      "t": 160234.47870625296,
      "d": 452.94095000001835,
      "v": 34
    },
    {
      "midi": 54,
      "hit": false,
      "t": 160240.36105625296,
      "d": 388.9703937500308,
      "v": 27
    },
    {
      "midi": 58,
      "hit": false,
      "t": 160244.77281875297,
      "d": 507.3526875000098,
      "v": 37
    },
    {
      "midi": 84,
      "hit": false,
      "t": 160960.21363750298,
      "d": 298.5292625000584,
      "v": 47
    },
    {
      "midi": 64,
      "hit": false,
      "t": 160961.68422500297,
      "d": 430.1468437500589,
      "v": 36
    },
    {
      "midi": 74,
      "hit": false,
      "t": 160966.09598750298,
      "d": 341.1763000000501,
      "v": 32
    },
    {
      "midi": 79,
      "hit": false,
      "t": 160982.272450003,
      "d": 297.7939687500475,
      "v": 39
    },
    {
      "midi": 60,
      "hit": false,
      "t": 160983.007743753,
      "d": 435.29390000004787,
      "v": 36
    },
    {
      "midi": 57,
      "hit": false,
      "t": 160989.625387503,
      "d": 1072.7935812500364,
      "v": 33
    },
    {
      "midi": 53,
      "hit": false,
      "t": 161013.89008125302,
      "d": 1105.881800000032,
      "v": 20
    },
    {
      "midi": 77,
      "hit": false,
      "t": 161679.33092500304,
      "d": 647.7937937499955,
      "v": 66
    },
    {
      "midi": 64,
      "hit": false,
      "t": 161681.53680625305,
      "d": 267.6469250000082,
      "v": 55
    },
    {
      "midi": 72,
      "hit": false,
      "t": 161683.00739375304,
      "d": 658.8232000000135,
      "v": 64
    },
    {
      "midi": 69,
      "hit": false,
      "t": 161693.30150625305,
      "d": 688.2349500000128,
      "v": 52
    },
    {
      "midi": 60,
      "hit": false,
      "t": 161696.24268125306,
      "d": 299.9998499999929,
      "v": 32
    },
    {
      "midi": 50,
      "hit": false,
      "t": 162400.65409375305,
      "d": 618.3820437500253,
      "v": 34
    },
    {
      "midi": 57,
      "hit": false,
      "t": 162401.38938750306,
      "d": 330.88218750001397,
      "v": 38
    },
    {
      "midi": 60,
      "hit": false,
      "t": 162402.12468125307,
      "d": 281.6175062500115,
      "v": 25
    },
    {
      "midi": 65,
      "hit": false,
      "t": 163100.65374375306,
      "d": 449.2644812500221,
      "v": 45
    },
    {
      "midi": 57,
      "hit": false,
      "t": 163102.12433125306,
      "d": 438.97036875001504,
      "v": 42
    },
    {
      "midi": 62,
      "hit": false,
      "t": 163102.85962500307,
      "d": 457.3527125000255,
      "v": 57
    },
    {
      "midi": 60,
      "hit": false,
      "t": 163111.68315000305,
      "d": 453.67624375002924,
      "v": 52
    },
    {
      "midi": 53,
      "hit": false,
      "t": 163337.41833125305,
      "d": 179.4116750000103,
      "v": 69
    },
    {
      "midi": 54,
      "hit": false,
      "t": 163576.38880000307,
      "d": 237.4998812500271,
      "v": 61
    },
    {
      "midi": 67,
      "hit": false,
      "t": 163796.97692500308,
      "d": 222.058712500002,
      "v": 73
    },
    {
      "midi": 55,
      "hit": false,
      "t": 163802.85927500308,
      "d": 288.23514999999315,
      "v": 68
    },
    {
      "midi": 58,
      "hit": false,
      "t": 163805.8004500031,
      "d": 31.617631250002887,
      "v": 59
    },
    {
      "midi": 62,
      "hit": false,
      "t": 163806.5357437531,
      "d": 320.58807499997783,
      "v": 72
    },
    {
      "midi": 57,
      "hit": false,
      "t": 164238.8884687531,
      "d": 227.20576875004917,
      "v": 71
    },
    {
      "midi": 58,
      "hit": false,
      "t": 164252.8590500031,
      "d": 120.58817500004079,
      "v": 84
    },
    {
      "midi": 69,
      "hit": false,
      "t": 164253.59434375312,
      "d": 101.47053750001942,
      "v": 62
    },
    {
      "midi": 62,
      "hit": false,
      "t": 164254.32963750314,
      "d": 198.52931250003166,
      "v": 77
    },
    {
      "midi": 65,
      "hit": false,
      "t": 164266.82963125315,
      "d": 205.14695625001332,
      "v": 58
    },
    {
      "midi": 68,
      "hit": false,
      "t": 164276.38845000314,
      "d": 57.352912500005914,
      "v": 30
    },
    {
      "midi": 70,
      "hit": false,
      "t": 164520.50597500315,
      "d": 136.02934375000768,
      "v": 60
    },
    {
      "midi": 58,
      "hit": false,
      "t": 164527.12361875316,
      "d": 159.55874375000712,
      "v": 58
    },
    {
      "midi": 62,
      "hit": false,
      "t": 164532.27067500315,
      "d": 136.02934375000768,
      "v": 56
    },
    {
      "midi": 65,
      "hit": false,
      "t": 164546.24125625315,
      "d": 144.11757500001113,
      "v": 51
    },
    {
      "midi": 58,
      "hit": false,
      "t": 164728.59410625318,
      "d": 103.676418750023,
      "v": 29
    },
    {
      "midi": 69,
      "hit": false,
      "t": 164733.74116250317,
      "d": 105.88230000002659,
      "v": 43
    },
    {
      "midi": 57,
      "hit": false,
      "t": 164739.62351250317,
      "d": 91.91171875002328,
      "v": 43
    },
    {
      "midi": 62,
      "hit": false,
      "t": 164741.09410000316,
      "d": 61.764675000013085,
      "v": 44
    },
    {
      "midi": 65,
      "hit": false,
      "t": 164757.27056250317,
      "d": 63.97055625001667,
      "v": 19
    },
    {
      "midi": 67,
      "hit": false,
      "t": 164972.7116312532,
      "d": 185.29402500003926,
      "v": 53
    },
    {
      "midi": 58,
      "hit": false,
      "t": 164974.18221875318,
      "d": 111.02935625001555,
      "v": 44
    },
    {
      "midi": 61,
      "hit": false,
      "t": 164980.7998625032,
      "d": 162.4999187500216,
      "v": 38
    },
    {
      "midi": 48,
      "hit": false,
      "t": 164991.0939750032,
      "d": 357.3527625000279,
      "v": 34
    },
    {
      "midi": 64,
      "hit": false,
      "t": 165000.6527937532,
      "d": 138.23522500001127,
      "v": 39
    },
    {
      "midi": 55,
      "hit": false,
      "t": 165002.1233812532,
      "d": 372.0586375000421,
      "v": 29
    },
    {
      "midi": 84,
      "hit": false,
      "t": 165376.38790000323,
      "d": 271.32339375000447,
      "v": 71
    },
    {
      "midi": 81,
      "hit": false,
      "t": 165853.59354375323,
      "d": 386.0292187499872,
      "v": 66
    },
    {
      "midi": 73,
      "hit": false,
      "t": 165855.79942500324,
      "d": 529.4114999999583,
      "v": 47
    },
    {
      "midi": 76,
      "hit": false,
      "t": 165861.68177500324,
      "d": 419.11743749998277,
      "v": 57
    },
    {
      "midi": 69,
      "hit": false,
      "t": 165863.15236250323,
      "d": 427.2056687499862,
      "v": 57
    },
    {
      "midi": 58,
      "hit": false,
      "t": 165872.71118125322,
      "d": 569.1173624999647,
      "v": 53
    },
    {
      "midi": 64,
      "hit": false,
      "t": 165881.53470625324,
      "d": 439.70566249996773,
      "v": 44
    },
    {
      "midi": 77,
      "hit": false,
      "t": 166595.5049375032,
      "d": 223.5293000000238,
      "v": 41
    },
    {
      "midi": 57,
      "hit": false,
      "t": 166602.1225812532,
      "d": 465.44094375002896,
      "v": 43
    },
    {
      "midi": 72,
      "hit": false,
      "t": 166605.7990500032,
      "d": 219.11753750001662,
      "v": 37
    },
    {
      "midi": 67,
      "hit": false,
      "t": 166606.5343437532,
      "d": 299.2645562500111,
      "v": 33
    },
    {
      "midi": 62,
      "hit": false,
      "t": 166610.94610625322,
      "d": 500.7350437500281,
      "v": 42
    },
    {
      "midi": 69,
      "hit": false,
      "t": 167097.71056875325,
      "d": 199.99989999999525,
      "v": 108
    },
    {
      "midi": 70,
      "hit": false,
      "t": 167344.76926875324,
      "d": 172.05873750001774,
      "v": 87
    },
    {
      "midi": 61,
      "hit": false,
      "t": 167347.71044375325,
      "d": 630.1467437499668,
      "v": 65
    },
    {
      "midi": 55,
      "hit": false,
      "t": 167348.44573750327,
      "d": 520.5879749999731,
      "v": 67
    },
    {
      "midi": 65,
      "hit": false,
      "t": 167354.32808750327,
      "d": 516.1762124999659,
      "v": 60
    },
    {
      "midi": 72,
      "hit": false,
      "t": 167570.50445000327,
      "d": 172.05873749998864,
      "v": 90
    },
    {
      "midi": 70,
      "hit": false,
      "t": 167787.41610625325,
      "d": 191.9116687499627,
      "v": 69
    },
    {
      "midi": 69,
      "hit": false,
      "t": 168040.35715625322,
      "d": 218.38224375000573,
      "v": 45
    },
    {
      "midi": 60,
      "hit": false,
      "t": 168048.44538750322,
      "d": 437.49978125002235,
      "v": 29
    },
    {
      "midi": 64,
      "hit": false,
      "t": 168058.00420625322,
      "d": 370.5880500000203,
      "v": 30
    },
    {
      "midi": 54,
      "hit": false,
      "t": 168060.21008750322,
      "d": 752.9408000000694,
      "v": 34
    },
    {
      "midi": 83,
      "hit": false,
      "t": 168463.15106250322,
      "d": 82.35290000002715,
      "v": 55
    },
    {
      "midi": 81,
      "hit": false,
      "t": 168463.88635625324,
      "d": 85.29407500001253,
      "v": 62
    },
    {
      "midi": 64,
      "hit": false,
      "t": 168702.12153125324,
      "d": 58.088206250045914,
      "v": 38
    },
    {
      "midi": 69,
      "hit": false,
      "t": 168708.73917500325,
      "d": 90.4411312500306,
      "v": 44
    },
    {
      "midi": 60,
      "hit": false,
      "t": 168715.35681875327,
      "d": 44.117625000013504,
      "v": 35
    },
    {
      "midi": 74,
      "hit": false,
      "t": 168941.82729375327,
      "d": 155.14698124999995,
      "v": 28
    },
    {
      "midi": 81,
      "hit": false,
      "t": 169104.32721250327,
      "d": 47.79409375000978,
      "v": 34
    },
    {
      "midi": 84,
      "hit": false,
      "t": 169266.09183750328,
      "d": 122.79405625001527,
      "v": 68
    },
    {
      "midi": 58,
      "hit": false,
      "t": 169426.3858750033,
      "d": 280.1469187500188,
      "v": 29
    },
    {
      "midi": 62,
      "hit": false,
      "t": 169433.0035187533,
      "d": 255.88222500000848,
      "v": 28
    },
    {
      "midi": 57,
      "hit": false,
      "t": 169449.1799812533,
      "d": 258.82339999999385,
      "v": 22
    },
    {
      "midi": 53,
      "hit": false,
      "t": 169452.8564500033,
      "d": 249.99987500000861,
      "v": 29
    },
    {
      "midi": 82,
      "hit": false,
      "t": 169456.5329187533,
      "d": 223.5292999999947,
      "v": 49
    },
    {
      "midi": 84,
      "hit": false,
      "t": 169897.7091687533,
      "d": 126.47052500001155,
      "v": 74
    },
    {
      "midi": 85,
      "hit": false,
      "t": 170110.9443562533,
      "d": 124.99993750004796,
      "v": 64
    },
    {
      "midi": 57,
      "hit": false,
      "t": 170124.91493750332,
      "d": 66.17643750002026,
      "v": 55
    },
    {
      "midi": 73,
      "hit": false,
      "t": 170127.85611250333,
      "d": 112.49994375003735,
      "v": 67
    },
    {
      "midi": 62,
      "hit": false,
      "t": 170130.06199375333,
      "d": 34.558806249988265,
      "v": 53
    },
    {
      "midi": 58,
      "hit": false,
      "t": 170139.62081250333,
      "d": 75.73525625001639,
      "v": 46
    },
    {
      "midi": 74,
      "hit": false,
      "t": 170263.15016250336,
      "d": 77.94113749999087,
      "v": 37
    },
    {
      "midi": 86,
      "hit": false,
      "t": 170358.00305625334,
      "d": 113.23523749999003,
      "v": 55
    },
    {
      "midi": 74,
      "hit": false,
      "t": 170460.20888750334,
      "d": 73.5293749999837,
      "v": 56
    },
    {
      "midi": 84,
      "hit": false,
      "t": 170615.3558687533,
      "d": 80.14701874999446,
      "v": 51
    },
    {
      "midi": 72,
      "hit": false,
      "t": 170633.0029187533,
      "d": 115.44111874999362,
      "v": 47
    },
    {
      "midi": 58,
      "hit": false,
      "t": 170835.2087000033,
      "d": 79.41172499998356,
      "v": 44
    },
    {
      "midi": 62,
      "hit": false,
      "t": 170836.6792875033,
      "d": 36.76468749999185,
      "v": 48
    },
    {
      "midi": 52,
      "hit": false,
      "t": 170859.4733937533,
      "d": 47.79409375000978,
      "v": 24
    },
    {
      "midi": 70,
      "hit": false,
      "t": 170896.9733750033,
      "d": 107.35288749999017,
      "v": 39
    },
    {
      "midi": 82,
      "hit": false,
      "t": 170986.67921250328,
      "d": 125.73523125000065,
      "v": 55
    },
    {
      "midi": 72,
      "hit": false,
      "t": 171165.35559375328,
      "d": 86.76466250000522,
      "v": 54
    },
    {
      "midi": 84,
      "hit": false,
      "t": 171255.0614312533,
      "d": 124.26464375000796,
      "v": 61
    },
    {
      "midi": 74,
      "hit": false,
      "t": 171550.64951875331,
      "d": 87.49995625001611,
      "v": 49
    },
    {
      "midi": 58,
      "hit": false,
      "t": 171586.67891250332,
      "d": 112.49994375000824,
      "v": 36
    },
    {
      "midi": 62,
      "hit": false,
      "t": 171590.35538125332,
      "d": 63.235262500005774,
      "v": 43
    },
    {
      "midi": 79,
      "hit": false,
      "t": 171597.7083187533,
      "d": 133.0881687500223,
      "v": 34
    },
    {
      "midi": 52,
      "hit": false,
      "t": 171610.9436062533,
      "d": 54.411737500020536,
      "v": 24
    },
    {
      "midi": 86,
      "hit": false,
      "t": 171617.56125000332,
      "d": 110.29406250000466,
      "v": 68
    },
    {
      "midi": 76,
      "hit": false,
      "t": 171869.76700625333,
      "d": 147.0587499999965,
      "v": 46
    },
    {
      "midi": 79,
      "hit": false,
      "t": 171934.47285625333,
      "d": 66.91173125000205,
      "v": 38
    },
    {
      "midi": 88,
      "hit": false,
      "t": 171958.73755000334,
      "d": 118.382293749979,
      "v": 70
    },
    {
      "midi": 77,
      "hit": false,
      "t": 172243.29623125333,
      "d": 152.20580625001458,
      "v": 44
    },
    {
      "midi": 58,
      "hit": false,
      "t": 172261.67857500335,
      "d": 230.88223749998724,
      "v": 36
    },
    {
      "midi": 67,
      "hit": false,
      "t": 172264.61975000336,
      "d": 204.41166249997332,
      "v": 35
    },
    {
      "midi": 89,
      "hit": false,
      "t": 172269.03151250337,
      "d": 147.7940437499783,
      "v": 58
    },
    {
      "midi": 63,
      "hit": false,
      "t": 172278.59033125336,
      "d": 208.0881312499696,
      "v": 33
    },
    {
      "midi": 62,
      "hit": false,
      "t": 172291.82561875336,
      "d": 183.08814374997746,
      "v": 34
    },
    {
      "midi": 89,
      "hit": false,
      "t": 172640.35485625334,
      "d": 199.99990000005346,
      "v": 71
    },
    {
      "midi": 67,
      "hit": false,
      "t": 172646.97250000335,
      "d": 187.49990625001374,
      "v": 64
    },
    {
      "midi": 77,
      "hit": false,
      "t": 172647.70779375336,
      "d": 183.08814375000657,
      "v": 62
    },
    {
      "midi": 84,
      "hit": false,
      "t": 172649.91367500336,
      "d": 194.8528437500354,
      "v": 70
    },
    {
      "midi": 58,
      "hit": false,
      "t": 172653.59014375336,
      "d": 183.82343750001746,
      "v": 58
    },
    {
      "midi": 62,
      "hit": false,
      "t": 172656.53131875338,
      "d": 184.55873125002836,
      "v": 57
    },
    {
      "midi": 63,
      "hit": false,
      "t": 172660.20778750337,
      "d": 193.3822562500427,
      "v": 45
    },
    {
      "midi": 58,
      "hit": false,
      "t": 172964.61940000343,
      "d": 144.11757500004023,
      "v": 69
    },
    {
      "midi": 67,
      "hit": false,
      "t": 172968.29586875343,
      "d": 157.35286250006175,
      "v": 66
    },
    {
      "midi": 63,
      "hit": false,
      "t": 172971.23704375344,
      "d": 184.55873125005746,
      "v": 59
    },
    {
      "midi": 89,
      "hit": false,
      "t": 172971.97233750345,
      "d": 147.0587500000256,
      "v": 71
    },
    {
      "midi": 62,
      "hit": false,
      "t": 172973.44292500344,
      "d": 169.85285625004326,
      "v": 66
    },
    {
      "midi": 77,
      "hit": false,
      "t": 172976.38410000346,
      "d": 104.4117125000048,
      "v": 69
    },
    {
      "midi": 84,
      "hit": false,
      "t": 172977.11939375347,
      "d": 145.58816250000382,
      "v": 76
    },
    {
      "midi": 91,
      "hit": false,
      "t": 173211.6781000035,
      "d": 105.8823000000557,
      "v": 79
    },
    {
      "midi": 63,
      "hit": false,
      "t": 173216.8251562535,
      "d": 321.32336875013425,
      "v": 62
    },
    {
      "midi": 62,
      "hit": false,
      "t": 173217.5604500035,
      "d": 323.52925000013784,
      "v": 59
    },
    {
      "midi": 67,
      "hit": false,
      "t": 173218.29574375352,
      "d": 107.35288750004838,
      "v": 64
    },
    {
      "midi": 86,
      "hit": false,
      "t": 173219.03103750353,
      "d": 102.20583125003031,
      "v": 74
    },
    {
      "midi": 79,
      "hit": false,
      "t": 173221.23691875354,
      "d": 87.49995625001611,
      "v": 71
    },
    {
      "midi": 58,
      "hit": false,
      "t": 173221.97221250355,
      "d": 104.4117125000339,
      "v": 68
    },
    {
      "midi": 89,
      "hit": false,
      "t": 173377.8544875036,
      "d": 142.64698750004754,
      "v": 59
    },
    {
      "midi": 58,
      "hit": false,
      "t": 173380.7956625036,
      "d": 138.23522500004037,
      "v": 59
    },
    {
      "midi": 67,
      "hit": false,
      "t": 173386.6780125036,
      "d": 129.41170000002603,
      "v": 57
    },
    {
      "midi": 77,
      "hit": false,
      "t": 173387.4133062536,
      "d": 99.99994999999763,
      "v": 51
    },
    {
      "midi": 84,
      "hit": false,
      "t": 173412.4132937536,
      "d": 102.94112500001211,
      "v": 30
    },
    {
      "midi": 85,
      "hit": false,
      "t": 173421.23681875362,
      "d": 91.17642499998328,
      "v": 26
    },
    {
      "midi": 91,
      "hit": false,
      "t": 173595.50143750364,
      "d": 113.97053125003004,
      "v": 76
    },
    {
      "midi": 58,
      "hit": false,
      "t": 173596.97202500363,
      "d": 135.294050000055,
      "v": 60
    },
    {
      "midi": 67,
      "hit": false,
      "t": 173600.64849375363,
      "d": 88.23525000002701,
      "v": 43
    },
    {
      "midi": 86,
      "hit": false,
      "t": 173604.32496250363,
      "d": 92.64701250003418,
      "v": 70
    },
    {
      "midi": 63,
      "hit": false,
      "t": 173607.26613750364,
      "d": 118.3822937500372,
      "v": 49
    },
    {
      "midi": 62,
      "hit": false,
      "t": 173610.94260625364,
      "d": 69.11761250000563,
      "v": 42
    },
    {
      "midi": 79,
      "hit": false,
      "t": 173616.08966250363,
      "d": 75.7352562500455,
      "v": 40
    },
    {
      "midi": 89,
      "hit": false,
      "t": 173781.5307562537,
      "d": 103.676418750023,
      "v": 60
    },
    {
      "midi": 84,
      "hit": false,
      "t": 173785.2072250037,
      "d": 95.58818750001956,
      "v": 61
    },
    {
      "midi": 67,
      "hit": false,
      "t": 173788.88369375368,
      "d": 149.999925000011,
      "v": 44
    },
    {
      "midi": 57,
      "hit": false,
      "t": 173789.6189875037,
      "d": 165.44109375000698,
      "v": 62
    },
    {
      "midi": 63,
      "hit": false,
      "t": 173792.5601625037,
      "d": 197.05872499998077,
      "v": 46
    },
    {
      "midi": 77,
      "hit": false,
      "t": 173796.2366312537,
      "d": 105.88229999999749,
      "v": 38
    },
    {
      "midi": 86,
      "hit": false,
      "t": 174019.0306375037,
      "d": 277.9410375000152,
      "v": 65
    },
    {
      "midi": 74,
      "hit": false,
      "t": 174024.9129875037,
      "d": 315.441018750018,
      "v": 51
    },
    {
      "midi": 80,
      "hit": false,
      "t": 174026.38357500368,
      "d": 183.82343750001746,
      "v": 55
    },
    {
      "midi": 63,
      "hit": false,
      "t": 174055.0600312537,
      "d": 292.6469125000003,
      "v": 36
    },
    {
      "midi": 67,
      "hit": false,
      "t": 174057.2659125037,
      "d": 259.55869375000475,
      "v": 42
    },
    {
      "midi": 57,
      "hit": false,
      "t": 174058.0012062537,
      "d": 260.29398749998654,
      "v": 44
    },
    {
      "midi": 81,
      "hit": false,
      "t": 174208.7364250037,
      "d": 67.64702499998384,
      "v": 24
    },
    {
      "midi": 84,
      "hit": false,
      "t": 174434.4716062537,
      "d": 344.1174750000064,
      "v": 62
    },
    {
      "midi": 80,
      "hit": false,
      "t": 174441.08925000372,
      "d": 341.9115937500028,
      "v": 50
    },
    {
      "midi": 72,
      "hit": false,
      "t": 174443.29513125372,
      "d": 363.97040625000955,
      "v": 43
    },
    {
      "midi": 63,
      "hit": false,
      "t": 174444.7657187537,
      "d": 446.3233062500076,
      "v": 44
    },
    {
      "midi": 67,
      "hit": false,
      "t": 174452.1186562537,
      "d": 350.73511875001714,
      "v": 44
    },
    {
      "midi": 57,
      "hit": false,
      "t": 174452.85395000371,
      "d": 406.61744375000126,
      "v": 46
    },
    {
      "midi": 78,
      "hit": false,
      "t": 174466.0892375037,
      "d": 62.49996874999488,
      "v": 32
    },
    {
      "midi": 60,
      "hit": false,
      "t": 175075.64775625372,
      "d": 272.05868750001537,
      "v": 41
    },
    {
      "midi": 62,
      "hit": false,
      "t": 175078.58893125373,
      "d": 297.7939687499893,
      "v": 42
    },
    {
      "midi": 77,
      "hit": false,
      "t": 175083.73598750372,
      "d": 216.91165625001304,
      "v": 44
    },
    {
      "midi": 72,
      "hit": false,
      "t": 175086.67716250374,
      "d": 191.17637500001,
      "v": 42
    },
    {
      "midi": 65,
      "hit": false,
      "t": 175091.82421875373,
      "d": 149.999925000011,
      "v": 32
    },
    {
      "midi": 55,
      "hit": false,
      "t": 175099.91245000373,
      "d": 247.05869999999413,
      "v": 36
    },
    {
      "midi": 65,
      "hit": false,
      "t": 175511.67695000372,
      "d": 129.41170000002603,
      "v": 54
    },
    {
      "midi": 79,
      "hit": false,
      "t": 175512.41224375373,
      "d": 125.73523125000065,
      "v": 66
    },
    {
      "midi": 62,
      "hit": false,
      "t": 175513.88283125372,
      "d": 148.5293375000183,
      "v": 49
    },
    {
      "midi": 55,
      "hit": false,
      "t": 175521.23576875372,
      "d": 133.0881687500223,
      "v": 43
    },
    {
      "midi": 60,
      "hit": false,
      "t": 175522.7063562537,
      "d": 142.64698750004754,
      "v": 45
    },
    {
      "midi": 74,
      "hit": false,
      "t": 175524.1769437537,
      "d": 128.67640625004424,
      "v": 66
    },
    {
      "midi": 67,
      "hit": false,
      "t": 175524.9122375037,
      "d": 91.17642500001239,
      "v": 64
    },
    {
      "midi": 62,
      "hit": false,
      "t": 175753.58859375375,
      "d": 59.558793749980396,
      "v": 44
    },
    {
      "midi": 81,
      "hit": false,
      "t": 175755.05918125375,
      "d": 72.79408125000191,
      "v": 66
    },
    {
      "midi": 65,
      "hit": false,
      "t": 175756.52976875374,
      "d": 36.76468749999185,
      "v": 53
    },
    {
      "midi": 60,
      "hit": false,
      "t": 175760.20623750373,
      "d": 41.17644999999902,
      "v": 38
    },
    {
      "midi": 74,
      "hit": false,
      "t": 175767.55917500373,
      "d": 27.941162500006612,
      "v": 49
    },
    {
      "midi": 55,
      "hit": false,
      "t": 175767.55917500373,
      "d": 46.32350625001709,
      "v": 33
    },
    {
      "midi": 84,
      "hit": false,
      "t": 176013.88258125374,
      "d": 42.64703750004992,
      "v": 73
    },
    {
      "midi": 62,
      "hit": false,
      "t": 176016.08846250374,
      "d": 33.08821875002468,
      "v": 53
    },
    {
      "midi": 60,
      "hit": false,
      "t": 176020.50022500375,
      "d": 36.76468750005006,
      "v": 42
    },
    {
      "midi": 65,
      "hit": false,
      "t": 176021.97081250374,
      "d": 30.147043750039302,
      "v": 50
    },
    {
      "midi": 77,
      "hit": false,
      "t": 176030.79433750376,
      "d": 38.23527500004275,
      "v": 42
    },
    {
      "midi": 72,
      "hit": false,
      "t": 176035.20610000376,
      "d": 34.55880625004647,
      "v": 31
    },
    {
      "midi": 82,
      "hit": false,
      "t": 176235.20600000382,
      "d": 99.99995000002673,
      "v": 71
    },
    {
      "midi": 62,
      "hit": false,
      "t": 176236.6765875038,
      "d": 33.08821875002468,
      "v": 40
    },
    {
      "midi": 70,
      "hit": false,
      "t": 176237.41188125382,
      "d": 95.58818750001956,
      "v": 69
    },
    {
      "midi": 55,
      "hit": false,
      "t": 176247.70599375383,
      "d": 86.76466250000522,
      "v": 35
    },
    {
      "midi": 53,
      "hit": false,
      "t": 176465.35294375385,
      "d": 371.3233437500312,
      "v": 38
    },
    {
      "midi": 81,
      "hit": false,
      "t": 176471.23529375385,
      "d": 426.4703750000335,
      "v": 64
    },
    {
      "midi": 55,
      "hit": false,
      "t": 176474.91176250385,
      "d": 353.6762937500316,
      "v": 44
    },
    {
      "midi": 62,
      "hit": false,
      "t": 176475.64705625386,
      "d": 418.3821437500301,
      "v": 50
    },
    {
      "midi": 69,
      "hit": false,
      "t": 176476.38235000387,
      "d": 602.9408750000002,
      "v": 55
    },
    {
      "midi": 74,
      "hit": false,
      "t": 176482.26470000387,
      "d": 569.8526562500047,
      "v": 54
    },
    {
      "midi": 58,
      "hit": false,
      "t": 176486.67646250388,
      "d": 389.7056875000126,
      "v": 48
    },
    {
      "midi": 77,
      "hit": false,
      "t": 176494.02940000387,
      "d": 423.52920000001905,
      "v": 42
    },
    {
      "midi": 61,
      "hit": false,
      "t": 177235.9407937539,
      "d": 385.2939250000927,
      "v": 48
    },
    {
      "midi": 73,
      "hit": false,
      "t": 177238.8819687539,
      "d": 400.7350937500887,
      "v": 50
    },
    {
      "midi": 76,
      "hit": false,
      "t": 177243.2937312539,
      "d": 338.9704187500465,
      "v": 47
    },
    {
      "midi": 79,
      "hit": false,
      "t": 177244.02902500393,
      "d": 341.1763000000501,
      "v": 52
    },
    {
      "midi": 67,
      "hit": false,
      "t": 177246.97020000394,
      "d": 369.8527562500385,
      "v": 62
    },
    {
      "midi": 58,
      "hit": false,
      "t": 177248.44078750393,
      "d": 457.3527125000546,
      "v": 51
    },
    {
      "midi": 64,
      "hit": false,
      "t": 177252.11725625393,
      "d": 325.735131250025,
      "v": 46
    },
    {
      "midi": 77,
      "hit": false,
      "t": 177931.52868125399,
      "d": 205.88225000005332,
      "v": 40
    },
    {
      "midi": 65,
      "hit": false,
      "t": 177938.88161875398,
      "d": 88.23525000002701,
      "v": 29
    },
    {
      "midi": 72,
      "hit": false,
      "t": 177941.822793754,
      "d": 171.32344375003595,
      "v": 43
    },
    {
      "midi": 62,
      "hit": false,
      "t": 177945.499262504,
      "d": 192.6469625000609,
      "v": 43
    },
    {
      "midi": 57,
      "hit": false,
      "t": 177946.234556254,
      "d": 134.558756250015,
      "v": 46
    },
    {
      "midi": 88,
      "hit": false,
      "t": 178402.11668125406,
      "d": 142.64698749998934,
      "v": 63
    },
    {
      "midi": 76,
      "hit": false,
      "t": 178403.58726875405,
      "d": 99.99994999999763,
      "v": 60
    },
    {
      "midi": 89,
      "hit": false,
      "t": 178682.99889375406,
      "d": 216.91165624998393,
      "v": 70
    },
    {
      "midi": 77,
      "hit": false,
      "t": 178684.46948125405,
      "d": 249.9998749999795,
      "v": 68
    },
    {
      "midi": 86,
      "hit": false,
      "t": 179108.73397500403,
      "d": 104.4117125000048,
      "v": 40
    },
    {
      "midi": 84,
      "hit": false,
      "t": 179110.93985625403,
      "d": 119.117587500019,
      "v": 43
    },
    {
      "midi": 72,
      "hit": false,
      "t": 179118.29279375402,
      "d": 116.91170625001541,
      "v": 29
    },
    {
      "midi": 74,
      "hit": false,
      "t": 179119.02808750403,
      "d": 108.82347500001197,
      "v": 33
    },
    {
      "midi": 57,
      "hit": false,
      "t": 179166.82218125404,
      "d": 42.64703749999171,
      "v": 18
    },
    {
      "midi": 57,
      "hit": false,
      "t": 179404.32206250404,
      "d": 422.79390625000815,
      "v": 34
    },
    {
      "midi": 62,
      "hit": false,
      "t": 179408.73382500405,
      "d": 417.6468499999901,
      "v": 34
    },
    {
      "midi": 58,
      "hit": false,
      "t": 179421.96911250404,
      "d": 436.76448750001146,
      "v": 48
    },
    {
      "midi": 53,
      "hit": false,
      "t": 179425.64558125404,
      "d": 447.0586000000185,
      "v": 18
    },
    {
      "midi": 81,
      "hit": false,
      "t": 179474.91026250404,
      "d": 318.38219375000335,
      "v": 8
    },
    {
      "midi": 74,
      "hit": false,
      "t": 179485.93966875403,
      "d": 361.76452500003506,
      "v": 9
    },
    {
      "midi": 69,
      "hit": false,
      "t": 179519.02788750402,
      "d": 362.49981875004596,
      "v": 17
    },
    {
      "midi": 62,
      "hit": false,
      "t": 180074.17466875407,
      "d": 397.0586250000342,
      "v": 47
    },
    {
      "midi": 58,
      "hit": false,
      "t": 180077.85113750407,
      "d": 363.23511250002775,
      "v": 35
    },
    {
      "midi": 73,
      "hit": false,
      "t": 180079.32172500406,
      "d": 334.55865625003935,
      "v": 29
    },
    {
      "midi": 67,
      "hit": false,
      "t": 180080.05701875407,
      "d": 355.1468812500243,
      "v": 34
    },
    {
      "midi": 76,
      "hit": false,
      "t": 180081.52760625407,
      "d": 301.47043750001467,
      "v": 36
    },
    {
      "midi": 79,
      "hit": false,
      "t": 180082.26290000408,
      "d": 267.6469250000082,
      "v": 34
    },
    {
      "midi": 52,
      "hit": false,
      "t": 180102.8511250041,
      "d": 292.6469125000003,
      "v": 33
    },
    {
      "midi": 55,
      "hit": false,
      "t": 180588.8802937541,
      "d": 86.76466250000522,
      "v": 31
    },
    {
      "midi": 58,
      "hit": false,
      "t": 180637.4096812541,
      "d": 91.91171874999418,
      "v": 52
    },
    {
      "midi": 57,
      "hit": false,
      "t": 180649.9096750041,
      "d": 37.49998125000275,
      "v": 47
    },
    {
      "midi": 59,
      "hit": false,
      "t": 180691.0861250041,
      "d": 88.2352499999688,
      "v": 48
    },
    {
      "midi": 76,
      "hit": false,
      "t": 180740.35080625408,
      "d": 616.9114562499744,
      "v": 79
    },
    {
      "midi": 65,
      "hit": false,
      "t": 180745.49786250407,
      "d": 588.9702937499969,
      "v": 87
    },
    {
      "midi": 60,
      "hit": false,
      "t": 180746.23315625408,
      "d": 694.8525937499653,
      "v": 73
    },
    {
      "midi": 72,
      "hit": false,
      "t": 180746.9684500041,
      "d": 634.5585062499449,
      "v": 71
    },
    {
      "midi": 69,
      "hit": false,
      "t": 180750.6449187541,
      "d": 617.6467499999562,
      "v": 74
    },
    {
      "midi": 74,
      "hit": false,
      "t": 181461.67397500406,
      "d": 315.44101874998887,
      "v": 66
    },
    {
      "midi": 65,
      "hit": false,
      "t": 181465.35044375405,
      "d": 385.2939249999763,
      "v": 65
    },
    {
      "midi": 69,
      "hit": false,
      "t": 181473.43867500406,
      "d": 313.2351374999853,
      "v": 66
    },
    {
      "midi": 58,
      "hit": false,
      "t": 181486.67396250405,
      "d": 34.558806249988265,
      "v": 46
    },
    {
      "midi": 53,
      "hit": false,
      "t": 181966.82078125403,
      "d": 188.23519999999553,
      "v": 24
    },
    {
      "midi": 58,
      "hit": false,
      "t": 182186.67361250403,
      "d": 480.88211249999586,
      "v": 55
    },
    {
      "midi": 69,
      "hit": false,
      "t": 182194.02655000403,
      "d": 518.3820937499986,
      "v": 42
    },
    {
      "midi": 57,
      "hit": false,
      "t": 182196.23243125403,
      "d": 416.9115562500083,
      "v": 52
    },
    {
      "midi": 62,
      "hit": false,
      "t": 182205.05595625404,
      "d": 433.823312499997,
      "v": 50
    },
    {
      "midi": 65,
      "hit": false,
      "t": 182214.61477500404,
      "d": 409.55861874998664,
      "v": 40
    },
    {
      "midi": 58,
      "hit": false,
      "t": 182920.49677500402,
      "d": 112.49994375000824,
      "v": 46
    },
    {
      "midi": 67,
      "hit": false,
      "t": 182922.70265625403,
      "d": 197.79401874999166,
      "v": 47
    },
    {
      "midi": 55,
      "hit": false,
      "t": 182927.11441875403,
      "d": 152.20580624998547,
      "v": 40
    },
    {
      "midi": 61,
      "hit": false,
      "t": 182934.46735625403,
      "d": 186.76461250000284,
      "v": 36
    },
    {
      "midi": 64,
      "hit": false,
      "t": 182960.93793125404,
      "d": 175.7352062499849,
      "v": 33
    },
    {
      "midi": 79,
      "hit": false,
      "t": 183591.81996875402,
      "d": 415.4409687499865,
      "v": 60
    },
    {
      "midi": 67,
      "hit": false,
      "t": 183597.70231875402,
      "d": 381.61745624998,
      "v": 55
    },
    {
      "midi": 62,
      "hit": false,
      "t": 183599.172906254,
      "d": 396.3233312499942,
      "v": 43
    },
    {
      "midi": 74,
      "hit": false,
      "t": 183599.90820000402,
      "d": 424.26449375000084,
      "v": 54
    },
    {
      "midi": 57,
      "hit": false,
      "t": 183605.79055000402,
      "d": 432.3527250000043,
      "v": 28
    },
    {
      "midi": 58,
      "hit": false,
      "t": 183607.261137504,
      "d": 426.4703750000044,
      "v": 40
    },
    {
      "midi": 53,
      "hit": false,
      "t": 183612.408193754,
      "d": 401.4703875000123,
      "v": 28
    },
    {
      "midi": 81,
      "hit": false,
      "t": 184104.31971250402,
      "d": 249.99987500009593,
      "v": 64
    },
    {
      "midi": 74,
      "hit": false,
      "t": 184105.05500625403,
      "d": 208.0881312500569,
      "v": 51
    },
    {
      "midi": 62,
      "hit": false,
      "t": 184119.76088125404,
      "d": 166.91168125002878,
      "v": 51
    },
    {
      "midi": 58,
      "hit": false,
      "t": 184120.49617500405,
      "d": 179.4116750000394,
      "v": 46
    },
    {
      "midi": 69,
      "hit": false,
      "t": 184121.23146875406,
      "d": 174.26461875002133,
      "v": 49
    },
    {
      "midi": 53,
      "hit": false,
      "t": 184124.17264375408,
      "d": 202.20578125002794,
      "v": 26
    },
    {
      "midi": 57,
      "hit": false,
      "t": 184131.52558125407,
      "d": 188.23520000002463,
      "v": 42
    },
    {
      "midi": 84,
      "hit": false,
      "t": 184630.79003750414,
      "d": 291.91161875004764,
      "v": 71
    },
    {
      "midi": 62,
      "hit": false,
      "t": 184631.52533125415,
      "d": 272.05868750001537,
      "v": 57
    },
    {
      "midi": 57,
      "hit": false,
      "t": 184635.20180000414,
      "d": 283.8233875000442,
      "v": 38
    },
    {
      "midi": 58,
      "hit": false,
      "t": 184638.14297500416,
      "d": 291.91161875001853,
      "v": 48
    },
    {
      "midi": 72,
      "hit": false,
      "t": 184642.55473750416,
      "d": 236.7645875000162,
      "v": 55
    },
    {
      "midi": 77,
      "hit": false,
      "t": 184644.76061875417,
      "d": 265.4410437500046,
      "v": 51
    },
    {
      "midi": 53,
      "hit": false,
      "t": 184645.49591250418,
      "d": 263.9704562499828,
      "v": 41
    },
    {
      "midi": 81,
      "hit": false,
      "t": 184648.4370875042,
      "d": 288.23514999999315,
      "v": 45
    },
    {
      "midi": 84,
      "hit": false,
      "t": 184998.43691250417,
      "d": 458.0880062500364,
      "v": 63
    },
    {
      "midi": 81,
      "hit": false,
      "t": 185003.58396875416,
      "d": 463.9703562500363,
      "v": 40
    },
    {
      "midi": 77,
      "hit": false,
      "t": 185005.78985000416,
      "d": 482.35270000001765,
      "v": 53
    },
    {
      "midi": 72,
      "hit": false,
      "t": 185006.52514375417,
      "d": 438.97036875004414,
      "v": 54
    },
    {
      "midi": 58,
      "hit": false,
      "t": 185008.73102500418,
      "d": 510.29386249999516,
      "v": 52
    },
    {
      "midi": 53,
      "hit": false,
      "t": 185010.93690625418,
      "d": 491.1762250000029,
      "v": 46
    },
    {
      "midi": 62,
      "hit": false,
      "t": 185011.6722000042,
      "d": 471.3232937499997,
      "v": 49
    },
    {
      "midi": 57,
      "hit": false,
      "t": 185018.2898437542,
      "d": 505.1468062499771,
      "v": 37
    },
    {
      "midi": 82,
      "hit": false,
      "t": 185698.43656250418,
      "d": 427.2056687500444,
      "v": 57
    },
    {
      "midi": 62,
      "hit": false,
      "t": 185708.7306750042,
      "d": 438.97036875004414,
      "v": 43
    },
    {
      "midi": 70,
      "hit": false,
      "t": 185713.87773125418,
      "d": 349.99982500003534,
      "v": 43
    },
    {
      "midi": 58,
      "hit": false,
      "t": 185716.08361250418,
      "d": 523.5291500000458,
      "v": 40
    },
    {
      "midi": 57,
      "hit": false,
      "t": 185716.8189062542,
      "d": 513.2350375000387,
      "v": 32
    },
    {
      "midi": 77,
      "hit": false,
      "t": 185721.2306687542,
      "d": 356.617468750017,
      "v": 42
    },
    {
      "midi": 53,
      "hit": false,
      "t": 185731.5247812542,
      "d": 523.5291500000167,
      "v": 31
    },
    {
      "midi": 86,
      "hit": false,
      "t": 186397.7009187542,
      "d": 663.9702562500606,
      "v": 72
    },
    {
      "midi": 74,
      "hit": false,
      "t": 186399.90680000422,
      "d": 661.764375000057,
      "v": 74
    },
    {
      "midi": 82,
      "hit": false,
      "t": 186400.64209375423,
      "d": 698.5290625000489,
      "v": 60
    },
    {
      "midi": 58,
      "hit": false,
      "t": 186401.37738750424,
      "d": 258.82340000002296,
      "v": 55
    },
    {
      "midi": 79,
      "hit": false,
      "t": 186407.25973750424,
      "d": 647.7937937500246,
      "v": 63
    },
    {
      "midi": 62,
      "hit": false,
      "t": 186407.99503125425,
      "d": 219.11753750001662,
      "v": 63
    },
    {
      "midi": 52,
      "hit": false,
      "t": 186412.40679375426,
      "d": 276.47044999999343,
      "v": 56
    },
    {
      "midi": 36,
      "hit": false,
      "t": 187071.96528750428,
      "d": 72.79408125000191,
      "v": 62
    },
    {
      "midi": 76,
      "hit": false,
      "t": 187791.0825750043,
      "d": 954.4112875000283,
      "v": 66
    },
    {
      "midi": 73,
      "hit": false,
      "t": 187799.9061000043,
      "d": 938.2348250000214,
      "v": 47
    },
    {
      "midi": 68,
      "hit": false,
      "t": 187803.5825687543,
      "d": 861.0289812500123,
      "v": 59
    },
    {
      "midi": 64,
      "hit": false,
      "t": 187804.3178625043,
      "d": 797.7937187500065,
      "v": 70
    },
    {
      "midi": 58,
      "hit": false,
      "t": 187810.2002125043,
      "d": 502.2056312500208,
      "v": 53
    },
    {
      "midi": 61,
      "hit": false,
      "t": 187812.4060937543,
      "d": 477.9409375000105,
      "v": 55
    },
    {
      "midi": 77,
      "hit": false,
      "t": 189227.1112687543,
      "d": 196.32343125002808,
      "v": 48
    },
    {
      "midi": 41,
      "hit": false,
      "t": 189229.3171500043,
      "d": 169.11756250003236,
      "v": 29
    },
    {
      "midi": 72,
      "hit": false,
      "t": 189231.5230312543,
      "d": 144.11757500004023,
      "v": 46
    },
    {
      "midi": 67,
      "hit": false,
      "t": 189235.9347937543,
      "d": 77.94113750001998,
      "v": 35
    },
    {
      "midi": 48,
      "hit": false,
      "t": 189240.3465562543,
      "d": 189.70578750001732,
      "v": 37
    },
    {
      "midi": 57,
      "hit": false,
      "t": 189254.31713750432,
      "d": 228.67635625001276,
      "v": 42
    },
    {
      "midi": 86,
      "hit": false,
      "t": 189790.34628125431,
      "d": 208.8234250000096,
      "v": 47
    },
    {
      "midi": 62,
      "hit": false,
      "t": 189860.9344812543,
      "d": 161.7646250000107,
      "v": 22
    },
    {
      "midi": 69,
      "hit": false,
      "t": 190092.5520125043,
      "d": 207.3528374999878,
      "v": 43
    },
    {
      "midi": 93,
      "hit": false,
      "t": 190096.2284812543,
      "d": 211.02930624998407,
      "v": 41
    },
    {
      "midi": 91,
      "hit": false,
      "t": 190100.64024375431,
      "d": 93.38230624998687,
      "v": 39
    },
    {
      "midi": 67,
      "hit": false,
      "t": 190317.5519000043,
      "d": 116.91170625001541,
      "v": 44
    },
    {
      "midi": 91,
      "hit": false,
      "t": 190325.6401312543,
      "d": 156.61756875002175,
      "v": 35
    },
    {
      "midi": 74,
      "hit": false,
      "t": 190549.16943125433,
      "d": 184.55873125002836,
      "v": 47
    },
    {
      "midi": 96,
      "hit": false,
      "t": 190555.78707500434,
      "d": 163.9705062500143,
      "v": 57
    },
    {
      "midi": 69,
      "hit": false,
      "t": 190772.69873125435,
      "d": 39.70586250000633,
      "v": 32
    },
    {
      "midi": 93,
      "hit": false,
      "t": 190799.90460000435,
      "d": 63.97055625001667,
      "v": 31
    },
    {
      "midi": 79,
      "hit": false,
      "t": 190985.93391875437,
      "d": 133.0881687499641,
      "v": 54
    },
    {
      "midi": 105,
      "hit": false,
      "t": 190987.40450625436,
      "d": 107.35288749999017,
      "v": 33
    },
    {
      "midi": 103,
      "hit": false,
      "t": 191004.31626250435,
      "d": 95.58818749999045,
      "v": 30
    },
    {
      "midi": 98,
      "hit": false,
      "t": 191152.84560000434,
      "d": 144.11757500001113,
      "v": 43
    },
    {
      "midi": 74,
      "hit": false,
      "t": 191161.66912500435,
      "d": 133.0881687499932,
      "v": 38
    },
    {
      "midi": 76,
      "hit": false,
      "t": 191310.19846250434,
      "d": 102.20583125000121,
      "v": 43
    },
    {
      "midi": 100,
      "hit": false,
      "t": 191330.05139375434,
      "d": 86.02936874999432,
      "v": 43
    },
    {
      "midi": 108,
      "hit": false,
      "t": 191508.72777500434,
      "d": 141.17639999999665,
      "v": 53
    },
    {
      "midi": 83,
      "hit": false,
      "t": 191525.63953125433,
      "d": 35.29409999999916,
      "v": 45
    },
    {
      "midi": 103,
      "hit": false,
      "t": 191677.11004375434,
      "d": 138.23522500001127,
      "v": 57
    },
    {
      "midi": 79,
      "hit": false,
      "t": 191685.93356875435,
      "d": 165.44109375000698,
      "v": 44
    },
    {
      "midi": 105,
      "hit": false,
      "t": 191852.10995625437,
      "d": 129.41169999999693,
      "v": 58
    },
    {
      "midi": 81,
      "hit": false,
      "t": 191867.55112500436,
      "d": 113.23523749999003,
      "v": 33
    },
    {
      "midi": 100,
      "hit": false,
      "t": 192005.78635000437,
      "d": 186.02931874999194,
      "v": 55
    },
    {
      "midi": 76,
      "hit": false,
      "t": 192007.25693750437,
      "d": 562.499718749983,
      "v": 44
    },
    {
      "midi": 81,
      "hit": false,
      "t": 192459.46259375438,
      "d": 40.441156249988126,
      "v": 41
    }
  ]
}