{
  "jsonPath": "Classical/Classical Performance/Philadelphia Orchestra/romeo-and-juliet-ballet-op-64-suite-2.json",
  "path": "Classical\\Classical Performance\\Philadelphia Orchestra\\Romeo And Juliet Ballet Op 64 Suite 2.mid",
  "name": "Romeo And Juliet Ballet Op 64 Suite 2",
  "difficulty": "Advanced",
  "bpm": 130.00041166797027,
  "notes": [
    {
      "midi": 62,
      "hit": false,
      "t": 0,
      "d": 223.07621666666668,
      "v": 98
    },
    {
      "midi": 62,
      "hit": false,
      "t": 461.53700000000003,
      "d": 223.0762166666667,
      "v": 84
    },
    {
      "midi": 62,
      "hit": false,
      "t": 923.0740000000001,
      "d": 223.0762166666666,
      "v": 84
    },
    {
      "midi": 62,
      "hit": false,
      "t": 1384.611,
      "d": 223.0762166666666,
      "v": 84
    },
    {
      "midi": 66,
      "hit": false,
      "t": 1384.611,
      "d": 223.0762166666666,
      "v": 84
    },
    {
      "midi": 62,
      "hit": false,
      "t": 1846.1480000000001,
      "d": 223.07621666666682,
      "v": 84
    },
    {
      "midi": 66,
      "hit": false,
      "t": 1846.1480000000001,
      "d": 223.07621666666682,
      "v": 84
    },
    {
      "midi": 69,
      "hit": false,
      "t": 1846.1480000000001,
      "d": 223.07621666666682,
      "v": 84
    },
    {
      "midi": 62,
      "hit": false,
      "t": 2307.6850000000004,
      "d": 223.07621666666682,
      "v": 84
    },
    {
      "midi": 66,
      "hit": false,
      "t": 2307.6850000000004,
      "d": 223.07621666666682,
      "v": 84
    },
    {
      "midi": 69,
      "hit": false,
      "t": 2307.6850000000004,
      "d": 223.07621666666682,
      "v": 84
    },
    {
      "midi": 62,
      "hit": false,
      "t": 2769.2220000000007,
      "d": 223.07621666666682,
      "v": 88
    },
    {
      "midi": 66,
      "hit": false,
      "t": 2769.2220000000007,
      "d": 223.07621666666682,
      "v": 88
    },
    {
      "midi": 69,
      "hit": false,
      "t": 2769.2220000000007,
      "d": 223.07621666666682,
      "v": 88
    },
    {
      "midi": 57,
      "hit": false,
      "t": 3230.759,
      "d": 223.07621666666682,
      "v": 88
    },
    {
      "midi": 66,
      "hit": false,
      "t": 3230.759000000001,
      "d": 223.07621666666682,
      "v": 88
    },
    {
      "midi": 69,
      "hit": false,
      "t": 3230.759000000001,
      "d": 223.07621666666682,
      "v": 88
    },
    {
      "midi": 62,
      "hit": false,
      "t": 3461.5275,
      "d": 223.07621666666682,
      "v": 88
    },
    {
      "midi": 66,
      "hit": false,
      "t": 3692.2960000000003,
      "d": 223.07621666666682,
      "v": 96
    },
    {
      "midi": 67,
      "hit": false,
      "t": 3692.296000000001,
      "d": 223.07621666666682,
      "v": 88
    },
    {
      "midi": 69,
      "hit": false,
      "t": 3692.296000000001,
      "d": 223.07621666666682,
      "v": 88
    },
    {
      "midi": 66,
      "hit": false,
      "t": 4153.8330000000005,
      "d": 223.07621666666637,
      "v": 88
    },
    {
      "midi": 67,
      "hit": false,
      "t": 4153.833000000001,
      "d": 223.07621666666637,
      "v": 88
    },
    {
      "midi": 69,
      "hit": false,
      "t": 4153.833000000001,
      "d": 223.07621666666637,
      "v": 88
    },
    {
      "midi": 64,
      "hit": false,
      "t": 4384.601500000001,
      "d": 223.07621666666637,
      "v": 88
    },
    {
      "midi": 66,
      "hit": false,
      "t": 4615.370000000001,
      "d": 223.07621666666637,
      "v": 88
    },
    {
      "midi": 69,
      "hit": false,
      "t": 4615.370000000001,
      "d": 223.07621666666637,
      "v": 88
    },
    {
      "midi": 62,
      "hit": false,
      "t": 4615.370000000001,
      "d": 223.07621666666637,
      "v": 96
    },
    {
      "midi": 66,
      "hit": false,
      "t": 5076.907,
      "d": 223.07621666666637,
      "v": 88
    },
    {
      "midi": 69,
      "hit": false,
      "t": 5076.907,
      "d": 223.07621666666637,
      "v": 88
    },
    {
      "midi": 57,
      "hit": false,
      "t": 5076.907,
      "d": 223.07621666666637,
      "v": 88
    },
    {
      "midi": 62,
      "hit": false,
      "t": 5307.6755,
      "d": 223.07621666666637,
      "v": 88
    },
    {
      "midi": 67,
      "hit": false,
      "t": 5538.4439999999995,
      "d": 223.07621666666637,
      "v": 88
    },
    {
      "midi": 69,
      "hit": false,
      "t": 5538.4439999999995,
      "d": 223.07621666666637,
      "v": 88
    },
    {
      "midi": 66,
      "hit": false,
      "t": 5538.444,
      "d": 223.07621666666637,
      "v": 96
    },
    {
      "midi": 67,
      "hit": false,
      "t": 5999.980999999999,
      "d": 223.07621666666637,
      "v": 88
    },
    {
      "midi": 69,
      "hit": false,
      "t": 5999.980999999999,
      "d": 223.07621666666637,
      "v": 88
    },
    {
      "midi": 66,
      "hit": false,
      "t": 5999.981,
      "d": 223.07621666666637,
      "v": 88
    },
    {
      "midi": 64,
      "hit": false,
      "t": 6230.7495,
      "d": 223.07621666666637,
      "v": 88
    },
    {
      "midi": 66,
      "hit": false,
      "t": 6461.517999999998,
      "d": 223.07621666666637,
      "v": 88
    },
    {
      "midi": 69,
      "hit": false,
      "t": 6461.517999999998,
      "d": 223.07621666666637,
      "v": 88
    },
    {
      "midi": 62,
      "hit": false,
      "t": 6461.518,
      "d": 223.07621666666637,
      "v": 96
    },
    {
      "midi": 66,
      "hit": false,
      "t": 6923.054999999998,
      "d": 223.07621666666637,
      "v": 88
    },
    {
      "midi": 69,
      "hit": false,
      "t": 6923.054999999998,
      "d": 223.07621666666637,
      "v": 88
    },
    {
      "midi": 57,
      "hit": false,
      "t": 6923.054999999999,
      "d": 223.07621666666637,
      "v": 88
    },
    {
      "midi": 62,
      "hit": false,
      "t": 7153.8234999999995,
      "d": 223.07621666666637,
      "v": 88
    },
    {
      "midi": 67,
      "hit": false,
      "t": 7384.591999999997,
      "d": 223.07621666666637,
      "v": 88
    },
    {
      "midi": 69,
      "hit": false,
      "t": 7384.591999999997,
      "d": 223.07621666666637,
      "v": 88
    },
    {
      "midi": 66,
      "hit": false,
      "t": 7384.592,
      "d": 223.07621666666637,
      "v": 96
    },
    {
      "midi": 67,
      "hit": false,
      "t": 7846.128999999996,
      "d": 223.07621666666637,
      "v": 88
    },
    {
      "midi": 69,
      "hit": false,
      "t": 7846.128999999996,
      "d": 223.07621666666637,
      "v": 88
    },
    {
      "midi": 66,
      "hit": false,
      "t": 7846.128999999999,
      "d": 223.07621666666637,
      "v": 88
    },
    {
      "midi": 65,
      "hit": false,
      "t": 8076.897499999999,
      "d": 684.6132166666666,
      "v": 96
    },
    {
      "midi": 67,
      "hit": false,
      "t": 8307.665999999996,
      "d": 223.07621666666637,
      "v": 88
    },
    {
      "midi": 69,
      "hit": false,
      "t": 8307.665999999996,
      "d": 223.07621666666637,
      "v": 88
    },
    {
      "midi": 67,
      "hit": false,
      "t": 8769.202999999996,
      "d": 223.07621666666637,
      "v": 88
    },
    {
      "midi": 69,
      "hit": false,
      "t": 8769.202999999996,
      "d": 223.07621666666637,
      "v": 88
    },
    {
      "midi": 66,
      "hit": false,
      "t": 8769.203,
      "d": 223.07621666666637,
      "v": 88
    },
    {
      "midi": 64,
      "hit": false,
      "t": 8999.9715,
      "d": 223.07621666666637,
      "v": 88
    },
    {
      "midi": 66,
      "hit": false,
      "t": 9230.739999999996,
      "d": 223.07621666666637,
      "v": 88
    },
    {
      "midi": 69,
      "hit": false,
      "t": 9230.739999999996,
      "d": 223.07621666666637,
      "v": 88
    },
    {
      "midi": 62,
      "hit": false,
      "t": 9230.74,
      "d": 1838.4557166666673,
      "v": 96
    },
    {
      "midi": 66,
      "hit": false,
      "t": 9692.276999999996,
      "d": 223.07621666666637,
      "v": 88
    },
    {
      "midi": 69,
      "hit": false,
      "t": 9692.276999999996,
      "d": 223.07621666666637,
      "v": 88
    },
    {
      "midi": 66,
      "hit": false,
      "t": 10153.813999999997,
      "d": 223.07621666666637,
      "v": 84
    },
    {
      "midi": 69,
      "hit": false,
      "t": 10153.813999999997,
      "d": 223.07621666666637,
      "v": 84
    },
    {
      "midi": 66,
      "hit": false,
      "t": 10615.350999999997,
      "d": 223.07621666666637,
      "v": 84
    },
    {
      "midi": 69,
      "hit": false,
      "t": 10615.350999999997,
      "d": 223.07621666666637,
      "v": 94
    },
    {
      "midi": 74,
      "hit": false,
      "t": 10846.119499999997,
      "d": 223.07621666666637,
      "v": 84
    },
    {
      "midi": 78,
      "hit": false,
      "t": 11076.887999999997,
      "d": 223.07621666666637,
      "v": 96
    },
    {
      "midi": 62,
      "hit": false,
      "t": 11076.888,
      "d": 223.07621666666637,
      "v": 84
    },
    {
      "midi": 66,
      "hit": false,
      "t": 11076.888,
      "d": 223.07621666666637,
      "v": 84
    },
    {
      "midi": 69,
      "hit": false,
      "t": 11076.888,
      "d": 223.07621666666637,
      "v": 84
    },
    {
      "midi": 78,
      "hit": false,
      "t": 11538.424999999997,
      "d": 223.07621666666637,
      "v": 84
    },
    {
      "midi": 62,
      "hit": false,
      "t": 11538.425000000001,
      "d": 223.07621666666637,
      "v": 84
    },
    {
      "midi": 66,
      "hit": false,
      "t": 11538.425000000001,
      "d": 223.07621666666637,
      "v": 84
    },
    {
      "midi": 69,
      "hit": false,
      "t": 11538.425000000001,
      "d": 223.07621666666637,
      "v": 84
    },
    {
      "midi": 78,
      "hit": false,
      "t": 11769.193499999998,
      "d": 223.07621666666637,
      "v": 84
    },
    {
      "midi": 83,
      "hit": false,
      "t": 11999.961999999998,
      "d": 223.07621666666637,
      "v": 96
    },
    {
      "midi": 62,
      "hit": false,
      "t": 11999.962000000001,
      "d": 223.07621666666637,
      "v": 84
    },
    {
      "midi": 67,
      "hit": false,
      "t": 11999.962000000001,
      "d": 223.07621666666637,
      "v": 84
    },
    {
      "midi": 71,
      "hit": false,
      "t": 11999.962000000001,
      "d": 223.07621666666637,
      "v": 84
    },
    {
      "midi": 78,
      "hit": false,
      "t": 12461.498999999998,
      "d": 223.07621666666637,
      "v": 84
    },
    {
      "midi": 62,
      "hit": false,
      "t": 12461.499000000002,
      "d": 223.07621666666637,
      "v": 84
    },
    {
      "midi": 67,
      "hit": false,
      "t": 12461.499000000002,
      "d": 223.07621666666637,
      "v": 84
    },
    {
      "midi": 71,
      "hit": false,
      "t": 12461.499000000002,
      "d": 223.07621666666637,
      "v": 84
    },
    {
      "midi": 76,
      "hit": false,
      "t": 12692.267499999998,
      "d": 223.07621666666637,
      "v": 84
    },
    {
      "midi": 78,
      "hit": false,
      "t": 12923.035999999998,
      "d": 223.07621666666637,
      "v": 96
    },
    {
      "midi": 62,
      "hit": false,
      "t": 12923.036000000002,
      "d": 223.07621666666637,
      "v": 84
    },
    {
      "midi": 66,
      "hit": false,
      "t": 12923.036000000002,
      "d": 223.07621666666637,
      "v": 84
    },
    {
      "midi": 69,
      "hit": false,
      "t": 12923.036000000002,
      "d": 223.07621666666637,
      "v": 84
    },
    {
      "midi": 78,
      "hit": false,
      "t": 13384.572999999999,
      "d": 223.07621666666637,
      "v": 84
    },
    {
      "midi": 62,
      "hit": false,
      "t": 13384.573000000002,
      "d": 223.07621666666637,
      "v": 84
    },
    {
      "midi": 66,
      "hit": false,
      "t": 13384.573000000002,
      "d": 223.07621666666637,
      "v": 84
    },
    {
      "midi": 69,
      "hit": false,
      "t": 13384.573000000002,
      "d": 223.07621666666637,
      "v": 84
    },
    {
      "midi": 78,
      "hit": false,
      "t": 13615.341499999999,
      "d": 223.07621666666637,
      "v": 84
    },
    {
      "midi": 83,
      "hit": false,
      "t": 13846.109999999999,
      "d": 223.07621666666637,
      "v": 96
    },
    {
      "midi": 62,
      "hit": false,
      "t": 13846.110000000002,
      "d": 223.07621666666637,
      "v": 84
    },
    {
      "midi": 67,
      "hit": false,
      "t": 13846.110000000002,
      "d": 223.07621666666637,
      "v": 84
    },
    {
      "midi": 71,
      "hit": false,
      "t": 13846.110000000002,
      "d": 223.07621666666637,
      "v": 84
    },
    {
      "midi": 78,
      "hit": false,
      "t": 14307.646999999999,
      "d": 223.07621666666637,
      "v": 84
    },
    {
      "midi": 62,
      "hit": false,
      "t": 14307.647000000003,
      "d": 223.07621666666637,
      "v": 84
    },
    {
      "midi": 67,
      "hit": false,
      "t": 14307.647000000003,
      "d": 223.07621666666637,
      "v": 84
    },
    {
      "midi": 71,
      "hit": false,
      "t": 14307.647000000003,
      "d": 223.07621666666637,
      "v": 84
    },
    {
      "midi": 76,
      "hit": false,
      "t": 14538.4155,
      "d": 223.07621666666637,
      "v": 84
    },
    {
      "midi": 74,
      "hit": false,
      "t": 14769.184,
      "d": 223.07621666666637,
      "v": 84
    },
    {
      "midi": 62,
      "hit": false,
      "t": 14769.184000000003,
      "d": 223.07621666666637,
      "v": 84
    },
    {
      "midi": 66,
      "hit": false,
      "t": 14769.184000000003,
      "d": 223.07621666666637,
      "v": 84
    },
    {
      "midi": 69,
      "hit": false,
      "t": 14769.184000000003,
      "d": 223.07621666666637,
      "v": 84
    },
    {
      "midi": 78,
      "hit": false,
      "t": 14999.9525,
      "d": 223.07621666666637,
      "v": 84
    },
    {
      "midi": 83,
      "hit": false,
      "t": 15230.721,
      "d": 223.07621666666637,
      "v": 84
    },
    {
      "midi": 62,
      "hit": false,
      "t": 15230.721000000003,
      "d": 223.07621666666637,
      "v": 84
    },
    {
      "midi": 66,
      "hit": false,
      "t": 15230.721000000003,
      "d": 223.07621666666637,
      "v": 84
    },
    {
      "midi": 69,
      "hit": false,
      "t": 15230.721000000003,
      "d": 223.07621666666637,
      "v": 84
    },
    {
      "midi": 81,
      "hit": false,
      "t": 15461.4895,
      "d": 223.07621666666637,
      "v": 84
    },
    {
      "midi": 79,
      "hit": false,
      "t": 15692.258,
      "d": 223.07621666666637,
      "v": 84
    },
    {
      "midi": 62,
      "hit": false,
      "t": 15692.258000000003,
      "d": 223.07621666666637,
      "v": 84
    },
    {
      "midi": 67,
      "hit": false,
      "t": 15692.258000000003,
      "d": 223.07621666666637,
      "v": 84
    },
    {
      "midi": 71,
      "hit": false,
      "t": 15692.258000000003,
      "d": 223.07621666666637,
      "v": 84
    },
    {
      "midi": 86,
      "hit": false,
      "t": 16153.795,
      "d": 223.07621666666637,
      "v": 84
    },
    {
      "midi": 62,
      "hit": false,
      "t": 16153.795000000004,
      "d": 223.07621666666637,
      "v": 84
    },
    {
      "midi": 67,
      "hit": false,
      "t": 16153.795000000004,
      "d": 223.07621666666637,
      "v": 84
    },
    {
      "midi": 71,
      "hit": false,
      "t": 16153.795000000004,
      "d": 223.07621666666637,
      "v": 84
    },
    {
      "midi": 86,
      "hit": false,
      "t": 16615.332,
      "d": 223.0762166666682,
      "v": 96
    },
    {
      "midi": 62,
      "hit": false,
      "t": 16615.332000000002,
      "d": 223.0762166666682,
      "v": 84
    },
    {
      "midi": 66,
      "hit": false,
      "t": 16615.332000000002,
      "d": 223.0762166666682,
      "v": 84
    },
    {
      "midi": 69,
      "hit": false,
      "t": 16615.332000000002,
      "d": 223.0762166666682,
      "v": 84
    },
    {
      "midi": 85,
      "hit": false,
      "t": 17076.869,
      "d": 223.0762166666682,
      "v": 84
    },
    {
      "midi": 62,
      "hit": false,
      "t": 17076.869000000002,
      "d": 223.0762166666682,
      "v": 84
    },
    {
      "midi": 66,
      "hit": false,
      "t": 17076.869000000002,
      "d": 223.0762166666682,
      "v": 84
    },
    {
      "midi": 69,
      "hit": false,
      "t": 17076.869000000002,
      "d": 223.0762166666682,
      "v": 84
    },
    {
      "midi": 83,
      "hit": false,
      "t": 17307.6375,
      "d": 223.0762166666682,
      "v": 84
    },
    {
      "midi": 81,
      "hit": false,
      "t": 17538.406000000003,
      "d": 223.0762166666682,
      "v": 84
    },
    {
      "midi": 62,
      "hit": false,
      "t": 17538.406000000003,
      "d": 223.0762166666682,
      "v": 84
    },
    {
      "midi": 67,
      "hit": false,
      "t": 17538.406000000003,
      "d": 223.0762166666682,
      "v": 84
    },
    {
      "midi": 71,
      "hit": false,
      "t": 17538.406000000003,
      "d": 223.0762166666682,
      "v": 84
    },
    {
      "midi": 81,
      "hit": false,
      "t": 17769.174500000005,
      "d": 223.0762166666682,
      "v": 84
    },
    {
      "midi": 62,
      "hit": false,
      "t": 17999.943000000003,
      "d": 223.0762166666682,
      "v": 84
    },
    {
      "midi": 67,
      "hit": false,
      "t": 17999.943000000003,
      "d": 223.0762166666682,
      "v": 84
    },
    {
      "midi": 71,
      "hit": false,
      "t": 17999.943000000003,
      "d": 223.0762166666682,
      "v": 84
    },
    {
      "midi": 79,
      "hit": false,
      "t": 17999.943000000007,
      "d": 223.0762166666682,
      "v": 84
    },
    {
      "midi": 76,
      "hit": false,
      "t": 18230.71150000001,
      "d": 223.0762166666682,
      "v": 84
    },
    {
      "midi": 62,
      "hit": false,
      "t": 18461.480000000003,
      "d": 223.0762166666682,
      "v": 84
    },
    {
      "midi": 66,
      "hit": false,
      "t": 18461.480000000003,
      "d": 223.0762166666682,
      "v": 84
    },
    {
      "midi": 69,
      "hit": false,
      "t": 18461.480000000003,
      "d": 223.0762166666682,
      "v": 84
    },
    {
      "midi": 74,
      "hit": false,
      "t": 18461.48000000001,
      "d": 223.0762166666682,
      "v": 84
    },
    {
      "midi": 73,
      "hit": false,
      "t": 18692.248500000012,
      "d": 223.0762166666682,
      "v": 84
    },
    {
      "midi": 59,
      "hit": false,
      "t": 18923.017000000003,
      "d": 223.0762166666682,
      "v": 84
    },
    {
      "midi": 62,
      "hit": false,
      "t": 18923.017000000003,
      "d": 223.0762166666682,
      "v": 84
    },
    {
      "midi": 66,
      "hit": false,
      "t": 18923.017000000003,
      "d": 223.0762166666682,
      "v": 84
    },
    {
      "midi": 74,
      "hit": false,
      "t": 18923.017000000014,
      "d": 223.0762166666682,
      "v": 84
    },
    {
      "midi": 78,
      "hit": false,
      "t": 19153.785500000016,
      "d": 223.0762166666682,
      "v": 84
    },
    {
      "midi": 57,
      "hit": false,
      "t": 19384.55400000002,
      "d": 223.0762166666682,
      "v": 84
    },
    {
      "midi": 61,
      "hit": false,
      "t": 19384.55400000002,
      "d": 223.0762166666682,
      "v": 84
    },
    {
      "midi": 64,
      "hit": false,
      "t": 19384.55400000002,
      "d": 223.0762166666682,
      "v": 84
    },
    {
      "midi": 81,
      "hit": false,
      "t": 19384.55400000002,
      "d": 915.3817166666668,
      "v": 96
    },
    {
      "midi": 30,
      "hit": false,
      "t": 19846.091000000004,
      "d": 223.0762166666682,
      "v": 84
    },
    {
      "midi": 45,
      "hit": false,
      "t": 19846.091000000004,
      "d": 223.0762166666682,
      "v": 84
    },
    {
      "midi": 57,
      "hit": false,
      "t": 19846.09100000002,
      "d": 223.0762166666682,
      "v": 84
    },
    {
      "midi": 61,
      "hit": false,
      "t": 19846.09100000002,
      "d": 223.0762166666682,
      "v": 84
    },
    {
      "midi": 64,
      "hit": false,
      "t": 19846.09100000002,
      "d": 223.0762166666682,
      "v": 84
    },
    {
      "midi": 37,
      "hit": false,
      "t": 20076.859500000006,
      "d": 223.0762166666682,
      "v": 86
    },
    {
      "midi": 40,
      "hit": false,
      "t": 20307.628000000008,
      "d": 223.0762166666682,
      "v": 98
    },
    {
      "midi": 57,
      "hit": false,
      "t": 20307.62800000002,
      "d": 223.0762166666682,
      "v": 87
    },
    {
      "midi": 61,
      "hit": false,
      "t": 20307.62800000002,
      "d": 223.0762166666682,
      "v": 87
    },
    {
      "midi": 64,
      "hit": false,
      "t": 20307.62800000002,
      "d": 223.0762166666682,
      "v": 87
    },
    {
      "midi": 33,
      "hit": false,
      "t": 20769.165000000008,
      "d": 223.0762166666682,
      "v": 88
    },
    {
      "midi": 45,
      "hit": false,
      "t": 20769.165000000008,
      "d": 223.0762166666682,
      "v": 88
    },
    {
      "midi": 57,
      "hit": false,
      "t": 20769.16500000002,
      "d": 223.0762166666682,
      "v": 88
    },
    {
      "midi": 61,
      "hit": false,
      "t": 20769.16500000002,
      "d": 223.0762166666682,
      "v": 88
    },
    {
      "midi": 66,
      "hit": false,
      "t": 20769.16500000002,
      "d": 223.0762166666682,
      "v": 88
    },
    {
      "midi": 37,
      "hit": false,
      "t": 20999.93350000001,
      "d": 223.0762166666682,
      "v": 89
    },
    {
      "midi": 42,
      "hit": false,
      "t": 21230.702000000012,
      "d": 223.0762166666682,
      "v": 98
    },
    {
      "midi": 57,
      "hit": false,
      "t": 21230.70200000002,
      "d": 223.0762166666682,
      "v": 90
    },
    {
      "midi": 61,
      "hit": false,
      "t": 21230.70200000002,
      "d": 223.0762166666682,
      "v": 90
    },
    {
      "midi": 66,
      "hit": false,
      "t": 21230.70200000002,
      "d": 223.0762166666682,
      "v": 90
    },
    {
      "midi": 33,
      "hit": false,
      "t": 21692.239000000012,
      "d": 223.0762166666682,
      "v": 92
    },
    {
      "midi": 45,
      "hit": false,
      "t": 21692.239000000012,
      "d": 223.0762166666682,
      "v": 92
    },
    {
      "midi": 59,
      "hit": false,
      "t": 21692.23900000002,
      "d": 223.0762166666682,
      "v": 92
    },
    {
      "midi": 62,
      "hit": false,
      "t": 21692.23900000002,
      "d": 223.0762166666682,
      "v": 92
    },
    {
      "midi": 67,
      "hit": false,
      "t": 21692.23900000002,
      "d": 223.0762166666682,
      "v": 92
    },
    {
      "midi": 38,
      "hit": false,
      "t": 21923.007500000014,
      "d": 223.0762166666682,
      "v": 93
    },
    {
      "midi": 43,
      "hit": false,
      "t": 22153.776000000016,
      "d": 223.0762166666682,
      "v": 98
    },
    {
      "midi": 59,
      "hit": false,
      "t": 22153.77600000002,
      "d": 223.0762166666682,
      "v": 94
    },
    {
      "midi": 62,
      "hit": false,
      "t": 22153.77600000002,
      "d": 223.0762166666682,
      "v": 94
    },
    {
      "midi": 67,
      "hit": false,
      "t": 22153.77600000002,
      "d": 223.0762166666682,
      "v": 94
    },
    {
      "midi": 42,
      "hit": false,
      "t": 22615.313000000016,
      "d": 223.0762166666682,
      "v": 94
    },
    {
      "midi": 58,
      "hit": false,
      "t": 22615.31300000002,
      "d": 223.0762166666682,
      "v": 94
    },
    {
      "midi": 61,
      "hit": false,
      "t": 22615.31300000002,
      "d": 223.0762166666682,
      "v": 94
    },
    {
      "midi": 66,
      "hit": false,
      "t": 22615.31300000002,
      "d": 223.0762166666682,
      "v": 94
    },
    {
      "midi": 40,
      "hit": false,
      "t": 22846.08150000002,
      "d": 223.0762166666682,
      "v": 94
    },
    {
      "midi": 56,
      "hit": false,
      "t": 22846.081500000022,
      "d": 223.0762166666682,
      "v": 94
    },
    {
      "midi": 59,
      "hit": false,
      "t": 22846.081500000022,
      "d": 223.0762166666682,
      "v": 94
    },
    {
      "midi": 64,
      "hit": false,
      "t": 22846.081500000022,
      "d": 223.0762166666682,
      "v": 94
    },
    {
      "midi": 38,
      "hit": false,
      "t": 23076.85000000002,
      "d": 1146.150216666665,
      "v": 104
    },
    {
      "midi": 54,
      "hit": false,
      "t": 23076.850000000024,
      "d": 223.0762166666682,
      "v": 94
    },
    {
      "midi": 57,
      "hit": false,
      "t": 23076.850000000024,
      "d": 223.0762166666682,
      "v": 94
    },
    {
      "midi": 62,
      "hit": false,
      "t": 23076.850000000024,
      "d": 223.0762166666682,
      "v": 94
    },
    {
      "midi": 62,
      "hit": false,
      "t": 23538.387000000024,
      "d": 223.0762166666682,
      "v": 84
    },
    {
      "midi": 66,
      "hit": false,
      "t": 23538.387000000024,
      "d": 223.0762166666682,
      "v": 84
    },
    {
      "midi": 69,
      "hit": false,
      "t": 23538.387000000024,
      "d": 223.0762166666682,
      "v": 84
    },
    {
      "midi": 62,
      "hit": false,
      "t": 23999.924000000025,
      "d": 223.0762166666682,
      "v": 84
    },
    {
      "midi": 66,
      "hit": false,
      "t": 23999.924000000025,
      "d": 223.0762166666682,
      "v": 84
    },
    {
      "midi": 69,
      "hit": false,
      "t": 23999.924000000025,
      "d": 223.0762166666682,
      "v": 84
    },
    {
      "midi": 62,
      "hit": false,
      "t": 24461.461000000018,
      "d": 223.0762166666682,
      "v": 84
    },
    {
      "midi": 69,
      "hit": false,
      "t": 24461.461000000025,
      "d": 223.0762166666682,
      "v": 84
    },
    {
      "midi": 74,
      "hit": false,
      "t": 24692.229500000027,
      "d": 223.0762166666682,
      "v": 84
    },
    {
      "midi": 62,
      "hit": false,
      "t": 24922.998000000018,
      "d": 223.0762166666682,
      "v": 84
    },
    {
      "midi": 66,
      "hit": false,
      "t": 24922.998000000018,
      "d": 223.0762166666682,
      "v": 84
    },
    {
      "midi": 69,
      "hit": false,
      "t": 24922.998000000018,
      "d": 223.0762166666682,
      "v": 84
    },
    {
      "midi": 78,
      "hit": false,
      "t": 24922.99800000003,
      "d": 223.0762166666682,
      "v": 94
    },
    {
      "midi": 62,
      "hit": false,
      "t": 25384.535000000018,
      "d": 223.0762166666682,
      "v": 84
    },
    {
      "midi": 66,
      "hit": false,
      "t": 25384.535000000018,
      "d": 223.0762166666682,
      "v": 84
    },
    {
      "midi": 69,
      "hit": false,
      "t": 25384.535000000018,
      "d": 223.0762166666682,
      "v": 84
    },
    {
      "midi": 78,
      "hit": false,
      "t": 25384.53500000003,
      "d": 223.0762166666682,
      "v": 84
    },
    {
      "midi": 78,
      "hit": false,
      "t": 25615.30350000003,
      "d": 223.0762166666682,
      "v": 84
    },
    {
      "midi": 62,
      "hit": false,
      "t": 25846.07200000002,
      "d": 223.0762166666682,
      "v": 84
    },
    {
      "midi": 67,
      "hit": false,
      "t": 25846.07200000002,
      "d": 223.0762166666682,
      "v": 84
    },
    {
      "midi": 71,
      "hit": false,
      "t": 25846.07200000002,
      "d": 223.0762166666682,
      "v": 84
    },
    {
      "midi": 83,
      "hit": false,
      "t": 25846.072000000033,
      "d": 223.0762166666682,
      "v": 94
    },
    {
      "midi": 62,
      "hit": false,
      "t": 26307.60900000002,
      "d": 223.0762166666682,
      "v": 84
    },
    {
      "midi": 67,
      "hit": false,
      "t": 26307.60900000002,
      "d": 223.0762166666682,
      "v": 84
    },
    {
      "midi": 71,
      "hit": false,
      "t": 26307.60900000002,
      "d": 223.0762166666682,
      "v": 84
    },
    {
      "midi": 78,
      "hit": false,
      "t": 26307.609000000033,
      "d": 223.0762166666682,
      "v": 84
    },
    {
      "midi": 76,
      "hit": false,
      "t": 26538.377500000035,
      "d": 223.0762166666682,
      "v": 84
    },
    {
      "midi": 62,
      "hit": false,
      "t": 26769.14600000002,
      "d": 223.0762166666682,
      "v": 84
    },
    {
      "midi": 66,
      "hit": false,
      "t": 26769.14600000002,
      "d": 223.0762166666682,
      "v": 84
    },
    {
      "midi": 69,
      "hit": false,
      "t": 26769.14600000002,
      "d": 223.0762166666682,
      "v": 84
    },
    {
      "midi": 74,
      "hit": false,
      "t": 26769.146000000037,
      "d": 223.0762166666682,
      "v": 84
    },
    {
      "midi": 78,
      "hit": false,
      "t": 26999.91450000004,
      "d": 223.0762166666682,
      "v": 84
    },
    {
      "midi": 62,
      "hit": false,
      "t": 27230.68300000002,
      "d": 223.0762166666682,
      "v": 84
    },
    {
      "midi": 66,
      "hit": false,
      "t": 27230.68300000002,
      "d": 223.0762166666682,
      "v": 84
    },
    {
      "midi": 69,
      "hit": false,
      "t": 27230.68300000002,
      "d": 223.0762166666682,
      "v": 84
    },
    {
      "midi": 83,
      "hit": false,
      "t": 27230.68300000004,
      "d": 223.0762166666682,
      "v": 84
    },
    {
      "midi": 81,
      "hit": false,
      "t": 27461.451500000043,
      "d": 223.0762166666682,
      "v": 84
    },
    {
      "midi": 62,
      "hit": false,
      "t": 27692.22000000002,
      "d": 223.0762166666682,
      "v": 84
    },
    {
      "midi": 67,
      "hit": false,
      "t": 27692.22000000002,
      "d": 223.0762166666682,
      "v": 84
    },
    {
      "midi": 71,
      "hit": false,
      "t": 27692.22000000002,
      "d": 223.0762166666682,
      "v": 84
    },
    {
      "midi": 79,
      "hit": false,
      "t": 27692.220000000045,
      "d": 223.0762166666682,
      "v": 84
    },
    {
      "midi": 62,
      "hit": false,
      "t": 28153.75700000002,
      "d": 223.0762166666682,
      "v": 84
    },
    {
      "midi": 67,
      "hit": false,
      "t": 28153.75700000002,
      "d": 223.0762166666682,
      "v": 84
    },
    {
      "midi": 71,
      "hit": false,
      "t": 28153.75700000002,
      "d": 223.0762166666682,
      "v": 84
    },
    {
      "midi": 86,
      "hit": false,
      "t": 28153.757000000045,
      "d": 223.0762166666682,
      "v": 84
    },
    {
      "midi": 62,
      "hit": false,
      "t": 28615.29400000002,
      "d": 223.0762166666682,
      "v": 84
    },
    {
      "midi": 66,
      "hit": false,
      "t": 28615.29400000002,
      "d": 223.0762166666682,
      "v": 84
    },
    {
      "midi": 69,
      "hit": false,
      "t": 28615.29400000002,
      "d": 223.0762166666682,
      "v": 84
    },
    {
      "midi": 86,
      "hit": false,
      "t": 28615.294000000045,
      "d": 223.0762166666682,
      "v": 94
    },
    {
      "midi": 62,
      "hit": false,
      "t": 29076.83100000002,
      "d": 223.0762166666682,
      "v": 84
    },
    {
      "midi": 66,
      "hit": false,
      "t": 29076.83100000002,
      "d": 223.0762166666682,
      "v": 84
    },
    {
      "midi": 69,
      "hit": false,
      "t": 29076.83100000002,
      "d": 223.0762166666682,
      "v": 84
    },
    {
      "midi": 85,
      "hit": false,
      "t": 29076.831000000046,
      "d": 223.0762166666682,
      "v": 84
    },
    {
      "midi": 83,
      "hit": false,
      "t": 29307.599500000048,
      "d": 223.0762166666682,
      "v": 84
    },
    {
      "midi": 62,
      "hit": false,
      "t": 29538.36800000002,
      "d": 223.0762166666682,
      "v": 84
    },
    {
      "midi": 67,
      "hit": false,
      "t": 29538.36800000002,
      "d": 223.0762166666682,
      "v": 84
    },
    {
      "midi": 71,
      "hit": false,
      "t": 29538.36800000002,
      "d": 223.0762166666682,
      "v": 84
    },
    {
      "midi": 81,
      "hit": false,
      "t": 29538.36800000005,
      "d": 223.0762166666682,
      "v": 84
    },
    {
      "midi": 81,
      "hit": false,
      "t": 29769.13650000005,
      "d": 223.0762166666682,
      "v": 84
    },
    {
      "midi": 62,
      "hit": false,
      "t": 29999.90500000002,
      "d": 223.0762166666682,
      "v": 84
    },
    {
      "midi": 67,
      "hit": false,
      "t": 29999.90500000002,
      "d": 223.0762166666682,
      "v": 84
    },
    {
      "midi": 71,
      "hit": false,
      "t": 29999.90500000002,
      "d": 223.0762166666682,
      "v": 84
    },
    {
      "midi": 79,
      "hit": false,
      "t": 29999.905000000053,
      "d": 223.0762166666682,
      "v": 84
    },
    {
      "midi": 76,
      "hit": false,
      "t": 30230.673500000055,
      "d": 223.0762166666682,
      "v": 84
    },
    {
      "midi": 62,
      "hit": false,
      "t": 30461.44200000002,
      "d": 223.0762166666682,
      "v": 84
    },
    {
      "midi": 66,
      "hit": false,
      "t": 30461.44200000002,
      "d": 223.0762166666682,
      "v": 84
    },
    {
      "midi": 69,
      "hit": false,
      "t": 30461.44200000002,
      "d": 223.0762166666682,
      "v": 84
    },
    {
      "midi": 74,
      "hit": false,
      "t": 30461.442000000057,
      "d": 223.0762166666682,
      "v": 84
    },
    {
      "midi": 73,
      "hit": false,
      "t": 30692.21050000006,
      "d": 223.0762166666682,
      "v": 84
    },
    {
      "midi": 59,
      "hit": false,
      "t": 30922.97900000002,
      "d": 223.0762166666682,
      "v": 84
    },
    {
      "midi": 62,
      "hit": false,
      "t": 30922.97900000002,
      "d": 223.0762166666682,
      "v": 84
    },
    {
      "midi": 66,
      "hit": false,
      "t": 30922.97900000002,
      "d": 223.0762166666682,
      "v": 84
    },
    {
      "midi": 74,
      "hit": false,
      "t": 30922.97900000006,
      "d": 223.0762166666682,
      "v": 84
    },
    {
      "midi": 78,
      "hit": false,
      "t": 31153.747500000063,
      "d": 223.0762166666682,
      "v": 84
    },
    {
      "midi": 57,
      "hit": false,
      "t": 31384.51600000002,
      "d": 223.0762166666682,
      "v": 98
    },
    {
      "midi": 61,
      "hit": false,
      "t": 31384.51600000002,
      "d": 223.0762166666682,
      "v": 98
    },
    {
      "midi": 64,
      "hit": false,
      "t": 31384.51600000002,
      "d": 223.0762166666682,
      "v": 98
    },
    {
      "midi": 81,
      "hit": false,
      "t": 31384.516000000065,
      "d": 1838.4557166666673,
      "v": 98
    },
    {
      "midi": 33,
      "hit": false,
      "t": 31846.05300000002,
      "d": 223.0762166666682,
      "v": 88
    },
    {
      "midi": 45,
      "hit": false,
      "t": 31846.05300000002,
      "d": 223.0762166666682,
      "v": 88
    },
    {
      "midi": 76,
      "hit": false,
      "t": 31846.053000000065,
      "d": 223.0762166666682,
      "v": 88
    },
    {
      "midi": 69,
      "hit": false,
      "t": 31846.053000000065,
      "d": 684.6132166666684,
      "v": 88
    },
    {
      "midi": 73,
      "hit": false,
      "t": 31846.053000000065,
      "d": 684.6132166666684,
      "v": 88
    },
    {
      "midi": 37,
      "hit": false,
      "t": 32076.821500000024,
      "d": 223.0762166666682,
      "v": 88
    },
    {
      "midi": 42,
      "hit": false,
      "t": 32307.590000000026,
      "d": 223.0762166666682,
      "v": 99
    },
    {
      "midi": 78,
      "hit": false,
      "t": 32307.590000000066,
      "d": 223.0762166666682,
      "v": 88
    },
    {
      "midi": 33,
      "hit": false,
      "t": 32769.12700000003,
      "d": 223.0762166666682,
      "v": 89
    },
    {
      "midi": 45,
      "hit": false,
      "t": 32769.12700000003,
      "d": 223.0762166666682,
      "v": 89
    },
    {
      "midi": 69,
      "hit": false,
      "t": 32769.127000000066,
      "d": 453.8447166666665,
      "v": 89
    },
    {
      "midi": 73,
      "hit": false,
      "t": 32769.127000000066,
      "d": 453.8447166666665,
      "v": 89
    },
    {
      "midi": 78,
      "hit": false,
      "t": 32769.127000000066,
      "d": 453.8447166666665,
      "v": 89
    },
    {
      "midi": 37,
      "hit": false,
      "t": 32999.89550000003,
      "d": 223.0762166666682,
      "v": 90
    },
    {
      "midi": 43,
      "hit": false,
      "t": 33230.664000000026,
      "d": 223.0762166666682,
      "v": 102
    },
    {
      "midi": 71,
      "hit": false,
      "t": 33230.66400000006,
      "d": 223.0762166666682,
      "v": 92
    },
    {
      "midi": 74,
      "hit": false,
      "t": 33230.66400000006,
      "d": 223.0762166666682,
      "v": 92
    },
    {
      "midi": 79,
      "hit": false,
      "t": 33230.66400000006,
      "d": 223.0762166666682,
      "v": 92
    },
    {
      "midi": 38,
      "hit": false,
      "t": 33692.20100000003,
      "d": 223.0762166666682,
      "v": 94
    },
    {
      "midi": 50,
      "hit": false,
      "t": 33692.20100000003,
      "d": 223.0762166666682,
      "v": 94
    },
    {
      "midi": 74,
      "hit": false,
      "t": 33692.20100000007,
      "d": 453.8447166666665,
      "v": 94
    },
    {
      "midi": 79,
      "hit": false,
      "t": 33692.20100000007,
      "d": 453.8447166666665,
      "v": 94
    },
    {
      "midi": 83,
      "hit": false,
      "t": 33692.20100000007,
      "d": 453.8447166666665,
      "v": 94
    },
    {
      "midi": 43,
      "hit": false,
      "t": 33922.96950000003,
      "d": 223.0762166666682,
      "v": 96
    },
    {
      "midi": 46,
      "hit": false,
      "t": 34153.73800000003,
      "d": 223.0762166666682,
      "v": 104
    },
    {
      "midi": 73,
      "hit": false,
      "t": 34153.73800000006,
      "d": 223.0762166666682,
      "v": 96
    },
    {
      "midi": 77,
      "hit": false,
      "t": 34153.73800000006,
      "d": 223.0762166666682,
      "v": 96
    },
    {
      "midi": 82,
      "hit": false,
      "t": 34153.73800000006,
      "d": 223.0762166666682,
      "v": 96
    },
    {
      "midi": 32,
      "hit": false,
      "t": 34615.27500000003,
      "d": 223.0762166666682,
      "v": 98
    },
    {
      "midi": 48,
      "hit": false,
      "t": 34615.27500000003,
      "d": 223.0762166666682,
      "v": 98
    },
    {
      "midi": 72,
      "hit": false,
      "t": 34615.27500000007,
      "d": 223.0762166666682,
      "v": 98
    },
    {
      "midi": 75,
      "hit": false,
      "t": 34615.27500000007,
      "d": 223.0762166666682,
      "v": 98
    },
    {
      "midi": 80,
      "hit": false,
      "t": 34615.27500000007,
      "d": 223.0762166666682,
      "v": 98
    },
    {
      "midi": 70,
      "hit": false,
      "t": 34846.043500000065,
      "d": 223.0762166666682,
      "v": 98
    },
    {
      "midi": 73,
      "hit": false,
      "t": 34846.043500000065,
      "d": 223.0762166666682,
      "v": 98
    },
    {
      "midi": 79,
      "hit": false,
      "t": 34846.043500000065,
      "d": 223.0762166666682,
      "v": 98
    },
    {
      "midi": 29,
      "hit": false,
      "t": 35076.812000000034,
      "d": 223.0762166666682,
      "v": 98
    },
    {
      "midi": 41,
      "hit": false,
      "t": 35076.812000000034,
      "d": 223.0762166666682,
      "v": 98
    },
    {
      "midi": 68,
      "hit": false,
      "t": 35076.81200000006,
      "d": 223.0762166666682,
      "v": 104
    },
    {
      "midi": 72,
      "hit": false,
      "t": 35076.81200000006,
      "d": 223.0762166666682,
      "v": 104
    },
    {
      "midi": 77,
      "hit": false,
      "t": 35076.81200000006,
      "d": 223.0762166666682,
      "v": 104
    },
    {
      "midi": 65,
      "hit": false,
      "t": 35538.34900000007,
      "d": 223.0762166666682,
      "v": 94
    },
    {
      "midi": 68,
      "hit": false,
      "t": 35538.34900000007,
      "d": 223.0762166666682,
      "v": 94
    },
    {
      "midi": 72,
      "hit": false,
      "t": 35538.34900000007,
      "d": 223.0762166666682,
      "v": 94
    },
    {
      "midi": 65,
      "hit": false,
      "t": 35999.88600000007,
      "d": 223.0762166666682,
      "v": 88
    },
    {
      "midi": 68,
      "hit": false,
      "t": 35999.88600000007,
      "d": 223.0762166666682,
      "v": 88
    },
    {
      "midi": 72,
      "hit": false,
      "t": 35999.88600000007,
      "d": 223.0762166666682,
      "v": 88
    },
    {
      "midi": 60,
      "hit": false,
      "t": 36461.42300000004,
      "d": 223.0762166666682,
      "v": 88
    },
    {
      "midi": 68,
      "hit": false,
      "t": 36461.423000000075,
      "d": 223.0762166666682,
      "v": 88
    },
    {
      "midi": 72,
      "hit": false,
      "t": 36461.423000000075,
      "d": 223.0762166666682,
      "v": 88
    },
    {
      "midi": 65,
      "hit": false,
      "t": 36692.19150000004,
      "d": 223.0762166666682,
      "v": 88
    },
    {
      "midi": 68,
      "hit": false,
      "t": 36922.960000000036,
      "d": 223.0762166666682,
      "v": 98
    },
    {
      "midi": 70,
      "hit": false,
      "t": 36922.96000000008,
      "d": 223.0762166666682,
      "v": 88
    },
    {
      "midi": 72,
      "hit": false,
      "t": 36922.96000000008,
      "d": 223.0762166666682,
      "v": 88
    },
    {
      "midi": 68,
      "hit": false,
      "t": 37384.49700000004,
      "d": 223.0762166666682,
      "v": 88
    },
    {
      "midi": 70,
      "hit": false,
      "t": 37384.49700000008,
      "d": 223.0762166666682,
      "v": 88
    },
    {
      "midi": 72,
      "hit": false,
      "t": 37384.49700000008,
      "d": 223.0762166666682,
      "v": 88
    },
    {
      "midi": 67,
      "hit": false,
      "t": 37615.26550000004,
      "d": 223.0762166666682,
      "v": 88
    },
    {
      "midi": 65,
      "hit": false,
      "t": 37846.034000000036,
      "d": 223.0762166666682,
      "v": 98
    },
    {
      "midi": 68,
      "hit": false,
      "t": 37846.03400000009,
      "d": 223.0762166666682,
      "v": 88
    },
    {
      "midi": 72,
      "hit": false,
      "t": 37846.03400000009,
      "d": 223.0762166666682,
      "v": 88
    },
    {
      "midi": 60,
      "hit": false,
      "t": 38307.57100000004,
      "d": 223.0762166666682,
      "v": 88
    },
    {
      "midi": 68,
      "hit": false,
      "t": 38307.57100000009,
      "d": 223.0762166666682,
      "v": 88
    },
    {
      "midi": 72,
      "hit": false,
      "t": 38307.57100000009,
      "d": 223.0762166666682,
      "v": 88
    },
    {
      "midi": 65,
      "hit": false,
      "t": 38538.33950000004,
      "d": 223.0762166666682,
      "v": 88
    },
    {
      "midi": 68,
      "hit": false,
      "t": 38769.10800000004,
      "d": 223.0762166666682,
      "v": 98
    },
    {
      "midi": 70,
      "hit": false,
      "t": 38769.108000000095,
      "d": 223.0762166666682,
      "v": 88
    },
    {
      "midi": 72,
      "hit": false,
      "t": 38769.108000000095,
      "d": 223.0762166666682,
      "v": 88
    },
    {
      "midi": 68,
      "hit": false,
      "t": 39230.64500000004,
      "d": 223.0762166666682,
      "v": 88
    },
    {
      "midi": 70,
      "hit": false,
      "t": 39230.6450000001,
      "d": 223.0762166666682,
      "v": 88
    },
    {
      "midi": 72,
      "hit": false,
      "t": 39230.6450000001,
      "d": 223.0762166666682,
      "v": 88
    },
    {
      "midi": 67,
      "hit": false,
      "t": 39461.41350000004,
      "d": 223.0762166666682,
      "v": 88
    },
    {
      "midi": 65,
      "hit": false,
      "t": 39692.18200000004,
      "d": 223.0762166666682,
      "v": 98
    },
    {
      "midi": 68,
      "hit": false,
      "t": 39692.1820000001,
      "d": 223.0762166666682,
      "v": 88
    },
    {
      "midi": 72,
      "hit": false,
      "t": 39692.1820000001,
      "d": 223.0762166666682,
      "v": 88
    },
    {
      "midi": 60,
      "hit": false,
      "t": 40153.71900000004,
      "d": 223.0762166666682,
      "v": 88
    },
    {
      "midi": 68,
      "hit": false,
      "t": 40153.71900000011,
      "d": 223.0762166666682,
      "v": 88
    },
    {
      "midi": 72,
      "hit": false,
      "t": 40153.71900000011,
      "d": 223.0762166666682,
      "v": 88
    },
    {
      "midi": 65,
      "hit": false,
      "t": 40384.48750000004,
      "d": 223.0762166666682,
      "v": 88
    },
    {
      "midi": 68,
      "hit": false,
      "t": 40615.25600000004,
      "d": 223.0762166666682,
      "v": 98
    },
    {
      "midi": 70,
      "hit": false,
      "t": 40615.25600000011,
      "d": 223.0762166666682,
      "v": 88
    },
    {
      "midi": 72,
      "hit": false,
      "t": 40615.25600000011,
      "d": 223.0762166666682,
      "v": 88
    },
    {
      "midi": 68,
      "hit": false,
      "t": 41076.79300000004,
      "d": 223.0762166666682,
      "v": 88
    },
    {
      "midi": 70,
      "hit": false,
      "t": 41076.793000000114,
      "d": 223.0762166666682,
      "v": 88
    },
    {
      "midi": 72,
      "hit": false,
      "t": 41076.793000000114,
      "d": 223.0762166666682,
      "v": 88
    },
    {
      "midi": 71,
      "hit": false,
      "t": 41307.56150000004,
      "d": 684.6132166666648,
      "v": 98
    },
    {
      "midi": 70,
      "hit": false,
      "t": 41538.33000000012,
      "d": 223.0762166666682,
      "v": 88
    },
    {
      "midi": 72,
      "hit": false,
      "t": 41538.33000000012,
      "d": 223.0762166666682,
      "v": 88
    },
    {
      "midi": 68,
      "hit": false,
      "t": 41999.867000000035,
      "d": 223.0762166666682,
      "v": 88
    },
    {
      "midi": 70,
      "hit": false,
      "t": 41999.86700000012,
      "d": 223.0762166666682,
      "v": 88
    },
    {
      "midi": 72,
      "hit": false,
      "t": 41999.86700000012,
      "d": 223.0762166666682,
      "v": 88
    },
    {
      "midi": 67,
      "hit": false,
      "t": 42230.63550000003,
      "d": 223.0762166666682,
      "v": 88
    },
    {
      "midi": 65,
      "hit": false,
      "t": 42461.40400000003,
      "d": 3684.6037166666792,
      "v": 98
    },
    {
      "midi": 68,
      "hit": false,
      "t": 42461.404000000126,
      "d": 223.0762166666682,
      "v": 88
    },
    {
      "midi": 72,
      "hit": false,
      "t": 42461.404000000126,
      "d": 223.0762166666682,
      "v": 88
    },
    {
      "midi": 68,
      "hit": false,
      "t": 42922.94100000013,
      "d": 223.0762166666682,
      "v": 88
    },
    {
      "midi": 72,
      "hit": false,
      "t": 42922.94100000013,
      "d": 223.0762166666682,
      "v": 88
    },
    {
      "midi": 68,
      "hit": false,
      "t": 43384.478000000134,
      "d": 223.0762166666682,
      "v": 88
    },
    {
      "midi": 72,
      "hit": false,
      "t": 43384.478000000134,
      "d": 223.0762166666682,
      "v": 88
    },
    {
      "midi": 68,
      "hit": false,
      "t": 43846.01500000003,
      "d": 223.0762166666682,
      "v": 94
    },
    {
      "midi": 72,
      "hit": false,
      "t": 43846.01500000014,
      "d": 223.0762166666682,
      "v": 94
    },
    {
      "midi": 77,
      "hit": false,
      "t": 44076.783500000136,
      "d": 223.0762166666682,
      "v": 94
    },
    {
      "midi": 68,
      "hit": false,
      "t": 44307.55200000003,
      "d": 223.0762166666682,
      "v": 94
    },
    {
      "midi": 72,
      "hit": false,
      "t": 44307.55200000003,
      "d": 223.0762166666682,
      "v": 94
    },
    {
      "midi": 80,
      "hit": false,
      "t": 44307.552000000134,
      "d": 223.0762166666682,
      "v": 104
    },
    {
      "midi": 92,
      "hit": false,
      "t": 44307.552000000134,
      "d": 223.0762166666682,
      "v": 104
    },
    {
      "midi": 68,
      "hit": false,
      "t": 44769.089000000036,
      "d": 223.0762166666682,
      "v": 94
    },
    {
      "midi": 72,
      "hit": false,
      "t": 44769.089000000036,
      "d": 223.0762166666682,
      "v": 94
    },
    {
      "midi": 80,
      "hit": false,
      "t": 44769.08900000014,
      "d": 223.0762166666682,
      "v": 94
    },
    {
      "midi": 80,
      "hit": false,
      "t": 44999.85750000014,
      "d": 223.0762166666682,
      "v": 94
    },
    {
      "midi": 70,
      "hit": false,
      "t": 45230.62600000004,
      "d": 223.0762166666682,
      "v": 94
    },
    {
      "midi": 73,
      "hit": false,
      "t": 45230.62600000004,
      "d": 223.0762166666682,
      "v": 94
    },
    {
      "midi": 85,
      "hit": false,
      "t": 45230.626000000135,
      "d": 223.0762166666682,
      "v": 104
    },
    {
      "midi": 97,
      "hit": false,
      "t": 45230.626000000135,
      "d": 223.0762166666682,
      "v": 104
    },
    {
      "midi": 70,
      "hit": false,
      "t": 45692.163000000044,
      "d": 223.0762166666682,
      "v": 94
    },
    {
      "midi": 73,
      "hit": false,
      "t": 45692.163000000044,
      "d": 223.0762166666682,
      "v": 94
    },
    {
      "midi": 80,
      "hit": false,
      "t": 45692.16300000014,
      "d": 223.0762166666682,
      "v": 94
    },
    {
      "midi": 79,
      "hit": false,
      "t": 45922.93150000014,
      "d": 223.0762166666682,
      "v": 94
    },
    {
      "midi": 65,
      "hit": false,
      "t": 46153.70000000004,
      "d": 223.0762166666682,
      "v": 94
    },
    {
      "midi": 68,
      "hit": false,
      "t": 46153.70000000004,
      "d": 223.0762166666682,
      "v": 94
    },
    {
      "midi": 72,
      "hit": false,
      "t": 46153.70000000004,
      "d": 223.0762166666682,
      "v": 94
    },
    {
      "midi": 77,
      "hit": false,
      "t": 46153.700000000135,
      "d": 223.0762166666682,
      "v": 94
    },
    {
      "midi": 89,
      "hit": false,
      "t": 46153.700000000135,
      "d": 223.0762166666682,
      "v": 94
    },
    {
      "midi": 80,
      "hit": false,
      "t": 46384.468500000134,
      "d": 223.0762166666682,
      "v": 95
    },
    {
      "midi": 65,
      "hit": false,
      "t": 46615.237000000045,
      "d": 223.0762166666682,
      "v": 95
    },
    {
      "midi": 68,
      "hit": false,
      "t": 46615.237000000045,
      "d": 223.0762166666682,
      "v": 95
    },
    {
      "midi": 72,
      "hit": false,
      "t": 46615.237000000045,
      "d": 223.0762166666682,
      "v": 95
    },
    {
      "midi": 85,
      "hit": false,
      "t": 46615.23700000013,
      "d": 223.0762166666682,
      "v": 95
    },
    {
      "midi": 84,
      "hit": false,
      "t": 46846.00550000013,
      "d": 223.0762166666682,
      "v": 96
    },
    {
      "midi": 65,
      "hit": false,
      "t": 47076.77400000005,
      "d": 223.0762166666682,
      "v": 96
    },
    {
      "midi": 70,
      "hit": false,
      "t": 47076.77400000005,
      "d": 223.0762166666682,
      "v": 96
    },
    {
      "midi": 73,
      "hit": false,
      "t": 47076.77400000005,
      "d": 223.0762166666682,
      "v": 96
    },
    {
      "midi": 82,
      "hit": false,
      "t": 47076.77400000013,
      "d": 223.0762166666682,
      "v": 96
    },
    {
      "midi": 94,
      "hit": false,
      "t": 47076.77400000013,
      "d": 223.0762166666682,
      "v": 96
    },
    {
      "midi": 65,
      "hit": false,
      "t": 47538.31100000005,
      "d": 223.0762166666682,
      "v": 97
    },
    {
      "midi": 70,
      "hit": false,
      "t": 47538.31100000005,
      "d": 223.0762166666682,
      "v": 97
    },
    {
      "midi": 73,
      "hit": false,
      "t": 47538.31100000005,
      "d": 223.0762166666682,
      "v": 97
    },
    {
      "midi": 89,
      "hit": false,
      "t": 47538.31100000013,
      "d": 223.0762166666682,
      "v": 97
    },
    {
      "midi": 101,
      "hit": false,
      "t": 47538.31100000013,
      "d": 223.0762166666682,
      "v": 97
    },
    {
      "midi": 65,
      "hit": false,
      "t": 47999.848000000056,
      "d": 223.0762166666682,
      "v": 98
    },
    {
      "midi": 68,
      "hit": false,
      "t": 47999.848000000056,
      "d": 223.0762166666682,
      "v": 98
    },
    {
      "midi": 72,
      "hit": false,
      "t": 47999.848000000056,
      "d": 223.0762166666682,
      "v": 98
    },
    {
      "midi": 89,
      "hit": false,
      "t": 47999.84800000014,
      "d": 223.0762166666682,
      "v": 108
    },
    {
      "midi": 101,
      "hit": false,
      "t": 47999.84800000014,
      "d": 223.0762166666682,
      "v": 108
    },
    {
      "midi": 65,
      "hit": false,
      "t": 48461.38500000006,
      "d": 223.0762166666682,
      "v": 98
    },
    {
      "midi": 68,
      "hit": false,
      "t": 48461.38500000006,
      "d": 223.0762166666682,
      "v": 98
    },
    {
      "midi": 72,
      "hit": false,
      "t": 48461.38500000006,
      "d": 223.0762166666682,
      "v": 98
    },
    {
      "midi": 87,
      "hit": false,
      "t": 48461.38500000014,
      "d": 223.0762166666682,
      "v": 98
    },
    {
      "midi": 85,
      "hit": false,
      "t": 48692.15350000014,
      "d": 223.0762166666682,
      "v": 98
    },
    {
      "midi": 65,
      "hit": false,
      "t": 48922.922000000064,
      "d": 223.0762166666682,
      "v": 98
    },
    {
      "midi": 70,
      "hit": false,
      "t": 48922.922000000064,
      "d": 223.0762166666682,
      "v": 98
    },
    {
      "midi": 73,
      "hit": false,
      "t": 48922.922000000064,
      "d": 223.0762166666682,
      "v": 98
    },
    {
      "midi": 84,
      "hit": false,
      "t": 48922.92200000014,
      "d": 223.0762166666682,
      "v": 98
    },
    {
      "midi": 96,
      "hit": false,
      "t": 48922.92200000014,
      "d": 223.0762166666682,
      "v": 98
    },
    {
      "midi": 84,
      "hit": false,
      "t": 49153.690500000135,
      "d": 223.0762166666682,
      "v": 98
    },
    {
      "midi": 65,
      "hit": false,
      "t": 49384.45900000007,
      "d": 223.0762166666682,
      "v": 98
    },
    {
      "midi": 70,
      "hit": false,
      "t": 49384.45900000007,
      "d": 223.0762166666682,
      "v": 98
    },
    {
      "midi": 73,
      "hit": false,
      "t": 49384.45900000007,
      "d": 223.0762166666682,
      "v": 98
    },
    {
      "midi": 82,
      "hit": false,
      "t": 49384.45900000013,
      "d": 223.0762166666682,
      "v": 98
    },
    {
      "midi": 79,
      "hit": false,
      "t": 49615.22750000013,
      "d": 223.0762166666682,
      "v": 98
    },
    {
      "midi": 65,
      "hit": false,
      "t": 49845.99600000007,
      "d": 223.0762166666682,
      "v": 98
    },
    {
      "midi": 68,
      "hit": false,
      "t": 49845.99600000007,
      "d": 223.0762166666682,
      "v": 98
    },
    {
      "midi": 72,
      "hit": false,
      "t": 49845.99600000007,
      "d": 223.0762166666682,
      "v": 98
    },
    {
      "midi": 77,
      "hit": false,
      "t": 49845.99600000013,
      "d": 223.0762166666682,
      "v": 98
    },
    {
      "midi": 89,
      "hit": false,
      "t": 49845.99600000013,
      "d": 223.0762166666682,
      "v": 98
    },
    {
      "midi": 78,
      "hit": false,
      "t": 50076.76450000013,
      "d": 223.0762166666682,
      "v": 98
    },
    {
      "midi": 61,
      "hit": false,
      "t": 50307.533000000076,
      "d": 223.0762166666682,
      "v": 98
    },
    {
      "midi": 65,
      "hit": false,
      "t": 50307.533000000076,
      "d": 223.0762166666682,
      "v": 98
    },
    {
      "midi": 68,
      "hit": false,
      "t": 50307.533000000076,
      "d": 223.0762166666682,
      "v": 98
    },
    {
      "midi": 77,
      "hit": false,
      "t": 50307.53300000013,
      "d": 223.0762166666682,
      "v": 98
    },
    {
      "midi": 89,
      "hit": false,
      "t": 50307.53300000013,
      "d": 223.0762166666682,
      "v": 98
    },
    {
      "midi": 80,
      "hit": false,
      "t": 50538.301500000125,
      "d": 223.0762166666682,
      "v": 98
    },
    {
      "midi": 92,
      "hit": false,
      "t": 50538.301500000125,
      "d": 223.0762166666682,
      "v": 98
    },
    {
      "midi": 60,
      "hit": false,
      "t": 50769.07000000008,
      "d": 223.0762166666682,
      "v": 108
    },
    {
      "midi": 64,
      "hit": false,
      "t": 50769.07000000008,
      "d": 223.0762166666682,
      "v": 108
    },
    {
      "midi": 67,
      "hit": false,
      "t": 50769.07000000008,
      "d": 223.0762166666682,
      "v": 108
    },
    {
      "midi": 84,
      "hit": false,
      "t": 50769.07000000012,
      "d": 223.0762166666682,
      "v": 108
    },
    {
      "midi": 96,
      "hit": false,
      "t": 50769.07000000012,
      "d": 223.0762166666682,
      "v": 108
    },
    {
      "midi": 36,
      "hit": false,
      "t": 51230.607000000084,
      "d": 223.0762166666682,
      "v": 84
    },
    {
      "midi": 66,
      "hit": false,
      "t": 51230.60700000013,
      "d": 223.0762166666682,
      "v": 84
    },
    {
      "midi": 72,
      "hit": false,
      "t": 51230.60700000013,
      "d": 223.0762166666682,
      "v": 84
    },
    {
      "midi": 76,
      "hit": false,
      "t": 51230.60700000013,
      "d": 223.0762166666682,
      "v": 84
    },
    {
      "midi": 78,
      "hit": false,
      "t": 51230.60700000013,
      "d": 223.0762166666682,
      "v": 84
    },
    {
      "midi": 40,
      "hit": false,
      "t": 51461.37550000008,
      "d": 223.0762166666682,
      "v": 84
    },
    {
      "midi": 64,
      "hit": false,
      "t": 51461.375500000126,
      "d": 223.0762166666682,
      "v": 84
    },
    {
      "midi": 42,
      "hit": false,
      "t": 51692.14400000008,
      "d": 223.0762166666682,
      "v": 94
    },
    {
      "midi": 66,
      "hit": false,
      "t": 51692.144000000124,
      "d": 223.0762166666682,
      "v": 84
    },
    {
      "midi": 72,
      "hit": false,
      "t": 51692.144000000124,
      "d": 223.0762166666682,
      "v": 84
    },
    {
      "midi": 76,
      "hit": false,
      "t": 51692.144000000124,
      "d": 223.0762166666682,
      "v": 84
    },
    {
      "midi": 78,
      "hit": false,
      "t": 51692.144000000124,
      "d": 223.0762166666682,
      "v": 84
    },
    {
      "midi": 36,
      "hit": false,
      "t": 52153.681000000084,
      "d": 223.0762166666682,
      "v": 84
    },
    {
      "midi": 67,
      "hit": false,
      "t": 52153.68100000013,
      "d": 223.0762166666682,
      "v": 84
    },
    {
      "midi": 72,
      "hit": false,
      "t": 52153.68100000013,
      "d": 223.0762166666682,
      "v": 84
    },
    {
      "midi": 75,
      "hit": false,
      "t": 52153.68100000013,
      "d": 223.0762166666682,
      "v": 84
    },
    {
      "midi": 79,
      "hit": false,
      "t": 52153.68100000013,
      "d": 223.0762166666682,
      "v": 84
    },
    {
      "midi": 40,
      "hit": false,
      "t": 52384.44950000008,
      "d": 223.0762166666682,
      "v": 84
    },
    {
      "midi": 64,
      "hit": false,
      "t": 52384.449500000126,
      "d": 223.0762166666682,
      "v": 84
    },
    {
      "midi": 43,
      "hit": false,
      "t": 52615.21800000008,
      "d": 223.0762166666682,
      "v": 94
    },
    {
      "midi": 67,
      "hit": false,
      "t": 52615.218000000124,
      "d": 223.0762166666682,
      "v": 84
    },
    {
      "midi": 72,
      "hit": false,
      "t": 52615.218000000124,
      "d": 223.0762166666682,
      "v": 84
    },
    {
      "midi": 76,
      "hit": false,
      "t": 52615.218000000124,
      "d": 223.0762166666682,
      "v": 84
    },
    {
      "midi": 79,
      "hit": false,
      "t": 52615.218000000124,
      "d": 223.0762166666682,
      "v": 84
    },
    {
      "midi": 36,
      "hit": false,
      "t": 53076.755000000085,
      "d": 223.0762166666682,
      "v": 84
    },
    {
      "midi": 68,
      "hit": false,
      "t": 53076.75500000013,
      "d": 223.0762166666682,
      "v": 84
    },
    {
      "midi": 72,
      "hit": false,
      "t": 53076.75500000013,
      "d": 223.0762166666682,
      "v": 84
    },
    {
      "midi": 75,
      "hit": false,
      "t": 53076.75500000013,
      "d": 223.0762166666682,
      "v": 84
    },
    {
      "midi": 80,
      "hit": false,
      "t": 53076.75500000013,
      "d": 223.0762166666682,
      "v": 84
    },
    {
      "midi": 39,
      "hit": false,
      "t": 53307.52350000008,
      "d": 223.0762166666682,
      "v": 84
    },
    {
      "midi": 63,
      "hit": false,
      "t": 53307.52350000013,
      "d": 223.0762166666682,
      "v": 84
    },
    {
      "midi": 44,
      "hit": false,
      "t": 53538.29200000008,
      "d": 223.0762166666682,
      "v": 94
    },
    {
      "midi": 68,
      "hit": false,
      "t": 53538.292000000125,
      "d": 223.0762166666682,
      "v": 84
    },
    {
      "midi": 72,
      "hit": false,
      "t": 53538.292000000125,
      "d": 223.0762166666682,
      "v": 84
    },
    {
      "midi": 75,
      "hit": false,
      "t": 53538.292000000125,
      "d": 223.0762166666682,
      "v": 84
    },
    {
      "midi": 80,
      "hit": false,
      "t": 53538.292000000125,
      "d": 223.0762166666682,
      "v": 84
    },
    {
      "midi": 42,
      "hit": false,
      "t": 53999.829000000085,
      "d": 223.0762166666682,
      "v": 84
    },
    {
      "midi": 69,
      "hit": false,
      "t": 53999.82900000013,
      "d": 223.0762166666682,
      "v": 84
    },
    {
      "midi": 73,
      "hit": false,
      "t": 53999.82900000013,
      "d": 223.0762166666682,
      "v": 84
    },
    {
      "midi": 78,
      "hit": false,
      "t": 53999.82900000013,
      "d": 223.0762166666682,
      "v": 84
    },
    {
      "midi": 40,
      "hit": false,
      "t": 54230.59750000008,
      "d": 223.0762166666682,
      "v": 84
    },
    {
      "midi": 68,
      "hit": false,
      "t": 54230.59750000013,
      "d": 223.0762166666682,
      "v": 84
    },
    {
      "midi": 71,
      "hit": false,
      "t": 54230.59750000013,
      "d": 223.0762166666682,
      "v": 84
    },
    {
      "midi": 76,
      "hit": false,
      "t": 54230.59750000013,
      "d": 223.0762166666682,
      "v": 84
    },
    {
      "midi": 38,
      "hit": false,
      "t": 54461.36600000008,
      "d": 223.0762166666682,
      "v": 108
    },
    {
      "midi": 66,
      "hit": false,
      "t": 54461.366000000125,
      "d": 223.0762166666682,
      "v": 108
    },
    {
      "midi": 69,
      "hit": false,
      "t": 54461.366000000125,
      "d": 223.0762166666682,
      "v": 108
    },
    {
      "midi": 74,
      "hit": false,
      "t": 54461.366000000125,
      "d": 223.0762166666682,
      "v": 108
    },
    {
      "midi": 62,
      "hit": false,
      "t": 54922.90300000013,
      "d": 223.0762166666682,
      "v": 94
    },
    {
      "midi": 66,
      "hit": false,
      "t": 54922.90300000013,
      "d": 223.0762166666682,
      "v": 94
    },
    {
      "midi": 69,
      "hit": false,
      "t": 54922.90300000013,
      "d": 223.0762166666682,
      "v": 94
    },
    {
      "midi": 62,
      "hit": false,
      "t": 55384.44000000013,
      "d": 223.0762166666682,
      "v": 84
    },
    {
      "midi": 69,
      "hit": false,
      "t": 55384.44000000013,
      "d": 223.0762166666682,
      "v": 84
    },
    {
      "midi": 57,
      "hit": false,
      "t": 55845.977000000086,
      "d": 223.0762166666682,
      "v": 84
    },
    {
      "midi": 66,
      "hit": false,
      "t": 55845.97700000014,
      "d": 223.0762166666682,
      "v": 84
    },
    {
      "midi": 69,
      "hit": false,
      "t": 55845.97700000014,
      "d": 223.0762166666682,
      "v": 84
    },
    {
      "midi": 62,
      "hit": false,
      "t": 56076.745500000085,
      "d": 223.0762166666682,
      "v": 84
    },
    {
      "midi": 66,
      "hit": false,
      "t": 56307.51400000008,
      "d": 223.0762166666682,
      "v": 94
    },
    {
      "midi": 67,
      "hit": false,
      "t": 56307.51400000014,
      "d": 223.0762166666682,
      "v": 84
    },
    {
      "midi": 69,
      "hit": false,
      "t": 56307.51400000014,
      "d": 223.0762166666682,
      "v": 84
    },
    {
      "midi": 66,
      "hit": false,
      "t": 56769.05100000009,
      "d": 223.0762166666682,
      "v": 84
    },
    {
      "midi": 67,
      "hit": false,
      "t": 56769.051000000145,
      "d": 223.0762166666682,
      "v": 84
    },
    {
      "midi": 69,
      "hit": false,
      "t": 56769.051000000145,
      "d": 223.0762166666682,
      "v": 84
    },
    {
      "midi": 64,
      "hit": false,
      "t": 56999.819500000085,
      "d": 223.0762166666682,
      "v": 84
    },
    {
      "midi": 62,
      "hit": false,
      "t": 57230.58800000008,
      "d": 223.0762166666682,
      "v": 94
    },
    {
      "midi": 66,
      "hit": false,
      "t": 57230.58800000015,
      "d": 223.0762166666682,
      "v": 84
    },
    {
      "midi": 69,
      "hit": false,
      "t": 57230.58800000015,
      "d": 223.0762166666682,
      "v": 84
    },
    {
      "midi": 57,
      "hit": false,
      "t": 57692.12500000009,
      "d": 223.0762166666682,
      "v": 84
    },
    {
      "midi": 66,
      "hit": false,
      "t": 57692.12500000015,
      "d": 223.0762166666682,
      "v": 84
    },
    {
      "midi": 69,
      "hit": false,
      "t": 57692.12500000015,
      "d": 223.0762166666682,
      "v": 84
    },
    {
      "midi": 62,
      "hit": false,
      "t": 57922.893500000086,
      "d": 223.0762166666682,
      "v": 84
    },
    {
      "midi": 66,
      "hit": false,
      "t": 58153.662000000084,
      "d": 223.0762166666682,
      "v": 94
    },
    {
      "midi": 67,
      "hit": false,
      "t": 58153.66200000016,
      "d": 223.0762166666682,
      "v": 84
    },
    {
      "midi": 69,
      "hit": false,
      "t": 58153.66200000016,
      "d": 223.0762166666682,
      "v": 84
    },
    {
      "midi": 66,
      "hit": false,
      "t": 58615.19900000009,
      "d": 223.0762166666682,
      "v": 84
    },
    {
      "midi": 67,
      "hit": false,
      "t": 58615.19900000016,
      "d": 223.0762166666682,
      "v": 84
    },
    {
      "midi": 69,
      "hit": false,
      "t": 58615.19900000016,
      "d": 223.0762166666682,
      "v": 84
    },
    {
      "midi": 64,
      "hit": false,
      "t": 58845.967500000086,
      "d": 223.0762166666682,
      "v": 84
    },
    {
      "midi": 62,
      "hit": false,
      "t": 59076.736000000084,
      "d": 223.0762166666682,
      "v": 94
    },
    {
      "midi": 66,
      "hit": false,
      "t": 59076.736000000164,
      "d": 223.0762166666682,
      "v": 84
    },
    {
      "midi": 69,
      "hit": false,
      "t": 59076.736000000164,
      "d": 223.0762166666682,
      "v": 84
    },
    {
      "midi": 57,
      "hit": false,
      "t": 59538.27300000009,
      "d": 223.0762166666682,
      "v": 84
    },
    {
      "midi": 66,
      "hit": false,
      "t": 59538.27300000017,
      "d": 223.0762166666682,
      "v": 84
    },
    {
      "midi": 69,
      "hit": false,
      "t": 59538.27300000017,
      "d": 223.0762166666682,
      "v": 84
    },
    {
      "midi": 62,
      "hit": false,
      "t": 59769.04150000009,
      "d": 223.0762166666682,
      "v": 84
    },
    {
      "midi": 66,
      "hit": false,
      "t": 59999.810000000085,
      "d": 223.0762166666682,
      "v": 94
    },
    {
      "midi": 67,
      "hit": false,
      "t": 59999.81000000017,
      "d": 223.0762166666682,
      "v": 84
    },
    {
      "midi": 69,
      "hit": false,
      "t": 59999.81000000017,
      "d": 223.0762166666682,
      "v": 84
    },
    {
      "midi": 66,
      "hit": false,
      "t": 60461.34700000009,
      "d": 223.0762166666682,
      "v": 84
    },
    {
      "midi": 67,
      "hit": false,
      "t": 60461.347000000176,
      "d": 223.0762166666682,
      "v": 84
    },
    {
      "midi": 69,
      "hit": false,
      "t": 60461.347000000176,
      "d": 223.0762166666682,
      "v": 84
    },
    {
      "midi": 65,
      "hit": false,
      "t": 60692.11550000009,
      "d": 234.614641666667,
      "v": 94
    },
    {
      "midi": 67,
      "hit": false,
      "t": 60922.88400000018,
      "d": 223.0762166666682,
      "v": 84
    },
    {
      "midi": 69,
      "hit": false,
      "t": 60922.88400000018,
      "d": 223.0762166666682,
      "v": 84
    },
    {
      "midi": 66,
      "hit": false,
      "t": 61384.42100000009,
      "d": 223.0762166666682,
      "v": 84
    },
    {
      "midi": 67,
      "hit": false,
      "t": 61384.421000000184,
      "d": 223.0762166666682,
      "v": 84
    },
    {
      "midi": 69,
      "hit": false,
      "t": 61384.421000000184,
      "d": 223.0762166666682,
      "v": 84
    },
    {
      "midi": 64,
      "hit": false,
      "t": 61615.18950000009,
      "d": 223.0762166666682,
      "v": 84
    },
    {
      "midi": 62,
      "hit": false,
      "t": 61845.958000000086,
      "d": 1838.4557166666636,
      "v": 94
    },
    {
      "midi": 66,
      "hit": false,
      "t": 61845.95800000019,
      "d": 223.0762166666682,
      "v": 84
    },
    {
      "midi": 69,
      "hit": false,
      "t": 61845.95800000019,
      "d": 223.0762166666682,
      "v": 84
    },
    {
      "midi": 66,
      "hit": false,
      "t": 62307.49500000019,
      "d": 223.0762166666682,
      "v": 84
    },
    {
      "midi": 69,
      "hit": false,
      "t": 62307.49500000019,
      "d": 223.0762166666682,
      "v": 84
    },
    {
      "midi": 66,
      "hit": false,
      "t": 62769.032000000196,
      "d": 223.0762166666682,
      "v": 84
    },
    {
      "midi": 69,
      "hit": false,
      "t": 62769.032000000196,
      "d": 223.0762166666682,
      "v": 84
    },
    {
      "midi": 66,
      "hit": false,
      "t": 63230.5690000002,
      "d": 223.0762166666682,
      "v": 94
    },
    {
      "midi": 69,
      "hit": false,
      "t": 63230.5690000002,
      "d": 223.0762166666682,
      "v": 94
    },
    {
      "midi": 74,
      "hit": false,
      "t": 63461.3375000002,
      "d": 223.0762166666682,
      "v": 94
    },
    {
      "midi": 62,
      "hit": false,
      "t": 63692.10600000008,
      "d": 223.0762166666682,
      "v": 94
    },
    {
      "midi": 66,
      "hit": false,
      "t": 63692.10600000008,
      "d": 223.0762166666682,
      "v": 94
    },
    {
      "midi": 69,
      "hit": false,
      "t": 63692.106000000196,
      "d": 223.0762166666682,
      "v": 104
    },
    {
      "midi": 78,
      "hit": false,
      "t": 63692.106000000196,
      "d": 223.0762166666682,
      "v": 104
    },
    {
      "midi": 69,
      "hit": false,
      "t": 63922.874500000195,
      "d": 223.0762166666682,
      "v": 94
    },
    {
      "midi": 62,
      "hit": false,
      "t": 64153.643000000084,
      "d": 223.0762166666682,
      "v": 94
    },
    {
      "midi": 66,
      "hit": false,
      "t": 64153.643000000084,
      "d": 223.0762166666682,
      "v": 94
    },
    {
      "midi": 69,
      "hit": false,
      "t": 64153.64300000019,
      "d": 223.0762166666682,
      "v": 94
    },
    {
      "midi": 78,
      "hit": false,
      "t": 64153.64300000019,
      "d": 223.0762166666682,
      "v": 94
    },
    {
      "midi": 69,
      "hit": false,
      "t": 64384.41150000019,
      "d": 223.0762166666682,
      "v": 94
    },
    {
      "midi": 78,
      "hit": false,
      "t": 64384.41150000019,
      "d": 223.0762166666682,
      "v": 94
    },
    {
      "midi": 62,
      "hit": false,
      "t": 64615.18000000009,
      "d": 223.0762166666682,
      "v": 94
    },
    {
      "midi": 67,
      "hit": false,
      "t": 64615.18000000009,
      "d": 223.0762166666682,
      "v": 94
    },
    {
      "midi": 71,
      "hit": false,
      "t": 64615.18000000009,
      "d": 223.0762166666682,
      "v": 94
    },
    {
      "midi": 69,
      "hit": false,
      "t": 64615.18000000019,
      "d": 223.0762166666682,
      "v": 104
    },
    {
      "midi": 83,
      "hit": false,
      "t": 64615.18000000019,
      "d": 223.0762166666682,
      "v": 104
    },
    {
      "midi": 69,
      "hit": false,
      "t": 64845.94850000019,
      "d": 223.0762166666682,
      "v": 94
    },
    {
      "midi": 62,
      "hit": false,
      "t": 65076.71700000009,
      "d": 223.0762166666682,
      "v": 94
    },
    {
      "midi": 67,
      "hit": false,
      "t": 65076.71700000009,
      "d": 223.0762166666682,
      "v": 94
    },
    {
      "midi": 71,
      "hit": false,
      "t": 65076.71700000009,
      "d": 223.0762166666682,
      "v": 94
    },
    {
      "midi": 69,
      "hit": false,
      "t": 65076.717000000186,
      "d": 223.0762166666682,
      "v": 94
    },
    {
      "midi": 78,
      "hit": false,
      "t": 65076.717000000186,
      "d": 223.0762166666682,
      "v": 94
    },
    {
      "midi": 69,
      "hit": false,
      "t": 65307.485500000184,
      "d": 223.0762166666682,
      "v": 94
    },
    {
      "midi": 76,
      "hit": false,
      "t": 65307.485500000184,
      "d": 223.0762166666682,
      "v": 94
    },
    {
      "midi": 62,
      "hit": false,
      "t": 65538.25400000009,
      "d": 223.0762166666682,
      "v": 94
    },
    {
      "midi": 66,
      "hit": false,
      "t": 65538.25400000009,
      "d": 223.0762166666682,
      "v": 94
    },
    {
      "midi": 69,
      "hit": false,
      "t": 65538.25400000019,
      "d": 223.0762166666682,
      "v": 104
    },
    {
      "midi": 78,
      "hit": false,
      "t": 65538.25400000019,
      "d": 223.0762166666682,
      "v": 104
    },
    {
      "midi": 69,
      "hit": false,
      "t": 65769.0225000002,
      "d": 223.0762166666682,
      "v": 94
    },
    {
      "midi": 62,
      "hit": false,
      "t": 65999.79100000008,
      "d": 223.0762166666682,
      "v": 94
    },
    {
      "midi": 66,
      "hit": false,
      "t": 65999.79100000008,
      "d": 223.0762166666682,
      "v": 94
    },
    {
      "midi": 69,
      "hit": false,
      "t": 65999.7910000002,
      "d": 223.0762166666682,
      "v": 94
    },
    {
      "midi": 78,
      "hit": false,
      "t": 65999.7910000002,
      "d": 223.0762166666682,
      "v": 94
    },
    {
      "midi": 69,
      "hit": false,
      "t": 66230.5595000002,
      "d": 223.0762166666682,
      "v": 94
    },
    {
      "midi": 78,
      "hit": false,
      "t": 66230.5595000002,
      "d": 223.0762166666682,
      "v": 94
    },
    {
      "midi": 62,
      "hit": false,
      "t": 66461.32800000008,
      "d": 223.0762166666682,
      "v": 94
    },
    {
      "midi": 67,
      "hit": false,
      "t": 66461.32800000008,
      "d": 223.0762166666682,
      "v": 94
    },
    {
      "midi": 71,
      "hit": false,
      "t": 66461.32800000008,
      "d": 223.0762166666682,
      "v": 94
    },
    {
      "midi": 69,
      "hit": false,
      "t": 66461.32800000021,
      "d": 223.0762166666682,
      "v": 104
    },
    {
      "midi": 83,
      "hit": false,
      "t": 66461.32800000021,
      "d": 223.0762166666682,
      "v": 104
    },
    {
      "midi": 69,
      "hit": false,
      "t": 66692.09650000022,
      "d": 223.0762166666682,
      "v": 94
    },
    {
      "midi": 62,
      "hit": false,
      "t": 66922.86500000008,
      "d": 223.0762166666682,
      "v": 94
    },
    {
      "midi": 67,
      "hit": false,
      "t": 66922.86500000008,
      "d": 223.0762166666682,
      "v": 94
    },
    {
      "midi": 71,
      "hit": false,
      "t": 66922.86500000008,
      "d": 223.0762166666682,
      "v": 94
    },
    {
      "midi": 69,
      "hit": false,
      "t": 66922.86500000022,
      "d": 223.0762166666682,
      "v": 94
    },
    {
      "midi": 78,
      "hit": false,
      "t": 66922.86500000022,
      "d": 223.0762166666682,
      "v": 94
    },
    {
      "midi": 69,
      "hit": false,
      "t": 67153.63350000023,
      "d": 223.0762166666682,
      "v": 94
    },
    {
      "midi": 76,
      "hit": false,
      "t": 67153.63350000023,
      "d": 223.0762166666682,
      "v": 94
    },
    {
      "midi": 62,
      "hit": false,
      "t": 67384.40200000007,
      "d": 223.0762166666682,
      "v": 94
    },
    {
      "midi": 66,
      "hit": false,
      "t": 67384.40200000007,
      "d": 223.0762166666682,
      "v": 94
    },
    {
      "midi": 69,
      "hit": false,
      "t": 67384.40200000023,
      "d": 223.0762166666682,
      "v": 94
    },
    {
      "midi": 74,
      "hit": false,
      "t": 67384.40200000023,
      "d": 223.0762166666682,
      "v": 94
    },
    {
      "midi": 69,
      "hit": false,
      "t": 67615.17050000024,
      "d": 223.0762166666682,
      "v": 94
    },
    {
      "midi": 78,
      "hit": false,
      "t": 67615.17050000024,
      "d": 223.0762166666682,
      "v": 94
    },
    {
      "midi": 62,
      "hit": false,
      "t": 67845.93900000007,
      "d": 223.0762166666682,
      "v": 94
    },
    {
      "midi": 66,
      "hit": false,
      "t": 67845.93900000007,
      "d": 223.0762166666682,
      "v": 94
    },
    {
      "midi": 69,
      "hit": false,
      "t": 67845.93900000025,
      "d": 223.0762166666682,
      "v": 94
    },
    {
      "midi": 83,
      "hit": false,
      "t": 67845.93900000025,
      "d": 223.0762166666682,
      "v": 94
    },
    {
      "midi": 69,
      "hit": false,
      "t": 68076.70750000025,
      "d": 223.0762166666682,
      "v": 94
    },
    {
      "midi": 81,
      "hit": false,
      "t": 68076.70750000025,
      "d": 223.0762166666682,
      "v": 94
    },
    {
      "midi": 62,
      "hit": false,
      "t": 68307.47600000007,
      "d": 223.0762166666682,
      "v": 94
    },
    {
      "midi": 67,
      "hit": false,
      "t": 68307.47600000007,
      "d": 223.0762166666682,
      "v": 94
    },
    {
      "midi": 71,
      "hit": false,
      "t": 68307.47600000007,
      "d": 223.0762166666682,
      "v": 94
    },
    {
      "midi": 69,
      "hit": false,
      "t": 68307.47600000026,
      "d": 223.0762166666682,
      "v": 104
    },
    {
      "midi": 79,
      "hit": false,
      "t": 68307.47600000026,
      "d": 223.0762166666682,
      "v": 104
    },
    {
      "midi": 69,
      "hit": false,
      "t": 68538.24450000026,
      "d": 223.0762166666682,
      "v": 94
    },
    {
      "midi": 62,
      "hit": false,
      "t": 68769.01300000006,
      "d": 223.0762166666682,
      "v": 94
    },
    {
      "midi": 67,
      "hit": false,
      "t": 68769.01300000006,
      "d": 223.0762166666682,
      "v": 94
    },
    {
      "midi": 69,
      "hit": false,
      "t": 68769.01300000006,
      "d": 223.0762166666682,
      "v": 94
    },
    {
      "midi": 71,
      "hit": false,
      "t": 68769.01300000006,
      "d": 223.0762166666682,
      "v": 94
    },
    {
      "midi": 86,
      "hit": false,
      "t": 68769.01300000027,
      "d": 223.0762166666682,
      "v": 104
    },
    {
      "midi": 62,
      "hit": false,
      "t": 69230.55000000006,
      "d": 223.0762166666682,
      "v": 94
    },
    {
      "midi": 66,
      "hit": false,
      "t": 69230.55000000006,
      "d": 223.0762166666682,
      "v": 94
    },
    {
      "midi": 69,
      "hit": false,
      "t": 69230.55000000006,
      "d": 223.0762166666682,
      "v": 94
    },
    {
      "midi": 86,
      "hit": false,
      "t": 69230.55000000026,
      "d": 223.0762166666682,
      "v": 104
    },
    {
      "midi": 62,
      "hit": false,
      "t": 69692.08700000006,
      "d": 223.0762166666682,
      "v": 94
    },
    {
      "midi": 66,
      "hit": false,
      "t": 69692.08700000006,
      "d": 223.0762166666682,
      "v": 94
    },
    {
      "midi": 69,
      "hit": false,
      "t": 69692.08700000006,
      "d": 223.0762166666682,
      "v": 94
    },
    {
      "midi": 85,
      "hit": false,
      "t": 69692.08700000026,
      "d": 223.0762166666682,
      "v": 94
    },
    {
      "midi": 69,
      "hit": false,
      "t": 69922.85550000027,
      "d": 223.0762166666682,
      "v": 94
    },
    {
      "midi": 83,
      "hit": false,
      "t": 69922.85550000027,
      "d": 223.0762166666682,
      "v": 94
    },
    {
      "midi": 62,
      "hit": false,
      "t": 70153.62400000005,
      "d": 223.0762166666682,
      "v": 94
    },
    {
      "midi": 67,
      "hit": false,
      "t": 70153.62400000005,
      "d": 223.0762166666682,
      "v": 94
    },
    {
      "midi": 71,
      "hit": false,
      "t": 70153.62400000005,
      "d": 223.0762166666682,
      "v": 94
    },
    {
      "midi": 69,
      "hit": false,
      "t": 70153.62400000027,
      "d": 223.0762166666682,
      "v": 94
    },
    {
      "midi": 81,
      "hit": false,
      "t": 70153.62400000027,
      "d": 223.0762166666682,
      "v": 94
    },
    {
      "midi": 69,
      "hit": false,
      "t": 70384.39250000028,
      "d": 223.0762166666682,
      "v": 94
    },
    {
      "midi": 81,
      "hit": false,
      "t": 70384.39250000028,
      "d": 223.0762166666682,
      "v": 94
    },
    {
      "midi": 62,
      "hit": false,
      "t": 70615.16100000005,
      "d": 223.0762166666682,
      "v": 94
    },
    {
      "midi": 67,
      "hit": false,
      "t": 70615.16100000005,
      "d": 223.0762166666682,
      "v": 94
    },
    {
      "midi": 71,
      "hit": false,
      "t": 70615.16100000005,
      "d": 223.0762166666682,
      "v": 94
    },
    {
      "midi": 69,
      "hit": false,
      "t": 70615.16100000028,
      "d": 223.0762166666682,
      "v": 94
    },
    {
      "midi": 79,
      "hit": false,
      "t": 70615.16100000028,
      "d": 223.0762166666682,
      "v": 94
    },
    {
      "midi": 69,
      "hit": false,
      "t": 70845.92950000029,
      "d": 223.0762166666682,
      "v": 94
    },
    {
      "midi": 76,
      "hit": false,
      "t": 70845.92950000029,
      "d": 223.0762166666682,
      "v": 94
    },
    {
      "midi": 62,
      "hit": false,
      "t": 71076.69800000005,
      "d": 223.0762166666682,
      "v": 94
    },
    {
      "midi": 66,
      "hit": false,
      "t": 71076.69800000005,
      "d": 223.0762166666682,
      "v": 94
    },
    {
      "midi": 69,
      "hit": false,
      "t": 71076.6980000003,
      "d": 223.0762166666682,
      "v": 94
    },
    {
      "midi": 74,
      "hit": false,
      "t": 71076.6980000003,
      "d": 223.0762166666682,
      "v": 94
    },
    {
      "midi": 69,
      "hit": false,
      "t": 71307.4665000003,
      "d": 223.0762166666682,
      "v": 94
    },
    {
      "midi": 73,
      "hit": false,
      "t": 71307.4665000003,
      "d": 223.0762166666682,
      "v": 94
    },
    {
      "midi": 59,
      "hit": false,
      "t": 71538.23500000004,
      "d": 223.0762166666682,
      "v": 94
    },
    {
      "midi": 62,
      "hit": false,
      "t": 71538.23500000004,
      "d": 223.0762166666682,
      "v": 94
    },
    {
      "midi": 66,
      "hit": false,
      "t": 71538.23500000004,
      "d": 223.0762166666682,
      "v": 94
    },
    {
      "midi": 69,
      "hit": false,
      "t": 71538.2350000003,
      "d": 223.0762166666682,
      "v": 94
    },
    {
      "midi": 74,
      "hit": false,
      "t": 71538.2350000003,
      "d": 223.0762166666682,
      "v": 94
    },
    {
      "midi": 69,
      "hit": false,
      "t": 71769.00350000031,
      "d": 223.0762166666682,
      "v": 94
    },
    {
      "midi": 78,
      "hit": false,
      "t": 71769.00350000031,
      "d": 223.0762166666682,
      "v": 94
    },
    {
      "midi": 57,
      "hit": false,
      "t": 71999.77200000004,
      "d": 223.0762166666682,
      "v": 104
    },
    {
      "midi": 61,
      "hit": false,
      "t": 71999.77200000004,
      "d": 223.0762166666682,
      "v": 104
    },
    {
      "midi": 64,
      "hit": false,
      "t": 71999.77200000004,
      "d": 223.0762166666682,
      "v": 104
    },
    {
      "midi": 69,
      "hit": false,
      "t": 71999.77200000032,
      "d": 915.3817166666704,
      "v": 104
    },
    {
      "midi": 81,
      "hit": false,
      "t": 71999.77200000032,
      "d": 915.3817166666704,
      "v": 104
    },
    {
      "midi": 33,
      "hit": false,
      "t": 72461.30900000004,
      "d": 223.0762166666682,
      "v": 84
    },
    {
      "midi": 45,
      "hit": false,
      "t": 72461.30900000004,
      "d": 223.0762166666682,
      "v": 84
    },
    {
      "midi": 57,
      "hit": false,
      "t": 72461.30900000031,
      "d": 338.460466666671,
      "v": 84
    },
    {
      "midi": 61,
      "hit": false,
      "t": 72461.30900000031,
      "d": 338.460466666671,
      "v": 84
    },
    {
      "midi": 64,
      "hit": false,
      "t": 72461.30900000031,
      "d": 338.460466666671,
      "v": 84
    },
    {
      "midi": 37,
      "hit": false,
      "t": 72692.07750000004,
      "d": 223.0762166666682,
      "v": 86
    },
    {
      "midi": 75,
      "hit": false,
      "t": 72807.46175000032,
      "d": 107.6919666666654,
      "v": 87
    },
    {
      "midi": 40,
      "hit": false,
      "t": 72922.84600000005,
      "d": 223.0762166666682,
      "v": 98
    },
    {
      "midi": 69,
      "hit": false,
      "t": 72922.84600000033,
      "d": 223.0762166666682,
      "v": 88
    },
    {
      "midi": 73,
      "hit": false,
      "t": 72922.84600000033,
      "d": 223.0762166666682,
      "v": 88
    },
    {
      "midi": 76,
      "hit": false,
      "t": 72922.84600000033,
      "d": 223.0762166666682,
      "v": 88
    },
    {
      "midi": 33,
      "hit": false,
      "t": 73384.38300000005,
      "d": 223.0762166666682,
      "v": 88
    },
    {
      "midi": 45,
      "hit": false,
      "t": 73384.38300000005,
      "d": 223.0762166666682,
      "v": 88
    },
    {
      "midi": 57,
      "hit": false,
      "t": 73384.38300000032,
      "d": 338.460466666671,
      "v": 89
    },
    {
      "midi": 61,
      "hit": false,
      "t": 73384.38300000032,
      "d": 338.460466666671,
      "v": 89
    },
    {
      "midi": 66,
      "hit": false,
      "t": 73384.38300000032,
      "d": 338.460466666671,
      "v": 89
    },
    {
      "midi": 37,
      "hit": false,
      "t": 73615.15150000005,
      "d": 223.0762166666682,
      "v": 89
    },
    {
      "midi": 77,
      "hit": false,
      "t": 73730.53575000033,
      "d": 107.6919666666654,
      "v": 90
    },
    {
      "midi": 42,
      "hit": false,
      "t": 73845.92000000006,
      "d": 223.0762166666682,
      "v": 102
    },
    {
      "midi": 69,
      "hit": false,
      "t": 73845.92000000033,
      "d": 223.0762166666682,
      "v": 92
    },
    {
      "midi": 73,
      "hit": false,
      "t": 73845.92000000033,
      "d": 223.0762166666682,
      "v": 92
    },
    {
      "midi": 78,
      "hit": false,
      "t": 73845.92000000033,
      "d": 223.0762166666682,
      "v": 92
    },
    {
      "midi": 33,
      "hit": false,
      "t": 74307.45700000005,
      "d": 223.0762166666682,
      "v": 94
    },
    {
      "midi": 45,
      "hit": false,
      "t": 74307.45700000005,
      "d": 223.0762166666682,
      "v": 94
    },
    {
      "midi": 59,
      "hit": false,
      "t": 74307.45700000033,
      "d": 338.460466666671,
      "v": 94
    },
    {
      "midi": 62,
      "hit": false,
      "t": 74307.45700000033,
      "d": 338.460466666671,
      "v": 94
    },
    {
      "midi": 67,
      "hit": false,
      "t": 74307.45700000033,
      "d": 338.460466666671,
      "v": 94
    },
    {
      "midi": 38,
      "hit": false,
      "t": 74538.22550000006,
      "d": 223.0762166666682,
      "v": 96
    },
    {
      "midi": 78,
      "hit": false,
      "t": 74653.60975000034,
      "d": 107.6919666666654,
      "v": 96
    },
    {
      "midi": 40,
      "hit": false,
      "t": 74768.99400000006,
      "d": 223.0762166666682,
      "v": 108
    },
    {
      "midi": 71,
      "hit": false,
      "t": 74768.99400000034,
      "d": 223.0762166666682,
      "v": 98
    },
    {
      "midi": 74,
      "hit": false,
      "t": 74768.99400000034,
      "d": 223.0762166666682,
      "v": 98
    },
    {
      "midi": 79,
      "hit": false,
      "t": 74768.99400000034,
      "d": 223.0762166666682,
      "v": 98
    },
    {
      "midi": 42,
      "hit": false,
      "t": 75230.53100000006,
      "d": 223.0762166666682,
      "v": 94
    },
    {
      "midi": 70,
      "hit": false,
      "t": 75230.53100000034,
      "d": 223.0762166666682,
      "v": 94
    },
    {
      "midi": 73,
      "hit": false,
      "t": 75230.53100000034,
      "d": 223.0762166666682,
      "v": 94
    },
    {
      "midi": 78,
      "hit": false,
      "t": 75230.53100000034,
      "d": 223.0762166666682,
      "v": 94
    },
    {
      "midi": 40,
      "hit": false,
      "t": 75461.29950000007,
      "d": 223.0762166666682,
      "v": 92
    },
    {
      "midi": 68,
      "hit": false,
      "t": 75461.29950000034,
      "d": 223.0762166666682,
      "v": 92
    },
    {
      "midi": 71,
      "hit": false,
      "t": 75461.29950000034,
      "d": 223.0762166666682,
      "v": 92
    },
    {
      "midi": 76,
      "hit": false,
      "t": 75461.29950000034,
      "d": 223.0762166666682,
      "v": 92
    },
    {
      "midi": 38,
      "hit": false,
      "t": 75692.06800000007,
      "d": 223.0762166666682,
      "v": 98
    },
    {
      "midi": 66,
      "hit": false,
      "t": 75692.06800000035,
      "d": 223.0762166666682,
      "v": 98
    },
    {
      "midi": 69,
      "hit": false,
      "t": 75692.06800000035,
      "d": 223.0762166666682,
      "v": 98
    },
    {
      "midi": 74,
      "hit": false,
      "t": 75692.06800000035,
      "d": 223.0762166666682,
      "v": 98
    },
    {
      "midi": 62,
      "hit": false,
      "t": 76153.60500000035,
      "d": 223.0762166666682,
      "v": 86
    },
    {
      "midi": 66,
      "hit": false,
      "t": 76153.60500000035,
      "d": 223.0762166666682,
      "v": 86
    },
    {
      "midi": 69,
      "hit": false,
      "t": 76153.60500000035,
      "d": 223.0762166666682,
      "v": 86
    },
    {
      "midi": 62,
      "hit": false,
      "t": 76615.14200000034,
      "d": 223.0762166666682,
      "v": 94
    },
    {
      "midi": 66,
      "hit": false,
      "t": 76615.14200000034,
      "d": 223.0762166666682,
      "v": 94
    },
    {
      "midi": 69,
      "hit": false,
      "t": 76615.14200000034,
      "d": 223.0762166666682,
      "v": 94
    },
    {
      "midi": 57,
      "hit": false,
      "t": 77076.67900000008,
      "d": 223.0762166666682,
      "v": 84
    },
    {
      "midi": 66,
      "hit": false,
      "t": 77076.67900000034,
      "d": 223.0762166666682,
      "v": 84
    },
    {
      "midi": 69,
      "hit": false,
      "t": 77076.67900000034,
      "d": 223.0762166666682,
      "v": 84
    },
    {
      "midi": 62,
      "hit": false,
      "t": 77307.44750000008,
      "d": 223.0762166666682,
      "v": 84
    },
    {
      "midi": 66,
      "hit": false,
      "t": 77538.21600000009,
      "d": 223.0762166666682,
      "v": 94
    },
    {
      "midi": 67,
      "hit": false,
      "t": 77538.21600000034,
      "d": 223.0762166666682,
      "v": 54
    },
    {
      "midi": 69,
      "hit": false,
      "t": 77538.21600000034,
      "d": 223.0762166666682,
      "v": 54
    },
    {
      "midi": 66,
      "hit": false,
      "t": 77999.75300000008,
      "d": 223.0762166666682,
      "v": 84
    },
    {
      "midi": 67,
      "hit": false,
      "t": 77999.75300000033,
      "d": 223.0762166666682,
      "v": 54
    },
    {
      "midi": 69,
      "hit": false,
      "t": 77999.75300000033,
      "d": 223.0762166666682,
      "v": 54
    },
    {
      "midi": 64,
      "hit": false,
      "t": 78230.52150000009,
      "d": 223.0762166666682,
      "v": 84
    },
    {
      "midi": 62,
      "hit": false,
      "t": 78461.2900000001,
      "d": 223.0762166666682,
      "v": 84
    },
    {
      "midi": 66,
      "hit": false,
      "t": 78461.29000000033,
      "d": 223.0762166666682,
      "v": 84
    },
    {
      "midi": 69,
      "hit": false,
      "t": 78461.29000000033,
      "d": 223.0762166666682,
      "v": 84
    },
    {
      "midi": 57,
      "hit": false,
      "t": 78922.82700000009,
      "d": 223.0762166666682,
      "v": 84
    },
    {
      "midi": 66,
      "hit": false,
      "t": 78922.82700000032,
      "d": 223.0762166666682,
      "v": 84
    },
    {
      "midi": 69,
      "hit": false,
      "t": 78922.82700000032,
      "d": 223.0762166666682,
      "v": 84
    },
    {
      "midi": 62,
      "hit": false,
      "t": 79153.5955000001,
      "d": 223.0762166666682,
      "v": 84
    },
    {
      "midi": 66,
      "hit": false,
      "t": 79384.3640000001,
      "d": 223.0762166666682,
      "v": 94
    },
    {
      "midi": 67,
      "hit": false,
      "t": 79384.36400000032,
      "d": 223.0762166666682,
      "v": 84
    },
    {
      "midi": 69,
      "hit": false,
      "t": 79384.36400000032,
      "d": 223.0762166666682,
      "v": 84
    },
    {
      "midi": 66,
      "hit": false,
      "t": 79845.9010000001,
      "d": 223.0762166666682,
      "v": 84
    },
    {
      "midi": 67,
      "hit": false,
      "t": 79845.90100000032,
      "d": 223.0762166666682,
      "v": 84
    },
    {
      "midi": 69,
      "hit": false,
      "t": 79845.90100000032,
      "d": 223.0762166666682,
      "v": 84
    },
    {
      "midi": 64,
      "hit": false,
      "t": 80076.6695000001,
      "d": 223.0762166666682,
      "v": 84
    },
    {
      "midi": 62,
      "hit": false,
      "t": 80307.43800000011,
      "d": 223.0762166666682,
      "v": 94
    },
    {
      "midi": 66,
      "hit": false,
      "t": 80307.43800000031,
      "d": 223.0762166666682,
      "v": 84
    },
    {
      "midi": 69,
      "hit": false,
      "t": 80307.43800000031,
      "d": 223.0762166666682,
      "v": 84
    },
    {
      "midi": 57,
      "hit": false,
      "t": 80768.97500000011,
      "d": 223.0762166666682,
      "v": 84
    },
    {
      "midi": 66,
      "hit": false,
      "t": 80768.97500000031,
      "d": 223.0762166666682,
      "v": 84
    },
    {
      "midi": 69,
      "hit": false,
      "t": 80768.97500000031,
      "d": 223.0762166666682,
      "v": 84
    },
    {
      "midi": 61,
      "hit": false,
      "t": 80999.74350000011,
      "d": 223.0762166666682,
      "v": 84
    },
    {
      "midi": 66,
      "hit": false,
      "t": 81230.51200000012,
      "d": 223.0762166666682,
      "v": 90
    },
    {
      "midi": 67,
      "hit": false,
      "t": 81230.51200000031,
      "d": 223.0762166666682,
      "v": 80
    },
    {
      "midi": 69,
      "hit": false,
      "t": 81230.51200000031,
      "d": 223.0762166666682,
      "v": 80
    },
    {
      "midi": 67,
      "hit": false,
      "t": 81692.0490000003,
      "d": 223.0762166666682,
      "v": 78
    },
    {
      "midi": 69,
      "hit": false,
      "t": 81692.0490000003,
      "d": 223.0762166666682,
      "v": 78
    },
    {
      "midi": 64,
      "hit": false,
      "t": 82145.89371666679,
      "d": 684.6132166666648,
      "v": 76
    },
    {
      "midi": 67,
      "hit": false,
      "t": 82153.5860000003,
      "d": 223.0762166666682,
      "v": 76
    },
    {
      "midi": 69,
      "hit": false,
      "t": 82153.5860000003,
      "d": 223.0762166666682,
      "v": 76
    },
    {
      "midi": 67,
      "hit": false,
      "t": 82615.1230000003,
      "d": 223.0762166666682,
      "v": 75
    },
    {
      "midi": 69,
      "hit": false,
      "t": 82615.1230000003,
      "d": 223.0762166666682,
      "v": 75
    },
    {
      "midi": 62,
      "hit": false,
      "t": 83068.96771666678,
      "d": 230.7685000000056,
      "v": 74
    },
    {
      "midi": 66,
      "hit": false,
      "t": 83076.6600000003,
      "d": 223.0762166666682,
      "v": 74
    },
    {
      "midi": 69,
      "hit": false,
      "t": 83076.6600000003,
      "d": 223.0762166666682,
      "v": 74
    },
    {
      "midi": 66,
      "hit": false,
      "t": 83538.19700000029,
      "d": 223.0762166666682,
      "v": 74
    },
    {
      "midi": 69,
      "hit": false,
      "t": 83538.19700000029,
      "d": 223.0762166666682,
      "v": 74
    },
    {
      "midi": 66,
      "hit": false,
      "t": 83999.73400000029,
      "d": 223.0762166666682,
      "v": 74
    },
    {
      "midi": 69,
      "hit": false,
      "t": 83999.73400000029,
      "d": 223.0762166666682,
      "v": 74
    },
    {
      "midi": 38,
      "hit": false,
      "t": 84922.80800000012,
      "d": 223.0762166666682,
      "v": 114
    },
    {
      "midi": 42,
      "hit": false,
      "t": 84922.80800000012,
      "d": 223.0762166666682,
      "v": 114
    },
    {
      "midi": 50,
      "hit": false,
      "t": 84922.80800000012,
      "d": 223.0762166666682,
      "v": 114
    },
    {
      "midi": 73,
      "hit": false,
      "t": 84922.8080000003,
      "d": 223.0762166666682,
      "v": 114
    },
    {
      "midi": 78,
      "hit": false,
      "t": 84922.8080000003,
      "d": 223.0762166666682,
      "v": 114
    },
    {
      "midi": 86,
      "hit": false,
      "t": 84922.8080000003,
      "d": 223.0762166666682,
      "v": 114
    }
  ]
}