{
  "jsonPath": "Electronic/Electro/Daft Punk/veridis-quo.json",
  "path": "Electronic\\Electro\\Daft Punk\\Veridis Quo.mid",
  "name": "Veridis Quo",
  "difficulty": "Advanced",
  "bpm": 104.00001386666851,
  "notes": [
    {
      "midi": 52,
      "hit": false,
      "t": 39525.23511458333,
      "d": 117.18748437500471,
      "v": 73
    },
    {
      "midi": 60,
      "hit": false,
      "t": 39528.239921875,
      "d": 84.1346041666693,
      "v": 72
    },
    {
      "midi": 57,
      "hit": false,
      "t": 39528.239921875,
      "d": 93.14902604166855,
      "v": 70
    },
    {
      "midi": 64,
      "hit": false,
      "t": 39528.239921875,
      "d": 93.14902604166855,
      "v": 67
    },
    {
      "midi": 52,
      "hit": false,
      "t": 40105.162921875,
      "d": 105.16825520833663,
      "v": 74
    },
    {
      "midi": 57,
      "hit": false,
      "t": 40105.162921875,
      "d": 105.16825520833663,
      "v": 74
    },
    {
      "midi": 60,
      "hit": false,
      "t": 40105.162921875,
      "d": 105.16825520833663,
      "v": 73
    },
    {
      "midi": 64,
      "hit": false,
      "t": 40105.162921875,
      "d": 108.17306250000547,
      "v": 69
    },
    {
      "midi": 50,
      "hit": false,
      "t": 40679.08111458334,
      "d": 99.15864062499895,
      "v": 73
    },
    {
      "midi": 62,
      "hit": false,
      "t": 40682.08592187501,
      "d": 96.15383333333011,
      "v": 73
    },
    {
      "midi": 57,
      "hit": false,
      "t": 40682.08592187501,
      "d": 102.16344791666052,
      "v": 74
    },
    {
      "midi": 65,
      "hit": false,
      "t": 40682.08592187501,
      "d": 102.16344791666052,
      "v": 70
    },
    {
      "midi": 50,
      "hit": false,
      "t": 41256.00411458334,
      "d": 111.17786979167431,
      "v": 81
    },
    {
      "midi": 57,
      "hit": false,
      "t": 41259.00892187501,
      "d": 93.14902604166855,
      "v": 74
    },
    {
      "midi": 62,
      "hit": false,
      "t": 41259.00892187501,
      "d": 93.14902604166855,
      "v": 76
    },
    {
      "midi": 65,
      "hit": false,
      "t": 41259.00892187501,
      "d": 93.14902604166855,
      "v": 73
    },
    {
      "midi": 62,
      "hit": false,
      "t": 41832.92711458335,
      "d": 99.15864062499895,
      "v": 79
    },
    {
      "midi": 59,
      "hit": false,
      "t": 41835.93192187502,
      "d": 102.16344791666052,
      "v": 71
    },
    {
      "midi": 67,
      "hit": false,
      "t": 41835.93192187502,
      "d": 102.16344791666052,
      "v": 74
    },
    {
      "midi": 55,
      "hit": false,
      "t": 41835.93192187502,
      "d": 108.17306249999092,
      "v": 76
    },
    {
      "midi": 62,
      "hit": false,
      "t": 42409.85011458334,
      "d": 99.15864062499895,
      "v": 72
    },
    {
      "midi": 59,
      "hit": false,
      "t": 42412.85492187501,
      "d": 90.14421874999971,
      "v": 63
    },
    {
      "midi": 55,
      "hit": false,
      "t": 42412.85492187501,
      "d": 99.15864062499895,
      "v": 78
    },
    {
      "midi": 67,
      "hit": false,
      "t": 42412.85492187501,
      "d": 99.15864062499895,
      "v": 69
    },
    {
      "midi": 62,
      "hit": false,
      "t": 42986.773114583346,
      "d": 105.16825520833663,
      "v": 74
    },
    {
      "midi": 67,
      "hit": false,
      "t": 42986.773114583346,
      "d": 111.17786979166704,
      "v": 73
    },
    {
      "midi": 55,
      "hit": false,
      "t": 42989.777921875015,
      "d": 111.17786979166704,
      "v": 86
    },
    {
      "midi": 59,
      "hit": false,
      "t": 42989.777921875015,
      "d": 111.17786979166704,
      "v": 70
    },
    {
      "midi": 62,
      "hit": false,
      "t": 43563.69611458335,
      "d": 108.17306250000547,
      "v": 72
    },
    {
      "midi": 67,
      "hit": false,
      "t": 43563.69611458335,
      "d": 111.17786979167431,
      "v": 72
    },
    {
      "midi": 59,
      "hit": false,
      "t": 43566.70092187502,
      "d": 108.17306250000547,
      "v": 67
    },
    {
      "midi": 55,
      "hit": false,
      "t": 43566.70092187502,
      "d": 111.17786979167431,
      "v": 81
    },
    {
      "midi": 60,
      "hit": false,
      "t": 44140.61911458336,
      "d": 99.15864062499895,
      "v": 76
    },
    {
      "midi": 57,
      "hit": false,
      "t": 44143.62392187503,
      "d": 99.15864062499895,
      "v": 72
    },
    {
      "midi": 64,
      "hit": false,
      "t": 44143.62392187503,
      "d": 99.15864062499895,
      "v": 70
    },
    {
      "midi": 52,
      "hit": false,
      "t": 44143.62392187503,
      "d": 108.1730624999982,
      "v": 70
    },
    {
      "midi": 60,
      "hit": false,
      "t": 44717.54211458336,
      "d": 105.16825520833663,
      "v": 78
    },
    {
      "midi": 57,
      "hit": false,
      "t": 44720.54692187503,
      "d": 102.16344791666779,
      "v": 73
    },
    {
      "midi": 52,
      "hit": false,
      "t": 44720.54692187503,
      "d": 108.1730624999982,
      "v": 70
    },
    {
      "midi": 64,
      "hit": false,
      "t": 44720.54692187503,
      "d": 114.1826770833286,
      "v": 70
    },
    {
      "midi": 50,
      "hit": false,
      "t": 45294.465114583356,
      "d": 105.16825520832936,
      "v": 69
    },
    {
      "midi": 62,
      "hit": false,
      "t": 45297.469921875025,
      "d": 96.15383333333011,
      "v": 71
    },
    {
      "midi": 57,
      "hit": false,
      "t": 45297.469921875025,
      "d": 105.16825520832936,
      "v": 69
    },
    {
      "midi": 65,
      "hit": false,
      "t": 45297.469921875025,
      "d": 105.16825520832936,
      "v": 70
    },
    {
      "midi": 65,
      "hit": false,
      "t": 45871.38811458335,
      "d": 111.17786979166704,
      "v": 70
    },
    {
      "midi": 57,
      "hit": false,
      "t": 45874.39292187502,
      "d": 102.16344791666779,
      "v": 71
    },
    {
      "midi": 62,
      "hit": false,
      "t": 45874.39292187502,
      "d": 102.16344791666779,
      "v": 72
    },
    {
      "midi": 50,
      "hit": false,
      "t": 45874.39292187502,
      "d": 108.1730624999982,
      "v": 73
    },
    {
      "midi": 59,
      "hit": false,
      "t": 46448.31111458335,
      "d": 105.16825520832936,
      "v": 67
    },
    {
      "midi": 62,
      "hit": false,
      "t": 46451.31592187502,
      "d": 96.15383333333011,
      "v": 72
    },
    {
      "midi": 55,
      "hit": false,
      "t": 46451.31592187502,
      "d": 105.16825520832936,
      "v": 74
    },
    {
      "midi": 67,
      "hit": false,
      "t": 46451.31592187502,
      "d": 105.16825520832936,
      "v": 70
    },
    {
      "midi": 55,
      "hit": false,
      "t": 47028.23892187502,
      "d": 102.16344791666779,
      "v": 83
    },
    {
      "midi": 62,
      "hit": false,
      "t": 47028.23892187502,
      "d": 102.16344791666779,
      "v": 74
    },
    {
      "midi": 59,
      "hit": false,
      "t": 47028.23892187502,
      "d": 105.16825520833663,
      "v": 68
    },
    {
      "midi": 67,
      "hit": false,
      "t": 47028.23892187502,
      "d": 108.17306250000547,
      "v": 69
    },
    {
      "midi": 62,
      "hit": false,
      "t": 47602.15711458336,
      "d": 99.15864062499895,
      "v": 72
    },
    {
      "midi": 59,
      "hit": false,
      "t": 47605.16192187503,
      "d": 102.16344791666052,
      "v": 69
    },
    {
      "midi": 67,
      "hit": false,
      "t": 47605.16192187503,
      "d": 102.16344791666052,
      "v": 69
    },
    {
      "midi": 55,
      "hit": false,
      "t": 47605.16192187503,
      "d": 126.20190624999668,
      "v": 81
    },
    {
      "midi": 55,
      "hit": false,
      "t": 48179.080114583354,
      "d": 111.17786979167431,
      "v": 86
    },
    {
      "midi": 59,
      "hit": false,
      "t": 48182.08492187502,
      "d": 105.16825520833663,
      "v": 68
    },
    {
      "midi": 62,
      "hit": false,
      "t": 48182.08492187502,
      "d": 105.16825520833663,
      "v": 73
    },
    {
      "midi": 67,
      "hit": false,
      "t": 48182.08492187502,
      "d": 105.16825520833663,
      "v": 73
    },
    {
      "midi": 52,
      "hit": false,
      "t": 48756.003114583364,
      "d": 114.18267708333588,
      "v": 72
    },
    {
      "midi": 57,
      "hit": false,
      "t": 48759.00792187503,
      "d": 102.16344791666779,
      "v": 72
    },
    {
      "midi": 60,
      "hit": false,
      "t": 48759.00792187503,
      "d": 102.16344791666779,
      "v": 74
    },
    {
      "midi": 64,
      "hit": false,
      "t": 48759.00792187503,
      "d": 111.17786979166704,
      "v": 69
    },
    {
      "midi": 60,
      "hit": false,
      "t": 49335.930921875035,
      "d": 102.16344791666779,
      "v": 83
    },
    {
      "midi": 52,
      "hit": false,
      "t": 49335.930921875035,
      "d": 108.1730624999982,
      "v": 78
    },
    {
      "midi": 57,
      "hit": false,
      "t": 49335.930921875035,
      "d": 111.17786979166704,
      "v": 78
    },
    {
      "midi": 64,
      "hit": false,
      "t": 49335.930921875035,
      "d": 111.17786979166704,
      "v": 71
    },
    {
      "midi": 57,
      "hit": false,
      "t": 49909.84911458337,
      "d": 105.16825520833663,
      "v": 74
    },
    {
      "midi": 65,
      "hit": false,
      "t": 49912.85392187504,
      "d": 108.1730624999982,
      "v": 72
    },
    {
      "midi": 50,
      "hit": false,
      "t": 49912.85392187504,
      "d": 111.17786979166704,
      "v": 68
    },
    {
      "midi": 62,
      "hit": false,
      "t": 49912.85392187504,
      "d": 111.17786979166704,
      "v": 76
    },
    {
      "midi": 62,
      "hit": false,
      "t": 50489.77692187504,
      "d": 102.16344791666779,
      "v": 78
    },
    {
      "midi": 65,
      "hit": false,
      "t": 50489.77692187504,
      "d": 108.1730624999982,
      "v": 72
    },
    {
      "midi": 50,
      "hit": false,
      "t": 50489.77692187504,
      "d": 111.17786979166704,
      "v": 72
    },
    {
      "midi": 57,
      "hit": false,
      "t": 50489.77692187504,
      "d": 111.17786979166704,
      "v": 74
    },
    {
      "midi": 62,
      "hit": false,
      "t": 51066.69992187504,
      "d": 102.16344791666779,
      "v": 72
    },
    {
      "midi": 59,
      "hit": false,
      "t": 51066.69992187504,
      "d": 105.16825520833663,
      "v": 67
    },
    {
      "midi": 67,
      "hit": false,
      "t": 51066.69992187504,
      "d": 105.16825520833663,
      "v": 69
    },
    {
      "midi": 55,
      "hit": false,
      "t": 51066.69992187504,
      "d": 126.20190625000396,
      "v": 74
    },
    {
      "midi": 59,
      "hit": false,
      "t": 51643.622921875045,
      "d": 102.16344791666779,
      "v": 67
    },
    {
      "midi": 67,
      "hit": false,
      "t": 51643.622921875045,
      "d": 102.16344791666779,
      "v": 69
    },
    {
      "midi": 62,
      "hit": false,
      "t": 51643.622921875045,
      "d": 105.16825520833663,
      "v": 71
    },
    {
      "midi": 55,
      "hit": false,
      "t": 51643.622921875045,
      "d": 108.17306250000547,
      "v": 78
    },
    {
      "midi": 67,
      "hit": false,
      "t": 52217.541114583386,
      "d": 105.16825520832936,
      "v": 69
    },
    {
      "midi": 62,
      "hit": false,
      "t": 52220.545921875055,
      "d": 96.15383333333011,
      "v": 69
    },
    {
      "midi": 59,
      "hit": false,
      "t": 52220.545921875055,
      "d": 102.16344791666052,
      "v": 68
    },
    {
      "midi": 55,
      "hit": false,
      "t": 52220.545921875055,
      "d": 108.17306249999092,
      "v": 81
    },
    {
      "midi": 62,
      "hit": false,
      "t": 52794.46411458338,
      "d": 102.16344791666779,
      "v": 72
    },
    {
      "midi": 59,
      "hit": false,
      "t": 52797.46892187505,
      "d": 99.15864062499895,
      "v": 65
    },
    {
      "midi": 67,
      "hit": false,
      "t": 52797.46892187505,
      "d": 99.15864062499895,
      "v": 71
    },
    {
      "midi": 55,
      "hit": false,
      "t": 52797.46892187505,
      "d": 120.19229166666628,
      "v": 78
    },
    {
      "midi": 60,
      "hit": false,
      "t": 53371.387114583384,
      "d": 99.15864062499895,
      "v": 73
    },
    {
      "midi": 57,
      "hit": false,
      "t": 53374.39192187505,
      "d": 96.15383333333011,
      "v": 68
    },
    {
      "midi": 64,
      "hit": false,
      "t": 53374.39192187505,
      "d": 102.16344791666052,
      "v": 67
    },
    {
      "midi": 52,
      "hit": false,
      "t": 53374.39192187505,
      "d": 108.17306249999092,
      "v": 72
    },
    {
      "midi": 64,
      "hit": false,
      "t": 53948.31011458338,
      "d": 111.17786979167431,
      "v": 69
    },
    {
      "midi": 52,
      "hit": false,
      "t": 53951.31492187505,
      "d": 105.16825520833663,
      "v": 70
    },
    {
      "midi": 57,
      "hit": false,
      "t": 53951.31492187505,
      "d": 105.16825520833663,
      "v": 71
    },
    {
      "midi": 60,
      "hit": false,
      "t": 53951.31492187505,
      "d": 105.16825520833663,
      "v": 73
    },
    {
      "midi": 62,
      "hit": false,
      "t": 54525.23311458339,
      "d": 105.16825520833663,
      "v": 76
    },
    {
      "midi": 65,
      "hit": false,
      "t": 54525.23311458339,
      "d": 129.20671354166552,
      "v": 70
    },
    {
      "midi": 50,
      "hit": false,
      "t": 54528.23792187506,
      "d": 102.16344791666779,
      "v": 67
    },
    {
      "midi": 57,
      "hit": false,
      "t": 54528.23792187506,
      "d": 108.1730624999982,
      "v": 68
    },
    {
      "midi": 62,
      "hit": false,
      "t": 55102.156114583384,
      "d": 117.18748437500471,
      "v": 73
    },
    {
      "midi": 65,
      "hit": false,
      "t": 55105.16092187505,
      "d": 84.1346041666693,
      "v": 69
    },
    {
      "midi": 57,
      "hit": false,
      "t": 55105.16092187505,
      "d": 87.13941145833815,
      "v": 67
    },
    {
      "midi": 50,
      "hit": false,
      "t": 55105.16092187505,
      "d": 114.18267708333588,
      "v": 73
    },
    {
      "midi": 59,
      "hit": false,
      "t": 55679.07911458339,
      "d": 117.18748437499744,
      "v": 66
    },
    {
      "midi": 55,
      "hit": false,
      "t": 55682.083921875055,
      "d": 78.12498958333163,
      "v": 72
    },
    {
      "midi": 67,
      "hit": false,
      "t": 55682.083921875055,
      "d": 114.1826770833286,
      "v": 67
    },
    {
      "midi": 62,
      "hit": false,
      "t": 55682.083921875055,
      "d": 120.192291666659,
      "v": 69
    },
    {
      "midi": 59,
      "hit": false,
      "t": 56256.00211458338,
      "d": 105.16825520833663,
      "v": 64
    },
    {
      "midi": 62,
      "hit": false,
      "t": 56259.00692187505,
      "d": 102.16344791666779,
      "v": 69
    },
    {
      "midi": 55,
      "hit": false,
      "t": 56259.00692187505,
      "d": 108.1730624999982,
      "v": 78
    },
    {
      "midi": 67,
      "hit": false,
      "t": 56259.00692187505,
      "d": 108.1730624999982,
      "v": 67
    },
    {
      "midi": 59,
      "hit": false,
      "t": 56832.925114583384,
      "d": 105.16825520833663,
      "v": 63
    },
    {
      "midi": 62,
      "hit": false,
      "t": 56835.92992187505,
      "d": 105.16825520833663,
      "v": 69
    },
    {
      "midi": 67,
      "hit": false,
      "t": 56835.92992187505,
      "d": 105.16825520833663,
      "v": 68
    },
    {
      "midi": 55,
      "hit": false,
      "t": 56835.92992187505,
      "d": 108.17306250000547,
      "v": 76
    },
    {
      "midi": 62,
      "hit": false,
      "t": 57412.852921875055,
      "d": 102.16344791666779,
      "v": 69
    },
    {
      "midi": 55,
      "hit": false,
      "t": 57412.852921875055,
      "d": 105.16825520833663,
      "v": 79
    },
    {
      "midi": 67,
      "hit": false,
      "t": 57412.852921875055,
      "d": 105.16825520833663,
      "v": 69
    },
    {
      "midi": 59,
      "hit": false,
      "t": 57412.852921875055,
      "d": 108.17306250000547,
      "v": 63
    },
    {
      "midi": 52,
      "hit": false,
      "t": 57989.77592187506,
      "d": 102.16344791666779,
      "v": 68
    },
    {
      "midi": 60,
      "hit": false,
      "t": 57989.77592187506,
      "d": 102.16344791666779,
      "v": 72
    },
    {
      "midi": 57,
      "hit": false,
      "t": 57989.77592187506,
      "d": 105.16825520833663,
      "v": 69
    },
    {
      "midi": 64,
      "hit": false,
      "t": 57989.77592187506,
      "d": 108.17306250000547,
      "v": 66
    },
    {
      "midi": 60,
      "hit": false,
      "t": 58563.6941145834,
      "d": 99.15864062499895,
      "v": 73
    },
    {
      "midi": 57,
      "hit": false,
      "t": 58566.69892187507,
      "d": 99.15864062499895,
      "v": 68
    },
    {
      "midi": 64,
      "hit": false,
      "t": 58566.69892187507,
      "d": 99.15864062499895,
      "v": 67
    },
    {
      "midi": 52,
      "hit": false,
      "t": 58566.69892187507,
      "d": 108.1730624999982,
      "v": 68
    },
    {
      "midi": 60,
      "hit": false,
      "t": 59140.6171145834,
      "d": 99.15864062499895,
      "v": 61
    },
    {
      "midi": 57,
      "hit": false,
      "t": 59143.62192187507,
      "d": 96.15383333333011,
      "v": 66
    },
    {
      "midi": 53,
      "hit": false,
      "t": 59143.62192187507,
      "d": 114.1826770833286,
      "v": 70
    },
    {
      "midi": 64,
      "hit": false,
      "t": 59143.62192187507,
      "d": 120.192291666659,
      "v": 59
    },
    {
      "midi": 60,
      "hit": false,
      "t": 59717.5401145834,
      "d": 108.17306250000547,
      "v": 69
    },
    {
      "midi": 53,
      "hit": false,
      "t": 59720.544921875065,
      "d": 105.16825520833663,
      "v": 79
    },
    {
      "midi": 57,
      "hit": false,
      "t": 59720.544921875065,
      "d": 105.16825520833663,
      "v": 69
    },
    {
      "midi": 64,
      "hit": false,
      "t": 59720.544921875065,
      "d": 108.17306250000547,
      "v": 61
    },
    {
      "midi": 57,
      "hit": false,
      "t": 60294.46311458341,
      "d": 105.16825520832936,
      "v": 74
    },
    {
      "midi": 62,
      "hit": false,
      "t": 60294.46311458341,
      "d": 105.16825520832936,
      "v": 76
    },
    {
      "midi": 53,
      "hit": false,
      "t": 60297.467921875075,
      "d": 96.15383333333011,
      "v": 78
    },
    {
      "midi": 62,
      "hit": false,
      "t": 60871.3861145834,
      "d": 102.16344791666779,
      "v": 79
    },
    {
      "midi": 53,
      "hit": false,
      "t": 60874.39092187507,
      "d": 99.15864062499895,
      "v": 72
    },
    {
      "midi": 57,
      "hit": false,
      "t": 60874.39092187507,
      "d": 99.15864062499895,
      "v": 74
    },
    {
      "midi": 59,
      "hit": false,
      "t": 61448.309114583404,
      "d": 102.16344791666779,
      "v": 70
    },
    {
      "midi": 62,
      "hit": false,
      "t": 61448.309114583404,
      "d": 102.16344791666779,
      "v": 78
    },
    {
      "midi": 55,
      "hit": false,
      "t": 61451.31392187507,
      "d": 99.15864062499895,
      "v": 78
    },
    {
      "midi": 62,
      "hit": false,
      "t": 62025.23211458341,
      "d": 99.15864062499895,
      "v": 78
    },
    {
      "midi": 59,
      "hit": false,
      "t": 62028.236921875075,
      "d": 96.15383333333011,
      "v": 70
    },
    {
      "midi": 55,
      "hit": false,
      "t": 62028.236921875075,
      "d": 102.16344791666052,
      "v": 79
    },
    {
      "midi": 52,
      "hit": false,
      "t": 62602.1551145834,
      "d": 105.16825520833663,
      "v": 65
    },
    {
      "midi": 60,
      "hit": false,
      "t": 62605.15992187507,
      "d": 102.16344791666779,
      "v": 78
    },
    {
      "midi": 57,
      "hit": false,
      "t": 62605.15992187507,
      "d": 105.16825520833663,
      "v": 74
    },
    {
      "midi": 64,
      "hit": false,
      "t": 62605.15992187507,
      "d": 108.17306250000547,
      "v": 68
    },
    {
      "midi": 52,
      "hit": false,
      "t": 63179.07811458341,
      "d": 111.17786979166704,
      "v": 68
    },
    {
      "midi": 57,
      "hit": false,
      "t": 63182.08292187508,
      "d": 102.16344791666779,
      "v": 72
    },
    {
      "midi": 60,
      "hit": false,
      "t": 63182.08292187508,
      "d": 102.16344791666779,
      "v": 78
    },
    {
      "midi": 64,
      "hit": false,
      "t": 63182.08292187508,
      "d": 108.1730624999982,
      "v": 69
    },
    {
      "midi": 53,
      "hit": false,
      "t": 63759.005921875076,
      "d": 102.16344791666779,
      "v": 73
    },
    {
      "midi": 60,
      "hit": false,
      "t": 63759.005921875076,
      "d": 105.16825520833663,
      "v": 76
    },
    {
      "midi": 64,
      "hit": false,
      "t": 63759.005921875076,
      "d": 105.16825520833663,
      "v": 68
    },
    {
      "midi": 57,
      "hit": false,
      "t": 63759.005921875076,
      "d": 108.17306250000547,
      "v": 74
    },
    {
      "midi": 53,
      "hit": false,
      "t": 64335.92892187508,
      "d": 102.16344791666779,
      "v": 69
    },
    {
      "midi": 60,
      "hit": false,
      "t": 64335.92892187508,
      "d": 102.16344791666779,
      "v": 79
    },
    {
      "midi": 57,
      "hit": false,
      "t": 64335.92892187508,
      "d": 108.1730624999982,
      "v": 73
    },
    {
      "midi": 64,
      "hit": false,
      "t": 64335.92892187508,
      "d": 108.1730624999982,
      "v": 69
    },
    {
      "midi": 53,
      "hit": false,
      "t": 64909.84711458341,
      "d": 105.16825520833663,
      "v": 74
    },
    {
      "midi": 62,
      "hit": false,
      "t": 64909.84711458341,
      "d": 108.17306250000547,
      "v": 76
    },
    {
      "midi": 57,
      "hit": false,
      "t": 64912.85192187508,
      "d": 105.16825520833663,
      "v": 74
    },
    {
      "midi": 53,
      "hit": false,
      "t": 65486.770114583414,
      "d": 99.15864062499895,
      "v": 69
    },
    {
      "midi": 57,
      "hit": false,
      "t": 65486.770114583414,
      "d": 102.16344791666779,
      "v": 74
    },
    {
      "midi": 62,
      "hit": false,
      "t": 65489.77492187508,
      "d": 99.15864062499895,
      "v": 78
    },
    {
      "midi": 59,
      "hit": false,
      "t": 66063.69311458341,
      "d": 96.15383333334466,
      "v": 70
    },
    {
      "midi": 62,
      "hit": false,
      "t": 66063.69311458341,
      "d": 117.18748437501199,
      "v": 72
    },
    {
      "midi": 55,
      "hit": false,
      "t": 66066.69792187508,
      "d": 84.1346041666693,
      "v": 73
    },
    {
      "midi": 62,
      "hit": false,
      "t": 66640.61611458342,
      "d": 105.16825520833663,
      "v": 74
    },
    {
      "midi": 59,
      "hit": false,
      "t": 66640.61611458342,
      "d": 108.17306250000547,
      "v": 71
    },
    {
      "midi": 55,
      "hit": false,
      "t": 66643.62092187509,
      "d": 105.16825520833663,
      "v": 74
    },
    {
      "midi": 52,
      "hit": false,
      "t": 67217.53911458343,
      "d": 105.16825520833663,
      "v": 68
    },
    {
      "midi": 57,
      "hit": false,
      "t": 67220.5439218751,
      "d": 108.17306250000547,
      "v": 74
    },
    {
      "midi": 60,
      "hit": false,
      "t": 67220.5439218751,
      "d": 111.17786979167431,
      "v": 78
    },
    {
      "midi": 64,
      "hit": false,
      "t": 67220.5439218751,
      "d": 111.17786979167431,
      "v": 69
    },
    {
      "midi": 60,
      "hit": false,
      "t": 67797.46692187511,
      "d": 84.1346041666693,
      "v": 76
    },
    {
      "midi": 57,
      "hit": false,
      "t": 67797.46692187511,
      "d": 90.14421875000698,
      "v": 71
    },
    {
      "midi": 52,
      "hit": false,
      "t": 67797.46692187511,
      "d": 108.17306250000547,
      "v": 68
    },
    {
      "midi": 64,
      "hit": false,
      "t": 67800.47172916678,
      "d": 87.13941145833815,
      "v": 68
    },
    {
      "midi": 60,
      "hit": false,
      "t": 68374.38992187512,
      "d": 102.16344791666779,
      "v": 72
    },
    {
      "midi": 64,
      "hit": false,
      "t": 68374.38992187512,
      "d": 102.16344791666779,
      "v": 62
    },
    {
      "midi": 53,
      "hit": false,
      "t": 68374.38992187512,
      "d": 108.17306250000547,
      "v": 72
    },
    {
      "midi": 57,
      "hit": false,
      "t": 68374.38992187512,
      "d": 108.17306250000547,
      "v": 71
    },
    {
      "midi": 53,
      "hit": false,
      "t": 68948.30811458346,
      "d": 105.16825520833663,
      "v": 76
    },
    {
      "midi": 60,
      "hit": false,
      "t": 68948.30811458346,
      "d": 105.16825520833663,
      "v": 78
    },
    {
      "midi": 64,
      "hit": false,
      "t": 68951.31292187513,
      "d": 105.16825520833663,
      "v": 69
    },
    {
      "midi": 57,
      "hit": false,
      "t": 68951.31292187513,
      "d": 108.17306250000547,
      "v": 72
    },
    {
      "midi": 57,
      "hit": false,
      "t": 69525.23111458347,
      "d": 87.13941145833815,
      "v": 83
    },
    {
      "midi": 62,
      "hit": false,
      "t": 69525.23111458347,
      "d": 93.14902604167582,
      "v": 83
    },
    {
      "midi": 53,
      "hit": false,
      "t": 69528.23592187514,
      "d": 84.1346041666693,
      "v": 81
    },
    {
      "midi": 57,
      "hit": false,
      "t": 70102.15411458348,
      "d": 108.17306250000547,
      "v": 76
    },
    {
      "midi": 62,
      "hit": false,
      "t": 70102.15411458348,
      "d": 129.2067135416728,
      "v": 83
    },
    {
      "midi": 53,
      "hit": false,
      "t": 70105.15892187515,
      "d": 105.16825520833663,
      "v": 74
    },
    {
      "midi": 59,
      "hit": false,
      "t": 70679.07711458349,
      "d": 99.15864062499895,
      "v": 74
    },
    {
      "midi": 62,
      "hit": false,
      "t": 70679.07711458349,
      "d": 99.15864062499895,
      "v": 78
    },
    {
      "midi": 55,
      "hit": false,
      "t": 70682.08192187516,
      "d": 114.1826770833286,
      "v": 76
    },
    {
      "midi": 59,
      "hit": false,
      "t": 71259.00492187515,
      "d": 90.14421875000698,
      "v": 73
    },
    {
      "midi": 55,
      "hit": false,
      "t": 71259.00492187515,
      "d": 120.19229166668083,
      "v": 81
    },
    {
      "midi": 62,
      "hit": false,
      "t": 71259.00492187515,
      "d": 120.19229166668083,
      "v": 74
    },
    {
      "midi": 57,
      "hit": false,
      "t": 71832.9231145835,
      "d": 105.16825520833663,
      "v": 78
    },
    {
      "midi": 60,
      "hit": false,
      "t": 71835.92792187516,
      "d": 84.1346041666693,
      "v": 81
    },
    {
      "midi": 64,
      "hit": false,
      "t": 71835.92792187516,
      "d": 96.15383333333011,
      "v": 72
    },
    {
      "midi": 57,
      "hit": false,
      "t": 72412.85092187516,
      "d": 105.16825520833663,
      "v": 73
    },
    {
      "midi": 60,
      "hit": false,
      "t": 72412.85092187516,
      "d": 105.16825520833663,
      "v": 79
    },
    {
      "midi": 52,
      "hit": false,
      "t": 72412.85092187516,
      "d": 108.17306250000547,
      "v": 78
    },
    {
      "midi": 64,
      "hit": false,
      "t": 72412.85092187516,
      "d": 108.17306250000547,
      "v": 70
    },
    {
      "midi": 62,
      "hit": false,
      "t": 72986.7691145835,
      "d": 99.15864062499895,
      "v": 73
    },
    {
      "midi": 53,
      "hit": false,
      "t": 72986.7691145835,
      "d": 102.16344791666779,
      "v": 74
    },
    {
      "midi": 57,
      "hit": false,
      "t": 72989.77392187517,
      "d": 99.15864062499895,
      "v": 73
    },
    {
      "midi": 53,
      "hit": false,
      "t": 73563.6921145835,
      "d": 99.15864062499895,
      "v": 73
    },
    {
      "midi": 62,
      "hit": false,
      "t": 73563.6921145835,
      "d": 105.16825520833663,
      "v": 78
    },
    {
      "midi": 57,
      "hit": false,
      "t": 73566.69692187516,
      "d": 96.15383333333011,
      "v": 74
    },
    {
      "midi": 53,
      "hit": false,
      "t": 74140.6151145835,
      "d": 105.16825520833663,
      "v": 69
    },
    {
      "midi": 65,
      "hit": false,
      "t": 74143.61992187517,
      "d": 96.15383333333011,
      "v": 76
    },
    {
      "midi": 60,
      "hit": false,
      "t": 74143.61992187517,
      "d": 102.16344791666779,
      "v": 78
    },
    {
      "midi": 57,
      "hit": false,
      "t": 74143.61992187517,
      "d": 108.17306250000547,
      "v": 73
    },
    {
      "midi": 53,
      "hit": false,
      "t": 74717.53811458351,
      "d": 105.16825520833663,
      "v": 78
    },
    {
      "midi": 57,
      "hit": false,
      "t": 74720.54292187518,
      "d": 108.17306250000547,
      "v": 73
    },
    {
      "midi": 60,
      "hit": false,
      "t": 74720.54292187518,
      "d": 108.17306250000547,
      "v": 76
    },
    {
      "midi": 65,
      "hit": false,
      "t": 74720.54292187518,
      "d": 114.18267708334315,
      "v": 73
    },
    {
      "midi": 57,
      "hit": false,
      "t": 75294.46111458352,
      "d": 105.16825520833663,
      "v": 73
    },
    {
      "midi": 53,
      "hit": false,
      "t": 75297.46592187519,
      "d": 105.16825520833663,
      "v": 76
    },
    {
      "midi": 60,
      "hit": false,
      "t": 75297.46592187519,
      "d": 105.16825520833663,
      "v": 74
    },
    {
      "midi": 65,
      "hit": false,
      "t": 75297.46592187519,
      "d": 105.16825520833663,
      "v": 71
    },
    {
      "midi": 60,
      "hit": false,
      "t": 75871.38411458353,
      "d": 105.16825520833663,
      "v": 73
    },
    {
      "midi": 57,
      "hit": false,
      "t": 75874.3889218752,
      "d": 102.16344791666779,
      "v": 70
    },
    {
      "midi": 53,
      "hit": false,
      "t": 75874.3889218752,
      "d": 108.17306250000547,
      "v": 73
    },
    {
      "midi": 65,
      "hit": false,
      "t": 75874.3889218752,
      "d": 108.17306250000547,
      "v": 71
    },
    {
      "midi": 59,
      "hit": false,
      "t": 76451.31192187521,
      "d": 102.16344791666779,
      "v": 68
    },
    {
      "midi": 62,
      "hit": false,
      "t": 76451.31192187521,
      "d": 102.16344791666779,
      "v": 71
    },
    {
      "midi": 55,
      "hit": false,
      "t": 76451.31192187521,
      "d": 108.17306250000547,
      "v": 72
    },
    {
      "midi": 67,
      "hit": false,
      "t": 76451.31192187521,
      "d": 108.17306250000547,
      "v": 69
    },
    {
      "midi": 62,
      "hit": false,
      "t": 77025.23011458355,
      "d": 105.16825520833663,
      "v": 76
    },
    {
      "midi": 59,
      "hit": false,
      "t": 77028.23492187522,
      "d": 102.16344791666779,
      "v": 68
    },
    {
      "midi": 55,
      "hit": false,
      "t": 77028.23492187522,
      "d": 108.17306250000547,
      "v": 76
    },
    {
      "midi": 67,
      "hit": false,
      "t": 77028.23492187522,
      "d": 108.17306250000547,
      "v": 73
    },
    {
      "midi": 55,
      "hit": false,
      "t": 77605.15792187523,
      "d": 54.08653124999546,
      "v": 81
    },
    {
      "midi": 59,
      "hit": false,
      "t": 77605.15792187523,
      "d": 93.14902604166127,
      "v": 66
    },
    {
      "midi": 62,
      "hit": false,
      "t": 77605.15792187523,
      "d": 93.14902604166127,
      "v": 72
    },
    {
      "midi": 67,
      "hit": false,
      "t": 77605.15792187523,
      "d": 93.14902604166127,
      "v": 68
    },
    {
      "midi": 62,
      "hit": false,
      "t": 78182.08092187523,
      "d": 102.16344791666779,
      "v": 73
    },
    {
      "midi": 55,
      "hit": false,
      "t": 78182.08092187523,
      "d": 108.17306250000547,
      "v": 76
    },
    {
      "midi": 59,
      "hit": false,
      "t": 78185.0857291669,
      "d": 108.17306250000547,
      "v": 68
    },
    {
      "midi": 67,
      "hit": false,
      "t": 78185.0857291669,
      "d": 108.17306250000547,
      "v": 74
    },
    {
      "midi": 52,
      "hit": false,
      "t": 78755.99911458357,
      "d": 111.17786979167431,
      "v": 81
    },
    {
      "midi": 57,
      "hit": false,
      "t": 78759.00392187524,
      "d": 96.15383333333011,
      "v": 76
    },
    {
      "midi": 60,
      "hit": false,
      "t": 78759.00392187524,
      "d": 102.16344791666779,
      "v": 81
    },
    {
      "midi": 64,
      "hit": false,
      "t": 78759.00392187524,
      "d": 102.16344791666779,
      "v": 71
    },
    {
      "midi": 52,
      "hit": false,
      "t": 79335.92692187525,
      "d": 105.16825520833663,
      "v": 81
    },
    {
      "midi": 57,
      "hit": false,
      "t": 79335.92692187525,
      "d": 105.16825520833663,
      "v": 78
    },
    {
      "midi": 60,
      "hit": false,
      "t": 79335.92692187525,
      "d": 105.16825520833663,
      "v": 79
    },
    {
      "midi": 64,
      "hit": false,
      "t": 79335.92692187525,
      "d": 105.16825520833663,
      "v": 72
    },
    {
      "midi": 50,
      "hit": false,
      "t": 79909.84511458359,
      "d": 111.17786979167431,
      "v": 74
    },
    {
      "midi": 65,
      "hit": false,
      "t": 79909.84511458359,
      "d": 111.17786979167431,
      "v": 72
    },
    {
      "midi": 57,
      "hit": false,
      "t": 79912.84992187525,
      "d": 102.16344791666779,
      "v": 74
    },
    {
      "midi": 62,
      "hit": false,
      "t": 79912.84992187525,
      "d": 105.16825520833663,
      "v": 76
    },
    {
      "midi": 62,
      "hit": false,
      "t": 80486.7681145836,
      "d": 99.15864062499895,
      "v": 79
    },
    {
      "midi": 57,
      "hit": false,
      "t": 80489.77292187526,
      "d": 102.16344791666779,
      "v": 78
    },
    {
      "midi": 50,
      "hit": false,
      "t": 80489.77292187526,
      "d": 108.17306250000547,
      "v": 81
    },
    {
      "midi": 65,
      "hit": false,
      "t": 80489.77292187526,
      "d": 111.17786979167431,
      "v": 76
    },
    {
      "midi": 55,
      "hit": false,
      "t": 81063.6911145836,
      "d": 117.18748437499744,
      "v": 83
    },
    {
      "midi": 59,
      "hit": false,
      "t": 81066.69592187527,
      "d": 93.14902604166127,
      "v": 68
    },
    {
      "midi": 62,
      "hit": false,
      "t": 81066.69592187527,
      "d": 93.14902604166127,
      "v": 74
    },
    {
      "midi": 67,
      "hit": false,
      "t": 81066.69592187527,
      "d": 93.14902604166127,
      "v": 72
    },
    {
      "midi": 62,
      "hit": false,
      "t": 81640.6141145836,
      "d": 105.16825520833663,
      "v": 71
    },
    {
      "midi": 59,
      "hit": false,
      "t": 81643.61892187527,
      "d": 108.17306250000547,
      "v": 66
    },
    {
      "midi": 55,
      "hit": false,
      "t": 81643.61892187527,
      "d": 111.17786979167431,
      "v": 95
    },
    {
      "midi": 67,
      "hit": false,
      "t": 81643.61892187527,
      "d": 111.17786979167431,
      "v": 72
    },
    {
      "midi": 59,
      "hit": false,
      "t": 82217.53711458361,
      "d": 111.17786979167431,
      "v": 67
    },
    {
      "midi": 62,
      "hit": false,
      "t": 82220.54192187528,
      "d": 102.16344791666779,
      "v": 70
    },
    {
      "midi": 55,
      "hit": false,
      "t": 82220.54192187528,
      "d": 111.17786979167431,
      "v": 95
    },
    {
      "midi": 67,
      "hit": false,
      "t": 82220.54192187528,
      "d": 111.17786979167431,
      "v": 69
    },
    {
      "midi": 59,
      "hit": false,
      "t": 82794.46011458362,
      "d": 111.17786979167431,
      "v": 69
    },
    {
      "midi": 62,
      "hit": false,
      "t": 82797.46492187529,
      "d": 102.16344791666779,
      "v": 72
    },
    {
      "midi": 67,
      "hit": false,
      "t": 82797.46492187529,
      "d": 102.16344791666779,
      "v": 74
    },
    {
      "midi": 55,
      "hit": false,
      "t": 82797.46492187529,
      "d": 108.17306250000547,
      "v": 88
    },
    {
      "midi": 60,
      "hit": false,
      "t": 83371.38311458363,
      "d": 123.19709895833512,
      "v": 66
    },
    {
      "midi": 52,
      "hit": false,
      "t": 83374.3879218753,
      "d": 84.1346041666693,
      "v": 71
    },
    {
      "midi": 64,
      "hit": false,
      "t": 83374.3879218753,
      "d": 84.1346041666693,
      "v": 57
    },
    {
      "midi": 57,
      "hit": false,
      "t": 83374.3879218753,
      "d": 120.19229166666628,
      "v": 59
    },
    {
      "midi": 57,
      "hit": false,
      "t": 83948.30611458363,
      "d": 105.16825520833663,
      "v": 79
    },
    {
      "midi": 52,
      "hit": false,
      "t": 83948.30611458363,
      "d": 111.17786979167431,
      "v": 79
    },
    {
      "midi": 60,
      "hit": false,
      "t": 83951.3109218753,
      "d": 105.16825520833663,
      "v": 86
    },
    {
      "midi": 64,
      "hit": false,
      "t": 83951.3109218753,
      "d": 105.16825520833663,
      "v": 74
    },
    {
      "midi": 57,
      "hit": false,
      "t": 84525.22911458364,
      "d": 105.16825520833663,
      "v": 73
    },
    {
      "midi": 65,
      "hit": false,
      "t": 84528.2339218753,
      "d": 105.16825520833663,
      "v": 71
    },
    {
      "midi": 62,
      "hit": false,
      "t": 84528.2339218753,
      "d": 108.17306250000547,
      "v": 76
    },
    {
      "midi": 50,
      "hit": false,
      "t": 84528.2339218753,
      "d": 114.18267708334315,
      "v": 71
    },
    {
      "midi": 62,
      "hit": false,
      "t": 85102.15211458365,
      "d": 105.16825520833663,
      "v": 73
    },
    {
      "midi": 57,
      "hit": false,
      "t": 85105.15692187531,
      "d": 102.16344791666779,
      "v": 73
    },
    {
      "midi": 50,
      "hit": false,
      "t": 85105.15692187531,
      "d": 108.17306250000547,
      "v": 74
    },
    {
      "midi": 65,
      "hit": false,
      "t": 85105.15692187531,
      "d": 108.17306250000547,
      "v": 72
    },
    {
      "midi": 59,
      "hit": false,
      "t": 85679.07511458365,
      "d": 108.17306250000547,
      "v": 69
    },
    {
      "midi": 62,
      "hit": false,
      "t": 85682.07992187532,
      "d": 105.16825520833663,
      "v": 73
    },
    {
      "midi": 67,
      "hit": false,
      "t": 85682.07992187532,
      "d": 105.16825520833663,
      "v": 72
    },
    {
      "midi": 55,
      "hit": false,
      "t": 85682.07992187532,
      "d": 108.17306250000547,
      "v": 79
    },
    {
      "midi": 55,
      "hit": false,
      "t": 86255.99811458366,
      "d": 117.18748437501199,
      "v": 81
    },
    {
      "midi": 59,
      "hit": false,
      "t": 86259.00292187533,
      "d": 108.17306250000547,
      "v": 66
    },
    {
      "midi": 62,
      "hit": false,
      "t": 86259.00292187533,
      "d": 108.17306250000547,
      "v": 69
    },
    {
      "midi": 67,
      "hit": false,
      "t": 86259.00292187533,
      "d": 114.18267708334315,
      "v": 69
    },
    {
      "midi": 62,
      "hit": false,
      "t": 86832.92111458367,
      "d": 105.16825520833663,
      "v": 71
    },
    {
      "midi": 59,
      "hit": false,
      "t": 86835.92592187534,
      "d": 102.16344791666779,
      "v": 68
    },
    {
      "midi": 55,
      "hit": false,
      "t": 86835.92592187534,
      "d": 108.17306250000547,
      "v": 79
    },
    {
      "midi": 67,
      "hit": false,
      "t": 86835.92592187534,
      "d": 108.17306250000547,
      "v": 72
    },
    {
      "midi": 59,
      "hit": false,
      "t": 87412.84892187535,
      "d": 102.16344791666779,
      "v": 71
    },
    {
      "midi": 62,
      "hit": false,
      "t": 87412.84892187535,
      "d": 102.16344791666779,
      "v": 74
    },
    {
      "midi": 55,
      "hit": false,
      "t": 87412.84892187535,
      "d": 108.17306250000547,
      "v": 79
    },
    {
      "midi": 67,
      "hit": false,
      "t": 87412.84892187535,
      "d": 114.18267708334315,
      "v": 73
    },
    {
      "midi": 52,
      "hit": false,
      "t": 87986.7671145837,
      "d": 111.17786979167431,
      "v": 74
    },
    {
      "midi": 60,
      "hit": false,
      "t": 87989.77192187536,
      "d": 96.15383333333011,
      "v": 70
    },
    {
      "midi": 57,
      "hit": false,
      "t": 87989.77192187536,
      "d": 102.16344791666779,
      "v": 72
    },
    {
      "midi": 64,
      "hit": false,
      "t": 87989.77192187536,
      "d": 105.16825520833663,
      "v": 68
    },
    {
      "midi": 52,
      "hit": false,
      "t": 88563.6901145837,
      "d": 111.17786979167431,
      "v": 74
    },
    {
      "midi": 60,
      "hit": false,
      "t": 88566.69492187537,
      "d": 102.16344791666779,
      "v": 74
    },
    {
      "midi": 57,
      "hit": false,
      "t": 88566.69492187537,
      "d": 108.17306250000547,
      "v": 74
    },
    {
      "midi": 64,
      "hit": false,
      "t": 88566.69492187537,
      "d": 114.18267708334315,
      "v": 68
    },
    {
      "midi": 57,
      "hit": false,
      "t": 89140.61311458371,
      "d": 105.16825520833663,
      "v": 73
    },
    {
      "midi": 62,
      "hit": false,
      "t": 89143.61792187538,
      "d": 105.16825520833663,
      "v": 69
    },
    {
      "midi": 65,
      "hit": false,
      "t": 89143.61792187538,
      "d": 105.16825520833663,
      "v": 70
    },
    {
      "midi": 50,
      "hit": false,
      "t": 89143.61792187538,
      "d": 108.17306250000547,
      "v": 81
    },
    {
      "midi": 62,
      "hit": false,
      "t": 89720.54092187539,
      "d": 90.14421875000698,
      "v": 76
    },
    {
      "midi": 57,
      "hit": false,
      "t": 89720.54092187539,
      "d": 93.14902604167582,
      "v": 74
    },
    {
      "midi": 65,
      "hit": false,
      "t": 89720.54092187539,
      "d": 96.15383333334466,
      "v": 72
    },
    {
      "midi": 50,
      "hit": false,
      "t": 89720.54092187539,
      "d": 114.18267708334315,
      "v": 79
    },
    {
      "midi": 55,
      "hit": false,
      "t": 90294.45911458373,
      "d": 123.19709895834967,
      "v": 83
    },
    {
      "midi": 62,
      "hit": false,
      "t": 90297.4639218754,
      "d": 90.14421875000698,
      "v": 72
    },
    {
      "midi": 59,
      "hit": false,
      "t": 90297.4639218754,
      "d": 96.15383333334466,
      "v": 64
    },
    {
      "midi": 67,
      "hit": false,
      "t": 90297.4639218754,
      "d": 96.15383333334466,
      "v": 69
    },
    {
      "midi": 62,
      "hit": false,
      "t": 90871.38211458374,
      "d": 105.16825520833663,
      "v": 74
    },
    {
      "midi": 59,
      "hit": false,
      "t": 90874.38692187541,
      "d": 102.16344791666779,
      "v": 70
    },
    {
      "midi": 55,
      "hit": false,
      "t": 90874.38692187541,
      "d": 108.17306250000547,
      "v": 79
    },
    {
      "midi": 67,
      "hit": false,
      "t": 90874.38692187541,
      "d": 108.17306250000547,
      "v": 71
    },
    {
      "midi": 55,
      "hit": false,
      "t": 91448.30511458375,
      "d": 117.18748437501199,
      "v": 86
    },
    {
      "midi": 67,
      "hit": false,
      "t": 91451.30992187542,
      "d": 102.16344791666779,
      "v": 71
    },
    {
      "midi": 59,
      "hit": false,
      "t": 91451.30992187542,
      "d": 108.17306250000547,
      "v": 69
    },
    {
      "midi": 62,
      "hit": false,
      "t": 91451.30992187542,
      "d": 108.17306250000547,
      "v": 73
    },
    {
      "midi": 62,
      "hit": false,
      "t": 92025.22811458376,
      "d": 108.17306250000547,
      "v": 76
    },
    {
      "midi": 55,
      "hit": false,
      "t": 92028.23292187543,
      "d": 105.16825520833663,
      "v": 88
    },
    {
      "midi": 59,
      "hit": false,
      "t": 92028.23292187543,
      "d": 105.16825520833663,
      "v": 70
    },
    {
      "midi": 67,
      "hit": false,
      "t": 92028.23292187543,
      "d": 108.17306250000547,
      "v": 73
    },
    {
      "midi": 60,
      "hit": false,
      "t": 92602.15111458377,
      "d": 105.16825520833663,
      "v": 78
    },
    {
      "midi": 52,
      "hit": false,
      "t": 92605.15592187544,
      "d": 102.16344791666779,
      "v": 76
    },
    {
      "midi": 57,
      "hit": false,
      "t": 92605.15592187544,
      "d": 108.17306250000547,
      "v": 73
    },
    {
      "midi": 64,
      "hit": false,
      "t": 92605.15592187544,
      "d": 108.17306250000547,
      "v": 67
    },
    {
      "midi": 57,
      "hit": false,
      "t": 93182.07892187545,
      "d": 102.16344791666779,
      "v": 78
    },
    {
      "midi": 52,
      "hit": false,
      "t": 93182.07892187545,
      "d": 108.17306250000547,
      "v": 83
    },
    {
      "midi": 60,
      "hit": false,
      "t": 93182.07892187545,
      "d": 111.17786979167431,
      "v": 83
    },
    {
      "midi": 64,
      "hit": false,
      "t": 93182.07892187545,
      "d": 111.17786979167431,
      "v": 72
    },
    {
      "midi": 50,
      "hit": false,
      "t": 93755.99711458379,
      "d": 111.17786979167431,
      "v": 79
    },
    {
      "midi": 57,
      "hit": false,
      "t": 93759.00192187546,
      "d": 102.16344791666779,
      "v": 74
    },
    {
      "midi": 62,
      "hit": false,
      "t": 93759.00192187546,
      "d": 102.16344791666779,
      "v": 81
    },
    {
      "midi": 65,
      "hit": false,
      "t": 93759.00192187546,
      "d": 108.17306250000547,
      "v": 73
    },
    {
      "midi": 65,
      "hit": false,
      "t": 94332.9201145838,
      "d": 114.1826770833286,
      "v": 74
    },
    {
      "midi": 50,
      "hit": false,
      "t": 94335.92492187547,
      "d": 111.17786979165976,
      "v": 83
    },
    {
      "midi": 57,
      "hit": false,
      "t": 94335.92492187547,
      "d": 111.17786979165976,
      "v": 76
    },
    {
      "midi": 62,
      "hit": false,
      "t": 94335.92492187547,
      "d": 111.17786979165976,
      "v": 81
    },
    {
      "midi": 62,
      "hit": false,
      "t": 94909.8431145838,
      "d": 105.16825520833663,
      "v": 76
    },
    {
      "midi": 55,
      "hit": false,
      "t": 94912.84792187547,
      "d": 108.17306250000547,
      "v": 78
    },
    {
      "midi": 59,
      "hit": false,
      "t": 94912.84792187547,
      "d": 111.17786979167431,
      "v": 71
    },
    {
      "midi": 67,
      "hit": false,
      "t": 94912.84792187547,
      "d": 114.18267708334315,
      "v": 76
    },
    {
      "midi": 62,
      "hit": false,
      "t": 95486.7661145838,
      "d": 105.16825520833663,
      "v": 73
    },
    {
      "midi": 67,
      "hit": false,
      "t": 95486.7661145838,
      "d": 108.17306250000547,
      "v": 69
    },
    {
      "midi": 55,
      "hit": false,
      "t": 95489.77092187548,
      "d": 105.16825520833663,
      "v": 79
    },
    {
      "midi": 59,
      "hit": false,
      "t": 95489.77092187548,
      "d": 105.16825520833663,
      "v": 69
    },
    {
      "midi": 62,
      "hit": false,
      "t": 96066.69392187549,
      "d": 96.15383333333011,
      "v": 73
    },
    {
      "midi": 59,
      "hit": false,
      "t": 96066.69392187549,
      "d": 102.16344791666779,
      "v": 69
    },
    {
      "midi": 55,
      "hit": false,
      "t": 96066.69392187549,
      "d": 108.17306250000547,
      "v": 81
    },
    {
      "midi": 67,
      "hit": false,
      "t": 96066.69392187549,
      "d": 108.17306250000547,
      "v": 70
    },
    {
      "midi": 59,
      "hit": false,
      "t": 96643.6169218755,
      "d": 96.15383333333011,
      "v": 66
    },
    {
      "midi": 55,
      "hit": false,
      "t": 96643.6169218755,
      "d": 108.17306249999092,
      "v": 74
    },
    {
      "midi": 67,
      "hit": false,
      "t": 96643.6169218755,
      "d": 111.17786979165976,
      "v": 70
    },
    {
      "midi": 62,
      "hit": false,
      "t": 96646.62172916716,
      "d": 108.17306249999092,
      "v": 73
    },
    {
      "midi": 55,
      "hit": false,
      "t": 97217.53511458382,
      "d": 129.2067135416728,
      "v": 81
    },
    {
      "midi": 60,
      "hit": false,
      "t": 97217.53511458382,
      "d": 129.2067135416728,
      "v": 86
    },
    {
      "midi": 64,
      "hit": false,
      "t": 97220.53992187549,
      "d": 144.23075000000244,
      "v": 72
    },
    {
      "midi": 60,
      "hit": false,
      "t": 97794.45811458383,
      "d": 141.2259427083336,
      "v": 88
    },
    {
      "midi": 64,
      "hit": false,
      "t": 97794.45811458383,
      "d": 144.23075000000244,
      "v": 74
    },
    {
      "midi": 55,
      "hit": false,
      "t": 97797.4629218755,
      "d": 141.2259427083336,
      "v": 79
    },
    {
      "midi": 57,
      "hit": false,
      "t": 98371.38111458383,
      "d": 126.20190625000396,
      "v": 79
    },
    {
      "midi": 60,
      "hit": false,
      "t": 98371.38111458383,
      "d": 126.20190625000396,
      "v": 76
    },
    {
      "midi": 53,
      "hit": false,
      "t": 98374.3859218755,
      "d": 123.19709895833512,
      "v": 76
    },
    {
      "midi": 62,
      "hit": false,
      "t": 98374.3859218755,
      "d": 123.19709895833512,
      "v": 69
    },
    {
      "midi": 60,
      "hit": false,
      "t": 98948.30411458384,
      "d": 111.17786979167431,
      "v": 74
    },
    {
      "midi": 57,
      "hit": false,
      "t": 98951.3089218755,
      "d": 102.16344791666779,
      "v": 78
    },
    {
      "midi": 53,
      "hit": false,
      "t": 98951.3089218755,
      "d": 111.17786979167431,
      "v": 73
    },
    {
      "midi": 62,
      "hit": false,
      "t": 98951.3089218755,
      "d": 111.17786979167431,
      "v": 69
    },
    {
      "midi": 60,
      "hit": false,
      "t": 99525.22711458385,
      "d": 111.17786979167431,
      "v": 64
    },
    {
      "midi": 57,
      "hit": false,
      "t": 99525.22711458385,
      "d": 135.21632812501048,
      "v": 81
    },
    {
      "midi": 53,
      "hit": false,
      "t": 99528.23192187551,
      "d": 111.17786979167431,
      "v": 68
    },
    {
      "midi": 55,
      "hit": false,
      "t": 99528.23192187551,
      "d": 111.17786979167431,
      "v": 69
    },
    {
      "midi": 55,
      "hit": false,
      "t": 100102.15011458386,
      "d": 111.17786979165976,
      "v": 74
    },
    {
      "midi": 57,
      "hit": false,
      "t": 100105.15492187552,
      "d": 96.15383333333011,
      "v": 99
    },
    {
      "midi": 53,
      "hit": false,
      "t": 100105.15492187552,
      "d": 111.17786979165976,
      "v": 72
    },
    {
      "midi": 60,
      "hit": false,
      "t": 100105.15492187552,
      "d": 111.17786979165976,
      "v": 78
    },
    {
      "midi": 59,
      "hit": false,
      "t": 100679.07311458385,
      "d": 117.18748437499744,
      "v": 88
    },
    {
      "midi": 62,
      "hit": false,
      "t": 100679.07311458385,
      "d": 120.19229166666628,
      "v": 81
    },
    {
      "midi": 55,
      "hit": false,
      "t": 100682.07792187552,
      "d": 120.19229166666628,
      "v": 81
    },
    {
      "midi": 59,
      "hit": false,
      "t": 101255.99611458385,
      "d": 105.16825520833663,
      "v": 81
    },
    {
      "midi": 62,
      "hit": false,
      "t": 101255.99611458385,
      "d": 105.16825520833663,
      "v": 73
    },
    {
      "midi": 55,
      "hit": false,
      "t": 101259.00092187551,
      "d": 96.15383333333011,
      "v": 73
    },
    {
      "midi": 60,
      "hit": false,
      "t": 101832.91911458386,
      "d": 111.17786979167431,
      "v": 83
    },
    {
      "midi": 55,
      "hit": false,
      "t": 101835.92392187552,
      "d": 108.17306250000547,
      "v": 78
    },
    {
      "midi": 64,
      "hit": false,
      "t": 101835.92392187552,
      "d": 126.20190625000396,
      "v": 72
    },
    {
      "midi": 60,
      "hit": false,
      "t": 102409.84211458387,
      "d": 117.18748437499744,
      "v": 81
    },
    {
      "midi": 64,
      "hit": false,
      "t": 102409.84211458387,
      "d": 135.21632812499593,
      "v": 72
    },
    {
      "midi": 55,
      "hit": false,
      "t": 102412.84692187553,
      "d": 114.1826770833286,
      "v": 74
    },
    {
      "midi": 60,
      "hit": false,
      "t": 102986.76511458386,
      "d": 126.20190625000396,
      "v": 78
    },
    {
      "midi": 53,
      "hit": false,
      "t": 102989.76992187553,
      "d": 123.19709895833512,
      "v": 73
    },
    {
      "midi": 57,
      "hit": false,
      "t": 102989.76992187553,
      "d": 123.19709895833512,
      "v": 79
    },
    {
      "midi": 62,
      "hit": false,
      "t": 102989.76992187553,
      "d": 123.19709895833512,
      "v": 72
    },
    {
      "midi": 57,
      "hit": false,
      "t": 103566.69292187552,
      "d": 102.16344791666779,
      "v": 78
    },
    {
      "midi": 60,
      "hit": false,
      "t": 103566.69292187552,
      "d": 102.16344791666779,
      "v": 72
    },
    {
      "midi": 53,
      "hit": false,
      "t": 103566.69292187552,
      "d": 108.17306250000547,
      "v": 70
    },
    {
      "midi": 62,
      "hit": false,
      "t": 103566.69292187552,
      "d": 108.17306250000547,
      "v": 67
    },
    {
      "midi": 53,
      "hit": false,
      "t": 104140.61111458387,
      "d": 123.19709895833512,
      "v": 73
    },
    {
      "midi": 57,
      "hit": false,
      "t": 104143.61592187553,
      "d": 96.15383333333011,
      "v": 79
    },
    {
      "midi": 55,
      "hit": false,
      "t": 104143.61592187553,
      "d": 102.16344791666779,
      "v": 79
    },
    {
      "midi": 60,
      "hit": false,
      "t": 104143.61592187553,
      "d": 120.19229166666628,
      "v": 74
    },
    {
      "midi": 55,
      "hit": false,
      "t": 104717.53411458386,
      "d": 105.16825520833663,
      "v": 78
    },
    {
      "midi": 53,
      "hit": false,
      "t": 104720.53892187553,
      "d": 105.16825520833663,
      "v": 73
    },
    {
      "midi": 57,
      "hit": false,
      "t": 104720.53892187553,
      "d": 105.16825520833663,
      "v": 79
    },
    {
      "midi": 60,
      "hit": false,
      "t": 104720.53892187553,
      "d": 126.20190625000396,
      "v": 73
    },
    {
      "midi": 59,
      "hit": false,
      "t": 105294.45711458387,
      "d": 111.17786979167431,
      "v": 78
    },
    {
      "midi": 55,
      "hit": false,
      "t": 105294.45711458387,
      "d": 129.2067135416728,
      "v": 73
    },
    {
      "midi": 62,
      "hit": false,
      "t": 105297.46192187554,
      "d": 108.17306250000547,
      "v": 78
    },
    {
      "midi": 55,
      "hit": false,
      "t": 105871.38011458388,
      "d": 99.15864062499895,
      "v": 79
    },
    {
      "midi": 59,
      "hit": false,
      "t": 105871.38011458388,
      "d": 99.15864062499895,
      "v": 83
    },
    {
      "midi": 62,
      "hit": false,
      "t": 105874.38492187555,
      "d": 120.19229166666628,
      "v": 78
    },
    {
      "midi": 60,
      "hit": false,
      "t": 106448.30311458388,
      "d": 105.16825520833663,
      "v": 86
    },
    {
      "midi": 64,
      "hit": false,
      "t": 106448.30311458388,
      "d": 123.19709895833512,
      "v": 72
    },
    {
      "midi": 55,
      "hit": false,
      "t": 106451.30792187554,
      "d": 120.19229166666628,
      "v": 81
    },
    {
      "midi": 55,
      "hit": false,
      "t": 107025.22611458387,
      "d": 99.15864062499895,
      "v": 76
    },
    {
      "midi": 60,
      "hit": false,
      "t": 107025.22611458387,
      "d": 99.15864062499895,
      "v": 79
    },
    {
      "midi": 64,
      "hit": false,
      "t": 107028.23092187554,
      "d": 114.1826770833286,
      "v": 72
    },
    {
      "midi": 60,
      "hit": false,
      "t": 107602.14911458387,
      "d": 111.17786979167431,
      "v": 79
    },
    {
      "midi": 57,
      "hit": false,
      "t": 107605.15392187554,
      "d": 90.14421875000698,
      "v": 76
    },
    {
      "midi": 53,
      "hit": false,
      "t": 107605.15392187554,
      "d": 111.17786979167431,
      "v": 74
    },
    {
      "midi": 60,
      "hit": false,
      "t": 108179.07211458388,
      "d": 129.2067135416728,
      "v": 81
    },
    {
      "midi": 53,
      "hit": false,
      "t": 108182.07692187554,
      "d": 90.14421875000698,
      "v": 73
    },
    {
      "midi": 57,
      "hit": false,
      "t": 108182.07692187554,
      "d": 90.14421875000698,
      "v": 79
    },
    {
      "midi": 60,
      "hit": false,
      "t": 108758.99992187555,
      "d": 96.15383333333011,
      "v": 76
    },
    {
      "midi": 55,
      "hit": false,
      "t": 108758.99992187555,
      "d": 102.16344791666779,
      "v": 74
    },
    {
      "midi": 57,
      "hit": false,
      "t": 108758.99992187555,
      "d": 102.16344791666779,
      "v": 78
    },
    {
      "midi": 53,
      "hit": false,
      "t": 108758.99992187555,
      "d": 108.17306250000547,
      "v": 72
    },
    {
      "midi": 57,
      "hit": false,
      "t": 109335.92292187556,
      "d": 96.15383333333011,
      "v": 81
    },
    {
      "midi": 60,
      "hit": false,
      "t": 109335.92292187556,
      "d": 102.16344791666779,
      "v": 73
    },
    {
      "midi": 53,
      "hit": false,
      "t": 109335.92292187556,
      "d": 105.16825520833663,
      "v": 71
    },
    {
      "midi": 55,
      "hit": false,
      "t": 109335.92292187556,
      "d": 105.16825520833663,
      "v": 74
    },
    {
      "midi": 55,
      "hit": false,
      "t": 109909.8411145839,
      "d": 105.16825520833663,
      "v": 74
    },
    {
      "midi": 62,
      "hit": false,
      "t": 109909.8411145839,
      "d": 105.16825520833663,
      "v": 71
    },
    {
      "midi": 59,
      "hit": false,
      "t": 109912.84592187557,
      "d": 84.1346041666693,
      "v": 74
    },
    {
      "midi": 62,
      "hit": false,
      "t": 110486.76411458392,
      "d": 105.16825520833663,
      "v": 73
    },
    {
      "midi": 59,
      "hit": false,
      "t": 110489.76892187558,
      "d": 84.1346041666693,
      "v": 83
    },
    {
      "midi": 55,
      "hit": false,
      "t": 110489.76892187558,
      "d": 90.14421875000698,
      "v": 79
    },
    {
      "midi": 60,
      "hit": false,
      "t": 111063.68711458392,
      "d": 99.15864062499895,
      "v": 81
    },
    {
      "midi": 55,
      "hit": false,
      "t": 111063.68711458392,
      "d": 102.16344791666779,
      "v": 78
    },
    {
      "midi": 64,
      "hit": false,
      "t": 111066.6919218756,
      "d": 99.15864062499895,
      "v": 71
    },
    {
      "midi": 60,
      "hit": false,
      "t": 111640.61011458392,
      "d": 99.15864062499895,
      "v": 81
    },
    {
      "midi": 55,
      "hit": false,
      "t": 111643.61492187559,
      "d": 114.1826770833286,
      "v": 79
    },
    {
      "midi": 64,
      "hit": false,
      "t": 111643.61492187559,
      "d": 117.18748437499744,
      "v": 72
    },
    {
      "midi": 60,
      "hit": false,
      "t": 112217.53311458392,
      "d": 102.16344791666779,
      "v": 74
    },
    {
      "midi": 53,
      "hit": false,
      "t": 112220.53792187558,
      "d": 99.15864062499895,
      "v": 74
    },
    {
      "midi": 57,
      "hit": false,
      "t": 112220.53792187558,
      "d": 99.15864062499895,
      "v": 76
    },
    {
      "midi": 62,
      "hit": false,
      "t": 112220.53792187558,
      "d": 99.15864062499895,
      "v": 71
    },
    {
      "midi": 53,
      "hit": false,
      "t": 112794.45611458391,
      "d": 111.17786979167431,
      "v": 71
    },
    {
      "midi": 62,
      "hit": false,
      "t": 112797.46092187558,
      "d": 102.16344791666779,
      "v": 68
    },
    {
      "midi": 57,
      "hit": false,
      "t": 112797.46092187558,
      "d": 105.16825520833663,
      "v": 76
    },
    {
      "midi": 60,
      "hit": false,
      "t": 112797.46092187558,
      "d": 105.16825520833663,
      "v": 76
    },
    {
      "midi": 57,
      "hit": false,
      "t": 113371.37911458392,
      "d": 105.16825520833663,
      "v": 76
    },
    {
      "midi": 53,
      "hit": false,
      "t": 113374.38392187559,
      "d": 111.17786979167431,
      "v": 71
    },
    {
      "midi": 55,
      "hit": false,
      "t": 113374.38392187559,
      "d": 111.17786979167431,
      "v": 78
    },
    {
      "midi": 60,
      "hit": false,
      "t": 113374.38392187559,
      "d": 111.17786979167431,
      "v": 73
    },
    {
      "midi": 57,
      "hit": false,
      "t": 113948.30211458393,
      "d": 105.16825520833663,
      "v": 78
    },
    {
      "midi": 53,
      "hit": false,
      "t": 113951.3069218756,
      "d": 96.15383333333011,
      "v": 71
    },
    {
      "midi": 55,
      "hit": false,
      "t": 113951.3069218756,
      "d": 102.16344791666779,
      "v": 73
    },
    {
      "midi": 60,
      "hit": false,
      "t": 113951.3069218756,
      "d": 108.17306250000547,
      "v": 73
    },
    {
      "midi": 59,
      "hit": false,
      "t": 114525.22511458394,
      "d": 87.13941145833815,
      "v": 76
    },
    {
      "midi": 55,
      "hit": false,
      "t": 114525.22511458394,
      "d": 90.14421875000698,
      "v": 72
    },
    {
      "midi": 62,
      "hit": false,
      "t": 114528.22992187561,
      "d": 87.13941145833815,
      "v": 71
    },
    {
      "midi": 59,
      "hit": false,
      "t": 115102.14811458395,
      "d": 99.15864062499895,
      "v": 78
    },
    {
      "midi": 55,
      "hit": false,
      "t": 115105.15292187562,
      "d": 99.15864062499895,
      "v": 73
    },
    {
      "midi": 62,
      "hit": false,
      "t": 115105.15292187562,
      "d": 99.15864062499895,
      "v": 72
    },
    {
      "midi": 57,
      "hit": false,
      "t": 115679.07111458395,
      "d": 105.16825520833663,
      "v": 76
    },
    {
      "midi": 64,
      "hit": false,
      "t": 115682.07592187561,
      "d": 102.16344791666779,
      "v": 69
    },
    {
      "midi": 60,
      "hit": false,
      "t": 115682.07592187561,
      "d": 108.17306250000547,
      "v": 81
    },
    {
      "midi": 52,
      "hit": false,
      "t": 115682.07592187561,
      "d": 126.20190625000396,
      "v": 69
    },
    {
      "midi": 64,
      "hit": false,
      "t": 116258.99892187562,
      "d": 96.15383333333011,
      "v": 69
    },
    {
      "midi": 57,
      "hit": false,
      "t": 116258.99892187562,
      "d": 99.15864062499895,
      "v": 74
    },
    {
      "midi": 60,
      "hit": false,
      "t": 116258.99892187562,
      "d": 99.15864062499895,
      "v": 74
    },
    {
      "midi": 52,
      "hit": false,
      "t": 116258.99892187562,
      "d": 126.20190625000396,
      "v": 65
    },
    {
      "midi": 60,
      "hit": false,
      "t": 116832.91711458396,
      "d": 105.16825520833663,
      "v": 67
    },
    {
      "midi": 53,
      "hit": false,
      "t": 116835.92192187563,
      "d": 105.16825520833663,
      "v": 78
    },
    {
      "midi": 57,
      "hit": false,
      "t": 116835.92192187563,
      "d": 105.16825520833663,
      "v": 69
    },
    {
      "midi": 64,
      "hit": false,
      "t": 116835.92192187563,
      "d": 108.17306250000547,
      "v": 63
    },
    {
      "midi": 60,
      "hit": false,
      "t": 117409.84011458397,
      "d": 123.19709895833512,
      "v": 71
    },
    {
      "midi": 53,
      "hit": false,
      "t": 117412.84492187564,
      "d": 87.13941145833815,
      "v": 79
    },
    {
      "midi": 57,
      "hit": false,
      "t": 117412.84492187564,
      "d": 87.13941145833815,
      "v": 69
    },
    {
      "midi": 64,
      "hit": false,
      "t": 117412.84492187564,
      "d": 123.19709895833512,
      "v": 67
    },
    {
      "midi": 57,
      "hit": false,
      "t": 117986.76311458398,
      "d": 99.1586406250135,
      "v": 81
    },
    {
      "midi": 62,
      "hit": false,
      "t": 117986.76311458398,
      "d": 105.16825520835118,
      "v": 72
    },
    {
      "midi": 53,
      "hit": false,
      "t": 117989.76792187565,
      "d": 66.10576041667082,
      "v": 78
    },
    {
      "midi": 57,
      "hit": false,
      "t": 118563.68611458401,
      "d": 117.18748437499744,
      "v": 76
    },
    {
      "midi": 53,
      "hit": false,
      "t": 118566.69092187568,
      "d": 96.15383333333011,
      "v": 72
    },
    {
      "midi": 62,
      "hit": false,
      "t": 118566.69092187568,
      "d": 114.1826770833286,
      "v": 71
    },
    {
      "midi": 59,
      "hit": false,
      "t": 119140.609114584,
      "d": 111.17786979167431,
      "v": 74
    },
    {
      "midi": 62,
      "hit": false,
      "t": 119140.609114584,
      "d": 111.17786979167431,
      "v": 72
    },
    {
      "midi": 55,
      "hit": false,
      "t": 119143.61392187567,
      "d": 78.12498958333163,
      "v": 74
    },
    {
      "midi": 62,
      "hit": false,
      "t": 119717.53211458401,
      "d": 105.16825520833663,
      "v": 72
    },
    {
      "midi": 55,
      "hit": false,
      "t": 119720.53692187568,
      "d": 105.16825520833663,
      "v": 78
    },
    {
      "midi": 59,
      "hit": false,
      "t": 119720.53692187568,
      "d": 105.16825520833663,
      "v": 74
    },
    {
      "midi": 60,
      "hit": false,
      "t": 120294.45511458402,
      "d": 99.15864062499895,
      "v": 86
    },
    {
      "midi": 57,
      "hit": false,
      "t": 120297.45992187569,
      "d": 96.15383333333011,
      "v": 83
    },
    {
      "midi": 64,
      "hit": false,
      "t": 120297.45992187569,
      "d": 102.16344791666779,
      "v": 72
    },
    {
      "midi": 57,
      "hit": false,
      "t": 120871.37811458403,
      "d": 99.15864062499895,
      "v": 78
    },
    {
      "midi": 60,
      "hit": false,
      "t": 120874.3829218757,
      "d": 99.15864062499895,
      "v": 76
    },
    {
      "midi": 64,
      "hit": false,
      "t": 120874.3829218757,
      "d": 99.15864062499895,
      "v": 70
    },
    {
      "midi": 57,
      "hit": false,
      "t": 121448.30111458403,
      "d": 93.14902604167582,
      "v": 76
    },
    {
      "midi": 60,
      "hit": false,
      "t": 121451.3059218757,
      "d": 96.15383333334466,
      "v": 71
    },
    {
      "midi": 53,
      "hit": false,
      "t": 121451.3059218757,
      "d": 99.1586406250135,
      "v": 67
    },
    {
      "midi": 64,
      "hit": false,
      "t": 121451.3059218757,
      "d": 114.18267708334315,
      "v": 69
    },
    {
      "midi": 57,
      "hit": false,
      "t": 122025.22411458404,
      "d": 99.15864062499895,
      "v": 73
    },
    {
      "midi": 53,
      "hit": false,
      "t": 122028.2289218757,
      "d": 102.16344791666779,
      "v": 70
    },
    {
      "midi": 60,
      "hit": false,
      "t": 122028.2289218757,
      "d": 108.17306250000547,
      "v": 72
    },
    {
      "midi": 64,
      "hit": false,
      "t": 122028.2289218757,
      "d": 108.17306250000547,
      "v": 68
    },
    {
      "midi": 62,
      "hit": false,
      "t": 122602.14711458405,
      "d": 117.18748437501199,
      "v": 73
    },
    {
      "midi": 57,
      "hit": false,
      "t": 122605.15192187572,
      "d": 84.1346041666693,
      "v": 83
    },
    {
      "midi": 53,
      "hit": false,
      "t": 122605.15192187572,
      "d": 90.14421875000698,
      "v": 73
    },
    {
      "midi": 62,
      "hit": false,
      "t": 123179.07011458406,
      "d": 99.15864062499895,
      "v": 71
    },
    {
      "midi": 57,
      "hit": false,
      "t": 123179.07011458406,
      "d": 102.16344791666779,
      "v": 81
    },
    {
      "midi": 53,
      "hit": false,
      "t": 123182.07492187573,
      "d": 99.15864062499895,
      "v": 72
    },
    {
      "midi": 55,
      "hit": false,
      "t": 123755.99311458405,
      "d": 87.13941145833815,
      "v": 74
    },
    {
      "midi": 59,
      "hit": false,
      "t": 123755.99311458405,
      "d": 93.14902604167582,
      "v": 78
    },
    {
      "midi": 62,
      "hit": false,
      "t": 123755.99311458405,
      "d": 111.17786979167431,
      "v": 71
    },
    {
      "midi": 59,
      "hit": false,
      "t": 124332.91611458406,
      "d": 99.15864062499895,
      "v": 76
    },
    {
      "midi": 62,
      "hit": false,
      "t": 124332.91611458406,
      "d": 117.18748437499744,
      "v": 73
    },
    {
      "midi": 55,
      "hit": false,
      "t": 124335.92092187573,
      "d": 96.15383333333011,
      "v": 73
    },
    {
      "midi": 60,
      "hit": false,
      "t": 124909.83911458406,
      "d": 81.12979687500047,
      "v": 79
    },
    {
      "midi": 64,
      "hit": false,
      "t": 124909.83911458406,
      "d": 105.16825520833663,
      "v": 68
    },
    {
      "midi": 57,
      "hit": false,
      "t": 124912.84392187573,
      "d": 78.12498958333163,
      "v": 74
    },
    {
      "midi": 60,
      "hit": false,
      "t": 125486.76211458407,
      "d": 87.13941145833815,
      "v": 79
    },
    {
      "midi": 64,
      "hit": false,
      "t": 125486.76211458407,
      "d": 111.17786979167431,
      "v": 67
    },
    {
      "midi": 57,
      "hit": false,
      "t": 125489.76692187574,
      "d": 102.16344791666779,
      "v": 76
    },
    {
      "midi": 60,
      "hit": false,
      "t": 126066.68992187575,
      "d": 96.15383333333011,
      "v": 70
    },
    {
      "midi": 57,
      "hit": false,
      "t": 126066.68992187575,
      "d": 102.16344791666779,
      "v": 71
    },
    {
      "midi": 64,
      "hit": false,
      "t": 126066.68992187575,
      "d": 105.16825520833663,
      "v": 68
    },
    {
      "midi": 53,
      "hit": false,
      "t": 126069.69472916742,
      "d": 102.16344791666779,
      "v": 66
    },
    {
      "midi": 53,
      "hit": false,
      "t": 126643.61292187576,
      "d": 93.14902604166127,
      "v": 64
    },
    {
      "midi": 57,
      "hit": false,
      "t": 126643.61292187576,
      "d": 93.14902604166127,
      "v": 70
    },
    {
      "midi": 64,
      "hit": false,
      "t": 126643.61292187576,
      "d": 96.15383333333011,
      "v": 66
    },
    {
      "midi": 60,
      "hit": false,
      "t": 126643.61292187576,
      "d": 120.19229166666628,
      "v": 69
    },
    {
      "midi": 62,
      "hit": false,
      "t": 127217.53111458408,
      "d": 99.15864062499895,
      "v": 73
    },
    {
      "midi": 57,
      "hit": false,
      "t": 127217.53111458408,
      "d": 102.16344791666779,
      "v": 83
    },
    {
      "midi": 53,
      "hit": false,
      "t": 127220.53592187575,
      "d": 99.15864062499895,
      "v": 72
    },
    {
      "midi": 53,
      "hit": false,
      "t": 127797.45892187575,
      "d": 90.14421875000698,
      "v": 69
    },
    {
      "midi": 57,
      "hit": false,
      "t": 127797.45892187575,
      "d": 90.14421875000698,
      "v": 83
    },
    {
      "midi": 62,
      "hit": false,
      "t": 127797.45892187575,
      "d": 96.15383333334466,
      "v": 69
    },
    {
      "midi": 59,
      "hit": false,
      "t": 128371.37711458409,
      "d": 75.12018229166279,
      "v": 76
    },
    {
      "midi": 55,
      "hit": false,
      "t": 128371.37711458409,
      "d": 93.14902604166127,
      "v": 72
    },
    {
      "midi": 62,
      "hit": false,
      "t": 128374.38192187576,
      "d": 96.15383333333011,
      "v": 70
    },
    {
      "midi": 59,
      "hit": false,
      "t": 128948.30011458408,
      "d": 87.13941145833815,
      "v": 79
    },
    {
      "midi": 62,
      "hit": false,
      "t": 128948.30011458408,
      "d": 96.15383333334466,
      "v": 71
    },
    {
      "midi": 55,
      "hit": false,
      "t": 128951.30492187575,
      "d": 93.14902604167582,
      "v": 76
    },
    {
      "midi": 60,
      "hit": false,
      "t": 129525.22311458409,
      "d": 81.12979687500047,
      "v": 88
    },
    {
      "midi": 64,
      "hit": false,
      "t": 129525.22311458409,
      "d": 105.16825520833663,
      "v": 72
    },
    {
      "midi": 57,
      "hit": false,
      "t": 129528.22792187576,
      "d": 84.1346041666693,
      "v": 78
    },
    {
      "midi": 60,
      "hit": false,
      "t": 130102.1461145841,
      "d": 99.15864062499895,
      "v": 81
    },
    {
      "midi": 57,
      "hit": false,
      "t": 130105.15092187577,
      "d": 96.15383333333011,
      "v": 78
    },
    {
      "midi": 64,
      "hit": false,
      "t": 130105.15092187577,
      "d": 114.1826770833286,
      "v": 71
    },
    {
      "midi": 62,
      "hit": false,
      "t": 130679.0691145841,
      "d": 117.18748437499744,
      "v": 72
    },
    {
      "midi": 53,
      "hit": false,
      "t": 130682.07392187577,
      "d": 96.15383333333011,
      "v": 73
    },
    {
      "midi": 57,
      "hit": false,
      "t": 130682.07392187577,
      "d": 96.15383333333011,
      "v": 76
    },
    {
      "midi": 62,
      "hit": false,
      "t": 131255.9921145841,
      "d": 99.1586406250135,
      "v": 71
    },
    {
      "midi": 53,
      "hit": false,
      "t": 131258.99692187578,
      "d": 99.1586406250135,
      "v": 73
    },
    {
      "midi": 57,
      "hit": false,
      "t": 131258.99692187578,
      "d": 99.1586406250135,
      "v": 79
    },
    {
      "midi": 57,
      "hit": false,
      "t": 131832.91511458412,
      "d": 99.1586406250135,
      "v": 78
    },
    {
      "midi": 53,
      "hit": false,
      "t": 131835.9199218758,
      "d": 99.1586406250135,
      "v": 74
    },
    {
      "midi": 60,
      "hit": false,
      "t": 131835.9199218758,
      "d": 99.1586406250135,
      "v": 74
    },
    {
      "midi": 57,
      "hit": false,
      "t": 132409.83811458413,
      "d": 102.16344791668234,
      "v": 79
    },
    {
      "midi": 60,
      "hit": false,
      "t": 132409.83811458413,
      "d": 102.16344791668234,
      "v": 78
    },
    {
      "midi": 53,
      "hit": false,
      "t": 132412.8429218758,
      "d": 99.1586406250135,
      "v": 72
    },
    {
      "midi": 57,
      "hit": false,
      "t": 132986.76111458414,
      "d": 99.1586406250135,
      "v": 79
    },
    {
      "midi": 60,
      "hit": false,
      "t": 132986.76111458414,
      "d": 102.16344791668234,
      "v": 81
    },
    {
      "midi": 53,
      "hit": false,
      "t": 132989.7659218758,
      "d": 99.1586406250135,
      "v": 73
    },
    {
      "midi": 60,
      "hit": false,
      "t": 133563.68411458415,
      "d": 105.16825520835118,
      "v": 83
    },
    {
      "midi": 57,
      "hit": false,
      "t": 133566.68892187582,
      "d": 96.15383333334466,
      "v": 83
    },
    {
      "midi": 53,
      "hit": false,
      "t": 133566.68892187582,
      "d": 99.1586406250135,
      "v": 74
    },
    {
      "midi": 59,
      "hit": false,
      "t": 134140.60711458416,
      "d": 99.1586406250135,
      "v": 79
    },
    {
      "midi": 55,
      "hit": false,
      "t": 134140.60711458416,
      "d": 102.16344791668234,
      "v": 78
    },
    {
      "midi": 62,
      "hit": false,
      "t": 134143.61192187582,
      "d": 99.1586406250135,
      "v": 72
    },
    {
      "midi": 59,
      "hit": false,
      "t": 134717.53011458417,
      "d": 99.1586406250135,
      "v": 76
    },
    {
      "midi": 55,
      "hit": false,
      "t": 134720.53492187583,
      "d": 99.1586406250135,
      "v": 74
    },
    {
      "midi": 62,
      "hit": false,
      "t": 134720.53492187583,
      "d": 99.1586406250135,
      "v": 72
    },
    {
      "midi": 59,
      "hit": false,
      "t": 135294.45311458418,
      "d": 81.12979687500047,
      "v": 79
    },
    {
      "midi": 62,
      "hit": false,
      "t": 135297.45792187584,
      "d": 84.1346041666693,
      "v": 71
    },
    {
      "midi": 55,
      "hit": false,
      "t": 135297.45792187584,
      "d": 87.13941145833815,
      "v": 78
    },
    {
      "midi": 59,
      "hit": false,
      "t": 135871.37611458419,
      "d": 81.12979687500047,
      "v": 83
    },
    {
      "midi": 55,
      "hit": false,
      "t": 135874.38092187585,
      "d": 78.12498958333163,
      "v": 78
    },
    {
      "midi": 62,
      "hit": false,
      "t": 135874.38092187585,
      "d": 96.15383333334466,
      "v": 76
    },
    {
      "midi": 52,
      "hit": false,
      "t": 136448.2991145842,
      "d": 99.1586406250135,
      "v": 78
    },
    {
      "midi": 60,
      "hit": false,
      "t": 136451.30392187586,
      "d": 90.14421875000698,
      "v": 83
    },
    {
      "midi": 57,
      "hit": false,
      "t": 136451.30392187586,
      "d": 96.15383333334466,
      "v": 81
    },
    {
      "midi": 64,
      "hit": false,
      "t": 136451.30392187586,
      "d": 102.16344791668234,
      "v": 70
    },
    {
      "midi": 52,
      "hit": false,
      "t": 137028.22692187587,
      "d": 105.16825520832208,
      "v": 79
    },
    {
      "midi": 57,
      "hit": false,
      "t": 137028.22692187587,
      "d": 105.16825520832208,
      "v": 78
    },
    {
      "midi": 60,
      "hit": false,
      "t": 137028.22692187587,
      "d": 105.16825520832208,
      "v": 86
    },
    {
      "midi": 64,
      "hit": false,
      "t": 137028.22692187587,
      "d": 105.16825520832208,
      "v": 72
    },
    {
      "midi": 50,
      "hit": false,
      "t": 137602.1451145842,
      "d": 105.16825520835118,
      "v": 72
    },
    {
      "midi": 62,
      "hit": false,
      "t": 137605.14992187585,
      "d": 96.15383333334466,
      "v": 72
    },
    {
      "midi": 57,
      "hit": false,
      "t": 137605.14992187585,
      "d": 108.17306250002002,
      "v": 79
    },
    {
      "midi": 65,
      "hit": false,
      "t": 137605.14992187585,
      "d": 108.17306250002002,
      "v": 73
    },
    {
      "midi": 50,
      "hit": false,
      "t": 138179.0681145842,
      "d": 105.16825520832208,
      "v": 76
    },
    {
      "midi": 62,
      "hit": false,
      "t": 138179.0681145842,
      "d": 105.16825520832208,
      "v": 78
    },
    {
      "midi": 57,
      "hit": false,
      "t": 138182.07292187586,
      "d": 105.16825520832208,
      "v": 79
    },
    {
      "midi": 65,
      "hit": false,
      "t": 138182.07292187586,
      "d": 108.17306249999092,
      "v": 76
    },
    {
      "midi": 55,
      "hit": false,
      "t": 138755.99111458418,
      "d": 93.14902604167582,
      "v": 83
    },
    {
      "midi": 59,
      "hit": false,
      "t": 138758.99592187584,
      "d": 60.09614583334769,
      "v": 74
    },
    {
      "midi": 62,
      "hit": false,
      "t": 138758.99592187584,
      "d": 60.09614583334769,
      "v": 78
    },
    {
      "midi": 67,
      "hit": false,
      "t": 138758.99592187584,
      "d": 90.14421875000698,
      "v": 76
    },
    {
      "midi": 62,
      "hit": false,
      "t": 139332.9141145842,
      "d": 105.16825520832208,
      "v": 73
    },
    {
      "midi": 67,
      "hit": false,
      "t": 139335.91892187585,
      "d": 105.16825520832208,
      "v": 72
    },
    {
      "midi": 55,
      "hit": false,
      "t": 139335.91892187585,
      "d": 108.17306249999092,
      "v": 95
    },
    {
      "midi": 59,
      "hit": false,
      "t": 139335.91892187585,
      "d": 108.17306249999092,
      "v": 69
    },
    {
      "midi": 62,
      "hit": false,
      "t": 139909.83711458417,
      "d": 105.16825520832208,
      "v": 73
    },
    {
      "midi": 59,
      "hit": false,
      "t": 139912.84192187584,
      "d": 108.17306249999092,
      "v": 69
    },
    {
      "midi": 55,
      "hit": false,
      "t": 139912.84192187584,
      "d": 111.17786979165976,
      "v": 79
    },
    {
      "midi": 67,
      "hit": false,
      "t": 139912.84192187584,
      "d": 111.17786979165976,
      "v": 71
    },
    {
      "midi": 67,
      "hit": false,
      "t": 140486.76011458418,
      "d": 105.16825520832208,
      "v": 74
    },
    {
      "midi": 59,
      "hit": false,
      "t": 140489.76492187585,
      "d": 108.17306249999092,
      "v": 72
    },
    {
      "midi": 62,
      "hit": false,
      "t": 140489.76492187585,
      "d": 108.17306249999092,
      "v": 74
    },
    {
      "midi": 55,
      "hit": false,
      "t": 140489.76492187585,
      "d": 114.1826770833286,
      "v": 78
    },
    {
      "midi": 60,
      "hit": false,
      "t": 141063.6831145842,
      "d": 105.16825520832208,
      "v": 78
    },
    {
      "midi": 52,
      "hit": false,
      "t": 141066.68792187585,
      "d": 108.17306249999092,
      "v": 74
    },
    {
      "midi": 57,
      "hit": false,
      "t": 141066.68792187585,
      "d": 108.17306249999092,
      "v": 76
    },
    {
      "midi": 64,
      "hit": false,
      "t": 141066.68792187585,
      "d": 114.1826770833286,
      "v": 72
    },
    {
      "midi": 52,
      "hit": false,
      "t": 141640.6061145842,
      "d": 105.16825520832208,
      "v": 74
    },
    {
      "midi": 57,
      "hit": false,
      "t": 141643.61092187586,
      "d": 105.16825520832208,
      "v": 78
    },
    {
      "midi": 60,
      "hit": false,
      "t": 141643.61092187586,
      "d": 105.16825520832208,
      "v": 79
    },
    {
      "midi": 64,
      "hit": false,
      "t": 141643.61092187586,
      "d": 108.17306249999092,
      "v": 71
    },
    {
      "midi": 50,
      "hit": false,
      "t": 142220.53392187585,
      "d": 96.15383333334466,
      "v": 74
    },
    {
      "midi": 65,
      "hit": false,
      "t": 142220.53392187585,
      "d": 102.16344791668234,
      "v": 72
    },
    {
      "midi": 62,
      "hit": false,
      "t": 142220.53392187585,
      "d": 108.17306250002002,
      "v": 74
    },
    {
      "midi": 57,
      "hit": false,
      "t": 142220.53392187585,
      "d": 111.17786979168886,
      "v": 76
    },
    {
      "midi": 62,
      "hit": false,
      "t": 142794.45211458422,
      "d": 105.16825520832208,
      "v": 78
    },
    {
      "midi": 57,
      "hit": false,
      "t": 142797.45692187588,
      "d": 102.16344791665324,
      "v": 78
    },
    {
      "midi": 50,
      "hit": false,
      "t": 142797.45692187588,
      "d": 105.16825520832208,
      "v": 91
    },
    {
      "midi": 65,
      "hit": false,
      "t": 142797.45692187588,
      "d": 108.17306249999092,
      "v": 73
    },
    {
      "midi": 55,
      "hit": false,
      "t": 143371.3751145842,
      "d": 105.16825520835118,
      "v": 86
    },
    {
      "midi": 59,
      "hit": false,
      "t": 143374.37992187586,
      "d": 96.15383333334466,
      "v": 68
    },
    {
      "midi": 62,
      "hit": false,
      "t": 143374.37992187586,
      "d": 102.16344791668234,
      "v": 78
    },
    {
      "midi": 67,
      "hit": false,
      "t": 143374.37992187586,
      "d": 108.17306250002002,
      "v": 74
    },
    {
      "midi": 62,
      "hit": false,
      "t": 143948.2981145842,
      "d": 105.16825520832208,
      "v": 70
    },
    {
      "midi": 59,
      "hit": false,
      "t": 143951.30292187587,
      "d": 102.16344791665324,
      "v": 65
    },
    {
      "midi": 55,
      "hit": false,
      "t": 143951.30292187587,
      "d": 108.17306249999092,
      "v": 86
    },
    {
      "midi": 67,
      "hit": false,
      "t": 143951.30292187587,
      "d": 108.17306249999092,
      "v": 69
    },
    {
      "midi": 62,
      "hit": false,
      "t": 144525.2211145842,
      "d": 111.17786979165976,
      "v": 76
    },
    {
      "midi": 59,
      "hit": false,
      "t": 144528.22592187586,
      "d": 102.16344791665324,
      "v": 73
    },
    {
      "midi": 67,
      "hit": false,
      "t": 144528.22592187586,
      "d": 102.16344791665324,
      "v": 72
    },
    {
      "midi": 55,
      "hit": false,
      "t": 144528.22592187586,
      "d": 108.17306249999092,
      "v": 88
    },
    {
      "midi": 55,
      "hit": false,
      "t": 145102.14411458417,
      "d": 111.17786979165976,
      "v": 81
    },
    {
      "midi": 62,
      "hit": false,
      "t": 145102.14411458417,
      "d": 114.1826770833286,
      "v": 76
    },
    {
      "midi": 59,
      "hit": false,
      "t": 145105.14892187584,
      "d": 102.16344791665324,
      "v": 69
    },
    {
      "midi": 67,
      "hit": false,
      "t": 145105.14892187584,
      "d": 111.17786979165976,
      "v": 73
    },
    {
      "midi": 60,
      "hit": false,
      "t": 145679.06711458418,
      "d": 105.16825520835118,
      "v": 73
    },
    {
      "midi": 52,
      "hit": false,
      "t": 145679.06711458418,
      "d": 111.17786979168886,
      "v": 73
    },
    {
      "midi": 57,
      "hit": false,
      "t": 145682.07192187585,
      "d": 96.15383333334466,
      "v": 74
    },
    {
      "midi": 64,
      "hit": false,
      "t": 145682.07192187585,
      "d": 108.17306250002002,
      "v": 68
    },
    {
      "midi": 57,
      "hit": false,
      "t": 146258.99492187586,
      "d": 102.16344791665324,
      "v": 78
    },
    {
      "midi": 52,
      "hit": false,
      "t": 146258.99492187586,
      "d": 105.16825520832208,
      "v": 74
    },
    {
      "midi": 60,
      "hit": false,
      "t": 146258.99492187586,
      "d": 105.16825520832208,
      "v": 81
    },
    {
      "midi": 64,
      "hit": false,
      "t": 146258.99492187586,
      "d": 108.17306249999092,
      "v": 70
    },
    {
      "midi": 62,
      "hit": false,
      "t": 146832.91311458417,
      "d": 108.17306249999092,
      "v": 70
    },
    {
      "midi": 50,
      "hit": false,
      "t": 146835.91792187584,
      "d": 105.16825520832208,
      "v": 70
    },
    {
      "midi": 57,
      "hit": false,
      "t": 146835.91792187584,
      "d": 105.16825520832208,
      "v": 74
    },
    {
      "midi": 65,
      "hit": false,
      "t": 146835.91792187584,
      "d": 105.16825520832208,
      "v": 69
    },
    {
      "midi": 57,
      "hit": false,
      "t": 147412.84092187582,
      "d": 102.16344791665324,
      "v": 76
    },
    {
      "midi": 62,
      "hit": false,
      "t": 147412.84092187582,
      "d": 102.16344791665324,
      "v": 72
    },
    {
      "midi": 50,
      "hit": false,
      "t": 147412.84092187582,
      "d": 108.17306249999092,
      "v": 76
    },
    {
      "midi": 65,
      "hit": false,
      "t": 147412.84092187582,
      "d": 111.17786979165976,
      "v": 71
    },
    {
      "midi": 67,
      "hit": false,
      "t": 147986.75911458416,
      "d": 105.16825520832208,
      "v": 70
    },
    {
      "midi": 59,
      "hit": false,
      "t": 147989.76392187583,
      "d": 105.16825520832208,
      "v": 72
    },
    {
      "midi": 62,
      "hit": false,
      "t": 147989.76392187583,
      "d": 105.16825520832208,
      "v": 74
    },
    {
      "midi": 55,
      "hit": false,
      "t": 147989.76392187583,
      "d": 108.17306249999092,
      "v": 86
    },
    {
      "midi": 55,
      "hit": false,
      "t": 148563.68211458414,
      "d": 114.1826770833286,
      "v": 83
    },
    {
      "midi": 59,
      "hit": false,
      "t": 148566.6869218758,
      "d": 111.17786979165976,
      "v": 69
    },
    {
      "midi": 62,
      "hit": false,
      "t": 148566.6869218758,
      "d": 111.17786979165976,
      "v": 74
    },
    {
      "midi": 67,
      "hit": false,
      "t": 148566.6869218758,
      "d": 111.17786979165976,
      "v": 73
    },
    {
      "midi": 62,
      "hit": false,
      "t": 149143.6099218758,
      "d": 102.16344791665324,
      "v": 79
    },
    {
      "midi": 67,
      "hit": false,
      "t": 149143.6099218758,
      "d": 102.16344791665324,
      "v": 76
    },
    {
      "midi": 59,
      "hit": false,
      "t": 149143.6099218758,
      "d": 105.16825520832208,
      "v": 73
    },
    {
      "midi": 55,
      "hit": false,
      "t": 149143.6099218758,
      "d": 108.17306249999092,
      "v": 79
    },
    {
      "midi": 55,
      "hit": false,
      "t": 149717.5281145841,
      "d": 111.17786979168886,
      "v": 88
    },
    {
      "midi": 59,
      "hit": false,
      "t": 149720.53292187577,
      "d": 96.15383333334466,
      "v": 74
    },
    {
      "midi": 67,
      "hit": false,
      "t": 149720.53292187577,
      "d": 102.16344791668234,
      "v": 76
    },
    {
      "midi": 62,
      "hit": false,
      "t": 149720.53292187577,
      "d": 108.17306250002002,
      "v": 79
    },
    {
      "midi": 52,
      "hit": false,
      "t": 150294.4511145841,
      "d": 111.17786979165976,
      "v": 76
    },
    {
      "midi": 60,
      "hit": false,
      "t": 150297.45592187578,
      "d": 102.16344791665324,
      "v": 81
    },
    {
      "midi": 57,
      "hit": false,
      "t": 150297.45592187578,
      "d": 105.16825520832208,
      "v": 74
    },
    {
      "midi": 64,
      "hit": false,
      "t": 150297.45592187578,
      "d": 108.17306249999092,
      "v": 68
    },
    {
      "midi": 60,
      "hit": false,
      "t": 150871.3741145841,
      "d": 105.16825520832208,
      "v": 79
    },
    {
      "midi": 57,
      "hit": false,
      "t": 150874.37892187576,
      "d": 102.16344791665324,
      "v": 79
    },
    {
      "midi": 52,
      "hit": false,
      "t": 150874.37892187576,
      "d": 108.17306249999092,
      "v": 78
    },
    {
      "midi": 64,
      "hit": false,
      "t": 150874.37892187576,
      "d": 108.17306249999092,
      "v": 69
    },
    {
      "midi": 50,
      "hit": false,
      "t": 151448.29711458407,
      "d": 117.18748437499744,
      "v": 71
    },
    {
      "midi": 57,
      "hit": false,
      "t": 151451.30192187574,
      "d": 102.16344791665324,
      "v": 78
    },
    {
      "midi": 62,
      "hit": false,
      "t": 151451.30192187574,
      "d": 102.16344791665324,
      "v": 79
    },
    {
      "midi": 65,
      "hit": false,
      "t": 151451.30192187574,
      "d": 108.17306249999092,
      "v": 74
    },
    {
      "midi": 50,
      "hit": false,
      "t": 152028.22492187575,
      "d": 102.16344791665324,
      "v": 88
    },
    {
      "midi": 57,
      "hit": false,
      "t": 152028.22492187575,
      "d": 105.16825520832208,
      "v": 78
    },
    {
      "midi": 62,
      "hit": false,
      "t": 152028.22492187575,
      "d": 105.16825520832208,
      "v": 78
    },
    {
      "midi": 65,
      "hit": false,
      "t": 152028.22492187575,
      "d": 108.17306249999092,
      "v": 72
    },
    {
      "midi": 59,
      "hit": false,
      "t": 152602.14311458406,
      "d": 105.16825520832208,
      "v": 71
    },
    {
      "midi": 62,
      "hit": false,
      "t": 152605.14792187573,
      "d": 105.16825520832208,
      "v": 76
    },
    {
      "midi": 67,
      "hit": false,
      "t": 152605.14792187573,
      "d": 105.16825520832208,
      "v": 74
    },
    {
      "midi": 55,
      "hit": false,
      "t": 152605.14792187573,
      "d": 108.17306249999092,
      "v": 78
    },
    {
      "midi": 62,
      "hit": false,
      "t": 153182.0709218757,
      "d": 96.15383333334466,
      "v": 74
    },
    {
      "midi": 59,
      "hit": false,
      "t": 153182.0709218757,
      "d": 102.16344791668234,
      "v": 70
    },
    {
      "midi": 67,
      "hit": false,
      "t": 153182.0709218757,
      "d": 102.16344791668234,
      "v": 73
    },
    {
      "midi": 55,
      "hit": false,
      "t": 153182.0709218757,
      "d": 108.17306250002002,
      "v": 83
    },
    {
      "midi": 55,
      "hit": false,
      "t": 153755.98911458405,
      "d": 111.17786979165976,
      "v": 91
    },
    {
      "midi": 59,
      "hit": false,
      "t": 153758.99392187572,
      "d": 102.16344791665324,
      "v": 71
    },
    {
      "midi": 62,
      "hit": false,
      "t": 153758.99392187572,
      "d": 102.16344791665324,
      "v": 78
    },
    {
      "midi": 67,
      "hit": false,
      "t": 153758.99392187572,
      "d": 108.17306249999092,
      "v": 73
    },
    {
      "midi": 59,
      "hit": false,
      "t": 154335.9169218757,
      "d": 105.16825520832208,
      "v": 71
    },
    {
      "midi": 62,
      "hit": false,
      "t": 154335.9169218757,
      "d": 105.16825520832208,
      "v": 76
    },
    {
      "midi": 67,
      "hit": false,
      "t": 154335.9169218757,
      "d": 105.16825520832208,
      "v": 72
    },
    {
      "midi": 55,
      "hit": false,
      "t": 154335.9169218757,
      "d": 108.17306249999092,
      "v": 83
    },
    {
      "midi": 60,
      "hit": false,
      "t": 154909.835114584,
      "d": 99.1586406250135,
      "v": 81
    },
    {
      "midi": 52,
      "hit": false,
      "t": 154912.83992187568,
      "d": 102.16344791668234,
      "v": 72
    },
    {
      "midi": 57,
      "hit": false,
      "t": 154912.83992187568,
      "d": 105.16825520835118,
      "v": 76
    },
    {
      "midi": 64,
      "hit": false,
      "t": 154912.83992187568,
      "d": 105.16825520835118,
      "v": 69
    },
    {
      "midi": 52,
      "hit": false,
      "t": 155486.75811458402,
      "d": 111.17786979165976,
      "v": 69
    },
    {
      "midi": 57,
      "hit": false,
      "t": 155489.7629218757,
      "d": 102.16344791665324,
      "v": 73
    },
    {
      "midi": 60,
      "hit": false,
      "t": 155489.7629218757,
      "d": 105.16825520832208,
      "v": 71
    },
    {
      "midi": 64,
      "hit": false,
      "t": 155489.7629218757,
      "d": 105.16825520832208,
      "v": 66
    },
    {
      "midi": 57,
      "hit": false,
      "t": 156063.681114584,
      "d": 105.16825520835118,
      "v": 72
    },
    {
      "midi": 65,
      "hit": false,
      "t": 156063.681114584,
      "d": 105.16825520835118,
      "v": 69
    },
    {
      "midi": 62,
      "hit": false,
      "t": 156063.681114584,
      "d": 111.17786979168886,
      "v": 70
    },
    {
      "midi": 50,
      "hit": false,
      "t": 156066.68592187567,
      "d": 96.15383333334466,
      "v": 69
    },
    {
      "midi": 62,
      "hit": false,
      "t": 156640.604114584,
      "d": 93.14902604167582,
      "v": 81
    },
    {
      "midi": 65,
      "hit": false,
      "t": 156640.604114584,
      "d": 99.1586406250135,
      "v": 74
    },
    {
      "midi": 50,
      "hit": false,
      "t": 156643.60892187568,
      "d": 54.08653125001001,
      "v": 88
    },
    {
      "midi": 57,
      "hit": false,
      "t": 156643.60892187568,
      "d": 90.14421875000698,
      "v": 79
    },
    {
      "midi": 62,
      "hit": false,
      "t": 157217.52711458402,
      "d": 93.14902604167582,
      "v": 81
    },
    {
      "midi": 55,
      "hit": false,
      "t": 157217.52711458402,
      "d": 105.16825520835118,
      "v": 79
    },
    {
      "midi": 59,
      "hit": false,
      "t": 157220.5319218757,
      "d": 90.14421875000698,
      "v": 73
    },
    {
      "midi": 67,
      "hit": false,
      "t": 157220.5319218757,
      "d": 96.15383333334466,
      "v": 78
    },
    {
      "midi": 62,
      "hit": false,
      "t": 157794.45011458403,
      "d": 99.1586406250135,
      "v": 72
    },
    {
      "midi": 67,
      "hit": false,
      "t": 157794.45011458403,
      "d": 105.16825520835118,
      "v": 69
    },
    {
      "midi": 59,
      "hit": false,
      "t": 157797.4549218757,
      "d": 96.15383333334466,
      "v": 71
    },
    {
      "midi": 55,
      "hit": false,
      "t": 157797.4549218757,
      "d": 99.1586406250135,
      "v": 71
    },
    {
      "midi": 59,
      "hit": false,
      "t": 158371.37311458404,
      "d": 105.16825520832208,
      "v": 71
    },
    {
      "midi": 55,
      "hit": false,
      "t": 158371.37311458404,
      "d": 111.17786979165976,
      "v": 83
    },
    {
      "midi": 62,
      "hit": false,
      "t": 158374.3779218757,
      "d": 111.17786979165976,
      "v": 74
    },
    {
      "midi": 67,
      "hit": false,
      "t": 158374.3779218757,
      "d": 111.17786979165976,
      "v": 71
    },
    {
      "midi": 55,
      "hit": false,
      "t": 158951.3009218757,
      "d": 60.09614583334769,
      "v": 76
    },
    {
      "midi": 59,
      "hit": false,
      "t": 158951.3009218757,
      "d": 99.1586406250135,
      "v": 72
    },
    {
      "midi": 62,
      "hit": false,
      "t": 158951.3009218757,
      "d": 99.1586406250135,
      "v": 81
    },
    {
      "midi": 67,
      "hit": false,
      "t": 158951.3009218757,
      "d": 99.1586406250135,
      "v": 74
    },
    {
      "midi": 60,
      "hit": false,
      "t": 159525.21911458403,
      "d": 99.1586406250135,
      "v": 81
    },
    {
      "midi": 52,
      "hit": false,
      "t": 159525.21911458403,
      "d": 105.16825520835118,
      "v": 79
    },
    {
      "midi": 57,
      "hit": false,
      "t": 159528.2239218757,
      "d": 99.1586406250135,
      "v": 76
    },
    {
      "midi": 64,
      "hit": false,
      "t": 159528.2239218757,
      "d": 99.1586406250135,
      "v": 69
    },
    {
      "midi": 57,
      "hit": false,
      "t": 160102.14211458404,
      "d": 105.16825520832208,
      "v": 83
    },
    {
      "midi": 64,
      "hit": false,
      "t": 160105.1469218757,
      "d": 102.16344791665324,
      "v": 74
    },
    {
      "midi": 60,
      "hit": false,
      "t": 160105.1469218757,
      "d": 105.16825520832208,
      "v": 83
    },
    {
      "midi": 52,
      "hit": false,
      "t": 160105.1469218757,
      "d": 108.17306249999092,
      "v": 83
    },
    {
      "midi": 50,
      "hit": false,
      "t": 160679.06511458402,
      "d": 99.1586406250135,
      "v": 76
    },
    {
      "midi": 62,
      "hit": false,
      "t": 160679.06511458402,
      "d": 102.16344791668234,
      "v": 78
    },
    {
      "midi": 57,
      "hit": false,
      "t": 160682.0699218757,
      "d": 99.1586406250135,
      "v": 79
    },
    {
      "midi": 65,
      "hit": false,
      "t": 160682.0699218757,
      "d": 102.16344791668234,
      "v": 73
    },
    {
      "midi": 62,
      "hit": false,
      "t": 161255.98811458403,
      "d": 108.17306249999092,
      "v": 76
    },
    {
      "midi": 65,
      "hit": false,
      "t": 161255.98811458403,
      "d": 111.17786979165976,
      "v": 72
    },
    {
      "midi": 50,
      "hit": false,
      "t": 161258.9929218757,
      "d": 105.16825520832208,
      "v": 79
    },
    {
      "midi": 57,
      "hit": false,
      "t": 161258.9929218757,
      "d": 105.16825520832208,
      "v": 76
    },
    {
      "midi": 59,
      "hit": false,
      "t": 161832.911114584,
      "d": 102.16344791668234,
      "v": 71
    },
    {
      "midi": 62,
      "hit": false,
      "t": 161832.911114584,
      "d": 102.16344791668234,
      "v": 76
    },
    {
      "midi": 55,
      "hit": false,
      "t": 161835.91592187568,
      "d": 99.1586406250135,
      "v": 79
    },
    {
      "midi": 67,
      "hit": false,
      "t": 161835.91592187568,
      "d": 99.1586406250135,
      "v": 72
    },
    {
      "midi": 62,
      "hit": false,
      "t": 162409.83411458402,
      "d": 105.16825520835118,
      "v": 74
    },
    {
      "midi": 59,
      "hit": false,
      "t": 162409.83411458402,
      "d": 108.17306250002002,
      "v": 70
    },
    {
      "midi": 55,
      "hit": false,
      "t": 162412.8389218757,
      "d": 96.15383333334466,
      "v": 79
    },
    {
      "midi": 67,
      "hit": false,
      "t": 162412.8389218757,
      "d": 105.16825520835118,
      "v": 71
    },
    {
      "midi": 59,
      "hit": false,
      "t": 162986.75711458403,
      "d": 105.16825520832208,
      "v": 70
    },
    {
      "midi": 62,
      "hit": false,
      "t": 162986.75711458403,
      "d": 105.16825520832208,
      "v": 73
    },
    {
      "midi": 55,
      "hit": false,
      "t": 162989.7619218757,
      "d": 108.17306249999092,
      "v": 78
    },
    {
      "midi": 67,
      "hit": false,
      "t": 162989.7619218757,
      "d": 108.17306249999092,
      "v": 70
    },
    {
      "midi": 67,
      "hit": false,
      "t": 163566.68492187568,
      "d": 102.16344791665324,
      "v": 73
    },
    {
      "midi": 59,
      "hit": false,
      "t": 163566.68492187568,
      "d": 105.16825520832208,
      "v": 72
    },
    {
      "midi": 62,
      "hit": false,
      "t": 163566.68492187568,
      "d": 105.16825520832208,
      "v": 76
    },
    {
      "midi": 55,
      "hit": false,
      "t": 163566.68492187568,
      "d": 108.17306249999092,
      "v": 79
    },
    {
      "midi": 52,
      "hit": false,
      "t": 164140.603114584,
      "d": 105.16825520835118,
      "v": 79
    },
    {
      "midi": 57,
      "hit": false,
      "t": 164143.60792187566,
      "d": 96.15383333334466,
      "v": 71
    },
    {
      "midi": 60,
      "hit": false,
      "t": 164143.60792187566,
      "d": 105.16825520835118,
      "v": 74
    },
    {
      "midi": 64,
      "hit": false,
      "t": 164143.60792187566,
      "d": 105.16825520835118,
      "v": 67
    },
    {
      "midi": 60,
      "hit": false,
      "t": 164717.526114584,
      "d": 99.1586406250135,
      "v": 79
    },
    {
      "midi": 52,
      "hit": false,
      "t": 164717.526114584,
      "d": 105.16825520835118,
      "v": 76
    },
    {
      "midi": 64,
      "hit": false,
      "t": 164720.53092187567,
      "d": 102.16344791668234,
      "v": 69
    },
    {
      "midi": 57,
      "hit": false,
      "t": 164720.53092187567,
      "d": 105.16825520835118,
      "v": 76
    },
    {
      "midi": 50,
      "hit": false,
      "t": 165294.44911458401,
      "d": 108.17306249999092,
      "v": 83
    },
    {
      "midi": 65,
      "hit": false,
      "t": 165294.44911458401,
      "d": 108.17306249999092,
      "v": 72
    },
    {
      "midi": 57,
      "hit": false,
      "t": 165297.45392187568,
      "d": 105.16825520832208,
      "v": 76
    },
    {
      "midi": 62,
      "hit": false,
      "t": 165297.45392187568,
      "d": 105.16825520832208,
      "v": 74
    },
    {
      "midi": 50,
      "hit": false,
      "t": 165871.372114584,
      "d": 105.16825520832208,
      "v": 83
    },
    {
      "midi": 57,
      "hit": false,
      "t": 165874.37692187566,
      "d": 105.16825520832208,
      "v": 74
    },
    {
      "midi": 62,
      "hit": false,
      "t": 165874.37692187566,
      "d": 105.16825520832208,
      "v": 76
    },
    {
      "midi": 65,
      "hit": false,
      "t": 165874.37692187566,
      "d": 108.17306249999092,
      "v": 73
    },
    {
      "midi": 55,
      "hit": false,
      "t": 166448.29511458398,
      "d": 111.17786979165976,
      "v": 81
    },
    {
      "midi": 67,
      "hit": false,
      "t": 166448.29511458398,
      "d": 111.17786979165976,
      "v": 71
    },
    {
      "midi": 59,
      "hit": false,
      "t": 166451.29992187564,
      "d": 102.16344791665324,
      "v": 73
    },
    {
      "midi": 62,
      "hit": false,
      "t": 166451.29992187564,
      "d": 102.16344791665324,
      "v": 73
    },
    {
      "midi": 62,
      "hit": false,
      "t": 167025.21811458396,
      "d": 99.1586406250135,
      "v": 71
    },
    {
      "midi": 55,
      "hit": false,
      "t": 167025.21811458396,
      "d": 102.16344791668234,
      "v": 83
    },
    {
      "midi": 67,
      "hit": false,
      "t": 167025.21811458396,
      "d": 105.16825520835118,
      "v": 70
    },
    {
      "midi": 59,
      "hit": false,
      "t": 167028.22292187563,
      "d": 99.1586406250135,
      "v": 66
    },
    {
      "midi": 67,
      "hit": false,
      "t": 167602.14111458397,
      "d": 99.1586406250135,
      "v": 69
    },
    {
      "midi": 62,
      "hit": false,
      "t": 167602.14111458397,
      "d": 102.16344791668234,
      "v": 73
    },
    {
      "midi": 55,
      "hit": false,
      "t": 167605.14592187564,
      "d": 60.09614583334769,
      "v": 91
    },
    {
      "midi": 59,
      "hit": false,
      "t": 167605.14592187564,
      "d": 99.1586406250135,
      "v": 70
    },
    {
      "midi": 55,
      "hit": false,
      "t": 168179.06411458398,
      "d": 108.17306249999092,
      "v": 86
    },
    {
      "midi": 59,
      "hit": false,
      "t": 168182.06892187565,
      "d": 105.16825520832208,
      "v": 71
    },
    {
      "midi": 67,
      "hit": false,
      "t": 168182.06892187565,
      "d": 105.16825520832208,
      "v": 71
    },
    {
      "midi": 62,
      "hit": false,
      "t": 168182.06892187565,
      "d": 108.17306249999092,
      "v": 74
    },
    {
      "midi": 64,
      "hit": false,
      "t": 168755.98711458396,
      "d": 105.16825520835118,
      "v": 69
    },
    {
      "midi": 52,
      "hit": false,
      "t": 168755.98711458396,
      "d": 111.17786979168886,
      "v": 79
    },
    {
      "midi": 57,
      "hit": false,
      "t": 168758.99192187563,
      "d": 96.15383333334466,
      "v": 76
    },
    {
      "midi": 60,
      "hit": false,
      "t": 168758.99192187563,
      "d": 102.16344791668234,
      "v": 79
    },
    {
      "midi": 57,
      "hit": false,
      "t": 169332.91011458397,
      "d": 99.1586406250135,
      "v": 78
    },
    {
      "midi": 60,
      "hit": false,
      "t": 169335.91492187564,
      "d": 102.16344791668234,
      "v": 81
    },
    {
      "midi": 52,
      "hit": false,
      "t": 169335.91492187564,
      "d": 108.17306250002002,
      "v": 83
    },
    {
      "midi": 64,
      "hit": false,
      "t": 169335.91492187564,
      "d": 108.17306250002002,
      "v": 73
    },
    {
      "midi": 62,
      "hit": false,
      "t": 169909.83311458398,
      "d": 105.16825520832208,
      "v": 76
    },
    {
      "midi": 50,
      "hit": false,
      "t": 169909.83311458398,
      "d": 111.17786979165976,
      "v": 88
    },
    {
      "midi": 57,
      "hit": false,
      "t": 169912.83792187565,
      "d": 105.16825520832208,
      "v": 73
    },
    {
      "midi": 65,
      "hit": false,
      "t": 169912.83792187565,
      "d": 105.16825520832208,
      "v": 69
    },
    {
      "midi": 62,
      "hit": false,
      "t": 170486.75611458396,
      "d": 105.16825520832208,
      "v": 74
    },
    {
      "midi": 50,
      "hit": false,
      "t": 170489.76092187563,
      "d": 108.17306249999092,
      "v": 79
    },
    {
      "midi": 57,
      "hit": false,
      "t": 170489.76092187563,
      "d": 111.17786979165976,
      "v": 76
    },
    {
      "midi": 65,
      "hit": false,
      "t": 170489.76092187563,
      "d": 111.17786979165976,
      "v": 74
    },
    {
      "midi": 55,
      "hit": false,
      "t": 171063.67911458397,
      "d": 105.16825520832208,
      "v": 88
    },
    {
      "midi": 59,
      "hit": false,
      "t": 171066.68392187564,
      "d": 105.16825520832208,
      "v": 71
    },
    {
      "midi": 62,
      "hit": false,
      "t": 171066.68392187564,
      "d": 105.16825520832208,
      "v": 74
    },
    {
      "midi": 67,
      "hit": false,
      "t": 171066.68392187564,
      "d": 105.16825520832208,
      "v": 73
    },
    {
      "midi": 62,
      "hit": false,
      "t": 171640.60211458395,
      "d": 99.1586406250135,
      "v": 73
    },
    {
      "midi": 59,
      "hit": false,
      "t": 171640.60211458395,
      "d": 108.17306250002002,
      "v": 72
    },
    {
      "midi": 55,
      "hit": false,
      "t": 171643.60692187562,
      "d": 105.16825520835118,
      "v": 83
    },
    {
      "midi": 67,
      "hit": false,
      "t": 171643.60692187562,
      "d": 105.16825520835118,
      "v": 72
    },
    {
      "midi": 59,
      "hit": false,
      "t": 172217.52511458396,
      "d": 87.13941145833815,
      "v": 70
    },
    {
      "midi": 62,
      "hit": false,
      "t": 172217.52511458396,
      "d": 87.13941145833815,
      "v": 76
    },
    {
      "midi": 67,
      "hit": false,
      "t": 172220.52992187563,
      "d": 54.08653125001001,
      "v": 71
    },
    {
      "midi": 55,
      "hit": false,
      "t": 172220.52992187563,
      "d": 90.14421875000698,
      "v": 79
    },
    {
      "midi": 62,
      "hit": false,
      "t": 172797.45292187564,
      "d": 102.16344791665324,
      "v": 73
    },
    {
      "midi": 67,
      "hit": false,
      "t": 172797.45292187564,
      "d": 102.16344791665324,
      "v": 72
    },
    {
      "midi": 55,
      "hit": false,
      "t": 172797.45292187564,
      "d": 108.17306249999092,
      "v": 81
    },
    {
      "midi": 59,
      "hit": false,
      "t": 172797.45292187564,
      "d": 108.17306249999092,
      "v": 69
    },
    {
      "midi": 52,
      "hit": false,
      "t": 173371.37111458395,
      "d": 111.17786979168886,
      "v": 79
    },
    {
      "midi": 57,
      "hit": false,
      "t": 173374.37592187562,
      "d": 96.15383333334466,
      "v": 78
    },
    {
      "midi": 64,
      "hit": false,
      "t": 173374.37592187562,
      "d": 96.15383333334466,
      "v": 69
    },
    {
      "midi": 60,
      "hit": false,
      "t": 173374.37592187562,
      "d": 102.16344791668234,
      "v": 76
    },
    {
      "midi": 64,
      "hit": false,
      "t": 173948.29411458396,
      "d": 111.17786979165976,
      "v": 71
    },
    {
      "midi": 57,
      "hit": false,
      "t": 173951.29892187563,
      "d": 102.16344791665324,
      "v": 78
    },
    {
      "midi": 60,
      "hit": false,
      "t": 173951.29892187563,
      "d": 102.16344791665324,
      "v": 79
    },
    {
      "midi": 52,
      "hit": false,
      "t": 173951.29892187563,
      "d": 108.17306249999092,
      "v": 74
    },
    {
      "midi": 57,
      "hit": false,
      "t": 174528.2219218756,
      "d": 96.15383333334466,
      "v": 79
    },
    {
      "midi": 62,
      "hit": false,
      "t": 174528.2219218756,
      "d": 96.15383333334466,
      "v": 81
    },
    {
      "midi": 50,
      "hit": false,
      "t": 174528.2219218756,
      "d": 102.16344791668234,
      "v": 78
    },
    {
      "midi": 65,
      "hit": false,
      "t": 174528.2219218756,
      "d": 102.16344791668234,
      "v": 72
    },
    {
      "midi": 50,
      "hit": false,
      "t": 175105.14492187562,
      "d": 111.17786979165976,
      "v": 78
    },
    {
      "midi": 57,
      "hit": false,
      "t": 175105.14492187562,
      "d": 111.17786979165976,
      "v": 76
    },
    {
      "midi": 62,
      "hit": false,
      "t": 175105.14492187562,
      "d": 111.17786979165976,
      "v": 76
    },
    {
      "midi": 65,
      "hit": false,
      "t": 175105.14492187562,
      "d": 111.17786979165976,
      "v": 72
    },
    {
      "midi": 62,
      "hit": false,
      "t": 175679.06311458396,
      "d": 105.16825520832208,
      "v": 79
    },
    {
      "midi": 55,
      "hit": false,
      "t": 175682.06792187563,
      "d": 105.16825520832208,
      "v": 81
    },
    {
      "midi": 59,
      "hit": false,
      "t": 175682.06792187563,
      "d": 105.16825520832208,
      "v": 72
    },
    {
      "midi": 67,
      "hit": false,
      "t": 175682.06792187563,
      "d": 108.17306249999092,
      "v": 73
    },
    {
      "midi": 62,
      "hit": false,
      "t": 176255.98611458394,
      "d": 108.17306249999092,
      "v": 74
    },
    {
      "midi": 55,
      "hit": false,
      "t": 176258.9909218756,
      "d": 105.16825520832208,
      "v": 86
    },
    {
      "midi": 59,
      "hit": false,
      "t": 176258.9909218756,
      "d": 105.16825520832208,
      "v": 69
    },
    {
      "midi": 67,
      "hit": false,
      "t": 176258.9909218756,
      "d": 105.16825520832208,
      "v": 71
    },
    {
      "midi": 55,
      "hit": false,
      "t": 176832.90911458392,
      "d": 105.16825520835118,
      "v": 81
    },
    {
      "midi": 62,
      "hit": false,
      "t": 176835.9139218756,
      "d": 96.15383333334466,
      "v": 76
    },
    {
      "midi": 59,
      "hit": false,
      "t": 176835.9139218756,
      "d": 105.16825520835118,
      "v": 70
    },
    {
      "midi": 67,
      "hit": false,
      "t": 176835.9139218756,
      "d": 105.16825520835118,
      "v": 71
    },
    {
      "midi": 67,
      "hit": false,
      "t": 177409.83211458393,
      "d": 108.17306249999092,
      "v": 73
    },
    {
      "midi": 55,
      "hit": false,
      "t": 177412.8369218756,
      "d": 105.16825520832208,
      "v": 88
    },
    {
      "midi": 62,
      "hit": false,
      "t": 177412.8369218756,
      "d": 105.16825520832208,
      "v": 76
    },
    {
      "midi": 59,
      "hit": false,
      "t": 177412.8369218756,
      "d": 108.17306249999092,
      "v": 71
    },
    {
      "midi": 60,
      "hit": false,
      "t": 177986.7551145839,
      "d": 105.16825520832208,
      "v": 78
    },
    {
      "midi": 64,
      "hit": false,
      "t": 177986.7551145839,
      "d": 108.17306249999092,
      "v": 71
    },
    {
      "midi": 57,
      "hit": false,
      "t": 177989.75992187558,
      "d": 105.16825520832208,
      "v": 79
    },
    {
      "midi": 52,
      "hit": false,
      "t": 177989.75992187558,
      "d": 108.17306249999092,
      "v": 73
    },
    {
      "midi": 57,
      "hit": false,
      "t": 178566.68292187556,
      "d": 102.16344791665324,
      "v": 76
    },
    {
      "midi": 60,
      "hit": false,
      "t": 178566.68292187556,
      "d": 102.16344791665324,
      "v": 81
    },
    {
      "midi": 64,
      "hit": false,
      "t": 178566.68292187556,
      "d": 108.17306249999092,
      "v": 70
    },
    {
      "midi": 52,
      "hit": false,
      "t": 178566.68292187556,
      "d": 114.1826770833286,
      "v": 69
    },
    {
      "midi": 50,
      "hit": false,
      "t": 179140.6011145839,
      "d": 111.17786979165976,
      "v": 74
    },
    {
      "midi": 57,
      "hit": false,
      "t": 179143.60592187557,
      "d": 105.16825520832208,
      "v": 78
    },
    {
      "midi": 62,
      "hit": false,
      "t": 179143.60592187557,
      "d": 105.16825520832208,
      "v": 78
    },
    {
      "midi": 65,
      "hit": false,
      "t": 179143.60592187557,
      "d": 105.16825520832208,
      "v": 73
    },
    {
      "midi": 50,
      "hit": false,
      "t": 179717.52411458388,
      "d": 114.1826770833286,
      "v": 91
    },
    {
      "midi": 57,
      "hit": false,
      "t": 179720.52892187555,
      "d": 111.17786979165976,
      "v": 81
    },
    {
      "midi": 62,
      "hit": false,
      "t": 179720.52892187555,
      "d": 111.17786979165976,
      "v": 78
    },
    {
      "midi": 65,
      "hit": false,
      "t": 179720.52892187555,
      "d": 114.1826770833286,
      "v": 76
    },
    {
      "midi": 62,
      "hit": false,
      "t": 180294.4471145839,
      "d": 111.17786979165976,
      "v": 78
    },
    {
      "midi": 59,
      "hit": false,
      "t": 180297.45192187556,
      "d": 102.16344791665324,
      "v": 71
    },
    {
      "midi": 67,
      "hit": false,
      "t": 180297.45192187556,
      "d": 102.16344791665324,
      "v": 74
    },
    {
      "midi": 55,
      "hit": false,
      "t": 180297.45192187556,
      "d": 108.17306249999092,
      "v": 83
    },
    {
      "midi": 59,
      "hit": false,
      "t": 180871.37011458387,
      "d": 111.17786979165976,
      "v": 73
    },
    {
      "midi": 62,
      "hit": false,
      "t": 180874.37492187554,
      "d": 102.16344791665324,
      "v": 73
    },
    {
      "midi": 55,
      "hit": false,
      "t": 180874.37492187554,
      "d": 108.17306249999092,
      "v": 83
    },
    {
      "midi": 67,
      "hit": false,
      "t": 180874.37492187554,
      "d": 114.1826770833286,
      "v": 71
    },
    {
      "midi": 67,
      "hit": false,
      "t": 181448.29311458388,
      "d": 105.16825520835118,
      "v": 71
    },
    {
      "midi": 62,
      "hit": false,
      "t": 181451.29792187555,
      "d": 96.15383333334466,
      "v": 73
    },
    {
      "midi": 59,
      "hit": false,
      "t": 181451.29792187555,
      "d": 102.16344791668234,
      "v": 71
    },
    {
      "midi": 55,
      "hit": false,
      "t": 181451.29792187555,
      "d": 108.17306250002002,
      "v": 79
    },
    {
      "midi": 59,
      "hit": false,
      "t": 182028.22092187556,
      "d": 102.16344791668234,
      "v": 74
    },
    {
      "midi": 62,
      "hit": false,
      "t": 182028.22092187556,
      "d": 102.16344791668234,
      "v": 78
    },
    {
      "midi": 67,
      "hit": false,
      "t": 182028.22092187556,
      "d": 108.17306250002002,
      "v": 73
    },
    {
      "midi": 55,
      "hit": false,
      "t": 182031.22572916723,
      "d": 105.16825520835118,
      "v": 88
    },
    {
      "midi": 57,
      "hit": false,
      "t": 182602.1391145839,
      "d": 105.16825520832208,
      "v": 78
    },
    {
      "midi": 60,
      "hit": false,
      "t": 182605.14392187557,
      "d": 102.16344791665324,
      "v": 74
    },
    {
      "midi": 64,
      "hit": false,
      "t": 182605.14392187557,
      "d": 108.17306249999092,
      "v": 69
    },
    {
      "midi": 52,
      "hit": false,
      "t": 182605.14392187557,
      "d": 114.1826770833286,
      "v": 83
    },
    {
      "midi": 64,
      "hit": false,
      "t": 183179.0621145839,
      "d": 111.17786979165976,
      "v": 71
    },
    {
      "midi": 60,
      "hit": false,
      "t": 183182.06692187558,
      "d": 102.16344791665324,
      "v": 83
    },
    {
      "midi": 57,
      "hit": false,
      "t": 183182.06692187558,
      "d": 108.17306249999092,
      "v": 78
    },
    {
      "midi": 52,
      "hit": false,
      "t": 183182.06692187558,
      "d": 114.1826770833286,
      "v": 79
    },
    {
      "midi": 50,
      "hit": false,
      "t": 183755.98511458392,
      "d": 111.17786979165976,
      "v": 81
    },
    {
      "midi": 62,
      "hit": false,
      "t": 183758.9899218756,
      "d": 102.16344791665324,
      "v": 86
    },
    {
      "midi": 57,
      "hit": false,
      "t": 183758.9899218756,
      "d": 105.16825520832208,
      "v": 76
    },
    {
      "midi": 65,
      "hit": false,
      "t": 183758.9899218756,
      "d": 105.16825520832208,
      "v": 73
    },
    {
      "midi": 50,
      "hit": false,
      "t": 184332.9081145839,
      "d": 123.19709895833512,
      "v": 88
    },
    {
      "midi": 57,
      "hit": false,
      "t": 184335.91292187557,
      "d": 93.14902604167582,
      "v": 78
    },
    {
      "midi": 62,
      "hit": false,
      "t": 184335.91292187557,
      "d": 93.14902604167582,
      "v": 83
    },
    {
      "midi": 65,
      "hit": false,
      "t": 184335.91292187557,
      "d": 96.15383333334466,
      "v": 76
    },
    {
      "midi": 67,
      "hit": false,
      "t": 184909.8311145839,
      "d": 105.16825520832208,
      "v": 72
    },
    {
      "midi": 59,
      "hit": false,
      "t": 184912.83592187558,
      "d": 105.16825520832208,
      "v": 71
    },
    {
      "midi": 62,
      "hit": false,
      "t": 184912.83592187558,
      "d": 105.16825520832208,
      "v": 74
    },
    {
      "midi": 55,
      "hit": false,
      "t": 184912.83592187558,
      "d": 108.17306249999092,
      "v": 91
    },
    {
      "midi": 67,
      "hit": false,
      "t": 185489.75892187556,
      "d": 108.17306249999092,
      "v": 72
    },
    {
      "midi": 59,
      "hit": false,
      "t": 185489.75892187556,
      "d": 111.17786979165976,
      "v": 73
    },
    {
      "midi": 62,
      "hit": false,
      "t": 185489.75892187556,
      "d": 111.17786979165976,
      "v": 78
    },
    {
      "midi": 55,
      "hit": false,
      "t": 185489.75892187556,
      "d": 114.1826770833286,
      "v": 91
    },
    {
      "midi": 62,
      "hit": false,
      "t": 186066.68192187557,
      "d": 102.16344791665324,
      "v": 74
    },
    {
      "midi": 59,
      "hit": false,
      "t": 186066.68192187557,
      "d": 105.16825520832208,
      "v": 72
    },
    {
      "midi": 67,
      "hit": false,
      "t": 186066.68192187557,
      "d": 108.17306249999092,
      "v": 70
    },
    {
      "midi": 55,
      "hit": false,
      "t": 186066.68192187557,
      "d": 111.17786979165976,
      "v": 95
    },
    {
      "midi": 55,
      "hit": false,
      "t": 186640.6001145839,
      "d": 111.17786979165976,
      "v": 91
    },
    {
      "midi": 59,
      "hit": false,
      "t": 186643.60492187558,
      "d": 102.16344791665324,
      "v": 72
    },
    {
      "midi": 67,
      "hit": false,
      "t": 186643.60492187558,
      "d": 102.16344791665324,
      "v": 72
    },
    {
      "midi": 62,
      "hit": false,
      "t": 186643.60492187558,
      "d": 108.17306249999092,
      "v": 73
    },
    {
      "midi": 52,
      "hit": false,
      "t": 187217.5231145839,
      "d": 123.19709895833512,
      "v": 74
    },
    {
      "midi": 57,
      "hit": false,
      "t": 187220.52792187556,
      "d": 99.1586406250135,
      "v": 69
    },
    {
      "midi": 60,
      "hit": false,
      "t": 187220.52792187556,
      "d": 99.1586406250135,
      "v": 72
    },
    {
      "midi": 64,
      "hit": false,
      "t": 187220.52792187556,
      "d": 99.1586406250135,
      "v": 64
    },
    {
      "midi": 52,
      "hit": false,
      "t": 187794.4461145839,
      "d": 117.18748437499744,
      "v": 83
    },
    {
      "midi": 64,
      "hit": false,
      "t": 187797.45092187557,
      "d": 102.16344791665324,
      "v": 72
    },
    {
      "midi": 57,
      "hit": false,
      "t": 187797.45092187557,
      "d": 105.16825520832208,
      "v": 78
    },
    {
      "midi": 60,
      "hit": false,
      "t": 187797.45092187557,
      "d": 105.16825520832208,
      "v": 76
    },
    {
      "midi": 50,
      "hit": false,
      "t": 188371.3691145839,
      "d": 117.18748437499744,
      "v": 83
    },
    {
      "midi": 57,
      "hit": false,
      "t": 188374.37392187558,
      "d": 93.14902604167582,
      "v": 78
    },
    {
      "midi": 62,
      "hit": false,
      "t": 188374.37392187558,
      "d": 93.14902604167582,
      "v": 74
    },
    {
      "midi": 65,
      "hit": false,
      "t": 188374.37392187558,
      "d": 93.14902604167582,
      "v": 73
    },
    {
      "midi": 50,
      "hit": false,
      "t": 188948.29211458392,
      "d": 111.17786979165976,
      "v": 88
    },
    {
      "midi": 57,
      "hit": false,
      "t": 188951.2969218756,
      "d": 102.16344791665324,
      "v": 81
    },
    {
      "midi": 62,
      "hit": false,
      "t": 188951.2969218756,
      "d": 102.16344791665324,
      "v": 78
    },
    {
      "midi": 65,
      "hit": false,
      "t": 188951.2969218756,
      "d": 114.1826770833286,
      "v": 74
    },
    {
      "midi": 55,
      "hit": false,
      "t": 189525.21511458393,
      "d": 117.18748437499744,
      "v": 88
    },
    {
      "midi": 59,
      "hit": false,
      "t": 189528.2199218756,
      "d": 93.14902604167582,
      "v": 70
    },
    {
      "midi": 62,
      "hit": false,
      "t": 189528.2199218756,
      "d": 93.14902604167582,
      "v": 73
    },
    {
      "midi": 67,
      "hit": false,
      "t": 189528.2199218756,
      "d": 93.14902604167582,
      "v": 72
    },
    {
      "midi": 55,
      "hit": false,
      "t": 190102.13811458394,
      "d": 117.18748437499744,
      "v": 88
    },
    {
      "midi": 59,
      "hit": false,
      "t": 190105.1429218756,
      "d": 102.16344791665324,
      "v": 72
    },
    {
      "midi": 67,
      "hit": false,
      "t": 190105.1429218756,
      "d": 105.16825520832208,
      "v": 71
    },
    {
      "midi": 62,
      "hit": false,
      "t": 190105.1429218756,
      "d": 108.17306249999092,
      "v": 76
    },
    {
      "midi": 67,
      "hit": false,
      "t": 190679.06111458395,
      "d": 111.17786979165976,
      "v": 73
    },
    {
      "midi": 55,
      "hit": false,
      "t": 190682.06592187562,
      "d": 102.16344791665324,
      "v": 86
    },
    {
      "midi": 59,
      "hit": false,
      "t": 190682.06592187562,
      "d": 102.16344791665324,
      "v": 70
    },
    {
      "midi": 62,
      "hit": false,
      "t": 190682.06592187562,
      "d": 108.17306249999092,
      "v": 76
    },
    {
      "midi": 55,
      "hit": false,
      "t": 191255.98411458393,
      "d": 117.18748437499744,
      "v": 86
    },
    {
      "midi": 62,
      "hit": false,
      "t": 191258.9889218756,
      "d": 108.17306249999092,
      "v": 78
    },
    {
      "midi": 59,
      "hit": false,
      "t": 191258.9889218756,
      "d": 111.17786979165976,
      "v": 70
    },
    {
      "midi": 67,
      "hit": false,
      "t": 191258.9889218756,
      "d": 111.17786979165976,
      "v": 73
    },
    {
      "midi": 52,
      "hit": false,
      "t": 191832.90711458394,
      "d": 123.19709895833512,
      "v": 79
    },
    {
      "midi": 60,
      "hit": false,
      "t": 191835.9119218756,
      "d": 90.14421875000698,
      "v": 81
    },
    {
      "midi": 64,
      "hit": false,
      "t": 191835.9119218756,
      "d": 90.14421875000698,
      "v": 71
    },
    {
      "midi": 57,
      "hit": false,
      "t": 191835.9119218756,
      "d": 96.15383333334466,
      "v": 79
    },
    {
      "midi": 60,
      "hit": false,
      "t": 192412.83492187562,
      "d": 102.16344791665324,
      "v": 86
    },
    {
      "midi": 52,
      "hit": false,
      "t": 192412.83492187562,
      "d": 108.17306249999092,
      "v": 79
    },
    {
      "midi": 57,
      "hit": false,
      "t": 192412.83492187562,
      "d": 111.17786979165976,
      "v": 86
    },
    {
      "midi": 64,
      "hit": false,
      "t": 192412.83492187562,
      "d": 111.17786979165976,
      "v": 76
    },
    {
      "midi": 57,
      "hit": false,
      "t": 192989.7579218756,
      "d": 102.16344791665324,
      "v": 76
    },
    {
      "midi": 60,
      "hit": false,
      "t": 192989.7579218756,
      "d": 108.17306249999092,
      "v": 73
    },
    {
      "midi": 64,
      "hit": false,
      "t": 192989.7579218756,
      "d": 108.17306249999092,
      "v": 69
    },
    {
      "midi": 53,
      "hit": false,
      "t": 192989.7579218756,
      "d": 111.17786979165976,
      "v": 74
    },
    {
      "midi": 57,
      "hit": false,
      "t": 193566.68092187558,
      "d": 108.17306249999092,
      "v": 76
    },
    {
      "midi": 64,
      "hit": false,
      "t": 193566.68092187558,
      "d": 111.17786979165976,
      "v": 71
    },
    {
      "midi": 60,
      "hit": false,
      "t": 193566.68092187558,
      "d": 114.1826770833286,
      "v": 76
    },
    {
      "midi": 53,
      "hit": false,
      "t": 193569.68572916725,
      "d": 108.17306249999092,
      "v": 76
    },
    {
      "midi": 57,
      "hit": false,
      "t": 194140.59911458392,
      "d": 87.13941145833815,
      "v": 83
    },
    {
      "midi": 53,
      "hit": false,
      "t": 194140.59911458392,
      "d": 105.16825520835118,
      "v": 78
    },
    {
      "midi": 62,
      "hit": false,
      "t": 194143.6039218756,
      "d": 108.17306250002002,
      "v": 73
    },
    {
      "midi": 57,
      "hit": false,
      "t": 194717.52211458393,
      "d": 81.12979687500047,
      "v": 79
    },
    {
      "midi": 53,
      "hit": false,
      "t": 194720.5269218756,
      "d": 102.16344791665324,
      "v": 76
    },
    {
      "midi": 62,
      "hit": false,
      "t": 194720.5269218756,
      "d": 105.16825520832208,
      "v": 73
    },
    {
      "midi": 59,
      "hit": false,
      "t": 195294.4451145839,
      "d": 105.16825520832208,
      "v": 79
    },
    {
      "midi": 55,
      "hit": false,
      "t": 195297.44992187558,
      "d": 102.16344791665324,
      "v": 76
    },
    {
      "midi": 50,
      "hit": false,
      "t": 195297.44992187558,
      "d": 108.17306249999092,
      "v": 74
    },
    {
      "midi": 62,
      "hit": false,
      "t": 195297.44992187558,
      "d": 108.17306249999092,
      "v": 76
    },
    {
      "midi": 55,
      "hit": false,
      "t": 195874.37292187556,
      "d": 96.15383333334466,
      "v": 78
    },
    {
      "midi": 50,
      "hit": false,
      "t": 195874.37292187556,
      "d": 102.16344791668234,
      "v": 78
    },
    {
      "midi": 59,
      "hit": false,
      "t": 195874.37292187556,
      "d": 102.16344791668234,
      "v": 79
    },
    {
      "midi": 62,
      "hit": false,
      "t": 195874.37292187556,
      "d": 108.17306250002002,
      "v": 76
    },
    {
      "midi": 57,
      "hit": false,
      "t": 196448.2911145839,
      "d": 105.16825520832208,
      "v": 78
    },
    {
      "midi": 60,
      "hit": false,
      "t": 196448.2911145839,
      "d": 105.16825520832208,
      "v": 81
    },
    {
      "midi": 64,
      "hit": false,
      "t": 196451.29592187557,
      "d": 108.17306249999092,
      "v": 69
    },
    {
      "midi": 52,
      "hit": false,
      "t": 196451.29592187557,
      "d": 111.17786979165976,
      "v": 73
    },
    {
      "midi": 57,
      "hit": false,
      "t": 197028.21892187555,
      "d": 54.08653125001001,
      "v": 81
    },
    {
      "midi": 60,
      "hit": false,
      "t": 197028.21892187555,
      "d": 90.14421875000698,
      "v": 83
    },
    {
      "midi": 52,
      "hit": false,
      "t": 197028.21892187555,
      "d": 93.14902604167582,
      "v": 71
    },
    {
      "midi": 64,
      "hit": false,
      "t": 197028.21892187555,
      "d": 93.14902604167582,
      "v": 71
    },
    {
      "midi": 60,
      "hit": false,
      "t": 197602.1371145839,
      "d": 105.16825520832208,
      "v": 69
    },
    {
      "midi": 53,
      "hit": false,
      "t": 197605.14192187556,
      "d": 105.16825520832208,
      "v": 73
    },
    {
      "midi": 57,
      "hit": false,
      "t": 197605.14192187556,
      "d": 105.16825520832208,
      "v": 70
    },
    {
      "midi": 64,
      "hit": false,
      "t": 197605.14192187556,
      "d": 108.17306249999092,
      "v": 65
    },
    {
      "midi": 53,
      "hit": false,
      "t": 198182.06492187554,
      "d": 111.17786979165976,
      "v": 81
    },
    {
      "midi": 57,
      "hit": false,
      "t": 198182.06492187554,
      "d": 111.17786979165976,
      "v": 78
    },
    {
      "midi": 60,
      "hit": false,
      "t": 198182.06492187554,
      "d": 111.17786979165976,
      "v": 76
    },
    {
      "midi": 64,
      "hit": false,
      "t": 198182.06492187554,
      "d": 111.17786979165976,
      "v": 72
    },
    {
      "midi": 53,
      "hit": false,
      "t": 198755.98311458388,
      "d": 99.1586406249844,
      "v": 74
    },
    {
      "midi": 57,
      "hit": false,
      "t": 198758.98792187555,
      "d": 66.10576041665627,
      "v": 83
    },
    {
      "midi": 62,
      "hit": false,
      "t": 198758.98792187555,
      "d": 102.16344791665324,
      "v": 74
    },
    {
      "midi": 57,
      "hit": false,
      "t": 199332.90611458386,
      "d": 87.13941145833815,
      "v": 79
    },
    {
      "midi": 53,
      "hit": false,
      "t": 199335.91092187553,
      "d": 102.16344791668234,
      "v": 74
    },
    {
      "midi": 62,
      "hit": false,
      "t": 199335.91092187553,
      "d": 102.16344791668234,
      "v": 73
    },
    {
      "midi": 59,
      "hit": false,
      "t": 199909.82911458387,
      "d": 81.12979687500047,
      "v": 76
    },
    {
      "midi": 55,
      "hit": false,
      "t": 199909.82911458387,
      "d": 99.1586406250135,
      "v": 81
    },
    {
      "midi": 62,
      "hit": false,
      "t": 199909.82911458387,
      "d": 99.1586406250135,
      "v": 72
    },
    {
      "midi": 59,
      "hit": false,
      "t": 200486.75211458388,
      "d": 111.17786979165976,
      "v": 78
    },
    {
      "midi": 55,
      "hit": false,
      "t": 200489.75692187555,
      "d": 78.12498958333163,
      "v": 76
    },
    {
      "midi": 50,
      "hit": false,
      "t": 200489.75692187555,
      "d": 81.12979687500047,
      "v": 70
    },
    {
      "midi": 62,
      "hit": false,
      "t": 200489.75692187555,
      "d": 111.17786979165976,
      "v": 76
    },
    {
      "midi": 60,
      "hit": false,
      "t": 201063.6751145839,
      "d": 111.17786979165976,
      "v": 81
    },
    {
      "midi": 57,
      "hit": false,
      "t": 201066.67992187556,
      "d": 102.16344791665324,
      "v": 79
    },
    {
      "midi": 64,
      "hit": false,
      "t": 201066.67992187556,
      "d": 102.16344791665324,
      "v": 69
    },
    {
      "midi": 52,
      "hit": false,
      "t": 201066.67992187556,
      "d": 114.1826770833286,
      "v": 76
    },
    {
      "midi": 60,
      "hit": false,
      "t": 201643.60292187557,
      "d": 90.14421875000698,
      "v": 88
    },
    {
      "midi": 57,
      "hit": false,
      "t": 201643.60292187557,
      "d": 93.14902604167582,
      "v": 81
    },
    {
      "midi": 64,
      "hit": false,
      "t": 201643.60292187557,
      "d": 96.15383333334466,
      "v": 72
    },
    {
      "midi": 52,
      "hit": false,
      "t": 201643.60292187557,
      "d": 120.19229166666628,
      "v": 79
    },
    {
      "midi": 57,
      "hit": false,
      "t": 202220.52592187558,
      "d": 102.16344791665324,
      "v": 71
    },
    {
      "midi": 53,
      "hit": false,
      "t": 202220.52592187558,
      "d": 105.16825520832208,
      "v": 74
    },
    {
      "midi": 60,
      "hit": false,
      "t": 202220.52592187558,
      "d": 105.16825520832208,
      "v": 69
    },
    {
      "midi": 64,
      "hit": false,
      "t": 202220.52592187558,
      "d": 108.17306249999092,
      "v": 65
    },
    {
      "midi": 53,
      "hit": false,
      "t": 202794.4441145839,
      "d": 111.17786979165976,
      "v": 78
    },
    {
      "midi": 60,
      "hit": false,
      "t": 202797.44892187556,
      "d": 102.16344791665324,
      "v": 74
    },
    {
      "midi": 57,
      "hit": false,
      "t": 202797.44892187556,
      "d": 105.16825520832208,
      "v": 76
    },
    {
      "midi": 64,
      "hit": false,
      "t": 202797.44892187556,
      "d": 108.17306249999092,
      "v": 67
    },
    {
      "midi": 53,
      "hit": false,
      "t": 203371.36711458387,
      "d": 87.13941145833815,
      "v": 81
    },
    {
      "midi": 62,
      "hit": false,
      "t": 203371.36711458387,
      "d": 90.14421875000698,
      "v": 79
    },
    {
      "midi": 57,
      "hit": false,
      "t": 203374.37192187554,
      "d": 78.12498958333163,
      "v": 83
    },
    {
      "midi": 53,
      "hit": false,
      "t": 203948.29011458388,
      "d": 87.13941145833815,
      "v": 78
    },
    {
      "midi": 62,
      "hit": false,
      "t": 203948.29011458388,
      "d": 90.14421875000698,
      "v": 72
    },
    {
      "midi": 57,
      "hit": false,
      "t": 203951.29492187555,
      "d": 78.12498958333163,
      "v": 79
    },
    {
      "midi": 59,
      "hit": false,
      "t": 204525.2131145839,
      "d": 75.12018229166279,
      "v": 74
    },
    {
      "midi": 55,
      "hit": false,
      "t": 204525.2131145839,
      "d": 105.16825520832208,
      "v": 83
    },
    {
      "midi": 62,
      "hit": false,
      "t": 204528.21792187556,
      "d": 75.12018229166279,
      "v": 72
    },
    {
      "midi": 55,
      "hit": false,
      "t": 205102.13611458387,
      "d": 99.1586406250135,
      "v": 81
    },
    {
      "midi": 59,
      "hit": false,
      "t": 205105.14092187554,
      "d": 72.11537499999395,
      "v": 78
    },
    {
      "midi": 62,
      "hit": false,
      "t": 205105.14092187554,
      "d": 78.12498958333163,
      "v": 72
    },
    {
      "midi": 60,
      "hit": false,
      "t": 205679.05911458388,
      "d": 93.14902604167582,
      "v": 76
    },
    {
      "midi": 64,
      "hit": false,
      "t": 205679.05911458388,
      "d": 99.1586406250135,
      "v": 63
    },
    {
      "midi": 57,
      "hit": false,
      "t": 205682.06392187555,
      "d": 60.09614583334769,
      "v": 86
    },
    {
      "midi": 60,
      "hit": false,
      "t": 206255.9821145839,
      "d": 105.16825520832208,
      "v": 74
    },
    {
      "midi": 57,
      "hit": false,
      "t": 206258.98692187556,
      "d": 78.12498958333163,
      "v": 76
    },
    {
      "midi": 64,
      "hit": false,
      "t": 206258.98692187556,
      "d": 102.16344791665324,
      "v": 65
    },
    {
      "midi": 53,
      "hit": false,
      "t": 206832.90511458387,
      "d": 99.1586406250135,
      "v": 74
    },
    {
      "midi": 57,
      "hit": false,
      "t": 206835.90992187554,
      "d": 90.14421875000698,
      "v": 76
    },
    {
      "midi": 62,
      "hit": false,
      "t": 206835.90992187554,
      "d": 102.16344791668234,
      "v": 71
    },
    {
      "midi": 57,
      "hit": false,
      "t": 207409.82811458388,
      "d": 87.13941145833815,
      "v": 76
    },
    {
      "midi": 62,
      "hit": false,
      "t": 207409.82811458388,
      "d": 105.16825520835118,
      "v": 74
    },
    {
      "midi": 53,
      "hit": false,
      "t": 207412.83292187555,
      "d": 102.16344791668234,
      "v": 72
    },
    {
      "midi": 60,
      "hit": false,
      "t": 207989.75592187556,
      "d": 96.15383333334466,
      "v": 83
    },
    {
      "midi": 57,
      "hit": false,
      "t": 207989.75592187556,
      "d": 102.16344791668234,
      "v": 79
    },
    {
      "midi": 53,
      "hit": false,
      "t": 207989.75592187556,
      "d": 105.16825520835118,
      "v": 76
    },
    {
      "midi": 65,
      "hit": false,
      "t": 207989.75592187556,
      "d": 105.16825520835118,
      "v": 79
    },
    {
      "midi": 53,
      "hit": false,
      "t": 208563.6741145839,
      "d": 81.12979687500047,
      "v": 76
    },
    {
      "midi": 60,
      "hit": false,
      "t": 208566.67892187557,
      "d": 90.14421875000698,
      "v": 76
    },
    {
      "midi": 57,
      "hit": false,
      "t": 208566.67892187557,
      "d": 99.1586406250135,
      "v": 74
    },
    {
      "midi": 65,
      "hit": false,
      "t": 208566.67892187557,
      "d": 99.1586406250135,
      "v": 72
    },
    {
      "midi": 53,
      "hit": false,
      "t": 209140.5971145839,
      "d": 111.17786979168886,
      "v": 72
    },
    {
      "midi": 57,
      "hit": false,
      "t": 209143.60192187558,
      "d": 96.15383333334466,
      "v": 73
    },
    {
      "midi": 60,
      "hit": false,
      "t": 209143.60192187558,
      "d": 102.16344791668234,
      "v": 73
    },
    {
      "midi": 65,
      "hit": false,
      "t": 209143.60192187558,
      "d": 102.16344791668234,
      "v": 71
    },
    {
      "midi": 57,
      "hit": false,
      "t": 209720.5249218756,
      "d": 96.15383333334466,
      "v": 78
    },
    {
      "midi": 53,
      "hit": false,
      "t": 209720.5249218756,
      "d": 102.16344791668234,
      "v": 78
    },
    {
      "midi": 60,
      "hit": false,
      "t": 209720.5249218756,
      "d": 108.17306250002002,
      "v": 81
    },
    {
      "midi": 65,
      "hit": false,
      "t": 209720.5249218756,
      "d": 108.17306250002002,
      "v": 74
    },
    {
      "midi": 59,
      "hit": false,
      "t": 210297.4479218756,
      "d": 102.16344791665324,
      "v": 71
    },
    {
      "midi": 62,
      "hit": false,
      "t": 210297.4479218756,
      "d": 105.16825520832208,
      "v": 76
    },
    {
      "midi": 67,
      "hit": false,
      "t": 210297.4479218756,
      "d": 105.16825520832208,
      "v": 73
    },
    {
      "midi": 55,
      "hit": false,
      "t": 210297.4479218756,
      "d": 108.17306249999092,
      "v": 74
    },
    {
      "midi": 55,
      "hit": false,
      "t": 210871.3661145839,
      "d": 99.1586406250135,
      "v": 78
    },
    {
      "midi": 67,
      "hit": false,
      "t": 210871.3661145839,
      "d": 105.16825520835118,
      "v": 71
    },
    {
      "midi": 59,
      "hit": false,
      "t": 210874.37092187558,
      "d": 99.1586406250135,
      "v": 71
    },
    {
      "midi": 62,
      "hit": false,
      "t": 210874.37092187558,
      "d": 102.16344791668234,
      "v": 74
    },
    {
      "midi": 62,
      "hit": false,
      "t": 211448.28911458392,
      "d": 114.1826770833286,
      "v": 78
    },
    {
      "midi": 67,
      "hit": false,
      "t": 211448.28911458392,
      "d": 114.1826770833286,
      "v": 70
    },
    {
      "midi": 59,
      "hit": false,
      "t": 211451.2939218756,
      "d": 102.16344791665324,
      "v": 73
    },
    {
      "midi": 55,
      "hit": false,
      "t": 211451.2939218756,
      "d": 111.17786979165976,
      "v": 81
    },
    {
      "midi": 62,
      "hit": false,
      "t": 212025.21211458393,
      "d": 87.13941145833815,
      "v": 79
    },
    {
      "midi": 55,
      "hit": false,
      "t": 212028.2169218756,
      "d": 60.09614583334769,
      "v": 78
    },
    {
      "midi": 67,
      "hit": false,
      "t": 212028.2169218756,
      "d": 60.09614583334769,
      "v": 76
    },
    {
      "midi": 59,
      "hit": false,
      "t": 212028.2169218756,
      "d": 84.1346041666693,
      "v": 72
    },
    {
      "midi": 55,
      "hit": false,
      "t": 212602.13511458394,
      "d": 111.17786979165976,
      "v": 76
    },
    {
      "midi": 59,
      "hit": false,
      "t": 212605.1399218756,
      "d": 111.17786979165976,
      "v": 72
    },
    {
      "midi": 62,
      "hit": false,
      "t": 212605.1399218756,
      "d": 111.17786979165976,
      "v": 76
    },
    {
      "midi": 67,
      "hit": false,
      "t": 212605.1399218756,
      "d": 114.1826770833286,
      "v": 72
    },
    {
      "midi": 67,
      "hit": false,
      "t": 213179.05811458395,
      "d": 105.16825520835118,
      "v": 69
    },
    {
      "midi": 62,
      "hit": false,
      "t": 213182.06292187562,
      "d": 96.15383333334466,
      "v": 70
    },
    {
      "midi": 55,
      "hit": false,
      "t": 213182.06292187562,
      "d": 105.16825520835118,
      "v": 79
    },
    {
      "midi": 59,
      "hit": false,
      "t": 213182.06292187562,
      "d": 105.16825520835118,
      "v": 66
    },
    {
      "midi": 55,
      "hit": false,
      "t": 213473.5292291673,
      "d": 114.1826770833286,
      "v": 88
    },
    {
      "midi": 59,
      "hit": false,
      "t": 213473.5292291673,
      "d": 114.1826770833286,
      "v": 81
    },
    {
      "midi": 62,
      "hit": false,
      "t": 213473.5292291673,
      "d": 114.1826770833286,
      "v": 86
    },
    {
      "midi": 67,
      "hit": false,
      "t": 213473.5292291673,
      "d": 114.1826770833286,
      "v": 79
    },
    {
      "midi": 55,
      "hit": false,
      "t": 214044.44261458397,
      "d": 111.17786979165976,
      "v": 73
    },
    {
      "midi": 60,
      "hit": false,
      "t": 214044.44261458397,
      "d": 117.18748437499744,
      "v": 74
    },
    {
      "midi": 64,
      "hit": false,
      "t": 214044.44261458397,
      "d": 117.18748437499744,
      "v": 69
    },
    {
      "midi": 55,
      "hit": false,
      "t": 214332.90411458397,
      "d": 99.1586406250135,
      "v": 69
    },
    {
      "midi": 59,
      "hit": false,
      "t": 214332.90411458397,
      "d": 105.16825520835118,
      "v": 70
    },
    {
      "midi": 62,
      "hit": false,
      "t": 214332.90411458397,
      "d": 111.17786979168886,
      "v": 65
    },
    {
      "midi": 48,
      "hit": false,
      "t": 214627.37522916732,
      "d": 321.514380208333,
      "v": 99
    },
    {
      "midi": 55,
      "hit": false,
      "t": 214627.37522916732,
      "d": 321.514380208333,
      "v": 78
    },
    {
      "midi": 64,
      "hit": false,
      "t": 214627.37522916732,
      "d": 324.51918750000186,
      "v": 74
    },
    {
      "midi": 60,
      "hit": false,
      "t": 214627.37522916732,
      "d": 339.54322395834606,
      "v": 81
    }
  ]
}