{
  "jsonPath": "Unknown/Unknown/BJ THOMAS/the-word-is-love-remastered.json",
  "path": "Unknown\\Unknown\\BJ THOMAS\\The Word Is Love Remastered.mid",
  "name": "The Word Is Love Remastered",
  "difficulty": "Advanced",
  "bpm": 77.000077000077,
  "notes": [
    {
      "midi": 53,
      "hit": false,
      "t": 6956.512000000001,
      "d": 3478.2559999999958,
      "v": 74
    },
    {
      "midi": 79,
      "hit": false,
      "t": 6963.758366666668,
      "d": 565.2165999999997,
      "v": 112
    },
    {
      "midi": 53,
      "hit": false,
      "t": 6963.758366666668,
      "d": 615.9411666666665,
      "v": 112
    },
    {
      "midi": 81,
      "hit": false,
      "t": 6999.990200000001,
      "d": 565.2165999999997,
      "v": 112
    },
    {
      "midi": 60,
      "hit": false,
      "t": 7391.294000000001,
      "d": 1739.1279999999979,
      "v": 67
    },
    {
      "midi": 60,
      "hit": false,
      "t": 7398.540366666668,
      "d": 594.2020666666658,
      "v": 112
    },
    {
      "midi": 72,
      "hit": false,
      "t": 7398.540366666668,
      "d": 659.4193666666661,
      "v": 112
    },
    {
      "midi": 65,
      "hit": false,
      "t": 7826.076000000001,
      "d": 1304.3459999999977,
      "v": 84
    },
    {
      "midi": 79,
      "hit": false,
      "t": 7833.322366666667,
      "d": 594.2020666666667,
      "v": 112
    },
    {
      "midi": 65,
      "hit": false,
      "t": 7833.322366666667,
      "d": 2318.837333333333,
      "v": 112
    },
    {
      "midi": 81,
      "hit": false,
      "t": 7869.5542000000005,
      "d": 543.4775000000009,
      "v": 112
    },
    {
      "midi": 69,
      "hit": false,
      "t": 8260.858,
      "d": 869.5639999999985,
      "v": 75
    },
    {
      "midi": 72,
      "hit": false,
      "t": 8268.104366666668,
      "d": 637.6802666666645,
      "v": 112
    },
    {
      "midi": 72,
      "hit": false,
      "t": 8695.64,
      "d": 869.5639999999985,
      "v": 70
    },
    {
      "midi": 79,
      "hit": false,
      "t": 8702.886366666668,
      "d": 594.2020666666667,
      "v": 112
    },
    {
      "midi": 82,
      "hit": false,
      "t": 8717.3791,
      "d": 615.9411666666674,
      "v": 112
    },
    {
      "midi": 60,
      "hit": false,
      "t": 9130.421999999999,
      "d": 1304.3459999999977,
      "v": 4
    },
    {
      "midi": 65,
      "hit": false,
      "t": 9130.421999999999,
      "d": 1304.3459999999977,
      "v": 82
    },
    {
      "midi": 72,
      "hit": false,
      "t": 9137.668366666667,
      "d": 615.9411666666674,
      "v": 112
    },
    {
      "midi": 69,
      "hit": false,
      "t": 9565.203999999998,
      "d": 869.5639999999985,
      "v": 84
    },
    {
      "midi": 79,
      "hit": false,
      "t": 9572.450366666668,
      "d": 615.9411666666656,
      "v": 112
    },
    {
      "midi": 84,
      "hit": false,
      "t": 9608.682200000001,
      "d": 543.477499999999,
      "v": 112
    },
    {
      "midi": 81,
      "hit": false,
      "t": 9608.682200000001,
      "d": 565.2165999999997,
      "v": 112
    },
    {
      "midi": 72,
      "hit": false,
      "t": 9999.985999999997,
      "d": 1739.127999999997,
      "v": 71
    },
    {
      "midi": 72,
      "hit": false,
      "t": 10007.232366666667,
      "d": 594.2020666666667,
      "v": 112
    },
    {
      "midi": 53,
      "hit": false,
      "t": 10434.767999999996,
      "d": 3478.255999999994,
      "v": 82
    },
    {
      "midi": 79,
      "hit": false,
      "t": 10442.014366666666,
      "d": 565.2166000000016,
      "v": 112
    },
    {
      "midi": 53,
      "hit": false,
      "t": 10442.014366666666,
      "d": 731.8830333333353,
      "v": 112
    },
    {
      "midi": 81,
      "hit": false,
      "t": 10478.2462,
      "d": 521.738400000002,
      "v": 112
    },
    {
      "midi": 60,
      "hit": false,
      "t": 10869.549999999996,
      "d": 3043.4739999999947,
      "v": 66
    },
    {
      "midi": 72,
      "hit": false,
      "t": 10876.796366666667,
      "d": 565.2166000000016,
      "v": 112
    },
    {
      "midi": 60,
      "hit": false,
      "t": 10876.796366666667,
      "d": 710.1439333333346,
      "v": 112
    },
    {
      "midi": 65,
      "hit": false,
      "t": 11304.331999999995,
      "d": 1304.3459999999977,
      "v": 66
    },
    {
      "midi": 79,
      "hit": false,
      "t": 11311.578366666668,
      "d": 594.2020666666667,
      "v": 112
    },
    {
      "midi": 65,
      "hit": false,
      "t": 11311.578366666668,
      "d": 2318.837333333333,
      "v": 112
    },
    {
      "midi": 81,
      "hit": false,
      "t": 11347.810200000002,
      "d": 543.4775000000009,
      "v": 112
    },
    {
      "midi": 69,
      "hit": false,
      "t": 11739.113999999994,
      "d": 869.5639999999985,
      "v": 77
    },
    {
      "midi": 72,
      "hit": false,
      "t": 11746.36036666667,
      "d": 565.2165999999979,
      "v": 112
    },
    {
      "midi": 72,
      "hit": false,
      "t": 12173.895999999993,
      "d": 869.5639999999985,
      "v": 67
    },
    {
      "midi": 79,
      "hit": false,
      "t": 12181.142366666669,
      "d": 594.2020666666667,
      "v": 112
    },
    {
      "midi": 82,
      "hit": false,
      "t": 12195.635100000001,
      "d": 615.9411666666674,
      "v": 112
    },
    {
      "midi": 65,
      "hit": false,
      "t": 12608.677999999993,
      "d": 1304.3459999999977,
      "v": 86
    },
    {
      "midi": 72,
      "hit": false,
      "t": 12615.924366666668,
      "d": 637.6802666666681,
      "v": 112
    },
    {
      "midi": 69,
      "hit": false,
      "t": 13043.459999999992,
      "d": 869.5639999999985,
      "v": 72
    },
    {
      "midi": 79,
      "hit": false,
      "t": 13050.706366666669,
      "d": 543.4775000000009,
      "v": 112
    },
    {
      "midi": 81,
      "hit": false,
      "t": 13086.938200000002,
      "d": 521.7384000000002,
      "v": 112
    },
    {
      "midi": 84,
      "hit": false,
      "t": 13094.184566666669,
      "d": 521.7384000000002,
      "v": 112
    },
    {
      "midi": 72,
      "hit": false,
      "t": 13478.241999999991,
      "d": 434.78199999999924,
      "v": 71
    },
    {
      "midi": 60,
      "hit": false,
      "t": 13485.48836666667,
      "d": 427.53563333333113,
      "v": 112
    },
    {
      "midi": 57,
      "hit": false,
      "t": 13913.02399999999,
      "d": 891.3030999999992,
      "v": 61
    },
    {
      "midi": 41,
      "hit": false,
      "t": 13913.02399999999,
      "d": 1739.1279999999988,
      "v": 26
    },
    {
      "midi": 69,
      "hit": false,
      "t": 13913.02399999999,
      "d": 1739.1279999999988,
      "v": 71
    },
    {
      "midi": 41,
      "hit": false,
      "t": 13920.270366666668,
      "d": 826.0857999999989,
      "v": 112
    },
    {
      "midi": 60,
      "hit": false,
      "t": 13920.270366666668,
      "d": 1630.4324999999972,
      "v": 112
    },
    {
      "midi": 67,
      "hit": false,
      "t": 13920.270366666668,
      "d": 1652.1715999999979,
      "v": 112
    },
    {
      "midi": 69,
      "hit": false,
      "t": 13963.748566666667,
      "d": 1086.954999999998,
      "v": 112
    },
    {
      "midi": 36,
      "hit": false,
      "t": 14347.80599999999,
      "d": 1304.3459999999995,
      "v": 58
    },
    {
      "midi": 48,
      "hit": false,
      "t": 14355.052366666667,
      "d": 688.4048333333321,
      "v": 112
    },
    {
      "midi": 57,
      "hit": false,
      "t": 14789.834366666666,
      "d": 659.4193666666652,
      "v": 112
    },
    {
      "midi": 57,
      "hit": false,
      "t": 15217.36999999999,
      "d": 434.78199999999924,
      "v": 55
    },
    {
      "midi": 69,
      "hit": false,
      "t": 15224.616366666665,
      "d": 427.53563333333295,
      "v": 112
    },
    {
      "midi": 48,
      "hit": false,
      "t": 15224.616366666665,
      "d": 659.4193666666652,
      "v": 112
    },
    {
      "midi": 57,
      "hit": false,
      "t": 15652.15199999999,
      "d": 891.3030999999992,
      "v": 61
    },
    {
      "midi": 41,
      "hit": false,
      "t": 15652.15199999999,
      "d": 1739.1279999999988,
      "v": 26
    },
    {
      "midi": 69,
      "hit": false,
      "t": 15652.15199999999,
      "d": 1739.1279999999988,
      "v": 71
    },
    {
      "midi": 65,
      "hit": false,
      "t": 15659.398366666665,
      "d": 565.2165999999997,
      "v": 112
    },
    {
      "midi": 53,
      "hit": false,
      "t": 15659.398366666665,
      "d": 1891.3017,
      "v": 112
    },
    {
      "midi": 60,
      "hit": false,
      "t": 15659.398366666665,
      "d": 1913.0407999999989,
      "v": 112
    },
    {
      "midi": 70,
      "hit": false,
      "t": 15673.891099999997,
      "d": 710.1439333333328,
      "v": 112
    },
    {
      "midi": 36,
      "hit": false,
      "t": 16086.933999999988,
      "d": 1304.3459999999995,
      "v": 58
    },
    {
      "midi": 69,
      "hit": false,
      "t": 16094.180366666664,
      "d": 594.2020666666649,
      "v": 112
    },
    {
      "midi": 67,
      "hit": false,
      "t": 16528.962366666663,
      "d": 615.9411666666674,
      "v": 112
    },
    {
      "midi": 57,
      "hit": false,
      "t": 16956.49799999999,
      "d": 434.78199999999924,
      "v": 55
    },
    {
      "midi": 65,
      "hit": false,
      "t": 16963.744366666662,
      "d": 427.5356333333366,
      "v": 112
    },
    {
      "midi": 55,
      "hit": false,
      "t": 17391.279999999988,
      "d": 891.303100000001,
      "v": 61
    },
    {
      "midi": 36,
      "hit": false,
      "t": 17391.279999999988,
      "d": 1739.1280000000006,
      "v": 26
    },
    {
      "midi": 65,
      "hit": false,
      "t": 17391.279999999988,
      "d": 1739.1280000000006,
      "v": 71
    },
    {
      "midi": 48,
      "hit": false,
      "t": 17398.526366666665,
      "d": 1586.9542999999976,
      "v": 112
    },
    {
      "midi": 58,
      "hit": false,
      "t": 17398.526366666665,
      "d": 1630.432499999999,
      "v": 112
    },
    {
      "midi": 62,
      "hit": false,
      "t": 17398.526366666665,
      "d": 1963.7653666666665,
      "v": 112
    },
    {
      "midi": 65,
      "hit": false,
      "t": 17413.019099999998,
      "d": 615.9411666666674,
      "v": 112
    },
    {
      "midi": 38,
      "hit": false,
      "t": 17826.061999999987,
      "d": 1304.3460000000014,
      "v": 58
    },
    {
      "midi": 64,
      "hit": false,
      "t": 17833.308366666664,
      "d": 637.6802666666663,
      "v": 112
    },
    {
      "midi": 55,
      "hit": false,
      "t": 17833.308366666664,
      "d": 1159.4186666666646,
      "v": 112
    },
    {
      "midi": 65,
      "hit": false,
      "t": 18268.090366666664,
      "d": 615.9411666666674,
      "v": 112
    },
    {
      "midi": 55,
      "hit": false,
      "t": 18695.62599999999,
      "d": 434.78199999999924,
      "v": 55
    },
    {
      "midi": 67,
      "hit": false,
      "t": 18702.872366666663,
      "d": 637.6802666666699,
      "v": 112
    },
    {
      "midi": 48,
      "hit": false,
      "t": 19130.40799999999,
      "d": 652.1729999999989,
      "v": 68
    },
    {
      "midi": 58,
      "hit": false,
      "t": 19130.40799999999,
      "d": 1739.1280000000006,
      "v": 71
    },
    {
      "midi": 64,
      "hit": false,
      "t": 19130.40799999999,
      "d": 1739.1280000000006,
      "v": 71
    },
    {
      "midi": 48,
      "hit": false,
      "t": 19137.654366666666,
      "d": 615.9411666666674,
      "v": 112
    },
    {
      "midi": 58,
      "hit": false,
      "t": 19137.654366666666,
      "d": 1702.8961666666728,
      "v": 112
    },
    {
      "midi": 60,
      "hit": false,
      "t": 19181.132566666667,
      "d": 1065.2159000000029,
      "v": 112
    },
    {
      "midi": 55,
      "hit": false,
      "t": 19565.189999999988,
      "d": 623.1875333333337,
      "v": 71
    },
    {
      "midi": 52,
      "hit": false,
      "t": 19572.436366666665,
      "d": 637.6802666666699,
      "v": 112
    },
    {
      "midi": 52,
      "hit": false,
      "t": 19999.971999999987,
      "d": 601.4484333333348,
      "v": 71
    },
    {
      "midi": 55,
      "hit": false,
      "t": 20007.218366666668,
      "d": 898.5494666666673,
      "v": 112
    },
    {
      "midi": 55,
      "hit": false,
      "t": 20434.75399999999,
      "d": 434.78199999999924,
      "v": 71
    },
    {
      "midi": 60,
      "hit": false,
      "t": 20442.00036666667,
      "d": 427.53563333333295,
      "v": 112
    },
    {
      "midi": 43,
      "hit": false,
      "t": 20869.53599999999,
      "d": 608.6947999999975,
      "v": 71
    },
    {
      "midi": 62,
      "hit": false,
      "t": 20869.53599999999,
      "d": 1086.954999999998,
      "v": 71
    },
    {
      "midi": 43,
      "hit": false,
      "t": 20876.78236666667,
      "d": 659.4193666666652,
      "v": 112
    },
    {
      "midi": 62,
      "hit": false,
      "t": 20876.78236666667,
      "d": 1869.562600000001,
      "v": 112
    },
    {
      "midi": 65,
      "hit": false,
      "t": 20876.78236666667,
      "d": 1905.7944333333362,
      "v": 112
    },
    {
      "midi": 70,
      "hit": false,
      "t": 20891.275100000003,
      "d": 1173.9114000000009,
      "v": 112
    },
    {
      "midi": 50,
      "hit": false,
      "t": 21304.31799999999,
      "d": 579.7093333333323,
      "v": 66
    },
    {
      "midi": 50,
      "hit": false,
      "t": 21311.56436666667,
      "d": 565.2165999999997,
      "v": 112
    },
    {
      "midi": 55,
      "hit": false,
      "t": 21739.099999999988,
      "d": 362.3183333333327,
      "v": 67
    },
    {
      "midi": 46,
      "hit": false,
      "t": 21739.099999999988,
      "d": 623.1875333333337,
      "v": 71
    },
    {
      "midi": 58,
      "hit": false,
      "t": 21746.34636666667,
      "d": 1079.7086333333355,
      "v": 112
    },
    {
      "midi": 57,
      "hit": false,
      "t": 21956.490999999987,
      "d": 405.7965333333341,
      "v": 71
    },
    {
      "midi": 58,
      "hit": false,
      "t": 22173.881999999987,
      "d": 376.8110666666653,
      "v": 71
    },
    {
      "midi": 50,
      "hit": false,
      "t": 22173.881999999987,
      "d": 434.78199999999924,
      "v": 71
    },
    {
      "midi": 74,
      "hit": false,
      "t": 22181.12836666667,
      "d": 623.1875333333337,
      "v": 112
    },
    {
      "midi": 62,
      "hit": false,
      "t": 22391.272999999986,
      "d": 217.39099999999962,
      "v": 71
    },
    {
      "midi": 48,
      "hit": false,
      "t": 22608.663999999986,
      "d": 797.100333333332,
      "v": 70
    },
    {
      "midi": 64,
      "hit": false,
      "t": 22608.663999999986,
      "d": 1739.1280000000006,
      "v": 70
    },
    {
      "midi": 48,
      "hit": false,
      "t": 22615.91036666667,
      "d": 644.9266333333326,
      "v": 112
    },
    {
      "midi": 64,
      "hit": false,
      "t": 22615.91036666667,
      "d": 1717.388899999998,
      "v": 112
    },
    {
      "midi": 72,
      "hit": false,
      "t": 22630.403100000003,
      "d": 601.4484333333348,
      "v": 112
    },
    {
      "midi": 55,
      "hit": false,
      "t": 23043.445999999985,
      "d": 855.0712666666659,
      "v": 70
    },
    {
      "midi": 55,
      "hit": false,
      "t": 23050.69236666667,
      "d": 644.9266333333326,
      "v": 112
    },
    {
      "midi": 67,
      "hit": false,
      "t": 23050.69236666667,
      "d": 644.9266333333326,
      "v": 112
    },
    {
      "midi": 52,
      "hit": false,
      "t": 23478.227999999985,
      "d": 833.332166666667,
      "v": 70
    },
    {
      "midi": 69,
      "hit": false,
      "t": 23485.47436666667,
      "d": 586.9556999999986,
      "v": 112
    },
    {
      "midi": 58,
      "hit": false,
      "t": 23485.47436666667,
      "d": 985.5058666666664,
      "v": 112
    },
    {
      "midi": 55,
      "hit": false,
      "t": 23913.009999999984,
      "d": 434.7820000000029,
      "v": 70
    },
    {
      "midi": 70,
      "hit": false,
      "t": 23920.25636666667,
      "d": 427.53563333333295,
      "v": 112
    },
    {
      "midi": 57,
      "hit": false,
      "t": 24347.791999999987,
      "d": 891.303100000001,
      "v": 61
    },
    {
      "midi": 41,
      "hit": false,
      "t": 24347.791999999987,
      "d": 1739.1280000000006,
      "v": 26
    },
    {
      "midi": 69,
      "hit": false,
      "t": 24347.791999999987,
      "d": 1739.1280000000006,
      "v": 71
    },
    {
      "midi": 41,
      "hit": false,
      "t": 24355.038366666668,
      "d": 601.4484333333348,
      "v": 112
    },
    {
      "midi": 60,
      "hit": false,
      "t": 24355.038366666668,
      "d": 2304.344600000004,
      "v": 112
    },
    {
      "midi": 67,
      "hit": false,
      "t": 24355.038366666668,
      "d": 2420.286466666672,
      "v": 112
    },
    {
      "midi": 69,
      "hit": false,
      "t": 24398.51656666667,
      "d": 2384.054633333337,
      "v": 112
    },
    {
      "midi": 36,
      "hit": false,
      "t": 24782.573999999986,
      "d": 1304.3460000000014,
      "v": 58
    },
    {
      "midi": 48,
      "hit": false,
      "t": 24789.82036666667,
      "d": 623.1875333333337,
      "v": 112
    },
    {
      "midi": 57,
      "hit": false,
      "t": 25224.60236666667,
      "d": 586.9557000000023,
      "v": 112
    },
    {
      "midi": 57,
      "hit": false,
      "t": 25652.137999999988,
      "d": 434.78199999999924,
      "v": 55
    },
    {
      "midi": 48,
      "hit": false,
      "t": 25659.384366666673,
      "d": 623.1875333333337,
      "v": 112
    },
    {
      "midi": 53,
      "hit": false,
      "t": 26086.919999999987,
      "d": 869.5639999999985,
      "v": 67
    },
    {
      "midi": 65,
      "hit": false,
      "t": 26086.919999999987,
      "d": 869.5639999999985,
      "v": 72
    },
    {
      "midi": 70,
      "hit": false,
      "t": 26086.919999999987,
      "d": 869.5639999999985,
      "v": 72
    },
    {
      "midi": 58,
      "hit": false,
      "t": 26094.166366666672,
      "d": 985.50586666667,
      "v": 112
    },
    {
      "midi": 60,
      "hit": false,
      "t": 26521.701999999987,
      "d": 434.78199999999924,
      "v": 72
    },
    {
      "midi": 57,
      "hit": false,
      "t": 26956.483999999986,
      "d": 833.332166666667,
      "v": 45
    },
    {
      "midi": 60,
      "hit": false,
      "t": 26956.483999999986,
      "d": 833.332166666667,
      "v": 65
    },
    {
      "midi": 41,
      "hit": false,
      "t": 26956.483999999986,
      "d": 869.5640000000021,
      "v": 60
    },
    {
      "midi": 65,
      "hit": false,
      "t": 26956.483999999986,
      "d": 869.5640000000021,
      "v": 64
    },
    {
      "midi": 36,
      "hit": false,
      "t": 27391.265999999985,
      "d": 434.7820000000029,
      "v": 57
    },
    {
      "midi": 60,
      "hit": false,
      "t": 27398.512366666677,
      "d": 318.84013333333496,
      "v": 112
    },
    {
      "midi": 57,
      "hit": false,
      "t": 27826.047999999988,
      "d": 891.303100000001,
      "v": 61
    },
    {
      "midi": 41,
      "hit": false,
      "t": 27826.047999999988,
      "d": 1739.1280000000006,
      "v": 26
    },
    {
      "midi": 69,
      "hit": false,
      "t": 27826.047999999988,
      "d": 1739.1280000000006,
      "v": 71
    },
    {
      "midi": 41,
      "hit": false,
      "t": 27833.29436666668,
      "d": 659.4193666666688,
      "v": 112
    },
    {
      "midi": 60,
      "hit": false,
      "t": 27833.29436666668,
      "d": 1644.9252333333388,
      "v": 112
    },
    {
      "midi": 67,
      "hit": false,
      "t": 27833.29436666668,
      "d": 1681.157066666674,
      "v": 112
    },
    {
      "midi": 69,
      "hit": false,
      "t": 27876.77256666668,
      "d": 1079.7086333333355,
      "v": 112
    },
    {
      "midi": 36,
      "hit": false,
      "t": 28260.829999999987,
      "d": 1304.3460000000014,
      "v": 58
    },
    {
      "midi": 48,
      "hit": false,
      "t": 28268.076366666683,
      "d": 623.1875333333337,
      "v": 112
    },
    {
      "midi": 57,
      "hit": false,
      "t": 28702.858366666682,
      "d": 644.9266333333362,
      "v": 112
    },
    {
      "midi": 57,
      "hit": false,
      "t": 29130.39399999999,
      "d": 434.78199999999924,
      "v": 55
    },
    {
      "midi": 69,
      "hit": false,
      "t": 29137.640366666685,
      "d": 427.5356333333366,
      "v": 112
    },
    {
      "midi": 48,
      "hit": false,
      "t": 29137.640366666685,
      "d": 601.4484333333348,
      "v": 112
    },
    {
      "midi": 57,
      "hit": false,
      "t": 29565.17599999999,
      "d": 833.332166666667,
      "v": 45
    },
    {
      "midi": 60,
      "hit": false,
      "t": 29565.17599999999,
      "d": 833.332166666667,
      "v": 65
    },
    {
      "midi": 65,
      "hit": false,
      "t": 29565.17599999999,
      "d": 869.5640000000021,
      "v": 64
    },
    {
      "midi": 41,
      "hit": false,
      "t": 29565.17599999999,
      "d": 1739.1280000000006,
      "v": 60
    },
    {
      "midi": 65,
      "hit": false,
      "t": 29572.422366666688,
      "d": 644.9266333333326,
      "v": 112
    },
    {
      "midi": 70,
      "hit": false,
      "t": 29572.422366666688,
      "d": 717.3902999999991,
      "v": 112
    },
    {
      "midi": 60,
      "hit": false,
      "t": 29572.422366666688,
      "d": 1739.1280000000006,
      "v": 112
    },
    {
      "midi": 53,
      "hit": false,
      "t": 29572.422366666688,
      "d": 1855.0698666666685,
      "v": 112
    },
    {
      "midi": 36,
      "hit": false,
      "t": 29999.957999999988,
      "d": 1304.3460000000014,
      "v": 57
    },
    {
      "midi": 69,
      "hit": false,
      "t": 30007.204366666687,
      "d": 623.1875333333337,
      "v": 112
    },
    {
      "midi": 67,
      "hit": false,
      "t": 30441.986366666686,
      "d": 644.9266333333362,
      "v": 112
    },
    {
      "midi": 53,
      "hit": false,
      "t": 30869.52199999999,
      "d": 434.78199999999924,
      "v": 60
    },
    {
      "midi": 65,
      "hit": false,
      "t": 30876.76836666669,
      "d": 427.53563333333295,
      "v": 112
    },
    {
      "midi": 55,
      "hit": false,
      "t": 31304.30399999999,
      "d": 891.303100000001,
      "v": 61
    },
    {
      "midi": 36,
      "hit": false,
      "t": 31304.30399999999,
      "d": 1739.1280000000042,
      "v": 26
    },
    {
      "midi": 65,
      "hit": false,
      "t": 31304.30399999999,
      "d": 1739.1280000000042,
      "v": 71
    },
    {
      "midi": 65,
      "hit": false,
      "t": 31311.55036666669,
      "d": 623.1875333333373,
      "v": 112
    },
    {
      "midi": 48,
      "hit": false,
      "t": 31311.55036666669,
      "d": 1644.9252333333388,
      "v": 112
    },
    {
      "midi": 58,
      "hit": false,
      "t": 31311.55036666669,
      "d": 1666.6643333333377,
      "v": 112
    },
    {
      "midi": 62,
      "hit": false,
      "t": 31311.55036666669,
      "d": 1949.2726333333376,
      "v": 112
    },
    {
      "midi": 38,
      "hit": false,
      "t": 31739.08599999999,
      "d": 1304.346000000005,
      "v": 58
    },
    {
      "midi": 64,
      "hit": false,
      "t": 31746.33236666669,
      "d": 702.8975666666702,
      "v": 112
    },
    {
      "midi": 55,
      "hit": false,
      "t": 31746.33236666669,
      "d": 1188.404133333337,
      "v": 112
    },
    {
      "midi": 65,
      "hit": false,
      "t": 32181.114366666694,
      "d": 681.158466666664,
      "v": 112
    },
    {
      "midi": 55,
      "hit": false,
      "t": 32608.64999999999,
      "d": 434.7820000000029,
      "v": 55
    },
    {
      "midi": 67,
      "hit": false,
      "t": 32615.896366666693,
      "d": 644.9266333333326,
      "v": 112
    },
    {
      "midi": 55,
      "hit": false,
      "t": 33043.43199999999,
      "d": 833.332166666667,
      "v": 45
    },
    {
      "midi": 58,
      "hit": false,
      "t": 33043.43199999999,
      "d": 833.332166666667,
      "v": 65
    },
    {
      "midi": 64,
      "hit": false,
      "t": 33043.43199999999,
      "d": 869.5639999999985,
      "v": 64
    },
    {
      "midi": 36,
      "hit": false,
      "t": 33043.43199999999,
      "d": 1739.127999999997,
      "v": 60
    },
    {
      "midi": 58,
      "hit": false,
      "t": 33050.678366666696,
      "d": 427.53563333333295,
      "v": 112
    },
    {
      "midi": 48,
      "hit": false,
      "t": 33050.678366666696,
      "d": 644.9266333333362,
      "v": 112
    },
    {
      "midi": 60,
      "hit": false,
      "t": 33094.156566666694,
      "d": 1094.2013666666753,
      "v": 112
    },
    {
      "midi": 43,
      "hit": false,
      "t": 33478.21399999999,
      "d": 1304.3459999999977,
      "v": 57
    },
    {
      "midi": 52,
      "hit": false,
      "t": 33485.460366666695,
      "d": 601.4484333333385,
      "v": 112
    },
    {
      "midi": 48,
      "hit": false,
      "t": 33912.99599999999,
      "d": 869.5639999999985,
      "v": 60
    },
    {
      "midi": 55,
      "hit": false,
      "t": 33920.2423666667,
      "d": 869.5639999999985,
      "v": 112
    },
    {
      "midi": 52,
      "hit": false,
      "t": 34347.77799999999,
      "d": 434.78199999999924,
      "v": 60
    },
    {
      "midi": 60,
      "hit": false,
      "t": 34355.0243666667,
      "d": 427.53563333333295,
      "v": 112
    },
    {
      "midi": 43,
      "hit": false,
      "t": 34782.55999999999,
      "d": 797.1003333333356,
      "v": 70
    },
    {
      "midi": 58,
      "hit": false,
      "t": 34782.55999999999,
      "d": 1739.1280000000042,
      "v": 70
    },
    {
      "midi": 43,
      "hit": false,
      "t": 34789.8063666667,
      "d": 659.4193666666688,
      "v": 112
    },
    {
      "midi": 62,
      "hit": false,
      "t": 34789.8063666667,
      "d": 1717.3889000000054,
      "v": 112
    },
    {
      "midi": 65,
      "hit": false,
      "t": 34789.8063666667,
      "d": 1739.1280000000042,
      "v": 112
    },
    {
      "midi": 70,
      "hit": false,
      "t": 34804.29910000003,
      "d": 1137.679566666673,
      "v": 112
    },
    {
      "midi": 50,
      "hit": false,
      "t": 35217.34199999999,
      "d": 855.0712666666732,
      "v": 70
    },
    {
      "midi": 50,
      "hit": false,
      "t": 35224.5883666667,
      "d": 565.216600000007,
      "v": 112
    },
    {
      "midi": 46,
      "hit": false,
      "t": 35652.123999999996,
      "d": 833.332166666667,
      "v": 70
    },
    {
      "midi": 58,
      "hit": false,
      "t": 35659.370366666706,
      "d": 1021.7376999999979,
      "v": 112
    },
    {
      "midi": 50,
      "hit": false,
      "t": 36086.905999999995,
      "d": 434.78199999999924,
      "v": 70
    },
    {
      "midi": 70,
      "hit": false,
      "t": 36094.152366666705,
      "d": 427.53563333333295,
      "v": 112
    },
    {
      "midi": 48,
      "hit": false,
      "t": 36521.687999999995,
      "d": 608.6947999999975,
      "v": 71
    },
    {
      "midi": 67,
      "hit": false,
      "t": 36521.687999999995,
      "d": 1086.9550000000017,
      "v": 71
    },
    {
      "midi": 64,
      "hit": false,
      "t": 36528.934366666705,
      "d": 427.53563333333295,
      "v": 112
    },
    {
      "midi": 48,
      "hit": false,
      "t": 36528.934366666705,
      "d": 623.1875333333301,
      "v": 112
    },
    {
      "midi": 60,
      "hit": false,
      "t": 36528.934366666705,
      "d": 1666.6643333333268,
      "v": 112
    },
    {
      "midi": 69,
      "hit": false,
      "t": 36543.42710000004,
      "d": 644.9266333333289,
      "v": 112
    },
    {
      "midi": 55,
      "hit": false,
      "t": 36956.469999999994,
      "d": 579.7093333333323,
      "v": 66
    },
    {
      "midi": 67,
      "hit": false,
      "t": 36963.716366666704,
      "d": 565.2165999999997,
      "v": 112
    },
    {
      "midi": 55,
      "hit": false,
      "t": 36963.716366666704,
      "d": 586.9556999999986,
      "v": 112
    },
    {
      "midi": 60,
      "hit": false,
      "t": 37391.25199999999,
      "d": 362.31833333333634,
      "v": 67
    },
    {
      "midi": 52,
      "hit": false,
      "t": 37391.25199999999,
      "d": 623.1875333333373,
      "v": 71
    },
    {
      "midi": 58,
      "hit": false,
      "t": 37398.4983666667,
      "d": 1036.2304333333304,
      "v": 112
    },
    {
      "midi": 65,
      "hit": false,
      "t": 37412.991100000036,
      "d": 586.9556999999986,
      "v": 112
    },
    {
      "midi": 62,
      "hit": false,
      "t": 37608.643,
      "d": 405.7965333333341,
      "v": 71
    },
    {
      "midi": 64,
      "hit": false,
      "t": 37826.034,
      "d": 376.81106666666165,
      "v": 71
    },
    {
      "midi": 55,
      "hit": false,
      "t": 37826.034,
      "d": 434.78199999999197,
      "v": 71
    },
    {
      "midi": 64,
      "hit": false,
      "t": 37833.2803666667,
      "d": 586.9556999999986,
      "v": 112
    },
    {
      "midi": 67,
      "hit": false,
      "t": 38043.424999999996,
      "d": 217.39099999999598,
      "v": 71
    },
    {
      "midi": 57,
      "hit": false,
      "t": 38260.81599999999,
      "d": 891.3030999999974,
      "v": 61
    },
    {
      "midi": 41,
      "hit": false,
      "t": 38260.81599999999,
      "d": 1739.127999999997,
      "v": 26
    },
    {
      "midi": 69,
      "hit": false,
      "t": 38260.81599999999,
      "d": 1739.127999999997,
      "v": 71
    },
    {
      "midi": 41,
      "hit": false,
      "t": 38268.0623666667,
      "d": 681.1584666666677,
      "v": 112
    },
    {
      "midi": 60,
      "hit": false,
      "t": 38268.0623666667,
      "d": 1644.9252333333425,
      "v": 112
    },
    {
      "midi": 57,
      "hit": false,
      "t": 38268.0623666667,
      "d": 1905.7944333333435,
      "v": 112
    },
    {
      "midi": 65,
      "hit": false,
      "t": 38268.0623666667,
      "d": 1905.7944333333435,
      "v": 112
    },
    {
      "midi": 36,
      "hit": false,
      "t": 38695.59799999999,
      "d": 1304.3459999999977,
      "v": 58
    },
    {
      "midi": 48,
      "hit": false,
      "t": 38702.8443666667,
      "d": 659.4193666666688,
      "v": 112
    },
    {
      "midi": 53,
      "hit": false,
      "t": 39137.6263666667,
      "d": 565.216600000007,
      "v": 112
    },
    {
      "midi": 57,
      "hit": false,
      "t": 39565.16199999999,
      "d": 434.78199999999924,
      "v": 55
    },
    {
      "midi": 41,
      "hit": false,
      "t": 39572.40836666671,
      "d": 644.9266333333362,
      "v": 112
    },
    {
      "midi": 48,
      "hit": false,
      "t": 39999.94399999999,
      "d": 608.6947999999975,
      "v": 71
    },
    {
      "midi": 67,
      "hit": false,
      "t": 39999.94399999999,
      "d": 1086.9550000000017,
      "v": 71
    },
    {
      "midi": 60,
      "hit": false,
      "t": 40007.19036666671,
      "d": 471.0138333333307,
      "v": 112
    },
    {
      "midi": 48,
      "hit": false,
      "t": 40007.19036666671,
      "d": 1891.3016999999963,
      "v": 112
    },
    {
      "midi": 53,
      "hit": false,
      "t": 40043.422200000045,
      "d": 1833.330766666666,
      "v": 112
    },
    {
      "midi": 58,
      "hit": false,
      "t": 40043.422200000045,
      "d": 1869.5625999999975,
      "v": 112
    },
    {
      "midi": 62,
      "hit": false,
      "t": 40304.291400000046,
      "d": 471.0138333333307,
      "v": 112
    },
    {
      "midi": 55,
      "hit": false,
      "t": 40434.72599999999,
      "d": 579.7093333333323,
      "v": 66
    },
    {
      "midi": 64,
      "hit": false,
      "t": 40659.36336666671,
      "d": 471.01383333333797,
      "v": 112
    },
    {
      "midi": 62,
      "hit": false,
      "t": 40869.50799999999,
      "d": 362.31833333333634,
      "v": 67
    },
    {
      "midi": 53,
      "hit": false,
      "t": 40869.50799999999,
      "d": 623.1875333333373,
      "v": 71
    },
    {
      "midi": 65,
      "hit": false,
      "t": 40876.75436666671,
      "d": 601.4484333333312,
      "v": 112
    },
    {
      "midi": 65,
      "hit": false,
      "t": 41304.28999999999,
      "d": 376.81106666666165,
      "v": 71
    },
    {
      "midi": 55,
      "hit": false,
      "t": 41304.28999999999,
      "d": 434.78199999999197,
      "v": 71
    },
    {
      "midi": 67,
      "hit": false,
      "t": 41521.68099999999,
      "d": 217.39099999999598,
      "v": 71
    },
    {
      "midi": 57,
      "hit": false,
      "t": 41739.071999999986,
      "d": 833.332166666667,
      "v": 45
    },
    {
      "midi": 60,
      "hit": false,
      "t": 41739.071999999986,
      "d": 833.332166666667,
      "v": 65
    },
    {
      "midi": 67,
      "hit": false,
      "t": 41739.071999999986,
      "d": 869.5639999999985,
      "v": 64
    },
    {
      "midi": 41,
      "hit": false,
      "t": 41739.071999999986,
      "d": 1739.127999999997,
      "v": 60
    },
    {
      "midi": 60,
      "hit": false,
      "t": 41746.31836666671,
      "d": 21.73909999999887,
      "v": 112
    },
    {
      "midi": 41,
      "hit": false,
      "t": 41746.31836666671,
      "d": 826.0858000000007,
      "v": 112
    },
    {
      "midi": 67,
      "hit": false,
      "t": 41746.31836666671,
      "d": 1652.1716000000015,
      "v": 112
    },
    {
      "midi": 69,
      "hit": false,
      "t": 41789.79656666671,
      "d": 1086.9550000000017,
      "v": 112
    },
    {
      "midi": 36,
      "hit": false,
      "t": 42173.853999999985,
      "d": 1304.3459999999977,
      "v": 57
    },
    {
      "midi": 48,
      "hit": false,
      "t": 42181.10036666671,
      "d": 688.404833333334,
      "v": 112
    },
    {
      "midi": 57,
      "hit": false,
      "t": 42615.88236666671,
      "d": 659.4193666666688,
      "v": 112
    },
    {
      "midi": 53,
      "hit": false,
      "t": 43043.41799999998,
      "d": 434.78199999999924,
      "v": 60
    },
    {
      "midi": 69,
      "hit": false,
      "t": 43050.66436666671,
      "d": 427.53563333334023,
      "v": 112
    },
    {
      "midi": 48,
      "hit": false,
      "t": 43050.66436666671,
      "d": 659.4193666666761,
      "v": 112
    },
    {
      "midi": 57,
      "hit": false,
      "t": 43478.19999999998,
      "d": 833.332166666667,
      "v": 45
    },
    {
      "midi": 60,
      "hit": false,
      "t": 43478.19999999998,
      "d": 833.332166666667,
      "v": 65
    },
    {
      "midi": 65,
      "hit": false,
      "t": 43478.19999999998,
      "d": 869.5639999999985,
      "v": 64
    },
    {
      "midi": 41,
      "hit": false,
      "t": 43478.19999999998,
      "d": 1739.127999999997,
      "v": 60
    },
    {
      "midi": 65,
      "hit": false,
      "t": 43485.446366666714,
      "d": 565.216600000007,
      "v": 112
    },
    {
      "midi": 60,
      "hit": false,
      "t": 43485.446366666714,
      "d": 1855.0698666666722,
      "v": 112
    },
    {
      "midi": 53,
      "hit": false,
      "t": 43485.446366666714,
      "d": 1891.3017000000036,
      "v": 112
    },
    {
      "midi": 70,
      "hit": false,
      "t": 43499.93910000005,
      "d": 710.1439333333401,
      "v": 112
    },
    {
      "midi": 36,
      "hit": false,
      "t": 43912.98199999998,
      "d": 1304.3459999999977,
      "v": 57
    },
    {
      "midi": 69,
      "hit": false,
      "t": 43920.22836666672,
      "d": 594.2020666666649,
      "v": 112
    },
    {
      "midi": 67,
      "hit": false,
      "t": 44355.01036666672,
      "d": 615.9411666666638,
      "v": 112
    },
    {
      "midi": 53,
      "hit": false,
      "t": 44782.54599999998,
      "d": 434.78199999999924,
      "v": 60
    },
    {
      "midi": 65,
      "hit": false,
      "t": 44789.79236666672,
      "d": 427.53563333333295,
      "v": 112
    },
    {
      "midi": 36,
      "hit": false,
      "t": 45217.32799999998,
      "d": 608.6947999999975,
      "v": 71
    },
    {
      "midi": 62,
      "hit": false,
      "t": 45217.32799999998,
      "d": 1086.9550000000017,
      "v": 71
    },
    {
      "midi": 48,
      "hit": false,
      "t": 45224.57436666672,
      "d": 1586.9542999999976,
      "v": 112
    },
    {
      "midi": 58,
      "hit": false,
      "t": 45224.57436666672,
      "d": 1630.4324999999953,
      "v": 112
    },
    {
      "midi": 62,
      "hit": false,
      "t": 45224.57436666672,
      "d": 1963.7653666666592,
      "v": 112
    },
    {
      "midi": 65,
      "hit": false,
      "t": 45239.06710000005,
      "d": 615.9411666666638,
      "v": 112
    },
    {
      "midi": 50,
      "hit": false,
      "t": 45652.10999999998,
      "d": 579.7093333333323,
      "v": 66
    },
    {
      "midi": 64,
      "hit": false,
      "t": 45659.35636666672,
      "d": 637.6802666666626,
      "v": 112
    },
    {
      "midi": 55,
      "hit": false,
      "t": 45659.35636666672,
      "d": 1159.4186666666646,
      "v": 112
    },
    {
      "midi": 55,
      "hit": false,
      "t": 46086.89199999998,
      "d": 362.31833333333634,
      "v": 67
    },
    {
      "midi": 46,
      "hit": false,
      "t": 46086.89199999998,
      "d": 623.1875333333373,
      "v": 71
    },
    {
      "midi": 65,
      "hit": false,
      "t": 46094.13836666672,
      "d": 615.9411666666638,
      "v": 112
    },
    {
      "midi": 57,
      "hit": false,
      "t": 46304.28299999998,
      "d": 405.7965333333341,
      "v": 71
    },
    {
      "midi": 58,
      "hit": false,
      "t": 46521.673999999985,
      "d": 376.81106666666165,
      "v": 71
    },
    {
      "midi": 50,
      "hit": false,
      "t": 46521.673999999985,
      "d": 434.78199999999197,
      "v": 71
    },
    {
      "midi": 67,
      "hit": false,
      "t": 46528.920366666716,
      "d": 637.6802666666626,
      "v": 112
    },
    {
      "midi": 62,
      "hit": false,
      "t": 46739.06499999998,
      "d": 217.39099999999598,
      "v": 71
    },
    {
      "midi": 55,
      "hit": false,
      "t": 46956.45599999998,
      "d": 833.332166666667,
      "v": 45
    },
    {
      "midi": 58,
      "hit": false,
      "t": 46956.45599999998,
      "d": 833.332166666667,
      "v": 65
    },
    {
      "midi": 64,
      "hit": false,
      "t": 46956.45599999998,
      "d": 869.5639999999985,
      "v": 64
    },
    {
      "midi": 36,
      "hit": false,
      "t": 46956.45599999998,
      "d": 1739.127999999997,
      "v": 60
    },
    {
      "midi": 48,
      "hit": false,
      "t": 46963.702366666716,
      "d": 615.9411666666638,
      "v": 112
    },
    {
      "midi": 58,
      "hit": false,
      "t": 46963.702366666716,
      "d": 1702.8961666666582,
      "v": 112
    },
    {
      "midi": 60,
      "hit": false,
      "t": 47007.18056666671,
      "d": 1065.2158999999956,
      "v": 112
    },
    {
      "midi": 43,
      "hit": false,
      "t": 47391.237999999976,
      "d": 1304.3459999999977,
      "v": 57
    },
    {
      "midi": 52,
      "hit": false,
      "t": 47398.484366666715,
      "d": 637.6802666666626,
      "v": 112
    },
    {
      "midi": 48,
      "hit": false,
      "t": 47826.019999999975,
      "d": 869.5639999999985,
      "v": 60
    },
    {
      "midi": 55,
      "hit": false,
      "t": 47833.266366666714,
      "d": 898.5494666666564,
      "v": 112
    },
    {
      "midi": 52,
      "hit": false,
      "t": 48260.801999999974,
      "d": 434.78199999999924,
      "v": 60
    },
    {
      "midi": 60,
      "hit": false,
      "t": 48268.048366666706,
      "d": 427.53563333333295,
      "v": 112
    },
    {
      "midi": 43,
      "hit": false,
      "t": 48695.58399999997,
      "d": 652.1730000000025,
      "v": 68
    },
    {
      "midi": 53,
      "hit": false,
      "t": 48695.58399999997,
      "d": 1739.1280000000042,
      "v": 71
    },
    {
      "midi": 58,
      "hit": false,
      "t": 48695.58399999997,
      "d": 1739.1280000000042,
      "v": 71
    },
    {
      "midi": 43,
      "hit": false,
      "t": 48702.830366666705,
      "d": 659.4193666666688,
      "v": 112
    },
    {
      "midi": 62,
      "hit": false,
      "t": 48702.830366666705,
      "d": 1869.5626000000047,
      "v": 112
    },
    {
      "midi": 65,
      "hit": false,
      "t": 48702.830366666705,
      "d": 1905.7944333333362,
      "v": 112
    },
    {
      "midi": 70,
      "hit": false,
      "t": 48717.32310000004,
      "d": 1173.9114000000045,
      "v": 112
    },
    {
      "midi": 50,
      "hit": false,
      "t": 49130.36599999997,
      "d": 623.1875333333373,
      "v": 71
    },
    {
      "midi": 50,
      "hit": false,
      "t": 49137.612366666704,
      "d": 565.216600000007,
      "v": 112
    },
    {
      "midi": 46,
      "hit": false,
      "t": 49565.14799999998,
      "d": 601.4484333333312,
      "v": 71
    },
    {
      "midi": 58,
      "hit": false,
      "t": 49572.39436666671,
      "d": 1079.7086333333282,
      "v": 112
    },
    {
      "midi": 50,
      "hit": false,
      "t": 49999.92999999998,
      "d": 434.78199999999924,
      "v": 71
    },
    {
      "midi": 74,
      "hit": false,
      "t": 50007.17636666671,
      "d": 623.1875333333301,
      "v": 112
    },
    {
      "midi": 48,
      "hit": false,
      "t": 50434.71199999998,
      "d": 652.1730000000025,
      "v": 68
    },
    {
      "midi": 58,
      "hit": false,
      "t": 50434.71199999998,
      "d": 1739.1280000000042,
      "v": 71
    },
    {
      "midi": 64,
      "hit": false,
      "t": 50434.71199999998,
      "d": 1739.1280000000042,
      "v": 71
    },
    {
      "midi": 48,
      "hit": false,
      "t": 50441.95836666671,
      "d": 644.9266333333289,
      "v": 112
    },
    {
      "midi": 64,
      "hit": false,
      "t": 50441.95836666671,
      "d": 1717.3889000000054,
      "v": 112
    },
    {
      "midi": 72,
      "hit": false,
      "t": 50456.45110000004,
      "d": 601.4484333333312,
      "v": 112
    },
    {
      "midi": 55,
      "hit": false,
      "t": 50869.49399999998,
      "d": 623.1875333333373,
      "v": 71
    },
    {
      "midi": 55,
      "hit": false,
      "t": 50876.74036666671,
      "d": 644.9266333333362,
      "v": 112
    },
    {
      "midi": 67,
      "hit": false,
      "t": 50876.74036666671,
      "d": 644.9266333333362,
      "v": 112
    },
    {
      "midi": 52,
      "hit": false,
      "t": 51304.27599999998,
      "d": 601.4484333333312,
      "v": 71
    },
    {
      "midi": 69,
      "hit": false,
      "t": 51311.52236666671,
      "d": 586.9557000000059,
      "v": 112
    },
    {
      "midi": 58,
      "hit": false,
      "t": 51311.52236666671,
      "d": 985.5058666666737,
      "v": 112
    },
    {
      "midi": 55,
      "hit": false,
      "t": 51739.05799999998,
      "d": 434.78199999999924,
      "v": 71
    },
    {
      "midi": 70,
      "hit": false,
      "t": 51746.304366666714,
      "d": 427.53563333333295,
      "v": 112
    },
    {
      "midi": 53,
      "hit": false,
      "t": 52173.83999999998,
      "d": 652.1730000000025,
      "v": 68
    },
    {
      "midi": 67,
      "hit": false,
      "t": 52173.83999999998,
      "d": 1739.1280000000042,
      "v": 71
    },
    {
      "midi": 69,
      "hit": false,
      "t": 52173.83999999998,
      "d": 1739.1280000000042,
      "v": 71
    },
    {
      "midi": 41,
      "hit": false,
      "t": 52181.086366666714,
      "d": 601.4484333333312,
      "v": 112
    },
    {
      "midi": 60,
      "hit": false,
      "t": 52181.086366666714,
      "d": 2304.3445999999967,
      "v": 112
    },
    {
      "midi": 67,
      "hit": false,
      "t": 52181.086366666714,
      "d": 2420.2864666666646,
      "v": 112
    },
    {
      "midi": 69,
      "hit": false,
      "t": 52224.56456666671,
      "d": 2384.054633333333,
      "v": 112
    },
    {
      "midi": 60,
      "hit": false,
      "t": 52608.62199999998,
      "d": 623.1875333333373,
      "v": 71
    },
    {
      "midi": 48,
      "hit": false,
      "t": 52615.86836666671,
      "d": 623.1875333333301,
      "v": 112
    },
    {
      "midi": 57,
      "hit": false,
      "t": 53043.40399999999,
      "d": 601.4484333333312,
      "v": 71
    },
    {
      "midi": 57,
      "hit": false,
      "t": 53050.65036666671,
      "d": 586.9556999999986,
      "v": 112
    },
    {
      "midi": 60,
      "hit": false,
      "t": 53478.18599999999,
      "d": 434.78199999999924,
      "v": 71
    },
    {
      "midi": 48,
      "hit": false,
      "t": 53485.43236666671,
      "d": 623.1875333333301,
      "v": 112
    },
    {
      "midi": 58,
      "hit": false,
      "t": 53912.967999999986,
      "d": 833.332166666667,
      "v": 45
    },
    {
      "midi": 60,
      "hit": false,
      "t": 53912.967999999986,
      "d": 833.332166666667,
      "v": 65
    },
    {
      "midi": 41,
      "hit": false,
      "t": 53912.967999999986,
      "d": 869.5639999999985,
      "v": 60
    },
    {
      "midi": 65,
      "hit": false,
      "t": 53912.967999999986,
      "d": 869.5639999999985,
      "v": 64
    },
    {
      "midi": 58,
      "hit": false,
      "t": 53920.21436666671,
      "d": 985.5058666666664,
      "v": 112
    },
    {
      "midi": 36,
      "hit": false,
      "t": 54347.749999999985,
      "d": 434.78199999999924,
      "v": 57
    },
    {
      "midi": 57,
      "hit": false,
      "t": 54782.531999999985,
      "d": 833.332166666667,
      "v": 45
    },
    {
      "midi": 60,
      "hit": false,
      "t": 54782.531999999985,
      "d": 833.332166666667,
      "v": 65
    },
    {
      "midi": 41,
      "hit": false,
      "t": 54782.531999999985,
      "d": 869.5639999999985,
      "v": 60
    },
    {
      "midi": 65,
      "hit": false,
      "t": 54782.531999999985,
      "d": 869.5639999999985,
      "v": 64
    },
    {
      "midi": 36,
      "hit": false,
      "t": 55217.313999999984,
      "d": 434.78199999999924,
      "v": 57
    },
    {
      "midi": 60,
      "hit": false,
      "t": 55224.56036666671,
      "d": 318.8401333333313,
      "v": 112
    },
    {
      "midi": 57,
      "hit": false,
      "t": 55652.09599999998,
      "d": 833.332166666667,
      "v": 45
    },
    {
      "midi": 60,
      "hit": false,
      "t": 55652.09599999998,
      "d": 833.332166666667,
      "v": 65
    },
    {
      "midi": 67,
      "hit": false,
      "t": 55652.09599999998,
      "d": 869.5639999999985,
      "v": 64
    },
    {
      "midi": 41,
      "hit": false,
      "t": 55652.09599999998,
      "d": 1739.127999999997,
      "v": 60
    },
    {
      "midi": 41,
      "hit": false,
      "t": 55659.34236666671,
      "d": 659.4193666666688,
      "v": 112
    },
    {
      "midi": 60,
      "hit": false,
      "t": 55659.34236666671,
      "d": 1644.9252333333352,
      "v": 112
    },
    {
      "midi": 67,
      "hit": false,
      "t": 55659.34236666671,
      "d": 1681.1570666666667,
      "v": 112
    },
    {
      "midi": 69,
      "hit": false,
      "t": 55702.820566666705,
      "d": 1079.7086333333355,
      "v": 112
    },
    {
      "midi": 36,
      "hit": false,
      "t": 56086.87799999998,
      "d": 1304.3459999999977,
      "v": 57
    },
    {
      "midi": 48,
      "hit": false,
      "t": 56094.12436666671,
      "d": 623.1875333333373,
      "v": 112
    },
    {
      "midi": 57,
      "hit": false,
      "t": 56528.90636666671,
      "d": 644.9266333333289,
      "v": 112
    },
    {
      "midi": 53,
      "hit": false,
      "t": 56956.44199999998,
      "d": 434.78199999999924,
      "v": 60
    },
    {
      "midi": 69,
      "hit": false,
      "t": 56963.688366666705,
      "d": 427.53563333333295,
      "v": 112
    },
    {
      "midi": 48,
      "hit": false,
      "t": 56963.688366666705,
      "d": 601.4484333333312,
      "v": 112
    },
    {
      "midi": 53,
      "hit": false,
      "t": 57391.22399999998,
      "d": 797.1003333333356,
      "v": 70
    },
    {
      "midi": 69,
      "hit": false,
      "t": 57391.22399999998,
      "d": 1739.1280000000042,
      "v": 70
    },
    {
      "midi": 65,
      "hit": false,
      "t": 57398.470366666705,
      "d": 644.9266333333362,
      "v": 112
    },
    {
      "midi": 70,
      "hit": false,
      "t": 57398.470366666705,
      "d": 717.3903000000064,
      "v": 112
    },
    {
      "midi": 60,
      "hit": false,
      "t": 57398.470366666705,
      "d": 1739.1280000000115,
      "v": 112
    },
    {
      "midi": 53,
      "hit": false,
      "t": 57398.470366666705,
      "d": 1855.0698666666794,
      "v": 112
    },
    {
      "midi": 60,
      "hit": false,
      "t": 57826.00599999998,
      "d": 855.0712666666732,
      "v": 70
    },
    {
      "midi": 69,
      "hit": false,
      "t": 57833.252366666704,
      "d": 623.1875333333373,
      "v": 112
    },
    {
      "midi": 57,
      "hit": false,
      "t": 58260.787999999986,
      "d": 833.332166666667,
      "v": 70
    },
    {
      "midi": 67,
      "hit": false,
      "t": 58268.03436666671,
      "d": 644.9266333333362,
      "v": 112
    },
    {
      "midi": 60,
      "hit": false,
      "t": 58695.569999999985,
      "d": 434.78199999999924,
      "v": 70
    },
    {
      "midi": 65,
      "hit": false,
      "t": 58702.81636666671,
      "d": 427.53563333334023,
      "v": 112
    },
    {
      "midi": 36,
      "hit": false,
      "t": 59130.351999999984,
      "d": 652.1730000000025,
      "v": 68
    },
    {
      "midi": 53,
      "hit": false,
      "t": 59130.351999999984,
      "d": 1739.1280000000042,
      "v": 71
    },
    {
      "midi": 58,
      "hit": false,
      "t": 59130.351999999984,
      "d": 1739.1280000000042,
      "v": 71
    },
    {
      "midi": 65,
      "hit": false,
      "t": 59137.598366666716,
      "d": 623.1875333333301,
      "v": 112
    },
    {
      "midi": 48,
      "hit": false,
      "t": 59137.598366666716,
      "d": 1644.9252333333352,
      "v": 112
    },
    {
      "midi": 58,
      "hit": false,
      "t": 59137.598366666716,
      "d": 1666.664333333334,
      "v": 112
    },
    {
      "midi": 62,
      "hit": false,
      "t": 59137.598366666716,
      "d": 1949.272633333334,
      "v": 112
    },
    {
      "midi": 50,
      "hit": false,
      "t": 59565.133999999984,
      "d": 623.1875333333373,
      "v": 71
    },
    {
      "midi": 64,
      "hit": false,
      "t": 59572.380366666715,
      "d": 702.8975666666665,
      "v": 112
    },
    {
      "midi": 55,
      "hit": false,
      "t": 59572.380366666715,
      "d": 1188.404133333337,
      "v": 112
    },
    {
      "midi": 46,
      "hit": false,
      "t": 59999.91599999999,
      "d": 601.4484333333312,
      "v": 71
    },
    {
      "midi": 65,
      "hit": false,
      "t": 60007.162366666715,
      "d": 681.1584666666677,
      "v": 112
    },
    {
      "midi": 50,
      "hit": false,
      "t": 60434.69799999999,
      "d": 434.78199999999924,
      "v": 71
    },
    {
      "midi": 67,
      "hit": false,
      "t": 60441.944366666714,
      "d": 644.9266333333362,
      "v": 112
    },
    {
      "midi": 55,
      "hit": false,
      "t": 60869.47999999999,
      "d": 833.332166666667,
      "v": 45
    },
    {
      "midi": 58,
      "hit": false,
      "t": 60869.47999999999,
      "d": 833.332166666667,
      "v": 65
    },
    {
      "midi": 64,
      "hit": false,
      "t": 60869.47999999999,
      "d": 869.5639999999985,
      "v": 64
    },
    {
      "midi": 36,
      "hit": false,
      "t": 60869.47999999999,
      "d": 1739.127999999997,
      "v": 60
    },
    {
      "midi": 58,
      "hit": false,
      "t": 60876.72636666672,
      "d": 427.53563333333295,
      "v": 112
    },
    {
      "midi": 48,
      "hit": false,
      "t": 60876.72636666672,
      "d": 644.9266333333362,
      "v": 112
    },
    {
      "midi": 60,
      "hit": false,
      "t": 60920.20456666672,
      "d": 1094.2013666666753,
      "v": 112
    },
    {
      "midi": 43,
      "hit": false,
      "t": 61304.26199999999,
      "d": 1304.3459999999977,
      "v": 57
    },
    {
      "midi": 52,
      "hit": false,
      "t": 61311.50836666672,
      "d": 601.4484333333385,
      "v": 112
    },
    {
      "midi": 48,
      "hit": false,
      "t": 61739.04399999999,
      "d": 869.5639999999985,
      "v": 60
    },
    {
      "midi": 55,
      "hit": false,
      "t": 61746.290366666726,
      "d": 869.5639999999985,
      "v": 112
    },
    {
      "midi": 52,
      "hit": false,
      "t": 62173.82599999999,
      "d": 434.78199999999924,
      "v": 60
    },
    {
      "midi": 60,
      "hit": false,
      "t": 62181.072366666725,
      "d": 427.53563333333295,
      "v": 112
    },
    {
      "midi": 43,
      "hit": false,
      "t": 62608.607999999986,
      "d": 608.6947999999975,
      "v": 71
    },
    {
      "midi": 62,
      "hit": false,
      "t": 62608.607999999986,
      "d": 1086.9550000000017,
      "v": 71
    },
    {
      "midi": 43,
      "hit": false,
      "t": 62615.854366666725,
      "d": 659.4193666666688,
      "v": 112
    },
    {
      "midi": 62,
      "hit": false,
      "t": 62615.854366666725,
      "d": 1717.3889000000054,
      "v": 112
    },
    {
      "midi": 65,
      "hit": false,
      "t": 62615.854366666725,
      "d": 1739.1280000000042,
      "v": 112
    },
    {
      "midi": 70,
      "hit": false,
      "t": 62630.34710000006,
      "d": 1137.679566666673,
      "v": 112
    },
    {
      "midi": 50,
      "hit": false,
      "t": 63043.389999999985,
      "d": 579.7093333333323,
      "v": 66
    },
    {
      "midi": 50,
      "hit": false,
      "t": 63050.636366666724,
      "d": 565.216600000007,
      "v": 112
    },
    {
      "midi": 55,
      "hit": false,
      "t": 63478.171999999984,
      "d": 362.31833333333634,
      "v": 67
    },
    {
      "midi": 46,
      "hit": false,
      "t": 63478.171999999984,
      "d": 623.1875333333373,
      "v": 71
    },
    {
      "midi": 58,
      "hit": false,
      "t": 63485.41836666673,
      "d": 1021.7376999999979,
      "v": 112
    },
    {
      "midi": 57,
      "hit": false,
      "t": 63695.56299999999,
      "d": 405.7965333333341,
      "v": 71
    },
    {
      "midi": 58,
      "hit": false,
      "t": 63912.95399999999,
      "d": 376.81106666666165,
      "v": 71
    },
    {
      "midi": 50,
      "hit": false,
      "t": 63912.95399999999,
      "d": 434.78199999999197,
      "v": 71
    },
    {
      "midi": 70,
      "hit": false,
      "t": 63920.20036666673,
      "d": 427.53563333333295,
      "v": 112
    },
    {
      "midi": 62,
      "hit": false,
      "t": 64130.34499999999,
      "d": 217.39099999999598,
      "v": 71
    },
    {
      "midi": 55,
      "hit": false,
      "t": 64347.73599999998,
      "d": 833.332166666667,
      "v": 45
    },
    {
      "midi": 58,
      "hit": false,
      "t": 64347.73599999998,
      "d": 833.332166666667,
      "v": 65
    },
    {
      "midi": 64,
      "hit": false,
      "t": 64347.73599999998,
      "d": 869.5639999999985,
      "v": 64
    },
    {
      "midi": 36,
      "hit": false,
      "t": 64347.73599999998,
      "d": 1739.1280000000042,
      "v": 60
    },
    {
      "midi": 64,
      "hit": false,
      "t": 64354.98236666673,
      "d": 427.53563333333295,
      "v": 112
    },
    {
      "midi": 48,
      "hit": false,
      "t": 64354.98236666673,
      "d": 623.1875333333301,
      "v": 112
    },
    {
      "midi": 60,
      "hit": false,
      "t": 64354.98236666673,
      "d": 1666.6643333333268,
      "v": 112
    },
    {
      "midi": 69,
      "hit": false,
      "t": 64369.47510000006,
      "d": 644.9266333333289,
      "v": 112
    },
    {
      "midi": 43,
      "hit": false,
      "t": 64782.51799999998,
      "d": 1304.346000000005,
      "v": 57
    },
    {
      "midi": 67,
      "hit": false,
      "t": 64789.76436666673,
      "d": 565.2165999999997,
      "v": 112
    },
    {
      "midi": 55,
      "hit": false,
      "t": 64789.76436666673,
      "d": 586.9556999999986,
      "v": 112
    },
    {
      "midi": 48,
      "hit": false,
      "t": 65217.29999999998,
      "d": 869.5640000000058,
      "v": 60
    },
    {
      "midi": 58,
      "hit": false,
      "t": 65224.54636666673,
      "d": 1036.2304333333377,
      "v": 112
    },
    {
      "midi": 65,
      "hit": false,
      "t": 65239.03910000006,
      "d": 586.9556999999986,
      "v": 112
    },
    {
      "midi": 52,
      "hit": false,
      "t": 65652.08199999998,
      "d": 434.7820000000065,
      "v": 60
    },
    {
      "midi": 64,
      "hit": false,
      "t": 65659.32836666673,
      "d": 427.53563333333295,
      "v": 112
    },
    {
      "midi": 53,
      "hit": false,
      "t": 66086.86399999999,
      "d": 797.1003333333356,
      "v": 70
    },
    {
      "midi": 69,
      "hit": false,
      "t": 66086.86399999999,
      "d": 1739.1280000000115,
      "v": 70
    },
    {
      "midi": 41,
      "hit": false,
      "t": 66094.11036666673,
      "d": 702.897566666652,
      "v": 112
    },
    {
      "midi": 60,
      "hit": false,
      "t": 66094.11036666673,
      "d": 1891.3016999999963,
      "v": 112
    },
    {
      "midi": 57,
      "hit": false,
      "t": 66094.11036666673,
      "d": 1927.533533333335,
      "v": 112
    },
    {
      "midi": 65,
      "hit": false,
      "t": 66094.11036666673,
      "d": 2304.3445999999967,
      "v": 112
    },
    {
      "midi": 60,
      "hit": false,
      "t": 66521.646,
      "d": 855.0712666666659,
      "v": 70
    },
    {
      "midi": 48,
      "hit": false,
      "t": 66528.89236666673,
      "d": 623.1875333333301,
      "v": 112
    },
    {
      "midi": 57,
      "hit": false,
      "t": 66956.42799999999,
      "d": 833.3321666666743,
      "v": 70
    },
    {
      "midi": 53,
      "hit": false,
      "t": 66963.67436666672,
      "d": 586.9557000000059,
      "v": 112
    },
    {
      "midi": 60,
      "hit": false,
      "t": 67391.20999999999,
      "d": 434.7820000000065,
      "v": 70
    },
    {
      "midi": 41,
      "hit": false,
      "t": 67398.45636666672,
      "d": 681.1584666666749,
      "v": 112
    },
    {
      "midi": 48,
      "hit": false,
      "t": 67825.992,
      "d": 869.564000000013,
      "v": 67
    },
    {
      "midi": 58,
      "hit": false,
      "t": 67825.992,
      "d": 869.564000000013,
      "v": 72
    },
    {
      "midi": 63,
      "hit": false,
      "t": 67825.992,
      "d": 869.564000000013,
      "v": 72
    },
    {
      "midi": 63,
      "hit": false,
      "t": 67833.23836666673,
      "d": 855.0712666666659,
      "v": 112
    },
    {
      "midi": 55,
      "hit": false,
      "t": 67833.23836666673,
      "d": 999.9985999999917,
      "v": 112
    },
    {
      "midi": 58,
      "hit": false,
      "t": 67833.23836666673,
      "d": 1036.2304333333304,
      "v": 112
    },
    {
      "midi": 48,
      "hit": false,
      "t": 67833.23836666673,
      "d": 1079.7086333333282,
      "v": 112
    },
    {
      "midi": 55,
      "hit": false,
      "t": 68260.774,
      "d": 434.7820000000065,
      "v": 72
    },
    {
      "midi": 53,
      "hit": false,
      "t": 68695.55600000001,
      "d": 869.564000000013,
      "v": 67
    },
    {
      "midi": 63,
      "hit": false,
      "t": 68695.55600000001,
      "d": 869.564000000013,
      "v": 72
    },
    {
      "midi": 69,
      "hit": false,
      "t": 68695.55600000001,
      "d": 869.564000000013,
      "v": 72
    },
    {
      "midi": 63,
      "hit": false,
      "t": 68702.80236666673,
      "d": 833.3321666666598,
      "v": 112
    },
    {
      "midi": 57,
      "hit": false,
      "t": 68702.80236666673,
      "d": 847.8248999999923,
      "v": 112
    },
    {
      "midi": 60,
      "hit": false,
      "t": 68702.80236666673,
      "d": 847.8248999999923,
      "v": 112
    },
    {
      "midi": 41,
      "hit": false,
      "t": 68702.80236666673,
      "d": 1094.2013666666608,
      "v": 112
    },
    {
      "midi": 60,
      "hit": false,
      "t": 69130.33800000002,
      "d": 434.7820000000065,
      "v": 72
    },
    {
      "midi": 65,
      "hit": false,
      "t": 69137.58436666672,
      "d": 427.53563333333295,
      "v": 112
    },
    {
      "midi": 53,
      "hit": false,
      "t": 69565.12000000002,
      "d": 891.3031000000192,
      "v": 61
    },
    {
      "midi": 34,
      "hit": false,
      "t": 69565.12000000002,
      "d": 1739.128000000026,
      "v": 26
    },
    {
      "midi": 65,
      "hit": false,
      "t": 69565.12000000002,
      "d": 1739.128000000026,
      "v": 71
    },
    {
      "midi": 46,
      "hit": false,
      "t": 69572.36636666673,
      "d": 623.1875333333301,
      "v": 112
    },
    {
      "midi": 65,
      "hit": false,
      "t": 69572.36636666673,
      "d": 1188.4041333333298,
      "v": 112
    },
    {
      "midi": 70,
      "hit": false,
      "t": 69572.36636666673,
      "d": 1188.4041333333298,
      "v": 112
    },
    {
      "midi": 74,
      "hit": false,
      "t": 69586.85910000006,
      "d": 1188.4041333333298,
      "v": 112
    },
    {
      "midi": 41,
      "hit": false,
      "t": 69999.90200000003,
      "d": 1304.3460000000196,
      "v": 58
    },
    {
      "midi": 53,
      "hit": false,
      "t": 70007.14836666672,
      "d": 644.9266333333362,
      "v": 112
    },
    {
      "midi": 46,
      "hit": false,
      "t": 70434.68400000004,
      "d": 869.564000000013,
      "v": 54
    },
    {
      "midi": 58,
      "hit": false,
      "t": 70441.93036666673,
      "d": 659.4193666666542,
      "v": 112
    },
    {
      "midi": 53,
      "hit": false,
      "t": 70869.46600000004,
      "d": 434.7820000000065,
      "v": 55
    },
    {
      "midi": 62,
      "hit": false,
      "t": 70876.71236666672,
      "d": 623.1875333333301,
      "v": 112
    },
    {
      "midi": 65,
      "hit": false,
      "t": 70876.71236666672,
      "d": 623.1875333333301,
      "v": 112
    },
    {
      "midi": 55,
      "hit": false,
      "t": 71304.24800000005,
      "d": 833.3321666666743,
      "v": 45
    },
    {
      "midi": 60,
      "hit": false,
      "t": 71304.24800000005,
      "d": 833.3321666666743,
      "v": 65
    },
    {
      "midi": 64,
      "hit": false,
      "t": 71304.24800000005,
      "d": 869.564000000013,
      "v": 64
    },
    {
      "midi": 34,
      "hit": false,
      "t": 71304.24800000005,
      "d": 1739.128000000026,
      "v": 60
    },
    {
      "midi": 64,
      "hit": false,
      "t": 71311.49436666671,
      "d": 586.9557000000059,
      "v": 112
    },
    {
      "midi": 50,
      "hit": false,
      "t": 71311.49436666671,
      "d": 644.9266333333362,
      "v": 112
    },
    {
      "midi": 43,
      "hit": false,
      "t": 71739.03000000006,
      "d": 1304.3460000000196,
      "v": 57
    },
    {
      "midi": 65,
      "hit": false,
      "t": 71746.27636666672,
      "d": 601.4484333333239,
      "v": 112
    },
    {
      "midi": 52,
      "hit": false,
      "t": 71746.27636666672,
      "d": 644.9266333333217,
      "v": 112
    },
    {
      "midi": 46,
      "hit": false,
      "t": 72173.81200000006,
      "d": 869.564000000013,
      "v": 60
    },
    {
      "midi": 55,
      "hit": false,
      "t": 72181.05836666671,
      "d": 586.9556999999913,
      "v": 112
    },
    {
      "midi": 67,
      "hit": false,
      "t": 72181.05836666671,
      "d": 644.9266333333217,
      "v": 112
    },
    {
      "midi": 52,
      "hit": false,
      "t": 72608.59400000007,
      "d": 434.7820000000065,
      "v": 60
    },
    {
      "midi": 74,
      "hit": false,
      "t": 72615.8403666667,
      "d": 427.53563333333295,
      "v": 112
    },
    {
      "midi": 60,
      "hit": false,
      "t": 72615.8403666667,
      "d": 456.52110000001267,
      "v": 112
    },
    {
      "midi": 45,
      "hit": false,
      "t": 73043.37600000008,
      "d": 608.694800000012,
      "v": 71
    },
    {
      "midi": 64,
      "hit": false,
      "t": 73043.37600000008,
      "d": 1086.9550000000163,
      "v": 71
    },
    {
      "midi": 45,
      "hit": false,
      "t": 73050.6223666667,
      "d": 623.1875333333446,
      "v": 112
    },
    {
      "midi": 67,
      "hit": false,
      "t": 73050.6223666667,
      "d": 1152.1723000000056,
      "v": 112
    },
    {
      "midi": 64,
      "hit": false,
      "t": 73050.6223666667,
      "d": 1173.9114000000118,
      "v": 112
    },
    {
      "midi": 72,
      "hit": false,
      "t": 73065.11510000004,
      "d": 1210.1432333333505,
      "v": 112
    },
    {
      "midi": 52,
      "hit": false,
      "t": 73478.15800000008,
      "d": 579.7093333333469,
      "v": 66
    },
    {
      "midi": 52,
      "hit": false,
      "t": 73485.40436666671,
      "d": 601.4484333333385,
      "v": 112
    },
    {
      "midi": 57,
      "hit": false,
      "t": 73912.94000000009,
      "d": 362.3183333333436,
      "v": 67
    },
    {
      "midi": 48,
      "hit": false,
      "t": 73912.94000000009,
      "d": 623.1875333333446,
      "v": 71
    },
    {
      "midi": 55,
      "hit": false,
      "t": 73920.18636666672,
      "d": 659.4193666666688,
      "v": 112
    },
    {
      "midi": 59,
      "hit": false,
      "t": 74130.3310000001,
      "d": 405.79653333334136,
      "v": 71
    },
    {
      "midi": 60,
      "hit": false,
      "t": 74347.7220000001,
      "d": 376.8110666666762,
      "v": 71
    },
    {
      "midi": 52,
      "hit": false,
      "t": 74347.7220000001,
      "d": 434.7820000000065,
      "v": 71
    },
    {
      "midi": 60,
      "hit": false,
      "t": 74354.96836666673,
      "d": 427.53563333333295,
      "v": 112
    },
    {
      "midi": 67,
      "hit": false,
      "t": 74354.96836666673,
      "d": 565.2165999999997,
      "v": 112
    },
    {
      "midi": 64,
      "hit": false,
      "t": 74565.1130000001,
      "d": 217.39100000000326,
      "v": 71
    },
    {
      "midi": 50,
      "hit": false,
      "t": 74782.5040000001,
      "d": 608.694800000012,
      "v": 71
    },
    {
      "midi": 69,
      "hit": false,
      "t": 74782.5040000001,
      "d": 1086.9550000000163,
      "v": 71
    },
    {
      "midi": 50,
      "hit": false,
      "t": 74789.75036666673,
      "d": 565.2165999999852,
      "v": 112
    },
    {
      "midi": 65,
      "hit": false,
      "t": 74789.75036666673,
      "d": 1137.679566666644,
      "v": 112
    },
    {
      "midi": 60,
      "hit": false,
      "t": 74789.75036666673,
      "d": 1739.1279999999824,
      "v": 112
    },
    {
      "midi": 57,
      "hit": false,
      "t": 75217.28600000011,
      "d": 579.7093333333469,
      "v": 66
    },
    {
      "midi": 53,
      "hit": false,
      "t": 75224.53236666672,
      "d": 550.7238666666526,
      "v": 112
    },
    {
      "midi": 62,
      "hit": false,
      "t": 75652.06800000012,
      "d": 362.3183333333436,
      "v": 67
    },
    {
      "midi": 53,
      "hit": false,
      "t": 75652.06800000012,
      "d": 623.1875333333446,
      "v": 71
    },
    {
      "midi": 57,
      "hit": false,
      "t": 75659.31436666672,
      "d": 905.7958333333372,
      "v": 112
    },
    {
      "midi": 64,
      "hit": false,
      "t": 75869.45900000012,
      "d": 405.79653333334136,
      "v": 71
    },
    {
      "midi": 65,
      "hit": false,
      "t": 76086.85000000012,
      "d": 376.8110666666762,
      "v": 71
    },
    {
      "midi": 57,
      "hit": false,
      "t": 76086.85000000012,
      "d": 434.7820000000065,
      "v": 71
    },
    {
      "midi": 65,
      "hit": false,
      "t": 76094.09636666671,
      "d": 427.53563333333295,
      "v": 112
    },
    {
      "midi": 69,
      "hit": false,
      "t": 76304.24100000013,
      "d": 217.39100000000326,
      "v": 71
    },
    {
      "midi": 43,
      "hit": false,
      "t": 76521.63200000013,
      "d": 608.694800000012,
      "v": 71
    },
    {
      "midi": 62,
      "hit": false,
      "t": 76521.63200000013,
      "d": 1086.9550000000163,
      "v": 71
    },
    {
      "midi": 65,
      "hit": false,
      "t": 76528.87836666672,
      "d": 528.9847666666756,
      "v": 112
    },
    {
      "midi": 70,
      "hit": false,
      "t": 76528.87836666672,
      "d": 601.4484333333385,
      "v": 112
    },
    {
      "midi": 43,
      "hit": false,
      "t": 76528.87836666672,
      "d": 644.9266333333362,
      "v": 112
    },
    {
      "midi": 62,
      "hit": false,
      "t": 76528.87836666672,
      "d": 1644.925233333328,
      "v": 112
    },
    {
      "midi": 50,
      "hit": false,
      "t": 76956.41400000014,
      "d": 579.7093333333469,
      "v": 66
    },
    {
      "midi": 50,
      "hit": false,
      "t": 76963.66036666672,
      "d": 565.2165999999852,
      "v": 112
    },
    {
      "midi": 69,
      "hit": false,
      "t": 76963.66036666672,
      "d": 601.4484333333239,
      "v": 112
    },
    {
      "midi": 55,
      "hit": false,
      "t": 77391.19600000014,
      "d": 362.3183333333436,
      "v": 67
    },
    {
      "midi": 46,
      "hit": false,
      "t": 77391.19600000014,
      "d": 623.1875333333446,
      "v": 71
    },
    {
      "midi": 67,
      "hit": false,
      "t": 77398.44236666671,
      "d": 586.9556999999913,
      "v": 112
    },
    {
      "midi": 58,
      "hit": false,
      "t": 77398.44236666671,
      "d": 1057.9695333333366,
      "v": 112
    },
    {
      "midi": 57,
      "hit": false,
      "t": 77608.58700000015,
      "d": 405.79653333334136,
      "v": 71
    },
    {
      "midi": 58,
      "hit": false,
      "t": 77825.97800000015,
      "d": 376.8110666666762,
      "v": 71
    },
    {
      "midi": 50,
      "hit": false,
      "t": 77825.97800000015,
      "d": 434.7820000000065,
      "v": 71
    },
    {
      "midi": 65,
      "hit": false,
      "t": 77833.2243666667,
      "d": 427.53563333333295,
      "v": 112
    },
    {
      "midi": 62,
      "hit": false,
      "t": 78043.36900000015,
      "d": 217.39100000000326,
      "v": 71
    },
    {
      "midi": 36,
      "hit": false,
      "t": 78260.76000000015,
      "d": 652.1730000000098,
      "v": 68
    },
    {
      "midi": 53,
      "hit": false,
      "t": 78260.76000000015,
      "d": 1739.1280000000115,
      "v": 71
    },
    {
      "midi": 58,
      "hit": false,
      "t": 78260.76000000015,
      "d": 1739.1280000000115,
      "v": 71
    },
    {
      "midi": 62,
      "hit": false,
      "t": 78268.00636666671,
      "d": 427.53563333333295,
      "v": 112
    },
    {
      "midi": 65,
      "hit": false,
      "t": 78268.00636666671,
      "d": 427.53563333333295,
      "v": 112
    },
    {
      "midi": 70,
      "hit": false,
      "t": 78268.00636666671,
      "d": 586.9557000000059,
      "v": 112
    },
    {
      "midi": 48,
      "hit": false,
      "t": 78268.00636666671,
      "d": 623.1875333333446,
      "v": 112
    },
    {
      "midi": 50,
      "hit": false,
      "t": 78695.54200000016,
      "d": 623.1875333333446,
      "v": 71
    },
    {
      "midi": 55,
      "hit": false,
      "t": 78702.78836666672,
      "d": 528.9847666666756,
      "v": 112
    },
    {
      "midi": 72,
      "hit": false,
      "t": 78702.78836666672,
      "d": 586.9557000000059,
      "v": 112
    },
    {
      "midi": 46,
      "hit": false,
      "t": 79130.32400000017,
      "d": 601.4484333333385,
      "v": 71
    },
    {
      "midi": 74,
      "hit": false,
      "t": 79137.57036666673,
      "d": 586.9557000000059,
      "v": 112
    },
    {
      "midi": 58,
      "hit": false,
      "t": 79137.57036666673,
      "d": 1021.7377000000124,
      "v": 112
    },
    {
      "midi": 50,
      "hit": false,
      "t": 79565.10600000017,
      "d": 434.78199999999197,
      "v": 71
    },
    {
      "midi": 70,
      "hit": false,
      "t": 79572.35236666673,
      "d": 427.53563333333295,
      "v": 112
    },
    {
      "midi": 67,
      "hit": false,
      "t": 79970.9025333334,
      "d": 1717.3888999999908,
      "v": 112
    },
    {
      "midi": 53,
      "hit": false,
      "t": 79999.88800000017,
      "d": 652.1730000000098,
      "v": 68
    },
    {
      "midi": 67,
      "hit": false,
      "t": 79999.88800000017,
      "d": 1739.1280000000115,
      "v": 71
    },
    {
      "midi": 69,
      "hit": false,
      "t": 79999.88800000017,
      "d": 1739.1280000000115,
      "v": 71
    },
    {
      "midi": 41,
      "hit": false,
      "t": 80007.13436666674,
      "d": 644.9266333333362,
      "v": 112
    },
    {
      "midi": 72,
      "hit": false,
      "t": 80007.13436666674,
      "d": 1855.0698666666576,
      "v": 112
    },
    {
      "midi": 60,
      "hit": false,
      "t": 80007.13436666674,
      "d": 1891.3016999999963,
      "v": 112
    },
    {
      "midi": 69,
      "hit": false,
      "t": 80007.13436666674,
      "d": 1927.533533333335,
      "v": 112
    },
    {
      "midi": 60,
      "hit": false,
      "t": 80434.67000000017,
      "d": 623.1875333333446,
      "v": 71
    },
    {
      "midi": 48,
      "hit": false,
      "t": 80441.91636666674,
      "d": 644.9266333333217,
      "v": 112
    },
    {
      "midi": 57,
      "hit": false,
      "t": 80869.45200000018,
      "d": 601.4484333333385,
      "v": 71
    },
    {
      "midi": 57,
      "hit": false,
      "t": 80876.69836666674,
      "d": 601.4484333333239,
      "v": 112
    },
    {
      "midi": 60,
      "hit": false,
      "t": 81304.23400000019,
      "d": 434.78199999999197,
      "v": 71
    },
    {
      "midi": 53,
      "hit": false,
      "t": 81311.48036666673,
      "d": 623.1875333333446,
      "v": 112
    },
    {
      "midi": 48,
      "hit": false,
      "t": 81739.01600000018,
      "d": 869.564000000013,
      "v": 67
    },
    {
      "midi": 58,
      "hit": false,
      "t": 81739.01600000018,
      "d": 869.564000000013,
      "v": 72
    },
    {
      "midi": 63,
      "hit": false,
      "t": 81739.01600000018,
      "d": 869.564000000013,
      "v": 72
    },
    {
      "midi": 63,
      "hit": false,
      "t": 81746.26236666672,
      "d": 855.0712666666805,
      "v": 112
    },
    {
      "midi": 48,
      "hit": false,
      "t": 81746.26236666672,
      "d": 999.9986000000063,
      "v": 112
    },
    {
      "midi": 55,
      "hit": false,
      "t": 81746.26236666672,
      "d": 999.9986000000063,
      "v": 112
    },
    {
      "midi": 58,
      "hit": false,
      "t": 81746.26236666672,
      "d": 1152.1723000000056,
      "v": 112
    },
    {
      "midi": 65,
      "hit": false,
      "t": 81782.49420000006,
      "d": 1115.940466666667,
      "v": 112
    },
    {
      "midi": 55,
      "hit": false,
      "t": 82173.79800000018,
      "d": 434.7820000000065,
      "v": 72
    },
    {
      "midi": 53,
      "hit": false,
      "t": 82608.58000000019,
      "d": 833.3321666666743,
      "v": 45
    },
    {
      "midi": 57,
      "hit": false,
      "t": 82608.58000000019,
      "d": 833.3321666666743,
      "v": 65
    },
    {
      "midi": 41,
      "hit": false,
      "t": 82608.58000000019,
      "d": 869.564000000013,
      "v": 60
    },
    {
      "midi": 63,
      "hit": false,
      "t": 82608.58000000019,
      "d": 869.564000000013,
      "v": 64
    },
    {
      "midi": 63,
      "hit": false,
      "t": 82615.82636666673,
      "d": 427.53563333333295,
      "v": 112
    },
    {
      "midi": 57,
      "hit": false,
      "t": 82615.82636666673,
      "d": 869.564000000013,
      "v": 112
    },
    {
      "midi": 60,
      "hit": false,
      "t": 82615.82636666673,
      "d": 869.564000000013,
      "v": 112
    },
    {
      "midi": 41,
      "hit": false,
      "t": 82615.82636666673,
      "d": 999.9986000000063,
      "v": 112
    },
    {
      "midi": 36,
      "hit": false,
      "t": 83043.3620000002,
      "d": 434.7820000000065,
      "v": 57
    },
    {
      "midi": 65,
      "hit": false,
      "t": 83050.60836666674,
      "d": 427.53563333333295,
      "v": 112
    },
    {
      "midi": 46,
      "hit": false,
      "t": 83478.1440000002,
      "d": 652.1730000000098,
      "v": 68
    },
    {
      "midi": 58,
      "hit": false,
      "t": 83478.1440000002,
      "d": 1739.1280000000115,
      "v": 71
    },
    {
      "midi": 62,
      "hit": false,
      "t": 83478.1440000002,
      "d": 1739.1280000000115,
      "v": 71
    },
    {
      "midi": 46,
      "hit": false,
      "t": 83485.39036666675,
      "d": 601.4484333333239,
      "v": 112
    },
    {
      "midi": 65,
      "hit": false,
      "t": 83485.39036666675,
      "d": 1152.172299999991,
      "v": 112
    },
    {
      "midi": 70,
      "hit": false,
      "t": 83485.39036666675,
      "d": 1173.9113999999972,
      "v": 112
    },
    {
      "midi": 74,
      "hit": false,
      "t": 83499.88310000008,
      "d": 1173.9113999999972,
      "v": 112
    },
    {
      "midi": 53,
      "hit": false,
      "t": 83912.92600000021,
      "d": 623.1875333333446,
      "v": 71
    },
    {
      "midi": 53,
      "hit": false,
      "t": 83920.17236666674,
      "d": 623.1875333333301,
      "v": 112
    },
    {
      "midi": 50,
      "hit": false,
      "t": 84347.70800000022,
      "d": 601.4484333333385,
      "v": 71
    },
    {
      "midi": 58,
      "hit": false,
      "t": 84354.95436666673,
      "d": 586.9557000000059,
      "v": 112
    },
    {
      "midi": 53,
      "hit": false,
      "t": 84782.49000000022,
      "d": 434.78199999999197,
      "v": 71
    },
    {
      "midi": 65,
      "hit": false,
      "t": 84789.73636666674,
      "d": 623.1875333333446,
      "v": 112
    },
    {
      "midi": 62,
      "hit": false,
      "t": 84789.73636666674,
      "d": 644.9266333333508,
      "v": 112
    },
    {
      "midi": 46,
      "hit": false,
      "t": 85217.27200000022,
      "d": 797.1003333333356,
      "v": 70
    },
    {
      "midi": 64,
      "hit": false,
      "t": 85217.27200000022,
      "d": 1739.1280000000115,
      "v": 70
    },
    {
      "midi": 46,
      "hit": false,
      "t": 85224.51836666674,
      "d": 550.7238666666672,
      "v": 112
    },
    {
      "midi": 64,
      "hit": false,
      "t": 85224.51836666674,
      "d": 601.4484333333385,
      "v": 112
    },
    {
      "midi": 55,
      "hit": false,
      "t": 85652.05400000022,
      "d": 855.0712666666659,
      "v": 70
    },
    {
      "midi": 52,
      "hit": false,
      "t": 85659.30036666675,
      "d": 565.2165999999852,
      "v": 112
    },
    {
      "midi": 65,
      "hit": false,
      "t": 85673.79310000008,
      "d": 601.4484333333239,
      "v": 112
    },
    {
      "midi": 52,
      "hit": false,
      "t": 86086.83600000021,
      "d": 833.3321666666743,
      "v": 70
    },
    {
      "midi": 55,
      "hit": false,
      "t": 86094.08236666674,
      "d": 601.4484333333239,
      "v": 112
    },
    {
      "midi": 67,
      "hit": false,
      "t": 86108.57510000007,
      "d": 492.7529333333223,
      "v": 112
    },
    {
      "midi": 55,
      "hit": false,
      "t": 86521.61800000022,
      "d": 434.7820000000065,
      "v": 70
    },
    {
      "midi": 60,
      "hit": false,
      "t": 86528.86436666673,
      "d": 427.53563333333295,
      "v": 112
    },
    {
      "midi": 74,
      "hit": false,
      "t": 86543.35710000007,
      "d": 413.0429000000004,
      "v": 112
    },
    {
      "midi": 45,
      "hit": false,
      "t": 86956.40000000023,
      "d": 797.1003333333356,
      "v": 70
    },
    {
      "midi": 60,
      "hit": false,
      "t": 86956.40000000023,
      "d": 1739.1280000000115,
      "v": 70
    },
    {
      "midi": 45,
      "hit": false,
      "t": 86963.64636666674,
      "d": 601.4484333333385,
      "v": 112
    },
    {
      "midi": 72,
      "hit": false,
      "t": 86963.64636666674,
      "d": 1057.9695333333366,
      "v": 112
    },
    {
      "midi": 64,
      "hit": false,
      "t": 86963.64636666674,
      "d": 1739.1280000000115,
      "v": 112
    },
    {
      "midi": 67,
      "hit": false,
      "t": 86963.64636666674,
      "d": 1739.1280000000115,
      "v": 112
    },
    {
      "midi": 52,
      "hit": false,
      "t": 87391.18200000023,
      "d": 855.0712666666659,
      "v": 70
    },
    {
      "midi": 52,
      "hit": false,
      "t": 87398.42836666675,
      "d": 717.3902999999991,
      "v": 112
    },
    {
      "midi": 48,
      "hit": false,
      "t": 87825.96400000023,
      "d": 833.3321666666743,
      "v": 70
    },
    {
      "midi": 55,
      "hit": false,
      "t": 87833.21036666674,
      "d": 659.4193666666688,
      "v": 112
    },
    {
      "midi": 76,
      "hit": false,
      "t": 87833.21036666674,
      "d": 869.564000000013,
      "v": 112
    },
    {
      "midi": 52,
      "hit": false,
      "t": 88260.74600000023,
      "d": 434.7820000000065,
      "v": 70
    },
    {
      "midi": 60,
      "hit": false,
      "t": 88267.99236666675,
      "d": 427.53563333333295,
      "v": 112
    },
    {
      "midi": 50,
      "hit": false,
      "t": 88695.52800000024,
      "d": 652.1730000000098,
      "v": 68
    },
    {
      "midi": 60,
      "hit": false,
      "t": 88695.52800000024,
      "d": 1739.1280000000115,
      "v": 71
    },
    {
      "midi": 65,
      "hit": false,
      "t": 88695.52800000024,
      "d": 1739.1280000000115,
      "v": 71
    },
    {
      "midi": 65,
      "hit": false,
      "t": 88702.77436666675,
      "d": 1152.1723000000056,
      "v": 112
    },
    {
      "midi": 69,
      "hit": false,
      "t": 88702.77436666675,
      "d": 1231.882333333342,
      "v": 112
    },
    {
      "midi": 72,
      "hit": false,
      "t": 88702.77436666675,
      "d": 1246.3750666666747,
      "v": 112
    },
    {
      "midi": 57,
      "hit": false,
      "t": 88702.77436666675,
      "d": 1739.1280000000115,
      "v": 112
    },
    {
      "midi": 50,
      "hit": false,
      "t": 88702.77436666675,
      "d": 1760.8671000000177,
      "v": 112
    },
    {
      "midi": 60,
      "hit": false,
      "t": 88702.77436666675,
      "d": 1760.8671000000177,
      "v": 112
    },
    {
      "midi": 77,
      "hit": false,
      "t": 88717.26710000008,
      "d": 1210.143233333336,
      "v": 112
    },
    {
      "midi": 57,
      "hit": false,
      "t": 89130.31000000025,
      "d": 623.1875333333446,
      "v": 71
    },
    {
      "midi": 53,
      "hit": false,
      "t": 89565.09200000025,
      "d": 601.4484333333385,
      "v": 71
    },
    {
      "midi": 57,
      "hit": false,
      "t": 89999.87400000026,
      "d": 434.78199999999197,
      "v": 71
    },
    {
      "midi": 65,
      "hit": false,
      "t": 90007.12036666676,
      "d": 427.53563333333295,
      "v": 112
    },
    {
      "midi": 53,
      "hit": false,
      "t": 90434.65600000025,
      "d": 833.3321666666743,
      "v": 45
    },
    {
      "midi": 58,
      "hit": false,
      "t": 90434.65600000025,
      "d": 833.3321666666743,
      "v": 65
    },
    {
      "midi": 62,
      "hit": false,
      "t": 90434.65600000025,
      "d": 869.564000000013,
      "v": 64
    },
    {
      "midi": 34,
      "hit": false,
      "t": 90434.65600000025,
      "d": 1739.128000000026,
      "v": 60
    },
    {
      "midi": 65,
      "hit": false,
      "t": 90441.90236666676,
      "d": 427.53563333333295,
      "v": 112
    },
    {
      "midi": 70,
      "hit": false,
      "t": 90441.90236666676,
      "d": 427.53563333333295,
      "v": 112
    },
    {
      "midi": 58,
      "hit": false,
      "t": 90441.90236666676,
      "d": 1666.6643333333486,
      "v": 112
    },
    {
      "midi": 53,
      "hit": false,
      "t": 90441.90236666676,
      "d": 1869.5626000000193,
      "v": 112
    },
    {
      "midi": 46,
      "hit": false,
      "t": 90441.90236666676,
      "d": 1891.3017000000254,
      "v": 112
    },
    {
      "midi": 62,
      "hit": false,
      "t": 90441.90236666676,
      "d": 1891.3017000000254,
      "v": 112
    },
    {
      "midi": 41,
      "hit": false,
      "t": 90869.43800000026,
      "d": 1304.3460000000196,
      "v": 57
    },
    {
      "midi": 69,
      "hit": false,
      "t": 90876.68436666677,
      "d": 427.53563333333295,
      "v": 112
    },
    {
      "midi": 46,
      "hit": false,
      "t": 91304.22000000026,
      "d": 869.564000000013,
      "v": 60
    },
    {
      "midi": 67,
      "hit": false,
      "t": 91311.46636666678,
      "d": 427.53563333333295,
      "v": 112
    },
    {
      "midi": 50,
      "hit": false,
      "t": 91739.00200000027,
      "d": 434.7820000000065,
      "v": 60
    },
    {
      "midi": 65,
      "hit": false,
      "t": 91746.24836666678,
      "d": 427.53563333333295,
      "v": 112
    },
    {
      "midi": 51,
      "hit": false,
      "t": 92173.78400000028,
      "d": 797.1003333333356,
      "v": 70
    },
    {
      "midi": 67,
      "hit": false,
      "t": 92173.78400000028,
      "d": 1739.1280000000115,
      "v": 70
    },
    {
      "midi": 67,
      "hit": false,
      "t": 92181.03036666679,
      "d": 586.9557000000059,
      "v": 112
    },
    {
      "midi": 58,
      "hit": false,
      "t": 92181.03036666679,
      "d": 1644.925233333328,
      "v": 112
    },
    {
      "midi": 55,
      "hit": false,
      "t": 92181.03036666679,
      "d": 1833.330766666666,
      "v": 112
    },
    {
      "midi": 51,
      "hit": false,
      "t": 92181.03036666679,
      "d": 1855.0698666666722,
      "v": 112
    },
    {
      "midi": 63,
      "hit": false,
      "t": 92181.03036666679,
      "d": 1905.7944333333435,
      "v": 112
    },
    {
      "midi": 70,
      "hit": false,
      "t": 92195.52310000012,
      "d": 623.1875333333446,
      "v": 112
    },
    {
      "midi": 58,
      "hit": false,
      "t": 92608.56600000028,
      "d": 855.0712666666659,
      "v": 70
    },
    {
      "midi": 69,
      "hit": false,
      "t": 92615.8123666668,
      "d": 659.4193666666688,
      "v": 112
    },
    {
      "midi": 55,
      "hit": false,
      "t": 93043.34800000027,
      "d": 833.3321666666743,
      "v": 70
    },
    {
      "midi": 67,
      "hit": false,
      "t": 93050.5943666668,
      "d": 659.4193666666542,
      "v": 112
    },
    {
      "midi": 58,
      "hit": false,
      "t": 93478.13000000028,
      "d": 434.7820000000065,
      "v": 70
    },
    {
      "midi": 65,
      "hit": false,
      "t": 93485.3763666668,
      "d": 427.5356333333184,
      "v": 112
    },
    {
      "midi": 36,
      "hit": false,
      "t": 93912.91200000029,
      "d": 652.1730000000098,
      "v": 68
    },
    {
      "midi": 53,
      "hit": false,
      "t": 93912.91200000029,
      "d": 1739.1280000000115,
      "v": 71
    },
    {
      "midi": 58,
      "hit": false,
      "t": 93912.91200000029,
      "d": 1739.1280000000115,
      "v": 71
    },
    {
      "midi": 58,
      "hit": false,
      "t": 93920.15836666679,
      "d": 797.1003333333356,
      "v": 112
    },
    {
      "midi": 62,
      "hit": false,
      "t": 93920.15836666679,
      "d": 1021.7376999999979,
      "v": 112
    },
    {
      "midi": 65,
      "hit": false,
      "t": 93920.15836666679,
      "d": 1021.7376999999979,
      "v": 112
    },
    {
      "midi": 48,
      "hit": false,
      "t": 93920.15836666679,
      "d": 1644.925233333328,
      "v": 112
    },
    {
      "midi": 67,
      "hit": false,
      "t": 93963.63656666678,
      "d": 2420.286466666672,
      "v": 112
    },
    {
      "midi": 50,
      "hit": false,
      "t": 94347.6940000003,
      "d": 623.1875333333446,
      "v": 71
    },
    {
      "midi": 55,
      "hit": false,
      "t": 94354.9403666668,
      "d": 1137.6795666666585,
      "v": 112
    },
    {
      "midi": 46,
      "hit": false,
      "t": 94782.4760000003,
      "d": 601.4484333333385,
      "v": 71
    },
    {
      "midi": 58,
      "hit": false,
      "t": 94789.72236666679,
      "d": 601.4484333333385,
      "v": 112
    },
    {
      "midi": 50,
      "hit": false,
      "t": 95217.2580000003,
      "d": 434.78199999999197,
      "v": 71
    },
    {
      "midi": 62,
      "hit": false,
      "t": 95224.50436666679,
      "d": 427.5356333333184,
      "v": 112
    },
    {
      "midi": 48,
      "hit": false,
      "t": 95652.0400000003,
      "d": 652.1730000000098,
      "v": 68
    },
    {
      "midi": 58,
      "hit": false,
      "t": 95652.0400000003,
      "d": 1739.1280000000115,
      "v": 71
    },
    {
      "midi": 64,
      "hit": false,
      "t": 95652.0400000003,
      "d": 1739.1280000000115,
      "v": 71
    },
    {
      "midi": 64,
      "hit": false,
      "t": 95659.28636666678,
      "d": 1760.8671000000177,
      "v": 112
    },
    {
      "midi": 48,
      "hit": false,
      "t": 95659.28636666678,
      "d": 1869.5626000000193,
      "v": 112
    },
    {
      "midi": 55,
      "hit": false,
      "t": 95659.28636666678,
      "d": 1869.5626000000193,
      "v": 112
    },
    {
      "midi": 58,
      "hit": false,
      "t": 95659.28636666678,
      "d": 1891.3017000000254,
      "v": 112
    },
    {
      "midi": 55,
      "hit": false,
      "t": 96086.8220000003,
      "d": 623.1875333333446,
      "v": 71
    },
    {
      "midi": 52,
      "hit": false,
      "t": 96521.60400000031,
      "d": 601.4484333333385,
      "v": 71
    },
    {
      "midi": 72,
      "hit": false,
      "t": 96528.8503666668,
      "d": 1057.9695333333511,
      "v": 112
    },
    {
      "midi": 55,
      "hit": false,
      "t": 96956.38600000032,
      "d": 434.78199999999197,
      "v": 71
    },
    {
      "midi": 53,
      "hit": false,
      "t": 97391.16800000031,
      "d": 608.694800000012,
      "v": 71
    },
    {
      "midi": 72,
      "hit": false,
      "t": 97391.16800000031,
      "d": 1086.9550000000163,
      "v": 71
    },
    {
      "midi": 60,
      "hit": false,
      "t": 97398.4143666668,
      "d": 21.739100000006147,
      "v": 112
    },
    {
      "midi": 41,
      "hit": false,
      "t": 97398.4143666668,
      "d": 826.0858000000153,
      "v": 112
    },
    {
      "midi": 67,
      "hit": false,
      "t": 97398.4143666668,
      "d": 1652.171600000016,
      "v": 112
    },
    {
      "midi": 69,
      "hit": false,
      "t": 97441.89256666681,
      "d": 1086.9550000000017,
      "v": 112
    },
    {
      "midi": 60,
      "hit": false,
      "t": 97825.95000000032,
      "d": 579.7093333333469,
      "v": 66
    },
    {
      "midi": 48,
      "hit": false,
      "t": 97833.19636666682,
      "d": 688.4048333333194,
      "v": 112
    },
    {
      "midi": 67,
      "hit": false,
      "t": 98260.73200000032,
      "d": 362.3183333333436,
      "v": 67
    },
    {
      "midi": 57,
      "hit": false,
      "t": 98260.73200000032,
      "d": 623.1875333333446,
      "v": 71
    },
    {
      "midi": 57,
      "hit": false,
      "t": 98267.97836666681,
      "d": 659.4193666666688,
      "v": 112
    },
    {
      "midi": 69,
      "hit": false,
      "t": 98695.51400000033,
      "d": 376.8110666666762,
      "v": 71
    },
    {
      "midi": 60,
      "hit": false,
      "t": 98695.51400000033,
      "d": 434.7820000000065,
      "v": 71
    },
    {
      "midi": 69,
      "hit": false,
      "t": 98702.76036666681,
      "d": 427.53563333333295,
      "v": 112
    },
    {
      "midi": 48,
      "hit": false,
      "t": 98702.76036666681,
      "d": 659.4193666666688,
      "v": 112
    },
    {
      "midi": 72,
      "hit": false,
      "t": 98912.90500000033,
      "d": 217.39100000000326,
      "v": 71
    },
    {
      "midi": 53,
      "hit": false,
      "t": 99130.29600000034,
      "d": 652.1730000000098,
      "v": 68
    },
    {
      "midi": 65,
      "hit": false,
      "t": 99130.29600000034,
      "d": 1739.1280000000115,
      "v": 71
    },
    {
      "midi": 69,
      "hit": false,
      "t": 99130.29600000034,
      "d": 1739.1280000000115,
      "v": 71
    },
    {
      "midi": 65,
      "hit": false,
      "t": 99137.54236666682,
      "d": 565.2165999999852,
      "v": 112
    },
    {
      "midi": 53,
      "hit": false,
      "t": 99137.54236666682,
      "d": 1891.301700000011,
      "v": 112
    },
    {
      "midi": 60,
      "hit": false,
      "t": 99137.54236666682,
      "d": 1913.040800000017,
      "v": 112
    },
    {
      "midi": 70,
      "hit": false,
      "t": 99152.03510000015,
      "d": 710.1439333333255,
      "v": 112
    },
    {
      "midi": 60,
      "hit": false,
      "t": 99565.07800000034,
      "d": 623.1875333333446,
      "v": 71
    },
    {
      "midi": 69,
      "hit": false,
      "t": 99572.32436666681,
      "d": 594.2020666666795,
      "v": 112
    },
    {
      "midi": 57,
      "hit": false,
      "t": 99999.86000000035,
      "d": 601.4484333333385,
      "v": 71
    },
    {
      "midi": 67,
      "hit": false,
      "t": 100007.10636666682,
      "d": 615.941166666671,
      "v": 112
    },
    {
      "midi": 60,
      "hit": false,
      "t": 100434.64200000036,
      "d": 434.78199999999197,
      "v": 71
    },
    {
      "midi": 65,
      "hit": false,
      "t": 100441.88836666683,
      "d": 427.53563333333295,
      "v": 112
    },
    {
      "midi": 36,
      "hit": false,
      "t": 100869.42400000035,
      "d": 608.694800000012,
      "v": 71
    },
    {
      "midi": 62,
      "hit": false,
      "t": 100869.42400000035,
      "d": 1086.9550000000163,
      "v": 71
    },
    {
      "midi": 48,
      "hit": false,
      "t": 100876.67036666683,
      "d": 1586.9542999999976,
      "v": 112
    },
    {
      "midi": 58,
      "hit": false,
      "t": 100876.67036666683,
      "d": 1630.43250000001,
      "v": 112
    },
    {
      "midi": 62,
      "hit": false,
      "t": 100876.67036666683,
      "d": 1963.7653666666884,
      "v": 112
    },
    {
      "midi": 65,
      "hit": false,
      "t": 100891.16310000017,
      "d": 615.941166666671,
      "v": 112
    },
    {
      "midi": 50,
      "hit": false,
      "t": 101304.20600000035,
      "d": 579.7093333333469,
      "v": 66
    },
    {
      "midi": 64,
      "hit": false,
      "t": 101311.45236666684,
      "d": 637.6802666666626,
      "v": 112
    },
    {
      "midi": 55,
      "hit": false,
      "t": 101311.45236666684,
      "d": 1159.4186666666646,
      "v": 112
    },
    {
      "midi": 55,
      "hit": false,
      "t": 101738.98800000036,
      "d": 362.3183333333436,
      "v": 67
    },
    {
      "midi": 46,
      "hit": false,
      "t": 101738.98800000036,
      "d": 623.1875333333446,
      "v": 71
    },
    {
      "midi": 65,
      "hit": false,
      "t": 101746.23436666683,
      "d": 615.941166666671,
      "v": 112
    },
    {
      "midi": 57,
      "hit": false,
      "t": 101956.37900000036,
      "d": 405.79653333334136,
      "v": 71
    },
    {
      "midi": 58,
      "hit": false,
      "t": 102173.77000000037,
      "d": 376.8110666666762,
      "v": 71
    },
    {
      "midi": 50,
      "hit": false,
      "t": 102173.77000000037,
      "d": 434.7820000000065,
      "v": 71
    },
    {
      "midi": 67,
      "hit": false,
      "t": 102181.01636666684,
      "d": 637.6802666666772,
      "v": 112
    },
    {
      "midi": 62,
      "hit": false,
      "t": 102391.16100000037,
      "d": 217.39100000000326,
      "v": 71
    },
    {
      "midi": 48,
      "hit": false,
      "t": 102608.55200000037,
      "d": 608.694800000012,
      "v": 71
    },
    {
      "midi": 67,
      "hit": false,
      "t": 102608.55200000037,
      "d": 1086.9550000000163,
      "v": 71
    },
    {
      "midi": 48,
      "hit": false,
      "t": 102615.79836666684,
      "d": 615.941166666671,
      "v": 112
    },
    {
      "midi": 58,
      "hit": false,
      "t": 102615.79836666684,
      "d": 1702.8961666666728,
      "v": 112
    },
    {
      "midi": 60,
      "hit": false,
      "t": 102659.27656666684,
      "d": 1065.2159000000102,
      "v": 112
    },
    {
      "midi": 55,
      "hit": false,
      "t": 103043.33400000038,
      "d": 579.7093333333469,
      "v": 66
    },
    {
      "midi": 52,
      "hit": false,
      "t": 103050.58036666685,
      "d": 637.6802666666626,
      "v": 112
    },
    {
      "midi": 60,
      "hit": false,
      "t": 103478.11600000039,
      "d": 362.3183333333436,
      "v": 67
    },
    {
      "midi": 52,
      "hit": false,
      "t": 103478.11600000039,
      "d": 623.1875333333446,
      "v": 71
    },
    {
      "midi": 55,
      "hit": false,
      "t": 103485.36236666684,
      "d": 898.5494666666782,
      "v": 112
    },
    {
      "midi": 62,
      "hit": false,
      "t": 103695.50700000039,
      "d": 405.79653333334136,
      "v": 71
    },
    {
      "midi": 64,
      "hit": false,
      "t": 103912.8980000004,
      "d": 376.8110666666762,
      "v": 71
    },
    {
      "midi": 55,
      "hit": false,
      "t": 103912.8980000004,
      "d": 434.7820000000065,
      "v": 71
    },
    {
      "midi": 60,
      "hit": false,
      "t": 103920.14436666685,
      "d": 427.53563333333295,
      "v": 112
    },
    {
      "midi": 67,
      "hit": false,
      "t": 104130.2890000004,
      "d": 217.39100000000326,
      "v": 71
    },
    {
      "midi": 43,
      "hit": false,
      "t": 104347.6800000004,
      "d": 797.1003333333356,
      "v": 70
    },
    {
      "midi": 58,
      "hit": false,
      "t": 104347.6800000004,
      "d": 1739.1280000000115,
      "v": 70
    },
    {
      "midi": 43,
      "hit": false,
      "t": 104354.92636666686,
      "d": 659.4193666666542,
      "v": 112
    },
    {
      "midi": 62,
      "hit": false,
      "t": 104354.92636666686,
      "d": 1869.5625999999756,
      "v": 112
    },
    {
      "midi": 65,
      "hit": false,
      "t": 104354.92636666686,
      "d": 1905.7944333333144,
      "v": 112
    },
    {
      "midi": 70,
      "hit": false,
      "t": 104369.41910000019,
      "d": 1173.9113999999827,
      "v": 112
    },
    {
      "midi": 50,
      "hit": false,
      "t": 104782.4620000004,
      "d": 855.0712666666659,
      "v": 70
    },
    {
      "midi": 50,
      "hit": false,
      "t": 104789.70836666685,
      "d": 565.2165999999852,
      "v": 112
    },
    {
      "midi": 46,
      "hit": false,
      "t": 105217.2440000004,
      "d": 833.3321666666743,
      "v": 70
    },
    {
      "midi": 58,
      "hit": false,
      "t": 105224.49036666684,
      "d": 1079.7086333333427,
      "v": 112
    },
    {
      "midi": 50,
      "hit": false,
      "t": 105652.0260000004,
      "d": 434.7820000000065,
      "v": 70
    },
    {
      "midi": 74,
      "hit": false,
      "t": 105659.27236666683,
      "d": 623.1875333333446,
      "v": 112
    },
    {
      "midi": 55,
      "hit": false,
      "t": 106086.80800000041,
      "d": 833.3321666666743,
      "v": 45
    },
    {
      "midi": 58,
      "hit": false,
      "t": 106086.80800000041,
      "d": 833.3321666666743,
      "v": 65
    },
    {
      "midi": 64,
      "hit": false,
      "t": 106086.80800000041,
      "d": 869.564000000013,
      "v": 64
    },
    {
      "midi": 36,
      "hit": false,
      "t": 106086.80800000041,
      "d": 1739.128000000026,
      "v": 60
    },
    {
      "midi": 48,
      "hit": false,
      "t": 106094.05436666684,
      "d": 644.9266333333362,
      "v": 112
    },
    {
      "midi": 64,
      "hit": false,
      "t": 106094.05436666684,
      "d": 1717.3888999999908,
      "v": 112
    },
    {
      "midi": 72,
      "hit": false,
      "t": 106108.54710000017,
      "d": 601.4484333333385,
      "v": 112
    },
    {
      "midi": 43,
      "hit": false,
      "t": 106521.59000000042,
      "d": 1304.3460000000196,
      "v": 57
    },
    {
      "midi": 55,
      "hit": false,
      "t": 106528.83636666684,
      "d": 644.9266333333217,
      "v": 112
    },
    {
      "midi": 67,
      "hit": false,
      "t": 106528.83636666684,
      "d": 644.9266333333217,
      "v": 112
    },
    {
      "midi": 48,
      "hit": false,
      "t": 106956.37200000043,
      "d": 869.564000000013,
      "v": 60
    },
    {
      "midi": 69,
      "hit": false,
      "t": 106963.61836666684,
      "d": 586.9556999999913,
      "v": 112
    },
    {
      "midi": 58,
      "hit": false,
      "t": 106963.61836666684,
      "d": 985.5058666666591,
      "v": 112
    },
    {
      "midi": 52,
      "hit": false,
      "t": 107391.15400000043,
      "d": 434.7820000000065,
      "v": 60
    },
    {
      "midi": 70,
      "hit": false,
      "t": 107398.40036666683,
      "d": 427.53563333333295,
      "v": 112
    },
    {
      "midi": 53,
      "hit": false,
      "t": 107825.93600000044,
      "d": 797.1003333333356,
      "v": 70
    },
    {
      "midi": 69,
      "hit": false,
      "t": 107825.93600000044,
      "d": 1739.1280000000115,
      "v": 70
    },
    {
      "midi": 41,
      "hit": false,
      "t": 107833.18236666684,
      "d": 601.4484333333239,
      "v": 112
    },
    {
      "midi": 60,
      "hit": false,
      "t": 107833.18236666684,
      "d": 2304.3445999999967,
      "v": 112
    },
    {
      "midi": 67,
      "hit": false,
      "t": 107833.18236666684,
      "d": 2420.2864666666574,
      "v": 112
    },
    {
      "midi": 69,
      "hit": false,
      "t": 107876.66056666683,
      "d": 2384.054633333333,
      "v": 112
    },
    {
      "midi": 60,
      "hit": false,
      "t": 108260.71800000044,
      "d": 855.0712666666659,
      "v": 70
    },
    {
      "midi": 48,
      "hit": false,
      "t": 108267.96436666683,
      "d": 623.1875333333301,
      "v": 112
    },
    {
      "midi": 57,
      "hit": false,
      "t": 108695.50000000044,
      "d": 833.3321666666743,
      "v": 70
    },
    {
      "midi": 57,
      "hit": false,
      "t": 108702.74636666682,
      "d": 586.9557000000059,
      "v": 112
    },
    {
      "midi": 60,
      "hit": false,
      "t": 109130.28200000044,
      "d": 434.7820000000065,
      "v": 70
    },
    {
      "midi": 48,
      "hit": false,
      "t": 109137.52836666683,
      "d": 623.1875333333446,
      "v": 112
    },
    {
      "midi": 53,
      "hit": false,
      "t": 109565.06400000045,
      "d": 869.564000000013,
      "v": 67
    },
    {
      "midi": 65,
      "hit": false,
      "t": 109565.06400000045,
      "d": 869.564000000013,
      "v": 72
    },
    {
      "midi": 70,
      "hit": false,
      "t": 109565.06400000045,
      "d": 869.564000000013,
      "v": 72
    },
    {
      "midi": 58,
      "hit": false,
      "t": 109572.31036666683,
      "d": 985.5058666666591,
      "v": 112
    },
    {
      "midi": 60,
      "hit": false,
      "t": 109999.84600000046,
      "d": 434.7820000000065,
      "v": 72
    },
    {
      "midi": 57,
      "hit": false,
      "t": 110434.62800000046,
      "d": 833.3321666666743,
      "v": 45
    },
    {
      "midi": 60,
      "hit": false,
      "t": 110434.62800000046,
      "d": 833.3321666666743,
      "v": 65
    },
    {
      "midi": 41,
      "hit": false,
      "t": 110434.62800000046,
      "d": 869.564000000013,
      "v": 60
    },
    {
      "midi": 65,
      "hit": false,
      "t": 110434.62800000046,
      "d": 869.564000000013,
      "v": 64
    },
    {
      "midi": 36,
      "hit": false,
      "t": 110869.41000000047,
      "d": 434.7820000000065,
      "v": 57
    },
    {
      "midi": 60,
      "hit": false,
      "t": 110876.65636666682,
      "d": 318.8401333333313,
      "v": 112
    },
    {
      "midi": 57,
      "hit": false,
      "t": 111304.19200000048,
      "d": 891.3031000000046,
      "v": 61
    },
    {
      "midi": 41,
      "hit": false,
      "t": 111304.19200000048,
      "d": 1739.1280000000115,
      "v": 26
    },
    {
      "midi": 69,
      "hit": false,
      "t": 111304.19200000048,
      "d": 1739.1280000000115,
      "v": 71
    },
    {
      "midi": 41,
      "hit": false,
      "t": 111311.43836666681,
      "d": 659.4193666666542,
      "v": 112
    },
    {
      "midi": 60,
      "hit": false,
      "t": 111311.43836666681,
      "d": 1644.9252333333134,
      "v": 112
    },
    {
      "midi": 67,
      "hit": false,
      "t": 111311.43836666681,
      "d": 1681.157066666652,
      "v": 112
    },
    {
      "midi": 69,
      "hit": false,
      "t": 111354.91656666681,
      "d": 1079.7086333333282,
      "v": 112
    },
    {
      "midi": 36,
      "hit": false,
      "t": 111738.97400000048,
      "d": 1304.346000000005,
      "v": 58
    },
    {
      "midi": 48,
      "hit": false,
      "t": 111746.2203666668,
      "d": 623.1875333333301,
      "v": 112
    },
    {
      "midi": 57,
      "hit": false,
      "t": 112181.0023666668,
      "d": 644.9266333333362,
      "v": 112
    },
    {
      "midi": 57,
      "hit": false,
      "t": 112608.53800000048,
      "d": 434.7820000000065,
      "v": 55
    },
    {
      "midi": 69,
      "hit": false,
      "t": 112615.7843666668,
      "d": 427.53563333333295,
      "v": 112
    },
    {
      "midi": 48,
      "hit": false,
      "t": 112615.7843666668,
      "d": 601.4484333333385,
      "v": 112
    },
    {
      "midi": 57,
      "hit": false,
      "t": 113043.32000000049,
      "d": 833.3321666666743,
      "v": 45
    },
    {
      "midi": 60,
      "hit": false,
      "t": 113043.32000000049,
      "d": 833.3321666666743,
      "v": 65
    },
    {
      "midi": 65,
      "hit": false,
      "t": 113043.32000000049,
      "d": 869.564000000013,
      "v": 64
    },
    {
      "midi": 41,
      "hit": false,
      "t": 113043.32000000049,
      "d": 1739.128000000026,
      "v": 60
    },
    {
      "midi": 65,
      "hit": false,
      "t": 113050.56636666681,
      "d": 644.9266333333217,
      "v": 112
    },
    {
      "midi": 70,
      "hit": false,
      "t": 113050.56636666681,
      "d": 717.3902999999846,
      "v": 112
    },
    {
      "midi": 60,
      "hit": false,
      "t": 113050.56636666681,
      "d": 1739.127999999997,
      "v": 112
    },
    {
      "midi": 53,
      "hit": false,
      "t": 113050.56636666681,
      "d": 1855.0698666666576,
      "v": 112
    },
    {
      "midi": 36,
      "hit": false,
      "t": 113478.1020000005,
      "d": 1304.3460000000196,
      "v": 57
    },
    {
      "midi": 69,
      "hit": false,
      "t": 113485.3483666668,
      "d": 623.1875333333301,
      "v": 112
    },
    {
      "midi": 67,
      "hit": false,
      "t": 113920.1303666668,
      "d": 644.9266333333362,
      "v": 112
    },
    {
      "midi": 53,
      "hit": false,
      "t": 114347.6660000005,
      "d": 434.7820000000065,
      "v": 60
    },
    {
      "midi": 65,
      "hit": false,
      "t": 114354.9123666668,
      "d": 427.53563333333295,
      "v": 112
    },
    {
      "midi": 55,
      "hit": false,
      "t": 114782.44800000051,
      "d": 891.3031000000046,
      "v": 61
    },
    {
      "midi": 36,
      "hit": false,
      "t": 114782.44800000051,
      "d": 1739.1280000000115,
      "v": 26
    },
    {
      "midi": 65,
      "hit": false,
      "t": 114782.44800000051,
      "d": 1739.1280000000115,
      "v": 71
    },
    {
      "midi": 65,
      "hit": false,
      "t": 114789.69436666681,
      "d": 623.1875333333301,
      "v": 112
    },
    {
      "midi": 48,
      "hit": false,
      "t": 114789.69436666681,
      "d": 1644.925233333328,
      "v": 112
    },
    {
      "midi": 58,
      "hit": false,
      "t": 114789.69436666681,
      "d": 1666.664333333334,
      "v": 112
    },
    {
      "midi": 62,
      "hit": false,
      "t": 114789.69436666681,
      "d": 1949.2726333333267,
      "v": 112
    },
    {
      "midi": 38,
      "hit": false,
      "t": 115217.23000000052,
      "d": 1304.346000000005,
      "v": 58
    },
    {
      "midi": 64,
      "hit": false,
      "t": 115224.4763666668,
      "d": 702.8975666666665,
      "v": 112
    },
    {
      "midi": 55,
      "hit": false,
      "t": 115224.4763666668,
      "d": 1188.4041333333298,
      "v": 112
    },
    {
      "midi": 65,
      "hit": false,
      "t": 115659.2583666668,
      "d": 681.1584666666604,
      "v": 112
    },
    {
      "midi": 55,
      "hit": false,
      "t": 116086.79400000052,
      "d": 434.7820000000065,
      "v": 55
    },
    {
      "midi": 67,
      "hit": false,
      "t": 116094.0403666668,
      "d": 644.9266333333362,
      "v": 112
    },
    {
      "midi": 48,
      "hit": false,
      "t": 116521.57600000052,
      "d": 652.1730000000098,
      "v": 68
    },
    {
      "midi": 58,
      "hit": false,
      "t": 116521.57600000052,
      "d": 1739.1280000000115,
      "v": 71
    },
    {
      "midi": 64,
      "hit": false,
      "t": 116521.57600000052,
      "d": 1739.1280000000115,
      "v": 71
    },
    {
      "midi": 58,
      "hit": false,
      "t": 116528.8223666668,
      "d": 427.53563333333295,
      "v": 112
    },
    {
      "midi": 48,
      "hit": false,
      "t": 116528.8223666668,
      "d": 644.9266333333362,
      "v": 112
    },
    {
      "midi": 60,
      "hit": false,
      "t": 116572.3005666668,
      "d": 1094.2013666666608,
      "v": 112
    },
    {
      "midi": 55,
      "hit": false,
      "t": 116956.35800000053,
      "d": 623.1875333333446,
      "v": 71
    },
    {
      "midi": 52,
      "hit": false,
      "t": 116963.60436666681,
      "d": 601.4484333333239,
      "v": 112
    },
    {
      "midi": 52,
      "hit": false,
      "t": 117391.14000000054,
      "d": 601.4484333333385,
      "v": 71
    },
    {
      "midi": 55,
      "hit": false,
      "t": 117398.3863666668,
      "d": 869.5639999999985,
      "v": 112
    },
    {
      "midi": 55,
      "hit": false,
      "t": 117825.92200000054,
      "d": 434.78199999999197,
      "v": 71
    },
    {
      "midi": 60,
      "hit": false,
      "t": 117833.1683666668,
      "d": 427.53563333333295,
      "v": 112
    },
    {
      "midi": 43,
      "hit": false,
      "t": 118260.70400000054,
      "d": 652.1730000000098,
      "v": 68
    },
    {
      "midi": 53,
      "hit": false,
      "t": 118260.70400000054,
      "d": 1739.1280000000115,
      "v": 71
    },
    {
      "midi": 58,
      "hit": false,
      "t": 118260.70400000054,
      "d": 1739.1280000000115,
      "v": 71
    },
    {
      "midi": 43,
      "hit": false,
      "t": 118267.9503666668,
      "d": 659.4193666666688,
      "v": 112
    },
    {
      "midi": 62,
      "hit": false,
      "t": 118267.9503666668,
      "d": 1717.3888999999908,
      "v": 112
    },
    {
      "midi": 65,
      "hit": false,
      "t": 118267.9503666668,
      "d": 1739.127999999997,
      "v": 112
    },
    {
      "midi": 70,
      "hit": false,
      "t": 118282.44310000014,
      "d": 1137.6795666666585,
      "v": 112
    },
    {
      "midi": 50,
      "hit": false,
      "t": 118695.48600000054,
      "d": 623.1875333333446,
      "v": 71
    },
    {
      "midi": 50,
      "hit": false,
      "t": 118702.73236666681,
      "d": 565.2165999999852,
      "v": 112
    },
    {
      "midi": 46,
      "hit": false,
      "t": 119130.26800000055,
      "d": 601.4484333333385,
      "v": 71
    },
    {
      "midi": 58,
      "hit": false,
      "t": 119137.5143666668,
      "d": 1021.7376999999979,
      "v": 112
    },
    {
      "midi": 50,
      "hit": false,
      "t": 119565.05000000056,
      "d": 434.78199999999197,
      "v": 71
    },
    {
      "midi": 70,
      "hit": false,
      "t": 119572.2963666668,
      "d": 427.53563333333295,
      "v": 112
    },
    {
      "midi": 55,
      "hit": false,
      "t": 119999.83200000055,
      "d": 891.3031000000192,
      "v": 61
    },
    {
      "midi": 36,
      "hit": false,
      "t": 119999.83200000055,
      "d": 1739.128000000026,
      "v": 26
    },
    {
      "midi": 64,
      "hit": false,
      "t": 119999.83200000055,
      "d": 1739.128000000026,
      "v": 71
    },
    {
      "midi": 64,
      "hit": false,
      "t": 120007.0783666668,
      "d": 427.53563333333295,
      "v": 112
    },
    {
      "midi": 48,
      "hit": false,
      "t": 120007.0783666668,
      "d": 623.1875333333446,
      "v": 112
    },
    {
      "midi": 60,
      "hit": false,
      "t": 120007.0783666668,
      "d": 1666.6643333333486,
      "v": 112
    },
    {
      "midi": 69,
      "hit": false,
      "t": 120021.57110000013,
      "d": 644.9266333333508,
      "v": 112
    },
    {
      "midi": 43,
      "hit": false,
      "t": 120434.61400000055,
      "d": 1304.3460000000196,
      "v": 58
    },
    {
      "midi": 67,
      "hit": false,
      "t": 120441.8603666668,
      "d": 565.2165999999997,
      "v": 112
    },
    {
      "midi": 55,
      "hit": false,
      "t": 120441.8603666668,
      "d": 586.9557000000059,
      "v": 112
    },
    {
      "midi": 48,
      "hit": false,
      "t": 120869.39600000056,
      "d": 869.564000000013,
      "v": 54
    },
    {
      "midi": 58,
      "hit": false,
      "t": 120876.64236666681,
      "d": 1036.230433333345,
      "v": 112
    },
    {
      "midi": 65,
      "hit": false,
      "t": 120891.13510000015,
      "d": 586.9557000000059,
      "v": 112
    },
    {
      "midi": 55,
      "hit": false,
      "t": 121304.17800000057,
      "d": 434.7820000000065,
      "v": 55
    },
    {
      "midi": 64,
      "hit": false,
      "t": 121311.42436666682,
      "d": 427.53563333333295,
      "v": 112
    },
    {
      "midi": 57,
      "hit": false,
      "t": 121738.96000000057,
      "d": 833.3321666666743,
      "v": 45
    },
    {
      "midi": 60,
      "hit": false,
      "t": 121738.96000000057,
      "d": 833.3321666666743,
      "v": 65
    },
    {
      "midi": 65,
      "hit": false,
      "t": 121738.96000000057,
      "d": 869.564000000013,
      "v": 64
    },
    {
      "midi": 41,
      "hit": false,
      "t": 121738.96000000057,
      "d": 1739.128000000026,
      "v": 60
    },
    {
      "midi": 41,
      "hit": false,
      "t": 121746.20636666683,
      "d": 601.4484333333239,
      "v": 112
    },
    {
      "midi": 60,
      "hit": false,
      "t": 121746.20636666683,
      "d": 1855.0698666666285,
      "v": 112
    },
    {
      "midi": 57,
      "hit": false,
      "t": 121746.20636666683,
      "d": 1891.3016999999672,
      "v": 112
    },
    {
      "midi": 65,
      "hit": false,
      "t": 121746.20636666683,
      "d": 2340.576433333292,
      "v": 112
    },
    {
      "midi": 36,
      "hit": false,
      "t": 122173.74200000058,
      "d": 1304.3460000000196,
      "v": 57
    },
    {
      "midi": 48,
      "hit": false,
      "t": 122180.98836666682,
      "d": 659.4193666666542,
      "v": 112
    },
    {
      "midi": 53,
      "hit": false,
      "t": 122615.77036666681,
      "d": 565.2165999999852,
      "v": 112
    },
    {
      "midi": 53,
      "hit": false,
      "t": 123043.3060000006,
      "d": 434.7820000000065,
      "v": 60
    },
    {
      "midi": 41,
      "hit": false,
      "t": 123050.5523666668,
      "d": 659.4193666666542,
      "v": 112
    },
    {
      "midi": 48,
      "hit": false,
      "t": 123478.0880000006,
      "d": 869.564000000013,
      "v": 67
    },
    {
      "midi": 58,
      "hit": false,
      "t": 123478.0880000006,
      "d": 869.564000000013,
      "v": 72
    },
    {
      "midi": 63,
      "hit": false,
      "t": 123478.0880000006,
      "d": 869.564000000013,
      "v": 72
    },
    {
      "midi": 55,
      "hit": false,
      "t": 123485.3343666668,
      "d": 1021.7376999999833,
      "v": 112
    },
    {
      "midi": 48,
      "hit": false,
      "t": 123485.3343666668,
      "d": 1036.230433333316,
      "v": 112
    },
    {
      "midi": 58,
      "hit": false,
      "t": 123485.3343666668,
      "d": 1036.230433333316,
      "v": 112
    },
    {
      "midi": 63,
      "hit": false,
      "t": 123499.82710000013,
      "d": 739.1293999999907,
      "v": 112
    },
    {
      "midi": 55,
      "hit": false,
      "t": 123912.8700000006,
      "d": 434.7820000000065,
      "v": 72
    },
    {
      "midi": 53,
      "hit": false,
      "t": 124347.65200000061,
      "d": 833.3321666666743,
      "v": 45
    },
    {
      "midi": 57,
      "hit": false,
      "t": 124347.65200000061,
      "d": 833.3321666666743,
      "v": 65
    },
    {
      "midi": 41,
      "hit": false,
      "t": 124347.65200000061,
      "d": 869.564000000013,
      "v": 60
    },
    {
      "midi": 63,
      "hit": false,
      "t": 124347.65200000061,
      "d": 869.564000000013,
      "v": 64
    },
    {
      "midi": 41,
      "hit": false,
      "t": 124354.89836666678,
      "d": 985.5058666666591,
      "v": 112
    },
    {
      "midi": 57,
      "hit": false,
      "t": 124354.89836666678,
      "d": 999.9985999999917,
      "v": 112
    },
    {
      "midi": 60,
      "hit": false,
      "t": 124354.89836666678,
      "d": 1021.7376999999979,
      "v": 112
    },
    {
      "midi": 63,
      "hit": false,
      "t": 124369.39110000011,
      "d": 999.9985999999917,
      "v": 112
    },
    {
      "midi": 36,
      "hit": false,
      "t": 124782.43400000062,
      "d": 434.7820000000065,
      "v": 57
    },
    {
      "midi": 65,
      "hit": false,
      "t": 124789.68036666677,
      "d": 413.0429000000004,
      "v": 112
    },
    {
      "midi": 53,
      "hit": false,
      "t": 125217.21600000063,
      "d": 833.3321666666743,
      "v": 45
    },
    {
      "midi": 58,
      "hit": false,
      "t": 125217.21600000063,
      "d": 833.3321666666743,
      "v": 65
    },
    {
      "midi": 62,
      "hit": false,
      "t": 125217.21600000063,
      "d": 869.564000000013,
      "v": 64
    },
    {
      "midi": 34,
      "hit": false,
      "t": 125217.21600000063,
      "d": 1739.128000000026,
      "v": 60
    },
    {
      "midi": 46,
      "hit": false,
      "t": 125224.46236666678,
      "d": 623.1875333333446,
      "v": 112
    },
    {
      "midi": 65,
      "hit": false,
      "t": 125224.46236666678,
      "d": 1188.4041333333444,
      "v": 112
    },
    {
      "midi": 70,
      "hit": false,
      "t": 125224.46236666678,
      "d": 1188.4041333333444,
      "v": 112
    },
    {
      "midi": 74,
      "hit": false,
      "t": 125238.95510000011,
      "d": 1188.4041333333444,
      "v": 112
    },
    {
      "midi": 41,
      "hit": false,
      "t": 125651.99800000063,
      "d": 1304.3460000000196,
      "v": 57
    },
    {
      "midi": 53,
      "hit": false,
      "t": 125659.24436666678,
      "d": 644.9266333333362,
      "v": 112
    },
    {
      "midi": 46,
      "hit": false,
      "t": 126086.78000000064,
      "d": 869.564000000013,
      "v": 60
    },
    {
      "midi": 58,
      "hit": false,
      "t": 126094.02636666679,
      "d": 659.4193666666542,
      "v": 112
    },
    {
      "midi": 50,
      "hit": false,
      "t": 126521.56200000065,
      "d": 434.7820000000065,
      "v": 60
    },
    {
      "midi": 62,
      "hit": false,
      "t": 126528.80836666678,
      "d": 623.1875333333301,
      "v": 112
    },
    {
      "midi": 65,
      "hit": false,
      "t": 126528.80836666678,
      "d": 623.1875333333301,
      "v": 112
    },
    {
      "midi": 46,
      "hit": false,
      "t": 126956.34400000065,
      "d": 797.1003333333356,
      "v": 70
    },
    {
      "midi": 64,
      "hit": false,
      "t": 126956.34400000065,
      "d": 1739.1280000000115,
      "v": 70
    },
    {
      "midi": 64,
      "hit": false,
      "t": 126963.59036666677,
      "d": 586.9557000000059,
      "v": 112
    },
    {
      "midi": 50,
      "hit": false,
      "t": 126963.59036666677,
      "d": 644.9266333333362,
      "v": 112
    },
    {
      "midi": 55,
      "hit": false,
      "t": 127391.12600000066,
      "d": 855.0712666666659,
      "v": 70
    },
    {
      "midi": 65,
      "hit": false,
      "t": 127398.37236666678,
      "d": 601.4484333333239,
      "v": 112
    },
    {
      "midi": 52,
      "hit": false,
      "t": 127398.37236666678,
      "d": 644.9266333333217,
      "v": 112
    },
    {
      "midi": 52,
      "hit": false,
      "t": 127825.90800000065,
      "d": 833.3321666666743,
      "v": 70
    },
    {
      "midi": 55,
      "hit": false,
      "t": 127833.15436666677,
      "d": 586.9556999999913,
      "v": 112
    },
    {
      "midi": 67,
      "hit": false,
      "t": 127833.15436666677,
      "d": 644.9266333333217,
      "v": 112
    },
    {
      "midi": 55,
      "hit": false,
      "t": 128260.69000000066,
      "d": 434.7820000000065,
      "v": 70
    },
    {
      "midi": 74,
      "hit": false,
      "t": 128267.93636666676,
      "d": 427.53563333333295,
      "v": 112
    },
    {
      "midi": 60,
      "hit": false,
      "t": 128267.93636666676,
      "d": 456.52110000001267,
      "v": 112
    },
    {
      "midi": 45,
      "hit": false,
      "t": 128695.47200000066,
      "d": 652.1730000000098,
      "v": 68
    },
    {
      "midi": 55,
      "hit": false,
      "t": 128695.47200000066,
      "d": 1739.1280000000115,
      "v": 71
    },
    {
      "midi": 60,
      "hit": false,
      "t": 128695.47200000066,
      "d": 1739.1280000000115,
      "v": 71
    },
    {
      "midi": 45,
      "hit": false,
      "t": 128702.71836666677,
      "d": 623.1875333333446,
      "v": 112
    },
    {
      "midi": 67,
      "hit": false,
      "t": 128702.71836666677,
      "d": 1152.1723000000056,
      "v": 112
    },
    {
      "midi": 64,
      "hit": false,
      "t": 128702.71836666677,
      "d": 1173.9114000000118,
      "v": 112
    },
    {
      "midi": 72,
      "hit": false,
      "t": 128717.2111000001,
      "d": 1210.1432333333505,
      "v": 112
    },
    {
      "midi": 52,
      "hit": false,
      "t": 129130.25400000067,
      "d": 623.1875333333446,
      "v": 71
    },
    {
      "midi": 52,
      "hit": false,
      "t": 129137.50036666678,
      "d": 601.4484333333385,
      "v": 112
    },
    {
      "midi": 48,
      "hit": false,
      "t": 129565.03600000068,
      "d": 601.4484333333385,
      "v": 71
    },
    {
      "midi": 55,
      "hit": false,
      "t": 129572.28236666678,
      "d": 659.4193666666688,
      "v": 112
    },
    {
      "midi": 52,
      "hit": false,
      "t": 129999.81800000068,
      "d": 434.78199999999197,
      "v": 71
    },
    {
      "midi": 60,
      "hit": false,
      "t": 130007.06436666679,
      "d": 427.53563333333295,
      "v": 112
    },
    {
      "midi": 67,
      "hit": false,
      "t": 130007.06436666679,
      "d": 565.2165999999997,
      "v": 112
    },
    {
      "midi": 50,
      "hit": false,
      "t": 130434.60000000068,
      "d": 797.1003333333356,
      "v": 70
    },
    {
      "midi": 65,
      "hit": false,
      "t": 130434.60000000068,
      "d": 1739.127999999997,
      "v": 70
    },
    {
      "midi": 50,
      "hit": false,
      "t": 130441.8463666668,
      "d": 565.2165999999852,
      "v": 112
    },
    {
      "midi": 65,
      "hit": false,
      "t": 130441.8463666668,
      "d": 1137.679566666673,
      "v": 112
    },
    {
      "midi": 60,
      "hit": false,
      "t": 130441.8463666668,
      "d": 1739.1280000000115,
      "v": 112
    },
    {
      "midi": 57,
      "hit": false,
      "t": 130869.38200000068,
      "d": 855.0712666666659,
      "v": 70
    },
    {
      "midi": 53,
      "hit": false,
      "t": 130876.62836666679,
      "d": 550.7238666666672,
      "v": 112
    },
    {
      "midi": 53,
      "hit": false,
      "t": 131304.1640000007,
      "d": 833.3321666666598,
      "v": 70
    },
    {
      "midi": 57,
      "hit": false,
      "t": 131311.4103666668,
      "d": 905.7958333333372,
      "v": 112
    },
    {
      "midi": 57,
      "hit": false,
      "t": 131738.9460000007,
      "d": 434.7819999999774,
      "v": 70
    },
    {
      "midi": 65,
      "hit": false,
      "t": 131746.1923666668,
      "d": 427.5356333333475,
      "v": 112
    },
    {
      "midi": 43,
      "hit": false,
      "t": 132173.72800000067,
      "d": 608.6947999999975,
      "v": 71
    },
    {
      "midi": 62,
      "hit": false,
      "t": 132173.72800000067,
      "d": 1086.9549999999872,
      "v": 71
    },
    {
      "midi": 65,
      "hit": false,
      "t": 132180.9743666668,
      "d": 528.9847666666319,
      "v": 112
    },
    {
      "midi": 70,
      "hit": false,
      "t": 132180.9743666668,
      "d": 601.4484333333094,
      "v": 112
    },
    {
      "midi": 43,
      "hit": false,
      "t": 132180.9743666668,
      "d": 644.9266333333217,
      "v": 112
    },
    {
      "midi": 62,
      "hit": false,
      "t": 132180.9743666668,
      "d": 1644.9252333333425,
      "v": 112
    },
    {
      "midi": 50,
      "hit": false,
      "t": 132608.51000000068,
      "d": 579.7093333333032,
      "v": 66
    },
    {
      "midi": 50,
      "hit": false,
      "t": 132615.75636666678,
      "d": 565.2166000000143,
      "v": 112
    },
    {
      "midi": 69,
      "hit": false,
      "t": 132615.75636666678,
      "d": 601.4484333333385,
      "v": 112
    },
    {
      "midi": 55,
      "hit": false,
      "t": 133043.29200000066,
      "d": 362.31833333332906,
      "v": 67
    },
    {
      "midi": 46,
      "hit": false,
      "t": 133043.29200000066,
      "d": 623.1875333333446,
      "v": 71
    },
    {
      "midi": 67,
      "hit": false,
      "t": 133050.5383666668,
      "d": 586.9557000000204,
      "v": 112
    },
    {
      "midi": 58,
      "hit": false,
      "t": 133050.5383666668,
      "d": 1057.9695333333511,
      "v": 112
    },
    {
      "midi": 57,
      "hit": false,
      "t": 133260.68300000066,
      "d": 405.79653333334136,
      "v": 71
    },
    {
      "midi": 58,
      "hit": false,
      "t": 133478.07400000066,
      "d": 376.8110666666762,
      "v": 71
    },
    {
      "midi": 50,
      "hit": false,
      "t": 133478.07400000066,
      "d": 434.7820000000065,
      "v": 71
    },
    {
      "midi": 65,
      "hit": false,
      "t": 133485.3203666668,
      "d": 427.5356333333475,
      "v": 112
    },
    {
      "midi": 62,
      "hit": false,
      "t": 133695.46500000067,
      "d": 217.39100000000326,
      "v": 71
    },
    {
      "midi": 55,
      "hit": false,
      "t": 133912.85600000067,
      "d": 833.3321666666598,
      "v": 45
    },
    {
      "midi": 58,
      "hit": false,
      "t": 133912.85600000067,
      "d": 833.3321666666598,
      "v": 65
    },
    {
      "midi": 65,
      "hit": false,
      "t": 133912.85600000067,
      "d": 869.5639999999839,
      "v": 64
    },
    {
      "midi": 36,
      "hit": false,
      "t": 133912.85600000067,
      "d": 1739.127999999997,
      "v": 60
    },
    {
      "midi": 62,
      "hit": false,
      "t": 133920.1023666668,
      "d": 427.5356333333475,
      "v": 112
    },
    {
      "midi": 65,
      "hit": false,
      "t": 133920.1023666668,
      "d": 427.5356333333475,
      "v": 112
    },
    {
      "midi": 70,
      "hit": false,
      "t": 133920.1023666668,
      "d": 586.9557000000204,
      "v": 112
    },
    {
      "midi": 48,
      "hit": false,
      "t": 133920.1023666668,
      "d": 623.1875333333446,
      "v": 112
    },
    {
      "midi": 38,
      "hit": false,
      "t": 134347.63800000068,
      "d": 1304.3459999999905,
      "v": 57
    },
    {
      "midi": 55,
      "hit": false,
      "t": 134354.8843666668,
      "d": 528.984766666661,
      "v": 112
    },
    {
      "midi": 72,
      "hit": false,
      "t": 134354.8843666668,
      "d": 586.9556999999913,
      "v": 112
    },
    {
      "midi": 74,
      "hit": false,
      "t": 134789.66636666682,
      "d": 586.9556999999913,
      "v": 112
    },
    {
      "midi": 58,
      "hit": false,
      "t": 134789.66636666682,
      "d": 1021.7376999999979,
      "v": 112
    },
    {
      "midi": 53,
      "hit": false,
      "t": 135217.20200000066,
      "d": 434.7820000000065,
      "v": 60
    },
    {
      "midi": 70,
      "hit": false,
      "t": 135224.4483666668,
      "d": 427.5356333333475,
      "v": 112
    },
    {
      "midi": 67,
      "hit": false,
      "t": 135622.99853333348,
      "d": 1717.38890000002,
      "v": 112
    },
    {
      "midi": 53,
      "hit": false,
      "t": 135651.98400000067,
      "d": 608.6947999999975,
      "v": 71
    },
    {
      "midi": 72,
      "hit": false,
      "t": 135651.98400000067,
      "d": 1086.9549999999872,
      "v": 71
    },
    {
      "midi": 41,
      "hit": false,
      "t": 135659.2303666668,
      "d": 644.9266333333508,
      "v": 112
    },
    {
      "midi": 72,
      "hit": false,
      "t": 135659.2303666668,
      "d": 1855.0698666666867,
      "v": 112
    },
    {
      "midi": 60,
      "hit": false,
      "t": 135659.2303666668,
      "d": 1891.301700000011,
      "v": 112
    },
    {
      "midi": 69,
      "hit": false,
      "t": 135659.2303666668,
      "d": 1927.533533333335,
      "v": 112
    },
    {
      "midi": 60,
      "hit": false,
      "t": 136086.76600000067,
      "d": 579.7093333333032,
      "v": 66
    },
    {
      "midi": 48,
      "hit": false,
      "t": 136094.0123666668,
      "d": 644.9266333333508,
      "v": 112
    },
    {
      "midi": 67,
      "hit": false,
      "t": 136521.54800000065,
      "d": 362.31833333332906,
      "v": 67
    },
    {
      "midi": 57,
      "hit": false,
      "t": 136521.54800000065,
      "d": 623.1875333333446,
      "v": 71
    },
    {
      "midi": 57,
      "hit": false,
      "t": 136528.7943666668,
      "d": 601.4484333333385,
      "v": 112
    },
    {
      "midi": 69,
      "hit": false,
      "t": 136956.33000000066,
      "d": 376.8110666666762,
      "v": 71
    },
    {
      "midi": 60,
      "hit": false,
      "t": 136956.33000000066,
      "d": 434.7820000000065,
      "v": 71
    },
    {
      "midi": 53,
      "hit": false,
      "t": 136963.57636666682,
      "d": 623.1875333333155,
      "v": 112
    },
    {
      "midi": 72,
      "hit": false,
      "t": 137173.72100000066,
      "d": 217.39100000000326,
      "v": 71
    },
    {
      "midi": 48,
      "hit": false,
      "t": 137391.11200000066,
      "d": 869.564000000013,
      "v": 67
    },
    {
      "midi": 58,
      "hit": false,
      "t": 137391.11200000066,
      "d": 869.564000000013,
      "v": 72
    },
    {
      "midi": 63,
      "hit": false,
      "t": 137391.11200000066,
      "d": 869.564000000013,
      "v": 72
    },
    {
      "midi": 63,
      "hit": false,
      "t": 137398.35836666683,
      "d": 855.0712666666368,
      "v": 112
    },
    {
      "midi": 48,
      "hit": false,
      "t": 137398.35836666683,
      "d": 999.9985999999917,
      "v": 112
    },
    {
      "midi": 55,
      "hit": false,
      "t": 137398.35836666683,
      "d": 999.9985999999917,
      "v": 112
    },
    {
      "midi": 58,
      "hit": false,
      "t": 137398.35836666683,
      "d": 1152.1723000000056,
      "v": 112
    },
    {
      "midi": 65,
      "hit": false,
      "t": 137434.59020000015,
      "d": 1115.9404666666815,
      "v": 112
    },
    {
      "midi": 55,
      "hit": false,
      "t": 137825.89400000067,
      "d": 434.7820000000065,
      "v": 72
    },
    {
      "midi": 53,
      "hit": false,
      "t": 138260.67600000068,
      "d": 869.564000000013,
      "v": 67
    },
    {
      "midi": 63,
      "hit": false,
      "t": 138260.67600000068,
      "d": 869.564000000013,
      "v": 72
    },
    {
      "midi": 69,
      "hit": false,
      "t": 138260.67600000068,
      "d": 869.564000000013,
      "v": 72
    },
    {
      "midi": 63,
      "hit": false,
      "t": 138267.9223666668,
      "d": 427.5356333333475,
      "v": 112
    },
    {
      "midi": 57,
      "hit": false,
      "t": 138267.9223666668,
      "d": 869.564000000013,
      "v": 112
    },
    {
      "midi": 60,
      "hit": false,
      "t": 138267.9223666668,
      "d": 869.564000000013,
      "v": 112
    },
    {
      "midi": 41,
      "hit": false,
      "t": 138267.9223666668,
      "d": 999.9986000000208,
      "v": 112
    },
    {
      "midi": 60,
      "hit": false,
      "t": 138695.45800000068,
      "d": 434.7820000000065,
      "v": 72
    },
    {
      "midi": 65,
      "hit": false,
      "t": 138702.70436666682,
      "d": 427.5356333333475,
      "v": 112
    },
    {
      "midi": 46,
      "hit": false,
      "t": 139130.2400000007,
      "d": 608.6947999999975,
      "v": 71
    },
    {
      "midi": 65,
      "hit": false,
      "t": 139130.2400000007,
      "d": 1086.9549999999872,
      "v": 71
    },
    {
      "midi": 46,
      "hit": false,
      "t": 139137.48636666682,
      "d": 601.4484333333385,
      "v": 112
    },
    {
      "midi": 65,
      "hit": false,
      "t": 139137.48636666682,
      "d": 1152.1723000000056,
      "v": 112
    },
    {
      "midi": 70,
      "hit": false,
      "t": 139137.48636666682,
      "d": 1173.9114000000118,
      "v": 112
    },
    {
      "midi": 74,
      "hit": false,
      "t": 139151.97910000017,
      "d": 1173.9114000000118,
      "v": 112
    },
    {
      "midi": 53,
      "hit": false,
      "t": 139565.0220000007,
      "d": 579.7093333333032,
      "v": 66
    },
    {
      "midi": 53,
      "hit": false,
      "t": 139572.26836666683,
      "d": 623.1875333333446,
      "v": 112
    },
    {
      "midi": 58,
      "hit": false,
      "t": 139999.80400000067,
      "d": 362.31833333332906,
      "v": 67
    },
    {
      "midi": 50,
      "hit": false,
      "t": 139999.80400000067,
      "d": 623.1875333333446,
      "v": 71
    },
    {
      "midi": 58,
      "hit": false,
      "t": 140007.05036666684,
      "d": 586.9557000000204,
      "v": 112
    },
    {
      "midi": 60,
      "hit": false,
      "t": 140217.19500000068,
      "d": 405.79653333334136,
      "v": 71
    },
    {
      "midi": 62,
      "hit": false,
      "t": 140434.58600000068,
      "d": 376.8110666666762,
      "v": 71
    },
    {
      "midi": 53,
      "hit": false,
      "t": 140434.58600000068,
      "d": 434.7820000000065,
      "v": 71
    },
    {
      "midi": 65,
      "hit": false,
      "t": 140441.83236666684,
      "d": 623.1875333333446,
      "v": 112
    },
    {
      "midi": 62,
      "hit": false,
      "t": 140441.83236666684,
      "d": 644.9266333333508,
      "v": 112
    },
    {
      "midi": 65,
      "hit": false,
      "t": 140651.97700000068,
      "d": 217.39100000000326,
      "v": 71
    },
    {
      "midi": 46,
      "hit": false,
      "t": 140869.3680000007,
      "d": 608.6947999999975,
      "v": 71
    },
    {
      "midi": 67,
      "hit": false,
      "t": 140869.3680000007,
      "d": 1086.9549999999872,
      "v": 71
    },
    {
      "midi": 46,
      "hit": false,
      "t": 140876.61436666685,
      "d": 550.7238666666963,
      "v": 112
    },
    {
      "midi": 64,
      "hit": false,
      "t": 140876.61436666685,
      "d": 601.4484333333676,
      "v": 112
    },
    {
      "midi": 55,
      "hit": false,
      "t": 141304.1500000007,
      "d": 579.7093333333032,
      "v": 66
    },
    {
      "midi": 52,
      "hit": false,
      "t": 141311.39636666686,
      "d": 565.2166000000434,
      "v": 112
    },
    {
      "midi": 65,
      "hit": false,
      "t": 141325.8891000002,
      "d": 601.4484333333676,
      "v": 112
    },
    {
      "midi": 60,
      "hit": false,
      "t": 141738.93200000067,
      "d": 362.31833333332906,
      "v": 67
    },
    {
      "midi": 52,
      "hit": false,
      "t": 141738.93200000067,
      "d": 623.1875333333446,
      "v": 71
    },
    {
      "midi": 55,
      "hit": false,
      "t": 141746.1783666669,
      "d": 601.4484333333385,
      "v": 112
    },
    {
      "midi": 67,
      "hit": false,
      "t": 141760.67110000024,
      "d": 492.75293333333684,
      "v": 112
    },
    {
      "midi": 62,
      "hit": false,
      "t": 141956.32300000067,
      "d": 405.79653333334136,
      "v": 71
    },
    {
      "midi": 64,
      "hit": false,
      "t": 142173.71400000068,
      "d": 376.8110666666762,
      "v": 71
    },
    {
      "midi": 55,
      "hit": false,
      "t": 142173.71400000068,
      "d": 434.7820000000065,
      "v": 71
    },
    {
      "midi": 60,
      "hit": false,
      "t": 142180.9603666669,
      "d": 427.5356333333184,
      "v": 112
    },
    {
      "midi": 74,
      "hit": false,
      "t": 142195.45310000025,
      "d": 413.04289999997127,
      "v": 112
    },
    {
      "midi": 67,
      "hit": false,
      "t": 142391.10500000068,
      "d": 217.39100000000326,
      "v": 71
    },
    {
      "midi": 45,
      "hit": false,
      "t": 142608.49600000068,
      "d": 652.1730000000098,
      "v": 68
    },
    {
      "midi": 55,
      "hit": false,
      "t": 142608.49600000068,
      "d": 1739.128000000026,
      "v": 71
    },
    {
      "midi": 60,
      "hit": false,
      "t": 142608.49600000068,
      "d": 1739.128000000026,
      "v": 71
    },
    {
      "midi": 45,
      "hit": false,
      "t": 142615.74236666688,
      "d": 601.4484333333385,
      "v": 112
    },
    {
      "midi": 72,
      "hit": false,
      "t": 142615.74236666688,
      "d": 1057.9695333333511,
      "v": 112
    },
    {
      "midi": 64,
      "hit": false,
      "t": 142615.74236666688,
      "d": 1739.127999999997,
      "v": 112
    },
    {
      "midi": 67,
      "hit": false,
      "t": 142615.74236666688,
      "d": 1739.127999999997,
      "v": 112
    },
    {
      "midi": 52,
      "hit": false,
      "t": 143043.2780000007,
      "d": 623.1875333333446,
      "v": 71
    },
    {
      "midi": 52,
      "hit": false,
      "t": 143050.52436666688,
      "d": 717.3902999999991,
      "v": 112
    },
    {
      "midi": 48,
      "hit": false,
      "t": 143478.0600000007,
      "d": 601.4484333333385,
      "v": 71
    },
    {
      "midi": 55,
      "hit": false,
      "t": 143485.3063666669,
      "d": 659.4193666666688,
      "v": 112
    },
    {
      "midi": 76,
      "hit": false,
      "t": 143485.3063666669,
      "d": 869.5639999999839,
      "v": 112
    },
    {
      "midi": 52,
      "hit": false,
      "t": 143912.8420000007,
      "d": 434.7820000000065,
      "v": 71
    },
    {
      "midi": 60,
      "hit": false,
      "t": 143920.0883666669,
      "d": 427.5356333333184,
      "v": 112
    },
    {
      "midi": 50,
      "hit": false,
      "t": 144347.6240000007,
      "d": 652.1730000000098,
      "v": 68
    },
    {
      "midi": 60,
      "hit": false,
      "t": 144347.6240000007,
      "d": 1739.128000000026,
      "v": 71
    },
    {
      "midi": 65,
      "hit": false,
      "t": 144347.6240000007,
      "d": 1739.128000000026,
      "v": 71
    },
    {
      "midi": 65,
      "hit": false,
      "t": 144354.87036666687,
      "d": 1152.1723000000056,
      "v": 112
    },
    {
      "midi": 69,
      "hit": false,
      "t": 144354.87036666687,
      "d": 1231.882333333342,
      "v": 112
    },
    {
      "midi": 72,
      "hit": false,
      "t": 144354.87036666687,
      "d": 1246.3750666666892,
      "v": 112
    },
    {
      "midi": 57,
      "hit": false,
      "t": 144354.87036666687,
      "d": 1739.128000000026,
      "v": 112
    },
    {
      "midi": 60,
      "hit": false,
      "t": 144354.87036666687,
      "d": 1760.8671000000322,
      "v": 112
    },
    {
      "midi": 77,
      "hit": false,
      "t": 144369.36310000022,
      "d": 1210.143233333336,
      "v": 112
    },
    {
      "midi": 57,
      "hit": false,
      "t": 144782.40600000072,
      "d": 623.1875333333446,
      "v": 71
    },
    {
      "midi": 53,
      "hit": false,
      "t": 145217.18800000072,
      "d": 601.4484333333385,
      "v": 71
    },
    {
      "midi": 57,
      "hit": false,
      "t": 145651.97000000073,
      "d": 434.7820000000065,
      "v": 71
    },
    {
      "midi": 65,
      "hit": false,
      "t": 145659.2163666669,
      "d": 427.5356333333475,
      "v": 112
    },
    {
      "midi": 43,
      "hit": false,
      "t": 146086.75200000074,
      "d": 797.1003333333356,
      "v": 70
    },
    {
      "midi": 58,
      "hit": false,
      "t": 146086.75200000074,
      "d": 1739.127999999997,
      "v": 70
    },
    {
      "midi": 50,
      "hit": false,
      "t": 146093.9983666669,
      "d": 21.739100000006147,
      "v": 112
    },
    {
      "midi": 65,
      "hit": false,
      "t": 146093.9983666669,
      "d": 586.9557000000204,
      "v": 112
    },
    {
      "midi": 58,
      "hit": false,
      "t": 146093.9983666669,
      "d": 1666.6643333333486,
      "v": 112
    },
    {
      "midi": 62,
      "hit": false,
      "t": 146093.9983666669,
      "d": 1833.3307666666806,
      "v": 112
    },
    {
      "midi": 43,
      "hit": false,
      "t": 146093.9983666669,
      "d": 1927.533533333335,
      "v": 112
    },
    {
      "midi": 70,
      "hit": false,
      "t": 146108.49110000025,
      "d": 601.4484333333385,
      "v": 112
    },
    {
      "midi": 50,
      "hit": false,
      "t": 146521.53400000074,
      "d": 855.0712666666659,
      "v": 70
    },
    {
      "midi": 69,
      "hit": false,
      "t": 146528.7803666669,
      "d": 601.4484333333385,
      "v": 112
    },
    {
      "midi": 46,
      "hit": false,
      "t": 146956.31600000075,
      "d": 833.3321666666598,
      "v": 70
    },
    {
      "midi": 67,
      "hit": false,
      "t": 146963.5623666669,
      "d": 601.4484333333385,
      "v": 112
    },
    {
      "midi": 50,
      "hit": false,
      "t": 147391.09800000075,
      "d": 434.7819999999774,
      "v": 70
    },
    {
      "midi": 65,
      "hit": false,
      "t": 147398.34436666692,
      "d": 427.5356333333184,
      "v": 112
    },
    {
      "midi": 48,
      "hit": false,
      "t": 147825.88000000073,
      "d": 652.1730000000098,
      "v": 68
    },
    {
      "midi": 58,
      "hit": false,
      "t": 147825.88000000073,
      "d": 1739.128000000026,
      "v": 71
    },
    {
      "midi": 65,
      "hit": false,
      "t": 147825.88000000073,
      "d": 1739.128000000026,
      "v": 71
    },
    {
      "midi": 65,
      "hit": false,
      "t": 147833.1263666669,
      "d": 1137.6795666666585,
      "v": 112
    },
    {
      "midi": 60,
      "hit": false,
      "t": 147833.1263666669,
      "d": 1739.127999999997,
      "v": 112
    },
    {
      "midi": 58,
      "hit": false,
      "t": 147833.1263666669,
      "d": 1869.5626000000047,
      "v": 112
    },
    {
      "midi": 48,
      "hit": false,
      "t": 147833.1263666669,
      "d": 1927.533533333335,
      "v": 112
    },
    {
      "midi": 55,
      "hit": false,
      "t": 147833.1263666669,
      "d": 1927.533533333335,
      "v": 112
    },
    {
      "midi": 67,
      "hit": false,
      "t": 147876.6045666669,
      "d": 1152.1722999999765,
      "v": 112
    },
    {
      "midi": 55,
      "hit": false,
      "t": 148260.66200000074,
      "d": 623.1875333333446,
      "v": 71
    },
    {
      "midi": 53,
      "hit": false,
      "t": 148695.44400000075,
      "d": 601.4484333333385,
      "v": 71
    },
    {
      "midi": 55,
      "hit": false,
      "t": 149130.22600000075,
      "d": 434.7820000000065,
      "v": 71
    },
    {
      "midi": 65,
      "hit": false,
      "t": 149137.4723666669,
      "d": 427.5356333333475,
      "v": 112
    },
    {
      "midi": 58,
      "hit": false,
      "t": 149565.00800000076,
      "d": 833.3321666666598,
      "v": 45
    },
    {
      "midi": 60,
      "hit": false,
      "t": 149565.00800000076,
      "d": 833.3321666666598,
      "v": 65
    },
    {
      "midi": 41,
      "hit": false,
      "t": 149565.00800000076,
      "d": 869.5639999999839,
      "v": 60
    },
    {
      "midi": 65,
      "hit": false,
      "t": 149565.00800000076,
      "d": 869.5639999999839,
      "v": 64
    },
    {
      "midi": 41,
      "hit": false,
      "t": 149572.2543666669,
      "d": 623.1875333333446,
      "v": 112
    },
    {
      "midi": 70,
      "hit": false,
      "t": 149572.2543666669,
      "d": 1137.6795666666876,
      "v": 112
    },
    {
      "midi": 65,
      "hit": false,
      "t": 149572.2543666669,
      "d": 2420.286466666701,
      "v": 112
    },
    {
      "midi": 60,
      "hit": false,
      "t": 149572.2543666669,
      "d": 3384.0532333333686,
      "v": 112
    },
    {
      "midi": 36,
      "hit": false,
      "t": 149999.79000000076,
      "d": 434.7819999999774,
      "v": 57
    },
    {
      "midi": 48,
      "hit": false,
      "t": 150007.0363666669,
      "d": 623.1875333333446,
      "v": 112
    },
    {
      "midi": 53,
      "hit": false,
      "t": 150434.57200000074,
      "d": 869.564000000013,
      "v": 67
    },
    {
      "midi": 65,
      "hit": false,
      "t": 150434.57200000074,
      "d": 869.564000000013,
      "v": 72
    },
    {
      "midi": 69,
      "hit": false,
      "t": 150434.57200000074,
      "d": 869.564000000013,
      "v": 72
    },
    {
      "midi": 53,
      "hit": false,
      "t": 150441.8183666669,
      "d": 855.0712666666659,
      "v": 112
    },
    {
      "midi": 69,
      "hit": false,
      "t": 150441.8183666669,
      "d": 1079.7086333333573,
      "v": 112
    },
    {
      "midi": 60,
      "hit": false,
      "t": 150869.35400000075,
      "d": 434.7820000000065,
      "v": 72
    },
    {
      "midi": 53,
      "hit": false,
      "t": 151304.13600000076,
      "d": 869.564000000013,
      "v": 67
    },
    {
      "midi": 67,
      "hit": false,
      "t": 151304.13600000076,
      "d": 869.564000000013,
      "v": 72
    },
    {
      "midi": 69,
      "hit": false,
      "t": 151304.13600000076,
      "d": 869.564000000013,
      "v": 72
    },
    {
      "midi": 55,
      "hit": false,
      "t": 151311.38236666692,
      "d": 855.0712666666659,
      "v": 112
    },
    {
      "midi": 67,
      "hit": false,
      "t": 151311.38236666692,
      "d": 1057.9695333333511,
      "v": 112
    },
    {
      "midi": 60,
      "hit": false,
      "t": 151738.91800000076,
      "d": 434.7820000000065,
      "v": 72
    },
    {
      "midi": 53,
      "hit": false,
      "t": 152173.70000000077,
      "d": 869.564000000013,
      "v": 67
    },
    {
      "midi": 65,
      "hit": false,
      "t": 152173.70000000077,
      "d": 869.564000000013,
      "v": 72
    },
    {
      "midi": 69,
      "hit": false,
      "t": 152173.70000000077,
      "d": 869.564000000013,
      "v": 72
    },
    {
      "midi": 57,
      "hit": false,
      "t": 152180.94636666693,
      "d": 855.0712666666659,
      "v": 112
    },
    {
      "midi": 65,
      "hit": false,
      "t": 152180.94636666693,
      "d": 855.0712666666659,
      "v": 112
    },
    {
      "midi": 60,
      "hit": false,
      "t": 152608.48200000077,
      "d": 434.7820000000065,
      "v": 72
    },
    {
      "midi": 67,
      "hit": false,
      "t": 153014.2785333336,
      "d": 1739.128000000026,
      "v": 112
    },
    {
      "midi": 57,
      "hit": false,
      "t": 153043.26400000078,
      "d": 833.3321666666598,
      "v": 45
    },
    {
      "midi": 60,
      "hit": false,
      "t": 153043.26400000078,
      "d": 833.3321666666598,
      "v": 65
    },
    {
      "midi": 67,
      "hit": false,
      "t": 153043.26400000078,
      "d": 869.5639999999839,
      "v": 64
    },
    {
      "midi": 41,
      "hit": false,
      "t": 153043.26400000078,
      "d": 1739.127999999997,
      "v": 60
    },
    {
      "midi": 60,
      "hit": false,
      "t": 153050.51036666695,
      "d": 1702.8961666666728,
      "v": 112
    },
    {
      "midi": 69,
      "hit": false,
      "t": 153050.51036666695,
      "d": 1855.0698666666576,
      "v": 112
    },
    {
      "midi": 72,
      "hit": false,
      "t": 153050.51036666695,
      "d": 1855.0698666666576,
      "v": 112
    },
    {
      "midi": 36,
      "hit": false,
      "t": 153478.0460000008,
      "d": 1304.3459999999905,
      "v": 57
    },
    {
      "midi": 53,
      "hit": false,
      "t": 154347.61000000077,
      "d": 434.7820000000065,
      "v": 60
    },
    {
      "midi": 57,
      "hit": false,
      "t": 154782.39200000078,
      "d": 891.3031000000192,
      "v": 61
    },
    {
      "midi": 41,
      "hit": false,
      "t": 154782.39200000078,
      "d": 1739.128000000026,
      "v": 26
    },
    {
      "midi": 69,
      "hit": false,
      "t": 154782.39200000078,
      "d": 1739.128000000026,
      "v": 71
    },
    {
      "midi": 65,
      "hit": false,
      "t": 154789.63836666694,
      "d": 94.2027666666545,
      "v": 112
    },
    {
      "midi": 58,
      "hit": false,
      "t": 154789.63836666694,
      "d": 427.5356333333184,
      "v": 112
    },
    {
      "midi": 70,
      "hit": false,
      "t": 154789.63836666694,
      "d": 681.1584666666458,
      "v": 112
    },
    {
      "midi": 60,
      "hit": false,
      "t": 154789.63836666694,
      "d": 1681.1570666666667,
      "v": 112
    },
    {
      "midi": 36,
      "hit": false,
      "t": 155217.17400000078,
      "d": 1304.3460000000196,
      "v": 58
    },
    {
      "midi": 57,
      "hit": false,
      "t": 155224.42036666692,
      "d": 427.5356333333475,
      "v": 112
    },
    {
      "midi": 69,
      "hit": false,
      "t": 155224.42036666692,
      "d": 623.1875333333446,
      "v": 112
    },
    {
      "midi": 55,
      "hit": false,
      "t": 155659.20236666693,
      "d": 427.5356333333475,
      "v": 112
    },
    {
      "midi": 67,
      "hit": false,
      "t": 155659.20236666693,
      "d": 659.4193666666688,
      "v": 112
    },
    {
      "midi": 57,
      "hit": false,
      "t": 156086.7380000008,
      "d": 434.7820000000065,
      "v": 55
    },
    {
      "midi": 53,
      "hit": false,
      "t": 156093.98436666693,
      "d": 427.5356333333475,
      "v": 112
    },
    {
      "midi": 65,
      "hit": false,
      "t": 156093.98436666693,
      "d": 427.5356333333475,
      "v": 112
    },
    {
      "midi": 53,
      "hit": false,
      "t": 156521.5200000008,
      "d": 3478.256000000052,
      "v": 71
    },
    {
      "midi": 41,
      "hit": false,
      "t": 156528.76636666694,
      "d": 6818.831033333321,
      "v": 112
    },
    {
      "midi": 48,
      "hit": false,
      "t": 156528.76636666694,
      "d": 6818.831033333321,
      "v": 112
    },
    {
      "midi": 53,
      "hit": false,
      "t": 156528.76636666694,
      "d": 6818.831033333321,
      "v": 112
    },
    {
      "midi": 57,
      "hit": false,
      "t": 156528.76636666694,
      "d": 6818.831033333321,
      "v": 112
    },
    {
      "midi": 60,
      "hit": false,
      "t": 156528.76636666694,
      "d": 6818.831033333321,
      "v": 112
    },
    {
      "midi": 65,
      "hit": false,
      "t": 156528.76636666694,
      "d": 6818.831033333321,
      "v": 112
    },
    {
      "midi": 57,
      "hit": false,
      "t": 156956.3020000008,
      "d": 869.564000000013,
      "v": 71
    },
    {
      "midi": 60,
      "hit": false,
      "t": 157391.08400000082,
      "d": 869.564000000013,
      "v": 71
    },
    {
      "midi": 57,
      "hit": false,
      "t": 157825.86600000082,
      "d": 869.564000000013,
      "v": 68
    },
    {
      "midi": 65,
      "hit": false,
      "t": 158260.64800000083,
      "d": 869.564000000013,
      "v": 71
    },
    {
      "midi": 60,
      "hit": false,
      "t": 158695.43000000084,
      "d": 869.564000000013,
      "v": 69
    },
    {
      "midi": 57,
      "hit": false,
      "t": 159130.21200000084,
      "d": 869.564000000013,
      "v": 71
    },
    {
      "midi": 60,
      "hit": false,
      "t": 159564.99400000085,
      "d": 434.7820000000065,
      "v": 71
    },
    {
      "midi": 57,
      "hit": false,
      "t": 159999.77600000086,
      "d": 833.3321666666598,
      "v": 45
    },
    {
      "midi": 60,
      "hit": false,
      "t": 159999.77600000086,
      "d": 833.3321666666598,
      "v": 65
    },
    {
      "midi": 65,
      "hit": false,
      "t": 159999.77600000086,
      "d": 869.5639999999839,
      "v": 64
    },
    {
      "midi": 41,
      "hit": false,
      "t": 159999.77600000086,
      "d": 3086.9521999999997,
      "v": 60
    },
    {
      "midi": 36,
      "hit": false,
      "t": 160434.55800000086,
      "d": 2695.6484000000055,
      "v": 57
    },
    {
      "midi": 53,
      "hit": false,
      "t": 161304.12200000085,
      "d": 876.810366666672,
      "v": 60
    },
    {
      "midi": 57,
      "hit": false,
      "t": 161738.90400000085,
      "d": 478.2601999999897,
      "v": 64
    },
    {
      "midi": 60,
      "hit": false,
      "t": 162173.68600000086,
      "d": 398.55016666665324,
      "v": 79
    },
    {
      "midi": 65,
      "hit": false,
      "t": 162608.46800000084,
      "d": 456.52110000001267,
      "v": 66
    },
    {
      "midi": 57,
      "hit": false,
      "t": 163043.25000000084,
      "d": 101.44913333337172,
      "v": 65
    },
    {
      "midi": 57,
      "hit": false,
      "t": 163478.03200000088,
      "d": 202.89826666665613,
      "v": 45
    },
    {
      "midi": 60,
      "hit": false,
      "t": 163478.03200000088,
      "d": 202.89826666665613,
      "v": 71
    },
    {
      "midi": 65,
      "hit": false,
      "t": 163478.03200000088,
      "d": 202.89826666665613,
      "v": 66
    },
    {
      "midi": 41,
      "hit": false,
      "t": 163478.03200000088,
      "d": 3007.242166666634,
      "v": 54
    },
    {
      "midi": 36,
      "hit": false,
      "t": 163702.66936666754,
      "d": 195.6518999999971,
      "v": 60
    },
    {
      "midi": 57,
      "hit": false,
      "t": 163970.78493333422,
      "d": 2420.286466666643,
      "v": 56
    },
    {
      "midi": 60,
      "hit": false,
      "t": 164115.71226666754,
      "d": 2840.575733333302,
      "v": 90
    },
    {
      "midi": 65,
      "hit": false,
      "t": 164340.3496333342,
      "d": 2391.3009999999776,
      "v": 76
    },
    {
      "midi": 69,
      "hit": false,
      "t": 164630.20430000086,
      "d": 2297.098233333323,
      "v": 54
    },
    {
      "midi": 72,
      "hit": false,
      "t": 164825.85620000085,
      "d": 1978.2581000000064,
      "v": 64
    }
  ]
}