{
  "jsonPath": "Rock/Pop Rock/Jennifer Love Hewitt/you.json",
  "path": "Rock\\Pop Rock\\Jennifer Love Hewitt\\You.mid",
  "name": "You",
  "difficulty": "Advanced",
  "bpm": 128,
  "notes": [
    {
      "midi": 59,
      "hit": false,
      "t": 95852.05078125,
      "d": 97.65625,
      "v": 92
    },
    {
      "midi": 64,
      "hit": false,
      "t": 95859.375,
      "d": 117.1875,
      "v": 92
    },
    {
      "midi": 45,
      "hit": false,
      "t": 95876.46484375,
      "d": 58.59375,
      "v": 92
    },
    {
      "midi": 45,
      "hit": false,
      "t": 96315.91796875,
      "d": 585.9375,
      "v": 88
    },
    {
      "midi": 60,
      "hit": false,
      "t": 96320.80078125,
      "d": 468.75,
      "v": 88
    },
    {
      "midi": 59,
      "hit": false,
      "t": 96323.2421875,
      "d": 488.28125,
      "v": 88
    },
    {
      "midi": 64,
      "hit": false,
      "t": 96337.890625,
      "d": 588.37890625,
      "v": 88
    },
    {
      "midi": 57,
      "hit": false,
      "t": 96791.9921875,
      "d": 273.4375,
      "v": 88
    },
    {
      "midi": 64,
      "hit": false,
      "t": 97028.80859375,
      "d": 175.78125,
      "v": 88
    },
    {
      "midi": 45,
      "hit": false,
      "t": 97033.69140625,
      "d": 371.09375,
      "v": 88
    },
    {
      "midi": 59,
      "hit": false,
      "t": 97041.015625,
      "d": 253.90625,
      "v": 88
    },
    {
      "midi": 60,
      "hit": false,
      "t": 97045.8984375,
      "d": 410.15625,
      "v": 88
    },
    {
      "midi": 57,
      "hit": false,
      "t": 97268.06640625,
      "d": 214.84375,
      "v": 88
    },
    {
      "midi": 50,
      "hit": false,
      "t": 97729.4921875,
      "d": 117.1875,
      "v": 88
    },
    {
      "midi": 65,
      "hit": false,
      "t": 97736.81640625,
      "d": 97.65625,
      "v": 88
    },
    {
      "midi": 59,
      "hit": false,
      "t": 97739.2578125,
      "d": 78.125,
      "v": 88
    },
    {
      "midi": 59,
      "hit": false,
      "t": 98193.359375,
      "d": 488.28125,
      "v": 88
    },
    {
      "midi": 65,
      "hit": false,
      "t": 98203.125,
      "d": 546.875,
      "v": 88
    },
    {
      "midi": 62,
      "hit": false,
      "t": 98217.7734375,
      "d": 527.34375,
      "v": 88
    },
    {
      "midi": 50,
      "hit": false,
      "t": 98222.65625,
      "d": 605.46875,
      "v": 88
    },
    {
      "midi": 57,
      "hit": false,
      "t": 98671.875,
      "d": 273.4375,
      "v": 88
    },
    {
      "midi": 65,
      "hit": false,
      "t": 98894.04296875,
      "d": 175.78125,
      "v": 88
    },
    {
      "midi": 59,
      "hit": false,
      "t": 98908.69140625,
      "d": 253.90625,
      "v": 88
    },
    {
      "midi": 50,
      "hit": false,
      "t": 98913.57421875,
      "d": 390.625,
      "v": 88
    },
    {
      "midi": 62,
      "hit": false,
      "t": 98925.78125,
      "d": 410.15625,
      "v": 88
    },
    {
      "midi": 57,
      "hit": false,
      "t": 99157.71484375,
      "d": 214.84375,
      "v": 88
    },
    {
      "midi": 52,
      "hit": false,
      "t": 99604.4921875,
      "d": 58.59375,
      "v": 92
    },
    {
      "midi": 64,
      "hit": false,
      "t": 99614.2578125,
      "d": 78.125,
      "v": 92
    },
    {
      "midi": 57,
      "hit": false,
      "t": 99619.140625,
      "d": 58.59375,
      "v": 92
    },
    {
      "midi": 52,
      "hit": false,
      "t": 100075.68359375,
      "d": 605.46875,
      "v": 92
    },
    {
      "midi": 59,
      "hit": false,
      "t": 100075.68359375,
      "d": 605.46875,
      "v": 92
    },
    {
      "midi": 57,
      "hit": false,
      "t": 100080.56640625,
      "d": 507.8125,
      "v": 92
    },
    {
      "midi": 64,
      "hit": false,
      "t": 100085.44921875,
      "d": 566.40625,
      "v": 92
    },
    {
      "midi": 55,
      "hit": false,
      "t": 100544.43359375,
      "d": 175.78125,
      "v": 92
    },
    {
      "midi": 59,
      "hit": false,
      "t": 100761.71875,
      "d": 410.15625,
      "v": 92
    },
    {
      "midi": 64,
      "hit": false,
      "t": 100771.484375,
      "d": 351.5625,
      "v": 92
    },
    {
      "midi": 52,
      "hit": false,
      "t": 100778.80859375,
      "d": 410.15625,
      "v": 92
    },
    {
      "midi": 57,
      "hit": false,
      "t": 100795.8984375,
      "d": 393.06640625,
      "v": 92
    },
    {
      "midi": 55,
      "hit": false,
      "t": 101010.7421875,
      "d": 175.78125,
      "v": 92
    },
    {
      "midi": 65,
      "hit": false,
      "t": 101479.4921875,
      "d": 97.65625,
      "v": 92
    },
    {
      "midi": 59,
      "hit": false,
      "t": 101484.375,
      "d": 97.65625,
      "v": 92
    },
    {
      "midi": 53,
      "hit": false,
      "t": 101491.69921875,
      "d": 97.65625,
      "v": 92
    },
    {
      "midi": 53,
      "hit": false,
      "t": 101936.03515625,
      "d": 566.40625,
      "v": 88
    },
    {
      "midi": 59,
      "hit": false,
      "t": 101940.91796875,
      "d": 468.75,
      "v": 88
    },
    {
      "midi": 65,
      "hit": false,
      "t": 101945.80078125,
      "d": 566.40625,
      "v": 88
    },
    {
      "midi": 60,
      "hit": false,
      "t": 101967.7734375,
      "d": 546.875,
      "v": 88
    },
    {
      "midi": 57,
      "hit": false,
      "t": 102426.7578125,
      "d": 175.78125,
      "v": 84
    },
    {
      "midi": 65,
      "hit": false,
      "t": 102653.80859375,
      "d": 429.6875,
      "v": 84
    },
    {
      "midi": 60,
      "hit": false,
      "t": 102658.69140625,
      "d": 429.6875,
      "v": 84
    },
    {
      "midi": 59,
      "hit": false,
      "t": 102666.015625,
      "d": 175.78125,
      "v": 84
    },
    {
      "midi": 53,
      "hit": false,
      "t": 102666.015625,
      "d": 371.09375,
      "v": 84
    },
    {
      "midi": 57,
      "hit": false,
      "t": 102895.5078125,
      "d": 175.78125,
      "v": 88
    },
    {
      "midi": 45,
      "hit": false,
      "t": 103352.05078125,
      "d": 58.59375,
      "v": 93
    },
    {
      "midi": 64,
      "hit": false,
      "t": 103366.69921875,
      "d": 117.1875,
      "v": 93
    },
    {
      "midi": 59,
      "hit": false,
      "t": 103374.0234375,
      "d": 97.65625,
      "v": 93
    },
    {
      "midi": 45,
      "hit": false,
      "t": 103818.359375,
      "d": 585.9375,
      "v": 83
    },
    {
      "midi": 60,
      "hit": false,
      "t": 103820.80078125,
      "d": 468.75,
      "v": 83
    },
    {
      "midi": 59,
      "hit": false,
      "t": 103828.125,
      "d": 488.28125,
      "v": 83
    },
    {
      "midi": 64,
      "hit": false,
      "t": 103835.44921875,
      "d": 588.37890625,
      "v": 83
    },
    {
      "midi": 57,
      "hit": false,
      "t": 104296.875,
      "d": 273.4375,
      "v": 83
    },
    {
      "midi": 59,
      "hit": false,
      "t": 104523.92578125,
      "d": 253.90625,
      "v": 83
    },
    {
      "midi": 60,
      "hit": false,
      "t": 104531.25,
      "d": 410.15625,
      "v": 83
    },
    {
      "midi": 64,
      "hit": false,
      "t": 104538.57421875,
      "d": 175.78125,
      "v": 83
    },
    {
      "midi": 45,
      "hit": false,
      "t": 104538.57421875,
      "d": 371.09375,
      "v": 83
    },
    {
      "midi": 57,
      "hit": false,
      "t": 104760.7421875,
      "d": 214.84375,
      "v": 83
    },
    {
      "midi": 59,
      "hit": false,
      "t": 105219.7265625,
      "d": 78.125,
      "v": 93
    },
    {
      "midi": 65,
      "hit": false,
      "t": 105227.05078125,
      "d": 97.65625,
      "v": 93
    },
    {
      "midi": 50,
      "hit": false,
      "t": 105231.93359375,
      "d": 117.1875,
      "v": 93
    },
    {
      "midi": 65,
      "hit": false,
      "t": 105693.359375,
      "d": 546.875,
      "v": 88
    },
    {
      "midi": 50,
      "hit": false,
      "t": 105695.80078125,
      "d": 605.46875,
      "v": 88
    },
    {
      "midi": 62,
      "hit": false,
      "t": 105698.2421875,
      "d": 527.34375,
      "v": 88
    },
    {
      "midi": 59,
      "hit": false,
      "t": 105700.68359375,
      "d": 488.28125,
      "v": 88
    },
    {
      "midi": 57,
      "hit": false,
      "t": 106166.9921875,
      "d": 273.4375,
      "v": 83
    },
    {
      "midi": 62,
      "hit": false,
      "t": 106396.484375,
      "d": 410.15625,
      "v": 88
    },
    {
      "midi": 65,
      "hit": false,
      "t": 106398.92578125,
      "d": 175.78125,
      "v": 88
    },
    {
      "midi": 59,
      "hit": false,
      "t": 106401.3671875,
      "d": 253.90625,
      "v": 88
    },
    {
      "midi": 50,
      "hit": false,
      "t": 106413.57421875,
      "d": 390.625,
      "v": 88
    },
    {
      "midi": 57,
      "hit": false,
      "t": 106655.2734375,
      "d": 214.84375,
      "v": 88
    },
    {
      "midi": 52,
      "hit": false,
      "t": 107106.93359375,
      "d": 58.59375,
      "v": 93
    },
    {
      "midi": 57,
      "hit": false,
      "t": 107109.375,
      "d": 58.59375,
      "v": 93
    },
    {
      "midi": 64,
      "hit": false,
      "t": 107109.375,
      "d": 78.125,
      "v": 93
    },
    {
      "midi": 52,
      "hit": false,
      "t": 107580.56640625,
      "d": 605.46875,
      "v": 83
    },
    {
      "midi": 59,
      "hit": false,
      "t": 107587.890625,
      "d": 605.46875,
      "v": 83
    },
    {
      "midi": 57,
      "hit": false,
      "t": 107590.33203125,
      "d": 507.8125,
      "v": 83
    },
    {
      "midi": 64,
      "hit": false,
      "t": 107595.21484375,
      "d": 566.40625,
      "v": 83
    },
    {
      "midi": 55,
      "hit": false,
      "t": 108044.43359375,
      "d": 175.78125,
      "v": 88
    },
    {
      "midi": 57,
      "hit": false,
      "t": 108269.04296875,
      "d": 393.06640625,
      "v": 83
    },
    {
      "midi": 64,
      "hit": false,
      "t": 108273.92578125,
      "d": 351.5625,
      "v": 83
    },
    {
      "midi": 52,
      "hit": false,
      "t": 108276.3671875,
      "d": 410.15625,
      "v": 83
    },
    {
      "midi": 59,
      "hit": false,
      "t": 108281.25,
      "d": 410.15625,
      "v": 83
    },
    {
      "midi": 55,
      "hit": false,
      "t": 108525.390625,
      "d": 175.78125,
      "v": 83
    },
    {
      "midi": 59,
      "hit": false,
      "t": 108974.609375,
      "d": 97.65625,
      "v": 93
    },
    {
      "midi": 53,
      "hit": false,
      "t": 108984.375,
      "d": 97.65625,
      "v": 93
    },
    {
      "midi": 65,
      "hit": false,
      "t": 108991.69921875,
      "d": 97.65625,
      "v": 93
    },
    {
      "midi": 59,
      "hit": false,
      "t": 109443.359375,
      "d": 468.75,
      "v": 83
    },
    {
      "midi": 53,
      "hit": false,
      "t": 109450.68359375,
      "d": 566.40625,
      "v": 83
    },
    {
      "midi": 65,
      "hit": false,
      "t": 109460.44921875,
      "d": 566.40625,
      "v": 83
    },
    {
      "midi": 60,
      "hit": false,
      "t": 109467.7734375,
      "d": 546.875,
      "v": 83
    },
    {
      "midi": 57,
      "hit": false,
      "t": 109907.2265625,
      "d": 175.78125,
      "v": 83
    },
    {
      "midi": 53,
      "hit": false,
      "t": 110156.25,
      "d": 136.71875,
      "v": 93
    },
    {
      "midi": 59,
      "hit": false,
      "t": 110156.25,
      "d": 175.78125,
      "v": 93
    },
    {
      "midi": 60,
      "hit": false,
      "t": 110161.1328125,
      "d": 175.78125,
      "v": 93
    },
    {
      "midi": 65,
      "hit": false,
      "t": 110161.1328125,
      "d": 175.78125,
      "v": 93
    },
    {
      "midi": 45,
      "hit": false,
      "t": 110610.3515625,
      "d": 58.59375,
      "v": 100
    },
    {
      "midi": 57,
      "hit": false,
      "t": 110622.55859375,
      "d": 58.59375,
      "v": 100
    },
    {
      "midi": 64,
      "hit": false,
      "t": 110629.8828125,
      "d": 58.59375,
      "v": 100
    },
    {
      "midi": 33,
      "hit": false,
      "t": 110632.32421875,
      "d": 58.59375,
      "v": 100
    },
    {
      "midi": 60,
      "hit": false,
      "t": 110642.08984375,
      "d": 58.59375,
      "v": 100
    },
    {
      "midi": 57,
      "hit": false,
      "t": 112485.3515625,
      "d": 58.59375,
      "v": 100
    },
    {
      "midi": 65,
      "hit": false,
      "t": 112487.79296875,
      "d": 58.59375,
      "v": 100
    },
    {
      "midi": 38,
      "hit": false,
      "t": 112492.67578125,
      "d": 58.59375,
      "v": 100
    },
    {
      "midi": 50,
      "hit": false,
      "t": 112500,
      "d": 58.59375,
      "v": 100
    },
    {
      "midi": 62,
      "hit": false,
      "t": 112502.44140625,
      "d": 58.59375,
      "v": 100
    },
    {
      "midi": 59,
      "hit": false,
      "t": 114365.234375,
      "d": 58.59375,
      "v": 100
    },
    {
      "midi": 28,
      "hit": false,
      "t": 114370.1171875,
      "d": 58.59375,
      "v": 100
    },
    {
      "midi": 55,
      "hit": false,
      "t": 114372.55859375,
      "d": 58.59375,
      "v": 100
    },
    {
      "midi": 52,
      "hit": false,
      "t": 114384.765625,
      "d": 58.59375,
      "v": 100
    },
    {
      "midi": 64,
      "hit": false,
      "t": 114387.20703125,
      "d": 58.59375,
      "v": 100
    },
    {
      "midi": 65,
      "hit": false,
      "t": 116242.67578125,
      "d": 58.59375,
      "v": 100
    },
    {
      "midi": 57,
      "hit": false,
      "t": 116247.55859375,
      "d": 58.59375,
      "v": 100
    },
    {
      "midi": 29,
      "hit": false,
      "t": 116250,
      "d": 58.59375,
      "v": 100
    },
    {
      "midi": 60,
      "hit": false,
      "t": 116252.44140625,
      "d": 58.59375,
      "v": 100
    },
    {
      "midi": 53,
      "hit": false,
      "t": 116259.765625,
      "d": 58.59375,
      "v": 100
    },
    {
      "midi": 33,
      "hit": false,
      "t": 118110.3515625,
      "d": 58.59375,
      "v": 100
    },
    {
      "midi": 57,
      "hit": false,
      "t": 118125,
      "d": 58.59375,
      "v": 100
    },
    {
      "midi": 60,
      "hit": false,
      "t": 118125,
      "d": 58.59375,
      "v": 100
    },
    {
      "midi": 64,
      "hit": false,
      "t": 118125,
      "d": 58.59375,
      "v": 100
    },
    {
      "midi": 45,
      "hit": false,
      "t": 118134.765625,
      "d": 58.59375,
      "v": 100
    },
    {
      "midi": 50,
      "hit": false,
      "t": 119985.3515625,
      "d": 58.59375,
      "v": 100
    },
    {
      "midi": 65,
      "hit": false,
      "t": 119997.55859375,
      "d": 58.59375,
      "v": 100
    },
    {
      "midi": 57,
      "hit": false,
      "t": 120000,
      "d": 58.59375,
      "v": 100
    },
    {
      "midi": 38,
      "hit": false,
      "t": 120004.8828125,
      "d": 58.59375,
      "v": 100
    },
    {
      "midi": 62,
      "hit": false,
      "t": 120009.765625,
      "d": 58.59375,
      "v": 100
    },
    {
      "midi": 28,
      "hit": false,
      "t": 121872.55859375,
      "d": 58.59375,
      "v": 100
    },
    {
      "midi": 55,
      "hit": false,
      "t": 121872.55859375,
      "d": 58.59375,
      "v": 100
    },
    {
      "midi": 64,
      "hit": false,
      "t": 121872.55859375,
      "d": 58.59375,
      "v": 100
    },
    {
      "midi": 59,
      "hit": false,
      "t": 121875,
      "d": 58.59375,
      "v": 100
    },
    {
      "midi": 52,
      "hit": false,
      "t": 121884.765625,
      "d": 58.59375,
      "v": 100
    },
    {
      "midi": 29,
      "hit": false,
      "t": 123732.91015625,
      "d": 58.59375,
      "v": 100
    },
    {
      "midi": 60,
      "hit": false,
      "t": 123967.28515625,
      "d": 58.59375,
      "v": 100
    },
    {
      "midi": 53,
      "hit": false,
      "t": 123974.609375,
      "d": 58.59375,
      "v": 100
    },
    {
      "midi": 57,
      "hit": false,
      "t": 123986.81640625,
      "d": 58.59375,
      "v": 100
    },
    {
      "midi": 65,
      "hit": false,
      "t": 123994.140625,
      "d": 58.59375,
      "v": 100
    },
    {
      "midi": 29,
      "hit": false,
      "t": 124465.33203125,
      "d": 214.84375,
      "v": 100
    },
    {
      "midi": 65,
      "hit": false,
      "t": 124677.734375,
      "d": 429.6875,
      "v": 100
    },
    {
      "midi": 53,
      "hit": false,
      "t": 124682.6171875,
      "d": 410.15625,
      "v": 100
    },
    {
      "midi": 60,
      "hit": false,
      "t": 124687.5,
      "d": 410.15625,
      "v": 100
    },
    {
      "midi": 57,
      "hit": false,
      "t": 124697.265625,
      "d": 410.15625,
      "v": 100
    },
    {
      "midi": 41,
      "hit": false,
      "t": 124699.70703125,
      "d": 488.28125,
      "v": 100
    },
    {
      "midi": 67,
      "hit": false,
      "t": 125146.484375,
      "d": 429.6875,
      "v": 100
    },
    {
      "midi": 59,
      "hit": false,
      "t": 125148.92578125,
      "d": 429.6875,
      "v": 100
    },
    {
      "midi": 62,
      "hit": false,
      "t": 125158.69140625,
      "d": 410.15625,
      "v": 100
    },
    {
      "midi": 55,
      "hit": false,
      "t": 125161.1328125,
      "d": 410.15625,
      "v": 100
    },
    {
      "midi": 43,
      "hit": false,
      "t": 125163.57421875,
      "d": 410.15625,
      "v": 100
    },
    {
      "midi": 60,
      "hit": false,
      "t": 125617.67578125,
      "d": 58.59375,
      "v": 100
    },
    {
      "midi": 81,
      "hit": false,
      "t": 125620.1171875,
      "d": 58.59375,
      "v": 100
    },
    {
      "midi": 76,
      "hit": false,
      "t": 125627.44140625,
      "d": 58.59375,
      "v": 100
    },
    {
      "midi": 69,
      "hit": false,
      "t": 125629.8828125,
      "d": 58.59375,
      "v": 100
    },
    {
      "midi": 81,
      "hit": false,
      "t": 126083.984375,
      "d": 58.59375,
      "v": 100
    },
    {
      "midi": 76,
      "hit": false,
      "t": 126091.30859375,
      "d": 58.59375,
      "v": 100
    },
    {
      "midi": 60,
      "hit": false,
      "t": 126101.07421875,
      "d": 58.59375,
      "v": 100
    },
    {
      "midi": 69,
      "hit": false,
      "t": 126101.07421875,
      "d": 58.59375,
      "v": 100
    },
    {
      "midi": 81,
      "hit": false,
      "t": 126552.734375,
      "d": 58.59375,
      "v": 100
    },
    {
      "midi": 60,
      "hit": false,
      "t": 126560.05859375,
      "d": 58.59375,
      "v": 100
    },
    {
      "midi": 69,
      "hit": false,
      "t": 126564.94140625,
      "d": 58.59375,
      "v": 100
    },
    {
      "midi": 76,
      "hit": false,
      "t": 126569.82421875,
      "d": 58.59375,
      "v": 100
    },
    {
      "midi": 76,
      "hit": false,
      "t": 127016.6015625,
      "d": 58.59375,
      "v": 100
    },
    {
      "midi": 60,
      "hit": false,
      "t": 127021.484375,
      "d": 58.59375,
      "v": 100
    },
    {
      "midi": 81,
      "hit": false,
      "t": 127038.57421875,
      "d": 58.59375,
      "v": 100
    },
    {
      "midi": 69,
      "hit": false,
      "t": 127041.015625,
      "d": 58.59375,
      "v": 100
    },
    {
      "midi": 77,
      "hit": false,
      "t": 127485.3515625,
      "d": 58.59375,
      "v": 100
    },
    {
      "midi": 69,
      "hit": false,
      "t": 127495.1171875,
      "d": 58.59375,
      "v": 100
    },
    {
      "midi": 81,
      "hit": false,
      "t": 127495.1171875,
      "d": 58.59375,
      "v": 100
    },
    {
      "midi": 62,
      "hit": false,
      "t": 127509.765625,
      "d": 58.59375,
      "v": 100
    },
    {
      "midi": 81,
      "hit": false,
      "t": 127961.42578125,
      "d": 58.59375,
      "v": 100
    },
    {
      "midi": 62,
      "hit": false,
      "t": 127971.19140625,
      "d": 58.59375,
      "v": 100
    },
    {
      "midi": 69,
      "hit": false,
      "t": 127971.19140625,
      "d": 58.59375,
      "v": 100
    },
    {
      "midi": 77,
      "hit": false,
      "t": 127978.515625,
      "d": 58.59375,
      "v": 100
    },
    {
      "midi": 77,
      "hit": false,
      "t": 128425.29296875,
      "d": 58.59375,
      "v": 100
    },
    {
      "midi": 62,
      "hit": false,
      "t": 128432.6171875,
      "d": 58.59375,
      "v": 100
    },
    {
      "midi": 81,
      "hit": false,
      "t": 128432.6171875,
      "d": 58.59375,
      "v": 100
    },
    {
      "midi": 69,
      "hit": false,
      "t": 128447.265625,
      "d": 58.59375,
      "v": 100
    },
    {
      "midi": 69,
      "hit": false,
      "t": 128896.484375,
      "d": 58.59375,
      "v": 100
    },
    {
      "midi": 62,
      "hit": false,
      "t": 128903.80859375,
      "d": 58.59375,
      "v": 100
    },
    {
      "midi": 81,
      "hit": false,
      "t": 128906.25,
      "d": 58.59375,
      "v": 100
    },
    {
      "midi": 77,
      "hit": false,
      "t": 128918.45703125,
      "d": 58.59375,
      "v": 100
    },
    {
      "midi": 69,
      "hit": false,
      "t": 129365.234375,
      "d": 58.59375,
      "v": 100
    },
    {
      "midi": 79,
      "hit": false,
      "t": 129367.67578125,
      "d": 58.59375,
      "v": 100
    },
    {
      "midi": 64,
      "hit": false,
      "t": 129379.8828125,
      "d": 58.59375,
      "v": 100
    },
    {
      "midi": 81,
      "hit": false,
      "t": 129382.32421875,
      "d": 58.59375,
      "v": 100
    },
    {
      "midi": 79,
      "hit": false,
      "t": 129831.54296875,
      "d": 58.59375,
      "v": 100
    },
    {
      "midi": 69,
      "hit": false,
      "t": 129848.6328125,
      "d": 58.59375,
      "v": 100
    },
    {
      "midi": 81,
      "hit": false,
      "t": 129851.07421875,
      "d": 58.59375,
      "v": 100
    },
    {
      "midi": 64,
      "hit": false,
      "t": 129858.3984375,
      "d": 58.59375,
      "v": 100
    },
    {
      "midi": 81,
      "hit": false,
      "t": 130314.94140625,
      "d": 58.59375,
      "v": 100
    },
    {
      "midi": 69,
      "hit": false,
      "t": 130319.82421875,
      "d": 58.59375,
      "v": 100
    },
    {
      "midi": 79,
      "hit": false,
      "t": 130319.82421875,
      "d": 58.59375,
      "v": 100
    },
    {
      "midi": 64,
      "hit": false,
      "t": 130324.70703125,
      "d": 58.59375,
      "v": 100
    },
    {
      "midi": 79,
      "hit": false,
      "t": 130776.3671875,
      "d": 58.59375,
      "v": 100
    },
    {
      "midi": 81,
      "hit": false,
      "t": 130778.80859375,
      "d": 58.59375,
      "v": 100
    },
    {
      "midi": 69,
      "hit": false,
      "t": 130791.015625,
      "d": 58.59375,
      "v": 100
    },
    {
      "midi": 64,
      "hit": false,
      "t": 130795.8984375,
      "d": 58.59375,
      "v": 100
    },
    {
      "midi": 81,
      "hit": false,
      "t": 131235.3515625,
      "d": 58.59375,
      "v": 100
    },
    {
      "midi": 77,
      "hit": false,
      "t": 131247.55859375,
      "d": 58.59375,
      "v": 100
    },
    {
      "midi": 69,
      "hit": false,
      "t": 131250,
      "d": 58.59375,
      "v": 100
    },
    {
      "midi": 60,
      "hit": false,
      "t": 131259.765625,
      "d": 58.59375,
      "v": 100
    },
    {
      "midi": 77,
      "hit": false,
      "t": 131716.30859375,
      "d": 58.59375,
      "v": 100
    },
    {
      "midi": 81,
      "hit": false,
      "t": 131718.75,
      "d": 58.59375,
      "v": 100
    },
    {
      "midi": 69,
      "hit": false,
      "t": 131723.6328125,
      "d": 58.59375,
      "v": 100
    },
    {
      "midi": 60,
      "hit": false,
      "t": 131728.515625,
      "d": 58.59375,
      "v": 100
    },
    {
      "midi": 60,
      "hit": false,
      "t": 132182.6171875,
      "d": 58.59375,
      "v": 100
    },
    {
      "midi": 69,
      "hit": false,
      "t": 132182.6171875,
      "d": 58.59375,
      "v": 100
    },
    {
      "midi": 77,
      "hit": false,
      "t": 132192.3828125,
      "d": 58.59375,
      "v": 100
    },
    {
      "midi": 81,
      "hit": false,
      "t": 132197.265625,
      "d": 58.59375,
      "v": 100
    },
    {
      "midi": 77,
      "hit": false,
      "t": 132636.71875,
      "d": 58.59375,
      "v": 100
    },
    {
      "midi": 81,
      "hit": false,
      "t": 132646.484375,
      "d": 58.59375,
      "v": 100
    },
    {
      "midi": 60,
      "hit": false,
      "t": 132651.3671875,
      "d": 58.59375,
      "v": 100
    },
    {
      "midi": 69,
      "hit": false,
      "t": 132668.45703125,
      "d": 58.59375,
      "v": 100
    },
    {
      "midi": 76,
      "hit": false,
      "t": 133125,
      "d": 58.59375,
      "v": 100
    },
    {
      "midi": 81,
      "hit": false,
      "t": 133125,
      "d": 58.59375,
      "v": 100
    },
    {
      "midi": 60,
      "hit": false,
      "t": 133132.32421875,
      "d": 58.59375,
      "v": 100
    },
    {
      "midi": 69,
      "hit": false,
      "t": 133132.32421875,
      "d": 58.59375,
      "v": 100
    },
    {
      "midi": 60,
      "hit": false,
      "t": 133588.8671875,
      "d": 58.59375,
      "v": 100
    },
    {
      "midi": 81,
      "hit": false,
      "t": 133588.8671875,
      "d": 58.59375,
      "v": 100
    },
    {
      "midi": 69,
      "hit": false,
      "t": 133596.19140625,
      "d": 58.59375,
      "v": 100
    },
    {
      "midi": 76,
      "hit": false,
      "t": 133608.3984375,
      "d": 58.59375,
      "v": 100
    },
    {
      "midi": 81,
      "hit": false,
      "t": 134045.41015625,
      "d": 58.59375,
      "v": 100
    },
    {
      "midi": 60,
      "hit": false,
      "t": 134067.3828125,
      "d": 58.59375,
      "v": 100
    },
    {
      "midi": 69,
      "hit": false,
      "t": 134069.82421875,
      "d": 58.59375,
      "v": 100
    },
    {
      "midi": 76,
      "hit": false,
      "t": 134069.82421875,
      "d": 58.59375,
      "v": 100
    },
    {
      "midi": 81,
      "hit": false,
      "t": 134511.71875,
      "d": 58.59375,
      "v": 100
    },
    {
      "midi": 69,
      "hit": false,
      "t": 134514.16015625,
      "d": 58.59375,
      "v": 100
    },
    {
      "midi": 60,
      "hit": false,
      "t": 134519.04296875,
      "d": 58.59375,
      "v": 100
    },
    {
      "midi": 76,
      "hit": false,
      "t": 134531.25,
      "d": 58.59375,
      "v": 100
    },
    {
      "midi": 81,
      "hit": false,
      "t": 134990.234375,
      "d": 58.59375,
      "v": 100
    },
    {
      "midi": 62,
      "hit": false,
      "t": 134997.55859375,
      "d": 58.59375,
      "v": 100
    },
    {
      "midi": 69,
      "hit": false,
      "t": 135000,
      "d": 58.59375,
      "v": 100
    },
    {
      "midi": 77,
      "hit": false,
      "t": 135000,
      "d": 58.59375,
      "v": 100
    },
    {
      "midi": 69,
      "hit": false,
      "t": 135463.8671875,
      "d": 58.59375,
      "v": 100
    },
    {
      "midi": 81,
      "hit": false,
      "t": 135463.8671875,
      "d": 58.59375,
      "v": 100
    },
    {
      "midi": 77,
      "hit": false,
      "t": 135468.75,
      "d": 58.59375,
      "v": 100
    },
    {
      "midi": 62,
      "hit": false,
      "t": 135480.95703125,
      "d": 58.59375,
      "v": 100
    },
    {
      "midi": 77,
      "hit": false,
      "t": 135925.29296875,
      "d": 58.59375,
      "v": 100
    },
    {
      "midi": 62,
      "hit": false,
      "t": 135932.6171875,
      "d": 58.59375,
      "v": 100
    },
    {
      "midi": 81,
      "hit": false,
      "t": 135935.05859375,
      "d": 58.59375,
      "v": 100
    },
    {
      "midi": 69,
      "hit": false,
      "t": 135942.3828125,
      "d": 58.59375,
      "v": 100
    },
    {
      "midi": 77,
      "hit": false,
      "t": 136398.92578125,
      "d": 58.59375,
      "v": 100
    },
    {
      "midi": 81,
      "hit": false,
      "t": 136401.3671875,
      "d": 58.59375,
      "v": 100
    },
    {
      "midi": 69,
      "hit": false,
      "t": 136408.69140625,
      "d": 58.59375,
      "v": 100
    },
    {
      "midi": 62,
      "hit": false,
      "t": 136418.45703125,
      "d": 58.59375,
      "v": 100
    },
    {
      "midi": 55,
      "hit": false,
      "t": 136865.234375,
      "d": 615.234375,
      "v": 100
    },
    {
      "midi": 59,
      "hit": false,
      "t": 136865.234375,
      "d": 615.234375,
      "v": 100
    },
    {
      "midi": 64,
      "hit": false,
      "t": 136889.6484375,
      "d": 615.234375,
      "v": 100
    },
    {
      "midi": 65,
      "hit": false,
      "t": 137578.125,
      "d": 139.16015625,
      "v": 100
    },
    {
      "midi": 60,
      "hit": false,
      "t": 137583.0078125,
      "d": 139.16015625,
      "v": 100
    },
    {
      "midi": 57,
      "hit": false,
      "t": 137585.44921875,
      "d": 139.16015625,
      "v": 100
    },
    {
      "midi": 65,
      "hit": false,
      "t": 137807.6171875,
      "d": 644.53125,
      "v": 100
    },
    {
      "midi": 60,
      "hit": false,
      "t": 137817.3828125,
      "d": 644.53125,
      "v": 100
    },
    {
      "midi": 57,
      "hit": false,
      "t": 137824.70703125,
      "d": 644.53125,
      "v": 100
    },
    {
      "midi": 67,
      "hit": false,
      "t": 138498.53515625,
      "d": 146.484375,
      "v": 100
    },
    {
      "midi": 59,
      "hit": false,
      "t": 138515.625,
      "d": 146.484375,
      "v": 100
    },
    {
      "midi": 62,
      "hit": false,
      "t": 138515.625,
      "d": 146.484375,
      "v": 100
    },
    {
      "midi": 59,
      "hit": false,
      "t": 138742.67578125,
      "d": 1787.109375,
      "v": 100
    },
    {
      "midi": 62,
      "hit": false,
      "t": 138752.44140625,
      "d": 1806.640625,
      "v": 100
    },
    {
      "midi": 67,
      "hit": false,
      "t": 138757.32421875,
      "d": 1826.171875,
      "v": 100
    },
    {
      "midi": 64,
      "hit": false,
      "t": 140617.67578125,
      "d": 1875,
      "v": 109
    },
    {
      "midi": 67,
      "hit": false,
      "t": 140622.55859375,
      "d": 1796.875,
      "v": 109
    },
    {
      "midi": 60,
      "hit": false,
      "t": 140634.765625,
      "d": 1875,
      "v": 109
    },
    {
      "midi": 62,
      "hit": false,
      "t": 142495.1171875,
      "d": 1875,
      "v": 109
    },
    {
      "midi": 59,
      "hit": false,
      "t": 142497.55859375,
      "d": 1875,
      "v": 109
    },
    {
      "midi": 67,
      "hit": false,
      "t": 142497.55859375,
      "d": 1875,
      "v": 109
    },
    {
      "midi": 65,
      "hit": false,
      "t": 144375,
      "d": 1875,
      "v": 109
    },
    {
      "midi": 69,
      "hit": false,
      "t": 144379.8828125,
      "d": 1503.90625,
      "v": 109
    },
    {
      "midi": 60,
      "hit": false,
      "t": 144382.32421875,
      "d": 1875,
      "v": 109
    },
    {
      "midi": 72,
      "hit": false,
      "t": 146005.859375,
      "d": 175.78125,
      "v": 109
    },
    {
      "midi": 77,
      "hit": false,
      "t": 146013.18359375,
      "d": 175.78125,
      "v": 109
    },
    {
      "midi": 69,
      "hit": false,
      "t": 146025.390625,
      "d": 175.78125,
      "v": 109
    },
    {
      "midi": 69,
      "hit": false,
      "t": 146245.1171875,
      "d": 175.78125,
      "v": 109
    },
    {
      "midi": 72,
      "hit": false,
      "t": 146245.1171875,
      "d": 175.78125,
      "v": 109
    },
    {
      "midi": 77,
      "hit": false,
      "t": 146247.55859375,
      "d": 175.78125,
      "v": 109
    },
    {
      "midi": 72,
      "hit": false,
      "t": 146479.4921875,
      "d": 175.78125,
      "v": 109
    },
    {
      "midi": 67,
      "hit": false,
      "t": 146481.93359375,
      "d": 175.78125,
      "v": 109
    },
    {
      "midi": 76,
      "hit": false,
      "t": 146484.375,
      "d": 175.78125,
      "v": 109
    },
    {
      "midi": 67,
      "hit": false,
      "t": 146711.42578125,
      "d": 175.78125,
      "v": 109
    },
    {
      "midi": 72,
      "hit": false,
      "t": 146718.75,
      "d": 175.78125,
      "v": 109
    },
    {
      "midi": 76,
      "hit": false,
      "t": 146723.6328125,
      "d": 175.78125,
      "v": 109
    },
    {
      "midi": 67,
      "hit": false,
      "t": 146950.68359375,
      "d": 175.78125,
      "v": 104
    },
    {
      "midi": 74,
      "hit": false,
      "t": 146955.56640625,
      "d": 175.78125,
      "v": 104
    },
    {
      "midi": 71,
      "hit": false,
      "t": 146960.44921875,
      "d": 175.78125,
      "v": 104
    },
    {
      "midi": 74,
      "hit": false,
      "t": 147177.734375,
      "d": 175.78125,
      "v": 104
    },
    {
      "midi": 67,
      "hit": false,
      "t": 147180.17578125,
      "d": 175.78125,
      "v": 104
    },
    {
      "midi": 71,
      "hit": false,
      "t": 147192.3828125,
      "d": 175.78125,
      "v": 104
    },
    {
      "midi": 72,
      "hit": false,
      "t": 147412.109375,
      "d": 175.78125,
      "v": 104
    },
    {
      "midi": 65,
      "hit": false,
      "t": 147416.9921875,
      "d": 175.78125,
      "v": 104
    },
    {
      "midi": 69,
      "hit": false,
      "t": 147429.19921875,
      "d": 175.78125,
      "v": 104
    },
    {
      "midi": 65,
      "hit": false,
      "t": 147636.71875,
      "d": 175.78125,
      "v": 104
    },
    {
      "midi": 72,
      "hit": false,
      "t": 147656.25,
      "d": 175.78125,
      "v": 104
    },
    {
      "midi": 69,
      "hit": false,
      "t": 147663.57421875,
      "d": 175.78125,
      "v": 104
    },
    {
      "midi": 67,
      "hit": false,
      "t": 147888.18359375,
      "d": 175.78125,
      "v": 104
    },
    {
      "midi": 71,
      "hit": false,
      "t": 147888.18359375,
      "d": 175.78125,
      "v": 104
    },
    {
      "midi": 62,
      "hit": false,
      "t": 147897.94921875,
      "d": 175.78125,
      "v": 104
    },
    {
      "midi": 67,
      "hit": false,
      "t": 148107.91015625,
      "d": 1796.875,
      "v": 104
    },
    {
      "midi": 60,
      "hit": false,
      "t": 148112.79296875,
      "d": 1875,
      "v": 104
    },
    {
      "midi": 64,
      "hit": false,
      "t": 148132.32421875,
      "d": 1875,
      "v": 104
    },
    {
      "midi": 59,
      "hit": false,
      "t": 149997.55859375,
      "d": 1875,
      "v": 114
    },
    {
      "midi": 67,
      "hit": false,
      "t": 150000,
      "d": 1875,
      "v": 114
    },
    {
      "midi": 62,
      "hit": false,
      "t": 150007.32421875,
      "d": 1875,
      "v": 114
    },
    {
      "midi": 65,
      "hit": false,
      "t": 151867.67578125,
      "d": 1875,
      "v": 104
    },
    {
      "midi": 60,
      "hit": false,
      "t": 151882.32421875,
      "d": 1875,
      "v": 104
    },
    {
      "midi": 69,
      "hit": false,
      "t": 151884.765625,
      "d": 1503.90625,
      "v": 104
    },
    {
      "midi": 69,
      "hit": false,
      "t": 153508.30078125,
      "d": 175.78125,
      "v": 109
    },
    {
      "midi": 72,
      "hit": false,
      "t": 153515.625,
      "d": 175.78125,
      "v": 109
    },
    {
      "midi": 77,
      "hit": false,
      "t": 153515.625,
      "d": 175.78125,
      "v": 109
    },
    {
      "midi": 77,
      "hit": false,
      "t": 153747.55859375,
      "d": 175.78125,
      "v": 114
    },
    {
      "midi": 72,
      "hit": false,
      "t": 153750,
      "d": 175.78125,
      "v": 114
    },
    {
      "midi": 69,
      "hit": false,
      "t": 153754.8828125,
      "d": 175.78125,
      "v": 114
    },
    {
      "midi": 72,
      "hit": false,
      "t": 153972.16796875,
      "d": 175.78125,
      "v": 114
    },
    {
      "midi": 76,
      "hit": false,
      "t": 153981.93359375,
      "d": 175.78125,
      "v": 114
    },
    {
      "midi": 67,
      "hit": false,
      "t": 153991.69921875,
      "d": 175.78125,
      "v": 114
    },
    {
      "midi": 76,
      "hit": false,
      "t": 154213.8671875,
      "d": 175.78125,
      "v": 114
    },
    {
      "midi": 67,
      "hit": false,
      "t": 154218.75,
      "d": 175.78125,
      "v": 114
    },
    {
      "midi": 72,
      "hit": false,
      "t": 154218.75,
      "d": 175.78125,
      "v": 114
    },
    {
      "midi": 74,
      "hit": false,
      "t": 154438.4765625,
      "d": 175.78125,
      "v": 114
    },
    {
      "midi": 67,
      "hit": false,
      "t": 154450.68359375,
      "d": 175.78125,
      "v": 114
    },
    {
      "midi": 71,
      "hit": false,
      "t": 154453.125,
      "d": 175.78125,
      "v": 114
    },
    {
      "midi": 67,
      "hit": false,
      "t": 154677.734375,
      "d": 175.78125,
      "v": 109
    },
    {
      "midi": 74,
      "hit": false,
      "t": 154677.734375,
      "d": 175.78125,
      "v": 109
    },
    {
      "midi": 71,
      "hit": false,
      "t": 154707.03125,
      "d": 175.78125,
      "v": 109
    },
    {
      "midi": 65,
      "hit": false,
      "t": 154921.875,
      "d": 175.78125,
      "v": 109
    },
    {
      "midi": 72,
      "hit": false,
      "t": 154924.31640625,
      "d": 175.78125,
      "v": 109
    },
    {
      "midi": 69,
      "hit": false,
      "t": 154926.7578125,
      "d": 175.78125,
      "v": 109
    },
    {
      "midi": 72,
      "hit": false,
      "t": 155148.92578125,
      "d": 175.78125,
      "v": 109
    },
    {
      "midi": 69,
      "hit": false,
      "t": 155153.80859375,
      "d": 175.78125,
      "v": 109
    },
    {
      "midi": 65,
      "hit": false,
      "t": 155156.25,
      "d": 175.78125,
      "v": 109
    },
    {
      "midi": 74,
      "hit": false,
      "t": 155385.7421875,
      "d": 175.78125,
      "v": 104
    },
    {
      "midi": 71,
      "hit": false,
      "t": 155397.94921875,
      "d": 175.78125,
      "v": 104
    },
    {
      "midi": 67,
      "hit": false,
      "t": 155400.390625,
      "d": 175.78125,
      "v": 104
    },
    {
      "midi": 67,
      "hit": false,
      "t": 155620.1171875,
      "d": 1796.875,
      "v": 109
    },
    {
      "midi": 60,
      "hit": false,
      "t": 155622.55859375,
      "d": 1875,
      "v": 109
    },
    {
      "midi": 64,
      "hit": false,
      "t": 155627.44140625,
      "d": 1875,
      "v": 109
    },
    {
      "midi": 59,
      "hit": false,
      "t": 157502.44140625,
      "d": 1875,
      "v": 109
    },
    {
      "midi": 67,
      "hit": false,
      "t": 157507.32421875,
      "d": 1875,
      "v": 109
    },
    {
      "midi": 62,
      "hit": false,
      "t": 157512.20703125,
      "d": 1875,
      "v": 109
    },
    {
      "midi": 65,
      "hit": false,
      "t": 159375,
      "d": 1875,
      "v": 109
    },
    {
      "midi": 69,
      "hit": false,
      "t": 159382.32421875,
      "d": 1503.90625,
      "v": 109
    },
    {
      "midi": 60,
      "hit": false,
      "t": 159384.765625,
      "d": 1875,
      "v": 109
    },
    {
      "midi": 69,
      "hit": false,
      "t": 161008.30078125,
      "d": 175.78125,
      "v": 109
    },
    {
      "midi": 77,
      "hit": false,
      "t": 161010.7421875,
      "d": 175.78125,
      "v": 109
    },
    {
      "midi": 72,
      "hit": false,
      "t": 161015.625,
      "d": 175.78125,
      "v": 109
    },
    {
      "midi": 72,
      "hit": false,
      "t": 161247.55859375,
      "d": 175.78125,
      "v": 109
    },
    {
      "midi": 77,
      "hit": false,
      "t": 161252.44140625,
      "d": 175.78125,
      "v": 109
    },
    {
      "midi": 69,
      "hit": false,
      "t": 161254.8828125,
      "d": 175.78125,
      "v": 109
    },
    {
      "midi": 67,
      "hit": false,
      "t": 161467.28515625,
      "d": 175.78125,
      "v": 109
    },
    {
      "midi": 72,
      "hit": false,
      "t": 161491.69921875,
      "d": 175.78125,
      "v": 109
    },
    {
      "midi": 76,
      "hit": false,
      "t": 161494.140625,
      "d": 175.78125,
      "v": 109
    },
    {
      "midi": 72,
      "hit": false,
      "t": 161708.984375,
      "d": 175.78125,
      "v": 109
    },
    {
      "midi": 76,
      "hit": false,
      "t": 161711.42578125,
      "d": 175.78125,
      "v": 109
    },
    {
      "midi": 67,
      "hit": false,
      "t": 161726.07421875,
      "d": 175.78125,
      "v": 109
    },
    {
      "midi": 74,
      "hit": false,
      "t": 161948.2421875,
      "d": 175.78125,
      "v": 104
    },
    {
      "midi": 67,
      "hit": false,
      "t": 161953.125,
      "d": 175.78125,
      "v": 104
    },
    {
      "midi": 71,
      "hit": false,
      "t": 161958.0078125,
      "d": 175.78125,
      "v": 104
    },
    {
      "midi": 71,
      "hit": false,
      "t": 162180.17578125,
      "d": 175.78125,
      "v": 104
    },
    {
      "midi": 67,
      "hit": false,
      "t": 162185.05859375,
      "d": 175.78125,
      "v": 104
    },
    {
      "midi": 74,
      "hit": false,
      "t": 162185.05859375,
      "d": 175.78125,
      "v": 104
    },
    {
      "midi": 72,
      "hit": false,
      "t": 162419.43359375,
      "d": 175.78125,
      "v": 104
    },
    {
      "midi": 65,
      "hit": false,
      "t": 162431.640625,
      "d": 175.78125,
      "v": 104
    },
    {
      "midi": 69,
      "hit": false,
      "t": 162434.08203125,
      "d": 175.78125,
      "v": 104
    },
    {
      "midi": 69,
      "hit": false,
      "t": 162636.71875,
      "d": 175.78125,
      "v": 104
    },
    {
      "midi": 72,
      "hit": false,
      "t": 162644.04296875,
      "d": 175.78125,
      "v": 104
    },
    {
      "midi": 65,
      "hit": false,
      "t": 162653.80859375,
      "d": 175.78125,
      "v": 104
    },
    {
      "midi": 71,
      "hit": false,
      "t": 162885.7421875,
      "d": 175.78125,
      "v": 104
    },
    {
      "midi": 67,
      "hit": false,
      "t": 162890.625,
      "d": 175.78125,
      "v": 104
    },
    {
      "midi": 62,
      "hit": false,
      "t": 162895.5078125,
      "d": 175.78125,
      "v": 104
    },
    {
      "midi": 67,
      "hit": false,
      "t": 163117.67578125,
      "d": 1796.875,
      "v": 104
    },
    {
      "midi": 64,
      "hit": false,
      "t": 163120.1171875,
      "d": 1875,
      "v": 104
    },
    {
      "midi": 60,
      "hit": false,
      "t": 163125,
      "d": 1875,
      "v": 104
    },
    {
      "midi": 59,
      "hit": false,
      "t": 164990.234375,
      "d": 1875,
      "v": 114
    },
    {
      "midi": 67,
      "hit": false,
      "t": 165000,
      "d": 1875,
      "v": 114
    },
    {
      "midi": 62,
      "hit": false,
      "t": 165002.44140625,
      "d": 1875,
      "v": 114
    },
    {
      "midi": 65,
      "hit": false,
      "t": 166860.3515625,
      "d": 2460.9375,
      "v": 104
    },
    {
      "midi": 60,
      "hit": false,
      "t": 166870.1171875,
      "d": 2460.9375,
      "v": 104
    },
    {
      "midi": 69,
      "hit": false,
      "t": 166877.44140625,
      "d": 2519.53125,
      "v": 104
    },
    {
      "midi": 62,
      "hit": false,
      "t": 169450.68359375,
      "d": 1113.28125,
      "v": 127
    },
    {
      "midi": 71,
      "hit": false,
      "t": 169458.0078125,
      "d": 1152.34375,
      "v": 127
    },
    {
      "midi": 67,
      "hit": false,
      "t": 169460.44921875,
      "d": 1074.21875,
      "v": 127
    },
    {
      "midi": 76,
      "hit": false,
      "t": 170920.41015625,
      "d": 234.375,
      "v": 114
    },
    {
      "midi": 84,
      "hit": false,
      "t": 170935.05859375,
      "d": 234.375,
      "v": 114
    },
    {
      "midi": 79,
      "hit": false,
      "t": 170952.1484375,
      "d": 234.375,
      "v": 114
    },
    {
      "midi": 79,
      "hit": false,
      "t": 171245.1171875,
      "d": 234.375,
      "v": 109
    },
    {
      "midi": 84,
      "hit": false,
      "t": 171250,
      "d": 234.375,
      "v": 109
    },
    {
      "midi": 76,
      "hit": false,
      "t": 171257.32421875,
      "d": 234.375,
      "v": 109
    },
    {
      "midi": 76,
      "hit": false,
      "t": 171550.29296875,
      "d": 234.375,
      "v": 109
    },
    {
      "midi": 84,
      "hit": false,
      "t": 171552.734375,
      "d": 234.375,
      "v": 109
    },
    {
      "midi": 79,
      "hit": false,
      "t": 171557.6171875,
      "d": 234.375,
      "v": 109
    },
    {
      "midi": 84,
      "hit": false,
      "t": 171860.3515625,
      "d": 234.375,
      "v": 104
    },
    {
      "midi": 76,
      "hit": false,
      "t": 171870.1171875,
      "d": 234.375,
      "v": 104
    },
    {
      "midi": 79,
      "hit": false,
      "t": 171875,
      "d": 234.375,
      "v": 104
    },
    {
      "midi": 84,
      "hit": false,
      "t": 172172.8515625,
      "d": 234.375,
      "v": 109
    },
    {
      "midi": 79,
      "hit": false,
      "t": 172192.3828125,
      "d": 234.375,
      "v": 109
    },
    {
      "midi": 76,
      "hit": false,
      "t": 172197.265625,
      "d": 234.375,
      "v": 109
    },
    {
      "midi": 79,
      "hit": false,
      "t": 172487.79296875,
      "d": 234.375,
      "v": 114
    },
    {
      "midi": 76,
      "hit": false,
      "t": 172490.234375,
      "d": 234.375,
      "v": 114
    },
    {
      "midi": 84,
      "hit": false,
      "t": 172497.55859375,
      "d": 234.375,
      "v": 114
    },
    {
      "midi": 74,
      "hit": false,
      "t": 172802.734375,
      "d": 234.375,
      "v": 109
    },
    {
      "midi": 79,
      "hit": false,
      "t": 172802.734375,
      "d": 234.375,
      "v": 109
    },
    {
      "midi": 83,
      "hit": false,
      "t": 172814.94140625,
      "d": 234.375,
      "v": 109
    },
    {
      "midi": 79,
      "hit": false,
      "t": 173115.234375,
      "d": 234.375,
      "v": 104
    },
    {
      "midi": 83,
      "hit": false,
      "t": 173129.8828125,
      "d": 234.375,
      "v": 104
    },
    {
      "midi": 74,
      "hit": false,
      "t": 173134.765625,
      "d": 234.375,
      "v": 104
    },
    {
      "midi": 74,
      "hit": false,
      "t": 173430.17578125,
      "d": 234.375,
      "v": 104
    },
    {
      "midi": 83,
      "hit": false,
      "t": 173437.5,
      "d": 234.375,
      "v": 104
    },
    {
      "midi": 79,
      "hit": false,
      "t": 173447.265625,
      "d": 234.375,
      "v": 104
    },
    {
      "midi": 83,
      "hit": false,
      "t": 173740.234375,
      "d": 234.375,
      "v": 109
    },
    {
      "midi": 79,
      "hit": false,
      "t": 173745.1171875,
      "d": 234.375,
      "v": 109
    },
    {
      "midi": 74,
      "hit": false,
      "t": 173752.44140625,
      "d": 234.375,
      "v": 109
    },
    {
      "midi": 74,
      "hit": false,
      "t": 174057.6171875,
      "d": 234.375,
      "v": 114
    },
    {
      "midi": 79,
      "hit": false,
      "t": 174057.6171875,
      "d": 234.375,
      "v": 114
    },
    {
      "midi": 83,
      "hit": false,
      "t": 174067.3828125,
      "d": 234.375,
      "v": 114
    },
    {
      "midi": 74,
      "hit": false,
      "t": 174370.1171875,
      "d": 234.375,
      "v": 114
    },
    {
      "midi": 79,
      "hit": false,
      "t": 174370.1171875,
      "d": 234.375,
      "v": 114
    },
    {
      "midi": 83,
      "hit": false,
      "t": 174377.44140625,
      "d": 234.375,
      "v": 114
    },
    {
      "midi": 77,
      "hit": false,
      "t": 174685.05859375,
      "d": 234.375,
      "v": 109
    },
    {
      "midi": 72,
      "hit": false,
      "t": 174687.5,
      "d": 234.375,
      "v": 109
    },
    {
      "midi": 81,
      "hit": false,
      "t": 174692.3828125,
      "d": 234.375,
      "v": 109
    },
    {
      "midi": 72,
      "hit": false,
      "t": 174997.55859375,
      "d": 234.375,
      "v": 109
    },
    {
      "midi": 81,
      "hit": false,
      "t": 175000,
      "d": 234.375,
      "v": 109
    },
    {
      "midi": 77,
      "hit": false,
      "t": 175009.765625,
      "d": 234.375,
      "v": 109
    },
    {
      "midi": 77,
      "hit": false,
      "t": 175302.734375,
      "d": 585.9375,
      "v": 114
    },
    {
      "midi": 72,
      "hit": false,
      "t": 175312.5,
      "d": 585.9375,
      "v": 114
    },
    {
      "midi": 81,
      "hit": false,
      "t": 175312.5,
      "d": 585.9375,
      "v": 114
    },
    {
      "midi": 81,
      "hit": false,
      "t": 176005.859375,
      "d": 175.78125,
      "v": 109
    },
    {
      "midi": 89,
      "hit": false,
      "t": 176005.859375,
      "d": 175.78125,
      "v": 109
    },
    {
      "midi": 84,
      "hit": false,
      "t": 176013.18359375,
      "d": 175.78125,
      "v": 109
    },
    {
      "midi": 84,
      "hit": false,
      "t": 176250,
      "d": 175.78125,
      "v": 109
    },
    {
      "midi": 89,
      "hit": false,
      "t": 176250,
      "d": 175.78125,
      "v": 109
    },
    {
      "midi": 81,
      "hit": false,
      "t": 176252.44140625,
      "d": 175.78125,
      "v": 109
    },
    {
      "midi": 88,
      "hit": false,
      "t": 176479.4921875,
      "d": 175.78125,
      "v": 109
    },
    {
      "midi": 79,
      "hit": false,
      "t": 176481.93359375,
      "d": 175.78125,
      "v": 109
    },
    {
      "midi": 84,
      "hit": false,
      "t": 176489.2578125,
      "d": 175.78125,
      "v": 109
    },
    {
      "midi": 79,
      "hit": false,
      "t": 176713.8671875,
      "d": 175.78125,
      "v": 109
    },
    {
      "midi": 84,
      "hit": false,
      "t": 176713.8671875,
      "d": 175.78125,
      "v": 109
    },
    {
      "midi": 88,
      "hit": false,
      "t": 176721.19140625,
      "d": 175.78125,
      "v": 109
    },
    {
      "midi": 83,
      "hit": false,
      "t": 176943.359375,
      "d": 175.78125,
      "v": 104
    },
    {
      "midi": 86,
      "hit": false,
      "t": 176953.125,
      "d": 175.78125,
      "v": 104
    },
    {
      "midi": 79,
      "hit": false,
      "t": 176962.890625,
      "d": 175.78125,
      "v": 104
    },
    {
      "midi": 86,
      "hit": false,
      "t": 177177.734375,
      "d": 175.78125,
      "v": 104
    },
    {
      "midi": 83,
      "hit": false,
      "t": 177185.05859375,
      "d": 175.78125,
      "v": 104
    },
    {
      "midi": 79,
      "hit": false,
      "t": 177187.5,
      "d": 175.78125,
      "v": 104
    },
    {
      "midi": 81,
      "hit": false,
      "t": 177421.875,
      "d": 175.78125,
      "v": 104
    },
    {
      "midi": 77,
      "hit": false,
      "t": 177429.19921875,
      "d": 175.78125,
      "v": 104
    },
    {
      "midi": 84,
      "hit": false,
      "t": 177438.96484375,
      "d": 175.78125,
      "v": 104
    },
    {
      "midi": 77,
      "hit": false,
      "t": 177658.69140625,
      "d": 175.78125,
      "v": 104
    },
    {
      "midi": 84,
      "hit": false,
      "t": 177658.69140625,
      "d": 175.78125,
      "v": 104
    },
    {
      "midi": 81,
      "hit": false,
      "t": 177663.57421875,
      "d": 175.78125,
      "v": 104
    },
    {
      "midi": 79,
      "hit": false,
      "t": 177873.53515625,
      "d": 175.78125,
      "v": 104
    },
    {
      "midi": 83,
      "hit": false,
      "t": 177883.30078125,
      "d": 175.78125,
      "v": 104
    },
    {
      "midi": 74,
      "hit": false,
      "t": 177902.83203125,
      "d": 175.78125,
      "v": 104
    },
    {
      "midi": 79,
      "hit": false,
      "t": 178117.67578125,
      "d": 234.375,
      "v": 100
    },
    {
      "midi": 76,
      "hit": false,
      "t": 178127.44140625,
      "d": 234.375,
      "v": 100
    },
    {
      "midi": 84,
      "hit": false,
      "t": 178137.20703125,
      "d": 234.375,
      "v": 100
    },
    {
      "midi": 76,
      "hit": false,
      "t": 178427.734375,
      "d": 234.375,
      "v": 114
    },
    {
      "midi": 84,
      "hit": false,
      "t": 178427.734375,
      "d": 234.375,
      "v": 114
    },
    {
      "midi": 79,
      "hit": false,
      "t": 178454.58984375,
      "d": 234.375,
      "v": 114
    },
    {
      "midi": 84,
      "hit": false,
      "t": 178752.44140625,
      "d": 234.375,
      "v": 109
    },
    {
      "midi": 76,
      "hit": false,
      "t": 178757.32421875,
      "d": 234.375,
      "v": 109
    },
    {
      "midi": 79,
      "hit": false,
      "t": 178759.765625,
      "d": 234.375,
      "v": 109
    },
    {
      "midi": 84,
      "hit": false,
      "t": 179060.05859375,
      "d": 234.375,
      "v": 109
    },
    {
      "midi": 76,
      "hit": false,
      "t": 179067.3828125,
      "d": 234.375,
      "v": 109
    },
    {
      "midi": 79,
      "hit": false,
      "t": 179069.82421875,
      "d": 234.375,
      "v": 109
    },
    {
      "midi": 79,
      "hit": false,
      "t": 179367.67578125,
      "d": 234.375,
      "v": 104
    },
    {
      "midi": 84,
      "hit": false,
      "t": 179375,
      "d": 234.375,
      "v": 104
    },
    {
      "midi": 76,
      "hit": false,
      "t": 179377.44140625,
      "d": 234.375,
      "v": 104
    },
    {
      "midi": 84,
      "hit": false,
      "t": 179670.41015625,
      "d": 234.375,
      "v": 109
    },
    {
      "midi": 79,
      "hit": false,
      "t": 179682.6171875,
      "d": 234.375,
      "v": 109
    },
    {
      "midi": 76,
      "hit": false,
      "t": 179689.94140625,
      "d": 234.375,
      "v": 109
    },
    {
      "midi": 76,
      "hit": false,
      "t": 179990.234375,
      "d": 234.375,
      "v": 114
    },
    {
      "midi": 79,
      "hit": false,
      "t": 179992.67578125,
      "d": 234.375,
      "v": 114
    },
    {
      "midi": 84,
      "hit": false,
      "t": 179992.67578125,
      "d": 234.375,
      "v": 114
    },
    {
      "midi": 74,
      "hit": false,
      "t": 180307.6171875,
      "d": 234.375,
      "v": 109
    },
    {
      "midi": 83,
      "hit": false,
      "t": 180314.94140625,
      "d": 234.375,
      "v": 109
    },
    {
      "midi": 79,
      "hit": false,
      "t": 180324.70703125,
      "d": 234.375,
      "v": 109
    },
    {
      "midi": 83,
      "hit": false,
      "t": 180607.91015625,
      "d": 234.375,
      "v": 104
    },
    {
      "midi": 74,
      "hit": false,
      "t": 180632.32421875,
      "d": 234.375,
      "v": 104
    },
    {
      "midi": 79,
      "hit": false,
      "t": 180632.32421875,
      "d": 234.375,
      "v": 104
    },
    {
      "midi": 79,
      "hit": false,
      "t": 180932.6171875,
      "d": 234.375,
      "v": 104
    },
    {
      "midi": 83,
      "hit": false,
      "t": 180932.6171875,
      "d": 234.375,
      "v": 104
    },
    {
      "midi": 74,
      "hit": false,
      "t": 180937.5,
      "d": 234.375,
      "v": 104
    },
    {
      "midi": 72,
      "hit": false,
      "t": 181232.91015625,
      "d": 234.375,
      "v": 109
    },
    {
      "midi": 77,
      "hit": false,
      "t": 181242.67578125,
      "d": 234.375,
      "v": 109
    },
    {
      "midi": 81,
      "hit": false,
      "t": 181245.1171875,
      "d": 234.375,
      "v": 109
    },
    {
      "midi": 79,
      "hit": false,
      "t": 181550.29296875,
      "d": 234.375,
      "v": 114
    },
    {
      "midi": 71,
      "hit": false,
      "t": 181555.17578125,
      "d": 234.375,
      "v": 114
    },
    {
      "midi": 74,
      "hit": false,
      "t": 181560.05859375,
      "d": 234.375,
      "v": 114
    },
    {
      "midi": 74,
      "hit": false,
      "t": 181870.1171875,
      "d": 292.96875,
      "v": 100
    },
    {
      "midi": 79,
      "hit": false,
      "t": 181872.55859375,
      "d": 292.96875,
      "v": 100
    },
    {
      "midi": 71,
      "hit": false,
      "t": 181875,
      "d": 292.96875,
      "v": 100
    },
    {
      "midi": 77,
      "hit": false,
      "t": 182182.6171875,
      "d": 390.625,
      "v": 100
    },
    {
      "midi": 69,
      "hit": false,
      "t": 182185.05859375,
      "d": 390.625,
      "v": 100
    },
    {
      "midi": 65,
      "hit": false,
      "t": 182194.82421875,
      "d": 390.625,
      "v": 100
    },
    {
      "midi": 77,
      "hit": false,
      "t": 182663.57421875,
      "d": 400.390625,
      "v": 100
    },
    {
      "midi": 65,
      "hit": false,
      "t": 182663.57421875,
      "d": 419.921875,
      "v": 100
    },
    {
      "midi": 69,
      "hit": false,
      "t": 182673.33984375,
      "d": 400.390625,
      "v": 100
    },
    {
      "midi": 67,
      "hit": false,
      "t": 183122.55859375,
      "d": 332.03125,
      "v": 100
    },
    {
      "midi": 76,
      "hit": false,
      "t": 183122.55859375,
      "d": 332.03125,
      "v": 100
    },
    {
      "midi": 64,
      "hit": false,
      "t": 183127.44140625,
      "d": 312.5,
      "v": 100
    },
    {
      "midi": 65,
      "hit": false,
      "t": 183591.30859375,
      "d": 371.09375,
      "v": 100
    },
    {
      "midi": 69,
      "hit": false,
      "t": 183591.30859375,
      "d": 390.625,
      "v": 100
    },
    {
      "midi": 77,
      "hit": false,
      "t": 183596.19140625,
      "d": 390.625,
      "v": 100
    },
    {
      "midi": 64,
      "hit": false,
      "t": 184050.29296875,
      "d": 410.15625,
      "v": 100
    },
    {
      "midi": 76,
      "hit": false,
      "t": 184052.734375,
      "d": 371.09375,
      "v": 100
    },
    {
      "midi": 67,
      "hit": false,
      "t": 184055.17578125,
      "d": 371.09375,
      "v": 100
    },
    {
      "midi": 69,
      "hit": false,
      "t": 184519.04296875,
      "d": 371.09375,
      "v": 100
    },
    {
      "midi": 77,
      "hit": false,
      "t": 184528.80859375,
      "d": 371.09375,
      "v": 100
    },
    {
      "midi": 65,
      "hit": false,
      "t": 184536.1328125,
      "d": 351.5625,
      "v": 100
    },
    {
      "midi": 64,
      "hit": false,
      "t": 184987.79296875,
      "d": 312.5,
      "v": 100
    },
    {
      "midi": 67,
      "hit": false,
      "t": 184995.1171875,
      "d": 390.625,
      "v": 100
    },
    {
      "midi": 76,
      "hit": false,
      "t": 184995.1171875,
      "d": 390.625,
      "v": 100
    },
    {
      "midi": 60,
      "hit": false,
      "t": 185476.07421875,
      "d": 449.21875,
      "v": 100
    },
    {
      "midi": 72,
      "hit": false,
      "t": 185480.95703125,
      "d": 390.625,
      "v": 100
    },
    {
      "midi": 67,
      "hit": false,
      "t": 185485.83984375,
      "d": 371.09375,
      "v": 100
    },
    {
      "midi": 79,
      "hit": false,
      "t": 185932.6171875,
      "d": 234.375,
      "v": 114
    },
    {
      "midi": 76,
      "hit": false,
      "t": 185935.05859375,
      "d": 234.375,
      "v": 114
    },
    {
      "midi": 84,
      "hit": false,
      "t": 185942.3828125,
      "d": 234.375,
      "v": 114
    },
    {
      "midi": 84,
      "hit": false,
      "t": 186245.1171875,
      "d": 234.375,
      "v": 109
    },
    {
      "midi": 76,
      "hit": false,
      "t": 186250,
      "d": 234.375,
      "v": 109
    },
    {
      "midi": 79,
      "hit": false,
      "t": 186264.6484375,
      "d": 234.375,
      "v": 109
    },
    {
      "midi": 76,
      "hit": false,
      "t": 186557.6171875,
      "d": 234.375,
      "v": 109
    },
    {
      "midi": 84,
      "hit": false,
      "t": 186557.6171875,
      "d": 234.375,
      "v": 109
    },
    {
      "midi": 79,
      "hit": false,
      "t": 186564.94140625,
      "d": 234.375,
      "v": 109
    },
    {
      "midi": 84,
      "hit": false,
      "t": 186867.67578125,
      "d": 234.375,
      "v": 104
    },
    {
      "midi": 79,
      "hit": false,
      "t": 186872.55859375,
      "d": 234.375,
      "v": 104
    },
    {
      "midi": 76,
      "hit": false,
      "t": 186879.8828125,
      "d": 234.375,
      "v": 104
    },
    {
      "midi": 76,
      "hit": false,
      "t": 187170.41015625,
      "d": 234.375,
      "v": 109
    },
    {
      "midi": 79,
      "hit": false,
      "t": 187180.17578125,
      "d": 234.375,
      "v": 109
    },
    {
      "midi": 84,
      "hit": false,
      "t": 187192.3828125,
      "d": 234.375,
      "v": 109
    },
    {
      "midi": 76,
      "hit": false,
      "t": 187490.234375,
      "d": 234.375,
      "v": 114
    },
    {
      "midi": 84,
      "hit": false,
      "t": 187490.234375,
      "d": 234.375,
      "v": 114
    },
    {
      "midi": 79,
      "hit": false,
      "t": 187504.8828125,
      "d": 234.375,
      "v": 114
    },
    {
      "midi": 74,
      "hit": false,
      "t": 187802.734375,
      "d": 234.375,
      "v": 109
    },
    {
      "midi": 83,
      "hit": false,
      "t": 187810.05859375,
      "d": 234.375,
      "v": 109
    },
    {
      "midi": 79,
      "hit": false,
      "t": 187817.3828125,
      "d": 234.375,
      "v": 109
    },
    {
      "midi": 79,
      "hit": false,
      "t": 188122.55859375,
      "d": 234.375,
      "v": 104
    },
    {
      "midi": 83,
      "hit": false,
      "t": 188122.55859375,
      "d": 234.375,
      "v": 104
    },
    {
      "midi": 74,
      "hit": false,
      "t": 188134.765625,
      "d": 234.375,
      "v": 104
    },
    {
      "midi": 79,
      "hit": false,
      "t": 188427.734375,
      "d": 234.375,
      "v": 104
    },
    {
      "midi": 74,
      "hit": false,
      "t": 188432.6171875,
      "d": 234.375,
      "v": 104
    },
    {
      "midi": 83,
      "hit": false,
      "t": 188439.94140625,
      "d": 234.375,
      "v": 104
    },
    {
      "midi": 81,
      "hit": false,
      "t": 188745.1171875,
      "d": 234.375,
      "v": 109
    },
    {
      "midi": 72,
      "hit": false,
      "t": 188747.55859375,
      "d": 234.375,
      "v": 109
    },
    {
      "midi": 77,
      "hit": false,
      "t": 188754.8828125,
      "d": 234.375,
      "v": 104
    },
    {
      "midi": 71,
      "hit": false,
      "t": 189045.41015625,
      "d": 234.375,
      "v": 114
    },
    {
      "midi": 79,
      "hit": false,
      "t": 189060.05859375,
      "d": 234.375,
      "v": 114
    },
    {
      "midi": 74,
      "hit": false,
      "t": 189067.3828125,
      "d": 234.375,
      "v": 104
    },
    {
      "midi": 69,
      "hit": false,
      "t": 189372.55859375,
      "d": 566.40625,
      "v": 114
    },
    {
      "midi": 72,
      "hit": false,
      "t": 189377.44140625,
      "d": 527.34375,
      "v": 104
    },
    {
      "midi": 77,
      "hit": false,
      "t": 189382.32421875,
      "d": 527.34375,
      "v": 114
    },
    {
      "midi": 72,
      "hit": false,
      "t": 190070.80078125,
      "d": 996.09375,
      "v": 114
    },
    {
      "midi": 77,
      "hit": false,
      "t": 190075.68359375,
      "d": 957.03125,
      "v": 114
    },
    {
      "midi": 81,
      "hit": false,
      "t": 190080.56640625,
      "d": 1015.625,
      "v": 114
    },
    {
      "midi": 69,
      "hit": false,
      "t": 191247.55859375,
      "d": 566.40625,
      "v": 114
    },
    {
      "midi": 41,
      "hit": false,
      "t": 191252.44140625,
      "d": 585.9375,
      "v": 114
    },
    {
      "midi": 65,
      "hit": false,
      "t": 191254.8828125,
      "d": 585.9375,
      "v": 114
    },
    {
      "midi": 60,
      "hit": false,
      "t": 191259.765625,
      "d": 605.46875,
      "v": 114
    },
    {
      "midi": 71,
      "hit": false,
      "t": 191940.91796875,
      "d": 781.25,
      "v": 124
    },
    {
      "midi": 62,
      "hit": false,
      "t": 191955.56640625,
      "d": 800.78125,
      "v": 124
    },
    {
      "midi": 67,
      "hit": false,
      "t": 191970.21484375,
      "d": 761.71875,
      "v": 124
    },
    {
      "midi": 43,
      "hit": false,
      "t": 192023.92578125,
      "d": 761.71875,
      "v": 124
    }
  ]
}