{
  "jsonPath": "Classical/Classical/Evgeny Kissin/die-forelle.json",
  "path": "Classical\\Classical\\Evgeny Kissin\\Die Forelle.mid",
  "name": "Die Forelle",
  "difficulty": "Advanced",
  "bpm": 73.00007178340392,
  "notes": [
    {
      "midi": 44,
      "hit": false,
      "t": 3184.928375000001,
      "d": 1609.5874583333339,
      "v": 50
    },
    {
      "midi": 51,
      "hit": false,
      "t": 3219.1749166666677,
      "d": 1575.340916666667,
      "v": 40
    },
    {
      "midi": 54,
      "hit": false,
      "t": 3253.4214583333346,
      "d": 1541.0943750000001,
      "v": 42
    },
    {
      "midi": 60,
      "hit": false,
      "t": 3287.6680000000015,
      "d": 1506.8478333333333,
      "v": 46
    },
    {
      "midi": 56,
      "hit": false,
      "t": 3424.6541666666676,
      "d": 171.23270833333345,
      "v": 40
    },
    {
      "midi": 66,
      "hit": false,
      "t": 3561.640333333334,
      "d": 171.2327083333339,
      "v": 42
    },
    {
      "midi": 63,
      "hit": false,
      "t": 3698.626500000001,
      "d": 171.2327083333339,
      "v": 45
    },
    {
      "midi": 68,
      "hit": false,
      "t": 3835.6126666666682,
      "d": 171.2327083333339,
      "v": 50
    },
    {
      "midi": 66,
      "hit": false,
      "t": 3972.5988333333353,
      "d": 171.232708333333,
      "v": 48
    },
    {
      "midi": 75,
      "hit": false,
      "t": 4109.585000000002,
      "d": 445.20504166666615,
      "v": 60
    },
    {
      "midi": 68,
      "hit": false,
      "t": 4520.543500000002,
      "d": 273.97233333333315,
      "v": 50
    },
    {
      "midi": 44,
      "hit": false,
      "t": 4828.762375000001,
      "d": 1609.5874583333325,
      "v": 60
    },
    {
      "midi": 51,
      "hit": false,
      "t": 4863.008916666668,
      "d": 1575.340916666666,
      "v": 50
    },
    {
      "midi": 54,
      "hit": false,
      "t": 4897.255458333334,
      "d": 1541.0943749999997,
      "v": 52
    },
    {
      "midi": 60,
      "hit": false,
      "t": 4931.502,
      "d": 1506.8478333333333,
      "v": 56
    },
    {
      "midi": 56,
      "hit": false,
      "t": 5068.488166666668,
      "d": 171.232708333333,
      "v": 50
    },
    {
      "midi": 66,
      "hit": false,
      "t": 5205.4743333333345,
      "d": 171.232708333333,
      "v": 52
    },
    {
      "midi": 63,
      "hit": false,
      "t": 5342.460500000001,
      "d": 171.232708333333,
      "v": 55
    },
    {
      "midi": 68,
      "hit": false,
      "t": 5479.446666666668,
      "d": 171.232708333333,
      "v": 60
    },
    {
      "midi": 66,
      "hit": false,
      "t": 5616.432833333334,
      "d": 171.232708333333,
      "v": 58
    },
    {
      "midi": 78,
      "hit": false,
      "t": 5753.419000000001,
      "d": 445.20504166666615,
      "v": 70
    },
    {
      "midi": 68,
      "hit": false,
      "t": 6164.3775000000005,
      "d": 273.97233333333315,
      "v": 60
    },
    {
      "midi": 44,
      "hit": false,
      "t": 6472.596375,
      "d": 1609.5874583333325,
      "v": 70
    },
    {
      "midi": 51,
      "hit": false,
      "t": 6506.8429166666665,
      "d": 1575.340916666666,
      "v": 60
    },
    {
      "midi": 54,
      "hit": false,
      "t": 6541.089458333333,
      "d": 1541.0943749999997,
      "v": 62
    },
    {
      "midi": 60,
      "hit": false,
      "t": 6575.335999999999,
      "d": 1506.8478333333333,
      "v": 66
    },
    {
      "midi": 56,
      "hit": false,
      "t": 6712.322166666667,
      "d": 171.232708333333,
      "v": 60
    },
    {
      "midi": 66,
      "hit": false,
      "t": 6849.308333333333,
      "d": 171.232708333333,
      "v": 62
    },
    {
      "midi": 63,
      "hit": false,
      "t": 6986.2945,
      "d": 171.232708333333,
      "v": 65
    },
    {
      "midi": 68,
      "hit": false,
      "t": 7123.280666666667,
      "d": 171.232708333333,
      "v": 70
    },
    {
      "midi": 66,
      "hit": false,
      "t": 7260.266833333333,
      "d": 171.232708333333,
      "v": 68
    },
    {
      "midi": 82,
      "hit": false,
      "t": 7397.253,
      "d": 102.73962500000016,
      "v": 80
    },
    {
      "midi": 68,
      "hit": false,
      "t": 7534.239166666666,
      "d": 171.232708333333,
      "v": 60
    },
    {
      "midi": 78,
      "hit": false,
      "t": 7671.225333333333,
      "d": 171.232708333333,
      "v": 62
    },
    {
      "midi": 75,
      "hit": false,
      "t": 7808.211499999999,
      "d": 171.232708333333,
      "v": 65
    },
    {
      "midi": 80,
      "hit": false,
      "t": 7945.197666666666,
      "d": 171.232708333333,
      "v": 70
    },
    {
      "midi": 78,
      "hit": false,
      "t": 8082.183833333333,
      "d": 171.232708333333,
      "v": 68
    },
    {
      "midi": 94,
      "hit": false,
      "t": 8219.169999999998,
      "d": 171.2327083333348,
      "v": 80
    },
    {
      "midi": 92,
      "hit": false,
      "t": 8356.156166666666,
      "d": 171.2327083333348,
      "v": 76
    },
    {
      "midi": 90,
      "hit": false,
      "t": 8493.142333333333,
      "d": 102.73962500000016,
      "v": 73
    },
    {
      "midi": 90,
      "hit": false,
      "t": 8630.1285,
      "d": 171.2327083333348,
      "v": 78
    },
    {
      "midi": 87,
      "hit": false,
      "t": 8767.114666666668,
      "d": 171.2327083333348,
      "v": 75
    },
    {
      "midi": 85,
      "hit": false,
      "t": 8904.100833333336,
      "d": 102.73962500000016,
      "v": 72
    },
    {
      "midi": 85,
      "hit": false,
      "t": 9041.087000000003,
      "d": 171.2327083333348,
      "v": 76
    },
    {
      "midi": 82,
      "hit": false,
      "t": 9178.07316666667,
      "d": 171.2327083333348,
      "v": 73
    },
    {
      "midi": 80,
      "hit": false,
      "t": 9315.059333333338,
      "d": 171.2327083333348,
      "v": 70
    },
    {
      "midi": 82,
      "hit": false,
      "t": 9452.045500000006,
      "d": 171.2327083333348,
      "v": 74
    },
    {
      "midi": 80,
      "hit": false,
      "t": 9589.031666666673,
      "d": 171.2327083333348,
      "v": 71
    },
    {
      "midi": 78,
      "hit": false,
      "t": 9726.01783333334,
      "d": 102.73962500000016,
      "v": 68
    },
    {
      "midi": 78,
      "hit": false,
      "t": 9863.004000000008,
      "d": 171.2327083333348,
      "v": 72
    },
    {
      "midi": 75,
      "hit": false,
      "t": 9999.990166666676,
      "d": 171.2327083333348,
      "v": 69
    },
    {
      "midi": 73,
      "hit": false,
      "t": 10136.976333333343,
      "d": 102.73962500000016,
      "v": 66
    },
    {
      "midi": 73,
      "hit": false,
      "t": 10273.96250000001,
      "d": 171.2327083333348,
      "v": 70
    },
    {
      "midi": 70,
      "hit": false,
      "t": 10410.948666666678,
      "d": 171.2327083333348,
      "v": 67
    },
    {
      "midi": 68,
      "hit": false,
      "t": 10547.934833333346,
      "d": 171.2327083333348,
      "v": 64
    },
    {
      "midi": 70,
      "hit": false,
      "t": 10684.921000000013,
      "d": 171.2327083333348,
      "v": 68
    },
    {
      "midi": 68,
      "hit": false,
      "t": 10821.90716666668,
      "d": 171.2327083333348,
      "v": 65
    },
    {
      "midi": 66,
      "hit": false,
      "t": 10958.893333333348,
      "d": 102.73962500000016,
      "v": 62
    },
    {
      "midi": 66,
      "hit": false,
      "t": 11095.879500000015,
      "d": 171.2327083333348,
      "v": 66
    },
    {
      "midi": 63,
      "hit": false,
      "t": 11232.865666666683,
      "d": 171.2327083333348,
      "v": 63
    },
    {
      "midi": 61,
      "hit": false,
      "t": 11369.85183333335,
      "d": 102.73962500000016,
      "v": 60
    },
    {
      "midi": 61,
      "hit": false,
      "t": 11506.838000000018,
      "d": 171.2327083333348,
      "v": 64
    },
    {
      "midi": 58,
      "hit": false,
      "t": 11643.824166666685,
      "d": 171.2327083333348,
      "v": 61
    },
    {
      "midi": 56,
      "hit": false,
      "t": 11780.810333333353,
      "d": 171.2327083333348,
      "v": 58
    },
    {
      "midi": 58,
      "hit": false,
      "t": 11917.796499999999,
      "d": 171.2327083333348,
      "v": 62
    },
    {
      "midi": 56,
      "hit": false,
      "t": 12054.782666666666,
      "d": 171.2327083333348,
      "v": 59
    },
    {
      "midi": 54,
      "hit": false,
      "t": 12191.768833333334,
      "d": 102.73962500000016,
      "v": 56
    },
    {
      "midi": 54,
      "hit": false,
      "t": 12328.755000000001,
      "d": 171.2327083333348,
      "v": 60
    },
    {
      "midi": 51,
      "hit": false,
      "t": 12465.741166666669,
      "d": 171.2327083333348,
      "v": 57
    },
    {
      "midi": 49,
      "hit": false,
      "t": 12602.727333333336,
      "d": 102.73962500000016,
      "v": 54
    },
    {
      "midi": 49,
      "hit": false,
      "t": 12739.713500000003,
      "d": 171.2327083333348,
      "v": 58
    },
    {
      "midi": 46,
      "hit": false,
      "t": 12876.699666666671,
      "d": 171.2327083333348,
      "v": 55
    },
    {
      "midi": 43,
      "hit": false,
      "t": 13013.685833333338,
      "d": 171.2327083333348,
      "v": 52
    },
    {
      "midi": 44,
      "hit": false,
      "t": 13150.672000000006,
      "d": 102.73962500000016,
      "v": 50
    },
    {
      "midi": 48,
      "hit": false,
      "t": 13356.151250000006,
      "d": 102.73962500000016,
      "v": 53
    },
    {
      "midi": 51,
      "hit": false,
      "t": 13561.630500000007,
      "d": 102.73962500000016,
      "v": 55
    },
    {
      "midi": 54,
      "hit": false,
      "t": 13767.109750000007,
      "d": 102.73962500000016,
      "v": 58
    },
    {
      "midi": 58,
      "hit": false,
      "t": 13972.589000000007,
      "d": 102.73962500000016,
      "v": 60
    },
    {
      "midi": 55,
      "hit": false,
      "t": 14178.068250000008,
      "d": 102.73962500000016,
      "v": 63
    },
    {
      "midi": 58,
      "hit": false,
      "t": 14383.547500000008,
      "d": 102.73962500000016,
      "v": 60
    },
    {
      "midi": 56,
      "hit": false,
      "t": 14691.766375000008,
      "d": 68.49308333333283,
      "v": 80
    },
    {
      "midi": 49,
      "hit": false,
      "t": 14794.506000000008,
      "d": 273.97233333333315,
      "v": 70
    },
    {
      "midi": 61,
      "hit": false,
      "t": 14794.506000000021,
      "d": 273.972333333335,
      "v": 100
    },
    {
      "midi": 56,
      "hit": false,
      "t": 14931.492166666689,
      "d": 171.2327083333348,
      "v": 50
    },
    {
      "midi": 65,
      "hit": false,
      "t": 15068.478333333356,
      "d": 171.2327083333348,
      "v": 52
    },
    {
      "midi": 53,
      "hit": false,
      "t": 15205.46450000001,
      "d": 273.97233333333315,
      "v": 60
    },
    {
      "midi": 56,
      "hit": false,
      "t": 15205.46450000001,
      "d": 273.97233333333315,
      "v": 55
    },
    {
      "midi": 61,
      "hit": false,
      "t": 15205.464500000024,
      "d": 273.972333333335,
      "v": 90
    },
    {
      "midi": 68,
      "hit": false,
      "t": 15342.450666666691,
      "d": 171.2327083333348,
      "v": 60
    },
    {
      "midi": 65,
      "hit": false,
      "t": 15479.436833333359,
      "d": 171.2327083333348,
      "v": 58
    },
    {
      "midi": 49,
      "hit": false,
      "t": 15582.176458333342,
      "d": 308.2188750000005,
      "v": 65
    },
    {
      "midi": 65,
      "hit": false,
      "t": 15616.42300000001,
      "d": 273.97233333333315,
      "v": 95
    },
    {
      "midi": 73,
      "hit": false,
      "t": 15616.423000000026,
      "d": 445.20504166666797,
      "v": 70
    },
    {
      "midi": 56,
      "hit": false,
      "t": 15958.888416666676,
      "d": 342.4654166666678,
      "v": 50
    },
    {
      "midi": 61,
      "hit": false,
      "t": 15993.134958333343,
      "d": 308.2188750000005,
      "v": 55
    },
    {
      "midi": 65,
      "hit": false,
      "t": 16027.38150000001,
      "d": 308.2188750000005,
      "v": 90
    },
    {
      "midi": 68,
      "hit": false,
      "t": 16027.381500000027,
      "d": 273.97233333333315,
      "v": 60
    },
    {
      "midi": 37,
      "hit": false,
      "t": 16438.34000000001,
      "d": 273.972333333335,
      "v": 70
    },
    {
      "midi": 61,
      "hit": false,
      "t": 16438.340000000026,
      "d": 856.1635416666613,
      "v": 100
    },
    {
      "midi": 68,
      "hit": false,
      "t": 16575.32616666669,
      "d": 171.232708333333,
      "v": 55
    },
    {
      "midi": 77,
      "hit": false,
      "t": 16712.312333333357,
      "d": 171.232708333333,
      "v": 57
    },
    {
      "midi": 49,
      "hit": false,
      "t": 16849.29850000001,
      "d": 273.972333333335,
      "v": 55
    },
    {
      "midi": 53,
      "hit": false,
      "t": 16849.29850000001,
      "d": 273.972333333335,
      "v": 60
    },
    {
      "midi": 73,
      "hit": false,
      "t": 16849.298500000023,
      "d": 273.97233333333133,
      "v": 60
    },
    {
      "midi": 80,
      "hit": false,
      "t": 16986.28466666669,
      "d": 171.232708333333,
      "v": 65
    },
    {
      "midi": 77,
      "hit": false,
      "t": 17123.270833333354,
      "d": 171.232708333333,
      "v": 63
    },
    {
      "midi": 37,
      "hit": false,
      "t": 17226.010458333345,
      "d": 308.2188750000023,
      "v": 65
    },
    {
      "midi": 56,
      "hit": false,
      "t": 17260.257000000012,
      "d": 445.20504166666797,
      "v": 85
    },
    {
      "midi": 85,
      "hit": false,
      "t": 17260.25700000002,
      "d": 445.20504166666797,
      "v": 75
    },
    {
      "midi": 49,
      "hit": false,
      "t": 17671.215500000013,
      "d": 273.972333333335,
      "v": 50
    },
    {
      "midi": 53,
      "hit": false,
      "t": 17671.215500000013,
      "d": 273.972333333335,
      "v": 55
    },
    {
      "midi": 80,
      "hit": false,
      "t": 17671.21550000002,
      "d": 273.972333333335,
      "v": 65
    },
    {
      "midi": 56,
      "hit": false,
      "t": 17979.434375000023,
      "d": 68.49308333333465,
      "v": 90
    },
    {
      "midi": 44,
      "hit": false,
      "t": 18082.174000000014,
      "d": 273.972333333335,
      "v": 70
    },
    {
      "midi": 56,
      "hit": false,
      "t": 18082.174000000025,
      "d": 787.6704583333303,
      "v": 100
    },
    {
      "midi": 60,
      "hit": false,
      "t": 18219.16016666669,
      "d": 171.232708333333,
      "v": 50
    },
    {
      "midi": 66,
      "hit": false,
      "t": 18356.146333333356,
      "d": 171.232708333333,
      "v": 52
    },
    {
      "midi": 54,
      "hit": false,
      "t": 18493.132500000014,
      "d": 273.972333333335,
      "v": 60
    },
    {
      "midi": 56,
      "hit": false,
      "t": 18493.132500000014,
      "d": 273.972333333335,
      "v": 55
    },
    {
      "midi": 63,
      "hit": false,
      "t": 18493.13250000002,
      "d": 273.97233333333133,
      "v": 55
    },
    {
      "midi": 68,
      "hit": false,
      "t": 18630.118666666687,
      "d": 171.232708333333,
      "v": 60
    },
    {
      "midi": 66,
      "hit": false,
      "t": 18767.104833333353,
      "d": 171.23270833333663,
      "v": 58
    },
    {
      "midi": 44,
      "hit": false,
      "t": 18869.844458333348,
      "d": 308.2188750000023,
      "v": 65
    },
    {
      "midi": 63,
      "hit": false,
      "t": 18904.091000000015,
      "d": 239.72579166666765,
      "v": 105
    },
    {
      "midi": 75,
      "hit": false,
      "t": 18904.091000000022,
      "d": 445.20504166666797,
      "v": 70
    },
    {
      "midi": 61,
      "hit": false,
      "t": 19109.570250000015,
      "d": 239.72579166666765,
      "v": 100
    },
    {
      "midi": 60,
      "hit": false,
      "t": 19315.049500000016,
      "d": 239.72579166666765,
      "v": 95
    },
    {
      "midi": 51,
      "hit": false,
      "t": 19315.049500000016,
      "d": 273.972333333335,
      "v": 55
    },
    {
      "midi": 54,
      "hit": false,
      "t": 19315.049500000016,
      "d": 273.972333333335,
      "v": 60
    },
    {
      "midi": 68,
      "hit": false,
      "t": 19315.049500000023,
      "d": 273.972333333335,
      "v": 60
    },
    {
      "midi": 58,
      "hit": false,
      "t": 19520.528750000016,
      "d": 239.72579166666765,
      "v": 90
    },
    {
      "midi": 32,
      "hit": false,
      "t": 19726.008000000016,
      "d": 273.972333333335,
      "v": 70
    },
    {
      "midi": 56,
      "hit": false,
      "t": 19726.008000000023,
      "d": 856.1635416666613,
      "v": 90
    },
    {
      "midi": 68,
      "hit": false,
      "t": 19862.99416666669,
      "d": 171.232708333333,
      "v": 55
    },
    {
      "midi": 78,
      "hit": false,
      "t": 19999.980333333355,
      "d": 171.232708333333,
      "v": 57
    },
    {
      "midi": 51,
      "hit": false,
      "t": 20136.966500000017,
      "d": 273.972333333335,
      "v": 55
    },
    {
      "midi": 54,
      "hit": false,
      "t": 20136.966500000017,
      "d": 273.972333333335,
      "v": 60
    },
    {
      "midi": 72,
      "hit": false,
      "t": 20136.96650000002,
      "d": 273.97233333333133,
      "v": 60
    },
    {
      "midi": 80,
      "hit": false,
      "t": 20273.952666666686,
      "d": 171.232708333333,
      "v": 65
    },
    {
      "midi": 78,
      "hit": false,
      "t": 20410.93883333335,
      "d": 171.232708333333,
      "v": 63
    },
    {
      "midi": 87,
      "hit": false,
      "t": 20547.925000000017,
      "d": 445.20504166666797,
      "v": 75
    },
    {
      "midi": 44,
      "hit": false,
      "t": 20547.925000000017,
      "d": 273.972333333335,
      "v": 65
    },
    {
      "midi": 80,
      "hit": false,
      "t": 20958.883500000018,
      "d": 273.972333333335,
      "v": 65
    },
    {
      "midi": 51,
      "hit": false,
      "t": 20958.883500000018,
      "d": 273.972333333335,
      "v": 55
    },
    {
      "midi": 54,
      "hit": false,
      "t": 20958.883500000018,
      "d": 273.972333333335,
      "v": 60
    },
    {
      "midi": 56,
      "hit": false,
      "t": 20958.883500000018,
      "d": 308.2188750000023,
      "v": 90
    },
    {
      "midi": 61,
      "hit": false,
      "t": 21369.84200000002,
      "d": 273.97233333333133,
      "v": 100
    },
    {
      "midi": 49,
      "hit": false,
      "t": 21369.842000000022,
      "d": 273.972333333335,
      "v": 70
    },
    {
      "midi": 56,
      "hit": false,
      "t": 21506.828166666684,
      "d": 171.232708333333,
      "v": 50
    },
    {
      "midi": 65,
      "hit": false,
      "t": 21643.81433333335,
      "d": 171.232708333333,
      "v": 52
    },
    {
      "midi": 61,
      "hit": false,
      "t": 21780.800500000016,
      "d": 273.97233333333133,
      "v": 90
    },
    {
      "midi": 53,
      "hit": false,
      "t": 21780.800500000023,
      "d": 273.972333333335,
      "v": 60
    },
    {
      "midi": 56,
      "hit": false,
      "t": 21780.800500000023,
      "d": 273.972333333335,
      "v": 55
    },
    {
      "midi": 68,
      "hit": false,
      "t": 21917.78666666668,
      "d": 171.232708333333,
      "v": 60
    },
    {
      "midi": 65,
      "hit": false,
      "t": 22054.772833333347,
      "d": 171.232708333333,
      "v": 58
    },
    {
      "midi": 49,
      "hit": false,
      "t": 22157.512458333356,
      "d": 308.2188750000023,
      "v": 65
    },
    {
      "midi": 73,
      "hit": false,
      "t": 22191.759000000013,
      "d": 445.20504166666797,
      "v": 70
    },
    {
      "midi": 65,
      "hit": false,
      "t": 22191.759000000024,
      "d": 273.972333333335,
      "v": 95
    },
    {
      "midi": 56,
      "hit": false,
      "t": 22534.224416666693,
      "d": 342.4654166666696,
      "v": 50
    },
    {
      "midi": 61,
      "hit": false,
      "t": 22568.47095833336,
      "d": 308.2188750000023,
      "v": 55
    },
    {
      "midi": 68,
      "hit": false,
      "t": 22602.717500000013,
      "d": 273.972333333335,
      "v": 60
    },
    {
      "midi": 65,
      "hit": false,
      "t": 22602.717500000028,
      "d": 308.2188750000023,
      "v": 90
    },
    {
      "midi": 61,
      "hit": false,
      "t": 23013.676000000014,
      "d": 856.163541666665,
      "v": 100
    },
    {
      "midi": 37,
      "hit": false,
      "t": 23013.676000000032,
      "d": 273.972333333335,
      "v": 70
    },
    {
      "midi": 68,
      "hit": false,
      "t": 23150.66216666668,
      "d": 171.232708333333,
      "v": 55
    },
    {
      "midi": 77,
      "hit": false,
      "t": 23287.648333333345,
      "d": 171.232708333333,
      "v": 57
    },
    {
      "midi": 73,
      "hit": false,
      "t": 23424.63450000001,
      "d": 273.97233333333133,
      "v": 60
    },
    {
      "midi": 49,
      "hit": false,
      "t": 23424.634500000033,
      "d": 273.972333333335,
      "v": 55
    },
    {
      "midi": 53,
      "hit": false,
      "t": 23424.634500000033,
      "d": 273.972333333335,
      "v": 60
    },
    {
      "midi": 80,
      "hit": false,
      "t": 23561.620666666677,
      "d": 171.232708333333,
      "v": 65
    },
    {
      "midi": 77,
      "hit": false,
      "t": 23698.606833333342,
      "d": 171.23270833333663,
      "v": 63
    },
    {
      "midi": 37,
      "hit": false,
      "t": 23801.346458333366,
      "d": 308.2188750000023,
      "v": 65
    },
    {
      "midi": 85,
      "hit": false,
      "t": 23835.59300000001,
      "d": 445.20504166666797,
      "v": 75
    },
    {
      "midi": 56,
      "hit": false,
      "t": 23835.593000000033,
      "d": 342.4654166666696,
      "v": 85
    },
    {
      "midi": 53,
      "hit": false,
      "t": 24178.058416666703,
      "d": 342.4654166666696,
      "v": 55
    },
    {
      "midi": 56,
      "hit": false,
      "t": 24212.30495833337,
      "d": 308.2188750000023,
      "v": 50
    },
    {
      "midi": 80,
      "hit": false,
      "t": 24246.551500000012,
      "d": 273.972333333335,
      "v": 65
    },
    {
      "midi": 61,
      "hit": false,
      "t": 24246.551500000038,
      "d": 445.20504166666797,
      "v": 90
    },
    {
      "midi": 60,
      "hit": false,
      "t": 24657.510000000013,
      "d": 445.20504166666433,
      "v": 100
    },
    {
      "midi": 39,
      "hit": false,
      "t": 24657.51000000004,
      "d": 273.972333333335,
      "v": 70
    },
    {
      "midi": 68,
      "hit": false,
      "t": 24794.49616666668,
      "d": 171.232708333333,
      "v": 50
    },
    {
      "midi": 63,
      "hit": false,
      "t": 24931.482333333344,
      "d": 171.232708333333,
      "v": 52
    },
    {
      "midi": 72,
      "hit": false,
      "t": 25068.46850000001,
      "d": 273.97233333333133,
      "v": 55
    },
    {
      "midi": 58,
      "hit": false,
      "t": 25068.46850000004,
      "d": 239.72579166666765,
      "v": 85
    },
    {
      "midi": 51,
      "hit": false,
      "t": 25068.46850000004,
      "d": 273.972333333335,
      "v": 60
    },
    {
      "midi": 56,
      "hit": false,
      "t": 25068.46850000004,
      "d": 273.972333333335,
      "v": 55
    },
    {
      "midi": 68,
      "hit": false,
      "t": 25205.454666666676,
      "d": 171.232708333333,
      "v": 60
    },
    {
      "midi": 60,
      "hit": false,
      "t": 25273.94775000004,
      "d": 239.72579166666765,
      "v": 87
    },
    {
      "midi": 77,
      "hit": false,
      "t": 25342.44083333334,
      "d": 171.232708333333,
      "v": 58
    },
    {
      "midi": 61,
      "hit": false,
      "t": 25479.427000000007,
      "d": 445.20504166666797,
      "v": 92
    },
    {
      "midi": 39,
      "hit": false,
      "t": 25479.42700000004,
      "d": 308.2188750000023,
      "v": 65
    },
    {
      "midi": 75,
      "hit": false,
      "t": 25513.673541666674,
      "d": 445.20504166666797,
      "v": 70
    },
    {
      "midi": 67,
      "hit": false,
      "t": 25890.385500000008,
      "d": 273.972333333335,
      "v": 60
    },
    {
      "midi": 58,
      "hit": false,
      "t": 25890.38550000004,
      "d": 239.72579166666765,
      "v": 50
    },
    {
      "midi": 49,
      "hit": false,
      "t": 25890.38550000004,
      "d": 273.972333333335,
      "v": 55
    },
    {
      "midi": 55,
      "hit": false,
      "t": 25890.38550000004,
      "d": 445.20504166666797,
      "v": 85
    },
    {
      "midi": 56,
      "hit": false,
      "t": 26301.34400000001,
      "d": 856.163541666665,
      "v": 90
    },
    {
      "midi": 32,
      "hit": false,
      "t": 26301.34400000004,
      "d": 273.972333333335,
      "v": 70
    },
    {
      "midi": 68,
      "hit": false,
      "t": 26438.330166666674,
      "d": 171.232708333333,
      "v": 55
    },
    {
      "midi": 75,
      "hit": false,
      "t": 26575.31633333334,
      "d": 171.232708333333,
      "v": 57
    },
    {
      "midi": 72,
      "hit": false,
      "t": 26712.302500000005,
      "d": 273.97233333333133,
      "v": 60
    },
    {
      "midi": 48,
      "hit": false,
      "t": 26712.30250000004,
      "d": 273.972333333335,
      "v": 60
    },
    {
      "midi": 51,
      "hit": false,
      "t": 26712.30250000004,
      "d": 273.972333333335,
      "v": 55
    },
    {
      "midi": 80,
      "hit": false,
      "t": 26849.28866666667,
      "d": 171.232708333333,
      "v": 65
    },
    {
      "midi": 75,
      "hit": false,
      "t": 26986.274833333337,
      "d": 171.23270833333663,
      "v": 63
    },
    {
      "midi": 84,
      "hit": false,
      "t": 27123.261000000006,
      "d": 445.20504166666797,
      "v": 75
    },
    {
      "midi": 44,
      "hit": false,
      "t": 27123.261000000042,
      "d": 273.972333333335,
      "v": 65
    },
    {
      "midi": 68,
      "hit": false,
      "t": 27534.219500000007,
      "d": 273.972333333335,
      "v": 65
    },
    {
      "midi": 56,
      "hit": false,
      "t": 27534.219500000043,
      "d": 239.72579166666765,
      "v": 90
    },
    {
      "midi": 48,
      "hit": false,
      "t": 27534.219500000043,
      "d": 273.972333333335,
      "v": 55
    },
    {
      "midi": 51,
      "hit": false,
      "t": 27534.219500000043,
      "d": 273.972333333335,
      "v": 60
    },
    {
      "midi": 58,
      "hit": false,
      "t": 27739.698750000043,
      "d": 239.72579166666765,
      "v": 95
    },
    {
      "midi": 60,
      "hit": false,
      "t": 27945.178000000007,
      "d": 273.97233333333133,
      "v": 100
    },
    {
      "midi": 44,
      "hit": false,
      "t": 27945.178000000044,
      "d": 273.972333333335,
      "v": 70
    },
    {
      "midi": 56,
      "hit": false,
      "t": 28082.164166666673,
      "d": 171.232708333333,
      "v": 50
    },
    {
      "midi": 63,
      "hit": false,
      "t": 28219.15033333334,
      "d": 171.232708333333,
      "v": 52
    },
    {
      "midi": 66,
      "hit": false,
      "t": 28356.136500000004,
      "d": 273.97233333333133,
      "v": 55
    },
    {
      "midi": 51,
      "hit": false,
      "t": 28356.136500000044,
      "d": 273.972333333335,
      "v": 60
    },
    {
      "midi": 54,
      "hit": false,
      "t": 28356.136500000044,
      "d": 273.972333333335,
      "v": 55
    },
    {
      "midi": 60,
      "hit": false,
      "t": 28356.136500000044,
      "d": 273.972333333335,
      "v": 90
    },
    {
      "midi": 67,
      "hit": false,
      "t": 28493.12266666667,
      "d": 171.232708333333,
      "v": 60
    },
    {
      "midi": 68,
      "hit": false,
      "t": 28630.108833333335,
      "d": 171.232708333333,
      "v": 58
    },
    {
      "midi": 61,
      "hit": false,
      "t": 28767.095,
      "d": 239.72579166666765,
      "v": 90
    },
    {
      "midi": 70,
      "hit": false,
      "t": 28767.095,
      "d": 445.20504166666797,
      "v": 70
    },
    {
      "midi": 44,
      "hit": false,
      "t": 28767.095000000045,
      "d": 273.972333333335,
      "v": 65
    },
    {
      "midi": 60,
      "hit": false,
      "t": 28972.57425,
      "d": 239.72579166666765,
      "v": 85
    },
    {
      "midi": 68,
      "hit": false,
      "t": 29178.0535,
      "d": 273.972333333335,
      "v": 60
    },
    {
      "midi": 58,
      "hit": false,
      "t": 29178.053500000045,
      "d": 239.72579166666765,
      "v": 90
    },
    {
      "midi": 51,
      "hit": false,
      "t": 29178.053500000045,
      "d": 273.972333333335,
      "v": 55
    },
    {
      "midi": 54,
      "hit": false,
      "t": 29178.053500000045,
      "d": 273.972333333335,
      "v": 60
    },
    {
      "midi": 60,
      "hit": false,
      "t": 29383.532750000046,
      "d": 239.72579166666765,
      "v": 95
    },
    {
      "midi": 61,
      "hit": false,
      "t": 29589.012000000002,
      "d": 856.163541666665,
      "v": 100
    },
    {
      "midi": 37,
      "hit": false,
      "t": 29589.012000000046,
      "d": 273.972333333335,
      "v": 70
    },
    {
      "midi": 73,
      "hit": false,
      "t": 29725.998166666668,
      "d": 171.232708333333,
      "v": 55
    },
    {
      "midi": 77,
      "hit": false,
      "t": 29862.984333333334,
      "d": 171.232708333333,
      "v": 57
    },
    {
      "midi": 78,
      "hit": false,
      "t": 29999.9705,
      "d": 273.97233333333133,
      "v": 60
    },
    {
      "midi": 49,
      "hit": false,
      "t": 29999.970500000047,
      "d": 273.972333333335,
      "v": 55
    },
    {
      "midi": 53,
      "hit": false,
      "t": 29999.970500000047,
      "d": 273.972333333335,
      "v": 60
    },
    {
      "midi": 79,
      "hit": false,
      "t": 30136.956666666665,
      "d": 171.232708333333,
      "v": 65
    },
    {
      "midi": 80,
      "hit": false,
      "t": 30273.94283333333,
      "d": 171.23270833333663,
      "v": 63
    },
    {
      "midi": 37,
      "hit": false,
      "t": 30376.68245833338,
      "d": 308.2188750000023,
      "v": 65
    },
    {
      "midi": 89,
      "hit": false,
      "t": 30410.929,
      "d": 445.20504166666797,
      "v": 75
    },
    {
      "midi": 56,
      "hit": false,
      "t": 30410.929000000047,
      "d": 342.4654166666696,
      "v": 85
    },
    {
      "midi": 85,
      "hit": false,
      "t": 30821.8875,
      "d": 273.972333333335,
      "v": 65
    },
    {
      "midi": 53,
      "hit": false,
      "t": 30821.88750000005,
      "d": 273.972333333335,
      "v": 50
    },
    {
      "midi": 56,
      "hit": false,
      "t": 30821.88750000005,
      "d": 273.972333333335,
      "v": 55
    },
    {
      "midi": 61,
      "hit": false,
      "t": 30821.88750000005,
      "d": 445.20504166666797,
      "v": 90
    },
    {
      "midi": 60,
      "hit": false,
      "t": 31232.846,
      "d": 273.97233333333133,
      "v": 100
    },
    {
      "midi": 44,
      "hit": false,
      "t": 31232.846000000052,
      "d": 273.972333333335,
      "v": 70
    },
    {
      "midi": 56,
      "hit": false,
      "t": 31369.832166666667,
      "d": 171.232708333333,
      "v": 50
    },
    {
      "midi": 63,
      "hit": false,
      "t": 31506.818333333333,
      "d": 171.232708333333,
      "v": 52
    },
    {
      "midi": 66,
      "hit": false,
      "t": 31643.8045,
      "d": 273.97233333333133,
      "v": 55
    },
    {
      "midi": 51,
      "hit": false,
      "t": 31643.804500000053,
      "d": 273.972333333335,
      "v": 60
    },
    {
      "midi": 54,
      "hit": false,
      "t": 31643.804500000053,
      "d": 273.972333333335,
      "v": 55
    },
    {
      "midi": 60,
      "hit": false,
      "t": 31643.804500000053,
      "d": 273.972333333335,
      "v": 90
    },
    {
      "midi": 67,
      "hit": false,
      "t": 31780.790666666664,
      "d": 171.232708333333,
      "v": 60
    },
    {
      "midi": 68,
      "hit": false,
      "t": 31917.77683333333,
      "d": 171.232708333333,
      "v": 58
    },
    {
      "midi": 60,
      "hit": false,
      "t": 32054.762999999995,
      "d": 239.72579166666765,
      "v": 90
    },
    {
      "midi": 70,
      "hit": false,
      "t": 32054.762999999995,
      "d": 445.20504166666797,
      "v": 70
    },
    {
      "midi": 44,
      "hit": false,
      "t": 32054.763000000054,
      "d": 273.972333333335,
      "v": 65
    },
    {
      "midi": 66,
      "hit": false,
      "t": 32260.242249999996,
      "d": 239.72579166666765,
      "v": 85
    },
    {
      "midi": 68,
      "hit": false,
      "t": 32465.721499999996,
      "d": 273.972333333335,
      "v": 60
    },
    {
      "midi": 63,
      "hit": false,
      "t": 32465.721500000054,
      "d": 239.72579166666765,
      "v": 95
    },
    {
      "midi": 54,
      "hit": false,
      "t": 32465.721500000054,
      "d": 273.972333333335,
      "v": 55
    },
    {
      "midi": 56,
      "hit": false,
      "t": 32465.721500000054,
      "d": 273.972333333335,
      "v": 60
    },
    {
      "midi": 60,
      "hit": false,
      "t": 32671.200750000055,
      "d": 239.72579166667128,
      "v": 90
    },
    {
      "midi": 61,
      "hit": false,
      "t": 32876.68,
      "d": 856.1635416666832,
      "v": 90
    },
    {
      "midi": 37,
      "hit": false,
      "t": 32876.68000000006,
      "d": 273.97233333333133,
      "v": 70
    },
    {
      "midi": 73,
      "hit": false,
      "t": 33013.66616666667,
      "d": 171.23270833333663,
      "v": 55
    },
    {
      "midi": 77,
      "hit": false,
      "t": 33150.65233333334,
      "d": 171.23270833333663,
      "v": 57
    },
    {
      "midi": 78,
      "hit": false,
      "t": 33287.63850000001,
      "d": 273.9723333333386,
      "v": 60
    },
    {
      "midi": 53,
      "hit": false,
      "t": 33287.63850000006,
      "d": 273.97233333333133,
      "v": 60
    },
    {
      "midi": 56,
      "hit": false,
      "t": 33287.63850000006,
      "d": 273.97233333333133,
      "v": 55
    },
    {
      "midi": 79,
      "hit": false,
      "t": 33424.62466666668,
      "d": 171.23270833333663,
      "v": 65
    },
    {
      "midi": 80,
      "hit": false,
      "t": 33561.61083333335,
      "d": 171.23270833333663,
      "v": 63
    },
    {
      "midi": 89,
      "hit": false,
      "t": 33698.597000000016,
      "d": 445.20504166666797,
      "v": 75
    },
    {
      "midi": 49,
      "hit": false,
      "t": 33698.59700000006,
      "d": 308.21887499999866,
      "v": 65
    },
    {
      "midi": 85,
      "hit": false,
      "t": 34109.55550000002,
      "d": 273.97233333333133,
      "v": 65
    },
    {
      "midi": 53,
      "hit": false,
      "t": 34109.55550000006,
      "d": 273.97233333333133,
      "v": 50
    },
    {
      "midi": 56,
      "hit": false,
      "t": 34109.55550000006,
      "d": 273.97233333333133,
      "v": 55
    },
    {
      "midi": 61,
      "hit": false,
      "t": 34109.55550000006,
      "d": 445.20504166666797,
      "v": 95
    },
    {
      "midi": 58,
      "hit": false,
      "t": 34520.51400000002,
      "d": 273.9723333333386,
      "v": 100
    },
    {
      "midi": 42,
      "hit": false,
      "t": 34520.51400000006,
      "d": 273.97233333333133,
      "v": 70
    },
    {
      "midi": 61,
      "hit": false,
      "t": 34657.50016666669,
      "d": 171.23270833333663,
      "v": 50
    },
    {
      "midi": 66,
      "hit": false,
      "t": 34794.486333333356,
      "d": 171.23270833333663,
      "v": 52
    },
    {
      "midi": 49,
      "hit": false,
      "t": 34862.97941666673,
      "d": 342.465416666666,
      "v": 50
    },
    {
      "midi": 54,
      "hit": false,
      "t": 34897.225958333394,
      "d": 308.21887499999866,
      "v": 55
    },
    {
      "midi": 70,
      "hit": false,
      "t": 34931.472500000025,
      "d": 273.9723333333386,
      "v": 90
    },
    {
      "midi": 58,
      "hit": false,
      "t": 34931.47250000006,
      "d": 273.97233333333133,
      "v": 90
    },
    {
      "midi": 71,
      "hit": false,
      "t": 35068.458666666695,
      "d": 171.23270833333663,
      "v": 60
    },
    {
      "midi": 72,
      "hit": false,
      "t": 35205.444833333364,
      "d": 171.23270833333663,
      "v": 58
    },
    {
      "midi": 42,
      "hit": false,
      "t": 35308.184458333395,
      "d": 308.21887499999866,
      "v": 65
    },
    {
      "midi": 75,
      "hit": false,
      "t": 35342.43100000003,
      "d": 445.20504166666797,
      "v": 70
    },
    {
      "midi": 58,
      "hit": false,
      "t": 35342.43100000006,
      "d": 273.97233333333133,
      "v": 95
    },
    {
      "midi": 66,
      "hit": false,
      "t": 35753.389500000034,
      "d": 273.97233333333133,
      "v": 45
    },
    {
      "midi": 70,
      "hit": false,
      "t": 35753.389500000034,
      "d": 273.97233333333133,
      "v": 50
    },
    {
      "midi": 73,
      "hit": false,
      "t": 35753.389500000034,
      "d": 273.97233333333133,
      "v": 60
    },
    {
      "midi": 58,
      "hit": false,
      "t": 35753.38950000006,
      "d": 308.21887499999866,
      "v": 55
    },
    {
      "midi": 61,
      "hit": false,
      "t": 35753.38950000006,
      "d": 308.21887499999866,
      "v": 90
    },
    {
      "midi": 54,
      "hit": false,
      "t": 35753.38950000006,
      "d": 342.465416666666,
      "v": 50
    },
    {
      "midi": 61,
      "hit": false,
      "t": 36164.348000000035,
      "d": 856.1635416666832,
      "v": 100
    },
    {
      "midi": 37,
      "hit": false,
      "t": 36164.34800000006,
      "d": 273.97233333333133,
      "v": 70
    },
    {
      "midi": 65,
      "hit": false,
      "t": 36301.334166666704,
      "d": 171.23270833333663,
      "v": 50
    },
    {
      "midi": 73,
      "hit": false,
      "t": 36301.334166666704,
      "d": 171.23270833333663,
      "v": 55
    },
    {
      "midi": 68,
      "hit": false,
      "t": 36438.32033333337,
      "d": 102.73962500000198,
      "v": 52
    },
    {
      "midi": 77,
      "hit": false,
      "t": 36438.32033333337,
      "d": 171.23270833333663,
      "v": 57
    },
    {
      "midi": 68,
      "hit": false,
      "t": 36575.30650000004,
      "d": 171.23270833333663,
      "v": 55
    },
    {
      "midi": 78,
      "hit": false,
      "t": 36575.30650000004,
      "d": 171.23270833333663,
      "v": 60
    },
    {
      "midi": 49,
      "hit": false,
      "t": 36575.306500000064,
      "d": 273.97233333333133,
      "v": 55
    },
    {
      "midi": 53,
      "hit": false,
      "t": 36575.306500000064,
      "d": 273.97233333333133,
      "v": 60
    },
    {
      "midi": 73,
      "hit": false,
      "t": 36712.29266666671,
      "d": 171.23270833333663,
      "v": 60
    },
    {
      "midi": 79,
      "hit": false,
      "t": 36712.29266666671,
      "d": 171.23270833333663,
      "v": 65
    },
    {
      "midi": 80,
      "hit": false,
      "t": 36849.27883333338,
      "d": 102.73962500000198,
      "v": 63
    },
    {
      "midi": 77,
      "hit": false,
      "t": 36849.27883333338,
      "d": 171.23270833333663,
      "v": 58
    },
    {
      "midi": 37,
      "hit": false,
      "t": 36952.0184583334,
      "d": 308.21887499999866,
      "v": 65
    },
    {
      "midi": 80,
      "hit": false,
      "t": 36986.26500000005,
      "d": 445.20504166666797,
      "v": 70
    },
    {
      "midi": 89,
      "hit": false,
      "t": 36986.26500000005,
      "d": 445.20504166666797,
      "v": 75
    },
    {
      "midi": 56,
      "hit": false,
      "t": 36986.265000000065,
      "d": 445.20504166666797,
      "v": 85
    },
    {
      "midi": 77,
      "hit": false,
      "t": 37397.22350000005,
      "d": 273.97233333333133,
      "v": 60
    },
    {
      "midi": 85,
      "hit": false,
      "t": 37397.22350000005,
      "d": 273.97233333333133,
      "v": 65
    },
    {
      "midi": 49,
      "hit": false,
      "t": 37397.223500000066,
      "d": 273.97233333333133,
      "v": 50
    },
    {
      "midi": 53,
      "hit": false,
      "t": 37397.223500000066,
      "d": 273.97233333333133,
      "v": 55
    },
    {
      "midi": 56,
      "hit": false,
      "t": 37705.44237500005,
      "d": 68.49308333333465,
      "v": 90
    },
    {
      "midi": 56,
      "hit": false,
      "t": 37808.18200000005,
      "d": 787.6704583333485,
      "v": 100
    },
    {
      "midi": 44,
      "hit": false,
      "t": 37808.182000000066,
      "d": 273.97233333333133,
      "v": 70
    },
    {
      "midi": 63,
      "hit": false,
      "t": 37945.16816666672,
      "d": 171.23270833333663,
      "v": 50
    },
    {
      "midi": 66,
      "hit": false,
      "t": 38082.15433333339,
      "d": 171.23270833333663,
      "v": 52
    },
    {
      "midi": 67,
      "hit": false,
      "t": 38219.14050000006,
      "d": 273.9723333333386,
      "v": 55
    },
    {
      "midi": 51,
      "hit": false,
      "t": 38219.14050000007,
      "d": 273.97233333333133,
      "v": 60
    },
    {
      "midi": 54,
      "hit": false,
      "t": 38219.14050000007,
      "d": 273.97233333333133,
      "v": 55
    },
    {
      "midi": 68,
      "hit": false,
      "t": 38356.12666666673,
      "d": 171.23270833333663,
      "v": 59
    },
    {
      "midi": 72,
      "hit": false,
      "t": 38493.1128333334,
      "d": 171.23270833333663,
      "v": 63
    },
    {
      "midi": 63,
      "hit": false,
      "t": 38630.09900000007,
      "d": 410.95850000000064,
      "v": 90
    },
    {
      "midi": 44,
      "hit": false,
      "t": 38630.09900000007,
      "d": 308.21887499999866,
      "v": 65
    },
    {
      "midi": 78,
      "hit": false,
      "t": 38664.345541666735,
      "d": 445.20504166666797,
      "v": 70
    },
    {
      "midi": 72,
      "hit": false,
      "t": 39041.05750000007,
      "d": 273.97233333333133,
      "v": 60
    },
    {
      "midi": 54,
      "hit": false,
      "t": 39041.05750000007,
      "d": 273.97233333333133,
      "v": 55
    },
    {
      "midi": 56,
      "hit": false,
      "t": 39041.05750000007,
      "d": 273.97233333333133,
      "v": 60
    },
    {
      "midi": 60,
      "hit": false,
      "t": 39041.05750000007,
      "d": 445.20504166666797,
      "v": 95
    },
    {
      "midi": 61,
      "hit": false,
      "t": 39452.01600000007,
      "d": 856.1635416666832,
      "v": 100
    },
    {
      "midi": 37,
      "hit": false,
      "t": 39452.01600000007,
      "d": 273.97233333333133,
      "v": 70
    },
    {
      "midi": 65,
      "hit": false,
      "t": 39589.00216666674,
      "d": 171.23270833333663,
      "v": 50
    },
    {
      "midi": 73,
      "hit": false,
      "t": 39589.00216666674,
      "d": 171.23270833333663,
      "v": 55
    },
    {
      "midi": 68,
      "hit": false,
      "t": 39725.98833333341,
      "d": 102.73962500000198,
      "v": 52
    },
    {
      "midi": 77,
      "hit": false,
      "t": 39725.98833333341,
      "d": 171.23270833333663,
      "v": 57
    },
    {
      "midi": 53,
      "hit": false,
      "t": 39862.97450000007,
      "d": 273.97233333333133,
      "v": 55
    },
    {
      "midi": 56,
      "hit": false,
      "t": 39862.97450000007,
      "d": 273.97233333333133,
      "v": 60
    },
    {
      "midi": 68,
      "hit": false,
      "t": 39862.97450000008,
      "d": 171.23270833333663,
      "v": 55
    },
    {
      "midi": 78,
      "hit": false,
      "t": 39862.97450000008,
      "d": 171.23270833333663,
      "v": 60
    },
    {
      "midi": 73,
      "hit": false,
      "t": 39999.960666666746,
      "d": 171.23270833333663,
      "v": 60
    },
    {
      "midi": 79,
      "hit": false,
      "t": 39999.960666666746,
      "d": 171.23270833333663,
      "v": 65
    },
    {
      "midi": 80,
      "hit": false,
      "t": 40136.946833333415,
      "d": 102.73962500000198,
      "v": 63
    },
    {
      "midi": 77,
      "hit": false,
      "t": 40136.946833333415,
      "d": 171.23270833333663,
      "v": 58
    },
    {
      "midi": 49,
      "hit": false,
      "t": 40273.93300000007,
      "d": 273.97233333333133,
      "v": 65
    },
    {
      "midi": 80,
      "hit": false,
      "t": 40273.933000000085,
      "d": 445.20504166666797,
      "v": 70
    },
    {
      "midi": 89,
      "hit": false,
      "t": 40273.933000000085,
      "d": 445.20504166666797,
      "v": 75
    },
    {
      "midi": 53,
      "hit": false,
      "t": 40684.89150000007,
      "d": 273.97233333333133,
      "v": 55
    },
    {
      "midi": 56,
      "hit": false,
      "t": 40684.89150000007,
      "d": 273.97233333333133,
      "v": 60
    },
    {
      "midi": 61,
      "hit": false,
      "t": 40684.89150000007,
      "d": 308.21887499999866,
      "v": 90
    },
    {
      "midi": 77,
      "hit": false,
      "t": 40684.891500000085,
      "d": 273.97233333333133,
      "v": 60
    },
    {
      "midi": 85,
      "hit": false,
      "t": 40684.891500000085,
      "d": 273.97233333333133,
      "v": 65
    },
    {
      "midi": 42,
      "hit": false,
      "t": 41095.85000000007,
      "d": 273.9723333333386,
      "v": 70
    },
    {
      "midi": 60,
      "hit": false,
      "t": 41095.850000000086,
      "d": 239.72579166667128,
      "v": 95
    },
    {
      "midi": 61,
      "hit": false,
      "t": 41232.836166666755,
      "d": 171.23270833333663,
      "v": 50
    },
    {
      "midi": 58,
      "hit": false,
      "t": 41301.329250000075,
      "d": 136.9861666666693,
      "v": 85
    },
    {
      "midi": 66,
      "hit": false,
      "t": 41369.822333333424,
      "d": 171.23270833333663,
      "v": 52
    },
    {
      "midi": 49,
      "hit": false,
      "t": 41506.80850000008,
      "d": 273.97233333333133,
      "v": 60
    },
    {
      "midi": 54,
      "hit": false,
      "t": 41506.80850000008,
      "d": 273.97233333333133,
      "v": 55
    },
    {
      "midi": 58,
      "hit": false,
      "t": 41506.80850000008,
      "d": 342.465416666666,
      "v": 90
    },
    {
      "midi": 70,
      "hit": false,
      "t": 41506.808500000094,
      "d": 273.9723333333386,
      "v": 90
    },
    {
      "midi": 71,
      "hit": false,
      "t": 41643.79466666676,
      "d": 171.23270833333663,
      "v": 60
    },
    {
      "midi": 72,
      "hit": false,
      "t": 41780.78083333343,
      "d": 171.23270833333663,
      "v": 58
    },
    {
      "midi": 42,
      "hit": false,
      "t": 41883.52045833341,
      "d": 308.21887500000594,
      "v": 65
    },
    {
      "midi": 58,
      "hit": false,
      "t": 41917.76700000008,
      "d": 239.72579166667128,
      "v": 90
    },
    {
      "midi": 75,
      "hit": false,
      "t": 41917.7670000001,
      "d": 445.20504166666797,
      "v": 70
    },
    {
      "midi": 61,
      "hit": false,
      "t": 42123.246250000084,
      "d": 171.23270833333663,
      "v": 80
    },
    {
      "midi": 60,
      "hit": false,
      "t": 42328.72550000009,
      "d": 239.725791666664,
      "v": 85
    },
    {
      "midi": 54,
      "hit": false,
      "t": 42328.72550000009,
      "d": 273.97233333333133,
      "v": 55
    },
    {
      "midi": 66,
      "hit": false,
      "t": 42328.7255000001,
      "d": 273.97233333333133,
      "v": 45
    },
    {
      "midi": 70,
      "hit": false,
      "t": 42328.7255000001,
      "d": 273.97233333333133,
      "v": 50
    },
    {
      "midi": 73,
      "hit": false,
      "t": 42328.7255000001,
      "d": 273.97233333333133,
      "v": 60
    },
    {
      "midi": 63,
      "hit": false,
      "t": 42534.204750000084,
      "d": 239.72579166667128,
      "v": 90
    },
    {
      "midi": 37,
      "hit": false,
      "t": 42739.68400000009,
      "d": 273.97233333333133,
      "v": 70
    },
    {
      "midi": 61,
      "hit": false,
      "t": 42739.6840000001,
      "d": 856.1635416666832,
      "v": 100
    },
    {
      "midi": 65,
      "hit": false,
      "t": 42876.67016666677,
      "d": 171.23270833333663,
      "v": 50
    },
    {
      "midi": 73,
      "hit": false,
      "t": 42876.67016666677,
      "d": 171.23270833333663,
      "v": 55
    },
    {
      "midi": 68,
      "hit": false,
      "t": 43013.65633333344,
      "d": 102.73962500000198,
      "v": 52
    },
    {
      "midi": 77,
      "hit": false,
      "t": 43013.65633333344,
      "d": 171.23270833333663,
      "v": 57
    },
    {
      "midi": 49,
      "hit": false,
      "t": 43150.64250000009,
      "d": 273.97233333333133,
      "v": 55
    },
    {
      "midi": 53,
      "hit": false,
      "t": 43150.64250000009,
      "d": 273.97233333333133,
      "v": 60
    },
    {
      "midi": 68,
      "hit": false,
      "t": 43150.64250000011,
      "d": 171.23270833333663,
      "v": 55
    },
    {
      "midi": 78,
      "hit": false,
      "t": 43150.64250000011,
      "d": 171.23270833333663,
      "v": 60
    },
    {
      "midi": 73,
      "hit": false,
      "t": 43287.62866666678,
      "d": 171.23270833333663,
      "v": 60
    },
    {
      "midi": 79,
      "hit": false,
      "t": 43287.62866666678,
      "d": 171.23270833333663,
      "v": 65
    },
    {
      "midi": 80,
      "hit": false,
      "t": 43424.61483333345,
      "d": 102.73962500000198,
      "v": 63
    },
    {
      "midi": 77,
      "hit": false,
      "t": 43424.61483333345,
      "d": 171.23270833333663,
      "v": 58
    },
    {
      "midi": 37,
      "hit": false,
      "t": 43527.35445833342,
      "d": 308.21887499999866,
      "v": 65
    },
    {
      "midi": 56,
      "hit": false,
      "t": 43561.60100000009,
      "d": 445.20504166666797,
      "v": 85
    },
    {
      "midi": 80,
      "hit": false,
      "t": 43561.60100000012,
      "d": 445.20504166666797,
      "v": 70
    },
    {
      "midi": 89,
      "hit": false,
      "t": 43561.60100000012,
      "d": 445.20504166666797,
      "v": 75
    },
    {
      "midi": 49,
      "hit": false,
      "t": 43972.55950000009,
      "d": 273.97233333333133,
      "v": 50
    },
    {
      "midi": 53,
      "hit": false,
      "t": 43972.55950000009,
      "d": 273.97233333333133,
      "v": 55
    },
    {
      "midi": 77,
      "hit": false,
      "t": 43972.55950000012,
      "d": 273.97233333333133,
      "v": 60
    },
    {
      "midi": 85,
      "hit": false,
      "t": 43972.55950000012,
      "d": 273.97233333333133,
      "v": 65
    },
    {
      "midi": 56,
      "hit": false,
      "t": 44280.77837500012,
      "d": 68.49308333333465,
      "v": 90
    },
    {
      "midi": 44,
      "hit": false,
      "t": 44383.51800000009,
      "d": 273.97233333333133,
      "v": 70
    },
    {
      "midi": 56,
      "hit": false,
      "t": 44383.51800000012,
      "d": 787.6704583333485,
      "v": 100
    },
    {
      "midi": 63,
      "hit": false,
      "t": 44520.50416666679,
      "d": 171.23270833333663,
      "v": 50
    },
    {
      "midi": 66,
      "hit": false,
      "t": 44657.49033333346,
      "d": 171.23270833333663,
      "v": 52
    },
    {
      "midi": 51,
      "hit": false,
      "t": 44794.47650000009,
      "d": 273.97233333333133,
      "v": 60
    },
    {
      "midi": 54,
      "hit": false,
      "t": 44794.47650000009,
      "d": 273.97233333333133,
      "v": 55
    },
    {
      "midi": 67,
      "hit": false,
      "t": 44794.47650000013,
      "d": 273.9723333333386,
      "v": 55
    },
    {
      "midi": 68,
      "hit": false,
      "t": 44931.4626666668,
      "d": 171.23270833333663,
      "v": 59
    },
    {
      "midi": 56,
      "hit": false,
      "t": 44999.95575000009,
      "d": 171.23270833333663,
      "v": 85
    },
    {
      "midi": 72,
      "hit": false,
      "t": 45068.44883333347,
      "d": 171.23270833333663,
      "v": 63
    },
    {
      "midi": 44,
      "hit": false,
      "t": 45205.43500000009,
      "d": 308.21887499999866,
      "v": 65
    },
    {
      "midi": 63,
      "hit": false,
      "t": 45205.435000000136,
      "d": 410.95850000000064,
      "v": 90
    },
    {
      "midi": 78,
      "hit": false,
      "t": 45239.6815416668,
      "d": 445.20504166666797,
      "v": 70
    },
    {
      "midi": 51,
      "hit": false,
      "t": 45616.39350000009,
      "d": 273.97233333333133,
      "v": 55
    },
    {
      "midi": 54,
      "hit": false,
      "t": 45616.39350000009,
      "d": 273.97233333333133,
      "v": 60
    },
    {
      "midi": 60,
      "hit": false,
      "t": 45616.39350000009,
      "d": 445.20504166666797,
      "v": 95
    },
    {
      "midi": 72,
      "hit": false,
      "t": 45616.39350000014,
      "d": 273.97233333333133,
      "v": 60
    },
    {
      "midi": 37,
      "hit": false,
      "t": 46027.35200000009,
      "d": 273.97233333333133,
      "v": 70
    },
    {
      "midi": 61,
      "hit": false,
      "t": 46027.35200000014,
      "d": 856.1635416666832,
      "v": 100
    },
    {
      "midi": 65,
      "hit": false,
      "t": 46164.33816666681,
      "d": 171.23270833333663,
      "v": 50
    },
    {
      "midi": 73,
      "hit": false,
      "t": 46164.33816666681,
      "d": 171.23270833333663,
      "v": 55
    },
    {
      "midi": 68,
      "hit": false,
      "t": 46301.324333333476,
      "d": 102.73962500000198,
      "v": 52
    },
    {
      "midi": 77,
      "hit": false,
      "t": 46301.324333333476,
      "d": 171.23270833333663,
      "v": 57
    },
    {
      "midi": 53,
      "hit": false,
      "t": 46438.310500000094,
      "d": 273.97233333333133,
      "v": 55
    },
    {
      "midi": 56,
      "hit": false,
      "t": 46438.310500000094,
      "d": 273.97233333333133,
      "v": 60
    },
    {
      "midi": 68,
      "hit": false,
      "t": 46438.310500000145,
      "d": 171.23270833333663,
      "v": 55
    },
    {
      "midi": 78,
      "hit": false,
      "t": 46438.310500000145,
      "d": 171.23270833333663,
      "v": 60
    },
    {
      "midi": 73,
      "hit": false,
      "t": 46575.296666666814,
      "d": 171.23270833333663,
      "v": 60
    },
    {
      "midi": 79,
      "hit": false,
      "t": 46575.296666666814,
      "d": 171.23270833333663,
      "v": 65
    },
    {
      "midi": 80,
      "hit": false,
      "t": 46712.282833333484,
      "d": 102.73962500000198,
      "v": 63
    },
    {
      "midi": 77,
      "hit": false,
      "t": 46712.282833333484,
      "d": 171.23270833333663,
      "v": 58
    },
    {
      "midi": 49,
      "hit": false,
      "t": 46849.269000000095,
      "d": 171.23270833333663,
      "v": 65
    },
    {
      "midi": 80,
      "hit": false,
      "t": 46849.26900000015,
      "d": 445.20504166666797,
      "v": 70
    },
    {
      "midi": 89,
      "hit": false,
      "t": 46849.26900000015,
      "d": 445.20504166666797,
      "v": 75
    },
    {
      "midi": 56,
      "hit": false,
      "t": 46986.255166666764,
      "d": 171.23270833333663,
      "v": 60
    },
    {
      "midi": 61,
      "hit": false,
      "t": 47123.24133333343,
      "d": 171.23270833333663,
      "v": 52
    },
    {
      "midi": 65,
      "hit": false,
      "t": 47260.2275000001,
      "d": 273.9723333333386,
      "v": 55
    },
    {
      "midi": 77,
      "hit": false,
      "t": 47260.227500000154,
      "d": 273.97233333333133,
      "v": 60
    },
    {
      "midi": 85,
      "hit": false,
      "t": 47260.227500000154,
      "d": 273.97233333333133,
      "v": 65
    },
    {
      "midi": 66,
      "hit": false,
      "t": 47397.21366666677,
      "d": 171.23270833333663,
      "v": 60
    },
    {
      "midi": 67,
      "hit": false,
      "t": 47534.19983333344,
      "d": 171.23270833333663,
      "v": 58
    },
    {
      "midi": 68,
      "hit": false,
      "t": 47671.18600000011,
      "d": 445.20504166666797,
      "v": 65
    },
    {
      "midi": 77,
      "hit": false,
      "t": 47671.18600000011,
      "d": 445.20504166666797,
      "v": 70
    },
    {
      "midi": 65,
      "hit": false,
      "t": 47808.172166666816,
      "d": 171.23270833333663,
      "v": 60
    },
    {
      "midi": 73,
      "hit": false,
      "t": 47808.172166666816,
      "d": 171.23270833333663,
      "v": 65
    },
    {
      "midi": 68,
      "hit": false,
      "t": 47945.158333333486,
      "d": 102.73962500000198,
      "v": 62
    },
    {
      "midi": 77,
      "hit": false,
      "t": 47945.158333333486,
      "d": 171.23270833333663,
      "v": 67
    },
    {
      "midi": 53,
      "hit": false,
      "t": 48082.14450000011,
      "d": 273.97233333333133,
      "v": 55
    },
    {
      "midi": 61,
      "hit": false,
      "t": 48082.14450000011,
      "d": 273.97233333333133,
      "v": 60
    },
    {
      "midi": 68,
      "hit": false,
      "t": 48082.144500000155,
      "d": 171.23270833333663,
      "v": 65
    },
    {
      "midi": 78,
      "hit": false,
      "t": 48082.144500000155,
      "d": 171.23270833333663,
      "v": 70
    },
    {
      "midi": 73,
      "hit": false,
      "t": 48219.130666666824,
      "d": 171.23270833333663,
      "v": 70
    },
    {
      "midi": 79,
      "hit": false,
      "t": 48219.130666666824,
      "d": 171.23270833333663,
      "v": 75
    },
    {
      "midi": 80,
      "hit": false,
      "t": 48356.11683333349,
      "d": 102.73962500000198,
      "v": 73
    },
    {
      "midi": 77,
      "hit": false,
      "t": 48356.11683333349,
      "d": 171.23270833333663,
      "v": 68
    },
    {
      "midi": 49,
      "hit": false,
      "t": 48493.10300000011,
      "d": 171.23270833333663,
      "v": 85
    },
    {
      "midi": 80,
      "hit": false,
      "t": 48493.10300000016,
      "d": 445.20504166666797,
      "v": 80
    },
    {
      "midi": 89,
      "hit": false,
      "t": 48493.10300000016,
      "d": 445.20504166666797,
      "v": 85
    },
    {
      "midi": 56,
      "hit": false,
      "t": 48630.08916666678,
      "d": 171.23270833333663,
      "v": 80
    },
    {
      "midi": 61,
      "hit": false,
      "t": 48767.07533333345,
      "d": 171.23270833333663,
      "v": 72
    },
    {
      "midi": 65,
      "hit": false,
      "t": 48904.06150000012,
      "d": 273.9723333333386,
      "v": 75
    },
    {
      "midi": 77,
      "hit": false,
      "t": 48904.06150000016,
      "d": 273.97233333333133,
      "v": 70
    },
    {
      "midi": 85,
      "hit": false,
      "t": 48904.06150000016,
      "d": 273.97233333333133,
      "v": 75
    },
    {
      "midi": 66,
      "hit": false,
      "t": 49041.04766666679,
      "d": 171.23270833333663,
      "v": 80
    },
    {
      "midi": 67,
      "hit": false,
      "t": 49178.03383333346,
      "d": 171.23270833333663,
      "v": 78
    },
    {
      "midi": 68,
      "hit": false,
      "t": 49315.02000000013,
      "d": 445.20504166666797,
      "v": 85
    },
    {
      "midi": 77,
      "hit": false,
      "t": 49315.02000000013,
      "d": 445.20504166666797,
      "v": 90
    },
    {
      "midi": 65,
      "hit": false,
      "t": 49452.006166666826,
      "d": 171.23270833333663,
      "v": 70
    },
    {
      "midi": 73,
      "hit": false,
      "t": 49452.006166666826,
      "d": 171.23270833333663,
      "v": 75
    },
    {
      "midi": 68,
      "hit": false,
      "t": 49588.992333333495,
      "d": 102.73962500000198,
      "v": 72
    },
    {
      "midi": 77,
      "hit": false,
      "t": 49588.992333333495,
      "d": 171.23270833333663,
      "v": 77
    },
    {
      "midi": 53,
      "hit": false,
      "t": 49725.97850000013,
      "d": 273.97233333333133,
      "v": 75
    },
    {
      "midi": 61,
      "hit": false,
      "t": 49725.97850000013,
      "d": 273.97233333333133,
      "v": 80
    },
    {
      "midi": 68,
      "hit": false,
      "t": 49725.978500000165,
      "d": 171.23270833333663,
      "v": 75
    },
    {
      "midi": 78,
      "hit": false,
      "t": 49725.978500000165,
      "d": 171.23270833333663,
      "v": 80
    },
    {
      "midi": 73,
      "hit": false,
      "t": 49862.964666666834,
      "d": 171.23270833333663,
      "v": 80
    },
    {
      "midi": 79,
      "hit": false,
      "t": 49862.964666666834,
      "d": 171.23270833333663,
      "v": 85
    },
    {
      "midi": 80,
      "hit": false,
      "t": 49999.9508333335,
      "d": 102.73962500000198,
      "v": 83
    },
    {
      "midi": 77,
      "hit": false,
      "t": 49999.9508333335,
      "d": 171.23270833333663,
      "v": 78
    },
    {
      "midi": 37,
      "hit": false,
      "t": 50136.93700000013,
      "d": 171.23270833333663,
      "v": 95
    },
    {
      "midi": 80,
      "hit": false,
      "t": 50136.93700000017,
      "d": 445.20504166666797,
      "v": 90
    },
    {
      "midi": 89,
      "hit": false,
      "t": 50136.93700000017,
      "d": 445.20504166666797,
      "v": 95
    },
    {
      "midi": 44,
      "hit": false,
      "t": 50273.9231666668,
      "d": 171.23270833333663,
      "v": 90
    },
    {
      "midi": 49,
      "hit": false,
      "t": 50410.90933333347,
      "d": 171.23270833333663,
      "v": 82
    },
    {
      "midi": 53,
      "hit": false,
      "t": 50547.89550000014,
      "d": 273.9723333333386,
      "v": 85
    },
    {
      "midi": 77,
      "hit": false,
      "t": 50547.89550000017,
      "d": 273.97233333333133,
      "v": 80
    },
    {
      "midi": 85,
      "hit": false,
      "t": 50547.89550000017,
      "d": 273.97233333333133,
      "v": 85
    },
    {
      "midi": 54,
      "hit": false,
      "t": 50684.881666666806,
      "d": 171.23270833333663,
      "v": 90
    },
    {
      "midi": 55,
      "hit": false,
      "t": 50821.867833333476,
      "d": 171.23270833333663,
      "v": 88
    },
    {
      "midi": 56,
      "hit": false,
      "t": 50958.854000000145,
      "d": 171.23270833333663,
      "v": 95
    },
    {
      "midi": 61,
      "hit": false,
      "t": 51095.840166666814,
      "d": 171.23270833333663,
      "v": 93
    },
    {
      "midi": 65,
      "hit": false,
      "t": 51232.82633333348,
      "d": 171.23270833333663,
      "v": 90
    },
    {
      "midi": 66,
      "hit": false,
      "t": 51369.81250000015,
      "d": 171.23270833333663,
      "v": 92
    },
    {
      "midi": 67,
      "hit": false,
      "t": 51506.79866666682,
      "d": 171.23270833333663,
      "v": 95
    },
    {
      "midi": 70,
      "hit": false,
      "t": 51643.78483333349,
      "d": 171.23270833333663,
      "v": 102
    },
    {
      "midi": 67,
      "hit": false,
      "t": 51780.771000000175,
      "d": 85.61635416666832,
      "v": 80
    },
    {
      "midi": 68,
      "hit": false,
      "t": 51849.26408333351,
      "d": 85.61635416666832,
      "v": 82
    },
    {
      "midi": 70,
      "hit": false,
      "t": 51917.757166666845,
      "d": 85.61635416666832,
      "v": 84
    },
    {
      "midi": 68,
      "hit": false,
      "t": 51986.25025000018,
      "d": 51.36981250000099,
      "v": 100
    },
    {
      "midi": 70,
      "hit": false,
      "t": 52020.49679166685,
      "d": 51.36981250000099,
      "v": 60
    },
    {
      "midi": 68,
      "hit": false,
      "t": 52054.743333333514,
      "d": 51.36981250000099,
      "v": 62
    },
    {
      "midi": 70,
      "hit": false,
      "t": 52088.98987500018,
      "d": 51.36981250000099,
      "v": 64
    },
    {
      "midi": 68,
      "hit": false,
      "t": 52123.23641666685,
      "d": 51.36981250000099,
      "v": 66
    },
    {
      "midi": 70,
      "hit": false,
      "t": 52157.482958333516,
      "d": 51.36981250000099,
      "v": 68
    },
    {
      "midi": 68,
      "hit": false,
      "t": 52191.72950000018,
      "d": 51.36981250000099,
      "v": 70
    },
    {
      "midi": 70,
      "hit": false,
      "t": 52225.97604166685,
      "d": 51.36981250000099,
      "v": 72
    },
    {
      "midi": 68,
      "hit": false,
      "t": 52260.22258333352,
      "d": 51.36981250000099,
      "v": 74
    },
    {
      "midi": 70,
      "hit": false,
      "t": 52294.469125000185,
      "d": 51.36981250000099,
      "v": 75
    },
    {
      "midi": 68,
      "hit": false,
      "t": 52328.71566666685,
      "d": 51.36981250000099,
      "v": 76
    },
    {
      "midi": 70,
      "hit": false,
      "t": 52362.96220833352,
      "d": 51.36981250000099,
      "v": 77
    },
    {
      "midi": 68,
      "hit": false,
      "t": 52397.20875000019,
      "d": 51.36981250000099,
      "v": 78
    },
    {
      "midi": 70,
      "hit": false,
      "t": 52431.455291666854,
      "d": 51.36981250000099,
      "v": 78
    },
    {
      "midi": 68,
      "hit": false,
      "t": 52465.70183333352,
      "d": 51.36981250000099,
      "v": 80
    },
    {
      "midi": 67,
      "hit": false,
      "t": 52499.94837500019,
      "d": 68.49308333333465,
      "v": 85
    },
    {
      "midi": 68,
      "hit": false,
      "t": 52551.31818750019,
      "d": 68.49308333333465,
      "v": 90
    },
    {
      "midi": 73,
      "hit": false,
      "t": 52602.68800000019,
      "d": 273.9723333333386,
      "v": 105
    },
    {
      "midi": 49,
      "hit": false,
      "t": 52739.67416666683,
      "d": 171.23270833333663,
      "v": 60
    },
    {
      "midi": 56,
      "hit": false,
      "t": 52739.67416666686,
      "d": 171.23270833333663,
      "v": 60
    },
    {
      "midi": 56,
      "hit": false,
      "t": 52876.6603333335,
      "d": 171.23270833333663,
      "v": 62
    },
    {
      "midi": 65,
      "hit": false,
      "t": 52876.66033333353,
      "d": 171.23270833333663,
      "v": 62
    },
    {
      "midi": 53,
      "hit": false,
      "t": 53013.64650000017,
      "d": 171.23270833333663,
      "v": 65
    },
    {
      "midi": 61,
      "hit": false,
      "t": 53013.6465000002,
      "d": 171.23270833333663,
      "v": 65
    },
    {
      "midi": 73,
      "hit": false,
      "t": 53013.6465000002,
      "d": 273.9723333333386,
      "v": 95
    },
    {
      "midi": 61,
      "hit": false,
      "t": 53150.63266666684,
      "d": 171.23270833333663,
      "v": 62
    },
    {
      "midi": 68,
      "hit": false,
      "t": 53150.63266666687,
      "d": 171.23270833333663,
      "v": 62
    },
    {
      "midi": 56,
      "hit": false,
      "t": 53287.61883333351,
      "d": 171.23270833333663,
      "v": 65
    },
    {
      "midi": 65,
      "hit": false,
      "t": 53287.61883333354,
      "d": 171.23270833333663,
      "v": 65
    },
    {
      "midi": 68,
      "hit": false,
      "t": 53424.60500000018,
      "d": 136.9861666666693,
      "v": 70
    },
    {
      "midi": 73,
      "hit": false,
      "t": 53424.60500000021,
      "d": 136.9861666666693,
      "v": 70
    },
    {
      "midi": 77,
      "hit": false,
      "t": 53424.60500000021,
      "d": 273.9723333333386,
      "v": 100
    },
    {
      "midi": 61,
      "hit": false,
      "t": 53630.08425000018,
      "d": 136.9861666666693,
      "v": 60
    },
    {
      "midi": 65,
      "hit": false,
      "t": 53630.08425000021,
      "d": 136.9861666666693,
      "v": 60
    },
    {
      "midi": 65,
      "hit": false,
      "t": 53835.563500000186,
      "d": 136.9861666666693,
      "v": 65
    },
    {
      "midi": 68,
      "hit": false,
      "t": 53835.563500000215,
      "d": 136.9861666666693,
      "v": 65
    },
    {
      "midi": 77,
      "hit": false,
      "t": 53835.563500000215,
      "d": 273.9723333333386,
      "v": 95
    },
    {
      "midi": 56,
      "hit": false,
      "t": 54041.04275000019,
      "d": 136.9861666666693,
      "v": 60
    },
    {
      "midi": 61,
      "hit": false,
      "t": 54041.04275000022,
      "d": 136.9861666666693,
      "v": 60
    },
    {
      "midi": 73,
      "hit": false,
      "t": 54246.52200000022,
      "d": 856.1635416666832,
      "v": 105
    },
    {
      "midi": 37,
      "hit": false,
      "t": 54383.50816666686,
      "d": 171.23270833333663,
      "v": 60
    },
    {
      "midi": 56,
      "hit": false,
      "t": 54383.50816666689,
      "d": 171.23270833333663,
      "v": 60
    },
    {
      "midi": 56,
      "hit": false,
      "t": 54520.49433333353,
      "d": 171.23270833333663,
      "v": 62
    },
    {
      "midi": 65,
      "hit": false,
      "t": 54520.49433333356,
      "d": 171.23270833333663,
      "v": 62
    },
    {
      "midi": 53,
      "hit": false,
      "t": 54657.4805000002,
      "d": 171.23270833333663,
      "v": 65
    },
    {
      "midi": 61,
      "hit": false,
      "t": 54657.48050000023,
      "d": 171.23270833333663,
      "v": 65
    },
    {
      "midi": 61,
      "hit": false,
      "t": 54794.46666666687,
      "d": 171.23270833333663,
      "v": 62
    },
    {
      "midi": 68,
      "hit": false,
      "t": 54794.4666666669,
      "d": 171.23270833333663,
      "v": 62
    },
    {
      "midi": 56,
      "hit": false,
      "t": 54931.45283333354,
      "d": 171.23270833333663,
      "v": 65
    },
    {
      "midi": 65,
      "hit": false,
      "t": 54931.45283333357,
      "d": 171.23270833333663,
      "v": 65
    },
    {
      "midi": 65,
      "hit": false,
      "t": 55068.43900000021,
      "d": 136.9861666666693,
      "v": 70
    },
    {
      "midi": 68,
      "hit": false,
      "t": 55068.43900000024,
      "d": 273.9723333333386,
      "v": 90
    },
    {
      "midi": 56,
      "hit": false,
      "t": 55273.91825000021,
      "d": 136.9861666666693,
      "v": 60
    },
    {
      "midi": 61,
      "hit": false,
      "t": 55273.91825000024,
      "d": 136.9861666666693,
      "v": 60
    },
    {
      "midi": 61,
      "hit": false,
      "t": 55479.39750000022,
      "d": 136.9861666666693,
      "v": 65
    },
    {
      "midi": 65,
      "hit": false,
      "t": 55479.39750000025,
      "d": 136.9861666666693,
      "v": 65
    },
    {
      "midi": 68,
      "hit": false,
      "t": 55479.39750000025,
      "d": 342.46541666667326,
      "v": 95
    },
    {
      "midi": 53,
      "hit": false,
      "t": 55684.87675000022,
      "d": 136.9861666666693,
      "v": 60
    },
    {
      "midi": 56,
      "hit": false,
      "t": 55684.87675000025,
      "d": 136.9861666666693,
      "v": 60
    },
    {
      "midi": 68,
      "hit": false,
      "t": 55890.356000000254,
      "d": 821.9170000000158,
      "v": 105
    },
    {
      "midi": 44,
      "hit": false,
      "t": 56027.342166666895,
      "d": 171.23270833333663,
      "v": 60
    },
    {
      "midi": 56,
      "hit": false,
      "t": 56027.342166666924,
      "d": 171.23270833333663,
      "v": 60
    },
    {
      "midi": 54,
      "hit": false,
      "t": 56164.328333333564,
      "d": 171.23270833333663,
      "v": 62
    },
    {
      "midi": 63,
      "hit": false,
      "t": 56164.32833333359,
      "d": 171.23270833333663,
      "v": 62
    },
    {
      "midi": 51,
      "hit": false,
      "t": 56301.31450000023,
      "d": 171.23270833333663,
      "v": 65
    },
    {
      "midi": 60,
      "hit": false,
      "t": 56301.31450000026,
      "d": 171.23270833333663,
      "v": 65
    },
    {
      "midi": 56,
      "hit": false,
      "t": 56438.3006666669,
      "d": 171.23270833333663,
      "v": 62
    },
    {
      "midi": 66,
      "hit": false,
      "t": 56438.30066666693,
      "d": 171.23270833333663,
      "v": 62
    },
    {
      "midi": 54,
      "hit": false,
      "t": 56575.28683333357,
      "d": 171.23270833333663,
      "v": 65
    },
    {
      "midi": 63,
      "hit": false,
      "t": 56575.2868333336,
      "d": 171.23270833333663,
      "v": 65
    },
    {
      "midi": 66,
      "hit": false,
      "t": 56712.27300000024,
      "d": 136.9861666666693,
      "v": 70
    },
    {
      "midi": 68,
      "hit": false,
      "t": 56712.27300000027,
      "d": 136.9861666666693,
      "v": 70
    },
    {
      "midi": 75,
      "hit": false,
      "t": 56712.27300000027,
      "d": 239.72579166667128,
      "v": 100
    },
    {
      "midi": 56,
      "hit": false,
      "t": 56917.752250000245,
      "d": 136.9861666666693,
      "v": 60
    },
    {
      "midi": 63,
      "hit": false,
      "t": 56917.752250000274,
      "d": 136.9861666666693,
      "v": 60
    },
    {
      "midi": 73,
      "hit": false,
      "t": 56917.752250000274,
      "d": 239.72579166667128,
      "v": 95
    },
    {
      "midi": 63,
      "hit": false,
      "t": 57123.23150000025,
      "d": 136.9861666666693,
      "v": 65
    },
    {
      "midi": 66,
      "hit": false,
      "t": 57123.23150000028,
      "d": 136.9861666666693,
      "v": 65
    },
    {
      "midi": 72,
      "hit": false,
      "t": 57123.23150000028,
      "d": 239.72579166667128,
      "v": 90
    },
    {
      "midi": 54,
      "hit": false,
      "t": 57328.71075000025,
      "d": 136.9861666666693,
      "v": 60
    },
    {
      "midi": 60,
      "hit": false,
      "t": 57328.71075000028,
      "d": 136.9861666666693,
      "v": 60
    },
    {
      "midi": 70,
      "hit": false,
      "t": 57328.71075000028,
      "d": 239.72579166667128,
      "v": 92
    },
    {
      "midi": 68,
      "hit": false,
      "t": 57534.190000000286,
      "d": 821.9170000000158,
      "v": 100
    },
    {
      "midi": 32,
      "hit": false,
      "t": 57671.176166666926,
      "d": 171.23270833333663,
      "v": 60
    },
    {
      "midi": 56,
      "hit": false,
      "t": 57671.176166666955,
      "d": 171.23270833333663,
      "v": 60
    },
    {
      "midi": 54,
      "hit": false,
      "t": 57808.162333333596,
      "d": 171.23270833333663,
      "v": 62
    },
    {
      "midi": 63,
      "hit": false,
      "t": 57808.162333333625,
      "d": 171.23270833333663,
      "v": 62
    },
    {
      "midi": 51,
      "hit": false,
      "t": 57945.148500000265,
      "d": 171.23270833333663,
      "v": 65
    },
    {
      "midi": 60,
      "hit": false,
      "t": 57945.148500000294,
      "d": 171.23270833333663,
      "v": 65
    },
    {
      "midi": 56,
      "hit": false,
      "t": 58082.134666666934,
      "d": 171.23270833333663,
      "v": 62
    },
    {
      "midi": 66,
      "hit": false,
      "t": 58082.13466666696,
      "d": 171.23270833333663,
      "v": 62
    },
    {
      "midi": 54,
      "hit": false,
      "t": 58219.1208333336,
      "d": 171.23270833333663,
      "v": 65
    },
    {
      "midi": 63,
      "hit": false,
      "t": 58219.12083333363,
      "d": 171.23270833333663,
      "v": 65
    },
    {
      "midi": 60,
      "hit": false,
      "t": 58356.10700000027,
      "d": 136.9861666666693,
      "v": 70
    },
    {
      "midi": 68,
      "hit": false,
      "t": 58356.1070000003,
      "d": 136.9861666666693,
      "v": 70
    },
    {
      "midi": 56,
      "hit": false,
      "t": 58561.58625000028,
      "d": 136.9861666666693,
      "v": 60
    },
    {
      "midi": 66,
      "hit": false,
      "t": 58561.586250000306,
      "d": 136.9861666666693,
      "v": 60
    },
    {
      "midi": 54,
      "hit": false,
      "t": 58767.06550000028,
      "d": 136.9861666666693,
      "v": 65
    },
    {
      "midi": 63,
      "hit": false,
      "t": 58767.06550000031,
      "d": 136.9861666666693,
      "v": 65
    },
    {
      "midi": 68,
      "hit": false,
      "t": 58767.06550000031,
      "d": 273.9723333333386,
      "v": 90
    },
    {
      "midi": 51,
      "hit": false,
      "t": 58972.544750000285,
      "d": 136.9861666666693,
      "v": 60
    },
    {
      "midi": 60,
      "hit": false,
      "t": 58972.544750000314,
      "d": 136.9861666666693,
      "v": 60
    },
    {
      "midi": 68,
      "hit": false,
      "t": 59075.284375000316,
      "d": 68.49308333333465,
      "v": 97
    },
    {
      "midi": 73,
      "hit": false,
      "t": 59178.02400000032,
      "d": 273.9723333333386,
      "v": 105
    },
    {
      "midi": 49,
      "hit": false,
      "t": 59315.01016666696,
      "d": 171.23270833333663,
      "v": 60
    },
    {
      "midi": 56,
      "hit": false,
      "t": 59315.01016666699,
      "d": 171.23270833333663,
      "v": 60
    },
    {
      "midi": 56,
      "hit": false,
      "t": 59451.99633333363,
      "d": 171.23270833333663,
      "v": 62
    },
    {
      "midi": 65,
      "hit": false,
      "t": 59451.99633333366,
      "d": 171.23270833333663,
      "v": 62
    },
    {
      "midi": 53,
      "hit": false,
      "t": 59588.9825000003,
      "d": 171.23270833333663,
      "v": 65
    },
    {
      "midi": 61,
      "hit": false,
      "t": 59588.982500000326,
      "d": 171.23270833333663,
      "v": 65
    },
    {
      "midi": 73,
      "hit": false,
      "t": 59588.982500000326,
      "d": 273.9723333333386,
      "v": 95
    },
    {
      "midi": 61,
      "hit": false,
      "t": 59725.968666666966,
      "d": 171.23270833333663,
      "v": 62
    },
    {
      "midi": 68,
      "hit": false,
      "t": 59725.968666666995,
      "d": 171.23270833333663,
      "v": 62
    },
    {
      "midi": 56,
      "hit": false,
      "t": 59862.954833333635,
      "d": 171.23270833333663,
      "v": 65
    },
    {
      "midi": 65,
      "hit": false,
      "t": 59862.954833333664,
      "d": 171.23270833333663,
      "v": 65
    },
    {
      "midi": 68,
      "hit": false,
      "t": 59999.941000000304,
      "d": 136.9861666666693,
      "v": 70
    },
    {
      "midi": 73,
      "hit": false,
      "t": 59999.94100000033,
      "d": 136.9861666666693,
      "v": 70
    },
    {
      "midi": 77,
      "hit": false,
      "t": 59999.94100000033,
      "d": 273.9723333333386,
      "v": 100
    },
    {
      "midi": 61,
      "hit": false,
      "t": 60205.42025000031,
      "d": 136.9861666666693,
      "v": 60
    },
    {
      "midi": 65,
      "hit": false,
      "t": 60205.42025000034,
      "d": 136.9861666666693,
      "v": 60
    },
    {
      "midi": 65,
      "hit": false,
      "t": 60410.89950000031,
      "d": 136.9861666666693,
      "v": 65
    },
    {
      "midi": 68,
      "hit": false,
      "t": 60410.89950000034,
      "d": 136.9861666666693,
      "v": 65
    },
    {
      "midi": 77,
      "hit": false,
      "t": 60410.89950000034,
      "d": 273.9723333333386,
      "v": 95
    },
    {
      "midi": 56,
      "hit": false,
      "t": 60616.378750000316,
      "d": 136.9861666666693,
      "v": 60
    },
    {
      "midi": 61,
      "hit": false,
      "t": 60616.378750000345,
      "d": 136.9861666666693,
      "v": 60
    },
    {
      "midi": 73,
      "hit": false,
      "t": 60821.85800000035,
      "d": 856.1635416666832,
      "v": 105
    },
    {
      "midi": 37,
      "hit": false,
      "t": 60958.84416666699,
      "d": 171.23270833333663,
      "v": 60
    },
    {
      "midi": 56,
      "hit": false,
      "t": 60958.84416666702,
      "d": 171.23270833333663,
      "v": 60
    },
    {
      "midi": 56,
      "hit": false,
      "t": 61095.83033333366,
      "d": 171.23270833333663,
      "v": 62
    },
    {
      "midi": 65,
      "hit": false,
      "t": 61095.83033333369,
      "d": 171.23270833333663,
      "v": 62
    },
    {
      "midi": 53,
      "hit": false,
      "t": 61232.81650000033,
      "d": 171.23270833333663,
      "v": 65
    },
    {
      "midi": 61,
      "hit": false,
      "t": 61232.81650000036,
      "d": 171.23270833333663,
      "v": 65
    },
    {
      "midi": 61,
      "hit": false,
      "t": 61369.802666667,
      "d": 171.23270833333663,
      "v": 62
    },
    {
      "midi": 68,
      "hit": false,
      "t": 61369.80266666703,
      "d": 171.23270833333663,
      "v": 62
    },
    {
      "midi": 56,
      "hit": false,
      "t": 61506.78883333367,
      "d": 171.23270833333663,
      "v": 65
    },
    {
      "midi": 65,
      "hit": false,
      "t": 61506.788833333696,
      "d": 171.23270833333663,
      "v": 65
    },
    {
      "midi": 65,
      "hit": false,
      "t": 61643.775000000336,
      "d": 136.9861666666693,
      "v": 70
    },
    {
      "midi": 68,
      "hit": false,
      "t": 61643.775000000365,
      "d": 273.9723333333386,
      "v": 90
    },
    {
      "midi": 56,
      "hit": false,
      "t": 61849.25425000034,
      "d": 136.9861666666693,
      "v": 60
    },
    {
      "midi": 61,
      "hit": false,
      "t": 61849.25425000037,
      "d": 136.9861666666693,
      "v": 60
    },
    {
      "midi": 61,
      "hit": false,
      "t": 62054.733500000344,
      "d": 136.9861666666693,
      "v": 65
    },
    {
      "midi": 65,
      "hit": false,
      "t": 62054.73350000037,
      "d": 136.9861666666693,
      "v": 65
    },
    {
      "midi": 73,
      "hit": false,
      "t": 62054.73350000037,
      "d": 342.46541666667326,
      "v": 95
    },
    {
      "midi": 53,
      "hit": false,
      "t": 62260.21275000035,
      "d": 136.9861666666693,
      "v": 60
    },
    {
      "midi": 56,
      "hit": false,
      "t": 62260.21275000038,
      "d": 136.9861666666693,
      "v": 60
    },
    {
      "midi": 72,
      "hit": false,
      "t": 62465.69200000038,
      "d": 445.20504166667524,
      "v": 105
    },
    {
      "midi": 51,
      "hit": false,
      "t": 62602.67816666702,
      "d": 171.23270833333663,
      "v": 60
    },
    {
      "midi": 60,
      "hit": false,
      "t": 62602.67816666705,
      "d": 171.23270833333663,
      "v": 60
    },
    {
      "midi": 56,
      "hit": false,
      "t": 62739.66433333369,
      "d": 171.23270833333663,
      "v": 62
    },
    {
      "midi": 63,
      "hit": false,
      "t": 62739.66433333372,
      "d": 171.23270833333663,
      "v": 62
    },
    {
      "midi": 60,
      "hit": false,
      "t": 62876.65050000036,
      "d": 171.23270833333663,
      "v": 65
    },
    {
      "midi": 68,
      "hit": false,
      "t": 62876.65050000039,
      "d": 171.23270833333663,
      "v": 65
    },
    {
      "midi": 70,
      "hit": false,
      "t": 62876.65050000039,
      "d": 239.72579166667128,
      "v": 94
    },
    {
      "midi": 56,
      "hit": false,
      "t": 63013.63666666703,
      "d": 171.23270833333663,
      "v": 62
    },
    {
      "midi": 63,
      "hit": false,
      "t": 63013.63666666706,
      "d": 171.23270833333663,
      "v": 62
    },
    {
      "midi": 72,
      "hit": false,
      "t": 63082.12975000039,
      "d": 239.72579166667128,
      "v": 97
    },
    {
      "midi": 51,
      "hit": false,
      "t": 63150.6228333337,
      "d": 171.23270833333663,
      "v": 65
    },
    {
      "midi": 60,
      "hit": false,
      "t": 63150.62283333373,
      "d": 171.23270833333663,
      "v": 65
    },
    {
      "midi": 73,
      "hit": false,
      "t": 63287.6090000004,
      "d": 273.9723333333386,
      "v": 100
    },
    {
      "midi": 39,
      "hit": false,
      "t": 63424.59516666704,
      "d": 171.23270833333663,
      "v": 63
    },
    {
      "midi": 58,
      "hit": false,
      "t": 63424.595166667066,
      "d": 171.23270833333663,
      "v": 62
    },
    {
      "midi": 55,
      "hit": false,
      "t": 63561.58133333371,
      "d": 171.23270833333663,
      "v": 65
    },
    {
      "midi": 63,
      "hit": false,
      "t": 63561.581333333736,
      "d": 171.23270833333663,
      "v": 65
    },
    {
      "midi": 58,
      "hit": false,
      "t": 63698.567500000376,
      "d": 171.23270833333663,
      "v": 68
    },
    {
      "midi": 67,
      "hit": false,
      "t": 63698.567500000405,
      "d": 273.9723333333386,
      "v": 90
    },
    {
      "midi": 55,
      "hit": false,
      "t": 63835.553666667045,
      "d": 171.23270833333663,
      "v": 64
    },
    {
      "midi": 63,
      "hit": false,
      "t": 63835.553666667074,
      "d": 171.23270833333663,
      "v": 63
    },
    {
      "midi": 51,
      "hit": false,
      "t": 63972.539833333714,
      "d": 171.23270833333663,
      "v": 60
    },
    {
      "midi": 61,
      "hit": false,
      "t": 63972.53983333374,
      "d": 171.23270833333663,
      "v": 58
    },
    {
      "midi": 68,
      "hit": false,
      "t": 64109.52600000041,
      "d": 821.9170000000158,
      "v": 100
    },
    {
      "midi": 32,
      "hit": false,
      "t": 64246.51216666705,
      "d": 171.23270833333663,
      "v": 60
    },
    {
      "midi": 56,
      "hit": false,
      "t": 64246.51216666708,
      "d": 171.23270833333663,
      "v": 60
    },
    {
      "midi": 51,
      "hit": false,
      "t": 64383.49833333372,
      "d": 171.23270833333663,
      "v": 62
    },
    {
      "midi": 60,
      "hit": false,
      "t": 64383.49833333375,
      "d": 171.23270833333663,
      "v": 62
    },
    {
      "midi": 48,
      "hit": false,
      "t": 64520.48450000039,
      "d": 171.23270833333663,
      "v": 65
    },
    {
      "midi": 56,
      "hit": false,
      "t": 64520.48450000042,
      "d": 171.23270833333663,
      "v": 65
    },
    {
      "midi": 56,
      "hit": false,
      "t": 64657.47066666706,
      "d": 171.23270833333663,
      "v": 62
    },
    {
      "midi": 63,
      "hit": false,
      "t": 64657.47066666709,
      "d": 171.23270833333663,
      "v": 62
    },
    {
      "midi": 51,
      "hit": false,
      "t": 64794.45683333373,
      "d": 171.23270833333663,
      "v": 65
    },
    {
      "midi": 60,
      "hit": false,
      "t": 64794.45683333376,
      "d": 171.23270833333663,
      "v": 65
    },
    {
      "midi": 60,
      "hit": false,
      "t": 64931.4430000004,
      "d": 136.9861666666693,
      "v": 70
    },
    {
      "midi": 68,
      "hit": false,
      "t": 64931.44300000043,
      "d": 136.9861666666693,
      "v": 70
    },
    {
      "midi": 56,
      "hit": false,
      "t": 65136.9222500004,
      "d": 136.9861666666693,
      "v": 60
    },
    {
      "midi": 63,
      "hit": false,
      "t": 65136.92225000043,
      "d": 136.9861666666693,
      "v": 60
    },
    {
      "midi": 51,
      "hit": false,
      "t": 65342.40150000041,
      "d": 136.9861666666693,
      "v": 65
    },
    {
      "midi": 60,
      "hit": false,
      "t": 65342.40150000044,
      "d": 136.9861666666693,
      "v": 65
    },
    {
      "midi": 68,
      "hit": false,
      "t": 65342.40150000044,
      "d": 342.465416666666,
      "v": 90
    },
    {
      "midi": 48,
      "hit": false,
      "t": 65547.8807500004,
      "d": 136.9861666666693,
      "v": 60
    },
    {
      "midi": 56,
      "hit": false,
      "t": 65547.88075000043,
      "d": 136.9861666666693,
      "v": 60
    },
    {
      "midi": 72,
      "hit": false,
      "t": 65753.36000000044,
      "d": 273.9723333333386,
      "v": 105
    },
    {
      "midi": 44,
      "hit": false,
      "t": 65890.34616666708,
      "d": 171.23270833333663,
      "v": 60
    },
    {
      "midi": 60,
      "hit": false,
      "t": 65890.3461666671,
      "d": 171.23270833333663,
      "v": 60
    },
    {
      "midi": 54,
      "hit": false,
      "t": 66027.33233333375,
      "d": 171.23270833333663,
      "v": 62
    },
    {
      "midi": 63,
      "hit": false,
      "t": 66027.33233333378,
      "d": 171.23270833333663,
      "v": 62
    },
    {
      "midi": 63,
      "hit": false,
      "t": 66164.31850000042,
      "d": 171.23270833333663,
      "v": 65
    },
    {
      "midi": 66,
      "hit": false,
      "t": 66164.31850000045,
      "d": 171.23270833333663,
      "v": 65
    },
    {
      "midi": 72,
      "hit": false,
      "t": 66164.31850000045,
      "d": 273.9723333333386,
      "v": 95
    },
    {
      "midi": 64,
      "hit": false,
      "t": 66301.30466666709,
      "d": 171.23270833333663,
      "v": 62
    },
    {
      "midi": 67,
      "hit": false,
      "t": 66301.30466666711,
      "d": 171.23270833333663,
      "v": 62
    },
    {
      "midi": 65,
      "hit": false,
      "t": 66438.29083333375,
      "d": 171.23270833333663,
      "v": 65
    },
    {
      "midi": 68,
      "hit": false,
      "t": 66438.29083333378,
      "d": 171.23270833333663,
      "v": 65
    },
    {
      "midi": 66,
      "hit": false,
      "t": 66575.27700000042,
      "d": 136.9861666666693,
      "v": 70
    },
    {
      "midi": 63,
      "hit": false,
      "t": 66575.27700000045,
      "d": 136.9861666666693,
      "v": 70
    },
    {
      "midi": 73,
      "hit": false,
      "t": 66575.27700000045,
      "d": 239.72579166667128,
      "v": 100
    },
    {
      "midi": 56,
      "hit": false,
      "t": 66780.75625000043,
      "d": 136.9861666666693,
      "v": 60
    },
    {
      "midi": 68,
      "hit": false,
      "t": 66780.75625000046,
      "d": 136.9861666666693,
      "v": 60
    },
    {
      "midi": 72,
      "hit": false,
      "t": 66780.75625000046,
      "d": 239.72579166667128,
      "v": 97
    },
    {
      "midi": 63,
      "hit": false,
      "t": 66986.23550000043,
      "d": 136.9861666666693,
      "v": 65
    },
    {
      "midi": 66,
      "hit": false,
      "t": 66986.23550000046,
      "d": 136.9861666666693,
      "v": 65
    },
    {
      "midi": 70,
      "hit": false,
      "t": 66986.23550000046,
      "d": 239.72579166667128,
      "v": 95
    },
    {
      "midi": 56,
      "hit": false,
      "t": 67191.71475000044,
      "d": 136.9861666666693,
      "v": 60
    },
    {
      "midi": 68,
      "hit": false,
      "t": 67191.71475000046,
      "d": 136.9861666666693,
      "v": 60
    },
    {
      "midi": 72,
      "hit": false,
      "t": 67191.71475000046,
      "d": 239.72579166667128,
      "v": 99
    },
    {
      "midi": 73,
      "hit": false,
      "t": 67397.19400000047,
      "d": 856.1635416666832,
      "v": 105
    },
    {
      "midi": 49,
      "hit": false,
      "t": 67534.18016666711,
      "d": 171.23270833333663,
      "v": 60
    },
    {
      "midi": 61,
      "hit": false,
      "t": 67534.18016666714,
      "d": 171.23270833333663,
      "v": 60
    },
    {
      "midi": 56,
      "hit": false,
      "t": 67671.16633333378,
      "d": 171.23270833333663,
      "v": 62
    },
    {
      "midi": 65,
      "hit": false,
      "t": 67671.16633333381,
      "d": 171.23270833333663,
      "v": 62
    },
    {
      "midi": 63,
      "hit": false,
      "t": 67808.15250000045,
      "d": 171.23270833333663,
      "v": 65
    },
    {
      "midi": 66,
      "hit": false,
      "t": 67808.15250000048,
      "d": 171.23270833333663,
      "v": 65
    },
    {
      "midi": 64,
      "hit": false,
      "t": 67945.13866666712,
      "d": 171.23270833333663,
      "v": 62
    },
    {
      "midi": 67,
      "hit": false,
      "t": 67945.13866666715,
      "d": 171.23270833333663,
      "v": 62
    },
    {
      "midi": 65,
      "hit": false,
      "t": 68082.12483333379,
      "d": 171.23270833333663,
      "v": 65
    },
    {
      "midi": 68,
      "hit": false,
      "t": 68082.12483333382,
      "d": 171.23270833333663,
      "v": 65
    },
    {
      "midi": 68,
      "hit": false,
      "t": 68219.11100000046,
      "d": 136.9861666666693,
      "v": 70
    },
    {
      "midi": 77,
      "hit": false,
      "t": 68219.11100000048,
      "d": 136.9861666666693,
      "v": 58
    },
    {
      "midi": 61,
      "hit": false,
      "t": 68424.59025000046,
      "d": 136.9861666666693,
      "v": 60
    },
    {
      "midi": 65,
      "hit": false,
      "t": 68424.59025000049,
      "d": 136.9861666666693,
      "v": 60
    },
    {
      "midi": 73,
      "hit": false,
      "t": 68424.59025000049,
      "d": 136.9861666666693,
      "v": 55
    },
    {
      "midi": 65,
      "hit": false,
      "t": 68630.06950000046,
      "d": 136.9861666666693,
      "v": 65
    },
    {
      "midi": 68,
      "hit": false,
      "t": 68630.06950000049,
      "d": 239.72579166667128,
      "v": 95
    },
    {
      "midi": 56,
      "hit": false,
      "t": 68835.54875000047,
      "d": 136.9861666666693,
      "v": 60
    },
    {
      "midi": 65,
      "hit": false,
      "t": 68835.5487500005,
      "d": 136.9861666666693,
      "v": 60
    },
    {
      "midi": 73,
      "hit": false,
      "t": 68835.5487500005,
      "d": 239.72579166667128,
      "v": 102
    },
    {
      "midi": 72,
      "hit": false,
      "t": 69041.0280000005,
      "d": 273.9723333333386,
      "v": 105
    },
    {
      "midi": 44,
      "hit": false,
      "t": 69178.01416666714,
      "d": 171.23270833333663,
      "v": 60
    },
    {
      "midi": 60,
      "hit": false,
      "t": 69178.01416666717,
      "d": 171.23270833333663,
      "v": 60
    },
    {
      "midi": 54,
      "hit": false,
      "t": 69315.00033333381,
      "d": 171.23270833333663,
      "v": 62
    },
    {
      "midi": 63,
      "hit": false,
      "t": 69315.00033333384,
      "d": 171.23270833333663,
      "v": 62
    },
    {
      "midi": 63,
      "hit": false,
      "t": 69451.98650000048,
      "d": 171.23270833333663,
      "v": 65
    },
    {
      "midi": 66,
      "hit": false,
      "t": 69451.98650000051,
      "d": 171.23270833333663,
      "v": 65
    },
    {
      "midi": 72,
      "hit": false,
      "t": 69451.98650000051,
      "d": 273.9723333333386,
      "v": 95
    },
    {
      "midi": 64,
      "hit": false,
      "t": 69588.97266666715,
      "d": 171.23270833333663,
      "v": 62
    },
    {
      "midi": 67,
      "hit": false,
      "t": 69588.97266666718,
      "d": 171.23270833333663,
      "v": 62
    },
    {
      "midi": 65,
      "hit": false,
      "t": 69725.95883333382,
      "d": 171.23270833333663,
      "v": 65
    },
    {
      "midi": 68,
      "hit": false,
      "t": 69725.95883333385,
      "d": 171.23270833333663,
      "v": 65
    },
    {
      "midi": 66,
      "hit": false,
      "t": 69862.94500000049,
      "d": 136.9861666666693,
      "v": 70
    },
    {
      "midi": 69,
      "hit": false,
      "t": 69862.94500000052,
      "d": 136.9861666666693,
      "v": 70
    },
    {
      "midi": 72,
      "hit": false,
      "t": 69862.94500000052,
      "d": 239.72579166667128,
      "v": 100
    },
    {
      "midi": 63,
      "hit": false,
      "t": 70068.42425000049,
      "d": 136.9861666666693,
      "v": 60
    },
    {
      "midi": 68,
      "hit": false,
      "t": 70068.42425000052,
      "d": 136.9861666666693,
      "v": 60
    },
    {
      "midi": 78,
      "hit": false,
      "t": 70068.42425000052,
      "d": 239.72579166667128,
      "v": 95
    },
    {
      "midi": 60,
      "hit": false,
      "t": 70273.9035000005,
      "d": 136.9861666666693,
      "v": 65
    },
    {
      "midi": 67,
      "hit": false,
      "t": 70273.90350000052,
      "d": 136.9861666666693,
      "v": 65
    },
    {
      "midi": 75,
      "hit": false,
      "t": 70273.90350000052,
      "d": 239.72579166667128,
      "v": 90
    },
    {
      "midi": 56,
      "hit": false,
      "t": 70479.3827500005,
      "d": 136.9861666666693,
      "v": 60
    },
    {
      "midi": 66,
      "hit": false,
      "t": 70479.38275000053,
      "d": 136.9861666666693,
      "v": 60
    },
    {
      "midi": 72,
      "hit": false,
      "t": 70479.38275000053,
      "d": 239.72579166667128,
      "v": 92
    },
    {
      "midi": 73,
      "hit": false,
      "t": 70684.86200000053,
      "d": 821.9170000000158,
      "v": 100
    },
    {
      "midi": 49,
      "hit": false,
      "t": 70821.84816666717,
      "d": 171.23270833333663,
      "v": 60
    },
    {
      "midi": 61,
      "hit": false,
      "t": 70821.8481666672,
      "d": 171.23270833333663,
      "v": 60
    },
    {
      "midi": 56,
      "hit": false,
      "t": 70958.83433333384,
      "d": 171.23270833333663,
      "v": 62
    },
    {
      "midi": 65,
      "hit": false,
      "t": 70958.83433333387,
      "d": 171.23270833333663,
      "v": 62
    },
    {
      "midi": 63,
      "hit": false,
      "t": 71095.82050000051,
      "d": 171.23270833333663,
      "v": 65
    },
    {
      "midi": 66,
      "hit": false,
      "t": 71095.82050000054,
      "d": 171.23270833333663,
      "v": 65
    },
    {
      "midi": 64,
      "hit": false,
      "t": 71232.80666666718,
      "d": 171.23270833333663,
      "v": 62
    },
    {
      "midi": 67,
      "hit": false,
      "t": 71232.80666666721,
      "d": 171.23270833333663,
      "v": 62
    },
    {
      "midi": 65,
      "hit": false,
      "t": 71369.79283333385,
      "d": 171.23270833333663,
      "v": 65
    },
    {
      "midi": 68,
      "hit": false,
      "t": 71369.79283333388,
      "d": 171.23270833333663,
      "v": 65
    },
    {
      "midi": 68,
      "hit": false,
      "t": 71506.77900000052,
      "d": 136.9861666666693,
      "v": 70
    },
    {
      "midi": 77,
      "hit": false,
      "t": 71506.77900000055,
      "d": 136.9861666666693,
      "v": 60
    },
    {
      "midi": 65,
      "hit": false,
      "t": 71712.25825000052,
      "d": 136.9861666666693,
      "v": 60
    },
    {
      "midi": 68,
      "hit": false,
      "t": 71712.25825000055,
      "d": 136.9861666666693,
      "v": 60
    },
    {
      "midi": 61,
      "hit": false,
      "t": 71917.73750000053,
      "d": 136.9861666666693,
      "v": 55
    },
    {
      "midi": 68,
      "hit": false,
      "t": 71917.73750000053,
      "d": 136.9861666666693,
      "v": 65
    },
    {
      "midi": 65,
      "hit": false,
      "t": 71917.73750000056,
      "d": 136.9861666666693,
      "v": 65
    },
    {
      "midi": 73,
      "hit": false,
      "t": 71917.73750000056,
      "d": 273.9723333333386,
      "v": 90
    },
    {
      "midi": 65,
      "hit": false,
      "t": 72123.21675000053,
      "d": 136.9861666666693,
      "v": 60
    },
    {
      "midi": 68,
      "hit": false,
      "t": 72123.21675000056,
      "d": 136.9861666666693,
      "v": 60
    },
    {
      "midi": 66,
      "hit": false,
      "t": 72328.69600000056,
      "d": 273.9723333333386,
      "v": 60
    },
    {
      "midi": 70,
      "hit": false,
      "t": 72328.69600000056,
      "d": 273.9723333333386,
      "v": 100
    },
    {
      "midi": 42,
      "hit": false,
      "t": 72465.6821666672,
      "d": 171.23270833333663,
      "v": 60
    },
    {
      "midi": 49,
      "hit": false,
      "t": 72602.66833333387,
      "d": 171.23270833333663,
      "v": 62
    },
    {
      "midi": 58,
      "hit": false,
      "t": 72739.65450000054,
      "d": 171.23270833333663,
      "v": 65
    },
    {
      "midi": 61,
      "hit": false,
      "t": 72739.65450000057,
      "d": 273.9723333333386,
      "v": 50
    },
    {
      "midi": 66,
      "hit": false,
      "t": 72739.65450000057,
      "d": 273.9723333333386,
      "v": 55
    },
    {
      "midi": 70,
      "hit": false,
      "t": 72739.65450000057,
      "d": 273.9723333333386,
      "v": 90
    },
    {
      "midi": 59,
      "hit": false,
      "t": 72876.64066666721,
      "d": 171.23270833333663,
      "v": 62
    },
    {
      "midi": 60,
      "hit": false,
      "t": 73013.62683333388,
      "d": 171.23270833333663,
      "v": 65
    },
    {
      "midi": 61,
      "hit": false,
      "t": 73150.61300000055,
      "d": 273.9723333333386,
      "v": 55
    },
    {
      "midi": 66,
      "hit": false,
      "t": 73150.61300000055,
      "d": 273.9723333333386,
      "v": 60
    },
    {
      "midi": 70,
      "hit": false,
      "t": 73150.61300000055,
      "d": 273.9723333333386,
      "v": 95
    },
    {
      "midi": 73,
      "hit": false,
      "t": 73253.35262500058,
      "d": 136.9861666666693,
      "v": 60
    },
    {
      "midi": 78,
      "hit": false,
      "t": 73356.09225000058,
      "d": 136.9861666666693,
      "v": 62
    },
    {
      "midi": 82,
      "hit": false,
      "t": 73458.83187500059,
      "d": 136.9861666666693,
      "v": 64
    },
    {
      "midi": 66,
      "hit": false,
      "t": 73561.57150000056,
      "d": 273.9723333333386,
      "v": 60
    },
    {
      "midi": 70,
      "hit": false,
      "t": 73561.57150000056,
      "d": 273.9723333333386,
      "v": 65
    },
    {
      "midi": 73,
      "hit": false,
      "t": 73561.57150000056,
      "d": 273.9723333333386,
      "v": 100
    },
    {
      "midi": 83,
      "hit": false,
      "t": 73561.57150000059,
      "d": 136.9861666666693,
      "v": 68
    },
    {
      "midi": 84,
      "hit": false,
      "t": 73664.31112500059,
      "d": 136.9861666666693,
      "v": 70
    },
    {
      "midi": 87,
      "hit": false,
      "t": 73767.05075000059,
      "d": 136.9861666666693,
      "v": 75
    },
    {
      "midi": 85,
      "hit": false,
      "t": 73869.7903750006,
      "d": 136.9861666666693,
      "v": 65
    },
    {
      "midi": 56,
      "hit": false,
      "t": 73904.03691666726,
      "d": 342.46541666667326,
      "v": 65
    },
    {
      "midi": 65,
      "hit": false,
      "t": 73938.28345833393,
      "d": 308.21887500000594,
      "v": 60
    },
    {
      "midi": 73,
      "hit": false,
      "t": 73972.5300000006,
      "d": 856.1635416666686,
      "v": 105
    },
    {
      "midi": 37,
      "hit": false,
      "t": 74109.51616666724,
      "d": 171.23270833333663,
      "v": 60
    },
    {
      "midi": 44,
      "hit": false,
      "t": 74246.5023333339,
      "d": 171.23270833333663,
      "v": 62
    },
    {
      "midi": 53,
      "hit": false,
      "t": 74383.48850000057,
      "d": 136.9861666666693,
      "v": 65
    },
    {
      "midi": 54,
      "hit": false,
      "t": 74486.22812500058,
      "d": 136.9861666666693,
      "v": 60
    },
    {
      "midi": 55,
      "hit": false,
      "t": 74588.96775000058,
      "d": 136.9861666666693,
      "v": 62
    },
    {
      "midi": 56,
      "hit": false,
      "t": 74691.70737500058,
      "d": 136.9861666666693,
      "v": 65
    },
    {
      "midi": 61,
      "hit": false,
      "t": 74794.44700000058,
      "d": 273.9723333333386,
      "v": 55
    },
    {
      "midi": 65,
      "hit": false,
      "t": 74794.44700000058,
      "d": 273.9723333333386,
      "v": 60
    },
    {
      "midi": 68,
      "hit": false,
      "t": 74794.44700000058,
      "d": 273.9723333333386,
      "v": 95
    },
    {
      "midi": 73,
      "hit": false,
      "t": 74897.1866250006,
      "d": 136.9861666666693,
      "v": 60
    },
    {
      "midi": 77,
      "hit": false,
      "t": 74999.9262500006,
      "d": 136.9861666666693,
      "v": 62
    },
    {
      "midi": 78,
      "hit": false,
      "t": 75102.6658750006,
      "d": 136.9861666666693,
      "v": 64
    },
    {
      "midi": 56,
      "hit": false,
      "t": 75205.40550000059,
      "d": 273.9723333333386,
      "v": 65
    },
    {
      "midi": 65,
      "hit": false,
      "t": 75205.40550000059,
      "d": 273.9723333333386,
      "v": 60
    },
    {
      "midi": 68,
      "hit": false,
      "t": 75205.40550000059,
      "d": 273.9723333333386,
      "v": 90
    },
    {
      "midi": 79,
      "hit": false,
      "t": 75205.4055000006,
      "d": 171.23270833333663,
      "v": 68
    },
    {
      "midi": 80,
      "hit": false,
      "t": 75308.1451250006,
      "d": 205.47925000000396,
      "v": 62
    },
    {
      "midi": 89,
      "hit": false,
      "t": 75342.39166666727,
      "d": 171.23270833333663,
      "v": 70
    },
    {
      "midi": 85,
      "hit": false,
      "t": 75479.37783333394,
      "d": 171.23270833333663,
      "v": 75
    },
    {
      "midi": 60,
      "hit": false,
      "t": 75616.36400000061,
      "d": 547.9446666666627,
      "v": 60
    },
    {
      "midi": 66,
      "hit": false,
      "t": 75616.36400000061,
      "d": 547.9446666666627,
      "v": 60
    },
    {
      "midi": 68,
      "hit": false,
      "t": 75616.36400000061,
      "d": 547.9446666666627,
      "v": 100
    },
    {
      "midi": 44,
      "hit": false,
      "t": 75753.35016666727,
      "d": 171.23270833333663,
      "v": 60
    },
    {
      "midi": 51,
      "hit": false,
      "t": 75890.33633333394,
      "d": 171.23270833333663,
      "v": 62
    },
    {
      "midi": 54,
      "hit": false,
      "t": 76027.3225000006,
      "d": 136.9861666666693,
      "v": 65
    },
    {
      "midi": 55,
      "hit": false,
      "t": 76130.06212500061,
      "d": 136.9861666666693,
      "v": 60
    },
    {
      "midi": 63,
      "hit": false,
      "t": 76232.80175000061,
      "d": 171.23270833333663,
      "v": 55
    },
    {
      "midi": 68,
      "hit": false,
      "t": 76232.80175000061,
      "d": 171.23270833333663,
      "v": 90
    },
    {
      "midi": 56,
      "hit": false,
      "t": 76232.80175000061,
      "d": 136.9861666666693,
      "v": 62
    },
    {
      "midi": 60,
      "hit": false,
      "t": 76335.54137500061,
      "d": 136.9861666666693,
      "v": 65
    },
    {
      "midi": 66,
      "hit": false,
      "t": 76438.28100000061,
      "d": 273.9723333333386,
      "v": 55
    },
    {
      "midi": 68,
      "hit": false,
      "t": 76438.28100000061,
      "d": 273.9723333333386,
      "v": 60
    },
    {
      "midi": 75,
      "hit": false,
      "t": 76438.28100000061,
      "d": 273.9723333333386,
      "v": 95
    },
    {
      "midi": 78,
      "hit": false,
      "t": 76575.26716666728,
      "d": 171.23270833333663,
      "v": 60
    },
    {
      "midi": 79,
      "hit": false,
      "t": 76712.25333333395,
      "d": 171.23270833333663,
      "v": 63
    },
    {
      "midi": 80,
      "hit": false,
      "t": 76849.23950000062,
      "d": 171.23270833333663,
      "v": 66
    },
    {
      "midi": 63,
      "hit": false,
      "t": 76849.23950000062,
      "d": 273.9723333333386,
      "v": 65
    },
    {
      "midi": 66,
      "hit": false,
      "t": 76849.23950000062,
      "d": 273.9723333333386,
      "v": 60
    },
    {
      "midi": 72,
      "hit": false,
      "t": 76849.23950000062,
      "d": 273.9723333333386,
      "v": 90
    },
    {
      "midi": 90,
      "hit": false,
      "t": 76986.22566666729,
      "d": 171.23270833333663,
      "v": 72
    },
    {
      "midi": 84,
      "hit": false,
      "t": 77123.21183333396,
      "d": 171.23270833333663,
      "v": 62
    },
    {
      "midi": 61,
      "hit": false,
      "t": 77260.19800000063,
      "d": 856.1635416666686,
      "v": 58
    },
    {
      "midi": 65,
      "hit": false,
      "t": 77260.19800000063,
      "d": 856.1635416666686,
      "v": 62
    },
    {
      "midi": 73,
      "hit": false,
      "t": 77260.19800000063,
      "d": 1164.3824166666745,
      "v": 100
    },
    {
      "midi": 37,
      "hit": false,
      "t": 77397.1841666673,
      "d": 171.23270833333663,
      "v": 70
    },
    {
      "midi": 44,
      "hit": false,
      "t": 77534.17033333397,
      "d": 171.23270833333663,
      "v": 62
    },
    {
      "midi": 53,
      "hit": false,
      "t": 77671.15650000064,
      "d": 171.23270833333663,
      "v": 65
    },
    {
      "midi": 54,
      "hit": false,
      "t": 77808.1426666673,
      "d": 171.23270833333663,
      "v": 60
    },
    {
      "midi": 55,
      "hit": false,
      "t": 77945.12883333398,
      "d": 171.23270833333663,
      "v": 62
    },
    {
      "midi": 56,
      "hit": false,
      "t": 78082.11500000065,
      "d": 171.23270833333663,
      "v": 65
    },
    {
      "midi": 65,
      "hit": false,
      "t": 78219.10116666731,
      "d": 171.23270833333663,
      "v": 68
    },
    {
      "midi": 61,
      "hit": false,
      "t": 78356.08733333398,
      "d": 171.23270833333663,
      "v": 58
    },
    {
      "midi": 65,
      "hit": false,
      "t": 78390.33387500065,
      "d": 376.7119583333406,
      "v": 55
    },
    {
      "midi": 68,
      "hit": false,
      "t": 78424.58041666732,
      "d": 342.46541666667326,
      "v": 58
    },
    {
      "midi": 73,
      "hit": false,
      "t": 78458.82695833399,
      "d": 308.21887500000594,
      "v": 61
    },
    {
      "midi": 80,
      "hit": false,
      "t": 78493.07350000064,
      "d": 171.23270833333663,
      "v": 68
    },
    {
      "midi": 77,
      "hit": false,
      "t": 78493.07350000065,
      "d": 273.9723333333386,
      "v": 98
    },
    {
      "midi": 89,
      "hit": false,
      "t": 78630.05966666731,
      "d": 171.23270833333663,
      "v": 75
    },
    {
      "midi": 85,
      "hit": false,
      "t": 78767.04583333398,
      "d": 171.23270833333663,
      "v": 65
    },
    {
      "midi": 72,
      "hit": false,
      "t": 78904.03200000065,
      "d": 239.72579166667128,
      "v": 100
    },
    {
      "midi": 66,
      "hit": false,
      "t": 78904.03200000065,
      "d": 273.9723333333386,
      "v": 60
    },
    {
      "midi": 42,
      "hit": false,
      "t": 79041.01816666733,
      "d": 171.23270833333663,
      "v": 60
    },
    {
      "midi": 70,
      "hit": false,
      "t": 79109.51125000065,
      "d": 171.23270833333663,
      "v": 85
    },
    {
      "midi": 49,
      "hit": false,
      "t": 79178.004333334,
      "d": 171.23270833333663,
      "v": 62
    },
    {
      "midi": 61,
      "hit": false,
      "t": 79314.99050000065,
      "d": 273.9723333333386,
      "v": 50
    },
    {
      "midi": 66,
      "hit": false,
      "t": 79314.99050000065,
      "d": 273.9723333333386,
      "v": 55
    },
    {
      "midi": 70,
      "hit": false,
      "t": 79314.99050000065,
      "d": 273.9723333333386,
      "v": 90
    },
    {
      "midi": 58,
      "hit": false,
      "t": 79314.99050000067,
      "d": 171.23270833333663,
      "v": 65
    },
    {
      "midi": 59,
      "hit": false,
      "t": 79451.97666666734,
      "d": 171.23270833333663,
      "v": 62
    },
    {
      "midi": 60,
      "hit": false,
      "t": 79588.96283333401,
      "d": 171.23270833333663,
      "v": 65
    },
    {
      "midi": 61,
      "hit": false,
      "t": 79725.94900000068,
      "d": 273.9723333333386,
      "v": 55
    },
    {
      "midi": 66,
      "hit": false,
      "t": 79725.94900000068,
      "d": 273.9723333333386,
      "v": 60
    },
    {
      "midi": 70,
      "hit": false,
      "t": 79725.94900000068,
      "d": 273.9723333333386,
      "v": 95
    },
    {
      "midi": 73,
      "hit": false,
      "t": 79828.68862500066,
      "d": 136.9861666666693,
      "v": 60
    },
    {
      "midi": 78,
      "hit": false,
      "t": 79931.42825000067,
      "d": 136.9861666666693,
      "v": 62
    },
    {
      "midi": 82,
      "hit": false,
      "t": 80034.16787500067,
      "d": 136.9861666666693,
      "v": 64
    },
    {
      "midi": 83,
      "hit": false,
      "t": 80136.90750000067,
      "d": 136.9861666666693,
      "v": 68
    },
    {
      "midi": 66,
      "hit": false,
      "t": 80136.90750000069,
      "d": 273.9723333333386,
      "v": 60
    },
    {
      "midi": 70,
      "hit": false,
      "t": 80136.90750000069,
      "d": 273.9723333333386,
      "v": 65
    },
    {
      "midi": 73,
      "hit": false,
      "t": 80136.90750000069,
      "d": 273.9723333333386,
      "v": 100
    },
    {
      "midi": 84,
      "hit": false,
      "t": 80239.64712500067,
      "d": 136.9861666666693,
      "v": 70
    },
    {
      "midi": 87,
      "hit": false,
      "t": 80342.38675000067,
      "d": 136.9861666666693,
      "v": 75
    },
    {
      "midi": 85,
      "hit": false,
      "t": 80445.12637500068,
      "d": 136.9861666666693,
      "v": 65
    },
    {
      "midi": 56,
      "hit": false,
      "t": 80479.37291666734,
      "d": 342.46541666667326,
      "v": 65
    },
    {
      "midi": 65,
      "hit": false,
      "t": 80513.61945833401,
      "d": 308.21887500000594,
      "v": 60
    },
    {
      "midi": 73,
      "hit": false,
      "t": 80547.86600000068,
      "d": 856.1635416666686,
      "v": 105
    },
    {
      "midi": 37,
      "hit": false,
      "t": 80684.85216666736,
      "d": 171.23270833333663,
      "v": 60
    },
    {
      "midi": 44,
      "hit": false,
      "t": 80821.83833333403,
      "d": 171.23270833333663,
      "v": 62
    },
    {
      "midi": 53,
      "hit": false,
      "t": 80958.8245000007,
      "d": 136.9861666666693,
      "v": 65
    },
    {
      "midi": 54,
      "hit": false,
      "t": 81061.5641250007,
      "d": 136.9861666666693,
      "v": 60
    },
    {
      "midi": 55,
      "hit": false,
      "t": 81164.3037500007,
      "d": 136.9861666666693,
      "v": 62
    },
    {
      "midi": 56,
      "hit": false,
      "t": 81267.0433750007,
      "d": 136.9861666666693,
      "v": 65
    },
    {
      "midi": 61,
      "hit": false,
      "t": 81369.78300000071,
      "d": 273.9723333333386,
      "v": 55
    },
    {
      "midi": 65,
      "hit": false,
      "t": 81369.78300000071,
      "d": 273.9723333333386,
      "v": 60
    },
    {
      "midi": 68,
      "hit": false,
      "t": 81369.78300000071,
      "d": 273.9723333333386,
      "v": 95
    },
    {
      "midi": 73,
      "hit": false,
      "t": 81472.52262500068,
      "d": 136.9861666666693,
      "v": 60
    },
    {
      "midi": 77,
      "hit": false,
      "t": 81575.26225000068,
      "d": 136.9861666666693,
      "v": 62
    },
    {
      "midi": 78,
      "hit": false,
      "t": 81678.00187500069,
      "d": 136.9861666666693,
      "v": 64
    },
    {
      "midi": 79,
      "hit": false,
      "t": 81780.74150000069,
      "d": 171.23270833333663,
      "v": 68
    },
    {
      "midi": 56,
      "hit": false,
      "t": 81780.74150000072,
      "d": 273.9723333333386,
      "v": 65
    },
    {
      "midi": 65,
      "hit": false,
      "t": 81780.74150000072,
      "d": 273.9723333333386,
      "v": 60
    },
    {
      "midi": 68,
      "hit": false,
      "t": 81780.74150000072,
      "d": 273.9723333333386,
      "v": 90
    },
    {
      "midi": 80,
      "hit": false,
      "t": 81883.48112500069,
      "d": 205.47925000000396,
      "v": 62
    },
    {
      "midi": 89,
      "hit": false,
      "t": 81917.72766666736,
      "d": 171.23270833333663,
      "v": 70
    },
    {
      "midi": 85,
      "hit": false,
      "t": 82054.71383333403,
      "d": 171.23270833333663,
      "v": 75
    },
    {
      "midi": 60,
      "hit": false,
      "t": 82191.7000000007,
      "d": 547.9446666666627,
      "v": 60
    },
    {
      "midi": 66,
      "hit": false,
      "t": 82191.7000000007,
      "d": 547.9446666666627,
      "v": 60
    },
    {
      "midi": 68,
      "hit": false,
      "t": 82191.7000000007,
      "d": 547.9446666666627,
      "v": 100
    },
    {
      "midi": 44,
      "hit": false,
      "t": 82328.6861666674,
      "d": 171.23270833333663,
      "v": 60
    },
    {
      "midi": 51,
      "hit": false,
      "t": 82465.67233333406,
      "d": 171.23270833333663,
      "v": 62
    },
    {
      "midi": 54,
      "hit": false,
      "t": 82602.65850000073,
      "d": 136.9861666666693,
      "v": 65
    },
    {
      "midi": 55,
      "hit": false,
      "t": 82705.39812500073,
      "d": 136.9861666666693,
      "v": 60
    },
    {
      "midi": 63,
      "hit": false,
      "t": 82808.1377500007,
      "d": 171.23270833333663,
      "v": 55
    },
    {
      "midi": 68,
      "hit": false,
      "t": 82808.1377500007,
      "d": 171.23270833333663,
      "v": 90
    },
    {
      "midi": 56,
      "hit": false,
      "t": 82808.13775000074,
      "d": 136.9861666666693,
      "v": 62
    },
    {
      "midi": 60,
      "hit": false,
      "t": 82910.87737500074,
      "d": 136.9861666666693,
      "v": 65
    },
    {
      "midi": 66,
      "hit": false,
      "t": 83013.61700000074,
      "d": 273.9723333333386,
      "v": 55
    },
    {
      "midi": 68,
      "hit": false,
      "t": 83013.61700000074,
      "d": 273.9723333333386,
      "v": 60
    },
    {
      "midi": 75,
      "hit": false,
      "t": 83013.61700000074,
      "d": 273.9723333333386,
      "v": 95
    },
    {
      "midi": 78,
      "hit": false,
      "t": 83150.60316666737,
      "d": 171.23270833333663,
      "v": 60
    },
    {
      "midi": 79,
      "hit": false,
      "t": 83287.58933333404,
      "d": 171.23270833333663,
      "v": 63
    },
    {
      "midi": 80,
      "hit": false,
      "t": 83424.5755000007,
      "d": 171.23270833333663,
      "v": 66
    },
    {
      "midi": 63,
      "hit": false,
      "t": 83424.57550000075,
      "d": 273.9723333333386,
      "v": 65
    },
    {
      "midi": 66,
      "hit": false,
      "t": 83424.57550000075,
      "d": 273.9723333333386,
      "v": 60
    },
    {
      "midi": 72,
      "hit": false,
      "t": 83424.57550000075,
      "d": 273.9723333333386,
      "v": 90
    },
    {
      "midi": 90,
      "hit": false,
      "t": 83561.56166666737,
      "d": 171.23270833333663,
      "v": 72
    },
    {
      "midi": 84,
      "hit": false,
      "t": 83698.54783333404,
      "d": 171.23270833333663,
      "v": 62
    },
    {
      "midi": 61,
      "hit": false,
      "t": 83835.53400000071,
      "d": 753.4239166666666,
      "v": 58
    },
    {
      "midi": 65,
      "hit": false,
      "t": 83835.53400000071,
      "d": 753.4239166666666,
      "v": 62
    },
    {
      "midi": 73,
      "hit": false,
      "t": 83835.53400000071,
      "d": 821.9170000000013,
      "v": 100
    },
    {
      "midi": 37,
      "hit": false,
      "t": 83972.52016666743,
      "d": 171.23270833333663,
      "v": 70
    },
    {
      "midi": 44,
      "hit": false,
      "t": 84109.5063333341,
      "d": 171.23270833333663,
      "v": 62
    },
    {
      "midi": 53,
      "hit": false,
      "t": 84246.49250000076,
      "d": 171.23270833333663,
      "v": 65
    },
    {
      "midi": 54,
      "hit": false,
      "t": 84383.47866666743,
      "d": 171.23270833333663,
      "v": 65
    },
    {
      "midi": 55,
      "hit": false,
      "t": 84520.4648333341,
      "d": 171.23270833333663,
      "v": 68
    },
    {
      "midi": 56,
      "hit": false,
      "t": 84657.45100000077,
      "d": 445.2050416666607,
      "v": 65
    },
    {
      "midi": 65,
      "hit": false,
      "t": 84657.45100000077,
      "d": 445.2050416666607,
      "v": 75
    },
    {
      "midi": 65,
      "hit": false,
      "t": 84794.43716666738,
      "d": 171.23270833333663,
      "v": 50
    },
    {
      "midi": 73,
      "hit": false,
      "t": 84794.43716666738,
      "d": 171.23270833333663,
      "v": 55
    },
    {
      "midi": 68,
      "hit": false,
      "t": 84931.42333333405,
      "d": 102.73962500000198,
      "v": 52
    },
    {
      "midi": 77,
      "hit": false,
      "t": 84931.42333333405,
      "d": 171.23270833333663,
      "v": 57
    },
    {
      "midi": 68,
      "hit": false,
      "t": 85068.40950000072,
      "d": 171.23270833333663,
      "v": 55
    },
    {
      "midi": 78,
      "hit": false,
      "t": 85068.40950000072,
      "d": 171.23270833333663,
      "v": 60
    },
    {
      "midi": 53,
      "hit": false,
      "t": 85068.40950000077,
      "d": 273.9723333333386,
      "v": 55
    },
    {
      "midi": 61,
      "hit": false,
      "t": 85068.40950000077,
      "d": 273.9723333333386,
      "v": 65
    },
    {
      "midi": 73,
      "hit": false,
      "t": 85205.39566666739,
      "d": 171.23270833333663,
      "v": 60
    },
    {
      "midi": 79,
      "hit": false,
      "t": 85205.39566666739,
      "d": 171.23270833333663,
      "v": 65
    },
    {
      "midi": 80,
      "hit": false,
      "t": 85342.38183333406,
      "d": 102.73962500000198,
      "v": 63
    },
    {
      "midi": 77,
      "hit": false,
      "t": 85342.38183333406,
      "d": 171.23270833333663,
      "v": 58
    },
    {
      "midi": 80,
      "hit": false,
      "t": 85479.36800000073,
      "d": 445.2050416666607,
      "v": 70
    },
    {
      "midi": 89,
      "hit": false,
      "t": 85479.36800000073,
      "d": 445.2050416666607,
      "v": 75
    },
    {
      "midi": 37,
      "hit": false,
      "t": 85616.35416666744,
      "d": 171.23270833333663,
      "v": 75
    },
    {
      "midi": 44,
      "hit": false,
      "t": 85753.34033333411,
      "d": 171.23270833333663,
      "v": 67
    },
    {
      "midi": 77,
      "hit": false,
      "t": 85890.32650000072,
      "d": 273.9723333333386,
      "v": 60
    },
    {
      "midi": 85,
      "hit": false,
      "t": 85890.32650000072,
      "d": 273.9723333333386,
      "v": 65
    },
    {
      "midi": 53,
      "hit": false,
      "t": 85890.32650000078,
      "d": 171.23270833333663,
      "v": 70
    },
    {
      "midi": 54,
      "hit": false,
      "t": 86027.31266666745,
      "d": 171.23270833333663,
      "v": 70
    },
    {
      "midi": 55,
      "hit": false,
      "t": 86164.29883333412,
      "d": 171.23270833333663,
      "v": 73
    },
    {
      "midi": 56,
      "hit": false,
      "t": 86301.28500000079,
      "d": 445.20504166667524,
      "v": 70
    },
    {
      "midi": 65,
      "hit": false,
      "t": 86301.28500000079,
      "d": 445.20504166667524,
      "v": 80
    },
    {
      "midi": 65,
      "hit": false,
      "t": 86438.2711666674,
      "d": 171.23270833333663,
      "v": 60
    },
    {
      "midi": 73,
      "hit": false,
      "t": 86438.2711666674,
      "d": 171.23270833333663,
      "v": 65
    },
    {
      "midi": 68,
      "hit": false,
      "t": 86575.25733333407,
      "d": 102.73962500000198,
      "v": 62
    },
    {
      "midi": 77,
      "hit": false,
      "t": 86575.25733333407,
      "d": 171.23270833333663,
      "v": 67
    },
    {
      "midi": 68,
      "hit": false,
      "t": 86712.24350000074,
      "d": 171.23270833333663,
      "v": 65
    },
    {
      "midi": 78,
      "hit": false,
      "t": 86712.24350000074,
      "d": 171.23270833333663,
      "v": 70
    },
    {
      "midi": 53,
      "hit": false,
      "t": 86712.2435000008,
      "d": 273.9723333333386,
      "v": 60
    },
    {
      "midi": 61,
      "hit": false,
      "t": 86712.2435000008,
      "d": 273.9723333333386,
      "v": 70
    },
    {
      "midi": 73,
      "hit": false,
      "t": 86849.22966666741,
      "d": 171.23270833333663,
      "v": 70
    },
    {
      "midi": 79,
      "hit": false,
      "t": 86849.22966666741,
      "d": 171.23270833333663,
      "v": 75
    },
    {
      "midi": 80,
      "hit": false,
      "t": 86986.21583333408,
      "d": 102.73962500000198,
      "v": 73
    },
    {
      "midi": 77,
      "hit": false,
      "t": 86986.21583333408,
      "d": 171.23270833333663,
      "v": 68
    },
    {
      "midi": 80,
      "hit": false,
      "t": 87123.20200000075,
      "d": 445.20504166667524,
      "v": 80
    },
    {
      "midi": 89,
      "hit": false,
      "t": 87123.20200000075,
      "d": 445.20504166667524,
      "v": 85
    },
    {
      "midi": 37,
      "hit": false,
      "t": 87260.18816666747,
      "d": 171.23270833333663,
      "v": 80
    },
    {
      "midi": 44,
      "hit": false,
      "t": 87397.17433333414,
      "d": 171.23270833333663,
      "v": 72
    },
    {
      "midi": 77,
      "hit": false,
      "t": 87534.16050000075,
      "d": 273.9723333333386,
      "v": 70
    },
    {
      "midi": 85,
      "hit": false,
      "t": 87534.16050000075,
      "d": 273.9723333333386,
      "v": 75
    },
    {
      "midi": 53,
      "hit": false,
      "t": 87534.16050000081,
      "d": 171.23270833333663,
      "v": 75
    },
    {
      "midi": 54,
      "hit": false,
      "t": 87671.14666666748,
      "d": 171.23270833333663,
      "v": 75
    },
    {
      "midi": 55,
      "hit": false,
      "t": 87808.13283333415,
      "d": 171.23270833333663,
      "v": 78
    },
    {
      "midi": 56,
      "hit": false,
      "t": 87945.11900000082,
      "d": 445.20504166667524,
      "v": 75
    },
    {
      "midi": 65,
      "hit": false,
      "t": 87945.11900000082,
      "d": 445.20504166667524,
      "v": 85
    },
    {
      "midi": 65,
      "hit": false,
      "t": 88082.10516666743,
      "d": 171.23270833333663,
      "v": 70
    },
    {
      "midi": 73,
      "hit": false,
      "t": 88082.10516666743,
      "d": 171.23270833333663,
      "v": 75
    },
    {
      "midi": 68,
      "hit": false,
      "t": 88219.0913333341,
      "d": 102.73962500000198,
      "v": 72
    },
    {
      "midi": 77,
      "hit": false,
      "t": 88219.0913333341,
      "d": 171.23270833333663,
      "v": 77
    },
    {
      "midi": 68,
      "hit": false,
      "t": 88356.07750000077,
      "d": 171.23270833333663,
      "v": 75
    },
    {
      "midi": 78,
      "hit": false,
      "t": 88356.07750000077,
      "d": 171.23270833333663,
      "v": 80
    },
    {
      "midi": 53,
      "hit": false,
      "t": 88356.07750000083,
      "d": 273.9723333333386,
      "v": 65
    },
    {
      "midi": 61,
      "hit": false,
      "t": 88356.07750000083,
      "d": 273.9723333333386,
      "v": 75
    },
    {
      "midi": 73,
      "hit": false,
      "t": 88493.06366666744,
      "d": 171.23270833333663,
      "v": 80
    },
    {
      "midi": 79,
      "hit": false,
      "t": 88493.06366666744,
      "d": 171.23270833333663,
      "v": 85
    },
    {
      "midi": 80,
      "hit": false,
      "t": 88630.04983333411,
      "d": 102.73962500000198,
      "v": 83
    },
    {
      "midi": 77,
      "hit": false,
      "t": 88630.04983333411,
      "d": 171.23270833333663,
      "v": 78
    },
    {
      "midi": 80,
      "hit": false,
      "t": 88767.03600000078,
      "d": 445.20504166667524,
      "v": 90
    },
    {
      "midi": 89,
      "hit": false,
      "t": 88767.03600000078,
      "d": 445.20504166667524,
      "v": 95
    },
    {
      "midi": 37,
      "hit": false,
      "t": 88767.03600000084,
      "d": 171.23270833333663,
      "v": 85
    },
    {
      "midi": 44,
      "hit": false,
      "t": 88904.0221666675,
      "d": 171.23270833333663,
      "v": 76
    },
    {
      "midi": 49,
      "hit": false,
      "t": 89041.00833333418,
      "d": 171.23270833333663,
      "v": 78
    },
    {
      "midi": 77,
      "hit": false,
      "t": 89177.99450000079,
      "d": 273.9723333333386,
      "v": 80
    },
    {
      "midi": 85,
      "hit": false,
      "t": 89177.99450000079,
      "d": 273.9723333333386,
      "v": 85
    },
    {
      "midi": 53,
      "hit": false,
      "t": 89177.99450000084,
      "d": 171.23270833333663,
      "v": 80
    },
    {
      "midi": 54,
      "hit": false,
      "t": 89314.98066666751,
      "d": 171.23270833333663,
      "v": 80
    },
    {
      "midi": 55,
      "hit": false,
      "t": 89451.96683333418,
      "d": 171.23270833333663,
      "v": 83
    },
    {
      "midi": 56,
      "hit": false,
      "t": 89588.95300000085,
      "d": 171.23270833333663,
      "v": 85
    },
    {
      "midi": 61,
      "hit": false,
      "t": 89725.93916666752,
      "d": 171.23270833333663,
      "v": 87
    },
    {
      "midi": 65,
      "hit": false,
      "t": 89862.92533333419,
      "d": 171.23270833333663,
      "v": 89
    },
    {
      "midi": 66,
      "hit": false,
      "t": 89999.91150000086,
      "d": 171.23270833333663,
      "v": 91
    },
    {
      "midi": 67,
      "hit": false,
      "t": 90136.89766666753,
      "d": 171.23270833333663,
      "v": 93
    },
    {
      "midi": 68,
      "hit": false,
      "t": 90273.8838333342,
      "d": 582.1912083333445,
      "v": 95
    },
    {
      "midi": 77,
      "hit": false,
      "t": 90410.87000000087,
      "d": 445.20504166667524,
      "v": 110
    },
    {
      "midi": 65,
      "hit": false,
      "t": 90821.82850000088,
      "d": 171.23270833333663,
      "v": 70
    },
    {
      "midi": 73,
      "hit": false,
      "t": 90821.82850000088,
      "d": 171.23270833333663,
      "v": 90
    },
    {
      "midi": 56,
      "hit": false,
      "t": 91369.77316666747,
      "d": 171.23270833333663,
      "v": 60
    },
    {
      "midi": 68,
      "hit": false,
      "t": 91506.75933333414,
      "d": 171.23270833333663,
      "v": 65
    },
    {
      "midi": 80,
      "hit": false,
      "t": 91643.7455000008,
      "d": 171.23270833333663,
      "v": 70
    },
    {
      "midi": 68,
      "hit": false,
      "t": 91780.73166666747,
      "d": 171.23270833333663,
      "v": 65
    },
    {
      "midi": 56,
      "hit": false,
      "t": 91917.71783333422,
      "d": 102.73962500000198,
      "v": 105
    },
    {
      "midi": 49,
      "hit": false,
      "t": 92054.70400000089,
      "d": 273.9723333333386,
      "v": 85
    },
    {
      "midi": 53,
      "hit": false,
      "t": 92054.70400000089,
      "d": 273.9723333333386,
      "v": 85
    },
    {
      "midi": 61,
      "hit": false,
      "t": 92054.70400000089,
      "d": 273.9723333333386,
      "v": 110
    },
    {
      "midi": 61,
      "hit": false,
      "t": 92191.69016666748,
      "d": 171.23270833333663,
      "v": 60
    },
    {
      "midi": 37,
      "hit": false,
      "t": 92260.18325000089,
      "d": 136.9861666666693,
      "v": 70
    },
    {
      "midi": 73,
      "hit": false,
      "t": 92328.67633333415,
      "d": 171.23270833333663,
      "v": 65
    },
    {
      "midi": 85,
      "hit": false,
      "t": 92465.66250000082,
      "d": 171.23270833333663,
      "v": 70
    },
    {
      "midi": 53,
      "hit": false,
      "t": 92465.6625000009,
      "d": 273.9723333333386,
      "v": 80
    },
    {
      "midi": 61,
      "hit": false,
      "t": 92465.6625000009,
      "d": 273.9723333333386,
      "v": 95
    },
    {
      "midi": 73,
      "hit": false,
      "t": 92602.64866666749,
      "d": 171.23270833333663,
      "v": 65
    },
    {
      "midi": 44,
      "hit": false,
      "t": 92671.1417500009,
      "d": 136.9861666666693,
      "v": 70
    },
    {
      "midi": 61,
      "hit": false,
      "t": 92739.63483333416,
      "d": 171.23270833333663,
      "v": 60
    },
    {
      "midi": 56,
      "hit": false,
      "t": 92876.6210000009,
      "d": 273.9723333333386,
      "v": 82
    },
    {
      "midi": 65,
      "hit": false,
      "t": 92876.6210000009,
      "d": 273.9723333333386,
      "v": 102
    },
    {
      "midi": 65,
      "hit": false,
      "t": 93013.6071666675,
      "d": 171.23270833333663,
      "v": 60
    },
    {
      "midi": 49,
      "hit": false,
      "t": 93082.1002500009,
      "d": 136.9861666666693,
      "v": 70
    },
    {
      "midi": 77,
      "hit": false,
      "t": 93150.59333333417,
      "d": 171.23270833333663,
      "v": 65
    },
    {
      "midi": 89,
      "hit": false,
      "t": 93287.57950000084,
      "d": 171.23270833333663,
      "v": 70
    },
    {
      "midi": 56,
      "hit": false,
      "t": 93287.57950000091,
      "d": 273.9723333333386,
      "v": 80
    },
    {
      "midi": 65,
      "hit": false,
      "t": 93287.57950000091,
      "d": 273.9723333333386,
      "v": 95
    },
    {
      "midi": 77,
      "hit": false,
      "t": 93424.5656666675,
      "d": 171.23270833333663,
      "v": 65
    },
    {
      "midi": 44,
      "hit": false,
      "t": 93493.05875000091,
      "d": 136.9861666666693,
      "v": 70
    },
    {
      "midi": 65,
      "hit": false,
      "t": 93561.55183333418,
      "d": 136.9861666666693,
      "v": 60
    },
    {
      "midi": 53,
      "hit": false,
      "t": 93698.53800000092,
      "d": 787.6704583333485,
      "v": 85
    },
    {
      "midi": 61,
      "hit": false,
      "t": 93698.53800000092,
      "d": 856.1635416666832,
      "v": 110
    },
    {
      "midi": 61,
      "hit": false,
      "t": 93835.52416666751,
      "d": 171.23270833333663,
      "v": 60
    },
    {
      "midi": 37,
      "hit": false,
      "t": 93904.01725000092,
      "d": 136.9861666666693,
      "v": 70
    },
    {
      "midi": 73,
      "hit": false,
      "t": 93972.51033333418,
      "d": 171.23270833333663,
      "v": 65
    },
    {
      "midi": 85,
      "hit": false,
      "t": 94109.49650000085,
      "d": 171.23270833333663,
      "v": 70
    },
    {
      "midi": 44,
      "hit": false,
      "t": 94109.49650000093,
      "d": 136.9861666666693,
      "v": 73
    },
    {
      "midi": 73,
      "hit": false,
      "t": 94246.48266666752,
      "d": 171.23270833333663,
      "v": 65
    },
    {
      "midi": 49,
      "hit": false,
      "t": 94314.97575000093,
      "d": 136.9861666666693,
      "v": 77
    },
    {
      "midi": 61,
      "hit": false,
      "t": 94383.46883333419,
      "d": 171.23270833333663,
      "v": 60
    },
    {
      "midi": 53,
      "hit": false,
      "t": 94520.45500000093,
      "d": 136.9861666666693,
      "v": 80
    },
    {
      "midi": 56,
      "hit": false,
      "t": 94520.45500000093,
      "d": 273.9723333333386,
      "v": 95
    },
    {
      "midi": 56,
      "hit": false,
      "t": 94657.44116666753,
      "d": 171.23270833333663,
      "v": 60
    },
    {
      "midi": 49,
      "hit": false,
      "t": 94725.93425000094,
      "d": 136.9861666666693,
      "v": 77
    },
    {
      "midi": 68,
      "hit": false,
      "t": 94794.4273333342,
      "d": 171.23270833333663,
      "v": 65
    },
    {
      "midi": 80,
      "hit": false,
      "t": 94931.41350000087,
      "d": 171.23270833333663,
      "v": 70
    },
    {
      "midi": 44,
      "hit": false,
      "t": 94931.41350000094,
      "d": 136.9861666666693,
      "v": 73
    },
    {
      "midi": 53,
      "hit": false,
      "t": 94931.41350000094,
      "d": 342.46541666667326,
      "v": 75
    },
    {
      "midi": 56,
      "hit": false,
      "t": 94931.41350000094,
      "d": 342.46541666667326,
      "v": 100
    },
    {
      "midi": 68,
      "hit": false,
      "t": 95068.39966666754,
      "d": 171.23270833333663,
      "v": 65
    },
    {
      "midi": 37,
      "hit": false,
      "t": 95136.89275000094,
      "d": 136.9861666666693,
      "v": 70
    },
    {
      "midi": 56,
      "hit": false,
      "t": 95205.3858333342,
      "d": 136.9861666666693,
      "v": 60
    },
    {
      "midi": 48,
      "hit": false,
      "t": 95342.37200000095,
      "d": 582.1912083333445,
      "v": 85
    },
    {
      "midi": 54,
      "hit": false,
      "t": 95342.37200000095,
      "d": 787.6704583333485,
      "v": 80
    },
    {
      "midi": 56,
      "hit": false,
      "t": 95342.37200000095,
      "d": 787.6704583333485,
      "v": 105
    },
    {
      "midi": 56,
      "hit": false,
      "t": 95479.35816666755,
      "d": 171.23270833333663,
      "v": 60
    },
    {
      "midi": 32,
      "hit": false,
      "t": 95547.85125000095,
      "d": 136.9861666666693,
      "v": 70
    },
    {
      "midi": 68,
      "hit": false,
      "t": 95616.34433333421,
      "d": 171.23270833333663,
      "v": 65
    },
    {
      "midi": 80,
      "hit": false,
      "t": 95753.33050000088,
      "d": 171.23270833333663,
      "v": 70
    },
    {
      "midi": 42,
      "hit": false,
      "t": 95753.33050000096,
      "d": 136.9861666666693,
      "v": 72
    },
    {
      "midi": 68,
      "hit": false,
      "t": 95890.31666666755,
      "d": 171.23270833333663,
      "v": 65
    },
    {
      "midi": 48,
      "hit": false,
      "t": 95958.80975000096,
      "d": 136.9861666666693,
      "v": 73
    },
    {
      "midi": 56,
      "hit": false,
      "t": 96027.30283333422,
      "d": 171.23270833333663,
      "v": 60
    },
    {
      "midi": 63,
      "hit": false,
      "t": 96164.28900000096,
      "d": 136.9861666666693,
      "v": 100
    },
    {
      "midi": 54,
      "hit": false,
      "t": 96164.28900000096,
      "d": 273.9723333333386,
      "v": 65
    },
    {
      "midi": 56,
      "hit": false,
      "t": 96164.28900000096,
      "d": 273.9723333333386,
      "v": 70
    },
    {
      "midi": 63,
      "hit": false,
      "t": 96301.27516666756,
      "d": 171.23270833333663,
      "v": 60
    },
    {
      "midi": 61,
      "hit": false,
      "t": 96369.76825000097,
      "d": 136.9861666666693,
      "v": 90
    },
    {
      "midi": 75,
      "hit": false,
      "t": 96438.26133333423,
      "d": 171.23270833333663,
      "v": 65
    },
    {
      "midi": 87,
      "hit": false,
      "t": 96575.2475000009,
      "d": 171.23270833333663,
      "v": 70
    },
    {
      "midi": 60,
      "hit": false,
      "t": 96575.24750000097,
      "d": 136.9861666666693,
      "v": 95
    },
    {
      "midi": 51,
      "hit": false,
      "t": 96575.24750000097,
      "d": 273.9723333333386,
      "v": 65
    },
    {
      "midi": 54,
      "hit": false,
      "t": 96575.24750000097,
      "d": 273.9723333333386,
      "v": 70
    },
    {
      "midi": 75,
      "hit": false,
      "t": 96712.23366666757,
      "d": 171.23270833333663,
      "v": 65
    },
    {
      "midi": 58,
      "hit": false,
      "t": 96780.72675000098,
      "d": 136.9861666666693,
      "v": 90
    },
    {
      "midi": 63,
      "hit": false,
      "t": 96849.21983333424,
      "d": 136.9861666666693,
      "v": 60
    },
    {
      "midi": 48,
      "hit": false,
      "t": 96986.20600000098,
      "d": 582.1912083333445,
      "v": 85
    },
    {
      "midi": 54,
      "hit": false,
      "t": 96986.20600000098,
      "d": 787.6704583333485,
      "v": 80
    },
    {
      "midi": 56,
      "hit": false,
      "t": 96986.20600000098,
      "d": 787.6704583333485,
      "v": 105
    },
    {
      "midi": 56,
      "hit": false,
      "t": 97123.19216666758,
      "d": 171.23270833333663,
      "v": 60
    },
    {
      "midi": 32,
      "hit": false,
      "t": 97191.68525000098,
      "d": 136.9861666666693,
      "v": 70
    },
    {
      "midi": 68,
      "hit": false,
      "t": 97260.17833333425,
      "d": 171.23270833333663,
      "v": 65
    },
    {
      "midi": 80,
      "hit": false,
      "t": 97397.16450000092,
      "d": 171.23270833333663,
      "v": 70
    },
    {
      "midi": 42,
      "hit": false,
      "t": 97397.16450000099,
      "d": 136.9861666666693,
      "v": 72
    },
    {
      "midi": 68,
      "hit": false,
      "t": 97534.15066666759,
      "d": 171.23270833333663,
      "v": 65
    },
    {
      "midi": 48,
      "hit": false,
      "t": 97602.64375000099,
      "d": 136.9861666666693,
      "v": 73
    },
    {
      "midi": 56,
      "hit": false,
      "t": 97671.13683333425,
      "d": 171.23270833333663,
      "v": 60
    },
    {
      "midi": 60,
      "hit": false,
      "t": 97808.123000001,
      "d": 136.9861666666693,
      "v": 65
    },
    {
      "midi": 63,
      "hit": false,
      "t": 97808.123000001,
      "d": 273.9723333333386,
      "v": 70
    },
    {
      "midi": 68,
      "hit": false,
      "t": 97808.123000001,
      "d": 342.46541666667326,
      "v": 100
    },
    {
      "midi": 68,
      "hit": false,
      "t": 97945.1091666676,
      "d": 171.23270833333663,
      "v": 60
    },
    {
      "midi": 54,
      "hit": false,
      "t": 98013.602250001,
      "d": 136.9861666666693,
      "v": 67
    },
    {
      "midi": 80,
      "hit": false,
      "t": 98082.09533333426,
      "d": 171.23270833333663,
      "v": 65
    },
    {
      "midi": 92,
      "hit": false,
      "t": 98219.08150000093,
      "d": 171.23270833333663,
      "v": 70
    },
    {
      "midi": 48,
      "hit": false,
      "t": 98219.081500001,
      "d": 136.9861666666693,
      "v": 65
    },
    {
      "midi": 51,
      "hit": false,
      "t": 98219.081500001,
      "d": 273.9723333333386,
      "v": 70
    },
    {
      "midi": 56,
      "hit": false,
      "t": 98219.081500001,
      "d": 445.20504166667524,
      "v": 95
    },
    {
      "midi": 80,
      "hit": false,
      "t": 98356.0676666676,
      "d": 171.23270833333663,
      "v": 65
    },
    {
      "midi": 44,
      "hit": false,
      "t": 98424.56075000101,
      "d": 136.9861666666693,
      "v": 60
    },
    {
      "midi": 68,
      "hit": false,
      "t": 98493.05383333427,
      "d": 136.9861666666693,
      "v": 60
    },
    {
      "midi": 49,
      "hit": false,
      "t": 98630.04000000101,
      "d": 273.9723333333386,
      "v": 85
    },
    {
      "midi": 53,
      "hit": false,
      "t": 98630.04000000101,
      "d": 273.9723333333386,
      "v": 85
    },
    {
      "midi": 61,
      "hit": false,
      "t": 98630.04000000101,
      "d": 273.9723333333386,
      "v": 110
    },
    {
      "midi": 61,
      "hit": false,
      "t": 98767.02616666761,
      "d": 171.23270833333663,
      "v": 60
    },
    {
      "midi": 37,
      "hit": false,
      "t": 98835.51925000102,
      "d": 136.9861666666693,
      "v": 70
    },
    {
      "midi": 73,
      "hit": false,
      "t": 98904.01233333428,
      "d": 171.23270833333663,
      "v": 65
    },
    {
      "midi": 85,
      "hit": false,
      "t": 99040.99850000095,
      "d": 171.23270833333663,
      "v": 70
    },
    {
      "midi": 53,
      "hit": false,
      "t": 99040.99850000102,
      "d": 273.9723333333386,
      "v": 80
    },
    {
      "midi": 61,
      "hit": false,
      "t": 99040.99850000102,
      "d": 273.9723333333386,
      "v": 95
    },
    {
      "midi": 73,
      "hit": false,
      "t": 99177.98466666762,
      "d": 171.23270833333663,
      "v": 65
    },
    {
      "midi": 44,
      "hit": false,
      "t": 99246.47775000102,
      "d": 136.9861666666693,
      "v": 70
    },
    {
      "midi": 61,
      "hit": false,
      "t": 99314.97083333429,
      "d": 171.23270833333663,
      "v": 60
    },
    {
      "midi": 56,
      "hit": false,
      "t": 99451.95700000103,
      "d": 273.9723333333386,
      "v": 82
    },
    {
      "midi": 65,
      "hit": false,
      "t": 99451.95700000103,
      "d": 273.9723333333386,
      "v": 102
    },
    {
      "midi": 65,
      "hit": false,
      "t": 99588.94316666762,
      "d": 171.23270833333663,
      "v": 60
    },
    {
      "midi": 49,
      "hit": false,
      "t": 99657.43625000103,
      "d": 136.9861666666693,
      "v": 70
    },
    {
      "midi": 77,
      "hit": false,
      "t": 99725.9293333343,
      "d": 171.23270833333663,
      "v": 65
    },
    {
      "midi": 89,
      "hit": false,
      "t": 99862.91550000096,
      "d": 171.23270833333663,
      "v": 70
    },
    {
      "midi": 56,
      "hit": false,
      "t": 99862.91550000104,
      "d": 273.9723333333386,
      "v": 80
    },
    {
      "midi": 65,
      "hit": false,
      "t": 99862.91550000104,
      "d": 273.9723333333386,
      "v": 95
    },
    {
      "midi": 77,
      "hit": false,
      "t": 99999.90166666763,
      "d": 171.23270833333663,
      "v": 65
    },
    {
      "midi": 44,
      "hit": false,
      "t": 100068.39475000104,
      "d": 136.9861666666693,
      "v": 70
    },
    {
      "midi": 65,
      "hit": false,
      "t": 100136.8878333343,
      "d": 136.9861666666693,
      "v": 60
    },
    {
      "midi": 53,
      "hit": false,
      "t": 100273.87400000104,
      "d": 787.6704583333485,
      "v": 85
    },
    {
      "midi": 61,
      "hit": false,
      "t": 100273.87400000104,
      "d": 856.1635416666832,
      "v": 110
    },
    {
      "midi": 61,
      "hit": false,
      "t": 100410.86016666764,
      "d": 171.23270833333663,
      "v": 60
    },
    {
      "midi": 37,
      "hit": false,
      "t": 100479.35325000105,
      "d": 136.9861666666693,
      "v": 70
    },
    {
      "midi": 73,
      "hit": false,
      "t": 100547.84633333431,
      "d": 171.23270833333663,
      "v": 65
    },
    {
      "midi": 85,
      "hit": false,
      "t": 100684.83250000098,
      "d": 171.23270833333663,
      "v": 70
    },
    {
      "midi": 44,
      "hit": false,
      "t": 100684.83250000105,
      "d": 136.9861666666693,
      "v": 73
    },
    {
      "midi": 73,
      "hit": false,
      "t": 100821.81866666765,
      "d": 171.23270833333663,
      "v": 65
    },
    {
      "midi": 49,
      "hit": false,
      "t": 100890.31175000106,
      "d": 136.9861666666693,
      "v": 77
    },
    {
      "midi": 61,
      "hit": false,
      "t": 100958.80483333432,
      "d": 171.23270833333663,
      "v": 60
    },
    {
      "midi": 53,
      "hit": false,
      "t": 101095.79100000106,
      "d": 136.9861666666693,
      "v": 80
    },
    {
      "midi": 56,
      "hit": false,
      "t": 101095.79100000106,
      "d": 273.9723333333386,
      "v": 95
    },
    {
      "midi": 61,
      "hit": false,
      "t": 101232.77716666766,
      "d": 171.23270833333663,
      "v": 60
    },
    {
      "midi": 49,
      "hit": false,
      "t": 101301.27025000106,
      "d": 136.9861666666693,
      "v": 77
    },
    {
      "midi": 68,
      "hit": false,
      "t": 101369.76333333433,
      "d": 171.23270833333663,
      "v": 65
    },
    {
      "midi": 80,
      "hit": false,
      "t": 101506.749500001,
      "d": 171.23270833333663,
      "v": 70
    },
    {
      "midi": 44,
      "hit": false,
      "t": 101506.74950000107,
      "d": 136.9861666666693,
      "v": 73
    },
    {
      "midi": 53,
      "hit": false,
      "t": 101506.74950000107,
      "d": 342.46541666667326,
      "v": 75
    },
    {
      "midi": 61,
      "hit": false,
      "t": 101506.74950000107,
      "d": 342.46541666667326,
      "v": 100
    },
    {
      "midi": 68,
      "hit": false,
      "t": 101643.73566666766,
      "d": 171.23270833333663,
      "v": 65
    },
    {
      "midi": 41,
      "hit": false,
      "t": 101712.22875000107,
      "d": 136.9861666666693,
      "v": 70
    },
    {
      "midi": 85,
      "hit": false,
      "t": 101780.72183333433,
      "d": 136.9861666666693,
      "v": 60
    },
    {
      "midi": 51,
      "hit": false,
      "t": 101917.70800000108,
      "d": 171.23270833333663,
      "v": 85
    },
    {
      "midi": 56,
      "hit": false,
      "t": 101917.70800000108,
      "d": 171.23270833333663,
      "v": 80
    },
    {
      "midi": 60,
      "hit": false,
      "t": 101917.70800000108,
      "d": 445.20504166667524,
      "v": 105
    },
    {
      "midi": 63,
      "hit": false,
      "t": 102054.69416666767,
      "d": 171.23270833333663,
      "v": 60
    },
    {
      "midi": 39,
      "hit": false,
      "t": 102123.18725000108,
      "d": 136.9861666666693,
      "v": 70
    },
    {
      "midi": 72,
      "hit": false,
      "t": 102191.68033333434,
      "d": 171.23270833333663,
      "v": 65
    },
    {
      "midi": 84,
      "hit": false,
      "t": 102328.66650000101,
      "d": 171.23270833333663,
      "v": 70
    },
    {
      "midi": 58,
      "hit": false,
      "t": 102328.66650000108,
      "d": 239.72579166667128,
      "v": 100
    },
    {
      "midi": 51,
      "hit": false,
      "t": 102328.66650000108,
      "d": 342.46541666667326,
      "v": 70
    },
    {
      "midi": 56,
      "hit": false,
      "t": 102328.66650000108,
      "d": 342.46541666667326,
      "v": 75
    },
    {
      "midi": 72,
      "hit": false,
      "t": 102465.65266666768,
      "d": 171.23270833333663,
      "v": 65
    },
    {
      "midi": 60,
      "hit": false,
      "t": 102534.14575000109,
      "d": 239.72579166667128,
      "v": 105
    },
    {
      "midi": 63,
      "hit": false,
      "t": 102602.63883333435,
      "d": 171.23270833333663,
      "v": 60
    },
    {
      "midi": 51,
      "hit": false,
      "t": 102739.62500000109,
      "d": 171.23270833333663,
      "v": 73
    },
    {
      "midi": 55,
      "hit": false,
      "t": 102739.62500000109,
      "d": 171.23270833333663,
      "v": 80
    },
    {
      "midi": 61,
      "hit": false,
      "t": 102739.62500000109,
      "d": 445.20504166667524,
      "v": 110
    },
    {
      "midi": 63,
      "hit": false,
      "t": 102876.61116666769,
      "d": 171.23270833333663,
      "v": 60
    },
    {
      "midi": 39,
      "hit": false,
      "t": 102945.1042500011,
      "d": 171.23270833333663,
      "v": 65
    },
    {
      "midi": 75,
      "hit": false,
      "t": 103013.59733333436,
      "d": 171.23270833333663,
      "v": 65
    },
    {
      "midi": 87,
      "hit": false,
      "t": 103150.58350000103,
      "d": 171.23270833333663,
      "v": 70
    },
    {
      "midi": 46,
      "hit": false,
      "t": 103150.5835000011,
      "d": 171.23270833333663,
      "v": 68
    },
    {
      "midi": 49,
      "hit": false,
      "t": 103150.5835000011,
      "d": 171.23270833333663,
      "v": 75
    },
    {
      "midi": 55,
      "hit": false,
      "t": 103150.5835000011,
      "d": 445.20504166667524,
      "v": 95
    },
    {
      "midi": 75,
      "hit": false,
      "t": 103287.5696666677,
      "d": 171.23270833333663,
      "v": 65
    },
    {
      "midi": 39,
      "hit": false,
      "t": 103356.0627500011,
      "d": 171.23270833333663,
      "v": 73
    },
    {
      "midi": 63,
      "hit": false,
      "t": 103424.55583333437,
      "d": 136.9861666666693,
      "v": 60
    },
    {
      "midi": 44,
      "hit": false,
      "t": 103561.5420000011,
      "d": 239.72579166667128,
      "v": 85
    },
    {
      "midi": 56,
      "hit": false,
      "t": 103561.5420000011,
      "d": 513.6981250000099,
      "v": 100
    },
    {
      "midi": 48,
      "hit": false,
      "t": 103561.5420000011,
      "d": 787.6704583333485,
      "v": 80
    },
    {
      "midi": 32,
      "hit": false,
      "t": 103698.52816666778,
      "d": 171.23270833333663,
      "v": 60
    },
    {
      "midi": 44,
      "hit": false,
      "t": 103835.51433333445,
      "d": 102.73962500000198,
      "v": 65
    },
    {
      "midi": 44,
      "hit": false,
      "t": 103972.50050000112,
      "d": 171.23270833333663,
      "v": 65
    },
    {
      "midi": 56,
      "hit": false,
      "t": 104109.48666666778,
      "d": 171.23270833333663,
      "v": 70
    },
    {
      "midi": 56,
      "hit": false,
      "t": 104246.47283333437,
      "d": 171.23270833333663,
      "v": 70
    },
    {
      "midi": 68,
      "hit": false,
      "t": 104383.45900000104,
      "d": 102.73962500000198,
      "v": 75
    },
    {
      "midi": 68,
      "hit": false,
      "t": 104520.4451666677,
      "d": 171.23270833333663,
      "v": 75
    },
    {
      "midi": 80,
      "hit": false,
      "t": 104657.43133333437,
      "d": 102.73962500000198,
      "v": 80
    },
    {
      "midi": 80,
      "hit": false,
      "t": 104794.41750000104,
      "d": 171.23270833333663,
      "v": 80
    },
    {
      "midi": 56,
      "hit": false,
      "t": 104794.41750000112,
      "d": 239.72579166667128,
      "v": 95
    },
    {
      "midi": 92,
      "hit": false,
      "t": 104931.40366666771,
      "d": 171.23270833333663,
      "v": 85
    },
    {
      "midi": 58,
      "hit": false,
      "t": 104999.89675000112,
      "d": 239.72579166667128,
      "v": 100
    },
    {
      "midi": 80,
      "hit": false,
      "t": 105068.38983333438,
      "d": 136.9861666666693,
      "v": 80
    },
    {
      "midi": 44,
      "hit": false,
      "t": 105102.63637500112,
      "d": 376.7119583333406,
      "v": 80
    },
    {
      "midi": 51,
      "hit": false,
      "t": 105136.88291666779,
      "d": 342.46541666667326,
      "v": 60
    },
    {
      "midi": 54,
      "hit": false,
      "t": 105171.12945833446,
      "d": 308.21887500000594,
      "v": 60
    },
    {
      "midi": 68,
      "hit": false,
      "t": 105205.37600000105,
      "d": 171.23270833333663,
      "v": 70
    },
    {
      "midi": 60,
      "hit": false,
      "t": 105205.37600000112,
      "d": 342.46541666667326,
      "v": 110
    },
    {
      "midi": 80,
      "hit": false,
      "t": 105342.36216666772,
      "d": 171.23270833333663,
      "v": 75
    },
    {
      "midi": 92,
      "hit": false,
      "t": 105479.34833333439,
      "d": 171.23270833333663,
      "v": 80
    },
    {
      "midi": 51,
      "hit": false,
      "t": 105547.8414166678,
      "d": 342.46541666667326,
      "v": 70
    },
    {
      "midi": 54,
      "hit": false,
      "t": 105582.08795833446,
      "d": 308.21887500000594,
      "v": 60
    },
    {
      "midi": 80,
      "hit": false,
      "t": 105616.33450000106,
      "d": 171.23270833333663,
      "v": 75
    },
    {
      "midi": 60,
      "hit": false,
      "t": 105616.33450000113,
      "d": 342.46541666667326,
      "v": 100
    },
    {
      "midi": 68,
      "hit": false,
      "t": 105753.32066666773,
      "d": 171.23270833333663,
      "v": 70
    },
    {
      "midi": 80,
      "hit": false,
      "t": 105890.3068333344,
      "d": 171.23270833333663,
      "v": 75
    },
    {
      "midi": 44,
      "hit": false,
      "t": 105924.55337500114,
      "d": 376.7119583333406,
      "v": 80
    },
    {
      "midi": 51,
      "hit": false,
      "t": 105958.7999166678,
      "d": 342.46541666667326,
      "v": 60
    },
    {
      "midi": 54,
      "hit": false,
      "t": 105993.04645833447,
      "d": 308.21887500000594,
      "v": 60
    },
    {
      "midi": 68,
      "hit": false,
      "t": 106027.29300000107,
      "d": 171.23270833333663,
      "v": 70
    },
    {
      "midi": 61,
      "hit": false,
      "t": 106027.29300000114,
      "d": 239.72579166667128,
      "v": 105
    },
    {
      "midi": 80,
      "hit": false,
      "t": 106164.27916666774,
      "d": 171.23270833333663,
      "v": 75
    },
    {
      "midi": 60,
      "hit": false,
      "t": 106232.77225000114,
      "d": 239.72579166667128,
      "v": 100
    },
    {
      "midi": 92,
      "hit": false,
      "t": 106301.2653333344,
      "d": 171.23270833333663,
      "v": 80
    },
    {
      "midi": 51,
      "hit": false,
      "t": 106369.75841666781,
      "d": 376.7119583333406,
      "v": 70
    },
    {
      "midi": 54,
      "hit": false,
      "t": 106404.00495833448,
      "d": 342.46541666667326,
      "v": 60
    },
    {
      "midi": 80,
      "hit": false,
      "t": 106438.25150000108,
      "d": 171.23270833333663,
      "v": 75
    },
    {
      "midi": 58,
      "hit": false,
      "t": 106438.25150000115,
      "d": 239.72579166667128,
      "v": 104
    },
    {
      "midi": 68,
      "hit": false,
      "t": 106575.23766666774,
      "d": 171.23270833333663,
      "v": 70
    },
    {
      "midi": 60,
      "hit": false,
      "t": 106643.73075000115,
      "d": 239.72579166667128,
      "v": 108
    },
    {
      "midi": 80,
      "hit": false,
      "t": 106712.22383333441,
      "d": 171.23270833333663,
      "v": 75
    },
    {
      "midi": 49,
      "hit": false,
      "t": 106780.71691666782,
      "d": 342.46541666667326,
      "v": 80
    },
    {
      "midi": 53,
      "hit": false,
      "t": 106814.96345833449,
      "d": 308.21887500000594,
      "v": 60
    },
    {
      "midi": 68,
      "hit": false,
      "t": 106849.21000000108,
      "d": 171.23270833333663,
      "v": 70
    },
    {
      "midi": 61,
      "hit": false,
      "t": 106849.21000000116,
      "d": 856.1635416666832,
      "v": 115
    },
    {
      "midi": 80,
      "hit": false,
      "t": 106986.19616666775,
      "d": 171.23270833333663,
      "v": 75
    },
    {
      "midi": 92,
      "hit": false,
      "t": 107123.18233333442,
      "d": 171.23270833333663,
      "v": 80
    },
    {
      "midi": 53,
      "hit": false,
      "t": 107225.9219583345,
      "d": 308.21887500000594,
      "v": 70
    },
    {
      "midi": 80,
      "hit": false,
      "t": 107260.16850000109,
      "d": 171.23270833333663,
      "v": 75
    },
    {
      "midi": 56,
      "hit": false,
      "t": 107260.16850000116,
      "d": 273.9723333333386,
      "v": 60
    },
    {
      "midi": 68,
      "hit": false,
      "t": 107397.15466666776,
      "d": 171.23270833333663,
      "v": 70
    },
    {
      "midi": 80,
      "hit": false,
      "t": 107534.14083333443,
      "d": 171.23270833333663,
      "v": 75
    },
    {
      "midi": 37,
      "hit": false,
      "t": 107602.63391666784,
      "d": 342.46541666667326,
      "v": 75
    },
    {
      "midi": 53,
      "hit": false,
      "t": 107636.8804583345,
      "d": 273.9723333333386,
      "v": 60
    },
    {
      "midi": 68,
      "hit": false,
      "t": 107671.1270000011,
      "d": 171.23270833333663,
      "v": 70
    },
    {
      "midi": 56,
      "hit": false,
      "t": 107671.12700000117,
      "d": 342.46541666667326,
      "v": 100
    },
    {
      "midi": 80,
      "hit": false,
      "t": 107808.11316666777,
      "d": 171.23270833333663,
      "v": 75
    },
    {
      "midi": 92,
      "hit": false,
      "t": 107945.09933333444,
      "d": 171.23270833333663,
      "v": 80
    },
    {
      "midi": 49,
      "hit": false,
      "t": 108013.59241666785,
      "d": 342.46541666667326,
      "v": 70
    },
    {
      "midi": 53,
      "hit": false,
      "t": 108047.83895833451,
      "d": 308.21887500000594,
      "v": 60
    },
    {
      "midi": 80,
      "hit": false,
      "t": 108082.0855000011,
      "d": 171.23270833333663,
      "v": 75
    },
    {
      "midi": 56,
      "hit": false,
      "t": 108082.08550000118,
      "d": 239.72579166667128,
      "v": 90
    },
    {
      "midi": 68,
      "hit": false,
      "t": 108219.07166666778,
      "d": 171.23270833333663,
      "v": 70
    },
    {
      "midi": 61,
      "hit": false,
      "t": 108287.56475000118,
      "d": 239.72579166667128,
      "v": 100
    },
    {
      "midi": 80,
      "hit": false,
      "t": 108356.05783333445,
      "d": 171.23270833333663,
      "v": 75
    },
    {
      "midi": 44,
      "hit": false,
      "t": 108390.30437500119,
      "d": 376.7119583333406,
      "v": 80
    },
    {
      "midi": 51,
      "hit": false,
      "t": 108424.55091666785,
      "d": 342.46541666667326,
      "v": 60
    },
    {
      "midi": 54,
      "hit": false,
      "t": 108458.79745833452,
      "d": 342.46541666667326,
      "v": 60
    },
    {
      "midi": 68,
      "hit": false,
      "t": 108493.04400000111,
      "d": 171.23270833333663,
      "v": 70
    },
    {
      "midi": 60,
      "hit": false,
      "t": 108493.04400000119,
      "d": 342.46541666667326,
      "v": 110
    },
    {
      "midi": 80,
      "hit": false,
      "t": 108630.03016666778,
      "d": 171.23270833333663,
      "v": 75
    },
    {
      "midi": 92,
      "hit": false,
      "t": 108767.01633333445,
      "d": 171.23270833333663,
      "v": 80
    },
    {
      "midi": 51,
      "hit": false,
      "t": 108835.50941666786,
      "d": 342.46541666667326,
      "v": 70
    },
    {
      "midi": 54,
      "hit": false,
      "t": 108869.75595833453,
      "d": 308.21887500000594,
      "v": 60
    },
    {
      "midi": 80,
      "hit": false,
      "t": 108904.00250000112,
      "d": 171.23270833333663,
      "v": 75
    },
    {
      "midi": 60,
      "hit": false,
      "t": 108904.0025000012,
      "d": 342.46541666667326,
      "v": 100
    },
    {
      "midi": 68,
      "hit": false,
      "t": 109040.98866666779,
      "d": 171.23270833333663,
      "v": 70
    },
    {
      "midi": 80,
      "hit": false,
      "t": 109177.97483333446,
      "d": 171.23270833333663,
      "v": 75
    },
    {
      "midi": 44,
      "hit": false,
      "t": 109212.2213750012,
      "d": 376.7119583333406,
      "v": 80
    },
    {
      "midi": 51,
      "hit": false,
      "t": 109246.46791666787,
      "d": 342.46541666667326,
      "v": 60
    },
    {
      "midi": 54,
      "hit": false,
      "t": 109280.71445833454,
      "d": 308.21887500000594,
      "v": 60
    },
    {
      "midi": 68,
      "hit": false,
      "t": 109314.96100000113,
      "d": 171.23270833333663,
      "v": 70
    },
    {
      "midi": 60,
      "hit": false,
      "t": 109314.9610000012,
      "d": 239.72579166667128,
      "v": 105
    },
    {
      "midi": 80,
      "hit": false,
      "t": 109451.9471666678,
      "d": 171.23270833333663,
      "v": 75
    },
    {
      "midi": 66,
      "hit": false,
      "t": 109520.44025000121,
      "d": 239.72579166667128,
      "v": 100
    },
    {
      "midi": 92,
      "hit": false,
      "t": 109588.93333333447,
      "d": 171.23270833333663,
      "v": 80
    },
    {
      "midi": 54,
      "hit": false,
      "t": 109657.42641666788,
      "d": 376.7119583333406,
      "v": 70
    },
    {
      "midi": 56,
      "hit": false,
      "t": 109691.67295833454,
      "d": 342.46541666667326,
      "v": 60
    },
    {
      "midi": 80,
      "hit": false,
      "t": 109725.91950000114,
      "d": 171.23270833333663,
      "v": 75
    },
    {
      "midi": 63,
      "hit": false,
      "t": 109725.91950000121,
      "d": 239.72579166667128,
      "v": 104
    },
    {
      "midi": 68,
      "hit": false,
      "t": 109862.90566666781,
      "d": 171.23270833333663,
      "v": 70
    },
    {
      "midi": 60,
      "hit": false,
      "t": 109931.39875000122,
      "d": 239.72579166667128,
      "v": 108
    },
    {
      "midi": 80,
      "hit": false,
      "t": 109999.89183333448,
      "d": 171.23270833333663,
      "v": 75
    },
    {
      "midi": 49,
      "hit": false,
      "t": 110068.38491666788,
      "d": 342.46541666667326,
      "v": 80
    },
    {
      "midi": 53,
      "hit": false,
      "t": 110102.63145833455,
      "d": 308.21887500000594,
      "v": 60
    },
    {
      "midi": 68,
      "hit": false,
      "t": 110136.87800000115,
      "d": 171.23270833333663,
      "v": 70
    },
    {
      "midi": 61,
      "hit": false,
      "t": 110136.87800000122,
      "d": 856.1635416666832,
      "v": 115
    },
    {
      "midi": 80,
      "hit": false,
      "t": 110273.86416666782,
      "d": 171.23270833333663,
      "v": 75
    },
    {
      "midi": 92,
      "hit": false,
      "t": 110410.85033333449,
      "d": 171.23270833333663,
      "v": 80
    },
    {
      "midi": 53,
      "hit": false,
      "t": 110513.58995833456,
      "d": 308.21887500000594,
      "v": 70
    },
    {
      "midi": 80,
      "hit": false,
      "t": 110547.83650000115,
      "d": 171.23270833333663,
      "v": 75
    },
    {
      "midi": 56,
      "hit": false,
      "t": 110547.83650000123,
      "d": 273.9723333333386,
      "v": 60
    },
    {
      "midi": 68,
      "hit": false,
      "t": 110684.82266666782,
      "d": 171.23270833333663,
      "v": 70
    },
    {
      "midi": 80,
      "hit": false,
      "t": 110821.8088333345,
      "d": 171.23270833333663,
      "v": 75
    },
    {
      "midi": 68,
      "hit": false,
      "t": 110958.79500000116,
      "d": 171.23270833333663,
      "v": 70
    },
    {
      "midi": 37,
      "hit": false,
      "t": 110958.79500000124,
      "d": 273.9723333333386,
      "v": 75
    },
    {
      "midi": 80,
      "hit": false,
      "t": 111095.78116666783,
      "d": 171.23270833333663,
      "v": 75
    },
    {
      "midi": 92,
      "hit": false,
      "t": 111232.7673333345,
      "d": 171.23270833333663,
      "v": 80
    },
    {
      "midi": 80,
      "hit": false,
      "t": 111369.75350000117,
      "d": 171.23270833333663,
      "v": 75
    },
    {
      "midi": 49,
      "hit": false,
      "t": 111369.75350000124,
      "d": 273.9723333333386,
      "v": 70
    },
    {
      "midi": 53,
      "hit": false,
      "t": 111369.75350000124,
      "d": 273.9723333333386,
      "v": 60
    },
    {
      "midi": 61,
      "hit": false,
      "t": 111369.75350000124,
      "d": 428.0817708333343,
      "v": 100
    },
    {
      "midi": 68,
      "hit": false,
      "t": 111506.73966666784,
      "d": 171.23270833333663,
      "v": 70
    },
    {
      "midi": 80,
      "hit": false,
      "t": 111643.72583333451,
      "d": 171.23270833333663,
      "v": 75
    },
    {
      "midi": 42,
      "hit": false,
      "t": 111746.46545833458,
      "d": 205.4792499999894,
      "v": 80
    },
    {
      "midi": 70,
      "hit": false,
      "t": 111780.71200000118,
      "d": 171.23270833333663,
      "v": 70
    },
    {
      "midi": 58,
      "hit": false,
      "t": 111780.71200000125,
      "d": 342.4654166666587,
      "v": 110
    },
    {
      "midi": 82,
      "hit": false,
      "t": 111917.69816666785,
      "d": 171.23270833333663,
      "v": 75
    },
    {
      "midi": 49,
      "hit": false,
      "t": 111917.6981666679,
      "d": 171.23270833333663,
      "v": 60
    },
    {
      "midi": 94,
      "hit": false,
      "t": 112054.68433333452,
      "d": 171.23270833333663,
      "v": 80
    },
    {
      "midi": 54,
      "hit": false,
      "t": 112054.68433333458,
      "d": 171.23270833333663,
      "v": 63
    },
    {
      "midi": 82,
      "hit": false,
      "t": 112191.67050000119,
      "d": 171.23270833333663,
      "v": 75
    },
    {
      "midi": 58,
      "hit": false,
      "t": 112191.67050000124,
      "d": 342.46541666667326,
      "v": 95
    },
    {
      "midi": 70,
      "hit": false,
      "t": 112328.65666666786,
      "d": 171.23270833333663,
      "v": 70
    },
    {
      "midi": 59,
      "hit": false,
      "t": 112328.65666666791,
      "d": 171.23270833333663,
      "v": 66
    },
    {
      "midi": 82,
      "hit": false,
      "t": 112465.64283333452,
      "d": 171.23270833333663,
      "v": 75
    },
    {
      "midi": 60,
      "hit": false,
      "t": 112465.64283333458,
      "d": 171.23270833333663,
      "v": 68
    },
    {
      "midi": 70,
      "hit": false,
      "t": 112602.6290000012,
      "d": 171.23270833333663,
      "v": 70
    },
    {
      "midi": 54,
      "hit": false,
      "t": 112602.62900000125,
      "d": 445.2050416666607,
      "v": 60
    },
    {
      "midi": 58,
      "hit": false,
      "t": 112602.62900000125,
      "d": 445.2050416666607,
      "v": 100
    },
    {
      "midi": 63,
      "hit": false,
      "t": 112602.62900000125,
      "d": 445.2050416666607,
      "v": 70
    },
    {
      "midi": 82,
      "hit": false,
      "t": 112739.61516666786,
      "d": 171.23270833333663,
      "v": 75
    },
    {
      "midi": 94,
      "hit": false,
      "t": 112876.60133333453,
      "d": 171.23270833333663,
      "v": 80
    },
    {
      "midi": 73,
      "hit": false,
      "t": 113013.5875000012,
      "d": 171.23270833333663,
      "v": 70
    },
    {
      "midi": 61,
      "hit": false,
      "t": 113013.58750000125,
      "d": 376.7119583333406,
      "v": 105
    },
    {
      "midi": 85,
      "hit": false,
      "t": 113150.57366666787,
      "d": 171.23270833333663,
      "v": 75
    },
    {
      "midi": 97,
      "hit": false,
      "t": 113287.55983333454,
      "d": 171.23270833333663,
      "v": 80
    },
    {
      "midi": 73,
      "hit": false,
      "t": 113424.54600000121,
      "d": 171.23270833333663,
      "v": 70
    },
    {
      "midi": 49,
      "hit": false,
      "t": 113424.54600000125,
      "d": 376.7119583333406,
      "v": 70
    },
    {
      "midi": 53,
      "hit": false,
      "t": 113424.54600000125,
      "d": 376.7119583333406,
      "v": 65
    },
    {
      "midi": 61,
      "hit": false,
      "t": 113424.54600000125,
      "d": 856.1635416666832,
      "v": 115
    },
    {
      "midi": 85,
      "hit": false,
      "t": 113561.53216666788,
      "d": 171.23270833333663,
      "v": 75
    },
    {
      "midi": 37,
      "hit": false,
      "t": 113561.53216666792,
      "d": 171.23270833333663,
      "v": 75
    },
    {
      "midi": 97,
      "hit": false,
      "t": 113698.51833333455,
      "d": 171.23270833333663,
      "v": 80
    },
    {
      "midi": 44,
      "hit": false,
      "t": 113698.51833333459,
      "d": 171.23270833333663,
      "v": 60
    },
    {
      "midi": 85,
      "hit": false,
      "t": 113835.50450000122,
      "d": 171.23270833333663,
      "v": 75
    },
    {
      "midi": 53,
      "hit": false,
      "t": 113835.50450000126,
      "d": 171.23270833333663,
      "v": 63
    },
    {
      "midi": 73,
      "hit": false,
      "t": 113972.49066666789,
      "d": 171.23270833333663,
      "v": 70
    },
    {
      "midi": 54,
      "hit": false,
      "t": 113972.49066666793,
      "d": 171.23270833333663,
      "v": 66
    },
    {
      "midi": 85,
      "hit": false,
      "t": 114109.47683333456,
      "d": 171.23270833333663,
      "v": 75
    },
    {
      "midi": 55,
      "hit": false,
      "t": 114109.4768333346,
      "d": 171.23270833333663,
      "v": 68
    },
    {
      "midi": 68,
      "hit": false,
      "t": 114246.46300000123,
      "d": 171.23270833333663,
      "v": 70
    },
    {
      "midi": 56,
      "hit": false,
      "t": 114246.46300000127,
      "d": 445.20504166667524,
      "v": 60
    },
    {
      "midi": 65,
      "hit": false,
      "t": 114246.46300000127,
      "d": 445.20504166667524,
      "v": 72
    },
    {
      "midi": 80,
      "hit": false,
      "t": 114383.4491666679,
      "d": 171.23270833333663,
      "v": 75
    },
    {
      "midi": 92,
      "hit": false,
      "t": 114520.43533333456,
      "d": 171.23270833333663,
      "v": 80
    },
    {
      "midi": 80,
      "hit": false,
      "t": 114657.42150000123,
      "d": 171.23270833333663,
      "v": 75
    },
    {
      "midi": 53,
      "hit": false,
      "t": 114657.42150000128,
      "d": 342.46541666667326,
      "v": 58
    },
    {
      "midi": 61,
      "hit": false,
      "t": 114657.42150000128,
      "d": 342.46541666667326,
      "v": 65
    },
    {
      "midi": 68,
      "hit": false,
      "t": 114794.4076666679,
      "d": 171.23270833333663,
      "v": 70
    },
    {
      "midi": 80,
      "hit": false,
      "t": 114931.39383333457,
      "d": 171.23270833333663,
      "v": 75
    },
    {
      "midi": 68,
      "hit": false,
      "t": 115068.38000000124,
      "d": 171.23270833333663,
      "v": 70
    },
    {
      "midi": 44,
      "hit": false,
      "t": 115068.38000000129,
      "d": 171.23270833333663,
      "v": 75
    },
    {
      "midi": 48,
      "hit": false,
      "t": 115068.38000000129,
      "d": 171.23270833333663,
      "v": 60
    },
    {
      "midi": 56,
      "hit": false,
      "t": 115068.38000000129,
      "d": 479.45158333334257,
      "v": 105
    },
    {
      "midi": 80,
      "hit": false,
      "t": 115205.36616666791,
      "d": 171.23270833333663,
      "v": 75
    },
    {
      "midi": 51,
      "hit": false,
      "t": 115205.36616666795,
      "d": 171.23270833333663,
      "v": 63
    },
    {
      "midi": 92,
      "hit": false,
      "t": 115342.35233333458,
      "d": 171.23270833333663,
      "v": 80
    },
    {
      "midi": 54,
      "hit": false,
      "t": 115342.35233333462,
      "d": 171.23270833333663,
      "v": 66
    },
    {
      "midi": 80,
      "hit": false,
      "t": 115479.33850000125,
      "d": 171.23270833333663,
      "v": 75
    },
    {
      "midi": 55,
      "hit": false,
      "t": 115479.3385000013,
      "d": 171.23270833333663,
      "v": 68
    },
    {
      "midi": 68,
      "hit": false,
      "t": 115616.32466666792,
      "d": 171.23270833333663,
      "v": 70
    },
    {
      "midi": 56,
      "hit": false,
      "t": 115616.32466666796,
      "d": 239.72579166667128,
      "v": 90
    },
    {
      "midi": 80,
      "hit": false,
      "t": 115753.31083333459,
      "d": 171.23270833333663,
      "v": 75
    },
    {
      "midi": 60,
      "hit": false,
      "t": 115753.31083333463,
      "d": 171.23270833333663,
      "v": 70
    },
    {
      "midi": 75,
      "hit": false,
      "t": 115890.29700000126,
      "d": 171.23270833333663,
      "v": 70
    },
    {
      "midi": 54,
      "hit": false,
      "t": 115890.2970000013,
      "d": 376.7119583333406,
      "v": 70
    },
    {
      "midi": 56,
      "hit": false,
      "t": 115890.2970000013,
      "d": 445.20504166667524,
      "v": 60
    },
    {
      "midi": 63,
      "hit": false,
      "t": 115890.2970000013,
      "d": 445.20504166667524,
      "v": 100
    },
    {
      "midi": 80,
      "hit": false,
      "t": 116027.28316666793,
      "d": 171.23270833333663,
      "v": 75
    },
    {
      "midi": 92,
      "hit": false,
      "t": 116164.2693333346,
      "d": 171.23270833333663,
      "v": 80
    },
    {
      "midi": 72,
      "hit": false,
      "t": 116301.25550000127,
      "d": 171.23270833333663,
      "v": 70
    },
    {
      "midi": 51,
      "hit": false,
      "t": 116301.25550000131,
      "d": 205.47925000000396,
      "v": 55
    },
    {
      "midi": 54,
      "hit": false,
      "t": 116301.25550000131,
      "d": 205.47925000000396,
      "v": 60
    },
    {
      "midi": 60,
      "hit": false,
      "t": 116301.25550000131,
      "d": 205.47925000000396,
      "v": 90
    },
    {
      "midi": 80,
      "hit": false,
      "t": 116438.24166666793,
      "d": 171.23270833333663,
      "v": 75
    },
    {
      "midi": 92,
      "hit": false,
      "t": 116575.2278333346,
      "d": 171.23270833333663,
      "v": 80
    },
    {
      "midi": 73,
      "hit": false,
      "t": 116712.21400000127,
      "d": 171.23270833333663,
      "v": 70
    },
    {
      "midi": 49,
      "hit": false,
      "t": 116712.21400000132,
      "d": 376.7119583333406,
      "v": 70
    },
    {
      "midi": 53,
      "hit": false,
      "t": 116712.21400000132,
      "d": 376.7119583333406,
      "v": 65
    },
    {
      "midi": 61,
      "hit": false,
      "t": 116712.21400000132,
      "d": 856.1635416666832,
      "v": 100
    },
    {
      "midi": 80,
      "hit": false,
      "t": 116849.20016666794,
      "d": 171.23270833333663,
      "v": 75
    },
    {
      "midi": 37,
      "hit": false,
      "t": 116849.20016666799,
      "d": 171.23270833333663,
      "v": 75
    },
    {
      "midi": 92,
      "hit": false,
      "t": 116986.18633333461,
      "d": 171.23270833333663,
      "v": 80
    },
    {
      "midi": 44,
      "hit": false,
      "t": 116986.18633333466,
      "d": 171.23270833333663,
      "v": 60
    },
    {
      "midi": 80,
      "hit": false,
      "t": 117123.17250000128,
      "d": 171.23270833333663,
      "v": 75
    },
    {
      "midi": 53,
      "hit": false,
      "t": 117123.17250000132,
      "d": 171.23270833333663,
      "v": 63
    },
    {
      "midi": 68,
      "hit": false,
      "t": 117260.15866666795,
      "d": 171.23270833333663,
      "v": 70
    },
    {
      "midi": 54,
      "hit": false,
      "t": 117260.158666668,
      "d": 171.23270833333663,
      "v": 66
    },
    {
      "midi": 80,
      "hit": false,
      "t": 117397.14483333462,
      "d": 171.23270833333663,
      "v": 75
    },
    {
      "midi": 55,
      "hit": false,
      "t": 117397.14483333466,
      "d": 171.23270833333663,
      "v": 68
    },
    {
      "midi": 56,
      "hit": false,
      "t": 117534.13100000133,
      "d": 445.20504166667524,
      "v": 60
    },
    {
      "midi": 65,
      "hit": false,
      "t": 117534.13100000133,
      "d": 445.20504166667524,
      "v": 72
    },
    {
      "midi": 61,
      "hit": false,
      "t": 117671.11716666796,
      "d": 171.23270833333663,
      "v": 70
    },
    {
      "midi": 68,
      "hit": false,
      "t": 117808.10333333463,
      "d": 171.23270833333663,
      "v": 70
    },
    {
      "midi": 77,
      "hit": false,
      "t": 117808.10333333463,
      "d": 171.23270833333663,
      "v": 75
    },
    {
      "midi": 73,
      "hit": false,
      "t": 117945.0895000013,
      "d": 171.23270833333663,
      "v": 75
    },
    {
      "midi": 53,
      "hit": false,
      "t": 117945.08950000134,
      "d": 342.46541666667326,
      "v": 58
    },
    {
      "midi": 61,
      "hit": false,
      "t": 117945.08950000134,
      "d": 342.46541666667326,
      "v": 65
    },
    {
      "midi": 80,
      "hit": false,
      "t": 118082.07566666797,
      "d": 171.23270833333663,
      "v": 75
    },
    {
      "midi": 89,
      "hit": false,
      "t": 118082.07566666797,
      "d": 171.23270833333663,
      "v": 80
    },
    {
      "midi": 73,
      "hit": false,
      "t": 118219.06183333464,
      "d": 171.23270833333663,
      "v": 80
    },
    {
      "midi": 42,
      "hit": false,
      "t": 118321.80145833468,
      "d": 205.47925000000396,
      "v": 80
    },
    {
      "midi": 70,
      "hit": false,
      "t": 118356.0480000013,
      "d": 171.23270833333663,
      "v": 70
    },
    {
      "midi": 58,
      "hit": false,
      "t": 118356.04800000135,
      "d": 342.46541666667326,
      "v": 110
    },
    {
      "midi": 82,
      "hit": false,
      "t": 118493.03416666797,
      "d": 171.23270833333663,
      "v": 75
    },
    {
      "midi": 49,
      "hit": false,
      "t": 118493.03416666802,
      "d": 171.23270833333663,
      "v": 60
    },
    {
      "midi": 94,
      "hit": false,
      "t": 118630.02033333464,
      "d": 171.23270833333663,
      "v": 80
    },
    {
      "midi": 54,
      "hit": false,
      "t": 118630.02033333469,
      "d": 171.23270833333663,
      "v": 63
    },
    {
      "midi": 82,
      "hit": false,
      "t": 118767.00650000131,
      "d": 171.23270833333663,
      "v": 75
    },
    {
      "midi": 58,
      "hit": false,
      "t": 118767.00650000136,
      "d": 342.46541666667326,
      "v": 95
    },
    {
      "midi": 70,
      "hit": false,
      "t": 118903.99266666798,
      "d": 171.23270833333663,
      "v": 70
    },
    {
      "midi": 59,
      "hit": false,
      "t": 118903.99266666803,
      "d": 171.23270833333663,
      "v": 66
    },
    {
      "midi": 82,
      "hit": false,
      "t": 119040.97883333465,
      "d": 171.23270833333663,
      "v": 75
    },
    {
      "midi": 60,
      "hit": false,
      "t": 119040.9788333347,
      "d": 171.23270833333663,
      "v": 68
    },
    {
      "midi": 70,
      "hit": false,
      "t": 119177.96500000132,
      "d": 171.23270833333663,
      "v": 70
    },
    {
      "midi": 54,
      "hit": false,
      "t": 119177.96500000136,
      "d": 445.20504166667524,
      "v": 60
    },
    {
      "midi": 58,
      "hit": false,
      "t": 119177.96500000136,
      "d": 445.20504166667524,
      "v": 100
    },
    {
      "midi": 63,
      "hit": false,
      "t": 119177.96500000136,
      "d": 445.20504166667524,
      "v": 70
    },
    {
      "midi": 82,
      "hit": false,
      "t": 119314.95116666799,
      "d": 171.23270833333663,
      "v": 75
    },
    {
      "midi": 94,
      "hit": false,
      "t": 119451.93733333466,
      "d": 171.23270833333663,
      "v": 80
    },
    {
      "midi": 73,
      "hit": false,
      "t": 119588.92350000133,
      "d": 171.23270833333663,
      "v": 70
    },
    {
      "midi": 61,
      "hit": false,
      "t": 119588.92350000137,
      "d": 376.7119583333406,
      "v": 105
    },
    {
      "midi": 85,
      "hit": false,
      "t": 119725.909666668,
      "d": 171.23270833333663,
      "v": 75
    },
    {
      "midi": 97,
      "hit": false,
      "t": 119862.89583333467,
      "d": 171.23270833333663,
      "v": 80
    },
    {
      "midi": 73,
      "hit": false,
      "t": 119999.88200000134,
      "d": 171.23270833333663,
      "v": 70
    },
    {
      "midi": 49,
      "hit": false,
      "t": 119999.88200000138,
      "d": 376.7119583333406,
      "v": 70
    },
    {
      "midi": 53,
      "hit": false,
      "t": 119999.88200000138,
      "d": 376.7119583333406,
      "v": 65
    },
    {
      "midi": 61,
      "hit": false,
      "t": 119999.88200000138,
      "d": 856.1635416666832,
      "v": 115
    },
    {
      "midi": 85,
      "hit": false,
      "t": 120136.868166668,
      "d": 171.23270833333663,
      "v": 75
    },
    {
      "midi": 37,
      "hit": false,
      "t": 120136.86816666805,
      "d": 171.23270833333663,
      "v": 75
    },
    {
      "midi": 97,
      "hit": false,
      "t": 120273.85433333468,
      "d": 171.23270833333663,
      "v": 80
    },
    {
      "midi": 44,
      "hit": false,
      "t": 120273.85433333472,
      "d": 171.23270833333663,
      "v": 60
    },
    {
      "midi": 85,
      "hit": false,
      "t": 120410.84050000134,
      "d": 171.23270833333663,
      "v": 75
    },
    {
      "midi": 53,
      "hit": false,
      "t": 120410.84050000139,
      "d": 171.23270833333663,
      "v": 63
    },
    {
      "midi": 73,
      "hit": false,
      "t": 120547.82666666801,
      "d": 171.23270833333663,
      "v": 70
    },
    {
      "midi": 54,
      "hit": false,
      "t": 120547.82666666806,
      "d": 171.23270833333663,
      "v": 66
    },
    {
      "midi": 85,
      "hit": false,
      "t": 120684.81283333468,
      "d": 171.23270833333663,
      "v": 75
    },
    {
      "midi": 55,
      "hit": false,
      "t": 120684.81283333473,
      "d": 171.23270833333663,
      "v": 68
    },
    {
      "midi": 68,
      "hit": false,
      "t": 120821.79900000135,
      "d": 171.23270833333663,
      "v": 70
    },
    {
      "midi": 56,
      "hit": false,
      "t": 120821.7990000014,
      "d": 445.20504166667524,
      "v": 60
    },
    {
      "midi": 65,
      "hit": false,
      "t": 120821.7990000014,
      "d": 445.20504166667524,
      "v": 72
    },
    {
      "midi": 80,
      "hit": false,
      "t": 120958.78516666802,
      "d": 171.23270833333663,
      "v": 75
    },
    {
      "midi": 92,
      "hit": false,
      "t": 121095.77133333469,
      "d": 171.23270833333663,
      "v": 80
    },
    {
      "midi": 80,
      "hit": false,
      "t": 121232.75750000136,
      "d": 171.23270833333663,
      "v": 75
    },
    {
      "midi": 53,
      "hit": false,
      "t": 121232.7575000014,
      "d": 342.46541666667326,
      "v": 58
    },
    {
      "midi": 61,
      "hit": false,
      "t": 121232.7575000014,
      "d": 342.46541666667326,
      "v": 65
    },
    {
      "midi": 68,
      "hit": false,
      "t": 121369.74366666803,
      "d": 171.23270833333663,
      "v": 70
    },
    {
      "midi": 80,
      "hit": false,
      "t": 121506.7298333347,
      "d": 171.23270833333663,
      "v": 75
    },
    {
      "midi": 68,
      "hit": false,
      "t": 121643.71600000137,
      "d": 171.23270833333663,
      "v": 70
    },
    {
      "midi": 44,
      "hit": false,
      "t": 121643.71600000141,
      "d": 171.23270833333663,
      "v": 75
    },
    {
      "midi": 48,
      "hit": false,
      "t": 121643.71600000141,
      "d": 171.23270833333663,
      "v": 60
    },
    {
      "midi": 56,
      "hit": false,
      "t": 121643.71600000141,
      "d": 479.45158333334257,
      "v": 105
    },
    {
      "midi": 80,
      "hit": false,
      "t": 121780.70216666804,
      "d": 171.23270833333663,
      "v": 75
    },
    {
      "midi": 51,
      "hit": false,
      "t": 121780.70216666808,
      "d": 171.23270833333663,
      "v": 63
    },
    {
      "midi": 92,
      "hit": false,
      "t": 121917.6883333347,
      "d": 171.23270833333663,
      "v": 80
    },
    {
      "midi": 54,
      "hit": false,
      "t": 121917.68833333475,
      "d": 171.23270833333663,
      "v": 66
    },
    {
      "midi": 80,
      "hit": false,
      "t": 122054.67450000138,
      "d": 171.23270833333663,
      "v": 75
    },
    {
      "midi": 55,
      "hit": false,
      "t": 122054.67450000142,
      "d": 171.23270833333663,
      "v": 68
    },
    {
      "midi": 68,
      "hit": false,
      "t": 122191.66066666805,
      "d": 171.23270833333663,
      "v": 70
    },
    {
      "midi": 56,
      "hit": false,
      "t": 122191.66066666809,
      "d": 239.72579166667128,
      "v": 90
    },
    {
      "midi": 80,
      "hit": false,
      "t": 122328.64683333471,
      "d": 171.23270833333663,
      "v": 75
    },
    {
      "midi": 60,
      "hit": false,
      "t": 122328.64683333476,
      "d": 171.23270833333663,
      "v": 70
    },
    {
      "midi": 75,
      "hit": false,
      "t": 122465.63300000138,
      "d": 171.23270833333663,
      "v": 70
    },
    {
      "midi": 54,
      "hit": false,
      "t": 122465.63300000143,
      "d": 376.7119583333406,
      "v": 70
    },
    {
      "midi": 56,
      "hit": false,
      "t": 122465.63300000143,
      "d": 445.20504166667524,
      "v": 60
    },
    {
      "midi": 63,
      "hit": false,
      "t": 122465.63300000143,
      "d": 445.20504166667524,
      "v": 100
    },
    {
      "midi": 80,
      "hit": false,
      "t": 122602.61916666805,
      "d": 171.23270833333663,
      "v": 75
    },
    {
      "midi": 92,
      "hit": false,
      "t": 122739.60533333472,
      "d": 171.23270833333663,
      "v": 80
    },
    {
      "midi": 72,
      "hit": false,
      "t": 122876.59150000139,
      "d": 171.23270833333663,
      "v": 70
    },
    {
      "midi": 51,
      "hit": false,
      "t": 122876.59150000144,
      "d": 205.47925000000396,
      "v": 55
    },
    {
      "midi": 54,
      "hit": false,
      "t": 122876.59150000144,
      "d": 205.47925000000396,
      "v": 60
    },
    {
      "midi": 60,
      "hit": false,
      "t": 122876.59150000144,
      "d": 205.47925000000396,
      "v": 90
    },
    {
      "midi": 80,
      "hit": false,
      "t": 123013.57766666806,
      "d": 171.23270833333663,
      "v": 75
    },
    {
      "midi": 92,
      "hit": false,
      "t": 123150.56383333473,
      "d": 171.23270833333663,
      "v": 80
    },
    {
      "midi": 73,
      "hit": false,
      "t": 123287.5500000014,
      "d": 171.23270833333663,
      "v": 70
    },
    {
      "midi": 49,
      "hit": false,
      "t": 123287.55000000144,
      "d": 342.46541666667326,
      "v": 70
    },
    {
      "midi": 53,
      "hit": false,
      "t": 123287.55000000144,
      "d": 342.46541666667326,
      "v": 65
    },
    {
      "midi": 61,
      "hit": false,
      "t": 123287.55000000144,
      "d": 342.46541666667326,
      "v": 100
    },
    {
      "midi": 85,
      "hit": false,
      "t": 123424.53616666807,
      "d": 171.23270833333663,
      "v": 75
    },
    {
      "midi": 97,
      "hit": false,
      "t": 123561.52233333474,
      "d": 171.23270833333663,
      "v": 80
    },
    {
      "midi": 85,
      "hit": false,
      "t": 123698.50850000141,
      "d": 171.23270833333663,
      "v": 75
    },
    {
      "midi": 65,
      "hit": false,
      "t": 123698.50850000145,
      "d": 171.23270833333663,
      "v": 80
    },
    {
      "midi": 56,
      "hit": false,
      "t": 123698.50850000145,
      "d": 342.46541666667326,
      "v": 60
    },
    {
      "midi": 61,
      "hit": false,
      "t": 123698.50850000145,
      "d": 342.46541666667326,
      "v": 70
    },
    {
      "midi": 73,
      "hit": false,
      "t": 123835.49466666808,
      "d": 171.23270833333663,
      "v": 70
    },
    {
      "midi": 66,
      "hit": false,
      "t": 123835.49466666812,
      "d": 171.23270833333663,
      "v": 83
    },
    {
      "midi": 85,
      "hit": false,
      "t": 123972.48083333475,
      "d": 171.23270833333663,
      "v": 75
    },
    {
      "midi": 67,
      "hit": false,
      "t": 123972.48083333479,
      "d": 171.23270833333663,
      "v": 87
    },
    {
      "midi": 77,
      "hit": false,
      "t": 124109.46700000142,
      "d": 171.23270833333663,
      "v": 70
    },
    {
      "midi": 68,
      "hit": false,
      "t": 124109.46700000146,
      "d": 342.46541666667326,
      "v": 85
    },
    {
      "midi": 73,
      "hit": false,
      "t": 124109.46700000146,
      "d": 445.20504166667524,
      "v": 95
    },
    {
      "midi": 89,
      "hit": false,
      "t": 124246.45316666809,
      "d": 171.23270833333663,
      "v": 75
    },
    {
      "midi": 101,
      "hit": false,
      "t": 124383.43933333475,
      "d": 171.23270833333663,
      "v": 80
    },
    {
      "midi": 89,
      "hit": false,
      "t": 124520.42550000142,
      "d": 171.23270833333663,
      "v": 75
    },
    {
      "midi": 61,
      "hit": false,
      "t": 124520.42550000147,
      "d": 205.47925000000396,
      "v": 80
    },
    {
      "midi": 68,
      "hit": false,
      "t": 124520.42550000147,
      "d": 205.47925000000396,
      "v": 90
    },
    {
      "midi": 77,
      "hit": false,
      "t": 124657.4116666681,
      "d": 171.23270833333663,
      "v": 70
    },
    {
      "midi": 89,
      "hit": false,
      "t": 124794.39783333476,
      "d": 171.23270833333663,
      "v": 75
    },
    {
      "midi": 73,
      "hit": false,
      "t": 124931.38400000143,
      "d": 171.23270833333663,
      "v": 80
    },
    {
      "midi": 49,
      "hit": false,
      "t": 124931.38400000148,
      "d": 342.46541666667326,
      "v": 80
    },
    {
      "midi": 53,
      "hit": false,
      "t": 124931.38400000148,
      "d": 342.46541666667326,
      "v": 75
    },
    {
      "midi": 61,
      "hit": false,
      "t": 124931.38400000148,
      "d": 342.46541666667326,
      "v": 110
    },
    {
      "midi": 85,
      "hit": false,
      "t": 125068.3701666681,
      "d": 171.23270833333663,
      "v": 85
    },
    {
      "midi": 97,
      "hit": false,
      "t": 125205.35633333477,
      "d": 171.23270833333663,
      "v": 90
    },
    {
      "midi": 85,
      "hit": false,
      "t": 125342.34250000144,
      "d": 171.23270833333663,
      "v": 85
    },
    {
      "midi": 65,
      "hit": false,
      "t": 125342.34250000148,
      "d": 171.23270833333663,
      "v": 90
    },
    {
      "midi": 56,
      "hit": false,
      "t": 125342.34250000148,
      "d": 342.46541666667326,
      "v": 70
    },
    {
      "midi": 61,
      "hit": false,
      "t": 125342.34250000148,
      "d": 342.46541666667326,
      "v": 80
    },
    {
      "midi": 73,
      "hit": false,
      "t": 125479.32866666811,
      "d": 171.23270833333663,
      "v": 80
    },
    {
      "midi": 66,
      "hit": false,
      "t": 125479.32866666815,
      "d": 171.23270833333663,
      "v": 93
    },
    {
      "midi": 85,
      "hit": false,
      "t": 125616.31483333478,
      "d": 171.23270833333663,
      "v": 85
    },
    {
      "midi": 67,
      "hit": false,
      "t": 125616.31483333482,
      "d": 171.23270833333663,
      "v": 97
    },
    {
      "midi": 77,
      "hit": false,
      "t": 125753.30100000145,
      "d": 171.23270833333663,
      "v": 80
    },
    {
      "midi": 68,
      "hit": false,
      "t": 125753.30100000149,
      "d": 342.46541666667326,
      "v": 95
    },
    {
      "midi": 73,
      "hit": false,
      "t": 125753.30100000149,
      "d": 445.20504166667524,
      "v": 105
    },
    {
      "midi": 89,
      "hit": false,
      "t": 125890.28716666812,
      "d": 171.23270833333663,
      "v": 85
    },
    {
      "midi": 101,
      "hit": false,
      "t": 126027.27333333479,
      "d": 171.23270833333663,
      "v": 90
    },
    {
      "midi": 89,
      "hit": false,
      "t": 126164.25950000146,
      "d": 171.23270833333663,
      "v": 85
    },
    {
      "midi": 61,
      "hit": false,
      "t": 126164.2595000015,
      "d": 205.47925000000396,
      "v": 90
    },
    {
      "midi": 68,
      "hit": false,
      "t": 126164.2595000015,
      "d": 205.47925000000396,
      "v": 100
    },
    {
      "midi": 77,
      "hit": false,
      "t": 126301.24566666812,
      "d": 171.23270833333663,
      "v": 80
    },
    {
      "midi": 89,
      "hit": false,
      "t": 126438.2318333348,
      "d": 171.23270833333663,
      "v": 85
    },
    {
      "midi": 37,
      "hit": false,
      "t": 126575.2180000015,
      "d": 171.23270833333663,
      "v": 85
    },
    {
      "midi": 44,
      "hit": false,
      "t": 126712.20416666818,
      "d": 171.23270833333663,
      "v": 89
    },
    {
      "midi": 53,
      "hit": false,
      "t": 126849.19033333485,
      "d": 171.23270833333663,
      "v": 93
    },
    {
      "midi": 49,
      "hit": false,
      "t": 126986.17650000146,
      "d": 171.23270833333663,
      "v": 90
    },
    {
      "midi": 56,
      "hit": false,
      "t": 127123.16266666813,
      "d": 171.23270833333663,
      "v": 94
    },
    {
      "midi": 65,
      "hit": false,
      "t": 127260.1488333348,
      "d": 171.23270833333663,
      "v": 98
    },
    {
      "midi": 61,
      "hit": false,
      "t": 127397.13500000146,
      "d": 171.23270833333663,
      "v": 95
    },
    {
      "midi": 49,
      "hit": false,
      "t": 127397.13500000152,
      "d": 171.23270833333663,
      "v": 95
    },
    {
      "midi": 68,
      "hit": false,
      "t": 127534.12116666813,
      "d": 171.23270833333663,
      "v": 99
    },
    {
      "midi": 56,
      "hit": false,
      "t": 127534.12116666819,
      "d": 171.23270833333663,
      "v": 99
    },
    {
      "midi": 77,
      "hit": false,
      "t": 127671.1073333348,
      "d": 171.23270833333663,
      "v": 103
    },
    {
      "midi": 65,
      "hit": false,
      "t": 127671.10733333486,
      "d": 171.23270833333663,
      "v": 103
    },
    {
      "midi": 73,
      "hit": false,
      "t": 127808.09350000147,
      "d": 171.23270833333663,
      "v": 100
    },
    {
      "midi": 61,
      "hit": false,
      "t": 127808.09350000153,
      "d": 171.23270833333663,
      "v": 100
    },
    {
      "midi": 80,
      "hit": false,
      "t": 127945.07966666814,
      "d": 171.23270833333663,
      "v": 104
    },
    {
      "midi": 68,
      "hit": false,
      "t": 127945.0796666682,
      "d": 171.23270833333663,
      "v": 104
    },
    {
      "midi": 89,
      "hit": false,
      "t": 128082.06583333481,
      "d": 171.23270833333663,
      "v": 108
    },
    {
      "midi": 77,
      "hit": false,
      "t": 128082.06583333487,
      "d": 171.23270833333663,
      "v": 108
    },
    {
      "midi": 85,
      "hit": false,
      "t": 128219.05200000148,
      "d": 171.23270833333663,
      "v": 105
    },
    {
      "midi": 73,
      "hit": false,
      "t": 128219.05200000154,
      "d": 171.23270833333663,
      "v": 105
    },
    {
      "midi": 92,
      "hit": false,
      "t": 128356.03816666815,
      "d": 171.23270833333663,
      "v": 109
    },
    {
      "midi": 80,
      "hit": false,
      "t": 128356.03816666821,
      "d": 171.23270833333663,
      "v": 109
    },
    {
      "midi": 101,
      "hit": false,
      "t": 128493.02433333482,
      "d": 102.73962500000198,
      "v": 113
    },
    {
      "midi": 89,
      "hit": false,
      "t": 128493.02433333488,
      "d": 102.73962500000198,
      "v": 113
    },
    {
      "midi": 101,
      "hit": false,
      "t": 128630.01050000149,
      "d": 171.23270833333663,
      "v": 120
    },
    {
      "midi": 89,
      "hit": false,
      "t": 128630.01050000155,
      "d": 171.23270833333663,
      "v": 120
    },
    {
      "midi": 92,
      "hit": false,
      "t": 128766.99666666816,
      "d": 171.23270833333663,
      "v": 116
    },
    {
      "midi": 80,
      "hit": false,
      "t": 128766.99666666822,
      "d": 171.23270833333663,
      "v": 116
    },
    {
      "midi": 85,
      "hit": false,
      "t": 128903.98283333483,
      "d": 171.23270833333663,
      "v": 112
    },
    {
      "midi": 73,
      "hit": false,
      "t": 128903.98283333489,
      "d": 171.23270833333663,
      "v": 112
    },
    {
      "midi": 89,
      "hit": false,
      "t": 129040.9690000015,
      "d": 171.23270833333663,
      "v": 115
    },
    {
      "midi": 77,
      "hit": false,
      "t": 129040.96900000155,
      "d": 171.23270833333663,
      "v": 115
    },
    {
      "midi": 80,
      "hit": false,
      "t": 129177.95516666817,
      "d": 171.23270833333663,
      "v": 111
    },
    {
      "midi": 68,
      "hit": false,
      "t": 129177.95516666822,
      "d": 171.23270833333663,
      "v": 111
    },
    {
      "midi": 73,
      "hit": false,
      "t": 129314.94133333483,
      "d": 171.23270833333663,
      "v": 107
    },
    {
      "midi": 61,
      "hit": false,
      "t": 129314.9413333349,
      "d": 171.23270833333663,
      "v": 107
    },
    {
      "midi": 77,
      "hit": false,
      "t": 129451.9275000015,
      "d": 171.23270833333663,
      "v": 110
    },
    {
      "midi": 65,
      "hit": false,
      "t": 129451.92750000156,
      "d": 171.23270833333663,
      "v": 110
    },
    {
      "midi": 68,
      "hit": false,
      "t": 129588.91366666817,
      "d": 171.23270833333663,
      "v": 106
    },
    {
      "midi": 56,
      "hit": false,
      "t": 129588.91366666823,
      "d": 171.23270833333663,
      "v": 106
    },
    {
      "midi": 61,
      "hit": false,
      "t": 129725.89983333484,
      "d": 171.23270833333663,
      "v": 102
    },
    {
      "midi": 49,
      "hit": false,
      "t": 129725.8998333349,
      "d": 171.23270833333663,
      "v": 102
    },
    {
      "midi": 65,
      "hit": false,
      "t": 129862.88600000151,
      "d": 171.23270833333663,
      "v": 105
    },
    {
      "midi": 53,
      "hit": false,
      "t": 129862.88600000157,
      "d": 171.23270833333663,
      "v": 105
    },
    {
      "midi": 56,
      "hit": false,
      "t": 129999.87216666818,
      "d": 171.23270833333663,
      "v": 101
    },
    {
      "midi": 44,
      "hit": false,
      "t": 129999.87216666824,
      "d": 171.23270833333663,
      "v": 101
    },
    {
      "midi": 49,
      "hit": false,
      "t": 130136.85833333485,
      "d": 171.23270833333663,
      "v": 97
    },
    {
      "midi": 37,
      "hit": false,
      "t": 130136.85833333491,
      "d": 171.23270833333663,
      "v": 97
    },
    {
      "midi": 41,
      "hit": false,
      "t": 130273.84450000158,
      "d": 171.23270833333663,
      "v": 100
    },
    {
      "midi": 39,
      "hit": false,
      "t": 130410.83066666825,
      "d": 171.23270833333663,
      "v": 97
    },
    {
      "midi": 37,
      "hit": false,
      "t": 130547.81683333492,
      "d": 171.23270833333663,
      "v": 93
    },
    {
      "midi": 36,
      "hit": false,
      "t": 130684.80300000159,
      "d": 171.23270833333663,
      "v": 90
    },
    {
      "midi": 37,
      "hit": false,
      "t": 130821.78916666826,
      "d": 171.23270833333663,
      "v": 87
    },
    {
      "midi": 39,
      "hit": false,
      "t": 130958.77533333492,
      "d": 171.23270833332208,
      "v": 83
    },
    {
      "midi": 37,
      "hit": false,
      "t": 131095.7615000016,
      "d": 171.23270833329298,
      "v": 80
    },
    {
      "midi": 36,
      "hit": false,
      "t": 131232.74766666823,
      "d": 171.23270833329298,
      "v": 77
    },
    {
      "midi": 53,
      "hit": false,
      "t": 131301.2407500015,
      "d": 171.23270833332208,
      "v": 75
    },
    {
      "midi": 65,
      "hit": false,
      "t": 131301.2407500015,
      "d": 171.23270833332208,
      "v": 80
    },
    {
      "midi": 34,
      "hit": false,
      "t": 131369.73383333487,
      "d": 171.23270833329298,
      "v": 73
    },
    {
      "midi": 53,
      "hit": false,
      "t": 131506.7200000015,
      "d": 342.46541666661506,
      "v": 80
    },
    {
      "midi": 65,
      "hit": false,
      "t": 131506.7200000015,
      "d": 342.46541666661506,
      "v": 90
    },
    {
      "midi": 33,
      "hit": false,
      "t": 131506.72000000151,
      "d": 273.9723333333095,
      "v": 80
    },
    {
      "midi": 60,
      "hit": false,
      "t": 131643.70616666813,
      "d": 171.23270833332208,
      "v": 55
    },
    {
      "midi": 63,
      "hit": false,
      "t": 131643.70616666813,
      "d": 171.23270833332208,
      "v": 60
    },
    {
      "midi": 66,
      "hit": false,
      "t": 131780.6923333348,
      "d": 171.23270833329298,
      "v": 62
    },
    {
      "midi": 45,
      "hit": false,
      "t": 131849.18541666816,
      "d": 342.46541666664416,
      "v": 60
    },
    {
      "midi": 53,
      "hit": false,
      "t": 131883.4319583348,
      "d": 308.2188749999914,
      "v": 50
    },
    {
      "midi": 65,
      "hit": false,
      "t": 131917.67850000144,
      "d": 342.46541666661506,
      "v": 85
    },
    {
      "midi": 60,
      "hit": false,
      "t": 131917.67850000146,
      "d": 273.9723333333386,
      "v": 55
    },
    {
      "midi": 72,
      "hit": false,
      "t": 132054.66466666808,
      "d": 171.23270833332208,
      "v": 59
    },
    {
      "midi": 75,
      "hit": false,
      "t": 132054.66466666808,
      "d": 171.23270833332208,
      "v": 64
    },
    {
      "midi": 78,
      "hit": false,
      "t": 132191.65083333474,
      "d": 171.23270833329298,
      "v": 66
    },
    {
      "midi": 77,
      "hit": false,
      "t": 132328.63700000138,
      "d": 171.23270833329298,
      "v": 68
    },
    {
      "midi": 63,
      "hit": false,
      "t": 132328.63700000147,
      "d": 273.9723333333386,
      "v": 55
    },
    {
      "midi": 65,
      "hit": false,
      "t": 132328.63700000147,
      "d": 273.9723333333386,
      "v": 55
    },
    {
      "midi": 72,
      "hit": false,
      "t": 132328.63700000147,
      "d": 342.46541666667326,
      "v": 90
    },
    {
      "midi": 84,
      "hit": false,
      "t": 132465.62316666803,
      "d": 171.23270833329298,
      "v": 75
    },
    {
      "midi": 87,
      "hit": false,
      "t": 132465.62316666803,
      "d": 171.23270833329298,
      "v": 70
    },
    {
      "midi": 90,
      "hit": false,
      "t": 132602.60933333467,
      "d": 171.23270833329298,
      "v": 68
    },
    {
      "midi": 57,
      "hit": false,
      "t": 132671.10241666815,
      "d": 342.46541666664416,
      "v": 60
    },
    {
      "midi": 65,
      "hit": false,
      "t": 132705.3489583348,
      "d": 308.2188749999914,
      "v": 50
    },
    {
      "midi": 89,
      "hit": false,
      "t": 132739.5955000013,
      "d": 171.23270833329298,
      "v": 66
    },
    {
      "midi": 72,
      "hit": false,
      "t": 132739.59550000145,
      "d": 342.46541666667326,
      "v": 95
    },
    {
      "midi": 84,
      "hit": false,
      "t": 132876.58166666795,
      "d": 171.23270833329298,
      "v": 63
    },
    {
      "midi": 87,
      "hit": false,
      "t": 132876.58166666795,
      "d": 171.23270833329298,
      "v": 61
    },
    {
      "midi": 77,
      "hit": false,
      "t": 133013.5678333346,
      "d": 171.23270833329298,
      "v": 60
    },
    {
      "midi": 73,
      "hit": false,
      "t": 133150.55400000123,
      "d": 513.6981249999371,
      "v": 100
    },
    {
      "midi": 61,
      "hit": false,
      "t": 133287.54016666787,
      "d": 171.23270833332208,
      "v": 60
    },
    {
      "midi": 66,
      "hit": false,
      "t": 133424.52633333454,
      "d": 171.23270833329298,
      "v": 64
    },
    {
      "midi": 46,
      "hit": false,
      "t": 133493.0194166681,
      "d": 342.46541666664416,
      "v": 70
    },
    {
      "midi": 53,
      "hit": false,
      "t": 133527.26595833476,
      "d": 308.2188749999914,
      "v": 55
    },
    {
      "midi": 65,
      "hit": false,
      "t": 133561.51250000118,
      "d": 171.23270833329298,
      "v": 62
    },
    {
      "midi": 61,
      "hit": false,
      "t": 133561.5125000014,
      "d": 342.46541666667326,
      "v": 65
    },
    {
      "midi": 73,
      "hit": false,
      "t": 133698.49866666782,
      "d": 171.23270833329298,
      "v": 66
    },
    {
      "midi": 70,
      "hit": false,
      "t": 133835.48483333446,
      "d": 171.23270833329298,
      "v": 64
    },
    {
      "midi": 78,
      "hit": false,
      "t": 133972.4710000011,
      "d": 171.23270833329298,
      "v": 68
    },
    {
      "midi": 61,
      "hit": false,
      "t": 133972.47100000142,
      "d": 273.9723333333386,
      "v": 60
    },
    {
      "midi": 65,
      "hit": false,
      "t": 133972.47100000142,
      "d": 273.9723333333386,
      "v": 50
    },
    {
      "midi": 70,
      "hit": false,
      "t": 133972.47100000142,
      "d": 273.9723333333386,
      "v": 85
    },
    {
      "midi": 77,
      "hit": false,
      "t": 134109.45716666774,
      "d": 171.23270833329298,
      "v": 66
    },
    {
      "midi": 85,
      "hit": false,
      "t": 134246.44333333438,
      "d": 171.23270833329298,
      "v": 70
    },
    {
      "midi": 82,
      "hit": false,
      "t": 134383.42950000102,
      "d": 171.23270833329298,
      "v": 68
    },
    {
      "midi": 58,
      "hit": false,
      "t": 134383.42950000142,
      "d": 273.9723333333386,
      "v": 62
    },
    {
      "midi": 61,
      "hit": false,
      "t": 134383.42950000142,
      "d": 273.9723333333386,
      "v": 55
    },
    {
      "midi": 70,
      "hit": false,
      "t": 134383.42950000142,
      "d": 445.2050416666607,
      "v": 90
    },
    {
      "midi": 90,
      "hit": false,
      "t": 134520.41566666766,
      "d": 171.23270833329298,
      "v": 72
    },
    {
      "midi": 89,
      "hit": false,
      "t": 134657.4018333343,
      "d": 171.23270833329298,
      "v": 65
    },
    {
      "midi": 65,
      "hit": false,
      "t": 134794.38800000094,
      "d": 376.71195833329693,
      "v": 95
    },
    {
      "midi": 60,
      "hit": false,
      "t": 134931.37416666758,
      "d": 171.23270833332208,
      "v": 55
    },
    {
      "midi": 63,
      "hit": false,
      "t": 134931.37416666758,
      "d": 171.23270833332208,
      "v": 60
    },
    {
      "midi": 66,
      "hit": false,
      "t": 135068.36033333425,
      "d": 171.23270833329298,
      "v": 62
    },
    {
      "midi": 45,
      "hit": false,
      "t": 135136.85341666808,
      "d": 342.46541666664416,
      "v": 60
    },
    {
      "midi": 53,
      "hit": false,
      "t": 135171.09995833473,
      "d": 308.2188749999914,
      "v": 50
    },
    {
      "midi": 65,
      "hit": false,
      "t": 135205.3465000009,
      "d": 342.46541666661506,
      "v": 63
    },
    {
      "midi": 60,
      "hit": false,
      "t": 135205.34650000138,
      "d": 273.9723333333386,
      "v": 55
    },
    {
      "midi": 72,
      "hit": false,
      "t": 135342.33266666753,
      "d": 171.23270833332208,
      "v": 59
    },
    {
      "midi": 75,
      "hit": false,
      "t": 135342.33266666753,
      "d": 171.23270833332208,
      "v": 64
    },
    {
      "midi": 78,
      "hit": false,
      "t": 135479.3188333342,
      "d": 171.23270833329298,
      "v": 66
    },
    {
      "midi": 77,
      "hit": false,
      "t": 135616.30500000084,
      "d": 171.23270833329298,
      "v": 68
    },
    {
      "midi": 57,
      "hit": false,
      "t": 135616.3050000014,
      "d": 273.9723333333386,
      "v": 55
    },
    {
      "midi": 60,
      "hit": false,
      "t": 135616.3050000014,
      "d": 273.9723333333386,
      "v": 55
    },
    {
      "midi": 65,
      "hit": false,
      "t": 135616.3050000014,
      "d": 342.46541666667326,
      "v": 90
    },
    {
      "midi": 84,
      "hit": false,
      "t": 135753.29116666748,
      "d": 171.23270833329298,
      "v": 75
    },
    {
      "midi": 87,
      "hit": false,
      "t": 135753.29116666748,
      "d": 171.23270833329298,
      "v": 70
    },
    {
      "midi": 90,
      "hit": false,
      "t": 135890.27733333412,
      "d": 171.23270833329298,
      "v": 68
    },
    {
      "midi": 89,
      "hit": false,
      "t": 136027.26350000076,
      "d": 171.23270833329298,
      "v": 66
    },
    {
      "midi": 63,
      "hit": false,
      "t": 136027.2635000014,
      "d": 273.9723333333095,
      "v": 60
    },
    {
      "midi": 65,
      "hit": false,
      "t": 136027.2635000014,
      "d": 273.9723333333095,
      "v": 50
    },
    {
      "midi": 72,
      "hit": false,
      "t": 136027.2635000014,
      "d": 342.46541666664416,
      "v": 95
    },
    {
      "midi": 84,
      "hit": false,
      "t": 136164.2496666674,
      "d": 171.23270833329298,
      "v": 63
    },
    {
      "midi": 87,
      "hit": false,
      "t": 136164.2496666674,
      "d": 171.23270833329298,
      "v": 61
    },
    {
      "midi": 77,
      "hit": false,
      "t": 136301.23583333404,
      "d": 171.23270833329298,
      "v": 60
    },
    {
      "midi": 73,
      "hit": false,
      "t": 136438.22200000068,
      "d": 513.6981249999371,
      "v": 100
    },
    {
      "midi": 61,
      "hit": false,
      "t": 136575.20816666732,
      "d": 171.23270833332208,
      "v": 60
    },
    {
      "midi": 66,
      "hit": false,
      "t": 136712.194333334,
      "d": 171.23270833329298,
      "v": 64
    },
    {
      "midi": 46,
      "hit": false,
      "t": 136780.68741666802,
      "d": 342.46541666661506,
      "v": 65
    },
    {
      "midi": 53,
      "hit": false,
      "t": 136814.93395833467,
      "d": 308.2188749999623,
      "v": 55
    },
    {
      "midi": 65,
      "hit": false,
      "t": 136849.18050000063,
      "d": 171.23270833329298,
      "v": 62
    },
    {
      "midi": 61,
      "hit": false,
      "t": 136849.18050000133,
      "d": 342.46541666664416,
      "v": 70
    },
    {
      "midi": 73,
      "hit": false,
      "t": 136986.16666666727,
      "d": 171.23270833329298,
      "v": 66
    },
    {
      "midi": 70,
      "hit": false,
      "t": 137123.1528333339,
      "d": 171.23270833329298,
      "v": 64
    },
    {
      "midi": 78,
      "hit": false,
      "t": 137260.13900000055,
      "d": 171.23270833329298,
      "v": 68
    },
    {
      "midi": 61,
      "hit": false,
      "t": 137260.1390000013,
      "d": 273.9723333333095,
      "v": 65
    },
    {
      "midi": 70,
      "hit": false,
      "t": 137260.1390000013,
      "d": 273.9723333333095,
      "v": 50
    },
    {
      "midi": 77,
      "hit": false,
      "t": 137397.1251666672,
      "d": 171.23270833329298,
      "v": 66
    },
    {
      "midi": 85,
      "hit": false,
      "t": 137534.11133333383,
      "d": 171.23270833329298,
      "v": 70
    },
    {
      "midi": 56,
      "hit": false,
      "t": 137602.60441666795,
      "d": 410.9584999999497,
      "v": 65
    },
    {
      "midi": 64,
      "hit": false,
      "t": 137636.8509583346,
      "d": 376.71195833329693,
      "v": 55
    },
    {
      "midi": 82,
      "hit": false,
      "t": 137671.09750000047,
      "d": 171.23270833329298,
      "v": 68
    },
    {
      "midi": 73,
      "hit": false,
      "t": 137671.09750000047,
      "d": 410.9584999999206,
      "v": 90
    },
    {
      "midi": 70,
      "hit": false,
      "t": 137671.09750000125,
      "d": 342.46541666664416,
      "v": 70
    },
    {
      "midi": 90,
      "hit": false,
      "t": 137808.0836666671,
      "d": 171.23270833329298,
      "v": 72
    },
    {
      "midi": 88,
      "hit": false,
      "t": 137945.06983333375,
      "d": 171.23270833329298,
      "v": 70
    },
    {
      "midi": 55,
      "hit": false,
      "t": 138013.5629166679,
      "d": 342.46541666661506,
      "v": 70
    },
    {
      "midi": 63,
      "hit": false,
      "t": 138047.80945833455,
      "d": 308.2188749999623,
      "v": 50
    },
    {
      "midi": 87,
      "hit": false,
      "t": 138082.0560000004,
      "d": 171.23270833329298,
      "v": 70
    },
    {
      "midi": 70,
      "hit": false,
      "t": 138082.0560000012,
      "d": 273.9723333333095,
      "v": 75
    },
    {
      "midi": 82,
      "hit": false,
      "t": 138219.04216666703,
      "d": 171.23270833329298,
      "v": 72
    },
    {
      "midi": 73,
      "hit": false,
      "t": 138356.02833333367,
      "d": 171.23270833329298,
      "v": 74
    },
    {
      "midi": 68,
      "hit": false,
      "t": 138424.52141666785,
      "d": 410.9584999999497,
      "v": 65
    },
    {
      "midi": 76,
      "hit": false,
      "t": 138458.7679583345,
      "d": 376.71195833329693,
      "v": 55
    },
    {
      "midi": 94,
      "hit": false,
      "t": 138493.0145000003,
      "d": 171.23270833329298,
      "v": 76
    },
    {
      "midi": 85,
      "hit": false,
      "t": 138493.0145000003,
      "d": 410.9584999999206,
      "v": 95
    },
    {
      "midi": 82,
      "hit": false,
      "t": 138493.01450000115,
      "d": 342.46541666664416,
      "v": 70
    },
    {
      "midi": 102,
      "hit": false,
      "t": 138630.00066666695,
      "d": 171.23270833329298,
      "v": 80
    },
    {
      "midi": 100,
      "hit": false,
      "t": 138766.9868333336,
      "d": 171.23270833329298,
      "v": 78
    },
    {
      "midi": 67,
      "hit": false,
      "t": 138835.4799166678,
      "d": 342.46541666661506,
      "v": 70
    },
    {
      "midi": 75,
      "hit": false,
      "t": 138869.72645833445,
      "d": 308.2188749999623,
      "v": 50
    },
    {
      "midi": 99,
      "hit": false,
      "t": 138903.97300000023,
      "d": 171.23270833329298,
      "v": 76
    },
    {
      "midi": 82,
      "hit": false,
      "t": 138903.9730000011,
      "d": 273.9723333333095,
      "v": 75
    },
    {
      "midi": 94,
      "hit": false,
      "t": 139040.95916666687,
      "d": 171.23270833329298,
      "v": 74
    },
    {
      "midi": 85,
      "hit": false,
      "t": 139177.9453333335,
      "d": 171.23270833329298,
      "v": 72
    },
    {
      "midi": 56,
      "hit": false,
      "t": 139246.43841666775,
      "d": 410.9584999999497,
      "v": 65
    },
    {
      "midi": 64,
      "hit": false,
      "t": 139280.6849583344,
      "d": 376.71195833329693,
      "v": 55
    },
    {
      "midi": 82,
      "hit": false,
      "t": 139314.93150000015,
      "d": 171.23270833329298,
      "v": 70
    },
    {
      "midi": 73,
      "hit": false,
      "t": 139314.93150000015,
      "d": 410.9584999999206,
      "v": 90
    },
    {
      "midi": 70,
      "hit": false,
      "t": 139314.93150000105,
      "d": 342.46541666664416,
      "v": 70
    },
    {
      "midi": 90,
      "hit": false,
      "t": 139451.9176666668,
      "d": 171.23270833329298,
      "v": 68
    },
    {
      "midi": 88,
      "hit": false,
      "t": 139588.90383333343,
      "d": 171.23270833329298,
      "v": 66
    },
    {
      "midi": 55,
      "hit": false,
      "t": 139657.3969166677,
      "d": 342.46541666661506,
      "v": 75
    },
    {
      "midi": 63,
      "hit": false,
      "t": 139691.64345833435,
      "d": 308.2188749999623,
      "v": 55
    },
    {
      "midi": 87,
      "hit": false,
      "t": 139725.89000000007,
      "d": 171.23270833329298,
      "v": 80
    },
    {
      "midi": 70,
      "hit": false,
      "t": 139725.890000001,
      "d": 273.9723333333095,
      "v": 80
    },
    {
      "midi": 82,
      "hit": false,
      "t": 139862.8761666667,
      "d": 171.23270833329298,
      "v": 82
    },
    {
      "midi": 73,
      "hit": false,
      "t": 139999.86233333335,
      "d": 171.23270833329298,
      "v": 84
    },
    {
      "midi": 68,
      "hit": false,
      "t": 140034.10887500097,
      "d": 445.2050416665734,
      "v": 80
    },
    {
      "midi": 73,
      "hit": false,
      "t": 140068.35541666762,
      "d": 410.9584999999206,
      "v": 60
    },
    {
      "midi": 76,
      "hit": false,
      "t": 140102.60195833427,
      "d": 376.71195833326783,
      "v": 65
    },
    {
      "midi": 94,
      "hit": false,
      "t": 140136.8485,
      "d": 171.23270833329298,
      "v": 86
    },
    {
      "midi": 85,
      "hit": false,
      "t": 140136.8485,
      "d": 410.9584999999206,
      "v": 105
    },
    {
      "midi": 82,
      "hit": false,
      "t": 140136.84850000092,
      "d": 342.46541666661506,
      "v": 85
    },
    {
      "midi": 102,
      "hit": false,
      "t": 140273.83466666663,
      "d": 171.23270833329298,
      "v": 90
    },
    {
      "midi": 100,
      "hit": false,
      "t": 140410.82083333327,
      "d": 171.23270833329298,
      "v": 88
    },
    {
      "midi": 67,
      "hit": false,
      "t": 140445.0673750009,
      "d": 445.2050416666025,
      "v": 85
    },
    {
      "midi": 73,
      "hit": false,
      "t": 140479.31391666754,
      "d": 410.9584999999497,
      "v": 68
    },
    {
      "midi": 75,
      "hit": false,
      "t": 140513.5604583342,
      "d": 376.71195833329693,
      "v": 70
    },
    {
      "midi": 99,
      "hit": false,
      "t": 140547.8069999999,
      "d": 171.23270833329298,
      "v": 86
    },
    {
      "midi": 82,
      "hit": false,
      "t": 140547.80700000084,
      "d": 342.46541666664416,
      "v": 90
    },
    {
      "midi": 94,
      "hit": false,
      "t": 140684.79316666655,
      "d": 171.23270833329298,
      "v": 84
    },
    {
      "midi": 85,
      "hit": false,
      "t": 140821.7793333332,
      "d": 102.73962499998743,
      "v": 87
    },
    {
      "midi": 68,
      "hit": false,
      "t": 140856.02587500084,
      "d": 445.2050416666025,
      "v": 90
    },
    {
      "midi": 73,
      "hit": false,
      "t": 140890.2724166675,
      "d": 410.9584999999497,
      "v": 70
    },
    {
      "midi": 76,
      "hit": false,
      "t": 140924.51895833414,
      "d": 376.71195833329693,
      "v": 75
    },
    {
      "midi": 94,
      "hit": false,
      "t": 140958.76549999983,
      "d": 171.23270833332208,
      "v": 91
    },
    {
      "midi": 85,
      "hit": false,
      "t": 140958.76549999983,
      "d": 410.9584999999497,
      "v": 110
    },
    {
      "midi": 82,
      "hit": false,
      "t": 140958.7655000008,
      "d": 342.46541666664416,
      "v": 95
    },
    {
      "midi": 102,
      "hit": false,
      "t": 141095.7516666665,
      "d": 171.23270833329298,
      "v": 95
    },
    {
      "midi": 100,
      "hit": false,
      "t": 141232.73783333314,
      "d": 171.23270833329298,
      "v": 93
    },
    {
      "midi": 67,
      "hit": false,
      "t": 141266.9843750008,
      "d": 445.2050416666025,
      "v": 95
    },
    {
      "midi": 73,
      "hit": false,
      "t": 141301.23091666744,
      "d": 410.9584999999497,
      "v": 75
    },
    {
      "midi": 75,
      "hit": false,
      "t": 141335.4774583341,
      "d": 376.71195833329693,
      "v": 80
    },
    {
      "midi": 99,
      "hit": false,
      "t": 141369.72399999978,
      "d": 171.23270833329298,
      "v": 91
    },
    {
      "midi": 82,
      "hit": false,
      "t": 141369.72400000074,
      "d": 342.46541666664416,
      "v": 100
    },
    {
      "midi": 94,
      "hit": false,
      "t": 141506.71016666642,
      "d": 171.23270833329298,
      "v": 89
    },
    {
      "midi": 85,
      "hit": false,
      "t": 141643.69633333306,
      "d": 171.23270833329298,
      "v": 82
    },
    {
      "midi": 66,
      "hit": false,
      "t": 141677.94287500074,
      "d": 445.2050416666025,
      "v": 92
    },
    {
      "midi": 72,
      "hit": false,
      "t": 141712.1894166674,
      "d": 410.9584999999497,
      "v": 72
    },
    {
      "midi": 74,
      "hit": false,
      "t": 141746.43595833404,
      "d": 376.71195833329693,
      "v": 77
    },
    {
      "midi": 93,
      "hit": false,
      "t": 141780.6824999997,
      "d": 171.23270833329298,
      "v": 96
    },
    {
      "midi": 84,
      "hit": false,
      "t": 141780.6824999997,
      "d": 410.9584999999206,
      "v": 115
    },
    {
      "midi": 81,
      "hit": false,
      "t": 141780.6825000007,
      "d": 342.46541666664416,
      "v": 97
    },
    {
      "midi": 99,
      "hit": false,
      "t": 141917.66866666634,
      "d": 171.23270833329298,
      "v": 100
    },
    {
      "midi": 98,
      "hit": false,
      "t": 142054.65483333298,
      "d": 171.23270833329298,
      "v": 98
    },
    {
      "midi": 65,
      "hit": false,
      "t": 142088.90137500069,
      "d": 445.2050416666025,
      "v": 89
    },
    {
      "midi": 71,
      "hit": false,
      "t": 142123.14791666734,
      "d": 410.9584999999497,
      "v": 69
    },
    {
      "midi": 73,
      "hit": false,
      "t": 142157.394458334,
      "d": 376.71195833329693,
      "v": 74
    },
    {
      "midi": 97,
      "hit": false,
      "t": 142191.64099999962,
      "d": 171.23270833329298,
      "v": 96
    },
    {
      "midi": 80,
      "hit": false,
      "t": 142191.64100000064,
      "d": 342.46541666664416,
      "v": 94
    },
    {
      "midi": 92,
      "hit": false,
      "t": 142328.62716666627,
      "d": 171.23270833329298,
      "v": 94
    },
    {
      "midi": 83,
      "hit": false,
      "t": 142465.6133333329,
      "d": 171.23270833329298,
      "v": 92
    },
    {
      "midi": 64,
      "hit": false,
      "t": 142499.85987500063,
      "d": 445.2050416666025,
      "v": 86
    },
    {
      "midi": 70,
      "hit": false,
      "t": 142534.1064166673,
      "d": 410.9584999999497,
      "v": 66
    },
    {
      "midi": 72,
      "hit": false,
      "t": 142568.35295833394,
      "d": 376.71195833329693,
      "v": 71
    },
    {
      "midi": 91,
      "hit": false,
      "t": 142602.59949999955,
      "d": 171.23270833329298,
      "v": 90
    },
    {
      "midi": 82,
      "hit": false,
      "t": 142602.59949999955,
      "d": 410.9584999999206,
      "v": 110
    },
    {
      "midi": 79,
      "hit": false,
      "t": 142602.5995000006,
      "d": 342.46541666664416,
      "v": 91
    },
    {
      "midi": 97,
      "hit": false,
      "t": 142739.5856666662,
      "d": 171.23270833329298,
      "v": 95
    },
    {
      "midi": 96,
      "hit": false,
      "t": 142876.57183333283,
      "d": 171.23270833329298,
      "v": 93
    },
    {
      "midi": 63,
      "hit": false,
      "t": 142910.81837500058,
      "d": 445.2050416666025,
      "v": 83
    },
    {
      "midi": 69,
      "hit": false,
      "t": 142945.06491666724,
      "d": 410.9584999999497,
      "v": 63
    },
    {
      "midi": 71,
      "hit": false,
      "t": 142979.3114583339,
      "d": 376.71195833329693,
      "v": 68
    },
    {
      "midi": 95,
      "hit": false,
      "t": 143013.55799999947,
      "d": 171.23270833329298,
      "v": 91
    },
    {
      "midi": 78,
      "hit": false,
      "t": 143013.55800000054,
      "d": 342.46541666664416,
      "v": 88
    },
    {
      "midi": 90,
      "hit": false,
      "t": 143150.5441666661,
      "d": 171.23270833329298,
      "v": 89
    },
    {
      "midi": 81,
      "hit": false,
      "t": 143287.53033333275,
      "d": 171.23270833329298,
      "v": 87
    },
    {
      "midi": 62,
      "hit": false,
      "t": 143321.77687500053,
      "d": 445.2050416666025,
      "v": 80
    },
    {
      "midi": 68,
      "hit": false,
      "t": 143356.0234166672,
      "d": 410.9584999999497,
      "v": 60
    },
    {
      "midi": 70,
      "hit": false,
      "t": 143390.26995833384,
      "d": 376.71195833329693,
      "v": 65
    },
    {
      "midi": 89,
      "hit": false,
      "t": 143424.5164999994,
      "d": 171.23270833329298,
      "v": 85
    },
    {
      "midi": 80,
      "hit": false,
      "t": 143424.5164999994,
      "d": 410.9584999999206,
      "v": 105
    },
    {
      "midi": 77,
      "hit": false,
      "t": 143424.5165000005,
      "d": 342.46541666664416,
      "v": 85
    },
    {
      "midi": 95,
      "hit": false,
      "t": 143561.50266666603,
      "d": 171.23270833329298,
      "v": 90
    },
    {
      "midi": 94,
      "hit": false,
      "t": 143698.48883333267,
      "d": 171.23270833329298,
      "v": 88
    },
    {
      "midi": 61,
      "hit": false,
      "t": 143732.73537500048,
      "d": 445.2050416666025,
      "v": 77
    },
    {
      "midi": 67,
      "hit": false,
      "t": 143766.98191666714,
      "d": 410.9584999999497,
      "v": 57
    },
    {
      "midi": 69,
      "hit": false,
      "t": 143801.2284583338,
      "d": 376.71195833329693,
      "v": 62
    },
    {
      "midi": 93,
      "hit": false,
      "t": 143835.4749999993,
      "d": 171.23270833329298,
      "v": 86
    },
    {
      "midi": 76,
      "hit": false,
      "t": 143835.47500000044,
      "d": 342.46541666664416,
      "v": 82
    },
    {
      "midi": 88,
      "hit": false,
      "t": 143972.46116666595,
      "d": 171.23270833329298,
      "v": 84
    },
    {
      "midi": 79,
      "hit": false,
      "t": 144109.4473333326,
      "d": 171.23270833329298,
      "v": 82
    },
    {
      "midi": 60,
      "hit": false,
      "t": 144143.69387500043,
      "d": 445.2050416666316,
      "v": 74
    },
    {
      "midi": 66,
      "hit": false,
      "t": 144177.9404166671,
      "d": 410.9584999999788,
      "v": 54
    },
    {
      "midi": 68,
      "hit": false,
      "t": 144212.18695833374,
      "d": 376.71195833332604,
      "v": 59
    },
    {
      "midi": 87,
      "hit": false,
      "t": 144246.43349999923,
      "d": 171.23270833329298,
      "v": 80
    },
    {
      "midi": 78,
      "hit": false,
      "t": 144246.43349999923,
      "d": 410.9584999999206,
      "v": 100
    },
    {
      "midi": 75,
      "hit": false,
      "t": 144246.4335000004,
      "d": 342.46541666667326,
      "v": 79
    },
    {
      "midi": 93,
      "hit": false,
      "t": 144383.41966666587,
      "d": 171.23270833329298,
      "v": 80
    },
    {
      "midi": 92,
      "hit": false,
      "t": 144520.4058333325,
      "d": 171.23270833329298,
      "v": 78
    },
    {
      "midi": 91,
      "hit": false,
      "t": 144657.39199999915,
      "d": 171.23270833329298,
      "v": 76
    },
    {
      "midi": 59,
      "hit": false,
      "t": 144657.3920000004,
      "d": 171.23270833332208,
      "v": 76
    },
    {
      "midi": 77,
      "hit": false,
      "t": 144794.3781666658,
      "d": 171.23270833329298,
      "v": 72
    },
    {
      "midi": 74,
      "hit": false,
      "t": 144794.37816666707,
      "d": 171.23270833329298,
      "v": 72
    },
    {
      "midi": 90,
      "hit": false,
      "t": 144931.36433333243,
      "d": 171.23270833329298,
      "v": 74
    },
    {
      "midi": 58,
      "hit": false,
      "t": 144931.3643333337,
      "d": 171.23270833329298,
      "v": 74
    },
    {
      "midi": 76,
      "hit": false,
      "t": 145068.35049999907,
      "d": 171.23270833329298,
      "v": 70
    },
    {
      "midi": 73,
      "hit": false,
      "t": 145068.35050000035,
      "d": 171.23270833329298,
      "v": 70
    },
    {
      "midi": 89,
      "hit": false,
      "t": 145205.3366666657,
      "d": 171.23270833329298,
      "v": 72
    },
    {
      "midi": 57,
      "hit": false,
      "t": 145205.336666667,
      "d": 171.23270833329298,
      "v": 72
    },
    {
      "midi": 75,
      "hit": false,
      "t": 145342.32283333235,
      "d": 171.23270833329298,
      "v": 68
    },
    {
      "midi": 72,
      "hit": false,
      "t": 145342.32283333363,
      "d": 171.23270833329298,
      "v": 68
    },
    {
      "midi": 88,
      "hit": false,
      "t": 145479.308999999,
      "d": 171.23270833329298,
      "v": 70
    },
    {
      "midi": 56,
      "hit": false,
      "t": 145479.30900000027,
      "d": 171.23270833329298,
      "v": 70
    },
    {
      "midi": 74,
      "hit": false,
      "t": 145616.29516666563,
      "d": 171.23270833329298,
      "v": 66
    },
    {
      "midi": 71,
      "hit": false,
      "t": 145616.2951666669,
      "d": 171.23270833329298,
      "v": 66
    },
    {
      "midi": 87,
      "hit": false,
      "t": 145753.28133333227,
      "d": 171.23270833329298,
      "v": 68
    },
    {
      "midi": 55,
      "hit": false,
      "t": 145753.28133333355,
      "d": 171.23270833329298,
      "v": 68
    },
    {
      "midi": 73,
      "hit": false,
      "t": 145890.2674999989,
      "d": 171.23270833329298,
      "v": 64
    },
    {
      "midi": 70,
      "hit": false,
      "t": 145890.2675000002,
      "d": 171.23270833329298,
      "v": 64
    },
    {
      "midi": 86,
      "hit": false,
      "t": 146027.25366666555,
      "d": 171.23270833329298,
      "v": 66
    },
    {
      "midi": 54,
      "hit": false,
      "t": 146027.25366666683,
      "d": 171.23270833329298,
      "v": 66
    },
    {
      "midi": 72,
      "hit": false,
      "t": 146164.2398333322,
      "d": 171.23270833329298,
      "v": 62
    },
    {
      "midi": 69,
      "hit": false,
      "t": 146164.23983333347,
      "d": 171.23270833329298,
      "v": 62
    },
    {
      "midi": 85,
      "hit": false,
      "t": 146301.22599999883,
      "d": 171.23270833329298,
      "v": 64
    },
    {
      "midi": 53,
      "hit": false,
      "t": 146301.2260000001,
      "d": 171.23270833329298,
      "v": 64
    },
    {
      "midi": 71,
      "hit": false,
      "t": 146438.21216666547,
      "d": 171.23270833329298,
      "v": 60
    },
    {
      "midi": 68,
      "hit": false,
      "t": 146438.21216666675,
      "d": 171.23270833329298,
      "v": 60
    },
    {
      "midi": 84,
      "hit": false,
      "t": 146575.1983333321,
      "d": 171.23270833329298,
      "v": 62
    },
    {
      "midi": 52,
      "hit": false,
      "t": 146575.1983333334,
      "d": 171.23270833329298,
      "v": 62
    },
    {
      "midi": 70,
      "hit": false,
      "t": 146712.18449999875,
      "d": 171.23270833329298,
      "v": 58
    },
    {
      "midi": 67,
      "hit": false,
      "t": 146712.18450000003,
      "d": 171.23270833329298,
      "v": 58
    },
    {
      "midi": 83,
      "hit": false,
      "t": 146849.1706666654,
      "d": 171.23270833329298,
      "v": 60
    },
    {
      "midi": 51,
      "hit": false,
      "t": 146849.17066666667,
      "d": 171.23270833329298,
      "v": 60
    },
    {
      "midi": 69,
      "hit": false,
      "t": 146986.15683333203,
      "d": 171.23270833329298,
      "v": 56
    },
    {
      "midi": 66,
      "hit": false,
      "t": 146986.1568333333,
      "d": 171.23270833329298,
      "v": 56
    },
    {
      "midi": 82,
      "hit": false,
      "t": 147123.14299999867,
      "d": 171.23270833329298,
      "v": 58
    },
    {
      "midi": 50,
      "hit": false,
      "t": 147123.14299999995,
      "d": 171.23270833329298,
      "v": 58
    },
    {
      "midi": 68,
      "hit": false,
      "t": 147260.1291666653,
      "d": 171.23270833329298,
      "v": 54
    },
    {
      "midi": 65,
      "hit": false,
      "t": 147260.1291666666,
      "d": 171.23270833329298,
      "v": 54
    },
    {
      "midi": 81,
      "hit": false,
      "t": 147397.11533333195,
      "d": 171.23270833329298,
      "v": 56
    },
    {
      "midi": 49,
      "hit": false,
      "t": 147397.11533333323,
      "d": 171.23270833329298,
      "v": 56
    },
    {
      "midi": 67,
      "hit": false,
      "t": 147534.1014999986,
      "d": 171.23270833329298,
      "v": 52
    },
    {
      "midi": 64,
      "hit": false,
      "t": 147534.10149999987,
      "d": 171.23270833329298,
      "v": 52
    },
    {
      "midi": 80,
      "hit": false,
      "t": 147671.08766666523,
      "d": 171.23270833329298,
      "v": 54
    },
    {
      "midi": 48,
      "hit": false,
      "t": 147671.0876666665,
      "d": 171.23270833329298,
      "v": 54
    },
    {
      "midi": 66,
      "hit": false,
      "t": 147808.07383333187,
      "d": 171.23270833329298,
      "v": 50
    },
    {
      "midi": 63,
      "hit": false,
      "t": 147808.07383333315,
      "d": 171.23270833329298,
      "v": 50
    },
    {
      "midi": 79,
      "hit": false,
      "t": 147945.0599999985,
      "d": 171.23270833329298,
      "v": 52
    },
    {
      "midi": 47,
      "hit": false,
      "t": 147945.0599999998,
      "d": 171.23270833329298,
      "v": 52
    },
    {
      "midi": 65,
      "hit": false,
      "t": 148082.04616666515,
      "d": 171.23270833329298,
      "v": 48
    },
    {
      "midi": 62,
      "hit": false,
      "t": 148082.04616666643,
      "d": 171.23270833329298,
      "v": 48
    },
    {
      "midi": 78,
      "hit": false,
      "t": 148219.0323333318,
      "d": 171.23270833329298,
      "v": 50
    },
    {
      "midi": 46,
      "hit": false,
      "t": 148219.03233333307,
      "d": 171.23270833329298,
      "v": 50
    },
    {
      "midi": 64,
      "hit": false,
      "t": 148356.01849999843,
      "d": 171.23270833329298,
      "v": 46
    },
    {
      "midi": 61,
      "hit": false,
      "t": 148356.0184999997,
      "d": 171.23270833329298,
      "v": 46
    },
    {
      "midi": 77,
      "hit": false,
      "t": 148493.00466666507,
      "d": 171.23270833329298,
      "v": 48
    },
    {
      "midi": 45,
      "hit": false,
      "t": 148493.00466666635,
      "d": 171.23270833329298,
      "v": 48
    },
    {
      "midi": 63,
      "hit": false,
      "t": 148629.9908333317,
      "d": 171.23270833329298,
      "v": 44
    },
    {
      "midi": 60,
      "hit": false,
      "t": 148629.990833333,
      "d": 171.23270833329298,
      "v": 44
    },
    {
      "midi": 76,
      "hit": false,
      "t": 148766.97699999835,
      "d": 171.23270833329298,
      "v": 46
    },
    {
      "midi": 44,
      "hit": false,
      "t": 148766.97699999964,
      "d": 171.23270833329298,
      "v": 46
    },
    {
      "midi": 62,
      "hit": false,
      "t": 148903.963166665,
      "d": 171.23270833329298,
      "v": 42
    },
    {
      "midi": 59,
      "hit": false,
      "t": 148903.96316666628,
      "d": 171.23270833329298,
      "v": 42
    },
    {
      "midi": 75,
      "hit": false,
      "t": 149040.94933333163,
      "d": 171.23270833329298,
      "v": 44
    },
    {
      "midi": 43,
      "hit": false,
      "t": 149040.94933333292,
      "d": 171.23270833329298,
      "v": 44
    },
    {
      "midi": 61,
      "hit": false,
      "t": 149177.93549999828,
      "d": 171.23270833329298,
      "v": 40
    },
    {
      "midi": 58,
      "hit": false,
      "t": 149177.93549999956,
      "d": 171.23270833329298,
      "v": 40
    },
    {
      "midi": 74,
      "hit": false,
      "t": 149314.92166666492,
      "d": 171.23270833329298,
      "v": 48
    },
    {
      "midi": 43,
      "hit": false,
      "t": 149314.9216666662,
      "d": 171.23270833329298,
      "v": 48
    },
    {
      "midi": 60,
      "hit": false,
      "t": 149451.90783333156,
      "d": 171.23270833326387,
      "v": 36
    },
    {
      "midi": 58,
      "hit": false,
      "t": 149451.90783333284,
      "d": 273.9723333332804,
      "v": 36
    },
    {
      "midi": 61,
      "hit": false,
      "t": 149520.40091666486,
      "d": 205.47924999994575,
      "v": 40
    },
    {
      "midi": 43,
      "hit": false,
      "t": 149520.40091666614,
      "d": 205.47924999997485,
      "v": 50
    },
    {
      "midi": 70,
      "hit": false,
      "t": 149554.6474583315,
      "d": 171.23270833329298,
      "v": 30
    },
    {
      "midi": 51,
      "hit": false,
      "t": 149554.6474583328,
      "d": 171.23270833332208,
      "v": 30
    },
    {
      "midi": 75,
      "hit": false,
      "t": 149588.89399999817,
      "d": 136.9861666666402,
      "v": 55
    },
    {
      "midi": 87,
      "hit": false,
      "t": 150205.33174999815,
      "d": 136.9861666666693,
      "v": 70
    },
    {
      "midi": 82,
      "hit": false,
      "t": 150410.81099999815,
      "d": 136.9861666666693,
      "v": 68
    },
    {
      "midi": 75,
      "hit": false,
      "t": 150616.29024999947,
      "d": 136.9861666666693,
      "v": 65
    },
    {
      "midi": 70,
      "hit": false,
      "t": 150821.76949999947,
      "d": 136.9861666666693,
      "v": 63
    },
    {
      "midi": 63,
      "hit": false,
      "t": 151027.24874999817,
      "d": 136.9861666666693,
      "v": 50
    },
    {
      "midi": 60,
      "hit": false,
      "t": 151232.72799999817,
      "d": 136.9861666666693,
      "v": 40
    },
    {
      "midi": 63,
      "hit": false,
      "t": 151232.72799999817,
      "d": 136.9861666666693,
      "v": 30
    },
    {
      "midi": 72,
      "hit": false,
      "t": 151232.72799999817,
      "d": 136.9861666666693,
      "v": 50
    },
    {
      "midi": 42,
      "hit": false,
      "t": 151232.72799999948,
      "d": 136.9861666666693,
      "v": 50
    },
    {
      "midi": 56,
      "hit": false,
      "t": 151232.72799999948,
      "d": 136.9861666666693,
      "v": 30
    },
    {
      "midi": 92,
      "hit": false,
      "t": 151849.16574999815,
      "d": 136.9861666666402,
      "v": 65
    },
    {
      "midi": 84,
      "hit": false,
      "t": 152054.64499999813,
      "d": 136.9861666666693,
      "v": 63
    },
    {
      "midi": 80,
      "hit": false,
      "t": 152260.12424999947,
      "d": 136.9861666666402,
      "v": 50
    },
    {
      "midi": 72,
      "hit": false,
      "t": 152465.60349999944,
      "d": 136.9861666666693,
      "v": 58
    },
    {
      "midi": 68,
      "hit": false,
      "t": 152671.0827499981,
      "d": 136.9861666666402,
      "v": 80
    },
    {
      "midi": 73,
      "hit": false,
      "t": 152876.56199999808,
      "d": 410.9584999999788,
      "v": 80
    },
    {
      "midi": 61,
      "hit": false,
      "t": 153082.0412499981,
      "d": 136.9861666666402,
      "v": 50
    },
    {
      "midi": 68,
      "hit": false,
      "t": 153082.0412499981,
      "d": 136.9861666666402,
      "v": 50
    },
    {
      "midi": 53,
      "hit": false,
      "t": 153082.04124999943,
      "d": 136.9861666666402,
      "v": 55
    },
    {
      "midi": 56,
      "hit": false,
      "t": 153082.04124999943,
      "d": 136.9861666666402,
      "v": 45
    },
    {
      "midi": 61,
      "hit": false,
      "t": 153287.52049999806,
      "d": 136.9861666666693,
      "v": 55
    },
    {
      "midi": 68,
      "hit": false,
      "t": 153287.52049999806,
      "d": 136.9861666666693,
      "v": 55
    },
    {
      "midi": 53,
      "hit": false,
      "t": 153287.5204999994,
      "d": 136.9861666666693,
      "v": 60
    },
    {
      "midi": 56,
      "hit": false,
      "t": 153287.5204999994,
      "d": 136.9861666666693,
      "v": 50
    },
    {
      "midi": 73,
      "hit": false,
      "t": 153492.99974999807,
      "d": 205.47925000000396,
      "v": 70
    },
    {
      "midi": 72,
      "hit": false,
      "t": 153698.47899999807,
      "d": 410.9585000000079,
      "v": 75
    },
    {
      "midi": 60,
      "hit": false,
      "t": 153903.95824999808,
      "d": 136.9861666666693,
      "v": 45
    },
    {
      "midi": 68,
      "hit": false,
      "t": 153903.95824999808,
      "d": 136.9861666666693,
      "v": 45
    },
    {
      "midi": 51,
      "hit": false,
      "t": 153903.9582499994,
      "d": 136.9861666666693,
      "v": 50
    },
    {
      "midi": 56,
      "hit": false,
      "t": 153903.9582499994,
      "d": 136.9861666666693,
      "v": 40
    },
    {
      "midi": 60,
      "hit": false,
      "t": 154109.43749999808,
      "d": 136.9861666666402,
      "v": 50
    },
    {
      "midi": 68,
      "hit": false,
      "t": 154109.43749999808,
      "d": 136.9861666666402,
      "v": 50
    },
    {
      "midi": 51,
      "hit": false,
      "t": 154109.43749999942,
      "d": 136.9861666666402,
      "v": 55
    },
    {
      "midi": 56,
      "hit": false,
      "t": 154109.43749999942,
      "d": 136.9861666666402,
      "v": 45
    },
    {
      "midi": 72,
      "hit": false,
      "t": 154314.91674999805,
      "d": 205.47925000000396,
      "v": 80
    },
    {
      "midi": 77,
      "hit": false,
      "t": 154520.39599999806,
      "d": 445.2050416666316,
      "v": 85
    },
    {
      "midi": 65,
      "hit": false,
      "t": 154725.87524999803,
      "d": 136.9861666666693,
      "v": 50
    },
    {
      "midi": 68,
      "hit": false,
      "t": 154725.87524999803,
      "d": 136.9861666666693,
      "v": 50
    },
    {
      "midi": 50,
      "hit": false,
      "t": 154725.87524999937,
      "d": 136.9861666666693,
      "v": 55
    },
    {
      "midi": 58,
      "hit": false,
      "t": 154725.87524999937,
      "d": 136.9861666666693,
      "v": 45
    },
    {
      "midi": 65,
      "hit": false,
      "t": 154931.35449999804,
      "d": 136.9861666666402,
      "v": 45
    },
    {
      "midi": 68,
      "hit": false,
      "t": 154931.35449999804,
      "d": 136.9861666666402,
      "v": 45
    },
    {
      "midi": 70,
      "hit": false,
      "t": 154931.35449999804,
      "d": 445.2050416666316,
      "v": 65
    },
    {
      "midi": 50,
      "hit": false,
      "t": 154931.35449999938,
      "d": 136.9861666666693,
      "v": 50
    },
    {
      "midi": 58,
      "hit": false,
      "t": 154931.35449999938,
      "d": 136.9861666666693,
      "v": 40
    },
    {
      "midi": 65,
      "hit": false,
      "t": 155136.833749998,
      "d": 136.9861666666693,
      "v": 40
    },
    {
      "midi": 68,
      "hit": false,
      "t": 155136.833749998,
      "d": 136.9861666666693,
      "v": 40
    },
    {
      "midi": 50,
      "hit": false,
      "t": 155136.83374999938,
      "d": 136.9861666666693,
      "v": 45
    },
    {
      "midi": 58,
      "hit": false,
      "t": 155136.83374999938,
      "d": 136.9861666666693,
      "v": 35
    },
    {
      "midi": 63,
      "hit": false,
      "t": 155753.271499998,
      "d": 136.9861666666402,
      "v": 40
    },
    {
      "midi": 67,
      "hit": false,
      "t": 155753.271499998,
      "d": 136.9861666666402,
      "v": 40
    },
    {
      "midi": 70,
      "hit": false,
      "t": 155753.271499998,
      "d": 445.2050416666316,
      "v": 72
    },
    {
      "midi": 49,
      "hit": false,
      "t": 155753.2714999994,
      "d": 136.9861666666402,
      "v": 45
    },
    {
      "midi": 55,
      "hit": false,
      "t": 155753.2714999994,
      "d": 136.9861666666402,
      "v": 35
    },
    {
      "midi": 58,
      "hit": false,
      "t": 155753.2714999994,
      "d": 136.9861666666402,
      "v": 30
    },
    {
      "midi": 63,
      "hit": false,
      "t": 155958.75074999797,
      "d": 136.9861666666693,
      "v": 45
    },
    {
      "midi": 67,
      "hit": false,
      "t": 155958.75074999797,
      "d": 136.9861666666693,
      "v": 45
    },
    {
      "midi": 49,
      "hit": false,
      "t": 155958.75074999937,
      "d": 136.9861666666693,
      "v": 50
    },
    {
      "midi": 55,
      "hit": false,
      "t": 155958.75074999937,
      "d": 136.9861666666693,
      "v": 40
    },
    {
      "midi": 58,
      "hit": false,
      "t": 155958.75074999937,
      "d": 136.9861666666693,
      "v": 35
    },
    {
      "midi": 63,
      "hit": false,
      "t": 156164.22999999797,
      "d": 136.9861666666402,
      "v": 50
    },
    {
      "midi": 68,
      "hit": false,
      "t": 156164.22999999797,
      "d": 136.9861666666402,
      "v": 50
    },
    {
      "midi": 75,
      "hit": false,
      "t": 156164.22999999797,
      "d": 1267.1220416666183,
      "v": 80
    },
    {
      "midi": 48,
      "hit": false,
      "t": 156164.22999999937,
      "d": 136.9861666666402,
      "v": 55
    },
    {
      "midi": 51,
      "hit": false,
      "t": 156164.22999999937,
      "d": 136.9861666666402,
      "v": 45
    },
    {
      "midi": 56,
      "hit": false,
      "t": 156164.22999999937,
      "d": 136.9861666666402,
      "v": 40
    },
    {
      "midi": 63,
      "hit": false,
      "t": 156369.70924999795,
      "d": 136.9861666666693,
      "v": 30
    },
    {
      "midi": 68,
      "hit": false,
      "t": 156369.70924999795,
      "d": 136.9861666666693,
      "v": 30
    },
    {
      "midi": 48,
      "hit": false,
      "t": 156369.70924999935,
      "d": 136.9861666666693,
      "v": 35
    },
    {
      "midi": 51,
      "hit": false,
      "t": 156369.70924999935,
      "d": 136.9861666666693,
      "v": 25
    },
    {
      "midi": 56,
      "hit": false,
      "t": 156369.70924999935,
      "d": 136.9861666666693,
      "v": 20
    },
    {
      "midi": 63,
      "hit": false,
      "t": 156575.18849999795,
      "d": 136.9861666666693,
      "v": 34
    },
    {
      "midi": 68,
      "hit": false,
      "t": 156575.18849999795,
      "d": 136.9861666666693,
      "v": 34
    },
    {
      "midi": 48,
      "hit": false,
      "t": 156575.18849999935,
      "d": 136.9861666666693,
      "v": 39
    },
    {
      "midi": 51,
      "hit": false,
      "t": 156575.18849999935,
      "d": 136.9861666666693,
      "v": 29
    },
    {
      "midi": 56,
      "hit": false,
      "t": 156575.18849999935,
      "d": 136.9861666666693,
      "v": 24
    },
    {
      "midi": 63,
      "hit": false,
      "t": 156780.66774999796,
      "d": 136.9861666666693,
      "v": 38
    },
    {
      "midi": 68,
      "hit": false,
      "t": 156780.66774999796,
      "d": 136.9861666666693,
      "v": 38
    },
    {
      "midi": 48,
      "hit": false,
      "t": 156780.66774999935,
      "d": 136.9861666666693,
      "v": 43
    },
    {
      "midi": 51,
      "hit": false,
      "t": 156780.66774999935,
      "d": 136.9861666666693,
      "v": 33
    },
    {
      "midi": 56,
      "hit": false,
      "t": 156780.66774999935,
      "d": 136.9861666666693,
      "v": 28
    },
    {
      "midi": 63,
      "hit": false,
      "t": 156986.14699999796,
      "d": 136.9861666666402,
      "v": 42
    },
    {
      "midi": 68,
      "hit": false,
      "t": 156986.14699999796,
      "d": 136.9861666666402,
      "v": 42
    },
    {
      "midi": 48,
      "hit": false,
      "t": 156986.14699999936,
      "d": 136.9861666666402,
      "v": 47
    },
    {
      "midi": 51,
      "hit": false,
      "t": 156986.14699999936,
      "d": 136.9861666666402,
      "v": 37
    },
    {
      "midi": 56,
      "hit": false,
      "t": 156986.14699999936,
      "d": 136.9861666666402,
      "v": 32
    },
    {
      "midi": 63,
      "hit": false,
      "t": 157191.62624999793,
      "d": 136.9861666666693,
      "v": 46
    },
    {
      "midi": 68,
      "hit": false,
      "t": 157191.62624999793,
      "d": 136.9861666666693,
      "v": 46
    },
    {
      "midi": 48,
      "hit": false,
      "t": 157191.62624999933,
      "d": 136.9861666666693,
      "v": 46
    },
    {
      "midi": 51,
      "hit": false,
      "t": 157191.62624999933,
      "d": 136.9861666666693,
      "v": 41
    },
    {
      "midi": 56,
      "hit": false,
      "t": 157191.62624999933,
      "d": 136.9861666666693,
      "v": 36
    },
    {
      "midi": 64,
      "hit": false,
      "t": 157397.10549999794,
      "d": 136.9861666666402,
      "v": 40
    },
    {
      "midi": 68,
      "hit": false,
      "t": 157397.10549999794,
      "d": 136.9861666666402,
      "v": 40
    },
    {
      "midi": 76,
      "hit": false,
      "t": 157397.10549999794,
      "d": 445.2050416666316,
      "v": 75
    },
    {
      "midi": 48,
      "hit": false,
      "t": 157397.10549999934,
      "d": 136.9861666666693,
      "v": 45
    },
    {
      "midi": 54,
      "hit": false,
      "t": 157397.10549999934,
      "d": 136.9861666666693,
      "v": 35
    },
    {
      "midi": 56,
      "hit": false,
      "t": 157397.10549999934,
      "d": 136.9861666666693,
      "v": 30
    },
    {
      "midi": 64,
      "hit": false,
      "t": 157602.5847499979,
      "d": 136.9861666666693,
      "v": 45
    },
    {
      "midi": 68,
      "hit": false,
      "t": 157602.5847499979,
      "d": 136.9861666666693,
      "v": 45
    },
    {
      "midi": 48,
      "hit": false,
      "t": 157602.58474999934,
      "d": 136.9861666666693,
      "v": 50
    },
    {
      "midi": 54,
      "hit": false,
      "t": 157602.58474999934,
      "d": 136.9861666666693,
      "v": 40
    },
    {
      "midi": 56,
      "hit": false,
      "t": 157602.58474999934,
      "d": 136.9861666666693,
      "v": 35
    },
    {
      "midi": 65,
      "hit": false,
      "t": 157808.06399999792,
      "d": 136.9861666666402,
      "v": 50
    },
    {
      "midi": 68,
      "hit": false,
      "t": 157808.06399999792,
      "d": 136.9861666666402,
      "v": 50
    },
    {
      "midi": 77,
      "hit": false,
      "t": 157808.06399999792,
      "d": 445.2050416666025,
      "v": 80
    },
    {
      "midi": 49,
      "hit": false,
      "t": 157808.06399999934,
      "d": 136.9861666666402,
      "v": 55
    },
    {
      "midi": 53,
      "hit": false,
      "t": 157808.06399999934,
      "d": 136.9861666666402,
      "v": 45
    },
    {
      "midi": 56,
      "hit": false,
      "t": 157808.06399999934,
      "d": 136.9861666666402,
      "v": 40
    },
    {
      "midi": 65,
      "hit": false,
      "t": 158013.54324999786,
      "d": 136.9861666666693,
      "v": 40
    },
    {
      "midi": 68,
      "hit": false,
      "t": 158013.54324999786,
      "d": 136.9861666666693,
      "v": 40
    },
    {
      "midi": 49,
      "hit": false,
      "t": 158013.5432499993,
      "d": 136.9861666666693,
      "v": 45
    },
    {
      "midi": 53,
      "hit": false,
      "t": 158013.5432499993,
      "d": 136.9861666666693,
      "v": 35
    },
    {
      "midi": 56,
      "hit": false,
      "t": 158013.5432499993,
      "d": 136.9861666666693,
      "v": 30
    },
    {
      "midi": 61,
      "hit": false,
      "t": 158219.02249999787,
      "d": 136.9861666666402,
      "v": 45
    },
    {
      "midi": 68,
      "hit": false,
      "t": 158219.02249999787,
      "d": 136.9861666666402,
      "v": 45
    },
    {
      "midi": 73,
      "hit": false,
      "t": 158219.02249999787,
      "d": 342.46541666664416,
      "v": 75
    },
    {
      "midi": 41,
      "hit": false,
      "t": 158219.0224999993,
      "d": 136.9861666666693,
      "v": 50
    },
    {
      "midi": 56,
      "hit": false,
      "t": 158219.0224999993,
      "d": 136.9861666666693,
      "v": 40
    },
    {
      "midi": 61,
      "hit": false,
      "t": 158424.50174999784,
      "d": 136.9861666666693,
      "v": 35
    },
    {
      "midi": 68,
      "hit": false,
      "t": 158424.50174999784,
      "d": 136.9861666666693,
      "v": 35
    },
    {
      "midi": 41,
      "hit": false,
      "t": 158424.5017499993,
      "d": 136.9861666666693,
      "v": 40
    },
    {
      "midi": 56,
      "hit": false,
      "t": 158424.5017499993,
      "d": 136.9861666666693,
      "v": 30
    },
    {
      "midi": 60,
      "hit": false,
      "t": 158629.98099999785,
      "d": 136.9861666666693,
      "v": 50
    },
    {
      "midi": 68,
      "hit": false,
      "t": 158629.98099999785,
      "d": 136.9861666666693,
      "v": 50
    },
    {
      "midi": 72,
      "hit": false,
      "t": 158629.98099999785,
      "d": 342.46541666667326,
      "v": 80
    },
    {
      "midi": 44,
      "hit": false,
      "t": 158629.9809999993,
      "d": 136.9861666666693,
      "v": 55
    },
    {
      "midi": 51,
      "hit": false,
      "t": 158629.9809999993,
      "d": 136.9861666666693,
      "v": 45
    },
    {
      "midi": 56,
      "hit": false,
      "t": 158629.9809999993,
      "d": 136.9861666666693,
      "v": 40
    },
    {
      "midi": 60,
      "hit": false,
      "t": 158835.46024999785,
      "d": 136.9861666666693,
      "v": 40
    },
    {
      "midi": 68,
      "hit": false,
      "t": 158835.46024999785,
      "d": 136.9861666666693,
      "v": 40
    },
    {
      "midi": 44,
      "hit": false,
      "t": 158835.4602499993,
      "d": 136.9861666666693,
      "v": 45
    },
    {
      "midi": 51,
      "hit": false,
      "t": 158835.4602499993,
      "d": 136.9861666666693,
      "v": 35
    },
    {
      "midi": 56,
      "hit": false,
      "t": 158835.4602499993,
      "d": 136.9861666666693,
      "v": 30
    },
    {
      "midi": 60,
      "hit": false,
      "t": 159040.93949999785,
      "d": 136.9861666666693,
      "v": 55
    },
    {
      "midi": 68,
      "hit": false,
      "t": 159040.93949999785,
      "d": 136.9861666666693,
      "v": 55
    },
    {
      "midi": 75,
      "hit": false,
      "t": 159040.93949999785,
      "d": 342.46541666664416,
      "v": 85
    },
    {
      "midi": 44,
      "hit": false,
      "t": 159040.9394999993,
      "d": 136.9861666666693,
      "v": 60
    },
    {
      "midi": 54,
      "hit": false,
      "t": 159040.9394999993,
      "d": 136.9861666666693,
      "v": 50
    },
    {
      "midi": 56,
      "hit": false,
      "t": 159040.9394999993,
      "d": 136.9861666666693,
      "v": 45
    },
    {
      "midi": 60,
      "hit": false,
      "t": 159246.41874999786,
      "d": 136.9861666666402,
      "v": 45
    },
    {
      "midi": 68,
      "hit": false,
      "t": 159246.41874999786,
      "d": 136.9861666666402,
      "v": 45
    },
    {
      "midi": 44,
      "hit": false,
      "t": 159246.4187499993,
      "d": 136.9861666666402,
      "v": 50
    },
    {
      "midi": 54,
      "hit": false,
      "t": 159246.4187499993,
      "d": 136.9861666666402,
      "v": 40
    },
    {
      "midi": 56,
      "hit": false,
      "t": 159246.4187499993,
      "d": 136.9861666666402,
      "v": 35
    },
    {
      "midi": 61,
      "hit": false,
      "t": 159451.89799999783,
      "d": 821.9169999999867,
      "v": 70
    },
    {
      "midi": 65,
      "hit": false,
      "t": 159451.89799999783,
      "d": 821.9169999999867,
      "v": 60
    },
    {
      "midi": 73,
      "hit": false,
      "t": 159451.89799999783,
      "d": 821.9169999999867,
      "v": 90
    },
    {
      "midi": 37,
      "hit": false,
      "t": 159588.88416666593,
      "d": 171.23270833332208,
      "v": 70
    },
    {
      "midi": 44,
      "hit": false,
      "t": 159725.8703333326,
      "d": 171.23270833329298,
      "v": 50
    },
    {
      "midi": 49,
      "hit": false,
      "t": 159862.85649999924,
      "d": 171.23270833329298,
      "v": 53
    },
    {
      "midi": 53,
      "hit": false,
      "t": 159999.84266666588,
      "d": 171.23270833329298,
      "v": 56
    },
    {
      "midi": 54,
      "hit": false,
      "t": 160136.82883333252,
      "d": 171.23270833329298,
      "v": 59
    },
    {
      "midi": 55,
      "hit": false,
      "t": 160273.81499999916,
      "d": 171.23270833329298,
      "v": 62
    },
    {
      "midi": 56,
      "hit": false,
      "t": 160410.8011666658,
      "d": 171.23270833329298,
      "v": 65
    },
    {
      "midi": 61,
      "hit": false,
      "t": 160547.78733333244,
      "d": 171.23270833329298,
      "v": 68
    },
    {
      "midi": 65,
      "hit": false,
      "t": 160684.77349999908,
      "d": 171.23270833329298,
      "v": 71
    },
    {
      "midi": 68,
      "hit": false,
      "t": 160821.75966666572,
      "d": 102.73962499998743,
      "v": 74
    },
    {
      "midi": 73,
      "hit": false,
      "t": 160958.74583333236,
      "d": 171.23270833332208,
      "v": 90
    },
    {
      "midi": 66,
      "hit": false,
      "t": 161095.7319999978,
      "d": 273.9723333333095,
      "v": 60
    },
    {
      "midi": 70,
      "hit": false,
      "t": 161095.7319999978,
      "d": 273.9723333333095,
      "v": 100
    },
    {
      "midi": 42,
      "hit": false,
      "t": 161232.71816666567,
      "d": 171.23270833332208,
      "v": 60
    },
    {
      "midi": 49,
      "hit": false,
      "t": 161369.70433333234,
      "d": 171.23270833329298,
      "v": 62
    },
    {
      "midi": 61,
      "hit": false,
      "t": 161506.69049999779,
      "d": 273.9723333333386,
      "v": 50
    },
    {
      "midi": 66,
      "hit": false,
      "t": 161506.69049999779,
      "d": 273.9723333333386,
      "v": 55
    },
    {
      "midi": 70,
      "hit": false,
      "t": 161506.69049999779,
      "d": 273.9723333333386,
      "v": 90
    },
    {
      "midi": 58,
      "hit": false,
      "t": 161506.69049999898,
      "d": 171.23270833329298,
      "v": 65
    },
    {
      "midi": 59,
      "hit": false,
      "t": 161643.67666666562,
      "d": 171.23270833329298,
      "v": 62
    },
    {
      "midi": 60,
      "hit": false,
      "t": 161780.66283333226,
      "d": 171.23270833329298,
      "v": 65
    },
    {
      "midi": 61,
      "hit": false,
      "t": 161917.6489999989,
      "d": 273.9723333333095,
      "v": 55
    },
    {
      "midi": 66,
      "hit": false,
      "t": 161917.6489999989,
      "d": 273.9723333333095,
      "v": 60
    },
    {
      "midi": 70,
      "hit": false,
      "t": 161917.6489999989,
      "d": 273.9723333333095,
      "v": 95
    },
    {
      "midi": 73,
      "hit": false,
      "t": 162020.38862499778,
      "d": 136.9861666666402,
      "v": 60
    },
    {
      "midi": 78,
      "hit": false,
      "t": 162123.12824999777,
      "d": 136.9861666666402,
      "v": 62
    },
    {
      "midi": 82,
      "hit": false,
      "t": 162225.86787499776,
      "d": 136.9861666666402,
      "v": 64
    },
    {
      "midi": 83,
      "hit": false,
      "t": 162328.60749999774,
      "d": 136.9861666666402,
      "v": 68
    },
    {
      "midi": 66,
      "hit": false,
      "t": 162328.60749999888,
      "d": 273.9723333333386,
      "v": 60
    },
    {
      "midi": 70,
      "hit": false,
      "t": 162328.60749999888,
      "d": 273.9723333333386,
      "v": 65
    },
    {
      "midi": 73,
      "hit": false,
      "t": 162328.60749999888,
      "d": 273.9723333333386,
      "v": 100
    },
    {
      "midi": 84,
      "hit": false,
      "t": 162431.34712499773,
      "d": 136.9861666666402,
      "v": 70
    },
    {
      "midi": 87,
      "hit": false,
      "t": 162534.08674999772,
      "d": 136.9861666666402,
      "v": 75
    },
    {
      "midi": 85,
      "hit": false,
      "t": 162636.8263749977,
      "d": 136.9861666666111,
      "v": 65
    },
    {
      "midi": 56,
      "hit": false,
      "t": 162671.07291666436,
      "d": 342.46541666661506,
      "v": 65
    },
    {
      "midi": 65,
      "hit": false,
      "t": 162705.319458331,
      "d": 308.2188749999623,
      "v": 60
    },
    {
      "midi": 73,
      "hit": false,
      "t": 162739.56599999766,
      "d": 856.1635416666395,
      "v": 105
    },
    {
      "midi": 37,
      "hit": false,
      "t": 162876.55216666553,
      "d": 171.23270833332208,
      "v": 60
    },
    {
      "midi": 44,
      "hit": false,
      "t": 163013.5383333322,
      "d": 171.23270833329298,
      "v": 62
    },
    {
      "midi": 53,
      "hit": false,
      "t": 163150.52449999884,
      "d": 136.9861666666402,
      "v": 65
    },
    {
      "midi": 54,
      "hit": false,
      "t": 163253.26412499882,
      "d": 136.9861666666402,
      "v": 60
    },
    {
      "midi": 55,
      "hit": false,
      "t": 163356.0037499988,
      "d": 136.9861666666402,
      "v": 62
    },
    {
      "midi": 56,
      "hit": false,
      "t": 163458.7433749988,
      "d": 136.9861666666402,
      "v": 65
    },
    {
      "midi": 61,
      "hit": false,
      "t": 163561.48299999879,
      "d": 273.9723333333095,
      "v": 55
    },
    {
      "midi": 65,
      "hit": false,
      "t": 163561.48299999879,
      "d": 273.9723333333095,
      "v": 60
    },
    {
      "midi": 68,
      "hit": false,
      "t": 163561.48299999879,
      "d": 273.9723333333095,
      "v": 95
    },
    {
      "midi": 73,
      "hit": false,
      "t": 163664.22262499764,
      "d": 136.9861666666402,
      "v": 60
    },
    {
      "midi": 77,
      "hit": false,
      "t": 163766.96224999762,
      "d": 136.9861666666402,
      "v": 62
    },
    {
      "midi": 78,
      "hit": false,
      "t": 163869.7018749976,
      "d": 136.9861666666402,
      "v": 64
    },
    {
      "midi": 79,
      "hit": false,
      "t": 163972.4414999976,
      "d": 171.23270833329298,
      "v": 68
    },
    {
      "midi": 56,
      "hit": false,
      "t": 163972.44149999876,
      "d": 273.9723333333386,
      "v": 65
    },
    {
      "midi": 65,
      "hit": false,
      "t": 163972.44149999876,
      "d": 273.9723333333386,
      "v": 60
    },
    {
      "midi": 68,
      "hit": false,
      "t": 163972.44149999876,
      "d": 273.9723333333386,
      "v": 90
    },
    {
      "midi": 80,
      "hit": false,
      "t": 164075.1811249976,
      "d": 205.47924999994575,
      "v": 62
    },
    {
      "midi": 89,
      "hit": false,
      "t": 164109.42766666424,
      "d": 171.23270833329298,
      "v": 70
    },
    {
      "midi": 85,
      "hit": false,
      "t": 164246.41383333088,
      "d": 171.23270833329298,
      "v": 75
    },
    {
      "midi": 60,
      "hit": false,
      "t": 164383.39999999752,
      "d": 547.9446666666481,
      "v": 60
    },
    {
      "midi": 66,
      "hit": false,
      "t": 164383.39999999752,
      "d": 547.9446666666481,
      "v": 60
    },
    {
      "midi": 68,
      "hit": false,
      "t": 164383.39999999752,
      "d": 547.9446666666481,
      "v": 100
    },
    {
      "midi": 44,
      "hit": false,
      "t": 164520.3861666654,
      "d": 171.23270833332208,
      "v": 60
    },
    {
      "midi": 51,
      "hit": false,
      "t": 164657.37233333208,
      "d": 171.23270833329298,
      "v": 62
    },
    {
      "midi": 54,
      "hit": false,
      "t": 164794.35849999872,
      "d": 136.9861666666402,
      "v": 65
    },
    {
      "midi": 55,
      "hit": false,
      "t": 164897.0981249987,
      "d": 136.9861666666402,
      "v": 60
    },
    {
      "midi": 63,
      "hit": false,
      "t": 164999.8377499975,
      "d": 171.23270833332208,
      "v": 55
    },
    {
      "midi": 68,
      "hit": false,
      "t": 164999.8377499975,
      "d": 171.23270833332208,
      "v": 90
    },
    {
      "midi": 56,
      "hit": false,
      "t": 164999.8377499987,
      "d": 136.9861666666402,
      "v": 62
    },
    {
      "midi": 60,
      "hit": false,
      "t": 165102.57737499868,
      "d": 136.9861666666402,
      "v": 65
    },
    {
      "midi": 66,
      "hit": false,
      "t": 165205.31699999867,
      "d": 273.9723333333095,
      "v": 55
    },
    {
      "midi": 68,
      "hit": false,
      "t": 165205.31699999867,
      "d": 273.9723333333095,
      "v": 60
    },
    {
      "midi": 75,
      "hit": false,
      "t": 165205.31699999867,
      "d": 273.9723333333095,
      "v": 95
    },
    {
      "midi": 78,
      "hit": false,
      "t": 165342.30316666415,
      "d": 171.23270833332208,
      "v": 60
    },
    {
      "midi": 79,
      "hit": false,
      "t": 165479.28933333082,
      "d": 171.23270833329298,
      "v": 63
    },
    {
      "midi": 80,
      "hit": false,
      "t": 165616.27549999746,
      "d": 171.23270833329298,
      "v": 66
    },
    {
      "midi": 63,
      "hit": false,
      "t": 165616.27549999865,
      "d": 273.9723333333386,
      "v": 65
    },
    {
      "midi": 66,
      "hit": false,
      "t": 165616.27549999865,
      "d": 273.9723333333386,
      "v": 60
    },
    {
      "midi": 72,
      "hit": false,
      "t": 165616.27549999865,
      "d": 273.9723333333386,
      "v": 90
    },
    {
      "midi": 90,
      "hit": false,
      "t": 165753.2616666641,
      "d": 171.23270833329298,
      "v": 72
    },
    {
      "midi": 84,
      "hit": false,
      "t": 165890.24783333074,
      "d": 171.23270833329298,
      "v": 62
    },
    {
      "midi": 61,
      "hit": false,
      "t": 166027.23399999738,
      "d": 856.1635416666395,
      "v": 58
    },
    {
      "midi": 65,
      "hit": false,
      "t": 166027.23399999738,
      "d": 856.1635416666395,
      "v": 62
    },
    {
      "midi": 73,
      "hit": false,
      "t": 166027.23399999738,
      "d": 1164.382416666631,
      "v": 100
    },
    {
      "midi": 37,
      "hit": false,
      "t": 166164.2201666653,
      "d": 171.23270833332208,
      "v": 70
    },
    {
      "midi": 44,
      "hit": false,
      "t": 166301.20633333197,
      "d": 171.23270833329298,
      "v": 62
    },
    {
      "midi": 53,
      "hit": false,
      "t": 166438.1924999986,
      "d": 171.23270833329298,
      "v": 65
    },
    {
      "midi": 54,
      "hit": false,
      "t": 166575.17866666525,
      "d": 171.23270833329298,
      "v": 60
    },
    {
      "midi": 55,
      "hit": false,
      "t": 166712.1648333319,
      "d": 171.23270833329298,
      "v": 62
    },
    {
      "midi": 56,
      "hit": false,
      "t": 166849.15099999853,
      "d": 171.23270833329298,
      "v": 65
    },
    {
      "midi": 65,
      "hit": false,
      "t": 166986.13716666517,
      "d": 171.23270833329298,
      "v": 68
    },
    {
      "midi": 61,
      "hit": false,
      "t": 167123.1233333318,
      "d": 171.23270833326387,
      "v": 58
    },
    {
      "midi": 65,
      "hit": false,
      "t": 167157.36987499846,
      "d": 376.71195833326783,
      "v": 55
    },
    {
      "midi": 68,
      "hit": false,
      "t": 167191.6164166651,
      "d": 342.46541666661506,
      "v": 58
    },
    {
      "midi": 73,
      "hit": false,
      "t": 167225.86295833177,
      "d": 308.2188749999623,
      "v": 61
    },
    {
      "midi": 80,
      "hit": false,
      "t": 167260.10949999734,
      "d": 171.23270833332208,
      "v": 68
    },
    {
      "midi": 77,
      "hit": false,
      "t": 167260.10949999842,
      "d": 273.9723333333095,
      "v": 98
    },
    {
      "midi": 89,
      "hit": false,
      "t": 167397.095666664,
      "d": 171.23270833329298,
      "v": 75
    },
    {
      "midi": 85,
      "hit": false,
      "t": 167534.08183333065,
      "d": 171.23270833329298,
      "v": 65
    },
    {
      "midi": 72,
      "hit": false,
      "t": 167671.0679999973,
      "d": 239.72579166662763,
      "v": 100
    },
    {
      "midi": 66,
      "hit": false,
      "t": 167671.0679999973,
      "d": 273.9723333332804,
      "v": 60
    },
    {
      "midi": 42,
      "hit": false,
      "t": 167808.05416666504,
      "d": 171.23270833332208,
      "v": 60
    },
    {
      "midi": 70,
      "hit": false,
      "t": 167876.54724999727,
      "d": 171.23270833329298,
      "v": 85
    },
    {
      "midi": 49,
      "hit": false,
      "t": 167945.0403333317,
      "d": 171.23270833329298,
      "v": 62
    },
    {
      "midi": 61,
      "hit": false,
      "t": 168082.0264999972,
      "d": 273.9723333333386,
      "v": 50
    },
    {
      "midi": 66,
      "hit": false,
      "t": 168082.0264999972,
      "d": 273.9723333333386,
      "v": 55
    },
    {
      "midi": 70,
      "hit": false,
      "t": 168082.0264999972,
      "d": 273.9723333333386,
      "v": 90
    },
    {
      "midi": 58,
      "hit": false,
      "t": 168082.02649999835,
      "d": 171.23270833329298,
      "v": 65
    },
    {
      "midi": 59,
      "hit": false,
      "t": 168219.012666665,
      "d": 171.23270833329298,
      "v": 62
    },
    {
      "midi": 60,
      "hit": false,
      "t": 168355.99883333163,
      "d": 171.23270833329298,
      "v": 65
    },
    {
      "midi": 61,
      "hit": false,
      "t": 168492.98499999827,
      "d": 273.9723333333095,
      "v": 55
    },
    {
      "midi": 66,
      "hit": false,
      "t": 168492.98499999827,
      "d": 273.9723333333095,
      "v": 60
    },
    {
      "midi": 70,
      "hit": false,
      "t": 168492.98499999827,
      "d": 273.9723333333095,
      "v": 95
    },
    {
      "midi": 73,
      "hit": false,
      "t": 168595.7246249972,
      "d": 136.9861666666402,
      "v": 60
    },
    {
      "midi": 78,
      "hit": false,
      "t": 168698.4642499972,
      "d": 136.9861666666402,
      "v": 62
    },
    {
      "midi": 82,
      "hit": false,
      "t": 168801.20387499718,
      "d": 136.9861666666402,
      "v": 64
    },
    {
      "midi": 83,
      "hit": false,
      "t": 168903.94349999717,
      "d": 136.9861666666402,
      "v": 68
    },
    {
      "midi": 66,
      "hit": false,
      "t": 168903.94349999825,
      "d": 273.9723333333386,
      "v": 60
    },
    {
      "midi": 70,
      "hit": false,
      "t": 168903.94349999825,
      "d": 273.9723333333386,
      "v": 65
    },
    {
      "midi": 73,
      "hit": false,
      "t": 168903.94349999825,
      "d": 273.9723333333386,
      "v": 100
    },
    {
      "midi": 84,
      "hit": false,
      "t": 169006.68312499716,
      "d": 136.9861666666402,
      "v": 70
    },
    {
      "midi": 87,
      "hit": false,
      "t": 169109.42274999715,
      "d": 136.9861666666402,
      "v": 75
    },
    {
      "midi": 85,
      "hit": false,
      "t": 169212.16237499713,
      "d": 136.9861666666111,
      "v": 65
    },
    {
      "midi": 56,
      "hit": false,
      "t": 169246.4089166638,
      "d": 342.46541666661506,
      "v": 65
    },
    {
      "midi": 65,
      "hit": false,
      "t": 169280.65545833044,
      "d": 308.2188749999623,
      "v": 60
    },
    {
      "midi": 73,
      "hit": false,
      "t": 169314.9019999971,
      "d": 856.1635416666395,
      "v": 105
    },
    {
      "midi": 37,
      "hit": false,
      "t": 169451.8881666649,
      "d": 171.23270833332208,
      "v": 60
    },
    {
      "midi": 44,
      "hit": false,
      "t": 169588.87433333157,
      "d": 171.23270833329298,
      "v": 62
    },
    {
      "midi": 53,
      "hit": false,
      "t": 169725.8604999982,
      "d": 136.9861666666402,
      "v": 65
    },
    {
      "midi": 54,
      "hit": false,
      "t": 169828.6001249982,
      "d": 136.9861666666402,
      "v": 60
    },
    {
      "midi": 55,
      "hit": false,
      "t": 169931.33974999818,
      "d": 136.9861666666402,
      "v": 62
    },
    {
      "midi": 56,
      "hit": false,
      "t": 170034.07937499817,
      "d": 136.9861666666402,
      "v": 65
    },
    {
      "midi": 61,
      "hit": false,
      "t": 170136.81899999816,
      "d": 273.9723333333095,
      "v": 55
    },
    {
      "midi": 65,
      "hit": false,
      "t": 170136.81899999816,
      "d": 273.9723333333095,
      "v": 60
    },
    {
      "midi": 68,
      "hit": false,
      "t": 170136.81899999816,
      "d": 273.9723333333095,
      "v": 95
    },
    {
      "midi": 73,
      "hit": false,
      "t": 170239.55862499707,
      "d": 136.9861666666402,
      "v": 60
    },
    {
      "midi": 77,
      "hit": false,
      "t": 170342.29824999705,
      "d": 136.9861666666402,
      "v": 62
    },
    {
      "midi": 78,
      "hit": false,
      "t": 170445.03787499704,
      "d": 136.9861666666402,
      "v": 64
    },
    {
      "midi": 79,
      "hit": false,
      "t": 170547.77749999703,
      "d": 171.23270833329298,
      "v": 68
    },
    {
      "midi": 56,
      "hit": false,
      "t": 170547.77749999813,
      "d": 273.9723333333386,
      "v": 65
    },
    {
      "midi": 65,
      "hit": false,
      "t": 170547.77749999813,
      "d": 273.9723333333386,
      "v": 60
    },
    {
      "midi": 68,
      "hit": false,
      "t": 170547.77749999813,
      "d": 273.9723333333386,
      "v": 90
    },
    {
      "midi": 80,
      "hit": false,
      "t": 170650.51712499702,
      "d": 205.47924999994575,
      "v": 62
    },
    {
      "midi": 89,
      "hit": false,
      "t": 170684.76366666367,
      "d": 171.23270833329298,
      "v": 70
    },
    {
      "midi": 85,
      "hit": false,
      "t": 170821.7498333303,
      "d": 171.23270833329298,
      "v": 75
    },
    {
      "midi": 60,
      "hit": false,
      "t": 170958.73599999695,
      "d": 547.9446666666481,
      "v": 60
    },
    {
      "midi": 66,
      "hit": false,
      "t": 170958.73599999695,
      "d": 547.9446666666481,
      "v": 60
    },
    {
      "midi": 68,
      "hit": false,
      "t": 170958.73599999695,
      "d": 547.9446666666481,
      "v": 100
    },
    {
      "midi": 44,
      "hit": false,
      "t": 171095.72216666478,
      "d": 171.23270833332208,
      "v": 60
    },
    {
      "midi": 51,
      "hit": false,
      "t": 171232.70833333145,
      "d": 171.23270833329298,
      "v": 62
    },
    {
      "midi": 54,
      "hit": false,
      "t": 171369.6944999981,
      "d": 136.9861666666402,
      "v": 65
    },
    {
      "midi": 55,
      "hit": false,
      "t": 171472.43412499808,
      "d": 136.9861666666402,
      "v": 60
    },
    {
      "midi": 63,
      "hit": false,
      "t": 171575.17374999693,
      "d": 171.23270833332208,
      "v": 55
    },
    {
      "midi": 68,
      "hit": false,
      "t": 171575.17374999693,
      "d": 171.23270833332208,
      "v": 90
    },
    {
      "midi": 56,
      "hit": false,
      "t": 171575.17374999807,
      "d": 136.9861666666402,
      "v": 62
    },
    {
      "midi": 60,
      "hit": false,
      "t": 171677.91337499805,
      "d": 136.9861666666402,
      "v": 65
    },
    {
      "midi": 66,
      "hit": false,
      "t": 171780.65299999804,
      "d": 273.9723333333095,
      "v": 55
    },
    {
      "midi": 68,
      "hit": false,
      "t": 171780.65299999804,
      "d": 273.9723333333095,
      "v": 60
    },
    {
      "midi": 75,
      "hit": false,
      "t": 171780.65299999804,
      "d": 273.9723333333095,
      "v": 95
    },
    {
      "midi": 78,
      "hit": false,
      "t": 171917.63916666358,
      "d": 171.23270833332208,
      "v": 60
    },
    {
      "midi": 79,
      "hit": false,
      "t": 172054.62533333024,
      "d": 171.23270833329298,
      "v": 63
    },
    {
      "midi": 80,
      "hit": false,
      "t": 172191.61149999688,
      "d": 171.23270833329298,
      "v": 66
    },
    {
      "midi": 63,
      "hit": false,
      "t": 172191.61149999802,
      "d": 273.9723333333386,
      "v": 65
    },
    {
      "midi": 66,
      "hit": false,
      "t": 172191.61149999802,
      "d": 273.9723333333386,
      "v": 60
    },
    {
      "midi": 72,
      "hit": false,
      "t": 172191.61149999802,
      "d": 273.9723333333386,
      "v": 90
    },
    {
      "midi": 90,
      "hit": false,
      "t": 172328.59766666353,
      "d": 171.23270833329298,
      "v": 72
    },
    {
      "midi": 84,
      "hit": false,
      "t": 172465.58383333017,
      "d": 171.23270833329298,
      "v": 76
    },
    {
      "midi": 99,
      "hit": false,
      "t": 172602.5699999968,
      "d": 102.73962499995832,
      "v": 90
    },
    {
      "midi": 96,
      "hit": false,
      "t": 172671.0630833301,
      "d": 102.73962499995832,
      "v": 88
    },
    {
      "midi": 93,
      "hit": false,
      "t": 172739.55616666342,
      "d": 102.73962499995832,
      "v": 87
    },
    {
      "midi": 92,
      "hit": false,
      "t": 172808.04924999672,
      "d": 102.73962499995832,
      "v": 86
    },
    {
      "midi": 91,
      "hit": false,
      "t": 172876.54233333003,
      "d": 102.73962499995832,
      "v": 85
    },
    {
      "midi": 90,
      "hit": false,
      "t": 172945.03541666333,
      "d": 102.73962499995832,
      "v": 84
    },
    {
      "midi": 96,
      "hit": false,
      "t": 173013.52849999664,
      "d": 102.73962499995832,
      "v": 87
    },
    {
      "midi": 93,
      "hit": false,
      "t": 173082.02158332994,
      "d": 102.73962499995832,
      "v": 85
    },
    {
      "midi": 90,
      "hit": false,
      "t": 173150.51466666325,
      "d": 102.73962499995832,
      "v": 84
    },
    {
      "midi": 89,
      "hit": false,
      "t": 173219.00774999656,
      "d": 102.73962499995832,
      "v": 83
    },
    {
      "midi": 88,
      "hit": false,
      "t": 173287.50083332986,
      "d": 102.73962499995832,
      "v": 82
    },
    {
      "midi": 87,
      "hit": false,
      "t": 173355.99391666317,
      "d": 102.73962499995832,
      "v": 81
    },
    {
      "midi": 93,
      "hit": false,
      "t": 173424.48699999647,
      "d": 102.73962499995832,
      "v": 84
    },
    {
      "midi": 90,
      "hit": false,
      "t": 173492.98008332978,
      "d": 102.73962499995832,
      "v": 82
    },
    {
      "midi": 87,
      "hit": false,
      "t": 173561.47316666308,
      "d": 102.73962499995832,
      "v": 80
    },
    {
      "midi": 86,
      "hit": false,
      "t": 173629.9662499964,
      "d": 102.73962499995832,
      "v": 79
    },
    {
      "midi": 85,
      "hit": false,
      "t": 173698.4593333297,
      "d": 102.73962499995832,
      "v": 78
    },
    {
      "midi": 84,
      "hit": false,
      "t": 173766.952416663,
      "d": 102.73962499995832,
      "v": 75
    },
    {
      "midi": 90,
      "hit": false,
      "t": 173835.4454999963,
      "d": 102.73962499995832,
      "v": 78
    },
    {
      "midi": 87,
      "hit": false,
      "t": 173903.9385833296,
      "d": 102.73962499995832,
      "v": 76
    },
    {
      "midi": 84,
      "hit": false,
      "t": 173972.43166666292,
      "d": 102.73962499995832,
      "v": 75
    },
    {
      "midi": 83,
      "hit": false,
      "t": 174040.92474999622,
      "d": 102.73962499995832,
      "v": 74
    },
    {
      "midi": 82,
      "hit": false,
      "t": 174109.41783332953,
      "d": 102.73962499995832,
      "v": 73
    },
    {
      "midi": 81,
      "hit": false,
      "t": 174177.91091666283,
      "d": 102.73962499995832,
      "v": 72
    },
    {
      "midi": 87,
      "hit": false,
      "t": 174246.40399999614,
      "d": 102.73962499995832,
      "v": 75
    },
    {
      "midi": 84,
      "hit": false,
      "t": 174314.89708332944,
      "d": 102.73962499995832,
      "v": 73
    },
    {
      "midi": 81,
      "hit": false,
      "t": 174383.39016666275,
      "d": 102.73962499995832,
      "v": 72
    },
    {
      "midi": 80,
      "hit": false,
      "t": 174451.88324999606,
      "d": 102.73962499995832,
      "v": 71
    },
    {
      "midi": 79,
      "hit": false,
      "t": 174520.37633332936,
      "d": 102.73962499995832,
      "v": 70
    },
    {
      "midi": 78,
      "hit": false,
      "t": 174588.86941666267,
      "d": 102.73962499995832,
      "v": 69
    },
    {
      "midi": 84,
      "hit": false,
      "t": 174657.36249999597,
      "d": 102.73962499995832,
      "v": 72
    },
    {
      "midi": 81,
      "hit": false,
      "t": 174725.85558332928,
      "d": 102.73962499995832,
      "v": 70
    },
    {
      "midi": 78,
      "hit": false,
      "t": 174794.34866666258,
      "d": 102.73962499995832,
      "v": 69
    },
    {
      "midi": 77,
      "hit": false,
      "t": 174862.8417499959,
      "d": 102.73962499995832,
      "v": 68
    },
    {
      "midi": 76,
      "hit": false,
      "t": 174931.3348333292,
      "d": 102.73962499995832,
      "v": 67
    },
    {
      "midi": 75,
      "hit": false,
      "t": 174999.8279166625,
      "d": 102.73962499995832,
      "v": 66
    },
    {
      "midi": 81,
      "hit": false,
      "t": 175068.3209999958,
      "d": 102.73962499995832,
      "v": 69
    },
    {
      "midi": 78,
      "hit": false,
      "t": 175136.8140833291,
      "d": 102.73962499995832,
      "v": 67
    },
    {
      "midi": 75,
      "hit": false,
      "t": 175205.30716666242,
      "d": 102.73962499995832,
      "v": 66
    },
    {
      "midi": 74,
      "hit": false,
      "t": 175273.80024999572,
      "d": 102.73962499995832,
      "v": 65
    },
    {
      "midi": 73,
      "hit": false,
      "t": 175342.29333332903,
      "d": 102.73962499995832,
      "v": 64
    },
    {
      "midi": 72,
      "hit": false,
      "t": 175410.78641666233,
      "d": 102.73962499995832,
      "v": 63
    },
    {
      "midi": 78,
      "hit": false,
      "t": 175479.27949999564,
      "d": 102.73962499995832,
      "v": 66
    },
    {
      "midi": 75,
      "hit": false,
      "t": 175547.77258332894,
      "d": 102.73962499995832,
      "v": 64
    },
    {
      "midi": 72,
      "hit": false,
      "t": 175616.26566666225,
      "d": 102.73962499995832,
      "v": 63
    },
    {
      "midi": 71,
      "hit": false,
      "t": 175684.75874999556,
      "d": 102.73962499995832,
      "v": 62
    },
    {
      "midi": 70,
      "hit": false,
      "t": 175753.25183332886,
      "d": 102.73962499995832,
      "v": 61
    },
    {
      "midi": 69,
      "hit": false,
      "t": 175821.74491666217,
      "d": 102.73962499995832,
      "v": 60
    },
    {
      "midi": 68,
      "hit": false,
      "t": 175890.23799999547,
      "d": 102.73962499998743,
      "v": 55
    },
    {
      "midi": 68,
      "hit": false,
      "t": 176027.2241666621,
      "d": 171.23270833332208,
      "v": 60
    },
    {
      "midi": 70,
      "hit": false,
      "t": 176164.21033332878,
      "d": 171.23270833329298,
      "v": 62
    },
    {
      "midi": 68,
      "hit": false,
      "t": 176301.19649999542,
      "d": 171.23270833329298,
      "v": 62
    },
    {
      "midi": 67,
      "hit": false,
      "t": 176438.18266666206,
      "d": 171.23270833329298,
      "v": 64
    },
    {
      "midi": 68,
      "hit": false,
      "t": 176575.1688333287,
      "d": 102.73962499998743,
      "v": 66
    },
    {
      "midi": 66,
      "hit": false,
      "t": 176712.15499999534,
      "d": 342.46541666667326,
      "v": 50
    },
    {
      "midi": 68,
      "hit": false,
      "t": 176712.15499999534,
      "d": 342.46541666667326,
      "v": 40
    },
    {
      "midi": 75,
      "hit": false,
      "t": 176712.15499999534,
      "d": 342.46541666667326,
      "v": 70
    },
    {
      "midi": 63,
      "hit": false,
      "t": 177123.11349999535,
      "d": 342.46541666667326,
      "v": 30
    },
    {
      "midi": 66,
      "hit": false,
      "t": 177123.11349999535,
      "d": 342.46541666667326,
      "v": 40
    },
    {
      "midi": 72,
      "hit": false,
      "t": 177123.11349999535,
      "d": 342.46541666667326,
      "v": 60
    },
    {
      "midi": 61,
      "hit": false,
      "t": 177534.07199999533,
      "d": 753.4239166666521,
      "v": 38
    },
    {
      "midi": 65,
      "hit": false,
      "t": 177534.07199999533,
      "d": 753.4239166666521,
      "v": 42
    },
    {
      "midi": 73,
      "hit": false,
      "t": 177534.07199999533,
      "d": 821.9169999999867,
      "v": 80
    },
    {
      "midi": 37,
      "hit": false,
      "t": 177671.05816666468,
      "d": 171.23270833332208,
      "v": 60
    },
    {
      "midi": 44,
      "hit": false,
      "t": 177808.04433333135,
      "d": 171.23270833329298,
      "v": 52
    },
    {
      "midi": 53,
      "hit": false,
      "t": 177945.03049999799,
      "d": 171.23270833329298,
      "v": 55
    },
    {
      "midi": 54,
      "hit": false,
      "t": 178082.01666666463,
      "d": 171.23270833329298,
      "v": 55
    },
    {
      "midi": 55,
      "hit": false,
      "t": 178219.00283333127,
      "d": 171.23270833329298,
      "v": 58
    },
    {
      "midi": 56,
      "hit": false,
      "t": 178355.9889999979,
      "d": 445.2050416666316,
      "v": 55
    },
    {
      "midi": 65,
      "hit": false,
      "t": 178355.9889999979,
      "d": 445.2050416666316,
      "v": 65
    },
    {
      "midi": 65,
      "hit": false,
      "t": 178492.97516666198,
      "d": 171.23270833332208,
      "v": 40
    },
    {
      "midi": 73,
      "hit": false,
      "t": 178492.97516666198,
      "d": 171.23270833332208,
      "v": 55
    },
    {
      "midi": 68,
      "hit": false,
      "t": 178629.96133332865,
      "d": 102.73962499998743,
      "v": 42
    },
    {
      "midi": 77,
      "hit": false,
      "t": 178629.96133332865,
      "d": 171.23270833329298,
      "v": 47
    },
    {
      "midi": 68,
      "hit": false,
      "t": 178766.9474999953,
      "d": 171.23270833329298,
      "v": 45
    },
    {
      "midi": 78,
      "hit": false,
      "t": 178766.9474999953,
      "d": 171.23270833329298,
      "v": 50
    },
    {
      "midi": 53,
      "hit": false,
      "t": 178766.94749999788,
      "d": 273.9723333333095,
      "v": 45
    },
    {
      "midi": 61,
      "hit": false,
      "t": 178766.94749999788,
      "d": 273.9723333333095,
      "v": 55
    },
    {
      "midi": 73,
      "hit": false,
      "t": 178903.93366666193,
      "d": 171.23270833329298,
      "v": 50
    },
    {
      "midi": 79,
      "hit": false,
      "t": 178903.93366666193,
      "d": 171.23270833329298,
      "v": 55
    },
    {
      "midi": 80,
      "hit": false,
      "t": 179040.91983332857,
      "d": 102.73962499998743,
      "v": 53
    },
    {
      "midi": 77,
      "hit": false,
      "t": 179040.91983332857,
      "d": 171.23270833329298,
      "v": 48
    },
    {
      "midi": 80,
      "hit": false,
      "t": 179177.90599999522,
      "d": 445.2050416666316,
      "v": 60
    },
    {
      "midi": 89,
      "hit": false,
      "t": 179177.90599999522,
      "d": 445.2050416666316,
      "v": 65
    },
    {
      "midi": 37,
      "hit": false,
      "t": 179314.8921666645,
      "d": 171.23270833332208,
      "v": 65
    },
    {
      "midi": 44,
      "hit": false,
      "t": 179451.87833333117,
      "d": 171.23270833329298,
      "v": 57
    },
    {
      "midi": 77,
      "hit": false,
      "t": 179588.8644999952,
      "d": 273.9723333333095,
      "v": 50
    },
    {
      "midi": 85,
      "hit": false,
      "t": 179588.8644999952,
      "d": 273.9723333333095,
      "v": 55
    },
    {
      "midi": 53,
      "hit": false,
      "t": 179588.8644999978,
      "d": 171.23270833329298,
      "v": 60
    },
    {
      "midi": 54,
      "hit": false,
      "t": 179725.85066666445,
      "d": 171.23270833329298,
      "v": 60
    },
    {
      "midi": 55,
      "hit": false,
      "t": 179862.8368333311,
      "d": 171.23270833329298,
      "v": 63
    },
    {
      "midi": 56,
      "hit": false,
      "t": 179999.82299999773,
      "d": 445.2050416666316,
      "v": 60
    },
    {
      "midi": 65,
      "hit": false,
      "t": 179999.82299999773,
      "d": 445.2050416666316,
      "v": 70
    },
    {
      "midi": 65,
      "hit": false,
      "t": 180136.80916666184,
      "d": 171.23270833332208,
      "v": 50
    },
    {
      "midi": 73,
      "hit": false,
      "t": 180136.80916666184,
      "d": 171.23270833332208,
      "v": 55
    },
    {
      "midi": 68,
      "hit": false,
      "t": 180273.7953333285,
      "d": 102.73962499998743,
      "v": 52
    },
    {
      "midi": 77,
      "hit": false,
      "t": 180273.7953333285,
      "d": 171.23270833329298,
      "v": 57
    },
    {
      "midi": 68,
      "hit": false,
      "t": 180410.78149999515,
      "d": 171.23270833329298,
      "v": 55
    },
    {
      "midi": 78,
      "hit": false,
      "t": 180410.78149999515,
      "d": 171.23270833329298,
      "v": 60
    },
    {
      "midi": 53,
      "hit": false,
      "t": 180410.7814999977,
      "d": 273.9723333333095,
      "v": 50
    },
    {
      "midi": 61,
      "hit": false,
      "t": 180410.7814999977,
      "d": 273.9723333333095,
      "v": 60
    },
    {
      "midi": 73,
      "hit": false,
      "t": 180547.7676666618,
      "d": 171.23270833329298,
      "v": 60
    },
    {
      "midi": 79,
      "hit": false,
      "t": 180547.7676666618,
      "d": 171.23270833329298,
      "v": 65
    },
    {
      "midi": 80,
      "hit": false,
      "t": 180684.75383332843,
      "d": 102.73962499998743,
      "v": 63
    },
    {
      "midi": 77,
      "hit": false,
      "t": 180684.75383332843,
      "d": 171.23270833329298,
      "v": 58
    },
    {
      "midi": 80,
      "hit": false,
      "t": 180821.73999999507,
      "d": 445.2050416666316,
      "v": 70
    },
    {
      "midi": 89,
      "hit": false,
      "t": 180821.73999999507,
      "d": 445.2050416666316,
      "v": 75
    },
    {
      "midi": 37,
      "hit": false,
      "t": 180958.72616666433,
      "d": 171.23270833332208,
      "v": 70
    },
    {
      "midi": 44,
      "hit": false,
      "t": 181095.712333331,
      "d": 171.23270833329298,
      "v": 62
    },
    {
      "midi": 77,
      "hit": false,
      "t": 181232.69849999505,
      "d": 273.9723333333095,
      "v": 60
    },
    {
      "midi": 85,
      "hit": false,
      "t": 181232.69849999505,
      "d": 273.9723333333095,
      "v": 65
    },
    {
      "midi": 53,
      "hit": false,
      "t": 181232.69849999764,
      "d": 171.23270833329298,
      "v": 65
    },
    {
      "midi": 54,
      "hit": false,
      "t": 181369.68466666428,
      "d": 171.23270833329298,
      "v": 65
    },
    {
      "midi": 55,
      "hit": false,
      "t": 181506.67083333092,
      "d": 171.23270833329298,
      "v": 68
    },
    {
      "midi": 56,
      "hit": false,
      "t": 181643.65699999756,
      "d": 445.2050416666316,
      "v": 65
    },
    {
      "midi": 65,
      "hit": false,
      "t": 181643.65699999756,
      "d": 445.2050416666316,
      "v": 75
    },
    {
      "midi": 65,
      "hit": false,
      "t": 181780.6431666617,
      "d": 171.23270833332208,
      "v": 60
    },
    {
      "midi": 73,
      "hit": false,
      "t": 181780.6431666617,
      "d": 171.23270833332208,
      "v": 65
    },
    {
      "midi": 68,
      "hit": false,
      "t": 181917.62933332837,
      "d": 102.73962499998743,
      "v": 62
    },
    {
      "midi": 77,
      "hit": false,
      "t": 181917.62933332837,
      "d": 171.23270833329298,
      "v": 67
    },
    {
      "midi": 68,
      "hit": false,
      "t": 182054.615499995,
      "d": 171.23270833329298,
      "v": 65
    },
    {
      "midi": 78,
      "hit": false,
      "t": 182054.615499995,
      "d": 171.23270833329298,
      "v": 70
    },
    {
      "midi": 53,
      "hit": false,
      "t": 182054.61549999754,
      "d": 273.9723333333095,
      "v": 55
    },
    {
      "midi": 61,
      "hit": false,
      "t": 182054.61549999754,
      "d": 273.9723333333095,
      "v": 65
    },
    {
      "midi": 73,
      "hit": false,
      "t": 182191.60166666165,
      "d": 171.23270833329298,
      "v": 70
    },
    {
      "midi": 79,
      "hit": false,
      "t": 182191.60166666165,
      "d": 171.23270833329298,
      "v": 75
    },
    {
      "midi": 80,
      "hit": false,
      "t": 182328.5878333283,
      "d": 102.73962499998743,
      "v": 73
    },
    {
      "midi": 77,
      "hit": false,
      "t": 182328.5878333283,
      "d": 171.23270833329298,
      "v": 68
    },
    {
      "midi": 80,
      "hit": false,
      "t": 182465.57399999493,
      "d": 445.2050416666316,
      "v": 80
    },
    {
      "midi": 89,
      "hit": false,
      "t": 182465.57399999493,
      "d": 445.2050416666316,
      "v": 85
    },
    {
      "midi": 37,
      "hit": false,
      "t": 182465.57399999752,
      "d": 171.23270833332208,
      "v": 80
    },
    {
      "midi": 44,
      "hit": false,
      "t": 182602.5601666642,
      "d": 171.23270833329298,
      "v": 60
    },
    {
      "midi": 49,
      "hit": false,
      "t": 182739.54633333083,
      "d": 171.23270833329298,
      "v": 62
    },
    {
      "midi": 77,
      "hit": false,
      "t": 182876.5324999949,
      "d": 273.9723333333095,
      "v": 70
    },
    {
      "midi": 85,
      "hit": false,
      "t": 182876.5324999949,
      "d": 273.9723333333095,
      "v": 75
    },
    {
      "midi": 53,
      "hit": false,
      "t": 182876.53249999747,
      "d": 171.23270833329298,
      "v": 64
    },
    {
      "midi": 61,
      "hit": false,
      "t": 183013.5186666641,
      "d": 171.23270833329298,
      "v": 66
    },
    {
      "midi": 56,
      "hit": false,
      "t": 183150.50483333075,
      "d": 171.23270833329298,
      "v": 64
    },
    {
      "midi": 65,
      "hit": false,
      "t": 183287.4909999974,
      "d": 171.23270833329298,
      "v": 68
    },
    {
      "midi": 61,
      "hit": false,
      "t": 183424.47716666403,
      "d": 171.23270833329298,
      "v": 66
    },
    {
      "midi": 68,
      "hit": false,
      "t": 183561.46333333067,
      "d": 171.23270833329298,
      "v": 70
    },
    {
      "midi": 65,
      "hit": false,
      "t": 183698.4494999973,
      "d": 171.23270833329298,
      "v": 68
    },
    {
      "midi": 73,
      "hit": false,
      "t": 183835.43566666395,
      "d": 171.23270833329298,
      "v": 72
    },
    {
      "midi": 68,
      "hit": false,
      "t": 183972.4218333306,
      "d": 171.23270833329298,
      "v": 70
    },
    {
      "midi": 77,
      "hit": false,
      "t": 184109.40799999723,
      "d": 171.23270833329298,
      "v": 75
    },
    {
      "midi": 73,
      "hit": false,
      "t": 184246.39416666387,
      "d": 171.23270833329298,
      "v": 73
    },
    {
      "midi": 80,
      "hit": false,
      "t": 184383.3803333305,
      "d": 171.23270833329298,
      "v": 80
    },
    {
      "midi": 77,
      "hit": false,
      "t": 184520.36649999715,
      "d": 171.23270833329298,
      "v": 78
    },
    {
      "midi": 85,
      "hit": false,
      "t": 184657.3526666638,
      "d": 171.23270833329298,
      "v": 85
    },
    {
      "midi": 80,
      "hit": false,
      "t": 184794.33883333043,
      "d": 171.23270833329298,
      "v": 83
    },
    {
      "midi": 89,
      "hit": false,
      "t": 184931.32499999707,
      "d": 171.23270833329298,
      "v": 90
    },
    {
      "midi": 85,
      "hit": false,
      "t": 185068.3111666637,
      "d": 171.23270833329298,
      "v": 88
    },
    {
      "midi": 92,
      "hit": false,
      "t": 185205.29733333035,
      "d": 171.23270833329298,
      "v": 95
    },
    {
      "midi": 89,
      "hit": false,
      "t": 185342.283499997,
      "d": 171.23270833329298,
      "v": 93
    },
    {
      "midi": 97,
      "hit": false,
      "t": 185479.26966666363,
      "d": 171.23270833329298,
      "v": 100
    },
    {
      "midi": 92,
      "hit": false,
      "t": 185616.25583333027,
      "d": 171.23270833329298,
      "v": 98
    },
    {
      "midi": 101,
      "hit": false,
      "t": 185753.2419999969,
      "d": 171.23270833329298,
      "v": 100
    },
    {
      "midi": 99,
      "hit": false,
      "t": 185890.22816666355,
      "d": 171.23270833329298,
      "v": 98
    },
    {
      "midi": 97,
      "hit": false,
      "t": 186027.2143333302,
      "d": 171.23270833329298,
      "v": 96
    },
    {
      "midi": 94,
      "hit": false,
      "t": 186164.20049999683,
      "d": 171.23270833329298,
      "v": 94
    },
    {
      "midi": 92,
      "hit": false,
      "t": 186301.18666666347,
      "d": 171.23270833329298,
      "v": 92
    },
    {
      "midi": 89,
      "hit": false,
      "t": 186438.1728333301,
      "d": 171.23270833329298,
      "v": 90
    },
    {
      "midi": 87,
      "hit": false,
      "t": 186575.15899999675,
      "d": 171.23270833329298,
      "v": 88
    },
    {
      "midi": 85,
      "hit": false,
      "t": 186712.1451666634,
      "d": 171.23270833329298,
      "v": 86
    },
    {
      "midi": 82,
      "hit": false,
      "t": 186849.13133333003,
      "d": 171.23270833329298,
      "v": 84
    },
    {
      "midi": 80,
      "hit": false,
      "t": 186986.11749999668,
      "d": 171.23270833329298,
      "v": 82
    },
    {
      "midi": 77,
      "hit": false,
      "t": 187123.10366666332,
      "d": 171.23270833329298,
      "v": 80
    },
    {
      "midi": 75,
      "hit": false,
      "t": 187260.08983332996,
      "d": 171.23270833329298,
      "v": 78
    },
    {
      "midi": 73,
      "hit": false,
      "t": 187397.0759999966,
      "d": 171.23270833329298,
      "v": 76
    },
    {
      "midi": 70,
      "hit": false,
      "t": 187534.06216666324,
      "d": 171.23270833329298,
      "v": 74
    },
    {
      "midi": 68,
      "hit": false,
      "t": 187671.04833332988,
      "d": 171.23270833329298,
      "v": 72
    },
    {
      "midi": 65,
      "hit": false,
      "t": 187808.03449999652,
      "d": 171.23270833329298,
      "v": 70
    },
    {
      "midi": 63,
      "hit": false,
      "t": 187945.02066666316,
      "d": 171.23270833329298,
      "v": 68
    },
    {
      "midi": 61,
      "hit": false,
      "t": 188082.0068333298,
      "d": 171.23270833329298,
      "v": 66
    },
    {
      "midi": 58,
      "hit": false,
      "t": 188218.99299999644,
      "d": 171.23270833329298,
      "v": 64
    },
    {
      "midi": 56,
      "hit": false,
      "t": 188355.97916666308,
      "d": 171.23270833329298,
      "v": 62
    },
    {
      "midi": 53,
      "hit": false,
      "t": 188492.96533332972,
      "d": 171.23270833329298,
      "v": 60
    },
    {
      "midi": 51,
      "hit": false,
      "t": 188629.95149999636,
      "d": 171.23270833329298,
      "v": 58
    },
    {
      "midi": 49,
      "hit": false,
      "t": 188766.937666663,
      "d": 171.23270833329298,
      "v": 56
    },
    {
      "midi": 46,
      "hit": false,
      "t": 188903.92383332964,
      "d": 171.23270833329298,
      "v": 54
    },
    {
      "midi": 44,
      "hit": false,
      "t": 189040.90999999628,
      "d": 171.23270833329298,
      "v": 52
    },
    {
      "midi": 41,
      "hit": false,
      "t": 189177.89616666292,
      "d": 171.23270833329298,
      "v": 50
    },
    {
      "midi": 39,
      "hit": false,
      "t": 189314.88233332956,
      "d": 171.23270833329298,
      "v": 48
    },
    {
      "midi": 37,
      "hit": false,
      "t": 189451.8684999962,
      "d": 239.72579166665673,
      "v": 55
    },
    {
      "midi": 77,
      "hit": false,
      "t": 189760.0873749949,
      "d": 513.6981249999662,
      "v": 70
    },
    {
      "midi": 49,
      "hit": false,
      "t": 189760.0873749962,
      "d": 513.6981249999662,
      "v": 80
    },
    {
      "midi": 85,
      "hit": false,
      "t": 189794.33391666156,
      "d": 479.45158333331347,
      "v": 72
    },
    {
      "midi": 56,
      "hit": false,
      "t": 189794.33391666284,
      "d": 479.45158333331347,
      "v": 65
    },
    {
      "midi": 89,
      "hit": false,
      "t": 189828.58045832822,
      "d": 445.2050416666607,
      "v": 75
    },
    {
      "midi": 61,
      "hit": false,
      "t": 189828.5804583295,
      "d": 445.2050416666607,
      "v": 70
    },
    {
      "midi": 97,
      "hit": false,
      "t": 189862.82699999487,
      "d": 410.9585000000079,
      "v": 90
    },
    {
      "midi": 68,
      "hit": false,
      "t": 189862.82699999615,
      "d": 410.9585000000079,
      "v": 75
    }
  ]
}