{
  "jsonPath": "Classical/Classical/Evgeny Kissin/erlkonig.json",
  "path": "Classical\\Classical\\Evgeny Kissin\\Erlkonig.mid",
  "name": "Erlkonig",
  "difficulty": "Advanced",
  "bpm": 130.00041166797027,
  "notes": [
    {
      "midi": 67,
      "hit": false,
      "t": 1846.1480000000001,
      "d": 134.61495833333333,
      "v": 103
    },
    {
      "midi": 55,
      "hit": false,
      "t": 1846.1480000000001,
      "d": 138.4611,
      "v": 102
    },
    {
      "midi": 67,
      "hit": false,
      "t": 1999.9936666666667,
      "d": 134.6149583333331,
      "v": 97
    },
    {
      "midi": 55,
      "hit": false,
      "t": 1999.9936666666667,
      "d": 142.3072416666664,
      "v": 98
    },
    {
      "midi": 55,
      "hit": false,
      "t": 2153.8393333333333,
      "d": 138.4611,
      "v": 104
    },
    {
      "midi": 67,
      "hit": false,
      "t": 2153.8393333333333,
      "d": 138.4611,
      "v": 101
    },
    {
      "midi": 67,
      "hit": false,
      "t": 2307.685,
      "d": 136.53802916666655,
      "v": 104
    },
    {
      "midi": 55,
      "hit": false,
      "t": 2307.685,
      "d": 142.3072416666664,
      "v": 99
    },
    {
      "midi": 55,
      "hit": false,
      "t": 2461.5306666666665,
      "d": 140.38417083333343,
      "v": 101
    },
    {
      "midi": 67,
      "hit": false,
      "t": 2461.5306666666665,
      "d": 142.30724166666687,
      "v": 96
    },
    {
      "midi": 67,
      "hit": false,
      "t": 2615.3763333333336,
      "d": 134.61495833333356,
      "v": 103
    },
    {
      "midi": 55,
      "hit": false,
      "t": 2615.3763333333336,
      "d": 142.30724166666687,
      "v": 102
    },
    {
      "midi": 55,
      "hit": false,
      "t": 2769.2220000000007,
      "d": 138.4611,
      "v": 104
    },
    {
      "midi": 67,
      "hit": false,
      "t": 2769.2220000000007,
      "d": 140.38417083333343,
      "v": 98
    },
    {
      "midi": 55,
      "hit": false,
      "t": 2923.0676666666673,
      "d": 134.6149583333331,
      "v": 101
    },
    {
      "midi": 67,
      "hit": false,
      "t": 2923.0676666666673,
      "d": 136.53802916666655,
      "v": 104
    },
    {
      "midi": 67,
      "hit": false,
      "t": 3076.913333333334,
      "d": 134.61495833333356,
      "v": 97
    },
    {
      "midi": 55,
      "hit": false,
      "t": 3076.913333333334,
      "d": 136.538029166667,
      "v": 101
    },
    {
      "midi": 55,
      "hit": false,
      "t": 3230.759000000001,
      "d": 134.61495833333356,
      "v": 98
    },
    {
      "midi": 67,
      "hit": false,
      "t": 3230.759000000001,
      "d": 134.61495833333356,
      "v": 104
    },
    {
      "midi": 55,
      "hit": false,
      "t": 3384.604666666668,
      "d": 138.4611,
      "v": 104
    },
    {
      "midi": 67,
      "hit": false,
      "t": 3384.604666666668,
      "d": 142.30724166666687,
      "v": 96
    },
    {
      "midi": 55,
      "hit": false,
      "t": 3538.450333333335,
      "d": 134.61495833333356,
      "v": 103
    },
    {
      "midi": 67,
      "hit": false,
      "t": 3538.450333333335,
      "d": 134.61495833333356,
      "v": 101
    },
    {
      "midi": 31,
      "hit": false,
      "t": 3692.2960000000003,
      "d": 142.30724166666687,
      "v": 104
    },
    {
      "midi": 43,
      "hit": false,
      "t": 3692.2960000000003,
      "d": 142.30724166666687,
      "v": 108
    },
    {
      "midi": 67,
      "hit": false,
      "t": 3692.296000000002,
      "d": 134.61495833333356,
      "v": 108
    },
    {
      "midi": 55,
      "hit": false,
      "t": 3692.296000000002,
      "d": 136.538029166667,
      "v": 108
    },
    {
      "midi": 33,
      "hit": false,
      "t": 3846.1416666666673,
      "d": 136.53802916666655,
      "v": 102
    },
    {
      "midi": 45,
      "hit": false,
      "t": 3846.1416666666673,
      "d": 142.3072416666664,
      "v": 102
    },
    {
      "midi": 55,
      "hit": false,
      "t": 3846.141666666669,
      "d": 138.4611,
      "v": 104
    },
    {
      "midi": 67,
      "hit": false,
      "t": 3846.141666666669,
      "d": 138.4611,
      "v": 102
    },
    {
      "midi": 34,
      "hit": false,
      "t": 3999.987333333334,
      "d": 134.6149583333331,
      "v": 102
    },
    {
      "midi": 46,
      "hit": false,
      "t": 3999.987333333334,
      "d": 134.6149583333331,
      "v": 97
    },
    {
      "midi": 55,
      "hit": false,
      "t": 3999.9873333333358,
      "d": 140.38417083333343,
      "v": 100
    },
    {
      "midi": 67,
      "hit": false,
      "t": 3999.9873333333358,
      "d": 140.38417083333343,
      "v": 100
    },
    {
      "midi": 36,
      "hit": false,
      "t": 4153.8330000000005,
      "d": 134.61495833333356,
      "v": 102
    },
    {
      "midi": 48,
      "hit": false,
      "t": 4153.8330000000005,
      "d": 142.30724166666732,
      "v": 101
    },
    {
      "midi": 67,
      "hit": false,
      "t": 4153.833000000002,
      "d": 134.61495833333356,
      "v": 97
    },
    {
      "midi": 55,
      "hit": false,
      "t": 4153.833000000002,
      "d": 140.38417083333388,
      "v": 101
    },
    {
      "midi": 38,
      "hit": false,
      "t": 4307.678666666668,
      "d": 136.538029166667,
      "v": 97
    },
    {
      "midi": 50,
      "hit": false,
      "t": 4307.678666666668,
      "d": 142.30724166666732,
      "v": 100
    },
    {
      "midi": 55,
      "hit": false,
      "t": 4307.678666666669,
      "d": 136.538029166667,
      "v": 96
    },
    {
      "midi": 67,
      "hit": false,
      "t": 4307.678666666669,
      "d": 138.46110000000044,
      "v": 101
    },
    {
      "midi": 39,
      "hit": false,
      "t": 4461.524333333335,
      "d": 136.538029166667,
      "v": 97
    },
    {
      "midi": 51,
      "hit": false,
      "t": 4461.524333333335,
      "d": 142.30724166666732,
      "v": 101
    },
    {
      "midi": 67,
      "hit": false,
      "t": 4461.5243333333365,
      "d": 134.61495833333356,
      "v": 102
    },
    {
      "midi": 55,
      "hit": false,
      "t": 4461.5243333333365,
      "d": 140.38417083333388,
      "v": 97
    },
    {
      "midi": 38,
      "hit": false,
      "t": 4615.370000000002,
      "d": 213.46086250000008,
      "v": 104
    },
    {
      "midi": 50,
      "hit": false,
      "t": 4615.370000000002,
      "d": 217.30700416666696,
      "v": 102
    },
    {
      "midi": 67,
      "hit": false,
      "t": 4615.3700000000035,
      "d": 448.0755041666671,
      "v": 98
    },
    {
      "midi": 55,
      "hit": false,
      "t": 4615.3700000000035,
      "d": 449.9985750000005,
      "v": 99
    },
    {
      "midi": 46,
      "hit": false,
      "t": 5076.907000000002,
      "d": 213.46086250000008,
      "v": 97
    },
    {
      "midi": 34,
      "hit": false,
      "t": 5076.907000000002,
      "d": 219.2300750000004,
      "v": 101
    },
    {
      "midi": 55,
      "hit": false,
      "t": 5076.907000000004,
      "d": 444.2293625000002,
      "v": 99
    },
    {
      "midi": 67,
      "hit": false,
      "t": 5076.907000000004,
      "d": 446.15243333333365,
      "v": 101
    },
    {
      "midi": 31,
      "hit": false,
      "t": 5538.444000000002,
      "d": 215.38393333333352,
      "v": 102
    },
    {
      "midi": 43,
      "hit": false,
      "t": 5538.444000000002,
      "d": 217.30700416666696,
      "v": 101
    },
    {
      "midi": 55,
      "hit": false,
      "t": 5538.444000000004,
      "d": 140.38417083333297,
      "v": 106
    },
    {
      "midi": 67,
      "hit": false,
      "t": 5538.444000000004,
      "d": 142.3072416666664,
      "v": 106
    },
    {
      "midi": 55,
      "hit": false,
      "t": 5692.28966666667,
      "d": 142.3072416666664,
      "v": 102
    },
    {
      "midi": 67,
      "hit": false,
      "t": 5692.28966666667,
      "d": 142.3072416666664,
      "v": 98
    },
    {
      "midi": 55,
      "hit": false,
      "t": 5846.135333333336,
      "d": 134.61495833333356,
      "v": 101
    },
    {
      "midi": 67,
      "hit": false,
      "t": 5846.135333333336,
      "d": 138.46110000000044,
      "v": 96
    },
    {
      "midi": 55,
      "hit": false,
      "t": 5999.981000000003,
      "d": 136.538029166667,
      "v": 98
    },
    {
      "midi": 67,
      "hit": false,
      "t": 5999.981000000003,
      "d": 138.46110000000044,
      "v": 104
    },
    {
      "midi": 55,
      "hit": false,
      "t": 6153.8266666666705,
      "d": 136.538029166667,
      "v": 101
    },
    {
      "midi": 67,
      "hit": false,
      "t": 6153.8266666666705,
      "d": 142.30724166666732,
      "v": 97
    },
    {
      "midi": 67,
      "hit": false,
      "t": 6307.6723333333375,
      "d": 140.38417083333297,
      "v": 103
    },
    {
      "midi": 55,
      "hit": false,
      "t": 6307.6723333333375,
      "d": 142.3072416666664,
      "v": 96
    },
    {
      "midi": 55,
      "hit": false,
      "t": 6461.518000000004,
      "d": 142.3072416666664,
      "v": 98
    },
    {
      "midi": 67,
      "hit": false,
      "t": 6461.518000000004,
      "d": 142.3072416666664,
      "v": 101
    },
    {
      "midi": 55,
      "hit": false,
      "t": 6615.36366666667,
      "d": 136.538029166667,
      "v": 97
    },
    {
      "midi": 67,
      "hit": false,
      "t": 6615.36366666667,
      "d": 140.38417083333388,
      "v": 98
    },
    {
      "midi": 55,
      "hit": false,
      "t": 6769.209333333337,
      "d": 136.538029166667,
      "v": 104
    },
    {
      "midi": 67,
      "hit": false,
      "t": 6769.209333333337,
      "d": 136.538029166667,
      "v": 96
    },
    {
      "midi": 55,
      "hit": false,
      "t": 6923.055000000004,
      "d": 134.61495833333356,
      "v": 99
    },
    {
      "midi": 67,
      "hit": false,
      "t": 6923.055000000004,
      "d": 142.30724166666732,
      "v": 98
    },
    {
      "midi": 55,
      "hit": false,
      "t": 7076.900666666671,
      "d": 134.61495833333356,
      "v": 100
    },
    {
      "midi": 67,
      "hit": false,
      "t": 7076.900666666671,
      "d": 136.538029166667,
      "v": 104
    },
    {
      "midi": 55,
      "hit": false,
      "t": 7230.746333333338,
      "d": 134.61495833333356,
      "v": 96
    },
    {
      "midi": 67,
      "hit": false,
      "t": 7230.746333333338,
      "d": 140.38417083333388,
      "v": 104
    },
    {
      "midi": 43,
      "hit": false,
      "t": 7384.592000000002,
      "d": 136.538029166667,
      "v": 102
    },
    {
      "midi": 31,
      "hit": false,
      "t": 7384.592000000002,
      "d": 138.46110000000044,
      "v": 108
    },
    {
      "midi": 67,
      "hit": false,
      "t": 7384.592000000005,
      "d": 134.61495833333356,
      "v": 101
    },
    {
      "midi": 55,
      "hit": false,
      "t": 7384.592000000005,
      "d": 142.30724166666732,
      "v": 107
    },
    {
      "midi": 45,
      "hit": false,
      "t": 7538.437666666669,
      "d": 138.46110000000044,
      "v": 97
    },
    {
      "midi": 33,
      "hit": false,
      "t": 7538.437666666669,
      "d": 142.30724166666732,
      "v": 103
    },
    {
      "midi": 55,
      "hit": false,
      "t": 7538.437666666672,
      "d": 136.538029166667,
      "v": 102
    },
    {
      "midi": 67,
      "hit": false,
      "t": 7538.437666666672,
      "d": 136.538029166667,
      "v": 101
    },
    {
      "midi": 34,
      "hit": false,
      "t": 7692.2833333333365,
      "d": 140.38417083333297,
      "v": 101
    },
    {
      "midi": 46,
      "hit": false,
      "t": 7692.2833333333365,
      "d": 140.38417083333297,
      "v": 101
    },
    {
      "midi": 67,
      "hit": false,
      "t": 7692.283333333339,
      "d": 138.46110000000044,
      "v": 96
    },
    {
      "midi": 55,
      "hit": false,
      "t": 7692.283333333339,
      "d": 140.38417083333388,
      "v": 99
    },
    {
      "midi": 48,
      "hit": false,
      "t": 7846.129000000003,
      "d": 138.46110000000044,
      "v": 102
    },
    {
      "midi": 36,
      "hit": false,
      "t": 7846.129000000003,
      "d": 142.30724166666732,
      "v": 100
    },
    {
      "midi": 55,
      "hit": false,
      "t": 7846.129000000006,
      "d": 140.38417083333297,
      "v": 102
    },
    {
      "midi": 67,
      "hit": false,
      "t": 7846.129000000006,
      "d": 142.3072416666664,
      "v": 97
    },
    {
      "midi": 38,
      "hit": false,
      "t": 7999.97466666667,
      "d": 136.538029166667,
      "v": 100
    },
    {
      "midi": 50,
      "hit": false,
      "t": 7999.97466666667,
      "d": 138.46110000000044,
      "v": 98
    },
    {
      "midi": 67,
      "hit": false,
      "t": 7999.974666666672,
      "d": 136.538029166667,
      "v": 98
    },
    {
      "midi": 55,
      "hit": false,
      "t": 7999.974666666672,
      "d": 138.46110000000044,
      "v": 96
    },
    {
      "midi": 39,
      "hit": false,
      "t": 8153.820333333337,
      "d": 134.61495833333356,
      "v": 100
    },
    {
      "midi": 51,
      "hit": false,
      "t": 8153.820333333337,
      "d": 136.5380291666661,
      "v": 99
    },
    {
      "midi": 67,
      "hit": false,
      "t": 8153.8203333333395,
      "d": 138.46109999999953,
      "v": 100
    },
    {
      "midi": 55,
      "hit": false,
      "t": 8153.8203333333395,
      "d": 140.38417083333206,
      "v": 101
    },
    {
      "midi": 50,
      "hit": false,
      "t": 8307.666000000003,
      "d": 217.30700416666696,
      "v": 106
    },
    {
      "midi": 38,
      "hit": false,
      "t": 8307.666000000003,
      "d": 219.2300749999995,
      "v": 100
    },
    {
      "midi": 67,
      "hit": false,
      "t": 8307.666000000005,
      "d": 138.46110000000044,
      "v": 104
    },
    {
      "midi": 55,
      "hit": false,
      "t": 8307.666000000005,
      "d": 142.30724166666732,
      "v": 102
    },
    {
      "midi": 55,
      "hit": false,
      "t": 8461.511666666673,
      "d": 134.61495833333356,
      "v": 104
    },
    {
      "midi": 67,
      "hit": false,
      "t": 8461.511666666673,
      "d": 140.38417083333297,
      "v": 99
    },
    {
      "midi": 67,
      "hit": false,
      "t": 8615.357333333339,
      "d": 136.5380291666661,
      "v": 100
    },
    {
      "midi": 55,
      "hit": false,
      "t": 8615.357333333339,
      "d": 138.46109999999862,
      "v": 103
    },
    {
      "midi": 34,
      "hit": false,
      "t": 8769.203000000003,
      "d": 213.46086250000008,
      "v": 96
    },
    {
      "midi": 46,
      "hit": false,
      "t": 8769.203000000003,
      "d": 213.46086250000008,
      "v": 104
    },
    {
      "midi": 55,
      "hit": false,
      "t": 8769.203000000005,
      "d": 140.38417083333297,
      "v": 98
    },
    {
      "midi": 67,
      "hit": false,
      "t": 8769.203000000005,
      "d": 140.38417083333297,
      "v": 96
    },
    {
      "midi": 55,
      "hit": false,
      "t": 8923.048666666671,
      "d": 136.5380291666661,
      "v": 102
    },
    {
      "midi": 67,
      "hit": false,
      "t": 8923.048666666671,
      "d": 138.46109999999862,
      "v": 100
    },
    {
      "midi": 67,
      "hit": false,
      "t": 9076.894333333337,
      "d": 134.61495833333356,
      "v": 98
    },
    {
      "midi": 55,
      "hit": false,
      "t": 9076.894333333337,
      "d": 136.5380291666661,
      "v": 103
    },
    {
      "midi": 55,
      "hit": false,
      "t": 9230.740000000003,
      "d": 138.46110000000044,
      "v": 104
    },
    {
      "midi": 67,
      "hit": false,
      "t": 9230.740000000003,
      "d": 142.30724166666732,
      "v": 107
    },
    {
      "midi": 31,
      "hit": false,
      "t": 9230.740000000003,
      "d": 213.46086250000008,
      "v": 102
    },
    {
      "midi": 43,
      "hit": false,
      "t": 9230.740000000003,
      "d": 213.46086250000008,
      "v": 105
    },
    {
      "midi": 67,
      "hit": false,
      "t": 9384.585666666671,
      "d": 138.46110000000044,
      "v": 96
    },
    {
      "midi": 55,
      "hit": false,
      "t": 9384.585666666671,
      "d": 142.30724166666732,
      "v": 101
    },
    {
      "midi": 55,
      "hit": false,
      "t": 9538.43133333334,
      "d": 136.5380291666661,
      "v": 103
    },
    {
      "midi": 67,
      "hit": false,
      "t": 9538.43133333334,
      "d": 140.38417083333297,
      "v": 96
    },
    {
      "midi": 67,
      "hit": false,
      "t": 9692.277000000006,
      "d": 134.61495833333356,
      "v": 103
    },
    {
      "midi": 55,
      "hit": false,
      "t": 9692.277000000006,
      "d": 140.38417083333297,
      "v": 100
    },
    {
      "midi": 67,
      "hit": false,
      "t": 9846.122666666672,
      "d": 134.61495833333356,
      "v": 97
    },
    {
      "midi": 55,
      "hit": false,
      "t": 9846.122666666672,
      "d": 138.46110000000044,
      "v": 96
    },
    {
      "midi": 55,
      "hit": false,
      "t": 9999.96833333334,
      "d": 138.46110000000044,
      "v": 99
    },
    {
      "midi": 67,
      "hit": false,
      "t": 9999.96833333334,
      "d": 140.38417083333297,
      "v": 101
    },
    {
      "midi": 55,
      "hit": false,
      "t": 10153.814000000006,
      "d": 134.61495833333356,
      "v": 102
    },
    {
      "midi": 67,
      "hit": false,
      "t": 10153.814000000006,
      "d": 142.30724166666732,
      "v": 106
    },
    {
      "midi": 67,
      "hit": false,
      "t": 10307.659666666674,
      "d": 134.61495833333356,
      "v": 97
    },
    {
      "midi": 55,
      "hit": false,
      "t": 10307.659666666674,
      "d": 142.30724166666732,
      "v": 104
    },
    {
      "midi": 67,
      "hit": false,
      "t": 10461.505333333342,
      "d": 136.5380291666661,
      "v": 104
    },
    {
      "midi": 55,
      "hit": false,
      "t": 10461.505333333342,
      "d": 140.38417083333297,
      "v": 103
    },
    {
      "midi": 55,
      "hit": false,
      "t": 10615.351000000008,
      "d": 134.61495833333356,
      "v": 104
    },
    {
      "midi": 67,
      "hit": false,
      "t": 10615.351000000008,
      "d": 138.46110000000044,
      "v": 101
    },
    {
      "midi": 67,
      "hit": false,
      "t": 10769.196666666676,
      "d": 140.38417083333297,
      "v": 101
    },
    {
      "midi": 55,
      "hit": false,
      "t": 10769.196666666676,
      "d": 142.3072416666655,
      "v": 101
    },
    {
      "midi": 67,
      "hit": false,
      "t": 10923.042333333342,
      "d": 134.61495833333356,
      "v": 103
    },
    {
      "midi": 55,
      "hit": false,
      "t": 10923.042333333342,
      "d": 142.30724166666732,
      "v": 97
    },
    {
      "midi": 48,
      "hit": false,
      "t": 11076.888000000003,
      "d": 1365.3802916666718,
      "v": 101
    },
    {
      "midi": 36,
      "hit": false,
      "t": 11076.888000000003,
      "d": 1373.0725750000056,
      "v": 105
    },
    {
      "midi": 57,
      "hit": false,
      "t": 11076.88800000001,
      "d": 134.61495833333356,
      "v": 104
    },
    {
      "midi": 67,
      "hit": false,
      "t": 11076.88800000001,
      "d": 138.46110000000044,
      "v": 107
    },
    {
      "midi": 69,
      "hit": false,
      "t": 11076.88800000001,
      "d": 142.30724166666732,
      "v": 107
    },
    {
      "midi": 69,
      "hit": false,
      "t": 11230.733666666678,
      "d": 134.61495833333356,
      "v": 99
    },
    {
      "midi": 57,
      "hit": false,
      "t": 11230.733666666678,
      "d": 138.46109999999862,
      "v": 98
    },
    {
      "midi": 67,
      "hit": false,
      "t": 11230.733666666678,
      "d": 142.3072416666655,
      "v": 102
    },
    {
      "midi": 69,
      "hit": false,
      "t": 11384.579333333344,
      "d": 134.61495833333356,
      "v": 97
    },
    {
      "midi": 57,
      "hit": false,
      "t": 11384.579333333344,
      "d": 138.46110000000044,
      "v": 103
    },
    {
      "midi": 67,
      "hit": false,
      "t": 11384.579333333344,
      "d": 140.38417083333297,
      "v": 103
    },
    {
      "midi": 67,
      "hit": false,
      "t": 11538.42500000001,
      "d": 136.5380291666661,
      "v": 98
    },
    {
      "midi": 57,
      "hit": false,
      "t": 11538.42500000001,
      "d": 138.46109999999862,
      "v": 96
    },
    {
      "midi": 69,
      "hit": false,
      "t": 11538.42500000001,
      "d": 138.46109999999862,
      "v": 102
    },
    {
      "midi": 57,
      "hit": false,
      "t": 11692.270666666676,
      "d": 140.3841708333348,
      "v": 96
    },
    {
      "midi": 67,
      "hit": false,
      "t": 11692.270666666676,
      "d": 140.3841708333348,
      "v": 100
    },
    {
      "midi": 69,
      "hit": false,
      "t": 11692.270666666676,
      "d": 140.3841708333348,
      "v": 99
    },
    {
      "midi": 67,
      "hit": false,
      "t": 11846.116333333344,
      "d": 134.61495833333174,
      "v": 100
    },
    {
      "midi": 57,
      "hit": false,
      "t": 11846.116333333344,
      "d": 136.53802916666427,
      "v": 100
    },
    {
      "midi": 69,
      "hit": false,
      "t": 11846.116333333344,
      "d": 138.4610999999968,
      "v": 99
    },
    {
      "midi": 67,
      "hit": false,
      "t": 11999.962000000009,
      "d": 134.61495833333356,
      "v": 103
    },
    {
      "midi": 57,
      "hit": false,
      "t": 11999.962000000009,
      "d": 138.46110000000044,
      "v": 103
    },
    {
      "midi": 69,
      "hit": false,
      "t": 11999.962000000009,
      "d": 142.30724166666732,
      "v": 103
    },
    {
      "midi": 57,
      "hit": false,
      "t": 12153.807666666675,
      "d": 134.61495833333356,
      "v": 98
    },
    {
      "midi": 67,
      "hit": false,
      "t": 12153.807666666675,
      "d": 138.46110000000044,
      "v": 101
    },
    {
      "midi": 69,
      "hit": false,
      "t": 12153.807666666675,
      "d": 140.38417083333297,
      "v": 100
    },
    {
      "midi": 69,
      "hit": false,
      "t": 12307.653333333341,
      "d": 138.46110000000044,
      "v": 104
    },
    {
      "midi": 57,
      "hit": false,
      "t": 12307.653333333341,
      "d": 142.30724166666732,
      "v": 101
    },
    {
      "midi": 67,
      "hit": false,
      "t": 12307.653333333341,
      "d": 142.30724166666732,
      "v": 101
    },
    {
      "midi": 57,
      "hit": false,
      "t": 12461.499000000009,
      "d": 136.5380291666661,
      "v": 102
    },
    {
      "midi": 67,
      "hit": false,
      "t": 12461.499000000009,
      "d": 136.5380291666661,
      "v": 97
    },
    {
      "midi": 69,
      "hit": false,
      "t": 12461.499000000009,
      "d": 138.46109999999862,
      "v": 102
    },
    {
      "midi": 49,
      "hit": false,
      "t": 12461.499000000009,
      "d": 444.2293625000002,
      "v": 97
    },
    {
      "midi": 37,
      "hit": false,
      "t": 12461.499000000009,
      "d": 446.15243333333274,
      "v": 99
    },
    {
      "midi": 67,
      "hit": false,
      "t": 12615.344666666675,
      "d": 136.5380291666679,
      "v": 98
    },
    {
      "midi": 57,
      "hit": false,
      "t": 12615.344666666675,
      "d": 138.46110000000044,
      "v": 98
    },
    {
      "midi": 69,
      "hit": false,
      "t": 12615.344666666675,
      "d": 142.30724166666732,
      "v": 96
    },
    {
      "midi": 67,
      "hit": false,
      "t": 12769.190333333343,
      "d": 136.5380291666661,
      "v": 96
    },
    {
      "midi": 69,
      "hit": false,
      "t": 12769.190333333343,
      "d": 136.5380291666661,
      "v": 98
    },
    {
      "midi": 57,
      "hit": false,
      "t": 12769.190333333343,
      "d": 142.3072416666655,
      "v": 104
    },
    {
      "midi": 58,
      "hit": false,
      "t": 12923.036000000007,
      "d": 134.61495833333356,
      "v": 103
    },
    {
      "midi": 67,
      "hit": false,
      "t": 12923.036000000007,
      "d": 138.46110000000044,
      "v": 107
    },
    {
      "midi": 70,
      "hit": false,
      "t": 12923.036000000007,
      "d": 140.38417083333297,
      "v": 100
    },
    {
      "midi": 50,
      "hit": false,
      "t": 12923.036000000007,
      "d": 1826.917291666674,
      "v": 103
    },
    {
      "midi": 38,
      "hit": false,
      "t": 12923.036000000007,
      "d": 1834.6095750000077,
      "v": 100
    },
    {
      "midi": 58,
      "hit": false,
      "t": 13076.881666666673,
      "d": 136.5380291666679,
      "v": 96
    },
    {
      "midi": 67,
      "hit": false,
      "t": 13076.881666666673,
      "d": 140.3841708333348,
      "v": 103
    },
    {
      "midi": 70,
      "hit": false,
      "t": 13076.881666666673,
      "d": 142.30724166666732,
      "v": 98
    },
    {
      "midi": 58,
      "hit": false,
      "t": 13230.727333333341,
      "d": 134.61495833333356,
      "v": 97
    },
    {
      "midi": 67,
      "hit": false,
      "t": 13230.727333333341,
      "d": 138.46110000000044,
      "v": 97
    },
    {
      "midi": 70,
      "hit": false,
      "t": 13230.727333333341,
      "d": 142.30724166666732,
      "v": 99
    },
    {
      "midi": 67,
      "hit": false,
      "t": 13384.57300000001,
      "d": 134.61495833333356,
      "v": 102
    },
    {
      "midi": 70,
      "hit": false,
      "t": 13384.57300000001,
      "d": 138.46110000000044,
      "v": 99
    },
    {
      "midi": 58,
      "hit": false,
      "t": 13384.57300000001,
      "d": 142.30724166666732,
      "v": 102
    },
    {
      "midi": 70,
      "hit": false,
      "t": 13538.418666666677,
      "d": 134.61495833333356,
      "v": 99
    },
    {
      "midi": 58,
      "hit": false,
      "t": 13538.418666666677,
      "d": 138.46110000000044,
      "v": 103
    },
    {
      "midi": 67,
      "hit": false,
      "t": 13538.418666666677,
      "d": 142.30724166666732,
      "v": 99
    },
    {
      "midi": 58,
      "hit": false,
      "t": 13692.264333333345,
      "d": 134.61495833333174,
      "v": 98
    },
    {
      "midi": 67,
      "hit": false,
      "t": 13692.264333333345,
      "d": 140.38417083333115,
      "v": 101
    },
    {
      "midi": 70,
      "hit": false,
      "t": 13692.264333333345,
      "d": 140.38417083333115,
      "v": 100
    },
    {
      "midi": 57,
      "hit": false,
      "t": 13846.11000000001,
      "d": 134.61495833333356,
      "v": 102
    },
    {
      "midi": 66,
      "hit": false,
      "t": 13846.11000000001,
      "d": 134.61495833333356,
      "v": 105
    },
    {
      "midi": 69,
      "hit": false,
      "t": 13846.11000000001,
      "d": 142.30724166666732,
      "v": 106
    },
    {
      "midi": 66,
      "hit": false,
      "t": 13999.955666666676,
      "d": 136.5380291666661,
      "v": 97
    },
    {
      "midi": 69,
      "hit": false,
      "t": 13999.955666666676,
      "d": 140.38417083333297,
      "v": 97
    },
    {
      "midi": 57,
      "hit": false,
      "t": 13999.955666666676,
      "d": 142.3072416666655,
      "v": 101
    },
    {
      "midi": 57,
      "hit": false,
      "t": 14153.801333333342,
      "d": 134.61495833333356,
      "v": 101
    },
    {
      "midi": 66,
      "hit": false,
      "t": 14153.801333333342,
      "d": 136.5380291666661,
      "v": 96
    },
    {
      "midi": 69,
      "hit": false,
      "t": 14153.801333333342,
      "d": 136.5380291666661,
      "v": 104
    },
    {
      "midi": 57,
      "hit": false,
      "t": 14307.647000000008,
      "d": 140.38417083333297,
      "v": 102
    },
    {
      "midi": 69,
      "hit": false,
      "t": 14307.647000000008,
      "d": 140.38417083333297,
      "v": 99
    },
    {
      "midi": 66,
      "hit": false,
      "t": 14307.647000000008,
      "d": 142.3072416666655,
      "v": 96
    },
    {
      "midi": 57,
      "hit": false,
      "t": 14461.492666666674,
      "d": 136.5380291666661,
      "v": 98
    },
    {
      "midi": 66,
      "hit": false,
      "t": 14461.492666666674,
      "d": 140.38417083333297,
      "v": 96
    },
    {
      "midi": 69,
      "hit": false,
      "t": 14461.492666666674,
      "d": 140.38417083333297,
      "v": 97
    },
    {
      "midi": 57,
      "hit": false,
      "t": 14615.33833333334,
      "d": 134.61495833333356,
      "v": 96
    },
    {
      "midi": 66,
      "hit": false,
      "t": 14615.33833333334,
      "d": 134.61495833333356,
      "v": 100
    },
    {
      "midi": 69,
      "hit": false,
      "t": 14615.33833333334,
      "d": 134.61495833333356,
      "v": 103
    },
    {
      "midi": 55,
      "hit": false,
      "t": 14769.184000000007,
      "d": 142.30724166666732,
      "v": 102
    },
    {
      "midi": 67,
      "hit": false,
      "t": 14769.184000000007,
      "d": 142.30724166666732,
      "v": 107
    },
    {
      "midi": 43,
      "hit": false,
      "t": 14769.184000000014,
      "d": 448.0755041666671,
      "v": 103
    },
    {
      "midi": 55,
      "hit": false,
      "t": 14923.029666666675,
      "d": 134.61495833333356,
      "v": 103
    },
    {
      "midi": 67,
      "hit": false,
      "t": 14923.029666666675,
      "d": 136.5380291666661,
      "v": 103
    },
    {
      "midi": 55,
      "hit": false,
      "t": 15076.87533333334,
      "d": 134.61495833333356,
      "v": 104
    },
    {
      "midi": 67,
      "hit": false,
      "t": 15076.87533333334,
      "d": 138.46110000000044,
      "v": 97
    },
    {
      "midi": 67,
      "hit": false,
      "t": 15230.721000000009,
      "d": 134.61495833333356,
      "v": 103
    },
    {
      "midi": 55,
      "hit": false,
      "t": 15230.721000000009,
      "d": 138.46110000000044,
      "v": 103
    },
    {
      "midi": 55,
      "hit": false,
      "t": 15384.566666666677,
      "d": 140.38417083333297,
      "v": 99
    },
    {
      "midi": 67,
      "hit": false,
      "t": 15384.566666666677,
      "d": 140.38417083333297,
      "v": 100
    },
    {
      "midi": 55,
      "hit": false,
      "t": 15538.412333333343,
      "d": 134.61495833333356,
      "v": 100
    },
    {
      "midi": 67,
      "hit": false,
      "t": 15538.412333333343,
      "d": 138.46110000000044,
      "v": 101
    },
    {
      "midi": 67,
      "hit": false,
      "t": 15692.25800000001,
      "d": 136.5380291666661,
      "v": 100
    },
    {
      "midi": 55,
      "hit": false,
      "t": 15692.25800000001,
      "d": 138.46109999999862,
      "v": 106
    },
    {
      "midi": 67,
      "hit": false,
      "t": 15846.103666666677,
      "d": 136.5380291666661,
      "v": 99
    },
    {
      "midi": 55,
      "hit": false,
      "t": 15846.103666666677,
      "d": 140.38417083333297,
      "v": 104
    },
    {
      "midi": 55,
      "hit": false,
      "t": 15999.949333333343,
      "d": 136.5380291666661,
      "v": 100
    },
    {
      "midi": 67,
      "hit": false,
      "t": 15999.949333333343,
      "d": 138.46109999999862,
      "v": 97
    },
    {
      "midi": 55,
      "hit": false,
      "t": 16153.79500000001,
      "d": 138.46110000000044,
      "v": 96
    },
    {
      "midi": 67,
      "hit": false,
      "t": 16153.79500000001,
      "d": 138.46110000000044,
      "v": 104
    },
    {
      "midi": 67,
      "hit": false,
      "t": 16307.640666666677,
      "d": 134.61495833333174,
      "v": 100
    },
    {
      "midi": 55,
      "hit": false,
      "t": 16307.640666666677,
      "d": 140.38417083333115,
      "v": 99
    },
    {
      "midi": 67,
      "hit": false,
      "t": 16461.48633333334,
      "d": 138.46110000000044,
      "v": 97
    },
    {
      "midi": 55,
      "hit": false,
      "t": 16461.48633333334,
      "d": 142.3072416666655,
      "v": 100
    },
    {
      "midi": 67,
      "hit": false,
      "t": 16615.332000000006,
      "d": 140.3841708333348,
      "v": 108
    },
    {
      "midi": 55,
      "hit": false,
      "t": 16615.332000000006,
      "d": 142.30724166666914,
      "v": 102
    },
    {
      "midi": 31,
      "hit": false,
      "t": 16615.332000000013,
      "d": 134.61495833333174,
      "v": 101
    },
    {
      "midi": 43,
      "hit": false,
      "t": 16615.332000000013,
      "d": 140.38417083333115,
      "v": 101
    },
    {
      "midi": 67,
      "hit": false,
      "t": 16769.177666666674,
      "d": 134.61495833333174,
      "v": 103
    },
    {
      "midi": 55,
      "hit": false,
      "t": 16769.177666666674,
      "d": 136.5380291666661,
      "v": 97
    },
    {
      "midi": 45,
      "hit": false,
      "t": 16769.177666666677,
      "d": 138.46110000000044,
      "v": 101
    },
    {
      "midi": 33,
      "hit": false,
      "t": 16769.177666666677,
      "d": 140.3841708333348,
      "v": 100
    },
    {
      "midi": 67,
      "hit": false,
      "t": 16923.023333333338,
      "d": 134.61495833333174,
      "v": 99
    },
    {
      "midi": 55,
      "hit": false,
      "t": 16923.023333333338,
      "d": 142.3072416666655,
      "v": 99
    },
    {
      "midi": 46,
      "hit": false,
      "t": 16923.023333333345,
      "d": 138.46110000000044,
      "v": 103
    },
    {
      "midi": 34,
      "hit": false,
      "t": 16923.023333333345,
      "d": 140.3841708333348,
      "v": 102
    },
    {
      "midi": 67,
      "hit": false,
      "t": 17076.869000000002,
      "d": 138.46110000000044,
      "v": 100
    },
    {
      "midi": 55,
      "hit": false,
      "t": 17076.869000000002,
      "d": 142.3072416666655,
      "v": 96
    },
    {
      "midi": 36,
      "hit": false,
      "t": 17076.869000000013,
      "d": 134.61495833333174,
      "v": 98
    },
    {
      "midi": 48,
      "hit": false,
      "t": 17076.869000000013,
      "d": 142.3072416666655,
      "v": 102
    },
    {
      "midi": 67,
      "hit": false,
      "t": 17230.714666666667,
      "d": 134.61495833333174,
      "v": 97
    },
    {
      "midi": 55,
      "hit": false,
      "t": 17230.714666666667,
      "d": 140.38417083333115,
      "v": 102
    },
    {
      "midi": 50,
      "hit": false,
      "t": 17230.714666666678,
      "d": 136.5380291666661,
      "v": 104
    },
    {
      "midi": 38,
      "hit": false,
      "t": 17230.714666666678,
      "d": 142.3072416666655,
      "v": 99
    },
    {
      "midi": 67,
      "hit": false,
      "t": 17384.56033333333,
      "d": 134.61495833333174,
      "v": 98
    },
    {
      "midi": 55,
      "hit": false,
      "t": 17384.56033333333,
      "d": 138.4610999999968,
      "v": 101
    },
    {
      "midi": 39,
      "hit": false,
      "t": 17384.560333333342,
      "d": 134.61495833333174,
      "v": 101
    },
    {
      "midi": 51,
      "hit": false,
      "t": 17384.560333333342,
      "d": 140.38417083333115,
      "v": 104
    },
    {
      "midi": 55,
      "hit": false,
      "t": 17538.405999999995,
      "d": 134.61495833333174,
      "v": 103
    },
    {
      "midi": 67,
      "hit": false,
      "t": 17538.405999999995,
      "d": 142.3072416666655,
      "v": 104
    },
    {
      "midi": 50,
      "hit": false,
      "t": 17538.406000000006,
      "d": 211.53779166666573,
      "v": 104
    },
    {
      "midi": 38,
      "hit": false,
      "t": 17538.406000000006,
      "d": 219.2300749999995,
      "v": 99
    },
    {
      "midi": 55,
      "hit": false,
      "t": 17692.25166666666,
      "d": 136.5380291666661,
      "v": 97
    },
    {
      "midi": 67,
      "hit": false,
      "t": 17692.25166666666,
      "d": 142.3072416666655,
      "v": 103
    },
    {
      "midi": 67,
      "hit": false,
      "t": 17846.097333333324,
      "d": 136.5380291666661,
      "v": 99
    },
    {
      "midi": 55,
      "hit": false,
      "t": 17846.097333333324,
      "d": 140.38417083333115,
      "v": 103
    },
    {
      "midi": 55,
      "hit": false,
      "t": 17999.94299999999,
      "d": 136.5380291666661,
      "v": 103
    },
    {
      "midi": 67,
      "hit": false,
      "t": 17999.94299999999,
      "d": 138.46110000000044,
      "v": 103
    },
    {
      "midi": 46,
      "hit": false,
      "t": 17999.943000000007,
      "d": 211.53779166666573,
      "v": 104
    },
    {
      "midi": 34,
      "hit": false,
      "t": 17999.943000000007,
      "d": 217.30700416666514,
      "v": 97
    },
    {
      "midi": 55,
      "hit": false,
      "t": 18153.788666666656,
      "d": 140.3841708333348,
      "v": 99
    },
    {
      "midi": 67,
      "hit": false,
      "t": 18153.788666666656,
      "d": 140.3841708333348,
      "v": 101
    },
    {
      "midi": 55,
      "hit": false,
      "t": 18307.634333333324,
      "d": 138.46110000000044,
      "v": 101
    },
    {
      "midi": 67,
      "hit": false,
      "t": 18307.634333333324,
      "d": 138.46110000000044,
      "v": 103
    },
    {
      "midi": 55,
      "hit": false,
      "t": 18461.479999999992,
      "d": 138.46110000000044,
      "v": 101
    },
    {
      "midi": 67,
      "hit": false,
      "t": 18461.479999999992,
      "d": 140.3841708333348,
      "v": 106
    },
    {
      "midi": 31,
      "hit": false,
      "t": 18461.480000000007,
      "d": 211.53779166666573,
      "v": 105
    },
    {
      "midi": 43,
      "hit": false,
      "t": 18461.480000000007,
      "d": 211.53779166666573,
      "v": 108
    },
    {
      "midi": 55,
      "hit": false,
      "t": 18615.32566666666,
      "d": 142.3072416666655,
      "v": 98
    },
    {
      "midi": 67,
      "hit": false,
      "t": 18615.32566666666,
      "d": 142.3072416666655,
      "v": 100
    },
    {
      "midi": 55,
      "hit": false,
      "t": 18769.171333333325,
      "d": 140.3841708333348,
      "v": 100
    },
    {
      "midi": 67,
      "hit": false,
      "t": 18769.171333333325,
      "d": 140.3841708333348,
      "v": 98
    },
    {
      "midi": 67,
      "hit": false,
      "t": 18923.016999999993,
      "d": 136.5380291666661,
      "v": 96
    },
    {
      "midi": 55,
      "hit": false,
      "t": 18923.016999999993,
      "d": 138.46110000000044,
      "v": 96
    },
    {
      "midi": 67,
      "hit": false,
      "t": 19076.86266666666,
      "d": 134.61495833333174,
      "v": 96
    },
    {
      "midi": 55,
      "hit": false,
      "t": 19076.86266666666,
      "d": 140.38417083333115,
      "v": 99
    },
    {
      "midi": 55,
      "hit": false,
      "t": 19230.708333333325,
      "d": 138.46110000000044,
      "v": 98
    },
    {
      "midi": 67,
      "hit": false,
      "t": 19230.708333333325,
      "d": 142.3072416666655,
      "v": 97
    },
    {
      "midi": 55,
      "hit": false,
      "t": 19384.55399999999,
      "d": 134.61495833333174,
      "v": 99
    },
    {
      "midi": 67,
      "hit": false,
      "t": 19384.55399999999,
      "d": 136.5380291666661,
      "v": 104
    },
    {
      "midi": 55,
      "hit": false,
      "t": 19538.399666666654,
      "d": 140.3841708333348,
      "v": 100
    },
    {
      "midi": 67,
      "hit": false,
      "t": 19538.399666666654,
      "d": 140.3841708333348,
      "v": 101
    },
    {
      "midi": 55,
      "hit": false,
      "t": 19692.24533333332,
      "d": 136.5380291666661,
      "v": 104
    },
    {
      "midi": 67,
      "hit": false,
      "t": 19692.24533333332,
      "d": 138.46110000000044,
      "v": 100
    },
    {
      "midi": 55,
      "hit": false,
      "t": 19846.09099999999,
      "d": 134.61495833333174,
      "v": 99
    },
    {
      "midi": 67,
      "hit": false,
      "t": 19846.09099999999,
      "d": 138.4610999999968,
      "v": 97
    },
    {
      "midi": 55,
      "hit": false,
      "t": 19999.936666666654,
      "d": 140.3841708333348,
      "v": 102
    },
    {
      "midi": 67,
      "hit": false,
      "t": 19999.936666666654,
      "d": 140.3841708333348,
      "v": 96
    },
    {
      "midi": 55,
      "hit": false,
      "t": 20153.78233333332,
      "d": 140.3841708333348,
      "v": 100
    },
    {
      "midi": 67,
      "hit": false,
      "t": 20153.78233333332,
      "d": 140.3841708333348,
      "v": 99
    },
    {
      "midi": 67,
      "hit": false,
      "t": 20307.62799999999,
      "d": 134.61495833333174,
      "v": 105
    },
    {
      "midi": 55,
      "hit": false,
      "t": 20307.62799999999,
      "d": 142.3072416666655,
      "v": 107
    },
    {
      "midi": 31,
      "hit": false,
      "t": 20307.628000000004,
      "d": 138.46110000000044,
      "v": 101
    },
    {
      "midi": 43,
      "hit": false,
      "t": 20307.628000000004,
      "d": 138.46110000000044,
      "v": 102
    },
    {
      "midi": 55,
      "hit": false,
      "t": 20461.473666666654,
      "d": 138.46110000000044,
      "v": 101
    },
    {
      "midi": 67,
      "hit": false,
      "t": 20461.473666666654,
      "d": 142.3072416666655,
      "v": 100
    },
    {
      "midi": 31,
      "hit": false,
      "t": 20461.473666666672,
      "d": 136.5380291666661,
      "v": 97
    },
    {
      "midi": 45,
      "hit": false,
      "t": 20461.473666666672,
      "d": 138.46110000000044,
      "v": 99
    },
    {
      "midi": 67,
      "hit": false,
      "t": 20615.31933333332,
      "d": 140.3841708333348,
      "v": 98
    },
    {
      "midi": 55,
      "hit": false,
      "t": 20615.31933333332,
      "d": 142.30724166666914,
      "v": 101
    },
    {
      "midi": 46,
      "hit": false,
      "t": 20615.31933333334,
      "d": 134.61495833333174,
      "v": 104
    },
    {
      "midi": 34,
      "hit": false,
      "t": 20615.31933333334,
      "d": 136.5380291666661,
      "v": 104
    },
    {
      "midi": 55,
      "hit": false,
      "t": 20769.164999999986,
      "d": 134.61495833333174,
      "v": 102
    },
    {
      "midi": 67,
      "hit": false,
      "t": 20769.164999999986,
      "d": 140.38417083333115,
      "v": 98
    },
    {
      "midi": 48,
      "hit": false,
      "t": 20769.165000000005,
      "d": 134.61495833333174,
      "v": 96
    },
    {
      "midi": 36,
      "hit": false,
      "t": 20769.165000000005,
      "d": 138.4610999999968,
      "v": 101
    },
    {
      "midi": 55,
      "hit": false,
      "t": 20923.01066666665,
      "d": 140.3841708333348,
      "v": 100
    },
    {
      "midi": 67,
      "hit": false,
      "t": 20923.01066666665,
      "d": 142.30724166666914,
      "v": 100
    },
    {
      "midi": 50,
      "hit": false,
      "t": 20923.01066666667,
      "d": 134.61495833333174,
      "v": 101
    },
    {
      "midi": 38,
      "hit": false,
      "t": 20923.01066666667,
      "d": 136.5380291666661,
      "v": 102
    },
    {
      "midi": 55,
      "hit": false,
      "t": 21076.85633333332,
      "d": 136.5380291666661,
      "v": 99
    },
    {
      "midi": 67,
      "hit": false,
      "t": 21076.85633333332,
      "d": 138.46110000000044,
      "v": 102
    },
    {
      "midi": 39,
      "hit": false,
      "t": 21076.856333333333,
      "d": 138.46110000000044,
      "v": 104
    },
    {
      "midi": 51,
      "hit": false,
      "t": 21076.856333333333,
      "d": 142.3072416666655,
      "v": 99
    },
    {
      "midi": 55,
      "hit": false,
      "t": 21230.701999999987,
      "d": 134.61495833333174,
      "v": 102
    },
    {
      "midi": 67,
      "hit": false,
      "t": 21230.701999999987,
      "d": 136.5380291666661,
      "v": 103
    },
    {
      "midi": 38,
      "hit": false,
      "t": 21230.701999999997,
      "d": 213.46086250000008,
      "v": 105
    },
    {
      "midi": 50,
      "hit": false,
      "t": 21230.701999999997,
      "d": 219.2300749999995,
      "v": 102
    },
    {
      "midi": 67,
      "hit": false,
      "t": 21384.54766666665,
      "d": 134.61495833333174,
      "v": 103
    },
    {
      "midi": 55,
      "hit": false,
      "t": 21384.54766666665,
      "d": 142.3072416666655,
      "v": 102
    },
    {
      "midi": 55,
      "hit": false,
      "t": 21538.393333333315,
      "d": 140.3841708333348,
      "v": 101
    },
    {
      "midi": 67,
      "hit": false,
      "t": 21538.393333333315,
      "d": 142.30724166666914,
      "v": 98
    },
    {
      "midi": 67,
      "hit": false,
      "t": 21692.238999999983,
      "d": 134.61495833333174,
      "v": 96
    },
    {
      "midi": 55,
      "hit": false,
      "t": 21692.238999999983,
      "d": 136.5380291666661,
      "v": 97
    },
    {
      "midi": 46,
      "hit": false,
      "t": 21692.238999999998,
      "d": 211.53779166666573,
      "v": 103
    },
    {
      "midi": 34,
      "hit": false,
      "t": 21692.238999999998,
      "d": 219.2300749999995,
      "v": 103
    },
    {
      "midi": 55,
      "hit": false,
      "t": 21846.084666666648,
      "d": 134.61495833333174,
      "v": 99
    },
    {
      "midi": 67,
      "hit": false,
      "t": 21846.084666666648,
      "d": 134.61495833333174,
      "v": 101
    },
    {
      "midi": 67,
      "hit": false,
      "t": 21999.930333333312,
      "d": 140.3841708333348,
      "v": 104
    },
    {
      "midi": 55,
      "hit": false,
      "t": 21999.930333333312,
      "d": 142.30724166666914,
      "v": 98
    },
    {
      "midi": 55,
      "hit": false,
      "t": 22153.77599999998,
      "d": 138.46110000000044,
      "v": 107
    },
    {
      "midi": 67,
      "hit": false,
      "t": 22153.77599999998,
      "d": 138.46110000000044,
      "v": 103
    },
    {
      "midi": 29,
      "hit": false,
      "t": 22153.775999999998,
      "d": 213.46086250000008,
      "v": 107
    },
    {
      "midi": 43,
      "hit": false,
      "t": 22153.775999999998,
      "d": 217.30700416666514,
      "v": 107
    },
    {
      "midi": 55,
      "hit": false,
      "t": 22307.621666666648,
      "d": 136.5380291666661,
      "v": 97
    },
    {
      "midi": 67,
      "hit": false,
      "t": 22307.621666666648,
      "d": 138.46110000000044,
      "v": 99
    },
    {
      "midi": 55,
      "hit": false,
      "t": 22461.467333333316,
      "d": 138.46110000000044,
      "v": 97
    },
    {
      "midi": 67,
      "hit": false,
      "t": 22461.467333333316,
      "d": 138.46110000000044,
      "v": 104
    },
    {
      "midi": 67,
      "hit": false,
      "t": 22615.312999999984,
      "d": 134.61495833333174,
      "v": 103
    },
    {
      "midi": 55,
      "hit": false,
      "t": 22615.312999999984,
      "d": 136.5380291666661,
      "v": 97
    },
    {
      "midi": 55,
      "hit": false,
      "t": 22769.158666666648,
      "d": 136.5380291666661,
      "v": 97
    },
    {
      "midi": 67,
      "hit": false,
      "t": 22769.158666666648,
      "d": 140.38417083333115,
      "v": 98
    },
    {
      "midi": 55,
      "hit": false,
      "t": 22923.004333333312,
      "d": 142.3072416666655,
      "v": 101
    },
    {
      "midi": 67,
      "hit": false,
      "t": 22923.004333333312,
      "d": 142.3072416666655,
      "v": 97
    },
    {
      "midi": 55,
      "hit": false,
      "t": 23076.849999999977,
      "d": 140.3841708333348,
      "v": 104
    },
    {
      "midi": 67,
      "hit": false,
      "t": 23076.849999999977,
      "d": 142.30724166666914,
      "v": 104
    },
    {
      "midi": 67,
      "hit": false,
      "t": 23230.695666666645,
      "d": 136.5380291666661,
      "v": 98
    },
    {
      "midi": 55,
      "hit": false,
      "t": 23230.695666666645,
      "d": 142.3072416666655,
      "v": 96
    },
    {
      "midi": 55,
      "hit": false,
      "t": 23384.54133333331,
      "d": 134.61495833333174,
      "v": 97
    },
    {
      "midi": 67,
      "hit": false,
      "t": 23384.54133333331,
      "d": 134.61495833333174,
      "v": 104
    },
    {
      "midi": 55,
      "hit": false,
      "t": 23538.386999999973,
      "d": 138.46110000000044,
      "v": 104
    },
    {
      "midi": 67,
      "hit": false,
      "t": 23538.386999999973,
      "d": 140.3841708333348,
      "v": 101
    },
    {
      "midi": 67,
      "hit": false,
      "t": 23692.23266666664,
      "d": 140.3841708333348,
      "v": 98
    },
    {
      "midi": 55,
      "hit": false,
      "t": 23692.23266666664,
      "d": 142.30724166666914,
      "v": 99
    },
    {
      "midi": 67,
      "hit": false,
      "t": 23846.07833333331,
      "d": 134.61495833333174,
      "v": 99
    },
    {
      "midi": 55,
      "hit": false,
      "t": 23846.07833333331,
      "d": 142.3072416666655,
      "v": 101
    },
    {
      "midi": 57,
      "hit": false,
      "t": 23999.923999999974,
      "d": 134.61495833333174,
      "v": 75
    },
    {
      "midi": 67,
      "hit": false,
      "t": 23999.923999999974,
      "d": 136.5380291666661,
      "v": 76
    },
    {
      "midi": 69,
      "hit": false,
      "t": 23999.923999999974,
      "d": 140.38417083333115,
      "v": 71
    },
    {
      "midi": 48,
      "hit": false,
      "t": 23999.923999999995,
      "d": 1828.8403624999992,
      "v": 72
    },
    {
      "midi": 36,
      "hit": false,
      "t": 23999.923999999995,
      "d": 1830.7634333333335,
      "v": 74
    },
    {
      "midi": 57,
      "hit": false,
      "t": 24153.769666666638,
      "d": 136.5380291666661,
      "v": 71
    },
    {
      "midi": 67,
      "hit": false,
      "t": 24153.769666666638,
      "d": 136.5380291666661,
      "v": 72
    },
    {
      "midi": 69,
      "hit": false,
      "t": 24153.769666666638,
      "d": 138.46110000000044,
      "v": 70
    },
    {
      "midi": 67,
      "hit": false,
      "t": 24307.615333333306,
      "d": 138.46110000000044,
      "v": 67
    },
    {
      "midi": 57,
      "hit": false,
      "t": 24307.615333333306,
      "d": 140.3841708333348,
      "v": 72
    },
    {
      "midi": 69,
      "hit": false,
      "t": 24307.615333333306,
      "d": 142.30724166666914,
      "v": 72
    },
    {
      "midi": 69,
      "hit": false,
      "t": 24461.460999999974,
      "d": 134.61495833333174,
      "v": 72
    },
    {
      "midi": 67,
      "hit": false,
      "t": 24461.460999999974,
      "d": 136.5380291666661,
      "v": 75
    },
    {
      "midi": 57,
      "hit": false,
      "t": 24461.460999999974,
      "d": 138.46110000000044,
      "v": 73
    },
    {
      "midi": 57,
      "hit": false,
      "t": 24615.306666666642,
      "d": 138.46110000000044,
      "v": 75
    },
    {
      "midi": 67,
      "hit": false,
      "t": 24615.306666666642,
      "d": 138.46110000000044,
      "v": 72
    },
    {
      "midi": 69,
      "hit": false,
      "t": 24615.306666666642,
      "d": 140.3841708333348,
      "v": 75
    },
    {
      "midi": 69,
      "hit": false,
      "t": 24769.15233333331,
      "d": 136.5380291666661,
      "v": 69
    },
    {
      "midi": 57,
      "hit": false,
      "t": 24769.15233333331,
      "d": 138.46110000000044,
      "v": 68
    },
    {
      "midi": 67,
      "hit": false,
      "t": 24769.15233333331,
      "d": 140.3841708333348,
      "v": 71
    },
    {
      "midi": 67,
      "hit": false,
      "t": 24922.997999999978,
      "d": 134.61495833333174,
      "v": 74
    },
    {
      "midi": 69,
      "hit": false,
      "t": 24922.997999999978,
      "d": 136.5380291666661,
      "v": 73
    },
    {
      "midi": 57,
      "hit": false,
      "t": 24922.997999999978,
      "d": 140.38417083333115,
      "v": 77
    },
    {
      "midi": 67,
      "hit": false,
      "t": 25076.843666666642,
      "d": 134.61495833333174,
      "v": 68
    },
    {
      "midi": 57,
      "hit": false,
      "t": 25076.843666666642,
      "d": 140.38417083333115,
      "v": 71
    },
    {
      "midi": 69,
      "hit": false,
      "t": 25076.843666666642,
      "d": 140.38417083333115,
      "v": 74
    },
    {
      "midi": 57,
      "hit": false,
      "t": 25230.689333333306,
      "d": 138.46110000000044,
      "v": 71
    },
    {
      "midi": 67,
      "hit": false,
      "t": 25230.689333333306,
      "d": 140.3841708333348,
      "v": 71
    },
    {
      "midi": 69,
      "hit": false,
      "t": 25230.689333333306,
      "d": 142.30724166666914,
      "v": 67
    },
    {
      "midi": 69,
      "hit": false,
      "t": 25384.534999999974,
      "d": 136.5380291666661,
      "v": 71
    },
    {
      "midi": 67,
      "hit": false,
      "t": 25384.534999999974,
      "d": 138.46110000000044,
      "v": 72
    },
    {
      "midi": 57,
      "hit": false,
      "t": 25384.534999999974,
      "d": 140.3841708333348,
      "v": 75
    },
    {
      "midi": 67,
      "hit": false,
      "t": 25538.380666666642,
      "d": 136.5380291666661,
      "v": 74
    },
    {
      "midi": 69,
      "hit": false,
      "t": 25538.380666666642,
      "d": 138.46110000000044,
      "v": 69
    },
    {
      "midi": 57,
      "hit": false,
      "t": 25538.380666666642,
      "d": 142.3072416666655,
      "v": 73
    },
    {
      "midi": 67,
      "hit": false,
      "t": 25692.226333333307,
      "d": 134.61495833333174,
      "v": 74
    },
    {
      "midi": 57,
      "hit": false,
      "t": 25692.226333333307,
      "d": 136.5380291666661,
      "v": 68
    },
    {
      "midi": 69,
      "hit": false,
      "t": 25692.226333333307,
      "d": 140.38417083333115,
      "v": 67
    },
    {
      "midi": 67,
      "hit": false,
      "t": 25846.07199999997,
      "d": 134.61495833333174,
      "v": 73
    },
    {
      "midi": 70,
      "hit": false,
      "t": 25846.07199999997,
      "d": 140.38417083333115,
      "v": 78
    },
    {
      "midi": 58,
      "hit": false,
      "t": 25846.07199999997,
      "d": 142.3072416666655,
      "v": 73
    },
    {
      "midi": 37,
      "hit": false,
      "t": 25846.071999999996,
      "d": 1828.8403624999992,
      "v": 74
    },
    {
      "midi": 49,
      "hit": false,
      "t": 25846.071999999996,
      "d": 1830.7634333333335,
      "v": 71
    },
    {
      "midi": 67,
      "hit": false,
      "t": 25999.917666666635,
      "d": 134.61495833333174,
      "v": 67
    },
    {
      "midi": 58,
      "hit": false,
      "t": 25999.917666666635,
      "d": 136.5380291666661,
      "v": 67
    },
    {
      "midi": 70,
      "hit": false,
      "t": 25999.917666666635,
      "d": 140.38417083333115,
      "v": 67
    },
    {
      "midi": 67,
      "hit": false,
      "t": 26153.7633333333,
      "d": 134.61495833333174,
      "v": 72
    },
    {
      "midi": 70,
      "hit": false,
      "t": 26153.7633333333,
      "d": 134.61495833333174,
      "v": 75
    },
    {
      "midi": 58,
      "hit": false,
      "t": 26153.7633333333,
      "d": 140.38417083333115,
      "v": 69
    },
    {
      "midi": 58,
      "hit": false,
      "t": 26307.608999999964,
      "d": 138.46110000000044,
      "v": 73
    },
    {
      "midi": 67,
      "hit": false,
      "t": 26307.608999999964,
      "d": 142.3072416666655,
      "v": 68
    },
    {
      "midi": 70,
      "hit": false,
      "t": 26307.608999999964,
      "d": 142.3072416666655,
      "v": 74
    },
    {
      "midi": 58,
      "hit": false,
      "t": 26461.45466666663,
      "d": 134.61495833333174,
      "v": 67
    },
    {
      "midi": 70,
      "hit": false,
      "t": 26461.45466666663,
      "d": 140.38417083333115,
      "v": 75
    },
    {
      "midi": 67,
      "hit": false,
      "t": 26461.45466666663,
      "d": 142.3072416666655,
      "v": 70
    },
    {
      "midi": 70,
      "hit": false,
      "t": 26615.300333333293,
      "d": 134.61495833333174,
      "v": 73
    },
    {
      "midi": 58,
      "hit": false,
      "t": 26615.300333333293,
      "d": 140.38417083333115,
      "v": 67
    },
    {
      "midi": 67,
      "hit": false,
      "t": 26615.300333333293,
      "d": 140.38417083333115,
      "v": 73
    },
    {
      "midi": 67,
      "hit": false,
      "t": 26769.145999999957,
      "d": 134.61495833333174,
      "v": 74
    },
    {
      "midi": 70,
      "hit": false,
      "t": 26769.145999999957,
      "d": 134.61495833333174,
      "v": 76
    },
    {
      "midi": 58,
      "hit": false,
      "t": 26769.145999999957,
      "d": 136.5380291666661,
      "v": 77
    },
    {
      "midi": 67,
      "hit": false,
      "t": 26922.99166666662,
      "d": 136.5380291666661,
      "v": 67
    },
    {
      "midi": 70,
      "hit": false,
      "t": 26922.99166666662,
      "d": 136.5380291666661,
      "v": 67
    },
    {
      "midi": 58,
      "hit": false,
      "t": 26922.99166666662,
      "d": 140.38417083333115,
      "v": 72
    },
    {
      "midi": 70,
      "hit": false,
      "t": 27076.837333333286,
      "d": 136.5380291666661,
      "v": 75
    },
    {
      "midi": 67,
      "hit": false,
      "t": 27076.837333333286,
      "d": 140.38417083333115,
      "v": 72
    },
    {
      "midi": 58,
      "hit": false,
      "t": 27076.837333333286,
      "d": 142.3072416666655,
      "v": 69
    },
    {
      "midi": 64,
      "hit": false,
      "t": 27230.68299999995,
      "d": 138.46110000000044,
      "v": 67
    },
    {
      "midi": 58,
      "hit": false,
      "t": 27230.68299999995,
      "d": 140.3841708333348,
      "v": 72
    },
    {
      "midi": 67,
      "hit": false,
      "t": 27230.68299999995,
      "d": 142.30724166666914,
      "v": 67
    },
    {
      "midi": 58,
      "hit": false,
      "t": 27384.528666666618,
      "d": 134.61495833333174,
      "v": 72
    },
    {
      "midi": 67,
      "hit": false,
      "t": 27384.528666666618,
      "d": 140.38417083333115,
      "v": 68
    },
    {
      "midi": 64,
      "hit": false,
      "t": 27384.528666666618,
      "d": 142.3072416666655,
      "v": 72
    },
    {
      "midi": 64,
      "hit": false,
      "t": 27538.374333333282,
      "d": 136.5380291666661,
      "v": 71
    },
    {
      "midi": 58,
      "hit": false,
      "t": 27538.374333333282,
      "d": 138.46110000000044,
      "v": 74
    },
    {
      "midi": 67,
      "hit": false,
      "t": 27538.374333333282,
      "d": 140.3841708333348,
      "v": 68
    },
    {
      "midi": 62,
      "hit": false,
      "t": 27692.21999999995,
      "d": 134.61495833333174,
      "v": 72
    },
    {
      "midi": 66,
      "hit": false,
      "t": 27692.21999999995,
      "d": 134.61495833333174,
      "v": 77
    },
    {
      "midi": 57,
      "hit": false,
      "t": 27692.21999999995,
      "d": 142.3072416666655,
      "v": 74
    },
    {
      "midi": 38,
      "hit": false,
      "t": 27692.219999999998,
      "d": 142.3072416666655,
      "v": 79
    },
    {
      "midi": 57,
      "hit": false,
      "t": 27846.065666666615,
      "d": 136.5380291666661,
      "v": 67
    },
    {
      "midi": 62,
      "hit": false,
      "t": 27846.065666666615,
      "d": 138.46110000000044,
      "v": 74
    },
    {
      "midi": 66,
      "hit": false,
      "t": 27846.065666666615,
      "d": 138.46110000000044,
      "v": 75
    },
    {
      "midi": 42,
      "hit": false,
      "t": 27846.065666666662,
      "d": 138.46110000000044,
      "v": 73
    },
    {
      "midi": 62,
      "hit": false,
      "t": 27999.911333333283,
      "d": 136.5380291666661,
      "v": 75
    },
    {
      "midi": 66,
      "hit": false,
      "t": 27999.911333333283,
      "d": 136.5380291666661,
      "v": 68
    },
    {
      "midi": 57,
      "hit": false,
      "t": 27999.911333333283,
      "d": 138.46110000000044,
      "v": 74
    },
    {
      "midi": 43,
      "hit": false,
      "t": 27999.91133333333,
      "d": 134.61495833333174,
      "v": 72
    },
    {
      "midi": 57,
      "hit": false,
      "t": 28153.75699999995,
      "d": 134.61495833333174,
      "v": 70
    },
    {
      "midi": 66,
      "hit": false,
      "t": 28153.75699999995,
      "d": 134.61495833333174,
      "v": 71
    },
    {
      "midi": 62,
      "hit": false,
      "t": 28153.75699999995,
      "d": 142.3072416666655,
      "v": 73
    },
    {
      "midi": 45,
      "hit": false,
      "t": 28153.756999999994,
      "d": 142.3072416666655,
      "v": 75
    },
    {
      "midi": 62,
      "hit": false,
      "t": 28307.602666666615,
      "d": 136.5380291666661,
      "v": 70
    },
    {
      "midi": 66,
      "hit": false,
      "t": 28307.602666666615,
      "d": 140.38417083333115,
      "v": 71
    },
    {
      "midi": 57,
      "hit": false,
      "t": 28307.602666666615,
      "d": 142.3072416666655,
      "v": 73
    },
    {
      "midi": 47,
      "hit": false,
      "t": 28307.60266666666,
      "d": 138.46110000000044,
      "v": 71
    },
    {
      "midi": 57,
      "hit": false,
      "t": 28461.44833333328,
      "d": 140.3841708333348,
      "v": 73
    },
    {
      "midi": 62,
      "hit": false,
      "t": 28461.44833333328,
      "d": 140.3841708333348,
      "v": 72
    },
    {
      "midi": 66,
      "hit": false,
      "t": 28461.44833333328,
      "d": 140.3841708333348,
      "v": 71
    },
    {
      "midi": 49,
      "hit": false,
      "t": 28461.448333333326,
      "d": 134.61495833333174,
      "v": 71
    },
    {
      "midi": 57,
      "hit": false,
      "t": 28615.293999999947,
      "d": 136.5380291666661,
      "v": 76
    },
    {
      "midi": 69,
      "hit": false,
      "t": 28615.293999999947,
      "d": 136.5380291666661,
      "v": 70
    },
    {
      "midi": 66,
      "hit": false,
      "t": 28615.293999999947,
      "d": 142.3072416666655,
      "v": 72
    },
    {
      "midi": 50,
      "hit": false,
      "t": 28615.29399999999,
      "d": 446.15243333333274,
      "v": 73
    },
    {
      "midi": 57,
      "hit": false,
      "t": 28769.13966666661,
      "d": 136.5380291666661,
      "v": 71
    },
    {
      "midi": 69,
      "hit": false,
      "t": 28769.13966666661,
      "d": 136.5380291666661,
      "v": 67
    },
    {
      "midi": 66,
      "hit": false,
      "t": 28769.13966666661,
      "d": 142.3072416666655,
      "v": 71
    },
    {
      "midi": 69,
      "hit": false,
      "t": 28922.985333333276,
      "d": 134.61495833333174,
      "v": 72
    },
    {
      "midi": 66,
      "hit": false,
      "t": 28922.985333333276,
      "d": 138.4610999999968,
      "v": 72
    },
    {
      "midi": 57,
      "hit": false,
      "t": 28922.985333333276,
      "d": 142.30724166666187,
      "v": 67
    },
    {
      "midi": 69,
      "hit": false,
      "t": 29076.83099999999,
      "d": 448.0755041666671,
      "v": 68
    },
    {
      "midi": 57,
      "hit": false,
      "t": 29076.83099999999,
      "d": 449.99857500000144,
      "v": 69
    },
    {
      "midi": 66,
      "hit": false,
      "t": 29230.676666666604,
      "d": 134.61495833333174,
      "v": 81
    },
    {
      "midi": 62,
      "hit": false,
      "t": 29230.676666666604,
      "d": 138.4610999999968,
      "v": 80
    },
    {
      "midi": 62,
      "hit": false,
      "t": 29384.52233333327,
      "d": 134.61495833333174,
      "v": 85
    },
    {
      "midi": 66,
      "hit": false,
      "t": 29384.52233333327,
      "d": 138.4610999999968,
      "v": 83
    },
    {
      "midi": 58,
      "hit": false,
      "t": 29538.36799999999,
      "d": 907.689433333333,
      "v": 88
    },
    {
      "midi": 70,
      "hit": false,
      "t": 29538.36799999999,
      "d": 907.689433333333,
      "v": 89
    },
    {
      "midi": 67,
      "hit": false,
      "t": 29692.213666666597,
      "d": 136.5380291666661,
      "v": 78
    },
    {
      "midi": 62,
      "hit": false,
      "t": 29692.213666666597,
      "d": 142.3072416666655,
      "v": 81
    },
    {
      "midi": 67,
      "hit": false,
      "t": 29846.05933333326,
      "d": 134.61495833333174,
      "v": 79
    },
    {
      "midi": 62,
      "hit": false,
      "t": 29846.05933333326,
      "d": 136.5380291666661,
      "v": 79
    },
    {
      "midi": 67,
      "hit": false,
      "t": 29999.904999999926,
      "d": 134.61495833333174,
      "v": 85
    },
    {
      "midi": 62,
      "hit": false,
      "t": 29999.904999999926,
      "d": 142.3072416666655,
      "v": 85
    },
    {
      "midi": 62,
      "hit": false,
      "t": 30153.75066666659,
      "d": 134.61495833333174,
      "v": 82
    },
    {
      "midi": 67,
      "hit": false,
      "t": 30153.75066666659,
      "d": 134.61495833333174,
      "v": 80
    },
    {
      "midi": 67,
      "hit": false,
      "t": 30307.596333333255,
      "d": 134.61495833333174,
      "v": 78
    },
    {
      "midi": 62,
      "hit": false,
      "t": 30307.596333333255,
      "d": 136.5380291666661,
      "v": 79
    },
    {
      "midi": 69,
      "hit": false,
      "t": 30461.441999999992,
      "d": 446.15243333333274,
      "v": 86
    },
    {
      "midi": 57,
      "hit": false,
      "t": 30461.441999999992,
      "d": 449.9985749999978,
      "v": 80
    },
    {
      "midi": 58,
      "hit": false,
      "t": 30615.287666666587,
      "d": 136.5380291666661,
      "v": 83
    },
    {
      "midi": 62,
      "hit": false,
      "t": 30615.287666666587,
      "d": 142.3072416666655,
      "v": 78
    },
    {
      "midi": 58,
      "hit": false,
      "t": 30769.13333333325,
      "d": 138.46110000000044,
      "v": 83
    },
    {
      "midi": 62,
      "hit": false,
      "t": 30769.13333333325,
      "d": 142.3072416666655,
      "v": 78
    },
    {
      "midi": 67,
      "hit": false,
      "t": 30922.97899999999,
      "d": 444.2293624999984,
      "v": 79
    },
    {
      "midi": 55,
      "hit": false,
      "t": 30922.97899999999,
      "d": 449.9985749999978,
      "v": 81
    },
    {
      "midi": 58,
      "hit": false,
      "t": 31076.824666666584,
      "d": 138.46110000000044,
      "v": 79
    },
    {
      "midi": 62,
      "hit": false,
      "t": 31076.824666666584,
      "d": 142.3072416666655,
      "v": 81
    },
    {
      "midi": 62,
      "hit": false,
      "t": 31230.670333333248,
      "d": 140.3841708333348,
      "v": 78
    },
    {
      "midi": 58,
      "hit": false,
      "t": 31230.670333333248,
      "d": 142.30724166666914,
      "v": 83
    },
    {
      "midi": 66,
      "hit": false,
      "t": 31384.515999999916,
      "d": 134.61495833333174,
      "v": 85
    },
    {
      "midi": 62,
      "hit": false,
      "t": 31384.515999999916,
      "d": 138.4610999999968,
      "v": 84
    },
    {
      "midi": 57,
      "hit": false,
      "t": 31384.515999999916,
      "d": 1367.3033624999953,
      "v": 89
    },
    {
      "midi": 69,
      "hit": false,
      "t": 31384.515999999916,
      "d": 1367.3033624999953,
      "v": 87
    },
    {
      "midi": 38,
      "hit": false,
      "t": 31384.515999999985,
      "d": 140.38417083333115,
      "v": 82
    },
    {
      "midi": 66,
      "hit": false,
      "t": 31538.36166666658,
      "d": 136.5380291666661,
      "v": 83
    },
    {
      "midi": 62,
      "hit": false,
      "t": 31538.36166666658,
      "d": 142.3072416666655,
      "v": 77
    },
    {
      "midi": 42,
      "hit": false,
      "t": 31538.36166666665,
      "d": 134.61495833333538,
      "v": 81
    },
    {
      "midi": 62,
      "hit": false,
      "t": 31692.20733333325,
      "d": 136.5380291666661,
      "v": 77
    },
    {
      "midi": 66,
      "hit": false,
      "t": 31692.20733333325,
      "d": 138.46110000000044,
      "v": 80
    },
    {
      "midi": 43,
      "hit": false,
      "t": 31692.207333333317,
      "d": 138.4610999999968,
      "v": 79
    },
    {
      "midi": 62,
      "hit": false,
      "t": 31846.052999999916,
      "d": 136.5380291666661,
      "v": 77
    },
    {
      "midi": 66,
      "hit": false,
      "t": 31846.052999999916,
      "d": 140.38417083333115,
      "v": 78
    },
    {
      "midi": 45,
      "hit": false,
      "t": 31846.05299999998,
      "d": 134.61495833333538,
      "v": 81
    },
    {
      "midi": 66,
      "hit": false,
      "t": 31999.89866666658,
      "d": 138.4610999999968,
      "v": 77
    },
    {
      "midi": 62,
      "hit": false,
      "t": 31999.89866666658,
      "d": 142.30724166666187,
      "v": 81
    },
    {
      "midi": 47,
      "hit": false,
      "t": 31999.89866666665,
      "d": 136.5380291666661,
      "v": 81
    },
    {
      "midi": 66,
      "hit": false,
      "t": 32153.74433333324,
      "d": 134.61495833333174,
      "v": 80
    },
    {
      "midi": 62,
      "hit": false,
      "t": 32153.74433333324,
      "d": 142.3072416666655,
      "v": 78
    },
    {
      "midi": 49,
      "hit": false,
      "t": 32153.744333333314,
      "d": 138.46110000000044,
      "v": 84
    },
    {
      "midi": 66,
      "hit": false,
      "t": 32307.58999999991,
      "d": 140.3841708333348,
      "v": 80
    },
    {
      "midi": 62,
      "hit": false,
      "t": 32307.58999999991,
      "d": 142.30724166666914,
      "v": 86
    },
    {
      "midi": 50,
      "hit": false,
      "t": 32307.589999999982,
      "d": 448.0755041666671,
      "v": 87
    },
    {
      "midi": 66,
      "hit": false,
      "t": 32461.435666666577,
      "d": 138.46110000000044,
      "v": 83
    },
    {
      "midi": 62,
      "hit": false,
      "t": 32461.435666666577,
      "d": 140.3841708333348,
      "v": 79
    },
    {
      "midi": 62,
      "hit": false,
      "t": 32615.281333333245,
      "d": 134.61495833333174,
      "v": 82
    },
    {
      "midi": 66,
      "hit": false,
      "t": 32615.281333333245,
      "d": 136.5380291666661,
      "v": 81
    },
    {
      "midi": 66,
      "hit": false,
      "t": 32769.12699999991,
      "d": 134.61495833333174,
      "v": 83
    },
    {
      "midi": 62,
      "hit": false,
      "t": 32769.12699999991,
      "d": 136.5380291666661,
      "v": 78
    },
    {
      "midi": 69,
      "hit": false,
      "t": 32769.126999999986,
      "d": 444.229362500002,
      "v": 80
    },
    {
      "midi": 57,
      "hit": false,
      "t": 32769.126999999986,
      "d": 449.9985750000051,
      "v": 79
    },
    {
      "midi": 66,
      "hit": false,
      "t": 32922.97266666658,
      "d": 134.61495833333174,
      "v": 80
    },
    {
      "midi": 62,
      "hit": false,
      "t": 32922.97266666658,
      "d": 138.46110000000044,
      "v": 84
    },
    {
      "midi": 66,
      "hit": false,
      "t": 33076.81833333325,
      "d": 140.3841708333348,
      "v": 78
    },
    {
      "midi": 62,
      "hit": false,
      "t": 33076.81833333325,
      "d": 142.30724166666914,
      "v": 78
    },
    {
      "midi": 70,
      "hit": false,
      "t": 33230.66399999999,
      "d": 907.689433333333,
      "v": 87
    },
    {
      "midi": 58,
      "hit": false,
      "t": 33230.66399999999,
      "d": 909.6125041666673,
      "v": 82
    },
    {
      "midi": 62,
      "hit": false,
      "t": 33384.509666666585,
      "d": 134.61495833333174,
      "v": 77
    },
    {
      "midi": 67,
      "hit": false,
      "t": 33384.509666666585,
      "d": 142.30724166666187,
      "v": 84
    },
    {
      "midi": 62,
      "hit": false,
      "t": 33538.355333333246,
      "d": 140.3841708333348,
      "v": 81
    },
    {
      "midi": 67,
      "hit": false,
      "t": 33538.355333333246,
      "d": 140.3841708333348,
      "v": 79
    },
    {
      "midi": 62,
      "hit": false,
      "t": 33692.20099999991,
      "d": 138.46110000000044,
      "v": 81
    },
    {
      "midi": 67,
      "hit": false,
      "t": 33692.20099999991,
      "d": 142.30724166666914,
      "v": 83
    },
    {
      "midi": 62,
      "hit": false,
      "t": 33846.04666666658,
      "d": 134.61495833333174,
      "v": 81
    },
    {
      "midi": 67,
      "hit": false,
      "t": 33846.04666666658,
      "d": 140.3841708333348,
      "v": 80
    },
    {
      "midi": 62,
      "hit": false,
      "t": 33999.89233333325,
      "d": 140.3841708333348,
      "v": 85
    },
    {
      "midi": 67,
      "hit": false,
      "t": 33999.89233333325,
      "d": 140.3841708333348,
      "v": 79
    },
    {
      "midi": 55,
      "hit": false,
      "t": 34153.73799999999,
      "d": 905.7663624999986,
      "v": 85
    },
    {
      "midi": 67,
      "hit": false,
      "t": 34153.73799999999,
      "d": 907.689433333333,
      "v": 78
    },
    {
      "midi": 62,
      "hit": false,
      "t": 34307.583666666585,
      "d": 134.61495833333174,
      "v": 85
    },
    {
      "midi": 58,
      "hit": false,
      "t": 34307.583666666585,
      "d": 140.3841708333348,
      "v": 81
    },
    {
      "midi": 58,
      "hit": false,
      "t": 34461.42933333325,
      "d": 140.3841708333348,
      "v": 81
    },
    {
      "midi": 62,
      "hit": false,
      "t": 34461.42933333325,
      "d": 142.30724166666914,
      "v": 78
    },
    {
      "midi": 62,
      "hit": false,
      "t": 34615.27499999992,
      "d": 134.61495833333174,
      "v": 82
    },
    {
      "midi": 58,
      "hit": false,
      "t": 34615.27499999992,
      "d": 140.3841708333348,
      "v": 82
    },
    {
      "midi": 62,
      "hit": false,
      "t": 34769.12066666659,
      "d": 138.46110000000044,
      "v": 85
    },
    {
      "midi": 58,
      "hit": false,
      "t": 34769.12066666659,
      "d": 142.30724166666914,
      "v": 82
    },
    {
      "midi": 58,
      "hit": false,
      "t": 34922.96633333326,
      "d": 134.61495833333174,
      "v": 77
    },
    {
      "midi": 62,
      "hit": false,
      "t": 34922.96633333326,
      "d": 136.5380291666661,
      "v": 80
    },
    {
      "midi": 66,
      "hit": false,
      "t": 35076.811999999925,
      "d": 134.61495833333902,
      "v": 88
    },
    {
      "midi": 74,
      "hit": false,
      "t": 35076.811999999925,
      "d": 1834.6095750000386,
      "v": 89
    },
    {
      "midi": 38,
      "hit": false,
      "t": 35076.81199999999,
      "d": 138.46109999999317,
      "v": 82
    },
    {
      "midi": 62,
      "hit": false,
      "t": 35230.6576666666,
      "d": 136.5380291666661,
      "v": 85
    },
    {
      "midi": 66,
      "hit": false,
      "t": 35230.6576666666,
      "d": 136.5380291666661,
      "v": 78
    },
    {
      "midi": 57,
      "hit": false,
      "t": 35230.6576666666,
      "d": 142.30724166666914,
      "v": 81
    },
    {
      "midi": 42,
      "hit": false,
      "t": 35230.65766666665,
      "d": 136.5380291666661,
      "v": 78
    },
    {
      "midi": 62,
      "hit": false,
      "t": 35384.50333333327,
      "d": 134.61495833333902,
      "v": 80
    },
    {
      "midi": 57,
      "hit": false,
      "t": 35384.50333333327,
      "d": 136.53802916667337,
      "v": 85
    },
    {
      "midi": 66,
      "hit": false,
      "t": 35384.50333333327,
      "d": 140.38417083334207,
      "v": 78
    },
    {
      "midi": 43,
      "hit": false,
      "t": 35384.50333333332,
      "d": 140.3841708333348,
      "v": 80
    },
    {
      "midi": 57,
      "hit": false,
      "t": 35538.348999999944,
      "d": 136.5380291666661,
      "v": 80
    },
    {
      "midi": 62,
      "hit": false,
      "t": 35538.348999999944,
      "d": 138.46110000000044,
      "v": 81
    },
    {
      "midi": 66,
      "hit": false,
      "t": 35538.348999999944,
      "d": 142.30724166666914,
      "v": 84
    },
    {
      "midi": 45,
      "hit": false,
      "t": 35538.34899999999,
      "d": 138.46110000000044,
      "v": 85
    },
    {
      "midi": 66,
      "hit": false,
      "t": 35692.19466666661,
      "d": 134.61495833333174,
      "v": 80
    },
    {
      "midi": 57,
      "hit": false,
      "t": 35692.19466666661,
      "d": 138.46110000000044,
      "v": 80
    },
    {
      "midi": 62,
      "hit": false,
      "t": 35692.19466666661,
      "d": 142.30724166666914,
      "v": 79
    },
    {
      "midi": 47,
      "hit": false,
      "t": 35692.194666666655,
      "d": 138.46110000000044,
      "v": 85
    },
    {
      "midi": 57,
      "hit": false,
      "t": 35846.04033333328,
      "d": 134.61495833333902,
      "v": 77
    },
    {
      "midi": 62,
      "hit": false,
      "t": 35846.04033333328,
      "d": 134.61495833333902,
      "v": 79
    },
    {
      "midi": 66,
      "hit": false,
      "t": 35846.04033333328,
      "d": 140.38417083334207,
      "v": 80
    },
    {
      "midi": 49,
      "hit": false,
      "t": 35846.04033333332,
      "d": 142.30724166666914,
      "v": 79
    },
    {
      "midi": 62,
      "hit": false,
      "t": 35999.885999999955,
      "d": 140.3841708333348,
      "v": 81
    },
    {
      "midi": 57,
      "hit": false,
      "t": 35999.885999999955,
      "d": 142.30724166666914,
      "v": 87
    },
    {
      "midi": 66,
      "hit": false,
      "t": 35999.885999999955,
      "d": 142.30724166666914,
      "v": 80
    },
    {
      "midi": 50,
      "hit": false,
      "t": 35999.88599999999,
      "d": 903.8432916666643,
      "v": 87
    },
    {
      "midi": 62,
      "hit": false,
      "t": 36153.73166666662,
      "d": 134.61495833333174,
      "v": 81
    },
    {
      "midi": 57,
      "hit": false,
      "t": 36153.73166666662,
      "d": 136.5380291666661,
      "v": 77
    },
    {
      "midi": 66,
      "hit": false,
      "t": 36153.73166666662,
      "d": 138.46110000000044,
      "v": 78
    },
    {
      "midi": 62,
      "hit": false,
      "t": 36307.57733333329,
      "d": 134.61495833333174,
      "v": 78
    },
    {
      "midi": 57,
      "hit": false,
      "t": 36307.57733333329,
      "d": 138.46110000000044,
      "v": 79
    },
    {
      "midi": 66,
      "hit": false,
      "t": 36307.57733333329,
      "d": 140.3841708333348,
      "v": 80
    },
    {
      "midi": 66,
      "hit": false,
      "t": 36461.42299999996,
      "d": 134.61495833333174,
      "v": 84
    },
    {
      "midi": 62,
      "hit": false,
      "t": 36461.42299999996,
      "d": 136.5380291666661,
      "v": 84
    },
    {
      "midi": 57,
      "hit": false,
      "t": 36461.42299999996,
      "d": 142.30724166666914,
      "v": 77
    },
    {
      "midi": 57,
      "hit": false,
      "t": 36615.26866666663,
      "d": 134.61495833333174,
      "v": 82
    },
    {
      "midi": 62,
      "hit": false,
      "t": 36615.26866666663,
      "d": 136.5380291666661,
      "v": 82
    },
    {
      "midi": 66,
      "hit": false,
      "t": 36615.26866666663,
      "d": 136.5380291666661,
      "v": 78
    },
    {
      "midi": 66,
      "hit": false,
      "t": 36769.114333333295,
      "d": 134.61495833333174,
      "v": 82
    },
    {
      "midi": 57,
      "hit": false,
      "t": 36769.114333333295,
      "d": 140.3841708333348,
      "v": 80
    },
    {
      "midi": 62,
      "hit": false,
      "t": 36769.114333333295,
      "d": 140.3841708333348,
      "v": 85
    },
    {
      "midi": 55,
      "hit": false,
      "t": 36922.95999999996,
      "d": 134.61495833333174,
      "v": 89
    },
    {
      "midi": 62,
      "hit": false,
      "t": 36922.95999999996,
      "d": 140.3841708333348,
      "v": 88
    },
    {
      "midi": 66,
      "hit": false,
      "t": 36922.95999999996,
      "d": 142.30724166666914,
      "v": 85
    },
    {
      "midi": 50,
      "hit": false,
      "t": 36922.95999999999,
      "d": 442.3062916666677,
      "v": 88
    },
    {
      "midi": 55,
      "hit": false,
      "t": 37076.80566666663,
      "d": 140.3841708333348,
      "v": 82
    },
    {
      "midi": 62,
      "hit": false,
      "t": 37076.80566666663,
      "d": 140.3841708333348,
      "v": 81
    },
    {
      "midi": 66,
      "hit": false,
      "t": 37076.80566666663,
      "d": 142.30724166666914,
      "v": 78
    },
    {
      "midi": 66,
      "hit": false,
      "t": 37230.6513333333,
      "d": 138.46110000000044,
      "v": 84
    },
    {
      "midi": 62,
      "hit": false,
      "t": 37230.6513333333,
      "d": 140.3841708333348,
      "v": 82
    },
    {
      "midi": 55,
      "hit": false,
      "t": 37230.6513333333,
      "d": 142.30724166666914,
      "v": 80
    },
    {
      "midi": 62,
      "hit": false,
      "t": 37384.496999999996,
      "d": 134.61495833333174,
      "v": 85
    },
    {
      "midi": 66,
      "hit": false,
      "t": 37384.496999999996,
      "d": 134.61495833333174,
      "v": 79
    },
    {
      "midi": 57,
      "hit": false,
      "t": 37384.496999999996,
      "d": 136.5380291666661,
      "v": 80
    },
    {
      "midi": 66,
      "hit": false,
      "t": 37538.342666666664,
      "d": 136.5380291666661,
      "v": 77
    },
    {
      "midi": 62,
      "hit": false,
      "t": 37538.342666666664,
      "d": 138.46110000000044,
      "v": 78
    },
    {
      "midi": 57,
      "hit": false,
      "t": 37538.342666666664,
      "d": 140.3841708333348,
      "v": 78
    },
    {
      "midi": 62,
      "hit": false,
      "t": 37692.18833333333,
      "d": 134.61495833333174,
      "v": 82
    },
    {
      "midi": 57,
      "hit": false,
      "t": 37692.18833333333,
      "d": 138.46110000000044,
      "v": 80
    },
    {
      "midi": 66,
      "hit": false,
      "t": 37692.18833333333,
      "d": 138.46110000000044,
      "v": 79
    },
    {
      "midi": 57,
      "hit": false,
      "t": 37846.034,
      "d": 136.5380291666661,
      "v": 87
    },
    {
      "midi": 62,
      "hit": false,
      "t": 37846.034,
      "d": 142.30724166666914,
      "v": 81
    },
    {
      "midi": 66,
      "hit": false,
      "t": 37846.034,
      "d": 142.30724166666914,
      "v": 83
    },
    {
      "midi": 57,
      "hit": false,
      "t": 37999.87966666667,
      "d": 134.61495833333174,
      "v": 79
    },
    {
      "midi": 62,
      "hit": false,
      "t": 37999.87966666667,
      "d": 136.5380291666661,
      "v": 85
    },
    {
      "midi": 66,
      "hit": false,
      "t": 37999.87966666667,
      "d": 142.30724166666914,
      "v": 77
    },
    {
      "midi": 62,
      "hit": false,
      "t": 38153.725333333336,
      "d": 134.61495833333174,
      "v": 80
    },
    {
      "midi": 66,
      "hit": false,
      "t": 38153.725333333336,
      "d": 140.3841708333348,
      "v": 84
    },
    {
      "midi": 57,
      "hit": false,
      "t": 38153.725333333336,
      "d": 142.30724166666914,
      "v": 77
    },
    {
      "midi": 74,
      "hit": false,
      "t": 38307.57099999997,
      "d": 442.3062916666677,
      "v": 80
    },
    {
      "midi": 62,
      "hit": false,
      "t": 38307.571,
      "d": 134.61495833333174,
      "v": 80
    },
    {
      "midi": 57,
      "hit": false,
      "t": 38307.571,
      "d": 136.5380291666661,
      "v": 79
    },
    {
      "midi": 66,
      "hit": false,
      "t": 38307.571,
      "d": 138.46110000000044,
      "v": 82
    },
    {
      "midi": 62,
      "hit": false,
      "t": 38461.41666666667,
      "d": 136.5380291666661,
      "v": 77
    },
    {
      "midi": 57,
      "hit": false,
      "t": 38461.41666666667,
      "d": 138.46110000000044,
      "v": 85
    },
    {
      "midi": 66,
      "hit": false,
      "t": 38461.41666666667,
      "d": 142.30724166666914,
      "v": 80
    },
    {
      "midi": 57,
      "hit": false,
      "t": 38615.26233333334,
      "d": 134.61495833333174,
      "v": 81
    },
    {
      "midi": 66,
      "hit": false,
      "t": 38615.26233333334,
      "d": 134.61495833333174,
      "v": 77
    },
    {
      "midi": 62,
      "hit": false,
      "t": 38615.26233333334,
      "d": 138.46110000000044,
      "v": 85
    },
    {
      "midi": 74,
      "hit": false,
      "t": 38769.10799999997,
      "d": 1371.149504166693,
      "v": 81
    },
    {
      "midi": 43,
      "hit": false,
      "t": 38769.10800000001,
      "d": 1834.609575000024,
      "v": 85
    },
    {
      "midi": 65,
      "hit": false,
      "t": 38922.95366666664,
      "d": 138.46110000000044,
      "v": 83
    },
    {
      "midi": 67,
      "hit": false,
      "t": 38922.95366666664,
      "d": 138.46110000000044,
      "v": 78
    },
    {
      "midi": 59,
      "hit": false,
      "t": 38922.953666666675,
      "d": 136.53802916667337,
      "v": 85
    },
    {
      "midi": 62,
      "hit": false,
      "t": 38922.953666666675,
      "d": 140.38417083334207,
      "v": 83
    },
    {
      "midi": 67,
      "hit": false,
      "t": 39076.79933333331,
      "d": 138.46110000000044,
      "v": 82
    },
    {
      "midi": 65,
      "hit": false,
      "t": 39076.79933333331,
      "d": 142.30724166666914,
      "v": 83
    },
    {
      "midi": 62,
      "hit": false,
      "t": 39076.79933333335,
      "d": 138.46110000000044,
      "v": 85
    },
    {
      "midi": 59,
      "hit": false,
      "t": 39076.79933333335,
      "d": 142.30724166666914,
      "v": 80
    },
    {
      "midi": 65,
      "hit": false,
      "t": 39230.644999999975,
      "d": 138.46110000000044,
      "v": 80
    },
    {
      "midi": 67,
      "hit": false,
      "t": 39230.644999999975,
      "d": 138.46110000000044,
      "v": 77
    },
    {
      "midi": 59,
      "hit": false,
      "t": 39230.64500000002,
      "d": 134.61495833333174,
      "v": 82
    },
    {
      "midi": 62,
      "hit": false,
      "t": 39230.64500000002,
      "d": 136.5380291666661,
      "v": 84
    },
    {
      "midi": 65,
      "hit": false,
      "t": 39384.49066666664,
      "d": 136.53802916667337,
      "v": 80
    },
    {
      "midi": 67,
      "hit": false,
      "t": 39384.49066666664,
      "d": 136.53802916667337,
      "v": 82
    },
    {
      "midi": 59,
      "hit": false,
      "t": 39384.49066666669,
      "d": 136.53802916667337,
      "v": 84
    },
    {
      "midi": 62,
      "hit": false,
      "t": 39384.49066666669,
      "d": 138.46110000000772,
      "v": 84
    },
    {
      "midi": 67,
      "hit": false,
      "t": 39538.33633333332,
      "d": 134.61495833333174,
      "v": 81
    },
    {
      "midi": 65,
      "hit": false,
      "t": 39538.33633333332,
      "d": 136.5380291666661,
      "v": 80
    },
    {
      "midi": 62,
      "hit": false,
      "t": 39538.33633333336,
      "d": 136.5380291666661,
      "v": 80
    },
    {
      "midi": 59,
      "hit": false,
      "t": 39538.33633333336,
      "d": 140.3841708333348,
      "v": 80
    },
    {
      "midi": 67,
      "hit": false,
      "t": 39692.181999999986,
      "d": 134.61495833333174,
      "v": 80
    },
    {
      "midi": 65,
      "hit": false,
      "t": 39692.181999999986,
      "d": 140.3841708333348,
      "v": 84
    },
    {
      "midi": 59,
      "hit": false,
      "t": 39692.18200000003,
      "d": 136.5380291666661,
      "v": 79
    },
    {
      "midi": 62,
      "hit": false,
      "t": 39692.18200000003,
      "d": 136.5380291666661,
      "v": 80
    },
    {
      "midi": 67,
      "hit": false,
      "t": 39846.027666666654,
      "d": 134.61495833333902,
      "v": 80
    },
    {
      "midi": 65,
      "hit": false,
      "t": 39846.027666666654,
      "d": 136.53802916667337,
      "v": 84
    },
    {
      "midi": 59,
      "hit": false,
      "t": 39846.0276666667,
      "d": 138.46110000000044,
      "v": 82
    },
    {
      "midi": 62,
      "hit": false,
      "t": 39846.0276666667,
      "d": 142.30724166666914,
      "v": 79
    },
    {
      "midi": 67,
      "hit": false,
      "t": 39999.87333333333,
      "d": 134.61495833333174,
      "v": 84
    },
    {
      "midi": 65,
      "hit": false,
      "t": 39999.87333333333,
      "d": 138.46110000000044,
      "v": 77
    },
    {
      "midi": 59,
      "hit": false,
      "t": 39999.873333333366,
      "d": 136.5380291666661,
      "v": 82
    },
    {
      "midi": 62,
      "hit": false,
      "t": 39999.873333333366,
      "d": 138.46110000000044,
      "v": 85
    },
    {
      "midi": 65,
      "hit": false,
      "t": 40153.719,
      "d": 134.61495833333174,
      "v": 85
    },
    {
      "midi": 67,
      "hit": false,
      "t": 40153.719,
      "d": 140.3841708333348,
      "v": 78
    },
    {
      "midi": 79,
      "hit": false,
      "t": 40153.719,
      "d": 442.3062916666677,
      "v": 78
    },
    {
      "midi": 62,
      "hit": false,
      "t": 40153.719000000034,
      "d": 138.46110000000044,
      "v": 80
    },
    {
      "midi": 59,
      "hit": false,
      "t": 40153.719000000034,
      "d": 140.3841708333348,
      "v": 81
    },
    {
      "midi": 67,
      "hit": false,
      "t": 40307.564666666665,
      "d": 138.46110000000044,
      "v": 85
    },
    {
      "midi": 65,
      "hit": false,
      "t": 40307.564666666665,
      "d": 140.3841708333348,
      "v": 84
    },
    {
      "midi": 59,
      "hit": false,
      "t": 40307.5646666667,
      "d": 138.46110000000044,
      "v": 82
    },
    {
      "midi": 62,
      "hit": false,
      "t": 40307.5646666667,
      "d": 138.46110000000044,
      "v": 80
    },
    {
      "midi": 67,
      "hit": false,
      "t": 40461.41033333333,
      "d": 138.46110000000044,
      "v": 79
    },
    {
      "midi": 65,
      "hit": false,
      "t": 40461.41033333333,
      "d": 140.3841708333348,
      "v": 84
    },
    {
      "midi": 62,
      "hit": false,
      "t": 40461.41033333337,
      "d": 134.61495833333174,
      "v": 78
    },
    {
      "midi": 59,
      "hit": false,
      "t": 40461.41033333337,
      "d": 142.30724166666187,
      "v": 84
    },
    {
      "midi": 79,
      "hit": false,
      "t": 40615.256,
      "d": 909.6125041666746,
      "v": 81
    },
    {
      "midi": 36,
      "hit": false,
      "t": 40615.25600000003,
      "d": 1371.1495041666785,
      "v": 84
    },
    {
      "midi": 63,
      "hit": false,
      "t": 40769.10166666667,
      "d": 136.5380291666661,
      "v": 85
    },
    {
      "midi": 67,
      "hit": false,
      "t": 40769.10166666667,
      "d": 142.30724166666914,
      "v": 84
    },
    {
      "midi": 55,
      "hit": false,
      "t": 40769.1016666667,
      "d": 134.61495833333174,
      "v": 81
    },
    {
      "midi": 60,
      "hit": false,
      "t": 40769.1016666667,
      "d": 136.5380291666661,
      "v": 78
    },
    {
      "midi": 63,
      "hit": false,
      "t": 40922.94733333334,
      "d": 134.61495833333174,
      "v": 77
    },
    {
      "midi": 67,
      "hit": false,
      "t": 40922.94733333334,
      "d": 138.46110000000044,
      "v": 78
    },
    {
      "midi": 55,
      "hit": false,
      "t": 40922.947333333366,
      "d": 134.61495833333174,
      "v": 83
    },
    {
      "midi": 60,
      "hit": false,
      "t": 40922.947333333366,
      "d": 134.61495833333174,
      "v": 82
    },
    {
      "midi": 63,
      "hit": false,
      "t": 41076.793000000005,
      "d": 142.30724166666914,
      "v": 81
    },
    {
      "midi": 67,
      "hit": false,
      "t": 41076.793000000005,
      "d": 142.30724166666914,
      "v": 79
    },
    {
      "midi": 60,
      "hit": false,
      "t": 41076.793000000034,
      "d": 140.3841708333348,
      "v": 81
    },
    {
      "midi": 55,
      "hit": false,
      "t": 41076.793000000034,
      "d": 142.30724166666914,
      "v": 80
    },
    {
      "midi": 67,
      "hit": false,
      "t": 41230.63866666667,
      "d": 136.5380291666661,
      "v": 82
    },
    {
      "midi": 63,
      "hit": false,
      "t": 41230.63866666667,
      "d": 142.30724166666914,
      "v": 83
    },
    {
      "midi": 55,
      "hit": false,
      "t": 41230.6386666667,
      "d": 138.46110000000044,
      "v": 84
    },
    {
      "midi": 60,
      "hit": false,
      "t": 41230.6386666667,
      "d": 138.46110000000044,
      "v": 79
    },
    {
      "midi": 63,
      "hit": false,
      "t": 41384.48433333334,
      "d": 134.61495833333174,
      "v": 83
    },
    {
      "midi": 67,
      "hit": false,
      "t": 41384.48433333334,
      "d": 142.30724166666914,
      "v": 82
    },
    {
      "midi": 55,
      "hit": false,
      "t": 41384.48433333337,
      "d": 138.46110000000044,
      "v": 82
    },
    {
      "midi": 60,
      "hit": false,
      "t": 41384.48433333337,
      "d": 140.3841708333348,
      "v": 82
    },
    {
      "midi": 63,
      "hit": false,
      "t": 41538.33000000001,
      "d": 138.46110000000044,
      "v": 87
    },
    {
      "midi": 67,
      "hit": false,
      "t": 41538.33000000001,
      "d": 138.46110000000044,
      "v": 79
    },
    {
      "midi": 55,
      "hit": false,
      "t": 41538.33000000004,
      "d": 134.61495833333174,
      "v": 83
    },
    {
      "midi": 60,
      "hit": false,
      "t": 41538.33000000004,
      "d": 140.3841708333348,
      "v": 80
    },
    {
      "midi": 63,
      "hit": false,
      "t": 41692.17566666668,
      "d": 140.3841708333348,
      "v": 80
    },
    {
      "midi": 67,
      "hit": false,
      "t": 41692.17566666668,
      "d": 140.3841708333348,
      "v": 81
    },
    {
      "midi": 60,
      "hit": false,
      "t": 41692.175666666706,
      "d": 136.5380291666661,
      "v": 79
    },
    {
      "midi": 55,
      "hit": false,
      "t": 41692.175666666706,
      "d": 142.30724166666914,
      "v": 79
    },
    {
      "midi": 67,
      "hit": false,
      "t": 41846.021333333345,
      "d": 134.61495833333174,
      "v": 78
    },
    {
      "midi": 63,
      "hit": false,
      "t": 41846.021333333345,
      "d": 136.5380291666661,
      "v": 84
    },
    {
      "midi": 55,
      "hit": false,
      "t": 41846.021333333374,
      "d": 138.46110000000044,
      "v": 81
    },
    {
      "midi": 60,
      "hit": false,
      "t": 41846.021333333374,
      "d": 142.30724166666914,
      "v": 77
    },
    {
      "midi": 72,
      "hit": false,
      "t": 41999.86700000001,
      "d": 444.229362500002,
      "v": 84
    },
    {
      "midi": 39,
      "hit": false,
      "t": 41999.86700000004,
      "d": 449.9985750000051,
      "v": 83
    },
    {
      "midi": 63,
      "hit": false,
      "t": 42153.71266666668,
      "d": 138.46110000000044,
      "v": 84
    },
    {
      "midi": 67,
      "hit": false,
      "t": 42153.71266666668,
      "d": 142.30724166666914,
      "v": 82
    },
    {
      "midi": 55,
      "hit": false,
      "t": 42153.71266666671,
      "d": 136.5380291666661,
      "v": 84
    },
    {
      "midi": 60,
      "hit": false,
      "t": 42153.71266666671,
      "d": 140.3841708333348,
      "v": 83
    },
    {
      "midi": 63,
      "hit": false,
      "t": 42307.55833333335,
      "d": 140.3841708333348,
      "v": 77
    },
    {
      "midi": 67,
      "hit": false,
      "t": 42307.55833333335,
      "d": 140.3841708333348,
      "v": 84
    },
    {
      "midi": 55,
      "hit": false,
      "t": 42307.55833333338,
      "d": 136.5380291666661,
      "v": 79
    },
    {
      "midi": 60,
      "hit": false,
      "t": 42307.55833333338,
      "d": 140.3841708333348,
      "v": 80
    },
    {
      "midi": 77,
      "hit": false,
      "t": 42461.40400000002,
      "d": 1373.0725750000129,
      "v": 88
    },
    {
      "midi": 41,
      "hit": false,
      "t": 42461.404000000046,
      "d": 449.9985749999978,
      "v": 89
    },
    {
      "midi": 62,
      "hit": false,
      "t": 42615.249666666685,
      "d": 136.5380291666661,
      "v": 79
    },
    {
      "midi": 65,
      "hit": false,
      "t": 42615.249666666685,
      "d": 136.5380291666661,
      "v": 77
    },
    {
      "midi": 58,
      "hit": false,
      "t": 42615.249666666714,
      "d": 134.61495833333174,
      "v": 77
    },
    {
      "midi": 53,
      "hit": false,
      "t": 42615.249666666714,
      "d": 142.30724166666187,
      "v": 82
    },
    {
      "midi": 65,
      "hit": false,
      "t": 42769.09533333335,
      "d": 136.5380291666661,
      "v": 85
    },
    {
      "midi": 62,
      "hit": false,
      "t": 42769.09533333335,
      "d": 142.30724166666914,
      "v": 81
    },
    {
      "midi": 58,
      "hit": false,
      "t": 42769.095333333375,
      "d": 136.5380291666661,
      "v": 80
    },
    {
      "midi": 53,
      "hit": false,
      "t": 42769.095333333375,
      "d": 140.3841708333348,
      "v": 82
    },
    {
      "midi": 65,
      "hit": false,
      "t": 42922.94100000002,
      "d": 136.5380291666661,
      "v": 80
    },
    {
      "midi": 62,
      "hit": false,
      "t": 42922.94100000002,
      "d": 138.46110000000044,
      "v": 82
    },
    {
      "midi": 58,
      "hit": false,
      "t": 42922.94100000004,
      "d": 136.5380291666661,
      "v": 83
    },
    {
      "midi": 53,
      "hit": false,
      "t": 42922.94100000004,
      "d": 142.30724166666914,
      "v": 82
    },
    {
      "midi": 62,
      "hit": false,
      "t": 43076.78666666669,
      "d": 136.5380291666661,
      "v": 85
    },
    {
      "midi": 65,
      "hit": false,
      "t": 43076.78666666669,
      "d": 140.3841708333348,
      "v": 84
    },
    {
      "midi": 58,
      "hit": false,
      "t": 43076.78666666671,
      "d": 136.5380291666661,
      "v": 77
    },
    {
      "midi": 53,
      "hit": false,
      "t": 43076.78666666671,
      "d": 140.3841708333348,
      "v": 81
    },
    {
      "midi": 62,
      "hit": false,
      "t": 43230.63233333336,
      "d": 140.3841708333348,
      "v": 78
    },
    {
      "midi": 65,
      "hit": false,
      "t": 43230.63233333336,
      "d": 140.3841708333348,
      "v": 84
    },
    {
      "midi": 53,
      "hit": false,
      "t": 43230.63233333338,
      "d": 134.61495833333174,
      "v": 79
    },
    {
      "midi": 58,
      "hit": false,
      "t": 43230.63233333338,
      "d": 138.46110000000044,
      "v": 78
    },
    {
      "midi": 41,
      "hit": false,
      "t": 43384.47800000005,
      "d": 442.3062916666677,
      "v": 80
    },
    {
      "midi": 63,
      "hit": false,
      "t": 43538.32366666669,
      "d": 134.61495833333174,
      "v": 83
    },
    {
      "midi": 65,
      "hit": false,
      "t": 43538.32366666669,
      "d": 136.5380291666661,
      "v": 81
    },
    {
      "midi": 60,
      "hit": false,
      "t": 43538.32366666669,
      "d": 140.3841708333348,
      "v": 78
    },
    {
      "midi": 53,
      "hit": false,
      "t": 43538.323666666714,
      "d": 138.46110000000044,
      "v": 77
    },
    {
      "midi": 57,
      "hit": false,
      "t": 43538.323666666714,
      "d": 140.3841708333348,
      "v": 77
    },
    {
      "midi": 60,
      "hit": false,
      "t": 43692.16933333336,
      "d": 136.5380291666661,
      "v": 78
    },
    {
      "midi": 65,
      "hit": false,
      "t": 43692.16933333336,
      "d": 140.3841708333348,
      "v": 83
    },
    {
      "midi": 63,
      "hit": false,
      "t": 43692.16933333336,
      "d": 142.30724166666914,
      "v": 84
    },
    {
      "midi": 53,
      "hit": false,
      "t": 43692.16933333338,
      "d": 134.61495833333174,
      "v": 83
    },
    {
      "midi": 57,
      "hit": false,
      "t": 43692.16933333338,
      "d": 136.5380291666661,
      "v": 85
    },
    {
      "midi": 60,
      "hit": false,
      "t": 43846.01500000003,
      "d": 134.61495833333174,
      "v": 84
    },
    {
      "midi": 63,
      "hit": false,
      "t": 43846.01500000003,
      "d": 138.46110000000044,
      "v": 83
    },
    {
      "midi": 65,
      "hit": false,
      "t": 43846.01500000003,
      "d": 142.30724166666914,
      "v": 84
    },
    {
      "midi": 69,
      "hit": false,
      "t": 43846.01500000003,
      "d": 444.229362500002,
      "v": 78
    },
    {
      "midi": 57,
      "hit": false,
      "t": 43846.01500000005,
      "d": 136.5380291666661,
      "v": 85
    },
    {
      "midi": 53,
      "hit": false,
      "t": 43846.01500000005,
      "d": 138.46110000000044,
      "v": 82
    },
    {
      "midi": 65,
      "hit": false,
      "t": 43999.8606666667,
      "d": 136.5380291666661,
      "v": 82
    },
    {
      "midi": 63,
      "hit": false,
      "t": 43999.8606666667,
      "d": 138.46110000000044,
      "v": 82
    },
    {
      "midi": 60,
      "hit": false,
      "t": 43999.8606666667,
      "d": 140.3841708333348,
      "v": 85
    },
    {
      "midi": 53,
      "hit": false,
      "t": 43999.86066666672,
      "d": 136.5380291666661,
      "v": 80
    },
    {
      "midi": 57,
      "hit": false,
      "t": 43999.86066666672,
      "d": 136.5380291666661,
      "v": 80
    },
    {
      "midi": 65,
      "hit": false,
      "t": 44153.706333333364,
      "d": 134.61495833333174,
      "v": 82
    },
    {
      "midi": 63,
      "hit": false,
      "t": 44153.706333333364,
      "d": 138.46110000000044,
      "v": 85
    },
    {
      "midi": 60,
      "hit": false,
      "t": 44153.706333333364,
      "d": 140.3841708333348,
      "v": 85
    },
    {
      "midi": 53,
      "hit": false,
      "t": 44153.706333333386,
      "d": 140.3841708333348,
      "v": 82
    },
    {
      "midi": 57,
      "hit": false,
      "t": 44153.706333333386,
      "d": 140.3841708333348,
      "v": 84
    },
    {
      "midi": 62,
      "hit": false,
      "t": 44307.55200000003,
      "d": 134.61495833333174,
      "v": 84
    },
    {
      "midi": 65,
      "hit": false,
      "t": 44307.55200000003,
      "d": 134.61495833333174,
      "v": 87
    },
    {
      "midi": 58,
      "hit": false,
      "t": 44307.55200000003,
      "d": 1365.3802916666755,
      "v": 86
    },
    {
      "midi": 70,
      "hit": false,
      "t": 44307.55200000003,
      "d": 1367.3033625000098,
      "v": 87
    },
    {
      "midi": 34,
      "hit": false,
      "t": 44307.552000000054,
      "d": 140.3841708333348,
      "v": 84
    },
    {
      "midi": 62,
      "hit": false,
      "t": 44461.3976666667,
      "d": 136.5380291666661,
      "v": 84
    },
    {
      "midi": 65,
      "hit": false,
      "t": 44461.3976666667,
      "d": 140.3841708333348,
      "v": 84
    },
    {
      "midi": 36,
      "hit": false,
      "t": 44461.39766666672,
      "d": 140.3841708333348,
      "v": 78
    },
    {
      "midi": 62,
      "hit": false,
      "t": 44615.24333333337,
      "d": 134.61495833333174,
      "v": 78
    },
    {
      "midi": 65,
      "hit": false,
      "t": 44615.24333333337,
      "d": 136.5380291666661,
      "v": 79
    },
    {
      "midi": 38,
      "hit": false,
      "t": 44615.24333333339,
      "d": 134.61495833333174,
      "v": 83
    },
    {
      "midi": 62,
      "hit": false,
      "t": 44769.089000000036,
      "d": 134.61495833333174,
      "v": 82
    },
    {
      "midi": 65,
      "hit": false,
      "t": 44769.089000000036,
      "d": 140.3841708333348,
      "v": 85
    },
    {
      "midi": 39,
      "hit": false,
      "t": 44769.08900000006,
      "d": 136.5380291666661,
      "v": 81
    },
    {
      "midi": 65,
      "hit": false,
      "t": 44922.934666666704,
      "d": 134.61495833333174,
      "v": 77
    },
    {
      "midi": 62,
      "hit": false,
      "t": 44922.934666666704,
      "d": 140.3841708333348,
      "v": 85
    },
    {
      "midi": 41,
      "hit": false,
      "t": 44922.934666666726,
      "d": 142.30724166666914,
      "v": 77
    },
    {
      "midi": 62,
      "hit": false,
      "t": 45076.78033333337,
      "d": 140.3841708333348,
      "v": 77
    },
    {
      "midi": 65,
      "hit": false,
      "t": 45076.78033333337,
      "d": 140.3841708333348,
      "v": 79
    },
    {
      "midi": 42,
      "hit": false,
      "t": 45076.780333333394,
      "d": 136.5380291666661,
      "v": 78
    },
    {
      "midi": 65,
      "hit": false,
      "t": 45230.62600000004,
      "d": 138.46110000000044,
      "v": 81
    },
    {
      "midi": 62,
      "hit": false,
      "t": 45230.62600000004,
      "d": 140.3841708333348,
      "v": 86
    },
    {
      "midi": 41,
      "hit": false,
      "t": 45230.62600000006,
      "d": 213.46086249999644,
      "v": 85
    },
    {
      "midi": 62,
      "hit": false,
      "t": 45384.47166666671,
      "d": 134.61495833333174,
      "v": 82
    },
    {
      "midi": 65,
      "hit": false,
      "t": 45384.47166666671,
      "d": 138.46110000000044,
      "v": 79
    },
    {
      "midi": 62,
      "hit": false,
      "t": 45538.317333333376,
      "d": 134.61495833333174,
      "v": 85
    },
    {
      "midi": 65,
      "hit": false,
      "t": 45538.317333333376,
      "d": 142.30724166666914,
      "v": 77
    },
    {
      "midi": 65,
      "hit": false,
      "t": 45692.163000000044,
      "d": 138.46110000000044,
      "v": 83
    },
    {
      "midi": 62,
      "hit": false,
      "t": 45692.163000000044,
      "d": 140.3841708333348,
      "v": 82
    },
    {
      "midi": 58,
      "hit": false,
      "t": 45692.163000000044,
      "d": 446.1524333333364,
      "v": 80
    },
    {
      "midi": 70,
      "hit": false,
      "t": 45692.163000000044,
      "d": 449.9985750000051,
      "v": 79
    },
    {
      "midi": 34,
      "hit": false,
      "t": 45692.16300000006,
      "d": 211.53779166666936,
      "v": 84
    },
    {
      "midi": 62,
      "hit": false,
      "t": 45846.00866666671,
      "d": 140.3841708333348,
      "v": 85
    },
    {
      "midi": 65,
      "hit": false,
      "t": 45846.00866666671,
      "d": 140.3841708333348,
      "v": 78
    },
    {
      "midi": 62,
      "hit": false,
      "t": 45999.85433333338,
      "d": 136.5380291666661,
      "v": 82
    },
    {
      "midi": 65,
      "hit": false,
      "t": 45999.85433333338,
      "d": 136.5380291666661,
      "v": 85
    },
    {
      "midi": 66,
      "hit": false,
      "t": 46153.70000000005,
      "d": 134.61495833333174,
      "v": 81
    },
    {
      "midi": 69,
      "hit": false,
      "t": 46153.70000000005,
      "d": 142.30724166666187,
      "v": 82
    },
    {
      "midi": 63,
      "hit": false,
      "t": 46153.70000000005,
      "d": 1365.3802916666682,
      "v": 82
    },
    {
      "midi": 75,
      "hit": false,
      "t": 46153.70000000005,
      "d": 1365.3802916666682,
      "v": 85
    },
    {
      "midi": 54,
      "hit": false,
      "t": 46153.70000000006,
      "d": 136.5380291666661,
      "v": 88
    },
    {
      "midi": 51,
      "hit": false,
      "t": 46153.70000000006,
      "d": 142.30724166666914,
      "v": 84
    },
    {
      "midi": 46,
      "hit": false,
      "t": 46153.70000000006,
      "d": 1828.8403625000137,
      "v": 81
    },
    {
      "midi": 60,
      "hit": false,
      "t": 46153.70000000006,
      "d": 1828.8403625000137,
      "v": 87
    },
    {
      "midi": 66,
      "hit": false,
      "t": 46307.54566666671,
      "d": 136.5380291666661,
      "v": 78
    },
    {
      "midi": 69,
      "hit": false,
      "t": 46307.54566666671,
      "d": 140.3841708333348,
      "v": 79
    },
    {
      "midi": 54,
      "hit": false,
      "t": 46307.54566666673,
      "d": 136.5380291666661,
      "v": 78
    },
    {
      "midi": 51,
      "hit": false,
      "t": 46307.54566666673,
      "d": 140.3841708333348,
      "v": 84
    },
    {
      "midi": 66,
      "hit": false,
      "t": 46461.39133333338,
      "d": 136.5380291666661,
      "v": 84
    },
    {
      "midi": 69,
      "hit": false,
      "t": 46461.39133333338,
      "d": 136.5380291666661,
      "v": 80
    },
    {
      "midi": 54,
      "hit": false,
      "t": 46461.3913333334,
      "d": 138.46110000000044,
      "v": 82
    },
    {
      "midi": 51,
      "hit": false,
      "t": 46461.3913333334,
      "d": 140.3841708333348,
      "v": 82
    },
    {
      "midi": 69,
      "hit": false,
      "t": 46615.237000000045,
      "d": 134.61495833333174,
      "v": 104
    },
    {
      "midi": 66,
      "hit": false,
      "t": 46615.237000000045,
      "d": 138.46110000000044,
      "v": 102
    },
    {
      "midi": 51,
      "hit": false,
      "t": 46615.23700000007,
      "d": 136.5380291666661,
      "v": 98
    },
    {
      "midi": 54,
      "hit": false,
      "t": 46615.23700000007,
      "d": 140.3841708333348,
      "v": 104
    },
    {
      "midi": 66,
      "hit": false,
      "t": 46769.08266666671,
      "d": 138.46110000000044,
      "v": 97
    },
    {
      "midi": 69,
      "hit": false,
      "t": 46769.08266666671,
      "d": 138.46110000000044,
      "v": 99
    },
    {
      "midi": 54,
      "hit": false,
      "t": 46769.082666666734,
      "d": 136.5380291666661,
      "v": 104
    },
    {
      "midi": 51,
      "hit": false,
      "t": 46769.082666666734,
      "d": 140.3841708333348,
      "v": 103
    },
    {
      "midi": 66,
      "hit": false,
      "t": 46922.92833333338,
      "d": 140.3841708333348,
      "v": 101
    },
    {
      "midi": 69,
      "hit": false,
      "t": 46922.92833333338,
      "d": 140.3841708333348,
      "v": 99
    },
    {
      "midi": 51,
      "hit": false,
      "t": 46922.9283333334,
      "d": 134.61495833333174,
      "v": 104
    },
    {
      "midi": 54,
      "hit": false,
      "t": 46922.9283333334,
      "d": 140.3841708333348,
      "v": 102
    },
    {
      "midi": 66,
      "hit": false,
      "t": 47076.77400000005,
      "d": 136.5380291666661,
      "v": 100
    },
    {
      "midi": 69,
      "hit": false,
      "t": 47076.77400000005,
      "d": 138.46110000000044,
      "v": 104
    },
    {
      "midi": 54,
      "hit": false,
      "t": 47076.77400000007,
      "d": 134.61495833333174,
      "v": 98
    },
    {
      "midi": 51,
      "hit": false,
      "t": 47076.77400000007,
      "d": 140.3841708333348,
      "v": 104
    },
    {
      "midi": 66,
      "hit": false,
      "t": 47230.61966666672,
      "d": 142.30724166666914,
      "v": 96
    },
    {
      "midi": 69,
      "hit": false,
      "t": 47230.61966666672,
      "d": 142.30724166666914,
      "v": 103
    },
    {
      "midi": 51,
      "hit": false,
      "t": 47230.61966666674,
      "d": 136.5380291666661,
      "v": 101
    },
    {
      "midi": 54,
      "hit": false,
      "t": 47230.61966666674,
      "d": 140.3841708333348,
      "v": 101
    },
    {
      "midi": 69,
      "hit": false,
      "t": 47384.465333333384,
      "d": 140.3841708333348,
      "v": 99
    },
    {
      "midi": 66,
      "hit": false,
      "t": 47384.465333333384,
      "d": 142.30724166666914,
      "v": 102
    },
    {
      "midi": 51,
      "hit": false,
      "t": 47384.465333333406,
      "d": 138.46110000000044,
      "v": 99
    },
    {
      "midi": 54,
      "hit": false,
      "t": 47384.465333333406,
      "d": 142.30724166666914,
      "v": 101
    },
    {
      "midi": 60,
      "hit": false,
      "t": 47538.31100000005,
      "d": 134.61495833333174,
      "v": 104
    },
    {
      "midi": 66,
      "hit": false,
      "t": 47538.31100000005,
      "d": 138.46110000000044,
      "v": 101
    },
    {
      "midi": 69,
      "hit": false,
      "t": 47538.31100000005,
      "d": 444.229362500002,
      "v": 101
    },
    {
      "midi": 57,
      "hit": false,
      "t": 47538.31100000005,
      "d": 449.9985750000051,
      "v": 104
    },
    {
      "midi": 51,
      "hit": false,
      "t": 47538.311000000074,
      "d": 138.46110000000044,
      "v": 96
    },
    {
      "midi": 54,
      "hit": false,
      "t": 47538.311000000074,
      "d": 138.46110000000044,
      "v": 98
    },
    {
      "midi": 60,
      "hit": false,
      "t": 47692.15666666672,
      "d": 136.5380291666661,
      "v": 96
    },
    {
      "midi": 66,
      "hit": false,
      "t": 47692.15666666672,
      "d": 136.5380291666661,
      "v": 102
    },
    {
      "midi": 54,
      "hit": false,
      "t": 47692.15666666674,
      "d": 134.61495833333174,
      "v": 101
    },
    {
      "midi": 51,
      "hit": false,
      "t": 47692.15666666674,
      "d": 140.3841708333348,
      "v": 97
    },
    {
      "midi": 60,
      "hit": false,
      "t": 47846.00233333339,
      "d": 134.61495833333174,
      "v": 100
    },
    {
      "midi": 66,
      "hit": false,
      "t": 47846.00233333339,
      "d": 140.3841708333348,
      "v": 96
    },
    {
      "midi": 54,
      "hit": false,
      "t": 47846.00233333341,
      "d": 136.5380291666661,
      "v": 99
    },
    {
      "midi": 51,
      "hit": false,
      "t": 47846.00233333341,
      "d": 138.46110000000044,
      "v": 100
    },
    {
      "midi": 65,
      "hit": false,
      "t": 47999.848000000056,
      "d": 134.61495833333174,
      "v": 105
    },
    {
      "midi": 62,
      "hit": false,
      "t": 47999.848000000056,
      "d": 136.5380291666661,
      "v": 100
    },
    {
      "midi": 72,
      "hit": false,
      "t": 47999.848000000056,
      "d": 442.3062916666677,
      "v": 108
    },
    {
      "midi": 60,
      "hit": false,
      "t": 47999.848000000056,
      "d": 446.1524333333364,
      "v": 104
    },
    {
      "midi": 34,
      "hit": false,
      "t": 47999.84800000008,
      "d": 138.46110000000044,
      "v": 100
    },
    {
      "midi": 62,
      "hit": false,
      "t": 48153.693666666724,
      "d": 142.30724166666914,
      "v": 104
    },
    {
      "midi": 65,
      "hit": false,
      "t": 48153.693666666724,
      "d": 142.30724166666914,
      "v": 102
    },
    {
      "midi": 36,
      "hit": false,
      "t": 48153.693666666746,
      "d": 140.3841708333348,
      "v": 104
    },
    {
      "midi": 62,
      "hit": false,
      "t": 48307.53933333339,
      "d": 138.46110000000044,
      "v": 104
    },
    {
      "midi": 65,
      "hit": false,
      "t": 48307.53933333339,
      "d": 140.3841708333348,
      "v": 102
    },
    {
      "midi": 38,
      "hit": false,
      "t": 48307.539333333414,
      "d": 134.61495833333174,
      "v": 103
    },
    {
      "midi": 62,
      "hit": false,
      "t": 48461.38500000006,
      "d": 140.3841708333348,
      "v": 102
    },
    {
      "midi": 65,
      "hit": false,
      "t": 48461.38500000006,
      "d": 142.30724166666914,
      "v": 97
    },
    {
      "midi": 70,
      "hit": false,
      "t": 48461.38500000006,
      "d": 1369.2264333333442,
      "v": 103
    },
    {
      "midi": 58,
      "hit": false,
      "t": 48461.38500000006,
      "d": 1373.0725750000129,
      "v": 103
    },
    {
      "midi": 39,
      "hit": false,
      "t": 48461.38500000008,
      "d": 134.61495833333174,
      "v": 102
    },
    {
      "midi": 65,
      "hit": false,
      "t": 48615.23066666673,
      "d": 134.61495833333174,
      "v": 99
    },
    {
      "midi": 62,
      "hit": false,
      "t": 48615.23066666673,
      "d": 138.46110000000044,
      "v": 102
    },
    {
      "midi": 41,
      "hit": false,
      "t": 48615.23066666675,
      "d": 138.46110000000044,
      "v": 99
    },
    {
      "midi": 65,
      "hit": false,
      "t": 48769.076333333396,
      "d": 138.46110000000044,
      "v": 104
    },
    {
      "midi": 62,
      "hit": false,
      "t": 48769.076333333396,
      "d": 140.3841708333348,
      "v": 97
    },
    {
      "midi": 42,
      "hit": false,
      "t": 48769.07633333342,
      "d": 140.3841708333348,
      "v": 102
    },
    {
      "midi": 62,
      "hit": false,
      "t": 48922.922000000064,
      "d": 138.46110000000044,
      "v": 101
    },
    {
      "midi": 65,
      "hit": false,
      "t": 48922.922000000064,
      "d": 138.46110000000044,
      "v": 102
    },
    {
      "midi": 41,
      "hit": false,
      "t": 48922.922000000086,
      "d": 213.46086249999644,
      "v": 106
    },
    {
      "midi": 62,
      "hit": false,
      "t": 49076.76766666673,
      "d": 138.46110000000044,
      "v": 102
    },
    {
      "midi": 65,
      "hit": false,
      "t": 49076.76766666673,
      "d": 142.30724166666914,
      "v": 104
    },
    {
      "midi": 65,
      "hit": false,
      "t": 49230.6133333334,
      "d": 136.5380291666661,
      "v": 101
    },
    {
      "midi": 62,
      "hit": false,
      "t": 49230.6133333334,
      "d": 140.3841708333348,
      "v": 96
    },
    {
      "midi": 62,
      "hit": false,
      "t": 49384.45900000007,
      "d": 134.61495833333174,
      "v": 96
    },
    {
      "midi": 65,
      "hit": false,
      "t": 49384.45900000007,
      "d": 136.5380291666661,
      "v": 101
    },
    {
      "midi": 34,
      "hit": false,
      "t": 49384.45900000008,
      "d": 217.30700416666514,
      "v": 100
    },
    {
      "midi": 62,
      "hit": false,
      "t": 49538.304666666736,
      "d": 136.5380291666661,
      "v": 98
    },
    {
      "midi": 65,
      "hit": false,
      "t": 49538.304666666736,
      "d": 136.5380291666661,
      "v": 98
    },
    {
      "midi": 65,
      "hit": false,
      "t": 49692.150333333404,
      "d": 136.5380291666661,
      "v": 104
    },
    {
      "midi": 62,
      "hit": false,
      "t": 49692.150333333404,
      "d": 140.3841708333348,
      "v": 100
    },
    {
      "midi": 69,
      "hit": false,
      "t": 49845.99600000007,
      "d": 134.61495833333174,
      "v": 107
    },
    {
      "midi": 66,
      "hit": false,
      "t": 49845.99600000007,
      "d": 142.30724166666187,
      "v": 108
    },
    {
      "midi": 63,
      "hit": false,
      "t": 49845.99600000007,
      "d": 909.6125041666528,
      "v": 106
    },
    {
      "midi": 75,
      "hit": false,
      "t": 49845.99600000007,
      "d": 909.6125041666528,
      "v": 103
    },
    {
      "midi": 51,
      "hit": false,
      "t": 49845.99600000008,
      "d": 136.5380291666661,
      "v": 106
    },
    {
      "midi": 54,
      "hit": false,
      "t": 49845.99600000008,
      "d": 138.46110000000044,
      "v": 101
    },
    {
      "midi": 60,
      "hit": false,
      "t": 49845.99600000008,
      "d": 1832.6865041666824,
      "v": 102
    },
    {
      "midi": 46,
      "hit": false,
      "t": 49845.99600000008,
      "d": 1834.6095750000168,
      "v": 104
    },
    {
      "midi": 69,
      "hit": false,
      "t": 49999.84166666673,
      "d": 134.61495833333174,
      "v": 98
    },
    {
      "midi": 66,
      "hit": false,
      "t": 49999.84166666673,
      "d": 142.30724166666187,
      "v": 101
    },
    {
      "midi": 51,
      "hit": false,
      "t": 49999.84166666675,
      "d": 134.61495833333174,
      "v": 98
    },
    {
      "midi": 54,
      "hit": false,
      "t": 49999.84166666675,
      "d": 138.46110000000044,
      "v": 98
    },
    {
      "midi": 66,
      "hit": false,
      "t": 50153.68733333339,
      "d": 138.46110000000044,
      "v": 97
    },
    {
      "midi": 69,
      "hit": false,
      "t": 50153.68733333339,
      "d": 142.30724166666914,
      "v": 101
    },
    {
      "midi": 51,
      "hit": false,
      "t": 50153.687333333415,
      "d": 134.61495833333174,
      "v": 98
    },
    {
      "midi": 54,
      "hit": false,
      "t": 50153.687333333415,
      "d": 136.5380291666661,
      "v": 96
    },
    {
      "midi": 66,
      "hit": false,
      "t": 50307.53300000006,
      "d": 140.3841708333348,
      "v": 104
    },
    {
      "midi": 69,
      "hit": false,
      "t": 50307.53300000006,
      "d": 142.30724166666914,
      "v": 99
    },
    {
      "midi": 51,
      "hit": false,
      "t": 50307.53300000008,
      "d": 134.61495833333174,
      "v": 97
    },
    {
      "midi": 54,
      "hit": false,
      "t": 50307.53300000008,
      "d": 140.3841708333348,
      "v": 104
    },
    {
      "midi": 66,
      "hit": false,
      "t": 50461.37866666673,
      "d": 134.61495833333174,
      "v": 104
    },
    {
      "midi": 69,
      "hit": false,
      "t": 50461.37866666673,
      "d": 142.30724166666187,
      "v": 97
    },
    {
      "midi": 51,
      "hit": false,
      "t": 50461.37866666675,
      "d": 140.3841708333348,
      "v": 104
    },
    {
      "midi": 54,
      "hit": false,
      "t": 50461.37866666675,
      "d": 140.3841708333348,
      "v": 103
    },
    {
      "midi": 66,
      "hit": false,
      "t": 50615.22433333339,
      "d": 140.3841708333348,
      "v": 103
    },
    {
      "midi": 69,
      "hit": false,
      "t": 50615.22433333339,
      "d": 142.30724166666914,
      "v": 98
    },
    {
      "midi": 54,
      "hit": false,
      "t": 50615.22433333342,
      "d": 140.3841708333348,
      "v": 98
    },
    {
      "midi": 51,
      "hit": false,
      "t": 50615.22433333342,
      "d": 142.30724166666914,
      "v": 96
    },
    {
      "midi": 63,
      "hit": false,
      "t": 50769.07000000006,
      "d": 134.61495833333174,
      "v": 106
    },
    {
      "midi": 60,
      "hit": false,
      "t": 50769.07000000006,
      "d": 140.3841708333348,
      "v": 98
    },
    {
      "midi": 57,
      "hit": false,
      "t": 50769.07000000006,
      "d": 680.7670750000034,
      "v": 98
    },
    {
      "midi": 69,
      "hit": false,
      "t": 50769.07000000006,
      "d": 680.7670750000034,
      "v": 99
    },
    {
      "midi": 51,
      "hit": false,
      "t": 50769.07000000009,
      "d": 138.46110000000044,
      "v": 102
    },
    {
      "midi": 54,
      "hit": false,
      "t": 50769.07000000009,
      "d": 140.3841708333348,
      "v": 103
    },
    {
      "midi": 60,
      "hit": false,
      "t": 50922.915666666726,
      "d": 136.5380291666661,
      "v": 97
    },
    {
      "midi": 63,
      "hit": false,
      "t": 50922.915666666726,
      "d": 140.3841708333348,
      "v": 103
    },
    {
      "midi": 54,
      "hit": false,
      "t": 50922.915666666755,
      "d": 134.61495833333174,
      "v": 101
    },
    {
      "midi": 51,
      "hit": false,
      "t": 50922.915666666755,
      "d": 136.5380291666661,
      "v": 97
    },
    {
      "midi": 63,
      "hit": false,
      "t": 51076.761333333394,
      "d": 136.5380291666661,
      "v": 103
    },
    {
      "midi": 60,
      "hit": false,
      "t": 51076.761333333394,
      "d": 140.3841708333348,
      "v": 97
    },
    {
      "midi": 54,
      "hit": false,
      "t": 51076.76133333342,
      "d": 136.5380291666661,
      "v": 99
    },
    {
      "midi": 51,
      "hit": false,
      "t": 51076.76133333342,
      "d": 140.3841708333348,
      "v": 96
    },
    {
      "midi": 60,
      "hit": false,
      "t": 51230.60700000006,
      "d": 134.61495833333174,
      "v": 96
    },
    {
      "midi": 63,
      "hit": false,
      "t": 51230.60700000006,
      "d": 140.3841708333348,
      "v": 98
    },
    {
      "midi": 54,
      "hit": false,
      "t": 51230.60700000009,
      "d": 138.46110000000044,
      "v": 99
    },
    {
      "midi": 51,
      "hit": false,
      "t": 51230.60700000009,
      "d": 142.30724166666914,
      "v": 102
    },
    {
      "midi": 60,
      "hit": false,
      "t": 51384.45266666673,
      "d": 138.46110000000044,
      "v": 100
    },
    {
      "midi": 63,
      "hit": false,
      "t": 51384.45266666673,
      "d": 140.3841708333348,
      "v": 99
    },
    {
      "midi": 54,
      "hit": false,
      "t": 51384.45266666676,
      "d": 136.5380291666661,
      "v": 97
    },
    {
      "midi": 51,
      "hit": false,
      "t": 51384.45266666676,
      "d": 142.30724166666914,
      "v": 97
    },
    {
      "midi": 57,
      "hit": false,
      "t": 51461.37550000006,
      "d": 211.53779166666936,
      "v": 98
    },
    {
      "midi": 69,
      "hit": false,
      "t": 51461.37550000006,
      "d": 219.2300749999995,
      "v": 100
    },
    {
      "midi": 60,
      "hit": false,
      "t": 51538.2983333334,
      "d": 134.61495833333174,
      "v": 104
    },
    {
      "midi": 63,
      "hit": false,
      "t": 51538.2983333334,
      "d": 142.30724166666187,
      "v": 99
    },
    {
      "midi": 54,
      "hit": false,
      "t": 51538.29833333343,
      "d": 136.5380291666661,
      "v": 99
    },
    {
      "midi": 51,
      "hit": false,
      "t": 51538.29833333343,
      "d": 140.3841708333348,
      "v": 97
    },
    {
      "midi": 65,
      "hit": false,
      "t": 51692.14400000006,
      "d": 138.46110000000044,
      "v": 100
    },
    {
      "midi": 62,
      "hit": false,
      "t": 51692.14400000006,
      "d": 140.3841708333348,
      "v": 101
    },
    {
      "midi": 60,
      "hit": false,
      "t": 51692.14400000006,
      "d": 444.229362500002,
      "v": 103
    },
    {
      "midi": 72,
      "hit": false,
      "t": 51692.14400000006,
      "d": 446.1524333333364,
      "v": 100
    },
    {
      "midi": 34,
      "hit": false,
      "t": 51692.144000000095,
      "d": 138.46110000000044,
      "v": 105
    },
    {
      "midi": 62,
      "hit": false,
      "t": 51845.98966666673,
      "d": 134.61495833333174,
      "v": 98
    },
    {
      "midi": 65,
      "hit": false,
      "t": 51845.98966666673,
      "d": 140.3841708333348,
      "v": 97
    },
    {
      "midi": 36,
      "hit": false,
      "t": 51845.98966666676,
      "d": 142.30724166666914,
      "v": 99
    },
    {
      "midi": 62,
      "hit": false,
      "t": 51999.835333333394,
      "d": 134.61495833333174,
      "v": 100
    },
    {
      "midi": 65,
      "hit": false,
      "t": 51999.835333333394,
      "d": 142.30724166666914,
      "v": 104
    },
    {
      "midi": 38,
      "hit": false,
      "t": 51999.83533333343,
      "d": 136.5380291666661,
      "v": 99
    },
    {
      "midi": 62,
      "hit": false,
      "t": 52153.68100000006,
      "d": 134.61495833333174,
      "v": 102
    },
    {
      "midi": 65,
      "hit": false,
      "t": 52153.68100000006,
      "d": 134.61495833333174,
      "v": 100
    },
    {
      "midi": 58,
      "hit": false,
      "t": 52153.68100000006,
      "d": 909.6125041666746,
      "v": 96
    },
    {
      "midi": 70,
      "hit": false,
      "t": 52153.68100000006,
      "d": 909.6125041666746,
      "v": 99
    },
    {
      "midi": 39,
      "hit": false,
      "t": 52153.6810000001,
      "d": 142.30724166666914,
      "v": 99
    },
    {
      "midi": 62,
      "hit": false,
      "t": 52307.52666666673,
      "d": 136.5380291666661,
      "v": 103
    },
    {
      "midi": 65,
      "hit": false,
      "t": 52307.52666666673,
      "d": 140.3841708333348,
      "v": 96
    },
    {
      "midi": 41,
      "hit": false,
      "t": 52307.52666666677,
      "d": 136.5380291666661,
      "v": 97
    },
    {
      "midi": 62,
      "hit": false,
      "t": 52461.3723333334,
      "d": 138.46110000000044,
      "v": 102
    },
    {
      "midi": 65,
      "hit": false,
      "t": 52461.3723333334,
      "d": 142.30724166666914,
      "v": 104
    },
    {
      "midi": 42,
      "hit": false,
      "t": 52461.372333333435,
      "d": 140.3841708333348,
      "v": 102
    },
    {
      "midi": 62,
      "hit": false,
      "t": 52615.218000000066,
      "d": 136.5380291666661,
      "v": 103
    },
    {
      "midi": 65,
      "hit": false,
      "t": 52615.218000000066,
      "d": 140.3841708333348,
      "v": 101
    },
    {
      "midi": 41,
      "hit": false,
      "t": 52615.2180000001,
      "d": 215.3839333333308,
      "v": 104
    },
    {
      "midi": 65,
      "hit": false,
      "t": 52769.063666666734,
      "d": 136.5380291666661,
      "v": 104
    },
    {
      "midi": 62,
      "hit": false,
      "t": 52769.063666666734,
      "d": 140.3841708333348,
      "v": 98
    },
    {
      "midi": 62,
      "hit": false,
      "t": 52922.9093333334,
      "d": 136.5380291666661,
      "v": 101
    },
    {
      "midi": 65,
      "hit": false,
      "t": 52922.9093333334,
      "d": 136.5380291666661,
      "v": 99
    },
    {
      "midi": 62,
      "hit": false,
      "t": 53076.75500000007,
      "d": 134.61495833333174,
      "v": 101
    },
    {
      "midi": 65,
      "hit": false,
      "t": 53076.75500000007,
      "d": 140.3841708333348,
      "v": 100
    },
    {
      "midi": 70,
      "hit": false,
      "t": 53076.75500000007,
      "d": 444.229362500002,
      "v": 96
    },
    {
      "midi": 58,
      "hit": false,
      "t": 53076.75500000007,
      "d": 449.9985750000051,
      "v": 102
    },
    {
      "midi": 46,
      "hit": false,
      "t": 53076.7550000001,
      "d": 211.53779166666936,
      "v": 97
    },
    {
      "midi": 62,
      "hit": false,
      "t": 53230.60066666674,
      "d": 134.61495833333174,
      "v": 100
    },
    {
      "midi": 65,
      "hit": false,
      "t": 53230.60066666674,
      "d": 134.61495833333174,
      "v": 96
    },
    {
      "midi": 65,
      "hit": false,
      "t": 53384.446333333406,
      "d": 134.61495833333174,
      "v": 103
    },
    {
      "midi": 62,
      "hit": false,
      "t": 53384.446333333406,
      "d": 136.5380291666661,
      "v": 100
    },
    {
      "midi": 62,
      "hit": false,
      "t": 53538.292000000074,
      "d": 136.5380291666661,
      "v": 106
    },
    {
      "midi": 60,
      "hit": false,
      "t": 53538.292000000074,
      "d": 138.46110000000044,
      "v": 100
    },
    {
      "midi": 74,
      "hit": false,
      "t": 53538.292000000074,
      "d": 1371.1495041666858,
      "v": 102
    },
    {
      "midi": 57,
      "hit": false,
      "t": 53538.2920000001,
      "d": 138.46110000000044,
      "v": 100
    },
    {
      "midi": 50,
      "hit": false,
      "t": 53538.2920000001,
      "d": 140.3841708333348,
      "v": 104
    },
    {
      "midi": 42,
      "hit": false,
      "t": 53538.2920000001,
      "d": 142.30724166666914,
      "v": 108
    },
    {
      "midi": 62,
      "hit": false,
      "t": 53692.13766666674,
      "d": 134.61495833333174,
      "v": 101
    },
    {
      "midi": 60,
      "hit": false,
      "t": 53692.13766666674,
      "d": 138.46110000000044,
      "v": 103
    },
    {
      "midi": 57,
      "hit": false,
      "t": 53692.13766666677,
      "d": 134.61495833333174,
      "v": 99
    },
    {
      "midi": 42,
      "hit": false,
      "t": 53692.13766666677,
      "d": 140.3841708333348,
      "v": 100
    },
    {
      "midi": 50,
      "hit": false,
      "t": 53692.13766666677,
      "d": 140.3841708333348,
      "v": 104
    },
    {
      "midi": 62,
      "hit": false,
      "t": 53845.98333333341,
      "d": 138.46110000000044,
      "v": 103
    },
    {
      "midi": 60,
      "hit": false,
      "t": 53845.98333333341,
      "d": 140.3841708333348,
      "v": 99
    },
    {
      "midi": 42,
      "hit": false,
      "t": 53845.98333333344,
      "d": 134.61495833333174,
      "v": 96
    },
    {
      "midi": 50,
      "hit": false,
      "t": 53845.98333333344,
      "d": 134.61495833333174,
      "v": 98
    },
    {
      "midi": 57,
      "hit": false,
      "t": 53845.98333333344,
      "d": 140.3841708333348,
      "v": 97
    },
    {
      "midi": 62,
      "hit": false,
      "t": 53999.82900000008,
      "d": 136.5380291666661,
      "v": 96
    },
    {
      "midi": 60,
      "hit": false,
      "t": 53999.82900000008,
      "d": 140.3841708333348,
      "v": 103
    },
    {
      "midi": 57,
      "hit": false,
      "t": 53999.82900000011,
      "d": 136.5380291666661,
      "v": 104
    },
    {
      "midi": 42,
      "hit": false,
      "t": 53999.82900000011,
      "d": 140.3841708333348,
      "v": 101
    },
    {
      "midi": 50,
      "hit": false,
      "t": 53999.82900000011,
      "d": 142.30724166666914,
      "v": 98
    },
    {
      "midi": 62,
      "hit": false,
      "t": 54153.674666666746,
      "d": 138.46110000000044,
      "v": 100
    },
    {
      "midi": 60,
      "hit": false,
      "t": 54153.674666666746,
      "d": 142.30724166666914,
      "v": 97
    },
    {
      "midi": 50,
      "hit": false,
      "t": 54153.674666666775,
      "d": 138.46110000000044,
      "v": 97
    },
    {
      "midi": 57,
      "hit": false,
      "t": 54153.674666666775,
      "d": 140.3841708333348,
      "v": 99
    },
    {
      "midi": 42,
      "hit": false,
      "t": 54153.674666666775,
      "d": 142.30724166666914,
      "v": 96
    },
    {
      "midi": 60,
      "hit": false,
      "t": 54307.520333333414,
      "d": 134.61495833333174,
      "v": 100
    },
    {
      "midi": 62,
      "hit": false,
      "t": 54307.520333333414,
      "d": 138.46110000000044,
      "v": 97
    },
    {
      "midi": 57,
      "hit": false,
      "t": 54307.52033333344,
      "d": 140.3841708333348,
      "v": 102
    },
    {
      "midi": 42,
      "hit": false,
      "t": 54307.52033333344,
      "d": 142.30724166666914,
      "v": 104
    },
    {
      "midi": 50,
      "hit": false,
      "t": 54307.52033333344,
      "d": 142.30724166666914,
      "v": 102
    },
    {
      "midi": 60,
      "hit": false,
      "t": 54461.36600000008,
      "d": 136.5380291666661,
      "v": 99
    },
    {
      "midi": 62,
      "hit": false,
      "t": 54461.36600000008,
      "d": 138.46110000000044,
      "v": 102
    },
    {
      "midi": 57,
      "hit": false,
      "t": 54461.36600000011,
      "d": 134.61495833333174,
      "v": 98
    },
    {
      "midi": 42,
      "hit": false,
      "t": 54461.36600000011,
      "d": 140.3841708333348,
      "v": 99
    },
    {
      "midi": 50,
      "hit": false,
      "t": 54461.36600000011,
      "d": 140.3841708333348,
      "v": 105
    },
    {
      "midi": 60,
      "hit": false,
      "t": 54615.21166666675,
      "d": 138.46110000000044,
      "v": 97
    },
    {
      "midi": 62,
      "hit": false,
      "t": 54615.21166666675,
      "d": 142.30724166666914,
      "v": 100
    },
    {
      "midi": 57,
      "hit": false,
      "t": 54615.21166666678,
      "d": 134.61495833333174,
      "v": 98
    },
    {
      "midi": 42,
      "hit": false,
      "t": 54615.21166666678,
      "d": 138.46110000000044,
      "v": 102
    },
    {
      "midi": 50,
      "hit": false,
      "t": 54615.21166666678,
      "d": 140.3841708333348,
      "v": 100
    },
    {
      "midi": 60,
      "hit": false,
      "t": 54769.05733333342,
      "d": 134.61495833333902,
      "v": 98
    },
    {
      "midi": 62,
      "hit": false,
      "t": 54769.05733333342,
      "d": 138.46110000000772,
      "v": 103
    },
    {
      "midi": 50,
      "hit": false,
      "t": 54769.05733333345,
      "d": 140.3841708333348,
      "v": 99
    },
    {
      "midi": 57,
      "hit": false,
      "t": 54769.05733333345,
      "d": 140.3841708333348,
      "v": 97
    },
    {
      "midi": 42,
      "hit": false,
      "t": 54769.05733333345,
      "d": 142.30724166666914,
      "v": 99
    },
    {
      "midi": 60,
      "hit": false,
      "t": 54922.90300000009,
      "d": 140.3841708333348,
      "v": 98
    },
    {
      "midi": 62,
      "hit": false,
      "t": 54922.90300000009,
      "d": 140.3841708333348,
      "v": 102
    },
    {
      "midi": 69,
      "hit": false,
      "t": 54922.90300000009,
      "d": 446.1524333333364,
      "v": 101
    },
    {
      "midi": 42,
      "hit": false,
      "t": 54922.903000000115,
      "d": 134.61495833333174,
      "v": 97
    },
    {
      "midi": 57,
      "hit": false,
      "t": 54922.903000000115,
      "d": 136.5380291666661,
      "v": 96
    },
    {
      "midi": 50,
      "hit": false,
      "t": 54922.903000000115,
      "d": 142.30724166666914,
      "v": 104
    },
    {
      "midi": 60,
      "hit": false,
      "t": 55076.74866666676,
      "d": 142.30724166666914,
      "v": 103
    },
    {
      "midi": 62,
      "hit": false,
      "t": 55076.74866666676,
      "d": 142.30724166666914,
      "v": 97
    },
    {
      "midi": 42,
      "hit": false,
      "t": 55076.74866666678,
      "d": 138.46110000000044,
      "v": 104
    },
    {
      "midi": 50,
      "hit": false,
      "t": 55076.74866666678,
      "d": 138.46110000000044,
      "v": 104
    },
    {
      "midi": 57,
      "hit": false,
      "t": 55076.74866666678,
      "d": 140.3841708333348,
      "v": 103
    },
    {
      "midi": 60,
      "hit": false,
      "t": 55230.59433333343,
      "d": 136.5380291666661,
      "v": 102
    },
    {
      "midi": 62,
      "hit": false,
      "t": 55230.59433333343,
      "d": 142.30724166666914,
      "v": 102
    },
    {
      "midi": 57,
      "hit": false,
      "t": 55230.59433333345,
      "d": 136.5380291666661,
      "v": 97
    },
    {
      "midi": 42,
      "hit": false,
      "t": 55230.59433333345,
      "d": 138.46110000000044,
      "v": 101
    },
    {
      "midi": 50,
      "hit": false,
      "t": 55230.59433333345,
      "d": 140.3841708333348,
      "v": 98
    },
    {
      "midi": 62,
      "hit": false,
      "t": 55384.4400000001,
      "d": 140.3841708333348,
      "v": 102
    },
    {
      "midi": 67,
      "hit": false,
      "t": 55384.4400000001,
      "d": 142.30724166666914,
      "v": 104
    },
    {
      "midi": 72,
      "hit": false,
      "t": 55384.4400000001,
      "d": 217.30700416666514,
      "v": 103
    },
    {
      "midi": 50,
      "hit": false,
      "t": 55384.44000000012,
      "d": 444.229362500002,
      "v": 104
    },
    {
      "midi": 58,
      "hit": false,
      "t": 55384.44000000012,
      "d": 446.1524333333364,
      "v": 104
    },
    {
      "midi": 43,
      "hit": false,
      "t": 55384.44000000012,
      "d": 448.0755041666707,
      "v": 101
    },
    {
      "midi": 67,
      "hit": false,
      "t": 55538.285666666765,
      "d": 140.38417083332752,
      "v": 101
    },
    {
      "midi": 62,
      "hit": false,
      "t": 55538.285666666765,
      "d": 142.30724166666187,
      "v": 100
    },
    {
      "midi": 55,
      "hit": false,
      "t": 55538.28566666679,
      "d": 134.61495833333174,
      "v": 102
    },
    {
      "midi": 70,
      "hit": false,
      "t": 55615.208500000095,
      "d": 219.2300749999995,
      "v": 97
    },
    {
      "midi": 67,
      "hit": false,
      "t": 55692.131333333426,
      "d": 138.46110000000044,
      "v": 103
    },
    {
      "midi": 62,
      "hit": false,
      "t": 55692.131333333426,
      "d": 142.30724166666914,
      "v": 97
    },
    {
      "midi": 55,
      "hit": false,
      "t": 55692.131333333455,
      "d": 134.61495833333174,
      "v": 102
    },
    {
      "midi": 62,
      "hit": false,
      "t": 55845.97700000009,
      "d": 134.61495833333174,
      "v": 101
    },
    {
      "midi": 67,
      "hit": false,
      "t": 55845.97700000009,
      "d": 136.5380291666661,
      "v": 100
    },
    {
      "midi": 70,
      "hit": false,
      "t": 55845.97700000009,
      "d": 446.1524333333364,
      "v": 100
    },
    {
      "midi": 50,
      "hit": false,
      "t": 55845.97700000012,
      "d": 134.61495833333174,
      "v": 97
    },
    {
      "midi": 55,
      "hit": false,
      "t": 55845.97700000012,
      "d": 136.5380291666661,
      "v": 104
    },
    {
      "midi": 58,
      "hit": false,
      "t": 55845.97700000012,
      "d": 142.30724166666914,
      "v": 96
    },
    {
      "midi": 62,
      "hit": false,
      "t": 55999.82266666676,
      "d": 138.46110000000044,
      "v": 97
    },
    {
      "midi": 67,
      "hit": false,
      "t": 55999.82266666676,
      "d": 142.30724166666914,
      "v": 97
    },
    {
      "midi": 58,
      "hit": false,
      "t": 55999.82266666679,
      "d": 134.61495833333174,
      "v": 99
    },
    {
      "midi": 50,
      "hit": false,
      "t": 55999.82266666679,
      "d": 138.46110000000044,
      "v": 98
    },
    {
      "midi": 55,
      "hit": false,
      "t": 55999.82266666679,
      "d": 138.46110000000044,
      "v": 96
    },
    {
      "midi": 62,
      "hit": false,
      "t": 56153.66833333343,
      "d": 134.61495833333174,
      "v": 101
    },
    {
      "midi": 67,
      "hit": false,
      "t": 56153.66833333343,
      "d": 134.61495833333174,
      "v": 100
    },
    {
      "midi": 50,
      "hit": false,
      "t": 56153.66833333346,
      "d": 136.5380291666661,
      "v": 101
    },
    {
      "midi": 55,
      "hit": false,
      "t": 56153.66833333346,
      "d": 136.5380291666661,
      "v": 103
    },
    {
      "midi": 58,
      "hit": false,
      "t": 56153.66833333346,
      "d": 138.46110000000044,
      "v": 99
    },
    {
      "midi": 55,
      "hit": false,
      "t": 56307.5140000001,
      "d": 140.3841708333348,
      "v": 101
    },
    {
      "midi": 39,
      "hit": false,
      "t": 56307.51400000013,
      "d": 444.229362500002,
      "v": 100
    },
    {
      "midi": 46,
      "hit": false,
      "t": 56307.51400000013,
      "d": 448.0755041666707,
      "v": 104
    },
    {
      "midi": 51,
      "hit": false,
      "t": 56307.51400000013,
      "d": 449.9985750000051,
      "v": 103
    },
    {
      "midi": 58,
      "hit": false,
      "t": 56461.359666666765,
      "d": 134.61495833333902,
      "v": 101
    },
    {
      "midi": 63,
      "hit": false,
      "t": 56461.359666666765,
      "d": 140.38417083334207,
      "v": 104
    },
    {
      "midi": 55,
      "hit": false,
      "t": 56461.359666666795,
      "d": 142.30724166666914,
      "v": 96
    },
    {
      "midi": 63,
      "hit": false,
      "t": 56615.20533333344,
      "d": 134.61495833333174,
      "v": 96
    },
    {
      "midi": 58,
      "hit": false,
      "t": 56615.20533333344,
      "d": 136.5380291666661,
      "v": 97
    },
    {
      "midi": 55,
      "hit": false,
      "t": 56615.20533333346,
      "d": 138.46110000000044,
      "v": 101
    },
    {
      "midi": 58,
      "hit": false,
      "t": 56769.05100000011,
      "d": 134.61495833333174,
      "v": 103
    },
    {
      "midi": 63,
      "hit": false,
      "t": 56769.05100000011,
      "d": 142.30724166666187,
      "v": 97
    },
    {
      "midi": 67,
      "hit": false,
      "t": 56769.05100000011,
      "d": 448.07550416666345,
      "v": 97
    },
    {
      "midi": 51,
      "hit": false,
      "t": 56769.05100000013,
      "d": 136.5380291666661,
      "v": 102
    },
    {
      "midi": 46,
      "hit": false,
      "t": 56769.05100000013,
      "d": 138.46110000000044,
      "v": 97
    },
    {
      "midi": 55,
      "hit": false,
      "t": 56769.05100000013,
      "d": 142.30724166666914,
      "v": 103
    },
    {
      "midi": 58,
      "hit": false,
      "t": 56922.89666666677,
      "d": 134.61495833333174,
      "v": 100
    },
    {
      "midi": 63,
      "hit": false,
      "t": 56922.89666666677,
      "d": 134.61495833333174,
      "v": 100
    },
    {
      "midi": 51,
      "hit": false,
      "t": 56922.8966666668,
      "d": 136.5380291666661,
      "v": 96
    },
    {
      "midi": 46,
      "hit": false,
      "t": 56922.8966666668,
      "d": 140.3841708333348,
      "v": 97
    },
    {
      "midi": 55,
      "hit": false,
      "t": 56922.8966666668,
      "d": 140.3841708333348,
      "v": 103
    },
    {
      "midi": 58,
      "hit": false,
      "t": 57076.74233333344,
      "d": 134.61495833333174,
      "v": 96
    },
    {
      "midi": 63,
      "hit": false,
      "t": 57076.74233333344,
      "d": 136.5380291666661,
      "v": 104
    },
    {
      "midi": 46,
      "hit": false,
      "t": 57076.74233333347,
      "d": 140.3841708333348,
      "v": 104
    },
    {
      "midi": 51,
      "hit": false,
      "t": 57076.74233333347,
      "d": 140.3841708333348,
      "v": 102
    },
    {
      "midi": 55,
      "hit": false,
      "t": 57076.74233333347,
      "d": 142.30724166666914,
      "v": 104
    },
    {
      "midi": 57,
      "hit": false,
      "t": 57230.588000000105,
      "d": 134.61495833333174,
      "v": 101
    },
    {
      "midi": 63,
      "hit": false,
      "t": 57230.588000000105,
      "d": 140.3841708333348,
      "v": 104
    },
    {
      "midi": 55,
      "hit": false,
      "t": 57230.588000000105,
      "d": 142.30724166666914,
      "v": 102
    },
    {
      "midi": 69,
      "hit": false,
      "t": 57230.588000000105,
      "d": 911.535575000009,
      "v": 113
    },
    {
      "midi": 36,
      "hit": false,
      "t": 57230.588000000134,
      "d": 134.61495833333174,
      "v": 101
    },
    {
      "midi": 43,
      "hit": false,
      "t": 57230.588000000134,
      "d": 136.5380291666661,
      "v": 104
    },
    {
      "midi": 45,
      "hit": false,
      "t": 57230.588000000134,
      "d": 138.46110000000044,
      "v": 104
    },
    {
      "midi": 51,
      "hit": false,
      "t": 57230.588000000134,
      "d": 140.3841708333348,
      "v": 108
    },
    {
      "midi": 55,
      "hit": false,
      "t": 57384.43366666677,
      "d": 134.61495833333174,
      "v": 99
    },
    {
      "midi": 57,
      "hit": false,
      "t": 57384.43366666677,
      "d": 138.46110000000044,
      "v": 97
    },
    {
      "midi": 63,
      "hit": false,
      "t": 57384.43366666677,
      "d": 140.3841708333348,
      "v": 100
    },
    {
      "midi": 51,
      "hit": false,
      "t": 57384.4336666668,
      "d": 134.61495833333174,
      "v": 101
    },
    {
      "midi": 43,
      "hit": false,
      "t": 57384.4336666668,
      "d": 138.46110000000044,
      "v": 103
    },
    {
      "midi": 45,
      "hit": false,
      "t": 57384.4336666668,
      "d": 138.46110000000044,
      "v": 103
    },
    {
      "midi": 36,
      "hit": false,
      "t": 57384.4336666668,
      "d": 140.3841708333348,
      "v": 100
    },
    {
      "midi": 57,
      "hit": false,
      "t": 57538.27933333344,
      "d": 136.5380291666661,
      "v": 100
    },
    {
      "midi": 63,
      "hit": false,
      "t": 57538.27933333344,
      "d": 136.5380291666661,
      "v": 96
    },
    {
      "midi": 55,
      "hit": false,
      "t": 57538.27933333344,
      "d": 140.3841708333348,
      "v": 100
    },
    {
      "midi": 36,
      "hit": false,
      "t": 57538.27933333347,
      "d": 138.46110000000044,
      "v": 99
    },
    {
      "midi": 43,
      "hit": false,
      "t": 57538.27933333347,
      "d": 140.3841708333348,
      "v": 99
    },
    {
      "midi": 45,
      "hit": false,
      "t": 57538.27933333347,
      "d": 142.30724166666914,
      "v": 103
    },
    {
      "midi": 51,
      "hit": false,
      "t": 57538.27933333347,
      "d": 142.30724166666914,
      "v": 97
    },
    {
      "midi": 57,
      "hit": false,
      "t": 57692.12500000011,
      "d": 134.61495833333174,
      "v": 103
    },
    {
      "midi": 63,
      "hit": false,
      "t": 57692.12500000011,
      "d": 140.3841708333348,
      "v": 102
    },
    {
      "midi": 55,
      "hit": false,
      "t": 57692.12500000011,
      "d": 142.30724166666914,
      "v": 104
    },
    {
      "midi": 45,
      "hit": false,
      "t": 57692.12500000014,
      "d": 134.61495833333174,
      "v": 96
    },
    {
      "midi": 43,
      "hit": false,
      "t": 57692.12500000014,
      "d": 136.5380291666661,
      "v": 103
    },
    {
      "midi": 51,
      "hit": false,
      "t": 57692.12500000014,
      "d": 136.5380291666661,
      "v": 100
    },
    {
      "midi": 63,
      "hit": false,
      "t": 57845.97066666678,
      "d": 134.61495833333174,
      "v": 100
    },
    {
      "midi": 55,
      "hit": false,
      "t": 57845.97066666678,
      "d": 138.46110000000044,
      "v": 101
    },
    {
      "midi": 57,
      "hit": false,
      "t": 57845.97066666678,
      "d": 140.3841708333348,
      "v": 100
    },
    {
      "midi": 43,
      "hit": false,
      "t": 57845.970666666806,
      "d": 134.61495833333174,
      "v": 96
    },
    {
      "midi": 45,
      "hit": false,
      "t": 57845.970666666806,
      "d": 138.46110000000044,
      "v": 104
    },
    {
      "midi": 51,
      "hit": false,
      "t": 57845.970666666806,
      "d": 140.3841708333348,
      "v": 99
    },
    {
      "midi": 55,
      "hit": false,
      "t": 57999.816333333445,
      "d": 136.5380291666661,
      "v": 102
    },
    {
      "midi": 63,
      "hit": false,
      "t": 57999.816333333445,
      "d": 138.46110000000044,
      "v": 97
    },
    {
      "midi": 57,
      "hit": false,
      "t": 57999.816333333445,
      "d": 142.30724166666914,
      "v": 102
    },
    {
      "midi": 45,
      "hit": false,
      "t": 57999.816333333474,
      "d": 134.61495833333174,
      "v": 98
    },
    {
      "midi": 43,
      "hit": false,
      "t": 57999.816333333474,
      "d": 136.5380291666661,
      "v": 102
    },
    {
      "midi": 51,
      "hit": false,
      "t": 57999.816333333474,
      "d": 142.30724166666914,
      "v": 97
    },
    {
      "midi": 54,
      "hit": false,
      "t": 58153.66200000011,
      "d": 136.53802916667337,
      "v": 105
    },
    {
      "midi": 62,
      "hit": false,
      "t": 58153.66200000011,
      "d": 138.46110000000772,
      "v": 98
    },
    {
      "midi": 57,
      "hit": false,
      "t": 58153.66200000011,
      "d": 140.38417083334207,
      "v": 103
    },
    {
      "midi": 66,
      "hit": false,
      "t": 58153.66200000011,
      "d": 905.7663625000059,
      "v": 107
    },
    {
      "midi": 42,
      "hit": false,
      "t": 58153.66200000014,
      "d": 134.61495833333902,
      "v": 106
    },
    {
      "midi": 50,
      "hit": false,
      "t": 58153.66200000014,
      "d": 134.61495833333902,
      "v": 102
    },
    {
      "midi": 38,
      "hit": false,
      "t": 58153.66200000014,
      "d": 140.38417083334207,
      "v": 103
    },
    {
      "midi": 45,
      "hit": false,
      "t": 58153.66200000014,
      "d": 140.38417083334207,
      "v": 100
    },
    {
      "midi": 54,
      "hit": false,
      "t": 58307.50766666679,
      "d": 134.61495833333174,
      "v": 101
    },
    {
      "midi": 62,
      "hit": false,
      "t": 58307.50766666679,
      "d": 140.3841708333348,
      "v": 104
    },
    {
      "midi": 57,
      "hit": false,
      "t": 58307.50766666679,
      "d": 142.30724166666914,
      "v": 103
    },
    {
      "midi": 38,
      "hit": false,
      "t": 58307.50766666682,
      "d": 134.61495833333174,
      "v": 101
    },
    {
      "midi": 42,
      "hit": false,
      "t": 58307.50766666682,
      "d": 140.3841708333348,
      "v": 103
    },
    {
      "midi": 45,
      "hit": false,
      "t": 58307.50766666682,
      "d": 140.3841708333348,
      "v": 98
    },
    {
      "midi": 50,
      "hit": false,
      "t": 58307.50766666682,
      "d": 142.30724166666914,
      "v": 103
    },
    {
      "midi": 57,
      "hit": false,
      "t": 58461.353333333456,
      "d": 134.61495833333174,
      "v": 98
    },
    {
      "midi": 62,
      "hit": false,
      "t": 58461.353333333456,
      "d": 138.46110000000044,
      "v": 99
    },
    {
      "midi": 54,
      "hit": false,
      "t": 58461.353333333456,
      "d": 140.3841708333348,
      "v": 101
    },
    {
      "midi": 42,
      "hit": false,
      "t": 58461.353333333485,
      "d": 140.3841708333348,
      "v": 99
    },
    {
      "midi": 45,
      "hit": false,
      "t": 58461.353333333485,
      "d": 140.3841708333348,
      "v": 100
    },
    {
      "midi": 50,
      "hit": false,
      "t": 58461.353333333485,
      "d": 140.3841708333348,
      "v": 104
    },
    {
      "midi": 38,
      "hit": false,
      "t": 58461.353333333485,
      "d": 142.30724166666914,
      "v": 104
    },
    {
      "midi": 54,
      "hit": false,
      "t": 58615.199000000124,
      "d": 140.38417083332752,
      "v": 97
    },
    {
      "midi": 62,
      "hit": false,
      "t": 58615.199000000124,
      "d": 140.38417083332752,
      "v": 96
    },
    {
      "midi": 57,
      "hit": false,
      "t": 58615.199000000124,
      "d": 142.30724166666187,
      "v": 100
    },
    {
      "midi": 42,
      "hit": false,
      "t": 58615.19900000015,
      "d": 134.61495833333174,
      "v": 97
    },
    {
      "midi": 45,
      "hit": false,
      "t": 58615.19900000015,
      "d": 142.30724166666187,
      "v": 102
    },
    {
      "midi": 50,
      "hit": false,
      "t": 58615.19900000015,
      "d": 142.30724166666187,
      "v": 102
    },
    {
      "midi": 54,
      "hit": false,
      "t": 58769.044666666785,
      "d": 140.3841708333348,
      "v": 100
    },
    {
      "midi": 57,
      "hit": false,
      "t": 58769.044666666785,
      "d": 140.3841708333348,
      "v": 97
    },
    {
      "midi": 62,
      "hit": false,
      "t": 58769.044666666785,
      "d": 142.30724166666914,
      "v": 100
    },
    {
      "midi": 42,
      "hit": false,
      "t": 58769.044666666814,
      "d": 138.46110000000044,
      "v": 100
    },
    {
      "midi": 50,
      "hit": false,
      "t": 58769.044666666814,
      "d": 140.3841708333348,
      "v": 98
    },
    {
      "midi": 45,
      "hit": false,
      "t": 58769.044666666814,
      "d": 142.30724166666914,
      "v": 104
    },
    {
      "midi": 57,
      "hit": false,
      "t": 58922.89033333345,
      "d": 136.5380291666661,
      "v": 98
    },
    {
      "midi": 54,
      "hit": false,
      "t": 58922.89033333345,
      "d": 138.46110000000044,
      "v": 102
    },
    {
      "midi": 62,
      "hit": false,
      "t": 58922.89033333345,
      "d": 140.3841708333348,
      "v": 97
    },
    {
      "midi": 45,
      "hit": false,
      "t": 58922.89033333348,
      "d": 134.61495833333174,
      "v": 101
    },
    {
      "midi": 50,
      "hit": false,
      "t": 58922.89033333348,
      "d": 138.46110000000044,
      "v": 97
    },
    {
      "midi": 42,
      "hit": false,
      "t": 58922.89033333348,
      "d": 142.30724166666914,
      "v": 97
    },
    {
      "midi": 62,
      "hit": false,
      "t": 59076.73600000012,
      "d": 136.5380291666661,
      "v": 107
    },
    {
      "midi": 67,
      "hit": false,
      "t": 59076.73600000012,
      "d": 136.5380291666661,
      "v": 106
    },
    {
      "midi": 55,
      "hit": false,
      "t": 59076.73600000012,
      "d": 138.46110000000044,
      "v": 108
    },
    {
      "midi": 58,
      "hit": false,
      "t": 59076.73600000012,
      "d": 140.3841708333348,
      "v": 106
    },
    {
      "midi": 43,
      "hit": false,
      "t": 59076.73600000015,
      "d": 442.3062916666677,
      "v": 108
    },
    {
      "midi": 38,
      "hit": false,
      "t": 59076.73600000015,
      "d": 444.229362500002,
      "v": 102
    },
    {
      "midi": 31,
      "hit": false,
      "t": 59076.73600000015,
      "d": 448.0755041666707,
      "v": 101
    },
    {
      "midi": 34,
      "hit": false,
      "t": 59076.73600000015,
      "d": 449.9985750000051,
      "v": 100
    },
    {
      "midi": 55,
      "hit": false,
      "t": 59230.58166666679,
      "d": 138.46110000000044,
      "v": 103
    },
    {
      "midi": 67,
      "hit": false,
      "t": 59230.58166666679,
      "d": 138.46110000000044,
      "v": 102
    },
    {
      "midi": 55,
      "hit": false,
      "t": 59384.42733333346,
      "d": 140.3841708333348,
      "v": 99
    },
    {
      "midi": 67,
      "hit": false,
      "t": 59384.42733333346,
      "d": 142.30724166666914,
      "v": 103
    },
    {
      "midi": 55,
      "hit": false,
      "t": 59538.273000000125,
      "d": 140.3841708333348,
      "v": 99
    },
    {
      "midi": 67,
      "hit": false,
      "t": 59538.273000000125,
      "d": 140.3841708333348,
      "v": 103
    },
    {
      "midi": 55,
      "hit": false,
      "t": 59692.11866666679,
      "d": 138.46110000000044,
      "v": 100
    },
    {
      "midi": 67,
      "hit": false,
      "t": 59692.11866666679,
      "d": 140.3841708333348,
      "v": 104
    },
    {
      "midi": 55,
      "hit": false,
      "t": 59845.96433333346,
      "d": 140.3841708333348,
      "v": 102
    },
    {
      "midi": 67,
      "hit": false,
      "t": 59845.96433333346,
      "d": 142.30724166666914,
      "v": 99
    },
    {
      "midi": 55,
      "hit": false,
      "t": 59999.81000000013,
      "d": 136.5380291666661,
      "v": 101
    },
    {
      "midi": 67,
      "hit": false,
      "t": 59999.81000000013,
      "d": 140.3841708333348,
      "v": 105
    },
    {
      "midi": 55,
      "hit": false,
      "t": 60153.6556666668,
      "d": 138.46110000000044,
      "v": 96
    },
    {
      "midi": 67,
      "hit": false,
      "t": 60153.6556666668,
      "d": 142.30724166666914,
      "v": 97
    },
    {
      "midi": 67,
      "hit": false,
      "t": 60307.501333333465,
      "d": 138.46110000000044,
      "v": 99
    },
    {
      "midi": 55,
      "hit": false,
      "t": 60307.501333333465,
      "d": 142.30724166666914,
      "v": 104
    },
    {
      "midi": 55,
      "hit": false,
      "t": 60461.34700000013,
      "d": 138.46110000000044,
      "v": 98
    },
    {
      "midi": 67,
      "hit": false,
      "t": 60461.34700000013,
      "d": 138.46110000000044,
      "v": 103
    },
    {
      "midi": 55,
      "hit": false,
      "t": 60615.1926666668,
      "d": 142.30724166666914,
      "v": 98
    },
    {
      "midi": 67,
      "hit": false,
      "t": 60615.1926666668,
      "d": 142.30724166666914,
      "v": 103
    },
    {
      "midi": 55,
      "hit": false,
      "t": 60769.03833333347,
      "d": 134.61495833333174,
      "v": 99
    },
    {
      "midi": 67,
      "hit": false,
      "t": 60769.03833333347,
      "d": 136.5380291666661,
      "v": 99
    },
    {
      "midi": 55,
      "hit": false,
      "t": 60922.88400000014,
      "d": 136.5380291666661,
      "v": 106
    },
    {
      "midi": 67,
      "hit": false,
      "t": 60922.88400000014,
      "d": 140.3841708333348,
      "v": 103
    },
    {
      "midi": 31,
      "hit": false,
      "t": 60922.88400000016,
      "d": 140.3841708333348,
      "v": 104
    },
    {
      "midi": 43,
      "hit": false,
      "t": 60922.88400000016,
      "d": 142.30724166666914,
      "v": 107
    },
    {
      "midi": 67,
      "hit": false,
      "t": 61076.729666666804,
      "d": 140.3841708333348,
      "v": 99
    },
    {
      "midi": 55,
      "hit": false,
      "t": 61076.729666666804,
      "d": 142.30724166666914,
      "v": 100
    },
    {
      "midi": 45,
      "hit": false,
      "t": 61076.729666666826,
      "d": 138.46110000000044,
      "v": 99
    },
    {
      "midi": 33,
      "hit": false,
      "t": 61076.729666666826,
      "d": 142.30724166666914,
      "v": 96
    },
    {
      "midi": 67,
      "hit": false,
      "t": 61230.57533333347,
      "d": 134.61495833333174,
      "v": 96
    },
    {
      "midi": 55,
      "hit": false,
      "t": 61230.57533333347,
      "d": 140.3841708333348,
      "v": 97
    },
    {
      "midi": 34,
      "hit": false,
      "t": 61230.575333333494,
      "d": 140.3841708333348,
      "v": 104
    },
    {
      "midi": 46,
      "hit": false,
      "t": 61230.575333333494,
      "d": 140.3841708333348,
      "v": 97
    },
    {
      "midi": 67,
      "hit": false,
      "t": 61384.42100000014,
      "d": 134.61495833333174,
      "v": 100
    },
    {
      "midi": 55,
      "hit": false,
      "t": 61384.42100000014,
      "d": 138.46110000000044,
      "v": 98
    },
    {
      "midi": 48,
      "hit": false,
      "t": 61384.42100000016,
      "d": 134.61495833333174,
      "v": 102
    },
    {
      "midi": 36,
      "hit": false,
      "t": 61384.42100000016,
      "d": 142.30724166666187,
      "v": 100
    },
    {
      "midi": 55,
      "hit": false,
      "t": 61538.26666666681,
      "d": 138.46110000000044,
      "v": 97
    },
    {
      "midi": 67,
      "hit": false,
      "t": 61538.26666666681,
      "d": 138.46110000000044,
      "v": 104
    },
    {
      "midi": 50,
      "hit": false,
      "t": 61538.26666666682,
      "d": 140.3841708333348,
      "v": 101
    },
    {
      "midi": 38,
      "hit": false,
      "t": 61538.26666666682,
      "d": 142.30724166666914,
      "v": 104
    },
    {
      "midi": 55,
      "hit": false,
      "t": 61692.112333333476,
      "d": 134.61495833333174,
      "v": 101
    },
    {
      "midi": 67,
      "hit": false,
      "t": 61692.112333333476,
      "d": 142.30724166666187,
      "v": 97
    },
    {
      "midi": 39,
      "hit": false,
      "t": 61692.11233333349,
      "d": 136.5380291666661,
      "v": 100
    },
    {
      "midi": 51,
      "hit": false,
      "t": 61692.11233333349,
      "d": 142.30724166666914,
      "v": 97
    },
    {
      "midi": 67,
      "hit": false,
      "t": 61845.95800000014,
      "d": 134.61495833333174,
      "v": 105
    },
    {
      "midi": 55,
      "hit": false,
      "t": 61845.95800000014,
      "d": 140.3841708333348,
      "v": 99
    },
    {
      "midi": 38,
      "hit": false,
      "t": 61845.95800000016,
      "d": 211.53779166666936,
      "v": 100
    },
    {
      "midi": 50,
      "hit": false,
      "t": 61845.95800000016,
      "d": 213.4608625000037,
      "v": 100
    },
    {
      "midi": 55,
      "hit": false,
      "t": 61999.803666666805,
      "d": 134.61495833333174,
      "v": 102
    },
    {
      "midi": 67,
      "hit": false,
      "t": 61999.803666666805,
      "d": 134.61495833333174,
      "v": 103
    },
    {
      "midi": 55,
      "hit": false,
      "t": 62153.64933333347,
      "d": 136.5380291666661,
      "v": 98
    },
    {
      "midi": 67,
      "hit": false,
      "t": 62153.64933333347,
      "d": 140.3841708333348,
      "v": 100
    },
    {
      "midi": 67,
      "hit": false,
      "t": 62307.49500000014,
      "d": 136.5380291666661,
      "v": 101
    },
    {
      "midi": 55,
      "hit": false,
      "t": 62307.49500000014,
      "d": 140.3841708333348,
      "v": 104
    },
    {
      "midi": 34,
      "hit": false,
      "t": 62307.49500000016,
      "d": 213.46086249999644,
      "v": 96
    },
    {
      "midi": 46,
      "hit": false,
      "t": 62307.49500000016,
      "d": 219.2300749999995,
      "v": 104
    },
    {
      "midi": 55,
      "hit": false,
      "t": 62461.34066666681,
      "d": 138.46110000000044,
      "v": 103
    },
    {
      "midi": 67,
      "hit": false,
      "t": 62461.34066666681,
      "d": 138.46110000000044,
      "v": 103
    },
    {
      "midi": 55,
      "hit": false,
      "t": 62615.18633333348,
      "d": 136.5380291666661,
      "v": 99
    },
    {
      "midi": 67,
      "hit": false,
      "t": 62615.18633333348,
      "d": 140.3841708333348,
      "v": 102
    },
    {
      "midi": 67,
      "hit": false,
      "t": 62769.032000000145,
      "d": 134.61495833333174,
      "v": 100
    },
    {
      "midi": 55,
      "hit": false,
      "t": 62769.032000000145,
      "d": 138.46110000000044,
      "v": 103
    },
    {
      "midi": 43,
      "hit": false,
      "t": 62769.03200000016,
      "d": 213.46086249999644,
      "v": 102
    },
    {
      "midi": 31,
      "hit": false,
      "t": 62769.03200000016,
      "d": 219.2300749999995,
      "v": 100
    },
    {
      "midi": 67,
      "hit": false,
      "t": 62922.87766666681,
      "d": 138.46110000000044,
      "v": 103
    },
    {
      "midi": 55,
      "hit": false,
      "t": 62922.87766666681,
      "d": 142.30724166666914,
      "v": 102
    },
    {
      "midi": 55,
      "hit": false,
      "t": 63076.72333333348,
      "d": 134.61495833333174,
      "v": 97
    },
    {
      "midi": 67,
      "hit": false,
      "t": 63076.72333333348,
      "d": 138.46110000000044,
      "v": 98
    },
    {
      "midi": 55,
      "hit": false,
      "t": 63230.56900000015,
      "d": 136.5380291666661,
      "v": 104
    },
    {
      "midi": 67,
      "hit": false,
      "t": 63230.56900000015,
      "d": 136.5380291666661,
      "v": 97
    },
    {
      "midi": 55,
      "hit": false,
      "t": 63384.41466666682,
      "d": 134.61495833333174,
      "v": 96
    },
    {
      "midi": 67,
      "hit": false,
      "t": 63384.41466666682,
      "d": 142.30724166666187,
      "v": 101
    },
    {
      "midi": 67,
      "hit": false,
      "t": 63538.26033333348,
      "d": 140.3841708333348,
      "v": 101
    },
    {
      "midi": 55,
      "hit": false,
      "t": 63538.26033333348,
      "d": 142.30724166666914,
      "v": 101
    },
    {
      "midi": 55,
      "hit": false,
      "t": 63692.106000000145,
      "d": 140.3841708333348,
      "v": 103
    },
    {
      "midi": 67,
      "hit": false,
      "t": 63692.106000000145,
      "d": 140.3841708333348,
      "v": 100
    },
    {
      "midi": 55,
      "hit": false,
      "t": 63845.95166666681,
      "d": 138.46110000000044,
      "v": 103
    },
    {
      "midi": 67,
      "hit": false,
      "t": 63845.95166666681,
      "d": 140.3841708333348,
      "v": 104
    },
    {
      "midi": 55,
      "hit": false,
      "t": 63999.79733333348,
      "d": 140.3841708333348,
      "v": 97
    },
    {
      "midi": 67,
      "hit": false,
      "t": 63999.79733333348,
      "d": 142.30724166666914,
      "v": 99
    },
    {
      "midi": 55,
      "hit": false,
      "t": 64153.64300000015,
      "d": 136.5380291666661,
      "v": 100
    },
    {
      "midi": 67,
      "hit": false,
      "t": 64153.64300000015,
      "d": 138.46110000000044,
      "v": 104
    },
    {
      "midi": 67,
      "hit": false,
      "t": 64307.48866666682,
      "d": 134.61495833333174,
      "v": 97
    },
    {
      "midi": 55,
      "hit": false,
      "t": 64307.48866666682,
      "d": 142.30724166666187,
      "v": 100
    },
    {
      "midi": 67,
      "hit": false,
      "t": 64461.33433333348,
      "d": 138.46110000000044,
      "v": 104
    },
    {
      "midi": 55,
      "hit": false,
      "t": 64461.33433333348,
      "d": 142.30724166666914,
      "v": 102
    },
    {
      "midi": 67,
      "hit": false,
      "t": 64615.180000000146,
      "d": 134.61495833333174,
      "v": 74
    },
    {
      "midi": 55,
      "hit": false,
      "t": 64615.180000000146,
      "d": 142.30724166666187,
      "v": 71
    },
    {
      "midi": 31,
      "hit": false,
      "t": 64615.18000000016,
      "d": 136.5380291666661,
      "v": 79
    },
    {
      "midi": 67,
      "hit": false,
      "t": 64769.02566666681,
      "d": 134.61495833333174,
      "v": 74
    },
    {
      "midi": 55,
      "hit": false,
      "t": 64769.02566666681,
      "d": 140.3841708333348,
      "v": 75
    },
    {
      "midi": 33,
      "hit": false,
      "t": 64769.02566666683,
      "d": 142.30724166666914,
      "v": 72
    },
    {
      "midi": 55,
      "hit": false,
      "t": 64922.871333333474,
      "d": 138.46110000000044,
      "v": 68
    },
    {
      "midi": 67,
      "hit": false,
      "t": 64922.871333333474,
      "d": 142.30724166666914,
      "v": 73
    },
    {
      "midi": 34,
      "hit": false,
      "t": 64922.871333333496,
      "d": 138.46110000000044,
      "v": 67
    },
    {
      "midi": 55,
      "hit": false,
      "t": 65076.71700000014,
      "d": 134.61495833333174,
      "v": 70
    },
    {
      "midi": 67,
      "hit": false,
      "t": 65076.71700000014,
      "d": 134.61495833333174,
      "v": 71
    },
    {
      "midi": 36,
      "hit": false,
      "t": 65076.717000000164,
      "d": 136.5380291666661,
      "v": 72
    },
    {
      "midi": 67,
      "hit": false,
      "t": 65230.56266666681,
      "d": 134.61495833333174,
      "v": 69
    },
    {
      "midi": 55,
      "hit": false,
      "t": 65230.56266666681,
      "d": 136.5380291666661,
      "v": 72
    },
    {
      "midi": 38,
      "hit": false,
      "t": 65230.56266666683,
      "d": 142.30724166666914,
      "v": 71
    },
    {
      "midi": 67,
      "hit": false,
      "t": 65384.40833333348,
      "d": 134.61495833333174,
      "v": 74
    },
    {
      "midi": 55,
      "hit": false,
      "t": 65384.40833333348,
      "d": 138.46110000000044,
      "v": 67
    },
    {
      "midi": 39,
      "hit": false,
      "t": 65384.4083333335,
      "d": 140.3841708333348,
      "v": 75
    },
    {
      "midi": 55,
      "hit": false,
      "t": 65538.25400000015,
      "d": 138.46110000000044,
      "v": 69
    },
    {
      "midi": 67,
      "hit": false,
      "t": 65538.25400000015,
      "d": 140.3841708333348,
      "v": 72
    },
    {
      "midi": 38,
      "hit": false,
      "t": 65538.25400000018,
      "d": 213.46086249999644,
      "v": 74
    },
    {
      "midi": 55,
      "hit": false,
      "t": 65692.09966666682,
      "d": 140.3841708333348,
      "v": 68
    },
    {
      "midi": 67,
      "hit": false,
      "t": 65692.09966666682,
      "d": 140.3841708333348,
      "v": 69
    },
    {
      "midi": 67,
      "hit": false,
      "t": 65845.9453333335,
      "d": 140.3841708333348,
      "v": 71
    },
    {
      "midi": 55,
      "hit": false,
      "t": 65845.9453333335,
      "d": 142.30724166666914,
      "v": 71
    },
    {
      "midi": 55,
      "hit": false,
      "t": 65999.79100000017,
      "d": 136.5380291666661,
      "v": 70
    },
    {
      "midi": 67,
      "hit": false,
      "t": 65999.79100000017,
      "d": 142.30724166666914,
      "v": 73
    },
    {
      "midi": 34,
      "hit": false,
      "t": 65999.79100000017,
      "d": 213.46086249999644,
      "v": 68
    },
    {
      "midi": 67,
      "hit": false,
      "t": 66153.63666666685,
      "d": 136.5380291666661,
      "v": 71
    },
    {
      "midi": 55,
      "hit": false,
      "t": 66153.63666666685,
      "d": 142.30724166666914,
      "v": 68
    },
    {
      "midi": 67,
      "hit": false,
      "t": 66307.48233333352,
      "d": 136.5380291666661,
      "v": 74
    },
    {
      "midi": 55,
      "hit": false,
      "t": 66307.48233333352,
      "d": 140.3841708333348,
      "v": 72
    },
    {
      "midi": 31,
      "hit": false,
      "t": 66461.32800000017,
      "d": 215.3839333333308,
      "v": 74
    },
    {
      "midi": 55,
      "hit": false,
      "t": 66461.3280000002,
      "d": 134.61495833333174,
      "v": 73
    },
    {
      "midi": 67,
      "hit": false,
      "t": 66461.3280000002,
      "d": 136.5380291666661,
      "v": 77
    },
    {
      "midi": 67,
      "hit": false,
      "t": 66615.17366666686,
      "d": 134.61495833333174,
      "v": 75
    },
    {
      "midi": 55,
      "hit": false,
      "t": 66615.17366666686,
      "d": 138.46110000000044,
      "v": 74
    },
    {
      "midi": 67,
      "hit": false,
      "t": 66769.01933333352,
      "d": 134.61495833333174,
      "v": 74
    },
    {
      "midi": 55,
      "hit": false,
      "t": 66769.01933333352,
      "d": 142.30724166666914,
      "v": 73
    },
    {
      "midi": 67,
      "hit": false,
      "t": 66922.8650000002,
      "d": 134.61495833333174,
      "v": 71
    },
    {
      "midi": 55,
      "hit": false,
      "t": 66922.8650000002,
      "d": 136.5380291666661,
      "v": 67
    },
    {
      "midi": 55,
      "hit": false,
      "t": 67076.71066666686,
      "d": 134.61495833333174,
      "v": 70
    },
    {
      "midi": 67,
      "hit": false,
      "t": 67076.71066666686,
      "d": 136.5380291666661,
      "v": 72
    },
    {
      "midi": 55,
      "hit": false,
      "t": 67230.55633333352,
      "d": 134.61495833333174,
      "v": 72
    },
    {
      "midi": 67,
      "hit": false,
      "t": 67230.55633333352,
      "d": 134.61495833333174,
      "v": 67
    },
    {
      "midi": 55,
      "hit": false,
      "t": 67384.40200000018,
      "d": 140.3841708333348,
      "v": 69
    },
    {
      "midi": 67,
      "hit": false,
      "t": 67384.40200000018,
      "d": 140.3841708333348,
      "v": 74
    },
    {
      "midi": 55,
      "hit": false,
      "t": 67538.24766666685,
      "d": 134.61495833333174,
      "v": 73
    },
    {
      "midi": 67,
      "hit": false,
      "t": 67538.24766666685,
      "d": 142.30724166666914,
      "v": 73
    },
    {
      "midi": 55,
      "hit": false,
      "t": 67692.09333333353,
      "d": 138.46110000000044,
      "v": 75
    },
    {
      "midi": 67,
      "hit": false,
      "t": 67692.09333333353,
      "d": 138.46110000000044,
      "v": 74
    },
    {
      "midi": 50,
      "hit": false,
      "t": 67845.93900000017,
      "d": 448.0755041666707,
      "v": 69
    },
    {
      "midi": 55,
      "hit": false,
      "t": 67845.93900000019,
      "d": 138.46110000000044,
      "v": 68
    },
    {
      "midi": 67,
      "hit": false,
      "t": 67845.93900000019,
      "d": 142.30724166666914,
      "v": 74
    },
    {
      "midi": 67,
      "hit": false,
      "t": 67999.78466666686,
      "d": 138.46110000000044,
      "v": 73
    },
    {
      "midi": 55,
      "hit": false,
      "t": 67999.78466666686,
      "d": 140.3841708333348,
      "v": 67
    },
    {
      "midi": 67,
      "hit": false,
      "t": 68153.63033333354,
      "d": 136.5380291666661,
      "v": 73
    },
    {
      "midi": 55,
      "hit": false,
      "t": 68153.63033333354,
      "d": 138.46110000000044,
      "v": 75
    },
    {
      "midi": 55,
      "hit": false,
      "t": 68307.47600000018,
      "d": 911.5355750000017,
      "v": 72
    },
    {
      "midi": 55,
      "hit": false,
      "t": 68461.32166666687,
      "d": 134.61495833333174,
      "v": 75
    },
    {
      "midi": 67,
      "hit": false,
      "t": 68461.32166666687,
      "d": 142.30724166666914,
      "v": 74
    },
    {
      "midi": 55,
      "hit": false,
      "t": 68615.16733333355,
      "d": 142.30724166666914,
      "v": 68
    },
    {
      "midi": 67,
      "hit": false,
      "t": 68615.16733333355,
      "d": 142.30724166666914,
      "v": 68
    },
    {
      "midi": 67,
      "hit": false,
      "t": 68769.01300000022,
      "d": 134.61495833333174,
      "v": 75
    },
    {
      "midi": 55,
      "hit": false,
      "t": 68769.01300000022,
      "d": 138.46110000000044,
      "v": 72
    },
    {
      "midi": 55,
      "hit": false,
      "t": 68922.85866666689,
      "d": 140.3841708333348,
      "v": 68
    },
    {
      "midi": 67,
      "hit": false,
      "t": 68922.85866666689,
      "d": 140.3841708333348,
      "v": 75
    },
    {
      "midi": 67,
      "hit": false,
      "t": 69076.70433333356,
      "d": 136.5380291666661,
      "v": 73
    },
    {
      "midi": 55,
      "hit": false,
      "t": 69076.70433333356,
      "d": 140.3841708333348,
      "v": 69
    },
    {
      "midi": 55,
      "hit": false,
      "t": 69230.55000000024,
      "d": 140.3841708333348,
      "v": 70
    },
    {
      "midi": 67,
      "hit": false,
      "t": 69230.55000000024,
      "d": 142.30724166666914,
      "v": 74
    },
    {
      "midi": 67,
      "hit": false,
      "t": 69384.39566666691,
      "d": 134.61495833333174,
      "v": 72
    },
    {
      "midi": 55,
      "hit": false,
      "t": 69384.39566666691,
      "d": 138.46110000000044,
      "v": 74
    },
    {
      "midi": 55,
      "hit": false,
      "t": 69538.24133333357,
      "d": 134.61495833333174,
      "v": 69
    },
    {
      "midi": 67,
      "hit": false,
      "t": 69538.24133333357,
      "d": 138.46110000000044,
      "v": 71
    },
    {
      "midi": 50,
      "hit": false,
      "t": 69692.08700000019,
      "d": 448.0755041666707,
      "v": 75
    },
    {
      "midi": 55,
      "hit": false,
      "t": 69692.08700000023,
      "d": 140.3841708333348,
      "v": 72
    },
    {
      "midi": 67,
      "hit": false,
      "t": 69692.08700000023,
      "d": 140.3841708333348,
      "v": 70
    },
    {
      "midi": 55,
      "hit": false,
      "t": 69845.93266666691,
      "d": 134.61495833333174,
      "v": 70
    },
    {
      "midi": 67,
      "hit": false,
      "t": 69845.93266666691,
      "d": 140.3841708333348,
      "v": 68
    },
    {
      "midi": 55,
      "hit": false,
      "t": 69999.77833333358,
      "d": 138.46110000000044,
      "v": 68
    },
    {
      "midi": 67,
      "hit": false,
      "t": 69999.77833333358,
      "d": 142.30724166666914,
      "v": 75
    },
    {
      "midi": 55,
      "hit": false,
      "t": 70153.6240000002,
      "d": 909.6125041666673,
      "v": 75
    },
    {
      "midi": 67,
      "hit": false,
      "t": 70307.46966666692,
      "d": 140.3841708333348,
      "v": 73
    },
    {
      "midi": 55,
      "hit": false,
      "t": 70307.46966666692,
      "d": 142.30724166666914,
      "v": 68
    },
    {
      "midi": 55,
      "hit": false,
      "t": 70461.3153333336,
      "d": 136.5380291666661,
      "v": 69
    },
    {
      "midi": 67,
      "hit": false,
      "t": 70461.3153333336,
      "d": 136.5380291666661,
      "v": 67
    },
    {
      "midi": 55,
      "hit": false,
      "t": 70615.16100000025,
      "d": 134.61495833333174,
      "v": 69
    },
    {
      "midi": 67,
      "hit": false,
      "t": 70615.16100000025,
      "d": 138.46110000000044,
      "v": 74
    },
    {
      "midi": 55,
      "hit": false,
      "t": 70769.00666666692,
      "d": 134.61495833333174,
      "v": 72
    },
    {
      "midi": 67,
      "hit": false,
      "t": 70769.00666666692,
      "d": 140.3841708333348,
      "v": 72
    },
    {
      "midi": 55,
      "hit": false,
      "t": 70922.85233333359,
      "d": 140.3841708333348,
      "v": 71
    },
    {
      "midi": 67,
      "hit": false,
      "t": 70922.85233333359,
      "d": 140.3841708333348,
      "v": 73
    },
    {
      "midi": 57,
      "hit": false,
      "t": 71076.69800000021,
      "d": 674.9978624999931,
      "v": 69
    },
    {
      "midi": 57,
      "hit": false,
      "t": 71230.54366666693,
      "d": 134.61495833333174,
      "v": 69
    },
    {
      "midi": 67,
      "hit": false,
      "t": 71230.54366666693,
      "d": 134.61495833333174,
      "v": 74
    },
    {
      "midi": 69,
      "hit": false,
      "t": 71230.54366666693,
      "d": 136.5380291666661,
      "v": 73
    },
    {
      "midi": 67,
      "hit": false,
      "t": 71384.38933333359,
      "d": 134.61495833333174,
      "v": 70
    },
    {
      "midi": 57,
      "hit": false,
      "t": 71384.38933333359,
      "d": 136.5380291666661,
      "v": 69
    },
    {
      "midi": 69,
      "hit": false,
      "t": 71384.38933333359,
      "d": 140.3841708333348,
      "v": 71
    },
    {
      "midi": 57,
      "hit": false,
      "t": 71538.23500000026,
      "d": 138.46110000000044,
      "v": 69
    },
    {
      "midi": 67,
      "hit": false,
      "t": 71538.23500000026,
      "d": 140.3841708333348,
      "v": 73
    },
    {
      "midi": 69,
      "hit": false,
      "t": 71538.23500000026,
      "d": 140.3841708333348,
      "v": 72
    },
    {
      "midi": 57,
      "hit": false,
      "t": 71692.08066666694,
      "d": 136.5380291666661,
      "v": 73
    },
    {
      "midi": 67,
      "hit": false,
      "t": 71692.08066666694,
      "d": 140.3841708333348,
      "v": 67
    },
    {
      "midi": 69,
      "hit": false,
      "t": 71692.08066666694,
      "d": 142.30724166666914,
      "v": 71
    },
    {
      "midi": 57,
      "hit": false,
      "t": 71769.0035000002,
      "d": 215.3839333333308,
      "v": 73
    },
    {
      "midi": 57,
      "hit": false,
      "t": 71845.92633333361,
      "d": 134.61495833333174,
      "v": 72
    },
    {
      "midi": 67,
      "hit": false,
      "t": 71845.92633333361,
      "d": 138.46110000000044,
      "v": 74
    },
    {
      "midi": 69,
      "hit": false,
      "t": 71845.92633333361,
      "d": 142.30724166666914,
      "v": 71
    },
    {
      "midi": 58,
      "hit": false,
      "t": 71999.77200000019,
      "d": 911.5355750000017,
      "v": 76
    },
    {
      "midi": 58,
      "hit": false,
      "t": 72153.61766666695,
      "d": 134.61495833333174,
      "v": 74
    },
    {
      "midi": 67,
      "hit": false,
      "t": 72153.61766666695,
      "d": 134.61495833333174,
      "v": 70
    },
    {
      "midi": 70,
      "hit": false,
      "t": 72153.61766666695,
      "d": 134.61495833333174,
      "v": 74
    },
    {
      "midi": 67,
      "hit": false,
      "t": 72307.46333333361,
      "d": 136.5380291666661,
      "v": 69
    },
    {
      "midi": 70,
      "hit": false,
      "t": 72307.46333333361,
      "d": 136.5380291666661,
      "v": 73
    },
    {
      "midi": 58,
      "hit": false,
      "t": 72307.46333333361,
      "d": 142.30724166666914,
      "v": 69
    },
    {
      "midi": 58,
      "hit": false,
      "t": 72461.30900000028,
      "d": 134.61495833333174,
      "v": 70
    },
    {
      "midi": 67,
      "hit": false,
      "t": 72461.30900000028,
      "d": 142.30724166666914,
      "v": 71
    },
    {
      "midi": 70,
      "hit": false,
      "t": 72461.30900000028,
      "d": 142.30724166666914,
      "v": 74
    },
    {
      "midi": 67,
      "hit": false,
      "t": 72615.15466666696,
      "d": 136.5380291666661,
      "v": 67
    },
    {
      "midi": 70,
      "hit": false,
      "t": 72615.15466666696,
      "d": 136.5380291666661,
      "v": 72
    },
    {
      "midi": 58,
      "hit": false,
      "t": 72615.15466666696,
      "d": 142.30724166666914,
      "v": 75
    },
    {
      "midi": 58,
      "hit": false,
      "t": 72769.00033333364,
      "d": 136.5380291666661,
      "v": 68
    },
    {
      "midi": 67,
      "hit": false,
      "t": 72769.00033333364,
      "d": 136.5380291666661,
      "v": 74
    },
    {
      "midi": 70,
      "hit": false,
      "t": 72769.00033333364,
      "d": 136.5380291666661,
      "v": 73
    },
    {
      "midi": 59,
      "hit": false,
      "t": 72922.8460000002,
      "d": 674.9978624999931,
      "v": 76
    },
    {
      "midi": 43,
      "hit": false,
      "t": 72922.8460000002,
      "d": 909.6125041666528,
      "v": 75
    },
    {
      "midi": 62,
      "hit": false,
      "t": 73076.69166666697,
      "d": 142.30724166666914,
      "v": 73
    },
    {
      "midi": 65,
      "hit": false,
      "t": 73076.69166666697,
      "d": 142.30724166666914,
      "v": 67
    },
    {
      "midi": 68,
      "hit": false,
      "t": 73076.69166666697,
      "d": 142.30724166666914,
      "v": 75
    },
    {
      "midi": 71,
      "hit": false,
      "t": 73076.69166666697,
      "d": 142.30724166666914,
      "v": 67
    },
    {
      "midi": 65,
      "hit": false,
      "t": 73230.53733333365,
      "d": 134.61495833333174,
      "v": 73
    },
    {
      "midi": 68,
      "hit": false,
      "t": 73230.53733333365,
      "d": 134.61495833333174,
      "v": 67
    },
    {
      "midi": 71,
      "hit": false,
      "t": 73230.53733333365,
      "d": 134.61495833333174,
      "v": 68
    },
    {
      "midi": 62,
      "hit": false,
      "t": 73230.53733333365,
      "d": 140.3841708333348,
      "v": 73
    },
    {
      "midi": 68,
      "hit": false,
      "t": 73384.38300000032,
      "d": 134.61495833333174,
      "v": 72
    },
    {
      "midi": 62,
      "hit": false,
      "t": 73384.38300000032,
      "d": 136.5380291666661,
      "v": 68
    },
    {
      "midi": 71,
      "hit": false,
      "t": 73384.38300000032,
      "d": 138.46110000000044,
      "v": 67
    },
    {
      "midi": 65,
      "hit": false,
      "t": 73384.38300000032,
      "d": 142.30724166666914,
      "v": 67
    },
    {
      "midi": 62,
      "hit": false,
      "t": 73538.228666667,
      "d": 138.46110000000044,
      "v": 68
    },
    {
      "midi": 68,
      "hit": false,
      "t": 73538.228666667,
      "d": 138.46110000000044,
      "v": 67
    },
    {
      "midi": 71,
      "hit": false,
      "t": 73538.228666667,
      "d": 140.3841708333348,
      "v": 70
    },
    {
      "midi": 65,
      "hit": false,
      "t": 73538.228666667,
      "d": 142.30724166666914,
      "v": 67
    },
    {
      "midi": 59,
      "hit": false,
      "t": 73615.15150000018,
      "d": 215.3839333333308,
      "v": 72
    },
    {
      "midi": 65,
      "hit": false,
      "t": 73692.07433333367,
      "d": 140.3841708333348,
      "v": 72
    },
    {
      "midi": 62,
      "hit": false,
      "t": 73692.07433333367,
      "d": 142.30724166666914,
      "v": 75
    },
    {
      "midi": 68,
      "hit": false,
      "t": 73692.07433333367,
      "d": 142.30724166666914,
      "v": 68
    },
    {
      "midi": 71,
      "hit": false,
      "t": 73692.07433333367,
      "d": 142.30724166666914,
      "v": 73
    },
    {
      "midi": 36,
      "hit": false,
      "t": 73845.92000000019,
      "d": 140.3841708333348,
      "v": 71
    },
    {
      "midi": 63,
      "hit": false,
      "t": 73845.92000000035,
      "d": 134.61495833333174,
      "v": 77
    },
    {
      "midi": 60,
      "hit": false,
      "t": 73845.92000000035,
      "d": 136.5380291666661,
      "v": 72
    },
    {
      "midi": 72,
      "hit": false,
      "t": 73845.92000000035,
      "d": 136.5380291666661,
      "v": 78
    },
    {
      "midi": 67,
      "hit": false,
      "t": 73845.92000000035,
      "d": 142.30724166666914,
      "v": 78
    },
    {
      "midi": 39,
      "hit": false,
      "t": 73999.76566666686,
      "d": 140.3841708333348,
      "v": 74
    },
    {
      "midi": 63,
      "hit": false,
      "t": 73999.76566666702,
      "d": 134.61495833333174,
      "v": 67
    },
    {
      "midi": 60,
      "hit": false,
      "t": 73999.76566666702,
      "d": 140.3841708333348,
      "v": 74
    },
    {
      "midi": 72,
      "hit": false,
      "t": 73999.76566666702,
      "d": 140.3841708333348,
      "v": 71
    },
    {
      "midi": 67,
      "hit": false,
      "t": 73999.76566666702,
      "d": 142.30724166666914,
      "v": 70
    },
    {
      "midi": 41,
      "hit": false,
      "t": 74153.61133333354,
      "d": 138.46110000000044,
      "v": 73
    },
    {
      "midi": 60,
      "hit": false,
      "t": 74153.6113333337,
      "d": 134.61495833333174,
      "v": 69
    },
    {
      "midi": 67,
      "hit": false,
      "t": 74153.6113333337,
      "d": 140.3841708333348,
      "v": 75
    },
    {
      "midi": 72,
      "hit": false,
      "t": 74153.6113333337,
      "d": 140.3841708333348,
      "v": 67
    },
    {
      "midi": 63,
      "hit": false,
      "t": 74153.6113333337,
      "d": 142.30724166666914,
      "v": 69
    },
    {
      "midi": 43,
      "hit": false,
      "t": 74307.4570000002,
      "d": 140.3841708333348,
      "v": 72
    },
    {
      "midi": 67,
      "hit": false,
      "t": 74307.45700000037,
      "d": 134.61495833333174,
      "v": 70
    },
    {
      "midi": 60,
      "hit": false,
      "t": 74307.45700000037,
      "d": 136.5380291666661,
      "v": 75
    },
    {
      "midi": 72,
      "hit": false,
      "t": 74307.45700000037,
      "d": 140.3841708333348,
      "v": 74
    },
    {
      "midi": 63,
      "hit": false,
      "t": 74307.45700000037,
      "d": 142.30724166666914,
      "v": 72
    },
    {
      "midi": 45,
      "hit": false,
      "t": 74461.30266666687,
      "d": 136.5380291666661,
      "v": 71
    },
    {
      "midi": 63,
      "hit": false,
      "t": 74461.30266666705,
      "d": 134.61495833333174,
      "v": 74
    },
    {
      "midi": 60,
      "hit": false,
      "t": 74461.30266666705,
      "d": 140.3841708333348,
      "v": 73
    },
    {
      "midi": 67,
      "hit": false,
      "t": 74461.30266666705,
      "d": 142.30724166666914,
      "v": 71
    },
    {
      "midi": 72,
      "hit": false,
      "t": 74461.30266666705,
      "d": 142.30724166666914,
      "v": 70
    },
    {
      "midi": 47,
      "hit": false,
      "t": 74615.14833333353,
      "d": 134.61495833333174,
      "v": 69
    },
    {
      "midi": 60,
      "hit": false,
      "t": 74615.14833333372,
      "d": 134.61495833333174,
      "v": 75
    },
    {
      "midi": 63,
      "hit": false,
      "t": 74615.14833333372,
      "d": 136.5380291666661,
      "v": 74
    },
    {
      "midi": 72,
      "hit": false,
      "t": 74615.14833333372,
      "d": 138.46110000000044,
      "v": 70
    },
    {
      "midi": 67,
      "hit": false,
      "t": 74615.14833333372,
      "d": 140.3841708333348,
      "v": 67
    },
    {
      "midi": 48,
      "hit": false,
      "t": 74768.9940000002,
      "d": 903.8432916666643,
      "v": 77
    },
    {
      "midi": 60,
      "hit": false,
      "t": 74768.9940000004,
      "d": 134.61495833333174,
      "v": 73
    },
    {
      "midi": 67,
      "hit": false,
      "t": 74768.9940000004,
      "d": 138.46110000000044,
      "v": 76
    },
    {
      "midi": 72,
      "hit": false,
      "t": 74768.9940000004,
      "d": 138.46110000000044,
      "v": 72
    },
    {
      "midi": 63,
      "hit": false,
      "t": 74768.9940000004,
      "d": 142.30724166666914,
      "v": 71
    },
    {
      "midi": 60,
      "hit": false,
      "t": 74922.83966666707,
      "d": 136.5380291666661,
      "v": 69
    },
    {
      "midi": 67,
      "hit": false,
      "t": 74922.83966666707,
      "d": 136.5380291666661,
      "v": 74
    },
    {
      "midi": 72,
      "hit": false,
      "t": 74922.83966666707,
      "d": 140.3841708333348,
      "v": 74
    },
    {
      "midi": 63,
      "hit": false,
      "t": 74922.83966666707,
      "d": 142.30724166666914,
      "v": 73
    },
    {
      "midi": 63,
      "hit": false,
      "t": 75076.68533333375,
      "d": 134.61495833333174,
      "v": 70
    },
    {
      "midi": 60,
      "hit": false,
      "t": 75076.68533333375,
      "d": 136.5380291666661,
      "v": 72
    },
    {
      "midi": 72,
      "hit": false,
      "t": 75076.68533333375,
      "d": 138.46110000000044,
      "v": 71
    },
    {
      "midi": 67,
      "hit": false,
      "t": 75076.68533333375,
      "d": 140.3841708333348,
      "v": 68
    },
    {
      "midi": 67,
      "hit": false,
      "t": 75230.53100000042,
      "d": 136.5380291666661,
      "v": 68
    },
    {
      "midi": 72,
      "hit": false,
      "t": 75230.53100000042,
      "d": 138.46110000000044,
      "v": 70
    },
    {
      "midi": 60,
      "hit": false,
      "t": 75230.53100000042,
      "d": 142.30724166666914,
      "v": 75
    },
    {
      "midi": 63,
      "hit": false,
      "t": 75230.53100000042,
      "d": 142.30724166666914,
      "v": 68
    },
    {
      "midi": 67,
      "hit": false,
      "t": 75384.3766666671,
      "d": 136.5380291666661,
      "v": 71
    },
    {
      "midi": 72,
      "hit": false,
      "t": 75384.3766666671,
      "d": 140.3841708333348,
      "v": 67
    },
    {
      "midi": 60,
      "hit": false,
      "t": 75384.3766666671,
      "d": 142.30724166666914,
      "v": 70
    },
    {
      "midi": 63,
      "hit": false,
      "t": 75384.3766666671,
      "d": 142.30724166666914,
      "v": 74
    },
    {
      "midi": 67,
      "hit": false,
      "t": 75538.22233333378,
      "d": 134.61495833333174,
      "v": 70
    },
    {
      "midi": 63,
      "hit": false,
      "t": 75538.22233333378,
      "d": 136.5380291666661,
      "v": 75
    },
    {
      "midi": 72,
      "hit": false,
      "t": 75538.22233333378,
      "d": 136.5380291666661,
      "v": 72
    },
    {
      "midi": 60,
      "hit": false,
      "t": 75538.22233333378,
      "d": 142.30724166666914,
      "v": 72
    },
    {
      "midi": 38,
      "hit": false,
      "t": 75692.06800000019,
      "d": 134.61495833333174,
      "v": 71
    },
    {
      "midi": 63,
      "hit": false,
      "t": 75692.06800000045,
      "d": 134.61495833333174,
      "v": 78
    },
    {
      "midi": 67,
      "hit": false,
      "t": 75692.06800000045,
      "d": 136.5380291666661,
      "v": 76
    },
    {
      "midi": 72,
      "hit": false,
      "t": 75692.06800000045,
      "d": 136.5380291666661,
      "v": 77
    },
    {
      "midi": 60,
      "hit": false,
      "t": 75692.06800000045,
      "d": 138.46110000000044,
      "v": 73
    },
    {
      "midi": 39,
      "hit": false,
      "t": 75845.91366666685,
      "d": 138.46110000000044,
      "v": 71
    },
    {
      "midi": 63,
      "hit": false,
      "t": 75845.91366666711,
      "d": 134.61495833333174,
      "v": 67
    },
    {
      "midi": 67,
      "hit": false,
      "t": 75845.91366666711,
      "d": 136.5380291666661,
      "v": 67
    },
    {
      "midi": 60,
      "hit": false,
      "t": 75845.91366666711,
      "d": 142.30724166666914,
      "v": 72
    },
    {
      "midi": 72,
      "hit": false,
      "t": 75845.91366666711,
      "d": 142.30724166666914,
      "v": 68
    },
    {
      "midi": 41,
      "hit": false,
      "t": 75999.75933333351,
      "d": 134.61495833333174,
      "v": 70
    },
    {
      "midi": 63,
      "hit": false,
      "t": 75999.75933333379,
      "d": 136.5380291666661,
      "v": 68
    },
    {
      "midi": 72,
      "hit": false,
      "t": 75999.75933333379,
      "d": 138.46110000000044,
      "v": 70
    },
    {
      "midi": 60,
      "hit": false,
      "t": 75999.75933333379,
      "d": 142.30724166666914,
      "v": 69
    },
    {
      "midi": 67,
      "hit": false,
      "t": 75999.75933333379,
      "d": 142.30724166666914,
      "v": 70
    },
    {
      "midi": 43,
      "hit": false,
      "t": 76153.60500000017,
      "d": 140.3841708333348,
      "v": 67
    },
    {
      "midi": 60,
      "hit": false,
      "t": 76153.60500000046,
      "d": 138.46110000000044,
      "v": 71
    },
    {
      "midi": 72,
      "hit": false,
      "t": 76153.60500000046,
      "d": 138.46110000000044,
      "v": 75
    },
    {
      "midi": 63,
      "hit": false,
      "t": 76153.60500000046,
      "d": 140.3841708333348,
      "v": 68
    },
    {
      "midi": 67,
      "hit": false,
      "t": 76153.60500000046,
      "d": 140.3841708333348,
      "v": 71
    },
    {
      "midi": 45,
      "hit": false,
      "t": 76307.45066666685,
      "d": 142.30724166666914,
      "v": 67
    },
    {
      "midi": 60,
      "hit": false,
      "t": 76307.45066666714,
      "d": 134.61495833333174,
      "v": 70
    },
    {
      "midi": 72,
      "hit": false,
      "t": 76307.45066666714,
      "d": 134.61495833333174,
      "v": 72
    },
    {
      "midi": 63,
      "hit": false,
      "t": 76307.45066666714,
      "d": 136.5380291666661,
      "v": 67
    },
    {
      "midi": 67,
      "hit": false,
      "t": 76307.45066666714,
      "d": 142.30724166666914,
      "v": 75
    },
    {
      "midi": 47,
      "hit": false,
      "t": 76461.29633333352,
      "d": 136.5380291666661,
      "v": 71
    },
    {
      "midi": 72,
      "hit": false,
      "t": 76461.29633333381,
      "d": 136.5380291666661,
      "v": 74
    },
    {
      "midi": 60,
      "hit": false,
      "t": 76461.29633333381,
      "d": 138.46110000000044,
      "v": 70
    },
    {
      "midi": 67,
      "hit": false,
      "t": 76461.29633333381,
      "d": 140.3841708333348,
      "v": 74
    },
    {
      "midi": 63,
      "hit": false,
      "t": 76461.29633333381,
      "d": 142.30724166666914,
      "v": 75
    },
    {
      "midi": 48,
      "hit": false,
      "t": 76615.14200000018,
      "d": 449.9985750000051,
      "v": 74
    },
    {
      "midi": 63,
      "hit": false,
      "t": 76615.14200000049,
      "d": 138.46110000000044,
      "v": 69
    },
    {
      "midi": 60,
      "hit": false,
      "t": 76615.14200000049,
      "d": 140.3841708333348,
      "v": 75
    },
    {
      "midi": 72,
      "hit": false,
      "t": 76615.14200000049,
      "d": 140.3841708333348,
      "v": 72
    },
    {
      "midi": 67,
      "hit": false,
      "t": 76615.14200000049,
      "d": 142.30724166666914,
      "v": 72
    },
    {
      "midi": 60,
      "hit": false,
      "t": 76768.98766666716,
      "d": 134.61495833333174,
      "v": 75
    },
    {
      "midi": 67,
      "hit": false,
      "t": 76768.98766666716,
      "d": 134.61495833333174,
      "v": 70
    },
    {
      "midi": 72,
      "hit": false,
      "t": 76768.98766666716,
      "d": 138.46110000000044,
      "v": 72
    },
    {
      "midi": 63,
      "hit": false,
      "t": 76768.98766666716,
      "d": 140.3841708333348,
      "v": 72
    },
    {
      "midi": 60,
      "hit": false,
      "t": 76922.83333333384,
      "d": 134.61495833333174,
      "v": 70
    },
    {
      "midi": 67,
      "hit": false,
      "t": 76922.83333333384,
      "d": 136.5380291666661,
      "v": 75
    },
    {
      "midi": 63,
      "hit": false,
      "t": 76922.83333333384,
      "d": 140.3841708333348,
      "v": 74
    },
    {
      "midi": 72,
      "hit": false,
      "t": 76922.83333333384,
      "d": 142.30724166666914,
      "v": 75
    },
    {
      "midi": 63,
      "hit": false,
      "t": 77076.6790000002,
      "d": 448.0755041666562,
      "v": 72
    },
    {
      "midi": 67,
      "hit": false,
      "t": 77095.90970833352,
      "d": 430.7678666666616,
      "v": 68
    },
    {
      "midi": 72,
      "hit": false,
      "t": 77115.14041666685,
      "d": 403.8448749999952,
      "v": 81
    },
    {
      "midi": 60,
      "hit": false,
      "t": 77230.52466666717,
      "d": 134.61495833333174,
      "v": 73
    },
    {
      "midi": 63,
      "hit": false,
      "t": 77230.52466666717,
      "d": 138.46110000000044,
      "v": 67
    },
    {
      "midi": 67,
      "hit": false,
      "t": 77230.52466666717,
      "d": 140.3841708333348,
      "v": 71
    },
    {
      "midi": 63,
      "hit": false,
      "t": 77384.37033333385,
      "d": 134.61495833333174,
      "v": 72
    },
    {
      "midi": 60,
      "hit": false,
      "t": 77384.37033333385,
      "d": 140.3841708333348,
      "v": 68
    },
    {
      "midi": 67,
      "hit": false,
      "t": 77384.37033333385,
      "d": 140.3841708333348,
      "v": 71
    },
    {
      "midi": 65,
      "hit": false,
      "t": 77538.21600000019,
      "d": 213.46086249998189,
      "v": 74
    },
    {
      "midi": 68,
      "hit": false,
      "t": 77557.44670833352,
      "d": 196.1532249999873,
      "v": 78
    },
    {
      "midi": 71,
      "hit": false,
      "t": 77576.67741666685,
      "d": 178.8455874999927,
      "v": 72
    },
    {
      "midi": 74,
      "hit": false,
      "t": 77595.90812500018,
      "d": 1313.4573791666626,
      "v": 85
    },
    {
      "midi": 65,
      "hit": false,
      "t": 77692.06166666718,
      "d": 136.5380291666661,
      "v": 67
    },
    {
      "midi": 71,
      "hit": false,
      "t": 77692.06166666718,
      "d": 138.46110000000044,
      "v": 72
    },
    {
      "midi": 68,
      "hit": false,
      "t": 77692.06166666718,
      "d": 140.3841708333348,
      "v": 68
    },
    {
      "midi": 62,
      "hit": false,
      "t": 77692.06166666718,
      "d": 142.30724166666914,
      "v": 67
    },
    {
      "midi": 68,
      "hit": false,
      "t": 77845.90733333386,
      "d": 136.5380291666661,
      "v": 71
    },
    {
      "midi": 65,
      "hit": false,
      "t": 77845.90733333386,
      "d": 138.46110000000044,
      "v": 69
    },
    {
      "midi": 62,
      "hit": false,
      "t": 77845.90733333386,
      "d": 140.3841708333348,
      "v": 74
    },
    {
      "midi": 71,
      "hit": false,
      "t": 77845.90733333386,
      "d": 142.30724166666914,
      "v": 69
    },
    {
      "midi": 71,
      "hit": false,
      "t": 77999.75300000054,
      "d": 136.5380291666661,
      "v": 67
    },
    {
      "midi": 62,
      "hit": false,
      "t": 77999.75300000054,
      "d": 138.46110000000044,
      "v": 70
    },
    {
      "midi": 68,
      "hit": false,
      "t": 77999.75300000054,
      "d": 140.3841708333348,
      "v": 72
    },
    {
      "midi": 65,
      "hit": false,
      "t": 77999.75300000054,
      "d": 142.30724166666914,
      "v": 69
    },
    {
      "midi": 62,
      "hit": false,
      "t": 78153.59866666721,
      "d": 134.61495833333174,
      "v": 68
    },
    {
      "midi": 65,
      "hit": false,
      "t": 78153.59866666721,
      "d": 138.46110000000044,
      "v": 74
    },
    {
      "midi": 71,
      "hit": false,
      "t": 78153.59866666721,
      "d": 138.46110000000044,
      "v": 67
    },
    {
      "midi": 68,
      "hit": false,
      "t": 78153.59866666721,
      "d": 140.3841708333348,
      "v": 70
    },
    {
      "midi": 68,
      "hit": false,
      "t": 78307.44433333389,
      "d": 134.61495833333174,
      "v": 69
    },
    {
      "midi": 65,
      "hit": false,
      "t": 78307.44433333389,
      "d": 136.5380291666661,
      "v": 72
    },
    {
      "midi": 71,
      "hit": false,
      "t": 78307.44433333389,
      "d": 136.5380291666661,
      "v": 74
    },
    {
      "midi": 62,
      "hit": false,
      "t": 78307.44433333389,
      "d": 138.46110000000044,
      "v": 73
    },
    {
      "midi": 68,
      "hit": false,
      "t": 78461.29000000055,
      "d": 136.5380291666661,
      "v": 77
    },
    {
      "midi": 71,
      "hit": false,
      "t": 78461.29000000055,
      "d": 138.46110000000044,
      "v": 69
    },
    {
      "midi": 62,
      "hit": false,
      "t": 78461.29000000055,
      "d": 142.30724166666914,
      "v": 72
    },
    {
      "midi": 65,
      "hit": false,
      "t": 78461.29000000055,
      "d": 142.30724166666914,
      "v": 73
    },
    {
      "midi": 68,
      "hit": false,
      "t": 78615.13566666722,
      "d": 134.61495833333174,
      "v": 74
    },
    {
      "midi": 65,
      "hit": false,
      "t": 78615.13566666722,
      "d": 138.46110000000044,
      "v": 73
    },
    {
      "midi": 62,
      "hit": false,
      "t": 78615.13566666722,
      "d": 142.30724166666914,
      "v": 73
    },
    {
      "midi": 71,
      "hit": false,
      "t": 78615.13566666722,
      "d": 142.30724166666914,
      "v": 67
    },
    {
      "midi": 68,
      "hit": false,
      "t": 78768.9813333339,
      "d": 136.5380291666661,
      "v": 69
    },
    {
      "midi": 65,
      "hit": false,
      "t": 78768.9813333339,
      "d": 138.46110000000044,
      "v": 74
    },
    {
      "midi": 62,
      "hit": false,
      "t": 78768.9813333339,
      "d": 140.3841708333348,
      "v": 74
    },
    {
      "midi": 71,
      "hit": false,
      "t": 78768.9813333339,
      "d": 140.3841708333348,
      "v": 72
    },
    {
      "midi": 59,
      "hit": false,
      "t": 78922.82700000018,
      "d": 211.5377916666621,
      "v": 73
    },
    {
      "midi": 62,
      "hit": false,
      "t": 78942.05770833351,
      "d": 194.2301541666675,
      "v": 72
    },
    {
      "midi": 67,
      "hit": false,
      "t": 78961.28841666684,
      "d": 407.6910166666785,
      "v": 83
    },
    {
      "midi": 67,
      "hit": false,
      "t": 79076.67266666723,
      "d": 134.61495833333174,
      "v": 69
    },
    {
      "midi": 62,
      "hit": false,
      "t": 79076.67266666723,
      "d": 138.46110000000044,
      "v": 73
    },
    {
      "midi": 65,
      "hit": false,
      "t": 79076.67266666723,
      "d": 138.46110000000044,
      "v": 72
    },
    {
      "midi": 62,
      "hit": false,
      "t": 79230.5183333339,
      "d": 136.5380291666661,
      "v": 73
    },
    {
      "midi": 65,
      "hit": false,
      "t": 79230.5183333339,
      "d": 136.5380291666661,
      "v": 71
    },
    {
      "midi": 67,
      "hit": false,
      "t": 79230.5183333339,
      "d": 142.30724166666914,
      "v": 69
    },
    {
      "midi": 36,
      "hit": false,
      "t": 79384.36400000018,
      "d": 142.30724166666914,
      "v": 78
    },
    {
      "midi": 67,
      "hit": false,
      "t": 79384.36400000057,
      "d": 140.3841708333348,
      "v": 71
    },
    {
      "midi": 63,
      "hit": false,
      "t": 79384.36400000057,
      "d": 142.30724166666914,
      "v": 79
    },
    {
      "midi": 75,
      "hit": false,
      "t": 79384.36400000057,
      "d": 1384.6110000000772,
      "v": 86
    },
    {
      "midi": 39,
      "hit": false,
      "t": 79538.20966666685,
      "d": 134.61495833333174,
      "v": 75
    },
    {
      "midi": 63,
      "hit": false,
      "t": 79538.20966666724,
      "d": 134.61495833333174,
      "v": 67
    },
    {
      "midi": 67,
      "hit": false,
      "t": 79538.20966666724,
      "d": 138.46110000000044,
      "v": 68
    },
    {
      "midi": 41,
      "hit": false,
      "t": 79692.05533333351,
      "d": 138.46110000000044,
      "v": 75
    },
    {
      "midi": 63,
      "hit": false,
      "t": 79692.05533333392,
      "d": 136.5380291666661,
      "v": 74
    },
    {
      "midi": 67,
      "hit": false,
      "t": 79692.05533333392,
      "d": 138.46110000000044,
      "v": 73
    },
    {
      "midi": 43,
      "hit": false,
      "t": 79845.90100000019,
      "d": 134.61495833333174,
      "v": 74
    },
    {
      "midi": 67,
      "hit": false,
      "t": 79845.9010000006,
      "d": 134.61495833333174,
      "v": 68
    },
    {
      "midi": 63,
      "hit": false,
      "t": 79845.9010000006,
      "d": 138.46110000000044,
      "v": 75
    },
    {
      "midi": 45,
      "hit": false,
      "t": 79999.74666666685,
      "d": 138.46110000000044,
      "v": 68
    },
    {
      "midi": 67,
      "hit": false,
      "t": 79999.74666666727,
      "d": 136.5380291666661,
      "v": 69
    },
    {
      "midi": 63,
      "hit": false,
      "t": 79999.74666666727,
      "d": 142.30724166666914,
      "v": 75
    },
    {
      "midi": 47,
      "hit": false,
      "t": 80153.59233333352,
      "d": 136.5380291666661,
      "v": 72
    },
    {
      "midi": 67,
      "hit": false,
      "t": 80153.59233333395,
      "d": 140.3841708333348,
      "v": 70
    },
    {
      "midi": 63,
      "hit": false,
      "t": 80153.59233333395,
      "d": 142.30724166666914,
      "v": 74
    },
    {
      "midi": 48,
      "hit": false,
      "t": 80307.43800000018,
      "d": 448.0755041666562,
      "v": 74
    },
    {
      "midi": 63,
      "hit": false,
      "t": 80307.43800000062,
      "d": 136.5380291666661,
      "v": 72
    },
    {
      "midi": 67,
      "hit": false,
      "t": 80307.43800000062,
      "d": 138.46110000000044,
      "v": 71
    },
    {
      "midi": 63,
      "hit": false,
      "t": 80461.2836666673,
      "d": 136.5380291666661,
      "v": 70
    },
    {
      "midi": 67,
      "hit": false,
      "t": 80461.2836666673,
      "d": 138.46110000000044,
      "v": 70
    },
    {
      "midi": 63,
      "hit": false,
      "t": 80615.12933333397,
      "d": 136.5380291666661,
      "v": 74
    },
    {
      "midi": 67,
      "hit": false,
      "t": 80615.12933333397,
      "d": 142.30724166666914,
      "v": 69
    },
    {
      "midi": 63,
      "hit": false,
      "t": 80768.97500000018,
      "d": 219.2300749999995,
      "v": 75
    },
    {
      "midi": 67,
      "hit": false,
      "t": 80788.20570833351,
      "d": 198.0762958333362,
      "v": 75
    },
    {
      "midi": 72,
      "hit": false,
      "t": 80807.43641666684,
      "d": 423.0755833333387,
      "v": 79
    },
    {
      "midi": 67,
      "hit": false,
      "t": 80922.8206666673,
      "d": 136.5380291666661,
      "v": 75
    },
    {
      "midi": 63,
      "hit": false,
      "t": 80922.8206666673,
      "d": 140.3841708333348,
      "v": 67
    },
    {
      "midi": 67,
      "hit": false,
      "t": 81076.66633333398,
      "d": 136.5380291666661,
      "v": 70
    },
    {
      "midi": 63,
      "hit": false,
      "t": 81076.66633333398,
      "d": 142.30724166666914,
      "v": 72
    },
    {
      "midi": 65,
      "hit": false,
      "t": 81230.51200000018,
      "d": 211.53779166664754,
      "v": 78
    },
    {
      "midi": 68,
      "hit": false,
      "t": 81249.7427083335,
      "d": 192.3070833333186,
      "v": 77
    },
    {
      "midi": 71,
      "hit": false,
      "t": 81268.97341666683,
      "d": 180.76865833332704,
      "v": 74
    },
    {
      "midi": 74,
      "hit": false,
      "t": 81288.20412500016,
      "d": 865.3818749999919,
      "v": 89
    },
    {
      "midi": 65,
      "hit": false,
      "t": 81384.35766666732,
      "d": 134.61495833333174,
      "v": 75
    },
    {
      "midi": 62,
      "hit": false,
      "t": 81384.35766666732,
      "d": 138.46110000000044,
      "v": 70
    },
    {
      "midi": 68,
      "hit": false,
      "t": 81384.35766666732,
      "d": 138.46110000000044,
      "v": 67
    },
    {
      "midi": 71,
      "hit": false,
      "t": 81384.35766666732,
      "d": 142.30724166666914,
      "v": 69
    },
    {
      "midi": 68,
      "hit": false,
      "t": 81538.203333334,
      "d": 134.61495833333174,
      "v": 70
    },
    {
      "midi": 71,
      "hit": false,
      "t": 81538.203333334,
      "d": 134.61495833333174,
      "v": 75
    },
    {
      "midi": 65,
      "hit": false,
      "t": 81538.203333334,
      "d": 140.3841708333348,
      "v": 73
    },
    {
      "midi": 62,
      "hit": false,
      "t": 81538.203333334,
      "d": 142.30724166666914,
      "v": 70
    },
    {
      "midi": 62,
      "hit": false,
      "t": 81692.04900000067,
      "d": 134.61495833333174,
      "v": 73
    },
    {
      "midi": 68,
      "hit": false,
      "t": 81692.04900000067,
      "d": 134.61495833333174,
      "v": 74
    },
    {
      "midi": 65,
      "hit": false,
      "t": 81692.04900000067,
      "d": 136.5380291666661,
      "v": 70
    },
    {
      "midi": 71,
      "hit": false,
      "t": 81692.04900000067,
      "d": 136.5380291666661,
      "v": 73
    },
    {
      "midi": 62,
      "hit": false,
      "t": 81845.89466666733,
      "d": 134.61495833333174,
      "v": 72
    },
    {
      "midi": 65,
      "hit": false,
      "t": 81845.89466666733,
      "d": 134.61495833333174,
      "v": 69
    },
    {
      "midi": 68,
      "hit": false,
      "t": 81845.89466666733,
      "d": 138.46110000000044,
      "v": 71
    },
    {
      "midi": 71,
      "hit": false,
      "t": 81845.89466666733,
      "d": 142.30724166666914,
      "v": 75
    },
    {
      "midi": 62,
      "hit": false,
      "t": 81999.740333334,
      "d": 136.5380291666661,
      "v": 75
    },
    {
      "midi": 71,
      "hit": false,
      "t": 81999.740333334,
      "d": 136.5380291666661,
      "v": 69
    },
    {
      "midi": 65,
      "hit": false,
      "t": 81999.740333334,
      "d": 138.46110000000044,
      "v": 75
    },
    {
      "midi": 68,
      "hit": false,
      "t": 81999.740333334,
      "d": 138.46110000000044,
      "v": 73
    },
    {
      "midi": 65,
      "hit": false,
      "t": 82153.58600000016,
      "d": 217.30700416666514,
      "v": 72
    },
    {
      "midi": 68,
      "hit": false,
      "t": 82153.58600000016,
      "d": 217.30700416666514,
      "v": 76
    },
    {
      "midi": 71,
      "hit": false,
      "t": 82153.58600000016,
      "d": 219.2300749999995,
      "v": 70
    },
    {
      "midi": 74,
      "hit": false,
      "t": 82153.58600000016,
      "d": 461.5369999999966,
      "v": 85
    },
    {
      "midi": 65,
      "hit": false,
      "t": 82307.43166666734,
      "d": 136.5380291666661,
      "v": 70
    },
    {
      "midi": 71,
      "hit": false,
      "t": 82307.43166666734,
      "d": 138.46110000000044,
      "v": 72
    },
    {
      "midi": 62,
      "hit": false,
      "t": 82307.43166666734,
      "d": 140.3841708333348,
      "v": 74
    },
    {
      "midi": 68,
      "hit": false,
      "t": 82307.43166666734,
      "d": 142.30724166666914,
      "v": 68
    },
    {
      "midi": 62,
      "hit": false,
      "t": 82461.27733333402,
      "d": 138.46110000000044,
      "v": 72
    },
    {
      "midi": 68,
      "hit": false,
      "t": 82461.27733333402,
      "d": 138.46110000000044,
      "v": 75
    },
    {
      "midi": 71,
      "hit": false,
      "t": 82461.27733333402,
      "d": 138.46110000000044,
      "v": 67
    },
    {
      "midi": 65,
      "hit": false,
      "t": 82461.27733333402,
      "d": 142.30724166666914,
      "v": 69
    },
    {
      "midi": 59,
      "hit": false,
      "t": 82615.12300000015,
      "d": 219.2300749999995,
      "v": 73
    },
    {
      "midi": 62,
      "hit": false,
      "t": 82634.35370833348,
      "d": 196.15322500000184,
      "v": 73
    },
    {
      "midi": 67,
      "hit": false,
      "t": 82653.58441666681,
      "d": 423.0755833333387,
      "v": 83
    },
    {
      "midi": 65,
      "hit": false,
      "t": 82768.96866666735,
      "d": 140.3841708333348,
      "v": 70
    },
    {
      "midi": 62,
      "hit": false,
      "t": 82768.96866666735,
      "d": 142.30724166666914,
      "v": 67
    },
    {
      "midi": 67,
      "hit": false,
      "t": 82768.96866666735,
      "d": 142.30724166666914,
      "v": 71
    },
    {
      "midi": 67,
      "hit": false,
      "t": 82922.81433333403,
      "d": 136.5380291666661,
      "v": 75
    },
    {
      "midi": 62,
      "hit": false,
      "t": 82922.81433333403,
      "d": 138.46110000000044,
      "v": 71
    },
    {
      "midi": 65,
      "hit": false,
      "t": 82922.81433333403,
      "d": 142.30724166666914,
      "v": 75
    },
    {
      "midi": 36,
      "hit": false,
      "t": 83076.66000000015,
      "d": 140.3841708333348,
      "v": 97
    },
    {
      "midi": 63,
      "hit": false,
      "t": 83076.6600000007,
      "d": 136.5380291666661,
      "v": 94
    },
    {
      "midi": 67,
      "hit": false,
      "t": 83076.6600000007,
      "d": 142.30724166666914,
      "v": 97
    },
    {
      "midi": 75,
      "hit": false,
      "t": 83076.6600000007,
      "d": 911.5355750000163,
      "v": 101
    },
    {
      "midi": 39,
      "hit": false,
      "t": 83230.50566666682,
      "d": 140.3841708333348,
      "v": 89
    },
    {
      "midi": 60,
      "hit": false,
      "t": 83230.50566666738,
      "d": 134.61495833333174,
      "v": 91
    },
    {
      "midi": 63,
      "hit": false,
      "t": 83230.50566666738,
      "d": 140.3841708333348,
      "v": 89
    },
    {
      "midi": 67,
      "hit": false,
      "t": 83230.50566666738,
      "d": 140.3841708333348,
      "v": 94
    },
    {
      "midi": 41,
      "hit": false,
      "t": 83384.3513333335,
      "d": 136.5380291666661,
      "v": 88
    },
    {
      "midi": 60,
      "hit": false,
      "t": 83384.35133333405,
      "d": 134.61495833333174,
      "v": 93
    },
    {
      "midi": 63,
      "hit": false,
      "t": 83384.35133333405,
      "d": 134.61495833333174,
      "v": 91
    },
    {
      "midi": 67,
      "hit": false,
      "t": 83384.35133333405,
      "d": 138.46110000000044,
      "v": 93
    },
    {
      "midi": 43,
      "hit": false,
      "t": 83538.19700000016,
      "d": 140.3841708333348,
      "v": 91
    },
    {
      "midi": 60,
      "hit": false,
      "t": 83538.19700000071,
      "d": 134.61495833333174,
      "v": 90
    },
    {
      "midi": 67,
      "hit": false,
      "t": 83538.19700000071,
      "d": 138.46110000000044,
      "v": 87
    },
    {
      "midi": 63,
      "hit": false,
      "t": 83538.19700000071,
      "d": 142.30724166666914,
      "v": 91
    },
    {
      "midi": 45,
      "hit": false,
      "t": 83692.04266666684,
      "d": 136.5380291666661,
      "v": 89
    },
    {
      "midi": 60,
      "hit": false,
      "t": 83692.04266666739,
      "d": 134.61495833333174,
      "v": 89
    },
    {
      "midi": 67,
      "hit": false,
      "t": 83692.04266666739,
      "d": 134.61495833333174,
      "v": 90
    },
    {
      "midi": 63,
      "hit": false,
      "t": 83692.04266666739,
      "d": 136.5380291666661,
      "v": 95
    },
    {
      "midi": 47,
      "hit": false,
      "t": 83845.8883333335,
      "d": 136.5380291666661,
      "v": 90
    },
    {
      "midi": 60,
      "hit": false,
      "t": 83845.88833333405,
      "d": 140.3841708333348,
      "v": 93
    },
    {
      "midi": 67,
      "hit": false,
      "t": 83845.88833333405,
      "d": 140.3841708333348,
      "v": 88
    },
    {
      "midi": 63,
      "hit": false,
      "t": 83845.88833333405,
      "d": 142.30724166666914,
      "v": 91
    },
    {
      "midi": 48,
      "hit": false,
      "t": 83999.73400000016,
      "d": 903.8432916666643,
      "v": 92
    },
    {
      "midi": 63,
      "hit": false,
      "t": 83999.73400000072,
      "d": 136.5380291666661,
      "v": 92
    },
    {
      "midi": 60,
      "hit": false,
      "t": 83999.73400000072,
      "d": 140.3841708333348,
      "v": 94
    },
    {
      "midi": 67,
      "hit": false,
      "t": 83999.73400000072,
      "d": 140.3841708333348,
      "v": 89
    },
    {
      "midi": 60,
      "hit": false,
      "t": 84153.5796666674,
      "d": 136.5380291666661,
      "v": 88
    },
    {
      "midi": 63,
      "hit": false,
      "t": 84153.5796666674,
      "d": 142.30724166666914,
      "v": 95
    },
    {
      "midi": 67,
      "hit": false,
      "t": 84153.5796666674,
      "d": 142.30724166666914,
      "v": 94
    },
    {
      "midi": 60,
      "hit": false,
      "t": 84307.42533333407,
      "d": 134.61495833333174,
      "v": 95
    },
    {
      "midi": 67,
      "hit": false,
      "t": 84307.42533333407,
      "d": 134.61495833333174,
      "v": 90
    },
    {
      "midi": 63,
      "hit": false,
      "t": 84307.42533333407,
      "d": 138.46110000000044,
      "v": 87
    },
    {
      "midi": 66,
      "hit": false,
      "t": 84461.27100000074,
      "d": 134.61495833333174,
      "v": 88
    },
    {
      "midi": 63,
      "hit": false,
      "t": 84461.27100000074,
      "d": 136.5380291666661,
      "v": 92
    },
    {
      "midi": 60,
      "hit": false,
      "t": 84461.27100000074,
      "d": 140.3841708333348,
      "v": 90
    },
    {
      "midi": 63,
      "hit": false,
      "t": 84615.11666666741,
      "d": 134.61495833333174,
      "v": 92
    },
    {
      "midi": 60,
      "hit": false,
      "t": 84615.11666666741,
      "d": 136.5380291666661,
      "v": 93
    },
    {
      "midi": 66,
      "hit": false,
      "t": 84615.11666666741,
      "d": 138.46110000000044,
      "v": 87
    },
    {
      "midi": 60,
      "hit": false,
      "t": 84768.96233333407,
      "d": 134.61495833333174,
      "v": 90
    },
    {
      "midi": 63,
      "hit": false,
      "t": 84768.96233333407,
      "d": 134.61495833333174,
      "v": 90
    },
    {
      "midi": 66,
      "hit": false,
      "t": 84768.96233333407,
      "d": 140.3841708333348,
      "v": 94
    },
    {
      "midi": 29,
      "hit": false,
      "t": 84922.80800000015,
      "d": 142.30724166666914,
      "v": 88
    },
    {
      "midi": 63,
      "hit": false,
      "t": 84922.80800000075,
      "d": 134.61495833333174,
      "v": 84
    },
    {
      "midi": 60,
      "hit": false,
      "t": 84922.80800000075,
      "d": 136.5380291666661,
      "v": 89
    },
    {
      "midi": 65,
      "hit": false,
      "t": 84922.80800000075,
      "d": 138.46110000000044,
      "v": 82
    },
    {
      "midi": 57,
      "hit": false,
      "t": 84922.80800000075,
      "d": 142.30724166666914,
      "v": 86
    },
    {
      "midi": 33,
      "hit": false,
      "t": 85076.65366666683,
      "d": 140.3841708333348,
      "v": 78
    },
    {
      "midi": 57,
      "hit": false,
      "t": 85076.65366666742,
      "d": 134.61495833333174,
      "v": 81
    },
    {
      "midi": 60,
      "hit": false,
      "t": 85076.65366666742,
      "d": 134.61495833333174,
      "v": 79
    },
    {
      "midi": 65,
      "hit": false,
      "t": 85076.65366666742,
      "d": 134.61495833333174,
      "v": 80
    },
    {
      "midi": 63,
      "hit": false,
      "t": 85076.65366666742,
      "d": 142.30724166666914,
      "v": 81
    },
    {
      "midi": 34,
      "hit": false,
      "t": 85230.4993333335,
      "d": 138.46110000000044,
      "v": 84
    },
    {
      "midi": 60,
      "hit": false,
      "t": 85230.4993333341,
      "d": 134.61495833333174,
      "v": 80
    },
    {
      "midi": 65,
      "hit": false,
      "t": 85230.4993333341,
      "d": 136.5380291666661,
      "v": 79
    },
    {
      "midi": 63,
      "hit": false,
      "t": 85230.4993333341,
      "d": 138.46110000000044,
      "v": 80
    },
    {
      "midi": 57,
      "hit": false,
      "t": 85230.4993333341,
      "d": 142.30724166666914,
      "v": 84
    },
    {
      "midi": 36,
      "hit": false,
      "t": 85384.34500000016,
      "d": 136.5380291666661,
      "v": 77
    },
    {
      "midi": 63,
      "hit": false,
      "t": 85384.34500000077,
      "d": 136.5380291666661,
      "v": 82
    },
    {
      "midi": 57,
      "hit": false,
      "t": 85384.34500000077,
      "d": 138.46110000000044,
      "v": 77
    },
    {
      "midi": 65,
      "hit": false,
      "t": 85384.34500000077,
      "d": 140.3841708333348,
      "v": 80
    },
    {
      "midi": 60,
      "hit": false,
      "t": 85384.34500000077,
      "d": 142.30724166666914,
      "v": 77
    },
    {
      "midi": 38,
      "hit": false,
      "t": 85538.19066666682,
      "d": 134.61495833333174,
      "v": 84
    },
    {
      "midi": 63,
      "hit": false,
      "t": 85538.19066666745,
      "d": 134.61495833333174,
      "v": 80
    },
    {
      "midi": 65,
      "hit": false,
      "t": 85538.19066666745,
      "d": 134.61495833333174,
      "v": 81
    },
    {
      "midi": 57,
      "hit": false,
      "t": 85538.19066666745,
      "d": 142.30724166666914,
      "v": 82
    },
    {
      "midi": 60,
      "hit": false,
      "t": 85538.19066666745,
      "d": 142.30724166666914,
      "v": 80
    },
    {
      "midi": 40,
      "hit": false,
      "t": 85692.03633333348,
      "d": 136.5380291666661,
      "v": 79
    },
    {
      "midi": 57,
      "hit": false,
      "t": 85692.03633333412,
      "d": 134.61495833333174,
      "v": 84
    },
    {
      "midi": 63,
      "hit": false,
      "t": 85692.03633333412,
      "d": 138.46110000000044,
      "v": 85
    },
    {
      "midi": 60,
      "hit": false,
      "t": 85692.03633333412,
      "d": 142.30724166666914,
      "v": 83
    },
    {
      "midi": 65,
      "hit": false,
      "t": 85692.03633333412,
      "d": 142.30724166666914,
      "v": 77
    },
    {
      "midi": 41,
      "hit": false,
      "t": 85845.88200000014,
      "d": 448.0755041666707,
      "v": 80
    },
    {
      "midi": 63,
      "hit": false,
      "t": 85845.8820000008,
      "d": 136.5380291666661,
      "v": 84
    },
    {
      "midi": 65,
      "hit": false,
      "t": 85845.8820000008,
      "d": 138.46110000000044,
      "v": 79
    },
    {
      "midi": 57,
      "hit": false,
      "t": 85845.8820000008,
      "d": 142.30724166666914,
      "v": 86
    },
    {
      "midi": 60,
      "hit": false,
      "t": 85845.8820000008,
      "d": 142.30724166666914,
      "v": 85
    },
    {
      "midi": 57,
      "hit": false,
      "t": 85999.72766666747,
      "d": 136.5380291666661,
      "v": 84
    },
    {
      "midi": 65,
      "hit": false,
      "t": 85999.72766666747,
      "d": 138.46110000000044,
      "v": 85
    },
    {
      "midi": 60,
      "hit": false,
      "t": 85999.72766666747,
      "d": 140.3841708333348,
      "v": 85
    },
    {
      "midi": 63,
      "hit": false,
      "t": 85999.72766666747,
      "d": 142.30724166666914,
      "v": 81
    },
    {
      "midi": 60,
      "hit": false,
      "t": 86153.57333333415,
      "d": 136.5380291666661,
      "v": 79
    },
    {
      "midi": 65,
      "hit": false,
      "t": 86153.57333333415,
      "d": 138.46110000000044,
      "v": 83
    },
    {
      "midi": 57,
      "hit": false,
      "t": 86153.57333333415,
      "d": 140.3841708333348,
      "v": 85
    },
    {
      "midi": 63,
      "hit": false,
      "t": 86153.57333333415,
      "d": 142.30724166666914,
      "v": 81
    },
    {
      "midi": 63,
      "hit": false,
      "t": 86307.41900000015,
      "d": 217.3070041666506,
      "v": 82
    },
    {
      "midi": 65,
      "hit": false,
      "t": 86326.64970833348,
      "d": 194.23015416665294,
      "v": 81
    },
    {
      "midi": 69,
      "hit": false,
      "t": 86345.88041666681,
      "d": 174.999445833324,
      "v": 80
    },
    {
      "midi": 72,
      "hit": false,
      "t": 86365.11112500014,
      "d": 388.460308333335,
      "v": 88
    },
    {
      "midi": 63,
      "hit": false,
      "t": 86461.26466666748,
      "d": 134.61495833333174,
      "v": 80
    },
    {
      "midi": 65,
      "hit": false,
      "t": 86461.26466666748,
      "d": 134.61495833333174,
      "v": 80
    },
    {
      "midi": 57,
      "hit": false,
      "t": 86461.26466666748,
      "d": 138.46110000000044,
      "v": 82
    },
    {
      "midi": 60,
      "hit": false,
      "t": 86461.26466666748,
      "d": 140.3841708333348,
      "v": 82
    },
    {
      "midi": 60,
      "hit": false,
      "t": 86615.11033333416,
      "d": 136.5380291666661,
      "v": 81
    },
    {
      "midi": 65,
      "hit": false,
      "t": 86615.11033333416,
      "d": 136.5380291666661,
      "v": 82
    },
    {
      "midi": 57,
      "hit": false,
      "t": 86615.11033333416,
      "d": 138.46110000000044,
      "v": 83
    },
    {
      "midi": 63,
      "hit": false,
      "t": 86615.11033333416,
      "d": 140.3841708333348,
      "v": 80
    },
    {
      "midi": 64,
      "hit": false,
      "t": 86768.95600000014,
      "d": 217.3070041666506,
      "v": 83
    },
    {
      "midi": 67,
      "hit": false,
      "t": 86788.18670833347,
      "d": 196.1532249999873,
      "v": 83
    },
    {
      "midi": 70,
      "hit": false,
      "t": 86807.4174166668,
      "d": 174.999445833324,
      "v": 82
    },
    {
      "midi": 73,
      "hit": false,
      "t": 86826.64812500012,
      "d": 1313.4573791666626,
      "v": 107
    },
    {
      "midi": 58,
      "hit": false,
      "t": 86922.8016666675,
      "d": 136.5380291666661,
      "v": 83
    },
    {
      "midi": 55,
      "hit": false,
      "t": 86922.8016666675,
      "d": 140.3841708333348,
      "v": 82
    },
    {
      "midi": 61,
      "hit": false,
      "t": 86922.8016666675,
      "d": 142.30724166666914,
      "v": 77
    },
    {
      "midi": 64,
      "hit": false,
      "t": 86922.8016666675,
      "d": 142.30724166666914,
      "v": 81
    },
    {
      "midi": 58,
      "hit": false,
      "t": 87076.64733333417,
      "d": 136.5380291666661,
      "v": 81
    },
    {
      "midi": 61,
      "hit": false,
      "t": 87076.64733333417,
      "d": 138.46110000000044,
      "v": 80
    },
    {
      "midi": 64,
      "hit": false,
      "t": 87076.64733333417,
      "d": 138.46110000000044,
      "v": 79
    },
    {
      "midi": 55,
      "hit": false,
      "t": 87076.64733333417,
      "d": 142.30724166666914,
      "v": 82
    },
    {
      "midi": 55,
      "hit": false,
      "t": 87230.49300000085,
      "d": 136.5380291666661,
      "v": 84
    },
    {
      "midi": 61,
      "hit": false,
      "t": 87230.49300000085,
      "d": 136.5380291666661,
      "v": 84
    },
    {
      "midi": 58,
      "hit": false,
      "t": 87230.49300000085,
      "d": 138.46110000000044,
      "v": 81
    },
    {
      "midi": 64,
      "hit": false,
      "t": 87230.49300000085,
      "d": 138.46110000000044,
      "v": 80
    },
    {
      "midi": 61,
      "hit": false,
      "t": 87384.3386666675,
      "d": 134.61495833333174,
      "v": 82
    },
    {
      "midi": 55,
      "hit": false,
      "t": 87384.3386666675,
      "d": 136.5380291666661,
      "v": 77
    },
    {
      "midi": 58,
      "hit": false,
      "t": 87384.3386666675,
      "d": 136.5380291666661,
      "v": 79
    },
    {
      "midi": 64,
      "hit": false,
      "t": 87384.3386666675,
      "d": 136.5380291666661,
      "v": 83
    },
    {
      "midi": 58,
      "hit": false,
      "t": 87538.18433333417,
      "d": 140.3841708333348,
      "v": 81
    },
    {
      "midi": 64,
      "hit": false,
      "t": 87538.18433333417,
      "d": 140.3841708333348,
      "v": 84
    },
    {
      "midi": 55,
      "hit": false,
      "t": 87538.18433333417,
      "d": 142.30724166666914,
      "v": 85
    },
    {
      "midi": 61,
      "hit": false,
      "t": 87538.18433333417,
      "d": 142.30724166666914,
      "v": 78
    },
    {
      "midi": 58,
      "hit": false,
      "t": 87692.03000000084,
      "d": 134.61495833333174,
      "v": 81
    },
    {
      "midi": 55,
      "hit": false,
      "t": 87692.03000000084,
      "d": 136.5380291666661,
      "v": 86
    },
    {
      "midi": 61,
      "hit": false,
      "t": 87692.03000000084,
      "d": 140.3841708333348,
      "v": 81
    },
    {
      "midi": 64,
      "hit": false,
      "t": 87692.03000000084,
      "d": 140.3841708333348,
      "v": 81
    },
    {
      "midi": 58,
      "hit": false,
      "t": 87845.87566666752,
      "d": 134.61495833333174,
      "v": 79
    },
    {
      "midi": 61,
      "hit": false,
      "t": 87845.87566666752,
      "d": 136.5380291666661,
      "v": 80
    },
    {
      "midi": 64,
      "hit": false,
      "t": 87845.87566666752,
      "d": 140.3841708333348,
      "v": 79
    },
    {
      "midi": 55,
      "hit": false,
      "t": 87845.87566666752,
      "d": 142.30724166666914,
      "v": 79
    },
    {
      "midi": 61,
      "hit": false,
      "t": 87999.7213333342,
      "d": 134.61495833333174,
      "v": 84
    },
    {
      "midi": 64,
      "hit": false,
      "t": 87999.7213333342,
      "d": 138.46110000000044,
      "v": 79
    },
    {
      "midi": 58,
      "hit": false,
      "t": 87999.7213333342,
      "d": 140.3841708333348,
      "v": 84
    },
    {
      "midi": 55,
      "hit": false,
      "t": 87999.7213333342,
      "d": 142.30724166666914,
      "v": 85
    },
    {
      "midi": 61,
      "hit": false,
      "t": 88153.56700000013,
      "d": 219.23007499998494,
      "v": 79
    },
    {
      "midi": 64,
      "hit": false,
      "t": 88172.79770833346,
      "d": 196.1532249999873,
      "v": 82
    },
    {
      "midi": 67,
      "hit": false,
      "t": 88192.02841666678,
      "d": 174.999445833324,
      "v": 77
    },
    {
      "midi": 70,
      "hit": false,
      "t": 88211.25912500011,
      "d": 392.3064500000037,
      "v": 95
    },
    {
      "midi": 58,
      "hit": false,
      "t": 88307.41266666753,
      "d": 138.46110000000044,
      "v": 85
    },
    {
      "midi": 61,
      "hit": false,
      "t": 88307.41266666753,
      "d": 138.46110000000044,
      "v": 84
    },
    {
      "midi": 55,
      "hit": false,
      "t": 88307.41266666753,
      "d": 140.3841708333348,
      "v": 78
    },
    {
      "midi": 64,
      "hit": false,
      "t": 88307.41266666753,
      "d": 140.3841708333348,
      "v": 81
    },
    {
      "midi": 55,
      "hit": false,
      "t": 88461.2583333342,
      "d": 140.3841708333348,
      "v": 78
    },
    {
      "midi": 58,
      "hit": false,
      "t": 88461.2583333342,
      "d": 140.3841708333348,
      "v": 79
    },
    {
      "midi": 64,
      "hit": false,
      "t": 88461.2583333342,
      "d": 140.3841708333348,
      "v": 83
    },
    {
      "midi": 61,
      "hit": false,
      "t": 88461.2583333342,
      "d": 142.30724166666914,
      "v": 78
    },
    {
      "midi": 41,
      "hit": false,
      "t": 88615.10400000012,
      "d": 140.3841708333348,
      "v": 97
    },
    {
      "midi": 29,
      "hit": false,
      "t": 88615.10400000012,
      "d": 446.1524333333364,
      "v": 91
    },
    {
      "midi": 60,
      "hit": false,
      "t": 88615.10400000088,
      "d": 138.46110000000044,
      "v": 92
    },
    {
      "midi": 57,
      "hit": false,
      "t": 88615.10400000088,
      "d": 140.3841708333348,
      "v": 95
    },
    {
      "midi": 69,
      "hit": false,
      "t": 88615.10400000088,
      "d": 442.3062916666677,
      "v": 109
    },
    {
      "midi": 45,
      "hit": false,
      "t": 88768.9496666668,
      "d": 136.5380291666661,
      "v": 88
    },
    {
      "midi": 60,
      "hit": false,
      "t": 88768.94966666755,
      "d": 134.61495833333174,
      "v": 94
    },
    {
      "midi": 57,
      "hit": false,
      "t": 88768.94966666755,
      "d": 138.46110000000044,
      "v": 89
    },
    {
      "midi": 46,
      "hit": false,
      "t": 88922.79533333346,
      "d": 142.30724166666914,
      "v": 91
    },
    {
      "midi": 57,
      "hit": false,
      "t": 88922.79533333422,
      "d": 134.61495833333174,
      "v": 87
    },
    {
      "midi": 60,
      "hit": false,
      "t": 88922.79533333422,
      "d": 138.46110000000044,
      "v": 92
    },
    {
      "midi": 48,
      "hit": false,
      "t": 89076.64100000013,
      "d": 142.30724166666914,
      "v": 87
    },
    {
      "midi": 57,
      "hit": false,
      "t": 89076.64100000088,
      "d": 134.61495833333174,
      "v": 87
    },
    {
      "midi": 60,
      "hit": false,
      "t": 89076.64100000088,
      "d": 136.5380291666661,
      "v": 95
    },
    {
      "midi": 65,
      "hit": false,
      "t": 89076.64100000088,
      "d": 444.229362500002,
      "v": 103
    },
    {
      "midi": 50,
      "hit": false,
      "t": 89230.48666666681,
      "d": 142.30724166666914,
      "v": 92
    },
    {
      "midi": 57,
      "hit": false,
      "t": 89230.48666666754,
      "d": 138.46110000000044,
      "v": 87
    },
    {
      "midi": 60,
      "hit": false,
      "t": 89230.48666666754,
      "d": 142.30724166666914,
      "v": 95
    },
    {
      "midi": 52,
      "hit": false,
      "t": 89384.33233333348,
      "d": 138.46110000000044,
      "v": 87
    },
    {
      "midi": 60,
      "hit": false,
      "t": 89384.33233333421,
      "d": 134.61495833333174,
      "v": 90
    },
    {
      "midi": 57,
      "hit": false,
      "t": 89384.33233333421,
      "d": 140.3841708333348,
      "v": 95
    },
    {
      "midi": 53,
      "hit": false,
      "t": 89538.17800000015,
      "d": 442.3062916666677,
      "v": 96
    },
    {
      "midi": 57,
      "hit": false,
      "t": 89538.17800000089,
      "d": 136.5380291666661,
      "v": 92
    },
    {
      "midi": 60,
      "hit": false,
      "t": 89538.17800000089,
      "d": 142.30724166666914,
      "v": 93
    },
    {
      "midi": 57,
      "hit": false,
      "t": 89692.02366666756,
      "d": 136.5380291666661,
      "v": 88
    },
    {
      "midi": 60,
      "hit": false,
      "t": 89692.02366666756,
      "d": 142.30724166666914,
      "v": 91
    },
    {
      "midi": 57,
      "hit": false,
      "t": 89845.86933333424,
      "d": 136.5380291666661,
      "v": 87
    },
    {
      "midi": 60,
      "hit": false,
      "t": 89845.86933333424,
      "d": 136.5380291666661,
      "v": 89
    },
    {
      "midi": 65,
      "hit": false,
      "t": 89999.71500000014,
      "d": 448.0755041666562,
      "v": 89
    },
    {
      "midi": 69,
      "hit": false,
      "t": 90018.94570833347,
      "d": 430.7678666666616,
      "v": 94
    },
    {
      "midi": 72,
      "hit": false,
      "t": 90038.1764166668,
      "d": 409.6140874999983,
      "v": 98
    },
    {
      "midi": 57,
      "hit": false,
      "t": 90153.56066666757,
      "d": 134.61495833333174,
      "v": 91
    },
    {
      "midi": 60,
      "hit": false,
      "t": 90153.56066666757,
      "d": 142.30724166666914,
      "v": 94
    },
    {
      "midi": 57,
      "hit": false,
      "t": 90307.40633333425,
      "d": 134.61495833333174,
      "v": 91
    },
    {
      "midi": 60,
      "hit": false,
      "t": 90307.40633333425,
      "d": 134.61495833333174,
      "v": 94
    },
    {
      "midi": 64,
      "hit": false,
      "t": 90461.25200000014,
      "d": 446.1524333333218,
      "v": 91
    },
    {
      "midi": 67,
      "hit": false,
      "t": 90480.48270833347,
      "d": 423.0755833333242,
      "v": 97
    },
    {
      "midi": 70,
      "hit": false,
      "t": 90499.7134166668,
      "d": 407.6910166666639,
      "v": 93
    },
    {
      "midi": 73,
      "hit": false,
      "t": 90518.94412500013,
      "d": 1309.6112375000084,
      "v": 109
    },
    {
      "midi": 55,
      "hit": false,
      "t": 90615.09766666759,
      "d": 136.5380291666661,
      "v": 93
    },
    {
      "midi": 61,
      "hit": false,
      "t": 90615.09766666759,
      "d": 136.5380291666661,
      "v": 88
    },
    {
      "midi": 58,
      "hit": false,
      "t": 90615.09766666759,
      "d": 140.3841708333348,
      "v": 91
    },
    {
      "midi": 64,
      "hit": false,
      "t": 90615.09766666759,
      "d": 140.3841708333348,
      "v": 94
    },
    {
      "midi": 58,
      "hit": false,
      "t": 90768.94333333426,
      "d": 134.61495833333174,
      "v": 95
    },
    {
      "midi": 61,
      "hit": false,
      "t": 90768.94333333426,
      "d": 134.61495833333174,
      "v": 88
    },
    {
      "midi": 55,
      "hit": false,
      "t": 90768.94333333426,
      "d": 136.5380291666661,
      "v": 95
    },
    {
      "midi": 64,
      "hit": false,
      "t": 90768.94333333426,
      "d": 136.5380291666661,
      "v": 89
    },
    {
      "midi": 58,
      "hit": false,
      "t": 90922.78900000092,
      "d": 134.61495833333174,
      "v": 88
    },
    {
      "midi": 64,
      "hit": false,
      "t": 90922.78900000092,
      "d": 134.61495833333174,
      "v": 90
    },
    {
      "midi": 55,
      "hit": false,
      "t": 90922.78900000092,
      "d": 138.46110000000044,
      "v": 95
    },
    {
      "midi": 61,
      "hit": false,
      "t": 90922.78900000092,
      "d": 140.3841708333348,
      "v": 89
    },
    {
      "midi": 61,
      "hit": false,
      "t": 91076.6346666676,
      "d": 134.61495833333174,
      "v": 93
    },
    {
      "midi": 64,
      "hit": false,
      "t": 91076.6346666676,
      "d": 136.5380291666661,
      "v": 90
    },
    {
      "midi": 58,
      "hit": false,
      "t": 91076.6346666676,
      "d": 138.46110000000044,
      "v": 95
    },
    {
      "midi": 55,
      "hit": false,
      "t": 91076.6346666676,
      "d": 140.3841708333348,
      "v": 90
    },
    {
      "midi": 58,
      "hit": false,
      "t": 91230.48033333427,
      "d": 136.5380291666661,
      "v": 92
    },
    {
      "midi": 61,
      "hit": false,
      "t": 91230.48033333427,
      "d": 138.46110000000044,
      "v": 95
    },
    {
      "midi": 55,
      "hit": false,
      "t": 91230.48033333427,
      "d": 140.3841708333348,
      "v": 90
    },
    {
      "midi": 64,
      "hit": false,
      "t": 91230.48033333427,
      "d": 142.30724166666914,
      "v": 91
    },
    {
      "midi": 58,
      "hit": false,
      "t": 91384.32600000095,
      "d": 134.61495833333174,
      "v": 97
    },
    {
      "midi": 64,
      "hit": false,
      "t": 91384.32600000095,
      "d": 140.3841708333348,
      "v": 94
    },
    {
      "midi": 55,
      "hit": false,
      "t": 91384.32600000095,
      "d": 142.30724166666914,
      "v": 95
    },
    {
      "midi": 61,
      "hit": false,
      "t": 91384.32600000095,
      "d": 142.30724166666914,
      "v": 91
    },
    {
      "midi": 58,
      "hit": false,
      "t": 91538.17166666762,
      "d": 138.46110000000044,
      "v": 94
    },
    {
      "midi": 64,
      "hit": false,
      "t": 91538.17166666762,
      "d": 138.46110000000044,
      "v": 95
    },
    {
      "midi": 55,
      "hit": false,
      "t": 91538.17166666762,
      "d": 140.3841708333348,
      "v": 94
    },
    {
      "midi": 61,
      "hit": false,
      "t": 91538.17166666762,
      "d": 140.3841708333348,
      "v": 95
    },
    {
      "midi": 61,
      "hit": false,
      "t": 91692.0173333343,
      "d": 134.61495833333174,
      "v": 90
    },
    {
      "midi": 64,
      "hit": false,
      "t": 91692.0173333343,
      "d": 134.61495833333174,
      "v": 92
    },
    {
      "midi": 58,
      "hit": false,
      "t": 91692.0173333343,
      "d": 136.5380291666661,
      "v": 91
    },
    {
      "midi": 55,
      "hit": false,
      "t": 91692.0173333343,
      "d": 142.30724166666914,
      "v": 89
    },
    {
      "midi": 61,
      "hit": false,
      "t": 91845.86300000013,
      "d": 219.23007499998494,
      "v": 88
    },
    {
      "midi": 64,
      "hit": false,
      "t": 91865.09370833346,
      "d": 194.23015416665294,
      "v": 88
    },
    {
      "midi": 67,
      "hit": false,
      "t": 91884.32441666679,
      "d": 180.76865833332704,
      "v": 93
    },
    {
      "midi": 72,
      "hit": false,
      "t": 91903.55512500012,
      "d": 161.5379499999981,
      "v": 103
    },
    {
      "midi": 58,
      "hit": false,
      "t": 91999.70866666763,
      "d": 136.5380291666661,
      "v": 88
    },
    {
      "midi": 64,
      "hit": false,
      "t": 91999.70866666763,
      "d": 136.5380291666661,
      "v": 88
    },
    {
      "midi": 61,
      "hit": false,
      "t": 91999.70866666763,
      "d": 138.46110000000044,
      "v": 90
    },
    {
      "midi": 55,
      "hit": false,
      "t": 91999.70866666763,
      "d": 140.3841708333348,
      "v": 92
    },
    {
      "midi": 70,
      "hit": false,
      "t": 92076.63150000012,
      "d": 215.3839333333308,
      "v": 89
    },
    {
      "midi": 55,
      "hit": false,
      "t": 92153.55433333431,
      "d": 136.5380291666661,
      "v": 91
    },
    {
      "midi": 61,
      "hit": false,
      "t": 92153.55433333431,
      "d": 136.5380291666661,
      "v": 92
    },
    {
      "midi": 58,
      "hit": false,
      "t": 92153.55433333431,
      "d": 140.3841708333348,
      "v": 90
    },
    {
      "midi": 64,
      "hit": false,
      "t": 92153.55433333431,
      "d": 142.30724166666914,
      "v": 95
    },
    {
      "midi": 29,
      "hit": false,
      "t": 92307.40000000011,
      "d": 136.5380291666661,
      "v": 99
    },
    {
      "midi": 57,
      "hit": false,
      "t": 92307.40000000098,
      "d": 134.61495833333174,
      "v": 94
    },
    {
      "midi": 65,
      "hit": false,
      "t": 92307.40000000098,
      "d": 136.5380291666661,
      "v": 98
    },
    {
      "midi": 72,
      "hit": false,
      "t": 92307.40000000098,
      "d": 140.3841708333348,
      "v": 107
    },
    {
      "midi": 33,
      "hit": false,
      "t": 92461.24566666677,
      "d": 136.5380291666661,
      "v": 93
    },
    {
      "midi": 34,
      "hit": false,
      "t": 92615.09133333343,
      "d": 140.3841708333348,
      "v": 87
    },
    {
      "midi": 53,
      "hit": false,
      "t": 92615.09133333432,
      "d": 136.5380291666661,
      "v": 89
    },
    {
      "midi": 65,
      "hit": false,
      "t": 92615.09133333432,
      "d": 136.5380291666661,
      "v": 92
    },
    {
      "midi": 36,
      "hit": false,
      "t": 92768.9370000001,
      "d": 142.30724166666914,
      "v": 90
    },
    {
      "midi": 53,
      "hit": false,
      "t": 92768.93700000098,
      "d": 140.3841708333348,
      "v": 92
    },
    {
      "midi": 65,
      "hit": false,
      "t": 92768.93700000098,
      "d": 142.30724166666914,
      "v": 94
    },
    {
      "midi": 38,
      "hit": false,
      "t": 92922.78266666678,
      "d": 142.3072416666546,
      "v": 89
    },
    {
      "midi": 53,
      "hit": false,
      "t": 92922.78266666766,
      "d": 136.5380291666661,
      "v": 90
    },
    {
      "midi": 65,
      "hit": false,
      "t": 92922.78266666766,
      "d": 142.30724166666914,
      "v": 91
    },
    {
      "midi": 40,
      "hit": false,
      "t": 93076.62833333344,
      "d": 136.5380291666661,
      "v": 88
    },
    {
      "midi": 53,
      "hit": false,
      "t": 93076.62833333433,
      "d": 136.5380291666661,
      "v": 91
    },
    {
      "midi": 65,
      "hit": false,
      "t": 93076.62833333433,
      "d": 142.30724166666914,
      "v": 93
    },
    {
      "midi": 41,
      "hit": false,
      "t": 93230.4740000001,
      "d": 1832.6865041666606,
      "v": 89
    },
    {
      "midi": 65,
      "hit": false,
      "t": 93230.474000001,
      "d": 136.5380291666661,
      "v": 95
    },
    {
      "midi": 53,
      "hit": false,
      "t": 93230.474000001,
      "d": 140.3841708333348,
      "v": 89
    },
    {
      "midi": 53,
      "hit": false,
      "t": 93384.31966666768,
      "d": 136.5380291666661,
      "v": 93
    },
    {
      "midi": 65,
      "hit": false,
      "t": 93384.31966666768,
      "d": 136.5380291666661,
      "v": 88
    },
    {
      "midi": 65,
      "hit": false,
      "t": 93538.16533333434,
      "d": 136.5380291666661,
      "v": 94
    },
    {
      "midi": 53,
      "hit": false,
      "t": 93538.16533333434,
      "d": 138.46110000000044,
      "v": 94
    },
    {
      "midi": 53,
      "hit": false,
      "t": 93692.011000001,
      "d": 134.61495833333174,
      "v": 90
    },
    {
      "midi": 65,
      "hit": false,
      "t": 93692.011000001,
      "d": 136.5380291666661,
      "v": 92
    },
    {
      "midi": 65,
      "hit": false,
      "t": 93845.85666666766,
      "d": 134.61495833333174,
      "v": 87
    },
    {
      "midi": 53,
      "hit": false,
      "t": 93845.85666666766,
      "d": 140.3841708333348,
      "v": 95
    },
    {
      "midi": 53,
      "hit": false,
      "t": 93999.70233333434,
      "d": 140.3841708333348,
      "v": 87
    },
    {
      "midi": 65,
      "hit": false,
      "t": 93999.70233333434,
      "d": 142.30724166666914,
      "v": 94
    },
    {
      "midi": 53,
      "hit": false,
      "t": 94153.54800000101,
      "d": 134.61495833333174,
      "v": 91
    },
    {
      "midi": 65,
      "hit": false,
      "t": 94153.54800000101,
      "d": 142.30724166666914,
      "v": 95
    },
    {
      "midi": 65,
      "hit": false,
      "t": 94307.39366666769,
      "d": 138.46110000000044,
      "v": 90
    },
    {
      "midi": 53,
      "hit": false,
      "t": 94307.39366666769,
      "d": 140.3841708333348,
      "v": 87
    },
    {
      "midi": 53,
      "hit": false,
      "t": 94461.23933333436,
      "d": 136.5380291666661,
      "v": 87
    },
    {
      "midi": 65,
      "hit": false,
      "t": 94461.23933333436,
      "d": 142.30724166666914,
      "v": 88
    },
    {
      "midi": 53,
      "hit": false,
      "t": 94615.08500000104,
      "d": 140.3841708333348,
      "v": 93
    },
    {
      "midi": 65,
      "hit": false,
      "t": 94615.08500000104,
      "d": 140.3841708333348,
      "v": 88
    },
    {
      "midi": 53,
      "hit": false,
      "t": 94768.93066666771,
      "d": 142.30724166666914,
      "v": 87
    },
    {
      "midi": 65,
      "hit": false,
      "t": 94768.93066666771,
      "d": 142.30724166666914,
      "v": 93
    },
    {
      "midi": 65,
      "hit": false,
      "t": 94922.77633333439,
      "d": 140.3841708333348,
      "v": 88
    },
    {
      "midi": 53,
      "hit": false,
      "t": 94922.77633333439,
      "d": 142.30724166666914,
      "v": 87
    },
    {
      "midi": 65,
      "hit": false,
      "t": 95076.62200000107,
      "d": 136.5380291666661,
      "v": 75
    },
    {
      "midi": 53,
      "hit": false,
      "t": 95076.62200000107,
      "d": 140.3841708333348,
      "v": 74
    },
    {
      "midi": 53,
      "hit": false,
      "t": 95230.46766666774,
      "d": 134.61495833333174,
      "v": 72
    },
    {
      "midi": 65,
      "hit": false,
      "t": 95230.46766666774,
      "d": 138.46110000000044,
      "v": 75
    },
    {
      "midi": 53,
      "hit": false,
      "t": 95384.3133333344,
      "d": 136.5380291666661,
      "v": 72
    },
    {
      "midi": 65,
      "hit": false,
      "t": 95384.3133333344,
      "d": 140.3841708333348,
      "v": 71
    },
    {
      "midi": 48,
      "hit": false,
      "t": 95538.1590000001,
      "d": 446.1524333333364,
      "v": 79
    },
    {
      "midi": 53,
      "hit": false,
      "t": 95538.15900000108,
      "d": 134.61495833333174,
      "v": 71
    },
    {
      "midi": 65,
      "hit": false,
      "t": 95538.15900000108,
      "d": 142.30724166666914,
      "v": 72
    },
    {
      "midi": 65,
      "hit": false,
      "t": 95692.00466666775,
      "d": 134.61495833333174,
      "v": 75
    },
    {
      "midi": 53,
      "hit": false,
      "t": 95692.00466666775,
      "d": 138.46110000000044,
      "v": 68
    },
    {
      "midi": 53,
      "hit": false,
      "t": 95845.85033333441,
      "d": 136.5380291666661,
      "v": 72
    },
    {
      "midi": 65,
      "hit": false,
      "t": 95845.85033333441,
      "d": 140.3841708333348,
      "v": 73
    },
    {
      "midi": 51,
      "hit": false,
      "t": 95999.6960000001,
      "d": 1373.0725749999983,
      "v": 83
    },
    {
      "midi": 65,
      "hit": false,
      "t": 95999.69600000109,
      "d": 134.61495833333174,
      "v": 76
    },
    {
      "midi": 53,
      "hit": false,
      "t": 95999.69600000109,
      "d": 136.5380291666661,
      "v": 77
    },
    {
      "midi": 53,
      "hit": false,
      "t": 96153.54166666775,
      "d": 134.61495833333174,
      "v": 75
    },
    {
      "midi": 65,
      "hit": false,
      "t": 96153.54166666775,
      "d": 142.30724166666914,
      "v": 67
    },
    {
      "midi": 53,
      "hit": false,
      "t": 96307.38733333442,
      "d": 134.61495833333174,
      "v": 74
    },
    {
      "midi": 65,
      "hit": false,
      "t": 96307.38733333442,
      "d": 140.3841708333348,
      "v": 75
    },
    {
      "midi": 65,
      "hit": false,
      "t": 96461.2330000011,
      "d": 134.61495833333174,
      "v": 69
    },
    {
      "midi": 53,
      "hit": false,
      "t": 96461.2330000011,
      "d": 138.46110000000044,
      "v": 68
    },
    {
      "midi": 65,
      "hit": false,
      "t": 96615.07866666776,
      "d": 134.61495833333174,
      "v": 72
    },
    {
      "midi": 53,
      "hit": false,
      "t": 96615.07866666776,
      "d": 142.30724166666914,
      "v": 74
    },
    {
      "midi": 53,
      "hit": false,
      "t": 96768.92433333443,
      "d": 138.46110000000044,
      "v": 73
    },
    {
      "midi": 65,
      "hit": false,
      "t": 96768.92433333443,
      "d": 142.30724166666914,
      "v": 75
    },
    {
      "midi": 53,
      "hit": false,
      "t": 96922.77000000111,
      "d": 138.46110000000044,
      "v": 71
    },
    {
      "midi": 65,
      "hit": false,
      "t": 96922.77000000111,
      "d": 142.30724166666914,
      "v": 69
    },
    {
      "midi": 53,
      "hit": false,
      "t": 97076.61566666779,
      "d": 138.46110000000044,
      "v": 72
    },
    {
      "midi": 65,
      "hit": false,
      "t": 97076.61566666779,
      "d": 138.46110000000044,
      "v": 73
    },
    {
      "midi": 53,
      "hit": false,
      "t": 97230.46133333445,
      "d": 138.46110000000044,
      "v": 67
    },
    {
      "midi": 65,
      "hit": false,
      "t": 97230.46133333445,
      "d": 140.3841708333348,
      "v": 70
    },
    {
      "midi": 51,
      "hit": false,
      "t": 97384.3070000001,
      "d": 449.9985750000051,
      "v": 81
    },
    {
      "midi": 53,
      "hit": false,
      "t": 97384.30700000112,
      "d": 142.30724166666914,
      "v": 75
    },
    {
      "midi": 65,
      "hit": false,
      "t": 97384.30700000112,
      "d": 142.30724166666914,
      "v": 75
    },
    {
      "midi": 53,
      "hit": false,
      "t": 97538.1526666678,
      "d": 134.61495833333174,
      "v": 70
    },
    {
      "midi": 65,
      "hit": false,
      "t": 97538.1526666678,
      "d": 136.5380291666661,
      "v": 68
    },
    {
      "midi": 53,
      "hit": false,
      "t": 97691.99833333446,
      "d": 134.61495833333174,
      "v": 67
    },
    {
      "midi": 65,
      "hit": false,
      "t": 97691.99833333446,
      "d": 140.3841708333348,
      "v": 73
    },
    {
      "midi": 53,
      "hit": false,
      "t": 97845.84400000011,
      "d": 1371.149504166664,
      "v": 81
    },
    {
      "midi": 53,
      "hit": false,
      "t": 97999.6896666678,
      "d": 138.46110000000044,
      "v": 69
    },
    {
      "midi": 65,
      "hit": false,
      "t": 97999.6896666678,
      "d": 140.3841708333348,
      "v": 69
    },
    {
      "midi": 53,
      "hit": false,
      "t": 98153.53533333447,
      "d": 140.3841708333348,
      "v": 69
    },
    {
      "midi": 65,
      "hit": false,
      "t": 98153.53533333447,
      "d": 142.30724166666914,
      "v": 68
    },
    {
      "midi": 65,
      "hit": false,
      "t": 98307.38100000114,
      "d": 136.5380291666661,
      "v": 68
    },
    {
      "midi": 53,
      "hit": false,
      "t": 98307.38100000114,
      "d": 138.46110000000044,
      "v": 69
    },
    {
      "midi": 53,
      "hit": false,
      "t": 98461.2266666678,
      "d": 136.5380291666661,
      "v": 72
    },
    {
      "midi": 65,
      "hit": false,
      "t": 98461.2266666678,
      "d": 140.3841708333348,
      "v": 74
    },
    {
      "midi": 53,
      "hit": false,
      "t": 98615.07233333448,
      "d": 134.61495833333174,
      "v": 74
    },
    {
      "midi": 65,
      "hit": false,
      "t": 98615.07233333448,
      "d": 142.30724166666914,
      "v": 73
    },
    {
      "midi": 53,
      "hit": false,
      "t": 98768.91800000115,
      "d": 134.61495833333174,
      "v": 76
    },
    {
      "midi": 65,
      "hit": false,
      "t": 98768.91800000115,
      "d": 136.5380291666661,
      "v": 76
    },
    {
      "midi": 53,
      "hit": false,
      "t": 98922.76366666782,
      "d": 136.5380291666661,
      "v": 67
    },
    {
      "midi": 65,
      "hit": false,
      "t": 98922.76366666782,
      "d": 136.5380291666661,
      "v": 73
    },
    {
      "midi": 53,
      "hit": false,
      "t": 99076.60933333448,
      "d": 142.30724166666914,
      "v": 75
    },
    {
      "midi": 65,
      "hit": false,
      "t": 99076.60933333448,
      "d": 142.30724166666914,
      "v": 72
    },
    {
      "midi": 48,
      "hit": false,
      "t": 99230.45500000012,
      "d": 442.3062916666677,
      "v": 82
    },
    {
      "midi": 53,
      "hit": false,
      "t": 99230.45500000115,
      "d": 134.61495833333174,
      "v": 73
    },
    {
      "midi": 65,
      "hit": false,
      "t": 99230.45500000115,
      "d": 136.5380291666661,
      "v": 73
    },
    {
      "midi": 53,
      "hit": false,
      "t": 99384.30066666781,
      "d": 138.46110000000044,
      "v": 71
    },
    {
      "midi": 65,
      "hit": false,
      "t": 99384.30066666781,
      "d": 138.46110000000044,
      "v": 70
    },
    {
      "midi": 65,
      "hit": false,
      "t": 99538.14633333447,
      "d": 138.46110000000044,
      "v": 68
    },
    {
      "midi": 53,
      "hit": false,
      "t": 99538.14633333447,
      "d": 142.30724166666914,
      "v": 73
    },
    {
      "midi": 51,
      "hit": false,
      "t": 99691.99200000011,
      "d": 674.9978624999931,
      "v": 86
    },
    {
      "midi": 46,
      "hit": false,
      "t": 99691.99200000011,
      "d": 1828.840362499992,
      "v": 71
    },
    {
      "midi": 53,
      "hit": false,
      "t": 99691.99200000115,
      "d": 136.5380291666661,
      "v": 78
    },
    {
      "midi": 65,
      "hit": false,
      "t": 99691.99200000115,
      "d": 136.5380291666661,
      "v": 74
    },
    {
      "midi": 62,
      "hit": false,
      "t": 99691.99200000115,
      "d": 138.46110000000044,
      "v": 76
    },
    {
      "midi": 53,
      "hit": false,
      "t": 99845.83766666781,
      "d": 136.5380291666661,
      "v": 74
    },
    {
      "midi": 65,
      "hit": false,
      "t": 99845.83766666781,
      "d": 138.46110000000044,
      "v": 69
    },
    {
      "midi": 62,
      "hit": false,
      "t": 99845.83766666781,
      "d": 142.30724166666914,
      "v": 73
    },
    {
      "midi": 62,
      "hit": false,
      "t": 99999.68333333448,
      "d": 136.5380291666661,
      "v": 72
    },
    {
      "midi": 53,
      "hit": false,
      "t": 99999.68333333448,
      "d": 138.46110000000044,
      "v": 72
    },
    {
      "midi": 65,
      "hit": false,
      "t": 99999.68333333448,
      "d": 142.30724166666914,
      "v": 72
    },
    {
      "midi": 62,
      "hit": false,
      "t": 100153.52900000116,
      "d": 138.46110000000044,
      "v": 73
    },
    {
      "midi": 53,
      "hit": false,
      "t": 100153.52900000116,
      "d": 140.3841708333348,
      "v": 72
    },
    {
      "midi": 65,
      "hit": false,
      "t": 100153.52900000116,
      "d": 140.3841708333348,
      "v": 68
    },
    {
      "midi": 53,
      "hit": false,
      "t": 100307.37466666783,
      "d": 134.61495833333174,
      "v": 67
    },
    {
      "midi": 62,
      "hit": false,
      "t": 100307.37466666783,
      "d": 134.61495833333174,
      "v": 68
    },
    {
      "midi": 65,
      "hit": false,
      "t": 100307.37466666783,
      "d": 136.5380291666661,
      "v": 73
    },
    {
      "midi": 50,
      "hit": false,
      "t": 100384.2975000001,
      "d": 217.30700416666514,
      "v": 84
    },
    {
      "midi": 53,
      "hit": false,
      "t": 100461.2203333345,
      "d": 134.61495833333174,
      "v": 72
    },
    {
      "midi": 62,
      "hit": false,
      "t": 100461.2203333345,
      "d": 136.5380291666661,
      "v": 68
    },
    {
      "midi": 65,
      "hit": false,
      "t": 100461.2203333345,
      "d": 138.46110000000044,
      "v": 71
    },
    {
      "midi": 50,
      "hit": false,
      "t": 100615.06600000011,
      "d": 905.7663624999986,
      "v": 83
    },
    {
      "midi": 62,
      "hit": false,
      "t": 100615.06600000116,
      "d": 134.61495833333174,
      "v": 70
    },
    {
      "midi": 53,
      "hit": false,
      "t": 100615.06600000116,
      "d": 136.5380291666661,
      "v": 74
    },
    {
      "midi": 65,
      "hit": false,
      "t": 100615.06600000116,
      "d": 140.3841708333348,
      "v": 74
    },
    {
      "midi": 62,
      "hit": false,
      "t": 100768.91166666783,
      "d": 134.61495833333174,
      "v": 72
    },
    {
      "midi": 65,
      "hit": false,
      "t": 100768.91166666783,
      "d": 136.5380291666661,
      "v": 68
    },
    {
      "midi": 53,
      "hit": false,
      "t": 100768.91166666783,
      "d": 140.3841708333348,
      "v": 71
    },
    {
      "midi": 65,
      "hit": false,
      "t": 100922.7573333345,
      "d": 138.46110000000044,
      "v": 72
    },
    {
      "midi": 53,
      "hit": false,
      "t": 100922.7573333345,
      "d": 142.30724166666914,
      "v": 73
    },
    {
      "midi": 62,
      "hit": false,
      "t": 100922.7573333345,
      "d": 142.30724166666914,
      "v": 74
    },
    {
      "midi": 62,
      "hit": false,
      "t": 101076.60300000118,
      "d": 134.61495833333174,
      "v": 68
    },
    {
      "midi": 53,
      "hit": false,
      "t": 101076.60300000118,
      "d": 136.5380291666661,
      "v": 75
    },
    {
      "midi": 65,
      "hit": false,
      "t": 101076.60300000118,
      "d": 138.46110000000044,
      "v": 71
    },
    {
      "midi": 62,
      "hit": false,
      "t": 101230.44866666784,
      "d": 134.61495833333174,
      "v": 69
    },
    {
      "midi": 65,
      "hit": false,
      "t": 101230.44866666784,
      "d": 136.5380291666661,
      "v": 70
    },
    {
      "midi": 53,
      "hit": false,
      "t": 101230.44866666784,
      "d": 138.46110000000044,
      "v": 75
    },
    {
      "midi": 53,
      "hit": false,
      "t": 101384.2943333345,
      "d": 134.61495833333174,
      "v": 75
    },
    {
      "midi": 62,
      "hit": false,
      "t": 101384.2943333345,
      "d": 140.3841708333348,
      "v": 70
    },
    {
      "midi": 65,
      "hit": false,
      "t": 101384.2943333345,
      "d": 142.30724166666914,
      "v": 69
    },
    {
      "midi": 62,
      "hit": false,
      "t": 101538.14000000118,
      "d": 136.5380291666661,
      "v": 74
    },
    {
      "midi": 65,
      "hit": false,
      "t": 101538.14000000118,
      "d": 138.46110000000044,
      "v": 77
    },
    {
      "midi": 53,
      "hit": false,
      "t": 101538.14000000118,
      "d": 142.30724166666914,
      "v": 75
    },
    {
      "midi": 53,
      "hit": false,
      "t": 101691.98566666785,
      "d": 136.5380291666661,
      "v": 67
    },
    {
      "midi": 62,
      "hit": false,
      "t": 101691.98566666785,
      "d": 136.5380291666661,
      "v": 72
    },
    {
      "midi": 65,
      "hit": false,
      "t": 101691.98566666785,
      "d": 138.46110000000044,
      "v": 70
    },
    {
      "midi": 62,
      "hit": false,
      "t": 101845.83133333451,
      "d": 136.5380291666661,
      "v": 74
    },
    {
      "midi": 65,
      "hit": false,
      "t": 101845.83133333451,
      "d": 138.46110000000044,
      "v": 71
    },
    {
      "midi": 53,
      "hit": false,
      "t": 101845.83133333451,
      "d": 140.3841708333348,
      "v": 68
    },
    {
      "midi": 46,
      "hit": false,
      "t": 101999.67700000011,
      "d": 213.46086249999644,
      "v": 71
    },
    {
      "midi": 62,
      "hit": false,
      "t": 101999.67700000119,
      "d": 136.5380291666661,
      "v": 73
    },
    {
      "midi": 65,
      "hit": false,
      "t": 101999.67700000119,
      "d": 138.46110000000044,
      "v": 72
    },
    {
      "midi": 53,
      "hit": false,
      "t": 101999.67700000119,
      "d": 142.30724166666914,
      "v": 75
    },
    {
      "midi": 65,
      "hit": false,
      "t": 102153.52266666786,
      "d": 134.61495833333174,
      "v": 71
    },
    {
      "midi": 53,
      "hit": false,
      "t": 102153.52266666786,
      "d": 140.3841708333348,
      "v": 70
    },
    {
      "midi": 62,
      "hit": false,
      "t": 102153.52266666786,
      "d": 140.3841708333348,
      "v": 75
    },
    {
      "midi": 62,
      "hit": false,
      "t": 102307.36833333454,
      "d": 134.61495833333174,
      "v": 74
    },
    {
      "midi": 65,
      "hit": false,
      "t": 102307.36833333454,
      "d": 140.3841708333348,
      "v": 71
    },
    {
      "midi": 53,
      "hit": false,
      "t": 102307.36833333454,
      "d": 142.30724166666914,
      "v": 69
    },
    {
      "midi": 41,
      "hit": false,
      "t": 102461.21400000011,
      "d": 213.46086249999644,
      "v": 74
    },
    {
      "midi": 62,
      "hit": false,
      "t": 102461.21400000122,
      "d": 136.5380291666661,
      "v": 75
    },
    {
      "midi": 53,
      "hit": false,
      "t": 102461.21400000122,
      "d": 138.46110000000044,
      "v": 76
    },
    {
      "midi": 65,
      "hit": false,
      "t": 102461.21400000122,
      "d": 140.3841708333348,
      "v": 76
    },
    {
      "midi": 62,
      "hit": false,
      "t": 102615.05966666789,
      "d": 134.61495833333174,
      "v": 75
    },
    {
      "midi": 65,
      "hit": false,
      "t": 102615.05966666789,
      "d": 134.61495833333174,
      "v": 75
    },
    {
      "midi": 53,
      "hit": false,
      "t": 102615.05966666789,
      "d": 138.46110000000044,
      "v": 68
    },
    {
      "midi": 53,
      "hit": false,
      "t": 102768.90533333455,
      "d": 136.5380291666661,
      "v": 75
    },
    {
      "midi": 65,
      "hit": false,
      "t": 102768.90533333455,
      "d": 136.5380291666661,
      "v": 67
    },
    {
      "midi": 62,
      "hit": false,
      "t": 102768.90533333455,
      "d": 142.30724166666914,
      "v": 67
    },
    {
      "midi": 38,
      "hit": false,
      "t": 102922.7510000001,
      "d": 219.2300749999995,
      "v": 79
    },
    {
      "midi": 53,
      "hit": false,
      "t": 102922.75100000123,
      "d": 134.61495833333174,
      "v": 70
    },
    {
      "midi": 62,
      "hit": false,
      "t": 102922.75100000123,
      "d": 136.5380291666661,
      "v": 72
    },
    {
      "midi": 65,
      "hit": false,
      "t": 102922.75100000123,
      "d": 136.5380291666661,
      "v": 67
    },
    {
      "midi": 65,
      "hit": false,
      "t": 103076.59666666789,
      "d": 134.61495833333174,
      "v": 71
    },
    {
      "midi": 53,
      "hit": false,
      "t": 103076.59666666789,
      "d": 136.5380291666661,
      "v": 69
    },
    {
      "midi": 62,
      "hit": false,
      "t": 103076.59666666789,
      "d": 136.5380291666661,
      "v": 71
    },
    {
      "midi": 62,
      "hit": false,
      "t": 103230.44233333455,
      "d": 134.61495833333174,
      "v": 69
    },
    {
      "midi": 65,
      "hit": false,
      "t": 103230.44233333455,
      "d": 134.61495833333174,
      "v": 67
    },
    {
      "midi": 53,
      "hit": false,
      "t": 103230.44233333455,
      "d": 136.5380291666661,
      "v": 68
    },
    {
      "midi": 39,
      "hit": false,
      "t": 103384.2880000001,
      "d": 219.2300749999995,
      "v": 71
    },
    {
      "midi": 60,
      "hit": false,
      "t": 103384.28800000121,
      "d": 138.46110000000044,
      "v": 73
    },
    {
      "midi": 55,
      "hit": false,
      "t": 103384.28800000121,
      "d": 142.30724166666914,
      "v": 71
    },
    {
      "midi": 63,
      "hit": false,
      "t": 103384.28800000121,
      "d": 142.30724166666914,
      "v": 79
    },
    {
      "midi": 63,
      "hit": false,
      "t": 103538.13366666788,
      "d": 134.61495833333174,
      "v": 68
    },
    {
      "midi": 60,
      "hit": false,
      "t": 103538.13366666788,
      "d": 138.46110000000044,
      "v": 74
    },
    {
      "midi": 55,
      "hit": false,
      "t": 103538.13366666788,
      "d": 142.30724166666914,
      "v": 67
    },
    {
      "midi": 55,
      "hit": false,
      "t": 103691.97933333456,
      "d": 138.46110000000044,
      "v": 68
    },
    {
      "midi": 60,
      "hit": false,
      "t": 103691.97933333456,
      "d": 138.46110000000044,
      "v": 75
    },
    {
      "midi": 63,
      "hit": false,
      "t": 103691.97933333456,
      "d": 140.3841708333348,
      "v": 73
    },
    {
      "midi": 60,
      "hit": false,
      "t": 103845.82500000123,
      "d": 136.5380291666661,
      "v": 74
    },
    {
      "midi": 63,
      "hit": false,
      "t": 103845.82500000123,
      "d": 136.5380291666661,
      "v": 67
    },
    {
      "midi": 55,
      "hit": false,
      "t": 103845.82500000123,
      "d": 142.30724166666914,
      "v": 67
    },
    {
      "midi": 63,
      "hit": false,
      "t": 103999.67066666791,
      "d": 136.5380291666661,
      "v": 70
    },
    {
      "midi": 55,
      "hit": false,
      "t": 103999.67066666791,
      "d": 142.30724166666914,
      "v": 70
    },
    {
      "midi": 60,
      "hit": false,
      "t": 103999.67066666791,
      "d": 142.30724166666914,
      "v": 72
    },
    {
      "midi": 55,
      "hit": false,
      "t": 104153.51633333458,
      "d": 134.61495833333174,
      "v": 72
    },
    {
      "midi": 60,
      "hit": false,
      "t": 104153.51633333458,
      "d": 140.3841708333348,
      "v": 68
    },
    {
      "midi": 63,
      "hit": false,
      "t": 104153.51633333458,
      "d": 140.3841708333348,
      "v": 69
    },
    {
      "midi": 36,
      "hit": false,
      "t": 104307.3620000001,
      "d": 213.46086249999644,
      "v": 69
    },
    {
      "midi": 55,
      "hit": false,
      "t": 104307.36200000126,
      "d": 136.5380291666661,
      "v": 71
    },
    {
      "midi": 63,
      "hit": false,
      "t": 104307.36200000126,
      "d": 136.5380291666661,
      "v": 73
    },
    {
      "midi": 60,
      "hit": false,
      "t": 104307.36200000126,
      "d": 142.30724166666914,
      "v": 69
    },
    {
      "midi": 60,
      "hit": false,
      "t": 104461.20766666793,
      "d": 138.46110000000044,
      "v": 72
    },
    {
      "midi": 55,
      "hit": false,
      "t": 104461.20766666793,
      "d": 140.3841708333348,
      "v": 67
    },
    {
      "midi": 63,
      "hit": false,
      "t": 104461.20766666793,
      "d": 142.30724166666914,
      "v": 73
    },
    {
      "midi": 63,
      "hit": false,
      "t": 104615.05333333461,
      "d": 136.5380291666661,
      "v": 70
    },
    {
      "midi": 55,
      "hit": false,
      "t": 104615.05333333461,
      "d": 138.46110000000044,
      "v": 73
    },
    {
      "midi": 60,
      "hit": false,
      "t": 104615.05333333461,
      "d": 142.30724166666914,
      "v": 67
    },
    {
      "midi": 60,
      "hit": false,
      "t": 104768.89900000129,
      "d": 134.61495833333174,
      "v": 68
    },
    {
      "midi": 63,
      "hit": false,
      "t": 104768.89900000129,
      "d": 134.61495833333174,
      "v": 70
    },
    {
      "midi": 55,
      "hit": false,
      "t": 104768.89900000129,
      "d": 142.30724166666914,
      "v": 74
    },
    {
      "midi": 55,
      "hit": false,
      "t": 104922.74466666796,
      "d": 136.5380291666661,
      "v": 75
    },
    {
      "midi": 63,
      "hit": false,
      "t": 104922.74466666796,
      "d": 136.5380291666661,
      "v": 73
    },
    {
      "midi": 60,
      "hit": false,
      "t": 104922.74466666796,
      "d": 140.3841708333348,
      "v": 73
    },
    {
      "midi": 60,
      "hit": false,
      "t": 105076.59033333464,
      "d": 134.61495833333174,
      "v": 67
    },
    {
      "midi": 55,
      "hit": false,
      "t": 105076.59033333464,
      "d": 138.46110000000044,
      "v": 69
    },
    {
      "midi": 63,
      "hit": false,
      "t": 105076.59033333464,
      "d": 138.46110000000044,
      "v": 71
    },
    {
      "midi": 41,
      "hit": false,
      "t": 105230.43600000009,
      "d": 213.46086249999644,
      "v": 91
    },
    {
      "midi": 58,
      "hit": false,
      "t": 105230.4360000013,
      "d": 134.61495833333174,
      "v": 77
    },
    {
      "midi": 62,
      "hit": false,
      "t": 105230.4360000013,
      "d": 134.61495833333174,
      "v": 79
    },
    {
      "midi": 55,
      "hit": false,
      "t": 105230.4360000013,
      "d": 142.30724166666914,
      "v": 72
    },
    {
      "midi": 62,
      "hit": false,
      "t": 105384.28166666797,
      "d": 138.46110000000044,
      "v": 73
    },
    {
      "midi": 58,
      "hit": false,
      "t": 105384.28166666797,
      "d": 140.3841708333348,
      "v": 71
    },
    {
      "midi": 53,
      "hit": false,
      "t": 105384.28166666797,
      "d": 142.30724166666914,
      "v": 67
    },
    {
      "midi": 58,
      "hit": false,
      "t": 105538.12733333465,
      "d": 134.61495833333174,
      "v": 71
    },
    {
      "midi": 62,
      "hit": false,
      "t": 105538.12733333465,
      "d": 134.61495833333174,
      "v": 69
    },
    {
      "midi": 53,
      "hit": false,
      "t": 105538.12733333465,
      "d": 138.46110000000044,
      "v": 74
    },
    {
      "midi": 58,
      "hit": false,
      "t": 105691.97300000131,
      "d": 138.46110000000044,
      "v": 68
    },
    {
      "midi": 62,
      "hit": false,
      "t": 105691.97300000131,
      "d": 140.3841708333348,
      "v": 69
    },
    {
      "midi": 53,
      "hit": false,
      "t": 105691.97300000131,
      "d": 142.30724166666914,
      "v": 68
    },
    {
      "midi": 58,
      "hit": false,
      "t": 105845.81866666798,
      "d": 136.5380291666661,
      "v": 70
    },
    {
      "midi": 53,
      "hit": false,
      "t": 105845.81866666798,
      "d": 138.46110000000044,
      "v": 75
    },
    {
      "midi": 62,
      "hit": false,
      "t": 105845.81866666798,
      "d": 142.30724166666914,
      "v": 74
    },
    {
      "midi": 62,
      "hit": false,
      "t": 105999.66433333466,
      "d": 134.61495833333174,
      "v": 74
    },
    {
      "midi": 53,
      "hit": false,
      "t": 105999.66433333466,
      "d": 142.30724166666914,
      "v": 69
    },
    {
      "midi": 58,
      "hit": false,
      "t": 105999.66433333466,
      "d": 142.30724166666914,
      "v": 68
    },
    {
      "midi": 29,
      "hit": false,
      "t": 106153.51000000008,
      "d": 213.46086249999644,
      "v": 72
    },
    {
      "midi": 41,
      "hit": false,
      "t": 106153.51000000008,
      "d": 219.2300749999995,
      "v": 70
    },
    {
      "midi": 57,
      "hit": false,
      "t": 106153.51000000133,
      "d": 134.61495833333174,
      "v": 73
    },
    {
      "midi": 53,
      "hit": false,
      "t": 106153.51000000133,
      "d": 136.5380291666661,
      "v": 75
    },
    {
      "midi": 60,
      "hit": false,
      "t": 106153.51000000133,
      "d": 138.46110000000044,
      "v": 77
    },
    {
      "midi": 53,
      "hit": false,
      "t": 106307.355666668,
      "d": 134.61495833333174,
      "v": 75
    },
    {
      "midi": 60,
      "hit": false,
      "t": 106307.355666668,
      "d": 134.61495833333174,
      "v": 75
    },
    {
      "midi": 57,
      "hit": false,
      "t": 106307.355666668,
      "d": 136.5380291666661,
      "v": 72
    },
    {
      "midi": 53,
      "hit": false,
      "t": 106461.20133333465,
      "d": 134.61495833333174,
      "v": 75
    },
    {
      "midi": 60,
      "hit": false,
      "t": 106461.20133333465,
      "d": 138.46110000000044,
      "v": 72
    },
    {
      "midi": 57,
      "hit": false,
      "t": 106461.20133333465,
      "d": 142.30724166666914,
      "v": 71
    },
    {
      "midi": 53,
      "hit": false,
      "t": 106615.04700000008,
      "d": 136.5380291666661,
      "v": 74
    },
    {
      "midi": 57,
      "hit": false,
      "t": 106615.04700000008,
      "d": 142.30724166666914,
      "v": 67
    },
    {
      "midi": 60,
      "hit": false,
      "t": 106615.04700000008,
      "d": 142.30724166666914,
      "v": 67
    },
    {
      "midi": 65,
      "hit": false,
      "t": 106615.04700000133,
      "d": 448.0755041666562,
      "v": 72
    },
    {
      "midi": 72,
      "hit": false,
      "t": 106634.27770833466,
      "d": 424.9986541666585,
      "v": 67
    },
    {
      "midi": 77,
      "hit": false,
      "t": 106653.50841666799,
      "d": 409.6140874999983,
      "v": 75
    },
    {
      "midi": 84,
      "hit": false,
      "t": 106672.73912500132,
      "d": 390.38337916666933,
      "v": 74
    },
    {
      "midi": 53,
      "hit": false,
      "t": 106768.89266666675,
      "d": 134.61495833333174,
      "v": 73
    },
    {
      "midi": 60,
      "hit": false,
      "t": 106768.89266666675,
      "d": 136.5380291666661,
      "v": 73
    },
    {
      "midi": 57,
      "hit": false,
      "t": 106768.89266666675,
      "d": 138.46110000000044,
      "v": 71
    },
    {
      "midi": 57,
      "hit": false,
      "t": 106922.73833333341,
      "d": 134.61495833333174,
      "v": 67
    },
    {
      "midi": 60,
      "hit": false,
      "t": 106922.73833333341,
      "d": 136.5380291666661,
      "v": 74
    },
    {
      "midi": 53,
      "hit": false,
      "t": 106922.73833333341,
      "d": 140.3841708333348,
      "v": 69
    },
    {
      "midi": 46,
      "hit": false,
      "t": 107076.58400000009,
      "d": 230.76849999999104,
      "v": 79
    },
    {
      "midi": 65,
      "hit": false,
      "t": 107076.58400000133,
      "d": 1373.0725749999838,
      "v": 76
    },
    {
      "midi": 74,
      "hit": false,
      "t": 107095.81470833466,
      "d": 1348.0726541666518,
      "v": 76
    },
    {
      "midi": 77,
      "hit": false,
      "t": 107115.04541666798,
      "d": 1326.9188749999885,
      "v": 71
    },
    {
      "midi": 86,
      "hit": false,
      "t": 107134.27612500131,
      "d": 1313.4573791666626,
      "v": 76
    },
    {
      "midi": 58,
      "hit": false,
      "t": 107230.42966666675,
      "d": 153.8456666666607,
      "v": 73
    },
    {
      "midi": 62,
      "hit": false,
      "t": 107230.42966666675,
      "d": 153.8456666666607,
      "v": 72
    },
    {
      "midi": 53,
      "hit": false,
      "t": 107384.27533333341,
      "d": 153.8456666666607,
      "v": 68
    },
    {
      "midi": 46,
      "hit": false,
      "t": 107538.12100000007,
      "d": 230.76849999999104,
      "v": 70
    },
    {
      "midi": 58,
      "hit": false,
      "t": 107691.96666666673,
      "d": 153.8456666666607,
      "v": 68
    },
    {
      "midi": 62,
      "hit": false,
      "t": 107691.96666666673,
      "d": 153.8456666666607,
      "v": 67
    },
    {
      "midi": 53,
      "hit": false,
      "t": 107845.8123333334,
      "d": 153.8456666666607,
      "v": 71
    },
    {
      "midi": 46,
      "hit": false,
      "t": 107999.65800000005,
      "d": 230.76849999999104,
      "v": 70
    },
    {
      "midi": 58,
      "hit": false,
      "t": 108153.50366666671,
      "d": 153.8456666666607,
      "v": 68
    },
    {
      "midi": 62,
      "hit": false,
      "t": 108153.50366666671,
      "d": 153.8456666666607,
      "v": 73
    },
    {
      "midi": 53,
      "hit": false,
      "t": 108307.34933333338,
      "d": 153.8456666666607,
      "v": 69
    },
    {
      "midi": 46,
      "hit": false,
      "t": 108461.19500000004,
      "d": 230.76849999999104,
      "v": 71
    },
    {
      "midi": 65,
      "hit": false,
      "t": 108461.19500000132,
      "d": 448.0755041666562,
      "v": 72
    },
    {
      "midi": 70,
      "hit": false,
      "t": 108480.42570833465,
      "d": 426.9217249999929,
      "v": 69
    },
    {
      "midi": 77,
      "hit": false,
      "t": 108499.65641666797,
      "d": 407.6910166666639,
      "v": 71
    },
    {
      "midi": 82,
      "hit": false,
      "t": 108518.8871250013,
      "d": 386.53723750000063,
      "v": 71
    },
    {
      "midi": 58,
      "hit": false,
      "t": 108615.0406666667,
      "d": 153.8456666666607,
      "v": 75
    },
    {
      "midi": 62,
      "hit": false,
      "t": 108615.0406666667,
      "d": 153.8456666666607,
      "v": 75
    },
    {
      "midi": 53,
      "hit": false,
      "t": 108768.88633333336,
      "d": 153.8456666666607,
      "v": 70
    },
    {
      "midi": 46,
      "hit": false,
      "t": 108922.73200000002,
      "d": 230.76849999999104,
      "v": 75
    },
    {
      "midi": 65,
      "hit": false,
      "t": 108922.73200000131,
      "d": 1365.380291666661,
      "v": 73
    },
    {
      "midi": 72,
      "hit": false,
      "t": 108941.96270833464,
      "d": 1346.149583333332,
      "v": 71
    },
    {
      "midi": 77,
      "hit": false,
      "t": 108961.19341666797,
      "d": 1332.688087500006,
      "v": 73
    },
    {
      "midi": 57,
      "hit": false,
      "t": 109076.57766666668,
      "d": 153.8456666666607,
      "v": 67
    },
    {
      "midi": 63,
      "hit": false,
      "t": 109076.57766666668,
      "d": 153.8456666666607,
      "v": 73
    },
    {
      "midi": 53,
      "hit": false,
      "t": 109230.42333333334,
      "d": 153.8456666666607,
      "v": 75
    },
    {
      "midi": 46,
      "hit": false,
      "t": 109384.269,
      "d": 230.76849999999104,
      "v": 69
    },
    {
      "midi": 57,
      "hit": false,
      "t": 109538.11466666666,
      "d": 153.8456666666607,
      "v": 74
    },
    {
      "midi": 63,
      "hit": false,
      "t": 109538.11466666666,
      "d": 153.8456666666607,
      "v": 73
    },
    {
      "midi": 53,
      "hit": false,
      "t": 109691.96033333332,
      "d": 153.8456666666607,
      "v": 71
    },
    {
      "midi": 46,
      "hit": false,
      "t": 109845.80599999998,
      "d": 230.76849999999104,
      "v": 72
    },
    {
      "midi": 58,
      "hit": false,
      "t": 109999.65166666664,
      "d": 153.8456666666607,
      "v": 69
    },
    {
      "midi": 63,
      "hit": false,
      "t": 109999.65166666664,
      "d": 153.8456666666607,
      "v": 73
    },
    {
      "midi": 53,
      "hit": false,
      "t": 110153.4973333333,
      "d": 153.8456666666607,
      "v": 71
    },
    {
      "midi": 46,
      "hit": false,
      "t": 110307.34299999996,
      "d": 230.76849999999104,
      "v": 72
    },
    {
      "midi": 65,
      "hit": false,
      "t": 110307.34300000132,
      "d": 442.3062916666531,
      "v": 75
    },
    {
      "midi": 72,
      "hit": false,
      "t": 110326.57370833465,
      "d": 424.9986541666585,
      "v": 73
    },
    {
      "midi": 77,
      "hit": false,
      "t": 110345.80441666798,
      "d": 405.7679458333296,
      "v": 67
    },
    {
      "midi": 84,
      "hit": false,
      "t": 110365.0351250013,
      "d": 384.6141666666663,
      "v": 72
    },
    {
      "midi": 57,
      "hit": false,
      "t": 110461.18866666663,
      "d": 153.8456666666607,
      "v": 73
    },
    {
      "midi": 63,
      "hit": false,
      "t": 110461.18866666663,
      "d": 153.8456666666607,
      "v": 70
    },
    {
      "midi": 53,
      "hit": false,
      "t": 110615.03433333329,
      "d": 153.8456666666607,
      "v": 71
    },
    {
      "midi": 46,
      "hit": false,
      "t": 110768.87999999995,
      "d": 230.76849999999104,
      "v": 72
    },
    {
      "midi": 65,
      "hit": false,
      "t": 110768.8800000013,
      "d": 1369.226433333315,
      "v": 73
    },
    {
      "midi": 74,
      "hit": false,
      "t": 110788.11070833463,
      "d": 1348.0726541666518,
      "v": 72
    },
    {
      "midi": 77,
      "hit": false,
      "t": 110807.34141666796,
      "d": 1332.6880874999915,
      "v": 74
    },
    {
      "midi": 86,
      "hit": false,
      "t": 110826.57212500129,
      "d": 1311.5343083333282,
      "v": 74
    },
    {
      "midi": 58,
      "hit": false,
      "t": 110922.7256666666,
      "d": 153.8456666666607,
      "v": 70
    },
    {
      "midi": 62,
      "hit": false,
      "t": 110922.7256666666,
      "d": 153.8456666666607,
      "v": 75
    },
    {
      "midi": 53,
      "hit": false,
      "t": 111076.57133333327,
      "d": 153.8456666666607,
      "v": 72
    },
    {
      "midi": 46,
      "hit": false,
      "t": 111230.41699999993,
      "d": 230.76849999999104,
      "v": 69
    },
    {
      "midi": 58,
      "hit": false,
      "t": 111384.26266666659,
      "d": 153.8456666666607,
      "v": 74
    },
    {
      "midi": 62,
      "hit": false,
      "t": 111384.26266666659,
      "d": 153.8456666666607,
      "v": 75
    },
    {
      "midi": 53,
      "hit": false,
      "t": 111538.10833333325,
      "d": 153.8456666666607,
      "v": 69
    },
    {
      "midi": 46,
      "hit": false,
      "t": 111691.95399999991,
      "d": 230.76849999999104,
      "v": 77
    },
    {
      "midi": 58,
      "hit": false,
      "t": 111845.79966666657,
      "d": 153.8456666666607,
      "v": 70
    },
    {
      "midi": 62,
      "hit": false,
      "t": 111845.79966666657,
      "d": 153.8456666666607,
      "v": 71
    },
    {
      "midi": 53,
      "hit": false,
      "t": 111999.64533333323,
      "d": 153.8456666666607,
      "v": 74
    },
    {
      "midi": 46,
      "hit": false,
      "t": 112153.49099999989,
      "d": 230.76849999999104,
      "v": 67
    },
    {
      "midi": 65,
      "hit": false,
      "t": 112153.49100000129,
      "d": 446.1524333333218,
      "v": 67
    },
    {
      "midi": 70,
      "hit": false,
      "t": 112172.72170833462,
      "d": 430.7678666666616,
      "v": 71
    },
    {
      "midi": 77,
      "hit": false,
      "t": 112191.95241666795,
      "d": 409.6140874999983,
      "v": 67
    },
    {
      "midi": 82,
      "hit": false,
      "t": 112211.18312500128,
      "d": 390.38337916666933,
      "v": 71
    },
    {
      "midi": 58,
      "hit": false,
      "t": 112307.33666666655,
      "d": 153.8456666666607,
      "v": 71
    },
    {
      "midi": 62,
      "hit": false,
      "t": 112307.33666666655,
      "d": 153.8456666666607,
      "v": 72
    },
    {
      "midi": 53,
      "hit": false,
      "t": 112461.18233333321,
      "d": 153.8456666666607,
      "v": 70
    },
    {
      "midi": 46,
      "hit": false,
      "t": 112615.02799999987,
      "d": 153.8456666666607,
      "v": 76
    },
    {
      "midi": 65,
      "hit": false,
      "t": 112615.02800000129,
      "d": 1369.2264333333296,
      "v": 72
    },
    {
      "midi": 72,
      "hit": false,
      "t": 112634.25870833462,
      "d": 1346.149583333332,
      "v": 73
    },
    {
      "midi": 77,
      "hit": false,
      "t": 112653.48941666794,
      "d": 1328.8419458333374,
      "v": 78
    },
    {
      "midi": 57,
      "hit": false,
      "t": 112768.87366666654,
      "d": 153.8456666666607,
      "v": 72
    },
    {
      "midi": 63,
      "hit": false,
      "t": 112768.87366666654,
      "d": 153.8456666666607,
      "v": 75
    },
    {
      "midi": 53,
      "hit": false,
      "t": 112922.7193333332,
      "d": 153.8456666666607,
      "v": 73
    },
    {
      "midi": 46,
      "hit": false,
      "t": 113076.56499999986,
      "d": 230.76849999999104,
      "v": 75
    },
    {
      "midi": 57,
      "hit": false,
      "t": 113230.41066666652,
      "d": 153.8456666666607,
      "v": 67
    },
    {
      "midi": 63,
      "hit": false,
      "t": 113230.41066666652,
      "d": 153.8456666666607,
      "v": 74
    },
    {
      "midi": 53,
      "hit": false,
      "t": 113384.25633333318,
      "d": 153.8456666666607,
      "v": 70
    },
    {
      "midi": 46,
      "hit": false,
      "t": 113538.10199999984,
      "d": 230.76849999999104,
      "v": 74
    },
    {
      "midi": 57,
      "hit": false,
      "t": 113691.9476666665,
      "d": 153.8456666666607,
      "v": 74
    },
    {
      "midi": 63,
      "hit": false,
      "t": 113691.9476666665,
      "d": 153.8456666666607,
      "v": 71
    },
    {
      "midi": 53,
      "hit": false,
      "t": 113845.79333333316,
      "d": 153.8456666666607,
      "v": 75
    },
    {
      "midi": 46,
      "hit": false,
      "t": 113999.63899999982,
      "d": 230.76849999999104,
      "v": 72
    },
    {
      "midi": 65,
      "hit": false,
      "t": 113999.63900000128,
      "d": 442.3062916666531,
      "v": 68
    },
    {
      "midi": 72,
      "hit": false,
      "t": 114018.8697083346,
      "d": 428.8447958333272,
      "v": 68
    },
    {
      "midi": 77,
      "hit": false,
      "t": 114038.10041666793,
      "d": 411.5371583333326,
      "v": 74
    },
    {
      "midi": 84,
      "hit": false,
      "t": 114057.33112500126,
      "d": 388.460308333335,
      "v": 69
    },
    {
      "midi": 57,
      "hit": false,
      "t": 114153.48466666648,
      "d": 153.8456666666607,
      "v": 75
    },
    {
      "midi": 63,
      "hit": false,
      "t": 114153.48466666648,
      "d": 153.8456666666607,
      "v": 73
    },
    {
      "midi": 53,
      "hit": false,
      "t": 114307.33033333314,
      "d": 153.8456666666607,
      "v": 71
    },
    {
      "midi": 46,
      "hit": false,
      "t": 114461.1759999998,
      "d": 153.8456666666607,
      "v": 76
    },
    {
      "midi": 65,
      "hit": false,
      "t": 114461.17600000127,
      "d": 1367.3033624999807,
      "v": 76
    },
    {
      "midi": 74,
      "hit": false,
      "t": 114480.4067083346,
      "d": 1349.9957249999861,
      "v": 71
    },
    {
      "midi": 77,
      "hit": false,
      "t": 114499.63741666793,
      "d": 1326.9188749999885,
      "v": 73
    },
    {
      "midi": 86,
      "hit": false,
      "t": 114518.86812500126,
      "d": 1311.5343083333282,
      "v": 74
    },
    {
      "midi": 58,
      "hit": false,
      "t": 114615.02166666646,
      "d": 153.8456666666607,
      "v": 75
    },
    {
      "midi": 62,
      "hit": false,
      "t": 114615.02166666646,
      "d": 153.8456666666607,
      "v": 71
    },
    {
      "midi": 53,
      "hit": false,
      "t": 114768.86733333312,
      "d": 153.8456666666607,
      "v": 72
    },
    {
      "midi": 46,
      "hit": false,
      "t": 114922.71299999979,
      "d": 153.8456666666607,
      "v": 72
    },
    {
      "midi": 58,
      "hit": false,
      "t": 115076.55866666645,
      "d": 153.8456666666607,
      "v": 73
    },
    {
      "midi": 62,
      "hit": false,
      "t": 115076.55866666645,
      "d": 153.8456666666607,
      "v": 74
    },
    {
      "midi": 53,
      "hit": false,
      "t": 115230.4043333331,
      "d": 153.8456666666607,
      "v": 71
    },
    {
      "midi": 46,
      "hit": false,
      "t": 115384.24999999977,
      "d": 153.8456666666607,
      "v": 69
    },
    {
      "midi": 58,
      "hit": false,
      "t": 115538.09566666643,
      "d": 153.8456666666607,
      "v": 70
    },
    {
      "midi": 62,
      "hit": false,
      "t": 115538.09566666643,
      "d": 153.8456666666607,
      "v": 73
    },
    {
      "midi": 53,
      "hit": false,
      "t": 115691.94133333309,
      "d": 153.8456666666607,
      "v": 72
    },
    {
      "midi": 46,
      "hit": false,
      "t": 115845.78699999975,
      "d": 153.8456666666607,
      "v": 68
    },
    {
      "midi": 65,
      "hit": false,
      "t": 115845.78700000125,
      "d": 442.3062916666531,
      "v": 73
    },
    {
      "midi": 70,
      "hit": false,
      "t": 115865.01770833458,
      "d": 426.9217249999929,
      "v": 71
    },
    {
      "midi": 77,
      "hit": false,
      "t": 115884.2484166679,
      "d": 405.7679458333296,
      "v": 73
    },
    {
      "midi": 82,
      "hit": false,
      "t": 115903.47912500123,
      "d": 388.460308333335,
      "v": 73
    },
    {
      "midi": 58,
      "hit": false,
      "t": 115999.63266666641,
      "d": 153.8456666666607,
      "v": 73
    },
    {
      "midi": 62,
      "hit": false,
      "t": 115999.63266666641,
      "d": 153.8456666666607,
      "v": 69
    },
    {
      "midi": 53,
      "hit": false,
      "t": 116153.47833333307,
      "d": 153.8456666666607,
      "v": 69
    },
    {
      "midi": 48,
      "hit": false,
      "t": 116307.32399999973,
      "d": 153.8456666666607,
      "v": 78
    },
    {
      "midi": 69,
      "hit": false,
      "t": 116307.32400000123,
      "d": 909.6125041666528,
      "v": 78
    },
    {
      "midi": 77,
      "hit": false,
      "t": 116326.55470833456,
      "d": 890.3817958333238,
      "v": 73
    },
    {
      "midi": 81,
      "hit": false,
      "t": 116345.78541666789,
      "d": 871.1510874999949,
      "v": 74
    },
    {
      "midi": 89,
      "hit": false,
      "t": 116365.01612500122,
      "d": 851.920379166666,
      "v": 76
    },
    {
      "midi": 60,
      "hit": false,
      "t": 116461.16966666639,
      "d": 153.8456666666607,
      "v": 75
    },
    {
      "midi": 65,
      "hit": false,
      "t": 116461.16966666639,
      "d": 153.8456666666607,
      "v": 69
    },
    {
      "midi": 57,
      "hit": false,
      "t": 116615.01533333305,
      "d": 153.8456666666607,
      "v": 69
    },
    {
      "midi": 48,
      "hit": false,
      "t": 116768.86099999971,
      "d": 153.8456666666607,
      "v": 68
    },
    {
      "midi": 60,
      "hit": false,
      "t": 116922.70666666637,
      "d": 153.8456666666607,
      "v": 68
    },
    {
      "midi": 65,
      "hit": false,
      "t": 116922.70666666637,
      "d": 153.8456666666607,
      "v": 75
    },
    {
      "midi": 57,
      "hit": false,
      "t": 117076.55233333303,
      "d": 153.8456666666607,
      "v": 75
    },
    {
      "midi": 48,
      "hit": false,
      "t": 117230.3979999997,
      "d": 153.8456666666607,
      "v": 77
    },
    {
      "midi": 69,
      "hit": false,
      "t": 117230.39800000122,
      "d": 903.8432916666497,
      "v": 72
    },
    {
      "midi": 77,
      "hit": false,
      "t": 117249.62870833455,
      "d": 892.3048666666582,
      "v": 70
    },
    {
      "midi": 81,
      "hit": false,
      "t": 117268.85941666788,
      "d": 871.1510874999949,
      "v": 69
    },
    {
      "midi": 84,
      "hit": false,
      "t": 117288.09012500121,
      "d": 846.1511666666629,
      "v": 73
    },
    {
      "midi": 60,
      "hit": false,
      "t": 117384.24366666636,
      "d": 153.8456666666607,
      "v": 74
    },
    {
      "midi": 65,
      "hit": false,
      "t": 117384.24366666636,
      "d": 153.8456666666607,
      "v": 72
    },
    {
      "midi": 57,
      "hit": false,
      "t": 117538.08933333302,
      "d": 153.8456666666607,
      "v": 71
    },
    {
      "midi": 48,
      "hit": false,
      "t": 117691.93499999968,
      "d": 153.8456666666607,
      "v": 72
    },
    {
      "midi": 60,
      "hit": false,
      "t": 117845.78066666634,
      "d": 153.8456666666607,
      "v": 74
    },
    {
      "midi": 65,
      "hit": false,
      "t": 117845.78066666634,
      "d": 153.8456666666607,
      "v": 67
    },
    {
      "midi": 57,
      "hit": false,
      "t": 117999.626333333,
      "d": 153.8456666666607,
      "v": 71
    },
    {
      "midi": 48,
      "hit": false,
      "t": 118153.47199999966,
      "d": 153.8456666666607,
      "v": 75
    },
    {
      "midi": 70,
      "hit": false,
      "t": 118153.47200000122,
      "d": 444.2293624999875,
      "v": 77
    },
    {
      "midi": 76,
      "hit": false,
      "t": 118172.70270833455,
      "d": 426.9217249999929,
      "v": 78
    },
    {
      "midi": 79,
      "hit": false,
      "t": 118191.93341666787,
      "d": 403.8448749999952,
      "v": 75
    },
    {
      "midi": 84,
      "hit": false,
      "t": 118211.1641250012,
      "d": 392.3064500000037,
      "v": 74
    },
    {
      "midi": 58,
      "hit": false,
      "t": 118307.31766666632,
      "d": 153.8456666666607,
      "v": 69
    },
    {
      "midi": 64,
      "hit": false,
      "t": 118307.31766666632,
      "d": 153.8456666666607,
      "v": 67
    },
    {
      "midi": 55,
      "hit": false,
      "t": 118461.16333333298,
      "d": 153.8456666666607,
      "v": 75
    },
    {
      "midi": 48,
      "hit": false,
      "t": 118615.00899999964,
      "d": 153.8456666666607,
      "v": 72
    },
    {
      "midi": 70,
      "hit": false,
      "t": 118615.00900000121,
      "d": 907.6894333333476,
      "v": 68
    },
    {
      "midi": 76,
      "hit": false,
      "t": 118634.23970833454,
      "d": 890.381795833353,
      "v": 67
    },
    {
      "midi": 79,
      "hit": false,
      "t": 118653.47041666787,
      "d": 871.151087500024,
      "v": 73
    },
    {
      "midi": 83,
      "hit": false,
      "t": 118672.7011250012,
      "d": 82.6920458333334,
      "v": 67
    },
    {
      "midi": 58,
      "hit": false,
      "t": 118768.8546666663,
      "d": 153.8456666666607,
      "v": 74
    },
    {
      "midi": 64,
      "hit": false,
      "t": 118768.8546666663,
      "d": 153.8456666666607,
      "v": 70
    },
    {
      "midi": 84,
      "hit": false,
      "t": 118768.85466666787,
      "d": 140.3841708333348,
      "v": 73
    },
    {
      "midi": 55,
      "hit": false,
      "t": 118922.70033333296,
      "d": 153.8456666666607,
      "v": 73
    },
    {
      "midi": 86,
      "hit": false,
      "t": 118922.70033333455,
      "d": 142.30724166666914,
      "v": 75
    },
    {
      "midi": 48,
      "hit": false,
      "t": 119076.54599999962,
      "d": 153.8456666666607,
      "v": 76
    },
    {
      "midi": 84,
      "hit": false,
      "t": 119076.54600000122,
      "d": 444.229362500002,
      "v": 70
    },
    {
      "midi": 58,
      "hit": false,
      "t": 119230.39166666628,
      "d": 153.8456666666607,
      "v": 69
    },
    {
      "midi": 64,
      "hit": false,
      "t": 119230.39166666628,
      "d": 153.8456666666607,
      "v": 74
    },
    {
      "midi": 55,
      "hit": false,
      "t": 119384.23733333295,
      "d": 153.8456666666607,
      "v": 68
    },
    {
      "midi": 48,
      "hit": false,
      "t": 119538.0829999996,
      "d": 153.8456666666607,
      "v": 67
    },
    {
      "midi": 60,
      "hit": false,
      "t": 119538.08300000124,
      "d": 449.9985749999905,
      "v": 73
    },
    {
      "midi": 67,
      "hit": false,
      "t": 119557.31370833456,
      "d": 430.7678666666616,
      "v": 75
    },
    {
      "midi": 70,
      "hit": false,
      "t": 119576.5444166679,
      "d": 405.7679458333296,
      "v": 71
    },
    {
      "midi": 76,
      "hit": false,
      "t": 119595.77512500122,
      "d": 384.6141666666663,
      "v": 74
    },
    {
      "midi": 58,
      "hit": false,
      "t": 119691.92866666627,
      "d": 153.8456666666607,
      "v": 68
    },
    {
      "midi": 64,
      "hit": false,
      "t": 119691.92866666627,
      "d": 153.8456666666607,
      "v": 67
    },
    {
      "midi": 55,
      "hit": false,
      "t": 119845.77433333293,
      "d": 153.8456666666607,
      "v": 67
    },
    {
      "midi": 41,
      "hit": false,
      "t": 119999.61999999959,
      "d": 153.8456666666607,
      "v": 78
    },
    {
      "midi": 65,
      "hit": false,
      "t": 119999.62000000123,
      "d": 1365.380291666661,
      "v": 76
    },
    {
      "midi": 69,
      "hit": false,
      "t": 120018.85070833456,
      "d": 1353.8418666666694,
      "v": 78
    },
    {
      "midi": 77,
      "hit": false,
      "t": 120038.08141666789,
      "d": 1334.6111583333404,
      "v": 79
    },
    {
      "midi": 57,
      "hit": false,
      "t": 120153.46566666625,
      "d": 153.8456666666607,
      "v": 71
    },
    {
      "midi": 60,
      "hit": false,
      "t": 120153.46566666625,
      "d": 153.8456666666607,
      "v": 68
    },
    {
      "midi": 53,
      "hit": false,
      "t": 120307.31133333291,
      "d": 153.8456666666607,
      "v": 73
    },
    {
      "midi": 41,
      "hit": false,
      "t": 120461.15699999957,
      "d": 153.8456666666607,
      "v": 67
    },
    {
      "midi": 57,
      "hit": false,
      "t": 120615.00266666623,
      "d": 153.8456666666607,
      "v": 70
    },
    {
      "midi": 60,
      "hit": false,
      "t": 120615.00266666623,
      "d": 153.8456666666607,
      "v": 74
    },
    {
      "midi": 53,
      "hit": false,
      "t": 120768.84833333289,
      "d": 153.8456666666607,
      "v": 67
    },
    {
      "midi": 41,
      "hit": false,
      "t": 120922.69399999955,
      "d": 153.8456666666607,
      "v": 75
    },
    {
      "midi": 57,
      "hit": false,
      "t": 121076.53966666621,
      "d": 153.8456666666607,
      "v": 67
    },
    {
      "midi": 60,
      "hit": false,
      "t": 121076.53966666621,
      "d": 153.8456666666607,
      "v": 74
    },
    {
      "midi": 53,
      "hit": false,
      "t": 121230.38533333287,
      "d": 153.8456666666607,
      "v": 68
    },
    {
      "midi": 41,
      "hit": false,
      "t": 121384.23099999953,
      "d": 153.8456666666607,
      "v": 75
    },
    {
      "midi": 77,
      "hit": false,
      "t": 121384.23100000124,
      "d": 442.3062916666677,
      "v": 67
    },
    {
      "midi": 65,
      "hit": false,
      "t": 121384.23100000124,
      "d": 446.1524333333364,
      "v": 68
    },
    {
      "midi": 57,
      "hit": false,
      "t": 121538.0766666662,
      "d": 153.8456666666607,
      "v": 74
    },
    {
      "midi": 60,
      "hit": false,
      "t": 121538.0766666662,
      "d": 153.8456666666607,
      "v": 68
    },
    {
      "midi": 53,
      "hit": false,
      "t": 121691.92233333286,
      "d": 153.8456666666607,
      "v": 71
    },
    {
      "midi": 41,
      "hit": false,
      "t": 121845.76799999952,
      "d": 153.8456666666607,
      "v": 79
    },
    {
      "midi": 65,
      "hit": false,
      "t": 121845.76800000123,
      "d": 1365.380291666661,
      "v": 74
    },
    {
      "midi": 72,
      "hit": false,
      "t": 121864.99870833456,
      "d": 1348.0726541666663,
      "v": 76
    },
    {
      "midi": 77,
      "hit": false,
      "t": 121884.22941666789,
      "d": 1328.8419458333374,
      "v": 78
    },
    {
      "midi": 84,
      "hit": false,
      "t": 121903.46012500122,
      "d": 1311.5343083333428,
      "v": 73
    },
    {
      "midi": 57,
      "hit": false,
      "t": 121999.61366666618,
      "d": 153.8456666666607,
      "v": 69
    },
    {
      "midi": 63,
      "hit": false,
      "t": 121999.61366666618,
      "d": 153.8456666666607,
      "v": 72
    },
    {
      "midi": 53,
      "hit": false,
      "t": 122153.45933333284,
      "d": 153.8456666666607,
      "v": 75
    },
    {
      "midi": 41,
      "hit": false,
      "t": 122307.3049999995,
      "d": 153.8456666666607,
      "v": 70
    },
    {
      "midi": 57,
      "hit": false,
      "t": 122461.15066666616,
      "d": 153.8456666666607,
      "v": 73
    },
    {
      "midi": 63,
      "hit": false,
      "t": 122461.15066666616,
      "d": 153.8456666666607,
      "v": 69
    },
    {
      "midi": 53,
      "hit": false,
      "t": 122614.99633333282,
      "d": 153.8456666666607,
      "v": 71
    },
    {
      "midi": 41,
      "hit": false,
      "t": 122768.84199999948,
      "d": 153.8456666666607,
      "v": 74
    },
    {
      "midi": 57,
      "hit": false,
      "t": 122922.68766666614,
      "d": 153.8456666666607,
      "v": 72
    },
    {
      "midi": 63,
      "hit": false,
      "t": 122922.68766666614,
      "d": 153.8456666666607,
      "v": 67
    },
    {
      "midi": 53,
      "hit": false,
      "t": 123076.5333333328,
      "d": 153.8456666666607,
      "v": 73
    },
    {
      "midi": 41,
      "hit": false,
      "t": 123230.37899999946,
      "d": 153.8456666666607,
      "v": 69
    },
    {
      "midi": 65,
      "hit": false,
      "t": 123230.37900000122,
      "d": 448.0755041666562,
      "v": 70
    },
    {
      "midi": 73,
      "hit": false,
      "t": 123249.60970833455,
      "d": 430.7678666666616,
      "v": 72
    },
    {
      "midi": 77,
      "hit": false,
      "t": 123268.84041666788,
      "d": 407.6910166666639,
      "v": 69
    },
    {
      "midi": 85,
      "hit": false,
      "t": 123288.07112500121,
      "d": 392.3064500000037,
      "v": 69
    },
    {
      "midi": 57,
      "hit": false,
      "t": 123384.22466666612,
      "d": 153.8456666666607,
      "v": 72
    },
    {
      "midi": 63,
      "hit": false,
      "t": 123384.22466666612,
      "d": 153.8456666666607,
      "v": 70
    },
    {
      "midi": 53,
      "hit": false,
      "t": 123538.07033333278,
      "d": 153.8456666666607,
      "v": 72
    },
    {
      "midi": 46,
      "hit": false,
      "t": 123691.91599999944,
      "d": 153.8456666666607,
      "v": 73
    },
    {
      "midi": 65,
      "hit": false,
      "t": 123691.91600000122,
      "d": 907.6894333333184,
      "v": 73
    },
    {
      "midi": 74,
      "hit": false,
      "t": 123711.14670833455,
      "d": 892.3048666666582,
      "v": 73
    },
    {
      "midi": 77,
      "hit": false,
      "t": 123730.37741666788,
      "d": 867.3049458333262,
      "v": 75
    },
    {
      "midi": 86,
      "hit": false,
      "t": 123749.6081250012,
      "d": 848.0742374999973,
      "v": 72
    },
    {
      "midi": 58,
      "hit": false,
      "t": 123845.7616666661,
      "d": 153.8456666666607,
      "v": 71
    },
    {
      "midi": 62,
      "hit": false,
      "t": 123845.7616666661,
      "d": 153.8456666666607,
      "v": 70
    },
    {
      "midi": 53,
      "hit": false,
      "t": 123999.60733333277,
      "d": 153.8456666666607,
      "v": 68
    },
    {
      "midi": 46,
      "hit": false,
      "t": 124153.45299999943,
      "d": 153.8456666666607,
      "v": 68
    },
    {
      "midi": 58,
      "hit": false,
      "t": 124307.29866666609,
      "d": 153.8456666666607,
      "v": 72
    },
    {
      "midi": 62,
      "hit": false,
      "t": 124307.29866666609,
      "d": 153.8456666666607,
      "v": 72
    },
    {
      "midi": 53,
      "hit": false,
      "t": 124461.14433333275,
      "d": 153.8456666666607,
      "v": 70
    },
    {
      "midi": 46,
      "hit": false,
      "t": 124614.98999999941,
      "d": 153.8456666666607,
      "v": 71
    },
    {
      "midi": 65,
      "hit": false,
      "t": 124614.99000000121,
      "d": 442.3062916666531,
      "v": 77
    },
    {
      "midi": 70,
      "hit": false,
      "t": 124634.22070833454,
      "d": 426.9217249999929,
      "v": 71
    },
    {
      "midi": 77,
      "hit": false,
      "t": 124653.45141666787,
      "d": 405.7679458333296,
      "v": 69
    },
    {
      "midi": 82,
      "hit": false,
      "t": 124672.6821250012,
      "d": 386.53723750000063,
      "v": 74
    },
    {
      "midi": 58,
      "hit": false,
      "t": 124768.83566666607,
      "d": 153.8456666666607,
      "v": 71
    },
    {
      "midi": 62,
      "hit": false,
      "t": 124768.83566666607,
      "d": 153.8456666666607,
      "v": 68
    },
    {
      "midi": 53,
      "hit": false,
      "t": 124922.68133333273,
      "d": 153.8456666666607,
      "v": 67
    },
    {
      "midi": 46,
      "hit": false,
      "t": 125076.52699999939,
      "d": 153.8456666666607,
      "v": 71
    },
    {
      "midi": 70,
      "hit": false,
      "t": 125076.5270000012,
      "d": 219.2300749999995,
      "v": 75
    },
    {
      "midi": 77,
      "hit": false,
      "t": 125095.75770833452,
      "d": 198.0762958333362,
      "v": 73
    },
    {
      "midi": 82,
      "hit": false,
      "t": 125114.98841666785,
      "d": 180.7686583333416,
      "v": 72
    },
    {
      "midi": 58,
      "hit": false,
      "t": 125230.37266666605,
      "d": 153.8456666666607,
      "v": 68
    },
    {
      "midi": 62,
      "hit": false,
      "t": 125230.37266666605,
      "d": 153.8456666666607,
      "v": 71
    },
    {
      "midi": 83,
      "hit": false,
      "t": 125307.2955000012,
      "d": 213.46086249999644,
      "v": 70
    },
    {
      "midi": 71,
      "hit": false,
      "t": 125307.2955000012,
      "d": 215.3839333333308,
      "v": 75
    },
    {
      "midi": 53,
      "hit": false,
      "t": 125384.21833333271,
      "d": 153.8456666666607,
      "v": 69
    },
    {
      "midi": 46,
      "hit": false,
      "t": 125538.06399999937,
      "d": 153.8456666666607,
      "v": 73
    },
    {
      "midi": 65,
      "hit": false,
      "t": 125538.06400000119,
      "d": 1373.0725749999838,
      "v": 73
    },
    {
      "midi": 72,
      "hit": false,
      "t": 125557.29470833452,
      "d": 1346.1495833333174,
      "v": 77
    },
    {
      "midi": 77,
      "hit": false,
      "t": 125576.52541666785,
      "d": 1332.6880874999915,
      "v": 75
    },
    {
      "midi": 84,
      "hit": false,
      "t": 125595.75612500118,
      "d": 1309.6112374999939,
      "v": 72
    },
    {
      "midi": 57,
      "hit": false,
      "t": 125691.90966666603,
      "d": 153.8456666666607,
      "v": 67
    },
    {
      "midi": 63,
      "hit": false,
      "t": 125691.90966666603,
      "d": 153.8456666666607,
      "v": 70
    },
    {
      "midi": 53,
      "hit": false,
      "t": 125845.7553333327,
      "d": 153.8456666666607,
      "v": 73
    },
    {
      "midi": 46,
      "hit": false,
      "t": 125999.60099999935,
      "d": 153.8456666666607,
      "v": 68
    },
    {
      "midi": 57,
      "hit": false,
      "t": 126153.44666666602,
      "d": 153.8456666666607,
      "v": 70
    },
    {
      "midi": 63,
      "hit": false,
      "t": 126153.44666666602,
      "d": 153.8456666666607,
      "v": 70
    },
    {
      "midi": 53,
      "hit": false,
      "t": 126307.29233333268,
      "d": 153.8456666666607,
      "v": 73
    },
    {
      "midi": 46,
      "hit": false,
      "t": 126461.13799999934,
      "d": 153.8456666666607,
      "v": 76
    },
    {
      "midi": 57,
      "hit": false,
      "t": 126614.983666666,
      "d": 153.8456666666607,
      "v": 70
    },
    {
      "midi": 63,
      "hit": false,
      "t": 126614.983666666,
      "d": 153.8456666666607,
      "v": 71
    },
    {
      "midi": 53,
      "hit": false,
      "t": 126768.82933333266,
      "d": 153.8456666666607,
      "v": 68
    },
    {
      "midi": 46,
      "hit": false,
      "t": 126922.67499999932,
      "d": 153.8456666666607,
      "v": 75
    },
    {
      "midi": 65,
      "hit": false,
      "t": 126922.67500000118,
      "d": 446.1524333333218,
      "v": 69
    },
    {
      "midi": 72,
      "hit": false,
      "t": 126941.90570833451,
      "d": 424.9986541666585,
      "v": 71
    },
    {
      "midi": 77,
      "hit": false,
      "t": 126961.13641666784,
      "d": 409.6140874999983,
      "v": 73
    },
    {
      "midi": 57,
      "hit": false,
      "t": 127076.52066666598,
      "d": 153.8456666666607,
      "v": 68
    },
    {
      "midi": 63,
      "hit": false,
      "t": 127076.52066666598,
      "d": 153.8456666666607,
      "v": 75
    },
    {
      "midi": 53,
      "hit": false,
      "t": 127230.36633333264,
      "d": 153.8456666666607,
      "v": 72
    },
    {
      "midi": 46,
      "hit": false,
      "t": 127384.2119999993,
      "d": 153.8456666666607,
      "v": 79
    },
    {
      "midi": 65,
      "hit": false,
      "t": 127384.21200000118,
      "d": 1367.3033624999807,
      "v": 72
    },
    {
      "midi": 74,
      "hit": false,
      "t": 127403.4427083345,
      "d": 1346.1495833333174,
      "v": 72
    },
    {
      "midi": 77,
      "hit": false,
      "t": 127422.67341666784,
      "d": 1334.6111583333259,
      "v": 78
    },
    {
      "midi": 86,
      "hit": false,
      "t": 127441.90412500117,
      "d": 1311.5343083333282,
      "v": 73
    },
    {
      "midi": 58,
      "hit": false,
      "t": 127538.05766666596,
      "d": 153.8456666666607,
      "v": 72
    },
    {
      "midi": 62,
      "hit": false,
      "t": 127538.05766666596,
      "d": 153.8456666666607,
      "v": 72
    },
    {
      "midi": 53,
      "hit": false,
      "t": 127691.90333333262,
      "d": 153.8456666666607,
      "v": 75
    },
    {
      "midi": 46,
      "hit": false,
      "t": 127845.74899999928,
      "d": 153.8456666666607,
      "v": 73
    },
    {
      "midi": 58,
      "hit": false,
      "t": 127999.59466666594,
      "d": 153.8456666666607,
      "v": 70
    },
    {
      "midi": 62,
      "hit": false,
      "t": 127999.59466666594,
      "d": 153.8456666666607,
      "v": 67
    },
    {
      "midi": 53,
      "hit": false,
      "t": 128153.4403333326,
      "d": 153.8456666666607,
      "v": 69
    },
    {
      "midi": 46,
      "hit": false,
      "t": 128307.28599999927,
      "d": 153.8456666666607,
      "v": 69
    },
    {
      "midi": 58,
      "hit": false,
      "t": 128461.13166666593,
      "d": 153.8456666666607,
      "v": 75
    },
    {
      "midi": 62,
      "hit": false,
      "t": 128461.13166666593,
      "d": 153.8456666666607,
      "v": 75
    },
    {
      "midi": 53,
      "hit": false,
      "t": 128614.97733333259,
      "d": 153.8456666666607,
      "v": 71
    },
    {
      "midi": 46,
      "hit": false,
      "t": 128768.82299999925,
      "d": 153.8456666666607,
      "v": 72
    },
    {
      "midi": 74,
      "hit": false,
      "t": 128768.82300000117,
      "d": 449.9985749999905,
      "v": 71
    },
    {
      "midi": 77,
      "hit": false,
      "t": 128788.0537083345,
      "d": 430.7678666666616,
      "v": 74
    },
    {
      "midi": 86,
      "hit": false,
      "t": 128807.28441666783,
      "d": 176.9225166666729,
      "v": 75
    },
    {
      "midi": 58,
      "hit": false,
      "t": 128922.66866666591,
      "d": 153.8456666666607,
      "v": 70
    },
    {
      "midi": 62,
      "hit": false,
      "t": 128922.66866666591,
      "d": 153.8456666666607,
      "v": 70
    },
    {
      "midi": 82,
      "hit": false,
      "t": 128999.59150000116,
      "d": 211.5377916666621,
      "v": 75
    },
    {
      "midi": 86,
      "hit": false,
      "t": 128999.59150000116,
      "d": 215.3839333333308,
      "v": 67
    },
    {
      "midi": 53,
      "hit": false,
      "t": 129076.51433333257,
      "d": 153.8456666666607,
      "v": 67
    },
    {
      "midi": 43,
      "hit": false,
      "t": 129230.35999999923,
      "d": 153.8456666666607,
      "v": 76
    },
    {
      "midi": 74,
      "hit": false,
      "t": 129230.36000000116,
      "d": 909.6125041666528,
      "v": 79
    },
    {
      "midi": 79,
      "hit": false,
      "t": 129249.5907083345,
      "d": 892.3048666666582,
      "v": 76
    },
    {
      "midi": 83,
      "hit": false,
      "t": 129268.82141666782,
      "d": 873.0741583333293,
      "v": 71
    },
    {
      "midi": 91,
      "hit": false,
      "t": 129288.05212500115,
      "d": 623.0749499999947,
      "v": 72
    },
    {
      "midi": 59,
      "hit": false,
      "t": 129384.20566666589,
      "d": 153.8456666666607,
      "v": 68
    },
    {
      "midi": 62,
      "hit": false,
      "t": 129384.20566666589,
      "d": 153.8456666666607,
      "v": 68
    },
    {
      "midi": 55,
      "hit": false,
      "t": 129538.05133333255,
      "d": 153.8456666666607,
      "v": 73
    },
    {
      "midi": 43,
      "hit": false,
      "t": 129691.89699999921,
      "d": 153.8456666666607,
      "v": 74
    },
    {
      "midi": 59,
      "hit": false,
      "t": 129845.74266666587,
      "d": 153.8456666666607,
      "v": 73
    },
    {
      "midi": 62,
      "hit": false,
      "t": 129845.74266666587,
      "d": 153.8456666666607,
      "v": 70
    },
    {
      "midi": 89,
      "hit": false,
      "t": 129922.66550000115,
      "d": 215.3839333333308,
      "v": 74
    },
    {
      "midi": 55,
      "hit": false,
      "t": 129999.58833333253,
      "d": 153.8456666666607,
      "v": 74
    },
    {
      "midi": 48,
      "hit": false,
      "t": 130153.4339999992,
      "d": 153.8456666666607,
      "v": 75
    },
    {
      "midi": 79,
      "hit": false,
      "t": 130153.43400000116,
      "d": 442.3062916666531,
      "v": 76
    },
    {
      "midi": 72,
      "hit": false,
      "t": 130172.66470833449,
      "d": 423.0755833333242,
      "v": 70
    },
    {
      "midi": 89,
      "hit": false,
      "t": 130191.89541666782,
      "d": 176.9225166666729,
      "v": 69
    },
    {
      "midi": 60,
      "hit": false,
      "t": 130307.27966666585,
      "d": 153.8456666666607,
      "v": 72
    },
    {
      "midi": 63,
      "hit": false,
      "t": 130307.27966666585,
      "d": 153.8456666666607,
      "v": 68
    },
    {
      "midi": 87,
      "hit": false,
      "t": 130384.20250000115,
      "d": 219.2300749999995,
      "v": 67
    },
    {
      "midi": 55,
      "hit": false,
      "t": 130461.12533333251,
      "d": 153.8456666666607,
      "v": 70
    },
    {
      "midi": 48,
      "hit": false,
      "t": 130614.97099999918,
      "d": 153.8456666666607,
      "v": 74
    },
    {
      "midi": 86,
      "hit": false,
      "t": 130614.97100000115,
      "d": 215.3839333333308,
      "v": 73
    },
    {
      "midi": 79,
      "hit": false,
      "t": 130614.97100000115,
      "d": 446.1524333333218,
      "v": 67
    },
    {
      "midi": 75,
      "hit": false,
      "t": 130614.97100000115,
      "d": 448.0755041666562,
      "v": 70
    },
    {
      "midi": 60,
      "hit": false,
      "t": 130768.81666666584,
      "d": 153.8456666666607,
      "v": 72
    },
    {
      "midi": 63,
      "hit": false,
      "t": 130768.81666666584,
      "d": 153.8456666666607,
      "v": 74
    },
    {
      "midi": 84,
      "hit": false,
      "t": 130845.73950000115,
      "d": 213.46086249999644,
      "v": 68
    },
    {
      "midi": 55,
      "hit": false,
      "t": 130922.6623333325,
      "d": 153.8456666666607,
      "v": 75
    },
    {
      "midi": 41,
      "hit": false,
      "t": 131076.50799999916,
      "d": 153.8456666666607,
      "v": 76
    },
    {
      "midi": 65,
      "hit": false,
      "t": 131076.50800000114,
      "d": 903.8432916666789,
      "v": 77
    },
    {
      "midi": 74,
      "hit": false,
      "t": 131076.50800000114,
      "d": 905.7663624999986,
      "v": 78
    },
    {
      "midi": 70,
      "hit": false,
      "t": 131076.50800000114,
      "d": 911.5355749999871,
      "v": 75
    },
    {
      "midi": 82,
      "hit": false,
      "t": 131076.50800000114,
      "d": 1140.3810041666438,
      "v": 73
    },
    {
      "midi": 58,
      "hit": false,
      "t": 131230.35366666582,
      "d": 153.8456666666607,
      "v": 70
    },
    {
      "midi": 62,
      "hit": false,
      "t": 131230.35366666582,
      "d": 153.8456666666607,
      "v": 72
    },
    {
      "midi": 53,
      "hit": false,
      "t": 131384.19933333248,
      "d": 153.8456666666607,
      "v": 73
    },
    {
      "midi": 41,
      "hit": false,
      "t": 131538.04499999914,
      "d": 153.8456666666607,
      "v": 70
    },
    {
      "midi": 58,
      "hit": false,
      "t": 131691.8906666658,
      "d": 153.8456666666607,
      "v": 72
    },
    {
      "midi": 62,
      "hit": false,
      "t": 131691.8906666658,
      "d": 153.8456666666607,
      "v": 70
    },
    {
      "midi": 53,
      "hit": false,
      "t": 131845.73633333246,
      "d": 153.8456666666607,
      "v": 71
    },
    {
      "midi": 41,
      "hit": false,
      "t": 131999.58199999912,
      "d": 153.8456666666607,
      "v": 72
    },
    {
      "midi": 57,
      "hit": false,
      "t": 132153.42766666578,
      "d": 153.8456666666607,
      "v": 74
    },
    {
      "midi": 63,
      "hit": false,
      "t": 132153.42766666578,
      "d": 153.8456666666607,
      "v": 67
    },
    {
      "midi": 84,
      "hit": false,
      "t": 132230.3505000011,
      "d": 219.2300749999995,
      "v": 71
    },
    {
      "midi": 53,
      "hit": false,
      "t": 132307.27333333244,
      "d": 153.8456666666607,
      "v": 74
    },
    {
      "midi": 41,
      "hit": false,
      "t": 132461.1189999991,
      "d": 153.8456666666607,
      "v": 71
    },
    {
      "midi": 69,
      "hit": false,
      "t": 132461.1190000011,
      "d": 442.3062916666968,
      "v": 75
    },
    {
      "midi": 75,
      "hit": false,
      "t": 132480.34970833446,
      "d": 426.9217249999929,
      "v": 68
    },
    {
      "midi": 77,
      "hit": false,
      "t": 132499.5804166678,
      "d": 405.7679458333296,
      "v": 73
    },
    {
      "midi": 86,
      "hit": false,
      "t": 132518.81112500114,
      "d": 155.7687375000096,
      "v": 75
    },
    {
      "midi": 57,
      "hit": false,
      "t": 132614.96466666576,
      "d": 153.8456666666607,
      "v": 70
    },
    {
      "midi": 63,
      "hit": false,
      "t": 132614.96466666576,
      "d": 153.8456666666607,
      "v": 75
    },
    {
      "midi": 84,
      "hit": false,
      "t": 132691.88750000115,
      "d": 211.5377916666621,
      "v": 71
    },
    {
      "midi": 53,
      "hit": false,
      "t": 132768.81033333243,
      "d": 153.8456666666607,
      "v": 74
    },
    {
      "midi": 46,
      "hit": false,
      "t": 132922.6559999991,
      "d": 448.0755041666562,
      "v": 98
    },
    {
      "midi": 53,
      "hit": false,
      "t": 132922.6559999991,
      "d": 448.0755041666562,
      "v": 92
    },
    {
      "midi": 58,
      "hit": false,
      "t": 132922.6559999991,
      "d": 449.998574999976,
      "v": 95
    },
    {
      "midi": 74,
      "hit": false,
      "t": 132922.65600000112,
      "d": 136.5380291666661,
      "v": 98
    },
    {
      "midi": 82,
      "hit": false,
      "t": 132922.65600000112,
      "d": 136.5380291666661,
      "v": 94
    },
    {
      "midi": 70,
      "hit": false,
      "t": 132922.65600000112,
      "d": 140.3841708333348,
      "v": 93
    },
    {
      "midi": 62,
      "hit": false,
      "t": 133076.50166666778,
      "d": 138.4610999999859,
      "v": 89
    },
    {
      "midi": 74,
      "hit": false,
      "t": 133230.34733333444,
      "d": 134.6149583333463,
      "v": 91
    },
    {
      "midi": 50,
      "hit": false,
      "t": 133384.19299999907,
      "d": 140.3841708333348,
      "v": 92
    },
    {
      "midi": 74,
      "hit": false,
      "t": 133384.19300000113,
      "d": 142.3072416666546,
      "v": 89
    },
    {
      "midi": 62,
      "hit": false,
      "t": 133538.03866666573,
      "d": 142.3072416666546,
      "v": 87
    },
    {
      "midi": 86,
      "hit": false,
      "t": 133538.03866666777,
      "d": 136.5380291666661,
      "v": 88
    },
    {
      "midi": 50,
      "hit": false,
      "t": 133691.8843333324,
      "d": 138.4610999999859,
      "v": 95
    },
    {
      "midi": 86,
      "hit": false,
      "t": 133691.88433333443,
      "d": 138.4610999999859,
      "v": 93
    },
    {
      "midi": 62,
      "hit": false,
      "t": 133845.72999999905,
      "d": 136.5380291666661,
      "v": 92
    },
    {
      "midi": 98,
      "hit": false,
      "t": 133845.7300000011,
      "d": 138.4610999999859,
      "v": 97
    },
    {
      "midi": 50,
      "hit": false,
      "t": 133999.5756666657,
      "d": 136.5380291666661,
      "v": 89
    },
    {
      "midi": 86,
      "hit": false,
      "t": 133999.57566666775,
      "d": 140.3841708333348,
      "v": 95
    },
    {
      "midi": 62,
      "hit": false,
      "t": 134153.42133333237,
      "d": 140.3841708333348,
      "v": 94
    },
    {
      "midi": 86,
      "hit": false,
      "t": 134153.4213333344,
      "d": 138.4610999999859,
      "v": 93
    },
    {
      "midi": 47,
      "hit": false,
      "t": 134307.26699999903,
      "d": 442.3062916666968,
      "v": 91
    },
    {
      "midi": 59,
      "hit": false,
      "t": 134307.26699999903,
      "d": 442.3062916666968,
      "v": 93
    },
    {
      "midi": 50,
      "hit": false,
      "t": 134307.26699999903,
      "d": 444.2293625000166,
      "v": 98
    },
    {
      "midi": 74,
      "hit": false,
      "t": 134307.26700000107,
      "d": 138.461100000015,
      "v": 94
    },
    {
      "midi": 74,
      "hit": false,
      "t": 134461.11266666776,
      "d": 140.3841708333348,
      "v": 87
    },
    {
      "midi": 62,
      "hit": false,
      "t": 134614.95833333442,
      "d": 134.6149583333463,
      "v": 95
    },
    {
      "midi": 48,
      "hit": false,
      "t": 134768.80399999904,
      "d": 905.7663624999986,
      "v": 95
    },
    {
      "midi": 51,
      "hit": false,
      "t": 134768.80399999904,
      "d": 905.7663624999986,
      "v": 101
    },
    {
      "midi": 60,
      "hit": false,
      "t": 134768.80399999904,
      "d": 907.6894333333184,
      "v": 96
    },
    {
      "midi": 75,
      "hit": false,
      "t": 134768.80400000108,
      "d": 905.7663624999695,
      "v": 91
    },
    {
      "midi": 63,
      "hit": false,
      "t": 134768.80400000108,
      "d": 909.6125041666382,
      "v": 91
    },
    {
      "midi": 62,
      "hit": false,
      "t": 134922.64966666774,
      "d": 142.3072416666546,
      "v": 94
    },
    {
      "midi": 62,
      "hit": false,
      "t": 135076.4953333344,
      "d": 138.4610999999859,
      "v": 94
    },
    {
      "midi": 58,
      "hit": false,
      "t": 135230.34100000106,
      "d": 140.3841708333348,
      "v": 94
    },
    {
      "midi": 60,
      "hit": false,
      "t": 135230.34100000106,
      "d": 142.3072416666546,
      "v": 89
    },
    {
      "midi": 62,
      "hit": false,
      "t": 135384.18666666772,
      "d": 142.3072416666546,
      "v": 89
    },
    {
      "midi": 62,
      "hit": false,
      "t": 135538.03233333438,
      "d": 140.3841708333348,
      "v": 92
    },
    {
      "midi": 45,
      "hit": false,
      "t": 135691.87799999904,
      "d": 903.8432916666789,
      "v": 96
    },
    {
      "midi": 51,
      "hit": false,
      "t": 135691.87799999904,
      "d": 907.6894333333476,
      "v": 92
    },
    {
      "midi": 57,
      "hit": false,
      "t": 135691.87799999904,
      "d": 907.6894333333476,
      "v": 95
    },
    {
      "midi": 75,
      "hit": false,
      "t": 135691.87800000104,
      "d": 673.0747916666442,
      "v": 94
    },
    {
      "midi": 62,
      "hit": false,
      "t": 135845.7236666677,
      "d": 138.4610999999859,
      "v": 89
    },
    {
      "midi": 62,
      "hit": false,
      "t": 135999.56933333437,
      "d": 142.3072416666546,
      "v": 90
    },
    {
      "midi": 60,
      "hit": false,
      "t": 136153.41500000103,
      "d": 140.3841708333348,
      "v": 90
    },
    {
      "midi": 58,
      "hit": false,
      "t": 136153.41500000103,
      "d": 142.3072416666546,
      "v": 90
    },
    {
      "midi": 63,
      "hit": false,
      "t": 136307.2606666677,
      "d": 63.461337499989895,
      "v": 91
    },
    {
      "midi": 62,
      "hit": false,
      "t": 136307.2606666677,
      "d": 294.2298374999955,
      "v": 91
    },
    {
      "midi": 63,
      "hit": false,
      "t": 136461.10633333435,
      "d": 59.615195833321195,
      "v": 94
    },
    {
      "midi": 75,
      "hit": false,
      "t": 136461.10633333435,
      "d": 142.3072416666546,
      "v": 95
    },
    {
      "midi": 51,
      "hit": false,
      "t": 136614.95199999906,
      "d": 211.5377916666621,
      "v": 95
    },
    {
      "midi": 42,
      "hit": false,
      "t": 136614.95199999906,
      "d": 903.8432916666789,
      "v": 101
    },
    {
      "midi": 54,
      "hit": false,
      "t": 136614.95199999906,
      "d": 909.6125041666673,
      "v": 95
    },
    {
      "midi": 75,
      "hit": false,
      "t": 136614.952000001,
      "d": 138.4610999999859,
      "v": 94
    },
    {
      "midi": 62,
      "hit": false,
      "t": 136614.952000001,
      "d": 142.3072416666546,
      "v": 95
    },
    {
      "midi": 62,
      "hit": false,
      "t": 136768.79766666767,
      "d": 59.615195833321195,
      "v": 87
    },
    {
      "midi": 50,
      "hit": false,
      "t": 136845.72049999906,
      "d": 217.3070041666797,
      "v": 88
    },
    {
      "midi": 74,
      "hit": false,
      "t": 136922.64333333433,
      "d": 140.3841708333348,
      "v": 88
    },
    {
      "midi": 50,
      "hit": false,
      "t": 137076.48899999907,
      "d": 142.3072416666546,
      "v": 94
    },
    {
      "midi": 74,
      "hit": false,
      "t": 137076.489000001,
      "d": 448.0755041666562,
      "v": 92
    },
    {
      "midi": 60,
      "hit": false,
      "t": 137230.33466666573,
      "d": 138.4610999999859,
      "v": 94
    },
    {
      "midi": 86,
      "hit": false,
      "t": 137230.33466666765,
      "d": 140.3841708333348,
      "v": 87
    },
    {
      "midi": 50,
      "hit": false,
      "t": 137384.1803333324,
      "d": 136.5380291666661,
      "v": 94
    },
    {
      "midi": 86,
      "hit": false,
      "t": 137384.1803333343,
      "d": 142.3072416666546,
      "v": 92
    },
    {
      "midi": 62,
      "hit": false,
      "t": 137538.02599999905,
      "d": 142.3072416666546,
      "v": 92
    },
    {
      "midi": 98,
      "hit": false,
      "t": 137538.02600000097,
      "d": 138.4610999999859,
      "v": 96
    },
    {
      "midi": 50,
      "hit": false,
      "t": 137691.8716666657,
      "d": 140.3841708333348,
      "v": 90
    },
    {
      "midi": 86,
      "hit": false,
      "t": 137691.87166666763,
      "d": 136.5380291666661,
      "v": 91
    },
    {
      "midi": 62,
      "hit": false,
      "t": 137845.71733333237,
      "d": 136.5380291666661,
      "v": 94
    },
    {
      "midi": 86,
      "hit": false,
      "t": 137845.7173333343,
      "d": 138.4610999999859,
      "v": 88
    },
    {
      "midi": 47,
      "hit": false,
      "t": 137999.56299999903,
      "d": 442.3062916666677,
      "v": 94
    },
    {
      "midi": 50,
      "hit": false,
      "t": 137999.56299999903,
      "d": 442.3062916666677,
      "v": 92
    },
    {
      "midi": 59,
      "hit": false,
      "t": 137999.56299999903,
      "d": 444.2293624999875,
      "v": 91
    },
    {
      "midi": 74,
      "hit": false,
      "t": 137999.56300000096,
      "d": 444.2293624999875,
      "v": 92
    },
    {
      "midi": 62,
      "hit": false,
      "t": 138307.25433333428,
      "d": 142.3072416666546,
      "v": 94
    },
    {
      "midi": 48,
      "hit": false,
      "t": 138461.09999999902,
      "d": 907.6894333333476,
      "v": 97
    },
    {
      "midi": 51,
      "hit": false,
      "t": 138461.09999999902,
      "d": 907.6894333333476,
      "v": 91
    },
    {
      "midi": 60,
      "hit": false,
      "t": 138461.09999999902,
      "d": 907.6894333333476,
      "v": 93
    },
    {
      "midi": 63,
      "hit": false,
      "t": 138461.10000000094,
      "d": 903.8432916666206,
      "v": 94
    },
    {
      "midi": 75,
      "hit": false,
      "t": 138461.10000000094,
      "d": 903.8432916666206,
      "v": 95
    },
    {
      "midi": 62,
      "hit": false,
      "t": 138614.9456666676,
      "d": 140.3841708333348,
      "v": 87
    },
    {
      "midi": 62,
      "hit": false,
      "t": 138768.79133333426,
      "d": 140.3841708333348,
      "v": 92
    },
    {
      "midi": 60,
      "hit": false,
      "t": 138922.63700000092,
      "d": 138.4610999999859,
      "v": 89
    },
    {
      "midi": 58,
      "hit": false,
      "t": 138922.63700000092,
      "d": 140.3841708333057,
      "v": 88
    },
    {
      "midi": 62,
      "hit": false,
      "t": 139076.48266666755,
      "d": 142.3072416666546,
      "v": 94
    },
    {
      "midi": 62,
      "hit": false,
      "t": 139230.3283333342,
      "d": 142.3072416666837,
      "v": 87
    },
    {
      "midi": 45,
      "hit": false,
      "t": 139384.17399999904,
      "d": 907.6894333333476,
      "v": 94
    },
    {
      "midi": 57,
      "hit": false,
      "t": 139384.17399999904,
      "d": 907.6894333333476,
      "v": 94
    },
    {
      "midi": 51,
      "hit": false,
      "t": 139384.17399999904,
      "d": 911.5355750000163,
      "v": 89
    },
    {
      "midi": 75,
      "hit": false,
      "t": 139384.1740000009,
      "d": 676.920933333342,
      "v": 97
    },
    {
      "midi": 62,
      "hit": false,
      "t": 139538.01966666756,
      "d": 138.4610999999859,
      "v": 93
    },
    {
      "midi": 62,
      "hit": false,
      "t": 139691.86533333422,
      "d": 134.6149583333463,
      "v": 88
    },
    {
      "midi": 58,
      "hit": false,
      "t": 139845.7110000009,
      "d": 142.3072416666546,
      "v": 95
    },
    {
      "midi": 60,
      "hit": false,
      "t": 139845.7110000009,
      "d": 142.3072416666546,
      "v": 88
    },
    {
      "midi": 63,
      "hit": false,
      "t": 139999.55666666757,
      "d": 61.5382666666701,
      "v": 92
    },
    {
      "midi": 62,
      "hit": false,
      "t": 139999.55666666757,
      "d": 136.5380291666661,
      "v": 89
    },
    {
      "midi": 63,
      "hit": false,
      "t": 140153.40233333423,
      "d": 134.6149583333463,
      "v": 93
    },
    {
      "midi": 75,
      "hit": false,
      "t": 140153.40233333423,
      "d": 142.3072416666837,
      "v": 94
    },
    {
      "midi": 54,
      "hit": false,
      "t": 140307.24799999906,
      "d": 444.2293624999875,
      "v": 94
    },
    {
      "midi": 50,
      "hit": false,
      "t": 140307.24799999906,
      "d": 446.1524333333073,
      "v": 98
    },
    {
      "midi": 42,
      "hit": false,
      "t": 140307.24799999906,
      "d": 449.998574999976,
      "v": 99
    },
    {
      "midi": 62,
      "hit": false,
      "t": 140307.24800000092,
      "d": 142.3072416666546,
      "v": 93
    },
    {
      "midi": 74,
      "hit": false,
      "t": 140461.09366666758,
      "d": 134.6149583333463,
      "v": 91
    },
    {
      "midi": 74,
      "hit": false,
      "t": 140614.93933333427,
      "d": 134.6149583333463,
      "v": 89
    },
    {
      "midi": 62,
      "hit": false,
      "t": 140768.78499999904,
      "d": 138.461100000015,
      "v": 93
    },
    {
      "midi": 86,
      "hit": false,
      "t": 140768.78500000096,
      "d": 142.3072416666837,
      "v": 88
    },
    {
      "midi": 62,
      "hit": false,
      "t": 140922.63066666573,
      "d": 140.3841708333348,
      "v": 87
    },
    {
      "midi": 86,
      "hit": false,
      "t": 140922.63066666765,
      "d": 136.5380291666661,
      "v": 93
    },
    {
      "midi": 62,
      "hit": false,
      "t": 141076.4763333324,
      "d": 134.6149583333172,
      "v": 92
    },
    {
      "midi": 98,
      "hit": false,
      "t": 141076.4763333343,
      "d": 140.3841708333348,
      "v": 93
    },
    {
      "midi": 62,
      "hit": false,
      "t": 141230.32199999905,
      "d": 140.3841708333348,
      "v": 90
    },
    {
      "midi": 86,
      "hit": false,
      "t": 141230.32200000098,
      "d": 134.6149583333172,
      "v": 92
    },
    {
      "midi": 62,
      "hit": false,
      "t": 141384.16766666571,
      "d": 138.4610999999859,
      "v": 92
    },
    {
      "midi": 84,
      "hit": false,
      "t": 141384.1676666676,
      "d": 136.5380291666661,
      "v": 90
    },
    {
      "midi": 62,
      "hit": false,
      "t": 141538.01333333238,
      "d": 142.3072416666837,
      "v": 93
    },
    {
      "midi": 74,
      "hit": false,
      "t": 141538.01333333427,
      "d": 134.6149583333463,
      "v": 87
    },
    {
      "midi": 69,
      "hit": false,
      "t": 141691.85899999904,
      "d": 444.2293624999875,
      "v": 82
    },
    {
      "midi": 54,
      "hit": false,
      "t": 141691.85899999904,
      "d": 446.1524333333073,
      "v": 85
    },
    {
      "midi": 74,
      "hit": false,
      "t": 141691.85900000093,
      "d": 134.6149583333463,
      "v": 85
    },
    {
      "midi": 62,
      "hit": false,
      "t": 141845.70466666762,
      "d": 136.5380291666661,
      "v": 85
    },
    {
      "midi": 74,
      "hit": false,
      "t": 141999.55033333428,
      "d": 132.6918874999974,
      "v": 80
    },
    {
      "midi": 70,
      "hit": false,
      "t": 142153.39599999902,
      "d": 446.1524333333364,
      "v": 82
    },
    {
      "midi": 55,
      "hit": false,
      "t": 142153.39599999902,
      "d": 448.0755041666562,
      "v": 85
    },
    {
      "midi": 62,
      "hit": false,
      "t": 142153.39600000094,
      "d": 136.5380291666661,
      "v": 89
    },
    {
      "midi": 74,
      "hit": false,
      "t": 142307.2416666676,
      "d": 138.4610999999859,
      "v": 79
    },
    {
      "midi": 62,
      "hit": false,
      "t": 142461.08733333426,
      "d": 140.3841708333348,
      "v": 83
    },
    {
      "midi": 54,
      "hit": false,
      "t": 142614.932999999,
      "d": 442.3062916666677,
      "v": 85
    },
    {
      "midi": 69,
      "hit": false,
      "t": 142614.932999999,
      "d": 449.9985750000051,
      "v": 85
    },
    {
      "midi": 74,
      "hit": false,
      "t": 142614.93300000092,
      "d": 136.5380291666661,
      "v": 82
    },
    {
      "midi": 62,
      "hit": false,
      "t": 142768.77866666758,
      "d": 138.4610999999859,
      "v": 80
    },
    {
      "midi": 74,
      "hit": false,
      "t": 142922.62433333424,
      "d": 134.6149583333463,
      "v": 84
    },
    {
      "midi": 55,
      "hit": false,
      "t": 143076.469999999,
      "d": 442.3062916666677,
      "v": 82
    },
    {
      "midi": 70,
      "hit": false,
      "t": 143076.469999999,
      "d": 444.2293624999875,
      "v": 84
    },
    {
      "midi": 62,
      "hit": false,
      "t": 143076.47000000093,
      "d": 142.3072416666546,
      "v": 83
    },
    {
      "midi": 74,
      "hit": false,
      "t": 143230.3156666676,
      "d": 136.5380291666661,
      "v": 85
    },
    {
      "midi": 62,
      "hit": false,
      "t": 143384.16133333425,
      "d": 136.5380291666661,
      "v": 78
    },
    {
      "midi": 71,
      "hit": false,
      "t": 143538.006999999,
      "d": 442.3062916666677,
      "v": 79
    },
    {
      "midi": 56,
      "hit": false,
      "t": 143538.006999999,
      "d": 444.2293624999875,
      "v": 80
    },
    {
      "midi": 74,
      "hit": false,
      "t": 143538.00700000091,
      "d": 142.3072416666546,
      "v": 82
    },
    {
      "midi": 62,
      "hit": false,
      "t": 143691.85266666758,
      "d": 138.4610999999859,
      "v": 84
    },
    {
      "midi": 74,
      "hit": false,
      "t": 143845.69833333424,
      "d": 138.4610999999859,
      "v": 81
    },
    {
      "midi": 57,
      "hit": false,
      "t": 143999.54399999898,
      "d": 923.0739999999932,
      "v": 88
    },
    {
      "midi": 72,
      "hit": false,
      "t": 143999.54399999898,
      "d": 923.0739999999932,
      "v": 87
    },
    {
      "midi": 62,
      "hit": false,
      "t": 143999.5440000009,
      "d": 142.3072416666546,
      "v": 84
    },
    {
      "midi": 74,
      "hit": false,
      "t": 144153.38966666756,
      "d": 138.4610999999859,
      "v": 79
    },
    {
      "midi": 62,
      "hit": false,
      "t": 144307.23533333422,
      "d": 136.5380291666661,
      "v": 85
    },
    {
      "midi": 74,
      "hit": false,
      "t": 144461.08100000088,
      "d": 136.5380291666661,
      "v": 82
    },
    {
      "midi": 62,
      "hit": false,
      "t": 144614.92666666754,
      "d": 136.5380291666661,
      "v": 77
    },
    {
      "midi": 74,
      "hit": false,
      "t": 144768.7723333342,
      "d": 140.3841708333348,
      "v": 82
    },
    {
      "midi": 58,
      "hit": false,
      "t": 144922.61799999897,
      "d": 673.0747916666733,
      "v": 79
    },
    {
      "midi": 73,
      "hit": false,
      "t": 144922.61799999897,
      "d": 678.8440041666618,
      "v": 85
    },
    {
      "midi": 62,
      "hit": false,
      "t": 144922.61800000086,
      "d": 140.3841708333348,
      "v": 86
    },
    {
      "midi": 74,
      "hit": false,
      "t": 145076.46366666752,
      "d": 140.3841708333348,
      "v": 82
    },
    {
      "midi": 62,
      "hit": false,
      "t": 145230.30933333418,
      "d": 140.3841708333348,
      "v": 81
    },
    {
      "midi": 74,
      "hit": false,
      "t": 145384.15500000084,
      "d": 138.4610999999859,
      "v": 85
    },
    {
      "midi": 62,
      "hit": false,
      "t": 145538.0006666675,
      "d": 138.4610999999859,
      "v": 77
    },
    {
      "midi": 73,
      "hit": false,
      "t": 145691.8463333323,
      "d": 140.3841708333348,
      "v": 77
    },
    {
      "midi": 58,
      "hit": false,
      "t": 145691.8463333323,
      "d": 142.3072416666546,
      "v": 80
    },
    {
      "midi": 74,
      "hit": false,
      "t": 145691.84633333416,
      "d": 134.6149583333463,
      "v": 83
    },
    {
      "midi": 74,
      "hit": false,
      "t": 145845.69199999896,
      "d": 444.2293625000457,
      "v": 87
    },
    {
      "midi": 59,
      "hit": false,
      "t": 145845.69199999896,
      "d": 2296.146575000108,
      "v": 81
    },
    {
      "midi": 62,
      "hit": false,
      "t": 145999.53766666754,
      "d": 138.4610999999859,
      "v": 83
    },
    {
      "midi": 74,
      "hit": false,
      "t": 145999.53766666754,
      "d": 138.4610999999859,
      "v": 82
    },
    {
      "midi": 62,
      "hit": false,
      "t": 146153.38333333418,
      "d": 142.3072416666546,
      "v": 78
    },
    {
      "midi": 74,
      "hit": false,
      "t": 146153.38333333418,
      "d": 142.3072416666546,
      "v": 79
    },
    {
      "midi": 62,
      "hit": false,
      "t": 146307.22900000084,
      "d": 134.6149583333172,
      "v": 85
    },
    {
      "midi": 74,
      "hit": false,
      "t": 146307.22900000084,
      "d": 134.6149583333172,
      "v": 79
    },
    {
      "midi": 74,
      "hit": false,
      "t": 146461.07466666747,
      "d": 134.6149583333172,
      "v": 78
    },
    {
      "midi": 62,
      "hit": false,
      "t": 146461.07466666747,
      "d": 136.538029166637,
      "v": 78
    },
    {
      "midi": 74,
      "hit": false,
      "t": 146614.9203333341,
      "d": 136.5380291666661,
      "v": 80
    },
    {
      "midi": 62,
      "hit": false,
      "t": 146614.9203333341,
      "d": 142.3072416666546,
      "v": 78
    },
    {
      "midi": 62,
      "hit": false,
      "t": 146768.76600000073,
      "d": 138.461100000015,
      "v": 87
    },
    {
      "midi": 74,
      "hit": false,
      "t": 146768.76600000073,
      "d": 142.3072416666837,
      "v": 84
    },
    {
      "midi": 62,
      "hit": false,
      "t": 146922.61166666742,
      "d": 136.5380291666661,
      "v": 77
    },
    {
      "midi": 74,
      "hit": false,
      "t": 146922.61166666742,
      "d": 138.4610999999859,
      "v": 85
    },
    {
      "midi": 62,
      "hit": false,
      "t": 147076.45733333405,
      "d": 138.4610999999859,
      "v": 81
    },
    {
      "midi": 74,
      "hit": false,
      "t": 147076.45733333405,
      "d": 142.3072416666546,
      "v": 83
    },
    {
      "midi": 74,
      "hit": false,
      "t": 147230.3030000007,
      "d": 134.6149583333172,
      "v": 79
    },
    {
      "midi": 62,
      "hit": false,
      "t": 147230.3030000007,
      "d": 142.3072416666546,
      "v": 78
    },
    {
      "midi": 74,
      "hit": false,
      "t": 147384.14866666734,
      "d": 138.4610999999859,
      "v": 82
    },
    {
      "midi": 62,
      "hit": false,
      "t": 147384.14866666734,
      "d": 140.3841708333057,
      "v": 80
    },
    {
      "midi": 62,
      "hit": false,
      "t": 147537.99433333398,
      "d": 136.5380291666661,
      "v": 84
    },
    {
      "midi": 74,
      "hit": false,
      "t": 147537.99433333398,
      "d": 142.3072416666546,
      "v": 79
    },
    {
      "midi": 74,
      "hit": false,
      "t": 147691.8400000006,
      "d": 134.6149583333463,
      "v": 81
    },
    {
      "midi": 62,
      "hit": false,
      "t": 147691.8400000006,
      "d": 138.461100000015,
      "v": 81
    },
    {
      "midi": 74,
      "hit": false,
      "t": 147845.6856666673,
      "d": 134.6149583333463,
      "v": 84
    },
    {
      "midi": 62,
      "hit": false,
      "t": 147845.6856666673,
      "d": 136.5380291666661,
      "v": 79
    },
    {
      "midi": 74,
      "hit": false,
      "t": 147999.53133333396,
      "d": 136.5380291666661,
      "v": 82
    },
    {
      "midi": 62,
      "hit": false,
      "t": 147999.53133333396,
      "d": 142.3072416666546,
      "v": 77
    },
    {
      "midi": 52,
      "hit": false,
      "t": 148153.37699999908,
      "d": 215.3839333333308,
      "v": 83
    },
    {
      "midi": 73,
      "hit": false,
      "t": 148153.37700000062,
      "d": 134.6149583333463,
      "v": 83
    },
    {
      "midi": 64,
      "hit": false,
      "t": 148153.37700000062,
      "d": 140.3841708333348,
      "v": 79
    },
    {
      "midi": 67,
      "hit": false,
      "t": 148153.37700000062,
      "d": 142.3072416666546,
      "v": 77
    },
    {
      "midi": 64,
      "hit": false,
      "t": 148307.22266666728,
      "d": 140.3841708333348,
      "v": 79
    },
    {
      "midi": 67,
      "hit": false,
      "t": 148307.22266666728,
      "d": 140.3841708333348,
      "v": 80
    },
    {
      "midi": 73,
      "hit": false,
      "t": 148307.22266666728,
      "d": 140.3841708333348,
      "v": 79
    },
    {
      "midi": 64,
      "hit": false,
      "t": 148461.06833333394,
      "d": 134.6149583333463,
      "v": 85
    },
    {
      "midi": 67,
      "hit": false,
      "t": 148461.06833333394,
      "d": 134.6149583333463,
      "v": 83
    },
    {
      "midi": 73,
      "hit": false,
      "t": 148461.06833333394,
      "d": 140.3841708333348,
      "v": 78
    },
    {
      "midi": 54,
      "hit": false,
      "t": 148614.9139999991,
      "d": 215.3839333333308,
      "v": 87
    },
    {
      "midi": 62,
      "hit": false,
      "t": 148614.9140000006,
      "d": 134.6149583333463,
      "v": 81
    },
    {
      "midi": 71,
      "hit": false,
      "t": 148614.9140000006,
      "d": 138.461100000015,
      "v": 87
    },
    {
      "midi": 66,
      "hit": false,
      "t": 148614.9140000006,
      "d": 140.3841708333348,
      "v": 85
    },
    {
      "midi": 62,
      "hit": false,
      "t": 148768.75966666726,
      "d": 136.5380291666661,
      "v": 84
    },
    {
      "midi": 71,
      "hit": false,
      "t": 148768.75966666726,
      "d": 136.5380291666661,
      "v": 83
    },
    {
      "midi": 66,
      "hit": false,
      "t": 148768.75966666726,
      "d": 140.3841708333348,
      "v": 82
    },
    {
      "midi": 71,
      "hit": false,
      "t": 148922.60533333392,
      "d": 136.5380291666661,
      "v": 79
    },
    {
      "midi": 66,
      "hit": false,
      "t": 148922.60533333392,
      "d": 138.4610999999859,
      "v": 78
    },
    {
      "midi": 62,
      "hit": false,
      "t": 148922.60533333392,
      "d": 142.3072416666546,
      "v": 85
    },
    {
      "midi": 42,
      "hit": false,
      "t": 149076.4509999991,
      "d": 215.3839333333308,
      "v": 79
    },
    {
      "midi": 54,
      "hit": false,
      "t": 149076.4509999991,
      "d": 217.3070041666506,
      "v": 78
    },
    {
      "midi": 61,
      "hit": false,
      "t": 149076.45100000058,
      "d": 142.3072416666546,
      "v": 80
    },
    {
      "midi": 66,
      "hit": false,
      "t": 149076.45100000058,
      "d": 142.3072416666546,
      "v": 79
    },
    {
      "midi": 70,
      "hit": false,
      "t": 149076.45100000058,
      "d": 142.3072416666546,
      "v": 85
    },
    {
      "midi": 70,
      "hit": false,
      "t": 149230.29666666724,
      "d": 138.4610999999859,
      "v": 85
    },
    {
      "midi": 61,
      "hit": false,
      "t": 149230.29666666724,
      "d": 140.3841708333057,
      "v": 83
    },
    {
      "midi": 66,
      "hit": false,
      "t": 149230.29666666724,
      "d": 142.3072416666255,
      "v": 82
    },
    {
      "midi": 70,
      "hit": false,
      "t": 149384.14233333388,
      "d": 136.5380291666661,
      "v": 77
    },
    {
      "midi": 61,
      "hit": false,
      "t": 149384.14233333388,
      "d": 138.4610999999859,
      "v": 83
    },
    {
      "midi": 66,
      "hit": false,
      "t": 149384.14233333388,
      "d": 142.3072416666546,
      "v": 79
    },
    {
      "midi": 59,
      "hit": false,
      "t": 149537.98799999908,
      "d": 446.1524333333364,
      "v": 84
    },
    {
      "midi": 54,
      "hit": false,
      "t": 149537.98799999908,
      "d": 1365.380291666661,
      "v": 82
    },
    {
      "midi": 47,
      "hit": false,
      "t": 149537.98799999908,
      "d": 1828.840362500021,
      "v": 84
    },
    {
      "midi": 62,
      "hit": false,
      "t": 149537.98800000054,
      "d": 138.4610999999859,
      "v": 88
    },
    {
      "midi": 66,
      "hit": false,
      "t": 149537.98800000054,
      "d": 140.3841708333057,
      "v": 84
    },
    {
      "midi": 71,
      "hit": false,
      "t": 149537.98800000054,
      "d": 142.3072416666255,
      "v": 85
    },
    {
      "midi": 62,
      "hit": false,
      "t": 149691.83366666717,
      "d": 134.6149583333463,
      "v": 83
    },
    {
      "midi": 71,
      "hit": false,
      "t": 149691.83366666717,
      "d": 134.6149583333463,
      "v": 80
    },
    {
      "midi": 66,
      "hit": false,
      "t": 149691.83366666717,
      "d": 140.3841708333348,
      "v": 85
    },
    {
      "midi": 62,
      "hit": false,
      "t": 149845.67933333383,
      "d": 136.5380291666661,
      "v": 79
    },
    {
      "midi": 66,
      "hit": false,
      "t": 149845.67933333383,
      "d": 136.5380291666661,
      "v": 82
    },
    {
      "midi": 71,
      "hit": false,
      "t": 149845.67933333383,
      "d": 138.4610999999859,
      "v": 78
    },
    {
      "midi": 59,
      "hit": false,
      "t": 149999.5249999991,
      "d": 444.2293624999875,
      "v": 80
    },
    {
      "midi": 66,
      "hit": false,
      "t": 149999.5250000005,
      "d": 134.6149583333463,
      "v": 85
    },
    {
      "midi": 71,
      "hit": false,
      "t": 149999.5250000005,
      "d": 134.6149583333463,
      "v": 85
    },
    {
      "midi": 62,
      "hit": false,
      "t": 149999.5250000005,
      "d": 138.461100000015,
      "v": 84
    },
    {
      "midi": 66,
      "hit": false,
      "t": 150153.37066666718,
      "d": 136.5380291666661,
      "v": 80
    },
    {
      "midi": 62,
      "hit": false,
      "t": 150153.37066666718,
      "d": 138.4610999999859,
      "v": 80
    },
    {
      "midi": 71,
      "hit": false,
      "t": 150153.37066666718,
      "d": 142.3072416666546,
      "v": 83
    },
    {
      "midi": 62,
      "hit": false,
      "t": 150307.21633333384,
      "d": 134.6149583333463,
      "v": 80
    },
    {
      "midi": 71,
      "hit": false,
      "t": 150307.21633333384,
      "d": 134.6149583333463,
      "v": 83
    },
    {
      "midi": 66,
      "hit": false,
      "t": 150307.21633333384,
      "d": 136.5380291666661,
      "v": 81
    },
    {
      "midi": 66,
      "hit": false,
      "t": 150461.0620000005,
      "d": 134.6149583333463,
      "v": 87
    },
    {
      "midi": 71,
      "hit": false,
      "t": 150461.0620000005,
      "d": 136.5380291666661,
      "v": 85
    },
    {
      "midi": 62,
      "hit": false,
      "t": 150461.0620000005,
      "d": 138.4610999999859,
      "v": 82
    },
    {
      "midi": 62,
      "hit": false,
      "t": 150614.90766666716,
      "d": 134.6149583333463,
      "v": 79
    },
    {
      "midi": 66,
      "hit": false,
      "t": 150614.90766666716,
      "d": 140.3841708333348,
      "v": 81
    },
    {
      "midi": 71,
      "hit": false,
      "t": 150614.90766666716,
      "d": 142.3072416666546,
      "v": 85
    },
    {
      "midi": 62,
      "hit": false,
      "t": 150768.75333333382,
      "d": 136.5380291666661,
      "v": 77
    },
    {
      "midi": 71,
      "hit": false,
      "t": 150768.75333333382,
      "d": 136.5380291666661,
      "v": 79
    },
    {
      "midi": 66,
      "hit": false,
      "t": 150768.75333333382,
      "d": 142.3072416666546,
      "v": 83
    },
    {
      "midi": 54,
      "hit": false,
      "t": 150922.59899999909,
      "d": 217.3070041666797,
      "v": 83
    },
    {
      "midi": 69,
      "hit": false,
      "t": 150922.59900000048,
      "d": 138.4610999999859,
      "v": 83
    },
    {
      "midi": 66,
      "hit": false,
      "t": 150922.59900000048,
      "d": 140.3841708333057,
      "v": 84
    },
    {
      "midi": 63,
      "hit": false,
      "t": 150922.59900000048,
      "d": 142.3072416666255,
      "v": 80
    },
    {
      "midi": 66,
      "hit": false,
      "t": 151076.4446666671,
      "d": 138.4610999999859,
      "v": 80
    },
    {
      "midi": 69,
      "hit": false,
      "t": 151076.4446666671,
      "d": 140.3841708333057,
      "v": 83
    },
    {
      "midi": 63,
      "hit": false,
      "t": 151076.4446666671,
      "d": 142.3072416666255,
      "v": 78
    },
    {
      "midi": 54,
      "hit": false,
      "t": 151153.3674999991,
      "d": 215.3839333333308,
      "v": 83
    },
    {
      "midi": 63,
      "hit": false,
      "t": 151230.29033333375,
      "d": 136.5380291666661,
      "v": 83
    },
    {
      "midi": 66,
      "hit": false,
      "t": 151230.29033333375,
      "d": 140.3841708333348,
      "v": 82
    },
    {
      "midi": 69,
      "hit": false,
      "t": 151230.29033333375,
      "d": 140.3841708333348,
      "v": 80
    },
    {
      "midi": 57,
      "hit": false,
      "t": 151384.1359999991,
      "d": 448.0755041666562,
      "v": 89
    },
    {
      "midi": 47,
      "hit": false,
      "t": 151384.1359999991,
      "d": 2288.454291666654,
      "v": 85
    },
    {
      "midi": 40,
      "hit": false,
      "t": 151384.1359999991,
      "d": 2292.300433333323,
      "v": 81
    },
    {
      "midi": 52,
      "hit": false,
      "t": 151384.1359999991,
      "d": 2292.300433333323,
      "v": 82
    },
    {
      "midi": 64,
      "hit": false,
      "t": 151384.1360000004,
      "d": 138.4610999999859,
      "v": 89
    },
    {
      "midi": 67,
      "hit": false,
      "t": 151384.1360000004,
      "d": 140.3841708333057,
      "v": 87
    },
    {
      "midi": 59,
      "hit": false,
      "t": 151384.1360000004,
      "d": 142.3072416666255,
      "v": 85
    },
    {
      "midi": 59,
      "hit": false,
      "t": 151537.98166666704,
      "d": 134.6149583333463,
      "v": 83
    },
    {
      "midi": 67,
      "hit": false,
      "t": 151537.98166666704,
      "d": 136.5380291666661,
      "v": 77
    },
    {
      "midi": 64,
      "hit": false,
      "t": 151537.98166666704,
      "d": 142.3072416666546,
      "v": 84
    },
    {
      "midi": 59,
      "hit": false,
      "t": 151691.8273333337,
      "d": 140.3841708333348,
      "v": 80
    },
    {
      "midi": 64,
      "hit": false,
      "t": 151691.8273333337,
      "d": 140.3841708333348,
      "v": 83
    },
    {
      "midi": 67,
      "hit": false,
      "t": 151691.8273333337,
      "d": 142.3072416666546,
      "v": 78
    },
    {
      "midi": 55,
      "hit": false,
      "t": 151845.67299999908,
      "d": 219.2300749999995,
      "v": 80
    },
    {
      "midi": 64,
      "hit": false,
      "t": 151845.67300000036,
      "d": 134.6149583333463,
      "v": 77
    },
    {
      "midi": 67,
      "hit": false,
      "t": 151845.67300000036,
      "d": 134.6149583333463,
      "v": 83
    },
    {
      "midi": 59,
      "hit": false,
      "t": 151845.67300000036,
      "d": 142.3072416666837,
      "v": 78
    },
    {
      "midi": 59,
      "hit": false,
      "t": 151999.51866666705,
      "d": 134.6149583333463,
      "v": 81
    },
    {
      "midi": 64,
      "hit": false,
      "t": 151999.51866666705,
      "d": 138.461100000015,
      "v": 79
    },
    {
      "midi": 67,
      "hit": false,
      "t": 151999.51866666705,
      "d": 142.3072416666837,
      "v": 81
    },
    {
      "midi": 55,
      "hit": false,
      "t": 152076.44149999908,
      "d": 215.3839333333308,
      "v": 78
    },
    {
      "midi": 67,
      "hit": false,
      "t": 152153.36433333374,
      "d": 134.6149583333463,
      "v": 79
    },
    {
      "midi": 59,
      "hit": false,
      "t": 152153.36433333374,
      "d": 136.5380291666661,
      "v": 81
    },
    {
      "midi": 64,
      "hit": false,
      "t": 152153.36433333374,
      "d": 140.3841708333348,
      "v": 82
    },
    {
      "midi": 55,
      "hit": false,
      "t": 152307.2099999991,
      "d": 1371.1495041666494,
      "v": 87
    },
    {
      "midi": 67,
      "hit": false,
      "t": 152307.2100000004,
      "d": 136.5380291666661,
      "v": 81
    },
    {
      "midi": 59,
      "hit": false,
      "t": 152307.2100000004,
      "d": 140.3841708333348,
      "v": 82
    },
    {
      "midi": 64,
      "hit": false,
      "t": 152307.2100000004,
      "d": 140.3841708333348,
      "v": 87
    },
    {
      "midi": 59,
      "hit": false,
      "t": 152461.05566666706,
      "d": 134.6149583333463,
      "v": 79
    },
    {
      "midi": 67,
      "hit": false,
      "t": 152461.05566666706,
      "d": 140.3841708333348,
      "v": 84
    },
    {
      "midi": 64,
      "hit": false,
      "t": 152461.05566666706,
      "d": 142.3072416666546,
      "v": 77
    },
    {
      "midi": 59,
      "hit": false,
      "t": 152614.90133333372,
      "d": 134.6149583333463,
      "v": 80
    },
    {
      "midi": 64,
      "hit": false,
      "t": 152614.90133333372,
      "d": 134.6149583333463,
      "v": 85
    },
    {
      "midi": 67,
      "hit": false,
      "t": 152614.90133333372,
      "d": 138.461100000015,
      "v": 83
    },
    {
      "midi": 67,
      "hit": false,
      "t": 152768.7470000004,
      "d": 136.5380291666661,
      "v": 84
    },
    {
      "midi": 59,
      "hit": false,
      "t": 152768.7470000004,
      "d": 140.3841708333348,
      "v": 77
    },
    {
      "midi": 64,
      "hit": false,
      "t": 152768.7470000004,
      "d": 140.3841708333348,
      "v": 79
    },
    {
      "midi": 67,
      "hit": false,
      "t": 152922.59266666707,
      "d": 138.4610999999859,
      "v": 79
    },
    {
      "midi": 64,
      "hit": false,
      "t": 152922.59266666707,
      "d": 140.3841708333057,
      "v": 77
    },
    {
      "midi": 59,
      "hit": false,
      "t": 152922.59266666707,
      "d": 142.3072416666255,
      "v": 85
    },
    {
      "midi": 64,
      "hit": false,
      "t": 153076.4383333337,
      "d": 134.6149583333463,
      "v": 80
    },
    {
      "midi": 59,
      "hit": false,
      "t": 153076.4383333337,
      "d": 138.461100000015,
      "v": 85
    },
    {
      "midi": 67,
      "hit": false,
      "t": 153076.4383333337,
      "d": 140.3841708333348,
      "v": 77
    },
    {
      "midi": 64,
      "hit": false,
      "t": 153230.28400000036,
      "d": 134.6149583333463,
      "v": 88
    },
    {
      "midi": 59,
      "hit": false,
      "t": 153230.28400000036,
      "d": 136.5380291666661,
      "v": 85
    },
    {
      "midi": 67,
      "hit": false,
      "t": 153230.28400000036,
      "d": 136.5380291666661,
      "v": 83
    },
    {
      "midi": 64,
      "hit": false,
      "t": 153384.12966666702,
      "d": 134.6149583333463,
      "v": 82
    },
    {
      "midi": 59,
      "hit": false,
      "t": 153384.12966666702,
      "d": 140.3841708333348,
      "v": 82
    },
    {
      "midi": 67,
      "hit": false,
      "t": 153384.12966666702,
      "d": 142.3072416666546,
      "v": 82
    },
    {
      "midi": 64,
      "hit": false,
      "t": 153537.97533333368,
      "d": 136.5380291666661,
      "v": 85
    },
    {
      "midi": 59,
      "hit": false,
      "t": 153537.97533333368,
      "d": 138.4610999999859,
      "v": 77
    },
    {
      "midi": 67,
      "hit": false,
      "t": 153537.97533333368,
      "d": 142.3072416666546,
      "v": 81
    },
    {
      "midi": 52,
      "hit": false,
      "t": 153691.82099999906,
      "d": 213.460862500011,
      "v": 82
    },
    {
      "midi": 55,
      "hit": false,
      "t": 153691.82099999906,
      "d": 213.460862500011,
      "v": 78
    },
    {
      "midi": 59,
      "hit": false,
      "t": 153691.82100000035,
      "d": 134.6149583333463,
      "v": 82
    },
    {
      "midi": 64,
      "hit": false,
      "t": 153691.82100000035,
      "d": 138.461100000015,
      "v": 84
    },
    {
      "midi": 67,
      "hit": false,
      "t": 153691.82100000035,
      "d": 138.461100000015,
      "v": 80
    },
    {
      "midi": 59,
      "hit": false,
      "t": 153845.66666666704,
      "d": 134.6149583333463,
      "v": 77
    },
    {
      "midi": 64,
      "hit": false,
      "t": 153845.66666666704,
      "d": 134.6149583333463,
      "v": 80
    },
    {
      "midi": 67,
      "hit": false,
      "t": 153845.66666666704,
      "d": 136.5380291666661,
      "v": 83
    },
    {
      "midi": 59,
      "hit": false,
      "t": 153999.5123333337,
      "d": 134.6149583333463,
      "v": 79
    },
    {
      "midi": 64,
      "hit": false,
      "t": 153999.5123333337,
      "d": 136.5380291666661,
      "v": 77
    },
    {
      "midi": 67,
      "hit": false,
      "t": 153999.5123333337,
      "d": 136.5380291666661,
      "v": 81
    },
    {
      "midi": 57,
      "hit": false,
      "t": 154153.35799999908,
      "d": 215.3839333333308,
      "v": 82
    },
    {
      "midi": 48,
      "hit": false,
      "t": 154153.35799999908,
      "d": 217.3070041666506,
      "v": 80
    },
    {
      "midi": 52,
      "hit": false,
      "t": 154153.35799999908,
      "d": 219.23007499997038,
      "v": 81
    },
    {
      "midi": 69,
      "hit": false,
      "t": 154153.35800000036,
      "d": 136.5380291666661,
      "v": 82
    },
    {
      "midi": 64,
      "hit": false,
      "t": 154153.35800000036,
      "d": 138.4610999999859,
      "v": 80
    },
    {
      "midi": 60,
      "hit": false,
      "t": 154153.35800000036,
      "d": 142.3072416666546,
      "v": 82
    },
    {
      "midi": 60,
      "hit": false,
      "t": 154307.20366666702,
      "d": 136.5380291666661,
      "v": 79
    },
    {
      "midi": 64,
      "hit": false,
      "t": 154307.20366666702,
      "d": 138.4610999999859,
      "v": 85
    },
    {
      "midi": 69,
      "hit": false,
      "t": 154307.20366666702,
      "d": 142.3072416666546,
      "v": 83
    },
    {
      "midi": 69,
      "hit": false,
      "t": 154461.04933333368,
      "d": 134.6149583333463,
      "v": 83
    },
    {
      "midi": 60,
      "hit": false,
      "t": 154461.04933333368,
      "d": 140.3841708333348,
      "v": 83
    },
    {
      "midi": 64,
      "hit": false,
      "t": 154461.04933333368,
      "d": 140.3841708333348,
      "v": 78
    },
    {
      "midi": 52,
      "hit": false,
      "t": 154614.89499999906,
      "d": 211.5377916666621,
      "v": 79
    },
    {
      "midi": 48,
      "hit": false,
      "t": 154614.89499999906,
      "d": 213.46086249998189,
      "v": 79
    },
    {
      "midi": 57,
      "hit": false,
      "t": 154614.89499999906,
      "d": 219.23007499997038,
      "v": 85
    },
    {
      "midi": 60,
      "hit": false,
      "t": 154614.89500000034,
      "d": 134.6149583333463,
      "v": 83
    },
    {
      "midi": 64,
      "hit": false,
      "t": 154614.89500000034,
      "d": 134.6149583333463,
      "v": 85
    },
    {
      "midi": 69,
      "hit": false,
      "t": 154614.89500000034,
      "d": 140.3841708333348,
      "v": 84
    },
    {
      "midi": 60,
      "hit": false,
      "t": 154768.740666667,
      "d": 138.4610999999859,
      "v": 82
    },
    {
      "midi": 64,
      "hit": false,
      "t": 154768.740666667,
      "d": 138.4610999999859,
      "v": 81
    },
    {
      "midi": 69,
      "hit": false,
      "t": 154768.740666667,
      "d": 138.4610999999859,
      "v": 83
    },
    {
      "midi": 60,
      "hit": false,
      "t": 154922.58633333366,
      "d": 134.6149583333463,
      "v": 78
    },
    {
      "midi": 64,
      "hit": false,
      "t": 154922.58633333366,
      "d": 140.3841708333348,
      "v": 84
    },
    {
      "midi": 69,
      "hit": false,
      "t": 154922.58633333366,
      "d": 142.3072416666546,
      "v": 79
    },
    {
      "midi": 59,
      "hit": false,
      "t": 155076.43199999904,
      "d": 211.5377916666621,
      "v": 84
    },
    {
      "midi": 50,
      "hit": false,
      "t": 155076.43199999904,
      "d": 215.3839333333308,
      "v": 89
    },
    {
      "midi": 55,
      "hit": false,
      "t": 155076.43199999904,
      "d": 217.3070041666506,
      "v": 89
    },
    {
      "midi": 62,
      "hit": false,
      "t": 155076.43200000032,
      "d": 134.6149583333463,
      "v": 83
    },
    {
      "midi": 67,
      "hit": false,
      "t": 155076.43200000032,
      "d": 138.461100000015,
      "v": 88
    },
    {
      "midi": 67,
      "hit": false,
      "t": 155230.277666667,
      "d": 136.5380291666661,
      "v": 80
    },
    {
      "midi": 62,
      "hit": false,
      "t": 155230.277666667,
      "d": 142.3072416666546,
      "v": 79
    },
    {
      "midi": 67,
      "hit": false,
      "t": 155384.12333333367,
      "d": 134.6149583333463,
      "v": 80
    },
    {
      "midi": 62,
      "hit": false,
      "t": 155384.12333333367,
      "d": 142.3072416666837,
      "v": 77
    },
    {
      "midi": 55,
      "hit": false,
      "t": 155537.96899999902,
      "d": 213.460862500011,
      "v": 77
    },
    {
      "midi": 47,
      "hit": false,
      "t": 155537.96899999902,
      "d": 442.3062916666677,
      "v": 80
    },
    {
      "midi": 38,
      "hit": false,
      "t": 155537.96899999902,
      "d": 449.9985750000051,
      "v": 84
    },
    {
      "midi": 62,
      "hit": false,
      "t": 155537.96900000036,
      "d": 134.6149583333463,
      "v": 85
    },
    {
      "midi": 67,
      "hit": false,
      "t": 155537.96900000036,
      "d": 138.461100000015,
      "v": 83
    },
    {
      "midi": 59,
      "hit": false,
      "t": 155537.96900000036,
      "d": 140.3841708333348,
      "v": 79
    },
    {
      "midi": 62,
      "hit": false,
      "t": 155691.81466666702,
      "d": 134.6149583333463,
      "v": 80
    },
    {
      "midi": 67,
      "hit": false,
      "t": 155691.81466666702,
      "d": 136.5380291666661,
      "v": 78
    },
    {
      "midi": 59,
      "hit": false,
      "t": 155691.81466666702,
      "d": 140.3841708333348,
      "v": 78
    },
    {
      "midi": 62,
      "hit": false,
      "t": 155845.66033333368,
      "d": 138.4610999999859,
      "v": 79
    },
    {
      "midi": 59,
      "hit": false,
      "t": 155845.66033333368,
      "d": 140.3841708333057,
      "v": 83
    },
    {
      "midi": 67,
      "hit": false,
      "t": 155845.66033333368,
      "d": 140.3841708333057,
      "v": 84
    },
    {
      "midi": 45,
      "hit": false,
      "t": 155999.50599999903,
      "d": 215.3839333333308,
      "v": 86
    },
    {
      "midi": 38,
      "hit": false,
      "t": 155999.50599999903,
      "d": 219.2300749999995,
      "v": 80
    },
    {
      "midi": 50,
      "hit": false,
      "t": 155999.50599999903,
      "d": 219.2300749999995,
      "v": 87
    },
    {
      "midi": 60,
      "hit": false,
      "t": 155999.5060000003,
      "d": 138.4610999999859,
      "v": 82
    },
    {
      "midi": 62,
      "hit": false,
      "t": 155999.5060000003,
      "d": 140.3841708333057,
      "v": 83
    },
    {
      "midi": 66,
      "hit": false,
      "t": 155999.5060000003,
      "d": 142.3072416666255,
      "v": 85
    },
    {
      "midi": 66,
      "hit": false,
      "t": 156153.35166666695,
      "d": 136.5380291666661,
      "v": 83
    },
    {
      "midi": 60,
      "hit": false,
      "t": 156153.35166666695,
      "d": 138.4610999999859,
      "v": 81
    },
    {
      "midi": 62,
      "hit": false,
      "t": 156153.35166666695,
      "d": 142.3072416666546,
      "v": 78
    },
    {
      "midi": 60,
      "hit": false,
      "t": 156307.1973333336,
      "d": 134.6149583333463,
      "v": 78
    },
    {
      "midi": 62,
      "hit": false,
      "t": 156307.1973333336,
      "d": 136.5380291666661,
      "v": 84
    },
    {
      "midi": 66,
      "hit": false,
      "t": 156307.1973333336,
      "d": 140.3841708333348,
      "v": 82
    },
    {
      "midi": 52,
      "hit": false,
      "t": 156461.04299999904,
      "d": 211.5377916666621,
      "v": 85
    },
    {
      "midi": 60,
      "hit": false,
      "t": 156461.04300000027,
      "d": 136.5380291666661,
      "v": 77
    },
    {
      "midi": 66,
      "hit": false,
      "t": 156461.04300000027,
      "d": 140.3841708333348,
      "v": 85
    },
    {
      "midi": 62,
      "hit": false,
      "t": 156461.04300000027,
      "d": 142.3072416666546,
      "v": 81
    },
    {
      "midi": 62,
      "hit": false,
      "t": 156614.88866666693,
      "d": 138.4610999999859,
      "v": 79
    },
    {
      "midi": 66,
      "hit": false,
      "t": 156614.88866666693,
      "d": 138.4610999999859,
      "v": 81
    },
    {
      "midi": 60,
      "hit": false,
      "t": 156614.88866666693,
      "d": 142.3072416666546,
      "v": 85
    },
    {
      "midi": 54,
      "hit": false,
      "t": 156691.81149999905,
      "d": 215.3839333333308,
      "v": 83
    },
    {
      "midi": 66,
      "hit": false,
      "t": 156768.7343333336,
      "d": 134.6149583333463,
      "v": 85
    },
    {
      "midi": 60,
      "hit": false,
      "t": 156768.7343333336,
      "d": 140.3841708333348,
      "v": 78
    },
    {
      "midi": 62,
      "hit": false,
      "t": 156768.7343333336,
      "d": 140.3841708333348,
      "v": 83
    },
    {
      "midi": 43,
      "hit": false,
      "t": 156922.57999999906,
      "d": 909.6125041666382,
      "v": 81
    },
    {
      "midi": 55,
      "hit": false,
      "t": 156922.57999999906,
      "d": 911.535574999958,
      "v": 86
    },
    {
      "midi": 59,
      "hit": false,
      "t": 156922.58000000025,
      "d": 136.5380291666661,
      "v": 88
    },
    {
      "midi": 62,
      "hit": false,
      "t": 156922.58000000025,
      "d": 138.4610999999859,
      "v": 85
    },
    {
      "midi": 67,
      "hit": false,
      "t": 156922.58000000025,
      "d": 138.4610999999859,
      "v": 86
    },
    {
      "midi": 67,
      "hit": false,
      "t": 157076.42566666688,
      "d": 134.6149583333463,
      "v": 78
    },
    {
      "midi": 59,
      "hit": false,
      "t": 157076.42566666688,
      "d": 140.3841708333348,
      "v": 85
    },
    {
      "midi": 62,
      "hit": false,
      "t": 157076.42566666688,
      "d": 142.3072416666546,
      "v": 77
    },
    {
      "midi": 59,
      "hit": false,
      "t": 157230.27133333354,
      "d": 134.6149583333172,
      "v": 78
    },
    {
      "midi": 67,
      "hit": false,
      "t": 157230.27133333354,
      "d": 136.538029166637,
      "v": 85
    },
    {
      "midi": 62,
      "hit": false,
      "t": 157230.27133333354,
      "d": 140.3841708333057,
      "v": 81
    },
    {
      "midi": 62,
      "hit": false,
      "t": 157384.11700000017,
      "d": 134.6149583333463,
      "v": 78
    },
    {
      "midi": 59,
      "hit": false,
      "t": 157384.11700000017,
      "d": 136.5380291666661,
      "v": 84
    },
    {
      "midi": 67,
      "hit": false,
      "t": 157384.11700000017,
      "d": 138.4610999999859,
      "v": 79
    },
    {
      "midi": 67,
      "hit": false,
      "t": 157537.96266666683,
      "d": 136.5380291666661,
      "v": 85
    },
    {
      "midi": 62,
      "hit": false,
      "t": 157537.96266666683,
      "d": 140.3841708333348,
      "v": 81
    },
    {
      "midi": 59,
      "hit": false,
      "t": 157537.96266666683,
      "d": 142.3072416666546,
      "v": 77
    },
    {
      "midi": 67,
      "hit": false,
      "t": 157691.8083333335,
      "d": 134.6149583333172,
      "v": 80
    },
    {
      "midi": 59,
      "hit": false,
      "t": 157691.8083333335,
      "d": 136.538029166637,
      "v": 81
    },
    {
      "midi": 62,
      "hit": false,
      "t": 157691.8083333335,
      "d": 140.3841708333057,
      "v": 80
    },
    {
      "midi": 38,
      "hit": false,
      "t": 157845.65399999902,
      "d": 446.1524333333073,
      "v": 86
    },
    {
      "midi": 67,
      "hit": false,
      "t": 157845.65400000013,
      "d": 134.6149583333172,
      "v": 81
    },
    {
      "midi": 59,
      "hit": false,
      "t": 157845.65400000013,
      "d": 136.538029166637,
      "v": 80
    },
    {
      "midi": 62,
      "hit": false,
      "t": 157845.65400000013,
      "d": 138.4610999999568,
      "v": 81
    },
    {
      "midi": 59,
      "hit": false,
      "t": 157999.49966666676,
      "d": 134.6149583333463,
      "v": 80
    },
    {
      "midi": 62,
      "hit": false,
      "t": 157999.49966666676,
      "d": 136.5380291666661,
      "v": 80
    },
    {
      "midi": 67,
      "hit": false,
      "t": 157999.49966666676,
      "d": 138.4610999999859,
      "v": 82
    },
    {
      "midi": 62,
      "hit": false,
      "t": 158153.34533333342,
      "d": 134.6149583333172,
      "v": 77
    },
    {
      "midi": 59,
      "hit": false,
      "t": 158153.34533333342,
      "d": 138.4610999999859,
      "v": 83
    },
    {
      "midi": 67,
      "hit": false,
      "t": 158153.34533333342,
      "d": 142.3072416666546,
      "v": 85
    },
    {
      "midi": 35,
      "hit": false,
      "t": 158307.190999999,
      "d": 446.1524333333073,
      "v": 85
    },
    {
      "midi": 62,
      "hit": false,
      "t": 158307.19100000008,
      "d": 134.6149583333172,
      "v": 84
    },
    {
      "midi": 67,
      "hit": false,
      "t": 158307.19100000008,
      "d": 138.4610999999859,
      "v": 79
    },
    {
      "midi": 59,
      "hit": false,
      "t": 158307.19100000008,
      "d": 140.3841708333057,
      "v": 78
    },
    {
      "midi": 59,
      "hit": false,
      "t": 158461.0366666667,
      "d": 134.6149583333172,
      "v": 83
    },
    {
      "midi": 62,
      "hit": false,
      "t": 158461.0366666667,
      "d": 136.538029166637,
      "v": 77
    },
    {
      "midi": 67,
      "hit": false,
      "t": 158461.0366666667,
      "d": 136.538029166637,
      "v": 82
    },
    {
      "midi": 59,
      "hit": false,
      "t": 158614.88233333334,
      "d": 136.5380291666661,
      "v": 84
    },
    {
      "midi": 62,
      "hit": false,
      "t": 158614.88233333334,
      "d": 136.5380291666661,
      "v": 78
    },
    {
      "midi": 67,
      "hit": false,
      "t": 158614.88233333334,
      "d": 138.4610999999859,
      "v": 77
    },
    {
      "midi": 31,
      "hit": false,
      "t": 158768.72799999898,
      "d": 909.6125041666382,
      "v": 84
    },
    {
      "midi": 67,
      "hit": false,
      "t": 158768.728,
      "d": 136.5380291666661,
      "v": 87
    },
    {
      "midi": 59,
      "hit": false,
      "t": 158768.728,
      "d": 138.4610999999859,
      "v": 88
    },
    {
      "midi": 65,
      "hit": false,
      "t": 158768.728,
      "d": 140.3841708333057,
      "v": 85
    },
    {
      "midi": 65,
      "hit": false,
      "t": 158922.57366666663,
      "d": 136.5380291666661,
      "v": 80
    },
    {
      "midi": 67,
      "hit": false,
      "t": 158922.57366666663,
      "d": 136.5380291666661,
      "v": 84
    },
    {
      "midi": 59,
      "hit": false,
      "t": 158922.57366666663,
      "d": 138.4610999999859,
      "v": 84
    },
    {
      "midi": 67,
      "hit": false,
      "t": 159076.4193333333,
      "d": 134.6149583333172,
      "v": 85
    },
    {
      "midi": 65,
      "hit": false,
      "t": 159076.4193333333,
      "d": 136.538029166637,
      "v": 84
    },
    {
      "midi": 59,
      "hit": false,
      "t": 159076.4193333333,
      "d": 142.3072416666255,
      "v": 84
    },
    {
      "midi": 65,
      "hit": false,
      "t": 159230.26499999993,
      "d": 136.5380291666661,
      "v": 80
    },
    {
      "midi": 59,
      "hit": false,
      "t": 159230.26499999993,
      "d": 138.4610999999859,
      "v": 83
    },
    {
      "midi": 67,
      "hit": false,
      "t": 159230.26499999993,
      "d": 142.3072416666546,
      "v": 83
    },
    {
      "midi": 59,
      "hit": false,
      "t": 159384.1106666666,
      "d": 138.4610999999859,
      "v": 77
    },
    {
      "midi": 67,
      "hit": false,
      "t": 159384.1106666666,
      "d": 140.3841708333057,
      "v": 78
    },
    {
      "midi": 65,
      "hit": false,
      "t": 159384.1106666666,
      "d": 142.3072416666255,
      "v": 78
    },
    {
      "midi": 59,
      "hit": false,
      "t": 159537.95633333322,
      "d": 136.5380291666661,
      "v": 77
    },
    {
      "midi": 65,
      "hit": false,
      "t": 159537.95633333322,
      "d": 138.4610999999859,
      "v": 77
    },
    {
      "midi": 67,
      "hit": false,
      "t": 159537.95633333322,
      "d": 140.3841708333057,
      "v": 81
    },
    {
      "midi": 33,
      "hit": false,
      "t": 159691.80199999895,
      "d": 448.0755041667435,
      "v": 87
    },
    {
      "midi": 65,
      "hit": false,
      "t": 159691.80199999985,
      "d": 134.6149583333463,
      "v": 84
    },
    {
      "midi": 67,
      "hit": false,
      "t": 159691.80199999985,
      "d": 136.5380291666661,
      "v": 86
    },
    {
      "midi": 60,
      "hit": false,
      "t": 159691.80199999985,
      "d": 138.4610999999859,
      "v": 84
    },
    {
      "midi": 67,
      "hit": false,
      "t": 159845.64766666648,
      "d": 134.6149583333172,
      "v": 80
    },
    {
      "midi": 60,
      "hit": false,
      "t": 159845.64766666648,
      "d": 138.4610999999568,
      "v": 82
    },
    {
      "midi": 65,
      "hit": false,
      "t": 159845.64766666648,
      "d": 138.4610999999568,
      "v": 79
    },
    {
      "midi": 60,
      "hit": false,
      "t": 159999.4933333331,
      "d": 134.6149583333463,
      "v": 85
    },
    {
      "midi": 65,
      "hit": false,
      "t": 159999.4933333331,
      "d": 136.5380291666661,
      "v": 83
    },
    {
      "midi": 67,
      "hit": false,
      "t": 159999.4933333331,
      "d": 136.5380291666661,
      "v": 77
    },
    {
      "midi": 35,
      "hit": false,
      "t": 160153.33899999902,
      "d": 444.2293625000748,
      "v": 78
    },
    {
      "midi": 67,
      "hit": false,
      "t": 160153.33899999977,
      "d": 138.4611000000441,
      "v": 85
    },
    {
      "midi": 62,
      "hit": false,
      "t": 160153.33899999977,
      "d": 140.3841708333639,
      "v": 82
    },
    {
      "midi": 65,
      "hit": false,
      "t": 160153.33899999977,
      "d": 142.3072416666837,
      "v": 80
    },
    {
      "midi": 62,
      "hit": false,
      "t": 160307.18466666646,
      "d": 138.461100000015,
      "v": 85
    },
    {
      "midi": 65,
      "hit": false,
      "t": 160307.18466666646,
      "d": 140.3841708333348,
      "v": 85
    },
    {
      "midi": 67,
      "hit": false,
      "t": 160307.18466666646,
      "d": 140.3841708333348,
      "v": 82
    },
    {
      "midi": 79,
      "hit": false,
      "t": 160461.03033333312,
      "d": 138.461100000015,
      "v": 79
    },
    {
      "midi": 67,
      "hit": false,
      "t": 160461.03033333312,
      "d": 142.3072416666837,
      "v": 83
    },
    {
      "midi": 36,
      "hit": false,
      "t": 160614.8759999991,
      "d": 153.8456666666607,
      "v": 77
    },
    {
      "midi": 48,
      "hit": false,
      "t": 160614.8759999991,
      "d": 153.8456666666607,
      "v": 78
    },
    {
      "midi": 67,
      "hit": false,
      "t": 160614.8759999998,
      "d": 226.9223583333369,
      "v": 74
    },
    {
      "midi": 79,
      "hit": false,
      "t": 160634.10670833313,
      "d": 215.3839333333308,
      "v": 71
    },
    {
      "midi": 55,
      "hit": false,
      "t": 160768.72166666575,
      "d": 153.8456666666607,
      "v": 71
    },
    {
      "midi": 72,
      "hit": false,
      "t": 160768.72166666648,
      "d": 69.2305500000075,
      "v": 68
    },
    {
      "midi": 76,
      "hit": false,
      "t": 160768.72166666648,
      "d": 71.1536208333273,
      "v": 71
    },
    {
      "midi": 60,
      "hit": false,
      "t": 160922.5673333324,
      "d": 153.8456666666607,
      "v": 75
    },
    {
      "midi": 64,
      "hit": false,
      "t": 160922.5673333324,
      "d": 153.8456666666607,
      "v": 73
    },
    {
      "midi": 76,
      "hit": false,
      "t": 160922.56733333314,
      "d": 69.2305500000075,
      "v": 69
    },
    {
      "midi": 72,
      "hit": false,
      "t": 160922.56733333314,
      "d": 73.0766916666762,
      "v": 68
    },
    {
      "midi": 60,
      "hit": false,
      "t": 161076.41299999907,
      "d": 153.8456666666607,
      "v": 68
    },
    {
      "midi": 64,
      "hit": false,
      "t": 161076.41299999907,
      "d": 153.8456666666607,
      "v": 67
    },
    {
      "midi": 69,
      "hit": false,
      "t": 161076.41299999983,
      "d": 103.8458249999967,
      "v": 70
    },
    {
      "midi": 81,
      "hit": false,
      "t": 161076.41299999983,
      "d": 103.8458249999967,
      "v": 76
    },
    {
      "midi": 55,
      "hit": false,
      "t": 161230.25866666573,
      "d": 153.8456666666607,
      "v": 68
    },
    {
      "midi": 71,
      "hit": false,
      "t": 161307.18149999983,
      "d": 105.7688958333456,
      "v": 74
    },
    {
      "midi": 83,
      "hit": false,
      "t": 161307.18149999983,
      "d": 109.6150375000143,
      "v": 74
    },
    {
      "midi": 48,
      "hit": false,
      "t": 161384.1043333324,
      "d": 153.8456666666607,
      "v": 75
    },
    {
      "midi": 48,
      "hit": false,
      "t": 161537.94999999905,
      "d": 153.8456666666607,
      "v": 69
    },
    {
      "midi": 72,
      "hit": false,
      "t": 161537.94999999984,
      "d": 226.9223583333369,
      "v": 72
    },
    {
      "midi": 84,
      "hit": false,
      "t": 161557.18070833318,
      "d": 211.5377916666621,
      "v": 69
    },
    {
      "midi": 55,
      "hit": false,
      "t": 161691.7956666657,
      "d": 153.8456666666607,
      "v": 67
    },
    {
      "midi": 76,
      "hit": false,
      "t": 161691.79566666653,
      "d": 69.2305500000075,
      "v": 68
    },
    {
      "midi": 79,
      "hit": false,
      "t": 161691.79566666653,
      "d": 71.1536208333273,
      "v": 74
    },
    {
      "midi": 60,
      "hit": false,
      "t": 161845.64133333237,
      "d": 153.8456666666607,
      "v": 74
    },
    {
      "midi": 64,
      "hit": false,
      "t": 161845.64133333237,
      "d": 153.8456666666607,
      "v": 70
    },
    {
      "midi": 72,
      "hit": false,
      "t": 161845.6413333332,
      "d": 65.3844083333388,
      "v": 75
    },
    {
      "midi": 76,
      "hit": false,
      "t": 161845.6413333332,
      "d": 67.3074791666586,
      "v": 73
    },
    {
      "midi": 60,
      "hit": false,
      "t": 161999.48699999903,
      "d": 153.8456666666607,
      "v": 71
    },
    {
      "midi": 64,
      "hit": false,
      "t": 161999.48699999903,
      "d": 153.8456666666607,
      "v": 72
    },
    {
      "midi": 72,
      "hit": false,
      "t": 161999.48699999985,
      "d": 107.6919666666654,
      "v": 77
    },
    {
      "midi": 84,
      "hit": false,
      "t": 161999.48699999985,
      "d": 111.5381083333341,
      "v": 71
    },
    {
      "midi": 55,
      "hit": false,
      "t": 162153.3326666657,
      "d": 153.8456666666607,
      "v": 69
    },
    {
      "midi": 85,
      "hit": false,
      "t": 162230.25549999985,
      "d": 105.7688958333456,
      "v": 72
    },
    {
      "midi": 73,
      "hit": false,
      "t": 162230.25549999985,
      "d": 111.5381083333341,
      "v": 71
    },
    {
      "midi": 48,
      "hit": false,
      "t": 162307.17833333235,
      "d": 153.8456666666607,
      "v": 67
    },
    {
      "midi": 48,
      "hit": false,
      "t": 162461.02399999902,
      "d": 153.8456666666607,
      "v": 75
    },
    {
      "midi": 74,
      "hit": false,
      "t": 162461.02399999986,
      "d": 224.9992875000171,
      "v": 78
    },
    {
      "midi": 86,
      "hit": false,
      "t": 162480.2547083332,
      "d": 215.3839333333308,
      "v": 79
    },
    {
      "midi": 55,
      "hit": false,
      "t": 162614.86966666568,
      "d": 153.8456666666607,
      "v": 68
    },
    {
      "midi": 77,
      "hit": false,
      "t": 162614.86966666655,
      "d": 67.3074791666586,
      "v": 68
    },
    {
      "midi": 79,
      "hit": false,
      "t": 162614.86966666655,
      "d": 67.3074791666586,
      "v": 68
    },
    {
      "midi": 59,
      "hit": false,
      "t": 162768.71533333234,
      "d": 153.8456666666607,
      "v": 67
    },
    {
      "midi": 65,
      "hit": false,
      "t": 162768.71533333234,
      "d": 153.8456666666607,
      "v": 73
    },
    {
      "midi": 77,
      "hit": false,
      "t": 162768.7153333332,
      "d": 67.3074791666586,
      "v": 68
    },
    {
      "midi": 79,
      "hit": false,
      "t": 162768.7153333332,
      "d": 69.2305499999784,
      "v": 74
    },
    {
      "midi": 59,
      "hit": false,
      "t": 162922.560999999,
      "d": 153.8456666666607,
      "v": 73
    },
    {
      "midi": 65,
      "hit": false,
      "t": 162922.560999999,
      "d": 153.8456666666607,
      "v": 75
    },
    {
      "midi": 67,
      "hit": false,
      "t": 162922.56099999984,
      "d": 224.9992875000171,
      "v": 71
    },
    {
      "midi": 74,
      "hit": false,
      "t": 162941.79170833318,
      "d": 217.3070041666797,
      "v": 69
    },
    {
      "midi": 79,
      "hit": false,
      "t": 162961.02241666653,
      "d": 199.999366666656,
      "v": 70
    },
    {
      "midi": 55,
      "hit": false,
      "t": 163076.40666666566,
      "d": 153.8456666666607,
      "v": 74
    },
    {
      "midi": 48,
      "hit": false,
      "t": 163230.25233333232,
      "d": 153.8456666666607,
      "v": 68
    },
    {
      "midi": 48,
      "hit": false,
      "t": 163384.09799999898,
      "d": 153.8456666666607,
      "v": 76
    },
    {
      "midi": 76,
      "hit": false,
      "t": 163384.09799999985,
      "d": 224.9992875000171,
      "v": 72
    },
    {
      "midi": 88,
      "hit": false,
      "t": 163403.3287083332,
      "d": 217.3070041666797,
      "v": 70
    },
    {
      "midi": 55,
      "hit": false,
      "t": 163537.94366666564,
      "d": 153.8456666666607,
      "v": 75
    },
    {
      "midi": 79,
      "hit": false,
      "t": 163537.94366666654,
      "d": 65.3844083333388,
      "v": 71
    },
    {
      "midi": 60,
      "hit": false,
      "t": 163691.7893333323,
      "d": 153.8456666666607,
      "v": 70
    },
    {
      "midi": 64,
      "hit": false,
      "t": 163691.7893333323,
      "d": 153.8456666666607,
      "v": 68
    },
    {
      "midi": 79,
      "hit": false,
      "t": 163691.7893333332,
      "d": 65.3844083333388,
      "v": 71
    },
    {
      "midi": 60,
      "hit": false,
      "t": 163845.63499999896,
      "d": 153.8456666666607,
      "v": 69
    },
    {
      "midi": 64,
      "hit": false,
      "t": 163845.63499999896,
      "d": 153.8456666666607,
      "v": 69
    },
    {
      "midi": 86,
      "hit": false,
      "t": 163845.63499999986,
      "d": 109.6150375000143,
      "v": 72
    },
    {
      "midi": 74,
      "hit": false,
      "t": 163845.63499999986,
      "d": 111.5381083333341,
      "v": 75
    },
    {
      "midi": 55,
      "hit": false,
      "t": 163999.48066666562,
      "d": 153.8456666666607,
      "v": 73
    },
    {
      "midi": 72,
      "hit": false,
      "t": 164076.40349999987,
      "d": 105.7688958333456,
      "v": 72
    },
    {
      "midi": 84,
      "hit": false,
      "t": 164076.40349999987,
      "d": 107.6919666666654,
      "v": 69
    },
    {
      "midi": 48,
      "hit": false,
      "t": 164153.32633333228,
      "d": 153.8456666666607,
      "v": 75
    },
    {
      "midi": 52,
      "hit": false,
      "t": 164307.17199999894,
      "d": 153.8456666666607,
      "v": 75
    },
    {
      "midi": 71,
      "hit": false,
      "t": 164307.17199999987,
      "d": 224.9992875000171,
      "v": 78
    },
    {
      "midi": 83,
      "hit": false,
      "t": 164326.40270833322,
      "d": 209.61472083331319,
      "v": 74
    },
    {
      "midi": 59,
      "hit": false,
      "t": 164461.0176666656,
      "d": 153.8456666666607,
      "v": 71
    },
    {
      "midi": 74,
      "hit": false,
      "t": 164461.01766666656,
      "d": 67.3074791666586,
      "v": 69
    },
    {
      "midi": 76,
      "hit": false,
      "t": 164461.01766666656,
      "d": 73.0766916666471,
      "v": 67
    },
    {
      "midi": 62,
      "hit": false,
      "t": 164614.86333333227,
      "d": 153.8456666666607,
      "v": 74
    },
    {
      "midi": 68,
      "hit": false,
      "t": 164614.86333333227,
      "d": 153.8456666666607,
      "v": 75
    },
    {
      "midi": 74,
      "hit": false,
      "t": 164614.8633333332,
      "d": 73.0766916666762,
      "v": 71
    },
    {
      "midi": 76,
      "hit": false,
      "t": 164614.8633333332,
      "d": 73.0766916666762,
      "v": 68
    },
    {
      "midi": 62,
      "hit": false,
      "t": 164768.70899999893,
      "d": 153.8456666666607,
      "v": 73
    },
    {
      "midi": 68,
      "hit": false,
      "t": 164768.70899999893,
      "d": 153.8456666666607,
      "v": 73
    },
    {
      "midi": 64,
      "hit": false,
      "t": 164768.7089999999,
      "d": 224.9992875000171,
      "v": 70
    },
    {
      "midi": 71,
      "hit": false,
      "t": 164787.93970833323,
      "d": 211.5377916666621,
      "v": 75
    },
    {
      "midi": 76,
      "hit": false,
      "t": 164807.17041666657,
      "d": 205.76857916664449,
      "v": 70
    },
    {
      "midi": 59,
      "hit": false,
      "t": 164922.5546666656,
      "d": 153.8456666666607,
      "v": 67
    },
    {
      "midi": 52,
      "hit": false,
      "t": 165076.40033333225,
      "d": 153.8456666666607,
      "v": 72
    },
    {
      "midi": 45,
      "hit": false,
      "t": 165230.2459999989,
      "d": 153.8456666666607,
      "v": 73
    },
    {
      "midi": 72,
      "hit": false,
      "t": 165230.2459999999,
      "d": 224.9992875000171,
      "v": 75
    },
    {
      "midi": 84,
      "hit": false,
      "t": 165249.47670833324,
      "d": 215.3839333333308,
      "v": 74
    },
    {
      "midi": 52,
      "hit": false,
      "t": 165384.09166666557,
      "d": 153.8456666666607,
      "v": 71
    },
    {
      "midi": 76,
      "hit": false,
      "t": 165384.0916666666,
      "d": 71.1536208333273,
      "v": 72
    },
    {
      "midi": 57,
      "hit": false,
      "t": 165537.93733333223,
      "d": 153.8456666666607,
      "v": 70
    },
    {
      "midi": 60,
      "hit": false,
      "t": 165537.93733333223,
      "d": 153.8456666666607,
      "v": 72
    },
    {
      "midi": 76,
      "hit": false,
      "t": 165537.93733333325,
      "d": 69.2305500000075,
      "v": 68
    },
    {
      "midi": 57,
      "hit": false,
      "t": 165691.7829999989,
      "d": 153.8456666666607,
      "v": 67
    },
    {
      "midi": 60,
      "hit": false,
      "t": 165691.7829999989,
      "d": 153.8456666666607,
      "v": 70
    },
    {
      "midi": 81,
      "hit": false,
      "t": 165691.7829999999,
      "d": 105.7688958333456,
      "v": 69
    },
    {
      "midi": 69,
      "hit": false,
      "t": 165691.7829999999,
      "d": 109.6150375000143,
      "v": 74
    },
    {
      "midi": 52,
      "hit": false,
      "t": 165845.62866666555,
      "d": 153.8456666666607,
      "v": 71
    },
    {
      "midi": 81,
      "hit": false,
      "t": 165922.5514999999,
      "d": 107.6919666666654,
      "v": 75
    },
    {
      "midi": 69,
      "hit": false,
      "t": 165922.5514999999,
      "d": 109.61503749998519,
      "v": 74
    },
    {
      "midi": 45,
      "hit": false,
      "t": 165999.4743333322,
      "d": 153.8456666666607,
      "v": 68
    },
    {
      "midi": 52,
      "hit": false,
      "t": 166153.31999999887,
      "d": 153.8456666666607,
      "v": 73
    },
    {
      "midi": 71,
      "hit": false,
      "t": 166153.3199999999,
      "d": 221.1531458333484,
      "v": 78
    },
    {
      "midi": 83,
      "hit": false,
      "t": 166172.55070833323,
      "d": 215.3839333333308,
      "v": 72
    },
    {
      "midi": 59,
      "hit": false,
      "t": 166307.16566666553,
      "d": 153.8456666666607,
      "v": 73
    },
    {
      "midi": 74,
      "hit": false,
      "t": 166307.16566666658,
      "d": 69.2305499999784,
      "v": 74
    },
    {
      "midi": 76,
      "hit": false,
      "t": 166307.16566666658,
      "d": 73.0766916666471,
      "v": 69
    },
    {
      "midi": 62,
      "hit": false,
      "t": 166461.0113333322,
      "d": 153.8456666666607,
      "v": 72
    },
    {
      "midi": 68,
      "hit": false,
      "t": 166461.0113333322,
      "d": 153.8456666666607,
      "v": 71
    },
    {
      "midi": 74,
      "hit": false,
      "t": 166461.01133333324,
      "d": 73.0766916666762,
      "v": 71
    },
    {
      "midi": 76,
      "hit": false,
      "t": 166461.01133333324,
      "d": 73.0766916666762,
      "v": 69
    },
    {
      "midi": 62,
      "hit": false,
      "t": 166614.85699999885,
      "d": 153.8456666666607,
      "v": 67
    },
    {
      "midi": 68,
      "hit": false,
      "t": 166614.85699999885,
      "d": 153.8456666666607,
      "v": 70
    },
    {
      "midi": 64,
      "hit": false,
      "t": 166614.85699999993,
      "d": 223.0762166666973,
      "v": 74
    },
    {
      "midi": 71,
      "hit": false,
      "t": 166634.08770833327,
      "d": 217.3070041666797,
      "v": 68
    },
    {
      "midi": 76,
      "hit": false,
      "t": 166653.31841666662,
      "d": 203.8455083333247,
      "v": 71
    },
    {
      "midi": 59,
      "hit": false,
      "t": 166768.70266666551,
      "d": 153.8456666666607,
      "v": 72
    },
    {
      "midi": 52,
      "hit": false,
      "t": 166922.54833333218,
      "d": 153.8456666666607,
      "v": 74
    },
    {
      "midi": 45,
      "hit": false,
      "t": 167076.39399999884,
      "d": 153.8456666666607,
      "v": 74
    },
    {
      "midi": 84,
      "hit": false,
      "t": 167095.6247083333,
      "d": 217.3070041666797,
      "v": 77
    },
    {
      "midi": 52,
      "hit": false,
      "t": 167230.2396666655,
      "d": 153.8456666666607,
      "v": 74
    },
    {
      "midi": 72,
      "hit": false,
      "t": 167230.23966666663,
      "d": 69.2305500000075,
      "v": 74
    },
    {
      "midi": 76,
      "hit": false,
      "t": 167230.23966666663,
      "d": 71.1536208333273,
      "v": 68
    },
    {
      "midi": 57,
      "hit": false,
      "t": 167384.08533333216,
      "d": 153.8456666666607,
      "v": 69
    },
    {
      "midi": 60,
      "hit": false,
      "t": 167384.08533333216,
      "d": 153.8456666666607,
      "v": 74
    },
    {
      "midi": 76,
      "hit": false,
      "t": 167384.0853333333,
      "d": 65.3844083333388,
      "v": 75
    },
    {
      "midi": 72,
      "hit": false,
      "t": 167384.0853333333,
      "d": 69.2305500000075,
      "v": 67
    },
    {
      "midi": 57,
      "hit": false,
      "t": 167537.93099999882,
      "d": 153.8456666666607,
      "v": 67
    },
    {
      "midi": 60,
      "hit": false,
      "t": 167537.93099999882,
      "d": 153.8456666666607,
      "v": 68
    },
    {
      "midi": 69,
      "hit": false,
      "t": 167537.93099999995,
      "d": 107.6919666666654,
      "v": 73
    },
    {
      "midi": 81,
      "hit": false,
      "t": 167537.93099999995,
      "d": 109.61503749998519,
      "v": 72
    },
    {
      "midi": 52,
      "hit": false,
      "t": 167691.77666666548,
      "d": 153.8456666666607,
      "v": 71
    },
    {
      "midi": 81,
      "hit": false,
      "t": 167768.69949999993,
      "d": 105.7688958333456,
      "v": 70
    },
    {
      "midi": 69,
      "hit": false,
      "t": 167768.69949999993,
      "d": 111.5381083333341,
      "v": 67
    },
    {
      "midi": 45,
      "hit": false,
      "t": 167845.62233333214,
      "d": 153.8456666666607,
      "v": 67
    },
    {
      "midi": 50,
      "hit": false,
      "t": 167999.4679999988,
      "d": 153.8456666666607,
      "v": 77
    },
    {
      "midi": 69,
      "hit": false,
      "t": 167999.46799999994,
      "d": 223.0762166666973,
      "v": 72
    },
    {
      "midi": 81,
      "hit": false,
      "t": 168018.69870833328,
      "d": 213.460862500011,
      "v": 76
    },
    {
      "midi": 57,
      "hit": false,
      "t": 168153.31366666546,
      "d": 153.8456666666607,
      "v": 71
    },
    {
      "midi": 72,
      "hit": false,
      "t": 168153.31366666663,
      "d": 69.2305500000075,
      "v": 68
    },
    {
      "midi": 74,
      "hit": false,
      "t": 168153.31366666663,
      "d": 73.0766916666762,
      "v": 73
    },
    {
      "midi": 60,
      "hit": false,
      "t": 168307.15933333212,
      "d": 153.8456666666607,
      "v": 75
    },
    {
      "midi": 66,
      "hit": false,
      "t": 168307.15933333212,
      "d": 153.8456666666607,
      "v": 72
    },
    {
      "midi": 74,
      "hit": false,
      "t": 168307.1593333333,
      "d": 67.3074791666586,
      "v": 69
    },
    {
      "midi": 72,
      "hit": false,
      "t": 168307.1593333333,
      "d": 71.1536208333273,
      "v": 75
    },
    {
      "midi": 60,
      "hit": false,
      "t": 168461.00499999878,
      "d": 153.8456666666607,
      "v": 71
    },
    {
      "midi": 66,
      "hit": false,
      "t": 168461.00499999878,
      "d": 153.8456666666607,
      "v": 72
    },
    {
      "midi": 80,
      "hit": false,
      "t": 168461.00499999995,
      "d": 105.7688958333456,
      "v": 72
    },
    {
      "midi": 68,
      "hit": false,
      "t": 168461.00499999995,
      "d": 109.6150375000143,
      "v": 68
    },
    {
      "midi": 57,
      "hit": false,
      "t": 168614.85066666544,
      "d": 153.8456666666607,
      "v": 75
    },
    {
      "midi": 81,
      "hit": false,
      "t": 168691.77349999995,
      "d": 105.7688958333456,
      "v": 73
    },
    {
      "midi": 69,
      "hit": false,
      "t": 168691.77349999995,
      "d": 109.6150375000143,
      "v": 70
    },
    {
      "midi": 50,
      "hit": false,
      "t": 168768.6963333321,
      "d": 153.8456666666607,
      "v": 71
    },
    {
      "midi": 43,
      "hit": false,
      "t": 168922.54199999876,
      "d": 153.8456666666607,
      "v": 72
    },
    {
      "midi": 83,
      "hit": false,
      "t": 168941.7727083333,
      "d": 211.5377916666912,
      "v": 72
    },
    {
      "midi": 50,
      "hit": false,
      "t": 169076.38766666543,
      "d": 153.8456666666607,
      "v": 69
    },
    {
      "midi": 71,
      "hit": false,
      "t": 169076.38766666665,
      "d": 65.3844083333388,
      "v": 67
    },
    {
      "midi": 74,
      "hit": false,
      "t": 169076.38766666665,
      "d": 65.3844083333388,
      "v": 69
    },
    {
      "midi": 55,
      "hit": false,
      "t": 169230.2333333321,
      "d": 153.8456666666607,
      "v": 74
    },
    {
      "midi": 59,
      "hit": false,
      "t": 169230.2333333321,
      "d": 153.8456666666607,
      "v": 69
    },
    {
      "midi": 74,
      "hit": false,
      "t": 169230.23333333334,
      "d": 65.3844083333388,
      "v": 72
    },
    {
      "midi": 71,
      "hit": false,
      "t": 169230.23333333334,
      "d": 67.3074791666586,
      "v": 73
    },
    {
      "midi": 55,
      "hit": false,
      "t": 169384.07899999875,
      "d": 153.8456666666607,
      "v": 74
    },
    {
      "midi": 59,
      "hit": false,
      "t": 169384.07899999875,
      "d": 153.8456666666607,
      "v": 67
    },
    {
      "midi": 67,
      "hit": false,
      "t": 169384.079,
      "d": 105.7688958333456,
      "v": 68
    },
    {
      "midi": 79,
      "hit": false,
      "t": 169384.079,
      "d": 105.7688958333456,
      "v": 72
    },
    {
      "midi": 50,
      "hit": false,
      "t": 169537.9246666654,
      "d": 153.8456666666607,
      "v": 71
    },
    {
      "midi": 79,
      "hit": false,
      "t": 169614.8475,
      "d": 107.6919666666654,
      "v": 73
    },
    {
      "midi": 67,
      "hit": false,
      "t": 169614.8475,
      "d": 111.5381083333341,
      "v": 73
    },
    {
      "midi": 43,
      "hit": false,
      "t": 169691.77033333207,
      "d": 153.8456666666607,
      "v": 67
    },
    {
      "midi": 50,
      "hit": false,
      "t": 169845.61599999873,
      "d": 153.8456666666607,
      "v": 76
    },
    {
      "midi": 69,
      "hit": false,
      "t": 169845.616,
      "d": 224.9992875000171,
      "v": 75
    },
    {
      "midi": 81,
      "hit": false,
      "t": 169864.84670833335,
      "d": 213.460862500011,
      "v": 77
    },
    {
      "midi": 57,
      "hit": false,
      "t": 169999.4616666654,
      "d": 153.8456666666607,
      "v": 74
    },
    {
      "midi": 74,
      "hit": false,
      "t": 169999.4616666667,
      "d": 67.3074791666586,
      "v": 72
    },
    {
      "midi": 72,
      "hit": false,
      "t": 169999.4616666667,
      "d": 71.1536208333273,
      "v": 72
    },
    {
      "midi": 60,
      "hit": false,
      "t": 170153.30733333205,
      "d": 153.8456666666607,
      "v": 67
    },
    {
      "midi": 66,
      "hit": false,
      "t": 170153.30733333205,
      "d": 153.8456666666607,
      "v": 67
    },
    {
      "midi": 74,
      "hit": false,
      "t": 170153.30733333336,
      "d": 67.3074791666586,
      "v": 68
    },
    {
      "midi": 72,
      "hit": false,
      "t": 170153.30733333336,
      "d": 71.1536208333273,
      "v": 69
    },
    {
      "midi": 60,
      "hit": false,
      "t": 170307.1529999987,
      "d": 153.8456666666607,
      "v": 73
    },
    {
      "midi": 66,
      "hit": false,
      "t": 170307.1529999987,
      "d": 153.8456666666607,
      "v": 74
    },
    {
      "midi": 62,
      "hit": false,
      "t": 170307.15300000002,
      "d": 219.2300750000286,
      "v": 74
    },
    {
      "midi": 69,
      "hit": false,
      "t": 170326.38370833336,
      "d": 209.6147208333423,
      "v": 70
    },
    {
      "midi": 74,
      "hit": false,
      "t": 170345.6144166667,
      "d": 199.999366666656,
      "v": 74
    },
    {
      "midi": 57,
      "hit": false,
      "t": 170460.99866666537,
      "d": 153.8456666666607,
      "v": 69
    },
    {
      "midi": 50,
      "hit": false,
      "t": 170614.84433333203,
      "d": 153.8456666666607,
      "v": 68
    },
    {
      "midi": 43,
      "hit": false,
      "t": 170768.6899999987,
      "d": 153.8456666666607,
      "v": 76
    },
    {
      "midi": 83,
      "hit": false,
      "t": 170787.92070833337,
      "d": 209.6147208333423,
      "v": 76
    },
    {
      "midi": 50,
      "hit": false,
      "t": 170922.53566666535,
      "d": 153.8456666666607,
      "v": 75
    },
    {
      "midi": 71,
      "hit": false,
      "t": 170922.53566666672,
      "d": 65.3844083333388,
      "v": 73
    },
    {
      "midi": 74,
      "hit": false,
      "t": 170922.53566666672,
      "d": 65.3844083333388,
      "v": 70
    },
    {
      "midi": 55,
      "hit": false,
      "t": 171076.381333332,
      "d": 153.8456666666607,
      "v": 74
    },
    {
      "midi": 59,
      "hit": false,
      "t": 171076.381333332,
      "d": 153.8456666666607,
      "v": 68
    },
    {
      "midi": 74,
      "hit": false,
      "t": 171076.38133333338,
      "d": 71.1536208333273,
      "v": 67
    },
    {
      "midi": 71,
      "hit": false,
      "t": 171076.38133333338,
      "d": 73.0766916666471,
      "v": 71
    },
    {
      "midi": 55,
      "hit": false,
      "t": 171230.22699999867,
      "d": 153.8456666666607,
      "v": 73
    },
    {
      "midi": 59,
      "hit": false,
      "t": 171230.22699999867,
      "d": 153.8456666666607,
      "v": 70
    },
    {
      "midi": 67,
      "hit": false,
      "t": 171230.22700000004,
      "d": 107.6919666666654,
      "v": 68
    },
    {
      "midi": 79,
      "hit": false,
      "t": 171230.22700000004,
      "d": 107.6919666666654,
      "v": 67
    },
    {
      "midi": 50,
      "hit": false,
      "t": 171384.07266666534,
      "d": 153.8456666666607,
      "v": 72
    },
    {
      "midi": 67,
      "hit": false,
      "t": 171460.99550000005,
      "d": 103.8458249999967,
      "v": 74
    },
    {
      "midi": 79,
      "hit": false,
      "t": 171460.99550000005,
      "d": 111.5381083333341,
      "v": 72
    },
    {
      "midi": 43,
      "hit": false,
      "t": 171537.918333332,
      "d": 153.8456666666607,
      "v": 69
    },
    {
      "midi": 43,
      "hit": false,
      "t": 171691.76399999866,
      "d": 153.8456666666607,
      "v": 78
    },
    {
      "midi": 67,
      "hit": false,
      "t": 171691.76400000005,
      "d": 219.2300750000286,
      "v": 78
    },
    {
      "midi": 79,
      "hit": false,
      "t": 171710.9947083334,
      "d": 213.460862500011,
      "v": 71
    },
    {
      "midi": 50,
      "hit": false,
      "t": 171845.60966666532,
      "d": 153.8456666666607,
      "v": 74
    },
    {
      "midi": 53,
      "hit": false,
      "t": 171845.60966666532,
      "d": 153.8456666666607,
      "v": 72
    },
    {
      "midi": 74,
      "hit": false,
      "t": 171845.60966666674,
      "d": 73.0766916666762,
      "v": 70
    },
    {
      "midi": 77,
      "hit": false,
      "t": 171845.60966666674,
      "d": 73.0766916666762,
      "v": 75
    },
    {
      "midi": 59,
      "hit": false,
      "t": 171999.45533333198,
      "d": 153.8456666666607,
      "v": 75
    },
    {
      "midi": 74,
      "hit": false,
      "t": 171999.4553333334,
      "d": 69.2305500000075,
      "v": 72
    },
    {
      "midi": 77,
      "hit": false,
      "t": 171999.4553333334,
      "d": 73.0766916666762,
      "v": 69
    },
    {
      "midi": 59,
      "hit": false,
      "t": 172153.30099999864,
      "d": 153.8456666666607,
      "v": 67
    },
    {
      "midi": 69,
      "hit": false,
      "t": 172153.3010000001,
      "d": 105.7688958333456,
      "v": 73
    },
    {
      "midi": 81,
      "hit": false,
      "t": 172153.3010000001,
      "d": 107.6919666666654,
      "v": 71
    },
    {
      "midi": 50,
      "hit": false,
      "t": 172307.1466666653,
      "d": 153.8456666666607,
      "v": 71
    },
    {
      "midi": 53,
      "hit": false,
      "t": 172307.1466666653,
      "d": 153.8456666666607,
      "v": 73
    },
    {
      "midi": 71,
      "hit": false,
      "t": 172384.0695000001,
      "d": 107.6919666666654,
      "v": 67
    },
    {
      "midi": 83,
      "hit": false,
      "t": 172384.0695000001,
      "d": 109.61503749998519,
      "v": 70
    },
    {
      "midi": 43,
      "hit": false,
      "t": 172460.99233333196,
      "d": 153.8456666666607,
      "v": 70
    },
    {
      "midi": 43,
      "hit": false,
      "t": 172614.83799999862,
      "d": 153.8456666666607,
      "v": 69
    },
    {
      "midi": 72,
      "hit": false,
      "t": 172614.83800000008,
      "d": 219.2300750000286,
      "v": 70
    },
    {
      "midi": 84,
      "hit": false,
      "t": 172634.06870833342,
      "d": 215.3839333333599,
      "v": 71
    },
    {
      "midi": 52,
      "hit": false,
      "t": 172768.68366666528,
      "d": 153.8456666666607,
      "v": 72
    },
    {
      "midi": 55,
      "hit": false,
      "t": 172768.68366666528,
      "d": 153.8456666666607,
      "v": 71
    },
    {
      "midi": 76,
      "hit": false,
      "t": 172768.68366666677,
      "d": 65.3844083333388,
      "v": 69
    },
    {
      "midi": 79,
      "hit": false,
      "t": 172768.68366666677,
      "d": 65.3844083333388,
      "v": 74
    },
    {
      "midi": 60,
      "hit": false,
      "t": 172922.52933333194,
      "d": 153.8456666666607,
      "v": 73
    },
    {
      "midi": 76,
      "hit": false,
      "t": 172922.52933333346,
      "d": 65.3844083333388,
      "v": 72
    },
    {
      "midi": 79,
      "hit": false,
      "t": 172922.52933333346,
      "d": 71.1536208333273,
      "v": 70
    },
    {
      "midi": 60,
      "hit": false,
      "t": 173076.3749999986,
      "d": 153.8456666666607,
      "v": 67
    },
    {
      "midi": 74,
      "hit": false,
      "t": 173076.37500000012,
      "d": 105.7688958333456,
      "v": 70
    },
    {
      "midi": 86,
      "hit": false,
      "t": 173076.37500000012,
      "d": 111.5381083333341,
      "v": 75
    },
    {
      "midi": 52,
      "hit": false,
      "t": 173230.22066666526,
      "d": 153.8456666666607,
      "v": 73
    },
    {
      "midi": 55,
      "hit": false,
      "t": 173230.22066666526,
      "d": 153.8456666666607,
      "v": 70
    },
    {
      "midi": 88,
      "hit": false,
      "t": 173307.14350000012,
      "d": 107.6919666666654,
      "v": 75
    },
    {
      "midi": 76,
      "hit": false,
      "t": 173307.14350000012,
      "d": 111.5381083333341,
      "v": 70
    },
    {
      "midi": 43,
      "hit": false,
      "t": 173384.06633333192,
      "d": 153.8456666666607,
      "v": 69
    },
    {
      "midi": 43,
      "hit": false,
      "t": 173537.91199999859,
      "d": 153.8456666666607,
      "v": 71
    },
    {
      "midi": 89,
      "hit": false,
      "t": 173557.14270833347,
      "d": 211.5377916666621,
      "v": 75
    },
    {
      "midi": 50,
      "hit": false,
      "t": 173691.75766666525,
      "d": 153.8456666666607,
      "v": 75
    },
    {
      "midi": 53,
      "hit": false,
      "t": 173691.75766666525,
      "d": 153.8456666666607,
      "v": 74
    },
    {
      "midi": 77,
      "hit": false,
      "t": 173691.75766666682,
      "d": 67.3074791666586,
      "v": 67
    },
    {
      "midi": 79,
      "hit": false,
      "t": 173691.75766666682,
      "d": 73.0766916666471,
      "v": 75
    },
    {
      "midi": 59,
      "hit": false,
      "t": 173845.6033333319,
      "d": 153.8456666666607,
      "v": 73
    },
    {
      "midi": 79,
      "hit": false,
      "t": 173845.60333333348,
      "d": 65.3844083333388,
      "v": 74
    },
    {
      "midi": 77,
      "hit": false,
      "t": 173845.60333333348,
      "d": 71.1536208333273,
      "v": 70
    },
    {
      "midi": 59,
      "hit": false,
      "t": 173999.44899999857,
      "d": 153.8456666666607,
      "v": 72
    },
    {
      "midi": 74,
      "hit": false,
      "t": 173999.44900000014,
      "d": 103.8458249999967,
      "v": 69
    },
    {
      "midi": 84,
      "hit": false,
      "t": 173999.44900000014,
      "d": 111.5381083333341,
      "v": 70
    },
    {
      "midi": 50,
      "hit": false,
      "t": 174153.29466666523,
      "d": 153.8456666666607,
      "v": 74
    },
    {
      "midi": 53,
      "hit": false,
      "t": 174153.29466666523,
      "d": 153.8456666666607,
      "v": 71
    },
    {
      "midi": 83,
      "hit": false,
      "t": 174230.21750000014,
      "d": 103.8458249999967,
      "v": 67
    },
    {
      "midi": 71,
      "hit": false,
      "t": 174230.21750000014,
      "d": 107.6919666666654,
      "v": 67
    },
    {
      "midi": 43,
      "hit": false,
      "t": 174307.1403333319,
      "d": 153.8456666666607,
      "v": 75
    },
    {
      "midi": 43,
      "hit": false,
      "t": 174460.98599999855,
      "d": 153.8456666666607,
      "v": 74
    },
    {
      "midi": 72,
      "hit": false,
      "t": 174460.98600000015,
      "d": 226.9223583333369,
      "v": 74
    },
    {
      "midi": 84,
      "hit": false,
      "t": 174480.2167083335,
      "d": 213.46086249998189,
      "v": 70
    },
    {
      "midi": 52,
      "hit": false,
      "t": 174614.8316666652,
      "d": 153.8456666666607,
      "v": 70
    },
    {
      "midi": 55,
      "hit": false,
      "t": 174614.8316666652,
      "d": 153.8456666666607,
      "v": 69
    },
    {
      "midi": 76,
      "hit": false,
      "t": 174614.83166666684,
      "d": 65.3844083333388,
      "v": 68
    },
    {
      "midi": 79,
      "hit": false,
      "t": 174614.83166666684,
      "d": 67.3074791666586,
      "v": 68
    },
    {
      "midi": 60,
      "hit": false,
      "t": 174768.67733333187,
      "d": 153.8456666666607,
      "v": 67
    },
    {
      "midi": 79,
      "hit": false,
      "t": 174768.67733333347,
      "d": 65.3844083333388,
      "v": 73
    },
    {
      "midi": 76,
      "hit": false,
      "t": 174768.67733333347,
      "d": 69.2305500000075,
      "v": 75
    },
    {
      "midi": 60,
      "hit": false,
      "t": 174922.52299999853,
      "d": 153.8456666666607,
      "v": 74
    },
    {
      "midi": 79,
      "hit": false,
      "t": 174922.52300000013,
      "d": 103.8458249999967,
      "v": 68
    },
    {
      "midi": 67,
      "hit": false,
      "t": 174922.52300000013,
      "d": 111.5381083333341,
      "v": 75
    },
    {
      "midi": 52,
      "hit": false,
      "t": 175076.3686666652,
      "d": 153.8456666666607,
      "v": 70
    },
    {
      "midi": 55,
      "hit": false,
      "t": 175076.3686666652,
      "d": 153.8456666666607,
      "v": 72
    },
    {
      "midi": 67,
      "hit": false,
      "t": 175153.29150000014,
      "d": 103.8458249999967,
      "v": 69
    },
    {
      "midi": 79,
      "hit": false,
      "t": 175153.29150000014,
      "d": 111.5381083333341,
      "v": 70
    },
    {
      "midi": 43,
      "hit": false,
      "t": 175230.21433333185,
      "d": 153.8456666666607,
      "v": 73
    },
    {
      "midi": 43,
      "hit": false,
      "t": 175384.0599999985,
      "d": 153.8456666666607,
      "v": 78
    },
    {
      "midi": 67,
      "hit": false,
      "t": 175384.06000000014,
      "d": 226.9223583333369,
      "v": 77
    },
    {
      "midi": 79,
      "hit": false,
      "t": 175403.2907083335,
      "d": 209.61472083331319,
      "v": 71
    },
    {
      "midi": 50,
      "hit": false,
      "t": 175537.90566666517,
      "d": 153.8456666666607,
      "v": 72
    },
    {
      "midi": 53,
      "hit": false,
      "t": 175537.90566666517,
      "d": 153.8456666666607,
      "v": 68
    },
    {
      "midi": 74,
      "hit": false,
      "t": 175537.90566666683,
      "d": 65.3844083333388,
      "v": 71
    },
    {
      "midi": 77,
      "hit": false,
      "t": 175537.90566666683,
      "d": 71.1536208333273,
      "v": 73
    },
    {
      "midi": 59,
      "hit": false,
      "t": 175691.75133333183,
      "d": 153.8456666666607,
      "v": 69
    },
    {
      "midi": 74,
      "hit": false,
      "t": 175691.75133333346,
      "d": 73.0766916666762,
      "v": 72
    },
    {
      "midi": 77,
      "hit": false,
      "t": 175691.75133333346,
      "d": 73.0766916666762,
      "v": 70
    },
    {
      "midi": 59,
      "hit": false,
      "t": 175845.5969999985,
      "d": 153.8456666666607,
      "v": 74
    },
    {
      "midi": 69,
      "hit": false,
      "t": 175845.59700000015,
      "d": 103.8458249999967,
      "v": 69
    },
    {
      "midi": 81,
      "hit": false,
      "t": 175845.59700000015,
      "d": 103.8458249999967,
      "v": 74
    },
    {
      "midi": 50,
      "hit": false,
      "t": 175999.44266666516,
      "d": 153.8456666666607,
      "v": 71
    },
    {
      "midi": 53,
      "hit": false,
      "t": 175999.44266666516,
      "d": 153.8456666666607,
      "v": 72
    },
    {
      "midi": 83,
      "hit": false,
      "t": 176076.36550000016,
      "d": 105.7688958333456,
      "v": 68
    },
    {
      "midi": 71,
      "hit": false,
      "t": 176076.36550000016,
      "d": 109.6150375000143,
      "v": 71
    },
    {
      "midi": 43,
      "hit": false,
      "t": 176153.28833333182,
      "d": 153.8456666666607,
      "v": 75
    },
    {
      "midi": 43,
      "hit": false,
      "t": 176307.13399999848,
      "d": 153.8456666666898,
      "v": 75
    },
    {
      "midi": 72,
      "hit": false,
      "t": 176307.13400000017,
      "d": 224.9992875000171,
      "v": 72
    },
    {
      "midi": 84,
      "hit": false,
      "t": 176326.3647083335,
      "d": 215.3839333333308,
      "v": 76
    },
    {
      "midi": 52,
      "hit": false,
      "t": 176460.97966666517,
      "d": 153.8456666666607,
      "v": 72
    },
    {
      "midi": 55,
      "hit": false,
      "t": 176460.97966666517,
      "d": 153.8456666666607,
      "v": 71
    },
    {
      "midi": 79,
      "hit": false,
      "t": 176460.97966666686,
      "d": 69.2305500000075,
      "v": 72
    },
    {
      "midi": 76,
      "hit": false,
      "t": 176460.97966666686,
      "d": 71.1536208333273,
      "v": 72
    },
    {
      "midi": 60,
      "hit": false,
      "t": 176614.82533333183,
      "d": 153.8456666666607,
      "v": 69
    },
    {
      "midi": 79,
      "hit": false,
      "t": 176614.8253333335,
      "d": 69.2305500000075,
      "v": 75
    },
    {
      "midi": 76,
      "hit": false,
      "t": 176614.8253333335,
      "d": 71.1536208333273,
      "v": 69
    },
    {
      "midi": 60,
      "hit": false,
      "t": 176768.6709999985,
      "d": 153.8456666666607,
      "v": 68
    },
    {
      "midi": 74,
      "hit": false,
      "t": 176768.67100000015,
      "d": 105.76889583331649,
      "v": 69
    },
    {
      "midi": 86,
      "hit": false,
      "t": 176768.67100000015,
      "d": 107.69196666663629,
      "v": 75
    },
    {
      "midi": 52,
      "hit": false,
      "t": 176922.51666666515,
      "d": 153.8456666666607,
      "v": 70
    },
    {
      "midi": 55,
      "hit": false,
      "t": 176922.51666666515,
      "d": 153.8456666666607,
      "v": 74
    },
    {
      "midi": 88,
      "hit": false,
      "t": 176999.43950000012,
      "d": 103.8458250000258,
      "v": 67
    },
    {
      "midi": 76,
      "hit": false,
      "t": 176999.43950000012,
      "d": 109.6150375000143,
      "v": 75
    },
    {
      "midi": 43,
      "hit": false,
      "t": 177076.3623333318,
      "d": 153.8456666666607,
      "v": 72
    },
    {
      "midi": 43,
      "hit": false,
      "t": 177230.20799999847,
      "d": 138.461100000015,
      "v": 78
    },
    {
      "midi": 91,
      "hit": false,
      "t": 177230.20800000013,
      "d": 213.460862500011,
      "v": 78
    },
    {
      "midi": 83,
      "hit": false,
      "t": 177230.20800000013,
      "d": 215.3839333333308,
      "v": 74
    },
    {
      "midi": 79,
      "hit": false,
      "t": 177230.20800000013,
      "d": 219.2300749999995,
      "v": 79
    },
    {
      "midi": 50,
      "hit": false,
      "t": 177384.05366666516,
      "d": 136.5380291666661,
      "v": 70
    },
    {
      "midi": 53,
      "hit": false,
      "t": 177384.05366666516,
      "d": 140.3841708333348,
      "v": 70
    },
    {
      "midi": 89,
      "hit": false,
      "t": 177460.97650000014,
      "d": 215.3839333333308,
      "v": 71
    },
    {
      "midi": 77,
      "hit": false,
      "t": 177460.97650000014,
      "d": 219.2300749999995,
      "v": 73
    },
    {
      "midi": 59,
      "hit": false,
      "t": 177537.89933333182,
      "d": 136.5380291666661,
      "v": 74
    },
    {
      "midi": 59,
      "hit": false,
      "t": 177691.74499999848,
      "d": 142.3072416666546,
      "v": 69
    },
    {
      "midi": 86,
      "hit": false,
      "t": 177691.74500000014,
      "d": 215.3839333333308,
      "v": 67
    },
    {
      "midi": 74,
      "hit": false,
      "t": 177691.74500000014,
      "d": 219.2300749999995,
      "v": 73
    },
    {
      "midi": 50,
      "hit": false,
      "t": 177845.5906666651,
      "d": 134.6149583333172,
      "v": 75
    },
    {
      "midi": 53,
      "hit": false,
      "t": 177845.5906666651,
      "d": 142.3072416666546,
      "v": 75
    },
    {
      "midi": 83,
      "hit": false,
      "t": 177922.51350000015,
      "d": 211.5377916666912,
      "v": 75
    },
    {
      "midi": 71,
      "hit": false,
      "t": 177922.51350000015,
      "d": 215.3839333333599,
      "v": 68
    },
    {
      "midi": 43,
      "hit": false,
      "t": 177999.43633333177,
      "d": 142.3072416666837,
      "v": 75
    },
    {
      "midi": 48,
      "hit": false,
      "t": 178153.28199999843,
      "d": 213.460862500011,
      "v": 71
    },
    {
      "midi": 52,
      "hit": false,
      "t": 178153.28199999843,
      "d": 217.3070041666797,
      "v": 75
    },
    {
      "midi": 60,
      "hit": false,
      "t": 178153.28199999843,
      "d": 219.2300749999995,
      "v": 74
    },
    {
      "midi": 76,
      "hit": false,
      "t": 178153.28200000015,
      "d": 217.3070041666506,
      "v": 72
    },
    {
      "midi": 84,
      "hit": false,
      "t": 178153.28200000015,
      "d": 217.3070041666506,
      "v": 69
    },
    {
      "midi": 72,
      "hit": false,
      "t": 178153.28200000015,
      "d": 219.23007499997038,
      "v": 70
    },
    {
      "midi": 64,
      "hit": false,
      "t": 178307.1276666668,
      "d": 134.6149583333172,
      "v": 91
    },
    {
      "midi": 76,
      "hit": false,
      "t": 178460.97333333347,
      "d": 140.3841708333348,
      "v": 94
    },
    {
      "midi": 52,
      "hit": false,
      "t": 178614.81899999845,
      "d": 136.5380291666661,
      "v": 89
    },
    {
      "midi": 76,
      "hit": false,
      "t": 178614.81900000013,
      "d": 138.461100000015,
      "v": 95
    },
    {
      "midi": 64,
      "hit": false,
      "t": 178768.6646666651,
      "d": 138.4610999999859,
      "v": 87
    },
    {
      "midi": 86,
      "hit": false,
      "t": 178768.6646666668,
      "d": 136.5380291666661,
      "v": 89
    },
    {
      "midi": 52,
      "hit": false,
      "t": 178922.51033333174,
      "d": 134.6149583333463,
      "v": 94
    },
    {
      "midi": 88,
      "hit": false,
      "t": 178922.51033333346,
      "d": 140.3841708333639,
      "v": 90
    },
    {
      "midi": 64,
      "hit": false,
      "t": 179076.3559999984,
      "d": 136.5380291666661,
      "v": 95
    },
    {
      "midi": 100,
      "hit": false,
      "t": 179076.35600000015,
      "d": 140.3841708333348,
      "v": 97
    },
    {
      "midi": 52,
      "hit": false,
      "t": 179230.20166666506,
      "d": 142.3072416666546,
      "v": 92
    },
    {
      "midi": 88,
      "hit": false,
      "t": 179230.2016666668,
      "d": 142.3072416666546,
      "v": 93
    },
    {
      "midi": 64,
      "hit": false,
      "t": 179384.04733333172,
      "d": 134.6149583333463,
      "v": 87
    },
    {
      "midi": 88,
      "hit": false,
      "t": 179384.04733333347,
      "d": 142.3072416666546,
      "v": 91
    },
    {
      "midi": 52,
      "hit": false,
      "t": 179537.8929999984,
      "d": 140.3841708333348,
      "v": 87
    },
    {
      "midi": 76,
      "hit": false,
      "t": 179537.89300000013,
      "d": 138.4610999999859,
      "v": 88
    },
    {
      "midi": 64,
      "hit": false,
      "t": 179691.73866666507,
      "d": 140.3841708333348,
      "v": 93
    },
    {
      "midi": 88,
      "hit": false,
      "t": 179691.7386666668,
      "d": 140.3841708333348,
      "v": 89
    },
    {
      "midi": 52,
      "hit": false,
      "t": 179845.58433333173,
      "d": 136.5380291666661,
      "v": 95
    },
    {
      "midi": 76,
      "hit": false,
      "t": 179845.58433333345,
      "d": 140.3841708333348,
      "v": 92
    },
    {
      "midi": 64,
      "hit": false,
      "t": 179999.4299999984,
      "d": 219.2300749999995,
      "v": 89
    },
    {
      "midi": 76,
      "hit": false,
      "t": 179999.4300000001,
      "d": 136.5380291666661,
      "v": 96
    },
    {
      "midi": 64,
      "hit": false,
      "t": 180153.27566666677,
      "d": 136.5380291666661,
      "v": 92
    },
    {
      "midi": 76,
      "hit": false,
      "t": 180307.12133333343,
      "d": 142.3072416666546,
      "v": 95
    },
    {
      "midi": 52,
      "hit": false,
      "t": 180460.9669999984,
      "d": 444.2293624999875,
      "v": 91
    },
    {
      "midi": 49,
      "hit": false,
      "t": 180460.9669999984,
      "d": 449.998574999976,
      "v": 92
    },
    {
      "midi": 61,
      "hit": false,
      "t": 180460.9669999984,
      "d": 449.998574999976,
      "v": 91
    },
    {
      "midi": 64,
      "hit": false,
      "t": 180460.9670000001,
      "d": 134.6149583333463,
      "v": 95
    },
    {
      "midi": 76,
      "hit": false,
      "t": 180614.81266666678,
      "d": 134.6149583333463,
      "v": 89
    },
    {
      "midi": 64,
      "hit": false,
      "t": 180768.65833333347,
      "d": 136.5380291666661,
      "v": 93
    },
    {
      "midi": 62,
      "hit": false,
      "t": 180922.5039999984,
      "d": 907.6894333333476,
      "v": 105
    },
    {
      "midi": 50,
      "hit": false,
      "t": 180922.5039999984,
      "d": 909.6125041666673,
      "v": 109
    },
    {
      "midi": 77,
      "hit": false,
      "t": 180922.50400000013,
      "d": 905.7663624999404,
      "v": 114
    },
    {
      "midi": 65,
      "hit": false,
      "t": 181076.3496666668,
      "d": 140.3841708333348,
      "v": 104
    },
    {
      "midi": 64,
      "hit": false,
      "t": 181076.3496666668,
      "d": 142.3072416666546,
      "v": 96
    },
    {
      "midi": 64,
      "hit": false,
      "t": 181230.19533333345,
      "d": 138.4610999999859,
      "v": 104
    },
    {
      "midi": 65,
      "hit": false,
      "t": 181230.19533333345,
      "d": 140.3841708333057,
      "v": 101
    },
    {
      "midi": 62,
      "hit": false,
      "t": 181384.04100000008,
      "d": 136.5380291666661,
      "v": 104
    },
    {
      "midi": 60,
      "hit": false,
      "t": 181384.04100000008,
      "d": 142.3072416666546,
      "v": 99
    },
    {
      "midi": 65,
      "hit": false,
      "t": 181537.88666666675,
      "d": 134.6149583333463,
      "v": 102
    },
    {
      "midi": 64,
      "hit": false,
      "t": 181537.88666666675,
      "d": 140.3841708333348,
      "v": 97
    },
    {
      "midi": 65,
      "hit": false,
      "t": 181691.7323333334,
      "d": 136.5380291666661,
      "v": 101
    },
    {
      "midi": 64,
      "hit": false,
      "t": 181691.7323333334,
      "d": 140.3841708333348,
      "v": 104
    },
    {
      "midi": 53,
      "hit": false,
      "t": 181845.57799999838,
      "d": 903.8432916666789,
      "v": 103
    },
    {
      "midi": 59,
      "hit": false,
      "t": 181845.57799999838,
      "d": 903.8432916666789,
      "v": 103
    },
    {
      "midi": 47,
      "hit": false,
      "t": 181845.57799999838,
      "d": 905.7663624999986,
      "v": 102
    },
    {
      "midi": 65,
      "hit": false,
      "t": 181845.57800000007,
      "d": 442.3062916666677,
      "v": 106
    },
    {
      "midi": 77,
      "hit": false,
      "t": 181845.57800000007,
      "d": 444.2293624999875,
      "v": 111
    },
    {
      "midi": 64,
      "hit": false,
      "t": 181999.42366666673,
      "d": 140.3841708333348,
      "v": 96
    },
    {
      "midi": 64,
      "hit": false,
      "t": 182153.2693333334,
      "d": 142.3072416666546,
      "v": 104
    },
    {
      "midi": 60,
      "hit": false,
      "t": 182307.11500000005,
      "d": 136.5380291666661,
      "v": 104
    },
    {
      "midi": 62,
      "hit": false,
      "t": 182307.11500000005,
      "d": 136.5380291666661,
      "v": 104
    },
    {
      "midi": 64,
      "hit": false,
      "t": 182460.9606666667,
      "d": 134.6149583333463,
      "v": 99
    },
    {
      "midi": 77,
      "hit": false,
      "t": 182537.88350000005,
      "d": 211.5377916666621,
      "v": 102
    },
    {
      "midi": 65,
      "hit": false,
      "t": 182537.88350000005,
      "d": 213.46086249998189,
      "v": 99
    },
    {
      "midi": 53,
      "hit": false,
      "t": 182768.65199999837,
      "d": 215.3839333333308,
      "v": 103
    },
    {
      "midi": 44,
      "hit": false,
      "t": 182768.65199999837,
      "d": 444.2293624999875,
      "v": 107
    },
    {
      "midi": 56,
      "hit": false,
      "t": 182768.65199999837,
      "d": 449.998574999976,
      "v": 105
    },
    {
      "midi": 65,
      "hit": false,
      "t": 182768.65200000003,
      "d": 142.3072416666546,
      "v": 107
    },
    {
      "midi": 77,
      "hit": false,
      "t": 182768.65200000003,
      "d": 292.3067666666466,
      "v": 110
    },
    {
      "midi": 64,
      "hit": false,
      "t": 182922.4976666667,
      "d": 138.4610999999859,
      "v": 96
    },
    {
      "midi": 52,
      "hit": false,
      "t": 183076.3433333317,
      "d": 136.5380291666661,
      "v": 102
    },
    {
      "midi": 76,
      "hit": false,
      "t": 183076.34333333335,
      "d": 140.3841708333348,
      "v": 101
    },
    {
      "midi": 52,
      "hit": false,
      "t": 183230.18899999835,
      "d": 134.6149583333463,
      "v": 100
    },
    {
      "midi": 76,
      "hit": false,
      "t": 183230.189,
      "d": 444.2293624999875,
      "v": 100
    },
    {
      "midi": 64,
      "hit": false,
      "t": 183384.03466666504,
      "d": 134.6149583333463,
      "v": 102
    },
    {
      "midi": 88,
      "hit": false,
      "t": 183384.03466666667,
      "d": 138.4610999999859,
      "v": 101
    },
    {
      "midi": 52,
      "hit": false,
      "t": 183537.88033333173,
      "d": 134.6149583333463,
      "v": 99
    },
    {
      "midi": 88,
      "hit": false,
      "t": 183537.88033333333,
      "d": 138.4610999999859,
      "v": 104
    },
    {
      "midi": 64,
      "hit": false,
      "t": 183691.72599999842,
      "d": 142.3072416666546,
      "v": 103
    },
    {
      "midi": 100,
      "hit": false,
      "t": 183691.726,
      "d": 140.3841708333348,
      "v": 100
    },
    {
      "midi": 52,
      "hit": false,
      "t": 183845.57166666508,
      "d": 138.4610999999859,
      "v": 100
    },
    {
      "midi": 88,
      "hit": false,
      "t": 183845.57166666666,
      "d": 134.6149583333463,
      "v": 96
    },
    {
      "midi": 64,
      "hit": false,
      "t": 183999.41733333174,
      "d": 134.6149583333463,
      "v": 98
    },
    {
      "midi": 88,
      "hit": false,
      "t": 183999.41733333335,
      "d": 140.3841708333348,
      "v": 101
    },
    {
      "midi": 49,
      "hit": false,
      "t": 184153.26299999843,
      "d": 442.3062916666677,
      "v": 100
    },
    {
      "midi": 61,
      "hit": false,
      "t": 184153.26299999843,
      "d": 446.1524333333364,
      "v": 105
    },
    {
      "midi": 52,
      "hit": false,
      "t": 184153.26299999843,
      "d": 448.0755041666562,
      "v": 99
    },
    {
      "midi": 76,
      "hit": false,
      "t": 184153.263,
      "d": 449.998574999976,
      "v": 102
    },
    {
      "midi": 64,
      "hit": false,
      "t": 184460.95433333333,
      "d": 138.4610999999859,
      "v": 102
    },
    {
      "midi": 62,
      "hit": false,
      "t": 184614.79999999842,
      "d": 905.7663624999986,
      "v": 109
    },
    {
      "midi": 50,
      "hit": false,
      "t": 184614.79999999842,
      "d": 909.6125041666673,
      "v": 108
    },
    {
      "midi": 77,
      "hit": false,
      "t": 184614.8,
      "d": 903.8432916666206,
      "v": 111
    },
    {
      "midi": 65,
      "hit": false,
      "t": 184614.8,
      "d": 905.7663624999404,
      "v": 108
    },
    {
      "midi": 64,
      "hit": false,
      "t": 184768.64566666665,
      "d": 138.4610999999859,
      "v": 103
    },
    {
      "midi": 64,
      "hit": false,
      "t": 184922.4913333333,
      "d": 140.3841708333348,
      "v": 100
    },
    {
      "midi": 62,
      "hit": false,
      "t": 185076.33699999997,
      "d": 138.4610999999859,
      "v": 103
    },
    {
      "midi": 60,
      "hit": false,
      "t": 185076.33699999997,
      "d": 140.3841708333057,
      "v": 102
    },
    {
      "midi": 64,
      "hit": false,
      "t": 185230.1826666666,
      "d": 138.4610999999859,
      "v": 99
    },
    {
      "midi": 64,
      "hit": false,
      "t": 185384.02833333326,
      "d": 136.5380291666661,
      "v": 102
    },
    {
      "midi": 53,
      "hit": false,
      "t": 185537.8739999984,
      "d": 903.8432916666789,
      "v": 104
    },
    {
      "midi": 47,
      "hit": false,
      "t": 185537.8739999984,
      "d": 905.7663624999986,
      "v": 107
    },
    {
      "midi": 59,
      "hit": false,
      "t": 185537.8739999984,
      "d": 905.7663624999986,
      "v": 106
    },
    {
      "midi": 77,
      "hit": false,
      "t": 185537.87399999992,
      "d": 442.3062916666968,
      "v": 105
    },
    {
      "midi": 65,
      "hit": false,
      "t": 185537.87399999992,
      "d": 444.2293625000166,
      "v": 104
    },
    {
      "midi": 64,
      "hit": false,
      "t": 185691.71966666658,
      "d": 134.6149583333463,
      "v": 102
    },
    {
      "midi": 64,
      "hit": false,
      "t": 185845.56533333327,
      "d": 134.6149583333463,
      "v": 101
    },
    {
      "midi": 60,
      "hit": false,
      "t": 185999.41099999993,
      "d": 134.6149583333463,
      "v": 97
    },
    {
      "midi": 62,
      "hit": false,
      "t": 185999.41099999993,
      "d": 136.5380291666661,
      "v": 96
    },
    {
      "midi": 64,
      "hit": false,
      "t": 186153.2566666666,
      "d": 140.3841708333348,
      "v": 101
    },
    {
      "midi": 65,
      "hit": false,
      "t": 186230.17949999994,
      "d": 217.3070041666506,
      "v": 103
    },
    {
      "midi": 77,
      "hit": false,
      "t": 186230.17949999994,
      "d": 217.3070041666506,
      "v": 98
    },
    {
      "midi": 44,
      "hit": false,
      "t": 186460.9479999984,
      "d": 442.3062916666677,
      "v": 105
    },
    {
      "midi": 52,
      "hit": false,
      "t": 186460.9479999984,
      "d": 449.9985750000051,
      "v": 105
    },
    {
      "midi": 56,
      "hit": false,
      "t": 186460.9479999984,
      "d": 449.9985750000051,
      "v": 102
    },
    {
      "midi": 64,
      "hit": false,
      "t": 186460.94799999992,
      "d": 140.3841708333348,
      "v": 100
    },
    {
      "midi": 76,
      "hit": false,
      "t": 186614.79366666658,
      "d": 142.3072416666546,
      "v": 101
    },
    {
      "midi": 76,
      "hit": false,
      "t": 186768.63933333324,
      "d": 134.6149583333463,
      "v": 97
    },
    {
      "midi": 64,
      "hit": false,
      "t": 186922.4849999984,
      "d": 140.3841708333348,
      "v": 100
    },
    {
      "midi": 88,
      "hit": false,
      "t": 186922.48499999993,
      "d": 140.3841708333348,
      "v": 97
    },
    {
      "midi": 64,
      "hit": false,
      "t": 187076.33066666508,
      "d": 138.4610999999859,
      "v": 102
    },
    {
      "midi": 88,
      "hit": false,
      "t": 187076.3306666666,
      "d": 140.3841708333348,
      "v": 100
    },
    {
      "midi": 64,
      "hit": false,
      "t": 187230.17633333174,
      "d": 134.6149583333463,
      "v": 104
    },
    {
      "midi": 100,
      "hit": false,
      "t": 187230.17633333325,
      "d": 142.3072416666546,
      "v": 97
    },
    {
      "midi": 64,
      "hit": false,
      "t": 187384.02199999843,
      "d": 140.3841708333348,
      "v": 100
    },
    {
      "midi": 88,
      "hit": false,
      "t": 187384.0219999999,
      "d": 134.6149583333463,
      "v": 102
    },
    {
      "midi": 64,
      "hit": false,
      "t": 187537.8676666651,
      "d": 140.3841708333348,
      "v": 100
    },
    {
      "midi": 88,
      "hit": false,
      "t": 187537.8676666666,
      "d": 134.6149583333463,
      "v": 103
    },
    {
      "midi": 64,
      "hit": false,
      "t": 187691.71333333175,
      "d": 140.3841708333348,
      "v": 104
    },
    {
      "midi": 76,
      "hit": false,
      "t": 187691.7133333333,
      "d": 142.3072416666546,
      "v": 104
    },
    {
      "midi": 71,
      "hit": false,
      "t": 187845.5589999984,
      "d": 448.0755041666562,
      "v": 101
    },
    {
      "midi": 56,
      "hit": false,
      "t": 187845.5589999984,
      "d": 449.998574999976,
      "v": 103
    },
    {
      "midi": 76,
      "hit": false,
      "t": 187845.55899999995,
      "d": 142.3072416666546,
      "v": 100
    },
    {
      "midi": 64,
      "hit": false,
      "t": 187999.4046666666,
      "d": 138.4610999999859,
      "v": 98
    },
    {
      "midi": 76,
      "hit": false,
      "t": 188153.25033333327,
      "d": 136.5380291666661,
      "v": 101
    },
    {
      "midi": 57,
      "hit": false,
      "t": 188307.0959999984,
      "d": 461.5370000000112,
      "v": 105
    },
    {
      "midi": 72,
      "hit": false,
      "t": 188307.0959999984,
      "d": 461.5370000000112,
      "v": 101
    },
    {
      "midi": 64,
      "hit": false,
      "t": 188307.09599999993,
      "d": 142.3072416666546,
      "v": 101
    },
    {
      "midi": 76,
      "hit": false,
      "t": 188460.9416666666,
      "d": 134.6149583333463,
      "v": 96
    },
    {
      "midi": 64,
      "hit": false,
      "t": 188614.78733333328,
      "d": 142.3072416666546,
      "v": 101
    },
    {
      "midi": 56,
      "hit": false,
      "t": 188768.6329999984,
      "d": 461.5370000000112,
      "v": 101
    },
    {
      "midi": 71,
      "hit": false,
      "t": 188768.6329999984,
      "d": 461.5370000000112,
      "v": 96
    },
    {
      "midi": 76,
      "hit": false,
      "t": 188768.63299999994,
      "d": 134.6149583333463,
      "v": 100
    },
    {
      "midi": 64,
      "hit": false,
      "t": 188922.47866666663,
      "d": 138.4610999999859,
      "v": 101
    },
    {
      "midi": 76,
      "hit": false,
      "t": 189076.3243333333,
      "d": 138.4610999999859,
      "v": 104
    },
    {
      "midi": 57,
      "hit": false,
      "t": 189230.1699999984,
      "d": 461.5370000000112,
      "v": 100
    },
    {
      "midi": 72,
      "hit": false,
      "t": 189230.1699999984,
      "d": 461.5370000000112,
      "v": 105
    },
    {
      "midi": 64,
      "hit": false,
      "t": 189230.16999999995,
      "d": 136.5380291666661,
      "v": 98
    },
    {
      "midi": 76,
      "hit": false,
      "t": 189384.01566666662,
      "d": 142.3072416666546,
      "v": 101
    },
    {
      "midi": 64,
      "hit": false,
      "t": 189537.86133333328,
      "d": 138.4610999999859,
      "v": 96
    },
    {
      "midi": 58,
      "hit": false,
      "t": 189691.70699999842,
      "d": 461.5370000000112,
      "v": 96
    },
    {
      "midi": 73,
      "hit": false,
      "t": 189691.70699999842,
      "d": 461.5370000000112,
      "v": 100
    },
    {
      "midi": 76,
      "hit": false,
      "t": 189691.70699999994,
      "d": 136.5380291666661,
      "v": 104
    },
    {
      "midi": 64,
      "hit": false,
      "t": 189845.5526666666,
      "d": 138.4610999999859,
      "v": 100
    },
    {
      "midi": 76,
      "hit": false,
      "t": 189999.39833333326,
      "d": 136.5380291666661,
      "v": 96
    },
    {
      "midi": 59,
      "hit": false,
      "t": 190153.24399999843,
      "d": 923.0739999999932,
      "v": 106
    },
    {
      "midi": 74,
      "hit": false,
      "t": 190153.24399999843,
      "d": 923.0739999999932,
      "v": 108
    },
    {
      "midi": 64,
      "hit": false,
      "t": 190153.24399999992,
      "d": 138.4610999999859,
      "v": 103
    },
    {
      "midi": 76,
      "hit": false,
      "t": 190307.08966666658,
      "d": 136.5380291666661,
      "v": 97
    },
    {
      "midi": 64,
      "hit": false,
      "t": 190460.93533333324,
      "d": 140.3841708333348,
      "v": 100
    },
    {
      "midi": 76,
      "hit": false,
      "t": 190614.7809999999,
      "d": 140.3841708333348,
      "v": 102
    },
    {
      "midi": 64,
      "hit": false,
      "t": 190768.62666666656,
      "d": 142.3072416666546,
      "v": 96
    },
    {
      "midi": 76,
      "hit": false,
      "t": 190922.47233333322,
      "d": 138.4610999999859,
      "v": 99
    },
    {
      "midi": 60,
      "hit": false,
      "t": 191076.31799999843,
      "d": 692.3054999999877,
      "v": 106
    },
    {
      "midi": 75,
      "hit": false,
      "t": 191076.31799999843,
      "d": 692.3054999999877,
      "v": 104
    },
    {
      "midi": 64,
      "hit": false,
      "t": 191230.16366666654,
      "d": 138.4610999999859,
      "v": 100
    },
    {
      "midi": 76,
      "hit": false,
      "t": 191384.00933333318,
      "d": 142.3072416666546,
      "v": 100
    },
    {
      "midi": 64,
      "hit": false,
      "t": 191537.85499999984,
      "d": 142.3072416666837,
      "v": 100
    },
    {
      "midi": 76,
      "hit": false,
      "t": 191691.70066666653,
      "d": 134.6149583333172,
      "v": 99
    },
    {
      "midi": 60,
      "hit": false,
      "t": 191768.62349999842,
      "d": 217.3070041666797,
      "v": 103
    },
    {
      "midi": 75,
      "hit": false,
      "t": 191768.62349999842,
      "d": 219.2300749999995,
      "v": 103
    },
    {
      "midi": 64,
      "hit": false,
      "t": 191845.5463333332,
      "d": 140.3841708333348,
      "v": 100
    },
    {
      "midi": 76,
      "hit": false,
      "t": 191999.3919999984,
      "d": 442.3062916666677,
      "v": 104
    },
    {
      "midi": 61,
      "hit": false,
      "t": 191999.3919999984,
      "d": 2288.454291666654,
      "v": 107
    },
    {
      "midi": 64,
      "hit": false,
      "t": 192153.2376666665,
      "d": 140.3841708333348,
      "v": 101
    },
    {
      "midi": 76,
      "hit": false,
      "t": 192153.2376666665,
      "d": 142.3072416666546,
      "v": 98
    },
    {
      "midi": 76,
      "hit": false,
      "t": 192307.08333333317,
      "d": 134.6149583333463,
      "v": 96
    },
    {
      "midi": 64,
      "hit": false,
      "t": 192307.08333333317,
      "d": 136.5380291666661,
      "v": 99
    },
    {
      "midi": 64,
      "hit": false,
      "t": 192460.92899999983,
      "d": 134.6149583333463,
      "v": 102
    },
    {
      "midi": 76,
      "hit": false,
      "t": 192460.92899999983,
      "d": 138.461100000015,
      "v": 102
    },
    {
      "midi": 76,
      "hit": false,
      "t": 192614.7746666665,
      "d": 134.6149583333463,
      "v": 101
    },
    {
      "midi": 64,
      "hit": false,
      "t": 192614.7746666665,
      "d": 142.3072416666837,
      "v": 103
    },
    {
      "midi": 76,
      "hit": false,
      "t": 192768.62033333318,
      "d": 138.4610999999859,
      "v": 100
    },
    {
      "midi": 64,
      "hit": false,
      "t": 192768.62033333318,
      "d": 142.3072416666546,
      "v": 103
    },
    {
      "midi": 76,
      "hit": false,
      "t": 192922.46599999984,
      "d": 134.6149583333172,
      "v": 98
    },
    {
      "midi": 64,
      "hit": false,
      "t": 192922.46599999984,
      "d": 140.3841708333057,
      "v": 100
    },
    {
      "midi": 64,
      "hit": false,
      "t": 193076.31166666647,
      "d": 136.5380291666661,
      "v": 97
    },
    {
      "midi": 76,
      "hit": false,
      "t": 193076.31166666647,
      "d": 138.4610999999859,
      "v": 103
    },
    {
      "midi": 64,
      "hit": false,
      "t": 193230.1573333331,
      "d": 136.5380291666661,
      "v": 99
    },
    {
      "midi": 76,
      "hit": false,
      "t": 193230.1573333331,
      "d": 142.3072416666546,
      "v": 96
    },
    {
      "midi": 64,
      "hit": false,
      "t": 193384.00299999976,
      "d": 134.6149583333463,
      "v": 103
    },
    {
      "midi": 76,
      "hit": false,
      "t": 193384.00299999976,
      "d": 140.3841708333348,
      "v": 99
    },
    {
      "midi": 76,
      "hit": false,
      "t": 193537.84866666642,
      "d": 136.5380291666661,
      "v": 102
    },
    {
      "midi": 64,
      "hit": false,
      "t": 193537.84866666642,
      "d": 138.4610999999859,
      "v": 98
    },
    {
      "midi": 64,
      "hit": false,
      "t": 193691.6943333331,
      "d": 134.6149583333463,
      "v": 96
    },
    {
      "midi": 76,
      "hit": false,
      "t": 193691.6943333331,
      "d": 140.3841708333348,
      "v": 100
    },
    {
      "midi": 64,
      "hit": false,
      "t": 193845.53999999975,
      "d": 134.6149583333463,
      "v": 104
    },
    {
      "midi": 76,
      "hit": false,
      "t": 193845.53999999975,
      "d": 138.461100000015,
      "v": 108
    },
    {
      "midi": 76,
      "hit": false,
      "t": 193999.38566666644,
      "d": 134.6149583333463,
      "v": 103
    },
    {
      "midi": 64,
      "hit": false,
      "t": 193999.38566666644,
      "d": 138.461100000015,
      "v": 101
    },
    {
      "midi": 64,
      "hit": false,
      "t": 194153.23133333313,
      "d": 142.3072416666546,
      "v": 97
    },
    {
      "midi": 76,
      "hit": false,
      "t": 194153.23133333313,
      "d": 142.3072416666546,
      "v": 102
    },
    {
      "midi": 54,
      "hit": false,
      "t": 194307.0769999984,
      "d": 215.3839333333308,
      "v": 104
    },
    {
      "midi": 75,
      "hit": false,
      "t": 194307.0769999998,
      "d": 136.5380291666661,
      "v": 97
    },
    {
      "midi": 66,
      "hit": false,
      "t": 194307.0769999998,
      "d": 138.4610999999859,
      "v": 100
    },
    {
      "midi": 69,
      "hit": false,
      "t": 194307.0769999998,
      "d": 142.3072416666546,
      "v": 99
    },
    {
      "midi": 66,
      "hit": false,
      "t": 194460.92266666645,
      "d": 134.6149583333463,
      "v": 100
    },
    {
      "midi": 75,
      "hit": false,
      "t": 194460.92266666645,
      "d": 136.5380291666661,
      "v": 101
    },
    {
      "midi": 69,
      "hit": false,
      "t": 194460.92266666645,
      "d": 140.3841708333348,
      "v": 104
    },
    {
      "midi": 69,
      "hit": false,
      "t": 194614.7683333331,
      "d": 136.5380291666661,
      "v": 102
    },
    {
      "midi": 66,
      "hit": false,
      "t": 194614.7683333331,
      "d": 140.3841708333348,
      "v": 103
    },
    {
      "midi": 75,
      "hit": false,
      "t": 194614.7683333331,
      "d": 142.3072416666546,
      "v": 97
    },
    {
      "midi": 56,
      "hit": false,
      "t": 194768.6139999984,
      "d": 215.3839333333308,
      "v": 101
    },
    {
      "midi": 73,
      "hit": false,
      "t": 194768.61399999977,
      "d": 136.5380291666661,
      "v": 105
    },
    {
      "midi": 64,
      "hit": false,
      "t": 194768.61399999977,
      "d": 140.3841708333348,
      "v": 102
    },
    {
      "midi": 68,
      "hit": false,
      "t": 194768.61399999977,
      "d": 142.3072416666546,
      "v": 99
    },
    {
      "midi": 64,
      "hit": false,
      "t": 194922.45966666643,
      "d": 136.5380291666661,
      "v": 96
    },
    {
      "midi": 68,
      "hit": false,
      "t": 194922.45966666643,
      "d": 136.5380291666661,
      "v": 97
    },
    {
      "midi": 73,
      "hit": false,
      "t": 194922.45966666643,
      "d": 136.5380291666661,
      "v": 98
    },
    {
      "midi": 68,
      "hit": false,
      "t": 195076.3053333331,
      "d": 136.5380291666661,
      "v": 98
    },
    {
      "midi": 64,
      "hit": false,
      "t": 195076.3053333331,
      "d": 138.4610999999859,
      "v": 96
    },
    {
      "midi": 73,
      "hit": false,
      "t": 195076.3053333331,
      "d": 138.4610999999859,
      "v": 97
    },
    {
      "midi": 44,
      "hit": false,
      "t": 195230.1509999984,
      "d": 215.3839333333308,
      "v": 103
    },
    {
      "midi": 56,
      "hit": false,
      "t": 195230.1509999984,
      "d": 442.3062916666677,
      "v": 103
    },
    {
      "midi": 63,
      "hit": false,
      "t": 195230.15099999975,
      "d": 136.5380291666661,
      "v": 104
    },
    {
      "midi": 72,
      "hit": false,
      "t": 195230.15099999975,
      "d": 138.4610999999859,
      "v": 99
    },
    {
      "midi": 68,
      "hit": false,
      "t": 195230.15099999975,
      "d": 142.3072416666546,
      "v": 98
    },
    {
      "midi": 72,
      "hit": false,
      "t": 195383.9966666664,
      "d": 134.6149583333463,
      "v": 99
    },
    {
      "midi": 68,
      "hit": false,
      "t": 195383.9966666664,
      "d": 138.461100000015,
      "v": 102
    },
    {
      "midi": 63,
      "hit": false,
      "t": 195383.9966666664,
      "d": 142.3072416666837,
      "v": 101
    },
    {
      "midi": 63,
      "hit": false,
      "t": 195537.8423333331,
      "d": 136.5380291666661,
      "v": 101
    },
    {
      "midi": 68,
      "hit": false,
      "t": 195537.8423333331,
      "d": 136.5380291666661,
      "v": 99
    },
    {
      "midi": 72,
      "hit": false,
      "t": 195537.8423333331,
      "d": 136.5380291666661,
      "v": 104
    },
    {
      "midi": 37,
      "hit": false,
      "t": 195691.68799999842,
      "d": 448.0755041666853,
      "v": 107
    },
    {
      "midi": 49,
      "hit": false,
      "t": 195710.91870833177,
      "d": 1353.841866666684,
      "v": 103
    },
    {
      "midi": 61,
      "hit": false,
      "t": 195730.1494166651,
      "d": 1326.918875000003,
      "v": 100
    },
    {
      "midi": 73,
      "hit": false,
      "t": 195845.53366666642,
      "d": 140.3841708333348,
      "v": 101
    },
    {
      "midi": 61,
      "hit": false,
      "t": 195845.53366666642,
      "d": 142.3072416666546,
      "v": 97
    },
    {
      "midi": 61,
      "hit": false,
      "t": 195999.37933333308,
      "d": 140.3841708333348,
      "v": 101
    },
    {
      "midi": 73,
      "hit": false,
      "t": 195999.37933333308,
      "d": 140.3841708333348,
      "v": 98
    },
    {
      "midi": 61,
      "hit": false,
      "t": 196153.22499999974,
      "d": 138.4610999999859,
      "v": 101
    },
    {
      "midi": 73,
      "hit": false,
      "t": 196153.22499999974,
      "d": 142.3072416666546,
      "v": 103
    },
    {
      "midi": 61,
      "hit": false,
      "t": 196307.0706666664,
      "d": 140.3841708333348,
      "v": 97
    },
    {
      "midi": 73,
      "hit": false,
      "t": 196307.0706666664,
      "d": 142.3072416666546,
      "v": 101
    },
    {
      "midi": 73,
      "hit": false,
      "t": 196460.91633333307,
      "d": 134.6149583333463,
      "v": 98
    },
    {
      "midi": 61,
      "hit": false,
      "t": 196460.91633333307,
      "d": 142.3072416666837,
      "v": 96
    },
    {
      "midi": 73,
      "hit": false,
      "t": 196614.76199999976,
      "d": 136.5380291666661,
      "v": 106
    },
    {
      "midi": 61,
      "hit": false,
      "t": 196614.76199999976,
      "d": 138.4610999999859,
      "v": 104
    },
    {
      "midi": 61,
      "hit": false,
      "t": 196768.60766666642,
      "d": 140.3841708333348,
      "v": 98
    },
    {
      "midi": 73,
      "hit": false,
      "t": 196768.60766666642,
      "d": 140.3841708333348,
      "v": 103
    },
    {
      "midi": 73,
      "hit": false,
      "t": 196922.45333333308,
      "d": 138.4610999999859,
      "v": 98
    },
    {
      "midi": 61,
      "hit": false,
      "t": 196922.45333333308,
      "d": 142.3072416666546,
      "v": 97
    },
    {
      "midi": 56,
      "hit": false,
      "t": 197076.29899999846,
      "d": 446.1524333333364,
      "v": 102
    },
    {
      "midi": 44,
      "hit": false,
      "t": 197076.29899999846,
      "d": 448.0755041666562,
      "v": 102
    },
    {
      "midi": 73,
      "hit": false,
      "t": 197076.29899999974,
      "d": 134.6149583333463,
      "v": 100
    },
    {
      "midi": 61,
      "hit": false,
      "t": 197076.29899999974,
      "d": 142.3072416666837,
      "v": 98
    },
    {
      "midi": 61,
      "hit": false,
      "t": 197230.14466666643,
      "d": 138.4610999999859,
      "v": 101
    },
    {
      "midi": 73,
      "hit": false,
      "t": 197230.14466666643,
      "d": 138.4610999999859,
      "v": 96
    },
    {
      "midi": 61,
      "hit": false,
      "t": 197383.9903333331,
      "d": 136.5380291666661,
      "v": 98
    },
    {
      "midi": 73,
      "hit": false,
      "t": 197383.9903333331,
      "d": 138.4610999999859,
      "v": 102
    },
    {
      "midi": 57,
      "hit": false,
      "t": 197537.83599999844,
      "d": 1365.380291666661,
      "v": 107
    },
    {
      "midi": 45,
      "hit": false,
      "t": 197537.83599999844,
      "d": 1371.1495041666494,
      "v": 110
    },
    {
      "midi": 61,
      "hit": false,
      "t": 197537.83599999975,
      "d": 138.4610999999859,
      "v": 108
    },
    {
      "midi": 73,
      "hit": false,
      "t": 197537.83599999975,
      "d": 140.3841708333057,
      "v": 100
    },
    {
      "midi": 73,
      "hit": false,
      "t": 197691.68166666638,
      "d": 134.6149583333463,
      "v": 102
    },
    {
      "midi": 61,
      "hit": false,
      "t": 197691.68166666638,
      "d": 138.461100000015,
      "v": 101
    },
    {
      "midi": 61,
      "hit": false,
      "t": 197845.52733333307,
      "d": 134.6149583333463,
      "v": 104
    },
    {
      "midi": 73,
      "hit": false,
      "t": 197845.52733333307,
      "d": 140.3841708333348,
      "v": 100
    },
    {
      "midi": 73,
      "hit": false,
      "t": 197999.37299999973,
      "d": 134.6149583333463,
      "v": 98
    },
    {
      "midi": 61,
      "hit": false,
      "t": 197999.37299999973,
      "d": 136.5380291666661,
      "v": 103
    },
    {
      "midi": 73,
      "hit": false,
      "t": 198153.2186666664,
      "d": 134.6149583333463,
      "v": 104
    },
    {
      "midi": 61,
      "hit": false,
      "t": 198153.2186666664,
      "d": 136.5380291666661,
      "v": 101
    },
    {
      "midi": 61,
      "hit": false,
      "t": 198307.06433333305,
      "d": 134.6149583333463,
      "v": 103
    },
    {
      "midi": 73,
      "hit": false,
      "t": 198307.06433333305,
      "d": 134.6149583333463,
      "v": 96
    },
    {
      "midi": 73,
      "hit": false,
      "t": 198460.90999999974,
      "d": 136.5380291666661,
      "v": 104
    },
    {
      "midi": 61,
      "hit": false,
      "t": 198460.90999999974,
      "d": 142.3072416666546,
      "v": 106
    },
    {
      "midi": 73,
      "hit": false,
      "t": 198614.7556666664,
      "d": 138.4610999999859,
      "v": 98
    },
    {
      "midi": 61,
      "hit": false,
      "t": 198614.7556666664,
      "d": 140.3841708333057,
      "v": 99
    },
    {
      "midi": 61,
      "hit": false,
      "t": 198768.60133333303,
      "d": 134.6149583333463,
      "v": 101
    },
    {
      "midi": 73,
      "hit": false,
      "t": 198768.60133333303,
      "d": 136.5380291666661,
      "v": 101
    },
    {
      "midi": 57,
      "hit": false,
      "t": 198922.4469999984,
      "d": 442.3062916666677,
      "v": 104
    },
    {
      "midi": 45,
      "hit": false,
      "t": 198922.4469999984,
      "d": 444.2293624999875,
      "v": 101
    },
    {
      "midi": 61,
      "hit": false,
      "t": 198922.4469999997,
      "d": 142.3072416666546,
      "v": 96
    },
    {
      "midi": 73,
      "hit": false,
      "t": 198922.4469999997,
      "d": 142.3072416666546,
      "v": 100
    },
    {
      "midi": 73,
      "hit": false,
      "t": 199076.29266666636,
      "d": 134.6149583333463,
      "v": 99
    },
    {
      "midi": 61,
      "hit": false,
      "t": 199076.29266666636,
      "d": 140.3841708333348,
      "v": 97
    },
    {
      "midi": 61,
      "hit": false,
      "t": 199230.13833333302,
      "d": 134.6149583333463,
      "v": 101
    },
    {
      "midi": 73,
      "hit": false,
      "t": 199230.13833333302,
      "d": 140.3841708333348,
      "v": 101
    },
    {
      "midi": 33,
      "hit": false,
      "t": 199383.9839999984,
      "d": 448.0755041666853,
      "v": 110
    },
    {
      "midi": 67,
      "hit": false,
      "t": 199383.98399999968,
      "d": 134.6149583333463,
      "v": 105
    },
    {
      "midi": 64,
      "hit": false,
      "t": 199383.98399999968,
      "d": 142.3072416666837,
      "v": 108
    },
    {
      "midi": 73,
      "hit": false,
      "t": 199383.98399999968,
      "d": 142.3072416666837,
      "v": 107
    },
    {
      "midi": 45,
      "hit": false,
      "t": 199403.21470833174,
      "d": 890.381795833353,
      "v": 111
    },
    {
      "midi": 57,
      "hit": false,
      "t": 199422.44541666508,
      "d": 867.3049458333408,
      "v": 109
    },
    {
      "midi": 64,
      "hit": false,
      "t": 199537.82966666637,
      "d": 136.5380291666661,
      "v": 101
    },
    {
      "midi": 73,
      "hit": false,
      "t": 199537.82966666637,
      "d": 138.4610999999859,
      "v": 100
    },
    {
      "midi": 67,
      "hit": false,
      "t": 199537.82966666637,
      "d": 140.3841708333057,
      "v": 98
    },
    {
      "midi": 67,
      "hit": false,
      "t": 199691.675333333,
      "d": 134.6149583333463,
      "v": 100
    },
    {
      "midi": 64,
      "hit": false,
      "t": 199691.675333333,
      "d": 140.3841708333348,
      "v": 103
    },
    {
      "midi": 73,
      "hit": false,
      "t": 199691.675333333,
      "d": 140.3841708333348,
      "v": 101
    },
    {
      "midi": 69,
      "hit": false,
      "t": 199845.52099999966,
      "d": 136.5380291666661,
      "v": 99
    },
    {
      "midi": 64,
      "hit": false,
      "t": 199845.52099999966,
      "d": 138.4610999999859,
      "v": 103
    },
    {
      "midi": 73,
      "hit": false,
      "t": 199845.52099999966,
      "d": 138.4610999999859,
      "v": 101
    },
    {
      "midi": 67,
      "hit": false,
      "t": 199845.52099999966,
      "d": 142.3072416666546,
      "v": 97
    },
    {
      "midi": 67,
      "hit": false,
      "t": 199999.36666666632,
      "d": 134.6149583333463,
      "v": 102
    },
    {
      "midi": 64,
      "hit": false,
      "t": 199999.36666666632,
      "d": 138.461100000015,
      "v": 97
    },
    {
      "midi": 73,
      "hit": false,
      "t": 199999.36666666632,
      "d": 140.3841708333348,
      "v": 98
    },
    {
      "midi": 69,
      "hit": false,
      "t": 199999.36666666632,
      "d": 142.3072416666546,
      "v": 104
    },
    {
      "midi": 64,
      "hit": false,
      "t": 200153.21233333298,
      "d": 136.5380291666661,
      "v": 103
    },
    {
      "midi": 73,
      "hit": false,
      "t": 200153.21233333298,
      "d": 138.4610999999859,
      "v": 99
    },
    {
      "midi": 69,
      "hit": false,
      "t": 200153.21233333298,
      "d": 140.3841708333057,
      "v": 103
    },
    {
      "midi": 67,
      "hit": false,
      "t": 200153.21233333298,
      "d": 142.3072416666255,
      "v": 100
    },
    {
      "midi": 45,
      "hit": false,
      "t": 200307.05799999842,
      "d": 678.8440041666618,
      "v": 106
    },
    {
      "midi": 57,
      "hit": false,
      "t": 200307.05799999842,
      "d": 680.7670749999816,
      "v": 103
    },
    {
      "midi": 73,
      "hit": false,
      "t": 200307.0579999996,
      "d": 136.5380291666661,
      "v": 105
    },
    {
      "midi": 64,
      "hit": false,
      "t": 200307.0579999996,
      "d": 140.3841708333348,
      "v": 106
    },
    {
      "midi": 69,
      "hit": false,
      "t": 200307.0579999996,
      "d": 140.3841708333348,
      "v": 103
    },
    {
      "midi": 67,
      "hit": false,
      "t": 200307.0579999996,
      "d": 142.3072416666546,
      "v": 100
    },
    {
      "midi": 67,
      "hit": false,
      "t": 200460.90366666627,
      "d": 134.6149583333463,
      "v": 98
    },
    {
      "midi": 69,
      "hit": false,
      "t": 200460.90366666627,
      "d": 140.3841708333348,
      "v": 99
    },
    {
      "midi": 64,
      "hit": false,
      "t": 200460.90366666627,
      "d": 142.3072416666546,
      "v": 101
    },
    {
      "midi": 73,
      "hit": false,
      "t": 200460.90366666627,
      "d": 142.3072416666546,
      "v": 101
    },
    {
      "midi": 67,
      "hit": false,
      "t": 200614.74933333293,
      "d": 136.5380291666661,
      "v": 101
    },
    {
      "midi": 69,
      "hit": false,
      "t": 200614.74933333293,
      "d": 138.4610999999859,
      "v": 99
    },
    {
      "midi": 64,
      "hit": false,
      "t": 200614.74933333293,
      "d": 140.3841708333057,
      "v": 102
    },
    {
      "midi": 73,
      "hit": false,
      "t": 200614.74933333293,
      "d": 142.3072416666255,
      "v": 99
    },
    {
      "midi": 69,
      "hit": false,
      "t": 200768.59499999956,
      "d": 134.6149583333463,
      "v": 98
    },
    {
      "midi": 64,
      "hit": false,
      "t": 200768.59499999956,
      "d": 138.461100000015,
      "v": 96
    },
    {
      "midi": 67,
      "hit": false,
      "t": 200768.59499999956,
      "d": 138.461100000015,
      "v": 100
    },
    {
      "midi": 73,
      "hit": false,
      "t": 200768.59499999956,
      "d": 138.461100000015,
      "v": 103
    },
    {
      "midi": 64,
      "hit": false,
      "t": 200922.44066666625,
      "d": 136.5380291666661,
      "v": 97
    },
    {
      "midi": 67,
      "hit": false,
      "t": 200922.44066666625,
      "d": 138.4610999999859,
      "v": 104
    },
    {
      "midi": 69,
      "hit": false,
      "t": 200922.44066666625,
      "d": 138.4610999999859,
      "v": 97
    },
    {
      "midi": 73,
      "hit": false,
      "t": 200922.44066666625,
      "d": 142.3072416666546,
      "v": 102
    },
    {
      "midi": 45,
      "hit": false,
      "t": 200999.3634999984,
      "d": 217.3070041666797,
      "v": 98
    },
    {
      "midi": 57,
      "hit": false,
      "t": 200999.3634999984,
      "d": 219.2300749999995,
      "v": 103
    },
    {
      "midi": 64,
      "hit": false,
      "t": 201076.28633333292,
      "d": 136.5380291666661,
      "v": 96
    },
    {
      "midi": 69,
      "hit": false,
      "t": 201076.28633333292,
      "d": 136.5380291666661,
      "v": 99
    },
    {
      "midi": 73,
      "hit": false,
      "t": 201076.28633333292,
      "d": 136.5380291666661,
      "v": 97
    },
    {
      "midi": 67,
      "hit": false,
      "t": 201076.28633333292,
      "d": 140.3841708333348,
      "v": 101
    },
    {
      "midi": 38,
      "hit": false,
      "t": 201230.1319999984,
      "d": 449.9985750000342,
      "v": 106
    },
    {
      "midi": 74,
      "hit": false,
      "t": 201230.13199999958,
      "d": 138.4610999999859,
      "v": 107
    },
    {
      "midi": 65,
      "hit": false,
      "t": 201230.13199999958,
      "d": 142.3072416666546,
      "v": 106
    },
    {
      "midi": 69,
      "hit": false,
      "t": 201230.13199999958,
      "d": 142.3072416666546,
      "v": 104
    },
    {
      "midi": 50,
      "hit": false,
      "t": 201249.36270833176,
      "d": 1349.9957250000152,
      "v": 107
    },
    {
      "midi": 62,
      "hit": false,
      "t": 201268.5934166651,
      "d": 1330.7650166666717,
      "v": 104
    },
    {
      "midi": 65,
      "hit": false,
      "t": 201383.97766666624,
      "d": 136.5380291666661,
      "v": 97
    },
    {
      "midi": 69,
      "hit": false,
      "t": 201383.97766666624,
      "d": 136.5380291666661,
      "v": 101
    },
    {
      "midi": 74,
      "hit": false,
      "t": 201383.97766666624,
      "d": 136.5380291666661,
      "v": 101
    },
    {
      "midi": 74,
      "hit": false,
      "t": 201537.8233333329,
      "d": 134.6149583333463,
      "v": 104
    },
    {
      "midi": 65,
      "hit": false,
      "t": 201537.8233333329,
      "d": 142.3072416666837,
      "v": 103
    },
    {
      "midi": 69,
      "hit": false,
      "t": 201537.8233333329,
      "d": 142.3072416666837,
      "v": 102
    },
    {
      "midi": 65,
      "hit": false,
      "t": 201691.6689999996,
      "d": 136.5380291666661,
      "v": 98
    },
    {
      "midi": 74,
      "hit": false,
      "t": 201691.6689999996,
      "d": 138.4610999999859,
      "v": 102
    },
    {
      "midi": 69,
      "hit": false,
      "t": 201691.6689999996,
      "d": 142.3072416666546,
      "v": 103
    },
    {
      "midi": 69,
      "hit": false,
      "t": 201845.51466666625,
      "d": 136.5380291666661,
      "v": 96
    },
    {
      "midi": 65,
      "hit": false,
      "t": 201845.51466666625,
      "d": 138.4610999999859,
      "v": 100
    },
    {
      "midi": 74,
      "hit": false,
      "t": 201845.51466666625,
      "d": 142.3072416666546,
      "v": 102
    },
    {
      "midi": 65,
      "hit": false,
      "t": 201999.3603333329,
      "d": 134.6149583333463,
      "v": 100
    },
    {
      "midi": 69,
      "hit": false,
      "t": 201999.3603333329,
      "d": 138.461100000015,
      "v": 101
    },
    {
      "midi": 74,
      "hit": false,
      "t": 201999.3603333329,
      "d": 140.3841708333348,
      "v": 102
    },
    {
      "midi": 65,
      "hit": false,
      "t": 202153.20599999957,
      "d": 136.5380291666661,
      "v": 100
    },
    {
      "midi": 69,
      "hit": false,
      "t": 202153.20599999957,
      "d": 140.3841708333348,
      "v": 100
    },
    {
      "midi": 74,
      "hit": false,
      "t": 202153.20599999957,
      "d": 140.3841708333348,
      "v": 98
    },
    {
      "midi": 65,
      "hit": false,
      "t": 202307.05166666623,
      "d": 134.6149583333463,
      "v": 104
    },
    {
      "midi": 74,
      "hit": false,
      "t": 202307.05166666623,
      "d": 134.6149583333463,
      "v": 99
    },
    {
      "midi": 69,
      "hit": false,
      "t": 202307.05166666623,
      "d": 138.461100000015,
      "v": 103
    },
    {
      "midi": 69,
      "hit": false,
      "t": 202460.89733333292,
      "d": 134.6149583333463,
      "v": 101
    },
    {
      "midi": 65,
      "hit": false,
      "t": 202460.89733333292,
      "d": 142.3072416666837,
      "v": 99
    },
    {
      "midi": 74,
      "hit": false,
      "t": 202460.89733333292,
      "d": 142.3072416666837,
      "v": 97
    },
    {
      "midi": 50,
      "hit": false,
      "t": 202614.74299999845,
      "d": 442.3062916666677,
      "v": 99
    },
    {
      "midi": 62,
      "hit": false,
      "t": 202614.74299999845,
      "d": 446.1524333333364,
      "v": 97
    },
    {
      "midi": 74,
      "hit": false,
      "t": 202614.7429999996,
      "d": 134.6149583333463,
      "v": 104
    },
    {
      "midi": 65,
      "hit": false,
      "t": 202614.7429999996,
      "d": 138.461100000015,
      "v": 102
    },
    {
      "midi": 69,
      "hit": false,
      "t": 202614.7429999996,
      "d": 142.3072416666837,
      "v": 101
    },
    {
      "midi": 74,
      "hit": false,
      "t": 202768.5886666663,
      "d": 138.4610999999859,
      "v": 103
    },
    {
      "midi": 65,
      "hit": false,
      "t": 202768.5886666663,
      "d": 142.3072416666546,
      "v": 100
    },
    {
      "midi": 69,
      "hit": false,
      "t": 202768.5886666663,
      "d": 142.3072416666546,
      "v": 103
    },
    {
      "midi": 65,
      "hit": false,
      "t": 202922.43433333296,
      "d": 134.6149583333463,
      "v": 100
    },
    {
      "midi": 69,
      "hit": false,
      "t": 202922.43433333296,
      "d": 136.5380291666661,
      "v": 103
    },
    {
      "midi": 74,
      "hit": false,
      "t": 202922.43433333296,
      "d": 136.5380291666661,
      "v": 103
    },
    {
      "midi": 43,
      "hit": false,
      "t": 203076.27999999846,
      "d": 448.0755041666853,
      "v": 105
    },
    {
      "midi": 74,
      "hit": false,
      "t": 203076.27999999962,
      "d": 136.5380291666661,
      "v": 105
    },
    {
      "midi": 70,
      "hit": false,
      "t": 203076.27999999962,
      "d": 140.3841708333348,
      "v": 107
    },
    {
      "midi": 64,
      "hit": false,
      "t": 203076.27999999962,
      "d": 142.3072416666546,
      "v": 104
    },
    {
      "midi": 50,
      "hit": false,
      "t": 203095.5107083318,
      "d": 430.7678666666616,
      "v": 101
    },
    {
      "midi": 62,
      "hit": false,
      "t": 203114.74141666514,
      "d": 428.8447958333127,
      "v": 106
    },
    {
      "midi": 70,
      "hit": false,
      "t": 203230.12566666628,
      "d": 138.4610999999859,
      "v": 96
    },
    {
      "midi": 74,
      "hit": false,
      "t": 203230.12566666628,
      "d": 138.4610999999859,
      "v": 102
    },
    {
      "midi": 64,
      "hit": false,
      "t": 203230.12566666628,
      "d": 140.3841708333057,
      "v": 101
    },
    {
      "midi": 74,
      "hit": false,
      "t": 203383.9713333329,
      "d": 136.5380291666661,
      "v": 102
    },
    {
      "midi": 70,
      "hit": false,
      "t": 203383.9713333329,
      "d": 138.4610999999859,
      "v": 97
    },
    {
      "midi": 64,
      "hit": false,
      "t": 203383.9713333329,
      "d": 140.3841708333057,
      "v": 96
    },
    {
      "midi": 58,
      "hit": false,
      "t": 203537.81699999847,
      "d": 213.46086249998189,
      "v": 104
    },
    {
      "midi": 46,
      "hit": false,
      "t": 203537.81699999847,
      "d": 215.38393333330168,
      "v": 98
    },
    {
      "midi": 70,
      "hit": false,
      "t": 203537.81699999954,
      "d": 134.6149583333463,
      "v": 103
    },
    {
      "midi": 64,
      "hit": false,
      "t": 203537.81699999954,
      "d": 142.3072416666837,
      "v": 104
    },
    {
      "midi": 74,
      "hit": false,
      "t": 203537.81699999954,
      "d": 142.3072416666837,
      "v": 96
    },
    {
      "midi": 70,
      "hit": false,
      "t": 203691.66266666623,
      "d": 134.6149583333463,
      "v": 103
    },
    {
      "midi": 64,
      "hit": false,
      "t": 203691.66266666623,
      "d": 138.461100000015,
      "v": 102
    },
    {
      "midi": 74,
      "hit": false,
      "t": 203691.66266666623,
      "d": 142.3072416666837,
      "v": 103
    },
    {
      "midi": 43,
      "hit": false,
      "t": 203768.58549999844,
      "d": 215.3839333333308,
      "v": 97
    },
    {
      "midi": 55,
      "hit": false,
      "t": 203768.58549999844,
      "d": 215.3839333333308,
      "v": 97
    },
    {
      "midi": 70,
      "hit": false,
      "t": 203845.50833333292,
      "d": 134.6149583333463,
      "v": 96
    },
    {
      "midi": 64,
      "hit": false,
      "t": 203845.50833333292,
      "d": 140.3841708333348,
      "v": 102
    },
    {
      "midi": 74,
      "hit": false,
      "t": 203845.50833333292,
      "d": 140.3841708333348,
      "v": 102
    },
    {
      "midi": 40,
      "hit": false,
      "t": 203999.35399999845,
      "d": 446.1524333333364,
      "v": 102
    },
    {
      "midi": 52,
      "hit": false,
      "t": 203999.35399999845,
      "d": 449.9985750000051,
      "v": 101
    },
    {
      "midi": 70,
      "hit": false,
      "t": 203999.35399999958,
      "d": 140.3841708333348,
      "v": 99
    },
    {
      "midi": 64,
      "hit": false,
      "t": 203999.35399999958,
      "d": 142.3072416666546,
      "v": 99
    },
    {
      "midi": 74,
      "hit": false,
      "t": 203999.35399999958,
      "d": 142.3072416666546,
      "v": 102
    },
    {
      "midi": 74,
      "hit": false,
      "t": 204153.19966666625,
      "d": 140.3841708333348,
      "v": 96
    },
    {
      "midi": 64,
      "hit": false,
      "t": 204153.19966666625,
      "d": 142.3072416666546,
      "v": 101
    },
    {
      "midi": 70,
      "hit": false,
      "t": 204153.19966666625,
      "d": 142.3072416666546,
      "v": 98
    },
    {
      "midi": 70,
      "hit": false,
      "t": 204307.0453333329,
      "d": 134.6149583333463,
      "v": 99
    },
    {
      "midi": 74,
      "hit": false,
      "t": 204307.0453333329,
      "d": 134.6149583333463,
      "v": 100
    },
    {
      "midi": 64,
      "hit": false,
      "t": 204307.0453333329,
      "d": 142.3072416666837,
      "v": 99
    },
    {
      "midi": 58,
      "hit": false,
      "t": 204460.89099999846,
      "d": 442.3062916666677,
      "v": 104
    },
    {
      "midi": 46,
      "hit": false,
      "t": 204460.89099999846,
      "d": 448.0755041666562,
      "v": 100
    },
    {
      "midi": 64,
      "hit": false,
      "t": 204460.8909999996,
      "d": 140.3841708333348,
      "v": 100
    },
    {
      "midi": 67,
      "hit": false,
      "t": 204460.8909999996,
      "d": 142.3072416666546,
      "v": 97
    },
    {
      "midi": 74,
      "hit": false,
      "t": 204460.8909999996,
      "d": 142.3072416666546,
      "v": 101
    },
    {
      "midi": 64,
      "hit": false,
      "t": 204614.73666666626,
      "d": 138.4610999999859,
      "v": 101
    },
    {
      "midi": 74,
      "hit": false,
      "t": 204614.73666666626,
      "d": 138.4610999999859,
      "v": 100
    },
    {
      "midi": 67,
      "hit": false,
      "t": 204614.73666666626,
      "d": 140.3841708333057,
      "v": 103
    },
    {
      "midi": 74,
      "hit": false,
      "t": 204768.5823333329,
      "d": 136.5380291666661,
      "v": 97
    },
    {
      "midi": 64,
      "hit": false,
      "t": 204768.5823333329,
      "d": 140.3841708333348,
      "v": 96
    },
    {
      "midi": 67,
      "hit": false,
      "t": 204768.5823333329,
      "d": 142.3072416666546,
      "v": 97
    },
    {
      "midi": 57,
      "hit": false,
      "t": 204922.42799999844,
      "d": 907.6894333333476,
      "v": 107
    },
    {
      "midi": 45,
      "hit": false,
      "t": 204922.42799999844,
      "d": 909.6125041666673,
      "v": 105
    },
    {
      "midi": 65,
      "hit": false,
      "t": 204922.42799999955,
      "d": 136.5380291666661,
      "v": 108
    },
    {
      "midi": 69,
      "hit": false,
      "t": 204922.42799999955,
      "d": 142.3072416666546,
      "v": 106
    },
    {
      "midi": 74,
      "hit": false,
      "t": 204922.42799999955,
      "d": 142.3072416666546,
      "v": 104
    },
    {
      "midi": 65,
      "hit": false,
      "t": 205076.2736666662,
      "d": 136.5380291666661,
      "v": 100
    },
    {
      "midi": 74,
      "hit": false,
      "t": 205076.2736666662,
      "d": 138.4610999999859,
      "v": 103
    },
    {
      "midi": 69,
      "hit": false,
      "t": 205076.2736666662,
      "d": 140.3841708333057,
      "v": 104
    },
    {
      "midi": 65,
      "hit": false,
      "t": 205230.11933333284,
      "d": 142.3072416666546,
      "v": 97
    },
    {
      "midi": 69,
      "hit": false,
      "t": 205230.11933333284,
      "d": 142.3072416666546,
      "v": 102
    },
    {
      "midi": 74,
      "hit": false,
      "t": 205230.11933333284,
      "d": 142.3072416666546,
      "v": 96
    },
    {
      "midi": 65,
      "hit": false,
      "t": 205383.9649999995,
      "d": 134.6149583333463,
      "v": 100
    },
    {
      "midi": 69,
      "hit": false,
      "t": 205383.9649999995,
      "d": 134.6149583333463,
      "v": 99
    },
    {
      "midi": 74,
      "hit": false,
      "t": 205383.9649999995,
      "d": 134.6149583333463,
      "v": 97
    },
    {
      "midi": 65,
      "hit": false,
      "t": 205537.8106666662,
      "d": 134.6149583333463,
      "v": 97
    },
    {
      "midi": 74,
      "hit": false,
      "t": 205537.8106666662,
      "d": 134.6149583333463,
      "v": 100
    },
    {
      "midi": 69,
      "hit": false,
      "t": 205537.8106666662,
      "d": 142.3072416666837,
      "v": 96
    },
    {
      "midi": 65,
      "hit": false,
      "t": 205691.65633333288,
      "d": 136.5380291666661,
      "v": 101
    },
    {
      "midi": 74,
      "hit": false,
      "t": 205691.65633333288,
      "d": 138.4610999999859,
      "v": 102
    },
    {
      "midi": 69,
      "hit": false,
      "t": 205691.65633333288,
      "d": 140.3841708333057,
      "v": 99
    },
    {
      "midi": 33,
      "hit": false,
      "t": 205845.50199999844,
      "d": 448.0755041666853,
      "v": 100
    },
    {
      "midi": 69,
      "hit": false,
      "t": 205845.5019999995,
      "d": 134.6149583333463,
      "v": 106
    },
    {
      "midi": 73,
      "hit": false,
      "t": 205845.5019999995,
      "d": 134.6149583333463,
      "v": 106
    },
    {
      "midi": 64,
      "hit": false,
      "t": 205845.5019999995,
      "d": 140.3841708333348,
      "v": 106
    },
    {
      "midi": 45,
      "hit": false,
      "t": 205864.73270833178,
      "d": 430.7678666666616,
      "v": 101
    },
    {
      "midi": 57,
      "hit": false,
      "t": 205883.96341666512,
      "d": 411.5371583333181,
      "v": 100
    },
    {
      "midi": 64,
      "hit": false,
      "t": 205999.34766666617,
      "d": 138.4610999999859,
      "v": 101
    },
    {
      "midi": 69,
      "hit": false,
      "t": 205999.34766666617,
      "d": 138.4610999999859,
      "v": 103
    },
    {
      "midi": 73,
      "hit": false,
      "t": 205999.34766666617,
      "d": 142.3072416666546,
      "v": 101
    },
    {
      "midi": 64,
      "hit": false,
      "t": 206153.19333333283,
      "d": 136.5380291666661,
      "v": 98
    },
    {
      "midi": 73,
      "hit": false,
      "t": 206153.19333333283,
      "d": 136.5380291666661,
      "v": 103
    },
    {
      "midi": 69,
      "hit": false,
      "t": 206153.19333333283,
      "d": 140.3841708333348,
      "v": 99
    },
    {
      "midi": 45,
      "hit": false,
      "t": 206307.03899999845,
      "d": 444.2293624999875,
      "v": 104
    },
    {
      "midi": 57,
      "hit": false,
      "t": 206307.03899999845,
      "d": 448.0755041666562,
      "v": 102
    },
    {
      "midi": 73,
      "hit": false,
      "t": 206307.0389999995,
      "d": 136.5380291666661,
      "v": 101
    },
    {
      "midi": 64,
      "hit": false,
      "t": 206307.0389999995,
      "d": 140.3841708333348,
      "v": 97
    },
    {
      "midi": 69,
      "hit": false,
      "t": 206307.0389999995,
      "d": 140.3841708333348,
      "v": 103
    },
    {
      "midi": 73,
      "hit": false,
      "t": 206460.88466666616,
      "d": 134.6149583333463,
      "v": 101
    },
    {
      "midi": 69,
      "hit": false,
      "t": 206460.88466666616,
      "d": 136.5380291666661,
      "v": 104
    },
    {
      "midi": 64,
      "hit": false,
      "t": 206460.88466666616,
      "d": 140.3841708333348,
      "v": 96
    },
    {
      "midi": 69,
      "hit": false,
      "t": 206614.73033333282,
      "d": 134.6149583333463,
      "v": 99
    },
    {
      "midi": 64,
      "hit": false,
      "t": 206614.73033333282,
      "d": 136.5380291666661,
      "v": 102
    },
    {
      "midi": 73,
      "hit": false,
      "t": 206614.73033333282,
      "d": 138.4610999999859,
      "v": 104
    },
    {
      "midi": 38,
      "hit": false,
      "t": 206768.57599999843,
      "d": 442.3062916666677,
      "v": 112
    },
    {
      "midi": 50,
      "hit": false,
      "t": 206768.57599999843,
      "d": 444.2293624999875,
      "v": 117
    },
    {
      "midi": 69,
      "hit": false,
      "t": 206768.57599999948,
      "d": 134.6149583333463,
      "v": 118
    },
    {
      "midi": 74,
      "hit": false,
      "t": 206768.57599999948,
      "d": 140.3841708333348,
      "v": 110
    },
    {
      "midi": 65,
      "hit": false,
      "t": 206768.57599999948,
      "d": 142.3072416666546,
      "v": 115
    },
    {
      "midi": 74,
      "hit": false,
      "t": 206922.42166666614,
      "d": 140.3841708333348,
      "v": 109
    },
    {
      "midi": 62,
      "hit": false,
      "t": 206922.42166666614,
      "d": 142.3072416666546,
      "v": 107
    },
    {
      "midi": 62,
      "hit": false,
      "t": 207076.2673333328,
      "d": 134.6149583333463,
      "v": 111
    },
    {
      "midi": 74,
      "hit": false,
      "t": 207076.2673333328,
      "d": 136.5380291666661,
      "v": 114
    },
    {
      "midi": 74,
      "hit": false,
      "t": 207230.11299999946,
      "d": 134.6149583333463,
      "v": 108
    },
    {
      "midi": 62,
      "hit": false,
      "t": 207230.11299999946,
      "d": 140.3841708333348,
      "v": 113
    },
    {
      "midi": 62,
      "hit": false,
      "t": 207383.95866666612,
      "d": 136.5380291666661,
      "v": 113
    },
    {
      "midi": 74,
      "hit": false,
      "t": 207383.95866666612,
      "d": 138.4610999999859,
      "v": 113
    },
    {
      "midi": 62,
      "hit": false,
      "t": 207537.80433333278,
      "d": 142.3072416666546,
      "v": 107
    },
    {
      "midi": 74,
      "hit": false,
      "t": 207537.80433333278,
      "d": 142.3072416666546,
      "v": 109
    },
    {
      "midi": 62,
      "hit": false,
      "t": 207691.64999999944,
      "d": 140.3841708333348,
      "v": 114
    },
    {
      "midi": 74,
      "hit": false,
      "t": 207691.64999999944,
      "d": 140.3841708333348,
      "v": 108
    },
    {
      "midi": 62,
      "hit": false,
      "t": 207845.4956666661,
      "d": 134.6149583333463,
      "v": 110
    },
    {
      "midi": 74,
      "hit": false,
      "t": 207845.4956666661,
      "d": 136.5380291666661,
      "v": 114
    },
    {
      "midi": 62,
      "hit": false,
      "t": 207999.34133333276,
      "d": 140.3841708333348,
      "v": 110
    },
    {
      "midi": 74,
      "hit": false,
      "t": 207999.34133333276,
      "d": 142.3072416666546,
      "v": 109
    },
    {
      "midi": 62,
      "hit": false,
      "t": 208153.18699999942,
      "d": 136.5380291666661,
      "v": 108
    },
    {
      "midi": 74,
      "hit": false,
      "t": 208153.18699999942,
      "d": 140.3841708333348,
      "v": 106
    },
    {
      "midi": 62,
      "hit": false,
      "t": 208307.03266666608,
      "d": 136.5380291666661,
      "v": 107
    },
    {
      "midi": 74,
      "hit": false,
      "t": 208307.03266666608,
      "d": 140.3841708333348,
      "v": 107
    },
    {
      "midi": 74,
      "hit": false,
      "t": 208460.87833333274,
      "d": 140.3841708333348,
      "v": 106
    },
    {
      "midi": 62,
      "hit": false,
      "t": 208460.87833333274,
      "d": 142.3072416666546,
      "v": 110
    },
    {
      "midi": 26,
      "hit": false,
      "t": 208614.72399999842,
      "d": 134.6149583333463,
      "v": 118
    },
    {
      "midi": 38,
      "hit": false,
      "t": 208614.72399999842,
      "d": 140.3841708333348,
      "v": 117
    },
    {
      "midi": 74,
      "hit": false,
      "t": 208614.7239999994,
      "d": 134.6149583333463,
      "v": 112
    },
    {
      "midi": 62,
      "hit": false,
      "t": 208614.7239999994,
      "d": 138.461100000015,
      "v": 118
    },
    {
      "midi": 28,
      "hit": false,
      "t": 208768.56966666508,
      "d": 142.3072416666546,
      "v": 107
    },
    {
      "midi": 40,
      "hit": false,
      "t": 208768.56966666508,
      "d": 142.3072416666546,
      "v": 106
    },
    {
      "midi": 62,
      "hit": false,
      "t": 208768.5696666661,
      "d": 134.6149583333463,
      "v": 114
    },
    {
      "midi": 74,
      "hit": false,
      "t": 208768.5696666661,
      "d": 136.5380291666661,
      "v": 110
    },
    {
      "midi": 41,
      "hit": false,
      "t": 208922.41533333174,
      "d": 140.3841708333348,
      "v": 107
    },
    {
      "midi": 29,
      "hit": false,
      "t": 208922.41533333174,
      "d": 142.3072416666546,
      "v": 107
    },
    {
      "midi": 74,
      "hit": false,
      "t": 208922.41533333276,
      "d": 138.4610999999859,
      "v": 113
    },
    {
      "midi": 62,
      "hit": false,
      "t": 208922.41533333276,
      "d": 142.3072416666546,
      "v": 107
    },
    {
      "midi": 43,
      "hit": false,
      "t": 209076.2609999984,
      "d": 136.5380291666661,
      "v": 110
    },
    {
      "midi": 31,
      "hit": false,
      "t": 209076.2609999984,
      "d": 142.3072416666546,
      "v": 113
    },
    {
      "midi": 74,
      "hit": false,
      "t": 209076.26099999942,
      "d": 134.6149583333463,
      "v": 110
    },
    {
      "midi": 62,
      "hit": false,
      "t": 209076.26099999942,
      "d": 138.461100000015,
      "v": 110
    },
    {
      "midi": 45,
      "hit": false,
      "t": 209230.10666666506,
      "d": 134.6149583333463,
      "v": 107
    },
    {
      "midi": 33,
      "hit": false,
      "t": 209230.10666666506,
      "d": 136.5380291666661,
      "v": 109
    },
    {
      "midi": 62,
      "hit": false,
      "t": 209230.1066666661,
      "d": 136.5380291666661,
      "v": 110
    },
    {
      "midi": 74,
      "hit": false,
      "t": 209230.1066666661,
      "d": 140.3841708333348,
      "v": 109
    },
    {
      "midi": 46,
      "hit": false,
      "t": 209383.95233333172,
      "d": 134.6149583333463,
      "v": 110
    },
    {
      "midi": 34,
      "hit": false,
      "t": 209383.95233333172,
      "d": 140.3841708333348,
      "v": 109
    },
    {
      "midi": 62,
      "hit": false,
      "t": 209383.95233333277,
      "d": 134.6149583333463,
      "v": 108
    },
    {
      "midi": 74,
      "hit": false,
      "t": 209383.95233333277,
      "d": 134.6149583333463,
      "v": 112
    },
    {
      "midi": 33,
      "hit": false,
      "t": 209537.79799999838,
      "d": 213.460862500011,
      "v": 110
    },
    {
      "midi": 45,
      "hit": false,
      "t": 209537.79799999838,
      "d": 215.3839333333308,
      "v": 115
    },
    {
      "midi": 62,
      "hit": false,
      "t": 209537.79799999946,
      "d": 134.6149583333463,
      "v": 114
    },
    {
      "midi": 74,
      "hit": false,
      "t": 209537.79799999946,
      "d": 140.3841708333348,
      "v": 114
    },
    {
      "midi": 74,
      "hit": false,
      "t": 209691.64366666612,
      "d": 134.6149583333463,
      "v": 108
    },
    {
      "midi": 62,
      "hit": false,
      "t": 209691.64366666612,
      "d": 138.461100000015,
      "v": 108
    },
    {
      "midi": 74,
      "hit": false,
      "t": 209845.4893333328,
      "d": 138.4610999999859,
      "v": 107
    },
    {
      "midi": 62,
      "hit": false,
      "t": 209845.4893333328,
      "d": 140.3841708333057,
      "v": 106
    },
    {
      "midi": 41,
      "hit": false,
      "t": 209999.3349999984,
      "d": 215.3839333333308,
      "v": 107
    },
    {
      "midi": 29,
      "hit": false,
      "t": 209999.3349999984,
      "d": 217.3070041666506,
      "v": 113
    },
    {
      "midi": 62,
      "hit": false,
      "t": 209999.33499999944,
      "d": 134.6149583333463,
      "v": 114
    },
    {
      "midi": 74,
      "hit": false,
      "t": 209999.33499999944,
      "d": 134.6149583333463,
      "v": 114
    },
    {
      "midi": 74,
      "hit": false,
      "t": 210153.18066666613,
      "d": 136.5380291666661,
      "v": 114
    },
    {
      "midi": 62,
      "hit": false,
      "t": 210153.18066666613,
      "d": 140.3841708333348,
      "v": 110
    },
    {
      "midi": 62,
      "hit": false,
      "t": 210307.0263333328,
      "d": 142.3072416666546,
      "v": 112
    },
    {
      "midi": 74,
      "hit": false,
      "t": 210307.0263333328,
      "d": 142.3072416666546,
      "v": 111
    },
    {
      "midi": 26,
      "hit": false,
      "t": 210460.87199999837,
      "d": 442.3062916666677,
      "v": 118
    },
    {
      "midi": 38,
      "hit": false,
      "t": 210460.87199999837,
      "d": 446.1524333333364,
      "v": 118
    },
    {
      "midi": 62,
      "hit": false,
      "t": 210460.87199999945,
      "d": 134.6149583333463,
      "v": 112
    },
    {
      "midi": 74,
      "hit": false,
      "t": 210460.87199999945,
      "d": 142.3072416666837,
      "v": 117
    },
    {
      "midi": 74,
      "hit": false,
      "t": 210614.71766666614,
      "d": 134.6149583333463,
      "v": 106
    },
    {
      "midi": 62,
      "hit": false,
      "t": 210614.71766666614,
      "d": 140.3841708333348,
      "v": 106
    },
    {
      "midi": 62,
      "hit": false,
      "t": 210768.5633333328,
      "d": 134.6149583333463,
      "v": 111
    },
    {
      "midi": 74,
      "hit": false,
      "t": 210768.5633333328,
      "d": 136.5380291666661,
      "v": 108
    },
    {
      "midi": 62,
      "hit": false,
      "t": 210922.40899999946,
      "d": 142.3072416666546,
      "v": 108
    },
    {
      "midi": 74,
      "hit": false,
      "t": 210922.40899999946,
      "d": 142.3072416666546,
      "v": 110
    },
    {
      "midi": 74,
      "hit": false,
      "t": 211076.25466666612,
      "d": 136.5380291666661,
      "v": 114
    },
    {
      "midi": 62,
      "hit": false,
      "t": 211076.25466666612,
      "d": 138.4610999999859,
      "v": 113
    },
    {
      "midi": 74,
      "hit": false,
      "t": 211230.10033333278,
      "d": 136.5380291666661,
      "v": 112
    },
    {
      "midi": 62,
      "hit": false,
      "t": 211230.10033333278,
      "d": 140.3841708333348,
      "v": 111
    },
    {
      "midi": 62,
      "hit": false,
      "t": 211383.94599999944,
      "d": 136.5380291666661,
      "v": 113
    },
    {
      "midi": 74,
      "hit": false,
      "t": 211383.94599999944,
      "d": 142.3072416666546,
      "v": 111
    },
    {
      "midi": 62,
      "hit": false,
      "t": 211537.7916666661,
      "d": 138.4610999999859,
      "v": 107
    },
    {
      "midi": 74,
      "hit": false,
      "t": 211537.7916666661,
      "d": 140.3841708333057,
      "v": 110
    },
    {
      "midi": 62,
      "hit": false,
      "t": 211691.63733333274,
      "d": 136.5380291666661,
      "v": 107
    },
    {
      "midi": 74,
      "hit": false,
      "t": 211691.63733333274,
      "d": 138.4610999999859,
      "v": 106
    },
    {
      "midi": 74,
      "hit": false,
      "t": 211845.4829999994,
      "d": 136.5380291666661,
      "v": 110
    },
    {
      "midi": 62,
      "hit": false,
      "t": 211845.4829999994,
      "d": 138.4610999999859,
      "v": 112
    },
    {
      "midi": 62,
      "hit": false,
      "t": 211999.32866666606,
      "d": 134.6149583333463,
      "v": 110
    },
    {
      "midi": 74,
      "hit": false,
      "t": 211999.32866666606,
      "d": 138.461100000015,
      "v": 113
    },
    {
      "midi": 62,
      "hit": false,
      "t": 212153.17433333275,
      "d": 134.6149583333463,
      "v": 106
    },
    {
      "midi": 74,
      "hit": false,
      "t": 212153.17433333275,
      "d": 136.5380291666661,
      "v": 114
    },
    {
      "midi": 38,
      "hit": false,
      "t": 212307.0199999984,
      "d": 140.3841708333348,
      "v": 89
    },
    {
      "midi": 50,
      "hit": false,
      "t": 212307.0199999984,
      "d": 142.3072416666546,
      "v": 85
    },
    {
      "midi": 74,
      "hit": false,
      "t": 212307.0199999994,
      "d": 134.6149583333463,
      "v": 88
    },
    {
      "midi": 62,
      "hit": false,
      "t": 212307.0199999994,
      "d": 138.461100000015,
      "v": 82
    },
    {
      "midi": 52,
      "hit": false,
      "t": 212460.86566666505,
      "d": 138.4610999999859,
      "v": 80
    },
    {
      "midi": 40,
      "hit": false,
      "t": 212460.86566666505,
      "d": 142.3072416666546,
      "v": 84
    },
    {
      "midi": 74,
      "hit": false,
      "t": 212460.8656666661,
      "d": 136.5380291666661,
      "v": 79
    },
    {
      "midi": 62,
      "hit": false,
      "t": 212460.8656666661,
      "d": 142.3072416666546,
      "v": 81
    },
    {
      "midi": 41,
      "hit": false,
      "t": 212614.7113333317,
      "d": 138.4610999999859,
      "v": 81
    },
    {
      "midi": 53,
      "hit": false,
      "t": 212614.7113333317,
      "d": 142.3072416666546,
      "v": 80
    },
    {
      "midi": 62,
      "hit": false,
      "t": 212614.71133333276,
      "d": 134.6149583333463,
      "v": 77
    },
    {
      "midi": 74,
      "hit": false,
      "t": 212614.71133333276,
      "d": 134.6149583333463,
      "v": 80
    },
    {
      "midi": 43,
      "hit": false,
      "t": 212768.55699999837,
      "d": 134.6149583333463,
      "v": 77
    },
    {
      "midi": 55,
      "hit": false,
      "t": 212768.55699999837,
      "d": 134.6149583333463,
      "v": 84
    },
    {
      "midi": 62,
      "hit": false,
      "t": 212768.55699999945,
      "d": 140.3841708333348,
      "v": 79
    },
    {
      "midi": 74,
      "hit": false,
      "t": 212768.55699999945,
      "d": 140.3841708333348,
      "v": 83
    },
    {
      "midi": 57,
      "hit": false,
      "t": 212922.40266666506,
      "d": 140.3841708333348,
      "v": 79
    },
    {
      "midi": 45,
      "hit": false,
      "t": 212922.40266666506,
      "d": 142.3072416666546,
      "v": 78
    },
    {
      "midi": 62,
      "hit": false,
      "t": 212922.4026666661,
      "d": 140.3841708333348,
      "v": 83
    },
    {
      "midi": 74,
      "hit": false,
      "t": 212922.4026666661,
      "d": 142.3072416666546,
      "v": 81
    },
    {
      "midi": 58,
      "hit": false,
      "t": 213076.24833333172,
      "d": 134.6149583333463,
      "v": 82
    },
    {
      "midi": 46,
      "hit": false,
      "t": 213076.24833333172,
      "d": 138.461100000015,
      "v": 80
    },
    {
      "midi": 62,
      "hit": false,
      "t": 213076.24833333277,
      "d": 142.3072416666546,
      "v": 85
    },
    {
      "midi": 74,
      "hit": false,
      "t": 213076.24833333277,
      "d": 142.3072416666546,
      "v": 79
    },
    {
      "midi": 45,
      "hit": false,
      "t": 213230.0939999984,
      "d": 211.5377916666621,
      "v": 85
    },
    {
      "midi": 57,
      "hit": false,
      "t": 213230.0939999984,
      "d": 217.3070041666506,
      "v": 86
    },
    {
      "midi": 74,
      "hit": false,
      "t": 213230.09399999943,
      "d": 134.6149583333463,
      "v": 83
    },
    {
      "midi": 62,
      "hit": false,
      "t": 213230.09399999943,
      "d": 142.3072416666837,
      "v": 81
    },
    {
      "midi": 62,
      "hit": false,
      "t": 213383.93966666612,
      "d": 136.5380291666661,
      "v": 78
    },
    {
      "midi": 74,
      "hit": false,
      "t": 213383.93966666612,
      "d": 142.3072416666546,
      "v": 79
    },
    {
      "midi": 62,
      "hit": false,
      "t": 213537.78533333278,
      "d": 134.6149583333463,
      "v": 77
    },
    {
      "midi": 74,
      "hit": false,
      "t": 213537.78533333278,
      "d": 134.6149583333463,
      "v": 80
    },
    {
      "midi": 41,
      "hit": false,
      "t": 213691.6309999984,
      "d": 219.2300749999995,
      "v": 84
    },
    {
      "midi": 53,
      "hit": false,
      "t": 213691.6309999984,
      "d": 219.2300749999995,
      "v": 81
    },
    {
      "midi": 62,
      "hit": false,
      "t": 213691.63099999947,
      "d": 140.3841708333348,
      "v": 80
    },
    {
      "midi": 74,
      "hit": false,
      "t": 213691.63099999947,
      "d": 140.3841708333348,
      "v": 79
    },
    {
      "midi": 62,
      "hit": false,
      "t": 213845.47666666613,
      "d": 142.3072416666546,
      "v": 83
    },
    {
      "midi": 74,
      "hit": false,
      "t": 213845.47666666613,
      "d": 142.3072416666546,
      "v": 85
    },
    {
      "midi": 62,
      "hit": false,
      "t": 213999.3223333328,
      "d": 136.5380291666661,
      "v": 81
    },
    {
      "midi": 74,
      "hit": false,
      "t": 213999.3223333328,
      "d": 142.3072416666546,
      "v": 79
    },
    {
      "midi": 50,
      "hit": false,
      "t": 214153.1679999984,
      "d": 444.2293624999875,
      "v": 85
    },
    {
      "midi": 38,
      "hit": false,
      "t": 214153.1679999984,
      "d": 446.1524333333073,
      "v": 83
    },
    {
      "midi": 62,
      "hit": false,
      "t": 214153.16799999945,
      "d": 134.6149583333463,
      "v": 89
    },
    {
      "midi": 74,
      "hit": false,
      "t": 214153.16799999945,
      "d": 142.3072416666837,
      "v": 85
    },
    {
      "midi": 74,
      "hit": false,
      "t": 214307.01366666614,
      "d": 134.6149583333463,
      "v": 78
    },
    {
      "midi": 62,
      "hit": false,
      "t": 214307.01366666614,
      "d": 140.3841708333348,
      "v": 82
    },
    {
      "midi": 74,
      "hit": false,
      "t": 214460.8593333328,
      "d": 134.6149583333463,
      "v": 83
    },
    {
      "midi": 62,
      "hit": false,
      "t": 214460.8593333328,
      "d": 138.461100000015,
      "v": 84
    },
    {
      "midi": 62,
      "hit": false,
      "t": 214614.7049999995,
      "d": 134.6149583333463,
      "v": 83
    },
    {
      "midi": 74,
      "hit": false,
      "t": 214614.7049999995,
      "d": 136.5380291666661,
      "v": 85
    },
    {
      "midi": 62,
      "hit": false,
      "t": 214768.55066666615,
      "d": 134.6149583333463,
      "v": 78
    },
    {
      "midi": 74,
      "hit": false,
      "t": 214768.55066666615,
      "d": 142.3072416666837,
      "v": 81
    },
    {
      "midi": 62,
      "hit": false,
      "t": 214922.39633333284,
      "d": 136.5380291666661,
      "v": 79
    },
    {
      "midi": 74,
      "hit": false,
      "t": 214922.39633333284,
      "d": 142.3072416666546,
      "v": 83
    },
    {
      "midi": 74,
      "hit": false,
      "t": 215076.2419999995,
      "d": 134.6149583333463,
      "v": 85
    },
    {
      "midi": 62,
      "hit": false,
      "t": 215076.2419999995,
      "d": 136.5380291666661,
      "v": 80
    },
    {
      "midi": 62,
      "hit": false,
      "t": 215230.08766666616,
      "d": 136.5380291666661,
      "v": 79
    },
    {
      "midi": 74,
      "hit": false,
      "t": 215230.08766666616,
      "d": 138.4610999999859,
      "v": 81
    },
    {
      "midi": 74,
      "hit": false,
      "t": 215383.93333333282,
      "d": 134.6149583333463,
      "v": 82
    },
    {
      "midi": 62,
      "hit": false,
      "t": 215383.93333333282,
      "d": 142.3072416666837,
      "v": 82
    },
    {
      "midi": 50,
      "hit": false,
      "t": 215537.77899999838,
      "d": 142.3072416666546,
      "v": 84
    },
    {
      "midi": 62,
      "hit": false,
      "t": 215537.77899999838,
      "d": 142.3072416666546,
      "v": 82
    },
    {
      "midi": 84,
      "hit": false,
      "t": 215537.77899999951,
      "d": 444.2293624999875,
      "v": 81
    },
    {
      "midi": 74,
      "hit": false,
      "t": 215537.77899999951,
      "d": 446.1524333333073,
      "v": 77
    },
    {
      "midi": 62,
      "hit": false,
      "t": 215691.62466666504,
      "d": 136.5380291666661,
      "v": 85
    },
    {
      "midi": 50,
      "hit": false,
      "t": 215691.62466666504,
      "d": 138.4610999999859,
      "v": 79
    },
    {
      "midi": 62,
      "hit": false,
      "t": 215845.4703333317,
      "d": 140.3841708333348,
      "v": 80
    },
    {
      "midi": 50,
      "hit": false,
      "t": 215845.4703333317,
      "d": 142.3072416666546,
      "v": 83
    },
    {
      "midi": 51,
      "hit": false,
      "t": 215999.31599999836,
      "d": 1826.9172916665557,
      "v": 86
    },
    {
      "midi": 39,
      "hit": false,
      "t": 215999.31599999836,
      "d": 1830.7634333331953,
      "v": 83
    },
    {
      "midi": 79,
      "hit": false,
      "t": 215999.3159999995,
      "d": 140.3841708333348,
      "v": 81
    },
    {
      "midi": 87,
      "hit": false,
      "t": 215999.3159999995,
      "d": 448.07550416662707,
      "v": 81
    },
    {
      "midi": 75,
      "hit": false,
      "t": 215999.3159999995,
      "d": 449.99857499994687,
      "v": 86
    },
    {
      "midi": 55,
      "hit": false,
      "t": 216153.16166666502,
      "d": 136.5380291666661,
      "v": 81
    },
    {
      "midi": 58,
      "hit": false,
      "t": 216153.16166666502,
      "d": 140.3841708333348,
      "v": 83
    },
    {
      "midi": 63,
      "hit": false,
      "t": 216153.16166666502,
      "d": 140.3841708333348,
      "v": 78
    },
    {
      "midi": 67,
      "hit": false,
      "t": 216153.16166666502,
      "d": 140.3841708333348,
      "v": 80
    },
    {
      "midi": 79,
      "hit": false,
      "t": 216153.16166666616,
      "d": 142.3072416666546,
      "v": 82
    },
    {
      "midi": 63,
      "hit": false,
      "t": 216307.00733333168,
      "d": 136.5380291666661,
      "v": 82
    },
    {
      "midi": 58,
      "hit": false,
      "t": 216307.00733333168,
      "d": 138.4610999999859,
      "v": 81
    },
    {
      "midi": 55,
      "hit": false,
      "t": 216307.00733333168,
      "d": 142.3072416666546,
      "v": 80
    },
    {
      "midi": 67,
      "hit": false,
      "t": 216307.00733333168,
      "d": 142.3072416666546,
      "v": 82
    },
    {
      "midi": 79,
      "hit": false,
      "t": 216307.00733333282,
      "d": 138.4610999999859,
      "v": 84
    },
    {
      "midi": 55,
      "hit": false,
      "t": 216460.85299999834,
      "d": 136.5380291666661,
      "v": 84
    },
    {
      "midi": 58,
      "hit": false,
      "t": 216460.85299999834,
      "d": 138.4610999999859,
      "v": 81
    },
    {
      "midi": 63,
      "hit": false,
      "t": 216460.85299999834,
      "d": 138.4610999999859,
      "v": 78
    },
    {
      "midi": 67,
      "hit": false,
      "t": 216460.85299999834,
      "d": 142.3072416666546,
      "v": 79
    },
    {
      "midi": 75,
      "hit": false,
      "t": 216460.85299999945,
      "d": 138.4610999999859,
      "v": 81
    },
    {
      "midi": 79,
      "hit": false,
      "t": 216460.85299999945,
      "d": 140.3841708333057,
      "v": 77
    },
    {
      "midi": 58,
      "hit": false,
      "t": 216614.698666665,
      "d": 136.5380291666661,
      "v": 84
    },
    {
      "midi": 67,
      "hit": false,
      "t": 216614.698666665,
      "d": 136.5380291666661,
      "v": 81
    },
    {
      "midi": 55,
      "hit": false,
      "t": 216614.698666665,
      "d": 138.4610999999859,
      "v": 79
    },
    {
      "midi": 63,
      "hit": false,
      "t": 216614.698666665,
      "d": 138.4610999999859,
      "v": 83
    },
    {
      "midi": 75,
      "hit": false,
      "t": 216614.69866666608,
      "d": 134.6149583333463,
      "v": 77
    },
    {
      "midi": 79,
      "hit": false,
      "t": 216614.69866666608,
      "d": 138.461100000015,
      "v": 83
    },
    {
      "midi": 58,
      "hit": false,
      "t": 216768.54433333167,
      "d": 138.4610999999859,
      "v": 77
    },
    {
      "midi": 67,
      "hit": false,
      "t": 216768.54433333167,
      "d": 138.4610999999859,
      "v": 82
    },
    {
      "midi": 55,
      "hit": false,
      "t": 216768.54433333167,
      "d": 140.3841708333057,
      "v": 79
    },
    {
      "midi": 63,
      "hit": false,
      "t": 216768.54433333167,
      "d": 140.3841708333057,
      "v": 77
    },
    {
      "midi": 79,
      "hit": false,
      "t": 216768.54433333277,
      "d": 136.5380291666661,
      "v": 78
    },
    {
      "midi": 70,
      "hit": false,
      "t": 216768.54433333277,
      "d": 138.4610999999859,
      "v": 85
    },
    {
      "midi": 82,
      "hit": false,
      "t": 216768.54433333277,
      "d": 138.4610999999859,
      "v": 82
    },
    {
      "midi": 75,
      "hit": false,
      "t": 216768.54433333277,
      "d": 140.3841708333057,
      "v": 83
    },
    {
      "midi": 55,
      "hit": false,
      "t": 216922.3899999983,
      "d": 138.4610999999859,
      "v": 84
    },
    {
      "midi": 63,
      "hit": false,
      "t": 216922.3899999983,
      "d": 138.4610999999859,
      "v": 83
    },
    {
      "midi": 67,
      "hit": false,
      "t": 216922.3899999983,
      "d": 138.4610999999859,
      "v": 85
    },
    {
      "midi": 58,
      "hit": false,
      "t": 216922.3899999983,
      "d": 140.3841708333057,
      "v": 82
    },
    {
      "midi": 79,
      "hit": false,
      "t": 216922.3899999994,
      "d": 136.5380291666661,
      "v": 87
    },
    {
      "midi": 75,
      "hit": false,
      "t": 216922.3899999994,
      "d": 138.4610999999859,
      "v": 86
    },
    {
      "midi": 70,
      "hit": false,
      "t": 216922.3899999994,
      "d": 442.3062916666677,
      "v": 87
    },
    {
      "midi": 82,
      "hit": false,
      "t": 216922.3899999994,
      "d": 449.9985750000051,
      "v": 81
    },
    {
      "midi": 55,
      "hit": false,
      "t": 217076.23566666493,
      "d": 134.6149583333463,
      "v": 82
    },
    {
      "midi": 58,
      "hit": false,
      "t": 217076.23566666493,
      "d": 134.6149583333463,
      "v": 84
    },
    {
      "midi": 67,
      "hit": false,
      "t": 217076.23566666493,
      "d": 140.3841708333348,
      "v": 80
    },
    {
      "midi": 63,
      "hit": false,
      "t": 217076.23566666493,
      "d": 142.3072416666546,
      "v": 80
    },
    {
      "midi": 75,
      "hit": false,
      "t": 217076.23566666606,
      "d": 134.6149583333463,
      "v": 78
    },
    {
      "midi": 79,
      "hit": false,
      "t": 217076.23566666606,
      "d": 136.5380291666661,
      "v": 83
    },
    {
      "midi": 55,
      "hit": false,
      "t": 217230.0813333316,
      "d": 134.6149583333463,
      "v": 84
    },
    {
      "midi": 67,
      "hit": false,
      "t": 217230.0813333316,
      "d": 134.6149583333463,
      "v": 77
    },
    {
      "midi": 58,
      "hit": false,
      "t": 217230.0813333316,
      "d": 140.3841708333348,
      "v": 85
    },
    {
      "midi": 63,
      "hit": false,
      "t": 217230.0813333316,
      "d": 142.3072416666546,
      "v": 85
    },
    {
      "midi": 75,
      "hit": false,
      "t": 217230.08133333272,
      "d": 134.6149583333463,
      "v": 82
    },
    {
      "midi": 79,
      "hit": false,
      "t": 217230.08133333272,
      "d": 138.461100000015,
      "v": 82
    },
    {
      "midi": 71,
      "hit": false,
      "t": 217383.92699999825,
      "d": 134.6149583333463,
      "v": 84
    },
    {
      "midi": 58,
      "hit": false,
      "t": 217383.92699999825,
      "d": 136.5380291666661,
      "v": 80
    },
    {
      "midi": 55,
      "hit": false,
      "t": 217383.92699999825,
      "d": 138.4610999999859,
      "v": 81
    },
    {
      "midi": 63,
      "hit": false,
      "t": 217383.92699999825,
      "d": 138.4610999999859,
      "v": 85
    },
    {
      "midi": 82,
      "hit": false,
      "t": 217383.9269999994,
      "d": 138.4610999999859,
      "v": 77
    },
    {
      "midi": 79,
      "hit": false,
      "t": 217383.9269999994,
      "d": 140.3841708333057,
      "v": 79
    },
    {
      "midi": 87,
      "hit": false,
      "t": 217383.9269999994,
      "d": 442.3062916666677,
      "v": 80
    },
    {
      "midi": 75,
      "hit": false,
      "t": 217383.9269999994,
      "d": 444.2293624999875,
      "v": 79
    },
    {
      "midi": 71,
      "hit": false,
      "t": 217537.7726666649,
      "d": 134.6149583333463,
      "v": 84
    },
    {
      "midi": 55,
      "hit": false,
      "t": 217537.7726666649,
      "d": 140.3841708333348,
      "v": 81
    },
    {
      "midi": 58,
      "hit": false,
      "t": 217537.7726666649,
      "d": 140.3841708333348,
      "v": 78
    },
    {
      "midi": 63,
      "hit": false,
      "t": 217537.7726666649,
      "d": 142.3072416666546,
      "v": 83
    },
    {
      "midi": 79,
      "hit": false,
      "t": 217537.77266666605,
      "d": 134.6149583333463,
      "v": 82
    },
    {
      "midi": 82,
      "hit": false,
      "t": 217537.77266666605,
      "d": 138.461100000015,
      "v": 81
    },
    {
      "midi": 55,
      "hit": false,
      "t": 217691.61833333157,
      "d": 134.6149583333463,
      "v": 83
    },
    {
      "midi": 58,
      "hit": false,
      "t": 217691.61833333157,
      "d": 136.5380291666661,
      "v": 83
    },
    {
      "midi": 63,
      "hit": false,
      "t": 217691.61833333157,
      "d": 136.5380291666661,
      "v": 79
    },
    {
      "midi": 71,
      "hit": false,
      "t": 217691.61833333157,
      "d": 136.5380291666661,
      "v": 77
    },
    {
      "midi": 79,
      "hit": false,
      "t": 217691.61833333274,
      "d": 136.5380291666661,
      "v": 82
    },
    {
      "midi": 82,
      "hit": false,
      "t": 217691.61833333274,
      "d": 138.4610999999859,
      "v": 80
    },
    {
      "midi": 51,
      "hit": false,
      "t": 217845.4639999982,
      "d": 1826.9172916665848,
      "v": 82
    },
    {
      "midi": 39,
      "hit": false,
      "t": 217845.4639999982,
      "d": 1834.609574999893,
      "v": 88
    },
    {
      "midi": 80,
      "hit": false,
      "t": 217845.46399999937,
      "d": 136.5380291666661,
      "v": 86
    },
    {
      "midi": 83,
      "hit": false,
      "t": 217845.46399999937,
      "d": 136.5380291666661,
      "v": 85
    },
    {
      "midi": 74,
      "hit": false,
      "t": 217845.46399999937,
      "d": 444.2293624999875,
      "v": 82
    },
    {
      "midi": 86,
      "hit": false,
      "t": 217845.46399999937,
      "d": 449.998574999976,
      "v": 83
    },
    {
      "midi": 56,
      "hit": false,
      "t": 217999.30966666486,
      "d": 138.4610999999859,
      "v": 78
    },
    {
      "midi": 65,
      "hit": false,
      "t": 217999.30966666486,
      "d": 138.4610999999859,
      "v": 77
    },
    {
      "midi": 71,
      "hit": false,
      "t": 217999.30966666486,
      "d": 138.4610999999859,
      "v": 82
    },
    {
      "midi": 62,
      "hit": false,
      "t": 217999.30966666486,
      "d": 140.3841708333057,
      "v": 80
    },
    {
      "midi": 83,
      "hit": false,
      "t": 217999.30966666603,
      "d": 136.5380291666661,
      "v": 77
    },
    {
      "midi": 80,
      "hit": false,
      "t": 217999.30966666603,
      "d": 142.3072416666546,
      "v": 78
    },
    {
      "midi": 71,
      "hit": false,
      "t": 218153.1553333315,
      "d": 134.6149583333463,
      "v": 78
    },
    {
      "midi": 62,
      "hit": false,
      "t": 218153.1553333315,
      "d": 140.3841708333348,
      "v": 81
    },
    {
      "midi": 56,
      "hit": false,
      "t": 218153.1553333315,
      "d": 142.3072416666546,
      "v": 80
    },
    {
      "midi": 65,
      "hit": false,
      "t": 218153.1553333315,
      "d": 142.3072416666546,
      "v": 80
    },
    {
      "midi": 83,
      "hit": false,
      "t": 218153.1553333327,
      "d": 134.6149583333463,
      "v": 80
    },
    {
      "midi": 80,
      "hit": false,
      "t": 218153.1553333327,
      "d": 136.5380291666661,
      "v": 82
    },
    {
      "midi": 71,
      "hit": false,
      "t": 218307.00099999816,
      "d": 134.6149583333463,
      "v": 85
    },
    {
      "midi": 62,
      "hit": false,
      "t": 218307.00099999816,
      "d": 138.461100000015,
      "v": 85
    },
    {
      "midi": 65,
      "hit": false,
      "t": 218307.00099999816,
      "d": 138.461100000015,
      "v": 81
    },
    {
      "midi": 56,
      "hit": false,
      "t": 218307.00099999816,
      "d": 140.3841708333348,
      "v": 81
    },
    {
      "midi": 83,
      "hit": false,
      "t": 218307.00099999935,
      "d": 136.5380291666661,
      "v": 81
    },
    {
      "midi": 80,
      "hit": false,
      "t": 218307.00099999935,
      "d": 138.4610999999859,
      "v": 85
    },
    {
      "midi": 74,
      "hit": false,
      "t": 218307.00099999935,
      "d": 211.5377916666621,
      "v": 83
    },
    {
      "midi": 86,
      "hit": false,
      "t": 218307.00099999935,
      "d": 217.3070041666506,
      "v": 78
    },
    {
      "midi": 62,
      "hit": false,
      "t": 218460.84666666482,
      "d": 134.6149583333463,
      "v": 82
    },
    {
      "midi": 56,
      "hit": false,
      "t": 218460.84666666482,
      "d": 136.5380291666661,
      "v": 82
    },
    {
      "midi": 71,
      "hit": false,
      "t": 218460.84666666482,
      "d": 136.5380291666661,
      "v": 82
    },
    {
      "midi": 65,
      "hit": false,
      "t": 218460.84666666482,
      "d": 140.3841708333348,
      "v": 82
    },
    {
      "midi": 83,
      "hit": false,
      "t": 218460.846666666,
      "d": 138.4610999999859,
      "v": 77
    },
    {
      "midi": 80,
      "hit": false,
      "t": 218460.846666666,
      "d": 140.3841708333057,
      "v": 77
    },
    {
      "midi": 75,
      "hit": false,
      "t": 218537.76949999933,
      "d": 217.3070041666506,
      "v": 80
    },
    {
      "midi": 87,
      "hit": false,
      "t": 218537.76949999933,
      "d": 219.23007499997038,
      "v": 84
    },
    {
      "midi": 62,
      "hit": false,
      "t": 218614.69233333148,
      "d": 136.5380291666661,
      "v": 85
    },
    {
      "midi": 65,
      "hit": false,
      "t": 218614.69233333148,
      "d": 138.4610999999859,
      "v": 83
    },
    {
      "midi": 56,
      "hit": false,
      "t": 218614.69233333148,
      "d": 140.3841708333057,
      "v": 79
    },
    {
      "midi": 71,
      "hit": false,
      "t": 218614.69233333148,
      "d": 142.3072416666255,
      "v": 85
    },
    {
      "midi": 80,
      "hit": false,
      "t": 218614.69233333264,
      "d": 136.5380291666661,
      "v": 84
    },
    {
      "midi": 83,
      "hit": false,
      "t": 218614.69233333264,
      "d": 136.5380291666661,
      "v": 77
    },
    {
      "midi": 62,
      "hit": false,
      "t": 218768.53799999808,
      "d": 134.6149583333463,
      "v": 79
    },
    {
      "midi": 56,
      "hit": false,
      "t": 218768.53799999808,
      "d": 138.461100000015,
      "v": 87
    },
    {
      "midi": 65,
      "hit": false,
      "t": 218768.53799999808,
      "d": 142.3072416666837,
      "v": 84
    },
    {
      "midi": 71,
      "hit": false,
      "t": 218768.53799999808,
      "d": 142.3072416666837,
      "v": 79
    },
    {
      "midi": 80,
      "hit": false,
      "t": 218768.53799999927,
      "d": 134.6149583333463,
      "v": 83
    },
    {
      "midi": 83,
      "hit": false,
      "t": 218768.53799999927,
      "d": 138.461100000015,
      "v": 85
    },
    {
      "midi": 77,
      "hit": false,
      "t": 218768.53799999927,
      "d": 448.0755041666562,
      "v": 81
    },
    {
      "midi": 89,
      "hit": false,
      "t": 218768.53799999927,
      "d": 448.0755041666562,
      "v": 82
    },
    {
      "midi": 56,
      "hit": false,
      "t": 218922.38366666477,
      "d": 136.5380291666661,
      "v": 84
    },
    {
      "midi": 71,
      "hit": false,
      "t": 218922.38366666477,
      "d": 136.5380291666661,
      "v": 81
    },
    {
      "midi": 62,
      "hit": false,
      "t": 218922.38366666477,
      "d": 140.3841708333348,
      "v": 78
    },
    {
      "midi": 65,
      "hit": false,
      "t": 218922.38366666477,
      "d": 142.3072416666546,
      "v": 85
    },
    {
      "midi": 80,
      "hit": false,
      "t": 218922.38366666596,
      "d": 136.5380291666661,
      "v": 83
    },
    {
      "midi": 83,
      "hit": false,
      "t": 218922.38366666596,
      "d": 140.3841708333348,
      "v": 82
    },
    {
      "midi": 56,
      "hit": false,
      "t": 219076.22933333143,
      "d": 136.5380291666661,
      "v": 79
    },
    {
      "midi": 65,
      "hit": false,
      "t": 219076.22933333143,
      "d": 136.5380291666661,
      "v": 77
    },
    {
      "midi": 71,
      "hit": false,
      "t": 219076.22933333143,
      "d": 136.5380291666661,
      "v": 79
    },
    {
      "midi": 62,
      "hit": false,
      "t": 219076.22933333143,
      "d": 140.3841708333348,
      "v": 84
    },
    {
      "midi": 83,
      "hit": false,
      "t": 219076.22933333262,
      "d": 136.5380291666661,
      "v": 78
    },
    {
      "midi": 80,
      "hit": false,
      "t": 219076.22933333262,
      "d": 138.4610999999859,
      "v": 84
    },
    {
      "midi": 62,
      "hit": false,
      "t": 219230.0749999981,
      "d": 134.6149583333463,
      "v": 78
    },
    {
      "midi": 71,
      "hit": false,
      "t": 219230.0749999981,
      "d": 134.6149583333463,
      "v": 84
    },
    {
      "midi": 56,
      "hit": false,
      "t": 219230.0749999981,
      "d": 142.3072416666837,
      "v": 78
    },
    {
      "midi": 65,
      "hit": false,
      "t": 219230.0749999981,
      "d": 142.3072416666837,
      "v": 78
    },
    {
      "midi": 80,
      "hit": false,
      "t": 219230.07499999925,
      "d": 140.3841708333348,
      "v": 85
    },
    {
      "midi": 83,
      "hit": false,
      "t": 219230.07499999925,
      "d": 142.3072416666546,
      "v": 84
    },
    {
      "midi": 75,
      "hit": false,
      "t": 219230.07499999925,
      "d": 211.5377916666621,
      "v": 78
    },
    {
      "midi": 87,
      "hit": false,
      "t": 219230.07499999925,
      "d": 211.5377916666621,
      "v": 84
    },
    {
      "midi": 56,
      "hit": false,
      "t": 219383.92066666478,
      "d": 134.6149583333463,
      "v": 77
    },
    {
      "midi": 71,
      "hit": false,
      "t": 219383.92066666478,
      "d": 138.461100000015,
      "v": 79
    },
    {
      "midi": 65,
      "hit": false,
      "t": 219383.92066666478,
      "d": 140.3841708333348,
      "v": 82
    },
    {
      "midi": 62,
      "hit": false,
      "t": 219383.92066666478,
      "d": 142.3072416666546,
      "v": 84
    },
    {
      "midi": 83,
      "hit": false,
      "t": 219383.92066666592,
      "d": 136.5380291666661,
      "v": 81
    },
    {
      "midi": 80,
      "hit": false,
      "t": 219383.92066666592,
      "d": 138.4610999999859,
      "v": 84
    },
    {
      "midi": 86,
      "hit": false,
      "t": 219460.84349999926,
      "d": 213.46086249998189,
      "v": 79
    },
    {
      "midi": 74,
      "hit": false,
      "t": 219460.84349999926,
      "d": 215.38393333330168,
      "v": 81
    },
    {
      "midi": 62,
      "hit": false,
      "t": 219537.76633333144,
      "d": 136.5380291666661,
      "v": 81
    },
    {
      "midi": 65,
      "hit": false,
      "t": 219537.76633333144,
      "d": 136.5380291666661,
      "v": 85
    },
    {
      "midi": 56,
      "hit": false,
      "t": 219537.76633333144,
      "d": 140.3841708333348,
      "v": 77
    },
    {
      "midi": 71,
      "hit": false,
      "t": 219537.76633333144,
      "d": 140.3841708333348,
      "v": 79
    },
    {
      "midi": 84,
      "hit": false,
      "t": 219537.76633333258,
      "d": 136.5380291666661,
      "v": 80
    },
    {
      "midi": 80,
      "hit": false,
      "t": 219537.76633333258,
      "d": 140.3841708333057,
      "v": 78
    },
    {
      "midi": 39,
      "hit": false,
      "t": 219691.61199999807,
      "d": 1838.4557166665327,
      "v": 89
    },
    {
      "midi": 51,
      "hit": false,
      "t": 219691.61199999807,
      "d": 1838.4557166665327,
      "v": 87
    },
    {
      "midi": 75,
      "hit": false,
      "t": 219691.6119999992,
      "d": 905.7663624999695,
      "v": 81
    },
    {
      "midi": 87,
      "hit": false,
      "t": 219691.6119999992,
      "d": 905.7663624999695,
      "v": 86
    },
    {
      "midi": 63,
      "hit": false,
      "t": 219845.45766666473,
      "d": 134.6149583333463,
      "v": 78
    },
    {
      "midi": 70,
      "hit": false,
      "t": 219845.45766666473,
      "d": 136.5380291666661,
      "v": 78
    },
    {
      "midi": 54,
      "hit": false,
      "t": 219845.45766666473,
      "d": 140.3841708333348,
      "v": 81
    },
    {
      "midi": 59,
      "hit": false,
      "t": 219845.45766666473,
      "d": 140.3841708333348,
      "v": 80
    },
    {
      "midi": 79,
      "hit": false,
      "t": 219845.45766666587,
      "d": 138.4610999999859,
      "v": 81
    },
    {
      "midi": 82,
      "hit": false,
      "t": 219845.45766666587,
      "d": 142.3072416666546,
      "v": 81
    },
    {
      "midi": 59,
      "hit": false,
      "t": 219999.3033333314,
      "d": 138.4610999999859,
      "v": 85
    },
    {
      "midi": 70,
      "hit": false,
      "t": 219999.3033333314,
      "d": 138.4610999999859,
      "v": 80
    },
    {
      "midi": 63,
      "hit": false,
      "t": 219999.3033333314,
      "d": 140.3841708333057,
      "v": 81
    },
    {
      "midi": 54,
      "hit": false,
      "t": 219999.3033333314,
      "d": 142.3072416666255,
      "v": 78
    },
    {
      "midi": 79,
      "hit": false,
      "t": 219999.30333333253,
      "d": 138.4610999999859,
      "v": 84
    },
    {
      "midi": 82,
      "hit": false,
      "t": 219999.30333333253,
      "d": 142.3072416666546,
      "v": 83
    },
    {
      "midi": 59,
      "hit": false,
      "t": 220153.14899999803,
      "d": 134.6149583333463,
      "v": 81
    },
    {
      "midi": 54,
      "hit": false,
      "t": 220153.14899999803,
      "d": 140.3841708333348,
      "v": 81
    },
    {
      "midi": 70,
      "hit": false,
      "t": 220153.14899999803,
      "d": 140.3841708333348,
      "v": 81
    },
    {
      "midi": 63,
      "hit": false,
      "t": 220153.14899999803,
      "d": 142.3072416666546,
      "v": 80
    },
    {
      "midi": 79,
      "hit": false,
      "t": 220153.1489999992,
      "d": 142.3072416666546,
      "v": 82
    },
    {
      "midi": 82,
      "hit": false,
      "t": 220153.1489999992,
      "d": 142.3072416666546,
      "v": 78
    },
    {
      "midi": 59,
      "hit": false,
      "t": 220306.9946666647,
      "d": 136.5380291666661,
      "v": 82
    },
    {
      "midi": 54,
      "hit": false,
      "t": 220306.9946666647,
      "d": 140.3841708333348,
      "v": 79
    },
    {
      "midi": 63,
      "hit": false,
      "t": 220306.9946666647,
      "d": 140.3841708333348,
      "v": 79
    },
    {
      "midi": 70,
      "hit": false,
      "t": 220306.9946666647,
      "d": 140.3841708333348,
      "v": 80
    },
    {
      "midi": 79,
      "hit": false,
      "t": 220306.99466666585,
      "d": 136.5380291666661,
      "v": 85
    },
    {
      "midi": 82,
      "hit": false,
      "t": 220306.99466666585,
      "d": 140.3841708333348,
      "v": 80
    },
    {
      "midi": 54,
      "hit": false,
      "t": 220460.84033333135,
      "d": 134.6149583333463,
      "v": 81
    },
    {
      "midi": 63,
      "hit": false,
      "t": 220460.84033333135,
      "d": 136.5380291666661,
      "v": 79
    },
    {
      "midi": 59,
      "hit": false,
      "t": 220460.84033333135,
      "d": 138.4610999999859,
      "v": 82
    },
    {
      "midi": 70,
      "hit": false,
      "t": 220460.84033333135,
      "d": 138.4610999999859,
      "v": 84
    },
    {
      "midi": 79,
      "hit": false,
      "t": 220460.8403333325,
      "d": 136.5380291666661,
      "v": 81
    },
    {
      "midi": 82,
      "hit": false,
      "t": 220460.8403333325,
      "d": 140.3841708333348,
      "v": 80
    },
    {
      "midi": 63,
      "hit": false,
      "t": 220614.68599999798,
      "d": 134.6149583333463,
      "v": 81
    },
    {
      "midi": 54,
      "hit": false,
      "t": 220614.68599999798,
      "d": 136.5380291666661,
      "v": 81
    },
    {
      "midi": 59,
      "hit": false,
      "t": 220614.68599999798,
      "d": 138.4610999999859,
      "v": 82
    },
    {
      "midi": 70,
      "hit": false,
      "t": 220614.68599999798,
      "d": 138.4610999999859,
      "v": 86
    },
    {
      "midi": 82,
      "hit": false,
      "t": 220614.68599999917,
      "d": 136.5380291666661,
      "v": 79
    },
    {
      "midi": 79,
      "hit": false,
      "t": 220614.68599999917,
      "d": 140.3841708333348,
      "v": 85
    },
    {
      "midi": 54,
      "hit": false,
      "t": 220768.53166666464,
      "d": 134.6149583333463,
      "v": 81
    },
    {
      "midi": 63,
      "hit": false,
      "t": 220768.53166666464,
      "d": 138.461100000015,
      "v": 82
    },
    {
      "midi": 59,
      "hit": false,
      "t": 220768.53166666464,
      "d": 140.3841708333348,
      "v": 83
    },
    {
      "midi": 70,
      "hit": false,
      "t": 220768.53166666464,
      "d": 142.3072416666546,
      "v": 85
    },
    {
      "midi": 82,
      "hit": false,
      "t": 220768.53166666583,
      "d": 134.6149583333463,
      "v": 83
    },
    {
      "midi": 79,
      "hit": false,
      "t": 220768.53166666583,
      "d": 138.461100000015,
      "v": 84
    },
    {
      "midi": 70,
      "hit": false,
      "t": 220922.3773333313,
      "d": 134.6149583333463,
      "v": 78
    },
    {
      "midi": 63,
      "hit": false,
      "t": 220922.3773333313,
      "d": 138.461100000015,
      "v": 78
    },
    {
      "midi": 54,
      "hit": false,
      "t": 220922.3773333313,
      "d": 140.3841708333348,
      "v": 84
    },
    {
      "midi": 59,
      "hit": false,
      "t": 220922.3773333313,
      "d": 140.3841708333348,
      "v": 81
    },
    {
      "midi": 82,
      "hit": false,
      "t": 220922.37733333252,
      "d": 136.5380291666661,
      "v": 79
    },
    {
      "midi": 79,
      "hit": false,
      "t": 220922.37733333252,
      "d": 138.4610999999859,
      "v": 83
    },
    {
      "midi": 59,
      "hit": false,
      "t": 221076.22299999796,
      "d": 134.6149583333463,
      "v": 81
    },
    {
      "midi": 54,
      "hit": false,
      "t": 221076.22299999796,
      "d": 136.5380291666661,
      "v": 84
    },
    {
      "midi": 63,
      "hit": false,
      "t": 221076.22299999796,
      "d": 136.5380291666661,
      "v": 80
    },
    {
      "midi": 70,
      "hit": false,
      "t": 221076.22299999796,
      "d": 142.3072416666546,
      "v": 84
    },
    {
      "midi": 82,
      "hit": false,
      "t": 221076.22299999918,
      "d": 134.6149583333463,
      "v": 82
    },
    {
      "midi": 79,
      "hit": false,
      "t": 221076.22299999918,
      "d": 142.3072416666837,
      "v": 79
    },
    {
      "midi": 74,
      "hit": false,
      "t": 221076.22299999918,
      "d": 444.2293625000166,
      "v": 84
    },
    {
      "midi": 86,
      "hit": false,
      "t": 221076.22299999918,
      "d": 449.9985750000051,
      "v": 78
    },
    {
      "midi": 63,
      "hit": false,
      "t": 221230.06866666462,
      "d": 134.6149583333463,
      "v": 78
    },
    {
      "midi": 70,
      "hit": false,
      "t": 221230.06866666462,
      "d": 136.5380291666661,
      "v": 78
    },
    {
      "midi": 59,
      "hit": false,
      "t": 221230.06866666462,
      "d": 140.3841708333348,
      "v": 79
    },
    {
      "midi": 54,
      "hit": false,
      "t": 221230.06866666462,
      "d": 142.3072416666546,
      "v": 83
    },
    {
      "midi": 82,
      "hit": false,
      "t": 221230.06866666587,
      "d": 140.3841708333348,
      "v": 82
    },
    {
      "midi": 79,
      "hit": false,
      "t": 221230.06866666587,
      "d": 142.3072416666546,
      "v": 79
    },
    {
      "midi": 54,
      "hit": false,
      "t": 221383.91433333128,
      "d": 136.5380291666661,
      "v": 81
    },
    {
      "midi": 70,
      "hit": false,
      "t": 221383.91433333128,
      "d": 138.4610999999859,
      "v": 85
    },
    {
      "midi": 59,
      "hit": false,
      "t": 221383.91433333128,
      "d": 142.3072416666546,
      "v": 81
    },
    {
      "midi": 63,
      "hit": false,
      "t": 221383.91433333128,
      "d": 142.3072416666546,
      "v": 81
    },
    {
      "midi": 82,
      "hit": false,
      "t": 221383.91433333253,
      "d": 134.6149583333463,
      "v": 84
    },
    {
      "midi": 79,
      "hit": false,
      "t": 221383.91433333253,
      "d": 138.4610999999859,
      "v": 78
    },
    {
      "midi": 43,
      "hit": false,
      "t": 221537.7599999979,
      "d": 903.8432916665915,
      "v": 89
    },
    {
      "midi": 55,
      "hit": false,
      "t": 221537.7599999979,
      "d": 903.8432916665915,
      "v": 82
    },
    {
      "midi": 73,
      "hit": false,
      "t": 221537.75999999917,
      "d": 907.6894333333184,
      "v": 88
    },
    {
      "midi": 85,
      "hit": false,
      "t": 221537.75999999917,
      "d": 907.6894333333184,
      "v": 82
    },
    {
      "midi": 64,
      "hit": false,
      "t": 221691.60566666457,
      "d": 138.4610999999859,
      "v": 83
    },
    {
      "midi": 59,
      "hit": false,
      "t": 221691.60566666457,
      "d": 140.3841708333057,
      "v": 81
    },
    {
      "midi": 60,
      "hit": false,
      "t": 221691.60566666457,
      "d": 140.3841708333057,
      "v": 84
    },
    {
      "midi": 67,
      "hit": false,
      "t": 221691.60566666583,
      "d": 136.5380291666661,
      "v": 82
    },
    {
      "midi": 70,
      "hit": false,
      "t": 221691.60566666583,
      "d": 140.3841708333348,
      "v": 78
    },
    {
      "midi": 60,
      "hit": false,
      "t": 221845.4513333312,
      "d": 138.4610999999859,
      "v": 83
    },
    {
      "midi": 59,
      "hit": false,
      "t": 221845.4513333312,
      "d": 140.3841708333057,
      "v": 79
    },
    {
      "midi": 64,
      "hit": false,
      "t": 221845.4513333312,
      "d": 140.3841708333057,
      "v": 79
    },
    {
      "midi": 70,
      "hit": false,
      "t": 221845.4513333325,
      "d": 134.6149583333463,
      "v": 85
    },
    {
      "midi": 67,
      "hit": false,
      "t": 221845.4513333325,
      "d": 142.3072416666837,
      "v": 85
    },
    {
      "midi": 59,
      "hit": false,
      "t": 221999.29699999784,
      "d": 140.3841708333348,
      "v": 84
    },
    {
      "midi": 60,
      "hit": false,
      "t": 221999.29699999784,
      "d": 140.3841708333348,
      "v": 77
    },
    {
      "midi": 64,
      "hit": false,
      "t": 221999.29699999784,
      "d": 142.3072416666546,
      "v": 83
    },
    {
      "midi": 70,
      "hit": false,
      "t": 221999.29699999918,
      "d": 136.5380291666661,
      "v": 80
    },
    {
      "midi": 67,
      "hit": false,
      "t": 221999.29699999918,
      "d": 142.3072416666546,
      "v": 82
    },
    {
      "midi": 59,
      "hit": false,
      "t": 222153.1426666645,
      "d": 134.6149583333463,
      "v": 85
    },
    {
      "midi": 64,
      "hit": false,
      "t": 222153.1426666645,
      "d": 138.461100000015,
      "v": 81
    },
    {
      "midi": 60,
      "hit": false,
      "t": 222153.1426666645,
      "d": 140.3841708333348,
      "v": 78
    },
    {
      "midi": 67,
      "hit": false,
      "t": 222153.14266666584,
      "d": 136.5380291666661,
      "v": 84
    },
    {
      "midi": 70,
      "hit": false,
      "t": 222153.14266666584,
      "d": 138.4610999999859,
      "v": 84
    },
    {
      "midi": 60,
      "hit": false,
      "t": 222306.98833333116,
      "d": 134.6149583333463,
      "v": 83
    },
    {
      "midi": 59,
      "hit": false,
      "t": 222306.98833333116,
      "d": 142.3072416666837,
      "v": 79
    },
    {
      "midi": 64,
      "hit": false,
      "t": 222306.98833333116,
      "d": 142.3072416666837,
      "v": 83
    },
    {
      "midi": 70,
      "hit": false,
      "t": 222306.9883333325,
      "d": 134.6149583333463,
      "v": 85
    },
    {
      "midi": 67,
      "hit": false,
      "t": 222306.9883333325,
      "d": 136.5380291666661,
      "v": 84
    },
    {
      "midi": 55,
      "hit": false,
      "t": 222460.83399999782,
      "d": 444.2293625000166,
      "v": 84
    },
    {
      "midi": 43,
      "hit": false,
      "t": 222460.83399999782,
      "d": 446.1524333333364,
      "v": 80
    },
    {
      "midi": 73,
      "hit": false,
      "t": 222460.83399999913,
      "d": 444.2293624999875,
      "v": 84
    },
    {
      "midi": 85,
      "hit": false,
      "t": 222460.83399999913,
      "d": 449.998574999976,
      "v": 84
    },
    {
      "midi": 59,
      "hit": false,
      "t": 222614.67966666448,
      "d": 134.6149583333463,
      "v": 79
    },
    {
      "midi": 60,
      "hit": false,
      "t": 222614.67966666448,
      "d": 138.461100000015,
      "v": 85
    },
    {
      "midi": 64,
      "hit": false,
      "t": 222614.67966666448,
      "d": 138.461100000015,
      "v": 77
    },
    {
      "midi": 70,
      "hit": false,
      "t": 222614.6796666658,
      "d": 140.3841708333348,
      "v": 78
    },
    {
      "midi": 67,
      "hit": false,
      "t": 222614.6796666658,
      "d": 144.2303125000035,
      "v": 80
    },
    {
      "midi": 60,
      "hit": false,
      "t": 222768.52533333117,
      "d": 134.6149583333463,
      "v": 81
    },
    {
      "midi": 64,
      "hit": false,
      "t": 222768.52533333117,
      "d": 136.5380291666661,
      "v": 78
    },
    {
      "midi": 59,
      "hit": false,
      "t": 222768.52533333117,
      "d": 140.3841708333057,
      "v": 84
    },
    {
      "midi": 70,
      "hit": false,
      "t": 222768.52533333245,
      "d": 140.3841708333348,
      "v": 82
    },
    {
      "midi": 67,
      "hit": false,
      "t": 222768.52533333245,
      "d": 146.1533833333233,
      "v": 78
    },
    {
      "midi": 55,
      "hit": false,
      "t": 222922.3709999978,
      "d": 446.1524333333073,
      "v": 78
    },
    {
      "midi": 43,
      "hit": false,
      "t": 222922.3709999978,
      "d": 448.07550416662707,
      "v": 83
    },
    {
      "midi": 72,
      "hit": false,
      "t": 222922.3709999991,
      "d": 449.99857499994687,
      "v": 84
    },
    {
      "midi": 85,
      "hit": false,
      "t": 222922.3709999991,
      "d": 449.99857499994687,
      "v": 85
    },
    {
      "midi": 64,
      "hit": false,
      "t": 223076.21666666446,
      "d": 134.6149583333463,
      "v": 77
    },
    {
      "midi": 60,
      "hit": false,
      "t": 223076.21666666446,
      "d": 140.3841708333348,
      "v": 77
    },
    {
      "midi": 59,
      "hit": false,
      "t": 223076.21666666446,
      "d": 142.3072416666546,
      "v": 81
    },
    {
      "midi": 67,
      "hit": false,
      "t": 223076.21666666577,
      "d": 138.4610999999859,
      "v": 77
    },
    {
      "midi": 70,
      "hit": false,
      "t": 223076.21666666577,
      "d": 138.4610999999859,
      "v": 79
    },
    {
      "midi": 59,
      "hit": false,
      "t": 223230.06233333112,
      "d": 134.6149583333463,
      "v": 78
    },
    {
      "midi": 64,
      "hit": false,
      "t": 223230.06233333112,
      "d": 136.5380291666661,
      "v": 77
    },
    {
      "midi": 60,
      "hit": false,
      "t": 223230.06233333112,
      "d": 138.4610999999859,
      "v": 79
    },
    {
      "midi": 67,
      "hit": false,
      "t": 223230.06233333243,
      "d": 138.4610999999859,
      "v": 83
    },
    {
      "midi": 70,
      "hit": false,
      "t": 223230.06233333243,
      "d": 140.3841708333057,
      "v": 77
    },
    {
      "midi": 44,
      "hit": false,
      "t": 223383.90799999775,
      "d": 907.6894333332893,
      "v": 81
    },
    {
      "midi": 56,
      "hit": false,
      "t": 223383.90799999775,
      "d": 907.6894333332893,
      "v": 87
    },
    {
      "midi": 86,
      "hit": false,
      "t": 223383.90799999904,
      "d": 905.7663624999695,
      "v": 83
    },
    {
      "midi": 74,
      "hit": false,
      "t": 223383.90799999904,
      "d": 907.6894333332893,
      "v": 81
    },
    {
      "midi": 62,
      "hit": false,
      "t": 223537.75366666442,
      "d": 136.5380291666661,
      "v": 81
    },
    {
      "midi": 65,
      "hit": false,
      "t": 223537.75366666442,
      "d": 136.5380291666661,
      "v": 79
    },
    {
      "midi": 59,
      "hit": false,
      "t": 223537.75366666442,
      "d": 142.3072416666546,
      "v": 83
    },
    {
      "midi": 71,
      "hit": false,
      "t": 223537.7536666657,
      "d": 134.6149583333463,
      "v": 83
    },
    {
      "midi": 68,
      "hit": false,
      "t": 223537.7536666657,
      "d": 136.5380291666661,
      "v": 79
    },
    {
      "midi": 65,
      "hit": false,
      "t": 223691.59933333108,
      "d": 138.4610999999859,
      "v": 77
    },
    {
      "midi": 62,
      "hit": false,
      "t": 223691.59933333108,
      "d": 140.3841708333057,
      "v": 84
    },
    {
      "midi": 59,
      "hit": false,
      "t": 223691.59933333108,
      "d": 142.3072416666255,
      "v": 83
    },
    {
      "midi": 71,
      "hit": false,
      "t": 223691.59933333236,
      "d": 134.6149583333463,
      "v": 82
    },
    {
      "midi": 68,
      "hit": false,
      "t": 223691.59933333236,
      "d": 142.3072416666837,
      "v": 83
    },
    {
      "midi": 62,
      "hit": false,
      "t": 223845.4449999977,
      "d": 134.6149583333463,
      "v": 85
    },
    {
      "midi": 65,
      "hit": false,
      "t": 223845.4449999977,
      "d": 136.5380291666661,
      "v": 78
    },
    {
      "midi": 59,
      "hit": false,
      "t": 223845.4449999977,
      "d": 140.3841708333348,
      "v": 84
    },
    {
      "midi": 71,
      "hit": false,
      "t": 223845.44499999905,
      "d": 138.4610999999859,
      "v": 84
    },
    {
      "midi": 68,
      "hit": false,
      "t": 223845.44499999905,
      "d": 140.3841708333057,
      "v": 82
    },
    {
      "midi": 62,
      "hit": false,
      "t": 223999.29066666437,
      "d": 140.3841708333348,
      "v": 82
    },
    {
      "midi": 59,
      "hit": false,
      "t": 223999.29066666437,
      "d": 142.3072416666546,
      "v": 81
    },
    {
      "midi": 65,
      "hit": false,
      "t": 223999.29066666437,
      "d": 142.3072416666546,
      "v": 84
    },
    {
      "midi": 68,
      "hit": false,
      "t": 223999.29066666568,
      "d": 136.5380291666661,
      "v": 80
    },
    {
      "midi": 71,
      "hit": false,
      "t": 223999.29066666568,
      "d": 136.5380291666661,
      "v": 82
    },
    {
      "midi": 62,
      "hit": false,
      "t": 224153.13633333103,
      "d": 134.6149583333463,
      "v": 81
    },
    {
      "midi": 65,
      "hit": false,
      "t": 224153.13633333103,
      "d": 140.3841708333348,
      "v": 81
    },
    {
      "midi": 59,
      "hit": false,
      "t": 224153.13633333103,
      "d": 142.3072416666546,
      "v": 82
    },
    {
      "midi": 68,
      "hit": false,
      "t": 224153.13633333234,
      "d": 138.4610999999859,
      "v": 79
    },
    {
      "midi": 71,
      "hit": false,
      "t": 224153.13633333234,
      "d": 140.3841708333057,
      "v": 77
    },
    {
      "midi": 56,
      "hit": false,
      "t": 224306.98199999766,
      "d": 673.0747916666733,
      "v": 84
    },
    {
      "midi": 44,
      "hit": false,
      "t": 224306.98199999766,
      "d": 678.8440041666618,
      "v": 83
    },
    {
      "midi": 74,
      "hit": false,
      "t": 224306.98199999897,
      "d": 676.9209333332547,
      "v": 83
    },
    {
      "midi": 86,
      "hit": false,
      "t": 224306.98199999897,
      "d": 680.7670749999234,
      "v": 87
    },
    {
      "midi": 59,
      "hit": false,
      "t": 224460.82766666432,
      "d": 142.3072416666837,
      "v": 79
    },
    {
      "midi": 68,
      "hit": false,
      "t": 224460.82766666563,
      "d": 138.4610999999859,
      "v": 77
    },
    {
      "midi": 65,
      "hit": false,
      "t": 224460.82766666563,
      "d": 140.3841708333057,
      "v": 81
    },
    {
      "midi": 62,
      "hit": false,
      "t": 224614.673333331,
      "d": 63.461337499989895,
      "v": 78
    },
    {
      "midi": 59,
      "hit": false,
      "t": 224614.673333331,
      "d": 142.3072416666546,
      "v": 77
    },
    {
      "midi": 65,
      "hit": false,
      "t": 224614.67333333226,
      "d": 138.4610999999859,
      "v": 81
    },
    {
      "midi": 68,
      "hit": false,
      "t": 224614.67333333226,
      "d": 138.4610999999859,
      "v": 79
    },
    {
      "midi": 59,
      "hit": false,
      "t": 224768.51899999767,
      "d": 140.3841708333348,
      "v": 77
    },
    {
      "midi": 62,
      "hit": false,
      "t": 224768.51899999767,
      "d": 140.3841708333348,
      "v": 79
    },
    {
      "midi": 68,
      "hit": false,
      "t": 224768.51899999892,
      "d": 138.4610999999859,
      "v": 80
    },
    {
      "midi": 65,
      "hit": false,
      "t": 224768.51899999892,
      "d": 140.3841708333057,
      "v": 83
    },
    {
      "midi": 59,
      "hit": false,
      "t": 224922.36466666433,
      "d": 140.3841708333057,
      "v": 79
    },
    {
      "midi": 62,
      "hit": false,
      "t": 224922.36466666433,
      "d": 140.3841708333057,
      "v": 77
    },
    {
      "midi": 65,
      "hit": false,
      "t": 224922.36466666555,
      "d": 138.461100000015,
      "v": 82
    },
    {
      "midi": 32,
      "hit": false,
      "t": 224999.28749999765,
      "d": 211.5377916666621,
      "v": 80
    },
    {
      "midi": 44,
      "hit": false,
      "t": 224999.28749999765,
      "d": 215.3839333333308,
      "v": 84
    },
    {
      "midi": 68,
      "hit": false,
      "t": 224999.2874999989,
      "d": 211.5377916666621,
      "v": 78
    },
    {
      "midi": 80,
      "hit": false,
      "t": 224999.2874999989,
      "d": 211.5377916666621,
      "v": 83
    },
    {
      "midi": 45,
      "hit": false,
      "t": 225230.05599999762,
      "d": 903.8432916666206,
      "v": 88
    },
    {
      "midi": 33,
      "hit": false,
      "t": 225230.05599999762,
      "d": 911.5355749999289,
      "v": 81
    },
    {
      "midi": 81,
      "hit": false,
      "t": 225230.05599999888,
      "d": 909.6125041666382,
      "v": 88
    },
    {
      "midi": 69,
      "hit": false,
      "t": 225230.05599999888,
      "d": 911.535574999958,
      "v": 81
    },
    {
      "midi": 50,
      "hit": false,
      "t": 225383.9016666643,
      "d": 136.5380291666661,
      "v": 80
    },
    {
      "midi": 57,
      "hit": false,
      "t": 225383.9016666643,
      "d": 140.3841708333348,
      "v": 80
    },
    {
      "midi": 53,
      "hit": false,
      "t": 225383.9016666643,
      "d": 142.3072416666546,
      "v": 80
    },
    {
      "midi": 62,
      "hit": false,
      "t": 225383.90166666554,
      "d": 136.5380291666661,
      "v": 80
    },
    {
      "midi": 65,
      "hit": false,
      "t": 225383.90166666554,
      "d": 140.3841708333348,
      "v": 79
    },
    {
      "midi": 53,
      "hit": false,
      "t": 225537.74733333095,
      "d": 138.4610999999859,
      "v": 85
    },
    {
      "midi": 57,
      "hit": false,
      "t": 225537.74733333095,
      "d": 138.4610999999859,
      "v": 83
    },
    {
      "midi": 50,
      "hit": false,
      "t": 225537.74733333095,
      "d": 142.3072416666546,
      "v": 85
    },
    {
      "midi": 62,
      "hit": false,
      "t": 225537.7473333322,
      "d": 138.4610999999859,
      "v": 85
    },
    {
      "midi": 65,
      "hit": false,
      "t": 225537.7473333322,
      "d": 138.4610999999859,
      "v": 85
    },
    {
      "midi": 50,
      "hit": false,
      "t": 225691.5929999976,
      "d": 138.4610999999859,
      "v": 77
    },
    {
      "midi": 53,
      "hit": false,
      "t": 225691.5929999976,
      "d": 140.3841708333057,
      "v": 78
    },
    {
      "midi": 57,
      "hit": false,
      "t": 225691.5929999976,
      "d": 142.3072416666255,
      "v": 82
    },
    {
      "midi": 62,
      "hit": false,
      "t": 225691.59299999886,
      "d": 136.5380291666661,
      "v": 78
    },
    {
      "midi": 65,
      "hit": false,
      "t": 225691.59299999886,
      "d": 138.4610999999859,
      "v": 84
    },
    {
      "midi": 57,
      "hit": false,
      "t": 225845.43866666424,
      "d": 134.6149583333463,
      "v": 80
    },
    {
      "midi": 53,
      "hit": false,
      "t": 225845.43866666424,
      "d": 136.5380291666661,
      "v": 78
    },
    {
      "midi": 50,
      "hit": false,
      "t": 225845.43866666424,
      "d": 138.4610999999859,
      "v": 85
    },
    {
      "midi": 62,
      "hit": false,
      "t": 225845.43866666552,
      "d": 142.3072416666546,
      "v": 82
    },
    {
      "midi": 65,
      "hit": false,
      "t": 225845.43866666552,
      "d": 142.3072416666546,
      "v": 85
    },
    {
      "midi": 50,
      "hit": false,
      "t": 225999.2843333309,
      "d": 138.461100000015,
      "v": 77
    },
    {
      "midi": 57,
      "hit": false,
      "t": 225999.2843333309,
      "d": 138.461100000015,
      "v": 80
    },
    {
      "midi": 53,
      "hit": false,
      "t": 225999.2843333309,
      "d": 140.3841708333348,
      "v": 80
    },
    {
      "midi": 62,
      "hit": false,
      "t": 225999.28433333218,
      "d": 140.3841708333348,
      "v": 78
    },
    {
      "midi": 65,
      "hit": false,
      "t": 225999.28433333218,
      "d": 140.3841708333348,
      "v": 78
    },
    {
      "midi": 33,
      "hit": false,
      "t": 226153.12999999753,
      "d": 674.9978624999349,
      "v": 85
    },
    {
      "midi": 45,
      "hit": false,
      "t": 226153.12999999753,
      "d": 680.7670749999234,
      "v": 81
    },
    {
      "midi": 69,
      "hit": false,
      "t": 226153.1299999988,
      "d": 676.9209333333711,
      "v": 82
    },
    {
      "midi": 81,
      "hit": false,
      "t": 226153.1299999988,
      "d": 680.7670750000398,
      "v": 84
    },
    {
      "midi": 57,
      "hit": false,
      "t": 226306.9756666642,
      "d": 136.5380291666661,
      "v": 84
    },
    {
      "midi": 52,
      "hit": false,
      "t": 226306.9756666642,
      "d": 138.4610999999859,
      "v": 84
    },
    {
      "midi": 48,
      "hit": false,
      "t": 226306.9756666642,
      "d": 140.3841708333057,
      "v": 79
    },
    {
      "midi": 61,
      "hit": false,
      "t": 226306.97566666547,
      "d": 134.6149583333463,
      "v": 85
    },
    {
      "midi": 64,
      "hit": false,
      "t": 226306.97566666547,
      "d": 142.3072416666837,
      "v": 85
    },
    {
      "midi": 52,
      "hit": false,
      "t": 226460.82133333082,
      "d": 134.6149583333463,
      "v": 85
    },
    {
      "midi": 48,
      "hit": false,
      "t": 226460.82133333082,
      "d": 136.5380291666661,
      "v": 77
    },
    {
      "midi": 57,
      "hit": false,
      "t": 226460.82133333082,
      "d": 140.3841708333348,
      "v": 78
    },
    {
      "midi": 64,
      "hit": false,
      "t": 226460.82133333216,
      "d": 136.5380291666661,
      "v": 80
    },
    {
      "midi": 61,
      "hit": false,
      "t": 226460.82133333216,
      "d": 140.3841708333348,
      "v": 84
    },
    {
      "midi": 52,
      "hit": false,
      "t": 226614.66699999748,
      "d": 134.6149583333463,
      "v": 80
    },
    {
      "midi": 57,
      "hit": false,
      "t": 226614.66699999748,
      "d": 140.3841708333348,
      "v": 85
    },
    {
      "midi": 48,
      "hit": false,
      "t": 226614.66699999748,
      "d": 142.3072416666546,
      "v": 81
    },
    {
      "midi": 64,
      "hit": false,
      "t": 226614.66699999882,
      "d": 134.6149583333463,
      "v": 77
    },
    {
      "midi": 61,
      "hit": false,
      "t": 226614.66699999882,
      "d": 142.3072416666837,
      "v": 85
    },
    {
      "midi": 48,
      "hit": false,
      "t": 226768.51266666414,
      "d": 134.6149583333172,
      "v": 84
    },
    {
      "midi": 52,
      "hit": false,
      "t": 226768.51266666414,
      "d": 134.6149583333172,
      "v": 82
    },
    {
      "midi": 57,
      "hit": false,
      "t": 226768.51266666414,
      "d": 134.6149583333172,
      "v": 79
    },
    {
      "midi": 64,
      "hit": false,
      "t": 226768.5126666655,
      "d": 134.6149583333463,
      "v": 77
    },
    {
      "midi": 61,
      "hit": false,
      "t": 226768.5126666655,
      "d": 142.3072416666837,
      "v": 85
    },
    {
      "midi": 33,
      "hit": false,
      "t": 226845.43549999746,
      "d": 213.460862500011,
      "v": 83
    },
    {
      "midi": 45,
      "hit": false,
      "t": 226845.43549999746,
      "d": 217.3070041666797,
      "v": 78
    },
    {
      "midi": 69,
      "hit": false,
      "t": 226845.43549999886,
      "d": 213.460862500011,
      "v": 84
    },
    {
      "midi": 81,
      "hit": false,
      "t": 226845.43549999886,
      "d": 213.460862500011,
      "v": 78
    },
    {
      "midi": 50,
      "hit": false,
      "t": 227076.20399999747,
      "d": 442.3062916666677,
      "v": 89
    },
    {
      "midi": 38,
      "hit": false,
      "t": 227076.20399999747,
      "d": 444.2293624999875,
      "v": 82
    },
    {
      "midi": 45,
      "hit": false,
      "t": 227076.20399999747,
      "d": 444.2293624999875,
      "v": 82
    },
    {
      "midi": 41,
      "hit": false,
      "t": 227076.20399999747,
      "d": 448.0755041666562,
      "v": 84
    },
    {
      "midi": 65,
      "hit": false,
      "t": 227076.20399999886,
      "d": 134.6149583333463,
      "v": 83
    },
    {
      "midi": 53,
      "hit": false,
      "t": 227076.20399999886,
      "d": 136.5380291666661,
      "v": 82
    },
    {
      "midi": 57,
      "hit": false,
      "t": 227076.20399999886,
      "d": 136.5380291666661,
      "v": 85
    },
    {
      "midi": 62,
      "hit": false,
      "t": 227076.20399999886,
      "d": 136.5380291666661,
      "v": 86
    },
    {
      "midi": 65,
      "hit": false,
      "t": 227230.04966666552,
      "d": 142.3072416666546,
      "v": 85
    },
    {
      "midi": 77,
      "hit": false,
      "t": 227383.89533333218,
      "d": 142.3072416666546,
      "v": 77
    },
    {
      "midi": 53,
      "hit": false,
      "t": 227537.74099999745,
      "d": 136.5380291666661,
      "v": 79
    },
    {
      "midi": 77,
      "hit": false,
      "t": 227537.74099999884,
      "d": 142.3072416666546,
      "v": 78
    },
    {
      "midi": 65,
      "hit": false,
      "t": 227691.5866666641,
      "d": 142.3072416666546,
      "v": 77
    },
    {
      "midi": 89,
      "hit": false,
      "t": 227691.5866666655,
      "d": 138.4610999999859,
      "v": 85
    },
    {
      "midi": 53,
      "hit": false,
      "t": 227845.43233333077,
      "d": 142.3072416666546,
      "v": 82
    },
    {
      "midi": 89,
      "hit": false,
      "t": 227845.43233333217,
      "d": 136.5380291666661,
      "v": 81
    },
    {
      "midi": 65,
      "hit": false,
      "t": 227999.2779999974,
      "d": 138.4610999999859,
      "v": 83
    },
    {
      "midi": 101,
      "hit": false,
      "t": 227999.27799999883,
      "d": 138.4610999999859,
      "v": 87
    },
    {
      "midi": 53,
      "hit": false,
      "t": 228153.12366666406,
      "d": 138.4610999999859,
      "v": 81
    },
    {
      "midi": 89,
      "hit": false,
      "t": 228153.1236666655,
      "d": 138.4610999999859,
      "v": 85
    },
    {
      "midi": 65,
      "hit": false,
      "t": 228306.96933333072,
      "d": 142.3072416666546,
      "v": 80
    },
    {
      "midi": 89,
      "hit": false,
      "t": 228306.96933333215,
      "d": 138.4610999999859,
      "v": 85
    },
    {
      "midi": 53,
      "hit": false,
      "t": 228460.81499999738,
      "d": 442.3062916666677,
      "v": 85
    },
    {
      "midi": 62,
      "hit": false,
      "t": 228460.81499999738,
      "d": 444.2293624999875,
      "v": 89
    },
    {
      "midi": 50,
      "hit": false,
      "t": 228460.81499999738,
      "d": 446.1524333333073,
      "v": 91
    },
    {
      "midi": 77,
      "hit": false,
      "t": 228460.8149999988,
      "d": 442.3062916666677,
      "v": 77
    },
    {
      "midi": 65,
      "hit": false,
      "t": 228768.50633333213,
      "d": 138.461100000015,
      "v": 79
    },
    {
      "midi": 51,
      "hit": false,
      "t": 228922.35199999734,
      "d": 905.7663624999986,
      "v": 89
    },
    {
      "midi": 63,
      "hit": false,
      "t": 228922.35199999734,
      "d": 905.7663624999986,
      "v": 87
    },
    {
      "midi": 54,
      "hit": false,
      "t": 228922.35199999734,
      "d": 907.6894333333184,
      "v": 90
    },
    {
      "midi": 66,
      "hit": false,
      "t": 228922.3519999988,
      "d": 909.6125041666673,
      "v": 88
    },
    {
      "midi": 78,
      "hit": false,
      "t": 228922.3519999988,
      "d": 911.5355749999871,
      "v": 85
    },
    {
      "midi": 65,
      "hit": false,
      "t": 229076.19766666545,
      "d": 136.5380291666661,
      "v": 82
    },
    {
      "midi": 65,
      "hit": false,
      "t": 229230.0433333321,
      "d": 136.5380291666661,
      "v": 78
    },
    {
      "midi": 65,
      "hit": false,
      "t": 229383.88899999877,
      "d": 134.6149583333463,
      "v": 85
    },
    {
      "midi": 65,
      "hit": false,
      "t": 229537.73466666546,
      "d": 140.3841708333348,
      "v": 79
    },
    {
      "midi": 65,
      "hit": false,
      "t": 229691.58033333212,
      "d": 142.3072416666546,
      "v": 79
    },
    {
      "midi": 48,
      "hit": false,
      "t": 229845.4259999973,
      "d": 903.8432916666789,
      "v": 93
    },
    {
      "midi": 60,
      "hit": false,
      "t": 229845.4259999973,
      "d": 903.8432916666789,
      "v": 94
    },
    {
      "midi": 54,
      "hit": false,
      "t": 229845.4259999973,
      "d": 911.5355750000163,
      "v": 92
    },
    {
      "midi": 78,
      "hit": false,
      "t": 229845.42599999876,
      "d": 449.9985750000051,
      "v": 95
    },
    {
      "midi": 65,
      "hit": false,
      "t": 229999.27166666542,
      "d": 136.5380291666661,
      "v": 82
    },
    {
      "midi": 66,
      "hit": false,
      "t": 229999.27166666542,
      "d": 136.5380291666661,
      "v": 84
    },
    {
      "midi": 66,
      "hit": false,
      "t": 230153.11733333208,
      "d": 134.6149583333463,
      "v": 77
    },
    {
      "midi": 65,
      "hit": false,
      "t": 230153.11733333208,
      "d": 142.3072416666837,
      "v": 81
    },
    {
      "midi": 65,
      "hit": false,
      "t": 230306.96299999877,
      "d": 142.3072416666546,
      "v": 84
    },
    {
      "midi": 66,
      "hit": false,
      "t": 230306.96299999877,
      "d": 142.3072416666546,
      "v": 85
    },
    {
      "midi": 65,
      "hit": false,
      "t": 230460.80866666543,
      "d": 140.3841708333348,
      "v": 83
    },
    {
      "midi": 66,
      "hit": false,
      "t": 230537.73149999877,
      "d": 213.46086249998189,
      "v": 89
    },
    {
      "midi": 78,
      "hit": false,
      "t": 230537.73149999877,
      "d": 213.46086249998189,
      "v": 95
    },
    {
      "midi": 54,
      "hit": false,
      "t": 230768.4999999973,
      "d": 215.3839333333308,
      "v": 89
    },
    {
      "midi": 57,
      "hit": false,
      "t": 230768.4999999973,
      "d": 446.1524333333364,
      "v": 87
    },
    {
      "midi": 45,
      "hit": false,
      "t": 230768.4999999973,
      "d": 448.0755041666562,
      "v": 89
    },
    {
      "midi": 66,
      "hit": false,
      "t": 230768.49999999875,
      "d": 215.3839333333308,
      "v": 87
    },
    {
      "midi": 78,
      "hit": false,
      "t": 230768.49999999875,
      "d": 292.3067666666757,
      "v": 89
    },
    {
      "midi": 65,
      "hit": false,
      "t": 230922.3456666654,
      "d": 134.6149583333463,
      "v": 80
    },
    {
      "midi": 53,
      "hit": false,
      "t": 230999.2684999973,
      "d": 211.5377916666621,
      "v": 84
    },
    {
      "midi": 77,
      "hit": false,
      "t": 231076.1913333321,
      "d": 138.4610999999859,
      "v": 85
    },
    {
      "midi": 53,
      "hit": false,
      "t": 231230.03699999728,
      "d": 142.3072416666546,
      "v": 77
    },
    {
      "midi": 77,
      "hit": false,
      "t": 231230.03699999876,
      "d": 442.3062916666677,
      "v": 80
    },
    {
      "midi": 65,
      "hit": false,
      "t": 231383.88266666394,
      "d": 134.6149583333463,
      "v": 85
    },
    {
      "midi": 89,
      "hit": false,
      "t": 231383.88266666542,
      "d": 136.5380291666661,
      "v": 81
    },
    {
      "midi": 53,
      "hit": false,
      "t": 231537.72833333063,
      "d": 140.3841708333348,
      "v": 85
    },
    {
      "midi": 89,
      "hit": false,
      "t": 231537.72833333208,
      "d": 140.3841708333348,
      "v": 82
    },
    {
      "midi": 65,
      "hit": false,
      "t": 231691.5739999973,
      "d": 138.4610999999859,
      "v": 83
    },
    {
      "midi": 101,
      "hit": false,
      "t": 231691.57399999874,
      "d": 138.4610999999859,
      "v": 79
    },
    {
      "midi": 53,
      "hit": false,
      "t": 231845.41966666395,
      "d": 140.3841708333348,
      "v": 79
    },
    {
      "midi": 89,
      "hit": false,
      "t": 231845.4196666654,
      "d": 134.6149583333463,
      "v": 80
    },
    {
      "midi": 65,
      "hit": false,
      "t": 231999.2653333306,
      "d": 138.4610999999859,
      "v": 80
    },
    {
      "midi": 89,
      "hit": false,
      "t": 231999.2653333321,
      "d": 136.5380291666661,
      "v": 80
    },
    {
      "midi": 50,
      "hit": false,
      "t": 232153.11099999727,
      "d": 446.1524333333364,
      "v": 88
    },
    {
      "midi": 62,
      "hit": false,
      "t": 232153.11099999727,
      "d": 448.0755041666562,
      "v": 90
    },
    {
      "midi": 53,
      "hit": false,
      "t": 232153.11099999727,
      "d": 449.998574999976,
      "v": 87
    },
    {
      "midi": 77,
      "hit": false,
      "t": 232153.11099999875,
      "d": 449.998574999976,
      "v": 87
    },
    {
      "midi": 65,
      "hit": false,
      "t": 232460.80233333207,
      "d": 138.4610999999859,
      "v": 81
    },
    {
      "midi": 51,
      "hit": false,
      "t": 232614.64799999722,
      "d": 905.7663624999986,
      "v": 92
    },
    {
      "midi": 54,
      "hit": false,
      "t": 232614.64799999722,
      "d": 905.7663624999986,
      "v": 89
    },
    {
      "midi": 63,
      "hit": false,
      "t": 232614.64799999722,
      "d": 907.6894333333184,
      "v": 89
    },
    {
      "midi": 78,
      "hit": false,
      "t": 232614.6479999987,
      "d": 903.8432916666789,
      "v": 96
    },
    {
      "midi": 66,
      "hit": false,
      "t": 232614.6479999987,
      "d": 911.5355750000163,
      "v": 89
    },
    {
      "midi": 65,
      "hit": false,
      "t": 232768.49366666537,
      "d": 140.3841708333348,
      "v": 82
    },
    {
      "midi": 65,
      "hit": false,
      "t": 232922.33933333203,
      "d": 134.6149583333463,
      "v": 77
    },
    {
      "midi": 65,
      "hit": false,
      "t": 233076.18499999872,
      "d": 138.4610999999859,
      "v": 83
    },
    {
      "midi": 65,
      "hit": false,
      "t": 233230.03066666538,
      "d": 138.4610999999859,
      "v": 79
    },
    {
      "midi": 65,
      "hit": false,
      "t": 233383.87633333204,
      "d": 142.3072416666837,
      "v": 79
    },
    {
      "midi": 54,
      "hit": false,
      "t": 233537.7219999972,
      "d": 903.8432916666789,
      "v": 84
    },
    {
      "midi": 48,
      "hit": false,
      "t": 233537.7219999972,
      "d": 909.6125041666673,
      "v": 89
    },
    {
      "midi": 60,
      "hit": false,
      "t": 233537.7219999972,
      "d": 909.6125041666673,
      "v": 84
    },
    {
      "midi": 66,
      "hit": false,
      "t": 233537.7219999987,
      "d": 449.9985750000051,
      "v": 87
    },
    {
      "midi": 78,
      "hit": false,
      "t": 233537.7219999987,
      "d": 449.9985750000051,
      "v": 88
    },
    {
      "midi": 65,
      "hit": false,
      "t": 233691.56766666536,
      "d": 142.3072416666546,
      "v": 81
    },
    {
      "midi": 65,
      "hit": false,
      "t": 233845.41333333202,
      "d": 134.6149583333463,
      "v": 84
    },
    {
      "midi": 66,
      "hit": false,
      "t": 233999.2589999987,
      "d": 134.6149583333463,
      "v": 81
    },
    {
      "midi": 65,
      "hit": false,
      "t": 233999.2589999987,
      "d": 142.3072416666837,
      "v": 81
    },
    {
      "midi": 65,
      "hit": false,
      "t": 234153.1046666654,
      "d": 138.461100000015,
      "v": 82
    },
    {
      "midi": 66,
      "hit": false,
      "t": 234230.02749999875,
      "d": 211.5377916666621,
      "v": 90
    },
    {
      "midi": 78,
      "hit": false,
      "t": 234230.02749999875,
      "d": 217.3070041666506,
      "v": 84
    },
    {
      "midi": 53,
      "hit": false,
      "t": 234460.79599999718,
      "d": 442.3062916666677,
      "v": 83
    },
    {
      "midi": 43,
      "hit": false,
      "t": 234460.79599999718,
      "d": 448.0755041666562,
      "v": 83
    },
    {
      "midi": 57,
      "hit": false,
      "t": 234460.79599999718,
      "d": 448.0755041666562,
      "v": 87
    },
    {
      "midi": 65,
      "hit": false,
      "t": 234460.79599999872,
      "d": 140.3841708333348,
      "v": 87
    },
    {
      "midi": 77,
      "hit": false,
      "t": 234614.64166666538,
      "d": 140.3841708333348,
      "v": 80
    },
    {
      "midi": 77,
      "hit": false,
      "t": 234768.48733333204,
      "d": 142.3072416666546,
      "v": 79
    },
    {
      "midi": 53,
      "hit": false,
      "t": 234922.33299999716,
      "d": 138.4610999999859,
      "v": 77
    },
    {
      "midi": 89,
      "hit": false,
      "t": 234922.3329999987,
      "d": 140.3841708333348,
      "v": 83
    },
    {
      "midi": 65,
      "hit": false,
      "t": 235076.17866666382,
      "d": 142.3072416666546,
      "v": 83
    },
    {
      "midi": 77,
      "hit": false,
      "t": 235076.17866666536,
      "d": 138.4610999999859,
      "v": 85
    },
    {
      "midi": 53,
      "hit": false,
      "t": 235230.02433333048,
      "d": 136.5380291666661,
      "v": 78
    },
    {
      "midi": 89,
      "hit": false,
      "t": 235230.02433333202,
      "d": 136.5380291666661,
      "v": 78
    },
    {
      "midi": 65,
      "hit": false,
      "t": 235383.86999999714,
      "d": 136.5380291666661,
      "v": 80
    },
    {
      "midi": 77,
      "hit": false,
      "t": 235383.8699999987,
      "d": 140.3841708333348,
      "v": 83
    },
    {
      "midi": 53,
      "hit": false,
      "t": 235537.7156666638,
      "d": 140.3841708333348,
      "v": 84
    },
    {
      "midi": 89,
      "hit": false,
      "t": 235537.71566666535,
      "d": 140.3841708333348,
      "v": 82
    },
    {
      "midi": 65,
      "hit": false,
      "t": 235691.56133333046,
      "d": 134.6149583333463,
      "v": 83
    },
    {
      "midi": 77,
      "hit": false,
      "t": 235691.561333332,
      "d": 138.4610999999859,
      "v": 82
    },
    {
      "midi": 53,
      "hit": false,
      "t": 235845.40699999715,
      "d": 213.460862500011,
      "v": 85
    },
    {
      "midi": 77,
      "hit": false,
      "t": 235845.40699999867,
      "d": 134.6149583333463,
      "v": 78
    },
    {
      "midi": 65,
      "hit": false,
      "t": 235999.25266666536,
      "d": 134.6149583333463,
      "v": 80
    },
    {
      "midi": 77,
      "hit": false,
      "t": 236153.09833333205,
      "d": 140.3841708333348,
      "v": 80
    },
    {
      "midi": 47,
      "hit": false,
      "t": 236306.94399999717,
      "d": 903.8432916666789,
      "v": 85
    },
    {
      "midi": 50,
      "hit": false,
      "t": 236306.94399999717,
      "d": 909.6125041666673,
      "v": 93
    },
    {
      "midi": 53,
      "hit": false,
      "t": 236306.94399999717,
      "d": 911.5355749999871,
      "v": 94
    },
    {
      "midi": 65,
      "hit": false,
      "t": 236306.9439999987,
      "d": 911.5355750000163,
      "v": 87
    },
    {
      "midi": 74,
      "hit": false,
      "t": 236460.78966666537,
      "d": 136.5380291666661,
      "v": 85
    },
    {
      "midi": 77,
      "hit": false,
      "t": 236460.78966666537,
      "d": 142.3072416666546,
      "v": 78
    },
    {
      "midi": 77,
      "hit": false,
      "t": 236614.63533333203,
      "d": 136.5380291666661,
      "v": 84
    },
    {
      "midi": 86,
      "hit": false,
      "t": 236768.4809999987,
      "d": 134.6149583333463,
      "v": 78
    },
    {
      "midi": 89,
      "hit": false,
      "t": 236768.4809999987,
      "d": 142.3072416666837,
      "v": 80
    },
    {
      "midi": 77,
      "hit": false,
      "t": 236922.32666666538,
      "d": 134.6149583333463,
      "v": 78
    },
    {
      "midi": 74,
      "hit": false,
      "t": 237076.17233333207,
      "d": 134.6149583333463,
      "v": 78
    },
    {
      "midi": 77,
      "hit": false,
      "t": 237076.17233333207,
      "d": 140.3841708333348,
      "v": 81
    },
    {
      "midi": 54,
      "hit": false,
      "t": 237230.01799999713,
      "d": 678.8440041666618,
      "v": 85
    },
    {
      "midi": 50,
      "hit": false,
      "t": 237230.01799999713,
      "d": 909.6125041666673,
      "v": 80
    },
    {
      "midi": 48,
      "hit": false,
      "t": 237230.01799999713,
      "d": 911.5355749999871,
      "v": 83
    },
    {
      "midi": 66,
      "hit": false,
      "t": 237230.0179999987,
      "d": 903.8432916666206,
      "v": 84
    },
    {
      "midi": 74,
      "hit": false,
      "t": 237383.86366666536,
      "d": 136.5380291666661,
      "v": 85
    },
    {
      "midi": 78,
      "hit": false,
      "t": 237383.86366666536,
      "d": 138.4610999999859,
      "v": 81
    },
    {
      "midi": 78,
      "hit": false,
      "t": 237537.70933333202,
      "d": 142.3072416666546,
      "v": 85
    },
    {
      "midi": 83,
      "hit": false,
      "t": 237691.55499999868,
      "d": 138.4610999999859,
      "v": 84
    },
    {
      "midi": 87,
      "hit": false,
      "t": 237691.55499999868,
      "d": 140.3841708333057,
      "v": 78
    },
    {
      "midi": 78,
      "hit": false,
      "t": 237845.40066666531,
      "d": 138.4610999999859,
      "v": 78
    },
    {
      "midi": 54,
      "hit": false,
      "t": 237922.32349999712,
      "d": 213.460862500011,
      "v": 84
    },
    {
      "midi": 75,
      "hit": false,
      "t": 237999.24633333198,
      "d": 138.461100000015,
      "v": 84
    },
    {
      "midi": 78,
      "hit": false,
      "t": 237999.24633333198,
      "d": 142.3072416666837,
      "v": 85
    },
    {
      "midi": 50,
      "hit": false,
      "t": 238153.0919999971,
      "d": 907.6894333333476,
      "v": 92
    },
    {
      "midi": 46,
      "hit": false,
      "t": 238153.0919999971,
      "d": 911.5355750000163,
      "v": 93
    },
    {
      "midi": 55,
      "hit": false,
      "t": 238153.0919999971,
      "d": 911.5355750000163,
      "v": 87
    },
    {
      "midi": 67,
      "hit": false,
      "t": 238153.09199999864,
      "d": 911.5355749999871,
      "v": 96
    },
    {
      "midi": 74,
      "hit": false,
      "t": 238306.9376666653,
      "d": 134.6149583333463,
      "v": 82
    },
    {
      "midi": 79,
      "hit": false,
      "t": 238306.9376666653,
      "d": 142.3072416666837,
      "v": 85
    },
    {
      "midi": 79,
      "hit": false,
      "t": 238460.783333332,
      "d": 136.5380291666661,
      "v": 85
    },
    {
      "midi": 89,
      "hit": false,
      "t": 238614.62899999865,
      "d": 134.6149583333463,
      "v": 85
    },
    {
      "midi": 86,
      "hit": false,
      "t": 238614.62899999865,
      "d": 136.5380291666661,
      "v": 77
    },
    {
      "midi": 79,
      "hit": false,
      "t": 238768.4746666653,
      "d": 142.3072416666546,
      "v": 81
    },
    {
      "midi": 79,
      "hit": false,
      "t": 238922.32033333197,
      "d": 134.6149583333463,
      "v": 84
    },
    {
      "midi": 74,
      "hit": false,
      "t": 238922.32033333197,
      "d": 140.3841708333348,
      "v": 85
    },
    {
      "midi": 36,
      "hit": false,
      "t": 239076.1659999971,
      "d": 442.3062916666677,
      "v": 94
    },
    {
      "midi": 51,
      "hit": false,
      "t": 239076.1659999971,
      "d": 442.3062916666677,
      "v": 90
    },
    {
      "midi": 43,
      "hit": false,
      "t": 239076.1659999971,
      "d": 446.1524333333364,
      "v": 89
    },
    {
      "midi": 45,
      "hit": false,
      "t": 239076.1659999971,
      "d": 448.0755041666562,
      "v": 87
    },
    {
      "midi": 63,
      "hit": false,
      "t": 239076.1659999986,
      "d": 907.6894333332893,
      "v": 89
    },
    {
      "midi": 69,
      "hit": false,
      "t": 239230.01166666526,
      "d": 136.5380291666661,
      "v": 79
    },
    {
      "midi": 75,
      "hit": false,
      "t": 239230.01166666526,
      "d": 140.3841708333348,
      "v": 78
    },
    {
      "midi": 67,
      "hit": false,
      "t": 239230.01166666526,
      "d": 142.3072416666546,
      "v": 82
    },
    {
      "midi": 75,
      "hit": false,
      "t": 239383.85733333192,
      "d": 140.3841708333348,
      "v": 80
    },
    {
      "midi": 57,
      "hit": false,
      "t": 239537.70299999707,
      "d": 442.3062916666677,
      "v": 80
    },
    {
      "midi": 55,
      "hit": false,
      "t": 239537.70299999707,
      "d": 446.1524333333364,
      "v": 85
    },
    {
      "midi": 63,
      "hit": false,
      "t": 239537.70299999707,
      "d": 448.0755041666562,
      "v": 78
    },
    {
      "midi": 79,
      "hit": false,
      "t": 239537.70299999858,
      "d": 138.4610999999859,
      "v": 80
    },
    {
      "midi": 87,
      "hit": false,
      "t": 239537.70299999858,
      "d": 140.3841708333057,
      "v": 78
    },
    {
      "midi": 81,
      "hit": false,
      "t": 239537.70299999858,
      "d": 215.38393333330168,
      "v": 84
    },
    {
      "midi": 75,
      "hit": false,
      "t": 239691.5486666652,
      "d": 138.461100000015,
      "v": 85
    },
    {
      "midi": 69,
      "hit": false,
      "t": 239845.3943333319,
      "d": 138.4610999999859,
      "v": 82
    },
    {
      "midi": 75,
      "hit": false,
      "t": 239845.3943333319,
      "d": 140.3841708333057,
      "v": 78
    },
    {
      "midi": 67,
      "hit": false,
      "t": 239845.3943333319,
      "d": 142.3072416666255,
      "v": 80
    },
    {
      "midi": 43,
      "hit": false,
      "t": 239999.23999999705,
      "d": 442.3062916666677,
      "v": 88
    },
    {
      "midi": 46,
      "hit": false,
      "t": 239999.23999999705,
      "d": 442.3062916666677,
      "v": 86
    },
    {
      "midi": 50,
      "hit": false,
      "t": 239999.23999999705,
      "d": 444.2293624999875,
      "v": 89
    },
    {
      "midi": 38,
      "hit": false,
      "t": 239999.23999999705,
      "d": 449.998574999976,
      "v": 90
    },
    {
      "midi": 62,
      "hit": false,
      "t": 239999.2399999985,
      "d": 907.6894333332602,
      "v": 88
    },
    {
      "midi": 74,
      "hit": false,
      "t": 240153.08566666517,
      "d": 138.4610999999859,
      "v": 79
    },
    {
      "midi": 67,
      "hit": false,
      "t": 240153.08566666517,
      "d": 140.3841708333057,
      "v": 85
    },
    {
      "midi": 70,
      "hit": false,
      "t": 240153.08566666517,
      "d": 142.3072416666255,
      "v": 84
    },
    {
      "midi": 74,
      "hit": false,
      "t": 240306.9313333318,
      "d": 142.3072416666546,
      "v": 81
    },
    {
      "midi": 55,
      "hit": false,
      "t": 240460.77699999703,
      "d": 442.3062916666677,
      "v": 85
    },
    {
      "midi": 62,
      "hit": false,
      "t": 240460.77699999703,
      "d": 444.2293624999875,
      "v": 87
    },
    {
      "midi": 58,
      "hit": false,
      "t": 240460.77699999703,
      "d": 449.998574999976,
      "v": 89
    },
    {
      "midi": 79,
      "hit": false,
      "t": 240460.77699999846,
      "d": 140.3841708333348,
      "v": 83
    },
    {
      "midi": 82,
      "hit": false,
      "t": 240460.77699999846,
      "d": 140.3841708333348,
      "v": 77
    },
    {
      "midi": 86,
      "hit": false,
      "t": 240460.77699999846,
      "d": 142.3072416666546,
      "v": 82
    },
    {
      "midi": 74,
      "hit": false,
      "t": 240614.62266666512,
      "d": 136.5380291666661,
      "v": 84
    },
    {
      "midi": 67,
      "hit": false,
      "t": 240768.46833333178,
      "d": 134.6149583333463,
      "v": 81
    },
    {
      "midi": 70,
      "hit": false,
      "t": 240768.46833333178,
      "d": 136.5380291666661,
      "v": 79
    },
    {
      "midi": 74,
      "hit": false,
      "t": 240768.46833333178,
      "d": 136.5380291666661,
      "v": 83
    },
    {
      "midi": 50,
      "hit": false,
      "t": 240922.31399999702,
      "d": 442.3062916666677,
      "v": 88
    },
    {
      "midi": 42,
      "hit": false,
      "t": 240922.31399999702,
      "d": 446.1524333333364,
      "v": 87
    },
    {
      "midi": 45,
      "hit": false,
      "t": 240922.31399999702,
      "d": 446.1524333333364,
      "v": 85
    },
    {
      "midi": 38,
      "hit": false,
      "t": 240922.31399999702,
      "d": 449.9985750000051,
      "v": 91
    },
    {
      "midi": 62,
      "hit": false,
      "t": 240922.31399999844,
      "d": 903.8432916666789,
      "v": 87
    },
    {
      "midi": 74,
      "hit": false,
      "t": 241076.1596666651,
      "d": 134.6149583333463,
      "v": 82
    },
    {
      "midi": 69,
      "hit": false,
      "t": 241076.1596666651,
      "d": 140.3841708333348,
      "v": 79
    },
    {
      "midi": 66,
      "hit": false,
      "t": 241076.1596666651,
      "d": 142.3072416666546,
      "v": 85
    },
    {
      "midi": 74,
      "hit": false,
      "t": 241230.00533333176,
      "d": 140.3841708333348,
      "v": 81
    },
    {
      "midi": 62,
      "hit": false,
      "t": 241383.85099999703,
      "d": 444.2293624999875,
      "v": 80
    },
    {
      "midi": 57,
      "hit": false,
      "t": 241383.85099999703,
      "d": 448.0755041666562,
      "v": 82
    },
    {
      "midi": 54,
      "hit": false,
      "t": 241383.85099999703,
      "d": 449.998574999976,
      "v": 78
    },
    {
      "midi": 78,
      "hit": false,
      "t": 241383.85099999842,
      "d": 134.6149583333463,
      "v": 84
    },
    {
      "midi": 81,
      "hit": false,
      "t": 241383.85099999842,
      "d": 134.6149583333463,
      "v": 79
    },
    {
      "midi": 86,
      "hit": false,
      "t": 241383.85099999842,
      "d": 134.6149583333463,
      "v": 77
    },
    {
      "midi": 74,
      "hit": false,
      "t": 241537.6966666651,
      "d": 142.3072416666546,
      "v": 82
    },
    {
      "midi": 74,
      "hit": false,
      "t": 241691.54233333177,
      "d": 136.5380291666661,
      "v": 80
    },
    {
      "midi": 69,
      "hit": false,
      "t": 241691.54233333177,
      "d": 138.4610999999859,
      "v": 77
    },
    {
      "midi": 66,
      "hit": false,
      "t": 241691.54233333177,
      "d": 140.3841708333057,
      "v": 81
    },
    {
      "midi": 31,
      "hit": false,
      "t": 241845.387999997,
      "d": 217.3070041666797,
      "v": 125
    },
    {
      "midi": 43,
      "hit": false,
      "t": 241845.387999997,
      "d": 219.2300749999995,
      "v": 127
    },
    {
      "midi": 67,
      "hit": false,
      "t": 241845.3879999984,
      "d": 215.3839333333308,
      "v": 127
    },
    {
      "midi": 55,
      "hit": false,
      "t": 241845.3879999984,
      "d": 217.3070041666506,
      "v": 124
    },
    {
      "midi": 43,
      "hit": false,
      "t": 242076.156499997,
      "d": 211.5377916666621,
      "v": 116
    },
    {
      "midi": 31,
      "hit": false,
      "t": 242076.156499997,
      "d": 219.2300749999995,
      "v": 116
    },
    {
      "midi": 67,
      "hit": false,
      "t": 242076.15649999838,
      "d": 213.460862500011,
      "v": 116
    },
    {
      "midi": 55,
      "hit": false,
      "t": 242076.15649999838,
      "d": 219.2300749999995,
      "v": 119
    },
    {
      "midi": 31,
      "hit": false,
      "t": 242306.92499999702,
      "d": 211.5377916666621,
      "v": 126
    },
    {
      "midi": 43,
      "hit": false,
      "t": 242306.92499999702,
      "d": 215.3839333333308,
      "v": 122
    },
    {
      "midi": 55,
      "hit": false,
      "t": 242306.9249999984,
      "d": 215.3839333333308,
      "v": 120
    },
    {
      "midi": 67,
      "hit": false,
      "t": 242306.9249999984,
      "d": 217.3070041666506,
      "v": 120
    },
    {
      "midi": 33,
      "hit": false,
      "t": 242537.69349999703,
      "d": 217.3070041666797,
      "v": 124
    },
    {
      "midi": 43,
      "hit": false,
      "t": 242537.69349999703,
      "d": 219.2300749999995,
      "v": 120
    },
    {
      "midi": 55,
      "hit": false,
      "t": 242537.69349999836,
      "d": 213.460862500011,
      "v": 116
    },
    {
      "midi": 67,
      "hit": false,
      "t": 242537.69349999836,
      "d": 213.460862500011,
      "v": 120
    },
    {
      "midi": 33,
      "hit": false,
      "t": 242768.46199999703,
      "d": 213.460862500011,
      "v": 125
    },
    {
      "midi": 43,
      "hit": false,
      "t": 242768.46199999703,
      "d": 215.3839333333308,
      "v": 122
    },
    {
      "midi": 67,
      "hit": false,
      "t": 242768.46199999837,
      "d": 215.3839333333308,
      "v": 123
    },
    {
      "midi": 55,
      "hit": false,
      "t": 242768.46199999837,
      "d": 217.3070041666506,
      "v": 127
    },
    {
      "midi": 33,
      "hit": false,
      "t": 242999.23049999704,
      "d": 213.460862500011,
      "v": 120
    },
    {
      "midi": 43,
      "hit": false,
      "t": 242999.23049999704,
      "d": 213.460862500011,
      "v": 118
    },
    {
      "midi": 55,
      "hit": false,
      "t": 242999.23049999835,
      "d": 211.5377916666621,
      "v": 120
    },
    {
      "midi": 67,
      "hit": false,
      "t": 242999.23049999835,
      "d": 215.3839333333308,
      "v": 124
    },
    {
      "midi": 31,
      "hit": false,
      "t": 243229.99899999704,
      "d": 211.5377916666621,
      "v": 124
    },
    {
      "midi": 43,
      "hit": false,
      "t": 243229.99899999704,
      "d": 217.3070041666506,
      "v": 120
    },
    {
      "midi": 67,
      "hit": false,
      "t": 243229.99899999835,
      "d": 211.5377916666621,
      "v": 122
    },
    {
      "midi": 55,
      "hit": false,
      "t": 243229.99899999835,
      "d": 213.46086249998189,
      "v": 127
    },
    {
      "midi": 43,
      "hit": false,
      "t": 243460.76749999702,
      "d": 213.460862500011,
      "v": 124
    },
    {
      "midi": 31,
      "hit": false,
      "t": 243460.76749999702,
      "d": 219.2300749999995,
      "v": 118
    },
    {
      "midi": 55,
      "hit": false,
      "t": 243460.76749999833,
      "d": 215.3839333333308,
      "v": 120
    },
    {
      "midi": 67,
      "hit": false,
      "t": 243460.76749999833,
      "d": 219.2300749999995,
      "v": 124
    },
    {
      "midi": 31,
      "hit": false,
      "t": 243691.53599999702,
      "d": 140.3841708333348,
      "v": 126
    },
    {
      "midi": 43,
      "hit": false,
      "t": 243691.53599999702,
      "d": 142.3072416666546,
      "v": 126
    },
    {
      "midi": 55,
      "hit": false,
      "t": 243691.53599999833,
      "d": 142.3072416666546,
      "v": 127
    },
    {
      "midi": 45,
      "hit": false,
      "t": 243845.38166666368,
      "d": 140.3841708333348,
      "v": 120
    },
    {
      "midi": 67,
      "hit": false,
      "t": 243845.381666665,
      "d": 140.3841708333348,
      "v": 121
    },
    {
      "midi": 46,
      "hit": false,
      "t": 243999.22733333035,
      "d": 140.3841708333348,
      "v": 119
    },
    {
      "midi": 55,
      "hit": false,
      "t": 243999.22733333166,
      "d": 142.3072416666546,
      "v": 120
    },
    {
      "midi": 48,
      "hit": false,
      "t": 244153.072999997,
      "d": 142.3072416666546,
      "v": 119
    },
    {
      "midi": 67,
      "hit": false,
      "t": 244153.07299999832,
      "d": 134.6149583333463,
      "v": 122
    },
    {
      "midi": 50,
      "hit": false,
      "t": 244306.91866666367,
      "d": 140.3841708333348,
      "v": 121
    },
    {
      "midi": 55,
      "hit": false,
      "t": 244306.918666665,
      "d": 136.5380291666661,
      "v": 122
    },
    {
      "midi": 51,
      "hit": false,
      "t": 244460.76433333033,
      "d": 136.5380291666661,
      "v": 121
    },
    {
      "midi": 67,
      "hit": false,
      "t": 244460.76433333167,
      "d": 136.5380291666661,
      "v": 124
    },
    {
      "midi": 38,
      "hit": false,
      "t": 244614.609999997,
      "d": 444.2293624999875,
      "v": 126
    },
    {
      "midi": 50,
      "hit": false,
      "t": 244614.609999997,
      "d": 444.2293624999875,
      "v": 125
    },
    {
      "midi": 55,
      "hit": false,
      "t": 244614.60999999833,
      "d": 142.3072416666546,
      "v": 121
    },
    {
      "midi": 67,
      "hit": false,
      "t": 244768.455666665,
      "d": 134.6149583333463,
      "v": 122
    },
    {
      "midi": 55,
      "hit": false,
      "t": 244922.30133333168,
      "d": 138.4610999999859,
      "v": 117
    },
    {
      "midi": 46,
      "hit": false,
      "t": 245076.14699999697,
      "d": 442.3062916666677,
      "v": 123
    },
    {
      "midi": 38,
      "hit": false,
      "t": 245076.14699999697,
      "d": 446.1524333333364,
      "v": 119
    },
    {
      "midi": 34,
      "hit": false,
      "t": 245076.14699999697,
      "d": 449.9985750000051,
      "v": 124
    },
    {
      "midi": 67,
      "hit": false,
      "t": 245076.14699999834,
      "d": 136.5380291666661,
      "v": 119
    },
    {
      "midi": 62,
      "hit": false,
      "t": 245076.14699999834,
      "d": 442.3062916666677,
      "v": 117
    },
    {
      "midi": 55,
      "hit": false,
      "t": 245229.992666665,
      "d": 140.3841708333348,
      "v": 122
    },
    {
      "midi": 67,
      "hit": false,
      "t": 245383.83833333166,
      "d": 140.3841708333348,
      "v": 118
    },
    {
      "midi": 31,
      "hit": false,
      "t": 245537.68399999698,
      "d": 215.3839333333308,
      "v": 122
    },
    {
      "midi": 43,
      "hit": false,
      "t": 245537.68399999698,
      "d": 217.3070041666506,
      "v": 126
    },
    {
      "midi": 38,
      "hit": false,
      "t": 245537.68399999698,
      "d": 1369.2264333332714,
      "v": 126
    },
    {
      "midi": 67,
      "hit": false,
      "t": 245537.68399999832,
      "d": 213.460862500011,
      "v": 127
    },
    {
      "midi": 55,
      "hit": false,
      "t": 245537.68399999832,
      "d": 215.3839333333308,
      "v": 124
    },
    {
      "midi": 62,
      "hit": false,
      "t": 245537.68399999832,
      "d": 1365.3802916666318,
      "v": 124
    },
    {
      "midi": 43,
      "hit": false,
      "t": 245768.45249999696,
      "d": 211.5377916666621,
      "v": 122
    },
    {
      "midi": 31,
      "hit": false,
      "t": 245768.45249999696,
      "d": 213.46086249998189,
      "v": 123
    },
    {
      "midi": 55,
      "hit": false,
      "t": 245768.45249999833,
      "d": 213.460862500011,
      "v": 119
    },
    {
      "midi": 67,
      "hit": false,
      "t": 245768.45249999833,
      "d": 213.460862500011,
      "v": 116
    },
    {
      "midi": 31,
      "hit": false,
      "t": 245999.22099999693,
      "d": 211.5377916666621,
      "v": 119
    },
    {
      "midi": 43,
      "hit": false,
      "t": 245999.22099999693,
      "d": 217.3070041666506,
      "v": 120
    },
    {
      "midi": 55,
      "hit": false,
      "t": 245999.22099999833,
      "d": 217.3070041666797,
      "v": 123
    },
    {
      "midi": 67,
      "hit": false,
      "t": 245999.22099999833,
      "d": 217.3070041666797,
      "v": 123
    },
    {
      "midi": 31,
      "hit": false,
      "t": 246229.9894999969,
      "d": 213.460862500011,
      "v": 117
    },
    {
      "midi": 43,
      "hit": false,
      "t": 246229.9894999969,
      "d": 219.2300749999995,
      "v": 121
    },
    {
      "midi": 55,
      "hit": false,
      "t": 246229.98949999834,
      "d": 211.5377916666621,
      "v": 117
    },
    {
      "midi": 67,
      "hit": false,
      "t": 246229.98949999834,
      "d": 213.46086249998189,
      "v": 118
    },
    {
      "midi": 43,
      "hit": false,
      "t": 246460.75799999692,
      "d": 213.460862500011,
      "v": 126
    },
    {
      "midi": 31,
      "hit": false,
      "t": 246460.75799999692,
      "d": 215.3839333333308,
      "v": 124
    },
    {
      "midi": 67,
      "hit": false,
      "t": 246460.7579999983,
      "d": 215.3839333333308,
      "v": 127
    },
    {
      "midi": 55,
      "hit": false,
      "t": 246460.7579999983,
      "d": 217.3070041666506,
      "v": 123
    },
    {
      "midi": 31,
      "hit": false,
      "t": 246691.52649999692,
      "d": 213.460862500011,
      "v": 124
    },
    {
      "midi": 43,
      "hit": false,
      "t": 246691.52649999692,
      "d": 219.2300749999995,
      "v": 118
    },
    {
      "midi": 55,
      "hit": false,
      "t": 246691.5264999983,
      "d": 213.46086249998189,
      "v": 124
    },
    {
      "midi": 67,
      "hit": false,
      "t": 246691.5264999983,
      "d": 215.38393333330168,
      "v": 117
    },
    {
      "midi": 31,
      "hit": false,
      "t": 246922.29499999693,
      "d": 211.5377916666621,
      "v": 119
    },
    {
      "midi": 43,
      "hit": false,
      "t": 246922.29499999693,
      "d": 217.3070041666506,
      "v": 119
    },
    {
      "midi": 38,
      "hit": false,
      "t": 246922.29499999693,
      "d": 448.07550416662707,
      "v": 127
    },
    {
      "midi": 55,
      "hit": false,
      "t": 246922.29499999827,
      "d": 217.3070041666797,
      "v": 119
    },
    {
      "midi": 67,
      "hit": false,
      "t": 246922.29499999827,
      "d": 219.2300749999995,
      "v": 124
    },
    {
      "midi": 62,
      "hit": false,
      "t": 246922.29499999827,
      "d": 444.2293625000166,
      "v": 127
    },
    {
      "midi": 43,
      "hit": false,
      "t": 247153.0634999969,
      "d": 211.5377916666621,
      "v": 123
    },
    {
      "midi": 31,
      "hit": false,
      "t": 247153.0634999969,
      "d": 213.46086249998189,
      "v": 124
    },
    {
      "midi": 67,
      "hit": false,
      "t": 247153.06349999827,
      "d": 213.460862500011,
      "v": 120
    },
    {
      "midi": 55,
      "hit": false,
      "t": 247153.06349999827,
      "d": 219.2300749999995,
      "v": 123
    },
    {
      "midi": 31,
      "hit": false,
      "t": 247383.83199999688,
      "d": 140.3841708333348,
      "v": 123
    },
    {
      "midi": 43,
      "hit": false,
      "t": 247383.83199999688,
      "d": 142.3072416666546,
      "v": 127
    },
    {
      "midi": 55,
      "hit": false,
      "t": 247383.83199999828,
      "d": 136.5380291666661,
      "v": 125
    },
    {
      "midi": 45,
      "hit": false,
      "t": 247537.67766666354,
      "d": 134.6149583333463,
      "v": 121
    },
    {
      "midi": 67,
      "hit": false,
      "t": 247537.67766666494,
      "d": 142.3072416666546,
      "v": 121
    },
    {
      "midi": 46,
      "hit": false,
      "t": 247691.52333333023,
      "d": 136.5380291666661,
      "v": 122
    },
    {
      "midi": 55,
      "hit": false,
      "t": 247691.5233333316,
      "d": 134.6149583333463,
      "v": 124
    },
    {
      "midi": 48,
      "hit": false,
      "t": 247845.3689999969,
      "d": 140.3841708333348,
      "v": 119
    },
    {
      "midi": 67,
      "hit": false,
      "t": 247845.3689999983,
      "d": 134.6149583333463,
      "v": 122
    },
    {
      "midi": 50,
      "hit": false,
      "t": 247999.21466666355,
      "d": 142.3072416666546,
      "v": 118
    },
    {
      "midi": 55,
      "hit": false,
      "t": 247999.21466666498,
      "d": 136.5380291666661,
      "v": 124
    },
    {
      "midi": 51,
      "hit": false,
      "t": 248153.0603333302,
      "d": 136.5380291666661,
      "v": 124
    },
    {
      "midi": 67,
      "hit": false,
      "t": 248153.06033333164,
      "d": 142.3072416666546,
      "v": 120
    },
    {
      "midi": 50,
      "hit": false,
      "t": 248306.90599999687,
      "d": 444.2293624999875,
      "v": 120
    },
    {
      "midi": 38,
      "hit": false,
      "t": 248306.90599999687,
      "d": 448.0755041666562,
      "v": 126
    },
    {
      "midi": 55,
      "hit": false,
      "t": 248306.9059999983,
      "d": 136.5380291666661,
      "v": 123
    },
    {
      "midi": 67,
      "hit": false,
      "t": 248460.75166666496,
      "d": 138.4610999999859,
      "v": 124
    },
    {
      "midi": 55,
      "hit": false,
      "t": 248614.59733333162,
      "d": 136.5380291666661,
      "v": 116
    },
    {
      "midi": 34,
      "hit": false,
      "t": 248768.44299999686,
      "d": 430.7678666666616,
      "v": 117
    },
    {
      "midi": 46,
      "hit": false,
      "t": 248768.44299999686,
      "d": 438.460149999999,
      "v": 118
    },
    {
      "midi": 67,
      "hit": false,
      "t": 248768.44299999828,
      "d": 134.6149583333463,
      "v": 120
    },
    {
      "midi": 55,
      "hit": false,
      "t": 248922.28866666497,
      "d": 138.4610999999859,
      "v": 117
    },
    {
      "midi": 67,
      "hit": false,
      "t": 249076.13433333163,
      "d": 142.3072416666546,
      "v": 120
    },
    {
      "midi": 33,
      "hit": false,
      "t": 249229.97999999687,
      "d": 211.5377916666621,
      "v": 127
    },
    {
      "midi": 43,
      "hit": false,
      "t": 249229.97999999687,
      "d": 213.46086249998189,
      "v": 123
    },
    {
      "midi": 55,
      "hit": false,
      "t": 249229.9799999983,
      "d": 213.460862500011,
      "v": 127
    },
    {
      "midi": 67,
      "hit": false,
      "t": 249229.9799999983,
      "d": 213.460862500011,
      "v": 123
    },
    {
      "midi": 43,
      "hit": false,
      "t": 249460.74849999684,
      "d": 215.3839333333308,
      "v": 119
    },
    {
      "midi": 33,
      "hit": false,
      "t": 249460.74849999684,
      "d": 217.3070041666506,
      "v": 118
    },
    {
      "midi": 57,
      "hit": false,
      "t": 249460.7484999983,
      "d": 211.5377916666621,
      "v": 117
    },
    {
      "midi": 67,
      "hit": false,
      "t": 249460.7484999983,
      "d": 211.5377916666621,
      "v": 116
    },
    {
      "midi": 33,
      "hit": false,
      "t": 249691.51699999682,
      "d": 213.460862500011,
      "v": 121
    },
    {
      "midi": 43,
      "hit": false,
      "t": 249691.51699999682,
      "d": 213.460862500011,
      "v": 126
    },
    {
      "midi": 57,
      "hit": false,
      "t": 249691.5169999983,
      "d": 215.3839333333308,
      "v": 119
    },
    {
      "midi": 67,
      "hit": false,
      "t": 249691.5169999983,
      "d": 217.3070041666506,
      "v": 121
    },
    {
      "midi": 43,
      "hit": false,
      "t": 249922.28549999683,
      "d": 211.5377916666621,
      "v": 123
    },
    {
      "midi": 33,
      "hit": false,
      "t": 249922.28549999683,
      "d": 215.3839333333308,
      "v": 117
    },
    {
      "midi": 67,
      "hit": false,
      "t": 249922.28549999828,
      "d": 213.460862500011,
      "v": 116
    },
    {
      "midi": 57,
      "hit": false,
      "t": 249922.28549999828,
      "d": 219.2300749999995,
      "v": 124
    },
    {
      "midi": 43,
      "hit": false,
      "t": 250153.05399999683,
      "d": 215.3839333333308,
      "v": 126
    },
    {
      "midi": 45,
      "hit": false,
      "t": 250153.05399999683,
      "d": 215.3839333333308,
      "v": 125
    },
    {
      "midi": 33,
      "hit": false,
      "t": 250153.05399999683,
      "d": 219.2300749999995,
      "v": 127
    },
    {
      "midi": 67,
      "hit": false,
      "t": 250153.0539999983,
      "d": 211.5377916666621,
      "v": 123
    },
    {
      "midi": 69,
      "hit": false,
      "t": 250153.0539999983,
      "d": 211.5377916666621,
      "v": 127
    },
    {
      "midi": 57,
      "hit": false,
      "t": 250153.0539999983,
      "d": 215.3839333333308,
      "v": 121
    },
    {
      "midi": 33,
      "hit": false,
      "t": 250383.82249999684,
      "d": 213.460862500011,
      "v": 116
    },
    {
      "midi": 45,
      "hit": false,
      "t": 250383.82249999684,
      "d": 213.460862500011,
      "v": 124
    },
    {
      "midi": 43,
      "hit": false,
      "t": 250383.82249999684,
      "d": 217.3070041666797,
      "v": 117
    },
    {
      "midi": 69,
      "hit": false,
      "t": 250383.8224999983,
      "d": 211.5377916666621,
      "v": 117
    },
    {
      "midi": 57,
      "hit": false,
      "t": 250383.8224999983,
      "d": 213.46086249998189,
      "v": 120
    },
    {
      "midi": 67,
      "hit": false,
      "t": 250383.8224999983,
      "d": 219.23007499997038,
      "v": 123
    },
    {
      "midi": 33,
      "hit": false,
      "t": 250614.59099999684,
      "d": 211.5377916666621,
      "v": 119
    },
    {
      "midi": 45,
      "hit": false,
      "t": 250614.59099999684,
      "d": 213.46086249998189,
      "v": 125
    },
    {
      "midi": 43,
      "hit": false,
      "t": 250614.59099999684,
      "d": 215.38393333330168,
      "v": 123
    },
    {
      "midi": 67,
      "hit": false,
      "t": 250614.59099999827,
      "d": 213.460862500011,
      "v": 121
    },
    {
      "midi": 69,
      "hit": false,
      "t": 250614.59099999827,
      "d": 215.3839333333308,
      "v": 123
    },
    {
      "midi": 57,
      "hit": false,
      "t": 250614.59099999827,
      "d": 217.3070041666506,
      "v": 122
    },
    {
      "midi": 33,
      "hit": false,
      "t": 250845.35949999682,
      "d": 211.5377916666621,
      "v": 121
    },
    {
      "midi": 43,
      "hit": false,
      "t": 250845.35949999682,
      "d": 219.2300749999995,
      "v": 122
    },
    {
      "midi": 45,
      "hit": false,
      "t": 250845.35949999682,
      "d": 219.2300749999995,
      "v": 118
    },
    {
      "midi": 67,
      "hit": false,
      "t": 250845.35949999825,
      "d": 215.3839333333308,
      "v": 119
    },
    {
      "midi": 57,
      "hit": false,
      "t": 250845.35949999825,
      "d": 219.2300749999995,
      "v": 121
    },
    {
      "midi": 69,
      "hit": false,
      "t": 250845.35949999825,
      "d": 219.2300749999995,
      "v": 119
    },
    {
      "midi": 43,
      "hit": false,
      "t": 251076.12799999682,
      "d": 138.4610999999859,
      "v": 120
    },
    {
      "midi": 46,
      "hit": false,
      "t": 251076.12799999682,
      "d": 142.3072416666546,
      "v": 121
    },
    {
      "midi": 58,
      "hit": false,
      "t": 251076.12799999825,
      "d": 140.3841708333348,
      "v": 122
    },
    {
      "midi": 45,
      "hit": false,
      "t": 251229.97366666349,
      "d": 140.3841708333348,
      "v": 119
    },
    {
      "midi": 67,
      "hit": false,
      "t": 251229.9736666649,
      "d": 134.6149583333463,
      "v": 122
    },
    {
      "midi": 70,
      "hit": false,
      "t": 251229.9736666649,
      "d": 138.461100000015,
      "v": 117
    },
    {
      "midi": 46,
      "hit": false,
      "t": 251383.81933333015,
      "d": 138.4610999999859,
      "v": 123
    },
    {
      "midi": 58,
      "hit": false,
      "t": 251383.8193333316,
      "d": 134.6149583333463,
      "v": 116
    },
    {
      "midi": 48,
      "hit": false,
      "t": 251537.6649999968,
      "d": 140.3841708333348,
      "v": 120
    },
    {
      "midi": 70,
      "hit": false,
      "t": 251537.6649999983,
      "d": 136.5380291666661,
      "v": 117
    },
    {
      "midi": 67,
      "hit": false,
      "t": 251537.6649999983,
      "d": 140.3841708333348,
      "v": 119
    },
    {
      "midi": 50,
      "hit": false,
      "t": 251691.51066666347,
      "d": 136.5380291666661,
      "v": 123
    },
    {
      "midi": 58,
      "hit": false,
      "t": 251691.51066666495,
      "d": 138.4610999999859,
      "v": 118
    },
    {
      "midi": 51,
      "hit": false,
      "t": 251845.35633333013,
      "d": 142.3072416666546,
      "v": 119
    },
    {
      "midi": 70,
      "hit": false,
      "t": 251845.3563333316,
      "d": 134.6149583333463,
      "v": 122
    },
    {
      "midi": 67,
      "hit": false,
      "t": 251845.3563333316,
      "d": 142.3072416666837,
      "v": 122
    },
    {
      "midi": 50,
      "hit": false,
      "t": 251999.2019999968,
      "d": 442.3062916666677,
      "v": 126
    },
    {
      "midi": 38,
      "hit": false,
      "t": 251999.2019999968,
      "d": 444.2293624999875,
      "v": 125
    },
    {
      "midi": 58,
      "hit": false,
      "t": 251999.2019999983,
      "d": 140.3841708333348,
      "v": 119
    },
    {
      "midi": 67,
      "hit": false,
      "t": 252153.04766666496,
      "d": 140.3841708333348,
      "v": 122
    },
    {
      "midi": 70,
      "hit": false,
      "t": 252153.04766666496,
      "d": 140.3841708333348,
      "v": 124
    },
    {
      "midi": 58,
      "hit": false,
      "t": 252306.89333333162,
      "d": 140.3841708333348,
      "v": 116
    },
    {
      "midi": 34,
      "hit": false,
      "t": 252460.73899999677,
      "d": 449.9985750000051,
      "v": 121
    },
    {
      "midi": 46,
      "hit": false,
      "t": 252460.73899999677,
      "d": 449.9985750000051,
      "v": 118
    },
    {
      "midi": 67,
      "hit": false,
      "t": 252460.73899999828,
      "d": 138.4610999999859,
      "v": 124
    },
    {
      "midi": 70,
      "hit": false,
      "t": 252460.73899999828,
      "d": 142.3072416666546,
      "v": 123
    },
    {
      "midi": 58,
      "hit": false,
      "t": 252614.58466666494,
      "d": 138.4610999999859,
      "v": 123
    },
    {
      "midi": 67,
      "hit": false,
      "t": 252768.4303333316,
      "d": 138.4610999999859,
      "v": 119
    },
    {
      "midi": 70,
      "hit": false,
      "t": 252768.4303333316,
      "d": 138.4610999999859,
      "v": 123
    },
    {
      "midi": 43,
      "hit": false,
      "t": 252922.27599999678,
      "d": 213.460862500011,
      "v": 125
    },
    {
      "midi": 31,
      "hit": false,
      "t": 252922.27599999678,
      "d": 215.3839333333308,
      "v": 122
    },
    {
      "midi": 34,
      "hit": false,
      "t": 252922.27599999678,
      "d": 219.2300749999995,
      "v": 126
    },
    {
      "midi": 70,
      "hit": false,
      "t": 252922.27599999827,
      "d": 211.5377916666621,
      "v": 127
    },
    {
      "midi": 67,
      "hit": false,
      "t": 252922.27599999827,
      "d": 215.3839333333308,
      "v": 123
    },
    {
      "midi": 58,
      "hit": false,
      "t": 252922.27599999827,
      "d": 219.2300749999995,
      "v": 125
    },
    {
      "midi": 31,
      "hit": false,
      "t": 253153.0444999968,
      "d": 219.2300749999995,
      "v": 122
    },
    {
      "midi": 34,
      "hit": false,
      "t": 253153.0444999968,
      "d": 219.2300749999995,
      "v": 120
    },
    {
      "midi": 43,
      "hit": false,
      "t": 253153.0444999968,
      "d": 219.2300749999995,
      "v": 120
    },
    {
      "midi": 58,
      "hit": false,
      "t": 253153.04449999827,
      "d": 217.3070041666797,
      "v": 116
    },
    {
      "midi": 67,
      "hit": false,
      "t": 253153.04449999827,
      "d": 217.3070041666797,
      "v": 117
    },
    {
      "midi": 70,
      "hit": false,
      "t": 253153.04449999827,
      "d": 219.2300749999995,
      "v": 124
    },
    {
      "midi": 31,
      "hit": false,
      "t": 253383.8129999968,
      "d": 213.460862500011,
      "v": 120
    },
    {
      "midi": 34,
      "hit": false,
      "t": 253383.8129999968,
      "d": 213.460862500011,
      "v": 120
    },
    {
      "midi": 43,
      "hit": false,
      "t": 253383.8129999968,
      "d": 219.2300749999995,
      "v": 124
    },
    {
      "midi": 70,
      "hit": false,
      "t": 253383.81299999828,
      "d": 211.5377916666621,
      "v": 123
    },
    {
      "midi": 58,
      "hit": false,
      "t": 253383.81299999828,
      "d": 215.3839333333308,
      "v": 121
    },
    {
      "midi": 67,
      "hit": false,
      "t": 253383.81299999828,
      "d": 217.3070041666506,
      "v": 120
    },
    {
      "midi": 34,
      "hit": false,
      "t": 253614.5814999968,
      "d": 211.5377916666621,
      "v": 119
    },
    {
      "midi": 31,
      "hit": false,
      "t": 253614.5814999968,
      "d": 213.46086249998189,
      "v": 119
    },
    {
      "midi": 43,
      "hit": false,
      "t": 253614.5814999968,
      "d": 213.46086249998189,
      "v": 116
    },
    {
      "midi": 70,
      "hit": false,
      "t": 253614.58149999825,
      "d": 217.3070041666797,
      "v": 118
    },
    {
      "midi": 58,
      "hit": false,
      "t": 253614.58149999825,
      "d": 219.2300749999995,
      "v": 116
    },
    {
      "midi": 67,
      "hit": false,
      "t": 253614.58149999825,
      "d": 219.2300749999995,
      "v": 123
    },
    {
      "midi": 31,
      "hit": false,
      "t": 253845.34999999678,
      "d": 211.5377916666621,
      "v": 127
    },
    {
      "midi": 36,
      "hit": false,
      "t": 253845.34999999678,
      "d": 215.3839333333308,
      "v": 127
    },
    {
      "midi": 33,
      "hit": false,
      "t": 253845.34999999678,
      "d": 219.2300749999995,
      "v": 125
    },
    {
      "midi": 43,
      "hit": false,
      "t": 253845.34999999678,
      "d": 219.2300749999995,
      "v": 122
    },
    {
      "midi": 60,
      "hit": false,
      "t": 253845.34999999826,
      "d": 211.5377916666621,
      "v": 125
    },
    {
      "midi": 67,
      "hit": false,
      "t": 253845.34999999826,
      "d": 211.5377916666621,
      "v": 121
    },
    {
      "midi": 72,
      "hit": false,
      "t": 253845.34999999826,
      "d": 211.5377916666621,
      "v": 125
    },
    {
      "midi": 69,
      "hit": false,
      "t": 253845.34999999826,
      "d": 217.3070041666506,
      "v": 127
    },
    {
      "midi": 33,
      "hit": false,
      "t": 254076.11849999678,
      "d": 213.460862500011,
      "v": 121
    },
    {
      "midi": 43,
      "hit": false,
      "t": 254076.11849999678,
      "d": 213.460862500011,
      "v": 121
    },
    {
      "midi": 36,
      "hit": false,
      "t": 254076.11849999678,
      "d": 215.3839333333308,
      "v": 116
    },
    {
      "midi": 31,
      "hit": false,
      "t": 254076.11849999678,
      "d": 217.3070041666506,
      "v": 123
    },
    {
      "midi": 67,
      "hit": false,
      "t": 254076.11849999824,
      "d": 213.460862500011,
      "v": 119
    },
    {
      "midi": 60,
      "hit": false,
      "t": 254076.11849999824,
      "d": 215.3839333333308,
      "v": 122
    },
    {
      "midi": 72,
      "hit": false,
      "t": 254076.11849999824,
      "d": 215.3839333333308,
      "v": 123
    },
    {
      "midi": 69,
      "hit": false,
      "t": 254076.11849999824,
      "d": 217.3070041666506,
      "v": 117
    },
    {
      "midi": 36,
      "hit": false,
      "t": 254306.88699999676,
      "d": 213.460862500011,
      "v": 124
    },
    {
      "midi": 43,
      "hit": false,
      "t": 254306.88699999676,
      "d": 213.460862500011,
      "v": 122
    },
    {
      "midi": 31,
      "hit": false,
      "t": 254306.88699999676,
      "d": 215.3839333333308,
      "v": 124
    },
    {
      "midi": 33,
      "hit": false,
      "t": 254306.88699999676,
      "d": 219.2300749999995,
      "v": 120
    },
    {
      "midi": 69,
      "hit": false,
      "t": 254306.8869999982,
      "d": 211.5377916666621,
      "v": 122
    },
    {
      "midi": 72,
      "hit": false,
      "t": 254306.8869999982,
      "d": 211.5377916666621,
      "v": 125
    },
    {
      "midi": 67,
      "hit": false,
      "t": 254306.8869999982,
      "d": 213.46086249998189,
      "v": 124
    },
    {
      "midi": 60,
      "hit": false,
      "t": 254306.8869999982,
      "d": 215.38393333330168,
      "v": 124
    },
    {
      "midi": 36,
      "hit": false,
      "t": 254537.65549999676,
      "d": 211.5377916666621,
      "v": 123
    },
    {
      "midi": 43,
      "hit": false,
      "t": 254537.65549999676,
      "d": 217.3070041666506,
      "v": 122
    },
    {
      "midi": 31,
      "hit": false,
      "t": 254537.65549999676,
      "d": 219.23007499997038,
      "v": 116
    },
    {
      "midi": 33,
      "hit": false,
      "t": 254537.65549999676,
      "d": 219.23007499997038,
      "v": 124
    },
    {
      "midi": 69,
      "hit": false,
      "t": 254537.6554999982,
      "d": 211.5377916666621,
      "v": 119
    },
    {
      "midi": 72,
      "hit": false,
      "t": 254537.6554999982,
      "d": 213.46086249998189,
      "v": 124
    },
    {
      "midi": 60,
      "hit": false,
      "t": 254537.6554999982,
      "d": 217.3070041666506,
      "v": 122
    },
    {
      "midi": 67,
      "hit": false,
      "t": 254537.6554999982,
      "d": 219.23007499997038,
      "v": 123
    },
    {
      "midi": 31,
      "hit": false,
      "t": 254768.42399999674,
      "d": 136.5380291666661,
      "v": 126
    },
    {
      "midi": 34,
      "hit": false,
      "t": 254768.42399999674,
      "d": 136.5380291666661,
      "v": 125
    },
    {
      "midi": 38,
      "hit": false,
      "t": 254768.42399999674,
      "d": 136.5380291666661,
      "v": 127
    },
    {
      "midi": 43,
      "hit": false,
      "t": 254768.42399999674,
      "d": 136.5380291666661,
      "v": 123
    },
    {
      "midi": 62,
      "hit": false,
      "t": 254768.42399999817,
      "d": 142.3072416666837,
      "v": 126
    },
    {
      "midi": 45,
      "hit": false,
      "t": 254922.2696666634,
      "d": 134.6149583333463,
      "v": 117
    },
    {
      "midi": 67,
      "hit": false,
      "t": 254922.26966666486,
      "d": 134.6149583333463,
      "v": 116
    },
    {
      "midi": 70,
      "hit": false,
      "t": 254922.26966666486,
      "d": 134.6149583333463,
      "v": 117
    },
    {
      "midi": 74,
      "hit": false,
      "t": 254922.26966666486,
      "d": 138.461100000015,
      "v": 120
    },
    {
      "midi": 46,
      "hit": false,
      "t": 255076.1153333301,
      "d": 138.461100000015,
      "v": 121
    },
    {
      "midi": 62,
      "hit": false,
      "t": 255076.11533333155,
      "d": 138.461100000015,
      "v": 121
    },
    {
      "midi": 48,
      "hit": false,
      "t": 255229.96099999675,
      "d": 142.3072416666546,
      "v": 120
    },
    {
      "midi": 67,
      "hit": false,
      "t": 255229.9609999982,
      "d": 140.3841708333348,
      "v": 123
    },
    {
      "midi": 70,
      "hit": false,
      "t": 255229.9609999982,
      "d": 140.3841708333348,
      "v": 116
    },
    {
      "midi": 74,
      "hit": false,
      "t": 255229.9609999982,
      "d": 142.3072416666546,
      "v": 119
    },
    {
      "midi": 50,
      "hit": false,
      "t": 255383.8066666634,
      "d": 140.3841708333348,
      "v": 122
    },
    {
      "midi": 62,
      "hit": false,
      "t": 255383.80666666487,
      "d": 134.6149583333463,
      "v": 117
    },
    {
      "midi": 51,
      "hit": false,
      "t": 255537.65233333007,
      "d": 140.3841708333348,
      "v": 120
    },
    {
      "midi": 67,
      "hit": false,
      "t": 255537.65233333156,
      "d": 134.6149583333463,
      "v": 116
    },
    {
      "midi": 70,
      "hit": false,
      "t": 255537.65233333156,
      "d": 134.6149583333463,
      "v": 116
    },
    {
      "midi": 74,
      "hit": false,
      "t": 255537.65233333156,
      "d": 142.3072416666837,
      "v": 116
    },
    {
      "midi": 38,
      "hit": false,
      "t": 255691.49799999673,
      "d": 444.2293624999875,
      "v": 122
    },
    {
      "midi": 50,
      "hit": false,
      "t": 255691.49799999673,
      "d": 446.1524333333073,
      "v": 120
    },
    {
      "midi": 62,
      "hit": false,
      "t": 255691.49799999822,
      "d": 140.3841708333348,
      "v": 124
    },
    {
      "midi": 70,
      "hit": false,
      "t": 255845.34366666488,
      "d": 136.5380291666661,
      "v": 122
    },
    {
      "midi": 74,
      "hit": false,
      "t": 255845.34366666488,
      "d": 140.3841708333348,
      "v": 116
    },
    {
      "midi": 67,
      "hit": false,
      "t": 255845.34366666488,
      "d": 142.3072416666546,
      "v": 121
    },
    {
      "midi": 62,
      "hit": false,
      "t": 255999.18933333154,
      "d": 134.6149583333463,
      "v": 116
    },
    {
      "midi": 34,
      "hit": false,
      "t": 256153.03499999671,
      "d": 442.3062916666677,
      "v": 124
    },
    {
      "midi": 46,
      "hit": false,
      "t": 256153.03499999671,
      "d": 448.0755041666562,
      "v": 117
    },
    {
      "midi": 74,
      "hit": false,
      "t": 256153.03499999823,
      "d": 136.5380291666661,
      "v": 121
    },
    {
      "midi": 67,
      "hit": false,
      "t": 256153.03499999823,
      "d": 142.3072416666546,
      "v": 122
    },
    {
      "midi": 70,
      "hit": false,
      "t": 256153.03499999823,
      "d": 142.3072416666546,
      "v": 119
    },
    {
      "midi": 62,
      "hit": false,
      "t": 256306.8806666649,
      "d": 142.3072416666546,
      "v": 124
    },
    {
      "midi": 70,
      "hit": false,
      "t": 256460.72633333155,
      "d": 138.4610999999859,
      "v": 120
    },
    {
      "midi": 67,
      "hit": false,
      "t": 256460.72633333155,
      "d": 140.3841708333057,
      "v": 117
    },
    {
      "midi": 74,
      "hit": false,
      "t": 256460.72633333155,
      "d": 140.3841708333057,
      "v": 119
    },
    {
      "midi": 31,
      "hit": false,
      "t": 256614.5719999967,
      "d": 215.3839333333308,
      "v": 127
    },
    {
      "midi": 43,
      "hit": false,
      "t": 256614.5719999967,
      "d": 215.3839333333308,
      "v": 122
    },
    {
      "midi": 38,
      "hit": false,
      "t": 256614.5719999967,
      "d": 217.3070041666506,
      "v": 121
    },
    {
      "midi": 35,
      "hit": false,
      "t": 256614.5719999967,
      "d": 219.23007499997038,
      "v": 122
    },
    {
      "midi": 71,
      "hit": false,
      "t": 256614.57199999818,
      "d": 211.5377916666621,
      "v": 126
    },
    {
      "midi": 65,
      "hit": false,
      "t": 256614.57199999818,
      "d": 217.3070041666506,
      "v": 126
    },
    {
      "midi": 62,
      "hit": false,
      "t": 256614.57199999818,
      "d": 903.8432916666206,
      "v": 123
    },
    {
      "midi": 74,
      "hit": false,
      "t": 256614.57199999818,
      "d": 903.8432916666206,
      "v": 124
    },
    {
      "midi": 35,
      "hit": false,
      "t": 256845.34049999667,
      "d": 211.5377916666621,
      "v": 117
    },
    {
      "midi": 31,
      "hit": false,
      "t": 256845.34049999667,
      "d": 213.46086249998189,
      "v": 120
    },
    {
      "midi": 38,
      "hit": false,
      "t": 256845.34049999667,
      "d": 215.38393333330168,
      "v": 119
    },
    {
      "midi": 43,
      "hit": false,
      "t": 256845.34049999667,
      "d": 217.30700416662148,
      "v": 124
    },
    {
      "midi": 65,
      "hit": false,
      "t": 256845.34049999816,
      "d": 215.3839333333308,
      "v": 117
    },
    {
      "midi": 71,
      "hit": false,
      "t": 256845.34049999816,
      "d": 217.3070041666506,
      "v": 122
    },
    {
      "midi": 35,
      "hit": false,
      "t": 257076.10899999662,
      "d": 213.460862500011,
      "v": 123
    },
    {
      "midi": 38,
      "hit": false,
      "t": 257076.10899999662,
      "d": 215.3839333333308,
      "v": 126
    },
    {
      "midi": 31,
      "hit": false,
      "t": 257076.10899999662,
      "d": 217.3070041666506,
      "v": 123
    },
    {
      "midi": 43,
      "hit": false,
      "t": 257076.10899999662,
      "d": 217.3070041666506,
      "v": 125
    },
    {
      "midi": 65,
      "hit": false,
      "t": 257076.10899999813,
      "d": 215.3839333333308,
      "v": 120
    },
    {
      "midi": 71,
      "hit": false,
      "t": 257076.10899999813,
      "d": 215.3839333333308,
      "v": 121
    },
    {
      "midi": 38,
      "hit": false,
      "t": 257306.8774999966,
      "d": 211.5377916666621,
      "v": 116
    },
    {
      "midi": 43,
      "hit": false,
      "t": 257306.8774999966,
      "d": 211.5377916666621,
      "v": 116
    },
    {
      "midi": 31,
      "hit": false,
      "t": 257306.8774999966,
      "d": 217.3070041666506,
      "v": 116
    },
    {
      "midi": 35,
      "hit": false,
      "t": 257306.8774999966,
      "d": 217.3070041666506,
      "v": 116
    },
    {
      "midi": 71,
      "hit": false,
      "t": 257306.87749999814,
      "d": 215.3839333333308,
      "v": 122
    },
    {
      "midi": 65,
      "hit": false,
      "t": 257306.87749999814,
      "d": 219.2300749999995,
      "v": 119
    },
    {
      "midi": 43,
      "hit": false,
      "t": 257537.64599999657,
      "d": 211.5377916666621,
      "v": 127
    },
    {
      "midi": 31,
      "hit": false,
      "t": 257537.64599999657,
      "d": 213.46086249998189,
      "v": 127
    },
    {
      "midi": 35,
      "hit": false,
      "t": 257537.64599999657,
      "d": 215.38393333330168,
      "v": 125
    },
    {
      "midi": 38,
      "hit": false,
      "t": 257537.64599999657,
      "d": 215.38393333330168,
      "v": 124
    },
    {
      "midi": 70,
      "hit": false,
      "t": 257537.64599999815,
      "d": 213.460862500011,
      "v": 123
    },
    {
      "midi": 65,
      "hit": false,
      "t": 257537.64599999815,
      "d": 219.2300749999995,
      "v": 125
    },
    {
      "midi": 67,
      "hit": false,
      "t": 257537.64599999815,
      "d": 676.920933333342,
      "v": 127
    },
    {
      "midi": 79,
      "hit": false,
      "t": 257537.64599999815,
      "d": 680.7670750000107,
      "v": 123
    },
    {
      "midi": 43,
      "hit": false,
      "t": 257768.41449999655,
      "d": 211.5377916666621,
      "v": 117
    },
    {
      "midi": 31,
      "hit": false,
      "t": 257768.41449999655,
      "d": 215.3839333333308,
      "v": 121
    },
    {
      "midi": 35,
      "hit": false,
      "t": 257768.41449999655,
      "d": 217.3070041666506,
      "v": 124
    },
    {
      "midi": 38,
      "hit": false,
      "t": 257768.41449999655,
      "d": 217.3070041666506,
      "v": 121
    },
    {
      "midi": 65,
      "hit": false,
      "t": 257768.41449999815,
      "d": 215.3839333333308,
      "v": 116
    },
    {
      "midi": 70,
      "hit": false,
      "t": 257768.41449999815,
      "d": 219.2300749999995,
      "v": 123
    },
    {
      "midi": 35,
      "hit": false,
      "t": 257999.18299999653,
      "d": 217.3070041666797,
      "v": 125
    },
    {
      "midi": 38,
      "hit": false,
      "t": 257999.18299999653,
      "d": 217.3070041666797,
      "v": 125
    },
    {
      "midi": 43,
      "hit": false,
      "t": 257999.18299999653,
      "d": 217.3070041666797,
      "v": 119
    },
    {
      "midi": 31,
      "hit": false,
      "t": 257999.18299999653,
      "d": 219.2300749999995,
      "v": 119
    },
    {
      "midi": 65,
      "hit": false,
      "t": 257999.18299999816,
      "d": 213.460862500011,
      "v": 119
    },
    {
      "midi": 70,
      "hit": false,
      "t": 257999.18299999816,
      "d": 219.2300749999995,
      "v": 118
    },
    {
      "midi": 31,
      "hit": false,
      "t": 258229.95149999653,
      "d": 213.460862500011,
      "v": 116
    },
    {
      "midi": 35,
      "hit": false,
      "t": 258229.95149999653,
      "d": 215.3839333333308,
      "v": 116
    },
    {
      "midi": 43,
      "hit": false,
      "t": 258229.95149999653,
      "d": 215.3839333333308,
      "v": 116
    },
    {
      "midi": 38,
      "hit": false,
      "t": 258229.95149999653,
      "d": 217.3070041666506,
      "v": 122
    },
    {
      "midi": 65,
      "hit": false,
      "t": 258229.95149999816,
      "d": 211.5377916666621,
      "v": 122
    },
    {
      "midi": 70,
      "hit": false,
      "t": 258229.95149999816,
      "d": 215.3839333333308,
      "v": 119
    },
    {
      "midi": 74,
      "hit": false,
      "t": 258229.95149999816,
      "d": 217.3070041666506,
      "v": 119
    },
    {
      "midi": 62,
      "hit": false,
      "t": 258229.95149999816,
      "d": 219.23007499997038,
      "v": 123
    },
    {
      "midi": 36,
      "hit": false,
      "t": 258460.7199999965,
      "d": 134.6149583333463,
      "v": 126
    },
    {
      "midi": 39,
      "hit": false,
      "t": 258460.7199999965,
      "d": 140.3841708333348,
      "v": 126
    },
    {
      "midi": 48,
      "hit": false,
      "t": 258460.7199999965,
      "d": 142.3072416666546,
      "v": 121
    },
    {
      "midi": 67,
      "hit": false,
      "t": 258460.71999999814,
      "d": 211.5377916666621,
      "v": 126
    },
    {
      "midi": 72,
      "hit": false,
      "t": 258460.71999999814,
      "d": 211.5377916666621,
      "v": 122
    },
    {
      "midi": 63,
      "hit": false,
      "t": 258460.71999999814,
      "d": 215.3839333333308,
      "v": 125
    },
    {
      "midi": 75,
      "hit": false,
      "t": 258460.71999999814,
      "d": 909.6125041666091,
      "v": 123
    },
    {
      "midi": 38,
      "hit": false,
      "t": 258614.56566666317,
      "d": 142.3072416666546,
      "v": 122
    },
    {
      "midi": 67,
      "hit": false,
      "t": 258691.48849999814,
      "d": 215.3839333333308,
      "v": 120
    },
    {
      "midi": 72,
      "hit": false,
      "t": 258691.48849999814,
      "d": 217.3070041666506,
      "v": 118
    },
    {
      "midi": 63,
      "hit": false,
      "t": 258691.48849999814,
      "d": 219.23007499997038,
      "v": 116
    },
    {
      "midi": 39,
      "hit": false,
      "t": 258768.41133332983,
      "d": 142.3072416666546,
      "v": 124
    },
    {
      "midi": 41,
      "hit": false,
      "t": 258922.2569999965,
      "d": 140.3841708333348,
      "v": 122
    },
    {
      "midi": 67,
      "hit": false,
      "t": 258922.25699999812,
      "d": 211.5377916666621,
      "v": 118
    },
    {
      "midi": 63,
      "hit": false,
      "t": 258922.25699999812,
      "d": 213.46086249998189,
      "v": 121
    },
    {
      "midi": 72,
      "hit": false,
      "t": 258922.25699999812,
      "d": 217.3070041666506,
      "v": 121
    },
    {
      "midi": 43,
      "hit": false,
      "t": 259076.10266666315,
      "d": 138.4610999999859,
      "v": 121
    },
    {
      "midi": 63,
      "hit": false,
      "t": 259153.0254999981,
      "d": 213.460862500011,
      "v": 120
    },
    {
      "midi": 67,
      "hit": false,
      "t": 259153.0254999981,
      "d": 213.460862500011,
      "v": 123
    },
    {
      "midi": 72,
      "hit": false,
      "t": 259153.0254999981,
      "d": 215.3839333333308,
      "v": 118
    },
    {
      "midi": 44,
      "hit": false,
      "t": 259229.9483333298,
      "d": 140.3841708333348,
      "v": 119
    },
    {
      "midi": 43,
      "hit": false,
      "t": 259383.79399999647,
      "d": 448.0755041666562,
      "v": 123
    },
    {
      "midi": 67,
      "hit": false,
      "t": 259383.79399999807,
      "d": 215.3839333333308,
      "v": 121
    },
    {
      "midi": 63,
      "hit": false,
      "t": 259383.79399999807,
      "d": 219.2300749999995,
      "v": 119
    },
    {
      "midi": 72,
      "hit": false,
      "t": 259383.79399999807,
      "d": 219.2300749999995,
      "v": 126
    },
    {
      "midi": 72,
      "hit": false,
      "t": 259614.56249999808,
      "d": 211.5377916666621,
      "v": 117
    },
    {
      "midi": 63,
      "hit": false,
      "t": 259614.56249999808,
      "d": 213.46086249998189,
      "v": 123
    },
    {
      "midi": 67,
      "hit": false,
      "t": 259614.56249999808,
      "d": 217.3070041666506,
      "v": 117
    },
    {
      "midi": 39,
      "hit": false,
      "t": 259845.33099999645,
      "d": 442.3062916666677,
      "v": 120
    },
    {
      "midi": 63,
      "hit": false,
      "t": 259845.33099999806,
      "d": 211.5377916666621,
      "v": 120
    },
    {
      "midi": 67,
      "hit": false,
      "t": 259845.33099999806,
      "d": 211.5377916666621,
      "v": 122
    },
    {
      "midi": 72,
      "hit": false,
      "t": 259845.33099999806,
      "d": 219.2300749999995,
      "v": 118
    },
    {
      "midi": 63,
      "hit": false,
      "t": 260076.09949999806,
      "d": 209.6147208333423,
      "v": 116
    },
    {
      "midi": 67,
      "hit": false,
      "t": 260076.09949999806,
      "d": 209.6147208333423,
      "v": 116
    },
    {
      "midi": 72,
      "hit": false,
      "t": 260076.09949999806,
      "d": 211.5377916666621,
      "v": 118
    },
    {
      "midi": 36,
      "hit": false,
      "t": 260306.86799999647,
      "d": 907.6894333332602,
      "v": 126
    },
    {
      "midi": 48,
      "hit": false,
      "t": 260306.86799999647,
      "d": 911.5355749999289,
      "v": 126
    },
    {
      "midi": 60,
      "hit": false,
      "t": 260306.86799999807,
      "d": 211.5377916666621,
      "v": 124
    },
    {
      "midi": 72,
      "hit": false,
      "t": 260306.86799999807,
      "d": 217.3070041666506,
      "v": 122
    },
    {
      "midi": 72,
      "hit": false,
      "t": 260537.63649999804,
      "d": 211.5377916666621,
      "v": 118
    },
    {
      "midi": 60,
      "hit": false,
      "t": 260537.63649999804,
      "d": 217.3070041666506,
      "v": 118
    },
    {
      "midi": 72,
      "hit": false,
      "t": 260768.40499999802,
      "d": 211.5377916666621,
      "v": 116
    },
    {
      "midi": 60,
      "hit": false,
      "t": 260768.40499999802,
      "d": 215.3839333333308,
      "v": 117
    },
    {
      "midi": 60,
      "hit": false,
      "t": 260999.17349999803,
      "d": 215.3839333333308,
      "v": 120
    },
    {
      "midi": 72,
      "hit": false,
      "t": 260999.17349999803,
      "d": 219.2300749999995,
      "v": 120
    },
    {
      "midi": 37,
      "hit": false,
      "t": 261229.9419999964,
      "d": 446.1524333333073,
      "v": 126
    },
    {
      "midi": 49,
      "hit": false,
      "t": 261229.9419999964,
      "d": 446.1524333333073,
      "v": 122
    },
    {
      "midi": 72,
      "hit": false,
      "t": 261229.94199999803,
      "d": 211.5377916666621,
      "v": 126
    },
    {
      "midi": 60,
      "hit": false,
      "t": 261229.94199999803,
      "d": 219.2300749999995,
      "v": 121
    },
    {
      "midi": 60,
      "hit": false,
      "t": 261460.71049999804,
      "d": 213.460862500011,
      "v": 122
    },
    {
      "midi": 72,
      "hit": false,
      "t": 261460.71049999804,
      "d": 213.460862500011,
      "v": 117
    },
    {
      "midi": 38,
      "hit": false,
      "t": 261691.47899999638,
      "d": 446.1524333333364,
      "v": 123
    },
    {
      "midi": 50,
      "hit": false,
      "t": 261691.47899999638,
      "d": 449.9985750000051,
      "v": 117
    },
    {
      "midi": 60,
      "hit": false,
      "t": 261691.47899999804,
      "d": 215.3839333333308,
      "v": 122
    },
    {
      "midi": 72,
      "hit": false,
      "t": 261691.47899999804,
      "d": 219.2300749999995,
      "v": 119
    },
    {
      "midi": 60,
      "hit": false,
      "t": 261922.24749999805,
      "d": 211.5377916666621,
      "v": 122
    },
    {
      "midi": 72,
      "hit": false,
      "t": 261922.24749999805,
      "d": 219.2300749999995,
      "v": 123
    },
    {
      "midi": 51,
      "hit": false,
      "t": 262153.0159999964,
      "d": 444.2293625000166,
      "v": 127
    },
    {
      "midi": 39,
      "hit": false,
      "t": 262153.0159999964,
      "d": 449.9985750000342,
      "v": 125
    },
    {
      "midi": 60,
      "hit": false,
      "t": 262153.015999998,
      "d": 211.5377916666912,
      "v": 124
    },
    {
      "midi": 72,
      "hit": false,
      "t": 262153.015999998,
      "d": 211.5377916666912,
      "v": 127
    },
    {
      "midi": 60,
      "hit": false,
      "t": 262383.78449999803,
      "d": 215.3839333333308,
      "v": 118
    },
    {
      "midi": 72,
      "hit": false,
      "t": 262383.78449999803,
      "d": 219.23007499997038,
      "v": 117
    },
    {
      "midi": 40,
      "hit": false,
      "t": 262614.5529999964,
      "d": 446.1524333333364,
      "v": 120
    },
    {
      "midi": 52,
      "hit": false,
      "t": 262614.5529999964,
      "d": 448.0755041666562,
      "v": 123
    },
    {
      "midi": 72,
      "hit": false,
      "t": 262614.552999998,
      "d": 213.460862500011,
      "v": 122
    },
    {
      "midi": 60,
      "hit": false,
      "t": 262614.552999998,
      "d": 219.2300750000286,
      "v": 124
    },
    {
      "midi": 72,
      "hit": false,
      "t": 262845.321499998,
      "d": 215.3839333333308,
      "v": 116
    },
    {
      "midi": 60,
      "hit": false,
      "t": 262845.321499998,
      "d": 217.3070041666506,
      "v": 123
    },
    {
      "midi": 41,
      "hit": false,
      "t": 263076.0899999964,
      "d": 444.2293625000166,
      "v": 124
    },
    {
      "midi": 53,
      "hit": false,
      "t": 263076.0899999964,
      "d": 444.2293625000166,
      "v": 123
    },
    {
      "midi": 60,
      "hit": false,
      "t": 263076.089999998,
      "d": 213.460862500011,
      "v": 122
    },
    {
      "midi": 72,
      "hit": false,
      "t": 263076.089999998,
      "d": 219.2300750000286,
      "v": 118
    },
    {
      "midi": 72,
      "hit": false,
      "t": 263306.858499998,
      "d": 211.5377916666912,
      "v": 124
    },
    {
      "midi": 60,
      "hit": false,
      "t": 263306.858499998,
      "d": 217.3070041667088,
      "v": 117
    },
    {
      "midi": 43,
      "hit": false,
      "t": 263537.6269999964,
      "d": 448.0755041666562,
      "v": 121
    },
    {
      "midi": 55,
      "hit": false,
      "t": 263537.6269999964,
      "d": 449.998574999976,
      "v": 120
    },
    {
      "midi": 72,
      "hit": false,
      "t": 263537.62699999806,
      "d": 215.3839333333308,
      "v": 121
    },
    {
      "midi": 60,
      "hit": false,
      "t": 263537.62699999806,
      "d": 219.23007499997038,
      "v": 118
    },
    {
      "midi": 72,
      "hit": false,
      "t": 263768.395499998,
      "d": 211.5377916666912,
      "v": 123
    },
    {
      "midi": 60,
      "hit": false,
      "t": 263768.395499998,
      "d": 213.460862500011,
      "v": 118
    },
    {
      "midi": 48,
      "hit": false,
      "t": 263999.1639999964,
      "d": 213.460862500011,
      "v": 125
    },
    {
      "midi": 51,
      "hit": false,
      "t": 263999.1639999964,
      "d": 215.3839333333308,
      "v": 121
    },
    {
      "midi": 56,
      "hit": false,
      "t": 263999.1639999964,
      "d": 219.23007499997038,
      "v": 124
    },
    {
      "midi": 44,
      "hit": false,
      "t": 263999.1639999964,
      "d": 907.6894333332893,
      "v": 122
    },
    {
      "midi": 60,
      "hit": false,
      "t": 263999.163999998,
      "d": 211.5377916666912,
      "v": 121
    },
    {
      "midi": 63,
      "hit": false,
      "t": 263999.163999998,
      "d": 219.2300750000286,
      "v": 127
    },
    {
      "midi": 72,
      "hit": false,
      "t": 263999.163999998,
      "d": 1367.303362500039,
      "v": 127
    },
    {
      "midi": 56,
      "hit": false,
      "t": 264229.9324999963,
      "d": 211.5377916666912,
      "v": 121
    },
    {
      "midi": 51,
      "hit": false,
      "t": 264229.9324999963,
      "d": 213.460862500011,
      "v": 123
    },
    {
      "midi": 48,
      "hit": false,
      "t": 264229.9324999963,
      "d": 219.2300750000286,
      "v": 122
    },
    {
      "midi": 60,
      "hit": false,
      "t": 264229.932499998,
      "d": 211.5377916666912,
      "v": 118
    },
    {
      "midi": 63,
      "hit": false,
      "t": 264229.932499998,
      "d": 215.3839333333308,
      "v": 124
    },
    {
      "midi": 56,
      "hit": false,
      "t": 264460.70099999633,
      "d": 213.460862500011,
      "v": 118
    },
    {
      "midi": 48,
      "hit": false,
      "t": 264460.70099999633,
      "d": 215.3839333333308,
      "v": 117
    },
    {
      "midi": 51,
      "hit": false,
      "t": 264460.70099999633,
      "d": 217.3070041666506,
      "v": 120
    },
    {
      "midi": 60,
      "hit": false,
      "t": 264460.700999998,
      "d": 211.5377916666912,
      "v": 121
    },
    {
      "midi": 63,
      "hit": false,
      "t": 264460.700999998,
      "d": 215.3839333333308,
      "v": 123
    },
    {
      "midi": 56,
      "hit": false,
      "t": 264691.46949999634,
      "d": 211.5377916666912,
      "v": 122
    },
    {
      "midi": 48,
      "hit": false,
      "t": 264691.46949999634,
      "d": 213.460862500011,
      "v": 121
    },
    {
      "midi": 51,
      "hit": false,
      "t": 264691.46949999634,
      "d": 217.3070041666506,
      "v": 117
    },
    {
      "midi": 60,
      "hit": false,
      "t": 264691.469499998,
      "d": 215.3839333333308,
      "v": 116
    },
    {
      "midi": 63,
      "hit": false,
      "t": 264691.469499998,
      "d": 215.3839333333308,
      "v": 123
    },
    {
      "midi": 48,
      "hit": false,
      "t": 264922.23799999635,
      "d": 215.3839333333308,
      "v": 125
    },
    {
      "midi": 56,
      "hit": false,
      "t": 264922.23799999635,
      "d": 215.3839333333308,
      "v": 119
    },
    {
      "midi": 51,
      "hit": false,
      "t": 264922.23799999635,
      "d": 219.23007499997038,
      "v": 118
    },
    {
      "midi": 60,
      "hit": false,
      "t": 264922.23799999803,
      "d": 215.3839333333308,
      "v": 118
    },
    {
      "midi": 63,
      "hit": false,
      "t": 264922.23799999803,
      "d": 215.3839333333308,
      "v": 120
    },
    {
      "midi": 48,
      "hit": false,
      "t": 265153.0064999963,
      "d": 217.3070041666506,
      "v": 119
    },
    {
      "midi": 56,
      "hit": false,
      "t": 265153.0064999963,
      "d": 217.3070041666506,
      "v": 118
    },
    {
      "midi": 51,
      "hit": false,
      "t": 265153.0064999963,
      "d": 219.23007499997038,
      "v": 124
    },
    {
      "midi": 60,
      "hit": false,
      "t": 265153.00649999804,
      "d": 213.460862500011,
      "v": 120
    },
    {
      "midi": 63,
      "hit": false,
      "t": 265153.00649999804,
      "d": 215.3839333333308,
      "v": 121
    },
    {
      "midi": 48,
      "hit": false,
      "t": 265383.77499999624,
      "d": 219.2300750000286,
      "v": 121
    },
    {
      "midi": 51,
      "hit": false,
      "t": 265383.77499999624,
      "d": 219.2300750000286,
      "v": 118
    },
    {
      "midi": 56,
      "hit": false,
      "t": 265383.77499999624,
      "d": 219.2300750000286,
      "v": 116
    },
    {
      "midi": 44,
      "hit": false,
      "t": 265383.77499999624,
      "d": 448.0755041666562,
      "v": 116
    },
    {
      "midi": 60,
      "hit": false,
      "t": 265383.77499999804,
      "d": 211.5377916666912,
      "v": 116
    },
    {
      "midi": 63,
      "hit": false,
      "t": 265383.77499999804,
      "d": 219.2300750000286,
      "v": 118
    },
    {
      "midi": 68,
      "hit": false,
      "t": 265383.77499999804,
      "d": 444.2293625000166,
      "v": 124
    },
    {
      "midi": 51,
      "hit": false,
      "t": 265614.54349999625,
      "d": 215.3839333333308,
      "v": 121
    },
    {
      "midi": 56,
      "hit": false,
      "t": 265614.54349999625,
      "d": 217.3070041666506,
      "v": 116
    },
    {
      "midi": 48,
      "hit": false,
      "t": 265614.54349999625,
      "d": 219.23007499997038,
      "v": 118
    },
    {
      "midi": 60,
      "hit": false,
      "t": 265614.54349999805,
      "d": 213.460862500011,
      "v": 124
    },
    {
      "midi": 63,
      "hit": false,
      "t": 265614.54349999805,
      "d": 213.460862500011,
      "v": 117
    },
    {
      "midi": 49,
      "hit": false,
      "t": 265845.3119999962,
      "d": 134.6149583333172,
      "v": 122
    },
    {
      "midi": 55,
      "hit": false,
      "t": 265845.3119999962,
      "d": 136.538029166637,
      "v": 123
    },
    {
      "midi": 52,
      "hit": false,
      "t": 265845.3119999962,
      "d": 140.38417083327658,
      "v": 126
    },
    {
      "midi": 44,
      "hit": false,
      "t": 265845.3119999962,
      "d": 676.9209333331091,
      "v": 120
    },
    {
      "midi": 64,
      "hit": false,
      "t": 265845.31199999806,
      "d": 134.6149583333172,
      "v": 120
    },
    {
      "midi": 61,
      "hit": false,
      "t": 265845.31199999806,
      "d": 142.3072416666546,
      "v": 121
    },
    {
      "midi": 73,
      "hit": false,
      "t": 265845.31199999806,
      "d": 673.074791666586,
      "v": 121
    },
    {
      "midi": 49,
      "hit": false,
      "t": 265999.1576666628,
      "d": 140.3841708333348,
      "v": 124
    },
    {
      "midi": 52,
      "hit": false,
      "t": 265999.1576666628,
      "d": 140.3841708333348,
      "v": 120
    },
    {
      "midi": 55,
      "hit": false,
      "t": 265999.1576666628,
      "d": 142.3072416666546,
      "v": 117
    },
    {
      "midi": 61,
      "hit": false,
      "t": 265999.1576666647,
      "d": 134.6149583333172,
      "v": 120
    },
    {
      "midi": 64,
      "hit": false,
      "t": 265999.1576666647,
      "d": 138.4610999999568,
      "v": 121
    },
    {
      "midi": 52,
      "hit": false,
      "t": 266153.00333332946,
      "d": 134.6149583333172,
      "v": 117
    },
    {
      "midi": 55,
      "hit": false,
      "t": 266153.00333332946,
      "d": 138.4610999999568,
      "v": 121
    },
    {
      "midi": 49,
      "hit": false,
      "t": 266153.00333332946,
      "d": 142.30724166659638,
      "v": 116
    },
    {
      "midi": 64,
      "hit": false,
      "t": 266153.0033333313,
      "d": 136.5380291666952,
      "v": 122
    },
    {
      "midi": 61,
      "hit": false,
      "t": 266153.0033333313,
      "d": 140.3841708333348,
      "v": 122
    },
    {
      "midi": 49,
      "hit": false,
      "t": 266306.84899999603,
      "d": 138.461100000015,
      "v": 116
    },
    {
      "midi": 52,
      "hit": false,
      "t": 266306.84899999603,
      "d": 142.3072416666546,
      "v": 116
    },
    {
      "midi": 55,
      "hit": false,
      "t": 266306.84899999603,
      "d": 142.3072416666546,
      "v": 118
    },
    {
      "midi": 64,
      "hit": false,
      "t": 266306.848999998,
      "d": 140.3841708333348,
      "v": 119
    },
    {
      "midi": 61,
      "hit": false,
      "t": 266306.848999998,
      "d": 142.3072416666546,
      "v": 116
    },
    {
      "midi": 52,
      "hit": false,
      "t": 266460.69466666266,
      "d": 134.6149583333172,
      "v": 116
    },
    {
      "midi": 49,
      "hit": false,
      "t": 266460.69466666266,
      "d": 138.4610999999568,
      "v": 119
    },
    {
      "midi": 55,
      "hit": false,
      "t": 266460.69466666266,
      "d": 138.4610999999568,
      "v": 122
    },
    {
      "midi": 61,
      "hit": false,
      "t": 266460.69466666464,
      "d": 138.4610999999568,
      "v": 120
    },
    {
      "midi": 64,
      "hit": false,
      "t": 266460.69466666464,
      "d": 140.38417083327658,
      "v": 116
    },
    {
      "midi": 44,
      "hit": false,
      "t": 266537.617499996,
      "d": 213.460862500011,
      "v": 119
    },
    {
      "midi": 58,
      "hit": false,
      "t": 266537.61749999796,
      "d": 211.53779166663298,
      "v": 126
    },
    {
      "midi": 70,
      "hit": false,
      "t": 266537.61749999796,
      "d": 213.46086249995278,
      "v": 122
    },
    {
      "midi": 49,
      "hit": false,
      "t": 266614.5403333293,
      "d": 138.461100000015,
      "v": 121
    },
    {
      "midi": 52,
      "hit": false,
      "t": 266614.5403333293,
      "d": 142.3072416666546,
      "v": 116
    },
    {
      "midi": 55,
      "hit": false,
      "t": 266614.5403333293,
      "d": 142.3072416666546,
      "v": 122
    },
    {
      "midi": 49,
      "hit": false,
      "t": 266768.3859999959,
      "d": 134.6149583333172,
      "v": 118
    },
    {
      "midi": 52,
      "hit": false,
      "t": 266768.3859999959,
      "d": 142.3072416666546,
      "v": 118
    },
    {
      "midi": 44,
      "hit": false,
      "t": 266768.3859999959,
      "d": 446.15243333327817,
      "v": 119
    },
    {
      "midi": 64,
      "hit": false,
      "t": 266768.3859999979,
      "d": 57.6921250000014,
      "v": 119
    },
    {
      "midi": 61,
      "hit": false,
      "t": 266768.3859999979,
      "d": 65.3844083333388,
      "v": 120
    },
    {
      "midi": 55,
      "hit": false,
      "t": 266768.3859999979,
      "d": 442.3062916666386,
      "v": 121
    },
    {
      "midi": 67,
      "hit": false,
      "t": 266768.3859999979,
      "d": 448.07550416659797,
      "v": 127
    },
    {
      "midi": 49,
      "hit": false,
      "t": 266922.23166666256,
      "d": 134.6149583333172,
      "v": 123
    },
    {
      "midi": 52,
      "hit": false,
      "t": 266922.23166666256,
      "d": 136.538029166637,
      "v": 124
    },
    {
      "midi": 64,
      "hit": false,
      "t": 266922.2316666646,
      "d": 138.461100000015,
      "v": 123
    },
    {
      "midi": 61,
      "hit": false,
      "t": 266922.2316666646,
      "d": 142.3072416666546,
      "v": 123
    },
    {
      "midi": 49,
      "hit": false,
      "t": 267076.0773333292,
      "d": 138.461100000015,
      "v": 116
    },
    {
      "midi": 52,
      "hit": false,
      "t": 267076.0773333292,
      "d": 138.461100000015,
      "v": 122
    },
    {
      "midi": 61,
      "hit": false,
      "t": 267076.0773333312,
      "d": 134.6149583333172,
      "v": 120
    },
    {
      "midi": 64,
      "hit": false,
      "t": 267076.0773333312,
      "d": 138.4610999999568,
      "v": 122
    },
    {
      "midi": 55,
      "hit": false,
      "t": 267229.9229999959,
      "d": 136.5380291666952,
      "v": 122
    },
    {
      "midi": 52,
      "hit": false,
      "t": 267229.9229999959,
      "d": 138.461100000015,
      "v": 124
    },
    {
      "midi": 49,
      "hit": false,
      "t": 267229.9229999959,
      "d": 140.3841708333348,
      "v": 121
    },
    {
      "midi": 44,
      "hit": false,
      "t": 267229.9229999959,
      "d": 448.0755041667144,
      "v": 121
    },
    {
      "midi": 61,
      "hit": false,
      "t": 267229.92299999786,
      "d": 138.461100000015,
      "v": 118
    },
    {
      "midi": 64,
      "hit": false,
      "t": 267229.92299999786,
      "d": 140.3841708333348,
      "v": 120
    },
    {
      "midi": 70,
      "hit": false,
      "t": 267229.92299999786,
      "d": 442.3062916666386,
      "v": 126
    },
    {
      "midi": 58,
      "hit": false,
      "t": 267229.92299999786,
      "d": 448.0755041666562,
      "v": 125
    },
    {
      "midi": 49,
      "hit": false,
      "t": 267383.76866666257,
      "d": 134.6149583333172,
      "v": 120
    },
    {
      "midi": 52,
      "hit": false,
      "t": 267383.76866666257,
      "d": 134.6149583333172,
      "v": 120
    },
    {
      "midi": 55,
      "hit": false,
      "t": 267383.76866666257,
      "d": 140.3841708333348,
      "v": 118
    },
    {
      "midi": 61,
      "hit": false,
      "t": 267383.76866666455,
      "d": 134.6149583333172,
      "v": 123
    },
    {
      "midi": 64,
      "hit": false,
      "t": 267383.76866666455,
      "d": 138.4610999999568,
      "v": 120
    },
    {
      "midi": 55,
      "hit": false,
      "t": 267537.61433332926,
      "d": 136.5380291666952,
      "v": 120
    },
    {
      "midi": 49,
      "hit": false,
      "t": 267537.61433332926,
      "d": 140.3841708333348,
      "v": 121
    },
    {
      "midi": 52,
      "hit": false,
      "t": 267537.61433332926,
      "d": 142.3072416666546,
      "v": 117
    },
    {
      "midi": 61,
      "hit": false,
      "t": 267537.6143333312,
      "d": 140.3841708333348,
      "v": 116
    },
    {
      "midi": 64,
      "hit": false,
      "t": 267537.6143333312,
      "d": 140.3841708333348,
      "v": 119
    },
    {
      "midi": 44,
      "hit": false,
      "t": 267691.4599999959,
      "d": 446.15243333321996,
      "v": 112
    },
    {
      "midi": 32,
      "hit": false,
      "t": 267691.4599999959,
      "d": 449.99857499985956,
      "v": 115
    },
    {
      "midi": 63,
      "hit": false,
      "t": 267691.45999999787,
      "d": 136.5380291666952,
      "v": 117
    },
    {
      "midi": 60,
      "hit": false,
      "t": 267691.45999999787,
      "d": 142.3072416667128,
      "v": 116
    },
    {
      "midi": 56,
      "hit": false,
      "t": 267691.45999999787,
      "d": 448.0755041666562,
      "v": 117
    },
    {
      "midi": 68,
      "hit": false,
      "t": 267691.45999999787,
      "d": 448.0755041666562,
      "v": 116
    },
    {
      "midi": 51,
      "hit": false,
      "t": 267845.3056666626,
      "d": 136.538029166637,
      "v": 112
    },
    {
      "midi": 56,
      "hit": false,
      "t": 267845.3056666626,
      "d": 140.38417083327658,
      "v": 111
    },
    {
      "midi": 48,
      "hit": false,
      "t": 267845.3056666626,
      "d": 142.30724166659638,
      "v": 106
    },
    {
      "midi": 60,
      "hit": false,
      "t": 267845.30566666456,
      "d": 138.4610999999568,
      "v": 109
    },
    {
      "midi": 63,
      "hit": false,
      "t": 267845.30566666456,
      "d": 140.38417083327658,
      "v": 112
    },
    {
      "midi": 48,
      "hit": false,
      "t": 267999.15133332915,
      "d": 136.538029166637,
      "v": 113
    },
    {
      "midi": 51,
      "hit": false,
      "t": 267999.15133332915,
      "d": 140.38417083327658,
      "v": 111
    },
    {
      "midi": 56,
      "hit": false,
      "t": 267999.15133332915,
      "d": 140.38417083327658,
      "v": 106
    },
    {
      "midi": 60,
      "hit": false,
      "t": 267999.1513333312,
      "d": 138.461100000015,
      "v": 110
    },
    {
      "midi": 63,
      "hit": false,
      "t": 267999.1513333312,
      "d": 140.3841708333348,
      "v": 110
    },
    {
      "midi": 51,
      "hit": false,
      "t": 268152.9969999957,
      "d": 134.6149583333172,
      "v": 107
    },
    {
      "midi": 56,
      "hit": false,
      "t": 268152.9969999957,
      "d": 134.6149583333172,
      "v": 109
    },
    {
      "midi": 48,
      "hit": false,
      "t": 268152.9969999957,
      "d": 138.4610999999568,
      "v": 107
    },
    {
      "midi": 60,
      "hit": false,
      "t": 268152.9969999978,
      "d": 136.5380291666952,
      "v": 106
    },
    {
      "midi": 63,
      "hit": false,
      "t": 268152.9969999978,
      "d": 136.5380291666952,
      "v": 113
    },
    {
      "midi": 56,
      "hit": false,
      "t": 268306.84266666236,
      "d": 134.6149583333172,
      "v": 111
    },
    {
      "midi": 51,
      "hit": false,
      "t": 268306.84266666236,
      "d": 140.3841708333348,
      "v": 108
    },
    {
      "midi": 48,
      "hit": false,
      "t": 268306.84266666236,
      "d": 142.3072416666546,
      "v": 106
    },
    {
      "midi": 60,
      "hit": false,
      "t": 268306.8426666645,
      "d": 136.538029166637,
      "v": 110
    },
    {
      "midi": 63,
      "hit": false,
      "t": 268306.8426666645,
      "d": 138.4610999999568,
      "v": 108
    },
    {
      "midi": 48,
      "hit": false,
      "t": 268460.688333329,
      "d": 134.6149583333172,
      "v": 112
    },
    {
      "midi": 56,
      "hit": false,
      "t": 268460.688333329,
      "d": 134.6149583333172,
      "v": 108
    },
    {
      "midi": 51,
      "hit": false,
      "t": 268460.688333329,
      "d": 142.3072416666546,
      "v": 107
    },
    {
      "midi": 63,
      "hit": false,
      "t": 268460.68833333114,
      "d": 136.538029166637,
      "v": 112
    },
    {
      "midi": 60,
      "hit": false,
      "t": 268460.68833333114,
      "d": 138.4610999999568,
      "v": 108
    },
    {
      "midi": 48,
      "hit": false,
      "t": 268614.5339999956,
      "d": 140.3841708333348,
      "v": 112
    },
    {
      "midi": 51,
      "hit": false,
      "t": 268614.5339999956,
      "d": 140.3841708333348,
      "v": 111
    },
    {
      "midi": 56,
      "hit": false,
      "t": 268614.5339999956,
      "d": 140.3841708333348,
      "v": 114
    },
    {
      "midi": 60,
      "hit": false,
      "t": 268614.5339999978,
      "d": 134.6149583333172,
      "v": 114
    },
    {
      "midi": 63,
      "hit": false,
      "t": 268614.5339999978,
      "d": 140.3841708333348,
      "v": 114
    },
    {
      "midi": 56,
      "hit": false,
      "t": 268768.3796666623,
      "d": 134.6149583333172,
      "v": 114
    },
    {
      "midi": 48,
      "hit": false,
      "t": 268768.3796666623,
      "d": 142.3072416666546,
      "v": 112
    },
    {
      "midi": 51,
      "hit": false,
      "t": 268768.3796666623,
      "d": 142.3072416666546,
      "v": 111
    },
    {
      "midi": 60,
      "hit": false,
      "t": 268768.37966666446,
      "d": 142.3072416666546,
      "v": 109
    },
    {
      "midi": 63,
      "hit": false,
      "t": 268768.37966666446,
      "d": 142.3072416666546,
      "v": 111
    },
    {
      "midi": 48,
      "hit": false,
      "t": 268922.22533332894,
      "d": 136.538029166637,
      "v": 109
    },
    {
      "midi": 51,
      "hit": false,
      "t": 268922.22533332894,
      "d": 142.3072416666546,
      "v": 113
    },
    {
      "midi": 56,
      "hit": false,
      "t": 268922.22533332894,
      "d": 142.3072416666546,
      "v": 111
    },
    {
      "midi": 60,
      "hit": false,
      "t": 268922.2253333311,
      "d": 136.538029166637,
      "v": 112
    },
    {
      "midi": 63,
      "hit": false,
      "t": 268922.2253333311,
      "d": 138.4610999999568,
      "v": 113
    },
    {
      "midi": 48,
      "hit": false,
      "t": 269076.0709999956,
      "d": 138.461100000015,
      "v": 106
    },
    {
      "midi": 51,
      "hit": false,
      "t": 269076.0709999956,
      "d": 142.3072416666546,
      "v": 114
    },
    {
      "midi": 56,
      "hit": false,
      "t": 269076.0709999956,
      "d": 142.3072416666546,
      "v": 107
    },
    {
      "midi": 60,
      "hit": false,
      "t": 269076.0709999977,
      "d": 142.3072416666546,
      "v": 113
    },
    {
      "midi": 63,
      "hit": false,
      "t": 269076.0709999977,
      "d": 142.3072416666546,
      "v": 109
    },
    {
      "midi": 56,
      "hit": false,
      "t": 269229.9166666622,
      "d": 136.538029166637,
      "v": 110
    },
    {
      "midi": 48,
      "hit": false,
      "t": 269229.9166666622,
      "d": 140.38417083327658,
      "v": 107
    },
    {
      "midi": 51,
      "hit": false,
      "t": 269229.9166666622,
      "d": 142.30724166659638,
      "v": 108
    },
    {
      "midi": 63,
      "hit": false,
      "t": 269229.91666666436,
      "d": 134.6149583333172,
      "v": 109
    },
    {
      "midi": 60,
      "hit": false,
      "t": 269229.91666666436,
      "d": 136.538029166637,
      "v": 107
    },
    {
      "midi": 48,
      "hit": false,
      "t": 269383.7623333288,
      "d": 134.6149583333172,
      "v": 108
    },
    {
      "midi": 56,
      "hit": false,
      "t": 269383.7623333288,
      "d": 138.4610999999568,
      "v": 109
    },
    {
      "midi": 51,
      "hit": false,
      "t": 269383.7623333288,
      "d": 140.38417083327658,
      "v": 112
    },
    {
      "midi": 60,
      "hit": false,
      "t": 269383.762333331,
      "d": 134.6149583333172,
      "v": 111
    },
    {
      "midi": 63,
      "hit": false,
      "t": 269383.762333331,
      "d": 140.3841708333348,
      "v": 114
    },
    {
      "midi": 51,
      "hit": false,
      "t": 269537.60799999535,
      "d": 442.3062916666386,
      "v": 72
    },
    {
      "midi": 56,
      "hit": false,
      "t": 269537.60799999535,
      "d": 442.3062916666386,
      "v": 79
    },
    {
      "midi": 48,
      "hit": false,
      "t": 269537.60799999535,
      "d": 449.998574999976,
      "v": 78
    },
    {
      "midi": 60,
      "hit": false,
      "t": 269537.6079999976,
      "d": 446.1524333333364,
      "v": 71
    },
    {
      "midi": 63,
      "hit": false,
      "t": 269537.6079999976,
      "d": 446.1524333333364,
      "v": 75
    },
    {
      "midi": 56,
      "hit": false,
      "t": 270114.5292499953,
      "d": 96.1535416666884,
      "v": 71
    },
    {
      "midi": 68,
      "hit": false,
      "t": 270114.52924999763,
      "d": 103.8458250000258,
      "v": 67
    },
    {
      "midi": 56,
      "hit": false,
      "t": 270229.9134999953,
      "d": 98.0766125000082,
      "v": 74
    },
    {
      "midi": 68,
      "hit": false,
      "t": 270229.91349999764,
      "d": 98.0766125000082,
      "v": 67
    },
    {
      "midi": 58,
      "hit": false,
      "t": 270345.2977499953,
      "d": 103.8458250000258,
      "v": 74
    },
    {
      "midi": 70,
      "hit": false,
      "t": 270345.29774999764,
      "d": 99.999683333328,
      "v": 69
    },
    {
      "midi": 60,
      "hit": false,
      "t": 270460.6819999953,
      "d": 444.2293625000166,
      "v": 76
    },
    {
      "midi": 72,
      "hit": false,
      "t": 270460.68199999764,
      "d": 449.998574999976,
      "v": 70
    },
    {
      "midi": 58,
      "hit": false,
      "t": 270922.2189999953,
      "d": 211.5377916666912,
      "v": 73
    },
    {
      "midi": 70,
      "hit": false,
      "t": 270922.2189999976,
      "d": 219.2300750000286,
      "v": 75
    },
    {
      "midi": 56,
      "hit": false,
      "t": 271152.98749999533,
      "d": 211.5377916666912,
      "v": 72
    },
    {
      "midi": 68,
      "hit": false,
      "t": 271152.9874999976,
      "d": 215.3839333333308,
      "v": 72
    },
    {
      "midi": 55,
      "hit": false,
      "t": 271383.75599999534,
      "d": 442.3062916666386,
      "v": 77
    },
    {
      "midi": 67,
      "hit": false,
      "t": 271383.7559999976,
      "d": 448.0755041666562,
      "v": 71
    },
    {
      "midi": 47,
      "hit": false,
      "t": 271845.2929999953,
      "d": 213.460862500011,
      "v": 67
    },
    {
      "midi": 49,
      "hit": false,
      "t": 271845.2929999953,
      "d": 215.3839333333308,
      "v": 75
    },
    {
      "midi": 37,
      "hit": false,
      "t": 271845.2929999953,
      "d": 217.3070041666506,
      "v": 68
    },
    {
      "midi": 43,
      "hit": false,
      "t": 271845.2929999953,
      "d": 219.23007499997038,
      "v": 75
    },
    {
      "midi": 58,
      "hit": false,
      "t": 271845.2929999976,
      "d": 211.5377916666912,
      "v": 69
    },
    {
      "midi": 64,
      "hit": false,
      "t": 271845.2929999976,
      "d": 213.460862500011,
      "v": 68
    },
    {
      "midi": 55,
      "hit": false,
      "t": 271845.2929999976,
      "d": 215.3839333333308,
      "v": 71
    },
    {
      "midi": 49,
      "hit": false,
      "t": 272076.06149999524,
      "d": 213.460862500011,
      "v": 67
    },
    {
      "midi": 37,
      "hit": false,
      "t": 272076.06149999524,
      "d": 219.2300750000286,
      "v": 74
    },
    {
      "midi": 38,
      "hit": false,
      "t": 272306.82999999524,
      "d": 448.0755041666562,
      "v": 70
    },
    {
      "midi": 50,
      "hit": false,
      "t": 272306.82999999524,
      "d": 449.998574999976,
      "v": 72
    },
    {
      "midi": 45,
      "hit": false,
      "t": 272768.3669999952,
      "d": 211.5377916666912,
      "v": 74
    },
    {
      "midi": 50,
      "hit": false,
      "t": 272768.3669999952,
      "d": 211.5377916666912,
      "v": 74
    },
    {
      "midi": 38,
      "hit": false,
      "t": 272768.3669999952,
      "d": 213.460862500011,
      "v": 75
    },
    {
      "midi": 42,
      "hit": false,
      "t": 272768.3669999952,
      "d": 219.2300750000286,
      "v": 67
    },
    {
      "midi": 62,
      "hit": false,
      "t": 272768.36699999764,
      "d": 213.460862500011,
      "v": 69
    },
    {
      "midi": 66,
      "hit": false,
      "t": 272768.36699999764,
      "d": 215.3839333333308,
      "v": 71
    },
    {
      "midi": 57,
      "hit": false,
      "t": 272768.36699999764,
      "d": 219.23007499997038,
      "v": 75
    },
    {
      "midi": 60,
      "hit": false,
      "t": 272768.36699999764,
      "d": 219.23007499997038,
      "v": 73
    },
    {
      "midi": 34,
      "hit": false,
      "t": 273229.9039999952,
      "d": 444.2293625000166,
      "v": 79
    },
    {
      "midi": 43,
      "hit": false,
      "t": 273229.9039999952,
      "d": 444.2293625000166,
      "v": 75
    },
    {
      "midi": 38,
      "hit": false,
      "t": 273229.9039999952,
      "d": 446.1524333333364,
      "v": 76
    },
    {
      "midi": 31,
      "hit": false,
      "t": 273229.9039999952,
      "d": 449.998574999976,
      "v": 75
    },
    {
      "midi": 58,
      "hit": false,
      "t": 273229.9039999976,
      "d": 442.3062916666386,
      "v": 75
    },
    {
      "midi": 67,
      "hit": false,
      "t": 273229.9039999976,
      "d": 444.22936249995837,
      "v": 72
    },
    {
      "midi": 62,
      "hit": false,
      "t": 273229.9039999976,
      "d": 446.15243333327817,
      "v": 71
    },
    {
      "midi": 55,
      "hit": false,
      "t": 273229.9039999976,
      "d": 449.99857499991776,
      "v": 73
    }
  ]
}