{
  "jsonPath": "Classical/Classical/Evgeny Kissin/polonaise-in-c-sharp-minor-op-26-no-1.json",
  "path": "Classical\\Classical\\Evgeny Kissin\\Polonaise in C-Sharp Minor_ Op 26_ No 1.mid",
  "name": "Polonaise in C-Sharp Minor_ Op 26_ No 1",
  "difficulty": "Advanced",
  "bpm": 96,
  "notes": [
    {
      "midi": 61,
      "hit": false,
      "t": 0,
      "d": 98.68425,
      "v": 110
    },
    {
      "midi": 37,
      "hit": false,
      "t": 0,
      "d": 98.68425,
      "v": 110
    },
    {
      "midi": 49,
      "hit": false,
      "t": 0,
      "d": 98.68425,
      "v": 110
    },
    {
      "midi": 52,
      "hit": false,
      "t": 98.68425,
      "d": 690.78975,
      "v": 110
    },
    {
      "midi": 64,
      "hit": false,
      "t": 98.68425,
      "d": 690.78975,
      "v": 110
    },
    {
      "midi": 40,
      "hit": false,
      "t": 98.68425,
      "d": 690.78975,
      "v": 110
    },
    {
      "midi": 59,
      "hit": false,
      "t": 789.474,
      "d": 98.68425000000002,
      "v": 110
    },
    {
      "midi": 35,
      "hit": false,
      "t": 789.474,
      "d": 98.68425000000002,
      "v": 110
    },
    {
      "midi": 47,
      "hit": false,
      "t": 789.474,
      "d": 98.68425000000002,
      "v": 110
    },
    {
      "midi": 52,
      "hit": false,
      "t": 888.1582500000001,
      "d": 690.78975,
      "v": 110
    },
    {
      "midi": 64,
      "hit": false,
      "t": 888.1582500000001,
      "d": 690.78975,
      "v": 110
    },
    {
      "midi": 40,
      "hit": false,
      "t": 888.1582500000001,
      "d": 690.78975,
      "v": 110
    },
    {
      "midi": 57,
      "hit": false,
      "t": 1578.948,
      "d": 98.68425000000002,
      "v": 110
    },
    {
      "midi": 33,
      "hit": false,
      "t": 1578.948,
      "d": 98.68425000000002,
      "v": 110
    },
    {
      "midi": 45,
      "hit": false,
      "t": 1578.948,
      "d": 98.68425000000002,
      "v": 110
    },
    {
      "midi": 52,
      "hit": false,
      "t": 1677.63225,
      "d": 690.7897499999999,
      "v": 110
    },
    {
      "midi": 64,
      "hit": false,
      "t": 1677.63225,
      "d": 690.7897499999999,
      "v": 110
    },
    {
      "midi": 40,
      "hit": false,
      "t": 1677.63225,
      "d": 690.7897499999999,
      "v": 110
    },
    {
      "midi": 56,
      "hit": false,
      "t": 2368.422,
      "d": 98.68424999999979,
      "v": 110
    },
    {
      "midi": 32,
      "hit": false,
      "t": 2368.422,
      "d": 98.68424999999979,
      "v": 110
    },
    {
      "midi": 44,
      "hit": false,
      "t": 2368.422,
      "d": 98.68424999999979,
      "v": 110
    },
    {
      "midi": 52,
      "hit": false,
      "t": 2467.10625,
      "d": 690.7897499999999,
      "v": 110
    },
    {
      "midi": 64,
      "hit": false,
      "t": 2467.10625,
      "d": 690.7897499999999,
      "v": 110
    },
    {
      "midi": 40,
      "hit": false,
      "t": 2467.10625,
      "d": 690.7897499999999,
      "v": 110
    },
    {
      "midi": 55,
      "hit": false,
      "t": 3157.8959999999997,
      "d": 98.68424999999979,
      "v": 110
    },
    {
      "midi": 31,
      "hit": false,
      "t": 3157.8959999999997,
      "d": 98.68424999999979,
      "v": 110
    },
    {
      "midi": 43,
      "hit": false,
      "t": 3157.8959999999997,
      "d": 98.68424999999979,
      "v": 110
    },
    {
      "midi": 52,
      "hit": false,
      "t": 3256.5802499999995,
      "d": 690.7897499999999,
      "v": 110
    },
    {
      "midi": 64,
      "hit": false,
      "t": 3256.5802499999995,
      "d": 690.7897499999999,
      "v": 110
    },
    {
      "midi": 40,
      "hit": false,
      "t": 3256.5802499999995,
      "d": 690.7897499999999,
      "v": 110
    },
    {
      "midi": 55,
      "hit": false,
      "t": 4736.843999999999,
      "d": 592.1054999999997,
      "v": 120
    },
    {
      "midi": 57,
      "hit": false,
      "t": 4736.843999999999,
      "d": 592.1054999999997,
      "v": 120
    },
    {
      "midi": 61,
      "hit": false,
      "t": 4736.843999999999,
      "d": 592.1054999999997,
      "v": 120
    },
    {
      "midi": 64,
      "hit": false,
      "t": 4736.843999999999,
      "d": 592.1054999999997,
      "v": 120
    },
    {
      "midi": 67,
      "hit": false,
      "t": 4736.843999999999,
      "d": 592.1054999999997,
      "v": 120
    },
    {
      "midi": 76,
      "hit": false,
      "t": 4736.844,
      "d": 592.1054999999997,
      "v": 120
    },
    {
      "midi": 82,
      "hit": false,
      "t": 4736.844,
      "d": 592.1054999999997,
      "v": 120
    },
    {
      "midi": 85,
      "hit": false,
      "t": 4736.844,
      "d": 592.1054999999997,
      "v": 120
    },
    {
      "midi": 88,
      "hit": false,
      "t": 4736.844,
      "d": 592.1054999999997,
      "v": 120
    },
    {
      "midi": 43,
      "hit": false,
      "t": 5328.949499999999,
      "d": 98.68425000000025,
      "v": 120
    },
    {
      "midi": 55,
      "hit": false,
      "t": 5328.949499999999,
      "d": 98.68425000000025,
      "v": 120
    },
    {
      "midi": 64,
      "hit": false,
      "t": 5328.9495,
      "d": 98.68425000000025,
      "v": 120
    },
    {
      "midi": 70,
      "hit": false,
      "t": 5328.9495,
      "d": 98.68425000000025,
      "v": 120
    },
    {
      "midi": 73,
      "hit": false,
      "t": 5328.9495,
      "d": 98.68425000000025,
      "v": 120
    },
    {
      "midi": 76,
      "hit": false,
      "t": 5328.9495,
      "d": 98.68425000000025,
      "v": 120
    },
    {
      "midi": 44,
      "hit": false,
      "t": 5526.317999999999,
      "d": 98.68425000000025,
      "v": 120
    },
    {
      "midi": 56,
      "hit": false,
      "t": 5526.317999999999,
      "d": 98.68425000000025,
      "v": 120
    },
    {
      "midi": 64,
      "hit": false,
      "t": 5526.318,
      "d": 98.68425000000025,
      "v": 120
    },
    {
      "midi": 68,
      "hit": false,
      "t": 5526.318,
      "d": 98.68425000000025,
      "v": 120
    },
    {
      "midi": 73,
      "hit": false,
      "t": 5526.318,
      "d": 98.68425000000025,
      "v": 120
    },
    {
      "midi": 76,
      "hit": false,
      "t": 5526.318,
      "d": 98.68425000000025,
      "v": 120
    },
    {
      "midi": 32,
      "hit": false,
      "t": 6315.7919999999995,
      "d": 98.68425000000025,
      "v": 120
    },
    {
      "midi": 44,
      "hit": false,
      "t": 6315.7919999999995,
      "d": 98.68425000000025,
      "v": 120
    },
    {
      "midi": 66,
      "hit": false,
      "t": 6315.792,
      "d": 98.68425000000025,
      "v": 120
    },
    {
      "midi": 68,
      "hit": false,
      "t": 6315.792,
      "d": 98.68425000000025,
      "v": 120
    },
    {
      "midi": 72,
      "hit": false,
      "t": 6315.792,
      "d": 98.68425000000025,
      "v": 120
    },
    {
      "midi": 75,
      "hit": false,
      "t": 6315.792,
      "d": 98.68425000000025,
      "v": 120
    },
    {
      "midi": 37,
      "hit": false,
      "t": 7105.266,
      "d": 98.68425000000025,
      "v": 120
    },
    {
      "midi": 49,
      "hit": false,
      "t": 7105.266,
      "d": 98.68425000000025,
      "v": 120
    },
    {
      "midi": 64,
      "hit": false,
      "t": 7105.2660000000005,
      "d": 98.68425000000025,
      "v": 120
    },
    {
      "midi": 68,
      "hit": false,
      "t": 7105.2660000000005,
      "d": 98.68425000000025,
      "v": 120
    },
    {
      "midi": 73,
      "hit": false,
      "t": 7105.2660000000005,
      "d": 98.68425000000025,
      "v": 120
    },
    {
      "midi": 49,
      "hit": false,
      "t": 7697.3715,
      "d": 98.68425000000025,
      "v": 120
    },
    {
      "midi": 56,
      "hit": false,
      "t": 7796.05575,
      "d": 98.68425000000025,
      "v": 120
    },
    {
      "midi": 73,
      "hit": false,
      "t": 7894.740000000001,
      "d": 98.68425000000025,
      "v": 120
    },
    {
      "midi": 76,
      "hit": false,
      "t": 7894.740000000001,
      "d": 98.68425000000025,
      "v": 120
    },
    {
      "midi": 80,
      "hit": false,
      "t": 7894.740000000001,
      "d": 98.68425000000025,
      "v": 120
    },
    {
      "midi": 85,
      "hit": false,
      "t": 7894.740000000001,
      "d": 98.68425000000025,
      "v": 120
    },
    {
      "midi": 64,
      "hit": false,
      "t": 7894.740000000001,
      "d": 98.68425000000025,
      "v": 120
    },
    {
      "midi": 68,
      "hit": false,
      "t": 9078.951000000001,
      "d": 394.73699999999917,
      "v": 100
    },
    {
      "midi": 75,
      "hit": false,
      "t": 9473.688,
      "d": 1184.2109999999993,
      "v": 100
    },
    {
      "midi": 25,
      "hit": false,
      "t": 9473.688000000002,
      "d": 394.73699999999917,
      "v": 110
    },
    {
      "midi": 37,
      "hit": false,
      "t": 9473.688000000002,
      "d": 394.73699999999917,
      "v": 110
    },
    {
      "midi": 56,
      "hit": false,
      "t": 9868.425000000001,
      "d": 197.3685000000005,
      "v": 100
    },
    {
      "midi": 60,
      "hit": false,
      "t": 9868.425000000001,
      "d": 197.3685000000005,
      "v": 100
    },
    {
      "midi": 66,
      "hit": false,
      "t": 9868.425000000001,
      "d": 197.3685000000005,
      "v": 100
    },
    {
      "midi": 56,
      "hit": false,
      "t": 10065.793500000002,
      "d": 197.3685000000005,
      "v": 101
    },
    {
      "midi": 60,
      "hit": false,
      "t": 10065.793500000002,
      "d": 197.3685000000005,
      "v": 101
    },
    {
      "midi": 66,
      "hit": false,
      "t": 10065.793500000002,
      "d": 197.3685000000005,
      "v": 101
    },
    {
      "midi": 56,
      "hit": false,
      "t": 10263.162000000002,
      "d": 394.73699999999917,
      "v": 101
    },
    {
      "midi": 60,
      "hit": false,
      "t": 10263.162000000002,
      "d": 394.73699999999917,
      "v": 101
    },
    {
      "midi": 66,
      "hit": false,
      "t": 10263.162000000002,
      "d": 394.73699999999917,
      "v": 101
    },
    {
      "midi": 73,
      "hit": false,
      "t": 10657.899,
      "d": 197.3685000000005,
      "v": 102
    },
    {
      "midi": 56,
      "hit": false,
      "t": 10657.899000000001,
      "d": 394.73699999999917,
      "v": 102
    },
    {
      "midi": 60,
      "hit": false,
      "t": 10657.899000000001,
      "d": 394.73699999999917,
      "v": 102
    },
    {
      "midi": 66,
      "hit": false,
      "t": 10657.899000000001,
      "d": 394.73699999999917,
      "v": 102
    },
    {
      "midi": 75,
      "hit": false,
      "t": 10855.2675,
      "d": 197.3685000000005,
      "v": 103
    },
    {
      "midi": 77,
      "hit": false,
      "t": 11052.636,
      "d": 394.73699999999917,
      "v": 103
    },
    {
      "midi": 49,
      "hit": false,
      "t": 11052.636,
      "d": 394.73699999999917,
      "v": 113
    },
    {
      "midi": 75,
      "hit": false,
      "t": 11447.373,
      "d": 197.3685000000005,
      "v": 104
    },
    {
      "midi": 56,
      "hit": false,
      "t": 11447.373,
      "d": 394.73699999999917,
      "v": 104
    },
    {
      "midi": 59,
      "hit": false,
      "t": 11447.373,
      "d": 394.73699999999917,
      "v": 104
    },
    {
      "midi": 61,
      "hit": false,
      "t": 11447.373,
      "d": 394.73699999999917,
      "v": 104
    },
    {
      "midi": 65,
      "hit": false,
      "t": 11447.373,
      "d": 394.73699999999917,
      "v": 104
    },
    {
      "midi": 77,
      "hit": false,
      "t": 11644.7415,
      "d": 197.3685000000005,
      "v": 105
    },
    {
      "midi": 54,
      "hit": false,
      "t": 11842.109999999999,
      "d": 789.4739999999983,
      "v": 115
    },
    {
      "midi": 78,
      "hit": false,
      "t": 11842.11,
      "d": 394.73699999999917,
      "v": 105
    },
    {
      "midi": 57,
      "hit": false,
      "t": 12236.846999999998,
      "d": 394.73699999999917,
      "v": 106
    },
    {
      "midi": 61,
      "hit": false,
      "t": 12236.846999999998,
      "d": 394.73699999999917,
      "v": 106
    },
    {
      "midi": 66,
      "hit": false,
      "t": 12236.846999999998,
      "d": 394.73699999999917,
      "v": 106
    },
    {
      "midi": 77,
      "hit": false,
      "t": 12236.847,
      "d": 197.3685000000005,
      "v": 106
    },
    {
      "midi": 78,
      "hit": false,
      "t": 12434.2155,
      "d": 197.3685000000005,
      "v": 106
    },
    {
      "midi": 53,
      "hit": false,
      "t": 12631.583999999997,
      "d": 789.4739999999983,
      "v": 117
    },
    {
      "midi": 80,
      "hit": false,
      "t": 12631.584,
      "d": 394.73699999999917,
      "v": 107
    },
    {
      "midi": 59,
      "hit": false,
      "t": 13026.320999999996,
      "d": 394.73699999999917,
      "v": 108
    },
    {
      "midi": 61,
      "hit": false,
      "t": 13026.320999999996,
      "d": 394.73699999999917,
      "v": 108
    },
    {
      "midi": 68,
      "hit": false,
      "t": 13026.320999999996,
      "d": 394.73699999999917,
      "v": 108
    },
    {
      "midi": 78,
      "hit": false,
      "t": 13026.321,
      "d": 197.3685000000005,
      "v": 108
    },
    {
      "midi": 80,
      "hit": false,
      "t": 13223.6895,
      "d": 197.3685000000005,
      "v": 108
    },
    {
      "midi": 54,
      "hit": false,
      "t": 13421.057999999995,
      "d": 789.4739999999983,
      "v": 119
    },
    {
      "midi": 81,
      "hit": false,
      "t": 13421.058,
      "d": 394.73699999999917,
      "v": 109
    },
    {
      "midi": 57,
      "hit": false,
      "t": 13815.794999999995,
      "d": 394.73699999999917,
      "v": 110
    },
    {
      "midi": 61,
      "hit": false,
      "t": 13815.794999999995,
      "d": 394.73699999999917,
      "v": 110
    },
    {
      "midi": 66,
      "hit": false,
      "t": 13815.794999999995,
      "d": 394.73699999999917,
      "v": 110
    },
    {
      "midi": 69,
      "hit": false,
      "t": 13815.795,
      "d": 394.73699999999917,
      "v": 110
    },
    {
      "midi": 44,
      "hit": false,
      "t": 14210.531999999994,
      "d": 394.73699999999917,
      "v": 110
    },
    {
      "midi": 68,
      "hit": false,
      "t": 14210.532,
      "d": 1052.6319999999996,
      "v": 110
    },
    {
      "midi": 51,
      "hit": false,
      "t": 14605.268999999993,
      "d": 1184.2109999999975,
      "v": 120
    },
    {
      "midi": 60,
      "hit": false,
      "t": 15000.005999999992,
      "d": 394.73699999999917,
      "v": 110
    },
    {
      "midi": 70,
      "hit": false,
      "t": 15263.163999999999,
      "d": 131.57899999999972,
      "v": 110
    },
    {
      "midi": 56,
      "hit": false,
      "t": 15394.742999999991,
      "d": 789.4739999999983,
      "v": 120
    },
    {
      "midi": 72,
      "hit": false,
      "t": 15526.321999999998,
      "d": 131.57899999999972,
      "v": 110
    },
    {
      "midi": 52,
      "hit": false,
      "t": 15789.47999999999,
      "d": 394.73699999999917,
      "v": 110
    },
    {
      "midi": 61,
      "hit": false,
      "t": 15789.47999999999,
      "d": 394.73699999999917,
      "v": 110
    },
    {
      "midi": 73,
      "hit": false,
      "t": 15789.479999999998,
      "d": 131.57899999999972,
      "v": 110
    },
    {
      "midi": 75,
      "hit": false,
      "t": 16052.637999999997,
      "d": 131.57899999999972,
      "v": 110
    },
    {
      "midi": 55,
      "hit": false,
      "t": 16184.21699999999,
      "d": 394.737000000001,
      "v": 120
    },
    {
      "midi": 76,
      "hit": false,
      "t": 16315.795999999997,
      "d": 131.57899999999972,
      "v": 110
    },
    {
      "midi": 44,
      "hit": false,
      "t": 16578.95399999999,
      "d": 394.737000000001,
      "v": 110
    },
    {
      "midi": 75,
      "hit": false,
      "t": 16578.953999999998,
      "d": 2368.4219999999987,
      "v": 110
    },
    {
      "midi": 51,
      "hit": false,
      "t": 16973.69099999999,
      "d": 394.737000000001,
      "v": 110
    },
    {
      "midi": 60,
      "hit": false,
      "t": 17368.427999999993,
      "d": 394.737000000001,
      "v": 110
    },
    {
      "midi": 56,
      "hit": false,
      "t": 17763.164999999994,
      "d": 394.737000000001,
      "v": 110
    },
    {
      "midi": 68,
      "hit": false,
      "t": 18157.901999999995,
      "d": 394.737000000001,
      "v": 110
    },
    {
      "midi": 75,
      "hit": false,
      "t": 18947.375999999997,
      "d": 263.15799999999945,
      "v": 60
    },
    {
      "midi": 32,
      "hit": false,
      "t": 18947.375999999997,
      "d": 197.3685000000005,
      "v": 70
    },
    {
      "midi": 44,
      "hit": false,
      "t": 18947.375999999997,
      "d": 197.3685000000005,
      "v": 70
    },
    {
      "midi": 75,
      "hit": false,
      "t": 19210.533999999996,
      "d": 263.15799999999945,
      "v": 60
    },
    {
      "midi": 56,
      "hit": false,
      "t": 19342.112999999998,
      "d": 789.474000000002,
      "v": 70
    },
    {
      "midi": 75,
      "hit": false,
      "t": 19473.691999999995,
      "d": 263.15799999999945,
      "v": 60
    },
    {
      "midi": 75,
      "hit": false,
      "t": 19736.849999999995,
      "d": 394.737000000001,
      "v": 60
    },
    {
      "midi": 60,
      "hit": false,
      "t": 19736.85,
      "d": 394.737000000001,
      "v": 60
    },
    {
      "midi": 66,
      "hit": false,
      "t": 19736.85,
      "d": 394.737000000001,
      "v": 60
    },
    {
      "midi": 73,
      "hit": false,
      "t": 20131.586999999996,
      "d": 197.3685000000005,
      "v": 60
    },
    {
      "midi": 56,
      "hit": false,
      "t": 20131.587,
      "d": 789.4739999999983,
      "v": 70
    },
    {
      "midi": 75,
      "hit": false,
      "t": 20328.955499999996,
      "d": 197.3685000000005,
      "v": 60
    },
    {
      "midi": 77,
      "hit": false,
      "t": 20526.323999999997,
      "d": 394.737000000001,
      "v": 60
    },
    {
      "midi": 49,
      "hit": false,
      "t": 20526.324,
      "d": 394.73699999999735,
      "v": 60
    },
    {
      "midi": 59,
      "hit": false,
      "t": 20592.1135,
      "d": 328.9474999999984,
      "v": 60
    },
    {
      "midi": 65,
      "hit": false,
      "t": 20657.903,
      "d": 263.15799999999945,
      "v": 60
    },
    {
      "midi": 75,
      "hit": false,
      "t": 20921.060999999998,
      "d": 197.3685000000005,
      "v": 60
    },
    {
      "midi": 61,
      "hit": false,
      "t": 20921.060999999998,
      "d": 394.737000000001,
      "v": 60
    },
    {
      "midi": 77,
      "hit": false,
      "t": 21118.4295,
      "d": 197.3685000000005,
      "v": 60
    },
    {
      "midi": 78,
      "hit": false,
      "t": 21315.798,
      "d": 394.737000000001,
      "v": 60
    },
    {
      "midi": 66,
      "hit": false,
      "t": 21315.798,
      "d": 394.737000000001,
      "v": 60
    },
    {
      "midi": 54,
      "hit": false,
      "t": 21315.798,
      "d": 789.474000000002,
      "v": 70
    },
    {
      "midi": 57,
      "hit": false,
      "t": 21315.798,
      "d": 789.474000000002,
      "v": 70
    },
    {
      "midi": 77,
      "hit": false,
      "t": 21710.535,
      "d": 197.3685000000005,
      "v": 60
    },
    {
      "midi": 61,
      "hit": false,
      "t": 21710.535,
      "d": 394.737000000001,
      "v": 60
    },
    {
      "midi": 78,
      "hit": false,
      "t": 21907.9035,
      "d": 197.3685000000005,
      "v": 60
    },
    {
      "midi": 80,
      "hit": false,
      "t": 22105.272,
      "d": 394.737000000001,
      "v": 60
    },
    {
      "midi": 68,
      "hit": false,
      "t": 22105.272,
      "d": 394.737000000001,
      "v": 60
    },
    {
      "midi": 53,
      "hit": false,
      "t": 22105.272,
      "d": 789.474000000002,
      "v": 70
    },
    {
      "midi": 59,
      "hit": false,
      "t": 22105.272,
      "d": 789.474000000002,
      "v": 70
    },
    {
      "midi": 78,
      "hit": false,
      "t": 22500.009000000002,
      "d": 197.3685000000005,
      "v": 60
    },
    {
      "midi": 61,
      "hit": false,
      "t": 22500.009000000002,
      "d": 394.737000000001,
      "v": 60
    },
    {
      "midi": 80,
      "hit": false,
      "t": 22697.377500000002,
      "d": 197.3685000000005,
      "v": 60
    },
    {
      "midi": 81,
      "hit": false,
      "t": 22894.746000000003,
      "d": 394.737000000001,
      "v": 60
    },
    {
      "midi": 54,
      "hit": false,
      "t": 22894.746000000003,
      "d": 789.4739999999983,
      "v": 70
    },
    {
      "midi": 57,
      "hit": false,
      "t": 22960.5355,
      "d": 723.6844999999994,
      "v": 70
    },
    {
      "midi": 69,
      "hit": false,
      "t": 23026.325,
      "d": 263.15799999999945,
      "v": 60
    },
    {
      "midi": 61,
      "hit": false,
      "t": 23289.483,
      "d": 394.737000000001,
      "v": 60
    },
    {
      "midi": 80,
      "hit": false,
      "t": 23289.483000000004,
      "d": 197.3685000000005,
      "v": 60
    },
    {
      "midi": 81,
      "hit": false,
      "t": 23486.851500000004,
      "d": 197.3685000000005,
      "v": 60
    },
    {
      "midi": 57,
      "hit": false,
      "t": 23684.22,
      "d": 394.737000000001,
      "v": 50
    },
    {
      "midi": 54,
      "hit": false,
      "t": 23684.22,
      "d": 2368.4220000000023,
      "v": 40
    },
    {
      "midi": 83,
      "hit": false,
      "t": 23684.220000000005,
      "d": 263.15799999999945,
      "v": 40
    },
    {
      "midi": 81,
      "hit": false,
      "t": 23947.378000000004,
      "d": 263.15799999999945,
      "v": 42
    },
    {
      "midi": 61,
      "hit": false,
      "t": 24078.957000000002,
      "d": 394.737000000001,
      "v": 53
    },
    {
      "midi": 78,
      "hit": false,
      "t": 24375.009750000005,
      "d": 52.63160000000062,
      "v": 46
    },
    {
      "midi": 79,
      "hit": false,
      "t": 24421.062400000006,
      "d": 52.63160000000062,
      "v": 46
    },
    {
      "midi": 62,
      "hit": false,
      "t": 24473.694000000003,
      "d": 394.737000000001,
      "v": 57
    },
    {
      "midi": 78,
      "hit": false,
      "t": 24473.694000000007,
      "d": 263.15799999999945,
      "v": 47
    },
    {
      "midi": 76,
      "hit": false,
      "t": 24736.852000000006,
      "d": 263.15799999999945,
      "v": 49
    },
    {
      "midi": 64,
      "hit": false,
      "t": 24868.431000000004,
      "d": 394.737000000001,
      "v": 60
    },
    {
      "midi": 78,
      "hit": false,
      "t": 25164.483750000007,
      "d": 98.68424999999843,
      "v": 53
    },
    {
      "midi": 69,
      "hit": false,
      "t": 25263.168000000005,
      "d": 394.737000000001,
      "v": 54
    },
    {
      "midi": 66,
      "hit": false,
      "t": 25263.168000000005,
      "d": 789.4739999999983,
      "v": 64
    },
    {
      "midi": 74,
      "hit": false,
      "t": 25657.905000000006,
      "d": 394.737000000001,
      "v": 57
    },
    {
      "midi": 64,
      "hit": false,
      "t": 26052.642000000003,
      "d": 263.15799999999945,
      "v": 60
    },
    {
      "midi": 56,
      "hit": false,
      "t": 26052.642000000003,
      "d": 1184.2109999999993,
      "v": 70
    },
    {
      "midi": 73,
      "hit": false,
      "t": 26052.642000000007,
      "d": 263.15799999999945,
      "v": 60
    },
    {
      "midi": 63,
      "hit": false,
      "t": 26315.800000000003,
      "d": 263.15799999999945,
      "v": 60
    },
    {
      "midi": 72,
      "hit": false,
      "t": 26315.800000000007,
      "d": 526.3159999999989,
      "v": 70
    },
    {
      "midi": 68,
      "hit": false,
      "t": 26578.958000000002,
      "d": 263.15799999999945,
      "v": 60
    },
    {
      "midi": 76,
      "hit": false,
      "t": 26578.958000000006,
      "d": 263.15799999999945,
      "v": 60
    },
    {
      "midi": 66,
      "hit": false,
      "t": 26842.116,
      "d": 789.474000000002,
      "v": 60
    },
    {
      "midi": 75,
      "hit": false,
      "t": 26842.116000000005,
      "d": 789.4739999999983,
      "v": 60
    },
    {
      "midi": 56,
      "hit": false,
      "t": 27236.853000000003,
      "d": 394.737000000001,
      "v": 60
    },
    {
      "midi": 73,
      "hit": false,
      "t": 27631.590000000004,
      "d": 394.737000000001,
      "v": 60
    },
    {
      "midi": 61,
      "hit": false,
      "t": 27631.590000000004,
      "d": 394.737000000001,
      "v": 60
    },
    {
      "midi": 64,
      "hit": false,
      "t": 27631.590000000004,
      "d": 394.737000000001,
      "v": 60
    },
    {
      "midi": 61,
      "hit": false,
      "t": 28421.064,
      "d": 98.68424999999843,
      "v": 110
    },
    {
      "midi": 37,
      "hit": false,
      "t": 28421.064000000006,
      "d": 98.68424999999843,
      "v": 110
    },
    {
      "midi": 49,
      "hit": false,
      "t": 28421.064000000006,
      "d": 98.68424999999843,
      "v": 110
    },
    {
      "midi": 52,
      "hit": false,
      "t": 28519.748249999997,
      "d": 690.7897499999999,
      "v": 110
    },
    {
      "midi": 64,
      "hit": false,
      "t": 28519.748249999997,
      "d": 690.7897499999999,
      "v": 110
    },
    {
      "midi": 40,
      "hit": false,
      "t": 28519.748250000004,
      "d": 690.7897499999999,
      "v": 110
    },
    {
      "midi": 59,
      "hit": false,
      "t": 29210.537999999997,
      "d": 98.68424999999843,
      "v": 110
    },
    {
      "midi": 35,
      "hit": false,
      "t": 29210.538000000004,
      "d": 98.68424999999843,
      "v": 110
    },
    {
      "midi": 47,
      "hit": false,
      "t": 29210.538000000004,
      "d": 98.68424999999843,
      "v": 110
    },
    {
      "midi": 52,
      "hit": false,
      "t": 29309.222249999995,
      "d": 690.7897499999999,
      "v": 110
    },
    {
      "midi": 64,
      "hit": false,
      "t": 29309.222249999995,
      "d": 690.7897499999999,
      "v": 110
    },
    {
      "midi": 40,
      "hit": false,
      "t": 29309.222250000003,
      "d": 690.7897499999999,
      "v": 110
    },
    {
      "midi": 57,
      "hit": false,
      "t": 30000.011999999995,
      "d": 98.68424999999843,
      "v": 110
    },
    {
      "midi": 33,
      "hit": false,
      "t": 30000.012000000002,
      "d": 98.68424999999843,
      "v": 110
    },
    {
      "midi": 45,
      "hit": false,
      "t": 30000.012000000002,
      "d": 98.68424999999843,
      "v": 110
    },
    {
      "midi": 52,
      "hit": false,
      "t": 30098.696249999994,
      "d": 690.7897499999999,
      "v": 110
    },
    {
      "midi": 64,
      "hit": false,
      "t": 30098.696249999994,
      "d": 690.7897499999999,
      "v": 110
    },
    {
      "midi": 40,
      "hit": false,
      "t": 30098.69625,
      "d": 690.7897499999999,
      "v": 110
    },
    {
      "midi": 56,
      "hit": false,
      "t": 30789.485999999994,
      "d": 98.68424999999843,
      "v": 110
    },
    {
      "midi": 32,
      "hit": false,
      "t": 30789.486,
      "d": 98.68424999999843,
      "v": 110
    },
    {
      "midi": 44,
      "hit": false,
      "t": 30789.486,
      "d": 98.68424999999843,
      "v": 110
    },
    {
      "midi": 52,
      "hit": false,
      "t": 30888.170249999992,
      "d": 690.7897499999999,
      "v": 110
    },
    {
      "midi": 64,
      "hit": false,
      "t": 30888.170249999992,
      "d": 690.7897499999999,
      "v": 110
    },
    {
      "midi": 40,
      "hit": false,
      "t": 30888.17025,
      "d": 690.7897499999999,
      "v": 110
    },
    {
      "midi": 55,
      "hit": false,
      "t": 31578.959999999992,
      "d": 98.68424999999843,
      "v": 110
    },
    {
      "midi": 31,
      "hit": false,
      "t": 31578.96,
      "d": 98.68424999999843,
      "v": 110
    },
    {
      "midi": 43,
      "hit": false,
      "t": 31578.96,
      "d": 98.68424999999843,
      "v": 110
    },
    {
      "midi": 52,
      "hit": false,
      "t": 31677.64424999999,
      "d": 690.7897499999999,
      "v": 110
    },
    {
      "midi": 64,
      "hit": false,
      "t": 31677.64424999999,
      "d": 690.7897499999999,
      "v": 110
    },
    {
      "midi": 40,
      "hit": false,
      "t": 31677.644249999998,
      "d": 690.7897499999999,
      "v": 110
    },
    {
      "midi": 55,
      "hit": false,
      "t": 33157.907999999996,
      "d": 592.1054999999978,
      "v": 120
    },
    {
      "midi": 57,
      "hit": false,
      "t": 33157.907999999996,
      "d": 592.1054999999978,
      "v": 120
    },
    {
      "midi": 61,
      "hit": false,
      "t": 33157.907999999996,
      "d": 592.1054999999978,
      "v": 120
    },
    {
      "midi": 64,
      "hit": false,
      "t": 33157.907999999996,
      "d": 592.1054999999978,
      "v": 120
    },
    {
      "midi": 67,
      "hit": false,
      "t": 33157.907999999996,
      "d": 592.1054999999978,
      "v": 120
    },
    {
      "midi": 76,
      "hit": false,
      "t": 33157.908,
      "d": 592.1054999999978,
      "v": 120
    },
    {
      "midi": 82,
      "hit": false,
      "t": 33157.908,
      "d": 592.1054999999978,
      "v": 120
    },
    {
      "midi": 85,
      "hit": false,
      "t": 33157.908,
      "d": 592.1054999999978,
      "v": 120
    },
    {
      "midi": 88,
      "hit": false,
      "t": 33157.908,
      "d": 592.1054999999978,
      "v": 120
    },
    {
      "midi": 43,
      "hit": false,
      "t": 33750.013499999994,
      "d": 98.68424999999843,
      "v": 120
    },
    {
      "midi": 55,
      "hit": false,
      "t": 33750.013499999994,
      "d": 98.68424999999843,
      "v": 120
    },
    {
      "midi": 64,
      "hit": false,
      "t": 33750.0135,
      "d": 98.68424999999843,
      "v": 120
    },
    {
      "midi": 70,
      "hit": false,
      "t": 33750.0135,
      "d": 98.68424999999843,
      "v": 120
    },
    {
      "midi": 73,
      "hit": false,
      "t": 33750.0135,
      "d": 98.68424999999843,
      "v": 120
    },
    {
      "midi": 76,
      "hit": false,
      "t": 33750.0135,
      "d": 98.68424999999843,
      "v": 120
    },
    {
      "midi": 44,
      "hit": false,
      "t": 33947.38199999999,
      "d": 98.68424999999843,
      "v": 120
    },
    {
      "midi": 56,
      "hit": false,
      "t": 33947.38199999999,
      "d": 98.68424999999843,
      "v": 120
    },
    {
      "midi": 64,
      "hit": false,
      "t": 33947.382,
      "d": 98.68424999999843,
      "v": 120
    },
    {
      "midi": 68,
      "hit": false,
      "t": 33947.382,
      "d": 98.68424999999843,
      "v": 120
    },
    {
      "midi": 73,
      "hit": false,
      "t": 33947.382,
      "d": 98.68424999999843,
      "v": 120
    },
    {
      "midi": 76,
      "hit": false,
      "t": 33947.382,
      "d": 98.68424999999843,
      "v": 120
    },
    {
      "midi": 32,
      "hit": false,
      "t": 34736.85599999999,
      "d": 98.68424999999843,
      "v": 120
    },
    {
      "midi": 44,
      "hit": false,
      "t": 34736.85599999999,
      "d": 98.68424999999843,
      "v": 120
    },
    {
      "midi": 66,
      "hit": false,
      "t": 34736.856,
      "d": 98.68424999999843,
      "v": 120
    },
    {
      "midi": 68,
      "hit": false,
      "t": 34736.856,
      "d": 98.68424999999843,
      "v": 120
    },
    {
      "midi": 72,
      "hit": false,
      "t": 34736.856,
      "d": 98.68424999999843,
      "v": 120
    },
    {
      "midi": 75,
      "hit": false,
      "t": 34736.856,
      "d": 98.68424999999843,
      "v": 120
    },
    {
      "midi": 37,
      "hit": false,
      "t": 35526.329999999994,
      "d": 98.68424999999843,
      "v": 120
    },
    {
      "midi": 49,
      "hit": false,
      "t": 35526.329999999994,
      "d": 98.68424999999843,
      "v": 120
    },
    {
      "midi": 64,
      "hit": false,
      "t": 35526.33,
      "d": 98.68424999999843,
      "v": 120
    },
    {
      "midi": 68,
      "hit": false,
      "t": 35526.33,
      "d": 98.68424999999843,
      "v": 120
    },
    {
      "midi": 73,
      "hit": false,
      "t": 35526.33,
      "d": 98.68424999999843,
      "v": 120
    },
    {
      "midi": 49,
      "hit": false,
      "t": 36118.43549999999,
      "d": 98.68424999999843,
      "v": 120
    },
    {
      "midi": 56,
      "hit": false,
      "t": 36217.11974999999,
      "d": 98.68424999999843,
      "v": 120
    },
    {
      "midi": 64,
      "hit": false,
      "t": 36315.80399999999,
      "d": 98.68424999999843,
      "v": 120
    },
    {
      "midi": 73,
      "hit": false,
      "t": 36315.804000000004,
      "d": 98.68424999999843,
      "v": 120
    },
    {
      "midi": 76,
      "hit": false,
      "t": 36315.804000000004,
      "d": 98.68424999999843,
      "v": 120
    },
    {
      "midi": 80,
      "hit": false,
      "t": 36315.804000000004,
      "d": 98.68424999999843,
      "v": 120
    },
    {
      "midi": 85,
      "hit": false,
      "t": 36315.804000000004,
      "d": 98.68424999999843,
      "v": 120
    },
    {
      "midi": 68,
      "hit": false,
      "t": 37500.015,
      "d": 394.737000000001,
      "v": 100
    },
    {
      "midi": 25,
      "hit": false,
      "t": 37894.751999999986,
      "d": 394.737000000001,
      "v": 110
    },
    {
      "midi": 37,
      "hit": false,
      "t": 37894.751999999986,
      "d": 394.737000000001,
      "v": 110
    },
    {
      "midi": 75,
      "hit": false,
      "t": 37894.752,
      "d": 1184.211000000003,
      "v": 100
    },
    {
      "midi": 56,
      "hit": false,
      "t": 38289.48899999999,
      "d": 197.36849999999686,
      "v": 100
    },
    {
      "midi": 60,
      "hit": false,
      "t": 38289.48899999999,
      "d": 197.36849999999686,
      "v": 100
    },
    {
      "midi": 66,
      "hit": false,
      "t": 38289.48899999999,
      "d": 197.36849999999686,
      "v": 100
    },
    {
      "midi": 56,
      "hit": false,
      "t": 38486.857499999984,
      "d": 197.36849999999686,
      "v": 101
    },
    {
      "midi": 60,
      "hit": false,
      "t": 38486.857499999984,
      "d": 197.36849999999686,
      "v": 101
    },
    {
      "midi": 66,
      "hit": false,
      "t": 38486.857499999984,
      "d": 197.36849999999686,
      "v": 101
    },
    {
      "midi": 56,
      "hit": false,
      "t": 38684.22599999998,
      "d": 394.737000000001,
      "v": 101
    },
    {
      "midi": 60,
      "hit": false,
      "t": 38684.22599999998,
      "d": 394.737000000001,
      "v": 101
    },
    {
      "midi": 66,
      "hit": false,
      "t": 38684.22599999998,
      "d": 394.737000000001,
      "v": 101
    },
    {
      "midi": 56,
      "hit": false,
      "t": 39078.96299999998,
      "d": 394.737000000001,
      "v": 102
    },
    {
      "midi": 60,
      "hit": false,
      "t": 39078.96299999998,
      "d": 394.737000000001,
      "v": 102
    },
    {
      "midi": 66,
      "hit": false,
      "t": 39078.96299999998,
      "d": 394.737000000001,
      "v": 102
    },
    {
      "midi": 73,
      "hit": false,
      "t": 39078.963,
      "d": 197.36849999999686,
      "v": 102
    },
    {
      "midi": 75,
      "hit": false,
      "t": 39276.3315,
      "d": 197.36849999999686,
      "v": 103
    },
    {
      "midi": 49,
      "hit": false,
      "t": 39473.69999999998,
      "d": 394.737000000001,
      "v": 113
    },
    {
      "midi": 77,
      "hit": false,
      "t": 39473.7,
      "d": 394.737000000001,
      "v": 103
    },
    {
      "midi": 56,
      "hit": false,
      "t": 39868.43699999998,
      "d": 394.737000000001,
      "v": 104
    },
    {
      "midi": 59,
      "hit": false,
      "t": 39868.43699999998,
      "d": 394.737000000001,
      "v": 104
    },
    {
      "midi": 61,
      "hit": false,
      "t": 39868.43699999998,
      "d": 394.737000000001,
      "v": 104
    },
    {
      "midi": 65,
      "hit": false,
      "t": 39868.43699999998,
      "d": 394.737000000001,
      "v": 104
    },
    {
      "midi": 75,
      "hit": false,
      "t": 39868.437,
      "d": 197.36849999999686,
      "v": 104
    },
    {
      "midi": 77,
      "hit": false,
      "t": 40065.805499999995,
      "d": 197.36849999999686,
      "v": 105
    },
    {
      "midi": 54,
      "hit": false,
      "t": 40263.173999999985,
      "d": 789.474000000002,
      "v": 115
    },
    {
      "midi": 78,
      "hit": false,
      "t": 40263.17399999999,
      "d": 394.737000000001,
      "v": 105
    },
    {
      "midi": 57,
      "hit": false,
      "t": 40657.910999999986,
      "d": 394.737000000001,
      "v": 106
    },
    {
      "midi": 61,
      "hit": false,
      "t": 40657.910999999986,
      "d": 394.737000000001,
      "v": 106
    },
    {
      "midi": 66,
      "hit": false,
      "t": 40657.910999999986,
      "d": 394.737000000001,
      "v": 106
    },
    {
      "midi": 77,
      "hit": false,
      "t": 40657.91099999999,
      "d": 197.36849999999686,
      "v": 106
    },
    {
      "midi": 78,
      "hit": false,
      "t": 40855.27949999999,
      "d": 197.36849999999686,
      "v": 106
    },
    {
      "midi": 80,
      "hit": false,
      "t": 41052.64799999999,
      "d": 394.737000000001,
      "v": 107
    },
    {
      "midi": 53,
      "hit": false,
      "t": 41052.64799999999,
      "d": 789.474000000002,
      "v": 117
    },
    {
      "midi": 78,
      "hit": false,
      "t": 41447.38499999999,
      "d": 197.36849999999686,
      "v": 108
    },
    {
      "midi": 59,
      "hit": false,
      "t": 41447.38499999999,
      "d": 394.737000000001,
      "v": 108
    },
    {
      "midi": 61,
      "hit": false,
      "t": 41447.38499999999,
      "d": 394.737000000001,
      "v": 108
    },
    {
      "midi": 68,
      "hit": false,
      "t": 41447.38499999999,
      "d": 394.737000000001,
      "v": 108
    },
    {
      "midi": 80,
      "hit": false,
      "t": 41644.753499999984,
      "d": 197.36849999999686,
      "v": 108
    },
    {
      "midi": 81,
      "hit": false,
      "t": 41842.12199999998,
      "d": 394.737000000001,
      "v": 109
    },
    {
      "midi": 54,
      "hit": false,
      "t": 41842.12199999999,
      "d": 789.474000000002,
      "v": 119
    },
    {
      "midi": 69,
      "hit": false,
      "t": 42236.85899999998,
      "d": 394.737000000001,
      "v": 110
    },
    {
      "midi": 57,
      "hit": false,
      "t": 42236.85899999999,
      "d": 394.737000000001,
      "v": 110
    },
    {
      "midi": 61,
      "hit": false,
      "t": 42236.85899999999,
      "d": 394.737000000001,
      "v": 110
    },
    {
      "midi": 66,
      "hit": false,
      "t": 42236.85899999999,
      "d": 394.737000000001,
      "v": 110
    },
    {
      "midi": 68,
      "hit": false,
      "t": 42631.59599999998,
      "d": 1052.6319999999978,
      "v": 110
    },
    {
      "midi": 44,
      "hit": false,
      "t": 42631.59599999999,
      "d": 394.737000000001,
      "v": 110
    },
    {
      "midi": 51,
      "hit": false,
      "t": 43026.33299999999,
      "d": 1184.211000000003,
      "v": 120
    },
    {
      "midi": 60,
      "hit": false,
      "t": 43421.06999999999,
      "d": 394.737000000001,
      "v": 110
    },
    {
      "midi": 70,
      "hit": false,
      "t": 43684.22799999998,
      "d": 131.5789999999979,
      "v": 110
    },
    {
      "midi": 56,
      "hit": false,
      "t": 43815.80699999999,
      "d": 789.474000000002,
      "v": 120
    },
    {
      "midi": 72,
      "hit": false,
      "t": 43947.38599999998,
      "d": 131.5789999999979,
      "v": 110
    },
    {
      "midi": 73,
      "hit": false,
      "t": 44210.54399999997,
      "d": 131.5789999999979,
      "v": 110
    },
    {
      "midi": 52,
      "hit": false,
      "t": 44210.543999999994,
      "d": 394.737000000001,
      "v": 110
    },
    {
      "midi": 61,
      "hit": false,
      "t": 44210.543999999994,
      "d": 394.737000000001,
      "v": 110
    },
    {
      "midi": 75,
      "hit": false,
      "t": 44473.70199999997,
      "d": 131.5789999999979,
      "v": 110
    },
    {
      "midi": 55,
      "hit": false,
      "t": 44605.280999999995,
      "d": 394.737000000001,
      "v": 120
    },
    {
      "midi": 76,
      "hit": false,
      "t": 44736.859999999964,
      "d": 131.5789999999979,
      "v": 110
    },
    {
      "midi": 75,
      "hit": false,
      "t": 45000.01799999996,
      "d": 2368.4219999999987,
      "v": 110
    },
    {
      "midi": 44,
      "hit": false,
      "t": 45000.018,
      "d": 394.737000000001,
      "v": 110
    },
    {
      "midi": 51,
      "hit": false,
      "t": 45394.755,
      "d": 394.737000000001,
      "v": 110
    },
    {
      "midi": 60,
      "hit": false,
      "t": 45789.492,
      "d": 394.737000000001,
      "v": 110
    },
    {
      "midi": 56,
      "hit": false,
      "t": 46184.229,
      "d": 394.737000000001,
      "v": 110
    },
    {
      "midi": 68,
      "hit": false,
      "t": 46578.966,
      "d": 394.737000000001,
      "v": 110
    },
    {
      "midi": 75,
      "hit": false,
      "t": 47368.43999999996,
      "d": 263.1580000000031,
      "v": 60
    },
    {
      "midi": 32,
      "hit": false,
      "t": 47368.44,
      "d": 197.36849999999686,
      "v": 60
    },
    {
      "midi": 44,
      "hit": false,
      "t": 47368.44,
      "d": 197.36849999999686,
      "v": 60
    },
    {
      "midi": 75,
      "hit": false,
      "t": 47631.59799999996,
      "d": 263.1580000000031,
      "v": 60
    },
    {
      "midi": 56,
      "hit": false,
      "t": 47763.176999999996,
      "d": 789.474000000002,
      "v": 70
    },
    {
      "midi": 75,
      "hit": false,
      "t": 47894.755999999965,
      "d": 263.1580000000031,
      "v": 60
    },
    {
      "midi": 75,
      "hit": false,
      "t": 48157.91399999997,
      "d": 394.737000000001,
      "v": 60
    },
    {
      "midi": 60,
      "hit": false,
      "t": 48157.914,
      "d": 394.737000000001,
      "v": 60
    },
    {
      "midi": 66,
      "hit": false,
      "t": 48157.914,
      "d": 394.737000000001,
      "v": 60
    },
    {
      "midi": 73,
      "hit": false,
      "t": 48552.65099999997,
      "d": 197.36849999999686,
      "v": 60
    },
    {
      "midi": 56,
      "hit": false,
      "t": 48552.651,
      "d": 789.474000000002,
      "v": 70
    },
    {
      "midi": 75,
      "hit": false,
      "t": 48750.019499999966,
      "d": 197.36849999999686,
      "v": 60
    },
    {
      "midi": 77,
      "hit": false,
      "t": 48947.38799999996,
      "d": 394.737000000001,
      "v": 60
    },
    {
      "midi": 49,
      "hit": false,
      "t": 48947.388,
      "d": 394.737000000001,
      "v": 60
    },
    {
      "midi": 59,
      "hit": false,
      "t": 49013.1775,
      "d": 328.94750000000204,
      "v": 60
    },
    {
      "midi": 65,
      "hit": false,
      "t": 49078.967,
      "d": 263.1580000000031,
      "v": 60
    },
    {
      "midi": 75,
      "hit": false,
      "t": 49342.12499999996,
      "d": 197.36849999999686,
      "v": 60
    },
    {
      "midi": 61,
      "hit": false,
      "t": 49342.125,
      "d": 394.737000000001,
      "v": 60
    },
    {
      "midi": 77,
      "hit": false,
      "t": 49539.49349999996,
      "d": 197.36849999999686,
      "v": 60
    },
    {
      "midi": 78,
      "hit": false,
      "t": 49736.86199999996,
      "d": 394.737000000001,
      "v": 60
    },
    {
      "midi": 66,
      "hit": false,
      "t": 49736.862,
      "d": 394.737000000001,
      "v": 60
    },
    {
      "midi": 54,
      "hit": false,
      "t": 49736.862,
      "d": 789.474000000002,
      "v": 70
    },
    {
      "midi": 57,
      "hit": false,
      "t": 49736.862,
      "d": 789.474000000002,
      "v": 70
    },
    {
      "midi": 77,
      "hit": false,
      "t": 50131.59899999996,
      "d": 197.36849999999686,
      "v": 60
    },
    {
      "midi": 61,
      "hit": false,
      "t": 50131.599,
      "d": 394.737000000001,
      "v": 60
    },
    {
      "midi": 78,
      "hit": false,
      "t": 50328.967499999955,
      "d": 197.36849999999686,
      "v": 60
    },
    {
      "midi": 80,
      "hit": false,
      "t": 50526.33599999995,
      "d": 394.737000000001,
      "v": 60
    },
    {
      "midi": 68,
      "hit": false,
      "t": 50526.336,
      "d": 394.737000000001,
      "v": 60
    },
    {
      "midi": 53,
      "hit": false,
      "t": 50526.336,
      "d": 789.474000000002,
      "v": 70
    },
    {
      "midi": 59,
      "hit": false,
      "t": 50526.336,
      "d": 789.474000000002,
      "v": 70
    },
    {
      "midi": 78,
      "hit": false,
      "t": 50921.07299999995,
      "d": 197.36849999999686,
      "v": 60
    },
    {
      "midi": 61,
      "hit": false,
      "t": 50921.073000000004,
      "d": 394.737000000001,
      "v": 60
    },
    {
      "midi": 80,
      "hit": false,
      "t": 51118.44149999995,
      "d": 197.36849999999686,
      "v": 60
    },
    {
      "midi": 81,
      "hit": false,
      "t": 51315.80999999995,
      "d": 394.737000000001,
      "v": 60
    },
    {
      "midi": 54,
      "hit": false,
      "t": 51315.810000000005,
      "d": 789.474000000002,
      "v": 70
    },
    {
      "midi": 57,
      "hit": false,
      "t": 51381.599500000004,
      "d": 723.684500000003,
      "v": 70
    },
    {
      "midi": 69,
      "hit": false,
      "t": 51447.389,
      "d": 263.1580000000031,
      "v": 60
    },
    {
      "midi": 80,
      "hit": false,
      "t": 51710.54699999995,
      "d": 197.36849999999686,
      "v": 60
    },
    {
      "midi": 61,
      "hit": false,
      "t": 51710.547000000006,
      "d": 394.737000000001,
      "v": 60
    },
    {
      "midi": 81,
      "hit": false,
      "t": 51907.915499999945,
      "d": 197.36849999999686,
      "v": 60
    },
    {
      "midi": 83,
      "hit": false,
      "t": 52105.28399999994,
      "d": 263.1580000000031,
      "v": 40
    },
    {
      "midi": 57,
      "hit": false,
      "t": 52105.28400000001,
      "d": 394.737000000001,
      "v": 50
    },
    {
      "midi": 54,
      "hit": false,
      "t": 52105.28400000001,
      "d": 2368.422000000006,
      "v": 40
    },
    {
      "midi": 81,
      "hit": false,
      "t": 52368.441999999945,
      "d": 263.1580000000031,
      "v": 42
    },
    {
      "midi": 61,
      "hit": false,
      "t": 52500.02100000001,
      "d": 394.737000000001,
      "v": 53
    },
    {
      "midi": 78,
      "hit": false,
      "t": 52796.073749999945,
      "d": 52.63160000000062,
      "v": 46
    },
    {
      "midi": 79,
      "hit": false,
      "t": 52842.12639999994,
      "d": 52.63160000000062,
      "v": 46
    },
    {
      "midi": 78,
      "hit": false,
      "t": 52894.75799999994,
      "d": 263.1580000000031,
      "v": 47
    },
    {
      "midi": 62,
      "hit": false,
      "t": 52894.75800000001,
      "d": 394.737000000001,
      "v": 57
    },
    {
      "midi": 76,
      "hit": false,
      "t": 53157.91599999995,
      "d": 263.1580000000031,
      "v": 49
    },
    {
      "midi": 64,
      "hit": false,
      "t": 53289.49500000001,
      "d": 394.737000000001,
      "v": 60
    },
    {
      "midi": 78,
      "hit": false,
      "t": 53585.54774999995,
      "d": 98.68424999999843,
      "v": 53
    },
    {
      "midi": 69,
      "hit": false,
      "t": 53684.231999999945,
      "d": 394.737000000001,
      "v": 54
    },
    {
      "midi": 66,
      "hit": false,
      "t": 53684.23200000001,
      "d": 789.474000000002,
      "v": 64
    },
    {
      "midi": 74,
      "hit": false,
      "t": 54078.96899999995,
      "d": 394.737000000001,
      "v": 57
    },
    {
      "midi": 73,
      "hit": false,
      "t": 54473.70599999995,
      "d": 263.1580000000031,
      "v": 60
    },
    {
      "midi": 64,
      "hit": false,
      "t": 54473.70600000001,
      "d": 263.1580000000031,
      "v": 60
    },
    {
      "midi": 56,
      "hit": false,
      "t": 54473.70600000001,
      "d": 1184.2110000000102,
      "v": 70
    },
    {
      "midi": 72,
      "hit": false,
      "t": 54736.86399999995,
      "d": 526.3160000000062,
      "v": 70
    },
    {
      "midi": 63,
      "hit": false,
      "t": 54736.864000000016,
      "d": 263.1580000000031,
      "v": 60
    },
    {
      "midi": 76,
      "hit": false,
      "t": 55000.02199999995,
      "d": 263.1580000000031,
      "v": 60
    },
    {
      "midi": 68,
      "hit": false,
      "t": 55000.02200000002,
      "d": 263.1580000000031,
      "v": 60
    },
    {
      "midi": 75,
      "hit": false,
      "t": 55263.17999999996,
      "d": 789.474000000002,
      "v": 60
    },
    {
      "midi": 66,
      "hit": false,
      "t": 55263.18000000002,
      "d": 789.474000000002,
      "v": 60
    },
    {
      "midi": 56,
      "hit": false,
      "t": 55657.91700000002,
      "d": 394.737000000001,
      "v": 60
    },
    {
      "midi": 73,
      "hit": false,
      "t": 56052.65399999996,
      "d": 394.737000000001,
      "v": 60
    },
    {
      "midi": 61,
      "hit": false,
      "t": 56052.654000000024,
      "d": 394.737000000001,
      "v": 60
    },
    {
      "midi": 64,
      "hit": false,
      "t": 56052.654000000024,
      "d": 394.737000000001,
      "v": 60
    },
    {
      "midi": 32,
      "hit": false,
      "t": 56842.128000000026,
      "d": 197.36849999999686,
      "v": 50
    },
    {
      "midi": 56,
      "hit": false,
      "t": 57236.86499999996,
      "d": 789.474000000002,
      "v": 60
    },
    {
      "midi": 60,
      "hit": false,
      "t": 57236.86499999996,
      "d": 789.474000000002,
      "v": 60
    },
    {
      "midi": 44,
      "hit": false,
      "t": 57236.86500000002,
      "d": 789.474000000002,
      "v": 40
    },
    {
      "midi": 51,
      "hit": false,
      "t": 57236.86500000002,
      "d": 789.474000000002,
      "v": 40
    },
    {
      "midi": 56,
      "hit": false,
      "t": 58026.33899999996,
      "d": 394.737000000001,
      "v": 40
    },
    {
      "midi": 60,
      "hit": false,
      "t": 58026.33899999996,
      "d": 394.737000000001,
      "v": 40
    },
    {
      "midi": 44,
      "hit": false,
      "t": 58026.33900000002,
      "d": 394.737000000001,
      "v": 40
    },
    {
      "midi": 51,
      "hit": false,
      "t": 58026.33900000002,
      "d": 394.737000000001,
      "v": 40
    },
    {
      "midi": 56,
      "hit": false,
      "t": 58421.075999999965,
      "d": 394.737000000001,
      "v": 40
    },
    {
      "midi": 60,
      "hit": false,
      "t": 58421.075999999965,
      "d": 394.737000000001,
      "v": 40
    },
    {
      "midi": 44,
      "hit": false,
      "t": 58421.07600000002,
      "d": 394.737000000001,
      "v": 40
    },
    {
      "midi": 51,
      "hit": false,
      "t": 58421.07600000002,
      "d": 394.737000000001,
      "v": 40
    },
    {
      "midi": 56,
      "hit": false,
      "t": 58815.812999999966,
      "d": 394.737000000001,
      "v": 40
    },
    {
      "midi": 60,
      "hit": false,
      "t": 58815.812999999966,
      "d": 394.737000000001,
      "v": 40
    },
    {
      "midi": 44,
      "hit": false,
      "t": 58815.813000000024,
      "d": 394.737000000001,
      "v": 40
    },
    {
      "midi": 51,
      "hit": false,
      "t": 58815.813000000024,
      "d": 394.737000000001,
      "v": 40
    },
    {
      "midi": 55,
      "hit": false,
      "t": 59210.54999999997,
      "d": 789.4739999999874,
      "v": 40
    },
    {
      "midi": 44,
      "hit": false,
      "t": 59210.550000000025,
      "d": 394.737000000001,
      "v": 40
    },
    {
      "midi": 52,
      "hit": false,
      "t": 59210.550000000025,
      "d": 394.737000000001,
      "v": 40
    },
    {
      "midi": 58,
      "hit": false,
      "t": 59407.91849999996,
      "d": 98.68424999999843,
      "v": 54
    },
    {
      "midi": 61,
      "hit": false,
      "t": 59506.60274999996,
      "d": 98.68424999999843,
      "v": 62
    },
    {
      "midi": 64,
      "hit": false,
      "t": 59605.28699999996,
      "d": 98.68424999999843,
      "v": 69
    },
    {
      "midi": 32,
      "hit": false,
      "t": 59605.287000000026,
      "d": 197.36849999999686,
      "v": 79
    },
    {
      "midi": 67,
      "hit": false,
      "t": 59703.97124999996,
      "d": 98.68424999999843,
      "v": 77
    },
    {
      "midi": 70,
      "hit": false,
      "t": 59802.65549999996,
      "d": 98.68424999999843,
      "v": 80
    },
    {
      "midi": 73,
      "hit": false,
      "t": 59901.339749999956,
      "d": 98.68424999999843,
      "v": 80
    },
    {
      "midi": 76,
      "hit": false,
      "t": 60000.023999999954,
      "d": 394.737000000001,
      "v": 80
    },
    {
      "midi": 61,
      "hit": false,
      "t": 60394.760999999955,
      "d": 789.474000000002,
      "v": 80
    },
    {
      "midi": 67,
      "hit": false,
      "t": 60394.760999999955,
      "d": 789.474000000002,
      "v": 80
    },
    {
      "midi": 44,
      "hit": false,
      "t": 60394.76100000002,
      "d": 789.474000000002,
      "v": 80
    },
    {
      "midi": 52,
      "hit": false,
      "t": 60394.76100000002,
      "d": 789.474000000002,
      "v": 80
    },
    {
      "midi": 60,
      "hit": false,
      "t": 61184.23499999996,
      "d": 394.737000000001,
      "v": 66
    },
    {
      "midi": 68,
      "hit": false,
      "t": 61184.23499999996,
      "d": 394.737000000001,
      "v": 66
    },
    {
      "midi": 44,
      "hit": false,
      "t": 61184.23500000002,
      "d": 394.737000000001,
      "v": 66
    },
    {
      "midi": 51,
      "hit": false,
      "t": 61184.23500000002,
      "d": 394.737000000001,
      "v": 66
    },
    {
      "midi": 32,
      "hit": false,
      "t": 61578.97200000002,
      "d": 197.36849999999686,
      "v": 70
    },
    {
      "midi": 56,
      "hit": false,
      "t": 61973.70899999996,
      "d": 789.474000000002,
      "v": 80
    },
    {
      "midi": 60,
      "hit": false,
      "t": 61973.70899999996,
      "d": 789.474000000002,
      "v": 80
    },
    {
      "midi": 44,
      "hit": false,
      "t": 61973.70900000002,
      "d": 789.474000000002,
      "v": 60
    },
    {
      "midi": 51,
      "hit": false,
      "t": 61973.70900000002,
      "d": 789.474000000002,
      "v": 60
    },
    {
      "midi": 56,
      "hit": false,
      "t": 62763.18299999996,
      "d": 394.737000000001,
      "v": 60
    },
    {
      "midi": 60,
      "hit": false,
      "t": 62763.18299999996,
      "d": 394.737000000001,
      "v": 60
    },
    {
      "midi": 44,
      "hit": false,
      "t": 62763.18300000002,
      "d": 394.737000000001,
      "v": 60
    },
    {
      "midi": 51,
      "hit": false,
      "t": 62763.18300000002,
      "d": 394.737000000001,
      "v": 60
    },
    {
      "midi": 56,
      "hit": false,
      "t": 63157.91999999996,
      "d": 394.737000000001,
      "v": 60
    },
    {
      "midi": 60,
      "hit": false,
      "t": 63157.91999999996,
      "d": 394.737000000001,
      "v": 60
    },
    {
      "midi": 44,
      "hit": false,
      "t": 63157.92000000002,
      "d": 394.737000000001,
      "v": 60
    },
    {
      "midi": 51,
      "hit": false,
      "t": 63157.92000000002,
      "d": 394.737000000001,
      "v": 60
    },
    {
      "midi": 56,
      "hit": false,
      "t": 63552.65699999996,
      "d": 394.737000000001,
      "v": 60
    },
    {
      "midi": 60,
      "hit": false,
      "t": 63552.65699999996,
      "d": 394.737000000001,
      "v": 60
    },
    {
      "midi": 44,
      "hit": false,
      "t": 63552.65700000002,
      "d": 394.737000000001,
      "v": 60
    },
    {
      "midi": 51,
      "hit": false,
      "t": 63552.65700000002,
      "d": 394.737000000001,
      "v": 60
    },
    {
      "midi": 57,
      "hit": false,
      "t": 63947.393999999964,
      "d": 789.4739999999874,
      "v": 60
    },
    {
      "midi": 44,
      "hit": false,
      "t": 63947.39400000002,
      "d": 394.737000000001,
      "v": 60
    },
    {
      "midi": 54,
      "hit": false,
      "t": 63947.39400000002,
      "d": 394.737000000001,
      "v": 60
    },
    {
      "midi": 60,
      "hit": false,
      "t": 64046.07824999996,
      "d": 98.68424999999843,
      "v": 67
    },
    {
      "midi": 63,
      "hit": false,
      "t": 64144.76249999996,
      "d": 98.68424999999843,
      "v": 74
    },
    {
      "midi": 66,
      "hit": false,
      "t": 64243.44674999996,
      "d": 98.68424999999843,
      "v": 82
    },
    {
      "midi": 69,
      "hit": false,
      "t": 64342.13099999996,
      "d": 98.68424999999843,
      "v": 89
    },
    {
      "midi": 32,
      "hit": false,
      "t": 64342.13100000002,
      "d": 197.36849999999686,
      "v": 99
    },
    {
      "midi": 72,
      "hit": false,
      "t": 64440.815249999956,
      "d": 98.68424999999843,
      "v": 97
    },
    {
      "midi": 75,
      "hit": false,
      "t": 64539.499499999954,
      "d": 98.68424999999843,
      "v": 100
    },
    {
      "midi": 78,
      "hit": false,
      "t": 64638.18374999995,
      "d": 98.68424999999843,
      "v": 100
    },
    {
      "midi": 81,
      "hit": false,
      "t": 64736.86799999995,
      "d": 197.36849999999686,
      "v": 100
    },
    {
      "midi": 60,
      "hit": false,
      "t": 65131.604999999945,
      "d": 789.4739999999947,
      "v": 100
    },
    {
      "midi": 69,
      "hit": false,
      "t": 65131.604999999945,
      "d": 789.4739999999947,
      "v": 100
    },
    {
      "midi": 44,
      "hit": false,
      "t": 65131.60500000002,
      "d": 789.4739999999947,
      "v": 100
    },
    {
      "midi": 54,
      "hit": false,
      "t": 65131.60500000002,
      "d": 789.4739999999947,
      "v": 100
    },
    {
      "midi": 61,
      "hit": false,
      "t": 65921.07899999994,
      "d": 394.7369999999937,
      "v": 86
    },
    {
      "midi": 68,
      "hit": false,
      "t": 65921.07899999994,
      "d": 394.7369999999937,
      "v": 86
    },
    {
      "midi": 44,
      "hit": false,
      "t": 65921.07900000001,
      "d": 394.7369999999937,
      "v": 86
    },
    {
      "midi": 52,
      "hit": false,
      "t": 65921.07900000001,
      "d": 394.7369999999937,
      "v": 86
    },
    {
      "midi": 32,
      "hit": false,
      "t": 66315.816,
      "d": 197.36849999999686,
      "v": 90
    },
    {
      "midi": 56,
      "hit": false,
      "t": 66710.55299999993,
      "d": 789.474000000002,
      "v": 100
    },
    {
      "midi": 61,
      "hit": false,
      "t": 66710.55299999993,
      "d": 789.474000000002,
      "v": 100
    },
    {
      "midi": 44,
      "hit": false,
      "t": 66710.553,
      "d": 789.474000000002,
      "v": 80
    },
    {
      "midi": 52,
      "hit": false,
      "t": 66710.553,
      "d": 789.474000000002,
      "v": 80
    },
    {
      "midi": 56,
      "hit": false,
      "t": 67500.02699999993,
      "d": 394.7369999999937,
      "v": 80
    },
    {
      "midi": 61,
      "hit": false,
      "t": 67500.02699999993,
      "d": 394.7369999999937,
      "v": 80
    },
    {
      "midi": 44,
      "hit": false,
      "t": 67500.027,
      "d": 394.7369999999937,
      "v": 80
    },
    {
      "midi": 52,
      "hit": false,
      "t": 67500.027,
      "d": 394.7369999999937,
      "v": 80
    },
    {
      "midi": 56,
      "hit": false,
      "t": 67894.76399999992,
      "d": 394.7369999999937,
      "v": 80
    },
    {
      "midi": 61,
      "hit": false,
      "t": 67894.76399999992,
      "d": 394.7369999999937,
      "v": 80
    },
    {
      "midi": 44,
      "hit": false,
      "t": 67894.764,
      "d": 394.7369999999937,
      "v": 80
    },
    {
      "midi": 52,
      "hit": false,
      "t": 67894.764,
      "d": 394.7369999999937,
      "v": 80
    },
    {
      "midi": 56,
      "hit": false,
      "t": 68289.50099999992,
      "d": 394.7369999999937,
      "v": 80
    },
    {
      "midi": 61,
      "hit": false,
      "t": 68289.50099999992,
      "d": 394.7369999999937,
      "v": 80
    },
    {
      "midi": 44,
      "hit": false,
      "t": 68289.50099999999,
      "d": 394.7369999999937,
      "v": 80
    },
    {
      "midi": 52,
      "hit": false,
      "t": 68289.50099999999,
      "d": 394.7369999999937,
      "v": 80
    },
    {
      "midi": 58,
      "hit": false,
      "t": 68684.23799999991,
      "d": 789.4739999999874,
      "v": 80
    },
    {
      "midi": 44,
      "hit": false,
      "t": 68684.23799999998,
      "d": 394.7369999999937,
      "v": 80
    },
    {
      "midi": 52,
      "hit": false,
      "t": 68684.23799999998,
      "d": 394.7369999999937,
      "v": 80
    },
    {
      "midi": 61,
      "hit": false,
      "t": 68881.6064999999,
      "d": 65.78949999999895,
      "v": 94
    },
    {
      "midi": 64,
      "hit": false,
      "t": 68947.3959999999,
      "d": 65.78949999999895,
      "v": 99
    },
    {
      "midi": 67,
      "hit": false,
      "t": 69013.1854999999,
      "d": 65.78949999999895,
      "v": 104
    },
    {
      "midi": 70,
      "hit": false,
      "t": 69078.9749999999,
      "d": 65.78949999999895,
      "v": 109
    },
    {
      "midi": 32,
      "hit": false,
      "t": 69078.97499999998,
      "d": 197.36849999999686,
      "v": 119
    },
    {
      "midi": 73,
      "hit": false,
      "t": 69144.7644999999,
      "d": 65.78949999999895,
      "v": 114
    },
    {
      "midi": 76,
      "hit": false,
      "t": 69210.5539999999,
      "d": 65.78949999999895,
      "v": 119
    },
    {
      "midi": 79,
      "hit": false,
      "t": 69276.3434999999,
      "d": 65.78949999999895,
      "v": 120
    },
    {
      "midi": 82,
      "hit": false,
      "t": 69342.1329999999,
      "d": 65.78949999999895,
      "v": 120
    },
    {
      "midi": 85,
      "hit": false,
      "t": 69407.9224999999,
      "d": 65.78949999999895,
      "v": 120
    },
    {
      "midi": 88,
      "hit": false,
      "t": 69473.7119999999,
      "d": 197.36849999999686,
      "v": 120
    },
    {
      "midi": 58,
      "hit": false,
      "t": 69868.44899999989,
      "d": 789.474000000002,
      "v": 120
    },
    {
      "midi": 61,
      "hit": false,
      "t": 69868.44899999989,
      "d": 789.474000000002,
      "v": 120
    },
    {
      "midi": 67,
      "hit": false,
      "t": 69868.44899999989,
      "d": 789.474000000002,
      "v": 120
    },
    {
      "midi": 44,
      "hit": false,
      "t": 69868.44899999998,
      "d": 789.474000000002,
      "v": 120
    },
    {
      "midi": 52,
      "hit": false,
      "t": 69868.44899999998,
      "d": 789.474000000002,
      "v": 120
    },
    {
      "midi": 56,
      "hit": false,
      "t": 70657.9229999999,
      "d": 394.7369999999937,
      "v": 91
    },
    {
      "midi": 60,
      "hit": false,
      "t": 70657.9229999999,
      "d": 394.7369999999937,
      "v": 91
    },
    {
      "midi": 68,
      "hit": false,
      "t": 70657.9229999999,
      "d": 394.7369999999937,
      "v": 91
    },
    {
      "midi": 44,
      "hit": false,
      "t": 70657.92299999998,
      "d": 394.7369999999937,
      "v": 91
    },
    {
      "midi": 51,
      "hit": false,
      "t": 70657.92299999998,
      "d": 394.7369999999937,
      "v": 91
    },
    {
      "midi": 58,
      "hit": false,
      "t": 71052.65999999989,
      "d": 789.4739999999874,
      "v": 80
    },
    {
      "midi": 44,
      "hit": false,
      "t": 71052.65999999997,
      "d": 394.7369999999937,
      "v": 80
    },
    {
      "midi": 52,
      "hit": false,
      "t": 71052.65999999997,
      "d": 394.7369999999937,
      "v": 80
    },
    {
      "midi": 61,
      "hit": false,
      "t": 71250.02849999988,
      "d": 65.78949999999895,
      "v": 94
    },
    {
      "midi": 64,
      "hit": false,
      "t": 71315.81799999988,
      "d": 65.78949999999895,
      "v": 99
    },
    {
      "midi": 67,
      "hit": false,
      "t": 71381.60749999988,
      "d": 65.78949999999895,
      "v": 104
    },
    {
      "midi": 70,
      "hit": false,
      "t": 71447.39699999988,
      "d": 65.78949999999895,
      "v": 109
    },
    {
      "midi": 32,
      "hit": false,
      "t": 71447.39699999997,
      "d": 197.36849999999686,
      "v": 119
    },
    {
      "midi": 73,
      "hit": false,
      "t": 71513.18649999988,
      "d": 65.78949999999895,
      "v": 114
    },
    {
      "midi": 76,
      "hit": false,
      "t": 71578.97599999988,
      "d": 65.78949999999895,
      "v": 119
    },
    {
      "midi": 79,
      "hit": false,
      "t": 71644.76549999988,
      "d": 65.78949999999895,
      "v": 120
    },
    {
      "midi": 82,
      "hit": false,
      "t": 71710.55499999988,
      "d": 65.78949999999895,
      "v": 120
    },
    {
      "midi": 85,
      "hit": false,
      "t": 71776.34449999988,
      "d": 65.78949999999895,
      "v": 120
    },
    {
      "midi": 88,
      "hit": false,
      "t": 71842.13399999987,
      "d": 197.36849999999686,
      "v": 120
    },
    {
      "midi": 58,
      "hit": false,
      "t": 72236.87099999987,
      "d": 789.474000000002,
      "v": 120
    },
    {
      "midi": 61,
      "hit": false,
      "t": 72236.87099999987,
      "d": 789.474000000002,
      "v": 120
    },
    {
      "midi": 67,
      "hit": false,
      "t": 72236.87099999987,
      "d": 789.474000000002,
      "v": 120
    },
    {
      "midi": 44,
      "hit": false,
      "t": 72236.87099999997,
      "d": 789.474000000002,
      "v": 120
    },
    {
      "midi": 52,
      "hit": false,
      "t": 72236.87099999997,
      "d": 789.474000000002,
      "v": 120
    },
    {
      "midi": 56,
      "hit": false,
      "t": 73026.34499999987,
      "d": 394.7369999999937,
      "v": 113
    },
    {
      "midi": 60,
      "hit": false,
      "t": 73026.34499999987,
      "d": 394.7369999999937,
      "v": 113
    },
    {
      "midi": 68,
      "hit": false,
      "t": 73026.34499999987,
      "d": 394.7369999999937,
      "v": 113
    },
    {
      "midi": 44,
      "hit": false,
      "t": 73026.34499999997,
      "d": 394.7369999999937,
      "v": 113
    },
    {
      "midi": 51,
      "hit": false,
      "t": 73026.34499999997,
      "d": 394.7369999999937,
      "v": 113
    },
    {
      "midi": 75,
      "hit": false,
      "t": 73421.08199999986,
      "d": 2763.158999999985,
      "v": 120
    },
    {
      "midi": 27,
      "hit": false,
      "t": 73421.08199999997,
      "d": 394.7369999999937,
      "v": 120
    },
    {
      "midi": 39,
      "hit": false,
      "t": 73421.08199999997,
      "d": 394.7369999999937,
      "v": 120
    },
    {
      "midi": 61,
      "hit": false,
      "t": 73815.81899999986,
      "d": 98.6842500000057,
      "v": 110
    },
    {
      "midi": 67,
      "hit": false,
      "t": 73815.81899999986,
      "d": 98.6842500000057,
      "v": 110
    },
    {
      "midi": 51,
      "hit": false,
      "t": 73815.81899999996,
      "d": 98.6842500000057,
      "v": 110
    },
    {
      "midi": 58,
      "hit": false,
      "t": 73815.81899999996,
      "d": 98.6842500000057,
      "v": 110
    },
    {
      "midi": 61,
      "hit": false,
      "t": 74013.18749999987,
      "d": 98.6842500000057,
      "v": 110
    },
    {
      "midi": 67,
      "hit": false,
      "t": 74013.18749999987,
      "d": 98.6842500000057,
      "v": 110
    },
    {
      "midi": 51,
      "hit": false,
      "t": 74013.18749999997,
      "d": 98.6842500000057,
      "v": 110
    },
    {
      "midi": 58,
      "hit": false,
      "t": 74013.18749999997,
      "d": 98.6842500000057,
      "v": 110
    },
    {
      "midi": 61,
      "hit": false,
      "t": 74210.55599999988,
      "d": 197.36849999999686,
      "v": 110
    },
    {
      "midi": 67,
      "hit": false,
      "t": 74210.55599999988,
      "d": 197.36849999999686,
      "v": 110
    },
    {
      "midi": 51,
      "hit": false,
      "t": 74210.55599999998,
      "d": 197.36849999999686,
      "v": 110
    },
    {
      "midi": 58,
      "hit": false,
      "t": 74210.55599999998,
      "d": 197.36849999999686,
      "v": 110
    },
    {
      "midi": 61,
      "hit": false,
      "t": 74605.29299999987,
      "d": 394.7369999999937,
      "v": 110
    },
    {
      "midi": 67,
      "hit": false,
      "t": 74605.29299999987,
      "d": 394.7369999999937,
      "v": 110
    },
    {
      "midi": 51,
      "hit": false,
      "t": 74605.29299999998,
      "d": 394.7369999999937,
      "v": 110
    },
    {
      "midi": 58,
      "hit": false,
      "t": 74605.29299999998,
      "d": 394.7369999999937,
      "v": 110
    },
    {
      "midi": 61,
      "hit": false,
      "t": 75000.02999999987,
      "d": 394.7369999999937,
      "v": 110
    },
    {
      "midi": 67,
      "hit": false,
      "t": 75000.02999999987,
      "d": 394.7369999999937,
      "v": 110
    },
    {
      "midi": 72,
      "hit": false,
      "t": 75000.02999999987,
      "d": 394.7369999999937,
      "v": 110
    },
    {
      "midi": 51,
      "hit": false,
      "t": 75000.02999999997,
      "d": 394.7369999999937,
      "v": 110
    },
    {
      "midi": 58,
      "hit": false,
      "t": 75000.02999999997,
      "d": 394.7369999999937,
      "v": 110
    },
    {
      "midi": 61,
      "hit": false,
      "t": 75394.76699999986,
      "d": 394.7369999999937,
      "v": 110
    },
    {
      "midi": 67,
      "hit": false,
      "t": 75394.76699999986,
      "d": 394.7369999999937,
      "v": 110
    },
    {
      "midi": 70,
      "hit": false,
      "t": 75394.76699999986,
      "d": 394.7369999999937,
      "v": 110
    },
    {
      "midi": 51,
      "hit": false,
      "t": 75394.76699999996,
      "d": 394.7369999999937,
      "v": 110
    },
    {
      "midi": 58,
      "hit": false,
      "t": 75394.76699999996,
      "d": 394.7369999999937,
      "v": 110
    },
    {
      "midi": 60,
      "hit": false,
      "t": 75789.50399999986,
      "d": 197.36849999999686,
      "v": 110
    },
    {
      "midi": 68,
      "hit": false,
      "t": 75789.50399999986,
      "d": 197.36849999999686,
      "v": 110
    },
    {
      "midi": 44,
      "hit": false,
      "t": 75789.50399999996,
      "d": 197.36849999999686,
      "v": 110
    },
    {
      "midi": 51,
      "hit": false,
      "t": 75789.50399999996,
      "d": 197.36849999999686,
      "v": 110
    },
    {
      "midi": 75,
      "hit": false,
      "t": 76184.24099999985,
      "d": 789.474000000002,
      "v": 112
    },
    {
      "midi": 75,
      "hit": false,
      "t": 76973.71499999985,
      "d": 789.474000000002,
      "v": 95
    },
    {
      "midi": 75,
      "hit": false,
      "t": 77763.18899999985,
      "d": 394.7369999999937,
      "v": 78
    },
    {
      "midi": 75,
      "hit": false,
      "t": 78157.92599999985,
      "d": 789.474000000002,
      "v": 60
    },
    {
      "midi": 35,
      "hit": false,
      "t": 78157.92599999995,
      "d": 394.7369999999937,
      "v": 60
    },
    {
      "midi": 59,
      "hit": false,
      "t": 78552.663,
      "d": 789.4739999999874,
      "v": 60
    },
    {
      "midi": 81,
      "hit": false,
      "t": 78947.39999999985,
      "d": 789.474000000002,
      "v": 60
    },
    {
      "midi": 63,
      "hit": false,
      "t": 78947.4,
      "d": 789.4739999999874,
      "v": 70
    },
    {
      "midi": 69,
      "hit": false,
      "t": 78947.4,
      "d": 789.4739999999874,
      "v": 70
    },
    {
      "midi": 59,
      "hit": false,
      "t": 79342.13699999999,
      "d": 789.4739999999874,
      "v": 60
    },
    {
      "midi": 80,
      "hit": false,
      "t": 79736.87399999985,
      "d": 394.7369999999937,
      "v": 60
    },
    {
      "midi": 63,
      "hit": false,
      "t": 79736.87399999998,
      "d": 789.4739999999874,
      "v": 70
    },
    {
      "midi": 69,
      "hit": false,
      "t": 79736.87399999998,
      "d": 789.4739999999874,
      "v": 70
    },
    {
      "midi": 81,
      "hit": false,
      "t": 80131.61099999984,
      "d": 197.36849999999686,
      "v": 60
    },
    {
      "midi": 59,
      "hit": false,
      "t": 80131.61099999998,
      "d": 789.4739999999874,
      "v": 60
    },
    {
      "midi": 80,
      "hit": false,
      "t": 80328.97949999984,
      "d": 197.36849999999686,
      "v": 60
    },
    {
      "midi": 78,
      "hit": false,
      "t": 80526.34799999984,
      "d": 789.474000000002,
      "v": 60
    },
    {
      "midi": 66,
      "hit": false,
      "t": 80526.34799999997,
      "d": 1578.9479999999749,
      "v": 70
    },
    {
      "midi": 69,
      "hit": false,
      "t": 80526.34799999997,
      "d": 1578.9479999999749,
      "v": 70
    },
    {
      "midi": 59,
      "hit": false,
      "t": 80921.08499999996,
      "d": 394.7369999999937,
      "v": 60
    },
    {
      "midi": 75,
      "hit": false,
      "t": 81315.82199999984,
      "d": 789.474000000002,
      "v": 60
    },
    {
      "midi": 59,
      "hit": false,
      "t": 81315.82199999996,
      "d": 394.7369999999937,
      "v": 60
    },
    {
      "midi": 59,
      "hit": false,
      "t": 81710.55899999995,
      "d": 789.4739999999874,
      "v": 60
    },
    {
      "midi": 73,
      "hit": false,
      "t": 82105.29599999984,
      "d": 394.7369999999937,
      "v": 60
    },
    {
      "midi": 64,
      "hit": false,
      "t": 82105.29599999994,
      "d": 789.4739999999874,
      "v": 70
    },
    {
      "midi": 69,
      "hit": false,
      "t": 82105.29599999994,
      "d": 789.4739999999874,
      "v": 70
    },
    {
      "midi": 75,
      "hit": false,
      "t": 82500.03299999984,
      "d": 197.36849999999686,
      "v": 60
    },
    {
      "midi": 59,
      "hit": false,
      "t": 82500.03299999994,
      "d": 789.4739999999874,
      "v": 60
    },
    {
      "midi": 73,
      "hit": false,
      "t": 82697.40149999983,
      "d": 197.36849999999686,
      "v": 60
    },
    {
      "midi": 71,
      "hit": false,
      "t": 82894.76999999983,
      "d": 789.474000000002,
      "v": 60
    },
    {
      "midi": 63,
      "hit": false,
      "t": 82894.76999999993,
      "d": 1578.9479999999749,
      "v": 70
    },
    {
      "midi": 69,
      "hit": false,
      "t": 82894.76999999993,
      "d": 1578.9479999999749,
      "v": 70
    },
    {
      "midi": 59,
      "hit": false,
      "t": 83289.50699999993,
      "d": 394.7369999999937,
      "v": 60
    },
    {
      "midi": 81,
      "hit": false,
      "t": 83684.24399999983,
      "d": 789.474000000002,
      "v": 60
    },
    {
      "midi": 59,
      "hit": false,
      "t": 83684.24399999992,
      "d": 394.7369999999937,
      "v": 60
    },
    {
      "midi": 59,
      "hit": false,
      "t": 84078.98099999991,
      "d": 789.4739999999874,
      "v": 60
    },
    {
      "midi": 80,
      "hit": false,
      "t": 84473.71799999983,
      "d": 394.7369999999937,
      "v": 60
    },
    {
      "midi": 64,
      "hit": false,
      "t": 84473.7179999999,
      "d": 789.4739999999874,
      "v": 70
    },
    {
      "midi": 69,
      "hit": false,
      "t": 84473.7179999999,
      "d": 789.4739999999874,
      "v": 70
    },
    {
      "midi": 81,
      "hit": false,
      "t": 84868.45499999983,
      "d": 197.36849999999686,
      "v": 60
    },
    {
      "midi": 59,
      "hit": false,
      "t": 84868.4549999999,
      "d": 789.4739999999874,
      "v": 60
    },
    {
      "midi": 80,
      "hit": false,
      "t": 85065.82349999982,
      "d": 197.36849999999686,
      "v": 60
    },
    {
      "midi": 78,
      "hit": false,
      "t": 85263.19199999982,
      "d": 789.474000000002,
      "v": 60
    },
    {
      "midi": 66,
      "hit": false,
      "t": 85263.1919999999,
      "d": 1578.9479999999749,
      "v": 70
    },
    {
      "midi": 69,
      "hit": false,
      "t": 85263.1919999999,
      "d": 1578.9479999999749,
      "v": 70
    },
    {
      "midi": 59,
      "hit": false,
      "t": 85657.92899999989,
      "d": 394.7369999999937,
      "v": 60
    },
    {
      "midi": 75,
      "hit": false,
      "t": 86052.66599999982,
      "d": 789.474000000002,
      "v": 60
    },
    {
      "midi": 59,
      "hit": false,
      "t": 86052.66599999988,
      "d": 394.7369999999937,
      "v": 60
    },
    {
      "midi": 59,
      "hit": false,
      "t": 86447.40299999987,
      "d": 789.4739999999874,
      "v": 60
    },
    {
      "midi": 73,
      "hit": false,
      "t": 86842.13999999982,
      "d": 118.42110000000685,
      "v": 60
    },
    {
      "midi": 64,
      "hit": false,
      "t": 86842.13999999987,
      "d": 789.4739999999874,
      "v": 70
    },
    {
      "midi": 69,
      "hit": false,
      "t": 86842.13999999987,
      "d": 789.4739999999874,
      "v": 70
    },
    {
      "midi": 75,
      "hit": false,
      "t": 86940.82424999983,
      "d": 118.42110000000685,
      "v": 60
    },
    {
      "midi": 73,
      "hit": false,
      "t": 87059.24534999984,
      "d": 118.4210999999923,
      "v": 60
    },
    {
      "midi": 72,
      "hit": false,
      "t": 87171.08749999983,
      "d": 118.4210999999923,
      "v": 60
    },
    {
      "midi": 59,
      "hit": false,
      "t": 87236.87699999986,
      "d": 789.4739999999874,
      "v": 60
    },
    {
      "midi": 73,
      "hit": false,
      "t": 87282.92964999983,
      "d": 118.4210999999923,
      "v": 60
    },
    {
      "midi": 75,
      "hit": false,
      "t": 87401.35074999982,
      "d": 118.4210999999923,
      "v": 60
    },
    {
      "midi": 76,
      "hit": false,
      "t": 87513.19289999982,
      "d": 118.4210999999923,
      "v": 60
    },
    {
      "midi": 71,
      "hit": false,
      "t": 87631.61399999981,
      "d": 789.474000000002,
      "v": 60
    },
    {
      "midi": 63,
      "hit": false,
      "t": 87631.61399999986,
      "d": 1578.9479999999749,
      "v": 70
    },
    {
      "midi": 69,
      "hit": false,
      "t": 87631.61399999986,
      "d": 1578.9479999999749,
      "v": 70
    },
    {
      "midi": 59,
      "hit": false,
      "t": 88026.35099999985,
      "d": 394.7369999999937,
      "v": 59
    },
    {
      "midi": 59,
      "hit": false,
      "t": 88421.08799999984,
      "d": 394.7369999999937,
      "v": 57
    },
    {
      "midi": 57,
      "hit": false,
      "t": 88421.08799999999,
      "d": 789.474000000002,
      "v": 67
    },
    {
      "midi": 59,
      "hit": false,
      "t": 88815.82499999984,
      "d": 789.4739999999874,
      "v": 55
    },
    {
      "midi": 64,
      "hit": false,
      "t": 89210.56199999983,
      "d": 789.4739999999874,
      "v": 63
    },
    {
      "midi": 69,
      "hit": false,
      "t": 89210.56199999983,
      "d": 789.4739999999874,
      "v": 63
    },
    {
      "midi": 56,
      "hit": false,
      "t": 89210.56199999999,
      "d": 394.7369999999937,
      "v": 63
    },
    {
      "midi": 59,
      "hit": false,
      "t": 89605.29899999982,
      "d": 789.4739999999874,
      "v": 52
    },
    {
      "midi": 57,
      "hit": false,
      "t": 89605.29899999998,
      "d": 197.36849999999686,
      "v": 62
    },
    {
      "midi": 56,
      "hit": false,
      "t": 89802.66749999998,
      "d": 197.36849999999686,
      "v": 61
    },
    {
      "midi": 66,
      "hit": false,
      "t": 90000.03599999982,
      "d": 1578.9479999999749,
      "v": 60
    },
    {
      "midi": 69,
      "hit": false,
      "t": 90000.03599999982,
      "d": 1578.9479999999749,
      "v": 60
    },
    {
      "midi": 54,
      "hit": false,
      "t": 90000.03599999998,
      "d": 789.474000000002,
      "v": 60
    },
    {
      "midi": 59,
      "hit": false,
      "t": 90394.77299999981,
      "d": 394.7369999999937,
      "v": 48
    },
    {
      "midi": 59,
      "hit": false,
      "t": 90789.5099999998,
      "d": 394.7369999999937,
      "v": 46
    },
    {
      "midi": 51,
      "hit": false,
      "t": 90789.50999999998,
      "d": 789.474000000002,
      "v": 56
    },
    {
      "midi": 59,
      "hit": false,
      "t": 91184.2469999998,
      "d": 789.4739999999874,
      "v": 45
    },
    {
      "midi": 64,
      "hit": false,
      "t": 91578.9839999998,
      "d": 789.4739999999874,
      "v": 53
    },
    {
      "midi": 69,
      "hit": false,
      "t": 91578.9839999998,
      "d": 789.4739999999874,
      "v": 53
    },
    {
      "midi": 49,
      "hit": false,
      "t": 91578.98399999998,
      "d": 394.7369999999937,
      "v": 53
    },
    {
      "midi": 59,
      "hit": false,
      "t": 91973.72099999979,
      "d": 394.7369999999937,
      "v": 41
    },
    {
      "midi": 51,
      "hit": false,
      "t": 91973.72099999998,
      "d": 197.36849999999686,
      "v": 51
    },
    {
      "midi": 49,
      "hit": false,
      "t": 92171.08949999997,
      "d": 197.36849999999686,
      "v": 50
    },
    {
      "midi": 63,
      "hit": false,
      "t": 92368.45799999978,
      "d": 394.7369999999937,
      "v": 40
    },
    {
      "midi": 69,
      "hit": false,
      "t": 92368.45799999978,
      "d": 2368.4219999999623,
      "v": 50
    },
    {
      "midi": 47,
      "hit": false,
      "t": 92368.45799999997,
      "d": 2368.422000000006,
      "v": 50
    },
    {
      "midi": 66,
      "hit": false,
      "t": 92763.19499999977,
      "d": 394.7369999999937,
      "v": 45
    },
    {
      "midi": 63,
      "hit": false,
      "t": 93157.93199999977,
      "d": 394.7369999999937,
      "v": 50
    },
    {
      "midi": 66,
      "hit": false,
      "t": 93552.66899999976,
      "d": 394.7369999999937,
      "v": 56
    },
    {
      "midi": 63,
      "hit": false,
      "t": 93947.40599999976,
      "d": 394.7369999999937,
      "v": 61
    },
    {
      "midi": 66,
      "hit": false,
      "t": 94342.14299999975,
      "d": 394.7369999999937,
      "v": 67
    },
    {
      "midi": 63,
      "hit": false,
      "t": 94736.87999999974,
      "d": 394.7369999999937,
      "v": 72
    },
    {
      "midi": 69,
      "hit": false,
      "t": 94736.87999999974,
      "d": 1578.9479999999749,
      "v": 82
    },
    {
      "midi": 47,
      "hit": false,
      "t": 94736.87999999998,
      "d": 131.5789999999979,
      "v": 82
    },
    {
      "midi": 48,
      "hit": false,
      "t": 94868.45899999997,
      "d": 131.5789999999979,
      "v": 84
    },
    {
      "midi": 49,
      "hit": false,
      "t": 95000.03799999997,
      "d": 131.5789999999979,
      "v": 86
    },
    {
      "midi": 66,
      "hit": false,
      "t": 95131.61699999974,
      "d": 394.7369999999937,
      "v": 78
    },
    {
      "midi": 48,
      "hit": false,
      "t": 95131.61699999997,
      "d": 98.6842500000057,
      "v": 88
    },
    {
      "midi": 49,
      "hit": false,
      "t": 95230.30124999997,
      "d": 98.6842500000057,
      "v": 89
    },
    {
      "midi": 48,
      "hit": false,
      "t": 95328.98549999998,
      "d": 98.6842500000057,
      "v": 90
    },
    {
      "midi": 49,
      "hit": false,
      "t": 95427.66974999999,
      "d": 98.6842500000057,
      "v": 92
    },
    {
      "midi": 63,
      "hit": false,
      "t": 95526.35399999973,
      "d": 394.7369999999937,
      "v": 83
    },
    {
      "midi": 48,
      "hit": false,
      "t": 95526.35399999999,
      "d": 98.6842500000057,
      "v": 93
    },
    {
      "midi": 49,
      "hit": false,
      "t": 95625.03825,
      "d": 98.6842500000057,
      "v": 94
    },
    {
      "midi": 48,
      "hit": false,
      "t": 95723.7225,
      "d": 98.6842500000057,
      "v": 96
    },
    {
      "midi": 49,
      "hit": false,
      "t": 95822.40675000001,
      "d": 98.6842500000057,
      "v": 97
    },
    {
      "midi": 66,
      "hit": false,
      "t": 95921.09099999972,
      "d": 394.7369999999937,
      "v": 89
    },
    {
      "midi": 48,
      "hit": false,
      "t": 95921.09100000001,
      "d": 98.6842500000057,
      "v": 99
    },
    {
      "midi": 49,
      "hit": false,
      "t": 96019.77525000002,
      "d": 98.6842500000057,
      "v": 100
    },
    {
      "midi": 48,
      "hit": false,
      "t": 96118.45950000003,
      "d": 98.6842500000057,
      "v": 101
    },
    {
      "midi": 49,
      "hit": false,
      "t": 96217.14375000003,
      "d": 98.6842500000057,
      "v": 103
    },
    {
      "midi": 63,
      "hit": false,
      "t": 96315.82799999972,
      "d": 394.7369999999937,
      "v": 94
    },
    {
      "midi": 68,
      "hit": false,
      "t": 96315.82799999972,
      "d": 789.4739999999874,
      "v": 94
    },
    {
      "midi": 48,
      "hit": false,
      "t": 96315.82800000004,
      "d": 98.6842500000057,
      "v": 104
    },
    {
      "midi": 49,
      "hit": false,
      "t": 96414.51225000004,
      "d": 98.6842500000057,
      "v": 105
    },
    {
      "midi": 48,
      "hit": false,
      "t": 96513.19650000005,
      "d": 98.6842500000057,
      "v": 107
    },
    {
      "midi": 49,
      "hit": false,
      "t": 96611.88075000005,
      "d": 98.6842500000057,
      "v": 108
    },
    {
      "midi": 66,
      "hit": false,
      "t": 96710.56499999971,
      "d": 394.7369999999937,
      "v": 99
    },
    {
      "midi": 48,
      "hit": false,
      "t": 96710.56500000006,
      "d": 131.5789999999979,
      "v": 109
    },
    {
      "midi": 46,
      "hit": false,
      "t": 96842.14400000006,
      "d": 131.5789999999979,
      "v": 110
    },
    {
      "midi": 48,
      "hit": false,
      "t": 96973.72300000006,
      "d": 131.5789999999979,
      "v": 110
    },
    {
      "midi": 64,
      "hit": false,
      "t": 97105.3019999997,
      "d": 789.4739999999874,
      "v": 110
    },
    {
      "midi": 49,
      "hit": false,
      "t": 97105.30200000005,
      "d": 394.7369999999937,
      "v": 110
    },
    {
      "midi": 68,
      "hit": false,
      "t": 97500.0389999997,
      "d": 394.7369999999937,
      "v": 100
    },
    {
      "midi": 60,
      "hit": false,
      "t": 97894.77599999969,
      "d": 789.4739999999874,
      "v": 111
    },
    {
      "midi": 75,
      "hit": false,
      "t": 97894.77599999981,
      "d": 394.7369999999937,
      "v": 101
    },
    {
      "midi": 66,
      "hit": false,
      "t": 98289.51299999969,
      "d": 394.7369999999937,
      "v": 102
    },
    {
      "midi": 68,
      "hit": false,
      "t": 98289.51299999969,
      "d": 394.7369999999937,
      "v": 102
    },
    {
      "midi": 73,
      "hit": false,
      "t": 98289.5129999998,
      "d": 197.36849999999686,
      "v": 102
    },
    {
      "midi": 75,
      "hit": false,
      "t": 98486.8814999998,
      "d": 197.36849999999686,
      "v": 103
    },
    {
      "midi": 61,
      "hit": false,
      "t": 98684.24999999968,
      "d": 789.4739999999874,
      "v": 113
    },
    {
      "midi": 76,
      "hit": false,
      "t": 98684.2499999998,
      "d": 394.7369999999937,
      "v": 103
    },
    {
      "midi": 64,
      "hit": false,
      "t": 99078.98699999967,
      "d": 394.7369999999937,
      "v": 104
    },
    {
      "midi": 68,
      "hit": false,
      "t": 99078.98699999967,
      "d": 394.7369999999937,
      "v": 104
    },
    {
      "midi": 75,
      "hit": false,
      "t": 99078.98699999979,
      "d": 197.36849999999686,
      "v": 104
    },
    {
      "midi": 76,
      "hit": false,
      "t": 99276.35549999979,
      "d": 197.36849999999686,
      "v": 105
    },
    {
      "midi": 78,
      "hit": false,
      "t": 99473.72399999978,
      "d": 394.7369999999937,
      "v": 105
    },
    {
      "midi": 57,
      "hit": false,
      "t": 99473.72399999994,
      "d": 789.4739999999874,
      "v": 115
    },
    {
      "midi": 76,
      "hit": false,
      "t": 99868.46099999978,
      "d": 197.36849999999686,
      "v": 106
    },
    {
      "midi": 61,
      "hit": false,
      "t": 99868.46099999994,
      "d": 394.7369999999937,
      "v": 106
    },
    {
      "midi": 66,
      "hit": false,
      "t": 99868.46099999994,
      "d": 394.7369999999937,
      "v": 106
    },
    {
      "midi": 78,
      "hit": false,
      "t": 100065.82949999977,
      "d": 197.36849999999686,
      "v": 106
    },
    {
      "midi": 80,
      "hit": false,
      "t": 100263.19799999977,
      "d": 394.7369999999937,
      "v": 107
    },
    {
      "midi": 56,
      "hit": false,
      "t": 100263.19799999993,
      "d": 789.4739999999874,
      "v": 117
    },
    {
      "midi": 78,
      "hit": false,
      "t": 100657.93499999976,
      "d": 197.36849999999686,
      "v": 108
    },
    {
      "midi": 61,
      "hit": false,
      "t": 100657.93499999992,
      "d": 394.7369999999937,
      "v": 108
    },
    {
      "midi": 64,
      "hit": false,
      "t": 100657.93499999992,
      "d": 394.7369999999937,
      "v": 108
    },
    {
      "midi": 80,
      "hit": false,
      "t": 100855.30349999976,
      "d": 197.36849999999686,
      "v": 108
    },
    {
      "midi": 81,
      "hit": false,
      "t": 101052.67199999976,
      "d": 394.7369999999937,
      "v": 109
    },
    {
      "midi": 54,
      "hit": false,
      "t": 101052.67199999992,
      "d": 789.4739999999874,
      "v": 119
    },
    {
      "midi": 69,
      "hit": false,
      "t": 101447.40899999975,
      "d": 394.7369999999937,
      "v": 110
    },
    {
      "midi": 61,
      "hit": false,
      "t": 101447.40899999991,
      "d": 394.7369999999937,
      "v": 110
    },
    {
      "midi": 63,
      "hit": false,
      "t": 101447.40899999991,
      "d": 394.7369999999937,
      "v": 110
    },
    {
      "midi": 68,
      "hit": false,
      "t": 101842.14599999975,
      "d": 1052.6319999999978,
      "v": 110
    },
    {
      "midi": 44,
      "hit": false,
      "t": 101842.1459999999,
      "d": 394.7369999999937,
      "v": 110
    },
    {
      "midi": 51,
      "hit": false,
      "t": 102236.8829999999,
      "d": 1184.2109999999811,
      "v": 120
    },
    {
      "midi": 60,
      "hit": false,
      "t": 102631.6199999999,
      "d": 394.7369999999937,
      "v": 110
    },
    {
      "midi": 70,
      "hit": false,
      "t": 102894.77799999974,
      "d": 131.5789999999979,
      "v": 110
    },
    {
      "midi": 56,
      "hit": false,
      "t": 103026.35699999989,
      "d": 789.4739999999874,
      "v": 120
    },
    {
      "midi": 72,
      "hit": false,
      "t": 103157.93599999974,
      "d": 131.5789999999979,
      "v": 110
    },
    {
      "midi": 73,
      "hit": false,
      "t": 103421.09399999974,
      "d": 131.5789999999979,
      "v": 110
    },
    {
      "midi": 52,
      "hit": false,
      "t": 103421.09399999988,
      "d": 394.7369999999937,
      "v": 110
    },
    {
      "midi": 61,
      "hit": false,
      "t": 103421.09399999988,
      "d": 394.7369999999937,
      "v": 110
    },
    {
      "midi": 75,
      "hit": false,
      "t": 103684.25199999973,
      "d": 131.5789999999979,
      "v": 110
    },
    {
      "midi": 55,
      "hit": false,
      "t": 103815.83099999987,
      "d": 394.7369999999937,
      "v": 120
    },
    {
      "midi": 76,
      "hit": false,
      "t": 103947.40999999973,
      "d": 131.5789999999979,
      "v": 110
    },
    {
      "midi": 75,
      "hit": false,
      "t": 104210.56799999972,
      "d": 2368.422000000006,
      "v": 110
    },
    {
      "midi": 44,
      "hit": false,
      "t": 104210.56799999987,
      "d": 394.7369999999937,
      "v": 110
    },
    {
      "midi": 51,
      "hit": false,
      "t": 104605.30499999986,
      "d": 394.7369999999937,
      "v": 110
    },
    {
      "midi": 60,
      "hit": false,
      "t": 105000.04199999986,
      "d": 394.7369999999937,
      "v": 110
    },
    {
      "midi": 56,
      "hit": false,
      "t": 105394.77899999985,
      "d": 394.7369999999937,
      "v": 110
    },
    {
      "midi": 68,
      "hit": false,
      "t": 105789.51599999984,
      "d": 394.7369999999937,
      "v": 110
    },
    {
      "midi": 75,
      "hit": false,
      "t": 106578.98999999973,
      "d": 263.1579999999958,
      "v": 60
    },
    {
      "midi": 32,
      "hit": false,
      "t": 106578.98999999983,
      "d": 197.36849999999686,
      "v": 60
    },
    {
      "midi": 44,
      "hit": false,
      "t": 106578.98999999983,
      "d": 197.36849999999686,
      "v": 60
    },
    {
      "midi": 75,
      "hit": false,
      "t": 106842.14799999972,
      "d": 263.1579999999958,
      "v": 60
    },
    {
      "midi": 56,
      "hit": false,
      "t": 106973.72699999982,
      "d": 789.4739999999874,
      "v": 70
    },
    {
      "midi": 75,
      "hit": false,
      "t": 107105.30599999972,
      "d": 263.1579999999958,
      "v": 60
    },
    {
      "midi": 75,
      "hit": false,
      "t": 107368.46399999972,
      "d": 394.7369999999937,
      "v": 60
    },
    {
      "midi": 60,
      "hit": false,
      "t": 107368.46399999982,
      "d": 394.7369999999937,
      "v": 60
    },
    {
      "midi": 66,
      "hit": false,
      "t": 107368.46399999982,
      "d": 394.7369999999937,
      "v": 60
    },
    {
      "midi": 73,
      "hit": false,
      "t": 107763.20099999971,
      "d": 197.36849999999686,
      "v": 60
    },
    {
      "midi": 56,
      "hit": false,
      "t": 107763.20099999981,
      "d": 789.4739999999874,
      "v": 70
    },
    {
      "midi": 75,
      "hit": false,
      "t": 107960.5694999997,
      "d": 197.36849999999686,
      "v": 60
    },
    {
      "midi": 77,
      "hit": false,
      "t": 108157.9379999997,
      "d": 394.7369999999937,
      "v": 60
    },
    {
      "midi": 49,
      "hit": false,
      "t": 108157.9379999998,
      "d": 394.7369999999937,
      "v": 60
    },
    {
      "midi": 59,
      "hit": false,
      "t": 108223.7274999998,
      "d": 328.94749999999476,
      "v": 60
    },
    {
      "midi": 65,
      "hit": false,
      "t": 108289.5169999998,
      "d": 263.1579999999958,
      "v": 60
    },
    {
      "midi": 75,
      "hit": false,
      "t": 108552.6749999997,
      "d": 197.36849999999686,
      "v": 60
    },
    {
      "midi": 61,
      "hit": false,
      "t": 108552.6749999998,
      "d": 394.7369999999937,
      "v": 60
    },
    {
      "midi": 77,
      "hit": false,
      "t": 108750.0434999997,
      "d": 197.36849999999686,
      "v": 60
    },
    {
      "midi": 78,
      "hit": false,
      "t": 108947.41199999969,
      "d": 394.7369999999937,
      "v": 60
    },
    {
      "midi": 66,
      "hit": false,
      "t": 108947.4119999998,
      "d": 394.7369999999937,
      "v": 60
    },
    {
      "midi": 54,
      "hit": false,
      "t": 108947.4119999998,
      "d": 789.4739999999874,
      "v": 70
    },
    {
      "midi": 57,
      "hit": false,
      "t": 108947.4119999998,
      "d": 789.4739999999874,
      "v": 70
    },
    {
      "midi": 77,
      "hit": false,
      "t": 109342.14899999968,
      "d": 197.36849999999686,
      "v": 60
    },
    {
      "midi": 61,
      "hit": false,
      "t": 109342.14899999979,
      "d": 394.7369999999937,
      "v": 60
    },
    {
      "midi": 78,
      "hit": false,
      "t": 109539.51749999968,
      "d": 197.36849999999686,
      "v": 60
    },
    {
      "midi": 80,
      "hit": false,
      "t": 109736.88599999968,
      "d": 394.7369999999937,
      "v": 60
    },
    {
      "midi": 68,
      "hit": false,
      "t": 109736.88599999978,
      "d": 394.7369999999937,
      "v": 60
    },
    {
      "midi": 53,
      "hit": false,
      "t": 109736.88599999978,
      "d": 789.4739999999874,
      "v": 70
    },
    {
      "midi": 59,
      "hit": false,
      "t": 109736.88599999978,
      "d": 789.4739999999874,
      "v": 70
    },
    {
      "midi": 78,
      "hit": false,
      "t": 110131.62299999967,
      "d": 197.36849999999686,
      "v": 60
    },
    {
      "midi": 61,
      "hit": false,
      "t": 110131.62299999977,
      "d": 394.7369999999937,
      "v": 60
    },
    {
      "midi": 80,
      "hit": false,
      "t": 110328.99149999967,
      "d": 197.36849999999686,
      "v": 60
    },
    {
      "midi": 81,
      "hit": false,
      "t": 110526.35999999967,
      "d": 394.7369999999937,
      "v": 60
    },
    {
      "midi": 54,
      "hit": false,
      "t": 110526.35999999977,
      "d": 789.4739999999874,
      "v": 70
    },
    {
      "midi": 57,
      "hit": false,
      "t": 110592.14949999977,
      "d": 723.6844999999885,
      "v": 70
    },
    {
      "midi": 69,
      "hit": false,
      "t": 110657.93899999977,
      "d": 263.1579999999958,
      "v": 60
    },
    {
      "midi": 80,
      "hit": false,
      "t": 110921.09699999966,
      "d": 197.36849999999686,
      "v": 60
    },
    {
      "midi": 61,
      "hit": false,
      "t": 110921.09699999976,
      "d": 394.7369999999937,
      "v": 60
    },
    {
      "midi": 81,
      "hit": false,
      "t": 111118.46549999966,
      "d": 197.36849999999686,
      "v": 60
    },
    {
      "midi": 83,
      "hit": false,
      "t": 111315.83399999965,
      "d": 263.1579999999958,
      "v": 40
    },
    {
      "midi": 57,
      "hit": false,
      "t": 111315.83399999976,
      "d": 394.7369999999937,
      "v": 50
    },
    {
      "midi": 54,
      "hit": false,
      "t": 111315.83399999976,
      "d": 2368.421999999977,
      "v": 40
    },
    {
      "midi": 81,
      "hit": false,
      "t": 111578.99199999965,
      "d": 263.1579999999958,
      "v": 42
    },
    {
      "midi": 61,
      "hit": false,
      "t": 111710.57099999975,
      "d": 394.7369999999937,
      "v": 53
    },
    {
      "midi": 78,
      "hit": false,
      "t": 112006.62374999965,
      "d": 52.63159999999334,
      "v": 46
    },
    {
      "midi": 79,
      "hit": false,
      "t": 112052.67639999965,
      "d": 52.63159999999334,
      "v": 46
    },
    {
      "midi": 78,
      "hit": false,
      "t": 112105.30799999964,
      "d": 263.1579999999958,
      "v": 47
    },
    {
      "midi": 62,
      "hit": false,
      "t": 112105.30799999974,
      "d": 394.7369999999937,
      "v": 57
    },
    {
      "midi": 76,
      "hit": false,
      "t": 112368.46599999964,
      "d": 263.1579999999958,
      "v": 49
    },
    {
      "midi": 64,
      "hit": false,
      "t": 112500.04499999974,
      "d": 394.7369999999937,
      "v": 60
    },
    {
      "midi": 78,
      "hit": false,
      "t": 112796.09774999964,
      "d": 98.6842500000057,
      "v": 53
    },
    {
      "midi": 69,
      "hit": false,
      "t": 112894.78199999964,
      "d": 394.7369999999937,
      "v": 54
    },
    {
      "midi": 66,
      "hit": false,
      "t": 112894.78199999973,
      "d": 789.474000000002,
      "v": 64
    },
    {
      "midi": 74,
      "hit": false,
      "t": 113289.51899999964,
      "d": 394.7369999999937,
      "v": 57
    },
    {
      "midi": 73,
      "hit": false,
      "t": 113684.25599999963,
      "d": 263.1579999999958,
      "v": 60
    },
    {
      "midi": 64,
      "hit": false,
      "t": 113684.25599999973,
      "d": 263.1579999999958,
      "v": 60
    },
    {
      "midi": 56,
      "hit": false,
      "t": 113684.25599999973,
      "d": 1184.2109999999811,
      "v": 70
    },
    {
      "midi": 72,
      "hit": false,
      "t": 113947.41399999963,
      "d": 526.3159999999916,
      "v": 70
    },
    {
      "midi": 63,
      "hit": false,
      "t": 113947.41399999973,
      "d": 263.1579999999958,
      "v": 60
    },
    {
      "midi": 76,
      "hit": false,
      "t": 114210.57199999962,
      "d": 263.1579999999958,
      "v": 60
    },
    {
      "midi": 68,
      "hit": false,
      "t": 114210.57199999972,
      "d": 263.1579999999958,
      "v": 60
    },
    {
      "midi": 75,
      "hit": false,
      "t": 114473.72999999962,
      "d": 789.474000000002,
      "v": 60
    },
    {
      "midi": 66,
      "hit": false,
      "t": 114473.72999999972,
      "d": 789.4739999999874,
      "v": 60
    },
    {
      "midi": 56,
      "hit": false,
      "t": 114868.46699999971,
      "d": 394.7369999999937,
      "v": 60
    },
    {
      "midi": 73,
      "hit": false,
      "t": 115263.20399999962,
      "d": 394.7369999999937,
      "v": 60
    },
    {
      "midi": 61,
      "hit": false,
      "t": 115263.2039999997,
      "d": 394.7369999999937,
      "v": 60
    },
    {
      "midi": 64,
      "hit": false,
      "t": 115263.2039999997,
      "d": 394.7369999999937,
      "v": 60
    },
    {
      "midi": 32,
      "hit": false,
      "t": 116052.6779999997,
      "d": 197.36849999999686,
      "v": 50
    },
    {
      "midi": 56,
      "hit": false,
      "t": 116447.41499999962,
      "d": 789.474000000002,
      "v": 60
    },
    {
      "midi": 60,
      "hit": false,
      "t": 116447.41499999962,
      "d": 789.474000000002,
      "v": 60
    },
    {
      "midi": 44,
      "hit": false,
      "t": 116447.41499999969,
      "d": 789.474000000002,
      "v": 40
    },
    {
      "midi": 51,
      "hit": false,
      "t": 116447.41499999969,
      "d": 789.474000000002,
      "v": 40
    },
    {
      "midi": 56,
      "hit": false,
      "t": 117236.88899999962,
      "d": 394.7369999999937,
      "v": 40
    },
    {
      "midi": 60,
      "hit": false,
      "t": 117236.88899999962,
      "d": 394.7369999999937,
      "v": 40
    },
    {
      "midi": 44,
      "hit": false,
      "t": 117236.88899999969,
      "d": 394.7369999999937,
      "v": 40
    },
    {
      "midi": 51,
      "hit": false,
      "t": 117236.88899999969,
      "d": 394.7369999999937,
      "v": 40
    },
    {
      "midi": 56,
      "hit": false,
      "t": 117631.62599999961,
      "d": 394.7369999999937,
      "v": 40
    },
    {
      "midi": 60,
      "hit": false,
      "t": 117631.62599999961,
      "d": 394.7369999999937,
      "v": 40
    },
    {
      "midi": 44,
      "hit": false,
      "t": 117631.62599999968,
      "d": 394.7369999999937,
      "v": 40
    },
    {
      "midi": 51,
      "hit": false,
      "t": 117631.62599999968,
      "d": 394.7369999999937,
      "v": 40
    },
    {
      "midi": 56,
      "hit": false,
      "t": 118026.3629999996,
      "d": 394.7369999999937,
      "v": 40
    },
    {
      "midi": 60,
      "hit": false,
      "t": 118026.3629999996,
      "d": 394.7369999999937,
      "v": 40
    },
    {
      "midi": 44,
      "hit": false,
      "t": 118026.36299999968,
      "d": 394.7369999999937,
      "v": 40
    },
    {
      "midi": 51,
      "hit": false,
      "t": 118026.36299999968,
      "d": 394.7369999999937,
      "v": 40
    },
    {
      "midi": 55,
      "hit": false,
      "t": 118421.0999999996,
      "d": 789.4740000000311,
      "v": 40
    },
    {
      "midi": 44,
      "hit": false,
      "t": 118421.09999999967,
      "d": 394.7369999999937,
      "v": 40
    },
    {
      "midi": 52,
      "hit": false,
      "t": 118421.09999999967,
      "d": 394.7369999999937,
      "v": 40
    },
    {
      "midi": 58,
      "hit": false,
      "t": 118618.4684999996,
      "d": 98.6842500000057,
      "v": 54
    },
    {
      "midi": 61,
      "hit": false,
      "t": 118717.1527499996,
      "d": 98.6842500000057,
      "v": 62
    },
    {
      "midi": 64,
      "hit": false,
      "t": 118815.8369999996,
      "d": 98.6842500000057,
      "v": 69
    },
    {
      "midi": 32,
      "hit": false,
      "t": 118815.83699999966,
      "d": 197.36849999999686,
      "v": 79
    },
    {
      "midi": 67,
      "hit": false,
      "t": 118914.52124999961,
      "d": 98.6842500000057,
      "v": 77
    },
    {
      "midi": 70,
      "hit": false,
      "t": 119013.20549999962,
      "d": 98.6842500000057,
      "v": 80
    },
    {
      "midi": 73,
      "hit": false,
      "t": 119111.88974999962,
      "d": 98.6842500000057,
      "v": 80
    },
    {
      "midi": 76,
      "hit": false,
      "t": 119210.57399999963,
      "d": 394.7369999999937,
      "v": 80
    },
    {
      "midi": 61,
      "hit": false,
      "t": 119605.31099999962,
      "d": 789.474000000002,
      "v": 80
    },
    {
      "midi": 67,
      "hit": false,
      "t": 119605.31099999962,
      "d": 789.474000000002,
      "v": 80
    },
    {
      "midi": 44,
      "hit": false,
      "t": 119605.31099999967,
      "d": 789.474000000002,
      "v": 80
    },
    {
      "midi": 52,
      "hit": false,
      "t": 119605.31099999967,
      "d": 789.474000000002,
      "v": 80
    },
    {
      "midi": 60,
      "hit": false,
      "t": 120394.78499999963,
      "d": 394.7369999999937,
      "v": 66
    },
    {
      "midi": 68,
      "hit": false,
      "t": 120394.78499999963,
      "d": 394.7369999999937,
      "v": 66
    },
    {
      "midi": 44,
      "hit": false,
      "t": 120394.78499999967,
      "d": 394.7369999999937,
      "v": 66
    },
    {
      "midi": 51,
      "hit": false,
      "t": 120394.78499999967,
      "d": 394.7369999999937,
      "v": 66
    },
    {
      "midi": 32,
      "hit": false,
      "t": 120789.52199999966,
      "d": 197.36849999999686,
      "v": 70
    },
    {
      "midi": 56,
      "hit": false,
      "t": 121184.25899999961,
      "d": 789.474000000002,
      "v": 80
    },
    {
      "midi": 60,
      "hit": false,
      "t": 121184.25899999961,
      "d": 789.474000000002,
      "v": 80
    },
    {
      "midi": 44,
      "hit": false,
      "t": 121184.25899999966,
      "d": 789.474000000002,
      "v": 60
    },
    {
      "midi": 51,
      "hit": false,
      "t": 121184.25899999966,
      "d": 789.474000000002,
      "v": 60
    },
    {
      "midi": 56,
      "hit": false,
      "t": 121973.73299999961,
      "d": 394.7369999999937,
      "v": 60
    },
    {
      "midi": 60,
      "hit": false,
      "t": 121973.73299999961,
      "d": 394.7369999999937,
      "v": 60
    },
    {
      "midi": 44,
      "hit": false,
      "t": 121973.73299999966,
      "d": 394.7369999999937,
      "v": 60
    },
    {
      "midi": 51,
      "hit": false,
      "t": 121973.73299999966,
      "d": 394.7369999999937,
      "v": 60
    },
    {
      "midi": 56,
      "hit": false,
      "t": 122368.46999999961,
      "d": 394.7369999999937,
      "v": 60
    },
    {
      "midi": 60,
      "hit": false,
      "t": 122368.46999999961,
      "d": 394.7369999999937,
      "v": 60
    },
    {
      "midi": 44,
      "hit": false,
      "t": 122368.46999999965,
      "d": 394.7369999999937,
      "v": 60
    },
    {
      "midi": 51,
      "hit": false,
      "t": 122368.46999999965,
      "d": 394.7369999999937,
      "v": 60
    },
    {
      "midi": 56,
      "hit": false,
      "t": 122763.2069999996,
      "d": 394.7369999999937,
      "v": 60
    },
    {
      "midi": 60,
      "hit": false,
      "t": 122763.2069999996,
      "d": 394.7369999999937,
      "v": 60
    },
    {
      "midi": 44,
      "hit": false,
      "t": 122763.20699999965,
      "d": 394.7369999999937,
      "v": 60
    },
    {
      "midi": 51,
      "hit": false,
      "t": 122763.20699999965,
      "d": 394.7369999999937,
      "v": 60
    },
    {
      "midi": 57,
      "hit": false,
      "t": 123157.9439999996,
      "d": 789.4740000000456,
      "v": 60
    },
    {
      "midi": 44,
      "hit": false,
      "t": 123157.94399999964,
      "d": 394.7369999999937,
      "v": 60
    },
    {
      "midi": 54,
      "hit": false,
      "t": 123157.94399999964,
      "d": 394.7369999999937,
      "v": 60
    },
    {
      "midi": 60,
      "hit": false,
      "t": 123256.6282499996,
      "d": 98.6842500000057,
      "v": 67
    },
    {
      "midi": 63,
      "hit": false,
      "t": 123355.3124999996,
      "d": 98.6842500000057,
      "v": 74
    },
    {
      "midi": 66,
      "hit": false,
      "t": 123453.99674999961,
      "d": 98.6842500000057,
      "v": 82
    },
    {
      "midi": 69,
      "hit": false,
      "t": 123552.68099999962,
      "d": 98.6842500000057,
      "v": 89
    },
    {
      "midi": 32,
      "hit": false,
      "t": 123552.68099999963,
      "d": 197.36849999999686,
      "v": 99
    },
    {
      "midi": 72,
      "hit": false,
      "t": 123651.36524999962,
      "d": 98.6842500000057,
      "v": 97
    },
    {
      "midi": 75,
      "hit": false,
      "t": 123750.04949999963,
      "d": 98.6842500000057,
      "v": 100
    },
    {
      "midi": 78,
      "hit": false,
      "t": 123848.73374999964,
      "d": 98.6842500000057,
      "v": 100
    },
    {
      "midi": 81,
      "hit": false,
      "t": 123947.41799999964,
      "d": 197.36849999999686,
      "v": 100
    },
    {
      "midi": 60,
      "hit": false,
      "t": 124342.15499999964,
      "d": 789.474000000002,
      "v": 100
    },
    {
      "midi": 69,
      "hit": false,
      "t": 124342.15499999964,
      "d": 789.474000000002,
      "v": 100
    },
    {
      "midi": 44,
      "hit": false,
      "t": 124342.15499999964,
      "d": 789.474000000002,
      "v": 100
    },
    {
      "midi": 54,
      "hit": false,
      "t": 124342.15499999964,
      "d": 789.474000000002,
      "v": 100
    },
    {
      "midi": 61,
      "hit": false,
      "t": 125131.62899999964,
      "d": 394.7369999999937,
      "v": 86
    },
    {
      "midi": 68,
      "hit": false,
      "t": 125131.62899999964,
      "d": 394.7369999999937,
      "v": 86
    },
    {
      "midi": 44,
      "hit": false,
      "t": 125131.62899999964,
      "d": 394.7369999999937,
      "v": 86
    },
    {
      "midi": 52,
      "hit": false,
      "t": 125131.62899999964,
      "d": 394.7369999999937,
      "v": 86
    },
    {
      "midi": 32,
      "hit": false,
      "t": 125526.36599999963,
      "d": 197.36849999999686,
      "v": 90
    },
    {
      "midi": 56,
      "hit": false,
      "t": 125921.10299999962,
      "d": 789.474000000002,
      "v": 100
    },
    {
      "midi": 61,
      "hit": false,
      "t": 125921.10299999962,
      "d": 789.474000000002,
      "v": 100
    },
    {
      "midi": 44,
      "hit": false,
      "t": 125921.10299999962,
      "d": 789.474000000002,
      "v": 80
    },
    {
      "midi": 52,
      "hit": false,
      "t": 125921.10299999962,
      "d": 789.474000000002,
      "v": 80
    },
    {
      "midi": 56,
      "hit": false,
      "t": 126710.57699999963,
      "d": 394.7369999999937,
      "v": 80
    },
    {
      "midi": 61,
      "hit": false,
      "t": 126710.57699999963,
      "d": 394.7369999999937,
      "v": 80
    },
    {
      "midi": 44,
      "hit": false,
      "t": 126710.57699999963,
      "d": 394.7369999999937,
      "v": 80
    },
    {
      "midi": 52,
      "hit": false,
      "t": 126710.57699999963,
      "d": 394.7369999999937,
      "v": 80
    },
    {
      "midi": 56,
      "hit": false,
      "t": 127105.31399999962,
      "d": 394.7369999999937,
      "v": 80
    },
    {
      "midi": 61,
      "hit": false,
      "t": 127105.31399999962,
      "d": 394.7369999999937,
      "v": 80
    },
    {
      "midi": 44,
      "hit": false,
      "t": 127105.31399999962,
      "d": 394.7369999999937,
      "v": 80
    },
    {
      "midi": 52,
      "hit": false,
      "t": 127105.31399999962,
      "d": 394.7369999999937,
      "v": 80
    },
    {
      "midi": 56,
      "hit": false,
      "t": 127500.05099999961,
      "d": 394.7369999999937,
      "v": 80
    },
    {
      "midi": 61,
      "hit": false,
      "t": 127500.05099999961,
      "d": 394.7369999999937,
      "v": 80
    },
    {
      "midi": 44,
      "hit": false,
      "t": 127500.05099999961,
      "d": 394.7369999999937,
      "v": 80
    },
    {
      "midi": 52,
      "hit": false,
      "t": 127500.05099999961,
      "d": 394.7369999999937,
      "v": 80
    },
    {
      "midi": 58,
      "hit": false,
      "t": 127894.78799999961,
      "d": 789.4739999999874,
      "v": 80
    },
    {
      "midi": 44,
      "hit": false,
      "t": 127894.78799999961,
      "d": 394.7369999999937,
      "v": 80
    },
    {
      "midi": 52,
      "hit": false,
      "t": 127894.78799999961,
      "d": 394.7369999999937,
      "v": 80
    },
    {
      "midi": 61,
      "hit": false,
      "t": 128092.1564999996,
      "d": 65.78949999999895,
      "v": 94
    },
    {
      "midi": 64,
      "hit": false,
      "t": 128157.9459999996,
      "d": 65.78949999999895,
      "v": 99
    },
    {
      "midi": 67,
      "hit": false,
      "t": 128223.7354999996,
      "d": 65.78949999999895,
      "v": 104
    },
    {
      "midi": 70,
      "hit": false,
      "t": 128289.5249999996,
      "d": 65.78949999999895,
      "v": 109
    },
    {
      "midi": 32,
      "hit": false,
      "t": 128289.5249999996,
      "d": 197.36849999999686,
      "v": 119
    },
    {
      "midi": 73,
      "hit": false,
      "t": 128355.3144999996,
      "d": 65.78949999999895,
      "v": 114
    },
    {
      "midi": 76,
      "hit": false,
      "t": 128421.1039999996,
      "d": 65.78949999999895,
      "v": 119
    },
    {
      "midi": 79,
      "hit": false,
      "t": 128486.8934999996,
      "d": 65.78949999999895,
      "v": 120
    },
    {
      "midi": 82,
      "hit": false,
      "t": 128552.6829999996,
      "d": 65.78949999999895,
      "v": 120
    },
    {
      "midi": 85,
      "hit": false,
      "t": 128618.4724999996,
      "d": 65.78949999999895,
      "v": 120
    },
    {
      "midi": 88,
      "hit": false,
      "t": 128684.2619999996,
      "d": 197.36849999999686,
      "v": 120
    },
    {
      "midi": 58,
      "hit": false,
      "t": 129078.99899999959,
      "d": 789.474000000002,
      "v": 120
    },
    {
      "midi": 61,
      "hit": false,
      "t": 129078.99899999959,
      "d": 789.474000000002,
      "v": 120
    },
    {
      "midi": 67,
      "hit": false,
      "t": 129078.99899999959,
      "d": 789.474000000002,
      "v": 120
    },
    {
      "midi": 44,
      "hit": false,
      "t": 129078.9989999996,
      "d": 789.474000000002,
      "v": 120
    },
    {
      "midi": 52,
      "hit": false,
      "t": 129078.9989999996,
      "d": 789.474000000002,
      "v": 120
    },
    {
      "midi": 56,
      "hit": false,
      "t": 129868.47299999959,
      "d": 394.7369999999937,
      "v": 91
    },
    {
      "midi": 60,
      "hit": false,
      "t": 129868.47299999959,
      "d": 394.7369999999937,
      "v": 91
    },
    {
      "midi": 68,
      "hit": false,
      "t": 129868.47299999959,
      "d": 394.7369999999937,
      "v": 91
    },
    {
      "midi": 44,
      "hit": false,
      "t": 129868.4729999996,
      "d": 394.7369999999937,
      "v": 91
    },
    {
      "midi": 51,
      "hit": false,
      "t": 129868.4729999996,
      "d": 394.7369999999937,
      "v": 91
    },
    {
      "midi": 58,
      "hit": false,
      "t": 130263.20999999958,
      "d": 789.4739999999874,
      "v": 80
    },
    {
      "midi": 44,
      "hit": false,
      "t": 130263.2099999996,
      "d": 394.7369999999937,
      "v": 80
    },
    {
      "midi": 52,
      "hit": false,
      "t": 130263.2099999996,
      "d": 394.7369999999937,
      "v": 80
    },
    {
      "midi": 61,
      "hit": false,
      "t": 130460.57849999958,
      "d": 65.78949999999895,
      "v": 94
    },
    {
      "midi": 64,
      "hit": false,
      "t": 130526.36799999958,
      "d": 65.78949999999895,
      "v": 99
    },
    {
      "midi": 67,
      "hit": false,
      "t": 130592.15749999958,
      "d": 65.78949999999895,
      "v": 104
    },
    {
      "midi": 70,
      "hit": false,
      "t": 130657.94699999958,
      "d": 65.78949999999895,
      "v": 109
    },
    {
      "midi": 32,
      "hit": false,
      "t": 130657.94699999959,
      "d": 197.36849999999686,
      "v": 119
    },
    {
      "midi": 73,
      "hit": false,
      "t": 130723.73649999958,
      "d": 65.78949999999895,
      "v": 114
    },
    {
      "midi": 76,
      "hit": false,
      "t": 130789.52599999958,
      "d": 65.78949999999895,
      "v": 119
    },
    {
      "midi": 79,
      "hit": false,
      "t": 130855.31549999957,
      "d": 65.78949999999895,
      "v": 120
    },
    {
      "midi": 82,
      "hit": false,
      "t": 130921.10499999957,
      "d": 65.78949999999895,
      "v": 120
    },
    {
      "midi": 85,
      "hit": false,
      "t": 130986.89449999957,
      "d": 65.78949999999895,
      "v": 120
    },
    {
      "midi": 88,
      "hit": false,
      "t": 131052.68399999957,
      "d": 197.3685000000114,
      "v": 120
    },
    {
      "midi": 58,
      "hit": false,
      "t": 131447.4209999996,
      "d": 789.4739999999874,
      "v": 120
    },
    {
      "midi": 61,
      "hit": false,
      "t": 131447.4209999996,
      "d": 789.4739999999874,
      "v": 120
    },
    {
      "midi": 67,
      "hit": false,
      "t": 131447.4209999996,
      "d": 789.4739999999874,
      "v": 120
    },
    {
      "midi": 44,
      "hit": false,
      "t": 131447.4209999996,
      "d": 789.4739999999874,
      "v": 120
    },
    {
      "midi": 52,
      "hit": false,
      "t": 131447.4209999996,
      "d": 789.4739999999874,
      "v": 120
    },
    {
      "midi": 56,
      "hit": false,
      "t": 132236.89499999958,
      "d": 394.7369999999937,
      "v": 113
    },
    {
      "midi": 60,
      "hit": false,
      "t": 132236.89499999958,
      "d": 394.7369999999937,
      "v": 113
    },
    {
      "midi": 68,
      "hit": false,
      "t": 132236.89499999958,
      "d": 394.7369999999937,
      "v": 113
    },
    {
      "midi": 44,
      "hit": false,
      "t": 132236.89499999958,
      "d": 394.7369999999937,
      "v": 113
    },
    {
      "midi": 51,
      "hit": false,
      "t": 132236.89499999958,
      "d": 394.7369999999937,
      "v": 113
    },
    {
      "midi": 75,
      "hit": false,
      "t": 132631.63199999958,
      "d": 2763.158999999985,
      "v": 120
    },
    {
      "midi": 27,
      "hit": false,
      "t": 132631.63199999958,
      "d": 394.7369999999937,
      "v": 120
    },
    {
      "midi": 39,
      "hit": false,
      "t": 132631.63199999958,
      "d": 394.7369999999937,
      "v": 120
    },
    {
      "midi": 61,
      "hit": false,
      "t": 133026.36899999957,
      "d": 98.68424999999115,
      "v": 110
    },
    {
      "midi": 67,
      "hit": false,
      "t": 133026.36899999957,
      "d": 98.68424999999115,
      "v": 110
    },
    {
      "midi": 51,
      "hit": false,
      "t": 133026.36899999957,
      "d": 98.68424999999115,
      "v": 110
    },
    {
      "midi": 58,
      "hit": false,
      "t": 133026.36899999957,
      "d": 98.68424999999115,
      "v": 110
    },
    {
      "midi": 61,
      "hit": false,
      "t": 133223.73749999955,
      "d": 98.68424999999115,
      "v": 110
    },
    {
      "midi": 67,
      "hit": false,
      "t": 133223.73749999955,
      "d": 98.68424999999115,
      "v": 110
    },
    {
      "midi": 51,
      "hit": false,
      "t": 133223.73749999955,
      "d": 98.68424999999115,
      "v": 110
    },
    {
      "midi": 58,
      "hit": false,
      "t": 133223.73749999955,
      "d": 98.68424999999115,
      "v": 110
    },
    {
      "midi": 61,
      "hit": false,
      "t": 133421.10599999953,
      "d": 197.3685000000114,
      "v": 110
    },
    {
      "midi": 67,
      "hit": false,
      "t": 133421.10599999953,
      "d": 197.3685000000114,
      "v": 110
    },
    {
      "midi": 51,
      "hit": false,
      "t": 133421.10599999953,
      "d": 197.3685000000114,
      "v": 110
    },
    {
      "midi": 58,
      "hit": false,
      "t": 133421.10599999953,
      "d": 197.3685000000114,
      "v": 110
    },
    {
      "midi": 61,
      "hit": false,
      "t": 133815.84299999956,
      "d": 394.7369999999937,
      "v": 110
    },
    {
      "midi": 67,
      "hit": false,
      "t": 133815.84299999956,
      "d": 394.7369999999937,
      "v": 110
    },
    {
      "midi": 51,
      "hit": false,
      "t": 133815.84299999956,
      "d": 394.7369999999937,
      "v": 110
    },
    {
      "midi": 58,
      "hit": false,
      "t": 133815.84299999956,
      "d": 394.7369999999937,
      "v": 110
    },
    {
      "midi": 61,
      "hit": false,
      "t": 134210.57999999955,
      "d": 394.7369999999937,
      "v": 110
    },
    {
      "midi": 67,
      "hit": false,
      "t": 134210.57999999955,
      "d": 394.7369999999937,
      "v": 110
    },
    {
      "midi": 72,
      "hit": false,
      "t": 134210.57999999955,
      "d": 394.7369999999937,
      "v": 110
    },
    {
      "midi": 51,
      "hit": false,
      "t": 134210.57999999955,
      "d": 394.7369999999937,
      "v": 110
    },
    {
      "midi": 58,
      "hit": false,
      "t": 134210.57999999955,
      "d": 394.7369999999937,
      "v": 110
    },
    {
      "midi": 61,
      "hit": false,
      "t": 134605.31699999954,
      "d": 394.7369999999937,
      "v": 110
    },
    {
      "midi": 67,
      "hit": false,
      "t": 134605.31699999954,
      "d": 394.7369999999937,
      "v": 110
    },
    {
      "midi": 70,
      "hit": false,
      "t": 134605.31699999954,
      "d": 394.7369999999937,
      "v": 110
    },
    {
      "midi": 51,
      "hit": false,
      "t": 134605.31699999954,
      "d": 394.7369999999937,
      "v": 110
    },
    {
      "midi": 58,
      "hit": false,
      "t": 134605.31699999954,
      "d": 394.7369999999937,
      "v": 110
    },
    {
      "midi": 60,
      "hit": false,
      "t": 135000.05399999954,
      "d": 197.3685000000114,
      "v": 110
    },
    {
      "midi": 68,
      "hit": false,
      "t": 135000.05399999954,
      "d": 197.3685000000114,
      "v": 110
    },
    {
      "midi": 44,
      "hit": false,
      "t": 135000.05399999954,
      "d": 197.3685000000114,
      "v": 110
    },
    {
      "midi": 51,
      "hit": false,
      "t": 135000.05399999954,
      "d": 197.3685000000114,
      "v": 110
    },
    {
      "midi": 75,
      "hit": false,
      "t": 135394.79099999956,
      "d": 789.4739999999874,
      "v": 112
    },
    {
      "midi": 75,
      "hit": false,
      "t": 136184.26499999955,
      "d": 789.4739999999874,
      "v": 95
    },
    {
      "midi": 75,
      "hit": false,
      "t": 136973.73899999954,
      "d": 394.7369999999937,
      "v": 78
    },
    {
      "midi": 75,
      "hit": false,
      "t": 137368.47599999953,
      "d": 789.4739999999874,
      "v": 60
    },
    {
      "midi": 35,
      "hit": false,
      "t": 137368.47599999956,
      "d": 394.7369999999937,
      "v": 60
    },
    {
      "midi": 59,
      "hit": false,
      "t": 137763.21299999967,
      "d": 789.4739999999874,
      "v": 60
    },
    {
      "midi": 81,
      "hit": false,
      "t": 138157.94999999952,
      "d": 789.4739999999874,
      "v": 60
    },
    {
      "midi": 63,
      "hit": false,
      "t": 138157.94999999966,
      "d": 789.4739999999874,
      "v": 70
    },
    {
      "midi": 69,
      "hit": false,
      "t": 138157.94999999966,
      "d": 789.4739999999874,
      "v": 70
    },
    {
      "midi": 59,
      "hit": false,
      "t": 138552.68699999966,
      "d": 789.4739999999874,
      "v": 60
    },
    {
      "midi": 80,
      "hit": false,
      "t": 138947.4239999995,
      "d": 394.7369999999937,
      "v": 60
    },
    {
      "midi": 63,
      "hit": false,
      "t": 138947.42399999965,
      "d": 789.4739999999874,
      "v": 70
    },
    {
      "midi": 69,
      "hit": false,
      "t": 138947.42399999965,
      "d": 789.4739999999874,
      "v": 70
    },
    {
      "midi": 81,
      "hit": false,
      "t": 139342.1609999995,
      "d": 197.3685000000114,
      "v": 60
    },
    {
      "midi": 59,
      "hit": false,
      "t": 139342.16099999964,
      "d": 789.4739999999874,
      "v": 60
    },
    {
      "midi": 80,
      "hit": false,
      "t": 139539.5294999995,
      "d": 197.3685000000114,
      "v": 60
    },
    {
      "midi": 78,
      "hit": false,
      "t": 139736.89799999952,
      "d": 789.4739999999874,
      "v": 60
    },
    {
      "midi": 66,
      "hit": false,
      "t": 139736.89799999964,
      "d": 1578.9479999999749,
      "v": 70
    },
    {
      "midi": 69,
      "hit": false,
      "t": 139736.89799999964,
      "d": 1578.9479999999749,
      "v": 70
    },
    {
      "midi": 59,
      "hit": false,
      "t": 140131.63499999963,
      "d": 394.7369999999937,
      "v": 60
    },
    {
      "midi": 75,
      "hit": false,
      "t": 140526.3719999995,
      "d": 789.4739999999874,
      "v": 60
    },
    {
      "midi": 59,
      "hit": false,
      "t": 140526.37199999962,
      "d": 394.7369999999937,
      "v": 60
    },
    {
      "midi": 59,
      "hit": false,
      "t": 140921.10899999962,
      "d": 789.4739999999874,
      "v": 60
    },
    {
      "midi": 73,
      "hit": false,
      "t": 141315.8459999995,
      "d": 394.7369999999937,
      "v": 60
    },
    {
      "midi": 64,
      "hit": false,
      "t": 141315.8459999996,
      "d": 789.4739999999874,
      "v": 70
    },
    {
      "midi": 69,
      "hit": false,
      "t": 141315.8459999996,
      "d": 789.4739999999874,
      "v": 70
    },
    {
      "midi": 75,
      "hit": false,
      "t": 141710.5829999995,
      "d": 197.3685000000114,
      "v": 60
    },
    {
      "midi": 59,
      "hit": false,
      "t": 141710.5829999996,
      "d": 789.4739999999874,
      "v": 60
    },
    {
      "midi": 73,
      "hit": false,
      "t": 141907.9514999995,
      "d": 197.3685000000114,
      "v": 60
    },
    {
      "midi": 71,
      "hit": false,
      "t": 142105.3199999995,
      "d": 789.4739999999874,
      "v": 60
    },
    {
      "midi": 63,
      "hit": false,
      "t": 142105.3199999996,
      "d": 1578.9479999999749,
      "v": 70
    },
    {
      "midi": 69,
      "hit": false,
      "t": 142105.3199999996,
      "d": 1578.9479999999749,
      "v": 70
    },
    {
      "midi": 59,
      "hit": false,
      "t": 142500.0569999996,
      "d": 394.7369999999937,
      "v": 60
    },
    {
      "midi": 81,
      "hit": false,
      "t": 142894.7939999995,
      "d": 789.4739999999874,
      "v": 60
    },
    {
      "midi": 59,
      "hit": false,
      "t": 142894.7939999996,
      "d": 394.7369999999937,
      "v": 60
    },
    {
      "midi": 59,
      "hit": false,
      "t": 143289.53099999958,
      "d": 789.4739999999874,
      "v": 60
    },
    {
      "midi": 80,
      "hit": false,
      "t": 143684.2679999995,
      "d": 394.7369999999937,
      "v": 60
    },
    {
      "midi": 64,
      "hit": false,
      "t": 143684.26799999957,
      "d": 789.4739999999874,
      "v": 70
    },
    {
      "midi": 69,
      "hit": false,
      "t": 143684.26799999957,
      "d": 789.4739999999874,
      "v": 70
    },
    {
      "midi": 81,
      "hit": false,
      "t": 144079.00499999948,
      "d": 197.3685000000114,
      "v": 60
    },
    {
      "midi": 59,
      "hit": false,
      "t": 144079.00499999957,
      "d": 789.4739999999874,
      "v": 60
    },
    {
      "midi": 80,
      "hit": false,
      "t": 144276.3734999995,
      "d": 197.3685000000114,
      "v": 60
    },
    {
      "midi": 78,
      "hit": false,
      "t": 144473.7419999995,
      "d": 789.4739999999874,
      "v": 60
    },
    {
      "midi": 66,
      "hit": false,
      "t": 144473.74199999956,
      "d": 1578.9479999999749,
      "v": 70
    },
    {
      "midi": 69,
      "hit": false,
      "t": 144473.74199999956,
      "d": 1578.9479999999749,
      "v": 70
    },
    {
      "midi": 59,
      "hit": false,
      "t": 144868.47899999956,
      "d": 394.7369999999937,
      "v": 60
    },
    {
      "midi": 75,
      "hit": false,
      "t": 145263.2159999995,
      "d": 789.4739999999874,
      "v": 60
    },
    {
      "midi": 59,
      "hit": false,
      "t": 145263.21599999955,
      "d": 394.7369999999937,
      "v": 60
    },
    {
      "midi": 59,
      "hit": false,
      "t": 145657.95299999954,
      "d": 789.4739999999874,
      "v": 60
    },
    {
      "midi": 73,
      "hit": false,
      "t": 146052.68999999948,
      "d": 118.42109999997774,
      "v": 60
    },
    {
      "midi": 64,
      "hit": false,
      "t": 146052.68999999954,
      "d": 789.4739999999874,
      "v": 70
    },
    {
      "midi": 69,
      "hit": false,
      "t": 146052.68999999954,
      "d": 789.4739999999874,
      "v": 70
    },
    {
      "midi": 75,
      "hit": false,
      "t": 146151.37424999947,
      "d": 118.42109999997774,
      "v": 60
    },
    {
      "midi": 73,
      "hit": false,
      "t": 146269.79534999945,
      "d": 118.42110000000685,
      "v": 60
    },
    {
      "midi": 72,
      "hit": false,
      "t": 146381.63749999946,
      "d": 118.42109999997774,
      "v": 60
    },
    {
      "midi": 59,
      "hit": false,
      "t": 146447.42699999953,
      "d": 789.4739999999874,
      "v": 60
    },
    {
      "midi": 73,
      "hit": false,
      "t": 146493.47964999944,
      "d": 118.42110000000685,
      "v": 60
    },
    {
      "midi": 75,
      "hit": false,
      "t": 146611.90074999945,
      "d": 118.42110000000685,
      "v": 60
    },
    {
      "midi": 76,
      "hit": false,
      "t": 146723.74289999946,
      "d": 118.42110000000685,
      "v": 60
    },
    {
      "midi": 71,
      "hit": false,
      "t": 146842.16399999947,
      "d": 789.4739999999874,
      "v": 60
    },
    {
      "midi": 63,
      "hit": false,
      "t": 146842.16399999952,
      "d": 1578.9479999999749,
      "v": 70
    },
    {
      "midi": 69,
      "hit": false,
      "t": 146842.16399999952,
      "d": 1578.9479999999749,
      "v": 70
    },
    {
      "midi": 59,
      "hit": false,
      "t": 147236.90099999952,
      "d": 394.7369999999937,
      "v": 59
    },
    {
      "midi": 59,
      "hit": false,
      "t": 147631.6379999995,
      "d": 394.7369999999937,
      "v": 57
    },
    {
      "midi": 57,
      "hit": false,
      "t": 147631.63800000004,
      "d": 789.4739999999874,
      "v": 67
    },
    {
      "midi": 59,
      "hit": false,
      "t": 148026.3749999995,
      "d": 789.4739999999874,
      "v": 55
    },
    {
      "midi": 64,
      "hit": false,
      "t": 148421.1119999995,
      "d": 789.4739999999874,
      "v": 63
    },
    {
      "midi": 69,
      "hit": false,
      "t": 148421.1119999995,
      "d": 789.4739999999874,
      "v": 63
    },
    {
      "midi": 56,
      "hit": false,
      "t": 148421.11200000002,
      "d": 394.7369999999937,
      "v": 63
    },
    {
      "midi": 59,
      "hit": false,
      "t": 148815.8489999995,
      "d": 789.4739999999874,
      "v": 52
    },
    {
      "midi": 57,
      "hit": false,
      "t": 148815.84900000002,
      "d": 197.3685000000114,
      "v": 62
    },
    {
      "midi": 56,
      "hit": false,
      "t": 149013.21750000003,
      "d": 197.3685000000114,
      "v": 61
    },
    {
      "midi": 66,
      "hit": false,
      "t": 149210.5859999995,
      "d": 1578.9479999999749,
      "v": 60
    },
    {
      "midi": 69,
      "hit": false,
      "t": 149210.5859999995,
      "d": 1578.9479999999749,
      "v": 60
    },
    {
      "midi": 54,
      "hit": false,
      "t": 149210.58600000004,
      "d": 789.4739999999874,
      "v": 60
    },
    {
      "midi": 59,
      "hit": false,
      "t": 149605.32299999948,
      "d": 394.7369999999937,
      "v": 48
    },
    {
      "midi": 59,
      "hit": false,
      "t": 150000.05999999947,
      "d": 394.7369999999937,
      "v": 46
    },
    {
      "midi": 51,
      "hit": false,
      "t": 150000.06000000003,
      "d": 789.4739999999874,
      "v": 56
    },
    {
      "midi": 59,
      "hit": false,
      "t": 150394.79699999947,
      "d": 789.4739999999874,
      "v": 45
    },
    {
      "midi": 64,
      "hit": false,
      "t": 150789.53399999946,
      "d": 789.4739999999874,
      "v": 53
    },
    {
      "midi": 69,
      "hit": false,
      "t": 150789.53399999946,
      "d": 789.4739999999874,
      "v": 53
    },
    {
      "midi": 49,
      "hit": false,
      "t": 150789.534,
      "d": 394.7369999999937,
      "v": 53
    },
    {
      "midi": 59,
      "hit": false,
      "t": 151184.27099999945,
      "d": 394.7369999999937,
      "v": 41
    },
    {
      "midi": 51,
      "hit": false,
      "t": 151184.271,
      "d": 197.3685000000114,
      "v": 51
    },
    {
      "midi": 49,
      "hit": false,
      "t": 151381.63950000002,
      "d": 197.3685000000114,
      "v": 50
    },
    {
      "midi": 63,
      "hit": false,
      "t": 151579.00799999945,
      "d": 394.7369999999937,
      "v": 40
    },
    {
      "midi": 69,
      "hit": false,
      "t": 151579.00799999945,
      "d": 2368.4219999999623,
      "v": 50
    },
    {
      "midi": 47,
      "hit": false,
      "t": 151579.00800000003,
      "d": 2368.4219999999914,
      "v": 50
    },
    {
      "midi": 66,
      "hit": false,
      "t": 151973.74499999944,
      "d": 394.7369999999937,
      "v": 45
    },
    {
      "midi": 63,
      "hit": false,
      "t": 152368.48199999944,
      "d": 394.7369999999937,
      "v": 50
    },
    {
      "midi": 66,
      "hit": false,
      "t": 152763.21899999943,
      "d": 394.7369999999937,
      "v": 56
    },
    {
      "midi": 63,
      "hit": false,
      "t": 153157.95599999942,
      "d": 394.7369999999937,
      "v": 61
    },
    {
      "midi": 66,
      "hit": false,
      "t": 153552.69299999942,
      "d": 394.7369999999937,
      "v": 67
    },
    {
      "midi": 63,
      "hit": false,
      "t": 153947.4299999994,
      "d": 394.7369999999937,
      "v": 72
    },
    {
      "midi": 69,
      "hit": false,
      "t": 153947.4299999994,
      "d": 1578.9479999999749,
      "v": 82
    },
    {
      "midi": 47,
      "hit": false,
      "t": 153947.43000000002,
      "d": 131.5789999999979,
      "v": 82
    },
    {
      "midi": 48,
      "hit": false,
      "t": 154079.00900000002,
      "d": 131.5789999999979,
      "v": 84
    },
    {
      "midi": 49,
      "hit": false,
      "t": 154210.58800000002,
      "d": 131.5789999999979,
      "v": 86
    },
    {
      "midi": 66,
      "hit": false,
      "t": 154342.1669999994,
      "d": 394.7369999999937,
      "v": 78
    },
    {
      "midi": 48,
      "hit": false,
      "t": 154342.16700000002,
      "d": 98.68424999999115,
      "v": 88
    },
    {
      "midi": 49,
      "hit": false,
      "t": 154440.85125,
      "d": 98.68424999999115,
      "v": 89
    },
    {
      "midi": 48,
      "hit": false,
      "t": 154539.5355,
      "d": 98.68424999999115,
      "v": 90
    },
    {
      "midi": 49,
      "hit": false,
      "t": 154638.21975,
      "d": 98.68424999999115,
      "v": 92
    },
    {
      "midi": 63,
      "hit": false,
      "t": 154736.9039999994,
      "d": 394.7369999999937,
      "v": 83
    },
    {
      "midi": 48,
      "hit": false,
      "t": 154736.90399999998,
      "d": 98.68424999999115,
      "v": 93
    },
    {
      "midi": 49,
      "hit": false,
      "t": 154835.58824999997,
      "d": 98.68424999999115,
      "v": 94
    },
    {
      "midi": 48,
      "hit": false,
      "t": 154934.27249999996,
      "d": 98.68424999999115,
      "v": 96
    },
    {
      "midi": 49,
      "hit": false,
      "t": 155032.95674999995,
      "d": 98.68424999999115,
      "v": 97
    },
    {
      "midi": 66,
      "hit": false,
      "t": 155131.6409999994,
      "d": 394.7369999999937,
      "v": 89
    },
    {
      "midi": 48,
      "hit": false,
      "t": 155131.64099999995,
      "d": 98.68424999999115,
      "v": 99
    },
    {
      "midi": 49,
      "hit": false,
      "t": 155230.32524999994,
      "d": 98.68424999999115,
      "v": 100
    },
    {
      "midi": 48,
      "hit": false,
      "t": 155329.00949999993,
      "d": 98.68424999999115,
      "v": 101
    },
    {
      "midi": 49,
      "hit": false,
      "t": 155427.69374999992,
      "d": 98.68424999999115,
      "v": 103
    },
    {
      "midi": 63,
      "hit": false,
      "t": 155526.3779999994,
      "d": 394.7369999999937,
      "v": 94
    },
    {
      "midi": 68,
      "hit": false,
      "t": 155526.3779999994,
      "d": 789.4739999999874,
      "v": 94
    },
    {
      "midi": 48,
      "hit": false,
      "t": 155526.3779999999,
      "d": 98.68424999999115,
      "v": 104
    },
    {
      "midi": 49,
      "hit": false,
      "t": 155625.0622499999,
      "d": 98.68424999999115,
      "v": 105
    },
    {
      "midi": 48,
      "hit": false,
      "t": 155723.7464999999,
      "d": 98.68424999999115,
      "v": 107
    },
    {
      "midi": 49,
      "hit": false,
      "t": 155822.43074999988,
      "d": 98.68424999999115,
      "v": 108
    },
    {
      "midi": 66,
      "hit": false,
      "t": 155921.11499999938,
      "d": 394.7369999999937,
      "v": 99
    },
    {
      "midi": 48,
      "hit": false,
      "t": 155921.11499999987,
      "d": 131.5789999999979,
      "v": 109
    },
    {
      "midi": 46,
      "hit": false,
      "t": 156052.69399999987,
      "d": 131.5789999999979,
      "v": 110
    },
    {
      "midi": 48,
      "hit": false,
      "t": 156184.27299999987,
      "d": 131.5789999999979,
      "v": 110
    },
    {
      "midi": 64,
      "hit": false,
      "t": 156315.85199999937,
      "d": 789.4739999999874,
      "v": 110
    },
    {
      "midi": 49,
      "hit": false,
      "t": 156315.85199999987,
      "d": 394.7369999999937,
      "v": 110
    },
    {
      "midi": 68,
      "hit": false,
      "t": 156710.58899999937,
      "d": 394.7369999999937,
      "v": 100
    },
    {
      "midi": 60,
      "hit": false,
      "t": 157105.32599999936,
      "d": 789.4739999999874,
      "v": 111
    },
    {
      "midi": 75,
      "hit": false,
      "t": 157105.32599999945,
      "d": 394.7369999999937,
      "v": 101
    },
    {
      "midi": 66,
      "hit": false,
      "t": 157500.06299999935,
      "d": 394.7369999999937,
      "v": 102
    },
    {
      "midi": 68,
      "hit": false,
      "t": 157500.06299999935,
      "d": 394.7369999999937,
      "v": 102
    },
    {
      "midi": 73,
      "hit": false,
      "t": 157500.06299999944,
      "d": 197.3685000000114,
      "v": 102
    },
    {
      "midi": 75,
      "hit": false,
      "t": 157697.43149999945,
      "d": 197.3685000000114,
      "v": 103
    },
    {
      "midi": 61,
      "hit": false,
      "t": 157894.79999999935,
      "d": 789.4739999999874,
      "v": 113
    },
    {
      "midi": 76,
      "hit": false,
      "t": 157894.79999999946,
      "d": 394.7369999999937,
      "v": 103
    },
    {
      "midi": 64,
      "hit": false,
      "t": 158289.53699999934,
      "d": 394.7369999999937,
      "v": 104
    },
    {
      "midi": 68,
      "hit": false,
      "t": 158289.53699999934,
      "d": 394.7369999999937,
      "v": 104
    },
    {
      "midi": 75,
      "hit": false,
      "t": 158289.53699999946,
      "d": 197.3685000000114,
      "v": 104
    },
    {
      "midi": 76,
      "hit": false,
      "t": 158486.90549999947,
      "d": 197.3685000000114,
      "v": 105
    },
    {
      "midi": 78,
      "hit": false,
      "t": 158684.27399999948,
      "d": 394.7369999999937,
      "v": 105
    },
    {
      "midi": 57,
      "hit": false,
      "t": 158684.27399999957,
      "d": 789.4739999999874,
      "v": 115
    },
    {
      "midi": 76,
      "hit": false,
      "t": 159079.01099999947,
      "d": 197.3685000000114,
      "v": 106
    },
    {
      "midi": 61,
      "hit": false,
      "t": 159079.01099999956,
      "d": 394.7369999999937,
      "v": 106
    },
    {
      "midi": 66,
      "hit": false,
      "t": 159079.01099999956,
      "d": 394.7369999999937,
      "v": 106
    },
    {
      "midi": 78,
      "hit": false,
      "t": 159276.3794999995,
      "d": 197.3685000000114,
      "v": 106
    },
    {
      "midi": 80,
      "hit": false,
      "t": 159473.7479999995,
      "d": 394.7369999999937,
      "v": 107
    },
    {
      "midi": 56,
      "hit": false,
      "t": 159473.74799999956,
      "d": 789.4739999999874,
      "v": 117
    },
    {
      "midi": 78,
      "hit": false,
      "t": 159868.4849999995,
      "d": 197.3685000000114,
      "v": 108
    },
    {
      "midi": 61,
      "hit": false,
      "t": 159868.48499999955,
      "d": 394.7369999999937,
      "v": 108
    },
    {
      "midi": 64,
      "hit": false,
      "t": 159868.48499999955,
      "d": 394.7369999999937,
      "v": 108
    },
    {
      "midi": 80,
      "hit": false,
      "t": 160065.8534999995,
      "d": 197.3685000000114,
      "v": 108
    },
    {
      "midi": 81,
      "hit": false,
      "t": 160263.2219999995,
      "d": 394.7369999999937,
      "v": 109
    },
    {
      "midi": 54,
      "hit": false,
      "t": 160263.22199999954,
      "d": 789.4739999999874,
      "v": 119
    },
    {
      "midi": 69,
      "hit": false,
      "t": 160657.9589999995,
      "d": 394.7369999999937,
      "v": 110
    },
    {
      "midi": 61,
      "hit": false,
      "t": 160657.95899999954,
      "d": 394.7369999999937,
      "v": 110
    },
    {
      "midi": 63,
      "hit": false,
      "t": 160657.95899999954,
      "d": 394.7369999999937,
      "v": 110
    },
    {
      "midi": 68,
      "hit": false,
      "t": 161052.6959999995,
      "d": 1052.6320000000123,
      "v": 110
    },
    {
      "midi": 44,
      "hit": false,
      "t": 161052.69599999953,
      "d": 394.7369999999937,
      "v": 110
    },
    {
      "midi": 51,
      "hit": false,
      "t": 161447.43299999952,
      "d": 1184.2109999999811,
      "v": 120
    },
    {
      "midi": 60,
      "hit": false,
      "t": 161842.16999999952,
      "d": 394.7369999999937,
      "v": 110
    },
    {
      "midi": 70,
      "hit": false,
      "t": 162105.3279999995,
      "d": 131.5789999999979,
      "v": 110
    },
    {
      "midi": 56,
      "hit": false,
      "t": 162236.9069999995,
      "d": 789.4739999999874,
      "v": 120
    },
    {
      "midi": 72,
      "hit": false,
      "t": 162368.4859999995,
      "d": 131.5789999999979,
      "v": 110
    },
    {
      "midi": 73,
      "hit": false,
      "t": 162631.6439999995,
      "d": 131.5789999999979,
      "v": 110
    },
    {
      "midi": 52,
      "hit": false,
      "t": 162631.6439999995,
      "d": 394.7369999999937,
      "v": 110
    },
    {
      "midi": 61,
      "hit": false,
      "t": 162631.6439999995,
      "d": 394.7369999999937,
      "v": 110
    },
    {
      "midi": 75,
      "hit": false,
      "t": 162894.8019999995,
      "d": 131.5789999999979,
      "v": 110
    },
    {
      "midi": 55,
      "hit": false,
      "t": 163026.3809999995,
      "d": 394.7369999999937,
      "v": 120
    },
    {
      "midi": 76,
      "hit": false,
      "t": 163157.9599999995,
      "d": 131.5789999999979,
      "v": 110
    },
    {
      "midi": 75,
      "hit": false,
      "t": 163421.1179999995,
      "d": 2368.4219999999914,
      "v": 110
    },
    {
      "midi": 44,
      "hit": false,
      "t": 163421.1179999995,
      "d": 394.7369999999937,
      "v": 110
    },
    {
      "midi": 51,
      "hit": false,
      "t": 163815.8549999995,
      "d": 394.7369999999937,
      "v": 110
    },
    {
      "midi": 60,
      "hit": false,
      "t": 164210.59199999948,
      "d": 394.7369999999937,
      "v": 110
    },
    {
      "midi": 56,
      "hit": false,
      "t": 164605.32899999947,
      "d": 394.7369999999937,
      "v": 110
    },
    {
      "midi": 68,
      "hit": false,
      "t": 165000.06599999947,
      "d": 394.7369999999937,
      "v": 110
    },
    {
      "midi": 32,
      "hit": false,
      "t": 165789.53999999946,
      "d": 197.3685000000114,
      "v": 60
    },
    {
      "midi": 44,
      "hit": false,
      "t": 165789.53999999946,
      "d": 197.3685000000114,
      "v": 60
    },
    {
      "midi": 75,
      "hit": false,
      "t": 165789.53999999948,
      "d": 263.1579999999958,
      "v": 60
    },
    {
      "midi": 75,
      "hit": false,
      "t": 166052.69799999948,
      "d": 263.1579999999958,
      "v": 60
    },
    {
      "midi": 56,
      "hit": false,
      "t": 166184.27699999948,
      "d": 789.4739999999874,
      "v": 70
    },
    {
      "midi": 75,
      "hit": false,
      "t": 166315.85599999948,
      "d": 263.1579999999958,
      "v": 60
    },
    {
      "midi": 75,
      "hit": false,
      "t": 166579.01399999947,
      "d": 394.7369999999937,
      "v": 60
    },
    {
      "midi": 60,
      "hit": false,
      "t": 166579.01399999947,
      "d": 394.7369999999937,
      "v": 60
    },
    {
      "midi": 66,
      "hit": false,
      "t": 166579.01399999947,
      "d": 394.7369999999937,
      "v": 60
    },
    {
      "midi": 73,
      "hit": false,
      "t": 166973.75099999947,
      "d": 197.3685000000114,
      "v": 60
    },
    {
      "midi": 56,
      "hit": false,
      "t": 166973.75099999947,
      "d": 789.4740000000165,
      "v": 70
    },
    {
      "midi": 75,
      "hit": false,
      "t": 167171.11949999948,
      "d": 197.3685000000114,
      "v": 60
    },
    {
      "midi": 49,
      "hit": false,
      "t": 167368.48799999946,
      "d": 394.7370000000228,
      "v": 60
    },
    {
      "midi": 77,
      "hit": false,
      "t": 167368.4879999995,
      "d": 394.7369999999937,
      "v": 60
    },
    {
      "midi": 59,
      "hit": false,
      "t": 167434.27749999947,
      "d": 328.9475000000093,
      "v": 60
    },
    {
      "midi": 65,
      "hit": false,
      "t": 167500.0669999995,
      "d": 263.1579999999958,
      "v": 60
    },
    {
      "midi": 75,
      "hit": false,
      "t": 167763.22499999948,
      "d": 197.3685000000114,
      "v": 60
    },
    {
      "midi": 61,
      "hit": false,
      "t": 167763.22499999948,
      "d": 394.7369999999937,
      "v": 60
    },
    {
      "midi": 77,
      "hit": false,
      "t": 167960.5934999995,
      "d": 197.3685000000114,
      "v": 60
    },
    {
      "midi": 66,
      "hit": false,
      "t": 168157.96199999948,
      "d": 394.7369999999937,
      "v": 60
    },
    {
      "midi": 54,
      "hit": false,
      "t": 168157.96199999948,
      "d": 789.4739999999874,
      "v": 70
    },
    {
      "midi": 57,
      "hit": false,
      "t": 168157.96199999948,
      "d": 789.4739999999874,
      "v": 70
    },
    {
      "midi": 78,
      "hit": false,
      "t": 168157.9619999995,
      "d": 394.7369999999937,
      "v": 60
    },
    {
      "midi": 61,
      "hit": false,
      "t": 168552.69899999947,
      "d": 394.7369999999937,
      "v": 60
    },
    {
      "midi": 77,
      "hit": false,
      "t": 168552.6989999995,
      "d": 197.3685000000114,
      "v": 60
    },
    {
      "midi": 78,
      "hit": false,
      "t": 168750.0674999995,
      "d": 197.3685000000114,
      "v": 60
    },
    {
      "midi": 68,
      "hit": false,
      "t": 168947.43599999946,
      "d": 394.7369999999937,
      "v": 60
    },
    {
      "midi": 53,
      "hit": false,
      "t": 168947.43599999946,
      "d": 789.4739999999874,
      "v": 70
    },
    {
      "midi": 59,
      "hit": false,
      "t": 168947.43599999946,
      "d": 789.4739999999874,
      "v": 70
    },
    {
      "midi": 80,
      "hit": false,
      "t": 168947.43599999952,
      "d": 394.7369999999937,
      "v": 60
    },
    {
      "midi": 61,
      "hit": false,
      "t": 169342.17299999946,
      "d": 394.7369999999937,
      "v": 60
    },
    {
      "midi": 78,
      "hit": false,
      "t": 169342.17299999952,
      "d": 197.3685000000114,
      "v": 60
    },
    {
      "midi": 80,
      "hit": false,
      "t": 169539.54149999953,
      "d": 197.3685000000114,
      "v": 60
    },
    {
      "midi": 54,
      "hit": false,
      "t": 169736.90999999945,
      "d": 789.4740000000165,
      "v": 70
    },
    {
      "midi": 81,
      "hit": false,
      "t": 169736.90999999954,
      "d": 394.7369999999937,
      "v": 60
    },
    {
      "midi": 57,
      "hit": false,
      "t": 169802.69949999946,
      "d": 723.684500000003,
      "v": 70
    },
    {
      "midi": 69,
      "hit": false,
      "t": 169868.48899999948,
      "d": 263.1579999999958,
      "v": 60
    },
    {
      "midi": 61,
      "hit": false,
      "t": 170131.64699999947,
      "d": 394.7369999999937,
      "v": 60
    },
    {
      "midi": 80,
      "hit": false,
      "t": 170131.64699999953,
      "d": 197.3685000000114,
      "v": 60
    },
    {
      "midi": 81,
      "hit": false,
      "t": 170329.01549999954,
      "d": 197.3685000000114,
      "v": 60
    },
    {
      "midi": 57,
      "hit": false,
      "t": 170526.38399999947,
      "d": 394.7369999999937,
      "v": 50
    },
    {
      "midi": 54,
      "hit": false,
      "t": 170526.38399999947,
      "d": 2368.4219999999623,
      "v": 40
    },
    {
      "midi": 83,
      "hit": false,
      "t": 170526.38399999955,
      "d": 263.1579999999958,
      "v": 40
    },
    {
      "midi": 81,
      "hit": false,
      "t": 170789.54199999955,
      "d": 263.1579999999958,
      "v": 42
    },
    {
      "midi": 61,
      "hit": false,
      "t": 170921.12099999946,
      "d": 394.7369999999937,
      "v": 53
    },
    {
      "midi": 78,
      "hit": false,
      "t": 171217.17374999955,
      "d": 52.63159999999334,
      "v": 46
    },
    {
      "midi": 79,
      "hit": false,
      "t": 171263.22639999955,
      "d": 52.63159999999334,
      "v": 46
    },
    {
      "midi": 62,
      "hit": false,
      "t": 171315.85799999945,
      "d": 394.7369999999937,
      "v": 57
    },
    {
      "midi": 78,
      "hit": false,
      "t": 171315.85799999954,
      "d": 263.1579999999958,
      "v": 47
    },
    {
      "midi": 76,
      "hit": false,
      "t": 171579.01599999954,
      "d": 263.1579999999958,
      "v": 49
    },
    {
      "midi": 64,
      "hit": false,
      "t": 171710.59499999945,
      "d": 394.7369999999937,
      "v": 60
    },
    {
      "midi": 78,
      "hit": false,
      "t": 172006.64774999954,
      "d": 98.68424999999115,
      "v": 53
    },
    {
      "midi": 66,
      "hit": false,
      "t": 172105.33199999944,
      "d": 789.4739999999874,
      "v": 64
    },
    {
      "midi": 69,
      "hit": false,
      "t": 172105.33199999953,
      "d": 394.7369999999937,
      "v": 54
    },
    {
      "midi": 74,
      "hit": false,
      "t": 172500.06899999952,
      "d": 394.7369999999937,
      "v": 57
    },
    {
      "midi": 64,
      "hit": false,
      "t": 172894.80599999943,
      "d": 263.1579999999958,
      "v": 60
    },
    {
      "midi": 56,
      "hit": false,
      "t": 172894.80599999943,
      "d": 1184.2109999999811,
      "v": 70
    },
    {
      "midi": 73,
      "hit": false,
      "t": 172894.80599999952,
      "d": 263.1579999999958,
      "v": 60
    },
    {
      "midi": 63,
      "hit": false,
      "t": 173157.96399999943,
      "d": 263.1579999999958,
      "v": 60
    },
    {
      "midi": 72,
      "hit": false,
      "t": 173157.9639999995,
      "d": 526.3159999999916,
      "v": 70
    },
    {
      "midi": 68,
      "hit": false,
      "t": 173421.12199999942,
      "d": 263.1579999999958,
      "v": 60
    },
    {
      "midi": 76,
      "hit": false,
      "t": 173421.1219999995,
      "d": 263.1579999999958,
      "v": 60
    },
    {
      "midi": 66,
      "hit": false,
      "t": 173684.27999999942,
      "d": 789.4739999999874,
      "v": 60
    },
    {
      "midi": 75,
      "hit": false,
      "t": 173684.2799999995,
      "d": 789.4739999999874,
      "v": 60
    },
    {
      "midi": 56,
      "hit": false,
      "t": 174079.0169999994,
      "d": 394.7369999999937,
      "v": 60
    },
    {
      "midi": 61,
      "hit": false,
      "t": 174473.7539999994,
      "d": 394.7369999999937,
      "v": 60
    },
    {
      "midi": 64,
      "hit": false,
      "t": 174473.7539999994,
      "d": 394.7369999999937,
      "v": 60
    },
    {
      "midi": 73,
      "hit": false,
      "t": 174473.7539999995,
      "d": 394.7369999999937,
      "v": 60
    },
    {
      "midi": 37,
      "hit": false,
      "t": 175263.2279999994,
      "d": 197.3685000000114,
      "v": 60
    },
    {
      "midi": 77,
      "hit": false,
      "t": 175263.22799999948,
      "d": 1578.9479999999749,
      "v": 70
    },
    {
      "midi": 49,
      "hit": false,
      "t": 175657.9649999994,
      "d": 394.7369999999937,
      "v": 60
    },
    {
      "midi": 56,
      "hit": false,
      "t": 175657.9649999994,
      "d": 394.7369999999937,
      "v": 60
    },
    {
      "midi": 65,
      "hit": false,
      "t": 175657.96499999947,
      "d": 394.7369999999937,
      "v": 60
    },
    {
      "midi": 49,
      "hit": false,
      "t": 176052.7019999994,
      "d": 394.7369999999937,
      "v": 60
    },
    {
      "midi": 56,
      "hit": false,
      "t": 176052.7019999994,
      "d": 394.7369999999937,
      "v": 60
    },
    {
      "midi": 65,
      "hit": false,
      "t": 176052.70199999947,
      "d": 394.7369999999937,
      "v": 60
    },
    {
      "midi": 49,
      "hit": false,
      "t": 176447.4389999994,
      "d": 394.7369999999937,
      "v": 60
    },
    {
      "midi": 57,
      "hit": false,
      "t": 176447.4389999994,
      "d": 394.7369999999937,
      "v": 60
    },
    {
      "midi": 65,
      "hit": false,
      "t": 176447.43899999946,
      "d": 394.7369999999937,
      "v": 60
    },
    {
      "midi": 49,
      "hit": false,
      "t": 176842.1759999994,
      "d": 394.7369999999937,
      "v": 60
    },
    {
      "midi": 58,
      "hit": false,
      "t": 176842.1759999994,
      "d": 394.7369999999937,
      "v": 60
    },
    {
      "midi": 77,
      "hit": false,
      "t": 176842.17599999945,
      "d": 263.1579999999958,
      "v": 70
    },
    {
      "midi": 66,
      "hit": false,
      "t": 176842.17599999945,
      "d": 394.7369999999937,
      "v": 60
    },
    {
      "midi": 73,
      "hit": false,
      "t": 177105.33399999945,
      "d": 263.1579999999958,
      "v": 70
    },
    {
      "midi": 49,
      "hit": false,
      "t": 177236.9129999994,
      "d": 394.7369999999937,
      "v": 60
    },
    {
      "midi": 60,
      "hit": false,
      "t": 177236.9129999994,
      "d": 394.7369999999937,
      "v": 60
    },
    {
      "midi": 66,
      "hit": false,
      "t": 177236.91299999945,
      "d": 394.7369999999937,
      "v": 60
    },
    {
      "midi": 70,
      "hit": false,
      "t": 177368.49199999945,
      "d": 263.1579999999958,
      "v": 70
    },
    {
      "midi": 49,
      "hit": false,
      "t": 177631.64999999938,
      "d": 394.7369999999937,
      "v": 60
    },
    {
      "midi": 61,
      "hit": false,
      "t": 177631.64999999938,
      "d": 394.7369999999937,
      "v": 60
    },
    {
      "midi": 65,
      "hit": false,
      "t": 177631.64999999944,
      "d": 394.7369999999937,
      "v": 60
    },
    {
      "midi": 68,
      "hit": false,
      "t": 177631.64999999944,
      "d": 921.0529999999853,
      "v": 70
    },
    {
      "midi": 49,
      "hit": false,
      "t": 178026.38699999938,
      "d": 394.7369999999937,
      "v": 60
    },
    {
      "midi": 61,
      "hit": false,
      "t": 178026.38699999938,
      "d": 394.7369999999937,
      "v": 60
    },
    {
      "midi": 65,
      "hit": false,
      "t": 178026.38699999943,
      "d": 394.7369999999937,
      "v": 60
    },
    {
      "midi": 49,
      "hit": false,
      "t": 178421.12399999937,
      "d": 394.7369999999937,
      "v": 60
    },
    {
      "midi": 61,
      "hit": false,
      "t": 178421.12399999937,
      "d": 394.7369999999937,
      "v": 60
    },
    {
      "midi": 65,
      "hit": false,
      "t": 178421.12399999943,
      "d": 394.7369999999937,
      "v": 60
    },
    {
      "midi": 68,
      "hit": false,
      "t": 178552.70299999943,
      "d": 131.5789999999979,
      "v": 70
    },
    {
      "midi": 70,
      "hit": false,
      "t": 178684.28199999942,
      "d": 131.5789999999979,
      "v": 70
    },
    {
      "midi": 49,
      "hit": false,
      "t": 178815.86099999936,
      "d": 394.7369999999937,
      "v": 60
    },
    {
      "midi": 61,
      "hit": false,
      "t": 178815.86099999936,
      "d": 394.7369999999937,
      "v": 60
    },
    {
      "midi": 68,
      "hit": false,
      "t": 178815.86099999942,
      "d": 131.5789999999979,
      "v": 70
    },
    {
      "midi": 65,
      "hit": false,
      "t": 178815.86099999942,
      "d": 394.7369999999937,
      "v": 60
    },
    {
      "midi": 67,
      "hit": false,
      "t": 178947.43999999942,
      "d": 131.5789999999979,
      "v": 70
    },
    {
      "midi": 68,
      "hit": false,
      "t": 179079.01899999942,
      "d": 131.5789999999979,
      "v": 70
    },
    {
      "midi": 55,
      "hit": false,
      "t": 179210.59799999936,
      "d": 394.7369999999937,
      "v": 60
    },
    {
      "midi": 61,
      "hit": false,
      "t": 179210.59799999936,
      "d": 394.7369999999937,
      "v": 60
    },
    {
      "midi": 64,
      "hit": false,
      "t": 179210.59799999942,
      "d": 394.7369999999937,
      "v": 60
    },
    {
      "midi": 72,
      "hit": false,
      "t": 179210.59799999942,
      "d": 592.1055000000051,
      "v": 70
    },
    {
      "midi": 55,
      "hit": false,
      "t": 179605.33499999935,
      "d": 394.7369999999937,
      "v": 60
    },
    {
      "midi": 61,
      "hit": false,
      "t": 179605.33499999935,
      "d": 394.7369999999937,
      "v": 60
    },
    {
      "midi": 64,
      "hit": false,
      "t": 179605.3349999994,
      "d": 394.7370000000228,
      "v": 60
    },
    {
      "midi": 70,
      "hit": false,
      "t": 179802.70349999942,
      "d": 197.3685000000114,
      "v": 70
    },
    {
      "midi": 56,
      "hit": false,
      "t": 180000.07199999935,
      "d": 394.7369999999937,
      "v": 60
    },
    {
      "midi": 61,
      "hit": false,
      "t": 180000.07199999943,
      "d": 394.7369999999937,
      "v": 60
    },
    {
      "midi": 63,
      "hit": false,
      "t": 180000.07199999943,
      "d": 1184.2109999999811,
      "v": 70
    },
    {
      "midi": 56,
      "hit": false,
      "t": 180394.80899999934,
      "d": 394.7369999999937,
      "v": 60
    },
    {
      "midi": 61,
      "hit": false,
      "t": 180394.80899999943,
      "d": 394.7369999999937,
      "v": 60
    },
    {
      "midi": 56,
      "hit": false,
      "t": 180789.54599999933,
      "d": 394.7369999999937,
      "v": 60
    },
    {
      "midi": 61,
      "hit": false,
      "t": 180789.54599999942,
      "d": 394.7369999999937,
      "v": 60
    },
    {
      "midi": 56,
      "hit": false,
      "t": 181184.28299999933,
      "d": 394.7369999999937,
      "v": 60
    },
    {
      "midi": 63,
      "hit": false,
      "t": 181184.2829999994,
      "d": 131.5789999999979,
      "v": 70
    },
    {
      "midi": 61,
      "hit": false,
      "t": 181184.2829999994,
      "d": 394.7369999999937,
      "v": 60
    },
    {
      "midi": 65,
      "hit": false,
      "t": 181315.8619999994,
      "d": 131.5789999999979,
      "v": 70
    },
    {
      "midi": 66,
      "hit": false,
      "t": 181447.4409999994,
      "d": 131.5789999999979,
      "v": 70
    },
    {
      "midi": 56,
      "hit": false,
      "t": 181579.01999999932,
      "d": 394.7369999999937,
      "v": 60
    },
    {
      "midi": 44,
      "hit": false,
      "t": 181579.01999999932,
      "d": 789.4739999999874,
      "v": 70
    },
    {
      "midi": 60,
      "hit": false,
      "t": 181579.0199999994,
      "d": 394.7369999999937,
      "v": 60
    },
    {
      "midi": 66,
      "hit": false,
      "t": 181579.0199999994,
      "d": 592.1055000000051,
      "v": 70
    },
    {
      "midi": 70,
      "hit": false,
      "t": 181579.0199999994,
      "d": 592.1055000000051,
      "v": 70
    },
    {
      "midi": 56,
      "hit": false,
      "t": 181973.7569999993,
      "d": 394.7369999999937,
      "v": 60
    },
    {
      "midi": 60,
      "hit": false,
      "t": 181973.7569999994,
      "d": 394.7370000000228,
      "v": 60
    },
    {
      "midi": 65,
      "hit": false,
      "t": 182171.1254999994,
      "d": 197.3685000000114,
      "v": 70
    },
    {
      "midi": 68,
      "hit": false,
      "t": 182171.1254999994,
      "d": 197.3685000000114,
      "v": 70
    },
    {
      "midi": 56,
      "hit": false,
      "t": 182368.4939999993,
      "d": 394.7369999999937,
      "v": 60
    },
    {
      "midi": 44,
      "hit": false,
      "t": 182368.4939999993,
      "d": 789.4739999999874,
      "v": 70
    },
    {
      "midi": 60,
      "hit": false,
      "t": 182368.49399999942,
      "d": 394.7369999999937,
      "v": 60
    },
    {
      "midi": 63,
      "hit": false,
      "t": 182368.49399999942,
      "d": 789.4739999999874,
      "v": 70
    },
    {
      "midi": 56,
      "hit": false,
      "t": 182763.2309999993,
      "d": 394.7369999999937,
      "v": 60
    },
    {
      "midi": 60,
      "hit": false,
      "t": 182763.23099999942,
      "d": 394.7369999999937,
      "v": 60
    },
    {
      "midi": 68,
      "hit": false,
      "t": 182960.59949999943,
      "d": 98.68424999999115,
      "v": 70
    },
    {
      "midi": 66,
      "hit": false,
      "t": 183059.28374999942,
      "d": 98.68424999999115,
      "v": 70
    },
    {
      "midi": 56,
      "hit": false,
      "t": 183157.9679999993,
      "d": 394.7369999999937,
      "v": 60
    },
    {
      "midi": 49,
      "hit": false,
      "t": 183157.9679999993,
      "d": 789.4739999999874,
      "v": 70
    },
    {
      "midi": 61,
      "hit": false,
      "t": 183157.9679999994,
      "d": 394.7369999999937,
      "v": 60
    },
    {
      "midi": 65,
      "hit": false,
      "t": 183157.9679999994,
      "d": 789.4739999999874,
      "v": 70
    },
    {
      "midi": 56,
      "hit": false,
      "t": 183552.7049999993,
      "d": 394.7369999999937,
      "v": 60
    },
    {
      "midi": 61,
      "hit": false,
      "t": 183552.7049999994,
      "d": 394.7369999999937,
      "v": 60
    },
    {
      "midi": 59,
      "hit": false,
      "t": 183947.44199999928,
      "d": 394.7369999999937,
      "v": 60
    },
    {
      "midi": 61,
      "hit": false,
      "t": 183947.4419999994,
      "d": 394.7369999999937,
      "v": 60
    },
    {
      "midi": 59,
      "hit": false,
      "t": 184342.17899999928,
      "d": 394.7369999999937,
      "v": 60
    },
    {
      "midi": 61,
      "hit": false,
      "t": 184342.1789999994,
      "d": 394.7369999999937,
      "v": 60
    },
    {
      "midi": 58,
      "hit": false,
      "t": 184736.91599999927,
      "d": 394.7369999999937,
      "v": 60
    },
    {
      "midi": 61,
      "hit": false,
      "t": 184736.91599999927,
      "d": 394.7369999999937,
      "v": 60
    },
    {
      "midi": 66,
      "hit": false,
      "t": 184736.9159999994,
      "d": 394.7369999999937,
      "v": 60
    },
    {
      "midi": 58,
      "hit": false,
      "t": 185131.65299999926,
      "d": 394.7369999999937,
      "v": 63
    },
    {
      "midi": 61,
      "hit": false,
      "t": 185131.65299999926,
      "d": 394.7369999999937,
      "v": 63
    },
    {
      "midi": 73,
      "hit": false,
      "t": 185131.65299999938,
      "d": 78.94740000000456,
      "v": 73
    },
    {
      "midi": 66,
      "hit": false,
      "t": 185131.65299999938,
      "d": 394.7370000000228,
      "v": 63
    },
    {
      "midi": 75,
      "hit": false,
      "t": 185210.60039999938,
      "d": 78.94740000000456,
      "v": 74
    },
    {
      "midi": 73,
      "hit": false,
      "t": 185289.5477999994,
      "d": 78.94740000000456,
      "v": 74
    },
    {
      "midi": 72,
      "hit": false,
      "t": 185368.4951999994,
      "d": 78.94740000000456,
      "v": 75
    },
    {
      "midi": 73,
      "hit": false,
      "t": 185447.4425999994,
      "d": 78.94740000000456,
      "v": 76
    },
    {
      "midi": 57,
      "hit": false,
      "t": 185526.38999999926,
      "d": 394.7369999999937,
      "v": 67
    },
    {
      "midi": 61,
      "hit": false,
      "t": 185526.38999999926,
      "d": 394.7369999999937,
      "v": 67
    },
    {
      "midi": 66,
      "hit": false,
      "t": 185526.3899999994,
      "d": 394.7369999999937,
      "v": 67
    },
    {
      "midi": 78,
      "hit": false,
      "t": 185526.3899999994,
      "d": 789.4739999999874,
      "v": 77
    },
    {
      "midi": 57,
      "hit": false,
      "t": 185921.12699999925,
      "d": 394.7369999999937,
      "v": 70
    },
    {
      "midi": 61,
      "hit": false,
      "t": 185921.12699999925,
      "d": 394.7369999999937,
      "v": 70
    },
    {
      "midi": 66,
      "hit": false,
      "t": 185921.1269999994,
      "d": 394.7369999999937,
      "v": 70
    },
    {
      "midi": 73,
      "hit": false,
      "t": 185921.1269999994,
      "d": 789.4739999999874,
      "v": 80
    },
    {
      "midi": 56,
      "hit": false,
      "t": 186315.86399999924,
      "d": 394.7369999999937,
      "v": 74
    },
    {
      "midi": 61,
      "hit": false,
      "t": 186315.86399999924,
      "d": 394.7369999999937,
      "v": 74
    },
    {
      "midi": 68,
      "hit": false,
      "t": 186315.8639999994,
      "d": 394.7369999999937,
      "v": 74
    },
    {
      "midi": 77,
      "hit": false,
      "t": 186315.8639999994,
      "d": 789.4739999999874,
      "v": 84
    },
    {
      "midi": 56,
      "hit": false,
      "t": 186710.60099999924,
      "d": 394.7369999999937,
      "v": 77
    },
    {
      "midi": 61,
      "hit": false,
      "t": 186710.60099999924,
      "d": 394.7369999999937,
      "v": 77
    },
    {
      "midi": 68,
      "hit": false,
      "t": 186710.60099999938,
      "d": 394.7369999999937,
      "v": 77
    },
    {
      "midi": 73,
      "hit": false,
      "t": 186710.60099999938,
      "d": 394.7369999999937,
      "v": 87
    },
    {
      "midi": 55,
      "hit": false,
      "t": 187105.33799999923,
      "d": 394.7369999999937,
      "v": 81
    },
    {
      "midi": 63,
      "hit": false,
      "t": 187105.33799999923,
      "d": 394.7369999999937,
      "v": 81
    },
    {
      "midi": 74,
      "hit": false,
      "t": 187105.33799999938,
      "d": 131.5789999999979,
      "v": 91
    },
    {
      "midi": 70,
      "hit": false,
      "t": 187105.33799999938,
      "d": 394.7369999999937,
      "v": 81
    },
    {
      "midi": 75,
      "hit": false,
      "t": 187236.91699999938,
      "d": 131.5789999999979,
      "v": 92
    },
    {
      "midi": 77,
      "hit": false,
      "t": 187368.49599999937,
      "d": 131.5789999999979,
      "v": 93
    },
    {
      "midi": 55,
      "hit": false,
      "t": 187500.07499999923,
      "d": 394.7369999999937,
      "v": 84
    },
    {
      "midi": 63,
      "hit": false,
      "t": 187500.07499999923,
      "d": 394.7369999999937,
      "v": 84
    },
    {
      "midi": 75,
      "hit": false,
      "t": 187500.07499999937,
      "d": 131.5789999999979,
      "v": 94
    },
    {
      "midi": 70,
      "hit": false,
      "t": 187500.07499999937,
      "d": 394.7369999999937,
      "v": 84
    },
    {
      "midi": 74,
      "hit": false,
      "t": 187631.65399999937,
      "d": 131.5789999999979,
      "v": 95
    },
    {
      "midi": 75,
      "hit": false,
      "t": 187763.23299999937,
      "d": 131.5789999999979,
      "v": 97
    },
    {
      "midi": 54,
      "hit": false,
      "t": 187894.81199999922,
      "d": 394.7369999999937,
      "v": 88
    },
    {
      "midi": 63,
      "hit": false,
      "t": 187894.81199999922,
      "d": 394.7369999999937,
      "v": 88
    },
    {
      "midi": 72,
      "hit": false,
      "t": 187894.81199999937,
      "d": 394.7369999999937,
      "v": 88
    },
    {
      "midi": 82,
      "hit": false,
      "t": 187894.81199999937,
      "d": 1184.2109999999811,
      "v": 98
    },
    {
      "midi": 54,
      "hit": false,
      "t": 188289.5489999992,
      "d": 394.7369999999937,
      "v": 91
    },
    {
      "midi": 56,
      "hit": false,
      "t": 188289.5489999992,
      "d": 394.7369999999937,
      "v": 91
    },
    {
      "midi": 63,
      "hit": false,
      "t": 188289.5489999992,
      "d": 394.7369999999937,
      "v": 91
    },
    {
      "midi": 72,
      "hit": false,
      "t": 188289.54899999936,
      "d": 394.7369999999937,
      "v": 91
    },
    {
      "midi": 53,
      "hit": false,
      "t": 188684.2859999992,
      "d": 394.7369999999937,
      "v": 95
    },
    {
      "midi": 56,
      "hit": false,
      "t": 188684.2859999992,
      "d": 394.7369999999937,
      "v": 95
    },
    {
      "midi": 61,
      "hit": false,
      "t": 188684.2859999992,
      "d": 394.7369999999937,
      "v": 95
    },
    {
      "midi": 73,
      "hit": false,
      "t": 188684.28599999935,
      "d": 394.7369999999937,
      "v": 95
    },
    {
      "midi": 52,
      "hit": false,
      "t": 189079.0229999992,
      "d": 394.7369999999937,
      "v": 98
    },
    {
      "midi": 56,
      "hit": false,
      "t": 189079.0229999992,
      "d": 394.7369999999937,
      "v": 98
    },
    {
      "midi": 61,
      "hit": false,
      "t": 189079.0229999992,
      "d": 394.7369999999937,
      "v": 98
    },
    {
      "midi": 73,
      "hit": false,
      "t": 189079.02299999935,
      "d": 394.7369999999937,
      "v": 98
    },
    {
      "midi": 80,
      "hit": false,
      "t": 189079.02299999935,
      "d": 394.7369999999937,
      "v": 108
    },
    {
      "midi": 39,
      "hit": false,
      "t": 189473.7599999992,
      "d": 394.7369999999937,
      "v": 100
    },
    {
      "midi": 51,
      "hit": false,
      "t": 189473.7599999992,
      "d": 394.7369999999937,
      "v": 100
    },
    {
      "midi": 73,
      "hit": false,
      "t": 189473.75999999934,
      "d": 394.7369999999937,
      "v": 100
    },
    {
      "midi": 79,
      "hit": false,
      "t": 189473.75999999934,
      "d": 394.7369999999937,
      "v": 100
    },
    {
      "midi": 85,
      "hit": false,
      "t": 189473.75999999934,
      "d": 394.7369999999937,
      "v": 110
    },
    {
      "midi": 79,
      "hit": false,
      "t": 189868.49699999933,
      "d": 394.7369999999937,
      "v": 100
    },
    {
      "midi": 89,
      "hit": false,
      "t": 189868.49699999933,
      "d": 592.1055000000051,
      "v": 110
    },
    {
      "midi": 63,
      "hit": false,
      "t": 189868.49699999933,
      "d": 394.7369999999937,
      "v": 100
    },
    {
      "midi": 70,
      "hit": false,
      "t": 189868.49699999933,
      "d": 394.7369999999937,
      "v": 100
    },
    {
      "midi": 73,
      "hit": false,
      "t": 189868.49699999933,
      "d": 394.7369999999937,
      "v": 100
    },
    {
      "midi": 79,
      "hit": false,
      "t": 190263.23399999933,
      "d": 394.7370000000228,
      "v": 100
    },
    {
      "midi": 63,
      "hit": false,
      "t": 190263.23399999933,
      "d": 394.7369999999937,
      "v": 100
    },
    {
      "midi": 70,
      "hit": false,
      "t": 190263.23399999933,
      "d": 394.7369999999937,
      "v": 100
    },
    {
      "midi": 73,
      "hit": false,
      "t": 190263.23399999933,
      "d": 394.7369999999937,
      "v": 100
    },
    {
      "midi": 88,
      "hit": false,
      "t": 190460.60249999934,
      "d": 197.3685000000114,
      "v": 110
    },
    {
      "midi": 63,
      "hit": false,
      "t": 190657.97099999932,
      "d": 394.7369999999937,
      "v": 100
    },
    {
      "midi": 70,
      "hit": false,
      "t": 190657.97099999932,
      "d": 394.7369999999937,
      "v": 100
    },
    {
      "midi": 73,
      "hit": false,
      "t": 190657.97099999932,
      "d": 394.7369999999937,
      "v": 100
    },
    {
      "midi": 87,
      "hit": false,
      "t": 190657.97099999935,
      "d": 197.3685000000114,
      "v": 110
    },
    {
      "midi": 79,
      "hit": false,
      "t": 190657.97099999935,
      "d": 394.7370000000228,
      "v": 100
    },
    {
      "midi": 86,
      "hit": false,
      "t": 190855.33949999936,
      "d": 197.3685000000114,
      "v": 110
    },
    {
      "midi": 63,
      "hit": false,
      "t": 191052.70799999931,
      "d": 394.7369999999937,
      "v": 100
    },
    {
      "midi": 70,
      "hit": false,
      "t": 191052.70799999931,
      "d": 394.7369999999937,
      "v": 100
    },
    {
      "midi": 73,
      "hit": false,
      "t": 191052.70799999931,
      "d": 394.7369999999937,
      "v": 100
    },
    {
      "midi": 89,
      "hit": false,
      "t": 191052.70799999937,
      "d": 197.3685000000114,
      "v": 110
    },
    {
      "midi": 79,
      "hit": false,
      "t": 191052.70799999937,
      "d": 394.7370000000228,
      "v": 100
    },
    {
      "midi": 87,
      "hit": false,
      "t": 191250.07649999938,
      "d": 197.3685000000114,
      "v": 110
    },
    {
      "midi": 63,
      "hit": false,
      "t": 191447.4449999993,
      "d": 394.7369999999937,
      "v": 100
    },
    {
      "midi": 70,
      "hit": false,
      "t": 191447.4449999993,
      "d": 394.7369999999937,
      "v": 100
    },
    {
      "midi": 73,
      "hit": false,
      "t": 191447.4449999993,
      "d": 394.7369999999937,
      "v": 100
    },
    {
      "midi": 86,
      "hit": false,
      "t": 191447.4449999994,
      "d": 197.3685000000114,
      "v": 110
    },
    {
      "midi": 79,
      "hit": false,
      "t": 191447.4449999994,
      "d": 394.7370000000228,
      "v": 100
    },
    {
      "midi": 85,
      "hit": false,
      "t": 191644.8134999994,
      "d": 197.3685000000114,
      "v": 110
    },
    {
      "midi": 32,
      "hit": false,
      "t": 191842.1819999992,
      "d": 197.3685000000114,
      "v": 110
    },
    {
      "midi": 84,
      "hit": false,
      "t": 191842.18199999942,
      "d": 394.7369999999937,
      "v": 110
    },
    {
      "midi": 72,
      "hit": false,
      "t": 191973.76099999942,
      "d": 131.5789999999979,
      "v": 98
    },
    {
      "midi": 78,
      "hit": false,
      "t": 192105.3399999994,
      "d": 657.8949999999895,
      "v": 96
    },
    {
      "midi": 56,
      "hit": false,
      "t": 192236.9189999992,
      "d": 394.7369999999937,
      "v": 93
    },
    {
      "midi": 63,
      "hit": false,
      "t": 192236.9189999992,
      "d": 394.7369999999937,
      "v": 93
    },
    {
      "midi": 66,
      "hit": false,
      "t": 192236.9189999992,
      "d": 394.7369999999937,
      "v": 93
    },
    {
      "midi": 84,
      "hit": false,
      "t": 192236.9189999994,
      "d": 131.5789999999979,
      "v": 103
    },
    {
      "midi": 85,
      "hit": false,
      "t": 192368.4979999994,
      "d": 131.5789999999979,
      "v": 101
    },
    {
      "midi": 84,
      "hit": false,
      "t": 192500.0769999994,
      "d": 131.5789999999979,
      "v": 98
    },
    {
      "midi": 44,
      "hit": false,
      "t": 192631.6559999992,
      "d": 197.3685000000114,
      "v": 96
    },
    {
      "midi": 82,
      "hit": false,
      "t": 192631.6559999994,
      "d": 394.7369999999937,
      "v": 96
    },
    {
      "midi": 72,
      "hit": false,
      "t": 192763.2349999994,
      "d": 131.5789999999979,
      "v": 83
    },
    {
      "midi": 78,
      "hit": false,
      "t": 192894.8139999994,
      "d": 526.3159999999916,
      "v": 81
    },
    {
      "midi": 56,
      "hit": false,
      "t": 193026.39299999923,
      "d": 394.7369999999937,
      "v": 78
    },
    {
      "midi": 63,
      "hit": false,
      "t": 193026.39299999923,
      "d": 394.7369999999937,
      "v": 78
    },
    {
      "midi": 66,
      "hit": false,
      "t": 193026.39299999923,
      "d": 394.7369999999937,
      "v": 78
    },
    {
      "midi": 82,
      "hit": false,
      "t": 193026.3929999994,
      "d": 131.5789999999979,
      "v": 88
    },
    {
      "midi": 84,
      "hit": false,
      "t": 193157.9719999994,
      "d": 131.5789999999979,
      "v": 86
    },
    {
      "midi": 82,
      "hit": false,
      "t": 193289.5509999994,
      "d": 131.5789999999979,
      "v": 83
    },
    {
      "midi": 32,
      "hit": false,
      "t": 193421.12999999922,
      "d": 197.3685000000114,
      "v": 81
    },
    {
      "midi": 77,
      "hit": false,
      "t": 193421.1299999994,
      "d": 131.5789999999979,
      "v": 71
    },
    {
      "midi": 80,
      "hit": false,
      "t": 193421.1299999994,
      "d": 394.7369999999937,
      "v": 81
    },
    {
      "midi": 72,
      "hit": false,
      "t": 193552.7089999994,
      "d": 131.5789999999979,
      "v": 68
    },
    {
      "midi": 77,
      "hit": false,
      "t": 193684.2879999994,
      "d": 131.5789999999979,
      "v": 66
    },
    {
      "midi": 56,
      "hit": false,
      "t": 193815.86699999924,
      "d": 394.7369999999937,
      "v": 63
    },
    {
      "midi": 68,
      "hit": false,
      "t": 193815.86699999924,
      "d": 394.7369999999937,
      "v": 63
    },
    {
      "midi": 75,
      "hit": false,
      "t": 193815.8669999994,
      "d": 131.5789999999979,
      "v": 63
    },
    {
      "midi": 78,
      "hit": false,
      "t": 193815.8669999994,
      "d": 131.5789999999979,
      "v": 73
    },
    {
      "midi": 77,
      "hit": false,
      "t": 193947.44599999939,
      "d": 131.5789999999979,
      "v": 61
    },
    {
      "midi": 80,
      "hit": false,
      "t": 193947.44599999939,
      "d": 131.5789999999979,
      "v": 71
    },
    {
      "midi": 75,
      "hit": false,
      "t": 194079.02499999938,
      "d": 131.5789999999979,
      "v": 60
    },
    {
      "midi": 78,
      "hit": false,
      "t": 194079.02499999938,
      "d": 131.5789999999979,
      "v": 70
    },
    {
      "midi": 25,
      "hit": false,
      "t": 194210.60399999924,
      "d": 197.3685000000114,
      "v": 70
    },
    {
      "midi": 77,
      "hit": false,
      "t": 194210.60399999938,
      "d": 1578.9479999999749,
      "v": 70
    },
    {
      "midi": 49,
      "hit": false,
      "t": 194605.34099999926,
      "d": 394.7369999999937,
      "v": 60
    },
    {
      "midi": 56,
      "hit": false,
      "t": 194605.34099999926,
      "d": 394.7369999999937,
      "v": 60
    },
    {
      "midi": 65,
      "hit": false,
      "t": 194605.34099999937,
      "d": 394.7369999999937,
      "v": 60
    },
    {
      "midi": 49,
      "hit": false,
      "t": 195000.07799999925,
      "d": 394.7369999999937,
      "v": 60
    },
    {
      "midi": 56,
      "hit": false,
      "t": 195000.07799999925,
      "d": 394.7369999999937,
      "v": 60
    },
    {
      "midi": 65,
      "hit": false,
      "t": 195000.07799999937,
      "d": 394.7369999999937,
      "v": 60
    },
    {
      "midi": 49,
      "hit": false,
      "t": 195394.81499999925,
      "d": 394.7369999999937,
      "v": 60
    },
    {
      "midi": 57,
      "hit": false,
      "t": 195394.81499999925,
      "d": 394.7369999999937,
      "v": 60
    },
    {
      "midi": 65,
      "hit": false,
      "t": 195394.81499999936,
      "d": 394.7369999999937,
      "v": 60
    },
    {
      "midi": 49,
      "hit": false,
      "t": 195789.55199999924,
      "d": 394.7369999999937,
      "v": 60
    },
    {
      "midi": 58,
      "hit": false,
      "t": 195789.55199999924,
      "d": 394.7369999999937,
      "v": 60
    },
    {
      "midi": 74,
      "hit": false,
      "t": 195789.55199999936,
      "d": 98.68424999999115,
      "v": 70
    },
    {
      "midi": 66,
      "hit": false,
      "t": 195789.55199999936,
      "d": 394.7369999999646,
      "v": 60
    },
    {
      "midi": 75,
      "hit": false,
      "t": 195888.23624999935,
      "d": 98.68424999999115,
      "v": 70
    },
    {
      "midi": 77,
      "hit": false,
      "t": 195986.92049999934,
      "d": 98.68424999999115,
      "v": 70
    },
    {
      "midi": 75,
      "hit": false,
      "t": 196085.60474999933,
      "d": 98.68424999999115,
      "v": 70
    },
    {
      "midi": 60,
      "hit": false,
      "t": 196184.28899999923,
      "d": 394.7369999999937,
      "v": 60
    },
    {
      "midi": 49,
      "hit": false,
      "t": 196184.28899999923,
      "d": 789.4739999999874,
      "v": 60
    },
    {
      "midi": 78,
      "hit": false,
      "t": 196184.28899999932,
      "d": 65.7895000000135,
      "v": 70
    },
    {
      "midi": 66,
      "hit": false,
      "t": 196184.28899999932,
      "d": 394.737000000081,
      "v": 60
    },
    {
      "midi": 77,
      "hit": false,
      "t": 196250.07849999933,
      "d": 65.7895000000135,
      "v": 70
    },
    {
      "midi": 75,
      "hit": false,
      "t": 196315.86799999935,
      "d": 65.7895000000135,
      "v": 70
    },
    {
      "midi": 73,
      "hit": false,
      "t": 196381.65749999936,
      "d": 65.7895000000135,
      "v": 70
    },
    {
      "midi": 72,
      "hit": false,
      "t": 196447.44699999937,
      "d": 65.7895000000135,
      "v": 70
    },
    {
      "midi": 70,
      "hit": false,
      "t": 196513.2364999994,
      "d": 65.7895000000135,
      "v": 70
    },
    {
      "midi": 61,
      "hit": false,
      "t": 196579.02599999923,
      "d": 394.7369999999937,
      "v": 60
    },
    {
      "midi": 65,
      "hit": false,
      "t": 196579.0259999994,
      "d": 394.7369999999937,
      "v": 60
    },
    {
      "midi": 68,
      "hit": false,
      "t": 196579.0259999994,
      "d": 789.4739999999874,
      "v": 70
    },
    {
      "midi": 61,
      "hit": false,
      "t": 196973.76299999922,
      "d": 394.7369999999937,
      "v": 60
    },
    {
      "midi": 65,
      "hit": false,
      "t": 196973.7629999994,
      "d": 394.7369999999937,
      "v": 60
    },
    {
      "midi": 61,
      "hit": false,
      "t": 197368.4999999992,
      "d": 394.7369999999937,
      "v": 60
    },
    {
      "midi": 64,
      "hit": false,
      "t": 197368.4999999994,
      "d": 394.7369999999937,
      "v": 60
    },
    {
      "midi": 69,
      "hit": false,
      "t": 197368.4999999994,
      "d": 789.4739999999874,
      "v": 70
    },
    {
      "midi": 61,
      "hit": false,
      "t": 197763.2369999992,
      "d": 394.7369999999937,
      "v": 60
    },
    {
      "midi": 64,
      "hit": false,
      "t": 197763.23699999938,
      "d": 394.7369999999937,
      "v": 60
    },
    {
      "midi": 60,
      "hit": false,
      "t": 198157.9739999992,
      "d": 394.7369999999937,
      "v": 60
    },
    {
      "midi": 62,
      "hit": false,
      "t": 198157.97399999938,
      "d": 394.7369999999937,
      "v": 60
    },
    {
      "midi": 66,
      "hit": false,
      "t": 198157.97399999938,
      "d": 394.7369999999937,
      "v": 60
    },
    {
      "midi": 69,
      "hit": false,
      "t": 198157.97399999938,
      "d": 789.4739999999874,
      "v": 70
    },
    {
      "midi": 60,
      "hit": false,
      "t": 198552.7109999992,
      "d": 394.7369999999937,
      "v": 60
    },
    {
      "midi": 62,
      "hit": false,
      "t": 198552.71099999937,
      "d": 394.7369999999937,
      "v": 60
    },
    {
      "midi": 66,
      "hit": false,
      "t": 198552.71099999937,
      "d": 394.7369999999937,
      "v": 60
    },
    {
      "midi": 59,
      "hit": false,
      "t": 198947.4479999992,
      "d": 394.7369999999937,
      "v": 60
    },
    {
      "midi": 62,
      "hit": false,
      "t": 198947.44799999936,
      "d": 394.7369999999937,
      "v": 60
    },
    {
      "midi": 67,
      "hit": false,
      "t": 198947.44799999936,
      "d": 394.7369999999937,
      "v": 60
    },
    {
      "midi": 74,
      "hit": false,
      "t": 198947.44799999936,
      "d": 789.4739999999874,
      "v": 70
    },
    {
      "midi": 59,
      "hit": false,
      "t": 199342.18499999918,
      "d": 394.7369999999937,
      "v": 63
    },
    {
      "midi": 62,
      "hit": false,
      "t": 199342.18499999936,
      "d": 394.7369999999937,
      "v": 63
    },
    {
      "midi": 67,
      "hit": false,
      "t": 199342.18499999936,
      "d": 394.7369999999937,
      "v": 63
    },
    {
      "midi": 58,
      "hit": false,
      "t": 199736.92199999918,
      "d": 394.7369999999937,
      "v": 67
    },
    {
      "midi": 64,
      "hit": false,
      "t": 199736.92199999935,
      "d": 394.7369999999937,
      "v": 67
    },
    {
      "midi": 67,
      "hit": false,
      "t": 199736.92199999935,
      "d": 394.7369999999937,
      "v": 67
    },
    {
      "midi": 73,
      "hit": false,
      "t": 199736.92199999935,
      "d": 789.4739999999874,
      "v": 77
    },
    {
      "midi": 57,
      "hit": false,
      "t": 200131.65899999917,
      "d": 394.7369999999937,
      "v": 70
    },
    {
      "midi": 64,
      "hit": false,
      "t": 200131.65899999934,
      "d": 394.7369999999937,
      "v": 70
    },
    {
      "midi": 67,
      "hit": false,
      "t": 200131.65899999934,
      "d": 394.7369999999937,
      "v": 70
    },
    {
      "midi": 56,
      "hit": false,
      "t": 200526.39599999916,
      "d": 394.7369999999937,
      "v": 74
    },
    {
      "midi": 65,
      "hit": false,
      "t": 200526.39599999934,
      "d": 394.7369999999937,
      "v": 74
    },
    {
      "midi": 68,
      "hit": false,
      "t": 200526.39599999934,
      "d": 394.7369999999937,
      "v": 74
    },
    {
      "midi": 73,
      "hit": false,
      "t": 200526.39599999934,
      "d": 789.4739999999874,
      "v": 84
    },
    {
      "midi": 55,
      "hit": false,
      "t": 200921.13299999916,
      "d": 394.7369999999937,
      "v": 77
    },
    {
      "midi": 64,
      "hit": false,
      "t": 200921.13299999933,
      "d": 394.7369999999937,
      "v": 77
    },
    {
      "midi": 70,
      "hit": false,
      "t": 200921.13299999933,
      "d": 394.7369999999937,
      "v": 77
    },
    {
      "midi": 54,
      "hit": false,
      "t": 201315.86999999915,
      "d": 394.7369999999937,
      "v": 81
    },
    {
      "midi": 63,
      "hit": false,
      "t": 201315.86999999933,
      "d": 394.7369999999937,
      "v": 81
    },
    {
      "midi": 69,
      "hit": false,
      "t": 201315.86999999933,
      "d": 394.7369999999937,
      "v": 81
    },
    {
      "midi": 73,
      "hit": false,
      "t": 201315.86999999933,
      "d": 394.7369999999937,
      "v": 91
    },
    {
      "midi": 54,
      "hit": false,
      "t": 201710.60699999915,
      "d": 394.7369999999937,
      "v": 84
    },
    {
      "midi": 72,
      "hit": false,
      "t": 201710.60699999932,
      "d": 197.3685000000114,
      "v": 94
    },
    {
      "midi": 63,
      "hit": false,
      "t": 201710.60699999932,
      "d": 394.7370000000228,
      "v": 84
    },
    {
      "midi": 69,
      "hit": false,
      "t": 201710.60699999932,
      "d": 394.7370000000228,
      "v": 84
    },
    {
      "midi": 73,
      "hit": false,
      "t": 201907.97549999933,
      "d": 197.3685000000114,
      "v": 96
    },
    {
      "midi": 66,
      "hit": false,
      "t": 202105.34399999914,
      "d": 394.7369999999937,
      "v": 88
    },
    {
      "midi": 69,
      "hit": false,
      "t": 202105.34399999934,
      "d": 394.7369999999937,
      "v": 88
    },
    {
      "midi": 72,
      "hit": false,
      "t": 202105.34399999934,
      "d": 394.7369999999937,
      "v": 88
    },
    {
      "midi": 75,
      "hit": false,
      "t": 202105.34399999934,
      "d": 789.4739999999874,
      "v": 98
    },
    {
      "midi": 66,
      "hit": false,
      "t": 202500.08099999913,
      "d": 394.7369999999937,
      "v": 91
    },
    {
      "midi": 68,
      "hit": false,
      "t": 202500.08099999934,
      "d": 394.7369999999937,
      "v": 91
    },
    {
      "midi": 72,
      "hit": false,
      "t": 202500.08099999934,
      "d": 394.7369999999937,
      "v": 91
    },
    {
      "midi": 65,
      "hit": false,
      "t": 202894.81799999913,
      "d": 394.7369999999937,
      "v": 95
    },
    {
      "midi": 68,
      "hit": false,
      "t": 202894.81799999933,
      "d": 394.7369999999937,
      "v": 95
    },
    {
      "midi": 73,
      "hit": false,
      "t": 202894.81799999933,
      "d": 394.7369999999937,
      "v": 95
    },
    {
      "midi": 77,
      "hit": false,
      "t": 202894.81799999933,
      "d": 789.4739999999874,
      "v": 105
    },
    {
      "midi": 65,
      "hit": false,
      "t": 203289.55499999912,
      "d": 394.7369999999937,
      "v": 98
    },
    {
      "midi": 68,
      "hit": false,
      "t": 203289.55499999932,
      "d": 394.7369999999937,
      "v": 98
    },
    {
      "midi": 73,
      "hit": false,
      "t": 203289.55499999932,
      "d": 394.7369999999937,
      "v": 98
    },
    {
      "midi": 63,
      "hit": false,
      "t": 203684.2919999991,
      "d": 394.7369999999937,
      "v": 100
    },
    {
      "midi": 66,
      "hit": false,
      "t": 203684.2919999991,
      "d": 394.7369999999937,
      "v": 100
    },
    {
      "midi": 70,
      "hit": false,
      "t": 203684.29199999932,
      "d": 394.7369999999937,
      "v": 100
    },
    {
      "midi": 78,
      "hit": false,
      "t": 203684.29199999932,
      "d": 394.7369999999937,
      "v": 110
    },
    {
      "midi": 63,
      "hit": false,
      "t": 204079.0289999991,
      "d": 394.7369999999937,
      "v": 97
    },
    {
      "midi": 66,
      "hit": false,
      "t": 204079.0289999991,
      "d": 394.7369999999937,
      "v": 97
    },
    {
      "midi": 73,
      "hit": false,
      "t": 204079.0289999993,
      "d": 197.3685000000114,
      "v": 107
    },
    {
      "midi": 70,
      "hit": false,
      "t": 204079.0289999993,
      "d": 394.7370000000228,
      "v": 97
    },
    {
      "midi": 75,
      "hit": false,
      "t": 204276.39749999932,
      "d": 197.3685000000114,
      "v": 105
    },
    {
      "midi": 53,
      "hit": false,
      "t": 204473.7659999991,
      "d": 394.7369999999937,
      "v": 93
    },
    {
      "midi": 65,
      "hit": false,
      "t": 204473.7659999991,
      "d": 394.7369999999937,
      "v": 93
    },
    {
      "midi": 69,
      "hit": false,
      "t": 204473.76599999933,
      "d": 394.7369999999937,
      "v": 93
    },
    {
      "midi": 77,
      "hit": false,
      "t": 204473.76599999933,
      "d": 394.7369999999937,
      "v": 103
    },
    {
      "midi": 53,
      "hit": false,
      "t": 204868.5029999991,
      "d": 394.7369999999937,
      "v": 90
    },
    {
      "midi": 63,
      "hit": false,
      "t": 204868.5029999991,
      "d": 394.7369999999937,
      "v": 90
    },
    {
      "midi": 69,
      "hit": false,
      "t": 204868.50299999933,
      "d": 394.7369999999937,
      "v": 90
    },
    {
      "midi": 72,
      "hit": false,
      "t": 204868.50299999933,
      "d": 394.7369999999937,
      "v": 100
    },
    {
      "midi": 58,
      "hit": false,
      "t": 205263.2399999991,
      "d": 394.7369999999937,
      "v": 86
    },
    {
      "midi": 62,
      "hit": false,
      "t": 205263.2399999991,
      "d": 394.7369999999937,
      "v": 86
    },
    {
      "midi": 68,
      "hit": false,
      "t": 205263.23999999932,
      "d": 394.7369999999937,
      "v": 86
    },
    {
      "midi": 77,
      "hit": false,
      "t": 205263.23999999932,
      "d": 394.7369999999937,
      "v": 96
    },
    {
      "midi": 58,
      "hit": false,
      "t": 205657.97699999908,
      "d": 394.7369999999937,
      "v": 83
    },
    {
      "midi": 65,
      "hit": false,
      "t": 205657.97699999908,
      "d": 394.7369999999937,
      "v": 83
    },
    {
      "midi": 72,
      "hit": false,
      "t": 205657.97699999932,
      "d": 197.3685000000114,
      "v": 93
    },
    {
      "midi": 68,
      "hit": false,
      "t": 205657.97699999932,
      "d": 394.7370000000228,
      "v": 83
    },
    {
      "midi": 74,
      "hit": false,
      "t": 205855.34549999933,
      "d": 197.3685000000114,
      "v": 91
    },
    {
      "midi": 51,
      "hit": false,
      "t": 206052.71399999908,
      "d": 394.7369999999937,
      "v": 79
    },
    {
      "midi": 63,
      "hit": false,
      "t": 206052.71399999908,
      "d": 394.7369999999937,
      "v": 79
    },
    {
      "midi": 67,
      "hit": false,
      "t": 206052.71399999934,
      "d": 394.7369999999937,
      "v": 79
    },
    {
      "midi": 75,
      "hit": false,
      "t": 206052.71399999934,
      "d": 394.7369999999937,
      "v": 89
    },
    {
      "midi": 51,
      "hit": false,
      "t": 206447.45099999907,
      "d": 394.7369999999937,
      "v": 76
    },
    {
      "midi": 61,
      "hit": false,
      "t": 206447.45099999907,
      "d": 394.7369999999937,
      "v": 76
    },
    {
      "midi": 67,
      "hit": false,
      "t": 206447.45099999933,
      "d": 394.7369999999937,
      "v": 76
    },
    {
      "midi": 70,
      "hit": false,
      "t": 206447.45099999933,
      "d": 394.7369999999937,
      "v": 86
    },
    {
      "midi": 56,
      "hit": false,
      "t": 206842.18799999906,
      "d": 394.7369999999937,
      "v": 72
    },
    {
      "midi": 60,
      "hit": false,
      "t": 206842.18799999906,
      "d": 394.7369999999937,
      "v": 72
    },
    {
      "midi": 66,
      "hit": false,
      "t": 206842.18799999933,
      "d": 394.7369999999937,
      "v": 72
    },
    {
      "midi": 75,
      "hit": false,
      "t": 206842.18799999933,
      "d": 394.7369999999937,
      "v": 82
    },
    {
      "midi": 63,
      "hit": false,
      "t": 207236.92499999906,
      "d": 394.7369999999937,
      "v": 69
    },
    {
      "midi": 56,
      "hit": false,
      "t": 207236.92499999906,
      "d": 789.4739999999874,
      "v": 69
    },
    {
      "midi": 72,
      "hit": false,
      "t": 207236.92499999932,
      "d": 197.3685000000114,
      "v": 79
    },
    {
      "midi": 66,
      "hit": false,
      "t": 207236.92499999932,
      "d": 394.7370000000228,
      "v": 69
    },
    {
      "midi": 73,
      "hit": false,
      "t": 207434.29349999933,
      "d": 197.3685000000114,
      "v": 77
    },
    {
      "midi": 65,
      "hit": false,
      "t": 207565.87249999933,
      "d": 460.5265000000363,
      "v": 66
    },
    {
      "midi": 49,
      "hit": false,
      "t": 207631.66199999905,
      "d": 394.7369999999937,
      "v": 65
    },
    {
      "midi": 61,
      "hit": false,
      "t": 207631.66199999905,
      "d": 394.7369999999937,
      "v": 65
    },
    {
      "midi": 73,
      "hit": false,
      "t": 207631.66199999934,
      "d": 78.94740000000456,
      "v": 75
    },
    {
      "midi": 75,
      "hit": false,
      "t": 207710.60939999935,
      "d": 78.94740000000456,
      "v": 75
    },
    {
      "midi": 73,
      "hit": false,
      "t": 207789.55679999935,
      "d": 78.94740000000456,
      "v": 74
    },
    {
      "midi": 72,
      "hit": false,
      "t": 207868.50419999936,
      "d": 78.94740000000456,
      "v": 73
    },
    {
      "midi": 73,
      "hit": false,
      "t": 207947.45159999936,
      "d": 78.94740000000456,
      "v": 72
    },
    {
      "midi": 55,
      "hit": false,
      "t": 208026.39899999904,
      "d": 197.3685000000114,
      "v": 62
    },
    {
      "midi": 61,
      "hit": false,
      "t": 208026.39899999904,
      "d": 197.3685000000114,
      "v": 62
    },
    {
      "midi": 63,
      "hit": false,
      "t": 208026.39899999936,
      "d": 197.3685000000114,
      "v": 62
    },
    {
      "midi": 70,
      "hit": false,
      "t": 208059.29374999937,
      "d": 197.3685000000114,
      "v": 61
    },
    {
      "midi": 77,
      "hit": false,
      "t": 208092.18849999938,
      "d": 197.3685000000114,
      "v": 71
    },
    {
      "midi": 75,
      "hit": false,
      "t": 208322.4517499994,
      "d": 98.68424999999115,
      "v": 70
    },
    {
      "midi": 44,
      "hit": false,
      "t": 208421.13599999907,
      "d": 197.3685000000114,
      "v": 60
    },
    {
      "midi": 68,
      "hit": false,
      "t": 208421.1359999994,
      "d": 1085.52674999999,
      "v": 70
    },
    {
      "midi": 56,
      "hit": false,
      "t": 208815.8729999991,
      "d": 394.7369999999937,
      "v": 67
    },
    {
      "midi": 61,
      "hit": false,
      "t": 208815.8729999991,
      "d": 394.7369999999937,
      "v": 67
    },
    {
      "midi": 63,
      "hit": false,
      "t": 208815.87299999938,
      "d": 394.7369999999937,
      "v": 67
    },
    {
      "midi": 66,
      "hit": false,
      "t": 208815.87299999938,
      "d": 394.7369999999937,
      "v": 67
    },
    {
      "midi": 56,
      "hit": false,
      "t": 209210.60999999908,
      "d": 394.7369999999937,
      "v": 74
    },
    {
      "midi": 61,
      "hit": false,
      "t": 209210.60999999908,
      "d": 394.7369999999937,
      "v": 74
    },
    {
      "midi": 63,
      "hit": false,
      "t": 209210.60999999937,
      "d": 394.7369999999937,
      "v": 74
    },
    {
      "midi": 66,
      "hit": false,
      "t": 209210.60999999937,
      "d": 394.7369999999937,
      "v": 74
    },
    {
      "midi": 70,
      "hit": false,
      "t": 209506.66274999938,
      "d": 98.68424999999115,
      "v": 90
    },
    {
      "midi": 56,
      "hit": false,
      "t": 209605.34699999908,
      "d": 394.7369999999937,
      "v": 82
    },
    {
      "midi": 61,
      "hit": false,
      "t": 209605.34699999908,
      "d": 394.7369999999937,
      "v": 82
    },
    {
      "midi": 68,
      "hit": false,
      "t": 209605.34699999937,
      "d": 296.05275000000256,
      "v": 92
    },
    {
      "midi": 63,
      "hit": false,
      "t": 209605.34699999937,
      "d": 394.7369999999937,
      "v": 82
    },
    {
      "midi": 66,
      "hit": false,
      "t": 209605.34699999937,
      "d": 394.7369999999937,
      "v": 82
    },
    {
      "midi": 69,
      "hit": false,
      "t": 209901.39974999937,
      "d": 98.68424999999115,
      "v": 98
    },
    {
      "midi": 56,
      "hit": false,
      "t": 210000.08399999907,
      "d": 394.7369999999937,
      "v": 89
    },
    {
      "midi": 61,
      "hit": false,
      "t": 210000.08399999907,
      "d": 394.7369999999937,
      "v": 89
    },
    {
      "midi": 68,
      "hit": false,
      "t": 210000.08399999936,
      "d": 296.05275000000256,
      "v": 99
    },
    {
      "midi": 63,
      "hit": false,
      "t": 210000.08399999936,
      "d": 394.7369999999937,
      "v": 89
    },
    {
      "midi": 66,
      "hit": false,
      "t": 210000.08399999936,
      "d": 394.7369999999937,
      "v": 89
    },
    {
      "midi": 70,
      "hit": false,
      "t": 210296.13674999936,
      "d": 98.68424999999115,
      "v": 105
    },
    {
      "midi": 56,
      "hit": false,
      "t": 210394.82099999906,
      "d": 394.7369999999937,
      "v": 97
    },
    {
      "midi": 61,
      "hit": false,
      "t": 210394.82099999906,
      "d": 394.7369999999937,
      "v": 97
    },
    {
      "midi": 68,
      "hit": false,
      "t": 210394.82099999936,
      "d": 296.05275000000256,
      "v": 107
    },
    {
      "midi": 63,
      "hit": false,
      "t": 210394.82099999936,
      "d": 394.7369999999937,
      "v": 97
    },
    {
      "midi": 66,
      "hit": false,
      "t": 210394.82099999936,
      "d": 394.7369999999937,
      "v": 97
    },
    {
      "midi": 69,
      "hit": false,
      "t": 210690.87374999936,
      "d": 98.68424999999115,
      "v": 110
    },
    {
      "midi": 32,
      "hit": false,
      "t": 210789.55799999906,
      "d": 197.3685000000114,
      "v": 100
    },
    {
      "midi": 68,
      "hit": false,
      "t": 210789.55799999935,
      "d": 197.3685000000114,
      "v": 110
    },
    {
      "midi": 60,
      "hit": false,
      "t": 210789.55799999935,
      "d": 394.7369999999937,
      "v": 100
    },
    {
      "midi": 66,
      "hit": false,
      "t": 210789.55799999935,
      "d": 394.7369999999937,
      "v": 100
    },
    {
      "midi": 69,
      "hit": false,
      "t": 211085.61074999935,
      "d": 98.68424999999115,
      "v": 102
    },
    {
      "midi": 56,
      "hit": false,
      "t": 211184.29499999908,
      "d": 394.7369999999937,
      "v": 89
    },
    {
      "midi": 63,
      "hit": false,
      "t": 211184.29499999908,
      "d": 394.7369999999937,
      "v": 89
    },
    {
      "midi": 70,
      "hit": false,
      "t": 211184.29499999934,
      "d": 197.3685000000114,
      "v": 99
    },
    {
      "midi": 72,
      "hit": false,
      "t": 211381.66349999935,
      "d": 197.3685000000114,
      "v": 93
    },
    {
      "midi": 75,
      "hit": false,
      "t": 211579.03199999937,
      "d": 789.4739999999874,
      "v": 87
    },
    {
      "midi": 56,
      "hit": false,
      "t": 211973.76899999907,
      "d": 394.7369999999937,
      "v": 65
    },
    {
      "midi": 60,
      "hit": false,
      "t": 211973.76899999907,
      "d": 394.7369999999937,
      "v": 65
    },
    {
      "midi": 66,
      "hit": false,
      "t": 211973.76899999936,
      "d": 394.7369999999937,
      "v": 65
    },
    {
      "midi": 68,
      "hit": false,
      "t": 211973.76899999936,
      "d": 789.4739999999874,
      "v": 65
    },
    {
      "midi": 49,
      "hit": false,
      "t": 212368.50599999906,
      "d": 394.7369999999937,
      "v": 60
    },
    {
      "midi": 61,
      "hit": false,
      "t": 212368.50599999906,
      "d": 394.7369999999937,
      "v": 60
    },
    {
      "midi": 65,
      "hit": false,
      "t": 212368.50599999935,
      "d": 394.7369999999937,
      "v": 60
    },
    {
      "midi": 73,
      "hit": false,
      "t": 212368.50599999935,
      "d": 394.7369999999937,
      "v": 70
    },
    {
      "midi": 37,
      "hit": false,
      "t": 213157.97999999905,
      "d": 197.3685000000114,
      "v": 60
    },
    {
      "midi": 77,
      "hit": false,
      "t": 213157.97999999934,
      "d": 1578.9479999999749,
      "v": 70
    },
    {
      "midi": 49,
      "hit": false,
      "t": 213552.71699999907,
      "d": 394.7369999999937,
      "v": 60
    },
    {
      "midi": 56,
      "hit": false,
      "t": 213552.71699999907,
      "d": 394.7369999999937,
      "v": 60
    },
    {
      "midi": 65,
      "hit": false,
      "t": 213552.71699999933,
      "d": 394.7369999999937,
      "v": 60
    },
    {
      "midi": 49,
      "hit": false,
      "t": 213947.45399999907,
      "d": 394.7369999999937,
      "v": 60
    },
    {
      "midi": 56,
      "hit": false,
      "t": 213947.45399999907,
      "d": 394.7369999999937,
      "v": 60
    },
    {
      "midi": 65,
      "hit": false,
      "t": 213947.45399999933,
      "d": 394.7369999999937,
      "v": 60
    },
    {
      "midi": 49,
      "hit": false,
      "t": 214342.19099999906,
      "d": 394.7369999999937,
      "v": 60
    },
    {
      "midi": 57,
      "hit": false,
      "t": 214342.19099999906,
      "d": 394.7369999999937,
      "v": 60
    },
    {
      "midi": 65,
      "hit": false,
      "t": 214342.19099999932,
      "d": 394.7369999999937,
      "v": 60
    },
    {
      "midi": 49,
      "hit": false,
      "t": 214736.92799999905,
      "d": 394.7369999999937,
      "v": 60
    },
    {
      "midi": 58,
      "hit": false,
      "t": 214736.92799999905,
      "d": 394.7369999999937,
      "v": 60
    },
    {
      "midi": 77,
      "hit": false,
      "t": 214736.92799999932,
      "d": 263.1579999999958,
      "v": 70
    },
    {
      "midi": 66,
      "hit": false,
      "t": 214736.92799999932,
      "d": 394.7369999999937,
      "v": 60
    },
    {
      "midi": 73,
      "hit": false,
      "t": 215000.0859999993,
      "d": 263.1579999999958,
      "v": 70
    },
    {
      "midi": 49,
      "hit": false,
      "t": 215131.66499999905,
      "d": 394.7369999999937,
      "v": 60
    },
    {
      "midi": 60,
      "hit": false,
      "t": 215131.66499999905,
      "d": 394.7369999999937,
      "v": 60
    },
    {
      "midi": 66,
      "hit": false,
      "t": 215131.6649999993,
      "d": 394.7369999999937,
      "v": 60
    },
    {
      "midi": 70,
      "hit": false,
      "t": 215263.2439999993,
      "d": 263.1579999999958,
      "v": 70
    },
    {
      "midi": 49,
      "hit": false,
      "t": 215526.40199999904,
      "d": 394.7369999999937,
      "v": 60
    },
    {
      "midi": 61,
      "hit": false,
      "t": 215526.40199999904,
      "d": 394.7369999999937,
      "v": 60
    },
    {
      "midi": 65,
      "hit": false,
      "t": 215526.4019999993,
      "d": 394.7369999999937,
      "v": 60
    },
    {
      "midi": 68,
      "hit": false,
      "t": 215526.4019999993,
      "d": 921.0529999999853,
      "v": 70
    },
    {
      "midi": 49,
      "hit": false,
      "t": 215921.13899999904,
      "d": 394.7369999999937,
      "v": 60
    },
    {
      "midi": 61,
      "hit": false,
      "t": 215921.13899999904,
      "d": 394.7369999999937,
      "v": 60
    },
    {
      "midi": 65,
      "hit": false,
      "t": 215921.1389999993,
      "d": 394.7369999999937,
      "v": 60
    },
    {
      "midi": 49,
      "hit": false,
      "t": 216315.87599999903,
      "d": 394.7369999999937,
      "v": 60
    },
    {
      "midi": 61,
      "hit": false,
      "t": 216315.87599999903,
      "d": 394.7369999999937,
      "v": 60
    },
    {
      "midi": 65,
      "hit": false,
      "t": 216315.8759999993,
      "d": 394.7369999999937,
      "v": 60
    },
    {
      "midi": 68,
      "hit": false,
      "t": 216447.4549999993,
      "d": 131.5789999999979,
      "v": 70
    },
    {
      "midi": 70,
      "hit": false,
      "t": 216579.0339999993,
      "d": 131.5789999999979,
      "v": 70
    },
    {
      "midi": 49,
      "hit": false,
      "t": 216710.61299999902,
      "d": 394.7369999999937,
      "v": 60
    },
    {
      "midi": 61,
      "hit": false,
      "t": 216710.61299999902,
      "d": 394.7369999999937,
      "v": 60
    },
    {
      "midi": 68,
      "hit": false,
      "t": 216710.61299999928,
      "d": 131.5789999999979,
      "v": 70
    },
    {
      "midi": 65,
      "hit": false,
      "t": 216710.61299999928,
      "d": 394.7369999999937,
      "v": 60
    },
    {
      "midi": 67,
      "hit": false,
      "t": 216842.19199999928,
      "d": 131.5789999999979,
      "v": 70
    },
    {
      "midi": 68,
      "hit": false,
      "t": 216973.77099999928,
      "d": 131.5789999999979,
      "v": 70
    },
    {
      "midi": 55,
      "hit": false,
      "t": 217105.34999999902,
      "d": 394.7369999999937,
      "v": 60
    },
    {
      "midi": 61,
      "hit": false,
      "t": 217105.34999999902,
      "d": 394.7369999999937,
      "v": 60
    },
    {
      "midi": 64,
      "hit": false,
      "t": 217105.34999999928,
      "d": 394.7369999999937,
      "v": 60
    },
    {
      "midi": 72,
      "hit": false,
      "t": 217105.34999999928,
      "d": 592.1055000000051,
      "v": 70
    },
    {
      "midi": 55,
      "hit": false,
      "t": 217500.086999999,
      "d": 394.7369999999937,
      "v": 60
    },
    {
      "midi": 61,
      "hit": false,
      "t": 217500.086999999,
      "d": 394.7369999999937,
      "v": 60
    },
    {
      "midi": 64,
      "hit": false,
      "t": 217500.08699999927,
      "d": 394.7370000000228,
      "v": 60
    },
    {
      "midi": 70,
      "hit": false,
      "t": 217697.45549999928,
      "d": 197.3685000000114,
      "v": 70
    },
    {
      "midi": 56,
      "hit": false,
      "t": 217894.823999999,
      "d": 394.7369999999937,
      "v": 60
    },
    {
      "midi": 61,
      "hit": false,
      "t": 217894.8239999993,
      "d": 394.7369999999937,
      "v": 60
    },
    {
      "midi": 63,
      "hit": false,
      "t": 217894.8239999993,
      "d": 1184.2109999999811,
      "v": 70
    },
    {
      "midi": 56,
      "hit": false,
      "t": 218289.560999999,
      "d": 394.7369999999937,
      "v": 60
    },
    {
      "midi": 61,
      "hit": false,
      "t": 218289.5609999993,
      "d": 394.7369999999937,
      "v": 60
    },
    {
      "midi": 56,
      "hit": false,
      "t": 218684.297999999,
      "d": 394.7369999999937,
      "v": 60
    },
    {
      "midi": 61,
      "hit": false,
      "t": 218684.29799999928,
      "d": 394.7369999999937,
      "v": 60
    },
    {
      "midi": 56,
      "hit": false,
      "t": 219079.03499999898,
      "d": 394.7369999999937,
      "v": 60
    },
    {
      "midi": 63,
      "hit": false,
      "t": 219079.03499999928,
      "d": 131.5789999999979,
      "v": 70
    },
    {
      "midi": 61,
      "hit": false,
      "t": 219079.03499999928,
      "d": 394.7369999999937,
      "v": 60
    },
    {
      "midi": 65,
      "hit": false,
      "t": 219210.61399999927,
      "d": 131.5789999999979,
      "v": 70
    },
    {
      "midi": 66,
      "hit": false,
      "t": 219342.19299999927,
      "d": 131.5789999999979,
      "v": 70
    },
    {
      "midi": 56,
      "hit": false,
      "t": 219473.77199999898,
      "d": 394.7369999999937,
      "v": 60
    },
    {
      "midi": 44,
      "hit": false,
      "t": 219473.77199999898,
      "d": 789.4739999999874,
      "v": 70
    },
    {
      "midi": 60,
      "hit": false,
      "t": 219473.77199999927,
      "d": 394.7369999999937,
      "v": 60
    },
    {
      "midi": 66,
      "hit": false,
      "t": 219473.77199999927,
      "d": 592.1055000000051,
      "v": 70
    },
    {
      "midi": 70,
      "hit": false,
      "t": 219473.77199999927,
      "d": 592.1055000000051,
      "v": 70
    },
    {
      "midi": 56,
      "hit": false,
      "t": 219868.50899999897,
      "d": 394.7369999999937,
      "v": 60
    },
    {
      "midi": 60,
      "hit": false,
      "t": 219868.50899999926,
      "d": 394.7370000000228,
      "v": 60
    },
    {
      "midi": 65,
      "hit": false,
      "t": 220065.87749999927,
      "d": 197.3685000000114,
      "v": 70
    },
    {
      "midi": 68,
      "hit": false,
      "t": 220065.87749999927,
      "d": 197.3685000000114,
      "v": 70
    },
    {
      "midi": 56,
      "hit": false,
      "t": 220263.24599999897,
      "d": 394.7369999999937,
      "v": 60
    },
    {
      "midi": 44,
      "hit": false,
      "t": 220263.24599999897,
      "d": 789.4739999999874,
      "v": 70
    },
    {
      "midi": 60,
      "hit": false,
      "t": 220263.2459999993,
      "d": 394.7369999999937,
      "v": 60
    },
    {
      "midi": 63,
      "hit": false,
      "t": 220263.2459999993,
      "d": 789.4739999999874,
      "v": 70
    },
    {
      "midi": 56,
      "hit": false,
      "t": 220657.98299999896,
      "d": 394.7369999999937,
      "v": 60
    },
    {
      "midi": 60,
      "hit": false,
      "t": 220657.98299999928,
      "d": 394.7369999999937,
      "v": 60
    },
    {
      "midi": 68,
      "hit": false,
      "t": 220855.3514999993,
      "d": 98.68424999999115,
      "v": 70
    },
    {
      "midi": 66,
      "hit": false,
      "t": 220954.03574999928,
      "d": 98.68424999999115,
      "v": 70
    },
    {
      "midi": 56,
      "hit": false,
      "t": 221052.71999999895,
      "d": 394.7369999999937,
      "v": 60
    },
    {
      "midi": 49,
      "hit": false,
      "t": 221052.71999999895,
      "d": 789.4739999999874,
      "v": 70
    },
    {
      "midi": 61,
      "hit": false,
      "t": 221052.71999999927,
      "d": 394.7369999999937,
      "v": 60
    },
    {
      "midi": 65,
      "hit": false,
      "t": 221052.71999999927,
      "d": 789.4739999999874,
      "v": 70
    },
    {
      "midi": 56,
      "hit": false,
      "t": 221447.45699999895,
      "d": 394.7369999999937,
      "v": 60
    },
    {
      "midi": 61,
      "hit": false,
      "t": 221447.45699999927,
      "d": 394.7369999999937,
      "v": 60
    },
    {
      "midi": 59,
      "hit": false,
      "t": 221842.19399999894,
      "d": 394.7369999999937,
      "v": 60
    },
    {
      "midi": 61,
      "hit": false,
      "t": 221842.19399999926,
      "d": 394.7369999999937,
      "v": 60
    },
    {
      "midi": 59,
      "hit": false,
      "t": 222236.93099999893,
      "d": 394.7369999999937,
      "v": 60
    },
    {
      "midi": 61,
      "hit": false,
      "t": 222236.93099999925,
      "d": 394.7369999999937,
      "v": 60
    },
    {
      "midi": 58,
      "hit": false,
      "t": 222631.66799999893,
      "d": 394.7369999999937,
      "v": 60
    },
    {
      "midi": 61,
      "hit": false,
      "t": 222631.66799999893,
      "d": 394.7369999999937,
      "v": 60
    },
    {
      "midi": 66,
      "hit": false,
      "t": 222631.66799999925,
      "d": 394.7369999999937,
      "v": 60
    },
    {
      "midi": 58,
      "hit": false,
      "t": 223026.40499999892,
      "d": 394.7369999999937,
      "v": 63
    },
    {
      "midi": 61,
      "hit": false,
      "t": 223026.40499999892,
      "d": 394.7369999999937,
      "v": 63
    },
    {
      "midi": 73,
      "hit": false,
      "t": 223026.40499999924,
      "d": 78.94740000000456,
      "v": 73
    },
    {
      "midi": 66,
      "hit": false,
      "t": 223026.40499999924,
      "d": 394.7370000000228,
      "v": 63
    },
    {
      "midi": 75,
      "hit": false,
      "t": 223105.35239999925,
      "d": 78.94740000000456,
      "v": 74
    },
    {
      "midi": 73,
      "hit": false,
      "t": 223184.29979999925,
      "d": 78.94740000000456,
      "v": 74
    },
    {
      "midi": 72,
      "hit": false,
      "t": 223263.24719999926,
      "d": 78.94740000000456,
      "v": 75
    },
    {
      "midi": 73,
      "hit": false,
      "t": 223342.19459999926,
      "d": 78.94740000000456,
      "v": 76
    },
    {
      "midi": 57,
      "hit": false,
      "t": 223421.14199999892,
      "d": 394.7369999999937,
      "v": 67
    },
    {
      "midi": 61,
      "hit": false,
      "t": 223421.14199999892,
      "d": 394.7369999999937,
      "v": 67
    },
    {
      "midi": 66,
      "hit": false,
      "t": 223421.14199999926,
      "d": 394.7369999999937,
      "v": 67
    },
    {
      "midi": 78,
      "hit": false,
      "t": 223421.14199999926,
      "d": 789.4739999999874,
      "v": 77
    },
    {
      "midi": 57,
      "hit": false,
      "t": 223815.8789999989,
      "d": 394.7369999999937,
      "v": 70
    },
    {
      "midi": 61,
      "hit": false,
      "t": 223815.8789999989,
      "d": 394.7369999999937,
      "v": 70
    },
    {
      "midi": 66,
      "hit": false,
      "t": 223815.87899999926,
      "d": 394.7369999999937,
      "v": 70
    },
    {
      "midi": 73,
      "hit": false,
      "t": 223815.87899999926,
      "d": 789.4739999999874,
      "v": 80
    },
    {
      "midi": 56,
      "hit": false,
      "t": 224210.6159999989,
      "d": 394.7369999999937,
      "v": 74
    },
    {
      "midi": 61,
      "hit": false,
      "t": 224210.6159999989,
      "d": 394.7369999999937,
      "v": 74
    },
    {
      "midi": 68,
      "hit": false,
      "t": 224210.61599999925,
      "d": 394.7369999999937,
      "v": 74
    },
    {
      "midi": 77,
      "hit": false,
      "t": 224210.61599999925,
      "d": 789.4739999999874,
      "v": 84
    },
    {
      "midi": 56,
      "hit": false,
      "t": 224605.3529999989,
      "d": 394.7369999999937,
      "v": 77
    },
    {
      "midi": 61,
      "hit": false,
      "t": 224605.3529999989,
      "d": 394.7369999999937,
      "v": 77
    },
    {
      "midi": 68,
      "hit": false,
      "t": 224605.35299999925,
      "d": 394.7369999999937,
      "v": 77
    },
    {
      "midi": 73,
      "hit": false,
      "t": 224605.35299999925,
      "d": 394.7369999999937,
      "v": 87
    },
    {
      "midi": 55,
      "hit": false,
      "t": 225000.0899999989,
      "d": 394.7369999999937,
      "v": 81
    },
    {
      "midi": 63,
      "hit": false,
      "t": 225000.0899999989,
      "d": 394.7369999999937,
      "v": 81
    },
    {
      "midi": 74,
      "hit": false,
      "t": 225000.08999999924,
      "d": 131.5789999999979,
      "v": 91
    },
    {
      "midi": 70,
      "hit": false,
      "t": 225000.08999999924,
      "d": 394.7369999999937,
      "v": 81
    },
    {
      "midi": 75,
      "hit": false,
      "t": 225131.66899999924,
      "d": 131.5789999999979,
      "v": 92
    },
    {
      "midi": 77,
      "hit": false,
      "t": 225263.24799999924,
      "d": 131.5789999999979,
      "v": 93
    },
    {
      "midi": 55,
      "hit": false,
      "t": 225394.82699999888,
      "d": 394.7369999999937,
      "v": 84
    },
    {
      "midi": 63,
      "hit": false,
      "t": 225394.82699999888,
      "d": 394.7369999999937,
      "v": 84
    },
    {
      "midi": 75,
      "hit": false,
      "t": 225394.82699999923,
      "d": 131.5789999999979,
      "v": 94
    },
    {
      "midi": 70,
      "hit": false,
      "t": 225394.82699999923,
      "d": 394.7369999999937,
      "v": 84
    },
    {
      "midi": 74,
      "hit": false,
      "t": 225526.40599999923,
      "d": 131.5789999999979,
      "v": 95
    },
    {
      "midi": 75,
      "hit": false,
      "t": 225657.98499999923,
      "d": 131.5789999999979,
      "v": 97
    },
    {
      "midi": 54,
      "hit": false,
      "t": 225789.56399999888,
      "d": 394.7369999999937,
      "v": 88
    },
    {
      "midi": 63,
      "hit": false,
      "t": 225789.56399999888,
      "d": 394.7369999999937,
      "v": 88
    },
    {
      "midi": 72,
      "hit": false,
      "t": 225789.56399999923,
      "d": 394.7369999999937,
      "v": 88
    },
    {
      "midi": 82,
      "hit": false,
      "t": 225789.56399999923,
      "d": 1184.2109999999811,
      "v": 98
    },
    {
      "midi": 54,
      "hit": false,
      "t": 226184.30099999887,
      "d": 394.7369999999937,
      "v": 91
    },
    {
      "midi": 56,
      "hit": false,
      "t": 226184.30099999887,
      "d": 394.7369999999937,
      "v": 91
    },
    {
      "midi": 63,
      "hit": false,
      "t": 226184.30099999887,
      "d": 394.7369999999937,
      "v": 91
    },
    {
      "midi": 72,
      "hit": false,
      "t": 226184.30099999922,
      "d": 394.7369999999937,
      "v": 91
    },
    {
      "midi": 53,
      "hit": false,
      "t": 226579.03799999887,
      "d": 394.7369999999937,
      "v": 95
    },
    {
      "midi": 56,
      "hit": false,
      "t": 226579.03799999887,
      "d": 394.7369999999937,
      "v": 95
    },
    {
      "midi": 61,
      "hit": false,
      "t": 226579.03799999887,
      "d": 394.7369999999937,
      "v": 95
    },
    {
      "midi": 73,
      "hit": false,
      "t": 226579.03799999921,
      "d": 394.7369999999937,
      "v": 95
    },
    {
      "midi": 52,
      "hit": false,
      "t": 226973.77499999886,
      "d": 394.7369999999937,
      "v": 98
    },
    {
      "midi": 56,
      "hit": false,
      "t": 226973.77499999886,
      "d": 394.7369999999937,
      "v": 98
    },
    {
      "midi": 61,
      "hit": false,
      "t": 226973.77499999886,
      "d": 394.7369999999937,
      "v": 98
    },
    {
      "midi": 73,
      "hit": false,
      "t": 226973.7749999992,
      "d": 394.7369999999937,
      "v": 98
    },
    {
      "midi": 80,
      "hit": false,
      "t": 226973.7749999992,
      "d": 394.7369999999937,
      "v": 108
    },
    {
      "midi": 39,
      "hit": false,
      "t": 227368.51199999885,
      "d": 394.7369999999937,
      "v": 100
    },
    {
      "midi": 51,
      "hit": false,
      "t": 227368.51199999885,
      "d": 394.7369999999937,
      "v": 100
    },
    {
      "midi": 73,
      "hit": false,
      "t": 227368.5119999992,
      "d": 394.7369999999937,
      "v": 100
    },
    {
      "midi": 79,
      "hit": false,
      "t": 227368.5119999992,
      "d": 394.7369999999937,
      "v": 100
    },
    {
      "midi": 85,
      "hit": false,
      "t": 227368.5119999992,
      "d": 394.7369999999937,
      "v": 110
    },
    {
      "midi": 79,
      "hit": false,
      "t": 227763.2489999992,
      "d": 394.7369999999937,
      "v": 100
    },
    {
      "midi": 89,
      "hit": false,
      "t": 227763.2489999992,
      "d": 592.1055000000051,
      "v": 110
    },
    {
      "midi": 63,
      "hit": false,
      "t": 227763.2489999993,
      "d": 394.7369999999937,
      "v": 100
    },
    {
      "midi": 70,
      "hit": false,
      "t": 227763.2489999993,
      "d": 394.7369999999937,
      "v": 100
    },
    {
      "midi": 73,
      "hit": false,
      "t": 227763.2489999993,
      "d": 394.7369999999937,
      "v": 100
    },
    {
      "midi": 79,
      "hit": false,
      "t": 228157.9859999992,
      "d": 394.7370000000228,
      "v": 100
    },
    {
      "midi": 63,
      "hit": false,
      "t": 228157.9859999993,
      "d": 394.7369999999937,
      "v": 100
    },
    {
      "midi": 70,
      "hit": false,
      "t": 228157.9859999993,
      "d": 394.7369999999937,
      "v": 100
    },
    {
      "midi": 73,
      "hit": false,
      "t": 228157.9859999993,
      "d": 394.7369999999937,
      "v": 100
    },
    {
      "midi": 88,
      "hit": false,
      "t": 228355.3544999992,
      "d": 197.3685000000114,
      "v": 110
    },
    {
      "midi": 87,
      "hit": false,
      "t": 228552.7229999992,
      "d": 197.3685000000114,
      "v": 110
    },
    {
      "midi": 79,
      "hit": false,
      "t": 228552.7229999992,
      "d": 394.7370000000228,
      "v": 100
    },
    {
      "midi": 63,
      "hit": false,
      "t": 228552.7229999993,
      "d": 394.7369999999937,
      "v": 100
    },
    {
      "midi": 70,
      "hit": false,
      "t": 228552.7229999993,
      "d": 394.7369999999937,
      "v": 100
    },
    {
      "midi": 73,
      "hit": false,
      "t": 228552.7229999993,
      "d": 394.7369999999937,
      "v": 100
    },
    {
      "midi": 86,
      "hit": false,
      "t": 228750.09149999922,
      "d": 197.3685000000114,
      "v": 110
    },
    {
      "midi": 89,
      "hit": false,
      "t": 228947.45999999924,
      "d": 197.3685000000114,
      "v": 110
    },
    {
      "midi": 79,
      "hit": false,
      "t": 228947.45999999924,
      "d": 394.7370000000228,
      "v": 100
    },
    {
      "midi": 63,
      "hit": false,
      "t": 228947.4599999993,
      "d": 394.7369999999937,
      "v": 100
    },
    {
      "midi": 70,
      "hit": false,
      "t": 228947.4599999993,
      "d": 394.7369999999937,
      "v": 100
    },
    {
      "midi": 73,
      "hit": false,
      "t": 228947.4599999993,
      "d": 394.7369999999937,
      "v": 100
    },
    {
      "midi": 87,
      "hit": false,
      "t": 229144.82849999925,
      "d": 197.3685000000114,
      "v": 110
    },
    {
      "midi": 86,
      "hit": false,
      "t": 229342.19699999926,
      "d": 197.3685000000114,
      "v": 110
    },
    {
      "midi": 79,
      "hit": false,
      "t": 229342.19699999926,
      "d": 394.7370000000228,
      "v": 100
    },
    {
      "midi": 63,
      "hit": false,
      "t": 229342.1969999993,
      "d": 394.7369999999937,
      "v": 100
    },
    {
      "midi": 70,
      "hit": false,
      "t": 229342.1969999993,
      "d": 394.7369999999937,
      "v": 100
    },
    {
      "midi": 73,
      "hit": false,
      "t": 229342.1969999993,
      "d": 394.7369999999937,
      "v": 100
    },
    {
      "midi": 85,
      "hit": false,
      "t": 229539.56549999927,
      "d": 197.3685000000114,
      "v": 110
    },
    {
      "midi": 32,
      "hit": false,
      "t": 229736.93399999884,
      "d": 197.3685000000114,
      "v": 110
    },
    {
      "midi": 84,
      "hit": false,
      "t": 229736.93399999928,
      "d": 394.7369999999937,
      "v": 110
    },
    {
      "midi": 72,
      "hit": false,
      "t": 229868.51299999928,
      "d": 131.5789999999979,
      "v": 98
    },
    {
      "midi": 78,
      "hit": false,
      "t": 230000.09199999928,
      "d": 657.8949999999895,
      "v": 96
    },
    {
      "midi": 56,
      "hit": false,
      "t": 230131.67099999887,
      "d": 394.7369999999937,
      "v": 93
    },
    {
      "midi": 63,
      "hit": false,
      "t": 230131.67099999887,
      "d": 394.7369999999937,
      "v": 93
    },
    {
      "midi": 66,
      "hit": false,
      "t": 230131.67099999887,
      "d": 394.7369999999937,
      "v": 93
    },
    {
      "midi": 84,
      "hit": false,
      "t": 230131.67099999927,
      "d": 131.5789999999979,
      "v": 103
    },
    {
      "midi": 85,
      "hit": false,
      "t": 230263.24999999927,
      "d": 131.5789999999979,
      "v": 101
    },
    {
      "midi": 84,
      "hit": false,
      "t": 230394.82899999927,
      "d": 131.5789999999979,
      "v": 98
    },
    {
      "midi": 44,
      "hit": false,
      "t": 230526.40799999886,
      "d": 197.3685000000114,
      "v": 96
    },
    {
      "midi": 82,
      "hit": false,
      "t": 230526.40799999927,
      "d": 394.7369999999937,
      "v": 96
    },
    {
      "midi": 72,
      "hit": false,
      "t": 230657.98699999927,
      "d": 131.5789999999979,
      "v": 83
    },
    {
      "midi": 78,
      "hit": false,
      "t": 230789.56599999926,
      "d": 526.3159999999916,
      "v": 81
    },
    {
      "midi": 56,
      "hit": false,
      "t": 230921.14499999888,
      "d": 394.7369999999937,
      "v": 78
    },
    {
      "midi": 63,
      "hit": false,
      "t": 230921.14499999888,
      "d": 394.7369999999937,
      "v": 78
    },
    {
      "midi": 66,
      "hit": false,
      "t": 230921.14499999888,
      "d": 394.7369999999937,
      "v": 78
    },
    {
      "midi": 82,
      "hit": false,
      "t": 230921.14499999926,
      "d": 131.5789999999979,
      "v": 88
    },
    {
      "midi": 84,
      "hit": false,
      "t": 231052.72399999926,
      "d": 131.5789999999979,
      "v": 86
    },
    {
      "midi": 82,
      "hit": false,
      "t": 231184.30299999926,
      "d": 131.5789999999979,
      "v": 83
    },
    {
      "midi": 32,
      "hit": false,
      "t": 231315.88199999888,
      "d": 197.3685000000114,
      "v": 81
    },
    {
      "midi": 77,
      "hit": false,
      "t": 231315.88199999926,
      "d": 131.5789999999979,
      "v": 71
    },
    {
      "midi": 80,
      "hit": false,
      "t": 231315.88199999926,
      "d": 394.7369999999937,
      "v": 81
    },
    {
      "midi": 72,
      "hit": false,
      "t": 231447.46099999925,
      "d": 131.5789999999979,
      "v": 68
    },
    {
      "midi": 77,
      "hit": false,
      "t": 231579.03999999925,
      "d": 131.5789999999979,
      "v": 66
    },
    {
      "midi": 56,
      "hit": false,
      "t": 231710.6189999989,
      "d": 394.7369999999937,
      "v": 63
    },
    {
      "midi": 68,
      "hit": false,
      "t": 231710.6189999989,
      "d": 394.7369999999937,
      "v": 63
    },
    {
      "midi": 75,
      "hit": false,
      "t": 231710.61899999925,
      "d": 131.5789999999979,
      "v": 63
    },
    {
      "midi": 78,
      "hit": false,
      "t": 231710.61899999925,
      "d": 131.5789999999979,
      "v": 73
    },
    {
      "midi": 77,
      "hit": false,
      "t": 231842.19799999925,
      "d": 131.5789999999979,
      "v": 61
    },
    {
      "midi": 80,
      "hit": false,
      "t": 231842.19799999925,
      "d": 131.5789999999979,
      "v": 71
    },
    {
      "midi": 75,
      "hit": false,
      "t": 231973.77699999925,
      "d": 131.5789999999979,
      "v": 60
    },
    {
      "midi": 78,
      "hit": false,
      "t": 231973.77699999925,
      "d": 131.5789999999979,
      "v": 70
    },
    {
      "midi": 25,
      "hit": false,
      "t": 232105.3559999989,
      "d": 197.3685000000114,
      "v": 70
    },
    {
      "midi": 77,
      "hit": false,
      "t": 232105.35599999924,
      "d": 1578.9479999999749,
      "v": 70
    },
    {
      "midi": 49,
      "hit": false,
      "t": 232500.09299999892,
      "d": 394.7369999999937,
      "v": 60
    },
    {
      "midi": 56,
      "hit": false,
      "t": 232500.09299999892,
      "d": 394.7369999999937,
      "v": 60
    },
    {
      "midi": 65,
      "hit": false,
      "t": 232500.09299999924,
      "d": 394.7369999999937,
      "v": 60
    },
    {
      "midi": 49,
      "hit": false,
      "t": 232894.8299999989,
      "d": 394.7369999999937,
      "v": 60
    },
    {
      "midi": 56,
      "hit": false,
      "t": 232894.8299999989,
      "d": 394.7369999999937,
      "v": 60
    },
    {
      "midi": 65,
      "hit": false,
      "t": 232894.82999999923,
      "d": 394.7369999999937,
      "v": 60
    },
    {
      "midi": 49,
      "hit": false,
      "t": 233289.5669999989,
      "d": 394.7369999999937,
      "v": 60
    },
    {
      "midi": 57,
      "hit": false,
      "t": 233289.5669999989,
      "d": 394.7369999999937,
      "v": 60
    },
    {
      "midi": 65,
      "hit": false,
      "t": 233289.56699999922,
      "d": 394.7369999999937,
      "v": 60
    },
    {
      "midi": 49,
      "hit": false,
      "t": 233684.3039999989,
      "d": 394.7369999999937,
      "v": 60
    },
    {
      "midi": 58,
      "hit": false,
      "t": 233684.3039999989,
      "d": 394.7369999999937,
      "v": 60
    },
    {
      "midi": 74,
      "hit": false,
      "t": 233684.30399999922,
      "d": 98.68424999999115,
      "v": 70
    },
    {
      "midi": 66,
      "hit": false,
      "t": 233684.30399999922,
      "d": 394.7369999999646,
      "v": 60
    },
    {
      "midi": 75,
      "hit": false,
      "t": 233782.9882499992,
      "d": 98.68424999999115,
      "v": 70
    },
    {
      "midi": 77,
      "hit": false,
      "t": 233881.6724999992,
      "d": 98.68424999999115,
      "v": 70
    },
    {
      "midi": 75,
      "hit": false,
      "t": 233980.3567499992,
      "d": 98.68424999999115,
      "v": 70
    },
    {
      "midi": 60,
      "hit": false,
      "t": 234079.0409999989,
      "d": 394.7369999999937,
      "v": 60
    },
    {
      "midi": 49,
      "hit": false,
      "t": 234079.0409999989,
      "d": 789.4739999999874,
      "v": 60
    },
    {
      "midi": 78,
      "hit": false,
      "t": 234079.04099999918,
      "d": 65.7895000000135,
      "v": 70
    },
    {
      "midi": 66,
      "hit": false,
      "t": 234079.04099999918,
      "d": 394.737000000081,
      "v": 60
    },
    {
      "midi": 77,
      "hit": false,
      "t": 234144.8304999992,
      "d": 65.7895000000135,
      "v": 70
    },
    {
      "midi": 75,
      "hit": false,
      "t": 234210.6199999992,
      "d": 65.7895000000135,
      "v": 70
    },
    {
      "midi": 73,
      "hit": false,
      "t": 234276.40949999922,
      "d": 65.7895000000135,
      "v": 70
    },
    {
      "midi": 72,
      "hit": false,
      "t": 234342.19899999924,
      "d": 65.7895000000135,
      "v": 70
    },
    {
      "midi": 70,
      "hit": false,
      "t": 234407.98849999925,
      "d": 65.7895000000135,
      "v": 70
    },
    {
      "midi": 61,
      "hit": false,
      "t": 234473.77799999889,
      "d": 394.7369999999937,
      "v": 60
    },
    {
      "midi": 65,
      "hit": false,
      "t": 234473.77799999926,
      "d": 394.7369999999937,
      "v": 60
    },
    {
      "midi": 68,
      "hit": false,
      "t": 234473.77799999926,
      "d": 789.4739999999874,
      "v": 70
    },
    {
      "midi": 61,
      "hit": false,
      "t": 234868.51499999888,
      "d": 394.7369999999937,
      "v": 60
    },
    {
      "midi": 65,
      "hit": false,
      "t": 234868.51499999926,
      "d": 394.7369999999937,
      "v": 60
    },
    {
      "midi": 61,
      "hit": false,
      "t": 235263.25199999887,
      "d": 394.7369999999937,
      "v": 60
    },
    {
      "midi": 64,
      "hit": false,
      "t": 235263.25199999925,
      "d": 394.7369999999937,
      "v": 60
    },
    {
      "midi": 69,
      "hit": false,
      "t": 235263.25199999925,
      "d": 789.4739999999874,
      "v": 70
    },
    {
      "midi": 61,
      "hit": false,
      "t": 235657.98899999887,
      "d": 394.7369999999937,
      "v": 60
    },
    {
      "midi": 64,
      "hit": false,
      "t": 235657.98899999924,
      "d": 394.7369999999937,
      "v": 60
    },
    {
      "midi": 60,
      "hit": false,
      "t": 236052.72599999886,
      "d": 394.7369999999937,
      "v": 60
    },
    {
      "midi": 62,
      "hit": false,
      "t": 236052.72599999924,
      "d": 394.7369999999937,
      "v": 60
    },
    {
      "midi": 66,
      "hit": false,
      "t": 236052.72599999924,
      "d": 394.7369999999937,
      "v": 60
    },
    {
      "midi": 69,
      "hit": false,
      "t": 236052.72599999924,
      "d": 789.4739999999874,
      "v": 70
    },
    {
      "midi": 60,
      "hit": false,
      "t": 236447.46299999885,
      "d": 394.7369999999937,
      "v": 60
    },
    {
      "midi": 62,
      "hit": false,
      "t": 236447.46299999923,
      "d": 394.7369999999937,
      "v": 60
    },
    {
      "midi": 66,
      "hit": false,
      "t": 236447.46299999923,
      "d": 394.7369999999937,
      "v": 60
    },
    {
      "midi": 59,
      "hit": false,
      "t": 236842.19999999885,
      "d": 394.7369999999937,
      "v": 60
    },
    {
      "midi": 62,
      "hit": false,
      "t": 236842.19999999923,
      "d": 394.7369999999937,
      "v": 60
    },
    {
      "midi": 67,
      "hit": false,
      "t": 236842.19999999923,
      "d": 394.7369999999937,
      "v": 60
    },
    {
      "midi": 74,
      "hit": false,
      "t": 236842.19999999923,
      "d": 789.4739999999874,
      "v": 70
    },
    {
      "midi": 59,
      "hit": false,
      "t": 237236.93699999884,
      "d": 394.7369999999937,
      "v": 63
    },
    {
      "midi": 62,
      "hit": false,
      "t": 237236.93699999922,
      "d": 394.7369999999937,
      "v": 63
    },
    {
      "midi": 67,
      "hit": false,
      "t": 237236.93699999922,
      "d": 394.7369999999937,
      "v": 63
    },
    {
      "midi": 58,
      "hit": false,
      "t": 237631.67399999883,
      "d": 394.7369999999937,
      "v": 67
    },
    {
      "midi": 64,
      "hit": false,
      "t": 237631.6739999992,
      "d": 394.7369999999937,
      "v": 67
    },
    {
      "midi": 67,
      "hit": false,
      "t": 237631.6739999992,
      "d": 394.7369999999937,
      "v": 67
    },
    {
      "midi": 73,
      "hit": false,
      "t": 237631.6739999992,
      "d": 789.4739999999874,
      "v": 77
    },
    {
      "midi": 57,
      "hit": false,
      "t": 238026.41099999883,
      "d": 394.7369999999937,
      "v": 70
    },
    {
      "midi": 64,
      "hit": false,
      "t": 238026.4109999992,
      "d": 394.7369999999937,
      "v": 70
    },
    {
      "midi": 67,
      "hit": false,
      "t": 238026.4109999992,
      "d": 394.7369999999937,
      "v": 70
    },
    {
      "midi": 56,
      "hit": false,
      "t": 238421.14799999882,
      "d": 394.7369999999937,
      "v": 74
    },
    {
      "midi": 65,
      "hit": false,
      "t": 238421.1479999992,
      "d": 394.7369999999937,
      "v": 74
    },
    {
      "midi": 68,
      "hit": false,
      "t": 238421.1479999992,
      "d": 394.7369999999937,
      "v": 74
    },
    {
      "midi": 73,
      "hit": false,
      "t": 238421.1479999992,
      "d": 789.4739999999874,
      "v": 84
    },
    {
      "midi": 55,
      "hit": false,
      "t": 238815.88499999882,
      "d": 394.7369999999937,
      "v": 77
    },
    {
      "midi": 64,
      "hit": false,
      "t": 238815.8849999992,
      "d": 394.7369999999937,
      "v": 77
    },
    {
      "midi": 70,
      "hit": false,
      "t": 238815.8849999992,
      "d": 394.7369999999937,
      "v": 77
    },
    {
      "midi": 54,
      "hit": false,
      "t": 239210.6219999988,
      "d": 394.7369999999937,
      "v": 81
    },
    {
      "midi": 63,
      "hit": false,
      "t": 239210.6219999992,
      "d": 394.7369999999937,
      "v": 81
    },
    {
      "midi": 69,
      "hit": false,
      "t": 239210.6219999992,
      "d": 394.7369999999937,
      "v": 81
    },
    {
      "midi": 73,
      "hit": false,
      "t": 239210.6219999992,
      "d": 394.7369999999937,
      "v": 91
    },
    {
      "midi": 54,
      "hit": false,
      "t": 239605.3589999988,
      "d": 394.7369999999937,
      "v": 84
    },
    {
      "midi": 72,
      "hit": false,
      "t": 239605.35899999918,
      "d": 197.3685000000114,
      "v": 94
    },
    {
      "midi": 63,
      "hit": false,
      "t": 239605.35899999918,
      "d": 394.7370000000228,
      "v": 84
    },
    {
      "midi": 69,
      "hit": false,
      "t": 239605.35899999918,
      "d": 394.7370000000228,
      "v": 84
    },
    {
      "midi": 73,
      "hit": false,
      "t": 239802.7274999992,
      "d": 197.3685000000114,
      "v": 96
    },
    {
      "midi": 66,
      "hit": false,
      "t": 240000.0959999988,
      "d": 394.7369999999937,
      "v": 88
    },
    {
      "midi": 69,
      "hit": false,
      "t": 240000.0959999992,
      "d": 394.7369999999937,
      "v": 88
    },
    {
      "midi": 72,
      "hit": false,
      "t": 240000.0959999992,
      "d": 394.7369999999937,
      "v": 88
    },
    {
      "midi": 75,
      "hit": false,
      "t": 240000.0959999992,
      "d": 789.4739999999874,
      "v": 98
    },
    {
      "midi": 66,
      "hit": false,
      "t": 240394.8329999988,
      "d": 394.7369999999937,
      "v": 91
    },
    {
      "midi": 68,
      "hit": false,
      "t": 240394.8329999992,
      "d": 394.7369999999937,
      "v": 91
    },
    {
      "midi": 72,
      "hit": false,
      "t": 240394.8329999992,
      "d": 394.7369999999937,
      "v": 91
    },
    {
      "midi": 65,
      "hit": false,
      "t": 240789.56999999878,
      "d": 394.7369999999937,
      "v": 95
    },
    {
      "midi": 68,
      "hit": false,
      "t": 240789.5699999992,
      "d": 394.7369999999937,
      "v": 95
    },
    {
      "midi": 73,
      "hit": false,
      "t": 240789.5699999992,
      "d": 394.7369999999937,
      "v": 95
    },
    {
      "midi": 77,
      "hit": false,
      "t": 240789.5699999992,
      "d": 789.4739999999874,
      "v": 105
    },
    {
      "midi": 65,
      "hit": false,
      "t": 241184.30699999878,
      "d": 394.7369999999937,
      "v": 98
    },
    {
      "midi": 68,
      "hit": false,
      "t": 241184.3069999992,
      "d": 394.7369999999937,
      "v": 98
    },
    {
      "midi": 73,
      "hit": false,
      "t": 241184.3069999992,
      "d": 394.7369999999937,
      "v": 98
    },
    {
      "midi": 63,
      "hit": false,
      "t": 241579.04399999877,
      "d": 394.7369999999937,
      "v": 100
    },
    {
      "midi": 66,
      "hit": false,
      "t": 241579.04399999877,
      "d": 394.7369999999937,
      "v": 100
    },
    {
      "midi": 70,
      "hit": false,
      "t": 241579.04399999918,
      "d": 394.7369999999937,
      "v": 100
    },
    {
      "midi": 78,
      "hit": false,
      "t": 241579.04399999918,
      "d": 394.7369999999937,
      "v": 110
    },
    {
      "midi": 63,
      "hit": false,
      "t": 241973.78099999877,
      "d": 394.7369999999937,
      "v": 97
    },
    {
      "midi": 66,
      "hit": false,
      "t": 241973.78099999877,
      "d": 394.7369999999937,
      "v": 97
    },
    {
      "midi": 73,
      "hit": false,
      "t": 241973.78099999917,
      "d": 197.3685000000114,
      "v": 107
    },
    {
      "midi": 70,
      "hit": false,
      "t": 241973.78099999917,
      "d": 394.7370000000228,
      "v": 97
    },
    {
      "midi": 75,
      "hit": false,
      "t": 242171.14949999918,
      "d": 197.3685000000114,
      "v": 105
    },
    {
      "midi": 53,
      "hit": false,
      "t": 242368.51799999876,
      "d": 394.7369999999937,
      "v": 93
    },
    {
      "midi": 65,
      "hit": false,
      "t": 242368.51799999876,
      "d": 394.7369999999937,
      "v": 93
    },
    {
      "midi": 69,
      "hit": false,
      "t": 242368.5179999992,
      "d": 394.7369999999937,
      "v": 93
    },
    {
      "midi": 77,
      "hit": false,
      "t": 242368.5179999992,
      "d": 394.7369999999937,
      "v": 103
    },
    {
      "midi": 53,
      "hit": false,
      "t": 242763.25499999875,
      "d": 394.7369999999937,
      "v": 90
    },
    {
      "midi": 63,
      "hit": false,
      "t": 242763.25499999875,
      "d": 394.7369999999937,
      "v": 90
    },
    {
      "midi": 69,
      "hit": false,
      "t": 242763.2549999992,
      "d": 394.7369999999937,
      "v": 90
    },
    {
      "midi": 72,
      "hit": false,
      "t": 242763.2549999992,
      "d": 394.7369999999937,
      "v": 100
    },
    {
      "midi": 58,
      "hit": false,
      "t": 243157.99199999875,
      "d": 394.7369999999937,
      "v": 86
    },
    {
      "midi": 62,
      "hit": false,
      "t": 243157.99199999875,
      "d": 394.7369999999937,
      "v": 86
    },
    {
      "midi": 68,
      "hit": false,
      "t": 243157.99199999918,
      "d": 394.7369999999937,
      "v": 86
    },
    {
      "midi": 77,
      "hit": false,
      "t": 243157.99199999918,
      "d": 394.7369999999937,
      "v": 96
    },
    {
      "midi": 58,
      "hit": false,
      "t": 243552.72899999874,
      "d": 394.7369999999937,
      "v": 83
    },
    {
      "midi": 65,
      "hit": false,
      "t": 243552.72899999874,
      "d": 394.7369999999937,
      "v": 83
    },
    {
      "midi": 72,
      "hit": false,
      "t": 243552.72899999918,
      "d": 197.3685000000114,
      "v": 93
    },
    {
      "midi": 68,
      "hit": false,
      "t": 243552.72899999918,
      "d": 394.7370000000228,
      "v": 83
    },
    {
      "midi": 74,
      "hit": false,
      "t": 243750.0974999992,
      "d": 197.3685000000114,
      "v": 91
    },
    {
      "midi": 51,
      "hit": false,
      "t": 243947.46599999873,
      "d": 394.7369999999937,
      "v": 79
    },
    {
      "midi": 63,
      "hit": false,
      "t": 243947.46599999873,
      "d": 394.7369999999937,
      "v": 79
    },
    {
      "midi": 67,
      "hit": false,
      "t": 243947.4659999992,
      "d": 394.7369999999937,
      "v": 79
    },
    {
      "midi": 75,
      "hit": false,
      "t": 243947.4659999992,
      "d": 394.7369999999937,
      "v": 89
    },
    {
      "midi": 51,
      "hit": false,
      "t": 244342.20299999873,
      "d": 394.7369999999937,
      "v": 76
    },
    {
      "midi": 61,
      "hit": false,
      "t": 244342.20299999873,
      "d": 394.7369999999937,
      "v": 76
    },
    {
      "midi": 67,
      "hit": false,
      "t": 244342.2029999992,
      "d": 394.7369999999937,
      "v": 76
    },
    {
      "midi": 70,
      "hit": false,
      "t": 244342.2029999992,
      "d": 394.7369999999937,
      "v": 86
    },
    {
      "midi": 56,
      "hit": false,
      "t": 244736.93999999872,
      "d": 394.7369999999937,
      "v": 72
    },
    {
      "midi": 60,
      "hit": false,
      "t": 244736.93999999872,
      "d": 394.7369999999937,
      "v": 72
    },
    {
      "midi": 66,
      "hit": false,
      "t": 244736.9399999992,
      "d": 394.7369999999937,
      "v": 72
    },
    {
      "midi": 75,
      "hit": false,
      "t": 244736.9399999992,
      "d": 394.7369999999937,
      "v": 82
    },
    {
      "midi": 63,
      "hit": false,
      "t": 245131.67699999872,
      "d": 394.7369999999937,
      "v": 69
    },
    {
      "midi": 56,
      "hit": false,
      "t": 245131.67699999872,
      "d": 789.4739999999874,
      "v": 69
    },
    {
      "midi": 72,
      "hit": false,
      "t": 245131.67699999918,
      "d": 197.3685000000114,
      "v": 79
    },
    {
      "midi": 66,
      "hit": false,
      "t": 245131.67699999918,
      "d": 394.7370000000228,
      "v": 69
    },
    {
      "midi": 73,
      "hit": false,
      "t": 245329.0454999992,
      "d": 197.3685000000114,
      "v": 77
    },
    {
      "midi": 65,
      "hit": false,
      "t": 245460.6244999992,
      "d": 460.5265000000363,
      "v": 66
    },
    {
      "midi": 49,
      "hit": false,
      "t": 245526.4139999987,
      "d": 394.7369999999937,
      "v": 65
    },
    {
      "midi": 61,
      "hit": false,
      "t": 245526.4139999987,
      "d": 394.7369999999937,
      "v": 65
    },
    {
      "midi": 73,
      "hit": false,
      "t": 245526.4139999992,
      "d": 78.94740000000456,
      "v": 75
    },
    {
      "midi": 75,
      "hit": false,
      "t": 245605.3613999992,
      "d": 78.94740000000456,
      "v": 75
    },
    {
      "midi": 73,
      "hit": false,
      "t": 245684.3087999992,
      "d": 78.94740000000456,
      "v": 74
    },
    {
      "midi": 72,
      "hit": false,
      "t": 245763.25619999922,
      "d": 78.94740000000456,
      "v": 73
    },
    {
      "midi": 73,
      "hit": false,
      "t": 245842.20359999922,
      "d": 78.94740000000456,
      "v": 72
    },
    {
      "midi": 55,
      "hit": false,
      "t": 245921.1509999987,
      "d": 197.3685000000114,
      "v": 62
    },
    {
      "midi": 61,
      "hit": false,
      "t": 245921.1509999987,
      "d": 197.3685000000114,
      "v": 62
    },
    {
      "midi": 63,
      "hit": false,
      "t": 245921.15099999923,
      "d": 197.3685000000114,
      "v": 62
    },
    {
      "midi": 70,
      "hit": false,
      "t": 245954.04574999923,
      "d": 197.3685000000114,
      "v": 61
    },
    {
      "midi": 77,
      "hit": false,
      "t": 245986.94049999924,
      "d": 197.3685000000114,
      "v": 71
    },
    {
      "midi": 75,
      "hit": false,
      "t": 246217.20374999926,
      "d": 98.68424999999115,
      "v": 70
    },
    {
      "midi": 44,
      "hit": false,
      "t": 246315.88799999873,
      "d": 197.3685000000114,
      "v": 60
    },
    {
      "midi": 68,
      "hit": false,
      "t": 246315.88799999925,
      "d": 1085.52674999999,
      "v": 70
    },
    {
      "midi": 56,
      "hit": false,
      "t": 246710.62499999875,
      "d": 394.7369999999937,
      "v": 67
    },
    {
      "midi": 61,
      "hit": false,
      "t": 246710.62499999875,
      "d": 394.7369999999937,
      "v": 67
    },
    {
      "midi": 63,
      "hit": false,
      "t": 246710.62499999924,
      "d": 394.7369999999937,
      "v": 67
    },
    {
      "midi": 66,
      "hit": false,
      "t": 246710.62499999924,
      "d": 394.7369999999937,
      "v": 67
    },
    {
      "midi": 56,
      "hit": false,
      "t": 247105.36199999874,
      "d": 394.7369999999937,
      "v": 74
    },
    {
      "midi": 61,
      "hit": false,
      "t": 247105.36199999874,
      "d": 394.7369999999937,
      "v": 74
    },
    {
      "midi": 63,
      "hit": false,
      "t": 247105.36199999924,
      "d": 394.7369999999937,
      "v": 74
    },
    {
      "midi": 66,
      "hit": false,
      "t": 247105.36199999924,
      "d": 394.7369999999937,
      "v": 74
    },
    {
      "midi": 70,
      "hit": false,
      "t": 247401.41474999924,
      "d": 98.68424999999115,
      "v": 90
    },
    {
      "midi": 56,
      "hit": false,
      "t": 247500.09899999874,
      "d": 394.7369999999937,
      "v": 82
    },
    {
      "midi": 61,
      "hit": false,
      "t": 247500.09899999874,
      "d": 394.7369999999937,
      "v": 82
    },
    {
      "midi": 68,
      "hit": false,
      "t": 247500.09899999923,
      "d": 296.05275000000256,
      "v": 92
    },
    {
      "midi": 63,
      "hit": false,
      "t": 247500.09899999923,
      "d": 394.7369999999937,
      "v": 82
    },
    {
      "midi": 66,
      "hit": false,
      "t": 247500.09899999923,
      "d": 394.7369999999937,
      "v": 82
    },
    {
      "midi": 69,
      "hit": false,
      "t": 247796.15174999923,
      "d": 98.68424999999115,
      "v": 98
    },
    {
      "midi": 56,
      "hit": false,
      "t": 247894.83599999873,
      "d": 394.7369999999937,
      "v": 89
    },
    {
      "midi": 61,
      "hit": false,
      "t": 247894.83599999873,
      "d": 394.7369999999937,
      "v": 89
    },
    {
      "midi": 68,
      "hit": false,
      "t": 247894.83599999922,
      "d": 296.05275000000256,
      "v": 99
    },
    {
      "midi": 63,
      "hit": false,
      "t": 247894.83599999922,
      "d": 394.7369999999937,
      "v": 89
    },
    {
      "midi": 66,
      "hit": false,
      "t": 247894.83599999922,
      "d": 394.7369999999937,
      "v": 89
    },
    {
      "midi": 70,
      "hit": false,
      "t": 248190.88874999923,
      "d": 98.68424999999115,
      "v": 105
    },
    {
      "midi": 56,
      "hit": false,
      "t": 248289.57299999872,
      "d": 394.7369999999937,
      "v": 97
    },
    {
      "midi": 61,
      "hit": false,
      "t": 248289.57299999872,
      "d": 394.7369999999937,
      "v": 97
    },
    {
      "midi": 68,
      "hit": false,
      "t": 248289.57299999922,
      "d": 296.05275000000256,
      "v": 107
    },
    {
      "midi": 63,
      "hit": false,
      "t": 248289.57299999922,
      "d": 394.7369999999937,
      "v": 97
    },
    {
      "midi": 66,
      "hit": false,
      "t": 248289.57299999922,
      "d": 394.7369999999937,
      "v": 97
    },
    {
      "midi": 69,
      "hit": false,
      "t": 248585.62574999922,
      "d": 98.68424999999115,
      "v": 110
    },
    {
      "midi": 32,
      "hit": false,
      "t": 248684.30999999872,
      "d": 197.3685000000114,
      "v": 100
    },
    {
      "midi": 68,
      "hit": false,
      "t": 248684.3099999992,
      "d": 197.3685000000114,
      "v": 110
    },
    {
      "midi": 60,
      "hit": false,
      "t": 248684.3099999992,
      "d": 394.7369999999937,
      "v": 100
    },
    {
      "midi": 66,
      "hit": false,
      "t": 248684.3099999992,
      "d": 394.7369999999937,
      "v": 100
    },
    {
      "midi": 69,
      "hit": false,
      "t": 248980.3627499992,
      "d": 98.68424999999115,
      "v": 102
    },
    {
      "midi": 56,
      "hit": false,
      "t": 249079.04699999874,
      "d": 394.7369999999937,
      "v": 89
    },
    {
      "midi": 63,
      "hit": false,
      "t": 249079.04699999874,
      "d": 394.7369999999937,
      "v": 89
    },
    {
      "midi": 70,
      "hit": false,
      "t": 249079.0469999992,
      "d": 197.3685000000114,
      "v": 99
    },
    {
      "midi": 72,
      "hit": false,
      "t": 249276.41549999922,
      "d": 197.3685000000114,
      "v": 93
    },
    {
      "midi": 75,
      "hit": false,
      "t": 249473.78399999923,
      "d": 789.4739999999874,
      "v": 87
    },
    {
      "midi": 56,
      "hit": false,
      "t": 249868.52099999873,
      "d": 394.7369999999937,
      "v": 65
    },
    {
      "midi": 60,
      "hit": false,
      "t": 249868.52099999873,
      "d": 394.7369999999937,
      "v": 65
    },
    {
      "midi": 66,
      "hit": false,
      "t": 249868.52099999922,
      "d": 394.7369999999937,
      "v": 65
    },
    {
      "midi": 68,
      "hit": false,
      "t": 249868.52099999922,
      "d": 789.4739999999874,
      "v": 65
    },
    {
      "midi": 49,
      "hit": false,
      "t": 250263.25799999872,
      "d": 394.7369999999937,
      "v": 60
    },
    {
      "midi": 61,
      "hit": false,
      "t": 250263.25799999872,
      "d": 394.7369999999937,
      "v": 60
    },
    {
      "midi": 65,
      "hit": false,
      "t": 250263.25799999922,
      "d": 394.7369999999937,
      "v": 60
    },
    {
      "midi": 73,
      "hit": false,
      "t": 250263.25799999922,
      "d": 394.7369999999937,
      "v": 70
    },
    {
      "midi": 63,
      "hit": false,
      "t": 251052.7319999987,
      "d": 947.3687999999966,
      "v": 70
    },
    {
      "midi": 73,
      "hit": false,
      "t": 251052.7319999992,
      "d": 789.4739999999874,
      "v": 70
    },
    {
      "midi": 66,
      "hit": false,
      "t": 251447.4689999992,
      "d": 394.7369999999937,
      "v": 60
    },
    {
      "midi": 69,
      "hit": false,
      "t": 251447.4689999992,
      "d": 394.7369999999937,
      "v": 60
    },
    {
      "midi": 66,
      "hit": false,
      "t": 251842.2059999992,
      "d": 394.7369999999937,
      "v": 60
    },
    {
      "midi": 69,
      "hit": false,
      "t": 251842.2059999992,
      "d": 394.7369999999937,
      "v": 60
    },
    {
      "midi": 72,
      "hit": false,
      "t": 251842.2059999992,
      "d": 789.4739999999874,
      "v": 70
    },
    {
      "midi": 65,
      "hit": false,
      "t": 252000.1007999987,
      "d": 157.89480000000913,
      "v": 70
    },
    {
      "midi": 63,
      "hit": false,
      "t": 252157.9955999987,
      "d": 157.89480000000913,
      "v": 70
    },
    {
      "midi": 66,
      "hit": false,
      "t": 252236.94299999918,
      "d": 394.7369999999937,
      "v": 60
    },
    {
      "midi": 69,
      "hit": false,
      "t": 252236.94299999918,
      "d": 394.7369999999937,
      "v": 60
    },
    {
      "midi": 62,
      "hit": false,
      "t": 252315.89039999872,
      "d": 157.89480000000913,
      "v": 70
    },
    {
      "midi": 63,
      "hit": false,
      "t": 252473.78519999873,
      "d": 157.89480000000913,
      "v": 70
    },
    {
      "midi": 66,
      "hit": false,
      "t": 252631.67999999874,
      "d": 592.1055000000051,
      "v": 70
    },
    {
      "midi": 69,
      "hit": false,
      "t": 252631.67999999918,
      "d": 394.7369999999937,
      "v": 60
    },
    {
      "midi": 73,
      "hit": false,
      "t": 252631.67999999918,
      "d": 789.4739999999874,
      "v": 70
    },
    {
      "midi": 69,
      "hit": false,
      "t": 253026.41699999917,
      "d": 394.7369999999937,
      "v": 60
    },
    {
      "midi": 61,
      "hit": false,
      "t": 253223.78549999875,
      "d": 197.3685000000114,
      "v": 70
    },
    {
      "midi": 61,
      "hit": false,
      "t": 253421.15399999876,
      "d": 592.1055000000051,
      "v": 70
    },
    {
      "midi": 66,
      "hit": false,
      "t": 253421.15399999917,
      "d": 394.7369999999937,
      "v": 60
    },
    {
      "midi": 69,
      "hit": false,
      "t": 253421.15399999917,
      "d": 394.7369999999937,
      "v": 60
    },
    {
      "midi": 77,
      "hit": false,
      "t": 253421.15399999917,
      "d": 789.4739999999874,
      "v": 70
    },
    {
      "midi": 66,
      "hit": false,
      "t": 253815.89099999916,
      "d": 394.7369999999937,
      "v": 60
    },
    {
      "midi": 69,
      "hit": false,
      "t": 253815.89099999916,
      "d": 394.7369999999937,
      "v": 60
    },
    {
      "midi": 60,
      "hit": false,
      "t": 254013.25949999876,
      "d": 197.3685000000114,
      "v": 70
    },
    {
      "midi": 63,
      "hit": false,
      "t": 254210.62799999877,
      "d": 789.4739999999874,
      "v": 70
    },
    {
      "midi": 66,
      "hit": false,
      "t": 254210.62799999915,
      "d": 394.7369999999937,
      "v": 60
    },
    {
      "midi": 69,
      "hit": false,
      "t": 254210.62799999915,
      "d": 394.7369999999937,
      "v": 60
    },
    {
      "midi": 75,
      "hit": false,
      "t": 254210.62799999915,
      "d": 789.4739999999874,
      "v": 70
    },
    {
      "midi": 66,
      "hit": false,
      "t": 254605.36499999915,
      "d": 394.7369999999937,
      "v": 60
    },
    {
      "midi": 69,
      "hit": false,
      "t": 254605.36499999915,
      "d": 394.7369999999937,
      "v": 60
    },
    {
      "midi": 66,
      "hit": false,
      "t": 255000.10199999914,
      "d": 394.7369999999937,
      "v": 60
    },
    {
      "midi": 69,
      "hit": false,
      "t": 255000.10199999914,
      "d": 394.7369999999937,
      "v": 60
    },
    {
      "midi": 73,
      "hit": false,
      "t": 255000.10199999914,
      "d": 789.4739999999874,
      "v": 70
    },
    {
      "midi": 66,
      "hit": false,
      "t": 255394.83899999913,
      "d": 394.7369999999937,
      "v": 60
    },
    {
      "midi": 69,
      "hit": false,
      "t": 255394.83899999913,
      "d": 394.7369999999937,
      "v": 60
    },
    {
      "midi": 39,
      "hit": false,
      "t": 255789.57599999875,
      "d": 197.3685000000114,
      "v": 70
    },
    {
      "midi": 66,
      "hit": false,
      "t": 255789.57599999913,
      "d": 394.7369999999937,
      "v": 60
    },
    {
      "midi": 69,
      "hit": false,
      "t": 255789.57599999913,
      "d": 394.7369999999937,
      "v": 60
    },
    {
      "midi": 73,
      "hit": false,
      "t": 255789.57599999913,
      "d": 789.4739999999874,
      "v": 70
    },
    {
      "midi": 51,
      "hit": false,
      "t": 255986.94449999876,
      "d": 197.3685000000114,
      "v": 75
    },
    {
      "midi": 54,
      "hit": false,
      "t": 256184.31299999877,
      "d": 197.3685000000114,
      "v": 81
    },
    {
      "midi": 66,
      "hit": false,
      "t": 256184.31299999912,
      "d": 394.7369999999937,
      "v": 60
    },
    {
      "midi": 69,
      "hit": false,
      "t": 256184.31299999912,
      "d": 394.7369999999937,
      "v": 60
    },
    {
      "midi": 56,
      "hit": false,
      "t": 256381.68149999878,
      "d": 197.3685000000114,
      "v": 87
    },
    {
      "midi": 57,
      "hit": false,
      "t": 256579.0499999988,
      "d": 197.3685000000114,
      "v": 93
    },
    {
      "midi": 66,
      "hit": false,
      "t": 256579.04999999912,
      "d": 394.7369999999937,
      "v": 60
    },
    {
      "midi": 69,
      "hit": false,
      "t": 256579.04999999912,
      "d": 394.7369999999937,
      "v": 60
    },
    {
      "midi": 72,
      "hit": false,
      "t": 256579.04999999912,
      "d": 789.4739999999874,
      "v": 70
    },
    {
      "midi": 54,
      "hit": false,
      "t": 256776.4184999988,
      "d": 197.3685000000114,
      "v": 99
    },
    {
      "midi": 51,
      "hit": false,
      "t": 256973.78699999882,
      "d": 197.3685000000114,
      "v": 105
    },
    {
      "midi": 66,
      "hit": false,
      "t": 256973.7869999991,
      "d": 394.7369999999937,
      "v": 60
    },
    {
      "midi": 69,
      "hit": false,
      "t": 256973.7869999991,
      "d": 394.7369999999937,
      "v": 60
    },
    {
      "midi": 63,
      "hit": false,
      "t": 257171.15549999883,
      "d": 197.3685000000114,
      "v": 110
    },
    {
      "midi": 66,
      "hit": false,
      "t": 257368.52399999884,
      "d": 592.1055000000051,
      "v": 110
    },
    {
      "midi": 69,
      "hit": false,
      "t": 257368.5239999991,
      "d": 394.7369999999937,
      "v": 60
    },
    {
      "midi": 73,
      "hit": false,
      "t": 257368.5239999991,
      "d": 789.4739999999874,
      "v": 70
    },
    {
      "midi": 69,
      "hit": false,
      "t": 257763.2609999991,
      "d": 394.7369999999937,
      "v": 60
    },
    {
      "midi": 61,
      "hit": false,
      "t": 257960.62949999885,
      "d": 197.3685000000114,
      "v": 102
    },
    {
      "midi": 61,
      "hit": false,
      "t": 258157.99799999886,
      "d": 592.1055000000051,
      "v": 100
    },
    {
      "midi": 66,
      "hit": false,
      "t": 258157.9979999991,
      "d": 394.7369999999937,
      "v": 60
    },
    {
      "midi": 69,
      "hit": false,
      "t": 258157.9979999991,
      "d": 394.7369999999937,
      "v": 60
    },
    {
      "midi": 77,
      "hit": false,
      "t": 258157.9979999991,
      "d": 789.4739999999874,
      "v": 70
    },
    {
      "midi": 66,
      "hit": false,
      "t": 258552.73499999908,
      "d": 394.7369999999937,
      "v": 60
    },
    {
      "midi": 69,
      "hit": false,
      "t": 258552.73499999908,
      "d": 394.7369999999937,
      "v": 60
    },
    {
      "midi": 60,
      "hit": false,
      "t": 258750.10349999886,
      "d": 197.3685000000114,
      "v": 91
    },
    {
      "midi": 63,
      "hit": false,
      "t": 258947.47199999887,
      "d": 394.7369999999937,
      "v": 90
    },
    {
      "midi": 66,
      "hit": false,
      "t": 258947.47199999908,
      "d": 394.7369999999937,
      "v": 60
    },
    {
      "midi": 69,
      "hit": false,
      "t": 258947.47199999908,
      "d": 394.7369999999937,
      "v": 60
    },
    {
      "midi": 75,
      "hit": false,
      "t": 258947.47199999908,
      "d": 789.4739999999874,
      "v": 70
    },
    {
      "midi": 66,
      "hit": false,
      "t": 259342.20899999907,
      "d": 394.7369999999937,
      "v": 60
    },
    {
      "midi": 69,
      "hit": false,
      "t": 259342.20899999907,
      "d": 394.7369999999937,
      "v": 60
    },
    {
      "midi": 66,
      "hit": false,
      "t": 259736.94599999906,
      "d": 394.7369999999937,
      "v": 60
    },
    {
      "midi": 69,
      "hit": false,
      "t": 259736.94599999906,
      "d": 394.7369999999937,
      "v": 60
    },
    {
      "midi": 73,
      "hit": false,
      "t": 259736.94599999906,
      "d": 592.1055000000051,
      "v": 70
    },
    {
      "midi": 66,
      "hit": false,
      "t": 260131.68299999906,
      "d": 394.7370000000228,
      "v": 60
    },
    {
      "midi": 69,
      "hit": false,
      "t": 260131.68299999906,
      "d": 394.7370000000228,
      "v": 60
    },
    {
      "midi": 72,
      "hit": false,
      "t": 260329.05149999907,
      "d": 197.3685000000114,
      "v": 70
    },
    {
      "midi": 65,
      "hit": false,
      "t": 260526.41999999908,
      "d": 394.7369999999937,
      "v": 60
    },
    {
      "midi": 68,
      "hit": false,
      "t": 260526.41999999908,
      "d": 394.7369999999937,
      "v": 60
    },
    {
      "midi": 72,
      "hit": false,
      "t": 260526.41999999908,
      "d": 789.4739999999874,
      "v": 70
    },
    {
      "midi": 65,
      "hit": false,
      "t": 260921.15699999908,
      "d": 394.7369999999937,
      "v": 60
    },
    {
      "midi": 68,
      "hit": false,
      "t": 260921.15699999908,
      "d": 394.7369999999937,
      "v": 60
    },
    {
      "midi": 65,
      "hit": false,
      "t": 261315.89399999907,
      "d": 394.7369999999937,
      "v": 60
    },
    {
      "midi": 68,
      "hit": false,
      "t": 261315.89399999907,
      "d": 394.7369999999937,
      "v": 60
    },
    {
      "midi": 71,
      "hit": false,
      "t": 261315.89399999907,
      "d": 789.4739999999874,
      "v": 70
    },
    {
      "midi": 62,
      "hit": false,
      "t": 261710.63099999886,
      "d": 197.3685000000114,
      "v": 70
    },
    {
      "midi": 65,
      "hit": false,
      "t": 261710.63099999906,
      "d": 394.7369999999937,
      "v": 60
    },
    {
      "midi": 68,
      "hit": false,
      "t": 261710.63099999906,
      "d": 394.7369999999937,
      "v": 60
    },
    {
      "midi": 63,
      "hit": false,
      "t": 261907.99949999887,
      "d": 197.3685000000114,
      "v": 70
    },
    {
      "midi": 67,
      "hit": false,
      "t": 262105.36799999888,
      "d": 197.3685000000114,
      "v": 70
    },
    {
      "midi": 68,
      "hit": false,
      "t": 262105.36799999906,
      "d": 394.7369999999937,
      "v": 60
    },
    {
      "midi": 72,
      "hit": false,
      "t": 262105.36799999906,
      "d": 789.4740000000165,
      "v": 70
    },
    {
      "midi": 65,
      "hit": false,
      "t": 262302.7364999989,
      "d": 197.3684999999823,
      "v": 70
    },
    {
      "midi": 62,
      "hit": false,
      "t": 262500.1049999989,
      "d": 197.3684999999823,
      "v": 70
    },
    {
      "midi": 68,
      "hit": false,
      "t": 262500.10499999905,
      "d": 394.7370000000228,
      "v": 60
    },
    {
      "midi": 60,
      "hit": false,
      "t": 262697.47349999886,
      "d": 197.3684999999823,
      "v": 70
    },
    {
      "midi": 60,
      "hit": false,
      "t": 262894.84199999884,
      "d": 592.1055000000051,
      "v": 70
    },
    {
      "midi": 65,
      "hit": false,
      "t": 262894.8419999991,
      "d": 394.7370000000228,
      "v": 60
    },
    {
      "midi": 68,
      "hit": false,
      "t": 262894.8419999991,
      "d": 394.7370000000228,
      "v": 60
    },
    {
      "midi": 75,
      "hit": false,
      "t": 262894.8419999991,
      "d": 789.4740000000456,
      "v": 70
    },
    {
      "midi": 65,
      "hit": false,
      "t": 263289.5789999991,
      "d": 394.7370000000228,
      "v": 60
    },
    {
      "midi": 68,
      "hit": false,
      "t": 263289.5789999991,
      "d": 394.7370000000228,
      "v": 60
    },
    {
      "midi": 59,
      "hit": false,
      "t": 263486.94749999885,
      "d": 197.3684999999823,
      "v": 70
    },
    {
      "midi": 62,
      "hit": false,
      "t": 263684.3159999988,
      "d": 789.4739999999874,
      "v": 70
    },
    {
      "midi": 65,
      "hit": false,
      "t": 263684.3159999991,
      "d": 394.7370000000228,
      "v": 60
    },
    {
      "midi": 68,
      "hit": false,
      "t": 263684.3159999991,
      "d": 394.7370000000228,
      "v": 60
    },
    {
      "midi": 74,
      "hit": false,
      "t": 263684.3159999991,
      "d": 789.4740000000456,
      "v": 70
    },
    {
      "midi": 65,
      "hit": false,
      "t": 264079.05299999914,
      "d": 394.7370000000228,
      "v": 60
    },
    {
      "midi": 68,
      "hit": false,
      "t": 264079.05299999914,
      "d": 394.7370000000228,
      "v": 60
    },
    {
      "midi": 65,
      "hit": false,
      "t": 264473.78999999916,
      "d": 394.7370000000228,
      "v": 60
    },
    {
      "midi": 68,
      "hit": false,
      "t": 264473.78999999916,
      "d": 394.7370000000228,
      "v": 60
    },
    {
      "midi": 72,
      "hit": false,
      "t": 264473.78999999916,
      "d": 789.4740000000456,
      "v": 70
    },
    {
      "midi": 65,
      "hit": false,
      "t": 264868.5269999992,
      "d": 394.7370000000228,
      "v": 60
    },
    {
      "midi": 68,
      "hit": false,
      "t": 264868.5269999992,
      "d": 394.7370000000228,
      "v": 60
    },
    {
      "midi": 38,
      "hit": false,
      "t": 265263.2639999988,
      "d": 197.3684999999823,
      "v": 70
    },
    {
      "midi": 65,
      "hit": false,
      "t": 265263.2639999992,
      "d": 394.7370000000228,
      "v": 60
    },
    {
      "midi": 68,
      "hit": false,
      "t": 265263.2639999992,
      "d": 394.7370000000228,
      "v": 60
    },
    {
      "midi": 72,
      "hit": false,
      "t": 265263.2639999992,
      "d": 789.4740000000456,
      "v": 70
    },
    {
      "midi": 50,
      "hit": false,
      "t": 265460.6324999988,
      "d": 197.3684999999823,
      "v": 75
    },
    {
      "midi": 53,
      "hit": false,
      "t": 265658.00099999877,
      "d": 197.3684999999823,
      "v": 81
    },
    {
      "midi": 65,
      "hit": false,
      "t": 265658.00099999923,
      "d": 394.7370000000228,
      "v": 60
    },
    {
      "midi": 68,
      "hit": false,
      "t": 265658.00099999923,
      "d": 394.7370000000228,
      "v": 60
    },
    {
      "midi": 55,
      "hit": false,
      "t": 265855.36949999875,
      "d": 197.3684999999823,
      "v": 87
    },
    {
      "midi": 58,
      "hit": false,
      "t": 266052.73799999873,
      "d": 197.3684999999823,
      "v": 93
    },
    {
      "midi": 65,
      "hit": false,
      "t": 266052.73799999926,
      "d": 394.7370000000228,
      "v": 60
    },
    {
      "midi": 68,
      "hit": false,
      "t": 266052.73799999926,
      "d": 394.7370000000228,
      "v": 60
    },
    {
      "midi": 71,
      "hit": false,
      "t": 266052.73799999926,
      "d": 789.4740000000456,
      "v": 70
    },
    {
      "midi": 56,
      "hit": false,
      "t": 266250.1064999987,
      "d": 197.3684999999823,
      "v": 99
    },
    {
      "midi": 53,
      "hit": false,
      "t": 266447.4749999987,
      "d": 197.3684999999823,
      "v": 105
    },
    {
      "midi": 65,
      "hit": false,
      "t": 266447.4749999993,
      "d": 394.7370000000228,
      "v": 60
    },
    {
      "midi": 68,
      "hit": false,
      "t": 266447.4749999993,
      "d": 394.7370000000228,
      "v": 60
    },
    {
      "midi": 49,
      "hit": false,
      "t": 266644.8434999987,
      "d": 197.3684999999823,
      "v": 110
    },
    {
      "midi": 65,
      "hit": false,
      "t": 266842.21199999866,
      "d": 592.1055000000051,
      "v": 110
    },
    {
      "midi": 68,
      "hit": false,
      "t": 266842.2119999993,
      "d": 394.7370000000228,
      "v": 60
    },
    {
      "midi": 72,
      "hit": false,
      "t": 266842.2119999993,
      "d": 789.4740000000456,
      "v": 70
    },
    {
      "midi": 68,
      "hit": false,
      "t": 267236.9489999993,
      "d": 394.7370000000228,
      "v": 60
    },
    {
      "midi": 60,
      "hit": false,
      "t": 267434.31749999867,
      "d": 197.3684999999823,
      "v": 102
    },
    {
      "midi": 60,
      "hit": false,
      "t": 267631.68599999865,
      "d": 592.1055000000051,
      "v": 100
    },
    {
      "midi": 65,
      "hit": false,
      "t": 267631.68599999935,
      "d": 394.7370000000228,
      "v": 60
    },
    {
      "midi": 68,
      "hit": false,
      "t": 267631.68599999935,
      "d": 394.7370000000228,
      "v": 60
    },
    {
      "midi": 74,
      "hit": false,
      "t": 267631.68599999935,
      "d": 1184.2110000000685,
      "v": 70
    },
    {
      "midi": 65,
      "hit": false,
      "t": 268026.42299999937,
      "d": 394.7370000000228,
      "v": 60
    },
    {
      "midi": 68,
      "hit": false,
      "t": 268026.42299999937,
      "d": 394.7370000000228,
      "v": 60
    },
    {
      "midi": 59,
      "hit": false,
      "t": 268223.79149999865,
      "d": 197.3684999999823,
      "v": 91
    },
    {
      "midi": 58,
      "hit": false,
      "t": 268421.15999999864,
      "d": 789.4739999999874,
      "v": 90
    },
    {
      "midi": 65,
      "hit": false,
      "t": 268421.1599999994,
      "d": 394.7370000000228,
      "v": 60
    },
    {
      "midi": 68,
      "hit": false,
      "t": 268421.1599999994,
      "d": 394.7370000000228,
      "v": 60
    },
    {
      "midi": 65,
      "hit": false,
      "t": 268815.8969999994,
      "d": 394.7370000000228,
      "v": 60
    },
    {
      "midi": 68,
      "hit": false,
      "t": 268815.8969999994,
      "d": 394.7370000000228,
      "v": 60
    },
    {
      "midi": 74,
      "hit": false,
      "t": 268815.8969999994,
      "d": 394.7370000000228,
      "v": 70
    },
    {
      "midi": 63,
      "hit": false,
      "t": 269210.63399999944,
      "d": 394.7370000000228,
      "v": 60
    },
    {
      "midi": 68,
      "hit": false,
      "t": 269210.63399999944,
      "d": 394.7370000000228,
      "v": 60
    },
    {
      "midi": 72,
      "hit": false,
      "t": 269210.63399999944,
      "d": 394.7370000000228,
      "v": 70
    },
    {
      "midi": 62,
      "hit": false,
      "t": 269605.37099999946,
      "d": 394.7370000000228,
      "v": 60
    },
    {
      "midi": 68,
      "hit": false,
      "t": 269605.37099999946,
      "d": 394.7370000000228,
      "v": 60
    },
    {
      "midi": 70,
      "hit": false,
      "t": 269605.37099999946,
      "d": 394.7370000000228,
      "v": 70
    },
    {
      "midi": 34,
      "hit": false,
      "t": 270000.1079999986,
      "d": 197.3684999999823,
      "v": 70
    },
    {
      "midi": 63,
      "hit": false,
      "t": 270000.1079999995,
      "d": 394.7370000000228,
      "v": 60
    },
    {
      "midi": 67,
      "hit": false,
      "t": 270000.1079999995,
      "d": 394.7370000000228,
      "v": 60
    },
    {
      "midi": 75,
      "hit": false,
      "t": 270000.1079999995,
      "d": 789.4740000000456,
      "v": 70
    },
    {
      "midi": 46,
      "hit": false,
      "t": 270197.4764999986,
      "d": 197.3684999999823,
      "v": 75
    },
    {
      "midi": 51,
      "hit": false,
      "t": 270394.8449999986,
      "d": 197.3684999999823,
      "v": 81
    },
    {
      "midi": 63,
      "hit": false,
      "t": 270394.8449999995,
      "d": 394.7370000000228,
      "v": 60
    },
    {
      "midi": 67,
      "hit": false,
      "t": 270394.8449999995,
      "d": 394.7370000000228,
      "v": 60
    },
    {
      "midi": 53,
      "hit": false,
      "t": 270592.21349999856,
      "d": 197.3684999999823,
      "v": 87
    },
    {
      "midi": 55,
      "hit": false,
      "t": 270789.58199999854,
      "d": 197.3684999999823,
      "v": 93
    },
    {
      "midi": 63,
      "hit": false,
      "t": 270789.58199999953,
      "d": 394.7370000000228,
      "v": 60
    },
    {
      "midi": 67,
      "hit": false,
      "t": 270789.58199999953,
      "d": 394.7370000000228,
      "v": 60
    },
    {
      "midi": 74,
      "hit": false,
      "t": 270789.58199999953,
      "d": 789.4740000000456,
      "v": 70
    },
    {
      "midi": 53,
      "hit": false,
      "t": 270986.9504999985,
      "d": 197.3684999999823,
      "v": 99
    },
    {
      "midi": 51,
      "hit": false,
      "t": 271184.3189999985,
      "d": 197.3684999999823,
      "v": 105
    },
    {
      "midi": 63,
      "hit": false,
      "t": 271184.31899999955,
      "d": 394.7370000000228,
      "v": 60
    },
    {
      "midi": 67,
      "hit": false,
      "t": 271184.31899999955,
      "d": 394.7370000000228,
      "v": 60
    },
    {
      "midi": 46,
      "hit": false,
      "t": 271381.6874999985,
      "d": 197.3684999999823,
      "v": 110
    },
    {
      "midi": 58,
      "hit": false,
      "t": 271579.05599999847,
      "d": 197.3684999999823,
      "v": 110
    },
    {
      "midi": 63,
      "hit": false,
      "t": 271579.0559999996,
      "d": 394.7370000000228,
      "v": 60
    },
    {
      "midi": 67,
      "hit": false,
      "t": 271579.0559999996,
      "d": 394.7370000000228,
      "v": 60
    },
    {
      "midi": 72,
      "hit": false,
      "t": 271579.0559999996,
      "d": 789.4740000000456,
      "v": 70
    },
    {
      "midi": 63,
      "hit": false,
      "t": 271973.7929999996,
      "d": 394.7370000000228,
      "v": 60
    },
    {
      "midi": 67,
      "hit": false,
      "t": 271973.7929999996,
      "d": 394.7370000000228,
      "v": 60
    },
    {
      "midi": 34,
      "hit": false,
      "t": 272368.52999999846,
      "d": 197.3684999999823,
      "v": 70
    },
    {
      "midi": 62,
      "hit": false,
      "t": 272368.5299999996,
      "d": 394.7370000000228,
      "v": 60
    },
    {
      "midi": 68,
      "hit": false,
      "t": 272368.5299999996,
      "d": 394.7370000000228,
      "v": 60
    },
    {
      "midi": 72,
      "hit": false,
      "t": 272368.5299999996,
      "d": 1578.9480000000913,
      "v": 70
    },
    {
      "midi": 46,
      "hit": false,
      "t": 272565.89849999844,
      "d": 197.3684999999823,
      "v": 75
    },
    {
      "midi": 53,
      "hit": false,
      "t": 272763.2669999984,
      "d": 197.3684999999823,
      "v": 81
    },
    {
      "midi": 62,
      "hit": false,
      "t": 272763.26699999964,
      "d": 394.7370000000228,
      "v": 60
    },
    {
      "midi": 68,
      "hit": false,
      "t": 272763.26699999964,
      "d": 394.7370000000228,
      "v": 60
    },
    {
      "midi": 55,
      "hit": false,
      "t": 272960.6354999984,
      "d": 197.3684999999823,
      "v": 87
    },
    {
      "midi": 56,
      "hit": false,
      "t": 273158.0039999984,
      "d": 197.3684999999823,
      "v": 93
    },
    {
      "midi": 62,
      "hit": false,
      "t": 273158.00399999967,
      "d": 394.7370000000228,
      "v": 60
    },
    {
      "midi": 68,
      "hit": false,
      "t": 273158.00399999967,
      "d": 394.7370000000228,
      "v": 60
    },
    {
      "midi": 55,
      "hit": false,
      "t": 273355.37249999837,
      "d": 197.3684999999823,
      "v": 99
    },
    {
      "midi": 53,
      "hit": false,
      "t": 273552.74099999835,
      "d": 197.3684999999823,
      "v": 105
    },
    {
      "midi": 62,
      "hit": false,
      "t": 273552.7409999997,
      "d": 394.7370000000228,
      "v": 60
    },
    {
      "midi": 68,
      "hit": false,
      "t": 273552.7409999997,
      "d": 394.7370000000228,
      "v": 60
    },
    {
      "midi": 46,
      "hit": false,
      "t": 273750.10949999833,
      "d": 197.3684999999823,
      "v": 110
    },
    {
      "midi": 58,
      "hit": false,
      "t": 273947.4779999983,
      "d": 197.3684999999823,
      "v": 110
    },
    {
      "midi": 62,
      "hit": false,
      "t": 273947.4779999997,
      "d": 394.7370000000228,
      "v": 60
    },
    {
      "midi": 68,
      "hit": false,
      "t": 273947.4779999997,
      "d": 394.7370000000228,
      "v": 60
    },
    {
      "midi": 70,
      "hit": false,
      "t": 273947.4779999997,
      "d": 789.4740000000456,
      "v": 70
    },
    {
      "midi": 62,
      "hit": false,
      "t": 274342.21499999973,
      "d": 394.7370000000228,
      "v": 60
    },
    {
      "midi": 68,
      "hit": false,
      "t": 274342.21499999973,
      "d": 394.7370000000228,
      "v": 60
    },
    {
      "midi": 34,
      "hit": false,
      "t": 274736.9519999983,
      "d": 197.3684999999823,
      "v": 70
    },
    {
      "midi": 63,
      "hit": false,
      "t": 274736.95199999976,
      "d": 394.7370000000228,
      "v": 60
    },
    {
      "midi": 67,
      "hit": false,
      "t": 274736.95199999976,
      "d": 394.7370000000228,
      "v": 60
    },
    {
      "midi": 75,
      "hit": false,
      "t": 274736.95199999976,
      "d": 789.4740000000456,
      "v": 70
    },
    {
      "midi": 46,
      "hit": false,
      "t": 274934.3204999983,
      "d": 197.3684999999823,
      "v": 75
    },
    {
      "midi": 51,
      "hit": false,
      "t": 275131.68899999827,
      "d": 197.3684999999823,
      "v": 81
    },
    {
      "midi": 63,
      "hit": false,
      "t": 275131.6889999998,
      "d": 394.7370000000228,
      "v": 60
    },
    {
      "midi": 67,
      "hit": false,
      "t": 275131.6889999998,
      "d": 394.7370000000228,
      "v": 60
    },
    {
      "midi": 53,
      "hit": false,
      "t": 275329.05749999825,
      "d": 197.3684999999823,
      "v": 87
    },
    {
      "midi": 55,
      "hit": false,
      "t": 275526.42599999823,
      "d": 197.3684999999823,
      "v": 93
    },
    {
      "midi": 63,
      "hit": false,
      "t": 275526.4259999998,
      "d": 394.7370000000228,
      "v": 60
    },
    {
      "midi": 67,
      "hit": false,
      "t": 275526.4259999998,
      "d": 394.7370000000228,
      "v": 60
    },
    {
      "midi": 69,
      "hit": false,
      "t": 275526.4259999998,
      "d": 789.4740000000456,
      "v": 70
    },
    {
      "midi": 53,
      "hit": false,
      "t": 275723.7944999982,
      "d": 197.3684999999823,
      "v": 99
    },
    {
      "midi": 51,
      "hit": false,
      "t": 275921.1629999982,
      "d": 197.3684999999823,
      "v": 105
    },
    {
      "midi": 63,
      "hit": false,
      "t": 275921.1629999998,
      "d": 394.7370000000228,
      "v": 60
    },
    {
      "midi": 67,
      "hit": false,
      "t": 275921.1629999998,
      "d": 394.7370000000228,
      "v": 60
    },
    {
      "midi": 60,
      "hit": false,
      "t": 276118.5314999982,
      "d": 197.3684999999823,
      "v": 110
    },
    {
      "midi": 58,
      "hit": false,
      "t": 276315.89999999816,
      "d": 197.3684999999823,
      "v": 110
    },
    {
      "midi": 63,
      "hit": false,
      "t": 276315.89999999985,
      "d": 394.7370000000228,
      "v": 60
    },
    {
      "midi": 67,
      "hit": false,
      "t": 276315.89999999985,
      "d": 394.7370000000228,
      "v": 60
    },
    {
      "midi": 70,
      "hit": false,
      "t": 276315.89999999985,
      "d": 789.4740000000456,
      "v": 70
    },
    {
      "midi": 63,
      "hit": false,
      "t": 276710.6369999999,
      "d": 394.7370000000228,
      "v": 60
    },
    {
      "midi": 67,
      "hit": false,
      "t": 276710.6369999999,
      "d": 394.7370000000228,
      "v": 60
    },
    {
      "midi": 34,
      "hit": false,
      "t": 277105.37399999815,
      "d": 197.3684999999823,
      "v": 70
    },
    {
      "midi": 62,
      "hit": false,
      "t": 277105.3739999999,
      "d": 394.7370000000228,
      "v": 60
    },
    {
      "midi": 68,
      "hit": false,
      "t": 277105.3739999999,
      "d": 394.7370000000228,
      "v": 60
    },
    {
      "midi": 71,
      "hit": false,
      "t": 277105.3739999999,
      "d": 1578.9480000000913,
      "v": 70
    },
    {
      "midi": 46,
      "hit": false,
      "t": 277302.74249999813,
      "d": 197.3684999999823,
      "v": 73
    },
    {
      "midi": 53,
      "hit": false,
      "t": 277500.1109999981,
      "d": 197.3684999999823,
      "v": 77
    },
    {
      "midi": 62,
      "hit": false,
      "t": 277500.1109999999,
      "d": 394.7370000000228,
      "v": 60
    },
    {
      "midi": 68,
      "hit": false,
      "t": 277500.1109999999,
      "d": 394.7370000000228,
      "v": 60
    },
    {
      "midi": 54,
      "hit": false,
      "t": 277697.4794999981,
      "d": 197.3684999999823,
      "v": 81
    },
    {
      "midi": 55,
      "hit": false,
      "t": 277894.8479999981,
      "d": 197.3684999999823,
      "v": 84
    },
    {
      "midi": 62,
      "hit": false,
      "t": 277894.84799999994,
      "d": 394.7370000000228,
      "v": 60
    },
    {
      "midi": 68,
      "hit": false,
      "t": 277894.84799999994,
      "d": 394.7370000000228,
      "v": 60
    },
    {
      "midi": 56,
      "hit": false,
      "t": 278092.21649999806,
      "d": 197.3684999999823,
      "v": 88
    },
    {
      "midi": 57,
      "hit": false,
      "t": 278289.58499999804,
      "d": 197.3684999999823,
      "v": 92
    },
    {
      "midi": 62,
      "hit": false,
      "t": 278289.58499999996,
      "d": 394.7370000000228,
      "v": 60
    },
    {
      "midi": 68,
      "hit": false,
      "t": 278289.58499999996,
      "d": 394.7370000000228,
      "v": 60
    },
    {
      "midi": 58,
      "hit": false,
      "t": 278486.953499998,
      "d": 197.3684999999823,
      "v": 96
    },
    {
      "midi": 60,
      "hit": false,
      "t": 278684.321999998,
      "d": 197.3684999999823,
      "v": 99
    },
    {
      "midi": 68,
      "hit": false,
      "t": 278684.322,
      "d": 394.7370000000228,
      "v": 60
    },
    {
      "midi": 70,
      "hit": false,
      "t": 278684.322,
      "d": 789.4740000000456,
      "v": 70
    },
    {
      "midi": 62,
      "hit": false,
      "t": 278881.690499998,
      "d": 197.3684999999823,
      "v": 103
    },
    {
      "midi": 63,
      "hit": false,
      "t": 279079.058999998,
      "d": 197.3684999999823,
      "v": 107
    },
    {
      "midi": 68,
      "hit": false,
      "t": 279079.059,
      "d": 394.7370000000228,
      "v": 60
    },
    {
      "midi": 65,
      "hit": false,
      "t": 279276.42749999795,
      "d": 197.3684999999823,
      "v": 110
    },
    {
      "midi": 67,
      "hit": false,
      "t": 279473.79599999794,
      "d": 197.3684999999823,
      "v": 110
    },
    {
      "midi": 61,
      "hit": false,
      "t": 279868.53300000005,
      "d": 394.7370000000228,
      "v": 60
    },
    {
      "midi": 64,
      "hit": false,
      "t": 280263.2699999979,
      "d": 1184.2110000000102,
      "v": 110
    },
    {
      "midi": 61,
      "hit": false,
      "t": 280263.2700000001,
      "d": 394.7370000000228,
      "v": 60
    },
    {
      "midi": 67,
      "hit": false,
      "t": 280263.2700000001,
      "d": 394.7370000000228,
      "v": 60
    },
    {
      "midi": 61,
      "hit": false,
      "t": 280658.0070000001,
      "d": 394.7370000000228,
      "v": 60
    },
    {
      "midi": 67,
      "hit": false,
      "t": 280658.0070000001,
      "d": 394.7370000000228,
      "v": 60
    },
    {
      "midi": 61,
      "hit": false,
      "t": 281052.7440000001,
      "d": 394.7370000000228,
      "v": 60
    },
    {
      "midi": 67,
      "hit": false,
      "t": 281052.7440000001,
      "d": 394.7370000000228,
      "v": 60
    },
    {
      "midi": 63,
      "hit": false,
      "t": 281447.48099999793,
      "d": 394.7370000000228,
      "v": 110
    },
    {
      "midi": 61,
      "hit": false,
      "t": 281447.48100000015,
      "d": 394.7370000000228,
      "v": 60
    },
    {
      "midi": 67,
      "hit": false,
      "t": 281447.48100000015,
      "d": 394.7370000000228,
      "v": 60
    },
    {
      "midi": 64,
      "hit": false,
      "t": 281842.21799999796,
      "d": 592.1055000000051,
      "v": 110
    },
    {
      "midi": 61,
      "hit": false,
      "t": 281842.21800000017,
      "d": 394.7370000000228,
      "v": 60
    },
    {
      "midi": 67,
      "hit": false,
      "t": 281842.21800000017,
      "d": 394.7370000000228,
      "v": 60
    },
    {
      "midi": 61,
      "hit": false,
      "t": 282236.9550000002,
      "d": 394.7369999999646,
      "v": 67
    },
    {
      "midi": 67,
      "hit": false,
      "t": 282236.9550000002,
      "d": 394.7369999999646,
      "v": 67
    },
    {
      "midi": 63,
      "hit": false,
      "t": 282434.32349999796,
      "d": 197.3684999999823,
      "v": 110
    },
    {
      "midi": 70,
      "hit": false,
      "t": 282434.3235000002,
      "d": 98.68424999999115,
      "v": 81
    },
    {
      "midi": 71,
      "hit": false,
      "t": 282533.00775000016,
      "d": 98.68424999999115,
      "v": 83
    },
    {
      "midi": 64,
      "hit": false,
      "t": 282631.69199999794,
      "d": 1184.2110000000102,
      "v": 110
    },
    {
      "midi": 61,
      "hit": false,
      "t": 282631.69200000016,
      "d": 394.7370000000228,
      "v": 74
    },
    {
      "midi": 67,
      "hit": false,
      "t": 282631.69200000016,
      "d": 394.7370000000228,
      "v": 74
    },
    {
      "midi": 70,
      "hit": false,
      "t": 282631.69200000016,
      "d": 394.7370000000228,
      "v": 84
    },
    {
      "midi": 61,
      "hit": false,
      "t": 283026.4290000002,
      "d": 394.7370000000228,
      "v": 82
    },
    {
      "midi": 67,
      "hit": false,
      "t": 283026.4290000002,
      "d": 394.7370000000228,
      "v": 82
    },
    {
      "midi": 69,
      "hit": false,
      "t": 283026.4290000002,
      "d": 394.7370000000228,
      "v": 92
    },
    {
      "midi": 61,
      "hit": false,
      "t": 283421.1660000002,
      "d": 394.7370000000228,
      "v": 89
    },
    {
      "midi": 67,
      "hit": false,
      "t": 283421.1660000002,
      "d": 394.7370000000228,
      "v": 89
    },
    {
      "midi": 70,
      "hit": false,
      "t": 283421.1660000002,
      "d": 394.7370000000228,
      "v": 99
    },
    {
      "midi": 63,
      "hit": false,
      "t": 283815.90299999795,
      "d": 394.7370000000228,
      "v": 110
    },
    {
      "midi": 61,
      "hit": false,
      "t": 283815.9030000002,
      "d": 394.7370000000228,
      "v": 97
    },
    {
      "midi": 67,
      "hit": false,
      "t": 283815.9030000002,
      "d": 394.7370000000228,
      "v": 97
    },
    {
      "midi": 71,
      "hit": false,
      "t": 283815.9030000002,
      "d": 394.7370000000228,
      "v": 107
    },
    {
      "midi": 57,
      "hit": false,
      "t": 284210.639999998,
      "d": 789.4739999999874,
      "v": 110
    },
    {
      "midi": 63,
      "hit": false,
      "t": 284210.64000000025,
      "d": 394.7370000000228,
      "v": 100
    },
    {
      "midi": 66,
      "hit": false,
      "t": 284210.64000000025,
      "d": 394.7370000000228,
      "v": 100
    },
    {
      "midi": 72,
      "hit": false,
      "t": 284210.64000000025,
      "d": 789.4740000000456,
      "v": 110
    },
    {
      "midi": 63,
      "hit": false,
      "t": 284605.37700000027,
      "d": 394.7370000000228,
      "v": 100
    },
    {
      "midi": 66,
      "hit": false,
      "t": 284605.37700000027,
      "d": 394.7370000000228,
      "v": 100
    },
    {
      "midi": 45,
      "hit": false,
      "t": 285000.11399999796,
      "d": 1184.2110000000102,
      "v": 110
    },
    {
      "midi": 63,
      "hit": false,
      "t": 285000.1140000003,
      "d": 394.7370000000228,
      "v": 100
    },
    {
      "midi": 66,
      "hit": false,
      "t": 285000.1140000003,
      "d": 394.7370000000228,
      "v": 100
    },
    {
      "midi": 73,
      "hit": false,
      "t": 285000.1140000003,
      "d": 789.4740000000456,
      "v": 110
    },
    {
      "midi": 63,
      "hit": false,
      "t": 285394.8510000003,
      "d": 394.7370000000228,
      "v": 100
    },
    {
      "midi": 66,
      "hit": false,
      "t": 285394.8510000003,
      "d": 394.7370000000228,
      "v": 100
    },
    {
      "midi": 63,
      "hit": false,
      "t": 285789.58800000034,
      "d": 394.7370000000228,
      "v": 100
    },
    {
      "midi": 66,
      "hit": false,
      "t": 285789.58800000034,
      "d": 394.7370000000228,
      "v": 100
    },
    {
      "midi": 71,
      "hit": false,
      "t": 285789.58800000034,
      "d": 789.4740000000456,
      "v": 110
    },
    {
      "midi": 74,
      "hit": false,
      "t": 285789.58800000034,
      "d": 789.4740000000456,
      "v": 110
    },
    {
      "midi": 32,
      "hit": false,
      "t": 286184.324999998,
      "d": 394.7370000000228,
      "v": 110
    },
    {
      "midi": 44,
      "hit": false,
      "t": 286184.324999998,
      "d": 394.7370000000228,
      "v": 110
    },
    {
      "midi": 63,
      "hit": false,
      "t": 286184.32500000036,
      "d": 394.7370000000228,
      "v": 100
    },
    {
      "midi": 66,
      "hit": false,
      "t": 286184.32500000036,
      "d": 394.7370000000228,
      "v": 100
    },
    {
      "midi": 33,
      "hit": false,
      "t": 286579.061999998,
      "d": 592.1055000000051,
      "v": 110
    },
    {
      "midi": 45,
      "hit": false,
      "t": 286579.061999998,
      "d": 592.1055000000051,
      "v": 110
    },
    {
      "midi": 63,
      "hit": false,
      "t": 286579.0620000004,
      "d": 394.7370000000228,
      "v": 100
    },
    {
      "midi": 66,
      "hit": false,
      "t": 286579.0620000004,
      "d": 394.7370000000228,
      "v": 100
    },
    {
      "midi": 72,
      "hit": false,
      "t": 286579.0620000004,
      "d": 1184.2110000000685,
      "v": 110
    },
    {
      "midi": 75,
      "hit": false,
      "t": 286579.0620000004,
      "d": 1184.2110000000685,
      "v": 110
    },
    {
      "midi": 63,
      "hit": false,
      "t": 286973.7990000004,
      "d": 394.7370000000228,
      "v": 100
    },
    {
      "midi": 66,
      "hit": false,
      "t": 286973.7990000004,
      "d": 394.7370000000228,
      "v": 100
    },
    {
      "midi": 32,
      "hit": false,
      "t": 287171.167499998,
      "d": 197.3684999999823,
      "v": 110
    },
    {
      "midi": 44,
      "hit": false,
      "t": 287171.167499998,
      "d": 197.3684999999823,
      "v": 110
    },
    {
      "midi": 33,
      "hit": false,
      "t": 287368.535999998,
      "d": 1184.2110000000102,
      "v": 110
    },
    {
      "midi": 45,
      "hit": false,
      "t": 287368.535999998,
      "d": 1184.2110000000102,
      "v": 110
    },
    {
      "midi": 63,
      "hit": false,
      "t": 287368.53600000043,
      "d": 394.7370000000228,
      "v": 100
    },
    {
      "midi": 66,
      "hit": false,
      "t": 287368.53600000043,
      "d": 394.7370000000228,
      "v": 100
    },
    {
      "midi": 63,
      "hit": false,
      "t": 287763.27300000045,
      "d": 394.7370000000228,
      "v": 100
    },
    {
      "midi": 66,
      "hit": false,
      "t": 287763.27300000045,
      "d": 394.7370000000228,
      "v": 100
    },
    {
      "midi": 71,
      "hit": false,
      "t": 287763.27300000045,
      "d": 394.7370000000228,
      "v": 110
    },
    {
      "midi": 74,
      "hit": false,
      "t": 287763.27300000045,
      "d": 394.7370000000228,
      "v": 110
    },
    {
      "midi": 63,
      "hit": false,
      "t": 288158.0100000005,
      "d": 394.7370000000228,
      "v": 100
    },
    {
      "midi": 66,
      "hit": false,
      "t": 288158.0100000005,
      "d": 394.7370000000228,
      "v": 100
    },
    {
      "midi": 72,
      "hit": false,
      "t": 288158.0100000005,
      "d": 394.7370000000228,
      "v": 110
    },
    {
      "midi": 75,
      "hit": false,
      "t": 288158.0100000005,
      "d": 394.7370000000228,
      "v": 110
    },
    {
      "midi": 32,
      "hit": false,
      "t": 288552.746999998,
      "d": 394.7370000000228,
      "v": 110
    },
    {
      "midi": 44,
      "hit": false,
      "t": 288552.746999998,
      "d": 394.7370000000228,
      "v": 110
    },
    {
      "midi": 64,
      "hit": false,
      "t": 288552.7470000005,
      "d": 394.7370000000228,
      "v": 100
    },
    {
      "midi": 66,
      "hit": false,
      "t": 288552.7470000005,
      "d": 394.7370000000228,
      "v": 100
    },
    {
      "midi": 72,
      "hit": false,
      "t": 288552.7470000005,
      "d": 394.7370000000228,
      "v": 110
    },
    {
      "midi": 76,
      "hit": false,
      "t": 288552.7470000005,
      "d": 394.7370000000228,
      "v": 110
    },
    {
      "midi": 25,
      "hit": false,
      "t": 288947.483999998,
      "d": 197.3684999999823,
      "v": 110
    },
    {
      "midi": 37,
      "hit": false,
      "t": 288947.483999998,
      "d": 197.3684999999823,
      "v": 110
    },
    {
      "midi": 65,
      "hit": false,
      "t": 288947.4840000005,
      "d": 394.7370000000228,
      "v": 100
    },
    {
      "midi": 73,
      "hit": false,
      "t": 288947.4840000005,
      "d": 394.7370000000228,
      "v": 100
    },
    {
      "midi": 77,
      "hit": false,
      "t": 288947.4840000005,
      "d": 1578.9480000000913,
      "v": 110
    },
    {
      "midi": 49,
      "hit": false,
      "t": 289342.220999998,
      "d": 394.7370000000228,
      "v": 60
    },
    {
      "midi": 56,
      "hit": false,
      "t": 289342.220999998,
      "d": 394.7370000000228,
      "v": 60
    },
    {
      "midi": 65,
      "hit": false,
      "t": 289342.22100000054,
      "d": 394.7370000000228,
      "v": 60
    },
    {
      "midi": 49,
      "hit": false,
      "t": 289736.957999998,
      "d": 394.7370000000228,
      "v": 60
    },
    {
      "midi": 56,
      "hit": false,
      "t": 289736.957999998,
      "d": 394.7370000000228,
      "v": 60
    },
    {
      "midi": 65,
      "hit": false,
      "t": 289736.95800000057,
      "d": 394.7370000000228,
      "v": 60
    },
    {
      "midi": 49,
      "hit": false,
      "t": 290131.694999998,
      "d": 394.7370000000228,
      "v": 60
    },
    {
      "midi": 57,
      "hit": false,
      "t": 290131.694999998,
      "d": 394.7370000000228,
      "v": 60
    },
    {
      "midi": 65,
      "hit": false,
      "t": 290131.6950000006,
      "d": 394.7370000000228,
      "v": 60
    },
    {
      "midi": 49,
      "hit": false,
      "t": 290526.43199999805,
      "d": 394.7370000000228,
      "v": 60
    },
    {
      "midi": 58,
      "hit": false,
      "t": 290526.43199999805,
      "d": 394.7370000000228,
      "v": 60
    },
    {
      "midi": 77,
      "hit": false,
      "t": 290526.4320000006,
      "d": 263.1579999999958,
      "v": 70
    },
    {
      "midi": 66,
      "hit": false,
      "t": 290526.4320000006,
      "d": 394.7370000000228,
      "v": 60
    },
    {
      "midi": 73,
      "hit": false,
      "t": 290789.5900000006,
      "d": 263.158000000054,
      "v": 70
    },
    {
      "midi": 49,
      "hit": false,
      "t": 290921.1689999981,
      "d": 394.7370000000228,
      "v": 60
    },
    {
      "midi": 60,
      "hit": false,
      "t": 290921.1689999981,
      "d": 394.7370000000228,
      "v": 60
    },
    {
      "midi": 66,
      "hit": false,
      "t": 290921.16900000063,
      "d": 394.7370000000228,
      "v": 60
    },
    {
      "midi": 70,
      "hit": false,
      "t": 291052.74800000066,
      "d": 263.1579999999958,
      "v": 70
    },
    {
      "midi": 49,
      "hit": false,
      "t": 291315.9059999981,
      "d": 394.7370000000228,
      "v": 60
    },
    {
      "midi": 61,
      "hit": false,
      "t": 291315.9059999981,
      "d": 394.7370000000228,
      "v": 60
    },
    {
      "midi": 65,
      "hit": false,
      "t": 291315.90600000066,
      "d": 394.7370000000228,
      "v": 60
    },
    {
      "midi": 68,
      "hit": false,
      "t": 291315.90600000066,
      "d": 921.0530000000726,
      "v": 70
    },
    {
      "midi": 49,
      "hit": false,
      "t": 291710.6429999981,
      "d": 394.7370000000228,
      "v": 60
    },
    {
      "midi": 61,
      "hit": false,
      "t": 291710.6429999981,
      "d": 394.7370000000228,
      "v": 60
    },
    {
      "midi": 65,
      "hit": false,
      "t": 291710.6430000007,
      "d": 394.7370000000228,
      "v": 60
    },
    {
      "midi": 49,
      "hit": false,
      "t": 292105.37999999814,
      "d": 394.7370000000228,
      "v": 60
    },
    {
      "midi": 61,
      "hit": false,
      "t": 292105.37999999814,
      "d": 394.7370000000228,
      "v": 60
    },
    {
      "midi": 65,
      "hit": false,
      "t": 292105.3800000007,
      "d": 394.737000000081,
      "v": 60
    },
    {
      "midi": 68,
      "hit": false,
      "t": 292236.95900000073,
      "d": 131.579000000027,
      "v": 70
    },
    {
      "midi": 70,
      "hit": false,
      "t": 292368.53800000076,
      "d": 131.579000000027,
      "v": 70
    },
    {
      "midi": 49,
      "hit": false,
      "t": 292500.11699999816,
      "d": 394.7370000000228,
      "v": 60
    },
    {
      "midi": 61,
      "hit": false,
      "t": 292500.11699999816,
      "d": 394.7370000000228,
      "v": 60
    },
    {
      "midi": 68,
      "hit": false,
      "t": 292500.1170000008,
      "d": 131.579000000027,
      "v": 70
    },
    {
      "midi": 65,
      "hit": false,
      "t": 292500.1170000008,
      "d": 394.737000000081,
      "v": 60
    },
    {
      "midi": 67,
      "hit": false,
      "t": 292631.6960000008,
      "d": 131.579000000027,
      "v": 70
    },
    {
      "midi": 68,
      "hit": false,
      "t": 292763.27500000084,
      "d": 131.579000000027,
      "v": 70
    },
    {
      "midi": 55,
      "hit": false,
      "t": 292894.8539999982,
      "d": 394.7370000000228,
      "v": 60
    },
    {
      "midi": 61,
      "hit": false,
      "t": 292894.8539999982,
      "d": 394.7370000000228,
      "v": 60
    },
    {
      "midi": 64,
      "hit": false,
      "t": 292894.85400000087,
      "d": 394.7370000000228,
      "v": 60
    },
    {
      "midi": 72,
      "hit": false,
      "t": 292894.85400000087,
      "d": 592.1055000000051,
      "v": 70
    },
    {
      "midi": 55,
      "hit": false,
      "t": 293289.5909999982,
      "d": 394.7370000000228,
      "v": 60
    },
    {
      "midi": 61,
      "hit": false,
      "t": 293289.5909999982,
      "d": 394.7370000000228,
      "v": 60
    },
    {
      "midi": 64,
      "hit": false,
      "t": 293289.5910000009,
      "d": 394.7369999999646,
      "v": 60
    },
    {
      "midi": 70,
      "hit": false,
      "t": 293486.95950000087,
      "d": 197.3684999999823,
      "v": 70
    },
    {
      "midi": 56,
      "hit": false,
      "t": 293684.32799999823,
      "d": 394.7370000000228,
      "v": 60
    },
    {
      "midi": 61,
      "hit": false,
      "t": 293684.32800000085,
      "d": 394.7370000000228,
      "v": 60
    },
    {
      "midi": 63,
      "hit": false,
      "t": 293684.32800000085,
      "d": 1184.2110000000685,
      "v": 70
    },
    {
      "midi": 56,
      "hit": false,
      "t": 294079.06499999826,
      "d": 394.7370000000228,
      "v": 60
    },
    {
      "midi": 61,
      "hit": false,
      "t": 294079.0650000009,
      "d": 394.7370000000228,
      "v": 60
    },
    {
      "midi": 56,
      "hit": false,
      "t": 294473.8019999983,
      "d": 394.7370000000228,
      "v": 60
    },
    {
      "midi": 61,
      "hit": false,
      "t": 294473.8020000009,
      "d": 394.7370000000228,
      "v": 60
    },
    {
      "midi": 56,
      "hit": false,
      "t": 294868.5389999983,
      "d": 394.7370000000228,
      "v": 60
    },
    {
      "midi": 63,
      "hit": false,
      "t": 294868.5390000009,
      "d": 131.579000000027,
      "v": 70
    },
    {
      "midi": 61,
      "hit": false,
      "t": 294868.5390000009,
      "d": 394.737000000081,
      "v": 60
    },
    {
      "midi": 65,
      "hit": false,
      "t": 295000.11800000095,
      "d": 131.579000000027,
      "v": 70
    },
    {
      "midi": 66,
      "hit": false,
      "t": 295131.697000001,
      "d": 131.579000000027,
      "v": 70
    },
    {
      "midi": 56,
      "hit": false,
      "t": 295263.2759999983,
      "d": 394.7370000000228,
      "v": 60
    },
    {
      "midi": 44,
      "hit": false,
      "t": 295263.2759999983,
      "d": 789.4740000000456,
      "v": 70
    },
    {
      "midi": 60,
      "hit": false,
      "t": 295263.276000001,
      "d": 394.7370000000228,
      "v": 60
    },
    {
      "midi": 66,
      "hit": false,
      "t": 295263.276000001,
      "d": 592.1055000000051,
      "v": 70
    },
    {
      "midi": 70,
      "hit": false,
      "t": 295263.276000001,
      "d": 592.1055000000051,
      "v": 70
    },
    {
      "midi": 56,
      "hit": false,
      "t": 295658.01299999835,
      "d": 394.7370000000228,
      "v": 60
    },
    {
      "midi": 60,
      "hit": false,
      "t": 295658.013000001,
      "d": 394.7369999999646,
      "v": 60
    },
    {
      "midi": 65,
      "hit": false,
      "t": 295855.381500001,
      "d": 197.3684999999823,
      "v": 70
    },
    {
      "midi": 68,
      "hit": false,
      "t": 295855.381500001,
      "d": 197.3684999999823,
      "v": 70
    },
    {
      "midi": 56,
      "hit": false,
      "t": 296052.74999999837,
      "d": 394.7370000000228,
      "v": 60
    },
    {
      "midi": 44,
      "hit": false,
      "t": 296052.74999999837,
      "d": 789.4740000000456,
      "v": 70
    },
    {
      "midi": 60,
      "hit": false,
      "t": 296052.750000001,
      "d": 394.7370000000228,
      "v": 60
    },
    {
      "midi": 63,
      "hit": false,
      "t": 296052.750000001,
      "d": 789.4739999999874,
      "v": 70
    },
    {
      "midi": 56,
      "hit": false,
      "t": 296447.4869999984,
      "d": 394.7370000000228,
      "v": 60
    },
    {
      "midi": 60,
      "hit": false,
      "t": 296447.487000001,
      "d": 394.7369999999646,
      "v": 60
    },
    {
      "midi": 68,
      "hit": false,
      "t": 296644.855500001,
      "d": 98.68424999999115,
      "v": 70
    },
    {
      "midi": 66,
      "hit": false,
      "t": 296743.539750001,
      "d": 98.68424999999115,
      "v": 70
    },
    {
      "midi": 56,
      "hit": false,
      "t": 296842.2239999984,
      "d": 394.7370000000228,
      "v": 60
    },
    {
      "midi": 49,
      "hit": false,
      "t": 296842.2239999984,
      "d": 789.4740000000456,
      "v": 70
    },
    {
      "midi": 61,
      "hit": false,
      "t": 296842.224000001,
      "d": 394.7370000000228,
      "v": 60
    },
    {
      "midi": 65,
      "hit": false,
      "t": 296842.224000001,
      "d": 789.4740000000456,
      "v": 70
    },
    {
      "midi": 56,
      "hit": false,
      "t": 297236.96099999844,
      "d": 394.7370000000228,
      "v": 60
    },
    {
      "midi": 61,
      "hit": false,
      "t": 297236.961000001,
      "d": 394.7370000000228,
      "v": 60
    },
    {
      "midi": 59,
      "hit": false,
      "t": 297631.69799999846,
      "d": 394.7370000000228,
      "v": 60
    },
    {
      "midi": 61,
      "hit": false,
      "t": 297631.698000001,
      "d": 394.7370000000228,
      "v": 60
    },
    {
      "midi": 59,
      "hit": false,
      "t": 298026.4349999985,
      "d": 394.7370000000228,
      "v": 60
    },
    {
      "midi": 61,
      "hit": false,
      "t": 298026.43500000105,
      "d": 394.7370000000228,
      "v": 60
    },
    {
      "midi": 58,
      "hit": false,
      "t": 298421.1719999985,
      "d": 394.7370000000228,
      "v": 60
    },
    {
      "midi": 61,
      "hit": false,
      "t": 298421.1719999985,
      "d": 394.7370000000228,
      "v": 60
    },
    {
      "midi": 66,
      "hit": false,
      "t": 298421.17200000107,
      "d": 394.7370000000228,
      "v": 60
    },
    {
      "midi": 58,
      "hit": false,
      "t": 298815.90899999853,
      "d": 394.7370000000228,
      "v": 63
    },
    {
      "midi": 61,
      "hit": false,
      "t": 298815.90899999853,
      "d": 394.7370000000228,
      "v": 63
    },
    {
      "midi": 73,
      "hit": false,
      "t": 298815.9090000011,
      "d": 78.94740000000456,
      "v": 73
    },
    {
      "midi": 66,
      "hit": false,
      "t": 298815.9090000011,
      "d": 394.7370000000228,
      "v": 63
    },
    {
      "midi": 75,
      "hit": false,
      "t": 298894.8564000011,
      "d": 78.94740000000456,
      "v": 74
    },
    {
      "midi": 73,
      "hit": false,
      "t": 298973.8038000011,
      "d": 78.94740000000456,
      "v": 74
    },
    {
      "midi": 72,
      "hit": false,
      "t": 299052.7512000011,
      "d": 78.94740000000456,
      "v": 75
    },
    {
      "midi": 73,
      "hit": false,
      "t": 299131.6986000011,
      "d": 78.94740000000456,
      "v": 76
    },
    {
      "midi": 57,
      "hit": false,
      "t": 299210.64599999855,
      "d": 394.7370000000228,
      "v": 67
    },
    {
      "midi": 61,
      "hit": false,
      "t": 299210.64599999855,
      "d": 394.7370000000228,
      "v": 67
    },
    {
      "midi": 66,
      "hit": false,
      "t": 299210.6460000011,
      "d": 394.7370000000228,
      "v": 67
    },
    {
      "midi": 78,
      "hit": false,
      "t": 299210.6460000011,
      "d": 789.4740000000456,
      "v": 77
    },
    {
      "midi": 57,
      "hit": false,
      "t": 299605.3829999986,
      "d": 394.7370000000228,
      "v": 70
    },
    {
      "midi": 61,
      "hit": false,
      "t": 299605.3829999986,
      "d": 394.7370000000228,
      "v": 70
    },
    {
      "midi": 66,
      "hit": false,
      "t": 299605.38300000114,
      "d": 394.7370000000228,
      "v": 70
    },
    {
      "midi": 73,
      "hit": false,
      "t": 299605.38300000114,
      "d": 789.4740000000456,
      "v": 80
    },
    {
      "midi": 56,
      "hit": false,
      "t": 300000.1199999986,
      "d": 394.7370000000228,
      "v": 74
    },
    {
      "midi": 61,
      "hit": false,
      "t": 300000.1199999986,
      "d": 394.7370000000228,
      "v": 74
    },
    {
      "midi": 68,
      "hit": false,
      "t": 300000.12000000116,
      "d": 394.7370000000228,
      "v": 74
    },
    {
      "midi": 77,
      "hit": false,
      "t": 300000.12000000116,
      "d": 789.4740000000456,
      "v": 84
    },
    {
      "midi": 56,
      "hit": false,
      "t": 300394.8569999986,
      "d": 394.7370000000228,
      "v": 77
    },
    {
      "midi": 61,
      "hit": false,
      "t": 300394.8569999986,
      "d": 394.7370000000228,
      "v": 77
    },
    {
      "midi": 68,
      "hit": false,
      "t": 300394.8570000012,
      "d": 394.7370000000228,
      "v": 77
    },
    {
      "midi": 73,
      "hit": false,
      "t": 300394.8570000012,
      "d": 394.7370000000228,
      "v": 87
    },
    {
      "midi": 55,
      "hit": false,
      "t": 300789.59399999864,
      "d": 394.7370000000228,
      "v": 81
    },
    {
      "midi": 63,
      "hit": false,
      "t": 300789.59399999864,
      "d": 394.7370000000228,
      "v": 81
    },
    {
      "midi": 74,
      "hit": false,
      "t": 300789.5940000012,
      "d": 131.579000000027,
      "v": 91
    },
    {
      "midi": 70,
      "hit": false,
      "t": 300789.5940000012,
      "d": 394.737000000081,
      "v": 81
    },
    {
      "midi": 75,
      "hit": false,
      "t": 300921.17300000123,
      "d": 131.579000000027,
      "v": 92
    },
    {
      "midi": 77,
      "hit": false,
      "t": 301052.75200000126,
      "d": 131.579000000027,
      "v": 93
    },
    {
      "midi": 55,
      "hit": false,
      "t": 301184.33099999867,
      "d": 394.7370000000228,
      "v": 84
    },
    {
      "midi": 63,
      "hit": false,
      "t": 301184.33099999867,
      "d": 394.7370000000228,
      "v": 84
    },
    {
      "midi": 75,
      "hit": false,
      "t": 301184.3310000013,
      "d": 131.579000000027,
      "v": 94
    },
    {
      "midi": 70,
      "hit": false,
      "t": 301184.3310000013,
      "d": 394.737000000081,
      "v": 84
    },
    {
      "midi": 74,
      "hit": false,
      "t": 301315.9100000013,
      "d": 131.579000000027,
      "v": 95
    },
    {
      "midi": 75,
      "hit": false,
      "t": 301447.48900000134,
      "d": 131.579000000027,
      "v": 97
    },
    {
      "midi": 54,
      "hit": false,
      "t": 301579.0679999987,
      "d": 394.7370000000228,
      "v": 88
    },
    {
      "midi": 63,
      "hit": false,
      "t": 301579.0679999987,
      "d": 394.7370000000228,
      "v": 88
    },
    {
      "midi": 72,
      "hit": false,
      "t": 301579.06800000137,
      "d": 394.7370000000228,
      "v": 88
    },
    {
      "midi": 82,
      "hit": false,
      "t": 301579.06800000137,
      "d": 1184.2110000000685,
      "v": 98
    },
    {
      "midi": 54,
      "hit": false,
      "t": 301973.8049999987,
      "d": 394.7370000000228,
      "v": 91
    },
    {
      "midi": 56,
      "hit": false,
      "t": 301973.8049999987,
      "d": 394.7370000000228,
      "v": 91
    },
    {
      "midi": 63,
      "hit": false,
      "t": 301973.8049999987,
      "d": 394.7370000000228,
      "v": 91
    },
    {
      "midi": 72,
      "hit": false,
      "t": 301973.8050000014,
      "d": 394.7370000000228,
      "v": 91
    },
    {
      "midi": 53,
      "hit": false,
      "t": 302368.54199999874,
      "d": 394.7370000000228,
      "v": 95
    },
    {
      "midi": 56,
      "hit": false,
      "t": 302368.54199999874,
      "d": 394.7370000000228,
      "v": 95
    },
    {
      "midi": 61,
      "hit": false,
      "t": 302368.54199999874,
      "d": 394.7370000000228,
      "v": 95
    },
    {
      "midi": 73,
      "hit": false,
      "t": 302368.5420000014,
      "d": 394.7370000000228,
      "v": 95
    },
    {
      "midi": 52,
      "hit": false,
      "t": 302763.27899999876,
      "d": 394.7370000000228,
      "v": 98
    },
    {
      "midi": 56,
      "hit": false,
      "t": 302763.27899999876,
      "d": 394.7370000000228,
      "v": 98
    },
    {
      "midi": 61,
      "hit": false,
      "t": 302763.27899999876,
      "d": 394.7370000000228,
      "v": 98
    },
    {
      "midi": 73,
      "hit": false,
      "t": 302763.27900000144,
      "d": 394.7370000000228,
      "v": 98
    },
    {
      "midi": 80,
      "hit": false,
      "t": 302763.27900000144,
      "d": 394.7370000000228,
      "v": 108
    },
    {
      "midi": 39,
      "hit": false,
      "t": 303158.0159999988,
      "d": 394.7370000000228,
      "v": 100
    },
    {
      "midi": 51,
      "hit": false,
      "t": 303158.0159999988,
      "d": 394.7370000000228,
      "v": 100
    },
    {
      "midi": 73,
      "hit": false,
      "t": 303158.01600000146,
      "d": 394.7370000000228,
      "v": 100
    },
    {
      "midi": 79,
      "hit": false,
      "t": 303158.01600000146,
      "d": 394.7370000000228,
      "v": 100
    },
    {
      "midi": 85,
      "hit": false,
      "t": 303158.01600000146,
      "d": 394.7370000000228,
      "v": 110
    },
    {
      "midi": 63,
      "hit": false,
      "t": 303552.75299999927,
      "d": 394.7370000000228,
      "v": 100
    },
    {
      "midi": 70,
      "hit": false,
      "t": 303552.75299999927,
      "d": 394.7370000000228,
      "v": 100
    },
    {
      "midi": 73,
      "hit": false,
      "t": 303552.75299999927,
      "d": 394.7370000000228,
      "v": 100
    },
    {
      "midi": 79,
      "hit": false,
      "t": 303552.7530000015,
      "d": 394.7370000000228,
      "v": 100
    },
    {
      "midi": 89,
      "hit": false,
      "t": 303552.7530000015,
      "d": 592.1055000000051,
      "v": 110
    },
    {
      "midi": 63,
      "hit": false,
      "t": 303947.4899999993,
      "d": 394.7370000000228,
      "v": 100
    },
    {
      "midi": 70,
      "hit": false,
      "t": 303947.4899999993,
      "d": 394.7370000000228,
      "v": 100
    },
    {
      "midi": 73,
      "hit": false,
      "t": 303947.4899999993,
      "d": 394.7370000000228,
      "v": 100
    },
    {
      "midi": 79,
      "hit": false,
      "t": 303947.4900000015,
      "d": 394.7369999999646,
      "v": 100
    },
    {
      "midi": 88,
      "hit": false,
      "t": 304144.8585000015,
      "d": 197.3684999999823,
      "v": 110
    },
    {
      "midi": 63,
      "hit": false,
      "t": 304342.2269999993,
      "d": 394.7370000000228,
      "v": 100
    },
    {
      "midi": 70,
      "hit": false,
      "t": 304342.2269999993,
      "d": 394.7370000000228,
      "v": 100
    },
    {
      "midi": 73,
      "hit": false,
      "t": 304342.2269999993,
      "d": 394.7370000000228,
      "v": 100
    },
    {
      "midi": 87,
      "hit": false,
      "t": 304342.22700000147,
      "d": 197.3684999999823,
      "v": 110
    },
    {
      "midi": 79,
      "hit": false,
      "t": 304342.22700000147,
      "d": 394.7369999999646,
      "v": 100
    },
    {
      "midi": 86,
      "hit": false,
      "t": 304539.59550000145,
      "d": 197.3684999999823,
      "v": 110
    },
    {
      "midi": 63,
      "hit": false,
      "t": 304736.96399999934,
      "d": 394.7370000000228,
      "v": 100
    },
    {
      "midi": 70,
      "hit": false,
      "t": 304736.96399999934,
      "d": 394.7370000000228,
      "v": 100
    },
    {
      "midi": 73,
      "hit": false,
      "t": 304736.96399999934,
      "d": 394.7370000000228,
      "v": 100
    },
    {
      "midi": 89,
      "hit": false,
      "t": 304736.96400000143,
      "d": 197.3684999999823,
      "v": 110
    },
    {
      "midi": 79,
      "hit": false,
      "t": 304736.96400000143,
      "d": 394.7369999999646,
      "v": 100
    },
    {
      "midi": 87,
      "hit": false,
      "t": 304934.3325000014,
      "d": 197.3684999999823,
      "v": 110
    },
    {
      "midi": 63,
      "hit": false,
      "t": 305131.70099999936,
      "d": 394.7370000000228,
      "v": 100
    },
    {
      "midi": 70,
      "hit": false,
      "t": 305131.70099999936,
      "d": 394.7370000000228,
      "v": 100
    },
    {
      "midi": 73,
      "hit": false,
      "t": 305131.70099999936,
      "d": 394.7370000000228,
      "v": 100
    },
    {
      "midi": 86,
      "hit": false,
      "t": 305131.7010000014,
      "d": 197.3684999999823,
      "v": 110
    },
    {
      "midi": 79,
      "hit": false,
      "t": 305131.7010000014,
      "d": 394.7369999999646,
      "v": 100
    },
    {
      "midi": 85,
      "hit": false,
      "t": 305329.0695000014,
      "d": 197.3684999999823,
      "v": 110
    },
    {
      "midi": 32,
      "hit": false,
      "t": 305526.4379999988,
      "d": 197.3684999999823,
      "v": 110
    },
    {
      "midi": 84,
      "hit": false,
      "t": 305526.43800000136,
      "d": 394.737000000081,
      "v": 110
    },
    {
      "midi": 72,
      "hit": false,
      "t": 305658.0170000014,
      "d": 131.579000000027,
      "v": 98
    },
    {
      "midi": 78,
      "hit": false,
      "t": 305789.5960000014,
      "d": 657.895000000135,
      "v": 96
    },
    {
      "midi": 56,
      "hit": false,
      "t": 305921.17499999877,
      "d": 394.7370000000228,
      "v": 93
    },
    {
      "midi": 63,
      "hit": false,
      "t": 305921.17499999877,
      "d": 394.7370000000228,
      "v": 93
    },
    {
      "midi": 66,
      "hit": false,
      "t": 305921.17499999877,
      "d": 394.7370000000228,
      "v": 93
    },
    {
      "midi": 84,
      "hit": false,
      "t": 305921.17500000144,
      "d": 131.579000000027,
      "v": 103
    },
    {
      "midi": 85,
      "hit": false,
      "t": 306052.75400000147,
      "d": 131.579000000027,
      "v": 101
    },
    {
      "midi": 84,
      "hit": false,
      "t": 306184.3330000015,
      "d": 131.579000000027,
      "v": 98
    },
    {
      "midi": 44,
      "hit": false,
      "t": 306315.9119999988,
      "d": 197.3684999999823,
      "v": 96
    },
    {
      "midi": 82,
      "hit": false,
      "t": 306315.9120000015,
      "d": 394.737000000081,
      "v": 96
    },
    {
      "midi": 72,
      "hit": false,
      "t": 306447.49100000155,
      "d": 131.579000000027,
      "v": 83
    },
    {
      "midi": 78,
      "hit": false,
      "t": 306579.0700000016,
      "d": 526.316000000108,
      "v": 81
    },
    {
      "midi": 56,
      "hit": false,
      "t": 306710.64899999875,
      "d": 394.7370000000228,
      "v": 78
    },
    {
      "midi": 63,
      "hit": false,
      "t": 306710.64899999875,
      "d": 394.7370000000228,
      "v": 78
    },
    {
      "midi": 66,
      "hit": false,
      "t": 306710.64899999875,
      "d": 394.7370000000228,
      "v": 78
    },
    {
      "midi": 82,
      "hit": false,
      "t": 306710.6490000016,
      "d": 131.579000000027,
      "v": 88
    },
    {
      "midi": 84,
      "hit": false,
      "t": 306842.22800000163,
      "d": 131.579000000027,
      "v": 86
    },
    {
      "midi": 82,
      "hit": false,
      "t": 306973.80700000166,
      "d": 131.579000000027,
      "v": 83
    },
    {
      "midi": 32,
      "hit": false,
      "t": 307105.3859999988,
      "d": 197.3684999999823,
      "v": 81
    },
    {
      "midi": 77,
      "hit": false,
      "t": 307105.3860000017,
      "d": 131.579000000027,
      "v": 71
    },
    {
      "midi": 80,
      "hit": false,
      "t": 307105.3860000017,
      "d": 394.737000000081,
      "v": 81
    },
    {
      "midi": 72,
      "hit": false,
      "t": 307236.9650000017,
      "d": 131.579000000027,
      "v": 68
    },
    {
      "midi": 77,
      "hit": false,
      "t": 307368.54400000174,
      "d": 131.579000000027,
      "v": 66
    },
    {
      "midi": 56,
      "hit": false,
      "t": 307500.12299999874,
      "d": 394.7370000000228,
      "v": 63
    },
    {
      "midi": 68,
      "hit": false,
      "t": 307500.12299999874,
      "d": 394.7370000000228,
      "v": 63
    },
    {
      "midi": 75,
      "hit": false,
      "t": 307500.12300000177,
      "d": 131.579000000027,
      "v": 63
    },
    {
      "midi": 78,
      "hit": false,
      "t": 307500.12300000177,
      "d": 131.579000000027,
      "v": 73
    },
    {
      "midi": 77,
      "hit": false,
      "t": 307631.7020000018,
      "d": 131.579000000027,
      "v": 61
    },
    {
      "midi": 80,
      "hit": false,
      "t": 307631.7020000018,
      "d": 131.579000000027,
      "v": 71
    },
    {
      "midi": 75,
      "hit": false,
      "t": 307763.2810000018,
      "d": 131.579000000027,
      "v": 60
    },
    {
      "midi": 78,
      "hit": false,
      "t": 307763.2810000018,
      "d": 131.579000000027,
      "v": 70
    },
    {
      "midi": 25,
      "hit": false,
      "t": 307894.85999999876,
      "d": 197.3684999999823,
      "v": 70
    },
    {
      "midi": 77,
      "hit": false,
      "t": 307894.86000000185,
      "d": 1578.9480000000913,
      "v": 70
    },
    {
      "midi": 49,
      "hit": false,
      "t": 308289.5969999987,
      "d": 394.7370000000228,
      "v": 60
    },
    {
      "midi": 56,
      "hit": false,
      "t": 308289.5969999987,
      "d": 394.7370000000228,
      "v": 60
    },
    {
      "midi": 65,
      "hit": false,
      "t": 308289.5970000019,
      "d": 394.7370000000228,
      "v": 60
    },
    {
      "midi": 49,
      "hit": false,
      "t": 308684.33399999875,
      "d": 394.7370000000228,
      "v": 60
    },
    {
      "midi": 56,
      "hit": false,
      "t": 308684.33399999875,
      "d": 394.7370000000228,
      "v": 60
    },
    {
      "midi": 65,
      "hit": false,
      "t": 308684.3340000019,
      "d": 394.7370000000228,
      "v": 60
    },
    {
      "midi": 49,
      "hit": false,
      "t": 309079.0709999988,
      "d": 394.7370000000228,
      "v": 60
    },
    {
      "midi": 57,
      "hit": false,
      "t": 309079.0709999988,
      "d": 394.7370000000228,
      "v": 60
    },
    {
      "midi": 65,
      "hit": false,
      "t": 309079.0710000019,
      "d": 394.7370000000228,
      "v": 60
    },
    {
      "midi": 49,
      "hit": false,
      "t": 309473.8079999988,
      "d": 394.7370000000228,
      "v": 60
    },
    {
      "midi": 58,
      "hit": false,
      "t": 309473.8079999988,
      "d": 394.7370000000228,
      "v": 60
    },
    {
      "midi": 74,
      "hit": false,
      "t": 309473.80800000194,
      "d": 98.68424999999115,
      "v": 70
    },
    {
      "midi": 66,
      "hit": false,
      "t": 309473.80800000194,
      "d": 394.7369999999646,
      "v": 60
    },
    {
      "midi": 75,
      "hit": false,
      "t": 309572.49225000193,
      "d": 98.68424999999115,
      "v": 70
    },
    {
      "midi": 77,
      "hit": false,
      "t": 309671.1765000019,
      "d": 98.68424999999115,
      "v": 70
    },
    {
      "midi": 75,
      "hit": false,
      "t": 309769.8607500019,
      "d": 98.68424999999115,
      "v": 70
    },
    {
      "midi": 60,
      "hit": false,
      "t": 309868.5449999988,
      "d": 394.7370000000228,
      "v": 60
    },
    {
      "midi": 49,
      "hit": false,
      "t": 309868.5449999988,
      "d": 789.4740000000456,
      "v": 60
    },
    {
      "midi": 78,
      "hit": false,
      "t": 309868.5450000019,
      "d": 65.7895000000135,
      "v": 70
    },
    {
      "midi": 66,
      "hit": false,
      "t": 309868.5450000019,
      "d": 394.737000000081,
      "v": 60
    },
    {
      "midi": 77,
      "hit": false,
      "t": 309934.3345000019,
      "d": 65.7895000000135,
      "v": 70
    },
    {
      "midi": 75,
      "hit": false,
      "t": 310000.12400000193,
      "d": 65.7895000000135,
      "v": 70
    },
    {
      "midi": 73,
      "hit": false,
      "t": 310065.91350000195,
      "d": 65.7895000000135,
      "v": 70
    },
    {
      "midi": 72,
      "hit": false,
      "t": 310131.70300000196,
      "d": 65.7895000000135,
      "v": 70
    },
    {
      "midi": 70,
      "hit": false,
      "t": 310197.492500002,
      "d": 65.7895000000135,
      "v": 70
    },
    {
      "midi": 61,
      "hit": false,
      "t": 310263.28199999884,
      "d": 394.7370000000228,
      "v": 60
    },
    {
      "midi": 65,
      "hit": false,
      "t": 310263.282000002,
      "d": 394.7370000000228,
      "v": 60
    },
    {
      "midi": 68,
      "hit": false,
      "t": 310263.282000002,
      "d": 789.4740000000456,
      "v": 70
    },
    {
      "midi": 61,
      "hit": false,
      "t": 310658.01899999887,
      "d": 394.7370000000228,
      "v": 60
    },
    {
      "midi": 65,
      "hit": false,
      "t": 310658.019000002,
      "d": 394.7370000000228,
      "v": 60
    },
    {
      "midi": 61,
      "hit": false,
      "t": 311052.7559999989,
      "d": 394.7370000000228,
      "v": 60
    },
    {
      "midi": 64,
      "hit": false,
      "t": 311052.75600000203,
      "d": 394.7370000000228,
      "v": 60
    },
    {
      "midi": 69,
      "hit": false,
      "t": 311052.75600000203,
      "d": 789.4740000000456,
      "v": 70
    },
    {
      "midi": 61,
      "hit": false,
      "t": 311447.4929999989,
      "d": 394.7370000000228,
      "v": 60
    },
    {
      "midi": 64,
      "hit": false,
      "t": 311447.49300000205,
      "d": 394.7370000000228,
      "v": 60
    },
    {
      "midi": 60,
      "hit": false,
      "t": 311842.22999999893,
      "d": 394.7370000000228,
      "v": 60
    },
    {
      "midi": 62,
      "hit": false,
      "t": 311842.2300000021,
      "d": 394.7370000000228,
      "v": 60
    },
    {
      "midi": 66,
      "hit": false,
      "t": 311842.2300000021,
      "d": 394.7370000000228,
      "v": 60
    },
    {
      "midi": 69,
      "hit": false,
      "t": 311842.2300000021,
      "d": 789.4740000000456,
      "v": 70
    },
    {
      "midi": 60,
      "hit": false,
      "t": 312236.96699999896,
      "d": 394.7370000000228,
      "v": 60
    },
    {
      "midi": 62,
      "hit": false,
      "t": 312236.9670000021,
      "d": 394.7370000000228,
      "v": 60
    },
    {
      "midi": 66,
      "hit": false,
      "t": 312236.9670000021,
      "d": 394.7370000000228,
      "v": 60
    },
    {
      "midi": 59,
      "hit": false,
      "t": 312631.703999999,
      "d": 394.7370000000228,
      "v": 60
    },
    {
      "midi": 62,
      "hit": false,
      "t": 312631.7040000021,
      "d": 394.7370000000228,
      "v": 60
    },
    {
      "midi": 67,
      "hit": false,
      "t": 312631.7040000021,
      "d": 394.7370000000228,
      "v": 60
    },
    {
      "midi": 74,
      "hit": false,
      "t": 312631.7040000021,
      "d": 789.4740000000456,
      "v": 70
    },
    {
      "midi": 59,
      "hit": false,
      "t": 313026.440999999,
      "d": 394.7370000000228,
      "v": 63
    },
    {
      "midi": 62,
      "hit": false,
      "t": 313026.44100000215,
      "d": 394.7370000000228,
      "v": 63
    },
    {
      "midi": 67,
      "hit": false,
      "t": 313026.44100000215,
      "d": 394.7370000000228,
      "v": 63
    },
    {
      "midi": 58,
      "hit": false,
      "t": 313421.177999999,
      "d": 394.7370000000228,
      "v": 67
    },
    {
      "midi": 64,
      "hit": false,
      "t": 313421.17800000217,
      "d": 394.7370000000228,
      "v": 67
    },
    {
      "midi": 67,
      "hit": false,
      "t": 313421.17800000217,
      "d": 394.7370000000228,
      "v": 67
    },
    {
      "midi": 73,
      "hit": false,
      "t": 313421.17800000217,
      "d": 789.4740000000456,
      "v": 77
    },
    {
      "midi": 57,
      "hit": false,
      "t": 313815.91499999905,
      "d": 394.7370000000228,
      "v": 70
    },
    {
      "midi": 64,
      "hit": false,
      "t": 313815.9150000022,
      "d": 394.7370000000228,
      "v": 70
    },
    {
      "midi": 67,
      "hit": false,
      "t": 313815.9150000022,
      "d": 394.7370000000228,
      "v": 70
    },
    {
      "midi": 56,
      "hit": false,
      "t": 314210.65199999907,
      "d": 394.7370000000228,
      "v": 74
    },
    {
      "midi": 65,
      "hit": false,
      "t": 314210.6520000022,
      "d": 394.7370000000228,
      "v": 74
    },
    {
      "midi": 68,
      "hit": false,
      "t": 314210.6520000022,
      "d": 394.7370000000228,
      "v": 74
    },
    {
      "midi": 73,
      "hit": false,
      "t": 314210.6520000022,
      "d": 789.4740000000456,
      "v": 84
    },
    {
      "midi": 55,
      "hit": false,
      "t": 314605.3889999991,
      "d": 394.7370000000228,
      "v": 77
    },
    {
      "midi": 64,
      "hit": false,
      "t": 314605.38900000224,
      "d": 394.7370000000228,
      "v": 77
    },
    {
      "midi": 70,
      "hit": false,
      "t": 314605.38900000224,
      "d": 394.7370000000228,
      "v": 77
    },
    {
      "midi": 54,
      "hit": false,
      "t": 315000.1259999991,
      "d": 394.7370000000228,
      "v": 81
    },
    {
      "midi": 63,
      "hit": false,
      "t": 315000.12600000226,
      "d": 394.7370000000228,
      "v": 81
    },
    {
      "midi": 69,
      "hit": false,
      "t": 315000.12600000226,
      "d": 394.7370000000228,
      "v": 81
    },
    {
      "midi": 73,
      "hit": false,
      "t": 315000.12600000226,
      "d": 394.7370000000228,
      "v": 91
    },
    {
      "midi": 54,
      "hit": false,
      "t": 315394.86299999914,
      "d": 394.7370000000228,
      "v": 84
    },
    {
      "midi": 72,
      "hit": false,
      "t": 315394.8630000023,
      "d": 197.3684999999823,
      "v": 94
    },
    {
      "midi": 63,
      "hit": false,
      "t": 315394.8630000023,
      "d": 394.7369999999646,
      "v": 84
    },
    {
      "midi": 69,
      "hit": false,
      "t": 315394.8630000023,
      "d": 394.7369999999646,
      "v": 84
    },
    {
      "midi": 73,
      "hit": false,
      "t": 315592.23150000226,
      "d": 197.3684999999823,
      "v": 96
    },
    {
      "midi": 66,
      "hit": false,
      "t": 315789.59999999916,
      "d": 394.7370000000228,
      "v": 88
    },
    {
      "midi": 69,
      "hit": false,
      "t": 315789.60000000225,
      "d": 394.7370000000228,
      "v": 88
    },
    {
      "midi": 72,
      "hit": false,
      "t": 315789.60000000225,
      "d": 394.7370000000228,
      "v": 88
    },
    {
      "midi": 75,
      "hit": false,
      "t": 315789.60000000225,
      "d": 789.4740000000456,
      "v": 98
    },
    {
      "midi": 66,
      "hit": false,
      "t": 316184.3369999992,
      "d": 394.7370000000228,
      "v": 91
    },
    {
      "midi": 68,
      "hit": false,
      "t": 316184.33700000227,
      "d": 394.7370000000228,
      "v": 91
    },
    {
      "midi": 72,
      "hit": false,
      "t": 316184.33700000227,
      "d": 394.7370000000228,
      "v": 91
    },
    {
      "midi": 65,
      "hit": false,
      "t": 316579.0739999992,
      "d": 394.7370000000228,
      "v": 95
    },
    {
      "midi": 68,
      "hit": false,
      "t": 316579.0740000023,
      "d": 394.7370000000228,
      "v": 95
    },
    {
      "midi": 73,
      "hit": false,
      "t": 316579.0740000023,
      "d": 394.7370000000228,
      "v": 95
    },
    {
      "midi": 77,
      "hit": false,
      "t": 316579.0740000023,
      "d": 789.4740000000456,
      "v": 105
    },
    {
      "midi": 65,
      "hit": false,
      "t": 316973.81099999923,
      "d": 394.7370000000228,
      "v": 98
    },
    {
      "midi": 68,
      "hit": false,
      "t": 316973.8110000023,
      "d": 394.7370000000228,
      "v": 98
    },
    {
      "midi": 73,
      "hit": false,
      "t": 316973.8110000023,
      "d": 394.7370000000228,
      "v": 98
    },
    {
      "midi": 63,
      "hit": false,
      "t": 317368.54799999925,
      "d": 394.7370000000228,
      "v": 100
    },
    {
      "midi": 66,
      "hit": false,
      "t": 317368.54799999925,
      "d": 394.7370000000228,
      "v": 100
    },
    {
      "midi": 70,
      "hit": false,
      "t": 317368.54800000234,
      "d": 394.7370000000228,
      "v": 100
    },
    {
      "midi": 78,
      "hit": false,
      "t": 317368.54800000234,
      "d": 394.7370000000228,
      "v": 110
    },
    {
      "midi": 63,
      "hit": false,
      "t": 317763.2849999993,
      "d": 394.7370000000228,
      "v": 97
    },
    {
      "midi": 66,
      "hit": false,
      "t": 317763.2849999993,
      "d": 394.7370000000228,
      "v": 97
    },
    {
      "midi": 73,
      "hit": false,
      "t": 317763.28500000236,
      "d": 197.3684999999823,
      "v": 107
    },
    {
      "midi": 70,
      "hit": false,
      "t": 317763.28500000236,
      "d": 394.7369999999646,
      "v": 97
    },
    {
      "midi": 75,
      "hit": false,
      "t": 317960.65350000234,
      "d": 197.3684999999823,
      "v": 105
    },
    {
      "midi": 53,
      "hit": false,
      "t": 318158.0219999993,
      "d": 394.7370000000228,
      "v": 93
    },
    {
      "midi": 65,
      "hit": false,
      "t": 318158.0219999993,
      "d": 394.7370000000228,
      "v": 93
    },
    {
      "midi": 69,
      "hit": false,
      "t": 318158.0220000023,
      "d": 394.7370000000228,
      "v": 93
    },
    {
      "midi": 77,
      "hit": false,
      "t": 318158.0220000023,
      "d": 394.7370000000228,
      "v": 103
    },
    {
      "midi": 53,
      "hit": false,
      "t": 318552.7589999993,
      "d": 394.7370000000228,
      "v": 90
    },
    {
      "midi": 63,
      "hit": false,
      "t": 318552.7589999993,
      "d": 394.7370000000228,
      "v": 90
    },
    {
      "midi": 69,
      "hit": false,
      "t": 318552.75900000235,
      "d": 394.7370000000228,
      "v": 90
    },
    {
      "midi": 72,
      "hit": false,
      "t": 318552.75900000235,
      "d": 394.7370000000228,
      "v": 100
    },
    {
      "midi": 58,
      "hit": false,
      "t": 318947.49599999934,
      "d": 394.7370000000228,
      "v": 86
    },
    {
      "midi": 62,
      "hit": false,
      "t": 318947.49599999934,
      "d": 394.7370000000228,
      "v": 86
    },
    {
      "midi": 68,
      "hit": false,
      "t": 318947.4960000024,
      "d": 394.7370000000228,
      "v": 86
    },
    {
      "midi": 77,
      "hit": false,
      "t": 318947.4960000024,
      "d": 394.7370000000228,
      "v": 96
    },
    {
      "midi": 58,
      "hit": false,
      "t": 319342.23299999937,
      "d": 394.7370000000228,
      "v": 83
    },
    {
      "midi": 65,
      "hit": false,
      "t": 319342.23299999937,
      "d": 394.7370000000228,
      "v": 83
    },
    {
      "midi": 72,
      "hit": false,
      "t": 319342.2330000024,
      "d": 197.3684999999823,
      "v": 93
    },
    {
      "midi": 68,
      "hit": false,
      "t": 319342.2330000024,
      "d": 394.7369999999646,
      "v": 83
    },
    {
      "midi": 74,
      "hit": false,
      "t": 319539.6015000024,
      "d": 197.3684999999823,
      "v": 91
    },
    {
      "midi": 51,
      "hit": false,
      "t": 319736.9699999994,
      "d": 394.7370000000228,
      "v": 79
    },
    {
      "midi": 63,
      "hit": false,
      "t": 319736.9699999994,
      "d": 394.7370000000228,
      "v": 79
    },
    {
      "midi": 67,
      "hit": false,
      "t": 319736.97000000236,
      "d": 394.7370000000228,
      "v": 79
    },
    {
      "midi": 75,
      "hit": false,
      "t": 319736.97000000236,
      "d": 394.7370000000228,
      "v": 89
    },
    {
      "midi": 51,
      "hit": false,
      "t": 320131.7069999994,
      "d": 394.7370000000228,
      "v": 76
    },
    {
      "midi": 61,
      "hit": false,
      "t": 320131.7069999994,
      "d": 394.7370000000228,
      "v": 76
    },
    {
      "midi": 67,
      "hit": false,
      "t": 320131.7070000024,
      "d": 394.7370000000228,
      "v": 76
    },
    {
      "midi": 70,
      "hit": false,
      "t": 320131.7070000024,
      "d": 394.7370000000228,
      "v": 86
    },
    {
      "midi": 56,
      "hit": false,
      "t": 320526.44399999944,
      "d": 394.7370000000228,
      "v": 72
    },
    {
      "midi": 60,
      "hit": false,
      "t": 320526.44399999944,
      "d": 394.7370000000228,
      "v": 72
    },
    {
      "midi": 66,
      "hit": false,
      "t": 320526.4440000024,
      "d": 394.7370000000228,
      "v": 72
    },
    {
      "midi": 75,
      "hit": false,
      "t": 320526.4440000024,
      "d": 394.7370000000228,
      "v": 82
    },
    {
      "midi": 63,
      "hit": false,
      "t": 320921.18099999946,
      "d": 394.7370000000228,
      "v": 69
    },
    {
      "midi": 56,
      "hit": false,
      "t": 320921.18099999946,
      "d": 789.4740000000456,
      "v": 69
    },
    {
      "midi": 72,
      "hit": false,
      "t": 320921.1810000024,
      "d": 197.3684999999823,
      "v": 79
    },
    {
      "midi": 66,
      "hit": false,
      "t": 320921.1810000024,
      "d": 394.7370000000228,
      "v": 69
    },
    {
      "midi": 73,
      "hit": false,
      "t": 321118.5495000024,
      "d": 197.3685000000405,
      "v": 77
    },
    {
      "midi": 65,
      "hit": false,
      "t": 321250.12850000244,
      "d": 460.5265000000363,
      "v": 66
    },
    {
      "midi": 49,
      "hit": false,
      "t": 321315.9179999995,
      "d": 394.7370000000228,
      "v": 65
    },
    {
      "midi": 61,
      "hit": false,
      "t": 321315.9179999995,
      "d": 394.7370000000228,
      "v": 65
    },
    {
      "midi": 73,
      "hit": false,
      "t": 321315.91800000245,
      "d": 78.94740000000456,
      "v": 75
    },
    {
      "midi": 75,
      "hit": false,
      "t": 321394.86540000245,
      "d": 78.94740000000456,
      "v": 75
    },
    {
      "midi": 73,
      "hit": false,
      "t": 321473.81280000246,
      "d": 78.94740000000456,
      "v": 74
    },
    {
      "midi": 72,
      "hit": false,
      "t": 321552.76020000246,
      "d": 78.94740000000456,
      "v": 73
    },
    {
      "midi": 73,
      "hit": false,
      "t": 321631.70760000247,
      "d": 78.94740000000456,
      "v": 72
    },
    {
      "midi": 55,
      "hit": false,
      "t": 321710.6549999995,
      "d": 197.3684999999823,
      "v": 62
    },
    {
      "midi": 61,
      "hit": false,
      "t": 321710.6549999995,
      "d": 197.3684999999823,
      "v": 62
    },
    {
      "midi": 63,
      "hit": false,
      "t": 321710.6550000025,
      "d": 197.3684999999823,
      "v": 62
    },
    {
      "midi": 70,
      "hit": false,
      "t": 321743.54975000245,
      "d": 197.3684999999823,
      "v": 61
    },
    {
      "midi": 77,
      "hit": false,
      "t": 321776.4445000024,
      "d": 197.3684999999823,
      "v": 71
    },
    {
      "midi": 75,
      "hit": false,
      "t": 322006.7077500024,
      "d": 98.68424999999115,
      "v": 70
    },
    {
      "midi": 44,
      "hit": false,
      "t": 322105.39199999947,
      "d": 197.3684999999823,
      "v": 60
    },
    {
      "midi": 68,
      "hit": false,
      "t": 322105.3920000024,
      "d": 1085.526750000019,
      "v": 70
    },
    {
      "midi": 56,
      "hit": false,
      "t": 322500.12899999943,
      "d": 394.7370000000228,
      "v": 67
    },
    {
      "midi": 61,
      "hit": false,
      "t": 322500.12899999943,
      "d": 394.7370000000228,
      "v": 67
    },
    {
      "midi": 63,
      "hit": false,
      "t": 322500.1290000024,
      "d": 394.7370000000228,
      "v": 67
    },
    {
      "midi": 66,
      "hit": false,
      "t": 322500.1290000024,
      "d": 394.7370000000228,
      "v": 67
    },
    {
      "midi": 56,
      "hit": false,
      "t": 322894.86599999946,
      "d": 394.7370000000228,
      "v": 74
    },
    {
      "midi": 61,
      "hit": false,
      "t": 322894.86599999946,
      "d": 394.7370000000228,
      "v": 74
    },
    {
      "midi": 63,
      "hit": false,
      "t": 322894.8660000024,
      "d": 394.7369999999646,
      "v": 74
    },
    {
      "midi": 66,
      "hit": false,
      "t": 322894.8660000024,
      "d": 394.7369999999646,
      "v": 74
    },
    {
      "midi": 70,
      "hit": false,
      "t": 323190.9187500024,
      "d": 98.68424999999115,
      "v": 90
    },
    {
      "midi": 56,
      "hit": false,
      "t": 323289.6029999995,
      "d": 394.7370000000228,
      "v": 82
    },
    {
      "midi": 61,
      "hit": false,
      "t": 323289.6029999995,
      "d": 394.7370000000228,
      "v": 82
    },
    {
      "midi": 68,
      "hit": false,
      "t": 323289.6030000024,
      "d": 296.05274999997346,
      "v": 92
    },
    {
      "midi": 63,
      "hit": false,
      "t": 323289.6030000024,
      "d": 394.7369999999646,
      "v": 82
    },
    {
      "midi": 66,
      "hit": false,
      "t": 323289.6030000024,
      "d": 394.7369999999646,
      "v": 82
    },
    {
      "midi": 69,
      "hit": false,
      "t": 323585.65575000236,
      "d": 98.68424999999115,
      "v": 98
    },
    {
      "midi": 56,
      "hit": false,
      "t": 323684.3399999995,
      "d": 394.7370000000228,
      "v": 89
    },
    {
      "midi": 61,
      "hit": false,
      "t": 323684.3399999995,
      "d": 394.7370000000228,
      "v": 89
    },
    {
      "midi": 68,
      "hit": false,
      "t": 323684.34000000235,
      "d": 296.05274999997346,
      "v": 99
    },
    {
      "midi": 63,
      "hit": false,
      "t": 323684.34000000235,
      "d": 394.7369999999646,
      "v": 89
    },
    {
      "midi": 66,
      "hit": false,
      "t": 323684.34000000235,
      "d": 394.7369999999646,
      "v": 89
    },
    {
      "midi": 70,
      "hit": false,
      "t": 323980.3927500023,
      "d": 98.68424999999115,
      "v": 105
    },
    {
      "midi": 56,
      "hit": false,
      "t": 324079.0769999995,
      "d": 394.7370000000228,
      "v": 97
    },
    {
      "midi": 61,
      "hit": false,
      "t": 324079.0769999995,
      "d": 394.7370000000228,
      "v": 97
    },
    {
      "midi": 68,
      "hit": false,
      "t": 324079.0770000023,
      "d": 296.05274999997346,
      "v": 107
    },
    {
      "midi": 63,
      "hit": false,
      "t": 324079.0770000023,
      "d": 394.7369999999646,
      "v": 97
    },
    {
      "midi": 66,
      "hit": false,
      "t": 324079.0770000023,
      "d": 394.7369999999646,
      "v": 97
    },
    {
      "midi": 69,
      "hit": false,
      "t": 324375.1297500023,
      "d": 98.68424999999115,
      "v": 110
    },
    {
      "midi": 32,
      "hit": false,
      "t": 324473.81399999955,
      "d": 197.3684999999823,
      "v": 100
    },
    {
      "midi": 68,
      "hit": false,
      "t": 324473.8140000023,
      "d": 197.3684999999823,
      "v": 110
    },
    {
      "midi": 60,
      "hit": false,
      "t": 324473.8140000023,
      "d": 394.7369999999646,
      "v": 100
    },
    {
      "midi": 66,
      "hit": false,
      "t": 324473.8140000023,
      "d": 394.7369999999646,
      "v": 100
    },
    {
      "midi": 69,
      "hit": false,
      "t": 324769.86675000226,
      "d": 98.68424999999115,
      "v": 102
    },
    {
      "midi": 56,
      "hit": false,
      "t": 324868.5509999995,
      "d": 394.7370000000228,
      "v": 89
    },
    {
      "midi": 63,
      "hit": false,
      "t": 324868.5509999995,
      "d": 394.7370000000228,
      "v": 89
    },
    {
      "midi": 70,
      "hit": false,
      "t": 324868.55100000225,
      "d": 197.3684999999823,
      "v": 99
    },
    {
      "midi": 72,
      "hit": false,
      "t": 325065.91950000223,
      "d": 197.3684999999823,
      "v": 93
    },
    {
      "midi": 75,
      "hit": false,
      "t": 325263.2880000022,
      "d": 789.4740000000456,
      "v": 87
    },
    {
      "midi": 56,
      "hit": false,
      "t": 325658.02499999956,
      "d": 394.7370000000228,
      "v": 65
    },
    {
      "midi": 60,
      "hit": false,
      "t": 325658.02499999956,
      "d": 394.7370000000228,
      "v": 65
    },
    {
      "midi": 66,
      "hit": false,
      "t": 325658.02500000224,
      "d": 394.7370000000228,
      "v": 65
    },
    {
      "midi": 68,
      "hit": false,
      "t": 325658.02500000224,
      "d": 789.4740000000456,
      "v": 65
    },
    {
      "midi": 49,
      "hit": false,
      "t": 326052.7619999996,
      "d": 394.7370000000228,
      "v": 60
    },
    {
      "midi": 61,
      "hit": false,
      "t": 326052.7619999996,
      "d": 394.7370000000228,
      "v": 60
    },
    {
      "midi": 65,
      "hit": false,
      "t": 326052.76200000226,
      "d": 394.7370000000228,
      "v": 60
    },
    {
      "midi": 73,
      "hit": false,
      "t": 326052.76200000226,
      "d": 394.7370000000228,
      "v": 70
    },
    {
      "midi": 37,
      "hit": false,
      "t": 326842.2359999996,
      "d": 98.68424999999115,
      "v": 110
    },
    {
      "midi": 49,
      "hit": false,
      "t": 326842.2359999996,
      "d": 98.68424999999115,
      "v": 110
    },
    {
      "midi": 61,
      "hit": false,
      "t": 326842.23599999986,
      "d": 98.68424999999115,
      "v": 110
    },
    {
      "midi": 40,
      "hit": false,
      "t": 326940.9202499996,
      "d": 690.7897499999963,
      "v": 110
    },
    {
      "midi": 52,
      "hit": false,
      "t": 326940.92024999985,
      "d": 690.7897499999963,
      "v": 110
    },
    {
      "midi": 64,
      "hit": false,
      "t": 326940.92024999985,
      "d": 690.7897499999963,
      "v": 110
    },
    {
      "midi": 35,
      "hit": false,
      "t": 327631.7099999996,
      "d": 98.68424999999115,
      "v": 110
    },
    {
      "midi": 47,
      "hit": false,
      "t": 327631.7099999996,
      "d": 98.68424999999115,
      "v": 110
    },
    {
      "midi": 59,
      "hit": false,
      "t": 327631.70999999985,
      "d": 98.68424999999115,
      "v": 110
    },
    {
      "midi": 40,
      "hit": false,
      "t": 327730.3942499996,
      "d": 690.7897499999963,
      "v": 110
    },
    {
      "midi": 52,
      "hit": false,
      "t": 327730.39424999984,
      "d": 690.7897499999963,
      "v": 110
    },
    {
      "midi": 64,
      "hit": false,
      "t": 327730.39424999984,
      "d": 690.7897499999963,
      "v": 110
    },
    {
      "midi": 33,
      "hit": false,
      "t": 328421.1839999996,
      "d": 98.68424999999115,
      "v": 110
    },
    {
      "midi": 45,
      "hit": false,
      "t": 328421.1839999996,
      "d": 98.68424999999115,
      "v": 110
    },
    {
      "midi": 57,
      "hit": false,
      "t": 328421.18399999983,
      "d": 98.68424999999115,
      "v": 110
    },
    {
      "midi": 40,
      "hit": false,
      "t": 328519.8682499996,
      "d": 690.7897499999963,
      "v": 110
    },
    {
      "midi": 52,
      "hit": false,
      "t": 328519.8682499998,
      "d": 690.7897499999963,
      "v": 110
    },
    {
      "midi": 64,
      "hit": false,
      "t": 328519.8682499998,
      "d": 690.7897499999963,
      "v": 110
    },
    {
      "midi": 32,
      "hit": false,
      "t": 329210.6579999996,
      "d": 98.68424999999115,
      "v": 110
    },
    {
      "midi": 44,
      "hit": false,
      "t": 329210.6579999996,
      "d": 98.68424999999115,
      "v": 110
    },
    {
      "midi": 56,
      "hit": false,
      "t": 329210.6579999998,
      "d": 98.68424999999115,
      "v": 110
    },
    {
      "midi": 40,
      "hit": false,
      "t": 329309.3422499996,
      "d": 690.7897499999963,
      "v": 110
    },
    {
      "midi": 52,
      "hit": false,
      "t": 329309.3422499998,
      "d": 690.7897499999963,
      "v": 110
    },
    {
      "midi": 64,
      "hit": false,
      "t": 329309.3422499998,
      "d": 690.7897499999963,
      "v": 110
    },
    {
      "midi": 31,
      "hit": false,
      "t": 330000.1319999996,
      "d": 98.68424999999115,
      "v": 110
    },
    {
      "midi": 43,
      "hit": false,
      "t": 330000.1319999996,
      "d": 98.68424999999115,
      "v": 110
    },
    {
      "midi": 55,
      "hit": false,
      "t": 330000.1319999998,
      "d": 98.68424999999115,
      "v": 110
    },
    {
      "midi": 40,
      "hit": false,
      "t": 330098.81624999957,
      "d": 690.7897499999963,
      "v": 110
    },
    {
      "midi": 52,
      "hit": false,
      "t": 330098.8162499998,
      "d": 690.7897499999963,
      "v": 110
    },
    {
      "midi": 64,
      "hit": false,
      "t": 330098.8162499998,
      "d": 690.7897499999963,
      "v": 110
    },
    {
      "midi": 55,
      "hit": false,
      "t": 331579.07999999955,
      "d": 592.1055000000051,
      "v": 120
    },
    {
      "midi": 57,
      "hit": false,
      "t": 331579.07999999955,
      "d": 592.1055000000051,
      "v": 120
    },
    {
      "midi": 61,
      "hit": false,
      "t": 331579.07999999955,
      "d": 592.1055000000051,
      "v": 120
    },
    {
      "midi": 64,
      "hit": false,
      "t": 331579.07999999955,
      "d": 592.1055000000051,
      "v": 120
    },
    {
      "midi": 67,
      "hit": false,
      "t": 331579.07999999955,
      "d": 592.1055000000051,
      "v": 120
    },
    {
      "midi": 76,
      "hit": false,
      "t": 331579.0800000023,
      "d": 592.1055000000051,
      "v": 120
    },
    {
      "midi": 82,
      "hit": false,
      "t": 331579.0800000023,
      "d": 592.1055000000051,
      "v": 120
    },
    {
      "midi": 85,
      "hit": false,
      "t": 331579.0800000023,
      "d": 592.1055000000051,
      "v": 120
    },
    {
      "midi": 88,
      "hit": false,
      "t": 331579.0800000023,
      "d": 592.1055000000051,
      "v": 120
    },
    {
      "midi": 43,
      "hit": false,
      "t": 332171.18549999956,
      "d": 98.68424999999115,
      "v": 120
    },
    {
      "midi": 55,
      "hit": false,
      "t": 332171.18549999956,
      "d": 98.68424999999115,
      "v": 120
    },
    {
      "midi": 64,
      "hit": false,
      "t": 332171.1855000023,
      "d": 98.68424999999115,
      "v": 120
    },
    {
      "midi": 70,
      "hit": false,
      "t": 332171.1855000023,
      "d": 98.68424999999115,
      "v": 120
    },
    {
      "midi": 73,
      "hit": false,
      "t": 332171.1855000023,
      "d": 98.68424999999115,
      "v": 120
    },
    {
      "midi": 76,
      "hit": false,
      "t": 332171.1855000023,
      "d": 98.68424999999115,
      "v": 120
    },
    {
      "midi": 44,
      "hit": false,
      "t": 332368.55399999954,
      "d": 98.68424999999115,
      "v": 120
    },
    {
      "midi": 56,
      "hit": false,
      "t": 332368.55399999954,
      "d": 98.68424999999115,
      "v": 120
    },
    {
      "midi": 64,
      "hit": false,
      "t": 332368.5540000023,
      "d": 98.68424999999115,
      "v": 120
    },
    {
      "midi": 68,
      "hit": false,
      "t": 332368.5540000023,
      "d": 98.68424999999115,
      "v": 120
    },
    {
      "midi": 73,
      "hit": false,
      "t": 332368.5540000023,
      "d": 98.68424999999115,
      "v": 120
    },
    {
      "midi": 76,
      "hit": false,
      "t": 332368.5540000023,
      "d": 98.68424999999115,
      "v": 120
    },
    {
      "midi": 32,
      "hit": false,
      "t": 333158.0279999995,
      "d": 98.68424999999115,
      "v": 120
    },
    {
      "midi": 44,
      "hit": false,
      "t": 333158.0279999995,
      "d": 98.68424999999115,
      "v": 120
    },
    {
      "midi": 66,
      "hit": false,
      "t": 333158.02800000226,
      "d": 98.68424999999115,
      "v": 120
    },
    {
      "midi": 68,
      "hit": false,
      "t": 333158.02800000226,
      "d": 98.68424999999115,
      "v": 120
    },
    {
      "midi": 72,
      "hit": false,
      "t": 333158.02800000226,
      "d": 98.68424999999115,
      "v": 120
    },
    {
      "midi": 75,
      "hit": false,
      "t": 333158.02800000226,
      "d": 98.68424999999115,
      "v": 120
    },
    {
      "midi": 37,
      "hit": false,
      "t": 333947.5019999995,
      "d": 98.68424999999115,
      "v": 120
    },
    {
      "midi": 49,
      "hit": false,
      "t": 333947.5019999995,
      "d": 98.68424999999115,
      "v": 120
    },
    {
      "midi": 64,
      "hit": false,
      "t": 333947.50200000225,
      "d": 98.68424999999115,
      "v": 120
    },
    {
      "midi": 68,
      "hit": false,
      "t": 333947.50200000225,
      "d": 98.68424999999115,
      "v": 120
    },
    {
      "midi": 73,
      "hit": false,
      "t": 333947.50200000225,
      "d": 98.68424999999115,
      "v": 120
    },
    {
      "midi": 49,
      "hit": false,
      "t": 334539.6074999995,
      "d": 98.68424999999115,
      "v": 120
    },
    {
      "midi": 56,
      "hit": false,
      "t": 334638.2917499995,
      "d": 98.68424999999115,
      "v": 120
    },
    {
      "midi": 64,
      "hit": false,
      "t": 334736.9759999995,
      "d": 98.68424999999115,
      "v": 120
    },
    {
      "midi": 73,
      "hit": false,
      "t": 334736.97600000224,
      "d": 98.68424999999115,
      "v": 120
    },
    {
      "midi": 76,
      "hit": false,
      "t": 334736.97600000224,
      "d": 98.68424999999115,
      "v": 120
    },
    {
      "midi": 80,
      "hit": false,
      "t": 334736.97600000224,
      "d": 98.68424999999115,
      "v": 120
    },
    {
      "midi": 85,
      "hit": false,
      "t": 334736.97600000224,
      "d": 98.68424999999115,
      "v": 120
    },
    {
      "midi": 68,
      "hit": false,
      "t": 335921.18700000225,
      "d": 394.7370000000228,
      "v": 100
    },
    {
      "midi": 25,
      "hit": false,
      "t": 336315.9239999995,
      "d": 394.7370000000228,
      "v": 110
    },
    {
      "midi": 37,
      "hit": false,
      "t": 336315.9239999995,
      "d": 394.7370000000228,
      "v": 110
    },
    {
      "midi": 75,
      "hit": false,
      "t": 336315.92400000227,
      "d": 1184.2110000000102,
      "v": 100
    },
    {
      "midi": 56,
      "hit": false,
      "t": 336710.6609999995,
      "d": 197.3684999999823,
      "v": 100
    },
    {
      "midi": 60,
      "hit": false,
      "t": 336710.6609999995,
      "d": 197.3684999999823,
      "v": 100
    },
    {
      "midi": 66,
      "hit": false,
      "t": 336710.6609999995,
      "d": 197.3684999999823,
      "v": 100
    },
    {
      "midi": 56,
      "hit": false,
      "t": 336908.0294999995,
      "d": 197.3684999999823,
      "v": 101
    },
    {
      "midi": 60,
      "hit": false,
      "t": 336908.0294999995,
      "d": 197.3684999999823,
      "v": 101
    },
    {
      "midi": 66,
      "hit": false,
      "t": 336908.0294999995,
      "d": 197.3684999999823,
      "v": 101
    },
    {
      "midi": 56,
      "hit": false,
      "t": 337105.39799999946,
      "d": 394.7370000000228,
      "v": 101
    },
    {
      "midi": 60,
      "hit": false,
      "t": 337105.39799999946,
      "d": 394.7370000000228,
      "v": 101
    },
    {
      "midi": 66,
      "hit": false,
      "t": 337105.39799999946,
      "d": 394.7370000000228,
      "v": 101
    },
    {
      "midi": 56,
      "hit": false,
      "t": 337500.1349999995,
      "d": 394.7370000000228,
      "v": 102
    },
    {
      "midi": 60,
      "hit": false,
      "t": 337500.1349999995,
      "d": 394.7370000000228,
      "v": 102
    },
    {
      "midi": 66,
      "hit": false,
      "t": 337500.1349999995,
      "d": 394.7370000000228,
      "v": 102
    },
    {
      "midi": 73,
      "hit": false,
      "t": 337500.1350000023,
      "d": 197.3684999999823,
      "v": 102
    },
    {
      "midi": 75,
      "hit": false,
      "t": 337697.50350000226,
      "d": 197.3684999999823,
      "v": 103
    },
    {
      "midi": 49,
      "hit": false,
      "t": 337894.8719999995,
      "d": 394.7370000000228,
      "v": 113
    },
    {
      "midi": 77,
      "hit": false,
      "t": 337894.87200000224,
      "d": 394.7370000000228,
      "v": 103
    },
    {
      "midi": 56,
      "hit": false,
      "t": 338289.60899999953,
      "d": 394.7370000000228,
      "v": 104
    },
    {
      "midi": 59,
      "hit": false,
      "t": 338289.60899999953,
      "d": 394.7370000000228,
      "v": 104
    },
    {
      "midi": 61,
      "hit": false,
      "t": 338289.60899999953,
      "d": 394.7370000000228,
      "v": 104
    },
    {
      "midi": 65,
      "hit": false,
      "t": 338289.60899999953,
      "d": 394.7370000000228,
      "v": 104
    },
    {
      "midi": 75,
      "hit": false,
      "t": 338289.60900000227,
      "d": 197.3684999999823,
      "v": 104
    },
    {
      "midi": 77,
      "hit": false,
      "t": 338486.97750000225,
      "d": 197.3684999999823,
      "v": 105
    },
    {
      "midi": 54,
      "hit": false,
      "t": 338684.34599999955,
      "d": 789.4740000000456,
      "v": 115
    },
    {
      "midi": 78,
      "hit": false,
      "t": 338684.34600000223,
      "d": 394.7370000000228,
      "v": 105
    },
    {
      "midi": 57,
      "hit": false,
      "t": 339079.0829999996,
      "d": 394.7370000000228,
      "v": 106
    },
    {
      "midi": 61,
      "hit": false,
      "t": 339079.0829999996,
      "d": 394.7370000000228,
      "v": 106
    },
    {
      "midi": 66,
      "hit": false,
      "t": 339079.0829999996,
      "d": 394.7370000000228,
      "v": 106
    },
    {
      "midi": 77,
      "hit": false,
      "t": 339079.08300000225,
      "d": 197.3684999999823,
      "v": 106
    },
    {
      "midi": 78,
      "hit": false,
      "t": 339276.45150000224,
      "d": 197.3684999999823,
      "v": 106
    },
    {
      "midi": 53,
      "hit": false,
      "t": 339473.8199999996,
      "d": 789.4740000000456,
      "v": 117
    },
    {
      "midi": 80,
      "hit": false,
      "t": 339473.8200000022,
      "d": 394.7370000000228,
      "v": 107
    },
    {
      "midi": 59,
      "hit": false,
      "t": 339868.5569999996,
      "d": 394.7370000000228,
      "v": 108
    },
    {
      "midi": 61,
      "hit": false,
      "t": 339868.5569999996,
      "d": 394.7370000000228,
      "v": 108
    },
    {
      "midi": 68,
      "hit": false,
      "t": 339868.5569999996,
      "d": 394.7370000000228,
      "v": 108
    },
    {
      "midi": 78,
      "hit": false,
      "t": 339868.55700000224,
      "d": 197.3684999999823,
      "v": 108
    },
    {
      "midi": 80,
      "hit": false,
      "t": 340065.9255000022,
      "d": 197.3684999999823,
      "v": 108
    },
    {
      "midi": 54,
      "hit": false,
      "t": 340263.29399999965,
      "d": 789.4740000000456,
      "v": 119
    },
    {
      "midi": 81,
      "hit": false,
      "t": 340263.2940000022,
      "d": 394.7370000000228,
      "v": 109
    },
    {
      "midi": 57,
      "hit": false,
      "t": 340658.03099999967,
      "d": 394.7370000000228,
      "v": 110
    },
    {
      "midi": 61,
      "hit": false,
      "t": 340658.03099999967,
      "d": 394.7370000000228,
      "v": 110
    },
    {
      "midi": 66,
      "hit": false,
      "t": 340658.03099999967,
      "d": 394.7370000000228,
      "v": 110
    },
    {
      "midi": 69,
      "hit": false,
      "t": 340658.03100000223,
      "d": 394.7370000000228,
      "v": 110
    },
    {
      "midi": 44,
      "hit": false,
      "t": 341052.7679999997,
      "d": 394.7370000000228,
      "v": 110
    },
    {
      "midi": 68,
      "hit": false,
      "t": 341052.76800000225,
      "d": 1052.6319999999832,
      "v": 110
    },
    {
      "midi": 51,
      "hit": false,
      "t": 341447.5049999997,
      "d": 1184.2110000000685,
      "v": 120
    },
    {
      "midi": 60,
      "hit": false,
      "t": 341842.24199999974,
      "d": 394.7370000000228,
      "v": 110
    },
    {
      "midi": 70,
      "hit": false,
      "t": 342105.40000000224,
      "d": 131.579000000027,
      "v": 110
    },
    {
      "midi": 56,
      "hit": false,
      "t": 342236.97899999976,
      "d": 789.4740000000456,
      "v": 120
    },
    {
      "midi": 72,
      "hit": false,
      "t": 342368.5580000023,
      "d": 131.579000000027,
      "v": 110
    },
    {
      "midi": 52,
      "hit": false,
      "t": 342631.7159999998,
      "d": 394.7370000000228,
      "v": 110
    },
    {
      "midi": 61,
      "hit": false,
      "t": 342631.7159999998,
      "d": 394.7370000000228,
      "v": 110
    },
    {
      "midi": 73,
      "hit": false,
      "t": 342631.71600000234,
      "d": 131.579000000027,
      "v": 110
    },
    {
      "midi": 75,
      "hit": false,
      "t": 342894.8740000024,
      "d": 131.579000000027,
      "v": 110
    },
    {
      "midi": 55,
      "hit": false,
      "t": 343026.4529999998,
      "d": 394.7370000000228,
      "v": 120
    },
    {
      "midi": 76,
      "hit": false,
      "t": 343158.03200000245,
      "d": 131.579000000027,
      "v": 110
    },
    {
      "midi": 44,
      "hit": false,
      "t": 343421.1899999998,
      "d": 394.7370000000228,
      "v": 110
    },
    {
      "midi": 75,
      "hit": false,
      "t": 343421.1900000025,
      "d": 2368.4220000000205,
      "v": 110
    },
    {
      "midi": 51,
      "hit": false,
      "t": 343815.92699999985,
      "d": 394.7370000000228,
      "v": 110
    },
    {
      "midi": 60,
      "hit": false,
      "t": 344210.6639999999,
      "d": 394.7370000000228,
      "v": 110
    },
    {
      "midi": 56,
      "hit": false,
      "t": 344605.4009999999,
      "d": 394.7370000000228,
      "v": 110
    },
    {
      "midi": 68,
      "hit": false,
      "t": 345000.1379999999,
      "d": 394.7370000000228,
      "v": 110
    },
    {
      "midi": 32,
      "hit": false,
      "t": 345789.61199999996,
      "d": 197.3684999999823,
      "v": 70
    },
    {
      "midi": 44,
      "hit": false,
      "t": 345789.61199999996,
      "d": 197.3684999999823,
      "v": 70
    },
    {
      "midi": 75,
      "hit": false,
      "t": 345789.6120000025,
      "d": 263.1579999999958,
      "v": 60
    },
    {
      "midi": 75,
      "hit": false,
      "t": 346052.7700000025,
      "d": 263.1579999999958,
      "v": 60
    },
    {
      "midi": 56,
      "hit": false,
      "t": 346184.34899999993,
      "d": 789.4740000000456,
      "v": 70
    },
    {
      "midi": 75,
      "hit": false,
      "t": 346315.9280000025,
      "d": 263.1579999999958,
      "v": 60
    },
    {
      "midi": 60,
      "hit": false,
      "t": 346579.08599999995,
      "d": 394.7370000000228,
      "v": 60
    },
    {
      "midi": 66,
      "hit": false,
      "t": 346579.08599999995,
      "d": 394.7370000000228,
      "v": 60
    },
    {
      "midi": 75,
      "hit": false,
      "t": 346579.0860000025,
      "d": 394.7370000000228,
      "v": 60
    },
    {
      "midi": 56,
      "hit": false,
      "t": 346973.823,
      "d": 789.4740000000456,
      "v": 70
    },
    {
      "midi": 73,
      "hit": false,
      "t": 346973.82300000254,
      "d": 197.3684999999823,
      "v": 60
    },
    {
      "midi": 75,
      "hit": false,
      "t": 347171.1915000025,
      "d": 197.3684999999823,
      "v": 60
    },
    {
      "midi": 49,
      "hit": false,
      "t": 347368.56,
      "d": 394.7370000000228,
      "v": 60
    },
    {
      "midi": 77,
      "hit": false,
      "t": 347368.5600000025,
      "d": 394.7370000000228,
      "v": 60
    },
    {
      "midi": 59,
      "hit": false,
      "t": 347434.3495,
      "d": 328.9475000000093,
      "v": 60
    },
    {
      "midi": 65,
      "hit": false,
      "t": 347500.139,
      "d": 263.1579999999958,
      "v": 60
    },
    {
      "midi": 61,
      "hit": false,
      "t": 347763.297,
      "d": 394.7370000000228,
      "v": 60
    },
    {
      "midi": 75,
      "hit": false,
      "t": 347763.2970000025,
      "d": 197.3684999999823,
      "v": 60
    },
    {
      "midi": 77,
      "hit": false,
      "t": 347960.6655000025,
      "d": 197.3684999999823,
      "v": 60
    },
    {
      "midi": 66,
      "hit": false,
      "t": 348158.03400000004,
      "d": 394.7370000000228,
      "v": 60
    },
    {
      "midi": 54,
      "hit": false,
      "t": 348158.03400000004,
      "d": 789.4740000000456,
      "v": 70
    },
    {
      "midi": 57,
      "hit": false,
      "t": 348158.03400000004,
      "d": 789.4740000000456,
      "v": 70
    },
    {
      "midi": 78,
      "hit": false,
      "t": 348158.0340000025,
      "d": 394.7370000000228,
      "v": 60
    },
    {
      "midi": 61,
      "hit": false,
      "t": 348552.77100000007,
      "d": 394.7370000000228,
      "v": 60
    },
    {
      "midi": 77,
      "hit": false,
      "t": 348552.7710000025,
      "d": 197.3684999999823,
      "v": 60
    },
    {
      "midi": 78,
      "hit": false,
      "t": 348750.1395000025,
      "d": 197.3684999999823,
      "v": 60
    },
    {
      "midi": 68,
      "hit": false,
      "t": 348947.5080000001,
      "d": 394.7370000000228,
      "v": 60
    },
    {
      "midi": 53,
      "hit": false,
      "t": 348947.5080000001,
      "d": 789.4740000000456,
      "v": 70
    },
    {
      "midi": 59,
      "hit": false,
      "t": 348947.5080000001,
      "d": 789.4740000000456,
      "v": 70
    },
    {
      "midi": 80,
      "hit": false,
      "t": 348947.5080000025,
      "d": 394.7370000000228,
      "v": 60
    },
    {
      "midi": 61,
      "hit": false,
      "t": 349342.2450000001,
      "d": 394.7370000000228,
      "v": 60
    },
    {
      "midi": 78,
      "hit": false,
      "t": 349342.2450000025,
      "d": 197.3684999999823,
      "v": 60
    },
    {
      "midi": 80,
      "hit": false,
      "t": 349539.6135000025,
      "d": 197.3684999999823,
      "v": 60
    },
    {
      "midi": 54,
      "hit": false,
      "t": 349736.98200000013,
      "d": 789.4740000000456,
      "v": 70
    },
    {
      "midi": 81,
      "hit": false,
      "t": 349736.98200000246,
      "d": 394.7370000000228,
      "v": 60
    },
    {
      "midi": 57,
      "hit": false,
      "t": 349802.77150000015,
      "d": 723.6845000000321,
      "v": 70
    },
    {
      "midi": 69,
      "hit": false,
      "t": 349868.56100000016,
      "d": 263.1579999999958,
      "v": 60
    },
    {
      "midi": 61,
      "hit": false,
      "t": 350131.71900000016,
      "d": 394.7370000000228,
      "v": 60
    },
    {
      "midi": 80,
      "hit": false,
      "t": 350131.7190000025,
      "d": 197.3684999999823,
      "v": 60
    },
    {
      "midi": 81,
      "hit": false,
      "t": 350329.08750000247,
      "d": 197.3684999999823,
      "v": 60
    },
    {
      "midi": 57,
      "hit": false,
      "t": 350526.4560000002,
      "d": 394.7370000000228,
      "v": 50
    },
    {
      "midi": 54,
      "hit": false,
      "t": 350526.4560000002,
      "d": 2368.4220000000787,
      "v": 40
    },
    {
      "midi": 83,
      "hit": false,
      "t": 350526.45600000245,
      "d": 263.1579999999958,
      "v": 40
    },
    {
      "midi": 81,
      "hit": false,
      "t": 350789.61400000245,
      "d": 263.1579999999958,
      "v": 42
    },
    {
      "midi": 61,
      "hit": false,
      "t": 350921.1930000002,
      "d": 394.7370000000228,
      "v": 53
    },
    {
      "midi": 78,
      "hit": false,
      "t": 351217.24575000245,
      "d": 52.631600000022445,
      "v": 46
    },
    {
      "midi": 79,
      "hit": false,
      "t": 351263.2984000025,
      "d": 52.631600000022445,
      "v": 46
    },
    {
      "midi": 62,
      "hit": false,
      "t": 351315.9300000002,
      "d": 394.7370000000228,
      "v": 57
    },
    {
      "midi": 78,
      "hit": false,
      "t": 351315.9300000025,
      "d": 263.1579999999958,
      "v": 47
    },
    {
      "midi": 76,
      "hit": false,
      "t": 351579.0880000025,
      "d": 263.1579999999958,
      "v": 49
    },
    {
      "midi": 64,
      "hit": false,
      "t": 351710.66700000025,
      "d": 394.7370000000228,
      "v": 60
    },
    {
      "midi": 78,
      "hit": false,
      "t": 352006.7197500025,
      "d": 98.68424999999115,
      "v": 53
    },
    {
      "midi": 66,
      "hit": false,
      "t": 352105.4040000003,
      "d": 789.4739999999874,
      "v": 64
    },
    {
      "midi": 69,
      "hit": false,
      "t": 352105.4040000025,
      "d": 394.7370000000228,
      "v": 54
    },
    {
      "midi": 74,
      "hit": false,
      "t": 352500.1410000025,
      "d": 394.7370000000228,
      "v": 57
    },
    {
      "midi": 64,
      "hit": false,
      "t": 352894.87800000026,
      "d": 263.1579999999958,
      "v": 60
    },
    {
      "midi": 56,
      "hit": false,
      "t": 352894.87800000026,
      "d": 1184.2110000000102,
      "v": 70
    },
    {
      "midi": 73,
      "hit": false,
      "t": 352894.8780000025,
      "d": 263.1579999999958,
      "v": 60
    },
    {
      "midi": 63,
      "hit": false,
      "t": 353158.03600000025,
      "d": 263.1579999999958,
      "v": 60
    },
    {
      "midi": 72,
      "hit": false,
      "t": 353158.0360000025,
      "d": 526.3159999999916,
      "v": 70
    },
    {
      "midi": 68,
      "hit": false,
      "t": 353421.19400000025,
      "d": 263.1579999999958,
      "v": 60
    },
    {
      "midi": 76,
      "hit": false,
      "t": 353421.1940000025,
      "d": 263.1579999999958,
      "v": 60
    },
    {
      "midi": 66,
      "hit": false,
      "t": 353684.35200000025,
      "d": 789.4740000000456,
      "v": 60
    },
    {
      "midi": 75,
      "hit": false,
      "t": 353684.3520000025,
      "d": 789.4739999999874,
      "v": 60
    },
    {
      "midi": 56,
      "hit": false,
      "t": 354079.08900000027,
      "d": 394.7370000000228,
      "v": 60
    },
    {
      "midi": 61,
      "hit": false,
      "t": 354473.8260000003,
      "d": 394.7370000000228,
      "v": 60
    },
    {
      "midi": 64,
      "hit": false,
      "t": 354473.8260000003,
      "d": 394.7370000000228,
      "v": 60
    },
    {
      "midi": 73,
      "hit": false,
      "t": 354473.8260000025,
      "d": 394.7370000000228,
      "v": 60
    },
    {
      "midi": 61,
      "hit": false,
      "t": 355263.2999999998,
      "d": 98.68424999999115,
      "v": 110
    },
    {
      "midi": 37,
      "hit": false,
      "t": 355263.30000000034,
      "d": 98.68424999999115,
      "v": 110
    },
    {
      "midi": 49,
      "hit": false,
      "t": 355263.30000000034,
      "d": 98.68424999999115,
      "v": 110
    },
    {
      "midi": 52,
      "hit": false,
      "t": 355361.9842499998,
      "d": 690.7897499999963,
      "v": 110
    },
    {
      "midi": 64,
      "hit": false,
      "t": 355361.9842499998,
      "d": 690.7897499999963,
      "v": 110
    },
    {
      "midi": 40,
      "hit": false,
      "t": 355361.9842500003,
      "d": 690.7897499999963,
      "v": 110
    },
    {
      "midi": 59,
      "hit": false,
      "t": 356052.7739999998,
      "d": 98.68424999999115,
      "v": 110
    },
    {
      "midi": 35,
      "hit": false,
      "t": 356052.7740000003,
      "d": 98.68424999999115,
      "v": 110
    },
    {
      "midi": 47,
      "hit": false,
      "t": 356052.7740000003,
      "d": 98.68424999999115,
      "v": 110
    },
    {
      "midi": 52,
      "hit": false,
      "t": 356151.4582499998,
      "d": 690.7897499999963,
      "v": 110
    },
    {
      "midi": 64,
      "hit": false,
      "t": 356151.4582499998,
      "d": 690.7897499999963,
      "v": 110
    },
    {
      "midi": 40,
      "hit": false,
      "t": 356151.4582500003,
      "d": 690.7897499999963,
      "v": 110
    },
    {
      "midi": 57,
      "hit": false,
      "t": 356842.2479999998,
      "d": 98.68424999999115,
      "v": 110
    },
    {
      "midi": 33,
      "hit": false,
      "t": 356842.2480000003,
      "d": 98.68424999999115,
      "v": 110
    },
    {
      "midi": 45,
      "hit": false,
      "t": 356842.2480000003,
      "d": 98.68424999999115,
      "v": 110
    },
    {
      "midi": 52,
      "hit": false,
      "t": 356940.9322499998,
      "d": 690.7897499999963,
      "v": 110
    },
    {
      "midi": 64,
      "hit": false,
      "t": 356940.9322499998,
      "d": 690.7897499999963,
      "v": 110
    },
    {
      "midi": 40,
      "hit": false,
      "t": 356940.9322500003,
      "d": 690.7897499999963,
      "v": 110
    },
    {
      "midi": 56,
      "hit": false,
      "t": 357631.7219999998,
      "d": 98.68424999999115,
      "v": 110
    },
    {
      "midi": 32,
      "hit": false,
      "t": 357631.7220000003,
      "d": 98.68424999999115,
      "v": 110
    },
    {
      "midi": 44,
      "hit": false,
      "t": 357631.7220000003,
      "d": 98.68424999999115,
      "v": 110
    },
    {
      "midi": 52,
      "hit": false,
      "t": 357730.40624999977,
      "d": 690.7897499999963,
      "v": 110
    },
    {
      "midi": 64,
      "hit": false,
      "t": 357730.40624999977,
      "d": 690.7897499999963,
      "v": 110
    },
    {
      "midi": 40,
      "hit": false,
      "t": 357730.4062500003,
      "d": 690.7897499999963,
      "v": 110
    },
    {
      "midi": 55,
      "hit": false,
      "t": 358421.19599999976,
      "d": 98.68424999999115,
      "v": 110
    },
    {
      "midi": 31,
      "hit": false,
      "t": 358421.1960000003,
      "d": 98.68424999999115,
      "v": 110
    },
    {
      "midi": 43,
      "hit": false,
      "t": 358421.1960000003,
      "d": 98.68424999999115,
      "v": 110
    },
    {
      "midi": 52,
      "hit": false,
      "t": 358519.88024999975,
      "d": 690.7897499999963,
      "v": 110
    },
    {
      "midi": 64,
      "hit": false,
      "t": 358519.88024999975,
      "d": 690.7897499999963,
      "v": 110
    },
    {
      "midi": 40,
      "hit": false,
      "t": 358519.8802500003,
      "d": 690.7897499999963,
      "v": 110
    },
    {
      "midi": 55,
      "hit": false,
      "t": 360000.14400000026,
      "d": 592.1055000000051,
      "v": 120
    },
    {
      "midi": 57,
      "hit": false,
      "t": 360000.14400000026,
      "d": 592.1055000000051,
      "v": 120
    },
    {
      "midi": 61,
      "hit": false,
      "t": 360000.14400000026,
      "d": 592.1055000000051,
      "v": 120
    },
    {
      "midi": 64,
      "hit": false,
      "t": 360000.14400000026,
      "d": 592.1055000000051,
      "v": 120
    },
    {
      "midi": 67,
      "hit": false,
      "t": 360000.14400000026,
      "d": 592.1055000000051,
      "v": 120
    },
    {
      "midi": 76,
      "hit": false,
      "t": 360000.14400000253,
      "d": 592.1055000000051,
      "v": 120
    },
    {
      "midi": 82,
      "hit": false,
      "t": 360000.14400000253,
      "d": 592.1055000000051,
      "v": 120
    },
    {
      "midi": 85,
      "hit": false,
      "t": 360000.14400000253,
      "d": 592.1055000000051,
      "v": 120
    },
    {
      "midi": 88,
      "hit": false,
      "t": 360000.14400000253,
      "d": 592.1055000000051,
      "v": 120
    },
    {
      "midi": 43,
      "hit": false,
      "t": 360592.24950000027,
      "d": 98.68424999999115,
      "v": 120
    },
    {
      "midi": 55,
      "hit": false,
      "t": 360592.24950000027,
      "d": 98.68424999999115,
      "v": 120
    },
    {
      "midi": 64,
      "hit": false,
      "t": 360592.24950000254,
      "d": 98.68424999999115,
      "v": 120
    },
    {
      "midi": 70,
      "hit": false,
      "t": 360592.24950000254,
      "d": 98.68424999999115,
      "v": 120
    },
    {
      "midi": 73,
      "hit": false,
      "t": 360592.24950000254,
      "d": 98.68424999999115,
      "v": 120
    },
    {
      "midi": 76,
      "hit": false,
      "t": 360592.24950000254,
      "d": 98.68424999999115,
      "v": 120
    },
    {
      "midi": 44,
      "hit": false,
      "t": 360789.61800000025,
      "d": 98.68424999999115,
      "v": 120
    },
    {
      "midi": 56,
      "hit": false,
      "t": 360789.61800000025,
      "d": 98.68424999999115,
      "v": 120
    },
    {
      "midi": 64,
      "hit": false,
      "t": 360789.6180000025,
      "d": 98.68424999999115,
      "v": 120
    },
    {
      "midi": 68,
      "hit": false,
      "t": 360789.6180000025,
      "d": 98.68424999999115,
      "v": 120
    },
    {
      "midi": 73,
      "hit": false,
      "t": 360789.6180000025,
      "d": 98.68424999999115,
      "v": 120
    },
    {
      "midi": 76,
      "hit": false,
      "t": 360789.6180000025,
      "d": 98.68424999999115,
      "v": 120
    },
    {
      "midi": 32,
      "hit": false,
      "t": 361579.09200000024,
      "d": 98.68424999999115,
      "v": 120
    },
    {
      "midi": 44,
      "hit": false,
      "t": 361579.09200000024,
      "d": 98.68424999999115,
      "v": 120
    },
    {
      "midi": 66,
      "hit": false,
      "t": 361579.0920000025,
      "d": 98.68424999999115,
      "v": 120
    },
    {
      "midi": 68,
      "hit": false,
      "t": 361579.0920000025,
      "d": 98.68424999999115,
      "v": 120
    },
    {
      "midi": 72,
      "hit": false,
      "t": 361579.0920000025,
      "d": 98.68424999999115,
      "v": 120
    },
    {
      "midi": 75,
      "hit": false,
      "t": 361579.0920000025,
      "d": 98.68424999999115,
      "v": 120
    },
    {
      "midi": 37,
      "hit": false,
      "t": 362368.5660000002,
      "d": 98.68424999999115,
      "v": 120
    },
    {
      "midi": 49,
      "hit": false,
      "t": 362368.5660000002,
      "d": 98.68424999999115,
      "v": 120
    },
    {
      "midi": 64,
      "hit": false,
      "t": 362368.5660000025,
      "d": 98.68424999999115,
      "v": 120
    },
    {
      "midi": 68,
      "hit": false,
      "t": 362368.5660000025,
      "d": 98.68424999999115,
      "v": 120
    },
    {
      "midi": 73,
      "hit": false,
      "t": 362368.5660000025,
      "d": 98.68424999999115,
      "v": 120
    },
    {
      "midi": 49,
      "hit": false,
      "t": 362960.67150000023,
      "d": 98.68424999999115,
      "v": 120
    },
    {
      "midi": 56,
      "hit": false,
      "t": 363059.3557500002,
      "d": 98.68424999999115,
      "v": 120
    },
    {
      "midi": 64,
      "hit": false,
      "t": 363158.0400000002,
      "d": 98.68424999999115,
      "v": 120
    },
    {
      "midi": 73,
      "hit": false,
      "t": 363158.0400000025,
      "d": 98.68424999999115,
      "v": 120
    },
    {
      "midi": 76,
      "hit": false,
      "t": 363158.0400000025,
      "d": 98.68424999999115,
      "v": 120
    },
    {
      "midi": 80,
      "hit": false,
      "t": 363158.0400000025,
      "d": 98.68424999999115,
      "v": 120
    },
    {
      "midi": 85,
      "hit": false,
      "t": 363158.0400000025,
      "d": 98.68424999999115,
      "v": 120
    },
    {
      "midi": 68,
      "hit": false,
      "t": 364342.2510000025,
      "d": 394.7370000000228,
      "v": 100
    },
    {
      "midi": 25,
      "hit": false,
      "t": 364736.9880000002,
      "d": 394.7370000000228,
      "v": 110
    },
    {
      "midi": 37,
      "hit": false,
      "t": 364736.9880000002,
      "d": 394.7370000000228,
      "v": 110
    },
    {
      "midi": 75,
      "hit": false,
      "t": 364736.9880000025,
      "d": 1184.2110000000102,
      "v": 100
    },
    {
      "midi": 56,
      "hit": false,
      "t": 365131.7250000002,
      "d": 197.3684999999823,
      "v": 100
    },
    {
      "midi": 60,
      "hit": false,
      "t": 365131.7250000002,
      "d": 197.3684999999823,
      "v": 100
    },
    {
      "midi": 66,
      "hit": false,
      "t": 365131.7250000002,
      "d": 197.3684999999823,
      "v": 100
    },
    {
      "midi": 56,
      "hit": false,
      "t": 365329.0935000002,
      "d": 197.3684999999823,
      "v": 101
    },
    {
      "midi": 60,
      "hit": false,
      "t": 365329.0935000002,
      "d": 197.3684999999823,
      "v": 101
    },
    {
      "midi": 66,
      "hit": false,
      "t": 365329.0935000002,
      "d": 197.3684999999823,
      "v": 101
    },
    {
      "midi": 56,
      "hit": false,
      "t": 365526.4620000002,
      "d": 394.7370000000228,
      "v": 101
    },
    {
      "midi": 60,
      "hit": false,
      "t": 365526.4620000002,
      "d": 394.7370000000228,
      "v": 101
    },
    {
      "midi": 66,
      "hit": false,
      "t": 365526.4620000002,
      "d": 394.7370000000228,
      "v": 101
    },
    {
      "midi": 56,
      "hit": false,
      "t": 365921.1990000002,
      "d": 394.7370000000228,
      "v": 102
    },
    {
      "midi": 60,
      "hit": false,
      "t": 365921.1990000002,
      "d": 394.7370000000228,
      "v": 102
    },
    {
      "midi": 66,
      "hit": false,
      "t": 365921.1990000002,
      "d": 394.7370000000228,
      "v": 102
    },
    {
      "midi": 73,
      "hit": false,
      "t": 365921.1990000025,
      "d": 197.3684999999823,
      "v": 102
    },
    {
      "midi": 75,
      "hit": false,
      "t": 366118.5675000025,
      "d": 197.3684999999823,
      "v": 103
    },
    {
      "midi": 49,
      "hit": false,
      "t": 366315.9360000002,
      "d": 394.7370000000228,
      "v": 113
    },
    {
      "midi": 77,
      "hit": false,
      "t": 366315.9360000025,
      "d": 394.7370000000228,
      "v": 103
    },
    {
      "midi": 56,
      "hit": false,
      "t": 366710.67300000024,
      "d": 394.7370000000228,
      "v": 104
    },
    {
      "midi": 59,
      "hit": false,
      "t": 366710.67300000024,
      "d": 394.7370000000228,
      "v": 104
    },
    {
      "midi": 61,
      "hit": false,
      "t": 366710.67300000024,
      "d": 394.7370000000228,
      "v": 104
    },
    {
      "midi": 65,
      "hit": false,
      "t": 366710.67300000024,
      "d": 394.7370000000228,
      "v": 104
    },
    {
      "midi": 75,
      "hit": false,
      "t": 366710.6730000025,
      "d": 197.3684999999823,
      "v": 104
    },
    {
      "midi": 77,
      "hit": false,
      "t": 366908.0415000025,
      "d": 197.3684999999823,
      "v": 105
    },
    {
      "midi": 54,
      "hit": false,
      "t": 367105.41000000027,
      "d": 789.4740000000456,
      "v": 115
    },
    {
      "midi": 78,
      "hit": false,
      "t": 367105.4100000025,
      "d": 394.7370000000228,
      "v": 105
    },
    {
      "midi": 57,
      "hit": false,
      "t": 367500.1470000003,
      "d": 394.7370000000228,
      "v": 106
    },
    {
      "midi": 61,
      "hit": false,
      "t": 367500.1470000003,
      "d": 394.7370000000228,
      "v": 106
    },
    {
      "midi": 66,
      "hit": false,
      "t": 367500.1470000003,
      "d": 394.7370000000228,
      "v": 106
    },
    {
      "midi": 77,
      "hit": false,
      "t": 367500.1470000025,
      "d": 197.3684999999823,
      "v": 106
    },
    {
      "midi": 78,
      "hit": false,
      "t": 367697.5155000025,
      "d": 197.3684999999823,
      "v": 106
    },
    {
      "midi": 53,
      "hit": false,
      "t": 367894.8840000003,
      "d": 789.4740000000456,
      "v": 117
    },
    {
      "midi": 80,
      "hit": false,
      "t": 367894.88400000246,
      "d": 394.7370000000228,
      "v": 107
    },
    {
      "midi": 59,
      "hit": false,
      "t": 368289.62100000033,
      "d": 394.7370000000228,
      "v": 108
    },
    {
      "midi": 61,
      "hit": false,
      "t": 368289.62100000033,
      "d": 394.7370000000228,
      "v": 108
    },
    {
      "midi": 68,
      "hit": false,
      "t": 368289.62100000033,
      "d": 394.7370000000228,
      "v": 108
    },
    {
      "midi": 78,
      "hit": false,
      "t": 368289.6210000025,
      "d": 197.3684999999823,
      "v": 108
    },
    {
      "midi": 80,
      "hit": false,
      "t": 368486.98950000247,
      "d": 197.3684999999823,
      "v": 108
    },
    {
      "midi": 54,
      "hit": false,
      "t": 368684.35800000036,
      "d": 789.4740000000456,
      "v": 119
    },
    {
      "midi": 81,
      "hit": false,
      "t": 368684.35800000245,
      "d": 394.7370000000228,
      "v": 109
    },
    {
      "midi": 57,
      "hit": false,
      "t": 369079.0950000004,
      "d": 394.7370000000228,
      "v": 110
    },
    {
      "midi": 61,
      "hit": false,
      "t": 369079.0950000004,
      "d": 394.7370000000228,
      "v": 110
    },
    {
      "midi": 66,
      "hit": false,
      "t": 369079.0950000004,
      "d": 394.7370000000228,
      "v": 110
    },
    {
      "midi": 69,
      "hit": false,
      "t": 369079.0950000025,
      "d": 394.7370000000228,
      "v": 110
    },
    {
      "midi": 44,
      "hit": false,
      "t": 369473.8320000004,
      "d": 394.7370000000228,
      "v": 110
    },
    {
      "midi": 68,
      "hit": false,
      "t": 369473.8320000025,
      "d": 1052.6319999999832,
      "v": 110
    },
    {
      "midi": 51,
      "hit": false,
      "t": 369868.5690000004,
      "d": 1184.2110000000685,
      "v": 120
    },
    {
      "midi": 60,
      "hit": false,
      "t": 370263.30600000045,
      "d": 394.7370000000228,
      "v": 110
    },
    {
      "midi": 70,
      "hit": false,
      "t": 370526.4640000025,
      "d": 131.579000000027,
      "v": 110
    },
    {
      "midi": 56,
      "hit": false,
      "t": 370658.04300000047,
      "d": 789.4740000000456,
      "v": 120
    },
    {
      "midi": 72,
      "hit": false,
      "t": 370789.62200000254,
      "d": 131.579000000027,
      "v": 110
    },
    {
      "midi": 52,
      "hit": false,
      "t": 371052.7800000005,
      "d": 394.7370000000228,
      "v": 110
    },
    {
      "midi": 61,
      "hit": false,
      "t": 371052.7800000005,
      "d": 394.7370000000228,
      "v": 110
    },
    {
      "midi": 73,
      "hit": false,
      "t": 371052.7800000026,
      "d": 131.579000000027,
      "v": 110
    },
    {
      "midi": 75,
      "hit": false,
      "t": 371315.93800000264,
      "d": 131.579000000027,
      "v": 110
    },
    {
      "midi": 55,
      "hit": false,
      "t": 371447.5170000005,
      "d": 394.7370000000228,
      "v": 120
    },
    {
      "midi": 76,
      "hit": false,
      "t": 371579.0960000027,
      "d": 131.579000000027,
      "v": 110
    },
    {
      "midi": 44,
      "hit": false,
      "t": 371842.25400000054,
      "d": 394.7370000000228,
      "v": 110
    },
    {
      "midi": 75,
      "hit": false,
      "t": 371842.25400000275,
      "d": 2368.4220000000205,
      "v": 110
    },
    {
      "midi": 51,
      "hit": false,
      "t": 372236.99100000056,
      "d": 394.7370000000228,
      "v": 110
    },
    {
      "midi": 60,
      "hit": false,
      "t": 372631.7280000006,
      "d": 394.7370000000228,
      "v": 110
    },
    {
      "midi": 56,
      "hit": false,
      "t": 373026.4650000006,
      "d": 394.7370000000228,
      "v": 110
    },
    {
      "midi": 68,
      "hit": false,
      "t": 373421.20200000063,
      "d": 394.7370000000228,
      "v": 110
    },
    {
      "midi": 32,
      "hit": false,
      "t": 374210.6760000007,
      "d": 197.3684999999823,
      "v": 60
    },
    {
      "midi": 44,
      "hit": false,
      "t": 374210.6760000007,
      "d": 197.3684999999823,
      "v": 60
    },
    {
      "midi": 75,
      "hit": false,
      "t": 374210.6760000028,
      "d": 263.1579999999958,
      "v": 60
    },
    {
      "midi": 75,
      "hit": false,
      "t": 374473.83400000277,
      "d": 263.1579999999958,
      "v": 60
    },
    {
      "midi": 56,
      "hit": false,
      "t": 374605.41300000064,
      "d": 789.4740000000456,
      "v": 70
    },
    {
      "midi": 75,
      "hit": false,
      "t": 374736.99200000276,
      "d": 263.1579999999958,
      "v": 60
    },
    {
      "midi": 60,
      "hit": false,
      "t": 375000.15000000066,
      "d": 394.7370000000228,
      "v": 60
    },
    {
      "midi": 66,
      "hit": false,
      "t": 375000.15000000066,
      "d": 394.7370000000228,
      "v": 60
    },
    {
      "midi": 75,
      "hit": false,
      "t": 375000.15000000276,
      "d": 394.7370000000228,
      "v": 60
    },
    {
      "midi": 56,
      "hit": false,
      "t": 375394.8870000007,
      "d": 789.4740000000456,
      "v": 70
    },
    {
      "midi": 73,
      "hit": false,
      "t": 375394.8870000028,
      "d": 197.3684999999823,
      "v": 60
    },
    {
      "midi": 75,
      "hit": false,
      "t": 375592.25550000276,
      "d": 197.3684999999823,
      "v": 60
    },
    {
      "midi": 49,
      "hit": false,
      "t": 375789.6240000007,
      "d": 394.7370000000228,
      "v": 60
    },
    {
      "midi": 77,
      "hit": false,
      "t": 375789.62400000275,
      "d": 394.7370000000228,
      "v": 60
    },
    {
      "midi": 59,
      "hit": false,
      "t": 375855.4135000007,
      "d": 328.9475000000093,
      "v": 60
    },
    {
      "midi": 65,
      "hit": false,
      "t": 375921.20300000074,
      "d": 263.1579999999958,
      "v": 60
    },
    {
      "midi": 61,
      "hit": false,
      "t": 376184.36100000073,
      "d": 394.7370000000228,
      "v": 60
    },
    {
      "midi": 75,
      "hit": false,
      "t": 376184.36100000277,
      "d": 197.3684999999823,
      "v": 60
    },
    {
      "midi": 77,
      "hit": false,
      "t": 376381.72950000275,
      "d": 197.3684999999823,
      "v": 60
    },
    {
      "midi": 66,
      "hit": false,
      "t": 376579.09800000075,
      "d": 394.7370000000228,
      "v": 60
    },
    {
      "midi": 54,
      "hit": false,
      "t": 376579.09800000075,
      "d": 789.4740000000456,
      "v": 70
    },
    {
      "midi": 57,
      "hit": false,
      "t": 376579.09800000075,
      "d": 789.4740000000456,
      "v": 70
    },
    {
      "midi": 78,
      "hit": false,
      "t": 376579.09800000273,
      "d": 394.7370000000228,
      "v": 60
    },
    {
      "midi": 61,
      "hit": false,
      "t": 376973.8350000008,
      "d": 394.7370000000228,
      "v": 60
    },
    {
      "midi": 77,
      "hit": false,
      "t": 376973.83500000276,
      "d": 197.3684999999823,
      "v": 60
    },
    {
      "midi": 78,
      "hit": false,
      "t": 377171.20350000274,
      "d": 197.3684999999823,
      "v": 60
    },
    {
      "midi": 68,
      "hit": false,
      "t": 377368.5720000008,
      "d": 394.7370000000228,
      "v": 60
    },
    {
      "midi": 53,
      "hit": false,
      "t": 377368.5720000008,
      "d": 789.4740000000456,
      "v": 70
    },
    {
      "midi": 59,
      "hit": false,
      "t": 377368.5720000008,
      "d": 789.4740000000456,
      "v": 70
    },
    {
      "midi": 80,
      "hit": false,
      "t": 377368.5720000027,
      "d": 394.7370000000228,
      "v": 60
    },
    {
      "midi": 61,
      "hit": false,
      "t": 377763.3090000008,
      "d": 394.7370000000228,
      "v": 60
    },
    {
      "midi": 78,
      "hit": false,
      "t": 377763.30900000274,
      "d": 197.3684999999823,
      "v": 60
    },
    {
      "midi": 80,
      "hit": false,
      "t": 377960.6775000027,
      "d": 197.3684999999823,
      "v": 60
    },
    {
      "midi": 54,
      "hit": false,
      "t": 378158.04600000085,
      "d": 789.4740000000456,
      "v": 70
    },
    {
      "midi": 81,
      "hit": false,
      "t": 378158.0460000027,
      "d": 394.7370000000228,
      "v": 60
    },
    {
      "midi": 57,
      "hit": false,
      "t": 378223.83550000086,
      "d": 723.6845000000321,
      "v": 70
    },
    {
      "midi": 69,
      "hit": false,
      "t": 378289.6250000009,
      "d": 263.1579999999958,
      "v": 60
    },
    {
      "midi": 61,
      "hit": false,
      "t": 378552.78300000087,
      "d": 394.7370000000228,
      "v": 60
    },
    {
      "midi": 80,
      "hit": false,
      "t": 378552.78300000273,
      "d": 197.3684999999823,
      "v": 60
    },
    {
      "midi": 81,
      "hit": false,
      "t": 378750.1515000027,
      "d": 197.3684999999823,
      "v": 60
    },
    {
      "midi": 57,
      "hit": false,
      "t": 378947.5200000009,
      "d": 394.7370000000228,
      "v": 50
    },
    {
      "midi": 54,
      "hit": false,
      "t": 378947.5200000009,
      "d": 2368.4220000000787,
      "v": 40
    },
    {
      "midi": 83,
      "hit": false,
      "t": 378947.5200000027,
      "d": 263.1579999999958,
      "v": 40
    },
    {
      "midi": 81,
      "hit": false,
      "t": 379210.6780000027,
      "d": 263.1579999999958,
      "v": 42
    },
    {
      "midi": 61,
      "hit": false,
      "t": 379342.2570000009,
      "d": 394.7370000000228,
      "v": 53
    },
    {
      "midi": 78,
      "hit": false,
      "t": 379638.3097500027,
      "d": 52.631600000022445,
      "v": 46
    },
    {
      "midi": 79,
      "hit": false,
      "t": 379684.3624000027,
      "d": 52.631600000022445,
      "v": 46
    },
    {
      "midi": 62,
      "hit": false,
      "t": 379736.99400000094,
      "d": 394.7370000000228,
      "v": 57
    },
    {
      "midi": 78,
      "hit": false,
      "t": 379736.99400000274,
      "d": 263.1579999999958,
      "v": 47
    },
    {
      "midi": 76,
      "hit": false,
      "t": 380000.15200000274,
      "d": 263.1579999999958,
      "v": 49
    },
    {
      "midi": 64,
      "hit": false,
      "t": 380131.73100000096,
      "d": 394.7370000000228,
      "v": 60
    },
    {
      "midi": 78,
      "hit": false,
      "t": 380427.78375000274,
      "d": 98.68424999999115,
      "v": 53
    },
    {
      "midi": 66,
      "hit": false,
      "t": 380526.468000001,
      "d": 789.4739999999874,
      "v": 64
    },
    {
      "midi": 69,
      "hit": false,
      "t": 380526.46800000273,
      "d": 394.7370000000228,
      "v": 54
    },
    {
      "midi": 74,
      "hit": false,
      "t": 380921.20500000275,
      "d": 394.7370000000228,
      "v": 57
    },
    {
      "midi": 64,
      "hit": false,
      "t": 381315.94200000097,
      "d": 263.1579999999958,
      "v": 60
    },
    {
      "midi": 56,
      "hit": false,
      "t": 381315.94200000097,
      "d": 1184.2110000000102,
      "v": 70
    },
    {
      "midi": 73,
      "hit": false,
      "t": 381315.9420000028,
      "d": 263.1579999999958,
      "v": 60
    },
    {
      "midi": 63,
      "hit": false,
      "t": 381579.10000000097,
      "d": 263.1579999999958,
      "v": 60
    },
    {
      "midi": 72,
      "hit": false,
      "t": 381579.10000000277,
      "d": 526.3159999999916,
      "v": 70
    },
    {
      "midi": 68,
      "hit": false,
      "t": 381842.25800000096,
      "d": 263.1579999999958,
      "v": 60
    },
    {
      "midi": 76,
      "hit": false,
      "t": 381842.25800000277,
      "d": 263.1579999999958,
      "v": 60
    },
    {
      "midi": 66,
      "hit": false,
      "t": 382105.41600000096,
      "d": 789.4740000000456,
      "v": 60
    },
    {
      "midi": 75,
      "hit": false,
      "t": 382105.41600000276,
      "d": 789.4739999999874,
      "v": 60
    },
    {
      "midi": 56,
      "hit": false,
      "t": 382500.153000001,
      "d": 394.7370000000228,
      "v": 60
    },
    {
      "midi": 61,
      "hit": false,
      "t": 382894.890000001,
      "d": 394.7370000000228,
      "v": 60
    },
    {
      "midi": 64,
      "hit": false,
      "t": 382894.890000001,
      "d": 394.7370000000228,
      "v": 60
    },
    {
      "midi": 73,
      "hit": false,
      "t": 382894.89000000275,
      "d": 394.7370000000228,
      "v": 60
    },
    {
      "midi": 32,
      "hit": false,
      "t": 383684.36400000105,
      "d": 197.3684999999823,
      "v": 50
    },
    {
      "midi": 44,
      "hit": false,
      "t": 384079.101000001,
      "d": 789.4739999999874,
      "v": 40
    },
    {
      "midi": 51,
      "hit": false,
      "t": 384079.101000001,
      "d": 789.4739999999874,
      "v": 40
    },
    {
      "midi": 56,
      "hit": false,
      "t": 384079.10100000276,
      "d": 789.4739999999874,
      "v": 60
    },
    {
      "midi": 60,
      "hit": false,
      "t": 384079.10100000276,
      "d": 789.4739999999874,
      "v": 60
    },
    {
      "midi": 44,
      "hit": false,
      "t": 384868.575000001,
      "d": 394.7370000000228,
      "v": 40
    },
    {
      "midi": 51,
      "hit": false,
      "t": 384868.575000001,
      "d": 394.7370000000228,
      "v": 40
    },
    {
      "midi": 56,
      "hit": false,
      "t": 384868.57500000275,
      "d": 394.7370000000228,
      "v": 40
    },
    {
      "midi": 60,
      "hit": false,
      "t": 384868.57500000275,
      "d": 394.7370000000228,
      "v": 40
    },
    {
      "midi": 44,
      "hit": false,
      "t": 385263.312000001,
      "d": 394.7370000000228,
      "v": 40
    },
    {
      "midi": 51,
      "hit": false,
      "t": 385263.312000001,
      "d": 394.7370000000228,
      "v": 40
    },
    {
      "midi": 56,
      "hit": false,
      "t": 385263.31200000277,
      "d": 394.7370000000228,
      "v": 40
    },
    {
      "midi": 60,
      "hit": false,
      "t": 385263.31200000277,
      "d": 394.7370000000228,
      "v": 40
    },
    {
      "midi": 44,
      "hit": false,
      "t": 385658.04900000105,
      "d": 394.7370000000228,
      "v": 40
    },
    {
      "midi": 51,
      "hit": false,
      "t": 385658.04900000105,
      "d": 394.7370000000228,
      "v": 40
    },
    {
      "midi": 56,
      "hit": false,
      "t": 385658.0490000028,
      "d": 394.7370000000228,
      "v": 40
    },
    {
      "midi": 60,
      "hit": false,
      "t": 385658.0490000028,
      "d": 394.7370000000228,
      "v": 40
    },
    {
      "midi": 44,
      "hit": false,
      "t": 386052.78600000107,
      "d": 394.7370000000228,
      "v": 40
    },
    {
      "midi": 52,
      "hit": false,
      "t": 386052.78600000107,
      "d": 394.7370000000228,
      "v": 40
    },
    {
      "midi": 55,
      "hit": false,
      "t": 386052.7860000028,
      "d": 789.4739999999292,
      "v": 40
    },
    {
      "midi": 58,
      "hit": false,
      "t": 386250.1545000028,
      "d": 98.68424999999115,
      "v": 54
    },
    {
      "midi": 61,
      "hit": false,
      "t": 386348.8387500028,
      "d": 98.68424999999115,
      "v": 62
    },
    {
      "midi": 32,
      "hit": false,
      "t": 386447.5230000011,
      "d": 197.3684999999823,
      "v": 79
    },
    {
      "midi": 64,
      "hit": false,
      "t": 386447.5230000028,
      "d": 98.68424999999115,
      "v": 69
    },
    {
      "midi": 67,
      "hit": false,
      "t": 386546.2072500028,
      "d": 98.68424999999115,
      "v": 77
    },
    {
      "midi": 70,
      "hit": false,
      "t": 386644.89150000276,
      "d": 98.68424999999115,
      "v": 80
    },
    {
      "midi": 73,
      "hit": false,
      "t": 386743.57575000275,
      "d": 98.68424999999115,
      "v": 80
    },
    {
      "midi": 76,
      "hit": false,
      "t": 386842.26000000275,
      "d": 394.7370000000228,
      "v": 80
    },
    {
      "midi": 44,
      "hit": false,
      "t": 387236.9970000011,
      "d": 789.4739999999874,
      "v": 80
    },
    {
      "midi": 52,
      "hit": false,
      "t": 387236.9970000011,
      "d": 789.4739999999874,
      "v": 80
    },
    {
      "midi": 61,
      "hit": false,
      "t": 387236.99700000277,
      "d": 789.4739999999874,
      "v": 80
    },
    {
      "midi": 67,
      "hit": false,
      "t": 387236.99700000277,
      "d": 789.4739999999874,
      "v": 80
    },
    {
      "midi": 44,
      "hit": false,
      "t": 388026.47100000107,
      "d": 394.7370000000228,
      "v": 66
    },
    {
      "midi": 51,
      "hit": false,
      "t": 388026.47100000107,
      "d": 394.7370000000228,
      "v": 66
    },
    {
      "midi": 60,
      "hit": false,
      "t": 388026.47100000276,
      "d": 394.7370000000228,
      "v": 66
    },
    {
      "midi": 68,
      "hit": false,
      "t": 388026.47100000276,
      "d": 394.7370000000228,
      "v": 66
    },
    {
      "midi": 32,
      "hit": false,
      "t": 388421.2080000011,
      "d": 197.3684999999823,
      "v": 70
    },
    {
      "midi": 44,
      "hit": false,
      "t": 388815.94500000105,
      "d": 789.4739999999874,
      "v": 60
    },
    {
      "midi": 51,
      "hit": false,
      "t": 388815.94500000105,
      "d": 789.4739999999874,
      "v": 60
    },
    {
      "midi": 56,
      "hit": false,
      "t": 388815.9450000028,
      "d": 789.4739999999874,
      "v": 80
    },
    {
      "midi": 60,
      "hit": false,
      "t": 388815.9450000028,
      "d": 789.4739999999874,
      "v": 80
    },
    {
      "midi": 44,
      "hit": false,
      "t": 389605.41900000104,
      "d": 394.7370000000228,
      "v": 60
    },
    {
      "midi": 51,
      "hit": false,
      "t": 389605.41900000104,
      "d": 394.7370000000228,
      "v": 60
    },
    {
      "midi": 56,
      "hit": false,
      "t": 389605.4190000028,
      "d": 394.7370000000228,
      "v": 60
    },
    {
      "midi": 60,
      "hit": false,
      "t": 389605.4190000028,
      "d": 394.7370000000228,
      "v": 60
    },
    {
      "midi": 44,
      "hit": false,
      "t": 390000.15600000106,
      "d": 394.7370000000228,
      "v": 60
    },
    {
      "midi": 51,
      "hit": false,
      "t": 390000.15600000106,
      "d": 394.7370000000228,
      "v": 60
    },
    {
      "midi": 56,
      "hit": false,
      "t": 390000.1560000028,
      "d": 394.7370000000228,
      "v": 60
    },
    {
      "midi": 60,
      "hit": false,
      "t": 390000.1560000028,
      "d": 394.7370000000228,
      "v": 60
    },
    {
      "midi": 44,
      "hit": false,
      "t": 390394.8930000011,
      "d": 394.7370000000228,
      "v": 60
    },
    {
      "midi": 51,
      "hit": false,
      "t": 390394.8930000011,
      "d": 394.7370000000228,
      "v": 60
    },
    {
      "midi": 56,
      "hit": false,
      "t": 390394.89300000283,
      "d": 394.7370000000228,
      "v": 60
    },
    {
      "midi": 60,
      "hit": false,
      "t": 390394.89300000283,
      "d": 394.7370000000228,
      "v": 60
    },
    {
      "midi": 44,
      "hit": false,
      "t": 390789.6300000011,
      "d": 394.7370000000228,
      "v": 60
    },
    {
      "midi": 54,
      "hit": false,
      "t": 390789.6300000011,
      "d": 394.7370000000228,
      "v": 60
    },
    {
      "midi": 57,
      "hit": false,
      "t": 390789.63000000286,
      "d": 789.4739999999292,
      "v": 60
    },
    {
      "midi": 60,
      "hit": false,
      "t": 390888.31425000285,
      "d": 98.68424999999115,
      "v": 67
    },
    {
      "midi": 63,
      "hit": false,
      "t": 390986.99850000284,
      "d": 98.68424999999115,
      "v": 74
    },
    {
      "midi": 66,
      "hit": false,
      "t": 391085.68275000283,
      "d": 98.68424999999115,
      "v": 82
    },
    {
      "midi": 32,
      "hit": false,
      "t": 391184.36700000113,
      "d": 197.3684999999823,
      "v": 99
    },
    {
      "midi": 69,
      "hit": false,
      "t": 391184.3670000028,
      "d": 98.68424999999115,
      "v": 89
    },
    {
      "midi": 72,
      "hit": false,
      "t": 391283.0512500028,
      "d": 98.68424999999115,
      "v": 97
    },
    {
      "midi": 75,
      "hit": false,
      "t": 391381.7355000028,
      "d": 98.68424999999115,
      "v": 100
    },
    {
      "midi": 78,
      "hit": false,
      "t": 391480.4197500028,
      "d": 98.68424999999115,
      "v": 100
    },
    {
      "midi": 81,
      "hit": false,
      "t": 391579.1040000028,
      "d": 197.3684999999823,
      "v": 100
    },
    {
      "midi": 44,
      "hit": false,
      "t": 391973.8410000011,
      "d": 789.4739999999874,
      "v": 100
    },
    {
      "midi": 54,
      "hit": false,
      "t": 391973.8410000011,
      "d": 789.4739999999874,
      "v": 100
    },
    {
      "midi": 60,
      "hit": false,
      "t": 391973.84100000275,
      "d": 789.4739999999874,
      "v": 100
    },
    {
      "midi": 69,
      "hit": false,
      "t": 391973.84100000275,
      "d": 789.4739999999874,
      "v": 100
    },
    {
      "midi": 44,
      "hit": false,
      "t": 392763.3150000011,
      "d": 394.7370000000228,
      "v": 86
    },
    {
      "midi": 52,
      "hit": false,
      "t": 392763.3150000011,
      "d": 394.7370000000228,
      "v": 86
    },
    {
      "midi": 61,
      "hit": false,
      "t": 392763.31500000274,
      "d": 394.7370000000228,
      "v": 86
    },
    {
      "midi": 68,
      "hit": false,
      "t": 392763.31500000274,
      "d": 394.7370000000228,
      "v": 86
    },
    {
      "midi": 32,
      "hit": false,
      "t": 393158.05200000113,
      "d": 197.3684999999823,
      "v": 90
    },
    {
      "midi": 44,
      "hit": false,
      "t": 393552.7890000011,
      "d": 789.4739999999874,
      "v": 80
    },
    {
      "midi": 52,
      "hit": false,
      "t": 393552.7890000011,
      "d": 789.4739999999874,
      "v": 80
    },
    {
      "midi": 56,
      "hit": false,
      "t": 393552.7890000028,
      "d": 789.4739999999874,
      "v": 100
    },
    {
      "midi": 61,
      "hit": false,
      "t": 393552.7890000028,
      "d": 789.4739999999874,
      "v": 100
    },
    {
      "midi": 44,
      "hit": false,
      "t": 394342.2630000011,
      "d": 394.7370000000228,
      "v": 80
    },
    {
      "midi": 52,
      "hit": false,
      "t": 394342.2630000011,
      "d": 394.7370000000228,
      "v": 80
    },
    {
      "midi": 56,
      "hit": false,
      "t": 394342.2630000028,
      "d": 394.7370000000228,
      "v": 80
    },
    {
      "midi": 61,
      "hit": false,
      "t": 394342.2630000028,
      "d": 394.7370000000228,
      "v": 80
    },
    {
      "midi": 44,
      "hit": false,
      "t": 394737.0000000011,
      "d": 394.7370000000228,
      "v": 80
    },
    {
      "midi": 52,
      "hit": false,
      "t": 394737.0000000011,
      "d": 394.7370000000228,
      "v": 80
    },
    {
      "midi": 56,
      "hit": false,
      "t": 394737.0000000028,
      "d": 394.7370000000228,
      "v": 80
    },
    {
      "midi": 61,
      "hit": false,
      "t": 394737.0000000028,
      "d": 394.7370000000228,
      "v": 80
    },
    {
      "midi": 44,
      "hit": false,
      "t": 395131.7370000011,
      "d": 394.7370000000228,
      "v": 80
    },
    {
      "midi": 52,
      "hit": false,
      "t": 395131.7370000011,
      "d": 394.7370000000228,
      "v": 80
    },
    {
      "midi": 56,
      "hit": false,
      "t": 395131.7370000028,
      "d": 394.7370000000228,
      "v": 80
    },
    {
      "midi": 61,
      "hit": false,
      "t": 395131.7370000028,
      "d": 394.7370000000228,
      "v": 80
    },
    {
      "midi": 44,
      "hit": false,
      "t": 395526.47400000115,
      "d": 394.7370000000228,
      "v": 80
    },
    {
      "midi": 52,
      "hit": false,
      "t": 395526.47400000115,
      "d": 394.7370000000228,
      "v": 80
    },
    {
      "midi": 58,
      "hit": false,
      "t": 395526.47400000284,
      "d": 789.4740000001038,
      "v": 80
    },
    {
      "midi": 61,
      "hit": false,
      "t": 395723.8425000028,
      "d": 65.7895000000135,
      "v": 94
    },
    {
      "midi": 64,
      "hit": false,
      "t": 395789.63200000284,
      "d": 65.7895000000135,
      "v": 99
    },
    {
      "midi": 67,
      "hit": false,
      "t": 395855.42150000285,
      "d": 65.7895000000135,
      "v": 104
    },
    {
      "midi": 32,
      "hit": false,
      "t": 395921.2110000012,
      "d": 197.3684999999823,
      "v": 119
    },
    {
      "midi": 70,
      "hit": false,
      "t": 395921.21100000286,
      "d": 65.7895000000135,
      "v": 109
    },
    {
      "midi": 73,
      "hit": false,
      "t": 395987.0005000029,
      "d": 65.7895000000135,
      "v": 114
    },
    {
      "midi": 76,
      "hit": false,
      "t": 396052.7900000029,
      "d": 65.7895000000135,
      "v": 119
    },
    {
      "midi": 79,
      "hit": false,
      "t": 396118.5795000029,
      "d": 65.7895000000135,
      "v": 120
    },
    {
      "midi": 82,
      "hit": false,
      "t": 396184.3690000029,
      "d": 65.7895000000135,
      "v": 120
    },
    {
      "midi": 85,
      "hit": false,
      "t": 396250.15850000293,
      "d": 65.7895000000135,
      "v": 120
    },
    {
      "midi": 88,
      "hit": false,
      "t": 396315.94800000294,
      "d": 197.3684999999823,
      "v": 120
    },
    {
      "midi": 44,
      "hit": false,
      "t": 396710.68500000116,
      "d": 789.4739999999874,
      "v": 120
    },
    {
      "midi": 52,
      "hit": false,
      "t": 396710.68500000116,
      "d": 789.4739999999874,
      "v": 120
    },
    {
      "midi": 58,
      "hit": false,
      "t": 396710.6850000029,
      "d": 789.4739999999874,
      "v": 120
    },
    {
      "midi": 61,
      "hit": false,
      "t": 396710.6850000029,
      "d": 789.4739999999874,
      "v": 120
    },
    {
      "midi": 67,
      "hit": false,
      "t": 396710.6850000029,
      "d": 789.4739999999874,
      "v": 120
    },
    {
      "midi": 44,
      "hit": false,
      "t": 397500.15900000115,
      "d": 394.7370000000228,
      "v": 91
    },
    {
      "midi": 51,
      "hit": false,
      "t": 397500.15900000115,
      "d": 394.7370000000228,
      "v": 91
    },
    {
      "midi": 56,
      "hit": false,
      "t": 397500.1590000029,
      "d": 394.7370000000228,
      "v": 91
    },
    {
      "midi": 60,
      "hit": false,
      "t": 397500.1590000029,
      "d": 394.7370000000228,
      "v": 91
    },
    {
      "midi": 68,
      "hit": false,
      "t": 397500.1590000029,
      "d": 394.7370000000228,
      "v": 91
    },
    {
      "midi": 44,
      "hit": false,
      "t": 397894.8960000012,
      "d": 394.7370000000228,
      "v": 80
    },
    {
      "midi": 52,
      "hit": false,
      "t": 397894.8960000012,
      "d": 394.7370000000228,
      "v": 80
    },
    {
      "midi": 58,
      "hit": false,
      "t": 397894.8960000029,
      "d": 789.4740000001038,
      "v": 80
    },
    {
      "midi": 61,
      "hit": false,
      "t": 398092.2645000029,
      "d": 65.7895000000135,
      "v": 94
    },
    {
      "midi": 64,
      "hit": false,
      "t": 398158.0540000029,
      "d": 65.7895000000135,
      "v": 99
    },
    {
      "midi": 67,
      "hit": false,
      "t": 398223.8435000029,
      "d": 65.7895000000135,
      "v": 104
    },
    {
      "midi": 32,
      "hit": false,
      "t": 398289.6330000012,
      "d": 197.3684999999823,
      "v": 119
    },
    {
      "midi": 70,
      "hit": false,
      "t": 398289.63300000294,
      "d": 65.7895000000135,
      "v": 109
    },
    {
      "midi": 73,
      "hit": false,
      "t": 398355.42250000295,
      "d": 65.7895000000135,
      "v": 114
    },
    {
      "midi": 76,
      "hit": false,
      "t": 398421.21200000297,
      "d": 65.7895000000135,
      "v": 119
    },
    {
      "midi": 79,
      "hit": false,
      "t": 398487.001500003,
      "d": 65.7895000000135,
      "v": 120
    },
    {
      "midi": 82,
      "hit": false,
      "t": 398552.791000003,
      "d": 65.7895000000135,
      "v": 120
    },
    {
      "midi": 85,
      "hit": false,
      "t": 398618.580500003,
      "d": 65.7895000000135,
      "v": 120
    },
    {
      "midi": 88,
      "hit": false,
      "t": 398684.370000003,
      "d": 197.3684999999823,
      "v": 120
    },
    {
      "midi": 44,
      "hit": false,
      "t": 399079.1070000012,
      "d": 789.4739999999874,
      "v": 120
    },
    {
      "midi": 52,
      "hit": false,
      "t": 399079.1070000012,
      "d": 789.4739999999874,
      "v": 120
    },
    {
      "midi": 58,
      "hit": false,
      "t": 399079.107000003,
      "d": 789.4739999999874,
      "v": 120
    },
    {
      "midi": 61,
      "hit": false,
      "t": 399079.107000003,
      "d": 789.4739999999874,
      "v": 120
    },
    {
      "midi": 67,
      "hit": false,
      "t": 399079.107000003,
      "d": 789.4739999999874,
      "v": 120
    },
    {
      "midi": 44,
      "hit": false,
      "t": 399868.58100000117,
      "d": 394.7370000000228,
      "v": 113
    },
    {
      "midi": 51,
      "hit": false,
      "t": 399868.58100000117,
      "d": 394.7370000000228,
      "v": 113
    },
    {
      "midi": 56,
      "hit": false,
      "t": 399868.581000003,
      "d": 394.7370000000228,
      "v": 113
    },
    {
      "midi": 60,
      "hit": false,
      "t": 399868.581000003,
      "d": 394.7370000000228,
      "v": 113
    },
    {
      "midi": 68,
      "hit": false,
      "t": 399868.581000003,
      "d": 394.7370000000228,
      "v": 113
    },
    {
      "midi": 27,
      "hit": false,
      "t": 400263.3180000012,
      "d": 394.7370000000228,
      "v": 120
    },
    {
      "midi": 39,
      "hit": false,
      "t": 400263.3180000012,
      "d": 394.7370000000228,
      "v": 120
    },
    {
      "midi": 75,
      "hit": false,
      "t": 400263.318000003,
      "d": 2763.158999999985,
      "v": 120
    },
    {
      "midi": 51,
      "hit": false,
      "t": 400658.0550000012,
      "d": 98.68424999999115,
      "v": 110
    },
    {
      "midi": 58,
      "hit": false,
      "t": 400658.0550000012,
      "d": 98.68424999999115,
      "v": 110
    },
    {
      "midi": 61,
      "hit": false,
      "t": 400658.055000003,
      "d": 98.68424999999115,
      "v": 110
    },
    {
      "midi": 67,
      "hit": false,
      "t": 400658.055000003,
      "d": 98.68424999999115,
      "v": 110
    },
    {
      "midi": 51,
      "hit": false,
      "t": 400855.4235000012,
      "d": 98.68424999999115,
      "v": 110
    },
    {
      "midi": 58,
      "hit": false,
      "t": 400855.4235000012,
      "d": 98.68424999999115,
      "v": 110
    },
    {
      "midi": 61,
      "hit": false,
      "t": 400855.423500003,
      "d": 98.68424999999115,
      "v": 110
    },
    {
      "midi": 67,
      "hit": false,
      "t": 400855.423500003,
      "d": 98.68424999999115,
      "v": 110
    },
    {
      "midi": 51,
      "hit": false,
      "t": 401052.7920000012,
      "d": 197.3684999999823,
      "v": 110
    },
    {
      "midi": 58,
      "hit": false,
      "t": 401052.7920000012,
      "d": 197.3684999999823,
      "v": 110
    },
    {
      "midi": 61,
      "hit": false,
      "t": 401052.792000003,
      "d": 197.3684999999823,
      "v": 110
    },
    {
      "midi": 67,
      "hit": false,
      "t": 401052.792000003,
      "d": 197.3684999999823,
      "v": 110
    },
    {
      "midi": 51,
      "hit": false,
      "t": 401447.52900000114,
      "d": 394.7370000000228,
      "v": 110
    },
    {
      "midi": 58,
      "hit": false,
      "t": 401447.52900000114,
      "d": 394.7370000000228,
      "v": 110
    },
    {
      "midi": 61,
      "hit": false,
      "t": 401447.52900000295,
      "d": 394.7370000000228,
      "v": 110
    },
    {
      "midi": 67,
      "hit": false,
      "t": 401447.52900000295,
      "d": 394.7370000000228,
      "v": 110
    },
    {
      "midi": 51,
      "hit": false,
      "t": 401842.26600000117,
      "d": 394.7370000000228,
      "v": 110
    },
    {
      "midi": 58,
      "hit": false,
      "t": 401842.26600000117,
      "d": 394.7370000000228,
      "v": 110
    },
    {
      "midi": 61,
      "hit": false,
      "t": 401842.266000003,
      "d": 394.7370000000228,
      "v": 110
    },
    {
      "midi": 67,
      "hit": false,
      "t": 401842.266000003,
      "d": 394.7370000000228,
      "v": 110
    },
    {
      "midi": 72,
      "hit": false,
      "t": 401842.266000003,
      "d": 394.7370000000228,
      "v": 110
    },
    {
      "midi": 51,
      "hit": false,
      "t": 402237.0030000012,
      "d": 394.7370000000228,
      "v": 110
    },
    {
      "midi": 58,
      "hit": false,
      "t": 402237.0030000012,
      "d": 394.7370000000228,
      "v": 110
    },
    {
      "midi": 61,
      "hit": false,
      "t": 402237.003000003,
      "d": 394.7370000000228,
      "v": 110
    },
    {
      "midi": 67,
      "hit": false,
      "t": 402237.003000003,
      "d": 394.7370000000228,
      "v": 110
    },
    {
      "midi": 70,
      "hit": false,
      "t": 402237.003000003,
      "d": 394.7370000000228,
      "v": 110
    },
    {
      "midi": 44,
      "hit": false,
      "t": 402631.7400000012,
      "d": 197.3684999999823,
      "v": 110
    },
    {
      "midi": 51,
      "hit": false,
      "t": 402631.7400000012,
      "d": 197.3684999999823,
      "v": 110
    },
    {
      "midi": 60,
      "hit": false,
      "t": 402631.740000003,
      "d": 197.3684999999823,
      "v": 110
    },
    {
      "midi": 68,
      "hit": false,
      "t": 402631.740000003,
      "d": 197.3684999999823,
      "v": 110
    },
    {
      "midi": 75,
      "hit": false,
      "t": 403026.477000003,
      "d": 789.4739999999874,
      "v": 112
    },
    {
      "midi": 75,
      "hit": false,
      "t": 403815.95100000297,
      "d": 789.4739999999874,
      "v": 95
    },
    {
      "midi": 75,
      "hit": false,
      "t": 404605.42500000296,
      "d": 394.7370000000228,
      "v": 78
    },
    {
      "midi": 35,
      "hit": false,
      "t": 405000.1620000012,
      "d": 394.7370000000228,
      "v": 60
    },
    {
      "midi": 75,
      "hit": false,
      "t": 405000.162000003,
      "d": 789.4739999999874,
      "v": 60
    },
    {
      "midi": 59,
      "hit": false,
      "t": 405394.8989999994,
      "d": 789.4740000000456,
      "v": 60
    },
    {
      "midi": 63,
      "hit": false,
      "t": 405789.6359999994,
      "d": 789.4740000000456,
      "v": 70
    },
    {
      "midi": 69,
      "hit": false,
      "t": 405789.6359999994,
      "d": 789.4740000000456,
      "v": 70
    },
    {
      "midi": 81,
      "hit": false,
      "t": 405789.63600000297,
      "d": 789.4739999999874,
      "v": 60
    },
    {
      "midi": 59,
      "hit": false,
      "t": 406184.37299999944,
      "d": 789.4740000000456,
      "v": 60
    },
    {
      "midi": 63,
      "hit": false,
      "t": 406579.10999999946,
      "d": 789.4740000000456,
      "v": 70
    },
    {
      "midi": 69,
      "hit": false,
      "t": 406579.10999999946,
      "d": 789.4740000000456,
      "v": 70
    },
    {
      "midi": 80,
      "hit": false,
      "t": 406579.11000000295,
      "d": 394.7370000000228,
      "v": 60
    },
    {
      "midi": 59,
      "hit": false,
      "t": 406973.8469999995,
      "d": 789.4740000000456,
      "v": 60
    },
    {
      "midi": 81,
      "hit": false,
      "t": 406973.847000003,
      "d": 197.3684999999823,
      "v": 60
    },
    {
      "midi": 80,
      "hit": false,
      "t": 407171.21550000296,
      "d": 197.3684999999823,
      "v": 60
    },
    {
      "midi": 66,
      "hit": false,
      "t": 407368.5839999995,
      "d": 1578.9480000000913,
      "v": 70
    },
    {
      "midi": 69,
      "hit": false,
      "t": 407368.5839999995,
      "d": 1578.9480000000913,
      "v": 70
    },
    {
      "midi": 78,
      "hit": false,
      "t": 407368.58400000294,
      "d": 789.4739999999874,
      "v": 60
    },
    {
      "midi": 59,
      "hit": false,
      "t": 407763.32099999953,
      "d": 394.7370000000228,
      "v": 60
    },
    {
      "midi": 59,
      "hit": false,
      "t": 408158.05799999955,
      "d": 394.7370000000228,
      "v": 60
    },
    {
      "midi": 75,
      "hit": false,
      "t": 408158.05800000293,
      "d": 789.4739999999874,
      "v": 60
    },
    {
      "midi": 59,
      "hit": false,
      "t": 408552.7949999996,
      "d": 789.4740000000456,
      "v": 60
    },
    {
      "midi": 64,
      "hit": false,
      "t": 408947.5319999996,
      "d": 789.4740000000456,
      "v": 70
    },
    {
      "midi": 69,
      "hit": false,
      "t": 408947.5319999996,
      "d": 789.4740000000456,
      "v": 70
    },
    {
      "midi": 73,
      "hit": false,
      "t": 408947.5320000029,
      "d": 394.7370000000228,
      "v": 60
    },
    {
      "midi": 59,
      "hit": false,
      "t": 409342.2689999996,
      "d": 789.4740000000456,
      "v": 60
    },
    {
      "midi": 75,
      "hit": false,
      "t": 409342.26900000294,
      "d": 197.3684999999823,
      "v": 60
    },
    {
      "midi": 73,
      "hit": false,
      "t": 409539.6375000029,
      "d": 197.3684999999823,
      "v": 60
    },
    {
      "midi": 63,
      "hit": false,
      "t": 409737.00599999964,
      "d": 1578.9480000000913,
      "v": 70
    },
    {
      "midi": 69,
      "hit": false,
      "t": 409737.00599999964,
      "d": 1578.9480000000913,
      "v": 70
    },
    {
      "midi": 71,
      "hit": false,
      "t": 409737.0060000029,
      "d": 789.4739999999874,
      "v": 60
    },
    {
      "midi": 59,
      "hit": false,
      "t": 410131.74299999967,
      "d": 394.7370000000228,
      "v": 60
    },
    {
      "midi": 59,
      "hit": false,
      "t": 410526.4799999997,
      "d": 394.7370000000228,
      "v": 60
    },
    {
      "midi": 81,
      "hit": false,
      "t": 410526.4800000029,
      "d": 789.4739999999874,
      "v": 60
    },
    {
      "midi": 59,
      "hit": false,
      "t": 410921.2169999997,
      "d": 789.4740000000456,
      "v": 60
    },
    {
      "midi": 64,
      "hit": false,
      "t": 411315.95399999974,
      "d": 789.4740000000456,
      "v": 70
    },
    {
      "midi": 69,
      "hit": false,
      "t": 411315.95399999974,
      "d": 789.4740000000456,
      "v": 70
    },
    {
      "midi": 80,
      "hit": false,
      "t": 411315.9540000029,
      "d": 394.7370000000228,
      "v": 60
    },
    {
      "midi": 59,
      "hit": false,
      "t": 411710.69099999976,
      "d": 789.4740000000456,
      "v": 60
    },
    {
      "midi": 81,
      "hit": false,
      "t": 411710.6910000029,
      "d": 197.3684999999823,
      "v": 60
    },
    {
      "midi": 80,
      "hit": false,
      "t": 411908.0595000029,
      "d": 197.3684999999823,
      "v": 60
    },
    {
      "midi": 66,
      "hit": false,
      "t": 412105.4279999998,
      "d": 1578.9480000000913,
      "v": 70
    },
    {
      "midi": 69,
      "hit": false,
      "t": 412105.4279999998,
      "d": 1578.9480000000913,
      "v": 70
    },
    {
      "midi": 78,
      "hit": false,
      "t": 412105.42800000287,
      "d": 789.4739999999874,
      "v": 60
    },
    {
      "midi": 59,
      "hit": false,
      "t": 412500.1649999998,
      "d": 394.7370000000228,
      "v": 60
    },
    {
      "midi": 59,
      "hit": false,
      "t": 412894.9019999998,
      "d": 394.7370000000228,
      "v": 60
    },
    {
      "midi": 75,
      "hit": false,
      "t": 412894.90200000285,
      "d": 789.4739999999874,
      "v": 60
    },
    {
      "midi": 59,
      "hit": false,
      "t": 413289.63899999985,
      "d": 789.4740000000456,
      "v": 60
    },
    {
      "midi": 64,
      "hit": false,
      "t": 413684.3759999999,
      "d": 789.4740000000456,
      "v": 70
    },
    {
      "midi": 69,
      "hit": false,
      "t": 413684.3759999999,
      "d": 789.4740000000456,
      "v": 70
    },
    {
      "midi": 73,
      "hit": false,
      "t": 413684.37600000284,
      "d": 118.42109999997774,
      "v": 60
    },
    {
      "midi": 75,
      "hit": false,
      "t": 413783.06025000283,
      "d": 118.42109999997774,
      "v": 60
    },
    {
      "midi": 73,
      "hit": false,
      "t": 413901.4813500028,
      "d": 118.42109999997774,
      "v": 60
    },
    {
      "midi": 72,
      "hit": false,
      "t": 414013.3235000028,
      "d": 118.42109999997774,
      "v": 60
    },
    {
      "midi": 59,
      "hit": false,
      "t": 414079.1129999999,
      "d": 789.4740000000456,
      "v": 60
    },
    {
      "midi": 73,
      "hit": false,
      "t": 414125.1656500028,
      "d": 118.42109999997774,
      "v": 60
    },
    {
      "midi": 75,
      "hit": false,
      "t": 414243.58675000275,
      "d": 118.42109999997774,
      "v": 60
    },
    {
      "midi": 76,
      "hit": false,
      "t": 414355.42890000273,
      "d": 118.42109999997774,
      "v": 60
    },
    {
      "midi": 63,
      "hit": false,
      "t": 414473.8499999999,
      "d": 1578.9480000000913,
      "v": 70
    },
    {
      "midi": 69,
      "hit": false,
      "t": 414473.8499999999,
      "d": 1578.9480000000913,
      "v": 70
    },
    {
      "midi": 71,
      "hit": false,
      "t": 414473.8500000027,
      "d": 789.4739999999874,
      "v": 60
    },
    {
      "midi": 59,
      "hit": false,
      "t": 414868.58699999994,
      "d": 394.7370000000228,
      "v": 59
    },
    {
      "midi": 57,
      "hit": false,
      "t": 415263.32399999973,
      "d": 789.4739999999874,
      "v": 67
    },
    {
      "midi": 59,
      "hit": false,
      "t": 415263.32399999996,
      "d": 394.7370000000228,
      "v": 57
    },
    {
      "midi": 59,
      "hit": false,
      "t": 415658.061,
      "d": 789.4740000000456,
      "v": 55
    },
    {
      "midi": 56,
      "hit": false,
      "t": 416052.7979999997,
      "d": 394.7370000000228,
      "v": 63
    },
    {
      "midi": 64,
      "hit": false,
      "t": 416052.798,
      "d": 789.4740000000456,
      "v": 63
    },
    {
      "midi": 69,
      "hit": false,
      "t": 416052.798,
      "d": 789.4740000000456,
      "v": 63
    },
    {
      "midi": 57,
      "hit": false,
      "t": 416447.53499999974,
      "d": 197.3684999999823,
      "v": 62
    },
    {
      "midi": 59,
      "hit": false,
      "t": 416447.53500000003,
      "d": 789.4740000000456,
      "v": 52
    },
    {
      "midi": 56,
      "hit": false,
      "t": 416644.9034999997,
      "d": 197.3684999999823,
      "v": 61
    },
    {
      "midi": 54,
      "hit": false,
      "t": 416842.2719999997,
      "d": 789.4739999999874,
      "v": 60
    },
    {
      "midi": 66,
      "hit": false,
      "t": 416842.27200000006,
      "d": 1578.9480000000913,
      "v": 60
    },
    {
      "midi": 69,
      "hit": false,
      "t": 416842.27200000006,
      "d": 1578.9480000000913,
      "v": 60
    },
    {
      "midi": 59,
      "hit": false,
      "t": 417237.0090000001,
      "d": 394.7370000000228,
      "v": 48
    },
    {
      "midi": 51,
      "hit": false,
      "t": 417631.7459999997,
      "d": 789.4739999999874,
      "v": 56
    },
    {
      "midi": 59,
      "hit": false,
      "t": 417631.7460000001,
      "d": 394.7370000000228,
      "v": 46
    },
    {
      "midi": 59,
      "hit": false,
      "t": 418026.4830000001,
      "d": 789.4740000000456,
      "v": 45
    },
    {
      "midi": 49,
      "hit": false,
      "t": 418421.2199999997,
      "d": 394.7370000000228,
      "v": 53
    },
    {
      "midi": 64,
      "hit": false,
      "t": 418421.22000000015,
      "d": 789.4740000000456,
      "v": 53
    },
    {
      "midi": 69,
      "hit": false,
      "t": 418421.22000000015,
      "d": 789.4740000000456,
      "v": 53
    },
    {
      "midi": 51,
      "hit": false,
      "t": 418815.9569999997,
      "d": 197.3684999999823,
      "v": 51
    },
    {
      "midi": 59,
      "hit": false,
      "t": 418815.95700000017,
      "d": 394.7370000000228,
      "v": 41
    },
    {
      "midi": 49,
      "hit": false,
      "t": 419013.3254999997,
      "d": 197.3684999999823,
      "v": 50
    },
    {
      "midi": 47,
      "hit": false,
      "t": 419210.69399999967,
      "d": 2368.4220000000205,
      "v": 50
    },
    {
      "midi": 63,
      "hit": false,
      "t": 419210.6940000002,
      "d": 394.7370000000228,
      "v": 40
    },
    {
      "midi": 69,
      "hit": false,
      "t": 419210.6940000002,
      "d": 2368.422000000137,
      "v": 50
    },
    {
      "midi": 66,
      "hit": false,
      "t": 419605.4310000002,
      "d": 394.7370000000228,
      "v": 45
    },
    {
      "midi": 63,
      "hit": false,
      "t": 420000.16800000024,
      "d": 394.7370000000228,
      "v": 50
    },
    {
      "midi": 66,
      "hit": false,
      "t": 420394.90500000026,
      "d": 394.7370000000228,
      "v": 56
    },
    {
      "midi": 63,
      "hit": false,
      "t": 420789.6420000003,
      "d": 394.7370000000228,
      "v": 61
    },
    {
      "midi": 66,
      "hit": false,
      "t": 421184.3790000003,
      "d": 394.7370000000228,
      "v": 67
    },
    {
      "midi": 47,
      "hit": false,
      "t": 421579.1159999997,
      "d": 131.579000000027,
      "v": 82
    },
    {
      "midi": 63,
      "hit": false,
      "t": 421579.11600000033,
      "d": 394.7370000000228,
      "v": 72
    },
    {
      "midi": 69,
      "hit": false,
      "t": 421579.11600000033,
      "d": 1578.9480000000913,
      "v": 82
    },
    {
      "midi": 48,
      "hit": false,
      "t": 421710.6949999997,
      "d": 131.579000000027,
      "v": 84
    },
    {
      "midi": 49,
      "hit": false,
      "t": 421842.27399999974,
      "d": 131.579000000027,
      "v": 86
    },
    {
      "midi": 48,
      "hit": false,
      "t": 421973.85299999977,
      "d": 98.68424999999115,
      "v": 88
    },
    {
      "midi": 66,
      "hit": false,
      "t": 421973.85300000035,
      "d": 394.7370000000228,
      "v": 78
    },
    {
      "midi": 49,
      "hit": false,
      "t": 422072.53724999976,
      "d": 98.68424999999115,
      "v": 89
    },
    {
      "midi": 48,
      "hit": false,
      "t": 422171.22149999975,
      "d": 98.68424999999115,
      "v": 90
    },
    {
      "midi": 49,
      "hit": false,
      "t": 422269.90574999974,
      "d": 98.68424999999115,
      "v": 92
    },
    {
      "midi": 48,
      "hit": false,
      "t": 422368.58999999973,
      "d": 98.68424999999115,
      "v": 93
    },
    {
      "midi": 63,
      "hit": false,
      "t": 422368.5900000004,
      "d": 394.7370000000228,
      "v": 83
    },
    {
      "midi": 49,
      "hit": false,
      "t": 422467.2742499997,
      "d": 98.68424999999115,
      "v": 94
    },
    {
      "midi": 48,
      "hit": false,
      "t": 422565.9584999997,
      "d": 98.68424999999115,
      "v": 96
    },
    {
      "midi": 49,
      "hit": false,
      "t": 422664.6427499997,
      "d": 98.68424999999115,
      "v": 97
    },
    {
      "midi": 48,
      "hit": false,
      "t": 422763.3269999997,
      "d": 98.68424999999115,
      "v": 99
    },
    {
      "midi": 66,
      "hit": false,
      "t": 422763.3270000004,
      "d": 394.7370000000228,
      "v": 89
    },
    {
      "midi": 49,
      "hit": false,
      "t": 422862.0112499997,
      "d": 98.68424999999115,
      "v": 100
    },
    {
      "midi": 48,
      "hit": false,
      "t": 422960.6954999997,
      "d": 98.68424999999115,
      "v": 101
    },
    {
      "midi": 49,
      "hit": false,
      "t": 423059.3797499997,
      "d": 98.68424999999115,
      "v": 103
    },
    {
      "midi": 48,
      "hit": false,
      "t": 423158.06399999966,
      "d": 98.68424999999115,
      "v": 104
    },
    {
      "midi": 63,
      "hit": false,
      "t": 423158.0640000004,
      "d": 394.7370000000228,
      "v": 94
    },
    {
      "midi": 68,
      "hit": false,
      "t": 423158.0640000004,
      "d": 789.4740000000456,
      "v": 94
    },
    {
      "midi": 49,
      "hit": false,
      "t": 423256.74824999965,
      "d": 98.68424999999115,
      "v": 105
    },
    {
      "midi": 48,
      "hit": false,
      "t": 423355.43249999965,
      "d": 98.68424999999115,
      "v": 107
    },
    {
      "midi": 49,
      "hit": false,
      "t": 423454.11674999964,
      "d": 98.68424999999115,
      "v": 108
    },
    {
      "midi": 48,
      "hit": false,
      "t": 423552.8009999996,
      "d": 131.579000000027,
      "v": 109
    },
    {
      "midi": 66,
      "hit": false,
      "t": 423552.80100000044,
      "d": 394.7370000000228,
      "v": 99
    },
    {
      "midi": 46,
      "hit": false,
      "t": 423684.37999999966,
      "d": 131.579000000027,
      "v": 110
    },
    {
      "midi": 48,
      "hit": false,
      "t": 423815.9589999997,
      "d": 131.579000000027,
      "v": 110
    },
    {
      "midi": 49,
      "hit": false,
      "t": 423947.5379999997,
      "d": 394.7370000000228,
      "v": 110
    },
    {
      "midi": 64,
      "hit": false,
      "t": 423947.53800000047,
      "d": 789.4740000000456,
      "v": 110
    },
    {
      "midi": 68,
      "hit": false,
      "t": 424342.2750000005,
      "d": 394.7370000000228,
      "v": 100
    },
    {
      "midi": 60,
      "hit": false,
      "t": 424737.0120000005,
      "d": 789.4740000000456,
      "v": 111
    },
    {
      "midi": 75,
      "hit": false,
      "t": 424737.0120000027,
      "d": 394.7370000000228,
      "v": 101
    },
    {
      "midi": 66,
      "hit": false,
      "t": 425131.74900000053,
      "d": 394.7370000000228,
      "v": 102
    },
    {
      "midi": 68,
      "hit": false,
      "t": 425131.74900000053,
      "d": 394.7370000000228,
      "v": 102
    },
    {
      "midi": 73,
      "hit": false,
      "t": 425131.74900000275,
      "d": 197.3684999999823,
      "v": 102
    },
    {
      "midi": 75,
      "hit": false,
      "t": 425329.1175000027,
      "d": 197.3684999999823,
      "v": 103
    },
    {
      "midi": 61,
      "hit": false,
      "t": 425526.48600000056,
      "d": 789.4740000000456,
      "v": 113
    },
    {
      "midi": 76,
      "hit": false,
      "t": 425526.4860000027,
      "d": 394.7370000000228,
      "v": 103
    },
    {
      "midi": 64,
      "hit": false,
      "t": 425921.2230000006,
      "d": 394.7370000000228,
      "v": 104
    },
    {
      "midi": 68,
      "hit": false,
      "t": 425921.2230000006,
      "d": 394.7370000000228,
      "v": 104
    },
    {
      "midi": 75,
      "hit": false,
      "t": 425921.22300000273,
      "d": 197.3684999999823,
      "v": 104
    },
    {
      "midi": 76,
      "hit": false,
      "t": 426118.5915000027,
      "d": 197.3684999999823,
      "v": 105
    },
    {
      "midi": 57,
      "hit": false,
      "t": 426315.9600000012,
      "d": 789.4740000000456,
      "v": 115
    },
    {
      "midi": 78,
      "hit": false,
      "t": 426315.9600000027,
      "d": 394.7370000000228,
      "v": 105
    },
    {
      "midi": 61,
      "hit": false,
      "t": 426710.6970000012,
      "d": 394.7370000000228,
      "v": 106
    },
    {
      "midi": 66,
      "hit": false,
      "t": 426710.6970000012,
      "d": 394.7370000000228,
      "v": 106
    },
    {
      "midi": 76,
      "hit": false,
      "t": 426710.6970000027,
      "d": 197.3684999999823,
      "v": 106
    },
    {
      "midi": 78,
      "hit": false,
      "t": 426908.0655000027,
      "d": 197.3684999999823,
      "v": 106
    },
    {
      "midi": 56,
      "hit": false,
      "t": 427105.43400000123,
      "d": 789.4740000000456,
      "v": 117
    },
    {
      "midi": 80,
      "hit": false,
      "t": 427105.4340000027,
      "d": 394.7370000000228,
      "v": 107
    },
    {
      "midi": 61,
      "hit": false,
      "t": 427500.17100000125,
      "d": 394.7370000000228,
      "v": 108
    },
    {
      "midi": 64,
      "hit": false,
      "t": 427500.17100000125,
      "d": 394.7370000000228,
      "v": 108
    },
    {
      "midi": 78,
      "hit": false,
      "t": 427500.1710000027,
      "d": 197.3684999999823,
      "v": 108
    },
    {
      "midi": 80,
      "hit": false,
      "t": 427697.5395000027,
      "d": 197.3684999999823,
      "v": 108
    },
    {
      "midi": 54,
      "hit": false,
      "t": 427894.9080000013,
      "d": 789.4740000000456,
      "v": 119
    },
    {
      "midi": 81,
      "hit": false,
      "t": 427894.9080000027,
      "d": 394.7370000000228,
      "v": 109
    },
    {
      "midi": 61,
      "hit": false,
      "t": 428289.6450000013,
      "d": 394.7370000000228,
      "v": 110
    },
    {
      "midi": 63,
      "hit": false,
      "t": 428289.6450000013,
      "d": 394.7370000000228,
      "v": 110
    },
    {
      "midi": 69,
      "hit": false,
      "t": 428289.6450000027,
      "d": 394.7370000000228,
      "v": 110
    },
    {
      "midi": 44,
      "hit": false,
      "t": 428684.3820000013,
      "d": 394.7370000000228,
      "v": 110
    },
    {
      "midi": 68,
      "hit": false,
      "t": 428684.3820000027,
      "d": 1052.6319999999832,
      "v": 110
    },
    {
      "midi": 51,
      "hit": false,
      "t": 429079.11900000134,
      "d": 1184.2110000000685,
      "v": 120
    },
    {
      "midi": 60,
      "hit": false,
      "t": 429473.85600000137,
      "d": 394.7370000000228,
      "v": 110
    },
    {
      "midi": 70,
      "hit": false,
      "t": 429737.0140000027,
      "d": 131.579000000027,
      "v": 110
    },
    {
      "midi": 56,
      "hit": false,
      "t": 429868.5930000014,
      "d": 789.4740000000456,
      "v": 120
    },
    {
      "midi": 72,
      "hit": false,
      "t": 430000.17200000276,
      "d": 131.579000000027,
      "v": 110
    },
    {
      "midi": 52,
      "hit": false,
      "t": 430263.3300000014,
      "d": 394.7370000000228,
      "v": 110
    },
    {
      "midi": 61,
      "hit": false,
      "t": 430263.3300000014,
      "d": 394.7370000000228,
      "v": 110
    },
    {
      "midi": 73,
      "hit": false,
      "t": 430263.3300000028,
      "d": 131.579000000027,
      "v": 110
    },
    {
      "midi": 75,
      "hit": false,
      "t": 430526.48800000286,
      "d": 131.579000000027,
      "v": 110
    },
    {
      "midi": 55,
      "hit": false,
      "t": 430658.06700000144,
      "d": 394.7370000000228,
      "v": 120
    },
    {
      "midi": 76,
      "hit": false,
      "t": 430789.6460000029,
      "d": 131.579000000027,
      "v": 110
    },
    {
      "midi": 44,
      "hit": false,
      "t": 431052.80400000146,
      "d": 394.7370000000228,
      "v": 110
    },
    {
      "midi": 75,
      "hit": false,
      "t": 431052.804000003,
      "d": 2368.4220000000205,
      "v": 110
    },
    {
      "midi": 51,
      "hit": false,
      "t": 431447.5410000015,
      "d": 394.7370000000228,
      "v": 110
    },
    {
      "midi": 60,
      "hit": false,
      "t": 431842.2780000015,
      "d": 394.7370000000228,
      "v": 110
    },
    {
      "midi": 56,
      "hit": false,
      "t": 432237.0150000015,
      "d": 394.7370000000228,
      "v": 110
    },
    {
      "midi": 68,
      "hit": false,
      "t": 432631.75200000155,
      "d": 394.7370000000228,
      "v": 110
    },
    {
      "midi": 32,
      "hit": false,
      "t": 433421.2260000016,
      "d": 197.3684999999823,
      "v": 60
    },
    {
      "midi": 44,
      "hit": false,
      "t": 433421.2260000016,
      "d": 197.3684999999823,
      "v": 60
    },
    {
      "midi": 75,
      "hit": false,
      "t": 433421.226000003,
      "d": 263.1579999999958,
      "v": 60
    },
    {
      "midi": 75,
      "hit": false,
      "t": 433684.384000003,
      "d": 263.1579999999958,
      "v": 60
    },
    {
      "midi": 56,
      "hit": false,
      "t": 433815.96300000156,
      "d": 789.4740000000456,
      "v": 70
    },
    {
      "midi": 75,
      "hit": false,
      "t": 433947.542000003,
      "d": 263.1579999999958,
      "v": 60
    },
    {
      "midi": 60,
      "hit": false,
      "t": 434210.7000000016,
      "d": 394.7370000000228,
      "v": 60
    },
    {
      "midi": 66,
      "hit": false,
      "t": 434210.7000000016,
      "d": 394.7370000000228,
      "v": 60
    },
    {
      "midi": 75,
      "hit": false,
      "t": 434210.700000003,
      "d": 394.7370000000228,
      "v": 60
    },
    {
      "midi": 56,
      "hit": false,
      "t": 434605.4370000016,
      "d": 789.4740000000456,
      "v": 70
    },
    {
      "midi": 73,
      "hit": false,
      "t": 434605.437000003,
      "d": 197.3684999999823,
      "v": 60
    },
    {
      "midi": 75,
      "hit": false,
      "t": 434802.805500003,
      "d": 197.3684999999823,
      "v": 60
    },
    {
      "midi": 49,
      "hit": false,
      "t": 435000.1740000016,
      "d": 394.7370000000228,
      "v": 60
    },
    {
      "midi": 77,
      "hit": false,
      "t": 435000.17400000297,
      "d": 394.7370000000228,
      "v": 60
    },
    {
      "midi": 59,
      "hit": false,
      "t": 435065.96350000164,
      "d": 328.9475000000093,
      "v": 60
    },
    {
      "midi": 65,
      "hit": false,
      "t": 435131.75300000166,
      "d": 263.1579999999958,
      "v": 60
    },
    {
      "midi": 61,
      "hit": false,
      "t": 435394.91100000165,
      "d": 394.7370000000228,
      "v": 60
    },
    {
      "midi": 75,
      "hit": false,
      "t": 435394.911000003,
      "d": 197.3684999999823,
      "v": 60
    },
    {
      "midi": 77,
      "hit": false,
      "t": 435592.279500003,
      "d": 197.3684999999823,
      "v": 60
    },
    {
      "midi": 66,
      "hit": false,
      "t": 435789.6480000017,
      "d": 394.7370000000228,
      "v": 60
    },
    {
      "midi": 54,
      "hit": false,
      "t": 435789.6480000017,
      "d": 789.4740000000456,
      "v": 70
    },
    {
      "midi": 57,
      "hit": false,
      "t": 435789.6480000017,
      "d": 789.4740000000456,
      "v": 70
    },
    {
      "midi": 78,
      "hit": false,
      "t": 435789.64800000296,
      "d": 394.7370000000228,
      "v": 60
    },
    {
      "midi": 61,
      "hit": false,
      "t": 436184.3850000017,
      "d": 394.7370000000228,
      "v": 60
    },
    {
      "midi": 77,
      "hit": false,
      "t": 436184.385000003,
      "d": 197.3684999999823,
      "v": 60
    },
    {
      "midi": 78,
      "hit": false,
      "t": 436381.75350000296,
      "d": 197.3684999999823,
      "v": 60
    },
    {
      "midi": 68,
      "hit": false,
      "t": 436579.1220000017,
      "d": 394.7370000000228,
      "v": 60
    },
    {
      "midi": 53,
      "hit": false,
      "t": 436579.1220000017,
      "d": 789.4740000000456,
      "v": 70
    },
    {
      "midi": 59,
      "hit": false,
      "t": 436579.1220000017,
      "d": 789.4740000000456,
      "v": 70
    },
    {
      "midi": 80,
      "hit": false,
      "t": 436579.12200000294,
      "d": 394.7370000000228,
      "v": 60
    },
    {
      "midi": 61,
      "hit": false,
      "t": 436973.85900000174,
      "d": 394.7370000000228,
      "v": 60
    },
    {
      "midi": 78,
      "hit": false,
      "t": 436973.85900000297,
      "d": 197.3684999999823,
      "v": 60
    },
    {
      "midi": 80,
      "hit": false,
      "t": 437171.22750000295,
      "d": 197.3684999999823,
      "v": 60
    },
    {
      "midi": 54,
      "hit": false,
      "t": 437368.59600000177,
      "d": 789.4740000000456,
      "v": 70
    },
    {
      "midi": 81,
      "hit": false,
      "t": 437368.59600000293,
      "d": 394.7370000000228,
      "v": 60
    },
    {
      "midi": 57,
      "hit": false,
      "t": 437434.3855000018,
      "d": 723.6845000000321,
      "v": 70
    },
    {
      "midi": 69,
      "hit": false,
      "t": 437500.1750000018,
      "d": 263.1579999999958,
      "v": 60
    },
    {
      "midi": 61,
      "hit": false,
      "t": 437763.3330000018,
      "d": 394.7370000000228,
      "v": 60
    },
    {
      "midi": 80,
      "hit": false,
      "t": 437763.33300000295,
      "d": 197.3684999999823,
      "v": 60
    },
    {
      "midi": 81,
      "hit": false,
      "t": 437960.70150000294,
      "d": 197.3684999999823,
      "v": 60
    },
    {
      "midi": 57,
      "hit": false,
      "t": 438158.0700000018,
      "d": 394.7370000000228,
      "v": 50
    },
    {
      "midi": 54,
      "hit": false,
      "t": 438158.0700000018,
      "d": 2368.4220000000787,
      "v": 40
    },
    {
      "midi": 83,
      "hit": false,
      "t": 438158.0700000029,
      "d": 263.1579999999958,
      "v": 40
    },
    {
      "midi": 81,
      "hit": false,
      "t": 438421.2280000029,
      "d": 263.1579999999958,
      "v": 42
    },
    {
      "midi": 61,
      "hit": false,
      "t": 438552.80700000183,
      "d": 394.7370000000228,
      "v": 53
    },
    {
      "midi": 78,
      "hit": false,
      "t": 438848.8597500029,
      "d": 52.631600000022445,
      "v": 46
    },
    {
      "midi": 79,
      "hit": false,
      "t": 438894.91240000294,
      "d": 52.631600000022445,
      "v": 46
    },
    {
      "midi": 62,
      "hit": false,
      "t": 438947.54400000186,
      "d": 394.7370000000228,
      "v": 57
    },
    {
      "midi": 78,
      "hit": false,
      "t": 438947.54400000296,
      "d": 263.1579999999958,
      "v": 47
    },
    {
      "midi": 76,
      "hit": false,
      "t": 439210.70200000296,
      "d": 263.1579999999958,
      "v": 49
    },
    {
      "midi": 64,
      "hit": false,
      "t": 439342.2810000019,
      "d": 394.7370000000228,
      "v": 60
    },
    {
      "midi": 78,
      "hit": false,
      "t": 439638.33375000296,
      "d": 98.68424999999115,
      "v": 53
    },
    {
      "midi": 66,
      "hit": false,
      "t": 439737.0180000019,
      "d": 789.4739999999874,
      "v": 64
    },
    {
      "midi": 69,
      "hit": false,
      "t": 439737.01800000295,
      "d": 394.7370000000228,
      "v": 54
    },
    {
      "midi": 74,
      "hit": false,
      "t": 440131.755000003,
      "d": 394.7370000000228,
      "v": 57
    },
    {
      "midi": 64,
      "hit": false,
      "t": 440526.4920000019,
      "d": 263.1579999999958,
      "v": 60
    },
    {
      "midi": 56,
      "hit": false,
      "t": 440526.4920000019,
      "d": 1184.2110000000102,
      "v": 70
    },
    {
      "midi": 73,
      "hit": false,
      "t": 440526.492000003,
      "d": 263.1579999999958,
      "v": 60
    },
    {
      "midi": 63,
      "hit": false,
      "t": 440789.6500000019,
      "d": 263.1579999999958,
      "v": 60
    },
    {
      "midi": 72,
      "hit": false,
      "t": 440789.650000003,
      "d": 526.3159999999916,
      "v": 70
    },
    {
      "midi": 68,
      "hit": false,
      "t": 441052.8080000019,
      "d": 263.1579999999958,
      "v": 60
    },
    {
      "midi": 76,
      "hit": false,
      "t": 441052.808000003,
      "d": 263.1579999999958,
      "v": 60
    },
    {
      "midi": 66,
      "hit": false,
      "t": 441315.9660000019,
      "d": 789.4740000000456,
      "v": 60
    },
    {
      "midi": 75,
      "hit": false,
      "t": 441315.966000003,
      "d": 789.4739999999874,
      "v": 60
    },
    {
      "midi": 56,
      "hit": false,
      "t": 441710.7030000019,
      "d": 394.7370000000228,
      "v": 60
    },
    {
      "midi": 61,
      "hit": false,
      "t": 442105.4400000019,
      "d": 394.7370000000228,
      "v": 60
    },
    {
      "midi": 64,
      "hit": false,
      "t": 442105.4400000019,
      "d": 394.7370000000228,
      "v": 60
    },
    {
      "midi": 73,
      "hit": false,
      "t": 442105.440000003,
      "d": 394.7370000000228,
      "v": 60
    }
  ]
}