{
  "jsonPath": "World/Neue Deutsche Welle/Paso Doble/agenten.json",
  "path": "World\\Neue Deutsche Welle\\Paso Doble\\Agenten.mid",
  "name": "Agenten",
  "difficulty": "Intermediate",
  "bpm": 120,
  "notes": [
    {
      "midi": 62,
      "hit": false,
      "t": 3983.3333333333335,
      "d": 129.16666666666652,
      "v": 78
    },
    {
      "midi": 50,
      "hit": false,
      "t": 4000,
      "d": 112.5,
      "v": 68
    },
    {
      "midi": 66,
      "hit": false,
      "t": 4000,
      "d": 112.5,
      "v": 84
    },
    {
      "midi": 57,
      "hit": false,
      "t": 4016.6666666666665,
      "d": 108.33333333333348,
      "v": 68
    },
    {
      "midi": 62,
      "hit": false,
      "t": 5520.833333333333,
      "d": 158.33333333333394,
      "v": 89
    },
    {
      "midi": 66,
      "hit": false,
      "t": 5537.5,
      "d": 125,
      "v": 74
    },
    {
      "midi": 57,
      "hit": false,
      "t": 5537.5,
      "d": 141.66666666666697,
      "v": 76
    },
    {
      "midi": 50,
      "hit": false,
      "t": 5550,
      "d": 129.16666666666697,
      "v": 68
    },
    {
      "midi": 57,
      "hit": false,
      "t": 7087.5,
      "d": 145.83333333333394,
      "v": 64
    },
    {
      "midi": 52,
      "hit": false,
      "t": 7104.166666666667,
      "d": 95.83333333333394,
      "v": 59
    },
    {
      "midi": 64,
      "hit": false,
      "t": 7104.166666666667,
      "d": 145.83333333333394,
      "v": 66
    },
    {
      "midi": 61,
      "hit": false,
      "t": 7120.833333333334,
      "d": 112.5,
      "v": 68
    },
    {
      "midi": 52,
      "hit": false,
      "t": 8625,
      "d": 112.5,
      "v": 68
    },
    {
      "midi": 57,
      "hit": false,
      "t": 8625,
      "d": 141.66666666666606,
      "v": 72
    },
    {
      "midi": 61,
      "hit": false,
      "t": 8641.666666666666,
      "d": 95.83333333333394,
      "v": 58
    },
    {
      "midi": 64,
      "hit": false,
      "t": 8641.666666666666,
      "d": 141.66666666666606,
      "v": 64
    },
    {
      "midi": 62,
      "hit": false,
      "t": 10129.166666666666,
      "d": 112.49999999999818,
      "v": 80
    },
    {
      "midi": 50,
      "hit": false,
      "t": 10141.666666666666,
      "d": 112.49999999999818,
      "v": 64
    },
    {
      "midi": 57,
      "hit": false,
      "t": 10145.833333333332,
      "d": 91.66666666666606,
      "v": 66
    },
    {
      "midi": 66,
      "hit": false,
      "t": 10145.833333333332,
      "d": 108.33333333333212,
      "v": 72
    },
    {
      "midi": 62,
      "hit": false,
      "t": 11695.83333333333,
      "d": 129.16666666666606,
      "v": 89
    },
    {
      "midi": 66,
      "hit": false,
      "t": 11695.83333333333,
      "d": 145.83333333333212,
      "v": 84
    },
    {
      "midi": 57,
      "hit": false,
      "t": 11712.499999999996,
      "d": 62.5,
      "v": 62
    },
    {
      "midi": 50,
      "hit": false,
      "t": 11712.499999999996,
      "d": 112.5,
      "v": 66
    },
    {
      "midi": 61,
      "hit": false,
      "t": 13233.333333333328,
      "d": 124.99999999999818,
      "v": 58
    },
    {
      "midi": 52,
      "hit": false,
      "t": 13245.833333333328,
      "d": 129.16666666666424,
      "v": 56
    },
    {
      "midi": 57,
      "hit": false,
      "t": 13249.999999999995,
      "d": 91.66666666666606,
      "v": 57
    },
    {
      "midi": 64,
      "hit": false,
      "t": 13262.499999999995,
      "d": 112.49999999999818,
      "v": 66
    },
    {
      "midi": 57,
      "hit": false,
      "t": 14766.666666666659,
      "d": 112.49999999999818,
      "v": 78
    },
    {
      "midi": 61,
      "hit": false,
      "t": 14766.666666666659,
      "d": 129.16666666666424,
      "v": 78
    },
    {
      "midi": 52,
      "hit": false,
      "t": 14770.833333333325,
      "d": 91.66666666666606,
      "v": 62
    },
    {
      "midi": 64,
      "hit": false,
      "t": 14783.333333333325,
      "d": 141.66666666666424,
      "v": 72
    },
    {
      "midi": 62,
      "hit": false,
      "t": 15920.833333333323,
      "d": 125,
      "v": 106
    },
    {
      "midi": 50,
      "hit": false,
      "t": 15937.499999999989,
      "d": 95.83333333333394,
      "v": 96
    },
    {
      "midi": 57,
      "hit": false,
      "t": 16112.499999999989,
      "d": 445.8333333333321,
      "v": 97
    },
    {
      "midi": 45,
      "hit": false,
      "t": 16129.166666666655,
      "d": 383.33333333333394,
      "v": 98
    },
    {
      "midi": 59,
      "hit": false,
      "t": 16670.83333333332,
      "d": 241.66666666666788,
      "v": 116
    },
    {
      "midi": 47,
      "hit": false,
      "t": 16687.49999999999,
      "d": 129.16666666666788,
      "v": 89
    },
    {
      "midi": 61,
      "hit": false,
      "t": 17037.49999999999,
      "d": 162.5,
      "v": 100
    },
    {
      "midi": 49,
      "hit": false,
      "t": 17054.166666666657,
      "d": 162.5,
      "v": 92
    },
    {
      "midi": 66,
      "hit": false,
      "t": 17824.99999999999,
      "d": 125,
      "v": 76
    },
    {
      "midi": 57,
      "hit": false,
      "t": 17841.666666666657,
      "d": 108.33333333333212,
      "v": 73
    },
    {
      "midi": 62,
      "hit": false,
      "t": 17841.666666666657,
      "d": 112.5,
      "v": 73
    },
    {
      "midi": 50,
      "hit": false,
      "t": 17854.166666666657,
      "d": 83.33333333333212,
      "v": 80
    },
    {
      "midi": 50,
      "hit": false,
      "t": 19358.333333333325,
      "d": 112.5,
      "v": 92
    },
    {
      "midi": 62,
      "hit": false,
      "t": 19358.333333333325,
      "d": 129.16666666666788,
      "v": 91
    },
    {
      "midi": 57,
      "hit": false,
      "t": 19374.999999999993,
      "d": 62.5,
      "v": 62
    },
    {
      "midi": 66,
      "hit": false,
      "t": 19374.999999999993,
      "d": 112.5,
      "v": 73
    },
    {
      "midi": 62,
      "hit": false,
      "t": 20912.499999999993,
      "d": 141.66666666667152,
      "v": 88
    },
    {
      "midi": 50,
      "hit": false,
      "t": 20924.999999999993,
      "d": 100.00000000000364,
      "v": 78
    },
    {
      "midi": 66,
      "hit": false,
      "t": 20929.16666666666,
      "d": 112.50000000000364,
      "v": 73
    },
    {
      "midi": 57,
      "hit": false,
      "t": 20945.83333333333,
      "d": 79.16666666666788,
      "v": 72
    },
    {
      "midi": 62,
      "hit": false,
      "t": 22433.333333333332,
      "d": 112.5,
      "v": 92
    },
    {
      "midi": 50,
      "hit": false,
      "t": 22445.833333333332,
      "d": 100,
      "v": 93
    },
    {
      "midi": 57,
      "hit": false,
      "t": 22450,
      "d": 62.5,
      "v": 76
    },
    {
      "midi": 66,
      "hit": false,
      "t": 22462.5,
      "d": 95.83333333333212,
      "v": 78
    },
    {
      "midi": 62,
      "hit": false,
      "t": 23550,
      "d": 162.50000000000728,
      "v": 96
    },
    {
      "midi": 50,
      "hit": false,
      "t": 23566.666666666668,
      "d": 95.83333333333576,
      "v": 98
    },
    {
      "midi": 66,
      "hit": false,
      "t": 23566.666666666668,
      "d": 129.16666666667152,
      "v": 91
    },
    {
      "midi": 57,
      "hit": false,
      "t": 23570.833333333336,
      "d": 108.33333333333576,
      "v": 92
    },
    {
      "midi": 61,
      "hit": false,
      "t": 25520.83333333334,
      "d": 108.33333333333576,
      "v": 58
    },
    {
      "midi": 64,
      "hit": false,
      "t": 25520.83333333334,
      "d": 129.16666666666788,
      "v": 55
    },
    {
      "midi": 52,
      "hit": false,
      "t": 25537.500000000007,
      "d": 112.5,
      "v": 56
    },
    {
      "midi": 57,
      "hit": false,
      "t": 25537.500000000007,
      "d": 112.5,
      "v": 58
    },
    {
      "midi": 64,
      "hit": false,
      "t": 27054.166666666675,
      "d": 145.83333333333576,
      "v": 74
    },
    {
      "midi": 52,
      "hit": false,
      "t": 27070.833333333343,
      "d": 95.83333333333576,
      "v": 84
    },
    {
      "midi": 61,
      "hit": false,
      "t": 27070.833333333343,
      "d": 129.16666666666788,
      "v": 74
    },
    {
      "midi": 57,
      "hit": false,
      "t": 27075.00000000001,
      "d": 91.66666666666788,
      "v": 74
    },
    {
      "midi": 57,
      "hit": false,
      "t": 28591.66666666668,
      "d": 79.16666666666788,
      "v": 64
    },
    {
      "midi": 61,
      "hit": false,
      "t": 28591.66666666668,
      "d": 112.50000000000364,
      "v": 78
    },
    {
      "midi": 64,
      "hit": false,
      "t": 28591.66666666668,
      "d": 112.50000000000364,
      "v": 72
    },
    {
      "midi": 52,
      "hit": false,
      "t": 28608.333333333347,
      "d": 79.16666666666788,
      "v": 62
    },
    {
      "midi": 64,
      "hit": false,
      "t": 30129.166666666682,
      "d": 108.33333333333576,
      "v": 74
    },
    {
      "midi": 57,
      "hit": false,
      "t": 30129.166666666682,
      "d": 112.50000000000364,
      "v": 72
    },
    {
      "midi": 61,
      "hit": false,
      "t": 30141.666666666682,
      "d": 100.00000000000364,
      "v": 74
    },
    {
      "midi": 52,
      "hit": false,
      "t": 30145.83333333335,
      "d": 79.16666666666788,
      "v": 71
    },
    {
      "midi": 61,
      "hit": false,
      "t": 31650.00000000002,
      "d": 125,
      "v": 73
    },
    {
      "midi": 57,
      "hit": false,
      "t": 31662.50000000002,
      "d": 116.66666666666788,
      "v": 68
    },
    {
      "midi": 64,
      "hit": false,
      "t": 31662.50000000002,
      "d": 129.16666666666788,
      "v": 64
    },
    {
      "midi": 52,
      "hit": false,
      "t": 31679.166666666686,
      "d": 95.83333333333212,
      "v": 59
    },
    {
      "midi": 52,
      "hit": false,
      "t": 33216.666666666686,
      "d": 95.83333333332848,
      "v": 72
    },
    {
      "midi": 64,
      "hit": false,
      "t": 33216.666666666686,
      "d": 141.66666666665697,
      "v": 80
    },
    {
      "midi": 57,
      "hit": false,
      "t": 33229.166666666686,
      "d": 129.16666666665697,
      "v": 64
    },
    {
      "midi": 61,
      "hit": false,
      "t": 33233.33333333335,
      "d": 108.33333333332848,
      "v": 72
    },
    {
      "midi": 62,
      "hit": false,
      "t": 34737.50000000001,
      "d": 125,
      "v": 80
    },
    {
      "midi": 66,
      "hit": false,
      "t": 34737.50000000001,
      "d": 125,
      "v": 73
    },
    {
      "midi": 57,
      "hit": false,
      "t": 34750.00000000001,
      "d": 100,
      "v": 58
    },
    {
      "midi": 50,
      "hit": false,
      "t": 34750.00000000001,
      "d": 116.66666666666424,
      "v": 73
    },
    {
      "midi": 62,
      "hit": false,
      "t": 35904.16666666667,
      "d": 112.5,
      "v": 64
    },
    {
      "midi": 57,
      "hit": false,
      "t": 36095.833333333336,
      "d": 462.5,
      "v": 96
    },
    {
      "midi": 45,
      "hit": false,
      "t": 36112.5,
      "d": 383.33333333333576,
      "v": 97
    },
    {
      "midi": 59,
      "hit": false,
      "t": 36625,
      "d": 254.16666666666424,
      "v": 106
    },
    {
      "midi": 47,
      "hit": false,
      "t": 36641.666666666664,
      "d": 125,
      "v": 84
    },
    {
      "midi": 61,
      "hit": false,
      "t": 37008.33333333333,
      "d": 191.66666666666424,
      "v": 102
    },
    {
      "midi": 49,
      "hit": false,
      "t": 37024.99999999999,
      "d": 191.66666666666424,
      "v": 93
    },
    {
      "midi": 62,
      "hit": false,
      "t": 37824.99999999999,
      "d": 95.83333333332848,
      "v": 91
    },
    {
      "midi": 66,
      "hit": false,
      "t": 37824.99999999999,
      "d": 95.83333333332848,
      "v": 76
    },
    {
      "midi": 50,
      "hit": false,
      "t": 37841.66666666666,
      "d": 62.5,
      "v": 76
    },
    {
      "midi": 57,
      "hit": false,
      "t": 37841.66666666666,
      "d": 91.66666666666424,
      "v": 70
    },
    {
      "midi": 62,
      "hit": false,
      "t": 39324.999999999985,
      "d": 116.66666666666424,
      "v": 86
    },
    {
      "midi": 66,
      "hit": false,
      "t": 39329.16666666665,
      "d": 112.5,
      "v": 74
    },
    {
      "midi": 50,
      "hit": false,
      "t": 39345.833333333314,
      "d": 62.5,
      "v": 84
    },
    {
      "midi": 57,
      "hit": false,
      "t": 39345.833333333314,
      "d": 108.33333333333576,
      "v": 64
    },
    {
      "midi": 62,
      "hit": false,
      "t": 40879.16666666665,
      "d": 129.16666666666424,
      "v": 80
    },
    {
      "midi": 50,
      "hit": false,
      "t": 40895.833333333314,
      "d": 112.5,
      "v": 84
    },
    {
      "midi": 57,
      "hit": false,
      "t": 40895.833333333314,
      "d": 112.5,
      "v": 70
    },
    {
      "midi": 66,
      "hit": false,
      "t": 40895.833333333314,
      "d": 112.5,
      "v": 60
    },
    {
      "midi": 62,
      "hit": false,
      "t": 42445.833333333314,
      "d": 112.49999999999272,
      "v": 84
    },
    {
      "midi": 57,
      "hit": false,
      "t": 42449.99999999998,
      "d": 95.83333333332848,
      "v": 71
    },
    {
      "midi": 50,
      "hit": false,
      "t": 42462.49999999998,
      "d": 79.16666666666424,
      "v": 72
    },
    {
      "midi": 66,
      "hit": false,
      "t": 42462.49999999998,
      "d": 95.83333333332848,
      "v": 66
    },
    {
      "midi": 57,
      "hit": false,
      "t": 43949.99999999997,
      "d": 112.5,
      "v": 68
    },
    {
      "midi": 62,
      "hit": false,
      "t": 43949.99999999997,
      "d": 129.16666666666424,
      "v": 80
    },
    {
      "midi": 50,
      "hit": false,
      "t": 43966.666666666635,
      "d": 95.83333333333576,
      "v": 72
    },
    {
      "midi": 66,
      "hit": false,
      "t": 43966.666666666635,
      "d": 112.5,
      "v": 72
    },
    {
      "midi": 64,
      "hit": false,
      "t": 45454.166666666635,
      "d": 129.16666666665697,
      "v": 88
    },
    {
      "midi": 57,
      "hit": false,
      "t": 45470.8333333333,
      "d": 95.83333333332848,
      "v": 96
    },
    {
      "midi": 61,
      "hit": false,
      "t": 45474.99999999996,
      "d": 124.99999999999272,
      "v": 66
    },
    {
      "midi": 52,
      "hit": false,
      "t": 45504.16666666663,
      "d": 62.5,
      "v": 76
    },
    {
      "midi": 61,
      "hit": false,
      "t": 47008.33333333329,
      "d": 124.99999999999272,
      "v": 76
    },
    {
      "midi": 57,
      "hit": false,
      "t": 47024.999999999956,
      "d": 79.16666666666424,
      "v": 58
    },
    {
      "midi": 64,
      "hit": false,
      "t": 47024.999999999956,
      "d": 79.16666666666424,
      "v": 74
    },
    {
      "midi": 52,
      "hit": false,
      "t": 48558.333333333285,
      "d": 95.83333333332848,
      "v": 66
    },
    {
      "midi": 57,
      "hit": false,
      "t": 48574.99999999995,
      "d": 79.16666666666424,
      "v": 60
    },
    {
      "midi": 61,
      "hit": false,
      "t": 48574.99999999995,
      "d": 95.83333333332848,
      "v": 59
    },
    {
      "midi": 64,
      "hit": false,
      "t": 48574.99999999995,
      "d": 95.83333333332848,
      "v": 58
    },
    {
      "midi": 61,
      "hit": false,
      "t": 50095.83333333328,
      "d": 112.49999999999272,
      "v": 78
    },
    {
      "midi": 64,
      "hit": false,
      "t": 50112.49999999994,
      "d": 79.16666666666424,
      "v": 64
    },
    {
      "midi": 52,
      "hit": false,
      "t": 50112.49999999994,
      "d": 95.83333333332848,
      "v": 72
    },
    {
      "midi": 57,
      "hit": false,
      "t": 50129.166666666606,
      "d": 45.83333333333576,
      "v": 66
    },
    {
      "midi": 52,
      "hit": false,
      "t": 51649.999999999935,
      "d": 95.83333333333576,
      "v": 66
    },
    {
      "midi": 61,
      "hit": false,
      "t": 51649.999999999935,
      "d": 108.33333333333576,
      "v": 72
    },
    {
      "midi": 64,
      "hit": false,
      "t": 51649.999999999935,
      "d": 108.33333333333576,
      "v": 70
    },
    {
      "midi": 57,
      "hit": false,
      "t": 51662.499999999935,
      "d": 83.33333333333576,
      "v": 59
    },
    {
      "midi": 64,
      "hit": false,
      "t": 53166.666666666606,
      "d": 145.83333333332848,
      "v": 71
    },
    {
      "midi": 52,
      "hit": false,
      "t": 53183.33333333327,
      "d": 79.16666666666424,
      "v": 71
    },
    {
      "midi": 61,
      "hit": false,
      "t": 53183.33333333327,
      "d": 95.83333333332848,
      "v": 66
    },
    {
      "midi": 57,
      "hit": false,
      "t": 53199.999999999935,
      "d": 79.16666666666424,
      "v": 62
    },
    {
      "midi": 62,
      "hit": false,
      "t": 54704.1666666666,
      "d": 129.16666666666424,
      "v": 78
    },
    {
      "midi": 66,
      "hit": false,
      "t": 54720.83333333326,
      "d": 108.33333333333576,
      "v": 71
    },
    {
      "midi": 50,
      "hit": false,
      "t": 54720.83333333326,
      "d": 112.5,
      "v": 74
    },
    {
      "midi": 57,
      "hit": false,
      "t": 54720.83333333326,
      "d": 129.16666666666424,
      "v": 57
    },
    {
      "midi": 62,
      "hit": false,
      "t": 56241.66666666659,
      "d": 125,
      "v": 86
    },
    {
      "midi": 66,
      "hit": false,
      "t": 56241.66666666659,
      "d": 129.16666666666424,
      "v": 72
    },
    {
      "midi": 57,
      "hit": false,
      "t": 56254.16666666659,
      "d": 112.5,
      "v": 64
    },
    {
      "midi": 50,
      "hit": false,
      "t": 56254.16666666659,
      "d": 116.66666666666424,
      "v": 73
    },
    {
      "midi": 52,
      "hit": false,
      "t": 57791.66666666659,
      "d": 112.49999999999272,
      "v": 60
    },
    {
      "midi": 61,
      "hit": false,
      "t": 57791.66666666659,
      "d": 112.49999999999272,
      "v": 68
    },
    {
      "midi": 57,
      "hit": false,
      "t": 57808.333333333256,
      "d": 79.16666666666424,
      "v": 57
    },
    {
      "midi": 64,
      "hit": false,
      "t": 57808.333333333256,
      "d": 95.83333333332848,
      "v": 59
    },
    {
      "midi": 57,
      "hit": false,
      "t": 59329.166666666584,
      "d": 112.49999999999272,
      "v": 57
    },
    {
      "midi": 61,
      "hit": false,
      "t": 59329.166666666584,
      "d": 124.99999999999272,
      "v": 60
    },
    {
      "midi": 52,
      "hit": false,
      "t": 59341.666666666584,
      "d": 95.83333333332848,
      "v": 57
    },
    {
      "midi": 64,
      "hit": false,
      "t": 59345.83333333325,
      "d": 124.99999999999272,
      "v": 60
    },
    {
      "midi": 62,
      "hit": false,
      "t": 60849.999999999905,
      "d": 125,
      "v": 74
    },
    {
      "midi": 66,
      "hit": false,
      "t": 60849.999999999905,
      "d": 125,
      "v": 64
    },
    {
      "midi": 57,
      "hit": false,
      "t": 60862.499999999905,
      "d": 95.83333333333576,
      "v": 60
    },
    {
      "midi": 50,
      "hit": false,
      "t": 60862.499999999905,
      "d": 112.5,
      "v": 78
    },
    {
      "midi": 50,
      "hit": false,
      "t": 62366.66666666657,
      "d": 112.5,
      "v": 76
    },
    {
      "midi": 57,
      "hit": false,
      "t": 62383.333333333234,
      "d": 112.5,
      "v": 56
    },
    {
      "midi": 62,
      "hit": false,
      "t": 62383.333333333234,
      "d": 112.5,
      "v": 80
    },
    {
      "midi": 66,
      "hit": false,
      "t": 62383.333333333234,
      "d": 112.5,
      "v": 70
    },
    {
      "midi": 52,
      "hit": false,
      "t": 63904.16666666657,
      "d": 95.83333333332848,
      "v": 57
    },
    {
      "midi": 61,
      "hit": false,
      "t": 63904.16666666657,
      "d": 129.16666666666424,
      "v": 66
    },
    {
      "midi": 57,
      "hit": false,
      "t": 63920.833333333234,
      "d": 79.16666666666424,
      "v": 57
    },
    {
      "midi": 64,
      "hit": false,
      "t": 63920.833333333234,
      "d": 112.5,
      "v": 64
    },
    {
      "midi": 52,
      "hit": false,
      "t": 65424.9999999999,
      "d": 95.83333333332848,
      "v": 66
    },
    {
      "midi": 57,
      "hit": false,
      "t": 65424.9999999999,
      "d": 112.5,
      "v": 58
    },
    {
      "midi": 64,
      "hit": false,
      "t": 65424.9999999999,
      "d": 141.66666666667152,
      "v": 60
    },
    {
      "midi": 61,
      "hit": false,
      "t": 65441.66666666656,
      "d": 108.33333333333576,
      "v": 62
    },
    {
      "midi": 50,
      "hit": false,
      "t": 66974.9999999999,
      "d": 112.50000000001455,
      "v": 72
    },
    {
      "midi": 62,
      "hit": false,
      "t": 66974.9999999999,
      "d": 112.50000000001455,
      "v": 76
    },
    {
      "midi": 66,
      "hit": false,
      "t": 66974.9999999999,
      "d": 112.50000000001455,
      "v": 71
    },
    {
      "midi": 57,
      "hit": false,
      "t": 66991.66666666657,
      "d": 79.16666666667152,
      "v": 66
    },
    {
      "midi": 62,
      "hit": false,
      "t": 68512.49999999991,
      "d": 141.66666666667152,
      "v": 86
    },
    {
      "midi": 66,
      "hit": false,
      "t": 68524.99999999991,
      "d": 116.66666666667152,
      "v": 70
    },
    {
      "midi": 50,
      "hit": false,
      "t": 68529.16666666658,
      "d": 112.5,
      "v": 78
    },
    {
      "midi": 57,
      "hit": false,
      "t": 68545.83333333326,
      "d": 62.5,
      "v": 59
    },
    {
      "midi": 52,
      "hit": false,
      "t": 70045.83333333326,
      "d": 112.5,
      "v": 60
    },
    {
      "midi": 61,
      "hit": false,
      "t": 70049.99999999993,
      "d": 125,
      "v": 70
    },
    {
      "midi": 64,
      "hit": false,
      "t": 70062.49999999993,
      "d": 112.5,
      "v": 60
    },
    {
      "midi": 57,
      "hit": false,
      "t": 70062.49999999993,
      "d": 129.16666666667152,
      "v": 55
    },
    {
      "midi": 61,
      "hit": false,
      "t": 71599.99999999993,
      "d": 125,
      "v": 66
    },
    {
      "midi": 64,
      "hit": false,
      "t": 71599.99999999993,
      "d": 145.83333333332848,
      "v": 70
    },
    {
      "midi": 52,
      "hit": false,
      "t": 71616.6666666666,
      "d": 95.83333333332848,
      "v": 58
    },
    {
      "midi": 57,
      "hit": false,
      "t": 71616.6666666666,
      "d": 129.16666666665697,
      "v": 68
    },
    {
      "midi": 62,
      "hit": false,
      "t": 73120.83333333326,
      "d": 129.16666666667152,
      "v": 72
    },
    {
      "midi": 66,
      "hit": false,
      "t": 73120.83333333326,
      "d": 129.16666666667152,
      "v": 72
    },
    {
      "midi": 50,
      "hit": false,
      "t": 73137.49999999993,
      "d": 95.83333333332848,
      "v": 71
    },
    {
      "midi": 57,
      "hit": false,
      "t": 73137.49999999993,
      "d": 95.83333333332848,
      "v": 50
    },
    {
      "midi": 62,
      "hit": false,
      "t": 74624.99999999993,
      "d": 158.33333333334303,
      "v": 74
    },
    {
      "midi": 57,
      "hit": false,
      "t": 74641.6666666666,
      "d": 125,
      "v": 64
    },
    {
      "midi": 50,
      "hit": false,
      "t": 74641.6666666666,
      "d": 129.16666666667152,
      "v": 78
    },
    {
      "midi": 66,
      "hit": false,
      "t": 74654.1666666666,
      "d": 112.5,
      "v": 60
    },
    {
      "midi": 52,
      "hit": false,
      "t": 76174.99999999994,
      "d": 112.5,
      "v": 72
    },
    {
      "midi": 61,
      "hit": false,
      "t": 76191.66666666661,
      "d": 112.5,
      "v": 62
    },
    {
      "midi": 57,
      "hit": false,
      "t": 76191.66666666661,
      "d": 129.16666666667152,
      "v": 54
    },
    {
      "midi": 64,
      "hit": false,
      "t": 76191.66666666661,
      "d": 129.16666666667152,
      "v": 68
    },
    {
      "midi": 61,
      "hit": false,
      "t": 77695.83333333328,
      "d": 145.83333333332848,
      "v": 73
    },
    {
      "midi": 52,
      "hit": false,
      "t": 77712.49999999996,
      "d": 95.83333333332848,
      "v": 59
    },
    {
      "midi": 57,
      "hit": false,
      "t": 77712.49999999996,
      "d": 129.16666666665697,
      "v": 71
    },
    {
      "midi": 64,
      "hit": false,
      "t": 77712.49999999996,
      "d": 141.66666666665697,
      "v": 74
    },
    {
      "midi": 62,
      "hit": false,
      "t": 79229.16666666661,
      "d": 129.16666666668607,
      "v": 84
    },
    {
      "midi": 50,
      "hit": false,
      "t": 79245.83333333328,
      "d": 83.33333333334303,
      "v": 88
    },
    {
      "midi": 66,
      "hit": false,
      "t": 79249.99999999996,
      "d": 125.00000000001455,
      "v": 70
    },
    {
      "midi": 57,
      "hit": false,
      "t": 79262.49999999996,
      "d": 79.16666666667152,
      "v": 55
    },
    {
      "midi": 62,
      "hit": false,
      "t": 80799.99999999997,
      "d": 158.33333333334303,
      "v": 84
    },
    {
      "midi": 50,
      "hit": false,
      "t": 80816.66666666664,
      "d": 95.83333333332848,
      "v": 68
    },
    {
      "midi": 66,
      "hit": false,
      "t": 80816.66666666664,
      "d": 125,
      "v": 72
    },
    {
      "midi": 57,
      "hit": false,
      "t": 80829.16666666664,
      "d": 95.83333333332848,
      "v": 66
    },
    {
      "midi": 52,
      "hit": false,
      "t": 82349.99999999999,
      "d": 112.5,
      "v": 74
    },
    {
      "midi": 57,
      "hit": false,
      "t": 82349.99999999999,
      "d": 129.16666666667152,
      "v": 70
    },
    {
      "midi": 64,
      "hit": false,
      "t": 82354.16666666666,
      "d": 125,
      "v": 74
    },
    {
      "midi": 61,
      "hit": false,
      "t": 82366.66666666666,
      "d": 112.5,
      "v": 59
    },
    {
      "midi": 61,
      "hit": false,
      "t": 83854.16666666666,
      "d": 145.83333333334303,
      "v": 60
    },
    {
      "midi": 52,
      "hit": false,
      "t": 83870.83333333333,
      "d": 112.5,
      "v": 59
    },
    {
      "midi": 64,
      "hit": false,
      "t": 83870.83333333333,
      "d": 145.83333333334303,
      "v": 66
    },
    {
      "midi": 57,
      "hit": false,
      "t": 83875,
      "d": 125,
      "v": 62
    },
    {
      "midi": 50,
      "hit": false,
      "t": 85375,
      "d": 129.16666666667152,
      "v": 78
    },
    {
      "midi": 57,
      "hit": false,
      "t": 85391.66666666667,
      "d": 112.5,
      "v": 57
    },
    {
      "midi": 62,
      "hit": false,
      "t": 85391.66666666667,
      "d": 129.16666666667152,
      "v": 74
    },
    {
      "midi": 66,
      "hit": false,
      "t": 85391.66666666667,
      "d": 129.16666666667152,
      "v": 70
    },
    {
      "midi": 62,
      "hit": false,
      "t": 86912.50000000001,
      "d": 175.00000000001455,
      "v": 74
    },
    {
      "midi": 50,
      "hit": false,
      "t": 86925.00000000001,
      "d": 150.00000000001455,
      "v": 72
    },
    {
      "midi": 66,
      "hit": false,
      "t": 86929.16666666669,
      "d": 141.66666666667152,
      "v": 59
    },
    {
      "midi": 57,
      "hit": false,
      "t": 86941.66666666669,
      "d": 129.16666666667152,
      "v": 53
    },
    {
      "midi": 61,
      "hit": false,
      "t": 88462.50000000003,
      "d": 129.16666666667152,
      "v": 60
    },
    {
      "midi": 64,
      "hit": false,
      "t": 88462.50000000003,
      "d": 129.16666666667152,
      "v": 60
    },
    {
      "midi": 57,
      "hit": false,
      "t": 88479.1666666667,
      "d": 112.5,
      "v": 46
    },
    {
      "midi": 52,
      "hit": false,
      "t": 88479.1666666667,
      "d": 129.16666666667152,
      "v": 53
    },
    {
      "midi": 52,
      "hit": false,
      "t": 90000.00000000004,
      "d": 95.83333333334303,
      "v": 64
    },
    {
      "midi": 61,
      "hit": false,
      "t": 90000.00000000004,
      "d": 129.16666666667152,
      "v": 71
    },
    {
      "midi": 57,
      "hit": false,
      "t": 90016.66666666672,
      "d": 112.5,
      "v": 58
    },
    {
      "midi": 64,
      "hit": false,
      "t": 90016.66666666672,
      "d": 112.5,
      "v": 74
    },
    {
      "midi": 62,
      "hit": false,
      "t": 91520.83333333339,
      "d": 129.16666666667152,
      "v": 86
    },
    {
      "midi": 66,
      "hit": false,
      "t": 91520.83333333339,
      "d": 129.16666666667152,
      "v": 72
    },
    {
      "midi": 57,
      "hit": false,
      "t": 91537.50000000006,
      "d": 108.33333333332848,
      "v": 60
    },
    {
      "midi": 50,
      "hit": false,
      "t": 91537.50000000006,
      "d": 125,
      "v": 76
    },
    {
      "midi": 50,
      "hit": false,
      "t": 93070.83333333339,
      "d": 145.83333333334303,
      "v": 72
    },
    {
      "midi": 57,
      "hit": false,
      "t": 93087.50000000006,
      "d": 129.16666666667152,
      "v": 72
    },
    {
      "midi": 62,
      "hit": false,
      "t": 93087.50000000006,
      "d": 129.16666666667152,
      "v": 80
    },
    {
      "midi": 66,
      "hit": false,
      "t": 93087.50000000006,
      "d": 129.16666666667152,
      "v": 57
    },
    {
      "midi": 52,
      "hit": false,
      "t": 94608.3333333334,
      "d": 112.5,
      "v": 73
    },
    {
      "midi": 61,
      "hit": false,
      "t": 94608.3333333334,
      "d": 129.16666666667152,
      "v": 59
    },
    {
      "midi": 57,
      "hit": false,
      "t": 94625.00000000007,
      "d": 125,
      "v": 54
    },
    {
      "midi": 64,
      "hit": false,
      "t": 94625.00000000007,
      "d": 125,
      "v": 70
    },
    {
      "midi": 61,
      "hit": false,
      "t": 96141.66666666674,
      "d": 145.83333333334303,
      "v": 72
    },
    {
      "midi": 52,
      "hit": false,
      "t": 96158.33333333342,
      "d": 95.83333333334303,
      "v": 72
    },
    {
      "midi": 57,
      "hit": false,
      "t": 96158.33333333342,
      "d": 129.16666666667152,
      "v": 66
    },
    {
      "midi": 64,
      "hit": false,
      "t": 96175.00000000009,
      "d": 145.83333333332848,
      "v": 64
    },
    {
      "midi": 50,
      "hit": false,
      "t": 97712.50000000009,
      "d": 129.16666666665697,
      "v": 64
    },
    {
      "midi": 62,
      "hit": false,
      "t": 97712.50000000009,
      "d": 129.16666666665697,
      "v": 71
    },
    {
      "midi": 66,
      "hit": false,
      "t": 97712.50000000009,
      "d": 129.16666666665697,
      "v": 60
    },
    {
      "midi": 57,
      "hit": false,
      "t": 97725.00000000009,
      "d": 83.33333333332848,
      "v": 53
    },
    {
      "midi": 50,
      "hit": false,
      "t": 99216.66666666674,
      "d": 95.83333333334303,
      "v": 80
    },
    {
      "midi": 66,
      "hit": false,
      "t": 99216.66666666674,
      "d": 125.00000000001455,
      "v": 74
    },
    {
      "midi": 57,
      "hit": false,
      "t": 99233.33333333342,
      "d": 112.50000000001455,
      "v": 59
    },
    {
      "midi": 62,
      "hit": false,
      "t": 99233.33333333342,
      "d": 112.50000000001455,
      "v": 80
    },
    {
      "midi": 61,
      "hit": false,
      "t": 100766.66666666676,
      "d": 112.50000000001455,
      "v": 72
    },
    {
      "midi": 64,
      "hit": false,
      "t": 100766.66666666676,
      "d": 129.16666666668607,
      "v": 73
    },
    {
      "midi": 57,
      "hit": false,
      "t": 100770.83333333343,
      "d": 125.00000000001455,
      "v": 60
    },
    {
      "midi": 52,
      "hit": false,
      "t": 100783.33333333343,
      "d": 79.16666666667152,
      "v": 57
    },
    {
      "midi": 61,
      "hit": false,
      "t": 102287.50000000012,
      "d": 129.16666666667152,
      "v": 59
    },
    {
      "midi": 64,
      "hit": false,
      "t": 102287.50000000012,
      "d": 145.83333333334303,
      "v": 60
    },
    {
      "midi": 52,
      "hit": false,
      "t": 102304.16666666679,
      "d": 79.16666666667152,
      "v": 56
    },
    {
      "midi": 57,
      "hit": false,
      "t": 102304.16666666679,
      "d": 112.5,
      "v": 57
    },
    {
      "midi": 66,
      "hit": false,
      "t": 103825.00000000013,
      "d": 125.00000000001455,
      "v": 68
    },
    {
      "midi": 50,
      "hit": false,
      "t": 103841.6666666668,
      "d": 95.83333333334303,
      "v": 73
    },
    {
      "midi": 62,
      "hit": false,
      "t": 103841.6666666668,
      "d": 108.33333333334303,
      "v": 74
    },
    {
      "midi": 57,
      "hit": false,
      "t": 103854.1666666668,
      "d": 79.16666666667152,
      "v": 52
    },
    {
      "midi": 62,
      "hit": false,
      "t": 105375.00000000015,
      "d": 129.16666666667152,
      "v": 84
    },
    {
      "midi": 66,
      "hit": false,
      "t": 105375.00000000015,
      "d": 145.83333333334303,
      "v": 73
    },
    {
      "midi": 57,
      "hit": false,
      "t": 105391.66666666682,
      "d": 95.83333333332848,
      "v": 58
    },
    {
      "midi": 50,
      "hit": false,
      "t": 105391.66666666682,
      "d": 112.5,
      "v": 70
    },
    {
      "midi": 62,
      "hit": false,
      "t": 106895.83333333349,
      "d": 145.83333333334303,
      "v": 73
    },
    {
      "midi": 50,
      "hit": false,
      "t": 106912.50000000016,
      "d": 129.16666666667152,
      "v": 59
    },
    {
      "midi": 66,
      "hit": false,
      "t": 106912.50000000016,
      "d": 141.66666666667152,
      "v": 60
    },
    {
      "midi": 57,
      "hit": false,
      "t": 106929.16666666683,
      "d": 112.5,
      "v": 56
    },
    {
      "midi": 62,
      "hit": false,
      "t": 108433.3333333335,
      "d": 112.50000000001455,
      "v": 72
    },
    {
      "midi": 66,
      "hit": false,
      "t": 108433.3333333335,
      "d": 125.00000000001455,
      "v": 70
    },
    {
      "midi": 50,
      "hit": false,
      "t": 108445.8333333335,
      "d": 83.33333333334303,
      "v": 58
    },
    {
      "midi": 57,
      "hit": false,
      "t": 108450.00000000017,
      "d": 79.16666666667152,
      "v": 57
    },
    {
      "midi": 50,
      "hit": false,
      "t": 109983.33333333352,
      "d": 129.16666666667152,
      "v": 60
    },
    {
      "midi": 66,
      "hit": false,
      "t": 109983.33333333352,
      "d": 129.16666666667152,
      "v": 58
    },
    {
      "midi": 62,
      "hit": false,
      "t": 109983.33333333352,
      "d": 141.66666666667152,
      "v": 70
    },
    {
      "midi": 57,
      "hit": false,
      "t": 110000.00000000019,
      "d": 79.16666666667152,
      "v": 58
    },
    {
      "midi": 62,
      "hit": false,
      "t": 111120.83333333352,
      "d": 129.16666666668607,
      "v": 96
    },
    {
      "midi": 50,
      "hit": false,
      "t": 111137.50000000019,
      "d": 79.16666666667152,
      "v": 97
    },
    {
      "midi": 57,
      "hit": false,
      "t": 111137.50000000019,
      "d": 95.83333333334303,
      "v": 94
    },
    {
      "midi": 66,
      "hit": false,
      "t": 111137.50000000019,
      "d": 95.83333333334303,
      "v": 91
    },
    {
      "midi": 57,
      "hit": false,
      "t": 113041.66666666688,
      "d": 125,
      "v": 59
    },
    {
      "midi": 52,
      "hit": false,
      "t": 113054.16666666688,
      "d": 116.66666666667152,
      "v": 56
    },
    {
      "midi": 61,
      "hit": false,
      "t": 113054.16666666688,
      "d": 116.66666666667152,
      "v": 62
    },
    {
      "midi": 64,
      "hit": false,
      "t": 113058.33333333355,
      "d": 108.33333333332848,
      "v": 62
    },
    {
      "midi": 57,
      "hit": false,
      "t": 114575.00000000022,
      "d": 112.5,
      "v": 57
    },
    {
      "midi": 61,
      "hit": false,
      "t": 114575.00000000022,
      "d": 112.5,
      "v": 64
    },
    {
      "midi": 64,
      "hit": false,
      "t": 114575.00000000022,
      "d": 129.16666666667152,
      "v": 72
    },
    {
      "midi": 52,
      "hit": false,
      "t": 114591.66666666689,
      "d": 62.5,
      "v": 57
    },
    {
      "midi": 64,
      "hit": false,
      "t": 116129.16666666689,
      "d": 125.00000000001455,
      "v": 57
    },
    {
      "midi": 61,
      "hit": false,
      "t": 116141.66666666689,
      "d": 112.50000000001455,
      "v": 60
    },
    {
      "midi": 57,
      "hit": false,
      "t": 116145.83333333356,
      "d": 79.16666666667152,
      "v": 51
    },
    {
      "midi": 52,
      "hit": false,
      "t": 116158.33333333356,
      "d": 112.50000000001455,
      "v": 39
    },
    {
      "midi": 61,
      "hit": false,
      "t": 117662.50000000025,
      "d": 129.16666666667152,
      "v": 68
    },
    {
      "midi": 64,
      "hit": false,
      "t": 117662.50000000025,
      "d": 129.16666666667152,
      "v": 70
    },
    {
      "midi": 57,
      "hit": false,
      "t": 117679.16666666692,
      "d": 112.5,
      "v": 55
    },
    {
      "midi": 52,
      "hit": false,
      "t": 117679.16666666692,
      "d": 116.66666666667152,
      "v": 56
    },
    {
      "midi": 57,
      "hit": false,
      "t": 119200.00000000026,
      "d": 112.5,
      "v": 59
    },
    {
      "midi": 64,
      "hit": false,
      "t": 119200.00000000026,
      "d": 129.16666666667152,
      "v": 56
    },
    {
      "midi": 61,
      "hit": false,
      "t": 119216.66666666693,
      "d": 95.83333333332848,
      "v": 66
    },
    {
      "midi": 52,
      "hit": false,
      "t": 119216.66666666693,
      "d": 112.5,
      "v": 54
    },
    {
      "midi": 61,
      "hit": false,
      "t": 120750.00000000026,
      "d": 100.00000000001455,
      "v": 71
    },
    {
      "midi": 52,
      "hit": false,
      "t": 120766.66666666693,
      "d": 83.33333333334303,
      "v": 72
    },
    {
      "midi": 64,
      "hit": false,
      "t": 120766.66666666693,
      "d": 112.50000000001455,
      "v": 68
    },
    {
      "midi": 57,
      "hit": false,
      "t": 120770.8333333336,
      "d": 79.16666666667152,
      "v": 60
    },
    {
      "midi": 66,
      "hit": false,
      "t": 122254.16666666695,
      "d": 129.16666666667152,
      "v": 71
    },
    {
      "midi": 50,
      "hit": false,
      "t": 122270.83333333362,
      "d": 112.5,
      "v": 71
    },
    {
      "midi": 62,
      "hit": false,
      "t": 122270.83333333362,
      "d": 112.5,
      "v": 80
    },
    {
      "midi": 57,
      "hit": false,
      "t": 122287.50000000029,
      "d": 62.5,
      "v": 56
    },
    {
      "midi": 50,
      "hit": false,
      "t": 123441.66666666695,
      "d": 91.66666666667152,
      "v": 100
    },
    {
      "midi": 62,
      "hit": false,
      "t": 123441.66666666695,
      "d": 108.33333333334303,
      "v": 110
    },
    {
      "midi": 57,
      "hit": false,
      "t": 123650.00000000029,
      "d": 445.83333333334303,
      "v": 102
    },
    {
      "midi": 45,
      "hit": false,
      "t": 123662.50000000029,
      "d": 366.6666666666715,
      "v": 88
    },
    {
      "midi": 59,
      "hit": false,
      "t": 124175.0000000003,
      "d": 241.66666666667152,
      "v": 108
    },
    {
      "midi": 47,
      "hit": false,
      "t": 124191.66666666698,
      "d": 112.5,
      "v": 88
    },
    {
      "midi": 61,
      "hit": false,
      "t": 124558.33333333365,
      "d": 179.16666666665697,
      "v": 106
    },
    {
      "midi": 49,
      "hit": false,
      "t": 124591.66666666698,
      "d": 158.33333333332848,
      "v": 96
    },
    {
      "midi": 50,
      "hit": false,
      "t": 125358.33333333363,
      "d": 83.33333333334303,
      "v": 92
    },
    {
      "midi": 62,
      "hit": false,
      "t": 125358.33333333363,
      "d": 95.83333333334303,
      "v": 91
    },
    {
      "midi": 66,
      "hit": false,
      "t": 125362.5000000003,
      "d": 79.16666666667152,
      "v": 74
    },
    {
      "midi": 57,
      "hit": false,
      "t": 125375.0000000003,
      "d": 66.66666666667152,
      "v": 50
    },
    {
      "midi": 62,
      "hit": false,
      "t": 126879.16666666698,
      "d": 95.83333333334303,
      "v": 92
    },
    {
      "midi": 66,
      "hit": false,
      "t": 126879.16666666698,
      "d": 95.83333333334303,
      "v": 73
    },
    {
      "midi": 50,
      "hit": false,
      "t": 126895.83333333365,
      "d": 50,
      "v": 73
    },
    {
      "midi": 57,
      "hit": false,
      "t": 126895.83333333365,
      "d": 50,
      "v": 70
    },
    {
      "midi": 62,
      "hit": false,
      "t": 128383.33333333365,
      "d": 112.5,
      "v": 78
    },
    {
      "midi": 66,
      "hit": false,
      "t": 128383.33333333365,
      "d": 112.5,
      "v": 72
    },
    {
      "midi": 50,
      "hit": false,
      "t": 128400.00000000032,
      "d": 62.5,
      "v": 72
    },
    {
      "midi": 57,
      "hit": false,
      "t": 128400.00000000032,
      "d": 62.5,
      "v": 58
    },
    {
      "midi": 57,
      "hit": false,
      "t": 129950.00000000032,
      "d": 83.33333333334303,
      "v": 68
    },
    {
      "midi": 62,
      "hit": false,
      "t": 129950.00000000032,
      "d": 100.00000000001455,
      "v": 78
    },
    {
      "midi": 50,
      "hit": false,
      "t": 129966.66666666699,
      "d": 62.5,
      "v": 68
    },
    {
      "midi": 66,
      "hit": false,
      "t": 129966.66666666699,
      "d": 95.83333333334303,
      "v": 74
    },
    {
      "midi": 50,
      "hit": false,
      "t": 131104.166666667,
      "d": 95.83333333331393,
      "v": 94
    },
    {
      "midi": 62,
      "hit": false,
      "t": 131104.166666667,
      "d": 95.83333333331393,
      "v": 91
    },
    {
      "midi": 57,
      "hit": false,
      "t": 131104.166666667,
      "d": 99.9999999999709,
      "v": 80
    },
    {
      "midi": 66,
      "hit": false,
      "t": 131120.83333333366,
      "d": 79.16666666665697,
      "v": 74
    },
    {
      "midi": 61,
      "hit": false,
      "t": 133041.66666666698,
      "d": 79.16666666665697,
      "v": 62
    },
    {
      "midi": 64,
      "hit": false,
      "t": 133041.66666666698,
      "d": 95.83333333331393,
      "v": 73
    },
    {
      "midi": 57,
      "hit": false,
      "t": 133054.16666666698,
      "d": 50,
      "v": 54
    },
    {
      "midi": 52,
      "hit": false,
      "t": 133054.16666666698,
      "d": 79.16666666665697,
      "v": 73
    },
    {
      "midi": 57,
      "hit": false,
      "t": 134545.83333333363,
      "d": 108.33333333331393,
      "v": 60
    },
    {
      "midi": 61,
      "hit": false,
      "t": 134558.33333333363,
      "d": 95.83333333331393,
      "v": 60
    },
    {
      "midi": 64,
      "hit": false,
      "t": 134558.33333333363,
      "d": 112.4999999999709,
      "v": 68
    },
    {
      "midi": 52,
      "hit": false,
      "t": 134562.5000000003,
      "d": 79.16666666665697,
      "v": 59
    },
    {
      "midi": 52,
      "hit": false,
      "t": 136079.16666666695,
      "d": 79.16666666665697,
      "v": 66
    },
    {
      "midi": 57,
      "hit": false,
      "t": 136079.16666666695,
      "d": 95.83333333331393,
      "v": 68
    },
    {
      "midi": 61,
      "hit": false,
      "t": 136079.16666666695,
      "d": 95.83333333331393,
      "v": 57
    },
    {
      "midi": 64,
      "hit": false,
      "t": 136095.8333333336,
      "d": 62.5,
      "v": 54
    },
    {
      "midi": 61,
      "hit": false,
      "t": 137616.66666666692,
      "d": 108.33333333331393,
      "v": 71
    },
    {
      "midi": 64,
      "hit": false,
      "t": 137616.66666666692,
      "d": 112.4999999999709,
      "v": 58
    },
    {
      "midi": 52,
      "hit": false,
      "t": 137633.33333333358,
      "d": 62.5,
      "v": 58
    },
    {
      "midi": 57,
      "hit": false,
      "t": 137633.33333333358,
      "d": 62.5,
      "v": 53
    },
    {
      "midi": 57,
      "hit": false,
      "t": 139166.6666666669,
      "d": 95.83333333331393,
      "v": 66
    },
    {
      "midi": 64,
      "hit": false,
      "t": 139166.6666666669,
      "d": 129.16666666662786,
      "v": 59
    },
    {
      "midi": 52,
      "hit": false,
      "t": 139183.33333333355,
      "d": 79.16666666665697,
      "v": 56
    },
    {
      "midi": 61,
      "hit": false,
      "t": 139183.33333333355,
      "d": 95.83333333331393,
      "v": 71
    },
    {
      "midi": 61,
      "hit": false,
      "t": 140704.16666666686,
      "d": 129.16666666665697,
      "v": 74
    },
    {
      "midi": 64,
      "hit": false,
      "t": 140704.16666666686,
      "d": 129.16666666665697,
      "v": 72
    },
    {
      "midi": 52,
      "hit": false,
      "t": 140720.83333333352,
      "d": 95.83333333334303,
      "v": 52
    },
    {
      "midi": 57,
      "hit": false,
      "t": 140720.83333333352,
      "d": 95.83333333334303,
      "v": 55
    },
    {
      "midi": 62,
      "hit": false,
      "t": 142225.00000000017,
      "d": 108.33333333331393,
      "v": 74
    },
    {
      "midi": 66,
      "hit": false,
      "t": 142225.00000000017,
      "d": 112.4999999999709,
      "v": 74
    },
    {
      "midi": 57,
      "hit": false,
      "t": 142241.66666666683,
      "d": 62.5,
      "v": 62
    },
    {
      "midi": 50,
      "hit": false,
      "t": 142241.66666666683,
      "d": 79.16666666665697,
      "v": 74
    },
    {
      "midi": 62,
      "hit": false,
      "t": 143745.8333333335,
      "d": 108.33333333331393,
      "v": 88
    },
    {
      "midi": 50,
      "hit": false,
      "t": 143758.3333333335,
      "d": 66.66666666665697,
      "v": 86
    },
    {
      "midi": 66,
      "hit": false,
      "t": 143758.3333333335,
      "d": 95.83333333331393,
      "v": 84
    },
    {
      "midi": 57,
      "hit": false,
      "t": 143775.00000000015,
      "d": 50,
      "v": 68
    },
    {
      "midi": 64,
      "hit": false,
      "t": 145329.1666666668,
      "d": 95.83333333331393,
      "v": 57
    },
    {
      "midi": 52,
      "hit": false,
      "t": 145341.6666666668,
      "d": 83.33333333331393,
      "v": 75
    },
    {
      "midi": 57,
      "hit": false,
      "t": 145345.83333333346,
      "d": 79.16666666665697,
      "v": 49
    },
    {
      "midi": 57,
      "hit": false,
      "t": 146850.00000000012,
      "d": 75,
      "v": 71
    },
    {
      "midi": 64,
      "hit": false,
      "t": 146850.00000000012,
      "d": 141.66666666668607,
      "v": 72
    },
    {
      "midi": 52,
      "hit": false,
      "t": 146862.50000000012,
      "d": 83.33333333334303,
      "v": 57
    },
    {
      "midi": 61,
      "hit": false,
      "t": 146862.50000000012,
      "d": 95.83333333334303,
      "v": 72
    },
    {
      "midi": 66,
      "hit": false,
      "t": 148366.6666666668,
      "d": 95.83333333331393,
      "v": 68
    },
    {
      "midi": 62,
      "hit": false,
      "t": 148366.6666666668,
      "d": 112.4999999999709,
      "v": 71
    },
    {
      "midi": 57,
      "hit": false,
      "t": 148383.33333333346,
      "d": 62.5,
      "v": 53
    },
    {
      "midi": 50,
      "hit": false,
      "t": 148383.33333333346,
      "d": 95.83333333331393,
      "v": 59
    },
    {
      "midi": 50,
      "hit": false,
      "t": 149920.83333333343,
      "d": 79.16666666665697,
      "v": 84
    },
    {
      "midi": 66,
      "hit": false,
      "t": 149920.83333333343,
      "d": 112.4999999999709,
      "v": 89
    },
    {
      "midi": 62,
      "hit": false,
      "t": 149933.33333333343,
      "d": 95.83333333331393,
      "v": 84
    },
    {
      "midi": 57,
      "hit": false,
      "t": 149937.5000000001,
      "d": 45.833333333343035,
      "v": 72
    },
    {
      "midi": 57,
      "hit": false,
      "t": 151454.16666666674,
      "d": 66.66666666665697,
      "v": 71
    },
    {
      "midi": 64,
      "hit": false,
      "t": 151454.16666666674,
      "d": 129.16666666665697,
      "v": 80
    },
    {
      "midi": 52,
      "hit": false,
      "t": 151470.8333333334,
      "d": 66.66666666665697,
      "v": 68
    },
    {
      "midi": 61,
      "hit": false,
      "t": 151470.8333333334,
      "d": 79.16666666665697,
      "v": 72
    },
    {
      "midi": 57,
      "hit": false,
      "t": 152958.3333333334,
      "d": 129.16666666665697,
      "v": 76
    },
    {
      "midi": 52,
      "hit": false,
      "t": 152975.00000000006,
      "d": 79.16666666665697,
      "v": 59
    },
    {
      "midi": 61,
      "hit": false,
      "t": 152975.00000000006,
      "d": 112.5,
      "v": 60
    },
    {
      "midi": 64,
      "hit": false,
      "t": 152975.00000000006,
      "d": 145.83333333334303,
      "v": 59
    },
    {
      "midi": 66,
      "hit": false,
      "t": 154512.50000000006,
      "d": 112.4999999999709,
      "v": 74
    },
    {
      "midi": 62,
      "hit": false,
      "t": 154512.50000000006,
      "d": 129.16666666662786,
      "v": 76
    },
    {
      "midi": 50,
      "hit": false,
      "t": 154512.50000000006,
      "d": 141.66666666662786,
      "v": 64
    },
    {
      "midi": 57,
      "hit": false,
      "t": 154529.16666666672,
      "d": 79.16666666665697,
      "v": 46
    },
    {
      "midi": 50,
      "hit": false,
      "t": 156079.1666666667,
      "d": 79.16666666665697,
      "v": 88
    },
    {
      "midi": 62,
      "hit": false,
      "t": 156079.1666666667,
      "d": 112.5,
      "v": 91
    },
    {
      "midi": 57,
      "hit": false,
      "t": 156095.83333333334,
      "d": 62.5,
      "v": 56
    },
    {
      "midi": 66,
      "hit": false,
      "t": 156095.83333333334,
      "d": 95.83333333334303,
      "v": 76
    },
    {
      "midi": 57,
      "hit": false,
      "t": 157600.00000000003,
      "d": 145.83333333331393,
      "v": 56
    },
    {
      "midi": 61,
      "hit": false,
      "t": 157600.00000000003,
      "d": 145.83333333331393,
      "v": 58
    },
    {
      "midi": 52,
      "hit": false,
      "t": 157616.6666666667,
      "d": 141.66666666665697,
      "v": 50
    },
    {
      "midi": 64,
      "hit": false,
      "t": 157633.33333333334,
      "d": 112.5,
      "v": 57
    },
    {
      "midi": 57,
      "hit": false,
      "t": 159137.5,
      "d": 141.66666666665697,
      "v": 71
    },
    {
      "midi": 61,
      "hit": false,
      "t": 159137.5,
      "d": 141.66666666665697,
      "v": 72
    },
    {
      "midi": 52,
      "hit": false,
      "t": 159150,
      "d": 129.16666666665697,
      "v": 55
    },
    {
      "midi": 64,
      "hit": false,
      "t": 159150,
      "d": 145.83333333331393,
      "v": 71
    },
    {
      "midi": 62,
      "hit": false,
      "t": 160654.16666666666,
      "d": 95.83333333331393,
      "v": 93
    },
    {
      "midi": 66,
      "hit": false,
      "t": 160654.16666666666,
      "d": 95.83333333331393,
      "v": 93
    },
    {
      "midi": 50,
      "hit": false,
      "t": 160658.3333333333,
      "d": 79.16666666665697,
      "v": 91
    },
    {
      "midi": 57,
      "hit": false,
      "t": 160670.8333333333,
      "d": 95.83333333331393,
      "v": 55
    },
    {
      "midi": 50,
      "hit": false,
      "t": 162174.99999999997,
      "d": 95.83333333331393,
      "v": 86
    },
    {
      "midi": 66,
      "hit": false,
      "t": 162191.66666666663,
      "d": 112.5,
      "v": 86
    },
    {
      "midi": 62,
      "hit": false,
      "t": 162191.66666666663,
      "d": 129.16666666665697,
      "v": 93
    },
    {
      "midi": 57,
      "hit": false,
      "t": 162208.33333333328,
      "d": 62.5,
      "v": 62
    },
    {
      "midi": 57,
      "hit": false,
      "t": 163712.49999999994,
      "d": 141.66666666665697,
      "v": 84
    },
    {
      "midi": 64,
      "hit": false,
      "t": 163712.49999999994,
      "d": 141.66666666665697,
      "v": 84
    },
    {
      "midi": 61,
      "hit": false,
      "t": 163724.99999999994,
      "d": 133.33333333331393,
      "v": 74
    },
    {
      "midi": 52,
      "hit": false,
      "t": 163729.1666666666,
      "d": 112.5,
      "v": 72
    },
    {
      "midi": 64,
      "hit": false,
      "t": 165245.83333333326,
      "d": 162.4999999999709,
      "v": 88
    },
    {
      "midi": 57,
      "hit": false,
      "t": 165262.4999999999,
      "d": 112.4999999999709,
      "v": 71
    },
    {
      "midi": 61,
      "hit": false,
      "t": 165262.4999999999,
      "d": 112.4999999999709,
      "v": 74
    },
    {
      "midi": 52,
      "hit": false,
      "t": 165279.16666666657,
      "d": 79.16666666665697,
      "v": 76
    },
    {
      "midi": 66,
      "hit": false,
      "t": 166416.66666666654,
      "d": 112.4999999999709,
      "v": 100
    },
    {
      "midi": 66,
      "hit": false,
      "t": 166608.33333333317,
      "d": 95.83333333334303,
      "v": 96
    },
    {
      "midi": 62,
      "hit": false,
      "t": 166799.99999999985,
      "d": 79.16666666665697,
      "v": 100
    },
    {
      "midi": 62,
      "hit": false,
      "t": 166958.33333333317,
      "d": 129.16666666665697,
      "v": 91
    },
    {
      "midi": 57,
      "hit": false,
      "t": 167166.66666666648,
      "d": 95.83333333334303,
      "v": 108
    },
    {
      "midi": 57,
      "hit": false,
      "t": 167358.33333333317,
      "d": 129.16666666665697,
      "v": 86
    },
    {
      "midi": 55,
      "hit": false,
      "t": 167566.66666666648,
      "d": 83.33333333334303,
      "v": 78
    },
    {
      "midi": 55,
      "hit": false,
      "t": 167729.16666666648,
      "d": 79.16666666665697,
      "v": 106
    },
    {
      "midi": 54,
      "hit": false,
      "t": 167937.4999999998,
      "d": 45.833333333343035,
      "v": 100
    }
  ]
}