{
  "jsonPath": "Soundtracks/Video Game Music/Terranigma/terranigma-lhasa.json",
  "path": "Soundtracks\\Video Game Music\\Terranigma\\Terranigma_Lhasa.mid",
  "name": "Terranigma_Lhasa",
  "difficulty": "Advanced",
  "bpm": 96,
  "notes": [
    {
      "midi": 67,
      "hit": false,
      "t": 0,
      "d": 937.5,
      "v": 100
    },
    {
      "midi": 48,
      "hit": false,
      "t": 0,
      "d": 625,
      "v": 64
    },
    {
      "midi": 55,
      "hit": false,
      "t": 0,
      "d": 625,
      "v": 64
    },
    {
      "midi": 48,
      "hit": false,
      "t": 625,
      "d": 312.5,
      "v": 64
    },
    {
      "midi": 55,
      "hit": false,
      "t": 625,
      "d": 312.5,
      "v": 64
    },
    {
      "midi": 70,
      "hit": false,
      "t": 937.5,
      "d": 312.5,
      "v": 100
    },
    {
      "midi": 48,
      "hit": false,
      "t": 937.5,
      "d": 312.5,
      "v": 64
    },
    {
      "midi": 55,
      "hit": false,
      "t": 937.5,
      "d": 312.5,
      "v": 64
    },
    {
      "midi": 72,
      "hit": false,
      "t": 1250,
      "d": 625,
      "v": 64
    },
    {
      "midi": 48,
      "hit": false,
      "t": 1250,
      "d": 625,
      "v": 64
    },
    {
      "midi": 55,
      "hit": false,
      "t": 1250,
      "d": 625,
      "v": 64
    },
    {
      "midi": 74,
      "hit": false,
      "t": 1796.875,
      "d": 78.125,
      "v": 64
    },
    {
      "midi": 75,
      "hit": false,
      "t": 1875,
      "d": 312.5,
      "v": 100
    },
    {
      "midi": 48,
      "hit": false,
      "t": 1875,
      "d": 312.5,
      "v": 64
    },
    {
      "midi": 55,
      "hit": false,
      "t": 1875,
      "d": 312.5,
      "v": 64
    },
    {
      "midi": 72,
      "hit": false,
      "t": 2187.5,
      "d": 312.5,
      "v": 100
    },
    {
      "midi": 48,
      "hit": false,
      "t": 2187.5,
      "d": 312.5,
      "v": 64
    },
    {
      "midi": 55,
      "hit": false,
      "t": 2187.5,
      "d": 312.5,
      "v": 64
    },
    {
      "midi": 48,
      "hit": false,
      "t": 2500,
      "d": 625,
      "v": 64
    },
    {
      "midi": 55,
      "hit": false,
      "t": 2500,
      "d": 625,
      "v": 64
    },
    {
      "midi": 72,
      "hit": false,
      "t": 2968.75,
      "d": 78.125,
      "v": 64
    },
    {
      "midi": 70,
      "hit": false,
      "t": 3046.875,
      "d": 78.125,
      "v": 64
    },
    {
      "midi": 67,
      "hit": false,
      "t": 3125,
      "d": 312.5,
      "v": 64
    },
    {
      "midi": 48,
      "hit": false,
      "t": 3125,
      "d": 312.5,
      "v": 64
    },
    {
      "midi": 55,
      "hit": false,
      "t": 3125,
      "d": 312.5,
      "v": 64
    },
    {
      "midi": 65,
      "hit": false,
      "t": 3437.5,
      "d": 312.5,
      "v": 64
    },
    {
      "midi": 48,
      "hit": false,
      "t": 3437.5,
      "d": 312.5,
      "v": 64
    },
    {
      "midi": 55,
      "hit": false,
      "t": 3437.5,
      "d": 312.5,
      "v": 64
    },
    {
      "midi": 67,
      "hit": false,
      "t": 3750,
      "d": 625,
      "v": 64
    },
    {
      "midi": 48,
      "hit": false,
      "t": 3750,
      "d": 625,
      "v": 64
    },
    {
      "midi": 55,
      "hit": false,
      "t": 3750,
      "d": 625,
      "v": 64
    },
    {
      "midi": 70,
      "hit": false,
      "t": 4375,
      "d": 312.5,
      "v": 64
    },
    {
      "midi": 48,
      "hit": false,
      "t": 4375,
      "d": 312.5,
      "v": 64
    },
    {
      "midi": 55,
      "hit": false,
      "t": 4375,
      "d": 312.5,
      "v": 64
    },
    {
      "midi": 67,
      "hit": false,
      "t": 4687.5,
      "d": 312.5,
      "v": 64
    },
    {
      "midi": 48,
      "hit": false,
      "t": 4687.5,
      "d": 312.5,
      "v": 64
    },
    {
      "midi": 55,
      "hit": false,
      "t": 4687.5,
      "d": 312.5,
      "v": 64
    },
    {
      "midi": 65,
      "hit": false,
      "t": 5000,
      "d": 625,
      "v": 100
    },
    {
      "midi": 53,
      "hit": false,
      "t": 5000,
      "d": 625,
      "v": 64
    },
    {
      "midi": 60,
      "hit": false,
      "t": 5000,
      "d": 625,
      "v": 64
    },
    {
      "midi": 63,
      "hit": false,
      "t": 5625,
      "d": 312.5,
      "v": 100
    },
    {
      "midi": 53,
      "hit": false,
      "t": 5625,
      "d": 312.5,
      "v": 64
    },
    {
      "midi": 60,
      "hit": false,
      "t": 5625,
      "d": 312.5,
      "v": 64
    },
    {
      "midi": 60,
      "hit": false,
      "t": 5937.5,
      "d": 312.5,
      "v": 100
    },
    {
      "midi": 53,
      "hit": false,
      "t": 5937.5,
      "d": 312.5,
      "v": 64
    },
    {
      "midi": 60,
      "hit": false,
      "t": 5937.5,
      "d": 312.5,
      "v": 64
    },
    {
      "midi": 63,
      "hit": false,
      "t": 6250,
      "d": 625,
      "v": 100
    },
    {
      "midi": 53,
      "hit": false,
      "t": 6250,
      "d": 625,
      "v": 64
    },
    {
      "midi": 60,
      "hit": false,
      "t": 6250,
      "d": 625,
      "v": 64
    },
    {
      "midi": 65,
      "hit": false,
      "t": 6875,
      "d": 312.5,
      "v": 100
    },
    {
      "midi": 53,
      "hit": false,
      "t": 6875,
      "d": 312.5,
      "v": 64
    },
    {
      "midi": 60,
      "hit": false,
      "t": 6875,
      "d": 312.5,
      "v": 64
    },
    {
      "midi": 63,
      "hit": false,
      "t": 7187.5,
      "d": 312.5,
      "v": 100
    },
    {
      "midi": 53,
      "hit": false,
      "t": 7187.5,
      "d": 312.5,
      "v": 64
    },
    {
      "midi": 60,
      "hit": false,
      "t": 7187.5,
      "d": 312.5,
      "v": 64
    },
    {
      "midi": 60,
      "hit": false,
      "t": 7500,
      "d": 625,
      "v": 100
    },
    {
      "midi": 48,
      "hit": false,
      "t": 7500,
      "d": 625,
      "v": 64
    },
    {
      "midi": 55,
      "hit": false,
      "t": 7500,
      "d": 625,
      "v": 64
    },
    {
      "midi": 63,
      "hit": false,
      "t": 8125,
      "d": 625,
      "v": 100
    },
    {
      "midi": 48,
      "hit": false,
      "t": 8125,
      "d": 312.5,
      "v": 64
    },
    {
      "midi": 55,
      "hit": false,
      "t": 8125,
      "d": 312.5,
      "v": 64
    },
    {
      "midi": 48,
      "hit": false,
      "t": 8437.5,
      "d": 312.5,
      "v": 64
    },
    {
      "midi": 55,
      "hit": false,
      "t": 8437.5,
      "d": 312.5,
      "v": 64
    },
    {
      "midi": 60,
      "hit": false,
      "t": 8750,
      "d": 625,
      "v": 100
    },
    {
      "midi": 48,
      "hit": false,
      "t": 8750,
      "d": 625,
      "v": 64
    },
    {
      "midi": 55,
      "hit": false,
      "t": 8750,
      "d": 625,
      "v": 64
    },
    {
      "midi": 48,
      "hit": false,
      "t": 9375,
      "d": 312.5,
      "v": 64
    },
    {
      "midi": 55,
      "hit": false,
      "t": 9375,
      "d": 312.5,
      "v": 64
    },
    {
      "midi": 48,
      "hit": false,
      "t": 9687.5,
      "d": 312.5,
      "v": 64
    },
    {
      "midi": 55,
      "hit": false,
      "t": 9687.5,
      "d": 312.5,
      "v": 64
    },
    {
      "midi": 67,
      "hit": false,
      "t": 10000,
      "d": 937.5,
      "v": 100
    },
    {
      "midi": 48,
      "hit": false,
      "t": 10000,
      "d": 625,
      "v": 64
    },
    {
      "midi": 55,
      "hit": false,
      "t": 10000,
      "d": 625,
      "v": 64
    },
    {
      "midi": 48,
      "hit": false,
      "t": 10625,
      "d": 312.5,
      "v": 64
    },
    {
      "midi": 55,
      "hit": false,
      "t": 10625,
      "d": 312.5,
      "v": 64
    },
    {
      "midi": 70,
      "hit": false,
      "t": 10937.5,
      "d": 312.5,
      "v": 100
    },
    {
      "midi": 48,
      "hit": false,
      "t": 10937.5,
      "d": 312.5,
      "v": 64
    },
    {
      "midi": 55,
      "hit": false,
      "t": 10937.5,
      "d": 312.5,
      "v": 64
    },
    {
      "midi": 72,
      "hit": false,
      "t": 11250,
      "d": 625,
      "v": 64
    },
    {
      "midi": 48,
      "hit": false,
      "t": 11250,
      "d": 625,
      "v": 64
    },
    {
      "midi": 55,
      "hit": false,
      "t": 11250,
      "d": 625,
      "v": 64
    },
    {
      "midi": 74,
      "hit": false,
      "t": 11796.875,
      "d": 78.125,
      "v": 64
    },
    {
      "midi": 75,
      "hit": false,
      "t": 11875,
      "d": 312.5,
      "v": 100
    },
    {
      "midi": 48,
      "hit": false,
      "t": 11875,
      "d": 312.5,
      "v": 64
    },
    {
      "midi": 55,
      "hit": false,
      "t": 11875,
      "d": 312.5,
      "v": 64
    },
    {
      "midi": 77,
      "hit": false,
      "t": 12187.5,
      "d": 312.5,
      "v": 100
    },
    {
      "midi": 48,
      "hit": false,
      "t": 12187.5,
      "d": 312.5,
      "v": 64
    },
    {
      "midi": 55,
      "hit": false,
      "t": 12187.5,
      "d": 312.5,
      "v": 64
    },
    {
      "midi": 48,
      "hit": false,
      "t": 12500,
      "d": 625,
      "v": 64
    },
    {
      "midi": 55,
      "hit": false,
      "t": 12500,
      "d": 625,
      "v": 64
    },
    {
      "midi": 77,
      "hit": false,
      "t": 12968.75,
      "d": 78.125,
      "v": 64
    },
    {
      "midi": 75,
      "hit": false,
      "t": 13046.875,
      "d": 78.125,
      "v": 100
    },
    {
      "midi": 72,
      "hit": false,
      "t": 13125,
      "d": 312.5,
      "v": 64
    },
    {
      "midi": 48,
      "hit": false,
      "t": 13125,
      "d": 312.5,
      "v": 64
    },
    {
      "midi": 55,
      "hit": false,
      "t": 13125,
      "d": 312.5,
      "v": 64
    },
    {
      "midi": 70,
      "hit": false,
      "t": 13437.5,
      "d": 312.5,
      "v": 64
    },
    {
      "midi": 48,
      "hit": false,
      "t": 13437.5,
      "d": 312.5,
      "v": 64
    },
    {
      "midi": 55,
      "hit": false,
      "t": 13437.5,
      "d": 312.5,
      "v": 64
    },
    {
      "midi": 72,
      "hit": false,
      "t": 13750,
      "d": 625,
      "v": 64
    },
    {
      "midi": 48,
      "hit": false,
      "t": 13750,
      "d": 625,
      "v": 64
    },
    {
      "midi": 55,
      "hit": false,
      "t": 13750,
      "d": 625,
      "v": 64
    },
    {
      "midi": 70,
      "hit": false,
      "t": 14375,
      "d": 312.5,
      "v": 64
    },
    {
      "midi": 48,
      "hit": false,
      "t": 14375,
      "d": 312.5,
      "v": 64
    },
    {
      "midi": 55,
      "hit": false,
      "t": 14375,
      "d": 312.5,
      "v": 64
    },
    {
      "midi": 67,
      "hit": false,
      "t": 14687.5,
      "d": 312.5,
      "v": 64
    },
    {
      "midi": 48,
      "hit": false,
      "t": 14687.5,
      "d": 312.5,
      "v": 64
    },
    {
      "midi": 55,
      "hit": false,
      "t": 14687.5,
      "d": 312.5,
      "v": 64
    },
    {
      "midi": 65,
      "hit": false,
      "t": 15000,
      "d": 625,
      "v": 100
    },
    {
      "midi": 53,
      "hit": false,
      "t": 15000,
      "d": 625,
      "v": 64
    },
    {
      "midi": 60,
      "hit": false,
      "t": 15000,
      "d": 625,
      "v": 64
    },
    {
      "midi": 63,
      "hit": false,
      "t": 15625,
      "d": 312.5,
      "v": 100
    },
    {
      "midi": 53,
      "hit": false,
      "t": 15625,
      "d": 312.5,
      "v": 64
    },
    {
      "midi": 60,
      "hit": false,
      "t": 15625,
      "d": 312.5,
      "v": 64
    },
    {
      "midi": 65,
      "hit": false,
      "t": 15937.5,
      "d": 312.5,
      "v": 100
    },
    {
      "midi": 53,
      "hit": false,
      "t": 15937.5,
      "d": 312.5,
      "v": 64
    },
    {
      "midi": 60,
      "hit": false,
      "t": 15937.5,
      "d": 312.5,
      "v": 64
    },
    {
      "midi": 67,
      "hit": false,
      "t": 16250,
      "d": 625,
      "v": 100
    },
    {
      "midi": 53,
      "hit": false,
      "t": 16250,
      "d": 625,
      "v": 64
    },
    {
      "midi": 60,
      "hit": false,
      "t": 16250,
      "d": 625,
      "v": 64
    },
    {
      "midi": 70,
      "hit": false,
      "t": 16875,
      "d": 312.5,
      "v": 100
    },
    {
      "midi": 53,
      "hit": false,
      "t": 16875,
      "d": 312.5,
      "v": 64
    },
    {
      "midi": 60,
      "hit": false,
      "t": 16875,
      "d": 312.5,
      "v": 64
    },
    {
      "midi": 67,
      "hit": false,
      "t": 17187.5,
      "d": 312.5,
      "v": 100
    },
    {
      "midi": 53,
      "hit": false,
      "t": 17187.5,
      "d": 312.5,
      "v": 64
    },
    {
      "midi": 60,
      "hit": false,
      "t": 17187.5,
      "d": 312.5,
      "v": 64
    },
    {
      "midi": 65,
      "hit": false,
      "t": 17500,
      "d": 312.5,
      "v": 100
    },
    {
      "midi": 48,
      "hit": false,
      "t": 17500,
      "d": 625,
      "v": 64
    },
    {
      "midi": 55,
      "hit": false,
      "t": 17500,
      "d": 625,
      "v": 64
    },
    {
      "midi": 63,
      "hit": false,
      "t": 17812.5,
      "d": 312.5,
      "v": 100
    },
    {
      "midi": 60,
      "hit": false,
      "t": 18125,
      "d": 312.5,
      "v": 100
    },
    {
      "midi": 48,
      "hit": false,
      "t": 18125,
      "d": 312.5,
      "v": 64
    },
    {
      "midi": 55,
      "hit": false,
      "t": 18125,
      "d": 312.5,
      "v": 64
    },
    {
      "midi": 58,
      "hit": false,
      "t": 18437.5,
      "d": 312.5,
      "v": 100
    },
    {
      "midi": 48,
      "hit": false,
      "t": 18437.5,
      "d": 312.5,
      "v": 64
    },
    {
      "midi": 55,
      "hit": false,
      "t": 18437.5,
      "d": 312.5,
      "v": 64
    },
    {
      "midi": 60,
      "hit": false,
      "t": 18750,
      "d": 625,
      "v": 100
    },
    {
      "midi": 48,
      "hit": false,
      "t": 18750,
      "d": 625,
      "v": 64
    },
    {
      "midi": 55,
      "hit": false,
      "t": 18750,
      "d": 625,
      "v": 64
    },
    {
      "midi": 48,
      "hit": false,
      "t": 19375,
      "d": 312.5,
      "v": 64
    },
    {
      "midi": 55,
      "hit": false,
      "t": 19375,
      "d": 312.5,
      "v": 64
    },
    {
      "midi": 48,
      "hit": false,
      "t": 19687.5,
      "d": 312.5,
      "v": 64
    },
    {
      "midi": 55,
      "hit": false,
      "t": 19687.5,
      "d": 312.5,
      "v": 64
    },
    {
      "midi": 67,
      "hit": false,
      "t": 20000,
      "d": 937.5,
      "v": 100
    },
    {
      "midi": 48,
      "hit": false,
      "t": 20000,
      "d": 625,
      "v": 64
    },
    {
      "midi": 55,
      "hit": false,
      "t": 20000,
      "d": 625,
      "v": 64
    },
    {
      "midi": 48,
      "hit": false,
      "t": 20625,
      "d": 312.5,
      "v": 64
    },
    {
      "midi": 55,
      "hit": false,
      "t": 20625,
      "d": 312.5,
      "v": 64
    },
    {
      "midi": 70,
      "hit": false,
      "t": 20937.5,
      "d": 312.5,
      "v": 100
    },
    {
      "midi": 48,
      "hit": false,
      "t": 20937.5,
      "d": 312.5,
      "v": 64
    },
    {
      "midi": 55,
      "hit": false,
      "t": 20937.5,
      "d": 312.5,
      "v": 64
    },
    {
      "midi": 72,
      "hit": false,
      "t": 21250,
      "d": 625,
      "v": 64
    },
    {
      "midi": 48,
      "hit": false,
      "t": 21250,
      "d": 625,
      "v": 64
    },
    {
      "midi": 55,
      "hit": false,
      "t": 21250,
      "d": 625,
      "v": 64
    },
    {
      "midi": 74,
      "hit": false,
      "t": 21796.875,
      "d": 78.125,
      "v": 64
    },
    {
      "midi": 75,
      "hit": false,
      "t": 21875,
      "d": 312.5,
      "v": 100
    },
    {
      "midi": 48,
      "hit": false,
      "t": 21875,
      "d": 312.5,
      "v": 64
    },
    {
      "midi": 55,
      "hit": false,
      "t": 21875,
      "d": 312.5,
      "v": 64
    },
    {
      "midi": 72,
      "hit": false,
      "t": 22187.5,
      "d": 312.5,
      "v": 100
    },
    {
      "midi": 48,
      "hit": false,
      "t": 22187.5,
      "d": 312.5,
      "v": 64
    },
    {
      "midi": 55,
      "hit": false,
      "t": 22187.5,
      "d": 312.5,
      "v": 64
    },
    {
      "midi": 48,
      "hit": false,
      "t": 22500,
      "d": 625,
      "v": 64
    },
    {
      "midi": 55,
      "hit": false,
      "t": 22500,
      "d": 625,
      "v": 64
    },
    {
      "midi": 72,
      "hit": false,
      "t": 22968.75,
      "d": 78.125,
      "v": 64
    },
    {
      "midi": 70,
      "hit": false,
      "t": 23046.875,
      "d": 78.125,
      "v": 64
    },
    {
      "midi": 67,
      "hit": false,
      "t": 23125,
      "d": 312.5,
      "v": 64
    },
    {
      "midi": 48,
      "hit": false,
      "t": 23125,
      "d": 312.5,
      "v": 64
    },
    {
      "midi": 55,
      "hit": false,
      "t": 23125,
      "d": 312.5,
      "v": 64
    },
    {
      "midi": 65,
      "hit": false,
      "t": 23437.5,
      "d": 312.5,
      "v": 64
    },
    {
      "midi": 48,
      "hit": false,
      "t": 23437.5,
      "d": 312.5,
      "v": 64
    },
    {
      "midi": 55,
      "hit": false,
      "t": 23437.5,
      "d": 312.5,
      "v": 64
    },
    {
      "midi": 67,
      "hit": false,
      "t": 23750,
      "d": 625,
      "v": 64
    },
    {
      "midi": 48,
      "hit": false,
      "t": 23750,
      "d": 625,
      "v": 64
    },
    {
      "midi": 55,
      "hit": false,
      "t": 23750,
      "d": 625,
      "v": 64
    },
    {
      "midi": 70,
      "hit": false,
      "t": 24375,
      "d": 312.5,
      "v": 64
    },
    {
      "midi": 48,
      "hit": false,
      "t": 24375,
      "d": 312.5,
      "v": 64
    },
    {
      "midi": 55,
      "hit": false,
      "t": 24375,
      "d": 312.5,
      "v": 64
    },
    {
      "midi": 67,
      "hit": false,
      "t": 24687.5,
      "d": 312.5,
      "v": 64
    },
    {
      "midi": 48,
      "hit": false,
      "t": 24687.5,
      "d": 312.5,
      "v": 64
    },
    {
      "midi": 55,
      "hit": false,
      "t": 24687.5,
      "d": 312.5,
      "v": 64
    },
    {
      "midi": 65,
      "hit": false,
      "t": 25000,
      "d": 625,
      "v": 100
    },
    {
      "midi": 53,
      "hit": false,
      "t": 25000,
      "d": 625,
      "v": 64
    },
    {
      "midi": 60,
      "hit": false,
      "t": 25000,
      "d": 625,
      "v": 64
    },
    {
      "midi": 63,
      "hit": false,
      "t": 25625,
      "d": 312.5,
      "v": 100
    },
    {
      "midi": 53,
      "hit": false,
      "t": 25625,
      "d": 312.5,
      "v": 64
    },
    {
      "midi": 60,
      "hit": false,
      "t": 25625,
      "d": 312.5,
      "v": 64
    },
    {
      "midi": 60,
      "hit": false,
      "t": 25937.5,
      "d": 312.5,
      "v": 100
    },
    {
      "midi": 53,
      "hit": false,
      "t": 25937.5,
      "d": 312.5,
      "v": 64
    },
    {
      "midi": 60,
      "hit": false,
      "t": 25937.5,
      "d": 312.5,
      "v": 64
    },
    {
      "midi": 63,
      "hit": false,
      "t": 26250,
      "d": 625,
      "v": 100
    },
    {
      "midi": 53,
      "hit": false,
      "t": 26250,
      "d": 625,
      "v": 64
    },
    {
      "midi": 60,
      "hit": false,
      "t": 26250,
      "d": 625,
      "v": 64
    },
    {
      "midi": 65,
      "hit": false,
      "t": 26875,
      "d": 312.5,
      "v": 100
    },
    {
      "midi": 53,
      "hit": false,
      "t": 26875,
      "d": 312.5,
      "v": 64
    },
    {
      "midi": 60,
      "hit": false,
      "t": 26875,
      "d": 312.5,
      "v": 64
    },
    {
      "midi": 63,
      "hit": false,
      "t": 27187.5,
      "d": 312.5,
      "v": 100
    },
    {
      "midi": 53,
      "hit": false,
      "t": 27187.5,
      "d": 312.5,
      "v": 64
    },
    {
      "midi": 60,
      "hit": false,
      "t": 27187.5,
      "d": 312.5,
      "v": 64
    },
    {
      "midi": 60,
      "hit": false,
      "t": 27500,
      "d": 625,
      "v": 100
    },
    {
      "midi": 48,
      "hit": false,
      "t": 27500,
      "d": 625,
      "v": 64
    },
    {
      "midi": 55,
      "hit": false,
      "t": 27500,
      "d": 625,
      "v": 64
    },
    {
      "midi": 63,
      "hit": false,
      "t": 28125,
      "d": 625,
      "v": 100
    },
    {
      "midi": 48,
      "hit": false,
      "t": 28125,
      "d": 312.5,
      "v": 64
    },
    {
      "midi": 55,
      "hit": false,
      "t": 28125,
      "d": 312.5,
      "v": 64
    },
    {
      "midi": 48,
      "hit": false,
      "t": 28437.5,
      "d": 312.5,
      "v": 64
    },
    {
      "midi": 55,
      "hit": false,
      "t": 28437.5,
      "d": 312.5,
      "v": 64
    },
    {
      "midi": 60,
      "hit": false,
      "t": 28750,
      "d": 625,
      "v": 100
    },
    {
      "midi": 48,
      "hit": false,
      "t": 28750,
      "d": 625,
      "v": 64
    },
    {
      "midi": 55,
      "hit": false,
      "t": 28750,
      "d": 625,
      "v": 64
    },
    {
      "midi": 48,
      "hit": false,
      "t": 29375,
      "d": 312.5,
      "v": 64
    },
    {
      "midi": 55,
      "hit": false,
      "t": 29375,
      "d": 312.5,
      "v": 64
    },
    {
      "midi": 48,
      "hit": false,
      "t": 29687.5,
      "d": 312.5,
      "v": 64
    },
    {
      "midi": 55,
      "hit": false,
      "t": 29687.5,
      "d": 312.5,
      "v": 64
    },
    {
      "midi": 67,
      "hit": false,
      "t": 30000,
      "d": 937.5,
      "v": 100
    },
    {
      "midi": 48,
      "hit": false,
      "t": 30000,
      "d": 625,
      "v": 64
    },
    {
      "midi": 55,
      "hit": false,
      "t": 30000,
      "d": 625,
      "v": 64
    },
    {
      "midi": 48,
      "hit": false,
      "t": 30625,
      "d": 312.5,
      "v": 64
    },
    {
      "midi": 55,
      "hit": false,
      "t": 30625,
      "d": 312.5,
      "v": 64
    },
    {
      "midi": 70,
      "hit": false,
      "t": 30937.5,
      "d": 312.5,
      "v": 100
    },
    {
      "midi": 48,
      "hit": false,
      "t": 30937.5,
      "d": 312.5,
      "v": 64
    },
    {
      "midi": 55,
      "hit": false,
      "t": 30937.5,
      "d": 312.5,
      "v": 64
    },
    {
      "midi": 72,
      "hit": false,
      "t": 31250,
      "d": 625,
      "v": 64
    },
    {
      "midi": 48,
      "hit": false,
      "t": 31250,
      "d": 625,
      "v": 64
    },
    {
      "midi": 55,
      "hit": false,
      "t": 31250,
      "d": 625,
      "v": 64
    },
    {
      "midi": 74,
      "hit": false,
      "t": 31796.875,
      "d": 78.125,
      "v": 64
    },
    {
      "midi": 75,
      "hit": false,
      "t": 31875,
      "d": 312.5,
      "v": 100
    },
    {
      "midi": 48,
      "hit": false,
      "t": 31875,
      "d": 312.5,
      "v": 64
    },
    {
      "midi": 55,
      "hit": false,
      "t": 31875,
      "d": 312.5,
      "v": 64
    },
    {
      "midi": 77,
      "hit": false,
      "t": 32187.5,
      "d": 312.5,
      "v": 100
    },
    {
      "midi": 48,
      "hit": false,
      "t": 32187.5,
      "d": 312.5,
      "v": 64
    },
    {
      "midi": 55,
      "hit": false,
      "t": 32187.5,
      "d": 312.5,
      "v": 64
    },
    {
      "midi": 48,
      "hit": false,
      "t": 32500,
      "d": 625,
      "v": 64
    },
    {
      "midi": 55,
      "hit": false,
      "t": 32500,
      "d": 625,
      "v": 64
    },
    {
      "midi": 77,
      "hit": false,
      "t": 32968.75,
      "d": 78.125,
      "v": 64
    },
    {
      "midi": 75,
      "hit": false,
      "t": 33046.875,
      "d": 78.125,
      "v": 100
    },
    {
      "midi": 72,
      "hit": false,
      "t": 33125,
      "d": 312.5,
      "v": 64
    },
    {
      "midi": 48,
      "hit": false,
      "t": 33125,
      "d": 312.5,
      "v": 64
    },
    {
      "midi": 55,
      "hit": false,
      "t": 33125,
      "d": 312.5,
      "v": 64
    },
    {
      "midi": 70,
      "hit": false,
      "t": 33437.5,
      "d": 312.5,
      "v": 64
    },
    {
      "midi": 48,
      "hit": false,
      "t": 33437.5,
      "d": 312.5,
      "v": 64
    },
    {
      "midi": 55,
      "hit": false,
      "t": 33437.5,
      "d": 312.5,
      "v": 64
    },
    {
      "midi": 72,
      "hit": false,
      "t": 33750,
      "d": 625,
      "v": 64
    },
    {
      "midi": 48,
      "hit": false,
      "t": 33750,
      "d": 625,
      "v": 64
    },
    {
      "midi": 55,
      "hit": false,
      "t": 33750,
      "d": 625,
      "v": 64
    },
    {
      "midi": 70,
      "hit": false,
      "t": 34375,
      "d": 312.5,
      "v": 64
    },
    {
      "midi": 48,
      "hit": false,
      "t": 34375,
      "d": 312.5,
      "v": 64
    },
    {
      "midi": 55,
      "hit": false,
      "t": 34375,
      "d": 312.5,
      "v": 64
    },
    {
      "midi": 67,
      "hit": false,
      "t": 34687.5,
      "d": 312.5,
      "v": 64
    },
    {
      "midi": 48,
      "hit": false,
      "t": 34687.5,
      "d": 312.5,
      "v": 64
    },
    {
      "midi": 55,
      "hit": false,
      "t": 34687.5,
      "d": 312.5,
      "v": 64
    },
    {
      "midi": 65,
      "hit": false,
      "t": 35000,
      "d": 625,
      "v": 100
    },
    {
      "midi": 53,
      "hit": false,
      "t": 35000,
      "d": 625,
      "v": 64
    },
    {
      "midi": 60,
      "hit": false,
      "t": 35000,
      "d": 625,
      "v": 64
    },
    {
      "midi": 63,
      "hit": false,
      "t": 35625,
      "d": 312.5,
      "v": 100
    },
    {
      "midi": 53,
      "hit": false,
      "t": 35625,
      "d": 312.5,
      "v": 64
    },
    {
      "midi": 60,
      "hit": false,
      "t": 35625,
      "d": 312.5,
      "v": 64
    },
    {
      "midi": 65,
      "hit": false,
      "t": 35937.5,
      "d": 312.5,
      "v": 100
    },
    {
      "midi": 53,
      "hit": false,
      "t": 35937.5,
      "d": 312.5,
      "v": 64
    },
    {
      "midi": 60,
      "hit": false,
      "t": 35937.5,
      "d": 312.5,
      "v": 64
    },
    {
      "midi": 67,
      "hit": false,
      "t": 36250,
      "d": 625,
      "v": 100
    },
    {
      "midi": 53,
      "hit": false,
      "t": 36250,
      "d": 625,
      "v": 64
    },
    {
      "midi": 60,
      "hit": false,
      "t": 36250,
      "d": 625,
      "v": 64
    },
    {
      "midi": 70,
      "hit": false,
      "t": 36875,
      "d": 312.5,
      "v": 100
    },
    {
      "midi": 53,
      "hit": false,
      "t": 36875,
      "d": 312.5,
      "v": 64
    },
    {
      "midi": 60,
      "hit": false,
      "t": 36875,
      "d": 312.5,
      "v": 64
    },
    {
      "midi": 67,
      "hit": false,
      "t": 37187.5,
      "d": 312.5,
      "v": 100
    },
    {
      "midi": 53,
      "hit": false,
      "t": 37187.5,
      "d": 312.5,
      "v": 64
    },
    {
      "midi": 60,
      "hit": false,
      "t": 37187.5,
      "d": 312.5,
      "v": 64
    },
    {
      "midi": 65,
      "hit": false,
      "t": 37500,
      "d": 312.5,
      "v": 100
    },
    {
      "midi": 48,
      "hit": false,
      "t": 37500,
      "d": 625,
      "v": 64
    },
    {
      "midi": 55,
      "hit": false,
      "t": 37500,
      "d": 625,
      "v": 64
    },
    {
      "midi": 63,
      "hit": false,
      "t": 37812.5,
      "d": 312.5,
      "v": 100
    },
    {
      "midi": 60,
      "hit": false,
      "t": 38125,
      "d": 312.5,
      "v": 100
    },
    {
      "midi": 48,
      "hit": false,
      "t": 38125,
      "d": 312.5,
      "v": 64
    },
    {
      "midi": 55,
      "hit": false,
      "t": 38125,
      "d": 312.5,
      "v": 64
    },
    {
      "midi": 58,
      "hit": false,
      "t": 38437.5,
      "d": 312.5,
      "v": 100
    },
    {
      "midi": 48,
      "hit": false,
      "t": 38437.5,
      "d": 312.5,
      "v": 64
    },
    {
      "midi": 55,
      "hit": false,
      "t": 38437.5,
      "d": 312.5,
      "v": 64
    },
    {
      "midi": 60,
      "hit": false,
      "t": 38750,
      "d": 625,
      "v": 100
    },
    {
      "midi": 48,
      "hit": false,
      "t": 38750,
      "d": 625,
      "v": 64
    },
    {
      "midi": 55,
      "hit": false,
      "t": 38750,
      "d": 625,
      "v": 64
    },
    {
      "midi": 63,
      "hit": false,
      "t": 39375,
      "d": 312.5,
      "v": 64
    },
    {
      "midi": 65,
      "hit": false,
      "t": 39687.5,
      "d": 312.5,
      "v": 64
    },
    {
      "midi": 67,
      "hit": false,
      "t": 40000,
      "d": 609.130859375,
      "v": 100
    },
    {
      "midi": 41,
      "hit": false,
      "t": 40000,
      "d": 312.5,
      "v": 100
    },
    {
      "midi": 53,
      "hit": false,
      "t": 40312.5,
      "d": 625,
      "v": 100
    },
    {
      "midi": 60,
      "hit": false,
      "t": 40312.5,
      "d": 625,
      "v": 100
    },
    {
      "midi": 67,
      "hit": false,
      "t": 40625,
      "d": 296.630859375,
      "v": 100
    },
    {
      "midi": 70,
      "hit": false,
      "t": 40937.5,
      "d": 296.630859375,
      "v": 100
    },
    {
      "midi": 53,
      "hit": false,
      "t": 40937.5,
      "d": 156.25,
      "v": 100
    },
    {
      "midi": 60,
      "hit": false,
      "t": 40937.5,
      "d": 156.25,
      "v": 100
    },
    {
      "midi": 72,
      "hit": false,
      "t": 41250,
      "d": 609.130859375,
      "v": 100
    },
    {
      "midi": 41,
      "hit": false,
      "t": 41250,
      "d": 312.5,
      "v": 64
    },
    {
      "midi": 53,
      "hit": false,
      "t": 41562.5,
      "d": 468.75,
      "v": 100
    },
    {
      "midi": 60,
      "hit": false,
      "t": 41562.5,
      "d": 468.75,
      "v": 100
    },
    {
      "midi": 72,
      "hit": false,
      "t": 41875,
      "d": 296.630859375,
      "v": 100
    },
    {
      "midi": 75,
      "hit": false,
      "t": 42187.5,
      "d": 296.630859375,
      "v": 100
    },
    {
      "midi": 53,
      "hit": false,
      "t": 42187.5,
      "d": 312.5,
      "v": 100
    },
    {
      "midi": 60,
      "hit": false,
      "t": 42187.5,
      "d": 312.5,
      "v": 100
    },
    {
      "midi": 77,
      "hit": false,
      "t": 42500,
      "d": 296.630859375,
      "v": 100
    },
    {
      "midi": 41,
      "hit": false,
      "t": 42500,
      "d": 312.5,
      "v": 100
    },
    {
      "midi": 75,
      "hit": false,
      "t": 42812.5,
      "d": 296.630859375,
      "v": 100
    },
    {
      "midi": 53,
      "hit": false,
      "t": 42812.5,
      "d": 625,
      "v": 100
    },
    {
      "midi": 60,
      "hit": false,
      "t": 42812.5,
      "d": 625,
      "v": 100
    },
    {
      "midi": 75,
      "hit": false,
      "t": 43125,
      "d": 296.630859375,
      "v": 100
    },
    {
      "midi": 77,
      "hit": false,
      "t": 43437.5,
      "d": 296.630859375,
      "v": 100
    },
    {
      "midi": 53,
      "hit": false,
      "t": 43437.5,
      "d": 156.25,
      "v": 100
    },
    {
      "midi": 60,
      "hit": false,
      "t": 43437.5,
      "d": 156.25,
      "v": 100
    },
    {
      "midi": 75,
      "hit": false,
      "t": 43750,
      "d": 296.630859375,
      "v": 100
    },
    {
      "midi": 41,
      "hit": false,
      "t": 43750,
      "d": 312.5,
      "v": 64
    },
    {
      "midi": 53,
      "hit": false,
      "t": 44062.5,
      "d": 468.75,
      "v": 100
    },
    {
      "midi": 60,
      "hit": false,
      "t": 44062.5,
      "d": 468.75,
      "v": 100
    },
    {
      "midi": 75,
      "hit": false,
      "t": 44375,
      "d": 296.630859375,
      "v": 100
    },
    {
      "midi": 77,
      "hit": false,
      "t": 44687.5,
      "d": 296.630859375,
      "v": 100
    },
    {
      "midi": 53,
      "hit": false,
      "t": 44687.5,
      "d": 312.5,
      "v": 100
    },
    {
      "midi": 60,
      "hit": false,
      "t": 44687.5,
      "d": 312.5,
      "v": 100
    },
    {
      "midi": 79,
      "hit": false,
      "t": 45000,
      "d": 609.130859375,
      "v": 100
    },
    {
      "midi": 48,
      "hit": false,
      "t": 45000,
      "d": 625,
      "v": 64
    },
    {
      "midi": 55,
      "hit": false,
      "t": 45000,
      "d": 625,
      "v": 64
    },
    {
      "midi": 79,
      "hit": false,
      "t": 45625,
      "d": 296.630859375,
      "v": 100
    },
    {
      "midi": 48,
      "hit": false,
      "t": 45625,
      "d": 312.5,
      "v": 64
    },
    {
      "midi": 55,
      "hit": false,
      "t": 45625,
      "d": 312.5,
      "v": 64
    },
    {
      "midi": 82,
      "hit": false,
      "t": 45937.5,
      "d": 296.630859375,
      "v": 100
    },
    {
      "midi": 48,
      "hit": false,
      "t": 45937.5,
      "d": 312.5,
      "v": 64
    },
    {
      "midi": 55,
      "hit": false,
      "t": 45937.5,
      "d": 312.5,
      "v": 64
    },
    {
      "midi": 84,
      "hit": false,
      "t": 46250,
      "d": 609.130859375,
      "v": 100
    },
    {
      "midi": 48,
      "hit": false,
      "t": 46250,
      "d": 625,
      "v": 64
    },
    {
      "midi": 55,
      "hit": false,
      "t": 46250,
      "d": 625,
      "v": 64
    },
    {
      "midi": 84,
      "hit": false,
      "t": 46875,
      "d": 296.630859375,
      "v": 100
    },
    {
      "midi": 48,
      "hit": false,
      "t": 46875,
      "d": 312.5,
      "v": 64
    },
    {
      "midi": 55,
      "hit": false,
      "t": 46875,
      "d": 312.5,
      "v": 64
    },
    {
      "midi": 87,
      "hit": false,
      "t": 47187.5,
      "d": 296.630859375,
      "v": 100
    },
    {
      "midi": 48,
      "hit": false,
      "t": 47187.5,
      "d": 312.5,
      "v": 64
    },
    {
      "midi": 55,
      "hit": false,
      "t": 47187.5,
      "d": 312.5,
      "v": 64
    },
    {
      "midi": 89,
      "hit": false,
      "t": 47500,
      "d": 296.630859375,
      "v": 100
    },
    {
      "midi": 48,
      "hit": false,
      "t": 47500,
      "d": 625,
      "v": 64
    },
    {
      "midi": 55,
      "hit": false,
      "t": 47500,
      "d": 625,
      "v": 64
    },
    {
      "midi": 87,
      "hit": false,
      "t": 47812.5,
      "d": 296.630859375,
      "v": 100
    },
    {
      "midi": 87,
      "hit": false,
      "t": 48125,
      "d": 296.630859375,
      "v": 100
    },
    {
      "midi": 48,
      "hit": false,
      "t": 48125,
      "d": 312.5,
      "v": 64
    },
    {
      "midi": 55,
      "hit": false,
      "t": 48125,
      "d": 312.5,
      "v": 64
    },
    {
      "midi": 89,
      "hit": false,
      "t": 48437.5,
      "d": 296.630859375,
      "v": 100
    },
    {
      "midi": 48,
      "hit": false,
      "t": 48437.5,
      "d": 312.5,
      "v": 64
    },
    {
      "midi": 55,
      "hit": false,
      "t": 48437.5,
      "d": 312.5,
      "v": 64
    },
    {
      "midi": 87,
      "hit": false,
      "t": 48750,
      "d": 296.630859375,
      "v": 100
    },
    {
      "midi": 48,
      "hit": false,
      "t": 48750,
      "d": 625,
      "v": 64
    },
    {
      "midi": 55,
      "hit": false,
      "t": 48750,
      "d": 625,
      "v": 64
    },
    {
      "midi": 87,
      "hit": false,
      "t": 49375,
      "d": 296.630859375,
      "v": 100
    },
    {
      "midi": 48,
      "hit": false,
      "t": 49375,
      "d": 312.5,
      "v": 64
    },
    {
      "midi": 55,
      "hit": false,
      "t": 49375,
      "d": 312.5,
      "v": 64
    },
    {
      "midi": 84,
      "hit": false,
      "t": 49687.5,
      "d": 296.630859375,
      "v": 100
    },
    {
      "midi": 48,
      "hit": false,
      "t": 49687.5,
      "d": 312.5,
      "v": 64
    },
    {
      "midi": 55,
      "hit": false,
      "t": 49687.5,
      "d": 312.5,
      "v": 64
    },
    {
      "midi": 82,
      "hit": false,
      "t": 50000,
      "d": 1562.5,
      "v": 100
    },
    {
      "midi": 41,
      "hit": false,
      "t": 50000,
      "d": 312.5,
      "v": 100
    },
    {
      "midi": 53,
      "hit": false,
      "t": 50312.5,
      "d": 625,
      "v": 100
    },
    {
      "midi": 60,
      "hit": false,
      "t": 50312.5,
      "d": 625,
      "v": 100
    },
    {
      "midi": 53,
      "hit": false,
      "t": 50937.5,
      "d": 156.25,
      "v": 100
    },
    {
      "midi": 60,
      "hit": false,
      "t": 50937.5,
      "d": 156.25,
      "v": 100
    },
    {
      "midi": 41,
      "hit": false,
      "t": 51250,
      "d": 312.5,
      "v": 64
    },
    {
      "midi": 53,
      "hit": false,
      "t": 51562.5,
      "d": 468.75,
      "v": 100
    },
    {
      "midi": 60,
      "hit": false,
      "t": 51562.5,
      "d": 468.75,
      "v": 100
    },
    {
      "midi": 84,
      "hit": false,
      "t": 51875,
      "d": 296.630859375,
      "v": 100
    },
    {
      "midi": 82,
      "hit": false,
      "t": 52187.5,
      "d": 296.630859375,
      "v": 100
    },
    {
      "midi": 53,
      "hit": false,
      "t": 52187.5,
      "d": 312.5,
      "v": 100
    },
    {
      "midi": 60,
      "hit": false,
      "t": 52187.5,
      "d": 312.5,
      "v": 100
    },
    {
      "midi": 79,
      "hit": false,
      "t": 52500,
      "d": 1546.630859375,
      "v": 100
    },
    {
      "midi": 41,
      "hit": false,
      "t": 52500,
      "d": 312.5,
      "v": 100
    },
    {
      "midi": 53,
      "hit": false,
      "t": 52812.5,
      "d": 625,
      "v": 100
    },
    {
      "midi": 60,
      "hit": false,
      "t": 52812.5,
      "d": 625,
      "v": 100
    },
    {
      "midi": 53,
      "hit": false,
      "t": 53437.5,
      "d": 156.25,
      "v": 100
    },
    {
      "midi": 60,
      "hit": false,
      "t": 53437.5,
      "d": 156.25,
      "v": 100
    },
    {
      "midi": 41,
      "hit": false,
      "t": 53750,
      "d": 312.5,
      "v": 64
    },
    {
      "midi": 53,
      "hit": false,
      "t": 54062.5,
      "d": 468.75,
      "v": 100
    },
    {
      "midi": 60,
      "hit": false,
      "t": 54062.5,
      "d": 468.75,
      "v": 100
    },
    {
      "midi": 82,
      "hit": false,
      "t": 54375,
      "d": 296.630859375,
      "v": 100
    },
    {
      "midi": 79,
      "hit": false,
      "t": 54687.5,
      "d": 296.630859375,
      "v": 100
    },
    {
      "midi": 53,
      "hit": false,
      "t": 54687.5,
      "d": 312.5,
      "v": 100
    },
    {
      "midi": 60,
      "hit": false,
      "t": 54687.5,
      "d": 312.5,
      "v": 100
    },
    {
      "midi": 77,
      "hit": false,
      "t": 55000,
      "d": 1546.630859375,
      "v": 100
    },
    {
      "midi": 48,
      "hit": false,
      "t": 55000,
      "d": 625,
      "v": 64
    },
    {
      "midi": 55,
      "hit": false,
      "t": 55000,
      "d": 625,
      "v": 64
    },
    {
      "midi": 48,
      "hit": false,
      "t": 55625,
      "d": 312.5,
      "v": 64
    },
    {
      "midi": 55,
      "hit": false,
      "t": 55625,
      "d": 312.5,
      "v": 64
    },
    {
      "midi": 48,
      "hit": false,
      "t": 55937.5,
      "d": 312.5,
      "v": 64
    },
    {
      "midi": 55,
      "hit": false,
      "t": 55937.5,
      "d": 312.5,
      "v": 64
    },
    {
      "midi": 48,
      "hit": false,
      "t": 56250,
      "d": 625,
      "v": 64
    },
    {
      "midi": 55,
      "hit": false,
      "t": 56250,
      "d": 625,
      "v": 64
    },
    {
      "midi": 79,
      "hit": false,
      "t": 56875,
      "d": 296.630859375,
      "v": 100
    },
    {
      "midi": 48,
      "hit": false,
      "t": 56875,
      "d": 312.5,
      "v": 64
    },
    {
      "midi": 55,
      "hit": false,
      "t": 56875,
      "d": 312.5,
      "v": 64
    },
    {
      "midi": 77,
      "hit": false,
      "t": 57187.5,
      "d": 296.630859375,
      "v": 100
    },
    {
      "midi": 48,
      "hit": false,
      "t": 57187.5,
      "d": 312.5,
      "v": 64
    },
    {
      "midi": 55,
      "hit": false,
      "t": 57187.5,
      "d": 312.5,
      "v": 64
    },
    {
      "midi": 79,
      "hit": false,
      "t": 57500,
      "d": 625,
      "v": 100
    },
    {
      "midi": 48,
      "hit": false,
      "t": 57500,
      "d": 625,
      "v": 64
    },
    {
      "midi": 55,
      "hit": false,
      "t": 57500,
      "d": 625,
      "v": 64
    },
    {
      "midi": 48,
      "hit": false,
      "t": 58125,
      "d": 312.5,
      "v": 64
    },
    {
      "midi": 55,
      "hit": false,
      "t": 58125,
      "d": 312.5,
      "v": 64
    },
    {
      "midi": 48,
      "hit": false,
      "t": 58437.5,
      "d": 312.5,
      "v": 64
    },
    {
      "midi": 55,
      "hit": false,
      "t": 58437.5,
      "d": 312.5,
      "v": 64
    },
    {
      "midi": 82,
      "hit": false,
      "t": 58463.134765625,
      "d": 125.1220703125,
      "v": 100
    },
    {
      "midi": 79,
      "hit": false,
      "t": 58593.75,
      "d": 156.25,
      "v": 100
    },
    {
      "midi": 84,
      "hit": false,
      "t": 58750,
      "d": 921.630859375,
      "v": 100
    },
    {
      "midi": 48,
      "hit": false,
      "t": 58750,
      "d": 625,
      "v": 64
    },
    {
      "midi": 55,
      "hit": false,
      "t": 58750,
      "d": 625,
      "v": 64
    },
    {
      "midi": 48,
      "hit": false,
      "t": 59375,
      "d": 312.5,
      "v": 64
    },
    {
      "midi": 55,
      "hit": false,
      "t": 59375,
      "d": 312.5,
      "v": 64
    },
    {
      "midi": 48,
      "hit": false,
      "t": 59687.5,
      "d": 312.5,
      "v": 64
    },
    {
      "midi": 55,
      "hit": false,
      "t": 59687.5,
      "d": 312.5,
      "v": 64
    },
    {
      "midi": 48,
      "hit": false,
      "t": 60000,
      "d": 625,
      "v": 64
    },
    {
      "midi": 55,
      "hit": false,
      "t": 60000,
      "d": 625,
      "v": 64
    },
    {
      "midi": 48,
      "hit": false,
      "t": 60625,
      "d": 312.5,
      "v": 64
    },
    {
      "midi": 55,
      "hit": false,
      "t": 60625,
      "d": 312.5,
      "v": 64
    },
    {
      "midi": 48,
      "hit": false,
      "t": 60937.5,
      "d": 312.5,
      "v": 64
    },
    {
      "midi": 55,
      "hit": false,
      "t": 60937.5,
      "d": 312.5,
      "v": 64
    },
    {
      "midi": 48,
      "hit": false,
      "t": 61250,
      "d": 1250,
      "v": 64
    },
    {
      "midi": 55,
      "hit": false,
      "t": 61250,
      "d": 1250,
      "v": 64
    },
    {
      "midi": 48,
      "hit": false,
      "t": 62500,
      "d": 625,
      "v": 64
    },
    {
      "midi": 55,
      "hit": false,
      "t": 62500,
      "d": 625,
      "v": 64
    },
    {
      "midi": 48,
      "hit": false,
      "t": 63125,
      "d": 312.5,
      "v": 64
    },
    {
      "midi": 55,
      "hit": false,
      "t": 63125,
      "d": 312.5,
      "v": 64
    },
    {
      "midi": 48,
      "hit": false,
      "t": 63437.5,
      "d": 312.5,
      "v": 64
    },
    {
      "midi": 55,
      "hit": false,
      "t": 63437.5,
      "d": 312.5,
      "v": 64
    },
    {
      "midi": 48,
      "hit": false,
      "t": 63750,
      "d": 1250,
      "v": 64
    },
    {
      "midi": 55,
      "hit": false,
      "t": 63750,
      "d": 1250,
      "v": 64
    }
  ]
}