{
  "jsonPath": "Soundtracks/Video Game Music/Terranigma/terranigma-europe.json",
  "path": "Soundtracks\\Video Game Music\\Terranigma\\Terranigma_Europe.mid",
  "name": "Terranigma_Europe",
  "difficulty": "Advanced",
  "bpm": 145.00003625000906,
  "notes": [
    {
      "midi": 51,
      "hit": false,
      "t": 0,
      "d": 1241.3790000000001,
      "v": 80
    },
    {
      "midi": 67,
      "hit": false,
      "t": 413.793,
      "d": 413.793,
      "v": 80
    },
    {
      "midi": 70,
      "hit": false,
      "t": 413.793,
      "d": 413.793,
      "v": 80
    },
    {
      "midi": 67,
      "hit": false,
      "t": 827.586,
      "d": 413.7929999999999,
      "v": 80
    },
    {
      "midi": 70,
      "hit": false,
      "t": 827.586,
      "d": 413.7929999999999,
      "v": 80
    },
    {
      "midi": 50,
      "hit": false,
      "t": 1241.3790000000001,
      "d": 1241.3790000000001,
      "v": 80
    },
    {
      "midi": 65,
      "hit": false,
      "t": 1655.172,
      "d": 413.7930000000001,
      "v": 80
    },
    {
      "midi": 70,
      "hit": false,
      "t": 1655.172,
      "d": 413.7930000000001,
      "v": 80
    },
    {
      "midi": 65,
      "hit": false,
      "t": 2068.965,
      "d": 413.7930000000001,
      "v": 80
    },
    {
      "midi": 70,
      "hit": false,
      "t": 2068.965,
      "d": 413.7930000000001,
      "v": 80
    },
    {
      "midi": 48,
      "hit": false,
      "t": 2482.7580000000003,
      "d": 1241.3790000000004,
      "v": 80
    },
    {
      "midi": 63,
      "hit": false,
      "t": 2896.5510000000004,
      "d": 413.7930000000001,
      "v": 80
    },
    {
      "midi": 67,
      "hit": false,
      "t": 2896.5510000000004,
      "d": 413.7930000000001,
      "v": 80
    },
    {
      "midi": 63,
      "hit": false,
      "t": 3310.3440000000005,
      "d": 413.7930000000001,
      "v": 80
    },
    {
      "midi": 67,
      "hit": false,
      "t": 3310.3440000000005,
      "d": 413.7930000000001,
      "v": 80
    },
    {
      "midi": 62,
      "hit": false,
      "t": 3724.1370000000006,
      "d": 413.79299999999967,
      "v": 80
    },
    {
      "midi": 46,
      "hit": false,
      "t": 3724.1370000000006,
      "d": 413.79299999999967,
      "v": 80
    },
    {
      "midi": 63,
      "hit": false,
      "t": 4137.93,
      "d": 413.79299999999967,
      "v": 80
    },
    {
      "midi": 48,
      "hit": false,
      "t": 4137.93,
      "d": 413.79299999999967,
      "v": 80
    },
    {
      "midi": 65,
      "hit": false,
      "t": 4551.723,
      "d": 413.79299999999967,
      "v": 80
    },
    {
      "midi": 50,
      "hit": false,
      "t": 4551.723,
      "d": 413.79299999999967,
      "v": 80
    },
    {
      "midi": 51,
      "hit": false,
      "t": 4965.516,
      "d": 413.79299999999967,
      "v": 80
    },
    {
      "midi": 67,
      "hit": false,
      "t": 5379.308999999999,
      "d": 206.89649999999983,
      "v": 80
    },
    {
      "midi": 55,
      "hit": false,
      "t": 5379.308999999999,
      "d": 413.79299999999967,
      "v": 80
    },
    {
      "midi": 58,
      "hit": false,
      "t": 5379.308999999999,
      "d": 413.79299999999967,
      "v": 80
    },
    {
      "midi": 65,
      "hit": false,
      "t": 5586.205499999999,
      "d": 206.89649999999983,
      "v": 80
    },
    {
      "midi": 67,
      "hit": false,
      "t": 5793.101999999999,
      "d": 206.89649999999983,
      "v": 80
    },
    {
      "midi": 55,
      "hit": false,
      "t": 5793.101999999999,
      "d": 413.79299999999967,
      "v": 80
    },
    {
      "midi": 58,
      "hit": false,
      "t": 5793.101999999999,
      "d": 413.79299999999967,
      "v": 80
    },
    {
      "midi": 68,
      "hit": false,
      "t": 5999.998499999999,
      "d": 206.89649999999983,
      "v": 80
    },
    {
      "midi": 70,
      "hit": false,
      "t": 6206.894999999999,
      "d": 413.79299999999967,
      "v": 80
    },
    {
      "midi": 50,
      "hit": false,
      "t": 6206.894999999999,
      "d": 413.79299999999967,
      "v": 80
    },
    {
      "midi": 70,
      "hit": false,
      "t": 6620.687999999998,
      "d": 206.89649999999983,
      "v": 80
    },
    {
      "midi": 53,
      "hit": false,
      "t": 6620.687999999998,
      "d": 413.79299999999967,
      "v": 80
    },
    {
      "midi": 58,
      "hit": false,
      "t": 6620.687999999998,
      "d": 413.79299999999967,
      "v": 80
    },
    {
      "midi": 68,
      "hit": false,
      "t": 6827.584499999998,
      "d": 206.89649999999983,
      "v": 80
    },
    {
      "midi": 67,
      "hit": false,
      "t": 7034.480999999998,
      "d": 206.89649999999983,
      "v": 80
    },
    {
      "midi": 53,
      "hit": false,
      "t": 7034.480999999998,
      "d": 413.79299999999967,
      "v": 80
    },
    {
      "midi": 58,
      "hit": false,
      "t": 7034.480999999998,
      "d": 413.79299999999967,
      "v": 80
    },
    {
      "midi": 65,
      "hit": false,
      "t": 7241.377499999998,
      "d": 206.89649999999983,
      "v": 80
    },
    {
      "midi": 63,
      "hit": false,
      "t": 7448.273999999998,
      "d": 413.79299999999967,
      "v": 80
    },
    {
      "midi": 48,
      "hit": false,
      "t": 7448.273999999998,
      "d": 413.79299999999967,
      "v": 80
    },
    {
      "midi": 63,
      "hit": false,
      "t": 7862.066999999997,
      "d": 206.89649999999983,
      "v": 80
    },
    {
      "midi": 51,
      "hit": false,
      "t": 7862.066999999997,
      "d": 413.79299999999967,
      "v": 80
    },
    {
      "midi": 55,
      "hit": false,
      "t": 7862.066999999997,
      "d": 413.79299999999967,
      "v": 80
    },
    {
      "midi": 62,
      "hit": false,
      "t": 8068.963499999997,
      "d": 206.89649999999983,
      "v": 80
    },
    {
      "midi": 63,
      "hit": false,
      "t": 8275.859999999997,
      "d": 206.89650000000074,
      "v": 80
    },
    {
      "midi": 51,
      "hit": false,
      "t": 8275.859999999997,
      "d": 413.79299999999967,
      "v": 80
    },
    {
      "midi": 55,
      "hit": false,
      "t": 8275.859999999997,
      "d": 413.79299999999967,
      "v": 80
    },
    {
      "midi": 65,
      "hit": false,
      "t": 8482.756499999998,
      "d": 206.89650000000074,
      "v": 80
    },
    {
      "midi": 46,
      "hit": false,
      "t": 8689.652999999997,
      "d": 413.79299999999967,
      "v": 80
    },
    {
      "midi": 67,
      "hit": false,
      "t": 8689.652999999998,
      "d": 413.79299999999967,
      "v": 80
    },
    {
      "midi": 51,
      "hit": false,
      "t": 9103.445999999996,
      "d": 413.79299999999967,
      "v": 80
    },
    {
      "midi": 55,
      "hit": false,
      "t": 9103.445999999996,
      "d": 413.79299999999967,
      "v": 80
    },
    {
      "midi": 51,
      "hit": false,
      "t": 9517.238999999996,
      "d": 413.79299999999967,
      "v": 80
    },
    {
      "midi": 55,
      "hit": false,
      "t": 9517.238999999996,
      "d": 413.79299999999967,
      "v": 80
    },
    {
      "midi": 44,
      "hit": false,
      "t": 9931.031999999996,
      "d": 413.79299999999967,
      "v": 80
    },
    {
      "midi": 60,
      "hit": false,
      "t": 9931.031999999997,
      "d": 206.89650000000074,
      "v": 80
    },
    {
      "midi": 58,
      "hit": false,
      "t": 10137.928499999998,
      "d": 206.89650000000074,
      "v": 80
    },
    {
      "midi": 51,
      "hit": false,
      "t": 10344.824999999995,
      "d": 413.79299999999967,
      "v": 80
    },
    {
      "midi": 56,
      "hit": false,
      "t": 10344.824999999995,
      "d": 413.79299999999967,
      "v": 80
    },
    {
      "midi": 60,
      "hit": false,
      "t": 10344.824999999999,
      "d": 206.89650000000074,
      "v": 80
    },
    {
      "midi": 62,
      "hit": false,
      "t": 10551.7215,
      "d": 206.89650000000074,
      "v": 80
    },
    {
      "midi": 51,
      "hit": false,
      "t": 10758.617999999995,
      "d": 413.79299999999967,
      "v": 80
    },
    {
      "midi": 56,
      "hit": false,
      "t": 10758.617999999995,
      "d": 413.79299999999967,
      "v": 80
    },
    {
      "midi": 63,
      "hit": false,
      "t": 10758.618,
      "d": 206.89650000000074,
      "v": 80
    },
    {
      "midi": 65,
      "hit": false,
      "t": 10965.514500000001,
      "d": 206.89650000000074,
      "v": 80
    },
    {
      "midi": 46,
      "hit": false,
      "t": 11172.410999999995,
      "d": 413.79299999999967,
      "v": 80
    },
    {
      "midi": 67,
      "hit": false,
      "t": 11172.411000000002,
      "d": 413.79299999999967,
      "v": 80
    },
    {
      "midi": 51,
      "hit": false,
      "t": 11586.203999999994,
      "d": 413.79299999999967,
      "v": 80
    },
    {
      "midi": 55,
      "hit": false,
      "t": 11586.203999999994,
      "d": 413.79299999999967,
      "v": 80
    },
    {
      "midi": 63,
      "hit": false,
      "t": 11586.204000000002,
      "d": 413.79299999999967,
      "v": 80
    },
    {
      "midi": 51,
      "hit": false,
      "t": 11999.996999999994,
      "d": 413.79299999999967,
      "v": 80
    },
    {
      "midi": 55,
      "hit": false,
      "t": 11999.996999999994,
      "d": 413.79299999999967,
      "v": 80
    },
    {
      "midi": 58,
      "hit": false,
      "t": 11999.997000000001,
      "d": 413.79299999999967,
      "v": 80
    },
    {
      "midi": 44,
      "hit": false,
      "t": 12413.789999999994,
      "d": 413.79299999999967,
      "v": 80
    },
    {
      "midi": 60,
      "hit": false,
      "t": 12413.79,
      "d": 413.79299999999967,
      "v": 80
    },
    {
      "midi": 51,
      "hit": false,
      "t": 12827.582999999993,
      "d": 413.79299999999967,
      "v": 80
    },
    {
      "midi": 56,
      "hit": false,
      "t": 12827.582999999993,
      "d": 413.79299999999967,
      "v": 80
    },
    {
      "midi": 60,
      "hit": false,
      "t": 12827.583,
      "d": 206.89650000000074,
      "v": 80
    },
    {
      "midi": 62,
      "hit": false,
      "t": 13034.479500000001,
      "d": 206.89650000000074,
      "v": 80
    },
    {
      "midi": 51,
      "hit": false,
      "t": 13241.375999999993,
      "d": 413.79299999999967,
      "v": 80
    },
    {
      "midi": 56,
      "hit": false,
      "t": 13241.375999999993,
      "d": 413.79299999999967,
      "v": 80
    },
    {
      "midi": 63,
      "hit": false,
      "t": 13241.376000000002,
      "d": 206.89650000000074,
      "v": 80
    },
    {
      "midi": 65,
      "hit": false,
      "t": 13448.272500000003,
      "d": 206.89650000000074,
      "v": 80
    },
    {
      "midi": 46,
      "hit": false,
      "t": 13655.168999999993,
      "d": 413.79299999999967,
      "v": 80
    },
    {
      "midi": 50,
      "hit": false,
      "t": 13655.168999999993,
      "d": 413.79299999999967,
      "v": 80
    },
    {
      "midi": 62,
      "hit": false,
      "t": 13655.169000000004,
      "d": 827.5859999999993,
      "v": 80
    },
    {
      "midi": 48,
      "hit": false,
      "t": 14068.961999999992,
      "d": 413.79299999999967,
      "v": 80
    },
    {
      "midi": 51,
      "hit": false,
      "t": 14068.961999999992,
      "d": 413.79299999999967,
      "v": 80
    },
    {
      "midi": 50,
      "hit": false,
      "t": 14482.754999999992,
      "d": 413.79299999999967,
      "v": 80
    },
    {
      "midi": 53,
      "hit": false,
      "t": 14482.754999999992,
      "d": 413.79299999999967,
      "v": 80
    },
    {
      "midi": 58,
      "hit": false,
      "t": 14482.755000000003,
      "d": 413.79299999999967,
      "v": 80
    },
    {
      "midi": 51,
      "hit": false,
      "t": 14896.547999999992,
      "d": 413.79299999999967,
      "v": 80
    },
    {
      "midi": 55,
      "hit": false,
      "t": 15310.340999999991,
      "d": 413.79299999999967,
      "v": 80
    },
    {
      "midi": 58,
      "hit": false,
      "t": 15310.340999999991,
      "d": 413.79299999999967,
      "v": 80
    },
    {
      "midi": 67,
      "hit": false,
      "t": 15310.341000000002,
      "d": 206.89650000000074,
      "v": 64
    },
    {
      "midi": 68,
      "hit": false,
      "t": 15517.237500000003,
      "d": 206.89650000000074,
      "v": 64
    },
    {
      "midi": 55,
      "hit": false,
      "t": 15724.133999999991,
      "d": 413.79299999999967,
      "v": 80
    },
    {
      "midi": 58,
      "hit": false,
      "t": 15724.133999999991,
      "d": 413.79299999999967,
      "v": 80
    },
    {
      "midi": 70,
      "hit": false,
      "t": 15724.134000000004,
      "d": 206.89650000000074,
      "v": 64
    },
    {
      "midi": 72,
      "hit": false,
      "t": 15931.030500000004,
      "d": 206.89650000000074,
      "v": 64
    },
    {
      "midi": 50,
      "hit": false,
      "t": 16137.92699999999,
      "d": 413.79299999999967,
      "v": 80
    },
    {
      "midi": 70,
      "hit": false,
      "t": 16137.927000000005,
      "d": 413.79299999999967,
      "v": 64
    },
    {
      "midi": 53,
      "hit": false,
      "t": 16551.71999999999,
      "d": 413.7930000000015,
      "v": 80
    },
    {
      "midi": 58,
      "hit": false,
      "t": 16551.71999999999,
      "d": 413.7930000000015,
      "v": 80
    },
    {
      "midi": 70,
      "hit": false,
      "t": 16551.720000000005,
      "d": 206.89649999999892,
      "v": 64
    },
    {
      "midi": 68,
      "hit": false,
      "t": 16758.616500000004,
      "d": 206.89649999999892,
      "v": 64
    },
    {
      "midi": 53,
      "hit": false,
      "t": 16965.51299999999,
      "d": 413.7930000000015,
      "v": 80
    },
    {
      "midi": 58,
      "hit": false,
      "t": 16965.51299999999,
      "d": 413.7930000000015,
      "v": 80
    },
    {
      "midi": 67,
      "hit": false,
      "t": 16965.513000000003,
      "d": 206.89649999999892,
      "v": 64
    },
    {
      "midi": 65,
      "hit": false,
      "t": 17172.4095,
      "d": 206.89649999999892,
      "v": 64
    },
    {
      "midi": 48,
      "hit": false,
      "t": 17379.305999999993,
      "d": 413.7930000000015,
      "v": 80
    },
    {
      "midi": 63,
      "hit": false,
      "t": 17379.306,
      "d": 413.7930000000015,
      "v": 64
    },
    {
      "midi": 51,
      "hit": false,
      "t": 17793.098999999995,
      "d": 413.7930000000015,
      "v": 80
    },
    {
      "midi": 55,
      "hit": false,
      "t": 17793.098999999995,
      "d": 413.7930000000015,
      "v": 80
    },
    {
      "midi": 63,
      "hit": false,
      "t": 17793.099000000002,
      "d": 206.89649999999892,
      "v": 64
    },
    {
      "midi": 62,
      "hit": false,
      "t": 17999.9955,
      "d": 206.89649999999892,
      "v": 64
    },
    {
      "midi": 51,
      "hit": false,
      "t": 18206.891999999996,
      "d": 413.7930000000015,
      "v": 80
    },
    {
      "midi": 55,
      "hit": false,
      "t": 18206.891999999996,
      "d": 413.7930000000015,
      "v": 80
    },
    {
      "midi": 63,
      "hit": false,
      "t": 18206.892,
      "d": 206.89649999999892,
      "v": 64
    },
    {
      "midi": 65,
      "hit": false,
      "t": 18413.7885,
      "d": 206.89649999999892,
      "v": 64
    },
    {
      "midi": 67,
      "hit": false,
      "t": 18620.684999999998,
      "d": 1241.3790000000008,
      "v": 64
    },
    {
      "midi": 46,
      "hit": false,
      "t": 18620.684999999998,
      "d": 413.7930000000015,
      "v": 64
    },
    {
      "midi": 51,
      "hit": false,
      "t": 19034.478,
      "d": 413.7930000000015,
      "v": 80
    },
    {
      "midi": 55,
      "hit": false,
      "t": 19034.478,
      "d": 413.7930000000015,
      "v": 80
    },
    {
      "midi": 51,
      "hit": false,
      "t": 19448.271,
      "d": 413.7930000000015,
      "v": 80
    },
    {
      "midi": 55,
      "hit": false,
      "t": 19448.271,
      "d": 413.7930000000015,
      "v": 80
    },
    {
      "midi": 60,
      "hit": false,
      "t": 19862.064,
      "d": 206.89649999999892,
      "v": 64
    },
    {
      "midi": 44,
      "hit": false,
      "t": 19862.064000000002,
      "d": 413.7930000000015,
      "v": 64
    },
    {
      "midi": 58,
      "hit": false,
      "t": 20068.960499999997,
      "d": 206.89649999999892,
      "v": 64
    },
    {
      "midi": 60,
      "hit": false,
      "t": 20275.856999999996,
      "d": 206.89649999999892,
      "v": 64
    },
    {
      "midi": 51,
      "hit": false,
      "t": 20275.857000000004,
      "d": 413.7930000000015,
      "v": 64
    },
    {
      "midi": 56,
      "hit": false,
      "t": 20275.857000000004,
      "d": 413.7930000000015,
      "v": 64
    },
    {
      "midi": 62,
      "hit": false,
      "t": 20482.753499999995,
      "d": 206.89649999999892,
      "v": 64
    },
    {
      "midi": 63,
      "hit": false,
      "t": 20689.649999999994,
      "d": 206.89649999999892,
      "v": 64
    },
    {
      "midi": 51,
      "hit": false,
      "t": 20689.650000000005,
      "d": 413.7930000000015,
      "v": 64
    },
    {
      "midi": 56,
      "hit": false,
      "t": 20689.650000000005,
      "d": 413.7930000000015,
      "v": 64
    },
    {
      "midi": 65,
      "hit": false,
      "t": 20896.546499999993,
      "d": 206.89649999999892,
      "v": 64
    },
    {
      "midi": 67,
      "hit": false,
      "t": 21103.442999999992,
      "d": 413.7930000000015,
      "v": 64
    },
    {
      "midi": 46,
      "hit": false,
      "t": 21103.443000000007,
      "d": 413.7930000000015,
      "v": 64
    },
    {
      "midi": 63,
      "hit": false,
      "t": 21517.235999999994,
      "d": 413.7930000000015,
      "v": 64
    },
    {
      "midi": 51,
      "hit": false,
      "t": 21517.236000000008,
      "d": 413.7930000000015,
      "v": 64
    },
    {
      "midi": 55,
      "hit": false,
      "t": 21517.236000000008,
      "d": 413.7930000000015,
      "v": 64
    },
    {
      "midi": 70,
      "hit": false,
      "t": 21931.028999999995,
      "d": 413.7930000000015,
      "v": 64
    },
    {
      "midi": 51,
      "hit": false,
      "t": 21931.02900000001,
      "d": 413.7930000000015,
      "v": 64
    },
    {
      "midi": 55,
      "hit": false,
      "t": 21931.02900000001,
      "d": 413.7930000000015,
      "v": 64
    },
    {
      "midi": 68,
      "hit": false,
      "t": 22344.821999999996,
      "d": 206.89649999999892,
      "v": 64
    },
    {
      "midi": 44,
      "hit": false,
      "t": 22344.82200000001,
      "d": 413.7930000000015,
      "v": 64
    },
    {
      "midi": 70,
      "hit": false,
      "t": 22551.718499999995,
      "d": 206.89649999999892,
      "v": 64
    },
    {
      "midi": 72,
      "hit": false,
      "t": 22758.614999999994,
      "d": 413.7930000000015,
      "v": 64
    },
    {
      "midi": 51,
      "hit": false,
      "t": 22758.615000000013,
      "d": 413.7930000000015,
      "v": 64
    },
    {
      "midi": 56,
      "hit": false,
      "t": 22758.615000000013,
      "d": 413.7930000000015,
      "v": 64
    },
    {
      "midi": 62,
      "hit": false,
      "t": 23172.407999999996,
      "d": 413.7930000000015,
      "v": 64
    },
    {
      "midi": 51,
      "hit": false,
      "t": 23172.408000000014,
      "d": 413.7930000000015,
      "v": 64
    },
    {
      "midi": 56,
      "hit": false,
      "t": 23172.408000000014,
      "d": 413.7930000000015,
      "v": 64
    },
    {
      "midi": 70,
      "hit": false,
      "t": 23586.200999999997,
      "d": 1034.482500000002,
      "v": 64
    },
    {
      "midi": 51,
      "hit": false,
      "t": 23586.201000000015,
      "d": 1241.3790000000008,
      "v": 64
    },
    {
      "midi": 55,
      "hit": false,
      "t": 23586.201000000015,
      "d": 1241.3790000000008,
      "v": 64
    },
    {
      "midi": 58,
      "hit": false,
      "t": 23586.201000000015,
      "d": 1241.3790000000008,
      "v": 64
    },
    {
      "midi": 60,
      "hit": false,
      "t": 24620.6835,
      "d": 206.89649999999892,
      "v": 64
    },
    {
      "midi": 63,
      "hit": false,
      "t": 24827.579999999998,
      "d": 1241.3790000000008,
      "v": 64
    },
    {
      "midi": 67,
      "hit": false,
      "t": 24827.579999999998,
      "d": 1241.3790000000008,
      "v": 64
    },
    {
      "midi": 44,
      "hit": false,
      "t": 24827.580000000016,
      "d": 206.89649999999892,
      "v": 64
    },
    {
      "midi": 51,
      "hit": false,
      "t": 25034.476500000015,
      "d": 206.89649999999892,
      "v": 64
    },
    {
      "midi": 56,
      "hit": false,
      "t": 25241.373000000014,
      "d": 827.5859999999993,
      "v": 64
    },
    {
      "midi": 62,
      "hit": false,
      "t": 26068.959,
      "d": 1241.3790000000008,
      "v": 64
    },
    {
      "midi": 65,
      "hit": false,
      "t": 26068.959,
      "d": 1241.3790000000008,
      "v": 64
    },
    {
      "midi": 43,
      "hit": false,
      "t": 26068.959000000013,
      "d": 206.89649999999892,
      "v": 64
    },
    {
      "midi": 50,
      "hit": false,
      "t": 26275.855500000012,
      "d": 206.89649999999892,
      "v": 64
    },
    {
      "midi": 53,
      "hit": false,
      "t": 26482.75200000001,
      "d": 827.5859999999993,
      "v": 64
    },
    {
      "midi": 44,
      "hit": false,
      "t": 27310.33800000001,
      "d": 206.89649999999892,
      "v": 64
    },
    {
      "midi": 48,
      "hit": false,
      "t": 27517.23450000001,
      "d": 206.89649999999892,
      "v": 64
    },
    {
      "midi": 60,
      "hit": false,
      "t": 27724.131,
      "d": 206.89649999999892,
      "v": 64
    },
    {
      "midi": 51,
      "hit": false,
      "t": 27724.13100000001,
      "d": 827.5859999999993,
      "v": 64
    },
    {
      "midi": 62,
      "hit": false,
      "t": 27931.0275,
      "d": 206.89649999999892,
      "v": 64
    },
    {
      "midi": 63,
      "hit": false,
      "t": 28137.924,
      "d": 206.89649999999892,
      "v": 64
    },
    {
      "midi": 65,
      "hit": false,
      "t": 28344.820499999998,
      "d": 206.89649999999892,
      "v": 64
    },
    {
      "midi": 67,
      "hit": false,
      "t": 28551.716999999997,
      "d": 413.7930000000015,
      "v": 64
    },
    {
      "midi": 39,
      "hit": false,
      "t": 28551.717000000008,
      "d": 206.89649999999892,
      "v": 64
    },
    {
      "midi": 46,
      "hit": false,
      "t": 28758.613500000007,
      "d": 206.89649999999892,
      "v": 64
    },
    {
      "midi": 63,
      "hit": false,
      "t": 28965.51,
      "d": 413.7930000000015,
      "v": 64
    },
    {
      "midi": 51,
      "hit": false,
      "t": 28965.510000000006,
      "d": 827.5859999999993,
      "v": 64
    },
    {
      "midi": 58,
      "hit": false,
      "t": 29379.303,
      "d": 413.7930000000015,
      "v": 64
    },
    {
      "midi": 62,
      "hit": false,
      "t": 29793.096,
      "d": 1241.3790000000008,
      "v": 64
    },
    {
      "midi": 65,
      "hit": false,
      "t": 29793.096,
      "d": 1241.3790000000008,
      "v": 64
    },
    {
      "midi": 43,
      "hit": false,
      "t": 29793.096000000005,
      "d": 206.89649999999892,
      "v": 64
    },
    {
      "midi": 50,
      "hit": false,
      "t": 29999.992500000004,
      "d": 206.89649999999892,
      "v": 64
    },
    {
      "midi": 53,
      "hit": false,
      "t": 30206.889000000003,
      "d": 827.5859999999993,
      "v": 64
    },
    {
      "midi": 60,
      "hit": false,
      "t": 31034.475000000002,
      "d": 1241.3790000000008,
      "v": 64
    },
    {
      "midi": 63,
      "hit": false,
      "t": 31034.475000000002,
      "d": 1241.3790000000008,
      "v": 64
    },
    {
      "midi": 41,
      "hit": false,
      "t": 31034.475000000002,
      "d": 206.89649999999892,
      "v": 64
    },
    {
      "midi": 48,
      "hit": false,
      "t": 31241.3715,
      "d": 206.89649999999892,
      "v": 64
    },
    {
      "midi": 51,
      "hit": false,
      "t": 31448.268,
      "d": 827.5859999999993,
      "v": 64
    },
    {
      "midi": 43,
      "hit": false,
      "t": 32275.854,
      "d": 206.89649999999892,
      "v": 64
    },
    {
      "midi": 50,
      "hit": false,
      "t": 32482.7505,
      "d": 206.89649999999892,
      "v": 64
    },
    {
      "midi": 55,
      "hit": false,
      "t": 32689.646999999997,
      "d": 827.586000000003,
      "v": 64
    },
    {
      "midi": 62,
      "hit": false,
      "t": 32689.647000000004,
      "d": 206.89650000000256,
      "v": 64
    },
    {
      "midi": 63,
      "hit": false,
      "t": 32896.54350000001,
      "d": 206.89650000000256,
      "v": 64
    },
    {
      "midi": 65,
      "hit": false,
      "t": 33103.44000000001,
      "d": 206.89650000000256,
      "v": 64
    },
    {
      "midi": 72,
      "hit": false,
      "t": 33310.33650000001,
      "d": 206.89650000000256,
      "v": 64
    },
    {
      "midi": 39,
      "hit": false,
      "t": 33517.233,
      "d": 206.89650000000256,
      "v": 64
    },
    {
      "midi": 70,
      "hit": false,
      "t": 33517.233000000015,
      "d": 413.79299999999785,
      "v": 64
    },
    {
      "midi": 46,
      "hit": false,
      "t": 33724.1295,
      "d": 206.89650000000256,
      "v": 64
    },
    {
      "midi": 51,
      "hit": false,
      "t": 33931.026000000005,
      "d": 206.89650000000256,
      "v": 64
    },
    {
      "midi": 60,
      "hit": false,
      "t": 33931.02600000001,
      "d": 413.79299999999785,
      "v": 64
    },
    {
      "midi": 63,
      "hit": false,
      "t": 34344.81900000001,
      "d": 413.79299999999785,
      "v": 64
    },
    {
      "midi": 63,
      "hit": false,
      "t": 34758.61200000001,
      "d": 1241.3790000000008,
      "v": 64
    },
    {
      "midi": 67,
      "hit": false,
      "t": 34758.61200000001,
      "d": 1241.3790000000008,
      "v": 64
    },
    {
      "midi": 44,
      "hit": false,
      "t": 34758.61200000001,
      "d": 206.89650000000256,
      "v": 64
    },
    {
      "midi": 51,
      "hit": false,
      "t": 34965.50850000001,
      "d": 206.89650000000256,
      "v": 64
    },
    {
      "midi": 56,
      "hit": false,
      "t": 35172.40500000001,
      "d": 827.586000000003,
      "v": 64
    },
    {
      "midi": 62,
      "hit": false,
      "t": 35999.99100000001,
      "d": 1241.3790000000008,
      "v": 64
    },
    {
      "midi": 65,
      "hit": false,
      "t": 35999.99100000001,
      "d": 1241.3790000000008,
      "v": 64
    },
    {
      "midi": 43,
      "hit": false,
      "t": 35999.991000000016,
      "d": 206.89650000000256,
      "v": 64
    },
    {
      "midi": 50,
      "hit": false,
      "t": 36206.88750000002,
      "d": 206.89650000000256,
      "v": 64
    },
    {
      "midi": 53,
      "hit": false,
      "t": 36413.78400000002,
      "d": 827.586000000003,
      "v": 64
    },
    {
      "midi": 44,
      "hit": false,
      "t": 37241.370000000024,
      "d": 206.89650000000256,
      "v": 64
    },
    {
      "midi": 48,
      "hit": false,
      "t": 37448.26650000003,
      "d": 206.89650000000256,
      "v": 64
    },
    {
      "midi": 60,
      "hit": false,
      "t": 37655.16300000001,
      "d": 206.89650000000256,
      "v": 64
    },
    {
      "midi": 51,
      "hit": false,
      "t": 37655.16300000003,
      "d": 827.586000000003,
      "v": 64
    },
    {
      "midi": 62,
      "hit": false,
      "t": 37862.05950000001,
      "d": 206.89650000000256,
      "v": 64
    },
    {
      "midi": 63,
      "hit": false,
      "t": 38068.95600000001,
      "d": 206.89650000000256,
      "v": 64
    },
    {
      "midi": 65,
      "hit": false,
      "t": 38275.852500000015,
      "d": 206.89650000000256,
      "v": 64
    },
    {
      "midi": 67,
      "hit": false,
      "t": 38482.74900000002,
      "d": 413.79299999999785,
      "v": 64
    },
    {
      "midi": 39,
      "hit": false,
      "t": 38482.74900000003,
      "d": 206.89650000000256,
      "v": 64
    },
    {
      "midi": 46,
      "hit": false,
      "t": 38689.645500000035,
      "d": 206.89650000000256,
      "v": 64
    },
    {
      "midi": 63,
      "hit": false,
      "t": 38896.542000000016,
      "d": 413.79299999999785,
      "v": 64
    },
    {
      "midi": 51,
      "hit": false,
      "t": 38896.54200000004,
      "d": 827.586000000003,
      "v": 64
    },
    {
      "midi": 58,
      "hit": false,
      "t": 39310.335000000014,
      "d": 413.79299999999785,
      "v": 64
    },
    {
      "midi": 62,
      "hit": false,
      "t": 39724.12800000001,
      "d": 1241.3790000000008,
      "v": 64
    },
    {
      "midi": 65,
      "hit": false,
      "t": 39724.12800000001,
      "d": 1241.3790000000008,
      "v": 64
    },
    {
      "midi": 43,
      "hit": false,
      "t": 39724.12800000004,
      "d": 206.89650000000256,
      "v": 64
    },
    {
      "midi": 50,
      "hit": false,
      "t": 39931.02450000004,
      "d": 206.89650000000256,
      "v": 64
    },
    {
      "midi": 53,
      "hit": false,
      "t": 40137.921000000046,
      "d": 827.586000000003,
      "v": 64
    },
    {
      "midi": 60,
      "hit": false,
      "t": 40965.50700000001,
      "d": 1241.3790000000008,
      "v": 64
    },
    {
      "midi": 63,
      "hit": false,
      "t": 40965.50700000001,
      "d": 1241.3790000000008,
      "v": 64
    },
    {
      "midi": 41,
      "hit": false,
      "t": 40965.50700000005,
      "d": 206.89650000000256,
      "v": 64
    },
    {
      "midi": 48,
      "hit": false,
      "t": 41172.40350000005,
      "d": 206.89650000000256,
      "v": 64
    },
    {
      "midi": 51,
      "hit": false,
      "t": 41379.300000000054,
      "d": 827.586000000003,
      "v": 64
    },
    {
      "midi": 43,
      "hit": false,
      "t": 42206.88600000006,
      "d": 206.89650000000256,
      "v": 64
    },
    {
      "midi": 50,
      "hit": false,
      "t": 42413.78250000006,
      "d": 206.89650000000256,
      "v": 64
    },
    {
      "midi": 62,
      "hit": false,
      "t": 42620.67900000001,
      "d": 206.89650000000256,
      "v": 64
    },
    {
      "midi": 55,
      "hit": false,
      "t": 42620.67900000006,
      "d": 827.586000000003,
      "v": 64
    },
    {
      "midi": 63,
      "hit": false,
      "t": 42827.57550000001,
      "d": 206.89650000000256,
      "v": 64
    },
    {
      "midi": 65,
      "hit": false,
      "t": 43034.472000000016,
      "d": 206.89650000000256,
      "v": 64
    },
    {
      "midi": 72,
      "hit": false,
      "t": 43241.36850000002,
      "d": 206.89650000000256,
      "v": 64
    },
    {
      "midi": 70,
      "hit": false,
      "t": 43448.26500000002,
      "d": 413.79299999999785,
      "v": 64
    },
    {
      "midi": 39,
      "hit": false,
      "t": 43448.265000000065,
      "d": 206.89650000000256,
      "v": 64
    },
    {
      "midi": 46,
      "hit": false,
      "t": 43655.16150000007,
      "d": 206.89650000000256,
      "v": 64
    },
    {
      "midi": 60,
      "hit": false,
      "t": 43862.05800000002,
      "d": 413.79299999999785,
      "v": 64
    },
    {
      "midi": 51,
      "hit": false,
      "t": 43862.05800000007,
      "d": 206.89650000000256,
      "v": 64
    },
    {
      "midi": 63,
      "hit": false,
      "t": 44275.85100000002,
      "d": 413.79299999999785,
      "v": 64
    },
    {
      "midi": 68,
      "hit": false,
      "t": 44689.644000000015,
      "d": 206.89650000000256,
      "v": 64
    },
    {
      "midi": 44,
      "hit": false,
      "t": 44689.64400000007,
      "d": 206.89650000000256,
      "v": 64
    },
    {
      "midi": 67,
      "hit": false,
      "t": 44896.54050000002,
      "d": 206.89650000000256,
      "v": 64
    },
    {
      "midi": 51,
      "hit": false,
      "t": 44896.540500000076,
      "d": 206.89650000000256,
      "v": 64
    },
    {
      "midi": 68,
      "hit": false,
      "t": 45103.43700000002,
      "d": 206.89650000000256,
      "v": 64
    },
    {
      "midi": 56,
      "hit": false,
      "t": 45103.43700000008,
      "d": 827.586000000003,
      "v": 64
    },
    {
      "midi": 70,
      "hit": false,
      "t": 45310.33350000002,
      "d": 206.89650000000256,
      "v": 64
    },
    {
      "midi": 72,
      "hit": false,
      "t": 45517.230000000025,
      "d": 206.89650000000256,
      "v": 64
    },
    {
      "midi": 68,
      "hit": false,
      "t": 45724.12650000003,
      "d": 206.89650000000256,
      "v": 64
    },
    {
      "midi": 65,
      "hit": false,
      "t": 45931.02300000003,
      "d": 1241.3790000000008,
      "v": 64
    },
    {
      "midi": 46,
      "hit": false,
      "t": 45931.02300000008,
      "d": 413.79299999999785,
      "v": 64
    },
    {
      "midi": 53,
      "hit": false,
      "t": 46344.81600000008,
      "d": 827.586000000003,
      "v": 64
    },
    {
      "midi": 58,
      "hit": false,
      "t": 46344.81600000008,
      "d": 827.586000000003,
      "v": 64
    },
    {
      "midi": 67,
      "hit": false,
      "t": 47172.40200000003,
      "d": 206.89650000000256,
      "v": 64
    },
    {
      "midi": 39,
      "hit": false,
      "t": 47172.40200000008,
      "d": 206.89650000000256,
      "v": 64
    },
    {
      "midi": 65,
      "hit": false,
      "t": 47379.29850000003,
      "d": 206.89650000000256,
      "v": 64
    },
    {
      "midi": 46,
      "hit": false,
      "t": 47379.298500000084,
      "d": 206.89650000000256,
      "v": 64
    },
    {
      "midi": 67,
      "hit": false,
      "t": 47586.195000000036,
      "d": 206.89650000000256,
      "v": 64
    },
    {
      "midi": 51,
      "hit": false,
      "t": 47586.19500000009,
      "d": 827.586000000003,
      "v": 64
    },
    {
      "midi": 68,
      "hit": false,
      "t": 47793.09150000004,
      "d": 206.89650000000256,
      "v": 64
    },
    {
      "midi": 70,
      "hit": false,
      "t": 47999.98800000004,
      "d": 206.89650000000256,
      "v": 64
    },
    {
      "midi": 67,
      "hit": false,
      "t": 48206.884500000044,
      "d": 206.89650000000256,
      "v": 64
    },
    {
      "midi": 63,
      "hit": false,
      "t": 48413.781000000046,
      "d": 1241.3790000000008,
      "v": 64
    },
    {
      "midi": 48,
      "hit": false,
      "t": 48413.78100000009,
      "d": 413.79299999999785,
      "v": 64
    },
    {
      "midi": 51,
      "hit": false,
      "t": 48827.57400000009,
      "d": 827.586000000003,
      "v": 64
    },
    {
      "midi": 56,
      "hit": false,
      "t": 48827.57400000009,
      "d": 827.586000000003,
      "v": 64
    },
    {
      "midi": 65,
      "hit": false,
      "t": 49655.16000000005,
      "d": 413.79299999999785,
      "v": 64
    },
    {
      "midi": 41,
      "hit": false,
      "t": 49655.16000000009,
      "d": 206.89650000000256,
      "v": 64
    },
    {
      "midi": 48,
      "hit": false,
      "t": 49862.05650000009,
      "d": 206.89650000000256,
      "v": 64
    },
    {
      "midi": 65,
      "hit": false,
      "t": 50068.953000000045,
      "d": 206.89650000000256,
      "v": 64
    },
    {
      "midi": 51,
      "hit": false,
      "t": 50068.953000000096,
      "d": 827.586000000003,
      "v": 64
    },
    {
      "midi": 63,
      "hit": false,
      "t": 50275.84950000005,
      "d": 206.89650000000256,
      "v": 64
    },
    {
      "midi": 62,
      "hit": false,
      "t": 50482.74600000005,
      "d": 206.89650000000256,
      "v": 64
    },
    {
      "midi": 60,
      "hit": false,
      "t": 50689.64250000005,
      "d": 206.89650000000256,
      "v": 64
    },
    {
      "midi": 59,
      "hit": false,
      "t": 50896.539000000055,
      "d": 827.586000000003,
      "v": 64
    },
    {
      "midi": 43,
      "hit": false,
      "t": 50896.5390000001,
      "d": 413.79299999999785,
      "v": 64
    },
    {
      "midi": 50,
      "hit": false,
      "t": 51310.3320000001,
      "d": 827.586000000003,
      "v": 64
    },
    {
      "midi": 60,
      "hit": false,
      "t": 51724.12500000006,
      "d": 413.79299999999785,
      "v": 64
    },
    {
      "midi": 67,
      "hit": false,
      "t": 52137.918000000056,
      "d": 1241.3790000000008,
      "v": 64
    },
    {
      "midi": 48,
      "hit": false,
      "t": 52137.9180000001,
      "d": 413.79299999999785,
      "v": 64
    },
    {
      "midi": 51,
      "hit": false,
      "t": 52551.7110000001,
      "d": 827.586000000003,
      "v": 64
    },
    {
      "midi": 55,
      "hit": false,
      "t": 52551.7110000001,
      "d": 827.586000000003,
      "v": 64
    },
    {
      "midi": 51,
      "hit": false,
      "t": 53379.2970000001,
      "d": 413.79299999999785,
      "v": 64
    },
    {
      "midi": 53,
      "hit": false,
      "t": 53793.0900000001,
      "d": 413.79299999999785,
      "v": 64
    },
    {
      "midi": 55,
      "hit": false,
      "t": 54206.883000000096,
      "d": 413.79299999999785,
      "v": 64
    },
    {
      "midi": 51,
      "hit": false,
      "t": 54620.676000000094,
      "d": 413.79299999999785,
      "v": 80
    },
    {
      "midi": 67,
      "hit": false,
      "t": 55034.469000000056,
      "d": 206.89650000000256,
      "v": 64
    },
    {
      "midi": 55,
      "hit": false,
      "t": 55034.46900000009,
      "d": 413.79299999999785,
      "v": 80
    },
    {
      "midi": 58,
      "hit": false,
      "t": 55034.46900000009,
      "d": 413.79299999999785,
      "v": 80
    },
    {
      "midi": 68,
      "hit": false,
      "t": 55241.36550000006,
      "d": 206.89650000000256,
      "v": 64
    },
    {
      "midi": 70,
      "hit": false,
      "t": 55448.26200000006,
      "d": 206.89650000000256,
      "v": 64
    },
    {
      "midi": 55,
      "hit": false,
      "t": 55448.26200000009,
      "d": 413.79299999999785,
      "v": 80
    },
    {
      "midi": 58,
      "hit": false,
      "t": 55448.26200000009,
      "d": 413.79299999999785,
      "v": 80
    },
    {
      "midi": 72,
      "hit": false,
      "t": 55655.15850000006,
      "d": 206.89650000000256,
      "v": 64
    },
    {
      "midi": 70,
      "hit": false,
      "t": 55862.055000000066,
      "d": 413.79299999999785,
      "v": 64
    },
    {
      "midi": 50,
      "hit": false,
      "t": 55862.05500000009,
      "d": 413.79299999999785,
      "v": 80
    },
    {
      "midi": 70,
      "hit": false,
      "t": 56275.84800000006,
      "d": 206.89650000000256,
      "v": 64
    },
    {
      "midi": 53,
      "hit": false,
      "t": 56275.848000000085,
      "d": 413.79299999999785,
      "v": 80
    },
    {
      "midi": 58,
      "hit": false,
      "t": 56275.848000000085,
      "d": 413.79299999999785,
      "v": 80
    },
    {
      "midi": 68,
      "hit": false,
      "t": 56482.744500000066,
      "d": 206.89650000000256,
      "v": 64
    },
    {
      "midi": 67,
      "hit": false,
      "t": 56689.64100000007,
      "d": 206.89650000000256,
      "v": 64
    },
    {
      "midi": 53,
      "hit": false,
      "t": 56689.64100000008,
      "d": 413.79299999999785,
      "v": 80
    },
    {
      "midi": 58,
      "hit": false,
      "t": 56689.64100000008,
      "d": 413.79299999999785,
      "v": 80
    },
    {
      "midi": 65,
      "hit": false,
      "t": 56896.53750000007,
      "d": 206.89650000000256,
      "v": 64
    },
    {
      "midi": 63,
      "hit": false,
      "t": 57103.434000000074,
      "d": 413.79299999999785,
      "v": 64
    },
    {
      "midi": 48,
      "hit": false,
      "t": 57103.43400000008,
      "d": 413.79299999999785,
      "v": 80
    },
    {
      "midi": 63,
      "hit": false,
      "t": 57517.22700000007,
      "d": 206.89650000000256,
      "v": 64
    },
    {
      "midi": 51,
      "hit": false,
      "t": 57517.22700000008,
      "d": 413.79299999999785,
      "v": 80
    },
    {
      "midi": 55,
      "hit": false,
      "t": 57517.22700000008,
      "d": 413.79299999999785,
      "v": 80
    },
    {
      "midi": 62,
      "hit": false,
      "t": 57724.123500000074,
      "d": 206.89650000000256,
      "v": 64
    },
    {
      "midi": 63,
      "hit": false,
      "t": 57931.02000000008,
      "d": 206.89650000000256,
      "v": 64
    },
    {
      "midi": 51,
      "hit": false,
      "t": 57931.02000000008,
      "d": 413.79299999999785,
      "v": 80
    },
    {
      "midi": 55,
      "hit": false,
      "t": 57931.02000000008,
      "d": 413.79299999999785,
      "v": 80
    },
    {
      "midi": 65,
      "hit": false,
      "t": 58137.91650000008,
      "d": 206.89650000000256,
      "v": 64
    },
    {
      "midi": 46,
      "hit": false,
      "t": 58344.813000000075,
      "d": 413.79299999999785,
      "v": 64
    },
    {
      "midi": 67,
      "hit": false,
      "t": 58344.81300000008,
      "d": 1241.3790000000008,
      "v": 64
    },
    {
      "midi": 51,
      "hit": false,
      "t": 58758.60600000007,
      "d": 413.79299999999785,
      "v": 80
    },
    {
      "midi": 55,
      "hit": false,
      "t": 58758.60600000007,
      "d": 413.79299999999785,
      "v": 80
    },
    {
      "midi": 51,
      "hit": false,
      "t": 59172.39900000007,
      "d": 413.79299999999785,
      "v": 80
    },
    {
      "midi": 55,
      "hit": false,
      "t": 59172.39900000007,
      "d": 413.79299999999785,
      "v": 80
    },
    {
      "midi": 44,
      "hit": false,
      "t": 59586.19200000007,
      "d": 413.79299999999785,
      "v": 64
    },
    {
      "midi": 60,
      "hit": false,
      "t": 59586.19200000008,
      "d": 206.89650000000256,
      "v": 64
    },
    {
      "midi": 58,
      "hit": false,
      "t": 59793.088500000085,
      "d": 206.89650000000256,
      "v": 64
    },
    {
      "midi": 51,
      "hit": false,
      "t": 59999.985000000066,
      "d": 413.79299999999785,
      "v": 64
    },
    {
      "midi": 56,
      "hit": false,
      "t": 59999.985000000066,
      "d": 413.79299999999785,
      "v": 64
    },
    {
      "midi": 60,
      "hit": false,
      "t": 59999.98500000009,
      "d": 206.89650000000256,
      "v": 64
    },
    {
      "midi": 62,
      "hit": false,
      "t": 60206.88150000009,
      "d": 206.89650000000256,
      "v": 64
    },
    {
      "midi": 51,
      "hit": false,
      "t": 60413.778000000064,
      "d": 413.79299999999785,
      "v": 64
    },
    {
      "midi": 56,
      "hit": false,
      "t": 60413.778000000064,
      "d": 413.79299999999785,
      "v": 64
    },
    {
      "midi": 63,
      "hit": false,
      "t": 60413.77800000009,
      "d": 206.89650000000256,
      "v": 64
    },
    {
      "midi": 65,
      "hit": false,
      "t": 60620.674500000096,
      "d": 206.89650000000256,
      "v": 64
    },
    {
      "midi": 46,
      "hit": false,
      "t": 60827.57100000006,
      "d": 413.79299999999785,
      "v": 64
    },
    {
      "midi": 67,
      "hit": false,
      "t": 60827.5710000001,
      "d": 413.79299999999785,
      "v": 64
    },
    {
      "midi": 51,
      "hit": false,
      "t": 61241.36400000006,
      "d": 413.79299999999785,
      "v": 64
    },
    {
      "midi": 55,
      "hit": false,
      "t": 61241.36400000006,
      "d": 413.79299999999785,
      "v": 64
    },
    {
      "midi": 63,
      "hit": false,
      "t": 61241.364000000096,
      "d": 413.79299999999785,
      "v": 64
    },
    {
      "midi": 51,
      "hit": false,
      "t": 61655.15700000006,
      "d": 413.79299999999785,
      "v": 64
    },
    {
      "midi": 55,
      "hit": false,
      "t": 61655.15700000006,
      "d": 413.79299999999785,
      "v": 64
    },
    {
      "midi": 70,
      "hit": false,
      "t": 61655.157000000094,
      "d": 413.79299999999785,
      "v": 64
    },
    {
      "midi": 44,
      "hit": false,
      "t": 62068.950000000055,
      "d": 413.79299999999785,
      "v": 64
    },
    {
      "midi": 68,
      "hit": false,
      "t": 62068.95000000009,
      "d": 206.89650000000256,
      "v": 64
    },
    {
      "midi": 70,
      "hit": false,
      "t": 62275.846500000094,
      "d": 206.89650000000256,
      "v": 64
    },
    {
      "midi": 51,
      "hit": false,
      "t": 62482.74300000005,
      "d": 413.79299999999785,
      "v": 64
    },
    {
      "midi": 56,
      "hit": false,
      "t": 62482.74300000005,
      "d": 413.79299999999785,
      "v": 64
    },
    {
      "midi": 72,
      "hit": false,
      "t": 62482.7430000001,
      "d": 413.79299999999785,
      "v": 64
    },
    {
      "midi": 51,
      "hit": false,
      "t": 62896.53600000005,
      "d": 413.79299999999785,
      "v": 64
    },
    {
      "midi": 56,
      "hit": false,
      "t": 62896.53600000005,
      "d": 413.79299999999785,
      "v": 64
    },
    {
      "midi": 62,
      "hit": false,
      "t": 62896.536000000095,
      "d": 413.79299999999785,
      "v": 64
    },
    {
      "midi": 51,
      "hit": false,
      "t": 63310.32900000005,
      "d": 1241.3790000000008,
      "v": 64
    },
    {
      "midi": 55,
      "hit": false,
      "t": 63310.32900000005,
      "d": 1241.3790000000008,
      "v": 64
    },
    {
      "midi": 58,
      "hit": false,
      "t": 63310.32900000005,
      "d": 1241.3790000000008,
      "v": 64
    },
    {
      "midi": 63,
      "hit": false,
      "t": 63310.32900000009,
      "d": 1241.3790000000008,
      "v": 64
    }
  ]
}