{
  "jsonPath": "Jazz/Jazz Clarinet/Artie Shaw/deep-purple.json",
  "path": "Jazz\\Jazz Clarinet\\Artie Shaw\\Deep Purple.mid",
  "name": "Deep Purple",
  "difficulty": "Advanced",
  "bpm": 88.00002346667293,
  "notes": [
    {
      "midi": 60,
      "hit": false,
      "t": 1789.0620229166666,
      "d": 173.2954083333334,
      "v": 64
    },
    {
      "midi": 62,
      "hit": false,
      "t": 2054.6869520833334,
      "d": 262.7840208333332,
      "v": 74
    },
    {
      "midi": 41,
      "hit": false,
      "t": 2712.35723125,
      "d": 211.647670833333,
      "v": 26
    },
    {
      "midi": 48,
      "hit": false,
      "t": 2713.777685416667,
      "d": 258.52265833333286,
      "v": 34
    },
    {
      "midi": 72,
      "hit": false,
      "t": 2739.3458604166667,
      "d": 949.5736104166663,
      "v": 51
    },
    {
      "midi": 62,
      "hit": false,
      "t": 2740.7663145833335,
      "d": 291.9033312499996,
      "v": 36
    },
    {
      "midi": 57,
      "hit": false,
      "t": 2750.70949375,
      "d": 267.0453833333331,
      "v": 35
    },
    {
      "midi": 67,
      "hit": false,
      "t": 2754.2606291666666,
      "d": 886.3633999999997,
      "v": 33
    },
    {
      "midi": 62,
      "hit": false,
      "t": 3410.5104541666665,
      "d": 63.21021041666654,
      "v": 47
    },
    {
      "midi": 60,
      "hit": false,
      "t": 3421.8740875,
      "d": 78.83520624999983,
      "v": 35
    },
    {
      "midi": 53,
      "hit": false,
      "t": 3452.413852083333,
      "d": 94.46020208333312,
      "v": 16
    },
    {
      "midi": 36,
      "hit": false,
      "t": 4126.419354166666,
      "d": 41.19317083333317,
      "v": 48
    },
    {
      "midi": 72,
      "hit": false,
      "t": 4583.09536875,
      "d": 441.05101875000037,
      "v": 108
    },
    {
      "midi": 62,
      "hit": false,
      "t": 4813.919170833333,
      "d": 29.829537500000697,
      "v": 47
    },
    {
      "midi": 60,
      "hit": false,
      "t": 4816.760079166666,
      "d": 39.062489583333445,
      "v": 40
    },
    {
      "midi": 53,
      "hit": false,
      "t": 4825.99303125,
      "d": 51.846577083332704,
      "v": 24
    },
    {
      "midi": 72,
      "hit": false,
      "t": 5074.572510416667,
      "d": 168.3238187500001,
      "v": 56
    },
    {
      "midi": 74,
      "hit": false,
      "t": 5288.3508625,
      "d": 133.52269166666701,
      "v": 68
    },
    {
      "midi": 42,
      "hit": false,
      "t": 5510.651939583335,
      "d": 156.96018541666672,
      "v": 36
    },
    {
      "midi": 75,
      "hit": false,
      "t": 5512.7826208333345,
      "d": 362.21581250000054,
      "v": 55
    },
    {
      "midi": 54,
      "hit": false,
      "t": 5557.526927083334,
      "d": 172.58518125000046,
      "v": 23
    },
    {
      "midi": 63,
      "hit": false,
      "t": 6224.430158333335,
      "d": 896.3065791666668,
      "v": 44
    },
    {
      "midi": 60,
      "hit": false,
      "t": 6227.271066666669,
      "d": 6.392043750000084,
      "v": 44
    },
    {
      "midi": 66,
      "hit": false,
      "t": 6240.765381250002,
      "d": 1012.0735937499994,
      "v": 50
    },
    {
      "midi": 69,
      "hit": false,
      "t": 6251.4187875000025,
      "d": 1086.647437499999,
      "v": 44
    },
    {
      "midi": 57,
      "hit": false,
      "t": 6873.577712500002,
      "d": 290.4828770833328,
      "v": 33
    },
    {
      "midi": 54,
      "hit": false,
      "t": 7524.855947916668,
      "d": 253.5510687499991,
      "v": 35
    },
    {
      "midi": 60,
      "hit": false,
      "t": 7525.566175000001,
      "d": 220.1703958333328,
      "v": 40
    },
    {
      "midi": 72,
      "hit": false,
      "t": 7526.276402083334,
      "d": 184.65904166666678,
      "v": 44
    },
    {
      "midi": 65,
      "hit": false,
      "t": 7532.668445833334,
      "d": 185.36926874999972,
      "v": 36
    },
    {
      "midi": 44,
      "hit": false,
      "t": 7545.452533333334,
      "d": 276.9885624999997,
      "v": 26
    },
    {
      "midi": 69,
      "hit": false,
      "t": 7563.9184375,
      "d": 175.42608958333312,
      "v": 16
    },
    {
      "midi": 50,
      "hit": false,
      "t": 7943.8899270833335,
      "d": 177.55677083333285,
      "v": 38
    },
    {
      "midi": 73,
      "hit": false,
      "t": 7948.861516666667,
      "d": 207.38630833333264,
      "v": 45
    },
    {
      "midi": 61,
      "hit": false,
      "t": 7952.412652083333,
      "d": 150.56814166666663,
      "v": 55
    },
    {
      "midi": 68,
      "hit": false,
      "t": 7973.719464583333,
      "d": 110.0851979166664,
      "v": 42
    },
    {
      "midi": 74,
      "hit": false,
      "t": 8178.264864583332,
      "d": 132.81246458333226,
      "v": 49
    },
    {
      "midi": 43,
      "hit": false,
      "t": 8181.105772916666,
      "d": 80.96588749999864,
      "v": 24
    },
    {
      "midi": 62,
      "hit": false,
      "t": 8182.526227083333,
      "d": 71.7329354166659,
      "v": 41
    },
    {
      "midi": 53,
      "hit": false,
      "t": 8184.6569083333325,
      "d": 132.81246458333226,
      "v": 25
    },
    {
      "midi": 70,
      "hit": false,
      "t": 8210.935310416666,
      "d": 79.54543333333277,
      "v": 30
    },
    {
      "midi": 79,
      "hit": false,
      "t": 8637.781787499998,
      "d": 637.7839208333316,
      "v": 66
    },
    {
      "midi": 67,
      "hit": false,
      "t": 8648.435193749998,
      "d": 629.9714229166657,
      "v": 62
    },
    {
      "midi": 74,
      "hit": false,
      "t": 8656.247691666664,
      "d": 716.6191270833333,
      "v": 64
    },
    {
      "midi": 55,
      "hit": false,
      "t": 8833.094235416664,
      "d": 64.63066458333378,
      "v": 31
    },
    {
      "midi": 58,
      "hit": false,
      "t": 8839.486279166664,
      "d": 44.74430625000059,
      "v": 45
    },
    {
      "midi": 50,
      "hit": false,
      "t": 9298.292974999997,
      "d": 242.8976625000014,
      "v": 35
    },
    {
      "midi": 82,
      "hit": false,
      "t": 9531.24745833333,
      "d": 340.90899999999965,
      "v": 58
    },
    {
      "midi": 53,
      "hit": false,
      "t": 9533.37813958333,
      "d": 105.11360833333492,
      "v": 37
    },
    {
      "midi": 70,
      "hit": false,
      "t": 9539.059956249997,
      "d": 253.5510687499991,
      "v": 48
    },
    {
      "midi": 74,
      "hit": false,
      "t": 9541.190637499998,
      "d": 213.06812499999978,
      "v": 57
    },
    {
      "midi": 77,
      "hit": false,
      "t": 9558.236087499998,
      "d": 226.5624395833329,
      "v": 39
    },
    {
      "midi": 43,
      "hit": false,
      "t": 9964.485979166662,
      "d": 156.24995833333378,
      "v": 38
    },
    {
      "midi": 51,
      "hit": false,
      "t": 10211.645004166663,
      "d": 61.07952916666727,
      "v": 51
    },
    {
      "midi": 86,
      "hit": false,
      "t": 10226.559772916664,
      "d": 352.9828604166669,
      "v": 66
    },
    {
      "midi": 74,
      "hit": false,
      "t": 10230.821135416663,
      "d": 362.21581250000054,
      "v": 60
    },
    {
      "midi": 82,
      "hit": false,
      "t": 10234.37227083333,
      "d": 407.67034583333407,
      "v": 49
    },
    {
      "midi": 79,
      "hit": false,
      "t": 10249.28703958333,
      "d": 371.4487645833324,
      "v": 50
    },
    {
      "midi": 72,
      "hit": false,
      "t": 10685.366468749997,
      "d": 35.51135416666693,
      "v": 51
    },
    {
      "midi": 84,
      "hit": false,
      "t": 10695.309647916663,
      "d": 82.38634166666816,
      "v": 37
    },
    {
      "midi": 79,
      "hit": false,
      "t": 10703.832372916664,
      "d": 31.960218750000422,
      "v": 43
    },
    {
      "midi": 36,
      "hit": false,
      "t": 10911.928908333331,
      "d": 105.82383541666604,
      "v": 27
    },
    {
      "midi": 52,
      "hit": false,
      "t": 10939.62776458333,
      "d": 203.83517291666612,
      "v": 26
    },
    {
      "midi": 64,
      "hit": false,
      "t": 11594.457135416664,
      "d": 309.659008333334,
      "v": 53
    },
    {
      "midi": 58,
      "hit": false,
      "t": 11611.502585416665,
      "d": 293.3237854166655,
      "v": 44
    },
    {
      "midi": 60,
      "hit": false,
      "t": 11619.315083333331,
      "d": 212.35789791666684,
      "v": 39
    },
    {
      "midi": 80,
      "hit": false,
      "t": 12312.496716666665,
      "d": 583.0964354166681,
      "v": 74
    },
    {
      "midi": 70,
      "hit": false,
      "t": 12319.598987499998,
      "d": 553.9771250000013,
      "v": 82
    },
    {
      "midi": 68,
      "hit": false,
      "t": 12324.570577083332,
      "d": 348.72149791666743,
      "v": 55
    },
    {
      "midi": 73,
      "hit": false,
      "t": 12328.121712499998,
      "d": 579.5453000000016,
      "v": 55
    },
    {
      "midi": 76,
      "hit": false,
      "t": 12330.25239375,
      "d": 607.2441562500007,
      "v": 67
    },
    {
      "midi": 67,
      "hit": false,
      "t": 12647.723899999999,
      "d": 299.00560208333445,
      "v": 64
    },
    {
      "midi": 81,
      "hit": false,
      "t": 12989.343127083333,
      "d": 337.35786458333496,
      "v": 64
    },
    {
      "midi": 64,
      "hit": false,
      "t": 12992.184035416667,
      "d": 311.0794625000017,
      "v": 48
    },
    {
      "midi": 73,
      "hit": false,
      "t": 12994.314716666668,
      "d": 350.1419520833333,
      "v": 49
    },
    {
      "midi": 70,
      "hit": false,
      "t": 12999.286306250002,
      "d": 311.7896895833328,
      "v": 52
    },
    {
      "midi": 76,
      "hit": false,
      "t": 13002.127214583335,
      "d": 340.90899999999965,
      "v": 51
    },
    {
      "midi": 60,
      "hit": false,
      "t": 13333.803262500001,
      "d": 88.06815833333349,
      "v": 49
    },
    {
      "midi": 69,
      "hit": false,
      "t": 13679.683852083335,
      "d": 329.54536666666354,
      "v": 77
    },
    {
      "midi": 79,
      "hit": false,
      "t": 13680.394079166668,
      "d": 288.3521958333313,
      "v": 69
    },
    {
      "midi": 74,
      "hit": false,
      "t": 13681.814533333334,
      "d": 303.977191666665,
      "v": 75
    },
    {
      "midi": 64,
      "hit": false,
      "t": 13700.280437500001,
      "d": 181.8181333333323,
      "v": 47
    },
    {
      "midi": 77,
      "hit": false,
      "t": 14313.916637499999,
      "d": 246.4487979166679,
      "v": 57
    },
    {
      "midi": 67,
      "hit": false,
      "t": 14319.598454166666,
      "d": 334.5169562500014,
      "v": 47
    },
    {
      "midi": 62,
      "hit": false,
      "t": 14321.018908333332,
      "d": 258.52265833333513,
      "v": 41
    },
    {
      "midi": 72,
      "hit": false,
      "t": 14325.990497916666,
      "d": 282.6703791666678,
      "v": 57
    },
    {
      "midi": 62,
      "hit": false,
      "t": 14977.268733333334,
      "d": 378.5510354166672,
      "v": 45
    },
    {
      "midi": 72,
      "hit": false,
      "t": 14977.978960416667,
      "d": 271.3067458333335,
      "v": 46
    },
    {
      "midi": 67,
      "hit": false,
      "t": 14982.950550000001,
      "d": 301.13628333333327,
      "v": 47
    },
    {
      "midi": 57,
      "hit": false,
      "t": 14992.893729166668,
      "d": 363.6362666666664,
      "v": 45
    },
    {
      "midi": 69,
      "hit": false,
      "t": 15669.0299125,
      "d": 229.40334791666464,
      "v": 41
    },
    {
      "midi": 60,
      "hit": false,
      "t": 15676.132183333333,
      "d": 299.0056020833308,
      "v": 32
    },
    {
      "midi": 64,
      "hit": false,
      "t": 15677.552637499999,
      "d": 263.4942479166657,
      "v": 49
    },
    {
      "midi": 53,
      "hit": false,
      "t": 15700.990131249999,
      "d": 156.24995833333196,
      "v": 25
    },
    {
      "midi": 61,
      "hit": false,
      "t": 16370.024043749998,
      "d": 464.48851249999825,
      "v": 36
    },
    {
      "midi": 67,
      "hit": false,
      "t": 16374.99563333333,
      "d": 857.9543166666645,
      "v": 38
    },
    {
      "midi": 55,
      "hit": false,
      "t": 16399.143354166663,
      "d": 343.7499083333314,
      "v": 22
    },
    {
      "midi": 46,
      "hit": false,
      "t": 16411.21721458333,
      "d": 981.533829166663,
      "v": 25
    },
    {
      "midi": 39,
      "hit": false,
      "t": 16419.739939583327,
      "d": 942.4713395833314,
      "v": 25
    },
    {
      "midi": 61,
      "hit": false,
      "t": 17039.057956249995,
      "d": 216.61926041666447,
      "v": 26
    },
    {
      "midi": 55,
      "hit": false,
      "t": 17066.756812499996,
      "d": 124.9999666666663,
      "v": 24
    },
    {
      "midi": 65,
      "hit": false,
      "t": 18090.194039583326,
      "d": 540.4828104166663,
      "v": 53
    },
    {
      "midi": 61,
      "hit": false,
      "t": 18093.745174999993,
      "d": 613.6362000000008,
      "v": 33
    },
    {
      "midi": 60,
      "hit": false,
      "t": 18104.398581249992,
      "d": 585.9373437499999,
      "v": 34
    },
    {
      "midi": 55,
      "hit": false,
      "t": 18130.676983333327,
      "d": 602.9827937500013,
      "v": 27
    },
    {
      "midi": 68,
      "hit": false,
      "t": 18411.926908333327,
      "d": 198.86358333333192,
      "v": 69
    },
    {
      "midi": 69,
      "hit": false,
      "t": 18614.341627083326,
      "d": 71.02270833333387,
      "v": 60
    },
    {
      "midi": 74,
      "hit": false,
      "t": 18836.64270416666,
      "d": 464.48851249999643,
      "v": 90
    },
    {
      "midi": 62,
      "hit": false,
      "t": 19058.943781249993,
      "d": 186.07949583333175,
      "v": 57
    },
    {
      "midi": 50,
      "hit": false,
      "t": 19294.028945833325,
      "d": 113.636333333332,
      "v": 34
    },
    {
      "midi": 62,
      "hit": false,
      "t": 19537.63683541666,
      "d": 125.71019375000105,
      "v": 36
    },
    {
      "midi": 68,
      "hit": false,
      "t": 19782.66517916666,
      "d": 165.48291041666744,
      "v": 64
    },
    {
      "midi": 60,
      "hit": false,
      "t": 19801.131083333326,
      "d": 472.30101041666785,
      "v": 33
    },
    {
      "midi": 69,
      "hit": false,
      "t": 19994.312849999995,
      "d": 85.93747708333467,
      "v": 38
    },
    {
      "midi": 68,
      "hit": false,
      "t": 20056.102606249995,
      "d": 215.1988062499986,
      "v": 36
    },
    {
      "midi": 64,
      "hit": false,
      "t": 20183.233254166662,
      "d": 90.90906666666706,
      "v": 53
    },
    {
      "midi": 60,
      "hit": false,
      "t": 20431.102506249998,
      "d": 98.01133750000372,
      "v": 36
    },
    {
      "midi": 67,
      "hit": false,
      "t": 20442.466139583332,
      "d": 159.80109375000393,
      "v": 55
    },
    {
      "midi": 50,
      "hit": false,
      "t": 20470.164995833333,
      "d": 132.81246458333771,
      "v": 20
    },
    {
      "midi": 69,
      "hit": false,
      "t": 20656.954718750003,
      "d": 92.32952083333294,
      "v": 32
    },
    {
      "midi": 67,
      "hit": false,
      "t": 20725.846745833336,
      "d": 117.18746874999852,
      "v": 37
    },
    {
      "midi": 64,
      "hit": false,
      "t": 20869.31261666667,
      "d": 208.80676250000033,
      "v": 34
    },
    {
      "midi": 65,
      "hit": false,
      "t": 21110.07959791667,
      "d": 418.3237520833318,
      "v": 53
    },
    {
      "midi": 39,
      "hit": false,
      "t": 21122.153458333334,
      "d": 336.6476374999984,
      "v": 32
    },
    {
      "midi": 66,
      "hit": false,
      "t": 21567.465839583332,
      "d": 1686.079095833331,
      "v": 48
    },
    {
      "midi": 38,
      "hit": false,
      "t": 21834.511222916663,
      "d": 675.4259562499974,
      "v": 46
    },
    {
      "midi": 50,
      "hit": false,
      "t": 22290.47701041666,
      "d": 208.80676250000033,
      "v": 44
    },
    {
      "midi": 55,
      "hit": false,
      "t": 22551.840577083327,
      "d": 556.818033333333,
      "v": 37
    },
    {
      "midi": 40,
      "hit": false,
      "t": 22552.55080416666,
      "d": 1058.9485812500025,
      "v": 40
    },
    {
      "midi": 55,
      "hit": false,
      "t": 23183.942681249995,
      "d": 446.7328354166675,
      "v": 44
    },
    {
      "midi": 41,
      "hit": false,
      "t": 23603.686887499996,
      "d": 263.4942479166675,
      "v": 37
    },
    {
      "midi": 56,
      "hit": false,
      "t": 23607.948249999998,
      "d": 214.48857916666384,
      "v": 57
    },
    {
      "midi": 57,
      "hit": false,
      "t": 23866.47090833333,
      "d": 463.06805833333783,
      "v": 47
    },
    {
      "midi": 42,
      "hit": false,
      "t": 23874.99363333333,
      "d": 340.19877291666853,
      "v": 39
    },
    {
      "midi": 42,
      "hit": false,
      "t": 24293.317385416667,
      "d": 235.0851645833318,
      "v": 25
    },
    {
      "midi": 58,
      "hit": false,
      "t": 24546.868454166666,
      "d": 139.9147354166671,
      "v": 50
    },
    {
      "midi": 53,
      "hit": false,
      "t": 24551.129816666667,
      "d": 82.38634166666816,
      "v": 33
    },
    {
      "midi": 43,
      "hit": false,
      "t": 24553.260497916668,
      "d": 124.9999666666663,
      "v": 29
    },
    {
      "midi": 61,
      "hit": false,
      "t": 25281.243258333332,
      "d": 72.44316249999974,
      "v": 52
    },
    {
      "midi": 55,
      "hit": false,
      "t": 25312.49325,
      "d": 76.70452499999737,
      "v": 33
    },
    {
      "midi": 81,
      "hit": false,
      "t": 25694.59542083333,
      "d": 103.69315416666723,
      "v": 79
    },
    {
      "midi": 50,
      "hit": false,
      "t": 25703.828372916665,
      "d": 213.0681250000016,
      "v": 74
    },
    {
      "midi": 72,
      "hit": false,
      "t": 25705.24882708333,
      "d": 63.920437500000844,
      "v": 68
    },
    {
      "midi": 43,
      "hit": false,
      "t": 25950.987397916666,
      "d": 75.28407083333514,
      "v": 47
    },
    {
      "midi": 53,
      "hit": false,
      "t": 25954.538533333332,
      "d": 131.39201041667184,
      "v": 45
    },
    {
      "midi": 84,
      "hit": false,
      "t": 25956.669214583333,
      "d": 290.48287708333737,
      "v": 88
    },
    {
      "midi": 72,
      "hit": false,
      "t": 25961.640804166665,
      "d": 290.48287708333737,
      "v": 90
    },
    {
      "midi": 77,
      "hit": false,
      "t": 25963.771485416666,
      "d": 272.7272000000048,
      "v": 88
    },
    {
      "midi": 83,
      "hit": false,
      "t": 26369.31115,
      "d": 122.15905833333454,
      "v": 70
    },
    {
      "midi": 77,
      "hit": false,
      "t": 26382.805464583336,
      "d": 169.03404583333395,
      "v": 66
    },
    {
      "midi": 71,
      "hit": false,
      "t": 26384.936145833337,
      "d": 107.95451666666486,
      "v": 66
    },
    {
      "midi": 61,
      "hit": false,
      "t": 26580.958820833337,
      "d": 154.8295041666679,
      "v": 36
    },
    {
      "midi": 58,
      "hit": false,
      "t": 26602.97586041667,
      "d": 219.4601687500035,
      "v": 53
    },
    {
      "midi": 53,
      "hit": false,
      "t": 26622.15199166667,
      "d": 169.7442729166687,
      "v": 19
    },
    {
      "midi": 82,
      "hit": false,
      "t": 26627.833808333336,
      "d": 235.08516458333906,
      "v": 62
    },
    {
      "midi": 77,
      "hit": false,
      "t": 26642.748577083337,
      "d": 163.35222916667044,
      "v": 42
    },
    {
      "midi": 70,
      "hit": false,
      "t": 26643.458804166672,
      "d": 181.107906250003,
      "v": 46
    },
    {
      "midi": 81,
      "hit": false,
      "t": 27056.10073958334,
      "d": 119.31814999999915,
      "v": 66
    },
    {
      "midi": 69,
      "hit": false,
      "t": 27068.88482708334,
      "d": 70.31248124999911,
      "v": 63
    },
    {
      "midi": 73,
      "hit": false,
      "t": 27077.40755208334,
      "d": 53.26703124999767,
      "v": 37
    },
    {
      "midi": 77,
      "hit": false,
      "t": 27080.24846041667,
      "d": 87.35793125000055,
      "v": 41
    },
    {
      "midi": 56,
      "hit": false,
      "t": 27258.51545833334,
      "d": 192.47153958333365,
      "v": 43
    },
    {
      "midi": 46,
      "hit": false,
      "t": 27265.61772916667,
      "d": 140.62496250000186,
      "v": 36
    },
    {
      "midi": 80,
      "hit": false,
      "t": 27444.594954166674,
      "d": 303.26696458333754,
      "v": 42
    },
    {
      "midi": 68,
      "hit": false,
      "t": 27473.004037500006,
      "d": 199.5738104166703,
      "v": 25
    },
    {
      "midi": 77,
      "hit": false,
      "t": 27473.71426458334,
      "d": 178.2669979166676,
      "v": 35
    },
    {
      "midi": 73,
      "hit": false,
      "t": 27490.049487500008,
      "d": 258.52265833333877,
      "v": 20
    },
    {
      "midi": 61,
      "hit": false,
      "t": 27911.21414791668,
      "d": 253.5510687499991,
      "v": 36
    },
    {
      "midi": 65,
      "hit": false,
      "t": 27916.18573750001,
      "d": 193.89199374999953,
      "v": 32
    },
    {
      "midi": 73,
      "hit": false,
      "t": 27918.31641875001,
      "d": 252.84084166666435,
      "v": 34
    },
    {
      "midi": 79,
      "hit": false,
      "t": 27924.70846250001,
      "d": 187.49995000000126,
      "v": 35
    },
    {
      "midi": 67,
      "hit": false,
      "t": 27932.520960416678,
      "d": 257.81243124999673,
      "v": 31
    },
    {
      "midi": 60,
      "hit": false,
      "t": 27948.856183333344,
      "d": 203.83517291666794,
      "v": 29
    },
    {
      "midi": 54,
      "hit": false,
      "t": 28491.469675000008,
      "d": 120.7386041666723,
      "v": 34
    },
    {
      "midi": 56,
      "hit": false,
      "t": 28531.95261875001,
      "d": 58.2386208333337,
      "v": 34
    },
    {
      "midi": 61,
      "hit": false,
      "t": 28604.395781250012,
      "d": 264.9147020833334,
      "v": 56
    },
    {
      "midi": 57,
      "hit": false,
      "t": 28613.628733333346,
      "d": 187.49995000000126,
      "v": 58
    },
    {
      "midi": 65,
      "hit": false,
      "t": 28618.600322916678,
      "d": 252.84084166666798,
      "v": 50
    },
    {
      "midi": 72,
      "hit": false,
      "t": 28620.73100416668,
      "d": 292.61355833333073,
      "v": 37
    },
    {
      "midi": 68,
      "hit": false,
      "t": 28622.86168541668,
      "d": 286.9317416666636,
      "v": 37
    },
    {
      "midi": 56,
      "hit": false,
      "t": 28800.418456250012,
      "d": 83.09656874999928,
      "v": 33
    },
    {
      "midi": 55,
      "hit": false,
      "t": 28903.401383333345,
      "d": 115.76701458333264,
      "v": 38
    },
    {
      "midi": 54,
      "hit": false,
      "t": 29019.878625000012,
      "d": 34.09089999999924,
      "v": 51
    },
    {
      "midi": 53,
      "hit": false,
      "t": 29136.35586666668,
      "d": 169.03404583333395,
      "v": 32
    },
    {
      "midi": 61,
      "hit": false,
      "t": 29318.174000000014,
      "d": 214.48857916666748,
      "v": 53
    },
    {
      "midi": 72,
      "hit": false,
      "t": 29335.219450000015,
      "d": 242.1874354166648,
      "v": 42
    },
    {
      "midi": 57,
      "hit": false,
      "t": 29340.901266666682,
      "d": 200.2840374999978,
      "v": 52
    },
    {
      "midi": 65,
      "hit": false,
      "t": 29347.29331041668,
      "d": 176.84654375000173,
      "v": 46
    },
    {
      "midi": 56,
      "hit": false,
      "t": 29548.287575000013,
      "d": 78.83520625000165,
      "v": 56
    },
    {
      "midi": 60,
      "hit": false,
      "t": 29956.668147916684,
      "d": 278.4090166666683,
      "v": 43
    },
    {
      "midi": 64,
      "hit": false,
      "t": 29961.639737500016,
      "d": 377.13058125000316,
      "v": 48
    },
    {
      "midi": 55,
      "hit": false,
      "t": 29967.321554166683,
      "d": 262.07379375000164,
      "v": 37
    },
    {
      "midi": 67,
      "hit": false,
      "t": 29973.00337083335,
      "d": 401.98852916666874,
      "v": 34
    },
    {
      "midi": 45,
      "hit": false,
      "t": 29992.889729166684,
      "d": 157.67041249999966,
      "v": 45
    },
    {
      "midi": 64,
      "hit": false,
      "t": 30656.24182500002,
      "d": 210.2272166666662,
      "v": 46
    },
    {
      "midi": 57,
      "hit": false,
      "t": 30664.054322916687,
      "d": 316.7612791666652,
      "v": 47
    },
    {
      "midi": 60,
      "hit": false,
      "t": 30680.389545833354,
      "d": 223.01130416666638,
      "v": 45
    },
    {
      "midi": 76,
      "hit": false,
      "t": 31127.832608333352,
      "d": 384.23285208333255,
      "v": 105
    },
    {
      "midi": 79,
      "hit": false,
      "t": 31134.22465208335,
      "d": 426.8464770833343,
      "v": 84
    },
    {
      "midi": 45,
      "hit": false,
      "t": 31347.292777083352,
      "d": 85.93747708333467,
      "v": 51
    },
    {
      "midi": 55,
      "hit": false,
      "t": 31357.946183333355,
      "d": 129.26132916666393,
      "v": 31
    },
    {
      "midi": 78,
      "hit": false,
      "t": 31608.65634375002,
      "d": 158.3806395833344,
      "v": 57
    },
    {
      "midi": 75,
      "hit": false,
      "t": 31610.78702500002,
      "d": 170.45449999999983,
      "v": 62
    },
    {
      "midi": 74,
      "hit": false,
      "t": 31821.72446875002,
      "d": 161.2215479166698,
      "v": 62
    },
    {
      "midi": 77,
      "hit": false,
      "t": 31829.53696666669,
      "d": 127.84087500000169,
      "v": 54
    },
    {
      "midi": 64,
      "hit": false,
      "t": 32029.82100416669,
      "d": 79.54543333333277,
      "v": 44
    },
    {
      "midi": 55,
      "hit": false,
      "t": 32038.34372916669,
      "d": 88.0681583333353,
      "v": 24
    },
    {
      "midi": 60,
      "hit": false,
      "t": 32049.707362500023,
      "d": 94.46020208333357,
      "v": 43
    },
    {
      "midi": 79,
      "hit": false,
      "t": 32052.548270833355,
      "d": 119.31815000000279,
      "v": 59
    },
    {
      "midi": 57,
      "hit": false,
      "t": 32053.25849791669,
      "d": 176.13631666666697,
      "v": 42
    },
    {
      "midi": 76,
      "hit": false,
      "t": 32055.38917916669,
      "d": 92.32952083333294,
      "v": 64
    },
    {
      "midi": 75,
      "hit": false,
      "t": 32270.58798541669,
      "d": 132.81246458333408,
      "v": 51
    },
    {
      "midi": 78,
      "hit": false,
      "t": 32277.69025625002,
      "d": 134.23291874999995,
      "v": 36
    },
    {
      "midi": 74,
      "hit": false,
      "t": 32477.974293750023,
      "d": 141.33518958333298,
      "v": 59
    },
    {
      "midi": 77,
      "hit": false,
      "t": 32483.65611041669,
      "d": 112.21587916666613,
      "v": 53
    },
    {
      "midi": 44,
      "hit": false,
      "t": 32713.059458333355,
      "d": 307.52832708333517,
      "v": 50
    },
    {
      "midi": 53,
      "hit": false,
      "t": 32732.235589583353,
      "d": 314.63059791667183,
      "v": 27
    },
    {
      "midi": 62,
      "hit": false,
      "t": 33389.90586875002,
      "d": 94.46020208333357,
      "v": 49
    },
    {
      "midi": 56,
      "hit": false,
      "t": 33399.84904791669,
      "d": 161.2215479166698,
      "v": 38
    },
    {
      "midi": 59,
      "hit": false,
      "t": 33413.34336250002,
      "d": 103.69315416667087,
      "v": 38
    },
    {
      "midi": 53,
      "hit": false,
      "t": 33443.17290000002,
      "d": 105.82383541666786,
      "v": 17
    },
    {
      "midi": 50,
      "hit": false,
      "t": 33850.843245833355,
      "d": 180.3976791666646,
      "v": 49
    },
    {
      "midi": 72,
      "hit": false,
      "t": 34101.553406250016,
      "d": 157.6704125000033,
      "v": 105
    },
    {
      "midi": 53,
      "hit": false,
      "t": 34102.973860416685,
      "d": 144.8863249999995,
      "v": 38
    },
    {
      "midi": 76,
      "hit": false,
      "t": 34110.78635833335,
      "d": 155.53973124999902,
      "v": 85
    },
    {
      "midi": 75,
      "hit": false,
      "t": 34333.08743541669,
      "d": 143.46587083332997,
      "v": 64
    },
    {
      "midi": 71,
      "hit": false,
      "t": 34338.76925208335,
      "d": 139.91473541666346,
      "v": 68
    },
    {
      "midi": 74,
      "hit": false,
      "t": 34545.44533333335,
      "d": 145.59655208333425,
      "v": 63
    },
    {
      "midi": 71,
      "hit": false,
      "t": 34548.28624166668,
      "d": 127.84087500000169,
      "v": 53
    },
    {
      "midi": 67,
      "hit": false,
      "t": 34561.780556250014,
      "d": 95.17042916666833,
      "v": 48
    },
    {
      "midi": 56,
      "hit": false,
      "t": 34774.138454166685,
      "d": 174.0056354166736,
      "v": 36
    },
    {
      "midi": 76,
      "hit": false,
      "t": 34774.84868125002,
      "d": 136.36360000000423,
      "v": 70
    },
    {
      "midi": 62,
      "hit": false,
      "t": 34787.632768750016,
      "d": 62.49998333333497,
      "v": 38
    },
    {
      "midi": 72,
      "hit": false,
      "t": 34795.445266666684,
      "d": 81.67611458333704,
      "v": 52
    },
    {
      "midi": 59,
      "hit": false,
      "t": 34796.86572083335,
      "d": 103.69315416667087,
      "v": 38
    },
    {
      "midi": 53,
      "hit": false,
      "t": 34815.33162500002,
      "d": 137.07382708333898,
      "v": 20
    },
    {
      "midi": 75,
      "hit": false,
      "t": 34998.570212500024,
      "d": 120.73860416666867,
      "v": 50
    },
    {
      "midi": 71,
      "hit": false,
      "t": 35001.411120833356,
      "d": 159.0908666666728,
      "v": 60
    },
    {
      "midi": 71,
      "hit": false,
      "t": 35218.03038125003,
      "d": 93.74997499999881,
      "v": 34
    },
    {
      "midi": 74,
      "hit": false,
      "t": 35220.161062500025,
      "d": 112.92610625000088,
      "v": 53
    },
    {
      "midi": 44,
      "hit": false,
      "t": 35227.97356041669,
      "d": 114.34656041666312,
      "v": 34
    },
    {
      "midi": 43,
      "hit": false,
      "t": 35458.797362500016,
      "d": 79.54543333333277,
      "v": 31
    },
    {
      "midi": 74,
      "hit": false,
      "t": 35465.189406250014,
      "d": 115.76701458333264,
      "v": 40
    },
    {
      "midi": 65,
      "hit": false,
      "t": 35476.55303958335,
      "d": 75.2840708333315,
      "v": 39
    },
    {
      "midi": 70,
      "hit": false,
      "t": 35480.104175000015,
      "d": 122.1590583333309,
      "v": 39
    },
    {
      "midi": 65,
      "hit": false,
      "t": 35604.39391458334,
      "d": 80.25566041666752,
      "v": 28
    },
    {
      "midi": 74,
      "hit": false,
      "t": 35664.76321666667,
      "d": 92.32952083333657,
      "v": 31
    },
    {
      "midi": 70,
      "hit": false,
      "t": 35698.85411666668,
      "d": 80.96588750000228,
      "v": 40
    },
    {
      "midi": 65,
      "hit": false,
      "t": 35772.00750625001,
      "d": 63.210210416669725,
      "v": 29
    },
    {
      "midi": 74,
      "hit": false,
      "t": 35857.94498333335,
      "d": 57.52839375000622,
      "v": 44
    },
    {
      "midi": 70,
      "hit": false,
      "t": 35862.20634583335,
      "d": 30.539764583336364,
      "v": 38
    },
    {
      "midi": 58,
      "hit": false,
      "t": 36096.581283333355,
      "d": 69.60225416666799,
      "v": 48
    },
    {
      "midi": 50,
      "hit": false,
      "t": 36403.39938333336,
      "d": 198.15335624999716,
      "v": 66
    },
    {
      "midi": 53,
      "hit": false,
      "t": 36618.598189583354,
      "d": 118.60792291666439,
      "v": 60
    },
    {
      "midi": 57,
      "hit": false,
      "t": 36834.50722291668,
      "d": 213.77835208333272,
      "v": 74
    },
    {
      "midi": 58,
      "hit": false,
      "t": 36841.60949375002,
      "d": 630.6816499999986,
      "v": 57
    },
    {
      "midi": 62,
      "hit": false,
      "t": 36848.71176458335,
      "d": 622.8691520833308,
      "v": 53
    },
    {
      "midi": 65,
      "hit": false,
      "t": 36858.654943750014,
      "d": 670.454366666665,
      "v": 51
    },
    {
      "midi": 56,
      "hit": false,
      "t": 37043.31398541668,
      "d": 191.0510854166714,
      "v": 60
    },
    {
      "midi": 55,
      "hit": false,
      "t": 37291.183237500016,
      "d": 308.9487812499938,
      "v": 47
    },
    {
      "midi": 50,
      "hit": false,
      "t": 37546.15476041668,
      "d": 253.55106874999183,
      "v": 50
    },
    {
      "midi": 61,
      "hit": false,
      "t": 37754.961522916674,
      "d": 150.568141666663,
      "v": 46
    },
    {
      "midi": 58,
      "hit": false,
      "t": 37757.09220416667,
      "d": 151.27836874999775,
      "v": 25
    },
    {
      "midi": 49,
      "hit": false,
      "t": 37925.41602291667,
      "d": 63.21021041666245,
      "v": 42
    },
    {
      "midi": 62,
      "hit": false,
      "t": 37970.870556249996,
      "d": 135.65337291666947,
      "v": 44
    },
    {
      "midi": 58,
      "hit": false,
      "t": 38194.592087499994,
      "d": 149.14768750000803,
      "v": 31
    },
    {
      "midi": 67,
      "hit": false,
      "t": 38203.114812499996,
      "d": 166.19313750000583,
      "v": 46
    },
    {
      "midi": 36,
      "hit": false,
      "t": 38223.71139791666,
      "d": 89.48861250000482,
      "v": 44
    },
    {
      "midi": 79,
      "hit": false,
      "t": 38878.540768750005,
      "d": 255.68175000000338,
      "v": 55
    },
    {
      "midi": 64,
      "hit": false,
      "t": 38879.961222916674,
      "d": 93.74997499999881,
      "v": 57
    },
    {
      "midi": 67,
      "hit": false,
      "t": 38881.381677083344,
      "d": 306.8180999999968,
      "v": 55
    },
    {
      "midi": 76,
      "hit": false,
      "t": 38883.51235833334,
      "d": 274.8578812499982,
      "v": 46
    },
    {
      "midi": 73,
      "hit": false,
      "t": 38886.35326666667,
      "d": 316.05105208333407,
      "v": 36
    },
    {
      "midi": 58,
      "hit": false,
      "t": 38907.66007916667,
      "d": 114.3465604166704,
      "v": 33
    },
    {
      "midi": 60,
      "hit": false,
      "t": 38912.63166875001,
      "d": 78.83520624999801,
      "v": 33
    },
    {
      "midi": 48,
      "hit": false,
      "t": 39575.98376458334,
      "d": 117.18746875000215,
      "v": 62
    },
    {
      "midi": 72,
      "hit": false,
      "t": 39955.95525416668,
      "d": 159.0908666666728,
      "v": 66
    },
    {
      "midi": 64,
      "hit": false,
      "t": 39961.63707083335,
      "d": 281.2499250000037,
      "v": 60
    },
    {
      "midi": 63,
      "hit": false,
      "t": 39965.188206250015,
      "d": 169.74427291667234,
      "v": 65
    },
    {
      "midi": 68,
      "hit": false,
      "t": 39969.44956875002,
      "d": 294.744239583335,
      "v": 61
    },
    {
      "midi": 58,
      "hit": false,
      "t": 39978.68252083335,
      "d": 431.818066666674,
      "v": 57
    },
    {
      "midi": 74,
      "hit": false,
      "t": 40566.04031875002,
      "d": 271.30674583333166,
      "v": 64
    },
    {
      "midi": 64,
      "hit": false,
      "t": 40572.43236250002,
      "d": 313.2101437500023,
      "v": 63
    },
    {
      "midi": 68,
      "hit": false,
      "t": 40574.563043750015,
      "d": 359.37490416667424,
      "v": 67
    },
    {
      "midi": 58,
      "hit": false,
      "t": 40606.52326250001,
      "d": 350.852179166679,
      "v": 57
    },
    {
      "midi": 72,
      "hit": false,
      "t": 40976.551572916695,
      "d": 1353.6928208333338,
      "v": 48
    },
    {
      "midi": 62,
      "hit": false,
      "t": 40989.33566041669,
      "d": 1197.4428625,
      "v": 44
    },
    {
      "midi": 67,
      "hit": false,
      "t": 40990.045887500026,
      "d": 1241.4769416666677,
      "v": 54
    },
    {
      "midi": 57,
      "hit": false,
      "t": 40993.59702291669,
      "d": 159.09086666666553,
      "v": 35
    },
    {
      "midi": 41,
      "hit": false,
      "t": 41350.13101875003,
      "d": 115.76701458333264,
      "v": 33
    },
    {
      "midi": 41,
      "hit": false,
      "t": 41655.52866458336,
      "d": 274.8578812499982,
      "v": 57
    },
    {
      "midi": 44,
      "hit": false,
      "t": 42279.81827083336,
      "d": 154.11927708333678,
      "v": 47
    },
    {
      "midi": 51,
      "hit": false,
      "t": 42316.03985208336,
      "d": 144.176097916672,
      "v": 38
    },
    {
      "midi": 63,
      "hit": false,
      "t": 42672.5738479167,
      "d": 335.22718333333614,
      "v": 61
    },
    {
      "midi": 58,
      "hit": false,
      "t": 42681.0965729167,
      "d": 415.48284375000367,
      "v": 59
    },
    {
      "midi": 53,
      "hit": false,
      "t": 42683.93748125003,
      "d": 417.61352500000794,
      "v": 35
    },
    {
      "midi": 70,
      "hit": false,
      "t": 43007.0908041667,
      "d": 144.88632500000676,
      "v": 69
    },
    {
      "midi": 75,
      "hit": false,
      "t": 43200.9827979167,
      "d": 109.37497083333437,
      "v": 59
    },
    {
      "midi": 72,
      "hit": false,
      "t": 43377.8293416667,
      "d": 97.30111041666532,
      "v": 22
    },
    {
      "midi": 77,
      "hit": false,
      "t": 43532.658845833364,
      "d": 98.01133750000008,
      "v": 68
    },
    {
      "midi": 84,
      "hit": false,
      "t": 43684.6474416667,
      "d": 183.9488145833311,
      "v": 74
    },
    {
      "midi": 37,
      "hit": false,
      "t": 43698.85198333336,
      "d": 163.3522291666668,
      "v": 38
    },
    {
      "midi": 44,
      "hit": false,
      "t": 43705.954254166696,
      "d": 191.7613124999989,
      "v": 38
    },
    {
      "midi": 77,
      "hit": false,
      "t": 43878.53943541669,
      "d": 112.92610625000088,
      "v": 36
    },
    {
      "midi": 82,
      "hit": false,
      "t": 44024.13598750003,
      "d": 142.04541666666773,
      "v": 72
    },
    {
      "midi": 80,
      "hit": false,
      "t": 44213.056391666694,
      "d": 88.77838541666279,
      "v": 59
    },
    {
      "midi": 82,
      "hit": false,
      "t": 44237.91433958336,
      "d": 86.64770416666579,
      "v": 25
    },
    {
      "midi": 63,
      "hit": false,
      "t": 44339.47681250003,
      "d": 401.27830208333035,
      "v": 34
    },
    {
      "midi": 53,
      "hit": false,
      "t": 44361.49385208336,
      "d": 323.1533229166671,
      "v": 24
    },
    {
      "midi": 58,
      "hit": false,
      "t": 44365.04498750003,
      "d": 365.76694791666523,
      "v": 48
    },
    {
      "midi": 72,
      "hit": false,
      "t": 44382.80066458336,
      "d": 147.01700624999648,
      "v": 50
    },
    {
      "midi": 72,
      "hit": false,
      "t": 44599.419925000024,
      "d": 124.28973958333518,
      "v": 36
    },
    {
      "midi": 73,
      "hit": false,
      "t": 44796.15282708336,
      "d": 538.3521291666766,
      "v": 46
    },
    {
      "midi": 65,
      "hit": false,
      "t": 45002.82890833336,
      "d": 159.0908666666728,
      "v": 48
    },
    {
      "midi": 54,
      "hit": false,
      "t": 45021.294812500026,
      "d": 246.44879791667336,
      "v": 27
    },
    {
      "midi": 60,
      "hit": false,
      "t": 45029.81753750003,
      "d": 176.1363166666706,
      "v": 34
    },
    {
      "midi": 58,
      "hit": false,
      "t": 45030.52776458336,
      "d": 214.48857916666748,
      "v": 35
    },
    {
      "midi": 75,
      "hit": false,
      "t": 45267.033383333364,
      "d": 174.0056354166736,
      "v": 59
    },
    {
      "midi": 67,
      "hit": false,
      "t": 45468.02764791671,
      "d": 583.8066625000138,
      "v": 36
    },
    {
      "midi": 42,
      "hit": false,
      "t": 45701.69235833338,
      "d": 105.11360833334038,
      "v": 34
    },
    {
      "midi": 50,
      "hit": false,
      "t": 45725.12985208338,
      "d": 63.210210416669725,
      "v": 17
    },
    {
      "midi": 68,
      "hit": false,
      "t": 45953.11274583339,
      "d": 155.53973124999902,
      "v": 45
    },
    {
      "midi": 70,
      "hit": false,
      "t": 46171.862687500055,
      "d": 200.9942645833362,
      "v": 51
    },
    {
      "midi": 41,
      "hit": false,
      "t": 46421.86262083339,
      "d": 177.55677083334012,
      "v": 22
    },
    {
      "midi": 48,
      "hit": false,
      "t": 46429.675118750056,
      "d": 192.47153958334093,
      "v": 33
    },
    {
      "midi": 72,
      "hit": false,
      "t": 46433.22625416672,
      "d": 316.7612791666688,
      "v": 40
    },
    {
      "midi": 57,
      "hit": false,
      "t": 46434.64670833339,
      "d": 254.97152291666862,
      "v": 24
    },
    {
      "midi": 62,
      "hit": false,
      "t": 47115.04425416672,
      "d": 28.40908333333209,
      "v": 35
    },
    {
      "midi": 60,
      "hit": false,
      "t": 47118.59538958339,
      "d": 36.221581249992596,
      "v": 37
    },
    {
      "midi": 57,
      "hit": false,
      "t": 47132.08970416672,
      "d": 37.64203541666211,
      "v": 48
    },
    {
      "midi": 53,
      "hit": false,
      "t": 47152.686289583384,
      "d": 50.42612291666592,
      "v": 15
    },
    {
      "midi": 36,
      "hit": false,
      "t": 47789.75998333339,
      "d": 87.35793125000055,
      "v": 36
    },
    {
      "midi": 48,
      "hit": false,
      "t": 47813.19747708339,
      "d": 49.0056687499964,
      "v": 27
    },
    {
      "midi": 84,
      "hit": false,
      "t": 47836.634970833395,
      "d": 68.1817999999912,
      "v": 27
    },
    {
      "midi": 72,
      "hit": false,
      "t": 47838.76565208339,
      "d": 166.90336458332604,
      "v": 31
    },
    {
      "midi": 76,
      "hit": false,
      "t": 47845.15769583339,
      "d": 144.17609791666473,
      "v": 26
    },
    {
      "midi": 81,
      "hit": false,
      "t": 47876.407687500054,
      "d": 245.02834374999657,
      "v": 20
    },
    {
      "midi": 62,
      "hit": false,
      "t": 48478.68025416672,
      "d": 51.136350000000675,
      "v": 46
    },
    {
      "midi": 60,
      "hit": false,
      "t": 48489.33366041672,
      "d": 71.0227083333375,
      "v": 40
    },
    {
      "midi": 53,
      "hit": false,
      "t": 48492.884795833386,
      "d": 115.76701458333264,
      "v": 31
    },
    {
      "midi": 57,
      "hit": false,
      "t": 48512.06092708339,
      "d": 63.920437499997206,
      "v": 41
    },
    {
      "midi": 86,
      "hit": false,
      "t": 48906.94718541672,
      "d": 83.09656875000655,
      "v": 53
    },
    {
      "midi": 74,
      "hit": false,
      "t": 48911.91877500006,
      "d": 51.84657708333543,
      "v": 54
    },
    {
      "midi": 48,
      "hit": false,
      "t": 48981.521029166724,
      "d": 31.24999166667112,
      "v": 32
    },
    {
      "midi": 75,
      "hit": false,
      "t": 49215.185739583394,
      "d": 672.5850479166693,
      "v": 42
    },
    {
      "midi": 63,
      "hit": false,
      "t": 49222.99823750006,
      "d": 393.46580416666256,
      "v": 27
    },
    {
      "midi": 66,
      "hit": false,
      "t": 49232.23118958339,
      "d": 528.4089500000046,
      "v": 21
    },
    {
      "midi": 69,
      "hit": false,
      "t": 49242.88459583339,
      "d": 509.2328187500025,
      "v": 40
    },
    {
      "midi": 54,
      "hit": false,
      "t": 49243.594822916726,
      "d": 843.0395479166691,
      "v": 29
    },
    {
      "midi": 60,
      "hit": false,
      "t": 49255.668683333395,
      "d": 209.51698958333145,
      "v": 24
    },
    {
      "midi": 63,
      "hit": false,
      "t": 50147.71390000006,
      "d": 204.5454000000027,
      "v": 46
    },
    {
      "midi": 66,
      "hit": false,
      "t": 50495.7251708334,
      "d": 254.97152291666862,
      "v": 37
    },
    {
      "midi": 60,
      "hit": false,
      "t": 50496.435397916735,
      "d": 256.39197708333086,
      "v": 34
    },
    {
      "midi": 63,
      "hit": false,
      "t": 50499.9865333334,
      "d": 213.77835208333272,
      "v": 21
    },
    {
      "midi": 63,
      "hit": false,
      "t": 51188.1965770834,
      "d": 265.6249291666609,
      "v": 34
    },
    {
      "midi": 60,
      "hit": false,
      "t": 51198.139756250064,
      "d": 276.98856249999517,
      "v": 27
    },
    {
      "midi": 54,
      "hit": false,
      "t": 51207.372708333394,
      "d": 98.01133750000008,
      "v": 37
    },
    {
      "midi": 31,
      "hit": false,
      "t": 51861.491852083396,
      "d": 301.13628333333327,
      "v": 46
    },
    {
      "midi": 43,
      "hit": false,
      "t": 52105.809968750065,
      "d": 159.09086666666553,
      "v": 22
    },
    {
      "midi": 58,
      "hit": false,
      "t": 52352.968993750066,
      "d": 224.43175833333225,
      "v": 36
    },
    {
      "midi": 33,
      "hit": false,
      "t": 52558.93484791673,
      "d": 352.27263333333394,
      "v": 32
    },
    {
      "midi": 45,
      "hit": false,
      "t": 52762.7700208334,
      "d": 277.6987895833299,
      "v": 32
    },
    {
      "midi": 60,
      "hit": false,
      "t": 52992.883595833395,
      "d": 133.5226916666652,
      "v": 37
    },
    {
      "midi": 34,
      "hit": false,
      "t": 53253.53693541673,
      "d": 620.0282437499991,
      "v": 30
    },
    {
      "midi": 46,
      "hit": false,
      "t": 53470.866422916726,
      "d": 93.03974791666406,
      "v": 46
    },
    {
      "midi": 62,
      "hit": false,
      "t": 53692.45727291673,
      "d": 209.51698958333145,
      "v": 37
    },
    {
      "midi": 35,
      "hit": false,
      "t": 53919.72993958339,
      "d": 264.9147020833334,
      "v": 48
    },
    {
      "midi": 53,
      "hit": false,
      "t": 54144.87192500006,
      "d": 269.88629166666215,
      "v": 46
    },
    {
      "midi": 62,
      "hit": false,
      "t": 54354.38891458339,
      "d": 60.369302083330695,
      "v": 36
    },
    {
      "midi": 47,
      "hit": false,
      "t": 54367.88322916672,
      "d": 46.874987499999406,
      "v": 36
    },
    {
      "midi": 36,
      "hit": false,
      "t": 54485.07069791672,
      "d": 88.06815833332803,
      "v": 24
    },
    {
      "midi": 52,
      "hit": false,
      "t": 54512.76955416672,
      "d": 147.01700624999648,
      "v": 20
    },
    {
      "midi": 64,
      "hit": false,
      "t": 54545.44000000005,
      "d": 478.6930541666661,
      "v": 48
    },
    {
      "midi": 87,
      "hit": false,
      "t": 54980.09897500005,
      "d": 185.36926875000063,
      "v": 64
    },
    {
      "midi": 64,
      "hit": false,
      "t": 55203.11027916672,
      "d": 44.03407916666765,
      "v": 50
    },
    {
      "midi": 58,
      "hit": false,
      "t": 55233.65004375006,
      "d": 78.12497916666325,
      "v": 29
    },
    {
      "midi": 86,
      "hit": false,
      "t": 55246.434131250055,
      "d": 98.72156458333484,
      "v": 55
    },
    {
      "midi": 85,
      "hit": false,
      "t": 55453.82043958339,
      "d": 147.01700624999648,
      "v": 31
    },
    {
      "midi": 84,
      "hit": false,
      "t": 55691.03628541672,
      "d": 731.5338958333305,
      "v": 68
    },
    {
      "midi": 58,
      "hit": false,
      "t": 55909.78622708339,
      "d": 178.9772249999951,
      "v": 36
    },
    {
      "midi": 48,
      "hit": false,
      "t": 55933.22372083338,
      "d": 80.96588750000228,
      "v": 27
    },
    {
      "midi": 80,
      "hit": false,
      "t": 56450.269037500046,
      "d": 352.27263333332667,
      "v": 70
    },
    {
      "midi": 61,
      "hit": false,
      "t": 56620.723537500045,
      "d": 73.86361666666198,
      "v": 45
    },
    {
      "midi": 64,
      "hit": false,
      "t": 56627.82580833338,
      "d": 34.80112708333036,
      "v": 45
    },
    {
      "midi": 58,
      "hit": false,
      "t": 56638.47921458338,
      "d": 72.44316249999247,
      "v": 39
    },
    {
      "midi": 81,
      "hit": false,
      "t": 56879.95642291671,
      "d": 129.97155624999868,
      "v": 54
    },
    {
      "midi": 84,
      "hit": false,
      "t": 57105.80863541671,
      "d": 63.920437499997206,
      "v": 72
    },
    {
      "midi": 41,
      "hit": false,
      "t": 57115.04158750004,
      "d": 43.323852083332895,
      "v": 57
    },
    {
      "midi": 79,
      "hit": false,
      "t": 57861.49025208337,
      "d": 161.2215479166698,
      "v": 80
    },
    {
      "midi": 69,
      "hit": false,
      "t": 57867.172068750035,
      "d": 168.32381875000283,
      "v": 82
    },
    {
      "midi": 74,
      "hit": false,
      "t": 57868.592522916704,
      "d": 138.49428125000122,
      "v": 81
    },
    {
      "midi": 64,
      "hit": false,
      "t": 57873.56411250004,
      "d": 123.57951250000042,
      "v": 77
    },
    {
      "midi": 62,
      "hit": false,
      "t": 58276.97309583337,
      "d": 392.0453500000003,
      "v": 58
    },
    {
      "midi": 77,
      "hit": false,
      "t": 58281.9446854167,
      "d": 227.98289374999877,
      "v": 68
    },
    {
      "midi": 67,
      "hit": false,
      "t": 58294.7287729167,
      "d": 291.1931041666685,
      "v": 61
    },
    {
      "midi": 72,
      "hit": false,
      "t": 58299.700362500036,
      "d": 247.15902500000084,
      "v": 60
    },
    {
      "midi": 74,
      "hit": false,
      "t": 58746.433197916704,
      "d": 262.07379374999437,
      "v": 56
    },
    {
      "midi": 64,
      "hit": false,
      "t": 58759.2172854167,
      "d": 307.52832708333153,
      "v": 47
    },
    {
      "midi": 68,
      "hit": false,
      "t": 58759.927512500035,
      "d": 352.27263333332667,
      "v": 53
    },
    {
      "midi": 58,
      "hit": false,
      "t": 58759.927512500035,
      "d": 401.27830208332307,
      "v": 52
    },
    {
      "midi": 72,
      "hit": false,
      "t": 59172.56944791669,
      "d": 208.0965354166765,
      "v": 47
    },
    {
      "midi": 62,
      "hit": false,
      "t": 59184.64330833336,
      "d": 290.482877083341,
      "v": 37
    },
    {
      "midi": 57,
      "hit": false,
      "t": 59186.06376250003,
      "d": 473.72146458333737,
      "v": 48
    },
    {
      "midi": 67,
      "hit": false,
      "t": 59187.4842166667,
      "d": 193.1817666666684,
      "v": 49
    },
    {
      "midi": 69,
      "hit": false,
      "t": 59649.8420479167,
      "d": 97.30111041666532,
      "v": 46
    },
    {
      "midi": 60,
      "hit": false,
      "t": 59651.9727291667,
      "d": 88.0681583333353,
      "v": 38
    },
    {
      "midi": 64,
      "hit": false,
      "t": 59653.39318333337,
      "d": 88.0681583333353,
      "v": 52
    },
    {
      "midi": 53,
      "hit": false,
      "t": 59669.0181791667,
      "d": 160.51132083333505,
      "v": 26
    },
    {
      "midi": 50,
      "hit": false,
      "t": 59875.6942604167,
      "d": 38.35226249999687,
      "v": 35
    },
    {
      "midi": 67,
      "hit": false,
      "t": 60093.733975000025,
      "d": 1029.8292708333174,
      "v": 37
    },
    {
      "midi": 61,
      "hit": false,
      "t": 60096.57488333336,
      "d": 392.04534999999305,
      "v": 50
    },
    {
      "midi": 39,
      "hit": false,
      "t": 60098.70556458335,
      "d": 29.11931041666685,
      "v": 47
    },
    {
      "midi": 55,
      "hit": false,
      "t": 60100.12601875002,
      "d": 308.9487812499938,
      "v": 44
    },
    {
      "midi": 65,
      "hit": false,
      "t": 60772.00083958335,
      "d": 339.48854583332286,
      "v": 38
    },
    {
      "midi": 61,
      "hit": false,
      "t": 60792.597425000014,
      "d": 333.80672916665935,
      "v": 21
    },
    {
      "midi": 60,
      "hit": false,
      "t": 60805.38151250001,
      "d": 275.56810833332565,
      "v": 34
    },
    {
      "midi": 55,
      "hit": false,
      "t": 60821.716735416674,
      "d": 229.403347916661,
      "v": 17
    },
    {
      "midi": 66,
      "hit": false,
      "t": 61433.22225416667,
      "d": 315.3408249999993,
      "v": 32
    },
    {
      "midi": 56,
      "hit": false,
      "t": 61455.239293750004,
      "d": 438.210110416665,
      "v": 40
    },
    {
      "midi": 68,
      "hit": false,
      "t": 61455.94952083334,
      "d": 369.31808333333174,
      "v": 46
    },
    {
      "midi": 69,
      "hit": false,
      "t": 61882.79599791667,
      "d": 474.4316916666721,
      "v": 48
    },
    {
      "midi": 65,
      "hit": false,
      "t": 62070.295947916675,
      "d": 61.07952916666545,
      "v": 48
    },
    {
      "midi": 61,
      "hit": false,
      "t": 62073.13685625001,
      "d": 129.97155624999868,
      "v": 25
    },
    {
      "midi": 55,
      "hit": false,
      "t": 62083.790262500006,
      "d": 69.60225416666799,
      "v": 27
    },
    {
      "midi": 74,
      "hit": false,
      "t": 62330.23906041667,
      "d": 185.36926875000063,
      "v": 54
    },
    {
      "midi": 50,
      "hit": false,
      "t": 62524.131054166675,
      "d": 89.48861249999754,
      "v": 50
    },
    {
      "midi": 62,
      "hit": false,
      "t": 62770.57985208334,
      "d": 98.01133750000008,
      "v": 47
    },
    {
      "midi": 62,
      "hit": false,
      "t": 62991.46047500001,
      "d": 49.0056687499964,
      "v": 33
    },
    {
      "midi": 64,
      "hit": false,
      "t": 63083.07976875,
      "d": 47.585214583334164,
      "v": 34
    },
    {
      "midi": 62,
      "hit": false,
      "t": 63137.057027083334,
      "d": 66.76134583333624,
      "v": 36
    },
    {
      "midi": 64,
      "hit": false,
      "t": 63232.22745625,
      "d": 41.1931708333359,
      "v": 36
    },
    {
      "midi": 62,
      "hit": false,
      "t": 63284.07403333334,
      "d": 65.34089166666672,
      "v": 43
    },
    {
      "midi": 64,
      "hit": false,
      "t": 63372.14219166667,
      "d": 39.77271666666638,
      "v": 39
    },
    {
      "midi": 62,
      "hit": false,
      "t": 63434.64217500001,
      "d": 59.65907500000321,
      "v": 32
    },
    {
      "midi": 64,
      "hit": false,
      "t": 63513.47738125001,
      "d": 46.16476041666465,
      "v": 36
    },
    {
      "midi": 62,
      "hit": false,
      "t": 63587.340997916675,
      "d": 56.1079395833367,
      "v": 32
    },
    {
      "midi": 64,
      "hit": false,
      "t": 63664.75575000001,
      "d": 46.874987499999406,
      "v": 38
    },
    {
      "midi": 62,
      "hit": false,
      "t": 63740.03982083334,
      "d": 51.136350000000675,
      "v": 34
    },
    {
      "midi": 64,
      "hit": false,
      "t": 63813.19321041668,
      "d": 51.84657708333543,
      "v": 41
    },
    {
      "midi": 57,
      "hit": false,
      "t": 63831.659114583344,
      "d": 286.9317416666672,
      "v": 58
    },
    {
      "midi": 62,
      "hit": false,
      "t": 63884.215918750015,
      "d": 61.78975625000021,
      "v": 34
    },
    {
      "midi": 64,
      "hit": false,
      "t": 63966.60226041668,
      "d": 56.81816666666418,
      "v": 37
    },
    {
      "midi": 62,
      "hit": false,
      "t": 64041.176104166676,
      "d": 65.34089166666672,
      "v": 31
    },
    {
      "midi": 64,
      "hit": false,
      "t": 64119.30108333335,
      "d": 76.70452500000101,
      "v": 44
    },
    {
      "midi": 58,
      "hit": false,
      "t": 64151.97152916668,
      "d": 357.95444999999745,
      "v": 63
    },
    {
      "midi": 62,
      "hit": false,
      "t": 64197.42606250002,
      "d": 68.18179999999847,
      "v": 34
    },
    {
      "midi": 64,
      "hit": false,
      "t": 64286.20444791668,
      "d": 71.73293541666499,
      "v": 46
    },
    {
      "midi": 62,
      "hit": false,
      "t": 64366.46010833335,
      "d": 61.07952916666545,
      "v": 30
    },
    {
      "midi": 64,
      "hit": false,
      "t": 64449.55667708335,
      "d": 58.2386208333337,
      "v": 43
    },
    {
      "midi": 62,
      "hit": false,
      "t": 64530.52256458334,
      "d": 66.05111875000148,
      "v": 34
    },
    {
      "midi": 64,
      "hit": false,
      "t": 64603.675954166676,
      "d": 46.874987499999406,
      "v": 44
    },
    {
      "midi": 60,
      "hit": false,
      "t": 64608.64754375001,
      "d": 523.437360416654,
      "v": 57
    },
    {
      "midi": 62,
      "hit": false,
      "t": 64693.87479375001,
      "d": 53.26703124999767,
      "v": 29
    },
    {
      "midi": 64,
      "hit": false,
      "t": 64766.31795625001,
      "d": 46.16476041666465,
      "v": 40
    },
    {
      "midi": 62,
      "hit": false,
      "t": 64850.83497916667,
      "d": 65.34089166666672,
      "v": 31
    },
    {
      "midi": 64,
      "hit": false,
      "t": 64919.01677916667,
      "d": 78.12497916666325,
      "v": 34
    },
    {
      "midi": 62,
      "hit": false,
      "t": 65014.897435416664,
      "d": 80.96588750000228,
      "v": 33
    },
    {
      "midi": 64,
      "hit": false,
      "t": 65088.76105208333,
      "d": 82.38634166666452,
      "v": 39
    },
    {
      "midi": 62,
      "hit": false,
      "t": 65196.71556875,
      "d": 60.369302083330695,
      "v": 33
    },
    {
      "midi": 64,
      "hit": false,
      "t": 65249.982599999996,
      "d": 86.64770416666579,
      "v": 46
    },
    {
      "midi": 62,
      "hit": false,
      "t": 65352.2553,
      "d": 64.63066458333196,
      "v": 36
    },
    {
      "midi": 64,
      "hit": false,
      "t": 65412.62460208333,
      "d": 80.96588750000228,
      "v": 43
    },
    {
      "midi": 51,
      "hit": false,
      "t": 65479.385947916664,
      "d": 134.23291874999268,
      "v": 29
    },
    {
      "midi": 62,
      "hit": false,
      "t": 65508.50525833333,
      "d": 63.920437499997206,
      "v": 35
    },
    {
      "midi": 64,
      "hit": false,
      "t": 65580.94842083333,
      "d": 68.1817999999912,
      "v": 45
    },
    {
      "midi": 62,
      "hit": false,
      "t": 65671.85748749999,
      "d": 64.63066458333924,
      "v": 33
    },
    {
      "midi": 50,
      "hit": false,
      "t": 65681.80066666666,
      "d": 678.2668645832891,
      "v": 49
    },
    {
      "midi": 64,
      "hit": false,
      "t": 65733.64724374999,
      "d": 91.61929375000182,
      "v": 44
    },
    {
      "midi": 62,
      "hit": false,
      "t": 65837.34039791666,
      "d": 254.2612958333193,
      "v": 36
    },
    {
      "midi": 64,
      "hit": false,
      "t": 65904.81197083333,
      "d": 86.64770416666579,
      "v": 36
    },
    {
      "midi": 64,
      "hit": false,
      "t": 66078.81760624998,
      "d": 76.70452499999374,
      "v": 29
    },
    {
      "midi": 62,
      "hit": false,
      "t": 66182.51076041664,
      "d": 67.47157291666372,
      "v": 38
    },
    {
      "midi": 64,
      "hit": false,
      "t": 66241.4596083333,
      "d": 78.12497916666325,
      "v": 43
    },
    {
      "midi": 62,
      "hit": false,
      "t": 66338.05049166663,
      "d": 66.76134583332168,
      "v": 30
    },
    {
      "midi": 64,
      "hit": false,
      "t": 66411.20388124995,
      "d": 51.84657708332816,
      "v": 41
    },
    {
      "midi": 62,
      "hit": false,
      "t": 66508.50499166662,
      "d": 431.10783958333195,
      "v": 31
    },
    {
      "midi": 64,
      "hit": false,
      "t": 66539.04475624995,
      "d": 151.27836875000503,
      "v": 34
    },
    {
      "midi": 38,
      "hit": false,
      "t": 66544.01634583328,
      "d": 504.9714562500012,
      "v": 67
    },
    {
      "midi": 50,
      "hit": false,
      "t": 66909.07306666662,
      "d": 419.0339791666629,
      "v": 69
    },
    {
      "midi": 61,
      "hit": false,
      "t": 67360.06726458328,
      "d": 244.3181166666618,
      "v": 62
    },
    {
      "midi": 53,
      "hit": false,
      "t": 67365.03885416662,
      "d": 184.6590416666586,
      "v": 62
    },
    {
      "midi": 49,
      "hit": false,
      "t": 67367.87976249996,
      "d": 272.72719999997935,
      "v": 62
    },
    {
      "midi": 56,
      "hit": false,
      "t": 67371.43089791662,
      "d": 379.26126249998924,
      "v": 68
    },
    {
      "midi": 58,
      "hit": false,
      "t": 67413.33429583328,
      "d": 176.8465437499981,
      "v": 31
    },
    {
      "midi": 62,
      "hit": false,
      "t": 67632.79446458328,
      "d": 196.7329020833422,
      "v": 57
    },
    {
      "midi": 50,
      "hit": false,
      "t": 67649.12968749994,
      "d": 157.67041250001057,
      "v": 57
    },
    {
      "midi": 53,
      "hit": false,
      "t": 67650.55014166661,
      "d": 66.76134583333624,
      "v": 27
    },
    {
      "midi": 44,
      "hit": false,
      "t": 68052.53867083328,
      "d": 95.88065624999581,
      "v": 46
    },
    {
      "midi": 62,
      "hit": false,
      "t": 68284.07269999995,
      "d": 126.4204208333249,
      "v": 58
    },
    {
      "midi": 55,
      "hit": false,
      "t": 68285.49315416662,
      "d": 159.09086666665098,
      "v": 50
    },
    {
      "midi": 43,
      "hit": false,
      "t": 68286.91360833329,
      "d": 89.48861249999027,
      "v": 35
    },
    {
      "midi": 84,
      "hit": false,
      "t": 68722.99303749994,
      "d": 974.4315583333373,
      "v": 81
    },
    {
      "midi": 77,
      "hit": false,
      "t": 68723.70326458327,
      "d": 1086.6474375000107,
      "v": 81
    },
    {
      "midi": 58,
      "hit": false,
      "t": 68928.9588916666,
      "d": 80.96588750001683,
      "v": 39
    },
    {
      "midi": 55,
      "hit": false,
      "t": 68931.79979999994,
      "d": 82.3863416666718,
      "v": 24
    },
    {
      "midi": 50,
      "hit": false,
      "t": 69323.13492291661,
      "d": 166.9033645833406,
      "v": 40
    },
    {
      "midi": 43,
      "hit": false,
      "t": 69556.79963333328,
      "d": 89.48861249999027,
      "v": 40
    },
    {
      "midi": 53,
      "hit": false,
      "t": 69571.00417499995,
      "d": 137.7840541666519,
      "v": 32
    },
    {
      "midi": 83,
      "hit": false,
      "t": 69982.22565624994,
      "d": 105.11360833332583,
      "v": 59
    },
    {
      "midi": 71,
      "hit": false,
      "t": 69986.48701874993,
      "d": 123.57951250000042,
      "v": 57
    },
    {
      "midi": 78,
      "hit": false,
      "t": 69995.00974374994,
      "d": 178.9772249999951,
      "v": 51
    },
    {
      "midi": 62,
      "hit": false,
      "t": 70226.5437729166,
      "d": 196.7329020833131,
      "v": 20
    },
    {
      "midi": 58,
      "hit": false,
      "t": 70227.25399999993,
      "d": 203.12494583331863,
      "v": 43
    },
    {
      "midi": 82,
      "hit": false,
      "t": 70236.48695208326,
      "d": 301.8465104166535,
      "v": 60
    },
    {
      "midi": 55,
      "hit": false,
      "t": 70238.61763333326,
      "d": 166.19313749999856,
      "v": 15
    },
    {
      "midi": 70,
      "hit": false,
      "t": 70257.79376458326,
      "d": 195.31244791665813,
      "v": 35
    },
    {
      "midi": 70,
      "hit": false,
      "t": 70868.58905624991,
      "d": 78.83520624999073,
      "v": 56
    },
    {
      "midi": 81,
      "hit": false,
      "t": 70870.00951041658,
      "d": 85.93747708332376,
      "v": 54
    },
    {
      "midi": 69,
      "hit": false,
      "t": 70874.27087291658,
      "d": 154.1192770833295,
      "v": 54
    },
    {
      "midi": 73,
      "hit": false,
      "t": 70876.40155416657,
      "d": 84.5170229166688,
      "v": 37
    },
    {
      "midi": 76,
      "hit": false,
      "t": 70896.2879124999,
      "d": 52.55680416667019,
      "v": 35
    },
    {
      "midi": 80,
      "hit": false,
      "t": 71162.6230687499,
      "d": 124.99996666666993,
      "v": 48
    },
    {
      "midi": 70,
      "hit": false,
      "t": 71177.5378374999,
      "d": 90.19883958334685,
      "v": 37
    },
    {
      "midi": 73,
      "hit": false,
      "t": 71178.95829166657,
      "d": 107.95451666667941,
      "v": 34
    },
    {
      "midi": 68,
      "hit": false,
      "t": 71181.7991999999,
      "d": 110.79542500000389,
      "v": 42
    },
    {
      "midi": 73,
      "hit": false,
      "t": 71517.73661041657,
      "d": 331.6760479166405,
      "v": 34
    },
    {
      "midi": 70,
      "hit": false,
      "t": 71521.28774583324,
      "d": 301.13628333331144,
      "v": 43
    },
    {
      "midi": 67,
      "hit": false,
      "t": 71529.1002437499,
      "d": 195.31244791665813,
      "v": 44
    },
    {
      "midi": 79,
      "hit": false,
      "t": 71533.36160624989,
      "d": 240.05675416666782,
      "v": 41
    },
    {
      "midi": 76,
      "hit": false,
      "t": 71548.98660208323,
      "d": 244.3181166666618,
      "v": 34
    },
    {
      "midi": 61,
      "hit": false,
      "t": 72200.26483749987,
      "d": 59.65907500000321,
      "v": 45
    },
    {
      "midi": 64,
      "hit": false,
      "t": 72200.9750645832,
      "d": 75.99429791668081,
      "v": 54
    },
    {
      "midi": 55,
      "hit": false,
      "t": 72213.04892499986,
      "d": 80.2556604166748,
      "v": 32
    },
    {
      "midi": 69,
      "hit": false,
      "t": 72524.8386145832,
      "d": 110.79542499998934,
      "v": 44
    },
    {
      "midi": 64,
      "hit": false,
      "t": 72525.54884166653,
      "d": 112.92610625000088,
      "v": 48
    },
    {
      "midi": 54,
      "hit": false,
      "t": 72526.25906874986,
      "d": 144.176097916672,
      "v": 44
    },
    {
      "midi": 61,
      "hit": false,
      "t": 72534.78179374986,
      "d": 87.35793124999327,
      "v": 35
    },
    {
      "midi": 61,
      "hit": false,
      "t": 72855.80443541653,
      "d": 71.73293541665771,
      "v": 51
    },
    {
      "midi": 64,
      "hit": false,
      "t": 72857.2248895832,
      "d": 87.35793124999327,
      "v": 57
    },
    {
      "midi": 67,
      "hit": false,
      "t": 72861.4862520832,
      "d": 107.24428958333738,
      "v": 50
    },
    {
      "midi": 44,
      "hit": false,
      "t": 73210.9179770832,
      "d": 259.2328854166699,
      "v": 55
    },
    {
      "midi": 54,
      "hit": false,
      "t": 73212.33843124987,
      "d": 171.87495416666206,
      "v": 52
    },
    {
      "midi": 59,
      "hit": false,
      "t": 73215.88956666653,
      "d": 164.77268333332904,
      "v": 50
    },
    {
      "midi": 32,
      "hit": false,
      "t": 73220.15092916653,
      "d": 202.4147187500057,
      "v": 49
    },
    {
      "midi": 64,
      "hit": false,
      "t": 73559.63947499987,
      "d": 326.70445833331905,
      "v": 55
    },
    {
      "midi": 55,
      "hit": false,
      "t": 73568.8724270832,
      "d": 208.8067624999967,
      "v": 34
    },
    {
      "midi": 45,
      "hit": false,
      "t": 73572.42356249987,
      "d": 257.10220416665834,
      "v": 54
    },
    {
      "midi": 60,
      "hit": false,
      "t": 73576.68492499986,
      "d": 318.18173333333107,
      "v": 50
    },
    {
      "midi": 33,
      "hit": false,
      "t": 73579.5258333332,
      "d": 193.89199375000317,
      "v": 49
    },
    {
      "midi": 79,
      "hit": false,
      "t": 74308.92904791652,
      "d": 214.48857916667475,
      "v": 80
    },
    {
      "midi": 64,
      "hit": false,
      "t": 74309.63927499985,
      "d": 95.88065624999581,
      "v": 70
    },
    {
      "midi": 72,
      "hit": false,
      "t": 74312.48018333319,
      "d": 165.48291041667107,
      "v": 80
    },
    {
      "midi": 67,
      "hit": false,
      "t": 74316.03131874985,
      "d": 180.39767916667915,
      "v": 82
    },
    {
      "midi": 76,
      "hit": false,
      "t": 74317.45177291652,
      "d": 144.8863249999995,
      "v": 74
    },
    {
      "midi": 60,
      "hit": false,
      "t": 74323.13358958319,
      "d": 111.50565208333137,
      "v": 54
    },
    {
      "midi": 55,
      "hit": false,
      "t": 74326.68472499985,
      "d": 105.11360833332583,
      "v": 37
    },
    {
      "midi": 57,
      "hit": false,
      "t": 74332.36654166652,
      "d": 147.01700625001104,
      "v": 48
    },
    {
      "midi": 77,
      "hit": false,
      "t": 74338.75858541652,
      "d": 34.0908999999956,
      "v": 50
    },
    {
      "midi": 76,
      "hit": false,
      "t": 74537.62216874986,
      "d": 117.18746874999488,
      "v": 46
    },
    {
      "midi": 79,
      "hit": false,
      "t": 74740.03688749985,
      "d": 450.9941979166615,
      "v": 77
    },
    {
      "midi": 76,
      "hit": false,
      "t": 74743.58802291652,
      "d": 432.52829375000147,
      "v": 74
    },
    {
      "midi": 72,
      "hit": false,
      "t": 74747.13915833319,
      "d": 519.1759979166673,
      "v": 80
    },
    {
      "midi": 67,
      "hit": false,
      "t": 74748.55961249986,
      "d": 441.7612458333315,
      "v": 81
    },
    {
      "midi": 45,
      "hit": false,
      "t": 74976.54250624985,
      "d": 109.37497083333437,
      "v": 53
    },
    {
      "midi": 55,
      "hit": false,
      "t": 74987.19591249985,
      "d": 146.306779166669,
      "v": 30
    },
    {
      "midi": 77,
      "hit": false,
      "t": 75097.28111041652,
      "d": 183.23858750000363,
      "v": 11
    },
    {
      "midi": 78,
      "hit": false,
      "t": 75453.81510624985,
      "d": 203.83517291666067,
      "v": 53
    },
    {
      "midi": 66,
      "hit": false,
      "t": 75456.65601458319,
      "d": 160.5113208333205,
      "v": 65
    },
    {
      "midi": 72,
      "hit": false,
      "t": 75470.86055624986,
      "d": 127.84087499999441,
      "v": 54
    },
    {
      "midi": 75,
      "hit": false,
      "t": 75482.22418958318,
      "d": 172.58518124998955,
      "v": 34
    },
    {
      "midi": 55,
      "hit": false,
      "t": 75693.16163333318,
      "d": 336.6476374999911,
      "v": 31
    },
    {
      "midi": 77,
      "hit": false,
      "t": 75710.20708333318,
      "d": 262.07379374999437,
      "v": 50
    },
    {
      "midi": 72,
      "hit": false,
      "t": 75713.04799166652,
      "d": 294.0340124999784,
      "v": 40
    },
    {
      "midi": 65,
      "hit": false,
      "t": 75722.9911708332,
      "d": 442.4714729166444,
      "v": 52
    },
    {
      "midi": 62,
      "hit": false,
      "t": 75726.54230624986,
      "d": 269.17606458331284,
      "v": 22
    },
    {
      "midi": 60,
      "hit": false,
      "t": 75734.35480416652,
      "d": 180.39767916665005,
      "v": 19
    },
    {
      "midi": 57,
      "hit": false,
      "t": 75752.82070833318,
      "d": 268.46583749998535,
      "v": 25
    },
    {
      "midi": 76,
      "hit": false,
      "t": 76360.7750916665,
      "d": 470.1703291666636,
      "v": 77
    },
    {
      "midi": 64,
      "hit": false,
      "t": 76363.61599999983,
      "d": 416.1930708333239,
      "v": 73
    },
    {
      "midi": 65,
      "hit": false,
      "t": 76364.32622708316,
      "d": 523.4373604166612,
      "v": 91
    },
    {
      "midi": 68,
      "hit": false,
      "t": 76365.03645416649,
      "d": 546.8748541666719,
      "v": 71
    },
    {
      "midi": 71,
      "hit": false,
      "t": 76372.13872499982,
      "d": 546.8748541666719,
      "v": 57
    },
    {
      "midi": 75,
      "hit": false,
      "t": 77035.49082083316,
      "d": 345.8805895833357,
      "v": 67
    },
    {
      "midi": 63,
      "hit": false,
      "t": 77044.01354583316,
      "d": 211.64767083333572,
      "v": 60
    },
    {
      "midi": 71,
      "hit": false,
      "t": 77047.56468124983,
      "d": 432.52829375000147,
      "v": 57
    },
    {
      "midi": 68,
      "hit": false,
      "t": 77048.27490833316,
      "d": 462.3578312500031,
      "v": 55
    },
    {
      "midi": 65,
      "hit": false,
      "t": 77054.66695208316,
      "d": 453.83510625000054,
      "v": 60
    },
    {
      "midi": 73,
      "hit": false,
      "t": 77423.9850354165,
      "d": 142.7556437500025,
      "v": 1
    },
    {
      "midi": 74,
      "hit": false,
      "t": 77718.72927499983,
      "d": 328.12491249998857,
      "v": 51
    },
    {
      "midi": 68,
      "hit": false,
      "t": 77722.99063749982,
      "d": 345.17036249999364,
      "v": 46
    },
    {
      "midi": 65,
      "hit": false,
      "t": 77730.80313541649,
      "d": 231.53402916666528,
      "v": 52
    },
    {
      "midi": 62,
      "hit": false,
      "t": 77745.00767708315,
      "d": 213.77835208333272,
      "v": 41
    },
    {
      "midi": 62,
      "hit": false,
      "t": 78401.96772916648,
      "d": 391.3351229166583,
      "v": 39
    },
    {
      "midi": 66,
      "hit": false,
      "t": 78405.51886458315,
      "d": 53.26703124999767,
      "v": 39
    },
    {
      "midi": 44,
      "hit": false,
      "t": 78407.64954583315,
      "d": 399.85784791666083,
      "v": 40
    },
    {
      "midi": 71,
      "hit": false,
      "t": 78408.35977291648,
      "d": 367.18740208333475,
      "v": 45
    },
    {
      "midi": 54,
      "hit": false,
      "t": 78420.43363333314,
      "d": 335.9374104166636,
      "v": 29
    },
    {
      "midi": 67,
      "hit": false,
      "t": 78487.19497916648,
      "d": 272.7271999999939,
      "v": 36
    },
    {
      "midi": 70,
      "hit": false,
      "t": 79102.25163333314,
      "d": 179.68745208330802,
      "v": 42
    },
    {
      "midi": 62,
      "hit": false,
      "t": 79110.0641312498,
      "d": 102.98292708331428,
      "v": 32
    },
    {
      "midi": 43,
      "hit": false,
      "t": 79126.39935416647,
      "d": 132.1022374999884,
      "v": 29
    },
    {
      "midi": 65,
      "hit": false,
      "t": 79128.53003541646,
      "d": 101.56247291665932,
      "v": 33
    },
    {
      "midi": 53,
      "hit": false,
      "t": 79157.64934583312,
      "d": 178.9772249999951,
      "v": 15
    },
    {
      "midi": 73,
      "hit": false,
      "t": 79563.18901041645,
      "d": 110.08519791666185,
      "v": 57
    },
    {
      "midi": 85,
      "hit": false,
      "t": 79563.89923749978,
      "d": 125.71019374999742,
      "v": 71
    },
    {
      "midi": 86,
      "hit": false,
      "t": 79683.92761458311,
      "d": 54.687485416652635,
      "v": 36
    },
    {
      "midi": 79,
      "hit": false,
      "t": 79691.02988541644,
      "d": 102.98292708331428,
      "v": 2
    },
    {
      "midi": 74,
      "hit": false,
      "t": 79693.16056666644,
      "d": 66.76134583332168,
      "v": 48
    },
    {
      "midi": 84,
      "hit": false,
      "t": 79708.07533541643,
      "d": 148.437460416666,
      "v": 17
    },
    {
      "midi": 58,
      "hit": false,
      "t": 79833.78552916643,
      "d": 102.27270000000135,
      "v": 44
    },
    {
      "midi": 62,
      "hit": false,
      "t": 79837.3366645831,
      "d": 31.960218749998603,
      "v": 27
    },
    {
      "midi": 55,
      "hit": false,
      "t": 79840.88779999976,
      "d": 120.02837708333391,
      "v": 24
    },
    {
      "midi": 73,
      "hit": false,
      "t": 79926.8252770831,
      "d": 95.88065625001036,
      "v": 50
    },
    {
      "midi": 85,
      "hit": false,
      "t": 79952.3934520831,
      "d": 104.4033812500129,
      "v": 29
    },
    {
      "midi": 82,
      "hit": false,
      "t": 79970.85935624977,
      "d": 205.25562708334473,
      "v": 31
    },
    {
      "midi": 79,
      "hit": false,
      "t": 79974.41049166644,
      "d": 181.10790625000664,
      "v": 33
    },
    {
      "midi": 86,
      "hit": false,
      "t": 80021.28547916644,
      "d": 53.26703124999767,
      "v": 41
    },
    {
      "midi": 74,
      "hit": false,
      "t": 80023.41616041644,
      "d": 79.54543333333277,
      "v": 61
    },
    {
      "midi": 73,
      "hit": false,
      "t": 80230.09224166645,
      "d": 95.17042916665378,
      "v": 42
    },
    {
      "midi": 85,
      "hit": false,
      "t": 80241.45587499978,
      "d": 100.85224583333184,
      "v": 35
    },
    {
      "midi": 82,
      "hit": false,
      "t": 80248.55814583311,
      "d": 241.47720833335188,
      "v": 31
    },
    {
      "midi": 79,
      "hit": false,
      "t": 80272.70586666645,
      "d": 194.6022208333452,
      "v": 26
    },
    {
      "midi": 74,
      "hit": false,
      "t": 80324.55244374978,
      "d": 83.80679583334131,
      "v": 62
    },
    {
      "midi": 86,
      "hit": false,
      "t": 80326.68312499978,
      "d": 62.49998333334224,
      "v": 43
    },
    {
      "midi": 50,
      "hit": false,
      "t": 80455.23422708313,
      "d": 253.55106875002093,
      "v": 34
    },
    {
      "midi": 73,
      "hit": false,
      "t": 80553.24556458314,
      "d": 90.90906666667433,
      "v": 34
    },
    {
      "midi": 85,
      "hit": false,
      "t": 80577.39328541647,
      "d": 73.86361666666926,
      "v": 25
    },
    {
      "midi": 82,
      "hit": false,
      "t": 80580.23419374981,
      "d": 257.1022041666729,
      "v": 34
    },
    {
      "midi": 79,
      "hit": false,
      "t": 80611.48418541648,
      "d": 190.34085833333666,
      "v": 28
    },
    {
      "midi": 86,
      "hit": false,
      "t": 80637.05236041648,
      "d": 83.80679583334131,
      "v": 44
    },
    {
      "midi": 74,
      "hit": false,
      "t": 80646.28531249981,
      "d": 91.61929375001637,
      "v": 60
    },
    {
      "midi": 85,
      "hit": false,
      "t": 80867.16593541649,
      "d": 231.53402916667983,
      "v": 35
    },
    {
      "midi": 73,
      "hit": false,
      "t": 80870.00684374983,
      "d": 139.914735416678,
      "v": 34
    },
    {
      "midi": 82,
      "hit": false,
      "t": 80890.6034291665,
      "d": 837.3577312500129,
      "v": 17
    },
    {
      "midi": 79,
      "hit": false,
      "t": 80901.2568354165,
      "d": 158.38063958333805,
      "v": 34
    },
    {
      "midi": 37,
      "hit": false,
      "t": 81128.52950208317,
      "d": 162.64200208333205,
      "v": 33
    },
    {
      "midi": 49,
      "hit": false,
      "t": 81131.37041041651,
      "d": 173.29540833333158,
      "v": 23
    },
    {
      "midi": 84,
      "hit": false,
      "t": 81136.34199999984,
      "d": 659.8009604166582,
      "v": 40
    },
    {
      "midi": 72,
      "hit": false,
      "t": 81142.02381666651,
      "d": 495.7385041666712,
      "v": 35
    },
    {
      "midi": 79,
      "hit": false,
      "t": 81154.8079041665,
      "d": 507.81236458334024,
      "v": 33
    },
    {
      "midi": 36,
      "hit": false,
      "t": 81779.80773749984,
      "d": 78.12497916666325,
      "v": 48
    },
    {
      "midi": 52,
      "hit": false,
      "t": 81790.46114374984,
      "d": 170.45449999999255,
      "v": 29
    },
    {
      "midi": 91,
      "hit": false,
      "t": 82308.92691458316,
      "d": 297.5851479166595,
      "v": 89
    },
    {
      "midi": 79,
      "hit": false,
      "t": 82315.31895833317,
      "d": 373.5794458333112,
      "v": 89
    },
    {
      "midi": 86,
      "hit": false,
      "t": 82316.0291854165,
      "d": 330.25559374998556,
      "v": 87
    },
    {
      "midi": 64,
      "hit": false,
      "t": 82490.03482083317,
      "d": 80.96588749998773,
      "v": 62
    },
    {
      "midi": 58,
      "hit": false,
      "t": 82501.3984541665,
      "d": 128.5511020833219,
      "v": 51
    },
    {
      "midi": 60,
      "hit": false,
      "t": 82509.21095208316,
      "d": 77.41475208333577,
      "v": 41
    },
    {
      "midi": 55,
      "hit": false,
      "t": 82511.34163333316,
      "d": 103.69315416667087,
      "v": 32
    },
    {
      "midi": 48,
      "hit": false,
      "t": 82926.11424999981,
      "d": 154.82950416667154,
      "v": 50
    },
    {
      "midi": 68,
      "hit": false,
      "t": 83164.04032291648,
      "d": 487.92600624996703,
      "v": 72
    },
    {
      "midi": 64,
      "hit": false,
      "t": 83164.75054999981,
      "d": 509.94304583330813,
      "v": 78
    },
    {
      "midi": 56,
      "hit": false,
      "t": 83165.46077708314,
      "d": 306.8180999999895,
      "v": 55
    },
    {
      "midi": 48,
      "hit": false,
      "t": 83168.30168541647,
      "d": 1416.9030312499672,
      "v": 33
    },
    {
      "midi": 60,
      "hit": false,
      "t": 83170.43236666647,
      "d": 461.6476041666465,
      "v": 74
    },
    {
      "midi": 64,
      "hit": false,
      "t": 83880.65944999979,
      "d": 388.4942145833338,
      "v": 65
    },
    {
      "midi": 57,
      "hit": false,
      "t": 83880.65944999979,
      "d": 580.2555270833254,
      "v": 48
    },
    {
      "midi": 60,
      "hit": false,
      "t": 83887.0514937498,
      "d": 411.22148124998785,
      "v": 60
    },
    {
      "midi": 69,
      "hit": false,
      "t": 83887.76172083312,
      "d": 377.8408083333343,
      "v": 57
    },
    {
      "midi": 60,
      "hit": false,
      "t": 84628.52856874977,
      "d": 63.920437499997206,
      "v": 35
    },
    {
      "midi": 57,
      "hit": false,
      "t": 84946.00007499977,
      "d": 76.70452499999374,
      "v": 54
    },
    {
      "midi": 55,
      "hit": false,
      "t": 84948.13075624977,
      "d": 67.47157291666372,
      "v": 40
    },
    {
      "midi": 60,
      "hit": false,
      "t": 84950.9716645831,
      "d": 90.90906666665978,
      "v": 40
    },
    {
      "midi": 48,
      "hit": false,
      "t": 84966.59666041644,
      "d": 48.295441666661645,
      "v": 32
    },
    {
      "midi": 60,
      "hit": false,
      "t": 85276.25566874977,
      "d": 257.8124312499858,
      "v": 40
    },
    {
      "midi": 55,
      "hit": false,
      "t": 85279.09657708311,
      "d": 215.90903333331516,
      "v": 40
    },
    {
      "midi": 57,
      "hit": false,
      "t": 85279.80680416644,
      "d": 246.4487979166588,
      "v": 49
    },
    {
      "midi": 48,
      "hit": false,
      "t": 85287.6193020831,
      "d": 176.8465437499981,
      "v": 36
    },
    {
      "midi": 48,
      "hit": false,
      "t": 85610.77262499975,
      "d": 684.6589083333383,
      "v": 37
    },
    {
      "midi": 57,
      "hit": false,
      "t": 85622.13625833308,
      "d": 415.48284375001094,
      "v": 47
    },
    {
      "midi": 55,
      "hit": false,
      "t": 85623.55671249975,
      "d": 483.66464375000214,
      "v": 29
    },
    {
      "midi": 60,
      "hit": false,
      "t": 85626.39762083309,
      "d": 540.4828104166663,
      "v": 35
    },
    {
      "midi": 63,
      "hit": false,
      "t": 86288.32926249976,
      "d": 100.85224583331728,
      "v": 47
    },
    {
      "midi": 44,
      "hit": false,
      "t": 86310.34630208308,
      "d": 88.77838541666279,
      "v": 40
    },
    {
      "midi": 56,
      "hit": false,
      "t": 86311.05652916641,
      "d": 66.0511187499942,
      "v": 55
    },
    {
      "midi": 60,
      "hit": false,
      "t": 86312.47698333308,
      "d": 93.03974791667133,
      "v": 47
    },
    {
      "midi": 55,
      "hit": false,
      "t": 86325.26107083308,
      "d": 34.0908999999956,
      "v": 24
    },
    {
      "midi": 63,
      "hit": false,
      "t": 86644.15303124975,
      "d": 216.6192604166572,
      "v": 47
    },
    {
      "midi": 60,
      "hit": false,
      "t": 86650.54507499975,
      "d": 246.4487979166588,
      "v": 36
    },
    {
      "midi": 44,
      "hit": false,
      "t": 86653.3859833331,
      "d": 229.40334791665373,
      "v": 36
    },
    {
      "midi": 56,
      "hit": false,
      "t": 86654.09621041642,
      "d": 225.14198541665974,
      "v": 48
    },
    {
      "midi": 55,
      "hit": false,
      "t": 86669.01097916641,
      "d": 194.60222083333065,
      "v": 27
    },
    {
      "midi": 63,
      "hit": false,
      "t": 86970.14726249974,
      "d": 200.9942645833362,
      "v": 47
    },
    {
      "midi": 44,
      "hit": false,
      "t": 86978.66998749974,
      "d": 105.82383541666786,
      "v": 34
    },
    {
      "midi": 56,
      "hit": false,
      "t": 86982.22112291641,
      "d": 103.69315416667087,
      "v": 38
    },
    {
      "midi": 60,
      "hit": false,
      "t": 86990.03362083307,
      "d": 140.6249625000055,
      "v": 43
    },
    {
      "midi": 55,
      "hit": false,
      "t": 86992.87452916641,
      "d": 86.64770416666579,
      "v": 22
    },
    {
      "midi": 60,
      "hit": false,
      "t": 87312.47671666641,
      "d": 301.13628333334054,
      "v": 44
    },
    {
      "midi": 37,
      "hit": false,
      "t": 87319.57898749974,
      "d": 305.39764583333454,
      "v": 34
    },
    {
      "midi": 56,
      "hit": false,
      "t": 87320.99944166641,
      "d": 247.86925208334287,
      "v": 40
    },
    {
      "midi": 53,
      "hit": false,
      "t": 87323.84034999975,
      "d": 151.9885958333325,
      "v": 32
    },
    {
      "midi": 44,
      "hit": false,
      "t": 87645.57321874975,
      "d": 477.9828270833241,
      "v": 51
    },
    {
      "midi": 46,
      "hit": false,
      "t": 87747.13569166642,
      "d": 155.53973124999902,
      "v": 19
    },
    {
      "midi": 60,
      "hit": false,
      "t": 87991.45380833308,
      "d": 249.99993333332532,
      "v": 42
    },
    {
      "midi": 53,
      "hit": false,
      "t": 87995.71517083308,
      "d": 217.32948749999923,
      "v": 29
    },
    {
      "midi": 63,
      "hit": false,
      "t": 87996.4253979164,
      "d": 370.0283104166738,
      "v": 37
    },
    {
      "midi": 65,
      "hit": false,
      "t": 88006.36857708308,
      "d": 284.09083333333547,
      "v": 39
    },
    {
      "midi": 70,
      "hit": false,
      "t": 88327.39121874975,
      "d": 147.01700624999648,
      "v": 64
    },
    {
      "midi": 58,
      "hit": false,
      "t": 88670.43089999974,
      "d": 114.3465604166704,
      "v": 51
    },
    {
      "midi": 66,
      "hit": false,
      "t": 88681.79453333307,
      "d": 304.68741875000705,
      "v": 55
    },
    {
      "midi": 64,
      "hit": false,
      "t": 88682.5047604164,
      "d": 259.9431125000119,
      "v": 60
    },
    {
      "midi": 72,
      "hit": false,
      "t": 88695.99907499974,
      "d": 205.25562708334473,
      "v": 44
    },
    {
      "midi": 48,
      "hit": false,
      "t": 88700.97066458307,
      "d": 107.95451666667941,
      "v": 32
    },
    {
      "midi": 42,
      "hit": false,
      "t": 89341.59549374974,
      "d": 94.4602020833263,
      "v": 48
    },
    {
      "midi": 69,
      "hit": false,
      "t": 89352.95912708307,
      "d": 158.3806395833235,
      "v": 67
    },
    {
      "midi": 70,
      "hit": false,
      "t": 89534.77726041639,
      "d": 75.99429791666626,
      "v": 56
    },
    {
      "midi": 71,
      "hit": false,
      "t": 89640.60109583306,
      "d": 83.09656874999928,
      "v": 62
    },
    {
      "midi": 72,
      "hit": false,
      "t": 89769.1521979164,
      "d": 64.63066458332469,
      "v": 14
    },
    {
      "midi": 73,
      "hit": false,
      "t": 89828.10104583306,
      "d": 112.21587916665885,
      "v": 35
    },
    {
      "midi": 74,
      "hit": false,
      "t": 89910.48738749971,
      "d": 75.28407083332422,
      "v": 40
    },
    {
      "midi": 75,
      "hit": false,
      "t": 89970.85668958304,
      "d": 42.613624999983585,
      "v": 42
    },
    {
      "midi": 76,
      "hit": false,
      "t": 90009.20895208303,
      "d": 103.69315416665631,
      "v": 70
    },
    {
      "midi": 41,
      "hit": false,
      "t": 90062.47598333302,
      "d": 202.4147187500057,
      "v": 29
    },
    {
      "midi": 48,
      "hit": false,
      "t": 90085.20324999969,
      "d": 214.48857916667475,
      "v": 32
    },
    {
      "midi": 57,
      "hit": false,
      "t": 90088.04415833302,
      "d": 286.22151458333246,
      "v": 28
    },
    {
      "midi": 72,
      "hit": false,
      "t": 90116.45324166636,
      "d": 767.7554770833231,
      "v": 58
    },
    {
      "midi": 64,
      "hit": false,
      "t": 90722.27694374969,
      "d": 110.08519791666185,
      "v": 60
    },
    {
      "midi": 60,
      "hit": false,
      "t": 90752.81670833302,
      "d": 110.08519791666185,
      "v": 34
    },
    {
      "midi": 57,
      "hit": false,
      "t": 90769.15193124968,
      "d": 103.69315416667087,
      "v": 39
    },
    {
      "midi": 53,
      "hit": false,
      "t": 90786.90760833301,
      "d": 106.53406249999534,
      "v": 14
    },
    {
      "midi": 36,
      "hit": false,
      "t": 91415.458577083,
      "d": 36.22158125000715,
      "v": 45
    },
    {
      "midi": 60,
      "hit": false,
      "t": 92068.15726666634,
      "d": 35.51135416665056,
      "v": 37
    },
    {
      "midi": 62,
      "hit": false,
      "t": 92070.28794791634,
      "d": 29.829537499987055,
      "v": 29
    },
    {
      "midi": 57,
      "hit": false,
      "t": 92088.753852083,
      "d": 39.77271666665911,
      "v": 38
    },
    {
      "midi": 84,
      "hit": false,
      "t": 92287.61743541632,
      "d": 70.31248125000275,
      "v": 45
    },
    {
      "midi": 72,
      "hit": false,
      "t": 92294.71970624966,
      "d": 49.71589583333116,
      "v": 39
    },
    {
      "midi": 86,
      "hit": false,
      "t": 92499.26510624966,
      "d": 77.41475208333577,
      "v": 63
    },
    {
      "midi": 74,
      "hit": false,
      "t": 92509.91851249966,
      "d": 50.426122916673194,
      "v": 49
    },
    {
      "midi": 42,
      "hit": false,
      "t": 92725.827545833,
      "d": 95.17042916666833,
      "v": 44
    },
    {
      "midi": 54,
      "hit": false,
      "t": 92735.06049791633,
      "d": 112.2158791666734,
      "v": 44
    },
    {
      "midi": 87,
      "hit": false,
      "t": 92750.68549374967,
      "d": 73.15338958334178,
      "v": 60
    },
    {
      "midi": 75,
      "hit": false,
      "t": 92752.81617499967,
      "d": 65.34089166666672,
      "v": 57
    },
    {
      "midi": 78,
      "hit": false,
      "t": 93416.168270833,
      "d": 71.73293541667226,
      "v": 64
    },
    {
      "midi": 87,
      "hit": false,
      "t": 93418.298952083,
      "d": 91.61929375000182,
      "v": 67
    },
    {
      "midi": 72,
      "hit": false,
      "t": 93426.821677083,
      "d": 95.17042916666833,
      "v": 56
    },
    {
      "midi": 81,
      "hit": false,
      "t": 93429.66258541634,
      "d": 39.062489583331626,
      "v": 57
    },
    {
      "midi": 84,
      "hit": false,
      "t": 93695.287514583,
      "d": 77.41475208332122,
      "v": 65
    },
    {
      "midi": 75,
      "hit": false,
      "t": 93700.96933124967,
      "d": 67.47157291666372,
      "v": 63
    },
    {
      "midi": 78,
      "hit": false,
      "t": 93706.65114791633,
      "d": 71.02270833333023,
      "v": 60
    },
    {
      "midi": 69,
      "hit": false,
      "t": 93708.78182916633,
      "d": 83.09656874999928,
      "v": 67
    },
    {
      "midi": 66,
      "hit": false,
      "t": 94090.17377291633,
      "d": 187.49995000001218,
      "v": 53
    },
    {
      "midi": 81,
      "hit": false,
      "t": 94091.594227083,
      "d": 59.65907500000321,
      "v": 39
    },
    {
      "midi": 75,
      "hit": false,
      "t": 94093.01468124967,
      "d": 106.5340625000099,
      "v": 56
    },
    {
      "midi": 72,
      "hit": false,
      "t": 94097.27604374966,
      "d": 112.92610625001544,
      "v": 56
    },
    {
      "midi": 78,
      "hit": false,
      "t": 94309.63394166634,
      "d": 61.07952916667273,
      "v": 62
    },
    {
      "midi": 63,
      "hit": false,
      "t": 94316.73621249967,
      "d": 87.35793125000782,
      "v": 48
    },
    {
      "midi": 69,
      "hit": false,
      "t": 94343.01461458301,
      "d": 34.80112708333763,
      "v": 29
    },
    {
      "midi": 75,
      "hit": false,
      "t": 94746.42359791635,
      "d": 40.48294375001569,
      "v": 43
    },
    {
      "midi": 66,
      "hit": false,
      "t": 94749.26450624969,
      "d": 95.88065625001036,
      "v": 53
    },
    {
      "midi": 60,
      "hit": false,
      "t": 94750.68496041636,
      "d": 214.48857916667475,
      "v": 39
    },
    {
      "midi": 66,
      "hit": false,
      "t": 94960.91217708304,
      "d": 254.97152291666134,
      "v": 30
    },
    {
      "midi": 57,
      "hit": false,
      "t": 94968.01444791637,
      "d": 78.12497916666325,
      "v": 51
    },
    {
      "midi": 63,
      "hit": false,
      "t": 94971.56558333304,
      "d": 181.81813333333412,
      "v": 21
    },
    {
      "midi": 72,
      "hit": false,
      "t": 95005.65648333303,
      "d": 326.7044583333336,
      "v": 17
    },
    {
      "midi": 70,
      "hit": false,
      "t": 95428.9518249997,
      "d": 653.4089166666672,
      "v": 52
    },
    {
      "midi": 50,
      "hit": false,
      "t": 95443.15636666637,
      "d": 152.69882291667454,
      "v": 37
    },
    {
      "midi": 62,
      "hit": false,
      "t": 95445.99727499971,
      "d": 360.7953583333292,
      "v": 35
    },
    {
      "midi": 43,
      "hit": false,
      "t": 95451.67909166637,
      "d": 83.09656874999928,
      "v": 26
    },
    {
      "midi": 58,
      "hit": false,
      "t": 96142.7300437497,
      "d": 53.267031250012224,
      "v": 46
    },
    {
      "midi": 55,
      "hit": false,
      "t": 96145.57095208304,
      "d": 57.52839375000622,
      "v": 29
    },
    {
      "midi": 45,
      "hit": false,
      "t": 96458.78109583305,
      "d": 174.0056354166736,
      "v": 56
    },
    {
      "midi": 57,
      "hit": false,
      "t": 96465.88336666638,
      "d": 147.01700625001104,
      "v": 72
    },
    {
      "midi": 44,
      "hit": false,
      "t": 96597.27537708306,
      "d": 84.51702291665424,
      "v": 28
    },
    {
      "midi": 56,
      "hit": false,
      "t": 96610.05946458306,
      "d": 30.539764583329088,
      "v": 50
    },
    {
      "midi": 55,
      "hit": false,
      "t": 96688.89467083305,
      "d": 46.87498750000668,
      "v": 24
    },
    {
      "midi": 43,
      "hit": false,
      "t": 96708.07080208305,
      "d": 90.90906666667433,
      "v": 24
    },
    {
      "midi": 54,
      "hit": false,
      "t": 96770.57078541639,
      "d": 58.94884791666118,
      "v": 43
    },
    {
      "midi": 42,
      "hit": false,
      "t": 96828.80940624973,
      "d": 106.53406249999534,
      "v": 35
    },
    {
      "midi": 57,
      "hit": false,
      "t": 96887.75825416639,
      "d": 176.1363166666706,
      "v": 55
    },
    {
      "midi": 54,
      "hit": false,
      "t": 97086.62183749973,
      "d": 81.67611458332976,
      "v": 49
    },
    {
      "midi": 42,
      "hit": false,
      "t": 97108.63887708305,
      "d": 98.01133750000736,
      "v": 35
    },
    {
      "midi": 55,
      "hit": false,
      "t": 97227.24679999973,
      "d": 77.41475208333577,
      "v": 47
    },
    {
      "midi": 43,
      "hit": false,
      "t": 97295.42859999974,
      "d": 107.24428958332282,
      "v": 12
    },
    {
      "midi": 57,
      "hit": false,
      "t": 97408.35470624972,
      "d": 96.59088333333784,
      "v": 70
    },
    {
      "midi": 58,
      "hit": false,
      "t": 97557.50239374973,
      "d": 73.86361666666926,
      "v": 60
    },
    {
      "midi": 62,
      "hit": false,
      "t": 97722.27507708306,
      "d": 110.79542500000389,
      "v": 64
    },
    {
      "midi": 66,
      "hit": false,
      "t": 97883.49662499974,
      "d": 129.97155625000596,
      "v": 58
    },
    {
      "midi": 69,
      "hit": false,
      "t": 98072.4170291664,
      "d": 107.24428958333738,
      "v": 53
    },
    {
      "midi": 48,
      "hit": false,
      "t": 98220.85448958307,
      "d": 116.4772416666674,
      "v": 31
    },
    {
      "midi": 64,
      "hit": false,
      "t": 98225.11585208306,
      "d": 108.66474375000689,
      "v": 56
    },
    {
      "midi": 58,
      "hit": false,
      "t": 98231.50789583307,
      "d": 196.02267500000016,
      "v": 34
    },
    {
      "midi": 66,
      "hit": false,
      "t": 98393.43967083308,
      "d": 94.4602020833263,
      "v": 53
    },
    {
      "midi": 67,
      "hit": false,
      "t": 98534.06463333307,
      "d": 96.59088333333784,
      "v": 48
    },
    {
      "midi": 69,
      "hit": false,
      "t": 98702.38845208308,
      "d": 103.69315416665631,
      "v": 53
    },
    {
      "midi": 63,
      "hit": false,
      "t": 98823.83728333306,
      "d": 89.48861249999027,
      "v": 34
    },
    {
      "midi": 58,
      "hit": false,
      "t": 98849.40545833306,
      "d": 129.26132916666393,
      "v": 39
    },
    {
      "midi": 70,
      "hit": false,
      "t": 98869.29181666639,
      "d": 102.98292708332883,
      "v": 53
    },
    {
      "midi": 72,
      "hit": false,
      "t": 99044.00767916639,
      "d": 81.67611458332976,
      "v": 32
    },
    {
      "midi": 73,
      "hit": false,
      "t": 99137.04742708305,
      "d": 90.1988395833323,
      "v": 45
    },
    {
      "midi": 75,
      "hit": false,
      "t": 99241.45080833304,
      "d": 30.53976458334364,
      "v": 38
    },
    {
      "midi": 76,
      "hit": false,
      "t": 99311.76328958306,
      "d": 47.585214583334164,
      "v": 53
    },
    {
      "midi": 78,
      "hit": false,
      "t": 99409.77462708305,
      "d": 29.119310416659573,
      "v": 46
    },
    {
      "midi": 58,
      "hit": false,
      "t": 99454.51893333305,
      "d": 87.35793124999327,
      "v": 42
    },
    {
      "midi": 48,
      "hit": false,
      "t": 99487.18937916638,
      "d": 65.34089166666672,
      "v": 24
    },
    {
      "midi": 79,
      "hit": false,
      "t": 99499.97346666637,
      "d": 82.3863416666718,
      "v": 37
    },
    {
      "midi": 81,
      "hit": false,
      "t": 99585.91094374971,
      "d": 74.57384374999674,
      "v": 48
    },
    {
      "midi": 82,
      "hit": false,
      "t": 99668.29728541637,
      "d": 31.960218749998603,
      "v": 51
    },
    {
      "midi": 84,
      "hit": false,
      "t": 99759.20635208303,
      "d": 73.8636166666547,
      "v": 43
    },
    {
      "midi": 85,
      "hit": false,
      "t": 99833.78019583301,
      "d": 128.55110208333645,
      "v": 52
    },
    {
      "midi": 86,
      "hit": false,
      "t": 99872.84268541634,
      "d": 170.4545000000071,
      "v": 52
    },
    {
      "midi": 87,
      "hit": false,
      "t": 99967.30288749968,
      "d": 170.45449999999255,
      "v": 52
    },
    {
      "midi": 88,
      "hit": false,
      "t": 100021.99037291635,
      "d": 84.5170229166688,
      "v": 47
    },
    {
      "midi": 91,
      "hit": false,
      "t": 100146.28011249968,
      "d": 118.60792291666439,
      "v": 77
    },
    {
      "midi": 42,
      "hit": false,
      "t": 100166.87669791635,
      "d": 139.91473541666346,
      "v": 45
    },
    {
      "midi": 52,
      "hit": false,
      "t": 100184.63237499968,
      "d": 101.56247291665932,
      "v": 26
    },
    {
      "midi": 89,
      "hit": false,
      "t": 100322.41642916635,
      "d": 127.84087499999441,
      "v": 64
    },
    {
      "midi": 85,
      "hit": false,
      "t": 100521.99023958301,
      "d": 123.57951249998587,
      "v": 34
    },
    {
      "midi": 88,
      "hit": false,
      "t": 100641.308389583,
      "d": 155.53973124999902,
      "v": 66
    },
    {
      "midi": 85,
      "hit": false,
      "t": 100811.05266249967,
      "d": 129.9715562499914,
      "v": 23
    },
    {
      "midi": 41,
      "hit": false,
      "t": 100932.50149374966,
      "d": 124.2897395833279,
      "v": 36
    },
    {
      "midi": 86,
      "hit": false,
      "t": 100947.41626249967,
      "d": 127.84087499997986,
      "v": 66
    },
    {
      "midi": 57,
      "hit": false,
      "t": 100958.06966874967,
      "d": 222.30107708330615,
      "v": 40
    },
    {
      "midi": 48,
      "hit": false,
      "t": 100963.75148541633,
      "d": 127.84087499997986,
      "v": 35
    },
    {
      "midi": 81,
      "hit": false,
      "t": 101117.87076249965,
      "d": 79.54543333333277,
      "v": 50
    },
    {
      "midi": 81,
      "hit": false,
      "t": 101281.93321874965,
      "d": 119.31815000000643,
      "v": 42
    },
    {
      "midi": 79,
      "hit": false,
      "t": 101466.59226041632,
      "d": 80.25566041666025,
      "v": 56
    },
    {
      "midi": 62,
      "hit": false,
      "t": 101632.7853979163,
      "d": 178.2669979166676,
      "v": 29
    },
    {
      "midi": 79,
      "hit": false,
      "t": 101644.85925833297,
      "d": 139.91473541666346,
      "v": 51
    },
    {
      "midi": 60,
      "hit": false,
      "t": 101652.67175624963,
      "d": 100.14201875000435,
      "v": 30
    },
    {
      "midi": 57,
      "hit": false,
      "t": 101659.06379999964,
      "d": 159.09086666666553,
      "v": 36
    },
    {
      "midi": 53,
      "hit": false,
      "t": 101664.7456166663,
      "d": 136.36359999999695,
      "v": 24
    },
    {
      "midi": 77,
      "hit": false,
      "t": 101815.31375833297,
      "d": 66.76134583333624,
      "v": 50
    },
    {
      "midi": 77,
      "hit": false,
      "t": 101989.31939374964,
      "d": 92.3295208333293,
      "v": 58
    },
    {
      "midi": 76,
      "hit": false,
      "t": 102166.87616458297,
      "d": 95.17042916666833,
      "v": 66
    },
    {
      "midi": 57,
      "hit": false,
      "t": 102320.99544166631,
      "d": 203.83517291667522,
      "v": 40
    },
    {
      "midi": 62,
      "hit": false,
      "t": 102327.38748541632,
      "d": 143.46587083332997,
      "v": 34
    },
    {
      "midi": 76,
      "hit": false,
      "t": 102333.77952916632,
      "d": 137.7840541666519,
      "v": 61
    },
    {
      "midi": 67,
      "hit": false,
      "t": 102341.59202708298,
      "d": 90.90906666665978,
      "v": 15
    },
    {
      "midi": 77,
      "hit": false,
      "t": 102514.88743541631,
      "d": 79.54543333333277,
      "v": 58
    },
    {
      "midi": 72,
      "hit": false,
      "t": 102685.3419354163,
      "d": 234.3749375000043,
      "v": 54
    },
    {
      "midi": 64,
      "hit": false,
      "t": 102990.73958124964,
      "d": 238.6362999999983,
      "v": 32
    },
    {
      "midi": 57,
      "hit": false,
      "t": 103001.39298749964,
      "d": 265.6249291666609,
      "v": 44
    },
    {
      "midi": 72,
      "hit": false,
      "t": 103011.33616666631,
      "d": 176.8465437499981,
      "v": 38
    },
    {
      "midi": 60,
      "hit": false,
      "t": 103017.01798333297,
      "d": 232.24425624999276,
      "v": 24
    },
    {
      "midi": 53,
      "hit": false,
      "t": 103036.9043416663,
      "d": 200.28403749999416,
      "v": 20
    },
    {
      "midi": 73,
      "hit": false,
      "t": 103676.81894374963,
      "d": 364.3464937499957,
      "v": 42
    },
    {
      "midi": 61,
      "hit": false,
      "t": 103678.94962499963,
      "d": 109.37497083331982,
      "v": 39
    },
    {
      "midi": 65,
      "hit": false,
      "t": 103682.5007604163,
      "d": 39.77271666665911,
      "v": 47
    },
    {
      "midi": 67,
      "hit": false,
      "t": 103684.6314416663,
      "d": 374.28967291666777,
      "v": 53
    },
    {
      "midi": 79,
      "hit": false,
      "t": 103685.34166874962,
      "d": 324.5737770833366,
      "v": 48
    },
    {
      "midi": 55,
      "hit": false,
      "t": 103692.44393958295,
      "d": 118.60792291666439,
      "v": 33
    },
    {
      "midi": 27,
      "hit": false,
      "t": 104051.81884374963,
      "d": 32.670445833326085,
      "v": 53
    },
    {
      "midi": 70,
      "hit": false,
      "t": 104362.89830624963,
      "d": 619.3180166666425,
      "v": 62
    },
    {
      "midi": 61,
      "hit": false,
      "t": 104363.60853333295,
      "d": 563.9203041666478,
      "v": 61
    },
    {
      "midi": 60,
      "hit": false,
      "t": 104367.86989583295,
      "d": 298.29537499998696,
      "v": 55
    },
    {
      "midi": 65,
      "hit": false,
      "t": 104368.58012291628,
      "d": 546.1646270833298,
      "v": 65
    },
    {
      "midi": 58,
      "hit": false,
      "t": 104700.96639791627,
      "d": 568.1816666666709,
      "v": 81
    },
    {
      "midi": 61,
      "hit": false,
      "t": 105036.90380833294,
      "d": 559.6589416666684,
      "v": 72
    },
    {
      "midi": 72,
      "hit": false,
      "t": 105038.3242624996,
      "d": 616.4771083333326,
      "v": 68
    },
    {
      "midi": 65,
      "hit": false,
      "t": 105039.74471666628,
      "d": 554.6873520833324,
      "v": 75
    },
    {
      "midi": 58,
      "hit": false,
      "t": 105379.2332624996,
      "d": 383.5226249999978,
      "v": 74
    },
    {
      "midi": 61,
      "hit": false,
      "t": 105722.2729437496,
      "d": 419.03397916667745,
      "v": 64
    },
    {
      "midi": 70,
      "hit": false,
      "t": 105724.4036249996,
      "d": 485.0850979166862,
      "v": 63
    },
    {
      "midi": 65,
      "hit": false,
      "t": 105732.9263499996,
      "d": 426.1362500000105,
      "v": 67
    },
    {
      "midi": 46,
      "hit": false,
      "t": 106060.34103541628,
      "d": 218.74994166666875,
      "v": 42
    },
    {
      "midi": 45,
      "hit": false,
      "t": 106383.49435833294,
      "d": 103.69315416665631,
      "v": 44
    },
    {
      "midi": 60,
      "hit": false,
      "t": 106399.8295812496,
      "d": 80.96588749998773,
      "v": 36
    },
    {
      "midi": 64,
      "hit": false,
      "t": 106408.35230624961,
      "d": 134.94314583331288,
      "v": 41
    },
    {
      "midi": 55,
      "hit": false,
      "t": 106411.90344166628,
      "d": 83.09656874998473,
      "v": 24
    },
    {
      "midi": 67,
      "hit": false,
      "t": 106423.2670749996,
      "d": 107.24428958332282,
      "v": 29
    },
    {
      "midi": 69,
      "hit": false,
      "t": 106432.50002708293,
      "d": 134.94314583331288,
      "v": 26
    },
    {
      "midi": 60,
      "hit": false,
      "t": 106548.97726874959,
      "d": 96.59088333332329,
      "v": 29
    },
    {
      "midi": 60,
      "hit": false,
      "t": 106722.98290416625,
      "d": 89.48861249999027,
      "v": 36
    },
    {
      "midi": 64,
      "hit": false,
      "t": 106806.78969999957,
      "d": 85.22724999999627,
      "v": 35
    },
    {
      "midi": 67,
      "hit": false,
      "t": 106828.09651249957,
      "d": 51.136350000000675,
      "v": 25
    },
    {
      "midi": 60,
      "hit": false,
      "t": 106887.04536041623,
      "d": 102.98292708332883,
      "v": 38
    },
    {
      "midi": 64,
      "hit": false,
      "t": 106978.66465416623,
      "d": 78.83520624999073,
      "v": 35
    },
    {
      "midi": 67,
      "hit": false,
      "t": 107003.5226020829,
      "d": 46.87498749999213,
      "v": 27
    },
    {
      "midi": 69,
      "hit": false,
      "t": 107007.7839645829,
      "d": 69.60225416666071,
      "v": 18
    },
    {
      "midi": 60,
      "hit": false,
      "t": 107063.18167708289,
      "d": 95.17042916666833,
      "v": 50
    },
    {
      "midi": 56,
      "hit": false,
      "t": 107063.89190416622,
      "d": 382.8123979166994,
      "v": 76
    },
    {
      "midi": 64,
      "hit": false,
      "t": 107155.51119791622,
      "d": 62.49998333334224,
      "v": 45
    },
    {
      "midi": 69,
      "hit": false,
      "t": 107181.07937291623,
      "d": 59.65907500000321,
      "v": 17
    },
    {
      "midi": 60,
      "hit": false,
      "t": 107230.79526874956,
      "d": 94.46020208334085,
      "v": 48
    },
    {
      "midi": 64,
      "hit": false,
      "t": 107322.41456249956,
      "d": 88.77838541669189,
      "v": 36
    },
    {
      "midi": 69,
      "hit": false,
      "t": 107342.3009208329,
      "d": 77.41475208335032,
      "v": 24
    },
    {
      "midi": 54,
      "hit": false,
      "t": 107373.55091249957,
      "d": 85.93747708333831,
      "v": 31
    },
    {
      "midi": 60,
      "hit": false,
      "t": 107408.35203958291,
      "d": 97.30111041666532,
      "v": 49
    },
    {
      "midi": 57,
      "hit": false,
      "t": 107458.06793541624,
      "d": 357.2442229166627,
      "v": 83
    },
    {
      "midi": 64,
      "hit": false,
      "t": 107510.62473958291,
      "d": 61.78975625000021,
      "v": 32
    },
    {
      "midi": 69,
      "hit": false,
      "t": 107525.5395083329,
      "d": 71.73293541667226,
      "v": 20
    },
    {
      "midi": 67,
      "hit": false,
      "t": 107541.16450416624,
      "d": 36.93180833333463,
      "v": 20
    },
    {
      "midi": 60,
      "hit": false,
      "t": 107580.22699374957,
      "d": 100.14201875000435,
      "v": 48
    },
    {
      "midi": 64,
      "hit": false,
      "t": 107679.65878541625,
      "d": 110.0851979166473,
      "v": 44
    },
    {
      "midi": 69,
      "hit": false,
      "t": 107712.32923124958,
      "d": 61.079529166658176,
      "v": 24
    },
    {
      "midi": 67,
      "hit": false,
      "t": 107720.14172916624,
      "d": 42.61362499999814,
      "v": 25
    },
    {
      "midi": 60,
      "hit": false,
      "t": 107776.9598958329,
      "d": 92.32952083334385,
      "v": 47
    },
    {
      "midi": 59,
      "hit": false,
      "t": 107806.7894333329,
      "d": 667.6134583333333,
      "v": 64
    },
    {
      "midi": 69,
      "hit": false,
      "t": 107879.23259583292,
      "d": 76.70452500000829,
      "v": 24
    },
    {
      "midi": 64,
      "hit": false,
      "t": 107880.65304999959,
      "d": 57.52839375000622,
      "v": 42
    },
    {
      "midi": 60,
      "hit": false,
      "t": 107952.38598541626,
      "d": 85.22724999999627,
      "v": 38
    },
    {
      "midi": 64,
      "hit": false,
      "t": 108059.63027499958,
      "d": 41.903397916670656,
      "v": 34
    },
    {
      "midi": 60,
      "hit": false,
      "t": 108123.55071249958,
      "d": 83.80679583332676,
      "v": 35
    },
    {
      "midi": 64,
      "hit": false,
      "t": 108221.56204999957,
      "d": 46.87498750000668,
      "v": 35
    },
    {
      "midi": 60,
      "hit": false,
      "t": 108294.71543958291,
      "d": 92.3295208333293,
      "v": 36
    },
    {
      "midi": 64,
      "hit": false,
      "t": 108392.7267770829,
      "d": 51.84657708332816,
      "v": 39
    },
    {
      "midi": 60,
      "hit": false,
      "t": 108467.3006208329,
      "d": 97.30111041666532,
      "v": 48
    },
    {
      "midi": 57,
      "hit": false,
      "t": 108486.4767520829,
      "d": 688.9202708332887,
      "v": 46
    },
    {
      "midi": 64,
      "hit": false,
      "t": 108572.41422916623,
      "d": 41.903397916670656,
      "v": 31
    },
    {
      "midi": 60,
      "hit": false,
      "t": 108639.88580208289,
      "d": 91.61929374998726,
      "v": 33
    },
    {
      "midi": 64,
      "hit": false,
      "t": 108727.24373333289,
      "d": 88.06815833332075,
      "v": 19
    },
    {
      "midi": 69,
      "hit": false,
      "t": 108744.28918333288,
      "d": 60.369302083330695,
      "v": 20
    },
    {
      "midi": 60,
      "hit": false,
      "t": 108814.60166458288,
      "d": 120.02837708333391,
      "v": 33
    },
    {
      "midi": 69,
      "hit": false,
      "t": 108927.52777083288,
      "d": 131.39201041666092,
      "v": 18
    },
    {
      "midi": 64,
      "hit": false,
      "t": 108938.18117708288,
      "d": 44.744306249995134,
      "v": 15
    },
    {
      "midi": 60,
      "hit": false,
      "t": 109026.24933541621,
      "d": 52.55680416665564,
      "v": 16
    },
    {
      "midi": 60,
      "hit": false,
      "t": 109155.51066458286,
      "d": 350.8521791666717,
      "v": 36
    },
    {
      "midi": 56,
      "hit": false,
      "t": 109156.93111874953,
      "d": 85.22724999999627,
      "v": 40
    },
    {
      "midi": 63,
      "hit": false,
      "t": 109164.03338958287,
      "d": 382.8123979166703,
      "v": 30
    },
    {
      "midi": 69,
      "hit": false,
      "t": 109164.7436166662,
      "d": 405.53966458332434,
      "v": 24
    },
    {
      "midi": 66,
      "hit": false,
      "t": 109181.7890666662,
      "d": 383.5226249999978,
      "v": 30
    },
    {
      "midi": 38,
      "hit": false,
      "t": 109468.01058124953,
      "d": 98.0113374999928,
      "v": 42
    },
    {
      "midi": 54,
      "hit": false,
      "t": 109822.41389583285,
      "d": 383.52262499998324,
      "v": 46
    },
    {
      "midi": 65,
      "hit": false,
      "t": 109828.09571249952,
      "d": 188.2101770833251,
      "v": 56
    },
    {
      "midi": 70,
      "hit": false,
      "t": 109830.22639374952,
      "d": 285.51128749999043,
      "v": 58
    },
    {
      "midi": 74,
      "hit": false,
      "t": 109831.64684791618,
      "d": 223.72153124999022,
      "v": 63
    },
    {
      "midi": 60,
      "hit": false,
      "t": 109832.35707499951,
      "d": 378.55103541666176,
      "v": 40
    },
    {
      "midi": 63,
      "hit": false,
      "t": 110168.29448541618,
      "d": 322.44309583332506,
      "v": 46
    },
    {
      "midi": 72,
      "hit": false,
      "t": 110177.5274374995,
      "d": 281.24992499999644,
      "v": 48
    },
    {
      "midi": 68,
      "hit": false,
      "t": 110180.36834583285,
      "d": 296.87492083331745,
      "v": 44
    },
    {
      "midi": 50,
      "hit": false,
      "t": 110184.62970833284,
      "d": 394.1760312499973,
      "v": 38
    },
    {
      "midi": 63,
      "hit": false,
      "t": 110840.1693062495,
      "d": 512.0737270833342,
      "v": 55
    },
    {
      "midi": 54,
      "hit": false,
      "t": 110843.72044166617,
      "d": 534.0907666666608,
      "v": 38
    },
    {
      "midi": 68,
      "hit": false,
      "t": 110844.4306687495,
      "d": 474.4316916666721,
      "v": 50
    },
    {
      "midi": 60,
      "hit": false,
      "t": 110845.14089583282,
      "d": 205.25562708334473,
      "v": 45
    },
    {
      "midi": 50,
      "hit": false,
      "t": 111164.0328562495,
      "d": 608.6646104166721,
      "v": 20
    },
    {
      "midi": 44,
      "hit": false,
      "t": 111497.12935833284,
      "d": 264.2044750000059,
      "v": 46
    },
    {
      "midi": 58,
      "hit": false,
      "t": 111853.66335416617,
      "d": 267.7556104166579,
      "v": 44
    },
    {
      "midi": 43,
      "hit": false,
      "t": 111855.79403541617,
      "d": 232.9544833333348,
      "v": 37
    },
    {
      "midi": 60,
      "hit": false,
      "t": 111861.47585208283,
      "d": 249.28970624999783,
      "v": 41
    },
    {
      "midi": 53,
      "hit": false,
      "t": 111863.60653333283,
      "d": 176.84654375001264,
      "v": 30
    },
    {
      "midi": 50,
      "hit": false,
      "t": 111893.43607083283,
      "d": 226.56243958332925,
      "v": 26
    },
    {
      "midi": 65,
      "hit": false,
      "t": 112560.33930208284,
      "d": 287.64196875001653,
      "v": 73
    },
    {
      "midi": 72,
      "hit": false,
      "t": 112563.18021041618,
      "d": 303.26696458333754,
      "v": 70
    },
    {
      "midi": 69,
      "hit": false,
      "t": 112563.8904374995,
      "d": 303.9771916666796,
      "v": 73
    },
    {
      "midi": 60,
      "hit": false,
      "t": 112571.70293541618,
      "d": 291.1931041666685,
      "v": 65
    },
    {
      "midi": 62,
      "hit": false,
      "t": 112578.09497916618,
      "d": 267.7556104166724,
      "v": 54
    },
    {
      "midi": 58,
      "hit": false,
      "t": 112579.51543333285,
      "d": 290.48287708332646,
      "v": 52
    },
    {
      "midi": 69,
      "hit": false,
      "t": 112924.68579583285,
      "d": 247.15902500000084,
      "v": 77
    },
    {
      "midi": 72,
      "hit": false,
      "t": 112926.10624999952,
      "d": 232.9544833333348,
      "v": 68
    },
    {
      "midi": 65,
      "hit": false,
      "t": 112928.23693124951,
      "d": 211.64767083333572,
      "v": 72
    },
    {
      "midi": 58,
      "hit": false,
      "t": 112929.65738541618,
      "d": 257.10220416665834,
      "v": 70
    },
    {
      "midi": 62,
      "hit": false,
      "t": 112931.78806666618,
      "d": 177.55677083334012,
      "v": 57
    },
    {
      "midi": 60,
      "hit": false,
      "t": 112932.49829374951,
      "d": 170.4545000000071,
      "v": 69
    },
    {
      "midi": 68,
      "hit": false,
      "t": 113253.52093541618,
      "d": 301.136283333326,
      "v": 78
    },
    {
      "midi": 71,
      "hit": false,
      "t": 113254.94138958285,
      "d": 296.87492083331745,
      "v": 73
    },
    {
      "midi": 59,
      "hit": false,
      "t": 113260.62320624951,
      "d": 323.8635499999946,
      "v": 74
    },
    {
      "midi": 64,
      "hit": false,
      "t": 113264.17434166618,
      "d": 256.3919770833163,
      "v": 82
    },
    {
      "midi": 61,
      "hit": false,
      "t": 113264.8845687495,
      "d": 259.23288541665534,
      "v": 70
    },
    {
      "midi": 57,
      "hit": false,
      "t": 113271.98683958284,
      "d": 274.8578812499909,
      "v": 73
    },
    {
      "midi": 68,
      "hit": false,
      "t": 113607.9242499995,
      "d": 230.8238020833378,
      "v": 64
    },
    {
      "midi": 61,
      "hit": false,
      "t": 113609.34470416617,
      "d": 200.2840375000087,
      "v": 64
    },
    {
      "midi": 59,
      "hit": false,
      "t": 113612.18561249951,
      "d": 163.35222916667408,
      "v": 27
    },
    {
      "midi": 71,
      "hit": false,
      "t": 113613.60606666618,
      "d": 140.6249625000055,
      "v": 72
    },
    {
      "midi": 64,
      "hit": false,
      "t": 113622.12879166618,
      "d": 122.1590583333309,
      "v": 66
    },
    {
      "midi": 57,
      "hit": false,
      "t": 113627.81060833285,
      "d": 153.40905000000203,
      "v": 55
    },
    {
      "midi": 70,
      "hit": false,
      "t": 113924.68552916618,
      "d": 248.5794791666267,
      "v": 60
    },
    {
      "midi": 56,
      "hit": false,
      "t": 113925.3957562495,
      "d": 232.9544833333057,
      "v": 46
    },
    {
      "midi": 67,
      "hit": false,
      "t": 113927.5264374995,
      "d": 228.6931208333117,
      "v": 63
    },
    {
      "midi": 60,
      "hit": false,
      "t": 113928.23666458283,
      "d": 225.85221249998722,
      "v": 45
    },
    {
      "midi": 58,
      "hit": false,
      "t": 113933.9184812495,
      "d": 233.66471041664772,
      "v": 53
    },
    {
      "midi": 63,
      "hit": false,
      "t": 113936.04916249949,
      "d": 208.8067624999967,
      "v": 56
    },
    {
      "midi": 70,
      "hit": false,
      "t": 114265.59452916613,
      "d": 194.60222083333065,
      "v": 42
    },
    {
      "midi": 63,
      "hit": false,
      "t": 114269.1456645828,
      "d": 154.829504166657,
      "v": 50
    },
    {
      "midi": 58,
      "hit": false,
      "t": 114269.85589166613,
      "d": 239.34652708332578,
      "v": 43
    },
    {
      "midi": 67,
      "hit": false,
      "t": 114278.37861666613,
      "d": 119.31814999999187,
      "v": 47
    },
    {
      "midi": 56,
      "hit": false,
      "t": 114282.63997916612,
      "d": 190.34085833333666,
      "v": 48
    },
    {
      "midi": 60,
      "hit": false,
      "t": 114286.19111458279,
      "d": 103.69315416667087,
      "v": 28
    },
    {
      "midi": 59,
      "hit": false,
      "t": 114565.31035833279,
      "d": 273.43742708333593,
      "v": 45
    },
    {
      "midi": 66,
      "hit": false,
      "t": 114567.44103958279,
      "d": 486.5055520833412,
      "v": 55
    },
    {
      "midi": 57,
      "hit": false,
      "t": 114572.41262916612,
      "d": 245.73857083333132,
      "v": 57
    },
    {
      "midi": 62,
      "hit": false,
      "t": 114580.22512708278,
      "d": 333.09650208333915,
      "v": 40
    },
    {
      "midi": 55,
      "hit": false,
      "t": 114588.03762499944,
      "d": 238.63630000001285,
      "v": 40
    },
    {
      "midi": 69,
      "hit": false,
      "t": 114591.58876041611,
      "d": 355.11354166668025,
      "v": 43
    },
    {
      "midi": 58,
      "hit": false,
      "t": 115196.70223541613,
      "d": 318.8919604166731,
      "v": 39
    },
    {
      "midi": 61,
      "hit": false,
      "t": 115212.32723124947,
      "d": 324.5737770833366,
      "v": 48
    },
    {
      "midi": 68,
      "hit": false,
      "t": 115222.98063749947,
      "d": 433.23852083332895,
      "v": 34
    },
    {
      "midi": 56,
      "hit": false,
      "t": 115229.37268124947,
      "d": 329.5453666666581,
      "v": 45
    },
    {
      "midi": 65,
      "hit": false,
      "t": 115230.79313541614,
      "d": 352.98286041665415,
      "v": 45
    },
    {
      "midi": 54,
      "hit": false,
      "t": 115234.34427083281,
      "d": 358.66467708331766,
      "v": 31
    },
    {
      "midi": 64,
      "hit": false,
      "t": 115906.21909166612,
      "d": 289.06242291665694,
      "v": 43
    },
    {
      "midi": 57,
      "hit": false,
      "t": 115907.63954583279,
      "d": 242.8976624999923,
      "v": 38
    },
    {
      "midi": 60,
      "hit": false,
      "t": 115910.48045416613,
      "d": 319.60218749998603,
      "v": 35
    },
    {
      "midi": 67,
      "hit": false,
      "t": 115914.0315895828,
      "d": 786.9316083333251,
      "v": 34
    },
    {
      "midi": 55,
      "hit": false,
      "t": 115933.91794791612,
      "d": 183.9488145833311,
      "v": 28
    },
    {
      "midi": 53,
      "hit": false,
      "t": 115949.54294374946,
      "d": 227.9828937499842,
      "v": 20
    },
    {
      "midi": 61,
      "hit": false,
      "t": 116583.77572916611,
      "d": 520.5964520833368,
      "v": 43
    },
    {
      "midi": 46,
      "hit": false,
      "t": 116585.19618333278,
      "d": 346.59081666666316,
      "v": 35
    },
    {
      "midi": 56,
      "hit": false,
      "t": 116591.58822708279,
      "d": 223.01130416666274,
      "v": 25
    },
    {
      "midi": 58,
      "hit": false,
      "t": 116596.55981666612,
      "d": 315.34082499999204,
      "v": 39
    },
    {
      "midi": 53,
      "hit": false,
      "t": 116635.62230624945,
      "d": 91.61929375000182,
      "v": 17
    },
    {
      "midi": 66,
      "hit": false,
      "t": 117009.20175208278,
      "d": 176.8465437499981,
      "v": 15
    },
    {
      "midi": 60,
      "hit": false,
      "t": 117300.39485624945,
      "d": 178.26699791665305,
      "v": 41
    },
    {
      "midi": 55,
      "hit": false,
      "t": 117316.73007916611,
      "d": 112.21587916665885,
      "v": 24
    },
    {
      "midi": 52,
      "hit": false,
      "t": 117318.86076041611,
      "d": 182.5283604166616,
      "v": 24
    },
    {
      "midi": 45,
      "hit": false,
      "t": 117322.41189583277,
      "d": 133.52269166665792,
      "v": 30
    },
    {
      "midi": 64,
      "hit": false,
      "t": 117957.35490833277,
      "d": 38.352262500004144,
      "v": 40
    },
    {
      "midi": 72,
      "hit": false,
      "t": 117968.00831458277,
      "d": 117.89769583333691,
      "v": 55
    },
    {
      "midi": 79,
      "hit": false,
      "t": 117970.8492229161,
      "d": 92.3295208333293,
      "v": 65
    },
    {
      "midi": 57,
      "hit": false,
      "t": 117990.73558124944,
      "d": 67.47157291666372,
      "v": 29
    },
    {
      "midi": 67,
      "hit": false,
      "t": 118135.62190624943,
      "d": 103.69315416667087,
      "v": 37
    },
    {
      "midi": 76,
      "hit": false,
      "t": 118137.75258749943,
      "d": 118.60792291667894,
      "v": 36
    },
    {
      "midi": 79,
      "hit": false,
      "t": 118308.91731458278,
      "d": 90.1988395833323,
      "v": 54
    },
    {
      "midi": 72,
      "hit": false,
      "t": 118329.51389999945,
      "d": 95.88065624999581,
      "v": 27
    },
    {
      "midi": 67,
      "hit": false,
      "t": 118458.77522916612,
      "d": 93.74997499999881,
      "v": 31
    },
    {
      "midi": 76,
      "hit": false,
      "t": 118472.26954374945,
      "d": 103.69315416665631,
      "v": 24
    },
    {
      "midi": 45,
      "hit": false,
      "t": 118576.67292499944,
      "d": 73.15338958332723,
      "v": 34
    },
    {
      "midi": 55,
      "hit": false,
      "t": 118598.68996458277,
      "d": 107.24428958332282,
      "v": 15
    },
    {
      "midi": 79,
      "hit": false,
      "t": 118627.0990479161,
      "d": 103.69315416665631,
      "v": 44
    },
    {
      "midi": 72,
      "hit": false,
      "t": 118655.50813124943,
      "d": 103.69315416665631,
      "v": 20
    },
    {
      "midi": 67,
      "hit": false,
      "t": 118784.05923333275,
      "d": 96.59088333332329,
      "v": 32
    },
    {
      "midi": 76,
      "hit": false,
      "t": 118795.42286666608,
      "d": 111.50565208333137,
      "v": 27
    },
    {
      "midi": 79,
      "hit": false,
      "t": 118963.03645833275,
      "d": 43.32385208334017,
      "v": 36
    },
    {
      "midi": 55,
      "hit": false,
      "t": 119288.32046249943,
      "d": 164.77268333332904,
      "v": 33
    },
    {
      "midi": 64,
      "hit": false,
      "t": 119311.0477291661,
      "d": 90.1988395833323,
      "v": 33
    },
    {
      "midi": 60,
      "hit": false,
      "t": 119323.12158958276,
      "d": 87.35793124999327,
      "v": 28
    },
    {
      "midi": 50,
      "hit": false,
      "t": 119722.26921041608,
      "d": 170.4545000000071,
      "v": 50
    },
    {
      "midi": 53,
      "hit": false,
      "t": 120000.67822708277,
      "d": 169.0340458333376,
      "v": 30
    },
    {
      "midi": 77,
      "hit": false,
      "t": 120298.97360208277,
      "d": 94.4602020833263,
      "v": 63
    },
    {
      "midi": 71,
      "hit": false,
      "t": 120302.52473749944,
      "d": 115.76701458332536,
      "v": 57
    },
    {
      "midi": 74,
      "hit": false,
      "t": 120449.54174374943,
      "d": 128.55110208333645,
      "v": 44
    },
    {
      "midi": 65,
      "hit": false,
      "t": 120452.38265208277,
      "d": 91.61929375000182,
      "v": 45
    },
    {
      "midi": 77,
      "hit": false,
      "t": 120628.51896874944,
      "d": 106.53406249999534,
      "v": 60
    },
    {
      "midi": 71,
      "hit": false,
      "t": 120634.2007854161,
      "d": 116.4772416666674,
      "v": 54
    },
    {
      "midi": 62,
      "hit": false,
      "t": 120646.9848729161,
      "d": 40.48294375000114,
      "v": 35
    },
    {
      "midi": 56,
      "hit": false,
      "t": 120654.08714374944,
      "d": 112.2158791666734,
      "v": 35
    },
    {
      "midi": 59,
      "hit": false,
      "t": 120668.2916854161,
      "d": 50.426122916673194,
      "v": 31
    },
    {
      "midi": 65,
      "hit": false,
      "t": 120801.10414999945,
      "d": 85.93747708333831,
      "v": 30
    },
    {
      "midi": 74,
      "hit": false,
      "t": 120809.62687499945,
      "d": 99.43179166666232,
      "v": 35
    },
    {
      "midi": 77,
      "hit": false,
      "t": 120956.64388124945,
      "d": 107.24428958333738,
      "v": 50
    },
    {
      "midi": 71,
      "hit": false,
      "t": 120961.61547083278,
      "d": 102.98292708332883,
      "v": 43
    },
    {
      "midi": 65,
      "hit": false,
      "t": 121114.31429374944,
      "d": 88.77838541664823,
      "v": 40
    },
    {
      "midi": 74,
      "hit": false,
      "t": 121129.22906249943,
      "d": 120.02837708331936,
      "v": 40
    },
    {
      "midi": 56,
      "hit": false,
      "t": 121298.26310833276,
      "d": 210.93744374997914,
      "v": 60
    },
    {
      "midi": 77,
      "hit": false,
      "t": 121313.17787708275,
      "d": 158.3806395833235,
      "v": 57
    },
    {
      "midi": 71,
      "hit": false,
      "t": 121320.99037499941,
      "d": 146.306779166669,
      "v": 51
    },
    {
      "midi": 65,
      "hit": false,
      "t": 121325.96196458275,
      "d": 122.86928541667294,
      "v": 49
    },
    {
      "midi": 47,
      "hit": false,
      "t": 121396.27444583275,
      "d": 95.17042916665378,
      "v": 50
    },
    {
      "midi": 74,
      "hit": false,
      "t": 121505.64941666607,
      "d": 124.2897395833279,
      "v": 40
    },
    {
      "midi": 77,
      "hit": false,
      "t": 121672.5527812494,
      "d": 168.32381874999555,
      "v": 47
    },
    {
      "midi": 71,
      "hit": false,
      "t": 121683.91641458272,
      "d": 142.7556437500025,
      "v": 34
    },
    {
      "midi": 65,
      "hit": false,
      "t": 121690.30845833273,
      "d": 128.55110208333645,
      "v": 24
    },
    {
      "midi": 56,
      "hit": false,
      "t": 122046.13222708272,
      "d": 124.2897395833279,
      "v": 42
    },
    {
      "midi": 62,
      "hit": false,
      "t": 122055.36517916605,
      "d": 56.81816666666418,
      "v": 22
    },
    {
      "midi": 59,
      "hit": false,
      "t": 122058.91631458272,
      "d": 68.1817999999912,
      "v": 30
    },
    {
      "midi": 50,
      "hit": false,
      "t": 122485.05256458271,
      "d": 213.06812500000524,
      "v": 36
    },
    {
      "midi": 65,
      "hit": false,
      "t": 122765.59226249938,
      "d": 248.57947916667035,
      "v": 30
    },
    {
      "midi": 43,
      "hit": false,
      "t": 122771.98430624939,
      "d": 53.26703124999767,
      "v": 26
    },
    {
      "midi": 53,
      "hit": false,
      "t": 122773.40476041606,
      "d": 120.02837708333391,
      "v": 29
    },
    {
      "midi": 70,
      "hit": false,
      "t": 122794.71157291606,
      "d": 271.3067458333244,
      "v": 23
    },
    {
      "midi": 58,
      "hit": false,
      "t": 123433.20572083272,
      "d": 88.06815833332075,
      "v": 53
    },
    {
      "midi": 70,
      "hit": false,
      "t": 123433.91594791604,
      "d": 89.48861249999027,
      "v": 77
    },
    {
      "midi": 77,
      "hit": false,
      "t": 123434.62617499937,
      "d": 85.93747708333831,
      "v": 71
    },
    {
      "midi": 62,
      "hit": false,
      "t": 123437.46708333271,
      "d": 29.829537500001607,
      "v": 35
    },
    {
      "midi": 65,
      "hit": false,
      "t": 123602.94999374937,
      "d": 96.59088333332329,
      "v": 46
    },
    {
      "midi": 74,
      "hit": false,
      "t": 123607.21135624936,
      "d": 116.4772416666674,
      "v": 41
    },
    {
      "midi": 70,
      "hit": false,
      "t": 123754.22836249936,
      "d": 122.86928541667294,
      "v": 57
    },
    {
      "midi": 77,
      "hit": false,
      "t": 123757.0692708327,
      "d": 117.18746874999488,
      "v": 62
    },
    {
      "midi": 65,
      "hit": false,
      "t": 123911.89877499937,
      "d": 95.17042916666833,
      "v": 35
    },
    {
      "midi": 74,
      "hit": false,
      "t": 123915.44991041603,
      "d": 117.18746875000943,
      "v": 40
    },
    {
      "midi": 70,
      "hit": false,
      "t": 124084.48395624937,
      "d": 113.63633333334292,
      "v": 46
    },
    {
      "midi": 77,
      "hit": false,
      "t": 124090.16577291604,
      "d": 108.66474375000689,
      "v": 53
    },
    {
      "midi": 50,
      "hit": false,
      "t": 124093.00668124938,
      "d": 188.92040416666714,
      "v": 39
    },
    {
      "midi": 65,
      "hit": false,
      "t": 124266.3020895827,
      "d": 85.93747708333831,
      "v": 24
    },
    {
      "midi": 74,
      "hit": false,
      "t": 124271.98390624937,
      "d": 115.76701458333991,
      "v": 30
    },
    {
      "midi": 70,
      "hit": false,
      "t": 124432.4952270827,
      "d": 75.99429791666626,
      "v": 54
    },
    {
      "midi": 77,
      "hit": false,
      "t": 124435.33613541604,
      "d": 83.09656874999928,
      "v": 49
    },
    {
      "midi": 65,
      "hit": false,
      "t": 124458.77362916604,
      "d": 41.19317083332862,
      "v": 33
    },
    {
      "midi": 49,
      "hit": false,
      "t": 124749.96673333271,
      "d": 119.31815000000643,
      "v": 33
    },
    {
      "midi": 37,
      "hit": false,
      "t": 124752.80764166605,
      "d": 126.42042083333945,
      "v": 36
    },
    {
      "midi": 79,
      "hit": false,
      "t": 125472.26767708272,
      "d": 129.26132916667848,
      "v": 40
    },
    {
      "midi": 36,
      "hit": false,
      "t": 125475.10858541606,
      "d": 68.89202708333323,
      "v": 28
    },
    {
      "midi": 52,
      "hit": false,
      "t": 125476.52903958273,
      "d": 166.19313749999856,
      "v": 39
    },
    {
      "midi": 67,
      "hit": false,
      "t": 125477.9494937494,
      "d": 155.53973124999902,
      "v": 38
    },
    {
      "midi": 76,
      "hit": false,
      "t": 125649.82444791606,
      "d": 115.05678749999788,
      "v": 32
    },
    {
      "midi": 79,
      "hit": false,
      "t": 125806.78463333273,
      "d": 126.4204208333249,
      "v": 51
    },
    {
      "midi": 67,
      "hit": false,
      "t": 125842.2959874994,
      "d": 75.99429791666626,
      "v": 22
    },
    {
      "midi": 76,
      "hit": false,
      "t": 125992.86412916606,
      "d": 110.08519791666185,
      "v": 40
    },
    {
      "midi": 61,
      "hit": false,
      "t": 126144.14249791605,
      "d": 139.91473541666346,
      "v": 38
    },
    {
      "midi": 79,
      "hit": false,
      "t": 126145.56295208272,
      "d": 168.32381874999555,
      "v": 51
    },
    {
      "midi": 64,
      "hit": false,
      "t": 126149.11408749939,
      "d": 89.48861250000482,
      "v": 39
    },
    {
      "midi": 73,
      "hit": false,
      "t": 126152.66522291605,
      "d": 120.02837708333391,
      "v": 25
    },
    {
      "midi": 58,
      "hit": false,
      "t": 126163.31862916605,
      "d": 133.52269166665792,
      "v": 44
    },
    {
      "midi": 67,
      "hit": false,
      "t": 126166.86976458272,
      "d": 84.5170229166688,
      "v": 29
    },
    {
      "midi": 76,
      "hit": false,
      "t": 126333.77312916605,
      "d": 194.60222083333065,
      "v": 41
    },
    {
      "midi": 73,
      "hit": false,
      "t": 126482.92081666604,
      "d": 126.42042083333945,
      "v": 40
    },
    {
      "midi": 80,
      "hit": false,
      "t": 126822.40936249938,
      "d": 171.16472708332003,
      "v": 61
    },
    {
      "midi": 58,
      "hit": false,
      "t": 126827.38095208272,
      "d": 170.454499999978,
      "v": 39
    },
    {
      "midi": 68,
      "hit": false,
      "t": 126835.19344999938,
      "d": 117.18746874999488,
      "v": 40
    },
    {
      "midi": 48,
      "hit": false,
      "t": 126843.71617499938,
      "d": 86.64770416666579,
      "v": 34
    },
    {
      "midi": 77,
      "hit": false,
      "t": 127039.73884999937,
      "d": 86.64770416666579,
      "v": 49
    },
    {
      "midi": 80,
      "hit": false,
      "t": 127179.65358541603,
      "d": 138.49428124999395,
      "v": 60
    },
    {
      "midi": 68,
      "hit": false,
      "t": 127195.9888083327,
      "d": 90.90906666665978,
      "v": 38
    },
    {
      "midi": 77,
      "hit": false,
      "t": 127380.64784999935,
      "d": 96.59088333333784,
      "v": 46
    },
    {
      "midi": 80,
      "hit": false,
      "t": 127524.11372083268,
      "d": 170.45449999999255,
      "v": 53
    },
    {
      "midi": 64,
      "hit": false,
      "t": 127529.08531041602,
      "d": 74.57384374999674,
      "v": 58
    },
    {
      "midi": 68,
      "hit": false,
      "t": 127537.60803541602,
      "d": 131.39201041666092,
      "v": 37
    },
    {
      "midi": 58,
      "hit": false,
      "t": 127539.73871666602,
      "d": 102.27270000000135,
      "v": 57
    },
    {
      "midi": 73,
      "hit": false,
      "t": 127550.39212291602,
      "d": 107.24428958333738,
      "v": 33
    },
    {
      "midi": 77,
      "hit": false,
      "t": 127718.71594166601,
      "d": 151.27836875000503,
      "v": 46
    },
    {
      "midi": 73,
      "hit": false,
      "t": 127876.38635416602,
      "d": 159.09086666666553,
      "v": 40
    },
    {
      "midi": 41,
      "hit": false,
      "t": 128205.22149374936,
      "d": 105.11360833332583,
      "v": 34
    },
    {
      "midi": 48,
      "hit": false,
      "t": 128227.94876041602,
      "d": 147.01700624998193,
      "v": 41
    },
    {
      "midi": 57,
      "hit": false,
      "t": 128230.07944166602,
      "d": 188.9204041666526,
      "v": 44
    },
    {
      "midi": 69,
      "hit": false,
      "t": 128230.78966874935,
      "d": 111.50565208333137,
      "v": 57
    },
    {
      "midi": 81,
      "hit": false,
      "t": 128248.54534583268,
      "d": 127.84087499999441,
      "v": 38
    },
    {
      "midi": 76,
      "hit": false,
      "t": 128259.90897916601,
      "d": 51.136350000000675,
      "v": 28
    },
    {
      "midi": 76,
      "hit": false,
      "t": 128409.056666666,
      "d": 91.61929375000182,
      "v": 43
    },
    {
      "midi": 81,
      "hit": false,
      "t": 128553.942991666,
      "d": 147.01700624999648,
      "v": 47
    },
    {
      "midi": 69,
      "hit": false,
      "t": 128563.17594374933,
      "d": 86.64770416666579,
      "v": 44
    },
    {
      "midi": 76,
      "hit": false,
      "t": 128759.90884583266,
      "d": 40.48294375000114,
      "v": 38
    },
    {
      "midi": 64,
      "hit": false,
      "t": 128889.88040208266,
      "d": 122.86928541667294,
      "v": 55
    },
    {
      "midi": 60,
      "hit": false,
      "t": 128909.05653333267,
      "d": 203.83517291666067,
      "v": 36
    },
    {
      "midi": 84,
      "hit": false,
      "t": 128911.897441666,
      "d": 114.3465604166704,
      "v": 74
    },
    {
      "midi": 57,
      "hit": false,
      "t": 128923.97130208267,
      "d": 234.37493749998976,
      "v": 43
    },
    {
      "midi": 72,
      "hit": false,
      "t": 128925.39175624934,
      "d": 90.1988395833323,
      "v": 36
    },
    {
      "midi": 84,
      "hit": false,
      "t": 129101.528072916,
      "d": 83.80679583332676,
      "v": 41
    },
    {
      "midi": 72,
      "hit": false,
      "t": 129110.76102499933,
      "d": 59.65907500000321,
      "v": 28
    },
    {
      "midi": 74,
      "hit": false,
      "t": 129263.45984791599,
      "d": 90.1988395833323,
      "v": 72
    },
    {
      "midi": 86,
      "hit": false,
      "t": 129264.88030208266,
      "d": 115.76701458332536,
      "v": 72
    },
    {
      "midi": 81,
      "hit": false,
      "t": 129279.79507083265,
      "d": 107.95451666666486,
      "v": 41
    },
    {
      "midi": 86,
      "hit": false,
      "t": 129445.27798124932,
      "d": 94.46020208334085,
      "v": 66
    },
    {
      "midi": 74,
      "hit": false,
      "t": 129475.10751874933,
      "d": 61.07952916667273,
      "v": 32
    },
    {
      "midi": 81,
      "hit": false,
      "t": 129485.050697916,
      "d": 84.5170229166688,
      "v": 22
    },
    {
      "midi": 84,
      "hit": false,
      "t": 129615.022254166,
      "d": 360.7953583333292,
      "v": 43
    },
    {
      "midi": 72,
      "hit": false,
      "t": 129619.99384374934,
      "d": 401.9885291666578,
      "v": 44
    },
    {
      "midi": 60,
      "hit": false,
      "t": 129622.83475208268,
      "d": 276.27833541664586,
      "v": 55
    },
    {
      "midi": 81,
      "hit": false,
      "t": 129623.544979166,
      "d": 347.30104374999064,
      "v": 32
    },
    {
      "midi": 63,
      "hit": false,
      "t": 129631.35747708267,
      "d": 367.18740208333475,
      "v": 40
    },
    {
      "midi": 54,
      "hit": false,
      "t": 129634.90861249933,
      "d": 468.74987499999406,
      "v": 46
    },
    {
      "midi": 65,
      "hit": false,
      "t": 130267.72094374933,
      "d": 218.74994166666875,
      "v": 58
    },
    {
      "midi": 63,
      "hit": false,
      "t": 130269.85162499933,
      "d": 159.09086666666553,
      "v": 51
    },
    {
      "midi": 68,
      "hit": false,
      "t": 130275.53344166599,
      "d": 234.3749375000043,
      "v": 51
    },
    {
      "midi": 72,
      "hit": false,
      "t": 130276.24366874932,
      "d": 220.8806229166803,
      "v": 53
    },
    {
      "midi": 58,
      "hit": false,
      "t": 130283.34593958265,
      "d": 182.52836041667615,
      "v": 56
    },
    {
      "midi": 53,
      "hit": false,
      "t": 130296.84025416599,
      "d": 149.14768750000803,
      "v": 31
    },
    {
      "midi": 44,
      "hit": false,
      "t": 130695.98787499932,
      "d": 174.0056354166736,
      "v": 50
    },
    {
      "midi": 54,
      "hit": false,
      "t": 130697.40832916599,
      "d": 186.07949583334266,
      "v": 42
    },
    {
      "midi": 43,
      "hit": false,
      "t": 130955.220760416,
      "d": 171.16472708332003,
      "v": 49
    },
    {
      "midi": 53,
      "hit": false,
      "t": 130968.71507499935,
      "d": 217.32948749998468,
      "v": 40
    },
    {
      "midi": 62,
      "hit": false,
      "t": 131644.14103124934,
      "d": 335.9374104166636,
      "v": 33
    },
    {
      "midi": 58,
      "hit": false,
      "t": 131646.27171249935,
      "d": 397.0169395832927,
      "v": 44
    },
    {
      "midi": 57,
      "hit": false,
      "t": 131656.21489166602,
      "d": 379.9714895832876,
      "v": 36
    },
    {
      "midi": 53,
      "hit": false,
      "t": 131661.8967083327,
      "d": 399.14762083327514,
      "v": 18
    },
    {
      "midi": 70,
      "hit": false,
      "t": 131871.41369791602,
      "d": 85.93747708332376,
      "v": 57
    },
    {
      "midi": 69,
      "hit": false,
      "t": 131931.78299999936,
      "d": 77.41475208330667,
      "v": 24
    },
    {
      "midi": 67,
      "hit": false,
      "t": 132035.47615416598,
      "d": 49.00566875000368,
      "v": 30
    },
    {
      "midi": 69,
      "hit": false,
      "t": 132127.09544791598,
      "d": 44.744306250009686,
      "v": 33
    },
    {
      "midi": 70,
      "hit": false,
      "t": 132174.68066249933,
      "d": 39.062489583331626,
      "v": 58
    },
    {
      "midi": 72,
      "hit": false,
      "t": 132270.56131874933,
      "d": 62.49998333334224,
      "v": 36
    },
    {
      "midi": 62,
      "hit": false,
      "t": 132295.419266666,
      "d": 79.54543333331821,
      "v": 30
    },
    {
      "midi": 58,
      "hit": false,
      "t": 132296.83972083265,
      "d": 144.1760979166429,
      "v": 34
    },
    {
      "midi": 52,
      "hit": false,
      "t": 132320.27721458266,
      "d": 94.46020208331174,
      "v": 22
    },
    {
      "midi": 73,
      "hit": false,
      "t": 132338.032891666,
      "d": 72.44316249998519,
      "v": 48
    },
    {
      "midi": 75,
      "hit": false,
      "t": 132419.7090062493,
      "d": 32.670445833326085,
      "v": 45
    },
    {
      "midi": 76,
      "hit": false,
      "t": 132495.70330416595,
      "d": 52.55680416667019,
      "v": 54
    },
    {
      "midi": 78,
      "hit": false,
      "t": 132597.26577708262,
      "d": 30.53976458334364,
      "v": 27
    },
    {
      "midi": 79,
      "hit": false,
      "t": 132676.10098333264,
      "d": 65.34089166665217,
      "v": 35
    },
    {
      "midi": 80,
      "hit": false,
      "t": 132700.24870416598,
      "d": 29.829537499987055,
      "v": 36
    },
    {
      "midi": 81,
      "hit": false,
      "t": 132762.7486874993,
      "d": 55.397712499980116,
      "v": 36
    },
    {
      "midi": 82,
      "hit": false,
      "t": 132816.72594583262,
      "d": 44.0340791666531,
      "v": 57
    },
    {
      "midi": 84,
      "hit": false,
      "t": 132916.15773749928,
      "d": 77.41475208330667,
      "v": 55
    },
    {
      "midi": 58,
      "hit": false,
      "t": 132933.9134145826,
      "d": 80.2556604166457,
      "v": 42
    },
    {
      "midi": 48,
      "hit": false,
      "t": 132953.0895458326,
      "d": 78.12497916666325,
      "v": 32
    },
    {
      "midi": 85,
      "hit": false,
      "t": 133004.22589583258,
      "d": 127.13064791666693,
      "v": 43
    },
    {
      "midi": 88,
      "hit": false,
      "t": 133200.95879791593,
      "d": 59.65907500000321,
      "v": 48
    },
    {
      "midi": 91,
      "hit": false,
      "t": 133293.28831874926,
      "d": 120.73860416666139,
      "v": 80
    },
    {
      "midi": 88,
      "hit": false,
      "t": 133466.5837270826,
      "d": 90.90906666667433,
      "v": 72
    },
    {
      "midi": 89,
      "hit": false,
      "t": 133646.27117916592,
      "d": 116.47724166663829,
      "v": 78
    },
    {
      "midi": 41,
      "hit": false,
      "t": 133658.34503958258,
      "d": 117.89769583332236,
      "v": 33
    },
    {
      "midi": 57,
      "hit": false,
      "t": 133670.41889999923,
      "d": 107.95451666667941,
      "v": 31
    },
    {
      "midi": 84,
      "hit": false,
      "t": 133835.9018104159,
      "d": 85.22724999999627,
      "v": 61
    },
    {
      "midi": 86,
      "hit": false,
      "t": 134023.4017604159,
      "d": 103.69315416665631,
      "v": 67
    },
    {
      "midi": 81,
      "hit": false,
      "t": 134197.40739583256,
      "d": 81.67611458332976,
      "v": 50
    },
    {
      "midi": 84,
      "hit": false,
      "t": 134362.89030624923,
      "d": 112.92610624997178,
      "v": 63
    },
    {
      "midi": 57,
      "hit": false,
      "t": 134367.86189583255,
      "d": 123.57951249997132,
      "v": 34
    },
    {
      "midi": 53,
      "hit": false,
      "t": 134386.3277999992,
      "d": 80.96588750000228,
      "v": 15
    },
    {
      "midi": 77,
      "hit": false,
      "t": 134559.62320833252,
      "d": 42.61362499999814,
      "v": 43
    },
    {
      "midi": 81,
      "hit": false,
      "t": 134728.65725416585,
      "d": 95.17042916666833,
      "v": 56
    },
    {
      "midi": 77,
      "hit": false,
      "t": 134906.21402499918,
      "d": 78.12497916666325,
      "v": 48
    },
    {
      "midi": 67,
      "hit": false,
      "t": 135059.62307499917,
      "d": 80.2556604166748,
      "v": 37
    },
    {
      "midi": 79,
      "hit": false,
      "t": 135074.53784374916,
      "d": 120.7386041666905,
      "v": 55
    },
    {
      "midi": 57,
      "hit": false,
      "t": 135080.92988749917,
      "d": 98.01133750000736,
      "v": 27
    },
    {
      "midi": 62,
      "hit": false,
      "t": 135083.7707958325,
      "d": 41.903397916670656,
      "v": 30
    },
    {
      "midi": 72,
      "hit": false,
      "t": 135253.51506874917,
      "d": 86.64770416668034,
      "v": 39
    },
    {
      "midi": 74,
      "hit": false,
      "t": 135393.42980416585,
      "d": 141.33518958333298,
      "v": 51
    },
    {
      "midi": 69,
      "hit": false,
      "t": 135578.08884583254,
      "d": 82.38634166665724,
      "v": 55
    },
    {
      "midi": 62,
      "hit": false,
      "t": 135743.5717562492,
      "d": 359.37490416664514,
      "v": 27
    },
    {
      "midi": 72,
      "hit": false,
      "t": 135746.41266458255,
      "d": 642.0452833333111,
      "v": 50
    },
    {
      "midi": 60,
      "hit": false,
      "t": 135757.77629791587,
      "d": 367.18740208330564,
      "v": 25
    },
    {
      "midi": 57,
      "hit": false,
      "t": 135763.45811458252,
      "d": 361.5055854166567,
      "v": 32
    },
    {
      "midi": 53,
      "hit": false,
      "t": 135773.4012937492,
      "d": 317.4715062500036,
      "v": 17
    },
    {
      "midi": 63,
      "hit": false,
      "t": 136399.11135416586,
      "d": 121.44883124998887,
      "v": 45
    },
    {
      "midi": 69,
      "hit": false,
      "t": 136404.08294374918,
      "d": 281.96015208333847,
      "v": 32
    },
    {
      "midi": 54,
      "hit": false,
      "t": 136406.2136249992,
      "d": 184.6590416666586,
      "v": 38
    },
    {
      "midi": 60,
      "hit": false,
      "t": 136433.20225416587,
      "d": 90.90906666664523,
      "v": 26
    },
    {
      "midi": 42,
      "hit": false,
      "t": 137026.95209583253,
      "d": 1775.567708333314,
      "v": 45
    },
    {
      "midi": 53,
      "hit": false,
      "t": 137225.81567916585,
      "d": 74.57384374999674,
      "v": 39
    },
    {
      "midi": 54,
      "hit": false,
      "t": 137303.94065833252,
      "d": 95.88065624999581,
      "v": 43
    },
    {
      "midi": 56,
      "hit": false,
      "t": 137392.00881666585,
      "d": 32.670445833326085,
      "v": 40
    },
    {
      "midi": 57,
      "hit": false,
      "t": 137455.21902708252,
      "d": 80.96588750000228,
      "v": 62
    },
    {
      "midi": 58,
      "hit": false,
      "t": 137516.29855624918,
      "d": 85.22725000002538,
      "v": 52
    },
    {
      "midi": 59,
      "hit": false,
      "t": 137598.68489791587,
      "d": 46.16476041666465,
      "v": 39
    },
    {
      "midi": 60,
      "hit": false,
      "t": 137634.19625208253,
      "d": 79.54543333334732,
      "v": 50
    },
    {
      "midi": 62,
      "hit": false,
      "t": 137750.6734937492,
      "d": 90.19883958334685,
      "v": 43
    },
    {
      "midi": 59,
      "hit": false,
      "t": 137981.49729583255,
      "d": 82.38634166665724,
      "v": 64
    },
    {
      "midi": 60,
      "hit": false,
      "t": 138102.2358999992,
      "d": 95.88065624999581,
      "v": 49
    },
    {
      "midi": 62,
      "hit": false,
      "t": 138161.1847479159,
      "d": 68.89202708331868,
      "v": 40
    },
    {
      "midi": 63,
      "hit": false,
      "t": 138233.62791041587,
      "d": 56.1079395833367,
      "v": 60
    },
    {
      "midi": 65,
      "hit": false,
      "t": 138342.29265416588,
      "d": 73.86361666664016,
      "v": 60
    },
    {
      "midi": 54,
      "hit": false,
      "t": 138372.12219166587,
      "d": 455.25556041664095,
      "v": 25
    },
    {
      "midi": 66,
      "hit": false,
      "t": 138429.65058541586,
      "d": 82.38634166665724,
      "v": 47
    },
    {
      "midi": 68,
      "hit": false,
      "t": 138526.9516958325,
      "d": 30.53976458334364,
      "v": 45
    },
    {
      "midi": 69,
      "hit": false,
      "t": 138629.2243958325,
      "d": 77.41475208333577,
      "v": 26
    },
    {
      "midi": 70,
      "hit": false,
      "t": 138715.16187291584,
      "d": 110.79542500001844,
      "v": 45
    },
    {
      "midi": 71,
      "hit": false,
      "t": 138850.10501874916,
      "d": 62.49998333334224,
      "v": 36
    },
    {
      "midi": 72,
      "hit": false,
      "t": 138941.01408541584,
      "d": 163.35222916665953,
      "v": 60
    },
    {
      "midi": 69,
      "hit": false,
      "t": 139065.30382499917,
      "d": 215.90903333332972,
      "v": 68
    },
    {
      "midi": 43,
      "hit": false,
      "t": 139093.00268124917,
      "d": 127.13064791666693,
      "v": 37
    },
    {
      "midi": 62,
      "hit": false,
      "t": 139318.85489374917,
      "d": 82.38634166665724,
      "v": 53
    },
    {
      "midi": 65,
      "hit": false,
      "t": 139504.9343895825,
      "d": 107.24428958332282,
      "v": 53
    },
    {
      "midi": 69,
      "hit": false,
      "t": 139668.99684583247,
      "d": 110.79542499998934,
      "v": 51
    },
    {
      "midi": 70,
      "hit": false,
      "t": 139826.66725833245,
      "d": 159.80109374999302,
      "v": 48
    },
    {
      "midi": 62,
      "hit": false,
      "t": 139828.79793958247,
      "d": 199.57381041665212,
      "v": 33
    },
    {
      "midi": 58,
      "hit": false,
      "t": 139843.71270833246,
      "d": 356.5339958333061,
      "v": 38
    },
    {
      "midi": 69,
      "hit": false,
      "t": 140009.90584583246,
      "d": 100.1420187499898,
      "v": 56
    },
    {
      "midi": 70,
      "hit": false,
      "t": 140168.28648541577,
      "d": 88.77838541666279,
      "v": 60
    },
    {
      "midi": 74,
      "hit": false,
      "t": 140347.26371041578,
      "d": 102.27270000000135,
      "v": 57
    },
    {
      "midi": 77,
      "hit": false,
      "t": 140512.03639374912,
      "d": 139.20450833332143,
      "v": 54
    },
    {
      "midi": 62,
      "hit": false,
      "t": 140514.16707499913,
      "d": 49.005668749974575,
      "v": 24
    },
    {
      "midi": 58,
      "hit": false,
      "t": 140533.34320624912,
      "d": 84.5170229166688,
      "v": 35
    },
    {
      "midi": 81,
      "hit": false,
      "t": 140693.1442999991,
      "d": 111.50565208334592,
      "v": 51
    },
    {
      "midi": 84,
      "hit": false,
      "t": 140866.43970833244,
      "d": 153.40904999998747,
      "v": 37
    },
    {
      "midi": 50,
      "hit": false,
      "t": 141166.1555374991,
      "d": 170.45449999999255,
      "v": 46
    },
    {
      "midi": 55,
      "hit": false,
      "t": 141650.53040833242,
      "d": 167.61359166668262,
      "v": 32
    },
    {
      "midi": 48,
      "hit": false,
      "t": 141876.38262083242,
      "d": 91.61929375000182,
      "v": 39
    },
    {
      "midi": 58,
      "hit": false,
      "t": 141880.6439833324,
      "d": 154.11927708334406,
      "v": 36
    },
    {
      "midi": 84,
      "hit": false,
      "t": 142082.34847499907,
      "d": 70.31248125000275,
      "v": 65
    },
    {
      "midi": 81,
      "hit": false,
      "t": 142180.35981249908,
      "d": 42.61362499999814,
      "v": 45
    },
    {
      "midi": 82,
      "hit": false,
      "t": 142276.24046874908,
      "d": 130.68178333333344,
      "v": 56
    },
    {
      "midi": 79,
      "hit": false,
      "t": 142373.54157916576,
      "d": 64.63066458332469,
      "v": 47
    },
    {
      "midi": 76,
      "hit": false,
      "t": 142471.55291666574,
      "d": 68.89202708334778,
      "v": 48
    },
    {
      "midi": 64,
      "hit": false,
      "t": 142501.38245416575,
      "d": 56.81816666666418,
      "v": 32
    },
    {
      "midi": 58,
      "hit": false,
      "t": 142526.24040208242,
      "d": 99.43179166666232,
      "v": 30
    },
    {
      "midi": 75,
      "hit": false,
      "t": 142632.7744645824,
      "d": 75.99429791668081,
      "v": 48
    },
    {
      "midi": 74,
      "hit": false,
      "t": 142733.62671041576,
      "d": 88.77838541666279,
      "v": 46
    },
    {
      "midi": 73,
      "hit": false,
      "t": 142840.16077291575,
      "d": 112.2158791666734,
      "v": 40
    },
    {
      "midi": 70,
      "hit": false,
      "t": 143071.69480208243,
      "d": 174.71586249998654,
      "v": 52
    },
    {
      "midi": 67,
      "hit": false,
      "t": 143181.7799999991,
      "d": 808.9486479166371,
      "v": 58
    },
    {
      "midi": 48,
      "hit": false,
      "t": 143409.05266666575,
      "d": 130.68178333333344,
      "v": 68
    },
    {
      "midi": 49,
      "hit": false,
      "t": 143522.68899999908,
      "d": 85.22724999999627,
      "v": 50
    },
    {
      "midi": 50,
      "hit": false,
      "t": 143636.3253333324,
      "d": 97.30111041667988,
      "v": 55
    },
    {
      "midi": 51,
      "hit": false,
      "t": 143749.96166666577,
      "d": 161.22154791664798,
      "v": 49
    },
    {
      "midi": 52,
      "hit": false,
      "t": 143909.76276041576,
      "d": 37.64203541664756,
      "v": 52
    },
    {
      "midi": 53,
      "hit": false,
      "t": 144014.16614166574,
      "d": 85.22724999999627,
      "v": 52
    },
    {
      "midi": 54,
      "hit": false,
      "t": 144090.87066666575,
      "d": 29.829537499987055,
      "v": 55
    },
    {
      "midi": 55,
      "hit": false,
      "t": 144204.50699999908,
      "d": 107.24428958332282,
      "v": 27
    },
    {
      "midi": 56,
      "hit": false,
      "t": 144318.1433333324,
      "d": 120.02837708333391,
      "v": 31
    },
    {
      "midi": 58,
      "hit": false,
      "t": 144392.7171770824,
      "d": 191.76131249999162,
      "v": 52
    },
    {
      "midi": 41,
      "hit": false,
      "t": 144545.41599999907,
      "d": 404.1192104166548,
      "v": 51
    },
    {
      "midi": 57,
      "hit": false,
      "t": 144545.41599999907,
      "d": 429.6873854166479,
      "v": 64
    },
    {
      "midi": 48,
      "hit": false,
      "t": 145007.77383124904,
      "d": 255.68174999998882,
      "v": 53
    },
    {
      "midi": 69,
      "hit": false,
      "t": 145300.38738958235,
      "d": 94.46020208331174,
      "v": 38
    },
    {
      "midi": 57,
      "hit": false,
      "t": 145305.35897916567,
      "d": 115.76701458333991,
      "v": 50
    },
    {
      "midi": 65,
      "hit": false,
      "t": 145308.199887499,
      "d": 93.03974791665678,
      "v": 41
    },
    {
      "midi": 60,
      "hit": false,
      "t": 145323.82488333233,
      "d": 41.903397916670656,
      "v": 26
    },
    {
      "midi": 58,
      "hit": false,
      "t": 145689.591831249,
      "d": 260.6533395833103,
      "v": 71
    },
    {
      "midi": 74,
      "hit": false,
      "t": 145697.40432916567,
      "d": 187.49994999999763,
      "v": 74
    },
    {
      "midi": 68,
      "hit": false,
      "t": 145699.53501041568,
      "d": 261.3635666666378,
      "v": 83
    },
    {
      "midi": 64,
      "hit": false,
      "t": 145704.506599999,
      "d": 230.11357499999576,
      "v": 83
    },
    {
      "midi": 72,
      "hit": false,
      "t": 145999.25083958232,
      "d": 118.60792291664984,
      "v": 60
    },
    {
      "midi": 67,
      "hit": false,
      "t": 146009.194018749,
      "d": 118.60792291664984,
      "v": 68
    },
    {
      "midi": 57,
      "hit": false,
      "t": 146009.90424583232,
      "d": 384.2328520833107,
      "v": 67
    },
    {
      "midi": 62,
      "hit": false,
      "t": 146012.03492708234,
      "d": 170.45449999996345,
      "v": 62
    },
    {
      "midi": 67,
      "hit": false,
      "t": 146402.65982291562,
      "d": 141.33518958333298,
      "v": 57
    },
    {
      "midi": 53,
      "hit": false,
      "t": 146416.8643645823,
      "d": 299.00560208334355,
      "v": 42
    },
    {
      "midi": 60,
      "hit": false,
      "t": 146421.12572708228,
      "d": 108.66474375000689,
      "v": 47
    },
    {
      "midi": 64,
      "hit": false,
      "t": 146664.73361666562,
      "d": 303.26696458336664,
      "v": 62
    },
    {
      "midi": 60,
      "hit": false,
      "t": 146691.7222458323,
      "d": 311.07946250002715,
      "v": 46
    },
    {
      "midi": 50,
      "hit": false,
      "t": 146693.14269999895,
      "d": 162.64200208336115,
      "v": 35
    },
    {
      "midi": 57,
      "hit": false,
      "t": 146695.9836083323,
      "d": 288.3521958333731,
      "v": 49
    },
    {
      "midi": 46,
      "hit": false,
      "t": 147091.58009374898,
      "d": 140.6249625000055,
      "v": 33
    },
    {
      "midi": 61,
      "hit": false,
      "t": 147301.09708333234,
      "d": 503.55100208331714,
      "v": 42
    },
    {
      "midi": 55,
      "hit": false,
      "t": 147314.59139791568,
      "d": 338.77831875000265,
      "v": 36
    },
    {
      "midi": 65,
      "hit": false,
      "t": 147318.14253333234,
      "d": 567.4714395833143,
      "v": 49
    },
    {
      "midi": 39,
      "hit": false,
      "t": 147322.40389583234,
      "d": 509.2328187499952,
      "v": 40
    },
    {
      "midi": 46,
      "hit": false,
      "t": 147332.347074999,
      "d": 332.3862749999971,
      "v": 31
    },
    {
      "midi": 46,
      "hit": false,
      "t": 147771.97763958233,
      "d": 217.32948749998468,
      "v": 57
    },
    {
      "midi": 61,
      "hit": false,
      "t": 148004.2218958323,
      "d": 127.84087500002352,
      "v": 39
    },
    {
      "midi": 58,
      "hit": false,
      "t": 148012.7446208323,
      "d": 106.53406250002445,
      "v": 57
    },
    {
      "midi": 55,
      "hit": false,
      "t": 148015.58552916563,
      "d": 72.4431625000143,
      "v": 39
    },
    {
      "midi": 60,
      "hit": false,
      "t": 148442.432006249,
      "d": 300.4260562499694,
      "v": 73
    },
    {
      "midi": 72,
      "hit": false,
      "t": 148450.24450416566,
      "d": 172.585181249975,
      "v": 69
    },
    {
      "midi": 61,
      "hit": false,
      "t": 148450.954731249,
      "d": 167.61359166665352,
      "v": 79
    },
    {
      "midi": 65,
      "hit": false,
      "t": 148452.37518541564,
      "d": 307.52832708333153,
      "v": 76
    },
    {
      "midi": 69,
      "hit": false,
      "t": 148463.73881874897,
      "d": 193.18176666667568,
      "v": 50
    },
    {
      "midi": 61,
      "hit": false,
      "t": 148705.92625416565,
      "d": 73.15338958331267,
      "v": 54
    },
    {
      "midi": 58,
      "hit": false,
      "t": 148717.28988749898,
      "d": 680.3975458332861,
      "v": 50
    },
    {
      "midi": 70,
      "hit": false,
      "t": 148735.75579166564,
      "d": 93.74997499998426,
      "v": 37
    },
    {
      "midi": 75,
      "hit": false,
      "t": 149152.65908958227,
      "d": 401.9885291666724,
      "v": 71
    },
    {
      "midi": 67,
      "hit": false,
      "t": 149157.63067916562,
      "d": 358.66467708331766,
      "v": 72
    },
    {
      "midi": 63,
      "hit": false,
      "t": 149159.05113333228,
      "d": 319.60218749998603,
      "v": 71
    },
    {
      "midi": 70,
      "hit": false,
      "t": 149162.60226874895,
      "d": 398.43739375000587,
      "v": 59
    },
    {
      "midi": 64,
      "hit": false,
      "t": 149164.0227229156,
      "d": 334.51695625000866,
      "v": 66
    },
    {
      "midi": 61,
      "hit": false,
      "t": 149610.75555833228,
      "d": 297.5851479166304,
      "v": 43
    },
    {
      "midi": 73,
      "hit": false,
      "t": 149618.56805624894,
      "d": 223.72153124999022,
      "v": 44
    },
    {
      "midi": 70,
      "hit": false,
      "t": 149632.7725979156,
      "d": 232.2442562499782,
      "v": 50
    },
    {
      "midi": 67,
      "hit": false,
      "t": 149648.39759374893,
      "d": 174.00563541665906,
      "v": 47
    },
    {
      "midi": 64,
      "hit": false,
      "t": 150056.06793958225,
      "d": 76.70452500000829,
      "v": 54
    },
    {
      "midi": 50,
      "hit": false,
      "t": 150067.43157291558,
      "d": 105.82383541666786,
      "v": 29
    },
    {
      "midi": 74,
      "hit": false,
      "t": 150068.85202708223,
      "d": 1726.5620395833976,
      "v": 38
    },
    {
      "midi": 67,
      "hit": false,
      "t": 150074.5338437489,
      "d": 112.92610625000088,
      "v": 38
    },
    {
      "midi": 69,
      "hit": false,
      "t": 150080.2156604156,
      "d": 97.30111041665077,
      "v": 35
    },
    {
      "midi": 60,
      "hit": false,
      "t": 150082.3463416656,
      "d": 149.14768749999348,
      "v": 24
    },
    {
      "midi": 64,
      "hit": false,
      "t": 150193.1417666656,
      "d": 88.77838541666279,
      "v": 34
    },
    {
      "midi": 67,
      "hit": false,
      "t": 150289.7326499989,
      "d": 56.1079395833367,
      "v": 24
    },
    {
      "midi": 64,
      "hit": false,
      "t": 150353.6530874989,
      "d": 95.17042916666833,
      "v": 37
    },
    {
      "midi": 67,
      "hit": false,
      "t": 150444.5621541656,
      "d": 92.3295208333293,
      "v": 26
    },
    {
      "midi": 69,
      "hit": false,
      "t": 150474.39169166557,
      "d": 41.193170833343174,
      "v": 19
    },
    {
      "midi": 64,
      "hit": false,
      "t": 150513.4541812489,
      "d": 96.5908833333524,
      "v": 35
    },
    {
      "midi": 67,
      "hit": false,
      "t": 150619.98824374893,
      "d": 59.65907500000321,
      "v": 22
    },
    {
      "midi": 64,
      "hit": false,
      "t": 150682.48822708227,
      "d": 87.35793124997872,
      "v": 53
    },
    {
      "midi": 62,
      "hit": false,
      "t": 150751.3802541656,
      "d": 505.6816833333869,
      "v": 55
    },
    {
      "midi": 67,
      "hit": false,
      "t": 150771.97683958226,
      "d": 63.920437499997206,
      "v": 20
    },
    {
      "midi": 64,
      "hit": false,
      "t": 150845.84045624893,
      "d": 78.12497916666325,
      "v": 51
    },
    {
      "midi": 67,
      "hit": false,
      "t": 150947.4029291656,
      "d": 51.84657708334271,
      "v": 24
    },
    {
      "midi": 69,
      "hit": false,
      "t": 150958.0563354156,
      "d": 47.585214583348716,
      "v": 20
    },
    {
      "midi": 64,
      "hit": false,
      "t": 151002.8006416656,
      "d": 86.64770416668034,
      "v": 40
    },
    {
      "midi": 64,
      "hit": false,
      "t": 151170.4142333323,
      "d": 97.30111041667988,
      "v": 47
    },
    {
      "midi": 67,
      "hit": false,
      "t": 151271.97670624897,
      "d": 81.67611458332976,
      "v": 25
    },
    {
      "midi": 69,
      "hit": false,
      "t": 151278.36874999898,
      "d": 516.3350895833282,
      "v": 24
    },
    {
      "midi": 64,
      "hit": false,
      "t": 151359.33463749898,
      "d": 467.32942083332455,
      "v": 36
    },
    {
      "midi": 60,
      "hit": false,
      "t": 151426.0959833323,
      "d": 149.14768749999348,
      "v": 51
    },
    {
      "midi": 67,
      "hit": false,
      "t": 151441.72097916564,
      "d": 349.4317250000022,
      "v": 16
    },
    {
      "midi": 50,
      "hit": false,
      "t": 151867.1470020823,
      "d": 1006.3917770833941,
      "v": 37
    },
    {
      "midi": 60,
      "hit": false,
      "t": 152108.62421041564,
      "d": 339.48854583335924,
      "v": 33
    },
    {
      "midi": 56,
      "hit": false,
      "t": 152109.33443749897,
      "d": 435.36920208335505,
      "v": 44
    },
    {
      "midi": 63,
      "hit": false,
      "t": 152118.5673895823,
      "d": 320.3124145833426,
      "v": 30
    },
    {
      "midi": 66,
      "hit": false,
      "t": 152122.11852499898,
      "d": 343.74990833335323,
      "v": 35
    },
    {
      "midi": 68,
      "hit": false,
      "t": 152124.95943333232,
      "d": 325.9942312500207,
      "v": 30
    },
    {
      "midi": 60,
      "hit": false,
      "t": 152572.40249583233,
      "d": 390.62489583334536,
      "v": 43
    },
    {
      "midi": 63,
      "hit": false,
      "t": 152574.53317708234,
      "d": 374.99989999999525,
      "v": 35
    },
    {
      "midi": 66,
      "hit": false,
      "t": 152575.953631249,
      "d": 351.56240625001374,
      "v": 32
    },
    {
      "midi": 69,
      "hit": false,
      "t": 152582.345674999,
      "d": 318.89196041668765,
      "v": 32
    },
    {
      "midi": 57,
      "hit": false,
      "t": 152588.02749166568,
      "d": 209.51698958332418,
      "v": 50
    },
    {
      "midi": 55,
      "hit": false,
      "t": 153254.22049583233,
      "d": 223.72153124999022,
      "v": 52
    },
    {
      "midi": 54,
      "hit": false,
      "t": 153509.90224583232,
      "d": 254.97152291666134,
      "v": 55
    },
    {
      "midi": 26,
      "hit": false,
      "t": 153895.5555520823,
      "d": 63.920437499997206,
      "v": 43
    },
    {
      "midi": 63,
      "hit": false,
      "t": 154174.6747958323,
      "d": 173.29540833330248,
      "v": 53
    },
    {
      "midi": 69,
      "hit": false,
      "t": 154175.38502291564,
      "d": 228.6931208333117,
      "v": 62
    },
    {
      "midi": 66,
      "hit": false,
      "t": 154183.90774791563,
      "d": 201.70449166666367,
      "v": 43
    },
    {
      "midi": 60,
      "hit": false,
      "t": 154185.32820208228,
      "d": 136.3636000000115,
      "v": 51
    },
    {
      "midi": 54,
      "hit": false,
      "t": 154600.8110458323,
      "d": 83.80679583334131,
      "v": 44
    },
    {
      "midi": 60,
      "hit": false,
      "t": 154605.7826354156,
      "d": 37.64203541667666,
      "v": 45
    },
    {
      "midi": 73,
      "hit": false,
      "t": 154842.28825416564,
      "d": 110.08519791666185,
      "v": 40
    },
    {
      "midi": 85,
      "hit": false,
      "t": 154843.7087083323,
      "d": 176.8465437499981,
      "v": 53
    },
    {
      "midi": 80,
      "hit": false,
      "t": 154857.91324999896,
      "d": 114.34656041668495,
      "v": 43
    },
    {
      "midi": 86,
      "hit": false,
      "t": 155053.22569791562,
      "d": 63.920437499997206,
      "v": 30
    },
    {
      "midi": 91,
      "hit": false,
      "t": 155282.6290458323,
      "d": 29.119310416659573,
      "v": 25
    },
    {
      "midi": 89,
      "hit": false,
      "t": 155283.33927291562,
      "d": 35.511354166665114,
      "v": 26
    },
    {
      "midi": 44,
      "hit": false,
      "t": 155292.57222499896,
      "d": 123.57951250000042,
      "v": 49
    },
    {
      "midi": 43,
      "hit": false,
      "t": 155509.90171249898,
      "d": 75.9942979166517,
      "v": 47
    },
    {
      "midi": 96,
      "hit": false,
      "t": 155536.1801145823,
      "d": 122.15905833334546,
      "v": 57
    },
    {
      "midi": 84,
      "hit": false,
      "t": 155543.99261249896,
      "d": 76.70452500000829,
      "v": 54
    },
    {
      "midi": 90,
      "hit": false,
      "t": 155546.8335208323,
      "d": 91.61929375000182,
      "v": 18
    },
    {
      "midi": 93,
      "hit": false,
      "t": 155571.69146874896,
      "d": 92.3295208333584,
      "v": 46
    },
    {
      "midi": 89,
      "hit": false,
      "t": 155593.7085083323,
      "d": 36.2215812500217,
      "v": 24
    },
    {
      "midi": 96,
      "hit": false,
      "t": 155730.07210833233,
      "d": 97.30111041662167,
      "v": 36
    },
    {
      "midi": 84,
      "hit": false,
      "t": 155731.49256249898,
      "d": 90.90906666664523,
      "v": 37
    },
    {
      "midi": 93,
      "hit": false,
      "t": 155750.66869374897,
      "d": 112.92610624997178,
      "v": 40
    },
    {
      "midi": 89,
      "hit": false,
      "t": 155751.3789208323,
      "d": 80.96588749997318,
      "v": 49
    },
    {
      "midi": 95,
      "hit": false,
      "t": 156151.94699583226,
      "d": 127.8408749999362,
      "v": 66
    },
    {
      "midi": 62,
      "hit": false,
      "t": 156156.20835833225,
      "d": 44.034079166624,
      "v": 45
    },
    {
      "midi": 58,
      "hit": false,
      "t": 156157.6288124989,
      "d": 110.79542499996023,
      "v": 51
    },
    {
      "midi": 83,
      "hit": false,
      "t": 156158.33903958224,
      "d": 80.2556604166457,
      "v": 54
    },
    {
      "midi": 89,
      "hit": false,
      "t": 156173.25380833223,
      "d": 66.05111874997965,
      "v": 40
    },
    {
      "midi": 92,
      "hit": false,
      "t": 156174.67426249888,
      "d": 44.0340791666531,
      "v": 35
    },
    {
      "midi": 95,
      "hit": false,
      "t": 156346.54921666553,
      "d": 88.0681583333353,
      "v": 58
    },
    {
      "midi": 83,
      "hit": false,
      "t": 156365.72534791552,
      "d": 78.83520625001984,
      "v": 34
    },
    {
      "midi": 92,
      "hit": false,
      "t": 156376.37875416552,
      "d": 169.74427291669417,
      "v": 30
    },
    {
      "midi": 89,
      "hit": false,
      "t": 156379.21966249886,
      "d": 101.56247291667387,
      "v": 41
    },
    {
      "midi": 94,
      "hit": false,
      "t": 156580.92415416555,
      "d": 80.96588750000228,
      "v": 56
    },
    {
      "midi": 82,
      "hit": false,
      "t": 156590.1571062489,
      "d": 42.61362499999814,
      "v": 46
    },
    {
      "midi": 89,
      "hit": false,
      "t": 156597.25937708223,
      "d": 43.32385208332562,
      "v": 46
    },
    {
      "midi": 43,
      "hit": false,
      "t": 156799.67409583222,
      "d": 139.9147354166489,
      "v": 20
    },
    {
      "midi": 62,
      "hit": false,
      "t": 157521.9750395822,
      "d": 71.02270833333023,
      "v": 47
    },
    {
      "midi": 58,
      "hit": false,
      "t": 157525.52617499887,
      "d": 107.24428958335193,
      "v": 55
    },
    {
      "midi": 53,
      "hit": false,
      "t": 157546.83298749887,
      "d": 80.2556604166748,
      "v": 26
    },
    {
      "midi": 47,
      "hit": false,
      "t": 157962.3158312489,
      "d": 193.18176666664658,
      "v": 51
    },
    {
      "midi": 57,
      "hit": false,
      "t": 157973.67946458224,
      "d": 183.9488145833311,
      "v": 68
    },
    {
      "midi": 61,
      "hit": false,
      "t": 158236.46348541556,
      "d": 463.77828541665804,
      "v": 46
    },
    {
      "midi": 65,
      "hit": false,
      "t": 158252.08848124888,
      "d": 506.3919104166562,
      "v": 57
    },
    {
      "midi": 56,
      "hit": false,
      "t": 158267.00324999887,
      "d": 306.81810000000405,
      "v": 57
    },
    {
      "midi": 46,
      "hit": false,
      "t": 158268.42370416553,
      "d": 281.249925000011,
      "v": 53
    },
    {
      "midi": 65,
      "hit": false,
      "t": 158939.58829791553,
      "d": 371.44876458329963,
      "v": 55
    },
    {
      "midi": 60,
      "hit": false,
      "t": 158941.00875208218,
      "d": 103.69315416665631,
      "v": 36
    },
    {
      "midi": 61,
      "hit": false,
      "t": 158941.7189791655,
      "d": 390.62489583331626,
      "v": 48
    },
    {
      "midi": 58,
      "hit": false,
      "t": 158986.46328541552,
      "d": 51.13634999998612,
      "v": 29
    },
    {
      "midi": 46,
      "hit": false,
      "t": 159365.72454791548,
      "d": 62.49998333334224,
      "v": 50
    },
    {
      "midi": 57,
      "hit": false,
      "t": 159603.65062083217,
      "d": 318.18173333333107,
      "v": 68
    },
    {
      "midi": 69,
      "hit": false,
      "t": 159614.30402708217,
      "d": 232.2442562500073,
      "v": 69
    },
    {
      "midi": 58,
      "hit": false,
      "t": 159623.5369791655,
      "d": 293.3237854166655,
      "v": 79
    },
    {
      "midi": 61,
      "hit": false,
      "t": 159624.24720624884,
      "d": 348.0112708333181,
      "v": 64
    },
    {
      "midi": 64,
      "hit": false,
      "t": 159629.92902291552,
      "d": 357.95444999996107,
      "v": 62
    },
    {
      "midi": 68,
      "hit": false,
      "t": 160047.54254791548,
      "d": 316.0510520832904,
      "v": 58
    },
    {
      "midi": 56,
      "hit": false,
      "t": 160059.61640833213,
      "d": 203.12494583331863,
      "v": 72
    },
    {
      "midi": 61,
      "hit": false,
      "t": 160061.74708958215,
      "d": 522.7271333332756,
      "v": 60
    },
    {
      "midi": 58,
      "hit": false,
      "t": 160066.00845208214,
      "d": 166.90336458332604,
      "v": 62
    },
    {
      "midi": 64,
      "hit": false,
      "t": 160074.53117708213,
      "d": 918.3236187499133,
      "v": 58
    },
    {
      "midi": 46,
      "hit": false,
      "t": 160347.96860416545,
      "d": 323.15332291662344,
      "v": 71
    },
    {
      "midi": 66,
      "hit": false,
      "t": 160563.87763749875,
      "d": 105.82383541666786,
      "v": 14
    },
    {
      "midi": 60,
      "hit": false,
      "t": 160748.5366791654,
      "d": 166.90336458329693,
      "v": 66
    },
    {
      "midi": 45,
      "hit": false,
      "t": 160752.7980416654,
      "d": 215.9090333333006,
      "v": 71
    },
    {
      "midi": 55,
      "hit": false,
      "t": 160754.21849583206,
      "d": 115.76701458331081,
      "v": 55
    },
    {
      "midi": 78,
      "hit": false,
      "t": 161413.30922916537,
      "d": 181.81813333331957,
      "v": 75
    },
    {
      "midi": 66,
      "hit": false,
      "t": 161415.43991041539,
      "d": 176.1363166666415,
      "v": 87
    },
    {
      "midi": 72,
      "hit": false,
      "t": 161427.51377083204,
      "d": 181.81813333331957,
      "v": 64
    },
    {
      "midi": 64,
      "hit": false,
      "t": 161632.059170832,
      "d": 40.48294375001569,
      "v": 53
    },
    {
      "midi": 55,
      "hit": false,
      "t": 161642.712577082,
      "d": 95.17042916666833,
      "v": 27
    },
    {
      "midi": 60,
      "hit": false,
      "t": 161664.019389582,
      "d": 39.77271666665911,
      "v": 24
    },
    {
      "midi": 57,
      "hit": false,
      "t": 161666.86029791535,
      "d": 85.93747708332376,
      "v": 34
    },
    {
      "midi": 72,
      "hit": false,
      "t": 161669.7012062487,
      "d": 143.46587083331542,
      "v": 18
    },
    {
      "midi": 67,
      "hit": false,
      "t": 161671.8318874987,
      "d": 126.42042083331035,
      "v": 47
    },
    {
      "midi": 76,
      "hit": false,
      "t": 161677.51370416535,
      "d": 149.85791458332096,
      "v": 1
    },
    {
      "midi": 79,
      "hit": false,
      "t": 161678.22393124868,
      "d": 91.61929375000182,
      "v": 42
    },
    {
      "midi": 77,
      "hit": false,
      "t": 161703.08187916534,
      "d": 88.0681583333353,
      "v": 25
    },
    {
      "midi": 67,
      "hit": false,
      "t": 161872.11592499868,
      "d": 75.99429791668081,
      "v": 45
    },
    {
      "midi": 79,
      "hit": false,
      "t": 161872.826152082,
      "d": 71.73293541668681,
      "v": 55
    },
    {
      "midi": 72,
      "hit": false,
      "t": 161887.03069374867,
      "d": 371.44876458335784,
      "v": 37
    },
    {
      "midi": 76,
      "hit": false,
      "t": 161899.8147812487,
      "d": 145.59655208332697,
      "v": 24
    },
    {
      "midi": 77,
      "hit": false,
      "t": 161905.49659791536,
      "d": 92.3295208333293,
      "v": 28
    },
    {
      "midi": 78,
      "hit": false,
      "t": 162083.76359583202,
      "d": 183.94881458336022,
      "v": 50
    },
    {
      "midi": 66,
      "hit": false,
      "t": 162083.76359583202,
      "d": 190.34085833336576,
      "v": 54
    },
    {
      "midi": 76,
      "hit": false,
      "t": 162104.3601812487,
      "d": 546.8748541667301,
      "v": 15
    },
    {
      "midi": 77,
      "hit": false,
      "t": 162142.00221666537,
      "d": 303.26696458336664,
      "v": 17
    },
    {
      "midi": 45,
      "hit": false,
      "t": 162240.01355416537,
      "d": 93.03974791665678,
      "v": 46
    },
    {
      "midi": 55,
      "hit": false,
      "t": 162261.32036666537,
      "d": 116.4772416666674,
      "v": 22
    },
    {
      "midi": 72,
      "hit": false,
      "t": 162299.67262916538,
      "d": 157.67041250001057,
      "v": 19
    },
    {
      "midi": 79,
      "hit": false,
      "t": 162305.35444583205,
      "d": 95.88065624999581,
      "v": 46
    },
    {
      "midi": 67,
      "hit": false,
      "t": 162306.7748999987,
      "d": 107.95451666667941,
      "v": 47
    },
    {
      "midi": 79,
      "hit": false,
      "t": 162492.14416874872,
      "d": 101.56247291667387,
      "v": 53
    },
    {
      "midi": 67,
      "hit": false,
      "t": 162496.40553124872,
      "d": 99.43179166669142,
      "v": 48
    },
    {
      "midi": 72,
      "hit": false,
      "t": 162504.21802916538,
      "d": 169.0340458333667,
      "v": 18
    },
    {
      "midi": 77,
      "hit": false,
      "t": 162521.26347916538,
      "d": 99.43179166669142,
      "v": 24
    },
    {
      "midi": 78,
      "hit": false,
      "t": 162710.89411041542,
      "d": 162.64200208330294,
      "v": 56
    },
    {
      "midi": 72,
      "hit": false,
      "t": 162711.60433749875,
      "d": 363.63626666663913,
      "v": 19
    },
    {
      "midi": 66,
      "hit": false,
      "t": 162713.0247916654,
      "d": 171.16472708332003,
      "v": 59
    },
    {
      "midi": 64,
      "hit": false,
      "t": 162899.10428749872,
      "d": 72.44316249998519,
      "v": 39
    },
    {
      "midi": 60,
      "hit": false,
      "t": 162920.41109999872,
      "d": 116.4772416666674,
      "v": 29
    },
    {
      "midi": 76,
      "hit": false,
      "t": 162929.64405208206,
      "d": 232.2442562500073,
      "v": 1
    },
    {
      "midi": 79,
      "hit": false,
      "t": 162930.3542791654,
      "d": 112.2158791666734,
      "v": 44
    },
    {
      "midi": 67,
      "hit": false,
      "t": 162931.77473333204,
      "d": 102.27270000000135,
      "v": 40
    },
    {
      "midi": 77,
      "hit": false,
      "t": 162941.71791249872,
      "d": 117.89769583335146,
      "v": 1
    },
    {
      "midi": 57,
      "hit": false,
      "t": 162950.2406374987,
      "d": 153.40905000001658,
      "v": 24
    },
    {
      "midi": 79,
      "hit": false,
      "t": 163110.75195833205,
      "d": 85.93747708332376,
      "v": 31
    },
    {
      "midi": 67,
      "hit": false,
      "t": 163120.69513749873,
      "d": 60.369302083330695,
      "v": 47
    },
    {
      "midi": 72,
      "hit": false,
      "t": 163127.79740833206,
      "d": 152.69882291666,
      "v": 31
    },
    {
      "midi": 77,
      "hit": false,
      "t": 163148.39399374873,
      "d": 104.4033812499838,
      "v": 28
    },
    {
      "midi": 78,
      "hit": false,
      "t": 163328.7916729154,
      "d": 173.29540833330248,
      "v": 63
    },
    {
      "midi": 72,
      "hit": false,
      "t": 163335.89394374873,
      "d": 147.01700624998193,
      "v": 27
    },
    {
      "midi": 66,
      "hit": false,
      "t": 163343.7064416654,
      "d": 165.48291041664197,
      "v": 43
    },
    {
      "midi": 44,
      "hit": false,
      "t": 163590.15523958203,
      "d": 97.30111041662167,
      "v": 43
    },
    {
      "midi": 71,
      "hit": false,
      "t": 163591.5756937487,
      "d": 115.7670145832817,
      "v": 45
    },
    {
      "midi": 77,
      "hit": false,
      "t": 163600.09841874868,
      "d": 99.43179166663322,
      "v": 36
    },
    {
      "midi": 65,
      "hit": false,
      "t": 163602.93932708201,
      "d": 54.687485416652635,
      "v": 29
    },
    {
      "midi": 74,
      "hit": false,
      "t": 163611.462052082,
      "d": 104.40338124995469,
      "v": 45
    },
    {
      "midi": 53,
      "hit": false,
      "t": 163615.01318749867,
      "d": 80.2556604166457,
      "v": 25
    },
    {
      "midi": 65,
      "hit": false,
      "t": 163724.38815833195,
      "d": 72.4431625000143,
      "v": 40
    },
    {
      "midi": 71,
      "hit": false,
      "t": 163803.22336458197,
      "d": 86.64770416665124,
      "v": 38
    },
    {
      "midi": 74,
      "hit": false,
      "t": 163815.29722499862,
      "d": 67.47157291666372,
      "v": 30
    },
    {
      "midi": 65,
      "hit": false,
      "t": 163887.7403874986,
      "d": 77.41475208333577,
      "v": 36
    },
    {
      "midi": 71,
      "hit": false,
      "t": 163978.64945416528,
      "d": 80.2556604166748,
      "v": 42
    },
    {
      "midi": 74,
      "hit": false,
      "t": 163997.11535833194,
      "d": 58.94884791667573,
      "v": 31
    },
    {
      "midi": 65,
      "hit": false,
      "t": 164052.51307083195,
      "d": 97.30111041665077,
      "v": 37
    },
    {
      "midi": 71,
      "hit": false,
      "t": 164148.39372708194,
      "d": 88.77838541666279,
      "v": 51
    },
    {
      "midi": 77,
      "hit": false,
      "t": 164151.23463541525,
      "d": 85.22725000002538,
      "v": 8
    },
    {
      "midi": 74,
      "hit": false,
      "t": 164161.17781458193,
      "d": 94.46020208334085,
      "v": 46
    },
    {
      "midi": 65,
      "hit": false,
      "t": 164227.22893333193,
      "d": 95.88065624999581,
      "v": 40
    },
    {
      "midi": 64,
      "hit": false,
      "t": 164276.23460208194,
      "d": 591.6191604165942,
      "v": 73
    },
    {
      "midi": 71,
      "hit": false,
      "t": 164327.37095208192,
      "d": 86.64770416668034,
      "v": 46
    },
    {
      "midi": 74,
      "hit": false,
      "t": 164343.7061749986,
      "d": 44.744306250009686,
      "v": 42
    },
    {
      "midi": 65,
      "hit": false,
      "t": 164406.91638541527,
      "d": 89.48861249999027,
      "v": 50
    },
    {
      "midi": 71,
      "hit": false,
      "t": 164504.21749583192,
      "d": 58.23862083334825,
      "v": 44
    },
    {
      "midi": 74,
      "hit": false,
      "t": 164513.45044791527,
      "d": 48.2954416666762,
      "v": 38
    },
    {
      "midi": 65,
      "hit": false,
      "t": 164576.66065833194,
      "d": 105.11360833331128,
      "v": 53
    },
    {
      "midi": 71,
      "hit": false,
      "t": 164680.3538124986,
      "d": 66.76134583330713,
      "v": 39
    },
    {
      "midi": 74,
      "hit": false,
      "t": 164691.71744583192,
      "d": 54.687485416652635,
      "v": 41
    },
    {
      "midi": 65,
      "hit": false,
      "t": 164755.6378833319,
      "d": 103.69315416665631,
      "v": 55
    },
    {
      "midi": 71,
      "hit": false,
      "t": 164851.51853958188,
      "d": 103.69315416668542,
      "v": 44
    },
    {
      "midi": 74,
      "hit": false,
      "t": 164860.7514916652,
      "d": 108.664743750036,
      "v": 40
    },
    {
      "midi": 77,
      "hit": false,
      "t": 164870.69467083187,
      "d": 436.7896562500682,
      "v": 5
    },
    {
      "midi": 58,
      "hit": false,
      "t": 164890.58102916522,
      "d": 115.05678750001243,
      "v": 33
    },
    {
      "midi": 57,
      "hit": false,
      "t": 164893.42193749856,
      "d": 58.23862083334825,
      "v": 24
    },
    {
      "midi": 65,
      "hit": false,
      "t": 164945.2685145819,
      "d": 100.85224583334639,
      "v": 46
    },
    {
      "midi": 61,
      "hit": false,
      "t": 164962.3139645819,
      "d": 29.119310416659573,
      "v": 32
    },
    {
      "midi": 62,
      "hit": false,
      "t": 164984.33100416523,
      "d": 685.3691354167822,
      "v": 57
    },
    {
      "midi": 71,
      "hit": false,
      "t": 165040.43894374857,
      "d": 91.61929375003092,
      "v": 47
    },
    {
      "midi": 74,
      "hit": false,
      "t": 165059.61507499858,
      "d": 75.28407083335333,
      "v": 36
    },
    {
      "midi": 65,
      "hit": false,
      "t": 165132.76846458192,
      "d": 96.5908833333524,
      "v": 36
    },
    {
      "midi": 71,
      "hit": false,
      "t": 165228.64912083195,
      "d": 73.15338958331267,
      "v": 46
    },
    {
      "midi": 74,
      "hit": false,
      "t": 165244.9843437486,
      "d": 49.00566875000368,
      "v": 36
    },
    {
      "midi": 65,
      "hit": false,
      "t": 165313.16614374862,
      "d": 87.35793125000782,
      "v": 40
    },
    {
      "midi": 71,
      "hit": false,
      "t": 165399.8138479153,
      "d": 88.77838541669189,
      "v": 36
    },
    {
      "midi": 77,
      "hit": false,
      "t": 165400.52407499863,
      "d": 515.6248625000298,
      "v": 9
    },
    {
      "midi": 74,
      "hit": false,
      "t": 165413.30816249864,
      "d": 77.41475208336487,
      "v": 30
    },
    {
      "midi": 65,
      "hit": false,
      "t": 165486.46155208198,
      "d": 100.1420187500189,
      "v": 39
    },
    {
      "midi": 71,
      "hit": false,
      "t": 165583.05243541533,
      "d": 87.35793125000782,
      "v": 44
    },
    {
      "midi": 74,
      "hit": false,
      "t": 165596.54674999867,
      "d": 62.49998333334224,
      "v": 36
    },
    {
      "midi": 65,
      "hit": false,
      "t": 165666.14900416535,
      "d": 105.11360833331128,
      "v": 44
    },
    {
      "midi": 59,
      "hit": false,
      "t": 165668.27968541536,
      "d": 427.55670416660723,
      "v": 47
    },
    {
      "midi": 71,
      "hit": false,
      "t": 165759.89897916533,
      "d": 78.12497916666325,
      "v": 36
    },
    {
      "midi": 74,
      "hit": false,
      "t": 165769.842158332,
      "d": 79.54543333334732,
      "v": 32
    },
    {
      "midi": 65,
      "hit": false,
      "t": 165840.154639582,
      "d": 120.73860416663229,
      "v": 34
    },
    {
      "midi": 71,
      "hit": false,
      "t": 165953.08074583198,
      "d": 177.55677083332557,
      "v": 35
    },
    {
      "midi": 74,
      "hit": false,
      "t": 165961.60347083196,
      "d": 120.02837708333391,
      "v": 32
    },
    {
      "midi": 77,
      "hit": false,
      "t": 165975.80801249863,
      "d": 110.08519791666185,
      "v": 10
    },
    {
      "midi": 65,
      "hit": false,
      "t": 166088.0238916653,
      "d": 178.97722500000964,
      "v": 35
    },
    {
      "midi": 56,
      "hit": false,
      "t": 166218.70567499864,
      "d": 70.31248125000275,
      "v": 18
    },
    {
      "midi": 58,
      "hit": false,
      "t": 166260.6090729153,
      "d": 117.89769583335146,
      "v": 53
    },
    {
      "midi": 62,
      "hit": false,
      "t": 166335.1829166653,
      "d": 90.19883958334685,
      "v": 43
    },
    {
      "midi": 65,
      "hit": false,
      "t": 166352.2283666653,
      "d": 472.3010104166751,
      "v": 42
    },
    {
      "midi": 74,
      "hit": false,
      "t": 166357.19995624863,
      "d": 434.65897500002757,
      "v": 51
    },
    {
      "midi": 70,
      "hit": false,
      "t": 166363.59199999864,
      "d": 438.92033750002156,
      "v": 35
    },
    {
      "midi": 67,
      "hit": false,
      "t": 166376.37608749865,
      "d": 410.51125416668947,
      "v": 46
    },
    {
      "midi": 43,
      "hit": false,
      "t": 166799.67142916532,
      "d": 1144.1758312500606,
      "v": 40
    },
    {
      "midi": 50,
      "hit": false,
      "t": 167070.26794791533,
      "d": 717.3293541666935,
      "v": 48
    },
    {
      "midi": 53,
      "hit": false,
      "t": 167529.784870832,
      "d": 75.99429791668081,
      "v": 32
    },
    {
      "midi": 53,
      "hit": false,
      "t": 167767.00071666535,
      "d": 99.43179166669142,
      "v": 39
    },
    {
      "midi": 62,
      "hit": false,
      "t": 167778.36434999868,
      "d": 331.67604791666963,
      "v": 50
    },
    {
      "midi": 58,
      "hit": false,
      "t": 167789.72798333204,
      "d": 225.85221249997267,
      "v": 49
    },
    {
      "midi": 45,
      "hit": false,
      "t": 167991.4324749987,
      "d": 241.47720833332278,
      "v": 44
    },
    {
      "midi": 57,
      "hit": false,
      "t": 167992.85292916535,
      "d": 152.69882291666,
      "v": 64
    },
    {
      "midi": 46,
      "hit": false,
      "t": 168183.90401458202,
      "d": 427.55670416663634,
      "v": 52
    },
    {
      "midi": 58,
      "hit": false,
      "t": 168200.2392374987,
      "d": 134.23291874999995,
      "v": 55
    },
    {
      "midi": 50,
      "hit": false,
      "t": 168385.60850624868,
      "d": 167.61359166665352,
      "v": 32
    },
    {
      "midi": 62,
      "hit": false,
      "t": 168443.847127082,
      "d": 110.79542499998934,
      "v": 25
    },
    {
      "midi": 53,
      "hit": false,
      "t": 168646.261845832,
      "d": 132.1022374999884,
      "v": 32
    },
    {
      "midi": 65,
      "hit": false,
      "t": 168650.523208332,
      "d": 190.34085833333666,
      "v": 53
    },
    {
      "midi": 57,
      "hit": false,
      "t": 168858.61974374866,
      "d": 183.23858750000363,
      "v": 46
    },
    {
      "midi": 69,
      "hit": false,
      "t": 168864.30156041533,
      "d": 186.78972291667014,
      "v": 69
    },
    {
      "midi": 66,
      "hit": false,
      "t": 169086.60263749867,
      "d": 164.7726833333436,
      "v": 36
    },
    {
      "midi": 55,
      "hit": false,
      "t": 169099.38672499868,
      "d": 183.9488145833311,
      "v": 26
    },
    {
      "midi": 67,
      "hit": false,
      "t": 169291.858264582,
      "d": 166.19313749999856,
      "v": 50
    },
    {
      "midi": 57,
      "hit": false,
      "t": 169310.32416874866,
      "d": 112.2158791666734,
      "v": 54
    },
    {
      "midi": 69,
      "hit": false,
      "t": 169507.76729791533,
      "d": 199.57381041665212,
      "v": 54
    },
    {
      "midi": 48,
      "hit": false,
      "t": 169527.65365624867,
      "d": 132.8124645833159,
      "v": 58
    },
    {
      "midi": 58,
      "hit": false,
      "t": 169529.07411041533,
      "d": 188.9204041666526,
      "v": 53
    },
    {
      "midi": 70,
      "hit": false,
      "t": 169748.53427916532,
      "d": 168.3238187500101,
      "v": 53
    },
    {
      "midi": 72,
      "hit": false,
      "t": 169977.937627082,
      "d": 266.33515624998836,
      "v": 58
    },
    {
      "midi": 64,
      "hit": false,
      "t": 169992.852395832,
      "d": 78.12497916666325,
      "v": 71
    },
    {
      "midi": 58,
      "hit": false,
      "t": 170000.66489374865,
      "d": 123.57951250000042,
      "v": 57
    },
    {
      "midi": 73,
      "hit": false,
      "t": 170204.50006666532,
      "d": 183.9488145833311,
      "v": 47
    },
    {
      "midi": 58,
      "hit": false,
      "t": 170416.14773749866,
      "d": 179.68745208330802,
      "v": 60
    },
    {
      "midi": 48,
      "hit": false,
      "t": 170419.69887291532,
      "d": 236.5056187499722,
      "v": 66
    },
    {
      "midi": 75,
      "hit": false,
      "t": 170434.61364166532,
      "d": 191.05108541663503,
      "v": 64
    },
    {
      "midi": 76,
      "hit": false,
      "t": 170668.27835208195,
      "d": 171.87495416667662,
      "v": 51
    },
    {
      "midi": 56,
      "hit": false,
      "t": 170863.59079999864,
      "d": 624.2896062500076,
      "v": 69
    },
    {
      "midi": 46,
      "hit": false,
      "t": 170865.72148124865,
      "d": 401.9885291666724,
      "v": 70
    },
    {
      "midi": 78,
      "hit": false,
      "t": 170886.31806666532,
      "d": 177.55677083332557,
      "v": 70
    },
    {
      "midi": 79,
      "hit": false,
      "t": 171109.32937083198,
      "d": 124.2897395833279,
      "v": 44
    },
    {
      "midi": 46,
      "hit": false,
      "t": 171320.97704166532,
      "d": 274.14765416667797,
      "v": 46
    },
    {
      "midi": 81,
      "hit": false,
      "t": 171335.8918104153,
      "d": 114.34656041665585,
      "v": 74
    },
    {
      "midi": 82,
      "hit": false,
      "t": 171557.48266041532,
      "d": 159.80109375002212,
      "v": 61
    },
    {
      "midi": 45,
      "hit": false,
      "t": 171771.971239582,
      "d": 86.64770416662213,
      "v": 50
    },
    {
      "midi": 55,
      "hit": false,
      "t": 171776.94282916532,
      "d": 142.75564374998794,
      "v": 37
    },
    {
      "midi": 72,
      "hit": false,
      "t": 171784.04509999865,
      "d": 125.71019374998286,
      "v": 47
    },
    {
      "midi": 84,
      "hit": false,
      "t": 171785.4655541653,
      "d": 131.39201041666092,
      "v": 37
    },
    {
      "midi": 79,
      "hit": false,
      "t": 171820.97690833197,
      "d": 100.85224583334639,
      "v": 32
    },
    {
      "midi": 81,
      "hit": false,
      "t": 171828.78940624863,
      "d": 57.528393749991665,
      "v": 22
    },
    {
      "midi": 72,
      "hit": false,
      "t": 171997.11322499864,
      "d": 123.57951250000042,
      "v": 17
    },
    {
      "midi": 79,
      "hit": false,
      "t": 172021.26094583198,
      "d": 98.01133750000736,
      "v": 28
    },
    {
      "midi": 72,
      "hit": false,
      "t": 172259.89724583196,
      "d": 150.56814166664844,
      "v": 36
    },
    {
      "midi": 84,
      "hit": false,
      "t": 172264.86883541528,
      "d": 126.42042083331035,
      "v": 26
    },
    {
      "midi": 79,
      "hit": false,
      "t": 172266.28928958194,
      "d": 134.23291874999995,
      "v": 45
    },
    {
      "midi": 64,
      "hit": false,
      "t": 172509.89717916527,
      "d": 119.31814999997732,
      "v": 51
    },
    {
      "midi": 72,
      "hit": false,
      "t": 172531.20399166527,
      "d": 99.43179166663322,
      "v": 41
    },
    {
      "midi": 57,
      "hit": false,
      "t": 172531.9142187486,
      "d": 166.19313749996945,
      "v": 31
    },
    {
      "midi": 84,
      "hit": false,
      "t": 172532.62444583193,
      "d": 110.79542499998934,
      "v": 38
    },
    {
      "midi": 60,
      "hit": false,
      "t": 172539.72671666526,
      "d": 108.66474374997779,
      "v": 31
    },
    {
      "midi": 79,
      "hit": false,
      "t": 172541.14717083191,
      "d": 132.8124645833159,
      "v": 47
    },
    {
      "midi": 55,
      "hit": false,
      "t": 172546.8289874986,
      "d": 130.68178333330434,
      "v": 24
    },
    {
      "midi": 86,
      "hit": false,
      "t": 172789.01642291524,
      "d": 156.2499583333556,
      "v": 73
    },
    {
      "midi": 72,
      "hit": false,
      "t": 172798.2493749986,
      "d": 171.87495416667662,
      "v": 47
    },
    {
      "midi": 79,
      "hit": false,
      "t": 172802.51073749858,
      "d": 144.8863250000286,
      "v": 51
    },
    {
      "midi": 82,
      "hit": false,
      "t": 172825.9482312486,
      "d": 39.77271666665911,
      "v": 27
    },
    {
      "midi": 86,
      "hit": false,
      "t": 173009.1868187486,
      "d": 147.72723333333852,
      "v": 68
    },
    {
      "midi": 72,
      "hit": false,
      "t": 173013.4481812486,
      "d": 175.42608958334313,
      "v": 24
    },
    {
      "midi": 79,
      "hit": false,
      "t": 173020.55045208192,
      "d": 144.8863249999995,
      "v": 61
    },
    {
      "midi": 44,
      "hit": false,
      "t": 173214.44244583193,
      "d": 228.6931208333408,
      "v": 42
    },
    {
      "midi": 51,
      "hit": false,
      "t": 173222.2549437486,
      "d": 240.05675416669692,
      "v": 40
    },
    {
      "midi": 86,
      "hit": false,
      "t": 173242.85152916526,
      "d": 112.92610625000088,
      "v": 64
    },
    {
      "midi": 72,
      "hit": false,
      "t": 173244.98221041527,
      "d": 153.40904999998747,
      "v": 35
    },
    {
      "midi": 79,
      "hit": false,
      "t": 173248.53334583194,
      "d": 143.46587083331542,
      "v": 54
    },
    {
      "midi": 86,
      "hit": false,
      "t": 173452.3685187486,
      "d": 134.94314583332743,
      "v": 51
    },
    {
      "midi": 79,
      "hit": false,
      "t": 173476.51623958195,
      "d": 119.31814999997732,
      "v": 46
    },
    {
      "midi": 72,
      "hit": false,
      "t": 173477.9366937486,
      "d": 127.84087499999441,
      "v": 24
    },
    {
      "midi": 86,
      "hit": false,
      "t": 173675.37982291527,
      "d": 152.69882291666,
      "v": 66
    },
    {
      "midi": 72,
      "hit": false,
      "t": 173684.61277499862,
      "d": 151.9885958333034,
      "v": 34
    },
    {
      "midi": 79,
      "hit": false,
      "t": 173692.42527291528,
      "d": 139.20450833332143,
      "v": 52
    },
    {
      "midi": 86,
      "hit": false,
      "t": 173912.5956687486,
      "d": 332.386274999968,
      "v": 54
    },
    {
      "midi": 63,
      "hit": false,
      "t": 173921.82862083195,
      "d": 306.81809999994584,
      "v": 52
    },
    {
      "midi": 72,
      "hit": false,
      "t": 173933.9024812486,
      "d": 388.4942145833047,
      "v": 35
    },
    {
      "midi": 79,
      "hit": false,
      "t": 173934.61270833193,
      "d": 531.2498583332927,
      "v": 48
    },
    {
      "midi": 58,
      "hit": false,
      "t": 173943.13543333192,
      "d": 308.9487812499865,
      "v": 53
    },
    {
      "midi": 53,
      "hit": false,
      "t": 173968.7036083319,
      "d": 247.86925208332832,
      "v": 26
    },
    {
      "midi": 84,
      "hit": false,
      "t": 174365.72054791523,
      "d": 218.74994166663964,
      "v": 55
    },
    {
      "midi": 79,
      "hit": false,
      "t": 174595.8341229152,
      "d": 205.2556270833593,
      "v": 51
    },
    {
      "midi": 60,
      "hit": false,
      "t": 174597.9648041652,
      "d": 377.1305812500068,
      "v": 35
    },
    {
      "midi": 72,
      "hit": false,
      "t": 174615.72048124854,
      "d": 262.78402083335095,
      "v": 38
    },
    {
      "midi": 49,
      "hit": false,
      "t": 175281.20325833187,
      "d": 343.74990833332413,
      "v": 46
    },
    {
      "midi": 60,
      "hit": false,
      "t": 175284.75439374853,
      "d": 284.0908333333209,
      "v": 43
    },
    {
      "midi": 55,
      "hit": false,
      "t": 175288.3055291652,
      "d": 219.46016874999623,
      "v": 36
    },
    {
      "midi": 65,
      "hit": false,
      "t": 175301.0896166652,
      "d": 336.6476374999911,
      "v": 43
    },
    {
      "midi": 61,
      "hit": false,
      "t": 175943.84512708188,
      "d": 282.67037916672416,
      "v": 35
    },
    {
      "midi": 58,
      "hit": false,
      "t": 175949.52694374855,
      "d": 262.78402083338005,
      "v": 33
    },
    {
      "midi": 55,
      "hit": false,
      "t": 175951.65762499857,
      "d": 182.52836041667615,
      "v": 33
    },
    {
      "midi": 64,
      "hit": false,
      "t": 175954.4985333319,
      "d": 196.7329020833422,
      "v": 41
    },
    {
      "midi": 48,
      "hit": false,
      "t": 175963.73148541525,
      "d": 232.2442562500073,
      "v": 34
    },
    {
      "midi": 61,
      "hit": false,
      "t": 176600.80517916527,
      "d": 364.3464937499666,
      "v": 42
    },
    {
      "midi": 52,
      "hit": false,
      "t": 176624.9528999986,
      "d": 183.23858749994542,
      "v": 25
    },
    {
      "midi": 56,
      "hit": false,
      "t": 176629.92448958193,
      "d": 331.6760479166405,
      "v": 46
    },
    {
      "midi": 42,
      "hit": false,
      "t": 176630.63471666526,
      "d": 137.07382708330988,
      "v": 35
    },
    {
      "midi": 58,
      "hit": false,
      "t": 176642.7085770819,
      "d": 401.9885291666724,
      "v": 38
    },
    {
      "midi": 49,
      "hit": false,
      "t": 176643.41880416524,
      "d": 198.86358333332464,
      "v": 25
    },
    {
      "midi": 57,
      "hit": false,
      "t": 177314.58339791527,
      "d": 179.68745208330802,
      "v": 50
    },
    {
      "midi": 60,
      "hit": false,
      "t": 177321.6856687486,
      "d": 183.948814583302,
      "v": 46
    },
    {
      "midi": 48,
      "hit": false,
      "t": 177325.23680416527,
      "d": 193.18176666664658,
      "v": 40
    },
    {
      "midi": 41,
      "hit": false,
      "t": 177333.04930208193,
      "d": 132.1022374999884,
      "v": 20
    },
    {
      "midi": 74,
      "hit": false,
      "t": 177767.7082770819,
      "d": 158.38063958333805,
      "v": 68
    },
    {
      "midi": 58,
      "hit": false,
      "t": 177769.8389583319,
      "d": 182.52836041664705,
      "v": 67
    },
    {
      "midi": 68,
      "hit": false,
      "t": 177770.54918541524,
      "d": 215.19880625000224,
      "v": 67
    },
    {
      "midi": 64,
      "hit": false,
      "t": 177779.07191041522,
      "d": 179.68745208333712,
      "v": 64
    },
    {
      "midi": 72,
      "hit": false,
      "t": 178045.40706666524,
      "d": 176.1363166666706,
      "v": 40
    },
    {
      "midi": 57,
      "hit": false,
      "t": 178049.66842916523,
      "d": 123.57951250000042,
      "v": 59
    },
    {
      "midi": 67,
      "hit": false,
      "t": 178055.3502458319,
      "d": 144.8863249999995,
      "v": 48
    },
    {
      "midi": 62,
      "hit": false,
      "t": 178061.0320624986,
      "d": 82.38634166665724,
      "v": 29
    },
    {
      "midi": 63,
      "hit": false,
      "t": 178461.60013749858,
      "d": 201.70449166666367,
      "v": 68
    },
    {
      "midi": 79,
      "hit": false,
      "t": 178482.19672291525,
      "d": 151.9885958333325,
      "v": 68
    },
    {
      "midi": 73,
      "hit": false,
      "t": 178484.32740416526,
      "d": 208.8067624999676,
      "v": 59
    },
    {
      "midi": 69,
      "hit": false,
      "t": 178490.00922083194,
      "d": 163.35222916663042,
      "v": 50
    },
    {
      "midi": 77,
      "hit": false,
      "t": 178737.87847291524,
      "d": 83.09656874998473,
      "v": 68
    },
    {
      "midi": 62,
      "hit": false,
      "t": 178758.4750583319,
      "d": 39.77271666665911,
      "v": 45
    },
    {
      "midi": 72,
      "hit": false,
      "t": 178759.18528541524,
      "d": 71.02270833333023,
      "v": 54
    },
    {
      "midi": 67,
      "hit": false,
      "t": 178761.31596666525,
      "d": 71.73293541665771,
      "v": 34
    },
    {
      "midi": 74,
      "hit": false,
      "t": 179126.37268749857,
      "d": 115.76701458333991,
      "v": 58
    },
    {
      "midi": 68,
      "hit": false,
      "t": 179135.60563958192,
      "d": 161.22154791664798,
      "v": 57
    },
    {
      "midi": 58,
      "hit": false,
      "t": 179139.8670020819,
      "d": 216.6192604166572,
      "v": 53
    },
    {
      "midi": 64,
      "hit": false,
      "t": 179142.70791041525,
      "d": 143.46587083331542,
      "v": 53
    },
    {
      "midi": 72,
      "hit": false,
      "t": 179382.7646645819,
      "d": 387.07376041664975,
      "v": 51
    },
    {
      "midi": 67,
      "hit": false,
      "t": 179392.70784374856,
      "d": 343.74990833332413,
      "v": 43
    },
    {
      "midi": 57,
      "hit": false,
      "t": 179399.09988749857,
      "d": 184.6590416666586,
      "v": 48
    },
    {
      "midi": 62,
      "hit": false,
      "t": 179399.8101145819,
      "d": 285.511287500005,
      "v": 34
    },
    {
      "midi": 54,
      "hit": false,
      "t": 180053.21903124853,
      "d": 512.0737270833051,
      "v": 38
    },
    {
      "midi": 66,
      "hit": false,
      "t": 180054.6394854152,
      "d": 398.43739374997676,
      "v": 58
    },
    {
      "midi": 63,
      "hit": false,
      "t": 180056.05993958184,
      "d": 392.0453500000003,
      "v": 53
    },
    {
      "midi": 42,
      "hit": false,
      "t": 180451.6564249985,
      "d": 89.48861249999027,
      "v": 49
    },
    {
      "midi": 63,
      "hit": false,
      "t": 180710.88931041516,
      "d": 272.7271999999939,
      "v": 55
    },
    {
      "midi": 66,
      "hit": false,
      "t": 180718.70180833183,
      "d": 299.715829166671,
      "v": 50
    },
    {
      "midi": 60,
      "hit": false,
      "t": 180720.12226249848,
      "d": 211.64767083333572,
      "v": 46
    },
    {
      "midi": 57,
      "hit": false,
      "t": 180722.2529437485,
      "d": 117.18746874999488,
      "v": 51
    },
    {
      "midi": 63,
      "hit": false,
      "t": 181355.77550208184,
      "d": 93.03974791662768,
      "v": 44
    },
    {
      "midi": 54,
      "hit": false,
      "t": 181360.03686458184,
      "d": 750.7100270832598,
      "v": 45
    },
    {
      "midi": 77,
      "hit": false,
      "t": 181389.86640208183,
      "d": 44.74430624998058,
      "v": 54
    },
    {
      "midi": 60,
      "hit": false,
      "t": 181394.83799166515,
      "d": 383.52262499995413,
      "v": 20
    },
    {
      "midi": 78,
      "hit": false,
      "t": 181468.70160833182,
      "d": 90.90906666664523,
      "v": 56
    },
    {
      "midi": 77,
      "hit": false,
      "t": 181534.04249999847,
      "d": 66.76134583333624,
      "v": 46
    },
    {
      "midi": 76,
      "hit": false,
      "t": 181615.7186145818,
      "d": 40.48294374998659,
      "v": 49
    },
    {
      "midi": 75,
      "hit": false,
      "t": 181703.07654583178,
      "d": 92.3295208333293,
      "v": 47
    },
    {
      "midi": 72,
      "hit": false,
      "t": 181808.90038124844,
      "d": 49.71589583333116,
      "v": 34
    },
    {
      "midi": 69,
      "hit": false,
      "t": 181899.80944791512,
      "d": 65.34089166665217,
      "v": 30
    },
    {
      "midi": 66,
      "hit": false,
      "t": 182021.96850624844,
      "d": 71.02270833333023,
      "v": 52
    },
    {
      "midi": 65,
      "hit": false,
      "t": 182179.63891874845,
      "d": 71.73293541665771,
      "v": 70
    },
    {
      "midi": 64,
      "hit": false,
      "t": 182314.58206458177,
      "d": 75.99429791668081,
      "v": 64
    },
    {
      "midi": 63,
      "hit": false,
      "t": 182423.9570354151,
      "d": 71.73293541668681,
      "v": 52
    },
    {
      "midi": 44,
      "hit": false,
      "t": 182461.59907083178,
      "d": 240.7669812499953,
      "v": 28
    },
    {
      "midi": 54,
      "hit": false,
      "t": 182481.48542916513,
      "d": 134.23291874999995,
      "v": 15
    },
    {
      "midi": 62,
      "hit": false,
      "t": 182568.1331333318,
      "d": 62.49998333331314,
      "v": 54
    },
    {
      "midi": 61,
      "hit": false,
      "t": 182681.7694666651,
      "d": 29.82953750001616,
      "v": 26
    },
    {
      "midi": 60,
      "hit": false,
      "t": 182763.44558124847,
      "d": 112.92610625000088,
      "v": 41
    },
    {
      "midi": 58,
      "hit": false,
      "t": 182866.4285083318,
      "d": 323.15332291668165,
      "v": 70
    },
    {
      "midi": 43,
      "hit": false,
      "t": 182880.63304999846,
      "d": 735.7952583333245,
      "v": 28
    },
    {
      "midi": 53,
      "hit": false,
      "t": 182887.7353208318,
      "d": 432.528293750016,
      "v": 24
    },
    {
      "midi": 59,
      "hit": false,
      "t": 182985.03643124847,
      "d": 235.79539166667382,
      "v": 38
    },
    {
      "midi": 60,
      "hit": false,
      "t": 183396.2579124985,
      "d": 84.51702291663969,
      "v": 62
    },
    {
      "midi": 58,
      "hit": false,
      "t": 183464.43971249848,
      "d": 97.30111041665077,
      "v": 48
    },
    {
      "midi": 53,
      "hit": false,
      "t": 183536.17264791514,
      "d": 144.1760979166429,
      "v": 17
    },
    {
      "midi": 57,
      "hit": false,
      "t": 183553.21809791515,
      "d": 88.0681583333062,
      "v": 47
    },
    {
      "midi": 58,
      "hit": false,
      "t": 183669.69533958178,
      "d": 30.53976458334364,
      "v": 51
    },
    {
      "midi": 62,
      "hit": false,
      "t": 183785.46235416512,
      "d": 37.64203541667666,
      "v": 41
    },
    {
      "midi": 66,
      "hit": false,
      "t": 183879.21232916514,
      "d": 42.61362499999814,
      "v": 35
    },
    {
      "midi": 69,
      "hit": false,
      "t": 183997.11002499846,
      "d": 98.72156458333484,
      "v": 50
    },
    {
      "midi": 66,
      "hit": false,
      "t": 184099.38272499846,
      "d": 71.73293541665771,
      "v": 57
    },
    {
      "midi": 58,
      "hit": false,
      "t": 184180.34861249846,
      "d": 862.2156791666639,
      "v": 40
    },
    {
      "midi": 67,
      "hit": false,
      "t": 184197.39406249847,
      "d": 102.27270000000135,
      "v": 55
    },
    {
      "midi": 69,
      "hit": false,
      "t": 184359.32583749847,
      "d": 70.31248125000275,
      "v": 57
    },
    {
      "midi": 70,
      "hit": false,
      "t": 184505.63261666516,
      "d": 29.119310416659573,
      "v": 61
    },
    {
      "midi": 74,
      "hit": false,
      "t": 184637.02462708182,
      "d": 68.1817999999912,
      "v": 36
    },
    {
      "midi": 76,
      "hit": false,
      "t": 184664.72348333182,
      "d": 36.221581249992596,
      "v": 26
    },
    {
      "midi": 78,
      "hit": false,
      "t": 184769.83709166513,
      "d": 71.73293541665771,
      "v": 61
    },
    {
      "midi": 62,
      "hit": false,
      "t": 184836.59843749847,
      "d": 181.81813333331957,
      "v": 24
    },
    {
      "midi": 55,
      "hit": false,
      "t": 184875.6609270818,
      "d": 203.12494583331863,
      "v": 17
    },
    {
      "midi": 84,
      "hit": false,
      "t": 184920.4052333318,
      "d": 89.48861249999027,
      "v": 76
    },
    {
      "midi": 81,
      "hit": false,
      "t": 185109.32563749846,
      "d": 41.193170833343174,
      "v": 40
    },
    {
      "midi": 81,
      "hit": false,
      "t": 185257.76309791513,
      "d": 76.70452500000829,
      "v": 56
    },
    {
      "midi": 79,
      "hit": false,
      "t": 185404.0698770818,
      "d": 109.37497083333437,
      "v": 53
    },
    {
      "midi": 78,
      "hit": false,
      "t": 185512.73462083182,
      "d": 113.63633333332837,
      "v": 70
    },
    {
      "midi": 76,
      "hit": false,
      "t": 185638.4448145818,
      "d": 83.09656875001383,
      "v": 52
    },
    {
      "midi": 75,
      "hit": false,
      "t": 185777.64932291515,
      "d": 109.37497083333437,
      "v": 48
    },
    {
      "midi": 74,
      "hit": false,
      "t": 185917.56405833183,
      "d": 61.78975624998566,
      "v": 28
    },
    {
      "midi": 73,
      "hit": false,
      "t": 186019.12653124848,
      "d": 29.829537499987055,
      "v": 18
    },
    {
      "midi": 72,
      "hit": false,
      "t": 186090.85946666513,
      "d": 108.66474375000689,
      "v": 28
    },
    {
      "midi": 73,
      "hit": false,
      "t": 186236.45601874846,
      "d": 764.2043416666565,
      "v": 59
    },
    {
      "midi": 50,
      "hit": false,
      "t": 186457.33664166514,
      "d": 93.74997500001336,
      "v": 34
    },
    {
      "midi": 48,
      "hit": false,
      "t": 186460.8877770818,
      "d": 134.23291874999995,
      "v": 37
    },
    {
      "midi": 49,
      "hit": false,
      "t": 186653.35931666513,
      "d": 187.49994999999763,
      "v": 38
    },
    {
      "midi": 50,
      "hit": false,
      "t": 186870.6888041651,
      "d": 221.59085000000778,
      "v": 47
    },
    {
      "midi": 51,
      "hit": false,
      "t": 187115.00692083177,
      "d": 83.80679583334131,
      "v": 52
    },
    {
      "midi": 52,
      "hit": false,
      "t": 187222.25121041512,
      "d": 78.83520624999073,
      "v": 53
    },
    {
      "midi": 53,
      "hit": false,
      "t": 187309.6091416651,
      "d": 84.5170229166688,
      "v": 44
    },
    {
      "midi": 54,
      "hit": false,
      "t": 187410.46138749845,
      "d": 66.05111875000875,
      "v": 51
    },
    {
      "midi": 55,
      "hit": false,
      "t": 187492.84772916514,
      "d": 41.903397916670656,
      "v": 42
    },
    {
      "midi": 56,
      "hit": false,
      "t": 187588.72838541513,
      "d": 34.09090000001015,
      "v": 40
    },
    {
      "midi": 57,
      "hit": false,
      "t": 187676.79654374847,
      "d": 38.352262500004144,
      "v": 61
    },
    {
      "midi": 58,
      "hit": false,
      "t": 187779.06924374847,
      "d": 34.09090000001015,
      "v": 39
    },
    {
      "midi": 59,
      "hit": false,
      "t": 187867.84762916513,
      "d": 48.2954416666762,
      "v": 43
    },
    {
      "midi": 60,
      "hit": false,
      "t": 187956.6260145818,
      "d": 49.00566875000368,
      "v": 34
    },
    {
      "midi": 61,
      "hit": false,
      "t": 188003.5010020818,
      "d": 29.119310416688677,
      "v": 36
    },
    {
      "midi": 62,
      "hit": false,
      "t": 188129.92142291515,
      "d": 129.26132916667848,
      "v": 64
    },
    {
      "midi": 41,
      "hit": false,
      "t": 188262.02366041517,
      "d": 322.44309583332506,
      "v": 37
    },
    {
      "midi": 60,
      "hit": false,
      "t": 188276.93842916517,
      "d": 131.39201041669003,
      "v": 35
    },
    {
      "midi": 59,
      "hit": false,
      "t": 188291.14297083183,
      "d": 30.53976458334364,
      "v": 24
    },
    {
      "midi": 48,
      "hit": false,
      "t": 188519.12586458185,
      "d": 156.96018541665399,
      "v": 51
    },
    {
      "midi": 57,
      "hit": false,
      "t": 188708.75649583183,
      "d": 39.77271666665911,
      "v": 50
    },
    {
      "midi": 69,
      "hit": false,
      "t": 188918.9837124985,
      "d": 296.8749208333029,
      "v": 77
    },
    {
      "midi": 79,
      "hit": false,
      "t": 188919.69393958183,
      "d": 252.1306145833223,
      "v": 74
    },
    {
      "midi": 74,
      "hit": false,
      "t": 188921.1143937485,
      "d": 250.71016041666735,
      "v": 80
    },
    {
      "midi": 64,
      "hit": false,
      "t": 188942.4212062485,
      "d": 36.221581249992596,
      "v": 42
    },
    {
      "midi": 77,
      "hit": false,
      "t": 189333.75632916513,
      "d": 102.98292708332883,
      "v": 60
    },
    {
      "midi": 62,
      "hit": false,
      "t": 189349.38132499845,
      "d": 240.7669812499953,
      "v": 40
    },
    {
      "midi": 72,
      "hit": false,
      "t": 189353.64268749845,
      "d": 115.05678750001243,
      "v": 64
    },
    {
      "midi": 67,
      "hit": false,
      "t": 189359.32450416512,
      "d": 140.6249625000055,
      "v": 54
    },
    {
      "midi": 74,
      "hit": false,
      "t": 189616.42670833177,
      "d": 317.4715062499745,
      "v": 49
    },
    {
      "midi": 64,
      "hit": false,
      "t": 189617.84716249842,
      "d": 359.37490416664514,
      "v": 56
    },
    {
      "midi": 69,
      "hit": false,
      "t": 189637.73352083177,
      "d": 276.9885624999879,
      "v": 51
    },
    {
      "midi": 58,
      "hit": false,
      "t": 189649.0971541651,
      "d": 551.8464437499642,
      "v": 42
    },
    {
      "midi": 72,
      "hit": false,
      "t": 190222.25041041506,
      "d": 194.60222083333065,
      "v": 47
    },
    {
      "midi": 67,
      "hit": false,
      "t": 190231.4833624984,
      "d": 222.30107708330615,
      "v": 47
    },
    {
      "midi": 57,
      "hit": false,
      "t": 190234.32427083174,
      "d": 212.3578979166341,
      "v": 36
    },
    {
      "midi": 62,
      "hit": false,
      "t": 190235.03449791507,
      "d": 259.23288541662623,
      "v": 34
    },
    {
      "midi": 55,
      "hit": false,
      "t": 190868.55705624836,
      "d": 204.5454000000027,
      "v": 36
    },
    {
      "midi": 61,
      "hit": false,
      "t": 190871.3979645817,
      "d": 305.39764583332,
      "v": 35
    },
    {
      "midi": 39,
      "hit": false,
      "t": 190899.0968208317,
      "d": 199.57381041665212,
      "v": 36
    },
    {
      "midi": 46,
      "hit": false,
      "t": 190903.3581833317,
      "d": 250.71016041666735,
      "v": 35
    },
    {
      "midi": 65,
      "hit": false,
      "t": 191577.363685415,
      "d": 599.431658333342,
      "v": 51
    },
    {
      "midi": 61,
      "hit": false,
      "t": 191578.07391249834,
      "d": 1045.4542666666675,
      "v": 33
    },
    {
      "midi": 60,
      "hit": false,
      "t": 191589.43754583166,
      "d": 1100.1417520833493,
      "v": 39
    },
    {
      "midi": 55,
      "hit": false,
      "t": 191609.323904165,
      "d": 1583.8063958333223,
      "v": 17
    },
    {
      "midi": 73,
      "hit": false,
      "t": 192237.16464583168,
      "d": 154.82950416667154,
      "v": 76
    },
    {
      "midi": 75,
      "hit": false,
      "t": 192237.874872915,
      "d": 148.437460416666,
      "v": 81
    },
    {
      "midi": 65,
      "hit": false,
      "t": 192248.528279165,
      "d": 174.71586250001565,
      "v": 36
    },
    {
      "midi": 75,
      "hit": false,
      "t": 192457.33504166504,
      "d": 129.97155624997686,
      "v": 53
    },
    {
      "midi": 73,
      "hit": false,
      "t": 192465.1475395817,
      "d": 78.83520624999073,
      "v": 48
    },
    {
      "midi": 69,
      "hit": false,
      "t": 192678.925891665,
      "d": 108.66474375000689,
      "v": 50
    },
    {
      "midi": 67,
      "hit": false,
      "t": 192679.63611874834,
      "d": 101.56247291667387,
      "v": 42
    },
    {
      "midi": 67,
      "hit": false,
      "t": 192883.47129166502,
      "d": 59.65907500000321,
      "v": 40
    },
    {
      "midi": 69,
      "hit": false,
      "t": 192892.70424374836,
      "d": 81.67611458332976,
      "v": 53
    },
    {
      "midi": 61,
      "hit": false,
      "t": 192950.23263749835,
      "d": 210.22721666665166,
      "v": 21
    },
    {
      "midi": 75,
      "hit": false,
      "t": 193123.52804583168,
      "d": 95.17042916663922,
      "v": 58
    },
    {
      "midi": 73,
      "hit": false,
      "t": 193130.63031666502,
      "d": 96.59088333329419,
      "v": 47
    },
    {
      "midi": 75,
      "hit": false,
      "t": 193340.1473062483,
      "d": 96.5908833333524,
      "v": 44
    },
    {
      "midi": 73,
      "hit": false,
      "t": 193353.64162083165,
      "d": 106.53406250002445,
      "v": 35
    },
    {
      "midi": 60,
      "hit": false,
      "t": 193566.7097458317,
      "d": 232.9544833333348,
      "v": 43
    },
    {
      "midi": 74,
      "hit": false,
      "t": 193580.91428749837,
      "d": 112.2158791666443,
      "v": 47
    },
    {
      "midi": 50,
      "hit": false,
      "t": 193585.17564999836,
      "d": 938.9202041666431,
      "v": 26
    },
    {
      "midi": 72,
      "hit": false,
      "t": 193586.59610416502,
      "d": 102.98292708332883,
      "v": 55
    },
    {
      "midi": 74,
      "hit": false,
      "t": 193793.98241249836,
      "d": 73.86361666669836,
      "v": 44
    },
    {
      "midi": 72,
      "hit": false,
      "t": 193806.05627291504,
      "d": 37.64203541667666,
      "v": 45
    },
    {
      "midi": 66,
      "hit": false,
      "t": 194013.44258124838,
      "d": 83.09656874998473,
      "v": 39
    },
    {
      "midi": 68,
      "hit": false,
      "t": 194014.1528083317,
      "d": 73.86361666666926,
      "v": 49
    },
    {
      "midi": 68,
      "hit": false,
      "t": 194260.60160624835,
      "d": 112.2158791666734,
      "v": 51
    },
    {
      "midi": 66,
      "hit": false,
      "t": 194266.99364999836,
      "d": 59.65907500000321,
      "v": 37
    },
    {
      "midi": 60,
      "hit": false,
      "t": 194335.8856770817,
      "d": 164.7726833333145,
      "v": 28
    },
    {
      "midi": 72,
      "hit": false,
      "t": 194504.91972291502,
      "d": 132.1022374999884,
      "v": 49
    },
    {
      "midi": 71,
      "hit": false,
      "t": 194522.67539999835,
      "d": 31.24999166667112,
      "v": 33
    },
    {
      "midi": 74,
      "hit": false,
      "t": 194537.59016874834,
      "d": 41.903397916670656,
      "v": 22
    },
    {
      "midi": 74,
      "hit": false,
      "t": 194700.23217083167,
      "d": 90.19883958331775,
      "v": 64
    },
    {
      "midi": 72,
      "hit": false,
      "t": 194715.14693958167,
      "d": 143.46587083331542,
      "v": 42
    },
    {
      "midi": 66,
      "hit": false,
      "t": 194934.60710833166,
      "d": 130.68178333333344,
      "v": 59
    },
    {
      "midi": 68,
      "hit": false,
      "t": 194939.57869791499,
      "d": 134.23291874999995,
      "v": 47
    },
    {
      "midi": 64,
      "hit": false,
      "t": 194958.04460208165,
      "d": 86.64770416668034,
      "v": 55
    },
    {
      "midi": 60,
      "hit": false,
      "t": 194961.5957374983,
      "d": 161.93177500000456,
      "v": 36
    },
    {
      "midi": 66,
      "hit": false,
      "t": 195168.27181874833,
      "d": 58.94884791667573,
      "v": 37
    },
    {
      "midi": 68,
      "hit": false,
      "t": 195171.822954165,
      "d": 102.98292708332883,
      "v": 42
    },
    {
      "midi": 74,
      "hit": false,
      "t": 195375.65812708167,
      "d": 109.37497083333437,
      "v": 66
    },
    {
      "midi": 74,
      "hit": false,
      "t": 195586.59557083168,
      "d": 117.89769583332236,
      "v": 62
    },
    {
      "midi": 72,
      "hit": false,
      "t": 195593.697841665,
      "d": 143.46587083331542,
      "v": 54
    },
    {
      "midi": 60,
      "hit": false,
      "t": 195749.23757291498,
      "d": 44.034079166682204,
      "v": 32
    },
    {
      "midi": 54,
      "hit": false,
      "t": 195752.07848124832,
      "d": 128.5511020833219,
      "v": 37
    },
    {
      "midi": 50,
      "hit": false,
      "t": 195755.62961666498,
      "d": 56.81816666666418,
      "v": 31
    },
    {
      "midi": 66,
      "hit": false,
      "t": 196028.35681666498,
      "d": 80.2556604166748,
      "v": 39
    },
    {
      "midi": 68,
      "hit": false,
      "t": 196029.0670437483,
      "d": 108.66474375000689,
      "v": 50
    },
    {
      "midi": 74,
      "hit": false,
      "t": 196277.646522915,
      "d": 96.59088333332329,
      "v": 62
    },
    {
      "midi": 62,
      "hit": false,
      "t": 196298.953335415,
      "d": 57.528393749991665,
      "v": 31
    },
    {
      "midi": 54,
      "hit": false,
      "t": 196303.21469791498,
      "d": 133.52269166667247,
      "v": 30
    },
    {
      "midi": 74,
      "hit": false,
      "t": 196483.61237708165,
      "d": 75.28407083335333,
      "v": 48
    },
    {
      "midi": 72,
      "hit": false,
      "t": 196492.845329165,
      "d": 133.52269166667247,
      "v": 57
    },
    {
      "midi": 68,
      "hit": false,
      "t": 196684.60664166498,
      "d": 102.27270000000135,
      "v": 38
    },
    {
      "midi": 66,
      "hit": false,
      "t": 196696.68050208164,
      "d": 90.90906666667433,
      "v": 25
    },
    {
      "midi": 66,
      "hit": false,
      "t": 196894.1236312483,
      "d": 112.2158791666734,
      "v": 44
    },
    {
      "midi": 68,
      "hit": false,
      "t": 196896.96453958165,
      "d": 142.75564374998794,
      "v": 45
    },
    {
      "midi": 54,
      "hit": false,
      "t": 197100.08948541497,
      "d": 142.04541666666046,
      "v": 36
    },
    {
      "midi": 50,
      "hit": false,
      "t": 197109.3224374983,
      "d": 103.69315416665631,
      "v": 26
    },
    {
      "midi": 74,
      "hit": false,
      "t": 197113.5837999983,
      "d": 75.9942979166517,
      "v": 51
    },
    {
      "midi": 72,
      "hit": false,
      "t": 197135.60083958163,
      "d": 137.07382708333898,
      "v": 32
    },
    {
      "midi": 74,
      "hit": false,
      "t": 197317.41897291498,
      "d": 76.70452500000829,
      "v": 62
    },
    {
      "midi": 72,
      "hit": false,
      "t": 197328.07237916498,
      "d": 158.38063958333805,
      "v": 32
    },
    {
      "midi": 68,
      "hit": false,
      "t": 197524.80528124832,
      "d": 151.27836875000503,
      "v": 53
    },
    {
      "midi": 66,
      "hit": false,
      "t": 197528.356416665,
      "d": 139.914735416678,
      "v": 47
    },
    {
      "midi": 66,
      "hit": false,
      "t": 197745.685904165,
      "d": 112.92610625000088,
      "v": 59
    },
    {
      "midi": 62,
      "hit": false,
      "t": 197752.077947915,
      "d": 49.71589583333116,
      "v": 32
    },
    {
      "midi": 54,
      "hit": false,
      "t": 197752.78817499834,
      "d": 104.4033812500129,
      "v": 40
    },
    {
      "midi": 68,
      "hit": false,
      "t": 197760.600672915,
      "d": 144.8863249999995,
      "v": 42
    },
    {
      "midi": 74,
      "hit": false,
      "t": 197958.04380208167,
      "d": 113.63633333332837,
      "v": 62
    },
    {
      "midi": 68,
      "hit": false,
      "t": 198166.85056458166,
      "d": 135.65337291665492,
      "v": 57
    },
    {
      "midi": 66,
      "hit": false,
      "t": 198174.66306249832,
      "d": 128.5511020833219,
      "v": 45
    },
    {
      "midi": 66,
      "hit": false,
      "t": 198397.67436666499,
      "d": 104.4033812500129,
      "v": 49
    },
    {
      "midi": 68,
      "hit": false,
      "t": 198399.09482083164,
      "d": 291.19310416671215,
      "v": 51
    },
    {
      "midi": 54,
      "hit": false,
      "t": 198415.43004374832,
      "d": 121.44883125001797,
      "v": 33
    },
    {
      "midi": 74,
      "hit": false,
      "t": 198599.37885833168,
      "d": 124.99996666668449,
      "v": 57
    },
    {
      "midi": 68,
      "hit": false,
      "t": 198829.4924333317,
      "d": 147.72723333333852,
      "v": 57
    },
    {
      "midi": 66,
      "hit": false,
      "t": 198837.30493124836,
      "d": 87.35793125000782,
      "v": 49
    },
    {
      "midi": 44,
      "hit": false,
      "t": 198872.81628541503,
      "d": 85.93747708335286,
      "v": 29
    },
    {
      "midi": 43,
      "hit": false,
      "t": 199080.20259374837,
      "d": 107.9545166666503,
      "v": 32
    },
    {
      "midi": 70,
      "hit": false,
      "t": 199081.62304791503,
      "d": 133.52269166667247,
      "v": 58
    },
    {
      "midi": 72,
      "hit": false,
      "t": 199086.59463749835,
      "d": 129.97155625000596,
      "v": 41
    },
    {
      "midi": 72,
      "hit": false,
      "t": 199280.48663124835,
      "d": 135.65337291668402,
      "v": 24
    },
    {
      "midi": 70,
      "hit": false,
      "t": 199293.9809458317,
      "d": 144.8863249999995,
      "v": 43
    },
    {
      "midi": 67,
      "hit": false,
      "t": 199509.88997916502,
      "d": 292.6135583333089,
      "v": 59
    },
    {
      "midi": 65,
      "hit": false,
      "t": 199513.44111458168,
      "d": 343.03968124996754,
      "v": 54
    },
    {
      "midi": 58,
      "hit": false,
      "t": 199761.310366665,
      "d": 108.66474374997779,
      "v": 53
    },
    {
      "midi": 62,
      "hit": false,
      "t": 199780.486497915,
      "d": 35.511354166665114,
      "v": 22
    },
    {
      "midi": 50,
      "hit": false,
      "t": 200203.07161249832,
      "d": 216.6192604166863,
      "v": 54
    },
    {
      "midi": 43,
      "hit": false,
      "t": 200447.389729165,
      "d": 88.0681583333353,
      "v": 36
    },
    {
      "midi": 62,
      "hit": false,
      "t": 200452.36131874833,
      "d": 127.13064791666693,
      "v": 55
    },
    {
      "midi": 58,
      "hit": false,
      "t": 200458.75336249833,
      "d": 117.18746874999488,
      "v": 57
    },
    {
      "midi": 55,
      "hit": false,
      "t": 200465.85563333167,
      "d": 70.31248125000275,
      "v": 43
    },
    {
      "midi": 53,
      "hit": false,
      "t": 200467.98631458168,
      "d": 118.60792291664984,
      "v": 48
    },
    {
      "midi": 54,
      "hit": false,
      "t": 200779.776004165,
      "d": 161.22154791658977,
      "v": 28
    },
    {
      "midi": 56,
      "hit": false,
      "t": 200847.957804165,
      "d": 106.53406249993714,
      "v": 60
    },
    {
      "midi": 57,
      "hit": false,
      "t": 200892.70211041498,
      "d": 273.4374270832632,
      "v": 81
    },
    {
      "midi": 65,
      "hit": false,
      "t": 200894.12256458163,
      "d": 210.22721666662255,
      "v": 85
    },
    {
      "midi": 72,
      "hit": false,
      "t": 200894.83279166496,
      "d": 154.11927708328585,
      "v": 68
    },
    {
      "midi": 62,
      "hit": false,
      "t": 200903.35551666495,
      "d": 155.53973124996992,
      "v": 82
    },
    {
      "midi": 69,
      "hit": false,
      "t": 200904.06574374827,
      "d": 155.53973124996992,
      "v": 56
    },
    {
      "midi": 71,
      "hit": false,
      "t": 200916.13960416493,
      "d": 140.6249624999764,
      "v": 60
    },
    {
      "midi": 71,
      "hit": false,
      "t": 201165.4293104149,
      "d": 188.2101770833251,
      "v": 53
    },
    {
      "midi": 56,
      "hit": false,
      "t": 201176.0827166649,
      "d": 287.6419687499874,
      "v": 74
    },
    {
      "midi": 65,
      "hit": false,
      "t": 201179.63385208158,
      "d": 218.74994166666875,
      "v": 75
    },
    {
      "midi": 62,
      "hit": false,
      "t": 201190.28725833158,
      "d": 124.99996666665538,
      "v": 70
    },
    {
      "midi": 65,
      "hit": false,
      "t": 201533.32693958157,
      "d": 151.27836875000503,
      "v": 71
    },
    {
      "midi": 70,
      "hit": false,
      "t": 201534.0371666649,
      "d": 140.6249625000055,
      "v": 59
    },
    {
      "midi": 55,
      "hit": false,
      "t": 201539.71898333158,
      "d": 178.97722500000964,
      "v": 59
    },
    {
      "midi": 62,
      "hit": false,
      "t": 201546.8212541649,
      "d": 109.37497083333437,
      "v": 62
    },
    {
      "midi": 69,
      "hit": false,
      "t": 201847.24731041494,
      "d": 269.1760645833274,
      "v": 71
    },
    {
      "midi": 58,
      "hit": false,
      "t": 201858.61094374827,
      "d": 309.6590083333431,
      "v": 63
    },
    {
      "midi": 57,
      "hit": false,
      "t": 201863.5825333316,
      "d": 236.5056187500013,
      "v": 64
    },
    {
      "midi": 65,
      "hit": false,
      "t": 201872.81548541493,
      "d": 573.1532562499924,
      "v": 49
    },
    {
      "midi": 46,
      "hit": false,
      "t": 201904.77570416493,
      "d": 1487.9257395832392,
      "v": 23
    },
    {
      "midi": 58,
      "hit": false,
      "t": 202198.80971666495,
      "d": 230.11357499996666,
      "v": 45
    },
    {
      "midi": 56,
      "hit": false,
      "t": 202199.51994374828,
      "d": 224.4317583333177,
      "v": 70
    },
    {
      "midi": 68,
      "hit": false,
      "t": 202204.4915333316,
      "d": 237.92607291665627,
      "v": 56
    },
    {
      "midi": 61,
      "hit": false,
      "t": 202237.16197916493,
      "d": 205.96585416665766,
      "v": 27
    },
    {
      "midi": 55,
      "hit": false,
      "t": 202545.4005333316,
      "d": 295.4544666666188,
      "v": 59
    },
    {
      "midi": 58,
      "hit": false,
      "t": 202550.3721229149,
      "d": 242.89766249997774,
      "v": 65
    },
    {
      "midi": 61,
      "hit": false,
      "t": 202556.7641666649,
      "d": 266.33515624995925,
      "v": 56
    },
    {
      "midi": 67,
      "hit": false,
      "t": 202557.47439374824,
      "d": 191.76131249999162,
      "v": 48
    },
    {
      "midi": 65,
      "hit": false,
      "t": 202561.0255291649,
      "d": 260.6533395833103,
      "v": 43
    },
    {
      "midi": 58,
      "hit": false,
      "t": 202884.88907916486,
      "d": 193.18176666667568,
      "v": 53
    },
    {
      "midi": 61,
      "hit": false,
      "t": 202887.7299874982,
      "d": 220.1703958333237,
      "v": 57
    },
    {
      "midi": 66,
      "hit": false,
      "t": 202889.8606687482,
      "d": 277.6987895833154,
      "v": 58
    },
    {
      "midi": 54,
      "hit": false,
      "t": 202891.28112291486,
      "d": 291.9033312499814,
      "v": 57
    },
    {
      "midi": 53,
      "hit": false,
      "t": 203227.2185333315,
      "d": 212.3578979166632,
      "v": 46
    },
    {
      "midi": 61,
      "hit": false,
      "t": 203228.63898749815,
      "d": 279.11924375002855,
      "v": 59
    },
    {
      "midi": 65,
      "hit": false,
      "t": 203235.7412583315,
      "d": 226.56243958335835,
      "v": 60
    },
    {
      "midi": 58,
      "hit": false,
      "t": 203238.58216666483,
      "d": 218.03971458334127,
      "v": 47
    },
    {
      "midi": 52,
      "hit": false,
      "t": 203563.86617083152,
      "d": 162.64200208333205,
      "v": 49
    },
    {
      "midi": 58,
      "hit": false,
      "t": 203565.99685208153,
      "d": 211.64767083330662,
      "v": 61
    },
    {
      "midi": 61,
      "hit": false,
      "t": 203567.4173062482,
      "d": 247.86925208332832,
      "v": 52
    },
    {
      "midi": 64,
      "hit": false,
      "t": 203575.22980416485,
      "d": 198.86358333332464,
      "v": 60
    },
    {
      "midi": 58,
      "hit": false,
      "t": 203914.7183499982,
      "d": 317.4715062499745,
      "v": 63
    },
    {
      "midi": 61,
      "hit": false,
      "t": 203918.26948541487,
      "d": 245.73857083331677,
      "v": 57
    },
    {
      "midi": 63,
      "hit": false,
      "t": 203923.2410749982,
      "d": 595.170295833319,
      "v": 54
    },
    {
      "midi": 47,
      "hit": false,
      "t": 203940.2865249982,
      "d": 93.74997499998426,
      "v": 50
    },
    {
      "midi": 46,
      "hit": false,
      "t": 204225.08758541485,
      "d": 240.7669812499953,
      "v": 75
    },
    {
      "midi": 34,
      "hit": false,
      "t": 204227.21826666486,
      "d": 255.68174999998882,
      "v": 74
    },
    {
      "midi": 61,
      "hit": false,
      "t": 204237.87167291486,
      "d": 163.35222916665953,
      "v": 27
    },
    {
      "midi": 45,
      "hit": false,
      "t": 204551.08181666484,
      "d": 218.03971458334127,
      "v": 79
    },
    {
      "midi": 33,
      "hit": false,
      "t": 204556.76363333152,
      "d": 142.75564374998794,
      "v": 74
    },
    {
      "midi": 60,
      "hit": false,
      "t": 204556.76363333152,
      "d": 261.3635666666669,
      "v": 69
    },
    {
      "midi": 55,
      "hit": false,
      "t": 204561.73522291484,
      "d": 140.6249625000055,
      "v": 60
    },
    {
      "midi": 55,
      "hit": false,
      "t": 205238.58163333152,
      "d": 293.3237854166364,
      "v": 58
    },
    {
      "midi": 57,
      "hit": false,
      "t": 205239.29186041484,
      "d": 308.9487812499574,
      "v": 68
    },
    {
      "midi": 91,
      "hit": false,
      "t": 205241.42254166486,
      "d": 296.1646937499463,
      "v": 90
    },
    {
      "midi": 84,
      "hit": false,
      "t": 205242.8429958315,
      "d": 289.7726499999699,
      "v": 89
    },
    {
      "midi": 64,
      "hit": false,
      "t": 205243.55322291484,
      "d": 293.3237854166364,
      "v": 83
    },
    {
      "midi": 60,
      "hit": false,
      "t": 205245.68390416485,
      "d": 306.10787291661836,
      "v": 66
    },
    {
      "midi": 79,
      "hit": false,
      "t": 205246.39413124818,
      "d": 278.40901666664286,
      "v": 88
    },
    {
      "midi": 88,
      "hit": false,
      "t": 205248.5248124982,
      "d": 306.10787291661836,
      "v": 77
    },
    {
      "midi": 89,
      "hit": false,
      "t": 205273.38276041485,
      "d": 252.1306145832932,
      "v": 36
    },
    {
      "midi": 58,
      "hit": false,
      "t": 205276.93389583152,
      "d": 29.119310416659573,
      "v": 31
    },
    {
      "midi": 55,
      "hit": false,
      "t": 205612.87130624813,
      "d": 227.9828937499551,
      "v": 53
    },
    {
      "midi": 60,
      "hit": false,
      "t": 205614.29176041478,
      "d": 257.1022041666147,
      "v": 80
    },
    {
      "midi": 57,
      "hit": false,
      "t": 205615.0019874981,
      "d": 249.28970624995418,
      "v": 73
    },
    {
      "midi": 64,
      "hit": false,
      "t": 205616.42244166476,
      "d": 227.9828937499842,
      "v": 80
    },
    {
      "midi": 91,
      "hit": false,
      "t": 205617.84289583142,
      "d": 227.27266666665673,
      "v": 77
    },
    {
      "midi": 88,
      "hit": false,
      "t": 205618.55312291475,
      "d": 262.07379374999437,
      "v": 65
    },
    {
      "midi": 84,
      "hit": false,
      "t": 205624.23493958142,
      "d": 230.11357499996666,
      "v": 74
    },
    {
      "midi": 79,
      "hit": false,
      "t": 205625.65539374808,
      "d": 220.1703958333237,
      "v": 80
    },
    {
      "midi": 60,
      "hit": false,
      "t": 205947.38826249805,
      "d": 284.0908333332627,
      "v": 73
    },
    {
      "midi": 55,
      "hit": false,
      "t": 205948.09848958137,
      "d": 254.97152291663224,
      "v": 62
    },
    {
      "midi": 64,
      "hit": false,
      "t": 205950.2291708314,
      "d": 264.9147020832752,
      "v": 82
    },
    {
      "midi": 57,
      "hit": false,
      "t": 205950.9393979147,
      "d": 264.9147020832752,
      "v": 74
    },
    {
      "midi": 91,
      "hit": false,
      "t": 205953.78030624805,
      "d": 220.1703958332946,
      "v": 81
    },
    {
      "midi": 88,
      "hit": false,
      "t": 205960.8825770814,
      "d": 239.34652708328213,
      "v": 63
    },
    {
      "midi": 79,
      "hit": false,
      "t": 205962.30303124804,
      "d": 210.93744374997914,
      "v": 80
    },
    {
      "midi": 84,
      "hit": false,
      "t": 205963.01325833137,
      "d": 247.15902499997173,
      "v": 80
    },
    {
      "midi": 64,
      "hit": false,
      "t": 206276.93362916465,
      "d": 89.48861249996116,
      "v": 72
    },
    {
      "midi": 55,
      "hit": false,
      "t": 206281.90521874797,
      "d": 110.08519791663275,
      "v": 42
    },
    {
      "midi": 57,
      "hit": false,
      "t": 206284.03589999798,
      "d": 112.2158791666152,
      "v": 57
    },
    {
      "midi": 60,
      "hit": false,
      "t": 206285.45635416463,
      "d": 100.1420187499607,
      "v": 74
    },
    {
      "midi": 84,
      "hit": false,
      "t": 206291.84839791464,
      "d": 80.2556604166457,
      "v": 64
    },
    {
      "midi": 78,
      "hit": false,
      "t": 206293.2688520813,
      "d": 57.528393749991665,
      "v": 71
    },
    {
      "midi": 90,
      "hit": false,
      "t": 206296.81998749796,
      "d": 83.80679583331221,
      "v": 55
    },
    {
      "midi": 55,
      "hit": false,
      "t": 206613.5812666646,
      "d": 240.0567541666387,
      "v": 60
    },
    {
      "midi": 57,
      "hit": false,
      "t": 206614.29149374794,
      "d": 279.11924374997034,
      "v": 72
    },
    {
      "midi": 64,
      "hit": false,
      "t": 206615.7119479146,
      "d": 251.42038749999483,
      "v": 82
    },
    {
      "midi": 60,
      "hit": false,
      "t": 206619.97331041459,
      "d": 285.5112874999759,
      "v": 68
    },
    {
      "midi": 78,
      "hit": false,
      "t": 206622.1039916646,
      "d": 253.55106874997728,
      "v": 87
    },
    {
      "midi": 90,
      "hit": false,
      "t": 206622.81421874792,
      "d": 262.78402083332185,
      "v": 83
    },
    {
      "midi": 84,
      "hit": false,
      "t": 206629.91648958126,
      "d": 241.47720833332278,
      "v": 79
    },
    {
      "midi": 64,
      "hit": false,
      "t": 206954.49026666456,
      "d": 62.49998333331314,
      "v": 69
    },
    {
      "midi": 55,
      "hit": false,
      "t": 206955.2004937479,
      "d": 124.2897395833279,
      "v": 55
    },
    {
      "midi": 89,
      "hit": false,
      "t": 206963.01299166455,
      "d": 334.51695625000866,
      "v": 66
    },
    {
      "midi": 83,
      "hit": false,
      "t": 206963.01299166455,
      "d": 335.22718333333614,
      "v": 73
    },
    {
      "midi": 77,
      "hit": false,
      "t": 206965.8538999979,
      "d": 321.0226416666701,
      "v": 71
    },
    {
      "midi": 60,
      "hit": false,
      "t": 206966.56412708122,
      "d": 80.96588750000228,
      "v": 68
    },
    {
      "midi": 86,
      "hit": false,
      "t": 206972.2459437479,
      "d": 341.6192270833126,
      "v": 66
    },
    {
      "midi": 57,
      "hit": false,
      "t": 206973.66639791455,
      "d": 98.72156458333484,
      "v": 58
    },
    {
      "midi": 44,
      "hit": false,
      "t": 207306.05267291455,
      "d": 201.70449166666367,
      "v": 88
    },
    {
      "midi": 32,
      "hit": false,
      "t": 207313.15494374788,
      "d": 161.22154791667708,
      "v": 87
    },
    {
      "midi": 80,
      "hit": false,
      "t": 207984.31953749788,
      "d": 212.3578979166632,
      "v": 90
    },
    {
      "midi": 88,
      "hit": false,
      "t": 207984.31953749788,
      "d": 218.03971458331216,
      "v": 83
    },
    {
      "midi": 76,
      "hit": false,
      "t": 207986.4502187479,
      "d": 211.64767083330662,
      "v": 94
    },
    {
      "midi": 83,
      "hit": false,
      "t": 207987.16044583122,
      "d": 227.9828937499842,
      "v": 85
    },
    {
      "midi": 53,
      "hit": false,
      "t": 207992.13203541454,
      "d": 213.77835208331817,
      "v": 85
    },
    {
      "midi": 62,
      "hit": false,
      "t": 207994.26271666455,
      "d": 211.64767083330662,
      "v": 96
    },
    {
      "midi": 56,
      "hit": false,
      "t": 207994.97294374788,
      "d": 237.21584583332879,
      "v": 77
    },
    {
      "midi": 59,
      "hit": false,
      "t": 207996.39339791454,
      "d": 240.05675416666782,
      "v": 87
    },
    {
      "midi": 86,
      "hit": false,
      "t": 208002.07521458121,
      "d": 218.74994166666875,
      "v": 62
    },
    {
      "midi": 80,
      "hit": false,
      "t": 208327.35921874788,
      "d": 188.2101770833251,
      "v": 86
    },
    {
      "midi": 88,
      "hit": false,
      "t": 208328.0694458312,
      "d": 171.16472708332003,
      "v": 71
    },
    {
      "midi": 83,
      "hit": false,
      "t": 208330.91035416455,
      "d": 200.2840374999796,
      "v": 81
    },
    {
      "midi": 76,
      "hit": false,
      "t": 208331.62058124787,
      "d": 173.29540833333158,
      "v": 88
    },
    {
      "midi": 53,
      "hit": false,
      "t": 208333.75126249788,
      "d": 181.10790624999208,
      "v": 85
    },
    {
      "midi": 59,
      "hit": false,
      "t": 208334.4614895812,
      "d": 211.64767083330662,
      "v": 84
    },
    {
      "midi": 56,
      "hit": false,
      "t": 208335.88194374787,
      "d": 199.57381041665212,
      "v": 81
    },
    {
      "midi": 62,
      "hit": false,
      "t": 208337.30239791452,
      "d": 164.7726833333436,
      "v": 95
    },
    {
      "midi": 86,
      "hit": false,
      "t": 208338.01262499785,
      "d": 198.86358333332464,
      "v": 74
    },
    {
      "midi": 88,
      "hit": false,
      "t": 208629.91595624786,
      "d": 147.01700625001104,
      "v": 68
    },
    {
      "midi": 80,
      "hit": false,
      "t": 208632.04663749787,
      "d": 222.30107708333526,
      "v": 77
    },
    {
      "midi": 83,
      "hit": false,
      "t": 208637.72845416455,
      "d": 217.32948749998468,
      "v": 77
    },
    {
      "midi": 62,
      "hit": false,
      "t": 208640.5693624979,
      "d": 191.05108541666414,
      "v": 88
    },
    {
      "midi": 53,
      "hit": false,
      "t": 208642.7000437479,
      "d": 200.99426458330709,
      "v": 74
    },
    {
      "midi": 59,
      "hit": false,
      "t": 208643.41027083123,
      "d": 212.3578979166341,
      "v": 64
    },
    {
      "midi": 76,
      "hit": false,
      "t": 208644.12049791456,
      "d": 163.35222916665953,
      "v": 78
    },
    {
      "midi": 56,
      "hit": false,
      "t": 208644.83072499788,
      "d": 211.64767083330662,
      "v": 72
    },
    {
      "midi": 86,
      "hit": false,
      "t": 208651.93299583122,
      "d": 176.8465437499981,
      "v": 54
    },
    {
      "midi": 87,
      "hit": false,
      "t": 208975.08631874787,
      "d": 171.8749541666475,
      "v": 70
    },
    {
      "midi": 62,
      "hit": false,
      "t": 208980.76813541455,
      "d": 168.323818749981,
      "v": 87
    },
    {
      "midi": 56,
      "hit": false,
      "t": 208982.1885895812,
      "d": 193.18176666664658,
      "v": 77
    },
    {
      "midi": 75,
      "hit": false,
      "t": 208982.89881666453,
      "d": 167.61359166665352,
      "v": 83
    },
    {
      "midi": 59,
      "hit": false,
      "t": 208983.60904374786,
      "d": 197.44312916666968,
      "v": 75
    },
    {
      "midi": 53,
      "hit": false,
      "t": 208985.73972499787,
      "d": 159.09086666663643,
      "v": 69
    },
    {
      "midi": 80,
      "hit": false,
      "t": 208987.16017916452,
      "d": 162.64200208333205,
      "v": 72
    },
    {
      "midi": 83,
      "hit": false,
      "t": 208994.97267708118,
      "d": 168.3238187500101,
      "v": 66
    },
    {
      "midi": 56,
      "hit": false,
      "t": 209296.81918749787,
      "d": 245.02834374993108,
      "v": 62
    },
    {
      "midi": 87,
      "hit": false,
      "t": 209298.94986874788,
      "d": 209.51698958326597,
      "v": 59
    },
    {
      "midi": 62,
      "hit": false,
      "t": 209299.6600958312,
      "d": 225.85221249991446,
      "v": 71
    },
    {
      "midi": 59,
      "hit": false,
      "t": 209303.9214583312,
      "d": 174.71586249995744,
      "v": 62
    },
    {
      "midi": 75,
      "hit": false,
      "t": 209305.34191249785,
      "d": 199.57381041662302,
      "v": 73
    },
    {
      "midi": 53,
      "hit": false,
      "t": 209306.7623666645,
      "d": 217.32948749995558,
      "v": 52
    },
    {
      "midi": 80,
      "hit": false,
      "t": 209308.18282083116,
      "d": 211.64767083330662,
      "v": 63
    },
    {
      "midi": 83,
      "hit": false,
      "t": 209319.5464541645,
      "d": 122.86928541667294,
      "v": 60
    },
    {
      "midi": 55,
      "hit": false,
      "t": 209643.41000416447,
      "d": 80.2556604166457,
      "v": 62
    },
    {
      "midi": 86,
      "hit": false,
      "t": 209644.83045833113,
      "d": 33.380672916653566,
      "v": 68
    },
    {
      "midi": 62,
      "hit": false,
      "t": 209646.96113958114,
      "d": 58.238620833319146,
      "v": 74
    },
    {
      "midi": 82,
      "hit": false,
      "t": 209647.67136666446,
      "d": 66.05111874997965,
      "v": 70
    },
    {
      "midi": 58,
      "hit": false,
      "t": 209651.22250208113,
      "d": 76.70452499997918,
      "v": 71
    },
    {
      "midi": 74,
      "hit": false,
      "t": 209655.48386458113,
      "d": 53.26703124999767,
      "v": 69
    },
    {
      "midi": 53,
      "hit": false,
      "t": 209658.32477291446,
      "d": 37.64203541664756,
      "v": 48
    },
    {
      "midi": 79,
      "hit": false,
      "t": 209659.0349999978,
      "d": 29.119310416659573,
      "v": 70
    },
    {
      "midi": 56,
      "hit": false,
      "t": 209666.13727083112,
      "d": 29.119310416659573,
      "v": 56
    },
    {
      "midi": 46,
      "hit": false,
      "t": 209958.75082916443,
      "d": 41.90339791664155,
      "v": 19
    },
    {
      "midi": 50,
      "hit": false,
      "t": 210312.4439166644,
      "d": 269.1760645832692,
      "v": 89
    },
    {
      "midi": 49,
      "hit": false,
      "t": 210319.54618749773,
      "d": 40.482943749957485,
      "v": 67
    },
    {
      "midi": 58,
      "hit": false,
      "t": 210320.9666416644,
      "d": 181.10790624996298,
      "v": 75
    },
    {
      "midi": 62,
      "hit": false,
      "t": 210321.67686874772,
      "d": 147.01700624998193,
      "v": 76
    },
    {
      "midi": 55,
      "hit": false,
      "t": 210322.38709583104,
      "d": 145.59655208332697,
      "v": 78
    },
    {
      "midi": 53,
      "hit": false,
      "t": 210323.8075499977,
      "d": 232.2442562499782,
      "v": 83
    },
    {
      "midi": 51,
      "hit": false,
      "t": 210588.722252081,
      "d": 148.437460416666,
      "v": 42
    },
    {
      "midi": 49,
      "hit": false,
      "t": 210609.31883749767,
      "d": 96.59088333332329,
      "v": 27
    },
    {
      "midi": 58,
      "hit": false,
      "t": 210654.773370831,
      "d": 129.97155625000596,
      "v": 77
    },
    {
      "midi": 65,
      "hit": false,
      "t": 210655.48359791434,
      "d": 132.1022375000175,
      "v": 70
    },
    {
      "midi": 62,
      "hit": false,
      "t": 210659.034733331,
      "d": 134.23291875002906,
      "v": 47
    },
    {
      "midi": 55,
      "hit": false,
      "t": 210661.16541458102,
      "d": 117.18746874999488,
      "v": 68
    },
    {
      "midi": 53,
      "hit": false,
      "t": 210679.63131874768,
      "d": 362.92603958334075,
      "v": 81
    },
    {
      "midi": 54,
      "hit": false,
      "t": 210911.8755749977,
      "d": 69.60225416664616,
      "v": 37
    },
    {
      "midi": 55,
      "hit": false,
      "t": 210958.7505624977,
      "d": 81.67611458330066,
      "v": 56
    },
    {
      "midi": 58,
      "hit": false,
      "t": 210989.29032708102,
      "d": 82.38634166665724,
      "v": 71
    },
    {
      "midi": 69,
      "hit": false,
      "t": 210992.8414624977,
      "d": 117.18746874999488,
      "v": 50
    },
    {
      "midi": 62,
      "hit": false,
      "t": 210993.551689581,
      "d": 105.11360833334038,
      "v": 64
    },
    {
      "midi": 57,
      "hit": false,
      "t": 210999.94373333102,
      "d": 213.77835208331817,
      "v": 90
    },
    {
      "midi": 65,
      "hit": false,
      "t": 211001.36418749767,
      "d": 110.08519791666185,
      "v": 61
    },
    {
      "midi": 55,
      "hit": false,
      "t": 211203.77890624767,
      "d": 79.54543333334732,
      "v": 48
    },
    {
      "midi": 58,
      "hit": false,
      "t": 211210.881177081,
      "d": 90.90906666667433,
      "v": 39
    },
    {
      "midi": 57,
      "hit": false,
      "t": 211244.972077081,
      "d": 95.88065625002491,
      "v": 41
    },
    {
      "midi": 59,
      "hit": false,
      "t": 211286.87547499768,
      "d": 98.01133750000736,
      "v": 71
    },
    {
      "midi": 65,
      "hit": false,
      "t": 211322.38682916434,
      "d": 111.50565208334592,
      "v": 64
    },
    {
      "midi": 72,
      "hit": false,
      "t": 211324.51751041436,
      "d": 142.04541666666046,
      "v": 58
    },
    {
      "midi": 62,
      "hit": false,
      "t": 211328.06864583102,
      "d": 77.41475208333577,
      "v": 55
    },
    {
      "midi": 69,
      "hit": false,
      "t": 211330.19932708103,
      "d": 124.99996666665538,
      "v": 55
    },
    {
      "midi": 60,
      "hit": false,
      "t": 211332.33000833105,
      "d": 196.732902083284,
      "v": 66
    },
    {
      "midi": 58,
      "hit": false,
      "t": 211517.699277081,
      "d": 90.19883958331775,
      "v": 48
    },
    {
      "midi": 57,
      "hit": false,
      "t": 211537.58563541432,
      "d": 49.71589583333116,
      "v": 27
    },
    {
      "midi": 61,
      "hit": false,
      "t": 211586.59130416432,
      "d": 46.87498749999213,
      "v": 55
    },
    {
      "midi": 74,
      "hit": false,
      "t": 211633.4662916643,
      "d": 129.97155625003506,
      "v": 65
    },
    {
      "midi": 70,
      "hit": false,
      "t": 211634.17651874764,
      "d": 131.39201041671913,
      "v": 61
    },
    {
      "midi": 67,
      "hit": false,
      "t": 211643.409470831,
      "d": 179.68745208336622,
      "v": 66
    },
    {
      "midi": 65,
      "hit": false,
      "t": 211646.25037916432,
      "d": 124.99996666671359,
      "v": 66
    },
    {
      "midi": 62,
      "hit": false,
      "t": 211648.38106041434,
      "d": 294.74423958332045,
      "v": 44
    },
    {
      "midi": 64,
      "hit": false,
      "t": 211657.61401249768,
      "d": 129.26132916667848,
      "v": 78
    },
    {
      "midi": 63,
      "hit": false,
      "t": 211818.83556041436,
      "d": 197.44312916661147,
      "v": 36
    },
    {
      "midi": 61,
      "hit": false,
      "t": 211828.06851249767,
      "d": 89.48861249999027,
      "v": 19
    },
    {
      "midi": 60,
      "hit": false,
      "t": 211856.477595831,
      "d": 34.80112708333763,
      "v": 36
    },
    {
      "midi": 64,
      "hit": false,
      "t": 211902.64235624767,
      "d": 98.01133749997825,
      "v": 51
    },
    {
      "midi": 77,
      "hit": false,
      "t": 211946.67643541432,
      "d": 111.50565208331682,
      "v": 57
    },
    {
      "midi": 70,
      "hit": false,
      "t": 211948.09688958098,
      "d": 85.93747708332376,
      "v": 57
    },
    {
      "midi": 74,
      "hit": false,
      "t": 211956.61961458097,
      "d": 88.0681583333353,
      "v": 53
    },
    {
      "midi": 67,
      "hit": false,
      "t": 211958.75029583098,
      "d": 103.69315416665631,
      "v": 35
    },
    {
      "midi": 65,
      "hit": false,
      "t": 211982.89801666432,
      "d": 186.78972291664104,
      "v": 80
    },
    {
      "midi": 66,
      "hit": false,
      "t": 212150.51160833097,
      "d": 102.27270000000135,
      "v": 39
    },
    {
      "midi": 67,
      "hit": false,
      "t": 212239.28999374763,
      "d": 76.70452499997918,
      "v": 60
    },
    {
      "midi": 81,
      "hit": false,
      "t": 212269.82975833098,
      "d": 129.26132916659117,
      "v": 48
    },
    {
      "midi": 70,
      "hit": false,
      "t": 212271.25021249763,
      "d": 73.15338958331267,
      "v": 56
    },
    {
      "midi": 74,
      "hit": false,
      "t": 212278.35248333096,
      "d": 86.64770416662213,
      "v": 63
    },
    {
      "midi": 69,
      "hit": false,
      "t": 212289.7161166643,
      "d": 193.89199374994496,
      "v": 78
    },
    {
      "midi": 77,
      "hit": false,
      "t": 212294.6877062476,
      "d": 82.38634166662814,
      "v": 49
    },
    {
      "midi": 67,
      "hit": false,
      "t": 212487.1592458309,
      "d": 59.65907499997411,
      "v": 48
    },
    {
      "midi": 80,
      "hit": false,
      "t": 212494.26151666424,
      "d": 91.61929374994361,
      "v": 44
    },
    {
      "midi": 70,
      "hit": false,
      "t": 212502.0740145809,
      "d": 93.03974791662768,
      "v": 33
    },
    {
      "midi": 69,
      "hit": false,
      "t": 212535.45468749755,
      "d": 38.35226249997504,
      "v": 61
    },
    {
      "midi": 71,
      "hit": false,
      "t": 212569.54558749753,
      "d": 105.82383541666786,
      "v": 67
    },
    {
      "midi": 76,
      "hit": false,
      "t": 212624.23307291418,
      "d": 473.0112375000026,
      "v": 56
    },
    {
      "midi": 72,
      "hit": false,
      "t": 212629.91488958086,
      "d": 453.1248791666585,
      "v": 79
    },
    {
      "midi": 84,
      "hit": false,
      "t": 212630.6251166642,
      "d": 453.1248791666585,
      "v": 53
    },
    {
      "midi": 73,
      "hit": false,
      "t": 212632.7557979142,
      "d": 531.9600854166492,
      "v": 48
    },
    {
      "midi": 79,
      "hit": false,
      "t": 212650.51147499753,
      "d": 433.9487479166419,
      "v": 32
    },
    {
      "midi": 69,
      "hit": false,
      "t": 212659.74442708088,
      "d": 30.539764583314536,
      "v": 24
    },
    {
      "midi": 81,
      "hit": false,
      "t": 213343.69310833083,
      "d": 301.136283333326,
      "v": 63
    },
    {
      "midi": 73,
      "hit": false,
      "t": 213355.05674166416,
      "d": 507.81236458331114,
      "v": 46
    },
    {
      "midi": 70,
      "hit": false,
      "t": 213359.31810416415,
      "d": 384.2328520833398,
      "v": 53
    },
    {
      "midi": 69,
      "hit": false,
      "t": 213368.5510562475,
      "d": 301.8465104166535,
      "v": 49
    },
    {
      "midi": 76,
      "hit": false,
      "t": 213369.97151041415,
      "d": 410.51125416666036,
      "v": 50
    },
    {
      "midi": 70,
      "hit": false,
      "t": 214070.2554145808,
      "d": 208.0965354166692,
      "v": 53
    },
    {
      "midi": 67,
      "hit": false,
      "t": 214078.06791249747,
      "d": 83.09656875001383,
      "v": 45
    },
    {
      "midi": 79,
      "hit": false,
      "t": 214080.19859374748,
      "d": 171.87495416667662,
      "v": 36
    },
    {
      "midi": 73,
      "hit": false,
      "t": 214081.61904791414,
      "d": 243.60788958333433,
      "v": 36
    },
    {
      "midi": 76,
      "hit": false,
      "t": 214102.2156333308,
      "d": 161.22154791667708,
      "v": 30
    },
    {
      "midi": 73,
      "hit": false,
      "t": 214744.97114374748,
      "d": 394.1760312500119,
      "v": 37
    },
    {
      "midi": 64,
      "hit": false,
      "t": 214750.65296041415,
      "d": 404.1192104166548,
      "v": 51
    },
    {
      "midi": 68,
      "hit": false,
      "t": 214757.7552312475,
      "d": 502.1305479166622,
      "v": 47
    },
    {
      "midi": 42,
      "hit": false,
      "t": 214768.4086374975,
      "d": 114.34656041665585,
      "v": 32
    },
    {
      "midi": 49,
      "hit": false,
      "t": 214780.48249791414,
      "d": 161.93177500000456,
      "v": 29
    },
    {
      "midi": 48,
      "hit": false,
      "t": 215478.63572083082,
      "d": 226.56243958332925,
      "v": 33
    },
    {
      "midi": 41,
      "hit": false,
      "t": 215480.76640208083,
      "d": 178.26699791665305,
      "v": 25
    },
    {
      "midi": 72,
      "hit": false,
      "t": 215488.5788999975,
      "d": 639.2043749999721,
      "v": 36
    },
    {
      "midi": 67,
      "hit": false,
      "t": 215492.84026249748,
      "d": 539.0623562499823,
      "v": 32
    },
    {
      "midi": 57,
      "hit": false,
      "t": 215494.26071666414,
      "d": 282.67037916666595,
      "v": 34
    },
    {
      "midi": 62,
      "hit": false,
      "t": 215494.26071666414,
      "d": 325.99423124999157,
      "v": 31
    },
    {
      "midi": 62,
      "hit": false,
      "t": 216175.36848958078,
      "d": 365.0567208333232,
      "v": 29
    },
    {
      "midi": 57,
      "hit": false,
      "t": 216197.38552916414,
      "d": 352.2726333333121,
      "v": 41
    },
    {
      "midi": 53,
      "hit": false,
      "t": 216201.64689166413,
      "d": 355.8237687499786,
      "v": 18
    },
    {
      "midi": 60,
      "hit": false,
      "t": 216202.35711874746,
      "d": 316.0510520833195,
      "v": 24
    },
    {
      "midi": 72,
      "hit": false,
      "t": 216499.94226666412,
      "d": 102.27270000000135,
      "v": 53
    },
    {
      "midi": 84,
      "hit": false,
      "t": 216657.61267916413,
      "d": 122.86928541667294,
      "v": 57
    },
    {
      "midi": 65,
      "hit": false,
      "t": 216836.58990416414,
      "d": 1107.9542500000098,
      "v": 34
    },
    {
      "midi": 60,
      "hit": false,
      "t": 216846.5330833308,
      "d": 1150.567875000008,
      "v": 27
    },
    {
      "midi": 79,
      "hit": false,
      "t": 216847.24331041414,
      "d": 142.75564375001704,
      "v": 44
    },
    {
      "midi": 54,
      "hit": false,
      "t": 216853.63535416414,
      "d": 1239.3462604166707,
      "v": 23
    },
    {
      "midi": 79,
      "hit": false,
      "t": 217107.18642291415,
      "d": 163.35222916665953,
      "v": 56
    },
    {
      "midi": 75,
      "hit": false,
      "t": 217318.12386666413,
      "d": 203.83517291667522,
      "v": 51
    },
    {
      "midi": 72,
      "hit": false,
      "t": 217536.8738083308,
      "d": 173.29540833333158,
      "v": 44
    },
    {
      "midi": 68,
      "hit": false,
      "t": 217913.29416249748,
      "d": 330.25559374998556,
      "v": 51
    },
    {
      "midi": 63,
      "hit": false,
      "t": 218227.2145333308,
      "d": 350.14195208332967,
      "v": 36
    },
    {
      "midi": 58,
      "hit": false,
      "t": 218242.83952916414,
      "d": 408.3805729166779,
      "v": 53
    },
    {
      "midi": 53,
      "hit": false,
      "t": 218247.10089166413,
      "d": 394.1760312500119,
      "v": 24
    },
    {
      "midi": 65,
      "hit": false,
      "t": 218247.81111874746,
      "d": 921.8747541666962,
      "v": 39
    },
    {
      "midi": 56,
      "hit": false,
      "t": 218940.9927520808,
      "d": 213.77835208334727,
      "v": 44
    },
    {
      "midi": 49,
      "hit": false,
      "t": 218943.12343333082,
      "d": 257.1022041666729,
      "v": 30
    },
    {
      "midi": 42,
      "hit": false,
      "t": 219588.0096249975,
      "d": 433.948747916671,
      "v": 31
    },
    {
      "midi": 65,
      "hit": false,
      "t": 219595.82212291416,
      "d": 186.78972291667014,
      "v": 41
    },
    {
      "midi": 60,
      "hit": false,
      "t": 219596.5323499975,
      "d": 266.33515625001746,
      "v": 33
    },
    {
      "midi": 61,
      "hit": false,
      "t": 220244.96967708084,
      "d": 446.73283541665296,
      "v": 34
    },
    {
      "midi": 51,
      "hit": false,
      "t": 220254.20262916418,
      "d": 172.585181249975,
      "v": 29
    },
    {
      "midi": 56,
      "hit": false,
      "t": 220255.62308333084,
      "d": 316.761279166647,
      "v": 37
    },
    {
      "midi": 42,
      "hit": false,
      "t": 220263.4355812475,
      "d": 192.4715395833191,
      "v": 29
    },
    {
      "midi": 66,
      "hit": false,
      "t": 220280.4810312475,
      "d": 310.36923541664146,
      "v": 25
    },
    {
      "midi": 60,
      "hit": false,
      "t": 220917.5547249975,
      "d": 486.5055520833412,
      "v": 33
    },
    {
      "midi": 55,
      "hit": false,
      "t": 220930.3388124975,
      "d": 455.25556041667005,
      "v": 30
    },
    {
      "midi": 57,
      "hit": false,
      "t": 220931.04903958083,
      "d": 455.96578749999753,
      "v": 32
    },
    {
      "midi": 41,
      "hit": false,
      "t": 220931.75926666416,
      "d": 781.2497916666907,
      "v": 26
    },
    {
      "midi": 65,
      "hit": false,
      "t": 220934.6001749975,
      "d": 529.1191770833393,
      "v": 34
    },
    {
      "midi": 50,
      "hit": false,
      "t": 220948.09448958084,
      "d": 331.67604791666963,
      "v": 22
    },
    {
      "midi": 48,
      "hit": false,
      "t": 220957.32744166418,
      "d": 758.5225250000076,
      "v": 33
    },
    {
      "midi": 60,
      "hit": false,
      "t": 221622.09999166417,
      "d": 232.9544833333348,
      "v": 42
    },
    {
      "midi": 57,
      "hit": false,
      "t": 221635.5943062475,
      "d": 163.35222916665953,
      "v": 35
    },
    {
      "midi": 55,
      "hit": false,
      "t": 221636.30453333084,
      "d": 141.33518958333298,
      "v": 35
    },
    {
      "midi": 52,
      "hit": false,
      "t": 221639.8556687475,
      "d": 141.33518958333298,
      "v": 32
    },
    {
      "midi": 62,
      "hit": false,
      "t": 222316.70207916418,
      "d": 173.29540833333158,
      "v": 62
    },
    {
      "midi": 67,
      "hit": false,
      "t": 222320.96344166418,
      "d": 199.57381041665212,
      "v": 49
    },
    {
      "midi": 57,
      "hit": false,
      "t": 222322.38389583083,
      "d": 230.11357499999576,
      "v": 50
    },
    {
      "midi": 72,
      "hit": false,
      "t": 222324.51457708084,
      "d": 176.8465437499981,
      "v": 50
    },
    {
      "midi": 71,
      "hit": false,
      "t": 222543.26451874748,
      "d": 114.34656041665585,
      "v": 38
    },
    {
      "midi": 56,
      "hit": false,
      "t": 222564.57133124748,
      "d": 163.35222916665953,
      "v": 44
    },
    {
      "midi": 67,
      "hit": false,
      "t": 222724.37242499748,
      "d": 262.78402083329274,
      "v": 48
    },
    {
      "midi": 62,
      "hit": false,
      "t": 222726.5031062475,
      "d": 241.47720833329367,
      "v": 41
    },
    {
      "midi": 72,
      "hit": false,
      "t": 222727.21333333082,
      "d": 218.03971458331216,
      "v": 53
    },
    {
      "midi": 57,
      "hit": false,
      "t": 222742.83832916414,
      "d": 683.2384541666252,
      "v": 47
    },
    {
      "midi": 74,
      "hit": false,
      "t": 223411.8722416641,
      "d": 129.26132916667848,
      "v": 64
    },
    {
      "midi": 67,
      "hit": false,
      "t": 223419.68473958076,
      "d": 115.76701458333991,
      "v": 57
    },
    {
      "midi": 62,
      "hit": false,
      "t": 223421.81542083077,
      "d": 110.79542499998934,
      "v": 53
    },
    {
      "midi": 59,
      "hit": false,
      "t": 223436.01996249743,
      "d": 348.0112708333181,
      "v": 50
    },
    {
      "midi": 58,
      "hit": false,
      "t": 223676.0767166641,
      "d": 65.34089166665217,
      "v": 57
    },
    {
      "midi": 75,
      "hit": false,
      "t": 223754.20169583076,
      "d": 122.86928541664383,
      "v": 51
    },
    {
      "midi": 66,
      "hit": false,
      "t": 223755.62214999742,
      "d": 183.23858750000363,
      "v": 57
    },
    {
      "midi": 60,
      "hit": false,
      "t": 223764.85510208076,
      "d": 181.10790624999208,
      "v": 65
    },
    {
      "midi": 69,
      "hit": false,
      "t": 223769.11646458076,
      "d": 110.79542499998934,
      "v": 52
    },
    {
      "midi": 72,
      "hit": false,
      "t": 223770.5369187474,
      "d": 101.56247291667387,
      "v": 48
    },
    {
      "midi": 59,
      "hit": false,
      "t": 223952.35505208076,
      "d": 78.83520624999073,
      "v": 39
    },
    {
      "midi": 58,
      "hit": false,
      "t": 224007.04253749741,
      "d": 81.67611458332976,
      "v": 58
    },
    {
      "midi": 66,
      "hit": false,
      "t": 224102.21296666408,
      "d": 198.15335624993895,
      "v": 46
    },
    {
      "midi": 72,
      "hit": false,
      "t": 224102.21296666408,
      "d": 213.06812499993248,
      "v": 41
    },
    {
      "midi": 63,
      "hit": false,
      "t": 224106.47432916408,
      "d": 140.6249624999764,
      "v": 39
    },
    {
      "midi": 69,
      "hit": false,
      "t": 224114.99705416407,
      "d": 168.323818749981,
      "v": 36
    },
    {
      "midi": 57,
      "hit": false,
      "t": 224116.41750833072,
      "d": 205.25562708330108,
      "v": 42
    },
    {
      "midi": 78,
      "hit": false,
      "t": 224676.07644999737,
      "d": 185.36926875001518,
      "v": 55
    },
    {
      "midi": 75,
      "hit": false,
      "t": 224681.75826666405,
      "d": 193.89199375000317,
      "v": 48
    },
    {
      "midi": 63,
      "hit": false,
      "t": 224685.30940208072,
      "d": 403.40898333332734,
      "v": 37
    },
    {
      "midi": 72,
      "hit": false,
      "t": 224688.86053749738,
      "d": 147.01700625001104,
      "v": 51
    },
    {
      "midi": 69,
      "hit": false,
      "t": 224698.09348958073,
      "d": 142.04541666666046,
      "v": 34
    },
    {
      "midi": 75,
      "hit": false,
      "t": 225097.9513374974,
      "d": 81.67611458332976,
      "v": 57
    },
    {
      "midi": 72,
      "hit": false,
      "t": 225109.31497083072,
      "d": 43.32385208335472,
      "v": 38
    },
    {
      "midi": 81,
      "hit": false,
      "t": 225118.54792291406,
      "d": 49.00566875000368,
      "v": 33
    },
    {
      "midi": 69,
      "hit": false,
      "t": 225124.93996666407,
      "d": 79.54543333331821,
      "v": 19
    },
    {
      "midi": 78,
      "hit": false,
      "t": 225424.6557958307,
      "d": 276.9885624999879,
      "v": 61
    },
    {
      "midi": 75,
      "hit": false,
      "t": 225431.04783958071,
      "d": 272.0169729166373,
      "v": 57
    },
    {
      "midi": 74,
      "hit": false,
      "t": 225434.59897499738,
      "d": 343.03968124999665,
      "v": 60
    },
    {
      "midi": 86,
      "hit": false,
      "t": 225436.01942916404,
      "d": 247.15902500000084,
      "v": 73
    },
    {
      "midi": 81,
      "hit": false,
      "t": 225452.3546520807,
      "d": 235.08516458331724,
      "v": 42
    },
    {
      "midi": 75,
      "hit": false,
      "t": 225766.27502291402,
      "d": 140.6249625000346,
      "v": 63
    },
    {
      "midi": 78,
      "hit": false,
      "t": 225775.50797499737,
      "d": 139.914735416678,
      "v": 46
    },
    {
      "midi": 84,
      "hit": false,
      "t": 225777.63865624738,
      "d": 112.92610625000088,
      "v": 57
    },
    {
      "midi": 81,
      "hit": false,
      "t": 225784.7409270807,
      "d": 99.43179166666232,
      "v": 44
    },
    {
      "midi": 72,
      "hit": false,
      "t": 225786.16138124737,
      "d": 36.93180833334918,
      "v": 46
    },
    {
      "midi": 44,
      "hit": false,
      "t": 226073.80334999738,
      "d": 240.05675416666782,
      "v": 51
    },
    {
      "midi": 54,
      "hit": false,
      "t": 226076.64425833072,
      "d": 135.65337291665492,
      "v": 45
    },
    {
      "midi": 43,
      "hit": false,
      "t": 226412.58166874736,
      "d": 1254.2610291666642,
      "v": 38
    },
    {
      "midi": 58,
      "hit": false,
      "t": 226433.88848124736,
      "d": 382.1021708333574,
      "v": 55
    },
    {
      "midi": 62,
      "hit": false,
      "t": 226434.59870833068,
      "d": 367.89762916669133,
      "v": 46
    },
    {
      "midi": 53,
      "hit": false,
      "t": 226435.308935414,
      "d": 378.55103541669087,
      "v": 44
    },
    {
      "midi": 55,
      "hit": false,
      "t": 226445.25211458068,
      "d": 337.3578645833477,
      "v": 30
    },
    {
      "midi": 46,
      "hit": false,
      "t": 227017.69514374738,
      "d": 835.9372770833143,
      "v": 18
    },
    {
      "midi": 67,
      "hit": false,
      "t": 227411.16094791403,
      "d": 125.71019374998286,
      "v": 70
    },
    {
      "midi": 50,
      "hit": false,
      "t": 227411.87117499736,
      "d": 97.30111041665077,
      "v": 24
    },
    {
      "midi": 58,
      "hit": false,
      "t": 227418.26321874736,
      "d": 134.94314583332743,
      "v": 77
    },
    {
      "midi": 62,
      "hit": false,
      "t": 227418.9734458307,
      "d": 124.2897395833279,
      "v": 71
    },
    {
      "midi": 55,
      "hit": false,
      "t": 227436.72912291402,
      "d": 371.44876458332874,
      "v": 58
    },
    {
      "midi": 65,
      "hit": false,
      "t": 227443.83139374736,
      "d": 90.90906666664523,
      "v": 39
    },
    {
      "midi": 50,
      "hit": false,
      "t": 227785.4506208307,
      "d": 85.93747708332376,
      "v": 58
    },
    {
      "midi": 62,
      "hit": false,
      "t": 227786.87107499735,
      "d": 265.62492916669,
      "v": 64
    },
    {
      "midi": 70,
      "hit": false,
      "t": 227787.58130208068,
      "d": 303.26696458336664,
      "v": 64
    },
    {
      "midi": 65,
      "hit": false,
      "t": 227793.26311874736,
      "d": 255.68175000001793,
      "v": 60
    },
    {
      "midi": 67,
      "hit": false,
      "t": 227804.6267520807,
      "d": 235.08516458334634,
      "v": 49
    },
    {
      "midi": 58,
      "hit": false,
      "t": 228145.5357520807,
      "d": 330.25559375001467,
      "v": 43
    },
    {
      "midi": 74,
      "hit": false,
      "t": 228468.68907499738,
      "d": 345.8805895833357,
      "v": 65
    },
    {
      "midi": 64,
      "hit": false,
      "t": 228470.8197562474,
      "d": 389.2044416666613,
      "v": 61
    },
    {
      "midi": 67,
      "hit": false,
      "t": 228477.21179999737,
      "d": 355.11354166668025,
      "v": 58
    },
    {
      "midi": 70,
      "hit": false,
      "t": 228477.9220270807,
      "d": 522.0169062500354,
      "v": 53
    },
    {
      "midi": 62,
      "hit": false,
      "t": 228483.60384374738,
      "d": 258.52265833332785,
      "v": 54
    },
    {
      "midi": 59,
      "hit": false,
      "t": 229088.7173187474,
      "d": 53.26703124999767,
      "v": 24
    },
    {
      "midi": 60,
      "hit": false,
      "t": 229128.49003541406,
      "d": 158.38063958333805,
      "v": 53
    },
    {
      "midi": 67,
      "hit": false,
      "t": 229133.46162499738,
      "d": 200.9942645833362,
      "v": 59
    },
    {
      "midi": 72,
      "hit": false,
      "t": 229139.14344166405,
      "d": 179.68745208333712,
      "v": 55
    },
    {
      "midi": 70,
      "hit": false,
      "t": 229141.27412291407,
      "d": 222.30107708330615,
      "v": 37
    },
    {
      "midi": 64,
      "hit": false,
      "t": 229143.40480416405,
      "d": 248.5794791666558,
      "v": 58
    },
    {
      "midi": 61,
      "hit": false,
      "t": 229810.30803541403,
      "d": 1422.5848479167034,
      "v": 42
    },
    {
      "midi": 58,
      "hit": false,
      "t": 229813.14894374736,
      "d": 1320.312147916702,
      "v": 47
    },
    {
      "midi": 67,
      "hit": false,
      "t": 229820.2512145807,
      "d": 1570.3120812500129,
      "v": 44
    },
    {
      "midi": 64,
      "hit": false,
      "t": 229820.96144166403,
      "d": 1543.3234520833648,
      "v": 50
    },
    {
      "midi": 40,
      "hit": false,
      "t": 230046.1034270807,
      "d": 163.35222916665953,
      "v": 54
    },
    {
      "midi": 41,
      "hit": false,
      "t": 230227.92156041402,
      "d": 90.90906666667433,
      "v": 57
    },
    {
      "midi": 42,
      "hit": false,
      "t": 230360.73402499736,
      "d": 70.31248125000275,
      "v": 37
    },
    {
      "midi": 43,
      "hit": false,
      "t": 230459.4555895807,
      "d": 123.57951250000042,
      "v": 33
    },
    {
      "midi": 44,
      "hit": false,
      "t": 230579.48396666403,
      "d": 137.07382708333898,
      "v": 39
    },
    {
      "midi": 45,
      "hit": false,
      "t": 230725.79074583072,
      "d": 68.89202708334778,
      "v": 55
    },
    {
      "midi": 46,
      "hit": false,
      "t": 230834.45548958072,
      "d": 541.9032645833213,
      "v": 67
    },
    {
      "midi": 58,
      "hit": false,
      "t": 231206.6144812474,
      "d": 176.846543749969,
      "v": 44
    },
    {
      "midi": 61,
      "hit": false,
      "t": 231378.48943541406,
      "d": 157.67041249998147,
      "v": 57
    },
    {
      "midi": 64,
      "hit": false,
      "t": 231534.73939374738,
      "d": 134.94314583332743,
      "v": 57
    },
    {
      "midi": 69,
      "hit": false,
      "t": 231727.2109333307,
      "d": 54.687485416652635,
      "v": 29
    },
    {
      "midi": 41,
      "hit": false,
      "t": 231854.34158124734,
      "d": 177.55677083332557,
      "v": 36
    },
    {
      "midi": 48,
      "hit": false,
      "t": 231857.18248958068,
      "d": 213.0681249999907,
      "v": 32
    },
    {
      "midi": 57,
      "hit": false,
      "t": 231862.86430624736,
      "d": 264.2044749999768,
      "v": 42
    },
    {
      "midi": 67,
      "hit": false,
      "t": 231867.83589583068,
      "d": 221.59084999997867,
      "v": 18
    },
    {
      "midi": 64,
      "hit": false,
      "t": 231874.22793958068,
      "d": 176.1363166666415,
      "v": 48
    },
    {
      "midi": 79,
      "hit": false,
      "t": 232560.30730208068,
      "d": 248.5794791666849,
      "v": 71
    },
    {
      "midi": 69,
      "hit": false,
      "t": 232563.85843749734,
      "d": 265.62492916669,
      "v": 78
    },
    {
      "midi": 63,
      "hit": false,
      "t": 232565.98911874735,
      "d": 257.8124312500004,
      "v": 74
    },
    {
      "midi": 74,
      "hit": false,
      "t": 232566.69934583068,
      "d": 229.40334791666828,
      "v": 79
    },
    {
      "midi": 77,
      "hit": false,
      "t": 232914.0003895807,
      "d": 136.3635999999824,
      "v": 67
    },
    {
      "midi": 62,
      "hit": false,
      "t": 232918.2617520807,
      "d": 281.96015208330937,
      "v": 55
    },
    {
      "midi": 67,
      "hit": false,
      "t": 232928.9151583307,
      "d": 185.36926874998608,
      "v": 65
    },
    {
      "midi": 72,
      "hit": false,
      "t": 232933.1765208307,
      "d": 149.85791458332096,
      "v": 61
    },
    {
      "midi": 74,
      "hit": false,
      "t": 233223.65939791402,
      "d": 210.22721666668076,
      "v": 59
    },
    {
      "midi": 68,
      "hit": false,
      "t": 233227.21053333068,
      "d": 264.2044750000059,
      "v": 57
    },
    {
      "midi": 64,
      "hit": false,
      "t": 233235.73325833067,
      "d": 238.63630000001285,
      "v": 49
    },
    {
      "midi": 58,
      "hit": false,
      "t": 233244.96621041402,
      "d": 275.56810833333293,
      "v": 58
    },
    {
      "midi": 72,
      "hit": false,
      "t": 233543.97181249736,
      "d": 115.76701458333991,
      "v": 50
    },
    {
      "midi": 57,
      "hit": false,
      "t": 233558.88658124735,
      "d": 274.85788125000545,
      "v": 49
    },
    {
      "midi": 67,
      "hit": false,
      "t": 233561.7274895807,
      "d": 88.77838541666279,
      "v": 57
    },
    {
      "midi": 62,
      "hit": false,
      "t": 233563.14794374735,
      "d": 139.20450833335053,
      "v": 49
    },
    {
      "midi": 69,
      "hit": false,
      "t": 233852.92059374735,
      "d": 174.00563541665906,
      "v": 56
    },
    {
      "midi": 64,
      "hit": false,
      "t": 233859.31263749735,
      "d": 98.01133749997825,
      "v": 60
    },
    {
      "midi": 60,
      "hit": false,
      "t": 233862.86377291402,
      "d": 136.3635999999824,
      "v": 47
    },
    {
      "midi": 53,
      "hit": false,
      "t": 233872.8069520807,
      "d": 48.29544166664709,
      "v": 33
    },
    {
      "midi": 48,
      "hit": false,
      "t": 234206.61368124734,
      "d": 85.22724999999627,
      "v": 41
    },
    {
      "midi": 64,
      "hit": false,
      "t": 234208.74436249735,
      "d": 215.19880625000224,
      "v": 37
    },
    {
      "midi": 57,
      "hit": false,
      "t": 234244.96594374735,
      "d": 56.1079395833367,
      "v": 19
    },
    {
      "midi": 61,
      "hit": false,
      "t": 234536.86927499736,
      "d": 292.613558333338,
      "v": 49
    },
    {
      "midi": 55,
      "hit": false,
      "t": 234547.52268124736,
      "d": 168.3238187500101,
      "v": 36
    },
    {
      "midi": 46,
      "hit": false,
      "t": 234568.82949374735,
      "d": 215.19880625000224,
      "v": 30
    },
    {
      "midi": 39,
      "hit": false,
      "t": 234572.38062916402,
      "d": 164.0624562500161,
      "v": 37
    },
    {
      "midi": 77,
      "hit": false,
      "t": 235202.3520520807,
      "d": 252.13061458335142,
      "v": 73
    },
    {
      "midi": 55,
      "hit": false,
      "t": 235206.6134145807,
      "d": 294.74423958334955,
      "v": 49
    },
    {
      "midi": 65,
      "hit": false,
      "t": 235207.32364166403,
      "d": 186.78972291669925,
      "v": 60
    },
    {
      "midi": 61,
      "hit": false,
      "t": 235215.84636666405,
      "d": 526.2782687500003,
      "v": 43
    },
    {
      "midi": 72,
      "hit": false,
      "t": 235232.18158958072,
      "d": 185.36926875001518,
      "v": 58
    },
    {
      "midi": 75,
      "hit": false,
      "t": 235536.1587812474,
      "d": 99.43179166666232,
      "v": 60
    },
    {
      "midi": 56,
      "hit": false,
      "t": 235538.2894624974,
      "d": 42.61362499999814,
      "v": 65
    },
    {
      "midi": 63,
      "hit": false,
      "t": 235545.39173333073,
      "d": 50.42612291665864,
      "v": 42
    },
    {
      "midi": 70,
      "hit": false,
      "t": 235549.65309583073,
      "d": 63.210210416669725,
      "v": 51
    },
    {
      "midi": 67,
      "hit": false,
      "t": 235556.75536666406,
      "d": 90.19883958331775,
      "v": 45
    },
    {
      "midi": 72,
      "hit": false,
      "t": 235862.15301249738,
      "d": 235.79539166664472,
      "v": 50
    },
    {
      "midi": 61,
      "hit": false,
      "t": 235866.41437499737,
      "d": 258.52265833329875,
      "v": 68
    },
    {
      "midi": 60,
      "hit": false,
      "t": 235867.1246020807,
      "d": 333.0965020833246,
      "v": 46
    },
    {
      "midi": 65,
      "hit": false,
      "t": 235867.83482916403,
      "d": 273.4374270833214,
      "v": 66
    },
    {
      "midi": 69,
      "hit": false,
      "t": 235886.3007333307,
      "d": 261.3635666666669,
      "v": 40
    },
    {
      "midi": 61,
      "hit": false,
      "t": 236211.58473749735,
      "d": 176.1363166666997,
      "v": 55
    },
    {
      "midi": 70,
      "hit": false,
      "t": 236220.8176895807,
      "d": 106.53406250002445,
      "v": 49
    },
    {
      "midi": 58,
      "hit": false,
      "t": 236226.49950624738,
      "d": 134.94314583335654,
      "v": 54
    },
    {
      "midi": 65,
      "hit": false,
      "t": 236228.6301874974,
      "d": 92.3295208333293,
      "v": 38
    },
    {
      "midi": 61,
      "hit": false,
      "t": 236543.26078541405,
      "d": 232.2442562500073,
      "v": 51
    },
    {
      "midi": 64,
      "hit": false,
      "t": 236553.91419166405,
      "d": 137.78405416666646,
      "v": 53
    },
    {
      "midi": 69,
      "hit": false,
      "t": 236556.7550999974,
      "d": 118.60792291664984,
      "v": 47
    },
    {
      "midi": 57,
      "hit": false,
      "t": 236561.01646249738,
      "d": 93.74997499998426,
      "v": 43
    },
    {
      "midi": 61,
      "hit": false,
      "t": 236876.3572874974,
      "d": 162.64200208333205,
      "v": 47
    },
    {
      "midi": 51,
      "hit": false,
      "t": 236882.03910416408,
      "d": 178.26699791665305,
      "v": 37
    },
    {
      "midi": 39,
      "hit": false,
      "t": 236895.53341874742,
      "d": 178.97722499998054,
      "v": 34
    },
    {
      "midi": 68,
      "hit": false,
      "t": 236896.24364583075,
      "d": 147.01700624998193,
      "v": 38
    },
    {
      "midi": 66,
      "hit": false,
      "t": 237223.6583312474,
      "d": 439.63056458337815,
      "v": 51
    },
    {
      "midi": 62,
      "hit": false,
      "t": 237224.36855833072,
      "d": 397.7271666667075,
      "v": 39
    },
    {
      "midi": 38,
      "hit": false,
      "t": 237230.0503749974,
      "d": 138.49428125002305,
      "v": 43
    },
    {
      "midi": 50,
      "hit": false,
      "t": 237243.54468958074,
      "d": 200.9942645833653,
      "v": 20
    },
    {
      "midi": 64,
      "hit": false,
      "t": 237948.08995624745,
      "d": 427.55670416666544,
      "v": 55
    },
    {
      "midi": 57,
      "hit": false,
      "t": 237953.06154583077,
      "d": 465.9089666666696,
      "v": 39
    },
    {
      "midi": 62,
      "hit": false,
      "t": 237955.19222708078,
      "d": 432.5282937499869,
      "v": 44
    },
    {
      "midi": 50,
      "hit": false,
      "t": 237975.78881249746,
      "d": 1856.533595833258,
      "v": 27
    },
    {
      "midi": 60,
      "hit": false,
      "t": 238679.62385208075,
      "d": 208.8067624999967,
      "v": 44
    },
    {
      "midi": 62,
      "hit": false,
      "t": 238683.88521458075,
      "d": 275.56810833333293,
      "v": 48
    },
    {
      "midi": 57,
      "hit": false,
      "t": 238999.93626666407,
      "d": 193.18176666667568,
      "v": 38
    },
    {
      "midi": 60,
      "hit": false,
      "t": 239233.60097708073,
      "d": 666.1930041666492,
      "v": 51
    },
    {
      "midi": 64,
      "hit": false,
      "t": 239641.27132291405,
      "d": 137.07382708333898,
      "v": 54
    },
    {
      "midi": 66,
      "hit": false,
      "t": 239830.90195416406,
      "d": 166.90336458332604,
      "v": 59
    },
    {
      "midi": 68,
      "hit": false,
      "t": 240043.25985208072,
      "d": 179.68745208333712,
      "v": 56
    },
    {
      "midi": 54,
      "hit": false,
      "t": 240060.30530208073,
      "d": 323.86354999998,
      "v": 32
    },
    {
      "midi": 65,
      "hit": false,
      "t": 240064.56666458072,
      "d": 219.46016874999623,
      "v": 33
    },
    {
      "midi": 60,
      "hit": false,
      "t": 240078.7712062474,
      "d": 248.5794791666558,
      "v": 25
    },
    {
      "midi": 74,
      "hit": false,
      "t": 240507.03813749738,
      "d": 164.7726833333436,
      "v": 36
    },
    {
      "midi": 44,
      "hit": false,
      "t": 240695.24831458073,
      "d": 291.19310416668304,
      "v": 50
    },
    {
      "midi": 65,
      "hit": false,
      "t": 241351.49813958074,
      "d": 459.51692291666404,
      "v": 48
    },
    {
      "midi": 54,
      "hit": false,
      "t": 241355.75950208073,
      "d": 903.4088500000071,
      "v": 37
    },
    {
      "midi": 60,
      "hit": false,
      "t": 241369.9640437474,
      "d": 444.6021541666705,
      "v": 39
    },
    {
      "midi": 81,
      "hit": false,
      "t": 241610.02079791407,
      "d": 124.99996666665538,
      "v": 51
    },
    {
      "midi": 84,
      "hit": false,
      "t": 241819.5377874974,
      "d": 67.47157291666372,
      "v": 57
    },
    {
      "midi": 65,
      "hit": false,
      "t": 242041.83886458073,
      "d": 102.27270000000135,
      "v": 44
    },
    {
      "midi": 60,
      "hit": false,
      "t": 242055.33317916407,
      "d": 159.09086666666553,
      "v": 34
    },
    {
      "midi": 98,
      "hit": false,
      "t": 242063.85590416405,
      "d": 244.3181166666909,
      "v": 79
    },
    {
      "midi": 97,
      "hit": false,
      "t": 242282.60584583075,
      "d": 156.96018541665399,
      "v": 64
    },
    {
      "midi": 96,
      "hit": false,
      "t": 242506.32737708074,
      "d": 179.68745208330802,
      "v": 68
    },
    {
      "midi": 95,
      "hit": false,
      "t": 242722.23641041404,
      "d": 183.9488145833311,
      "v": 62
    },
    {
      "midi": 50,
      "hit": false,
      "t": 242733.60004374737,
      "d": 249.99993333331076,
      "v": 35
    },
    {
      "midi": 43,
      "hit": false,
      "t": 242735.73072499738,
      "d": 203.12494583331863,
      "v": 31
    },
    {
      "midi": 94,
      "hit": false,
      "t": 242967.97498124736,
      "d": 183.23858749997453,
      "v": 62
    },
    {
      "midi": 96,
      "hit": false,
      "t": 243211.58287083067,
      "d": 180.3976791666646,
      "v": 67
    },
    {
      "midi": 58,
      "hit": false,
      "t": 243425.36122291398,
      "d": 147.01700625001104,
      "v": 43
    },
    {
      "midi": 62,
      "hit": false,
      "t": 243428.20213124732,
      "d": 64.63066458332469,
      "v": 27
    },
    {
      "midi": 93,
      "hit": false,
      "t": 243437.43508333067,
      "d": 151.27836874997593,
      "v": 70
    },
    {
      "midi": 55,
      "hit": false,
      "t": 243452.34985208066,
      "d": 161.22154791664798,
      "v": 13
    },
    {
      "midi": 94,
      "hit": false,
      "t": 243633.45775833065,
      "d": 115.76701458333991,
      "v": 60
    },
    {
      "midi": 90,
      "hit": false,
      "t": 243813.145210414,
      "d": 131.39201041666092,
      "v": 60
    },
    {
      "midi": 93,
      "hit": false,
      "t": 243971.52584999733,
      "d": 139.9147354166489,
      "v": 71
    },
    {
      "midi": 43,
      "hit": false,
      "t": 244086.5826374973,
      "d": 105.11360833331128,
      "v": 30
    },
    {
      "midi": 91,
      "hit": false,
      "t": 244123.51444583063,
      "d": 119.31814999997732,
      "v": 55
    },
    {
      "midi": 53,
      "hit": false,
      "t": 244131.3269437473,
      "d": 122.86928541664383,
      "v": 14
    },
    {
      "midi": 86,
      "hit": false,
      "t": 244266.98031666395,
      "d": 89.48861249999027,
      "v": 56
    },
    {
      "midi": 86,
      "hit": false,
      "t": 244423.23027499727,
      "d": 81.67611458332976,
      "v": 53
    },
    {
      "midi": 86,
      "hit": false,
      "t": 244591.55409374728,
      "d": 81.67611458332976,
      "v": 55
    },
    {
      "midi": 62,
      "hit": false,
      "t": 244770.53131874726,
      "d": 167.61359166665352,
      "v": 24
    },
    {
      "midi": 58,
      "hit": false,
      "t": 244779.7642708306,
      "d": 235.79539166664472,
      "v": 32
    },
    {
      "midi": 55,
      "hit": false,
      "t": 244795.38926666393,
      "d": 226.56243958332925,
      "v": 14
    },
    {
      "midi": 86,
      "hit": false,
      "t": 244806.04267291393,
      "d": 181.10790624999208,
      "v": 62
    },
    {
      "midi": 87,
      "hit": false,
      "t": 245029.0539770806,
      "d": 112.92610625000088,
      "v": 38
    },
    {
      "midi": 86,
      "hit": false,
      "t": 245088.00282499727,
      "d": 112.92610625000088,
      "v": 57
    },
    {
      "midi": 84,
      "hit": false,
      "t": 245229.3380145806,
      "d": 80.2556604166748,
      "v": 24
    },
    {
      "midi": 86,
      "hit": false,
      "t": 245353.62775416393,
      "d": 73.86361666666926,
      "v": 57
    },
    {
      "midi": 46,
      "hit": false,
      "t": 245474.3663583306,
      "d": 201.70449166669277,
      "v": 46
    },
    {
      "midi": 56,
      "hit": false,
      "t": 245483.59931041393,
      "d": 237.92607291668537,
      "v": 34
    },
    {
      "midi": 96,
      "hit": false,
      "t": 245539.70724999727,
      "d": 133.52269166667247,
      "v": 58
    },
    {
      "midi": 96,
      "hit": false,
      "t": 245764.84923541395,
      "d": 100.1420187499898,
      "v": 64
    },
    {
      "midi": 94,
      "hit": false,
      "t": 245933.88328124728,
      "d": 81.67611458332976,
      "v": 69
    },
    {
      "midi": 94,
      "hit": false,
      "t": 246102.2070999973,
      "d": 155.53973125002813,
      "v": 56
    },
    {
      "midi": 61,
      "hit": false,
      "t": 246119.2525499973,
      "d": 1276.9882958333474,
      "v": 37
    },
    {
      "midi": 65,
      "hit": false,
      "t": 246135.58777291398,
      "d": 235.08516458334634,
      "v": 36
    },
    {
      "midi": 85,
      "hit": false,
      "t": 246250.644560414,
      "d": 304.6874187499925,
      "v": 43
    },
    {
      "midi": 84,
      "hit": false,
      "t": 246568.116066664,
      "d": 63.920437499997206,
      "v": 45
    },
    {
      "midi": 84,
      "hit": false,
      "t": 246741.41147499732,
      "d": 93.74997499998426,
      "v": 50
    },
    {
      "midi": 65,
      "hit": false,
      "t": 246869.96257708065,
      "d": 276.988562500017,
      "v": 30
    },
    {
      "midi": 89,
      "hit": false,
      "t": 246887.71825416398,
      "d": 96.5908833333524,
      "v": 58
    },
    {
      "midi": 57,
      "hit": false,
      "t": 246889.848935414,
      "d": 360.0851312500017,
      "v": 32
    },
    {
      "midi": 89,
      "hit": false,
      "t": 247051.07048333067,
      "d": 99.43179166666232,
      "v": 59
    },
    {
      "midi": 87,
      "hit": false,
      "t": 247203.76930624733,
      "d": 64.63066458332469,
      "v": 45
    },
    {
      "midi": 87,
      "hit": false,
      "t": 247356.468129164,
      "d": 129.97155624997686,
      "v": 61
    },
    {
      "midi": 85,
      "hit": false,
      "t": 247504.90558958062,
      "d": 128.5511020833219,
      "v": 35
    },
    {
      "midi": 56,
      "hit": false,
      "t": 247505.61581666395,
      "d": 181.81813333329046,
      "v": 42
    },
    {
      "midi": 61,
      "hit": false,
      "t": 247508.4567249973,
      "d": 158.38063958330895,
      "v": 35
    },
    {
      "midi": 65,
      "hit": false,
      "t": 247512.71808749728,
      "d": 109.37497083333437,
      "v": 28
    },
    {
      "midi": 85,
      "hit": false,
      "t": 247668.25781874725,
      "d": 206.67608124998515,
      "v": 21
    },
    {
      "midi": 84,
      "hit": false,
      "t": 247818.11573333057,
      "d": 84.5170229166688,
      "v": 57
    },
    {
      "midi": 83,
      "hit": false,
      "t": 248025.50204166392,
      "d": 41.903397916670656,
      "v": 32
    },
    {
      "midi": 45,
      "hit": false,
      "t": 248151.2122354139,
      "d": 233.66471041666227,
      "v": 46
    },
    {
      "midi": 55,
      "hit": false,
      "t": 248158.31450624723,
      "d": 290.48287708332646,
      "v": 39
    },
    {
      "midi": 81,
      "hit": false,
      "t": 248188.85427083058,
      "d": 342.32945416664006,
      "v": 53
    },
    {
      "midi": 84,
      "hit": false,
      "t": 248616.4109749972,
      "d": 139.20450833332143,
      "v": 76
    },
    {
      "midi": 64,
      "hit": false,
      "t": 248834.45068958055,
      "d": 277.6987895833154,
      "v": 34
    },
    {
      "midi": 57,
      "hit": false,
      "t": 248837.2915979139,
      "d": 860.7952250000089,
      "v": 33
    },
    {
      "midi": 60,
      "hit": false,
      "t": 248856.46772916388,
      "d": 237.92607291665627,
      "v": 33
    },
    {
      "midi": 80,
      "hit": false,
      "t": 248860.72909166387,
      "d": 85.22724999999627,
      "v": 31
    },
    {
      "midi": 81,
      "hit": false,
      "t": 248924.64952916387,
      "d": 68.1817999999912,
      "v": 50
    },
    {
      "midi": 78,
      "hit": false,
      "t": 249096.52448333055,
      "d": 88.0681583333062,
      "v": 56
    },
    {
      "midi": 79,
      "hit": false,
      "t": 249177.49037083052,
      "d": 37.64203541667666,
      "v": 37
    },
    {
      "midi": 75,
      "hit": false,
      "t": 249320.24601458054,
      "d": 100.85224583334639,
      "v": 56
    },
    {
      "midi": 76,
      "hit": false,
      "t": 249392.68917708055,
      "d": 88.77838541666279,
      "v": 62
    },
    {
      "midi": 64,
      "hit": false,
      "t": 249473.65506458055,
      "d": 53.97725833332515,
      "v": 38
    },
    {
      "midi": 72,
      "hit": false,
      "t": 249586.58117083056,
      "d": 119.31815000000643,
      "v": 56
    },
    {
      "midi": 69,
      "hit": false,
      "t": 249749.2231729139,
      "d": 80.96588750000228,
      "v": 51
    },
    {
      "midi": 64,
      "hit": false,
      "t": 249930.33107916388,
      "d": 131.39201041669003,
      "v": 62
    },
    {
      "midi": 55,
      "hit": false,
      "t": 250161.15488124723,
      "d": 367.18740208327654,
      "v": 33
    },
    {
      "midi": 45,
      "hit": false,
      "t": 250163.99578958057,
      "d": 352.272633333283,
      "v": 36
    },
    {
      "midi": 60,
      "hit": false,
      "t": 250168.25715208056,
      "d": 316.0510520832904,
      "v": 32
    },
    {
      "midi": 52,
      "hit": false,
      "t": 250179.6207854139,
      "d": 281.96015208330937,
      "v": 27
    },
    {
      "midi": 44,
      "hit": false,
      "t": 250895.52968541384,
      "d": 199.57381041668123,
      "v": 38
    },
    {
      "midi": 53,
      "hit": false,
      "t": 250919.67740624718,
      "d": 200.2840375000087,
      "v": 19
    },
    {
      "midi": 85,
      "hit": false,
      "t": 251291.83639791387,
      "d": 31.24999166667112,
      "v": 64
    },
    {
      "midi": 86,
      "hit": false,
      "t": 251308.17162083054,
      "d": 97.30111041665077,
      "v": 73
    },
    {
      "midi": 88,
      "hit": false,
      "t": 251321.66593541388,
      "d": 34.09089999998105,
      "v": 45
    },
    {
      "midi": 82,
      "hit": false,
      "t": 251581.60904791387,
      "d": 83.80679583334131,
      "v": 74
    },
    {
      "midi": 62,
      "hit": false,
      "t": 251614.2794937472,
      "d": 73.86361666666926,
      "v": 37
    },
    {
      "midi": 56,
      "hit": false,
      "t": 251634.87607916386,
      "d": 122.86928541667294,
      "v": 35
    },
    {
      "midi": 59,
      "hit": false,
      "t": 251643.39880416385,
      "d": 83.09656875001383,
      "v": 32
    },
    {
      "midi": 83,
      "hit": false,
      "t": 251663.2851624972,
      "d": 63.920437499997206,
      "v": 51
    },
    {
      "midi": 79,
      "hit": false,
      "t": 251855.04647499722,
      "d": 75.28407083332422,
      "v": 66
    },
    {
      "midi": 80,
      "hit": false,
      "t": 251916.12600416387,
      "d": 107.95451666667941,
      "v": 30
    },
    {
      "midi": 77,
      "hit": false,
      "t": 252127.06344791388,
      "d": 104.4033812500129,
      "v": 68
    },
    {
      "midi": 44,
      "hit": false,
      "t": 252310.3020354139,
      "d": 108.664743750036,
      "v": 39
    },
    {
      "midi": 53,
      "hit": false,
      "t": 252326.63725833056,
      "d": 68.89202708334778,
      "v": 27
    },
    {
      "midi": 72,
      "hit": false,
      "t": 252453.05767916393,
      "d": 64.63066458332469,
      "v": 66
    },
    {
      "midi": 67,
      "hit": false,
      "t": 252847.94393749724,
      "d": 56.1079395833367,
      "v": 42
    },
    {
      "midi": 65,
      "hit": false,
      "t": 253009.16548541392,
      "d": 299.00560208334355,
      "v": 47
    },
    {
      "midi": 62,
      "hit": false,
      "t": 253019.1086645806,
      "d": 44.744306250009686,
      "v": 32
    },
    {
      "midi": 56,
      "hit": false,
      "t": 253048.93820208058,
      "d": 86.64770416668034,
      "v": 31
    },
    {
      "midi": 59,
      "hit": false,
      "t": 253051.0688833306,
      "d": 52.55680416667019,
      "v": 24
    },
    {
      "midi": 53,
      "hit": false,
      "t": 253060.30183541393,
      "d": 75.9942979166517,
      "v": 17
    },
    {
      "midi": 50,
      "hit": false,
      "t": 253409.0233333306,
      "d": 191.05108541666414,
      "v": 34
    },
    {
      "midi": 43,
      "hit": false,
      "t": 253649.08008749728,
      "d": 718.7498083333485,
      "v": 38
    },
    {
      "midi": 58,
      "hit": false,
      "t": 253748.51187916394,
      "d": 29.829537499987055,
      "v": 55
    },
    {
      "midi": 60,
      "hit": false,
      "t": 253847.23344374727,
      "d": 40.48294374998659,
      "v": 29
    },
    {
      "midi": 58,
      "hit": false,
      "t": 253891.26752291393,
      "d": 102.98292708332883,
      "v": 52
    },
    {
      "midi": 57,
      "hit": false,
      "t": 254022.6595333306,
      "d": 115.05678750001243,
      "v": 34
    },
    {
      "midi": 58,
      "hit": false,
      "t": 254161.86404166394,
      "d": 34.80112708333763,
      "v": 54
    },
    {
      "midi": 53,
      "hit": false,
      "t": 254301.77877708062,
      "d": 115.05678750001243,
      "v": 26
    },
    {
      "midi": 69,
      "hit": false,
      "t": 254333.73899583062,
      "d": 111.50565208334592,
      "v": 68
    },
    {
      "midi": 66,
      "hit": false,
      "t": 254547.51734791396,
      "d": 73.15338958334178,
      "v": 57
    },
    {
      "midi": 67,
      "hit": false,
      "t": 254720.8127562473,
      "d": 146.30677916665445,
      "v": 64
    },
    {
      "midi": 62,
      "hit": false,
      "t": 254944.53428749728,
      "d": 315.34082499999204,
      "v": 45
    },
    {
      "midi": 58,
      "hit": false,
      "t": 254952.34678541395,
      "d": 68.1817999999912,
      "v": 49
    },
    {
      "midi": 57,
      "hit": false,
      "t": 254966.5513270806,
      "d": 47.58521458331961,
      "v": 31
    },
    {
      "midi": 62,
      "hit": false,
      "t": 255374.9318999973,
      "d": 105.11360833334038,
      "v": 56
    },
    {
      "midi": 50,
      "hit": false,
      "t": 255654.0511437473,
      "d": 222.30107708333526,
      "v": 41
    },
    {
      "midi": 51,
      "hit": false,
      "t": 256129.1930624973,
      "d": 122.86928541667294,
      "v": 48
    },
    {
      "midi": 36,
      "hit": false,
      "t": 256418.9657124973,
      "d": 768.4657041666505,
      "v": 48
    },
    {
      "midi": 48,
      "hit": false,
      "t": 256717.2610874973,
      "d": 181.10790624999208,
      "v": 62
    },
    {
      "midi": 49,
      "hit": false,
      "t": 256939.56216458062,
      "d": 136.3635999999824,
      "v": 60
    },
    {
      "midi": 50,
      "hit": false,
      "t": 257071.6644020806,
      "d": 80.96588750000228,
      "v": 66
    },
    {
      "midi": 51,
      "hit": false,
      "t": 257195.95414166394,
      "d": 79.54543333334732,
      "v": 50
    },
    {
      "midi": 52,
      "hit": false,
      "t": 257301.06774999728,
      "d": 83.80679583334131,
      "v": 58
    },
    {
      "midi": 54,
      "hit": false,
      "t": 257438.85180416395,
      "d": 100.1420187499898,
      "v": 57
    },
    {
      "midi": 55,
      "hit": false,
      "t": 257580.8972208306,
      "d": 81.67611458332976,
      "v": 50
    },
    {
      "midi": 57,
      "hit": false,
      "t": 257712.9994583306,
      "d": 96.59088333332329,
      "v": 62
    },
    {
      "midi": 58,
      "hit": false,
      "t": 257820.95397499725,
      "d": 61.78975624998566,
      "v": 59
    },
    {
      "midi": 60,
      "hit": false,
      "t": 257912.57326874722,
      "d": 82.38634166665724,
      "v": 62
    },
    {
      "midi": 61,
      "hit": false,
      "t": 258029.7607374972,
      "d": 70.31248125000275,
      "v": 51
    },
    {
      "midi": 62,
      "hit": false,
      "t": 258134.87434583055,
      "d": 70.31248124997364,
      "v": 62
    },
    {
      "midi": 58,
      "hit": false,
      "t": 258182.45956041387,
      "d": 396.3067125000234,
      "v": 36
    },
    {
      "midi": 48,
      "hit": false,
      "t": 258249.93113333054,
      "d": 374.99990000002435,
      "v": 14
    },
    {
      "midi": 63,
      "hit": false,
      "t": 258257.7436312472,
      "d": 95.17042916666833,
      "v": 59
    },
    {
      "midi": 64,
      "hit": false,
      "t": 258347.94247083055,
      "d": 104.4033812499838,
      "v": 62
    },
    {
      "midi": 66,
      "hit": false,
      "t": 258468.6810749972,
      "d": 83.09656875001383,
      "v": 48
    },
    {
      "midi": 67,
      "hit": false,
      "t": 258581.60718124724,
      "d": 100.1420187499898,
      "v": 32
    },
    {
      "midi": 68,
      "hit": false,
      "t": 258668.96511249722,
      "d": 41.193170833343174,
      "v": 48
    },
    {
      "midi": 69,
      "hit": false,
      "t": 258746.37986458055,
      "d": 88.0681583333353,
      "v": 17
    },
    {
      "midi": 70,
      "hit": false,
      "t": 258829.47643333056,
      "d": 58.238620833319146,
      "v": 56
    },
    {
      "midi": 71,
      "hit": false,
      "t": 258894.81732499722,
      "d": 78.12497916666325,
      "v": 48
    },
    {
      "midi": 74,
      "hit": false,
      "t": 259019.81729166387,
      "d": 201.70449166666367,
      "v": 64
    },
    {
      "midi": 72,
      "hit": false,
      "t": 259130.61271666386,
      "d": 372.1589916666271,
      "v": 43
    },
    {
      "midi": 41,
      "hit": false,
      "t": 259134.87407916386,
      "d": 262.78402083332185,
      "v": 27
    },
    {
      "midi": 48,
      "hit": false,
      "t": 259144.1070312472,
      "d": 307.52832708330243,
      "v": 41
    },
    {
      "midi": 57,
      "hit": false,
      "t": 259144.81725833053,
      "d": 233.66471041666227,
      "v": 30
    },
    {
      "midi": 60,
      "hit": false,
      "t": 259548.93646874715,
      "d": 384.2328520833107,
      "v": 36
    },
    {
      "midi": 65,
      "hit": false,
      "t": 259837.99889166382,
      "d": 427.55670416660723,
      "v": 44
    },
    {
      "midi": 53,
      "hit": false,
      "t": 259850.7829791638,
      "d": 290.48287708329735,
      "v": 17
    },
    {
      "midi": 57,
      "hit": false,
      "t": 259867.8284291638,
      "d": 134.23291874997085,
      "v": 32
    },
    {
      "midi": 60,
      "hit": false,
      "t": 260200.9249312471,
      "d": 188.2101770833251,
      "v": 46
    },
    {
      "midi": 63,
      "hit": false,
      "t": 260518.39643749708,
      "d": 1243.6076229166938,
      "v": 42
    },
    {
      "midi": 66,
      "hit": false,
      "t": 260520.5271187471,
      "d": 1256.3917104166758,
      "v": 46
    },
    {
      "midi": 60,
      "hit": false,
      "t": 260528.33961666375,
      "d": 1036.9315416666795,
      "v": 35
    },
    {
      "midi": 58,
      "hit": false,
      "t": 260842.2599874971,
      "d": 306.10787291667657,
      "v": 55
    },
    {
      "midi": 57,
      "hit": false,
      "t": 261168.96444583044,
      "d": 344.4601354166516,
      "v": 50
    },
    {
      "midi": 56,
      "hit": false,
      "t": 261509.1632187471,
      "d": 294.74423958334955,
      "v": 56
    },
    {
      "midi": 55,
      "hit": false,
      "t": 261839.4188124971,
      "d": 355.82376875000773,
      "v": 38
    },
    {
      "midi": 58,
      "hit": false,
      "t": 261855.7540354138,
      "d": 213.77835208334727,
      "v": 38
    },
    {
      "midi": 62,
      "hit": false,
      "t": 261872.7994854138,
      "d": 267.04538333334494,
      "v": 29
    },
    {
      "midi": 65,
      "hit": false,
      "t": 261887.00402708046,
      "d": 283.38060624999343,
      "v": 30
    },
    {
      "midi": 43,
      "hit": false,
      "t": 262180.3278124971,
      "d": 65.34089166671038,
      "v": 36
    },
    {
      "midi": 77,
      "hit": false,
      "t": 262546.0947604138,
      "d": 128.5511020834092,
      "v": 43
    },
    {
      "midi": 62,
      "hit": false,
      "t": 262549.6458958305,
      "d": 130.68178333342075,
      "v": 35
    },
    {
      "midi": 70,
      "hit": false,
      "t": 262553.9072583305,
      "d": 100.1420187500189,
      "v": 38
    },
    {
      "midi": 74,
      "hit": false,
      "t": 262557.45839374716,
      "d": 111.50565208337503,
      "v": 46
    },
    {
      "midi": 67,
      "hit": false,
      "t": 262565.27089166385,
      "d": 82.38634166668635,
      "v": 34
    },
    {
      "midi": 81,
      "hit": false,
      "t": 262900.4980749972,
      "d": 155.53973125002813,
      "v": 72
    },
    {
      "midi": 81,
      "hit": false,
      "t": 263238.5661666639,
      "d": 379.26126249990193,
      "v": 58
    },
    {
      "midi": 73,
      "hit": false,
      "t": 263244.95821041387,
      "d": 340.1987729166285,
      "v": 38
    },
    {
      "midi": 70,
      "hit": false,
      "t": 263247.0888916639,
      "d": 302.55673749995185,
      "v": 42
    },
    {
      "midi": 69,
      "hit": false,
      "t": 263255.61161666387,
      "d": 304.6874187499634,
      "v": 37
    },
    {
      "midi": 76,
      "hit": false,
      "t": 263258.4525249972,
      "d": 328.124912499974,
      "v": 48
    },
    {
      "midi": 67,
      "hit": false,
      "t": 263581.60584791383,
      "d": 311.7896895832964,
      "v": 42
    },
    {
      "midi": 76,
      "hit": false,
      "t": 263920.3841666638,
      "d": 553.2668979166774,
      "v": 58
    },
    {
      "midi": 70,
      "hit": false,
      "t": 263922.5148479138,
      "d": 271.30674583336804,
      "v": 53
    },
    {
      "midi": 85,
      "hit": false,
      "t": 263924.6455291638,
      "d": 598.0112041666871,
      "v": 69
    },
    {
      "midi": 80,
      "hit": false,
      "t": 263933.8784812472,
      "d": 541.9032645833213,
      "v": 57
    },
    {
      "midi": 68,
      "hit": false,
      "t": 264252.0602145805,
      "d": 301.8465104166535,
      "v": 38
    },
    {
      "midi": 84,
      "hit": false,
      "t": 264577.34421874717,
      "d": 91.61929374997271,
      "v": 42
    },
    {
      "midi": 69,
      "hit": false,
      "t": 264583.73626249714,
      "d": 316.7612791666179,
      "v": 47
    },
    {
      "midi": 74,
      "hit": false,
      "t": 264590.8385333305,
      "d": 200.2840374999796,
      "v": 46
    },
    {
      "midi": 79,
      "hit": false,
      "t": 264595.8101229138,
      "d": 87.35793125000782,
      "v": 44
    },
    {
      "midi": 81,
      "hit": false,
      "t": 264928.19639791374,
      "d": 49.005668749974575,
      "v": 42
    },
    {
      "midi": 65,
      "hit": false,
      "t": 264929.6168520804,
      "d": 75.28407083329512,
      "v": 47
    },
    {
      "midi": 76,
      "hit": false,
      "t": 264931.7475333304,
      "d": 56.1079395833076,
      "v": 55
    },
    {
      "midi": 72,
      "hit": false,
      "t": 265282.59971249703,
      "d": 223.72153124999022,
      "v": 41
    },
    {
      "midi": 67,
      "hit": false,
      "t": 265286.1508479137,
      "d": 225.85221250000177,
      "v": 53
    },
    {
      "midi": 62,
      "hit": false,
      "t": 265310.298568747,
      "d": 167.61359166668262,
      "v": 19
    },
    {
      "midi": 57,
      "hit": false,
      "t": 265590.12803958036,
      "d": 149.14768749993527,
      "v": 46
    },
    {
      "midi": 72,
      "hit": false,
      "t": 265592.9689479137,
      "d": 155.53973124996992,
      "v": 33
    },
    {
      "midi": 67,
      "hit": false,
      "t": 265599.36099166365,
      "d": 163.35222916665953,
      "v": 37
    },
    {
      "midi": 62,
      "hit": false,
      "t": 265604.33258124697,
      "d": 142.04541666666046,
      "v": 41
    },
    {
      "midi": 72,
      "hit": false,
      "t": 265925.35522291367,
      "d": 171.16472708329093,
      "v": 37
    },
    {
      "midi": 57,
      "hit": false,
      "t": 265927.4859041637,
      "d": 171.8749541665893,
      "v": 40
    },
    {
      "midi": 62,
      "hit": false,
      "t": 265930.326812497,
      "d": 162.64200208330294,
      "v": 44
    },
    {
      "midi": 67,
      "hit": false,
      "t": 265935.2984020803,
      "d": 289.0624229166424,
      "v": 45
    },
    {
      "midi": 64,
      "hit": false,
      "t": 266262.713087497,
      "d": 215.19880625000224,
      "v": 58
    },
    {
      "midi": 59,
      "hit": false,
      "t": 266266.26422291365,
      "d": 292.6135583333671,
      "v": 44
    },
    {
      "midi": 74,
      "hit": false,
      "t": 266270.5255854137,
      "d": 115.76701458333991,
      "v": 44
    },
    {
      "midi": 67,
      "hit": false,
      "t": 266277.627856247,
      "d": 237.92607291665627,
      "v": 19
    },
    {
      "midi": 72,
      "hit": false,
      "t": 266568.11073333037,
      "d": 149.14768749999348,
      "v": 49
    },
    {
      "midi": 62,
      "hit": false,
      "t": 266579.4743666637,
      "d": 150.56814166664844,
      "v": 49
    },
    {
      "midi": 67,
      "hit": false,
      "t": 266586.57663749706,
      "d": 237.21584583329968,
      "v": 36
    },
    {
      "midi": 57,
      "hit": false,
      "t": 266590.1277729137,
      "d": 350.85217916662805,
      "v": 55
    },
    {
      "midi": 74,
      "hit": false,
      "t": 266915.4117770803,
      "d": 124.2897395833279,
      "v": 68
    },
    {
      "midi": 64,
      "hit": false,
      "t": 266923.224274997,
      "d": 93.74997499998426,
      "v": 60
    },
    {
      "midi": 67,
      "hit": false,
      "t": 266929.616318747,
      "d": 96.5908833333524,
      "v": 58
    },
    {
      "midi": 59,
      "hit": false,
      "t": 266937.4288166637,
      "d": 191.76131249999162,
      "v": 53
    },
    {
      "midi": 59,
      "hit": false,
      "t": 267247.7980520803,
      "d": 50.426122916687746,
      "v": 43
    },
    {
      "midi": 75,
      "hit": false,
      "t": 267262.002593747,
      "d": 190.34085833333666,
      "v": 62
    },
    {
      "midi": 60,
      "hit": false,
      "t": 267269.8150916637,
      "d": 196.0226749999565,
      "v": 67
    },
    {
      "midi": 66,
      "hit": false,
      "t": 267273.36622708035,
      "d": 187.49994999996852,
      "v": 49
    },
    {
      "midi": 69,
      "hit": false,
      "t": 267280.4684979137,
      "d": 174.00563541665906,
      "v": 50
    },
    {
      "midi": 72,
      "hit": false,
      "t": 267296.80372083036,
      "d": 200.99426458327798,
      "v": 44
    },
    {
      "midi": 75,
      "hit": false,
      "t": 267582.3150083303,
      "d": 107.95451666670851,
      "v": 60
    },
    {
      "midi": 66,
      "hit": false,
      "t": 267593.67864166363,
      "d": 143.46587083337363,
      "v": 57
    },
    {
      "midi": 60,
      "hit": false,
      "t": 267597.94000416365,
      "d": 164.7726833333727,
      "v": 54
    },
    {
      "midi": 72,
      "hit": false,
      "t": 267601.4911395803,
      "d": 98.72156458336394,
      "v": 34
    },
    {
      "midi": 69,
      "hit": false,
      "t": 267603.62182083033,
      "d": 87.35793125000782,
      "v": 54
    },
    {
      "midi": 59,
      "hit": false,
      "t": 267781.1785916637,
      "d": 56.81816666666418,
      "v": 44
    },
    {
      "midi": 58,
      "hit": false,
      "t": 267832.3149416637,
      "d": 70.31248125003185,
      "v": 47
    },
    {
      "midi": 66,
      "hit": false,
      "t": 267913.9910562471,
      "d": 145.59655208332697,
      "v": 50
    },
    {
      "midi": 63,
      "hit": false,
      "t": 267916.8319645804,
      "d": 150.56814166670665,
      "v": 44
    },
    {
      "midi": 72,
      "hit": false,
      "t": 267928.19559791376,
      "d": 121.44883125001797,
      "v": 20
    },
    {
      "midi": 69,
      "hit": false,
      "t": 267928.9058249971,
      "d": 136.3635999999824,
      "v": 35
    },
    {
      "midi": 57,
      "hit": false,
      "t": 267930.32627916377,
      "d": 130.68178333330434,
      "v": 38
    },
    {
      "midi": 57,
      "hit": false,
      "t": 268224.3602916638,
      "d": 176.846543749969,
      "v": 57
    },
    {
      "midi": 72,
      "hit": false,
      "t": 268237.8546062471,
      "d": 88.06815833336441,
      "v": 46
    },
    {
      "midi": 63,
      "hit": false,
      "t": 268247.08755833044,
      "d": 114.34656041668495,
      "v": 50
    },
    {
      "midi": 66,
      "hit": false,
      "t": 268249.21823958046,
      "d": 113.63633333332837,
      "v": 50
    },
    {
      "midi": 56,
      "hit": false,
      "t": 268404.04774374707,
      "d": 29.829537499987055,
      "v": 35
    },
    {
      "midi": 55,
      "hit": false,
      "t": 268436.71818958037,
      "d": 147.72723333333852,
      "v": 54
    },
    {
      "midi": 63,
      "hit": false,
      "t": 268527.62725624704,
      "d": 90.90906666667433,
      "v": 42
    },
    {
      "midi": 60,
      "hit": false,
      "t": 268529.75793749705,
      "d": 73.15338958334178,
      "v": 50
    },
    {
      "midi": 69,
      "hit": false,
      "t": 268536.149981247,
      "d": 71.73293541668681,
      "v": 36
    },
    {
      "midi": 66,
      "hit": false,
      "t": 268539.7011166637,
      "d": 84.5170229166979,
      "v": 31
    },
    {
      "midi": 54,
      "hit": false,
      "t": 268561.71815624705,
      "d": 28.40908333333209,
      "v": 48
    },
    {
      "midi": 54,
      "hit": false,
      "t": 268716.5476604137,
      "d": 139.9147354166489,
      "v": 56
    },
    {
      "midi": 63,
      "hit": false,
      "t": 268721.51924999704,
      "d": 92.3295208333293,
      "v": 46
    },
    {
      "midi": 69,
      "hit": false,
      "t": 268727.2010666637,
      "d": 66.76134583330713,
      "v": 45
    },
    {
      "midi": 66,
      "hit": false,
      "t": 268729.33174791373,
      "d": 78.83520624996163,
      "v": 37
    },
    {
      "midi": 60,
      "hit": false,
      "t": 268744.95674374705,
      "d": 88.77838541666279,
      "v": 39
    },
    {
      "midi": 52,
      "hit": false,
      "t": 269000.63849374704,
      "d": 36.93180833332008,
      "v": 49
    },
    {
      "midi": 66,
      "hit": false,
      "t": 269018.3941708304,
      "d": 110.79542499996023,
      "v": 48
    },
    {
      "midi": 57,
      "hit": false,
      "t": 269026.91689583036,
      "d": 71.7329354166286,
      "v": 46
    },
    {
      "midi": 63,
      "hit": false,
      "t": 269032.59871249704,
      "d": 110.79542499996023,
      "v": 38
    },
    {
      "midi": 60,
      "hit": false,
      "t": 269040.4112104137,
      "d": 69.60225416667527,
      "v": 53
    },
    {
      "midi": 66,
      "hit": false,
      "t": 269208.73502916365,
      "d": 675.4259562499356,
      "v": 53
    },
    {
      "midi": 63,
      "hit": false,
      "t": 269215.12707291363,
      "d": 681.817999999912,
      "v": 46
    },
    {
      "midi": 51,
      "hit": false,
      "t": 269221.5191166636,
      "d": 250.71016041666735,
      "v": 59
    },
    {
      "midi": 57,
      "hit": false,
      "t": 269222.93957083026,
      "d": 589.4884791666991,
      "v": 54
    },
    {
      "midi": 60,
      "hit": false,
      "t": 269234.3032041636,
      "d": 566.7612124999869,
      "v": 43
    },
    {
      "midi": 50,
      "hit": false,
      "t": 269642.68377708027,
      "d": 149.85791458335007,
      "v": 44
    },
    {
      "midi": 44,
      "hit": false,
      "t": 269845.8087229136,
      "d": 44.74430624995148,
      "v": 42
    },
    {
      "midi": 62,
      "hit": false,
      "t": 270007.0302708302,
      "d": 275.56810833333293,
      "v": 50
    },
    {
      "midi": 58,
      "hit": false,
      "t": 270007.74049791356,
      "d": 272.0169729166664,
      "v": 50
    },
    {
      "midi": 43,
      "hit": false,
      "t": 270017.6836770802,
      "d": 211.64767083333572,
      "v": 45
    },
    {
      "midi": 55,
      "hit": false,
      "t": 270036.1495812469,
      "d": 159.80109374999302,
      "v": 27
    },
    {
      "midi": 62,
      "hit": false,
      "t": 270717.25735416356,
      "d": 126.42042083328124,
      "v": 37
    },
    {
      "midi": 58,
      "hit": false,
      "t": 270734.30280416354,
      "d": 171.8749541666475,
      "v": 38
    },
    {
      "midi": 53,
      "hit": false,
      "t": 270793.9618791635,
      "d": 174.71586250001565,
      "v": 14
    },
    {
      "midi": 62,
      "hit": false,
      "t": 271149.7856479135,
      "d": 101.56247291667387,
      "v": 58
    },
    {
      "midi": 55,
      "hit": false,
      "t": 271418.9617124968,
      "d": 93.03974791662768,
      "v": 27
    },
    {
      "midi": 62,
      "hit": false,
      "t": 271420.3821666635,
      "d": 31.249991666642018,
      "v": 31
    },
    {
      "midi": 67,
      "hit": false,
      "t": 271421.09239374683,
      "d": 156.2499583332683,
      "v": 60
    },
    {
      "midi": 58,
      "hit": false,
      "t": 271423.93330208014,
      "d": 83.8067958332831,
      "v": 36
    },
    {
      "midi": 70,
      "hit": false,
      "t": 271636.2911999968,
      "d": 172.5851812499459,
      "v": 39
    },
    {
      "midi": 74,
      "hit": false,
      "t": 271852.9104604134,
      "d": 99.43179166666232,
      "v": 57
    },
    {
      "midi": 37,
      "hit": false,
      "t": 272054.61495208,
      "d": 83.09656874998473,
      "v": 46
    },
    {
      "midi": 73,
      "hit": false,
      "t": 272111.4331187467,
      "d": 350.85217916668626,
      "v": 57
    },
    {
      "midi": 85,
      "hit": false,
      "t": 272120.66607083,
      "d": 372.1589916666853,
      "v": 53
    },
    {
      "midi": 84,
      "hit": false,
      "t": 272541.8307312467,
      "d": 1022.0167729167151,
      "v": 51
    },
    {
      "midi": 72,
      "hit": false,
      "t": 272555.32504583,
      "d": 1107.2440229167114,
      "v": 39
    },
    {
      "midi": 36,
      "hit": false,
      "t": 272752.76817499666,
      "d": 101.56247291667387,
      "v": 26
    },
    {
      "midi": 52,
      "hit": false,
      "t": 272766.9727166633,
      "d": 167.61359166668262,
      "v": 33
    },
    {
      "midi": 64,
      "hit": false,
      "t": 273423.9327687467,
      "d": 272.0169729166664,
      "v": 44
    },
    {
      "midi": 58,
      "hit": false,
      "t": 273441.68844583,
      "d": 289.0624229166424,
      "v": 38
    },
    {
      "midi": 55,
      "hit": false,
      "t": 273449.5009437467,
      "d": 317.4715062499745,
      "v": 24
    },
    {
      "midi": 60,
      "hit": false,
      "t": 273450.21117083007,
      "d": 242.18743541662116,
      "v": 35
    },
    {
      "midi": 80,
      "hit": false,
      "t": 274103.6200874967,
      "d": 524.8578145832289,
      "v": 61
    },
    {
      "midi": 76,
      "hit": false,
      "t": 274141.2621229134,
      "d": 458.80669583322015,
      "v": 68
    },
    {
      "midi": 64,
      "hit": false,
      "t": 274144.1030312467,
      "d": 135.6533729166258,
      "v": 56
    },
    {
      "midi": 58,
      "hit": false,
      "t": 274145.52348541335,
      "d": 169.74427291663596,
      "v": 51
    },
    {
      "midi": 73,
      "hit": false,
      "t": 274156.17689166334,
      "d": 426.84647708327975,
      "v": 59
    },
    {
      "midi": 78,
      "hit": false,
      "t": 274169.67120624665,
      "d": 569.6021208332968,
      "v": 25
    },
    {
      "midi": 69,
      "hit": false,
      "t": 274226.4893729133,
      "d": 343.03968124999665,
      "v": 11
    },
    {
      "midi": 48,
      "hit": false,
      "t": 274499.21657291334,
      "d": 80.25566041661659,
      "v": 59
    },
    {
      "midi": 81,
      "hit": false,
      "t": 274817.3983062466,
      "d": 326.70445833331905,
      "v": 52
    },
    {
      "midi": 76,
      "hit": false,
      "t": 274846.5176166633,
      "d": 318.89196041662944,
      "v": 70
    },
    {
      "midi": 64,
      "hit": false,
      "t": 274852.1994333299,
      "d": 72.44316249998519,
      "v": 55
    },
    {
      "midi": 58,
      "hit": false,
      "t": 274864.98352082993,
      "d": 93.74997499998426,
      "v": 50
    },
    {
      "midi": 73,
      "hit": false,
      "t": 274873.5062458299,
      "d": 330.96582083334215,
      "v": 34
    },
    {
      "midi": 69,
      "hit": false,
      "t": 274879.1880624966,
      "d": 325.9942312500207,
      "v": 36
    },
    {
      "midi": 56,
      "hit": false,
      "t": 275094.3868687466,
      "d": 28.40908333333209,
      "v": 34
    },
    {
      "midi": 48,
      "hit": false,
      "t": 275177.4834374966,
      "d": 513.4941812499892,
      "v": 57
    },
    {
      "midi": 79,
      "hit": false,
      "t": 275516.2617562466,
      "d": 442.47147291660076,
      "v": 74
    },
    {
      "midi": 76,
      "hit": false,
      "t": 275529.7560708299,
      "d": 418.32375208329177,
      "v": 68
    },
    {
      "midi": 57,
      "hit": false,
      "t": 275536.85834166326,
      "d": 409.0907999999472,
      "v": 62
    },
    {
      "midi": 72,
      "hit": false,
      "t": 275540.4094770799,
      "d": 432.5282937499578,
      "v": 66
    },
    {
      "midi": 67,
      "hit": false,
      "t": 275547.51174791326,
      "d": 445.3123812499689,
      "v": 67
    },
    {
      "midi": 48,
      "hit": false,
      "t": 275854.32984791324,
      "d": 576.7043916666298,
      "v": 66
    },
    {
      "midi": 77,
      "hit": false,
      "t": 276183.87521457986,
      "d": 324.5737770833075,
      "v": 71
    },
    {
      "midi": 57,
      "hit": false,
      "t": 276188.1365770799,
      "d": 395.59648541663773,
      "v": 63
    },
    {
      "midi": 72,
      "hit": false,
      "t": 276196.6593020799,
      "d": 348.0112708333181,
      "v": 70
    },
    {
      "midi": 65,
      "hit": false,
      "t": 276200.21043749654,
      "d": 396.3067124999943,
      "v": 71
    },
    {
      "midi": 60,
      "hit": false,
      "t": 276203.7615729132,
      "d": 198.86358333332464,
      "v": 61
    },
    {
      "midi": 48,
      "hit": false,
      "t": 276546.09102707985,
      "d": 499.28963958326494,
      "v": 73
    },
    {
      "midi": 58,
      "hit": false,
      "t": 276877.7670749965,
      "d": 344.4601354166516,
      "v": 72
    },
    {
      "midi": 72,
      "hit": false,
      "t": 276882.0284374965,
      "d": 377.84080833324697,
      "v": 58
    },
    {
      "midi": 67,
      "hit": false,
      "t": 276885.5795729132,
      "d": 372.8692187499255,
      "v": 76
    },
    {
      "midi": 62,
      "hit": false,
      "t": 276887.00002707983,
      "d": 475.8521458332543,
      "v": 69
    },
    {
      "midi": 48,
      "hit": false,
      "t": 277227.19879999646,
      "d": 408.3805729166488,
      "v": 56
    },
    {
      "midi": 69,
      "hit": false,
      "t": 277556.7441666631,
      "d": 333.8067291667103,
      "v": 57
    },
    {
      "midi": 64,
      "hit": false,
      "t": 277558.8748479131,
      "d": 262.78402083332185,
      "v": 63
    },
    {
      "midi": 60,
      "hit": false,
      "t": 277560.29530207976,
      "d": 267.7556104166433,
      "v": 53
    },
    {
      "midi": 57,
      "hit": false,
      "t": 277562.42598332977,
      "d": 294.74423958332045,
      "v": 50
    },
    {
      "midi": 48,
      "hit": false,
      "t": 277882.7383979131,
      "d": 73.86361666669836,
      "v": 40
    },
    {
      "midi": 61,
      "hit": false,
      "t": 278227.9087604131,
      "d": 553.2668979166192,
      "v": 52
    },
    {
      "midi": 69,
      "hit": false,
      "t": 278232.17012291314,
      "d": 1014.9145020831493,
      "v": 38
    },
    {
      "midi": 65,
      "hit": false,
      "t": 278244.2439833298,
      "d": 475.14191874995595,
      "v": 55
    },
    {
      "midi": 39,
      "hit": false,
      "t": 278245.66443749645,
      "d": 409.0908000000054,
      "v": 37
    },
    {
      "midi": 55,
      "hit": false,
      "t": 278251.34625416313,
      "d": 420.4544333333033,
      "v": 36
    },
    {
      "midi": 57,
      "hit": false,
      "t": 278259.1587520798,
      "d": 421.1646604166017,
      "v": 34
    },
    {
      "midi": 66,
      "hit": false,
      "t": 278261.99966041313,
      "d": 571.0225749999518,
      "v": 27
    },
    {
      "midi": 46,
      "hit": false,
      "t": 278268.3917041631,
      "d": 899.1474874998676,
      "v": 25
    },
    {
      "midi": 61,
      "hit": false,
      "t": 278939.5562979131,
      "d": 214.48857916658744,
      "v": 43
    },
    {
      "midi": 55,
      "hit": false,
      "t": 278942.3972062464,
      "d": 254.97152291657403,
      "v": 33
    },
    {
      "midi": 65,
      "hit": false,
      "t": 278955.8915208297,
      "d": 264.9147020832752,
      "v": 45
    },
    {
      "midi": 61,
      "hit": false,
      "t": 279601.48793957965,
      "d": 316.7612791665597,
      "v": 39
    },
    {
      "midi": 81,
      "hit": false,
      "t": 279612.14134582964,
      "d": 213.06812499993248,
      "v": 71
    },
    {
      "midi": 65,
      "hit": false,
      "t": 279618.5333895796,
      "d": 264.9147020832752,
      "v": 48
    },
    {
      "midi": 55,
      "hit": false,
      "t": 279621.37429791293,
      "d": 889.9145354166976,
      "v": 32
    },
    {
      "midi": 72,
      "hit": false,
      "t": 279622.0845249963,
      "d": 180.3976791666355,
      "v": 68
    },
    {
      "midi": 77,
      "hit": false,
      "t": 279629.8970229129,
      "d": 70.31248124997364,
      "v": 58
    },
    {
      "midi": 77,
      "hit": false,
      "t": 279816.6867458296,
      "d": 33.380672916653566,
      "v": 57
    },
    {
      "midi": 84,
      "hit": false,
      "t": 279993.53328957956,
      "d": 287.64196875004563,
      "v": 79
    },
    {
      "midi": 77,
      "hit": false,
      "t": 279997.0844249962,
      "d": 276.2783354166895,
      "v": 76
    },
    {
      "midi": 81,
      "hit": false,
      "t": 280325.20933749626,
      "d": 311.07946250005625,
      "v": 50
    },
    {
      "midi": 61,
      "hit": false,
      "t": 280328.7604729129,
      "d": 509.2328187500825,
      "v": 42
    },
    {
      "midi": 65,
      "hit": false,
      "t": 280333.02183541295,
      "d": 460.22715000004973,
      "v": 40
    },
    {
      "midi": 72,
      "hit": false,
      "t": 280334.4422895796,
      "d": 117.18746874999488,
      "v": 35
    },
    {
      "midi": 77,
      "hit": false,
      "t": 280507.0274708296,
      "d": 158.38063958339626,
      "v": 56
    },
    {
      "midi": 72,
      "hit": false,
      "t": 280669.669472913,
      "d": 176.846543749969,
      "v": 36
    },
    {
      "midi": 55,
      "hit": false,
      "t": 280687.42514999636,
      "d": 139.9147354166489,
      "v": 30
    },
    {
      "midi": 50,
      "hit": false,
      "t": 281002.055747913,
      "d": 169.0340458333376,
      "v": 51
    },
    {
      "midi": 55,
      "hit": false,
      "t": 281577.33968541306,
      "d": 340.1987729166867,
      "v": 36
    },
    {
      "midi": 64,
      "hit": false,
      "t": 281585.15218332974,
      "d": 291.19310416665394,
      "v": 45
    },
    {
      "midi": 60,
      "hit": false,
      "t": 281612.8510395797,
      "d": 296.874920833332,
      "v": 33
    },
    {
      "midi": 64,
      "hit": false,
      "t": 282265.5497291631,
      "d": 231.53402916667983,
      "v": 52
    },
    {
      "midi": 54,
      "hit": false,
      "t": 282276.9133624965,
      "d": 394.88625833333936,
      "v": 33
    },
    {
      "midi": 60,
      "hit": false,
      "t": 282286.8565416631,
      "d": 291.19310416665394,
      "v": 33
    },
    {
      "midi": 74,
      "hit": false,
      "t": 282671.08939374646,
      "d": 2791.9026645834674,
      "v": 88
    },
    {
      "midi": 64,
      "hit": false,
      "t": 282942.3961395798,
      "d": 72.4431625000434,
      "v": 51
    },
    {
      "midi": 67,
      "hit": false,
      "t": 282946.65750207985,
      "d": 82.38634166668635,
      "v": 47
    },
    {
      "midi": 69,
      "hit": false,
      "t": 282957.31090832985,
      "d": 88.06815833336441,
      "v": 38
    },
    {
      "midi": 62,
      "hit": false,
      "t": 282958.0211354132,
      "d": 86.64770416665124,
      "v": 35
    },
    {
      "midi": 67,
      "hit": false,
      "t": 283221.5153833299,
      "d": 61.07952916668728,
      "v": 36
    },
    {
      "midi": 64,
      "hit": false,
      "t": 283222.93583749654,
      "d": 51.13635000004433,
      "v": 34
    },
    {
      "midi": 69,
      "hit": false,
      "t": 283241.4017416632,
      "d": 61.78975624998566,
      "v": 22
    },
    {
      "midi": 62,
      "hit": false,
      "t": 283244.9528770799,
      "d": 61.07952916662907,
      "v": 30
    },
    {
      "midi": 50,
      "hit": false,
      "t": 283444.5266874965,
      "d": 600.8521124999388,
      "v": 40
    },
    {
      "midi": 62,
      "hit": false,
      "t": 283671.7993541632,
      "d": 44.0340791666531,
      "v": 34
    },
    {
      "midi": 66,
      "hit": false,
      "t": 283671.7993541632,
      "d": 85.93747708329465,
      "v": 33
    },
    {
      "midi": 64,
      "hit": false,
      "t": 283674.6402624965,
      "d": 79.54543333331821,
      "v": 28
    },
    {
      "midi": 68,
      "hit": false,
      "t": 283676.7709437465,
      "d": 108.66474374994868,
      "v": 35
    },
    {
      "midi": 64,
      "hit": false,
      "t": 283920.37883332977,
      "d": 93.03974791668588,
      "v": 43
    },
    {
      "midi": 66,
      "hit": false,
      "t": 283924.6401958298,
      "d": 103.69315416668542,
      "v": 50
    },
    {
      "midi": 68,
      "hit": false,
      "t": 283931.7424666631,
      "d": 112.2158791666734,
      "v": 38
    },
    {
      "midi": 62,
      "hit": false,
      "t": 283949.49814374646,
      "d": 164.0624562500161,
      "v": 32
    },
    {
      "midi": 50,
      "hit": false,
      "t": 284144.1003645798,
      "d": 541.1930375000811,
      "v": 31
    },
    {
      "midi": 64,
      "hit": false,
      "t": 284353.61735416314,
      "d": 123.57951250002952,
      "v": 47
    },
    {
      "midi": 67,
      "hit": false,
      "t": 284359.2991708298,
      "d": 114.34656041668495,
      "v": 40
    },
    {
      "midi": 69,
      "hit": false,
      "t": 284370.6628041632,
      "d": 105.11360833334038,
      "v": 36
    },
    {
      "midi": 62,
      "hit": false,
      "t": 284372.08325832983,
      "d": 72.44316249998519,
      "v": 38
    },
    {
      "midi": 64,
      "hit": false,
      "t": 284580.89002082986,
      "d": 79.54543333337642,
      "v": 38
    },
    {
      "midi": 67,
      "hit": false,
      "t": 284581.6002479132,
      "d": 92.3295208333293,
      "v": 44
    },
    {
      "midi": 69,
      "hit": false,
      "t": 284587.2820645799,
      "d": 94.46020208334085,
      "v": 44
    },
    {
      "midi": 62,
      "hit": false,
      "t": 284598.64569791325,
      "d": 177.55677083332557,
      "v": 45
    },
    {
      "midi": 50,
      "hit": false,
      "t": 284841.5433604132,
      "d": 504.9714562500012,
      "v": 30
    },
    {
      "midi": 68,
      "hit": false,
      "t": 285043.9580791632,
      "d": 86.64770416670945,
      "v": 44
    },
    {
      "midi": 70,
      "hit": false,
      "t": 285044.6683062466,
      "d": 105.11360833334038,
      "v": 48
    },
    {
      "midi": 65,
      "hit": false,
      "t": 285048.21944166324,
      "d": 55.39771250000922,
      "v": 33
    },
    {
      "midi": 62,
      "hit": false,
      "t": 285058.87284791324,
      "d": 76.70452500000829,
      "v": 41
    },
    {
      "midi": 70,
      "hit": false,
      "t": 285268.38983749656,
      "d": 110.79542500001844,
      "v": 37
    },
    {
      "midi": 68,
      "hit": false,
      "t": 285270.5205187466,
      "d": 98.01133750000736,
      "v": 31
    },
    {
      "midi": 62,
      "hit": false,
      "t": 285284.72506041324,
      "d": 142.04541666666046,
      "v": 35
    },
    {
      "midi": 50,
      "hit": false,
      "t": 285497.08295832993,
      "d": 297.5851479166304,
      "v": 35
    },
    {
      "midi": 71,
      "hit": false,
      "t": 285671.79882082995,
      "d": 139.20450833329232,
      "v": 52
    },
    {
      "midi": 62,
      "hit": false,
      "t": 285692.3954062466,
      "d": 382.1021708333865,
      "v": 43
    },
    {
      "midi": 65,
      "hit": false,
      "t": 285709.44085624657,
      "d": 103.69315416668542,
      "v": 25
    },
    {
      "midi": 69,
      "hit": false,
      "t": 285712.99199166324,
      "d": 85.22724999999627,
      "v": 24
    },
    {
      "midi": 65,
      "hit": false,
      "t": 285914.6964833299,
      "d": 51.13635000004433,
      "v": 43
    },
    {
      "midi": 69,
      "hit": false,
      "t": 285927.48057082994,
      "d": 47.58521458337782,
      "v": 35
    },
    {
      "midi": 71,
      "hit": false,
      "t": 285928.1907979133,
      "d": 56.107939583365805,
      "v": 34
    },
    {
      "midi": 50,
      "hit": false,
      "t": 286123.50324582995,
      "d": 39.77271666668821,
      "v": 43
    },
    {
      "midi": 62,
      "hit": false,
      "t": 286337.2815979133,
      "d": 166.90336458338425,
      "v": 44
    },
    {
      "midi": 65,
      "hit": false,
      "t": 286348.64523124666,
      "d": 99.43179166672053,
      "v": 45
    },
    {
      "midi": 72,
      "hit": false,
      "t": 286360.7190916633,
      "d": 114.34656041668495,
      "v": 44
    },
    {
      "midi": 70,
      "hit": false,
      "t": 286361.42931874667,
      "d": 107.24428958335193,
      "v": 49
    },
    {
      "midi": 60,
      "hit": false,
      "t": 286369.24181666336,
      "d": 164.0624562500161,
      "v": 38
    },
    {
      "midi": 58,
      "hit": false,
      "t": 286382.02590416337,
      "d": 173.29540833336068,
      "v": 33
    },
    {
      "midi": 65,
      "hit": false,
      "t": 286578.0485791634,
      "d": 68.1817999999621,
      "v": 45
    },
    {
      "midi": 72,
      "hit": false,
      "t": 286587.99175833,
      "d": 67.47157291666372,
      "v": 29
    },
    {
      "midi": 70,
      "hit": false,
      "t": 286590.83266666334,
      "d": 61.07952916668728,
      "v": 37
    },
    {
      "midi": 43,
      "hit": false,
      "t": 286787.5655687467,
      "d": 167.61359166668262,
      "v": 32
    },
    {
      "midi": 57,
      "hit": false,
      "t": 287025.49164166336,
      "d": 334.51695625006687,
      "v": 58
    },
    {
      "midi": 58,
      "hit": false,
      "t": 287033.30413958005,
      "d": 592.329387500009,
      "v": 56
    },
    {
      "midi": 62,
      "hit": false,
      "t": 287040.4064104134,
      "d": 600.1418854166986,
      "v": 49
    },
    {
      "midi": 65,
      "hit": false,
      "t": 287053.1904979134,
      "d": 607.95438333333,
      "v": 49
    },
    {
      "midi": 56,
      "hit": false,
      "t": 287469.38356874674,
      "d": 222.30107708333526,
      "v": 71
    },
    {
      "midi": 62,
      "hit": false,
      "t": 287748.50281249674,
      "d": 203.83517291664612,
      "v": 48
    },
    {
      "midi": 58,
      "hit": false,
      "t": 287749.2130395801,
      "d": 181.81813333329046,
      "v": 52
    },
    {
      "midi": 55,
      "hit": false,
      "t": 287752.0539479134,
      "d": 328.124912499974,
      "v": 54
    },
    {
      "midi": 65,
      "hit": false,
      "t": 287759.15621874674,
      "d": 218.03971458331216,
      "v": 41
    },
    {
      "midi": 43,
      "hit": false,
      "t": 288156.17315833,
      "d": 382.1021708333865,
      "v": 37
    },
    {
      "midi": 71,
      "hit": false,
      "t": 288411.8549083301,
      "d": 102.27270000003045,
      "v": 61
    },
    {
      "midi": 67,
      "hit": false,
      "t": 288419.66740624676,
      "d": 137.07382708328078,
      "v": 54
    },
    {
      "midi": 55,
      "hit": false,
      "t": 288422.5083145801,
      "d": 202.41471874999115,
      "v": 43
    },
    {
      "midi": 62,
      "hit": false,
      "t": 288423.21854166343,
      "d": 116.47724166663829,
      "v": 62
    },
    {
      "midi": 70,
      "hit": false,
      "t": 288828.0479791634,
      "d": 89.48861250001937,
      "v": 49
    },
    {
      "midi": 43,
      "hit": false,
      "t": 288846.5138833301,
      "d": 75.28407083335333,
      "v": 27
    },
    {
      "midi": 58,
      "hit": false,
      "t": 289062.42291666346,
      "d": 36.22158124996349,
      "v": 60
    },
    {
      "midi": 61,
      "hit": false,
      "t": 289071.6558687468,
      "d": 146.30677916662535,
      "v": 43
    },
    {
      "midi": 69,
      "hit": false,
      "t": 289073.07632291346,
      "d": 283.38060624996433,
      "v": 44
    },
    {
      "midi": 65,
      "hit": false,
      "t": 289083.0195020801,
      "d": 129.97155625000596,
      "v": 50
    },
    {
      "midi": 58,
      "hit": false,
      "t": 289209.43992291344,
      "d": 74.57384374999674,
      "v": 44
    },
    {
      "midi": 61,
      "hit": false,
      "t": 289303.9001249968,
      "d": 100.85224583331728,
      "v": 19
    },
    {
      "midi": 65,
      "hit": false,
      "t": 289318.10466666345,
      "d": 93.03974791662768,
      "v": 32
    },
    {
      "midi": 58,
      "hit": false,
      "t": 289377.7637416634,
      "d": 98.01133750000736,
      "v": 48
    },
    {
      "midi": 61,
      "hit": false,
      "t": 289468.6728083301,
      "d": 117.89769583335146,
      "v": 23
    },
    {
      "midi": 65,
      "hit": false,
      "t": 289509.1557520801,
      "d": 102.98292708338704,
      "v": 29
    },
    {
      "midi": 57,
      "hit": false,
      "t": 289516.9682499968,
      "d": 474.43169166659936,
      "v": 79
    },
    {
      "midi": 58,
      "hit": false,
      "t": 289583.0193687468,
      "d": 86.64770416670945,
      "v": 49
    },
    {
      "midi": 61,
      "hit": false,
      "t": 289679.61025208014,
      "d": 100.85224583331728,
      "v": 27
    },
    {
      "midi": 65,
      "hit": false,
      "t": 289706.5988812468,
      "d": 83.8067958332831,
      "v": 28
    },
    {
      "midi": 58,
      "hit": false,
      "t": 289766.96818333014,
      "d": 92.32952083327109,
      "v": 50
    },
    {
      "midi": 61,
      "hit": false,
      "t": 289864.26929374674,
      "d": 136.3635999999824,
      "v": 25
    },
    {
      "midi": 65,
      "hit": false,
      "t": 289897.6499666634,
      "d": 105.82383541663876,
      "v": 30
    },
    {
      "midi": 58,
      "hit": false,
      "t": 289960.14994999673,
      "d": 103.69315416662721,
      "v": 49
    },
    {
      "midi": 61,
      "hit": false,
      "t": 290052.47947083,
      "d": 139.20450833335053,
      "v": 18
    },
    {
      "midi": 56,
      "hit": false,
      "t": 290056.03060624667,
      "d": 340.9090000001015,
      "v": 55
    },
    {
      "midi": 65,
      "hit": false,
      "t": 290082.30900833005,
      "d": 115.05678749998333,
      "v": 27
    },
    {
      "midi": 58,
      "hit": false,
      "t": 290154.75217083003,
      "d": 101.56247291667387,
      "v": 45
    },
    {
      "midi": 61,
      "hit": false,
      "t": 290257.02487083006,
      "d": 117.18746874999488,
      "v": 21
    },
    {
      "midi": 65,
      "hit": false,
      "t": 290283.3032729134,
      "d": 102.27270000003045,
      "v": 24
    },
    {
      "midi": 58,
      "hit": false,
      "t": 290343.6725749967,
      "d": 105.11360833339859,
      "v": 42
    },
    {
      "midi": 54,
      "hit": false,
      "t": 290373.5021124967,
      "d": 82.38634166674456,
      "v": 38
    },
    {
      "midi": 61,
      "hit": false,
      "t": 290437.42254999676,
      "d": 123.57951249997132,
      "v": 31
    },
    {
      "midi": 55,
      "hit": false,
      "t": 290450.20663749677,
      "d": 670.4543666666141,
      "v": 48
    },
    {
      "midi": 65,
      "hit": false,
      "t": 290476.4850395801,
      "d": 93.03974791662768,
      "v": 24
    },
    {
      "midi": 58,
      "hit": false,
      "t": 290529.04184374673,
      "d": 111.50565208331682,
      "v": 43
    },
    {
      "midi": 61,
      "hit": false,
      "t": 290634.86567916337,
      "d": 51.84657708334271,
      "v": 35
    },
    {
      "midi": 65,
      "hit": false,
      "t": 290685.29180208006,
      "d": 56.81816666666418,
      "v": 24
    },
    {
      "midi": 58,
      "hit": false,
      "t": 290727.90542708006,
      "d": 95.88065624999581,
      "v": 44
    },
    {
      "midi": 61,
      "hit": false,
      "t": 290823.0758562467,
      "d": 111.50565208337503,
      "v": 19
    },
    {
      "midi": 65,
      "hit": false,
      "t": 290859.2974374967,
      "d": 62.49998333334224,
      "v": 24
    },
    {
      "midi": 58,
      "hit": false,
      "t": 290899.0701541634,
      "d": 104.4033812499838,
      "v": 44
    },
    {
      "midi": 61,
      "hit": false,
      "t": 290994.9508104134,
      "d": 118.60792291664984,
      "v": 14
    },
    {
      "midi": 65,
      "hit": false,
      "t": 291025.49057499674,
      "d": 95.88065624999581,
      "v": 30
    },
    {
      "midi": 58,
      "hit": false,
      "t": 291080.1780604134,
      "d": 115.05678749998333,
      "v": 46
    },
    {
      "midi": 49,
      "hit": false,
      "t": 291138.4166812467,
      "d": 379.26126250001835,
      "v": 55
    },
    {
      "midi": 61,
      "hit": false,
      "t": 291179.60985208006,
      "d": 132.1022374999593,
      "v": 44
    },
    {
      "midi": 58,
      "hit": false,
      "t": 291262.70642083004,
      "d": 110.79542500001844,
      "v": 49
    },
    {
      "midi": 61,
      "hit": false,
      "t": 291372.7916187467,
      "d": 320.3124145834008,
      "v": 20
    },
    {
      "midi": 65,
      "hit": false,
      "t": 291391.2575229134,
      "d": 117.18746874999488,
      "v": 36
    },
    {
      "midi": 58,
      "hit": false,
      "t": 291465.8313666634,
      "d": 245.73857083340408,
      "v": 35
    },
    {
      "midi": 52,
      "hit": false,
      "t": 291512.7063541634,
      "d": 287.64196875004563,
      "v": 39
    },
    {
      "midi": 46,
      "hit": false,
      "t": 291663.9847229134,
      "d": 154.82950416672975,
      "v": 53
    },
    {
      "midi": 60,
      "hit": false,
      "t": 291833.0187687468,
      "d": 143.46587083331542,
      "v": 44
    },
    {
      "midi": 45,
      "hit": false,
      "t": 291847.93353749684,
      "d": 257.1022041665856,
      "v": 59
    },
    {
      "midi": 64,
      "hit": false,
      "t": 291849.3539916635,
      "d": 220.1703958332655,
      "v": 57
    },
    {
      "midi": 67,
      "hit": false,
      "t": 291850.77444583015,
      "d": 194.60222083330154,
      "v": 38
    },
    {
      "midi": 55,
      "hit": false,
      "t": 291852.1948999968,
      "d": 285.51128749991767,
      "v": 44
    },
    {
      "midi": 60,
      "hit": false,
      "t": 292021.22894583014,
      "d": 97.30111041659256,
      "v": 27
    },
    {
      "midi": 64,
      "hit": false,
      "t": 292136.28573333006,
      "d": 73.15338958334178,
      "v": 24
    },
    {
      "midi": 67,
      "hit": false,
      "t": 292157.59254583006,
      "d": 55.39771250000922,
      "v": 24
    },
    {
      "midi": 60,
      "hit": false,
      "t": 292213.7004854134,
      "d": 74.57384374999674,
      "v": 33
    },
    {
      "midi": 64,
      "hit": false,
      "t": 292298.21750833007,
      "d": 89.48861250001937,
      "v": 45
    },
    {
      "midi": 67,
      "hit": false,
      "t": 292303.89932499675,
      "d": 95.88065624999581,
      "v": 41
    },
    {
      "midi": 60,
      "hit": false,
      "t": 292377.0527145801,
      "d": 97.30111041665077,
      "v": 35
    },
    {
      "midi": 55,
      "hit": false,
      "t": 292463.70041874674,
      "d": 648.4373270832002,
      "v": 77
    },
    {
      "midi": 64,
      "hit": false,
      "t": 292475.7742791634,
      "d": 73.15338958328357,
      "v": 55
    },
    {
      "midi": 67,
      "hit": false,
      "t": 292485.00723124674,
      "d": 80.96588749991497,
      "v": 53
    },
    {
      "midi": 54,
      "hit": false,
      "t": 292496.37086458004,
      "d": 29.829537499987055,
      "v": 61
    },
    {
      "midi": 60,
      "hit": false,
      "t": 292559.5810749967,
      "d": 89.48861249996116,
      "v": 36
    },
    {
      "midi": 67,
      "hit": false,
      "t": 292652.6208229133,
      "d": 79.54543333337642,
      "v": 53
    },
    {
      "midi": 64,
      "hit": false,
      "t": 292658.30263958,
      "d": 69.60225416667527,
      "v": 46
    },
    {
      "midi": 60,
      "hit": false,
      "t": 292737.13784583,
      "d": 88.77838541666279,
      "v": 39
    },
    {
      "midi": 67,
      "hit": false,
      "t": 292830.1775937467,
      "d": 85.93747708329465,
      "v": 39
    },
    {
      "midi": 64,
      "hit": false,
      "t": 292833.01850208,
      "d": 81.67611458332976,
      "v": 36
    },
    {
      "midi": 60,
      "hit": false,
      "t": 292918.9559791633,
      "d": 83.09656874998473,
      "v": 38
    },
    {
      "midi": 67,
      "hit": false,
      "t": 293005.60368332994,
      "d": 99.43179166666232,
      "v": 44
    },
    {
      "midi": 64,
      "hit": false,
      "t": 293019.8082249966,
      "d": 84.51702291663969,
      "v": 44
    },
    {
      "midi": 50,
      "hit": false,
      "t": 293095.80252291326,
      "d": 54.68748541671084,
      "v": 31
    },
    {
      "midi": 51,
      "hit": false,
      "t": 293101.48433957994,
      "d": 142.75564375013346,
      "v": 46
    },
    {
      "midi": 60,
      "hit": false,
      "t": 293109.29683749663,
      "d": 80.96588750003139,
      "v": 39
    },
    {
      "midi": 67,
      "hit": false,
      "t": 293190.97295208,
      "d": 88.06815833342262,
      "v": 40
    },
    {
      "midi": 64,
      "hit": false,
      "t": 293191.6831791634,
      "d": 71.02270833338844,
      "v": 49
    },
    {
      "midi": 54,
      "hit": false,
      "t": 293192.39340624673,
      "d": 550.4259895834257,
      "v": 73
    },
    {
      "midi": 60,
      "hit": false,
      "t": 293280.4615645801,
      "d": 78.83520625001984,
      "v": 37
    },
    {
      "midi": 67,
      "hit": false,
      "t": 293384.1547187468,
      "d": 53.26703124999767,
      "v": 32
    },
    {
      "midi": 64,
      "hit": false,
      "t": 293399.0694874968,
      "d": 40.48294374998659,
      "v": 22
    },
    {
      "midi": 60,
      "hit": false,
      "t": 293438.84220416343,
      "d": 102.27270000003045,
      "v": 43
    },
    {
      "midi": 64,
      "hit": false,
      "t": 293552.4785374968,
      "d": 51.84657708334271,
      "v": 32
    },
    {
      "midi": 67,
      "hit": false,
      "t": 293556.0296729135,
      "d": 58.238620833319146,
      "v": 22
    },
    {
      "midi": 60,
      "hit": false,
      "t": 293624.9216999968,
      "d": 90.90906666667433,
      "v": 37
    },
    {
      "midi": 64,
      "hit": false,
      "t": 293716.54099374684,
      "d": 99.43179166666232,
      "v": 36
    },
    {
      "midi": 50,
      "hit": false,
      "t": 293759.15461874683,
      "d": 88.06815833336441,
      "v": 38
    },
    {
      "midi": 51,
      "hit": false,
      "t": 293786.8534749968,
      "d": 81.67611458338797,
      "v": 46
    },
    {
      "midi": 60,
      "hit": false,
      "t": 293816.68301249685,
      "d": 80.2556604166748,
      "v": 40
    },
    {
      "midi": 52,
      "hit": false,
      "t": 293858.58641041355,
      "d": 44.0340791666531,
      "v": 36
    },
    {
      "midi": 53,
      "hit": false,
      "t": 293893.38753749686,
      "d": 523.4373604165157,
      "v": 52
    },
    {
      "midi": 64,
      "hit": false,
      "t": 293901.20003541355,
      "d": 97.30111041670898,
      "v": 57
    },
    {
      "midi": 67,
      "hit": false,
      "t": 293908.3023062469,
      "d": 85.22724999999627,
      "v": 37
    },
    {
      "midi": 60,
      "hit": false,
      "t": 293997.7909187469,
      "d": 76.70452500000829,
      "v": 37
    },
    {
      "midi": 64,
      "hit": false,
      "t": 294091.5408937469,
      "d": 100.1420187499607,
      "v": 46
    },
    {
      "midi": 67,
      "hit": false,
      "t": 294114.26816041354,
      "d": 94.46020208328264,
      "v": 22
    },
    {
      "midi": 60,
      "hit": false,
      "t": 294186.7113229135,
      "d": 78.12497916660504,
      "v": 36
    },
    {
      "midi": 50,
      "hit": false,
      "t": 294247.79085208016,
      "d": 142.75564374990063,
      "v": 35
    },
    {
      "midi": 64,
      "hit": false,
      "t": 294276.9101624968,
      "d": 66.76134583330713,
      "v": 47
    },
    {
      "midi": 60,
      "hit": false,
      "t": 294364.26809374674,
      "d": 71.02270833327202,
      "v": 40
    },
    {
      "midi": 43,
      "hit": false,
      "t": 294421.7964874967,
      "d": 1190.3405916666961,
      "v": 38
    },
    {
      "midi": 53,
      "hit": false,
      "t": 294586.56917083,
      "d": 428.2669312499929,
      "v": 48
    },
    {
      "midi": 64,
      "hit": false,
      "t": 294588.69985208,
      "d": 378.55103541666176,
      "v": 44
    },
    {
      "midi": 65,
      "hit": false,
      "t": 294590.1203062467,
      "d": 128.551102083351,
      "v": 48
    },
    {
      "midi": 52,
      "hit": false,
      "t": 294590.83053333004,
      "d": 394.88625833333936,
      "v": 62
    },
    {
      "midi": 56,
      "hit": false,
      "t": 294595.09189583006,
      "d": 406.24989166663727,
      "v": 36
    },
    {
      "midi": 59,
      "hit": false,
      "t": 294598.6430312467,
      "d": 455.9657874999684,
      "v": 41
    },
    {
      "midi": 60,
      "hit": false,
      "t": 294600.77371249674,
      "d": 105.82383541663876,
      "v": 37
    },
    {
      "midi": 63,
      "hit": false,
      "t": 295080.88722083,
      "d": 762.0736604167614,
      "v": 63
    },
    {
      "midi": 53,
      "hit": false,
      "t": 295090.83039999666,
      "d": 692.4714062500861,
      "v": 37
    },
    {
      "midi": 59,
      "hit": false,
      "t": 295096.51221666334,
      "d": 697.4429958334076,
      "v": 25
    },
    {
      "midi": 51,
      "hit": false,
      "t": 295104.32471458,
      "d": 551.8464437500224,
      "v": 57
    },
    {
      "midi": 56,
      "hit": false,
      "t": 295106.45539583004,
      "d": 691.7611791667296,
      "v": 48
    },
    {
      "midi": 43,
      "hit": false,
      "t": 295688.13137708005,
      "d": 63.21021041669883,
      "v": 29
    },
    {
      "midi": 49,
      "hit": false,
      "t": 295706.59728124674,
      "d": 227.27266666677315,
      "v": 48
    },
    {
      "midi": 53,
      "hit": false,
      "t": 295921.7960874968,
      "d": 278.40901666675927,
      "v": 38
    },
    {
      "midi": 56,
      "hit": false,
      "t": 295923.9267687468,
      "d": 311.07946250005625,
      "v": 38
    },
    {
      "midi": 50,
      "hit": false,
      "t": 295931.7392666635,
      "d": 237.92607291671447,
      "v": 48
    },
    {
      "midi": 62,
      "hit": false,
      "t": 295933.15972083015,
      "d": 300.4260562500567,
      "v": 38
    },
    {
      "midi": 59,
      "hit": false,
      "t": 295939.5517645802,
      "d": 288.352195833344,
      "v": 33
    },
    {
      "midi": 65,
      "hit": false,
      "t": 296622.7902187469,
      "d": 213.77835208340548,
      "v": 40
    },
    {
      "midi": 53,
      "hit": false,
      "t": 296627.0515812469,
      "d": 438.2101104166941,
      "v": 32
    },
    {
      "midi": 58,
      "hit": false,
      "t": 296627.76180833025,
      "d": 151.27836875000503,
      "v": 42
    },
    {
      "midi": 55,
      "hit": false,
      "t": 296629.89248958026,
      "d": 108.66474375000689,
      "v": 32
    },
    {
      "midi": 62,
      "hit": false,
      "t": 296636.9947604136,
      "d": 149.14768749999348,
      "v": 32
    },
    {
      "midi": 50,
      "hit": false,
      "t": 297131.3128104136,
      "d": 88.77838541666279,
      "v": 40
    },
    {
      "midi": 73,
      "hit": false,
      "t": 297350.7729791636,
      "d": 337.3578645833768,
      "v": 38
    },
    {
      "midi": 85,
      "hit": false,
      "t": 297351.483206247,
      "d": 371.44876458332874,
      "v": 49
    },
    {
      "midi": 82,
      "hit": false,
      "t": 297374.920699997,
      "d": 1309.6587416665861,
      "v": 37
    },
    {
      "midi": 79,
      "hit": false,
      "t": 297396.93773958035,
      "d": 245.73857083334588,
      "v": 30
    },
    {
      "midi": 86,
      "hit": false,
      "t": 297770.5171854136,
      "d": 764.2043416666565,
      "v": 61
    },
    {
      "midi": 74,
      "hit": false,
      "t": 297773.35809374694,
      "d": 806.8179666666547,
      "v": 41
    },
    {
      "midi": 79,
      "hit": false,
      "t": 297788.98308958026,
      "d": 847.3009104166413,
      "v": 33
    },
    {
      "midi": 58,
      "hit": false,
      "t": 298003.47166874696,
      "d": 68.89202708331868,
      "v": 39
    },
    {
      "midi": 43,
      "hit": false,
      "t": 298468.6704083303,
      "d": 478.69305416662246,
      "v": 33
    },
    {
      "midi": 51,
      "hit": false,
      "t": 298725.06238541356,
      "d": 98.01133750000736,
      "v": 34
    },
    {
      "midi": 85,
      "hit": false,
      "t": 298739.9771541636,
      "d": 650.56800833327,
      "v": 52
    },
    {
      "midi": 82,
      "hit": false,
      "t": 298747.0794249969,
      "d": 618.6077895832714,
      "v": 29
    },
    {
      "midi": 73,
      "hit": false,
      "t": 298749.9203333302,
      "d": 596.5907499999739,
      "v": 31
    },
    {
      "midi": 79,
      "hit": false,
      "t": 298775.48850833025,
      "d": 544.7441729166312,
      "v": 32
    },
    {
      "midi": 79,
      "hit": false,
      "t": 299425.34628958016,
      "d": 253.55106874997728,
      "v": 46
    },
    {
      "midi": 72,
      "hit": false,
      "t": 299426.0565166635,
      "d": 210.93744374997914,
      "v": 50
    },
    {
      "midi": 84,
      "hit": false,
      "t": 299428.18719791353,
      "d": 280.5396979165962,
      "v": 33
    },
    {
      "midi": 43,
      "hit": false,
      "t": 299840.1189062468,
      "d": 186.07949583331356,
      "v": 22
    },
    {
      "midi": 36,
      "hit": false,
      "t": 300070.9427083301,
      "d": 66.05111875006696,
      "v": 40
    },
    {
      "midi": 88,
      "hit": false,
      "t": 300085.85747708014,
      "d": 368.607856250077,
      "v": 47
    },
    {
      "midi": 91,
      "hit": false,
      "t": 300090.11883958016,
      "d": 308.9487812500447,
      "v": 52
    },
    {
      "midi": 79,
      "hit": false,
      "t": 300097.2211104135,
      "d": 429.6873854167061,
      "v": 32
    },
    {
      "midi": 64,
      "hit": false,
      "t": 300697.3629958302,
      "d": 76.70452499995008,
      "v": 37
    },
    {
      "midi": 58,
      "hit": false,
      "t": 300707.30617499683,
      "d": 102.98292708332883,
      "v": 46
    },
    {
      "midi": 60,
      "hit": false,
      "t": 300715.8288999968,
      "d": 49.71589583333116,
      "v": 35
    },
    {
      "midi": 58,
      "hit": false,
      "t": 301399.0673541635,
      "d": 168.3238187500392,
      "v": 27
    },
    {
      "midi": 48,
      "hit": false,
      "t": 301401.1980354135,
      "d": 105.11360833334038,
      "v": 31
    },
    {
      "midi": 68,
      "hit": false,
      "t": 301864.97632083023,
      "d": 254.26129583327565,
      "v": 71
    },
    {
      "midi": 80,
      "hit": false,
      "t": 301867.81722916354,
      "d": 257.81243124994216,
      "v": 69
    },
    {
      "midi": 76,
      "hit": false,
      "t": 301887.7035874969,
      "d": 394.17603124986636,
      "v": 53
    },
    {
      "midi": 61,
      "hit": false,
      "t": 302089.4080791635,
      "d": 73.15338958328357,
      "v": 37
    },
    {
      "midi": 64,
      "hit": false,
      "t": 302097.9308041635,
      "d": 38.35226249997504,
      "v": 36
    },
    {
      "midi": 58,
      "hit": false,
      "t": 302104.3228479135,
      "d": 71.7329354166286,
      "v": 45
    },
    {
      "midi": 69,
      "hit": false,
      "t": 302181.7375999968,
      "d": 85.93747708329465,
      "v": 47
    },
    {
      "midi": 81,
      "hit": false,
      "t": 302183.15805416345,
      "d": 137.78405416663736,
      "v": 44
    },
    {
      "midi": 86,
      "hit": false,
      "t": 302592.2488541634,
      "d": 215.19880624994403,
      "v": 78
    },
    {
      "midi": 74,
      "hit": false,
      "t": 302605.7431687467,
      "d": 243.60788958327612,
      "v": 76
    },
    {
      "midi": 41,
      "hit": false,
      "t": 302784.7203937467,
      "d": 156.96018541662488,
      "v": 35
    },
    {
      "midi": 48,
      "hit": false,
      "t": 302797.5044812467,
      "d": 228.6931208332535,
      "v": 49
    },
    {
      "midi": 57,
      "hit": false,
      "t": 302808.86811458,
      "d": 262.07379374996526,
      "v": 46
    },
    {
      "midi": 84,
      "hit": false,
      "t": 302961.56693749665,
      "d": 107.9545166666503,
      "v": 53
    },
    {
      "midi": 72,
      "hit": false,
      "t": 302978.6123874966,
      "d": 136.3635999999824,
      "v": 54
    },
    {
      "midi": 64,
      "hit": false,
      "t": 303463.6974854133,
      "d": 132.1022374999593,
      "v": 50
    },
    {
      "midi": 60,
      "hit": false,
      "t": 303492.1065687466,
      "d": 114.34656041662674,
      "v": 25
    },
    {
      "midi": 81,
      "hit": false,
      "t": 303494.23724999663,
      "d": 83.8067958332831,
      "v": 37
    },
    {
      "midi": 69,
      "hit": false,
      "t": 303498.4986124966,
      "d": 82.38634166662814,
      "v": 38
    },
    {
      "midi": 76,
      "hit": false,
      "t": 303499.20883957995,
      "d": 78.83520624996163,
      "v": 46
    },
    {
      "midi": 57,
      "hit": false,
      "t": 303519.8054249966,
      "d": 80.96588749997318,
      "v": 24
    },
    {
      "midi": 60,
      "hit": false,
      "t": 304113.5552666632,
      "d": 48.2954416666762,
      "v": 36
    },
    {
      "midi": 72,
      "hit": false,
      "t": 304129.8904895799,
      "d": 156.2499583333265,
      "v": 46
    },
    {
      "midi": 62,
      "hit": false,
      "t": 304132.7313979132,
      "d": 170.45449999999255,
      "v": 41
    },
    {
      "midi": 74,
      "hit": false,
      "t": 304136.28253332985,
      "d": 178.26699791668216,
      "v": 44
    },
    {
      "midi": 69,
      "hit": false,
      "t": 304138.41321457986,
      "d": 140.6249625000055,
      "v": 51
    },
    {
      "midi": 65,
      "hit": false,
      "t": 304143.3848041632,
      "d": 137.07382708333898,
      "v": 46
    },
    {
      "midi": 60,
      "hit": false,
      "t": 304362.13474582986,
      "d": 117.89769583335146,
      "v": 27
    },
    {
      "midi": 74,
      "hit": false,
      "t": 304492.8165291632,
      "d": 122.15905833337456,
      "v": 62
    },
    {
      "midi": 65,
      "hit": false,
      "t": 304509.8619791632,
      "d": 164.06245625007432,
      "v": 44
    },
    {
      "midi": 69,
      "hit": false,
      "t": 304512.7028874965,
      "d": 98.01133750006557,
      "v": 49
    },
    {
      "midi": 72,
      "hit": false,
      "t": 304516.9642499965,
      "d": 85.93747708335286,
      "v": 40
    },
    {
      "midi": 57,
      "hit": false,
      "t": 304825.91303124663,
      "d": 121.44883124995977,
      "v": 56
    },
    {
      "midi": 69,
      "hit": false,
      "t": 304830.88462082995,
      "d": 88.0681583333062,
      "v": 51
    },
    {
      "midi": 72,
      "hit": false,
      "t": 304833.72552916326,
      "d": 91.61929374997271,
      "v": 41
    },
    {
      "midi": 62,
      "hit": false,
      "t": 304852.90166041325,
      "d": 49.71589583333116,
      "v": 27
    },
    {
      "midi": 66,
      "hit": false,
      "t": 305121.36749791325,
      "d": 191.05108541669324,
      "v": 35
    },
    {
      "midi": 63,
      "hit": false,
      "t": 305123.49817916326,
      "d": 218.74994166666875,
      "v": 40
    },
    {
      "midi": 60,
      "hit": false,
      "t": 305127.0493145799,
      "d": 161.93177500000456,
      "v": 39
    },
    {
      "midi": 69,
      "hit": false,
      "t": 305130.6004499966,
      "d": 163.35222916665953,
      "v": 41
    },
    {
      "midi": 54,
      "hit": false,
      "t": 305132.02090416325,
      "d": 115.76701458333991,
      "v": 49
    },
    {
      "midi": 58,
      "hit": false,
      "t": 305481.4526291632,
      "d": 331.67604791675694,
      "v": 55
    },
    {
      "midi": 43,
      "hit": false,
      "t": 305496.36739791324,
      "d": 894.8861250001355,
      "v": 26
    },
    {
      "midi": 62,
      "hit": false,
      "t": 305497.0776249966,
      "d": 287.64196875004563,
      "v": 36
    },
    {
      "midi": 65,
      "hit": false,
      "t": 305497.78785207996,
      "d": 296.1646937500336,
      "v": 44
    },
    {
      "midi": 53,
      "hit": false,
      "t": 305516.96398332994,
      "d": 291.19310416671215,
      "v": 20
    },
    {
      "midi": 62,
      "hit": false,
      "t": 306166.1115374967,
      "d": 230.11357500002487,
      "v": 35
    },
    {
      "midi": 58,
      "hit": false,
      "t": 306173.21380833,
      "d": 226.56243958335835,
      "v": 37
    },
    {
      "midi": 57,
      "hit": false,
      "t": 306175.34448958,
      "d": 191.05108541669324,
      "v": 41
    },
    {
      "midi": 53,
      "hit": false,
      "t": 306181.0263062467,
      "d": 267.7556104166433,
      "v": 17
    },
    {
      "midi": 43,
      "hit": false,
      "t": 306527.61712291336,
      "d": 71.02270833333023,
      "v": 53
    },
    {
      "midi": 58,
      "hit": false,
      "t": 306835.85567708005,
      "d": 320.3124145832844,
      "v": 72
    },
    {
      "midi": 68,
      "hit": false,
      "t": 306837.2761312467,
      "d": 350.14195208327146,
      "v": 78
    },
    {
      "midi": 72,
      "hit": false,
      "t": 306838.69658541336,
      "d": 365.0567208332941,
      "v": 72
    },
    {
      "midi": 64,
      "hit": false,
      "t": 306839.4068124967,
      "d": 328.8351395832724,
      "v": 92
    },
    {
      "midi": 74,
      "hit": false,
      "t": 307534.71912708,
      "d": 395.59648541669594,
      "v": 74
    },
    {
      "midi": 68,
      "hit": false,
      "t": 307536.84980833,
      "d": 623.5793791667093,
      "v": 78
    },
    {
      "midi": 58,
      "hit": false,
      "t": 307538.98048958,
      "d": 639.2043750000303,
      "v": 71
    },
    {
      "midi": 64,
      "hit": false,
      "t": 307541.8213979133,
      "d": 342.32945416669827,
      "v": 80
    },
    {
      "midi": 72,
      "hit": false,
      "t": 308235.0030312467,
      "d": 301.1362833333551,
      "v": 53
    },
    {
      "midi": 67,
      "hit": false,
      "t": 308239.97462083003,
      "d": 294.74423958337866,
      "v": 60
    },
    {
      "midi": 62,
      "hit": false,
      "t": 308240.6848479134,
      "d": 355.82376875000773,
      "v": 54
    },
    {
      "midi": 57,
      "hit": false,
      "t": 308244.23598333006,
      "d": 192.4715395833482,
      "v": 57
    },
    {
      "midi": 41,
      "hit": false,
      "t": 308885.57103958004,
      "d": 526.2782687500003,
      "v": 88
    },
    {
      "midi": 60,
      "hit": false,
      "t": 309589.40607916337,
      "d": 419.03397916670656,
      "v": 52
    },
    {
      "midi": 52,
      "hit": false,
      "t": 309597.9288041634,
      "d": 461.6476041666465,
      "v": 56
    },
    {
      "midi": 41,
      "hit": false,
      "t": 309600.7697124967,
      "d": 627.1305145833758,
      "v": 57
    },
    {
      "midi": 55,
      "hit": false,
      "t": 309601.4799395801,
      "d": 460.2271499999915,
      "v": 45
    },
    {
      "midi": 48,
      "hit": false,
      "t": 309607.87198333006,
      "d": 580.2555270833545,
      "v": 53
    },
    {
      "midi": 57,
      "hit": false,
      "t": 309609.2924374967,
      "d": 467.32942083338276,
      "v": 56
    },
    {
      "midi": 62,
      "hit": false,
      "t": 310632.0194374968,
      "d": 96.59088333329419,
      "v": 50
    },
    {
      "midi": 41,
      "hit": false,
      "t": 310633.43989166344,
      "d": 71.7329354166286,
      "v": 35
    },
    {
      "midi": 57,
      "hit": false,
      "t": 310650.4853416634,
      "d": 197.44312916666968,
      "v": 55
    },
    {
      "midi": 53,
      "hit": false,
      "t": 310656.8773854134,
      "d": 86.64770416670945,
      "v": 36
    },
    {
      "midi": 63,
      "hit": false,
      "t": 310981.4511624967,
      "d": 292.6135583331925,
      "v": 54
    },
    {
      "midi": 38,
      "hit": false,
      "t": 310986.42275208,
      "d": 231.5340291665634,
      "v": 37
    },
    {
      "midi": 54,
      "hit": false,
      "t": 310989.26366041333,
      "d": 191.05108541663503,
      "v": 44
    },
    {
      "midi": 57,
      "hit": false,
      "t": 310996.36593124666,
      "d": 193.89199374994496,
      "v": 49
    },
    {
      "midi": 48,
      "hit": false,
      "t": 310997.7863854133,
      "d": 255.68174999993062,
      "v": 31
    },
    {
      "midi": 60,
      "hit": false,
      "t": 311018.38297082996,
      "d": 218.03971458331216,
      "v": 31
    },
    {
      "midi": 63,
      "hit": false,
      "t": 311663.9793895799,
      "d": 485.0850979167153,
      "v": 42
    },
    {
      "midi": 57,
      "hit": false,
      "t": 311668.24075207993,
      "d": 97.30111041670898,
      "v": 37
    },
    {
      "midi": 66,
      "hit": false,
      "t": 311671.7918874966,
      "d": 529.1191770833684,
      "v": 39
    },
    {
      "midi": 69,
      "hit": false,
      "t": 311679.6043854133,
      "d": 508.5225916666677,
      "v": 38
    },
    {
      "midi": 62,
      "hit": false,
      "t": 312010.57020624663,
      "d": 715.9088999999803,
      "v": 64
    },
    {
      "midi": 63,
      "hit": false,
      "t": 312354.32011458,
      "d": 482.24418958328897,
      "v": 50
    },
    {
      "midi": 66,
      "hit": false,
      "t": 312364.2632937466,
      "d": 498.5794125000248,
      "v": 40
    },
    {
      "midi": 69,
      "hit": false,
      "t": 312376.3371541633,
      "d": 482.2441895833472,
      "v": 34
    },
    {
      "midi": 60,
      "hit": false,
      "t": 312701.62115832994,
      "d": 674.005502083397,
      "v": 82
    },
    {
      "midi": 63,
      "hit": false,
      "t": 313032.58697916334,
      "d": 416.1930708333384,
      "v": 42
    },
    {
      "midi": 66,
      "hit": false,
      "t": 313039.6892499967,
      "d": 469.4601020833361,
      "v": 46
    },
    {
      "midi": 69,
      "hit": false,
      "t": 313056.02447291336,
      "d": 417.6135249999934,
      "v": 32
    },
    {
      "midi": 57,
      "hit": false,
      "t": 313381.30847708,
      "d": 316.7612791666761,
      "v": 63
    },
    {
      "midi": 65,
      "hit": false,
      "t": 313727.8992937467,
      "d": 379.97148958337493,
      "v": 53
    },
    {
      "midi": 70,
      "hit": false,
      "t": 313729.31974791334,
      "d": 385.653306250053,
      "v": 51
    },
    {
      "midi": 67,
      "hit": false,
      "t": 313737.13224583,
      "d": 350.85217916668626,
      "v": 44
    },
    {
      "midi": 58,
      "hit": false,
      "t": 313737.8424729134,
      "d": 157.67041249998147,
      "v": 49
    },
    {
      "midi": 50,
      "hit": false,
      "t": 314090.1151062467,
      "d": 597.3009770833887,
      "v": 58
    },
    {
      "midi": 58,
      "hit": false,
      "t": 314423.92183541344,
      "d": 254.26129583333386,
      "v": 50
    },
    {
      "midi": 62,
      "hit": false,
      "t": 314443.0979666634,
      "d": 286.22151458333246,
      "v": 42
    },
    {
      "midi": 65,
      "hit": false,
      "t": 314459.4331895801,
      "d": 293.3237854166655,
      "v": 37
    },
    {
      "midi": 55,
      "hit": false,
      "t": 314732.8706166634,
      "d": 617.1873354166746,
      "v": 62
    },
    {
      "midi": 67,
      "hit": false,
      "t": 315061.70575624675,
      "d": 417.6135249999934,
      "v": 65
    },
    {
      "midi": 62,
      "hit": false,
      "t": 315065.2568916634,
      "d": 287.6419687499874,
      "v": 56
    },
    {
      "midi": 58,
      "hit": false,
      "t": 315386.9897604134,
      "d": 240.7669812500244,
      "v": 83
    },
    {
      "midi": 62,
      "hit": false,
      "t": 315710.14308333007,
      "d": 348.7214979167329,
      "v": 83
    },
    {
      "midi": 70,
      "hit": false,
      "t": 315722.2169437467,
      "d": 424.7157958334428,
      "v": 76
    },
    {
      "midi": 74,
      "hit": false,
      "t": 315726.47830624675,
      "d": 401.9885291667306,
      "v": 75
    },
    {
      "midi": 67,
      "hit": false,
      "t": 315727.1885333301,
      "d": 372.1589916666853,
      "v": 80
    },
    {
      "midi": 61,
      "hit": false,
      "t": 316049.63162916346,
      "d": 287.64196875004563,
      "v": 62
    },
    {
      "midi": 60,
      "hit": false,
      "t": 316368.52358958015,
      "d": 73.15338958334178,
      "v": 57
    },
    {
      "midi": 68,
      "hit": false,
      "t": 316382.01790416345,
      "d": 426.1362500000396,
      "v": 53
    },
    {
      "midi": 72,
      "hit": false,
      "t": 316393.3815374968,
      "d": 428.9771583333495,
      "v": 41
    },
    {
      "midi": 64,
      "hit": false,
      "t": 316401.1940354135,
      "d": 319.60218749998603,
      "v": 36
    },
    {
      "midi": 36,
      "hit": false,
      "t": 316754.8871229135,
      "d": 159.80109374999302,
      "v": 74
    },
    {
      "midi": 36,
      "hit": false,
      "t": 317087.2733979135,
      "d": 61.07952916668728,
      "v": 75
    },
    {
      "midi": 80,
      "hit": false,
      "t": 317453.0403458302,
      "d": 237.92607291665627,
      "v": 71
    },
    {
      "midi": 68,
      "hit": false,
      "t": 317462.27329791355,
      "d": 220.1703958333237,
      "v": 77
    },
    {
      "midi": 58,
      "hit": false,
      "t": 317464.40397916356,
      "d": 257.1022041666438,
      "v": 75
    },
    {
      "midi": 64,
      "hit": false,
      "t": 317465.8244333302,
      "d": 243.60788958333433,
      "v": 76
    },
    {
      "midi": 73,
      "hit": false,
      "t": 317468.6653416635,
      "d": 232.9544833333348,
      "v": 56
    },
    {
      "midi": 76,
      "hit": false,
      "t": 317483.58011041355,
      "d": 261.3635666666669,
      "v": 45
    },
    {
      "midi": 64,
      "hit": false,
      "t": 317789.6879833302,
      "d": 43.32385208335472,
      "v": 54
    },
    {
      "midi": 58,
      "hit": false,
      "t": 317793.94934583025,
      "d": 82.38634166668635,
      "v": 56
    },
    {
      "midi": 73,
      "hit": false,
      "t": 317800.3413895802,
      "d": 326.70445833337726,
      "v": 49
    },
    {
      "midi": 80,
      "hit": false,
      "t": 317801.7618437469,
      "d": 368.607856250077,
      "v": 60
    },
    {
      "midi": 68,
      "hit": false,
      "t": 317807.44366041356,
      "d": 301.1362833334133,
      "v": 56
    },
    {
      "midi": 76,
      "hit": false,
      "t": 317808.1538874969,
      "d": 324.5737770833657,
      "v": 38
    },
    {
      "midi": 36,
      "hit": false,
      "t": 318124.2049395803,
      "d": 53.26703124999767,
      "v": 69
    },
    {
      "midi": 81,
      "hit": false,
      "t": 318477.8980270803,
      "d": 624.2896062499494,
      "v": 60
    },
    {
      "midi": 73,
      "hit": false,
      "t": 318482.8696166636,
      "d": 645.5964187499485,
      "v": 46
    },
    {
      "midi": 76,
      "hit": false,
      "t": 318487.8412062469,
      "d": 613.6361999999499,
      "v": 56
    },
    {
      "midi": 58,
      "hit": false,
      "t": 318489.2616604136,
      "d": 556.1078062499873,
      "v": 60
    },
    {
      "midi": 69,
      "hit": false,
      "t": 318491.3923416636,
      "d": 606.5339291666169,
      "v": 57
    },
    {
      "midi": 64,
      "hit": false,
      "t": 318492.81279583025,
      "d": 430.39761250000447,
      "v": 60
    },
    {
      "midi": 64,
      "hit": false,
      "t": 320135.5680395802,
      "d": 224.4317583333468,
      "v": 54
    },
    {
      "midi": 79,
      "hit": false,
      "t": 320142.6703104135,
      "d": 206.67608125001425,
      "v": 71
    },
    {
      "midi": 69,
      "hit": false,
      "t": 320149.77258124686,
      "d": 222.30107708333526,
      "v": 67
    },
    {
      "midi": 74,
      "hit": false,
      "t": 320150.4828083302,
      "d": 206.67608125001425,
      "v": 71
    },
    {
      "midi": 62,
      "hit": false,
      "t": 320460.1418166635,
      "d": 36.93180833332008,
      "v": 43
    },
    {
      "midi": 77,
      "hit": false,
      "t": 320462.9827249968,
      "d": 61.78975624998566,
      "v": 62
    },
    {
      "midi": 72,
      "hit": false,
      "t": 320482.1588562468,
      "d": 34.09090000001015,
      "v": 50
    },
    {
      "midi": 74,
      "hit": false,
      "t": 320806.0224062468,
      "d": 180.3976791666937,
      "v": 50
    },
    {
      "midi": 68,
      "hit": false,
      "t": 320814.5451312468,
      "d": 263.49424791673664,
      "v": 50
    },
    {
      "midi": 58,
      "hit": false,
      "t": 320822.3576291635,
      "d": 278.40901666670106,
      "v": 51
    },
    {
      "midi": 64,
      "hit": false,
      "t": 320824.4883104135,
      "d": 204.5454000000027,
      "v": 51
    },
    {
      "midi": 72,
      "hit": false,
      "t": 321119.2325499969,
      "d": 41.90339791669976,
      "v": 53
    },
    {
      "midi": 62,
      "hit": false,
      "t": 321127.75527499686,
      "d": 63.920437500055414,
      "v": 45
    },
    {
      "midi": 57,
      "hit": false,
      "t": 321132.0166374969,
      "d": 89.48861250001937,
      "v": 47
    },
    {
      "midi": 67,
      "hit": false,
      "t": 321141.2495895802,
      "d": 35.511354166665114,
      "v": 41
    },
    {
      "midi": 69,
      "hit": false,
      "t": 321468.6642749969,
      "d": 83.09656874992652,
      "v": 49
    },
    {
      "midi": 64,
      "hit": false,
      "t": 321469.37450208026,
      "d": 61.78975624992745,
      "v": 56
    },
    {
      "midi": 60,
      "hit": false,
      "t": 321484.2892708302,
      "d": 66.05111874995055,
      "v": 38
    },
    {
      "midi": 53,
      "hit": false,
      "t": 321489.26086041355,
      "d": 47.58521458331961,
      "v": 32
    },
    {
      "midi": 67,
      "hit": false,
      "t": 321802.4710041635,
      "d": 190.34085833333666,
      "v": 49
    },
    {
      "midi": 61,
      "hit": false,
      "t": 321806.02213958016,
      "d": 180.3976791666937,
      "v": 53
    },
    {
      "midi": 55,
      "hit": false,
      "t": 321821.6471354135,
      "d": 141.33518958336208,
      "v": 33
    },
    {
      "midi": 40,
      "hit": false,
      "t": 321834.4312229135,
      "d": 64.63066458335379,
      "v": 28
    },
    {
      "midi": 55,
      "hit": false,
      "t": 322196.6470354135,
      "d": 163.35222916671773,
      "v": 40
    },
    {
      "midi": 60,
      "hit": false,
      "t": 322200.9083979135,
      "d": 139.20450833335053,
      "v": 46
    },
    {
      "midi": 67,
      "hit": false,
      "t": 322208.7208958302,
      "d": 159.80109375005122,
      "v": 26
    },
    {
      "midi": 39,
      "hit": false,
      "t": 322217.95384791354,
      "d": 138.49428124999395,
      "v": 40
    },
    {
      "midi": 46,
      "hit": false,
      "t": 322221.5049833302,
      "d": 139.20450833335053,
      "v": 33
    },
    {
      "midi": 61,
      "hit": false,
      "t": 322539.6867166636,
      "d": 425.426022916683,
      "v": 34
    },
    {
      "midi": 67,
      "hit": false,
      "t": 322552.4708041636,
      "d": 421.8748875000165,
      "v": 43
    },
    {
      "midi": 55,
      "hit": false,
      "t": 322559.57307499694,
      "d": 308.2385541666881,
      "v": 36
    },
    {
      "midi": 60,
      "hit": false,
      "t": 322563.1242104136,
      "d": 355.82376875000773,
      "v": 44
    },
    {
      "midi": 46,
      "hit": false,
      "t": 322563.83443749696,
      "d": 1513.4939145834069,
      "v": 37
    },
    {
      "midi": 39,
      "hit": false,
      "t": 322582.30034166365,
      "d": 225.14198541664518,
      "v": 36
    },
    {
      "midi": 61,
      "hit": false,
      "t": 323242.10130208026,
      "d": 200.2840375000378,
      "v": 53
    },
    {
      "midi": 69,
      "hit": false,
      "t": 323246.3626645803,
      "d": 161.93177500000456,
      "v": 50
    },
    {
      "midi": 55,
      "hit": false,
      "t": 323252.75470833026,
      "d": 140.6249625000055,
      "v": 38
    },
    {
      "midi": 65,
      "hit": false,
      "t": 323257.0160708303,
      "d": 165.48291041667107,
      "v": 53
    },
    {
      "midi": 69,
      "hit": false,
      "t": 323590.11257291364,
      "d": 237.2158458333579,
      "v": 53
    },
    {
      "midi": 61,
      "hit": false,
      "t": 323590.822799997,
      "d": 235.79539166664472,
      "v": 52
    },
    {
      "midi": 55,
      "hit": false,
      "t": 323592.24325416365,
      "d": 205.96585416665766,
      "v": 41
    },
    {
      "midi": 65,
      "hit": false,
      "t": 323604.3171145803,
      "d": 252.8408416666789,
      "v": 54
    },
    {
      "midi": 55,
      "hit": false,
      "t": 323930.3113458303,
      "d": 382.1021708333865,
      "v": 35
    },
    {
      "midi": 69,
      "hit": false,
      "t": 323935.993162497,
      "d": 229.4033479167265,
      "v": 53
    },
    {
      "midi": 61,
      "hit": false,
      "t": 323937.41361666366,
      "d": 193.89199375006137,
      "v": 55
    },
    {
      "midi": 65,
      "hit": false,
      "t": 323948.777249997,
      "d": 244.3181166666909,
      "v": 49
    },
    {
      "midi": 46,
      "hit": false,
      "t": 324243.5214895804,
      "d": 71.7329354166286,
      "v": 51
    },
    {
      "midi": 62,
      "hit": false,
      "t": 324594.373668747,
      "d": 501.4203208333347,
      "v": 41
    },
    {
      "midi": 69,
      "hit": false,
      "t": 324596.50434999703,
      "d": 208.8067625000258,
      "v": 49
    },
    {
      "midi": 64,
      "hit": false,
      "t": 324597.2145770804,
      "d": 487.21577916661045,
      "v": 49
    },
    {
      "midi": 50,
      "hit": false,
      "t": 324619.23161666375,
      "d": 848.0111374999979,
      "v": 29
    },
    {
      "midi": 60,
      "hit": false,
      "t": 324622.7827520804,
      "d": 340.1987729166285,
      "v": 33
    },
    {
      "midi": 69,
      "hit": false,
      "t": 324933.8622145804,
      "d": 198.15335624996806,
      "v": 60
    },
    {
      "midi": 57,
      "hit": false,
      "t": 324992.811062497,
      "d": 72.44316249998519,
      "v": 28
    },
    {
      "midi": 69,
      "hit": false,
      "t": 325270.5098520804,
      "d": 213.0681250000489,
      "v": 56
    },
    {
      "midi": 60,
      "hit": false,
      "t": 325274.06098749704,
      "d": 443.89192708337214,
      "v": 36
    },
    {
      "midi": 64,
      "hit": false,
      "t": 325276.19166874705,
      "d": 372.8692187500419,
      "v": 55
    },
    {
      "midi": 62,
      "hit": false,
      "t": 325278.32234999706,
      "d": 298.29537500004517,
      "v": 43
    },
    {
      "midi": 69,
      "hit": false,
      "t": 325603.6063541638,
      "d": 159.09086666663643,
      "v": 64
    },
    {
      "midi": 50,
      "hit": false,
      "t": 325608.5779437471,
      "d": 1171.1644604166504,
      "v": 49
    },
    {
      "midi": 69,
      "hit": false,
      "t": 325934.5721749971,
      "d": 401.98852916661417,
      "v": 73
    },
    {
      "midi": 64,
      "hit": false,
      "t": 325941.67444583046,
      "d": 582.3862083333079,
      "v": 74
    },
    {
      "midi": 62,
      "hit": false,
      "t": 325943.0948999971,
      "d": 559.6589416666538,
      "v": 68
    },
    {
      "midi": 60,
      "hit": false,
      "t": 325951.6176249971,
      "d": 511.36349999997765,
      "v": 37
    },
    {
      "midi": 67,
      "hit": false,
      "t": 326291.10617083043,
      "d": 269.88629166665487,
      "v": 68
    },
    {
      "midi": 67,
      "hit": false,
      "t": 326640.5378958304,
      "d": 914.0622562498902,
      "v": 53
    },
    {
      "midi": 64,
      "hit": false,
      "t": 326641.95834999706,
      "d": 262.07379375002347,
      "v": 62
    },
    {
      "midi": 60,
      "hit": false,
      "t": 326643.3788041637,
      "d": 354.40331458335277,
      "v": 35
    },
    {
      "midi": 62,
      "hit": false,
      "t": 326651.1913020804,
      "d": 254.26129583333386,
      "v": 60
    },
    {
      "midi": 50,
      "hit": false,
      "t": 326972.21394374705,
      "d": 200.2840374999796,
      "v": 37
    },
    {
      "midi": 64,
      "hit": false,
      "t": 326988.5491666637,
      "d": 118.60792291664984,
      "v": 55
    },
    {
      "midi": 62,
      "hit": false,
      "t": 327331.58884791366,
      "d": 166.90336458332604,
      "v": 43
    },
    {
      "midi": 64,
      "hit": false,
      "t": 327335.13998333033,
      "d": 109.37497083330527,
      "v": 46
    },
    {
      "midi": 50,
      "hit": false,
      "t": 327340.11157291365,
      "d": 238.63629999995464,
      "v": 31
    },
    {
      "midi": 50,
      "hit": false,
      "t": 327654.74217083026,
      "d": 218.74994166666875,
      "v": 45
    },
    {
      "midi": 66,
      "hit": false,
      "t": 327659.7137604136,
      "d": 239.34652708336944,
      "v": 37
    },
    {
      "midi": 63,
      "hit": false,
      "t": 327662.5546687469,
      "d": 213.0681250000489,
      "v": 39
    },
    {
      "midi": 60,
      "hit": false,
      "t": 327663.97512291354,
      "d": 208.8067625000258,
      "v": 31
    },
    {
      "midi": 63,
      "hit": false,
      "t": 328007.0148041636,
      "d": 64.63066458335379,
      "v": 44
    },
    {
      "midi": 66,
      "hit": false,
      "t": 328014.11707499693,
      "d": 71.73293541668681,
      "v": 46
    },
    {
      "midi": 50,
      "hit": false,
      "t": 328024.77048124693,
      "d": 1098.721297916607,
      "v": 37
    },
    {
      "midi": 74,
      "hit": false,
      "t": 328331.58858124696,
      "d": 144.8863250000286,
      "v": 59
    },
    {
      "midi": 65,
      "hit": false,
      "t": 328337.98062499694,
      "d": 144.8863250000286,
      "v": 65
    },
    {
      "midi": 60,
      "hit": false,
      "t": 328342.24198749696,
      "d": 346.59081666660495,
      "v": 34
    },
    {
      "midi": 70,
      "hit": false,
      "t": 328342.9522145803,
      "d": 233.66471041663317,
      "v": 58
    },
    {
      "midi": 63,
      "hit": false,
      "t": 328676.7589437469,
      "d": 181.10790624993388,
      "v": 50
    },
    {
      "midi": 72,
      "hit": false,
      "t": 328678.8896249969,
      "d": 137.07382708328078,
      "v": 53
    },
    {
      "midi": 68,
      "hit": false,
      "t": 328680.3100791636,
      "d": 167.61359166662442,
      "v": 51
    },
    {
      "midi": 54,
      "hit": false,
      "t": 328697.35552916356,
      "d": 421.1646604166599,
      "v": 32
    },
    {
      "midi": 68,
      "hit": false,
      "t": 329021.92930624686,
      "d": 301.8465104166535,
      "v": 55
    },
    {
      "midi": 63,
      "hit": false,
      "t": 329023.3497604135,
      "d": 313.2101437500096,
      "v": 53
    },
    {
      "midi": 60,
      "hit": false,
      "t": 329029.0315770802,
      "d": 213.0681249999907,
      "v": 45
    },
    {
      "midi": 54,
      "hit": false,
      "t": 329357.8667166635,
      "d": 558.9487145832973,
      "v": 59
    },
    {
      "midi": 61,
      "hit": false,
      "t": 329703.74730624683,
      "d": 115.05678749998333,
      "v": 53
    },
    {
      "midi": 44,
      "hit": false,
      "t": 329706.58821458014,
      "d": 306.10787291667657,
      "v": 38
    },
    {
      "midi": 62,
      "hit": false,
      "t": 329873.49157916347,
      "d": 119.31815000000643,
      "v": 57
    },
    {
      "midi": 72,
      "hit": false,
      "t": 330065.25289166346,
      "d": 78.83520625001984,
      "v": 59
    },
    {
      "midi": 43,
      "hit": false,
      "t": 330071.64493541344,
      "d": 68.1818000000203,
      "v": 36
    },
    {
      "midi": 84,
      "hit": false,
      "t": 330305.30964583013,
      "d": 117.89769583335146,
      "v": 68
    },
    {
      "midi": 72,
      "hit": false,
      "t": 330524.76981458016,
      "d": 156.2499583333265,
      "v": 48
    },
    {
      "midi": 62,
      "hit": false,
      "t": 330728.60498749686,
      "d": 75.28407083329512,
      "v": 31
    },
    {
      "midi": 84,
      "hit": false,
      "t": 330730.0254416635,
      "d": 109.37497083330527,
      "v": 49
    },
    {
      "midi": 58,
      "hit": false,
      "t": 330743.5197562468,
      "d": 105.82383541663876,
      "v": 37
    },
    {
      "midi": 53,
      "hit": false,
      "t": 330778.32088333013,
      "d": 79.54543333331821,
      "v": 14
    },
    {
      "midi": 84,
      "hit": false,
      "t": 330962.26969791343,
      "d": 140.6249625000055,
      "v": 33
    },
    {
      "midi": 83,
      "hit": false,
      "t": 331159.7128270801,
      "d": 134.23291874997085,
      "v": 55
    },
    {
      "midi": 50,
      "hit": false,
      "t": 331175.3378229134,
      "d": 149.85791458335007,
      "v": 20
    },
    {
      "midi": 43,
      "hit": false,
      "t": 331394.0877645801,
      "d": 78.12497916666325,
      "v": 30
    },
    {
      "midi": 84,
      "hit": false,
      "t": 331404.03094374674,
      "d": 394.88625833333936,
      "v": 38
    },
    {
      "midi": 72,
      "hit": false,
      "t": 331411.13321458007,
      "d": 392.7555770833278,
      "v": 28
    },
    {
      "midi": 53,
      "hit": false,
      "t": 331418.2354854134,
      "d": 121.44883125001797,
      "v": 19
    },
    {
      "midi": 62,
      "hit": false,
      "t": 332068.80349374673,
      "d": 31.960218749998603,
      "v": 39
    },
    {
      "midi": 58,
      "hit": false,
      "t": 332070.93417499674,
      "d": 90.19883958331775,
      "v": 49
    },
    {
      "midi": 53,
      "hit": false,
      "t": 332080.1671270801,
      "d": 75.9942979166517,
      "v": 34
    },
    {
      "midi": 45,
      "hit": false,
      "t": 332460.13861666335,
      "d": 165.48291041667107,
      "v": 75
    },
    {
      "midi": 55,
      "hit": false,
      "t": 332467.2408874967,
      "d": 246.44879791664425,
      "v": 75
    },
    {
      "midi": 52,
      "hit": false,
      "t": 332493.51928958,
      "d": 34.80112708336674,
      "v": 31
    },
    {
      "midi": 46,
      "hit": false,
      "t": 332810.99079583003,
      "d": 214.48857916664565,
      "v": 67
    },
    {
      "midi": 56,
      "hit": false,
      "t": 332813.83170416334,
      "d": 247.15902500000084,
      "v": 77
    },
    {
      "midi": 61,
      "hit": false,
      "t": 333479.3144812467,
      "d": 101.56247291661566,
      "v": 43
    },
    {
      "midi": 65,
      "hit": false,
      "t": 333480.02470833005,
      "d": 52.556804166641086,
      "v": 45
    },
    {
      "midi": 60,
      "hit": false,
      "t": 333502.04174791335,
      "d": 40.48294374998659,
      "v": 35
    },
    {
      "midi": 81,
      "hit": false,
      "t": 333723.6325979133,
      "d": 76.70452500000829,
      "v": 60
    },
    {
      "midi": 69,
      "hit": false,
      "t": 333731.44509583,
      "d": 73.86361666664016,
      "v": 57
    },
    {
      "midi": 76,
      "hit": false,
      "t": 333743.51895624667,
      "d": 1362.2155458334018,
      "v": 43
    },
    {
      "midi": 80,
      "hit": false,
      "t": 333909.71209374664,
      "d": 130.68178333336255,
      "v": 49
    },
    {
      "midi": 68,
      "hit": false,
      "t": 333914.68368332996,
      "d": 126.42042083339766,
      "v": 49
    },
    {
      "midi": 73,
      "hit": false,
      "t": 333943.80299374665,
      "d": 98.01133750006557,
      "v": 25
    },
    {
      "midi": 46,
      "hit": false,
      "t": 334107.1552229134,
      "d": 252.8408416666789,
      "v": 39
    },
    {
      "midi": 56,
      "hit": false,
      "t": 334123.4904458301,
      "d": 269.1760645833565,
      "v": 30
    },
    {
      "midi": 67,
      "hit": false,
      "t": 334146.21771249676,
      "d": 977.2724666666472,
      "v": 33
    },
    {
      "midi": 79,
      "hit": false,
      "t": 334160.4222541634,
      "d": 943.8917937499937,
      "v": 38
    },
    {
      "midi": 61,
      "hit": false,
      "t": 334803.8879916634,
      "d": 276.9885624999879,
      "v": 44
    },
    {
      "midi": 65,
      "hit": false,
      "t": 334814.5413979134,
      "d": 228.6931208333117,
      "v": 33
    },
    {
      "midi": 47,
      "hit": false,
      "t": 335194.51288749673,
      "d": 106.53406249999534,
      "v": 60
    },
    {
      "midi": 64,
      "hit": false,
      "t": 335485.7059916634,
      "d": 324.5737770833657,
      "v": 56
    },
    {
      "midi": 60,
      "hit": false,
      "t": 335493.5184895801,
      "d": 379.9714895833167,
      "v": 49
    },
    {
      "midi": 55,
      "hit": false,
      "t": 335504.1718958301,
      "d": 320.3124145833426,
      "v": 38
    },
    {
      "midi": 45,
      "hit": false,
      "t": 335511.2741666634,
      "d": 2296.8743874999927,
      "v": 41
    },
    {
      "midi": 49,
      "hit": false,
      "t": 336070.2228812467,
      "d": 51.84657708334271,
      "v": 25
    },
    {
      "midi": 50,
      "hit": false,
      "t": 336109.9955979134,
      "d": 87.35793124994962,
      "v": 53
    },
    {
      "midi": 57,
      "hit": false,
      "t": 336157.5808124967,
      "d": 188.2101770833251,
      "v": 53
    },
    {
      "midi": 64,
      "hit": false,
      "t": 336159.7114937467,
      "d": 196.0226749999565,
      "v": 36
    },
    {
      "midi": 60,
      "hit": false,
      "t": 336161.1319479134,
      "d": 177.55677083332557,
      "v": 41
    },
    {
      "midi": 67,
      "hit": false,
      "t": 336167.52399166336,
      "d": 188.9204041666817,
      "v": 34
    },
    {
      "midi": 52,
      "hit": false,
      "t": 336171.07512708,
      "d": 192.4715395833482,
      "v": 38
    },
    {
      "midi": 49,
      "hit": false,
      "t": 336411.84210833005,
      "d": 90.90906666667433,
      "v": 29
    },
    {
      "midi": 50,
      "hit": false,
      "t": 336465.8193666634,
      "d": 78.83520624996163,
      "v": 42
    },
    {
      "midi": 57,
      "hit": false,
      "t": 336511.2738999967,
      "d": 194.60222083330154,
      "v": 48
    },
    {
      "midi": 67,
      "hit": false,
      "t": 336514.8250354134,
      "d": 169.74427291663596,
      "v": 36
    },
    {
      "midi": 52,
      "hit": false,
      "t": 336516.24548958003,
      "d": 171.8749541666475,
      "v": 42
    },
    {
      "midi": 64,
      "hit": false,
      "t": 336518.37617083004,
      "d": 211.64767083327752,
      "v": 45
    },
    {
      "midi": 60,
      "hit": false,
      "t": 336521.21707916335,
      "d": 181.10790624999208,
      "v": 39
    },
    {
      "midi": 50,
      "hit": false,
      "t": 336783.2908729133,
      "d": 52.556804166641086,
      "v": 44
    },
    {
      "midi": 52,
      "hit": false,
      "t": 336853.6033541633,
      "d": 305.3976458334364,
      "v": 46
    },
    {
      "midi": 57,
      "hit": false,
      "t": 336857.8647166633,
      "d": 263.49424791673664,
      "v": 55
    },
    {
      "midi": 67,
      "hit": false,
      "t": 336861.41585208,
      "d": 170.45450000005076,
      "v": 37
    },
    {
      "midi": 60,
      "hit": false,
      "t": 336864.96698749665,
      "d": 926.8463437500759,
      "v": 41
    },
    {
      "midi": 64,
      "hit": false,
      "t": 336883.43289166334,
      "d": 259.94311250007013,
      "v": 28
    },
    {
      "midi": 51,
      "hit": false,
      "t": 337192.3816729134,
      "d": 338.06809166661697,
      "v": 52
    },
    {
      "midi": 66,
      "hit": false,
      "t": 337205.8759874967,
      "d": 332.3862749999971,
      "v": 52
    },
    {
      "midi": 57,
      "hit": false,
      "t": 337220.7907562467,
      "d": 303.26696458330844,
      "v": 20
    },
    {
      "midi": 65,
      "hit": false,
      "t": 337548.9156687467,
      "d": 281.9601520833676,
      "v": 44
    },
    {
      "midi": 50,
      "hit": false,
      "t": 337868.51785624673,
      "d": 42.61362499999814,
      "v": 45
    },
    {
      "midi": 76,
      "hit": false,
      "t": 338194.51208749675,
      "d": 595.170295833319,
      "v": 79
    },
    {
      "midi": 71,
      "hit": false,
      "t": 338200.90413124673,
      "d": 561.7896229166654,
      "v": 74
    },
    {
      "midi": 65,
      "hit": false,
      "t": 338203.74503958004,
      "d": 513.4941812500474,
      "v": 89
    },
    {
      "midi": 68,
      "hit": false,
      "t": 338205.1654937467,
      "d": 531.24985833338,
      "v": 74
    },
    {
      "midi": 64,
      "hit": false,
      "t": 338210.8473104134,
      "d": 367.18740208336385,
      "v": 87
    },
    {
      "midi": 63,
      "hit": false,
      "t": 338536.8415416634,
      "d": 685.3691354167531,
      "v": 94
    },
    {
      "midi": 74,
      "hit": false,
      "t": 338869.2278166634,
      "d": 618.607789583446,
      "v": 58
    },
    {
      "midi": 71,
      "hit": false,
      "t": 338871.3584979134,
      "d": 577.4146187501028,
      "v": 58
    },
    {
      "midi": 68,
      "hit": false,
      "t": 338872.06872499676,
      "d": 568.8918937500566,
      "v": 53
    },
    {
      "midi": 65,
      "hit": false,
      "t": 338872.7789520801,
      "d": 526.9884958333569,
      "v": 65
    },
    {
      "midi": 62,
      "hit": false,
      "t": 339221.5004499968,
      "d": 664.7725499999942,
      "v": 91
    },
    {
      "midi": 71,
      "hit": false,
      "t": 339565.25035833014,
      "d": 272.0169729166664,
      "v": 59
    },
    {
      "midi": 68,
      "hit": false,
      "t": 339565.9605854135,
      "d": 302.55673749995185,
      "v": 53
    },
    {
      "midi": 74,
      "hit": false,
      "t": 339570.9321749968,
      "d": 184.6590416666586,
      "v": 52
    },
    {
      "midi": 65,
      "hit": false,
      "t": 339574.4833104135,
      "d": 318.89196041662944,
      "v": 50
    },
    {
      "midi": 59,
      "hit": false,
      "t": 339911.8411749968,
      "d": 224.4317583333468,
      "v": 76
    },
    {
      "midi": 68,
      "hit": false,
      "t": 340237.8354062468,
      "d": 123.57951249997132,
      "v": 56
    },
    {
      "midi": 65,
      "hit": false,
      "t": 340238.5456333302,
      "d": 151.9885958333034,
      "v": 71
    },
    {
      "midi": 62,
      "hit": false,
      "t": 340241.3865416635,
      "d": 181.81813333334867,
      "v": 64
    },
    {
      "midi": 44,
      "hit": false,
      "t": 340588.6875854135,
      "d": 258.52265833329875,
      "v": 58
    },
    {
      "midi": 54,
      "hit": false,
      "t": 340591.5284937468,
      "d": 238.63630000001285,
      "v": 67
    },
    {
      "midi": 59,
      "hit": false,
      "t": 340598.63076458016,
      "d": 286.93174166663084,
      "v": 99
    },
    {
      "midi": 43,
      "hit": false,
      "t": 340914.6818166635,
      "d": 171.16472708334913,
      "v": 56
    },
    {
      "midi": 53,
      "hit": false,
      "t": 340923.20454166346,
      "d": 213.0681250000489,
      "v": 53
    },
    {
      "midi": 58,
      "hit": false,
      "t": 340927.4659041635,
      "d": 199.57381041668123,
      "v": 80
    },
    {
      "midi": 58,
      "hit": false,
      "t": 341580.1645937468,
      "d": 71.73293541668681,
      "v": 71
    },
    {
      "midi": 62,
      "hit": false,
      "t": 341583.00550208014,
      "d": 29.829537499987055,
      "v": 64
    },
    {
      "midi": 53,
      "hit": false,
      "t": 341591.5282270801,
      "d": 85.93747708341107,
      "v": 47
    },
    {
      "midi": 57,
      "hit": false,
      "t": 341595.0793624968,
      "d": 34.80112708336674,
      "v": 53
    },
    {
      "midi": 73,
      "hit": false,
      "t": 341602.8918604135,
      "d": 115.76701458339812,
      "v": 78
    },
    {
      "midi": 85,
      "hit": false,
      "t": 341603.60208749684,
      "d": 160.5113208334078,
      "v": 71
    },
    {
      "midi": 79,
      "hit": false,
      "t": 341614.96572083014,
      "d": 137.78405416675378,
      "v": 59
    },
    {
      "midi": 82,
      "hit": false,
      "t": 341619.22708333016,
      "d": 147.01700625009835,
      "v": 47
    },
    {
      "midi": 74,
      "hit": false,
      "t": 341723.6304645802,
      "d": 110.08519791672006,
      "v": 49
    },
    {
      "midi": 82,
      "hit": false,
      "t": 341857.86338333023,
      "d": 86.64770416665124,
      "v": 35
    },
    {
      "midi": 86,
      "hit": false,
      "t": 341859.2838374969,
      "d": 51.13634999998612,
      "v": 36
    },
    {
      "midi": 74,
      "hit": false,
      "t": 341922.4940479135,
      "d": 78.83520625001984,
      "v": 46
    },
    {
      "midi": 82,
      "hit": false,
      "t": 342021.9258395802,
      "d": 100.85224583337549,
      "v": 31
    },
    {
      "midi": 86,
      "hit": false,
      "t": 342026.1872020802,
      "d": 647.0168729166617,
      "v": 18
    },
    {
      "midi": 74,
      "hit": false,
      "t": 342076.6133249969,
      "d": 100.1420187500189,
      "v": 47
    },
    {
      "midi": 82,
      "hit": false,
      "t": 342185.98829583026,
      "d": 79.54543333331821,
      "v": 27
    },
    {
      "midi": 79,
      "hit": false,
      "t": 342210.1360166636,
      "d": 33.380672916711774,
      "v": 22
    },
    {
      "midi": 74,
      "hit": false,
      "t": 342242.8064624969,
      "d": 92.3295208333293,
      "v": 42
    },
    {
      "midi": 50,
      "hit": false,
      "t": 342244.93714374694,
      "d": 421.8748874999583,
      "v": 47
    },
    {
      "midi": 82,
      "hit": false,
      "t": 342345.78938958026,
      "d": 110.08519791666185,
      "v": 34
    },
    {
      "midi": 79,
      "hit": false,
      "t": 342379.1700624969,
      "d": 39.062489583331626,
      "v": 24
    },
    {
      "midi": 74,
      "hit": false,
      "t": 342408.2893729136,
      "d": 95.88065624999581,
      "v": 44
    },
    {
      "midi": 82,
      "hit": false,
      "t": 342523.3461604136,
      "d": 245.73857083328767,
      "v": 21
    },
    {
      "midi": 74,
      "hit": false,
      "t": 342607.1529562469,
      "d": 103.69315416662721,
      "v": 36
    },
    {
      "midi": 37,
      "hit": false,
      "t": 342938.1187770802,
      "d": 108.66474375000689,
      "v": 39
    },
    {
      "midi": 49,
      "hit": false,
      "t": 342943.8005937469,
      "d": 96.5908833333524,
      "v": 30
    },
    {
      "midi": 85,
      "hit": false,
      "t": 343300.3345895802,
      "d": 158.38063958339626,
      "v": 52
    },
    {
      "midi": 73,
      "hit": false,
      "t": 343301.04481666355,
      "d": 114.34656041668495,
      "v": 46
    },
    {
      "midi": 84,
      "hit": false,
      "t": 343462.9765916636,
      "d": 186.07949583331356,
      "v": 56
    },
    {
      "midi": 72,
      "hit": false,
      "t": 343476.4709062469,
      "d": 95.88065624999581,
      "v": 39
    },
    {
      "midi": 36,
      "hit": false,
      "t": 343645.50495208026,
      "d": 83.80679583334131,
      "v": 35
    },
    {
      "midi": 79,
      "hit": false,
      "t": 343661.84017499693,
      "d": 807.5281937499531,
      "v": 44
    },
    {
      "midi": 52,
      "hit": false,
      "t": 343664.68108333024,
      "d": 156.2499583333265,
      "v": 24
    },
    {
      "midi": 58,
      "hit": false,
      "t": 344363.54453333025,
      "d": 110.08519791666185,
      "v": 44
    },
    {
      "midi": 64,
      "hit": false,
      "t": 344370.6468041636,
      "d": 66.76134583330713,
      "v": 24
    },
    {
      "midi": 60,
      "hit": false,
      "t": 344371.35703124694,
      "d": 81.67611458327156,
      "v": 35
    },
    {
      "midi": 55,
      "hit": false,
      "t": 344374.19793958025,
      "d": 90.19883958331775,
      "v": 29
    },
    {
      "midi": 80,
      "hit": false,
      "t": 345047.4932145803,
      "d": 205.96585416665766,
      "v": 44
    },
    {
      "midi": 58,
      "hit": false,
      "t": 345053.17503124697,
      "d": 127.13064791663783,
      "v": 35
    },
    {
      "midi": 70,
      "hit": false,
      "t": 345061.69775624695,
      "d": 127.13064791663783,
      "v": 32
    },
    {
      "midi": 73,
      "hit": false,
      "t": 345068.08979999693,
      "d": 139.9147354166489,
      "v": 31
    },
    {
      "midi": 48,
      "hit": false,
      "t": 345079.4534333303,
      "d": 95.88065624999581,
      "v": 24
    },
    {
      "midi": 76,
      "hit": false,
      "t": 345087.265931247,
      "d": 129.97155624994775,
      "v": 34
    },
    {
      "midi": 42,
      "hit": false,
      "t": 346073.06112291355,
      "d": 146.30677916668355,
      "v": 33
    },
    {
      "midi": 69,
      "hit": false,
      "t": 346075.90203124686,
      "d": 60.3693020833889,
      "v": 48
    },
    {
      "midi": 81,
      "hit": false,
      "t": 346078.0327124969,
      "d": 80.2556604166748,
      "v": 37
    },
    {
      "midi": 73,
      "hit": false,
      "t": 346086.55543749686,
      "d": 45.45453333336627,
      "v": 29
    },
    {
      "midi": 76,
      "hit": false,
      "t": 346087.9758916635,
      "d": 54.68748541671084,
      "v": 41
    },
    {
      "midi": 49,
      "hit": false,
      "t": 346092.23725416354,
      "d": 169.0340458333376,
      "v": 29
    },
    {
      "midi": 77,
      "hit": false,
      "t": 346526.1860020802,
      "d": 3131.3912104165647,
      "v": 38
    },
    {
      "midi": 69,
      "hit": false,
      "t": 346527.60645624687,
      "d": 3095.169629166601,
      "v": 45
    },
    {
      "midi": 62,
      "hit": false,
      "t": 346529.7371374969,
      "d": 3553.9763249998796,
      "v": 34
    },
    {
      "midi": 72,
      "hit": false,
      "t": 346534.7087270802,
      "d": 3120.027577083267,
      "v": 34
    },
    {
      "midi": 67,
      "hit": false,
      "t": 346536.12918124686,
      "d": 3040.4821437499486,
      "v": 39
    },
    {
      "midi": 41,
      "hit": false,
      "t": 346563.82803749683,
      "d": 5548.2939749999205,
      "v": 44
    }
  ]
}