{
  "jsonPath": "Soundtracks/Video Game Music/Pokemon Ruby Sapphire/pokemon-ruby-sapphire-oceanicmuseum.json",
  "path": "Soundtracks\\Video Game Music\\Pokemon Ruby Sapphire\\Pokemon_Ruby_Sapphire_OceanicMuseum.mid",
  "name": "Pokemon_Ruby_Sapphire_OceanicMuseum",
  "difficulty": "Advanced",
  "bpm": 99.99983333361111,
  "notes": [
    {
      "midi": 62,
      "hit": false,
      "t": 5.861689453125,
      "d": 387.4576728515625,
      "v": 69
    },
    {
      "midi": 50,
      "hit": false,
      "t": 5.861689453125,
      "d": 1206.3356894531248,
      "v": 69
    },
    {
      "midi": 57,
      "hit": false,
      "t": 5.861689453125,
      "d": 1206.335689453125,
      "v": 69
    },
    {
      "midi": 50,
      "hit": false,
      "t": 5.861689453125,
      "d": 1206.335689453125,
      "v": 69
    },
    {
      "midi": 67,
      "hit": false,
      "t": 417.3522890625,
      "d": 376.32046289062504,
      "v": 64
    },
    {
      "midi": 69,
      "hit": false,
      "t": 817.7056787109375,
      "d": 371.04494238281245,
      "v": 64
    },
    {
      "midi": 74,
      "hit": false,
      "t": 1212.7835478515624,
      "d": 371.6311113281249,
      "v": 67
    },
    {
      "midi": 69,
      "hit": false,
      "t": 1212.7835478515626,
      "d": 1187.578283203125,
      "v": 67
    },
    {
      "midi": 76,
      "hit": false,
      "t": 1608.4475859374998,
      "d": 374.56195605468747,
      "v": 64
    },
    {
      "midi": 79,
      "hit": false,
      "t": 2007.0424687499997,
      "d": 369.8726044921875,
      "v": 64
    },
    {
      "midi": 50,
      "hit": false,
      "t": 2007.0424687499997,
      "d": 393.3193623046875,
      "v": 64
    },
    {
      "midi": 50,
      "hit": false,
      "t": 2007.0424687500001,
      "d": 393.3193623046875,
      "v": 64
    },
    {
      "midi": 78,
      "hit": false,
      "t": 2403.2926757812497,
      "d": 390.9746865234374,
      "v": 69
    },
    {
      "midi": 50,
      "hit": false,
      "t": 2403.2926757812497,
      "d": 614.8912236328124,
      "v": 69
    },
    {
      "midi": 74,
      "hit": false,
      "t": 2403.29267578125,
      "d": 390.9746865234374,
      "v": 69
    },
    {
      "midi": 50,
      "hit": false,
      "t": 2403.29267578125,
      "d": 614.8912236328124,
      "v": 69
    },
    {
      "midi": 76,
      "hit": false,
      "t": 2818.3002890625,
      "d": 376.32046289062464,
      "v": 64
    },
    {
      "midi": 73,
      "hit": false,
      "t": 2818.3002890625003,
      "d": 376.32046289062464,
      "v": 64
    },
    {
      "midi": 78,
      "hit": false,
      "t": 3218.653678710937,
      "d": 371.0449423828127,
      "v": 64
    },
    {
      "midi": 74,
      "hit": false,
      "t": 3218.6536787109376,
      "d": 371.0449423828127,
      "v": 64
    },
    {
      "midi": 61,
      "hit": false,
      "t": 3613.7315478515625,
      "d": 1187.578283203126,
      "v": 59
    },
    {
      "midi": 69,
      "hit": false,
      "t": 3613.7315478515625,
      "d": 1187.578283203126,
      "v": 73
    },
    {
      "midi": 64,
      "hit": false,
      "t": 3613.731547851563,
      "d": 1187.5782832031255,
      "v": 67
    },
    {
      "midi": 49,
      "hit": false,
      "t": 4407.99046875,
      "d": 369.87260449218775,
      "v": 64
    },
    {
      "midi": 49,
      "hit": false,
      "t": 4407.99046875,
      "d": 369.87260449218775,
      "v": 64
    },
    {
      "midi": 62,
      "hit": false,
      "t": 4804.2406757812505,
      "d": 390.9746865234374,
      "v": 69
    },
    {
      "midi": 50,
      "hit": false,
      "t": 4804.2406757812505,
      "d": 803.0514550781254,
      "v": 69
    },
    {
      "midi": 50,
      "hit": false,
      "t": 4804.2406757812505,
      "d": 803.0514550781254,
      "v": 69
    },
    {
      "midi": 57,
      "hit": false,
      "t": 4804.2406757812505,
      "d": 1209.8527031250005,
      "v": 69
    },
    {
      "midi": 67,
      "hit": false,
      "t": 5219.248289062501,
      "d": 376.3204628906251,
      "v": 64
    },
    {
      "midi": 69,
      "hit": false,
      "t": 5619.601678710938,
      "d": 371.0449423828122,
      "v": 64
    },
    {
      "midi": 45,
      "hit": false,
      "t": 5619.601678710938,
      "d": 371.0449423828122,
      "v": 64
    },
    {
      "midi": 45,
      "hit": false,
      "t": 5619.601678710938,
      "d": 371.0449423828122,
      "v": 64
    },
    {
      "midi": 74,
      "hit": false,
      "t": 6014.679547851563,
      "d": 371.63111132812537,
      "v": 67
    },
    {
      "midi": 50,
      "hit": false,
      "t": 6014.679547851563,
      "d": 793.672751953126,
      "v": 67
    },
    {
      "midi": 50,
      "hit": false,
      "t": 6014.679547851563,
      "d": 793.672751953125,
      "v": 67
    },
    {
      "midi": 69,
      "hit": false,
      "t": 6014.679547851563,
      "d": 1187.5782832031246,
      "v": 67
    },
    {
      "midi": 76,
      "hit": false,
      "t": 6410.343585937501,
      "d": 374.56195605468747,
      "v": 64
    },
    {
      "midi": 50,
      "hit": false,
      "t": 6808.9384687500005,
      "d": 181.1262041015625,
      "v": 64
    },
    {
      "midi": 50,
      "hit": false,
      "t": 6808.938468750001,
      "d": 181.1262041015625,
      "v": 64
    },
    {
      "midi": 79,
      "hit": false,
      "t": 6808.938468750001,
      "d": 369.87260449218775,
      "v": 64
    },
    {
      "midi": 45,
      "hit": false,
      "t": 7002.3742207031255,
      "d": 188.1602314453121,
      "v": 64
    },
    {
      "midi": 45,
      "hit": false,
      "t": 7002.374220703126,
      "d": 188.160231445313,
      "v": 64
    },
    {
      "midi": 74,
      "hit": false,
      "t": 7205.18867578125,
      "d": 390.9746865234374,
      "v": 69
    },
    {
      "midi": 50,
      "hit": false,
      "t": 7205.18867578125,
      "d": 803.0514550781254,
      "v": 69
    },
    {
      "midi": 78,
      "hit": false,
      "t": 7205.188675781252,
      "d": 390.9746865234374,
      "v": 69
    },
    {
      "midi": 50,
      "hit": false,
      "t": 7205.188675781252,
      "d": 803.0514550781254,
      "v": 69
    },
    {
      "midi": 76,
      "hit": false,
      "t": 7620.1962890625,
      "d": 376.3204628906251,
      "v": 64
    },
    {
      "midi": 79,
      "hit": false,
      "t": 7620.196289062502,
      "d": 376.3204628906251,
      "v": 64
    },
    {
      "midi": 78,
      "hit": false,
      "t": 8020.549678710938,
      "d": 371.04494238281313,
      "v": 64
    },
    {
      "midi": 45,
      "hit": false,
      "t": 8020.549678710938,
      "d": 371.04494238281313,
      "v": 64
    },
    {
      "midi": 81,
      "hit": false,
      "t": 8020.54967871094,
      "d": 371.04494238281313,
      "v": 64
    },
    {
      "midi": 45,
      "hit": false,
      "t": 8020.54967871094,
      "d": 371.04494238281313,
      "v": 64
    },
    {
      "midi": 69,
      "hit": false,
      "t": 8415.627547851564,
      "d": 1187.5782832031255,
      "v": 67
    },
    {
      "midi": 49,
      "hit": false,
      "t": 8415.627547851564,
      "d": 1187.5782832031255,
      "v": 67
    },
    {
      "midi": 76,
      "hit": false,
      "t": 8415.627547851565,
      "d": 781.9493730468748,
      "v": 67
    },
    {
      "midi": 49,
      "hit": false,
      "t": 8415.627547851565,
      "d": 1187.5782832031236,
      "v": 67
    },
    {
      "midi": 73,
      "hit": false,
      "t": 9209.886468750003,
      "d": 181.1262041015616,
      "v": 64
    },
    {
      "midi": 74,
      "hit": false,
      "t": 9403.322220703127,
      "d": 188.1602314453121,
      "v": 64
    },
    {
      "midi": 45,
      "hit": false,
      "t": 9606.136675781252,
      "d": 2398.0171552734373,
      "v": 64
    },
    {
      "midi": 73,
      "hit": false,
      "t": 9606.136675781252,
      "d": 3015.8392236328127,
      "v": 64
    },
    {
      "midi": 69,
      "hit": false,
      "t": 12622.562068359377,
      "d": 594.375310546875,
      "v": 65
    },
    {
      "midi": 74,
      "hit": false,
      "t": 13217.523547851564,
      "d": 594.375310546875,
      "v": 67
    },
    {
      "midi": 73,
      "hit": false,
      "t": 13812.485027343751,
      "d": 592.6168037109383,
      "v": 65
    },
    {
      "midi": 74,
      "hit": false,
      "t": 14408.032675781253,
      "d": 299.53233105468826,
      "v": 69
    },
    {
      "midi": 38,
      "hit": false,
      "t": 14408.032675781253,
      "d": 1209.8527031249996,
      "v": 68
    },
    {
      "midi": 69,
      "hit": false,
      "t": 14725.736244140628,
      "d": 279.60258691406307,
      "v": 64
    },
    {
      "midi": 69,
      "hit": false,
      "t": 15023.510068359376,
      "d": 1189.3367900390622,
      "v": 65
    },
    {
      "midi": 74,
      "hit": false,
      "t": 15023.510068359377,
      "d": 594.375310546875,
      "v": 65
    },
    {
      "midi": 76,
      "hit": false,
      "t": 15618.471547851565,
      "d": 594.375310546875,
      "v": 67
    },
    {
      "midi": 45,
      "hit": false,
      "t": 15618.471547851565,
      "d": 1187.5782832031255,
      "v": 67
    },
    {
      "midi": 76,
      "hit": false,
      "t": 16213.43302734375,
      "d": 592.6168037109364,
      "v": 65
    },
    {
      "midi": 79,
      "hit": false,
      "t": 16213.433027343752,
      "d": 592.6168037109383,
      "v": 65
    },
    {
      "midi": 74,
      "hit": false,
      "t": 16808.980675781248,
      "d": 1209.8527031250014,
      "v": 69
    },
    {
      "midi": 78,
      "hit": false,
      "t": 16808.98067578125,
      "d": 208.0899755859391,
      "v": 69
    },
    {
      "midi": 47,
      "hit": false,
      "t": 16808.98067578125,
      "d": 1209.8527031250014,
      "v": 69
    },
    {
      "midi": 79,
      "hit": false,
      "t": 17029.380199218755,
      "d": 182.29854199218607,
      "v": 64
    },
    {
      "midi": 78,
      "hit": false,
      "t": 17223.988289062505,
      "d": 188.1602314453121,
      "v": 64
    },
    {
      "midi": 76,
      "hit": false,
      "t": 17424.45806835938,
      "d": 277.84408007812453,
      "v": 65
    },
    {
      "midi": 74,
      "hit": false,
      "t": 17720.473385742192,
      "d": 280.7749248046857,
      "v": 64
    },
    {
      "midi": 73,
      "hit": false,
      "t": 18019.41954785156,
      "d": 594.375310546875,
      "v": 67
    },
    {
      "midi": 76,
      "hit": false,
      "t": 18019.419547851565,
      "d": 594.375310546875,
      "v": 67
    },
    {
      "midi": 45,
      "hit": false,
      "t": 18019.419547851565,
      "d": 1187.5782832031255,
      "v": 67
    },
    {
      "midi": 69,
      "hit": false,
      "t": 18614.38102734375,
      "d": 592.6168037109383,
      "v": 65
    },
    {
      "midi": 73,
      "hit": false,
      "t": 18614.381027343752,
      "d": 592.6168037109383,
      "v": 65
    },
    {
      "midi": 74,
      "hit": false,
      "t": 19209.92867578125,
      "d": 299.53233105468826,
      "v": 69
    },
    {
      "midi": 38,
      "hit": false,
      "t": 19209.92867578125,
      "d": 1209.8527031249978,
      "v": 68
    },
    {
      "midi": 76,
      "hit": false,
      "t": 19527.632244140626,
      "d": 279.60258691406125,
      "v": 64
    },
    {
      "midi": 78,
      "hit": false,
      "t": 19825.406068359374,
      "d": 594.375310546875,
      "v": 65
    },
    {
      "midi": 69,
      "hit": false,
      "t": 19825.406068359374,
      "d": 594.375310546875,
      "v": 65
    },
    {
      "midi": 79,
      "hit": false,
      "t": 20420.36754785156,
      "d": 594.375310546875,
      "v": 67
    },
    {
      "midi": 40,
      "hit": false,
      "t": 20420.36754785156,
      "d": 1187.5782832031218,
      "v": 66
    },
    {
      "midi": 71,
      "hit": false,
      "t": 20420.36754785156,
      "d": 1187.5782832031255,
      "v": 67
    },
    {
      "midi": 78,
      "hit": false,
      "t": 21015.32902734375,
      "d": 277.84408007812453,
      "v": 65
    },
    {
      "midi": 76,
      "hit": false,
      "t": 21311.34434472656,
      "d": 279.016417968749,
      "v": 64
    },
    {
      "midi": 81,
      "hit": false,
      "t": 21610.876675781245,
      "d": 614.8912236328142,
      "v": 69
    },
    {
      "midi": 45,
      "hit": false,
      "t": 21610.876675781245,
      "d": 1209.8527031249978,
      "v": 69
    },
    {
      "midi": 74,
      "hit": false,
      "t": 21610.87667578125,
      "d": 1209.8527031250014,
      "v": 69
    },
    {
      "midi": 79,
      "hit": false,
      "t": 22226.35406835937,
      "d": 277.84408007812453,
      "v": 65
    },
    {
      "midi": 78,
      "hit": false,
      "t": 22522.369385742182,
      "d": 280.7749248046857,
      "v": 64
    },
    {
      "midi": 76,
      "hit": false,
      "t": 22821.315547851555,
      "d": 594.375310546875,
      "v": 67
    },
    {
      "midi": 45,
      "hit": false,
      "t": 22821.315547851555,
      "d": 594.375310546875,
      "v": 67
    },
    {
      "midi": 73,
      "hit": false,
      "t": 22821.315547851562,
      "d": 594.375310546875,
      "v": 67
    },
    {
      "midi": 78,
      "hit": false,
      "t": 23416.27702734374,
      "d": 277.84408007812453,
      "v": 65
    },
    {
      "midi": 37,
      "hit": false,
      "t": 23416.27702734374,
      "d": 592.6168037109346,
      "v": 64
    },
    {
      "midi": 69,
      "hit": false,
      "t": 23416.27702734375,
      "d": 592.6168037109346,
      "v": 65
    },
    {
      "midi": 76,
      "hit": false,
      "t": 23712.292344726553,
      "d": 279.016417968749,
      "v": 64
    },
    {
      "midi": 74,
      "hit": false,
      "t": 24011.824675781238,
      "d": 299.53233105468826,
      "v": 69
    },
    {
      "midi": 38,
      "hit": false,
      "t": 24011.824675781238,
      "d": 1209.8527031249978,
      "v": 68
    },
    {
      "midi": 50,
      "hit": false,
      "t": 24011.824675781245,
      "d": 614.8912236328106,
      "v": 69
    },
    {
      "midi": 69,
      "hit": false,
      "t": 24329.528244140613,
      "d": 279.60258691406125,
      "v": 64
    },
    {
      "midi": 57,
      "hit": false,
      "t": 24329.52824414062,
      "d": 315.3588925781223,
      "v": 52
    },
    {
      "midi": 74,
      "hit": false,
      "t": 24627.30206835936,
      "d": 594.375310546875,
      "v": 65
    },
    {
      "midi": 69,
      "hit": false,
      "t": 24627.30206835936,
      "d": 1189.3367900390622,
      "v": 65
    },
    {
      "midi": 62,
      "hit": false,
      "t": 24627.302068359368,
      "d": 313.6003857421856,
      "v": 53
    },
    {
      "midi": 66,
      "hit": false,
      "t": 24923.31738574218,
      "d": 316.53123046875044,
      "v": 52
    },
    {
      "midi": 76,
      "hit": false,
      "t": 25222.263547851548,
      "d": 594.375310546875,
      "v": 67
    },
    {
      "midi": 33,
      "hit": false,
      "t": 25222.263547851548,
      "d": 1187.5782832031255,
      "v": 64
    },
    {
      "midi": 49,
      "hit": false,
      "t": 25222.263547851555,
      "d": 594.375310546875,
      "v": 67
    },
    {
      "midi": 57,
      "hit": false,
      "t": 25521.20970996093,
      "d": 313.6003857421856,
      "v": 52
    },
    {
      "midi": 79,
      "hit": false,
      "t": 25817.225027343735,
      "d": 592.6168037109383,
      "v": 65
    },
    {
      "midi": 76,
      "hit": false,
      "t": 25817.225027343735,
      "d": 592.6168037109383,
      "v": 65
    },
    {
      "midi": 61,
      "hit": false,
      "t": 25817.225027343742,
      "d": 313.6003857421856,
      "v": 53
    },
    {
      "midi": 64,
      "hit": false,
      "t": 26113.240344726553,
      "d": 314.7727236328137,
      "v": 52
    },
    {
      "midi": 78,
      "hit": false,
      "t": 26412.772675781234,
      "d": 208.0899755859391,
      "v": 69
    },
    {
      "midi": 35,
      "hit": false,
      "t": 26412.772675781234,
      "d": 1209.8527031250014,
      "v": 67
    },
    {
      "midi": 47,
      "hit": false,
      "t": 26412.77267578124,
      "d": 614.8912236328106,
      "v": 69
    },
    {
      "midi": 79,
      "hit": false,
      "t": 26633.172199218738,
      "d": 182.29854199218607,
      "v": 64
    },
    {
      "midi": 54,
      "hit": false,
      "t": 26730.476244140616,
      "d": 315.3588925781223,
      "v": 52
    },
    {
      "midi": 78,
      "hit": false,
      "t": 26827.780289062488,
      "d": 188.1602314453121,
      "v": 64
    },
    {
      "midi": 76,
      "hit": false,
      "t": 27028.250068359364,
      "d": 277.84408007812453,
      "v": 65
    },
    {
      "midi": 59,
      "hit": false,
      "t": 27028.250068359364,
      "d": 313.6003857421856,
      "v": 53
    },
    {
      "midi": 74,
      "hit": false,
      "t": 27324.265385742176,
      "d": 280.7749248046857,
      "v": 64
    },
    {
      "midi": 62,
      "hit": false,
      "t": 27324.265385742176,
      "d": 316.53123046875044,
      "v": 52
    },
    {
      "midi": 76,
      "hit": false,
      "t": 27623.211547851548,
      "d": 594.375310546875,
      "v": 67
    },
    {
      "midi": 73,
      "hit": false,
      "t": 27623.211547851548,
      "d": 594.375310546875,
      "v": 67
    },
    {
      "midi": 37,
      "hit": false,
      "t": 27623.211547851548,
      "d": 1187.5782832031255,
      "v": 66
    },
    {
      "midi": 45,
      "hit": false,
      "t": 27623.21154785155,
      "d": 280.7749248046857,
      "v": 67
    },
    {
      "midi": 52,
      "hit": false,
      "t": 27922.157709960924,
      "d": 277.84408007812453,
      "v": 64
    },
    {
      "midi": 73,
      "hit": false,
      "t": 28218.173027343735,
      "d": 592.6168037109383,
      "v": 65
    },
    {
      "midi": 69,
      "hit": false,
      "t": 28218.173027343735,
      "d": 592.6168037109383,
      "v": 65
    },
    {
      "midi": 57,
      "hit": false,
      "t": 28218.173027343735,
      "d": 277.84408007812453,
      "v": 65
    },
    {
      "midi": 61,
      "hit": false,
      "t": 28514.188344726546,
      "d": 279.016417968749,
      "v": 64
    },
    {
      "midi": 74,
      "hit": false,
      "t": 28813.720675781235,
      "d": 299.53233105468826,
      "v": 69
    },
    {
      "midi": 38,
      "hit": false,
      "t": 28813.720675781235,
      "d": 1209.8527031249978,
      "v": 68
    },
    {
      "midi": 45,
      "hit": false,
      "t": 28813.720675781235,
      "d": 614.8912236328106,
      "v": 69
    },
    {
      "midi": 76,
      "hit": false,
      "t": 29131.42424414061,
      "d": 279.60258691406125,
      "v": 64
    },
    {
      "midi": 54,
      "hit": false,
      "t": 29131.42424414061,
      "d": 279.60258691406125,
      "v": 64
    },
    {
      "midi": 78,
      "hit": false,
      "t": 29429.198068359357,
      "d": 594.375310546875,
      "v": 65
    },
    {
      "midi": 69,
      "hit": false,
      "t": 29429.198068359357,
      "d": 594.375310546875,
      "v": 65
    },
    {
      "midi": 57,
      "hit": false,
      "t": 29429.198068359357,
      "d": 277.84408007812453,
      "v": 65
    },
    {
      "midi": 62,
      "hit": false,
      "t": 29725.21338574217,
      "d": 280.7749248046857,
      "v": 64
    },
    {
      "midi": 47,
      "hit": false,
      "t": 30024.15954785154,
      "d": 594.375310546875,
      "v": 67
    },
    {
      "midi": 79,
      "hit": false,
      "t": 30024.159547851545,
      "d": 594.375310546875,
      "v": 67
    },
    {
      "midi": 71,
      "hit": false,
      "t": 30024.159547851545,
      "d": 1187.5782832031218,
      "v": 67
    },
    {
      "midi": 40,
      "hit": false,
      "t": 30024.159547851545,
      "d": 1187.5782832031218,
      "v": 66
    },
    {
      "midi": 55,
      "hit": false,
      "t": 30323.105709960917,
      "d": 277.84408007812453,
      "v": 64
    },
    {
      "midi": 59,
      "hit": false,
      "t": 30619.12102734373,
      "d": 277.84408007812453,
      "v": 65
    },
    {
      "midi": 78,
      "hit": false,
      "t": 30619.121027343732,
      "d": 277.84408007812453,
      "v": 65
    },
    {
      "midi": 64,
      "hit": false,
      "t": 30915.13634472654,
      "d": 279.016417968749,
      "v": 64
    },
    {
      "midi": 76,
      "hit": false,
      "t": 30915.136344726543,
      "d": 279.016417968749,
      "v": 64
    },
    {
      "midi": 81,
      "hit": false,
      "t": 31214.668675781228,
      "d": 614.8912236328142,
      "v": 69
    },
    {
      "midi": 74,
      "hit": false,
      "t": 31214.668675781228,
      "d": 1209.8527031249978,
      "v": 69
    },
    {
      "midi": 45,
      "hit": false,
      "t": 31214.668675781228,
      "d": 1209.8527031249978,
      "v": 69
    },
    {
      "midi": 50,
      "hit": false,
      "t": 31214.668675781228,
      "d": 614.8912236328106,
      "v": 69
    },
    {
      "midi": 57,
      "hit": false,
      "t": 31532.372244140603,
      "d": 279.60258691406125,
      "v": 64
    },
    {
      "midi": 62,
      "hit": false,
      "t": 31830.14606835935,
      "d": 277.84408007812453,
      "v": 65
    },
    {
      "midi": 79,
      "hit": false,
      "t": 31830.146068359354,
      "d": 277.84408007812453,
      "v": 65
    },
    {
      "midi": 64,
      "hit": false,
      "t": 32126.16138574216,
      "d": 280.7749248046857,
      "v": 64
    },
    {
      "midi": 78,
      "hit": false,
      "t": 32126.161385742165,
      "d": 280.7749248046857,
      "v": 64
    },
    {
      "midi": 52,
      "hit": false,
      "t": 32425.107547851534,
      "d": 594.3753105468786,
      "v": 67
    },
    {
      "midi": 45,
      "hit": false,
      "t": 32425.107547851538,
      "d": 594.375310546875,
      "v": 67
    },
    {
      "midi": 76,
      "hit": false,
      "t": 32425.107547851538,
      "d": 1187.578283203129,
      "v": 67
    },
    {
      "midi": 73,
      "hit": false,
      "t": 32425.107547851538,
      "d": 1187.578283203129,
      "v": 67
    },
    {
      "midi": 57,
      "hit": false,
      "t": 32724.05370996091,
      "d": 277.8440800781282,
      "v": 64
    },
    {
      "midi": 37,
      "hit": false,
      "t": 33020.06902734373,
      "d": 592.6168037109383,
      "v": 64
    },
    {
      "midi": 61,
      "hit": false,
      "t": 33020.06902734373,
      "d": 277.84408007812453,
      "v": 65
    },
    {
      "midi": 64,
      "hit": false,
      "t": 33316.08434472654,
      "d": 279.016417968749,
      "v": 64
    },
    {
      "midi": 47,
      "hit": false,
      "t": 33615.61667578123,
      "d": 614.8912236328179,
      "v": 69
    },
    {
      "midi": 71,
      "hit": false,
      "t": 33615.61667578123,
      "d": 231.53673339843954,
      "v": 57
    },
    {
      "midi": 78,
      "hit": false,
      "t": 33836.016199218735,
      "d": 206.3314687500024,
      "v": 52
    },
    {
      "midi": 78,
      "hit": false,
      "t": 33933.32024414061,
      "d": 279.6025869140649,
      "v": 64
    },
    {
      "midi": 83,
      "hit": false,
      "t": 34030.624289062485,
      "d": 211.60698925781617,
      "v": 52
    },
    {
      "midi": 76,
      "hit": false,
      "t": 34231.094068359365,
      "d": 277.84408007812453,
      "v": 65
    },
    {
      "midi": 47,
      "hit": false,
      "t": 34231.094068359365,
      "d": 594.3753105468786,
      "v": 65
    },
    {
      "midi": 86,
      "hit": false,
      "t": 34231.094068359365,
      "d": 211.0208203125003,
      "v": 53
    },
    {
      "midi": 83,
      "hit": false,
      "t": 34430.97767871093,
      "d": 204.57296191406203,
      "v": 52
    },
    {
      "midi": 78,
      "hit": false,
      "t": 34527.10938574218,
      "d": 298.3599931640638,
      "v": 64
    },
    {
      "midi": 78,
      "hit": false,
      "t": 34623.82726171874,
      "d": 213.36549609374924,
      "v": 52
    },
    {
      "midi": 71,
      "hit": false,
      "t": 34826.05554785155,
      "d": 213.95166503905784,
      "v": 55
    },
    {
      "midi": 78,
      "hit": false,
      "t": 34826.05554785156,
      "d": 280.77492480468936,
      "v": 67
    },
    {
      "midi": 47,
      "hit": false,
      "t": 34826.05554785156,
      "d": 594.3753105468786,
      "v": 67
    },
    {
      "midi": 78,
      "hit": false,
      "t": 35028.870002929674,
      "d": 204.57296191406203,
      "v": 52
    },
    {
      "midi": 79,
      "hit": false,
      "t": 35125.00170996094,
      "d": 277.84408007812453,
      "v": 64
    },
    {
      "midi": 83,
      "hit": false,
      "t": 35221.719585937484,
      "d": 210.4346513671917,
      "v": 52
    },
    {
      "midi": 86,
      "hit": false,
      "t": 35421.01702734374,
      "d": 210.43465136718441,
      "v": 53
    },
    {
      "midi": 78,
      "hit": false,
      "t": 35421.017027343754,
      "d": 277.84408007812453,
      "v": 65
    },
    {
      "midi": 47,
      "hit": false,
      "t": 35421.017027343754,
      "d": 592.6168037109383,
      "v": 65
    },
    {
      "midi": 83,
      "hit": false,
      "t": 35620.31446874999,
      "d": 205.1591308593779,
      "v": 52
    },
    {
      "midi": 79,
      "hit": false,
      "t": 35717.03234472657,
      "d": 279.016417968749,
      "v": 64
    },
    {
      "midi": 78,
      "hit": false,
      "t": 35813.750220703114,
      "d": 211.60698925781617,
      "v": 52
    },
    {
      "midi": 69,
      "hit": false,
      "t": 36016.56467578124,
      "d": 231.53673339843226,
      "v": 57
    },
    {
      "midi": 81,
      "hit": false,
      "t": 36016.56467578126,
      "d": 299.53233105468826,
      "v": 69
    },
    {
      "midi": 45,
      "hit": false,
      "t": 36016.56467578126,
      "d": 614.8912236328179,
      "v": 69
    },
    {
      "midi": 76,
      "hit": false,
      "t": 36236.96419921874,
      "d": 206.3314687500024,
      "v": 52
    },
    {
      "midi": 76,
      "hit": false,
      "t": 36334.268244140636,
      "d": 279.6025869140649,
      "v": 64
    },
    {
      "midi": 81,
      "hit": false,
      "t": 36431.57228906249,
      "d": 211.60698925781617,
      "v": 52
    },
    {
      "midi": 85,
      "hit": false,
      "t": 36632.04206835937,
      "d": 211.0208203125003,
      "v": 53
    },
    {
      "midi": 73,
      "hit": false,
      "t": 36632.04206835939,
      "d": 277.84408007812453,
      "v": 65
    },
    {
      "midi": 49,
      "hit": false,
      "t": 36632.04206835939,
      "d": 594.3753105468786,
      "v": 65
    },
    {
      "midi": 81,
      "hit": false,
      "t": 36831.92567871093,
      "d": 204.57296191406203,
      "v": 52
    },
    {
      "midi": 71,
      "hit": false,
      "t": 36928.057385742206,
      "d": 280.77492480468936,
      "v": 64
    },
    {
      "midi": 76,
      "hit": false,
      "t": 37024.77526171874,
      "d": 213.36549609374924,
      "v": 52
    },
    {
      "midi": 69,
      "hit": false,
      "t": 37227.00354785156,
      "d": 213.95166503905784,
      "v": 55
    },
    {
      "midi": 69,
      "hit": false,
      "t": 37227.003547851586,
      "d": 280.77492480468936,
      "v": 67
    },
    {
      "midi": 52,
      "hit": false,
      "t": 37227.003547851586,
      "d": 594.3753105468786,
      "v": 67
    },
    {
      "midi": 73,
      "hit": false,
      "t": 37429.81800292968,
      "d": 204.57296191406203,
      "v": 52
    },
    {
      "midi": 71,
      "hit": false,
      "t": 37525.949709960965,
      "d": 277.84408007812453,
      "v": 64
    },
    {
      "midi": 76,
      "hit": false,
      "t": 37622.66758593749,
      "d": 210.4346513671917,
      "v": 52
    },
    {
      "midi": 88,
      "hit": false,
      "t": 37821.965027343744,
      "d": 210.43465136718441,
      "v": 53
    },
    {
      "midi": 73,
      "hit": false,
      "t": 37821.96502734378,
      "d": 277.84408007812453,
      "v": 65
    },
    {
      "midi": 45,
      "hit": false,
      "t": 37821.96502734378,
      "d": 592.6168037109383,
      "v": 65
    },
    {
      "midi": 85,
      "hit": false,
      "t": 38021.26246874999,
      "d": 205.1591308593779,
      "v": 52
    },
    {
      "midi": 76,
      "hit": false,
      "t": 38117.980344726595,
      "d": 599.0646621093765,
      "v": 64
    },
    {
      "midi": 81,
      "hit": false,
      "t": 38214.69822070312,
      "d": 211.60698925781617,
      "v": 52
    },
    {
      "midi": 67,
      "hit": false,
      "t": 38417.51267578125,
      "d": 231.53673339843226,
      "v": 57
    },
    {
      "midi": 43,
      "hit": false,
      "t": 38417.51267578128,
      "d": 614.8912236328179,
      "v": 69
    },
    {
      "midi": 74,
      "hit": false,
      "t": 38637.91219921874,
      "d": 206.3314687500024,
      "v": 52
    },
    {
      "midi": 74,
      "hit": false,
      "t": 38735.21624414066,
      "d": 279.6025869140649,
      "v": 64
    },
    {
      "midi": 79,
      "hit": false,
      "t": 38832.52028906249,
      "d": 211.60698925781617,
      "v": 52
    },
    {
      "midi": 83,
      "hit": false,
      "t": 39032.99006835937,
      "d": 211.0208203125003,
      "v": 53
    },
    {
      "midi": 73,
      "hit": false,
      "t": 39032.99006835942,
      "d": 277.84408007812453,
      "v": 65
    },
    {
      "midi": 43,
      "hit": false,
      "t": 39032.99006835942,
      "d": 594.3753105468786,
      "v": 65
    },
    {
      "midi": 79,
      "hit": false,
      "t": 39232.87367871094,
      "d": 204.57296191406203,
      "v": 52
    },
    {
      "midi": 74,
      "hit": false,
      "t": 39329.00538574223,
      "d": 298.3599931640638,
      "v": 64
    },
    {
      "midi": 74,
      "hit": false,
      "t": 39425.72326171875,
      "d": 213.36549609374924,
      "v": 52
    },
    {
      "midi": 67,
      "hit": false,
      "t": 39627.95154785156,
      "d": 213.95166503905784,
      "v": 55
    },
    {
      "midi": 74,
      "hit": false,
      "t": 39627.95154785161,
      "d": 280.77492480468936,
      "v": 67
    },
    {
      "midi": 43,
      "hit": false,
      "t": 39627.95154785161,
      "d": 594.3753105468786,
      "v": 67
    },
    {
      "midi": 74,
      "hit": false,
      "t": 39830.76600292968,
      "d": 204.57296191406203,
      "v": 52
    },
    {
      "midi": 76,
      "hit": false,
      "t": 39926.89770996099,
      "d": 277.84408007812453,
      "v": 64
    },
    {
      "midi": 79,
      "hit": false,
      "t": 40023.61558593749,
      "d": 210.4346513671917,
      "v": 52
    },
    {
      "midi": 83,
      "hit": false,
      "t": 40222.91302734375,
      "d": 210.43465136718441,
      "v": 53
    },
    {
      "midi": 74,
      "hit": false,
      "t": 40222.913027343806,
      "d": 277.84408007812453,
      "v": 65
    },
    {
      "midi": 43,
      "hit": false,
      "t": 40222.913027343806,
      "d": 592.6168037109383,
      "v": 65
    },
    {
      "midi": 79,
      "hit": false,
      "t": 40422.210468749996,
      "d": 205.1591308593779,
      "v": 52
    },
    {
      "midi": 76,
      "hit": false,
      "t": 40518.92834472662,
      "d": 279.016417968749,
      "v": 64
    },
    {
      "midi": 74,
      "hit": false,
      "t": 40615.64622070312,
      "d": 211.60698925781617,
      "v": 52
    },
    {
      "midi": 66,
      "hit": false,
      "t": 40818.46067578125,
      "d": 231.53673339843226,
      "v": 57
    },
    {
      "midi": 78,
      "hit": false,
      "t": 40818.46067578131,
      "d": 299.53233105468826,
      "v": 69
    },
    {
      "midi": 42,
      "hit": false,
      "t": 40818.46067578131,
      "d": 614.8912236328179,
      "v": 69
    },
    {
      "midi": 73,
      "hit": false,
      "t": 41038.86019921875,
      "d": 206.3314687500024,
      "v": 52
    },
    {
      "midi": 73,
      "hit": false,
      "t": 41136.16424414069,
      "d": 279.6025869140649,
      "v": 64
    },
    {
      "midi": 78,
      "hit": false,
      "t": 41233.4682890625,
      "d": 211.60698925781617,
      "v": 52
    },
    {
      "midi": 81,
      "hit": false,
      "t": 41433.93806835938,
      "d": 211.0208203125003,
      "v": 53
    },
    {
      "midi": 71,
      "hit": false,
      "t": 41433.93806835944,
      "d": 277.84408007812453,
      "v": 65
    },
    {
      "midi": 45,
      "hit": false,
      "t": 41433.93806835944,
      "d": 594.3753105468786,
      "v": 65
    },
    {
      "midi": 78,
      "hit": false,
      "t": 41633.82167871094,
      "d": 204.57296191406203,
      "v": 52
    },
    {
      "midi": 69,
      "hit": false,
      "t": 41729.95338574226,
      "d": 298.3599931640638,
      "v": 64
    },
    {
      "midi": 73,
      "hit": false,
      "t": 41826.67126171875,
      "d": 213.36549609374924,
      "v": 52
    },
    {
      "midi": 66,
      "hit": false,
      "t": 42028.899547851564,
      "d": 213.95166503905784,
      "v": 55
    },
    {
      "midi": 69,
      "hit": false,
      "t": 42028.89954785164,
      "d": 280.77492480468936,
      "v": 67
    },
    {
      "midi": 49,
      "hit": false,
      "t": 42028.89954785164,
      "d": 594.3753105468786,
      "v": 67
    },
    {
      "midi": 69,
      "hit": false,
      "t": 42231.714002929686,
      "d": 204.57296191406203,
      "v": 52
    },
    {
      "midi": 71,
      "hit": false,
      "t": 42327.84570996102,
      "d": 277.84408007812453,
      "v": 64
    },
    {
      "midi": 73,
      "hit": false,
      "t": 42424.563585937496,
      "d": 210.4346513671917,
      "v": 52
    },
    {
      "midi": 85,
      "hit": false,
      "t": 42623.86102734375,
      "d": 210.43465136718441,
      "v": 53
    },
    {
      "midi": 73,
      "hit": false,
      "t": 42623.86102734383,
      "d": 277.84408007812453,
      "v": 65
    },
    {
      "midi": 42,
      "hit": false,
      "t": 42623.86102734383,
      "d": 592.6168037109383,
      "v": 65
    },
    {
      "midi": 81,
      "hit": false,
      "t": 42823.15846875,
      "d": 205.1591308593779,
      "v": 52
    },
    {
      "midi": 76,
      "hit": false,
      "t": 42919.87634472665,
      "d": 599.0646621093765,
      "v": 64
    },
    {
      "midi": 78,
      "hit": false,
      "t": 43016.594220703126,
      "d": 211.60698925781617,
      "v": 52
    },
    {
      "midi": 71,
      "hit": false,
      "t": 43219.408675781255,
      "d": 231.53673339843226,
      "v": 57
    },
    {
      "midi": 43,
      "hit": false,
      "t": 43219.408675781335,
      "d": 1209.8527031250123,
      "v": 69
    },
    {
      "midi": 79,
      "hit": false,
      "t": 43439.80819921875,
      "d": 206.3314687500024,
      "v": 52
    },
    {
      "midi": 71,
      "hit": false,
      "t": 43537.11224414071,
      "d": 279.6025869140649,
      "v": 64
    },
    {
      "midi": 83,
      "hit": false,
      "t": 43634.4162890625,
      "d": 211.60698925781617,
      "v": 52
    },
    {
      "midi": 86,
      "hit": false,
      "t": 43834.88606835938,
      "d": 211.0208203125003,
      "v": 53
    },
    {
      "midi": 69,
      "hit": false,
      "t": 43834.88606835947,
      "d": 277.84408007812453,
      "v": 65
    },
    {
      "midi": 83,
      "hit": false,
      "t": 44034.769678710945,
      "d": 204.57296191406203,
      "v": 52
    },
    {
      "midi": 71,
      "hit": false,
      "t": 44130.90138574228,
      "d": 298.3599931640638,
      "v": 64
    },
    {
      "midi": 79,
      "hit": false,
      "t": 44227.619261718755,
      "d": 213.36549609374924,
      "v": 52
    },
    {
      "midi": 71,
      "hit": false,
      "t": 44429.84754785157,
      "d": 213.95166503905784,
      "v": 55
    },
    {
      "midi": 71,
      "hit": false,
      "t": 44429.84754785166,
      "d": 280.77492480468936,
      "v": 67
    },
    {
      "midi": 43,
      "hit": false,
      "t": 44429.84754785166,
      "d": 890.3906279296934,
      "v": 67
    },
    {
      "midi": 79,
      "hit": false,
      "t": 44632.66200292969,
      "d": 204.57296191406203,
      "v": 52
    },
    {
      "midi": 73,
      "hit": false,
      "t": 44728.79370996104,
      "d": 277.84408007812453,
      "v": 64
    },
    {
      "midi": 83,
      "hit": false,
      "t": 44825.5115859375,
      "d": 210.4346513671917,
      "v": 52
    },
    {
      "midi": 86,
      "hit": false,
      "t": 45024.809027343756,
      "d": 210.43465136718441,
      "v": 53
    },
    {
      "midi": 71,
      "hit": false,
      "t": 45024.80902734386,
      "d": 277.84408007812453,
      "v": 65
    },
    {
      "midi": 83,
      "hit": false,
      "t": 45224.106468750004,
      "d": 205.1591308593779,
      "v": 52
    },
    {
      "midi": 73,
      "hit": false,
      "t": 45320.82434472667,
      "d": 279.016417968749,
      "v": 64
    },
    {
      "midi": 31,
      "hit": false,
      "t": 45320.82434472667,
      "d": 279.016417968749,
      "v": 61
    },
    {
      "midi": 79,
      "hit": false,
      "t": 45417.54222070313,
      "d": 211.60698925781617,
      "v": 52
    },
    {
      "midi": 69,
      "hit": false,
      "t": 45620.35667578126,
      "d": 231.53673339843226,
      "v": 57
    },
    {
      "midi": 74,
      "hit": false,
      "t": 45620.35667578136,
      "d": 299.53233105468826,
      "v": 69
    },
    {
      "midi": 38,
      "hit": false,
      "t": 45620.35667578136,
      "d": 910.9065410156327,
      "v": 68
    },
    {
      "midi": 74,
      "hit": false,
      "t": 45840.756199218755,
      "d": 206.3314687500024,
      "v": 52
    },
    {
      "midi": 69,
      "hit": false,
      "t": 45938.06024414074,
      "d": 279.6025869140649,
      "v": 64
    },
    {
      "midi": 81,
      "hit": false,
      "t": 46035.364289062505,
      "d": 211.60698925781617,
      "v": 52
    },
    {
      "midi": 86,
      "hit": false,
      "t": 46235.834068359385,
      "d": 211.0208203125003,
      "v": 53
    },
    {
      "midi": 66,
      "hit": false,
      "t": 46235.834068359494,
      "d": 277.84408007812453,
      "v": 65
    },
    {
      "midi": 81,
      "hit": false,
      "t": 46435.71767871095,
      "d": 204.57296191406203,
      "v": 52
    },
    {
      "midi": 64,
      "hit": false,
      "t": 46531.84938574231,
      "d": 280.77492480468936,
      "v": 64
    },
    {
      "midi": 45,
      "hit": false,
      "t": 46531.84938574231,
      "d": 280.77492480468936,
      "v": 64
    },
    {
      "midi": 74,
      "hit": false,
      "t": 46628.56726171876,
      "d": 213.36549609374924,
      "v": 52
    },
    {
      "midi": 69,
      "hit": false,
      "t": 46830.79554785157,
      "d": 213.95166503905784,
      "v": 55
    },
    {
      "midi": 62,
      "hit": false,
      "t": 46830.79554785169,
      "d": 280.77492480468936,
      "v": 67
    },
    {
      "midi": 38,
      "hit": false,
      "t": 46830.79554785169,
      "d": 1187.5782832031327,
      "v": 66
    },
    {
      "midi": 74,
      "hit": false,
      "t": 47033.610002929694,
      "d": 204.57296191406203,
      "v": 52
    },
    {
      "midi": 64,
      "hit": false,
      "t": 47129.74170996107,
      "d": 277.84408007812453,
      "v": 64
    },
    {
      "midi": 78,
      "hit": false,
      "t": 47226.459585937504,
      "d": 210.4346513671917,
      "v": 52
    },
    {
      "midi": 90,
      "hit": false,
      "t": 47425.75702734376,
      "d": 210.43465136718441,
      "v": 53
    },
    {
      "midi": 66,
      "hit": false,
      "t": 47425.75702734388,
      "d": 277.84408007812453,
      "v": 65
    },
    {
      "midi": 86,
      "hit": false,
      "t": 47625.05446875001,
      "d": 205.1591308593779,
      "v": 52
    },
    {
      "midi": 69,
      "hit": false,
      "t": 47721.7723447267,
      "d": 599.0646621093838,
      "v": 64
    },
    {
      "midi": 81,
      "hit": false,
      "t": 47818.490220703134,
      "d": 211.60698925781617,
      "v": 52
    },
    {
      "midi": 67,
      "hit": false,
      "t": 48021.30467578126,
      "d": 231.53673339843226,
      "v": 57
    },
    {
      "midi": 40,
      "hit": false,
      "t": 48021.304675781386,
      "d": 171.16133203125355,
      "v": 68
    },
    {
      "midi": 40,
      "hit": false,
      "t": 48193.052176757956,
      "d": 594.3753105468859,
      "v": 63
    },
    {
      "midi": 76,
      "hit": false,
      "t": 48241.70419921876,
      "d": 206.3314687500024,
      "v": 52
    },
    {
      "midi": 71,
      "hit": false,
      "t": 48339.00824414077,
      "d": 279.6025869140649,
      "v": 64
    },
    {
      "midi": 79,
      "hit": false,
      "t": 48436.31228906251,
      "d": 211.60698925781617,
      "v": 52
    },
    {
      "midi": 83,
      "hit": false,
      "t": 48636.78206835939,
      "d": 211.0208203125003,
      "v": 53
    },
    {
      "midi": 69,
      "hit": false,
      "t": 48636.78206835953,
      "d": 277.8440800781318,
      "v": 65
    },
    {
      "midi": 40,
      "hit": false,
      "t": 48788.01365625016,
      "d": 289.5674589843766,
      "v": 63
    },
    {
      "midi": 79,
      "hit": false,
      "t": 48836.66567871095,
      "d": 204.57296191406203,
      "v": 52
    },
    {
      "midi": 71,
      "hit": false,
      "t": 48932.79738574235,
      "d": 298.3599931640638,
      "v": 64
    },
    {
      "midi": 76,
      "hit": false,
      "t": 49029.51526171876,
      "d": 213.36549609374924,
      "v": 52
    },
    {
      "midi": 40,
      "hit": false,
      "t": 49078.16728417985,
      "d": 152.99009472656326,
      "v": 63
    },
    {
      "midi": 67,
      "hit": false,
      "t": 49231.743547851576,
      "d": 213.95166503905784,
      "v": 55
    },
    {
      "midi": 71,
      "hit": false,
      "t": 49231.74354785173,
      "d": 280.77492480468936,
      "v": 67
    },
    {
      "midi": 40,
      "hit": false,
      "t": 49231.74354785173,
      "d": 890.3906279296934,
      "v": 66
    },
    {
      "midi": 76,
      "hit": false,
      "t": 49434.5580029297,
      "d": 204.57296191406203,
      "v": 52
    },
    {
      "midi": 73,
      "hit": false,
      "t": 49530.68970996111,
      "d": 277.84408007812453,
      "v": 64
    },
    {
      "midi": 79,
      "hit": false,
      "t": 49627.40758593751,
      "d": 210.4346513671917,
      "v": 52
    },
    {
      "midi": 83,
      "hit": false,
      "t": 49826.70502734376,
      "d": 210.43465136718441,
      "v": 53
    },
    {
      "midi": 74,
      "hit": false,
      "t": 49826.70502734392,
      "d": 277.84408007812453,
      "v": 65
    },
    {
      "midi": 79,
      "hit": false,
      "t": 50026.00246875001,
      "d": 205.1591308593779,
      "v": 52
    },
    {
      "midi": 47,
      "hit": false,
      "t": 50122.72034472674,
      "d": 144.78372949218465,
      "v": 52
    },
    {
      "midi": 76,
      "hit": false,
      "t": 50122.72034472674,
      "d": 279.016417968749,
      "v": 64
    },
    {
      "midi": 76,
      "hit": false,
      "t": 50219.43822070314,
      "d": 211.60698925781617,
      "v": 52
    },
    {
      "midi": 47,
      "hit": false,
      "t": 50268.09024316424,
      "d": 160.0241220703101,
      "v": 52
    },
    {
      "midi": 64,
      "hit": false,
      "t": 50422.25267578127,
      "d": 231.53673339843226,
      "v": 57
    },
    {
      "midi": 78,
      "hit": false,
      "t": 50422.25267578143,
      "d": 299.53233105468826,
      "v": 69
    },
    {
      "midi": 45,
      "hit": false,
      "t": 50422.25267578143,
      "d": 910.9065410156327,
      "v": 69
    },
    {
      "midi": 74,
      "hit": false,
      "t": 50642.65219921876,
      "d": 206.3314687500024,
      "v": 52
    },
    {
      "midi": 79,
      "hit": false,
      "t": 50739.956244140805,
      "d": 279.6025869140649,
      "v": 64
    },
    {
      "midi": 76,
      "hit": false,
      "t": 50837.26028906251,
      "d": 211.60698925781617,
      "v": 52
    },
    {
      "midi": 81,
      "hit": false,
      "t": 51037.73006835939,
      "d": 211.0208203125003,
      "v": 53
    },
    {
      "midi": 78,
      "hit": false,
      "t": 51037.73006835956,
      "d": 277.84408007812453,
      "v": 65
    },
    {
      "midi": 76,
      "hit": false,
      "t": 51237.61367871096,
      "d": 204.57296191406203,
      "v": 52
    },
    {
      "midi": 42,
      "hit": false,
      "t": 51333.745385742375,
      "d": 135.99119531249744,
      "v": 64
    },
    {
      "midi": 76,
      "hit": false,
      "t": 51333.745385742375,
      "d": 280.77492480468936,
      "v": 64
    },
    {
      "midi": 74,
      "hit": false,
      "t": 51430.46326171877,
      "d": 213.36549609374924,
      "v": 52
    },
    {
      "midi": 43,
      "hit": false,
      "t": 51479.115284179876,
      "d": 144.19756054687605,
      "v": 64
    },
    {
      "midi": 69,
      "hit": false,
      "t": 51632.69154785158,
      "d": 213.95166503905784,
      "v": 55
    },
    {
      "midi": 81,
      "hit": false,
      "t": 51632.691547851755,
      "d": 280.77492480468936,
      "v": 67
    },
    {
      "midi": 45,
      "hit": false,
      "t": 51632.691547851755,
      "d": 890.3906279296934,
      "v": 67
    },
    {
      "midi": 73,
      "hit": false,
      "t": 51835.5060029297,
      "d": 204.57296191406203,
      "v": 52
    },
    {
      "midi": 79,
      "hit": false,
      "t": 51931.637709961135,
      "d": 277.84408007812453,
      "v": 64
    },
    {
      "midi": 76,
      "hit": false,
      "t": 52028.35558593751,
      "d": 210.4346513671917,
      "v": 52
    },
    {
      "midi": 88,
      "hit": false,
      "t": 52227.65302734377,
      "d": 210.43465136718441,
      "v": 53
    },
    {
      "midi": 78,
      "hit": false,
      "t": 52227.65302734395,
      "d": 277.84408007812453,
      "v": 65
    },
    {
      "midi": 85,
      "hit": false,
      "t": 52426.950468750016,
      "d": 205.1591308593779,
      "v": 52
    },
    {
      "midi": 33,
      "hit": false,
      "t": 52523.668344726764,
      "d": 135.99119531249744,
      "v": 61
    },
    {
      "midi": 76,
      "hit": false,
      "t": 52523.668344726764,
      "d": 279.016417968749,
      "v": 64
    },
    {
      "midi": 81,
      "hit": false,
      "t": 52620.38622070314,
      "d": 211.60698925781617,
      "v": 52
    },
    {
      "midi": 37,
      "hit": false,
      "t": 52669.038243164265,
      "d": 142.4390537109357,
      "v": 63
    },
    {
      "midi": 74,
      "hit": false,
      "t": 52823.20067578127,
      "d": 299.53233105468826,
      "v": 69
    },
    {
      "midi": 38,
      "hit": false,
      "t": 52823.20067578127,
      "d": 614.8912236328179,
      "v": 68
    },
    {
      "midi": 38,
      "hit": false,
      "t": 52823.20067578145,
      "d": 614.8912236328106,
      "v": 68
    },
    {
      "midi": 78,
      "hit": false,
      "t": 52823.20067578145,
      "d": 1209.8527031249978,
      "v": 69
    },
    {
      "midi": 69,
      "hit": false,
      "t": 53140.90424414065,
      "d": 279.6025869140649,
      "v": 64
    },
    {
      "midi": 74,
      "hit": false,
      "t": 53438.678068359404,
      "d": 594.3753105468786,
      "v": 65
    },
    {
      "midi": 38,
      "hit": false,
      "t": 53734.69338574222,
      "d": 144.78372949218465,
      "v": 51
    },
    {
      "midi": 38,
      "hit": false,
      "t": 53734.69338574239,
      "d": 144.78372949218465,
      "v": 51
    },
    {
      "midi": 38,
      "hit": false,
      "t": 53880.06328417972,
      "d": 161.78262890625774,
      "v": 51
    },
    {
      "midi": 38,
      "hit": false,
      "t": 53880.06328417989,
      "d": 161.78262890625774,
      "v": 51
    },
    {
      "midi": 45,
      "hit": false,
      "t": 54033.6395478516,
      "d": 443.7298916015643,
      "v": 67
    },
    {
      "midi": 76,
      "hit": false,
      "t": 54033.6395478516,
      "d": 594.3753105468713,
      "v": 67
    },
    {
      "midi": 79,
      "hit": false,
      "t": 54033.639547851766,
      "d": 190.50490722656832,
      "v": 67
    },
    {
      "midi": 45,
      "hit": false,
      "t": 54033.639547851766,
      "d": 443.7298916015643,
      "v": 67
    },
    {
      "midi": 76,
      "hit": false,
      "t": 54236.454002929895,
      "d": 180.54003515624936,
      "v": 64
    },
    {
      "midi": 73,
      "hit": false,
      "t": 54429.303585937705,
      "d": 186.98789355468762,
      "v": 64
    },
    {
      "midi": 33,
      "hit": false,
      "t": 54524.84912402347,
      "d": 381.59598339843797,
      "v": 61
    },
    {
      "midi": 33,
      "hit": false,
      "t": 54524.84912402364,
      "d": 381.59598339843797,
      "v": 61
    },
    {
      "midi": 79,
      "hit": false,
      "t": 54628.601027343786,
      "d": 592.6168037109383,
      "v": 65
    },
    {
      "midi": 69,
      "hit": false,
      "t": 54628.60102734395,
      "d": 186.98789355468762,
      "v": 65
    },
    {
      "midi": 64,
      "hit": false,
      "t": 54827.8984687502,
      "d": 181.12620410156524,
      "v": 64
    },
    {
      "midi": 45,
      "hit": false,
      "t": 54924.6163447266,
      "d": 279.016417968749,
      "v": 64
    },
    {
      "midi": 45,
      "hit": false,
      "t": 54924.61634472677,
      "d": 279.016417968749,
      "v": 64
    },
    {
      "midi": 61,
      "hit": false,
      "t": 55021.33422070333,
      "d": 188.1602314453121,
      "v": 64
    },
    {
      "midi": 78,
      "hit": false,
      "t": 55224.14867578129,
      "d": 208.08997558593546,
      "v": 69
    },
    {
      "midi": 47,
      "hit": false,
      "t": 55224.14867578129,
      "d": 614.8912236328106,
      "v": 69
    },
    {
      "midi": 62,
      "hit": false,
      "t": 55224.14867578145,
      "d": 208.08997558593546,
      "v": 69
    },
    {
      "midi": 47,
      "hit": false,
      "t": 55224.14867578145,
      "d": 614.8912236328106,
      "v": 69
    },
    {
      "midi": 79,
      "hit": false,
      "t": 55444.548199218785,
      "d": 182.2985419921897,
      "v": 64
    },
    {
      "midi": 64,
      "hit": false,
      "t": 55444.548199218945,
      "d": 182.2985419921897,
      "v": 64
    },
    {
      "midi": 78,
      "hit": false,
      "t": 55639.156289062536,
      "d": 188.1602314453121,
      "v": 64
    },
    {
      "midi": 62,
      "hit": false,
      "t": 55639.156289062696,
      "d": 188.1602314453121,
      "v": 64
    },
    {
      "midi": 76,
      "hit": false,
      "t": 55839.626068359416,
      "d": 277.84408007812453,
      "v": 65
    },
    {
      "midi": 71,
      "hit": false,
      "t": 55839.626068359576,
      "d": 594.3753105468786,
      "v": 65
    },
    {
      "midi": 47,
      "hit": false,
      "t": 56135.64138574223,
      "d": 135.99119531249744,
      "v": 64
    },
    {
      "midi": 74,
      "hit": false,
      "t": 56135.64138574223,
      "d": 280.77492480468936,
      "v": 64
    },
    {
      "midi": 47,
      "hit": false,
      "t": 56135.64138574239,
      "d": 135.99119531249744,
      "v": 64
    },
    {
      "midi": 35,
      "hit": false,
      "t": 56281.01128417973,
      "d": 144.19756054687605,
      "v": 62
    },
    {
      "midi": 35,
      "hit": false,
      "t": 56281.01128417989,
      "d": 144.19756054687605,
      "v": 62
    },
    {
      "midi": 45,
      "hit": false,
      "t": 56434.58754785161,
      "d": 153.57626367187186,
      "v": 67
    },
    {
      "midi": 76,
      "hit": false,
      "t": 56434.58754785161,
      "d": 594.3753105468786,
      "v": 67
    },
    {
      "midi": 45,
      "hit": false,
      "t": 56434.58754785177,
      "d": 153.57626367187186,
      "v": 67
    },
    {
      "midi": 69,
      "hit": false,
      "t": 56434.58754785177,
      "d": 1187.5782832031255,
      "v": 67
    },
    {
      "midi": 45,
      "hit": false,
      "t": 56588.7499804688,
      "d": 289.5674589843766,
      "v": 64
    },
    {
      "midi": 45,
      "hit": false,
      "t": 56588.74998046896,
      "d": 289.5674589843766,
      "v": 64
    },
    {
      "midi": 45,
      "hit": false,
      "t": 56878.90360839849,
      "d": 141.26671582031122,
      "v": 64
    },
    {
      "midi": 45,
      "hit": false,
      "t": 56878.90360839865,
      "d": 141.26671582031122,
      "v": 64
    },
    {
      "midi": 73,
      "hit": false,
      "t": 57029.549027343804,
      "d": 592.6168037109383,
      "v": 65
    },
    {
      "midi": 45,
      "hit": false,
      "t": 57180.19444628912,
      "d": 272.56855957031075,
      "v": 64
    },
    {
      "midi": 45,
      "hit": false,
      "t": 57180.19444628927,
      "d": 272.56855957031075,
      "v": 64
    },
    {
      "midi": 33,
      "hit": false,
      "t": 57470.93424316412,
      "d": 142.4390537109357,
      "v": 61
    },
    {
      "midi": 33,
      "hit": false,
      "t": 57470.93424316427,
      "d": 142.4390537109357,
      "v": 61
    },
    {
      "midi": 74,
      "hit": false,
      "t": 57625.09667578131,
      "d": 299.53233105468826,
      "v": 69
    },
    {
      "midi": 43,
      "hit": false,
      "t": 57625.09667578131,
      "d": 614.8912236328179,
      "v": 69
    },
    {
      "midi": 43,
      "hit": false,
      "t": 57625.09667578146,
      "d": 614.8912236328106,
      "v": 69
    },
    {
      "midi": 71,
      "hit": false,
      "t": 57625.09667578146,
      "d": 1209.8527031249978,
      "v": 69
    },
    {
      "midi": 76,
      "hit": false,
      "t": 57942.800244140686,
      "d": 279.6025869140649,
      "v": 64
    },
    {
      "midi": 78,
      "hit": false,
      "t": 58240.57406835944,
      "d": 594.3753105468786,
      "v": 65
    },
    {
      "midi": 43,
      "hit": false,
      "t": 58536.589385742256,
      "d": 144.78372949218465,
      "v": 52
    },
    {
      "midi": 43,
      "hit": false,
      "t": 58536.589385742394,
      "d": 144.78372949218465,
      "v": 52
    },
    {
      "midi": 43,
      "hit": false,
      "t": 58681.95928417976,
      "d": 161.78262890625774,
      "v": 52
    },
    {
      "midi": 43,
      "hit": false,
      "t": 58681.959284179895,
      "d": 161.78262890625774,
      "v": 52
    },
    {
      "midi": 40,
      "hit": false,
      "t": 58835.535547851636,
      "d": 443.7298916015643,
      "v": 66
    },
    {
      "midi": 79,
      "hit": false,
      "t": 58835.535547851636,
      "d": 594.3753105468713,
      "v": 67
    },
    {
      "midi": 71,
      "hit": false,
      "t": 58835.535547851774,
      "d": 190.50490722656832,
      "v": 67
    },
    {
      "midi": 40,
      "hit": false,
      "t": 58835.535547851774,
      "d": 443.7298916015643,
      "v": 66
    },
    {
      "midi": 73,
      "hit": false,
      "t": 59038.3500029299,
      "d": 180.54003515624936,
      "v": 64
    },
    {
      "midi": 74,
      "hit": false,
      "t": 59231.19958593771,
      "d": 186.98789355468762,
      "v": 64
    },
    {
      "midi": 52,
      "hit": false,
      "t": 59326.74512402351,
      "d": 381.59598339843797,
      "v": 64
    },
    {
      "midi": 52,
      "hit": false,
      "t": 59326.74512402365,
      "d": 381.59598339843797,
      "v": 64
    },
    {
      "midi": 78,
      "hit": false,
      "t": 59430.49702734382,
      "d": 277.84408007812453,
      "v": 65
    },
    {
      "midi": 76,
      "hit": false,
      "t": 59430.49702734396,
      "d": 186.98789355468762,
      "v": 65
    },
    {
      "midi": 74,
      "hit": false,
      "t": 59629.79446875021,
      "d": 181.12620410156524,
      "v": 64
    },
    {
      "midi": 76,
      "hit": false,
      "t": 59726.51234472664,
      "d": 279.016417968749,
      "v": 64
    },
    {
      "midi": 40,
      "hit": false,
      "t": 59726.51234472664,
      "d": 279.016417968749,
      "v": 63
    },
    {
      "midi": 40,
      "hit": false,
      "t": 59726.512344726776,
      "d": 279.016417968749,
      "v": 63
    },
    {
      "midi": 73,
      "hit": false,
      "t": 59823.230220703335,
      "d": 188.1602314453121,
      "v": 64
    },
    {
      "midi": 81,
      "hit": false,
      "t": 60026.044675781326,
      "d": 614.8912236328106,
      "v": 69
    },
    {
      "midi": 45,
      "hit": false,
      "t": 60026.044675781326,
      "d": 614.8912236328106,
      "v": 69
    },
    {
      "midi": 74,
      "hit": false,
      "t": 60026.04467578146,
      "d": 614.8912236328106,
      "v": 69
    },
    {
      "midi": 45,
      "hit": false,
      "t": 60026.04467578146,
      "d": 614.8912236328106,
      "v": 69
    },
    {
      "midi": 79,
      "hit": false,
      "t": 60641.52206835945,
      "d": 277.84408007812453,
      "v": 65
    },
    {
      "midi": 76,
      "hit": false,
      "t": 60641.52206835958,
      "d": 277.84408007812453,
      "v": 65
    },
    {
      "midi": 45,
      "hit": false,
      "t": 60937.53738574227,
      "d": 135.99119531249744,
      "v": 64
    },
    {
      "midi": 78,
      "hit": false,
      "t": 60937.53738574227,
      "d": 280.77492480468936,
      "v": 64
    },
    {
      "midi": 45,
      "hit": false,
      "t": 60937.5373857424,
      "d": 135.99119531249744,
      "v": 64
    },
    {
      "midi": 74,
      "hit": false,
      "t": 60937.5373857424,
      "d": 280.77492480468936,
      "v": 64
    },
    {
      "midi": 33,
      "hit": false,
      "t": 61082.90728417977,
      "d": 144.19756054687605,
      "v": 61
    },
    {
      "midi": 33,
      "hit": false,
      "t": 61082.9072841799,
      "d": 144.19756054687605,
      "v": 61
    },
    {
      "midi": 45,
      "hit": false,
      "t": 61236.48354785165,
      "d": 153.57626367187186,
      "v": 67
    },
    {
      "midi": 76,
      "hit": false,
      "t": 61236.48354785165,
      "d": 594.3753105468786,
      "v": 67
    },
    {
      "midi": 45,
      "hit": false,
      "t": 61236.48354785178,
      "d": 153.57626367187186,
      "v": 67
    },
    {
      "midi": 73,
      "hit": false,
      "t": 61236.48354785178,
      "d": 594.3753105468786,
      "v": 67
    },
    {
      "midi": 45,
      "hit": false,
      "t": 61390.645980468835,
      "d": 289.5674589843766,
      "v": 64
    },
    {
      "midi": 45,
      "hit": false,
      "t": 61390.645980468966,
      "d": 289.5674589843766,
      "v": 64
    },
    {
      "midi": 45,
      "hit": false,
      "t": 61680.79960839853,
      "d": 141.26671582031122,
      "v": 64
    },
    {
      "midi": 45,
      "hit": false,
      "t": 61680.79960839866,
      "d": 141.26671582031122,
      "v": 64
    },
    {
      "midi": 66,
      "hit": false,
      "t": 61831.44502734384,
      "d": 277.84408007812453,
      "v": 65
    },
    {
      "midi": 71,
      "hit": false,
      "t": 61831.44502734397,
      "d": 277.84408007812453,
      "v": 65
    },
    {
      "midi": 45,
      "hit": false,
      "t": 61982.090446289156,
      "d": 272.56855957031075,
      "v": 64
    },
    {
      "midi": 45,
      "hit": false,
      "t": 61982.09044628929,
      "d": 272.56855957031075,
      "v": 64
    },
    {
      "midi": 64,
      "hit": false,
      "t": 62127.460344726656,
      "d": 279.016417968749,
      "v": 64
    },
    {
      "midi": 73,
      "hit": false,
      "t": 62127.46034472679,
      "d": 279.016417968749,
      "v": 64
    },
    {
      "midi": 33,
      "hit": false,
      "t": 62272.83024316416,
      "d": 142.4390537109357,
      "v": 61
    },
    {
      "midi": 33,
      "hit": false,
      "t": 62272.83024316429,
      "d": 142.4390537109357,
      "v": 61
    },
    {
      "midi": 66,
      "hit": false,
      "t": 62426.992675781345,
      "d": 299.53233105468826,
      "v": 69
    },
    {
      "midi": 38,
      "hit": false,
      "t": 62426.992675781345,
      "d": 614.8912236328179,
      "v": 68
    },
    {
      "midi": 74,
      "hit": false,
      "t": 62426.992675781476,
      "d": 299.53233105468826,
      "v": 69
    },
    {
      "midi": 38,
      "hit": false,
      "t": 62426.992675781476,
      "d": 614.8912236328179,
      "v": 68
    },
    {
      "midi": 62,
      "hit": false,
      "t": 62744.69624414072,
      "d": 279.6025869140649,
      "v": 64
    },
    {
      "midi": 69,
      "hit": false,
      "t": 62744.696244140854,
      "d": 279.6025869140649,
      "v": 64
    },
    {
      "midi": 57,
      "hit": false,
      "t": 63042.47006835948,
      "d": 594.3753105468786,
      "v": 65
    },
    {
      "midi": 74,
      "hit": false,
      "t": 63042.47006835961,
      "d": 277.84408007812453,
      "v": 65
    },
    {
      "midi": 38,
      "hit": false,
      "t": 63338.48538574229,
      "d": 144.78372949218465,
      "v": 63
    },
    {
      "midi": 76,
      "hit": false,
      "t": 63338.485385742424,
      "d": 135.99119531249744,
      "v": 64
    },
    {
      "midi": 38,
      "hit": false,
      "t": 63338.485385742424,
      "d": 144.78372949218465,
      "v": 63
    },
    {
      "midi": 38,
      "hit": false,
      "t": 63483.855284179794,
      "d": 144.19756054687605,
      "v": 63
    },
    {
      "midi": 78,
      "hit": false,
      "t": 63483.855284179925,
      "d": 144.19756054687605,
      "v": 64
    },
    {
      "midi": 38,
      "hit": false,
      "t": 63483.855284179925,
      "d": 144.19756054687605,
      "v": 63
    },
    {
      "midi": 43,
      "hit": false,
      "t": 63637.43154785167,
      "d": 144.78372949218465,
      "v": 67
    },
    {
      "midi": 64,
      "hit": false,
      "t": 63637.43154785167,
      "d": 443.7298916015643,
      "v": 67
    },
    {
      "midi": 43,
      "hit": false,
      "t": 63637.431547851804,
      "d": 144.78372949218465,
      "v": 67
    },
    {
      "midi": 79,
      "hit": false,
      "t": 63637.431547851804,
      "d": 443.7298916015643,
      "v": 67
    },
    {
      "midi": 38,
      "hit": false,
      "t": 63791.59398046886,
      "d": 271.98239062500215,
      "v": 63
    },
    {
      "midi": 38,
      "hit": false,
      "t": 63791.59398046899,
      "d": 271.98239062500215,
      "v": 63
    },
    {
      "midi": 46,
      "hit": false,
      "t": 64081.74760839855,
      "d": 291.9121347656255,
      "v": 64
    },
    {
      "midi": 66,
      "hit": false,
      "t": 64081.74760839855,
      "d": 428.48949902343884,
      "v": 64
    },
    {
      "midi": 46,
      "hit": false,
      "t": 64081.747608398684,
      "d": 291.9121347656255,
      "v": 64
    },
    {
      "midi": 78,
      "hit": false,
      "t": 64081.747608398684,
      "d": 428.48949902343884,
      "v": 64
    },
    {
      "midi": 38,
      "hit": false,
      "t": 64383.03844628918,
      "d": 135.99119531249744,
      "v": 63
    },
    {
      "midi": 38,
      "hit": false,
      "t": 64383.03844628931,
      "d": 135.99119531249744,
      "v": 63
    },
    {
      "midi": 50,
      "hit": false,
      "t": 64528.40834472668,
      "d": 135.99119531249744,
      "v": 64
    },
    {
      "midi": 67,
      "hit": false,
      "t": 64528.40834472668,
      "d": 279.016417968749,
      "v": 64
    },
    {
      "midi": 50,
      "hit": false,
      "t": 64528.40834472681,
      "d": 135.99119531249744,
      "v": 64
    },
    {
      "midi": 76,
      "hit": false,
      "t": 64528.40834472681,
      "d": 279.016417968749,
      "v": 64
    },
    {
      "midi": 43,
      "hit": false,
      "t": 64673.77824316418,
      "d": 142.4390537109357,
      "v": 64
    },
    {
      "midi": 43,
      "hit": false,
      "t": 64673.77824316431,
      "d": 142.4390537109357,
      "v": 64
    },
    {
      "midi": 38,
      "hit": false,
      "t": 64827.94067578137,
      "d": 171.16133203125355,
      "v": 68
    },
    {
      "midi": 66,
      "hit": false,
      "t": 64827.94067578137,
      "d": 208.08997558594274,
      "v": 69
    },
    {
      "midi": 38,
      "hit": false,
      "t": 64827.9406757815,
      "d": 171.16133203125355,
      "v": 68
    },
    {
      "midi": 78,
      "hit": false,
      "t": 64827.9406757815,
      "d": 614.8912236328179,
      "v": 69
    },
    {
      "midi": 38,
      "hit": false,
      "t": 64999.68817675794,
      "d": 291.32596582030965,
      "v": 63
    },
    {
      "midi": 38,
      "hit": false,
      "t": 64999.68817675807,
      "d": 291.32596582030965,
      "v": 63
    },
    {
      "midi": 67,
      "hit": false,
      "t": 65048.340199218874,
      "d": 182.2985419921897,
      "v": 64
    },
    {
      "midi": 66,
      "hit": false,
      "t": 65242.948289062624,
      "d": 188.16023144531937,
      "v": 64
    },
    {
      "midi": 38,
      "hit": false,
      "t": 65291.600311523565,
      "d": 142.43905371094297,
      "v": 63
    },
    {
      "midi": 38,
      "hit": false,
      "t": 65291.600311523696,
      "d": 142.4390537109357,
      "v": 63
    },
    {
      "midi": 62,
      "hit": false,
      "t": 65443.41806835951,
      "d": 187.57406249999622,
      "v": 65
    },
    {
      "midi": 78,
      "hit": false,
      "t": 65443.418068359635,
      "d": 187.5740625000035,
      "v": 65
    },
    {
      "midi": 64,
      "hit": false,
      "t": 65643.30167871107,
      "d": 180.54003515625664,
      "v": 64
    },
    {
      "midi": 79,
      "hit": false,
      "t": 65643.3016787112,
      "d": 180.54003515625664,
      "v": 64
    },
    {
      "midi": 50,
      "hit": false,
      "t": 65739.43338574232,
      "d": 135.99119531249744,
      "v": 64
    },
    {
      "midi": 50,
      "hit": false,
      "t": 65739.43338574245,
      "d": 135.99119531249744,
      "v": 64
    },
    {
      "midi": 62,
      "hit": false,
      "t": 65836.15126171889,
      "d": 189.9187382812379,
      "v": 64
    },
    {
      "midi": 78,
      "hit": false,
      "t": 65836.15126171902,
      "d": 189.9187382812379,
      "v": 64
    },
    {
      "midi": 38,
      "hit": false,
      "t": 65884.80328417981,
      "d": 144.19756054687605,
      "v": 63
    },
    {
      "midi": 38,
      "hit": false,
      "t": 65884.80328417994,
      "d": 144.19756054687605,
      "v": 63
    },
    {
      "midi": 49,
      "hit": false,
      "t": 66038.37954785168,
      "d": 144.78372949219192,
      "v": 67
    },
    {
      "midi": 64,
      "hit": false,
      "t": 66038.37954785168,
      "d": 594.3753105468786,
      "v": 67
    },
    {
      "midi": 49,
      "hit": false,
      "t": 66038.37954785182,
      "d": 144.78372949219192,
      "v": 67
    },
    {
      "midi": 76,
      "hit": false,
      "t": 66038.37954785182,
      "d": 594.3753105468786,
      "v": 67
    },
    {
      "midi": 37,
      "hit": false,
      "t": 66192.54198046887,
      "d": 289.5674589843693,
      "v": 63
    },
    {
      "midi": 37,
      "hit": false,
      "t": 66192.541980469,
      "d": 289.5674589843693,
      "v": 63
    },
    {
      "midi": 37,
      "hit": false,
      "t": 66482.69560839856,
      "d": 141.26671582031122,
      "v": 63
    },
    {
      "midi": 37,
      "hit": false,
      "t": 66482.69560839869,
      "d": 141.26671582031122,
      "v": 63
    },
    {
      "midi": 61,
      "hit": false,
      "t": 66633.34102734388,
      "d": 592.6168037109455,
      "v": 65
    },
    {
      "midi": 78,
      "hit": false,
      "t": 66633.34102734401,
      "d": 592.6168037109455,
      "v": 65
    },
    {
      "midi": 46,
      "hit": false,
      "t": 67074.72624316419,
      "d": 142.43905371094297,
      "v": 64
    },
    {
      "midi": 46,
      "hit": false,
      "t": 67074.72624316432,
      "d": 142.43905371094297,
      "v": 64
    },
    {
      "midi": 71,
      "hit": false,
      "t": 67228.88867578139,
      "d": 208.08997558594274,
      "v": 69
    },
    {
      "midi": 47,
      "hit": false,
      "t": 67228.88867578139,
      "d": 463.0734667968791,
      "v": 69
    },
    {
      "midi": 83,
      "hit": false,
      "t": 67228.88867578152,
      "d": 208.08997558594274,
      "v": 69
    },
    {
      "midi": 47,
      "hit": false,
      "t": 67228.88867578152,
      "d": 463.0734667968791,
      "v": 69
    },
    {
      "midi": 66,
      "hit": false,
      "t": 67449.28819921889,
      "d": 182.2985419921897,
      "v": 64
    },
    {
      "midi": 78,
      "hit": false,
      "t": 67449.28819921902,
      "d": 182.2985419921897,
      "v": 64
    },
    {
      "midi": 62,
      "hit": false,
      "t": 67643.89628906264,
      "d": 188.16023144530482,
      "v": 64
    },
    {
      "midi": 74,
      "hit": false,
      "t": 67643.89628906277,
      "d": 188.16023144530482,
      "v": 64
    },
    {
      "midi": 47,
      "hit": false,
      "t": 67739.44182714858,
      "d": 95.54553808593482,
      "v": 64
    },
    {
      "midi": 47,
      "hit": false,
      "t": 67739.44182714871,
      "d": 95.54553808593482,
      "v": 64
    },
    {
      "midi": 66,
      "hit": false,
      "t": 67844.36606835951,
      "d": 187.5740625000035,
      "v": 65
    },
    {
      "midi": 78,
      "hit": false,
      "t": 67844.36606835964,
      "d": 187.5740625000035,
      "v": 65
    },
    {
      "midi": 62,
      "hit": false,
      "t": 68044.24967871107,
      "d": 180.54003515625664,
      "v": 64
    },
    {
      "midi": 74,
      "hit": false,
      "t": 68044.2496787112,
      "d": 180.54003515625664,
      "v": 64
    },
    {
      "midi": 47,
      "hit": false,
      "t": 68140.38138574232,
      "d": 135.99119531249744,
      "v": 64
    },
    {
      "midi": 47,
      "hit": false,
      "t": 68140.38138574245,
      "d": 135.99119531249744,
      "v": 64
    },
    {
      "midi": 54,
      "hit": false,
      "t": 68237.09926171889,
      "d": 189.9187382812379,
      "v": 64
    },
    {
      "midi": 66,
      "hit": false,
      "t": 68237.09926171902,
      "d": 189.9187382812379,
      "v": 64
    },
    {
      "midi": 35,
      "hit": false,
      "t": 68285.75128417982,
      "d": 144.19756054687605,
      "v": 62
    },
    {
      "midi": 35,
      "hit": false,
      "t": 68285.75128417995,
      "d": 144.19756054687605,
      "v": 62
    },
    {
      "midi": 52,
      "hit": false,
      "t": 68439.32754785169,
      "d": 153.57626367187186,
      "v": 67
    },
    {
      "midi": 55,
      "hit": false,
      "t": 68439.32754785169,
      "d": 190.50490722656832,
      "v": 67
    },
    {
      "midi": 52,
      "hit": false,
      "t": 68439.32754785182,
      "d": 153.57626367187186,
      "v": 67
    },
    {
      "midi": 67,
      "hit": false,
      "t": 68439.32754785182,
      "d": 190.50490722656832,
      "v": 67
    },
    {
      "midi": 52,
      "hit": false,
      "t": 68593.48998046888,
      "d": 271.98239062500943,
      "v": 64
    },
    {
      "midi": 52,
      "hit": false,
      "t": 68593.489980469,
      "d": 271.98239062500943,
      "v": 64
    },
    {
      "midi": 59,
      "hit": false,
      "t": 68642.14200292982,
      "d": 180.54003515625664,
      "v": 64
    },
    {
      "midi": 71,
      "hit": false,
      "t": 68642.14200292995,
      "d": 180.54003515625664,
      "v": 64
    },
    {
      "midi": 64,
      "hit": false,
      "t": 68834.99158593763,
      "d": 186.98789355468762,
      "v": 64
    },
    {
      "midi": 76,
      "hit": false,
      "t": 68834.99158593777,
      "d": 186.98789355468762,
      "v": 64
    },
    {
      "midi": 40,
      "hit": false,
      "t": 68883.64360839858,
      "d": 300.70466894531273,
      "v": 63
    },
    {
      "midi": 40,
      "hit": false,
      "t": 68883.6436083987,
      "d": 300.70466894531273,
      "v": 63
    },
    {
      "midi": 59,
      "hit": false,
      "t": 69034.28902734388,
      "d": 186.98789355470217,
      "v": 65
    },
    {
      "midi": 71,
      "hit": false,
      "t": 69034.28902734401,
      "d": 186.98789355470217,
      "v": 65
    },
    {
      "midi": 40,
      "hit": false,
      "t": 69184.9344462892,
      "d": 135.99119531249744,
      "v": 63
    },
    {
      "midi": 40,
      "hit": false,
      "t": 69184.93444628934,
      "d": 135.99119531249744,
      "v": 63
    },
    {
      "midi": 64,
      "hit": false,
      "t": 69233.58646875015,
      "d": 181.12620410155796,
      "v": 64
    },
    {
      "midi": 76,
      "hit": false,
      "t": 69233.58646875028,
      "d": 181.12620410155796,
      "v": 64
    },
    {
      "midi": 47,
      "hit": false,
      "t": 69330.3043447267,
      "d": 135.99119531249744,
      "v": 64
    },
    {
      "midi": 47,
      "hit": false,
      "t": 69330.30434472683,
      "d": 135.99119531249744,
      "v": 64
    },
    {
      "midi": 67,
      "hit": false,
      "t": 69427.02222070326,
      "d": 188.16023144530482,
      "v": 64
    },
    {
      "midi": 79,
      "hit": false,
      "t": 69427.0222207034,
      "d": 188.16023144530482,
      "v": 64
    },
    {
      "midi": 40,
      "hit": false,
      "t": 69475.67424316419,
      "d": 142.43905371094297,
      "v": 63
    },
    {
      "midi": 40,
      "hit": false,
      "t": 69475.67424316432,
      "d": 142.43905371094297,
      "v": 63
    },
    {
      "midi": 45,
      "hit": false,
      "t": 69629.83667578138,
      "d": 171.16133203124627,
      "v": 69
    },
    {
      "midi": 69,
      "hit": false,
      "t": 69629.83667578138,
      "d": 614.8912236328324,
      "v": 69
    },
    {
      "midi": 45,
      "hit": false,
      "t": 69629.83667578151,
      "d": 171.16133203124627,
      "v": 69
    },
    {
      "midi": 81,
      "hit": false,
      "t": 69629.83667578151,
      "d": 614.8912236328324,
      "v": 69
    },
    {
      "midi": 45,
      "hit": false,
      "t": 69801.58417675794,
      "d": 291.3259658203169,
      "v": 64
    },
    {
      "midi": 45,
      "hit": false,
      "t": 69801.58417675807,
      "d": 291.3259658203169,
      "v": 64
    },
    {
      "midi": 45,
      "hit": false,
      "t": 70093.49631152357,
      "d": 142.43905371094297,
      "v": 64
    },
    {
      "midi": 45,
      "hit": false,
      "t": 70093.4963115237,
      "d": 142.43905371094297,
      "v": 64
    },
    {
      "midi": 67,
      "hit": false,
      "t": 70445.19767871109,
      "d": 180.54003515625664,
      "v": 64
    },
    {
      "midi": 76,
      "hit": false,
      "t": 70445.19767871122,
      "d": 180.54003515625664,
      "v": 64
    },
    {
      "midi": 45,
      "hit": false,
      "t": 70541.32938574234,
      "d": 144.78372949219192,
      "v": 52
    },
    {
      "midi": 45,
      "hit": false,
      "t": 70541.32938574247,
      "d": 144.78372949219192,
      "v": 52
    },
    {
      "midi": 66,
      "hit": false,
      "t": 70638.04726171891,
      "d": 189.91873828125244,
      "v": 64
    },
    {
      "midi": 83,
      "hit": false,
      "t": 70638.04726171904,
      "d": 189.91873828125244,
      "v": 64
    },
    {
      "midi": 45,
      "hit": false,
      "t": 70686.69928417985,
      "d": 152.99009472655598,
      "v": 52
    },
    {
      "midi": 45,
      "hit": false,
      "t": 70686.69928417998,
      "d": 152.99009472655598,
      "v": 52
    },
    {
      "midi": 64,
      "hit": false,
      "t": 70840.27554785172,
      "d": 1187.5782832031255,
      "v": 67
    },
    {
      "midi": 45,
      "hit": false,
      "t": 70840.27554785172,
      "d": 1187.5782832031255,
      "v": 67
    },
    {
      "midi": 81,
      "hit": false,
      "t": 70840.27554785185,
      "d": 1187.5782832031255,
      "v": 67
    },
    {
      "midi": 45,
      "hit": false,
      "t": 70840.27554785185,
      "d": 1187.5782832031255,
      "v": 67
    },
    {
      "midi": 74,
      "hit": false,
      "t": 72030.78467578154,
      "d": 299.532331054681,
      "v": 69
    },
    {
      "midi": 38,
      "hit": false,
      "t": 72030.78467578154,
      "d": 1209.8527031249978,
      "v": 68
    },
    {
      "midi": 69,
      "hit": false,
      "t": 72348.48824414091,
      "d": 279.6025869140576,
      "v": 64
    },
    {
      "midi": 69,
      "hit": false,
      "t": 72646.26206835955,
      "d": 1189.3367900390585,
      "v": 65
    },
    {
      "midi": 74,
      "hit": false,
      "t": 72646.26206835966,
      "d": 594.3753105468786,
      "v": 65
    },
    {
      "midi": 76,
      "hit": false,
      "t": 73241.22354785186,
      "d": 594.3753105468786,
      "v": 67
    },
    {
      "midi": 45,
      "hit": false,
      "t": 73241.22354785186,
      "d": 1187.5782832031255,
      "v": 67
    },
    {
      "midi": 76,
      "hit": false,
      "t": 73836.18502734392,
      "d": 592.616803710931,
      "v": 65
    },
    {
      "midi": 79,
      "hit": false,
      "t": 73836.18502734405,
      "d": 592.616803710931,
      "v": 65
    },
    {
      "midi": 74,
      "hit": false,
      "t": 74431.73267578142,
      "d": 1209.8527031249978,
      "v": 69
    },
    {
      "midi": 78,
      "hit": false,
      "t": 74431.73267578155,
      "d": 208.08997558594274,
      "v": 69
    },
    {
      "midi": 47,
      "hit": false,
      "t": 74431.73267578155,
      "d": 1209.8527031250123,
      "v": 69
    },
    {
      "midi": 79,
      "hit": false,
      "t": 74652.13219921905,
      "d": 182.2985419921897,
      "v": 64
    },
    {
      "midi": 78,
      "hit": false,
      "t": 74846.7402890628,
      "d": 188.16023144531937,
      "v": 64
    },
    {
      "midi": 76,
      "hit": false,
      "t": 75047.21006835968,
      "d": 277.84408007812453,
      "v": 65
    },
    {
      "midi": 74,
      "hit": false,
      "t": 75343.2253857425,
      "d": 280.77492480468936,
      "v": 64
    },
    {
      "midi": 73,
      "hit": false,
      "t": 75642.17154785173,
      "d": 594.3753105468786,
      "v": 67
    },
    {
      "midi": 76,
      "hit": false,
      "t": 75642.17154785187,
      "d": 594.3753105468786,
      "v": 67
    },
    {
      "midi": 45,
      "hit": false,
      "t": 75642.17154785187,
      "d": 1187.5782832031255,
      "v": 67
    },
    {
      "midi": 69,
      "hit": false,
      "t": 76237.13302734392,
      "d": 592.616803710931,
      "v": 65
    },
    {
      "midi": 73,
      "hit": false,
      "t": 76237.13302734407,
      "d": 592.616803710931,
      "v": 65
    },
    {
      "midi": 74,
      "hit": false,
      "t": 76832.68067578156,
      "d": 299.532331054681,
      "v": 69
    },
    {
      "midi": 38,
      "hit": false,
      "t": 76832.68067578156,
      "d": 1209.8527031249978,
      "v": 68
    },
    {
      "midi": 76,
      "hit": false,
      "t": 77150.38424414094,
      "d": 279.6025869140576,
      "v": 64
    },
    {
      "midi": 69,
      "hit": false,
      "t": 77448.15806835954,
      "d": 594.3753105468786,
      "v": 65
    },
    {
      "midi": 78,
      "hit": false,
      "t": 77448.15806835968,
      "d": 594.3753105468786,
      "v": 65
    },
    {
      "midi": 71,
      "hit": false,
      "t": 78043.11954785173,
      "d": 1187.5782832031255,
      "v": 67
    },
    {
      "midi": 79,
      "hit": false,
      "t": 78043.11954785188,
      "d": 594.3753105468786,
      "v": 67
    },
    {
      "midi": 40,
      "hit": false,
      "t": 78043.11954785188,
      "d": 1187.57828320314,
      "v": 66
    },
    {
      "midi": 78,
      "hit": false,
      "t": 78638.08102734407,
      "d": 277.84408007812453,
      "v": 65
    },
    {
      "midi": 76,
      "hit": false,
      "t": 78934.09634472689,
      "d": 279.0164179687563,
      "v": 64
    },
    {
      "midi": 74,
      "hit": false,
      "t": 79233.62867578142,
      "d": 1209.8527031249978,
      "v": 69
    },
    {
      "midi": 81,
      "hit": false,
      "t": 79233.62867578158,
      "d": 614.8912236328179,
      "v": 69
    },
    {
      "midi": 45,
      "hit": false,
      "t": 79233.62867578158,
      "d": 1209.8527031250123,
      "v": 69
    },
    {
      "midi": 79,
      "hit": false,
      "t": 79849.10606835972,
      "d": 277.84408007812453,
      "v": 65
    },
    {
      "midi": 78,
      "hit": false,
      "t": 80145.12138574253,
      "d": 280.77492480468936,
      "v": 64
    },
    {
      "midi": 73,
      "hit": false,
      "t": 80444.06754785174,
      "d": 594.3753105468786,
      "v": 67
    },
    {
      "midi": 76,
      "hit": false,
      "t": 80444.06754785191,
      "d": 594.3753105468786,
      "v": 67
    },
    {
      "midi": 45,
      "hit": false,
      "t": 80444.06754785191,
      "d": 594.3753105468786,
      "v": 67
    },
    {
      "midi": 69,
      "hit": false,
      "t": 81039.02902734393,
      "d": 592.6168037109455,
      "v": 65
    },
    {
      "midi": 78,
      "hit": false,
      "t": 81039.0290273441,
      "d": 277.84408007812453,
      "v": 65
    },
    {
      "midi": 37,
      "hit": false,
      "t": 81039.0290273441,
      "d": 592.6168037109455,
      "v": 64
    },
    {
      "midi": 76,
      "hit": false,
      "t": 81335.04434472692,
      "d": 279.0164179687563,
      "v": 64
    },
    {
      "midi": 50,
      "hit": false,
      "t": 81634.57667578144,
      "d": 614.8912236328033,
      "v": 69
    },
    {
      "midi": 74,
      "hit": false,
      "t": 81634.57667578162,
      "d": 299.532331054681,
      "v": 69
    },
    {
      "midi": 38,
      "hit": false,
      "t": 81634.57667578162,
      "d": 1209.8527031249978,
      "v": 68
    },
    {
      "midi": 57,
      "hit": false,
      "t": 81952.28024414081,
      "d": 315.3588925781223,
      "v": 52
    },
    {
      "midi": 69,
      "hit": false,
      "t": 81952.28024414099,
      "d": 279.6025869140576,
      "v": 64
    },
    {
      "midi": 62,
      "hit": false,
      "t": 82250.05406835956,
      "d": 313.60038574218925,
      "v": 53
    },
    {
      "midi": 74,
      "hit": false,
      "t": 82250.05406835974,
      "d": 594.3753105468786,
      "v": 65
    },
    {
      "midi": 69,
      "hit": false,
      "t": 82250.05406835974,
      "d": 1189.336790039073,
      "v": 65
    },
    {
      "midi": 66,
      "hit": false,
      "t": 82546.06938574238,
      "d": 316.5312304687541,
      "v": 52
    },
    {
      "midi": 49,
      "hit": false,
      "t": 82845.01554785176,
      "d": 594.3753105468786,
      "v": 67
    },
    {
      "midi": 76,
      "hit": false,
      "t": 82845.01554785193,
      "d": 594.3753105468786,
      "v": 67
    },
    {
      "midi": 33,
      "hit": false,
      "t": 82845.01554785193,
      "d": 1187.5782832031255,
      "v": 64
    },
    {
      "midi": 57,
      "hit": false,
      "t": 83143.96170996114,
      "d": 313.60038574218925,
      "v": 52
    },
    {
      "midi": 61,
      "hit": false,
      "t": 83439.97702734395,
      "d": 313.60038574218925,
      "v": 53
    },
    {
      "midi": 79,
      "hit": false,
      "t": 83439.97702734412,
      "d": 592.616803710931,
      "v": 65
    },
    {
      "midi": 76,
      "hit": false,
      "t": 83439.97702734412,
      "d": 592.616803710931,
      "v": 65
    },
    {
      "midi": 64,
      "hit": false,
      "t": 83735.99234472676,
      "d": 314.77272363280645,
      "v": 52
    },
    {
      "midi": 47,
      "hit": false,
      "t": 84035.52467578145,
      "d": 614.8912236328033,
      "v": 69
    },
    {
      "midi": 78,
      "hit": false,
      "t": 84035.52467578162,
      "d": 208.08997558594274,
      "v": 69
    },
    {
      "midi": 35,
      "hit": false,
      "t": 84035.52467578162,
      "d": 1209.8527031250123,
      "v": 67
    },
    {
      "midi": 79,
      "hit": false,
      "t": 84255.92419921912,
      "d": 182.2985419921897,
      "v": 64
    },
    {
      "midi": 54,
      "hit": false,
      "t": 84353.22824414082,
      "d": 315.3588925781223,
      "v": 52
    },
    {
      "midi": 78,
      "hit": false,
      "t": 84450.53228906287,
      "d": 188.16023144531937,
      "v": 64
    },
    {
      "midi": 59,
      "hit": false,
      "t": 84651.00206835956,
      "d": 313.60038574218925,
      "v": 53
    },
    {
      "midi": 76,
      "hit": false,
      "t": 84651.00206835975,
      "d": 277.84408007812453,
      "v": 65
    },
    {
      "midi": 62,
      "hit": false,
      "t": 84947.01738574238,
      "d": 316.5312304687541,
      "v": 52
    },
    {
      "midi": 74,
      "hit": false,
      "t": 84947.01738574257,
      "d": 280.77492480468936,
      "v": 64
    },
    {
      "midi": 45,
      "hit": false,
      "t": 85245.96354785176,
      "d": 280.7749248046748,
      "v": 67
    },
    {
      "midi": 76,
      "hit": false,
      "t": 85245.96354785195,
      "d": 594.3753105468786,
      "v": 67
    },
    {
      "midi": 73,
      "hit": false,
      "t": 85245.96354785195,
      "d": 594.3753105468786,
      "v": 67
    },
    {
      "midi": 37,
      "hit": false,
      "t": 85245.96354785195,
      "d": 1187.5782832031255,
      "v": 66
    },
    {
      "midi": 52,
      "hit": false,
      "t": 85544.90970996112,
      "d": 277.84408007812453,
      "v": 64
    },
    {
      "midi": 57,
      "hit": false,
      "t": 85840.92502734394,
      "d": 277.84408007812453,
      "v": 65
    },
    {
      "midi": 73,
      "hit": false,
      "t": 85840.92502734414,
      "d": 592.616803710931,
      "v": 65
    },
    {
      "midi": 69,
      "hit": false,
      "t": 85840.92502734414,
      "d": 592.616803710931,
      "v": 65
    },
    {
      "midi": 61,
      "hit": false,
      "t": 86136.94034472675,
      "d": 279.0164179687563,
      "v": 64
    },
    {
      "midi": 45,
      "hit": false,
      "t": 86436.47267578145,
      "d": 614.8912236328033,
      "v": 69
    },
    {
      "midi": 74,
      "hit": false,
      "t": 86436.47267578164,
      "d": 299.532331054681,
      "v": 69
    },
    {
      "midi": 38,
      "hit": false,
      "t": 86436.47267578164,
      "d": 1209.8527031249978,
      "v": 68
    },
    {
      "midi": 54,
      "hit": false,
      "t": 86754.17624414082,
      "d": 279.6025869140576,
      "v": 64
    },
    {
      "midi": 76,
      "hit": false,
      "t": 86754.17624414101,
      "d": 279.6025869140576,
      "v": 64
    },
    {
      "midi": 57,
      "hit": false,
      "t": 87051.95006835957,
      "d": 277.84408007812453,
      "v": 65
    },
    {
      "midi": 78,
      "hit": false,
      "t": 87051.95006835976,
      "d": 594.3753105468786,
      "v": 65
    },
    {
      "midi": 69,
      "hit": false,
      "t": 87051.95006835976,
      "d": 594.3753105468786,
      "v": 65
    },
    {
      "midi": 62,
      "hit": false,
      "t": 87347.96538574238,
      "d": 280.77492480468936,
      "v": 64
    },
    {
      "midi": 47,
      "hit": false,
      "t": 87646.91154785176,
      "d": 594.3753105468786,
      "v": 67
    },
    {
      "midi": 79,
      "hit": false,
      "t": 87646.91154785195,
      "d": 594.3753105468786,
      "v": 67
    },
    {
      "midi": 71,
      "hit": false,
      "t": 87646.91154785195,
      "d": 1187.57828320314,
      "v": 67
    },
    {
      "midi": 40,
      "hit": false,
      "t": 87646.91154785195,
      "d": 1187.57828320314,
      "v": 66
    },
    {
      "midi": 55,
      "hit": false,
      "t": 87945.85770996114,
      "d": 277.84408007812453,
      "v": 64
    },
    {
      "midi": 59,
      "hit": false,
      "t": 88241.87302734396,
      "d": 277.84408007812453,
      "v": 65
    },
    {
      "midi": 78,
      "hit": false,
      "t": 88241.87302734415,
      "d": 277.84408007812453,
      "v": 65
    },
    {
      "midi": 64,
      "hit": false,
      "t": 88537.88834472677,
      "d": 279.0164179687563,
      "v": 64
    },
    {
      "midi": 76,
      "hit": false,
      "t": 88537.88834472696,
      "d": 279.0164179687563,
      "v": 64
    },
    {
      "midi": 50,
      "hit": false,
      "t": 88837.42067578147,
      "d": 614.8912236328033,
      "v": 69
    },
    {
      "midi": 81,
      "hit": false,
      "t": 88837.42067578166,
      "d": 614.8912236328179,
      "v": 69
    },
    {
      "midi": 74,
      "hit": false,
      "t": 88837.42067578166,
      "d": 1209.8527031250123,
      "v": 69
    },
    {
      "midi": 45,
      "hit": false,
      "t": 88837.42067578166,
      "d": 1209.8527031250123,
      "v": 69
    },
    {
      "midi": 57,
      "hit": false,
      "t": 89155.12424414084,
      "d": 279.6025869140576,
      "v": 64
    },
    {
      "midi": 62,
      "hit": false,
      "t": 89452.89806835959,
      "d": 277.84408007812453,
      "v": 65
    },
    {
      "midi": 79,
      "hit": false,
      "t": 89452.89806835979,
      "d": 277.84408007812453,
      "v": 65
    },
    {
      "midi": 64,
      "hit": false,
      "t": 89748.9133857424,
      "d": 280.77492480468936,
      "v": 64
    },
    {
      "midi": 78,
      "hit": false,
      "t": 89748.9133857426,
      "d": 280.77492480468936,
      "v": 64
    },
    {
      "midi": 52,
      "hit": false,
      "t": 90047.85954785178,
      "d": 594.3753105468786,
      "v": 67
    },
    {
      "midi": 45,
      "hit": false,
      "t": 90047.85954785199,
      "d": 594.3753105468786,
      "v": 67
    },
    {
      "midi": 76,
      "hit": false,
      "t": 90047.85954785199,
      "d": 1187.5782832031255,
      "v": 67
    },
    {
      "midi": 73,
      "hit": false,
      "t": 90047.85954785199,
      "d": 1187.5782832031255,
      "v": 67
    },
    {
      "midi": 57,
      "hit": false,
      "t": 90346.80570996116,
      "d": 277.84408007812453,
      "v": 64
    },
    {
      "midi": 61,
      "hit": false,
      "t": 90642.82102734398,
      "d": 277.84408007812453,
      "v": 65
    },
    {
      "midi": 37,
      "hit": false,
      "t": 90642.82102734418,
      "d": 592.616803710931,
      "v": 64
    },
    {
      "midi": 64,
      "hit": false,
      "t": 90938.83634472679,
      "d": 279.0164179687563,
      "v": 64
    },
    {
      "midi": 71,
      "hit": false,
      "t": 91238.36867578149,
      "d": 231.5367333984468,
      "v": 57
    },
    {
      "midi": 47,
      "hit": false,
      "t": 91238.36867578168,
      "d": 614.8912236328033,
      "v": 69
    },
    {
      "midi": 78,
      "hit": false,
      "t": 91458.76819921899,
      "d": 206.3314687499951,
      "v": 52
    },
    {
      "midi": 78,
      "hit": false,
      "t": 91556.07224414105,
      "d": 279.6025869140576,
      "v": 64
    },
    {
      "midi": 83,
      "hit": false,
      "t": 91653.37628906274,
      "d": 211.6069892578089,
      "v": 52
    },
    {
      "midi": 86,
      "hit": false,
      "t": 91853.8460683596,
      "d": 211.02082031250757,
      "v": 53
    },
    {
      "midi": 76,
      "hit": false,
      "t": 91853.8460683598,
      "d": 277.84408007812453,
      "v": 65
    },
    {
      "midi": 47,
      "hit": false,
      "t": 91853.8460683598,
      "d": 594.3753105468786,
      "v": 65
    },
    {
      "midi": 83,
      "hit": false,
      "t": 92053.72967871117,
      "d": 204.57296191406203,
      "v": 52
    },
    {
      "midi": 78,
      "hit": false,
      "t": 92149.86138574261,
      "d": 298.3599931640638,
      "v": 64
    },
    {
      "midi": 78,
      "hit": false,
      "t": 92246.57926171899,
      "d": 213.36549609375652,
      "v": 52
    },
    {
      "midi": 71,
      "hit": false,
      "t": 92448.8075478518,
      "d": 213.9516650390724,
      "v": 55
    },
    {
      "midi": 78,
      "hit": false,
      "t": 92448.80754785199,
      "d": 280.77492480468936,
      "v": 67
    },
    {
      "midi": 47,
      "hit": false,
      "t": 92448.80754785199,
      "d": 594.3753105468786,
      "v": 67
    },
    {
      "midi": 78,
      "hit": false,
      "t": 92651.62200292993,
      "d": 204.57296191406203,
      "v": 52
    },
    {
      "midi": 79,
      "hit": false,
      "t": 92747.75370996137,
      "d": 277.84408007812453,
      "v": 64
    },
    {
      "midi": 83,
      "hit": false,
      "t": 92844.47158593775,
      "d": 210.4346513671917,
      "v": 52
    },
    {
      "midi": 86,
      "hit": false,
      "t": 93043.769027344,
      "d": 210.43465136720624,
      "v": 53
    },
    {
      "midi": 78,
      "hit": false,
      "t": 93043.76902734418,
      "d": 277.84408007812453,
      "v": 65
    },
    {
      "midi": 47,
      "hit": false,
      "t": 93043.76902734418,
      "d": 592.6168037109455,
      "v": 65
    },
    {
      "midi": 83,
      "hit": false,
      "t": 93243.06646875026,
      "d": 205.1591308593779,
      "v": 52
    },
    {
      "midi": 79,
      "hit": false,
      "t": 93339.784344727,
      "d": 279.0164179687563,
      "v": 64
    },
    {
      "midi": 78,
      "hit": false,
      "t": 93436.50222070339,
      "d": 211.6069892578089,
      "v": 52
    },
    {
      "midi": 69,
      "hit": false,
      "t": 93639.3166757815,
      "d": 231.5367333984468,
      "v": 57
    },
    {
      "midi": 81,
      "hit": false,
      "t": 93639.3166757817,
      "d": 299.532331054681,
      "v": 69
    },
    {
      "midi": 45,
      "hit": false,
      "t": 93639.3166757817,
      "d": 614.8912236328033,
      "v": 69
    },
    {
      "midi": 76,
      "hit": false,
      "t": 93859.71619921901,
      "d": 206.3314687499951,
      "v": 52
    },
    {
      "midi": 76,
      "hit": false,
      "t": 93957.02024414107,
      "d": 279.6025869140576,
      "v": 64
    },
    {
      "midi": 81,
      "hit": false,
      "t": 94054.32428906276,
      "d": 211.6069892578089,
      "v": 52
    },
    {
      "midi": 85,
      "hit": false,
      "t": 94254.79406835962,
      "d": 211.02082031250757,
      "v": 53
    },
    {
      "midi": 73,
      "hit": false,
      "t": 94254.79406835981,
      "d": 277.84408007812453,
      "v": 65
    },
    {
      "midi": 49,
      "hit": false,
      "t": 94254.79406835981,
      "d": 594.3753105468786,
      "v": 65
    },
    {
      "midi": 81,
      "hit": false,
      "t": 94454.67767871119,
      "d": 204.57296191406203,
      "v": 52
    },
    {
      "midi": 71,
      "hit": false,
      "t": 94550.80938574263,
      "d": 280.77492480468936,
      "v": 64
    },
    {
      "midi": 76,
      "hit": false,
      "t": 94647.527261719,
      "d": 213.36549609375652,
      "v": 52
    },
    {
      "midi": 69,
      "hit": false,
      "t": 94849.75554785182,
      "d": 213.9516650390724,
      "v": 55
    },
    {
      "midi": 69,
      "hit": false,
      "t": 94849.75554785201,
      "d": 280.77492480468936,
      "v": 67
    },
    {
      "midi": 52,
      "hit": false,
      "t": 94849.75554785201,
      "d": 594.3753105468786,
      "v": 67
    },
    {
      "midi": 73,
      "hit": false,
      "t": 95052.57000292995,
      "d": 204.57296191406203,
      "v": 52
    },
    {
      "midi": 71,
      "hit": false,
      "t": 95148.70170996139,
      "d": 277.84408007812453,
      "v": 64
    },
    {
      "midi": 76,
      "hit": false,
      "t": 95245.41958593777,
      "d": 210.4346513671917,
      "v": 52
    },
    {
      "midi": 88,
      "hit": false,
      "t": 95444.71702734401,
      "d": 210.43465136720624,
      "v": 53
    },
    {
      "midi": 73,
      "hit": false,
      "t": 95444.7170273442,
      "d": 277.84408007812453,
      "v": 65
    },
    {
      "midi": 45,
      "hit": false,
      "t": 95444.7170273442,
      "d": 592.6168037109455,
      "v": 65
    },
    {
      "midi": 85,
      "hit": false,
      "t": 95644.01446875028,
      "d": 205.1591308593779,
      "v": 52
    },
    {
      "midi": 76,
      "hit": false,
      "t": 95740.73234472702,
      "d": 599.0646621093765,
      "v": 64
    },
    {
      "midi": 81,
      "hit": false,
      "t": 95837.45022070341,
      "d": 211.6069892578089,
      "v": 52
    },
    {
      "midi": 67,
      "hit": false,
      "t": 96040.26467578152,
      "d": 231.5367333984468,
      "v": 57
    },
    {
      "midi": 43,
      "hit": false,
      "t": 96040.26467578171,
      "d": 614.8912236328033,
      "v": 69
    },
    {
      "midi": 74,
      "hit": false,
      "t": 96260.66419921903,
      "d": 206.3314687499951,
      "v": 52
    },
    {
      "midi": 74,
      "hit": false,
      "t": 96357.96824414108,
      "d": 279.6025869140576,
      "v": 64
    },
    {
      "midi": 79,
      "hit": false,
      "t": 96455.27228906278,
      "d": 211.6069892578089,
      "v": 52
    },
    {
      "midi": 83,
      "hit": false,
      "t": 96655.74206835964,
      "d": 211.02082031250757,
      "v": 53
    },
    {
      "midi": 73,
      "hit": false,
      "t": 96655.74206835983,
      "d": 277.84408007812453,
      "v": 65
    },
    {
      "midi": 43,
      "hit": false,
      "t": 96655.74206835983,
      "d": 594.3753105468786,
      "v": 65
    },
    {
      "midi": 79,
      "hit": false,
      "t": 96855.6256787112,
      "d": 204.57296191406203,
      "v": 52
    },
    {
      "midi": 74,
      "hit": false,
      "t": 96951.75738574265,
      "d": 298.3599931640638,
      "v": 64
    },
    {
      "midi": 74,
      "hit": false,
      "t": 97048.47526171902,
      "d": 213.36549609375652,
      "v": 52
    },
    {
      "midi": 67,
      "hit": false,
      "t": 97250.70354785184,
      "d": 213.9516650390724,
      "v": 55
    },
    {
      "midi": 74,
      "hit": false,
      "t": 97250.70354785203,
      "d": 280.77492480468936,
      "v": 67
    },
    {
      "midi": 43,
      "hit": false,
      "t": 97250.70354785203,
      "d": 594.3753105468786,
      "v": 67
    },
    {
      "midi": 74,
      "hit": false,
      "t": 97453.51800292997,
      "d": 204.57296191406203,
      "v": 52
    },
    {
      "midi": 76,
      "hit": false,
      "t": 97549.6497099614,
      "d": 277.84408007812453,
      "v": 64
    },
    {
      "midi": 79,
      "hit": false,
      "t": 97646.36758593778,
      "d": 210.4346513671917,
      "v": 52
    },
    {
      "midi": 83,
      "hit": false,
      "t": 97845.66502734403,
      "d": 210.43465136720624,
      "v": 53
    },
    {
      "midi": 74,
      "hit": false,
      "t": 97845.66502734422,
      "d": 277.84408007812453,
      "v": 65
    },
    {
      "midi": 43,
      "hit": false,
      "t": 97845.66502734422,
      "d": 592.6168037109455,
      "v": 65
    },
    {
      "midi": 79,
      "hit": false,
      "t": 98044.9624687503,
      "d": 205.1591308593779,
      "v": 52
    },
    {
      "midi": 76,
      "hit": false,
      "t": 98141.68034472704,
      "d": 279.0164179687563,
      "v": 64
    },
    {
      "midi": 74,
      "hit": false,
      "t": 98238.39822070343,
      "d": 211.6069892578089,
      "v": 52
    },
    {
      "midi": 66,
      "hit": false,
      "t": 98441.21267578154,
      "d": 231.5367333984468,
      "v": 57
    },
    {
      "midi": 78,
      "hit": false,
      "t": 98441.21267578173,
      "d": 299.532331054681,
      "v": 69
    },
    {
      "midi": 42,
      "hit": false,
      "t": 98441.21267578173,
      "d": 614.8912236328033,
      "v": 69
    },
    {
      "midi": 73,
      "hit": false,
      "t": 98661.61219921905,
      "d": 206.3314687499951,
      "v": 52
    },
    {
      "midi": 73,
      "hit": false,
      "t": 98758.9162441411,
      "d": 279.6025869140576,
      "v": 64
    },
    {
      "midi": 78,
      "hit": false,
      "t": 98856.2202890628,
      "d": 211.6069892578089,
      "v": 52
    },
    {
      "midi": 81,
      "hit": false,
      "t": 99056.69006835966,
      "d": 211.02082031250757,
      "v": 53
    },
    {
      "midi": 71,
      "hit": false,
      "t": 99056.69006835985,
      "d": 277.84408007812453,
      "v": 65
    },
    {
      "midi": 45,
      "hit": false,
      "t": 99056.69006835985,
      "d": 594.3753105468786,
      "v": 65
    },
    {
      "midi": 78,
      "hit": false,
      "t": 99256.57367871123,
      "d": 204.57296191406203,
      "v": 52
    },
    {
      "midi": 69,
      "hit": false,
      "t": 99352.70538574267,
      "d": 298.3599931640638,
      "v": 64
    },
    {
      "midi": 73,
      "hit": false,
      "t": 99449.42326171904,
      "d": 213.36549609375652,
      "v": 52
    },
    {
      "midi": 66,
      "hit": false,
      "t": 99651.65154785186,
      "d": 213.9516650390724,
      "v": 55
    },
    {
      "midi": 69,
      "hit": false,
      "t": 99651.65154785205,
      "d": 280.77492480468936,
      "v": 67
    },
    {
      "midi": 49,
      "hit": false,
      "t": 99651.65154785205,
      "d": 594.3753105468786,
      "v": 67
    },
    {
      "midi": 69,
      "hit": false,
      "t": 99854.46600292998,
      "d": 204.57296191406203,
      "v": 52
    },
    {
      "midi": 71,
      "hit": false,
      "t": 99950.59770996142,
      "d": 277.84408007812453,
      "v": 64
    },
    {
      "midi": 73,
      "hit": false,
      "t": 100047.3155859378,
      "d": 210.4346513671917,
      "v": 52
    },
    {
      "midi": 85,
      "hit": false,
      "t": 100246.61302734405,
      "d": 210.43465136720624,
      "v": 53
    },
    {
      "midi": 73,
      "hit": false,
      "t": 100246.61302734424,
      "d": 277.84408007812453,
      "v": 65
    },
    {
      "midi": 42,
      "hit": false,
      "t": 100246.61302734424,
      "d": 592.6168037109455,
      "v": 65
    },
    {
      "midi": 81,
      "hit": false,
      "t": 100445.91046875031,
      "d": 205.1591308593779,
      "v": 52
    },
    {
      "midi": 76,
      "hit": false,
      "t": 100542.62834472705,
      "d": 599.0646621093765,
      "v": 64
    },
    {
      "midi": 78,
      "hit": false,
      "t": 100639.34622070345,
      "d": 211.6069892578089,
      "v": 52
    },
    {
      "midi": 71,
      "hit": false,
      "t": 100842.16067578156,
      "d": 231.5367333984468,
      "v": 57
    },
    {
      "midi": 43,
      "hit": false,
      "t": 100842.16067578175,
      "d": 1209.8527031249978,
      "v": 69
    },
    {
      "midi": 79,
      "hit": false,
      "t": 101062.56019921906,
      "d": 206.3314687499951,
      "v": 52
    },
    {
      "midi": 71,
      "hit": false,
      "t": 101159.86424414112,
      "d": 279.6025869140576,
      "v": 64
    },
    {
      "midi": 83,
      "hit": false,
      "t": 101257.16828906281,
      "d": 211.6069892578089,
      "v": 52
    },
    {
      "midi": 86,
      "hit": false,
      "t": 101457.63806835968,
      "d": 211.02082031250757,
      "v": 53
    },
    {
      "midi": 69,
      "hit": false,
      "t": 101457.63806835987,
      "d": 277.84408007812453,
      "v": 65
    },
    {
      "midi": 83,
      "hit": false,
      "t": 101657.52167871124,
      "d": 204.57296191406203,
      "v": 52
    },
    {
      "midi": 71,
      "hit": false,
      "t": 101753.65338574268,
      "d": 298.3599931640638,
      "v": 64
    },
    {
      "midi": 79,
      "hit": false,
      "t": 101850.37126171906,
      "d": 213.36549609375652,
      "v": 52
    },
    {
      "midi": 71,
      "hit": false,
      "t": 102052.59954785187,
      "d": 213.9516650390724,
      "v": 55
    },
    {
      "midi": 71,
      "hit": false,
      "t": 102052.59954785206,
      "d": 280.77492480468936,
      "v": 67
    },
    {
      "midi": 43,
      "hit": false,
      "t": 102052.59954785206,
      "d": 890.3906279296934,
      "v": 67
    },
    {
      "midi": 79,
      "hit": false,
      "t": 102255.41400293,
      "d": 204.57296191406203,
      "v": 52
    },
    {
      "midi": 73,
      "hit": false,
      "t": 102351.54570996144,
      "d": 277.84408007812453,
      "v": 64
    },
    {
      "midi": 83,
      "hit": false,
      "t": 102448.26358593782,
      "d": 210.4346513671917,
      "v": 52
    },
    {
      "midi": 86,
      "hit": false,
      "t": 102647.56102734407,
      "d": 210.43465136720624,
      "v": 53
    },
    {
      "midi": 71,
      "hit": false,
      "t": 102647.56102734426,
      "d": 277.84408007812453,
      "v": 65
    },
    {
      "midi": 83,
      "hit": false,
      "t": 102846.85846875033,
      "d": 205.1591308593779,
      "v": 52
    },
    {
      "midi": 73,
      "hit": false,
      "t": 102943.57634472707,
      "d": 279.0164179687563,
      "v": 64
    },
    {
      "midi": 31,
      "hit": false,
      "t": 102943.57634472707,
      "d": 279.0164179687563,
      "v": 61
    },
    {
      "midi": 79,
      "hit": false,
      "t": 103040.29422070346,
      "d": 211.6069892578089,
      "v": 52
    },
    {
      "midi": 69,
      "hit": false,
      "t": 103243.10867578158,
      "d": 231.5367333984468,
      "v": 57
    },
    {
      "midi": 74,
      "hit": false,
      "t": 103243.10867578177,
      "d": 299.532331054681,
      "v": 69
    },
    {
      "midi": 38,
      "hit": false,
      "t": 103243.10867578177,
      "d": 910.9065410156181,
      "v": 68
    },
    {
      "midi": 74,
      "hit": false,
      "t": 103463.50819921908,
      "d": 206.3314687499951,
      "v": 52
    },
    {
      "midi": 69,
      "hit": false,
      "t": 103560.81224414114,
      "d": 279.6025869140576,
      "v": 64
    },
    {
      "midi": 81,
      "hit": false,
      "t": 103658.11628906283,
      "d": 211.6069892578089,
      "v": 52
    },
    {
      "midi": 86,
      "hit": false,
      "t": 103858.5860683597,
      "d": 211.02082031250757,
      "v": 53
    },
    {
      "midi": 66,
      "hit": false,
      "t": 103858.58606835989,
      "d": 277.84408007812453,
      "v": 65
    },
    {
      "midi": 81,
      "hit": false,
      "t": 104058.46967871126,
      "d": 204.57296191406203,
      "v": 52
    },
    {
      "midi": 64,
      "hit": false,
      "t": 104154.6013857427,
      "d": 280.77492480468936,
      "v": 64
    },
    {
      "midi": 45,
      "hit": false,
      "t": 104154.6013857427,
      "d": 280.77492480468936,
      "v": 64
    },
    {
      "midi": 74,
      "hit": false,
      "t": 104251.31926171908,
      "d": 213.36549609375652,
      "v": 52
    },
    {
      "midi": 69,
      "hit": false,
      "t": 104453.5475478519,
      "d": 213.9516650390724,
      "v": 55
    },
    {
      "midi": 62,
      "hit": false,
      "t": 104453.54754785208,
      "d": 280.77492480468936,
      "v": 67
    },
    {
      "midi": 38,
      "hit": false,
      "t": 104453.54754785208,
      "d": 1187.57828320314,
      "v": 66
    },
    {
      "midi": 74,
      "hit": false,
      "t": 104656.36200293002,
      "d": 204.57296191406203,
      "v": 52
    },
    {
      "midi": 64,
      "hit": false,
      "t": 104752.49370996146,
      "d": 277.84408007812453,
      "v": 64
    },
    {
      "midi": 78,
      "hit": false,
      "t": 104849.21158593784,
      "d": 210.4346513671917,
      "v": 52
    },
    {
      "midi": 90,
      "hit": false,
      "t": 105048.50902734409,
      "d": 210.43465136720624,
      "v": 53
    },
    {
      "midi": 66,
      "hit": false,
      "t": 105048.50902734428,
      "d": 277.84408007812453,
      "v": 65
    },
    {
      "midi": 86,
      "hit": false,
      "t": 105247.80646875035,
      "d": 205.1591308593779,
      "v": 52
    },
    {
      "midi": 69,
      "hit": false,
      "t": 105344.52434472709,
      "d": 599.0646621093765,
      "v": 64
    },
    {
      "midi": 81,
      "hit": false,
      "t": 105441.24222070348,
      "d": 211.6069892578089,
      "v": 52
    },
    {
      "midi": 67,
      "hit": false,
      "t": 105644.0566757816,
      "d": 231.5367333984468,
      "v": 57
    },
    {
      "midi": 40,
      "hit": false,
      "t": 105644.05667578179,
      "d": 171.16133203124627,
      "v": 68
    },
    {
      "midi": 40,
      "hit": false,
      "t": 105815.80417675835,
      "d": 594.3753105468641,
      "v": 63
    },
    {
      "midi": 76,
      "hit": false,
      "t": 105864.4561992191,
      "d": 206.3314687499951,
      "v": 52
    },
    {
      "midi": 71,
      "hit": false,
      "t": 105961.76024414116,
      "d": 279.6025869140576,
      "v": 64
    },
    {
      "midi": 79,
      "hit": false,
      "t": 106059.06428906285,
      "d": 211.6069892578089,
      "v": 52
    },
    {
      "midi": 83,
      "hit": false,
      "t": 106259.53406835972,
      "d": 211.02082031250757,
      "v": 53
    },
    {
      "midi": 69,
      "hit": false,
      "t": 106259.5340683599,
      "d": 277.84408007812453,
      "v": 65
    },
    {
      "midi": 40,
      "hit": false,
      "t": 106410.76565625053,
      "d": 289.56745898438385,
      "v": 63
    },
    {
      "midi": 79,
      "hit": false,
      "t": 106459.41767871128,
      "d": 204.57296191406203,
      "v": 52
    },
    {
      "midi": 71,
      "hit": false,
      "t": 106555.54938574272,
      "d": 298.3599931640638,
      "v": 64
    },
    {
      "midi": 76,
      "hit": false,
      "t": 106652.2672617191,
      "d": 213.36549609375652,
      "v": 52
    },
    {
      "midi": 40,
      "hit": false,
      "t": 106700.91928418023,
      "d": 152.99009472655598,
      "v": 63
    },
    {
      "midi": 67,
      "hit": false,
      "t": 106854.49554785191,
      "d": 213.9516650390724,
      "v": 55
    },
    {
      "midi": 71,
      "hit": false,
      "t": 106854.4955478521,
      "d": 280.77492480468936,
      "v": 67
    },
    {
      "midi": 40,
      "hit": false,
      "t": 106854.4955478521,
      "d": 890.3906279296934,
      "v": 66
    },
    {
      "midi": 76,
      "hit": false,
      "t": 107057.31000293004,
      "d": 204.57296191406203,
      "v": 52
    },
    {
      "midi": 73,
      "hit": false,
      "t": 107153.44170996148,
      "d": 277.84408007812453,
      "v": 64
    },
    {
      "midi": 79,
      "hit": false,
      "t": 107250.15958593786,
      "d": 210.4346513671917,
      "v": 52
    },
    {
      "midi": 83,
      "hit": false,
      "t": 107449.4570273441,
      "d": 210.43465136720624,
      "v": 53
    },
    {
      "midi": 74,
      "hit": false,
      "t": 107449.4570273443,
      "d": 277.84408007812453,
      "v": 65
    },
    {
      "midi": 79,
      "hit": false,
      "t": 107648.75446875037,
      "d": 205.1591308593779,
      "v": 52
    },
    {
      "midi": 47,
      "hit": false,
      "t": 107745.47234472711,
      "d": 144.78372949219192,
      "v": 52
    },
    {
      "midi": 76,
      "hit": false,
      "t": 107745.47234472711,
      "d": 279.0164179687563,
      "v": 64
    },
    {
      "midi": 76,
      "hit": false,
      "t": 107842.1902207035,
      "d": 211.6069892578089,
      "v": 52
    },
    {
      "midi": 47,
      "hit": false,
      "t": 107890.84224316462,
      "d": 160.0241220703174,
      "v": 52
    },
    {
      "midi": 64,
      "hit": false,
      "t": 108045.00467578162,
      "d": 231.5367333984468,
      "v": 57
    },
    {
      "midi": 78,
      "hit": false,
      "t": 108045.0046757818,
      "d": 299.53233105469553,
      "v": 69
    },
    {
      "midi": 45,
      "hit": false,
      "t": 108045.0046757818,
      "d": 910.9065410156327,
      "v": 69
    },
    {
      "midi": 74,
      "hit": false,
      "t": 108265.40419921912,
      "d": 206.3314687499951,
      "v": 52
    },
    {
      "midi": 79,
      "hit": false,
      "t": 108362.70824414119,
      "d": 279.6025869140576,
      "v": 64
    },
    {
      "midi": 76,
      "hit": false,
      "t": 108460.01228906287,
      "d": 211.6069892578089,
      "v": 52
    },
    {
      "midi": 81,
      "hit": false,
      "t": 108660.48206835974,
      "d": 211.02082031250757,
      "v": 53
    },
    {
      "midi": 78,
      "hit": false,
      "t": 108660.48206835994,
      "d": 277.84408007812453,
      "v": 65
    },
    {
      "midi": 76,
      "hit": false,
      "t": 108860.3656787113,
      "d": 204.57296191406203,
      "v": 52
    },
    {
      "midi": 42,
      "hit": false,
      "t": 108956.49738574275,
      "d": 135.99119531249744,
      "v": 64
    },
    {
      "midi": 76,
      "hit": false,
      "t": 108956.49738574275,
      "d": 280.7749248046748,
      "v": 64
    },
    {
      "midi": 74,
      "hit": false,
      "t": 109053.21526171912,
      "d": 213.36549609375652,
      "v": 52
    },
    {
      "midi": 43,
      "hit": false,
      "t": 109101.86728418025,
      "d": 144.19756054687605,
      "v": 64
    },
    {
      "midi": 69,
      "hit": false,
      "t": 109255.44354785193,
      "d": 213.9516650390724,
      "v": 55
    },
    {
      "midi": 81,
      "hit": false,
      "t": 109255.44354785212,
      "d": 280.77492480468936,
      "v": 67
    },
    {
      "midi": 45,
      "hit": false,
      "t": 109255.44354785212,
      "d": 890.3906279296934,
      "v": 67
    },
    {
      "midi": 73,
      "hit": false,
      "t": 109458.25800293006,
      "d": 204.57296191406203,
      "v": 52
    },
    {
      "midi": 79,
      "hit": false,
      "t": 109554.3897099615,
      "d": 277.84408007812453,
      "v": 64
    },
    {
      "midi": 76,
      "hit": false,
      "t": 109651.10758593788,
      "d": 210.4346513671917,
      "v": 52
    },
    {
      "midi": 88,
      "hit": false,
      "t": 109850.40502734412,
      "d": 210.43465136720624,
      "v": 53
    },
    {
      "midi": 78,
      "hit": false,
      "t": 109850.40502734431,
      "d": 277.84408007812453,
      "v": 65
    },
    {
      "midi": 85,
      "hit": false,
      "t": 110049.70246875039,
      "d": 205.1591308593779,
      "v": 52
    },
    {
      "midi": 33,
      "hit": false,
      "t": 110146.42034472713,
      "d": 135.99119531249744,
      "v": 61
    },
    {
      "midi": 76,
      "hit": false,
      "t": 110146.42034472713,
      "d": 279.01641796874173,
      "v": 64
    },
    {
      "midi": 81,
      "hit": false,
      "t": 110243.13822070352,
      "d": 211.6069892578089,
      "v": 52
    },
    {
      "midi": 37,
      "hit": false,
      "t": 110291.79024316462,
      "d": 142.43905371094297,
      "v": 63
    },
    {
      "midi": 74,
      "hit": false,
      "t": 110445.95267578163,
      "d": 299.53233105469553,
      "v": 69
    },
    {
      "midi": 38,
      "hit": false,
      "t": 110445.95267578163,
      "d": 614.8912236328179,
      "v": 68
    },
    {
      "midi": 38,
      "hit": false,
      "t": 110445.95267578181,
      "d": 614.8912236328179,
      "v": 68
    },
    {
      "midi": 78,
      "hit": false,
      "t": 110445.95267578181,
      "d": 1209.8527031250123,
      "v": 69
    },
    {
      "midi": 69,
      "hit": false,
      "t": 110763.65624414102,
      "d": 279.6025869140576,
      "v": 64
    },
    {
      "midi": 74,
      "hit": false,
      "t": 111061.43006835977,
      "d": 594.3753105468786,
      "v": 65
    },
    {
      "midi": 38,
      "hit": false,
      "t": 111357.44538574258,
      "d": 144.78372949219192,
      "v": 51
    },
    {
      "midi": 38,
      "hit": false,
      "t": 111357.44538574276,
      "d": 144.78372949219192,
      "v": 51
    },
    {
      "midi": 38,
      "hit": false,
      "t": 111502.81528418009,
      "d": 161.78262890625047,
      "v": 51
    },
    {
      "midi": 38,
      "hit": false,
      "t": 111502.81528418027,
      "d": 161.78262890625047,
      "v": 51
    },
    {
      "midi": 45,
      "hit": false,
      "t": 111656.39154785196,
      "d": 443.7298916015716,
      "v": 67
    },
    {
      "midi": 76,
      "hit": false,
      "t": 111656.39154785196,
      "d": 594.3753105468786,
      "v": 67
    },
    {
      "midi": 79,
      "hit": false,
      "t": 111656.39154785214,
      "d": 190.50490722656832,
      "v": 67
    },
    {
      "midi": 45,
      "hit": false,
      "t": 111656.39154785214,
      "d": 443.7298916015716,
      "v": 67
    },
    {
      "midi": 76,
      "hit": false,
      "t": 111859.20600293027,
      "d": 180.54003515625664,
      "v": 64
    },
    {
      "midi": 73,
      "hit": false,
      "t": 112052.05558593808,
      "d": 186.98789355468762,
      "v": 64
    },
    {
      "midi": 33,
      "hit": false,
      "t": 112147.60112402384,
      "d": 381.59598339843797,
      "v": 61
    },
    {
      "midi": 33,
      "hit": false,
      "t": 112147.60112402402,
      "d": 381.59598339843797,
      "v": 61
    },
    {
      "midi": 79,
      "hit": false,
      "t": 112251.35302734416,
      "d": 592.6168037109455,
      "v": 65
    },
    {
      "midi": 69,
      "hit": false,
      "t": 112251.35302734433,
      "d": 186.98789355468762,
      "v": 65
    },
    {
      "midi": 64,
      "hit": false,
      "t": 112450.65046875058,
      "d": 181.1262041015725,
      "v": 64
    },
    {
      "midi": 45,
      "hit": false,
      "t": 112547.36834472697,
      "d": 279.0164179687563,
      "v": 64
    },
    {
      "midi": 45,
      "hit": false,
      "t": 112547.36834472715,
      "d": 279.0164179687563,
      "v": 64
    },
    {
      "midi": 61,
      "hit": false,
      "t": 112644.08622070371,
      "d": 188.16023144531937,
      "v": 64
    },
    {
      "midi": 78,
      "hit": false,
      "t": 112846.90067578167,
      "d": 208.08997558594274,
      "v": 69
    },
    {
      "midi": 47,
      "hit": false,
      "t": 112846.90067578167,
      "d": 614.8912236328179,
      "v": 69
    },
    {
      "midi": 62,
      "hit": false,
      "t": 112846.90067578184,
      "d": 208.08997558594274,
      "v": 69
    },
    {
      "midi": 47,
      "hit": false,
      "t": 112846.90067578184,
      "d": 614.8912236328179,
      "v": 69
    },
    {
      "midi": 79,
      "hit": false,
      "t": 113067.30019921917,
      "d": 182.2985419921897,
      "v": 64
    },
    {
      "midi": 64,
      "hit": false,
      "t": 113067.30019921935,
      "d": 182.2985419921897,
      "v": 64
    },
    {
      "midi": 78,
      "hit": false,
      "t": 113261.90828906292,
      "d": 188.16023144531937,
      "v": 64
    },
    {
      "midi": 62,
      "hit": false,
      "t": 113261.9082890631,
      "d": 188.16023144531937,
      "v": 64
    },
    {
      "midi": 76,
      "hit": false,
      "t": 113462.3780683598,
      "d": 277.84408007812453,
      "v": 65
    },
    {
      "midi": 71,
      "hit": false,
      "t": 113462.37806835998,
      "d": 594.3753105468786,
      "v": 65
    },
    {
      "midi": 47,
      "hit": false,
      "t": 113758.39338574262,
      "d": 135.99119531249744,
      "v": 64
    },
    {
      "midi": 74,
      "hit": false,
      "t": 113758.39338574262,
      "d": 280.7749248046748,
      "v": 64
    },
    {
      "midi": 47,
      "hit": false,
      "t": 113758.39338574279,
      "d": 135.99119531249744,
      "v": 64
    },
    {
      "midi": 35,
      "hit": false,
      "t": 113903.76328418011,
      "d": 144.19756054687605,
      "v": 62
    },
    {
      "midi": 35,
      "hit": false,
      "t": 113903.76328418028,
      "d": 144.19756054687605,
      "v": 62
    },
    {
      "midi": 45,
      "hit": false,
      "t": 114057.33954785198,
      "d": 153.57626367187186,
      "v": 67
    },
    {
      "midi": 76,
      "hit": false,
      "t": 114057.33954785198,
      "d": 594.3753105468786,
      "v": 67
    },
    {
      "midi": 45,
      "hit": false,
      "t": 114057.33954785217,
      "d": 153.57626367187186,
      "v": 67
    },
    {
      "midi": 69,
      "hit": false,
      "t": 114057.33954785217,
      "d": 1187.57828320314,
      "v": 67
    },
    {
      "midi": 45,
      "hit": false,
      "t": 114211.50198046917,
      "d": 289.5674589843693,
      "v": 64
    },
    {
      "midi": 45,
      "hit": false,
      "t": 114211.50198046936,
      "d": 289.5674589843693,
      "v": 64
    },
    {
      "midi": 45,
      "hit": false,
      "t": 114501.65560839885,
      "d": 141.26671582031122,
      "v": 64
    },
    {
      "midi": 45,
      "hit": false,
      "t": 114501.65560839904,
      "d": 141.26671582031122,
      "v": 64
    },
    {
      "midi": 73,
      "hit": false,
      "t": 114652.30102734418,
      "d": 592.6168037109455,
      "v": 65
    },
    {
      "midi": 45,
      "hit": false,
      "t": 114802.94644628948,
      "d": 272.56855957031075,
      "v": 64
    },
    {
      "midi": 45,
      "hit": false,
      "t": 114802.94644628967,
      "d": 272.56855957031075,
      "v": 64
    },
    {
      "midi": 33,
      "hit": false,
      "t": 115093.68624316448,
      "d": 142.43905371094297,
      "v": 61
    },
    {
      "midi": 33,
      "hit": false,
      "t": 115093.68624316467,
      "d": 142.43905371094297,
      "v": 61
    },
    {
      "midi": 74,
      "hit": false,
      "t": 115247.84867578169,
      "d": 299.532331054681,
      "v": 69
    },
    {
      "midi": 43,
      "hit": false,
      "t": 115247.84867578169,
      "d": 614.8912236328033,
      "v": 69
    },
    {
      "midi": 43,
      "hit": false,
      "t": 115247.84867578188,
      "d": 614.8912236328179,
      "v": 69
    },
    {
      "midi": 71,
      "hit": false,
      "t": 115247.84867578188,
      "d": 1209.8527031250123,
      "v": 69
    },
    {
      "midi": 76,
      "hit": false,
      "t": 115565.55224414106,
      "d": 279.6025869140576,
      "v": 64
    },
    {
      "midi": 78,
      "hit": false,
      "t": 115863.3260683598,
      "d": 594.3753105468786,
      "v": 65
    },
    {
      "midi": 43,
      "hit": false,
      "t": 116159.34138574262,
      "d": 144.78372949219192,
      "v": 52
    },
    {
      "midi": 43,
      "hit": false,
      "t": 116159.34138574282,
      "d": 144.78372949219192,
      "v": 52
    },
    {
      "midi": 43,
      "hit": false,
      "t": 116304.71128418013,
      "d": 161.78262890625047,
      "v": 52
    },
    {
      "midi": 43,
      "hit": false,
      "t": 116304.71128418033,
      "d": 161.78262890625047,
      "v": 52
    },
    {
      "midi": 40,
      "hit": false,
      "t": 116458.287547852,
      "d": 443.7298916015716,
      "v": 66
    },
    {
      "midi": 79,
      "hit": false,
      "t": 116458.287547852,
      "d": 594.3753105468786,
      "v": 67
    },
    {
      "midi": 71,
      "hit": false,
      "t": 116458.2875478522,
      "d": 190.50490722656832,
      "v": 67
    },
    {
      "midi": 40,
      "hit": false,
      "t": 116458.2875478522,
      "d": 443.7298916015716,
      "v": 66
    },
    {
      "midi": 73,
      "hit": false,
      "t": 116661.10200293033,
      "d": 180.54003515625664,
      "v": 64
    },
    {
      "midi": 74,
      "hit": false,
      "t": 116853.95158593815,
      "d": 186.98789355468762,
      "v": 64
    },
    {
      "midi": 52,
      "hit": false,
      "t": 116949.49712402388,
      "d": 381.59598339843797,
      "v": 64
    },
    {
      "midi": 52,
      "hit": false,
      "t": 116949.49712402408,
      "d": 381.59598339843797,
      "v": 64
    },
    {
      "midi": 78,
      "hit": false,
      "t": 117053.2490273442,
      "d": 277.84408007812453,
      "v": 65
    },
    {
      "midi": 76,
      "hit": false,
      "t": 117053.2490273444,
      "d": 186.98789355468762,
      "v": 65
    },
    {
      "midi": 74,
      "hit": false,
      "t": 117252.54646875065,
      "d": 181.1262041015725,
      "v": 64
    },
    {
      "midi": 76,
      "hit": false,
      "t": 117349.26434472701,
      "d": 279.0164179687563,
      "v": 64
    },
    {
      "midi": 40,
      "hit": false,
      "t": 117349.26434472701,
      "d": 279.0164179687563,
      "v": 63
    },
    {
      "midi": 40,
      "hit": false,
      "t": 117349.26434472721,
      "d": 279.0164179687563,
      "v": 63
    },
    {
      "midi": 73,
      "hit": false,
      "t": 117445.98222070378,
      "d": 188.16023144531937,
      "v": 64
    },
    {
      "midi": 81,
      "hit": false,
      "t": 117648.7966757817,
      "d": 614.8912236328179,
      "v": 69
    },
    {
      "midi": 45,
      "hit": false,
      "t": 117648.7966757817,
      "d": 614.8912236328179,
      "v": 69
    },
    {
      "midi": 74,
      "hit": false,
      "t": 117648.79667578191,
      "d": 614.8912236328179,
      "v": 69
    },
    {
      "midi": 45,
      "hit": false,
      "t": 117648.79667578191,
      "d": 614.8912236328179,
      "v": 69
    },
    {
      "midi": 79,
      "hit": false,
      "t": 118264.27406835984,
      "d": 277.84408007812453,
      "v": 65
    },
    {
      "midi": 76,
      "hit": false,
      "t": 118264.27406836004,
      "d": 277.84408007812453,
      "v": 65
    },
    {
      "midi": 45,
      "hit": false,
      "t": 118560.28938574265,
      "d": 135.99119531249744,
      "v": 64
    },
    {
      "midi": 78,
      "hit": false,
      "t": 118560.28938574265,
      "d": 280.7749248046748,
      "v": 64
    },
    {
      "midi": 45,
      "hit": false,
      "t": 118560.28938574286,
      "d": 135.99119531249744,
      "v": 64
    },
    {
      "midi": 74,
      "hit": false,
      "t": 118560.28938574286,
      "d": 280.7749248046748,
      "v": 64
    },
    {
      "midi": 33,
      "hit": false,
      "t": 118705.65928418015,
      "d": 144.19756054687605,
      "v": 61
    },
    {
      "midi": 33,
      "hit": false,
      "t": 118705.65928418035,
      "d": 144.19756054687605,
      "v": 61
    },
    {
      "midi": 45,
      "hit": false,
      "t": 118859.23554785202,
      "d": 153.57626367187186,
      "v": 67
    },
    {
      "midi": 76,
      "hit": false,
      "t": 118859.23554785202,
      "d": 594.3753105468786,
      "v": 67
    },
    {
      "midi": 45,
      "hit": false,
      "t": 118859.23554785222,
      "d": 153.57626367187186,
      "v": 67
    },
    {
      "midi": 73,
      "hit": false,
      "t": 118859.23554785222,
      "d": 594.3753105468786,
      "v": 67
    },
    {
      "midi": 45,
      "hit": false,
      "t": 119013.3979804692,
      "d": 289.5674589843693,
      "v": 64
    },
    {
      "midi": 45,
      "hit": false,
      "t": 119013.39798046941,
      "d": 289.5674589843693,
      "v": 64
    },
    {
      "midi": 45,
      "hit": false,
      "t": 119303.55160839889,
      "d": 141.26671582031122,
      "v": 64
    },
    {
      "midi": 45,
      "hit": false,
      "t": 119303.5516083991,
      "d": 141.26671582031122,
      "v": 64
    },
    {
      "midi": 66,
      "hit": false,
      "t": 119454.19702734421,
      "d": 277.84408007812453,
      "v": 65
    },
    {
      "midi": 71,
      "hit": false,
      "t": 119454.19702734442,
      "d": 277.84408007812453,
      "v": 65
    },
    {
      "midi": 45,
      "hit": false,
      "t": 119604.84244628952,
      "d": 272.5685595703253,
      "v": 64
    },
    {
      "midi": 45,
      "hit": false,
      "t": 119604.84244628972,
      "d": 272.5685595703253,
      "v": 64
    },
    {
      "midi": 64,
      "hit": false,
      "t": 119750.21234472703,
      "d": 279.0164179687563,
      "v": 64
    },
    {
      "midi": 73,
      "hit": false,
      "t": 119750.21234472723,
      "d": 279.0164179687563,
      "v": 64
    },
    {
      "midi": 33,
      "hit": false,
      "t": 119895.58224316454,
      "d": 142.43905371094297,
      "v": 61
    },
    {
      "midi": 33,
      "hit": false,
      "t": 119895.58224316474,
      "d": 142.43905371094297,
      "v": 61
    },
    {
      "midi": 66,
      "hit": false,
      "t": 120049.74467578172,
      "d": 299.532331054681,
      "v": 69
    },
    {
      "midi": 38,
      "hit": false,
      "t": 120049.74467578172,
      "d": 614.8912236328033,
      "v": 68
    },
    {
      "midi": 74,
      "hit": false,
      "t": 120049.74467578193,
      "d": 299.532331054681,
      "v": 69
    },
    {
      "midi": 38,
      "hit": false,
      "t": 120049.74467578193,
      "d": 614.8912236328033,
      "v": 68
    },
    {
      "midi": 62,
      "hit": false,
      "t": 120367.4482441411,
      "d": 279.6025869140576,
      "v": 64
    },
    {
      "midi": 69,
      "hit": false,
      "t": 120367.4482441413,
      "d": 279.6025869140576,
      "v": 64
    },
    {
      "midi": 57,
      "hit": false,
      "t": 120665.22206835984,
      "d": 594.3753105468932,
      "v": 65
    },
    {
      "midi": 74,
      "hit": false,
      "t": 120665.22206836005,
      "d": 277.84408007812453,
      "v": 65
    },
    {
      "midi": 38,
      "hit": false,
      "t": 120961.23738574266,
      "d": 144.78372949219192,
      "v": 63
    },
    {
      "midi": 76,
      "hit": false,
      "t": 120961.23738574286,
      "d": 135.99119531249744,
      "v": 64
    },
    {
      "midi": 38,
      "hit": false,
      "t": 120961.23738574286,
      "d": 144.78372949219192,
      "v": 63
    },
    {
      "midi": 38,
      "hit": false,
      "t": 121106.60728418017,
      "d": 144.19756054687605,
      "v": 63
    },
    {
      "midi": 78,
      "hit": false,
      "t": 121106.60728418037,
      "d": 144.19756054687605,
      "v": 64
    },
    {
      "midi": 38,
      "hit": false,
      "t": 121106.60728418037,
      "d": 144.19756054687605,
      "v": 63
    },
    {
      "midi": 43,
      "hit": false,
      "t": 121260.18354785205,
      "d": 144.78372949219192,
      "v": 67
    },
    {
      "midi": 64,
      "hit": false,
      "t": 121260.18354785205,
      "d": 443.72989160155703,
      "v": 67
    },
    {
      "midi": 43,
      "hit": false,
      "t": 121260.18354785224,
      "d": 144.78372949219192,
      "v": 67
    },
    {
      "midi": 79,
      "hit": false,
      "t": 121260.18354785224,
      "d": 443.72989160155703,
      "v": 67
    },
    {
      "midi": 38,
      "hit": false,
      "t": 121414.34598046924,
      "d": 271.9823906249949,
      "v": 63
    },
    {
      "midi": 38,
      "hit": false,
      "t": 121414.34598046943,
      "d": 271.9823906249949,
      "v": 63
    },
    {
      "midi": 46,
      "hit": false,
      "t": 121704.49960839892,
      "d": 291.91213476561825,
      "v": 64
    },
    {
      "midi": 66,
      "hit": false,
      "t": 121704.49960839892,
      "d": 428.48949902343156,
      "v": 64
    },
    {
      "midi": 46,
      "hit": false,
      "t": 121704.49960839911,
      "d": 291.91213476561825,
      "v": 64
    },
    {
      "midi": 78,
      "hit": false,
      "t": 121704.49960839911,
      "d": 428.48949902343156,
      "v": 64
    },
    {
      "midi": 38,
      "hit": false,
      "t": 122005.79044628954,
      "d": 135.991195312512,
      "v": 63
    },
    {
      "midi": 38,
      "hit": false,
      "t": 122005.79044628973,
      "d": 135.991195312512,
      "v": 63
    },
    {
      "midi": 50,
      "hit": false,
      "t": 122151.16034472705,
      "d": 135.99119531249744,
      "v": 64
    },
    {
      "midi": 67,
      "hit": false,
      "t": 122151.16034472705,
      "d": 279.01641796874173,
      "v": 64
    },
    {
      "midi": 50,
      "hit": false,
      "t": 122151.16034472724,
      "d": 135.99119531249744,
      "v": 64
    },
    {
      "midi": 76,
      "hit": false,
      "t": 122151.16034472724,
      "d": 279.01641796874173,
      "v": 64
    },
    {
      "midi": 43,
      "hit": false,
      "t": 122296.53024316454,
      "d": 142.43905371094297,
      "v": 64
    },
    {
      "midi": 43,
      "hit": false,
      "t": 122296.53024316473,
      "d": 142.43905371094297,
      "v": 64
    },
    {
      "midi": 38,
      "hit": false,
      "t": 122450.69267578173,
      "d": 171.16133203124627,
      "v": 68
    },
    {
      "midi": 66,
      "hit": false,
      "t": 122450.69267578173,
      "d": 208.08997558594274,
      "v": 69
    },
    {
      "midi": 38,
      "hit": false,
      "t": 122450.69267578192,
      "d": 171.16133203124627,
      "v": 68
    },
    {
      "midi": 78,
      "hit": false,
      "t": 122450.69267578192,
      "d": 614.8912236328324,
      "v": 69
    },
    {
      "midi": 38,
      "hit": false,
      "t": 122622.44017675829,
      "d": 291.3259658203169,
      "v": 63
    },
    {
      "midi": 38,
      "hit": false,
      "t": 122622.44017675848,
      "d": 291.3259658203169,
      "v": 63
    },
    {
      "midi": 67,
      "hit": false,
      "t": 122671.09219921923,
      "d": 182.2985419921897,
      "v": 64
    },
    {
      "midi": 66,
      "hit": false,
      "t": 122865.70028906298,
      "d": 188.16023144531937,
      "v": 64
    },
    {
      "midi": 38,
      "hit": false,
      "t": 122914.35231152392,
      "d": 142.43905371094297,
      "v": 63
    },
    {
      "midi": 38,
      "hit": false,
      "t": 122914.35231152411,
      "d": 142.43905371094297,
      "v": 63
    },
    {
      "midi": 62,
      "hit": false,
      "t": 123066.17006835986,
      "d": 187.5740625000035,
      "v": 65
    },
    {
      "midi": 78,
      "hit": false,
      "t": 123066.17006836006,
      "d": 187.5740625000035,
      "v": 65
    },
    {
      "midi": 64,
      "hit": false,
      "t": 123266.05367871143,
      "d": 180.54003515625664,
      "v": 64
    },
    {
      "midi": 79,
      "hit": false,
      "t": 123266.05367871163,
      "d": 180.54003515625664,
      "v": 64
    },
    {
      "midi": 50,
      "hit": false,
      "t": 123362.18538574268,
      "d": 135.99119531249744,
      "v": 64
    },
    {
      "midi": 50,
      "hit": false,
      "t": 123362.18538574288,
      "d": 135.99119531249744,
      "v": 64
    },
    {
      "midi": 62,
      "hit": false,
      "t": 123458.90326171924,
      "d": 189.9187382812379,
      "v": 64
    },
    {
      "midi": 78,
      "hit": false,
      "t": 123458.90326171945,
      "d": 189.9187382812379,
      "v": 64
    },
    {
      "midi": 38,
      "hit": false,
      "t": 123507.55528418017,
      "d": 144.19756054687605,
      "v": 63
    },
    {
      "midi": 38,
      "hit": false,
      "t": 123507.55528418037,
      "d": 144.19756054687605,
      "v": 63
    },
    {
      "midi": 49,
      "hit": false,
      "t": 123661.13154785204,
      "d": 144.78372949219192,
      "v": 67
    },
    {
      "midi": 64,
      "hit": false,
      "t": 123661.13154785204,
      "d": 594.3753105468786,
      "v": 67
    },
    {
      "midi": 49,
      "hit": false,
      "t": 123661.13154785224,
      "d": 144.78372949219192,
      "v": 67
    },
    {
      "midi": 76,
      "hit": false,
      "t": 123661.13154785224,
      "d": 594.3753105468786,
      "v": 67
    },
    {
      "midi": 37,
      "hit": false,
      "t": 123815.29398046923,
      "d": 289.5674589843693,
      "v": 63
    },
    {
      "midi": 37,
      "hit": false,
      "t": 123815.29398046943,
      "d": 289.5674589843693,
      "v": 63
    },
    {
      "midi": 37,
      "hit": false,
      "t": 124105.44760839891,
      "d": 141.26671582031122,
      "v": 63
    },
    {
      "midi": 37,
      "hit": false,
      "t": 124105.44760839912,
      "d": 141.26671582031122,
      "v": 63
    },
    {
      "midi": 61,
      "hit": false,
      "t": 124256.09302734424,
      "d": 592.6168037109455,
      "v": 65
    },
    {
      "midi": 78,
      "hit": false,
      "t": 124256.09302734444,
      "d": 592.6168037109455,
      "v": 65
    },
    {
      "midi": 46,
      "hit": false,
      "t": 124697.47824316454,
      "d": 142.43905371094297,
      "v": 64
    },
    {
      "midi": 46,
      "hit": false,
      "t": 124697.47824316475,
      "d": 142.43905371094297,
      "v": 64
    },
    {
      "midi": 71,
      "hit": false,
      "t": 124851.64067578175,
      "d": 208.08997558594274,
      "v": 69
    },
    {
      "midi": 47,
      "hit": false,
      "t": 124851.64067578175,
      "d": 463.0734667968791,
      "v": 69
    },
    {
      "midi": 83,
      "hit": false,
      "t": 124851.64067578195,
      "d": 208.08997558594274,
      "v": 69
    },
    {
      "midi": 47,
      "hit": false,
      "t": 124851.64067578195,
      "d": 463.0734667968791,
      "v": 69
    },
    {
      "midi": 66,
      "hit": false,
      "t": 125072.04019921925,
      "d": 182.2985419921897,
      "v": 64
    },
    {
      "midi": 78,
      "hit": false,
      "t": 125072.04019921945,
      "d": 182.2985419921897,
      "v": 64
    },
    {
      "midi": 62,
      "hit": false,
      "t": 125266.648289063,
      "d": 188.16023144530482,
      "v": 64
    },
    {
      "midi": 74,
      "hit": false,
      "t": 125266.6482890632,
      "d": 188.16023144530482,
      "v": 64
    },
    {
      "midi": 47,
      "hit": false,
      "t": 125362.19382714893,
      "d": 95.54553808593482,
      "v": 64
    },
    {
      "midi": 47,
      "hit": false,
      "t": 125362.19382714914,
      "d": 95.54553808593482,
      "v": 64
    },
    {
      "midi": 66,
      "hit": false,
      "t": 125467.11806835986,
      "d": 187.5740625000035,
      "v": 65
    },
    {
      "midi": 78,
      "hit": false,
      "t": 125467.11806836007,
      "d": 187.5740625000035,
      "v": 65
    },
    {
      "midi": 62,
      "hit": false,
      "t": 125667.00167871143,
      "d": 180.54003515625664,
      "v": 64
    },
    {
      "midi": 74,
      "hit": false,
      "t": 125667.00167871163,
      "d": 180.54003515625664,
      "v": 64
    },
    {
      "midi": 47,
      "hit": false,
      "t": 125763.13338574268,
      "d": 135.99119531249744,
      "v": 64
    },
    {
      "midi": 47,
      "hit": false,
      "t": 125763.13338574288,
      "d": 135.99119531249744,
      "v": 64
    },
    {
      "midi": 54,
      "hit": false,
      "t": 125859.85126171925,
      "d": 189.9187382812379,
      "v": 64
    },
    {
      "midi": 66,
      "hit": false,
      "t": 125859.85126171945,
      "d": 189.9187382812379,
      "v": 64
    },
    {
      "midi": 35,
      "hit": false,
      "t": 125908.50328418017,
      "d": 144.19756054687605,
      "v": 62
    },
    {
      "midi": 35,
      "hit": false,
      "t": 125908.50328418038,
      "d": 144.19756054687605,
      "v": 62
    },
    {
      "midi": 52,
      "hit": false,
      "t": 126062.07954785204,
      "d": 153.57626367187186,
      "v": 67
    },
    {
      "midi": 55,
      "hit": false,
      "t": 126062.07954785204,
      "d": 190.50490722656832,
      "v": 67
    },
    {
      "midi": 52,
      "hit": false,
      "t": 126062.07954785225,
      "d": 153.57626367187186,
      "v": 67
    },
    {
      "midi": 67,
      "hit": false,
      "t": 126062.07954785225,
      "d": 190.50490722656832,
      "v": 67
    },
    {
      "midi": 52,
      "hit": false,
      "t": 126216.24198046923,
      "d": 271.98239062500943,
      "v": 64
    },
    {
      "midi": 52,
      "hit": false,
      "t": 126216.24198046944,
      "d": 271.98239062500943,
      "v": 64
    },
    {
      "midi": 59,
      "hit": false,
      "t": 126264.89400293017,
      "d": 180.54003515625664,
      "v": 64
    },
    {
      "midi": 71,
      "hit": false,
      "t": 126264.89400293038,
      "d": 180.54003515625664,
      "v": 64
    },
    {
      "midi": 64,
      "hit": false,
      "t": 126457.74358593799,
      "d": 186.98789355468762,
      "v": 64
    },
    {
      "midi": 76,
      "hit": false,
      "t": 126457.7435859382,
      "d": 186.98789355468762,
      "v": 64
    },
    {
      "midi": 40,
      "hit": false,
      "t": 126506.39560839893,
      "d": 300.70466894531273,
      "v": 63
    },
    {
      "midi": 40,
      "hit": false,
      "t": 126506.39560839914,
      "d": 300.70466894531273,
      "v": 63
    },
    {
      "midi": 59,
      "hit": false,
      "t": 126657.04102734424,
      "d": 186.98789355470217,
      "v": 65
    },
    {
      "midi": 71,
      "hit": false,
      "t": 126657.04102734444,
      "d": 186.98789355470217,
      "v": 65
    },
    {
      "midi": 40,
      "hit": false,
      "t": 126807.68644628956,
      "d": 135.99119531249744,
      "v": 63
    },
    {
      "midi": 40,
      "hit": false,
      "t": 126807.68644628976,
      "d": 135.99119531249744,
      "v": 63
    },
    {
      "midi": 64,
      "hit": false,
      "t": 126856.3384687505,
      "d": 181.12620410155796,
      "v": 64
    },
    {
      "midi": 76,
      "hit": false,
      "t": 126856.3384687507,
      "d": 181.12620410155796,
      "v": 64
    },
    {
      "midi": 47,
      "hit": false,
      "t": 126953.05634472705,
      "d": 135.99119531249744,
      "v": 64
    },
    {
      "midi": 47,
      "hit": false,
      "t": 126953.05634472726,
      "d": 135.99119531249744,
      "v": 64
    },
    {
      "midi": 67,
      "hit": false,
      "t": 127049.77422070362,
      "d": 188.16023144530482,
      "v": 64
    },
    {
      "midi": 79,
      "hit": false,
      "t": 127049.77422070382,
      "d": 188.16023144530482,
      "v": 64
    },
    {
      "midi": 40,
      "hit": false,
      "t": 127098.42624316455,
      "d": 142.43905371094297,
      "v": 63
    },
    {
      "midi": 40,
      "hit": false,
      "t": 127098.42624316475,
      "d": 142.43905371094297,
      "v": 63
    },
    {
      "midi": 45,
      "hit": false,
      "t": 127252.58867578174,
      "d": 171.16133203124627,
      "v": 69
    },
    {
      "midi": 69,
      "hit": false,
      "t": 127252.58867578174,
      "d": 614.8912236328324,
      "v": 69
    },
    {
      "midi": 45,
      "hit": false,
      "t": 127252.58867578194,
      "d": 171.16133203124627,
      "v": 69
    },
    {
      "midi": 81,
      "hit": false,
      "t": 127252.58867578194,
      "d": 614.8912236328324,
      "v": 69
    },
    {
      "midi": 45,
      "hit": false,
      "t": 127424.3361767583,
      "d": 291.3259658203169,
      "v": 64
    },
    {
      "midi": 45,
      "hit": false,
      "t": 127424.3361767585,
      "d": 291.3259658203169,
      "v": 64
    },
    {
      "midi": 45,
      "hit": false,
      "t": 127716.24831152393,
      "d": 142.43905371094297,
      "v": 64
    },
    {
      "midi": 45,
      "hit": false,
      "t": 127716.24831152413,
      "d": 142.43905371094297,
      "v": 64
    },
    {
      "midi": 67,
      "hit": false,
      "t": 128067.94967871145,
      "d": 180.54003515625664,
      "v": 64
    },
    {
      "midi": 76,
      "hit": false,
      "t": 128067.94967871165,
      "d": 180.54003515625664,
      "v": 64
    },
    {
      "midi": 45,
      "hit": false,
      "t": 128164.0813857427,
      "d": 144.78372949219192,
      "v": 52
    },
    {
      "midi": 45,
      "hit": false,
      "t": 128164.0813857429,
      "d": 144.78372949219192,
      "v": 52
    },
    {
      "midi": 66,
      "hit": false,
      "t": 128260.79926171926,
      "d": 189.91873828125244,
      "v": 64
    },
    {
      "midi": 83,
      "hit": false,
      "t": 128260.79926171947,
      "d": 189.91873828125244,
      "v": 64
    },
    {
      "midi": 45,
      "hit": false,
      "t": 128309.4512841802,
      "d": 152.99009472655598,
      "v": 52
    },
    {
      "midi": 45,
      "hit": false,
      "t": 128309.45128418041,
      "d": 152.99009472655598,
      "v": 52
    },
    {
      "midi": 64,
      "hit": false,
      "t": 128463.02754785208,
      "d": 1187.5782832031255,
      "v": 67
    },
    {
      "midi": 45,
      "hit": false,
      "t": 128463.02754785208,
      "d": 1187.5782832031255,
      "v": 67
    },
    {
      "midi": 81,
      "hit": false,
      "t": 128463.02754785228,
      "d": 1187.5782832031255,
      "v": 67
    },
    {
      "midi": 45,
      "hit": false,
      "t": 128463.02754785228,
      "d": 1187.5782832031255,
      "v": 67
    }
  ]
}