{
  "jsonPath": "Soundtracks/Video Game Music/Pokemon Ruby Sapphire/pokemon-ruby-sapphire-surfing.json",
  "path": "Soundtracks\\Video Game Music\\Pokemon Ruby Sapphire\\Pokemon_Ruby_Sapphire_Surfing.mid",
  "name": "Pokemon_Ruby_Sapphire_Surfing",
  "difficulty": "Advanced",
  "bpm": 188.0005514682843,
  "notes": [
    {
      "midi": 73,
      "hit": false,
      "t": 3.329189453125,
      "d": 167.125310546875,
      "v": 88
    },
    {
      "midi": 37,
      "hit": false,
      "t": 3.329189453125,
      "d": 1019.0648916015624,
      "v": 79
    },
    {
      "midi": 49,
      "hit": false,
      "t": 3.329189453125,
      "d": 1019.0648916015624,
      "v": 94
    },
    {
      "midi": 72,
      "hit": false,
      "t": 181.10790624999998,
      "d": 158.13649902343747,
      "v": 90
    },
    {
      "midi": 73,
      "hit": false,
      "t": 349.56489257812495,
      "d": 159.13525585937498,
      "v": 92
    },
    {
      "midi": 68,
      "hit": false,
      "t": 519.0206357421874,
      "d": 158.46941796875,
      "v": 94
    },
    {
      "midi": 73,
      "hit": false,
      "t": 687.810541015625,
      "d": 156.47190429687498,
      "v": 96
    },
    {
      "midi": 75,
      "hit": false,
      "t": 854.6029326171874,
      "d": 157.80358007812492,
      "v": 98
    },
    {
      "midi": 73,
      "hit": false,
      "t": 1024.0586757812498,
      "d": 517.3560410156251,
      "v": 98
    },
    {
      "midi": 77,
      "hit": false,
      "t": 1024.0586757812498,
      "d": 517.3560410156251,
      "v": 112
    },
    {
      "midi": 37,
      "hit": false,
      "t": 1024.0586757812498,
      "d": 686.1459462890625,
      "v": 111
    },
    {
      "midi": 44,
      "hit": false,
      "t": 1024.0586757812498,
      "d": 686.1459462890625,
      "v": 126
    },
    {
      "midi": 78,
      "hit": false,
      "t": 1541.7476357421874,
      "d": 158.4694179687499,
      "v": 101
    },
    {
      "midi": 73,
      "hit": false,
      "t": 1710.5375410156248,
      "d": 334.5835400390624,
      "v": 96
    },
    {
      "midi": 77,
      "hit": false,
      "t": 1710.5375410156248,
      "d": 334.5835400390624,
      "v": 106
    },
    {
      "midi": 37,
      "hit": false,
      "t": 1710.5375410156248,
      "d": 334.5835400390624,
      "v": 125
    },
    {
      "midi": 44,
      "hit": false,
      "t": 1710.5375410156248,
      "d": 334.5835400390624,
      "v": 121
    },
    {
      "midi": 73,
      "hit": false,
      "t": 2046.7856757812497,
      "d": 517.3560410156251,
      "v": 98
    },
    {
      "midi": 77,
      "hit": false,
      "t": 2046.7856757812497,
      "d": 517.3560410156251,
      "v": 108
    },
    {
      "midi": 35,
      "hit": false,
      "t": 2046.7856757812497,
      "d": 686.1459462890625,
      "v": 121
    },
    {
      "midi": 44,
      "hit": false,
      "t": 2046.7856757812497,
      "d": 686.1459462890625,
      "v": 118
    },
    {
      "midi": 78,
      "hit": false,
      "t": 2564.4746357421873,
      "d": 158.4694179687499,
      "v": 101
    },
    {
      "midi": 73,
      "hit": false,
      "t": 2733.2645410156247,
      "d": 334.5835400390624,
      "v": 96
    },
    {
      "midi": 77,
      "hit": false,
      "t": 2733.2645410156247,
      "d": 334.5835400390624,
      "v": 106
    },
    {
      "midi": 35,
      "hit": false,
      "t": 2733.2645410156247,
      "d": 334.5835400390624,
      "v": 113
    },
    {
      "midi": 44,
      "hit": false,
      "t": 2733.2645410156247,
      "d": 334.5835400390624,
      "v": 127
    },
    {
      "midi": 73,
      "hit": false,
      "t": 3069.5126757812495,
      "d": 517.3560410156251,
      "v": 98
    },
    {
      "midi": 77,
      "hit": false,
      "t": 3069.5126757812495,
      "d": 517.3560410156251,
      "v": 108
    },
    {
      "midi": 34,
      "hit": false,
      "t": 3069.5126757812495,
      "d": 686.1459462890625,
      "v": 110
    },
    {
      "midi": 41,
      "hit": false,
      "t": 3069.5126757812495,
      "d": 686.1459462890625,
      "v": 126
    },
    {
      "midi": 78,
      "hit": false,
      "t": 3587.201635742187,
      "d": 158.4694179687499,
      "v": 101
    },
    {
      "midi": 73,
      "hit": false,
      "t": 3755.9915410156245,
      "d": 334.5835400390624,
      "v": 96
    },
    {
      "midi": 77,
      "hit": false,
      "t": 3755.9915410156245,
      "d": 334.5835400390624,
      "v": 110
    },
    {
      "midi": 34,
      "hit": false,
      "t": 3755.9915410156245,
      "d": 334.5835400390624,
      "v": 113
    },
    {
      "midi": 41,
      "hit": false,
      "t": 3755.9915410156245,
      "d": 334.5835400390624,
      "v": 127
    },
    {
      "midi": 80,
      "hit": false,
      "t": 4092.2396757812494,
      "d": 169.12282421874988,
      "v": 106
    },
    {
      "midi": 33,
      "hit": false,
      "t": 4092.2396757812494,
      "d": 1021.0624052734374,
      "v": 109
    },
    {
      "midi": 45,
      "hit": false,
      "t": 4092.2396757812494,
      "d": 1021.0624052734374,
      "v": 126
    },
    {
      "midi": 73,
      "hit": false,
      "t": 4272.01590625,
      "d": 158.13649902343786,
      "v": 93
    },
    {
      "midi": 78,
      "hit": false,
      "t": 4272.01590625,
      "d": 158.13649902343786,
      "v": 107
    },
    {
      "midi": 77,
      "hit": false,
      "t": 4440.472892578125,
      "d": 159.13525585937532,
      "v": 102
    },
    {
      "midi": 68,
      "hit": false,
      "t": 4609.928635742187,
      "d": 158.46941796875035,
      "v": 93
    },
    {
      "midi": 80,
      "hit": false,
      "t": 4609.928635742187,
      "d": 158.46941796875035,
      "v": 107
    },
    {
      "midi": 73,
      "hit": false,
      "t": 4778.718541015624,
      "d": 156.47190429687453,
      "v": 96
    },
    {
      "midi": 85,
      "hit": false,
      "t": 4778.718541015624,
      "d": 156.47190429687453,
      "v": 110
    },
    {
      "midi": 75,
      "hit": false,
      "t": 4945.510932617186,
      "d": 157.80358007812538,
      "v": 93
    },
    {
      "midi": 87,
      "hit": false,
      "t": 4945.510932617186,
      "d": 157.80358007812538,
      "v": 107
    },
    {
      "midi": 77,
      "hit": false,
      "t": 5114.966675781249,
      "d": 517.3560410156251,
      "v": 98
    },
    {
      "midi": 89,
      "hit": false,
      "t": 5114.966675781249,
      "d": 517.3560410156251,
      "v": 112
    },
    {
      "midi": 37,
      "hit": false,
      "t": 5114.966675781249,
      "d": 686.1459462890625,
      "v": 111
    },
    {
      "midi": 44,
      "hit": false,
      "t": 5114.966675781249,
      "d": 686.1459462890625,
      "v": 126
    },
    {
      "midi": 78,
      "hit": false,
      "t": 5632.655635742187,
      "d": 158.46941796875035,
      "v": 93
    },
    {
      "midi": 90,
      "hit": false,
      "t": 5632.655635742187,
      "d": 158.46941796875035,
      "v": 107
    },
    {
      "midi": 77,
      "hit": false,
      "t": 5801.445541015624,
      "d": 334.5835400390624,
      "v": 96
    },
    {
      "midi": 89,
      "hit": false,
      "t": 5801.445541015624,
      "d": 334.5835400390624,
      "v": 110
    },
    {
      "midi": 37,
      "hit": false,
      "t": 5801.445541015624,
      "d": 334.5835400390624,
      "v": 125
    },
    {
      "midi": 44,
      "hit": false,
      "t": 5801.445541015624,
      "d": 334.5835400390624,
      "v": 121
    },
    {
      "midi": 77,
      "hit": false,
      "t": 6137.693675781249,
      "d": 517.3560410156251,
      "v": 98
    },
    {
      "midi": 89,
      "hit": false,
      "t": 6137.693675781249,
      "d": 517.3560410156251,
      "v": 112
    },
    {
      "midi": 35,
      "hit": false,
      "t": 6137.693675781249,
      "d": 686.1459462890625,
      "v": 121
    },
    {
      "midi": 44,
      "hit": false,
      "t": 6137.693675781249,
      "d": 686.1459462890625,
      "v": 118
    },
    {
      "midi": 78,
      "hit": false,
      "t": 6655.382635742187,
      "d": 158.46941796875035,
      "v": 93
    },
    {
      "midi": 90,
      "hit": false,
      "t": 6655.382635742187,
      "d": 158.46941796875035,
      "v": 107
    },
    {
      "midi": 77,
      "hit": false,
      "t": 6824.172541015624,
      "d": 334.5835400390624,
      "v": 96
    },
    {
      "midi": 89,
      "hit": false,
      "t": 6824.172541015624,
      "d": 334.5835400390624,
      "v": 110
    },
    {
      "midi": 35,
      "hit": false,
      "t": 6824.172541015624,
      "d": 334.5835400390624,
      "v": 113
    },
    {
      "midi": 44,
      "hit": false,
      "t": 6824.172541015624,
      "d": 334.5835400390624,
      "v": 127
    },
    {
      "midi": 78,
      "hit": false,
      "t": 7160.420675781249,
      "d": 517.3560410156251,
      "v": 98
    },
    {
      "midi": 90,
      "hit": false,
      "t": 7160.420675781249,
      "d": 517.3560410156251,
      "v": 112
    },
    {
      "midi": 34,
      "hit": false,
      "t": 7160.420675781249,
      "d": 686.1459462890625,
      "v": 110
    },
    {
      "midi": 41,
      "hit": false,
      "t": 7160.420675781249,
      "d": 686.1459462890625,
      "v": 126
    },
    {
      "midi": 66,
      "hit": false,
      "t": 7678.109635742187,
      "d": 158.46941796875035,
      "v": 93
    },
    {
      "midi": 70,
      "hit": false,
      "t": 7678.109635742187,
      "d": 158.46941796875035,
      "v": 107
    },
    {
      "midi": 68,
      "hit": false,
      "t": 7846.899541015624,
      "d": 156.47190429687544,
      "v": 96
    },
    {
      "midi": 72,
      "hit": false,
      "t": 7846.899541015624,
      "d": 156.47190429687544,
      "v": 110
    },
    {
      "midi": 34,
      "hit": false,
      "t": 7846.899541015624,
      "d": 334.5835400390624,
      "v": 113
    },
    {
      "midi": 41,
      "hit": false,
      "t": 7846.899541015624,
      "d": 334.5835400390624,
      "v": 127
    },
    {
      "midi": 70,
      "hit": false,
      "t": 8013.6919326171865,
      "d": 157.80358007812538,
      "v": 93
    },
    {
      "midi": 73,
      "hit": false,
      "t": 8013.6919326171865,
      "d": 157.80358007812538,
      "v": 107
    },
    {
      "midi": 30,
      "hit": false,
      "t": 8183.147675781249,
      "d": 967.795374023437,
      "v": 87
    },
    {
      "midi": 42,
      "hit": false,
      "t": 8183.147675781249,
      "d": 967.795374023437,
      "v": 104
    },
    {
      "midi": 66,
      "hit": false,
      "t": 8183.14767578125,
      "d": 347.90029785156275,
      "v": 93
    },
    {
      "midi": 75,
      "hit": false,
      "t": 8183.14767578125,
      "d": 347.90029785156275,
      "v": 107
    },
    {
      "midi": 68,
      "hit": false,
      "t": 8531.380892578125,
      "d": 337.9127294921873,
      "v": 89
    },
    {
      "midi": 77,
      "hit": false,
      "t": 8531.380892578125,
      "d": 337.9127294921873,
      "v": 103
    },
    {
      "midi": 69,
      "hit": false,
      "t": 8869.626541015625,
      "d": 334.5835400390624,
      "v": 85
    },
    {
      "midi": 78,
      "hit": false,
      "t": 8869.626541015625,
      "d": 334.5835400390624,
      "v": 99
    },
    {
      "midi": 37,
      "hit": false,
      "t": 9205.874675781248,
      "d": 1021.0624052734365,
      "v": 106
    },
    {
      "midi": 68,
      "hit": false,
      "t": 9205.87467578125,
      "d": 517.3560410156242,
      "v": 85
    },
    {
      "midi": 80,
      "hit": false,
      "t": 9205.87467578125,
      "d": 517.3560410156242,
      "v": 99
    },
    {
      "midi": 44,
      "hit": false,
      "t": 9554.107892578122,
      "d": 337.9127294921873,
      "v": 108
    },
    {
      "midi": 80,
      "hit": false,
      "t": 9723.563635742186,
      "d": 158.46941796875035,
      "v": 88
    },
    {
      "midi": 44,
      "hit": false,
      "t": 9892.353541015622,
      "d": 334.5835400390624,
      "v": 110
    },
    {
      "midi": 73,
      "hit": false,
      "t": 9892.353541015624,
      "d": 334.5835400390624,
      "v": 83
    },
    {
      "midi": 78,
      "hit": false,
      "t": 9892.353541015624,
      "d": 334.5835400390624,
      "v": 97
    },
    {
      "midi": 37,
      "hit": false,
      "t": 10228.601675781247,
      "d": 1021.0624052734365,
      "v": 106
    },
    {
      "midi": 68,
      "hit": false,
      "t": 10228.601675781249,
      "d": 517.3560410156242,
      "v": 85
    },
    {
      "midi": 77,
      "hit": false,
      "t": 10228.601675781249,
      "d": 517.3560410156242,
      "v": 99
    },
    {
      "midi": 44,
      "hit": false,
      "t": 10576.834892578121,
      "d": 337.9127294921873,
      "v": 108
    },
    {
      "midi": 73,
      "hit": false,
      "t": 10746.290635742185,
      "d": 158.46941796875035,
      "v": 88
    },
    {
      "midi": 44,
      "hit": false,
      "t": 10915.08054101562,
      "d": 334.5835400390624,
      "v": 110
    },
    {
      "midi": 73,
      "hit": false,
      "t": 10915.080541015623,
      "d": 156.47190429687544,
      "v": 83
    },
    {
      "midi": 77,
      "hit": false,
      "t": 10915.080541015623,
      "d": 156.47190429687544,
      "v": 97
    },
    {
      "midi": 78,
      "hit": false,
      "t": 11081.872932617185,
      "d": 157.80358007812538,
      "v": 88
    },
    {
      "midi": 35,
      "hit": false,
      "t": 11251.328675781246,
      "d": 1021.0624052734365,
      "v": 105
    },
    {
      "midi": 68,
      "hit": false,
      "t": 11251.328675781248,
      "d": 517.3560410156242,
      "v": 85
    },
    {
      "midi": 80,
      "hit": false,
      "t": 11251.328675781248,
      "d": 517.3560410156242,
      "v": 99
    },
    {
      "midi": 42,
      "hit": false,
      "t": 11599.56189257812,
      "d": 337.9127294921873,
      "v": 108
    },
    {
      "midi": 80,
      "hit": false,
      "t": 11769.017635742184,
      "d": 158.46941796875035,
      "v": 88
    },
    {
      "midi": 42,
      "hit": false,
      "t": 11937.80754101562,
      "d": 334.5835400390624,
      "v": 110
    },
    {
      "midi": 73,
      "hit": false,
      "t": 11937.807541015622,
      "d": 334.5835400390624,
      "v": 83
    },
    {
      "midi": 82,
      "hit": false,
      "t": 11937.807541015622,
      "d": 334.5835400390624,
      "v": 97
    },
    {
      "midi": 35,
      "hit": false,
      "t": 12274.055675781245,
      "d": 1021.0624052734365,
      "v": 105
    },
    {
      "midi": 68,
      "hit": false,
      "t": 12274.055675781246,
      "d": 517.3560410156242,
      "v": 85
    },
    {
      "midi": 80,
      "hit": false,
      "t": 12274.055675781246,
      "d": 517.3560410156242,
      "v": 99
    },
    {
      "midi": 42,
      "hit": false,
      "t": 12622.288892578119,
      "d": 337.9127294921873,
      "v": 108
    },
    {
      "midi": 78,
      "hit": false,
      "t": 12791.744635742183,
      "d": 158.46941796875035,
      "v": 88
    },
    {
      "midi": 42,
      "hit": false,
      "t": 12960.534541015619,
      "d": 334.5835400390624,
      "v": 110
    },
    {
      "midi": 73,
      "hit": false,
      "t": 12960.53454101562,
      "d": 156.47190429687544,
      "v": 83
    },
    {
      "midi": 77,
      "hit": false,
      "t": 12960.53454101562,
      "d": 156.47190429687544,
      "v": 97
    },
    {
      "midi": 80,
      "hit": false,
      "t": 13127.326932617183,
      "d": 157.80358007812538,
      "v": 88
    },
    {
      "midi": 34,
      "hit": false,
      "t": 13296.782675781244,
      "d": 1021.0624052734365,
      "v": 105
    },
    {
      "midi": 66,
      "hit": false,
      "t": 13296.782675781245,
      "d": 517.3560410156242,
      "v": 85
    },
    {
      "midi": 78,
      "hit": false,
      "t": 13296.782675781245,
      "d": 517.3560410156242,
      "v": 99
    },
    {
      "midi": 46,
      "hit": false,
      "t": 13645.015892578118,
      "d": 337.9127294921873,
      "v": 108
    },
    {
      "midi": 77,
      "hit": false,
      "t": 13814.471635742182,
      "d": 158.46941796875035,
      "v": 88
    },
    {
      "midi": 46,
      "hit": false,
      "t": 13983.261541015618,
      "d": 334.5835400390624,
      "v": 110
    },
    {
      "midi": 70,
      "hit": false,
      "t": 13983.26154101562,
      "d": 156.47190429687544,
      "v": 83
    },
    {
      "midi": 75,
      "hit": false,
      "t": 13983.26154101562,
      "d": 156.47190429687544,
      "v": 97
    },
    {
      "midi": 77,
      "hit": false,
      "t": 14150.053932617182,
      "d": 157.80358007812538,
      "v": 88
    },
    {
      "midi": 34,
      "hit": false,
      "t": 14319.509675781243,
      "d": 347.90029785156185,
      "v": 110
    },
    {
      "midi": 66,
      "hit": false,
      "t": 14319.509675781244,
      "d": 517.3560410156242,
      "v": 85
    },
    {
      "midi": 78,
      "hit": false,
      "t": 14319.509675781244,
      "d": 517.3560410156242,
      "v": 99
    },
    {
      "midi": 36,
      "hit": false,
      "t": 14667.742892578117,
      "d": 337.9127294921873,
      "v": 106
    },
    {
      "midi": 82,
      "hit": false,
      "t": 14837.198635742181,
      "d": 158.46941796875035,
      "v": 88
    },
    {
      "midi": 37,
      "hit": false,
      "t": 15005.988541015617,
      "d": 334.5835400390624,
      "v": 109
    },
    {
      "midi": 84,
      "hit": false,
      "t": 15005.988541015618,
      "d": 156.47190429687544,
      "v": 91
    },
    {
      "midi": 68,
      "hit": false,
      "t": 15005.988541015618,
      "d": 334.5835400390624,
      "v": 83
    },
    {
      "midi": 73,
      "hit": false,
      "t": 15005.988541015618,
      "d": 334.5835400390624,
      "v": 97
    },
    {
      "midi": 82,
      "hit": false,
      "t": 15172.780932617181,
      "d": 157.80358007812538,
      "v": 88
    },
    {
      "midi": 33,
      "hit": false,
      "t": 15342.236675781242,
      "d": 686.1459462890634,
      "v": 96
    },
    {
      "midi": 45,
      "hit": false,
      "t": 15342.236675781242,
      "d": 686.1459462890634,
      "v": 113
    },
    {
      "midi": 81,
      "hit": false,
      "t": 15342.236675781243,
      "d": 347.90029785156185,
      "v": 85
    },
    {
      "midi": 85,
      "hit": false,
      "t": 15342.236675781243,
      "d": 347.90029785156185,
      "v": 99
    },
    {
      "midi": 78,
      "hit": false,
      "t": 15690.469892578118,
      "d": 337.9127294921873,
      "v": 81
    },
    {
      "midi": 84,
      "hit": false,
      "t": 15690.469892578118,
      "d": 337.9127294921873,
      "v": 95
    },
    {
      "midi": 78,
      "hit": false,
      "t": 16028.715541015617,
      "d": 334.5835400390624,
      "v": 83
    },
    {
      "midi": 82,
      "hit": false,
      "t": 16028.715541015617,
      "d": 334.5835400390624,
      "v": 97
    },
    {
      "midi": 32,
      "hit": false,
      "t": 16028.715541015617,
      "d": 334.5835400390624,
      "v": 99
    },
    {
      "midi": 44,
      "hit": false,
      "t": 16028.715541015617,
      "d": 334.5835400390624,
      "v": 116
    },
    {
      "midi": 73,
      "hit": false,
      "t": 16364.963675781242,
      "d": 347.90029785156185,
      "v": 80
    },
    {
      "midi": 85,
      "hit": false,
      "t": 16364.963675781242,
      "d": 347.90029785156185,
      "v": 94
    },
    {
      "midi": 30,
      "hit": false,
      "t": 16364.963675781242,
      "d": 686.1459462890616,
      "v": 75
    },
    {
      "midi": 42,
      "hit": false,
      "t": 16364.963675781242,
      "d": 686.1459462890616,
      "v": 92
    },
    {
      "midi": 75,
      "hit": false,
      "t": 16713.19689257812,
      "d": 337.9127294921891,
      "v": 76
    },
    {
      "midi": 87,
      "hit": false,
      "t": 16713.19689257812,
      "d": 337.9127294921891,
      "v": 90
    },
    {
      "midi": 49,
      "hit": false,
      "t": 17051.44254101562,
      "d": 302.623321289062,
      "v": 75
    },
    {
      "midi": 78,
      "hit": false,
      "t": 17051.442541015622,
      "d": 334.58354003906425,
      "v": 72
    },
    {
      "midi": 84,
      "hit": false,
      "t": 17051.442541015622,
      "d": 334.58354003906425,
      "v": 86
    },
    {
      "midi": 49,
      "hit": false,
      "t": 17387.690675781243,
      "d": 1021.062405273442,
      "v": 95
    },
    {
      "midi": 80,
      "hit": false,
      "t": 17387.69067578125,
      "d": 517.3560410156242,
      "v": 72
    },
    {
      "midi": 92,
      "hit": false,
      "t": 17387.69067578125,
      "d": 517.3560410156242,
      "v": 86
    },
    {
      "midi": 56,
      "hit": false,
      "t": 17735.923892578117,
      "d": 337.9127294921891,
      "v": 96
    },
    {
      "midi": 92,
      "hit": false,
      "t": 17905.37963574219,
      "d": 158.46941796875035,
      "v": 75
    },
    {
      "midi": 56,
      "hit": false,
      "t": 18074.16954101562,
      "d": 334.58354003906425,
      "v": 98
    },
    {
      "midi": 85,
      "hit": false,
      "t": 18074.169541015628,
      "d": 334.58354003906425,
      "v": 70
    },
    {
      "midi": 90,
      "hit": false,
      "t": 18074.169541015628,
      "d": 334.58354003906425,
      "v": 84
    },
    {
      "midi": 49,
      "hit": false,
      "t": 18410.41767578125,
      "d": 1021.062405273442,
      "v": 95
    },
    {
      "midi": 80,
      "hit": false,
      "t": 18410.417675781257,
      "d": 517.3560410156242,
      "v": 72
    },
    {
      "midi": 89,
      "hit": false,
      "t": 18410.417675781257,
      "d": 517.3560410156242,
      "v": 86
    },
    {
      "midi": 56,
      "hit": false,
      "t": 18758.650892578124,
      "d": 337.9127294921891,
      "v": 96
    },
    {
      "midi": 85,
      "hit": false,
      "t": 18928.106635742195,
      "d": 158.46941796875035,
      "v": 75
    },
    {
      "midi": 56,
      "hit": false,
      "t": 19096.896541015627,
      "d": 334.58354003906425,
      "v": 98
    },
    {
      "midi": 85,
      "hit": false,
      "t": 19096.896541015634,
      "d": 156.47190429687544,
      "v": 70
    },
    {
      "midi": 89,
      "hit": false,
      "t": 19096.896541015634,
      "d": 156.47190429687544,
      "v": 84
    },
    {
      "midi": 90,
      "hit": false,
      "t": 19263.6889326172,
      "d": 157.80358007812538,
      "v": 75
    },
    {
      "midi": 47,
      "hit": false,
      "t": 19433.144675781256,
      "d": 1021.062405273442,
      "v": 94
    },
    {
      "midi": 80,
      "hit": false,
      "t": 19433.144675781263,
      "d": 517.3560410156242,
      "v": 72
    },
    {
      "midi": 92,
      "hit": false,
      "t": 19433.144675781263,
      "d": 517.3560410156242,
      "v": 86
    },
    {
      "midi": 54,
      "hit": false,
      "t": 19781.37789257813,
      "d": 337.9127294921891,
      "v": 96
    },
    {
      "midi": 92,
      "hit": false,
      "t": 19950.8336357422,
      "d": 158.46941796875035,
      "v": 75
    },
    {
      "midi": 54,
      "hit": false,
      "t": 20119.623541015633,
      "d": 334.58354003906425,
      "v": 98
    },
    {
      "midi": 85,
      "hit": false,
      "t": 20119.62354101564,
      "d": 334.58354003906425,
      "v": 70
    },
    {
      "midi": 94,
      "hit": false,
      "t": 20119.62354101564,
      "d": 334.58354003906425,
      "v": 84
    },
    {
      "midi": 47,
      "hit": false,
      "t": 20455.87167578126,
      "d": 1021.062405273442,
      "v": 94
    },
    {
      "midi": 80,
      "hit": false,
      "t": 20455.87167578127,
      "d": 517.3560410156242,
      "v": 72
    },
    {
      "midi": 92,
      "hit": false,
      "t": 20455.87167578127,
      "d": 517.3560410156242,
      "v": 86
    },
    {
      "midi": 54,
      "hit": false,
      "t": 20804.104892578136,
      "d": 337.9127294921891,
      "v": 96
    },
    {
      "midi": 90,
      "hit": false,
      "t": 20973.560635742208,
      "d": 158.46941796875035,
      "v": 75
    },
    {
      "midi": 54,
      "hit": false,
      "t": 21142.35054101564,
      "d": 334.58354003906425,
      "v": 98
    },
    {
      "midi": 85,
      "hit": false,
      "t": 21142.350541015647,
      "d": 156.47190429687544,
      "v": 70
    },
    {
      "midi": 89,
      "hit": false,
      "t": 21142.350541015647,
      "d": 156.47190429687544,
      "v": 84
    },
    {
      "midi": 92,
      "hit": false,
      "t": 21309.14293261721,
      "d": 157.80358007812538,
      "v": 75
    },
    {
      "midi": 46,
      "hit": false,
      "t": 21478.598675781268,
      "d": 1021.062405273442,
      "v": 94
    },
    {
      "midi": 78,
      "hit": false,
      "t": 21478.598675781275,
      "d": 517.3560410156242,
      "v": 72
    },
    {
      "midi": 90,
      "hit": false,
      "t": 21478.598675781275,
      "d": 517.3560410156242,
      "v": 86
    },
    {
      "midi": 58,
      "hit": false,
      "t": 21826.831892578142,
      "d": 337.9127294921891,
      "v": 96
    },
    {
      "midi": 89,
      "hit": false,
      "t": 21996.287635742214,
      "d": 158.46941796875035,
      "v": 75
    },
    {
      "midi": 58,
      "hit": false,
      "t": 22165.077541015646,
      "d": 334.58354003906425,
      "v": 98
    },
    {
      "midi": 82,
      "hit": false,
      "t": 22165.077541015653,
      "d": 156.47190429687544,
      "v": 70
    },
    {
      "midi": 87,
      "hit": false,
      "t": 22165.077541015653,
      "d": 156.47190429687544,
      "v": 84
    },
    {
      "midi": 89,
      "hit": false,
      "t": 22331.869932617217,
      "d": 157.80358007812538,
      "v": 75
    },
    {
      "midi": 46,
      "hit": false,
      "t": 22501.325675781274,
      "d": 347.90029785156366,
      "v": 99
    },
    {
      "midi": 78,
      "hit": false,
      "t": 22501.32567578128,
      "d": 517.3560410156242,
      "v": 72
    },
    {
      "midi": 90,
      "hit": false,
      "t": 22501.32567578128,
      "d": 517.3560410156242,
      "v": 86
    },
    {
      "midi": 48,
      "hit": false,
      "t": 22849.558892578152,
      "d": 337.9127294921891,
      "v": 95
    },
    {
      "midi": 89,
      "hit": false,
      "t": 23019.01463574222,
      "d": 158.46941796875035,
      "v": 75
    },
    {
      "midi": 49,
      "hit": false,
      "t": 23187.804541015656,
      "d": 334.58354003906425,
      "v": 98
    },
    {
      "midi": 90,
      "hit": false,
      "t": 23187.80454101566,
      "d": 156.47190429687544,
      "v": 78
    },
    {
      "midi": 82,
      "hit": false,
      "t": 23187.80454101566,
      "d": 334.58354003906425,
      "v": 70
    },
    {
      "midi": 85,
      "hit": false,
      "t": 23187.80454101566,
      "d": 334.58354003906425,
      "v": 84
    },
    {
      "midi": 92,
      "hit": false,
      "t": 23354.596932617224,
      "d": 157.80358007812538,
      "v": 75
    },
    {
      "midi": 42,
      "hit": false,
      "t": 23524.052675781284,
      "d": 347.90029785156366,
      "v": 91
    },
    {
      "midi": 54,
      "hit": false,
      "t": 23524.052675781284,
      "d": 347.90029785156366,
      "v": 106
    },
    {
      "midi": 81,
      "hit": false,
      "t": 23524.052675781288,
      "d": 347.90029785156366,
      "v": 72
    },
    {
      "midi": 93,
      "hit": false,
      "t": 23524.052675781288,
      "d": 347.90029785156366,
      "v": 86
    },
    {
      "midi": 41,
      "hit": false,
      "t": 23872.285892578162,
      "d": 337.9127294921891,
      "v": 87
    },
    {
      "midi": 53,
      "hit": false,
      "t": 23872.285892578162,
      "d": 337.9127294921891,
      "v": 102
    },
    {
      "midi": 80,
      "hit": false,
      "t": 23872.285892578166,
      "d": 337.9127294921891,
      "v": 68
    },
    {
      "midi": 92,
      "hit": false,
      "t": 23872.285892578166,
      "d": 337.9127294921891,
      "v": 82
    },
    {
      "midi": 39,
      "hit": false,
      "t": 24210.531541015665,
      "d": 334.58354003906425,
      "v": 88
    },
    {
      "midi": 51,
      "hit": false,
      "t": 24210.531541015665,
      "d": 334.58354003906425,
      "v": 104
    },
    {
      "midi": 78,
      "hit": false,
      "t": 24210.53154101567,
      "d": 334.58354003906425,
      "v": 70
    },
    {
      "midi": 90,
      "hit": false,
      "t": 24210.53154101567,
      "d": 334.58354003906425,
      "v": 84
    },
    {
      "midi": 37,
      "hit": false,
      "t": 24546.779675781294,
      "d": 517.3560410156242,
      "v": 90
    },
    {
      "midi": 49,
      "hit": false,
      "t": 24546.779675781294,
      "d": 517.3560410156242,
      "v": 106
    },
    {
      "midi": 85,
      "hit": false,
      "t": 24546.779675781298,
      "d": 1021.0624052734383,
      "v": 67
    },
    {
      "midi": 89,
      "hit": false,
      "t": 24546.779675781298,
      "d": 1021.0624052734383,
      "v": 81
    },
    {
      "midi": 61,
      "hit": false,
      "t": 25064.468635742232,
      "d": 158.46941796875035,
      "v": 95
    },
    {
      "midi": 60,
      "hit": false,
      "t": 25233.25854101567,
      "d": 156.47190429687544,
      "v": 98
    },
    {
      "midi": 58,
      "hit": false,
      "t": 25400.050932617236,
      "d": 157.80358007812538,
      "v": 95
    },
    {
      "midi": 72,
      "hit": false,
      "t": 25569.5066757813,
      "d": 517.3560410156242,
      "v": 80
    },
    {
      "midi": 56,
      "hit": false,
      "t": 25569.5066757813,
      "d": 1708.8729462890624,
      "v": 95
    },
    {
      "midi": 68,
      "hit": false,
      "t": 26087.19563574224,
      "d": 158.46941796875035,
      "v": 75
    },
    {
      "midi": 70,
      "hit": false,
      "t": 26255.985541015678,
      "d": 156.47190429687544,
      "v": 78
    },
    {
      "midi": 72,
      "hit": false,
      "t": 26422.777932617242,
      "d": 157.80358007812538,
      "v": 75
    },
    {
      "midi": 75,
      "hit": false,
      "t": 26592.233675781306,
      "d": 517.3560410156242,
      "v": 80
    },
    {
      "midi": 72,
      "hit": false,
      "t": 27109.922635742245,
      "d": 158.46941796875035,
      "v": 75
    },
    {
      "midi": 56,
      "hit": false,
      "t": 27278.712541015677,
      "d": 334.58354003906425,
      "v": 98
    },
    {
      "midi": 73,
      "hit": false,
      "t": 27278.712541015684,
      "d": 156.47190429687544,
      "v": 78
    },
    {
      "midi": 75,
      "hit": false,
      "t": 27445.50493261725,
      "d": 157.80358007812538,
      "v": 75
    },
    {
      "midi": 61,
      "hit": false,
      "t": 27614.960675781305,
      "d": 1021.0624052734383,
      "v": 95
    },
    {
      "midi": 85,
      "hit": false,
      "t": 27614.960675781313,
      "d": 517.3560410156242,
      "v": 80
    },
    {
      "midi": 77,
      "hit": false,
      "t": 27614.960675781313,
      "d": 1021.062405273442,
      "v": 75
    },
    {
      "midi": 80,
      "hit": false,
      "t": 28132.64963574225,
      "d": 158.46941796875035,
      "v": 75
    },
    {
      "midi": 82,
      "hit": false,
      "t": 28301.43954101569,
      "d": 156.47190429687544,
      "v": 78
    },
    {
      "midi": 84,
      "hit": false,
      "t": 28468.231932617255,
      "d": 157.80358007812538,
      "v": 75
    },
    {
      "midi": 61,
      "hit": false,
      "t": 28637.687675781308,
      "d": 361.2170556640631,
      "v": 88
    },
    {
      "midi": 85,
      "hit": false,
      "t": 28637.68767578132,
      "d": 361.2170556640631,
      "v": 68
    },
    {
      "midi": 56,
      "hit": false,
      "t": 28985.920892578182,
      "d": 351.2294873046885,
      "v": 84
    },
    {
      "midi": 92,
      "hit": false,
      "t": 28985.920892578193,
      "d": 351.2294873046885,
      "v": 64
    },
    {
      "midi": 61,
      "hit": false,
      "t": 29324.166541015682,
      "d": 347.90029785156366,
      "v": 86
    },
    {
      "midi": 89,
      "hit": false,
      "t": 29324.166541015693,
      "d": 347.90029785156366,
      "v": 66
    },
    {
      "midi": 62,
      "hit": false,
      "t": 29660.414675781307,
      "d": 1708.8729462890624,
      "v": 95
    },
    {
      "midi": 77,
      "hit": false,
      "t": 29660.414675781318,
      "d": 517.3560410156279,
      "v": 80
    },
    {
      "midi": 74,
      "hit": false,
      "t": 30178.10363574226,
      "d": 158.46941796875035,
      "v": 75
    },
    {
      "midi": 75,
      "hit": false,
      "t": 30346.8935410157,
      "d": 156.47190429687544,
      "v": 78
    },
    {
      "midi": 77,
      "hit": false,
      "t": 30513.685932617263,
      "d": 157.80358007812538,
      "v": 75
    },
    {
      "midi": 80,
      "hit": false,
      "t": 30683.141675781328,
      "d": 517.3560410156242,
      "v": 80
    },
    {
      "midi": 77,
      "hit": false,
      "t": 31200.830635742266,
      "d": 158.46941796875035,
      "v": 75
    },
    {
      "midi": 56,
      "hit": false,
      "t": 31369.620541015684,
      "d": 334.58354003906425,
      "v": 98
    },
    {
      "midi": 78,
      "hit": false,
      "t": 31369.620541015705,
      "d": 156.47190429687544,
      "v": 78
    },
    {
      "midi": 80,
      "hit": false,
      "t": 31536.41293261727,
      "d": 157.80358007812538,
      "v": 75
    },
    {
      "midi": 63,
      "hit": false,
      "t": 31705.868675781312,
      "d": 2043.7894052734337,
      "v": 95
    },
    {
      "midi": 87,
      "hit": false,
      "t": 31705.868675781334,
      "d": 517.3560410156242,
      "v": 80
    },
    {
      "midi": 78,
      "hit": false,
      "t": 31705.868675781334,
      "d": 1021.062405273442,
      "v": 75
    },
    {
      "midi": 82,
      "hit": false,
      "t": 32223.557635742272,
      "d": 158.46941796875035,
      "v": 75
    },
    {
      "midi": 84,
      "hit": false,
      "t": 32392.34754101571,
      "d": 156.47190429687544,
      "v": 78
    },
    {
      "midi": 85,
      "hit": false,
      "t": 32559.139932617276,
      "d": 157.80358007812538,
      "v": 75
    },
    {
      "midi": 87,
      "hit": false,
      "t": 32728.59567578134,
      "d": 361.2170556640631,
      "v": 68
    },
    {
      "midi": 94,
      "hit": false,
      "t": 33076.82889257822,
      "d": 351.2294873046849,
      "v": 64
    },
    {
      "midi": 90,
      "hit": false,
      "t": 33415.07454101572,
      "d": 347.9002978515564,
      "v": 66
    },
    {
      "midi": 54,
      "hit": false,
      "t": 33751.32267578131,
      "d": 1021.062405273442,
      "v": 108
    },
    {
      "midi": 82,
      "hit": false,
      "t": 33751.32267578134,
      "d": 517.3560410156206,
      "v": 93
    },
    {
      "midi": 63,
      "hit": false,
      "t": 34099.55589257819,
      "d": 337.91272949218546,
      "v": 109
    },
    {
      "midi": 82,
      "hit": false,
      "t": 34269.011635742274,
      "d": 158.46941796875035,
      "v": 88
    },
    {
      "midi": 66,
      "hit": false,
      "t": 34437.80154101569,
      "d": 334.58354003906425,
      "v": 111
    },
    {
      "midi": 84,
      "hit": false,
      "t": 34437.80154101571,
      "d": 156.4719042968718,
      "v": 91
    },
    {
      "midi": 82,
      "hit": false,
      "t": 34604.59393261727,
      "d": 157.80358007812174,
      "v": 88
    },
    {
      "midi": 53,
      "hit": false,
      "t": 34774.049675781316,
      "d": 1021.062405273442,
      "v": 108
    },
    {
      "midi": 80,
      "hit": false,
      "t": 34774.04967578132,
      "d": 517.3560410156279,
      "v": 93
    },
    {
      "midi": 60,
      "hit": false,
      "t": 35122.282892578194,
      "d": 337.91272949218546,
      "v": 109
    },
    {
      "midi": 77,
      "hit": false,
      "t": 35291.738635742266,
      "d": 158.46941796875035,
      "v": 88
    },
    {
      "midi": 63,
      "hit": false,
      "t": 35460.528541015694,
      "d": 334.58354003906425,
      "v": 111
    },
    {
      "midi": 75,
      "hit": false,
      "t": 35460.5285410157,
      "d": 156.4719042968718,
      "v": 91
    },
    {
      "midi": 77,
      "hit": false,
      "t": 35627.32093261726,
      "d": 157.80358007812174,
      "v": 88
    },
    {
      "midi": 78,
      "hit": false,
      "t": 35796.776675781315,
      "d": 517.3560410156279,
      "v": 93
    },
    {
      "midi": 51,
      "hit": false,
      "t": 35796.77667578132,
      "d": 1021.062405273442,
      "v": 108
    },
    {
      "midi": 58,
      "hit": false,
      "t": 36145.0098925782,
      "d": 337.91272949218546,
      "v": 109
    },
    {
      "midi": 77,
      "hit": false,
      "t": 36314.46563574226,
      "d": 158.46941796875035,
      "v": 88
    },
    {
      "midi": 75,
      "hit": false,
      "t": 36483.25554101569,
      "d": 156.4719042968718,
      "v": 91
    },
    {
      "midi": 63,
      "hit": false,
      "t": 36483.2555410157,
      "d": 334.58354003906425,
      "v": 111
    },
    {
      "midi": 78,
      "hit": false,
      "t": 36650.04793261725,
      "d": 157.80358007812174,
      "v": 88
    },
    {
      "midi": 77,
      "hit": false,
      "t": 36819.50367578131,
      "d": 347.90029785156366,
      "v": 93
    },
    {
      "midi": 49,
      "hit": false,
      "t": 36819.50367578133,
      "d": 1021.062405273442,
      "v": 108
    },
    {
      "midi": 78,
      "hit": false,
      "t": 37167.736892578185,
      "d": 337.91272949218546,
      "v": 89
    },
    {
      "midi": 56,
      "hit": false,
      "t": 37167.73689257821,
      "d": 337.91272949218546,
      "v": 109
    },
    {
      "midi": 80,
      "hit": false,
      "t": 37505.982541015685,
      "d": 334.58354003906425,
      "v": 91
    },
    {
      "midi": 61,
      "hit": false,
      "t": 37505.98254101571,
      "d": 334.58354003906425,
      "v": 111
    },
    {
      "midi": 70,
      "hit": false,
      "t": 37842.23067578131,
      "d": 517.3560410156279,
      "v": 85
    },
    {
      "midi": 82,
      "hit": false,
      "t": 37842.23067578131,
      "d": 517.3560410156279,
      "v": 95
    },
    {
      "midi": 30,
      "hit": false,
      "t": 37842.230675781335,
      "d": 1021.0624052734347,
      "v": 95
    },
    {
      "midi": 42,
      "hit": false,
      "t": 37842.230675781335,
      "d": 1021.0624052734347,
      "v": 113
    },
    {
      "midi": 70,
      "hit": false,
      "t": 38359.919635742255,
      "d": 158.46941796875035,
      "v": 80
    },
    {
      "midi": 82,
      "hit": false,
      "t": 38359.919635742255,
      "d": 158.46941796875035,
      "v": 94
    },
    {
      "midi": 72,
      "hit": false,
      "t": 38528.70954101569,
      "d": 156.4719042968718,
      "v": 83
    },
    {
      "midi": 84,
      "hit": false,
      "t": 38528.70954101569,
      "d": 156.4719042968718,
      "v": 97
    },
    {
      "midi": 70,
      "hit": false,
      "t": 38695.50193261725,
      "d": 157.80358007812174,
      "v": 80
    },
    {
      "midi": 82,
      "hit": false,
      "t": 38695.50193261725,
      "d": 157.80358007812174,
      "v": 94
    },
    {
      "midi": 68,
      "hit": false,
      "t": 38864.957675781305,
      "d": 517.3560410156279,
      "v": 85
    },
    {
      "midi": 80,
      "hit": false,
      "t": 38864.957675781305,
      "d": 517.3560410156279,
      "v": 99
    },
    {
      "midi": 29,
      "hit": false,
      "t": 38864.957675781334,
      "d": 1021.0624052734347,
      "v": 95
    },
    {
      "midi": 41,
      "hit": false,
      "t": 38864.957675781334,
      "d": 1021.0624052734347,
      "v": 113
    },
    {
      "midi": 65,
      "hit": false,
      "t": 39382.64663574225,
      "d": 158.46941796875035,
      "v": 80
    },
    {
      "midi": 77,
      "hit": false,
      "t": 39382.64663574225,
      "d": 158.46941796875035,
      "v": 94
    },
    {
      "midi": 66,
      "hit": false,
      "t": 39551.43654101568,
      "d": 156.4719042968718,
      "v": 83
    },
    {
      "midi": 78,
      "hit": false,
      "t": 39551.43654101568,
      "d": 156.4719042968718,
      "v": 97
    },
    {
      "midi": 68,
      "hit": false,
      "t": 39718.22893261724,
      "d": 157.80358007812174,
      "v": 80
    },
    {
      "midi": 80,
      "hit": false,
      "t": 39718.22893261724,
      "d": 157.80358007812174,
      "v": 94
    },
    {
      "midi": 70,
      "hit": false,
      "t": 39887.6846757813,
      "d": 347.90029785156366,
      "v": 85
    },
    {
      "midi": 82,
      "hit": false,
      "t": 39887.6846757813,
      "d": 347.90029785156366,
      "v": 99
    },
    {
      "midi": 27,
      "hit": false,
      "t": 39887.68467578133,
      "d": 1021.0624052734347,
      "v": 94
    },
    {
      "midi": 39,
      "hit": false,
      "t": 39887.68467578133,
      "d": 1021.0624052734347,
      "v": 112
    },
    {
      "midi": 72,
      "hit": false,
      "t": 40235.917892578174,
      "d": 337.91272949218546,
      "v": 81
    },
    {
      "midi": 84,
      "hit": false,
      "t": 40235.917892578174,
      "d": 337.91272949218546,
      "v": 95
    },
    {
      "midi": 73,
      "hit": false,
      "t": 40574.163541015674,
      "d": 334.58354003906425,
      "v": 83
    },
    {
      "midi": 85,
      "hit": false,
      "t": 40574.163541015674,
      "d": 334.58354003906425,
      "v": 97
    },
    {
      "midi": 72,
      "hit": false,
      "t": 40910.4116757813,
      "d": 1021.0624052734347,
      "v": 80
    },
    {
      "midi": 84,
      "hit": false,
      "t": 40910.4116757813,
      "d": 1021.0624052734347,
      "v": 94
    },
    {
      "midi": 32,
      "hit": false,
      "t": 40910.41167578133,
      "d": 347.90029785156366,
      "v": 96
    },
    {
      "midi": 44,
      "hit": false,
      "t": 40910.41167578133,
      "d": 347.90029785156366,
      "v": 113
    },
    {
      "midi": 34,
      "hit": false,
      "t": 41258.64489257821,
      "d": 337.91272949218546,
      "v": 99
    },
    {
      "midi": 46,
      "hit": false,
      "t": 41258.64489257821,
      "d": 337.91272949218546,
      "v": 115
    },
    {
      "midi": 36,
      "hit": false,
      "t": 41596.89054101571,
      "d": 334.58354003906425,
      "v": 102
    },
    {
      "midi": 48,
      "hit": false,
      "t": 41596.89054101571,
      "d": 334.58354003906425,
      "v": 118
    },
    {
      "midi": 73,
      "hit": false,
      "t": 41933.1386757813,
      "d": 517.3560410156279,
      "v": 98
    },
    {
      "midi": 77,
      "hit": false,
      "t": 41933.1386757813,
      "d": 517.3560410156279,
      "v": 112
    },
    {
      "midi": 37,
      "hit": false,
      "t": 41933.13867578134,
      "d": 686.1459462890634,
      "v": 111
    },
    {
      "midi": 44,
      "hit": false,
      "t": 41933.13867578134,
      "d": 686.1459462890634,
      "v": 126
    },
    {
      "midi": 78,
      "hit": false,
      "t": 42450.827635742244,
      "d": 158.46941796875035,
      "v": 101
    },
    {
      "midi": 73,
      "hit": false,
      "t": 42619.61754101568,
      "d": 334.58354003906425,
      "v": 96
    },
    {
      "midi": 77,
      "hit": false,
      "t": 42619.61754101568,
      "d": 334.58354003906425,
      "v": 106
    },
    {
      "midi": 37,
      "hit": false,
      "t": 42619.617541015716,
      "d": 334.58354003906425,
      "v": 114
    },
    {
      "midi": 44,
      "hit": false,
      "t": 42619.617541015716,
      "d": 334.58354003906425,
      "v": 125
    },
    {
      "midi": 73,
      "hit": false,
      "t": 42955.86567578131,
      "d": 517.3560410156279,
      "v": 98
    },
    {
      "midi": 77,
      "hit": false,
      "t": 42955.86567578131,
      "d": 517.3560410156279,
      "v": 108
    },
    {
      "midi": 37,
      "hit": false,
      "t": 42955.865675781344,
      "d": 1021.0624052734347,
      "v": 111
    },
    {
      "midi": 44,
      "hit": false,
      "t": 42955.865675781344,
      "d": 1021.0624052734347,
      "v": 122
    },
    {
      "midi": 78,
      "hit": false,
      "t": 43473.55463574225,
      "d": 158.46941796875035,
      "v": 101
    },
    {
      "midi": 73,
      "hit": false,
      "t": 43642.344541015686,
      "d": 334.58354003906425,
      "v": 96
    },
    {
      "midi": 77,
      "hit": false,
      "t": 43642.344541015686,
      "d": 334.58354003906425,
      "v": 106
    },
    {
      "midi": 73,
      "hit": false,
      "t": 43978.592675781314,
      "d": 517.3560410156279,
      "v": 98
    },
    {
      "midi": 77,
      "hit": false,
      "t": 43978.592675781314,
      "d": 517.3560410156279,
      "v": 108
    },
    {
      "midi": 37,
      "hit": false,
      "t": 43978.59267578134,
      "d": 686.1459462890634,
      "v": 111
    },
    {
      "midi": 44,
      "hit": false,
      "t": 43978.59267578134,
      "d": 686.1459462890634,
      "v": 122
    },
    {
      "midi": 78,
      "hit": false,
      "t": 44496.281635742256,
      "d": 158.46941796875035,
      "v": 101
    },
    {
      "midi": 73,
      "hit": false,
      "t": 44665.07154101569,
      "d": 156.4719042968718,
      "v": 96
    },
    {
      "midi": 77,
      "hit": false,
      "t": 44665.07154101569,
      "d": 156.4719042968718,
      "v": 110
    },
    {
      "midi": 37,
      "hit": false,
      "t": 44665.07154101572,
      "d": 334.58354003906425,
      "v": 114
    },
    {
      "midi": 44,
      "hit": false,
      "t": 44665.07154101572,
      "d": 334.58354003906425,
      "v": 125
    },
    {
      "midi": 75,
      "hit": false,
      "t": 44831.86393261725,
      "d": 157.80358007812174,
      "v": 101
    },
    {
      "midi": 73,
      "hit": false,
      "t": 45001.319675781306,
      "d": 347.90029785156366,
      "v": 106
    },
    {
      "midi": 37,
      "hit": false,
      "t": 45001.31967578135,
      "d": 1021.0624052734347,
      "v": 111
    },
    {
      "midi": 44,
      "hit": false,
      "t": 45001.31967578135,
      "d": 1021.0624052734347,
      "v": 126
    },
    {
      "midi": 73,
      "hit": false,
      "t": 45349.552892578184,
      "d": 337.91272949218546,
      "v": 94
    },
    {
      "midi": 77,
      "hit": false,
      "t": 45349.552892578184,
      "d": 337.91272949218546,
      "v": 108
    },
    {
      "midi": 73,
      "hit": false,
      "t": 45687.79854101568,
      "d": 334.58354003906425,
      "v": 96
    },
    {
      "midi": 80,
      "hit": false,
      "t": 45687.79854101568,
      "d": 334.58354003906425,
      "v": 110
    },
    {
      "midi": 77,
      "hit": false,
      "t": 46024.04667578131,
      "d": 517.3560410156279,
      "v": 98
    },
    {
      "midi": 82,
      "hit": false,
      "t": 46024.04667578131,
      "d": 517.3560410156279,
      "v": 112
    },
    {
      "midi": 34,
      "hit": false,
      "t": 46024.04667578135,
      "d": 686.1459462890634,
      "v": 110
    },
    {
      "midi": 41,
      "hit": false,
      "t": 46024.04667578135,
      "d": 686.1459462890634,
      "v": 126
    },
    {
      "midi": 81,
      "hit": false,
      "t": 46541.735635742254,
      "d": 158.46941796875035,
      "v": 101
    },
    {
      "midi": 77,
      "hit": false,
      "t": 46710.52554101569,
      "d": 156.4719042968718,
      "v": 96
    },
    {
      "midi": 82,
      "hit": false,
      "t": 46710.52554101569,
      "d": 156.4719042968718,
      "v": 110
    },
    {
      "midi": 34,
      "hit": false,
      "t": 46710.525541015726,
      "d": 334.58354003906425,
      "v": 113
    },
    {
      "midi": 41,
      "hit": false,
      "t": 46710.525541015726,
      "d": 334.58354003906425,
      "v": 125
    },
    {
      "midi": 84,
      "hit": false,
      "t": 46877.31793261725,
      "d": 157.80358007812174,
      "v": 101
    },
    {
      "midi": 77,
      "hit": false,
      "t": 47046.7736757813,
      "d": 347.90029785156366,
      "v": 98
    },
    {
      "midi": 85,
      "hit": false,
      "t": 47046.7736757813,
      "d": 347.90029785156366,
      "v": 112
    },
    {
      "midi": 34,
      "hit": false,
      "t": 47046.773675781355,
      "d": 1021.0624052734347,
      "v": 110
    },
    {
      "midi": 41,
      "hit": false,
      "t": 47046.773675781355,
      "d": 1021.0624052734347,
      "v": 126
    },
    {
      "midi": 82,
      "hit": false,
      "t": 47395.00689257818,
      "d": 337.91272949218546,
      "v": 94
    },
    {
      "midi": 87,
      "hit": false,
      "t": 47395.00689257818,
      "d": 337.91272949218546,
      "v": 108
    },
    {
      "midi": 73,
      "hit": false,
      "t": 47733.25254101568,
      "d": 334.58354003906425,
      "v": 96
    },
    {
      "midi": 85,
      "hit": false,
      "t": 47733.25254101568,
      "d": 334.58354003906425,
      "v": 110
    },
    {
      "midi": 72,
      "hit": false,
      "t": 48069.50067578131,
      "d": 517.3560410156279,
      "v": 98
    },
    {
      "midi": 84,
      "hit": false,
      "t": 48069.50067578131,
      "d": 517.3560410156279,
      "v": 112
    },
    {
      "midi": 32,
      "hit": false,
      "t": 48069.50067578135,
      "d": 686.1459462890634,
      "v": 109
    },
    {
      "midi": 39,
      "hit": false,
      "t": 48069.50067578135,
      "d": 686.1459462890634,
      "v": 125
    },
    {
      "midi": 70,
      "hit": false,
      "t": 48587.18963574225,
      "d": 158.46941796875035,
      "v": 93
    },
    {
      "midi": 82,
      "hit": false,
      "t": 48587.18963574225,
      "d": 158.46941796875035,
      "v": 107
    },
    {
      "midi": 72,
      "hit": false,
      "t": 48755.97954101569,
      "d": 334.58354003906425,
      "v": 96
    },
    {
      "midi": 84,
      "hit": false,
      "t": 48755.97954101569,
      "d": 334.58354003906425,
      "v": 110
    },
    {
      "midi": 32,
      "hit": false,
      "t": 48755.97954101573,
      "d": 334.58354003906425,
      "v": 112
    },
    {
      "midi": 39,
      "hit": false,
      "t": 48755.97954101573,
      "d": 334.58354003906425,
      "v": 124
    },
    {
      "midi": 68,
      "hit": false,
      "t": 49092.227675781316,
      "d": 1021.0624052734347,
      "v": 93
    },
    {
      "midi": 80,
      "hit": false,
      "t": 49092.227675781316,
      "d": 1021.0624052734347,
      "v": 107
    },
    {
      "midi": 32,
      "hit": false,
      "t": 49092.22767578136,
      "d": 347.90029785156366,
      "v": 122
    },
    {
      "midi": 39,
      "hit": false,
      "t": 49092.22767578136,
      "d": 1021.062405273442,
      "v": 119
    },
    {
      "midi": 34,
      "hit": false,
      "t": 49440.46089257824,
      "d": 337.91272949218546,
      "v": 119
    },
    {
      "midi": 36,
      "hit": false,
      "t": 49778.70654101574,
      "d": 334.58354003906425,
      "v": 121
    },
    {
      "midi": 73,
      "hit": false,
      "t": 50114.954675781315,
      "d": 517.3560410156279,
      "v": 98
    },
    {
      "midi": 77,
      "hit": false,
      "t": 50114.954675781315,
      "d": 517.3560410156279,
      "v": 112
    },
    {
      "midi": 37,
      "hit": false,
      "t": 50114.954675781366,
      "d": 1021.0624052734347,
      "v": 111
    },
    {
      "midi": 49,
      "hit": false,
      "t": 50114.954675781366,
      "d": 1021.0624052734347,
      "v": 127
    },
    {
      "midi": 78,
      "hit": false,
      "t": 50632.64363574226,
      "d": 158.46941796875035,
      "v": 101
    },
    {
      "midi": 73,
      "hit": false,
      "t": 50801.43354101569,
      "d": 334.58354003906425,
      "v": 96
    },
    {
      "midi": 77,
      "hit": false,
      "t": 50801.43354101569,
      "d": 334.58354003906425,
      "v": 106
    },
    {
      "midi": 73,
      "hit": false,
      "t": 51137.68167578132,
      "d": 517.3560410156279,
      "v": 98
    },
    {
      "midi": 77,
      "hit": false,
      "t": 51137.68167578132,
      "d": 517.3560410156279,
      "v": 108
    },
    {
      "midi": 32,
      "hit": false,
      "t": 51137.681675781365,
      "d": 1021.0624052734347,
      "v": 109
    },
    {
      "midi": 44,
      "hit": false,
      "t": 51137.681675781365,
      "d": 1021.0624052734347,
      "v": 126
    },
    {
      "midi": 78,
      "hit": false,
      "t": 51655.37063574226,
      "d": 158.46941796875035,
      "v": 101
    },
    {
      "midi": 73,
      "hit": false,
      "t": 51824.1605410157,
      "d": 334.58354003906425,
      "v": 96
    },
    {
      "midi": 77,
      "hit": false,
      "t": 51824.1605410157,
      "d": 334.58354003906425,
      "v": 106
    },
    {
      "midi": 73,
      "hit": false,
      "t": 52160.40867578133,
      "d": 517.3560410156279,
      "v": 98
    },
    {
      "midi": 77,
      "hit": false,
      "t": 52160.40867578133,
      "d": 517.3560410156279,
      "v": 108
    },
    {
      "midi": 37,
      "hit": false,
      "t": 52160.408675781364,
      "d": 686.1459462890634,
      "v": 111
    },
    {
      "midi": 49,
      "hit": false,
      "t": 52160.408675781364,
      "d": 686.1459462890634,
      "v": 127
    },
    {
      "midi": 78,
      "hit": false,
      "t": 52678.09763574227,
      "d": 158.46941796875035,
      "v": 101
    },
    {
      "midi": 73,
      "hit": false,
      "t": 52846.887541015705,
      "d": 156.4719042968718,
      "v": 96
    },
    {
      "midi": 77,
      "hit": false,
      "t": 52846.887541015705,
      "d": 156.4719042968718,
      "v": 110
    },
    {
      "midi": 37,
      "hit": false,
      "t": 52846.88754101574,
      "d": 334.58354003906425,
      "v": 114
    },
    {
      "midi": 49,
      "hit": false,
      "t": 52846.88754101574,
      "d": 334.58354003906425,
      "v": 127
    },
    {
      "midi": 75,
      "hit": false,
      "t": 53013.67993261726,
      "d": 157.80358007812174,
      "v": 101
    },
    {
      "midi": 73,
      "hit": false,
      "t": 53183.13567578132,
      "d": 347.90029785156366,
      "v": 106
    },
    {
      "midi": 33,
      "hit": false,
      "t": 53183.13567578137,
      "d": 1021.0624052734347,
      "v": 109
    },
    {
      "midi": 45,
      "hit": false,
      "t": 53183.13567578137,
      "d": 1021.0624052734347,
      "v": 126
    },
    {
      "midi": 73,
      "hit": false,
      "t": 53531.3688925782,
      "d": 337.91272949218546,
      "v": 94
    },
    {
      "midi": 77,
      "hit": false,
      "t": 53531.3688925782,
      "d": 337.91272949218546,
      "v": 108
    },
    {
      "midi": 73,
      "hit": false,
      "t": 53869.6145410157,
      "d": 334.58354003906425,
      "v": 96
    },
    {
      "midi": 80,
      "hit": false,
      "t": 53869.6145410157,
      "d": 334.58354003906425,
      "v": 110
    },
    {
      "midi": 73,
      "hit": false,
      "t": 54205.862675781325,
      "d": 517.3560410156279,
      "v": 98
    },
    {
      "midi": 82,
      "hit": false,
      "t": 54205.862675781325,
      "d": 517.3560410156279,
      "v": 112
    },
    {
      "midi": 30,
      "hit": false,
      "t": 54205.86267578137,
      "d": 1021.062405273442,
      "v": 108
    },
    {
      "midi": 42,
      "hit": false,
      "t": 54205.86267578137,
      "d": 1021.062405273442,
      "v": 126
    },
    {
      "midi": 72,
      "hit": false,
      "t": 54723.55163574227,
      "d": 158.46941796875035,
      "v": 93
    },
    {
      "midi": 81,
      "hit": false,
      "t": 54723.55163574227,
      "d": 158.46941796875035,
      "v": 107
    },
    {
      "midi": 73,
      "hit": false,
      "t": 54892.3415410157,
      "d": 156.4719042968718,
      "v": 96
    },
    {
      "midi": 82,
      "hit": false,
      "t": 54892.3415410157,
      "d": 156.4719042968718,
      "v": 110
    },
    {
      "midi": 37,
      "hit": false,
      "t": 54892.34154101575,
      "d": 334.58354003906425,
      "v": 122
    },
    {
      "midi": 75,
      "hit": false,
      "t": 55059.13393261726,
      "d": 157.80358007812174,
      "v": 93
    },
    {
      "midi": 84,
      "hit": false,
      "t": 55059.13393261726,
      "d": 157.80358007812174,
      "v": 107
    },
    {
      "midi": 77,
      "hit": false,
      "t": 55228.58967578132,
      "d": 347.90029785156366,
      "v": 98
    },
    {
      "midi": 85,
      "hit": false,
      "t": 55228.58967578132,
      "d": 347.90029785156366,
      "v": 112
    },
    {
      "midi": 25,
      "hit": false,
      "t": 55228.589675781375,
      "d": 1021.0624052734347,
      "v": 107
    },
    {
      "midi": 37,
      "hit": false,
      "t": 55228.589675781375,
      "d": 1021.0624052734347,
      "v": 125
    },
    {
      "midi": 75,
      "hit": false,
      "t": 55576.822892578195,
      "d": 337.91272949218546,
      "v": 94
    },
    {
      "midi": 87,
      "hit": false,
      "t": 55576.822892578195,
      "d": 337.91272949218546,
      "v": 108
    },
    {
      "midi": 77,
      "hit": false,
      "t": 55915.068541015695,
      "d": 334.58354003906425,
      "v": 96
    },
    {
      "midi": 89,
      "hit": false,
      "t": 55915.068541015695,
      "d": 334.58354003906425,
      "v": 110
    },
    {
      "midi": 84,
      "hit": false,
      "t": 56251.31667578132,
      "d": 517.3560410156279,
      "v": 98
    },
    {
      "midi": 87,
      "hit": false,
      "t": 56251.31667578132,
      "d": 517.3560410156279,
      "v": 112
    },
    {
      "midi": 32,
      "hit": false,
      "t": 56251.316675781374,
      "d": 686.1459462890634,
      "v": 109
    },
    {
      "midi": 44,
      "hit": false,
      "t": 56251.316675781374,
      "d": 686.1459462890634,
      "v": 126
    },
    {
      "midi": 89,
      "hit": false,
      "t": 56769.005635742265,
      "d": 158.46941796875035,
      "v": 101
    },
    {
      "midi": 84,
      "hit": false,
      "t": 56937.7955410157,
      "d": 156.4719042968718,
      "v": 96
    },
    {
      "midi": 87,
      "hit": false,
      "t": 56937.7955410157,
      "d": 156.4719042968718,
      "v": 110
    },
    {
      "midi": 32,
      "hit": false,
      "t": 56937.79554101575,
      "d": 334.58354003906425,
      "v": 112
    },
    {
      "midi": 44,
      "hit": false,
      "t": 56937.79554101575,
      "d": 334.58354003906425,
      "v": 125
    },
    {
      "midi": 82,
      "hit": false,
      "t": 57104.58793261726,
      "d": 157.80358007812174,
      "v": 101
    },
    {
      "midi": 80,
      "hit": false,
      "t": 57274.043675781315,
      "d": 1021.0624052734347,
      "v": 93
    },
    {
      "midi": 84,
      "hit": false,
      "t": 57274.043675781315,
      "d": 1021.0624052734347,
      "v": 107
    },
    {
      "midi": 32,
      "hit": false,
      "t": 57274.04367578138,
      "d": 347.90029785156366,
      "v": 102
    },
    {
      "midi": 44,
      "hit": false,
      "t": 57274.04367578138,
      "d": 347.90029785156366,
      "v": 119
    },
    {
      "midi": 30,
      "hit": false,
      "t": 57622.27689257826,
      "d": 337.91272949218546,
      "v": 98
    },
    {
      "midi": 42,
      "hit": false,
      "t": 57622.27689257826,
      "d": 337.91272949218546,
      "v": 115
    },
    {
      "midi": 29,
      "hit": false,
      "t": 57960.52254101576,
      "d": 334.58354003906425,
      "v": 94
    },
    {
      "midi": 41,
      "hit": false,
      "t": 57960.52254101576,
      "d": 334.58354003906425,
      "v": 111
    },
    {
      "midi": 85,
      "hit": false,
      "t": 58296.770675781314,
      "d": 1540.0830410156268,
      "v": 80
    },
    {
      "midi": 97,
      "hit": false,
      "t": 58296.770675781314,
      "d": 1540.0830410156268,
      "v": 94
    },
    {
      "midi": 42,
      "hit": false,
      "t": 58296.77067578139,
      "d": 1021.062405273442,
      "v": 107
    },
    {
      "midi": 49,
      "hit": false,
      "t": 58645.003892578265,
      "d": 337.91272949218546,
      "v": 109
    },
    {
      "midi": 49,
      "hit": false,
      "t": 58983.249541015764,
      "d": 334.58354003906425,
      "v": 111
    },
    {
      "midi": 42,
      "hit": false,
      "t": 59319.49767578139,
      "d": 1021.062405273442,
      "v": 107
    },
    {
      "midi": 49,
      "hit": false,
      "t": 59667.73089257827,
      "d": 337.91272949218546,
      "v": 109
    },
    {
      "midi": 87,
      "hit": false,
      "t": 59837.186635742255,
      "d": 158.46941796875035,
      "v": 80
    },
    {
      "midi": 99,
      "hit": false,
      "t": 59837.186635742255,
      "d": 158.46941796875035,
      "v": 94
    },
    {
      "midi": 85,
      "hit": false,
      "t": 60005.97654101569,
      "d": 156.4719042968718,
      "v": 83
    },
    {
      "midi": 97,
      "hit": false,
      "t": 60005.97654101569,
      "d": 156.4719042968718,
      "v": 97
    },
    {
      "midi": 49,
      "hit": false,
      "t": 60005.97654101577,
      "d": 334.58354003906425,
      "v": 111
    },
    {
      "midi": 87,
      "hit": false,
      "t": 60172.76893261725,
      "d": 157.80358007812174,
      "v": 80
    },
    {
      "midi": 99,
      "hit": false,
      "t": 60172.76893261725,
      "d": 157.80358007812174,
      "v": 94
    },
    {
      "midi": 85,
      "hit": false,
      "t": 60342.224675781305,
      "d": 1540.0830410156268,
      "v": 80
    },
    {
      "midi": 97,
      "hit": false,
      "t": 60342.224675781305,
      "d": 1540.0830410156268,
      "v": 94
    },
    {
      "midi": 37,
      "hit": false,
      "t": 60342.2246757814,
      "d": 1021.062405273442,
      "v": 106
    },
    {
      "midi": 49,
      "hit": false,
      "t": 60690.45789257828,
      "d": 337.91272949218546,
      "v": 109
    },
    {
      "midi": 49,
      "hit": false,
      "t": 61028.70354101578,
      "d": 334.58354003906425,
      "v": 111
    },
    {
      "midi": 37,
      "hit": false,
      "t": 61364.951675781405,
      "d": 1021.062405273442,
      "v": 106
    },
    {
      "midi": 49,
      "hit": false,
      "t": 61713.18489257828,
      "d": 337.91272949218546,
      "v": 109
    },
    {
      "midi": 87,
      "hit": false,
      "t": 61882.640635742246,
      "d": 158.46941796875035,
      "v": 80
    },
    {
      "midi": 99,
      "hit": false,
      "t": 61882.640635742246,
      "d": 158.46941796875035,
      "v": 94
    },
    {
      "midi": 85,
      "hit": false,
      "t": 62051.43054101568,
      "d": 156.4719042968718,
      "v": 83
    },
    {
      "midi": 97,
      "hit": false,
      "t": 62051.43054101568,
      "d": 156.4719042968718,
      "v": 97
    },
    {
      "midi": 49,
      "hit": false,
      "t": 62051.43054101578,
      "d": 334.58354003906425,
      "v": 111
    },
    {
      "midi": 87,
      "hit": false,
      "t": 62218.22293261724,
      "d": 157.80358007812174,
      "v": 80
    },
    {
      "midi": 99,
      "hit": false,
      "t": 62218.22293261724,
      "d": 157.80358007812174,
      "v": 94
    },
    {
      "midi": 85,
      "hit": false,
      "t": 62387.678675781295,
      "d": 347.90029785156366,
      "v": 85
    },
    {
      "midi": 97,
      "hit": false,
      "t": 62387.678675781295,
      "d": 347.90029785156366,
      "v": 99
    },
    {
      "midi": 30,
      "hit": false,
      "t": 62387.67867578141,
      "d": 1021.0624052734347,
      "v": 95
    },
    {
      "midi": 42,
      "hit": false,
      "t": 62387.67867578141,
      "d": 1021.0624052734347,
      "v": 109
    },
    {
      "midi": 84,
      "hit": false,
      "t": 62735.91189257817,
      "d": 337.91272949218546,
      "v": 81
    },
    {
      "midi": 96,
      "hit": false,
      "t": 62735.91189257817,
      "d": 337.91272949218546,
      "v": 95
    },
    {
      "midi": 85,
      "hit": false,
      "t": 63074.15754101567,
      "d": 334.58354003906425,
      "v": 83
    },
    {
      "midi": 97,
      "hit": false,
      "t": 63074.15754101567,
      "d": 334.58354003906425,
      "v": 97
    },
    {
      "midi": 81,
      "hit": false,
      "t": 63410.4056757813,
      "d": 347.90029785156366,
      "v": 85
    },
    {
      "midi": 87,
      "hit": false,
      "t": 63410.4056757813,
      "d": 347.90029785156366,
      "v": 99
    },
    {
      "midi": 30,
      "hit": false,
      "t": 63410.40567578141,
      "d": 347.90029785156366,
      "v": 100
    },
    {
      "midi": 42,
      "hit": false,
      "t": 63410.40567578141,
      "d": 347.90029785156366,
      "v": 118
    },
    {
      "midi": 81,
      "hit": false,
      "t": 63758.63889257818,
      "d": 337.91272949218546,
      "v": 81
    },
    {
      "midi": 89,
      "hit": false,
      "t": 63758.63889257818,
      "d": 337.91272949218546,
      "v": 95
    },
    {
      "midi": 32,
      "hit": false,
      "t": 63758.63889257829,
      "d": 337.91272949218546,
      "v": 97
    },
    {
      "midi": 44,
      "hit": false,
      "t": 63758.63889257829,
      "d": 337.91272949218546,
      "v": 114
    },
    {
      "midi": 81,
      "hit": false,
      "t": 64096.88454101568,
      "d": 334.58354003906425,
      "v": 83
    },
    {
      "midi": 90,
      "hit": false,
      "t": 64096.88454101568,
      "d": 334.58354003906425,
      "v": 97
    },
    {
      "midi": 33,
      "hit": false,
      "t": 64096.88454101579,
      "d": 334.58354003906425,
      "v": 99
    },
    {
      "midi": 45,
      "hit": false,
      "t": 64096.88454101579,
      "d": 334.58354003906425,
      "v": 116
    },
    {
      "midi": 77,
      "hit": false,
      "t": 64433.13267578131,
      "d": 1021.0624052734347,
      "v": 80
    },
    {
      "midi": 80,
      "hit": false,
      "t": 64433.13267578131,
      "d": 1021.0624052734347,
      "v": 80
    },
    {
      "midi": 89,
      "hit": false,
      "t": 64433.13267578131,
      "d": 1021.0624052734347,
      "v": 94
    },
    {
      "midi": 37,
      "hit": false,
      "t": 64433.13267578142,
      "d": 1021.0624052734347,
      "v": 98
    },
    {
      "midi": 44,
      "hit": false,
      "t": 64433.13267578142,
      "d": 1021.0624052734347,
      "v": 113
    },
    {
      "midi": 73,
      "hit": false,
      "t": 65457.857189453185,
      "d": 167.12531054687133,
      "v": 88
    },
    {
      "midi": 37,
      "hit": false,
      "t": 65457.857189453294,
      "d": 1019.0648916015634,
      "v": 79
    },
    {
      "midi": 49,
      "hit": false,
      "t": 65457.857189453294,
      "d": 1019.0648916015634,
      "v": 94
    },
    {
      "midi": 72,
      "hit": false,
      "t": 65635.63590625006,
      "d": 158.13649902344332,
      "v": 90
    },
    {
      "midi": 73,
      "hit": false,
      "t": 65804.09289257819,
      "d": 159.13525585937896,
      "v": 92
    },
    {
      "midi": 68,
      "hit": false,
      "t": 65973.54863574226,
      "d": 158.46941796875035,
      "v": 94
    },
    {
      "midi": 73,
      "hit": false,
      "t": 66142.3385410157,
      "d": 156.47190429687907,
      "v": 96
    },
    {
      "midi": 75,
      "hit": false,
      "t": 66309.13093261728,
      "d": 157.80358007812174,
      "v": 98
    },
    {
      "midi": 73,
      "hit": false,
      "t": 66478.58667578133,
      "d": 517.3560410156206,
      "v": 98
    },
    {
      "midi": 77,
      "hit": false,
      "t": 66478.58667578133,
      "d": 517.3560410156206,
      "v": 112
    },
    {
      "midi": 37,
      "hit": false,
      "t": 66478.58667578142,
      "d": 686.1459462890634,
      "v": 111
    },
    {
      "midi": 44,
      "hit": false,
      "t": 66478.58667578142,
      "d": 686.1459462890634,
      "v": 126
    },
    {
      "midi": 78,
      "hit": false,
      "t": 66996.27563574226,
      "d": 158.46941796875035,
      "v": 101
    },
    {
      "midi": 73,
      "hit": false,
      "t": 67165.0655410157,
      "d": 334.58354003906425,
      "v": 96
    },
    {
      "midi": 77,
      "hit": false,
      "t": 67165.0655410157,
      "d": 334.58354003906425,
      "v": 106
    },
    {
      "midi": 37,
      "hit": false,
      "t": 67165.06554101579,
      "d": 334.58354003906425,
      "v": 125
    },
    {
      "midi": 44,
      "hit": false,
      "t": 67165.06554101579,
      "d": 334.58354003906425,
      "v": 121
    },
    {
      "midi": 73,
      "hit": false,
      "t": 67501.31367578133,
      "d": 517.3560410156206,
      "v": 98
    },
    {
      "midi": 77,
      "hit": false,
      "t": 67501.31367578133,
      "d": 517.3560410156206,
      "v": 108
    },
    {
      "midi": 35,
      "hit": false,
      "t": 67501.31367578142,
      "d": 686.1459462890634,
      "v": 121
    },
    {
      "midi": 44,
      "hit": false,
      "t": 67501.31367578142,
      "d": 686.1459462890634,
      "v": 118
    },
    {
      "midi": 78,
      "hit": false,
      "t": 68019.00263574226,
      "d": 158.46941796875035,
      "v": 101
    },
    {
      "midi": 73,
      "hit": false,
      "t": 68187.7925410157,
      "d": 334.58354003906425,
      "v": 96
    },
    {
      "midi": 77,
      "hit": false,
      "t": 68187.7925410157,
      "d": 334.58354003906425,
      "v": 106
    },
    {
      "midi": 35,
      "hit": false,
      "t": 68187.79254101579,
      "d": 334.58354003906425,
      "v": 113
    },
    {
      "midi": 44,
      "hit": false,
      "t": 68187.79254101579,
      "d": 334.58354003906425,
      "v": 127
    },
    {
      "midi": 73,
      "hit": false,
      "t": 68524.04067578133,
      "d": 517.3560410156206,
      "v": 98
    },
    {
      "midi": 77,
      "hit": false,
      "t": 68524.04067578133,
      "d": 517.3560410156206,
      "v": 108
    },
    {
      "midi": 34,
      "hit": false,
      "t": 68524.04067578142,
      "d": 686.1459462890634,
      "v": 110
    },
    {
      "midi": 41,
      "hit": false,
      "t": 68524.04067578142,
      "d": 686.1459462890634,
      "v": 126
    },
    {
      "midi": 78,
      "hit": false,
      "t": 69041.72963574226,
      "d": 158.46941796875035,
      "v": 101
    },
    {
      "midi": 73,
      "hit": false,
      "t": 69210.5195410157,
      "d": 334.58354003906425,
      "v": 96
    },
    {
      "midi": 77,
      "hit": false,
      "t": 69210.5195410157,
      "d": 334.58354003906425,
      "v": 110
    },
    {
      "midi": 34,
      "hit": false,
      "t": 69210.51954101579,
      "d": 334.58354003906425,
      "v": 113
    },
    {
      "midi": 41,
      "hit": false,
      "t": 69210.51954101579,
      "d": 334.58354003906425,
      "v": 127
    },
    {
      "midi": 80,
      "hit": false,
      "t": 69546.76767578133,
      "d": 169.12282421874988,
      "v": 106
    },
    {
      "midi": 33,
      "hit": false,
      "t": 69546.76767578142,
      "d": 1021.0624052734347,
      "v": 109
    },
    {
      "midi": 45,
      "hit": false,
      "t": 69546.76767578142,
      "d": 1021.0624052734347,
      "v": 126
    },
    {
      "midi": 73,
      "hit": false,
      "t": 69726.54390625008,
      "d": 158.13649902344332,
      "v": 93
    },
    {
      "midi": 78,
      "hit": false,
      "t": 69726.54390625008,
      "d": 158.13649902344332,
      "v": 107
    },
    {
      "midi": 77,
      "hit": false,
      "t": 69895.00089257822,
      "d": 159.13525585937896,
      "v": 102
    },
    {
      "midi": 68,
      "hit": false,
      "t": 70064.45663574229,
      "d": 158.46941796875035,
      "v": 93
    },
    {
      "midi": 80,
      "hit": false,
      "t": 70064.45663574229,
      "d": 158.46941796875035,
      "v": 107
    },
    {
      "midi": 73,
      "hit": false,
      "t": 70233.24654101573,
      "d": 156.47190429687907,
      "v": 96
    },
    {
      "midi": 85,
      "hit": false,
      "t": 70233.24654101573,
      "d": 156.47190429687907,
      "v": 110
    },
    {
      "midi": 75,
      "hit": false,
      "t": 70400.0389326173,
      "d": 157.80358007812174,
      "v": 93
    },
    {
      "midi": 87,
      "hit": false,
      "t": 70400.0389326173,
      "d": 157.80358007812174,
      "v": 107
    },
    {
      "midi": 77,
      "hit": false,
      "t": 70569.49467578136,
      "d": 517.3560410156206,
      "v": 98
    },
    {
      "midi": 89,
      "hit": false,
      "t": 70569.49467578136,
      "d": 517.3560410156206,
      "v": 112
    },
    {
      "midi": 37,
      "hit": false,
      "t": 70569.49467578142,
      "d": 686.1459462890634,
      "v": 111
    },
    {
      "midi": 44,
      "hit": false,
      "t": 70569.49467578142,
      "d": 686.1459462890634,
      "v": 126
    },
    {
      "midi": 78,
      "hit": false,
      "t": 71087.18363574229,
      "d": 158.46941796875035,
      "v": 93
    },
    {
      "midi": 90,
      "hit": false,
      "t": 71087.18363574229,
      "d": 158.46941796875035,
      "v": 107
    },
    {
      "midi": 77,
      "hit": false,
      "t": 71255.97354101573,
      "d": 334.58354003906425,
      "v": 96
    },
    {
      "midi": 89,
      "hit": false,
      "t": 71255.97354101573,
      "d": 334.58354003906425,
      "v": 110
    },
    {
      "midi": 37,
      "hit": false,
      "t": 71255.97354101579,
      "d": 334.58354003906425,
      "v": 125
    },
    {
      "midi": 44,
      "hit": false,
      "t": 71255.97354101579,
      "d": 334.58354003906425,
      "v": 121
    },
    {
      "midi": 77,
      "hit": false,
      "t": 71592.22167578136,
      "d": 517.3560410156206,
      "v": 98
    },
    {
      "midi": 89,
      "hit": false,
      "t": 71592.22167578136,
      "d": 517.3560410156206,
      "v": 112
    },
    {
      "midi": 35,
      "hit": false,
      "t": 71592.22167578142,
      "d": 686.1459462890634,
      "v": 121
    },
    {
      "midi": 44,
      "hit": false,
      "t": 71592.22167578142,
      "d": 686.1459462890634,
      "v": 118
    },
    {
      "midi": 78,
      "hit": false,
      "t": 72109.91063574229,
      "d": 158.46941796875035,
      "v": 93
    },
    {
      "midi": 90,
      "hit": false,
      "t": 72109.91063574229,
      "d": 158.46941796875035,
      "v": 107
    },
    {
      "midi": 77,
      "hit": false,
      "t": 72278.70054101573,
      "d": 334.58354003906425,
      "v": 96
    },
    {
      "midi": 89,
      "hit": false,
      "t": 72278.70054101573,
      "d": 334.58354003906425,
      "v": 110
    },
    {
      "midi": 35,
      "hit": false,
      "t": 72278.70054101579,
      "d": 334.58354003906425,
      "v": 113
    },
    {
      "midi": 44,
      "hit": false,
      "t": 72278.70054101579,
      "d": 334.58354003906425,
      "v": 127
    },
    {
      "midi": 78,
      "hit": false,
      "t": 72614.94867578136,
      "d": 517.3560410156206,
      "v": 98
    },
    {
      "midi": 90,
      "hit": false,
      "t": 72614.94867578136,
      "d": 517.3560410156206,
      "v": 112
    },
    {
      "midi": 34,
      "hit": false,
      "t": 72614.94867578142,
      "d": 686.1459462890634,
      "v": 110
    },
    {
      "midi": 41,
      "hit": false,
      "t": 72614.94867578142,
      "d": 686.1459462890634,
      "v": 126
    },
    {
      "midi": 66,
      "hit": false,
      "t": 73132.63763574229,
      "d": 158.46941796875035,
      "v": 93
    },
    {
      "midi": 70,
      "hit": false,
      "t": 73132.63763574229,
      "d": 158.46941796875035,
      "v": 107
    },
    {
      "midi": 68,
      "hit": false,
      "t": 73301.42754101573,
      "d": 156.47190429687907,
      "v": 96
    },
    {
      "midi": 72,
      "hit": false,
      "t": 73301.42754101573,
      "d": 156.47190429687907,
      "v": 110
    },
    {
      "midi": 34,
      "hit": false,
      "t": 73301.42754101579,
      "d": 334.58354003906425,
      "v": 113
    },
    {
      "midi": 41,
      "hit": false,
      "t": 73301.42754101579,
      "d": 334.58354003906425,
      "v": 127
    },
    {
      "midi": 70,
      "hit": false,
      "t": 73468.2199326173,
      "d": 157.80358007812174,
      "v": 93
    },
    {
      "midi": 73,
      "hit": false,
      "t": 73468.2199326173,
      "d": 157.80358007812174,
      "v": 107
    },
    {
      "midi": 66,
      "hit": false,
      "t": 73637.67567578136,
      "d": 347.90029785156366,
      "v": 93
    },
    {
      "midi": 75,
      "hit": false,
      "t": 73637.67567578136,
      "d": 347.90029785156366,
      "v": 107
    },
    {
      "midi": 30,
      "hit": false,
      "t": 73637.67567578141,
      "d": 967.795374023437,
      "v": 87
    },
    {
      "midi": 42,
      "hit": false,
      "t": 73637.67567578141,
      "d": 967.795374023437,
      "v": 104
    },
    {
      "midi": 68,
      "hit": false,
      "t": 73985.90889257823,
      "d": 337.91272949219274,
      "v": 89
    },
    {
      "midi": 77,
      "hit": false,
      "t": 73985.90889257823,
      "d": 337.91272949219274,
      "v": 103
    },
    {
      "midi": 69,
      "hit": false,
      "t": 74324.15454101573,
      "d": 334.58354003906425,
      "v": 85
    },
    {
      "midi": 78,
      "hit": false,
      "t": 74324.15454101573,
      "d": 334.58354003906425,
      "v": 99
    },
    {
      "midi": 68,
      "hit": false,
      "t": 74660.40267578136,
      "d": 517.3560410156206,
      "v": 85
    },
    {
      "midi": 80,
      "hit": false,
      "t": 74660.40267578136,
      "d": 517.3560410156206,
      "v": 99
    },
    {
      "midi": 37,
      "hit": false,
      "t": 74660.40267578141,
      "d": 1021.0624052734347,
      "v": 106
    },
    {
      "midi": 44,
      "hit": false,
      "t": 75008.63589257828,
      "d": 337.91272949219274,
      "v": 108
    },
    {
      "midi": 80,
      "hit": false,
      "t": 75178.09163574228,
      "d": 158.46941796875035,
      "v": 88
    },
    {
      "midi": 73,
      "hit": false,
      "t": 75346.88154101573,
      "d": 334.58354003906425,
      "v": 83
    },
    {
      "midi": 78,
      "hit": false,
      "t": 75346.88154101573,
      "d": 334.58354003906425,
      "v": 97
    },
    {
      "midi": 44,
      "hit": false,
      "t": 75346.88154101578,
      "d": 334.58354003906425,
      "v": 110
    },
    {
      "midi": 68,
      "hit": false,
      "t": 75683.12967578135,
      "d": 517.3560410156206,
      "v": 85
    },
    {
      "midi": 77,
      "hit": false,
      "t": 75683.12967578135,
      "d": 517.3560410156206,
      "v": 99
    },
    {
      "midi": 37,
      "hit": false,
      "t": 75683.12967578141,
      "d": 1021.0624052734347,
      "v": 106
    },
    {
      "midi": 44,
      "hit": false,
      "t": 76031.36289257828,
      "d": 337.91272949219274,
      "v": 108
    },
    {
      "midi": 73,
      "hit": false,
      "t": 76200.81863574228,
      "d": 158.46941796875035,
      "v": 88
    },
    {
      "midi": 73,
      "hit": false,
      "t": 76369.60854101572,
      "d": 156.47190429687907,
      "v": 83
    },
    {
      "midi": 77,
      "hit": false,
      "t": 76369.60854101572,
      "d": 156.47190429687907,
      "v": 97
    },
    {
      "midi": 44,
      "hit": false,
      "t": 76369.60854101578,
      "d": 334.58354003906425,
      "v": 110
    },
    {
      "midi": 78,
      "hit": false,
      "t": 76536.4009326173,
      "d": 157.80358007812174,
      "v": 88
    },
    {
      "midi": 68,
      "hit": false,
      "t": 76705.85667578135,
      "d": 517.3560410156206,
      "v": 85
    },
    {
      "midi": 80,
      "hit": false,
      "t": 76705.85667578135,
      "d": 517.3560410156206,
      "v": 99
    },
    {
      "midi": 35,
      "hit": false,
      "t": 76705.85667578141,
      "d": 1021.0624052734347,
      "v": 105
    },
    {
      "midi": 42,
      "hit": false,
      "t": 77054.08989257828,
      "d": 337.91272949219274,
      "v": 108
    },
    {
      "midi": 80,
      "hit": false,
      "t": 77223.54563574228,
      "d": 158.46941796875035,
      "v": 88
    },
    {
      "midi": 73,
      "hit": false,
      "t": 77392.33554101572,
      "d": 334.58354003906425,
      "v": 83
    },
    {
      "midi": 82,
      "hit": false,
      "t": 77392.33554101572,
      "d": 334.58354003906425,
      "v": 97
    },
    {
      "midi": 42,
      "hit": false,
      "t": 77392.33554101578,
      "d": 334.58354003906425,
      "v": 110
    },
    {
      "midi": 68,
      "hit": false,
      "t": 77728.58367578135,
      "d": 517.3560410156206,
      "v": 85
    },
    {
      "midi": 80,
      "hit": false,
      "t": 77728.58367578135,
      "d": 517.3560410156206,
      "v": 99
    },
    {
      "midi": 35,
      "hit": false,
      "t": 77728.58367578141,
      "d": 1021.0624052734347,
      "v": 105
    },
    {
      "midi": 42,
      "hit": false,
      "t": 78076.81689257828,
      "d": 337.91272949219274,
      "v": 108
    },
    {
      "midi": 78,
      "hit": false,
      "t": 78246.27263574228,
      "d": 158.46941796875035,
      "v": 88
    },
    {
      "midi": 73,
      "hit": false,
      "t": 78415.06254101572,
      "d": 156.47190429687907,
      "v": 83
    },
    {
      "midi": 77,
      "hit": false,
      "t": 78415.06254101572,
      "d": 156.47190429687907,
      "v": 97
    },
    {
      "midi": 42,
      "hit": false,
      "t": 78415.06254101578,
      "d": 334.58354003906425,
      "v": 110
    },
    {
      "midi": 80,
      "hit": false,
      "t": 78581.8549326173,
      "d": 157.80358007812174,
      "v": 88
    },
    {
      "midi": 66,
      "hit": false,
      "t": 78751.31067578135,
      "d": 517.3560410156206,
      "v": 85
    },
    {
      "midi": 78,
      "hit": false,
      "t": 78751.31067578135,
      "d": 517.3560410156206,
      "v": 99
    },
    {
      "midi": 34,
      "hit": false,
      "t": 78751.31067578141,
      "d": 1021.0624052734347,
      "v": 105
    },
    {
      "midi": 46,
      "hit": false,
      "t": 79099.54389257828,
      "d": 337.91272949219274,
      "v": 108
    },
    {
      "midi": 77,
      "hit": false,
      "t": 79268.99963574228,
      "d": 158.46941796875035,
      "v": 88
    },
    {
      "midi": 70,
      "hit": false,
      "t": 79437.78954101572,
      "d": 156.47190429687907,
      "v": 83
    },
    {
      "midi": 75,
      "hit": false,
      "t": 79437.78954101572,
      "d": 156.47190429687907,
      "v": 97
    },
    {
      "midi": 46,
      "hit": false,
      "t": 79437.78954101578,
      "d": 334.58354003906425,
      "v": 110
    },
    {
      "midi": 77,
      "hit": false,
      "t": 79604.5819326173,
      "d": 157.80358007812174,
      "v": 88
    },
    {
      "midi": 66,
      "hit": false,
      "t": 79774.03767578135,
      "d": 517.3560410156206,
      "v": 85
    },
    {
      "midi": 78,
      "hit": false,
      "t": 79774.03767578135,
      "d": 517.3560410156206,
      "v": 99
    },
    {
      "midi": 34,
      "hit": false,
      "t": 79774.03767578141,
      "d": 347.90029785156366,
      "v": 110
    },
    {
      "midi": 36,
      "hit": false,
      "t": 80122.27089257828,
      "d": 337.91272949219274,
      "v": 106
    },
    {
      "midi": 82,
      "hit": false,
      "t": 80291.72663574228,
      "d": 158.46941796875035,
      "v": 88
    },
    {
      "midi": 84,
      "hit": false,
      "t": 80460.51654101572,
      "d": 156.47190429687907,
      "v": 91
    },
    {
      "midi": 68,
      "hit": false,
      "t": 80460.51654101572,
      "d": 334.58354003906425,
      "v": 83
    },
    {
      "midi": 73,
      "hit": false,
      "t": 80460.51654101572,
      "d": 334.58354003906425,
      "v": 97
    },
    {
      "midi": 37,
      "hit": false,
      "t": 80460.51654101578,
      "d": 334.58354003906425,
      "v": 109
    },
    {
      "midi": 82,
      "hit": false,
      "t": 80627.30893261729,
      "d": 157.80358007812174,
      "v": 88
    },
    {
      "midi": 81,
      "hit": false,
      "t": 80796.76467578135,
      "d": 347.90029785156366,
      "v": 85
    },
    {
      "midi": 85,
      "hit": false,
      "t": 80796.76467578135,
      "d": 347.90029785156366,
      "v": 99
    },
    {
      "midi": 33,
      "hit": false,
      "t": 80796.76467578141,
      "d": 686.1459462890634,
      "v": 96
    },
    {
      "midi": 45,
      "hit": false,
      "t": 80796.76467578141,
      "d": 686.1459462890634,
      "v": 113
    },
    {
      "midi": 78,
      "hit": false,
      "t": 81144.99789257822,
      "d": 337.91272949219274,
      "v": 81
    },
    {
      "midi": 84,
      "hit": false,
      "t": 81144.99789257822,
      "d": 337.91272949219274,
      "v": 95
    },
    {
      "midi": 78,
      "hit": false,
      "t": 81483.24354101572,
      "d": 334.58354003906425,
      "v": 83
    },
    {
      "midi": 82,
      "hit": false,
      "t": 81483.24354101572,
      "d": 334.58354003906425,
      "v": 97
    },
    {
      "midi": 32,
      "hit": false,
      "t": 81483.24354101578,
      "d": 334.58354003906425,
      "v": 99
    },
    {
      "midi": 44,
      "hit": false,
      "t": 81483.24354101578,
      "d": 334.58354003906425,
      "v": 116
    },
    {
      "midi": 73,
      "hit": false,
      "t": 81819.49167578135,
      "d": 347.90029785156366,
      "v": 80
    },
    {
      "midi": 85,
      "hit": false,
      "t": 81819.49167578135,
      "d": 347.90029785156366,
      "v": 94
    },
    {
      "midi": 30,
      "hit": false,
      "t": 81819.4916757814,
      "d": 686.1459462890634,
      "v": 75
    },
    {
      "midi": 42,
      "hit": false,
      "t": 81819.4916757814,
      "d": 686.1459462890634,
      "v": 92
    },
    {
      "midi": 75,
      "hit": false,
      "t": 82167.72489257822,
      "d": 337.91272949219274,
      "v": 76
    },
    {
      "midi": 87,
      "hit": false,
      "t": 82167.72489257822,
      "d": 337.91272949219274,
      "v": 90
    },
    {
      "midi": 78,
      "hit": false,
      "t": 82505.97054101572,
      "d": 334.58354003906425,
      "v": 72
    },
    {
      "midi": 84,
      "hit": false,
      "t": 82505.97054101572,
      "d": 334.58354003906425,
      "v": 86
    },
    {
      "midi": 49,
      "hit": false,
      "t": 82505.97054101578,
      "d": 302.62332128906564,
      "v": 75
    },
    {
      "midi": 80,
      "hit": false,
      "t": 82842.21867578135,
      "d": 517.3560410156206,
      "v": 72
    },
    {
      "midi": 92,
      "hit": false,
      "t": 82842.21867578135,
      "d": 517.3560410156206,
      "v": 86
    },
    {
      "midi": 49,
      "hit": false,
      "t": 82842.2186757814,
      "d": 1021.0624052734347,
      "v": 95
    },
    {
      "midi": 56,
      "hit": false,
      "t": 83190.45189257828,
      "d": 337.91272949219274,
      "v": 96
    },
    {
      "midi": 92,
      "hit": false,
      "t": 83359.90763574227,
      "d": 158.46941796875035,
      "v": 75
    },
    {
      "midi": 85,
      "hit": false,
      "t": 83528.69754101572,
      "d": 334.58354003906425,
      "v": 70
    },
    {
      "midi": 90,
      "hit": false,
      "t": 83528.69754101572,
      "d": 334.58354003906425,
      "v": 84
    },
    {
      "midi": 56,
      "hit": false,
      "t": 83528.69754101578,
      "d": 334.58354003906425,
      "v": 98
    },
    {
      "midi": 80,
      "hit": false,
      "t": 83864.94567578135,
      "d": 517.3560410156206,
      "v": 72
    },
    {
      "midi": 89,
      "hit": false,
      "t": 83864.94567578135,
      "d": 517.3560410156206,
      "v": 86
    },
    {
      "midi": 49,
      "hit": false,
      "t": 83864.9456757814,
      "d": 1021.0624052734347,
      "v": 95
    },
    {
      "midi": 56,
      "hit": false,
      "t": 84213.17889257827,
      "d": 337.91272949219274,
      "v": 96
    },
    {
      "midi": 85,
      "hit": false,
      "t": 84382.63463574227,
      "d": 158.46941796875035,
      "v": 75
    },
    {
      "midi": 85,
      "hit": false,
      "t": 84551.42454101572,
      "d": 156.47190429687907,
      "v": 70
    },
    {
      "midi": 89,
      "hit": false,
      "t": 84551.42454101572,
      "d": 156.47190429687907,
      "v": 84
    },
    {
      "midi": 56,
      "hit": false,
      "t": 84551.42454101577,
      "d": 334.58354003906425,
      "v": 98
    },
    {
      "midi": 90,
      "hit": false,
      "t": 84718.21693261729,
      "d": 157.80358007812174,
      "v": 75
    },
    {
      "midi": 80,
      "hit": false,
      "t": 84887.67267578134,
      "d": 517.3560410156206,
      "v": 72
    },
    {
      "midi": 92,
      "hit": false,
      "t": 84887.67267578134,
      "d": 517.3560410156206,
      "v": 86
    },
    {
      "midi": 47,
      "hit": false,
      "t": 84887.6726757814,
      "d": 1021.0624052734347,
      "v": 94
    },
    {
      "midi": 54,
      "hit": false,
      "t": 85235.90589257827,
      "d": 337.91272949219274,
      "v": 96
    },
    {
      "midi": 92,
      "hit": false,
      "t": 85405.36163574227,
      "d": 158.46941796875035,
      "v": 75
    },
    {
      "midi": 85,
      "hit": false,
      "t": 85574.15154101572,
      "d": 334.58354003906425,
      "v": 70
    },
    {
      "midi": 94,
      "hit": false,
      "t": 85574.15154101572,
      "d": 334.58354003906425,
      "v": 84
    },
    {
      "midi": 54,
      "hit": false,
      "t": 85574.15154101577,
      "d": 334.58354003906425,
      "v": 98
    },
    {
      "midi": 80,
      "hit": false,
      "t": 85910.39967578134,
      "d": 517.3560410156206,
      "v": 72
    },
    {
      "midi": 92,
      "hit": false,
      "t": 85910.39967578134,
      "d": 517.3560410156206,
      "v": 86
    },
    {
      "midi": 47,
      "hit": false,
      "t": 85910.3996757814,
      "d": 1021.0624052734347,
      "v": 94
    },
    {
      "midi": 54,
      "hit": false,
      "t": 86258.63289257827,
      "d": 337.91272949219274,
      "v": 96
    },
    {
      "midi": 90,
      "hit": false,
      "t": 86428.08863574227,
      "d": 158.46941796875035,
      "v": 75
    },
    {
      "midi": 85,
      "hit": false,
      "t": 86596.87854101571,
      "d": 156.47190429687907,
      "v": 70
    },
    {
      "midi": 89,
      "hit": false,
      "t": 86596.87854101571,
      "d": 156.47190429687907,
      "v": 84
    },
    {
      "midi": 54,
      "hit": false,
      "t": 86596.87854101577,
      "d": 334.58354003906425,
      "v": 98
    },
    {
      "midi": 92,
      "hit": false,
      "t": 86763.67093261729,
      "d": 157.80358007812174,
      "v": 75
    },
    {
      "midi": 78,
      "hit": false,
      "t": 86933.12667578134,
      "d": 517.3560410156206,
      "v": 72
    },
    {
      "midi": 90,
      "hit": false,
      "t": 86933.12667578134,
      "d": 517.3560410156206,
      "v": 86
    },
    {
      "midi": 46,
      "hit": false,
      "t": 86933.1266757814,
      "d": 1021.0624052734347,
      "v": 94
    },
    {
      "midi": 58,
      "hit": false,
      "t": 87281.35989257827,
      "d": 337.91272949219274,
      "v": 96
    },
    {
      "midi": 89,
      "hit": false,
      "t": 87450.81563574227,
      "d": 158.46941796875035,
      "v": 75
    },
    {
      "midi": 82,
      "hit": false,
      "t": 87619.60554101571,
      "d": 156.47190429687907,
      "v": 70
    },
    {
      "midi": 87,
      "hit": false,
      "t": 87619.60554101571,
      "d": 156.47190429687907,
      "v": 84
    },
    {
      "midi": 58,
      "hit": false,
      "t": 87619.60554101577,
      "d": 334.58354003906425,
      "v": 98
    },
    {
      "midi": 89,
      "hit": false,
      "t": 87786.39793261728,
      "d": 157.80358007812174,
      "v": 75
    },
    {
      "midi": 78,
      "hit": false,
      "t": 87955.85367578134,
      "d": 517.3560410156206,
      "v": 72
    },
    {
      "midi": 90,
      "hit": false,
      "t": 87955.85367578134,
      "d": 517.3560410156206,
      "v": 86
    },
    {
      "midi": 46,
      "hit": false,
      "t": 87955.8536757814,
      "d": 347.90029785156366,
      "v": 99
    },
    {
      "midi": 48,
      "hit": false,
      "t": 88304.08689257827,
      "d": 337.91272949219274,
      "v": 95
    },
    {
      "midi": 89,
      "hit": false,
      "t": 88473.54263574227,
      "d": 158.46941796875035,
      "v": 75
    },
    {
      "midi": 90,
      "hit": false,
      "t": 88642.33254101571,
      "d": 156.47190429687907,
      "v": 78
    },
    {
      "midi": 82,
      "hit": false,
      "t": 88642.33254101571,
      "d": 334.58354003906425,
      "v": 70
    },
    {
      "midi": 85,
      "hit": false,
      "t": 88642.33254101571,
      "d": 334.58354003906425,
      "v": 84
    },
    {
      "midi": 49,
      "hit": false,
      "t": 88642.33254101577,
      "d": 334.58354003906425,
      "v": 98
    },
    {
      "midi": 92,
      "hit": false,
      "t": 88809.12493261728,
      "d": 157.80358007812174,
      "v": 75
    },
    {
      "midi": 81,
      "hit": false,
      "t": 88978.58067578134,
      "d": 347.90029785156366,
      "v": 72
    },
    {
      "midi": 93,
      "hit": false,
      "t": 88978.58067578134,
      "d": 347.90029785156366,
      "v": 86
    },
    {
      "midi": 42,
      "hit": false,
      "t": 88978.5806757814,
      "d": 347.90029785156366,
      "v": 91
    },
    {
      "midi": 54,
      "hit": false,
      "t": 88978.5806757814,
      "d": 347.90029785156366,
      "v": 106
    },
    {
      "midi": 80,
      "hit": false,
      "t": 89326.81389257821,
      "d": 337.91272949219274,
      "v": 68
    },
    {
      "midi": 92,
      "hit": false,
      "t": 89326.81389257821,
      "d": 337.91272949219274,
      "v": 82
    },
    {
      "midi": 41,
      "hit": false,
      "t": 89326.81389257827,
      "d": 337.91272949219274,
      "v": 87
    },
    {
      "midi": 53,
      "hit": false,
      "t": 89326.81389257827,
      "d": 337.91272949219274,
      "v": 102
    },
    {
      "midi": 78,
      "hit": false,
      "t": 89665.05954101571,
      "d": 334.58354003906425,
      "v": 70
    },
    {
      "midi": 90,
      "hit": false,
      "t": 89665.05954101571,
      "d": 334.58354003906425,
      "v": 84
    },
    {
      "midi": 39,
      "hit": false,
      "t": 89665.05954101577,
      "d": 334.58354003906425,
      "v": 88
    },
    {
      "midi": 51,
      "hit": false,
      "t": 89665.05954101577,
      "d": 334.58354003906425,
      "v": 104
    },
    {
      "midi": 85,
      "hit": false,
      "t": 90001.30767578134,
      "d": 1021.0624052734347,
      "v": 67
    },
    {
      "midi": 89,
      "hit": false,
      "t": 90001.30767578134,
      "d": 1021.0624052734347,
      "v": 81
    },
    {
      "midi": 37,
      "hit": false,
      "t": 90001.3076757814,
      "d": 517.3560410156206,
      "v": 90
    },
    {
      "midi": 49,
      "hit": false,
      "t": 90001.3076757814,
      "d": 517.3560410156206,
      "v": 106
    },
    {
      "midi": 61,
      "hit": false,
      "t": 90518.99663574233,
      "d": 158.46941796875035,
      "v": 95
    },
    {
      "midi": 60,
      "hit": false,
      "t": 90687.78654101577,
      "d": 156.47190429687907,
      "v": 98
    },
    {
      "midi": 58,
      "hit": false,
      "t": 90854.57893261734,
      "d": 157.80358007812174,
      "v": 95
    },
    {
      "midi": 72,
      "hit": false,
      "t": 91024.03467578134,
      "d": 517.3560410156206,
      "v": 80
    },
    {
      "midi": 56,
      "hit": false,
      "t": 91024.0346757814,
      "d": 1708.8729462890624,
      "v": 95
    },
    {
      "midi": 68,
      "hit": false,
      "t": 91541.72363574227,
      "d": 158.46941796875035,
      "v": 75
    },
    {
      "midi": 70,
      "hit": false,
      "t": 91710.51354101571,
      "d": 156.47190429687907,
      "v": 78
    },
    {
      "midi": 72,
      "hit": false,
      "t": 91877.30593261728,
      "d": 157.80358007812174,
      "v": 75
    },
    {
      "midi": 75,
      "hit": false,
      "t": 92046.76167578134,
      "d": 517.3560410156206,
      "v": 80
    },
    {
      "midi": 72,
      "hit": false,
      "t": 92564.45063574227,
      "d": 158.46941796875035,
      "v": 75
    },
    {
      "midi": 73,
      "hit": false,
      "t": 92733.24054101571,
      "d": 156.47190429687907,
      "v": 78
    },
    {
      "midi": 56,
      "hit": false,
      "t": 92733.24054101577,
      "d": 334.58354003906425,
      "v": 98
    },
    {
      "midi": 75,
      "hit": false,
      "t": 92900.03293261728,
      "d": 157.80358007812174,
      "v": 75
    },
    {
      "midi": 85,
      "hit": false,
      "t": 93069.48867578134,
      "d": 517.3560410156206,
      "v": 80
    },
    {
      "midi": 77,
      "hit": false,
      "t": 93069.48867578134,
      "d": 1021.0624052734347,
      "v": 75
    },
    {
      "midi": 61,
      "hit": false,
      "t": 93069.4886757814,
      "d": 1021.0624052734347,
      "v": 95
    },
    {
      "midi": 80,
      "hit": false,
      "t": 93587.17763574226,
      "d": 158.46941796875035,
      "v": 75
    },
    {
      "midi": 82,
      "hit": false,
      "t": 93755.9675410157,
      "d": 156.47190429687907,
      "v": 78
    },
    {
      "midi": 84,
      "hit": false,
      "t": 93922.75993261728,
      "d": 157.80358007812174,
      "v": 75
    },
    {
      "midi": 85,
      "hit": false,
      "t": 94092.21567578134,
      "d": 361.2170556640631,
      "v": 68
    },
    {
      "midi": 61,
      "hit": false,
      "t": 94092.2156757814,
      "d": 361.2170556640631,
      "v": 88
    },
    {
      "midi": 92,
      "hit": false,
      "t": 94440.4488925782,
      "d": 351.22948730469216,
      "v": 64
    },
    {
      "midi": 56,
      "hit": false,
      "t": 94440.44889257826,
      "d": 351.22948730469216,
      "v": 84
    },
    {
      "midi": 89,
      "hit": false,
      "t": 94778.6945410157,
      "d": 347.90029785156366,
      "v": 66
    },
    {
      "midi": 61,
      "hit": false,
      "t": 94778.69454101576,
      "d": 347.90029785156366,
      "v": 86
    },
    {
      "midi": 77,
      "hit": false,
      "t": 95114.94267578133,
      "d": 517.3560410156206,
      "v": 80
    },
    {
      "midi": 62,
      "hit": false,
      "t": 95114.94267578139,
      "d": 1708.8729462890624,
      "v": 95
    },
    {
      "midi": 74,
      "hit": false,
      "t": 95632.63163574226,
      "d": 158.46941796875035,
      "v": 75
    },
    {
      "midi": 75,
      "hit": false,
      "t": 95801.4215410157,
      "d": 156.47190429687907,
      "v": 78
    },
    {
      "midi": 77,
      "hit": false,
      "t": 95968.21393261728,
      "d": 157.80358007812174,
      "v": 75
    },
    {
      "midi": 80,
      "hit": false,
      "t": 96137.66967578133,
      "d": 517.3560410156206,
      "v": 80
    },
    {
      "midi": 77,
      "hit": false,
      "t": 96655.35863574226,
      "d": 158.46941796875035,
      "v": 75
    },
    {
      "midi": 78,
      "hit": false,
      "t": 96824.1485410157,
      "d": 156.47190429687907,
      "v": 78
    },
    {
      "midi": 56,
      "hit": false,
      "t": 96824.14854101576,
      "d": 334.58354003906425,
      "v": 98
    },
    {
      "midi": 80,
      "hit": false,
      "t": 96990.94093261728,
      "d": 157.80358007812174,
      "v": 75
    },
    {
      "midi": 87,
      "hit": false,
      "t": 97160.39667578133,
      "d": 517.3560410156206,
      "v": 80
    },
    {
      "midi": 78,
      "hit": false,
      "t": 97160.39667578133,
      "d": 1021.0624052734347,
      "v": 75
    },
    {
      "midi": 63,
      "hit": false,
      "t": 97160.39667578139,
      "d": 2043.7894052734337,
      "v": 95
    },
    {
      "midi": 82,
      "hit": false,
      "t": 97678.08563574226,
      "d": 158.46941796875035,
      "v": 75
    },
    {
      "midi": 84,
      "hit": false,
      "t": 97846.8755410157,
      "d": 156.47190429687907,
      "v": 78
    },
    {
      "midi": 85,
      "hit": false,
      "t": 98013.66793261727,
      "d": 157.80358007812174,
      "v": 75
    },
    {
      "midi": 87,
      "hit": false,
      "t": 98183.12367578133,
      "d": 361.2170556640631,
      "v": 68
    },
    {
      "midi": 94,
      "hit": false,
      "t": 98531.3568925782,
      "d": 351.22948730469216,
      "v": 64
    },
    {
      "midi": 90,
      "hit": false,
      "t": 98869.6025410157,
      "d": 347.90029785156366,
      "v": 66
    },
    {
      "midi": 82,
      "hit": false,
      "t": 99205.85067578133,
      "d": 517.3560410156206,
      "v": 93
    },
    {
      "midi": 54,
      "hit": false,
      "t": 99205.85067578139,
      "d": 1021.0624052734347,
      "v": 108
    },
    {
      "midi": 63,
      "hit": false,
      "t": 99554.08389257826,
      "d": 337.91272949219274,
      "v": 109
    },
    {
      "midi": 82,
      "hit": false,
      "t": 99723.53963574226,
      "d": 158.46941796875035,
      "v": 88
    },
    {
      "midi": 84,
      "hit": false,
      "t": 99892.3295410157,
      "d": 156.47190429687907,
      "v": 91
    },
    {
      "midi": 66,
      "hit": false,
      "t": 99892.32954101576,
      "d": 334.58354003906425,
      "v": 111
    },
    {
      "midi": 82,
      "hit": false,
      "t": 100059.12193261727,
      "d": 157.80358007812174,
      "v": 88
    },
    {
      "midi": 80,
      "hit": false,
      "t": 100228.57767578133,
      "d": 517.3560410156206,
      "v": 93
    },
    {
      "midi": 53,
      "hit": false,
      "t": 100228.57767578139,
      "d": 1021.0624052734347,
      "v": 108
    },
    {
      "midi": 60,
      "hit": false,
      "t": 100576.81089257826,
      "d": 337.91272949219274,
      "v": 109
    },
    {
      "midi": 77,
      "hit": false,
      "t": 100746.26663574226,
      "d": 158.46941796875035,
      "v": 88
    },
    {
      "midi": 75,
      "hit": false,
      "t": 100915.0565410157,
      "d": 156.47190429687907,
      "v": 91
    },
    {
      "midi": 63,
      "hit": false,
      "t": 100915.05654101576,
      "d": 334.58354003906425,
      "v": 111
    },
    {
      "midi": 77,
      "hit": false,
      "t": 101081.84893261727,
      "d": 157.80358007812174,
      "v": 88
    },
    {
      "midi": 78,
      "hit": false,
      "t": 101251.30467578133,
      "d": 517.3560410156206,
      "v": 93
    },
    {
      "midi": 51,
      "hit": false,
      "t": 101251.30467578139,
      "d": 1021.0624052734347,
      "v": 108
    },
    {
      "midi": 58,
      "hit": false,
      "t": 101599.53789257826,
      "d": 337.91272949219274,
      "v": 109
    },
    {
      "midi": 77,
      "hit": false,
      "t": 101768.99363574226,
      "d": 158.46941796875035,
      "v": 88
    },
    {
      "midi": 75,
      "hit": false,
      "t": 101937.7835410157,
      "d": 156.47190429687907,
      "v": 91
    },
    {
      "midi": 63,
      "hit": false,
      "t": 101937.78354101576,
      "d": 334.58354003906425,
      "v": 111
    },
    {
      "midi": 78,
      "hit": false,
      "t": 102104.57593261727,
      "d": 157.80358007812174,
      "v": 88
    },
    {
      "midi": 77,
      "hit": false,
      "t": 102274.03167578133,
      "d": 347.90029785156366,
      "v": 93
    },
    {
      "midi": 49,
      "hit": false,
      "t": 102274.03167578139,
      "d": 1021.0624052734347,
      "v": 108
    },
    {
      "midi": 78,
      "hit": false,
      "t": 102622.2648925782,
      "d": 337.91272949219274,
      "v": 89
    },
    {
      "midi": 56,
      "hit": false,
      "t": 102622.26489257826,
      "d": 337.91272949219274,
      "v": 109
    },
    {
      "midi": 80,
      "hit": false,
      "t": 102960.5105410157,
      "d": 334.58354003906425,
      "v": 91
    },
    {
      "midi": 61,
      "hit": false,
      "t": 102960.51054101576,
      "d": 334.58354003906425,
      "v": 111
    },
    {
      "midi": 70,
      "hit": false,
      "t": 103296.75867578133,
      "d": 517.3560410156206,
      "v": 85
    },
    {
      "midi": 82,
      "hit": false,
      "t": 103296.75867578133,
      "d": 517.3560410156206,
      "v": 95
    },
    {
      "midi": 30,
      "hit": false,
      "t": 103296.75867578138,
      "d": 1021.0624052734347,
      "v": 95
    },
    {
      "midi": 42,
      "hit": false,
      "t": 103296.75867578138,
      "d": 1021.0624052734347,
      "v": 113
    },
    {
      "midi": 70,
      "hit": false,
      "t": 103814.44763574225,
      "d": 158.46941796875035,
      "v": 80
    },
    {
      "midi": 82,
      "hit": false,
      "t": 103814.44763574225,
      "d": 158.46941796875035,
      "v": 94
    },
    {
      "midi": 72,
      "hit": false,
      "t": 103983.2375410157,
      "d": 156.47190429687907,
      "v": 83
    },
    {
      "midi": 84,
      "hit": false,
      "t": 103983.2375410157,
      "d": 156.47190429687907,
      "v": 97
    },
    {
      "midi": 70,
      "hit": false,
      "t": 104150.02993261727,
      "d": 157.80358007812174,
      "v": 80
    },
    {
      "midi": 82,
      "hit": false,
      "t": 104150.02993261727,
      "d": 157.80358007812174,
      "v": 94
    },
    {
      "midi": 68,
      "hit": false,
      "t": 104319.48567578132,
      "d": 517.3560410156206,
      "v": 85
    },
    {
      "midi": 80,
      "hit": false,
      "t": 104319.48567578132,
      "d": 517.3560410156206,
      "v": 99
    },
    {
      "midi": 29,
      "hit": false,
      "t": 104319.48567578138,
      "d": 1021.0624052734347,
      "v": 95
    },
    {
      "midi": 41,
      "hit": false,
      "t": 104319.48567578138,
      "d": 1021.0624052734347,
      "v": 113
    },
    {
      "midi": 65,
      "hit": false,
      "t": 104837.17463574225,
      "d": 158.46941796875035,
      "v": 80
    },
    {
      "midi": 77,
      "hit": false,
      "t": 104837.17463574225,
      "d": 158.46941796875035,
      "v": 94
    },
    {
      "midi": 66,
      "hit": false,
      "t": 105005.9645410157,
      "d": 156.47190429687907,
      "v": 83
    },
    {
      "midi": 78,
      "hit": false,
      "t": 105005.9645410157,
      "d": 156.47190429687907,
      "v": 97
    },
    {
      "midi": 68,
      "hit": false,
      "t": 105172.75693261727,
      "d": 157.80358007812174,
      "v": 80
    },
    {
      "midi": 80,
      "hit": false,
      "t": 105172.75693261727,
      "d": 157.80358007812174,
      "v": 94
    },
    {
      "midi": 70,
      "hit": false,
      "t": 105342.21267578132,
      "d": 347.90029785156366,
      "v": 85
    },
    {
      "midi": 82,
      "hit": false,
      "t": 105342.21267578132,
      "d": 347.90029785156366,
      "v": 99
    },
    {
      "midi": 27,
      "hit": false,
      "t": 105342.21267578138,
      "d": 1021.0624052734347,
      "v": 94
    },
    {
      "midi": 39,
      "hit": false,
      "t": 105342.21267578138,
      "d": 1021.0624052734347,
      "v": 112
    },
    {
      "midi": 72,
      "hit": false,
      "t": 105690.4458925782,
      "d": 337.91272949219274,
      "v": 81
    },
    {
      "midi": 84,
      "hit": false,
      "t": 105690.4458925782,
      "d": 337.91272949219274,
      "v": 95
    },
    {
      "midi": 73,
      "hit": false,
      "t": 106028.6915410157,
      "d": 334.58354003906425,
      "v": 83
    },
    {
      "midi": 85,
      "hit": false,
      "t": 106028.6915410157,
      "d": 334.58354003906425,
      "v": 97
    },
    {
      "midi": 72,
      "hit": false,
      "t": 106364.93967578132,
      "d": 1021.0624052734347,
      "v": 80
    },
    {
      "midi": 84,
      "hit": false,
      "t": 106364.93967578132,
      "d": 1021.0624052734347,
      "v": 94
    },
    {
      "midi": 32,
      "hit": false,
      "t": 106364.93967578138,
      "d": 347.90029785156366,
      "v": 96
    },
    {
      "midi": 44,
      "hit": false,
      "t": 106364.93967578138,
      "d": 347.90029785156366,
      "v": 113
    },
    {
      "midi": 34,
      "hit": false,
      "t": 106713.17289257825,
      "d": 337.91272949219274,
      "v": 99
    },
    {
      "midi": 46,
      "hit": false,
      "t": 106713.17289257825,
      "d": 337.91272949219274,
      "v": 115
    },
    {
      "midi": 36,
      "hit": false,
      "t": 107051.41854101575,
      "d": 334.58354003906425,
      "v": 102
    },
    {
      "midi": 48,
      "hit": false,
      "t": 107051.41854101575,
      "d": 334.58354003906425,
      "v": 118
    },
    {
      "midi": 73,
      "hit": false,
      "t": 107387.66667578132,
      "d": 517.3560410156206,
      "v": 98
    },
    {
      "midi": 77,
      "hit": false,
      "t": 107387.66667578132,
      "d": 517.3560410156206,
      "v": 112
    },
    {
      "midi": 37,
      "hit": false,
      "t": 107387.66667578138,
      "d": 686.1459462890634,
      "v": 111
    },
    {
      "midi": 44,
      "hit": false,
      "t": 107387.66667578138,
      "d": 686.1459462890634,
      "v": 126
    },
    {
      "midi": 78,
      "hit": false,
      "t": 107905.35563574225,
      "d": 158.46941796875035,
      "v": 101
    },
    {
      "midi": 73,
      "hit": false,
      "t": 108074.14554101569,
      "d": 334.58354003906425,
      "v": 96
    },
    {
      "midi": 77,
      "hit": false,
      "t": 108074.14554101569,
      "d": 334.58354003906425,
      "v": 106
    },
    {
      "midi": 37,
      "hit": false,
      "t": 108074.14554101575,
      "d": 334.58354003906425,
      "v": 114
    },
    {
      "midi": 44,
      "hit": false,
      "t": 108074.14554101575,
      "d": 334.58354003906425,
      "v": 125
    },
    {
      "midi": 73,
      "hit": false,
      "t": 108410.39367578132,
      "d": 517.3560410156206,
      "v": 98
    },
    {
      "midi": 77,
      "hit": false,
      "t": 108410.39367578132,
      "d": 517.3560410156206,
      "v": 108
    },
    {
      "midi": 37,
      "hit": false,
      "t": 108410.39367578138,
      "d": 1021.0624052734347,
      "v": 111
    },
    {
      "midi": 44,
      "hit": false,
      "t": 108410.39367578138,
      "d": 1021.0624052734347,
      "v": 122
    },
    {
      "midi": 78,
      "hit": false,
      "t": 108928.08263574225,
      "d": 158.46941796875035,
      "v": 101
    },
    {
      "midi": 73,
      "hit": false,
      "t": 109096.87254101569,
      "d": 334.58354003906425,
      "v": 96
    },
    {
      "midi": 77,
      "hit": false,
      "t": 109096.87254101569,
      "d": 334.58354003906425,
      "v": 106
    },
    {
      "midi": 73,
      "hit": false,
      "t": 109433.12067578132,
      "d": 517.3560410156206,
      "v": 98
    },
    {
      "midi": 77,
      "hit": false,
      "t": 109433.12067578132,
      "d": 517.3560410156206,
      "v": 108
    },
    {
      "midi": 37,
      "hit": false,
      "t": 109433.12067578138,
      "d": 686.1459462890634,
      "v": 111
    },
    {
      "midi": 44,
      "hit": false,
      "t": 109433.12067578138,
      "d": 686.1459462890634,
      "v": 122
    },
    {
      "midi": 78,
      "hit": false,
      "t": 109950.80963574225,
      "d": 158.46941796875035,
      "v": 101
    },
    {
      "midi": 73,
      "hit": false,
      "t": 110119.59954101569,
      "d": 156.47190429687907,
      "v": 96
    },
    {
      "midi": 77,
      "hit": false,
      "t": 110119.59954101569,
      "d": 156.47190429687907,
      "v": 110
    },
    {
      "midi": 37,
      "hit": false,
      "t": 110119.59954101575,
      "d": 334.58354003906425,
      "v": 114
    },
    {
      "midi": 44,
      "hit": false,
      "t": 110119.59954101575,
      "d": 334.58354003906425,
      "v": 125
    },
    {
      "midi": 75,
      "hit": false,
      "t": 110286.39193261726,
      "d": 157.80358007812174,
      "v": 101
    },
    {
      "midi": 73,
      "hit": false,
      "t": 110455.84767578132,
      "d": 347.90029785156366,
      "v": 106
    },
    {
      "midi": 37,
      "hit": false,
      "t": 110455.84767578138,
      "d": 1021.0624052734347,
      "v": 111
    },
    {
      "midi": 44,
      "hit": false,
      "t": 110455.84767578138,
      "d": 1021.0624052734347,
      "v": 126
    },
    {
      "midi": 73,
      "hit": false,
      "t": 110804.08089257819,
      "d": 337.91272949219274,
      "v": 94
    },
    {
      "midi": 77,
      "hit": false,
      "t": 110804.08089257819,
      "d": 337.91272949219274,
      "v": 108
    },
    {
      "midi": 73,
      "hit": false,
      "t": 111142.32654101569,
      "d": 334.58354003906425,
      "v": 96
    },
    {
      "midi": 80,
      "hit": false,
      "t": 111142.32654101569,
      "d": 334.58354003906425,
      "v": 110
    },
    {
      "midi": 77,
      "hit": false,
      "t": 111478.57467578132,
      "d": 517.3560410156206,
      "v": 98
    },
    {
      "midi": 82,
      "hit": false,
      "t": 111478.57467578132,
      "d": 517.3560410156206,
      "v": 112
    },
    {
      "midi": 34,
      "hit": false,
      "t": 111478.57467578138,
      "d": 686.1459462890634,
      "v": 110
    },
    {
      "midi": 41,
      "hit": false,
      "t": 111478.57467578138,
      "d": 686.1459462890634,
      "v": 126
    },
    {
      "midi": 81,
      "hit": false,
      "t": 111996.26363574225,
      "d": 158.46941796875035,
      "v": 101
    },
    {
      "midi": 77,
      "hit": false,
      "t": 112165.05354101569,
      "d": 156.47190429687907,
      "v": 96
    },
    {
      "midi": 82,
      "hit": false,
      "t": 112165.05354101569,
      "d": 156.47190429687907,
      "v": 110
    },
    {
      "midi": 34,
      "hit": false,
      "t": 112165.05354101575,
      "d": 334.58354003906425,
      "v": 113
    },
    {
      "midi": 41,
      "hit": false,
      "t": 112165.05354101575,
      "d": 334.58354003906425,
      "v": 125
    },
    {
      "midi": 84,
      "hit": false,
      "t": 112331.84593261726,
      "d": 157.80358007812174,
      "v": 101
    },
    {
      "midi": 77,
      "hit": false,
      "t": 112501.30167578132,
      "d": 347.90029785156366,
      "v": 98
    },
    {
      "midi": 85,
      "hit": false,
      "t": 112501.30167578132,
      "d": 347.90029785156366,
      "v": 112
    },
    {
      "midi": 34,
      "hit": false,
      "t": 112501.30167578137,
      "d": 1021.0624052734347,
      "v": 110
    },
    {
      "midi": 41,
      "hit": false,
      "t": 112501.30167578137,
      "d": 1021.0624052734347,
      "v": 126
    },
    {
      "midi": 82,
      "hit": false,
      "t": 112849.53489257819,
      "d": 337.91272949219274,
      "v": 94
    },
    {
      "midi": 87,
      "hit": false,
      "t": 112849.53489257819,
      "d": 337.91272949219274,
      "v": 108
    },
    {
      "midi": 73,
      "hit": false,
      "t": 113187.78054101569,
      "d": 334.58354003906425,
      "v": 96
    },
    {
      "midi": 85,
      "hit": false,
      "t": 113187.78054101569,
      "d": 334.58354003906425,
      "v": 110
    },
    {
      "midi": 72,
      "hit": false,
      "t": 113524.02867578132,
      "d": 517.3560410156206,
      "v": 98
    },
    {
      "midi": 84,
      "hit": false,
      "t": 113524.02867578132,
      "d": 517.3560410156206,
      "v": 112
    },
    {
      "midi": 32,
      "hit": false,
      "t": 113524.02867578137,
      "d": 686.1459462890634,
      "v": 109
    },
    {
      "midi": 39,
      "hit": false,
      "t": 113524.02867578137,
      "d": 686.1459462890634,
      "v": 125
    },
    {
      "midi": 70,
      "hit": false,
      "t": 114041.71763574224,
      "d": 158.46941796875035,
      "v": 93
    },
    {
      "midi": 82,
      "hit": false,
      "t": 114041.71763574224,
      "d": 158.46941796875035,
      "v": 107
    },
    {
      "midi": 72,
      "hit": false,
      "t": 114210.50754101569,
      "d": 334.58354003906425,
      "v": 96
    },
    {
      "midi": 84,
      "hit": false,
      "t": 114210.50754101569,
      "d": 334.58354003906425,
      "v": 110
    },
    {
      "midi": 32,
      "hit": false,
      "t": 114210.50754101574,
      "d": 334.58354003906425,
      "v": 112
    },
    {
      "midi": 39,
      "hit": false,
      "t": 114210.50754101574,
      "d": 334.58354003906425,
      "v": 124
    },
    {
      "midi": 68,
      "hit": false,
      "t": 114546.75567578131,
      "d": 1021.0624052734347,
      "v": 93
    },
    {
      "midi": 80,
      "hit": false,
      "t": 114546.75567578131,
      "d": 1021.0624052734347,
      "v": 107
    },
    {
      "midi": 32,
      "hit": false,
      "t": 114546.75567578137,
      "d": 347.90029785156366,
      "v": 122
    },
    {
      "midi": 39,
      "hit": false,
      "t": 114546.75567578137,
      "d": 1021.0624052734347,
      "v": 119
    },
    {
      "midi": 34,
      "hit": false,
      "t": 114894.98889257824,
      "d": 337.91272949219274,
      "v": 119
    },
    {
      "midi": 36,
      "hit": false,
      "t": 115233.23454101574,
      "d": 334.58354003906425,
      "v": 121
    },
    {
      "midi": 73,
      "hit": false,
      "t": 115569.48267578131,
      "d": 517.3560410156206,
      "v": 98
    },
    {
      "midi": 77,
      "hit": false,
      "t": 115569.48267578131,
      "d": 517.3560410156206,
      "v": 112
    },
    {
      "midi": 37,
      "hit": false,
      "t": 115569.48267578137,
      "d": 1021.0624052734347,
      "v": 111
    },
    {
      "midi": 49,
      "hit": false,
      "t": 115569.48267578137,
      "d": 1021.0624052734347,
      "v": 127
    },
    {
      "midi": 78,
      "hit": false,
      "t": 116087.17163574224,
      "d": 158.46941796875035,
      "v": 101
    },
    {
      "midi": 73,
      "hit": false,
      "t": 116255.96154101568,
      "d": 334.58354003906425,
      "v": 96
    },
    {
      "midi": 77,
      "hit": false,
      "t": 116255.96154101568,
      "d": 334.58354003906425,
      "v": 106
    },
    {
      "midi": 73,
      "hit": false,
      "t": 116592.20967578131,
      "d": 517.3560410156206,
      "v": 98
    },
    {
      "midi": 77,
      "hit": false,
      "t": 116592.20967578131,
      "d": 517.3560410156206,
      "v": 108
    },
    {
      "midi": 32,
      "hit": false,
      "t": 116592.20967578137,
      "d": 1021.0624052734347,
      "v": 109
    },
    {
      "midi": 44,
      "hit": false,
      "t": 116592.20967578137,
      "d": 1021.0624052734347,
      "v": 126
    },
    {
      "midi": 78,
      "hit": false,
      "t": 117109.89863574224,
      "d": 158.46941796875035,
      "v": 101
    },
    {
      "midi": 73,
      "hit": false,
      "t": 117278.68854101568,
      "d": 334.58354003906425,
      "v": 96
    },
    {
      "midi": 77,
      "hit": false,
      "t": 117278.68854101568,
      "d": 334.58354003906425,
      "v": 106
    },
    {
      "midi": 73,
      "hit": false,
      "t": 117614.93667578131,
      "d": 517.3560410156206,
      "v": 98
    },
    {
      "midi": 77,
      "hit": false,
      "t": 117614.93667578131,
      "d": 517.3560410156206,
      "v": 108
    },
    {
      "midi": 37,
      "hit": false,
      "t": 117614.93667578137,
      "d": 686.1459462890634,
      "v": 111
    },
    {
      "midi": 49,
      "hit": false,
      "t": 117614.93667578137,
      "d": 686.1459462890634,
      "v": 127
    },
    {
      "midi": 78,
      "hit": false,
      "t": 118132.62563574224,
      "d": 158.46941796875035,
      "v": 101
    },
    {
      "midi": 73,
      "hit": false,
      "t": 118301.41554101568,
      "d": 156.47190429687907,
      "v": 96
    },
    {
      "midi": 77,
      "hit": false,
      "t": 118301.41554101568,
      "d": 156.47190429687907,
      "v": 110
    },
    {
      "midi": 37,
      "hit": false,
      "t": 118301.41554101574,
      "d": 334.58354003906425,
      "v": 114
    },
    {
      "midi": 49,
      "hit": false,
      "t": 118301.41554101574,
      "d": 334.58354003906425,
      "v": 127
    },
    {
      "midi": 75,
      "hit": false,
      "t": 118468.20793261725,
      "d": 157.80358007812174,
      "v": 101
    },
    {
      "midi": 73,
      "hit": false,
      "t": 118637.66367578131,
      "d": 347.90029785156366,
      "v": 106
    },
    {
      "midi": 33,
      "hit": false,
      "t": 118637.66367578137,
      "d": 1021.0624052734347,
      "v": 109
    },
    {
      "midi": 45,
      "hit": false,
      "t": 118637.66367578137,
      "d": 1021.0624052734347,
      "v": 126
    },
    {
      "midi": 73,
      "hit": false,
      "t": 118985.89689257818,
      "d": 337.91272949219274,
      "v": 94
    },
    {
      "midi": 77,
      "hit": false,
      "t": 118985.89689257818,
      "d": 337.91272949219274,
      "v": 108
    },
    {
      "midi": 73,
      "hit": false,
      "t": 119324.14254101568,
      "d": 334.58354003906425,
      "v": 96
    },
    {
      "midi": 80,
      "hit": false,
      "t": 119324.14254101568,
      "d": 334.58354003906425,
      "v": 110
    },
    {
      "midi": 73,
      "hit": false,
      "t": 119660.39067578131,
      "d": 517.3560410156206,
      "v": 98
    },
    {
      "midi": 82,
      "hit": false,
      "t": 119660.39067578131,
      "d": 517.3560410156206,
      "v": 112
    },
    {
      "midi": 30,
      "hit": false,
      "t": 119660.39067578137,
      "d": 1021.0624052734347,
      "v": 108
    },
    {
      "midi": 42,
      "hit": false,
      "t": 119660.39067578137,
      "d": 1021.0624052734347,
      "v": 126
    },
    {
      "midi": 72,
      "hit": false,
      "t": 120178.07963574224,
      "d": 158.46941796875035,
      "v": 93
    },
    {
      "midi": 81,
      "hit": false,
      "t": 120178.07963574224,
      "d": 158.46941796875035,
      "v": 107
    },
    {
      "midi": 73,
      "hit": false,
      "t": 120346.86954101568,
      "d": 156.47190429687907,
      "v": 96
    },
    {
      "midi": 82,
      "hit": false,
      "t": 120346.86954101568,
      "d": 156.47190429687907,
      "v": 110
    },
    {
      "midi": 37,
      "hit": false,
      "t": 120346.86954101574,
      "d": 334.58354003906425,
      "v": 122
    },
    {
      "midi": 75,
      "hit": false,
      "t": 120513.66193261725,
      "d": 157.80358007812174,
      "v": 93
    },
    {
      "midi": 84,
      "hit": false,
      "t": 120513.66193261725,
      "d": 157.80358007812174,
      "v": 107
    },
    {
      "midi": 77,
      "hit": false,
      "t": 120683.11767578131,
      "d": 347.90029785156366,
      "v": 98
    },
    {
      "midi": 85,
      "hit": false,
      "t": 120683.11767578131,
      "d": 347.90029785156366,
      "v": 112
    },
    {
      "midi": 25,
      "hit": false,
      "t": 120683.11767578137,
      "d": 1021.0624052734347,
      "v": 107
    },
    {
      "midi": 37,
      "hit": false,
      "t": 120683.11767578137,
      "d": 1021.0624052734347,
      "v": 125
    },
    {
      "midi": 75,
      "hit": false,
      "t": 121031.35089257818,
      "d": 337.91272949219274,
      "v": 94
    },
    {
      "midi": 87,
      "hit": false,
      "t": 121031.35089257818,
      "d": 337.91272949219274,
      "v": 108
    },
    {
      "midi": 77,
      "hit": false,
      "t": 121369.59654101568,
      "d": 334.58354003906425,
      "v": 96
    },
    {
      "midi": 89,
      "hit": false,
      "t": 121369.59654101568,
      "d": 334.58354003906425,
      "v": 110
    },
    {
      "midi": 84,
      "hit": false,
      "t": 121705.8446757813,
      "d": 517.3560410156206,
      "v": 98
    },
    {
      "midi": 87,
      "hit": false,
      "t": 121705.8446757813,
      "d": 517.3560410156206,
      "v": 112
    },
    {
      "midi": 32,
      "hit": false,
      "t": 121705.84467578137,
      "d": 686.1459462890634,
      "v": 109
    },
    {
      "midi": 44,
      "hit": false,
      "t": 121705.84467578137,
      "d": 686.1459462890634,
      "v": 126
    },
    {
      "midi": 89,
      "hit": false,
      "t": 122223.53363574223,
      "d": 158.46941796875035,
      "v": 101
    },
    {
      "midi": 84,
      "hit": false,
      "t": 122392.32354101568,
      "d": 156.47190429687907,
      "v": 96
    },
    {
      "midi": 87,
      "hit": false,
      "t": 122392.32354101568,
      "d": 156.47190429687907,
      "v": 110
    },
    {
      "midi": 32,
      "hit": false,
      "t": 122392.32354101574,
      "d": 334.58354003906425,
      "v": 112
    },
    {
      "midi": 44,
      "hit": false,
      "t": 122392.32354101574,
      "d": 334.58354003906425,
      "v": 125
    },
    {
      "midi": 82,
      "hit": false,
      "t": 122559.11593261725,
      "d": 157.80358007812174,
      "v": 101
    },
    {
      "midi": 80,
      "hit": false,
      "t": 122728.5716757813,
      "d": 1021.0624052734347,
      "v": 93
    },
    {
      "midi": 84,
      "hit": false,
      "t": 122728.5716757813,
      "d": 1021.0624052734347,
      "v": 107
    },
    {
      "midi": 32,
      "hit": false,
      "t": 122728.57167578136,
      "d": 347.90029785156366,
      "v": 102
    },
    {
      "midi": 44,
      "hit": false,
      "t": 122728.57167578136,
      "d": 347.90029785156366,
      "v": 119
    },
    {
      "midi": 30,
      "hit": false,
      "t": 123076.80489257824,
      "d": 337.91272949219274,
      "v": 98
    },
    {
      "midi": 42,
      "hit": false,
      "t": 123076.80489257824,
      "d": 337.91272949219274,
      "v": 115
    },
    {
      "midi": 29,
      "hit": false,
      "t": 123415.05054101573,
      "d": 334.58354003906425,
      "v": 94
    },
    {
      "midi": 41,
      "hit": false,
      "t": 123415.05054101573,
      "d": 334.58354003906425,
      "v": 111
    },
    {
      "midi": 85,
      "hit": false,
      "t": 123751.2986757813,
      "d": 1540.0830410156195,
      "v": 80
    },
    {
      "midi": 97,
      "hit": false,
      "t": 123751.2986757813,
      "d": 1540.0830410156195,
      "v": 94
    },
    {
      "midi": 42,
      "hit": false,
      "t": 123751.29867578136,
      "d": 1021.0624052734347,
      "v": 107
    },
    {
      "midi": 49,
      "hit": false,
      "t": 124099.53189257823,
      "d": 337.91272949219274,
      "v": 109
    },
    {
      "midi": 49,
      "hit": false,
      "t": 124437.77754101573,
      "d": 334.58354003906425,
      "v": 111
    },
    {
      "midi": 42,
      "hit": false,
      "t": 124774.02567578136,
      "d": 1021.0624052734347,
      "v": 107
    },
    {
      "midi": 49,
      "hit": false,
      "t": 125122.25889257823,
      "d": 337.91272949219274,
      "v": 109
    },
    {
      "midi": 87,
      "hit": false,
      "t": 125291.71463574223,
      "d": 158.46941796875035,
      "v": 80
    },
    {
      "midi": 99,
      "hit": false,
      "t": 125291.71463574223,
      "d": 158.46941796875035,
      "v": 94
    },
    {
      "midi": 85,
      "hit": false,
      "t": 125460.50454101567,
      "d": 156.47190429687907,
      "v": 83
    },
    {
      "midi": 97,
      "hit": false,
      "t": 125460.50454101567,
      "d": 156.47190429687907,
      "v": 97
    },
    {
      "midi": 49,
      "hit": false,
      "t": 125460.50454101573,
      "d": 334.58354003906425,
      "v": 111
    },
    {
      "midi": 87,
      "hit": false,
      "t": 125627.29693261725,
      "d": 157.80358007812174,
      "v": 80
    },
    {
      "midi": 99,
      "hit": false,
      "t": 125627.29693261725,
      "d": 157.80358007812174,
      "v": 94
    },
    {
      "midi": 85,
      "hit": false,
      "t": 125796.7526757813,
      "d": 1540.0830410156195,
      "v": 80
    },
    {
      "midi": 97,
      "hit": false,
      "t": 125796.7526757813,
      "d": 1540.0830410156195,
      "v": 94
    },
    {
      "midi": 37,
      "hit": false,
      "t": 125796.75267578136,
      "d": 1021.0624052734347,
      "v": 106
    },
    {
      "midi": 49,
      "hit": false,
      "t": 126144.98589257823,
      "d": 337.91272949219274,
      "v": 109
    },
    {
      "midi": 49,
      "hit": false,
      "t": 126483.23154101573,
      "d": 334.58354003906425,
      "v": 111
    },
    {
      "midi": 37,
      "hit": false,
      "t": 126819.47967578136,
      "d": 1021.0624052734347,
      "v": 106
    },
    {
      "midi": 49,
      "hit": false,
      "t": 127167.71289257823,
      "d": 337.91272949219274,
      "v": 109
    },
    {
      "midi": 87,
      "hit": false,
      "t": 127337.16863574223,
      "d": 158.46941796875035,
      "v": 80
    },
    {
      "midi": 99,
      "hit": false,
      "t": 127337.16863574223,
      "d": 158.46941796875035,
      "v": 94
    },
    {
      "midi": 85,
      "hit": false,
      "t": 127505.95854101567,
      "d": 156.47190429687907,
      "v": 83
    },
    {
      "midi": 97,
      "hit": false,
      "t": 127505.95854101567,
      "d": 156.47190429687907,
      "v": 97
    },
    {
      "midi": 49,
      "hit": false,
      "t": 127505.95854101573,
      "d": 334.58354003906425,
      "v": 111
    },
    {
      "midi": 87,
      "hit": false,
      "t": 127672.75093261724,
      "d": 157.80358007812174,
      "v": 80
    },
    {
      "midi": 99,
      "hit": false,
      "t": 127672.75093261724,
      "d": 157.80358007812174,
      "v": 94
    },
    {
      "midi": 85,
      "hit": false,
      "t": 127842.2066757813,
      "d": 347.90029785156366,
      "v": 85
    },
    {
      "midi": 97,
      "hit": false,
      "t": 127842.2066757813,
      "d": 347.90029785156366,
      "v": 99
    },
    {
      "midi": 30,
      "hit": false,
      "t": 127842.20667578136,
      "d": 1021.0624052734347,
      "v": 95
    },
    {
      "midi": 42,
      "hit": false,
      "t": 127842.20667578136,
      "d": 1021.0624052734347,
      "v": 109
    },
    {
      "midi": 84,
      "hit": false,
      "t": 128190.43989257817,
      "d": 337.91272949219274,
      "v": 81
    },
    {
      "midi": 96,
      "hit": false,
      "t": 128190.43989257817,
      "d": 337.91272949219274,
      "v": 95
    },
    {
      "midi": 85,
      "hit": false,
      "t": 128528.68554101567,
      "d": 334.58354003906425,
      "v": 83
    },
    {
      "midi": 97,
      "hit": false,
      "t": 128528.68554101567,
      "d": 334.58354003906425,
      "v": 97
    },
    {
      "midi": 81,
      "hit": false,
      "t": 128864.9336757813,
      "d": 347.90029785156366,
      "v": 85
    },
    {
      "midi": 87,
      "hit": false,
      "t": 128864.9336757813,
      "d": 347.90029785156366,
      "v": 99
    },
    {
      "midi": 30,
      "hit": false,
      "t": 128864.93367578136,
      "d": 347.90029785156366,
      "v": 100
    },
    {
      "midi": 42,
      "hit": false,
      "t": 128864.93367578136,
      "d": 347.90029785156366,
      "v": 118
    },
    {
      "midi": 81,
      "hit": false,
      "t": 129213.16689257817,
      "d": 337.91272949219274,
      "v": 81
    },
    {
      "midi": 89,
      "hit": false,
      "t": 129213.16689257817,
      "d": 337.91272949219274,
      "v": 95
    },
    {
      "midi": 32,
      "hit": false,
      "t": 129213.16689257823,
      "d": 337.91272949219274,
      "v": 97
    },
    {
      "midi": 44,
      "hit": false,
      "t": 129213.16689257823,
      "d": 337.91272949219274,
      "v": 114
    },
    {
      "midi": 81,
      "hit": false,
      "t": 129551.41254101567,
      "d": 334.58354003906425,
      "v": 83
    },
    {
      "midi": 90,
      "hit": false,
      "t": 129551.41254101567,
      "d": 334.58354003906425,
      "v": 97
    },
    {
      "midi": 33,
      "hit": false,
      "t": 129551.41254101573,
      "d": 334.58354003906425,
      "v": 99
    },
    {
      "midi": 45,
      "hit": false,
      "t": 129551.41254101573,
      "d": 334.58354003906425,
      "v": 116
    },
    {
      "midi": 77,
      "hit": false,
      "t": 129887.6606757813,
      "d": 1021.0624052734347,
      "v": 80
    },
    {
      "midi": 80,
      "hit": false,
      "t": 129887.6606757813,
      "d": 1021.0624052734347,
      "v": 80
    },
    {
      "midi": 89,
      "hit": false,
      "t": 129887.6606757813,
      "d": 1021.0624052734347,
      "v": 94
    },
    {
      "midi": 37,
      "hit": false,
      "t": 129887.66067578136,
      "d": 1021.0624052734347,
      "v": 98
    },
    {
      "midi": 44,
      "hit": false,
      "t": 129887.66067578136,
      "d": 1021.0624052734347,
      "v": 113
    },
    {
      "midi": 73,
      "hit": false,
      "t": 130912.38518945317,
      "d": 167.12531054686406,
      "v": 88
    },
    {
      "midi": 37,
      "hit": false,
      "t": 130912.38518945323,
      "d": 1019.0648916015634,
      "v": 79
    },
    {
      "midi": 49,
      "hit": false,
      "t": 130912.38518945323,
      "d": 1019.0648916015634,
      "v": 94
    },
    {
      "midi": 72,
      "hit": false,
      "t": 131090.16390625003,
      "d": 158.13649902344332,
      "v": 90
    },
    {
      "midi": 73,
      "hit": false,
      "t": 131258.62089257815,
      "d": 159.13525585937896,
      "v": 92
    },
    {
      "midi": 68,
      "hit": false,
      "t": 131428.0766357422,
      "d": 158.4694179687358,
      "v": 94
    },
    {
      "midi": 73,
      "hit": false,
      "t": 131596.86654101562,
      "d": 156.47190429686452,
      "v": 96
    },
    {
      "midi": 75,
      "hit": false,
      "t": 131763.65893261717,
      "d": 157.80358007812174,
      "v": 98
    },
    {
      "midi": 73,
      "hit": false,
      "t": 131933.11467578122,
      "d": 517.3560410156206,
      "v": 98
    },
    {
      "midi": 77,
      "hit": false,
      "t": 131933.11467578122,
      "d": 517.3560410156206,
      "v": 112
    },
    {
      "midi": 37,
      "hit": false,
      "t": 131933.11467578134,
      "d": 686.1459462890634,
      "v": 111
    },
    {
      "midi": 44,
      "hit": false,
      "t": 131933.11467578134,
      "d": 686.1459462890634,
      "v": 126
    },
    {
      "midi": 78,
      "hit": false,
      "t": 132450.80363574217,
      "d": 158.4694179687358,
      "v": 101
    },
    {
      "midi": 73,
      "hit": false,
      "t": 132619.59354101558,
      "d": 334.5835400390497,
      "v": 96
    },
    {
      "midi": 77,
      "hit": false,
      "t": 132619.59354101558,
      "d": 334.5835400390497,
      "v": 106
    },
    {
      "midi": 37,
      "hit": false,
      "t": 132619.59354101573,
      "d": 334.5835400390497,
      "v": 125
    },
    {
      "midi": 44,
      "hit": false,
      "t": 132619.59354101573,
      "d": 334.5835400390497,
      "v": 121
    },
    {
      "midi": 73,
      "hit": false,
      "t": 132955.84167578118,
      "d": 517.3560410156206,
      "v": 98
    },
    {
      "midi": 77,
      "hit": false,
      "t": 132955.84167578118,
      "d": 517.3560410156206,
      "v": 108
    },
    {
      "midi": 35,
      "hit": false,
      "t": 132955.84167578132,
      "d": 686.1459462890634,
      "v": 121
    },
    {
      "midi": 44,
      "hit": false,
      "t": 132955.84167578132,
      "d": 686.1459462890634,
      "v": 118
    },
    {
      "midi": 78,
      "hit": false,
      "t": 133473.53063574212,
      "d": 158.4694179687358,
      "v": 101
    },
    {
      "midi": 73,
      "hit": false,
      "t": 133642.32054101554,
      "d": 334.5835400390497,
      "v": 96
    },
    {
      "midi": 77,
      "hit": false,
      "t": 133642.32054101554,
      "d": 334.5835400390497,
      "v": 106
    },
    {
      "midi": 35,
      "hit": false,
      "t": 133642.3205410157,
      "d": 334.5835400390497,
      "v": 113
    },
    {
      "midi": 44,
      "hit": false,
      "t": 133642.3205410157,
      "d": 334.5835400390497,
      "v": 127
    },
    {
      "midi": 73,
      "hit": false,
      "t": 133978.56867578113,
      "d": 517.3560410156206,
      "v": 98
    },
    {
      "midi": 77,
      "hit": false,
      "t": 133978.56867578113,
      "d": 517.3560410156206,
      "v": 108
    },
    {
      "midi": 34,
      "hit": false,
      "t": 133978.5686757813,
      "d": 686.1459462890634,
      "v": 110
    },
    {
      "midi": 41,
      "hit": false,
      "t": 133978.5686757813,
      "d": 686.1459462890634,
      "v": 126
    },
    {
      "midi": 78,
      "hit": false,
      "t": 134496.25763574208,
      "d": 158.4694179687358,
      "v": 101
    },
    {
      "midi": 73,
      "hit": false,
      "t": 134665.0475410155,
      "d": 334.5835400390497,
      "v": 96
    },
    {
      "midi": 77,
      "hit": false,
      "t": 134665.0475410155,
      "d": 334.5835400390497,
      "v": 110
    },
    {
      "midi": 34,
      "hit": false,
      "t": 134665.0475410157,
      "d": 334.5835400390497,
      "v": 113
    },
    {
      "midi": 41,
      "hit": false,
      "t": 134665.0475410157,
      "d": 334.5835400390497,
      "v": 127
    },
    {
      "midi": 80,
      "hit": false,
      "t": 135001.2956757811,
      "d": 169.12282421876444,
      "v": 106
    },
    {
      "midi": 33,
      "hit": false,
      "t": 135001.2956757813,
      "d": 1021.0624052734347,
      "v": 109
    },
    {
      "midi": 45,
      "hit": false,
      "t": 135001.2956757813,
      "d": 1021.0624052734347,
      "v": 126
    },
    {
      "midi": 73,
      "hit": false,
      "t": 135181.07190624985,
      "d": 158.13649902344332,
      "v": 93
    },
    {
      "midi": 78,
      "hit": false,
      "t": 135181.07190624985,
      "d": 158.13649902344332,
      "v": 107
    },
    {
      "midi": 77,
      "hit": false,
      "t": 135349.52889257798,
      "d": 159.13525585937896,
      "v": 102
    },
    {
      "midi": 68,
      "hit": false,
      "t": 135518.98463574203,
      "d": 158.4694179687358,
      "v": 93
    },
    {
      "midi": 80,
      "hit": false,
      "t": 135518.98463574203,
      "d": 158.4694179687358,
      "v": 107
    },
    {
      "midi": 73,
      "hit": false,
      "t": 135687.77454101545,
      "d": 156.47190429686452,
      "v": 96
    },
    {
      "midi": 85,
      "hit": false,
      "t": 135687.77454101545,
      "d": 156.47190429686452,
      "v": 110
    },
    {
      "midi": 75,
      "hit": false,
      "t": 135854.566932617,
      "d": 157.80358007812174,
      "v": 93
    },
    {
      "midi": 87,
      "hit": false,
      "t": 135854.566932617,
      "d": 157.80358007812174,
      "v": 107
    },
    {
      "midi": 77,
      "hit": false,
      "t": 136024.02267578105,
      "d": 517.3560410156206,
      "v": 98
    },
    {
      "midi": 89,
      "hit": false,
      "t": 136024.02267578105,
      "d": 517.3560410156206,
      "v": 112
    },
    {
      "midi": 37,
      "hit": false,
      "t": 136024.02267578128,
      "d": 686.1459462890634,
      "v": 111
    },
    {
      "midi": 44,
      "hit": false,
      "t": 136024.02267578128,
      "d": 686.1459462890634,
      "v": 126
    },
    {
      "midi": 78,
      "hit": false,
      "t": 136541.711635742,
      "d": 158.4694179687358,
      "v": 93
    },
    {
      "midi": 90,
      "hit": false,
      "t": 136541.711635742,
      "d": 158.4694179687358,
      "v": 107
    },
    {
      "midi": 77,
      "hit": false,
      "t": 136710.5015410154,
      "d": 334.5835400390497,
      "v": 96
    },
    {
      "midi": 89,
      "hit": false,
      "t": 136710.5015410154,
      "d": 334.5835400390497,
      "v": 110
    },
    {
      "midi": 37,
      "hit": false,
      "t": 136710.50154101566,
      "d": 334.5835400390497,
      "v": 125
    },
    {
      "midi": 44,
      "hit": false,
      "t": 136710.50154101566,
      "d": 334.5835400390497,
      "v": 121
    },
    {
      "midi": 77,
      "hit": false,
      "t": 137046.749675781,
      "d": 517.3560410156206,
      "v": 98
    },
    {
      "midi": 89,
      "hit": false,
      "t": 137046.749675781,
      "d": 517.3560410156206,
      "v": 112
    },
    {
      "midi": 35,
      "hit": false,
      "t": 137046.74967578126,
      "d": 686.1459462890634,
      "v": 121
    },
    {
      "midi": 44,
      "hit": false,
      "t": 137046.74967578126,
      "d": 686.1459462890634,
      "v": 118
    },
    {
      "midi": 78,
      "hit": false,
      "t": 137564.43863574194,
      "d": 158.4694179687358,
      "v": 93
    },
    {
      "midi": 90,
      "hit": false,
      "t": 137564.43863574194,
      "d": 158.4694179687358,
      "v": 107
    },
    {
      "midi": 77,
      "hit": false,
      "t": 137733.22854101536,
      "d": 334.5835400390497,
      "v": 96
    },
    {
      "midi": 89,
      "hit": false,
      "t": 137733.22854101536,
      "d": 334.5835400390497,
      "v": 110
    },
    {
      "midi": 35,
      "hit": false,
      "t": 137733.22854101565,
      "d": 334.5835400390497,
      "v": 113
    },
    {
      "midi": 44,
      "hit": false,
      "t": 137733.22854101565,
      "d": 334.5835400390497,
      "v": 127
    },
    {
      "midi": 78,
      "hit": false,
      "t": 138069.47667578096,
      "d": 517.3560410156206,
      "v": 98
    },
    {
      "midi": 90,
      "hit": false,
      "t": 138069.47667578096,
      "d": 517.3560410156206,
      "v": 112
    },
    {
      "midi": 34,
      "hit": false,
      "t": 138069.47667578125,
      "d": 686.1459462890634,
      "v": 110
    },
    {
      "midi": 41,
      "hit": false,
      "t": 138069.47667578125,
      "d": 686.1459462890634,
      "v": 126
    },
    {
      "midi": 66,
      "hit": false,
      "t": 138587.1656357419,
      "d": 158.4694179687358,
      "v": 93
    },
    {
      "midi": 70,
      "hit": false,
      "t": 138587.1656357419,
      "d": 158.4694179687358,
      "v": 107
    },
    {
      "midi": 68,
      "hit": false,
      "t": 138755.9555410153,
      "d": 156.47190429686452,
      "v": 96
    },
    {
      "midi": 72,
      "hit": false,
      "t": 138755.9555410153,
      "d": 156.47190429686452,
      "v": 110
    },
    {
      "midi": 34,
      "hit": false,
      "t": 138755.95554101563,
      "d": 334.5835400390497,
      "v": 113
    },
    {
      "midi": 41,
      "hit": false,
      "t": 138755.95554101563,
      "d": 334.5835400390497,
      "v": 127
    },
    {
      "midi": 70,
      "hit": false,
      "t": 138922.74793261685,
      "d": 157.80358007812174,
      "v": 93
    },
    {
      "midi": 73,
      "hit": false,
      "t": 138922.74793261685,
      "d": 157.80358007812174,
      "v": 107
    },
    {
      "midi": 66,
      "hit": false,
      "t": 139092.2036757809,
      "d": 347.90029785156366,
      "v": 93
    },
    {
      "midi": 75,
      "hit": false,
      "t": 139092.2036757809,
      "d": 347.90029785156366,
      "v": 107
    },
    {
      "midi": 30,
      "hit": false,
      "t": 139092.20367578123,
      "d": 967.795374023437,
      "v": 87
    },
    {
      "midi": 42,
      "hit": false,
      "t": 139092.20367578123,
      "d": 967.795374023437,
      "v": 104
    },
    {
      "midi": 68,
      "hit": false,
      "t": 139440.4368925778,
      "d": 337.9127294921782,
      "v": 89
    },
    {
      "midi": 77,
      "hit": false,
      "t": 139440.4368925778,
      "d": 337.9127294921782,
      "v": 103
    },
    {
      "midi": 69,
      "hit": false,
      "t": 139778.6825410153,
      "d": 334.5835400390497,
      "v": 85
    },
    {
      "midi": 78,
      "hit": false,
      "t": 139778.6825410153,
      "d": 334.5835400390497,
      "v": 99
    },
    {
      "midi": 68,
      "hit": false,
      "t": 140114.9306757809,
      "d": 517.3560410156206,
      "v": 85
    },
    {
      "midi": 80,
      "hit": false,
      "t": 140114.9306757809,
      "d": 517.3560410156206,
      "v": 99
    },
    {
      "midi": 37,
      "hit": false,
      "t": 140114.93067578124,
      "d": 1021.0624052734347,
      "v": 106
    },
    {
      "midi": 44,
      "hit": false,
      "t": 140463.16389257813,
      "d": 337.9127294921782,
      "v": 108
    },
    {
      "midi": 80,
      "hit": false,
      "t": 140632.61963574184,
      "d": 158.4694179687358,
      "v": 88
    },
    {
      "midi": 73,
      "hit": false,
      "t": 140801.40954101525,
      "d": 334.5835400390497,
      "v": 83
    },
    {
      "midi": 78,
      "hit": false,
      "t": 140801.40954101525,
      "d": 334.5835400390497,
      "v": 97
    },
    {
      "midi": 44,
      "hit": false,
      "t": 140801.40954101563,
      "d": 334.5835400390497,
      "v": 110
    },
    {
      "midi": 68,
      "hit": false,
      "t": 141137.65767578085,
      "d": 517.3560410156206,
      "v": 85
    },
    {
      "midi": 77,
      "hit": false,
      "t": 141137.65767578085,
      "d": 517.3560410156206,
      "v": 99
    },
    {
      "midi": 37,
      "hit": false,
      "t": 141137.65767578123,
      "d": 1021.0624052734347,
      "v": 106
    },
    {
      "midi": 44,
      "hit": false,
      "t": 141485.8908925781,
      "d": 337.9127294921782,
      "v": 108
    },
    {
      "midi": 73,
      "hit": false,
      "t": 141655.3466357418,
      "d": 158.4694179687358,
      "v": 88
    },
    {
      "midi": 73,
      "hit": false,
      "t": 141824.1365410152,
      "d": 156.47190429686452,
      "v": 83
    },
    {
      "midi": 77,
      "hit": false,
      "t": 141824.1365410152,
      "d": 156.47190429686452,
      "v": 97
    },
    {
      "midi": 44,
      "hit": false,
      "t": 141824.1365410156,
      "d": 334.5835400390497,
      "v": 110
    },
    {
      "midi": 78,
      "hit": false,
      "t": 141990.92893261675,
      "d": 157.80358007812174,
      "v": 88
    },
    {
      "midi": 68,
      "hit": false,
      "t": 142160.3846757808,
      "d": 517.3560410156206,
      "v": 85
    },
    {
      "midi": 80,
      "hit": false,
      "t": 142160.3846757808,
      "d": 517.3560410156206,
      "v": 99
    },
    {
      "midi": 35,
      "hit": false,
      "t": 142160.3846757812,
      "d": 1021.0624052734347,
      "v": 105
    },
    {
      "midi": 42,
      "hit": false,
      "t": 142508.6178925781,
      "d": 337.9127294921782,
      "v": 108
    },
    {
      "midi": 80,
      "hit": false,
      "t": 142678.07363574175,
      "d": 158.4694179687358,
      "v": 88
    },
    {
      "midi": 73,
      "hit": false,
      "t": 142846.86354101516,
      "d": 334.5835400390497,
      "v": 83
    },
    {
      "midi": 82,
      "hit": false,
      "t": 142846.86354101516,
      "d": 334.5835400390497,
      "v": 97
    },
    {
      "midi": 42,
      "hit": false,
      "t": 142846.8635410156,
      "d": 334.5835400390497,
      "v": 110
    },
    {
      "midi": 68,
      "hit": false,
      "t": 143183.11167578076,
      "d": 517.3560410156206,
      "v": 85
    },
    {
      "midi": 80,
      "hit": false,
      "t": 143183.11167578076,
      "d": 517.3560410156206,
      "v": 99
    },
    {
      "midi": 35,
      "hit": false,
      "t": 143183.1116757812,
      "d": 1021.0624052734347,
      "v": 105
    },
    {
      "midi": 42,
      "hit": false,
      "t": 143531.34489257808,
      "d": 337.9127294921782,
      "v": 108
    },
    {
      "midi": 78,
      "hit": false,
      "t": 143700.8006357417,
      "d": 158.4694179687358,
      "v": 88
    },
    {
      "midi": 73,
      "hit": false,
      "t": 143869.59054101512,
      "d": 156.47190429686452,
      "v": 83
    },
    {
      "midi": 77,
      "hit": false,
      "t": 143869.59054101512,
      "d": 156.47190429686452,
      "v": 97
    },
    {
      "midi": 42,
      "hit": false,
      "t": 143869.59054101558,
      "d": 334.5835400390497,
      "v": 110
    },
    {
      "midi": 80,
      "hit": false,
      "t": 144036.38293261666,
      "d": 157.80358007812174,
      "v": 88
    },
    {
      "midi": 66,
      "hit": false,
      "t": 144205.83867578072,
      "d": 517.3560410156206,
      "v": 85
    },
    {
      "midi": 78,
      "hit": false,
      "t": 144205.83867578072,
      "d": 517.3560410156206,
      "v": 99
    },
    {
      "midi": 34,
      "hit": false,
      "t": 144205.83867578118,
      "d": 1021.0624052734347,
      "v": 105
    },
    {
      "midi": 46,
      "hit": false,
      "t": 144554.07189257807,
      "d": 337.9127294921782,
      "v": 108
    },
    {
      "midi": 77,
      "hit": false,
      "t": 144723.52763574166,
      "d": 158.4694179687358,
      "v": 88
    },
    {
      "midi": 70,
      "hit": false,
      "t": 144892.31754101507,
      "d": 156.47190429686452,
      "v": 83
    },
    {
      "midi": 75,
      "hit": false,
      "t": 144892.31754101507,
      "d": 156.47190429686452,
      "v": 97
    },
    {
      "midi": 46,
      "hit": false,
      "t": 144892.31754101557,
      "d": 334.5835400390497,
      "v": 110
    },
    {
      "midi": 77,
      "hit": false,
      "t": 145059.10993261661,
      "d": 157.80358007812174,
      "v": 88
    },
    {
      "midi": 66,
      "hit": false,
      "t": 145228.56567578067,
      "d": 517.3560410156206,
      "v": 85
    },
    {
      "midi": 78,
      "hit": false,
      "t": 145228.56567578067,
      "d": 517.3560410156206,
      "v": 99
    },
    {
      "midi": 34,
      "hit": false,
      "t": 145228.56567578117,
      "d": 347.90029785156366,
      "v": 110
    },
    {
      "midi": 36,
      "hit": false,
      "t": 145576.79889257805,
      "d": 337.9127294921782,
      "v": 106
    },
    {
      "midi": 82,
      "hit": false,
      "t": 145746.2546357416,
      "d": 158.4694179687358,
      "v": 88
    },
    {
      "midi": 84,
      "hit": false,
      "t": 145915.04454101503,
      "d": 156.47190429686452,
      "v": 91
    },
    {
      "midi": 68,
      "hit": false,
      "t": 145915.04454101503,
      "d": 334.5835400390497,
      "v": 83
    },
    {
      "midi": 73,
      "hit": false,
      "t": 145915.04454101503,
      "d": 334.5835400390497,
      "v": 97
    },
    {
      "midi": 37,
      "hit": false,
      "t": 145915.04454101555,
      "d": 334.5835400390497,
      "v": 109
    },
    {
      "midi": 82,
      "hit": false,
      "t": 146081.83693261657,
      "d": 157.80358007812174,
      "v": 88
    },
    {
      "midi": 81,
      "hit": false,
      "t": 146251.29267578063,
      "d": 347.90029785156366,
      "v": 85
    },
    {
      "midi": 85,
      "hit": false,
      "t": 146251.29267578063,
      "d": 347.90029785156366,
      "v": 99
    },
    {
      "midi": 33,
      "hit": false,
      "t": 146251.29267578115,
      "d": 686.1459462890634,
      "v": 96
    },
    {
      "midi": 45,
      "hit": false,
      "t": 146251.29267578115,
      "d": 686.1459462890634,
      "v": 113
    },
    {
      "midi": 78,
      "hit": false,
      "t": 146599.5258925775,
      "d": 337.9127294921782,
      "v": 81
    },
    {
      "midi": 84,
      "hit": false,
      "t": 146599.5258925775,
      "d": 337.9127294921782,
      "v": 95
    },
    {
      "midi": 78,
      "hit": false,
      "t": 146937.771541015,
      "d": 334.5835400390497,
      "v": 83
    },
    {
      "midi": 82,
      "hit": false,
      "t": 146937.771541015,
      "d": 334.5835400390497,
      "v": 97
    },
    {
      "midi": 32,
      "hit": false,
      "t": 146937.77154101554,
      "d": 334.5835400390497,
      "v": 99
    },
    {
      "midi": 44,
      "hit": false,
      "t": 146937.77154101554,
      "d": 334.5835400390497,
      "v": 116
    },
    {
      "midi": 73,
      "hit": false,
      "t": 147274.0196757806,
      "d": 347.90029785156366,
      "v": 80
    },
    {
      "midi": 85,
      "hit": false,
      "t": 147274.0196757806,
      "d": 347.90029785156366,
      "v": 94
    },
    {
      "midi": 30,
      "hit": false,
      "t": 147274.01967578114,
      "d": 686.1459462890634,
      "v": 75
    },
    {
      "midi": 42,
      "hit": false,
      "t": 147274.01967578114,
      "d": 686.1459462890634,
      "v": 92
    },
    {
      "midi": 75,
      "hit": false,
      "t": 147622.2528925775,
      "d": 337.9127294921782,
      "v": 76
    },
    {
      "midi": 87,
      "hit": false,
      "t": 147622.2528925775,
      "d": 337.9127294921782,
      "v": 90
    },
    {
      "midi": 78,
      "hit": false,
      "t": 147960.498541015,
      "d": 334.5835400390497,
      "v": 72
    },
    {
      "midi": 84,
      "hit": false,
      "t": 147960.498541015,
      "d": 334.5835400390497,
      "v": 86
    },
    {
      "midi": 49,
      "hit": false,
      "t": 147960.49854101552,
      "d": 302.6233212890511,
      "v": 75
    },
    {
      "midi": 80,
      "hit": false,
      "t": 148296.7466757806,
      "d": 517.3560410156206,
      "v": 72
    },
    {
      "midi": 92,
      "hit": false,
      "t": 148296.7466757806,
      "d": 517.3560410156206,
      "v": 86
    },
    {
      "midi": 49,
      "hit": false,
      "t": 148296.74667578112,
      "d": 1021.0624052734347,
      "v": 95
    },
    {
      "midi": 56,
      "hit": false,
      "t": 148644.979892578,
      "d": 337.9127294921782,
      "v": 96
    },
    {
      "midi": 92,
      "hit": false,
      "t": 148814.43563574154,
      "d": 158.4694179687358,
      "v": 75
    },
    {
      "midi": 85,
      "hit": false,
      "t": 148983.22554101495,
      "d": 334.5835400390497,
      "v": 70
    },
    {
      "midi": 90,
      "hit": false,
      "t": 148983.22554101495,
      "d": 334.5835400390497,
      "v": 84
    },
    {
      "midi": 56,
      "hit": false,
      "t": 148983.2255410155,
      "d": 334.5835400390497,
      "v": 98
    },
    {
      "midi": 80,
      "hit": false,
      "t": 149319.47367578055,
      "d": 517.3560410156206,
      "v": 72
    },
    {
      "midi": 89,
      "hit": false,
      "t": 149319.47367578055,
      "d": 517.3560410156206,
      "v": 86
    },
    {
      "midi": 49,
      "hit": false,
      "t": 149319.4736757811,
      "d": 1021.0624052734347,
      "v": 95
    },
    {
      "midi": 56,
      "hit": false,
      "t": 149667.706892578,
      "d": 337.9127294921782,
      "v": 96
    },
    {
      "midi": 85,
      "hit": false,
      "t": 149837.1626357415,
      "d": 158.4694179687358,
      "v": 75
    },
    {
      "midi": 85,
      "hit": false,
      "t": 150005.9525410149,
      "d": 156.47190429686452,
      "v": 70
    },
    {
      "midi": 89,
      "hit": false,
      "t": 150005.9525410149,
      "d": 156.47190429686452,
      "v": 84
    },
    {
      "midi": 56,
      "hit": false,
      "t": 150005.9525410155,
      "d": 334.5835400390497,
      "v": 98
    },
    {
      "midi": 90,
      "hit": false,
      "t": 150172.74493261645,
      "d": 157.80358007812174,
      "v": 75
    },
    {
      "midi": 80,
      "hit": false,
      "t": 150342.2006757805,
      "d": 517.3560410156206,
      "v": 72
    },
    {
      "midi": 92,
      "hit": false,
      "t": 150342.2006757805,
      "d": 517.3560410156206,
      "v": 86
    },
    {
      "midi": 47,
      "hit": false,
      "t": 150342.2006757811,
      "d": 1021.0624052734347,
      "v": 94
    },
    {
      "midi": 54,
      "hit": false,
      "t": 150690.43389257797,
      "d": 337.9127294921782,
      "v": 96
    },
    {
      "midi": 92,
      "hit": false,
      "t": 150859.88963574145,
      "d": 158.4694179687358,
      "v": 75
    },
    {
      "midi": 85,
      "hit": false,
      "t": 151028.67954101486,
      "d": 334.5835400390497,
      "v": 70
    },
    {
      "midi": 94,
      "hit": false,
      "t": 151028.67954101486,
      "d": 334.5835400390497,
      "v": 84
    },
    {
      "midi": 54,
      "hit": false,
      "t": 151028.67954101547,
      "d": 334.5835400390497,
      "v": 98
    },
    {
      "midi": 80,
      "hit": false,
      "t": 151364.92767578046,
      "d": 517.3560410156206,
      "v": 72
    },
    {
      "midi": 92,
      "hit": false,
      "t": 151364.92767578046,
      "d": 517.3560410156206,
      "v": 86
    },
    {
      "midi": 47,
      "hit": false,
      "t": 151364.92767578107,
      "d": 1021.0624052734347,
      "v": 94
    },
    {
      "midi": 54,
      "hit": false,
      "t": 151713.16089257796,
      "d": 337.9127294921782,
      "v": 96
    },
    {
      "midi": 90,
      "hit": false,
      "t": 151882.6166357414,
      "d": 158.4694179687358,
      "v": 75
    },
    {
      "midi": 85,
      "hit": false,
      "t": 152051.40654101482,
      "d": 156.47190429686452,
      "v": 70
    },
    {
      "midi": 89,
      "hit": false,
      "t": 152051.40654101482,
      "d": 156.47190429686452,
      "v": 84
    },
    {
      "midi": 54,
      "hit": false,
      "t": 152051.40654101546,
      "d": 334.5835400390497,
      "v": 98
    },
    {
      "midi": 92,
      "hit": false,
      "t": 152218.19893261636,
      "d": 157.80358007812174,
      "v": 75
    },
    {
      "midi": 78,
      "hit": false,
      "t": 152387.65467578042,
      "d": 517.3560410156206,
      "v": 72
    },
    {
      "midi": 90,
      "hit": false,
      "t": 152387.65467578042,
      "d": 517.3560410156206,
      "v": 86
    },
    {
      "midi": 46,
      "hit": false,
      "t": 152387.65467578106,
      "d": 1021.0624052734347,
      "v": 94
    },
    {
      "midi": 58,
      "hit": false,
      "t": 152735.88789257794,
      "d": 337.9127294921782,
      "v": 96
    },
    {
      "midi": 89,
      "hit": false,
      "t": 152905.34363574136,
      "d": 158.4694179687358,
      "v": 75
    },
    {
      "midi": 82,
      "hit": false,
      "t": 153074.13354101477,
      "d": 156.47190429686452,
      "v": 70
    },
    {
      "midi": 87,
      "hit": false,
      "t": 153074.13354101477,
      "d": 156.47190429686452,
      "v": 84
    },
    {
      "midi": 58,
      "hit": false,
      "t": 153074.13354101544,
      "d": 334.5835400390497,
      "v": 98
    },
    {
      "midi": 89,
      "hit": false,
      "t": 153240.92593261632,
      "d": 157.80358007812174,
      "v": 75
    },
    {
      "midi": 78,
      "hit": false,
      "t": 153410.38167578037,
      "d": 517.3560410156206,
      "v": 72
    },
    {
      "midi": 90,
      "hit": false,
      "t": 153410.38167578037,
      "d": 517.3560410156206,
      "v": 86
    },
    {
      "midi": 46,
      "hit": false,
      "t": 153410.38167578104,
      "d": 347.90029785156366,
      "v": 99
    },
    {
      "midi": 48,
      "hit": false,
      "t": 153758.61489257793,
      "d": 337.9127294921782,
      "v": 95
    },
    {
      "midi": 89,
      "hit": false,
      "t": 153928.07063574131,
      "d": 158.4694179687358,
      "v": 75
    },
    {
      "midi": 90,
      "hit": false,
      "t": 154096.86054101473,
      "d": 156.47190429686452,
      "v": 78
    },
    {
      "midi": 82,
      "hit": false,
      "t": 154096.86054101473,
      "d": 334.5835400390497,
      "v": 70
    },
    {
      "midi": 85,
      "hit": false,
      "t": 154096.86054101473,
      "d": 334.5835400390497,
      "v": 84
    },
    {
      "midi": 49,
      "hit": false,
      "t": 154096.86054101543,
      "d": 334.5835400390497,
      "v": 98
    },
    {
      "midi": 92,
      "hit": false,
      "t": 154263.65293261627,
      "d": 157.80358007812174,
      "v": 75
    },
    {
      "midi": 81,
      "hit": false,
      "t": 154433.10867578033,
      "d": 347.90029785156366,
      "v": 72
    },
    {
      "midi": 93,
      "hit": false,
      "t": 154433.10867578033,
      "d": 347.90029785156366,
      "v": 86
    },
    {
      "midi": 42,
      "hit": false,
      "t": 154433.10867578103,
      "d": 347.90029785156366,
      "v": 91
    },
    {
      "midi": 54,
      "hit": false,
      "t": 154433.10867578103,
      "d": 347.90029785156366,
      "v": 106
    },
    {
      "midi": 80,
      "hit": false,
      "t": 154781.3418925772,
      "d": 337.9127294921782,
      "v": 68
    },
    {
      "midi": 92,
      "hit": false,
      "t": 154781.3418925772,
      "d": 337.9127294921782,
      "v": 82
    },
    {
      "midi": 41,
      "hit": false,
      "t": 154781.3418925779,
      "d": 337.9127294921782,
      "v": 87
    },
    {
      "midi": 53,
      "hit": false,
      "t": 154781.3418925779,
      "d": 337.9127294921782,
      "v": 102
    },
    {
      "midi": 78,
      "hit": false,
      "t": 155119.5875410147,
      "d": 334.5835400390497,
      "v": 70
    },
    {
      "midi": 90,
      "hit": false,
      "t": 155119.5875410147,
      "d": 334.5835400390497,
      "v": 84
    },
    {
      "midi": 39,
      "hit": false,
      "t": 155119.5875410154,
      "d": 334.5835400390497,
      "v": 88
    },
    {
      "midi": 51,
      "hit": false,
      "t": 155119.5875410154,
      "d": 334.5835400390497,
      "v": 104
    },
    {
      "midi": 85,
      "hit": false,
      "t": 155455.8356757803,
      "d": 1021.0624052734347,
      "v": 67
    },
    {
      "midi": 89,
      "hit": false,
      "t": 155455.8356757803,
      "d": 1021.0624052734347,
      "v": 81
    },
    {
      "midi": 37,
      "hit": false,
      "t": 155455.835675781,
      "d": 517.3560410156206,
      "v": 90
    },
    {
      "midi": 49,
      "hit": false,
      "t": 155455.835675781,
      "d": 517.3560410156206,
      "v": 106
    },
    {
      "midi": 61,
      "hit": false,
      "t": 155973.52463574195,
      "d": 158.4694179687358,
      "v": 95
    },
    {
      "midi": 60,
      "hit": false,
      "t": 156142.31454101537,
      "d": 156.47190429686452,
      "v": 98
    },
    {
      "midi": 58,
      "hit": false,
      "t": 156309.1069326169,
      "d": 157.80358007812174,
      "v": 95
    },
    {
      "midi": 72,
      "hit": false,
      "t": 156478.5626757803,
      "d": 517.3560410156206,
      "v": 80
    },
    {
      "midi": 56,
      "hit": false,
      "t": 156478.56267578097,
      "d": 1708.872946289077,
      "v": 95
    },
    {
      "midi": 68,
      "hit": false,
      "t": 156996.25163574124,
      "d": 158.4694179687358,
      "v": 75
    },
    {
      "midi": 70,
      "hit": false,
      "t": 157165.04154101465,
      "d": 156.47190429686452,
      "v": 78
    },
    {
      "midi": 72,
      "hit": false,
      "t": 157331.8339326162,
      "d": 157.80358007812174,
      "v": 75
    },
    {
      "midi": 75,
      "hit": false,
      "t": 157501.28967578025,
      "d": 517.3560410156206,
      "v": 80
    },
    {
      "midi": 72,
      "hit": false,
      "t": 158018.9786357412,
      "d": 158.4694179687358,
      "v": 75
    },
    {
      "midi": 73,
      "hit": false,
      "t": 158187.7685410146,
      "d": 156.47190429686452,
      "v": 78
    },
    {
      "midi": 56,
      "hit": false,
      "t": 158187.76854101536,
      "d": 334.5835400390497,
      "v": 98
    },
    {
      "midi": 75,
      "hit": false,
      "t": 158354.56093261615,
      "d": 157.80358007812174,
      "v": 75
    },
    {
      "midi": 85,
      "hit": false,
      "t": 158524.0166757802,
      "d": 517.3560410156206,
      "v": 80
    },
    {
      "midi": 77,
      "hit": false,
      "t": 158524.0166757802,
      "d": 1021.0624052734056,
      "v": 75
    },
    {
      "midi": 61,
      "hit": false,
      "t": 158524.01667578096,
      "d": 1021.0624052734347,
      "v": 95
    },
    {
      "midi": 80,
      "hit": false,
      "t": 159041.70563574115,
      "d": 158.4694179687358,
      "v": 75
    },
    {
      "midi": 82,
      "hit": false,
      "t": 159210.49554101456,
      "d": 156.47190429686452,
      "v": 78
    },
    {
      "midi": 84,
      "hit": false,
      "t": 159377.2879326161,
      "d": 157.80358007812174,
      "v": 75
    },
    {
      "midi": 85,
      "hit": false,
      "t": 159546.74367578016,
      "d": 361.21705566407763,
      "v": 68
    },
    {
      "midi": 61,
      "hit": false,
      "t": 159546.74367578095,
      "d": 361.21705566407763,
      "v": 88
    },
    {
      "midi": 92,
      "hit": false,
      "t": 159894.97689257705,
      "d": 351.22948730469216,
      "v": 64
    },
    {
      "midi": 56,
      "hit": false,
      "t": 159894.97689257783,
      "d": 351.22948730469216,
      "v": 84
    },
    {
      "midi": 89,
      "hit": false,
      "t": 160233.22254101455,
      "d": 347.90029785156366,
      "v": 66
    },
    {
      "midi": 61,
      "hit": false,
      "t": 160233.22254101533,
      "d": 347.90029785156366,
      "v": 86
    },
    {
      "midi": 77,
      "hit": false,
      "t": 160569.47067578018,
      "d": 517.3560410156206,
      "v": 80
    },
    {
      "midi": 62,
      "hit": false,
      "t": 160569.47067578096,
      "d": 1708.8729462890478,
      "v": 95
    },
    {
      "midi": 74,
      "hit": false,
      "t": 161087.15963574112,
      "d": 158.4694179687358,
      "v": 75
    },
    {
      "midi": 75,
      "hit": false,
      "t": 161255.94954101453,
      "d": 156.47190429686452,
      "v": 78
    },
    {
      "midi": 77,
      "hit": false,
      "t": 161422.74193261607,
      "d": 157.80358007812174,
      "v": 75
    },
    {
      "midi": 80,
      "hit": false,
      "t": 161592.19767578013,
      "d": 517.3560410156206,
      "v": 80
    },
    {
      "midi": 77,
      "hit": false,
      "t": 162109.88663574107,
      "d": 158.4694179687358,
      "v": 75
    },
    {
      "midi": 78,
      "hit": false,
      "t": 162278.6765410145,
      "d": 156.47190429686452,
      "v": 78
    },
    {
      "midi": 56,
      "hit": false,
      "t": 162278.67654101533,
      "d": 334.5835400390497,
      "v": 98
    },
    {
      "midi": 80,
      "hit": false,
      "t": 162445.46893261603,
      "d": 157.80358007812174,
      "v": 75
    },
    {
      "midi": 87,
      "hit": false,
      "t": 162614.9246757801,
      "d": 517.3560410156206,
      "v": 80
    },
    {
      "midi": 78,
      "hit": false,
      "t": 162614.9246757801,
      "d": 1021.0624052734056,
      "v": 75
    },
    {
      "midi": 63,
      "hit": false,
      "t": 162614.92467578093,
      "d": 2043.7894052734482,
      "v": 95
    },
    {
      "midi": 82,
      "hit": false,
      "t": 163132.61363574103,
      "d": 158.4694179687358,
      "v": 75
    },
    {
      "midi": 84,
      "hit": false,
      "t": 163301.40354101444,
      "d": 156.47190429686452,
      "v": 78
    },
    {
      "midi": 85,
      "hit": false,
      "t": 163468.19593261598,
      "d": 157.80358007812174,
      "v": 75
    },
    {
      "midi": 87,
      "hit": false,
      "t": 163637.65167578004,
      "d": 361.21705566407763,
      "v": 68
    },
    {
      "midi": 94,
      "hit": false,
      "t": 163985.88489257693,
      "d": 351.22948730469216,
      "v": 64
    },
    {
      "midi": 90,
      "hit": false,
      "t": 164324.13054101443,
      "d": 347.90029785156366,
      "v": 66
    },
    {
      "midi": 82,
      "hit": false,
      "t": 164660.37867578006,
      "d": 517.3560410156206,
      "v": 93
    },
    {
      "midi": 54,
      "hit": false,
      "t": 164660.37867578093,
      "d": 1021.0624052734347,
      "v": 108
    },
    {
      "midi": 63,
      "hit": false,
      "t": 165008.6118925778,
      "d": 337.9127294921782,
      "v": 109
    },
    {
      "midi": 82,
      "hit": false,
      "t": 165178.067635741,
      "d": 158.4694179687358,
      "v": 88
    },
    {
      "midi": 84,
      "hit": false,
      "t": 165346.8575410144,
      "d": 156.47190429686452,
      "v": 91
    },
    {
      "midi": 66,
      "hit": false,
      "t": 165346.8575410153,
      "d": 334.5835400390497,
      "v": 111
    },
    {
      "midi": 82,
      "hit": false,
      "t": 165513.64993261595,
      "d": 157.80358007812174,
      "v": 88
    },
    {
      "midi": 80,
      "hit": false,
      "t": 165683.10567578,
      "d": 517.3560410156206,
      "v": 93
    },
    {
      "midi": 53,
      "hit": false,
      "t": 165683.1056757809,
      "d": 1021.0624052734347,
      "v": 108
    },
    {
      "midi": 60,
      "hit": false,
      "t": 166031.3388925778,
      "d": 337.9127294921782,
      "v": 109
    },
    {
      "midi": 77,
      "hit": false,
      "t": 166200.79463574095,
      "d": 158.4694179687358,
      "v": 88
    },
    {
      "midi": 75,
      "hit": false,
      "t": 166369.58454101437,
      "d": 156.47190429686452,
      "v": 91
    },
    {
      "midi": 63,
      "hit": false,
      "t": 166369.5845410153,
      "d": 334.5835400390497,
      "v": 111
    },
    {
      "midi": 77,
      "hit": false,
      "t": 166536.3769326159,
      "d": 157.80358007812174,
      "v": 88
    },
    {
      "midi": 78,
      "hit": false,
      "t": 166705.83267577997,
      "d": 517.3560410156206,
      "v": 93
    },
    {
      "midi": 51,
      "hit": false,
      "t": 166705.8326757809,
      "d": 1021.0624052734347,
      "v": 108
    },
    {
      "midi": 58,
      "hit": false,
      "t": 167054.06589257778,
      "d": 337.9127294921782,
      "v": 109
    },
    {
      "midi": 77,
      "hit": false,
      "t": 167223.5216357409,
      "d": 158.4694179687358,
      "v": 88
    },
    {
      "midi": 75,
      "hit": false,
      "t": 167392.31154101432,
      "d": 156.47190429686452,
      "v": 91
    },
    {
      "midi": 63,
      "hit": false,
      "t": 167392.31154101528,
      "d": 334.5835400390497,
      "v": 111
    },
    {
      "midi": 78,
      "hit": false,
      "t": 167559.10393261586,
      "d": 157.80358007812174,
      "v": 88
    },
    {
      "midi": 77,
      "hit": false,
      "t": 167728.55967577992,
      "d": 347.90029785156366,
      "v": 93
    },
    {
      "midi": 49,
      "hit": false,
      "t": 167728.55967578088,
      "d": 1021.0624052734347,
      "v": 108
    },
    {
      "midi": 78,
      "hit": false,
      "t": 168076.7928925768,
      "d": 337.9127294921782,
      "v": 89
    },
    {
      "midi": 56,
      "hit": false,
      "t": 168076.79289257777,
      "d": 337.9127294921782,
      "v": 109
    },
    {
      "midi": 80,
      "hit": false,
      "t": 168415.0385410143,
      "d": 334.5835400390497,
      "v": 91
    },
    {
      "midi": 61,
      "hit": false,
      "t": 168415.03854101527,
      "d": 334.5835400390497,
      "v": 111
    },
    {
      "midi": 70,
      "hit": false,
      "t": 168751.2866757799,
      "d": 517.3560410156206,
      "v": 85
    },
    {
      "midi": 82,
      "hit": false,
      "t": 168751.2866757799,
      "d": 517.3560410156206,
      "v": 95
    },
    {
      "midi": 30,
      "hit": false,
      "t": 168751.28667578087,
      "d": 1021.0624052734347,
      "v": 95
    },
    {
      "midi": 42,
      "hit": false,
      "t": 168751.28667578087,
      "d": 1021.0624052734347,
      "v": 113
    },
    {
      "midi": 70,
      "hit": false,
      "t": 169268.97563574085,
      "d": 158.4694179687358,
      "v": 80
    },
    {
      "midi": 82,
      "hit": false,
      "t": 169268.97563574085,
      "d": 158.4694179687358,
      "v": 94
    },
    {
      "midi": 72,
      "hit": false,
      "t": 169437.76554101426,
      "d": 156.47190429686452,
      "v": 83
    },
    {
      "midi": 84,
      "hit": false,
      "t": 169437.76554101426,
      "d": 156.47190429686452,
      "v": 97
    },
    {
      "midi": 70,
      "hit": false,
      "t": 169604.5579326158,
      "d": 157.80358007812174,
      "v": 80
    },
    {
      "midi": 82,
      "hit": false,
      "t": 169604.5579326158,
      "d": 157.80358007812174,
      "v": 94
    },
    {
      "midi": 68,
      "hit": false,
      "t": 169774.01367577986,
      "d": 517.3560410156206,
      "v": 85
    },
    {
      "midi": 80,
      "hit": false,
      "t": 169774.01367577986,
      "d": 517.3560410156206,
      "v": 99
    },
    {
      "midi": 29,
      "hit": false,
      "t": 169774.01367578085,
      "d": 1021.0624052734347,
      "v": 95
    },
    {
      "midi": 41,
      "hit": false,
      "t": 169774.01367578085,
      "d": 1021.0624052734347,
      "v": 113
    },
    {
      "midi": 65,
      "hit": false,
      "t": 170291.7026357408,
      "d": 158.4694179687358,
      "v": 80
    },
    {
      "midi": 77,
      "hit": false,
      "t": 170291.7026357408,
      "d": 158.4694179687358,
      "v": 94
    },
    {
      "midi": 66,
      "hit": false,
      "t": 170460.49254101422,
      "d": 156.47190429686452,
      "v": 83
    },
    {
      "midi": 78,
      "hit": false,
      "t": 170460.49254101422,
      "d": 156.47190429686452,
      "v": 97
    },
    {
      "midi": 68,
      "hit": false,
      "t": 170627.28493261576,
      "d": 157.80358007812174,
      "v": 80
    },
    {
      "midi": 80,
      "hit": false,
      "t": 170627.28493261576,
      "d": 157.80358007812174,
      "v": 94
    },
    {
      "midi": 70,
      "hit": false,
      "t": 170796.74067577982,
      "d": 347.90029785156366,
      "v": 85
    },
    {
      "midi": 82,
      "hit": false,
      "t": 170796.74067577982,
      "d": 347.90029785156366,
      "v": 99
    },
    {
      "midi": 27,
      "hit": false,
      "t": 170796.74067578083,
      "d": 1021.0624052734347,
      "v": 94
    },
    {
      "midi": 39,
      "hit": false,
      "t": 170796.74067578083,
      "d": 1021.0624052734347,
      "v": 112
    },
    {
      "midi": 72,
      "hit": false,
      "t": 171144.9738925767,
      "d": 337.9127294921782,
      "v": 81
    },
    {
      "midi": 84,
      "hit": false,
      "t": 171144.9738925767,
      "d": 337.9127294921782,
      "v": 95
    },
    {
      "midi": 73,
      "hit": false,
      "t": 171483.2195410142,
      "d": 334.5835400390497,
      "v": 83
    },
    {
      "midi": 85,
      "hit": false,
      "t": 171483.2195410142,
      "d": 334.5835400390497,
      "v": 97
    },
    {
      "midi": 72,
      "hit": false,
      "t": 171819.4676757798,
      "d": 1021.0624052734347,
      "v": 80
    },
    {
      "midi": 84,
      "hit": false,
      "t": 171819.4676757798,
      "d": 1021.0624052734347,
      "v": 94
    },
    {
      "midi": 32,
      "hit": false,
      "t": 171819.46767578082,
      "d": 347.90029785156366,
      "v": 96
    },
    {
      "midi": 44,
      "hit": false,
      "t": 171819.46767578082,
      "d": 347.90029785156366,
      "v": 113
    },
    {
      "midi": 34,
      "hit": false,
      "t": 172167.7008925777,
      "d": 337.9127294921782,
      "v": 99
    },
    {
      "midi": 46,
      "hit": false,
      "t": 172167.7008925777,
      "d": 337.9127294921782,
      "v": 115
    },
    {
      "midi": 36,
      "hit": false,
      "t": 172505.9465410152,
      "d": 334.5835400390497,
      "v": 102
    },
    {
      "midi": 48,
      "hit": false,
      "t": 172505.9465410152,
      "d": 334.5835400390497,
      "v": 118
    },
    {
      "midi": 73,
      "hit": false,
      "t": 172842.19467577979,
      "d": 517.3560410156206,
      "v": 98
    },
    {
      "midi": 77,
      "hit": false,
      "t": 172842.19467577979,
      "d": 517.3560410156206,
      "v": 112
    },
    {
      "midi": 37,
      "hit": false,
      "t": 172842.1946757808,
      "d": 686.1459462890634,
      "v": 111
    },
    {
      "midi": 44,
      "hit": false,
      "t": 172842.1946757808,
      "d": 686.1459462890634,
      "v": 126
    },
    {
      "midi": 78,
      "hit": false,
      "t": 173359.88363574073,
      "d": 158.4694179687358,
      "v": 101
    },
    {
      "midi": 73,
      "hit": false,
      "t": 173528.67354101414,
      "d": 334.5835400390497,
      "v": 96
    },
    {
      "midi": 77,
      "hit": false,
      "t": 173528.67354101414,
      "d": 334.5835400390497,
      "v": 106
    },
    {
      "midi": 37,
      "hit": false,
      "t": 173528.6735410152,
      "d": 334.5835400390497,
      "v": 114
    },
    {
      "midi": 44,
      "hit": false,
      "t": 173528.6735410152,
      "d": 334.5835400390497,
      "v": 125
    },
    {
      "midi": 73,
      "hit": false,
      "t": 173864.92167577974,
      "d": 517.3560410156206,
      "v": 98
    },
    {
      "midi": 77,
      "hit": false,
      "t": 173864.92167577974,
      "d": 517.3560410156206,
      "v": 108
    },
    {
      "midi": 37,
      "hit": false,
      "t": 173864.9216757808,
      "d": 1021.0624052734347,
      "v": 111
    },
    {
      "midi": 44,
      "hit": false,
      "t": 173864.9216757808,
      "d": 1021.0624052734347,
      "v": 122
    },
    {
      "midi": 78,
      "hit": false,
      "t": 174382.61063574068,
      "d": 158.4694179687358,
      "v": 101
    },
    {
      "midi": 73,
      "hit": false,
      "t": 174551.4005410141,
      "d": 334.5835400390497,
      "v": 96
    },
    {
      "midi": 77,
      "hit": false,
      "t": 174551.4005410141,
      "d": 334.5835400390497,
      "v": 106
    },
    {
      "midi": 73,
      "hit": false,
      "t": 174887.6486757797,
      "d": 517.3560410156206,
      "v": 98
    },
    {
      "midi": 77,
      "hit": false,
      "t": 174887.6486757797,
      "d": 517.3560410156206,
      "v": 108
    },
    {
      "midi": 37,
      "hit": false,
      "t": 174887.64867578077,
      "d": 686.1459462890634,
      "v": 111
    },
    {
      "midi": 44,
      "hit": false,
      "t": 174887.64867578077,
      "d": 686.1459462890634,
      "v": 122
    },
    {
      "midi": 78,
      "hit": false,
      "t": 175405.33763574064,
      "d": 158.4694179687358,
      "v": 101
    },
    {
      "midi": 73,
      "hit": false,
      "t": 175574.12754101405,
      "d": 156.47190429686452,
      "v": 96
    },
    {
      "midi": 77,
      "hit": false,
      "t": 175574.12754101405,
      "d": 156.47190429686452,
      "v": 110
    },
    {
      "midi": 37,
      "hit": false,
      "t": 175574.12754101516,
      "d": 334.5835400390497,
      "v": 114
    },
    {
      "midi": 44,
      "hit": false,
      "t": 175574.12754101516,
      "d": 334.5835400390497,
      "v": 125
    },
    {
      "midi": 75,
      "hit": false,
      "t": 175740.9199326156,
      "d": 157.80358007812174,
      "v": 101
    },
    {
      "midi": 73,
      "hit": false,
      "t": 175910.37567577965,
      "d": 347.90029785156366,
      "v": 106
    },
    {
      "midi": 37,
      "hit": false,
      "t": 175910.37567578076,
      "d": 1021.0624052734347,
      "v": 111
    },
    {
      "midi": 44,
      "hit": false,
      "t": 175910.37567578076,
      "d": 1021.0624052734347,
      "v": 126
    },
    {
      "midi": 73,
      "hit": false,
      "t": 176258.60889257654,
      "d": 337.9127294921782,
      "v": 94
    },
    {
      "midi": 77,
      "hit": false,
      "t": 176258.60889257654,
      "d": 337.9127294921782,
      "v": 108
    },
    {
      "midi": 73,
      "hit": false,
      "t": 176596.85454101404,
      "d": 334.5835400390497,
      "v": 96
    },
    {
      "midi": 80,
      "hit": false,
      "t": 176596.85454101404,
      "d": 334.5835400390497,
      "v": 110
    },
    {
      "midi": 77,
      "hit": false,
      "t": 176933.10267577964,
      "d": 517.3560410156206,
      "v": 98
    },
    {
      "midi": 82,
      "hit": false,
      "t": 176933.10267577964,
      "d": 517.3560410156206,
      "v": 112
    },
    {
      "midi": 34,
      "hit": false,
      "t": 176933.10267578074,
      "d": 686.1459462890634,
      "v": 110
    },
    {
      "midi": 41,
      "hit": false,
      "t": 176933.10267578074,
      "d": 686.1459462890634,
      "v": 126
    },
    {
      "midi": 81,
      "hit": false,
      "t": 177450.79163574058,
      "d": 158.4694179687358,
      "v": 101
    },
    {
      "midi": 77,
      "hit": false,
      "t": 177619.581541014,
      "d": 156.47190429686452,
      "v": 96
    },
    {
      "midi": 82,
      "hit": false,
      "t": 177619.581541014,
      "d": 156.47190429686452,
      "v": 110
    },
    {
      "midi": 34,
      "hit": false,
      "t": 177619.58154101513,
      "d": 334.5835400390497,
      "v": 113
    },
    {
      "midi": 41,
      "hit": false,
      "t": 177619.58154101513,
      "d": 334.5835400390497,
      "v": 125
    },
    {
      "midi": 84,
      "hit": false,
      "t": 177786.37393261553,
      "d": 157.80358007812174,
      "v": 101
    },
    {
      "midi": 77,
      "hit": false,
      "t": 177955.8296757796,
      "d": 347.90029785156366,
      "v": 98
    },
    {
      "midi": 85,
      "hit": false,
      "t": 177955.8296757796,
      "d": 347.90029785156366,
      "v": 112
    },
    {
      "midi": 34,
      "hit": false,
      "t": 177955.82967578073,
      "d": 1021.0624052734347,
      "v": 110
    },
    {
      "midi": 41,
      "hit": false,
      "t": 177955.82967578073,
      "d": 1021.0624052734347,
      "v": 126
    },
    {
      "midi": 82,
      "hit": false,
      "t": 178304.06289257648,
      "d": 337.9127294921782,
      "v": 94
    },
    {
      "midi": 87,
      "hit": false,
      "t": 178304.06289257648,
      "d": 337.9127294921782,
      "v": 108
    },
    {
      "midi": 73,
      "hit": false,
      "t": 178642.30854101398,
      "d": 334.5835400390497,
      "v": 96
    },
    {
      "midi": 85,
      "hit": false,
      "t": 178642.30854101398,
      "d": 334.5835400390497,
      "v": 110
    },
    {
      "midi": 72,
      "hit": false,
      "t": 178978.55667577958,
      "d": 517.3560410156206,
      "v": 98
    },
    {
      "midi": 84,
      "hit": false,
      "t": 178978.55667577958,
      "d": 517.3560410156206,
      "v": 112
    },
    {
      "midi": 32,
      "hit": false,
      "t": 178978.5566757807,
      "d": 686.1459462890634,
      "v": 109
    },
    {
      "midi": 39,
      "hit": false,
      "t": 178978.5566757807,
      "d": 686.1459462890634,
      "v": 125
    },
    {
      "midi": 70,
      "hit": false,
      "t": 179496.24563574052,
      "d": 158.4694179687358,
      "v": 93
    },
    {
      "midi": 82,
      "hit": false,
      "t": 179496.24563574052,
      "d": 158.4694179687358,
      "v": 107
    },
    {
      "midi": 72,
      "hit": false,
      "t": 179665.03554101393,
      "d": 334.5835400390497,
      "v": 96
    },
    {
      "midi": 84,
      "hit": false,
      "t": 179665.03554101393,
      "d": 334.5835400390497,
      "v": 110
    },
    {
      "midi": 32,
      "hit": false,
      "t": 179665.0355410151,
      "d": 334.5835400390497,
      "v": 112
    },
    {
      "midi": 39,
      "hit": false,
      "t": 179665.0355410151,
      "d": 334.5835400390497,
      "v": 124
    },
    {
      "midi": 68,
      "hit": false,
      "t": 180001.28367577953,
      "d": 1021.0624052734347,
      "v": 93
    },
    {
      "midi": 80,
      "hit": false,
      "t": 180001.28367577953,
      "d": 1021.0624052734347,
      "v": 107
    },
    {
      "midi": 32,
      "hit": false,
      "t": 180001.2836757807,
      "d": 347.90029785156366,
      "v": 122
    },
    {
      "midi": 39,
      "hit": false,
      "t": 180001.2836757807,
      "d": 1021.0624052734347,
      "v": 119
    },
    {
      "midi": 34,
      "hit": false,
      "t": 180349.51689257758,
      "d": 337.9127294921782,
      "v": 119
    },
    {
      "midi": 36,
      "hit": false,
      "t": 180687.76254101508,
      "d": 334.5835400390497,
      "v": 121
    },
    {
      "midi": 73,
      "hit": false,
      "t": 181024.01067577951,
      "d": 517.3560410156206,
      "v": 98
    },
    {
      "midi": 77,
      "hit": false,
      "t": 181024.01067577951,
      "d": 517.3560410156206,
      "v": 112
    },
    {
      "midi": 37,
      "hit": false,
      "t": 181024.01067578068,
      "d": 1021.0624052734347,
      "v": 111
    },
    {
      "midi": 49,
      "hit": false,
      "t": 181024.01067578068,
      "d": 1021.0624052734347,
      "v": 127
    },
    {
      "midi": 78,
      "hit": false,
      "t": 181541.69963574046,
      "d": 158.4694179687358,
      "v": 101
    },
    {
      "midi": 73,
      "hit": false,
      "t": 181710.48954101387,
      "d": 334.5835400390497,
      "v": 96
    },
    {
      "midi": 77,
      "hit": false,
      "t": 181710.48954101387,
      "d": 334.5835400390497,
      "v": 106
    },
    {
      "midi": 73,
      "hit": false,
      "t": 182046.73767577947,
      "d": 517.3560410156206,
      "v": 98
    },
    {
      "midi": 77,
      "hit": false,
      "t": 182046.73767577947,
      "d": 517.3560410156206,
      "v": 108
    },
    {
      "midi": 32,
      "hit": false,
      "t": 182046.73767578066,
      "d": 1021.0624052734347,
      "v": 109
    },
    {
      "midi": 44,
      "hit": false,
      "t": 182046.73767578066,
      "d": 1021.0624052734347,
      "v": 126
    },
    {
      "midi": 78,
      "hit": false,
      "t": 182564.4266357404,
      "d": 158.4694179687358,
      "v": 101
    },
    {
      "midi": 73,
      "hit": false,
      "t": 182733.21654101383,
      "d": 334.5835400390497,
      "v": 96
    },
    {
      "midi": 77,
      "hit": false,
      "t": 182733.21654101383,
      "d": 334.5835400390497,
      "v": 106
    },
    {
      "midi": 73,
      "hit": false,
      "t": 183069.46467577943,
      "d": 517.3560410156206,
      "v": 98
    },
    {
      "midi": 77,
      "hit": false,
      "t": 183069.46467577943,
      "d": 517.3560410156206,
      "v": 108
    },
    {
      "midi": 37,
      "hit": false,
      "t": 183069.46467578065,
      "d": 686.1459462890634,
      "v": 111
    },
    {
      "midi": 49,
      "hit": false,
      "t": 183069.46467578065,
      "d": 686.1459462890634,
      "v": 127
    },
    {
      "midi": 78,
      "hit": false,
      "t": 183587.15363574037,
      "d": 158.4694179687358,
      "v": 101
    },
    {
      "midi": 73,
      "hit": false,
      "t": 183755.94354101378,
      "d": 156.47190429686452,
      "v": 96
    },
    {
      "midi": 77,
      "hit": false,
      "t": 183755.94354101378,
      "d": 156.47190429686452,
      "v": 110
    },
    {
      "midi": 37,
      "hit": false,
      "t": 183755.94354101503,
      "d": 334.5835400390497,
      "v": 114
    },
    {
      "midi": 49,
      "hit": false,
      "t": 183755.94354101503,
      "d": 334.5835400390497,
      "v": 127
    },
    {
      "midi": 75,
      "hit": false,
      "t": 183922.73593261532,
      "d": 157.80358007812174,
      "v": 101
    },
    {
      "midi": 73,
      "hit": false,
      "t": 184092.19167577938,
      "d": 347.90029785156366,
      "v": 106
    },
    {
      "midi": 33,
      "hit": false,
      "t": 184092.19167578063,
      "d": 1021.0624052734347,
      "v": 109
    },
    {
      "midi": 45,
      "hit": false,
      "t": 184092.19167578063,
      "d": 1021.0624052734347,
      "v": 126
    },
    {
      "midi": 73,
      "hit": false,
      "t": 184440.42489257627,
      "d": 337.9127294921782,
      "v": 94
    },
    {
      "midi": 77,
      "hit": false,
      "t": 184440.42489257627,
      "d": 337.9127294921782,
      "v": 108
    },
    {
      "midi": 73,
      "hit": false,
      "t": 184778.67054101377,
      "d": 334.5835400390497,
      "v": 96
    },
    {
      "midi": 80,
      "hit": false,
      "t": 184778.67054101377,
      "d": 334.5835400390497,
      "v": 110
    },
    {
      "midi": 73,
      "hit": false,
      "t": 185114.91867577937,
      "d": 517.3560410156206,
      "v": 98
    },
    {
      "midi": 82,
      "hit": false,
      "t": 185114.91867577937,
      "d": 517.3560410156206,
      "v": 112
    },
    {
      "midi": 30,
      "hit": false,
      "t": 185114.91867578062,
      "d": 1021.0624052734347,
      "v": 108
    },
    {
      "midi": 42,
      "hit": false,
      "t": 185114.91867578062,
      "d": 1021.0624052734347,
      "v": 126
    },
    {
      "midi": 72,
      "hit": false,
      "t": 185632.6076357403,
      "d": 158.4694179687358,
      "v": 93
    },
    {
      "midi": 81,
      "hit": false,
      "t": 185632.6076357403,
      "d": 158.4694179687358,
      "v": 107
    },
    {
      "midi": 73,
      "hit": false,
      "t": 185801.39754101372,
      "d": 156.47190429686452,
      "v": 96
    },
    {
      "midi": 82,
      "hit": false,
      "t": 185801.39754101372,
      "d": 156.47190429686452,
      "v": 110
    },
    {
      "midi": 37,
      "hit": false,
      "t": 185801.397541015,
      "d": 334.5835400390497,
      "v": 122
    },
    {
      "midi": 75,
      "hit": false,
      "t": 185968.18993261526,
      "d": 157.80358007812174,
      "v": 93
    },
    {
      "midi": 84,
      "hit": false,
      "t": 185968.18993261526,
      "d": 157.80358007812174,
      "v": 107
    },
    {
      "midi": 77,
      "hit": false,
      "t": 186137.64567577932,
      "d": 347.90029785156366,
      "v": 98
    },
    {
      "midi": 85,
      "hit": false,
      "t": 186137.64567577932,
      "d": 347.90029785156366,
      "v": 112
    },
    {
      "midi": 25,
      "hit": false,
      "t": 186137.6456757806,
      "d": 1021.0624052734347,
      "v": 107
    },
    {
      "midi": 37,
      "hit": false,
      "t": 186137.6456757806,
      "d": 1021.0624052734347,
      "v": 125
    },
    {
      "midi": 75,
      "hit": false,
      "t": 186485.8788925762,
      "d": 337.9127294921782,
      "v": 94
    },
    {
      "midi": 87,
      "hit": false,
      "t": 186485.8788925762,
      "d": 337.9127294921782,
      "v": 108
    },
    {
      "midi": 77,
      "hit": false,
      "t": 186824.1245410137,
      "d": 334.5835400390497,
      "v": 96
    },
    {
      "midi": 89,
      "hit": false,
      "t": 186824.1245410137,
      "d": 334.5835400390497,
      "v": 110
    },
    {
      "midi": 84,
      "hit": false,
      "t": 187160.3726757793,
      "d": 517.3560410156206,
      "v": 98
    },
    {
      "midi": 87,
      "hit": false,
      "t": 187160.3726757793,
      "d": 517.3560410156206,
      "v": 112
    },
    {
      "midi": 32,
      "hit": false,
      "t": 187160.37267578059,
      "d": 686.1459462890634,
      "v": 109
    },
    {
      "midi": 44,
      "hit": false,
      "t": 187160.37267578059,
      "d": 686.1459462890634,
      "v": 126
    },
    {
      "midi": 89,
      "hit": false,
      "t": 187678.06163574025,
      "d": 158.4694179687358,
      "v": 101
    },
    {
      "midi": 84,
      "hit": false,
      "t": 187846.85154101366,
      "d": 156.47190429686452,
      "v": 96
    },
    {
      "midi": 87,
      "hit": false,
      "t": 187846.85154101366,
      "d": 156.47190429686452,
      "v": 110
    },
    {
      "midi": 32,
      "hit": false,
      "t": 187846.85154101497,
      "d": 334.5835400390497,
      "v": 112
    },
    {
      "midi": 44,
      "hit": false,
      "t": 187846.85154101497,
      "d": 334.5835400390497,
      "v": 125
    },
    {
      "midi": 82,
      "hit": false,
      "t": 188013.6439326152,
      "d": 157.80358007812174,
      "v": 101
    },
    {
      "midi": 80,
      "hit": false,
      "t": 188183.09967577926,
      "d": 1021.0624052734347,
      "v": 93
    },
    {
      "midi": 84,
      "hit": false,
      "t": 188183.09967577926,
      "d": 1021.0624052734347,
      "v": 107
    },
    {
      "midi": 32,
      "hit": false,
      "t": 188183.09967578057,
      "d": 347.90029785156366,
      "v": 102
    },
    {
      "midi": 44,
      "hit": false,
      "t": 188183.09967578057,
      "d": 347.90029785156366,
      "v": 119
    },
    {
      "midi": 30,
      "hit": false,
      "t": 188531.33289257745,
      "d": 337.9127294921782,
      "v": 98
    },
    {
      "midi": 42,
      "hit": false,
      "t": 188531.33289257745,
      "d": 337.9127294921782,
      "v": 115
    },
    {
      "midi": 29,
      "hit": false,
      "t": 188869.57854101495,
      "d": 334.5835400390497,
      "v": 94
    },
    {
      "midi": 41,
      "hit": false,
      "t": 188869.57854101495,
      "d": 334.5835400390497,
      "v": 111
    },
    {
      "midi": 85,
      "hit": false,
      "t": 189205.82667577924,
      "d": 1540.083041015634,
      "v": 80
    },
    {
      "midi": 97,
      "hit": false,
      "t": 189205.82667577924,
      "d": 1540.083041015634,
      "v": 94
    },
    {
      "midi": 42,
      "hit": false,
      "t": 189205.82667578055,
      "d": 1021.0624052734347,
      "v": 107
    },
    {
      "midi": 49,
      "hit": false,
      "t": 189554.05989257744,
      "d": 337.9127294921782,
      "v": 109
    },
    {
      "midi": 49,
      "hit": false,
      "t": 189892.30554101494,
      "d": 334.5835400390497,
      "v": 111
    },
    {
      "midi": 42,
      "hit": false,
      "t": 190228.55367578054,
      "d": 1021.0624052734347,
      "v": 107
    },
    {
      "midi": 49,
      "hit": false,
      "t": 190576.78689257742,
      "d": 337.9127294921782,
      "v": 109
    },
    {
      "midi": 87,
      "hit": false,
      "t": 190746.2426357402,
      "d": 158.4694179687358,
      "v": 80
    },
    {
      "midi": 99,
      "hit": false,
      "t": 190746.2426357402,
      "d": 158.4694179687358,
      "v": 94
    },
    {
      "midi": 85,
      "hit": false,
      "t": 190915.0325410136,
      "d": 156.47190429686452,
      "v": 83
    },
    {
      "midi": 97,
      "hit": false,
      "t": 190915.0325410136,
      "d": 156.47190429686452,
      "v": 97
    },
    {
      "midi": 49,
      "hit": false,
      "t": 190915.03254101492,
      "d": 334.5835400390497,
      "v": 111
    },
    {
      "midi": 87,
      "hit": false,
      "t": 191081.82493261516,
      "d": 157.80358007812174,
      "v": 80
    },
    {
      "midi": 99,
      "hit": false,
      "t": 191081.82493261516,
      "d": 157.80358007812174,
      "v": 94
    },
    {
      "midi": 85,
      "hit": false,
      "t": 191251.2806757792,
      "d": 1540.083041015634,
      "v": 80
    },
    {
      "midi": 97,
      "hit": false,
      "t": 191251.2806757792,
      "d": 1540.083041015634,
      "v": 94
    },
    {
      "midi": 37,
      "hit": false,
      "t": 191251.28067578052,
      "d": 1021.0624052734347,
      "v": 106
    },
    {
      "midi": 49,
      "hit": false,
      "t": 191599.5138925774,
      "d": 337.9127294921782,
      "v": 109
    },
    {
      "midi": 49,
      "hit": false,
      "t": 191937.7595410149,
      "d": 334.5835400390497,
      "v": 111
    },
    {
      "midi": 37,
      "hit": false,
      "t": 192274.0076757805,
      "d": 1021.0624052734347,
      "v": 106
    },
    {
      "midi": 49,
      "hit": false,
      "t": 192622.2408925774,
      "d": 337.9127294921782,
      "v": 109
    },
    {
      "midi": 87,
      "hit": false,
      "t": 192791.69663574017,
      "d": 158.4694179687358,
      "v": 80
    },
    {
      "midi": 99,
      "hit": false,
      "t": 192791.69663574017,
      "d": 158.4694179687358,
      "v": 94
    },
    {
      "midi": 85,
      "hit": false,
      "t": 192960.48654101358,
      "d": 156.47190429686452,
      "v": 83
    },
    {
      "midi": 97,
      "hit": false,
      "t": 192960.48654101358,
      "d": 156.47190429686452,
      "v": 97
    },
    {
      "midi": 49,
      "hit": false,
      "t": 192960.4865410149,
      "d": 334.5835400390497,
      "v": 111
    },
    {
      "midi": 87,
      "hit": false,
      "t": 193127.27893261513,
      "d": 157.80358007812174,
      "v": 80
    },
    {
      "midi": 99,
      "hit": false,
      "t": 193127.27893261513,
      "d": 157.80358007812174,
      "v": 94
    },
    {
      "midi": 85,
      "hit": false,
      "t": 193296.73467577918,
      "d": 347.90029785156366,
      "v": 85
    },
    {
      "midi": 97,
      "hit": false,
      "t": 193296.73467577918,
      "d": 347.90029785156366,
      "v": 99
    },
    {
      "midi": 30,
      "hit": false,
      "t": 193296.7346757805,
      "d": 1021.0624052734347,
      "v": 95
    },
    {
      "midi": 42,
      "hit": false,
      "t": 193296.7346757805,
      "d": 1021.0624052734347,
      "v": 109
    },
    {
      "midi": 84,
      "hit": false,
      "t": 193644.96789257607,
      "d": 337.9127294921782,
      "v": 81
    },
    {
      "midi": 96,
      "hit": false,
      "t": 193644.96789257607,
      "d": 337.9127294921782,
      "v": 95
    },
    {
      "midi": 85,
      "hit": false,
      "t": 193983.21354101357,
      "d": 334.5835400390497,
      "v": 83
    },
    {
      "midi": 97,
      "hit": false,
      "t": 193983.21354101357,
      "d": 334.5835400390497,
      "v": 97
    },
    {
      "midi": 81,
      "hit": false,
      "t": 194319.46167577917,
      "d": 347.90029785156366,
      "v": 85
    },
    {
      "midi": 87,
      "hit": false,
      "t": 194319.46167577917,
      "d": 347.90029785156366,
      "v": 99
    },
    {
      "midi": 30,
      "hit": false,
      "t": 194319.46167578048,
      "d": 347.90029785156366,
      "v": 100
    },
    {
      "midi": 42,
      "hit": false,
      "t": 194319.46167578048,
      "d": 347.90029785156366,
      "v": 118
    },
    {
      "midi": 81,
      "hit": false,
      "t": 194667.69489257605,
      "d": 337.9127294921782,
      "v": 81
    },
    {
      "midi": 89,
      "hit": false,
      "t": 194667.69489257605,
      "d": 337.9127294921782,
      "v": 95
    },
    {
      "midi": 32,
      "hit": false,
      "t": 194667.69489257736,
      "d": 337.9127294921782,
      "v": 97
    },
    {
      "midi": 44,
      "hit": false,
      "t": 194667.69489257736,
      "d": 337.9127294921782,
      "v": 114
    },
    {
      "midi": 81,
      "hit": false,
      "t": 195005.94054101355,
      "d": 334.5835400390497,
      "v": 83
    },
    {
      "midi": 90,
      "hit": false,
      "t": 195005.94054101355,
      "d": 334.5835400390497,
      "v": 97
    },
    {
      "midi": 33,
      "hit": false,
      "t": 195005.94054101486,
      "d": 334.5835400390497,
      "v": 99
    },
    {
      "midi": 45,
      "hit": false,
      "t": 195005.94054101486,
      "d": 334.5835400390497,
      "v": 116
    },
    {
      "midi": 77,
      "hit": false,
      "t": 195342.18867577915,
      "d": 1021.0624052734347,
      "v": 80
    },
    {
      "midi": 80,
      "hit": false,
      "t": 195342.18867577915,
      "d": 1021.0624052734347,
      "v": 80
    },
    {
      "midi": 89,
      "hit": false,
      "t": 195342.18867577915,
      "d": 1021.0624052734347,
      "v": 94
    },
    {
      "midi": 37,
      "hit": false,
      "t": 195342.18867578046,
      "d": 1021.0624052734347,
      "v": 98
    },
    {
      "midi": 44,
      "hit": false,
      "t": 195342.18867578046,
      "d": 1021.0624052734347,
      "v": 113
    }
  ]
}