{
  "jsonPath": "Pop/Classic Uk Pop/Colin Blunstone/tracks-of-my-tears.json",
  "path": "Pop\\Classic Uk Pop\\Colin Blunstone\\Tracks Of My Tears.mid",
  "name": "Tracks Of My Tears",
  "difficulty": "Advanced",
  "bpm": 94.99999208333399,
  "notes": [
    {
      "midi": 79,
      "hit": false,
      "t": 4006.57928125,
      "d": 1720.3948802083337,
      "v": 127
    },
    {
      "midi": 55,
      "hit": false,
      "t": 4006.57928125,
      "d": 3549.342401041665,
      "v": 127
    },
    {
      "midi": 59,
      "hit": false,
      "t": 4322.36878125,
      "d": 391.4474010416661,
      "v": 127
    },
    {
      "midi": 74,
      "hit": false,
      "t": 4322.36878125,
      "d": 427.6316145833325,
      "v": 127
    },
    {
      "midi": 71,
      "hit": false,
      "t": 4638.15828125,
      "d": 286.1842343749995,
      "v": 127
    },
    {
      "midi": 62,
      "hit": false,
      "t": 4638.15828125,
      "d": 322.3684479166668,
      "v": 127
    },
    {
      "midi": 72,
      "hit": false,
      "t": 4953.94778125,
      "d": 996.7106093750008,
      "v": 127
    },
    {
      "midi": 60,
      "hit": false,
      "t": 4953.94778125,
      "d": 1473.6843333333336,
      "v": 127
    },
    {
      "midi": 64,
      "hit": false,
      "t": 5585.526781250001,
      "d": 835.526385416666,
      "v": 127
    },
    {
      "midi": 67,
      "hit": false,
      "t": 5901.31628125,
      "d": 592.1053124999999,
      "v": 127
    },
    {
      "midi": 72,
      "hit": false,
      "t": 6217.10578125,
      "d": 266.44739062499957,
      "v": 127
    },
    {
      "midi": 72,
      "hit": false,
      "t": 6532.89528125,
      "d": 667.7632135416661,
      "v": 127
    },
    {
      "midi": 60,
      "hit": false,
      "t": 6532.89528125,
      "d": 891.4474427083323,
      "v": 127
    },
    {
      "midi": 64,
      "hit": false,
      "t": 6848.68478125,
      "d": 618.4211041666658,
      "v": 127
    },
    {
      "midi": 67,
      "hit": false,
      "t": 7164.47428125,
      "d": 328.94739583333194,
      "v": 127
    },
    {
      "midi": 74,
      "hit": false,
      "t": 7480.263781249999,
      "d": 598.6842604166659,
      "v": 127
    },
    {
      "midi": 62,
      "hit": false,
      "t": 7480.263781249999,
      "d": 1601.9738177083354,
      "v": 127
    },
    {
      "midi": 69,
      "hit": false,
      "t": 8111.842781249998,
      "d": 986.842187500004,
      "v": 127
    },
    {
      "midi": 74,
      "hit": false,
      "t": 8427.632281249998,
      "d": 648.0263697916689,
      "v": 127
    },
    {
      "midi": 78,
      "hit": false,
      "t": 8743.42178125,
      "d": 273.0263385416674,
      "v": 127
    },
    {
      "midi": 79,
      "hit": false,
      "t": 9059.21128125,
      "d": 2253.289661458337,
      "v": 127
    },
    {
      "midi": 55,
      "hit": false,
      "t": 9059.21128125,
      "d": 2450.6580989583363,
      "v": 127
    },
    {
      "midi": 74,
      "hit": false,
      "t": 9375.00078125,
      "d": 365.13160937500106,
      "v": 127
    },
    {
      "midi": 59,
      "hit": false,
      "t": 9375.00078125,
      "d": 651.3158437500024,
      "v": 127
    },
    {
      "midi": 62,
      "hit": false,
      "t": 9690.790281250001,
      "d": 309.2105520833338,
      "v": 127
    },
    {
      "midi": 71,
      "hit": false,
      "t": 9690.790281250001,
      "d": 388.1579270833354,
      "v": 127
    },
    {
      "midi": 72,
      "hit": false,
      "t": 10006.579781250002,
      "d": 782.8948020833341,
      "v": 127
    },
    {
      "midi": 60,
      "hit": false,
      "t": 10006.579781250002,
      "d": 1509.868546875001,
      "v": 127
    },
    {
      "midi": 64,
      "hit": false,
      "t": 10638.158781250004,
      "d": 750.0000624999993,
      "v": 127
    },
    {
      "midi": 72,
      "hit": false,
      "t": 10953.948281250003,
      "d": 555.9210989583335,
      "v": 127
    },
    {
      "midi": 76,
      "hit": false,
      "t": 11269.737781250004,
      "d": 256.57896875000006,
      "v": 127
    },
    {
      "midi": 76,
      "hit": false,
      "t": 11585.527281250004,
      "d": 187.50001562500074,
      "v": 127
    },
    {
      "midi": 72,
      "hit": false,
      "t": 11585.527281250004,
      "d": 210.52633333333324,
      "v": 127
    },
    {
      "midi": 60,
      "hit": false,
      "t": 11585.527281250004,
      "d": 259.86844270833353,
      "v": 127
    },
    {
      "midi": 67,
      "hit": false,
      "t": 11585.527281250004,
      "d": 345.3947656250002,
      "v": 127
    },
    {
      "midi": 74,
      "hit": false,
      "t": 11901.316781250005,
      "d": 187.50001562499892,
      "v": 127
    },
    {
      "midi": 71,
      "hit": false,
      "t": 11901.316781250005,
      "d": 226.9737031249988,
      "v": 127
    },
    {
      "midi": 59,
      "hit": false,
      "t": 11901.316781250005,
      "d": 253.28949479166477,
      "v": 127
    },
    {
      "midi": 69,
      "hit": false,
      "t": 12217.106281250004,
      "d": 203.9473854166663,
      "v": 127
    },
    {
      "midi": 72,
      "hit": false,
      "t": 12217.106281250004,
      "d": 273.0263385416656,
      "v": 127
    },
    {
      "midi": 57,
      "hit": false,
      "t": 12217.106281250004,
      "d": 309.210552083332,
      "v": 127
    },
    {
      "midi": 67,
      "hit": false,
      "t": 12532.895781250003,
      "d": 1345.3948489583327,
      "v": 127
    },
    {
      "midi": 71,
      "hit": false,
      "t": 12532.895781250003,
      "d": 1361.84221875,
      "v": 127
    },
    {
      "midi": 55,
      "hit": false,
      "t": 12532.895781250003,
      "d": 1371.7106406250005,
      "v": 127
    },
    {
      "midi": 43,
      "hit": false,
      "t": 14111.843281250003,
      "d": 710.5263750000013,
      "v": 127
    },
    {
      "midi": 67,
      "hit": false,
      "t": 14111.843281250003,
      "d": 3164.4739479166674,
      "v": 127
    },
    {
      "midi": 50,
      "hit": false,
      "t": 14427.632781250004,
      "d": 342.10529166666674,
      "v": 127
    },
    {
      "midi": 62,
      "hit": false,
      "t": 14427.632781250004,
      "d": 486.84214583333414,
      "v": 127
    },
    {
      "midi": 59,
      "hit": false,
      "t": 14743.422281250005,
      "d": 233.55265104166756,
      "v": 127
    },
    {
      "midi": 55,
      "hit": false,
      "t": 14743.422281250005,
      "d": 273.0263385416674,
      "v": 127
    },
    {
      "midi": 64,
      "hit": false,
      "t": 15059.211781250006,
      "d": 1263.1580000000013,
      "v": 127
    },
    {
      "midi": 48,
      "hit": false,
      "t": 15059.211781250006,
      "d": 1401.31590625,
      "v": 127
    },
    {
      "midi": 52,
      "hit": false,
      "t": 15690.790781250005,
      "d": 812.5000677083335,
      "v": 127
    },
    {
      "midi": 55,
      "hit": false,
      "t": 16006.580281250006,
      "d": 641.4474218749983,
      "v": 127
    },
    {
      "midi": 60,
      "hit": false,
      "t": 16322.369781250007,
      "d": 322.3684479166659,
      "v": 127
    },
    {
      "midi": 48,
      "hit": false,
      "t": 16638.159281250006,
      "d": 575.6579427083307,
      "v": 127
    },
    {
      "midi": 64,
      "hit": false,
      "t": 16638.159281250006,
      "d": 661.1842656249974,
      "v": 127
    },
    {
      "midi": 52,
      "hit": false,
      "t": 16953.948781250005,
      "d": 332.2368697916645,
      "v": 127
    },
    {
      "midi": 60,
      "hit": false,
      "t": 17269.738281250004,
      "d": 279.60528645833256,
      "v": 127
    },
    {
      "midi": 55,
      "hit": false,
      "t": 17269.738281250004,
      "d": 312.5000260416673,
      "v": 127
    },
    {
      "midi": 50,
      "hit": false,
      "t": 17585.527781250003,
      "d": 1332.2369531250006,
      "v": 127
    },
    {
      "midi": 62,
      "hit": false,
      "t": 17585.527781250003,
      "d": 2457.2370468750014,
      "v": 127
    },
    {
      "midi": 54,
      "hit": false,
      "t": 18217.106781250004,
      "d": 674.3421614583312,
      "v": 127
    },
    {
      "midi": 57,
      "hit": false,
      "t": 18532.896281250003,
      "d": 358.5526614583323,
      "v": 127
    },
    {
      "midi": 66,
      "hit": false,
      "t": 18848.685781250002,
      "d": 315.7895000000026,
      "v": 127
    },
    {
      "midi": 43,
      "hit": false,
      "t": 19164.475281250005,
      "d": 1000.0000833333324,
      "v": 127
    },
    {
      "midi": 67,
      "hit": false,
      "t": 19164.475281250005,
      "d": 2513.1581041666614,
      "v": 127
    },
    {
      "midi": 47,
      "hit": false,
      "t": 19480.264781250004,
      "d": 437.50003645833203,
      "v": 127
    },
    {
      "midi": 50,
      "hit": false,
      "t": 19796.054281250003,
      "d": 302.6316041666687,
      "v": 127
    },
    {
      "midi": 64,
      "hit": false,
      "t": 20111.843781250005,
      "d": 1273.0264218749944,
      "v": 127
    },
    {
      "midi": 48,
      "hit": false,
      "t": 20111.843781250005,
      "d": 1365.131692708328,
      "v": 127
    },
    {
      "midi": 52,
      "hit": false,
      "t": 20743.422781250003,
      "d": 861.8421770833302,
      "v": 127
    },
    {
      "midi": 55,
      "hit": false,
      "t": 21059.212281250002,
      "d": 493.4210937499993,
      "v": 127
    },
    {
      "midi": 60,
      "hit": false,
      "t": 21375.00178125,
      "d": 236.8421249999992,
      "v": 127
    },
    {
      "midi": 60,
      "hit": false,
      "t": 21690.79128125,
      "d": 197.36843750000116,
      "v": 127
    },
    {
      "midi": 48,
      "hit": false,
      "t": 21690.79128125,
      "d": 292.76318229166645,
      "v": 127
    },
    {
      "midi": 64,
      "hit": false,
      "t": 21690.79128125,
      "d": 299.3421302083334,
      "v": 127
    },
    {
      "midi": 62,
      "hit": false,
      "t": 22006.58078125,
      "d": 200.65791145833282,
      "v": 127
    },
    {
      "midi": 47,
      "hit": false,
      "t": 22006.58078125,
      "d": 203.94738541666447,
      "v": 127
    },
    {
      "midi": 59,
      "hit": false,
      "t": 22006.58078125,
      "d": 203.94738541666447,
      "v": 127
    },
    {
      "midi": 45,
      "hit": false,
      "t": 22322.370281249998,
      "d": 151.31580208333253,
      "v": 127
    },
    {
      "midi": 57,
      "hit": false,
      "t": 22322.370281249998,
      "d": 161.18422395833113,
      "v": 127
    },
    {
      "midi": 60,
      "hit": false,
      "t": 22322.370281249998,
      "d": 161.18422395833113,
      "v": 127
    },
    {
      "midi": 55,
      "hit": false,
      "t": 22638.159781249997,
      "d": 1496.710651041667,
      "v": 127
    },
    {
      "midi": 59,
      "hit": false,
      "t": 22638.159781249997,
      "d": 1523.0264427083348,
      "v": 127
    },
    {
      "midi": 43,
      "hit": false,
      "t": 22638.159781249997,
      "d": 1562.5001302083365,
      "v": 127
    },
    {
      "midi": 59,
      "hit": false,
      "t": 24217.10728125,
      "d": 763.1579583333332,
      "v": 127
    },
    {
      "midi": 62,
      "hit": false,
      "t": 24217.10728125,
      "d": 815.7895416666652,
      "v": 127
    },
    {
      "midi": 67,
      "hit": false,
      "t": 24217.10728125,
      "d": 828.9474374999991,
      "v": 127
    },
    {
      "midi": 43,
      "hit": false,
      "t": 24217.10728125,
      "d": 884.8684947916663,
      "v": 127
    },
    {
      "midi": 50,
      "hit": false,
      "t": 24532.896781249998,
      "d": 407.8947708333326,
      "v": 127
    },
    {
      "midi": 55,
      "hit": false,
      "t": 24848.686281249997,
      "d": 263.157916666667,
      "v": 127
    },
    {
      "midi": 60,
      "hit": false,
      "t": 25164.475781249996,
      "d": 1470.3948593749992,
      "v": 127
    },
    {
      "midi": 48,
      "hit": false,
      "t": 25164.475781249996,
      "d": 1473.6843333333309,
      "v": 127
    },
    {
      "midi": 67,
      "hit": false,
      "t": 25164.475781249996,
      "d": 1483.5527552083295,
      "v": 127
    },
    {
      "midi": 64,
      "hit": false,
      "t": 25164.475781249996,
      "d": 1490.1317031249964,
      "v": 127
    },
    {
      "midi": 60,
      "hit": false,
      "t": 26743.42328124999,
      "d": 773.0263802083318,
      "v": 127
    },
    {
      "midi": 67,
      "hit": false,
      "t": 26743.42328124999,
      "d": 796.0526979166643,
      "v": 127
    },
    {
      "midi": 64,
      "hit": false,
      "t": 26743.42328124999,
      "d": 799.342171874996,
      "v": 127
    },
    {
      "midi": 48,
      "hit": false,
      "t": 26743.42328124999,
      "d": 861.8421770833302,
      "v": 127
    },
    {
      "midi": 69,
      "hit": false,
      "t": 27690.791781249987,
      "d": 1394.7369583333348,
      "v": 127
    },
    {
      "midi": 66,
      "hit": false,
      "t": 27690.791781249987,
      "d": 1398.0264322916664,
      "v": 127
    },
    {
      "midi": 50,
      "hit": false,
      "t": 27690.791781249987,
      "d": 1411.1843281250003,
      "v": 127
    },
    {
      "midi": 62,
      "hit": false,
      "t": 27690.791781249987,
      "d": 1411.1843281250003,
      "v": 127
    },
    {
      "midi": 59,
      "hit": false,
      "t": 29269.73928124999,
      "d": 759.8684843749979,
      "v": 127
    },
    {
      "midi": 62,
      "hit": false,
      "t": 29269.73928124999,
      "d": 819.0790156249968,
      "v": 127
    },
    {
      "midi": 67,
      "hit": false,
      "t": 29269.73928124999,
      "d": 828.9474374999954,
      "v": 127
    },
    {
      "midi": 43,
      "hit": false,
      "t": 29269.73928124999,
      "d": 898.0263906249966,
      "v": 127
    },
    {
      "midi": 50,
      "hit": false,
      "t": 29585.52878124999,
      "d": 398.026348958334,
      "v": 127
    },
    {
      "midi": 55,
      "hit": false,
      "t": 29901.318281249987,
      "d": 266.44739062499866,
      "v": 127
    },
    {
      "midi": 67,
      "hit": false,
      "t": 30217.107781249986,
      "d": 1427.6316979166659,
      "v": 127
    },
    {
      "midi": 64,
      "hit": false,
      "t": 30217.107781249986,
      "d": 1434.2106458333328,
      "v": 127
    },
    {
      "midi": 60,
      "hit": false,
      "t": 30217.107781249986,
      "d": 1437.5001197916645,
      "v": 127
    },
    {
      "midi": 48,
      "hit": false,
      "t": 30217.107781249986,
      "d": 1450.6580156249984,
      "v": 127
    },
    {
      "midi": 60,
      "hit": false,
      "t": 31796.055281249985,
      "d": 220.39475520833366,
      "v": 127
    },
    {
      "midi": 64,
      "hit": false,
      "t": 31796.055281249985,
      "d": 256.57896875000006,
      "v": 127
    },
    {
      "midi": 67,
      "hit": false,
      "t": 31796.055281249985,
      "d": 259.8684427083317,
      "v": 127
    },
    {
      "midi": 48,
      "hit": false,
      "t": 31796.055281249985,
      "d": 266.44739062499866,
      "v": 127
    },
    {
      "midi": 59,
      "hit": false,
      "t": 32111.844781249983,
      "d": 138.15790624999863,
      "v": 127
    },
    {
      "midi": 62,
      "hit": false,
      "t": 32111.844781249983,
      "d": 148.02632812499724,
      "v": 127
    },
    {
      "midi": 47,
      "hit": false,
      "t": 32111.844781249983,
      "d": 171.05264583332973,
      "v": 127
    },
    {
      "midi": 57,
      "hit": false,
      "t": 32427.63428124998,
      "d": 105.26316666666753,
      "v": 127
    },
    {
      "midi": 45,
      "hit": false,
      "t": 32427.63428124998,
      "d": 121.71053645833308,
      "v": 127
    },
    {
      "midi": 60,
      "hit": false,
      "t": 32427.63428124998,
      "d": 121.71053645833308,
      "v": 127
    },
    {
      "midi": 55,
      "hit": false,
      "t": 32743.423781249978,
      "d": 1299.3422135416695,
      "v": 127
    },
    {
      "midi": 59,
      "hit": false,
      "t": 32743.423781249978,
      "d": 1315.7895833333387,
      "v": 127
    },
    {
      "midi": 43,
      "hit": false,
      "t": 32743.423781249978,
      "d": 1378.2895885416729,
      "v": 127
    },
    {
      "midi": 43,
      "hit": false,
      "t": 34322.37128124999,
      "d": 332.23686979166814,
      "v": 127
    },
    {
      "midi": 59,
      "hit": false,
      "t": 34322.37128124999,
      "d": 759.8684843749943,
      "v": 127
    },
    {
      "midi": 62,
      "hit": false,
      "t": 34322.37128124999,
      "d": 822.3684895833285,
      "v": 127
    },
    {
      "midi": 67,
      "hit": false,
      "t": 34322.37128124999,
      "d": 865.1316510416582,
      "v": 127
    },
    {
      "midi": 50,
      "hit": false,
      "t": 34638.160781249986,
      "d": 309.21055208333564,
      "v": 127
    },
    {
      "midi": 55,
      "hit": false,
      "t": 34953.950281249985,
      "d": 315.7894999999917,
      "v": 127
    },
    {
      "midi": 48,
      "hit": false,
      "t": 35269.73978124998,
      "d": 1480.2632812500015,
      "v": 127
    },
    {
      "midi": 67,
      "hit": false,
      "t": 35269.73978124998,
      "d": 1496.7106510416706,
      "v": 127
    },
    {
      "midi": 60,
      "hit": false,
      "t": 35269.73978124998,
      "d": 1503.289598958334,
      "v": 127
    },
    {
      "midi": 64,
      "hit": false,
      "t": 35269.73978124998,
      "d": 1506.5790729166692,
      "v": 127
    },
    {
      "midi": 60,
      "hit": false,
      "t": 36848.68728124998,
      "d": 792.7632239583327,
      "v": 127
    },
    {
      "midi": 67,
      "hit": false,
      "t": 36848.68728124998,
      "d": 809.2105937500019,
      "v": 127
    },
    {
      "midi": 64,
      "hit": false,
      "t": 36848.68728124998,
      "d": 819.0790156250005,
      "v": 127
    },
    {
      "midi": 48,
      "hit": false,
      "t": 36848.68728124998,
      "d": 845.3948072916683,
      "v": 127
    },
    {
      "midi": 66,
      "hit": false,
      "t": 37796.05578124998,
      "d": 1424.3422239583306,
      "v": 127
    },
    {
      "midi": 69,
      "hit": false,
      "t": 37796.05578124998,
      "d": 1434.2106458333292,
      "v": 127
    },
    {
      "midi": 62,
      "hit": false,
      "t": 37796.05578124998,
      "d": 1437.5001197916645,
      "v": 127
    },
    {
      "midi": 50,
      "hit": false,
      "t": 37796.05578124998,
      "d": 1476.9738072916662,
      "v": 127
    },
    {
      "midi": 59,
      "hit": false,
      "t": 39375.003281249985,
      "d": 786.1842760416621,
      "v": 127
    },
    {
      "midi": 62,
      "hit": false,
      "t": 39375.003281249985,
      "d": 822.3684895833285,
      "v": 127
    },
    {
      "midi": 67,
      "hit": false,
      "t": 39375.003281249985,
      "d": 858.5527031249949,
      "v": 127
    },
    {
      "midi": 43,
      "hit": false,
      "t": 39375.003281249985,
      "d": 914.4737604166658,
      "v": 127
    },
    {
      "midi": 50,
      "hit": false,
      "t": 39690.792781249984,
      "d": 398.02634895833035,
      "v": 127
    },
    {
      "midi": 55,
      "hit": false,
      "t": 40006.58228124998,
      "d": 266.44739062499866,
      "v": 127
    },
    {
      "midi": 60,
      "hit": false,
      "t": 40322.37178124998,
      "d": 1417.7632760416673,
      "v": 127
    },
    {
      "midi": 64,
      "hit": false,
      "t": 40322.37178124998,
      "d": 1424.3422239583306,
      "v": 127
    },
    {
      "midi": 67,
      "hit": false,
      "t": 40322.37178124998,
      "d": 1427.6316979166659,
      "v": 127
    },
    {
      "midi": 48,
      "hit": false,
      "t": 40322.37178124998,
      "d": 1434.2106458333292,
      "v": 127
    },
    {
      "midi": 60,
      "hit": false,
      "t": 41901.31928124998,
      "d": 210.52633333333506,
      "v": 127
    },
    {
      "midi": 67,
      "hit": false,
      "t": 41901.31928124998,
      "d": 253.28949479166477,
      "v": 127
    },
    {
      "midi": 64,
      "hit": false,
      "t": 41901.31928124998,
      "d": 259.8684427083281,
      "v": 127
    },
    {
      "midi": 48,
      "hit": false,
      "t": 41901.31928124998,
      "d": 286.18423437499587,
      "v": 127
    },
    {
      "midi": 62,
      "hit": false,
      "t": 42217.108781249975,
      "d": 151.31580208333617,
      "v": 127
    },
    {
      "midi": 59,
      "hit": false,
      "t": 42217.108781249975,
      "d": 154.60527604167146,
      "v": 127
    },
    {
      "midi": 47,
      "hit": false,
      "t": 42217.108781249975,
      "d": 161.18422395833477,
      "v": 127
    },
    {
      "midi": 45,
      "hit": false,
      "t": 42532.898281249974,
      "d": 105.26316666666389,
      "v": 127
    },
    {
      "midi": 60,
      "hit": false,
      "t": 42532.898281249974,
      "d": 105.26316666666389,
      "v": 127
    },
    {
      "midi": 57,
      "hit": false,
      "t": 42532.898281249974,
      "d": 111.8421145833272,
      "v": 127
    },
    {
      "midi": 55,
      "hit": false,
      "t": 42848.687781249966,
      "d": 1467.1053854166676,
      "v": 127
    },
    {
      "midi": 59,
      "hit": false,
      "t": 42848.687781249966,
      "d": 1480.2632812500015,
      "v": 127
    },
    {
      "midi": 43,
      "hit": false,
      "t": 42848.687781249966,
      "d": 1500.0001249999987,
      "v": 127
    },
    {
      "midi": 59,
      "hit": false,
      "t": 44427.63528124997,
      "d": 740.1316406249971,
      "v": 127
    },
    {
      "midi": 43,
      "hit": false,
      "t": 44427.63528124997,
      "d": 756.5790104166663,
      "v": 127
    },
    {
      "midi": 67,
      "hit": false,
      "t": 44427.63528124997,
      "d": 756.5790104166663,
      "v": 127
    },
    {
      "midi": 62,
      "hit": false,
      "t": 44427.63528124997,
      "d": 763.1579583333296,
      "v": 127
    },
    {
      "midi": 67,
      "hit": false,
      "t": 45375.003781249965,
      "d": 1401.315906249998,
      "v": 127
    },
    {
      "midi": 48,
      "hit": false,
      "t": 45375.003781249965,
      "d": 1411.1843281249967,
      "v": 127
    },
    {
      "midi": 60,
      "hit": false,
      "t": 45375.003781249965,
      "d": 1411.1843281249967,
      "v": 127
    },
    {
      "midi": 64,
      "hit": false,
      "t": 45375.003781249965,
      "d": 1417.76327604166,
      "v": 127
    },
    {
      "midi": 67,
      "hit": false,
      "t": 46953.95128124996,
      "d": 822.3684895833358,
      "v": 127
    },
    {
      "midi": 60,
      "hit": false,
      "t": 46953.95128124996,
      "d": 828.9474374999991,
      "v": 127
    },
    {
      "midi": 64,
      "hit": false,
      "t": 46953.95128124996,
      "d": 848.6842812499963,
      "v": 127
    },
    {
      "midi": 48,
      "hit": false,
      "t": 46953.95128124996,
      "d": 875.0000729166641,
      "v": 127
    },
    {
      "midi": 69,
      "hit": false,
      "t": 47901.31978124996,
      "d": 1411.1843281249967,
      "v": 127
    },
    {
      "midi": 62,
      "hit": false,
      "t": 47901.31978124996,
      "d": 1421.0527499999953,
      "v": 127
    },
    {
      "midi": 66,
      "hit": false,
      "t": 47901.31978124996,
      "d": 1421.0527499999953,
      "v": 127
    },
    {
      "midi": 50,
      "hit": false,
      "t": 47901.31978124996,
      "d": 1467.1053854166603,
      "v": 127
    },
    {
      "midi": 59,
      "hit": false,
      "t": 49480.26728124995,
      "d": 789.4737499999974,
      "v": 127
    },
    {
      "midi": 62,
      "hit": false,
      "t": 49480.26728124995,
      "d": 799.342171874996,
      "v": 127
    },
    {
      "midi": 67,
      "hit": false,
      "t": 49480.26728124995,
      "d": 802.6316458333313,
      "v": 127
    },
    {
      "midi": 43,
      "hit": false,
      "t": 49480.26728124995,
      "d": 878.2895468749994,
      "v": 127
    },
    {
      "midi": 48,
      "hit": false,
      "t": 50427.63578124995,
      "d": 1421.0527500000026,
      "v": 127
    },
    {
      "midi": 60,
      "hit": false,
      "t": 50427.63578124995,
      "d": 1430.9211718750012,
      "v": 127
    },
    {
      "midi": 64,
      "hit": false,
      "t": 50427.63578124995,
      "d": 1430.9211718750012,
      "v": 127
    },
    {
      "midi": 67,
      "hit": false,
      "t": 50427.63578124995,
      "d": 1434.2106458333365,
      "v": 127
    },
    {
      "midi": 60,
      "hit": false,
      "t": 52006.58328124995,
      "d": 815.7895416666652,
      "v": 127
    },
    {
      "midi": 64,
      "hit": false,
      "t": 52006.58328124995,
      "d": 832.2369114583344,
      "v": 127
    },
    {
      "midi": 67,
      "hit": false,
      "t": 52006.58328124995,
      "d": 842.105333333333,
      "v": 127
    },
    {
      "midi": 48,
      "hit": false,
      "t": 52006.58328124995,
      "d": 894.7369166666685,
      "v": 127
    },
    {
      "midi": 62,
      "hit": false,
      "t": 52953.951781249954,
      "d": 1394.7369583333348,
      "v": 127
    },
    {
      "midi": 69,
      "hit": false,
      "t": 52953.951781249954,
      "d": 1394.7369583333348,
      "v": 127
    },
    {
      "midi": 66,
      "hit": false,
      "t": 52953.951781249954,
      "d": 1398.02643229167,
      "v": 127
    },
    {
      "midi": 50,
      "hit": false,
      "t": 52953.951781249954,
      "d": 1447.3685416666704,
      "v": 127
    },
    {
      "midi": 43,
      "hit": false,
      "t": 54532.89928124996,
      "d": 825.6579635416638,
      "v": 127
    },
    {
      "midi": 59,
      "hit": false,
      "t": 54532.89928124996,
      "d": 848.6842812499963,
      "v": 127
    },
    {
      "midi": 67,
      "hit": false,
      "t": 54532.89928124996,
      "d": 875.0000729166641,
      "v": 127
    },
    {
      "midi": 62,
      "hit": false,
      "t": 54532.89928124996,
      "d": 881.5790208333274,
      "v": 127
    },
    {
      "midi": 60,
      "hit": false,
      "t": 55480.26778124995,
      "d": 1398.02643229167,
      "v": 127
    },
    {
      "midi": 48,
      "hit": false,
      "t": 55480.26778124995,
      "d": 1401.3159062500054,
      "v": 127
    },
    {
      "midi": 64,
      "hit": false,
      "t": 55480.26778124995,
      "d": 1404.6053802083406,
      "v": 127
    },
    {
      "midi": 67,
      "hit": false,
      "t": 55480.26778124995,
      "d": 1417.7632760416745,
      "v": 127
    },
    {
      "midi": 60,
      "hit": false,
      "t": 57059.21528124996,
      "d": 799.3421718750033,
      "v": 127
    },
    {
      "midi": 64,
      "hit": false,
      "t": 57059.21528124996,
      "d": 815.7895416666724,
      "v": 127
    },
    {
      "midi": 67,
      "hit": false,
      "t": 57059.21528124996,
      "d": 815.7895416666724,
      "v": 127
    },
    {
      "midi": 48,
      "hit": false,
      "t": 57059.21528124996,
      "d": 865.1316510416727,
      "v": 127
    },
    {
      "midi": 69,
      "hit": false,
      "t": 58006.58378124997,
      "d": 1361.8422187499964,
      "v": 127
    },
    {
      "midi": 62,
      "hit": false,
      "t": 58006.58378124997,
      "d": 1378.2895885416656,
      "v": 127
    },
    {
      "midi": 66,
      "hit": false,
      "t": 58006.58378124997,
      "d": 1384.868536458329,
      "v": 127
    },
    {
      "midi": 50,
      "hit": false,
      "t": 58006.58378124997,
      "d": 1414.473802083332,
      "v": 127
    },
    {
      "midi": 59,
      "hit": false,
      "t": 59585.53128124997,
      "d": 805.9211197916666,
      "v": 127
    },
    {
      "midi": 43,
      "hit": false,
      "t": 59585.53128124997,
      "d": 812.5000677083299,
      "v": 127
    },
    {
      "midi": 67,
      "hit": false,
      "t": 59585.53128124997,
      "d": 828.9474374999991,
      "v": 127
    },
    {
      "midi": 62,
      "hit": false,
      "t": 59585.53128124997,
      "d": 832.2369114583344,
      "v": 127
    },
    {
      "midi": 64,
      "hit": false,
      "t": 60532.89978124997,
      "d": 1371.7106406250023,
      "v": 127
    },
    {
      "midi": 60,
      "hit": false,
      "t": 60532.89978124997,
      "d": 1427.6316979166659,
      "v": 127
    },
    {
      "midi": 67,
      "hit": false,
      "t": 60532.89978124997,
      "d": 1450.6580156249984,
      "v": 127
    },
    {
      "midi": 48,
      "hit": false,
      "t": 60532.89978124997,
      "d": 1493.421177083328,
      "v": 127
    },
    {
      "midi": 64,
      "hit": false,
      "t": 62111.84728124997,
      "d": 286.18423437500314,
      "v": 127
    },
    {
      "midi": 67,
      "hit": false,
      "t": 62427.636781249974,
      "d": 325.65792187499756,
      "v": 127
    },
    {
      "midi": 69,
      "hit": false,
      "t": 62743.42628124997,
      "d": 217.10528124999837,
      "v": 127
    },
    {
      "midi": 69,
      "hit": false,
      "t": 63059.21578124997,
      "d": 23.0263177083325,
      "v": 127
    },
    {
      "midi": 43,
      "hit": false,
      "t": 63059.21578124997,
      "d": 1279.605369791665,
      "v": 127
    },
    {
      "midi": 67,
      "hit": false,
      "t": 63059.21578124997,
      "d": 1279.605369791665,
      "v": 127
    },
    {
      "midi": 64,
      "hit": false,
      "t": 64638.16328124997,
      "d": 782.8948020833341,
      "v": 127
    },
    {
      "midi": 67,
      "hit": false,
      "t": 64638.16328124997,
      "d": 782.8948020833341,
      "v": 127
    },
    {
      "midi": 60,
      "hit": false,
      "t": 64638.16328124997,
      "d": 792.7632239583327,
      "v": 127
    },
    {
      "midi": 48,
      "hit": false,
      "t": 64638.16328124997,
      "d": 805.9211197916666,
      "v": 127
    },
    {
      "midi": 59,
      "hit": false,
      "t": 65585.53178124997,
      "d": 1437.5001197916718,
      "v": 127
    },
    {
      "midi": 62,
      "hit": false,
      "t": 65585.53178124997,
      "d": 1463.8159114583395,
      "v": 127
    },
    {
      "midi": 67,
      "hit": false,
      "t": 65585.53178124997,
      "d": 1480.2632812500087,
      "v": 127
    },
    {
      "midi": 43,
      "hit": false,
      "t": 65585.53178124997,
      "d": 1506.5790729166765,
      "v": 127
    },
    {
      "midi": 60,
      "hit": false,
      "t": 67164.47928124998,
      "d": 763.1579583333369,
      "v": 127
    },
    {
      "midi": 48,
      "hit": false,
      "t": 67164.47928124998,
      "d": 769.7369062500075,
      "v": 127
    },
    {
      "midi": 67,
      "hit": false,
      "t": 67164.47928124998,
      "d": 773.0263802083355,
      "v": 127
    },
    {
      "midi": 64,
      "hit": false,
      "t": 67164.47928124998,
      "d": 776.3158541666635,
      "v": 127
    },
    {
      "midi": 59,
      "hit": false,
      "t": 68111.84778124998,
      "d": 1361.8422187499964,
      "v": 127
    },
    {
      "midi": 67,
      "hit": false,
      "t": 68111.84778124998,
      "d": 1375.000114583323,
      "v": 127
    },
    {
      "midi": 62,
      "hit": false,
      "t": 68111.84778124998,
      "d": 1378.289588541651,
      "v": 127
    },
    {
      "midi": 43,
      "hit": false,
      "t": 68111.84778124998,
      "d": 1434.2106458333146,
      "v": 127
    },
    {
      "midi": 43,
      "hit": false,
      "t": 69690.79528124996,
      "d": 315.78949999999895,
      "v": 127
    },
    {
      "midi": 59,
      "hit": false,
      "t": 69690.79528124996,
      "d": 315.78949999999895,
      "v": 127
    },
    {
      "midi": 62,
      "hit": false,
      "t": 69690.79528124996,
      "d": 315.78949999999895,
      "v": 127
    },
    {
      "midi": 67,
      "hit": false,
      "t": 69690.79528124996,
      "d": 315.78949999999895,
      "v": 127
    },
    {
      "midi": 60,
      "hit": false,
      "t": 70638.16378124995,
      "d": 1470.3948593749956,
      "v": 127
    },
    {
      "midi": 48,
      "hit": false,
      "t": 70638.16378124995,
      "d": 1473.6843333333236,
      "v": 127
    },
    {
      "midi": 67,
      "hit": false,
      "t": 70638.16378124995,
      "d": 1483.5527552083222,
      "v": 127
    },
    {
      "midi": 64,
      "hit": false,
      "t": 70638.16378124995,
      "d": 1490.1317031249928,
      "v": 127
    },
    {
      "midi": 60,
      "hit": false,
      "t": 72217.11128124995,
      "d": 773.0263802083355,
      "v": 127
    },
    {
      "midi": 67,
      "hit": false,
      "t": 72217.11128124995,
      "d": 796.0526979166752,
      "v": 127
    },
    {
      "midi": 64,
      "hit": false,
      "t": 72217.11128124995,
      "d": 799.3421718750033,
      "v": 127
    },
    {
      "midi": 48,
      "hit": false,
      "t": 72217.11128124995,
      "d": 861.8421770833374,
      "v": 127
    },
    {
      "midi": 69,
      "hit": false,
      "t": 73164.47978124995,
      "d": 1394.7369583333348,
      "v": 127
    },
    {
      "midi": 66,
      "hit": false,
      "t": 73164.47978124995,
      "d": 1398.0264322916628,
      "v": 127
    },
    {
      "midi": 50,
      "hit": false,
      "t": 73164.47978124995,
      "d": 1411.1843281249894,
      "v": 127
    },
    {
      "midi": 62,
      "hit": false,
      "t": 73164.47978124995,
      "d": 1411.1843281249894,
      "v": 127
    },
    {
      "midi": 59,
      "hit": false,
      "t": 74743.42728124994,
      "d": 759.8684843749943,
      "v": 127
    },
    {
      "midi": 62,
      "hit": false,
      "t": 74743.42728124994,
      "d": 819.0790156250005,
      "v": 127
    },
    {
      "midi": 67,
      "hit": false,
      "t": 74743.42728124994,
      "d": 828.9474374999991,
      "v": 127
    },
    {
      "midi": 43,
      "hit": false,
      "t": 74743.42728124994,
      "d": 898.0263906250038,
      "v": 127
    },
    {
      "midi": 50,
      "hit": false,
      "t": 75059.21678124994,
      "d": 398.02634895833035,
      "v": 127
    },
    {
      "midi": 55,
      "hit": false,
      "t": 75375.00628124994,
      "d": 266.44739062500594,
      "v": 127
    },
    {
      "midi": 67,
      "hit": false,
      "t": 75690.79578124994,
      "d": 1427.6316979166731,
      "v": 127
    },
    {
      "midi": 64,
      "hit": false,
      "t": 75690.79578124994,
      "d": 1434.2106458333437,
      "v": 127
    },
    {
      "midi": 60,
      "hit": false,
      "t": 75690.79578124994,
      "d": 1437.5001197916718,
      "v": 127
    },
    {
      "midi": 48,
      "hit": false,
      "t": 75690.79578124994,
      "d": 1450.6580156249984,
      "v": 127
    },
    {
      "midi": 60,
      "hit": false,
      "t": 77269.74328124993,
      "d": 220.3947552083264,
      "v": 127
    },
    {
      "midi": 64,
      "hit": false,
      "t": 77269.74328124993,
      "d": 256.5789687499928,
      "v": 127
    },
    {
      "midi": 67,
      "hit": false,
      "t": 77269.74328124993,
      "d": 259.8684427083208,
      "v": 127
    },
    {
      "midi": 48,
      "hit": false,
      "t": 77269.74328124993,
      "d": 266.4473906249914,
      "v": 127
    },
    {
      "midi": 59,
      "hit": false,
      "t": 77585.53278124992,
      "d": 138.157906249995,
      "v": 127
    },
    {
      "midi": 62,
      "hit": false,
      "t": 77585.53278124992,
      "d": 148.0263281249936,
      "v": 127
    },
    {
      "midi": 47,
      "hit": false,
      "t": 77585.53278124992,
      "d": 171.05264583333337,
      "v": 127
    },
    {
      "midi": 57,
      "hit": false,
      "t": 77901.32228124992,
      "d": 105.26316666667117,
      "v": 127
    },
    {
      "midi": 45,
      "hit": false,
      "t": 77901.32228124992,
      "d": 121.71053645834036,
      "v": 127
    },
    {
      "midi": 60,
      "hit": false,
      "t": 77901.32228124992,
      "d": 121.71053645834036,
      "v": 127
    },
    {
      "midi": 55,
      "hit": false,
      "t": 78217.11178124993,
      "d": 1299.3422135416622,
      "v": 127
    },
    {
      "midi": 59,
      "hit": false,
      "t": 78217.11178124993,
      "d": 1315.7895833333314,
      "v": 127
    },
    {
      "midi": 43,
      "hit": false,
      "t": 78217.11178124993,
      "d": 1378.2895885416656,
      "v": 127
    },
    {
      "midi": 43,
      "hit": false,
      "t": 79796.05928124992,
      "d": 332.23686979166814,
      "v": 127
    },
    {
      "midi": 59,
      "hit": false,
      "t": 79796.05928124992,
      "d": 759.8684843750088,
      "v": 127
    },
    {
      "midi": 62,
      "hit": false,
      "t": 79796.05928124992,
      "d": 822.368489583343,
      "v": 127
    },
    {
      "midi": 67,
      "hit": false,
      "t": 79796.05928124992,
      "d": 865.13165104168,
      "v": 127
    },
    {
      "midi": 50,
      "hit": false,
      "t": 80111.84878124992,
      "d": 309.2105520833429,
      "v": 127
    },
    {
      "midi": 55,
      "hit": false,
      "t": 80427.63828124994,
      "d": 315.78949999999895,
      "v": 127
    },
    {
      "midi": 48,
      "hit": false,
      "t": 80743.42778124993,
      "d": 1480.2632812499942,
      "v": 127
    },
    {
      "midi": 67,
      "hit": false,
      "t": 80743.42778124993,
      "d": 1496.7106510416634,
      "v": 127
    },
    {
      "midi": 60,
      "hit": false,
      "t": 80743.42778124993,
      "d": 1503.289598958334,
      "v": 127
    },
    {
      "midi": 64,
      "hit": false,
      "t": 80743.42778124993,
      "d": 1506.579072916662,
      "v": 127
    },
    {
      "midi": 60,
      "hit": false,
      "t": 82322.37528124993,
      "d": 792.7632239583327,
      "v": 127
    },
    {
      "midi": 67,
      "hit": false,
      "t": 82322.37528124993,
      "d": 809.2105937500019,
      "v": 127
    },
    {
      "midi": 64,
      "hit": false,
      "t": 82322.37528124993,
      "d": 819.0790156250005,
      "v": 127
    },
    {
      "midi": 48,
      "hit": false,
      "t": 82322.37528124993,
      "d": 845.3948072916683,
      "v": 127
    },
    {
      "midi": 66,
      "hit": false,
      "t": 83269.74378124993,
      "d": 1424.3422239583306,
      "v": 127
    },
    {
      "midi": 69,
      "hit": false,
      "t": 83269.74378124993,
      "d": 1434.2106458333292,
      "v": 127
    },
    {
      "midi": 62,
      "hit": false,
      "t": 83269.74378124993,
      "d": 1437.5001197916572,
      "v": 127
    },
    {
      "midi": 50,
      "hit": false,
      "t": 83269.74378124993,
      "d": 1476.9738072916516,
      "v": 127
    },
    {
      "midi": 59,
      "hit": false,
      "t": 84848.6912812499,
      "d": 786.1842760416621,
      "v": 127
    },
    {
      "midi": 62,
      "hit": false,
      "t": 84848.6912812499,
      "d": 822.3684895833285,
      "v": 127
    },
    {
      "midi": 67,
      "hit": false,
      "t": 84848.6912812499,
      "d": 858.5527031249949,
      "v": 127
    },
    {
      "midi": 43,
      "hit": false,
      "t": 84848.6912812499,
      "d": 914.4737604166585,
      "v": 127
    },
    {
      "midi": 50,
      "hit": false,
      "t": 85164.4807812499,
      "d": 398.02634895833035,
      "v": 127
    },
    {
      "midi": 55,
      "hit": false,
      "t": 85480.2702812499,
      "d": 266.4473906249914,
      "v": 127
    },
    {
      "midi": 60,
      "hit": false,
      "t": 85796.0597812499,
      "d": 1417.76327604166,
      "v": 127
    },
    {
      "midi": 64,
      "hit": false,
      "t": 85796.0597812499,
      "d": 1424.3422239583306,
      "v": 127
    },
    {
      "midi": 67,
      "hit": false,
      "t": 85796.0597812499,
      "d": 1427.6316979166586,
      "v": 127
    },
    {
      "midi": 48,
      "hit": false,
      "t": 85796.0597812499,
      "d": 1434.2106458333292,
      "v": 127
    },
    {
      "midi": 60,
      "hit": false,
      "t": 87375.0072812499,
      "d": 210.52633333332778,
      "v": 127
    },
    {
      "midi": 67,
      "hit": false,
      "t": 87375.0072812499,
      "d": 253.28949479166477,
      "v": 127
    },
    {
      "midi": 64,
      "hit": false,
      "t": 87375.0072812499,
      "d": 259.86844270833535,
      "v": 127
    },
    {
      "midi": 48,
      "hit": false,
      "t": 87375.0072812499,
      "d": 286.18423437500314,
      "v": 127
    },
    {
      "midi": 62,
      "hit": false,
      "t": 87690.7967812499,
      "d": 151.31580208333617,
      "v": 127
    },
    {
      "midi": 59,
      "hit": false,
      "t": 87690.7967812499,
      "d": 154.60527604166418,
      "v": 127
    },
    {
      "midi": 47,
      "hit": false,
      "t": 87690.7967812499,
      "d": 161.18422395833477,
      "v": 127
    },
    {
      "midi": 45,
      "hit": false,
      "t": 88006.5862812499,
      "d": 105.26316666667117,
      "v": 127
    },
    {
      "midi": 60,
      "hit": false,
      "t": 88006.5862812499,
      "d": 105.26316666667117,
      "v": 127
    },
    {
      "midi": 57,
      "hit": false,
      "t": 88006.5862812499,
      "d": 111.84211458334175,
      "v": 127
    },
    {
      "midi": 55,
      "hit": false,
      "t": 88322.37578124991,
      "d": 1467.1053854166676,
      "v": 127
    },
    {
      "midi": 59,
      "hit": false,
      "t": 88322.37578124991,
      "d": 1480.2632812499942,
      "v": 127
    },
    {
      "midi": 43,
      "hit": false,
      "t": 88322.37578124991,
      "d": 1500.0001249999914,
      "v": 127
    },
    {
      "midi": 59,
      "hit": false,
      "t": 89901.3232812499,
      "d": 740.1316406249971,
      "v": 127
    },
    {
      "midi": 43,
      "hit": false,
      "t": 89901.3232812499,
      "d": 756.5790104166663,
      "v": 127
    },
    {
      "midi": 67,
      "hit": false,
      "t": 89901.3232812499,
      "d": 756.5790104166663,
      "v": 127
    },
    {
      "midi": 62,
      "hit": false,
      "t": 89901.3232812499,
      "d": 763.1579583333369,
      "v": 127
    },
    {
      "midi": 67,
      "hit": false,
      "t": 90848.6917812499,
      "d": 1401.3159062500054,
      "v": 127
    },
    {
      "midi": 48,
      "hit": false,
      "t": 90848.6917812499,
      "d": 1411.184328125004,
      "v": 127
    },
    {
      "midi": 60,
      "hit": false,
      "t": 90848.6917812499,
      "d": 1411.184328125004,
      "v": 127
    },
    {
      "midi": 64,
      "hit": false,
      "t": 90848.6917812499,
      "d": 1417.7632760416745,
      "v": 127
    },
    {
      "midi": 67,
      "hit": false,
      "t": 92427.63928124991,
      "d": 822.3684895833285,
      "v": 127
    },
    {
      "midi": 60,
      "hit": false,
      "t": 92427.63928124991,
      "d": 828.9474374999991,
      "v": 127
    },
    {
      "midi": 64,
      "hit": false,
      "t": 92427.63928124991,
      "d": 848.6842812499963,
      "v": 127
    },
    {
      "midi": 48,
      "hit": false,
      "t": 92427.63928124991,
      "d": 875.0000729166641,
      "v": 127
    },
    {
      "midi": 69,
      "hit": false,
      "t": 93375.00778124991,
      "d": 1411.184328125004,
      "v": 127
    },
    {
      "midi": 62,
      "hit": false,
      "t": 93375.00778124991,
      "d": 1421.0527500000026,
      "v": 127
    },
    {
      "midi": 66,
      "hit": false,
      "t": 93375.00778124991,
      "d": 1421.0527500000026,
      "v": 127
    },
    {
      "midi": 50,
      "hit": false,
      "t": 93375.00778124991,
      "d": 1467.1053854166676,
      "v": 127
    },
    {
      "midi": 59,
      "hit": false,
      "t": 94953.9552812499,
      "d": 789.4737500000047,
      "v": 127
    },
    {
      "midi": 62,
      "hit": false,
      "t": 94953.9552812499,
      "d": 799.3421718750033,
      "v": 127
    },
    {
      "midi": 67,
      "hit": false,
      "t": 94953.9552812499,
      "d": 802.6316458333313,
      "v": 127
    },
    {
      "midi": 43,
      "hit": false,
      "t": 94953.9552812499,
      "d": 878.2895468749921,
      "v": 127
    },
    {
      "midi": 48,
      "hit": false,
      "t": 95901.3237812499,
      "d": 1421.0527500000026,
      "v": 127
    },
    {
      "midi": 60,
      "hit": false,
      "t": 95901.3237812499,
      "d": 1430.9211718750012,
      "v": 127
    },
    {
      "midi": 64,
      "hit": false,
      "t": 95901.3237812499,
      "d": 1430.9211718750012,
      "v": 127
    },
    {
      "midi": 67,
      "hit": false,
      "t": 95901.3237812499,
      "d": 1434.2106458333292,
      "v": 127
    },
    {
      "midi": 60,
      "hit": false,
      "t": 97480.2712812499,
      "d": 815.7895416666724,
      "v": 127
    },
    {
      "midi": 64,
      "hit": false,
      "t": 97480.2712812499,
      "d": 832.2369114583416,
      "v": 127
    },
    {
      "midi": 67,
      "hit": false,
      "t": 97480.2712812499,
      "d": 842.1053333333402,
      "v": 127
    },
    {
      "midi": 48,
      "hit": false,
      "t": 97480.2712812499,
      "d": 894.7369166666758,
      "v": 127
    },
    {
      "midi": 62,
      "hit": false,
      "t": 98427.6397812499,
      "d": 1394.7369583333348,
      "v": 127
    },
    {
      "midi": 69,
      "hit": false,
      "t": 98427.6397812499,
      "d": 1394.7369583333348,
      "v": 127
    },
    {
      "midi": 66,
      "hit": false,
      "t": 98427.6397812499,
      "d": 1398.0264322916628,
      "v": 127
    },
    {
      "midi": 50,
      "hit": false,
      "t": 98427.6397812499,
      "d": 1447.3685416666558,
      "v": 127
    },
    {
      "midi": 43,
      "hit": false,
      "t": 100006.5872812499,
      "d": 825.657963541671,
      "v": 127
    },
    {
      "midi": 59,
      "hit": false,
      "t": 100006.5872812499,
      "d": 848.6842812500108,
      "v": 127
    },
    {
      "midi": 67,
      "hit": false,
      "t": 100006.5872812499,
      "d": 875.0000729166786,
      "v": 127
    },
    {
      "midi": 62,
      "hit": false,
      "t": 100006.5872812499,
      "d": 881.5790208333492,
      "v": 127
    },
    {
      "midi": 60,
      "hit": false,
      "t": 100953.95578124991,
      "d": 1398.0264322916628,
      "v": 127
    },
    {
      "midi": 48,
      "hit": false,
      "t": 100953.95578124991,
      "d": 1401.3159062499908,
      "v": 127
    },
    {
      "midi": 64,
      "hit": false,
      "t": 100953.95578124991,
      "d": 1404.6053802083188,
      "v": 127
    },
    {
      "midi": 67,
      "hit": false,
      "t": 100953.95578124991,
      "d": 1417.7632760416454,
      "v": 127
    },
    {
      "midi": 60,
      "hit": false,
      "t": 102532.90328124989,
      "d": 799.3421718750033,
      "v": 127
    },
    {
      "midi": 64,
      "hit": false,
      "t": 102532.90328124989,
      "d": 815.7895416666724,
      "v": 127
    },
    {
      "midi": 67,
      "hit": false,
      "t": 102532.90328124989,
      "d": 815.7895416666724,
      "v": 127
    },
    {
      "midi": 48,
      "hit": false,
      "t": 102532.90328124989,
      "d": 865.1316510416655,
      "v": 127
    },
    {
      "midi": 69,
      "hit": false,
      "t": 103480.27178124989,
      "d": 1361.8422187499964,
      "v": 127
    },
    {
      "midi": 62,
      "hit": false,
      "t": 103480.27178124989,
      "d": 1378.2895885416656,
      "v": 127
    },
    {
      "midi": 66,
      "hit": false,
      "t": 103480.27178124989,
      "d": 1384.8685364583362,
      "v": 127
    },
    {
      "midi": 50,
      "hit": false,
      "t": 103480.27178124989,
      "d": 1414.473802083332,
      "v": 127
    },
    {
      "midi": 59,
      "hit": false,
      "t": 105059.21928124988,
      "d": 805.9211197916738,
      "v": 127
    },
    {
      "midi": 43,
      "hit": false,
      "t": 105059.21928124988,
      "d": 812.5000677083444,
      "v": 127
    },
    {
      "midi": 67,
      "hit": false,
      "t": 105059.21928124988,
      "d": 828.9474375000136,
      "v": 127
    },
    {
      "midi": 62,
      "hit": false,
      "t": 105059.21928124988,
      "d": 832.2369114583416,
      "v": 127
    },
    {
      "midi": 64,
      "hit": false,
      "t": 106006.5877812499,
      "d": 1371.710640624995,
      "v": 127
    },
    {
      "midi": 60,
      "hit": false,
      "t": 106006.5877812499,
      "d": 1427.6316979166586,
      "v": 127
    },
    {
      "midi": 67,
      "hit": false,
      "t": 106006.5877812499,
      "d": 1450.6580156249984,
      "v": 127
    },
    {
      "midi": 48,
      "hit": false,
      "t": 106006.5877812499,
      "d": 1493.4211770833354,
      "v": 127
    },
    {
      "midi": 64,
      "hit": false,
      "t": 107585.53528124989,
      "d": 286.18423437500314,
      "v": 127
    },
    {
      "midi": 67,
      "hit": false,
      "t": 107901.32478124989,
      "d": 325.65792187499756,
      "v": 127
    },
    {
      "midi": 69,
      "hit": false,
      "t": 108217.11428124989,
      "d": 217.10528124999837,
      "v": 127
    },
    {
      "midi": 69,
      "hit": false,
      "t": 108532.90378124989,
      "d": 23.026317708339775,
      "v": 127
    },
    {
      "midi": 43,
      "hit": false,
      "t": 108532.90378124989,
      "d": 1279.6053697916795,
      "v": 127
    },
    {
      "midi": 67,
      "hit": false,
      "t": 108532.90378124989,
      "d": 1279.6053697916795,
      "v": 127
    },
    {
      "midi": 64,
      "hit": false,
      "t": 110111.8512812499,
      "d": 782.8948020833341,
      "v": 127
    },
    {
      "midi": 67,
      "hit": false,
      "t": 110111.8512812499,
      "d": 782.8948020833341,
      "v": 127
    },
    {
      "midi": 60,
      "hit": false,
      "t": 110111.8512812499,
      "d": 792.7632239583327,
      "v": 127
    },
    {
      "midi": 48,
      "hit": false,
      "t": 110111.8512812499,
      "d": 805.9211197916593,
      "v": 127
    },
    {
      "midi": 59,
      "hit": false,
      "t": 111059.21978124989,
      "d": 1437.5001197916718,
      "v": 127
    },
    {
      "midi": 62,
      "hit": false,
      "t": 111059.21978124989,
      "d": 1463.8159114583395,
      "v": 127
    },
    {
      "midi": 67,
      "hit": false,
      "t": 111059.21978124989,
      "d": 1480.2632812500087,
      "v": 127
    },
    {
      "midi": 43,
      "hit": false,
      "t": 111059.21978124989,
      "d": 1506.5790729166765,
      "v": 127
    },
    {
      "midi": 60,
      "hit": false,
      "t": 112638.1672812499,
      "d": 763.1579583333369,
      "v": 127
    },
    {
      "midi": 48,
      "hit": false,
      "t": 112638.1672812499,
      "d": 769.7369062500075,
      "v": 127
    },
    {
      "midi": 67,
      "hit": false,
      "t": 112638.1672812499,
      "d": 773.0263802083355,
      "v": 127
    },
    {
      "midi": 64,
      "hit": false,
      "t": 112638.1672812499,
      "d": 776.3158541666635,
      "v": 127
    },
    {
      "midi": 59,
      "hit": false,
      "t": 113585.5357812499,
      "d": 1361.8422187499964,
      "v": 127
    },
    {
      "midi": 67,
      "hit": false,
      "t": 113585.5357812499,
      "d": 1375.000114583323,
      "v": 127
    },
    {
      "midi": 62,
      "hit": false,
      "t": 113585.5357812499,
      "d": 1378.289588541651,
      "v": 127
    },
    {
      "midi": 43,
      "hit": false,
      "t": 113585.5357812499,
      "d": 1434.2106458333146,
      "v": 127
    },
    {
      "midi": 71,
      "hit": false,
      "t": 115164.48328124988,
      "d": 184.21054166666,
      "v": 127
    },
    {
      "midi": 74,
      "hit": false,
      "t": 115164.48328124988,
      "d": 187.500015624988,
      "v": 127
    },
    {
      "midi": 67,
      "hit": false,
      "t": 115164.48328124988,
      "d": 190.78948958331603,
      "v": 127
    },
    {
      "midi": 64,
      "hit": false,
      "t": 117690.79928124986,
      "d": 743.4211145833397,
      "v": 127
    },
    {
      "midi": 67,
      "hit": false,
      "t": 117690.79928124986,
      "d": 750.0000625000102,
      "v": 127
    },
    {
      "midi": 71,
      "hit": false,
      "t": 117690.79928124986,
      "d": 750.0000625000102,
      "v": 127
    },
    {
      "midi": 62,
      "hit": false,
      "t": 118638.16778124987,
      "d": 1355.2632708333404,
      "v": 127
    },
    {
      "midi": 67,
      "hit": false,
      "t": 118638.16778124987,
      "d": 1361.842218750011,
      "v": 127
    },
    {
      "midi": 71,
      "hit": false,
      "t": 118638.16778124987,
      "d": 1378.2895885416801,
      "v": 127
    },
    {
      "midi": 64,
      "hit": false,
      "t": 120217.11528124988,
      "d": 759.8684843749943,
      "v": 127
    },
    {
      "midi": 71,
      "hit": false,
      "t": 120217.11528124988,
      "d": 769.7369062499929,
      "v": 127
    },
    {
      "midi": 67,
      "hit": false,
      "t": 120217.11528124988,
      "d": 773.0263802083209,
      "v": 127
    },
    {
      "midi": 62,
      "hit": false,
      "t": 121164.48378124986,
      "d": 1381.5790624999936,
      "v": 127
    },
    {
      "midi": 67,
      "hit": false,
      "t": 121164.48378124986,
      "d": 1388.1580104166642,
      "v": 127
    },
    {
      "midi": 71,
      "hit": false,
      "t": 121164.48378124986,
      "d": 1398.0264322916628,
      "v": 127
    },
    {
      "midi": 64,
      "hit": false,
      "t": 122743.43128124985,
      "d": 773.0263802083355,
      "v": 127
    },
    {
      "midi": 71,
      "hit": false,
      "t": 122743.43128124985,
      "d": 779.605328125006,
      "v": 127
    },
    {
      "midi": 67,
      "hit": false,
      "t": 122743.43128124985,
      "d": 792.7632239583327,
      "v": 127
    },
    {
      "midi": 62,
      "hit": false,
      "t": 123690.79978124985,
      "d": 1368.421166666667,
      "v": 127
    },
    {
      "midi": 71,
      "hit": false,
      "t": 123690.79978124985,
      "d": 1381.5790624999936,
      "v": 127
    },
    {
      "midi": 67,
      "hit": false,
      "t": 123690.79978124985,
      "d": 1388.1580104166642,
      "v": 127
    },
    {
      "midi": 64,
      "hit": false,
      "t": 125269.74728124985,
      "d": 717.1053229166719,
      "v": 127
    },
    {
      "midi": 71,
      "hit": false,
      "t": 125269.74728124985,
      "d": 723.6842708333425,
      "v": 127
    },
    {
      "midi": 67,
      "hit": false,
      "t": 125269.74728124985,
      "d": 733.552692708341,
      "v": 127
    },
    {
      "midi": 69,
      "hit": false,
      "t": 126217.11578124986,
      "d": 55.9210572916636,
      "v": 127
    },
    {
      "midi": 62,
      "hit": false,
      "t": 126217.11578124986,
      "d": 1371.710640624995,
      "v": 127
    },
    {
      "midi": 71,
      "hit": false,
      "t": 126217.11578124986,
      "d": 1404.6053802083334,
      "v": 127
    },
    {
      "midi": 67,
      "hit": false,
      "t": 126217.11578124986,
      "d": 1414.473802083332,
      "v": 127
    },
    {
      "midi": 64,
      "hit": false,
      "t": 127796.06328124985,
      "d": 766.4474322916649,
      "v": 127
    },
    {
      "midi": 71,
      "hit": false,
      "t": 127796.06328124985,
      "d": 789.4737500000047,
      "v": 127
    },
    {
      "midi": 67,
      "hit": false,
      "t": 127796.06328124985,
      "d": 799.3421718750033,
      "v": 127
    },
    {
      "midi": 62,
      "hit": false,
      "t": 128743.43178124985,
      "d": 1398.0264322916628,
      "v": 127
    },
    {
      "midi": 67,
      "hit": false,
      "t": 128743.43178124985,
      "d": 1411.1843281249894,
      "v": 127
    },
    {
      "midi": 71,
      "hit": false,
      "t": 128743.43178124985,
      "d": 1427.6316979166586,
      "v": 127
    },
    {
      "midi": 64,
      "hit": false,
      "t": 130322.37928124984,
      "d": 743.4211145833397,
      "v": 127
    },
    {
      "midi": 71,
      "hit": false,
      "t": 130322.37928124984,
      "d": 753.2895364583383,
      "v": 127
    },
    {
      "midi": 67,
      "hit": false,
      "t": 130322.37928124984,
      "d": 766.4474322916794,
      "v": 127
    },
    {
      "midi": 62,
      "hit": false,
      "t": 131269.74778124987,
      "d": 1430.9211718750012,
      "v": 127
    },
    {
      "midi": 67,
      "hit": false,
      "t": 131269.74778124987,
      "d": 1470.3948593749956,
      "v": 127
    },
    {
      "midi": 71,
      "hit": false,
      "t": 131269.74778124987,
      "d": 1473.6843333333381,
      "v": 127
    },
    {
      "midi": 64,
      "hit": false,
      "t": 132848.69528124988,
      "d": 769.7369062500075,
      "v": 127
    },
    {
      "midi": 71,
      "hit": false,
      "t": 132848.69528124988,
      "d": 799.3421718750033,
      "v": 127
    },
    {
      "midi": 67,
      "hit": false,
      "t": 132848.69528124988,
      "d": 802.6316458333458,
      "v": 127
    },
    {
      "midi": 62,
      "hit": false,
      "t": 133796.0637812499,
      "d": 1437.5001197916572,
      "v": 127
    },
    {
      "midi": 67,
      "hit": false,
      "t": 133796.0637812499,
      "d": 1460.526437499997,
      "v": 127
    },
    {
      "midi": 71,
      "hit": false,
      "t": 133796.0637812499,
      "d": 1467.105385416653,
      "v": 127
    },
    {
      "midi": 64,
      "hit": false,
      "t": 135375.01128124987,
      "d": 763.1579583333223,
      "v": 127
    },
    {
      "midi": 71,
      "hit": false,
      "t": 135375.01128124987,
      "d": 779.605328124977,
      "v": 127
    },
    {
      "midi": 67,
      "hit": false,
      "t": 135375.01128124987,
      "d": 789.4737499999756,
      "v": 127
    },
    {
      "midi": 62,
      "hit": false,
      "t": 136322.37978124985,
      "d": 1302.6316874999902,
      "v": 127
    },
    {
      "midi": 71,
      "hit": false,
      "t": 136322.37978124985,
      "d": 1328.9474791666435,
      "v": 127
    },
    {
      "midi": 67,
      "hit": false,
      "t": 136322.37978124985,
      "d": 1338.815901041642,
      "v": 127
    },
    {
      "midi": 67,
      "hit": false,
      "t": 137901.32728124983,
      "d": 404.60529687500093,
      "v": 127
    },
    {
      "midi": 55,
      "hit": false,
      "t": 137901.32728124983,
      "d": 417.7631927083421,
      "v": 127
    },
    {
      "midi": 54,
      "hit": false,
      "t": 138375.01153124985,
      "d": 424.34214062499814,
      "v": 127
    },
    {
      "midi": 66,
      "hit": false,
      "t": 138375.01153124985,
      "d": 424.34214062499814,
      "v": 127
    },
    {
      "midi": 64,
      "hit": false,
      "t": 138848.69578124984,
      "d": 325.6579218750121,
      "v": 127
    },
    {
      "midi": 52,
      "hit": false,
      "t": 138848.69578124984,
      "d": 335.5263437500107,
      "v": 127
    },
    {
      "midi": 67,
      "hit": false,
      "t": 139164.48528124986,
      "d": 463.81582812499255,
      "v": 127
    },
    {
      "midi": 55,
      "hit": false,
      "t": 139164.48528124986,
      "d": 476.9737239583337,
      "v": 127
    },
    {
      "midi": 54,
      "hit": false,
      "t": 139638.16953124985,
      "d": 401.31582291668747,
      "v": 127
    },
    {
      "midi": 66,
      "hit": false,
      "t": 139638.16953124985,
      "d": 427.6316145833407,
      "v": 127
    },
    {
      "midi": 52,
      "hit": false,
      "t": 140111.85378124987,
      "d": 315.7895000000135,
      "v": 127
    },
    {
      "midi": 64,
      "hit": false,
      "t": 140111.85378124987,
      "d": 325.6579218750121,
      "v": 127
    },
    {
      "midi": 67,
      "hit": false,
      "t": 140427.64328124988,
      "d": 493.42109374998836,
      "v": 127
    },
    {
      "midi": 55,
      "hit": false,
      "t": 140427.64328124988,
      "d": 500.0000416666444,
      "v": 127
    },
    {
      "midi": 54,
      "hit": false,
      "t": 140901.32753124987,
      "d": 414.47371874999953,
      "v": 127
    },
    {
      "midi": 66,
      "hit": false,
      "t": 140901.32753124987,
      "d": 450.6579322916805,
      "v": 127
    },
    {
      "midi": 52,
      "hit": false,
      "t": 141375.0117812499,
      "d": 319.0789739583561,
      "v": 127
    },
    {
      "midi": 64,
      "hit": false,
      "t": 141375.0117812499,
      "d": 335.5263437500107,
      "v": 127
    },
    {
      "midi": 67,
      "hit": false,
      "t": 141690.8012812499,
      "d": 463.81582812499255,
      "v": 127
    },
    {
      "midi": 55,
      "hit": false,
      "t": 141690.8012812499,
      "d": 470.3947760416486,
      "v": 127
    },
    {
      "midi": 64,
      "hit": false,
      "t": 142164.4855312499,
      "d": 434.21056249999674,
      "v": 127
    },
    {
      "midi": 52,
      "hit": false,
      "t": 142164.4855312499,
      "d": 457.2368802083365,
      "v": 127
    },
    {
      "midi": 67,
      "hit": false,
      "t": 142638.1697812499,
      "d": 299.34213020832976,
      "v": 127
    },
    {
      "midi": 55,
      "hit": false,
      "t": 142638.1697812499,
      "d": 309.21055208332837,
      "v": 127
    },
    {
      "midi": 69,
      "hit": false,
      "t": 142953.95928124987,
      "d": 2101.9738593749935,
      "v": 127
    },
    {
      "midi": 57,
      "hit": false,
      "t": 142953.95928124987,
      "d": 2144.7370208333305,
      "v": 127
    },
    {
      "midi": 59,
      "hit": false,
      "t": 145480.27528124987,
      "d": 740.1316406250116,
      "v": 127
    },
    {
      "midi": 43,
      "hit": false,
      "t": 145480.27528124987,
      "d": 756.5790104166663,
      "v": 127
    },
    {
      "midi": 67,
      "hit": false,
      "t": 145480.27528124987,
      "d": 756.5790104166663,
      "v": 127
    },
    {
      "midi": 62,
      "hit": false,
      "t": 145480.27528124987,
      "d": 763.1579583333223,
      "v": 127
    },
    {
      "midi": 67,
      "hit": false,
      "t": 146427.64378124985,
      "d": 1401.3159062500054,
      "v": 127
    },
    {
      "midi": 48,
      "hit": false,
      "t": 146427.64378124985,
      "d": 1411.184328125004,
      "v": 127
    },
    {
      "midi": 60,
      "hit": false,
      "t": 146427.64378124985,
      "d": 1411.184328125004,
      "v": 127
    },
    {
      "midi": 64,
      "hit": false,
      "t": 146427.64378124985,
      "d": 1417.76327604166,
      "v": 127
    },
    {
      "midi": 67,
      "hit": false,
      "t": 148006.59128124983,
      "d": 822.368489583343,
      "v": 127
    },
    {
      "midi": 60,
      "hit": false,
      "t": 148006.59128124983,
      "d": 828.9474374999991,
      "v": 127
    },
    {
      "midi": 64,
      "hit": false,
      "t": 148006.59128124983,
      "d": 848.6842812499963,
      "v": 127
    },
    {
      "midi": 48,
      "hit": false,
      "t": 148006.59128124983,
      "d": 875.0000729166495,
      "v": 127
    },
    {
      "midi": 69,
      "hit": false,
      "t": 148953.9597812498,
      "d": 1411.184328125004,
      "v": 127
    },
    {
      "midi": 62,
      "hit": false,
      "t": 148953.9597812498,
      "d": 1421.0527500000026,
      "v": 127
    },
    {
      "midi": 66,
      "hit": false,
      "t": 148953.9597812498,
      "d": 1421.0527500000026,
      "v": 127
    },
    {
      "midi": 50,
      "hit": false,
      "t": 148953.9597812498,
      "d": 1467.105385416682,
      "v": 127
    },
    {
      "midi": 59,
      "hit": false,
      "t": 150532.90728124982,
      "d": 789.4737500000047,
      "v": 127
    },
    {
      "midi": 62,
      "hit": false,
      "t": 150532.90728124982,
      "d": 799.3421718750033,
      "v": 127
    },
    {
      "midi": 67,
      "hit": false,
      "t": 150532.90728124982,
      "d": 802.6316458333458,
      "v": 127
    },
    {
      "midi": 43,
      "hit": false,
      "t": 150532.90728124982,
      "d": 878.2895468750212,
      "v": 127
    },
    {
      "midi": 48,
      "hit": false,
      "t": 151480.27578124983,
      "d": 1421.0527500000026,
      "v": 127
    },
    {
      "midi": 60,
      "hit": false,
      "t": 151480.27578124983,
      "d": 1430.9211718750012,
      "v": 127
    },
    {
      "midi": 64,
      "hit": false,
      "t": 151480.27578124983,
      "d": 1430.9211718750012,
      "v": 127
    },
    {
      "midi": 67,
      "hit": false,
      "t": 151480.27578124983,
      "d": 1434.2106458333437,
      "v": 127
    },
    {
      "midi": 60,
      "hit": false,
      "t": 153059.22328124984,
      "d": 815.7895416666579,
      "v": 127
    },
    {
      "midi": 64,
      "hit": false,
      "t": 153059.22328124984,
      "d": 832.2369114583125,
      "v": 127
    },
    {
      "midi": 67,
      "hit": false,
      "t": 153059.22328124984,
      "d": 842.1053333333111,
      "v": 127
    },
    {
      "midi": 48,
      "hit": false,
      "t": 153059.22328124984,
      "d": 894.7369166666467,
      "v": 127
    },
    {
      "midi": 62,
      "hit": false,
      "t": 154006.59178124982,
      "d": 1394.7369583333202,
      "v": 127
    },
    {
      "midi": 69,
      "hit": false,
      "t": 154006.59178124982,
      "d": 1394.7369583333202,
      "v": 127
    },
    {
      "midi": 66,
      "hit": false,
      "t": 154006.59178124982,
      "d": 1398.0264322916628,
      "v": 127
    },
    {
      "midi": 50,
      "hit": false,
      "t": 154006.59178124982,
      "d": 1447.3685416666558,
      "v": 127
    },
    {
      "midi": 43,
      "hit": false,
      "t": 155585.5392812498,
      "d": 825.6579635416565,
      "v": 127
    },
    {
      "midi": 59,
      "hit": false,
      "t": 155585.5392812498,
      "d": 848.6842812499963,
      "v": 127
    },
    {
      "midi": 67,
      "hit": false,
      "t": 155585.5392812498,
      "d": 875.0000729166495,
      "v": 127
    },
    {
      "midi": 62,
      "hit": false,
      "t": 155585.5392812498,
      "d": 881.5790208333055,
      "v": 127
    },
    {
      "midi": 60,
      "hit": false,
      "t": 156532.90778124979,
      "d": 1398.0264322916628,
      "v": 127
    },
    {
      "midi": 48,
      "hit": false,
      "t": 156532.90778124979,
      "d": 1401.3159062500054,
      "v": 127
    },
    {
      "midi": 64,
      "hit": false,
      "t": 156532.90778124979,
      "d": 1404.605380208348,
      "v": 127
    },
    {
      "midi": 67,
      "hit": false,
      "t": 156532.90778124979,
      "d": 1417.763276041689,
      "v": 127
    },
    {
      "midi": 60,
      "hit": false,
      "t": 158111.8552812498,
      "d": 799.3421718750033,
      "v": 127
    },
    {
      "midi": 64,
      "hit": false,
      "t": 158111.8552812498,
      "d": 815.7895416666579,
      "v": 127
    },
    {
      "midi": 67,
      "hit": false,
      "t": 158111.8552812498,
      "d": 815.7895416666579,
      "v": 127
    },
    {
      "midi": 48,
      "hit": false,
      "t": 158111.8552812498,
      "d": 865.1316510416509,
      "v": 127
    },
    {
      "midi": 69,
      "hit": false,
      "t": 159059.22378124978,
      "d": 1361.842218750011,
      "v": 127
    },
    {
      "midi": 62,
      "hit": false,
      "t": 159059.22378124978,
      "d": 1378.2895885416656,
      "v": 127
    },
    {
      "midi": 66,
      "hit": false,
      "t": 159059.22378124978,
      "d": 1384.8685364583216,
      "v": 127
    },
    {
      "midi": 50,
      "hit": false,
      "t": 159059.22378124978,
      "d": 1414.4738020833174,
      "v": 127
    },
    {
      "midi": 59,
      "hit": false,
      "t": 160638.17128124976,
      "d": 805.9211197916593,
      "v": 127
    },
    {
      "midi": 43,
      "hit": false,
      "t": 160638.17128124976,
      "d": 812.5000677083153,
      "v": 127
    },
    {
      "midi": 67,
      "hit": false,
      "t": 160638.17128124976,
      "d": 828.94743749997,
      "v": 127
    },
    {
      "midi": 62,
      "hit": false,
      "t": 160638.17128124976,
      "d": 832.2369114583125,
      "v": 127
    },
    {
      "midi": 64,
      "hit": false,
      "t": 161585.53978124974,
      "d": 1371.7106406250095,
      "v": 127
    },
    {
      "midi": 60,
      "hit": false,
      "t": 161585.53978124974,
      "d": 1427.6316979166877,
      "v": 127
    },
    {
      "midi": 67,
      "hit": false,
      "t": 161585.53978124974,
      "d": 1450.6580156250275,
      "v": 127
    },
    {
      "midi": 48,
      "hit": false,
      "t": 161585.53978124974,
      "d": 1493.4211770833645,
      "v": 127
    },
    {
      "midi": 64,
      "hit": false,
      "t": 163164.48728124978,
      "d": 286.1842343749886,
      "v": 127
    },
    {
      "midi": 67,
      "hit": false,
      "t": 163480.27678124976,
      "d": 325.6579218750121,
      "v": 127
    },
    {
      "midi": 69,
      "hit": false,
      "t": 163796.06628124978,
      "d": 217.10528124999837,
      "v": 127
    },
    {
      "midi": 69,
      "hit": false,
      "t": 164111.85578124976,
      "d": 23.026317708339775,
      "v": 127
    },
    {
      "midi": 43,
      "hit": false,
      "t": 164111.85578124976,
      "d": 1279.6053697916795,
      "v": 127
    },
    {
      "midi": 67,
      "hit": false,
      "t": 164111.85578124976,
      "d": 1279.6053697916795,
      "v": 127
    },
    {
      "midi": 59,
      "hit": false,
      "t": 165690.80328124977,
      "d": 740.1316406250116,
      "v": 127
    },
    {
      "midi": 43,
      "hit": false,
      "t": 165690.80328124977,
      "d": 756.5790104166663,
      "v": 127
    },
    {
      "midi": 67,
      "hit": false,
      "t": 165690.80328124977,
      "d": 756.5790104166663,
      "v": 127
    },
    {
      "midi": 62,
      "hit": false,
      "t": 165690.80328124977,
      "d": 763.1579583333223,
      "v": 127
    },
    {
      "midi": 67,
      "hit": false,
      "t": 166638.17178124975,
      "d": 1401.3159062500054,
      "v": 127
    },
    {
      "midi": 48,
      "hit": false,
      "t": 166638.17178124975,
      "d": 1411.184328125004,
      "v": 127
    },
    {
      "midi": 60,
      "hit": false,
      "t": 166638.17178124975,
      "d": 1411.184328125004,
      "v": 127
    },
    {
      "midi": 64,
      "hit": false,
      "t": 166638.17178124975,
      "d": 1417.76327604166,
      "v": 127
    },
    {
      "midi": 67,
      "hit": false,
      "t": 168217.11928124973,
      "d": 822.368489583343,
      "v": 127
    },
    {
      "midi": 60,
      "hit": false,
      "t": 168217.11928124973,
      "d": 828.9474374999991,
      "v": 127
    },
    {
      "midi": 64,
      "hit": false,
      "t": 168217.11928124973,
      "d": 848.6842812499963,
      "v": 127
    },
    {
      "midi": 48,
      "hit": false,
      "t": 168217.11928124973,
      "d": 875.0000729166495,
      "v": 127
    },
    {
      "midi": 69,
      "hit": false,
      "t": 169164.4877812497,
      "d": 1411.184328125004,
      "v": 127
    },
    {
      "midi": 62,
      "hit": false,
      "t": 169164.4877812497,
      "d": 1421.0527500000026,
      "v": 127
    },
    {
      "midi": 66,
      "hit": false,
      "t": 169164.4877812497,
      "d": 1421.0527500000026,
      "v": 127
    },
    {
      "midi": 50,
      "hit": false,
      "t": 169164.4877812497,
      "d": 1467.105385416682,
      "v": 127
    },
    {
      "midi": 59,
      "hit": false,
      "t": 170743.43528124972,
      "d": 789.4737500000047,
      "v": 127
    },
    {
      "midi": 62,
      "hit": false,
      "t": 170743.43528124972,
      "d": 799.3421718750033,
      "v": 127
    },
    {
      "midi": 67,
      "hit": false,
      "t": 170743.43528124972,
      "d": 802.6316458333458,
      "v": 127
    },
    {
      "midi": 43,
      "hit": false,
      "t": 170743.43528124972,
      "d": 878.2895468750212,
      "v": 127
    },
    {
      "midi": 48,
      "hit": false,
      "t": 171690.80378124974,
      "d": 1421.0527500000026,
      "v": 127
    },
    {
      "midi": 60,
      "hit": false,
      "t": 171690.80378124974,
      "d": 1430.9211718750012,
      "v": 127
    },
    {
      "midi": 64,
      "hit": false,
      "t": 171690.80378124974,
      "d": 1430.9211718750012,
      "v": 127
    },
    {
      "midi": 67,
      "hit": false,
      "t": 171690.80378124974,
      "d": 1434.2106458333437,
      "v": 127
    },
    {
      "midi": 60,
      "hit": false,
      "t": 173269.75128124974,
      "d": 815.7895416666579,
      "v": 127
    },
    {
      "midi": 64,
      "hit": false,
      "t": 173269.75128124974,
      "d": 832.2369114583125,
      "v": 127
    },
    {
      "midi": 67,
      "hit": false,
      "t": 173269.75128124974,
      "d": 842.1053333333111,
      "v": 127
    },
    {
      "midi": 48,
      "hit": false,
      "t": 173269.75128124974,
      "d": 894.7369166666467,
      "v": 127
    },
    {
      "midi": 62,
      "hit": false,
      "t": 174217.11978124973,
      "d": 1394.7369583333202,
      "v": 127
    },
    {
      "midi": 69,
      "hit": false,
      "t": 174217.11978124973,
      "d": 1394.7369583333202,
      "v": 127
    },
    {
      "midi": 66,
      "hit": false,
      "t": 174217.11978124973,
      "d": 1398.0264322916628,
      "v": 127
    },
    {
      "midi": 50,
      "hit": false,
      "t": 174217.11978124973,
      "d": 1447.3685416666558,
      "v": 127
    },
    {
      "midi": 43,
      "hit": false,
      "t": 175796.0672812497,
      "d": 825.6579635416565,
      "v": 127
    },
    {
      "midi": 59,
      "hit": false,
      "t": 175796.0672812497,
      "d": 848.6842812499963,
      "v": 127
    },
    {
      "midi": 67,
      "hit": false,
      "t": 175796.0672812497,
      "d": 875.0000729166495,
      "v": 127
    },
    {
      "midi": 62,
      "hit": false,
      "t": 175796.0672812497,
      "d": 881.5790208333055,
      "v": 127
    },
    {
      "midi": 60,
      "hit": false,
      "t": 176743.4357812497,
      "d": 1398.0264322916628,
      "v": 127
    },
    {
      "midi": 48,
      "hit": false,
      "t": 176743.4357812497,
      "d": 1401.3159062500054,
      "v": 127
    },
    {
      "midi": 64,
      "hit": false,
      "t": 176743.4357812497,
      "d": 1404.605380208348,
      "v": 127
    },
    {
      "midi": 67,
      "hit": false,
      "t": 176743.4357812497,
      "d": 1417.763276041689,
      "v": 127
    },
    {
      "midi": 60,
      "hit": false,
      "t": 178322.3832812497,
      "d": 799.3421718750033,
      "v": 127
    },
    {
      "midi": 64,
      "hit": false,
      "t": 178322.3832812497,
      "d": 815.7895416666579,
      "v": 127
    },
    {
      "midi": 67,
      "hit": false,
      "t": 178322.3832812497,
      "d": 815.7895416666579,
      "v": 127
    },
    {
      "midi": 48,
      "hit": false,
      "t": 178322.3832812497,
      "d": 865.1316510416509,
      "v": 127
    },
    {
      "midi": 69,
      "hit": false,
      "t": 179269.75178124968,
      "d": 1361.842218750011,
      "v": 127
    },
    {
      "midi": 62,
      "hit": false,
      "t": 179269.75178124968,
      "d": 1378.2895885416656,
      "v": 127
    },
    {
      "midi": 66,
      "hit": false,
      "t": 179269.75178124968,
      "d": 1384.8685364583216,
      "v": 127
    },
    {
      "midi": 50,
      "hit": false,
      "t": 179269.75178124968,
      "d": 1414.4738020833174,
      "v": 127
    },
    {
      "midi": 59,
      "hit": false,
      "t": 180848.69928124966,
      "d": 805.9211197916593,
      "v": 127
    },
    {
      "midi": 43,
      "hit": false,
      "t": 180848.69928124966,
      "d": 812.5000677083153,
      "v": 127
    },
    {
      "midi": 67,
      "hit": false,
      "t": 180848.69928124966,
      "d": 828.94743749997,
      "v": 127
    },
    {
      "midi": 62,
      "hit": false,
      "t": 180848.69928124966,
      "d": 832.2369114583125,
      "v": 127
    },
    {
      "midi": 64,
      "hit": false,
      "t": 181796.06778124964,
      "d": 1371.7106406250095,
      "v": 127
    },
    {
      "midi": 60,
      "hit": false,
      "t": 181796.06778124964,
      "d": 1427.6316979166877,
      "v": 127
    },
    {
      "midi": 67,
      "hit": false,
      "t": 181796.06778124964,
      "d": 1450.6580156250275,
      "v": 127
    },
    {
      "midi": 48,
      "hit": false,
      "t": 181796.06778124964,
      "d": 1493.4211770833645,
      "v": 127
    },
    {
      "midi": 64,
      "hit": false,
      "t": 183375.01528124968,
      "d": 286.1842343749886,
      "v": 127
    },
    {
      "midi": 67,
      "hit": false,
      "t": 183690.80478124967,
      "d": 325.6579218750121,
      "v": 127
    },
    {
      "midi": 69,
      "hit": false,
      "t": 184006.59428124968,
      "d": 217.10528124999837,
      "v": 127
    },
    {
      "midi": 69,
      "hit": false,
      "t": 184322.38378124966,
      "d": 23.026317708339775,
      "v": 127
    },
    {
      "midi": 43,
      "hit": false,
      "t": 184322.38378124966,
      "d": 1578.9475000000093,
      "v": 127
    },
    {
      "midi": 67,
      "hit": false,
      "t": 184322.38378124966,
      "d": 1578.9475000000093,
      "v": 127
    }
  ]
}