{
  "jsonPath": "Religious/Christian Relaxative/Stan Whitmire/because-you-loved-me.json",
  "path": "Religious\\Christian Relaxative\\Stan Whitmire\\Because You Loved Me.mid",
  "name": "Because You Loved Me",
  "difficulty": "Advanced",
  "bpm": 61.00003456668625,
  "notes": [
    {
      "midi": 25,
      "hit": false,
      "t": 3924.178104166667,
      "d": 1157.7862291666665,
      "v": 98
    },
    {
      "midi": 61,
      "hit": false,
      "t": 3924.178104166667,
      "d": 2100.4086458333336,
      "v": 93
    },
    {
      "midi": 56,
      "hit": false,
      "t": 3924.178104166667,
      "d": 2120.9004375,
      "v": 73
    },
    {
      "midi": 53,
      "hit": false,
      "t": 3924.178104166667,
      "d": 2141.3922291666663,
      "v": 90
    },
    {
      "midi": 37,
      "hit": false,
      "t": 3934.424,
      "d": 1209.0157083333334,
      "v": 98
    },
    {
      "midi": 25,
      "hit": false,
      "t": 5399.587104166667,
      "d": 1813.5235624999987,
      "v": 98
    },
    {
      "midi": 37,
      "hit": false,
      "t": 5399.587104166667,
      "d": 1895.490729166665,
      "v": 98
    },
    {
      "midi": 53,
      "hit": false,
      "t": 6383.193104166667,
      "d": 440.5735208333326,
      "v": 76
    },
    {
      "midi": 56,
      "hit": false,
      "t": 6393.439,
      "d": 153.68843749999996,
      "v": 55
    },
    {
      "midi": 56,
      "hit": false,
      "t": 6629.094604166667,
      "d": 81.96716666666634,
      "v": 55
    },
    {
      "midi": 61,
      "hit": false,
      "t": 6629.094604166667,
      "d": 163.9343333333327,
      "v": 90
    },
    {
      "midi": 63,
      "hit": false,
      "t": 7131.143499999999,
      "d": 174.18022916666632,
      "v": 100
    },
    {
      "midi": 30,
      "hit": false,
      "t": 7858.602104166666,
      "d": 1168.0321249999997,
      "v": 98
    },
    {
      "midi": 58,
      "hit": false,
      "t": 7858.602104166666,
      "d": 2079.916854166666,
      "v": 93
    },
    {
      "midi": 42,
      "hit": false,
      "t": 7868.848,
      "d": 1209.0157083333324,
      "v": 98
    },
    {
      "midi": 61,
      "hit": false,
      "t": 7868.848,
      "d": 2079.916854166666,
      "v": 77
    },
    {
      "midi": 54,
      "hit": false,
      "t": 7868.848,
      "d": 2192.621708333332,
      "v": 74
    },
    {
      "midi": 30,
      "hit": false,
      "t": 9334.011104166666,
      "d": 1834.0153541666696,
      "v": 98
    },
    {
      "midi": 42,
      "hit": false,
      "t": 9334.011104166666,
      "d": 1885.244833333336,
      "v": 98
    },
    {
      "midi": 54,
      "hit": false,
      "t": 10327.863,
      "d": 92.21306250000089,
      "v": 48
    },
    {
      "midi": 58,
      "hit": false,
      "t": 10327.863,
      "d": 92.21306250000089,
      "v": 51
    },
    {
      "midi": 54,
      "hit": false,
      "t": 10573.764500000001,
      "d": 133.1966458333336,
      "v": 44
    },
    {
      "midi": 61,
      "hit": false,
      "t": 10573.764500000001,
      "d": 143.44254166666724,
      "v": 93
    },
    {
      "midi": 63,
      "hit": false,
      "t": 11065.567500000001,
      "d": 92.21306250000089,
      "v": 97
    },
    {
      "midi": 58,
      "hit": false,
      "t": 11793.026104166669,
      "d": 2581.965750000001,
      "v": 69
    },
    {
      "midi": 65,
      "hit": false,
      "t": 11793.026104166669,
      "d": 2581.965750000001,
      "v": 88
    },
    {
      "midi": 34,
      "hit": false,
      "t": 11803.272000000003,
      "d": 1168.0321249999997,
      "v": 98
    },
    {
      "midi": 46,
      "hit": false,
      "t": 11803.272000000003,
      "d": 1198.7698125000006,
      "v": 98
    },
    {
      "midi": 56,
      "hit": false,
      "t": 11803.272000000003,
      "d": 2438.523208333334,
      "v": 49
    },
    {
      "midi": 61,
      "hit": false,
      "t": 11803.272000000003,
      "d": 2469.260895833335,
      "v": 99
    },
    {
      "midi": 46,
      "hit": false,
      "t": 13268.43510416667,
      "d": 1854.5071458333332,
      "v": 98
    },
    {
      "midi": 34,
      "hit": false,
      "t": 13278.681000000004,
      "d": 1854.5071458333332,
      "v": 98
    },
    {
      "midi": 65,
      "hit": false,
      "t": 14497.94260416667,
      "d": 133.1966458333336,
      "v": 76
    },
    {
      "midi": 65,
      "hit": false,
      "t": 14999.991500000004,
      "d": 81.96716666666725,
      "v": 84
    },
    {
      "midi": 56,
      "hit": false,
      "t": 14999.991500000004,
      "d": 122.95074999999997,
      "v": 55
    },
    {
      "midi": 32,
      "hit": false,
      "t": 15727.450104166672,
      "d": 1157.786229166666,
      "v": 98
    },
    {
      "midi": 44,
      "hit": false,
      "t": 15727.450104166672,
      "d": 1209.0157083333343,
      "v": 98
    },
    {
      "midi": 61,
      "hit": false,
      "t": 15727.450104166672,
      "d": 2274.588875000003,
      "v": 69
    },
    {
      "midi": 65,
      "hit": false,
      "t": 15737.696000000005,
      "d": 1188.523916666667,
      "v": 62
    },
    {
      "midi": 58,
      "hit": false,
      "t": 15737.696000000005,
      "d": 2223.359395833335,
      "v": 93
    },
    {
      "midi": 54,
      "hit": false,
      "t": 15737.696000000005,
      "d": 3299.1784583333374,
      "v": 58
    },
    {
      "midi": 44,
      "hit": false,
      "t": 17202.859104166673,
      "d": 1895.4907291666714,
      "v": 98
    },
    {
      "midi": 63,
      "hit": false,
      "t": 17213.105000000007,
      "d": 1188.5239166666688,
      "v": 62
    },
    {
      "midi": 32,
      "hit": false,
      "t": 17213.105000000007,
      "d": 1895.4907291666714,
      "v": 98
    },
    {
      "midi": 61,
      "hit": false,
      "t": 18432.366604166677,
      "d": 368.8522499999999,
      "v": 75
    },
    {
      "midi": 61,
      "hit": false,
      "t": 18934.41550000001,
      "d": 102.4589583333327,
      "v": 51
    },
    {
      "midi": 63,
      "hit": false,
      "t": 18934.41550000001,
      "d": 112.70485416666634,
      "v": 74
    },
    {
      "midi": 29,
      "hit": false,
      "t": 19661.87410416668,
      "d": 1116.8026458333334,
      "v": 98
    },
    {
      "midi": 41,
      "hit": false,
      "t": 19661.87410416668,
      "d": 1168.0321250000015,
      "v": 98
    },
    {
      "midi": 56,
      "hit": false,
      "t": 19661.87410416668,
      "d": 2377.0478333333376,
      "v": 52
    },
    {
      "midi": 60,
      "hit": false,
      "t": 19661.87410416668,
      "d": 2469.2608958333367,
      "v": 85
    },
    {
      "midi": 68,
      "hit": false,
      "t": 19661.87410416668,
      "d": 2663.9329166666685,
      "v": 56
    },
    {
      "midi": 63,
      "hit": false,
      "t": 19672.120000000014,
      "d": 2459.015000000003,
      "v": 85
    },
    {
      "midi": 29,
      "hit": false,
      "t": 21137.283104166683,
      "d": 1782.7858750000014,
      "v": 98
    },
    {
      "midi": 41,
      "hit": false,
      "t": 21137.283104166683,
      "d": 1803.2776666666687,
      "v": 98
    },
    {
      "midi": 56,
      "hit": false,
      "t": 22120.889104166683,
      "d": 829.9175625000025,
      "v": 49
    },
    {
      "midi": 60,
      "hit": false,
      "t": 22366.790604166683,
      "d": 543.032479166668,
      "v": 84
    },
    {
      "midi": 63,
      "hit": false,
      "t": 22868.839500000016,
      "d": 122.95075000000361,
      "v": 78
    },
    {
      "midi": 42,
      "hit": false,
      "t": 23596.298104166686,
      "d": 1188.5239166666688,
      "v": 98
    },
    {
      "midi": 65,
      "hit": false,
      "t": 23596.298104166686,
      "d": 1547.130270833335,
      "v": 92
    },
    {
      "midi": 58,
      "hit": false,
      "t": 23596.298104166686,
      "d": 2397.5396250000013,
      "v": 57
    },
    {
      "midi": 30,
      "hit": false,
      "t": 23606.54400000002,
      "d": 1157.786229166668,
      "v": 98
    },
    {
      "midi": 61,
      "hit": false,
      "t": 23606.54400000002,
      "d": 2346.310145833333,
      "v": 91
    },
    {
      "midi": 68,
      "hit": false,
      "t": 23606.54400000002,
      "d": 2407.785520833335,
      "v": 53
    },
    {
      "midi": 30,
      "hit": false,
      "t": 25071.70710416669,
      "d": 1905.7366250000014,
      "v": 98
    },
    {
      "midi": 42,
      "hit": false,
      "t": 25071.70710416669,
      "d": 1956.9661041666695,
      "v": 98
    },
    {
      "midi": 58,
      "hit": false,
      "t": 26311.460500000023,
      "d": 584.016062499999,
      "v": 83
    },
    {
      "midi": 61,
      "hit": false,
      "t": 26793.01760416669,
      "d": 122.95074999999997,
      "v": 100
    },
    {
      "midi": 44,
      "hit": false,
      "t": 27530.722104166693,
      "d": 1219.261604166666,
      "v": 98
    },
    {
      "midi": 54,
      "hit": false,
      "t": 27530.722104166693,
      "d": 2961.0638958333366,
      "v": 49
    },
    {
      "midi": 61,
      "hit": false,
      "t": 27530.722104166693,
      "d": 2961.0638958333366,
      "v": 74
    },
    {
      "midi": 58,
      "hit": false,
      "t": 27530.722104166693,
      "d": 2971.30979166667,
      "v": 74
    },
    {
      "midi": 63,
      "hit": false,
      "t": 27530.722104166693,
      "d": 3002.047479166671,
      "v": 59
    },
    {
      "midi": 32,
      "hit": false,
      "t": 27540.968000000026,
      "d": 1178.2780208333315,
      "v": 98
    },
    {
      "midi": 32,
      "hit": false,
      "t": 29016.377000000026,
      "d": 1413.9336250000015,
      "v": 98
    },
    {
      "midi": 44,
      "hit": false,
      "t": 29016.377000000026,
      "d": 1444.6713125000024,
      "v": 98
    },
    {
      "midi": 58,
      "hit": false,
      "t": 30727.441604166695,
      "d": 133.1966458333336,
      "v": 83
    },
    {
      "midi": 54,
      "hit": false,
      "t": 30727.441604166695,
      "d": 163.9343333333345,
      "v": 62
    },
    {
      "midi": 44,
      "hit": false,
      "t": 30737.68750000003,
      "d": 112.70485416666634,
      "v": 98
    },
    {
      "midi": 32,
      "hit": false,
      "t": 30737.68750000003,
      "d": 143.44254166666724,
      "v": 98
    },
    {
      "midi": 61,
      "hit": false,
      "t": 30737.68750000003,
      "d": 163.9343333333345,
      "v": 85
    },
    {
      "midi": 63,
      "hit": false,
      "t": 30737.68750000003,
      "d": 194.6720208333354,
      "v": 79
    },
    {
      "midi": 63,
      "hit": false,
      "t": 31465.1461041667,
      "d": 911.8847291666643,
      "v": 100
    },
    {
      "midi": 61,
      "hit": false,
      "t": 31465.1461041667,
      "d": 922.130624999998,
      "v": 63
    },
    {
      "midi": 68,
      "hit": false,
      "t": 31465.1461041667,
      "d": 963.1142083333325,
      "v": 58
    },
    {
      "midi": 35,
      "hit": false,
      "t": 31465.1461041667,
      "d": 973.3601041666661,
      "v": 98
    },
    {
      "midi": 47,
      "hit": false,
      "t": 31465.1461041667,
      "d": 973.3601041666661,
      "v": 98
    },
    {
      "midi": 66,
      "hit": false,
      "t": 31475.392000000033,
      "d": 901.6388333333307,
      "v": 100
    },
    {
      "midi": 65,
      "hit": false,
      "t": 32940.5551041667,
      "d": 1331.9664583333288,
      "v": 100
    },
    {
      "midi": 61,
      "hit": false,
      "t": 32940.5551041667,
      "d": 1372.9500416666633,
      "v": 52
    },
    {
      "midi": 68,
      "hit": false,
      "t": 32940.5551041667,
      "d": 1393.4418333333306,
      "v": 55
    },
    {
      "midi": 58,
      "hit": false,
      "t": 32940.5551041667,
      "d": 1444.671312499995,
      "v": 59
    },
    {
      "midi": 34,
      "hit": false,
      "t": 32940.5551041667,
      "d": 1557.3761666666614,
      "v": 98
    },
    {
      "midi": 46,
      "hit": false,
      "t": 32950.80100000003,
      "d": 1516.3925833333342,
      "v": 98
    },
    {
      "midi": 54,
      "hit": false,
      "t": 35266.37345833336,
      "d": 2428.2773124999876,
      "v": 73
    },
    {
      "midi": 56,
      "hit": false,
      "t": 35348.34062500002,
      "d": 2540.982166666661,
      "v": 79
    },
    {
      "midi": 58,
      "hit": false,
      "t": 35399.57010416668,
      "d": 2397.5396249999976,
      "v": 87
    },
    {
      "midi": 27,
      "hit": false,
      "t": 35409.81600000001,
      "d": 1229.5074999999997,
      "v": 98
    },
    {
      "midi": 39,
      "hit": false,
      "t": 35409.81600000001,
      "d": 1249.999291666667,
      "v": 98
    },
    {
      "midi": 61,
      "hit": false,
      "t": 35450.79958333335,
      "d": 2571.7198541666658,
      "v": 92
    },
    {
      "midi": 39,
      "hit": false,
      "t": 36874.97910416668,
      "d": 1915.982520833335,
      "v": 98
    },
    {
      "midi": 27,
      "hit": false,
      "t": 36885.22500000001,
      "d": 1864.7530416666705,
      "v": 98
    },
    {
      "midi": 54,
      "hit": false,
      "t": 37868.83100000001,
      "d": 860.6552500000034,
      "v": 63
    },
    {
      "midi": 56,
      "hit": false,
      "t": 38104.48660416668,
      "d": 563.5242708333317,
      "v": 83
    },
    {
      "midi": 58,
      "hit": false,
      "t": 38596.28960416668,
      "d": 133.1966458333336,
      "v": 100
    },
    {
      "midi": 61,
      "hit": false,
      "t": 39333.99410416668,
      "d": 1178.278020833328,
      "v": 100
    },
    {
      "midi": 42,
      "hit": false,
      "t": 39333.99410416668,
      "d": 1198.7698124999952,
      "v": 98
    },
    {
      "midi": 57,
      "hit": false,
      "t": 39333.99410416668,
      "d": 1198.7698124999952,
      "v": 100
    },
    {
      "midi": 54,
      "hit": false,
      "t": 39333.99410416668,
      "d": 1209.0157083333252,
      "v": 56
    },
    {
      "midi": 30,
      "hit": false,
      "t": 39344.24000000001,
      "d": 1147.5403333333306,
      "v": 98
    },
    {
      "midi": 64,
      "hit": false,
      "t": 39344.24000000001,
      "d": 1239.7533958333297,
      "v": 83
    },
    {
      "midi": 30,
      "hit": false,
      "t": 40809.403104166675,
      "d": 1956.9661041666623,
      "v": 98
    },
    {
      "midi": 42,
      "hit": false,
      "t": 40809.403104166675,
      "d": 1987.7037916666595,
      "v": 98
    },
    {
      "midi": 54,
      "hit": false,
      "t": 40819.649000000005,
      "d": 245.90149999999994,
      "v": 49
    },
    {
      "midi": 54,
      "hit": false,
      "t": 42284.812104166675,
      "d": 379.09814583332627,
      "v": 78
    },
    {
      "midi": 57,
      "hit": false,
      "t": 42540.959500000004,
      "d": 81.96716666666907,
      "v": 95
    },
    {
      "midi": 61,
      "hit": false,
      "t": 42540.959500000004,
      "d": 112.70485416666634,
      "v": 100
    },
    {
      "midi": 64,
      "hit": false,
      "t": 42540.959500000004,
      "d": 112.70485416666634,
      "v": 79
    },
    {
      "midi": 61,
      "hit": false,
      "t": 43268.41810416667,
      "d": 1301.2287708333388,
      "v": 97
    },
    {
      "midi": 32,
      "hit": false,
      "t": 43278.664,
      "d": 1034.8354791666716,
      "v": 98
    },
    {
      "midi": 44,
      "hit": false,
      "t": 43278.664,
      "d": 1075.819062500006,
      "v": 98
    },
    {
      "midi": 54,
      "hit": false,
      "t": 43278.664,
      "d": 1096.3108541666734,
      "v": 69
    },
    {
      "midi": 63,
      "hit": false,
      "t": 43278.664,
      "d": 1424.1795208333424,
      "v": 70
    },
    {
      "midi": 58,
      "hit": false,
      "t": 43278.664,
      "d": 1434.4254166666724,
      "v": 99
    },
    {
      "midi": 54,
      "hit": false,
      "t": 44497.925604166674,
      "d": 256.14739583332994,
      "v": 70
    },
    {
      "midi": 32,
      "hit": false,
      "t": 44754.073000000004,
      "d": 297.1309791666645,
      "v": 98
    },
    {
      "midi": 44,
      "hit": false,
      "t": 44754.073000000004,
      "d": 327.86866666666174,
      "v": 98
    },
    {
      "midi": 32,
      "hit": false,
      "t": 45235.63010416667,
      "d": 348.360458333329,
      "v": 98
    },
    {
      "midi": 68,
      "hit": false,
      "t": 45245.876,
      "d": 184.42612499999814,
      "v": 100
    },
    {
      "midi": 44,
      "hit": false,
      "t": 45245.876,
      "d": 379.09814583333355,
      "v": 98
    },
    {
      "midi": 37,
      "hit": false,
      "t": 47202.842104166666,
      "d": 1209.0157083333252,
      "v": 98
    },
    {
      "midi": 61,
      "hit": false,
      "t": 47202.842104166666,
      "d": 2100.408645833326,
      "v": 93
    },
    {
      "midi": 56,
      "hit": false,
      "t": 47202.842104166666,
      "d": 2120.900437499993,
      "v": 73
    },
    {
      "midi": 53,
      "hit": false,
      "t": 47202.842104166666,
      "d": 2141.3922291666604,
      "v": 90
    },
    {
      "midi": 25,
      "hit": false,
      "t": 47213.087999999996,
      "d": 1157.7862291666606,
      "v": 98
    },
    {
      "midi": 25,
      "hit": false,
      "t": 48688.49699999999,
      "d": 1803.2776666666614,
      "v": 98
    },
    {
      "midi": 37,
      "hit": false,
      "t": 48688.49699999999,
      "d": 1885.2448333333305,
      "v": 98
    },
    {
      "midi": 56,
      "hit": false,
      "t": 49661.85710416666,
      "d": 153.6884374999936,
      "v": 55
    },
    {
      "midi": 53,
      "hit": false,
      "t": 49672.10299999999,
      "d": 430.3276249999908,
      "v": 76
    },
    {
      "midi": 56,
      "hit": false,
      "t": 49907.75860416665,
      "d": 81.9671666666618,
      "v": 55
    },
    {
      "midi": 61,
      "hit": false,
      "t": 49918.00449999998,
      "d": 163.93433333333087,
      "v": 90
    },
    {
      "midi": 63,
      "hit": false,
      "t": 50409.80749999998,
      "d": 174.18022916666814,
      "v": 100
    },
    {
      "midi": 58,
      "hit": false,
      "t": 51137.26610416664,
      "d": 2079.9168541666586,
      "v": 93
    },
    {
      "midi": 30,
      "hit": false,
      "t": 51147.51199999997,
      "d": 1157.786229166668,
      "v": 98
    },
    {
      "midi": 42,
      "hit": false,
      "t": 51147.51199999997,
      "d": 1209.0157083333324,
      "v": 98
    },
    {
      "midi": 61,
      "hit": false,
      "t": 51147.51199999997,
      "d": 2079.9168541666586,
      "v": 77
    },
    {
      "midi": 54,
      "hit": false,
      "t": 51147.51199999997,
      "d": 2192.621708333325,
      "v": 74
    },
    {
      "midi": 30,
      "hit": false,
      "t": 52612.675104166636,
      "d": 1834.0153541666514,
      "v": 98
    },
    {
      "midi": 42,
      "hit": false,
      "t": 52612.675104166636,
      "d": 1885.244833333316,
      "v": 98
    },
    {
      "midi": 54,
      "hit": false,
      "t": 53596.28110416663,
      "d": 102.45895833332906,
      "v": 48
    },
    {
      "midi": 58,
      "hit": false,
      "t": 53606.52699999996,
      "d": 92.21306249999907,
      "v": 51
    },
    {
      "midi": 54,
      "hit": false,
      "t": 53852.42849999996,
      "d": 133.1966458333336,
      "v": 44
    },
    {
      "midi": 61,
      "hit": false,
      "t": 53852.42849999996,
      "d": 143.4425416666636,
      "v": 93
    },
    {
      "midi": 63,
      "hit": false,
      "t": 54333.98560416662,
      "d": 102.45895833333634,
      "v": 97
    },
    {
      "midi": 56,
      "hit": false,
      "t": 55071.69010416662,
      "d": 2438.523208333332,
      "v": 49
    },
    {
      "midi": 61,
      "hit": false,
      "t": 55071.69010416662,
      "d": 2479.5067916666667,
      "v": 99
    },
    {
      "midi": 65,
      "hit": false,
      "t": 55071.69010416662,
      "d": 2592.211645833333,
      "v": 88
    },
    {
      "midi": 34,
      "hit": false,
      "t": 55081.93599999995,
      "d": 1178.2780208333352,
      "v": 98
    },
    {
      "midi": 46,
      "hit": false,
      "t": 55081.93599999995,
      "d": 1198.7698125000024,
      "v": 98
    },
    {
      "midi": 58,
      "hit": false,
      "t": 55081.93599999995,
      "d": 2581.965750000003,
      "v": 69
    },
    {
      "midi": 46,
      "hit": false,
      "t": 56547.09910416662,
      "d": 1854.5071458333332,
      "v": 98
    },
    {
      "midi": 34,
      "hit": false,
      "t": 56557.34499999995,
      "d": 1854.5071458333332,
      "v": 98
    },
    {
      "midi": 65,
      "hit": false,
      "t": 57776.60660416662,
      "d": 133.1966458333336,
      "v": 76
    },
    {
      "midi": 65,
      "hit": false,
      "t": 58278.65549999996,
      "d": 81.96716666666907,
      "v": 84
    },
    {
      "midi": 56,
      "hit": false,
      "t": 58278.65549999996,
      "d": 112.70485416666634,
      "v": 55
    },
    {
      "midi": 65,
      "hit": false,
      "t": 59006.11410416661,
      "d": 1249.9992916666597,
      "v": 62
    },
    {
      "midi": 58,
      "hit": false,
      "t": 59006.11410416661,
      "d": 2223.359395833322,
      "v": 93
    },
    {
      "midi": 54,
      "hit": false,
      "t": 59006.11410416661,
      "d": 3309.4243541666583,
      "v": 58
    },
    {
      "midi": 32,
      "hit": false,
      "t": 59016.35999999994,
      "d": 1147.5403333333306,
      "v": 98
    },
    {
      "midi": 44,
      "hit": false,
      "t": 59016.35999999994,
      "d": 1198.7698124999952,
      "v": 98
    },
    {
      "midi": 61,
      "hit": false,
      "t": 59016.35999999994,
      "d": 2264.3429791666567,
      "v": 69
    },
    {
      "midi": 63,
      "hit": false,
      "t": 60481.523104166605,
      "d": 1249.9992916666597,
      "v": 62
    },
    {
      "midi": 32,
      "hit": false,
      "t": 60491.768999999935,
      "d": 1895.4907291666677,
      "v": 98
    },
    {
      "midi": 44,
      "hit": false,
      "t": 60491.768999999935,
      "d": 1895.4907291666677,
      "v": 98
    },
    {
      "midi": 61,
      "hit": false,
      "t": 61721.276499999934,
      "d": 358.6063541666663,
      "v": 84
    },
    {
      "midi": 63,
      "hit": false,
      "t": 62202.833604166604,
      "d": 112.70485416666634,
      "v": 82
    },
    {
      "midi": 61,
      "hit": false,
      "t": 62213.079499999934,
      "d": 102.45895833333634,
      "v": 57
    },
    {
      "midi": 48,
      "hit": false,
      "t": 62694.63660416667,
      "d": 245.90149999999994,
      "v": 29
    },
    {
      "midi": 41,
      "hit": false,
      "t": 62940.538104166604,
      "d": 1168.0321249999906,
      "v": 98
    },
    {
      "midi": 63,
      "hit": false,
      "t": 62940.538104166604,
      "d": 2459.014999999992,
      "v": 82
    },
    {
      "midi": 68,
      "hit": false,
      "t": 62940.538104166604,
      "d": 2663.9329166666503,
      "v": 53
    },
    {
      "midi": 41,
      "hit": false,
      "t": 62940.53810416667,
      "d": 1711.0646041666696,
      "v": 49
    },
    {
      "midi": 29,
      "hit": false,
      "t": 62950.783999999934,
      "d": 1116.802645833326,
      "v": 98
    },
    {
      "midi": 56,
      "hit": false,
      "t": 62950.783999999934,
      "d": 2377.0478333333303,
      "v": 51
    },
    {
      "midi": 60,
      "hit": false,
      "t": 62950.783999999934,
      "d": 2459.014999999992,
      "v": 82
    },
    {
      "midi": 29,
      "hit": false,
      "t": 64415.9471041666,
      "d": 1782.7858749999868,
      "v": 98
    },
    {
      "midi": 41,
      "hit": false,
      "t": 64415.9471041666,
      "d": 1803.2776666666468,
      "v": 98
    },
    {
      "midi": 48,
      "hit": false,
      "t": 64672.09450000001,
      "d": 235.65560416666995,
      "v": 50
    },
    {
      "midi": 41,
      "hit": false,
      "t": 64907.75010416668,
      "d": 1342.2123541666733,
      "v": 50
    },
    {
      "midi": 56,
      "hit": false,
      "t": 65399.553104166596,
      "d": 829.9175624999771,
      "v": 49
    },
    {
      "midi": 48,
      "hit": false,
      "t": 65409.799000000006,
      "d": 317.622770833339,
      "v": 49
    },
    {
      "midi": 60,
      "hit": false,
      "t": 65655.70049999992,
      "d": 532.7865833333344,
      "v": 84
    },
    {
      "midi": 53,
      "hit": false,
      "t": 65655.7005,
      "d": 1198.7698125000024,
      "v": 50
    },
    {
      "midi": 48,
      "hit": false,
      "t": 66137.25760416668,
      "d": 266.3932916666672,
      "v": 52
    },
    {
      "midi": 63,
      "hit": false,
      "t": 66147.50349999992,
      "d": 122.95074999998906,
      "v": 88
    },
    {
      "midi": 41,
      "hit": false,
      "t": 66383.15910416668,
      "d": 573.7701666666544,
      "v": 50
    },
    {
      "midi": 65,
      "hit": false,
      "t": 66874.96210416658,
      "d": 676.229124999998,
      "v": 100
    },
    {
      "midi": 61,
      "hit": false,
      "t": 66874.96210416658,
      "d": 706.9668125000026,
      "v": 100
    },
    {
      "midi": 68,
      "hit": false,
      "t": 66874.96210416658,
      "d": 768.4421874999971,
      "v": 59
    },
    {
      "midi": 30,
      "hit": false,
      "t": 66874.96210416658,
      "d": 809.4257708333316,
      "v": 85
    },
    {
      "midi": 58,
      "hit": false,
      "t": 66874.96210416658,
      "d": 819.6716666666616,
      "v": 69
    },
    {
      "midi": 42,
      "hit": false,
      "t": 66874.96210416658,
      "d": 850.4093541666662,
      "v": 65
    },
    {
      "midi": 42,
      "hit": false,
      "t": 66874.96210416667,
      "d": 1711.0646041666623,
      "v": 52
    },
    {
      "midi": 58,
      "hit": false,
      "t": 68350.37110416658,
      "d": 1485.6548958333442,
      "v": 52
    },
    {
      "midi": 63,
      "hit": false,
      "t": 68350.37110416658,
      "d": 1557.3761666666833,
      "v": 93
    },
    {
      "midi": 47,
      "hit": false,
      "t": 68350.37110416658,
      "d": 1659.8351250000123,
      "v": 83
    },
    {
      "midi": 68,
      "hit": false,
      "t": 68350.37110416658,
      "d": 1803.277666666676,
      "v": 52
    },
    {
      "midi": 35,
      "hit": false,
      "t": 68360.61699999991,
      "d": 1598.3597500000178,
      "v": 81
    },
    {
      "midi": 61,
      "hit": false,
      "t": 68360.61699999991,
      "d": 1639.3433333333523,
      "v": 88
    },
    {
      "midi": 47,
      "hit": false,
      "t": 68842.17410416667,
      "d": 1301.2287708333315,
      "v": 56
    },
    {
      "midi": 54,
      "hit": false,
      "t": 69344.223,
      "d": 297.1309791666572,
      "v": 51
    },
    {
      "midi": 58,
      "hit": false,
      "t": 69579.87860416666,
      "d": 491.8029999999999,
      "v": 57
    },
    {
      "midi": 58,
      "hit": false,
      "t": 70071.68160416659,
      "d": 266.3932916666672,
      "v": 50
    },
    {
      "midi": 54,
      "hit": false,
      "t": 70071.68160416666,
      "d": 686.4750208333426,
      "v": 51
    },
    {
      "midi": 34,
      "hit": false,
      "t": 70081.92749999992,
      "d": 81.96716666666907,
      "v": 65
    },
    {
      "midi": 46,
      "hit": false,
      "t": 70081.92749999992,
      "d": 122.95075000000361,
      "v": 70
    },
    {
      "midi": 47,
      "hit": false,
      "t": 70327.829,
      "d": 532.7865833333344,
      "v": 57
    },
    {
      "midi": 58,
      "hit": false,
      "t": 70809.3861041666,
      "d": 963.1142083333398,
      "v": 97
    },
    {
      "midi": 61,
      "hit": false,
      "t": 70809.3861041666,
      "d": 983.6059999999998,
      "v": 90
    },
    {
      "midi": 63,
      "hit": false,
      "t": 70809.3861041666,
      "d": 1014.3436875000043,
      "v": 70
    },
    {
      "midi": 32,
      "hit": false,
      "t": 70809.3861041666,
      "d": 1065.5731666666688,
      "v": 90
    },
    {
      "midi": 44,
      "hit": false,
      "t": 70809.38610416667,
      "d": 1557.3761666666687,
      "v": 49
    },
    {
      "midi": 54,
      "hit": false,
      "t": 70819.63199999993,
      "d": 1096.3108541666734,
      "v": 78
    },
    {
      "midi": 44,
      "hit": false,
      "t": 70819.63199999993,
      "d": 1116.8026458333334,
      "v": 74
    },
    {
      "midi": 44,
      "hit": false,
      "t": 72284.7951041666,
      "d": 1926.2284166666504,
      "v": 70
    },
    {
      "midi": 32,
      "hit": false,
      "t": 72295.04099999992,
      "d": 1977.457895833315,
      "v": 95
    },
    {
      "midi": 44,
      "hit": false,
      "t": 72786.844,
      "d": 1260.245187499997,
      "v": 49
    },
    {
      "midi": 54,
      "hit": false,
      "t": 73278.64699999992,
      "d": 573.7701666666544,
      "v": 52
    },
    {
      "midi": 51,
      "hit": false,
      "t": 73278.647,
      "d": 338.11456249999173,
      "v": 42
    },
    {
      "midi": 61,
      "hit": false,
      "t": 73514.30260416659,
      "d": 143.4425416666636,
      "v": 70
    },
    {
      "midi": 54,
      "hit": false,
      "t": 73514.30260416666,
      "d": 840.1634583333507,
      "v": 46
    },
    {
      "midi": 51,
      "hit": false,
      "t": 74006.10560416666,
      "d": 276.63918750001176,
      "v": 47
    },
    {
      "midi": 54,
      "hit": false,
      "t": 74016.35149999992,
      "d": 286.8850833333272,
      "v": 90
    },
    {
      "midi": 44,
      "hit": false,
      "t": 74252.00710416667,
      "d": 502.04889583334443,
      "v": 54
    },
    {
      "midi": 37,
      "hit": false,
      "t": 74743.81010416658,
      "d": 1280.7369791666715,
      "v": 92
    },
    {
      "midi": 53,
      "hit": false,
      "t": 74743.81010416658,
      "d": 2182.375812500002,
      "v": 99
    },
    {
      "midi": 61,
      "hit": false,
      "t": 74743.81010416658,
      "d": 2182.375812500002,
      "v": 100
    },
    {
      "midi": 25,
      "hit": false,
      "t": 74754.05599999991,
      "d": 1229.507500000007,
      "v": 95
    },
    {
      "midi": 56,
      "hit": false,
      "t": 74754.05599999991,
      "d": 2161.884020833342,
      "v": 100
    },
    {
      "midi": 25,
      "hit": false,
      "t": 74754.05600000001,
      "d": 1495.9007916666596,
      "v": 82
    },
    {
      "midi": 37,
      "hit": false,
      "t": 75245.85900000001,
      "d": 983.6059999999998,
      "v": 51
    },
    {
      "midi": 49,
      "hit": false,
      "t": 75491.76050000002,
      "d": 573.770166666669,
      "v": 63
    },
    {
      "midi": 53,
      "hit": false,
      "t": 76219.21910416668,
      "d": 512.2947916666599,
      "v": 61
    },
    {
      "midi": 25,
      "hit": false,
      "t": 76229.46499999992,
      "d": 2028.687374999994,
      "v": 92
    },
    {
      "midi": 37,
      "hit": false,
      "t": 76229.46499999992,
      "d": 2049.179166666654,
      "v": 92
    },
    {
      "midi": 56,
      "hit": false,
      "t": 77202.82510416668,
      "d": 450.8194166666799,
      "v": 76
    },
    {
      "midi": 53,
      "hit": false,
      "t": 77213.07099999991,
      "d": 645.491437500008,
      "v": 8
    },
    {
      "midi": 61,
      "hit": false,
      "t": 77448.72660416669,
      "d": 481.5571041666699,
      "v": 79
    },
    {
      "midi": 56,
      "hit": false,
      "t": 77458.97249999992,
      "d": 655.737333333338,
      "v": 52
    },
    {
      "midi": 66,
      "hit": false,
      "t": 77704.87400000003,
      "d": 225.40970833333267,
      "v": 79
    },
    {
      "midi": 61,
      "hit": false,
      "t": 77940.52960416659,
      "d": 204.91791666667268,
      "v": 100
    },
    {
      "midi": 65,
      "hit": false,
      "t": 77940.52960416669,
      "d": 276.6391874999972,
      "v": 81
    },
    {
      "midi": 53,
      "hit": false,
      "t": 78196.67699999992,
      "d": 92.21306249998452,
      "v": 88
    },
    {
      "midi": 63,
      "hit": false,
      "t": 78196.67700000003,
      "d": 256.14739583332266,
      "v": 80
    },
    {
      "midi": 61,
      "hit": false,
      "t": 78442.57850000002,
      "d": 256.14739583332266,
      "v": 79
    },
    {
      "midi": 58,
      "hit": false,
      "t": 78678.23410416658,
      "d": 2971.3097916666447,
      "v": 93
    },
    {
      "midi": 63,
      "hit": false,
      "t": 78678.23410416658,
      "d": 2971.3097916666447,
      "v": 49
    },
    {
      "midi": 63,
      "hit": false,
      "t": 78678.23410416668,
      "d": 225.40970833331812,
      "v": 81
    },
    {
      "midi": 32,
      "hit": false,
      "t": 78688.47999999991,
      "d": 1137.2944374999934,
      "v": 70
    },
    {
      "midi": 44,
      "hit": false,
      "t": 78688.47999999991,
      "d": 1188.523916666658,
      "v": 81
    },
    {
      "midi": 61,
      "hit": false,
      "t": 78688.47999999991,
      "d": 2981.5556874999747,
      "v": 66
    },
    {
      "midi": 54,
      "hit": false,
      "t": 78688.47999999991,
      "d": 3022.5392708333093,
      "v": 64
    },
    {
      "midi": 32,
      "hit": false,
      "t": 78698.72589583334,
      "d": 1465.1631041666697,
      "v": 73
    },
    {
      "midi": 56,
      "hit": false,
      "t": 78934.3815,
      "d": 215.16381250000268,
      "v": 71
    },
    {
      "midi": 58,
      "hit": false,
      "t": 79180.28300000001,
      "d": 112.70485416667361,
      "v": 57
    },
    {
      "midi": 63,
      "hit": false,
      "t": 79426.18450000002,
      "d": 276.6391874999972,
      "v": 83
    },
    {
      "midi": 54,
      "hit": false,
      "t": 79661.84010416668,
      "d": 215.16381250000268,
      "v": 63
    },
    {
      "midi": 58,
      "hit": false,
      "t": 79917.98750000002,
      "d": 143.4425416666636,
      "v": 62
    },
    {
      "midi": 44,
      "hit": false,
      "t": 80153.64310416656,
      "d": 358.6063541666663,
      "v": 70
    },
    {
      "midi": 61,
      "hit": false,
      "t": 80153.64310416668,
      "d": 122.95075000000361,
      "v": 76
    },
    {
      "midi": 32,
      "hit": false,
      "t": 80163.8889999999,
      "d": 358.6063541666663,
      "v": 84
    },
    {
      "midi": 68,
      "hit": false,
      "t": 80645.44610416656,
      "d": 358.6063541666663,
      "v": 70
    },
    {
      "midi": 32,
      "hit": false,
      "t": 80655.6919999999,
      "d": 1096.3108541666588,
      "v": 65
    },
    {
      "midi": 44,
      "hit": false,
      "t": 80655.6919999999,
      "d": 1096.3108541666588,
      "v": 56
    },
    {
      "midi": 63,
      "hit": false,
      "t": 80665.93789583335,
      "d": 348.3604583333363,
      "v": 49
    },
    {
      "midi": 61,
      "hit": false,
      "t": 81342.16702083335,
      "d": 327.86866666666174,
      "v": 45
    },
    {
      "midi": 63,
      "hit": false,
      "t": 81915.93718750002,
      "d": 348.3604583333363,
      "v": 36
    },
    {
      "midi": 25,
      "hit": false,
      "t": 82622.9039999999,
      "d": 471.3112083333399,
      "v": 99
    },
    {
      "midi": 37,
      "hit": false,
      "t": 82622.9039999999,
      "d": 471.3112083333399,
      "v": 99
    },
    {
      "midi": 37,
      "hit": false,
      "t": 83350.36260416657,
      "d": 368.8522499999963,
      "v": 99
    },
    {
      "midi": 25,
      "hit": false,
      "t": 83350.36260416657,
      "d": 379.09814583332627,
      "v": 99
    },
    {
      "midi": 25,
      "hit": false,
      "t": 84098.3129999999,
      "d": 2110.654541666663,
      "v": 99
    },
    {
      "midi": 37,
      "hit": false,
      "t": 84098.3129999999,
      "d": 2131.146333333323,
      "v": 99
    },
    {
      "midi": 30,
      "hit": false,
      "t": 86547.08210416655,
      "d": 461.06531249999534,
      "v": 99
    },
    {
      "midi": 42,
      "hit": false,
      "t": 86547.08210416655,
      "d": 461.06531249999534,
      "v": 99
    },
    {
      "midi": 42,
      "hit": false,
      "t": 87284.78660416654,
      "d": 1383.1959375000006,
      "v": 99
    },
    {
      "midi": 30,
      "hit": false,
      "t": 87295.03249999987,
      "d": 1383.1959375000006,
      "v": 99
    },
    {
      "midi": 30,
      "hit": false,
      "t": 89016.34299999988,
      "d": 1219.2616041666624,
      "v": 99
    },
    {
      "midi": 42,
      "hit": false,
      "t": 89016.34299999988,
      "d": 1229.5074999999924,
      "v": 99
    },
    {
      "midi": 34,
      "hit": false,
      "t": 90481.50610416653,
      "d": 440.57352083333535,
      "v": 99
    },
    {
      "midi": 46,
      "hit": false,
      "t": 90491.75199999986,
      "d": 430.32762500000536,
      "v": 99
    },
    {
      "midi": 34,
      "hit": false,
      "t": 91219.21060416654,
      "d": 409.8358333333308,
      "v": 99
    },
    {
      "midi": 46,
      "hit": false,
      "t": 91219.21060416654,
      "d": 409.8358333333308,
      "v": 99
    },
    {
      "midi": 46,
      "hit": false,
      "t": 91967.16099999988,
      "d": 2069.6709583333286,
      "v": 99
    },
    {
      "midi": 34,
      "hit": false,
      "t": 91967.16099999988,
      "d": 2090.1627499999886,
      "v": 99
    },
    {
      "midi": 32,
      "hit": false,
      "t": 94415.93010416653,
      "d": 491.8029999999999,
      "v": 99
    },
    {
      "midi": 44,
      "hit": false,
      "t": 94415.93010416653,
      "d": 491.8029999999999,
      "v": 99
    },
    {
      "midi": 32,
      "hit": false,
      "t": 95153.63460416654,
      "d": 1413.9336249999906,
      "v": 99
    },
    {
      "midi": 44,
      "hit": false,
      "t": 95163.88049999987,
      "d": 1424.1795208333206,
      "v": 99
    },
    {
      "midi": 32,
      "hit": false,
      "t": 96874.94510416652,
      "d": 1168.032124999998,
      "v": 99
    },
    {
      "midi": 44,
      "hit": false,
      "t": 96885.19099999985,
      "d": 1106.5567500000034,
      "v": 99
    },
    {
      "midi": 29,
      "hit": false,
      "t": 98350.35410416652,
      "d": 389.34404166665627,
      "v": 99
    },
    {
      "midi": 41,
      "hit": false,
      "t": 98360.59999999985,
      "d": 409.8358333333308,
      "v": 99
    },
    {
      "midi": 29,
      "hit": false,
      "t": 99088.05860416651,
      "d": 358.6063541666663,
      "v": 99
    },
    {
      "midi": 41,
      "hit": false,
      "t": 99088.05860416651,
      "d": 409.8358333333308,
      "v": 99
    },
    {
      "midi": 41,
      "hit": false,
      "t": 99825.7631041665,
      "d": 1588.1138541666587,
      "v": 99
    },
    {
      "midi": 29,
      "hit": false,
      "t": 99836.00899999983,
      "d": 1598.3597499999887,
      "v": 99
    },
    {
      "midi": 41,
      "hit": false,
      "t": 101557.31949999982,
      "d": 286.8850833333272,
      "v": 99
    },
    {
      "midi": 36,
      "hit": false,
      "t": 101792.97510416649,
      "d": 348.36045833332173,
      "v": 99
    },
    {
      "midi": 29,
      "hit": false,
      "t": 102038.87660416648,
      "d": 317.6227708333172,
      "v": 99
    },
    {
      "midi": 30,
      "hit": false,
      "t": 102284.77810416647,
      "d": 522.5406874999899,
      "v": 99
    },
    {
      "midi": 42,
      "hit": false,
      "t": 102295.0239999998,
      "d": 512.2947916666599,
      "v": 99
    },
    {
      "midi": 30,
      "hit": false,
      "t": 103032.7284999998,
      "d": 1475.4089999999997,
      "v": 99
    },
    {
      "midi": 42,
      "hit": false,
      "t": 103032.7284999998,
      "d": 1485.6548958333296,
      "v": 99
    },
    {
      "midi": 30,
      "hit": false,
      "t": 104754.03899999979,
      "d": 512.2947916666599,
      "v": 99
    },
    {
      "midi": 42,
      "hit": false,
      "t": 104754.03899999979,
      "d": 532.7865833333199,
      "v": 99
    },
    {
      "midi": 30,
      "hit": false,
      "t": 105481.49760416643,
      "d": 532.7865833333344,
      "v": 99
    },
    {
      "midi": 42,
      "hit": false,
      "t": 105481.49760416643,
      "d": 543.0324791666644,
      "v": 99
    },
    {
      "midi": 32,
      "hit": false,
      "t": 106219.20210416643,
      "d": 491.8029999999999,
      "v": 99
    },
    {
      "midi": 44,
      "hit": false,
      "t": 106219.20210416643,
      "d": 512.2947916666599,
      "v": 99
    },
    {
      "midi": 32,
      "hit": false,
      "t": 106956.90660416642,
      "d": 358.6063541666663,
      "v": 99
    },
    {
      "midi": 44,
      "hit": false,
      "t": 106967.15249999975,
      "d": 399.5899375000008,
      "v": 99
    },
    {
      "midi": 32,
      "hit": false,
      "t": 107694.61110416641,
      "d": 2069.6709583333286,
      "v": 99
    },
    {
      "midi": 44,
      "hit": false,
      "t": 107704.85699999974,
      "d": 2059.4250624999986,
      "v": 99
    },
    {
      "midi": 34,
      "hit": false,
      "t": 109907.7246041664,
      "d": 256.14739583332266,
      "v": 99
    },
    {
      "midi": 46,
      "hit": false,
      "t": 109917.97049999973,
      "d": 184.42612499999814,
      "v": 99
    },
    {
      "midi": 47,
      "hit": false,
      "t": 110153.6261041664,
      "d": 1516.3925833333342,
      "v": 99
    },
    {
      "midi": 35,
      "hit": false,
      "t": 110163.87199999973,
      "d": 1444.671312499995,
      "v": 99
    },
    {
      "midi": 34,
      "hit": false,
      "t": 111639.28099999973,
      "d": 1690.5728125000023,
      "v": 99
    },
    {
      "midi": 46,
      "hit": false,
      "t": 111639.28099999973,
      "d": 1741.8022916666523,
      "v": 99
    },
    {
      "midi": 32,
      "hit": false,
      "t": 113350.34560416639,
      "d": 245.90149999999267,
      "v": 99
    },
    {
      "midi": 44,
      "hit": false,
      "t": 113360.59149999972,
      "d": 143.4425416666636,
      "v": 99
    },
    {
      "midi": 42,
      "hit": false,
      "t": 113596.24710416638,
      "d": 245.90150000000722,
      "v": 99
    },
    {
      "midi": 30,
      "hit": false,
      "t": 113596.24710416638,
      "d": 297.13097916667175,
      "v": 99
    },
    {
      "midi": 41,
      "hit": false,
      "t": 113842.14860416639,
      "d": 307.3768749999872,
      "v": 99
    },
    {
      "midi": 29,
      "hit": false,
      "t": 113852.39449999972,
      "d": 245.90149999999267,
      "v": 99
    },
    {
      "midi": 39,
      "hit": false,
      "t": 114088.05010416638,
      "d": 563.5242708333244,
      "v": 99
    },
    {
      "midi": 27,
      "hit": false,
      "t": 114088.05010416638,
      "d": 584.0160624999844,
      "v": 99
    },
    {
      "midi": 39,
      "hit": false,
      "t": 114836.0004999997,
      "d": 522.5406875000044,
      "v": 99
    },
    {
      "midi": 27,
      "hit": false,
      "t": 114836.0004999997,
      "d": 543.0324791666644,
      "v": 99
    },
    {
      "midi": 27,
      "hit": false,
      "t": 115563.45910416637,
      "d": 2090.1627499999886,
      "v": 99
    },
    {
      "midi": 39,
      "hit": false,
      "t": 115573.7049999997,
      "d": 2059.4250624999986,
      "v": 99
    },
    {
      "midi": 41,
      "hit": false,
      "t": 117776.57260416636,
      "d": 297.1309791666572,
      "v": 99
    },
    {
      "midi": 29,
      "hit": false,
      "t": 117786.81849999969,
      "d": 276.6391874999972,
      "v": 99
    },
    {
      "midi": 30,
      "hit": false,
      "t": 118022.47410416635,
      "d": 624.9996458333335,
      "v": 99
    },
    {
      "midi": 42,
      "hit": false,
      "t": 118032.71999999968,
      "d": 614.7537500000035,
      "v": 99
    },
    {
      "midi": 42,
      "hit": false,
      "t": 118760.17860416636,
      "d": 461.06531249999534,
      "v": 99
    },
    {
      "midi": 30,
      "hit": false,
      "t": 118770.42449999969,
      "d": 440.57352083333535,
      "v": 99
    },
    {
      "midi": 42,
      "hit": false,
      "t": 119497.88310416635,
      "d": 758.1962916666671,
      "v": 99
    },
    {
      "midi": 30,
      "hit": false,
      "t": 119508.12899999968,
      "d": 747.9503958333371,
      "v": 99
    },
    {
      "midi": 30,
      "hit": false,
      "t": 120491.73499999968,
      "d": 788.9339791666716,
      "v": 99
    },
    {
      "midi": 42,
      "hit": false,
      "t": 120491.73499999968,
      "d": 799.1798750000016,
      "v": 99
    },
    {
      "midi": 42,
      "hit": false,
      "t": 121475.34099999968,
      "d": 215.16381250000268,
      "v": 99
    },
    {
      "midi": 30,
      "hit": false,
      "t": 121475.34099999968,
      "d": 245.90149999999267,
      "v": 99
    },
    {
      "midi": 43,
      "hit": false,
      "t": 121710.99660416634,
      "d": 256.14739583332266,
      "v": 99
    },
    {
      "midi": 31,
      "hit": false,
      "t": 121721.24249999967,
      "d": 256.14739583332266,
      "v": 99
    },
    {
      "midi": 44,
      "hit": false,
      "t": 121956.89810416634,
      "d": 1311.4746666666615,
      "v": 99
    },
    {
      "midi": 32,
      "hit": false,
      "t": 121956.89810416634,
      "d": 1331.9664583333215,
      "v": 99
    },
    {
      "midi": 32,
      "hit": false,
      "t": 123432.30710416632,
      "d": 420.0817291666608,
      "v": 99
    },
    {
      "midi": 44,
      "hit": false,
      "t": 123442.55299999965,
      "d": 430.3276249999908,
      "v": 99
    },
    {
      "midi": 44,
      "hit": false,
      "t": 123924.1101041663,
      "d": 870.9011458333262,
      "v": 99
    },
    {
      "midi": 32,
      "hit": false,
      "t": 123934.35599999964,
      "d": 881.1470416666562,
      "v": 99
    },
    {
      "midi": 44,
      "hit": false,
      "t": 124907.71610416629,
      "d": 870.9011458333262,
      "v": 99
    },
    {
      "midi": 32,
      "hit": false,
      "t": 124917.96199999962,
      "d": 870.9011458333262,
      "v": 99
    },
    {
      "midi": 61,
      "hit": false,
      "t": 125891.32210416628,
      "d": 2100.4086458333186,
      "v": 93
    },
    {
      "midi": 25,
      "hit": false,
      "t": 125901.5679999996,
      "d": 471.31120833332534,
      "v": 99
    },
    {
      "midi": 37,
      "hit": false,
      "t": 125901.5679999996,
      "d": 471.31120833332534,
      "v": 99
    },
    {
      "midi": 56,
      "hit": false,
      "t": 125901.5679999996,
      "d": 2110.6545416666486,
      "v": 73
    },
    {
      "midi": 53,
      "hit": false,
      "t": 125901.5679999996,
      "d": 2131.1463333333086,
      "v": 90
    },
    {
      "midi": 37,
      "hit": false,
      "t": 126629.02660416627,
      "d": 368.8522499999963,
      "v": 99
    },
    {
      "midi": 25,
      "hit": false,
      "t": 126629.02660416627,
      "d": 379.09814583332627,
      "v": 99
    },
    {
      "midi": 25,
      "hit": false,
      "t": 127376.97699999959,
      "d": 2110.6545416666486,
      "v": 99
    },
    {
      "midi": 37,
      "hit": false,
      "t": 127376.97699999959,
      "d": 2131.1463333333086,
      "v": 99
    },
    {
      "midi": 53,
      "hit": false,
      "t": 128350.33710416625,
      "d": 440.5735208333208,
      "v": 76
    },
    {
      "midi": 56,
      "hit": false,
      "t": 128360.58299999958,
      "d": 153.6884374999936,
      "v": 55
    },
    {
      "midi": 56,
      "hit": false,
      "t": 128596.23860416624,
      "d": 81.96716666666907,
      "v": 55
    },
    {
      "midi": 61,
      "hit": false,
      "t": 128606.48449999957,
      "d": 163.93433333333815,
      "v": 90
    },
    {
      "midi": 63,
      "hit": false,
      "t": 129088.04160416624,
      "d": 184.42612499999814,
      "v": 104
    },
    {
      "midi": 58,
      "hit": false,
      "t": 129825.74610416623,
      "d": 2079.9168541666877,
      "v": 93
    },
    {
      "midi": 61,
      "hit": false,
      "t": 129825.74610416623,
      "d": 2090.1627500000177,
      "v": 77
    },
    {
      "midi": 54,
      "hit": false,
      "t": 129825.74610416623,
      "d": 2202.8676041666768,
      "v": 74
    },
    {
      "midi": 30,
      "hit": false,
      "t": 129835.99199999956,
      "d": 471.3112083333399,
      "v": 99
    },
    {
      "midi": 42,
      "hit": false,
      "t": 129835.99199999956,
      "d": 471.3112083333399,
      "v": 99
    },
    {
      "midi": 42,
      "hit": false,
      "t": 130563.45060416624,
      "d": 368.8522499999963,
      "v": 99
    },
    {
      "midi": 30,
      "hit": false,
      "t": 130563.45060416624,
      "d": 379.09814583332627,
      "v": 99
    },
    {
      "midi": 30,
      "hit": false,
      "t": 131311.40099999958,
      "d": 1782.7858750000014,
      "v": 99
    },
    {
      "midi": 42,
      "hit": false,
      "t": 131311.40099999958,
      "d": 1803.2776666666614,
      "v": 99
    },
    {
      "midi": 58,
      "hit": false,
      "t": 132284.76110416625,
      "d": 92.21306249999907,
      "v": 51
    },
    {
      "midi": 54,
      "hit": false,
      "t": 132295.00699999958,
      "d": 92.21306249999907,
      "v": 48
    },
    {
      "midi": 61,
      "hit": false,
      "t": 132530.66260416625,
      "d": 153.68843749997905,
      "v": 93
    },
    {
      "midi": 54,
      "hit": false,
      "t": 132540.90849999958,
      "d": 133.19664583331905,
      "v": 44
    },
    {
      "midi": 63,
      "hit": false,
      "t": 133022.46560416624,
      "d": 102.45895833332906,
      "v": 97
    },
    {
      "midi": 32,
      "hit": false,
      "t": 133268.36710416625,
      "d": 481.55710416665534,
      "v": 99
    },
    {
      "midi": 44,
      "hit": false,
      "t": 133268.36710416625,
      "d": 481.55710416665534,
      "v": 99
    },
    {
      "midi": 65,
      "hit": false,
      "t": 133760.17010416623,
      "d": 2581.965749999974,
      "v": 88
    },
    {
      "midi": 34,
      "hit": false,
      "t": 133770.41599999956,
      "d": 471.31120833332534,
      "v": 99
    },
    {
      "midi": 46,
      "hit": false,
      "t": 133770.41599999956,
      "d": 471.31120833332534,
      "v": 99
    },
    {
      "midi": 56,
      "hit": false,
      "t": 133770.41599999956,
      "d": 2438.523208333325,
      "v": 49
    },
    {
      "midi": 61,
      "hit": false,
      "t": 133770.41599999956,
      "d": 2469.260895833315,
      "v": 99
    },
    {
      "midi": 58,
      "hit": false,
      "t": 133770.41599999956,
      "d": 2581.965749999974,
      "v": 69
    },
    {
      "midi": 46,
      "hit": false,
      "t": 134497.87460416622,
      "d": 368.8522499999963,
      "v": 99
    },
    {
      "midi": 34,
      "hit": false,
      "t": 134497.87460416622,
      "d": 379.09814583332627,
      "v": 99
    },
    {
      "midi": 34,
      "hit": false,
      "t": 135245.82499999955,
      "d": 1598.3597499999742,
      "v": 99
    },
    {
      "midi": 46,
      "hit": false,
      "t": 135245.82499999955,
      "d": 1618.8515416666341,
      "v": 99
    },
    {
      "midi": 65,
      "hit": false,
      "t": 136475.33249999952,
      "d": 122.95074999998906,
      "v": 76
    },
    {
      "midi": 65,
      "hit": false,
      "t": 136956.88960416618,
      "d": 92.21306249999907,
      "v": 84
    },
    {
      "midi": 56,
      "hit": false,
      "t": 136967.1354999995,
      "d": 122.95074999998906,
      "v": 55
    },
    {
      "midi": 46,
      "hit": false,
      "t": 136967.1354999995,
      "d": 276.6391874999681,
      "v": 91
    },
    {
      "midi": 41,
      "hit": false,
      "t": 137202.79110416616,
      "d": 297.1309791666572,
      "v": 85
    },
    {
      "midi": 34,
      "hit": false,
      "t": 137448.69260416614,
      "d": 256.1473958333372,
      "v": 80
    },
    {
      "midi": 61,
      "hit": false,
      "t": 137694.59410416614,
      "d": 2274.5888749999867,
      "v": 69
    },
    {
      "midi": 32,
      "hit": false,
      "t": 137704.83999999947,
      "d": 471.31120833332534,
      "v": 99
    },
    {
      "midi": 44,
      "hit": false,
      "t": 137704.83999999947,
      "d": 471.31120833332534,
      "v": 99
    },
    {
      "midi": 65,
      "hit": false,
      "t": 137704.83999999947,
      "d": 1249.999291666667,
      "v": 62
    },
    {
      "midi": 58,
      "hit": false,
      "t": 137704.83999999947,
      "d": 2223.3593958333367,
      "v": 93
    },
    {
      "midi": 54,
      "hit": false,
      "t": 137704.83999999947,
      "d": 3299.1784583333065,
      "v": 58
    },
    {
      "midi": 44,
      "hit": false,
      "t": 138432.29860416614,
      "d": 368.8522499999963,
      "v": 99
    },
    {
      "midi": 32,
      "hit": false,
      "t": 138432.29860416614,
      "d": 379.09814583332627,
      "v": 99
    },
    {
      "midi": 63,
      "hit": false,
      "t": 139180.2489999995,
      "d": 1249.9992916666379,
      "v": 62
    },
    {
      "midi": 32,
      "hit": false,
      "t": 139180.2489999995,
      "d": 2110.6545416666195,
      "v": 99
    },
    {
      "midi": 44,
      "hit": false,
      "t": 139180.2489999995,
      "d": 2131.1463333332795,
      "v": 99
    },
    {
      "midi": 61,
      "hit": false,
      "t": 140399.51060416613,
      "d": 368.8522499999963,
      "v": 70
    },
    {
      "midi": 61,
      "hit": false,
      "t": 140891.31360416612,
      "d": 112.70485416665906,
      "v": 48
    },
    {
      "midi": 63,
      "hit": false,
      "t": 140901.55949999945,
      "d": 112.70485416665906,
      "v": 69
    },
    {
      "midi": 30,
      "hit": false,
      "t": 141383.1166041661,
      "d": 256.1473958333372,
      "v": 90
    },
    {
      "midi": 42,
      "hit": false,
      "t": 141383.1166041661,
      "d": 256.1473958333372,
      "v": 90
    },
    {
      "midi": 56,
      "hit": false,
      "t": 141629.0181041661,
      "d": 2377.047833333316,
      "v": 49
    },
    {
      "midi": 63,
      "hit": false,
      "t": 141629.0181041661,
      "d": 2459.014999999985,
      "v": 79
    },
    {
      "midi": 68,
      "hit": false,
      "t": 141629.0181041661,
      "d": 2663.932916666643,
      "v": 52
    },
    {
      "midi": 29,
      "hit": false,
      "t": 141639.26399999944,
      "d": 471.31120833332534,
      "v": 99
    },
    {
      "midi": 41,
      "hit": false,
      "t": 141639.26399999944,
      "d": 471.31120833332534,
      "v": 99
    },
    {
      "midi": 60,
      "hit": false,
      "t": 141639.26399999944,
      "d": 2459.014999999985,
      "v": 79
    },
    {
      "midi": 41,
      "hit": false,
      "t": 142366.7226041661,
      "d": 368.8522499999963,
      "v": 99
    },
    {
      "midi": 29,
      "hit": false,
      "t": 142366.7226041661,
      "d": 379.09814583332627,
      "v": 99
    },
    {
      "midi": 29,
      "hit": false,
      "t": 143114.67299999943,
      "d": 2110.6545416666486,
      "v": 99
    },
    {
      "midi": 41,
      "hit": false,
      "t": 143114.67299999943,
      "d": 2131.1463333333086,
      "v": 99
    },
    {
      "midi": 56,
      "hit": false,
      "t": 144088.0331041661,
      "d": 829.9175624999916,
      "v": 49
    },
    {
      "midi": 60,
      "hit": false,
      "t": 144344.18049999943,
      "d": 532.7865833333344,
      "v": 100
    },
    {
      "midi": 63,
      "hit": false,
      "t": 144825.7376041661,
      "d": 133.19664583331905,
      "v": 78
    },
    {
      "midi": 61,
      "hit": false,
      "t": 145563.44210416608,
      "d": 706.9668124999735,
      "v": 100
    },
    {
      "midi": 68,
      "hit": false,
      "t": 145563.44210416608,
      "d": 768.4421874999534,
      "v": 59
    },
    {
      "midi": 30,
      "hit": false,
      "t": 145573.6879999994,
      "d": 471.31120833332534,
      "v": 99
    },
    {
      "midi": 42,
      "hit": false,
      "t": 145573.6879999994,
      "d": 471.31120833332534,
      "v": 99
    },
    {
      "midi": 65,
      "hit": false,
      "t": 145573.6879999994,
      "d": 676.2291249999835,
      "v": 100
    },
    {
      "midi": 58,
      "hit": false,
      "t": 145573.6879999994,
      "d": 809.4257708333025,
      "v": 69
    },
    {
      "midi": 42,
      "hit": false,
      "t": 146301.14660416605,
      "d": 368.8522499999963,
      "v": 99
    },
    {
      "midi": 30,
      "hit": false,
      "t": 146301.14660416605,
      "d": 379.09814583332627,
      "v": 99
    },
    {
      "midi": 63,
      "hit": false,
      "t": 147038.85110416604,
      "d": 1557.3761666666833,
      "v": 93
    },
    {
      "midi": 61,
      "hit": false,
      "t": 147038.85110416604,
      "d": 1649.5892291666823,
      "v": 88
    },
    {
      "midi": 58,
      "hit": false,
      "t": 147049.09699999937,
      "d": 1475.4090000000142,
      "v": 52
    },
    {
      "midi": 68,
      "hit": false,
      "t": 147049.09699999937,
      "d": 1803.2776666666905,
      "v": 52
    },
    {
      "midi": 23,
      "hit": false,
      "t": 147049.09699999937,
      "d": 2110.6545416666777,
      "v": 99
    },
    {
      "midi": 35,
      "hit": false,
      "t": 147049.09699999937,
      "d": 2131.1463333333377,
      "v": 99
    },
    {
      "midi": 58,
      "hit": false,
      "t": 148760.16160416606,
      "d": 266.3932916666672,
      "v": 59
    },
    {
      "midi": 58,
      "hit": false,
      "t": 149497.86610416605,
      "d": 963.1142083333689,
      "v": 97
    },
    {
      "midi": 61,
      "hit": false,
      "t": 149497.86610416605,
      "d": 983.6060000000289,
      "v": 90
    },
    {
      "midi": 63,
      "hit": false,
      "t": 149497.86610416605,
      "d": 1014.3436875000189,
      "v": 70
    },
    {
      "midi": 32,
      "hit": false,
      "t": 149508.11199999938,
      "d": 471.31120833335444,
      "v": 99
    },
    {
      "midi": 44,
      "hit": false,
      "t": 149508.11199999938,
      "d": 471.31120833335444,
      "v": 99
    },
    {
      "midi": 54,
      "hit": false,
      "t": 149508.11199999938,
      "d": 1096.310854166688,
      "v": 78
    },
    {
      "midi": 44,
      "hit": false,
      "t": 150235.57060416607,
      "d": 368.8522499999963,
      "v": 99
    },
    {
      "midi": 32,
      "hit": false,
      "t": 150235.57060416607,
      "d": 379.09814583332627,
      "v": 99
    },
    {
      "midi": 32,
      "hit": false,
      "t": 150983.5209999994,
      "d": 2110.6545416666486,
      "v": 99
    },
    {
      "midi": 44,
      "hit": false,
      "t": 150983.5209999994,
      "d": 2131.1463333333086,
      "v": 99
    },
    {
      "midi": 54,
      "hit": false,
      "t": 151956.88110416607,
      "d": 584.0160624999844,
      "v": 52
    },
    {
      "midi": 61,
      "hit": false,
      "t": 152213.0284999994,
      "d": 133.19664583331905,
      "v": 70
    },
    {
      "midi": 54,
      "hit": false,
      "t": 152694.58560416606,
      "d": 297.1309791666572,
      "v": 90
    },
    {
      "midi": 53,
      "hit": false,
      "t": 153432.29010416605,
      "d": 2182.3758125000168,
      "v": 99
    },
    {
      "midi": 61,
      "hit": false,
      "t": 153432.29010416605,
      "d": 2182.3758125000168,
      "v": 104
    },
    {
      "midi": 25,
      "hit": false,
      "t": 153442.53599999938,
      "d": 471.31120833335444,
      "v": 99
    },
    {
      "midi": 37,
      "hit": false,
      "t": 153442.53599999938,
      "d": 471.31120833335444,
      "v": 99
    },
    {
      "midi": 56,
      "hit": false,
      "t": 153442.53599999938,
      "d": 2151.638125000027,
      "v": 104
    },
    {
      "midi": 37,
      "hit": false,
      "t": 154169.99460416607,
      "d": 368.8522499999963,
      "v": 95
    },
    {
      "midi": 25,
      "hit": false,
      "t": 154169.99460416607,
      "d": 379.09814583332627,
      "v": 95
    },
    {
      "midi": 25,
      "hit": false,
      "t": 154917.9449999994,
      "d": 2110.6545416666777,
      "v": 95
    },
    {
      "midi": 37,
      "hit": false,
      "t": 154917.9449999994,
      "d": 2131.1463333333377,
      "v": 95
    },
    {
      "midi": 53,
      "hit": false,
      "t": 155901.5509999994,
      "d": 645.4914375000226,
      "v": 7
    },
    {
      "midi": 56,
      "hit": false,
      "t": 156137.20660416607,
      "d": 665.9832291666826,
      "v": 49
    },
    {
      "midi": 61,
      "hit": false,
      "t": 156639.25549999942,
      "d": 194.67202083332813,
      "v": 99
    },
    {
      "midi": 53,
      "hit": false,
      "t": 156874.91110416607,
      "d": 92.21306249999907,
      "v": 76
    },
    {
      "midi": 53,
      "hit": false,
      "t": 157366.71410416608,
      "d": 1075.8190624999988,
      "v": 83
    },
    {
      "midi": 60,
      "hit": false,
      "t": 157366.71410416608,
      "d": 1075.8190624999988,
      "v": 97
    },
    {
      "midi": 45,
      "hit": false,
      "t": 157366.71410416608,
      "d": 1198.769812499988,
      "v": 85
    },
    {
      "midi": 57,
      "hit": false,
      "t": 157376.9599999994,
      "d": 1065.5731666666688,
      "v": 95
    },
    {
      "midi": 33,
      "hit": false,
      "t": 157376.9599999994,
      "d": 1157.786229166668,
      "v": 98
    },
    {
      "midi": 45,
      "hit": false,
      "t": 157376.96000000002,
      "d": 1936.4743125000095,
      "v": 73
    },
    {
      "midi": 53,
      "hit": false,
      "t": 157868.76300000004,
      "d": 2141.3922291666677,
      "v": 68
    },
    {
      "midi": 60,
      "hit": false,
      "t": 158360.56600000002,
      "d": 655.7373333333235,
      "v": 67
    },
    {
      "midi": 45,
      "hit": false,
      "t": 158842.12310416606,
      "d": 1854.5071458333114,
      "v": 88
    },
    {
      "midi": 33,
      "hit": false,
      "t": 158852.3689999994,
      "d": 1834.0153541666514,
      "v": 97
    },
    {
      "midi": 57,
      "hit": false,
      "t": 159088.02460416668,
      "d": 235.65560416667722,
      "v": 61
    },
    {
      "midi": 60,
      "hit": false,
      "t": 159333.9261041667,
      "d": 266.3932916666672,
      "v": 69
    },
    {
      "midi": 57,
      "hit": false,
      "t": 159579.8276041667,
      "d": 276.6391874999972,
      "v": 59
    },
    {
      "midi": 53,
      "hit": false,
      "t": 159835.9749999994,
      "d": 553.2783749999944,
      "v": 76
    },
    {
      "midi": 65,
      "hit": false,
      "t": 159835.97500000003,
      "d": 727.4586041666626,
      "v": 74
    },
    {
      "midi": 57,
      "hit": false,
      "t": 160081.8764999994,
      "d": 348.3604583333072,
      "v": 95
    },
    {
      "midi": 60,
      "hit": false,
      "t": 160563.4336041667,
      "d": 286.8850833333272,
      "v": 60
    },
    {
      "midi": 57,
      "hit": false,
      "t": 160573.6794999994,
      "d": 122.95074999998906,
      "v": 81
    },
    {
      "midi": 60,
      "hit": false,
      "t": 160573.6794999994,
      "d": 153.68843749997905,
      "v": 91
    },
    {
      "midi": 53,
      "hit": false,
      "t": 160809.33510416604,
      "d": 133.19664583331905,
      "v": 96
    },
    {
      "midi": 57,
      "hit": false,
      "t": 160809.3351041667,
      "d": 512.2947916666453,
      "v": 62
    },
    {
      "midi": 53,
      "hit": false,
      "t": 161055.23660416668,
      "d": 276.6391874999972,
      "v": 68
    },
    {
      "midi": 58,
      "hit": false,
      "t": 161301.13810416602,
      "d": 1096.3108541666588,
      "v": 95
    },
    {
      "midi": 61,
      "hit": false,
      "t": 161301.13810416602,
      "d": 1116.8026458333188,
      "v": 93
    },
    {
      "midi": 53,
      "hit": false,
      "t": 161311.38399999935,
      "d": 1075.8190624999988,
      "v": 96
    },
    {
      "midi": 34,
      "hit": false,
      "t": 161311.38399999935,
      "d": 1157.786229166668,
      "v": 95
    },
    {
      "midi": 46,
      "hit": false,
      "t": 161311.38399999935,
      "d": 1178.278020833328,
      "v": 92
    },
    {
      "midi": 46,
      "hit": false,
      "t": 161311.38400000002,
      "d": 1096.3108541666588,
      "v": 68
    },
    {
      "midi": 53,
      "hit": false,
      "t": 161803.187,
      "d": 655.7373333333526,
      "v": 69
    },
    {
      "midi": 58,
      "hit": false,
      "t": 162284.7441041667,
      "d": 655.7373333333235,
      "v": 74
    },
    {
      "midi": 34,
      "hit": false,
      "t": 162776.547104166,
      "d": 327.8686666666763,
      "v": 89
    },
    {
      "midi": 46,
      "hit": false,
      "t": 162786.79299999934,
      "d": 348.3604583333363,
      "v": 73
    },
    {
      "midi": 53,
      "hit": false,
      "t": 163032.6945,
      "d": 430.32762500000536,
      "v": 67
    },
    {
      "midi": 61,
      "hit": false,
      "t": 163268.3501041667,
      "d": 225.40970833331812,
      "v": 66
    },
    {
      "midi": 34,
      "hit": false,
      "t": 163278.59599999935,
      "d": 1454.9172083333542,
      "v": 83
    },
    {
      "midi": 46,
      "hit": false,
      "t": 163278.59599999935,
      "d": 1475.4090000000142,
      "v": 68
    },
    {
      "midi": 58,
      "hit": false,
      "t": 163524.4975,
      "d": 266.3932916666672,
      "v": 57
    },
    {
      "midi": 65,
      "hit": false,
      "t": 163760.15310416667,
      "d": 747.9503958333225,
      "v": 74
    },
    {
      "midi": 53,
      "hit": false,
      "t": 164016.30049999934,
      "d": 553.2783750000235,
      "v": 74
    },
    {
      "midi": 61,
      "hit": false,
      "t": 164497.85760416667,
      "d": 286.8850833333272,
      "v": 48
    },
    {
      "midi": 61,
      "hit": false,
      "t": 164508.10349999936,
      "d": 204.91791666668723,
      "v": 81
    },
    {
      "midi": 58,
      "hit": false,
      "t": 164754.00499999936,
      "d": 215.16381249998813,
      "v": 99
    },
    {
      "midi": 58,
      "hit": false,
      "t": 164754.005,
      "d": 553.2783749999653,
      "v": 66
    },
    {
      "midi": 53,
      "hit": false,
      "t": 164989.660604166,
      "d": 1608.6056458333333,
      "v": 88
    },
    {
      "midi": 53,
      "hit": false,
      "t": 164999.90649999998,
      "d": 276.6391874999972,
      "v": 68
    },
    {
      "midi": 33,
      "hit": false,
      "t": 165235.56210416602,
      "d": 1147.540333333338,
      "v": 66
    },
    {
      "midi": 45,
      "hit": false,
      "t": 165235.56210416602,
      "d": 1198.769812500017,
      "v": 69
    },
    {
      "midi": 60,
      "hit": false,
      "t": 165235.56210416602,
      "d": 1311.474666666676,
      "v": 98
    },
    {
      "midi": 57,
      "hit": false,
      "t": 165235.56210416602,
      "d": 1331.966458333336,
      "v": 97
    },
    {
      "midi": 45,
      "hit": false,
      "t": 165235.56210416666,
      "d": 1014.3436874999607,
      "v": 73
    },
    {
      "midi": 53,
      "hit": false,
      "t": 165727.36510416662,
      "d": 553.2783749999944,
      "v": 67
    },
    {
      "midi": 57,
      "hit": false,
      "t": 166219.16810416663,
      "d": 809.4257708333316,
      "v": 69
    },
    {
      "midi": 33,
      "hit": false,
      "t": 166710.971104166,
      "d": 338.1145625000063,
      "v": 74
    },
    {
      "midi": 45,
      "hit": false,
      "t": 166710.971104166,
      "d": 368.8522499999963,
      "v": 74
    },
    {
      "midi": 53,
      "hit": false,
      "t": 166967.11849999995,
      "d": 266.3932916666672,
      "v": 67
    },
    {
      "midi": 33,
      "hit": false,
      "t": 167202.774104166,
      "d": 1331.966458333336,
      "v": 87
    },
    {
      "midi": 45,
      "hit": false,
      "t": 167202.774104166,
      "d": 1372.950041666656,
      "v": 71
    },
    {
      "midi": 60,
      "hit": false,
      "t": 167202.77410416663,
      "d": 297.1309791666572,
      "v": 66
    },
    {
      "midi": 57,
      "hit": false,
      "t": 167458.92149999997,
      "d": 297.1309791666572,
      "v": 66
    },
    {
      "midi": 65,
      "hit": false,
      "t": 167704.82299999995,
      "d": 778.6880833333416,
      "v": 74
    },
    {
      "midi": 53,
      "hit": false,
      "t": 167940.47860416598,
      "d": 532.7865833333344,
      "v": 93
    },
    {
      "midi": 57,
      "hit": false,
      "t": 168432.281604166,
      "d": 286.8850833332981,
      "v": 88
    },
    {
      "midi": 60,
      "hit": false,
      "t": 168442.52749999997,
      "d": 307.3768749999872,
      "v": 63
    },
    {
      "midi": 57,
      "hit": false,
      "t": 168678.18310416662,
      "d": 532.7865833333344,
      "v": 64
    },
    {
      "midi": 60,
      "hit": false,
      "t": 168688.4289999993,
      "d": 143.44254166664905,
      "v": 101
    },
    {
      "midi": 53,
      "hit": false,
      "t": 168934.33049999995,
      "d": 286.8850833333272,
      "v": 63
    },
    {
      "midi": 34,
      "hit": false,
      "t": 169180.2319999993,
      "d": 1178.278020833328,
      "v": 89
    },
    {
      "midi": 46,
      "hit": false,
      "t": 169180.2319999993,
      "d": 1219.2616041666479,
      "v": 73
    },
    {
      "midi": 58,
      "hit": false,
      "t": 169180.2319999993,
      "d": 2172.1299166666286,
      "v": 91
    },
    {
      "midi": 61,
      "hit": false,
      "t": 169180.2319999993,
      "d": 2182.3758124999586,
      "v": 91
    },
    {
      "midi": 53,
      "hit": false,
      "t": 169180.2319999993,
      "d": 2192.6217083332886,
      "v": 97
    },
    {
      "midi": 46,
      "hit": false,
      "t": 169180.23199999996,
      "d": 973.3601041666407,
      "v": 61
    },
    {
      "midi": 53,
      "hit": false,
      "t": 169661.78910416662,
      "d": 614.7537499999744,
      "v": 71
    },
    {
      "midi": 58,
      "hit": false,
      "t": 170163.83799999993,
      "d": 891.3929375000007,
      "v": 61
    },
    {
      "midi": 34,
      "hit": false,
      "t": 170645.39510416595,
      "d": 215.16381249998813,
      "v": 96
    },
    {
      "midi": 46,
      "hit": false,
      "t": 170655.64099999928,
      "d": 235.65560416664812,
      "v": 73
    },
    {
      "midi": 53,
      "hit": false,
      "t": 170901.54249999992,
      "d": 409.83583333334536,
      "v": 63
    },
    {
      "midi": 46,
      "hit": false,
      "t": 171137.19810416593,
      "d": 686.4750208333135,
      "v": 80
    },
    {
      "midi": 34,
      "hit": false,
      "t": 171137.19810416593,
      "d": 1065.5731666666397,
      "v": 99
    },
    {
      "midi": 61,
      "hit": false,
      "t": 171147.44399999993,
      "d": 235.65560416667722,
      "v": 52
    },
    {
      "midi": 58,
      "hit": false,
      "t": 171383.0996041666,
      "d": 266.3932916666672,
      "v": 46
    },
    {
      "midi": 65,
      "hit": false,
      "t": 171629.00110416661,
      "d": 778.6880833333125,
      "v": 74
    },
    {
      "midi": 46,
      "hit": false,
      "t": 172120.8041041659,
      "d": 297.1309791666572,
      "v": 97
    },
    {
      "midi": 44,
      "hit": false,
      "t": 172376.95149999924,
      "d": 184.42612499999814,
      "v": 93
    },
    {
      "midi": 61,
      "hit": false,
      "t": 172376.95149999994,
      "d": 327.8686666666472,
      "v": 49
    },
    {
      "midi": 58,
      "hit": false,
      "t": 172612.6071041666,
      "d": 389.34404166665627,
      "v": 69
    },
    {
      "midi": 42,
      "hit": false,
      "t": 172622.85299999925,
      "d": 297.1309791666863,
      "v": 97
    },
    {
      "midi": 41,
      "hit": false,
      "t": 172868.75449999925,
      "d": 276.6391874999972,
      "v": 98
    },
    {
      "midi": 53,
      "hit": false,
      "t": 172868.75449999992,
      "d": 348.3604583333363,
      "v": 63
    },
    {
      "midi": 58,
      "hit": false,
      "t": 173104.41010416593,
      "d": 881.1470416666707,
      "v": 99
    },
    {
      "midi": 39,
      "hit": false,
      "t": 173104.41010416593,
      "d": 1004.0977916666889,
      "v": 78
    },
    {
      "midi": 54,
      "hit": false,
      "t": 173114.65599999926,
      "d": 860.6552500000107,
      "v": 64
    },
    {
      "midi": 61,
      "hit": false,
      "t": 173114.65599999926,
      "d": 932.3765208333498,
      "v": 87
    },
    {
      "midi": 27,
      "hit": false,
      "t": 173114.65599999926,
      "d": 993.8518958333589,
      "v": 89
    },
    {
      "midi": 46,
      "hit": false,
      "t": 173114.65599999993,
      "d": 594.2619583333144,
      "v": 74
    },
    {
      "midi": 54,
      "hit": false,
      "t": 173596.21310416659,
      "d": 563.5242708333244,
      "v": 68
    },
    {
      "midi": 58,
      "hit": false,
      "t": 174088.01610416657,
      "d": 778.6880833333125,
      "v": 63
    },
    {
      "midi": 39,
      "hit": false,
      "t": 174333.91760416597,
      "d": 133.19664583331905,
      "v": 67
    },
    {
      "midi": 54,
      "hit": false,
      "t": 174333.91760416597,
      "d": 829.9175624999625,
      "v": 77
    },
    {
      "midi": 27,
      "hit": false,
      "t": 174344.1634999993,
      "d": 133.19664583331905,
      "v": 70
    },
    {
      "midi": 39,
      "hit": false,
      "t": 174579.81910416594,
      "d": 215.16381249998813,
      "v": 67
    },
    {
      "midi": 65,
      "hit": false,
      "t": 174579.81910416594,
      "d": 655.7373333333235,
      "v": 77
    },
    {
      "midi": 27,
      "hit": false,
      "t": 174590.06499999927,
      "d": 204.91791666665813,
      "v": 70
    },
    {
      "midi": 54,
      "hit": false,
      "t": 174825.72060416656,
      "d": 276.6391874999681,
      "v": 59
    },
    {
      "midi": 27,
      "hit": false,
      "t": 175071.62210416593,
      "d": 1168.032125000027,
      "v": 95
    },
    {
      "midi": 39,
      "hit": false,
      "t": 175071.62210416593,
      "d": 1188.523916666687,
      "v": 77
    },
    {
      "midi": 63,
      "hit": false,
      "t": 175071.62210416654,
      "d": 245.9014999999781,
      "v": 56
    },
    {
      "midi": 58,
      "hit": false,
      "t": 175327.76949999985,
      "d": 317.6227708333463,
      "v": 52
    },
    {
      "midi": 54,
      "hit": false,
      "t": 175563.42510416594,
      "d": 809.4257708333316,
      "v": 69
    },
    {
      "midi": 66,
      "hit": false,
      "t": 175563.42510416653,
      "d": 788.9339791666716,
      "v": 74
    },
    {
      "midi": 61,
      "hit": false,
      "t": 176055.22810416596,
      "d": 368.8522499999963,
      "v": 94
    },
    {
      "midi": 63,
      "hit": false,
      "t": 176301.12960416652,
      "d": 266.3932916666672,
      "v": 61
    },
    {
      "midi": 39,
      "hit": false,
      "t": 176547.03110416594,
      "d": 143.44254166667815,
      "v": 77
    },
    {
      "midi": 27,
      "hit": false,
      "t": 176547.03110416594,
      "d": 163.93433333333815,
      "v": 92
    },
    {
      "midi": 58,
      "hit": false,
      "t": 176557.27699999986,
      "d": 440.57352083333535,
      "v": 63
    },
    {
      "midi": 54,
      "hit": false,
      "t": 176803.17849999986,
      "d": 245.90150000000722,
      "v": 59
    },
    {
      "midi": 29,
      "hit": false,
      "t": 177038.83410416596,
      "d": 1168.032124999998,
      "v": 86
    },
    {
      "midi": 53,
      "hit": false,
      "t": 177049.0799999993,
      "d": 983.6059999999998,
      "v": 88
    },
    {
      "midi": 56,
      "hit": false,
      "t": 177049.0799999993,
      "d": 993.8518958333298,
      "v": 84
    },
    {
      "midi": 61,
      "hit": false,
      "t": 177049.0799999993,
      "d": 1004.0977916666598,
      "v": 94
    },
    {
      "midi": 41,
      "hit": false,
      "t": 177049.0799999993,
      "d": 1188.523916666658,
      "v": 91
    },
    {
      "midi": 44,
      "hit": false,
      "t": 177049.07999999987,
      "d": 1045.0813749999797,
      "v": 72
    },
    {
      "midi": 53,
      "hit": false,
      "t": 177530.63710416653,
      "d": 573.7701666666544,
      "v": 73
    },
    {
      "midi": 56,
      "hit": false,
      "t": 178032.68599999984,
      "d": 717.2127083333326,
      "v": 69
    },
    {
      "midi": 53,
      "hit": false,
      "t": 178278.58749999927,
      "d": 143.44254166667815,
      "v": 67
    },
    {
      "midi": 41,
      "hit": false,
      "t": 178514.24310416594,
      "d": 215.16381249998813,
      "v": 73
    },
    {
      "midi": 29,
      "hit": false,
      "t": 178524.48899999927,
      "d": 184.42612499999814,
      "v": 74
    },
    {
      "midi": 53,
      "hit": false,
      "t": 178524.48899999927,
      "d": 399.58993749998626,
      "v": 64
    },
    {
      "midi": 65,
      "hit": false,
      "t": 178524.48899999927,
      "d": 461.06531249999534,
      "v": 97
    },
    {
      "midi": 53,
      "hit": false,
      "t": 178760.1446041665,
      "d": 276.6391874999972,
      "v": 63
    },
    {
      "midi": 41,
      "hit": false,
      "t": 179006.04610416593,
      "d": 1219.2616041666479,
      "v": 80
    },
    {
      "midi": 61,
      "hit": false,
      "t": 179006.0461041665,
      "d": 225.40970833331812,
      "v": 50
    },
    {
      "midi": 29,
      "hit": false,
      "t": 179016.29199999926,
      "d": 1198.769812499988,
      "v": 89
    },
    {
      "midi": 56,
      "hit": false,
      "t": 179262.19349999982,
      "d": 235.65560416667722,
      "v": 57
    },
    {
      "midi": 53,
      "hit": false,
      "t": 179508.09499999927,
      "d": 368.8522499999963,
      "v": 76
    },
    {
      "midi": 65,
      "hit": false,
      "t": 179508.09499999983,
      "d": 778.6880833333125,
      "v": 67
    },
    {
      "midi": 56,
      "hit": false,
      "t": 179989.65210416593,
      "d": 461.06531249999534,
      "v": 78
    },
    {
      "midi": 61,
      "hit": false,
      "t": 179999.89799999926,
      "d": 461.06531249999534,
      "v": 97
    },
    {
      "midi": 61,
      "hit": false,
      "t": 180245.79949999982,
      "d": 286.8850833333272,
      "v": 54
    },
    {
      "midi": 56,
      "hit": false,
      "t": 180481.45510416647,
      "d": 502.04889583334443,
      "v": 72
    },
    {
      "midi": 29,
      "hit": false,
      "t": 180491.70099999924,
      "d": 92.21306249999907,
      "v": 92
    },
    {
      "midi": 41,
      "hit": false,
      "t": 180491.70099999924,
      "d": 92.21306249999907,
      "v": 80
    },
    {
      "midi": 53,
      "hit": false,
      "t": 180727.35660416647,
      "d": 297.1309791666572,
      "v": 74
    },
    {
      "midi": 54,
      "hit": false,
      "t": 180973.2581041659,
      "d": 1045.0813749999797,
      "v": 68
    },
    {
      "midi": 32,
      "hit": false,
      "t": 180973.2581041659,
      "d": 1311.474666666647,
      "v": 96
    },
    {
      "midi": 58,
      "hit": false,
      "t": 180983.50399999923,
      "d": 1086.0649583333288,
      "v": 97
    },
    {
      "midi": 61,
      "hit": false,
      "t": 180983.50399999923,
      "d": 1086.0649583333288,
      "v": 97
    },
    {
      "midi": 44,
      "hit": false,
      "t": 180983.50399999923,
      "d": 1331.966458333307,
      "v": 87
    },
    {
      "midi": 44,
      "hit": false,
      "t": 180983.5039999998,
      "d": 1803.2776666666614,
      "v": 72
    },
    {
      "midi": 51,
      "hit": false,
      "t": 181465.06110416647,
      "d": 409.83583333334536,
      "v": 69
    },
    {
      "midi": 54,
      "hit": false,
      "t": 181956.86410416648,
      "d": 891.3929375000007,
      "v": 74
    },
    {
      "midi": 44,
      "hit": false,
      "t": 182448.66710416586,
      "d": 399.58993749998626,
      "v": 73
    },
    {
      "midi": 66,
      "hit": false,
      "t": 182448.66710416586,
      "d": 870.9011458333116,
      "v": 69
    },
    {
      "midi": 32,
      "hit": false,
      "t": 182458.9129999992,
      "d": 348.3604583333363,
      "v": 96
    },
    {
      "midi": 54,
      "hit": false,
      "t": 182458.9129999992,
      "d": 584.0160624999844,
      "v": 43
    },
    {
      "midi": 58,
      "hit": false,
      "t": 182458.9129999992,
      "d": 737.7044999999925,
      "v": 87
    },
    {
      "midi": 51,
      "hit": false,
      "t": 182694.56860416647,
      "d": 307.3768750000163,
      "v": 69
    },
    {
      "midi": 32,
      "hit": false,
      "t": 182940.47010416584,
      "d": 1075.8190624999988,
      "v": 89
    },
    {
      "midi": 44,
      "hit": false,
      "t": 182940.47010416584,
      "d": 1137.294437500008,
      "v": 74
    },
    {
      "midi": 58,
      "hit": false,
      "t": 182940.47010416648,
      "d": 245.90150000000722,
      "v": 65
    },
    {
      "midi": 54,
      "hit": false,
      "t": 183186.3716041665,
      "d": 297.1309791666863,
      "v": 65
    },
    {
      "midi": 63,
      "hit": false,
      "t": 183432.2731041665,
      "d": 727.4586041666917,
      "v": 74
    },
    {
      "midi": 56,
      "hit": false,
      "t": 183924.07610416584,
      "d": 204.91791666668723,
      "v": 44
    },
    {
      "midi": 61,
      "hit": false,
      "t": 183924.07610416584,
      "d": 317.6227708333463,
      "v": 97
    },
    {
      "midi": 58,
      "hit": false,
      "t": 183934.32199999917,
      "d": 307.3768750000163,
      "v": 81
    },
    {
      "midi": 58,
      "hit": false,
      "t": 184169.97760416652,
      "d": 266.3932916666672,
      "v": 62
    },
    {
      "midi": 44,
      "hit": false,
      "t": 184415.87910416586,
      "d": 276.6391874999972,
      "v": 60
    },
    {
      "midi": 32,
      "hit": false,
      "t": 184426.12499999919,
      "d": 194.67202083332813,
      "v": 83
    },
    {
      "midi": 54,
      "hit": false,
      "t": 184426.12499999985,
      "d": 399.58993749998626,
      "v": 67
    },
    {
      "midi": 58,
      "hit": false,
      "t": 184774.48545833252,
      "d": 2213.1135000000068,
      "v": 60
    },
    {
      "midi": 51,
      "hit": false,
      "t": 184835.96083333317,
      "d": 952.8683124999516,
      "v": 56
    },
    {
      "midi": 61,
      "hit": false,
      "t": 184846.20672916586,
      "d": 2141.3922291666677,
      "v": 95
    },
    {
      "midi": 54,
      "hit": false,
      "t": 184876.9444166665,
      "d": 952.8683124999516,
      "v": 63
    },
    {
      "midi": 70,
      "hit": false,
      "t": 184907.68210416587,
      "d": 2213.1134999999776,
      "v": 79
    },
    {
      "midi": 32,
      "hit": false,
      "t": 184917.9279999992,
      "d": 2407.785520833306,
      "v": 80
    },
    {
      "midi": 44,
      "hit": false,
      "t": 184917.9279999992,
      "d": 2489.752687499975,
      "v": 56
    },
    {
      "midi": 44,
      "hit": false,
      "t": 184917.9279999998,
      "d": 952.8683124999516,
      "v": 71
    },
    {
      "midi": 58,
      "hit": false,
      "t": 184928.17389583314,
      "d": 881.1470416666416,
      "v": 72
    },
    {
      "midi": 63,
      "hit": false,
      "t": 184969.15747916646,
      "d": 891.3929374999716,
      "v": 79
    },
    {
      "midi": 61,
      "hit": false,
      "t": 188842.10610416642,
      "d": 2100.4086458333477,
      "v": 74
    },
    {
      "midi": 53,
      "hit": false,
      "t": 188842.10610416642,
      "d": 2141.3922291666677,
      "v": 72
    },
    {
      "midi": 25,
      "hit": false,
      "t": 188852.35199999975,
      "d": 471.31120833335444,
      "v": 79
    },
    {
      "midi": 37,
      "hit": false,
      "t": 188852.35199999975,
      "d": 481.55710416668444,
      "v": 79
    },
    {
      "midi": 56,
      "hit": false,
      "t": 188852.35199999975,
      "d": 2110.6545416666777,
      "v": 58
    },
    {
      "midi": 25,
      "hit": false,
      "t": 189579.81060416644,
      "d": 379.09814583332627,
      "v": 79
    },
    {
      "midi": 37,
      "hit": false,
      "t": 189590.05649999977,
      "d": 358.6063541666663,
      "v": 79
    },
    {
      "midi": 25,
      "hit": false,
      "t": 190317.51510416644,
      "d": 2120.9004374999786,
      "v": 79
    },
    {
      "midi": 37,
      "hit": false,
      "t": 190327.76099999977,
      "d": 2131.1463333333086,
      "v": 79
    },
    {
      "midi": 56,
      "hit": false,
      "t": 191301.12110416644,
      "d": 153.68843750000815,
      "v": 43
    },
    {
      "midi": 53,
      "hit": false,
      "t": 191311.36699999977,
      "d": 430.32762500000536,
      "v": 60
    },
    {
      "midi": 56,
      "hit": false,
      "t": 191547.02260416644,
      "d": 81.96716666666907,
      "v": 43
    },
    {
      "midi": 61,
      "hit": false,
      "t": 191547.02260416644,
      "d": 163.93433333333815,
      "v": 72
    },
    {
      "midi": 63,
      "hit": false,
      "t": 192049.07149999976,
      "d": 174.18022916666814,
      "v": 83
    },
    {
      "midi": 30,
      "hit": false,
      "t": 192776.5301041664,
      "d": 461.06531249999534,
      "v": 79
    },
    {
      "midi": 42,
      "hit": false,
      "t": 192776.5301041664,
      "d": 461.06531249999534,
      "v": 79
    },
    {
      "midi": 61,
      "hit": false,
      "t": 192776.5301041664,
      "d": 2090.1627499999886,
      "v": 61
    },
    {
      "midi": 54,
      "hit": false,
      "t": 192776.5301041664,
      "d": 2202.8676041666477,
      "v": 59
    },
    {
      "midi": 58,
      "hit": false,
      "t": 192786.77599999972,
      "d": 2069.6709583333286,
      "v": 74
    },
    {
      "midi": 30,
      "hit": false,
      "t": 193514.23460416638,
      "d": 1383.195937499986,
      "v": 79
    },
    {
      "midi": 42,
      "hit": false,
      "t": 193514.23460416638,
      "d": 1383.195937499986,
      "v": 79
    },
    {
      "midi": 30,
      "hit": false,
      "t": 195235.54510416638,
      "d": 1229.5074999999779,
      "v": 79
    },
    {
      "midi": 54,
      "hit": false,
      "t": 195245.7909999997,
      "d": 92.21306249999907,
      "v": 38
    },
    {
      "midi": 58,
      "hit": false,
      "t": 195245.7909999997,
      "d": 92.21306249999907,
      "v": 40
    },
    {
      "midi": 42,
      "hit": false,
      "t": 195245.7909999997,
      "d": 1229.5074999999779,
      "v": 79
    },
    {
      "midi": 54,
      "hit": false,
      "t": 195481.44660416638,
      "d": 133.19664583331905,
      "v": 34
    },
    {
      "midi": 61,
      "hit": false,
      "t": 195491.6924999997,
      "d": 143.44254166664905,
      "v": 74
    },
    {
      "midi": 63,
      "hit": false,
      "t": 195983.4954999997,
      "d": 92.21306249999907,
      "v": 77
    },
    {
      "midi": 34,
      "hit": false,
      "t": 196710.95410416636,
      "d": 440.57352083330625,
      "v": 79
    },
    {
      "midi": 58,
      "hit": false,
      "t": 196710.95410416636,
      "d": 2581.965749999945,
      "v": 55
    },
    {
      "midi": 46,
      "hit": false,
      "t": 196721.1999999997,
      "d": 430.32762499997625,
      "v": 79
    },
    {
      "midi": 56,
      "hit": false,
      "t": 196721.1999999997,
      "d": 2438.5232083332958,
      "v": 39
    },
    {
      "midi": 61,
      "hit": false,
      "t": 196721.1999999997,
      "d": 2479.5067916666158,
      "v": 79
    },
    {
      "midi": 65,
      "hit": false,
      "t": 196721.1999999997,
      "d": 2581.965749999945,
      "v": 70
    },
    {
      "midi": 34,
      "hit": false,
      "t": 197458.90449999965,
      "d": 399.58993749998626,
      "v": 79
    },
    {
      "midi": 46,
      "hit": false,
      "t": 197458.90449999965,
      "d": 409.83583333331626,
      "v": 79
    },
    {
      "midi": 46,
      "hit": false,
      "t": 198186.36310416632,
      "d": 2079.9168541666295,
      "v": 79
    },
    {
      "midi": 34,
      "hit": false,
      "t": 198186.36310416632,
      "d": 2100.4086458332895,
      "v": 79
    },
    {
      "midi": 65,
      "hit": false,
      "t": 199415.8706041663,
      "d": 133.19664583331905,
      "v": 60
    },
    {
      "midi": 65,
      "hit": false,
      "t": 199917.9194999996,
      "d": 81.96716666666907,
      "v": 67
    },
    {
      "midi": 56,
      "hit": false,
      "t": 199917.9194999996,
      "d": 122.95074999998906,
      "v": 43
    },
    {
      "midi": 44,
      "hit": false,
      "t": 200645.37810416627,
      "d": 491.80300000001444,
      "v": 79
    },
    {
      "midi": 65,
      "hit": false,
      "t": 200645.37810416627,
      "d": 1249.999291666696,
      "v": 48
    },
    {
      "midi": 58,
      "hit": false,
      "t": 200645.37810416627,
      "d": 2223.359395833395,
      "v": 74
    },
    {
      "midi": 32,
      "hit": false,
      "t": 200655.6239999996,
      "d": 481.55710416668444,
      "v": 79
    },
    {
      "midi": 61,
      "hit": false,
      "t": 200655.6239999996,
      "d": 2264.342979166744,
      "v": 55
    },
    {
      "midi": 54,
      "hit": false,
      "t": 200655.6239999996,
      "d": 3299.178458333394,
      "v": 46
    },
    {
      "midi": 44,
      "hit": false,
      "t": 201383.0826041663,
      "d": 1424.1795208333642,
      "v": 79
    },
    {
      "midi": 32,
      "hit": false,
      "t": 201393.32849999962,
      "d": 1413.9336250000342,
      "v": 79
    },
    {
      "midi": 63,
      "hit": false,
      "t": 202131.03299999965,
      "d": 1239.753395833366,
      "v": 48
    },
    {
      "midi": 44,
      "hit": false,
      "t": 203104.39310416635,
      "d": 1106.5567499999888,
      "v": 79
    },
    {
      "midi": 32,
      "hit": false,
      "t": 203104.39310416635,
      "d": 1168.032124999998,
      "v": 79
    },
    {
      "midi": 61,
      "hit": false,
      "t": 203360.54049999968,
      "d": 358.6063541666663,
      "v": 55
    },
    {
      "midi": 61,
      "hit": false,
      "t": 203842.09760416634,
      "d": 102.45895833332906,
      "v": 38
    },
    {
      "midi": 63,
      "hit": false,
      "t": 203842.09760416634,
      "d": 112.70485416665906,
      "v": 55
    },
    {
      "midi": 68,
      "hit": false,
      "t": 204579.80210416633,
      "d": 2663.932916666672,
      "v": 41
    },
    {
      "midi": 29,
      "hit": false,
      "t": 204590.04799999966,
      "d": 389.34404166665627,
      "v": 79
    },
    {
      "midi": 41,
      "hit": false,
      "t": 204590.04799999966,
      "d": 409.83583333331626,
      "v": 79
    },
    {
      "midi": 56,
      "hit": false,
      "t": 204590.04799999966,
      "d": 2377.047833333345,
      "v": 39
    },
    {
      "midi": 60,
      "hit": false,
      "t": 204590.04799999966,
      "d": 2459.015000000014,
      "v": 63
    },
    {
      "midi": 63,
      "hit": false,
      "t": 204590.04799999966,
      "d": 2459.015000000014,
      "v": 63
    },
    {
      "midi": 29,
      "hit": false,
      "t": 205317.50660416632,
      "d": 358.6063541666663,
      "v": 79
    },
    {
      "midi": 41,
      "hit": false,
      "t": 205327.75249999965,
      "d": 399.58993750001537,
      "v": 79
    },
    {
      "midi": 41,
      "hit": false,
      "t": 206065.45699999967,
      "d": 1588.1138541666442,
      "v": 79
    },
    {
      "midi": 29,
      "hit": false,
      "t": 206065.45699999967,
      "d": 1598.3597499999742,
      "v": 79
    },
    {
      "midi": 56,
      "hit": false,
      "t": 207038.81710416634,
      "d": 829.9175624999334,
      "v": 39
    },
    {
      "midi": 60,
      "hit": false,
      "t": 207284.71860416632,
      "d": 543.0324791666353,
      "v": 80
    },
    {
      "midi": 63,
      "hit": false,
      "t": 207776.5216041663,
      "d": 133.19664583328995,
      "v": 62
    },
    {
      "midi": 41,
      "hit": false,
      "t": 207786.76749999964,
      "d": 286.885083333269,
      "v": 79
    },
    {
      "midi": 36,
      "hit": false,
      "t": 208032.6689999996,
      "d": 338.1145624999772,
      "v": 79
    },
    {
      "midi": 29,
      "hit": false,
      "t": 208278.57049999957,
      "d": 317.6227708333463,
      "v": 79
    },
    {
      "midi": 30,
      "hit": false,
      "t": 208514.22610416624,
      "d": 522.5406875000044,
      "v": 79
    },
    {
      "midi": 65,
      "hit": false,
      "t": 208514.22610416624,
      "d": 676.2291250000126,
      "v": 80
    },
    {
      "midi": 68,
      "hit": false,
      "t": 208514.22610416624,
      "d": 768.4421874999825,
      "v": 47
    },
    {
      "midi": 42,
      "hit": false,
      "t": 208524.47199999957,
      "d": 512.2947916666744,
      "v": 79
    },
    {
      "midi": 61,
      "hit": false,
      "t": 208524.47199999957,
      "d": 696.7209166666726,
      "v": 80
    },
    {
      "midi": 58,
      "hit": false,
      "t": 208524.47199999957,
      "d": 809.4257708333316,
      "v": 55
    },
    {
      "midi": 42,
      "hit": false,
      "t": 209251.93060416623,
      "d": 758.1962916666525,
      "v": 79
    },
    {
      "midi": 30,
      "hit": false,
      "t": 209262.17649999956,
      "d": 737.7044999999925,
      "v": 79
    },
    {
      "midi": 47,
      "hit": false,
      "t": 209989.63510416623,
      "d": 758.1962916666816,
      "v": 79
    },
    {
      "midi": 61,
      "hit": false,
      "t": 209989.63510416623,
      "d": 1649.5892291666823,
      "v": 70
    },
    {
      "midi": 68,
      "hit": false,
      "t": 209989.63510416623,
      "d": 1803.2776666666905,
      "v": 41
    },
    {
      "midi": 35,
      "hit": false,
      "t": 209999.88099999956,
      "d": 737.7045000000217,
      "v": 79
    },
    {
      "midi": 58,
      "hit": false,
      "t": 209999.88099999956,
      "d": 1475.4090000000142,
      "v": 41
    },
    {
      "midi": 63,
      "hit": false,
      "t": 209999.88099999956,
      "d": 1547.1302708333533,
      "v": 74
    },
    {
      "midi": 58,
      "hit": false,
      "t": 211721.19149999958,
      "d": 256.1473958333372,
      "v": 47
    },
    {
      "midi": 32,
      "hit": false,
      "t": 212448.65010416624,
      "d": 481.55710416668444,
      "v": 79
    },
    {
      "midi": 44,
      "hit": false,
      "t": 212448.65010416624,
      "d": 481.55710416668444,
      "v": 79
    },
    {
      "midi": 58,
      "hit": false,
      "t": 212448.65010416624,
      "d": 963.1142083333689,
      "v": 77
    },
    {
      "midi": 61,
      "hit": false,
      "t": 212448.65010416624,
      "d": 983.6060000000289,
      "v": 72
    },
    {
      "midi": 54,
      "hit": false,
      "t": 212448.65010416624,
      "d": 1096.310854166688,
      "v": 62
    },
    {
      "midi": 63,
      "hit": false,
      "t": 212458.89599999957,
      "d": 1014.3436875000189,
      "v": 55
    },
    {
      "midi": 44,
      "hit": false,
      "t": 213186.35460416626,
      "d": 368.8522499999963,
      "v": 79
    },
    {
      "midi": 32,
      "hit": false,
      "t": 213186.35460416626,
      "d": 379.09814583332627,
      "v": 79
    },
    {
      "midi": 32,
      "hit": false,
      "t": 213924.05910416626,
      "d": 2120.9004374999786,
      "v": 79
    },
    {
      "midi": 44,
      "hit": false,
      "t": 213934.3049999996,
      "d": 2131.1463333333086,
      "v": 79
    },
    {
      "midi": 54,
      "hit": false,
      "t": 214907.66510416626,
      "d": 584.0160624999844,
      "v": 41
    },
    {
      "midi": 61,
      "hit": false,
      "t": 215163.8124999996,
      "d": 133.19664583331905,
      "v": 55
    },
    {
      "midi": 54,
      "hit": false,
      "t": 215645.36960416625,
      "d": 297.1309791666572,
      "v": 72
    },
    {
      "midi": 37,
      "hit": false,
      "t": 216383.07410416624,
      "d": 512.2947916666744,
      "v": 79
    },
    {
      "midi": 56,
      "hit": false,
      "t": 216383.07410416624,
      "d": 706.9668125000026,
      "v": 80
    },
    {
      "midi": 53,
      "hit": false,
      "t": 216383.07410416624,
      "d": 809.4257708333316,
      "v": 55
    },
    {
      "midi": 25,
      "hit": false,
      "t": 216393.31999999957,
      "d": 512.2947916666744,
      "v": 79
    },
    {
      "midi": 61,
      "hit": false,
      "t": 216393.31999999957,
      "d": 676.2291250000126,
      "v": 80
    },
    {
      "midi": 25,
      "hit": false,
      "t": 217131.02449999956,
      "d": 737.7044999999925,
      "v": 79
    },
    {
      "midi": 37,
      "hit": false,
      "t": 217131.02449999956,
      "d": 747.9503958333225,
      "v": 79
    },
    {
      "midi": 58,
      "hit": false,
      "t": 217858.48310416623,
      "d": 676.2291250000126,
      "v": 76
    },
    {
      "midi": 46,
      "hit": false,
      "t": 217858.48310416623,
      "d": 758.1962916666525,
      "v": 76
    },
    {
      "midi": 63,
      "hit": false,
      "t": 217868.72899999956,
      "d": 676.2291250000126,
      "v": 76
    },
    {
      "midi": 56,
      "hit": false,
      "t": 217868.72899999956,
      "d": 696.7209166666726,
      "v": 76
    },
    {
      "midi": 34,
      "hit": false,
      "t": 217868.72899999956,
      "d": 737.7044999999925,
      "v": 76
    },
    {
      "midi": 53,
      "hit": false,
      "t": 217868.72899999956,
      "d": 809.4257708333316,
      "v": 52
    },
    {
      "midi": 27,
      "hit": false,
      "t": 220317.4981041662,
      "d": 481.55710416665534,
      "v": 79
    },
    {
      "midi": 39,
      "hit": false,
      "t": 220317.4981041662,
      "d": 481.55710416665534,
      "v": 79
    },
    {
      "midi": 63,
      "hit": false,
      "t": 220317.4981041662,
      "d": 2100.4086458333186,
      "v": 74
    },
    {
      "midi": 55,
      "hit": false,
      "t": 220317.4981041662,
      "d": 2141.3922291666386,
      "v": 72
    },
    {
      "midi": 58,
      "hit": false,
      "t": 220327.74399999954,
      "d": 2110.6545416666486,
      "v": 58
    },
    {
      "midi": 39,
      "hit": false,
      "t": 221055.2026041662,
      "d": 358.6063541666663,
      "v": 79
    },
    {
      "midi": 27,
      "hit": false,
      "t": 221065.44849999953,
      "d": 368.8522499999963,
      "v": 79
    },
    {
      "midi": 39,
      "hit": false,
      "t": 221792.9071041662,
      "d": 2131.1463333333086,
      "v": 79
    },
    {
      "midi": 27,
      "hit": false,
      "t": 221803.15299999953,
      "d": 2110.6545416666486,
      "v": 79
    },
    {
      "midi": 55,
      "hit": false,
      "t": 222776.5131041662,
      "d": 440.57352083333535,
      "v": 60
    },
    {
      "midi": 58,
      "hit": false,
      "t": 222786.75899999953,
      "d": 153.68843750000815,
      "v": 43
    },
    {
      "midi": 63,
      "hit": false,
      "t": 223022.4146041662,
      "d": 163.93433333333815,
      "v": 72
    },
    {
      "midi": 58,
      "hit": false,
      "t": 223032.66049999953,
      "d": 81.96716666666907,
      "v": 43
    },
    {
      "midi": 65,
      "hit": false,
      "t": 223524.46349999952,
      "d": 174.18022916666814,
      "v": 80
    },
    {
      "midi": 32,
      "hit": false,
      "t": 224251.92210416618,
      "d": 461.06531249999534,
      "v": 79
    },
    {
      "midi": 44,
      "hit": false,
      "t": 224251.92210416618,
      "d": 471.31120833332534,
      "v": 79
    },
    {
      "midi": 60,
      "hit": false,
      "t": 224251.92210416618,
      "d": 2079.9168541666586,
      "v": 74
    },
    {
      "midi": 63,
      "hit": false,
      "t": 224251.92210416618,
      "d": 2090.1627499999886,
      "v": 61
    },
    {
      "midi": 56,
      "hit": false,
      "t": 224262.1679999995,
      "d": 2192.6217083333177,
      "v": 59
    },
    {
      "midi": 44,
      "hit": false,
      "t": 224999.8724999995,
      "d": 1372.950041666656,
      "v": 79
    },
    {
      "midi": 32,
      "hit": false,
      "t": 224999.8724999995,
      "d": 1383.195937499986,
      "v": 79
    },
    {
      "midi": 32,
      "hit": false,
      "t": 226710.93710416617,
      "d": 1229.5074999999779,
      "v": 79
    },
    {
      "midi": 44,
      "hit": false,
      "t": 226710.93710416617,
      "d": 1239.7533958333079,
      "v": 79
    },
    {
      "midi": 56,
      "hit": false,
      "t": 226721.1829999995,
      "d": 92.21306249999907,
      "v": 38
    },
    {
      "midi": 60,
      "hit": false,
      "t": 226721.1829999995,
      "d": 92.21306249999907,
      "v": 40
    },
    {
      "midi": 56,
      "hit": false,
      "t": 226956.83860416617,
      "d": 133.19664583331905,
      "v": 34
    },
    {
      "midi": 63,
      "hit": false,
      "t": 226967.0844999995,
      "d": 143.44254166664905,
      "v": 76
    },
    {
      "midi": 65,
      "hit": false,
      "t": 227458.8874999995,
      "d": 92.21306249999907,
      "v": 80
    },
    {
      "midi": 48,
      "hit": false,
      "t": 228186.34610416615,
      "d": 430.32762499997625,
      "v": 79
    },
    {
      "midi": 58,
      "hit": false,
      "t": 228186.34610416615,
      "d": 2448.769104166655,
      "v": 39
    },
    {
      "midi": 63,
      "hit": false,
      "t": 228186.34610416615,
      "d": 2479.506791666645,
      "v": 82
    },
    {
      "midi": 60,
      "hit": false,
      "t": 228186.34610416615,
      "d": 2581.965749999974,
      "v": 55
    },
    {
      "midi": 36,
      "hit": false,
      "t": 228196.59199999948,
      "d": 440.57352083330625,
      "v": 79
    },
    {
      "midi": 67,
      "hit": false,
      "t": 228196.59199999948,
      "d": 2581.965749999974,
      "v": 70
    },
    {
      "midi": 36,
      "hit": false,
      "t": 228924.0506041661,
      "d": 409.83583333334536,
      "v": 79
    },
    {
      "midi": 48,
      "hit": false,
      "t": 228924.0506041661,
      "d": 420.08172916667536,
      "v": 79
    },
    {
      "midi": 48,
      "hit": false,
      "t": 229672.00099999947,
      "d": 2069.6709583332995,
      "v": 79
    },
    {
      "midi": 36,
      "hit": false,
      "t": 229672.00099999947,
      "d": 2090.1627499999595,
      "v": 79
    },
    {
      "midi": 67,
      "hit": false,
      "t": 230891.2626041661,
      "d": 122.95074999998906,
      "v": 60
    },
    {
      "midi": 58,
      "hit": false,
      "t": 231383.0656041661,
      "d": 122.95074999998906,
      "v": 43
    },
    {
      "midi": 67,
      "hit": false,
      "t": 231393.31149999943,
      "d": 81.96716666666907,
      "v": 67
    },
    {
      "midi": 34,
      "hit": false,
      "t": 232120.7701041661,
      "d": 491.80300000001444,
      "v": 79
    },
    {
      "midi": 67,
      "hit": false,
      "t": 232120.7701041661,
      "d": 1249.999291666696,
      "v": 48
    },
    {
      "midi": 60,
      "hit": false,
      "t": 232120.7701041661,
      "d": 2223.359395833395,
      "v": 74
    },
    {
      "midi": 46,
      "hit": false,
      "t": 232131.01599999942,
      "d": 481.55710416668444,
      "v": 79
    },
    {
      "midi": 63,
      "hit": false,
      "t": 232131.01599999942,
      "d": 2274.588875000074,
      "v": 55
    },
    {
      "midi": 56,
      "hit": false,
      "t": 232131.01599999942,
      "d": 3309.424354166724,
      "v": 46
    },
    {
      "midi": 34,
      "hit": false,
      "t": 232868.72049999944,
      "d": 1413.9336250000342,
      "v": 79
    },
    {
      "midi": 46,
      "hit": false,
      "t": 232868.72049999944,
      "d": 1424.1795208333642,
      "v": 79
    },
    {
      "midi": 65,
      "hit": false,
      "t": 233606.42499999946,
      "d": 1239.753395833366,
      "v": 48
    },
    {
      "midi": 46,
      "hit": false,
      "t": 234579.78510416616,
      "d": 1106.5567499999888,
      "v": 79
    },
    {
      "midi": 34,
      "hit": false,
      "t": 234579.78510416616,
      "d": 1168.032124999998,
      "v": 79
    },
    {
      "midi": 63,
      "hit": false,
      "t": 234835.9324999995,
      "d": 358.6063541666663,
      "v": 55
    },
    {
      "midi": 63,
      "hit": false,
      "t": 235317.48960416616,
      "d": 102.45895833332906,
      "v": 38
    },
    {
      "midi": 65,
      "hit": false,
      "t": 235327.7354999995,
      "d": 112.70485416665906,
      "v": 55
    },
    {
      "midi": 58,
      "hit": false,
      "t": 236055.19410416615,
      "d": 2377.047833333316,
      "v": 39
    },
    {
      "midi": 65,
      "hit": false,
      "t": 236055.19410416615,
      "d": 2459.014999999985,
      "v": 63
    },
    {
      "midi": 62,
      "hit": false,
      "t": 236055.19410416615,
      "d": 2469.260895833315,
      "v": 63
    },
    {
      "midi": 70,
      "hit": false,
      "t": 236055.19410416615,
      "d": 2663.932916666643,
      "v": 41
    },
    {
      "midi": 31,
      "hit": false,
      "t": 236065.43999999948,
      "d": 389.34404166665627,
      "v": 79
    },
    {
      "midi": 43,
      "hit": false,
      "t": 236065.43999999948,
      "d": 409.83583333331626,
      "v": 79
    },
    {
      "midi": 31,
      "hit": false,
      "t": 236803.14449999947,
      "d": 358.6063541666663,
      "v": 79
    },
    {
      "midi": 43,
      "hit": false,
      "t": 236803.14449999947,
      "d": 399.58993749998626,
      "v": 79
    },
    {
      "midi": 43,
      "hit": false,
      "t": 237530.60310416613,
      "d": 1588.1138541666733,
      "v": 79
    },
    {
      "midi": 31,
      "hit": false,
      "t": 237530.60310416613,
      "d": 1598.3597500000033,
      "v": 79
    },
    {
      "midi": 58,
      "hit": false,
      "t": 238514.20910416613,
      "d": 829.9175624999625,
      "v": 39
    },
    {
      "midi": 62,
      "hit": false,
      "t": 238770.35649999947,
      "d": 532.7865833333053,
      "v": 80
    },
    {
      "midi": 65,
      "hit": false,
      "t": 239251.91360416613,
      "d": 133.19664583328995,
      "v": 62
    },
    {
      "midi": 43,
      "hit": false,
      "t": 239262.15949999946,
      "d": 286.8850833332981,
      "v": 79
    },
    {
      "midi": 38,
      "hit": false,
      "t": 239497.81510416607,
      "d": 348.3604583333363,
      "v": 79
    },
    {
      "midi": 31,
      "hit": false,
      "t": 239743.71660416608,
      "d": 317.6227708333463,
      "v": 79
    },
    {
      "midi": 32,
      "hit": false,
      "t": 239989.6181041661,
      "d": 522.5406875000044,
      "v": 79
    },
    {
      "midi": 67,
      "hit": false,
      "t": 239989.6181041661,
      "d": 676.2291250000126,
      "v": 80
    },
    {
      "midi": 70,
      "hit": false,
      "t": 239989.6181041661,
      "d": 768.4421874999825,
      "v": 47
    },
    {
      "midi": 44,
      "hit": false,
      "t": 239999.86399999942,
      "d": 512.2947916666744,
      "v": 79
    },
    {
      "midi": 63,
      "hit": false,
      "t": 239999.86399999942,
      "d": 696.7209166666726,
      "v": 80
    },
    {
      "midi": 60,
      "hit": false,
      "t": 239999.86399999942,
      "d": 809.4257708333316,
      "v": 55
    },
    {
      "midi": 32,
      "hit": false,
      "t": 240727.32260416608,
      "d": 747.9503958333225,
      "v": 79
    },
    {
      "midi": 44,
      "hit": false,
      "t": 240737.5684999994,
      "d": 747.9503958333225,
      "v": 79
    },
    {
      "midi": 37,
      "hit": false,
      "t": 241465.02710416607,
      "d": 747.9503958333516,
      "v": 79
    },
    {
      "midi": 49,
      "hit": false,
      "t": 241465.02710416607,
      "d": 758.1962916666816,
      "v": 79
    },
    {
      "midi": 63,
      "hit": false,
      "t": 241465.02710416607,
      "d": 1649.5892291666823,
      "v": 70
    },
    {
      "midi": 70,
      "hit": false,
      "t": 241465.02710416607,
      "d": 1803.2776666666905,
      "v": 41
    },
    {
      "midi": 60,
      "hit": false,
      "t": 241475.2729999994,
      "d": 1475.4090000000142,
      "v": 41
    },
    {
      "midi": 65,
      "hit": false,
      "t": 241475.2729999994,
      "d": 1547.1302708333533,
      "v": 74
    },
    {
      "midi": 60,
      "hit": false,
      "t": 243186.3376041661,
      "d": 266.3932916666672,
      "v": 47
    },
    {
      "midi": 60,
      "hit": false,
      "t": 243924.0421041661,
      "d": 963.1142083333398,
      "v": 71
    },
    {
      "midi": 65,
      "hit": false,
      "t": 243924.0421041661,
      "d": 1014.3436874999898,
      "v": 50
    },
    {
      "midi": 56,
      "hit": false,
      "t": 243924.0421041661,
      "d": 1096.3108541666588,
      "v": 56
    },
    {
      "midi": 34,
      "hit": false,
      "t": 243934.28799999942,
      "d": 471.31120833335444,
      "v": 72
    },
    {
      "midi": 46,
      "hit": false,
      "t": 243934.28799999942,
      "d": 481.55710416668444,
      "v": 72
    },
    {
      "midi": 63,
      "hit": false,
      "t": 243934.28799999942,
      "d": 973.3601041666698,
      "v": 65
    },
    {
      "midi": 34,
      "hit": false,
      "t": 244661.7466041661,
      "d": 379.09814583329717,
      "v": 72
    },
    {
      "midi": 46,
      "hit": false,
      "t": 244671.99249999944,
      "d": 358.6063541666372,
      "v": 72
    },
    {
      "midi": 34,
      "hit": false,
      "t": 245409.6969999994,
      "d": 2110.6545416666486,
      "v": 72
    },
    {
      "midi": 46,
      "hit": false,
      "t": 245409.6969999994,
      "d": 2131.1463333333086,
      "v": 72
    },
    {
      "midi": 56,
      "hit": false,
      "t": 246393.3029999994,
      "d": 584.0160624999844,
      "v": 37
    },
    {
      "midi": 63,
      "hit": false,
      "t": 246639.2044999994,
      "d": 133.19664583331905,
      "v": 50
    },
    {
      "midi": 56,
      "hit": false,
      "t": 247120.76160416607,
      "d": 297.1309791666572,
      "v": 65
    },
    {
      "midi": 27,
      "hit": false,
      "t": 247858.46610416606,
      "d": 481.55710416665534,
      "v": 72
    },
    {
      "midi": 39,
      "hit": false,
      "t": 247858.46610416606,
      "d": 481.55710416665534,
      "v": 72
    },
    {
      "midi": 58,
      "hit": false,
      "t": 247858.46610416606,
      "d": 2120.9004374999786,
      "v": 53
    },
    {
      "midi": 55,
      "hit": false,
      "t": 247858.46610416606,
      "d": 2141.3922291666386,
      "v": 65
    },
    {
      "midi": 63,
      "hit": false,
      "t": 247868.7119999994,
      "d": 2100.4086458333186,
      "v": 68
    },
    {
      "midi": 39,
      "hit": false,
      "t": 248606.41649999938,
      "d": 358.6063541666663,
      "v": 72
    },
    {
      "midi": 27,
      "hit": false,
      "t": 248606.41649999938,
      "d": 368.8522499999963,
      "v": 72
    },
    {
      "midi": 27,
      "hit": false,
      "t": 249344.12099999937,
      "d": 2110.6545416666486,
      "v": 72
    },
    {
      "midi": 39,
      "hit": false,
      "t": 249344.12099999937,
      "d": 2131.1463333333086,
      "v": 72
    },
    {
      "midi": 56,
      "hit": false,
      "t": 251792.89010416603,
      "d": 706.9668124999735,
      "v": 38
    },
    {
      "midi": 53,
      "hit": false,
      "t": 251792.89010416603,
      "d": 747.9503958332934,
      "v": 57
    },
    {
      "midi": 34,
      "hit": false,
      "t": 251803.13599999918,
      "d": 747.9503958333516,
      "v": 64
    },
    {
      "midi": 46,
      "hit": false,
      "t": 251803.13599999918,
      "d": 768.4421875000116,
      "v": 68
    },
    {
      "midi": 60,
      "hit": false,
      "t": 251803.13599999936,
      "d": 676.2291249999835,
      "v": 71
    },
    {
      "midi": 63,
      "hit": false,
      "t": 251803.13599999936,
      "d": 676.2291249999835,
      "v": 74
    },
    {
      "midi": 51,
      "hit": false,
      "t": 258555.18135416598,
      "d": 1485.654895833315,
      "v": 21
    },
    {
      "midi": 55,
      "hit": false,
      "t": 258626.90262499932,
      "d": 1383.195937499986,
      "v": 51
    },
    {
      "midi": 27,
      "hit": false,
      "t": 258678.13210416585,
      "d": 1495.900791666645,
      "v": 77
    },
    {
      "midi": 39,
      "hit": false,
      "t": 258688.37799999918,
      "d": 1526.638479166635,
      "v": 59
    },
    {
      "midi": 58,
      "hit": false,
      "t": 258688.37799999933,
      "d": 1301.228770833317,
      "v": 56
    },
    {
      "midi": 63,
      "hit": false,
      "t": 258729.36158333265,
      "d": 1311.474666666647,
      "v": 42
    }
  ]
}