{
  "jsonPath": "Jazz/Vocal Jazz/Johnny Hartman/lush-life.json",
  "path": "Jazz\\Vocal Jazz\\Johnny Hartman\\Lush Life.mid",
  "name": "Lush Life",
  "difficulty": "Advanced",
  "bpm": 120,
  "notes": [
    {
      "midi": 56,
      "hit": false,
      "t": 679.1666666666666,
      "d": 341.66666666666663,
      "v": 46
    },
    {
      "midi": 61,
      "hit": false,
      "t": 1033.3333333333333,
      "d": 275.0000000000002,
      "v": 48
    },
    {
      "midi": 37,
      "hit": false,
      "t": 1062.5,
      "d": 212.5,
      "v": 32
    },
    {
      "midi": 44,
      "hit": false,
      "t": 1291.6666666666667,
      "d": 225,
      "v": 45
    },
    {
      "midi": 53,
      "hit": false,
      "t": 1579.1666666666667,
      "d": 187.5,
      "v": 41
    },
    {
      "midi": 65,
      "hit": false,
      "t": 1579.1666666666667,
      "d": 283.33333333333326,
      "v": 50
    },
    {
      "midi": 60,
      "hit": false,
      "t": 1591.6666666666667,
      "d": 233.33333333333326,
      "v": 33
    },
    {
      "midi": 68,
      "hit": false,
      "t": 1591.6666666666667,
      "d": 300,
      "v": 29
    },
    {
      "midi": 53,
      "hit": false,
      "t": 1875,
      "d": 1033.3333333333335,
      "v": 40
    },
    {
      "midi": 60,
      "hit": false,
      "t": 2204.166666666667,
      "d": 654.1666666666665,
      "v": 37
    },
    {
      "midi": 63,
      "hit": false,
      "t": 2558.3333333333335,
      "d": 262.5,
      "v": 29
    },
    {
      "midi": 73,
      "hit": false,
      "t": 2562.5,
      "d": 945.8333333333335,
      "v": 37
    },
    {
      "midi": 75,
      "hit": false,
      "t": 3658.3333333333335,
      "d": 2545.8333333333326,
      "v": 62
    },
    {
      "midi": 47,
      "hit": false,
      "t": 3670.8333333333335,
      "d": 508.3333333333335,
      "v": 33
    },
    {
      "midi": 54,
      "hit": false,
      "t": 3975,
      "d": 291.66666666666697,
      "v": 29
    },
    {
      "midi": 66,
      "hit": false,
      "t": 4283.333333333334,
      "d": 1187.5,
      "v": 25
    },
    {
      "midi": 71,
      "hit": false,
      "t": 4295.833333333334,
      "d": 841.666666666667,
      "v": 25
    },
    {
      "midi": 59,
      "hit": false,
      "t": 4304.166666666667,
      "d": 391.66666666666697,
      "v": 34
    },
    {
      "midi": 61,
      "hit": false,
      "t": 4683.333333333334,
      "d": 266.66666666666697,
      "v": 35
    },
    {
      "midi": 61,
      "hit": false,
      "t": 5112.500000000001,
      "d": 970.8333333333321,
      "v": 21
    },
    {
      "midi": 63,
      "hit": false,
      "t": 5479.166666666667,
      "d": 591.6666666666661,
      "v": 30
    },
    {
      "midi": 71,
      "hit": false,
      "t": 5904.166666666667,
      "d": 549.9999999999991,
      "v": 34
    },
    {
      "midi": 66,
      "hit": false,
      "t": 5912.5,
      "d": 591.6666666666661,
      "v": 20
    },
    {
      "midi": 75,
      "hit": false,
      "t": 6358.333333333333,
      "d": 179.16666666666606,
      "v": 47
    },
    {
      "midi": 77,
      "hit": false,
      "t": 7145.833333333332,
      "d": 2658.333333333332,
      "v": 64
    },
    {
      "midi": 37,
      "hit": false,
      "t": 7158.333333333332,
      "d": 395.83333333333303,
      "v": 37
    },
    {
      "midi": 44,
      "hit": false,
      "t": 7520.833333333332,
      "d": 150,
      "v": 44
    },
    {
      "midi": 53,
      "hit": false,
      "t": 7879.166666666665,
      "d": 254.16666666666697,
      "v": 45
    },
    {
      "midi": 58,
      "hit": false,
      "t": 8245.833333333332,
      "d": 404.16666666666606,
      "v": 31
    },
    {
      "midi": 60,
      "hit": false,
      "t": 8608.333333333332,
      "d": 29.16666666666606,
      "v": 37
    },
    {
      "midi": 68,
      "hit": false,
      "t": 9008.333333333332,
      "d": 275,
      "v": 30
    },
    {
      "midi": 65,
      "hit": false,
      "t": 9016.666666666666,
      "d": 208.33333333333394,
      "v": 44
    },
    {
      "midi": 63,
      "hit": false,
      "t": 9016.666666666666,
      "d": 262.5,
      "v": 31
    },
    {
      "midi": 68,
      "hit": false,
      "t": 9462.499999999998,
      "d": 287.5,
      "v": 32
    },
    {
      "midi": 63,
      "hit": false,
      "t": 9495.833333333332,
      "d": 316.66666666666606,
      "v": 27
    },
    {
      "midi": 65,
      "hit": false,
      "t": 9512.499999999998,
      "d": 241.66666666666606,
      "v": 28
    },
    {
      "midi": 77,
      "hit": false,
      "t": 9929.166666666664,
      "d": 404.16666666666606,
      "v": 48
    },
    {
      "midi": 63,
      "hit": false,
      "t": 9933.33333333333,
      "d": 562.5,
      "v": 31
    },
    {
      "midi": 65,
      "hit": false,
      "t": 9941.666666666664,
      "d": 479.16666666666606,
      "v": 36
    },
    {
      "midi": 77,
      "hit": false,
      "t": 10487.499999999996,
      "d": 1295.8333333333321,
      "v": 54
    },
    {
      "midi": 56,
      "hit": false,
      "t": 10499.999999999996,
      "d": 2424.999999999998,
      "v": 44
    },
    {
      "midi": 66,
      "hit": false,
      "t": 10937.499999999996,
      "d": 241.66666666666606,
      "v": 31
    },
    {
      "midi": 63,
      "hit": false,
      "t": 10945.83333333333,
      "d": 220.83333333333212,
      "v": 36
    },
    {
      "midi": 61,
      "hit": false,
      "t": 10962.499999999996,
      "d": 275,
      "v": 31
    },
    {
      "midi": 66,
      "hit": false,
      "t": 11404.166666666662,
      "d": 441.66666666666606,
      "v": 31
    },
    {
      "midi": 63,
      "hit": false,
      "t": 11408.333333333328,
      "d": 420.83333333333394,
      "v": 32
    },
    {
      "midi": 61,
      "hit": false,
      "t": 11416.666666666662,
      "d": 466.66666666666606,
      "v": 18
    },
    {
      "midi": 75,
      "hit": false,
      "t": 12012.499999999995,
      "d": 308.33333333333394,
      "v": 83
    },
    {
      "midi": 66,
      "hit": false,
      "t": 12020.833333333328,
      "d": 254.16666666666606,
      "v": 51
    },
    {
      "midi": 63,
      "hit": false,
      "t": 12037.499999999995,
      "d": 200,
      "v": 48
    },
    {
      "midi": 61,
      "hit": false,
      "t": 12041.66666666666,
      "d": 1075.0000000000018,
      "v": 42
    },
    {
      "midi": 75,
      "hit": false,
      "t": 12458.333333333328,
      "d": 254.16666666666606,
      "v": 94
    },
    {
      "midi": 66,
      "hit": false,
      "t": 12462.499999999995,
      "d": 208.33333333333394,
      "v": 60
    },
    {
      "midi": 63,
      "hit": false,
      "t": 12470.833333333328,
      "d": 179.16666666666606,
      "v": 48
    },
    {
      "midi": 75,
      "hit": false,
      "t": 12820.833333333328,
      "d": 254.16666666666606,
      "v": 84
    },
    {
      "midi": 66,
      "hit": false,
      "t": 12824.999999999995,
      "d": 283.33333333333394,
      "v": 49
    },
    {
      "midi": 63,
      "hit": false,
      "t": 12841.66666666666,
      "d": 316.6666666666679,
      "v": 45
    },
    {
      "midi": 56,
      "hit": false,
      "t": 13154.166666666662,
      "d": 208.33333333333212,
      "v": 68
    },
    {
      "midi": 77,
      "hit": false,
      "t": 13170.833333333328,
      "d": 1995.833333333334,
      "v": 87
    },
    {
      "midi": 68,
      "hit": false,
      "t": 13508.333333333328,
      "d": 237.5,
      "v": 48
    },
    {
      "midi": 65,
      "hit": false,
      "t": 13516.666666666662,
      "d": 204.16666666666606,
      "v": 60
    },
    {
      "midi": 63,
      "hit": false,
      "t": 13516.666666666662,
      "d": 208.33333333333212,
      "v": 40
    },
    {
      "midi": 68,
      "hit": false,
      "t": 13887.499999999995,
      "d": 187.5,
      "v": 36
    },
    {
      "midi": 65,
      "hit": false,
      "t": 13899.999999999995,
      "d": 112.5,
      "v": 54
    },
    {
      "midi": 63,
      "hit": false,
      "t": 13916.66666666666,
      "d": 112.5,
      "v": 29
    },
    {
      "midi": 68,
      "hit": false,
      "t": 14262.499999999995,
      "d": 87.5,
      "v": 34
    },
    {
      "midi": 65,
      "hit": false,
      "t": 14291.66666666666,
      "d": 266.6666666666679,
      "v": 53
    },
    {
      "midi": 63,
      "hit": false,
      "t": 14312.499999999995,
      "d": 279.1666666666679,
      "v": 28
    },
    {
      "midi": 56,
      "hit": false,
      "t": 14670.833333333328,
      "d": 1750,
      "v": 60
    },
    {
      "midi": 75,
      "hit": false,
      "t": 15112.499999999995,
      "d": 337.5,
      "v": 52
    },
    {
      "midi": 63,
      "hit": false,
      "t": 15120.833333333328,
      "d": 254.16666666666606,
      "v": 32
    },
    {
      "midi": 66,
      "hit": false,
      "t": 15129.166666666662,
      "d": 229.16666666666606,
      "v": 30
    },
    {
      "midi": 61,
      "hit": false,
      "t": 15137.499999999996,
      "d": 258.3333333333321,
      "v": 28
    },
    {
      "midi": 63,
      "hit": false,
      "t": 15591.66666666666,
      "d": 183.33333333333212,
      "v": 28
    },
    {
      "midi": 66,
      "hit": false,
      "t": 15595.833333333327,
      "d": 229.16666666666606,
      "v": 26
    },
    {
      "midi": 75,
      "hit": false,
      "t": 15599.999999999993,
      "d": 333.33333333333394,
      "v": 40
    },
    {
      "midi": 61,
      "hit": false,
      "t": 15624.999999999993,
      "d": 195.83333333333394,
      "v": 21
    },
    {
      "midi": 66,
      "hit": false,
      "t": 16187.499999999993,
      "d": 104.16666666666788,
      "v": 33
    },
    {
      "midi": 75,
      "hit": false,
      "t": 16195.833333333327,
      "d": 254.1666666666697,
      "v": 39
    },
    {
      "midi": 63,
      "hit": false,
      "t": 16216.66666666666,
      "d": 104.16666666666606,
      "v": 27
    },
    {
      "midi": 65,
      "hit": false,
      "t": 17449.999999999996,
      "d": 470.83333333333576,
      "v": 58
    },
    {
      "midi": 37,
      "hit": false,
      "t": 17466.666666666664,
      "d": 279.1666666666679,
      "v": 39
    },
    {
      "midi": 60,
      "hit": false,
      "t": 17466.666666666664,
      "d": 375,
      "v": 57
    },
    {
      "midi": 53,
      "hit": false,
      "t": 17474.999999999996,
      "d": 183.33333333333576,
      "v": 34
    },
    {
      "midi": 44,
      "hit": false,
      "t": 17491.666666666664,
      "d": 300,
      "v": 29
    },
    {
      "midi": 65,
      "hit": false,
      "t": 18012.5,
      "d": 275,
      "v": 62
    },
    {
      "midi": 54,
      "hit": false,
      "t": 18012.5,
      "d": 433.33333333333576,
      "v": 50
    },
    {
      "midi": 61,
      "hit": false,
      "t": 18016.666666666668,
      "d": 341.6666666666679,
      "v": 51
    },
    {
      "midi": 38,
      "hit": false,
      "t": 18020.833333333336,
      "d": 283.3333333333321,
      "v": 42
    },
    {
      "midi": 45,
      "hit": false,
      "t": 18029.166666666668,
      "d": 245.83333333333212,
      "v": 36
    },
    {
      "midi": 66,
      "hit": false,
      "t": 18554.166666666668,
      "d": 541.6666666666606,
      "v": 64
    },
    {
      "midi": 54,
      "hit": false,
      "t": 18562.5,
      "d": 395.8333333333321,
      "v": 62
    },
    {
      "midi": 61,
      "hit": false,
      "t": 18562.5,
      "d": 429.16666666666424,
      "v": 60
    },
    {
      "midi": 39,
      "hit": false,
      "t": 18566.666666666668,
      "d": 404.16666666666424,
      "v": 52
    },
    {
      "midi": 46,
      "hit": false,
      "t": 18575,
      "d": 499.99999999999636,
      "v": 51
    },
    {
      "midi": 66,
      "hit": false,
      "t": 19149.999999999996,
      "d": 395.83333333333576,
      "v": 49
    },
    {
      "midi": 62,
      "hit": false,
      "t": 19166.666666666664,
      "d": 337.5,
      "v": 62
    },
    {
      "midi": 55,
      "hit": false,
      "t": 19170.833333333332,
      "d": 316.66666666666424,
      "v": 66
    },
    {
      "midi": 47,
      "hit": false,
      "t": 19175,
      "d": 341.66666666666424,
      "v": 44
    },
    {
      "midi": 40,
      "hit": false,
      "t": 19183.333333333332,
      "d": 291.66666666666424,
      "v": 42
    },
    {
      "midi": 68,
      "hit": false,
      "t": 19741.666666666664,
      "d": 533.3333333333358,
      "v": 64
    },
    {
      "midi": 56,
      "hit": false,
      "t": 19745.833333333332,
      "d": 379.1666666666679,
      "v": 62
    },
    {
      "midi": 63,
      "hit": false,
      "t": 19745.833333333332,
      "d": 400,
      "v": 63
    },
    {
      "midi": 48,
      "hit": false,
      "t": 19758.333333333332,
      "d": 291.6666666666679,
      "v": 59
    },
    {
      "midi": 41,
      "hit": false,
      "t": 19758.333333333332,
      "d": 300,
      "v": 63
    },
    {
      "midi": 68,
      "hit": false,
      "t": 20325,
      "d": 541.6666666666679,
      "v": 32
    },
    {
      "midi": 64,
      "hit": false,
      "t": 20345.833333333332,
      "d": 429.1666666666679,
      "v": 57
    },
    {
      "midi": 57,
      "hit": false,
      "t": 20350,
      "d": 350,
      "v": 44
    },
    {
      "midi": 42,
      "hit": false,
      "t": 20354.166666666668,
      "d": 475,
      "v": 42
    },
    {
      "midi": 49,
      "hit": false,
      "t": 20362.5,
      "d": 516.6666666666679,
      "v": 42
    },
    {
      "midi": 69,
      "hit": false,
      "t": 21862.5,
      "d": 391.6666666666679,
      "v": 47
    },
    {
      "midi": 64,
      "hit": false,
      "t": 21866.666666666668,
      "d": 341.6666666666679,
      "v": 49
    },
    {
      "midi": 43,
      "hit": false,
      "t": 21875,
      "d": 304.1666666666679,
      "v": 34
    },
    {
      "midi": 58,
      "hit": false,
      "t": 21875,
      "d": 320.83333333333576,
      "v": 32
    },
    {
      "midi": 53,
      "hit": false,
      "t": 21891.666666666668,
      "d": 245.83333333333212,
      "v": 29
    },
    {
      "midi": 69,
      "hit": false,
      "t": 22404.166666666668,
      "d": 150.00000000000364,
      "v": 49
    },
    {
      "midi": 64,
      "hit": false,
      "t": 22420.833333333336,
      "d": 162.50000000000364,
      "v": 41
    },
    {
      "midi": 52,
      "hit": false,
      "t": 22425.000000000004,
      "d": 279.1666666666679,
      "v": 35
    },
    {
      "midi": 58,
      "hit": false,
      "t": 22429.16666666667,
      "d": 104.16666666666788,
      "v": 24
    },
    {
      "midi": 43,
      "hit": false,
      "t": 22433.33333333334,
      "d": 225,
      "v": 30
    },
    {
      "midi": 71,
      "hit": false,
      "t": 22870.83333333334,
      "d": 349.99999999999636,
      "v": 38
    },
    {
      "midi": 44,
      "hit": false,
      "t": 22870.83333333334,
      "d": 870.8333333333285,
      "v": 37
    },
    {
      "midi": 59,
      "hit": false,
      "t": 22879.16666666667,
      "d": 583.3333333333285,
      "v": 34
    },
    {
      "midi": 68,
      "hit": false,
      "t": 22879.16666666667,
      "d": 662.4999999999964,
      "v": 47
    },
    {
      "midi": 54,
      "hit": false,
      "t": 22887.500000000004,
      "d": 400,
      "v": 43
    },
    {
      "midi": 53,
      "hit": false,
      "t": 23175.000000000004,
      "d": 20.83333333333212,
      "v": 40
    },
    {
      "midi": 71,
      "hit": false,
      "t": 23320.833333333336,
      "d": 266.6666666666679,
      "v": 44
    },
    {
      "midi": 52,
      "hit": false,
      "t": 23329.166666666668,
      "d": 383.33333333333576,
      "v": 31
    },
    {
      "midi": 71,
      "hit": false,
      "t": 23720.833333333336,
      "d": 145.83333333333212,
      "v": 39
    },
    {
      "midi": 64,
      "hit": false,
      "t": 23729.166666666668,
      "d": 100,
      "v": 41
    },
    {
      "midi": 59,
      "hit": false,
      "t": 23741.666666666668,
      "d": 41.66666666666788,
      "v": 29
    },
    {
      "midi": 55,
      "hit": false,
      "t": 23754.166666666668,
      "d": 79.16666666666788,
      "v": 34
    },
    {
      "midi": 76,
      "hit": false,
      "t": 24145.833333333336,
      "d": 225.00000000000364,
      "v": 51
    },
    {
      "midi": 83,
      "hit": false,
      "t": 24150.000000000004,
      "d": 345.83333333333576,
      "v": 57
    },
    {
      "midi": 60,
      "hit": false,
      "t": 24179.16666666667,
      "d": 229.16666666666788,
      "v": 31
    },
    {
      "midi": 83,
      "hit": false,
      "t": 24654.16666666667,
      "d": 1466.6666666666642,
      "v": 36
    },
    {
      "midi": 54,
      "hit": false,
      "t": 24662.500000000004,
      "d": 287.50000000000364,
      "v": 28
    },
    {
      "midi": 71,
      "hit": false,
      "t": 24662.500000000004,
      "d": 1312.5,
      "v": 34
    },
    {
      "midi": 76,
      "hit": false,
      "t": 24662.500000000004,
      "d": 1370.8333333333321,
      "v": 39
    },
    {
      "midi": 64,
      "hit": false,
      "t": 24666.66666666667,
      "d": 212.5,
      "v": 28
    },
    {
      "midi": 80,
      "hit": false,
      "t": 24666.66666666667,
      "d": 1433.3333333333321,
      "v": 32
    },
    {
      "midi": 59,
      "hit": false,
      "t": 24679.16666666667,
      "d": 216.66666666666788,
      "v": 42
    },
    {
      "midi": 26,
      "hit": false,
      "t": 25408.33333333334,
      "d": 433.3333333333321,
      "v": 28
    },
    {
      "midi": 57,
      "hit": false,
      "t": 26983.333333333336,
      "d": 179.16666666666424,
      "v": 37
    },
    {
      "midi": 93,
      "hit": false,
      "t": 26995.833333333336,
      "d": 133.33333333333212,
      "v": 47
    },
    {
      "midi": 59,
      "hit": false,
      "t": 27204.166666666668,
      "d": 166.66666666666788,
      "v": 53
    },
    {
      "midi": 95,
      "hit": false,
      "t": 27208.333333333336,
      "d": 125,
      "v": 58
    },
    {
      "midi": 93,
      "hit": false,
      "t": 27395.833333333336,
      "d": 200.00000000000364,
      "v": 64
    },
    {
      "midi": 57,
      "hit": false,
      "t": 27412.500000000004,
      "d": 66.66666666666788,
      "v": 41
    },
    {
      "midi": 92,
      "hit": false,
      "t": 27633.33333333334,
      "d": 262.50000000000364,
      "v": 63
    },
    {
      "midi": 56,
      "hit": false,
      "t": 27637.500000000007,
      "d": 254.16666666666788,
      "v": 38
    },
    {
      "midi": 53,
      "hit": false,
      "t": 27916.666666666675,
      "d": 1033.3333333333358,
      "v": 47
    },
    {
      "midi": 60,
      "hit": false,
      "t": 28162.500000000007,
      "d": 720.8333333333358,
      "v": 48
    },
    {
      "midi": 63,
      "hit": false,
      "t": 28279.166666666675,
      "d": 595.8333333333321,
      "v": 38
    },
    {
      "midi": 65,
      "hit": false,
      "t": 28354.166666666675,
      "d": 75,
      "v": 44
    },
    {
      "midi": 67,
      "hit": false,
      "t": 28429.166666666675,
      "d": 100,
      "v": 49
    },
    {
      "midi": 68,
      "hit": false,
      "t": 28525.000000000007,
      "d": 62.5,
      "v": 35
    },
    {
      "midi": 70,
      "hit": false,
      "t": 28566.666666666675,
      "d": 54.16666666666424,
      "v": 57
    },
    {
      "midi": 72,
      "hit": false,
      "t": 28666.66666666667,
      "d": 91.66666666666788,
      "v": 57
    },
    {
      "midi": 74,
      "hit": false,
      "t": 28758.33333333334,
      "d": 116.66666666666788,
      "v": 50
    },
    {
      "midi": 75,
      "hit": false,
      "t": 28879.166666666675,
      "d": 58.33333333333576,
      "v": 39
    },
    {
      "midi": 76,
      "hit": false,
      "t": 28950.00000000001,
      "d": 95.83333333333212,
      "v": 42
    },
    {
      "midi": 77,
      "hit": false,
      "t": 29079.166666666675,
      "d": 129.16666666666788,
      "v": 53
    },
    {
      "midi": 80,
      "hit": false,
      "t": 29491.666666666675,
      "d": 1000,
      "v": 46
    },
    {
      "midi": 64,
      "hit": false,
      "t": 29500.000000000007,
      "d": 345.8333333333321,
      "v": 45
    },
    {
      "midi": 71,
      "hit": false,
      "t": 29504.166666666675,
      "d": 962.5,
      "v": 41
    },
    {
      "midi": 59,
      "hit": false,
      "t": 29508.333333333343,
      "d": 349.99999999999636,
      "v": 48
    },
    {
      "midi": 54,
      "hit": false,
      "t": 29508.333333333343,
      "d": 404.16666666666424,
      "v": 34
    },
    {
      "midi": 76,
      "hit": false,
      "t": 29516.666666666675,
      "d": 837.5,
      "v": 41
    },
    {
      "midi": 38,
      "hit": false,
      "t": 30195.83333333334,
      "d": 79.16666666666788,
      "v": 49
    },
    {
      "midi": 82,
      "hit": false,
      "t": 32004.166666666675,
      "d": 250,
      "v": 77
    },
    {
      "midi": 54,
      "hit": false,
      "t": 32004.166666666675,
      "d": 741.6666666666679,
      "v": 49
    },
    {
      "midi": 64,
      "hit": false,
      "t": 32008.333333333343,
      "d": 620.8333333333358,
      "v": 44
    },
    {
      "midi": 70,
      "hit": false,
      "t": 32016.666666666675,
      "d": 362.5,
      "v": 71
    },
    {
      "midi": 59,
      "hit": false,
      "t": 32020.833333333343,
      "d": 641.6666666666679,
      "v": 42
    },
    {
      "midi": 76,
      "hit": false,
      "t": 32420.833333333343,
      "d": 191.66666666666788,
      "v": 58
    },
    {
      "midi": 76,
      "hit": false,
      "t": 32745.833333333343,
      "d": 112.5,
      "v": 50
    },
    {
      "midi": 75,
      "hit": false,
      "t": 33254.16666666668,
      "d": 2433.3333333333285,
      "v": 60
    },
    {
      "midi": 68,
      "hit": false,
      "t": 33270.83333333334,
      "d": 995.8333333333358,
      "v": 44
    },
    {
      "midi": 64,
      "hit": false,
      "t": 33279.16666666668,
      "d": 1004.1666666666642,
      "v": 33
    },
    {
      "midi": 37,
      "hit": false,
      "t": 33295.83333333334,
      "d": 270.83333333333576,
      "v": 28
    },
    {
      "midi": 44,
      "hit": false,
      "t": 33608.33333333334,
      "d": 200,
      "v": 32
    },
    {
      "midi": 52,
      "hit": false,
      "t": 33916.66666666668,
      "d": 229.16666666666424,
      "v": 32
    },
    {
      "midi": 56,
      "hit": false,
      "t": 34179.16666666668,
      "d": 1158.3333333333285,
      "v": 37
    },
    {
      "midi": 64,
      "hit": false,
      "t": 34504.16666666668,
      "d": 425,
      "v": 38
    },
    {
      "midi": 68,
      "hit": false,
      "t": 34504.16666666668,
      "d": 525,
      "v": 35
    },
    {
      "midi": 59,
      "hit": false,
      "t": 34529.16666666668,
      "d": 329.16666666666424,
      "v": 33
    },
    {
      "midi": 63,
      "hit": false,
      "t": 34845.83333333334,
      "d": 212.5,
      "v": 42
    },
    {
      "midi": 61,
      "hit": false,
      "t": 35212.50000000001,
      "d": 279.16666666666424,
      "v": 29
    },
    {
      "midi": 64,
      "hit": false,
      "t": 35212.50000000001,
      "d": 287.5,
      "v": 46
    },
    {
      "midi": 68,
      "hit": false,
      "t": 35212.50000000001,
      "d": 520.8333333333358,
      "v": 35
    },
    {
      "midi": 56,
      "hit": false,
      "t": 35562.50000000001,
      "d": 45.83333333333576,
      "v": 25
    },
    {
      "midi": 68,
      "hit": false,
      "t": 35870.83333333334,
      "d": 283.3333333333285,
      "v": 26
    },
    {
      "midi": 71,
      "hit": false,
      "t": 35875.00000000001,
      "d": 279.16666666666424,
      "v": 33
    },
    {
      "midi": 64,
      "hit": false,
      "t": 35883.33333333334,
      "d": 229.16666666666424,
      "v": 31
    },
    {
      "midi": 60,
      "hit": false,
      "t": 35887.50000000001,
      "d": 308.3333333333285,
      "v": 29
    },
    {
      "midi": 50,
      "hit": false,
      "t": 35900.00000000001,
      "d": 495.8333333333285,
      "v": 30
    },
    {
      "midi": 54,
      "hit": false,
      "t": 36154.16666666667,
      "d": 270.8333333333285,
      "v": 36
    },
    {
      "midi": 60,
      "hit": false,
      "t": 36425,
      "d": 41.66666666666424,
      "v": 36
    },
    {
      "midi": 88,
      "hit": false,
      "t": 36654.166666666664,
      "d": 162.5,
      "v": 65
    },
    {
      "midi": 59,
      "hit": false,
      "t": 36675,
      "d": 337.5,
      "v": 38
    },
    {
      "midi": 83,
      "hit": false,
      "t": 36925,
      "d": 125,
      "v": 49
    },
    {
      "midi": 76,
      "hit": false,
      "t": 36933.333333333336,
      "d": 179.16666666666424,
      "v": 24
    },
    {
      "midi": 64,
      "hit": false,
      "t": 36933.333333333336,
      "d": 241.66666666666424,
      "v": 37
    },
    {
      "midi": 59,
      "hit": false,
      "t": 37195.833333333336,
      "d": 508.33333333333576,
      "v": 36
    },
    {
      "midi": 64,
      "hit": false,
      "t": 37529.16666666667,
      "d": 100,
      "v": 40
    },
    {
      "midi": 71,
      "hit": false,
      "t": 37845.833333333336,
      "d": 333.3333333333285,
      "v": 38
    },
    {
      "midi": 64,
      "hit": false,
      "t": 37850,
      "d": 141.66666666666424,
      "v": 38
    },
    {
      "midi": 68,
      "hit": false,
      "t": 37854.166666666664,
      "d": 229.16666666666424,
      "v": 33
    },
    {
      "midi": 65,
      "hit": false,
      "t": 38283.33333333333,
      "d": 370.83333333333576,
      "v": 38
    },
    {
      "midi": 73,
      "hit": false,
      "t": 38287.49999999999,
      "d": 633.3333333333358,
      "v": 25
    },
    {
      "midi": 68,
      "hit": false,
      "t": 38308.33333333333,
      "d": 475,
      "v": 38
    },
    {
      "midi": 37,
      "hit": false,
      "t": 38316.666666666664,
      "d": 141.66666666666424,
      "v": 29
    },
    {
      "midi": 44,
      "hit": false,
      "t": 38320.83333333333,
      "d": 162.5,
      "v": 21
    },
    {
      "midi": 68,
      "hit": false,
      "t": 38874.99999999999,
      "d": 287.5,
      "v": 27
    },
    {
      "midi": 65,
      "hit": false,
      "t": 38895.83333333333,
      "d": 262.5,
      "v": 39
    },
    {
      "midi": 63,
      "hit": false,
      "t": 38899.99999999999,
      "d": 279.16666666666424,
      "v": 30
    },
    {
      "midi": 73,
      "hit": false,
      "t": 39320.83333333332,
      "d": 187.5,
      "v": 59
    },
    {
      "midi": 68,
      "hit": false,
      "t": 39354.16666666666,
      "d": 158.33333333332848,
      "v": 31
    },
    {
      "midi": 68,
      "hit": false,
      "t": 39695.83333333332,
      "d": 87.5,
      "v": 37
    },
    {
      "midi": 73,
      "hit": false,
      "t": 39704.16666666666,
      "d": 462.4999999999927,
      "v": 46
    },
    {
      "midi": 65,
      "hit": false,
      "t": 39716.66666666666,
      "d": 37.5,
      "v": 42
    },
    {
      "midi": 66,
      "hit": false,
      "t": 40041.66666666666,
      "d": 216.66666666666424,
      "v": 37
    },
    {
      "midi": 75,
      "hit": false,
      "t": 40049.99999999999,
      "d": 287.5,
      "v": 56
    },
    {
      "midi": 63,
      "hit": false,
      "t": 40054.16666666666,
      "d": 212.5,
      "v": 38
    },
    {
      "midi": 61,
      "hit": false,
      "t": 40058.33333333332,
      "d": 216.66666666667152,
      "v": 37
    },
    {
      "midi": 66,
      "hit": false,
      "t": 40374.99999999999,
      "d": 245.83333333333576,
      "v": 40
    },
    {
      "midi": 63,
      "hit": false,
      "t": 40387.49999999999,
      "d": 487.5,
      "v": 40
    },
    {
      "midi": 61,
      "hit": false,
      "t": 40399.99999999999,
      "d": 220.83333333333576,
      "v": 37
    },
    {
      "midi": 56,
      "hit": false,
      "t": 40679.166666666664,
      "d": 533.3333333333285,
      "v": 52
    },
    {
      "midi": 66,
      "hit": false,
      "t": 40708.33333333333,
      "d": 170.83333333332848,
      "v": 13
    },
    {
      "midi": 66,
      "hit": false,
      "t": 41012.49999999999,
      "d": 212.5,
      "v": 53
    },
    {
      "midi": 63,
      "hit": false,
      "t": 41024.99999999999,
      "d": 166.66666666666424,
      "v": 48
    },
    {
      "midi": 66,
      "hit": false,
      "t": 41337.49999999999,
      "d": 29.16666666666424,
      "v": 52
    },
    {
      "midi": 68,
      "hit": false,
      "t": 41341.66666666666,
      "d": 241.66666666666424,
      "v": 65
    },
    {
      "midi": 77,
      "hit": false,
      "t": 41345.83333333332,
      "d": 2449.9999999999854,
      "v": 74
    },
    {
      "midi": 63,
      "hit": false,
      "t": 41358.33333333332,
      "d": 258.33333333333576,
      "v": 48
    },
    {
      "midi": 65,
      "hit": false,
      "t": 41370.83333333332,
      "d": 225,
      "v": 74
    },
    {
      "midi": 68,
      "hit": false,
      "t": 41683.33333333332,
      "d": 133.33333333333576,
      "v": 62
    },
    {
      "midi": 65,
      "hit": false,
      "t": 41691.66666666666,
      "d": 591.6666666666715,
      "v": 59
    },
    {
      "midi": 63,
      "hit": false,
      "t": 41699.99999999999,
      "d": 545.8333333333358,
      "v": 40
    },
    {
      "midi": 56,
      "hit": false,
      "t": 42037.49999999999,
      "d": 175,
      "v": 62
    },
    {
      "midi": 68,
      "hit": false,
      "t": 42358.33333333333,
      "d": 166.66666666665697,
      "v": 59
    },
    {
      "midi": 65,
      "hit": false,
      "t": 42362.49999999999,
      "d": 145.83333333332848,
      "v": 63
    },
    {
      "midi": 63,
      "hit": false,
      "t": 42379.16666666666,
      "d": 149.99999999999272,
      "v": 31
    },
    {
      "midi": 66,
      "hit": false,
      "t": 42737.499999999985,
      "d": 275,
      "v": 57
    },
    {
      "midi": 63,
      "hit": false,
      "t": 42745.83333333332,
      "d": 258.3333333333285,
      "v": 53
    },
    {
      "midi": 61,
      "hit": false,
      "t": 42749.999999999985,
      "d": 291.66666666666424,
      "v": 46
    },
    {
      "midi": 66,
      "hit": false,
      "t": 43108.333333333314,
      "d": 462.4999999999927,
      "v": 37
    },
    {
      "midi": 63,
      "hit": false,
      "t": 43124.99999999998,
      "d": 429.16666666666424,
      "v": 42
    },
    {
      "midi": 61,
      "hit": false,
      "t": 43129.16666666664,
      "d": 408.33333333333576,
      "v": 25
    },
    {
      "midi": 56,
      "hit": false,
      "t": 43454.16666666664,
      "d": 250,
      "v": 49
    },
    {
      "midi": 75,
      "hit": false,
      "t": 43812.49999999997,
      "d": 237.5,
      "v": 67
    },
    {
      "midi": 56,
      "hit": false,
      "t": 43824.99999999997,
      "d": 200,
      "v": 39
    },
    {
      "midi": 63,
      "hit": false,
      "t": 43862.49999999997,
      "d": 66.66666666666424,
      "v": 25
    },
    {
      "midi": 68,
      "hit": false,
      "t": 44174.99999999997,
      "d": 245.83333333332848,
      "v": 62
    },
    {
      "midi": 77,
      "hit": false,
      "t": 44183.33333333331,
      "d": 341.66666666665697,
      "v": 79
    },
    {
      "midi": 65,
      "hit": false,
      "t": 44187.49999999997,
      "d": 216.66666666666424,
      "v": 65
    },
    {
      "midi": 63,
      "hit": false,
      "t": 44187.49999999997,
      "d": 249.99999999999272,
      "v": 44
    },
    {
      "midi": 68,
      "hit": false,
      "t": 44529.16666666663,
      "d": 154.16666666667152,
      "v": 48
    },
    {
      "midi": 65,
      "hit": false,
      "t": 44549.99999999996,
      "d": 537.5,
      "v": 62
    },
    {
      "midi": 63,
      "hit": false,
      "t": 44558.3333333333,
      "d": 370.8333333333285,
      "v": 31
    },
    {
      "midi": 56,
      "hit": false,
      "t": 44874.99999999996,
      "d": 216.66666666666424,
      "v": 49
    },
    {
      "midi": 65,
      "hit": false,
      "t": 45195.83333333329,
      "d": 145.83333333333576,
      "v": 37
    },
    {
      "midi": 68,
      "hit": false,
      "t": 45204.16666666663,
      "d": 145.83333333333576,
      "v": 47
    },
    {
      "midi": 63,
      "hit": false,
      "t": 45233.33333333329,
      "d": 133.33333333333576,
      "v": 25
    },
    {
      "midi": 66,
      "hit": false,
      "t": 45562.49999999996,
      "d": 225,
      "v": 33
    },
    {
      "midi": 63,
      "hit": false,
      "t": 45574.99999999996,
      "d": 233.33333333333576,
      "v": 38
    },
    {
      "midi": 61,
      "hit": false,
      "t": 45587.49999999996,
      "d": 270.83333333333576,
      "v": 33
    },
    {
      "midi": 66,
      "hit": false,
      "t": 45920.8333333333,
      "d": 433.3333333333285,
      "v": 34
    },
    {
      "midi": 63,
      "hit": false,
      "t": 45929.166666666635,
      "d": 399.9999999999927,
      "v": 40
    },
    {
      "midi": 61,
      "hit": false,
      "t": 45949.99999999997,
      "d": 304.16666666666424,
      "v": 34
    },
    {
      "midi": 75,
      "hit": false,
      "t": 46283.3333333333,
      "d": 179.16666666666424,
      "v": 59
    },
    {
      "midi": 56,
      "hit": false,
      "t": 46287.49999999996,
      "d": 204.16666666666424,
      "v": 34
    },
    {
      "midi": 75,
      "hit": false,
      "t": 46716.66666666663,
      "d": 366.66666666666424,
      "v": 45
    },
    {
      "midi": 65,
      "hit": false,
      "t": 47583.33333333329,
      "d": 191.66666666666424,
      "v": 59
    },
    {
      "midi": 60,
      "hit": false,
      "t": 47604.16666666663,
      "d": 441.66666666666424,
      "v": 52
    },
    {
      "midi": 37,
      "hit": false,
      "t": 47608.33333333329,
      "d": 379.16666666666424,
      "v": 29
    },
    {
      "midi": 44,
      "hit": false,
      "t": 47620.83333333329,
      "d": 391.66666666666424,
      "v": 30
    },
    {
      "midi": 53,
      "hit": false,
      "t": 47624.999999999956,
      "d": 358.33333333333576,
      "v": 17
    },
    {
      "midi": 65,
      "hit": false,
      "t": 47933.33333333329,
      "d": 104.16666666666424,
      "v": 62
    },
    {
      "midi": 66,
      "hit": false,
      "t": 48304.16666666663,
      "d": 216.66666666665697,
      "v": 50
    },
    {
      "midi": 61,
      "hit": false,
      "t": 48320.83333333329,
      "d": 499.9999999999927,
      "v": 49
    },
    {
      "midi": 38,
      "hit": false,
      "t": 48333.33333333329,
      "d": 379.16666666665697,
      "v": 35
    },
    {
      "midi": 54,
      "hit": false,
      "t": 48333.33333333329,
      "d": 466.66666666665697,
      "v": 27
    },
    {
      "midi": 45,
      "hit": false,
      "t": 48337.499999999956,
      "d": 370.8333333333285,
      "v": 31
    },
    {
      "midi": 66,
      "hit": false,
      "t": 48683.333333333285,
      "d": 154.16666666666424,
      "v": 38
    },
    {
      "midi": 68,
      "hit": false,
      "t": 49145.833333333285,
      "d": 366.66666666666424,
      "v": 45
    },
    {
      "midi": 63,
      "hit": false,
      "t": 49166.66666666662,
      "d": 866.666666666657,
      "v": 38
    },
    {
      "midi": 40,
      "hit": false,
      "t": 49170.833333333285,
      "d": 633.3333333333285,
      "v": 35
    },
    {
      "midi": 56,
      "hit": false,
      "t": 49170.833333333285,
      "d": 879.166666666657,
      "v": 25
    },
    {
      "midi": 47,
      "hit": false,
      "t": 49174.99999999995,
      "d": 637.5,
      "v": 34
    },
    {
      "midi": 68,
      "hit": false,
      "t": 49891.66666666661,
      "d": 204.16666666666424,
      "v": 52
    },
    {
      "midi": 69,
      "hit": false,
      "t": 50283.33333333328,
      "d": 341.66666666666424,
      "v": 65
    },
    {
      "midi": 64,
      "hit": false,
      "t": 50291.66666666661,
      "d": 683.3333333333285,
      "v": 62
    },
    {
      "midi": 57,
      "hit": false,
      "t": 50295.83333333328,
      "d": 608.3333333333285,
      "v": 62
    },
    {
      "midi": 48,
      "hit": false,
      "t": 50304.16666666661,
      "d": 516.6666666666642,
      "v": 35
    },
    {
      "midi": 41,
      "hit": false,
      "t": 50308.33333333328,
      "d": 525,
      "v": 45
    },
    {
      "midi": 69,
      "hit": false,
      "t": 50862.49999999994,
      "d": 150,
      "v": 58
    },
    {
      "midi": 71,
      "hit": false,
      "t": 51329.166666666606,
      "d": 366.66666666665697,
      "v": 55
    },
    {
      "midi": 66,
      "hit": false,
      "t": 51341.666666666606,
      "d": 791.666666666657,
      "v": 55
    },
    {
      "midi": 54,
      "hit": false,
      "t": 51358.33333333327,
      "d": 399.9999999999927,
      "v": 35
    },
    {
      "midi": 43,
      "hit": false,
      "t": 51358.33333333327,
      "d": 1354.1666666666497,
      "v": 28
    },
    {
      "midi": 59,
      "hit": false,
      "t": 51362.499999999935,
      "d": 758.3333333333285,
      "v": 48
    },
    {
      "midi": 71,
      "hit": false,
      "t": 51845.83333333326,
      "d": 291.66666666666424,
      "v": 51
    },
    {
      "midi": 50,
      "hit": false,
      "t": 51845.83333333326,
      "d": 933.3333333333212,
      "v": 32
    },
    {
      "midi": 66,
      "hit": false,
      "t": 52329.16666666659,
      "d": 566.6666666666642,
      "v": 39
    },
    {
      "midi": 71,
      "hit": false,
      "t": 52333.333333333256,
      "d": 287.5,
      "v": 35
    },
    {
      "midi": 59,
      "hit": false,
      "t": 52345.833333333256,
      "d": 449.9999999999927,
      "v": 32
    },
    {
      "midi": 54,
      "hit": false,
      "t": 52354.16666666659,
      "d": 520.8333333333285,
      "v": 19
    },
    {
      "midi": 71,
      "hit": false,
      "t": 52841.666666666584,
      "d": 204.16666666667152,
      "v": 33
    },
    {
      "midi": 71,
      "hit": false,
      "t": 53370.833333333256,
      "d": 1133.3333333333358,
      "v": 35
    },
    {
      "midi": 68,
      "hit": false,
      "t": 53374.99999999992,
      "d": 1008.3333333333358,
      "v": 33
    },
    {
      "midi": 64,
      "hit": false,
      "t": 53379.166666666584,
      "d": 916.6666666666715,
      "v": 37
    },
    {
      "midi": 54,
      "hit": false,
      "t": 53383.33333333325,
      "d": 304.1666666666715,
      "v": 25
    },
    {
      "midi": 50,
      "hit": false,
      "t": 53399.99999999991,
      "d": 291.6666666666715,
      "v": 24
    },
    {
      "midi": 60,
      "hit": false,
      "t": 53420.83333333325,
      "d": 220.83333333333576,
      "v": 16
    },
    {
      "midi": 26,
      "hit": false,
      "t": 54149.99999999992,
      "d": 112.5,
      "v": 63
    },
    {
      "midi": 93,
      "hit": false,
      "t": 56154.16666666659,
      "d": 166.66666666667152,
      "v": 28
    },
    {
      "midi": 57,
      "hit": false,
      "t": 56162.49999999993,
      "d": 195.83333333333576,
      "v": 22
    },
    {
      "midi": 59,
      "hit": false,
      "t": 56354.1666666666,
      "d": 133.33333333333576,
      "v": 50
    },
    {
      "midi": 95,
      "hit": false,
      "t": 56366.6666666666,
      "d": 120.83333333333576,
      "v": 66
    },
    {
      "midi": 95,
      "hit": false,
      "t": 56558.33333333327,
      "d": 145.83333333332848,
      "v": 64
    },
    {
      "midi": 59,
      "hit": false,
      "t": 56562.499999999935,
      "d": 195.83333333332848,
      "v": 50
    },
    {
      "midi": 93,
      "hit": false,
      "t": 56762.49999999993,
      "d": 83.33333333333576,
      "v": 58
    },
    {
      "midi": 57,
      "hit": false,
      "t": 56799.99999999993,
      "d": 33.33333333333576,
      "v": 24
    },
    {
      "midi": 93,
      "hit": false,
      "t": 56958.33333333326,
      "d": 108.33333333333576,
      "v": 73
    },
    {
      "midi": 57,
      "hit": false,
      "t": 56970.83333333326,
      "d": 162.5,
      "v": 34
    },
    {
      "midi": 56,
      "hit": false,
      "t": 57204.1666666666,
      "d": 262.5,
      "v": 48
    },
    {
      "midi": 92,
      "hit": false,
      "t": 57208.33333333326,
      "d": 216.66666666667152,
      "v": 67
    },
    {
      "midi": 67,
      "hit": false,
      "t": 58108.33333333326,
      "d": 349.9999999999927,
      "v": 45
    },
    {
      "midi": 68,
      "hit": false,
      "t": 58112.49999999993,
      "d": 370.8333333333285,
      "v": 43
    },
    {
      "midi": 63,
      "hit": false,
      "t": 58133.33333333326,
      "d": 266.66666666666424,
      "v": 18
    },
    {
      "midi": 60,
      "hit": false,
      "t": 58141.6666666666,
      "d": 237.5,
      "v": 31
    },
    {
      "midi": 56,
      "hit": false,
      "t": 58154.1666666666,
      "d": 274.9999999999927,
      "v": 18
    },
    {
      "midi": 53,
      "hit": false,
      "t": 58166.6666666666,
      "d": 229.16666666666424,
      "v": 20
    },
    {
      "midi": 68,
      "hit": false,
      "t": 58841.66666666659,
      "d": 791.6666666666642,
      "v": 36
    },
    {
      "midi": 64,
      "hit": false,
      "t": 58854.16666666659,
      "d": 700,
      "v": 36
    },
    {
      "midi": 54,
      "hit": false,
      "t": 58854.16666666659,
      "d": 1062.4999999999927,
      "v": 31
    },
    {
      "midi": 50,
      "hit": false,
      "t": 58870.833333333256,
      "d": 991.6666666666642,
      "v": 38
    },
    {
      "midi": 60,
      "hit": false,
      "t": 58887.49999999992,
      "d": 858.3333333333358,
      "v": 28
    },
    {
      "midi": 88,
      "hit": false,
      "t": 60720.83333333325,
      "d": 570.8333333333285,
      "v": 79
    },
    {
      "midi": 64,
      "hit": false,
      "t": 60737.49999999991,
      "d": 512.5,
      "v": 56
    },
    {
      "midi": 88,
      "hit": false,
      "t": 61412.49999999991,
      "d": 187.5,
      "v": 56
    },
    {
      "midi": 64,
      "hit": false,
      "t": 61429.16666666658,
      "d": 187.5,
      "v": 40
    },
    {
      "midi": 64,
      "hit": false,
      "t": 61804.16666666658,
      "d": 183.33333333333576,
      "v": 38
    },
    {
      "midi": 88,
      "hit": false,
      "t": 61812.49999999991,
      "d": 645.8333333333358,
      "v": 54
    },
    {
      "midi": 63,
      "hit": false,
      "t": 62524.99999999991,
      "d": 258.3333333333285,
      "v": 27
    },
    {
      "midi": 87,
      "hit": false,
      "t": 62529.16666666658,
      "d": 437.5,
      "v": 48
    },
    {
      "midi": 49,
      "hit": false,
      "t": 62904.16666666658,
      "d": 2533.3333333333358,
      "v": 29
    },
    {
      "midi": 56,
      "hit": false,
      "t": 63241.66666666658,
      "d": 2175,
      "v": 29
    },
    {
      "midi": 60,
      "hit": false,
      "t": 63562.49999999991,
      "d": 508.33333333333576,
      "v": 45
    },
    {
      "midi": 60,
      "hit": false,
      "t": 64570.83333333325,
      "d": 312.5,
      "v": 44
    },
    {
      "midi": 65,
      "hit": false,
      "t": 64937.49999999991,
      "d": 237.5,
      "v": 58
    },
    {
      "midi": 70,
      "hit": false,
      "t": 65216.66666666658,
      "d": 237.5,
      "v": 74
    },
    {
      "midi": 72,
      "hit": false,
      "t": 65520.83333333324,
      "d": 162.49999999998545,
      "v": 60
    },
    {
      "midi": 61,
      "hit": false,
      "t": 65524.999999999905,
      "d": 379.16666666666424,
      "v": 49
    },
    {
      "midi": 65,
      "hit": false,
      "t": 65529.16666666657,
      "d": 345.8333333333285,
      "v": 63
    },
    {
      "midi": 55,
      "hit": false,
      "t": 65537.4999999999,
      "d": 1279.1666666666715,
      "v": 54
    },
    {
      "midi": 73,
      "hit": false,
      "t": 65820.83333333323,
      "d": 179.16666666667152,
      "v": 57
    },
    {
      "midi": 75,
      "hit": false,
      "t": 66104.16666666657,
      "d": 200,
      "v": 67
    },
    {
      "midi": 76,
      "hit": false,
      "t": 66433.33333333324,
      "d": 270.8333333333285,
      "v": 57
    },
    {
      "midi": 76,
      "hit": false,
      "t": 66820.83333333324,
      "d": 345.83333333334303,
      "v": 40
    },
    {
      "midi": 73,
      "hit": false,
      "t": 66841.66666666657,
      "d": 404.16666666668607,
      "v": 32
    },
    {
      "midi": 58,
      "hit": false,
      "t": 66841.66666666657,
      "d": 604.1666666666861,
      "v": 34
    },
    {
      "midi": 64,
      "hit": false,
      "t": 66845.83333333324,
      "d": 641.6666666666861,
      "v": 33
    },
    {
      "midi": 70,
      "hit": false,
      "t": 66849.99999999991,
      "d": 687.5000000000146,
      "v": 39
    },
    {
      "midi": 48,
      "hit": false,
      "t": 66866.66666666658,
      "d": 1241.666666666686,
      "v": 31
    },
    {
      "midi": 75,
      "hit": false,
      "t": 67291.66666666658,
      "d": 191.66666666667152,
      "v": 47
    },
    {
      "midi": 70,
      "hit": false,
      "t": 67762.49999999993,
      "d": 883.333333333343,
      "v": 37
    },
    {
      "midi": 73,
      "hit": false,
      "t": 67766.6666666666,
      "d": 566.6666666666715,
      "v": 30
    },
    {
      "midi": 64,
      "hit": false,
      "t": 67795.83333333327,
      "d": 741.6666666666715,
      "v": 17
    },
    {
      "midi": 58,
      "hit": false,
      "t": 67799.99999999994,
      "d": 437.5,
      "v": 21
    },
    {
      "midi": 72,
      "hit": false,
      "t": 69258.33333333327,
      "d": 212.5,
      "v": 40
    },
    {
      "midi": 84,
      "hit": false,
      "t": 70945.83333333327,
      "d": 262.5,
      "v": 49
    },
    {
      "midi": 68,
      "hit": false,
      "t": 70949.99999999994,
      "d": 629.1666666666715,
      "v": 25
    },
    {
      "midi": 65,
      "hit": false,
      "t": 70962.49999999994,
      "d": 566.6666666666715,
      "v": 28
    },
    {
      "midi": 74,
      "hit": false,
      "t": 70974.99999999994,
      "d": 412.5,
      "v": 24
    },
    {
      "midi": 80,
      "hit": false,
      "t": 70974.99999999994,
      "d": 520.8333333333285,
      "v": 33
    },
    {
      "midi": 72,
      "hit": false,
      "t": 70974.99999999994,
      "d": 620.833333333343,
      "v": 28
    },
    {
      "midi": 79,
      "hit": false,
      "t": 70987.49999999994,
      "d": 591.6666666666715,
      "v": 27
    },
    {
      "midi": 84,
      "hit": false,
      "t": 71362.49999999994,
      "d": 87.5,
      "v": 43
    },
    {
      "midi": 84,
      "hit": false,
      "t": 71524.99999999994,
      "d": 145.83333333334303,
      "v": 49
    },
    {
      "midi": 86,
      "hit": false,
      "t": 72387.49999999996,
      "d": 212.50000000001455,
      "v": 63
    },
    {
      "midi": 80,
      "hit": false,
      "t": 72399.99999999996,
      "d": 583.333333333343,
      "v": 44
    },
    {
      "midi": 76,
      "hit": false,
      "t": 72416.66666666663,
      "d": 566.6666666666715,
      "v": 44
    },
    {
      "midi": 77,
      "hit": false,
      "t": 72420.8333333333,
      "d": 487.5,
      "v": 30
    },
    {
      "midi": 86,
      "hit": false,
      "t": 72724.99999999997,
      "d": 112.5,
      "v": 53
    },
    {
      "midi": 86,
      "hit": false,
      "t": 72937.49999999997,
      "d": 75,
      "v": 34
    },
    {
      "midi": 89,
      "hit": false,
      "t": 73170.8333333333,
      "d": 195.83333333334303,
      "v": 55
    },
    {
      "midi": 77,
      "hit": false,
      "t": 73183.3333333333,
      "d": 441.66666666668607,
      "v": 27
    },
    {
      "midi": 74,
      "hit": false,
      "t": 73183.3333333333,
      "d": 558.3333333333576,
      "v": 37
    },
    {
      "midi": 84,
      "hit": false,
      "t": 73187.49999999997,
      "d": 395.83333333334303,
      "v": 31
    },
    {
      "midi": 89,
      "hit": false,
      "t": 73454.16666666664,
      "d": 104.16666666667152,
      "v": 50
    },
    {
      "midi": 89,
      "hit": false,
      "t": 73662.49999999999,
      "d": 79.16666666667152,
      "v": 40
    },
    {
      "midi": 92,
      "hit": false,
      "t": 73912.49999999999,
      "d": 212.50000000001455,
      "v": 62
    },
    {
      "midi": 72,
      "hit": false,
      "t": 73941.66666666666,
      "d": 254.16666666667152,
      "v": 33
    },
    {
      "midi": 84,
      "hit": false,
      "t": 73941.66666666666,
      "d": 450.00000000001455,
      "v": 22
    },
    {
      "midi": 80,
      "hit": false,
      "t": 73945.83333333333,
      "d": 575.0000000000146,
      "v": 18
    },
    {
      "midi": 92,
      "hit": false,
      "t": 74312.5,
      "d": 116.66666666667152,
      "v": 56
    },
    {
      "midi": 92,
      "hit": false,
      "t": 74637.50000000001,
      "d": 75,
      "v": 54
    },
    {
      "midi": 41,
      "hit": false,
      "t": 75020.83333333334,
      "d": 104.16666666667152,
      "v": 38
    },
    {
      "midi": 75,
      "hit": false,
      "t": 75866.66666666669,
      "d": 550,
      "v": 48
    },
    {
      "midi": 84,
      "hit": false,
      "t": 75870.83333333336,
      "d": 387.5,
      "v": 53
    },
    {
      "midi": 70,
      "hit": false,
      "t": 75870.83333333336,
      "d": 1174.9999999999854,
      "v": 45
    },
    {
      "midi": 80,
      "hit": false,
      "t": 75875.00000000003,
      "d": 587.4999999999854,
      "v": 46
    },
    {
      "midi": 85,
      "hit": false,
      "t": 77033.33333333334,
      "d": 125,
      "v": 64
    },
    {
      "midi": 76,
      "hit": false,
      "t": 77041.66666666667,
      "d": 108.33333333334303,
      "v": 38
    },
    {
      "midi": 71,
      "hit": false,
      "t": 77050.00000000001,
      "d": 270.8333333333285,
      "v": 33
    },
    {
      "midi": 81,
      "hit": false,
      "t": 77054.16666666669,
      "d": 108.33333333332848,
      "v": 45
    },
    {
      "midi": 82,
      "hit": false,
      "t": 77337.50000000001,
      "d": 258.3333333333285,
      "v": 55
    },
    {
      "midi": 68,
      "hit": false,
      "t": 77345.83333333334,
      "d": 262.5,
      "v": 51
    },
    {
      "midi": 70,
      "hit": false,
      "t": 77658.33333333334,
      "d": 308.3333333333285,
      "v": 71
    },
    {
      "midi": 75,
      "hit": false,
      "t": 77658.33333333334,
      "d": 533.3333333333285,
      "v": 68
    },
    {
      "midi": 84,
      "hit": false,
      "t": 77666.66666666667,
      "d": 483.3333333333285,
      "v": 63
    },
    {
      "midi": 80,
      "hit": false,
      "t": 77666.66666666667,
      "d": 508.3333333333285,
      "v": 59
    },
    {
      "midi": 46,
      "hit": false,
      "t": 78208.33333333334,
      "d": 229.16666666665697,
      "v": 30
    },
    {
      "midi": 44,
      "hit": false,
      "t": 78216.66666666667,
      "d": 87.5,
      "v": 44
    },
    {
      "midi": 61,
      "hit": false,
      "t": 79229.16666666667,
      "d": 150,
      "v": 42
    },
    {
      "midi": 70,
      "hit": false,
      "t": 79233.33333333334,
      "d": 2070.8333333332994,
      "v": 48
    },
    {
      "midi": 60,
      "hit": false,
      "t": 79258.33333333334,
      "d": 158.33333333332848,
      "v": 51
    },
    {
      "midi": 65,
      "hit": false,
      "t": 79258.33333333334,
      "d": 1549.999999999971,
      "v": 53
    },
    {
      "midi": 61,
      "hit": false,
      "t": 79458.33333333333,
      "d": 108.33333333332848,
      "v": 44
    },
    {
      "midi": 60,
      "hit": false,
      "t": 79649.99999999999,
      "d": 62.5,
      "v": 40
    },
    {
      "midi": 58,
      "hit": false,
      "t": 79824.99999999999,
      "d": 83.33333333332848,
      "v": 39
    },
    {
      "midi": 56,
      "hit": false,
      "t": 79983.33333333331,
      "d": 95.83333333332848,
      "v": 33
    },
    {
      "midi": 55,
      "hit": false,
      "t": 80162.49999999997,
      "d": 75,
      "v": 46
    },
    {
      "midi": 54,
      "hit": false,
      "t": 80324.99999999997,
      "d": 62.5,
      "v": 34
    },
    {
      "midi": 53,
      "hit": false,
      "t": 80437.49999999997,
      "d": 66.66666666667152,
      "v": 47
    },
    {
      "midi": 52,
      "hit": false,
      "t": 80549.99999999997,
      "d": 75,
      "v": 46
    },
    {
      "midi": 51,
      "hit": false,
      "t": 80641.66666666664,
      "d": 54.16666666667152,
      "v": 57
    },
    {
      "midi": 50,
      "hit": false,
      "t": 80758.33333333331,
      "d": 79.16666666667152,
      "v": 36
    },
    {
      "midi": 49,
      "hit": false,
      "t": 80866.66666666666,
      "d": 95.83333333332848,
      "v": 44
    },
    {
      "midi": 58,
      "hit": false,
      "t": 80983.33333333331,
      "d": 362.49999999998545,
      "v": 52
    },
    {
      "midi": 64,
      "hit": false,
      "t": 80987.49999999999,
      "d": 316.66666666665697,
      "v": 49
    },
    {
      "midi": 48,
      "hit": false,
      "t": 81012.49999999999,
      "d": 270.8333333333285,
      "v": 42
    },
    {
      "midi": 43,
      "hit": false,
      "t": 81312.49999999997,
      "d": 233.33333333332848,
      "v": 38
    },
    {
      "midi": 36,
      "hit": false,
      "t": 81566.66666666663,
      "d": 54.16666666667152,
      "v": 47
    },
    {
      "midi": 24,
      "hit": false,
      "t": 81916.66666666663,
      "d": 58.33333333332848,
      "v": 33
    },
    {
      "midi": 58,
      "hit": false,
      "t": 81929.16666666663,
      "d": 450,
      "v": 49
    },
    {
      "midi": 61,
      "hit": false,
      "t": 81929.16666666663,
      "d": 700,
      "v": 42
    },
    {
      "midi": 52,
      "hit": false,
      "t": 81937.49999999996,
      "d": 229.16666666667152,
      "v": 36
    },
    {
      "midi": 60,
      "hit": false,
      "t": 82804.16666666663,
      "d": 212.50000000001455,
      "v": 47
    },
    {
      "midi": 56,
      "hit": false,
      "t": 82808.3333333333,
      "d": 195.83333333334303,
      "v": 32
    },
    {
      "midi": 55,
      "hit": false,
      "t": 82812.49999999997,
      "d": 137.5,
      "v": 31
    },
    {
      "midi": 41,
      "hit": false,
      "t": 82829.16666666664,
      "d": 450,
      "v": 38
    },
    {
      "midi": 48,
      "hit": false,
      "t": 83112.49999999997,
      "d": 220.83333333334303,
      "v": 39
    },
    {
      "midi": 60,
      "hit": false,
      "t": 83820.83333333331,
      "d": 112.5,
      "v": 47
    },
    {
      "midi": 60,
      "hit": false,
      "t": 84137.49999999999,
      "d": 62.5,
      "v": 45
    },
    {
      "midi": 74,
      "hit": false,
      "t": 84504.16666666666,
      "d": 529.1666666666715,
      "v": 71
    },
    {
      "midi": 56,
      "hit": false,
      "t": 84512.49999999999,
      "d": 312.50000000001455,
      "v": 39
    },
    {
      "midi": 62,
      "hit": false,
      "t": 84516.66666666666,
      "d": 470.83333333334303,
      "v": 66
    },
    {
      "midi": 46,
      "hit": false,
      "t": 84516.66666666666,
      "d": 637.5000000000146,
      "v": 44
    },
    {
      "midi": 67,
      "hit": false,
      "t": 84520.83333333333,
      "d": 525,
      "v": 56
    },
    {
      "midi": 53,
      "hit": false,
      "t": 84825,
      "d": 329.1666666666715,
      "v": 60
    },
    {
      "midi": 56,
      "hit": false,
      "t": 85087.5,
      "d": 116.66666666667152,
      "v": 54
    },
    {
      "midi": 62,
      "hit": false,
      "t": 85354.16666666667,
      "d": 29.166666666671517,
      "v": 52
    },
    {
      "midi": 39,
      "hit": false,
      "t": 85650.00000000001,
      "d": 404.1666666666715,
      "v": 46
    },
    {
      "midi": 77,
      "hit": false,
      "t": 85654.16666666669,
      "d": 983.3333333333576,
      "v": 70
    },
    {
      "midi": 65,
      "hit": false,
      "t": 85662.50000000001,
      "d": 604.1666666666715,
      "v": 81
    },
    {
      "midi": 70,
      "hit": false,
      "t": 85662.50000000001,
      "d": 954.1666666666861,
      "v": 74
    },
    {
      "midi": 73,
      "hit": false,
      "t": 85662.50000000001,
      "d": 983.3333333333576,
      "v": 50
    },
    {
      "midi": 54,
      "hit": false,
      "t": 85670.83333333334,
      "d": 358.33333333334303,
      "v": 56
    },
    {
      "midi": 76,
      "hit": false,
      "t": 85687.50000000001,
      "d": 33.33333333332848,
      "v": 32
    },
    {
      "midi": 46,
      "hit": false,
      "t": 85975.00000000001,
      "d": 337.50000000001455,
      "v": 62
    },
    {
      "midi": 54,
      "hit": false,
      "t": 86283.33333333336,
      "d": 70.83333333334303,
      "v": 62
    },
    {
      "midi": 58,
      "hit": false,
      "t": 86620.83333333337,
      "d": 29.166666666671517,
      "v": 64
    },
    {
      "midi": 44,
      "hit": false,
      "t": 86975.00000000004,
      "d": 170.83333333334303,
      "v": 64
    },
    {
      "midi": 80,
      "hit": false,
      "t": 86991.66666666672,
      "d": 1091.6666666666715,
      "v": 80
    },
    {
      "midi": 68,
      "hit": false,
      "t": 86995.83333333339,
      "d": 1395.8333333333285,
      "v": 76
    },
    {
      "midi": 59,
      "hit": false,
      "t": 87445.83333333339,
      "d": 1324.9999999999854,
      "v": 51
    },
    {
      "midi": 64,
      "hit": false,
      "t": 87450.00000000006,
      "d": 1312.4999999999854,
      "v": 37
    },
    {
      "midi": 54,
      "hit": false,
      "t": 87450.00000000006,
      "d": 1508.333333333314,
      "v": 37
    },
    {
      "midi": 80,
      "hit": false,
      "t": 88575.00000000004,
      "d": 254.16666666665697,
      "v": 38
    },
    {
      "midi": 68,
      "hit": false,
      "t": 88595.83333333337,
      "d": 154.16666666667152,
      "v": 25
    },
    {
      "midi": 84,
      "hit": false,
      "t": 89191.6666666667,
      "d": 300.00000000001455,
      "v": 47
    },
    {
      "midi": 72,
      "hit": false,
      "t": 89233.33333333337,
      "d": 254.16666666667152,
      "v": 33
    },
    {
      "midi": 53,
      "hit": false,
      "t": 89233.33333333337,
      "d": 625.0000000000291,
      "v": 35
    },
    {
      "midi": 77,
      "hit": false,
      "t": 89462.50000000004,
      "d": 170.83333333334303,
      "v": 1
    },
    {
      "midi": 60,
      "hit": false,
      "t": 89516.66666666672,
      "d": 633.333333333343,
      "v": 33
    },
    {
      "midi": 63,
      "hit": false,
      "t": 89737.50000000006,
      "d": 137.5,
      "v": 33
    },
    {
      "midi": 85,
      "hit": false,
      "t": 89741.66666666673,
      "d": 125,
      "v": 74
    },
    {
      "midi": 73,
      "hit": false,
      "t": 89758.3333333334,
      "d": 383.3333333333285,
      "v": 25
    },
    {
      "midi": 82,
      "hit": false,
      "t": 90025.00000000006,
      "d": 250,
      "v": 52
    },
    {
      "midi": 53,
      "hit": false,
      "t": 90029.16666666673,
      "d": 104.16666666667152,
      "v": 32
    },
    {
      "midi": 84,
      "hit": false,
      "t": 90366.66666666673,
      "d": 249.99999999998545,
      "v": 54
    },
    {
      "midi": 52,
      "hit": false,
      "t": 90379.16666666673,
      "d": 791.666666666657,
      "v": 36
    },
    {
      "midi": 58,
      "hit": false,
      "t": 90695.83333333339,
      "d": 754.166666666657,
      "v": 24
    },
    {
      "midi": 67,
      "hit": false,
      "t": 90991.66666666672,
      "d": 408.3333333333285,
      "v": 37
    },
    {
      "midi": 64,
      "hit": false,
      "t": 91004.16666666672,
      "d": 383.3333333333285,
      "v": 34
    },
    {
      "midi": 70,
      "hit": false,
      "t": 91333.33333333339,
      "d": 808.3333333333285,
      "v": 40
    },
    {
      "midi": 52,
      "hit": false,
      "t": 91366.66666666672,
      "d": 58.33333333332848,
      "v": 24
    },
    {
      "midi": 66,
      "hit": false,
      "t": 91700.00000000004,
      "d": 1237.500000000029,
      "v": 44
    },
    {
      "midi": 61,
      "hit": false,
      "t": 91708.33333333337,
      "d": 562.5000000000146,
      "v": 33
    },
    {
      "midi": 51,
      "hit": false,
      "t": 91725.00000000004,
      "d": 750.0000000000146,
      "v": 36
    },
    {
      "midi": 58,
      "hit": false,
      "t": 92037.50000000004,
      "d": 687.5000000000291,
      "v": 56
    },
    {
      "midi": 72,
      "hit": false,
      "t": 92337.50000000006,
      "d": 283.33333333334303,
      "v": 70
    },
    {
      "midi": 61,
      "hit": false,
      "t": 92350.00000000006,
      "d": 254.16666666667152,
      "v": 35
    },
    {
      "midi": 51,
      "hit": false,
      "t": 92675.00000000007,
      "d": 91.66666666667152,
      "v": 37
    },
    {
      "midi": 61,
      "hit": false,
      "t": 92687.50000000007,
      "d": 125,
      "v": 21
    },
    {
      "midi": 68,
      "hit": false,
      "t": 92691.66666666674,
      "d": 304.16666666665697,
      "v": 50
    },
    {
      "midi": 70,
      "hit": false,
      "t": 93504.16666666673,
      "d": 1925.0000000000146,
      "v": 53
    },
    {
      "midi": 64,
      "hit": false,
      "t": 93533.3333333334,
      "d": 316.66666666665697,
      "v": 50
    },
    {
      "midi": 60,
      "hit": false,
      "t": 93541.66666666673,
      "d": 1795.833333333343,
      "v": 35
    },
    {
      "midi": 54,
      "hit": false,
      "t": 93545.8333333334,
      "d": 829.166666666657,
      "v": 23
    },
    {
      "midi": 44,
      "hit": false,
      "t": 93545.8333333334,
      "d": 2208.333333333343,
      "v": 27
    },
    {
      "midi": 63,
      "hit": false,
      "t": 93966.66666666673,
      "d": 500,
      "v": 42
    },
    {
      "midi": 62,
      "hit": false,
      "t": 94508.3333333334,
      "d": 579.1666666666715,
      "v": 37
    },
    {
      "midi": 54,
      "hit": false,
      "t": 94520.8333333334,
      "d": 733.333333333343,
      "v": 31
    },
    {
      "midi": 61,
      "hit": false,
      "t": 95433.33333333342,
      "d": 783.3333333333285,
      "v": 45
    },
    {
      "midi": 54,
      "hit": false,
      "t": 95458.33333333342,
      "d": 200,
      "v": 17
    },
    {
      "midi": 60,
      "hit": false,
      "t": 96375.00000000007,
      "d": 312.49999999998545,
      "v": 38
    },
    {
      "midi": 51,
      "hit": false,
      "t": 96395.8333333334,
      "d": 645.8333333333285,
      "v": 23
    },
    {
      "midi": 57,
      "hit": false,
      "t": 96408.3333333334,
      "d": 387.49999999998545,
      "v": 24
    },
    {
      "midi": 41,
      "hit": false,
      "t": 96408.3333333334,
      "d": 558.3333333333285,
      "v": 34
    },
    {
      "midi": 59,
      "hit": false,
      "t": 96800.00000000006,
      "d": 91.66666666667152,
      "v": 50
    },
    {
      "midi": 73,
      "hit": false,
      "t": 97233.3333333334,
      "d": 175,
      "v": 44
    },
    {
      "midi": 69,
      "hit": false,
      "t": 97245.8333333334,
      "d": 100,
      "v": 50
    },
    {
      "midi": 77,
      "hit": false,
      "t": 97587.50000000007,
      "d": 266.6666666666715,
      "v": 58
    },
    {
      "midi": 63,
      "hit": false,
      "t": 97600.00000000007,
      "d": 416.6666666666715,
      "v": 31
    },
    {
      "midi": 77,
      "hit": false,
      "t": 97987.50000000007,
      "d": 829.166666666657,
      "v": 50
    },
    {
      "midi": 71,
      "hit": false,
      "t": 98012.50000000007,
      "d": 337.5,
      "v": 35
    },
    {
      "midi": 65,
      "hit": false,
      "t": 98025.00000000007,
      "d": 333.3333333333285,
      "v": 43
    },
    {
      "midi": 73,
      "hit": false,
      "t": 98025.00000000007,
      "d": 770.8333333333285,
      "v": 20
    },
    {
      "midi": 63,
      "hit": false,
      "t": 98416.66666666673,
      "d": 400,
      "v": 32
    },
    {
      "midi": 71,
      "hit": false,
      "t": 98833.3333333334,
      "d": 529.1666666666715,
      "v": 33
    },
    {
      "midi": 61,
      "hit": false,
      "t": 98850.00000000007,
      "d": 500,
      "v": 35
    },
    {
      "midi": 65,
      "hit": false,
      "t": 98866.66666666674,
      "d": 358.3333333333285,
      "v": 24
    },
    {
      "midi": 73,
      "hit": false,
      "t": 99275.00000000007,
      "d": 408.3333333333285,
      "v": 28
    },
    {
      "midi": 72,
      "hit": false,
      "t": 99737.50000000007,
      "d": 1750.0000000000146,
      "v": 38
    },
    {
      "midi": 68,
      "hit": false,
      "t": 99770.8333333334,
      "d": 187.5,
      "v": 18
    },
    {
      "midi": 63,
      "hit": false,
      "t": 99775.00000000007,
      "d": 200,
      "v": 27
    },
    {
      "midi": 60,
      "hit": false,
      "t": 99775.00000000007,
      "d": 216.66666666667152,
      "v": 27
    },
    {
      "midi": 34,
      "hit": false,
      "t": 100362.50000000007,
      "d": 125,
      "v": 39
    },
    {
      "midi": 22,
      "hit": false,
      "t": 101166.66666666674,
      "d": 304.1666666666715,
      "v": 33
    },
    {
      "midi": 56,
      "hit": false,
      "t": 102308.33333333342,
      "d": 400,
      "v": 76
    },
    {
      "midi": 92,
      "hit": false,
      "t": 102316.66666666674,
      "d": 404.1666666666715,
      "v": 86
    },
    {
      "midi": 92,
      "hit": false,
      "t": 102870.83333333342,
      "d": 466.6666666666715,
      "v": 84
    },
    {
      "midi": 56,
      "hit": false,
      "t": 102875.00000000009,
      "d": 475,
      "v": 85
    },
    {
      "midi": 92,
      "hit": false,
      "t": 103441.66666666676,
      "d": 504.1666666666715,
      "v": 53
    },
    {
      "midi": 56,
      "hit": false,
      "t": 103454.16666666676,
      "d": 500,
      "v": 71
    },
    {
      "midi": 90,
      "hit": false,
      "t": 104037.50000000009,
      "d": 487.5,
      "v": 35
    },
    {
      "midi": 54,
      "hit": false,
      "t": 104041.66666666676,
      "d": 537.5,
      "v": 49
    },
    {
      "midi": 89,
      "hit": false,
      "t": 105091.66666666676,
      "d": 341.6666666666715,
      "v": 48
    },
    {
      "midi": 53,
      "hit": false,
      "t": 105095.83333333343,
      "d": 466.6666666666715,
      "v": 34
    },
    {
      "midi": 63,
      "hit": false,
      "t": 106537.5000000001,
      "d": 304.1666666666715,
      "v": 37
    },
    {
      "midi": 61,
      "hit": false,
      "t": 106550.0000000001,
      "d": 270.83333333334303,
      "v": 35
    },
    {
      "midi": 55,
      "hit": false,
      "t": 106554.16666666677,
      "d": 204.16666666667152,
      "v": 34
    },
    {
      "midi": 45,
      "hit": false,
      "t": 106570.83333333344,
      "d": 275,
      "v": 34
    },
    {
      "midi": 75,
      "hit": false,
      "t": 107112.50000000012,
      "d": 233.33333333332848,
      "v": 59
    },
    {
      "midi": 75,
      "hit": false,
      "t": 107650.00000000012,
      "d": 483.3333333333285,
      "v": 59
    },
    {
      "midi": 73,
      "hit": false,
      "t": 107675.00000000012,
      "d": 458.3333333333285,
      "v": 34
    },
    {
      "midi": 67,
      "hit": false,
      "t": 107695.83333333344,
      "d": 404.1666666666715,
      "v": 38
    },
    {
      "midi": 75,
      "hit": false,
      "t": 108275.00000000012,
      "d": 379.1666666666715,
      "v": 53
    },
    {
      "midi": 61,
      "hit": false,
      "t": 108275.00000000012,
      "d": 591.6666666666715,
      "v": 33
    },
    {
      "midi": 61,
      "hit": false,
      "t": 109383.33333333346,
      "d": 283.3333333333285,
      "v": 30
    },
    {
      "midi": 75,
      "hit": false,
      "t": 110079.16666666679,
      "d": 524.9999999999854,
      "v": 47
    },
    {
      "midi": 73,
      "hit": false,
      "t": 110112.50000000012,
      "d": 495.8333333333285,
      "v": 25
    },
    {
      "midi": 57,
      "hit": false,
      "t": 110120.83333333344,
      "d": 358.3333333333285,
      "v": 24
    },
    {
      "midi": 67,
      "hit": false,
      "t": 110120.83333333344,
      "d": 458.3333333333285,
      "v": 16
    },
    {
      "midi": 75,
      "hit": false,
      "t": 110950.00000000012,
      "d": 850,
      "v": 30
    },
    {
      "midi": 67,
      "hit": false,
      "t": 110954.16666666679,
      "d": 670.8333333333285,
      "v": 27
    },
    {
      "midi": 73,
      "hit": false,
      "t": 110966.66666666679,
      "d": 775,
      "v": 25
    },
    {
      "midi": 57,
      "hit": false,
      "t": 110979.16666666679,
      "d": 670.8333333333285,
      "v": 26
    },
    {
      "midi": 63,
      "hit": false,
      "t": 112225.00000000012,
      "d": 154.16666666667152,
      "v": 43
    },
    {
      "midi": 87,
      "hit": false,
      "t": 112229.16666666679,
      "d": 137.5,
      "v": 61
    },
    {
      "midi": 87,
      "hit": false,
      "t": 112470.83333333346,
      "d": 116.66666666665697,
      "v": 78
    },
    {
      "midi": 63,
      "hit": false,
      "t": 112479.16666666679,
      "d": 170.83333333332848,
      "v": 71
    },
    {
      "midi": 63,
      "hit": false,
      "t": 112741.66666666679,
      "d": 195.83333333334303,
      "v": 79
    },
    {
      "midi": 87,
      "hit": false,
      "t": 112745.83333333346,
      "d": 162.5,
      "v": 88
    },
    {
      "midi": 87,
      "hit": false,
      "t": 113008.33333333346,
      "d": 175,
      "v": 82
    },
    {
      "midi": 63,
      "hit": false,
      "t": 113012.50000000013,
      "d": 208.33333333332848,
      "v": 72
    },
    {
      "midi": 63,
      "hit": false,
      "t": 113312.50000000013,
      "d": 316.6666666666715,
      "v": 64
    },
    {
      "midi": 87,
      "hit": false,
      "t": 113316.6666666668,
      "d": 258.3333333333285,
      "v": 74
    },
    {
      "midi": 89,
      "hit": false,
      "t": 113620.83333333346,
      "d": 254.16666666667152,
      "v": 70
    },
    {
      "midi": 65,
      "hit": false,
      "t": 113625.00000000013,
      "d": 254.16666666667152,
      "v": 67
    },
    {
      "midi": 89,
      "hit": false,
      "t": 113975.00000000013,
      "d": 587.5,
      "v": 52
    },
    {
      "midi": 65,
      "hit": false,
      "t": 113983.33333333346,
      "d": 316.6666666666715,
      "v": 48
    },
    {
      "midi": 61,
      "hit": false,
      "t": 114383.33333333346,
      "d": 150,
      "v": 28
    },
    {
      "midi": 85,
      "hit": false,
      "t": 114391.66666666679,
      "d": 204.16666666667152,
      "v": 34
    },
    {
      "midi": 39,
      "hit": false,
      "t": 115845.83333333346,
      "d": 166.66666666667152,
      "v": 37
    },
    {
      "midi": 46,
      "hit": false,
      "t": 115983.33333333346,
      "d": 779.1666666666715,
      "v": 50
    },
    {
      "midi": 54,
      "hit": false,
      "t": 116029.1666666668,
      "d": 737.5,
      "v": 28
    },
    {
      "midi": 61,
      "hit": false,
      "t": 116095.83333333347,
      "d": 695.8333333333285,
      "v": 44
    },
    {
      "midi": 53,
      "hit": false,
      "t": 116108.33333333347,
      "d": 429.16666666665697,
      "v": 36
    },
    {
      "midi": 68,
      "hit": false,
      "t": 116166.6666666668,
      "d": 566.666666666657,
      "v": 60
    },
    {
      "midi": 39,
      "hit": false,
      "t": 116829.1666666668,
      "d": 141.66666666665697,
      "v": 34
    },
    {
      "midi": 46,
      "hit": false,
      "t": 116937.50000000013,
      "d": 404.1666666666424,
      "v": 53
    },
    {
      "midi": 54,
      "hit": false,
      "t": 117029.16666666679,
      "d": 324.99999999998545,
      "v": 54
    },
    {
      "midi": 53,
      "hit": false,
      "t": 117075.00000000012,
      "d": 116.66666666665697,
      "v": 35
    },
    {
      "midi": 61,
      "hit": false,
      "t": 117083.33333333344,
      "d": 325,
      "v": 35
    },
    {
      "midi": 68,
      "hit": false,
      "t": 117162.50000000012,
      "d": 208.33333333332848,
      "v": 55
    },
    {
      "midi": 39,
      "hit": false,
      "t": 117350.0000000001,
      "d": 129.16666666667152,
      "v": 44
    },
    {
      "midi": 46,
      "hit": false,
      "t": 117441.66666666677,
      "d": 295.8333333333285,
      "v": 52
    },
    {
      "midi": 54,
      "hit": false,
      "t": 117554.16666666677,
      "d": 137.49999999998545,
      "v": 46
    },
    {
      "midi": 53,
      "hit": false,
      "t": 117575.0000000001,
      "d": 66.66666666665697,
      "v": 38
    },
    {
      "midi": 61,
      "hit": false,
      "t": 117608.33333333343,
      "d": 233.33333333334303,
      "v": 46
    },
    {
      "midi": 68,
      "hit": false,
      "t": 117695.83333333343,
      "d": 120.83333333334303,
      "v": 52
    },
    {
      "midi": 39,
      "hit": false,
      "t": 117766.66666666677,
      "d": 137.5,
      "v": 45
    },
    {
      "midi": 46,
      "hit": false,
      "t": 117866.66666666677,
      "d": 291.66666666665697,
      "v": 43
    },
    {
      "midi": 54,
      "hit": false,
      "t": 117933.33333333344,
      "d": 133.33333333332848,
      "v": 37
    },
    {
      "midi": 61,
      "hit": false,
      "t": 118012.50000000012,
      "d": 204.1666666666424,
      "v": 37
    },
    {
      "midi": 53,
      "hit": false,
      "t": 118020.83333333344,
      "d": 37.5,
      "v": 27
    },
    {
      "midi": 68,
      "hit": false,
      "t": 118112.5000000001,
      "d": 120.83333333332848,
      "v": 39
    },
    {
      "midi": 39,
      "hit": false,
      "t": 118195.83333333343,
      "d": 150,
      "v": 39
    },
    {
      "midi": 46,
      "hit": false,
      "t": 118316.66666666676,
      "d": 279.1666666666715,
      "v": 46
    },
    {
      "midi": 54,
      "hit": false,
      "t": 118333.33333333343,
      "d": 137.5,
      "v": 31
    },
    {
      "midi": 61,
      "hit": false,
      "t": 118433.33333333343,
      "d": 241.66666666665697,
      "v": 39
    },
    {
      "midi": 68,
      "hit": false,
      "t": 118545.83333333343,
      "d": 120.83333333332848,
      "v": 31
    },
    {
      "midi": 39,
      "hit": false,
      "t": 118629.16666666676,
      "d": 129.16666666665697,
      "v": 32
    },
    {
      "midi": 46,
      "hit": false,
      "t": 118733.33333333342,
      "d": 208.33333333332848,
      "v": 38
    },
    {
      "midi": 54,
      "hit": false,
      "t": 118795.83333333342,
      "d": 116.66666666665697,
      "v": 30
    },
    {
      "midi": 61,
      "hit": false,
      "t": 118879.16666666674,
      "d": 225,
      "v": 39
    },
    {
      "midi": 68,
      "hit": false,
      "t": 118975.00000000007,
      "d": 129.16666666667152,
      "v": 38
    },
    {
      "midi": 39,
      "hit": false,
      "t": 119075.00000000007,
      "d": 108.33333333334303,
      "v": 32
    },
    {
      "midi": 46,
      "hit": false,
      "t": 119229.16666666674,
      "d": 220.8333333333576,
      "v": 32
    },
    {
      "midi": 54,
      "hit": false,
      "t": 119233.33333333342,
      "d": 120.83333333334303,
      "v": 28
    },
    {
      "midi": 61,
      "hit": false,
      "t": 119312.50000000009,
      "d": 225.0000000000291,
      "v": 38
    },
    {
      "midi": 68,
      "hit": false,
      "t": 119408.33333333343,
      "d": 112.50000000001455,
      "v": 31
    },
    {
      "midi": 39,
      "hit": false,
      "t": 119504.16666666677,
      "d": 125,
      "v": 32
    },
    {
      "midi": 46,
      "hit": false,
      "t": 119620.83333333344,
      "d": 262.5,
      "v": 38
    },
    {
      "midi": 54,
      "hit": false,
      "t": 119645.83333333344,
      "d": 141.66666666667152,
      "v": 23
    },
    {
      "midi": 61,
      "hit": false,
      "t": 119737.50000000012,
      "d": 245.83333333332848,
      "v": 37
    },
    {
      "midi": 68,
      "hit": false,
      "t": 119850.00000000012,
      "d": 137.5,
      "v": 34
    },
    {
      "midi": 39,
      "hit": false,
      "t": 119920.83333333344,
      "d": 145.83333333334303,
      "v": 32
    },
    {
      "midi": 46,
      "hit": false,
      "t": 120062.50000000012,
      "d": 454.16666666668607,
      "v": 29
    },
    {
      "midi": 54,
      "hit": false,
      "t": 120104.16666666679,
      "d": 191.66666666667152,
      "v": 26
    },
    {
      "midi": 61,
      "hit": false,
      "t": 120208.33333333346,
      "d": 345.83333333334303,
      "v": 33
    },
    {
      "midi": 68,
      "hit": false,
      "t": 120325.00000000013,
      "d": 316.66666666665697,
      "v": 32
    },
    {
      "midi": 38,
      "hit": false,
      "t": 120575.00000000013,
      "d": 470.8333333333285,
      "v": 50
    },
    {
      "midi": 52,
      "hit": false,
      "t": 121216.66666666679,
      "d": 220.83333333332848,
      "v": 38
    },
    {
      "midi": 59,
      "hit": false,
      "t": 121429.16666666679,
      "d": 66.66666666665697,
      "v": 40
    },
    {
      "midi": 56,
      "hit": false,
      "t": 121445.83333333344,
      "d": 754.1666666666715,
      "v": 32
    },
    {
      "midi": 64,
      "hit": false,
      "t": 121591.66666666677,
      "d": 166.66666666667152,
      "v": 47
    },
    {
      "midi": 68,
      "hit": false,
      "t": 121762.50000000012,
      "d": 75,
      "v": 60
    },
    {
      "midi": 59,
      "hit": false,
      "t": 121804.16666666679,
      "d": 466.66666666665697,
      "v": 28
    },
    {
      "midi": 71,
      "hit": false,
      "t": 121941.66666666679,
      "d": 150,
      "v": 41
    },
    {
      "midi": 64,
      "hit": false,
      "t": 121975.00000000012,
      "d": 137.5,
      "v": 36
    },
    {
      "midi": 76,
      "hit": false,
      "t": 122145.83333333344,
      "d": 208.33333333334303,
      "v": 39
    },
    {
      "midi": 83,
      "hit": false,
      "t": 122162.50000000012,
      "d": 162.5,
      "v": 41
    },
    {
      "midi": 71,
      "hit": false,
      "t": 122379.16666666679,
      "d": 162.5,
      "v": 34
    },
    {
      "midi": 80,
      "hit": false,
      "t": 122379.16666666679,
      "d": 179.16666666667152,
      "v": 33
    },
    {
      "midi": 76,
      "hit": false,
      "t": 122604.16666666679,
      "d": 154.16666666667152,
      "v": 22
    },
    {
      "midi": 83,
      "hit": false,
      "t": 122616.66666666679,
      "d": 137.5,
      "v": 26
    },
    {
      "midi": 71,
      "hit": false,
      "t": 122841.66666666679,
      "d": 604.1666666666715,
      "v": 34
    },
    {
      "midi": 80,
      "hit": false,
      "t": 122845.83333333346,
      "d": 700,
      "v": 33
    },
    {
      "midi": 76,
      "hit": false,
      "t": 122875.00000000013,
      "d": 558.3333333333285,
      "v": 17
    },
    {
      "midi": 54,
      "hit": false,
      "t": 122883.33333333346,
      "d": 250,
      "v": 28
    },
    {
      "midi": 60,
      "hit": false,
      "t": 122887.50000000013,
      "d": 470.8333333333285,
      "v": 31
    },
    {
      "midi": 50,
      "hit": false,
      "t": 122900.00000000013,
      "d": 1629.1666666666715,
      "v": 32
    },
    {
      "midi": 54,
      "hit": false,
      "t": 123295.83333333346,
      "d": 1258.333333333343,
      "v": 34
    },
    {
      "midi": 80,
      "hit": false,
      "t": 123737.50000000013,
      "d": 770.833333333343,
      "v": 18
    },
    {
      "midi": 60,
      "hit": false,
      "t": 123758.33333333346,
      "d": 700.0000000000146,
      "v": 34
    },
    {
      "midi": 76,
      "hit": false,
      "t": 123762.50000000013,
      "d": 741.6666666666715,
      "v": 25
    },
    {
      "midi": 71,
      "hit": false,
      "t": 123766.6666666668,
      "d": 741.6666666666715,
      "v": 24
    },
    {
      "midi": 68,
      "hit": false,
      "t": 126279.16666666679,
      "d": 1604.1666666666715,
      "v": 37
    },
    {
      "midi": 37,
      "hit": false,
      "t": 126295.83333333346,
      "d": 70.83333333332848,
      "v": 30
    },
    {
      "midi": 44,
      "hit": false,
      "t": 126300.00000000013,
      "d": 79.16666666665697,
      "v": 29
    },
    {
      "midi": 63,
      "hit": false,
      "t": 127033.33333333346,
      "d": 916.6666666666715,
      "v": 27
    },
    {
      "midi": 58,
      "hit": false,
      "t": 127062.50000000013,
      "d": 895.8333333333285,
      "v": 31
    },
    {
      "midi": 53,
      "hit": false,
      "t": 127087.50000000013,
      "d": 745.8333333333285,
      "v": 19
    },
    {
      "midi": 70,
      "hit": false,
      "t": 127820.83333333346,
      "d": 250,
      "v": 77
    },
    {
      "midi": 64,
      "hit": false,
      "t": 128108.33333333346,
      "d": 737.5000000000146,
      "v": 38
    },
    {
      "midi": 71,
      "hit": false,
      "t": 128112.50000000013,
      "d": 329.1666666666715,
      "v": 58
    },
    {
      "midi": 59,
      "hit": false,
      "t": 128112.50000000013,
      "d": 1433.333333333343,
      "v": 46
    },
    {
      "midi": 54,
      "hit": false,
      "t": 128120.83333333346,
      "d": 1495.833333333343,
      "v": 27
    },
    {
      "midi": 76,
      "hit": false,
      "t": 128441.6666666668,
      "d": 129.16666666667152,
      "v": 55
    },
    {
      "midi": 83,
      "hit": false,
      "t": 128620.83333333347,
      "d": 120.83333333332848,
      "v": 73
    },
    {
      "midi": 80,
      "hit": false,
      "t": 128791.6666666668,
      "d": 58.333333333343035,
      "v": 46
    },
    {
      "midi": 89,
      "hit": false,
      "t": 129012.50000000015,
      "d": 66.66666666667152,
      "v": 55
    },
    {
      "midi": 88,
      "hit": false,
      "t": 129012.50000000015,
      "d": 120.83333333334303,
      "v": 62
    },
    {
      "midi": 64,
      "hit": false,
      "t": 129016.66666666682,
      "d": 216.66666666667152,
      "v": 36
    },
    {
      "midi": 76,
      "hit": false,
      "t": 129204.16666666682,
      "d": 37.5,
      "v": 41
    },
    {
      "midi": 84,
      "hit": false,
      "t": 129250.00000000015,
      "d": 25,
      "v": 24
    },
    {
      "midi": 64,
      "hit": false,
      "t": 129462.50000000015,
      "d": 41.666666666656965,
      "v": 32
    },
    {
      "midi": 100,
      "hit": false,
      "t": 129470.83333333347,
      "d": 179.16666666665697,
      "v": 71
    },
    {
      "midi": 88,
      "hit": false,
      "t": 129708.33333333346,
      "d": 104.16666666667152,
      "v": 43
    },
    {
      "midi": 95,
      "hit": false,
      "t": 129720.83333333346,
      "d": 95.83333333334303,
      "v": 53
    },
    {
      "midi": 99,
      "hit": false,
      "t": 129970.83333333347,
      "d": 237.50000000001455,
      "v": 53
    },
    {
      "midi": 37,
      "hit": false,
      "t": 129975.00000000015,
      "d": 116.66666666667152,
      "v": 46
    },
    {
      "midi": 44,
      "hit": false,
      "t": 129987.50000000015,
      "d": 133.33333333334303,
      "v": 37
    },
    {
      "midi": 87,
      "hit": false,
      "t": 130000.00000000015,
      "d": 283.33333333334303,
      "v": 20
    },
    {
      "midi": 96,
      "hit": false,
      "t": 130004.16666666682,
      "d": 200,
      "v": 44
    },
    {
      "midi": 92,
      "hit": false,
      "t": 130095.83333333349,
      "d": 150,
      "v": 5
    },
    {
      "midi": 68,
      "hit": false,
      "t": 130875.00000000016,
      "d": 270.8333333333285,
      "v": 30
    },
    {
      "midi": 65,
      "hit": false,
      "t": 130879.16666666683,
      "d": 250,
      "v": 31
    },
    {
      "midi": 60,
      "hit": false,
      "t": 130887.50000000016,
      "d": 474.99999999998545,
      "v": 36
    },
    {
      "midi": 72,
      "hit": false,
      "t": 130891.66666666683,
      "d": 150.00000000001455,
      "v": 33
    },
    {
      "midi": 56,
      "hit": false,
      "t": 130908.3333333335,
      "d": 704.1666666666133,
      "v": 21
    },
    {
      "midi": 53,
      "hit": false,
      "t": 130937.50000000017,
      "d": 437.4999999999709,
      "v": 15
    },
    {
      "midi": 63,
      "hit": false,
      "t": 131075.00000000017,
      "d": 370.8333333332848,
      "v": 1
    },
    {
      "midi": 68,
      "hit": false,
      "t": 131195.8333333335,
      "d": 208.33333333331393,
      "v": 75
    },
    {
      "midi": 70,
      "hit": false,
      "t": 131433.33333333346,
      "d": 270.83333333331393,
      "v": 83
    },
    {
      "midi": 68,
      "hit": false,
      "t": 131445.83333333346,
      "d": 29.166666666656965,
      "v": 53
    },
    {
      "midi": 64,
      "hit": false,
      "t": 131708.33333333343,
      "d": 533.3333333333139,
      "v": 45
    },
    {
      "midi": 59,
      "hit": false,
      "t": 131712.5000000001,
      "d": 566.666666666657,
      "v": 31
    },
    {
      "midi": 54,
      "hit": false,
      "t": 131712.5000000001,
      "d": 1433.333333333314,
      "v": 32
    },
    {
      "midi": 71,
      "hit": false,
      "t": 131725.0000000001,
      "d": 325,
      "v": 59
    },
    {
      "midi": 76,
      "hit": false,
      "t": 132012.5000000001,
      "d": 995.8333333333139,
      "v": 56
    },
    {
      "midi": 59,
      "hit": false,
      "t": 132579.16666666674,
      "d": 433.33333333331393,
      "v": 36
    },
    {
      "midi": 64,
      "hit": false,
      "t": 132579.16666666674,
      "d": 445.83333333331393,
      "v": 24
    },
    {
      "midi": 71,
      "hit": false,
      "t": 133087.50000000006,
      "d": 241.66666666668607,
      "v": 41
    },
    {
      "midi": 70,
      "hit": false,
      "t": 133383.3333333334,
      "d": 891.666666666657,
      "v": 35
    },
    {
      "midi": 65,
      "hit": false,
      "t": 133395.8333333334,
      "d": 1062.5,
      "v": 32
    },
    {
      "midi": 60,
      "hit": false,
      "t": 133404.16666666674,
      "d": 241.66666666665697,
      "v": 33
    },
    {
      "midi": 53,
      "hit": false,
      "t": 133408.3333333334,
      "d": 241.66666666665697,
      "v": 24
    },
    {
      "midi": 56,
      "hit": false,
      "t": 133433.3333333334,
      "d": 275,
      "v": 25
    },
    {
      "midi": 37,
      "hit": false,
      "t": 134308.3333333334,
      "d": 300,
      "v": 29
    },
    {
      "midi": 44,
      "hit": false,
      "t": 134320.8333333334,
      "d": 320.83333333334303,
      "v": 21
    },
    {
      "midi": 68,
      "hit": false,
      "t": 134554.16666666674,
      "d": 91.66666666665697,
      "v": 55
    },
    {
      "midi": 78,
      "hit": false,
      "t": 135595.8333333334,
      "d": 308.3333333332848,
      "v": 67
    },
    {
      "midi": 73,
      "hit": false,
      "t": 135600.00000000006,
      "d": 320.8333333332848,
      "v": 64
    },
    {
      "midi": 76,
      "hit": false,
      "t": 135604.16666666672,
      "d": 341.66666666662786,
      "v": 71
    },
    {
      "midi": 69,
      "hit": false,
      "t": 135608.33333333337,
      "d": 279.16666666665697,
      "v": 80
    },
    {
      "midi": 68,
      "hit": false,
      "t": 135612.50000000003,
      "d": 700,
      "v": 82
    },
    {
      "midi": 78,
      "hit": false,
      "t": 136004.1666666667,
      "d": 341.66666666668607,
      "v": 53
    },
    {
      "midi": 73,
      "hit": false,
      "t": 136012.50000000003,
      "d": 375,
      "v": 37
    },
    {
      "midi": 76,
      "hit": false,
      "t": 136025.00000000003,
      "d": 104.16666666665697,
      "v": 49
    },
    {
      "midi": 69,
      "hit": false,
      "t": 136025.00000000003,
      "d": 312.5,
      "v": 62
    },
    {
      "midi": 66,
      "hit": false,
      "t": 136412.50000000003,
      "d": 33.33333333331393,
      "v": 40
    },
    {
      "midi": 80,
      "hit": false,
      "t": 136416.6666666667,
      "d": 83.33333333331393,
      "v": 62
    },
    {
      "midi": 73,
      "hit": false,
      "t": 136420.83333333334,
      "d": 91.66666666665697,
      "v": 25
    },
    {
      "midi": 69,
      "hit": false,
      "t": 136458.33333333334,
      "d": 50,
      "v": 17
    },
    {
      "midi": 63,
      "hit": false,
      "t": 136829.16666666666,
      "d": 804.1666666666861,
      "v": 29
    },
    {
      "midi": 71,
      "hit": false,
      "t": 136837.5,
      "d": 941.6666666666861,
      "v": 28
    },
    {
      "midi": 68,
      "hit": false,
      "t": 136841.66666666666,
      "d": 1579.166666666657,
      "v": 48
    },
    {
      "midi": 59,
      "hit": false,
      "t": 136862.5,
      "d": 733.333333333343,
      "v": 24
    },
    {
      "midi": 52,
      "hit": false,
      "t": 137341.6666666667,
      "d": 662.5,
      "v": 61
    },
    {
      "midi": 59,
      "hit": false,
      "t": 137779.1666666667,
      "d": 354.16666666665697,
      "v": 36
    },
    {
      "midi": 63,
      "hit": false,
      "t": 137779.1666666667,
      "d": 512.4999999999709,
      "v": 27
    },
    {
      "midi": 71,
      "hit": false,
      "t": 137879.1666666667,
      "d": 504.16666666662786,
      "v": 17
    },
    {
      "midi": 52,
      "hit": false,
      "t": 138250,
      "d": 54.166666666656965,
      "v": 40
    },
    {
      "midi": 68,
      "hit": false,
      "t": 138662.49999999997,
      "d": 124.9999999999709,
      "v": 31
    },
    {
      "midi": 71,
      "hit": false,
      "t": 138666.66666666663,
      "d": 129.16666666665697,
      "v": 33
    },
    {
      "midi": 64,
      "hit": false,
      "t": 138670.83333333328,
      "d": 75,
      "v": 55
    },
    {
      "midi": 60,
      "hit": false,
      "t": 138683.33333333328,
      "d": 379.16666666665697,
      "v": 34
    },
    {
      "midi": 50,
      "hit": false,
      "t": 138695.83333333328,
      "d": 354.16666666665697,
      "v": 34
    },
    {
      "midi": 83,
      "hit": false,
      "t": 138970.83333333328,
      "d": 216.66666666665697,
      "v": 69
    },
    {
      "midi": 77,
      "hit": false,
      "t": 138999.99999999994,
      "d": 62.5,
      "v": 29
    },
    {
      "midi": 76,
      "hit": false,
      "t": 138999.99999999994,
      "d": 204.16666666665697,
      "v": 39
    },
    {
      "midi": 54,
      "hit": false,
      "t": 139016.6666666666,
      "d": 83.33333333334303,
      "v": 23
    },
    {
      "midi": 80,
      "hit": false,
      "t": 139229.1666666666,
      "d": 150,
      "v": 34
    },
    {
      "midi": 76,
      "hit": false,
      "t": 139249.99999999994,
      "d": 137.5,
      "v": 26
    },
    {
      "midi": 71,
      "hit": false,
      "t": 139254.1666666666,
      "d": 237.5,
      "v": 55
    },
    {
      "midi": 64,
      "hit": false,
      "t": 139541.6666666666,
      "d": 250,
      "v": 33
    },
    {
      "midi": 59,
      "hit": false,
      "t": 139558.33333333326,
      "d": 375.0000000000291,
      "v": 26
    },
    {
      "midi": 54,
      "hit": false,
      "t": 139566.6666666666,
      "d": 441.66666666668607,
      "v": 26
    },
    {
      "midi": 68,
      "hit": false,
      "t": 139837.49999999994,
      "d": 175,
      "v": 43
    },
    {
      "midi": 76,
      "hit": false,
      "t": 139837.49999999994,
      "d": 233.33333333334303,
      "v": 44
    },
    {
      "midi": 71,
      "hit": false,
      "t": 140104.16666666663,
      "d": 150,
      "v": 42
    },
    {
      "midi": 64,
      "hit": false,
      "t": 140112.49999999997,
      "d": 120.83333333331393,
      "v": 48
    },
    {
      "midi": 68,
      "hit": false,
      "t": 140116.66666666663,
      "d": 145.83333333334303,
      "v": 26
    },
    {
      "midi": 65,
      "hit": false,
      "t": 140420.8333333333,
      "d": 908.333333333343,
      "v": 50
    },
    {
      "midi": 75,
      "hit": false,
      "t": 140424.99999999997,
      "d": 925,
      "v": 33
    },
    {
      "midi": 56,
      "hit": false,
      "t": 140433.3333333333,
      "d": 200,
      "v": 27
    },
    {
      "midi": 68,
      "hit": false,
      "t": 140441.66666666666,
      "d": 895.8333333333139,
      "v": 32
    },
    {
      "midi": 49,
      "hit": false,
      "t": 140449.99999999997,
      "d": 216.66666666668607,
      "v": 31
    },
    {
      "midi": 72,
      "hit": false,
      "t": 140466.66666666663,
      "d": 850.0000000000291,
      "v": 30
    },
    {
      "midi": 37,
      "hit": false,
      "t": 140937.5,
      "d": 204.16666666665697,
      "v": 62
    },
    {
      "midi": 44,
      "hit": false,
      "t": 141150,
      "d": 183.33333333331393,
      "v": 60
    },
    {
      "midi": 42,
      "hit": false,
      "t": 141250,
      "d": 83.33333333331393,
      "v": 11
    },
    {
      "midi": 53,
      "hit": false,
      "t": 141374.99999999997,
      "d": 187.5,
      "v": 66
    },
    {
      "midi": 56,
      "hit": false,
      "t": 141587.49999999997,
      "d": 629.166666666657,
      "v": 47
    },
    {
      "midi": 60,
      "hit": false,
      "t": 141604.16666666663,
      "d": 150,
      "v": 63
    },
    {
      "midi": 63,
      "hit": false,
      "t": 141820.83333333328,
      "d": 320.83333333334303,
      "v": 68
    },
    {
      "midi": 60,
      "hit": false,
      "t": 141841.66666666663,
      "d": 162.5,
      "v": 49
    },
    {
      "midi": 68,
      "hit": false,
      "t": 142037.49999999997,
      "d": 187.5,
      "v": 77
    },
    {
      "midi": 64,
      "hit": false,
      "t": 142266.66666666663,
      "d": 341.66666666662786,
      "v": 63
    },
    {
      "midi": 59,
      "hit": false,
      "t": 142274.99999999997,
      "d": 233.33333333331393,
      "v": 55
    },
    {
      "midi": 54,
      "hit": false,
      "t": 142279.16666666663,
      "d": 1241.6666666665697,
      "v": 43
    },
    {
      "midi": 71,
      "hit": false,
      "t": 142291.66666666663,
      "d": 187.5,
      "v": 66
    },
    {
      "midi": 76,
      "hit": false,
      "t": 142574.99999999994,
      "d": 208.33333333331393,
      "v": 71
    },
    {
      "midi": 59,
      "hit": false,
      "t": 142591.6666666666,
      "d": 158.33333333331393,
      "v": 38
    },
    {
      "midi": 64,
      "hit": false,
      "t": 142845.83333333326,
      "d": 41.666666666656965,
      "v": 60
    },
    {
      "midi": 71,
      "hit": false,
      "t": 142845.83333333326,
      "d": 83.33333333331393,
      "v": 51
    },
    {
      "midi": 59,
      "hit": false,
      "t": 142849.9999999999,
      "d": 370.83333333331393,
      "v": 55
    },
    {
      "midi": 68,
      "hit": false,
      "t": 142858.33333333326,
      "d": 58.33333333331393,
      "v": 37
    },
    {
      "midi": 80,
      "hit": false,
      "t": 143133.33333333323,
      "d": 424.9999999999709,
      "v": 68
    },
    {
      "midi": 88,
      "hit": false,
      "t": 143149.99999999988,
      "d": 270.83333333334303,
      "v": 72
    },
    {
      "midi": 64,
      "hit": false,
      "t": 143149.99999999988,
      "d": 300,
      "v": 49
    },
    {
      "midi": 76,
      "hit": false,
      "t": 143437.49999999988,
      "d": 120.83333333331393,
      "v": 52
    },
    {
      "midi": 59,
      "hit": false,
      "t": 143449.99999999988,
      "d": 283.33333333334303,
      "v": 56
    },
    {
      "midi": 83,
      "hit": false,
      "t": 143454.16666666654,
      "d": 100,
      "v": 38
    },
    {
      "midi": 89,
      "hit": false,
      "t": 143708.3333333332,
      "d": 104.16666666671517,
      "v": 72
    },
    {
      "midi": 84,
      "hit": false,
      "t": 143716.66666666654,
      "d": 83.33333333337214,
      "v": 72
    },
    {
      "midi": 54,
      "hit": false,
      "t": 143724.99999999988,
      "d": 54.16666666668607,
      "v": 33
    },
    {
      "midi": 92,
      "hit": false,
      "t": 144012.4999999999,
      "d": 37.5,
      "v": 61
    },
    {
      "midi": 78,
      "hit": false,
      "t": 144012.4999999999,
      "d": 108.33333333334303,
      "v": 36
    },
    {
      "midi": 80,
      "hit": false,
      "t": 144016.66666666657,
      "d": 191.66666666668607,
      "v": 31
    },
    {
      "midi": 39,
      "hit": false,
      "t": 144074.9999999999,
      "d": 129.16666666668607,
      "v": 30
    },
    {
      "midi": 44,
      "hit": false,
      "t": 144283.33333333326,
      "d": 191.66666666665697,
      "v": 55
    },
    {
      "midi": 94,
      "hit": false,
      "t": 144287.4999999999,
      "d": 225,
      "v": 62
    },
    {
      "midi": 82,
      "hit": false,
      "t": 144316.66666666657,
      "d": 225.0000000000291,
      "v": 18
    },
    {
      "midi": 53,
      "hit": false,
      "t": 144533.33333333326,
      "d": 170.83333333334303,
      "v": 54
    },
    {
      "midi": 56,
      "hit": false,
      "t": 144745.83333333326,
      "d": 762.4999999999709,
      "v": 48
    },
    {
      "midi": 68,
      "hit": false,
      "t": 144966.6666666666,
      "d": 416.66666666665697,
      "v": 53
    },
    {
      "midi": 65,
      "hit": false,
      "t": 144979.1666666666,
      "d": 183.33333333331393,
      "v": 57
    },
    {
      "midi": 60,
      "hit": false,
      "t": 144983.33333333326,
      "d": 262.5,
      "v": 43
    },
    {
      "midi": 75,
      "hit": false,
      "t": 145216.66666666657,
      "d": 208.33333333334303,
      "v": 74
    },
    {
      "midi": 63,
      "hit": false,
      "t": 145224.9999999999,
      "d": 333.33333333331393,
      "v": 53
    },
    {
      "midi": 65,
      "hit": false,
      "t": 145237.4999999999,
      "d": 162.5,
      "v": 68
    },
    {
      "midi": 72,
      "hit": false,
      "t": 145462.4999999999,
      "d": 191.66666666665697,
      "v": 59
    },
    {
      "midi": 60,
      "hit": false,
      "t": 145462.4999999999,
      "d": 291.66666666668607,
      "v": 42
    },
    {
      "midi": 65,
      "hit": false,
      "t": 145466.66666666657,
      "d": 112.5,
      "v": 32
    },
    {
      "midi": 68,
      "hit": false,
      "t": 145470.83333333323,
      "d": 262.5000000000291,
      "v": 34
    },
    {
      "midi": 65,
      "hit": false,
      "t": 145687.4999999999,
      "d": 58.333333333343035,
      "v": 44
    },
    {
      "midi": 56,
      "hit": false,
      "t": 145695.83333333326,
      "d": 208.33333333334303,
      "v": 34
    },
    {
      "midi": 71,
      "hit": false,
      "t": 145916.6666666666,
      "d": 587.4999999999709,
      "v": 42
    },
    {
      "midi": 68,
      "hit": false,
      "t": 145916.6666666666,
      "d": 599.9999999999709,
      "v": 30
    },
    {
      "midi": 54,
      "hit": false,
      "t": 145916.6666666666,
      "d": 1574.9999999999418,
      "v": 47
    },
    {
      "midi": 64,
      "hit": false,
      "t": 145920.83333333326,
      "d": 495.83333333331393,
      "v": 47
    },
    {
      "midi": 59,
      "hit": false,
      "t": 145924.9999999999,
      "d": 554.166666666657,
      "v": 33
    },
    {
      "midi": 76,
      "hit": false,
      "t": 146229.16666666657,
      "d": 550,
      "v": 31
    },
    {
      "midi": 59,
      "hit": false,
      "t": 146845.83333333323,
      "d": 508.33333333334303,
      "v": 33
    },
    {
      "midi": 71,
      "hit": false,
      "t": 146858.33333333323,
      "d": 270.83333333334303,
      "v": 40
    },
    {
      "midi": 64,
      "hit": false,
      "t": 146870.83333333323,
      "d": 470.83333333334303,
      "v": 36
    },
    {
      "midi": 68,
      "hit": false,
      "t": 146870.83333333323,
      "d": 687.5,
      "v": 30
    },
    {
      "midi": 76,
      "hit": false,
      "t": 147154.16666666657,
      "d": 204.16666666665697,
      "v": 71
    },
    {
      "midi": 71,
      "hit": false,
      "t": 147387.49999999988,
      "d": 137.5,
      "v": 57
    },
    {
      "midi": 71,
      "hit": false,
      "t": 147604.16666666657,
      "d": 162.5,
      "v": 55
    },
    {
      "midi": 70,
      "hit": false,
      "t": 147816.66666666657,
      "d": 816.6666666666861,
      "v": 46
    },
    {
      "midi": 65,
      "hit": false,
      "t": 147820.83333333323,
      "d": 995.833333333343,
      "v": 45
    },
    {
      "midi": 56,
      "hit": false,
      "t": 147841.66666666657,
      "d": 637.5,
      "v": 27
    },
    {
      "midi": 63,
      "hit": false,
      "t": 147849.9999999999,
      "d": 445.83333333331393,
      "v": 19
    },
    {
      "midi": 53,
      "hit": false,
      "t": 147874.9999999999,
      "d": 1545.833333333343,
      "v": 18
    },
    {
      "midi": 60,
      "hit": false,
      "t": 147879.16666666657,
      "d": 670.833333333343,
      "v": 19
    },
    {
      "midi": 63,
      "hit": false,
      "t": 148783.33333333326,
      "d": 687.5,
      "v": 20
    },
    {
      "midi": 60,
      "hit": false,
      "t": 148799.9999999999,
      "d": 583.333333333343,
      "v": 25
    },
    {
      "midi": 56,
      "hit": false,
      "t": 148812.4999999999,
      "d": 733.333333333343,
      "v": 20
    },
    {
      "midi": 68,
      "hit": false,
      "t": 148974.9999999999,
      "d": 175,
      "v": 57
    },
    {
      "midi": 73,
      "hit": false,
      "t": 149149.9999999999,
      "d": 95.83333333334303,
      "v": 44
    },
    {
      "midi": 77,
      "hit": false,
      "t": 149324.9999999999,
      "d": 79.16666666668607,
      "v": 59
    },
    {
      "midi": 76,
      "hit": false,
      "t": 149345.83333333326,
      "d": 75,
      "v": 44
    },
    {
      "midi": 79,
      "hit": false,
      "t": 149549.9999999999,
      "d": 83.33333333334303,
      "v": 37
    },
    {
      "midi": 80,
      "hit": false,
      "t": 149741.6666666666,
      "d": 691.6666666666861,
      "v": 59
    },
    {
      "midi": 64,
      "hit": false,
      "t": 149749.99999999994,
      "d": 566.666666666657,
      "v": 53
    },
    {
      "midi": 71,
      "hit": false,
      "t": 149749.99999999994,
      "d": 591.666666666657,
      "v": 57
    },
    {
      "midi": 59,
      "hit": false,
      "t": 149754.1666666666,
      "d": 575,
      "v": 46
    },
    {
      "midi": 54,
      "hit": false,
      "t": 149766.6666666666,
      "d": 658.333333333343,
      "v": 35
    },
    {
      "midi": 73,
      "hit": false,
      "t": 150712.49999999994,
      "d": 550,
      "v": 30
    },
    {
      "midi": 81,
      "hit": false,
      "t": 150716.6666666666,
      "d": 466.66666666668607,
      "v": 44
    },
    {
      "midi": 58,
      "hit": false,
      "t": 150724.99999999994,
      "d": 233.33333333334303,
      "v": 36
    },
    {
      "midi": 69,
      "hit": false,
      "t": 150724.99999999994,
      "d": 512.5,
      "v": 42
    },
    {
      "midi": 63,
      "hit": false,
      "t": 150733.33333333328,
      "d": 200,
      "v": 21
    },
    {
      "midi": 52,
      "hit": false,
      "t": 150741.66666666663,
      "d": 208.33333333331393,
      "v": 43
    },
    {
      "midi": 41,
      "hit": false,
      "t": 151695.83333333328,
      "d": 187.4999999999418,
      "v": 35
    },
    {
      "midi": 72,
      "hit": false,
      "t": 151699.99999999994,
      "d": 179.16666666662786,
      "v": 37
    },
    {
      "midi": 48,
      "hit": false,
      "t": 151704.1666666666,
      "d": 199.9999999999709,
      "v": 24
    },
    {
      "midi": 62,
      "hit": false,
      "t": 151708.33333333326,
      "d": 104.16666666665697,
      "v": 28
    },
    {
      "midi": 67,
      "hit": false,
      "t": 151708.33333333326,
      "d": 141.66666666665697,
      "v": 31
    },
    {
      "midi": 57,
      "hit": false,
      "t": 151724.9999999999,
      "d": 216.66666666665697,
      "v": 35
    },
    {
      "midi": 75,
      "hit": false,
      "t": 152212.4999999999,
      "d": 212.5,
      "v": 88
    },
    {
      "midi": 85,
      "hit": false,
      "t": 152216.66666666657,
      "d": 200,
      "v": 92
    },
    {
      "midi": 80,
      "hit": false,
      "t": 152216.66666666657,
      "d": 212.5,
      "v": 83
    },
    {
      "midi": 70,
      "hit": false,
      "t": 152224.9999999999,
      "d": 216.66666666665697,
      "v": 83
    },
    {
      "midi": 84,
      "hit": false,
      "t": 152479.16666666657,
      "d": 129.16666666665697,
      "v": 64
    },
    {
      "midi": 79,
      "hit": false,
      "t": 152487.4999999999,
      "d": 116.66666666665697,
      "v": 54
    },
    {
      "midi": 74,
      "hit": false,
      "t": 152495.83333333326,
      "d": 187.4999999999709,
      "v": 58
    },
    {
      "midi": 69,
      "hit": false,
      "t": 152508.33333333326,
      "d": 254.16666666662786,
      "v": 60
    },
    {
      "midi": 81,
      "hit": false,
      "t": 152758.33333333323,
      "d": 87.5,
      "v": 54
    },
    {
      "midi": 65,
      "hit": false,
      "t": 152779.16666666654,
      "d": 291.66666666668607,
      "v": 49
    },
    {
      "midi": 76,
      "hit": false,
      "t": 152787.49999999988,
      "d": 50,
      "v": 35
    },
    {
      "midi": 72,
      "hit": false,
      "t": 152787.49999999988,
      "d": 79.16666666668607,
      "v": 36
    },
    {
      "midi": 77,
      "hit": false,
      "t": 153079.16666666657,
      "d": 66.66666666665697,
      "v": 48
    },
    {
      "midi": 62,
      "hit": false,
      "t": 153083.33333333323,
      "d": 45.83333333331393,
      "v": 38
    },
    {
      "midi": 72,
      "hit": false,
      "t": 153087.49999999988,
      "d": 37.5,
      "v": 41
    },
    {
      "midi": 67,
      "hit": false,
      "t": 153112.49999999988,
      "d": 25,
      "v": 32
    },
    {
      "midi": 69,
      "hit": false,
      "t": 153120.83333333323,
      "d": 29.166666666656965,
      "v": 24
    },
    {
      "midi": 69,
      "hit": false,
      "t": 153799.99999999988,
      "d": 654.166666666657,
      "v": 34
    },
    {
      "midi": 64,
      "hit": false,
      "t": 153812.49999999988,
      "d": 683.3333333333139,
      "v": 42
    },
    {
      "midi": 55,
      "hit": false,
      "t": 153820.83333333323,
      "d": 470.83333333331393,
      "v": 46
    },
    {
      "midi": 61,
      "hit": false,
      "t": 153833.33333333323,
      "d": 679.1666666666279,
      "v": 21
    },
    {
      "midi": 45,
      "hit": false,
      "t": 153833.33333333323,
      "d": 1141.666666666657,
      "v": 25
    },
    {
      "midi": 58,
      "hit": false,
      "t": 153849.99999999988,
      "d": 550,
      "v": 9
    },
    {
      "midi": 64,
      "hit": false,
      "t": 154741.6666666665,
      "d": 520.8333333333721,
      "v": 36
    },
    {
      "midi": 58,
      "hit": false,
      "t": 154745.83333333317,
      "d": 562.5000000000291,
      "v": 25
    },
    {
      "midi": 67,
      "hit": false,
      "t": 154754.1666666665,
      "d": 408.33333333337214,
      "v": 25
    },
    {
      "midi": 61,
      "hit": false,
      "t": 154766.6666666665,
      "d": 537.5000000000291,
      "v": 30
    },
    {
      "midi": 55,
      "hit": false,
      "t": 154774.99999999985,
      "d": 404.16666666668607,
      "v": 33
    },
    {
      "midi": 45,
      "hit": false,
      "t": 155370.8333333332,
      "d": 50,
      "v": 26
    },
    {
      "midi": 63,
      "hit": false,
      "t": 155720.8333333332,
      "d": 299.9999999999418,
      "v": 29
    },
    {
      "midi": 32,
      "hit": false,
      "t": 155733.3333333332,
      "d": 145.83333333328483,
      "v": 35
    },
    {
      "midi": 55,
      "hit": false,
      "t": 155737.49999999985,
      "d": 191.66666666662786,
      "v": 27
    },
    {
      "midi": 58,
      "hit": false,
      "t": 155741.6666666665,
      "d": 299.9999999999709,
      "v": 26
    },
    {
      "midi": 60,
      "hit": false,
      "t": 155745.83333333317,
      "d": 199.9999999999709,
      "v": 32
    },
    {
      "midi": 44,
      "hit": false,
      "t": 155770.83333333317,
      "d": 154.16666666665697,
      "v": 21
    },
    {
      "midi": 75,
      "hit": false,
      "t": 156383.33333333314,
      "d": 37.5,
      "v": 48
    },
    {
      "midi": 77,
      "hit": false,
      "t": 156445.83333333314,
      "d": 216.66666666665697,
      "v": 55
    },
    {
      "midi": 75,
      "hit": false,
      "t": 156520.83333333314,
      "d": 33.333333333343035,
      "v": 39
    },
    {
      "midi": 75,
      "hit": false,
      "t": 156620.83333333314,
      "d": 100,
      "v": 51
    },
    {
      "midi": 74,
      "hit": false,
      "t": 156724.9999999998,
      "d": 137.5,
      "v": 36
    },
    {
      "midi": 63,
      "hit": false,
      "t": 156741.66666666645,
      "d": 625,
      "v": 23
    },
    {
      "midi": 60,
      "hit": false,
      "t": 156762.4999999998,
      "d": 462.5,
      "v": 29
    },
    {
      "midi": 58,
      "hit": false,
      "t": 156766.66666666645,
      "d": 729.166666666657,
      "v": 35
    },
    {
      "midi": 75,
      "hit": false,
      "t": 156999.9999999998,
      "d": 108.33333333334303,
      "v": 85
    },
    {
      "midi": 77,
      "hit": false,
      "t": 157291.66666666645,
      "d": 137.5,
      "v": 95
    },
    {
      "midi": 78,
      "hit": false,
      "t": 157604.16666666645,
      "d": 283.33333333331393,
      "v": 83
    },
    {
      "midi": 61,
      "hit": false,
      "t": 157604.16666666645,
      "d": 829.166666666657,
      "v": 57
    },
    {
      "midi": 66,
      "hit": false,
      "t": 157608.3333333331,
      "d": 712.5,
      "v": 67
    },
    {
      "midi": 55,
      "hit": false,
      "t": 157616.66666666645,
      "d": 675,
      "v": 68
    },
    {
      "midi": 78,
      "hit": false,
      "t": 157945.8333333331,
      "d": 100,
      "v": 55
    },
    {
      "midi": 90,
      "hit": false,
      "t": 158258.3333333331,
      "d": 200,
      "v": 49
    },
    {
      "midi": 66,
      "hit": false,
      "t": 158570.8333333331,
      "d": 412.5,
      "v": 45
    },
    {
      "midi": 75,
      "hit": false,
      "t": 158579.16666666645,
      "d": 183.33333333331393,
      "v": 53
    },
    {
      "midi": 90,
      "hit": false,
      "t": 158583.3333333331,
      "d": 191.66666666665697,
      "v": 43
    },
    {
      "midi": 61,
      "hit": false,
      "t": 158587.49999999977,
      "d": 520.833333333343,
      "v": 39
    },
    {
      "midi": 90,
      "hit": false,
      "t": 158916.66666666645,
      "d": 104.16666666665697,
      "v": 42
    },
    {
      "midi": 75,
      "hit": false,
      "t": 158916.66666666645,
      "d": 120.83333333331393,
      "v": 47
    },
    {
      "midi": 61,
      "hit": false,
      "t": 159158.3333333331,
      "d": 58.333333333343035,
      "v": 14
    },
    {
      "midi": 87,
      "hit": false,
      "t": 159220.8333333331,
      "d": 129.16666666665697,
      "v": 52
    },
    {
      "midi": 44,
      "hit": false,
      "t": 159487.49999999977,
      "d": 100,
      "v": 51
    },
    {
      "midi": 51,
      "hit": false,
      "t": 159516.66666666642,
      "d": 70.83333333334303,
      "v": 38
    },
    {
      "midi": 63,
      "hit": false,
      "t": 160095.8333333331,
      "d": 600.0000000000291,
      "v": 62
    },
    {
      "midi": 60,
      "hit": false,
      "t": 160104.16666666645,
      "d": 595.833333333343,
      "v": 67
    },
    {
      "midi": 53,
      "hit": false,
      "t": 160108.3333333331,
      "d": 766.6666666667152,
      "v": 63
    },
    {
      "midi": 58,
      "hit": false,
      "t": 160112.49999999977,
      "d": 645.8333333333721,
      "v": 60
    },
    {
      "midi": 75,
      "hit": false,
      "t": 160445.8333333331,
      "d": 250.0000000000291,
      "v": 72
    },
    {
      "midi": 70,
      "hit": false,
      "t": 160454.16666666645,
      "d": 258.33333333334303,
      "v": 76
    },
    {
      "midi": 72,
      "hit": false,
      "t": 160462.4999999998,
      "d": 270.83333333334303,
      "v": 74
    },
    {
      "midi": 65,
      "hit": false,
      "t": 160466.66666666645,
      "d": 195.83333333334303,
      "v": 74
    },
    {
      "midi": 75,
      "hit": false,
      "t": 160770.83333333314,
      "d": 129.16666666668607,
      "v": 51
    },
    {
      "midi": 70,
      "hit": false,
      "t": 160779.16666666648,
      "d": 116.66666666668607,
      "v": 32
    },
    {
      "midi": 65,
      "hit": false,
      "t": 160812.49999999983,
      "d": 37.5,
      "v": 54
    },
    {
      "midi": 65,
      "hit": false,
      "t": 161095.83333333317,
      "d": 83.33333333331393,
      "v": 52
    },
    {
      "midi": 77,
      "hit": false,
      "t": 161099.99999999983,
      "d": 87.5,
      "v": 29
    },
    {
      "midi": 78,
      "hit": false,
      "t": 161429.16666666648,
      "d": 158.33333333331393,
      "v": 51
    },
    {
      "midi": 62,
      "hit": false,
      "t": 161433.33333333314,
      "d": 479.16666666665697,
      "v": 32
    },
    {
      "midi": 66,
      "hit": false,
      "t": 161433.33333333314,
      "d": 533.333333333343,
      "v": 33
    },
    {
      "midi": 71,
      "hit": false,
      "t": 161441.66666666648,
      "d": 137.4999999999709,
      "v": 38
    },
    {
      "midi": 59,
      "hit": false,
      "t": 161445.83333333314,
      "d": 541.666666666657,
      "v": 38
    },
    {
      "midi": 55,
      "hit": false,
      "t": 161474.9999999998,
      "d": 450,
      "v": 20
    },
    {
      "midi": 67,
      "hit": false,
      "t": 161641.66666666645,
      "d": 45.833333333343035,
      "v": 47
    },
    {
      "midi": 69,
      "hit": false,
      "t": 161737.4999999998,
      "d": 62.5,
      "v": 54
    },
    {
      "midi": 70,
      "hit": false,
      "t": 161808.33333333314,
      "d": 33.333333333343035,
      "v": 57
    },
    {
      "midi": 72,
      "hit": false,
      "t": 161895.83333333314,
      "d": 37.5,
      "v": 58
    },
    {
      "midi": 73,
      "hit": false,
      "t": 161970.83333333314,
      "d": 45.83333333331393,
      "v": 25
    },
    {
      "midi": 75,
      "hit": false,
      "t": 162037.4999999998,
      "d": 25,
      "v": 39
    },
    {
      "midi": 76,
      "hit": false,
      "t": 162099.9999999998,
      "d": 50,
      "v": 46
    },
    {
      "midi": 79,
      "hit": false,
      "t": 162258.33333333314,
      "d": 87.5,
      "v": 45
    },
    {
      "midi": 81,
      "hit": false,
      "t": 162354.16666666648,
      "d": 66.66666666665697,
      "v": 45
    },
    {
      "midi": 82,
      "hit": false,
      "t": 162441.66666666648,
      "d": 29.166666666656965,
      "v": 43
    },
    {
      "midi": 85,
      "hit": false,
      "t": 162608.33333333314,
      "d": 70.83333333334303,
      "v": 52
    },
    {
      "midi": 87,
      "hit": false,
      "t": 162695.83333333314,
      "d": 79.16666666665697,
      "v": 37
    },
    {
      "midi": 88,
      "hit": false,
      "t": 162774.9999999998,
      "d": 66.66666666665697,
      "v": 65
    },
    {
      "midi": 91,
      "hit": false,
      "t": 162862.4999999998,
      "d": 79.16666666665697,
      "v": 71
    },
    {
      "midi": 61,
      "hit": false,
      "t": 162870.83333333314,
      "d": 445.83333333331393,
      "v": 35
    },
    {
      "midi": 66,
      "hit": false,
      "t": 162874.9999999998,
      "d": 300,
      "v": 28
    },
    {
      "midi": 55,
      "hit": false,
      "t": 162891.66666666645,
      "d": 204.16666666665697,
      "v": 35
    },
    {
      "midi": 90,
      "hit": false,
      "t": 163024.9999999998,
      "d": 79.16666666665697,
      "v": 59
    },
    {
      "midi": 89,
      "hit": false,
      "t": 163174.9999999998,
      "d": 104.16666666665697,
      "v": 60
    },
    {
      "midi": 88,
      "hit": false,
      "t": 163299.9999999998,
      "d": 83.33333333331393,
      "v": 62
    },
    {
      "midi": 86,
      "hit": false,
      "t": 163437.49999999977,
      "d": 100,
      "v": 57
    },
    {
      "midi": 61,
      "hit": false,
      "t": 163554.16666666642,
      "d": 691.6666666666861,
      "v": 15
    },
    {
      "midi": 85,
      "hit": false,
      "t": 163566.66666666642,
      "d": 154.16666666665697,
      "v": 62
    },
    {
      "midi": 64,
      "hit": false,
      "t": 163566.66666666642,
      "d": 516.6666666666861,
      "v": 33
    },
    {
      "midi": 59,
      "hit": false,
      "t": 163579.16666666642,
      "d": 537.5000000000291,
      "v": 26
    },
    {
      "midi": 54,
      "hit": false,
      "t": 163583.33333333308,
      "d": 1479.166666666657,
      "v": 27
    },
    {
      "midi": 88,
      "hit": false,
      "t": 163791.66666666642,
      "d": 283.33333333334303,
      "v": 68
    },
    {
      "midi": 81,
      "hit": false,
      "t": 163974.99999999977,
      "d": 83.33333333334303,
      "v": 31
    },
    {
      "midi": 81,
      "hit": false,
      "t": 164170.8333333331,
      "d": 116.66666666665697,
      "v": 41
    },
    {
      "midi": 81,
      "hit": false,
      "t": 164374.99999999977,
      "d": 116.66666666665697,
      "v": 48
    },
    {
      "midi": 64,
      "hit": false,
      "t": 164579.16666666642,
      "d": 541.666666666657,
      "v": 36
    },
    {
      "midi": 61,
      "hit": false,
      "t": 164579.16666666642,
      "d": 808.3333333333139,
      "v": 29
    },
    {
      "midi": 81,
      "hit": false,
      "t": 164591.66666666642,
      "d": 241.66666666665697,
      "v": 44
    },
    {
      "midi": 59,
      "hit": false,
      "t": 164595.83333333308,
      "d": 662.5,
      "v": 32
    },
    {
      "midi": 83,
      "hit": false,
      "t": 164874.99999999974,
      "d": 116.66666666665697,
      "v": 51
    },
    {
      "midi": 83,
      "hit": false,
      "t": 165158.33333333308,
      "d": 91.66666666665697,
      "v": 67
    },
    {
      "midi": 54,
      "hit": false,
      "t": 165158.33333333308,
      "d": 191.66666666665697,
      "v": 55
    },
    {
      "midi": 53,
      "hit": false,
      "t": 165474.99999999974,
      "d": 695.8333333333139,
      "v": 35
    },
    {
      "midi": 84,
      "hit": false,
      "t": 165479.1666666664,
      "d": 216.66666666662786,
      "v": 77
    },
    {
      "midi": 57,
      "hit": false,
      "t": 165487.49999999974,
      "d": 716.6666666666279,
      "v": 51
    },
    {
      "midi": 60,
      "hit": false,
      "t": 165491.6666666664,
      "d": 683.3333333333139,
      "v": 39
    },
    {
      "midi": 81,
      "hit": false,
      "t": 165495.83333333305,
      "d": 512.4999999999709,
      "v": 73
    },
    {
      "midi": 77,
      "hit": false,
      "t": 165512.4999999997,
      "d": 700,
      "v": 69
    },
    {
      "midi": 64,
      "hit": false,
      "t": 165529.16666666637,
      "d": 625,
      "v": 51
    },
    {
      "midi": 72,
      "hit": false,
      "t": 165541.66666666637,
      "d": 450,
      "v": 56
    },
    {
      "midi": 84,
      "hit": false,
      "t": 165779.16666666637,
      "d": 141.66666666665697,
      "v": 64
    },
    {
      "midi": 84,
      "hit": false,
      "t": 166033.33333333302,
      "d": 129.16666666668607,
      "v": 67
    },
    {
      "midi": 72,
      "hit": false,
      "t": 166049.99999999968,
      "d": 95.83333333334303,
      "v": 27
    },
    {
      "midi": 84,
      "hit": false,
      "t": 166245.83333333305,
      "d": 137.5,
      "v": 48
    },
    {
      "midi": 80,
      "hit": false,
      "t": 166495.83333333305,
      "d": 370.83333333334303,
      "v": 49
    },
    {
      "midi": 76,
      "hit": false,
      "t": 166499.9999999997,
      "d": 333.33333333334303,
      "v": 51
    },
    {
      "midi": 84,
      "hit": false,
      "t": 166504.16666666637,
      "d": 266.66666666668607,
      "v": 57
    },
    {
      "midi": 64,
      "hit": false,
      "t": 166512.4999999997,
      "d": 233.33333333334303,
      "v": 36
    },
    {
      "midi": 72,
      "hit": false,
      "t": 166520.83333333305,
      "d": 258.33333333334303,
      "v": 40
    },
    {
      "midi": 59,
      "hit": false,
      "t": 166524.9999999997,
      "d": 308.33333333334303,
      "v": 34
    },
    {
      "midi": 53,
      "hit": false,
      "t": 166537.4999999997,
      "d": 208.33333333334303,
      "v": 31
    },
    {
      "midi": 83,
      "hit": false,
      "t": 167008.33333333305,
      "d": 187.5000000000291,
      "v": 59
    },
    {
      "midi": 76,
      "hit": false,
      "t": 167008.33333333305,
      "d": 191.66666666668607,
      "v": 50
    },
    {
      "midi": 59,
      "hit": false,
      "t": 167016.6666666664,
      "d": 145.83333333334303,
      "v": 48
    },
    {
      "midi": 63,
      "hit": false,
      "t": 167024.99999999974,
      "d": 195.83333333334303,
      "v": 35
    },
    {
      "midi": 53,
      "hit": false,
      "t": 167024.99999999974,
      "d": 208.33333333334303,
      "v": 39
    },
    {
      "midi": 71,
      "hit": false,
      "t": 167024.99999999974,
      "d": 233.33333333334303,
      "v": 40
    },
    {
      "midi": 56,
      "hit": false,
      "t": 167054.1666666664,
      "d": 200.0000000000291,
      "v": 25
    },
    {
      "midi": 81,
      "hit": false,
      "t": 167479.16666666642,
      "d": 462.5,
      "v": 55
    },
    {
      "midi": 74,
      "hit": false,
      "t": 167495.83333333308,
      "d": 700.0000000000291,
      "v": 53
    },
    {
      "midi": 69,
      "hit": false,
      "t": 167499.99999999974,
      "d": 487.5000000000291,
      "v": 45
    },
    {
      "midi": 62,
      "hit": false,
      "t": 167508.33333333308,
      "d": 529.1666666666861,
      "v": 36
    },
    {
      "midi": 52,
      "hit": false,
      "t": 167512.49999999974,
      "d": 1645.8333333333721,
      "v": 37
    },
    {
      "midi": 57,
      "hit": false,
      "t": 167516.6666666664,
      "d": 608.3333333333721,
      "v": 37
    },
    {
      "midi": 81,
      "hit": false,
      "t": 168016.66666666642,
      "d": 191.66666666668607,
      "v": 44
    },
    {
      "midi": 62,
      "hit": false,
      "t": 168441.66666666645,
      "d": 504.16666666665697,
      "v": 36
    },
    {
      "midi": 81,
      "hit": false,
      "t": 168445.8333333331,
      "d": 125,
      "v": 41
    },
    {
      "midi": 74,
      "hit": false,
      "t": 168454.16666666645,
      "d": 179.16666666665697,
      "v": 43
    },
    {
      "midi": 69,
      "hit": false,
      "t": 168470.8333333331,
      "d": 220.83333333334303,
      "v": 26
    },
    {
      "midi": 57,
      "hit": false,
      "t": 168483.3333333331,
      "d": 620.833333333343,
      "v": 25
    },
    {
      "midi": 71,
      "hit": false,
      "t": 169183.3333333331,
      "d": 87.5,
      "v": 47
    },
    {
      "midi": 72,
      "hit": false,
      "t": 169479.16666666645,
      "d": 262.5,
      "v": 49
    },
    {
      "midi": 44,
      "hit": false,
      "t": 169491.66666666645,
      "d": 1375,
      "v": 34
    },
    {
      "midi": 54,
      "hit": false,
      "t": 169499.9999999998,
      "d": 612.4999999999709,
      "v": 31
    },
    {
      "midi": 68,
      "hit": false,
      "t": 169512.4999999998,
      "d": 270.83333333331393,
      "v": 23
    },
    {
      "midi": 65,
      "hit": false,
      "t": 169516.66666666645,
      "d": 229.16666666665697,
      "v": 24
    },
    {
      "midi": 60,
      "hit": false,
      "t": 169520.8333333331,
      "d": 216.66666666668607,
      "v": 14
    },
    {
      "midi": 60,
      "hit": false,
      "t": 169833.3333333331,
      "d": 312.5,
      "v": 37
    },
    {
      "midi": 72,
      "hit": false,
      "t": 169841.66666666645,
      "d": 1891.666666666657,
      "v": 28
    },
    {
      "midi": 65,
      "hit": false,
      "t": 169845.8333333331,
      "d": 204.16666666665697,
      "v": 54
    },
    {
      "midi": 68,
      "hit": false,
      "t": 169858.3333333331,
      "d": 487.5,
      "v": 23
    },
    {
      "midi": 60,
      "hit": false,
      "t": 170495.8333333331,
      "d": 612.5,
      "v": 35
    },
    {
      "midi": 65,
      "hit": false,
      "t": 170508.3333333331,
      "d": 754.166666666657,
      "v": 34
    },
    {
      "midi": 54,
      "hit": false,
      "t": 170520.8333333331,
      "d": 525,
      "v": 19
    },
    {
      "midi": 37,
      "hit": false,
      "t": 171512.49999999977,
      "d": 58.333333333343035,
      "v": 34
    },
    {
      "midi": 44,
      "hit": false,
      "t": 171537.49999999977,
      "d": 50,
      "v": 23
    },
    {
      "midi": 63,
      "hit": false,
      "t": 171929.16666666645,
      "d": 162.5000000000291,
      "v": 34
    },
    {
      "midi": 60,
      "hit": false,
      "t": 171941.66666666645,
      "d": 141.66666666668607,
      "v": 29
    },
    {
      "midi": 53,
      "hit": false,
      "t": 171966.66666666645,
      "d": 95.83333333334303,
      "v": 22
    },
    {
      "midi": 63,
      "hit": false,
      "t": 172216.66666666648,
      "d": 145.83333333331393,
      "v": 30
    },
    {
      "midi": 60,
      "hit": false,
      "t": 172229.16666666648,
      "d": 158.33333333331393,
      "v": 30
    },
    {
      "midi": 53,
      "hit": false,
      "t": 172270.83333333314,
      "d": 62.5,
      "v": 18
    },
    {
      "midi": 63,
      "hit": false,
      "t": 172516.66666666645,
      "d": 149.9999999999709,
      "v": 31
    },
    {
      "midi": 53,
      "hit": false,
      "t": 172529.16666666645,
      "d": 158.33333333331393,
      "v": 39
    },
    {
      "midi": 60,
      "hit": false,
      "t": 172545.8333333331,
      "d": 133.33333333331393,
      "v": 26
    },
    {
      "midi": 58,
      "hit": false,
      "t": 172549.99999999977,
      "d": 129.16666666665697,
      "v": 28
    },
    {
      "midi": 63,
      "hit": false,
      "t": 172862.49999999977,
      "d": 150,
      "v": 35
    },
    {
      "midi": 53,
      "hit": false,
      "t": 172866.66666666642,
      "d": 179.16666666668607,
      "v": 44
    },
    {
      "midi": 60,
      "hit": false,
      "t": 172879.16666666642,
      "d": 162.5000000000291,
      "v": 44
    },
    {
      "midi": 58,
      "hit": false,
      "t": 172891.66666666642,
      "d": 141.66666666668607,
      "v": 30
    },
    {
      "midi": 63,
      "hit": false,
      "t": 173166.66666666645,
      "d": 237.5,
      "v": 44
    },
    {
      "midi": 70,
      "hit": false,
      "t": 173170.8333333331,
      "d": 312.5000000000291,
      "v": 84
    },
    {
      "midi": 53,
      "hit": false,
      "t": 173187.49999999977,
      "d": 112.5,
      "v": 43
    },
    {
      "midi": 60,
      "hit": false,
      "t": 173187.49999999977,
      "d": 133.33333333334303,
      "v": 46
    },
    {
      "midi": 58,
      "hit": false,
      "t": 173187.49999999977,
      "d": 362.5000000000291,
      "v": 48
    },
    {
      "midi": 64,
      "hit": false,
      "t": 173474.9999999998,
      "d": 395.83333333334303,
      "v": 72
    },
    {
      "midi": 71,
      "hit": false,
      "t": 173483.33333333314,
      "d": 270.83333333331393,
      "v": 76
    },
    {
      "midi": 54,
      "hit": false,
      "t": 173483.33333333314,
      "d": 466.66666666665697,
      "v": 55
    },
    {
      "midi": 59,
      "hit": false,
      "t": 173491.66666666648,
      "d": 433.33333333331393,
      "v": 60
    },
    {
      "midi": 76,
      "hit": false,
      "t": 173774.9999999998,
      "d": 229.16666666665697,
      "v": 71
    },
    {
      "midi": 76,
      "hit": false,
      "t": 174045.8333333331,
      "d": 1074.9999999999418,
      "v": 19
    },
    {
      "midi": 68,
      "hit": false,
      "t": 174062.49999999977,
      "d": 566.666666666657,
      "v": 37
    },
    {
      "midi": 64,
      "hit": false,
      "t": 174066.66666666642,
      "d": 416.66666666665697,
      "v": 50
    },
    {
      "midi": 71,
      "hit": false,
      "t": 174066.66666666642,
      "d": 966.6666666666279,
      "v": 45
    },
    {
      "midi": 38,
      "hit": false,
      "t": 174362.49999999977,
      "d": 33.33333333331393,
      "v": 49
    },
    {
      "midi": 45,
      "hit": false,
      "t": 174366.66666666642,
      "d": 70.83333333331393,
      "v": 51
    },
    {
      "midi": 59,
      "hit": false,
      "t": 174699.99999999977,
      "d": 249.9999999999709,
      "v": 71
    },
    {
      "midi": 54,
      "hit": false,
      "t": 174704.16666666642,
      "d": 225,
      "v": 70
    },
    {
      "midi": 64,
      "hit": false,
      "t": 174704.16666666642,
      "d": 229.16666666665697,
      "v": 74
    },
    {
      "midi": 64,
      "hit": false,
      "t": 175004.1666666664,
      "d": 120.83333333331393,
      "v": 76
    },
    {
      "midi": 54,
      "hit": false,
      "t": 175004.1666666664,
      "d": 174.9999999999709,
      "v": 73
    },
    {
      "midi": 59,
      "hit": false,
      "t": 175020.83333333305,
      "d": 116.66666666665697,
      "v": 71
    },
    {
      "midi": 60,
      "hit": false,
      "t": 175312.4999999997,
      "d": 637.5000000000291,
      "v": 68
    },
    {
      "midi": 63,
      "hit": false,
      "t": 175324.9999999997,
      "d": 508.33333333334303,
      "v": 59
    },
    {
      "midi": 53,
      "hit": false,
      "t": 175324.9999999997,
      "d": 1516.6666666667152,
      "v": 62
    },
    {
      "midi": 68,
      "hit": false,
      "t": 175329.16666666637,
      "d": 208.33333333334303,
      "v": 62
    },
    {
      "midi": 72,
      "hit": false,
      "t": 175329.16666666637,
      "d": 216.66666666668607,
      "v": 71
    },
    {
      "midi": 56,
      "hit": false,
      "t": 175329.16666666637,
      "d": 679.1666666667152,
      "v": 47
    },
    {
      "midi": 65,
      "hit": false,
      "t": 175337.4999999997,
      "d": 179.16666666665697,
      "v": 65
    },
    {
      "midi": 72,
      "hit": false,
      "t": 175679.1666666664,
      "d": 191.66666666665697,
      "v": 82
    },
    {
      "midi": 84,
      "hit": false,
      "t": 175683.33333333305,
      "d": 208.33333333334303,
      "v": 78
    },
    {
      "midi": 89,
      "hit": false,
      "t": 176049.99999999974,
      "d": 229.16666666665697,
      "v": 56
    },
    {
      "midi": 77,
      "hit": false,
      "t": 176066.6666666664,
      "d": 216.66666666665697,
      "v": 66
    },
    {
      "midi": 84,
      "hit": false,
      "t": 176091.6666666664,
      "d": 37.5,
      "v": 38
    },
    {
      "midi": 63,
      "hit": false,
      "t": 176341.6666666664,
      "d": 350,
      "v": 27
    },
    {
      "midi": 60,
      "hit": false,
      "t": 176354.1666666664,
      "d": 241.66666666665697,
      "v": 39
    },
    {
      "midi": 56,
      "hit": false,
      "t": 176354.1666666664,
      "d": 287.5,
      "v": 31
    },
    {
      "midi": 80,
      "hit": false,
      "t": 176679.1666666664,
      "d": 70.83333333334303,
      "v": 46
    },
    {
      "midi": 92,
      "hit": false,
      "t": 176679.1666666664,
      "d": 91.66666666668607,
      "v": 56
    },
    {
      "midi": 63,
      "hit": false,
      "t": 176966.66666666642,
      "d": 204.16666666668607,
      "v": 42
    },
    {
      "midi": 95,
      "hit": false,
      "t": 176974.99999999977,
      "d": 104.16666666668607,
      "v": 65
    },
    {
      "midi": 83,
      "hit": false,
      "t": 176995.8333333331,
      "d": 33.333333333343035,
      "v": 35
    },
    {
      "midi": 60,
      "hit": false,
      "t": 177008.3333333331,
      "d": 41.66666666668607,
      "v": 27
    },
    {
      "midi": 56,
      "hit": false,
      "t": 177008.3333333331,
      "d": 241.66666666665697,
      "v": 29
    },
    {
      "midi": 95,
      "hit": false,
      "t": 177304.16666666642,
      "d": 370.8333333332848,
      "v": 57
    },
    {
      "midi": 59,
      "hit": false,
      "t": 177304.16666666642,
      "d": 545.8333333332848,
      "v": 51
    },
    {
      "midi": 100,
      "hit": false,
      "t": 177308.33333333308,
      "d": 341.66666666662786,
      "v": 47
    },
    {
      "midi": 64,
      "hit": false,
      "t": 177308.33333333308,
      "d": 545.8333333332848,
      "v": 52
    },
    {
      "midi": 88,
      "hit": false,
      "t": 177312.49999999974,
      "d": 716.6666666666279,
      "v": 49
    },
    {
      "midi": 54,
      "hit": false,
      "t": 177329.1666666664,
      "d": 1291.666666666657,
      "v": 23
    },
    {
      "midi": 100,
      "hit": false,
      "t": 177716.66666666637,
      "d": 320.83333333334303,
      "v": 51
    },
    {
      "midi": 95,
      "hit": false,
      "t": 178274.9999999997,
      "d": 154.16666666665697,
      "v": 39
    },
    {
      "midi": 64,
      "hit": false,
      "t": 178274.9999999997,
      "d": 708.333333333343,
      "v": 32
    },
    {
      "midi": 59,
      "hit": false,
      "t": 178283.33333333305,
      "d": 754.1666666666861,
      "v": 35
    },
    {
      "midi": 92,
      "hit": false,
      "t": 178287.4999999997,
      "d": 137.5,
      "v": 30
    },
    {
      "midi": 88,
      "hit": false,
      "t": 178287.4999999997,
      "d": 200,
      "v": 46
    },
    {
      "midi": 54,
      "hit": false,
      "t": 178679.1666666664,
      "d": 262.5,
      "v": 50
    },
    {
      "midi": 54,
      "hit": false,
      "t": 178991.6666666664,
      "d": 154.16666666668607,
      "v": 43
    },
    {
      "midi": 70,
      "hit": false,
      "t": 179262.49999999974,
      "d": 650,
      "v": 39
    },
    {
      "midi": 53,
      "hit": false,
      "t": 179279.1666666664,
      "d": 245.83333333334303,
      "v": 32
    },
    {
      "midi": 60,
      "hit": false,
      "t": 179279.1666666664,
      "d": 533.333333333343,
      "v": 38
    },
    {
      "midi": 65,
      "hit": false,
      "t": 179279.1666666664,
      "d": 562.5,
      "v": 54
    },
    {
      "midi": 56,
      "hit": false,
      "t": 179283.33333333305,
      "d": 241.66666666668607,
      "v": 34
    },
    {
      "midi": 37,
      "hit": false,
      "t": 179870.83333333305,
      "d": 75.0000000000291,
      "v": 71
    },
    {
      "midi": 44,
      "hit": false,
      "t": 179879.1666666664,
      "d": 87.5000000000291,
      "v": 64
    },
    {
      "midi": 53,
      "hit": false,
      "t": 180254.16666666642,
      "d": 629.166666666657,
      "v": 56
    },
    {
      "midi": 68,
      "hit": false,
      "t": 180262.49999999977,
      "d": 558.3333333333139,
      "v": 91
    },
    {
      "midi": 63,
      "hit": false,
      "t": 180262.49999999977,
      "d": 712.4999999999709,
      "v": 68
    },
    {
      "midi": 58,
      "hit": false,
      "t": 180266.66666666642,
      "d": 695.8333333333139,
      "v": 71
    },
    {
      "midi": 73,
      "hit": false,
      "t": 180591.66666666642,
      "d": 275,
      "v": 53
    },
    {
      "midi": 77,
      "hit": false,
      "t": 180891.66666666642,
      "d": 154.16666666665697,
      "v": 75
    },
    {
      "midi": 68,
      "hit": false,
      "t": 180895.83333333308,
      "d": 79.16666666665697,
      "v": 45
    },
    {
      "midi": 73,
      "hit": false,
      "t": 180899.99999999974,
      "d": 208.33333333334303,
      "v": 27
    },
    {
      "midi": 78,
      "hit": false,
      "t": 181062.49999999974,
      "d": 79.16666666668607,
      "v": 20
    },
    {
      "midi": 78,
      "hit": false,
      "t": 182241.66666666642,
      "d": 350,
      "v": 69
    },
    {
      "midi": 73,
      "hit": false,
      "t": 182249.99999999977,
      "d": 208.33333333331393,
      "v": 47
    },
    {
      "midi": 70,
      "hit": false,
      "t": 182249.99999999977,
      "d": 220.83333333331393,
      "v": 68
    },
    {
      "midi": 66,
      "hit": false,
      "t": 182266.66666666642,
      "d": 66.66666666665697,
      "v": 48
    },
    {
      "midi": 66,
      "hit": false,
      "t": 182708.33333333308,
      "d": 224.9999999999709,
      "v": 35
    },
    {
      "midi": 80,
      "hit": false,
      "t": 182712.49999999974,
      "d": 233.33333333331393,
      "v": 57
    },
    {
      "midi": 63,
      "hit": false,
      "t": 182716.6666666664,
      "d": 366.66666666665697,
      "v": 33
    },
    {
      "midi": 75,
      "hit": false,
      "t": 182720.83333333305,
      "d": 179.16666666668607,
      "v": 46
    },
    {
      "midi": 73,
      "hit": false,
      "t": 182720.83333333305,
      "d": 195.83333333334303,
      "v": 30
    },
    {
      "midi": 57,
      "hit": false,
      "t": 182724.9999999997,
      "d": 141.66666666668607,
      "v": 43
    },
    {
      "midi": 69,
      "hit": false,
      "t": 182724.9999999997,
      "d": 166.66666666668607,
      "v": 50
    },
    {
      "midi": 63,
      "hit": false,
      "t": 183166.6666666664,
      "d": 295.83333333331393,
      "v": 21
    },
    {
      "midi": 75,
      "hit": false,
      "t": 183170.83333333305,
      "d": 341.66666666662786,
      "v": 57
    },
    {
      "midi": 82,
      "hit": false,
      "t": 183174.9999999997,
      "d": 320.83333333331393,
      "v": 48
    },
    {
      "midi": 68,
      "hit": false,
      "t": 183174.9999999997,
      "d": 383.33333333331393,
      "v": 54
    },
    {
      "midi": 67,
      "hit": false,
      "t": 183187.4999999997,
      "d": 241.66666666665697,
      "v": 33
    },
    {
      "midi": 60,
      "hit": false,
      "t": 183191.66666666637,
      "d": 275,
      "v": 38
    },
    {
      "midi": 56,
      "hit": false,
      "t": 183195.83333333302,
      "d": 300,
      "v": 30
    },
    {
      "midi": 80,
      "hit": false,
      "t": 183395.83333333302,
      "d": 137.5,
      "v": 1
    },
    {
      "midi": 44,
      "hit": false,
      "t": 183683.33333333302,
      "d": 58.333333333343035,
      "v": 34
    },
    {
      "midi": 46,
      "hit": false,
      "t": 183820.83333333302,
      "d": 687.5,
      "v": 30
    },
    {
      "midi": 67,
      "hit": false,
      "t": 184187.49999999968,
      "d": 391.66666666668607,
      "v": 40
    },
    {
      "midi": 63,
      "hit": false,
      "t": 184195.83333333302,
      "d": 604.1666666666861,
      "v": 37
    },
    {
      "midi": 58,
      "hit": false,
      "t": 184204.16666666637,
      "d": 558.333333333343,
      "v": 36
    },
    {
      "midi": 60,
      "hit": false,
      "t": 184204.16666666637,
      "d": 675,
      "v": 35
    },
    {
      "midi": 46,
      "hit": false,
      "t": 184674.9999999997,
      "d": 841.6666666666279,
      "v": 32
    },
    {
      "midi": 67,
      "hit": false,
      "t": 185158.33333333302,
      "d": 1016.6666666666279,
      "v": 54
    },
    {
      "midi": 64,
      "hit": false,
      "t": 185170.83333333302,
      "d": 716.6666666666279,
      "v": 57
    },
    {
      "midi": 62,
      "hit": false,
      "t": 185204.16666666637,
      "d": 641.6666666666279,
      "v": 31
    },
    {
      "midi": 59,
      "hit": false,
      "t": 185208.33333333302,
      "d": 583.3333333333139,
      "v": 47
    },
    {
      "midi": 56,
      "hit": false,
      "t": 185224.99999999968,
      "d": 608.3333333333139,
      "v": 27
    },
    {
      "midi": 46,
      "hit": false,
      "t": 185691.66666666634,
      "d": 754.166666666657,
      "v": 30
    },
    {
      "midi": 59,
      "hit": false,
      "t": 186174.99999999965,
      "d": 737.5000000000291,
      "v": 37
    },
    {
      "midi": 62,
      "hit": false,
      "t": 186174.99999999965,
      "d": 737.5000000000291,
      "v": 34
    },
    {
      "midi": 56,
      "hit": false,
      "t": 186199.99999999965,
      "d": 354.16666666668607,
      "v": 25
    },
    {
      "midi": 46,
      "hit": false,
      "t": 186533.333333333,
      "d": 104.16666666668607,
      "v": 46
    },
    {
      "midi": 34,
      "hit": false,
      "t": 186849.99999999968,
      "d": 83.33333333334303,
      "v": 52
    },
    {
      "midi": 30,
      "hit": false,
      "t": 187187.49999999968,
      "d": 283.33333333334303,
      "v": 45
    },
    {
      "midi": 64,
      "hit": false,
      "t": 187191.66666666634,
      "d": 404.16666666668607,
      "v": 48
    },
    {
      "midi": 61,
      "hit": false,
      "t": 187191.66666666634,
      "d": 437.5000000000291,
      "v": 36
    },
    {
      "midi": 42,
      "hit": false,
      "t": 187199.99999999968,
      "d": 316.66666666668607,
      "v": 33
    },
    {
      "midi": 57,
      "hit": false,
      "t": 187362.49999999968,
      "d": 204.16666666668607,
      "v": 1
    },
    {
      "midi": 68,
      "hit": false,
      "t": 187533.33333333302,
      "d": 129.16666666668607,
      "v": 63
    },
    {
      "midi": 80,
      "hit": false,
      "t": 187845.83333333305,
      "d": 204.16666666665697,
      "v": 77
    },
    {
      "midi": 80,
      "hit": false,
      "t": 188149.9999999997,
      "d": 291.66666666665697,
      "v": 80
    },
    {
      "midi": 73,
      "hit": false,
      "t": 188158.33333333305,
      "d": 766.666666666657,
      "v": 68
    },
    {
      "midi": 76,
      "hit": false,
      "t": 188162.4999999997,
      "d": 370.83333333334303,
      "v": 74
    },
    {
      "midi": 68,
      "hit": false,
      "t": 188162.4999999997,
      "d": 395.83333333334303,
      "v": 87
    },
    {
      "midi": 69,
      "hit": false,
      "t": 188166.66666666637,
      "d": 358.33333333334303,
      "v": 81
    },
    {
      "midi": 78,
      "hit": false,
      "t": 188183.33333333302,
      "d": 304.16666666668607,
      "v": 33
    },
    {
      "midi": 80,
      "hit": false,
      "t": 188554.1666666664,
      "d": 137.4999999999709,
      "v": 68
    },
    {
      "midi": 69,
      "hit": false,
      "t": 188558.33333333305,
      "d": 249.9999999999709,
      "v": 39
    },
    {
      "midi": 76,
      "hit": false,
      "t": 188562.4999999997,
      "d": 220.83333333331393,
      "v": 26
    },
    {
      "midi": 80,
      "hit": false,
      "t": 188841.66666666637,
      "d": 183.33333333334303,
      "v": 64
    },
    {
      "midi": 78,
      "hit": false,
      "t": 188991.66666666637,
      "d": 104.16666666668607,
      "v": 44
    },
    {
      "midi": 80,
      "hit": false,
      "t": 189162.4999999997,
      "d": 133.33333333331393,
      "v": 51
    },
    {
      "midi": 69,
      "hit": false,
      "t": 189179.16666666637,
      "d": 187.5,
      "v": 35
    },
    {
      "midi": 75,
      "hit": false,
      "t": 189191.66666666637,
      "d": 125,
      "v": 33
    },
    {
      "midi": 47,
      "hit": false,
      "t": 189191.66666666637,
      "d": 1550,
      "v": 39
    },
    {
      "midi": 73,
      "hit": false,
      "t": 189195.83333333302,
      "d": 133.33333333334303,
      "v": 23
    },
    {
      "midi": 54,
      "hit": false,
      "t": 189470.83333333302,
      "d": 266.66666666668607,
      "v": 29
    },
    {
      "midi": 68,
      "hit": false,
      "t": 189729.16666666637,
      "d": 1016.666666666657,
      "v": 44
    },
    {
      "midi": 61,
      "hit": false,
      "t": 189741.66666666637,
      "d": 737.5,
      "v": 35
    },
    {
      "midi": 63,
      "hit": false,
      "t": 189741.66666666637,
      "d": 762.5,
      "v": 36
    },
    {
      "midi": 57,
      "hit": false,
      "t": 189749.9999999997,
      "d": 679.166666666657,
      "v": 34
    },
    {
      "midi": 56,
      "hit": false,
      "t": 189749.9999999997,
      "d": 879.166666666657,
      "v": 29
    },
    {
      "midi": 66,
      "hit": false,
      "t": 190779.16666666637,
      "d": 108.33333333331393,
      "v": 40
    },
    {
      "midi": 63,
      "hit": false,
      "t": 190799.9999999997,
      "d": 120.83333333331393,
      "v": 25
    },
    {
      "midi": 57,
      "hit": false,
      "t": 190804.16666666637,
      "d": 66.66666666665697,
      "v": 25
    },
    {
      "midi": 61,
      "hit": false,
      "t": 190816.66666666637,
      "d": 174.9999999999709,
      "v": 21
    },
    {
      "midi": 68,
      "hit": false,
      "t": 190949.99999999968,
      "d": 104.16666666665697,
      "v": 56
    },
    {
      "midi": 45,
      "hit": false,
      "t": 191183.333333333,
      "d": 37.5,
      "v": 54
    },
    {
      "midi": 65,
      "hit": false,
      "t": 191187.49999999965,
      "d": 162.5,
      "v": 54
    },
    {
      "midi": 55,
      "hit": false,
      "t": 191487.49999999965,
      "d": 1212.5,
      "v": 58
    },
    {
      "midi": 77,
      "hit": false,
      "t": 191620.833333333,
      "d": 1666.666666666657,
      "v": 65
    },
    {
      "midi": 61,
      "hit": false,
      "t": 191641.66666666634,
      "d": 354.16666666665697,
      "v": 37
    },
    {
      "midi": 72,
      "hit": false,
      "t": 191649.99999999968,
      "d": 474.9999999999709,
      "v": 56
    },
    {
      "midi": 69,
      "hit": false,
      "t": 191666.66666666634,
      "d": 441.66666666665697,
      "v": 54
    },
    {
      "midi": 65,
      "hit": false,
      "t": 191770.833333333,
      "d": 329.16666666665697,
      "v": 28
    },
    {
      "midi": 72,
      "hit": false,
      "t": 192262.49999999965,
      "d": 1012.5,
      "v": 35
    },
    {
      "midi": 69,
      "hit": false,
      "t": 192274.99999999965,
      "d": 987.5,
      "v": 33
    },
    {
      "midi": 61,
      "hit": false,
      "t": 192283.333333333,
      "d": 400,
      "v": 28
    },
    {
      "midi": 65,
      "hit": false,
      "t": 192295.833333333,
      "d": 941.666666666657,
      "v": 36
    },
    {
      "midi": 32,
      "hit": false,
      "t": 193229.1666666663,
      "d": 33.333333333343035,
      "v": 43
    },
    {
      "midi": 77,
      "hit": false,
      "t": 193604.1666666663,
      "d": 499.9999999999709,
      "v": 47
    },
    {
      "midi": 74,
      "hit": false,
      "t": 193624.99999999965,
      "d": 437.4999999999709,
      "v": 55
    },
    {
      "midi": 70,
      "hit": false,
      "t": 193637.49999999965,
      "d": 404.16666666662786,
      "v": 52
    },
    {
      "midi": 54,
      "hit": false,
      "t": 193654.1666666663,
      "d": 916.6666666666279,
      "v": 32
    },
    {
      "midi": 65,
      "hit": false,
      "t": 193658.33333333296,
      "d": 341.66666666665697,
      "v": 53
    },
    {
      "midi": 60,
      "hit": false,
      "t": 193662.49999999962,
      "d": 320.83333333334303,
      "v": 25
    },
    {
      "midi": 77,
      "hit": false,
      "t": 194254.16666666628,
      "d": 495.83333333334303,
      "v": 35
    },
    {
      "midi": 70,
      "hit": false,
      "t": 194262.49999999962,
      "d": 537.5,
      "v": 31
    },
    {
      "midi": 74,
      "hit": false,
      "t": 194266.66666666628,
      "d": 450,
      "v": 34
    },
    {
      "midi": 65,
      "hit": false,
      "t": 194279.16666666628,
      "d": 691.666666666657,
      "v": 32
    },
    {
      "midi": 60,
      "hit": false,
      "t": 194283.33333333294,
      "d": 583.333333333343,
      "v": 32
    },
    {
      "midi": 54,
      "hit": false,
      "t": 194679.16666666628,
      "d": 250,
      "v": 33
    },
    {
      "midi": 68,
      "hit": false,
      "t": 195158.33333333294,
      "d": 75,
      "v": 31
    },
    {
      "midi": 75,
      "hit": false,
      "t": 195354.16666666628,
      "d": 1087.499999999971,
      "v": 62
    },
    {
      "midi": 37,
      "hit": false,
      "t": 195358.33333333294,
      "d": 95.83333333331393,
      "v": 37
    },
    {
      "midi": 44,
      "hit": false,
      "t": 195387.4999999996,
      "d": 91.66666666665697,
      "v": 28
    },
    {
      "midi": 63,
      "hit": false,
      "t": 195787.4999999996,
      "d": 941.666666666657,
      "v": 43
    },
    {
      "midi": 53,
      "hit": false,
      "t": 195808.33333333294,
      "d": 1108.333333333314,
      "v": 20
    },
    {
      "midi": 58,
      "hit": false,
      "t": 195812.4999999996,
      "d": 1125,
      "v": 35
    },
    {
      "midi": 75,
      "hit": false,
      "t": 197049.9999999996,
      "d": 216.66666666668607,
      "v": 84
    },
    {
      "midi": 74,
      "hit": false,
      "t": 197233.33333333294,
      "d": 116.66666666668607,
      "v": 53
    },
    {
      "midi": 73,
      "hit": false,
      "t": 197337.49999999962,
      "d": 129.16666666665697,
      "v": 34
    },
    {
      "midi": 72,
      "hit": false,
      "t": 197449.99999999962,
      "d": 50,
      "v": 50
    },
    {
      "midi": 30,
      "hit": false,
      "t": 197533.33333333296,
      "d": 362.4999999999709,
      "v": 42
    },
    {
      "midi": 42,
      "hit": false,
      "t": 197549.99999999962,
      "d": 383.33333333331393,
      "v": 27
    },
    {
      "midi": 75,
      "hit": false,
      "t": 197562.49999999962,
      "d": 116.66666666665697,
      "v": 74
    },
    {
      "midi": 75,
      "hit": false,
      "t": 197829.16666666628,
      "d": 1483.333333333314,
      "v": 64
    },
    {
      "midi": 52,
      "hit": false,
      "t": 198545.83333333294,
      "d": 741.666666666657,
      "v": 50
    },
    {
      "midi": 58,
      "hit": false,
      "t": 198549.9999999996,
      "d": 816.666666666657,
      "v": 45
    },
    {
      "midi": 63,
      "hit": false,
      "t": 198558.33333333294,
      "d": 783.3333333333139,
      "v": 25
    },
    {
      "midi": 73,
      "hit": false,
      "t": 199349.9999999996,
      "d": 91.66666666665697,
      "v": 55
    },
    {
      "midi": 68,
      "hit": false,
      "t": 199624.9999999996,
      "d": 295.83333333331393,
      "v": 32
    },
    {
      "midi": 72,
      "hit": false,
      "t": 199633.33333333294,
      "d": 249.9999999999709,
      "v": 48
    },
    {
      "midi": 56,
      "hit": false,
      "t": 199633.33333333294,
      "d": 583.3333333333139,
      "v": 32
    },
    {
      "midi": 63,
      "hit": false,
      "t": 199645.83333333294,
      "d": 458.33333333331393,
      "v": 31
    },
    {
      "midi": 60,
      "hit": false,
      "t": 199674.9999999996,
      "d": 475,
      "v": 24
    },
    {
      "midi": 70,
      "hit": false,
      "t": 199995.8333333329,
      "d": 191.66666666668607,
      "v": 50
    },
    {
      "midi": 53,
      "hit": false,
      "t": 199995.8333333329,
      "d": 783.333333333343,
      "v": 36
    },
    {
      "midi": 67,
      "hit": false,
      "t": 200008.3333333329,
      "d": 154.16666666668607,
      "v": 36
    },
    {
      "midi": 82,
      "hit": false,
      "t": 200699.9999999996,
      "d": 225,
      "v": 69
    },
    {
      "midi": 56,
      "hit": false,
      "t": 200716.66666666625,
      "d": 379.16666666665697,
      "v": 23
    },
    {
      "midi": 74,
      "hit": false,
      "t": 200729.16666666625,
      "d": 212.5,
      "v": 54
    },
    {
      "midi": 63,
      "hit": false,
      "t": 200729.16666666625,
      "d": 266.66666666665697,
      "v": 18
    },
    {
      "midi": 60,
      "hit": false,
      "t": 200737.4999999996,
      "d": 312.4999999999709,
      "v": 30
    },
    {
      "midi": 67,
      "hit": false,
      "t": 201441.66666666625,
      "d": 266.66666666665697,
      "v": 53
    },
    {
      "midi": 64,
      "hit": false,
      "t": 201754.16666666625,
      "d": 295.83333333334303,
      "v": 44
    },
    {
      "midi": 59,
      "hit": false,
      "t": 201774.9999999996,
      "d": 175,
      "v": 37
    },
    {
      "midi": 62,
      "hit": false,
      "t": 201783.33333333294,
      "d": 237.5,
      "v": 33
    },
    {
      "midi": 56,
      "hit": false,
      "t": 201791.66666666628,
      "d": 191.66666666665697,
      "v": 20
    },
    {
      "midi": 46,
      "hit": false,
      "t": 201808.33333333294,
      "d": 137.5,
      "v": 28
    },
    {
      "midi": 68,
      "hit": false,
      "t": 202262.4999999996,
      "d": 29.166666666656965,
      "v": 35
    },
    {
      "midi": 70,
      "hit": false,
      "t": 202291.66666666625,
      "d": 29.166666666656965,
      "v": 42
    },
    {
      "midi": 79,
      "hit": false,
      "t": 202320.8333333329,
      "d": 112.5,
      "v": 51
    },
    {
      "midi": 74,
      "hit": false,
      "t": 202399.99999999956,
      "d": 100,
      "v": 40
    },
    {
      "midi": 76,
      "hit": false,
      "t": 202399.99999999956,
      "d": 104.16666666665697,
      "v": 20
    },
    {
      "midi": 80,
      "hit": false,
      "t": 202583.33333333288,
      "d": 41.666666666656965,
      "v": 51
    },
    {
      "midi": 91,
      "hit": false,
      "t": 202645.83333333288,
      "d": 108.33333333334303,
      "v": 67
    },
    {
      "midi": 88,
      "hit": false,
      "t": 202679.16666666622,
      "d": 83.33333333334303,
      "v": 32
    },
    {
      "midi": 86,
      "hit": false,
      "t": 202708.33333333288,
      "d": 62.500000000029104,
      "v": 44
    },
    {
      "midi": 92,
      "hit": false,
      "t": 202883.3333333329,
      "d": 37.5,
      "v": 46
    },
    {
      "midi": 94,
      "hit": false,
      "t": 202912.49999999956,
      "d": 29.166666666656965,
      "v": 26
    },
    {
      "midi": 103,
      "hit": false,
      "t": 202937.49999999956,
      "d": 87.5,
      "v": 66
    },
    {
      "midi": 100,
      "hit": false,
      "t": 203016.66666666622,
      "d": 45.83333333337214,
      "v": 22
    },
    {
      "midi": 98,
      "hit": false,
      "t": 203033.3333333329,
      "d": 50.000000000029104,
      "v": 19
    },
    {
      "midi": 95,
      "hit": false,
      "t": 203041.66666666625,
      "d": 54.16666666668607,
      "v": 14
    },
    {
      "midi": 68,
      "hit": false,
      "t": 203904.16666666628,
      "d": 1312.5,
      "v": 40
    },
    {
      "midi": 61,
      "hit": false,
      "t": 203924.99999999962,
      "d": 900,
      "v": 30
    },
    {
      "midi": 64,
      "hit": false,
      "t": 203929.16666666628,
      "d": 1250,
      "v": 42
    },
    {
      "midi": 57,
      "hit": false,
      "t": 203945.83333333294,
      "d": 891.6666666666861,
      "v": 34
    },
    {
      "midi": 56,
      "hit": false,
      "t": 204016.66666666628,
      "d": 200,
      "v": 6
    },
    {
      "midi": 54,
      "hit": false,
      "t": 204229.16666666628,
      "d": 162.5,
      "v": 47
    },
    {
      "midi": 42,
      "hit": false,
      "t": 204516.66666666628,
      "d": 1000,
      "v": 57
    },
    {
      "midi": 61,
      "hit": false,
      "t": 204929.16666666628,
      "d": 304.16666666665697,
      "v": 43
    },
    {
      "midi": 57,
      "hit": false,
      "t": 204933.33333333294,
      "d": 254.16666666668607,
      "v": 47
    },
    {
      "midi": 66,
      "hit": false,
      "t": 205266.66666666628,
      "d": 291.66666666665697,
      "v": 40
    },
    {
      "midi": 61,
      "hit": false,
      "t": 205270.83333333294,
      "d": 529.166666666657,
      "v": 52
    },
    {
      "midi": 57,
      "hit": false,
      "t": 205274.9999999996,
      "d": 487.5,
      "v": 58
    },
    {
      "midi": 54,
      "hit": false,
      "t": 205295.83333333294,
      "d": 291.66666666665697,
      "v": 33
    },
    {
      "midi": 66,
      "hit": false,
      "t": 205624.9999999996,
      "d": 233.33333333334303,
      "v": 65
    },
    {
      "midi": 68,
      "hit": false,
      "t": 205937.4999999996,
      "d": 258.3333333332848,
      "v": 78
    },
    {
      "midi": 61,
      "hit": false,
      "t": 205941.66666666625,
      "d": 833.3333333332848,
      "v": 76
    },
    {
      "midi": 56,
      "hit": false,
      "t": 205945.8333333329,
      "d": 791.6666666666279,
      "v": 70
    },
    {
      "midi": 57,
      "hit": false,
      "t": 205949.99999999956,
      "d": 774.9999999999709,
      "v": 80
    },
    {
      "midi": 63,
      "hit": false,
      "t": 205949.99999999956,
      "d": 795.8333333333139,
      "v": 62
    },
    {
      "midi": 68,
      "hit": false,
      "t": 206270.83333333288,
      "d": 554.166666666657,
      "v": 64
    },
    {
      "midi": 47,
      "hit": false,
      "t": 206299.99999999953,
      "d": 1191.666666666657,
      "v": 61
    },
    {
      "midi": 68,
      "hit": false,
      "t": 206958.33333333288,
      "d": 691.666666666657,
      "v": 51
    },
    {
      "midi": 56,
      "hit": false,
      "t": 206974.99999999953,
      "d": 395.83333333331393,
      "v": 34
    },
    {
      "midi": 61,
      "hit": false,
      "t": 206974.99999999953,
      "d": 987.5,
      "v": 42
    },
    {
      "midi": 63,
      "hit": false,
      "t": 206979.1666666662,
      "d": 704.1666666666861,
      "v": 39
    },
    {
      "midi": 57,
      "hit": false,
      "t": 206979.1666666662,
      "d": 920.833333333343,
      "v": 38
    },
    {
      "midi": 66,
      "hit": false,
      "t": 207724.99999999953,
      "d": 245.83333333334303,
      "v": 52
    },
    {
      "midi": 33,
      "hit": false,
      "t": 208054.16666666622,
      "d": 33.333333333343035,
      "v": 47
    },
    {
      "midi": 55,
      "hit": false,
      "t": 208387.49999999956,
      "d": 1150,
      "v": 36
    },
    {
      "midi": 77,
      "hit": false,
      "t": 208404.16666666622,
      "d": 312.5,
      "v": 69
    },
    {
      "midi": 72,
      "hit": false,
      "t": 208424.99999999956,
      "d": 1370.833333333343,
      "v": 60
    },
    {
      "midi": 69,
      "hit": false,
      "t": 208441.66666666622,
      "d": 1437.500000000029,
      "v": 49
    },
    {
      "midi": 61,
      "hit": false,
      "t": 208449.99999999956,
      "d": 1070.833333333343,
      "v": 34
    },
    {
      "midi": 65,
      "hit": false,
      "t": 208466.66666666622,
      "d": 1691.666666666686,
      "v": 46
    },
    {
      "midi": 77,
      "hit": false,
      "t": 208787.49999999956,
      "d": 245.83333333334303,
      "v": 44
    },
    {
      "midi": 77,
      "hit": false,
      "t": 209170.8333333329,
      "d": 316.66666666665697,
      "v": 43
    },
    {
      "midi": 77,
      "hit": false,
      "t": 209574.99999999956,
      "d": 250,
      "v": 44
    },
    {
      "midi": 75,
      "hit": false,
      "t": 209870.8333333329,
      "d": 574.9999999999709,
      "v": 49
    },
    {
      "midi": 32,
      "hit": false,
      "t": 210199.99999999956,
      "d": 41.666666666656965,
      "v": 48
    },
    {
      "midi": 77,
      "hit": false,
      "t": 211016.66666666622,
      "d": 358.3333333332557,
      "v": 48
    },
    {
      "midi": 70,
      "hit": false,
      "t": 211024.99999999956,
      "d": 249.9999999999418,
      "v": 34
    },
    {
      "midi": 73,
      "hit": false,
      "t": 211037.49999999956,
      "d": 204.16666666662786,
      "v": 29
    },
    {
      "midi": 65,
      "hit": false,
      "t": 211037.49999999956,
      "d": 208.33333333328483,
      "v": 36
    },
    {
      "midi": 66,
      "hit": false,
      "t": 211037.49999999956,
      "d": 220.83333333328483,
      "v": 23
    },
    {
      "midi": 61,
      "hit": false,
      "t": 211041.66666666622,
      "d": 274.9999999999418,
      "v": 31
    },
    {
      "midi": 54,
      "hit": false,
      "t": 211045.83333333288,
      "d": 229.16666666662786,
      "v": 23
    },
    {
      "midi": 58,
      "hit": false,
      "t": 211062.49999999953,
      "d": 270.8333333332848,
      "v": 33
    },
    {
      "midi": 77,
      "hit": false,
      "t": 211429.16666666613,
      "d": 541.6666666666279,
      "v": 19
    },
    {
      "midi": 69,
      "hit": false,
      "t": 211445.8333333328,
      "d": 449.9999999999709,
      "v": 55
    },
    {
      "midi": 54,
      "hit": false,
      "t": 211449.99999999945,
      "d": 895.8333333332848,
      "v": 32
    },
    {
      "midi": 65,
      "hit": false,
      "t": 211454.1666666661,
      "d": 475,
      "v": 44
    },
    {
      "midi": 60,
      "hit": false,
      "t": 211458.33333333276,
      "d": 774.9999999999709,
      "v": 40
    },
    {
      "midi": 74,
      "hit": false,
      "t": 211466.6666666661,
      "d": 441.66666666665697,
      "v": 34
    },
    {
      "midi": 66,
      "hit": false,
      "t": 211524.99999999942,
      "d": 512.5,
      "v": 6
    },
    {
      "midi": 75,
      "hit": false,
      "t": 211908.33333333276,
      "d": 158.33333333331393,
      "v": 1
    },
    {
      "midi": 68,
      "hit": false,
      "t": 212158.33333333273,
      "d": 516.666666666657,
      "v": 59
    },
    {
      "midi": 71,
      "hit": false,
      "t": 213399.9999999994,
      "d": 554.1666666666279,
      "v": 71
    },
    {
      "midi": 68,
      "hit": false,
      "t": 213404.16666666605,
      "d": 379.16666666662786,
      "v": 70
    },
    {
      "midi": 64,
      "hit": false,
      "t": 213408.3333333327,
      "d": 324.9999999999709,
      "v": 73
    },
    {
      "midi": 59,
      "hit": false,
      "t": 213420.8333333327,
      "d": 262.5,
      "v": 50
    },
    {
      "midi": 50,
      "hit": false,
      "t": 213424.99999999936,
      "d": 287.5,
      "v": 42
    },
    {
      "midi": 54,
      "hit": false,
      "t": 213449.99999999936,
      "d": 279.16666666665697,
      "v": 31
    },
    {
      "midi": 72,
      "hit": false,
      "t": 214033.33333333267,
      "d": 520.8333333333139,
      "v": 64
    },
    {
      "midi": 61,
      "hit": false,
      "t": 214041.66666666602,
      "d": 604.1666666666279,
      "v": 59
    },
    {
      "midi": 65,
      "hit": false,
      "t": 214045.83333333267,
      "d": 458.33333333331393,
      "v": 72
    },
    {
      "midi": 45,
      "hit": false,
      "t": 214054.16666666602,
      "d": 529.1666666666279,
      "v": 46
    },
    {
      "midi": 69,
      "hit": false,
      "t": 214058.33333333267,
      "d": 366.66666666665697,
      "v": 53
    },
    {
      "midi": 55,
      "hit": false,
      "t": 214095.83333333267,
      "d": 570.8333333333139,
      "v": 17
    },
    {
      "midi": 73,
      "hit": false,
      "t": 215195.83333333264,
      "d": 500,
      "v": 55
    },
    {
      "midi": 62,
      "hit": false,
      "t": 215204.166666666,
      "d": 433.33333333331393,
      "v": 66
    },
    {
      "midi": 66,
      "hit": false,
      "t": 215208.33333333264,
      "d": 479.16666666665697,
      "v": 67
    },
    {
      "midi": 56,
      "hit": false,
      "t": 215224.9999999993,
      "d": 420.83333333334303,
      "v": 34
    },
    {
      "midi": 46,
      "hit": false,
      "t": 215229.16666666596,
      "d": 383.33333333334303,
      "v": 43
    },
    {
      "midi": 74,
      "hit": false,
      "t": 215870.83333333264,
      "d": 320.83333333331393,
      "v": 55
    },
    {
      "midi": 62,
      "hit": false,
      "t": 215883.33333333264,
      "d": 270.83333333331393,
      "v": 48
    },
    {
      "midi": 67,
      "hit": false,
      "t": 215887.4999999993,
      "d": 266.66666666665697,
      "v": 45
    },
    {
      "midi": 47,
      "hit": false,
      "t": 215891.66666666596,
      "d": 258.33333333334303,
      "v": 36
    },
    {
      "midi": 57,
      "hit": false,
      "t": 215904.16666666596,
      "d": 304.16666666665697,
      "v": 35
    },
    {
      "midi": 75,
      "hit": false,
      "t": 216524.99999999927,
      "d": 599.9999999999709,
      "v": 62
    },
    {
      "midi": 64,
      "hit": false,
      "t": 216537.49999999927,
      "d": 474.9999999999709,
      "v": 45
    },
    {
      "midi": 70,
      "hit": false,
      "t": 216537.49999999927,
      "d": 574.9999999999709,
      "v": 51
    },
    {
      "midi": 58,
      "hit": false,
      "t": 216541.66666666593,
      "d": 499.9999999999709,
      "v": 31
    },
    {
      "midi": 48,
      "hit": false,
      "t": 216558.3333333326,
      "d": 383.33333333331393,
      "v": 32
    },
    {
      "midi": 76,
      "hit": false,
      "t": 217549.99999999924,
      "d": 591.666666666657,
      "v": 36
    },
    {
      "midi": 68,
      "hit": false,
      "t": 217562.49999999924,
      "d": 520.833333333343,
      "v": 40
    },
    {
      "midi": 71,
      "hit": false,
      "t": 217570.8333333326,
      "d": 516.666666666657,
      "v": 40
    },
    {
      "midi": 64,
      "hit": false,
      "t": 217574.99999999924,
      "d": 462.5,
      "v": 33
    },
    {
      "midi": 59,
      "hit": false,
      "t": 217583.3333333326,
      "d": 462.5,
      "v": 43
    },
    {
      "midi": 54,
      "hit": false,
      "t": 217583.3333333326,
      "d": 616.666666666657,
      "v": 25
    },
    {
      "midi": 77,
      "hit": false,
      "t": 218579.1666666659,
      "d": 320.83333333331393,
      "v": 40
    },
    {
      "midi": 72,
      "hit": false,
      "t": 218591.6666666659,
      "d": 262.4999999999709,
      "v": 40
    },
    {
      "midi": 63,
      "hit": false,
      "t": 218595.83333333256,
      "d": 2304.166666666657,
      "v": 25
    },
    {
      "midi": 65,
      "hit": false,
      "t": 218599.9999999992,
      "d": 204.16666666665697,
      "v": 32
    },
    {
      "midi": 58,
      "hit": false,
      "t": 218604.16666666587,
      "d": 2333.333333333343,
      "v": 37
    },
    {
      "midi": 53,
      "hit": false,
      "t": 218608.33333333253,
      "d": 2195.833333333343,
      "v": 26
    },
    {
      "midi": 89,
      "hit": false,
      "t": 219116.66666666587,
      "d": 358.33333333331393,
      "v": 44
    },
    {
      "midi": 77,
      "hit": false,
      "t": 219133.33333333253,
      "d": 325,
      "v": 24
    },
    {
      "midi": 89,
      "hit": false,
      "t": 219608.33333333253,
      "d": 412.5,
      "v": 39
    },
    {
      "midi": 77,
      "hit": false,
      "t": 219637.49999999919,
      "d": 375,
      "v": 24
    },
    {
      "midi": 89,
      "hit": false,
      "t": 220241.66666666587,
      "d": 1004.1666666666861,
      "v": 27
    },
    {
      "midi": 77,
      "hit": false,
      "t": 220266.66666666587,
      "d": 779.1666666666861,
      "v": 18
    },
    {
      "midi": 64,
      "hit": false,
      "t": 221070.83333333256,
      "d": 1441.666666666686,
      "v": 37
    },
    {
      "midi": 54,
      "hit": false,
      "t": 221074.9999999992,
      "d": 1550.0000000000582,
      "v": 25
    },
    {
      "midi": 59,
      "hit": false,
      "t": 221079.16666666587,
      "d": 1450.0000000000582,
      "v": 43
    },
    {
      "midi": 95,
      "hit": false,
      "t": 221520.83333333256,
      "d": 158.33333333334303,
      "v": 46
    },
    {
      "midi": 88,
      "hit": false,
      "t": 221533.33333333256,
      "d": 154.16666666668607,
      "v": 58
    },
    {
      "midi": 92,
      "hit": false,
      "t": 221712.49999999924,
      "d": 195.83333333334303,
      "v": 34
    },
    {
      "midi": 83,
      "hit": false,
      "t": 221716.6666666659,
      "d": 183.33333333334303,
      "v": 36
    },
    {
      "midi": 95,
      "hit": false,
      "t": 221941.66666666593,
      "d": 116.66666666665697,
      "v": 37
    },
    {
      "midi": 88,
      "hit": false,
      "t": 221945.8333333326,
      "d": 129.16666666665697,
      "v": 34
    },
    {
      "midi": 92,
      "hit": false,
      "t": 222112.49999999924,
      "d": 150,
      "v": 36
    },
    {
      "midi": 83,
      "hit": false,
      "t": 222124.99999999924,
      "d": 125,
      "v": 31
    },
    {
      "midi": 88,
      "hit": false,
      "t": 222333.3333333326,
      "d": 125,
      "v": 36
    },
    {
      "midi": 95,
      "hit": false,
      "t": 222337.49999999924,
      "d": 120.83333333334303,
      "v": 36
    },
    {
      "midi": 92,
      "hit": false,
      "t": 222520.8333333326,
      "d": 150.0000000000291,
      "v": 38
    },
    {
      "midi": 83,
      "hit": false,
      "t": 222537.49999999927,
      "d": 108.33333333334303,
      "v": 19
    },
    {
      "midi": 88,
      "hit": false,
      "t": 222737.49999999927,
      "d": 137.5,
      "v": 24
    },
    {
      "midi": 95,
      "hit": false,
      "t": 222749.99999999927,
      "d": 116.66666666665697,
      "v": 22
    },
    {
      "midi": 92,
      "hit": false,
      "t": 222924.99999999927,
      "d": 179.16666666665697,
      "v": 35
    },
    {
      "midi": 83,
      "hit": false,
      "t": 222941.66666666593,
      "d": 87.5,
      "v": 27
    },
    {
      "midi": 89,
      "hit": false,
      "t": 223187.49999999927,
      "d": 187.5000000000291,
      "v": 43
    },
    {
      "midi": 37,
      "hit": false,
      "t": 223187.49999999927,
      "d": 220.83333333337214,
      "v": 40
    },
    {
      "midi": 96,
      "hit": false,
      "t": 223195.83333333262,
      "d": 133.33333333334303,
      "v": 46
    },
    {
      "midi": 44,
      "hit": false,
      "t": 223437.4999999993,
      "d": 129.16666666665697,
      "v": 36
    },
    {
      "midi": 53,
      "hit": false,
      "t": 223695.83333333262,
      "d": 91.66666666665697,
      "v": 28
    },
    {
      "midi": 56,
      "hit": false,
      "t": 223949.99999999927,
      "d": 1320.8333333333721,
      "v": 26
    },
    {
      "midi": 60,
      "hit": false,
      "t": 224216.66666666593,
      "d": 779.1666666666861,
      "v": 40
    },
    {
      "midi": 63,
      "hit": false,
      "t": 224487.49999999927,
      "d": 479.16666666668607,
      "v": 44
    },
    {
      "midi": 65,
      "hit": false,
      "t": 224787.49999999927,
      "d": 266.66666666668607,
      "v": 26
    },
    {
      "midi": 72,
      "hit": false,
      "t": 224787.49999999927,
      "d": 329.16666666668607,
      "v": 41
    },
    {
      "midi": 68,
      "hit": false,
      "t": 224808.33333333262,
      "d": 437.5000000000291,
      "v": 26
    },
    {
      "midi": 75,
      "hit": false,
      "t": 225083.33333333262,
      "d": 104.16666666668607,
      "v": 44
    },
    {
      "midi": 68,
      "hit": false,
      "t": 225374.9999999993,
      "d": 200.0000000000291,
      "v": 35
    },
    {
      "midi": 76,
      "hit": false,
      "t": 225383.33333333264,
      "d": 237.5000000000291,
      "v": 39
    },
    {
      "midi": 59,
      "hit": false,
      "t": 225404.166666666,
      "d": 525,
      "v": 38
    },
    {
      "midi": 71,
      "hit": false,
      "t": 225412.49999999933,
      "d": 158.33333333334303,
      "v": 32
    },
    {
      "midi": 64,
      "hit": false,
      "t": 225412.49999999933,
      "d": 525,
      "v": 30
    },
    {
      "midi": 54,
      "hit": false,
      "t": 225416.666666666,
      "d": 1850,
      "v": 33
    },
    {
      "midi": 88,
      "hit": false,
      "t": 225787.49999999933,
      "d": 179.16666666665697,
      "v": 60
    },
    {
      "midi": 88,
      "hit": false,
      "t": 226191.666666666,
      "d": 1950,
      "v": 34
    },
    {
      "midi": 80,
      "hit": false,
      "t": 226204.166666666,
      "d": 1900,
      "v": 28
    },
    {
      "midi": 76,
      "hit": false,
      "t": 226208.33333333264,
      "d": 1883.333333333343,
      "v": 22
    },
    {
      "midi": 83,
      "hit": false,
      "t": 226229.166666666,
      "d": 1887.5,
      "v": 24
    },
    {
      "midi": 59,
      "hit": false,
      "t": 226229.166666666,
      "d": 2008.333333333343,
      "v": 31
    },
    {
      "midi": 64,
      "hit": false,
      "t": 226237.49999999933,
      "d": 2000,
      "v": 22
    },
    {
      "midi": 68,
      "hit": false,
      "t": 227999.99999999933,
      "d": 2000,
      "v": 60
    },
    {
      "midi": 63,
      "hit": false,
      "t": 229258.33333333267,
      "d": 83.33333333331393,
      "v": 53
    },
    {
      "midi": 53,
      "hit": false,
      "t": 229291.66666666602,
      "d": 33.33333333331393,
      "v": 44
    },
    {
      "midi": 60,
      "hit": false,
      "t": 229291.66666666602,
      "d": 33.33333333331393,
      "v": 44
    },
    {
      "midi": 58,
      "hit": false,
      "t": 229295.83333333267,
      "d": 179.16666666665697,
      "v": 42
    },
    {
      "midi": 64,
      "hit": false,
      "t": 229929.166666666,
      "d": 1279.1666666667152,
      "v": 41
    },
    {
      "midi": 59,
      "hit": false,
      "t": 229954.166666666,
      "d": 1375.0000000000582,
      "v": 37
    },
    {
      "midi": 54,
      "hit": false,
      "t": 229974.99999999933,
      "d": 1258.3333333333721,
      "v": 34
    },
    {
      "midi": 71,
      "hit": false,
      "t": 230820.83333333267,
      "d": 45.833333333343035,
      "v": 46
    },
    {
      "midi": 76,
      "hit": false,
      "t": 230974.99999999936,
      "d": 58.333333333343035,
      "v": 40
    },
    {
      "midi": 80,
      "hit": false,
      "t": 231141.66666666605,
      "d": 95.83333333331393,
      "v": 70
    },
    {
      "midi": 83,
      "hit": false,
      "t": 231308.3333333327,
      "d": 108.33333333334303,
      "v": 88
    },
    {
      "midi": 64,
      "hit": false,
      "t": 231458.3333333327,
      "d": 225,
      "v": 53
    },
    {
      "midi": 59,
      "hit": false,
      "t": 231458.3333333327,
      "d": 233.33333333334303,
      "v": 32
    },
    {
      "midi": 54,
      "hit": false,
      "t": 231474.99999999936,
      "d": 312.5,
      "v": 47
    },
    {
      "midi": 84,
      "hit": false,
      "t": 231483.3333333327,
      "d": 287.5,
      "v": 94
    },
    {
      "midi": 82,
      "hit": false,
      "t": 231824.99999999936,
      "d": 187.4999999999709,
      "v": 80
    },
    {
      "midi": 60,
      "hit": false,
      "t": 231849.99999999936,
      "d": 875,
      "v": 68
    },
    {
      "midi": 53,
      "hit": false,
      "t": 231866.66666666602,
      "d": 1670.833333333343,
      "v": 52
    },
    {
      "midi": 56,
      "hit": false,
      "t": 231870.83333333267,
      "d": 1958.333333333343,
      "v": 49
    },
    {
      "midi": 80,
      "hit": false,
      "t": 232137.49999999933,
      "d": 175,
      "v": 59
    },
    {
      "midi": 82,
      "hit": false,
      "t": 232158.33333333267,
      "d": 150,
      "v": 34
    },
    {
      "midi": 78,
      "hit": false,
      "t": 232358.33333333267,
      "d": 120.83333333334303,
      "v": 59
    },
    {
      "midi": 72,
      "hit": false,
      "t": 232629.16666666602,
      "d": 145.83333333334303,
      "v": 47
    },
    {
      "midi": 70,
      "hit": false,
      "t": 232874.99999999936,
      "d": 166.66666666665697,
      "v": 56
    },
    {
      "midi": 60,
      "hit": false,
      "t": 232912.49999999936,
      "d": 654.166666666657,
      "v": 35
    },
    {
      "midi": 63,
      "hit": false,
      "t": 232912.49999999936,
      "d": 766.666666666657,
      "v": 25
    },
    {
      "midi": 68,
      "hit": false,
      "t": 233104.16666666602,
      "d": 1187.500000000029,
      "v": 48
    },
    {
      "midi": 64,
      "hit": false,
      "t": 233974.99999999936,
      "d": 666.6666666666861,
      "v": 36
    },
    {
      "midi": 59,
      "hit": false,
      "t": 233987.49999999936,
      "d": 1112.500000000029,
      "v": 36
    },
    {
      "midi": 54,
      "hit": false,
      "t": 234008.3333333327,
      "d": 1641.666666666686,
      "v": 29
    },
    {
      "midi": 68,
      "hit": false,
      "t": 234470.8333333327,
      "d": 237.5000000000291,
      "v": 69
    },
    {
      "midi": 66,
      "hit": false,
      "t": 234649.9999999994,
      "d": 95.83333333334303,
      "v": 45
    },
    {
      "midi": 69,
      "hit": false,
      "t": 234999.9999999994,
      "d": 125,
      "v": 68
    },
    {
      "midi": 68,
      "hit": false,
      "t": 235154.16666666605,
      "d": 125,
      "v": 43
    },
    {
      "midi": 59,
      "hit": false,
      "t": 235333.3333333327,
      "d": 220.83333333334303,
      "v": 30
    },
    {
      "midi": 64,
      "hit": false,
      "t": 235337.49999999936,
      "d": 204.16666666668607,
      "v": 37
    },
    {
      "midi": 71,
      "hit": false,
      "t": 235345.8333333327,
      "d": 233.33333333334303,
      "v": 74
    },
    {
      "midi": 63,
      "hit": false,
      "t": 235949.9999999994,
      "d": 612.5000000000291,
      "v": 33
    },
    {
      "midi": 53,
      "hit": false,
      "t": 235962.4999999994,
      "d": 1620.8333333333721,
      "v": 37
    },
    {
      "midi": 60,
      "hit": false,
      "t": 235974.9999999994,
      "d": 650.0000000000291,
      "v": 44
    },
    {
      "midi": 56,
      "hit": false,
      "t": 235983.33333333273,
      "d": 1083.333333333343,
      "v": 28
    },
    {
      "midi": 72,
      "hit": false,
      "t": 236466.66666666607,
      "d": 108.33333333334303,
      "v": 68
    },
    {
      "midi": 70,
      "hit": false,
      "t": 236620.83333333276,
      "d": 75,
      "v": 43
    },
    {
      "midi": 63,
      "hit": false,
      "t": 236779.1666666661,
      "d": 120.83333333331393,
      "v": 37
    },
    {
      "midi": 75,
      "hit": false,
      "t": 236795.83333333276,
      "d": 133.33333333331393,
      "v": 78
    },
    {
      "midi": 60,
      "hit": false,
      "t": 236812.49999999942,
      "d": 212.5,
      "v": 42
    },
    {
      "midi": 72,
      "hit": false,
      "t": 237029.16666666607,
      "d": 95.83333333334303,
      "v": 68
    },
    {
      "midi": 68,
      "hit": false,
      "t": 237370.83333333276,
      "d": 79.16666666665697,
      "v": 74
    },
    {
      "midi": 64,
      "hit": false,
      "t": 237720.83333333276,
      "d": 54.166666666656965,
      "v": 27
    },
    {
      "midi": 61,
      "hit": false,
      "t": 237895.83333333276,
      "d": 408.3333333332848,
      "v": 37
    },
    {
      "midi": 54,
      "hit": false,
      "t": 238041.66666666607,
      "d": 516.6666666666279,
      "v": 36
    },
    {
      "midi": 57,
      "hit": false,
      "t": 238070.83333333273,
      "d": 337.4999999999709,
      "v": 40
    },
    {
      "midi": 66,
      "hit": false,
      "t": 238087.4999999994,
      "d": 787.4999999999709,
      "v": 55
    },
    {
      "midi": 51,
      "hit": false,
      "t": 238862.49999999936,
      "d": 100,
      "v": 45
    },
    {
      "midi": 68,
      "hit": false,
      "t": 238987.49999999936,
      "d": 350,
      "v": 59
    },
    {
      "midi": 56,
      "hit": false,
      "t": 238991.66666666602,
      "d": 320.83333333334303,
      "v": 55
    },
    {
      "midi": 57,
      "hit": false,
      "t": 238995.83333333267,
      "d": 304.16666666668607,
      "v": 58
    },
    {
      "midi": 63,
      "hit": false,
      "t": 239004.16666666602,
      "d": 316.66666666668607,
      "v": 32
    },
    {
      "midi": 61,
      "hit": false,
      "t": 239004.16666666602,
      "d": 329.16666666668607,
      "v": 36
    },
    {
      "midi": 54,
      "hit": false,
      "t": 239404.16666666602,
      "d": 83.33333333334303,
      "v": 21
    },
    {
      "midi": 56,
      "hit": false,
      "t": 239462.49999999936,
      "d": 95.83333333331393,
      "v": 56
    },
    {
      "midi": 68,
      "hit": false,
      "t": 239483.3333333327,
      "d": 183.33333333331393,
      "v": 51
    },
    {
      "midi": 61,
      "hit": false,
      "t": 239487.49999999936,
      "d": 191.66666666665697,
      "v": 43
    },
    {
      "midi": 57,
      "hit": false,
      "t": 239504.16666666602,
      "d": 129.16666666665697,
      "v": 32
    },
    {
      "midi": 63,
      "hit": false,
      "t": 239520.83333333267,
      "d": 108.33333333334303,
      "v": 29
    },
    {
      "midi": 64,
      "hit": false,
      "t": 239995.83333333267,
      "d": 399.9999999999709,
      "v": 57
    },
    {
      "midi": 71,
      "hit": false,
      "t": 239999.99999999933,
      "d": 508.33333333331393,
      "v": 39
    },
    {
      "midi": 68,
      "hit": false,
      "t": 240008.33333333267,
      "d": 470.83333333331393,
      "v": 40
    },
    {
      "midi": 63,
      "hit": false,
      "t": 240349.99999999933,
      "d": 754.1666666666279,
      "v": 37
    },
    {
      "midi": 58,
      "hit": false,
      "t": 240366.666666666,
      "d": 1258.333333333343,
      "v": 36
    },
    {
      "midi": 59,
      "hit": false,
      "t": 240370.83333333264,
      "d": 691.666666666657,
      "v": 50
    },
    {
      "midi": 95,
      "hit": false,
      "t": 241179.16666666596,
      "d": 154.16666666665697,
      "v": 88
    },
    {
      "midi": 88,
      "hit": false,
      "t": 241183.33333333262,
      "d": 175,
      "v": 85
    },
    {
      "midi": 63,
      "hit": false,
      "t": 241187.49999999927,
      "d": 416.6666666667152,
      "v": 43
    },
    {
      "midi": 59,
      "hit": false,
      "t": 241249.99999999927,
      "d": 120.83333333334303,
      "v": 20
    },
    {
      "midi": 92,
      "hit": false,
      "t": 241354.16666666596,
      "d": 108.33333333331393,
      "v": 59
    },
    {
      "midi": 83,
      "hit": false,
      "t": 241374.99999999927,
      "d": 75,
      "v": 50
    },
    {
      "midi": 88,
      "hit": false,
      "t": 241533.33333333262,
      "d": 237.5000000000582,
      "v": 81
    },
    {
      "midi": 95,
      "hit": false,
      "t": 241541.66666666596,
      "d": 229.16666666671517,
      "v": 81
    },
    {
      "midi": 92,
      "hit": false,
      "t": 241549.9999999993,
      "d": 33.333333333343035,
      "v": 38
    },
    {
      "midi": 59,
      "hit": false,
      "t": 241895.83333333267,
      "d": 862.5000000000291,
      "v": 30
    },
    {
      "midi": 64,
      "hit": false,
      "t": 241916.66666666602,
      "d": 866.6666666666861,
      "v": 43
    },
    {
      "midi": 54,
      "hit": false,
      "t": 241920.83333333267,
      "d": 891.6666666666861,
      "v": 34
    },
    {
      "midi": 92,
      "hit": false,
      "t": 241924.99999999933,
      "d": 175,
      "v": 46
    },
    {
      "midi": 83,
      "hit": false,
      "t": 241933.33333333267,
      "d": 137.5,
      "v": 44
    },
    {
      "midi": 88,
      "hit": false,
      "t": 242158.33333333267,
      "d": 58.333333333343035,
      "v": 39
    },
    {
      "midi": 92,
      "hit": false,
      "t": 242291.66666666602,
      "d": 175,
      "v": 36
    },
    {
      "midi": 88,
      "hit": false,
      "t": 242295.83333333267,
      "d": 120.83333333334303,
      "v": 42
    },
    {
      "midi": 83,
      "hit": false,
      "t": 242316.66666666602,
      "d": 233.33333333334303,
      "v": 28
    },
    {
      "midi": 64,
      "hit": false,
      "t": 243258.3333333327,
      "d": 425,
      "v": 51
    },
    {
      "midi": 59,
      "hit": false,
      "t": 243266.66666666605,
      "d": 341.66666666665697,
      "v": 47
    },
    {
      "midi": 54,
      "hit": false,
      "t": 243299.9999999994,
      "d": 479.16666666665697,
      "v": 28
    },
    {
      "midi": 60,
      "hit": false,
      "t": 243966.66666666605,
      "d": 737.4999999999709,
      "v": 27
    },
    {
      "midi": 63,
      "hit": false,
      "t": 243979.16666666605,
      "d": 516.6666666666279,
      "v": 34
    },
    {
      "midi": 53,
      "hit": false,
      "t": 244008.3333333327,
      "d": 1049.999999999971,
      "v": 26
    },
    {
      "midi": 65,
      "hit": false,
      "t": 244349.99999999936,
      "d": 91.66666666665697,
      "v": 51
    },
    {
      "midi": 68,
      "hit": false,
      "t": 244458.33333333267,
      "d": 83.33333333334303,
      "v": 28
    },
    {
      "midi": 72,
      "hit": false,
      "t": 244616.66666666602,
      "d": 79.16666666665697,
      "v": 36
    },
    {
      "midi": 75,
      "hit": false,
      "t": 244729.16666666602,
      "d": 125,
      "v": 83
    },
    {
      "midi": 60,
      "hit": false,
      "t": 244858.33333333267,
      "d": 204.16666666665697,
      "v": 34
    },
    {
      "midi": 72,
      "hit": false,
      "t": 244883.33333333267,
      "d": 58.333333333343035,
      "v": 72
    },
    {
      "midi": 73,
      "hit": false,
      "t": 245016.66666666602,
      "d": 104.16666666665697,
      "v": 31
    },
    {
      "midi": 75,
      "hit": false,
      "t": 245195.83333333267,
      "d": 33.333333333343035,
      "v": 45
    },
    {
      "midi": 77,
      "hit": false,
      "t": 245324.99999999936,
      "d": 79.16666666665697,
      "v": 58
    },
    {
      "midi": 79,
      "hit": false,
      "t": 245470.83333333267,
      "d": 70.83333333334303,
      "v": 57
    },
    {
      "midi": 63,
      "hit": false,
      "t": 245483.33333333267,
      "d": 225,
      "v": 27
    },
    {
      "midi": 80,
      "hit": false,
      "t": 245633.33333333267,
      "d": 70.83333333334303,
      "v": 64
    },
    {
      "midi": 82,
      "hit": false,
      "t": 245779.16666666602,
      "d": 100,
      "v": 77
    },
    {
      "midi": 83,
      "hit": false,
      "t": 245929.16666666602,
      "d": 133.33333333334303,
      "v": 60
    },
    {
      "midi": 59,
      "hit": false,
      "t": 245949.99999999936,
      "d": 933.3333333333139,
      "v": 58
    },
    {
      "midi": 64,
      "hit": false,
      "t": 245962.49999999936,
      "d": 845.8333333333139,
      "v": 40
    },
    {
      "midi": 54,
      "hit": false,
      "t": 246004.16666666602,
      "d": 1237.499999999971,
      "v": 26
    },
    {
      "midi": 88,
      "hit": false,
      "t": 246149.99999999936,
      "d": 129.16666666665697,
      "v": 71
    },
    {
      "midi": 95,
      "hit": false,
      "t": 247099.99999999933,
      "d": 83.33333333334303,
      "v": 57
    },
    {
      "midi": 88,
      "hit": false,
      "t": 247099.99999999933,
      "d": 87.5,
      "v": 45
    },
    {
      "midi": 83,
      "hit": false,
      "t": 247124.99999999933,
      "d": 50,
      "v": 19
    },
    {
      "midi": 92,
      "hit": false,
      "t": 247137.49999999933,
      "d": 33.333333333343035,
      "v": 21
    },
    {
      "midi": 64,
      "hit": false,
      "t": 247483.33333333267,
      "d": 166.66666666665697,
      "v": 37
    },
    {
      "midi": 54,
      "hit": false,
      "t": 247491.66666666602,
      "d": 245.83333333331393,
      "v": 33
    },
    {
      "midi": 59,
      "hit": false,
      "t": 247508.33333333267,
      "d": 125,
      "v": 44
    },
    {
      "midi": 63,
      "hit": false,
      "t": 247849.99999999933,
      "d": 787.5,
      "v": 51
    },
    {
      "midi": 60,
      "hit": false,
      "t": 247862.49999999933,
      "d": 816.666666666657,
      "v": 53
    },
    {
      "midi": 53,
      "hit": false,
      "t": 247879.166666666,
      "d": 1566.666666666657,
      "v": 40
    },
    {
      "midi": 56,
      "hit": false,
      "t": 247891.666666666,
      "d": 1245.833333333314,
      "v": 30
    },
    {
      "midi": 84,
      "hit": false,
      "t": 248499.99999999933,
      "d": 79.16666666665697,
      "v": 94
    },
    {
      "midi": 84,
      "hit": false,
      "t": 248674.99999999933,
      "d": 108.33333333331393,
      "v": 77
    },
    {
      "midi": 77,
      "hit": false,
      "t": 248849.9999999993,
      "d": 66.66666666665697,
      "v": 38
    },
    {
      "midi": 60,
      "hit": false,
      "t": 248866.66666666596,
      "d": 237.5,
      "v": 37
    },
    {
      "midi": 77,
      "hit": false,
      "t": 249004.16666666596,
      "d": 112.5,
      "v": 55
    },
    {
      "midi": 80,
      "hit": false,
      "t": 249195.83333333264,
      "d": 87.5,
      "v": 77
    },
    {
      "midi": 63,
      "hit": false,
      "t": 249354.166666666,
      "d": 58.33333333331393,
      "v": 33
    },
    {
      "midi": 60,
      "hit": false,
      "t": 249354.166666666,
      "d": 104.16666666665697,
      "v": 46
    },
    {
      "midi": 80,
      "hit": false,
      "t": 249358.33333333264,
      "d": 183.33333333331393,
      "v": 54
    },
    {
      "midi": 56,
      "hit": false,
      "t": 249370.83333333264,
      "d": 320.83333333331393,
      "v": 27
    },
    {
      "midi": 73,
      "hit": false,
      "t": 249524.9999999993,
      "d": 75,
      "v": 34
    },
    {
      "midi": 73,
      "hit": false,
      "t": 249691.66666666596,
      "d": 112.5,
      "v": 46
    },
    {
      "midi": 77,
      "hit": false,
      "t": 249858.33333333262,
      "d": 104.16666666665697,
      "v": 66
    },
    {
      "midi": 64,
      "hit": false,
      "t": 249887.49999999927,
      "d": 695.833333333343,
      "v": 55
    },
    {
      "midi": 59,
      "hit": false,
      "t": 249887.49999999927,
      "d": 808.333333333343,
      "v": 53
    },
    {
      "midi": 54,
      "hit": false,
      "t": 249916.66666666593,
      "d": 1758.333333333343,
      "v": 37
    },
    {
      "midi": 77,
      "hit": false,
      "t": 250033.33333333262,
      "d": 125,
      "v": 62
    },
    {
      "midi": 71,
      "hit": false,
      "t": 250195.83333333262,
      "d": 83.33333333334303,
      "v": 49
    },
    {
      "midi": 71,
      "hit": false,
      "t": 250370.83333333262,
      "d": 83.33333333334303,
      "v": 58
    },
    {
      "midi": 76,
      "hit": false,
      "t": 250504.16666666596,
      "d": 100,
      "v": 68
    },
    {
      "midi": 76,
      "hit": false,
      "t": 250670.83333333262,
      "d": 112.5,
      "v": 70
    },
    {
      "midi": 68,
      "hit": false,
      "t": 250829.16666666596,
      "d": 79.16666666668607,
      "v": 45
    },
    {
      "midi": 59,
      "hit": false,
      "t": 250858.33333333264,
      "d": 237.5,
      "v": 38
    },
    {
      "midi": 68,
      "hit": false,
      "t": 250974.9999999993,
      "d": 95.83333333334303,
      "v": 46
    },
    {
      "midi": 71,
      "hit": false,
      "t": 251133.33333333264,
      "d": 54.166666666656965,
      "v": 53
    },
    {
      "midi": 71,
      "hit": false,
      "t": 251274.9999999993,
      "d": 112.5,
      "v": 57
    },
    {
      "midi": 64,
      "hit": false,
      "t": 251299.9999999993,
      "d": 87.5,
      "v": 37
    },
    {
      "midi": 59,
      "hit": false,
      "t": 251333.33333333264,
      "d": 100,
      "v": 30
    },
    {
      "midi": 65,
      "hit": false,
      "t": 251445.83333333264,
      "d": 41.666666666656965,
      "v": 52
    },
    {
      "midi": 64,
      "hit": false,
      "t": 251658.33333333262,
      "d": 45.83333333331393,
      "v": 49
    },
    {
      "midi": 70,
      "hit": false,
      "t": 251783.3333333326,
      "d": 141.66666666665697,
      "v": 78
    },
    {
      "midi": 63,
      "hit": false,
      "t": 251899.99999999924,
      "d": 279.16666666665697,
      "v": 19
    },
    {
      "midi": 60,
      "hit": false,
      "t": 251908.3333333326,
      "d": 408.33333333331393,
      "v": 28
    },
    {
      "midi": 56,
      "hit": false,
      "t": 251941.6666666659,
      "d": 958.333333333343,
      "v": 18
    },
    {
      "midi": 53,
      "hit": false,
      "t": 251962.49999999924,
      "d": 1000,
      "v": 18
    },
    {
      "midi": 68,
      "hit": false,
      "t": 252008.3333333326,
      "d": 354.16666666665697,
      "v": 38
    },
    {
      "midi": 70,
      "hit": false,
      "t": 252062.49999999924,
      "d": 225,
      "v": 20
    },
    {
      "midi": 65,
      "hit": false,
      "t": 252279.1666666659,
      "d": 116.66666666668607,
      "v": 68
    },
    {
      "midi": 60,
      "hit": false,
      "t": 252441.66666666593,
      "d": 354.16666666665697,
      "v": 40
    },
    {
      "midi": 60,
      "hit": false,
      "t": 252937.49999999924,
      "d": 112.5,
      "v": 47
    },
    {
      "midi": 60,
      "hit": false,
      "t": 253279.1666666659,
      "d": 108.33333333334303,
      "v": 63
    },
    {
      "midi": 53,
      "hit": false,
      "t": 253283.33333333256,
      "d": 129.16666666668607,
      "v": 47
    },
    {
      "midi": 56,
      "hit": false,
      "t": 253316.6666666659,
      "d": 191.66666666668607,
      "v": 29
    },
    {
      "midi": 59,
      "hit": false,
      "t": 253962.49999999927,
      "d": 454.16666666662786,
      "v": 54
    },
    {
      "midi": 64,
      "hit": false,
      "t": 253966.66666666593,
      "d": 470.83333333331393,
      "v": 62
    },
    {
      "midi": 80,
      "hit": false,
      "t": 253970.8333333326,
      "d": 654.166666666657,
      "v": 62
    },
    {
      "midi": 75,
      "hit": false,
      "t": 253970.8333333326,
      "d": 712.5,
      "v": 74
    },
    {
      "midi": 68,
      "hit": false,
      "t": 253974.99999999924,
      "d": 600,
      "v": 73
    },
    {
      "midi": 54,
      "hit": false,
      "t": 253987.49999999924,
      "d": 579.166666666657,
      "v": 34
    },
    {
      "midi": 76,
      "hit": false,
      "t": 254954.1666666659,
      "d": 495.83333333331393,
      "v": 42
    },
    {
      "midi": 58,
      "hit": false,
      "t": 254958.33333333256,
      "d": 437.4999999999709,
      "v": 37
    },
    {
      "midi": 69,
      "hit": false,
      "t": 254958.33333333256,
      "d": 458.33333333331393,
      "v": 53
    },
    {
      "midi": 81,
      "hit": false,
      "t": 254962.4999999992,
      "d": 304.16666666665697,
      "v": 51
    },
    {
      "midi": 62,
      "hit": false,
      "t": 254966.66666666587,
      "d": 450,
      "v": 38
    },
    {
      "midi": 52,
      "hit": false,
      "t": 254995.83333333253,
      "d": 325,
      "v": 34
    },
    {
      "midi": 62,
      "hit": false,
      "t": 255974.9999999992,
      "d": 1516.6666666667152,
      "v": 33
    },
    {
      "midi": 60,
      "hit": false,
      "t": 255979.16666666587,
      "d": 1595.8333333334012,
      "v": 32
    },
    {
      "midi": 57,
      "hit": false,
      "t": 255987.4999999992,
      "d": 1604.1666666667152,
      "v": 40
    },
    {
      "midi": 86,
      "hit": false,
      "t": 256166.66666666587,
      "d": 83.33333333334303,
      "v": 70
    },
    {
      "midi": 84,
      "hit": false,
      "t": 256308.33333333256,
      "d": 120.83333333334303,
      "v": 61
    },
    {
      "midi": 81,
      "hit": false,
      "t": 256462.49999999924,
      "d": 120.83333333334303,
      "v": 48
    },
    {
      "midi": 77,
      "hit": false,
      "t": 256620.8333333326,
      "d": 75,
      "v": 37
    },
    {
      "midi": 82,
      "hit": false,
      "t": 256774.99999999924,
      "d": 116.66666666668607,
      "v": 74
    },
    {
      "midi": 53,
      "hit": false,
      "t": 256808.3333333326,
      "d": 1062.5,
      "v": 1
    },
    {
      "midi": 81,
      "hit": false,
      "t": 256937.49999999927,
      "d": 95.83333333334303,
      "v": 63
    },
    {
      "midi": 77,
      "hit": false,
      "t": 257104.16666666596,
      "d": 112.5,
      "v": 50
    },
    {
      "midi": 72,
      "hit": false,
      "t": 257283.33333333262,
      "d": 79.16666666665697,
      "v": 37
    },
    {
      "midi": 74,
      "hit": false,
      "t": 257299.99999999927,
      "d": 41.666666666656965,
      "v": 25
    },
    {
      "midi": 55,
      "hit": false,
      "t": 258462.49999999927,
      "d": 595.8333333333139,
      "v": 88
    },
    {
      "midi": 61,
      "hit": false,
      "t": 258462.49999999927,
      "d": 720.8333333333139,
      "v": 78
    },
    {
      "midi": 66,
      "hit": false,
      "t": 258466.66666666593,
      "d": 629.166666666657,
      "v": 82
    },
    {
      "midi": 61,
      "hit": false,
      "t": 259433.3333333326,
      "d": 212.5,
      "v": 40
    },
    {
      "midi": 65,
      "hit": false,
      "t": 259437.49999999924,
      "d": 112.5,
      "v": 53
    },
    {
      "midi": 55,
      "hit": false,
      "t": 259462.49999999924,
      "d": 45.833333333343035,
      "v": 37
    },
    {
      "midi": 63,
      "hit": false,
      "t": 259962.49999999924,
      "d": 437.5,
      "v": 30
    },
    {
      "midi": 60,
      "hit": false,
      "t": 259962.49999999924,
      "d": 791.6666666666861,
      "v": 36
    },
    {
      "midi": 53,
      "hit": false,
      "t": 259983.3333333326,
      "d": 1437.499999999971,
      "v": 29
    },
    {
      "midi": 75,
      "hit": false,
      "t": 260499.99999999924,
      "d": 58.333333333343035,
      "v": 68
    },
    {
      "midi": 77,
      "hit": false,
      "t": 260570.8333333326,
      "d": 158.33333333334303,
      "v": 44
    },
    {
      "midi": 75,
      "hit": false,
      "t": 260683.3333333326,
      "d": 133.33333333334303,
      "v": 37
    },
    {
      "midi": 74,
      "hit": false,
      "t": 260833.3333333326,
      "d": 79.16666666668607,
      "v": 29
    },
    {
      "midi": 63,
      "hit": false,
      "t": 261004.16666666593,
      "d": 70.83333333331393,
      "v": 28
    },
    {
      "midi": 60,
      "hit": false,
      "t": 261012.49999999924,
      "d": 120.83333333334303,
      "v": 32
    },
    {
      "midi": 75,
      "hit": false,
      "t": 261033.3333333326,
      "d": 100,
      "v": 80
    },
    {
      "midi": 77,
      "hit": false,
      "t": 261337.49999999924,
      "d": 112.4999999999709,
      "v": 71
    },
    {
      "midi": 63,
      "hit": false,
      "t": 261379.1666666659,
      "d": 74.9999999999709,
      "v": 25
    },
    {
      "midi": 60,
      "hit": false,
      "t": 261395.83333333256,
      "d": 54.166666666656965,
      "v": 29
    },
    {
      "midi": 74,
      "hit": false,
      "t": 261549.9999999992,
      "d": 170.83333333334303,
      "v": 35
    },
    {
      "midi": 75,
      "hit": false,
      "t": 261829.1666666659,
      "d": 100,
      "v": 71
    },
    {
      "midi": 61,
      "hit": false,
      "t": 262020.83333333256,
      "d": 437.4999999999418,
      "v": 37
    },
    {
      "midi": 66,
      "hit": false,
      "t": 262024.9999999992,
      "d": 395.8333333332848,
      "v": 38
    },
    {
      "midi": 55,
      "hit": false,
      "t": 262037.4999999992,
      "d": 366.66666666659876,
      "v": 46
    },
    {
      "midi": 78,
      "hit": false,
      "t": 262041.66666666587,
      "d": 254.16666666662786,
      "v": 49
    },
    {
      "midi": 66,
      "hit": false,
      "t": 262508.3333333325,
      "d": 195.83333333337214,
      "v": 64
    },
    {
      "midi": 55,
      "hit": false,
      "t": 262512.4999999992,
      "d": 179.16666666668607,
      "v": 69
    },
    {
      "midi": 78,
      "hit": false,
      "t": 262512.4999999992,
      "d": 187.5,
      "v": 87
    },
    {
      "midi": 61,
      "hit": false,
      "t": 262516.6666666659,
      "d": 245.83333333331393,
      "v": 50
    },
    {
      "midi": 66,
      "hit": false,
      "t": 262974.9999999992,
      "d": 341.6666666667443,
      "v": 83
    },
    {
      "midi": 61,
      "hit": false,
      "t": 262979.1666666659,
      "d": 345.83333333337214,
      "v": 71
    },
    {
      "midi": 55,
      "hit": false,
      "t": 262987.4999999992,
      "d": 275.0000000000582,
      "v": 83
    },
    {
      "midi": 90,
      "hit": false,
      "t": 262995.8333333325,
      "d": 262.5000000000582,
      "v": 70
    },
    {
      "midi": 76,
      "hit": false,
      "t": 263024.9999999992,
      "d": 158.33333333337214,
      "v": 34
    },
    {
      "midi": 78,
      "hit": false,
      "t": 263029.1666666659,
      "d": 183.33333333337214,
      "v": 21
    },
    {
      "midi": 87,
      "hit": false,
      "t": 263362.49999999924,
      "d": 37.5,
      "v": 53
    },
    {
      "midi": 66,
      "hit": false,
      "t": 263466.66666666593,
      "d": 250.0000000000582,
      "v": 69
    },
    {
      "midi": 61,
      "hit": false,
      "t": 263470.8333333326,
      "d": 304.1666666667443,
      "v": 67
    },
    {
      "midi": 55,
      "hit": false,
      "t": 263474.9999999993,
      "d": 229.16666666668607,
      "v": 75
    },
    {
      "midi": 75,
      "hit": false,
      "t": 263487.4999999993,
      "d": 225,
      "v": 83
    },
    {
      "midi": 90,
      "hit": false,
      "t": 263491.666666666,
      "d": 241.66666666668607,
      "v": 71
    },
    {
      "midi": 82,
      "hit": false,
      "t": 263520.8333333327,
      "d": 33.33333333331393,
      "v": 35
    },
    {
      "midi": 66,
      "hit": false,
      "t": 263829.16666666605,
      "d": 104.16666666674428,
      "v": 70
    },
    {
      "midi": 55,
      "hit": false,
      "t": 263829.16666666605,
      "d": 129.16666666674428,
      "v": 73
    },
    {
      "midi": 61,
      "hit": false,
      "t": 263833.33333333273,
      "d": 183.33333333337214,
      "v": 68
    },
    {
      "midi": 90,
      "hit": false,
      "t": 263837.4999999994,
      "d": 91.66666666668607,
      "v": 60
    },
    {
      "midi": 75,
      "hit": false,
      "t": 263845.8333333328,
      "d": 108.33333333331393,
      "v": 68
    },
    {
      "midi": 87,
      "hit": false,
      "t": 263870.8333333328,
      "d": 33.33333333331393,
      "v": 38
    },
    {
      "midi": 60,
      "hit": false,
      "t": 264795.83333333273,
      "d": 195.83333333331393,
      "v": 77
    },
    {
      "midi": 63,
      "hit": false,
      "t": 264799.9999999994,
      "d": 150,
      "v": 71
    },
    {
      "midi": 53,
      "hit": false,
      "t": 264808.33333333273,
      "d": 137.5,
      "v": 62
    },
    {
      "midi": 87,
      "hit": false,
      "t": 264812.4999999994,
      "d": 116.66666666662786,
      "v": 83
    },
    {
      "midi": 75,
      "hit": false,
      "t": 264812.4999999994,
      "d": 145.83333333331393,
      "v": 91
    },
    {
      "midi": 82,
      "hit": false,
      "t": 264820.83333333273,
      "d": 108.33333333331393,
      "v": 75
    },
    {
      "midi": 58,
      "hit": false,
      "t": 264820.83333333273,
      "d": 175,
      "v": 53
    },
    {
      "midi": 84,
      "hit": false,
      "t": 265120.83333333273,
      "d": 112.50000000005821,
      "v": 68
    },
    {
      "midi": 60,
      "hit": false,
      "t": 265124.9999999994,
      "d": 208.33333333337214,
      "v": 54
    },
    {
      "midi": 63,
      "hit": false,
      "t": 265129.1666666661,
      "d": 133.33333333337214,
      "v": 55
    },
    {
      "midi": 72,
      "hit": false,
      "t": 265133.3333333328,
      "d": 125,
      "v": 64
    },
    {
      "midi": 53,
      "hit": false,
      "t": 265137.4999999995,
      "d": 150,
      "v": 49
    },
    {
      "midi": 58,
      "hit": false,
      "t": 265149.9999999995,
      "d": 208.33333333331393,
      "v": 36
    },
    {
      "midi": 60,
      "hit": false,
      "t": 265474.9999999995,
      "d": 87.5,
      "v": 48
    },
    {
      "midi": 63,
      "hit": false,
      "t": 265474.9999999995,
      "d": 95.83333333337214,
      "v": 50
    },
    {
      "midi": 82,
      "hit": false,
      "t": 265474.9999999995,
      "d": 100.00000000005821,
      "v": 64
    },
    {
      "midi": 70,
      "hit": false,
      "t": 265479.16666666616,
      "d": 87.5,
      "v": 67
    },
    {
      "midi": 58,
      "hit": false,
      "t": 265495.83333333285,
      "d": 100,
      "v": 25
    },
    {
      "midi": 53,
      "hit": false,
      "t": 265504.16666666616,
      "d": 70.83333333337214,
      "v": 34
    },
    {
      "midi": 62,
      "hit": false,
      "t": 266270.83333333285,
      "d": 379.1666666667443,
      "v": 64
    },
    {
      "midi": 66,
      "hit": false,
      "t": 266283.33333333285,
      "d": 233.33333333337214,
      "v": 68
    },
    {
      "midi": 59,
      "hit": false,
      "t": 266295.83333333285,
      "d": 566.6666666667443,
      "v": 61
    },
    {
      "midi": 55,
      "hit": false,
      "t": 266299.99999999953,
      "d": 525.0000000000582,
      "v": 51
    },
    {
      "midi": 78,
      "hit": false,
      "t": 266474.99999999953,
      "d": 108.33333333337214,
      "v": 62
    },
    {
      "midi": 67,
      "hit": false,
      "t": 266599.9999999996,
      "d": 83.33333333331393,
      "v": 48
    },
    {
      "midi": 69,
      "hit": false,
      "t": 266724.9999999996,
      "d": 137.5,
      "v": 60
    },
    {
      "midi": 70,
      "hit": false,
      "t": 266858.3333333329,
      "d": 70.83333333337214,
      "v": 64
    },
    {
      "midi": 72,
      "hit": false,
      "t": 266966.6666666663,
      "d": 66.66666666668607,
      "v": 60
    },
    {
      "midi": 73,
      "hit": false,
      "t": 267062.49999999965,
      "d": 95.83333333331393,
      "v": 32
    },
    {
      "midi": 75,
      "hit": false,
      "t": 267170.83333333296,
      "d": 37.5,
      "v": 51
    },
    {
      "midi": 76,
      "hit": false,
      "t": 267262.49999999965,
      "d": 95.83333333337214,
      "v": 62
    },
    {
      "midi": 61,
      "hit": false,
      "t": 267341.66666666634,
      "d": 516.6666666667443,
      "v": 46
    },
    {
      "midi": 66,
      "hit": false,
      "t": 267354.16666666634,
      "d": 137.5000000000582,
      "v": 39
    },
    {
      "midi": 77,
      "hit": false,
      "t": 267383.333333333,
      "d": 91.66666666668607,
      "v": 32
    },
    {
      "midi": 78,
      "hit": false,
      "t": 267491.6666666664,
      "d": 87.5,
      "v": 34
    },
    {
      "midi": 83,
      "hit": false,
      "t": 267779.1666666664,
      "d": 170.83333333343035,
      "v": 87
    },
    {
      "midi": 61,
      "hit": false,
      "t": 267924.99999999977,
      "d": 858.3333333334303,
      "v": 17
    },
    {
      "midi": 78,
      "hit": false,
      "t": 267929.16666666645,
      "d": 391.66666666668607,
      "v": 69
    },
    {
      "midi": 64,
      "hit": false,
      "t": 267945.83333333314,
      "d": 754.1666666666861,
      "v": 55
    },
    {
      "midi": 59,
      "hit": false,
      "t": 267983.33333333314,
      "d": 733.3333333333721,
      "v": 34
    },
    {
      "midi": 54,
      "hit": false,
      "t": 267987.4999999998,
      "d": 1225.0000000000582,
      "v": 32
    },
    {
      "midi": 73,
      "hit": false,
      "t": 268437.4999999998,
      "d": 362.5000000000582,
      "v": 54
    },
    {
      "midi": 69,
      "hit": false,
      "t": 268833.3333333332,
      "d": 37.5,
      "v": 37
    },
    {
      "midi": 73,
      "hit": false,
      "t": 268945.8333333332,
      "d": 687.5000000000582,
      "v": 49
    },
    {
      "midi": 61,
      "hit": false,
      "t": 268958.3333333332,
      "d": 916.6666666668025,
      "v": 44
    },
    {
      "midi": 64,
      "hit": false,
      "t": 268974.9999999999,
      "d": 687.5000000000582,
      "v": 43
    },
    {
      "midi": 59,
      "hit": false,
      "t": 268987.4999999999,
      "d": 325,
      "v": 34
    },
    {
      "midi": 69,
      "hit": false,
      "t": 269316.66666666657,
      "d": 512.5000000000582,
      "v": 68
    },
    {
      "midi": 54,
      "hit": false,
      "t": 269316.66666666657,
      "d": 541.6666666667443,
      "v": 60
    },
    {
      "midi": 72,
      "hit": false,
      "t": 269958.3333333333,
      "d": 504.16666666668607,
      "v": 88
    },
    {
      "midi": 60,
      "hit": false,
      "t": 269958.3333333333,
      "d": 762.5,
      "v": 60
    },
    {
      "midi": 64,
      "hit": false,
      "t": 269962.5,
      "d": 395.83333333331393,
      "v": 71
    },
    {
      "midi": 57,
      "hit": false,
      "t": 269966.6666666667,
      "d": 758.3333333333139,
      "v": 66
    },
    {
      "midi": 53,
      "hit": false,
      "t": 269987.5,
      "d": 391.66666666662786,
      "v": 39
    },
    {
      "midi": 64,
      "hit": false,
      "t": 270433.3333333333,
      "d": 137.5,
      "v": 39
    },
    {
      "midi": 69,
      "hit": false,
      "t": 270462.5,
      "d": 75,
      "v": 73
    },
    {
      "midi": 53,
      "hit": false,
      "t": 270462.5,
      "d": 125,
      "v": 14
    },
    {
      "midi": 57,
      "hit": false,
      "t": 270808.3333333333,
      "d": 104.16666666668607,
      "v": 15
    },
    {
      "midi": 72,
      "hit": false,
      "t": 270808.3333333333,
      "d": 104.16666666668607,
      "v": 94
    },
    {
      "midi": 64,
      "hit": false,
      "t": 270816.6666666666,
      "d": 41.66666666668607,
      "v": 34
    },
    {
      "midi": 64,
      "hit": false,
      "t": 270966.6666666667,
      "d": 250,
      "v": 57
    },
    {
      "midi": 71,
      "hit": false,
      "t": 270979.1666666667,
      "d": 375.0000000000582,
      "v": 72
    },
    {
      "midi": 53,
      "hit": false,
      "t": 270983.3333333334,
      "d": 216.66666666662786,
      "v": 45
    },
    {
      "midi": 59,
      "hit": false,
      "t": 270991.6666666667,
      "d": 258.33333333331393,
      "v": 64
    },
    {
      "midi": 69,
      "hit": false,
      "t": 271291.6666666667,
      "d": 129.16666666674428,
      "v": 74
    },
    {
      "midi": 59,
      "hit": false,
      "t": 271308.3333333334,
      "d": 404.1666666667443,
      "v": 45
    },
    {
      "midi": 53,
      "hit": false,
      "t": 271308.3333333334,
      "d": 425.0000000000582,
      "v": 51
    },
    {
      "midi": 64,
      "hit": false,
      "t": 271312.50000000006,
      "d": 83.33333333337214,
      "v": 50
    },
    {
      "midi": 67,
      "hit": false,
      "t": 271487.5000000001,
      "d": 225,
      "v": 33
    },
    {
      "midi": 64,
      "hit": false,
      "t": 271529.1666666668,
      "d": 120.83333333331393,
      "v": 27
    },
    {
      "midi": 65,
      "hit": false,
      "t": 271808.33333333343,
      "d": 125,
      "v": 71
    },
    {
      "midi": 62,
      "hit": false,
      "t": 271962.5000000001,
      "d": 324.9999999999418,
      "v": 27
    },
    {
      "midi": 59,
      "hit": false,
      "t": 271970.83333333343,
      "d": 354.16666666662786,
      "v": 25
    },
    {
      "midi": 55,
      "hit": false,
      "t": 271983.33333333343,
      "d": 312.4999999999418,
      "v": 33
    },
    {
      "midi": 52,
      "hit": false,
      "t": 271995.83333333343,
      "d": 283.33333333331393,
      "v": 20
    },
    {
      "midi": 64,
      "hit": false,
      "t": 272004.16666666674,
      "d": 320.83333333331393,
      "v": 39
    },
    {
      "midi": 62,
      "hit": false,
      "t": 272483.3333333334,
      "d": 245.83333333337214,
      "v": 41
    },
    {
      "midi": 59,
      "hit": false,
      "t": 272483.3333333334,
      "d": 266.66666666668607,
      "v": 33
    },
    {
      "midi": 64,
      "hit": false,
      "t": 272483.3333333334,
      "d": 291.66666666668607,
      "v": 51
    },
    {
      "midi": 52,
      "hit": false,
      "t": 272495.8333333334,
      "d": 229.16666666668607,
      "v": 34
    },
    {
      "midi": 55,
      "hit": false,
      "t": 272495.8333333334,
      "d": 233.33333333337214,
      "v": 40
    },
    {
      "midi": 59,
      "hit": false,
      "t": 272979.16666666674,
      "d": 166.66666666662786,
      "v": 39
    },
    {
      "midi": 64,
      "hit": false,
      "t": 272979.16666666674,
      "d": 262.5,
      "v": 66
    },
    {
      "midi": 62,
      "hit": false,
      "t": 272987.50000000006,
      "d": 75,
      "v": 43
    },
    {
      "midi": 55,
      "hit": false,
      "t": 273004.16666666674,
      "d": 170.83333333331393,
      "v": 34
    },
    {
      "midi": 52,
      "hit": false,
      "t": 273016.66666666674,
      "d": 350,
      "v": 29
    },
    {
      "midi": 65,
      "hit": false,
      "t": 273304.16666666674,
      "d": 120.83333333331393,
      "v": 66
    },
    {
      "midi": 59,
      "hit": false,
      "t": 273312.50000000006,
      "d": 129.16666666668607,
      "v": 33
    },
    {
      "midi": 62,
      "hit": false,
      "t": 273333.3333333334,
      "d": 45.83333333337214,
      "v": 22
    },
    {
      "midi": 67,
      "hit": false,
      "t": 273508.33333333343,
      "d": 79.16666666668607,
      "v": 55
    },
    {
      "midi": 68,
      "hit": false,
      "t": 273658.33333333343,
      "d": 87.5,
      "v": 59
    },
    {
      "midi": 70,
      "hit": false,
      "t": 273825.0000000001,
      "d": 108.33333333337214,
      "v": 62
    },
    {
      "midi": 65,
      "hit": false,
      "t": 273829.1666666668,
      "d": 579.1666666666861,
      "v": 64
    },
    {
      "midi": 61,
      "hit": false,
      "t": 273845.8333333335,
      "d": 641.6666666666861,
      "v": 31
    },
    {
      "midi": 58,
      "hit": false,
      "t": 273862.5000000002,
      "d": 608.3333333333139,
      "v": 35
    },
    {
      "midi": 54,
      "hit": false,
      "t": 273875.0000000002,
      "d": 600,
      "v": 13
    },
    {
      "midi": 72,
      "hit": false,
      "t": 274012.5000000002,
      "d": 87.5,
      "v": 73
    },
    {
      "midi": 73,
      "hit": false,
      "t": 274162.5000000002,
      "d": 133.33333333331393,
      "v": 64
    },
    {
      "midi": 75,
      "hit": false,
      "t": 274333.3333333335,
      "d": 95.83333333331393,
      "v": 69
    },
    {
      "midi": 77,
      "hit": false,
      "t": 274487.5000000002,
      "d": 108.33333333331393,
      "v": 68
    },
    {
      "midi": 78,
      "hit": false,
      "t": 274637.5000000002,
      "d": 95.83333333331393,
      "v": 61
    },
    {
      "midi": 80,
      "hit": false,
      "t": 274795.8333333335,
      "d": 629.1666666667443,
      "v": 79
    },
    {
      "midi": 61,
      "hit": false,
      "t": 274812.5000000002,
      "d": 275.0000000000582,
      "v": 67
    },
    {
      "midi": 65,
      "hit": false,
      "t": 274816.66666666686,
      "d": 237.5,
      "v": 80
    },
    {
      "midi": 58,
      "hit": false,
      "t": 274816.66666666686,
      "d": 991.6666666667443,
      "v": 69
    },
    {
      "midi": 54,
      "hit": false,
      "t": 274825.0000000002,
      "d": 245.83333333337214,
      "v": 57
    },
    {
      "midi": 61,
      "hit": false,
      "t": 275120.83333333355,
      "d": 320.83333333337214,
      "v": 23
    },
    {
      "midi": 54,
      "hit": false,
      "t": 275125.00000000023,
      "d": 250,
      "v": 39
    },
    {
      "midi": 82,
      "hit": false,
      "t": 275125.00000000023,
      "d": 333.33333333337214,
      "v": 71
    },
    {
      "midi": 65,
      "hit": false,
      "t": 275129.1666666669,
      "d": 258.33333333331393,
      "v": 69
    },
    {
      "midi": 65,
      "hit": false,
      "t": 275487.50000000023,
      "d": 166.66666666668607,
      "v": 64
    },
    {
      "midi": 60,
      "hit": false,
      "t": 275500.00000000023,
      "d": 204.16666666668607,
      "v": 66
    },
    {
      "midi": 84,
      "hit": false,
      "t": 275504.1666666669,
      "d": 237.5,
      "v": 70
    },
    {
      "midi": 54,
      "hit": false,
      "t": 275516.6666666669,
      "d": 154.16666666668607,
      "v": 35
    },
    {
      "midi": 54,
      "hit": false,
      "t": 275783.3333333336,
      "d": 129.16666666662786,
      "v": 55
    },
    {
      "midi": 85,
      "hit": false,
      "t": 275804.1666666669,
      "d": 216.66666666662786,
      "v": 83
    },
    {
      "midi": 60,
      "hit": false,
      "t": 275816.6666666669,
      "d": 129.16666666662786,
      "v": 35
    },
    {
      "midi": 60,
      "hit": false,
      "t": 276016.66666666686,
      "d": 395.83333333337214,
      "v": 40
    },
    {
      "midi": 63,
      "hit": false,
      "t": 276037.50000000023,
      "d": 325,
      "v": 37
    },
    {
      "midi": 53,
      "hit": false,
      "t": 276050.00000000023,
      "d": 337.5,
      "v": 47
    },
    {
      "midi": 56,
      "hit": false,
      "t": 276066.66666666686,
      "d": 362.5000000000582,
      "v": 36
    },
    {
      "midi": 87,
      "hit": false,
      "t": 276095.83333333355,
      "d": 33.33333333331393,
      "v": 65
    },
    {
      "midi": 88,
      "hit": false,
      "t": 276154.16666666686,
      "d": 50,
      "v": 35
    },
    {
      "midi": 89,
      "hit": false,
      "t": 276166.66666666686,
      "d": 237.5000000000582,
      "v": 56
    },
    {
      "midi": 63,
      "hit": false,
      "t": 276470.8333333336,
      "d": 216.66666666668607,
      "v": 36
    },
    {
      "midi": 60,
      "hit": false,
      "t": 276487.5000000003,
      "d": 241.66666666668607,
      "v": 32
    },
    {
      "midi": 84,
      "hit": false,
      "t": 276487.5000000003,
      "d": 270.83333333337214,
      "v": 60
    },
    {
      "midi": 56,
      "hit": false,
      "t": 276504.166666667,
      "d": 200,
      "v": 18
    },
    {
      "midi": 53,
      "hit": false,
      "t": 276516.666666667,
      "d": 158.33333333331393,
      "v": 18
    },
    {
      "midi": 80,
      "hit": false,
      "t": 276795.83333333366,
      "d": 762.5,
      "v": 55
    },
    {
      "midi": 63,
      "hit": false,
      "t": 276825.00000000035,
      "d": 708.3333333333139,
      "v": 29
    },
    {
      "midi": 56,
      "hit": false,
      "t": 276841.66666666704,
      "d": 962.4999999999418,
      "v": 31
    },
    {
      "midi": 60,
      "hit": false,
      "t": 276845.8333333337,
      "d": 608.3333333333139,
      "v": 48
    },
    {
      "midi": 53,
      "hit": false,
      "t": 276845.8333333337,
      "d": 629.1666666666279,
      "v": 32
    },
    {
      "midi": 64,
      "hit": false,
      "t": 277950.0000000003,
      "d": 625,
      "v": 53
    },
    {
      "midi": 59,
      "hit": false,
      "t": 277954.166666667,
      "d": 987.5,
      "v": 54
    },
    {
      "midi": 54,
      "hit": false,
      "t": 277962.5000000003,
      "d": 620.8333333333139,
      "v": 39
    },
    {
      "midi": 95,
      "hit": false,
      "t": 278308.3333333336,
      "d": 237.5,
      "v": 91
    },
    {
      "midi": 88,
      "hit": false,
      "t": 278308.3333333336,
      "d": 254.16666666668607,
      "v": 92
    },
    {
      "midi": 92,
      "hit": false,
      "t": 278612.5000000003,
      "d": 320.83333333337214,
      "v": 63
    },
    {
      "midi": 83,
      "hit": false,
      "t": 278620.8333333336,
      "d": 275,
      "v": 65
    },
    {
      "midi": 64,
      "hit": false,
      "t": 278633.3333333336,
      "d": 266.66666666668607,
      "v": 49
    },
    {
      "midi": 54,
      "hit": false,
      "t": 278645.8333333336,
      "d": 258.33333333337214,
      "v": 34
    },
    {
      "midi": 54,
      "hit": false,
      "t": 279000.0000000003,
      "d": 262.5000000000582,
      "v": 62
    },
    {
      "midi": 59,
      "hit": false,
      "t": 279000.0000000003,
      "d": 295.83333333337214,
      "v": 62
    },
    {
      "midi": 88,
      "hit": false,
      "t": 279004.166666667,
      "d": 216.66666666668607,
      "v": 83
    },
    {
      "midi": 64,
      "hit": false,
      "t": 279004.166666667,
      "d": 233.33333333337214,
      "v": 59
    },
    {
      "midi": 95,
      "hit": false,
      "t": 279008.33333333366,
      "d": 183.33333333331393,
      "v": 82
    },
    {
      "midi": 96,
      "hit": false,
      "t": 279333.33333333366,
      "d": 166.66666666674428,
      "v": 88
    },
    {
      "midi": 64,
      "hit": false,
      "t": 279333.33333333366,
      "d": 191.66666666674428,
      "v": 64
    },
    {
      "midi": 54,
      "hit": false,
      "t": 279333.33333333366,
      "d": 208.33333333343035,
      "v": 61
    },
    {
      "midi": 84,
      "hit": false,
      "t": 279337.50000000035,
      "d": 158.33333333337214,
      "v": 70
    },
    {
      "midi": 59,
      "hit": false,
      "t": 279337.50000000035,
      "d": 237.5000000000582,
      "v": 42
    },
    {
      "midi": 54,
      "hit": false,
      "t": 279637.5000000004,
      "d": 220.83333333337214,
      "v": 62
    },
    {
      "midi": 64,
      "hit": false,
      "t": 279645.8333333337,
      "d": 125.00000000005821,
      "v": 54
    },
    {
      "midi": 97,
      "hit": false,
      "t": 279650.0000000004,
      "d": 170.83333333337214,
      "v": 77
    },
    {
      "midi": 85,
      "hit": false,
      "t": 279654.1666666671,
      "d": 166.66666666668607,
      "v": 75
    },
    {
      "midi": 59,
      "hit": false,
      "t": 279658.3333333338,
      "d": 145.83333333331393,
      "v": 64
    },
    {
      "midi": 87,
      "hit": false,
      "t": 279975.00000000047,
      "d": 233.33333333337214,
      "v": 74
    },
    {
      "midi": 99,
      "hit": false,
      "t": 279979.16666666715,
      "d": 195.83333333337214,
      "v": 74
    },
    {
      "midi": 63,
      "hit": false,
      "t": 279979.16666666715,
      "d": 308.33333333337214,
      "v": 62
    },
    {
      "midi": 60,
      "hit": false,
      "t": 279983.33333333384,
      "d": 320.83333333337214,
      "v": 64
    },
    {
      "midi": 53,
      "hit": false,
      "t": 279987.5000000005,
      "d": 325,
      "v": 58
    },
    {
      "midi": 56,
      "hit": false,
      "t": 280000.0000000005,
      "d": 287.5,
      "v": 47
    },
    {
      "midi": 53,
      "hit": false,
      "t": 280458.3333333339,
      "d": 170.83333333337214,
      "v": 36
    },
    {
      "midi": 63,
      "hit": false,
      "t": 280458.3333333339,
      "d": 170.83333333337214,
      "v": 38
    },
    {
      "midi": 96,
      "hit": false,
      "t": 280466.6666666672,
      "d": 66.66666666668607,
      "v": 66
    },
    {
      "midi": 60,
      "hit": false,
      "t": 280470.8333333339,
      "d": 212.5,
      "v": 43
    },
    {
      "midi": 84,
      "hit": false,
      "t": 280483.3333333339,
      "d": 91.66666666668607,
      "v": 50
    },
    {
      "midi": 56,
      "hit": false,
      "t": 280487.5000000006,
      "d": 150,
      "v": 33
    },
    {
      "midi": 92,
      "hit": false,
      "t": 280812.5000000006,
      "d": 470.83333333331393,
      "v": 53
    },
    {
      "midi": 60,
      "hit": false,
      "t": 280816.66666666727,
      "d": 591.6666666666279,
      "v": 41
    },
    {
      "midi": 53,
      "hit": false,
      "t": 280816.66666666727,
      "d": 645.8333333333139,
      "v": 47
    },
    {
      "midi": 80,
      "hit": false,
      "t": 280825.0000000006,
      "d": 529.1666666666279,
      "v": 45
    },
    {
      "midi": 63,
      "hit": false,
      "t": 280825.0000000006,
      "d": 687.5,
      "v": 43
    },
    {
      "midi": 56,
      "hit": false,
      "t": 280845.8333333339,
      "d": 879.1666666666861,
      "v": 31
    },
    {
      "midi": 64,
      "hit": false,
      "t": 281945.8333333339,
      "d": 137.5,
      "v": 44
    },
    {
      "midi": 59,
      "hit": false,
      "t": 281962.5000000006,
      "d": 720.8333333333139,
      "v": 39
    },
    {
      "midi": 54,
      "hit": false,
      "t": 281975.0000000006,
      "d": 1625.0000000000582,
      "v": 26
    },
    {
      "midi": 68,
      "hit": false,
      "t": 282133.3333333339,
      "d": 108.33333333331393,
      "v": 33
    },
    {
      "midi": 71,
      "hit": false,
      "t": 282133.3333333339,
      "d": 108.33333333331393,
      "v": 35
    },
    {
      "midi": 71,
      "hit": false,
      "t": 282416.6666666672,
      "d": 79.16666666668607,
      "v": 55
    },
    {
      "midi": 68,
      "hit": false,
      "t": 282420.8333333339,
      "d": 66.66666666668607,
      "v": 54
    },
    {
      "midi": 68,
      "hit": false,
      "t": 282762.5000000006,
      "d": 83.33333333331393,
      "v": 62
    },
    {
      "midi": 71,
      "hit": false,
      "t": 282770.8333333339,
      "d": 70.83333333331393,
      "v": 50
    },
    {
      "midi": 59,
      "hit": false,
      "t": 282783.3333333339,
      "d": 279.16666666668607,
      "v": 44
    },
    {
      "midi": 64,
      "hit": false,
      "t": 282925.0000000006,
      "d": 58.33333333331393,
      "v": 52
    },
    {
      "midi": 64,
      "hit": false,
      "t": 283087.5000000006,
      "d": 33.33333333331393,
      "v": 53
    },
    {
      "midi": 68,
      "hit": false,
      "t": 283145.8333333339,
      "d": 33.33333333331393,
      "v": 23
    },
    {
      "midi": 59,
      "hit": false,
      "t": 283295.8333333339,
      "d": 229.16666666674428,
      "v": 49
    },
    {
      "midi": 64,
      "hit": false,
      "t": 283300.0000000006,
      "d": 33.33333333331393,
      "v": 57
    },
    {
      "midi": 68,
      "hit": false,
      "t": 283450.0000000006,
      "d": 45.83333333337214,
      "v": 46
    },
    {
      "midi": 71,
      "hit": false,
      "t": 283454.16666666727,
      "d": 54.16666666668607,
      "v": 49
    },
    {
      "midi": 71,
      "hit": false,
      "t": 283758.33333333395,
      "d": 99.99999999994179,
      "v": 64
    },
    {
      "midi": 68,
      "hit": false,
      "t": 283766.66666666727,
      "d": 83.33333333331393,
      "v": 60
    },
    {
      "midi": 65,
      "hit": false,
      "t": 283933.3333333339,
      "d": 75,
      "v": 57
    },
    {
      "midi": 60,
      "hit": false,
      "t": 283941.6666666672,
      "d": 241.66666666668607,
      "v": 39
    },
    {
      "midi": 63,
      "hit": false,
      "t": 283954.1666666672,
      "d": 387.5,
      "v": 25
    },
    {
      "midi": 56,
      "hit": false,
      "t": 283958.3333333339,
      "d": 670.8333333333721,
      "v": 25
    },
    {
      "midi": 72,
      "hit": false,
      "t": 284104.1666666672,
      "d": 112.5,
      "v": 69
    },
    {
      "midi": 68,
      "hit": false,
      "t": 284104.1666666672,
      "d": 129.16666666668607,
      "v": 71
    },
    {
      "midi": 60,
      "hit": false,
      "t": 284258.3333333339,
      "d": 262.5,
      "v": 15
    },
    {
      "midi": 65,
      "hit": false,
      "t": 284279.1666666672,
      "d": 33.33333333331393,
      "v": 33
    },
    {
      "midi": 68,
      "hit": false,
      "t": 284429.1666666672,
      "d": 70.83333333337214,
      "v": 56
    },
    {
      "midi": 72,
      "hit": false,
      "t": 284429.1666666672,
      "d": 95.83333333337214,
      "v": 62
    },
    {
      "midi": 53,
      "hit": false,
      "t": 284445.8333333339,
      "d": 458.33333333343035,
      "v": 1
    },
    {
      "midi": 68,
      "hit": false,
      "t": 284783.33333333395,
      "d": 120.83333333337214,
      "v": 68
    },
    {
      "midi": 72,
      "hit": false,
      "t": 284787.50000000064,
      "d": 108.33333333337214,
      "v": 64
    },
    {
      "midi": 63,
      "hit": false,
      "t": 284791.6666666673,
      "d": 137.5,
      "v": 35
    },
    {
      "midi": 60,
      "hit": false,
      "t": 284820.833333334,
      "d": 337.5,
      "v": 36
    },
    {
      "midi": 68,
      "hit": false,
      "t": 285145.833333334,
      "d": 116.66666666668607,
      "v": 68
    },
    {
      "midi": 72,
      "hit": false,
      "t": 285150.0000000007,
      "d": 108.33333333331393,
      "v": 62
    },
    {
      "midi": 65,
      "hit": false,
      "t": 285308.333333334,
      "d": 41.66666666668607,
      "v": 55
    },
    {
      "midi": 68,
      "hit": false,
      "t": 285470.833333334,
      "d": 66.66666666668607,
      "v": 68
    },
    {
      "midi": 63,
      "hit": false,
      "t": 285475.0000000007,
      "d": 62.5,
      "v": 28
    },
    {
      "midi": 72,
      "hit": false,
      "t": 285475.0000000007,
      "d": 66.66666666668607,
      "v": 66
    },
    {
      "midi": 60,
      "hit": false,
      "t": 285483.333333334,
      "d": 83.33333333337214,
      "v": 40
    },
    {
      "midi": 56,
      "hit": false,
      "t": 285500.0000000007,
      "d": 125,
      "v": 23
    },
    {
      "midi": 68,
      "hit": false,
      "t": 285787.5000000007,
      "d": 87.5,
      "v": 82
    },
    {
      "midi": 60,
      "hit": false,
      "t": 285795.833333334,
      "d": 37.5,
      "v": 36
    },
    {
      "midi": 53,
      "hit": false,
      "t": 285804.1666666673,
      "d": 54.16666666668607,
      "v": 48
    },
    {
      "midi": 56,
      "hit": false,
      "t": 285804.1666666673,
      "d": 108.33333333337214,
      "v": 34
    },
    {
      "midi": 72,
      "hit": false,
      "t": 285808.333333334,
      "d": 50,
      "v": 68
    },
    {
      "midi": 78,
      "hit": false,
      "t": 286300.0000000007,
      "d": 391.66666666668607,
      "v": 75
    },
    {
      "midi": 58,
      "hit": false,
      "t": 286304.1666666674,
      "d": 304.16666666668607,
      "v": 81
    },
    {
      "midi": 52,
      "hit": false,
      "t": 286308.33333333407,
      "d": 237.5,
      "v": 81
    },
    {
      "midi": 62,
      "hit": false,
      "t": 286308.33333333407,
      "d": 291.66666666668607,
      "v": 80
    },
    {
      "midi": 66,
      "hit": false,
      "t": 286308.33333333407,
      "d": 345.83333333331393,
      "v": 85
    },
    {
      "midi": 73,
      "hit": false,
      "t": 286308.33333333407,
      "d": 383.33333333331393,
      "v": 68
    },
    {
      "midi": 80,
      "hit": false,
      "t": 286979.1666666674,
      "d": 454.1666666668025,
      "v": 74
    },
    {
      "midi": 75,
      "hit": false,
      "t": 286983.33333333407,
      "d": 450.0000000001164,
      "v": 77
    },
    {
      "midi": 66,
      "hit": false,
      "t": 286983.33333333407,
      "d": 462.5000000001164,
      "v": 74
    },
    {
      "midi": 73,
      "hit": false,
      "t": 286983.33333333407,
      "d": 466.6666666668025,
      "v": 67
    },
    {
      "midi": 63,
      "hit": false,
      "t": 286983.33333333407,
      "d": 504.1666666668025,
      "v": 68
    },
    {
      "midi": 57,
      "hit": false,
      "t": 286987.50000000076,
      "d": 404.1666666667443,
      "v": 71
    },
    {
      "midi": 69,
      "hit": false,
      "t": 286991.66666666744,
      "d": 441.6666666667443,
      "v": 79
    },
    {
      "midi": 61,
      "hit": false,
      "t": 286995.8333333341,
      "d": 483.33333333343035,
      "v": 53
    },
    {
      "midi": 63,
      "hit": false,
      "t": 287575.0000000009,
      "d": 75,
      "v": 15
    },
    {
      "midi": 63,
      "hit": false,
      "t": 287808.3333333342,
      "d": 587.5000000000582,
      "v": 74
    },
    {
      "midi": 82,
      "hit": false,
      "t": 287812.5000000009,
      "d": 537.5000000000582,
      "v": 83
    },
    {
      "midi": 70,
      "hit": false,
      "t": 287812.5000000009,
      "d": 562.5000000000582,
      "v": 102
    },
    {
      "midi": 56,
      "hit": false,
      "t": 287816.66666666756,
      "d": 550.0000000000582,
      "v": 77
    },
    {
      "midi": 60,
      "hit": false,
      "t": 287816.66666666756,
      "d": 566.6666666666861,
      "v": 74
    },
    {
      "midi": 75,
      "hit": false,
      "t": 287816.66666666756,
      "d": 583.3333333333721,
      "v": 90
    },
    {
      "midi": 67,
      "hit": false,
      "t": 287820.83333333425,
      "d": 529.1666666666861,
      "v": 88
    },
    {
      "midi": 79,
      "hit": false,
      "t": 287825.00000000093,
      "d": 516.6666666666861,
      "v": 68
    },
    {
      "midi": 67,
      "hit": false,
      "t": 288470.83333333425,
      "d": 208.33333333343035,
      "v": 40
    },
    {
      "midi": 80,
      "hit": false,
      "t": 288487.50000000093,
      "d": 195.83333333343035,
      "v": 29
    },
    {
      "midi": 63,
      "hit": false,
      "t": 288487.50000000093,
      "d": 241.66666666680248,
      "v": 43
    },
    {
      "midi": 75,
      "hit": false,
      "t": 288491.6666666676,
      "d": 220.83333333343035,
      "v": 38
    },
    {
      "midi": 56,
      "hit": false,
      "t": 288495.8333333343,
      "d": 183.33333333337214,
      "v": 31
    },
    {
      "midi": 60,
      "hit": false,
      "t": 288500.000000001,
      "d": 216.66666666674428,
      "v": 47
    },
    {
      "midi": 68,
      "hit": false,
      "t": 288504.1666666677,
      "d": 120.83333333331393,
      "v": 34
    },
    {
      "midi": 63,
      "hit": false,
      "t": 288804.16666666773,
      "d": 245.83333333337214,
      "v": 62
    },
    {
      "midi": 82,
      "hit": false,
      "t": 288808.3333333344,
      "d": 170.83333333331393,
      "v": 71
    },
    {
      "midi": 67,
      "hit": false,
      "t": 288808.3333333344,
      "d": 191.66666666668607,
      "v": 56
    },
    {
      "midi": 70,
      "hit": false,
      "t": 288816.66666666773,
      "d": 183.33333333337214,
      "v": 72
    },
    {
      "midi": 75,
      "hit": false,
      "t": 288816.66666666773,
      "d": 200.0000000000582,
      "v": 61
    },
    {
      "midi": 56,
      "hit": false,
      "t": 288816.66666666773,
      "d": 204.16666666674428,
      "v": 61
    },
    {
      "midi": 60,
      "hit": false,
      "t": 288820.8333333344,
      "d": 208.33333333337214,
      "v": 71
    },
    {
      "midi": 79,
      "hit": false,
      "t": 288829.16666666773,
      "d": 208.33333333337214,
      "v": 48
    },
    {
      "midi": 67,
      "hit": false,
      "t": 289112.5000000011,
      "d": 187.5,
      "v": 42
    },
    {
      "midi": 82,
      "hit": false,
      "t": 289120.8333333344,
      "d": 179.16666666668607,
      "v": 51
    },
    {
      "midi": 56,
      "hit": false,
      "t": 289120.8333333344,
      "d": 237.5000000000582,
      "v": 47
    },
    {
      "midi": 63,
      "hit": false,
      "t": 289125.0000000011,
      "d": 229.16666666668607,
      "v": 52
    },
    {
      "midi": 70,
      "hit": false,
      "t": 289133.3333333344,
      "d": 195.83333333337214,
      "v": 56
    },
    {
      "midi": 60,
      "hit": false,
      "t": 289133.3333333344,
      "d": 208.33333333337214,
      "v": 57
    },
    {
      "midi": 75,
      "hit": false,
      "t": 289145.8333333344,
      "d": 229.16666666674428,
      "v": 60
    },
    {
      "midi": 79,
      "hit": false,
      "t": 289154.16666666773,
      "d": 129.16666666668607,
      "v": 31
    },
    {
      "midi": 63,
      "hit": false,
      "t": 289483.3333333345,
      "d": 179.16666666674428,
      "v": 46
    },
    {
      "midi": 80,
      "hit": false,
      "t": 289487.50000000116,
      "d": 95.83333333337214,
      "v": 37
    },
    {
      "midi": 56,
      "hit": false,
      "t": 289487.50000000116,
      "d": 150.0000000000582,
      "v": 43
    },
    {
      "midi": 67,
      "hit": false,
      "t": 289491.66666666785,
      "d": 45.83333333337214,
      "v": 43
    },
    {
      "midi": 75,
      "hit": false,
      "t": 289495.83333333454,
      "d": 79.16666666668607,
      "v": 46
    },
    {
      "midi": 60,
      "hit": false,
      "t": 289512.5000000012,
      "d": 145.83333333331393,
      "v": 39
    },
    {
      "midi": 85,
      "hit": false,
      "t": 289829.1666666679,
      "d": 229.16666666674428,
      "v": 85
    },
    {
      "midi": 66,
      "hit": false,
      "t": 289833.3333333346,
      "d": 216.66666666674428,
      "v": 83
    },
    {
      "midi": 62,
      "hit": false,
      "t": 289833.3333333346,
      "d": 629.1666666666861,
      "v": 80
    },
    {
      "midi": 73,
      "hit": false,
      "t": 289837.5000000013,
      "d": 241.66666666668607,
      "v": 70
    },
    {
      "midi": 56,
      "hit": false,
      "t": 289841.66666666797,
      "d": 200,
      "v": 73
    },
    {
      "midi": 80,
      "hit": false,
      "t": 289858.33333333465,
      "d": 37.5,
      "v": 53
    },
    {
      "midi": 85,
      "hit": false,
      "t": 290150.0000000013,
      "d": 154.16666666668607,
      "v": 51
    },
    {
      "midi": 66,
      "hit": false,
      "t": 290150.0000000013,
      "d": 216.66666666668607,
      "v": 48
    },
    {
      "midi": 56,
      "hit": false,
      "t": 290166.66666666797,
      "d": 191.66666666668607,
      "v": 48
    },
    {
      "midi": 73,
      "hit": false,
      "t": 290170.83333333465,
      "d": 195.83333333331393,
      "v": 42
    },
    {
      "midi": 62,
      "hit": false,
      "t": 290504.16666666797,
      "d": 166.66666666668607,
      "v": 27
    },
    {
      "midi": 66,
      "hit": false,
      "t": 290512.5000000013,
      "d": 91.66666666668607,
      "v": 48
    },
    {
      "midi": 82,
      "hit": false,
      "t": 290516.66666666797,
      "d": 116.66666666668607,
      "v": 46
    },
    {
      "midi": 56,
      "hit": false,
      "t": 290529.16666666797,
      "d": 104.16666666668607,
      "v": 37
    },
    {
      "midi": 70,
      "hit": false,
      "t": 290541.66666666797,
      "d": 33.33333333331393,
      "v": 37
    },
    {
      "midi": 62,
      "hit": false,
      "t": 291304.166666668,
      "d": 83.33333333331393,
      "v": 64
    },
    {
      "midi": 66,
      "hit": false,
      "t": 291308.3333333347,
      "d": 70.83333333331393,
      "v": 61
    },
    {
      "midi": 56,
      "hit": false,
      "t": 291320.8333333347,
      "d": 87.49999999994179,
      "v": 47
    },
    {
      "midi": 66,
      "hit": false,
      "t": 291779.16666666797,
      "d": 37.50000000005821,
      "v": 54
    },
    {
      "midi": 56,
      "hit": false,
      "t": 291783.33333333465,
      "d": 79.16666666674428,
      "v": 57
    },
    {
      "midi": 75,
      "hit": false,
      "t": 291791.66666666797,
      "d": 37.50000000005821,
      "v": 60
    },
    {
      "midi": 87,
      "hit": false,
      "t": 291791.66666666797,
      "d": 79.16666666674428,
      "v": 71
    },
    {
      "midi": 62,
      "hit": false,
      "t": 291795.83333333465,
      "d": 33.33333333337214,
      "v": 42
    },
    {
      "midi": 82,
      "hit": false,
      "t": 291800.00000000134,
      "d": 33.33333333337214,
      "v": 55
    },
    {
      "midi": 64,
      "hit": false,
      "t": 292066.666666668,
      "d": 95.83333333331393,
      "v": 66
    },
    {
      "midi": 61,
      "hit": false,
      "t": 292066.666666668,
      "d": 141.66666666668607,
      "v": 55
    },
    {
      "midi": 92,
      "hit": false,
      "t": 292070.8333333347,
      "d": 120.83333333331393,
      "v": 76
    },
    {
      "midi": 79,
      "hit": false,
      "t": 292083.3333333347,
      "d": 45.83333333331393,
      "v": 40
    },
    {
      "midi": 57,
      "hit": false,
      "t": 292083.3333333347,
      "d": 104.16666666662786,
      "v": 58
    },
    {
      "midi": 85,
      "hit": false,
      "t": 292087.5000000014,
      "d": 33.33333333331393,
      "v": 57
    },
    {
      "midi": 54,
      "hit": false,
      "t": 292108.3333333347,
      "d": 83.33333333331393,
      "v": 23
    },
    {
      "midi": 61,
      "hit": false,
      "t": 292404.166666668,
      "d": 87.50000000005821,
      "v": 51
    },
    {
      "midi": 92,
      "hit": false,
      "t": 292408.3333333347,
      "d": 29.16666666668607,
      "v": 74
    },
    {
      "midi": 64,
      "hit": false,
      "t": 292408.3333333347,
      "d": 37.50000000005821,
      "v": 68
    },
    {
      "midi": 85,
      "hit": false,
      "t": 292420.8333333347,
      "d": 33.33333333337214,
      "v": 50
    },
    {
      "midi": 81,
      "hit": false,
      "t": 292420.8333333347,
      "d": 37.50000000005821,
      "v": 50
    },
    {
      "midi": 57,
      "hit": false,
      "t": 292441.6666666681,
      "d": 50,
      "v": 43
    },
    {
      "midi": 59,
      "hit": false,
      "t": 292825.0000000014,
      "d": 58.33333333337214,
      "v": 73
    },
    {
      "midi": 56,
      "hit": false,
      "t": 292841.6666666681,
      "d": 75,
      "v": 65
    },
    {
      "midi": 65,
      "hit": false,
      "t": 292866.6666666681,
      "d": 37.5,
      "v": 27
    },
    {
      "midi": 54,
      "hit": false,
      "t": 292987.5000000014,
      "d": 137.5,
      "v": 67
    },
    {
      "midi": 68,
      "hit": false,
      "t": 293133.3333333347,
      "d": 341.66666666668607,
      "v": 70
    },
    {
      "midi": 64,
      "hit": false,
      "t": 293141.666666668,
      "d": 300.0000000000582,
      "v": 65
    },
    {
      "midi": 56,
      "hit": false,
      "t": 293145.8333333347,
      "d": 366.66666666668607,
      "v": 83
    },
    {
      "midi": 57,
      "hit": false,
      "t": 293150.0000000014,
      "d": 287.5,
      "v": 66
    },
    {
      "midi": 61,
      "hit": false,
      "t": 293150.0000000014,
      "d": 312.5,
      "v": 61
    },
    {
      "midi": 66,
      "hit": false,
      "t": 293162.5000000014,
      "d": 129.16666666668607,
      "v": 47
    },
    {
      "midi": 66,
      "hit": false,
      "t": 293512.5000000014,
      "d": 154.16666666668607,
      "v": 49
    },
    {
      "midi": 61,
      "hit": false,
      "t": 293525.0000000014,
      "d": 108.33333333337214,
      "v": 25
    },
    {
      "midi": 54,
      "hit": false,
      "t": 293525.0000000014,
      "d": 316.6666666667443,
      "v": 57
    },
    {
      "midi": 57,
      "hit": false,
      "t": 293541.6666666681,
      "d": 58.33333333337214,
      "v": 37
    },
    {
      "midi": 68,
      "hit": false,
      "t": 293825.0000000014,
      "d": 191.66666666674428,
      "v": 83
    },
    {
      "midi": 61,
      "hit": false,
      "t": 293829.1666666681,
      "d": 191.66666666674428,
      "v": 86
    },
    {
      "midi": 63,
      "hit": false,
      "t": 293833.33333333477,
      "d": 175.0000000000582,
      "v": 77
    },
    {
      "midi": 57,
      "hit": false,
      "t": 293837.50000000146,
      "d": 91.66666666668607,
      "v": 94
    },
    {
      "midi": 56,
      "hit": false,
      "t": 293845.8333333348,
      "d": 608.3333333334303,
      "v": 87
    },
    {
      "midi": 57,
      "hit": false,
      "t": 294045.8333333348,
      "d": 75,
      "v": 44
    },
    {
      "midi": 68,
      "hit": false,
      "t": 294091.66666666814,
      "d": 129.16666666674428,
      "v": 9
    },
    {
      "midi": 61,
      "hit": false,
      "t": 294125.0000000015,
      "d": 137.5000000000582,
      "v": 23
    },
    {
      "midi": 63,
      "hit": false,
      "t": 294154.1666666682,
      "d": 66.66666666668607,
      "v": 25
    },
    {
      "midi": 57,
      "hit": false,
      "t": 294216.6666666682,
      "d": 87.50000000005821,
      "v": 43
    },
    {
      "midi": 68,
      "hit": false,
      "t": 294316.66666666826,
      "d": 95.83333333337214,
      "v": 23
    },
    {
      "midi": 61,
      "hit": false,
      "t": 294333.33333333494,
      "d": 120.83333333331393,
      "v": 26
    },
    {
      "midi": 57,
      "hit": false,
      "t": 294420.83333333494,
      "d": 79.16666666662786,
      "v": 46
    },
    {
      "midi": 68,
      "hit": false,
      "t": 294491.66666666826,
      "d": 329.16666666656965,
      "v": 15
    },
    {
      "midi": 61,
      "hit": false,
      "t": 294512.5000000016,
      "d": 145.83333333331393,
      "v": 25
    },
    {
      "midi": 57,
      "hit": false,
      "t": 294612.5000000016,
      "d": 83.33333333331393,
      "v": 44
    },
    {
      "midi": 61,
      "hit": false,
      "t": 294704.1666666682,
      "d": 141.66666666662786,
      "v": 27
    },
    {
      "midi": 63,
      "hit": false,
      "t": 294729.1666666682,
      "d": 58.33333333331393,
      "v": 28
    },
    {
      "midi": 57,
      "hit": false,
      "t": 294800.0000000015,
      "d": 95.83333333331393,
      "v": 46
    },
    {
      "midi": 68,
      "hit": false,
      "t": 294875.0000000015,
      "d": 104.16666666668607,
      "v": 14
    },
    {
      "midi": 61,
      "hit": false,
      "t": 294900.0000000015,
      "d": 108.33333333337214,
      "v": 33
    },
    {
      "midi": 63,
      "hit": false,
      "t": 294920.8333333348,
      "d": 41.66666666668607,
      "v": 26
    },
    {
      "midi": 57,
      "hit": false,
      "t": 294991.6666666682,
      "d": 79.16666666668607,
      "v": 45
    },
    {
      "midi": 68,
      "hit": false,
      "t": 295062.5000000016,
      "d": 762.5,
      "v": 26
    },
    {
      "midi": 61,
      "hit": false,
      "t": 295091.6666666682,
      "d": 137.5,
      "v": 37
    },
    {
      "midi": 63,
      "hit": false,
      "t": 295125.0000000015,
      "d": 45.83333333331393,
      "v": 25
    },
    {
      "midi": 57,
      "hit": false,
      "t": 295187.5000000015,
      "d": 116.66666666668607,
      "v": 48
    },
    {
      "midi": 61,
      "hit": false,
      "t": 295287.5000000015,
      "d": 137.5,
      "v": 32
    },
    {
      "midi": 63,
      "hit": false,
      "t": 295304.1666666682,
      "d": 87.5,
      "v": 37
    },
    {
      "midi": 56,
      "hit": false,
      "t": 295325.0000000015,
      "d": 387.5,
      "v": 77
    },
    {
      "midi": 57,
      "hit": false,
      "t": 295404.1666666682,
      "d": 95.83333333331393,
      "v": 50
    },
    {
      "midi": 61,
      "hit": false,
      "t": 295500.0000000015,
      "d": 104.16666666668607,
      "v": 25
    },
    {
      "midi": 63,
      "hit": false,
      "t": 295504.1666666682,
      "d": 83.33333333331393,
      "v": 31
    },
    {
      "midi": 57,
      "hit": false,
      "t": 295608.3333333349,
      "d": 83.33333333331393,
      "v": 49
    },
    {
      "midi": 54,
      "hit": false,
      "t": 295729.1666666682,
      "d": 33.33333333337214,
      "v": 36
    },
    {
      "midi": 66,
      "hit": false,
      "t": 295758.3333333349,
      "d": 104.16666666668607,
      "v": 30
    },
    {
      "midi": 61,
      "hit": false,
      "t": 295770.8333333349,
      "d": 175,
      "v": 7
    },
    {
      "midi": 45,
      "hit": false,
      "t": 296037.5000000016,
      "d": 150,
      "v": 77
    },
    {
      "midi": 65,
      "hit": false,
      "t": 296050.0000000016,
      "d": 141.66666666668607,
      "v": 60
    },
    {
      "midi": 66,
      "hit": false,
      "t": 296845.83333333494,
      "d": 220.83333333337214,
      "v": 83
    },
    {
      "midi": 61,
      "hit": false,
      "t": 296845.83333333494,
      "d": 266.66666666668607,
      "v": 74
    },
    {
      "midi": 55,
      "hit": false,
      "t": 296850.00000000163,
      "d": 200,
      "v": 89
    },
    {
      "midi": 89,
      "hit": false,
      "t": 296854.1666666683,
      "d": 187.5,
      "v": 89
    },
    {
      "midi": 84,
      "hit": false,
      "t": 296854.1666666683,
      "d": 220.83333333331393,
      "v": 85
    },
    {
      "midi": 77,
      "hit": false,
      "t": 296854.1666666683,
      "d": 225,
      "v": 87
    },
    {
      "midi": 89,
      "hit": false,
      "t": 297133.33333333494,
      "d": 133.33333333331393,
      "v": 61
    },
    {
      "midi": 66,
      "hit": false,
      "t": 297141.66666666826,
      "d": 187.5000000000582,
      "v": 59
    },
    {
      "midi": 55,
      "hit": false,
      "t": 297145.83333333494,
      "d": 150,
      "v": 65
    },
    {
      "midi": 61,
      "hit": false,
      "t": 297145.83333333494,
      "d": 233.33333333337214,
      "v": 27
    },
    {
      "midi": 77,
      "hit": false,
      "t": 297154.16666666826,
      "d": 145.83333333337214,
      "v": 58
    },
    {
      "midi": 84,
      "hit": false,
      "t": 297154.16666666826,
      "d": 175.0000000000582,
      "v": 74
    },
    {
      "midi": 66,
      "hit": false,
      "t": 297433.333333335,
      "d": 108.33333333331393,
      "v": 54
    },
    {
      "midi": 87,
      "hit": false,
      "t": 297437.5000000017,
      "d": 104.16666666662786,
      "v": 71
    },
    {
      "midi": 75,
      "hit": false,
      "t": 297450.0000000017,
      "d": 33.33333333331393,
      "v": 60
    },
    {
      "midi": 55,
      "hit": false,
      "t": 297450.0000000017,
      "d": 87.49999999994179,
      "v": 64
    },
    {
      "midi": 61,
      "hit": false,
      "t": 297450.0000000017,
      "d": 229.16666666662786,
      "v": 52
    },
    {
      "midi": 61,
      "hit": false,
      "t": 297825.00000000163,
      "d": 875.0000000000582,
      "v": 79
    },
    {
      "midi": 65,
      "hit": false,
      "t": 297829.1666666683,
      "d": 754.1666666666861,
      "v": 92
    },
    {
      "midi": 58,
      "hit": false,
      "t": 297829.1666666683,
      "d": 837.5000000000582,
      "v": 79
    },
    {
      "midi": 54,
      "hit": false,
      "t": 297833.333333335,
      "d": 766.6666666666861,
      "v": 81
    },
    {
      "midi": 89,
      "hit": false,
      "t": 297837.5000000017,
      "d": 662.4999999999418,
      "v": 88
    },
    {
      "midi": 82,
      "hit": false,
      "t": 297837.5000000017,
      "d": 708.3333333333139,
      "v": 83
    },
    {
      "midi": 77,
      "hit": false,
      "t": 297837.5000000017,
      "d": 725,
      "v": 90
    },
    {
      "midi": 85,
      "hit": false,
      "t": 297845.833333335,
      "d": 695.8333333333139,
      "v": 77
    },
    {
      "midi": 61,
      "hit": false,
      "t": 298975.0000000017,
      "d": 104.16666666674428,
      "v": 42
    },
    {
      "midi": 80,
      "hit": false,
      "t": 298979.1666666684,
      "d": 83.33333333337214,
      "v": 40
    },
    {
      "midi": 65,
      "hit": false,
      "t": 298983.33333333506,
      "d": 50,
      "v": 45
    },
    {
      "midi": 54,
      "hit": false,
      "t": 298983.33333333506,
      "d": 104.16666666668607,
      "v": 35
    },
    {
      "midi": 72,
      "hit": false,
      "t": 298987.50000000175,
      "d": 66.66666666668607,
      "v": 50
    },
    {
      "midi": 58,
      "hit": false,
      "t": 298987.50000000175,
      "d": 125,
      "v": 44
    },
    {
      "midi": 84,
      "hit": false,
      "t": 298991.66666666843,
      "d": 33.33333333331393,
      "v": 43
    },
    {
      "midi": 77,
      "hit": false,
      "t": 299004.16666666843,
      "d": 45.83333333331393,
      "v": 26
    },
    {
      "midi": 80,
      "hit": false,
      "t": 299458.33333333506,
      "d": 95.83333333343035,
      "v": 52
    },
    {
      "midi": 61,
      "hit": false,
      "t": 299458.33333333506,
      "d": 133.33333333343035,
      "v": 46
    },
    {
      "midi": 65,
      "hit": false,
      "t": 299462.50000000175,
      "d": 50.00000000005821,
      "v": 51
    },
    {
      "midi": 68,
      "hit": false,
      "t": 299475.00000000175,
      "d": 50.00000000005821,
      "v": 48
    },
    {
      "midi": 54,
      "hit": false,
      "t": 299479.16666666843,
      "d": 129.16666666668607,
      "v": 32
    },
    {
      "midi": 75,
      "hit": false,
      "t": 299483.3333333351,
      "d": 33.33333333337214,
      "v": 46
    },
    {
      "midi": 58,
      "hit": false,
      "t": 299483.3333333351,
      "d": 116.66666666668607,
      "v": 37
    },
    {
      "midi": 61,
      "hit": false,
      "t": 299683.3333333351,
      "d": 100,
      "v": 19
    },
    {
      "midi": 77,
      "hit": false,
      "t": 299954.16666666843,
      "d": 704.1666666667443,
      "v": 47
    },
    {
      "midi": 72,
      "hit": false,
      "t": 299958.3333333351,
      "d": 545.8333333334303,
      "v": 55
    },
    {
      "midi": 63,
      "hit": false,
      "t": 299962.5000000018,
      "d": 441.6666666667443,
      "v": 27
    },
    {
      "midi": 60,
      "hit": false,
      "t": 299962.5000000018,
      "d": 687.5000000000582,
      "v": 37
    },
    {
      "midi": 65,
      "hit": false,
      "t": 299970.8333333352,
      "d": 433.33333333337214,
      "v": 42
    },
    {
      "midi": 56,
      "hit": false,
      "t": 299975.00000000186,
      "d": 637.5,
      "v": 32
    },
    {
      "midi": 53,
      "hit": false,
      "t": 299987.50000000186,
      "d": 1645.8333333333721,
      "v": 30
    },
    {
      "midi": 63,
      "hit": false,
      "t": 300945.8333333352,
      "d": 700.0000000000582,
      "v": 33
    },
    {
      "midi": 60,
      "hit": false,
      "t": 300958.3333333352,
      "d": 604.1666666666861,
      "v": 40
    },
    {
      "midi": 56,
      "hit": false,
      "t": 300966.6666666685,
      "d": 795.8333333333721,
      "v": 31
    },
    {
      "midi": 75,
      "hit": false,
      "t": 301141.6666666685,
      "d": 129.16666666668607,
      "v": 71
    },
    {
      "midi": 73,
      "hit": false,
      "t": 301275.00000000186,
      "d": 75,
      "v": 36
    },
    {
      "midi": 75,
      "hit": false,
      "t": 301454.16666666855,
      "d": 75,
      "v": 72
    },
    {
      "midi": 75,
      "hit": false,
      "t": 301629.16666666855,
      "d": 112.5,
      "v": 64
    },
    {
      "midi": 73,
      "hit": false,
      "t": 301779.16666666855,
      "d": 95.83333333331393,
      "v": 39
    },
    {
      "midi": 75,
      "hit": false,
      "t": 301962.50000000186,
      "d": 83.33333333331393,
      "v": 68
    },
    {
      "midi": 63,
      "hit": false,
      "t": 301970.8333333352,
      "d": 829.1666666666861,
      "v": 46
    },
    {
      "midi": 52,
      "hit": false,
      "t": 302008.3333333352,
      "d": 745.8333333333721,
      "v": 36
    },
    {
      "midi": 58,
      "hit": false,
      "t": 302020.8333333352,
      "d": 770.8333333333721,
      "v": 32
    },
    {
      "midi": 75,
      "hit": false,
      "t": 302150.00000000186,
      "d": 116.66666666668607,
      "v": 56
    },
    {
      "midi": 73,
      "hit": false,
      "t": 302300.00000000186,
      "d": 120.83333333331393,
      "v": 37
    },
    {
      "midi": 75,
      "hit": false,
      "t": 302500.00000000186,
      "d": 287.5,
      "v": 59
    },
    {
      "midi": 63,
      "hit": false,
      "t": 303325.00000000186,
      "d": 520.8333333333721,
      "v": 48
    },
    {
      "midi": 58,
      "hit": false,
      "t": 303337.50000000186,
      "d": 500.0000000000582,
      "v": 48
    },
    {
      "midi": 52,
      "hit": false,
      "t": 303441.66666666855,
      "d": 370.83333333337214,
      "v": 3
    },
    {
      "midi": 73,
      "hit": false,
      "t": 303825.0000000019,
      "d": 116.66666666662786,
      "v": 77
    },
    {
      "midi": 72,
      "hit": false,
      "t": 304020.83333333523,
      "d": 166.66666666662786,
      "v": 79
    },
    {
      "midi": 63,
      "hit": false,
      "t": 304020.83333333523,
      "d": 350,
      "v": 42
    },
    {
      "midi": 60,
      "hit": false,
      "t": 304079.16666666855,
      "d": 562.5,
      "v": 15
    },
    {
      "midi": 53,
      "hit": false,
      "t": 304104.16666666855,
      "d": 812.5,
      "v": 25
    },
    {
      "midi": 73,
      "hit": false,
      "t": 304204.16666666855,
      "d": 87.5,
      "v": 29
    },
    {
      "midi": 72,
      "hit": false,
      "t": 304291.66666666855,
      "d": 104.16666666668607,
      "v": 59
    },
    {
      "midi": 56,
      "hit": false,
      "t": 304383.33333333523,
      "d": 320.83333333331393,
      "v": 1
    },
    {
      "midi": 71,
      "hit": false,
      "t": 304408.33333333523,
      "d": 37.5,
      "v": 45
    },
    {
      "midi": 72,
      "hit": false,
      "t": 304504.16666666855,
      "d": 279.16666666668607,
      "v": 65
    },
    {
      "midi": 63,
      "hit": false,
      "t": 305283.3333333352,
      "d": 45.83333333337214,
      "v": 32
    },
    {
      "midi": 60,
      "hit": false,
      "t": 305283.3333333352,
      "d": 50.00000000005821,
      "v": 46
    },
    {
      "midi": 56,
      "hit": false,
      "t": 305300.00000000186,
      "d": 104.16666666668607,
      "v": 34
    },
    {
      "midi": 71,
      "hit": false,
      "t": 305758.33333333523,
      "d": 137.5,
      "v": 80
    },
    {
      "midi": 78,
      "hit": false,
      "t": 305758.33333333523,
      "d": 245.83333333337214,
      "v": 58
    },
    {
      "midi": 83,
      "hit": false,
      "t": 305762.5000000019,
      "d": 170.83333333337214,
      "v": 64
    },
    {
      "midi": 57,
      "hit": false,
      "t": 305766.6666666686,
      "d": 145.83333333331393,
      "v": 64
    },
    {
      "midi": 63,
      "hit": false,
      "t": 305766.6666666686,
      "d": 237.5,
      "v": 59
    },
    {
      "midi": 68,
      "hit": false,
      "t": 305775.0000000019,
      "d": 154.16666666668607,
      "v": 64
    },
    {
      "midi": 61,
      "hit": false,
      "t": 305779.1666666686,
      "d": 204.16666666668607,
      "v": 37
    },
    {
      "midi": 79,
      "hit": false,
      "t": 306020.83333333523,
      "d": 41.66666666668607,
      "v": 30
    },
    {
      "midi": 77,
      "hit": false,
      "t": 306066.6666666686,
      "d": 200,
      "v": 36
    },
    {
      "midi": 67,
      "hit": false,
      "t": 306079.1666666686,
      "d": 175,
      "v": 32
    },
    {
      "midi": 82,
      "hit": false,
      "t": 306079.1666666686,
      "d": 179.16666666668607,
      "v": 49
    },
    {
      "midi": 62,
      "hit": false,
      "t": 306083.3333333353,
      "d": 195.83333333331393,
      "v": 38
    },
    {
      "midi": 70,
      "hit": false,
      "t": 306100.000000002,
      "d": 133.33333333331393,
      "v": 44
    },
    {
      "midi": 60,
      "hit": false,
      "t": 306112.500000002,
      "d": 174.9999999999418,
      "v": 49
    },
    {
      "midi": 56,
      "hit": false,
      "t": 306112.500000002,
      "d": 191.66666666662786,
      "v": 27
    },
    {
      "midi": 82,
      "hit": false,
      "t": 306383.3333333353,
      "d": 87.50000000005821,
      "v": 49
    },
    {
      "midi": 67,
      "hit": false,
      "t": 306395.8333333353,
      "d": 58.33333333337214,
      "v": 44
    },
    {
      "midi": 70,
      "hit": false,
      "t": 306408.3333333353,
      "d": 33.33333333337214,
      "v": 27
    },
    {
      "midi": 62,
      "hit": false,
      "t": 306412.500000002,
      "d": 54.16666666668607,
      "v": 26
    },
    {
      "midi": 67,
      "hit": false,
      "t": 307308.33333333535,
      "d": 33.33333333331393,
      "v": 70
    },
    {
      "midi": 62,
      "hit": false,
      "t": 307316.66666666867,
      "d": 66.66666666668607,
      "v": 51
    },
    {
      "midi": 60,
      "hit": false,
      "t": 307329.16666666867,
      "d": 41.66666666668607,
      "v": 48
    },
    {
      "midi": 54,
      "hit": false,
      "t": 307820.83333333535,
      "d": 108.33333333337214,
      "v": 46
    },
    {
      "midi": 68,
      "hit": false,
      "t": 307954.1666666687,
      "d": 308.33333333331393,
      "v": 59
    },
    {
      "midi": 61,
      "hit": false,
      "t": 307954.1666666687,
      "d": 333.33333333331393,
      "v": 53
    },
    {
      "midi": 57,
      "hit": false,
      "t": 307958.3333333354,
      "d": 279.16666666662786,
      "v": 69
    },
    {
      "midi": 64,
      "hit": false,
      "t": 307966.6666666687,
      "d": 308.33333333331393,
      "v": 55
    },
    {
      "midi": 56,
      "hit": false,
      "t": 307970.8333333354,
      "d": 304.16666666662786,
      "v": 65
    },
    {
      "midi": 66,
      "hit": false,
      "t": 307991.6666666687,
      "d": 300,
      "v": 31
    },
    {
      "midi": 54,
      "hit": false,
      "t": 308350.00000000204,
      "d": 120.83333333337214,
      "v": 43
    },
    {
      "midi": 61,
      "hit": false,
      "t": 308454.1666666687,
      "d": 362.5,
      "v": 45
    },
    {
      "midi": 68,
      "hit": false,
      "t": 308458.3333333354,
      "d": 341.66666666662786,
      "v": 50
    },
    {
      "midi": 64,
      "hit": false,
      "t": 308462.5000000021,
      "d": 274.9999999999418,
      "v": 61
    },
    {
      "midi": 57,
      "hit": false,
      "t": 308462.5000000021,
      "d": 287.4999999999418,
      "v": 58
    },
    {
      "midi": 56,
      "hit": false,
      "t": 308479.1666666687,
      "d": 337.5,
      "v": 51
    },
    {
      "midi": 54,
      "hit": false,
      "t": 308854.1666666687,
      "d": 116.66666666668607,
      "v": 52
    },
    {
      "midi": 68,
      "hit": false,
      "t": 308983.3333333354,
      "d": 262.5,
      "v": 63
    },
    {
      "midi": 64,
      "hit": false,
      "t": 308995.8333333354,
      "d": 200,
      "v": 60
    },
    {
      "midi": 57,
      "hit": false,
      "t": 309000.0000000021,
      "d": 170.83333333331393,
      "v": 50
    },
    {
      "midi": 61,
      "hit": false,
      "t": 309004.1666666688,
      "d": 241.66666666662786,
      "v": 36
    },
    {
      "midi": 56,
      "hit": false,
      "t": 309004.1666666688,
      "d": 299.9999999999418,
      "v": 56
    },
    {
      "midi": 61,
      "hit": false,
      "t": 309312.50000000204,
      "d": 75,
      "v": 46
    },
    {
      "midi": 66,
      "hit": false,
      "t": 309320.83333333535,
      "d": 104.16666666668607,
      "v": 57
    },
    {
      "midi": 54,
      "hit": false,
      "t": 309325.00000000204,
      "d": 91.66666666668607,
      "v": 53
    },
    {
      "midi": 57,
      "hit": false,
      "t": 309333.33333333535,
      "d": 37.5,
      "v": 40
    },
    {
      "midi": 57,
      "hit": false,
      "t": 309783.33333333535,
      "d": 37.5,
      "v": 53
    },
    {
      "midi": 68,
      "hit": false,
      "t": 309787.50000000204,
      "d": 66.66666666662786,
      "v": 45
    },
    {
      "midi": 61,
      "hit": false,
      "t": 309791.6666666687,
      "d": 33.33333333331393,
      "v": 42
    },
    {
      "midi": 56,
      "hit": false,
      "t": 309791.6666666687,
      "d": 58.33333333325572,
      "v": 60
    },
    {
      "midi": 47,
      "hit": false,
      "t": 309800.00000000204,
      "d": 33.33333333331393,
      "v": 50
    },
    {
      "midi": 63,
      "hit": false,
      "t": 309808.33333333535,
      "d": 33.33333333331393,
      "v": 25
    },
    {
      "midi": 80,
      "hit": false,
      "t": 310250.00000000204,
      "d": 49.99999999994179,
      "v": 68
    },
    {
      "midi": 68,
      "hit": false,
      "t": 310250.00000000204,
      "d": 62.49999999994179,
      "v": 71
    },
    {
      "midi": 69,
      "hit": false,
      "t": 310258.33333333535,
      "d": 33.33333333331393,
      "v": 68
    },
    {
      "midi": 73,
      "hit": false,
      "t": 310258.33333333535,
      "d": 41.66666666662786,
      "v": 42
    },
    {
      "midi": 75,
      "hit": false,
      "t": 310258.33333333535,
      "d": 41.66666666662786,
      "v": 58
    },
    {
      "midi": 66,
      "hit": false,
      "t": 310412.500000002,
      "d": 108.33333333331393,
      "v": 52
    },
    {
      "midi": 80,
      "hit": false,
      "t": 310554.1666666686,
      "d": 337.5000000000582,
      "v": 83
    },
    {
      "midi": 73,
      "hit": false,
      "t": 310558.3333333353,
      "d": 308.33333333337214,
      "v": 73
    },
    {
      "midi": 75,
      "hit": false,
      "t": 310558.3333333353,
      "d": 308.33333333337214,
      "v": 83
    },
    {
      "midi": 69,
      "hit": false,
      "t": 310562.500000002,
      "d": 304.16666666668607,
      "v": 91
    },
    {
      "midi": 68,
      "hit": false,
      "t": 310579.16666666867,
      "d": 337.5,
      "v": 90
    },
    {
      "midi": 78,
      "hit": false,
      "t": 310954.16666666867,
      "d": 116.66666666668607,
      "v": 43
    },
    {
      "midi": 66,
      "hit": false,
      "t": 310962.50000000204,
      "d": 220.83333333331393,
      "v": 50
    },
    {
      "midi": 80,
      "hit": false,
      "t": 311195.83333333535,
      "d": 195.83333333337214,
      "v": 74
    },
    {
      "midi": 73,
      "hit": false,
      "t": 311200.00000000204,
      "d": 166.66666666668607,
      "v": 55
    },
    {
      "midi": 75,
      "hit": false,
      "t": 311200.00000000204,
      "d": 170.83333333337214,
      "v": 72
    },
    {
      "midi": 69,
      "hit": false,
      "t": 311204.1666666687,
      "d": 166.66666666668607,
      "v": 78
    },
    {
      "midi": 68,
      "hit": false,
      "t": 311208.3333333354,
      "d": 200,
      "v": 74
    },
    {
      "midi": 66,
      "hit": false,
      "t": 311450.0000000021,
      "d": 37.5,
      "v": 51
    },
    {
      "midi": 78,
      "hit": false,
      "t": 311495.83333333547,
      "d": 137.5000000000582,
      "v": 62
    },
    {
      "midi": 75,
      "hit": false,
      "t": 311500.00000000215,
      "d": 133.33333333337214,
      "v": 67
    },
    {
      "midi": 73,
      "hit": false,
      "t": 311504.16666666884,
      "d": 133.33333333337214,
      "v": 44
    },
    {
      "midi": 69,
      "hit": false,
      "t": 311508.3333333355,
      "d": 129.16666666668607,
      "v": 66
    },
    {
      "midi": 61,
      "hit": false,
      "t": 311975.0000000022,
      "d": 287.5000000000582,
      "v": 61
    },
    {
      "midi": 72,
      "hit": false,
      "t": 311979.1666666689,
      "d": 245.83333333337214,
      "v": 91
    },
    {
      "midi": 77,
      "hit": false,
      "t": 311979.1666666689,
      "d": 262.5000000000582,
      "v": 77
    },
    {
      "midi": 66,
      "hit": false,
      "t": 311983.3333333356,
      "d": 225,
      "v": 69
    },
    {
      "midi": 55,
      "hit": false,
      "t": 311987.50000000227,
      "d": 220.83333333331393,
      "v": 74
    },
    {
      "midi": 66,
      "hit": false,
      "t": 312304.1666666689,
      "d": 104.16666666668607,
      "v": 47
    },
    {
      "midi": 77,
      "hit": false,
      "t": 312304.1666666689,
      "d": 141.66666666668607,
      "v": 34
    },
    {
      "midi": 55,
      "hit": false,
      "t": 312308.3333333356,
      "d": 100,
      "v": 60
    },
    {
      "midi": 72,
      "hit": false,
      "t": 312308.3333333356,
      "d": 104.16666666668607,
      "v": 66
    },
    {
      "midi": 61,
      "hit": false,
      "t": 312308.3333333356,
      "d": 158.33333333331393,
      "v": 35
    },
    {
      "midi": 66,
      "hit": false,
      "t": 312495.8333333356,
      "d": 208.33333333337214,
      "v": 46
    },
    {
      "midi": 77,
      "hit": false,
      "t": 312508.3333333356,
      "d": 208.33333333337214,
      "v": 31
    },
    {
      "midi": 61,
      "hit": false,
      "t": 312508.3333333356,
      "d": 229.16666666668607,
      "v": 27
    },
    {
      "midi": 72,
      "hit": false,
      "t": 312512.50000000227,
      "d": 195.83333333337214,
      "v": 53
    },
    {
      "midi": 55,
      "hit": false,
      "t": 312516.66666666896,
      "d": 133.33333333331393,
      "v": 61
    },
    {
      "midi": 72,
      "hit": false,
      "t": 312833.3333333356,
      "d": 95.83333333337214,
      "v": 60
    },
    {
      "midi": 77,
      "hit": false,
      "t": 312837.50000000227,
      "d": 116.66666666668607,
      "v": 49
    },
    {
      "midi": 66,
      "hit": false,
      "t": 312841.66666666896,
      "d": 58.33333333331393,
      "v": 43
    },
    {
      "midi": 61,
      "hit": false,
      "t": 312841.66666666896,
      "d": 108.33333333331393,
      "v": 37
    },
    {
      "midi": 56,
      "hit": false,
      "t": 313808.3333333356,
      "d": 112.5,
      "v": 61
    },
    {
      "midi": 62,
      "hit": false,
      "t": 313816.6666666689,
      "d": 33.33333333331393,
      "v": 50
    },
    {
      "midi": 66,
      "hit": false,
      "t": 313820.8333333356,
      "d": 33.33333333331393,
      "v": 34
    },
    {
      "midi": 72,
      "hit": false,
      "t": 313829.1666666689,
      "d": 75,
      "v": 82
    },
    {
      "midi": 77,
      "hit": false,
      "t": 313829.1666666689,
      "d": 116.66666666668607,
      "v": 66
    },
    {
      "midi": 77,
      "hit": false,
      "t": 314070.8333333356,
      "d": 216.66666666662786,
      "v": 53
    },
    {
      "midi": 65,
      "hit": false,
      "t": 314075.00000000227,
      "d": 187.4999999999418,
      "v": 70
    },
    {
      "midi": 74,
      "hit": false,
      "t": 314075.00000000227,
      "d": 224.9999999999418,
      "v": 49
    },
    {
      "midi": 54,
      "hit": false,
      "t": 314083.3333333356,
      "d": 195.83333333331393,
      "v": 47
    },
    {
      "midi": 58,
      "hit": false,
      "t": 314083.3333333356,
      "d": 245.83333333331393,
      "v": 46
    },
    {
      "midi": 70,
      "hit": false,
      "t": 314091.6666666689,
      "d": 183.33333333331393,
      "v": 49
    },
    {
      "midi": 60,
      "hit": false,
      "t": 314091.6666666689,
      "d": 212.5,
      "v": 50
    },
    {
      "midi": 65,
      "hit": false,
      "t": 314375.0000000022,
      "d": 41.66666666662786,
      "v": 56
    },
    {
      "midi": 70,
      "hit": false,
      "t": 314375.0000000022,
      "d": 62.49999999994179,
      "v": 52
    },
    {
      "midi": 77,
      "hit": false,
      "t": 314379.1666666689,
      "d": 74.99999999994179,
      "v": 39
    },
    {
      "midi": 74,
      "hit": false,
      "t": 314387.5000000022,
      "d": 62.49999999994179,
      "v": 54
    },
    {
      "midi": 60,
      "hit": false,
      "t": 314395.8333333355,
      "d": 70.83333333331393,
      "v": 54
    },
    {
      "midi": 58,
      "hit": false,
      "t": 314416.66666666884,
      "d": 100,
      "v": 23
    },
    {
      "midi": 70,
      "hit": false,
      "t": 314958.3333333355,
      "d": 491.6666666668025,
      "v": 48
    },
    {
      "midi": 60,
      "hit": false,
      "t": 314962.5000000022,
      "d": 337.5000000000582,
      "v": 43
    },
    {
      "midi": 77,
      "hit": false,
      "t": 314962.5000000022,
      "d": 379.1666666667443,
      "v": 48
    },
    {
      "midi": 65,
      "hit": false,
      "t": 314962.5000000022,
      "d": 487.5000000001164,
      "v": 62
    },
    {
      "midi": 74,
      "hit": false,
      "t": 314966.6666666689,
      "d": 395.83333333343035,
      "v": 39
    },
    {
      "midi": 58,
      "hit": false,
      "t": 314975.0000000022,
      "d": 383.33333333343035,
      "v": 33
    },
    {
      "midi": 54,
      "hit": false,
      "t": 314991.6666666689,
      "d": 395.83333333343035,
      "v": 29
    },
    {
      "midi": 71,
      "hit": false,
      "t": 316483.33333333564,
      "d": 404.16666666668607,
      "v": 68
    },
    {
      "midi": 68,
      "hit": false,
      "t": 316483.33333333564,
      "d": 504.16666666668607,
      "v": 46
    },
    {
      "midi": 64,
      "hit": false,
      "t": 316487.5000000023,
      "d": 404.16666666668607,
      "v": 76
    },
    {
      "midi": 59,
      "hit": false,
      "t": 316508.33333333564,
      "d": 270.83333333337214,
      "v": 54
    },
    {
      "midi": 44,
      "hit": false,
      "t": 316508.33333333564,
      "d": 358.33333333337214,
      "v": 74
    },
    {
      "midi": 60,
      "hit": false,
      "t": 316508.33333333564,
      "d": 379.16666666668607,
      "v": 53
    },
    {
      "midi": 65,
      "hit": false,
      "t": 317283.33333333564,
      "d": 387.5,
      "v": 80
    },
    {
      "midi": 45,
      "hit": false,
      "t": 317283.33333333564,
      "d": 391.66666666668607,
      "v": 67
    },
    {
      "midi": 72,
      "hit": false,
      "t": 317283.33333333564,
      "d": 391.66666666668607,
      "v": 65
    },
    {
      "midi": 69,
      "hit": false,
      "t": 317287.5000000023,
      "d": 370.83333333331393,
      "v": 60
    },
    {
      "midi": 60,
      "hit": false,
      "t": 317295.83333333564,
      "d": 370.83333333331393,
      "v": 71
    },
    {
      "midi": 55,
      "hit": false,
      "t": 317295.83333333564,
      "d": 508.33333333337214,
      "v": 66
    },
    {
      "midi": 73,
      "hit": false,
      "t": 318000.0000000023,
      "d": 520.8333333333139,
      "v": 60
    },
    {
      "midi": 46,
      "hit": false,
      "t": 318004.166666669,
      "d": 450,
      "v": 80
    },
    {
      "midi": 61,
      "hit": false,
      "t": 318004.166666669,
      "d": 462.5,
      "v": 84
    },
    {
      "midi": 66,
      "hit": false,
      "t": 318004.166666669,
      "d": 487.5,
      "v": 76
    },
    {
      "midi": 56,
      "hit": false,
      "t": 318008.3333333357,
      "d": 454.16666666662786,
      "v": 79
    },
    {
      "midi": 70,
      "hit": false,
      "t": 318008.3333333357,
      "d": 491.66666666662786,
      "v": 67
    },
    {
      "midi": 74,
      "hit": false,
      "t": 318770.83333333564,
      "d": 729.1666666667443,
      "v": 69
    },
    {
      "midi": 67,
      "hit": false,
      "t": 318775.0000000023,
      "d": 683.3333333333721,
      "v": 78
    },
    {
      "midi": 71,
      "hit": false,
      "t": 318775.0000000023,
      "d": 725.0000000000582,
      "v": 69
    },
    {
      "midi": 47,
      "hit": false,
      "t": 318779.166666669,
      "d": 666.6666666666861,
      "v": 74
    },
    {
      "midi": 62,
      "hit": false,
      "t": 318779.166666669,
      "d": 666.6666666666861,
      "v": 81
    },
    {
      "midi": 57,
      "hit": false,
      "t": 318779.166666669,
      "d": 754.1666666666861,
      "v": 79
    },
    {
      "midi": 72,
      "hit": false,
      "t": 318804.166666669,
      "d": 704.1666666666861,
      "v": 49
    },
    {
      "midi": 75,
      "hit": false,
      "t": 319975.0000000024,
      "d": 520.8333333333721,
      "v": 57
    },
    {
      "midi": 72,
      "hit": false,
      "t": 319983.3333333357,
      "d": 441.6666666667443,
      "v": 55
    },
    {
      "midi": 58,
      "hit": false,
      "t": 319983.3333333357,
      "d": 562.5000000000582,
      "v": 46
    },
    {
      "midi": 68,
      "hit": false,
      "t": 319987.5000000024,
      "d": 604.1666666666861,
      "v": 50
    },
    {
      "midi": 48,
      "hit": false,
      "t": 319991.6666666691,
      "d": 391.66666666668607,
      "v": 52
    },
    {
      "midi": 64,
      "hit": false,
      "t": 319995.83333333576,
      "d": 479.16666666668607,
      "v": 51
    },
    {
      "midi": 76,
      "hit": false,
      "t": 320954.1666666691,
      "d": 504.16666666656965,
      "v": 32
    },
    {
      "midi": 64,
      "hit": false,
      "t": 320958.33333333576,
      "d": 383.3333333332557,
      "v": 33
    },
    {
      "midi": 68,
      "hit": false,
      "t": 320958.33333333576,
      "d": 395.8333333332557,
      "v": 36
    },
    {
      "midi": 71,
      "hit": false,
      "t": 320966.6666666691,
      "d": 420.8333333332557,
      "v": 36
    },
    {
      "midi": 59,
      "hit": false,
      "t": 320975.0000000024,
      "d": 295.83333333331393,
      "v": 43
    },
    {
      "midi": 49,
      "hit": false,
      "t": 320987.5000000024,
      "d": 262.5,
      "v": 35
    },
    {
      "midi": 63,
      "hit": false,
      "t": 321941.666666669,
      "d": 425,
      "v": 42
    },
    {
      "midi": 77,
      "hit": false,
      "t": 321941.666666669,
      "d": 450,
      "v": 51
    },
    {
      "midi": 72,
      "hit": false,
      "t": 321950.0000000023,
      "d": 408.33333333337214,
      "v": 54
    },
    {
      "midi": 65,
      "hit": false,
      "t": 321954.166666669,
      "d": 329.16666666668607,
      "v": 44
    },
    {
      "midi": 53,
      "hit": false,
      "t": 321962.5000000023,
      "d": 308.33333333337214,
      "v": 35
    },
    {
      "midi": 58,
      "hit": false,
      "t": 321979.166666669,
      "d": 370.83333333337214,
      "v": 33
    },
    {
      "midi": 61,
      "hit": false,
      "t": 322966.666666669,
      "d": 441.6666666667443,
      "v": 36
    },
    {
      "midi": 65,
      "hit": false,
      "t": 322975.0000000023,
      "d": 345.83333333337214,
      "v": 53
    },
    {
      "midi": 80,
      "hit": false,
      "t": 322975.0000000023,
      "d": 375.0000000000582,
      "v": 52
    },
    {
      "midi": 75,
      "hit": false,
      "t": 322987.5000000023,
      "d": 295.83333333337214,
      "v": 50
    },
    {
      "midi": 58,
      "hit": false,
      "t": 322991.666666669,
      "d": 412.5000000000582,
      "v": 44
    },
    {
      "midi": 68,
      "hit": false,
      "t": 322995.8333333357,
      "d": 212.5,
      "v": 31
    },
    {
      "midi": 54,
      "hit": false,
      "t": 322995.8333333357,
      "d": 437.5000000000582,
      "v": 32
    },
    {
      "midi": 77,
      "hit": false,
      "t": 323525.00000000244,
      "d": 479.16666666668607,
      "v": 85
    },
    {
      "midi": 96,
      "hit": false,
      "t": 323987.50000000244,
      "d": 883.3333333333721,
      "v": 49
    },
    {
      "midi": 84,
      "hit": false,
      "t": 323991.66666666913,
      "d": 829.1666666666861,
      "v": 33
    },
    {
      "midi": 89,
      "hit": false,
      "t": 324004.16666666913,
      "d": 841.6666666666861,
      "v": 31
    },
    {
      "midi": 72,
      "hit": false,
      "t": 324029.16666666913,
      "d": 1662.5,
      "v": 58
    },
    {
      "midi": 63,
      "hit": false,
      "t": 324033.3333333358,
      "d": 804.1666666666861,
      "v": 20
    },
    {
      "midi": 60,
      "hit": false,
      "t": 324041.66666666913,
      "d": 737.5,
      "v": 38
    },
    {
      "midi": 58,
      "hit": false,
      "t": 324045.8333333358,
      "d": 812.5,
      "v": 37
    },
    {
      "midi": 53,
      "hit": false,
      "t": 324045.8333333358,
      "d": 1100,
      "v": 30
    },
    {
      "midi": 63,
      "hit": false,
      "t": 325070.8333333358,
      "d": 125,
      "v": 34
    },
    {
      "midi": 60,
      "hit": false,
      "t": 325100.0000000025,
      "d": 87.5,
      "v": 38
    },
    {
      "midi": 58,
      "hit": false,
      "t": 325100.0000000025,
      "d": 116.66666666662786,
      "v": 15
    },
    {
      "midi": 68,
      "hit": false,
      "t": 325800.00000000244,
      "d": 125,
      "v": 86
    },
    {
      "midi": 68,
      "hit": false,
      "t": 325962.50000000244,
      "d": 75,
      "v": 70
    },
    {
      "midi": 70,
      "hit": false,
      "t": 325970.83333333576,
      "d": 191.66666666674428,
      "v": 90
    },
    {
      "midi": 59,
      "hit": false,
      "t": 326150.00000000244,
      "d": 779.1666666668025,
      "v": 67
    },
    {
      "midi": 54,
      "hit": false,
      "t": 326150.00000000244,
      "d": 1695.8333333334886,
      "v": 68
    },
    {
      "midi": 64,
      "hit": false,
      "t": 326154.16666666913,
      "d": 775.0000000001164,
      "v": 71
    },
    {
      "midi": 71,
      "hit": false,
      "t": 326158.3333333358,
      "d": 304.16666666668607,
      "v": 89
    },
    {
      "midi": 76,
      "hit": false,
      "t": 326479.1666666692,
      "d": 216.66666666668607,
      "v": 77
    },
    {
      "midi": 76,
      "hit": false,
      "t": 326800.00000000256,
      "d": 245.83333333337214,
      "v": 75
    },
    {
      "midi": 59,
      "hit": false,
      "t": 327162.5000000026,
      "d": 554.1666666666279,
      "v": 45
    },
    {
      "midi": 64,
      "hit": false,
      "t": 327162.5000000026,
      "d": 554.1666666666279,
      "v": 38
    },
    {
      "midi": 76,
      "hit": false,
      "t": 327166.6666666693,
      "d": 283.33333333331393,
      "v": 65
    },
    {
      "midi": 76,
      "hit": false,
      "t": 327583.33333333593,
      "d": 200,
      "v": 64
    },
    {
      "midi": 69,
      "hit": false,
      "t": 327862.5000000026,
      "d": 95.83333333331393,
      "v": 62
    },
    {
      "midi": 69,
      "hit": false,
      "t": 328054.16666666925,
      "d": 133.33333333337214,
      "v": 47
    },
    {
      "midi": 63,
      "hit": false,
      "t": 328229.1666666693,
      "d": 525,
      "v": 25
    },
    {
      "midi": 60,
      "hit": false,
      "t": 328237.5000000026,
      "d": 575,
      "v": 36
    },
    {
      "midi": 68,
      "hit": false,
      "t": 328254.1666666693,
      "d": 737.5,
      "v": 50
    },
    {
      "midi": 56,
      "hit": false,
      "t": 328258.333333336,
      "d": 604.1666666666279,
      "v": 28
    },
    {
      "midi": 53,
      "hit": false,
      "t": 328295.833333336,
      "d": 1124.9999999999418,
      "v": 24
    },
    {
      "midi": 63,
      "hit": false,
      "t": 329162.5000000026,
      "d": 229.16666666662786,
      "v": 32
    },
    {
      "midi": 60,
      "hit": false,
      "t": 329170.83333333593,
      "d": 195.83333333331393,
      "v": 41
    },
    {
      "midi": 56,
      "hit": false,
      "t": 329179.16666666925,
      "d": 241.66666666668607,
      "v": 34
    },
    {
      "midi": 60,
      "hit": false,
      "t": 329887.5000000026,
      "d": 150.0000000000582,
      "v": 70
    },
    {
      "midi": 53,
      "hit": false,
      "t": 329891.6666666693,
      "d": 120.83333333337214,
      "v": 67
    },
    {
      "midi": 63,
      "hit": false,
      "t": 329895.833333336,
      "d": 183.33333333331393,
      "v": 71
    },
    {
      "midi": 70,
      "hit": false,
      "t": 329900.0000000027,
      "d": 170.83333333331393,
      "v": 98
    },
    {
      "midi": 82,
      "hit": false,
      "t": 329900.0000000027,
      "d": 200,
      "v": 90
    },
    {
      "midi": 75,
      "hit": false,
      "t": 329904.16666666936,
      "d": 133.33333333331393,
      "v": 90
    },
    {
      "midi": 80,
      "hit": false,
      "t": 329941.66666666936,
      "d": 141.66666666662786,
      "v": 23
    },
    {
      "midi": 54,
      "hit": false,
      "t": 330183.333333336,
      "d": 441.66666666668607,
      "v": 79
    },
    {
      "midi": 64,
      "hit": false,
      "t": 330187.5000000027,
      "d": 408.33333333331393,
      "v": 79
    },
    {
      "midi": 59,
      "hit": false,
      "t": 330195.833333336,
      "d": 366.66666666668607,
      "v": 66
    },
    {
      "midi": 76,
      "hit": false,
      "t": 330200.0000000027,
      "d": 287.5,
      "v": 75
    },
    {
      "midi": 83,
      "hit": false,
      "t": 330200.0000000027,
      "d": 337.5,
      "v": 77
    },
    {
      "midi": 80,
      "hit": false,
      "t": 330200.0000000027,
      "d": 341.66666666668607,
      "v": 25
    },
    {
      "midi": 71,
      "hit": false,
      "t": 330204.16666666936,
      "d": 254.16666666662786,
      "v": 83
    },
    {
      "midi": 81,
      "hit": false,
      "t": 330237.5000000027,
      "d": 33.33333333331393,
      "v": 48
    },
    {
      "midi": 64,
      "hit": false,
      "t": 331429.1666666693,
      "d": 37.5,
      "v": 47
    },
    {
      "midi": 59,
      "hit": false,
      "t": 331445.833333336,
      "d": 45.83333333331393,
      "v": 42
    },
    {
      "midi": 54,
      "hit": false,
      "t": 331445.833333336,
      "d": 70.83333333325572,
      "v": 23
    },
    {
      "midi": 88,
      "hit": false,
      "t": 331454.1666666693,
      "d": 33.33333333331393,
      "v": 62
    },
    {
      "midi": 76,
      "hit": false,
      "t": 331462.5000000026,
      "d": 45.83333333331393,
      "v": 36
    },
    {
      "midi": 83,
      "hit": false,
      "t": 331466.6666666693,
      "d": 33.33333333331393,
      "v": 44
    },
    {
      "midi": 71,
      "hit": false,
      "t": 331795.83333333593,
      "d": 208.33333333331393,
      "v": 64
    },
    {
      "midi": 78,
      "hit": false,
      "t": 331800.0000000026,
      "d": 220.83333333331393,
      "v": 51
    },
    {
      "midi": 64,
      "hit": false,
      "t": 331804.1666666693,
      "d": 137.5,
      "v": 47
    },
    {
      "midi": 83,
      "hit": false,
      "t": 331804.1666666693,
      "d": 204.16666666662786,
      "v": 43
    },
    {
      "midi": 54,
      "hit": false,
      "t": 331808.333333336,
      "d": 212.4999999999418,
      "v": 37
    },
    {
      "midi": 59,
      "hit": false,
      "t": 331816.6666666693,
      "d": 145.83333333331393,
      "v": 35
    },
    {
      "midi": 79,
      "hit": false,
      "t": 331983.33333333593,
      "d": 125,
      "v": 55
    },
    {
      "midi": 70,
      "hit": false,
      "t": 332183.33333333593,
      "d": 558.3333333333721,
      "v": 54
    },
    {
      "midi": 60,
      "hit": false,
      "t": 332183.33333333593,
      "d": 570.8333333333721,
      "v": 35
    },
    {
      "midi": 82,
      "hit": false,
      "t": 332191.66666666925,
      "d": 566.6666666667443,
      "v": 47
    },
    {
      "midi": 63,
      "hit": false,
      "t": 332195.83333333593,
      "d": 404.16666666668607,
      "v": 21
    },
    {
      "midi": 58,
      "hit": false,
      "t": 332200.0000000026,
      "d": 541.6666666666861,
      "v": 47
    },
    {
      "midi": 77,
      "hit": false,
      "t": 332220.83333333593,
      "d": 558.3333333333721,
      "v": 37
    },
    {
      "midi": 53,
      "hit": false,
      "t": 332250.0000000026,
      "d": 787.5,
      "v": 32
    },
    {
      "midi": 53,
      "hit": false,
      "t": 333100.0000000026,
      "d": 129.16666666668607,
      "v": 28
    },
    {
      "midi": 56,
      "hit": false,
      "t": 333429.1666666693,
      "d": 216.66666666668607,
      "v": 69
    },
    {
      "midi": 61,
      "hit": false,
      "t": 333716.6666666693,
      "d": 125,
      "v": 48
    },
    {
      "midi": 65,
      "hit": false,
      "t": 333895.833333336,
      "d": 95.83333333331393,
      "v": 64
    },
    {
      "midi": 58,
      "hit": false,
      "t": 334125.0000000027,
      "d": 708.3333333333721,
      "v": 71
    },
    {
      "midi": 68,
      "hit": false,
      "t": 334129.16666666936,
      "d": 75,
      "v": 57
    },
    {
      "midi": 61,
      "hit": false,
      "t": 334150.0000000027,
      "d": 783.3333333333721,
      "v": 56
    },
    {
      "midi": 65,
      "hit": false,
      "t": 334170.833333336,
      "d": 37.50000000005821,
      "v": 39
    },
    {
      "midi": 64,
      "hit": false,
      "t": 334175.0000000027,
      "d": 637.5000000000582,
      "v": 43
    },
    {
      "midi": 66,
      "hit": false,
      "t": 334316.66666666936,
      "d": 641.6666666666861,
      "v": 8
    },
    {
      "midi": 56,
      "hit": false,
      "t": 334545.83333333605,
      "d": 275,
      "v": 62
    },
    {
      "midi": 68,
      "hit": false,
      "t": 335066.66666666936,
      "d": 616.6666666666861,
      "v": 78
    },
    {
      "midi": 61,
      "hit": false,
      "t": 335075.0000000027,
      "d": 600,
      "v": 83
    },
    {
      "midi": 63,
      "hit": false,
      "t": 335075.0000000027,
      "d": 604.1666666666861,
      "v": 74
    },
    {
      "midi": 57,
      "hit": false,
      "t": 335083.333333336,
      "d": 545.8333333333721,
      "v": 85
    },
    {
      "midi": 56,
      "hit": false,
      "t": 335100.0000000027,
      "d": 479.16666666668607,
      "v": 81
    },
    {
      "midi": 54,
      "hit": false,
      "t": 335566.66666666936,
      "d": 112.5,
      "v": 70
    },
    {
      "midi": 70,
      "hit": false,
      "t": 336116.6666666694,
      "d": 254.16666666668607,
      "v": 74
    },
    {
      "midi": 63,
      "hit": false,
      "t": 336116.6666666694,
      "d": 308.33333333337214,
      "v": 81
    },
    {
      "midi": 56,
      "hit": false,
      "t": 336120.8333333361,
      "d": 266.66666666668607,
      "v": 83
    },
    {
      "midi": 41,
      "hit": false,
      "t": 336120.8333333361,
      "d": 766.6666666666279,
      "v": 89
    },
    {
      "midi": 68,
      "hit": false,
      "t": 336145.8333333361,
      "d": 258.33333333337214,
      "v": 36
    },
    {
      "midi": 48,
      "hit": false,
      "t": 336433.3333333361,
      "d": 500,
      "v": 78
    },
    {
      "midi": 55,
      "hit": false,
      "t": 336641.6666666694,
      "d": 170.83333333331393,
      "v": 78
    },
    {
      "midi": 56,
      "hit": false,
      "t": 336791.6666666694,
      "d": 158.33333333337214,
      "v": 78
    },
    {
      "midi": 58,
      "hit": false,
      "t": 336929.1666666694,
      "d": 83.33333333337214,
      "v": 74
    },
    {
      "midi": 60,
      "hit": false,
      "t": 337033.3333333361,
      "d": 145.83333333337214,
      "v": 80
    },
    {
      "midi": 62,
      "hit": false,
      "t": 337150.0000000028,
      "d": 145.83333333337214,
      "v": 72
    },
    {
      "midi": 63,
      "hit": false,
      "t": 337279.1666666695,
      "d": 70.83333333337214,
      "v": 60
    },
    {
      "midi": 65,
      "hit": false,
      "t": 337387.50000000285,
      "d": 137.5,
      "v": 72
    },
    {
      "midi": 67,
      "hit": false,
      "t": 337491.66666666954,
      "d": 116.66666666662786,
      "v": 75
    },
    {
      "midi": 68,
      "hit": false,
      "t": 337562.50000000285,
      "d": 87.5,
      "v": 75
    },
    {
      "midi": 70,
      "hit": false,
      "t": 337633.33333333617,
      "d": 58.33333333337214,
      "v": 79
    },
    {
      "midi": 72,
      "hit": false,
      "t": 337737.50000000285,
      "d": 91.66666666668607,
      "v": 83
    },
    {
      "midi": 73,
      "hit": false,
      "t": 337812.50000000285,
      "d": 33.33333333337214,
      "v": 31
    },
    {
      "midi": 74,
      "hit": false,
      "t": 337841.66666666954,
      "d": 116.66666666668607,
      "v": 89
    },
    {
      "midi": 75,
      "hit": false,
      "t": 337937.5000000029,
      "d": 74.99999999994179,
      "v": 96
    },
    {
      "midi": 76,
      "hit": false,
      "t": 338004.16666666954,
      "d": 137.5,
      "v": 100
    },
    {
      "midi": 62,
      "hit": false,
      "t": 338095.83333333617,
      "d": 1470.8333333333721,
      "v": 58
    },
    {
      "midi": 67,
      "hit": false,
      "t": 338100.00000000285,
      "d": 841.6666666666861,
      "v": 71
    },
    {
      "midi": 56,
      "hit": false,
      "t": 338104.16666666954,
      "d": 1400,
      "v": 57
    },
    {
      "midi": 77,
      "hit": false,
      "t": 338112.50000000285,
      "d": 529.1666666666861,
      "v": 80
    },
    {
      "midi": 74,
      "hit": false,
      "t": 338575.00000000285,
      "d": 125,
      "v": 71
    },
    {
      "midi": 82,
      "hit": false,
      "t": 339112.50000000285,
      "d": 462.5,
      "v": 64
    },
    {
      "midi": 66,
      "hit": false,
      "t": 339129.16666666954,
      "d": 362.5,
      "v": 52
    },
    {
      "midi": 73,
      "hit": false,
      "t": 339129.16666666954,
      "d": 370.83333333331393,
      "v": 50
    },
    {
      "midi": 73,
      "hit": false,
      "t": 339608.33333333617,
      "d": 179.16666666668607,
      "v": 35
    },
    {
      "midi": 78,
      "hit": false,
      "t": 339612.50000000285,
      "d": 412.5,
      "v": 49
    },
    {
      "midi": 62,
      "hit": false,
      "t": 339633.33333333617,
      "d": 137.5,
      "v": 18
    },
    {
      "midi": 56,
      "hit": false,
      "t": 339633.33333333617,
      "d": 212.5,
      "v": 37
    },
    {
      "midi": 69,
      "hit": false,
      "t": 340154.16666666954,
      "d": 733.3333333333721,
      "v": 53
    },
    {
      "midi": 73,
      "hit": false,
      "t": 340162.50000000285,
      "d": 783.3333333334303,
      "v": 34
    },
    {
      "midi": 68,
      "hit": false,
      "t": 340175.00000000285,
      "d": 787.5000000001164,
      "v": 38
    },
    {
      "midi": 80,
      "hit": false,
      "t": 340620.8333333362,
      "d": 320.83333333337214,
      "v": 57
    },
    {
      "midi": 73,
      "hit": false,
      "t": 341112.50000000297,
      "d": 683.3333333333139,
      "v": 29
    },
    {
      "midi": 80,
      "hit": false,
      "t": 341120.8333333363,
      "d": 275,
      "v": 33
    },
    {
      "midi": 69,
      "hit": false,
      "t": 341125.00000000297,
      "d": 304.16666666662786,
      "v": 50
    },
    {
      "midi": 76,
      "hit": false,
      "t": 341125.00000000297,
      "d": 329.16666666662786,
      "v": 34
    },
    {
      "midi": 68,
      "hit": false,
      "t": 341145.8333333363,
      "d": 204.16666666668607,
      "v": 35
    },
    {
      "midi": 80,
      "hit": false,
      "t": 341525.0000000029,
      "d": 225.0000000000582,
      "v": 57
    },
    {
      "midi": 69,
      "hit": false,
      "t": 341579.1666666696,
      "d": 79.16666666668607,
      "v": 15
    },
    {
      "midi": 78,
      "hit": false,
      "t": 341816.6666666696,
      "d": 183.33333333331393,
      "v": 45
    },
    {
      "midi": 80,
      "hit": false,
      "t": 342108.3333333362,
      "d": 133.33333333337214,
      "v": 60
    },
    {
      "midi": 69,
      "hit": false,
      "t": 342129.1666666696,
      "d": 70.83333333337214,
      "v": 42
    },
    {
      "midi": 75,
      "hit": false,
      "t": 342129.1666666696,
      "d": 95.83333333337214,
      "v": 39
    },
    {
      "midi": 73,
      "hit": false,
      "t": 342133.3333333363,
      "d": 91.66666666668607,
      "v": 25
    },
    {
      "midi": 68,
      "hit": false,
      "t": 342133.3333333363,
      "d": 100,
      "v": 35
    },
    {
      "midi": 80,
      "hit": false,
      "t": 342425.0000000029,
      "d": 154.16666666662786,
      "v": 37
    },
    {
      "midi": 78,
      "hit": false,
      "t": 342450.0000000029,
      "d": 170.83333333331393,
      "v": 52
    },
    {
      "midi": 68,
      "hit": false,
      "t": 342470.8333333362,
      "d": 125,
      "v": 50
    },
    {
      "midi": 73,
      "hit": false,
      "t": 342475.0000000029,
      "d": 129.16666666662786,
      "v": 26
    },
    {
      "midi": 69,
      "hit": false,
      "t": 342479.1666666696,
      "d": 91.66666666662786,
      "v": 35
    },
    {
      "midi": 75,
      "hit": false,
      "t": 342487.5000000029,
      "d": 108.33333333331393,
      "v": 35
    },
    {
      "midi": 80,
      "hit": false,
      "t": 342766.66666666954,
      "d": 170.83333333331393,
      "v": 40
    },
    {
      "midi": 78,
      "hit": false,
      "t": 342800.00000000285,
      "d": 187.5,
      "v": 42
    },
    {
      "midi": 75,
      "hit": false,
      "t": 342829.16666666954,
      "d": 120.83333333331393,
      "v": 37
    },
    {
      "midi": 68,
      "hit": false,
      "t": 342829.16666666954,
      "d": 129.16666666662786,
      "v": 44
    },
    {
      "midi": 73,
      "hit": false,
      "t": 342829.16666666954,
      "d": 133.33333333331393,
      "v": 27
    },
    {
      "midi": 69,
      "hit": false,
      "t": 342837.50000000285,
      "d": 87.5,
      "v": 34
    },
    {
      "midi": 66,
      "hit": false,
      "t": 342845.83333333617,
      "d": 50,
      "v": 20
    },
    {
      "midi": 80,
      "hit": false,
      "t": 343112.50000000285,
      "d": 145.83333333343035,
      "v": 37
    },
    {
      "midi": 66,
      "hit": false,
      "t": 343129.16666666954,
      "d": 112.50000000005821,
      "v": 28
    },
    {
      "midi": 78,
      "hit": false,
      "t": 343137.50000000285,
      "d": 183.33333333337214,
      "v": 40
    },
    {
      "midi": 68,
      "hit": false,
      "t": 343162.50000000285,
      "d": 125.00000000005821,
      "v": 40
    },
    {
      "midi": 75,
      "hit": false,
      "t": 343166.66666666954,
      "d": 120.83333333337214,
      "v": 35
    },
    {
      "midi": 73,
      "hit": false,
      "t": 343170.8333333362,
      "d": 129.16666666668607,
      "v": 25
    },
    {
      "midi": 69,
      "hit": false,
      "t": 343175.0000000029,
      "d": 91.66666666668607,
      "v": 36
    },
    {
      "midi": 80,
      "hit": false,
      "t": 343450.0000000029,
      "d": 129.16666666668607,
      "v": 34
    },
    {
      "midi": 66,
      "hit": false,
      "t": 343466.6666666696,
      "d": 112.5,
      "v": 17
    },
    {
      "midi": 78,
      "hit": false,
      "t": 343475.0000000029,
      "d": 158.33333333337214,
      "v": 38
    },
    {
      "midi": 75,
      "hit": false,
      "t": 343500.0000000029,
      "d": 129.16666666668607,
      "v": 37
    },
    {
      "midi": 73,
      "hit": false,
      "t": 343504.1666666696,
      "d": 150,
      "v": 25
    },
    {
      "midi": 68,
      "hit": false,
      "t": 343508.3333333363,
      "d": 62.5,
      "v": 39
    },
    {
      "midi": 77,
      "hit": false,
      "t": 344283.3333333363,
      "d": 208.33333333337214,
      "v": 68
    },
    {
      "midi": 72,
      "hit": false,
      "t": 344308.3333333363,
      "d": 170.83333333337214,
      "v": 61
    },
    {
      "midi": 76,
      "hit": false,
      "t": 344325.00000000297,
      "d": 129.16666666668607,
      "v": 30
    },
    {
      "midi": 69,
      "hit": false,
      "t": 344329.16666666965,
      "d": 116.66666666668607,
      "v": 54
    },
    {
      "midi": 66,
      "hit": false,
      "t": 344341.66666666965,
      "d": 62.50000000005821,
      "v": 32
    },
    {
      "midi": 55,
      "hit": false,
      "t": 344341.66666666965,
      "d": 70.83333333337214,
      "v": 40
    },
    {
      "midi": 61,
      "hit": false,
      "t": 344345.83333333634,
      "d": 120.83333333331393,
      "v": 34
    },
    {
      "midi": 65,
      "hit": false,
      "t": 344375.000000003,
      "d": 50,
      "v": 49
    },
    {
      "midi": 77,
      "hit": false,
      "t": 344575.00000000297,
      "d": 191.66666666674428,
      "v": 69
    },
    {
      "midi": 69,
      "hit": false,
      "t": 344612.50000000297,
      "d": 133.33333333337214,
      "v": 55
    },
    {
      "midi": 72,
      "hit": false,
      "t": 344612.50000000297,
      "d": 170.83333333343035,
      "v": 33
    },
    {
      "midi": 61,
      "hit": false,
      "t": 344616.66666666965,
      "d": 133.33333333337214,
      "v": 42
    },
    {
      "midi": 66,
      "hit": false,
      "t": 344620.83333333634,
      "d": 66.66666666668607,
      "v": 34
    },
    {
      "midi": 55,
      "hit": false,
      "t": 344620.83333333634,
      "d": 91.66666666668607,
      "v": 55
    },
    {
      "midi": 65,
      "hit": false,
      "t": 344645.83333333634,
      "d": 104.16666666668607,
      "v": 55
    },
    {
      "midi": 77,
      "hit": false,
      "t": 344862.5000000031,
      "d": 225.0000000000582,
      "v": 43
    },
    {
      "midi": 72,
      "hit": false,
      "t": 344925.0000000031,
      "d": 166.66666666674428,
      "v": 24
    },
    {
      "midi": 69,
      "hit": false,
      "t": 344929.1666666698,
      "d": 120.83333333337214,
      "v": 33
    },
    {
      "midi": 66,
      "hit": false,
      "t": 344933.33333333646,
      "d": 79.16666666668607,
      "v": 28
    },
    {
      "midi": 61,
      "hit": false,
      "t": 344937.50000000314,
      "d": 125,
      "v": 35
    },
    {
      "midi": 55,
      "hit": false,
      "t": 344945.83333333646,
      "d": 66.66666666668607,
      "v": 35
    },
    {
      "midi": 65,
      "hit": false,
      "t": 344950.00000000314,
      "d": 104.16666666668607,
      "v": 48
    },
    {
      "midi": 66,
      "hit": false,
      "t": 346000.0000000032,
      "d": 70.83333333337214,
      "v": 38
    },
    {
      "midi": 61,
      "hit": false,
      "t": 346004.1666666699,
      "d": 129.16666666668607,
      "v": 44
    },
    {
      "midi": 55,
      "hit": false,
      "t": 346008.3333333366,
      "d": 41.66666666668607,
      "v": 37
    },
    {
      "midi": 75,
      "hit": false,
      "t": 346008.3333333366,
      "d": 125,
      "v": 59
    },
    {
      "midi": 77,
      "hit": false,
      "t": 346204.16666666995,
      "d": 108.33333333337214,
      "v": 64
    },
    {
      "midi": 66,
      "hit": false,
      "t": 346212.50000000326,
      "d": 45.83333333337214,
      "v": 33
    },
    {
      "midi": 65,
      "hit": false,
      "t": 346212.50000000326,
      "d": 70.83333333337214,
      "v": 66
    },
    {
      "midi": 70,
      "hit": false,
      "t": 346212.50000000326,
      "d": 75.00000000005821,
      "v": 51
    },
    {
      "midi": 73,
      "hit": false,
      "t": 346216.66666666995,
      "d": 79.16666666668607,
      "v": 31
    },
    {
      "midi": 58,
      "hit": false,
      "t": 346220.83333333663,
      "d": 141.66666666668607,
      "v": 36
    },
    {
      "midi": 60,
      "hit": false,
      "t": 346225.0000000033,
      "d": 87.5,
      "v": 57
    },
    {
      "midi": 54,
      "hit": false,
      "t": 346245.83333333663,
      "d": 91.66666666668607,
      "v": 33
    },
    {
      "midi": 66,
      "hit": false,
      "t": 346529.16666667,
      "d": 58.33333333337214,
      "v": 57
    },
    {
      "midi": 77,
      "hit": false,
      "t": 346529.16666667,
      "d": 87.50000000005821,
      "v": 53
    },
    {
      "midi": 70,
      "hit": false,
      "t": 346533.3333333367,
      "d": 50,
      "v": 56
    },
    {
      "midi": 65,
      "hit": false,
      "t": 346537.5000000034,
      "d": 62.5,
      "v": 58
    },
    {
      "midi": 73,
      "hit": false,
      "t": 346541.66666667006,
      "d": 45.83333333331393,
      "v": 31
    },
    {
      "midi": 60,
      "hit": false,
      "t": 346550.0000000034,
      "d": 50,
      "v": 51
    },
    {
      "midi": 54,
      "hit": false,
      "t": 346550.0000000034,
      "d": 87.5,
      "v": 32
    },
    {
      "midi": 58,
      "hit": false,
      "t": 346562.5000000034,
      "d": 79.16666666668607,
      "v": 32
    },
    {
      "midi": 66,
      "hit": false,
      "t": 346879.16666667006,
      "d": 41.66666666662786,
      "v": 59
    },
    {
      "midi": 65,
      "hit": false,
      "t": 346879.16666667006,
      "d": 70.83333333331393,
      "v": 44
    },
    {
      "midi": 77,
      "hit": false,
      "t": 346879.16666667006,
      "d": 87.5,
      "v": 63
    },
    {
      "midi": 70,
      "hit": false,
      "t": 346891.66666667006,
      "d": 33.33333333331393,
      "v": 46
    },
    {
      "midi": 60,
      "hit": false,
      "t": 346891.66666667006,
      "d": 54.16666666662786,
      "v": 38
    },
    {
      "midi": 58,
      "hit": false,
      "t": 346900.0000000034,
      "d": 95.83333333337214,
      "v": 33
    },
    {
      "midi": 54,
      "hit": false,
      "t": 346912.5000000034,
      "d": 83.33333333337214,
      "v": 17
    },
    {
      "midi": 66,
      "hit": false,
      "t": 347220.83333333675,
      "d": 541.6666666666861,
      "v": 48
    },
    {
      "midi": 77,
      "hit": false,
      "t": 347225.00000000343,
      "d": 308.33333333331393,
      "v": 49
    },
    {
      "midi": 70,
      "hit": false,
      "t": 347225.00000000343,
      "d": 545.8333333333139,
      "v": 50
    },
    {
      "midi": 65,
      "hit": false,
      "t": 347237.50000000343,
      "d": 487.5,
      "v": 35
    },
    {
      "midi": 54,
      "hit": false,
      "t": 347237.50000000343,
      "d": 666.6666666666861,
      "v": 27
    },
    {
      "midi": 73,
      "hit": false,
      "t": 347241.6666666701,
      "d": 320.83333333331393,
      "v": 27
    },
    {
      "midi": 60,
      "hit": false,
      "t": 347245.8333333368,
      "d": 591.6666666666279,
      "v": 43
    },
    {
      "midi": 58,
      "hit": false,
      "t": 347254.1666666701,
      "d": 612.5,
      "v": 35
    },
    {
      "midi": 72,
      "hit": false,
      "t": 347904.1666666701,
      "d": 125,
      "v": 65
    },
    {
      "midi": 75,
      "hit": false,
      "t": 348116.6666666701,
      "d": 1054.1666666666279,
      "v": 69
    },
    {
      "midi": 72,
      "hit": false,
      "t": 348120.8333333368,
      "d": 1066.6666666666279,
      "v": 48
    },
    {
      "midi": 68,
      "hit": false,
      "t": 348120.8333333368,
      "d": 1170.833333333314,
      "v": 56
    },
    {
      "midi": 60,
      "hit": false,
      "t": 348125.0000000035,
      "d": 666.6666666666279,
      "v": 50
    },
    {
      "midi": 65,
      "hit": false,
      "t": 348125.0000000035,
      "d": 1062.4999999999418,
      "v": 64
    },
    {
      "midi": 63,
      "hit": false,
      "t": 348133.3333333368,
      "d": 387.5,
      "v": 50
    },
    {
      "midi": 53,
      "hit": false,
      "t": 348145.8333333368,
      "d": 1379.1666666665697,
      "v": 40
    },
    {
      "midi": 58,
      "hit": false,
      "t": 348150.0000000035,
      "d": 649.9999999999418,
      "v": 34
    },
    {
      "midi": 63,
      "hit": false,
      "t": 349125.00000000343,
      "d": 225,
      "v": 45
    },
    {
      "midi": 60,
      "hit": false,
      "t": 349133.33333333675,
      "d": 337.5,
      "v": 55
    },
    {
      "midi": 58,
      "hit": false,
      "t": 349133.33333333675,
      "d": 383.33333333331393,
      "v": 38
    },
    {
      "midi": 75,
      "hit": false,
      "t": 349470.83333333675,
      "d": 195.83333333331393,
      "v": 82
    },
    {
      "midi": 68,
      "hit": false,
      "t": 349491.66666667006,
      "d": 83.33333333331393,
      "v": 52
    },
    {
      "midi": 65,
      "hit": false,
      "t": 349504.16666667006,
      "d": 83.33333333331393,
      "v": 63
    },
    {
      "midi": 75,
      "hit": false,
      "t": 349775.0000000034,
      "d": 137.5,
      "v": 75
    },
    {
      "midi": 73,
      "hit": false,
      "t": 349925.0000000034,
      "d": 150,
      "v": 37
    },
    {
      "midi": 42,
      "hit": false,
      "t": 350125.0000000034,
      "d": 170.83333333337214,
      "v": 84
    },
    {
      "midi": 30,
      "hit": false,
      "t": 350129.16666667006,
      "d": 129.16666666668607,
      "v": 74
    },
    {
      "midi": 68,
      "hit": false,
      "t": 350141.66666667006,
      "d": 870.8333333333721,
      "v": 81
    },
    {
      "midi": 72,
      "hit": false,
      "t": 350141.66666667006,
      "d": 875.0000000000582,
      "v": 80
    },
    {
      "midi": 75,
      "hit": false,
      "t": 350141.66666667006,
      "d": 887.5000000000582,
      "v": 81
    },
    {
      "midi": 64,
      "hit": false,
      "t": 350145.83333333675,
      "d": 804.1666666666861,
      "v": 91
    },
    {
      "midi": 63,
      "hit": false,
      "t": 350658.33333333675,
      "d": 487.5000000000582,
      "v": 85
    },
    {
      "midi": 75,
      "hit": false,
      "t": 351154.1666666701,
      "d": 670.8333333333139,
      "v": 64
    },
    {
      "midi": 68,
      "hit": false,
      "t": 351166.6666666701,
      "d": 391.66666666662786,
      "v": 68
    },
    {
      "midi": 61,
      "hit": false,
      "t": 351166.6666666701,
      "d": 458.33333333331393,
      "v": 64
    },
    {
      "midi": 64,
      "hit": false,
      "t": 351175.00000000343,
      "d": 333.33333333331393,
      "v": 66
    },
    {
      "midi": 72,
      "hit": false,
      "t": 351179.1666666701,
      "d": 320.83333333331393,
      "v": 66
    },
    {
      "midi": 41,
      "hit": false,
      "t": 352137.50000000343,
      "d": 129.16666666668607,
      "v": 91
    },
    {
      "midi": 72,
      "hit": false,
      "t": 352650.00000000343,
      "d": 404.1666666667443,
      "v": 88
    },
    {
      "midi": 56,
      "hit": false,
      "t": 352650.00000000343,
      "d": 441.6666666667443,
      "v": 64
    },
    {
      "midi": 63,
      "hit": false,
      "t": 352654.1666666701,
      "d": 383.33333333337214,
      "v": 84
    },
    {
      "midi": 67,
      "hit": false,
      "t": 352654.1666666701,
      "d": 404.1666666667443,
      "v": 91
    },
    {
      "midi": 58,
      "hit": false,
      "t": 352658.3333333368,
      "d": 329.16666666668607,
      "v": 76
    },
    {
      "midi": 60,
      "hit": false,
      "t": 352666.6666666701,
      "d": 350.0000000000582,
      "v": 82
    },
    {
      "midi": 58,
      "hit": false,
      "t": 353150.0000000035,
      "d": 387.5000000000582,
      "v": 61
    },
    {
      "midi": 56,
      "hit": false,
      "t": 353154.1666666702,
      "d": 391.66666666668607,
      "v": 37
    },
    {
      "midi": 67,
      "hit": false,
      "t": 353154.1666666702,
      "d": 445.83333333337214,
      "v": 68
    },
    {
      "midi": 60,
      "hit": false,
      "t": 353158.33333333686,
      "d": 337.5,
      "v": 66
    },
    {
      "midi": 63,
      "hit": false,
      "t": 353158.33333333686,
      "d": 437.5,
      "v": 74
    },
    {
      "midi": 70,
      "hit": false,
      "t": 353158.33333333686,
      "d": 516.6666666666861,
      "v": 75
    },
    {
      "midi": 58,
      "hit": false,
      "t": 353637.50000000355,
      "d": 87.5,
      "v": 57
    },
    {
      "midi": 56,
      "hit": false,
      "t": 353645.83333333686,
      "d": 95.83333333337214,
      "v": 55
    },
    {
      "midi": 46,
      "hit": false,
      "t": 354133.3333333369,
      "d": 104.16666666674428,
      "v": 74
    },
    {
      "midi": 82,
      "hit": false,
      "t": 354133.3333333369,
      "d": 208.33333333343035,
      "v": 90
    },
    {
      "midi": 73,
      "hit": false,
      "t": 354137.5000000036,
      "d": 233.33333333343035,
      "v": 87
    },
    {
      "midi": 56,
      "hit": false,
      "t": 354141.6666666703,
      "d": 133.33333333337214,
      "v": 76
    },
    {
      "midi": 78,
      "hit": false,
      "t": 354145.833333337,
      "d": 208.33333333337214,
      "v": 77
    },
    {
      "midi": 78,
      "hit": false,
      "t": 354670.83333333704,
      "d": 187.5000000000582,
      "v": 72
    },
    {
      "midi": 62,
      "hit": false,
      "t": 354675.0000000037,
      "d": 262.5,
      "v": 68
    },
    {
      "midi": 56,
      "hit": false,
      "t": 354679.1666666704,
      "d": 370.83333333331393,
      "v": 70
    },
    {
      "midi": 70,
      "hit": false,
      "t": 354683.3333333371,
      "d": 183.33333333331393,
      "v": 81
    },
    {
      "midi": 73,
      "hit": false,
      "t": 354687.5000000038,
      "d": 199.9999999999418,
      "v": 63
    },
    {
      "midi": 70,
      "hit": false,
      "t": 355195.83333333704,
      "d": 120.83333333343035,
      "v": 64
    },
    {
      "midi": 73,
      "hit": false,
      "t": 355195.83333333704,
      "d": 145.83333333343035,
      "v": 37
    },
    {
      "midi": 66,
      "hit": false,
      "t": 355200.0000000037,
      "d": 141.66666666674428,
      "v": 46
    },
    {
      "midi": 56,
      "hit": false,
      "t": 355204.1666666704,
      "d": 195.83333333337214,
      "v": 46
    },
    {
      "midi": 62,
      "hit": false,
      "t": 355208.3333333371,
      "d": 104.16666666668607,
      "v": 55
    },
    {
      "midi": 65,
      "hit": false,
      "t": 355679.16666667047,
      "d": 166.66666666668607,
      "v": 54
    },
    {
      "midi": 56,
      "hit": false,
      "t": 355700.0000000038,
      "d": 141.66666666668607,
      "v": 47
    },
    {
      "midi": 68,
      "hit": false,
      "t": 356204.16666667047,
      "d": 258.33333333331393,
      "v": 35
    },
    {
      "midi": 56,
      "hit": false,
      "t": 356212.5000000038,
      "d": 258.33333333331393,
      "v": 38
    },
    {
      "midi": 61,
      "hit": false,
      "t": 356212.5000000038,
      "d": 387.5,
      "v": 29
    },
    {
      "midi": 64,
      "hit": false,
      "t": 356225.0000000038,
      "d": 183.33333333331393,
      "v": 38
    },
    {
      "midi": 57,
      "hit": false,
      "t": 356233.3333333371,
      "d": 191.66666666668607,
      "v": 22
    },
    {
      "midi": 66,
      "hit": false,
      "t": 356491.6666666704,
      "d": 116.66666666668607,
      "v": 36
    },
    {
      "midi": 54,
      "hit": false,
      "t": 356495.8333333371,
      "d": 204.16666666668607,
      "v": 35
    },
    {
      "midi": 61,
      "hit": false,
      "t": 356708.3333333371,
      "d": 229.16666666674428,
      "v": 32
    },
    {
      "midi": 68,
      "hit": false,
      "t": 356712.5000000038,
      "d": 204.16666666668607,
      "v": 31
    },
    {
      "midi": 57,
      "hit": false,
      "t": 356716.66666667047,
      "d": 191.66666666668607,
      "v": 24
    },
    {
      "midi": 56,
      "hit": false,
      "t": 356729.16666667047,
      "d": 254.16666666668607,
      "v": 25
    },
    {
      "midi": 54,
      "hit": false,
      "t": 357037.50000000384,
      "d": 237.4999999999418,
      "v": 33
    },
    {
      "midi": 57,
      "hit": false,
      "t": 357054.1666666705,
      "d": 49.99999999994179,
      "v": 29
    },
    {
      "midi": 66,
      "hit": false,
      "t": 357062.50000000384,
      "d": 49.99999999994179,
      "v": 27
    },
    {
      "midi": 68,
      "hit": false,
      "t": 357279.16666667047,
      "d": 174.9999999999418,
      "v": 37
    },
    {
      "midi": 56,
      "hit": false,
      "t": 357283.33333333716,
      "d": 191.66666666656965,
      "v": 35
    },
    {
      "midi": 57,
      "hit": false,
      "t": 357291.66666667047,
      "d": 154.16666666662786,
      "v": 24
    },
    {
      "midi": 61,
      "hit": false,
      "t": 357320.83333333716,
      "d": 141.66666666656965,
      "v": 18
    },
    {
      "midi": 64,
      "hit": false,
      "t": 357329.16666667047,
      "d": 95.83333333331393,
      "v": 26
    },
    {
      "midi": 68,
      "hit": false,
      "t": 357591.6666666704,
      "d": 216.66666666668607,
      "v": 43
    },
    {
      "midi": 56,
      "hit": false,
      "t": 357600.0000000037,
      "d": 237.5000000000582,
      "v": 36
    },
    {
      "midi": 57,
      "hit": false,
      "t": 357604.1666666704,
      "d": 137.5,
      "v": 42
    },
    {
      "midi": 61,
      "hit": false,
      "t": 357604.1666666704,
      "d": 200,
      "v": 37
    },
    {
      "midi": 64,
      "hit": false,
      "t": 357625.0000000037,
      "d": 112.5,
      "v": 44
    },
    {
      "midi": 61,
      "hit": false,
      "t": 357875.0000000038,
      "d": 137.5,
      "v": 23
    },
    {
      "midi": 66,
      "hit": false,
      "t": 357879.16666667047,
      "d": 170.83333333331393,
      "v": 43
    },
    {
      "midi": 57,
      "hit": false,
      "t": 357904.16666667047,
      "d": 70.83333333331393,
      "v": 30
    },
    {
      "midi": 54,
      "hit": false,
      "t": 357912.5000000038,
      "d": 237.5,
      "v": 34
    },
    {
      "midi": 61,
      "hit": false,
      "t": 358187.5000000038,
      "d": 675,
      "v": 35
    },
    {
      "midi": 68,
      "hit": false,
      "t": 358187.5000000038,
      "d": 804.1666666666861,
      "v": 49
    },
    {
      "midi": 57,
      "hit": false,
      "t": 358195.8333333371,
      "d": 620.8333333333721,
      "v": 43
    },
    {
      "midi": 63,
      "hit": false,
      "t": 358200.0000000038,
      "d": 650,
      "v": 37
    },
    {
      "midi": 56,
      "hit": false,
      "t": 358204.16666667047,
      "d": 745.8333333333139,
      "v": 34
    },
    {
      "midi": 66,
      "hit": false,
      "t": 359091.66666667047,
      "d": 270.83333333331393,
      "v": 42
    },
    {
      "midi": 57,
      "hit": false,
      "t": 359100.0000000038,
      "d": 170.83333333337214,
      "v": 44
    },
    {
      "midi": 61,
      "hit": false,
      "t": 359104.16666667047,
      "d": 237.5,
      "v": 37
    },
    {
      "midi": 63,
      "hit": false,
      "t": 359120.83333333716,
      "d": 245.83333333331393,
      "v": 33
    },
    {
      "midi": 54,
      "hit": false,
      "t": 359133.33333333716,
      "d": 200,
      "v": 35
    },
    {
      "midi": 69,
      "hit": false,
      "t": 360104.16666667047,
      "d": 366.66666666668607,
      "v": 81
    },
    {
      "midi": 77,
      "hit": false,
      "t": 360104.16666667047,
      "d": 1637.5000000001746,
      "v": 67
    },
    {
      "midi": 55,
      "hit": false,
      "t": 360108.33333333716,
      "d": 1412.5000000001164,
      "v": 76
    },
    {
      "midi": 69,
      "hit": false,
      "t": 360670.83333333716,
      "d": 375.0000000000582,
      "v": 53
    },
    {
      "midi": 65,
      "hit": false,
      "t": 360675.00000000384,
      "d": 341.66666666668607,
      "v": 58
    },
    {
      "midi": 61,
      "hit": false,
      "t": 360687.50000000384,
      "d": 291.66666666668607,
      "v": 33
    },
    {
      "midi": 69,
      "hit": false,
      "t": 361225.0000000039,
      "d": 445.83333333337214,
      "v": 45
    },
    {
      "midi": 65,
      "hit": false,
      "t": 361229.1666666706,
      "d": 404.16666666668607,
      "v": 41
    },
    {
      "midi": 61,
      "hit": false,
      "t": 361229.1666666706,
      "d": 658.3333333334303,
      "v": 37
    },
    {
      "midi": 55,
      "hit": false,
      "t": 361700.00000000396,
      "d": 120.83333333337214,
      "v": 58
    },
    {
      "midi": 70,
      "hit": false,
      "t": 362195.83333333733,
      "d": 620.8333333334303,
      "v": 56
    },
    {
      "midi": 77,
      "hit": false,
      "t": 362200.000000004,
      "d": 475.0000000000582,
      "v": 53
    },
    {
      "midi": 65,
      "hit": false,
      "t": 362200.000000004,
      "d": 633.3333333334303,
      "v": 65
    },
    {
      "midi": 54,
      "hit": false,
      "t": 362212.500000004,
      "d": 683.3333333334303,
      "v": 47
    },
    {
      "midi": 60,
      "hit": false,
      "t": 362216.6666666707,
      "d": 700.0000000000582,
      "v": 48
    },
    {
      "midi": 54,
      "hit": false,
      "t": 363191.66666667076,
      "d": 350,
      "v": 39
    },
    {
      "midi": 60,
      "hit": false,
      "t": 363195.83333333745,
      "d": 287.5,
      "v": 37
    },
    {
      "midi": 68,
      "hit": false,
      "t": 364175.0000000041,
      "d": 879.1666666666861,
      "v": 91
    },
    {
      "midi": 71,
      "hit": false,
      "t": 364179.16666667076,
      "d": 404.16666666668607,
      "v": 91
    },
    {
      "midi": 54,
      "hit": false,
      "t": 364183.33333333745,
      "d": 545.8333333333721,
      "v": 73
    },
    {
      "midi": 64,
      "hit": false,
      "t": 364183.33333333745,
      "d": 637.5,
      "v": 92
    },
    {
      "midi": 44,
      "hit": false,
      "t": 364187.50000000413,
      "d": 500,
      "v": 69
    },
    {
      "midi": 71,
      "hit": false,
      "t": 364750.00000000413,
      "d": 324.9999999999418,
      "v": 73
    },
    {
      "midi": 72,
      "hit": false,
      "t": 365200.0000000041,
      "d": 325.0000000000582,
      "v": 90
    },
    {
      "midi": 69,
      "hit": false,
      "t": 365200.0000000041,
      "d": 487.5000000000582,
      "v": 94
    },
    {
      "midi": 65,
      "hit": false,
      "t": 365204.16666667076,
      "d": 550,
      "v": 103
    },
    {
      "midi": 72,
      "hit": false,
      "t": 365720.83333333745,
      "d": 124.99999999994179,
      "v": 77
    },
    {
      "midi": 71,
      "hit": false,
      "t": 365754.16666667076,
      "d": 70.83333333331393,
      "v": 31
    },
    {
      "midi": 73,
      "hit": false,
      "t": 366225.000000004,
      "d": 408.33333333337214,
      "v": 42
    },
    {
      "midi": 56,
      "hit": false,
      "t": 366229.1666666707,
      "d": 533.3333333333721,
      "v": 48
    },
    {
      "midi": 70,
      "hit": false,
      "t": 366233.3333333374,
      "d": 833.3333333333721,
      "v": 55
    },
    {
      "midi": 46,
      "hit": false,
      "t": 366237.5000000041,
      "d": 408.33333333331393,
      "v": 49
    },
    {
      "midi": 66,
      "hit": false,
      "t": 366237.5000000041,
      "d": 816.6666666666861,
      "v": 59
    },
    {
      "midi": 61,
      "hit": false,
      "t": 366241.66666667076,
      "d": 791.6666666666861,
      "v": 49
    },
    {
      "midi": 73,
      "hit": false,
      "t": 366841.66666667076,
      "d": 291.66666666668607,
      "v": 48
    },
    {
      "midi": 74,
      "hit": false,
      "t": 367395.83333333745,
      "d": 533.3333333333721,
      "v": 55
    },
    {
      "midi": 71,
      "hit": false,
      "t": 367416.66666667076,
      "d": 1033.3333333334303,
      "v": 55
    },
    {
      "midi": 67,
      "hit": false,
      "t": 367429.16666667076,
      "d": 1033.3333333334303,
      "v": 59
    },
    {
      "midi": 47,
      "hit": false,
      "t": 367441.66666667076,
      "d": 712.5000000000582,
      "v": 46
    },
    {
      "midi": 72,
      "hit": false,
      "t": 367445.83333333745,
      "d": 675.0000000000582,
      "v": 39
    },
    {
      "midi": 57,
      "hit": false,
      "t": 367450.00000000413,
      "d": 895.8333333333721,
      "v": 42
    },
    {
      "midi": 62,
      "hit": false,
      "t": 367454.1666666708,
      "d": 995.8333333333721,
      "v": 50
    },
    {
      "midi": 74,
      "hit": false,
      "t": 368216.6666666708,
      "d": 291.66666666668607,
      "v": 64
    },
    {
      "midi": 75,
      "hit": false,
      "t": 368933.3333333375,
      "d": 533.3333333333721,
      "v": 74
    },
    {
      "midi": 72,
      "hit": false,
      "t": 368958.3333333375,
      "d": 766.6666666666861,
      "v": 71
    },
    {
      "midi": 58,
      "hit": false,
      "t": 368958.3333333375,
      "d": 862.5,
      "v": 55
    },
    {
      "midi": 48,
      "hit": false,
      "t": 368966.6666666708,
      "d": 758.3333333333721,
      "v": 59
    },
    {
      "midi": 68,
      "hit": false,
      "t": 368966.6666666708,
      "d": 1141.666666666686,
      "v": 70
    },
    {
      "midi": 63,
      "hit": false,
      "t": 368983.3333333375,
      "d": 1012.5,
      "v": 54
    },
    {
      "midi": 75,
      "hit": false,
      "t": 369775.0000000042,
      "d": 341.66666666662786,
      "v": 65
    },
    {
      "midi": 54,
      "hit": false,
      "t": 370462.50000000413,
      "d": 1487.4999999999418,
      "v": 51
    },
    {
      "midi": 50,
      "hit": false,
      "t": 370483.33333333745,
      "d": 1574.9999999999418,
      "v": 46
    },
    {
      "midi": 64,
      "hit": false,
      "t": 370529.16666667076,
      "d": 737.4999999999418,
      "v": 60
    },
    {
      "midi": 68,
      "hit": false,
      "t": 370566.66666667076,
      "d": 758.3333333332557,
      "v": 59
    },
    {
      "midi": 60,
      "hit": false,
      "t": 370600.0000000041,
      "d": 1270.833333333314,
      "v": 30
    },
    {
      "midi": 71,
      "hit": false,
      "t": 370625.0000000041,
      "d": 666.6666666666279,
      "v": 46
    },
    {
      "midi": 76,
      "hit": false,
      "t": 370679.1666666707,
      "d": 650,
      "v": 67
    },
    {
      "midi": 64,
      "hit": false,
      "t": 371450.000000004,
      "d": 500.0000000000582,
      "v": 33
    },
    {
      "midi": 68,
      "hit": false,
      "t": 371516.6666666707,
      "d": 504.16666666668607,
      "v": 36
    },
    {
      "midi": 71,
      "hit": false,
      "t": 371570.8333333374,
      "d": 441.66666666668607,
      "v": 33
    },
    {
      "midi": 76,
      "hit": false,
      "t": 371625.0000000041,
      "d": 445.83333333331393,
      "v": 41
    },
    {
      "midi": 65,
      "hit": false,
      "t": 372570.8333333374,
      "d": 533.3333333333139,
      "v": 62
    },
    {
      "midi": 72,
      "hit": false,
      "t": 372637.5000000041,
      "d": 429.16666666662786,
      "v": 65
    },
    {
      "midi": 37,
      "hit": false,
      "t": 372650.0000000041,
      "d": 383.33333333331393,
      "v": 57
    },
    {
      "midi": 77,
      "hit": false,
      "t": 372729.16666667076,
      "d": 329.16666666662786,
      "v": 60
    },
    {
      "midi": 44,
      "hit": false,
      "t": 373050.0000000041,
      "d": 204.16666666662786,
      "v": 60
    },
    {
      "midi": 53,
      "hit": false,
      "t": 373316.6666666707,
      "d": 262.5,
      "v": 63
    },
    {
      "midi": 56,
      "hit": false,
      "t": 373562.500000004,
      "d": 1725.0000000000582,
      "v": 39
    },
    {
      "midi": 60,
      "hit": false,
      "t": 373791.6666666707,
      "d": 479.16666666662786,
      "v": 53
    },
    {
      "midi": 63,
      "hit": false,
      "t": 373991.6666666707,
      "d": 133.33333333331393,
      "v": 61
    },
    {
      "midi": 70,
      "hit": false,
      "t": 374191.6666666707,
      "d": 179.16666666662786,
      "v": 67
    },
    {
      "midi": 63,
      "hit": false,
      "t": 374237.500000004,
      "d": 362.5,
      "v": 46
    },
    {
      "midi": 67,
      "hit": false,
      "t": 374391.66666667064,
      "d": 154.16666666668607,
      "v": 63
    },
    {
      "midi": 68,
      "hit": false,
      "t": 374575.000000004,
      "d": 141.66666666668607,
      "v": 62
    },
    {
      "midi": 70,
      "hit": false,
      "t": 374745.8333333374,
      "d": 66.66666666668607,
      "v": 69
    },
    {
      "midi": 63,
      "hit": false,
      "t": 374795.8333333374,
      "d": 312.5,
      "v": 33
    },
    {
      "midi": 60,
      "hit": false,
      "t": 374816.66666667076,
      "d": 733.3333333333139,
      "v": 9
    },
    {
      "midi": 72,
      "hit": false,
      "t": 374887.5000000041,
      "d": 95.83333333331393,
      "v": 58
    },
    {
      "midi": 75,
      "hit": false,
      "t": 375012.5000000041,
      "d": 70.83333333331393,
      "v": 60
    },
    {
      "midi": 77,
      "hit": false,
      "t": 375166.6666666707,
      "d": 104.16666666668607,
      "v": 59
    },
    {
      "midi": 82,
      "hit": false,
      "t": 375308.3333333374,
      "d": 120.83333333331393,
      "v": 74
    },
    {
      "midi": 79,
      "hit": false,
      "t": 375445.8333333374,
      "d": 108.33333333337214,
      "v": 61
    },
    {
      "midi": 63,
      "hit": false,
      "t": 375520.8333333374,
      "d": 495.83333333343035,
      "v": 30
    },
    {
      "midi": 56,
      "hit": false,
      "t": 375550.0000000041,
      "d": 2079.1666666668025,
      "v": 9
    },
    {
      "midi": 53,
      "hit": false,
      "t": 375562.5000000041,
      "d": 2025.0000000001164,
      "v": 44
    },
    {
      "midi": 80,
      "hit": false,
      "t": 375579.16666667076,
      "d": 141.66666666668607,
      "v": 62
    },
    {
      "midi": 82,
      "hit": false,
      "t": 375729.16666667076,
      "d": 41.66666666668607,
      "v": 52
    },
    {
      "midi": 84,
      "hit": false,
      "t": 375845.83333333745,
      "d": 95.83333333331393,
      "v": 61
    },
    {
      "midi": 60,
      "hit": false,
      "t": 375995.83333333745,
      "d": 575.0000000000582,
      "v": 43
    },
    {
      "midi": 87,
      "hit": false,
      "t": 376000.00000000413,
      "d": 50,
      "v": 58
    },
    {
      "midi": 89,
      "hit": false,
      "t": 376129.1666666708,
      "d": 116.66666666668607,
      "v": 62
    },
    {
      "midi": 91,
      "hit": false,
      "t": 376287.5000000042,
      "d": 170.83333333331393,
      "v": 57
    },
    {
      "midi": 63,
      "hit": false,
      "t": 376358.3333333375,
      "d": 1191.666666666686,
      "v": 33
    },
    {
      "midi": 92,
      "hit": false,
      "t": 376470.8333333375,
      "d": 141.66666666668607,
      "v": 62
    },
    {
      "midi": 94,
      "hit": false,
      "t": 376662.5000000042,
      "d": 50,
      "v": 56
    },
    {
      "midi": 60,
      "hit": false,
      "t": 376750.0000000042,
      "d": 112.5,
      "v": 27
    },
    {
      "midi": 96,
      "hit": false,
      "t": 376820.8333333375,
      "d": 137.5,
      "v": 65
    },
    {
      "midi": 97,
      "hit": false,
      "t": 377004.1666666708,
      "d": 137.5,
      "v": 60
    },
    {
      "midi": 60,
      "hit": false,
      "t": 377054.1666666708,
      "d": 525.0000000000582,
      "v": 18
    },
    {
      "midi": 99,
      "hit": false,
      "t": 377200.00000000413,
      "d": 79.16666666668607,
      "v": 48
    },
    {
      "midi": 101,
      "hit": false,
      "t": 377395.8333333375,
      "d": 166.66666666668607,
      "v": 22
    },
    {
      "midi": 103,
      "hit": false,
      "t": 377604.1666666709,
      "d": 183.33333333331393,
      "v": 47
    },
    {
      "midi": 104,
      "hit": false,
      "t": 377833.3333333375,
      "d": 283.33333333337214,
      "v": 59
    },
    {
      "midi": 106,
      "hit": false,
      "t": 378100.0000000042,
      "d": 262.5,
      "v": 50
    },
    {
      "midi": 108,
      "hit": false,
      "t": 378404.1666666709,
      "d": 425,
      "v": 66
    },
    {
      "midi": 25,
      "hit": false,
      "t": 378408.33333333756,
      "d": 629.1666666666279,
      "v": 33
    }
  ]
}