{
  "jsonPath": "Electronic/Big Beat/Dub Pistols/stronger.json",
  "path": "Electronic\\Big Beat\\Dub Pistols\\Stronger.mid",
  "name": "Stronger",
  "difficulty": "Advanced",
  "bpm": 80,
  "notes": [
    {
      "midi": 64,
      "hit": false,
      "t": 0,
      "d": 1714.284,
      "v": 100
    },
    {
      "midi": 64,
      "hit": false,
      "t": 0,
      "d": 1714.284,
      "v": 100
    },
    {
      "midi": 71,
      "hit": false,
      "t": 439.28527500000007,
      "d": 857.1419999999999,
      "v": 100
    },
    {
      "midi": 71,
      "hit": false,
      "t": 439.28527500000007,
      "d": 857.1419999999999,
      "v": 100
    },
    {
      "midi": 76,
      "hit": false,
      "t": 857.142,
      "d": 787.4992125000001,
      "v": 100
    },
    {
      "midi": 76,
      "hit": false,
      "t": 857.142,
      "d": 787.4992125000001,
      "v": 100
    },
    {
      "midi": 83,
      "hit": false,
      "t": 1296.427275,
      "d": 787.4992125000003,
      "v": 100
    },
    {
      "midi": 83,
      "hit": false,
      "t": 1296.427275,
      "d": 787.4992125000003,
      "v": 100
    },
    {
      "midi": 59,
      "hit": false,
      "t": 1714.284,
      "d": 1714.2840000000006,
      "v": 100
    },
    {
      "midi": 59,
      "hit": false,
      "t": 1714.284,
      "d": 1714.2840000000006,
      "v": 100
    },
    {
      "midi": 71,
      "hit": false,
      "t": 2153.5692750000003,
      "d": 787.4992125000003,
      "v": 100
    },
    {
      "midi": 71,
      "hit": false,
      "t": 2153.5692750000003,
      "d": 787.4992125000003,
      "v": 100
    },
    {
      "midi": 75,
      "hit": false,
      "t": 2571.4260000000004,
      "d": 601.7851125000002,
      "v": 100
    },
    {
      "midi": 75,
      "hit": false,
      "t": 2571.4260000000004,
      "d": 601.7851125000002,
      "v": 100
    },
    {
      "midi": 76,
      "hit": false,
      "t": 3010.7112750000006,
      "d": 624.9993750000003,
      "v": 100
    },
    {
      "midi": 76,
      "hit": false,
      "t": 3010.7112750000006,
      "d": 624.9993750000003,
      "v": 100
    },
    {
      "midi": 61,
      "hit": false,
      "t": 3428.5680000000007,
      "d": 1714.284,
      "v": 100
    },
    {
      "midi": 61,
      "hit": false,
      "t": 3428.5680000000007,
      "d": 1714.284,
      "v": 100
    },
    {
      "midi": 73,
      "hit": false,
      "t": 3867.853275000001,
      "d": 741.0706875000001,
      "v": 100
    },
    {
      "midi": 73,
      "hit": false,
      "t": 3867.853275000001,
      "d": 741.0706875000001,
      "v": 100
    },
    {
      "midi": 76,
      "hit": false,
      "t": 4285.710000000001,
      "d": 694.6421625000003,
      "v": 100
    },
    {
      "midi": 76,
      "hit": false,
      "t": 4285.710000000001,
      "d": 694.6421625000003,
      "v": 100
    },
    {
      "midi": 81,
      "hit": false,
      "t": 4724.995275000001,
      "d": 903.5705250000001,
      "v": 100
    },
    {
      "midi": 81,
      "hit": false,
      "t": 4724.995275000001,
      "d": 903.5705250000001,
      "v": 100
    },
    {
      "midi": 57,
      "hit": false,
      "t": 5142.852000000001,
      "d": 1714.2840000000015,
      "v": 100
    },
    {
      "midi": 57,
      "hit": false,
      "t": 5142.852000000001,
      "d": 1714.2840000000015,
      "v": 100
    },
    {
      "midi": 80,
      "hit": false,
      "t": 5582.137275000001,
      "d": 741.0706875000005,
      "v": 100
    },
    {
      "midi": 80,
      "hit": false,
      "t": 5582.137275000001,
      "d": 741.0706875000005,
      "v": 100
    },
    {
      "midi": 78,
      "hit": false,
      "t": 5999.9940000000015,
      "d": 671.4279000000006,
      "v": 100
    },
    {
      "midi": 78,
      "hit": false,
      "t": 5999.9940000000015,
      "d": 671.4279000000006,
      "v": 100
    },
    {
      "midi": 76,
      "hit": false,
      "t": 6439.279275000002,
      "d": 741.0706875000005,
      "v": 100
    },
    {
      "midi": 76,
      "hit": false,
      "t": 6439.279275000002,
      "d": 741.0706875000005,
      "v": 100
    },
    {
      "midi": 64,
      "hit": false,
      "t": 6857.136000000002,
      "d": 1714.2840000000015,
      "v": 100
    },
    {
      "midi": 64,
      "hit": false,
      "t": 6857.136000000002,
      "d": 1714.2840000000015,
      "v": 100
    },
    {
      "midi": 71,
      "hit": false,
      "t": 7296.421275000002,
      "d": 857.1419999999998,
      "v": 100
    },
    {
      "midi": 71,
      "hit": false,
      "t": 7296.421275000002,
      "d": 857.1419999999998,
      "v": 100
    },
    {
      "midi": 76,
      "hit": false,
      "t": 7714.278000000002,
      "d": 787.4992125000008,
      "v": 100
    },
    {
      "midi": 76,
      "hit": false,
      "t": 7714.278000000002,
      "d": 787.4992125000008,
      "v": 100
    },
    {
      "midi": 83,
      "hit": false,
      "t": 8153.563275000002,
      "d": 787.4992125000008,
      "v": 100
    },
    {
      "midi": 83,
      "hit": false,
      "t": 8153.563275000002,
      "d": 787.4992125000008,
      "v": 100
    },
    {
      "midi": 59,
      "hit": false,
      "t": 8571.420000000004,
      "d": 1714.2839999999997,
      "v": 100
    },
    {
      "midi": 59,
      "hit": false,
      "t": 8571.420000000004,
      "d": 1714.2839999999997,
      "v": 100
    },
    {
      "midi": 71,
      "hit": false,
      "t": 9010.705275000004,
      "d": 787.499212499999,
      "v": 100
    },
    {
      "midi": 71,
      "hit": false,
      "t": 9010.705275000004,
      "d": 787.499212499999,
      "v": 100
    },
    {
      "midi": 75,
      "hit": false,
      "t": 9428.562000000004,
      "d": 601.7851124999997,
      "v": 100
    },
    {
      "midi": 75,
      "hit": false,
      "t": 9428.562000000004,
      "d": 601.7851124999997,
      "v": 100
    },
    {
      "midi": 76,
      "hit": false,
      "t": 9867.847275000004,
      "d": 624.9993749999994,
      "v": 100
    },
    {
      "midi": 76,
      "hit": false,
      "t": 9867.847275000004,
      "d": 624.9993749999994,
      "v": 100
    },
    {
      "midi": 61,
      "hit": false,
      "t": 10285.704000000003,
      "d": 1714.2839999999997,
      "v": 100
    },
    {
      "midi": 61,
      "hit": false,
      "t": 10285.704000000003,
      "d": 1714.2839999999997,
      "v": 100
    },
    {
      "midi": 73,
      "hit": false,
      "t": 10724.989275000004,
      "d": 741.0706874999996,
      "v": 100
    },
    {
      "midi": 73,
      "hit": false,
      "t": 10724.989275000004,
      "d": 741.0706874999996,
      "v": 100
    },
    {
      "midi": 76,
      "hit": false,
      "t": 11142.846000000003,
      "d": 694.6421625000003,
      "v": 100
    },
    {
      "midi": 76,
      "hit": false,
      "t": 11142.846000000003,
      "d": 694.6421625000003,
      "v": 100
    },
    {
      "midi": 81,
      "hit": false,
      "t": 11582.131275000003,
      "d": 903.5705249999992,
      "v": 100
    },
    {
      "midi": 81,
      "hit": false,
      "t": 11582.131275000003,
      "d": 903.5705249999992,
      "v": 100
    },
    {
      "midi": 57,
      "hit": false,
      "t": 11999.988000000003,
      "d": 1714.2839999999997,
      "v": 100
    },
    {
      "midi": 57,
      "hit": false,
      "t": 11999.988000000003,
      "d": 1714.2839999999997,
      "v": 100
    },
    {
      "midi": 80,
      "hit": false,
      "t": 12439.273275000003,
      "d": 741.0706874999996,
      "v": 100
    },
    {
      "midi": 80,
      "hit": false,
      "t": 12439.273275000003,
      "d": 741.0706874999996,
      "v": 100
    },
    {
      "midi": 78,
      "hit": false,
      "t": 12857.130000000003,
      "d": 671.4279000000006,
      "v": 100
    },
    {
      "midi": 78,
      "hit": false,
      "t": 12857.130000000003,
      "d": 671.4279000000006,
      "v": 100
    },
    {
      "midi": 76,
      "hit": false,
      "t": 13296.415275000003,
      "d": 741.0706874999996,
      "v": 100
    },
    {
      "midi": 76,
      "hit": false,
      "t": 13296.415275000003,
      "d": 741.0706874999996,
      "v": 100
    },
    {
      "midi": 64,
      "hit": false,
      "t": 13714.272000000003,
      "d": 1714.2840000000015,
      "v": 100
    },
    {
      "midi": 64,
      "hit": false,
      "t": 13714.272000000003,
      "d": 1714.2840000000015,
      "v": 100
    },
    {
      "midi": 71,
      "hit": false,
      "t": 14153.557275000003,
      "d": 857.1419999999998,
      "v": 100
    },
    {
      "midi": 71,
      "hit": false,
      "t": 14153.557275000003,
      "d": 857.1419999999998,
      "v": 100
    },
    {
      "midi": 76,
      "hit": false,
      "t": 14571.414000000002,
      "d": 787.4992125000008,
      "v": 100
    },
    {
      "midi": 76,
      "hit": false,
      "t": 14571.414000000002,
      "d": 787.4992125000008,
      "v": 100
    },
    {
      "midi": 83,
      "hit": false,
      "t": 15010.699275000003,
      "d": 787.4992125000008,
      "v": 100
    },
    {
      "midi": 83,
      "hit": false,
      "t": 15010.699275000003,
      "d": 787.4992125000008,
      "v": 100
    },
    {
      "midi": 59,
      "hit": false,
      "t": 15428.556000000004,
      "d": 1714.2839999999997,
      "v": 100
    },
    {
      "midi": 59,
      "hit": false,
      "t": 15428.556000000004,
      "d": 1714.2839999999997,
      "v": 100
    },
    {
      "midi": 71,
      "hit": false,
      "t": 15867.841275000004,
      "d": 787.4992125000008,
      "v": 100
    },
    {
      "midi": 71,
      "hit": false,
      "t": 15867.841275000004,
      "d": 787.4992125000008,
      "v": 100
    },
    {
      "midi": 75,
      "hit": false,
      "t": 16285.698000000004,
      "d": 601.7851125000016,
      "v": 100
    },
    {
      "midi": 75,
      "hit": false,
      "t": 16285.698000000004,
      "d": 601.7851125000016,
      "v": 100
    },
    {
      "midi": 76,
      "hit": false,
      "t": 16724.983275000006,
      "d": 624.9993749999994,
      "v": 100
    },
    {
      "midi": 76,
      "hit": false,
      "t": 16724.983275000006,
      "d": 624.9993749999994,
      "v": 100
    },
    {
      "midi": 61,
      "hit": false,
      "t": 17142.840000000004,
      "d": 1714.2840000000033,
      "v": 100
    },
    {
      "midi": 61,
      "hit": false,
      "t": 17142.840000000004,
      "d": 1714.2840000000033,
      "v": 100
    },
    {
      "midi": 73,
      "hit": false,
      "t": 17582.125275000006,
      "d": 741.0706875000033,
      "v": 100
    },
    {
      "midi": 73,
      "hit": false,
      "t": 17582.125275000006,
      "d": 741.0706875000033,
      "v": 100
    },
    {
      "midi": 76,
      "hit": false,
      "t": 17999.982000000007,
      "d": 694.6421625000003,
      "v": 100
    },
    {
      "midi": 76,
      "hit": false,
      "t": 17999.982000000007,
      "d": 694.6421625000003,
      "v": 100
    },
    {
      "midi": 81,
      "hit": false,
      "t": 18439.26727500001,
      "d": 903.5705249999955,
      "v": 100
    },
    {
      "midi": 81,
      "hit": false,
      "t": 18439.26727500001,
      "d": 903.5705249999955,
      "v": 100
    },
    {
      "midi": 57,
      "hit": false,
      "t": 18857.124000000007,
      "d": 1714.2839999999997,
      "v": 100
    },
    {
      "midi": 57,
      "hit": false,
      "t": 18857.124000000007,
      "d": 1714.2839999999997,
      "v": 100
    },
    {
      "midi": 80,
      "hit": false,
      "t": 19296.409275000005,
      "d": 741.0706874999996,
      "v": 100
    },
    {
      "midi": 80,
      "hit": false,
      "t": 19296.409275000005,
      "d": 741.0706874999996,
      "v": 100
    },
    {
      "midi": 78,
      "hit": false,
      "t": 19714.266000000003,
      "d": 671.4279000000024,
      "v": 100
    },
    {
      "midi": 78,
      "hit": false,
      "t": 19714.266000000003,
      "d": 671.4279000000024,
      "v": 100
    },
    {
      "midi": 76,
      "hit": false,
      "t": 20153.551275000005,
      "d": 741.0706875000033,
      "v": 100
    },
    {
      "midi": 76,
      "hit": false,
      "t": 20153.551275000005,
      "d": 741.0706875000033,
      "v": 100
    },
    {
      "midi": 64,
      "hit": false,
      "t": 20571.408000000007,
      "d": 1714.2840000000033,
      "v": 100
    },
    {
      "midi": 64,
      "hit": false,
      "t": 20571.408000000007,
      "d": 1714.2840000000033,
      "v": 100
    },
    {
      "midi": 71,
      "hit": false,
      "t": 21010.69327500001,
      "d": 857.1419999999998,
      "v": 100
    },
    {
      "midi": 71,
      "hit": false,
      "t": 21010.69327500001,
      "d": 857.1419999999998,
      "v": 100
    },
    {
      "midi": 76,
      "hit": false,
      "t": 21428.55000000001,
      "d": 787.499212499999,
      "v": 100
    },
    {
      "midi": 76,
      "hit": false,
      "t": 21428.55000000001,
      "d": 787.499212499999,
      "v": 100
    },
    {
      "midi": 83,
      "hit": false,
      "t": 21867.83527500001,
      "d": 787.4992125000026,
      "v": 100
    },
    {
      "midi": 83,
      "hit": false,
      "t": 21867.83527500001,
      "d": 787.4992125000026,
      "v": 100
    },
    {
      "midi": 59,
      "hit": false,
      "t": 22285.69200000001,
      "d": 1714.2840000000033,
      "v": 100
    },
    {
      "midi": 59,
      "hit": false,
      "t": 22285.69200000001,
      "d": 1714.2840000000033,
      "v": 100
    },
    {
      "midi": 71,
      "hit": false,
      "t": 22724.977275000012,
      "d": 787.4992125000026,
      "v": 100
    },
    {
      "midi": 71,
      "hit": false,
      "t": 22724.977275000012,
      "d": 787.4992125000026,
      "v": 100
    },
    {
      "midi": 75,
      "hit": false,
      "t": 23142.834000000013,
      "d": 601.7851125000016,
      "v": 100
    },
    {
      "midi": 75,
      "hit": false,
      "t": 23142.834000000013,
      "d": 601.7851125000016,
      "v": 100
    },
    {
      "midi": 76,
      "hit": false,
      "t": 23582.119275000015,
      "d": 3823.2104624999993,
      "v": 100
    },
    {
      "midi": 76,
      "hit": false,
      "t": 23582.119275000015,
      "d": 3823.2104624999993,
      "v": 100
    },
    {
      "midi": 69,
      "hit": false,
      "t": 23999.976000000013,
      "d": 3382.139475,
      "v": 100
    },
    {
      "midi": 57,
      "hit": false,
      "t": 23999.976000000013,
      "d": 3428.568000000003,
      "v": 100
    },
    {
      "midi": 69,
      "hit": false,
      "t": 23999.976000000013,
      "d": 3382.139475,
      "v": 100
    },
    {
      "midi": 57,
      "hit": false,
      "t": 23999.976000000013,
      "d": 3428.568000000003,
      "v": 100
    },
    {
      "midi": 52,
      "hit": false,
      "t": 27428.544000000016,
      "d": 1714.2839999999997,
      "v": 100
    },
    {
      "midi": 52,
      "hit": false,
      "t": 27428.544000000016,
      "d": 1714.2839999999997,
      "v": 100
    },
    {
      "midi": 59,
      "hit": false,
      "t": 27867.829275000015,
      "d": 857.1419999999998,
      "v": 100
    },
    {
      "midi": 59,
      "hit": false,
      "t": 27867.829275000015,
      "d": 857.1419999999998,
      "v": 100
    },
    {
      "midi": 64,
      "hit": false,
      "t": 28285.686000000016,
      "d": 787.499212499999,
      "v": 100
    },
    {
      "midi": 64,
      "hit": false,
      "t": 28285.686000000016,
      "d": 787.499212499999,
      "v": 100
    },
    {
      "midi": 71,
      "hit": false,
      "t": 28724.971275000014,
      "d": 787.4992125000026,
      "v": 100
    },
    {
      "midi": 71,
      "hit": false,
      "t": 28724.971275000014,
      "d": 787.4992125000026,
      "v": 100
    },
    {
      "midi": 47,
      "hit": false,
      "t": 29142.828000000016,
      "d": 1714.2840000000033,
      "v": 100
    },
    {
      "midi": 47,
      "hit": false,
      "t": 29142.828000000016,
      "d": 1714.2840000000033,
      "v": 100
    },
    {
      "midi": 59,
      "hit": false,
      "t": 29582.113275000018,
      "d": 787.4992125000026,
      "v": 100
    },
    {
      "midi": 59,
      "hit": false,
      "t": 29582.113275000018,
      "d": 787.4992125000026,
      "v": 100
    },
    {
      "midi": 63,
      "hit": false,
      "t": 29999.97000000002,
      "d": 601.7851125000016,
      "v": 100
    },
    {
      "midi": 63,
      "hit": false,
      "t": 29999.97000000002,
      "d": 601.7851125000016,
      "v": 100
    },
    {
      "midi": 64,
      "hit": false,
      "t": 30439.25527500002,
      "d": 624.9993749999994,
      "v": 100
    },
    {
      "midi": 64,
      "hit": false,
      "t": 30439.25527500002,
      "d": 624.9993749999994,
      "v": 100
    },
    {
      "midi": 49,
      "hit": false,
      "t": 30857.11200000002,
      "d": 1714.2839999999997,
      "v": 100
    },
    {
      "midi": 49,
      "hit": false,
      "t": 30857.11200000002,
      "d": 1714.2839999999997,
      "v": 100
    },
    {
      "midi": 61,
      "hit": false,
      "t": 31296.39727500002,
      "d": 741.0706874999996,
      "v": 100
    },
    {
      "midi": 61,
      "hit": false,
      "t": 31296.39727500002,
      "d": 741.0706874999996,
      "v": 100
    },
    {
      "midi": 64,
      "hit": false,
      "t": 31714.254000000023,
      "d": 694.6421624999966,
      "v": 100
    },
    {
      "midi": 64,
      "hit": false,
      "t": 31714.254000000023,
      "d": 694.6421624999966,
      "v": 100
    },
    {
      "midi": 71,
      "hit": false,
      "t": 31758.89681250002,
      "d": 787.499212499999,
      "v": 100
    },
    {
      "midi": 71,
      "hit": false,
      "t": 31758.89681250002,
      "d": 787.499212499999,
      "v": 100
    },
    {
      "midi": 69,
      "hit": false,
      "t": 32153.53927500002,
      "d": 903.5705249999992,
      "v": 100
    },
    {
      "midi": 57,
      "hit": false,
      "t": 32153.53927500002,
      "d": 2062.497937499993,
      "v": 100
    },
    {
      "midi": 69,
      "hit": false,
      "t": 32153.53927500002,
      "d": 903.5705249999992,
      "v": 100
    },
    {
      "midi": 57,
      "hit": false,
      "t": 32153.53927500002,
      "d": 2062.497937499993,
      "v": 100
    },
    {
      "midi": 68,
      "hit": false,
      "t": 33010.68127500002,
      "d": 741.0706875000033,
      "v": 100
    },
    {
      "midi": 68,
      "hit": false,
      "t": 33010.68127500002,
      "d": 741.0706875000033,
      "v": 100
    },
    {
      "midi": 66,
      "hit": false,
      "t": 33428.53800000002,
      "d": 671.4278999999951,
      "v": 100
    },
    {
      "midi": 66,
      "hit": false,
      "t": 33428.53800000002,
      "d": 671.4278999999951,
      "v": 100
    },
    {
      "midi": 64,
      "hit": false,
      "t": 33867.82327500002,
      "d": 741.070687499996,
      "v": 100
    },
    {
      "midi": 64,
      "hit": false,
      "t": 33867.82327500002,
      "d": 741.070687499996,
      "v": 100
    },
    {
      "midi": 52,
      "hit": false,
      "t": 34285.680000000015,
      "d": 1714.2839999999924,
      "v": 100
    },
    {
      "midi": 52,
      "hit": false,
      "t": 34285.680000000015,
      "d": 1714.2839999999924,
      "v": 100
    },
    {
      "midi": 59,
      "hit": false,
      "t": 34724.96527500001,
      "d": 857.1419999999998,
      "v": 100
    },
    {
      "midi": 59,
      "hit": false,
      "t": 34724.96527500001,
      "d": 857.1419999999998,
      "v": 100
    },
    {
      "midi": 64,
      "hit": false,
      "t": 35142.82200000001,
      "d": 787.499212499999,
      "v": 100
    },
    {
      "midi": 64,
      "hit": false,
      "t": 35142.82200000001,
      "d": 787.499212499999,
      "v": 100
    },
    {
      "midi": 71,
      "hit": false,
      "t": 35582.10727500001,
      "d": 787.499212499999,
      "v": 100
    },
    {
      "midi": 71,
      "hit": false,
      "t": 35582.10727500001,
      "d": 787.499212499999,
      "v": 100
    },
    {
      "midi": 47,
      "hit": false,
      "t": 35999.96400000001,
      "d": 1714.2839999999997,
      "v": 100
    },
    {
      "midi": 47,
      "hit": false,
      "t": 35999.96400000001,
      "d": 1714.2839999999997,
      "v": 100
    },
    {
      "midi": 59,
      "hit": false,
      "t": 36439.24927500001,
      "d": 787.499212499999,
      "v": 100
    },
    {
      "midi": 59,
      "hit": false,
      "t": 36439.24927500001,
      "d": 787.499212499999,
      "v": 100
    },
    {
      "midi": 63,
      "hit": false,
      "t": 36857.10600000001,
      "d": 601.7851125000016,
      "v": 100
    },
    {
      "midi": 63,
      "hit": false,
      "t": 36857.10600000001,
      "d": 601.7851125000016,
      "v": 100
    },
    {
      "midi": 64,
      "hit": false,
      "t": 37296.39127500001,
      "d": 624.9993749999994,
      "v": 100
    },
    {
      "midi": 64,
      "hit": false,
      "t": 37296.39127500001,
      "d": 624.9993749999994,
      "v": 100
    },
    {
      "midi": 49,
      "hit": false,
      "t": 37714.24800000001,
      "d": 1714.2839999999997,
      "v": 100
    },
    {
      "midi": 49,
      "hit": false,
      "t": 37714.24800000001,
      "d": 1714.2839999999997,
      "v": 100
    },
    {
      "midi": 61,
      "hit": false,
      "t": 38153.53327500001,
      "d": 741.0706875000033,
      "v": 100
    },
    {
      "midi": 61,
      "hit": false,
      "t": 38153.53327500001,
      "d": 741.0706875000033,
      "v": 100
    },
    {
      "midi": 64,
      "hit": false,
      "t": 38571.39000000001,
      "d": 694.6421625000003,
      "v": 100
    },
    {
      "midi": 64,
      "hit": false,
      "t": 38571.39000000001,
      "d": 694.6421625000003,
      "v": 100
    },
    {
      "midi": 71,
      "hit": false,
      "t": 38616.03281250001,
      "d": 787.499212499999,
      "v": 100
    },
    {
      "midi": 71,
      "hit": false,
      "t": 38616.03281250001,
      "d": 787.499212499999,
      "v": 100
    },
    {
      "midi": 69,
      "hit": false,
      "t": 39010.67527500001,
      "d": 903.5705250000028,
      "v": 100
    },
    {
      "midi": 57,
      "hit": false,
      "t": 39010.67527500001,
      "d": 2062.4979374999966,
      "v": 100
    },
    {
      "midi": 69,
      "hit": false,
      "t": 39010.67527500001,
      "d": 903.5705250000028,
      "v": 100
    },
    {
      "midi": 57,
      "hit": false,
      "t": 39010.67527500001,
      "d": 2062.4979374999966,
      "v": 100
    },
    {
      "midi": 68,
      "hit": false,
      "t": 39867.81727500001,
      "d": 741.0706875000033,
      "v": 100
    },
    {
      "midi": 68,
      "hit": false,
      "t": 39867.81727500001,
      "d": 741.0706875000033,
      "v": 100
    },
    {
      "midi": 66,
      "hit": false,
      "t": 40285.67400000001,
      "d": 671.4278999999951,
      "v": 100
    },
    {
      "midi": 66,
      "hit": false,
      "t": 40285.67400000001,
      "d": 671.4278999999951,
      "v": 100
    },
    {
      "midi": 64,
      "hit": false,
      "t": 40724.95927500001,
      "d": 741.070687499996,
      "v": 100
    },
    {
      "midi": 64,
      "hit": false,
      "t": 40724.95927500001,
      "d": 741.070687499996,
      "v": 100
    },
    {
      "midi": 52,
      "hit": false,
      "t": 41142.816000000006,
      "d": 1714.2839999999924,
      "v": 100
    },
    {
      "midi": 52,
      "hit": false,
      "t": 41142.816000000006,
      "d": 1714.2839999999924,
      "v": 100
    },
    {
      "midi": 59,
      "hit": false,
      "t": 41582.101275,
      "d": 857.1419999999998,
      "v": 100
    },
    {
      "midi": 59,
      "hit": false,
      "t": 41582.101275,
      "d": 857.1419999999998,
      "v": 100
    },
    {
      "midi": 64,
      "hit": false,
      "t": 41999.958,
      "d": 787.499212499999,
      "v": 100
    },
    {
      "midi": 64,
      "hit": false,
      "t": 41999.958,
      "d": 787.499212499999,
      "v": 100
    },
    {
      "midi": 71,
      "hit": false,
      "t": 42439.243275,
      "d": 787.499212499999,
      "v": 100
    },
    {
      "midi": 71,
      "hit": false,
      "t": 42439.243275,
      "d": 787.499212499999,
      "v": 100
    },
    {
      "midi": 47,
      "hit": false,
      "t": 42857.1,
      "d": 1714.2839999999997,
      "v": 100
    },
    {
      "midi": 47,
      "hit": false,
      "t": 42857.1,
      "d": 1714.2839999999997,
      "v": 100
    },
    {
      "midi": 59,
      "hit": false,
      "t": 43296.385275,
      "d": 787.499212499999,
      "v": 100
    },
    {
      "midi": 59,
      "hit": false,
      "t": 43296.385275,
      "d": 787.499212499999,
      "v": 100
    },
    {
      "midi": 63,
      "hit": false,
      "t": 43714.242,
      "d": 601.7851125000016,
      "v": 100
    },
    {
      "midi": 63,
      "hit": false,
      "t": 43714.242,
      "d": 601.7851125000016,
      "v": 100
    },
    {
      "midi": 64,
      "hit": false,
      "t": 44153.527275,
      "d": 624.9993749999994,
      "v": 100
    },
    {
      "midi": 64,
      "hit": false,
      "t": 44153.527275,
      "d": 624.9993749999994,
      "v": 100
    },
    {
      "midi": 49,
      "hit": false,
      "t": 44571.384,
      "d": 1714.2839999999997,
      "v": 100
    },
    {
      "midi": 49,
      "hit": false,
      "t": 44571.384,
      "d": 1714.2839999999997,
      "v": 100
    },
    {
      "midi": 61,
      "hit": false,
      "t": 45010.669275,
      "d": 741.0706875000033,
      "v": 100
    },
    {
      "midi": 61,
      "hit": false,
      "t": 45010.669275,
      "d": 741.0706875000033,
      "v": 100
    },
    {
      "midi": 64,
      "hit": false,
      "t": 45428.526,
      "d": 694.6421625000003,
      "v": 100
    },
    {
      "midi": 64,
      "hit": false,
      "t": 45428.526,
      "d": 694.6421625000003,
      "v": 100
    },
    {
      "midi": 71,
      "hit": false,
      "t": 45473.1688125,
      "d": 787.499212499999,
      "v": 100
    },
    {
      "midi": 71,
      "hit": false,
      "t": 45473.1688125,
      "d": 787.499212499999,
      "v": 100
    },
    {
      "midi": 69,
      "hit": false,
      "t": 45867.811275,
      "d": 903.5705250000028,
      "v": 100
    },
    {
      "midi": 57,
      "hit": false,
      "t": 45867.811275,
      "d": 2062.4979374999966,
      "v": 100
    },
    {
      "midi": 69,
      "hit": false,
      "t": 45867.811275,
      "d": 903.5705250000028,
      "v": 100
    },
    {
      "midi": 57,
      "hit": false,
      "t": 45867.811275,
      "d": 2062.4979374999966,
      "v": 100
    },
    {
      "midi": 68,
      "hit": false,
      "t": 46724.953275,
      "d": 741.0706875000033,
      "v": 100
    },
    {
      "midi": 68,
      "hit": false,
      "t": 46724.953275,
      "d": 741.0706875000033,
      "v": 100
    },
    {
      "midi": 66,
      "hit": false,
      "t": 47142.810000000005,
      "d": 671.4278999999951,
      "v": 100
    },
    {
      "midi": 66,
      "hit": false,
      "t": 47142.810000000005,
      "d": 671.4278999999951,
      "v": 100
    },
    {
      "midi": 64,
      "hit": false,
      "t": 47582.095275,
      "d": 741.070687499996,
      "v": 100
    },
    {
      "midi": 64,
      "hit": false,
      "t": 47582.095275,
      "d": 741.070687499996,
      "v": 100
    },
    {
      "midi": 52,
      "hit": false,
      "t": 47999.952,
      "d": 1714.2839999999924,
      "v": 100
    },
    {
      "midi": 52,
      "hit": false,
      "t": 47999.952,
      "d": 1714.2839999999924,
      "v": 100
    },
    {
      "midi": 59,
      "hit": false,
      "t": 48439.23727499999,
      "d": 857.1419999999998,
      "v": 100
    },
    {
      "midi": 59,
      "hit": false,
      "t": 48439.23727499999,
      "d": 857.1419999999998,
      "v": 100
    },
    {
      "midi": 64,
      "hit": false,
      "t": 48857.09399999999,
      "d": 787.499212499999,
      "v": 100
    },
    {
      "midi": 64,
      "hit": false,
      "t": 48857.09399999999,
      "d": 787.499212499999,
      "v": 100
    },
    {
      "midi": 71,
      "hit": false,
      "t": 49296.37927499999,
      "d": 787.499212499999,
      "v": 100
    },
    {
      "midi": 71,
      "hit": false,
      "t": 49296.37927499999,
      "d": 787.499212499999,
      "v": 100
    },
    {
      "midi": 47,
      "hit": false,
      "t": 49714.23599999999,
      "d": 1714.2839999999997,
      "v": 100
    },
    {
      "midi": 47,
      "hit": false,
      "t": 49714.23599999999,
      "d": 1714.2839999999997,
      "v": 100
    },
    {
      "midi": 59,
      "hit": false,
      "t": 50153.52127499999,
      "d": 787.499212499999,
      "v": 100
    },
    {
      "midi": 59,
      "hit": false,
      "t": 50153.52127499999,
      "d": 787.499212499999,
      "v": 100
    },
    {
      "midi": 63,
      "hit": false,
      "t": 50571.37799999999,
      "d": 601.7851125000016,
      "v": 100
    },
    {
      "midi": 63,
      "hit": false,
      "t": 50571.37799999999,
      "d": 601.7851125000016,
      "v": 100
    },
    {
      "midi": 64,
      "hit": false,
      "t": 51010.66327499999,
      "d": 3799.9962000000014,
      "v": 100
    },
    {
      "midi": 64,
      "hit": false,
      "t": 51010.66327499999,
      "d": 3799.9962000000014,
      "v": 100
    },
    {
      "midi": 57,
      "hit": false,
      "t": 51428.51999999999,
      "d": 3382.1394750000036,
      "v": 100
    },
    {
      "midi": 69,
      "hit": false,
      "t": 51428.51999999999,
      "d": 3428.5680000000066,
      "v": 100
    },
    {
      "midi": 57,
      "hit": false,
      "t": 51428.51999999999,
      "d": 3382.1394750000036,
      "v": 100
    },
    {
      "midi": 69,
      "hit": false,
      "t": 51428.51999999999,
      "d": 3428.5680000000066,
      "v": 100
    },
    {
      "midi": 52,
      "hit": false,
      "t": 54857.087999999996,
      "d": 1714.2839999999997,
      "v": 100
    },
    {
      "midi": 52,
      "hit": false,
      "t": 54857.087999999996,
      "d": 1714.2839999999997,
      "v": 100
    },
    {
      "midi": 59,
      "hit": false,
      "t": 55296.373275,
      "d": 857.1419999999998,
      "v": 100
    },
    {
      "midi": 59,
      "hit": false,
      "t": 55296.373275,
      "d": 857.1419999999998,
      "v": 100
    },
    {
      "midi": 64,
      "hit": false,
      "t": 55714.229999999996,
      "d": 787.499212499999,
      "v": 100
    },
    {
      "midi": 64,
      "hit": false,
      "t": 55714.229999999996,
      "d": 787.499212499999,
      "v": 100
    },
    {
      "midi": 71,
      "hit": false,
      "t": 56153.515275,
      "d": 787.499212499999,
      "v": 100
    },
    {
      "midi": 71,
      "hit": false,
      "t": 56153.515275,
      "d": 787.499212499999,
      "v": 100
    },
    {
      "midi": 47,
      "hit": false,
      "t": 56571.371999999996,
      "d": 1714.2839999999997,
      "v": 100
    },
    {
      "midi": 47,
      "hit": false,
      "t": 56571.371999999996,
      "d": 1714.2839999999997,
      "v": 100
    },
    {
      "midi": 59,
      "hit": false,
      "t": 57010.657275,
      "d": 787.499212499999,
      "v": 100
    },
    {
      "midi": 59,
      "hit": false,
      "t": 57010.657275,
      "d": 787.499212499999,
      "v": 100
    },
    {
      "midi": 63,
      "hit": false,
      "t": 57428.513999999996,
      "d": 601.7851125000016,
      "v": 100
    },
    {
      "midi": 63,
      "hit": false,
      "t": 57428.513999999996,
      "d": 601.7851125000016,
      "v": 100
    },
    {
      "midi": 64,
      "hit": false,
      "t": 57867.799275,
      "d": 624.9993749999994,
      "v": 100
    },
    {
      "midi": 64,
      "hit": false,
      "t": 57867.799275,
      "d": 624.9993749999994,
      "v": 100
    },
    {
      "midi": 49,
      "hit": false,
      "t": 58285.655999999995,
      "d": 1714.2839999999997,
      "v": 100
    },
    {
      "midi": 49,
      "hit": false,
      "t": 58285.655999999995,
      "d": 1714.2839999999997,
      "v": 100
    },
    {
      "midi": 61,
      "hit": false,
      "t": 58724.941275,
      "d": 741.0706875000033,
      "v": 100
    },
    {
      "midi": 61,
      "hit": false,
      "t": 58724.941275,
      "d": 741.0706875000033,
      "v": 100
    },
    {
      "midi": 64,
      "hit": false,
      "t": 59142.797999999995,
      "d": 694.6421625000003,
      "v": 100
    },
    {
      "midi": 64,
      "hit": false,
      "t": 59142.797999999995,
      "d": 694.6421625000003,
      "v": 100
    },
    {
      "midi": 71,
      "hit": false,
      "t": 59187.4408125,
      "d": 787.499212499999,
      "v": 100
    },
    {
      "midi": 71,
      "hit": false,
      "t": 59187.4408125,
      "d": 787.499212499999,
      "v": 100
    },
    {
      "midi": 69,
      "hit": false,
      "t": 59582.083275,
      "d": 903.5705250000028,
      "v": 100
    },
    {
      "midi": 57,
      "hit": false,
      "t": 59582.083275,
      "d": 2062.4979374999966,
      "v": 100
    },
    {
      "midi": 69,
      "hit": false,
      "t": 59582.083275,
      "d": 903.5705250000028,
      "v": 100
    },
    {
      "midi": 57,
      "hit": false,
      "t": 59582.083275,
      "d": 2062.4979374999966,
      "v": 100
    },
    {
      "midi": 68,
      "hit": false,
      "t": 60439.225275,
      "d": 741.0706875000033,
      "v": 100
    },
    {
      "midi": 68,
      "hit": false,
      "t": 60439.225275,
      "d": 741.0706875000033,
      "v": 100
    },
    {
      "midi": 66,
      "hit": false,
      "t": 60857.082,
      "d": 671.4278999999951,
      "v": 100
    },
    {
      "midi": 66,
      "hit": false,
      "t": 60857.082,
      "d": 671.4278999999951,
      "v": 100
    },
    {
      "midi": 64,
      "hit": false,
      "t": 61296.367275,
      "d": 741.070687499996,
      "v": 100
    },
    {
      "midi": 64,
      "hit": false,
      "t": 61296.367275,
      "d": 741.070687499996,
      "v": 100
    },
    {
      "midi": 52,
      "hit": false,
      "t": 61714.223999999995,
      "d": 1714.2839999999924,
      "v": 100
    },
    {
      "midi": 52,
      "hit": false,
      "t": 61714.223999999995,
      "d": 1714.2839999999924,
      "v": 100
    },
    {
      "midi": 59,
      "hit": false,
      "t": 62153.50927499999,
      "d": 857.1419999999998,
      "v": 100
    },
    {
      "midi": 59,
      "hit": false,
      "t": 62153.50927499999,
      "d": 857.1419999999998,
      "v": 100
    },
    {
      "midi": 64,
      "hit": false,
      "t": 62571.36599999999,
      "d": 787.499212499999,
      "v": 100
    },
    {
      "midi": 64,
      "hit": false,
      "t": 62571.36599999999,
      "d": 787.499212499999,
      "v": 100
    },
    {
      "midi": 71,
      "hit": false,
      "t": 63010.65127499999,
      "d": 787.499212499999,
      "v": 100
    },
    {
      "midi": 71,
      "hit": false,
      "t": 63010.65127499999,
      "d": 787.499212499999,
      "v": 100
    },
    {
      "midi": 47,
      "hit": false,
      "t": 63428.50799999999,
      "d": 1714.2839999999997,
      "v": 100
    },
    {
      "midi": 47,
      "hit": false,
      "t": 63428.50799999999,
      "d": 1714.2839999999997,
      "v": 100
    },
    {
      "midi": 59,
      "hit": false,
      "t": 63867.79327499999,
      "d": 787.499212499999,
      "v": 100
    },
    {
      "midi": 59,
      "hit": false,
      "t": 63867.79327499999,
      "d": 787.499212499999,
      "v": 100
    },
    {
      "midi": 63,
      "hit": false,
      "t": 64285.64999999999,
      "d": 601.7851125000016,
      "v": 100
    },
    {
      "midi": 63,
      "hit": false,
      "t": 64285.64999999999,
      "d": 601.7851125000016,
      "v": 100
    },
    {
      "midi": 64,
      "hit": false,
      "t": 64724.93527499999,
      "d": 3776.7819375000036,
      "v": 100
    },
    {
      "midi": 64,
      "hit": false,
      "t": 64724.93527499999,
      "d": 3776.7819375000036,
      "v": 100
    },
    {
      "midi": 62,
      "hit": false,
      "t": 65142.79199999999,
      "d": 3358.9252125000057,
      "v": 100
    },
    {
      "midi": 57,
      "hit": false,
      "t": 65142.79199999999,
      "d": 3382.1394750000036,
      "v": 100
    },
    {
      "midi": 54,
      "hit": false,
      "t": 65142.79199999999,
      "d": 3428.5679999999993,
      "v": 100
    },
    {
      "midi": 62,
      "hit": false,
      "t": 65142.79199999999,
      "d": 3358.9252125000057,
      "v": 100
    },
    {
      "midi": 57,
      "hit": false,
      "t": 65142.79199999999,
      "d": 3382.1394750000036,
      "v": 100
    },
    {
      "midi": 54,
      "hit": false,
      "t": 65142.79199999999,
      "d": 3428.5679999999993,
      "v": 100
    },
    {
      "midi": 56,
      "hit": false,
      "t": 68571.35999999999,
      "d": 857.1420000000071,
      "v": 100
    },
    {
      "midi": 59,
      "hit": false,
      "t": 68571.35999999999,
      "d": 857.1420000000071,
      "v": 100
    },
    {
      "midi": 40,
      "hit": false,
      "t": 68571.35999999999,
      "d": 1735.712550000011,
      "v": 100
    },
    {
      "midi": 52,
      "hit": false,
      "t": 68571.35999999999,
      "d": 1782.1410750000068,
      "v": 120
    },
    {
      "midi": 56,
      "hit": false,
      "t": 68571.35999999999,
      "d": 857.1420000000071,
      "v": 100
    },
    {
      "midi": 59,
      "hit": false,
      "t": 68571.35999999999,
      "d": 857.1420000000071,
      "v": 100
    },
    {
      "midi": 40,
      "hit": false,
      "t": 68571.35999999999,
      "d": 1735.712550000011,
      "v": 100
    },
    {
      "midi": 52,
      "hit": false,
      "t": 68571.35999999999,
      "d": 1782.1410750000068,
      "v": 120
    },
    {
      "midi": 59,
      "hit": false,
      "t": 69428.502,
      "d": 901.7848125000019,
      "v": 100
    },
    {
      "midi": 56,
      "hit": false,
      "t": 69428.502,
      "d": 924.9990749999997,
      "v": 100
    },
    {
      "midi": 59,
      "hit": false,
      "t": 69428.502,
      "d": 901.7848125000019,
      "v": 100
    },
    {
      "midi": 56,
      "hit": false,
      "t": 69428.502,
      "d": 924.9990749999997,
      "v": 100
    },
    {
      "midi": 54,
      "hit": false,
      "t": 70285.644,
      "d": 810.7134749999968,
      "v": 100
    },
    {
      "midi": 51,
      "hit": false,
      "t": 70285.644,
      "d": 857.1419999999925,
      "v": 100
    },
    {
      "midi": 35,
      "hit": false,
      "t": 70285.644,
      "d": 1667.8554749999894,
      "v": 100
    },
    {
      "midi": 47,
      "hit": false,
      "t": 70285.644,
      "d": 1714.283999999985,
      "v": 120
    },
    {
      "midi": 54,
      "hit": false,
      "t": 70285.644,
      "d": 810.7134749999968,
      "v": 100
    },
    {
      "midi": 51,
      "hit": false,
      "t": 70285.644,
      "d": 857.1419999999925,
      "v": 100
    },
    {
      "midi": 35,
      "hit": false,
      "t": 70285.644,
      "d": 1667.8554749999894,
      "v": 100
    },
    {
      "midi": 47,
      "hit": false,
      "t": 70285.644,
      "d": 1714.283999999985,
      "v": 120
    },
    {
      "midi": 51,
      "hit": false,
      "t": 71142.786,
      "d": 857.1419999999925,
      "v": 100
    },
    {
      "midi": 54,
      "hit": false,
      "t": 71142.786,
      "d": 878.5705499999895,
      "v": 100
    },
    {
      "midi": 51,
      "hit": false,
      "t": 71142.786,
      "d": 857.1419999999925,
      "v": 100
    },
    {
      "midi": 54,
      "hit": false,
      "t": 71142.786,
      "d": 878.5705499999895,
      "v": 100
    },
    {
      "midi": 52,
      "hit": false,
      "t": 71999.92799999999,
      "d": 857.1419999999925,
      "v": 100
    },
    {
      "midi": 56,
      "hit": false,
      "t": 71999.92799999999,
      "d": 857.1419999999925,
      "v": 100
    },
    {
      "midi": 37,
      "hit": false,
      "t": 71999.92799999999,
      "d": 1714.2839999999997,
      "v": 100
    },
    {
      "midi": 49,
      "hit": false,
      "t": 71999.92799999999,
      "d": 1714.2839999999997,
      "v": 120
    },
    {
      "midi": 52,
      "hit": false,
      "t": 71999.92799999999,
      "d": 857.1419999999925,
      "v": 100
    },
    {
      "midi": 56,
      "hit": false,
      "t": 71999.92799999999,
      "d": 857.1419999999925,
      "v": 100
    },
    {
      "midi": 37,
      "hit": false,
      "t": 71999.92799999999,
      "d": 1714.2839999999997,
      "v": 100
    },
    {
      "midi": 49,
      "hit": false,
      "t": 71999.92799999999,
      "d": 1714.2839999999997,
      "v": 120
    },
    {
      "midi": 52,
      "hit": false,
      "t": 72857.06999999998,
      "d": 857.1420000000071,
      "v": 100
    },
    {
      "midi": 56,
      "hit": false,
      "t": 72857.06999999998,
      "d": 878.570550000004,
      "v": 100
    },
    {
      "midi": 52,
      "hit": false,
      "t": 72857.06999999998,
      "d": 857.1420000000071,
      "v": 100
    },
    {
      "midi": 56,
      "hit": false,
      "t": 72857.06999999998,
      "d": 878.570550000004,
      "v": 100
    },
    {
      "midi": 49,
      "hit": false,
      "t": 73714.21199999998,
      "d": 857.1419999999925,
      "v": 100
    },
    {
      "midi": 52,
      "hit": false,
      "t": 73714.21199999998,
      "d": 857.1419999999925,
      "v": 100
    },
    {
      "midi": 33,
      "hit": false,
      "t": 73714.21199999998,
      "d": 1714.2839999999997,
      "v": 100
    },
    {
      "midi": 45,
      "hit": false,
      "t": 73714.21199999998,
      "d": 1735.7125499999966,
      "v": 120
    },
    {
      "midi": 49,
      "hit": false,
      "t": 73714.21199999998,
      "d": 857.1419999999925,
      "v": 100
    },
    {
      "midi": 52,
      "hit": false,
      "t": 73714.21199999998,
      "d": 857.1419999999925,
      "v": 100
    },
    {
      "midi": 33,
      "hit": false,
      "t": 73714.21199999998,
      "d": 1714.2839999999997,
      "v": 100
    },
    {
      "midi": 45,
      "hit": false,
      "t": 73714.21199999998,
      "d": 1735.7125499999966,
      "v": 120
    },
    {
      "midi": 49,
      "hit": false,
      "t": 74571.35399999998,
      "d": 857.1420000000071,
      "v": 100
    },
    {
      "midi": 52,
      "hit": false,
      "t": 74571.35399999998,
      "d": 857.1420000000071,
      "v": 100
    },
    {
      "midi": 49,
      "hit": false,
      "t": 74571.35399999998,
      "d": 857.1420000000071,
      "v": 100
    },
    {
      "midi": 52,
      "hit": false,
      "t": 74571.35399999998,
      "d": 857.1420000000071,
      "v": 100
    },
    {
      "midi": 56,
      "hit": false,
      "t": 75428.49599999998,
      "d": 857.1419999999925,
      "v": 100
    },
    {
      "midi": 59,
      "hit": false,
      "t": 75428.49599999998,
      "d": 857.1419999999925,
      "v": 100
    },
    {
      "midi": 40,
      "hit": false,
      "t": 75428.49599999998,
      "d": 1735.7125499999966,
      "v": 100
    },
    {
      "midi": 52,
      "hit": false,
      "t": 75428.49599999998,
      "d": 1782.1410749999923,
      "v": 120
    },
    {
      "midi": 56,
      "hit": false,
      "t": 75428.49599999998,
      "d": 857.1419999999925,
      "v": 100
    },
    {
      "midi": 59,
      "hit": false,
      "t": 75428.49599999998,
      "d": 857.1419999999925,
      "v": 100
    },
    {
      "midi": 40,
      "hit": false,
      "t": 75428.49599999998,
      "d": 1735.7125499999966,
      "v": 100
    },
    {
      "midi": 52,
      "hit": false,
      "t": 75428.49599999998,
      "d": 1782.1410749999923,
      "v": 120
    },
    {
      "midi": 59,
      "hit": false,
      "t": 76285.63799999998,
      "d": 901.7848125000019,
      "v": 100
    },
    {
      "midi": 56,
      "hit": false,
      "t": 76285.63799999998,
      "d": 924.9990749999997,
      "v": 100
    },
    {
      "midi": 59,
      "hit": false,
      "t": 76285.63799999998,
      "d": 901.7848125000019,
      "v": 100
    },
    {
      "midi": 56,
      "hit": false,
      "t": 76285.63799999998,
      "d": 924.9990749999997,
      "v": 100
    },
    {
      "midi": 54,
      "hit": false,
      "t": 77142.77999999998,
      "d": 810.7134749999968,
      "v": 100
    },
    {
      "midi": 51,
      "hit": false,
      "t": 77142.77999999998,
      "d": 857.1419999999925,
      "v": 100
    },
    {
      "midi": 35,
      "hit": false,
      "t": 77142.77999999998,
      "d": 1667.8554749999894,
      "v": 100
    },
    {
      "midi": 47,
      "hit": false,
      "t": 77142.77999999998,
      "d": 1714.283999999985,
      "v": 120
    },
    {
      "midi": 54,
      "hit": false,
      "t": 77142.77999999998,
      "d": 810.7134749999968,
      "v": 100
    },
    {
      "midi": 51,
      "hit": false,
      "t": 77142.77999999998,
      "d": 857.1419999999925,
      "v": 100
    },
    {
      "midi": 35,
      "hit": false,
      "t": 77142.77999999998,
      "d": 1667.8554749999894,
      "v": 100
    },
    {
      "midi": 47,
      "hit": false,
      "t": 77142.77999999998,
      "d": 1714.283999999985,
      "v": 120
    },
    {
      "midi": 51,
      "hit": false,
      "t": 77999.92199999998,
      "d": 857.1419999999925,
      "v": 100
    },
    {
      "midi": 54,
      "hit": false,
      "t": 77999.92199999998,
      "d": 878.5705499999895,
      "v": 100
    },
    {
      "midi": 51,
      "hit": false,
      "t": 77999.92199999998,
      "d": 857.1419999999925,
      "v": 100
    },
    {
      "midi": 54,
      "hit": false,
      "t": 77999.92199999998,
      "d": 878.5705499999895,
      "v": 100
    },
    {
      "midi": 52,
      "hit": false,
      "t": 78857.06399999997,
      "d": 857.1419999999925,
      "v": 100
    },
    {
      "midi": 56,
      "hit": false,
      "t": 78857.06399999997,
      "d": 857.1419999999925,
      "v": 100
    },
    {
      "midi": 37,
      "hit": false,
      "t": 78857.06399999997,
      "d": 1714.2839999999997,
      "v": 100
    },
    {
      "midi": 49,
      "hit": false,
      "t": 78857.06399999997,
      "d": 1714.2839999999997,
      "v": 120
    },
    {
      "midi": 52,
      "hit": false,
      "t": 78857.06399999997,
      "d": 857.1419999999925,
      "v": 100
    },
    {
      "midi": 56,
      "hit": false,
      "t": 78857.06399999997,
      "d": 857.1419999999925,
      "v": 100
    },
    {
      "midi": 37,
      "hit": false,
      "t": 78857.06399999997,
      "d": 1714.2839999999997,
      "v": 100
    },
    {
      "midi": 49,
      "hit": false,
      "t": 78857.06399999997,
      "d": 1714.2839999999997,
      "v": 120
    },
    {
      "midi": 52,
      "hit": false,
      "t": 79714.20599999996,
      "d": 857.1420000000071,
      "v": 100
    },
    {
      "midi": 56,
      "hit": false,
      "t": 79714.20599999996,
      "d": 878.570550000004,
      "v": 100
    },
    {
      "midi": 52,
      "hit": false,
      "t": 79714.20599999996,
      "d": 857.1420000000071,
      "v": 100
    },
    {
      "midi": 56,
      "hit": false,
      "t": 79714.20599999996,
      "d": 878.570550000004,
      "v": 100
    },
    {
      "midi": 49,
      "hit": false,
      "t": 80571.34799999997,
      "d": 857.1419999999925,
      "v": 100
    },
    {
      "midi": 52,
      "hit": false,
      "t": 80571.34799999997,
      "d": 857.1419999999925,
      "v": 100
    },
    {
      "midi": 33,
      "hit": false,
      "t": 80571.34799999997,
      "d": 1714.2839999999997,
      "v": 100
    },
    {
      "midi": 45,
      "hit": false,
      "t": 80571.34799999997,
      "d": 1735.7125499999966,
      "v": 120
    },
    {
      "midi": 49,
      "hit": false,
      "t": 80571.34799999997,
      "d": 857.1419999999925,
      "v": 100
    },
    {
      "midi": 52,
      "hit": false,
      "t": 80571.34799999997,
      "d": 857.1419999999925,
      "v": 100
    },
    {
      "midi": 33,
      "hit": false,
      "t": 80571.34799999997,
      "d": 1714.2839999999997,
      "v": 100
    },
    {
      "midi": 45,
      "hit": false,
      "t": 80571.34799999997,
      "d": 1735.7125499999966,
      "v": 120
    },
    {
      "midi": 49,
      "hit": false,
      "t": 81428.48999999996,
      "d": 857.1420000000071,
      "v": 100
    },
    {
      "midi": 52,
      "hit": false,
      "t": 81428.48999999996,
      "d": 857.1420000000071,
      "v": 100
    },
    {
      "midi": 49,
      "hit": false,
      "t": 81428.48999999996,
      "d": 857.1420000000071,
      "v": 100
    },
    {
      "midi": 52,
      "hit": false,
      "t": 81428.48999999996,
      "d": 857.1420000000071,
      "v": 100
    },
    {
      "midi": 56,
      "hit": false,
      "t": 82285.63199999997,
      "d": 857.1419999999925,
      "v": 100
    },
    {
      "midi": 59,
      "hit": false,
      "t": 82285.63199999997,
      "d": 857.1419999999925,
      "v": 100
    },
    {
      "midi": 40,
      "hit": false,
      "t": 82285.63199999997,
      "d": 1735.7125499999966,
      "v": 100
    },
    {
      "midi": 52,
      "hit": false,
      "t": 82285.63199999997,
      "d": 1782.1410749999923,
      "v": 120
    },
    {
      "midi": 56,
      "hit": false,
      "t": 82285.63199999997,
      "d": 857.1419999999925,
      "v": 100
    },
    {
      "midi": 59,
      "hit": false,
      "t": 82285.63199999997,
      "d": 857.1419999999925,
      "v": 100
    },
    {
      "midi": 40,
      "hit": false,
      "t": 82285.63199999997,
      "d": 1735.7125499999966,
      "v": 100
    },
    {
      "midi": 52,
      "hit": false,
      "t": 82285.63199999997,
      "d": 1782.1410749999923,
      "v": 120
    },
    {
      "midi": 59,
      "hit": false,
      "t": 83142.77399999996,
      "d": 901.7848125000019,
      "v": 100
    },
    {
      "midi": 56,
      "hit": false,
      "t": 83142.77399999996,
      "d": 924.9990749999997,
      "v": 100
    },
    {
      "midi": 59,
      "hit": false,
      "t": 83142.77399999996,
      "d": 901.7848125000019,
      "v": 100
    },
    {
      "midi": 56,
      "hit": false,
      "t": 83142.77399999996,
      "d": 924.9990749999997,
      "v": 100
    },
    {
      "midi": 54,
      "hit": false,
      "t": 83999.91599999997,
      "d": 810.7134749999968,
      "v": 100
    },
    {
      "midi": 51,
      "hit": false,
      "t": 83999.91599999997,
      "d": 857.1419999999925,
      "v": 100
    },
    {
      "midi": 35,
      "hit": false,
      "t": 83999.91599999997,
      "d": 1667.8554749999894,
      "v": 100
    },
    {
      "midi": 47,
      "hit": false,
      "t": 83999.91599999997,
      "d": 1714.283999999985,
      "v": 120
    },
    {
      "midi": 54,
      "hit": false,
      "t": 83999.91599999997,
      "d": 810.7134749999968,
      "v": 100
    },
    {
      "midi": 51,
      "hit": false,
      "t": 83999.91599999997,
      "d": 857.1419999999925,
      "v": 100
    },
    {
      "midi": 35,
      "hit": false,
      "t": 83999.91599999997,
      "d": 1667.8554749999894,
      "v": 100
    },
    {
      "midi": 47,
      "hit": false,
      "t": 83999.91599999997,
      "d": 1714.283999999985,
      "v": 120
    },
    {
      "midi": 51,
      "hit": false,
      "t": 84857.05799999996,
      "d": 857.1419999999925,
      "v": 100
    },
    {
      "midi": 54,
      "hit": false,
      "t": 84857.05799999996,
      "d": 878.5705499999895,
      "v": 100
    },
    {
      "midi": 51,
      "hit": false,
      "t": 84857.05799999996,
      "d": 857.1419999999925,
      "v": 100
    },
    {
      "midi": 54,
      "hit": false,
      "t": 84857.05799999996,
      "d": 878.5705499999895,
      "v": 100
    },
    {
      "midi": 52,
      "hit": false,
      "t": 85714.19999999995,
      "d": 857.1419999999925,
      "v": 100
    },
    {
      "midi": 56,
      "hit": false,
      "t": 85714.19999999995,
      "d": 857.1419999999925,
      "v": 100
    },
    {
      "midi": 37,
      "hit": false,
      "t": 85714.19999999995,
      "d": 1714.2839999999997,
      "v": 100
    },
    {
      "midi": 49,
      "hit": false,
      "t": 85714.19999999995,
      "d": 1714.2839999999997,
      "v": 120
    },
    {
      "midi": 52,
      "hit": false,
      "t": 85714.19999999995,
      "d": 857.1419999999925,
      "v": 100
    },
    {
      "midi": 56,
      "hit": false,
      "t": 85714.19999999995,
      "d": 857.1419999999925,
      "v": 100
    },
    {
      "midi": 37,
      "hit": false,
      "t": 85714.19999999995,
      "d": 1714.2839999999997,
      "v": 100
    },
    {
      "midi": 49,
      "hit": false,
      "t": 85714.19999999995,
      "d": 1714.2839999999997,
      "v": 120
    },
    {
      "midi": 52,
      "hit": false,
      "t": 86571.34199999995,
      "d": 857.1420000000071,
      "v": 100
    },
    {
      "midi": 56,
      "hit": false,
      "t": 86571.34199999995,
      "d": 878.570550000004,
      "v": 100
    },
    {
      "midi": 52,
      "hit": false,
      "t": 86571.34199999995,
      "d": 857.1420000000071,
      "v": 100
    },
    {
      "midi": 56,
      "hit": false,
      "t": 86571.34199999995,
      "d": 878.570550000004,
      "v": 100
    },
    {
      "midi": 49,
      "hit": false,
      "t": 87428.48399999995,
      "d": 857.1419999999925,
      "v": 100
    },
    {
      "midi": 52,
      "hit": false,
      "t": 87428.48399999995,
      "d": 857.1419999999925,
      "v": 100
    },
    {
      "midi": 33,
      "hit": false,
      "t": 87428.48399999995,
      "d": 1714.2839999999997,
      "v": 100
    },
    {
      "midi": 45,
      "hit": false,
      "t": 87428.48399999995,
      "d": 1735.7125499999966,
      "v": 120
    },
    {
      "midi": 49,
      "hit": false,
      "t": 87428.48399999995,
      "d": 857.1419999999925,
      "v": 100
    },
    {
      "midi": 52,
      "hit": false,
      "t": 87428.48399999995,
      "d": 857.1419999999925,
      "v": 100
    },
    {
      "midi": 33,
      "hit": false,
      "t": 87428.48399999995,
      "d": 1714.2839999999997,
      "v": 100
    },
    {
      "midi": 45,
      "hit": false,
      "t": 87428.48399999995,
      "d": 1735.7125499999966,
      "v": 120
    },
    {
      "midi": 49,
      "hit": false,
      "t": 88285.62599999995,
      "d": 857.1420000000071,
      "v": 100
    },
    {
      "midi": 52,
      "hit": false,
      "t": 88285.62599999995,
      "d": 857.1420000000071,
      "v": 100
    },
    {
      "midi": 49,
      "hit": false,
      "t": 88285.62599999995,
      "d": 857.1420000000071,
      "v": 100
    },
    {
      "midi": 52,
      "hit": false,
      "t": 88285.62599999995,
      "d": 857.1420000000071,
      "v": 100
    },
    {
      "midi": 42,
      "hit": false,
      "t": 89142.76799999995,
      "d": 1714.2839999999997,
      "v": 100
    },
    {
      "midi": 57,
      "hit": false,
      "t": 89142.76799999995,
      "d": 1714.2839999999997,
      "v": 100
    },
    {
      "midi": 61,
      "hit": false,
      "t": 89142.76799999995,
      "d": 1735.7125499999966,
      "v": 100
    },
    {
      "midi": 54,
      "hit": false,
      "t": 89142.76799999995,
      "d": 1758.9268124999944,
      "v": 100
    },
    {
      "midi": 42,
      "hit": false,
      "t": 89142.76799999995,
      "d": 1714.2839999999997,
      "v": 100
    },
    {
      "midi": 57,
      "hit": false,
      "t": 89142.76799999995,
      "d": 1714.2839999999997,
      "v": 100
    },
    {
      "midi": 61,
      "hit": false,
      "t": 89142.76799999995,
      "d": 1735.7125499999966,
      "v": 100
    },
    {
      "midi": 54,
      "hit": false,
      "t": 89142.76799999995,
      "d": 1758.9268124999944,
      "v": 100
    },
    {
      "midi": 44,
      "hit": false,
      "t": 90857.05199999995,
      "d": 1714.2839999999997,
      "v": 100
    },
    {
      "midi": 56,
      "hit": false,
      "t": 90857.05199999995,
      "d": 1714.2839999999997,
      "v": 100
    },
    {
      "midi": 59,
      "hit": false,
      "t": 90857.05199999995,
      "d": 1714.2839999999997,
      "v": 100
    },
    {
      "midi": 64,
      "hit": false,
      "t": 90857.05199999995,
      "d": 1714.2839999999997,
      "v": 100
    },
    {
      "midi": 44,
      "hit": false,
      "t": 90857.05199999995,
      "d": 1714.2839999999997,
      "v": 100
    },
    {
      "midi": 56,
      "hit": false,
      "t": 90857.05199999995,
      "d": 1714.2839999999997,
      "v": 100
    },
    {
      "midi": 59,
      "hit": false,
      "t": 90857.05199999995,
      "d": 1714.2839999999997,
      "v": 100
    },
    {
      "midi": 64,
      "hit": false,
      "t": 90857.05199999995,
      "d": 1714.2839999999997,
      "v": 100
    },
    {
      "midi": 45,
      "hit": false,
      "t": 92571.33599999995,
      "d": 3428.5679999999993,
      "v": 100
    },
    {
      "midi": 57,
      "hit": false,
      "t": 92571.33599999995,
      "d": 3428.5679999999993,
      "v": 100
    },
    {
      "midi": 61,
      "hit": false,
      "t": 92571.33599999995,
      "d": 3428.5679999999993,
      "v": 100
    },
    {
      "midi": 64,
      "hit": false,
      "t": 92571.33599999995,
      "d": 3428.5679999999993,
      "v": 100
    },
    {
      "midi": 45,
      "hit": false,
      "t": 92571.33599999995,
      "d": 3428.5679999999993,
      "v": 100
    },
    {
      "midi": 57,
      "hit": false,
      "t": 92571.33599999995,
      "d": 3428.5679999999993,
      "v": 100
    },
    {
      "midi": 61,
      "hit": false,
      "t": 92571.33599999995,
      "d": 3428.5679999999993,
      "v": 100
    },
    {
      "midi": 64,
      "hit": false,
      "t": 92571.33599999995,
      "d": 3428.5679999999993,
      "v": 100
    },
    {
      "midi": 45,
      "hit": false,
      "t": 95999.90399999995,
      "d": 1714.2839999999997,
      "v": 100
    },
    {
      "midi": 57,
      "hit": false,
      "t": 95999.90399999995,
      "d": 1714.2839999999997,
      "v": 100
    },
    {
      "midi": 61,
      "hit": false,
      "t": 95999.90399999995,
      "d": 1714.2839999999997,
      "v": 100
    },
    {
      "midi": 64,
      "hit": false,
      "t": 95999.90399999995,
      "d": 1714.2839999999997,
      "v": 100
    },
    {
      "midi": 45,
      "hit": false,
      "t": 95999.90399999995,
      "d": 1714.2839999999997,
      "v": 100
    },
    {
      "midi": 57,
      "hit": false,
      "t": 95999.90399999995,
      "d": 1714.2839999999997,
      "v": 100
    },
    {
      "midi": 61,
      "hit": false,
      "t": 95999.90399999995,
      "d": 1714.2839999999997,
      "v": 100
    },
    {
      "midi": 64,
      "hit": false,
      "t": 95999.90399999995,
      "d": 1714.2839999999997,
      "v": 100
    },
    {
      "midi": 44,
      "hit": false,
      "t": 97714.18799999995,
      "d": 1714.2839999999997,
      "v": 100
    },
    {
      "midi": 56,
      "hit": false,
      "t": 97714.18799999995,
      "d": 1714.2839999999997,
      "v": 100
    },
    {
      "midi": 59,
      "hit": false,
      "t": 97714.18799999995,
      "d": 1714.2839999999997,
      "v": 100
    },
    {
      "midi": 64,
      "hit": false,
      "t": 97714.18799999995,
      "d": 1714.2839999999997,
      "v": 100
    },
    {
      "midi": 44,
      "hit": false,
      "t": 97714.18799999995,
      "d": 1714.2839999999997,
      "v": 100
    },
    {
      "midi": 56,
      "hit": false,
      "t": 97714.18799999995,
      "d": 1714.2839999999997,
      "v": 100
    },
    {
      "midi": 59,
      "hit": false,
      "t": 97714.18799999995,
      "d": 1714.2839999999997,
      "v": 100
    },
    {
      "midi": 64,
      "hit": false,
      "t": 97714.18799999995,
      "d": 1714.2839999999997,
      "v": 100
    },
    {
      "midi": 38,
      "hit": false,
      "t": 99428.47199999995,
      "d": 3428.5679999999993,
      "v": 100
    },
    {
      "midi": 50,
      "hit": false,
      "t": 99428.47199999995,
      "d": 3428.5679999999993,
      "v": 100
    },
    {
      "midi": 54,
      "hit": false,
      "t": 99428.47199999995,
      "d": 3428.5679999999993,
      "v": 100
    },
    {
      "midi": 57,
      "hit": false,
      "t": 99428.47199999995,
      "d": 3428.5679999999993,
      "v": 100
    },
    {
      "midi": 38,
      "hit": false,
      "t": 99428.47199999995,
      "d": 3428.5679999999993,
      "v": 100
    },
    {
      "midi": 50,
      "hit": false,
      "t": 99428.47199999995,
      "d": 3428.5679999999993,
      "v": 100
    },
    {
      "midi": 54,
      "hit": false,
      "t": 99428.47199999995,
      "d": 3428.5679999999993,
      "v": 100
    },
    {
      "midi": 57,
      "hit": false,
      "t": 99428.47199999995,
      "d": 3428.5679999999993,
      "v": 100
    },
    {
      "midi": 52,
      "hit": false,
      "t": 102857.03999999995,
      "d": 1714.2839999999997,
      "v": 100
    },
    {
      "midi": 52,
      "hit": false,
      "t": 102857.03999999995,
      "d": 1714.2839999999997,
      "v": 100
    },
    {
      "midi": 59,
      "hit": false,
      "t": 103296.32527499995,
      "d": 857.1420000000071,
      "v": 100
    },
    {
      "midi": 59,
      "hit": false,
      "t": 103296.32527499995,
      "d": 857.1420000000071,
      "v": 100
    },
    {
      "midi": 64,
      "hit": false,
      "t": 103714.18199999996,
      "d": 787.499212499999,
      "v": 100
    },
    {
      "midi": 64,
      "hit": false,
      "t": 103714.18199999996,
      "d": 787.499212499999,
      "v": 100
    },
    {
      "midi": 71,
      "hit": false,
      "t": 104153.46727499996,
      "d": 787.4992124999844,
      "v": 100
    },
    {
      "midi": 71,
      "hit": false,
      "t": 104153.46727499996,
      "d": 787.4992124999844,
      "v": 100
    },
    {
      "midi": 47,
      "hit": false,
      "t": 104571.32399999995,
      "d": 1714.283999999985,
      "v": 100
    },
    {
      "midi": 47,
      "hit": false,
      "t": 104571.32399999995,
      "d": 1714.283999999985,
      "v": 100
    },
    {
      "midi": 59,
      "hit": false,
      "t": 105010.60927499994,
      "d": 787.499212499999,
      "v": 100
    },
    {
      "midi": 59,
      "hit": false,
      "t": 105010.60927499994,
      "d": 787.499212499999,
      "v": 100
    },
    {
      "midi": 63,
      "hit": false,
      "t": 105428.46599999994,
      "d": 601.785112499987,
      "v": 100
    },
    {
      "midi": 63,
      "hit": false,
      "t": 105428.46599999994,
      "d": 601.785112499987,
      "v": 100
    },
    {
      "midi": 64,
      "hit": false,
      "t": 105867.75127499993,
      "d": 624.9993749999994,
      "v": 100
    },
    {
      "midi": 64,
      "hit": false,
      "t": 105867.75127499993,
      "d": 624.9993749999994,
      "v": 100
    },
    {
      "midi": 49,
      "hit": false,
      "t": 106285.60799999993,
      "d": 1714.2839999999997,
      "v": 100
    },
    {
      "midi": 49,
      "hit": false,
      "t": 106285.60799999993,
      "d": 1714.2839999999997,
      "v": 100
    },
    {
      "midi": 61,
      "hit": false,
      "t": 106724.89327499992,
      "d": 741.0706875000033,
      "v": 100
    },
    {
      "midi": 61,
      "hit": false,
      "t": 106724.89327499992,
      "d": 741.0706875000033,
      "v": 100
    },
    {
      "midi": 64,
      "hit": false,
      "t": 107142.74999999993,
      "d": 694.6421625000075,
      "v": 100
    },
    {
      "midi": 64,
      "hit": false,
      "t": 107142.74999999993,
      "d": 694.6421625000075,
      "v": 100
    },
    {
      "midi": 71,
      "hit": false,
      "t": 107187.39281249992,
      "d": 787.4992125000135,
      "v": 100
    },
    {
      "midi": 71,
      "hit": false,
      "t": 107187.39281249992,
      "d": 787.4992125000135,
      "v": 100
    },
    {
      "midi": 69,
      "hit": false,
      "t": 107582.03527499993,
      "d": 903.5705250000028,
      "v": 100
    },
    {
      "midi": 57,
      "hit": false,
      "t": 107582.03527499993,
      "d": 2062.4979374999966,
      "v": 100
    },
    {
      "midi": 69,
      "hit": false,
      "t": 107582.03527499993,
      "d": 903.5705250000028,
      "v": 100
    },
    {
      "midi": 57,
      "hit": false,
      "t": 107582.03527499993,
      "d": 2062.4979374999966,
      "v": 100
    },
    {
      "midi": 68,
      "hit": false,
      "t": 108439.17727499994,
      "d": 741.0706874999887,
      "v": 100
    },
    {
      "midi": 68,
      "hit": false,
      "t": 108439.17727499994,
      "d": 741.0706874999887,
      "v": 100
    },
    {
      "midi": 66,
      "hit": false,
      "t": 108857.03399999993,
      "d": 671.4278999999951,
      "v": 100
    },
    {
      "midi": 66,
      "hit": false,
      "t": 108857.03399999993,
      "d": 671.4278999999951,
      "v": 100
    },
    {
      "midi": 64,
      "hit": false,
      "t": 109296.31927499993,
      "d": 741.0706874999887,
      "v": 100
    },
    {
      "midi": 64,
      "hit": false,
      "t": 109296.31927499993,
      "d": 741.0706874999887,
      "v": 100
    },
    {
      "midi": 52,
      "hit": false,
      "t": 109714.17599999992,
      "d": 1714.2839999999997,
      "v": 100
    },
    {
      "midi": 52,
      "hit": false,
      "t": 109714.17599999992,
      "d": 1714.2839999999997,
      "v": 100
    },
    {
      "midi": 59,
      "hit": false,
      "t": 110153.46127499992,
      "d": 857.1420000000071,
      "v": 100
    },
    {
      "midi": 59,
      "hit": false,
      "t": 110153.46127499992,
      "d": 857.1420000000071,
      "v": 100
    },
    {
      "midi": 64,
      "hit": false,
      "t": 110571.31799999993,
      "d": 787.499212499999,
      "v": 100
    },
    {
      "midi": 64,
      "hit": false,
      "t": 110571.31799999993,
      "d": 787.499212499999,
      "v": 100
    },
    {
      "midi": 71,
      "hit": false,
      "t": 111010.60327499993,
      "d": 787.4992124999844,
      "v": 100
    },
    {
      "midi": 71,
      "hit": false,
      "t": 111010.60327499993,
      "d": 787.4992124999844,
      "v": 100
    },
    {
      "midi": 47,
      "hit": false,
      "t": 111428.45999999992,
      "d": 1714.283999999985,
      "v": 100
    },
    {
      "midi": 47,
      "hit": false,
      "t": 111428.45999999992,
      "d": 1714.283999999985,
      "v": 100
    },
    {
      "midi": 59,
      "hit": false,
      "t": 111867.7452749999,
      "d": 787.499212499999,
      "v": 100
    },
    {
      "midi": 59,
      "hit": false,
      "t": 111867.7452749999,
      "d": 787.499212499999,
      "v": 100
    },
    {
      "midi": 63,
      "hit": false,
      "t": 112285.60199999991,
      "d": 601.785112499987,
      "v": 100
    },
    {
      "midi": 63,
      "hit": false,
      "t": 112285.60199999991,
      "d": 601.785112499987,
      "v": 100
    },
    {
      "midi": 64,
      "hit": false,
      "t": 112724.8872749999,
      "d": 624.9993749999994,
      "v": 100
    },
    {
      "midi": 64,
      "hit": false,
      "t": 112724.8872749999,
      "d": 624.9993749999994,
      "v": 100
    },
    {
      "midi": 49,
      "hit": false,
      "t": 113142.7439999999,
      "d": 1714.2839999999997,
      "v": 100
    },
    {
      "midi": 49,
      "hit": false,
      "t": 113142.7439999999,
      "d": 1714.2839999999997,
      "v": 100
    },
    {
      "midi": 61,
      "hit": false,
      "t": 113582.02927499989,
      "d": 741.0706875000033,
      "v": 100
    },
    {
      "midi": 61,
      "hit": false,
      "t": 113582.02927499989,
      "d": 741.0706875000033,
      "v": 100
    },
    {
      "midi": 64,
      "hit": false,
      "t": 113999.8859999999,
      "d": 694.6421625000075,
      "v": 100
    },
    {
      "midi": 64,
      "hit": false,
      "t": 113999.8859999999,
      "d": 694.6421625000075,
      "v": 100
    },
    {
      "midi": 71,
      "hit": false,
      "t": 114044.52881249989,
      "d": 787.4992125000135,
      "v": 100
    },
    {
      "midi": 71,
      "hit": false,
      "t": 114044.52881249989,
      "d": 787.4992125000135,
      "v": 100
    },
    {
      "midi": 69,
      "hit": false,
      "t": 114439.1712749999,
      "d": 903.5705250000028,
      "v": 100
    },
    {
      "midi": 57,
      "hit": false,
      "t": 114439.1712749999,
      "d": 2062.4979374999966,
      "v": 100
    },
    {
      "midi": 69,
      "hit": false,
      "t": 114439.1712749999,
      "d": 903.5705250000028,
      "v": 100
    },
    {
      "midi": 57,
      "hit": false,
      "t": 114439.1712749999,
      "d": 2062.4979374999966,
      "v": 100
    },
    {
      "midi": 68,
      "hit": false,
      "t": 115296.3132749999,
      "d": 741.0706874999887,
      "v": 100
    },
    {
      "midi": 68,
      "hit": false,
      "t": 115296.3132749999,
      "d": 741.0706874999887,
      "v": 100
    },
    {
      "midi": 66,
      "hit": false,
      "t": 115714.1699999999,
      "d": 671.4278999999951,
      "v": 100
    },
    {
      "midi": 66,
      "hit": false,
      "t": 115714.1699999999,
      "d": 671.4278999999951,
      "v": 100
    },
    {
      "midi": 64,
      "hit": false,
      "t": 116153.4552749999,
      "d": 741.0706874999887,
      "v": 100
    },
    {
      "midi": 64,
      "hit": false,
      "t": 116153.4552749999,
      "d": 741.0706874999887,
      "v": 100
    },
    {
      "midi": 52,
      "hit": false,
      "t": 116571.31199999989,
      "d": 1714.2839999999997,
      "v": 100
    },
    {
      "midi": 52,
      "hit": false,
      "t": 116571.31199999989,
      "d": 1714.2839999999997,
      "v": 100
    },
    {
      "midi": 59,
      "hit": false,
      "t": 117010.59727499989,
      "d": 857.1420000000071,
      "v": 100
    },
    {
      "midi": 59,
      "hit": false,
      "t": 117010.59727499989,
      "d": 857.1420000000071,
      "v": 100
    },
    {
      "midi": 64,
      "hit": false,
      "t": 117428.4539999999,
      "d": 787.499212499999,
      "v": 100
    },
    {
      "midi": 64,
      "hit": false,
      "t": 117428.4539999999,
      "d": 787.499212499999,
      "v": 100
    },
    {
      "midi": 71,
      "hit": false,
      "t": 117867.7392749999,
      "d": 787.4992124999844,
      "v": 100
    },
    {
      "midi": 71,
      "hit": false,
      "t": 117867.7392749999,
      "d": 787.4992124999844,
      "v": 100
    },
    {
      "midi": 47,
      "hit": false,
      "t": 118285.59599999989,
      "d": 1714.283999999985,
      "v": 100
    },
    {
      "midi": 47,
      "hit": false,
      "t": 118285.59599999989,
      "d": 1714.283999999985,
      "v": 100
    },
    {
      "midi": 59,
      "hit": false,
      "t": 118724.88127499988,
      "d": 787.499212499999,
      "v": 100
    },
    {
      "midi": 59,
      "hit": false,
      "t": 118724.88127499988,
      "d": 787.499212499999,
      "v": 100
    },
    {
      "midi": 63,
      "hit": false,
      "t": 119142.73799999988,
      "d": 601.785112499987,
      "v": 100
    },
    {
      "midi": 63,
      "hit": false,
      "t": 119142.73799999988,
      "d": 601.785112499987,
      "v": 100
    },
    {
      "midi": 64,
      "hit": false,
      "t": 119582.02327499987,
      "d": 624.9993749999994,
      "v": 100
    },
    {
      "midi": 64,
      "hit": false,
      "t": 119582.02327499987,
      "d": 624.9993749999994,
      "v": 100
    },
    {
      "midi": 49,
      "hit": false,
      "t": 119999.87999999987,
      "d": 1714.2839999999997,
      "v": 100
    },
    {
      "midi": 49,
      "hit": false,
      "t": 119999.87999999987,
      "d": 1714.2839999999997,
      "v": 100
    },
    {
      "midi": 61,
      "hit": false,
      "t": 120439.16527499986,
      "d": 741.0706875000033,
      "v": 100
    },
    {
      "midi": 61,
      "hit": false,
      "t": 120439.16527499986,
      "d": 741.0706875000033,
      "v": 100
    },
    {
      "midi": 64,
      "hit": false,
      "t": 120857.02199999987,
      "d": 694.6421625000075,
      "v": 100
    },
    {
      "midi": 64,
      "hit": false,
      "t": 120857.02199999987,
      "d": 694.6421625000075,
      "v": 100
    },
    {
      "midi": 71,
      "hit": false,
      "t": 120901.66481249986,
      "d": 787.4992125000135,
      "v": 100
    },
    {
      "midi": 71,
      "hit": false,
      "t": 120901.66481249986,
      "d": 787.4992125000135,
      "v": 100
    },
    {
      "midi": 69,
      "hit": false,
      "t": 121296.30727499987,
      "d": 903.5705250000028,
      "v": 100
    },
    {
      "midi": 57,
      "hit": false,
      "t": 121296.30727499987,
      "d": 2062.4979374999966,
      "v": 100
    },
    {
      "midi": 69,
      "hit": false,
      "t": 121296.30727499987,
      "d": 903.5705250000028,
      "v": 100
    },
    {
      "midi": 57,
      "hit": false,
      "t": 121296.30727499987,
      "d": 2062.4979374999966,
      "v": 100
    },
    {
      "midi": 68,
      "hit": false,
      "t": 122153.44927499988,
      "d": 741.0706874999887,
      "v": 100
    },
    {
      "midi": 68,
      "hit": false,
      "t": 122153.44927499988,
      "d": 741.0706874999887,
      "v": 100
    },
    {
      "midi": 66,
      "hit": false,
      "t": 122571.30599999987,
      "d": 671.4278999999951,
      "v": 100
    },
    {
      "midi": 66,
      "hit": false,
      "t": 122571.30599999987,
      "d": 671.4278999999951,
      "v": 100
    },
    {
      "midi": 64,
      "hit": false,
      "t": 123010.59127499987,
      "d": 741.0706874999887,
      "v": 100
    },
    {
      "midi": 64,
      "hit": false,
      "t": 123010.59127499987,
      "d": 741.0706874999887,
      "v": 100
    },
    {
      "midi": 52,
      "hit": false,
      "t": 123428.44799999986,
      "d": 1714.2839999999997,
      "v": 100
    },
    {
      "midi": 52,
      "hit": false,
      "t": 123428.44799999986,
      "d": 1714.2839999999997,
      "v": 100
    },
    {
      "midi": 59,
      "hit": false,
      "t": 123867.73327499986,
      "d": 857.1420000000071,
      "v": 100
    },
    {
      "midi": 59,
      "hit": false,
      "t": 123867.73327499986,
      "d": 857.1420000000071,
      "v": 100
    },
    {
      "midi": 64,
      "hit": false,
      "t": 124285.58999999987,
      "d": 787.499212499999,
      "v": 100
    },
    {
      "midi": 64,
      "hit": false,
      "t": 124285.58999999987,
      "d": 787.499212499999,
      "v": 100
    },
    {
      "midi": 71,
      "hit": false,
      "t": 124724.87527499987,
      "d": 787.4992124999844,
      "v": 100
    },
    {
      "midi": 71,
      "hit": false,
      "t": 124724.87527499987,
      "d": 787.4992124999844,
      "v": 100
    },
    {
      "midi": 47,
      "hit": false,
      "t": 125142.73199999986,
      "d": 1714.283999999985,
      "v": 100
    },
    {
      "midi": 47,
      "hit": false,
      "t": 125142.73199999986,
      "d": 1714.283999999985,
      "v": 100
    },
    {
      "midi": 59,
      "hit": false,
      "t": 125582.01727499985,
      "d": 787.499212499999,
      "v": 100
    },
    {
      "midi": 59,
      "hit": false,
      "t": 125582.01727499985,
      "d": 787.499212499999,
      "v": 100
    },
    {
      "midi": 63,
      "hit": false,
      "t": 125999.87399999985,
      "d": 601.785112499987,
      "v": 100
    },
    {
      "midi": 63,
      "hit": false,
      "t": 125999.87399999985,
      "d": 601.785112499987,
      "v": 100
    },
    {
      "midi": 64,
      "hit": false,
      "t": 126439.15927499984,
      "d": 3799.9962000000087,
      "v": 100
    },
    {
      "midi": 64,
      "hit": false,
      "t": 126439.15927499984,
      "d": 3799.9962000000087,
      "v": 100
    },
    {
      "midi": 57,
      "hit": false,
      "t": 126857.01599999984,
      "d": 3382.1394750000036,
      "v": 100
    },
    {
      "midi": 69,
      "hit": false,
      "t": 126857.01599999984,
      "d": 3428.5679999999993,
      "v": 100
    },
    {
      "midi": 57,
      "hit": false,
      "t": 126857.01599999984,
      "d": 3382.1394750000036,
      "v": 100
    },
    {
      "midi": 69,
      "hit": false,
      "t": 126857.01599999984,
      "d": 3428.5679999999993,
      "v": 100
    },
    {
      "midi": 52,
      "hit": false,
      "t": 130285.58399999984,
      "d": 1714.2839999999997,
      "v": 100
    },
    {
      "midi": 52,
      "hit": false,
      "t": 130285.58399999984,
      "d": 1714.2839999999997,
      "v": 100
    },
    {
      "midi": 59,
      "hit": false,
      "t": 130724.86927499984,
      "d": 857.1420000000071,
      "v": 100
    },
    {
      "midi": 59,
      "hit": false,
      "t": 130724.86927499984,
      "d": 857.1420000000071,
      "v": 100
    },
    {
      "midi": 64,
      "hit": false,
      "t": 131142.72599999985,
      "d": 787.499212499999,
      "v": 100
    },
    {
      "midi": 64,
      "hit": false,
      "t": 131142.72599999985,
      "d": 787.499212499999,
      "v": 100
    },
    {
      "midi": 71,
      "hit": false,
      "t": 131582.01127499985,
      "d": 787.499212499999,
      "v": 100
    },
    {
      "midi": 71,
      "hit": false,
      "t": 131582.01127499985,
      "d": 787.499212499999,
      "v": 100
    },
    {
      "midi": 47,
      "hit": false,
      "t": 131999.86799999984,
      "d": 1714.2840000000142,
      "v": 100
    },
    {
      "midi": 47,
      "hit": false,
      "t": 131999.86799999984,
      "d": 1714.2840000000142,
      "v": 100
    },
    {
      "midi": 59,
      "hit": false,
      "t": 132439.15327499984,
      "d": 787.499212499999,
      "v": 100
    },
    {
      "midi": 59,
      "hit": false,
      "t": 132439.15327499984,
      "d": 787.499212499999,
      "v": 100
    },
    {
      "midi": 63,
      "hit": false,
      "t": 132857.00999999983,
      "d": 601.7851125000161,
      "v": 100
    },
    {
      "midi": 63,
      "hit": false,
      "t": 132857.00999999983,
      "d": 601.7851125000161,
      "v": 100
    },
    {
      "midi": 64,
      "hit": false,
      "t": 133296.29527499984,
      "d": 624.999375000014,
      "v": 100
    },
    {
      "midi": 64,
      "hit": false,
      "t": 133296.29527499984,
      "d": 624.999375000014,
      "v": 100
    },
    {
      "midi": 49,
      "hit": false,
      "t": 133714.15199999986,
      "d": 1714.2840000000142,
      "v": 100
    },
    {
      "midi": 49,
      "hit": false,
      "t": 133714.15199999986,
      "d": 1714.2840000000142,
      "v": 100
    },
    {
      "midi": 61,
      "hit": false,
      "t": 134153.43727499986,
      "d": 741.0706875000033,
      "v": 100
    },
    {
      "midi": 61,
      "hit": false,
      "t": 134153.43727499986,
      "d": 741.0706875000033,
      "v": 100
    },
    {
      "midi": 64,
      "hit": false,
      "t": 134571.29399999985,
      "d": 694.6421625000075,
      "v": 100
    },
    {
      "midi": 64,
      "hit": false,
      "t": 134571.29399999985,
      "d": 694.6421625000075,
      "v": 100
    },
    {
      "midi": 71,
      "hit": false,
      "t": 134615.93681249986,
      "d": 787.499212499999,
      "v": 100
    },
    {
      "midi": 71,
      "hit": false,
      "t": 134615.93681249986,
      "d": 787.499212499999,
      "v": 100
    },
    {
      "midi": 69,
      "hit": false,
      "t": 135010.57927499985,
      "d": 903.5705250000174,
      "v": 100
    },
    {
      "midi": 57,
      "hit": false,
      "t": 135010.57927499985,
      "d": 2062.497937500011,
      "v": 100
    },
    {
      "midi": 69,
      "hit": false,
      "t": 135010.57927499985,
      "d": 903.5705250000174,
      "v": 100
    },
    {
      "midi": 57,
      "hit": false,
      "t": 135010.57927499985,
      "d": 2062.497937500011,
      "v": 100
    },
    {
      "midi": 68,
      "hit": false,
      "t": 135867.72127499987,
      "d": 741.0706875000033,
      "v": 100
    },
    {
      "midi": 68,
      "hit": false,
      "t": 135867.72127499987,
      "d": 741.0706875000033,
      "v": 100
    },
    {
      "midi": 66,
      "hit": false,
      "t": 136285.57799999986,
      "d": 671.4279000000097,
      "v": 100
    },
    {
      "midi": 66,
      "hit": false,
      "t": 136285.57799999986,
      "d": 671.4279000000097,
      "v": 100
    },
    {
      "midi": 64,
      "hit": false,
      "t": 136724.86327499987,
      "d": 741.0706875000033,
      "v": 100
    },
    {
      "midi": 64,
      "hit": false,
      "t": 136724.86327499987,
      "d": 741.0706875000033,
      "v": 100
    },
    {
      "midi": 52,
      "hit": false,
      "t": 137142.71999999986,
      "d": 1714.283999999985,
      "v": 100
    },
    {
      "midi": 52,
      "hit": false,
      "t": 137142.71999999986,
      "d": 1714.283999999985,
      "v": 100
    },
    {
      "midi": 59,
      "hit": false,
      "t": 137582.00527499986,
      "d": 857.1419999999925,
      "v": 100
    },
    {
      "midi": 59,
      "hit": false,
      "t": 137582.00527499986,
      "d": 857.1419999999925,
      "v": 100
    },
    {
      "midi": 64,
      "hit": false,
      "t": 137999.86199999985,
      "d": 787.499212499999,
      "v": 100
    },
    {
      "midi": 64,
      "hit": false,
      "t": 137999.86199999985,
      "d": 787.499212499999,
      "v": 100
    },
    {
      "midi": 71,
      "hit": false,
      "t": 138439.14727499985,
      "d": 787.499212499999,
      "v": 100
    },
    {
      "midi": 71,
      "hit": false,
      "t": 138439.14727499985,
      "d": 787.499212499999,
      "v": 100
    },
    {
      "midi": 47,
      "hit": false,
      "t": 138857.00399999984,
      "d": 1714.2840000000142,
      "v": 100
    },
    {
      "midi": 47,
      "hit": false,
      "t": 138857.00399999984,
      "d": 1714.2840000000142,
      "v": 100
    },
    {
      "midi": 59,
      "hit": false,
      "t": 139296.28927499984,
      "d": 787.499212499999,
      "v": 100
    },
    {
      "midi": 59,
      "hit": false,
      "t": 139296.28927499984,
      "d": 787.499212499999,
      "v": 100
    },
    {
      "midi": 63,
      "hit": false,
      "t": 139714.14599999983,
      "d": 601.7851125000161,
      "v": 100
    },
    {
      "midi": 63,
      "hit": false,
      "t": 139714.14599999983,
      "d": 601.7851125000161,
      "v": 100
    },
    {
      "midi": 64,
      "hit": false,
      "t": 140153.43127499984,
      "d": 3776.7819375000254,
      "v": 100
    },
    {
      "midi": 64,
      "hit": false,
      "t": 140153.43127499984,
      "d": 3776.7819375000254,
      "v": 100
    },
    {
      "midi": 62,
      "hit": false,
      "t": 140571.28799999985,
      "d": 3358.9252125000057,
      "v": 100
    },
    {
      "midi": 57,
      "hit": false,
      "t": 140571.28799999985,
      "d": 3382.1394750000036,
      "v": 100
    },
    {
      "midi": 54,
      "hit": false,
      "t": 140571.28799999985,
      "d": 3428.5679999999993,
      "v": 100
    },
    {
      "midi": 62,
      "hit": false,
      "t": 140571.28799999985,
      "d": 3358.9252125000057,
      "v": 100
    },
    {
      "midi": 57,
      "hit": false,
      "t": 140571.28799999985,
      "d": 3382.1394750000036,
      "v": 100
    },
    {
      "midi": 54,
      "hit": false,
      "t": 140571.28799999985,
      "d": 3428.5679999999993,
      "v": 100
    },
    {
      "midi": 56,
      "hit": false,
      "t": 143999.85599999985,
      "d": 857.1419999999925,
      "v": 100
    },
    {
      "midi": 59,
      "hit": false,
      "t": 143999.85599999985,
      "d": 857.1419999999925,
      "v": 100
    },
    {
      "midi": 40,
      "hit": false,
      "t": 143999.85599999985,
      "d": 1735.7125499999966,
      "v": 100
    },
    {
      "midi": 52,
      "hit": false,
      "t": 143999.85599999985,
      "d": 1782.1410749999923,
      "v": 120
    },
    {
      "midi": 56,
      "hit": false,
      "t": 143999.85599999985,
      "d": 857.1419999999925,
      "v": 100
    },
    {
      "midi": 59,
      "hit": false,
      "t": 143999.85599999985,
      "d": 857.1419999999925,
      "v": 100
    },
    {
      "midi": 40,
      "hit": false,
      "t": 143999.85599999985,
      "d": 1735.7125499999966,
      "v": 100
    },
    {
      "midi": 52,
      "hit": false,
      "t": 143999.85599999985,
      "d": 1782.1410749999923,
      "v": 120
    },
    {
      "midi": 59,
      "hit": false,
      "t": 144856.99799999985,
      "d": 901.7848125000019,
      "v": 100
    },
    {
      "midi": 56,
      "hit": false,
      "t": 144856.99799999985,
      "d": 924.9990749999997,
      "v": 100
    },
    {
      "midi": 59,
      "hit": false,
      "t": 144856.99799999985,
      "d": 901.7848125000019,
      "v": 100
    },
    {
      "midi": 56,
      "hit": false,
      "t": 144856.99799999985,
      "d": 924.9990749999997,
      "v": 100
    },
    {
      "midi": 54,
      "hit": false,
      "t": 145714.13999999984,
      "d": 810.7134749999968,
      "v": 100
    },
    {
      "midi": 51,
      "hit": false,
      "t": 145714.13999999984,
      "d": 857.1419999999925,
      "v": 100
    },
    {
      "midi": 35,
      "hit": false,
      "t": 145714.13999999984,
      "d": 1667.8554749999894,
      "v": 100
    },
    {
      "midi": 47,
      "hit": false,
      "t": 145714.13999999984,
      "d": 1714.283999999985,
      "v": 120
    },
    {
      "midi": 54,
      "hit": false,
      "t": 145714.13999999984,
      "d": 810.7134749999968,
      "v": 100
    },
    {
      "midi": 51,
      "hit": false,
      "t": 145714.13999999984,
      "d": 857.1419999999925,
      "v": 100
    },
    {
      "midi": 35,
      "hit": false,
      "t": 145714.13999999984,
      "d": 1667.8554749999894,
      "v": 100
    },
    {
      "midi": 47,
      "hit": false,
      "t": 145714.13999999984,
      "d": 1714.283999999985,
      "v": 120
    },
    {
      "midi": 51,
      "hit": false,
      "t": 146571.28199999983,
      "d": 857.1419999999925,
      "v": 100
    },
    {
      "midi": 54,
      "hit": false,
      "t": 146571.28199999983,
      "d": 878.570550000004,
      "v": 100
    },
    {
      "midi": 51,
      "hit": false,
      "t": 146571.28199999983,
      "d": 857.1419999999925,
      "v": 100
    },
    {
      "midi": 54,
      "hit": false,
      "t": 146571.28199999983,
      "d": 878.570550000004,
      "v": 100
    },
    {
      "midi": 52,
      "hit": false,
      "t": 147428.42399999982,
      "d": 857.1420000000217,
      "v": 100
    },
    {
      "midi": 56,
      "hit": false,
      "t": 147428.42399999982,
      "d": 857.1420000000217,
      "v": 100
    },
    {
      "midi": 37,
      "hit": false,
      "t": 147428.42399999982,
      "d": 1714.2840000000142,
      "v": 100
    },
    {
      "midi": 49,
      "hit": false,
      "t": 147428.42399999982,
      "d": 1714.2840000000142,
      "v": 120
    },
    {
      "midi": 52,
      "hit": false,
      "t": 147428.42399999982,
      "d": 857.1420000000217,
      "v": 100
    },
    {
      "midi": 56,
      "hit": false,
      "t": 147428.42399999982,
      "d": 857.1420000000217,
      "v": 100
    },
    {
      "midi": 37,
      "hit": false,
      "t": 147428.42399999982,
      "d": 1714.2840000000142,
      "v": 100
    },
    {
      "midi": 49,
      "hit": false,
      "t": 147428.42399999982,
      "d": 1714.2840000000142,
      "v": 120
    },
    {
      "midi": 52,
      "hit": false,
      "t": 148285.56599999985,
      "d": 857.1419999999925,
      "v": 100
    },
    {
      "midi": 56,
      "hit": false,
      "t": 148285.56599999985,
      "d": 878.570550000004,
      "v": 100
    },
    {
      "midi": 52,
      "hit": false,
      "t": 148285.56599999985,
      "d": 857.1419999999925,
      "v": 100
    },
    {
      "midi": 56,
      "hit": false,
      "t": 148285.56599999985,
      "d": 878.570550000004,
      "v": 100
    },
    {
      "midi": 49,
      "hit": false,
      "t": 149142.70799999984,
      "d": 857.1420000000217,
      "v": 100
    },
    {
      "midi": 52,
      "hit": false,
      "t": 149142.70799999984,
      "d": 857.1420000000217,
      "v": 100
    },
    {
      "midi": 33,
      "hit": false,
      "t": 149142.70799999984,
      "d": 1714.2840000000142,
      "v": 100
    },
    {
      "midi": 45,
      "hit": false,
      "t": 149142.70799999984,
      "d": 1735.7125500000257,
      "v": 120
    },
    {
      "midi": 49,
      "hit": false,
      "t": 149142.70799999984,
      "d": 857.1420000000217,
      "v": 100
    },
    {
      "midi": 52,
      "hit": false,
      "t": 149142.70799999984,
      "d": 857.1420000000217,
      "v": 100
    },
    {
      "midi": 33,
      "hit": false,
      "t": 149142.70799999984,
      "d": 1714.2840000000142,
      "v": 100
    },
    {
      "midi": 45,
      "hit": false,
      "t": 149142.70799999984,
      "d": 1735.7125500000257,
      "v": 120
    },
    {
      "midi": 49,
      "hit": false,
      "t": 149999.84999999986,
      "d": 857.1419999999925,
      "v": 100
    },
    {
      "midi": 52,
      "hit": false,
      "t": 149999.84999999986,
      "d": 857.1419999999925,
      "v": 100
    },
    {
      "midi": 49,
      "hit": false,
      "t": 149999.84999999986,
      "d": 857.1419999999925,
      "v": 100
    },
    {
      "midi": 52,
      "hit": false,
      "t": 149999.84999999986,
      "d": 857.1419999999925,
      "v": 100
    },
    {
      "midi": 56,
      "hit": false,
      "t": 150856.99199999985,
      "d": 857.1420000000217,
      "v": 100
    },
    {
      "midi": 59,
      "hit": false,
      "t": 150856.99199999985,
      "d": 857.1420000000217,
      "v": 100
    },
    {
      "midi": 40,
      "hit": false,
      "t": 150856.99199999985,
      "d": 1735.7125500000257,
      "v": 100
    },
    {
      "midi": 52,
      "hit": false,
      "t": 150856.99199999985,
      "d": 1782.1410750000214,
      "v": 120
    },
    {
      "midi": 56,
      "hit": false,
      "t": 150856.99199999985,
      "d": 857.1420000000217,
      "v": 100
    },
    {
      "midi": 59,
      "hit": false,
      "t": 150856.99199999985,
      "d": 857.1420000000217,
      "v": 100
    },
    {
      "midi": 40,
      "hit": false,
      "t": 150856.99199999985,
      "d": 1735.7125500000257,
      "v": 100
    },
    {
      "midi": 52,
      "hit": false,
      "t": 150856.99199999985,
      "d": 1782.1410750000214,
      "v": 120
    },
    {
      "midi": 59,
      "hit": false,
      "t": 151714.13399999987,
      "d": 901.7848125000019,
      "v": 100
    },
    {
      "midi": 56,
      "hit": false,
      "t": 151714.13399999987,
      "d": 924.9990749999997,
      "v": 100
    },
    {
      "midi": 59,
      "hit": false,
      "t": 151714.13399999987,
      "d": 901.7848125000019,
      "v": 100
    },
    {
      "midi": 56,
      "hit": false,
      "t": 151714.13399999987,
      "d": 924.9990749999997,
      "v": 100
    },
    {
      "midi": 54,
      "hit": false,
      "t": 152571.27599999987,
      "d": 810.7134749999968,
      "v": 100
    },
    {
      "midi": 51,
      "hit": false,
      "t": 152571.27599999987,
      "d": 857.1419999999925,
      "v": 100
    },
    {
      "midi": 35,
      "hit": false,
      "t": 152571.27599999987,
      "d": 1667.8554749999894,
      "v": 100
    },
    {
      "midi": 47,
      "hit": false,
      "t": 152571.27599999987,
      "d": 1714.283999999985,
      "v": 120
    },
    {
      "midi": 54,
      "hit": false,
      "t": 152571.27599999987,
      "d": 810.7134749999968,
      "v": 100
    },
    {
      "midi": 51,
      "hit": false,
      "t": 152571.27599999987,
      "d": 857.1419999999925,
      "v": 100
    },
    {
      "midi": 35,
      "hit": false,
      "t": 152571.27599999987,
      "d": 1667.8554749999894,
      "v": 100
    },
    {
      "midi": 47,
      "hit": false,
      "t": 152571.27599999987,
      "d": 1714.283999999985,
      "v": 120
    },
    {
      "midi": 51,
      "hit": false,
      "t": 153428.41799999986,
      "d": 857.1419999999925,
      "v": 100
    },
    {
      "midi": 54,
      "hit": false,
      "t": 153428.41799999986,
      "d": 878.570550000004,
      "v": 100
    },
    {
      "midi": 51,
      "hit": false,
      "t": 153428.41799999986,
      "d": 857.1419999999925,
      "v": 100
    },
    {
      "midi": 54,
      "hit": false,
      "t": 153428.41799999986,
      "d": 878.570550000004,
      "v": 100
    },
    {
      "midi": 52,
      "hit": false,
      "t": 154285.55999999985,
      "d": 857.1420000000217,
      "v": 100
    },
    {
      "midi": 56,
      "hit": false,
      "t": 154285.55999999985,
      "d": 857.1420000000217,
      "v": 100
    },
    {
      "midi": 37,
      "hit": false,
      "t": 154285.55999999985,
      "d": 1714.2840000000142,
      "v": 100
    },
    {
      "midi": 49,
      "hit": false,
      "t": 154285.55999999985,
      "d": 1714.2840000000142,
      "v": 120
    },
    {
      "midi": 52,
      "hit": false,
      "t": 154285.55999999985,
      "d": 857.1420000000217,
      "v": 100
    },
    {
      "midi": 56,
      "hit": false,
      "t": 154285.55999999985,
      "d": 857.1420000000217,
      "v": 100
    },
    {
      "midi": 37,
      "hit": false,
      "t": 154285.55999999985,
      "d": 1714.2840000000142,
      "v": 100
    },
    {
      "midi": 49,
      "hit": false,
      "t": 154285.55999999985,
      "d": 1714.2840000000142,
      "v": 120
    },
    {
      "midi": 52,
      "hit": false,
      "t": 155142.70199999987,
      "d": 857.1419999999925,
      "v": 100
    },
    {
      "midi": 56,
      "hit": false,
      "t": 155142.70199999987,
      "d": 878.570550000004,
      "v": 100
    },
    {
      "midi": 52,
      "hit": false,
      "t": 155142.70199999987,
      "d": 857.1419999999925,
      "v": 100
    },
    {
      "midi": 56,
      "hit": false,
      "t": 155142.70199999987,
      "d": 878.570550000004,
      "v": 100
    },
    {
      "midi": 49,
      "hit": false,
      "t": 155999.84399999987,
      "d": 857.1420000000217,
      "v": 100
    },
    {
      "midi": 52,
      "hit": false,
      "t": 155999.84399999987,
      "d": 857.1420000000217,
      "v": 100
    },
    {
      "midi": 33,
      "hit": false,
      "t": 155999.84399999987,
      "d": 1714.2840000000142,
      "v": 100
    },
    {
      "midi": 45,
      "hit": false,
      "t": 155999.84399999987,
      "d": 1735.7125500000257,
      "v": 120
    },
    {
      "midi": 49,
      "hit": false,
      "t": 155999.84399999987,
      "d": 857.1420000000217,
      "v": 100
    },
    {
      "midi": 52,
      "hit": false,
      "t": 155999.84399999987,
      "d": 857.1420000000217,
      "v": 100
    },
    {
      "midi": 33,
      "hit": false,
      "t": 155999.84399999987,
      "d": 1714.2840000000142,
      "v": 100
    },
    {
      "midi": 45,
      "hit": false,
      "t": 155999.84399999987,
      "d": 1735.7125500000257,
      "v": 120
    },
    {
      "midi": 49,
      "hit": false,
      "t": 156856.9859999999,
      "d": 857.1419999999925,
      "v": 100
    },
    {
      "midi": 52,
      "hit": false,
      "t": 156856.9859999999,
      "d": 857.1419999999925,
      "v": 100
    },
    {
      "midi": 49,
      "hit": false,
      "t": 156856.9859999999,
      "d": 857.1419999999925,
      "v": 100
    },
    {
      "midi": 52,
      "hit": false,
      "t": 156856.9859999999,
      "d": 857.1419999999925,
      "v": 100
    },
    {
      "midi": 56,
      "hit": false,
      "t": 157714.12799999988,
      "d": 857.1420000000217,
      "v": 100
    },
    {
      "midi": 59,
      "hit": false,
      "t": 157714.12799999988,
      "d": 857.1420000000217,
      "v": 100
    },
    {
      "midi": 40,
      "hit": false,
      "t": 157714.12799999988,
      "d": 1735.7125500000257,
      "v": 100
    },
    {
      "midi": 52,
      "hit": false,
      "t": 157714.12799999988,
      "d": 1782.1410750000214,
      "v": 120
    },
    {
      "midi": 56,
      "hit": false,
      "t": 157714.12799999988,
      "d": 857.1420000000217,
      "v": 100
    },
    {
      "midi": 59,
      "hit": false,
      "t": 157714.12799999988,
      "d": 857.1420000000217,
      "v": 100
    },
    {
      "midi": 40,
      "hit": false,
      "t": 157714.12799999988,
      "d": 1735.7125500000257,
      "v": 100
    },
    {
      "midi": 52,
      "hit": false,
      "t": 157714.12799999988,
      "d": 1782.1410750000214,
      "v": 120
    },
    {
      "midi": 59,
      "hit": false,
      "t": 158571.2699999999,
      "d": 901.7848125000019,
      "v": 100
    },
    {
      "midi": 56,
      "hit": false,
      "t": 158571.2699999999,
      "d": 924.9990749999997,
      "v": 100
    },
    {
      "midi": 59,
      "hit": false,
      "t": 158571.2699999999,
      "d": 901.7848125000019,
      "v": 100
    },
    {
      "midi": 56,
      "hit": false,
      "t": 158571.2699999999,
      "d": 924.9990749999997,
      "v": 100
    },
    {
      "midi": 54,
      "hit": false,
      "t": 159428.4119999999,
      "d": 810.7134749999968,
      "v": 100
    },
    {
      "midi": 51,
      "hit": false,
      "t": 159428.4119999999,
      "d": 857.1419999999925,
      "v": 100
    },
    {
      "midi": 35,
      "hit": false,
      "t": 159428.4119999999,
      "d": 1667.8554749999894,
      "v": 100
    },
    {
      "midi": 47,
      "hit": false,
      "t": 159428.4119999999,
      "d": 1714.283999999985,
      "v": 120
    },
    {
      "midi": 54,
      "hit": false,
      "t": 159428.4119999999,
      "d": 810.7134749999968,
      "v": 100
    },
    {
      "midi": 51,
      "hit": false,
      "t": 159428.4119999999,
      "d": 857.1419999999925,
      "v": 100
    },
    {
      "midi": 35,
      "hit": false,
      "t": 159428.4119999999,
      "d": 1667.8554749999894,
      "v": 100
    },
    {
      "midi": 47,
      "hit": false,
      "t": 159428.4119999999,
      "d": 1714.283999999985,
      "v": 120
    },
    {
      "midi": 51,
      "hit": false,
      "t": 160285.5539999999,
      "d": 857.1419999999925,
      "v": 100
    },
    {
      "midi": 54,
      "hit": false,
      "t": 160285.5539999999,
      "d": 878.570550000004,
      "v": 100
    },
    {
      "midi": 51,
      "hit": false,
      "t": 160285.5539999999,
      "d": 857.1419999999925,
      "v": 100
    },
    {
      "midi": 54,
      "hit": false,
      "t": 160285.5539999999,
      "d": 878.570550000004,
      "v": 100
    },
    {
      "midi": 52,
      "hit": false,
      "t": 161142.69599999988,
      "d": 857.1420000000217,
      "v": 100
    },
    {
      "midi": 56,
      "hit": false,
      "t": 161142.69599999988,
      "d": 857.1420000000217,
      "v": 100
    },
    {
      "midi": 37,
      "hit": false,
      "t": 161142.69599999988,
      "d": 1714.2840000000142,
      "v": 100
    },
    {
      "midi": 49,
      "hit": false,
      "t": 161142.69599999988,
      "d": 1714.2840000000142,
      "v": 120
    },
    {
      "midi": 52,
      "hit": false,
      "t": 161142.69599999988,
      "d": 857.1420000000217,
      "v": 100
    },
    {
      "midi": 56,
      "hit": false,
      "t": 161142.69599999988,
      "d": 857.1420000000217,
      "v": 100
    },
    {
      "midi": 37,
      "hit": false,
      "t": 161142.69599999988,
      "d": 1714.2840000000142,
      "v": 100
    },
    {
      "midi": 49,
      "hit": false,
      "t": 161142.69599999988,
      "d": 1714.2840000000142,
      "v": 120
    },
    {
      "midi": 52,
      "hit": false,
      "t": 161999.8379999999,
      "d": 857.1419999999925,
      "v": 100
    },
    {
      "midi": 56,
      "hit": false,
      "t": 161999.8379999999,
      "d": 878.570550000004,
      "v": 100
    },
    {
      "midi": 52,
      "hit": false,
      "t": 161999.8379999999,
      "d": 857.1419999999925,
      "v": 100
    },
    {
      "midi": 56,
      "hit": false,
      "t": 161999.8379999999,
      "d": 878.570550000004,
      "v": 100
    },
    {
      "midi": 49,
      "hit": false,
      "t": 162856.9799999999,
      "d": 857.1420000000217,
      "v": 100
    },
    {
      "midi": 52,
      "hit": false,
      "t": 162856.9799999999,
      "d": 857.1420000000217,
      "v": 100
    },
    {
      "midi": 33,
      "hit": false,
      "t": 162856.9799999999,
      "d": 1714.2840000000142,
      "v": 100
    },
    {
      "midi": 45,
      "hit": false,
      "t": 162856.9799999999,
      "d": 1735.7125500000257,
      "v": 120
    },
    {
      "midi": 49,
      "hit": false,
      "t": 162856.9799999999,
      "d": 857.1420000000217,
      "v": 100
    },
    {
      "midi": 52,
      "hit": false,
      "t": 162856.9799999999,
      "d": 857.1420000000217,
      "v": 100
    },
    {
      "midi": 33,
      "hit": false,
      "t": 162856.9799999999,
      "d": 1714.2840000000142,
      "v": 100
    },
    {
      "midi": 45,
      "hit": false,
      "t": 162856.9799999999,
      "d": 1735.7125500000257,
      "v": 120
    },
    {
      "midi": 49,
      "hit": false,
      "t": 163714.12199999992,
      "d": 857.1419999999925,
      "v": 100
    },
    {
      "midi": 52,
      "hit": false,
      "t": 163714.12199999992,
      "d": 857.1419999999925,
      "v": 100
    },
    {
      "midi": 49,
      "hit": false,
      "t": 163714.12199999992,
      "d": 857.1419999999925,
      "v": 100
    },
    {
      "midi": 52,
      "hit": false,
      "t": 163714.12199999992,
      "d": 857.1419999999925,
      "v": 100
    },
    {
      "midi": 42,
      "hit": false,
      "t": 164571.2639999999,
      "d": 1714.2840000000142,
      "v": 100
    },
    {
      "midi": 57,
      "hit": false,
      "t": 164571.2639999999,
      "d": 1714.2840000000142,
      "v": 100
    },
    {
      "midi": 61,
      "hit": false,
      "t": 164571.2639999999,
      "d": 1735.7125500000257,
      "v": 100
    },
    {
      "midi": 54,
      "hit": false,
      "t": 164571.2639999999,
      "d": 1758.9268125000235,
      "v": 100
    },
    {
      "midi": 42,
      "hit": false,
      "t": 164571.2639999999,
      "d": 1714.2840000000142,
      "v": 100
    },
    {
      "midi": 57,
      "hit": false,
      "t": 164571.2639999999,
      "d": 1714.2840000000142,
      "v": 100
    },
    {
      "midi": 61,
      "hit": false,
      "t": 164571.2639999999,
      "d": 1735.7125500000257,
      "v": 100
    },
    {
      "midi": 54,
      "hit": false,
      "t": 164571.2639999999,
      "d": 1758.9268125000235,
      "v": 100
    },
    {
      "midi": 44,
      "hit": false,
      "t": 166285.54799999992,
      "d": 1714.2840000000142,
      "v": 100
    },
    {
      "midi": 56,
      "hit": false,
      "t": 166285.54799999992,
      "d": 1714.2840000000142,
      "v": 100
    },
    {
      "midi": 59,
      "hit": false,
      "t": 166285.54799999992,
      "d": 1714.2840000000142,
      "v": 100
    },
    {
      "midi": 64,
      "hit": false,
      "t": 166285.54799999992,
      "d": 1714.2840000000142,
      "v": 100
    },
    {
      "midi": 44,
      "hit": false,
      "t": 166285.54799999992,
      "d": 1714.2840000000142,
      "v": 100
    },
    {
      "midi": 56,
      "hit": false,
      "t": 166285.54799999992,
      "d": 1714.2840000000142,
      "v": 100
    },
    {
      "midi": 59,
      "hit": false,
      "t": 166285.54799999992,
      "d": 1714.2840000000142,
      "v": 100
    },
    {
      "midi": 64,
      "hit": false,
      "t": 166285.54799999992,
      "d": 1714.2840000000142,
      "v": 100
    },
    {
      "midi": 45,
      "hit": false,
      "t": 167999.83199999994,
      "d": 3428.5679999999993,
      "v": 100
    },
    {
      "midi": 57,
      "hit": false,
      "t": 167999.83199999994,
      "d": 3428.5679999999993,
      "v": 100
    },
    {
      "midi": 61,
      "hit": false,
      "t": 167999.83199999994,
      "d": 3428.5679999999993,
      "v": 100
    },
    {
      "midi": 64,
      "hit": false,
      "t": 167999.83199999994,
      "d": 3428.5679999999993,
      "v": 100
    },
    {
      "midi": 45,
      "hit": false,
      "t": 167999.83199999994,
      "d": 3428.5679999999993,
      "v": 100
    },
    {
      "midi": 57,
      "hit": false,
      "t": 167999.83199999994,
      "d": 3428.5679999999993,
      "v": 100
    },
    {
      "midi": 61,
      "hit": false,
      "t": 167999.83199999994,
      "d": 3428.5679999999993,
      "v": 100
    },
    {
      "midi": 64,
      "hit": false,
      "t": 167999.83199999994,
      "d": 3428.5679999999993,
      "v": 100
    },
    {
      "midi": 45,
      "hit": false,
      "t": 171428.39999999994,
      "d": 1714.2840000000142,
      "v": 100
    },
    {
      "midi": 57,
      "hit": false,
      "t": 171428.39999999994,
      "d": 1714.2840000000142,
      "v": 100
    },
    {
      "midi": 61,
      "hit": false,
      "t": 171428.39999999994,
      "d": 1714.2840000000142,
      "v": 100
    },
    {
      "midi": 64,
      "hit": false,
      "t": 171428.39999999994,
      "d": 1714.2840000000142,
      "v": 100
    },
    {
      "midi": 45,
      "hit": false,
      "t": 171428.39999999994,
      "d": 1714.2840000000142,
      "v": 100
    },
    {
      "midi": 57,
      "hit": false,
      "t": 171428.39999999994,
      "d": 1714.2840000000142,
      "v": 100
    },
    {
      "midi": 61,
      "hit": false,
      "t": 171428.39999999994,
      "d": 1714.2840000000142,
      "v": 100
    },
    {
      "midi": 64,
      "hit": false,
      "t": 171428.39999999994,
      "d": 1714.2840000000142,
      "v": 100
    },
    {
      "midi": 44,
      "hit": false,
      "t": 173142.68399999995,
      "d": 1714.2840000000142,
      "v": 100
    },
    {
      "midi": 56,
      "hit": false,
      "t": 173142.68399999995,
      "d": 1714.2840000000142,
      "v": 100
    },
    {
      "midi": 59,
      "hit": false,
      "t": 173142.68399999995,
      "d": 1714.2840000000142,
      "v": 100
    },
    {
      "midi": 64,
      "hit": false,
      "t": 173142.68399999995,
      "d": 1714.2840000000142,
      "v": 100
    },
    {
      "midi": 44,
      "hit": false,
      "t": 173142.68399999995,
      "d": 1714.2840000000142,
      "v": 100
    },
    {
      "midi": 56,
      "hit": false,
      "t": 173142.68399999995,
      "d": 1714.2840000000142,
      "v": 100
    },
    {
      "midi": 59,
      "hit": false,
      "t": 173142.68399999995,
      "d": 1714.2840000000142,
      "v": 100
    },
    {
      "midi": 64,
      "hit": false,
      "t": 173142.68399999995,
      "d": 1714.2840000000142,
      "v": 100
    },
    {
      "midi": 57,
      "hit": false,
      "t": 174856.96799999996,
      "d": 3382.1394750000036,
      "v": 100
    },
    {
      "midi": 38,
      "hit": false,
      "t": 174856.96799999996,
      "d": 3428.5679999999993,
      "v": 100
    },
    {
      "midi": 50,
      "hit": false,
      "t": 174856.96799999996,
      "d": 3428.5679999999993,
      "v": 100
    },
    {
      "midi": 54,
      "hit": false,
      "t": 174856.96799999996,
      "d": 3428.5679999999993,
      "v": 100
    },
    {
      "midi": 57,
      "hit": false,
      "t": 174856.96799999996,
      "d": 3382.1394750000036,
      "v": 100
    },
    {
      "midi": 38,
      "hit": false,
      "t": 174856.96799999996,
      "d": 3428.5679999999993,
      "v": 100
    },
    {
      "midi": 50,
      "hit": false,
      "t": 174856.96799999996,
      "d": 3428.5679999999993,
      "v": 100
    },
    {
      "midi": 54,
      "hit": false,
      "t": 174856.96799999996,
      "d": 3428.5679999999993,
      "v": 100
    },
    {
      "midi": 52,
      "hit": false,
      "t": 178285.53599999996,
      "d": 1296.4272749999946,
      "v": 100
    },
    {
      "midi": 57,
      "hit": false,
      "t": 178285.53599999996,
      "d": 1296.4272749999946,
      "v": 100
    },
    {
      "midi": 59,
      "hit": false,
      "t": 178285.53599999996,
      "d": 1296.4272749999946,
      "v": 100
    },
    {
      "midi": 52,
      "hit": false,
      "t": 178285.53599999996,
      "d": 1296.4272749999946,
      "v": 100
    },
    {
      "midi": 57,
      "hit": false,
      "t": 178285.53599999996,
      "d": 1296.4272749999946,
      "v": 100
    },
    {
      "midi": 59,
      "hit": false,
      "t": 178285.53599999996,
      "d": 1296.4272749999946,
      "v": 100
    },
    {
      "midi": 52,
      "hit": false,
      "t": 179581.96327499996,
      "d": 1251.7844625000143,
      "v": 100
    },
    {
      "midi": 57,
      "hit": false,
      "t": 179581.96327499996,
      "d": 1251.7844625000143,
      "v": 100
    },
    {
      "midi": 59,
      "hit": false,
      "t": 179581.96327499996,
      "d": 1251.7844625000143,
      "v": 100
    },
    {
      "midi": 52,
      "hit": false,
      "t": 179581.96327499996,
      "d": 1251.7844625000143,
      "v": 100
    },
    {
      "midi": 57,
      "hit": false,
      "t": 179581.96327499996,
      "d": 1251.7844625000143,
      "v": 100
    },
    {
      "midi": 59,
      "hit": false,
      "t": 179581.96327499996,
      "d": 1251.7844625000143,
      "v": 100
    },
    {
      "midi": 52,
      "hit": false,
      "t": 180856.96199999997,
      "d": 857.1419999999925,
      "v": 100
    },
    {
      "midi": 57,
      "hit": false,
      "t": 180856.96199999997,
      "d": 857.1419999999925,
      "v": 100
    },
    {
      "midi": 59,
      "hit": false,
      "t": 180856.96199999997,
      "d": 857.1419999999925,
      "v": 100
    },
    {
      "midi": 52,
      "hit": false,
      "t": 180856.96199999997,
      "d": 857.1419999999925,
      "v": 100
    },
    {
      "midi": 57,
      "hit": false,
      "t": 180856.96199999997,
      "d": 857.1419999999925,
      "v": 100
    },
    {
      "midi": 59,
      "hit": false,
      "t": 180856.96199999997,
      "d": 857.1419999999925,
      "v": 100
    },
    {
      "midi": 54,
      "hit": false,
      "t": 181714.10399999996,
      "d": 1296.4272749999946,
      "v": 100
    },
    {
      "midi": 59,
      "hit": false,
      "t": 181714.10399999996,
      "d": 1296.4272749999946,
      "v": 100
    },
    {
      "midi": 54,
      "hit": false,
      "t": 181714.10399999996,
      "d": 1296.4272749999946,
      "v": 100
    },
    {
      "midi": 59,
      "hit": false,
      "t": 181714.10399999996,
      "d": 1296.4272749999946,
      "v": 100
    },
    {
      "midi": 54,
      "hit": false,
      "t": 183010.53127499996,
      "d": 1228.5701999999874,
      "v": 100
    },
    {
      "midi": 59,
      "hit": false,
      "t": 183010.53127499996,
      "d": 1251.7844624999852,
      "v": 100
    },
    {
      "midi": 54,
      "hit": false,
      "t": 183010.53127499996,
      "d": 1228.5701999999874,
      "v": 100
    },
    {
      "midi": 59,
      "hit": false,
      "t": 183010.53127499996,
      "d": 1251.7844624999852,
      "v": 100
    },
    {
      "midi": 54,
      "hit": false,
      "t": 184285.52999999994,
      "d": 857.1419999999925,
      "v": 100
    },
    {
      "midi": 59,
      "hit": false,
      "t": 184285.52999999994,
      "d": 857.1419999999925,
      "v": 100
    },
    {
      "midi": 54,
      "hit": false,
      "t": 184285.52999999994,
      "d": 857.1419999999925,
      "v": 100
    },
    {
      "midi": 59,
      "hit": false,
      "t": 184285.52999999994,
      "d": 857.1419999999925,
      "v": 100
    },
    {
      "midi": 52,
      "hit": false,
      "t": 185142.67199999993,
      "d": 1296.4272749999946,
      "v": 100
    },
    {
      "midi": 56,
      "hit": false,
      "t": 185142.67199999993,
      "d": 1296.4272749999946,
      "v": 100
    },
    {
      "midi": 61,
      "hit": false,
      "t": 185142.67199999993,
      "d": 1296.4272749999946,
      "v": 100
    },
    {
      "midi": 52,
      "hit": false,
      "t": 185142.67199999993,
      "d": 1296.4272749999946,
      "v": 100
    },
    {
      "midi": 56,
      "hit": false,
      "t": 185142.67199999993,
      "d": 1296.4272749999946,
      "v": 100
    },
    {
      "midi": 61,
      "hit": false,
      "t": 185142.67199999993,
      "d": 1296.4272749999946,
      "v": 100
    },
    {
      "midi": 52,
      "hit": false,
      "t": 186439.09927499993,
      "d": 1251.7844625000143,
      "v": 100
    },
    {
      "midi": 56,
      "hit": false,
      "t": 186439.09927499993,
      "d": 1251.7844625000143,
      "v": 100
    },
    {
      "midi": 61,
      "hit": false,
      "t": 186439.09927499993,
      "d": 1251.7844625000143,
      "v": 100
    },
    {
      "midi": 52,
      "hit": false,
      "t": 186439.09927499993,
      "d": 1251.7844625000143,
      "v": 100
    },
    {
      "midi": 56,
      "hit": false,
      "t": 186439.09927499993,
      "d": 1251.7844625000143,
      "v": 100
    },
    {
      "midi": 61,
      "hit": false,
      "t": 186439.09927499993,
      "d": 1251.7844625000143,
      "v": 100
    },
    {
      "midi": 52,
      "hit": false,
      "t": 187714.09799999994,
      "d": 857.1419999999925,
      "v": 100
    },
    {
      "midi": 56,
      "hit": false,
      "t": 187714.09799999994,
      "d": 857.1419999999925,
      "v": 100
    },
    {
      "midi": 61,
      "hit": false,
      "t": 187714.09799999994,
      "d": 857.1419999999925,
      "v": 100
    },
    {
      "midi": 52,
      "hit": false,
      "t": 187714.09799999994,
      "d": 857.1419999999925,
      "v": 100
    },
    {
      "midi": 56,
      "hit": false,
      "t": 187714.09799999994,
      "d": 857.1419999999925,
      "v": 100
    },
    {
      "midi": 61,
      "hit": false,
      "t": 187714.09799999994,
      "d": 857.1419999999925,
      "v": 100
    },
    {
      "midi": 54,
      "hit": false,
      "t": 188571.23999999993,
      "d": 1296.4272749999946,
      "v": 100
    },
    {
      "midi": 57,
      "hit": false,
      "t": 188571.23999999993,
      "d": 1296.4272749999946,
      "v": 100
    },
    {
      "midi": 54,
      "hit": false,
      "t": 188571.23999999993,
      "d": 1296.4272749999946,
      "v": 100
    },
    {
      "midi": 57,
      "hit": false,
      "t": 188571.23999999993,
      "d": 1296.4272749999946,
      "v": 100
    },
    {
      "midi": 54,
      "hit": false,
      "t": 189867.66727499993,
      "d": 1251.7844625000143,
      "v": 100
    },
    {
      "midi": 57,
      "hit": false,
      "t": 189867.66727499993,
      "d": 1251.7844625000143,
      "v": 100
    },
    {
      "midi": 54,
      "hit": false,
      "t": 189867.66727499993,
      "d": 1251.7844625000143,
      "v": 100
    },
    {
      "midi": 57,
      "hit": false,
      "t": 189867.66727499993,
      "d": 1251.7844625000143,
      "v": 100
    },
    {
      "midi": 54,
      "hit": false,
      "t": 191142.66599999994,
      "d": 857.1419999999925,
      "v": 100
    },
    {
      "midi": 57,
      "hit": false,
      "t": 191142.66599999994,
      "d": 857.1419999999925,
      "v": 100
    },
    {
      "midi": 54,
      "hit": false,
      "t": 191142.66599999994,
      "d": 857.1419999999925,
      "v": 100
    },
    {
      "midi": 57,
      "hit": false,
      "t": 191142.66599999994,
      "d": 857.1419999999925,
      "v": 100
    },
    {
      "midi": 52,
      "hit": false,
      "t": 191999.80799999993,
      "d": 1296.4272749999946,
      "v": 100
    },
    {
      "midi": 57,
      "hit": false,
      "t": 191999.80799999993,
      "d": 1296.4272749999946,
      "v": 100
    },
    {
      "midi": 59,
      "hit": false,
      "t": 191999.80799999993,
      "d": 1296.4272749999946,
      "v": 100
    },
    {
      "midi": 52,
      "hit": false,
      "t": 191999.80799999993,
      "d": 1296.4272749999946,
      "v": 100
    },
    {
      "midi": 57,
      "hit": false,
      "t": 191999.80799999993,
      "d": 1296.4272749999946,
      "v": 100
    },
    {
      "midi": 59,
      "hit": false,
      "t": 191999.80799999993,
      "d": 1296.4272749999946,
      "v": 100
    },
    {
      "midi": 52,
      "hit": false,
      "t": 193296.23527499993,
      "d": 1251.7844625000143,
      "v": 100
    },
    {
      "midi": 57,
      "hit": false,
      "t": 193296.23527499993,
      "d": 1251.7844625000143,
      "v": 100
    },
    {
      "midi": 59,
      "hit": false,
      "t": 193296.23527499993,
      "d": 1251.7844625000143,
      "v": 100
    },
    {
      "midi": 52,
      "hit": false,
      "t": 193296.23527499993,
      "d": 1251.7844625000143,
      "v": 100
    },
    {
      "midi": 57,
      "hit": false,
      "t": 193296.23527499993,
      "d": 1251.7844625000143,
      "v": 100
    },
    {
      "midi": 59,
      "hit": false,
      "t": 193296.23527499993,
      "d": 1251.7844625000143,
      "v": 100
    },
    {
      "midi": 52,
      "hit": false,
      "t": 194571.23399999994,
      "d": 857.1419999999925,
      "v": 100
    },
    {
      "midi": 57,
      "hit": false,
      "t": 194571.23399999994,
      "d": 857.1419999999925,
      "v": 100
    },
    {
      "midi": 59,
      "hit": false,
      "t": 194571.23399999994,
      "d": 857.1419999999925,
      "v": 100
    },
    {
      "midi": 52,
      "hit": false,
      "t": 194571.23399999994,
      "d": 857.1419999999925,
      "v": 100
    },
    {
      "midi": 57,
      "hit": false,
      "t": 194571.23399999994,
      "d": 857.1419999999925,
      "v": 100
    },
    {
      "midi": 59,
      "hit": false,
      "t": 194571.23399999994,
      "d": 857.1419999999925,
      "v": 100
    },
    {
      "midi": 54,
      "hit": false,
      "t": 195428.37599999993,
      "d": 1296.4272749999946,
      "v": 100
    },
    {
      "midi": 59,
      "hit": false,
      "t": 195428.37599999993,
      "d": 1296.4272749999946,
      "v": 100
    },
    {
      "midi": 54,
      "hit": false,
      "t": 195428.37599999993,
      "d": 1296.4272749999946,
      "v": 100
    },
    {
      "midi": 59,
      "hit": false,
      "t": 195428.37599999993,
      "d": 1296.4272749999946,
      "v": 100
    },
    {
      "midi": 54,
      "hit": false,
      "t": 196724.80327499993,
      "d": 1228.5701999999874,
      "v": 100
    },
    {
      "midi": 59,
      "hit": false,
      "t": 196724.80327499993,
      "d": 1251.7844624999852,
      "v": 100
    },
    {
      "midi": 54,
      "hit": false,
      "t": 196724.80327499993,
      "d": 1228.5701999999874,
      "v": 100
    },
    {
      "midi": 59,
      "hit": false,
      "t": 196724.80327499993,
      "d": 1251.7844624999852,
      "v": 100
    },
    {
      "midi": 54,
      "hit": false,
      "t": 197999.8019999999,
      "d": 857.1419999999925,
      "v": 100
    },
    {
      "midi": 59,
      "hit": false,
      "t": 197999.8019999999,
      "d": 857.1419999999925,
      "v": 100
    },
    {
      "midi": 54,
      "hit": false,
      "t": 197999.8019999999,
      "d": 857.1419999999925,
      "v": 100
    },
    {
      "midi": 59,
      "hit": false,
      "t": 197999.8019999999,
      "d": 857.1419999999925,
      "v": 100
    },
    {
      "midi": 52,
      "hit": false,
      "t": 198856.9439999999,
      "d": 1296.4272749999946,
      "v": 100
    },
    {
      "midi": 56,
      "hit": false,
      "t": 198856.9439999999,
      "d": 1296.4272749999946,
      "v": 100
    },
    {
      "midi": 61,
      "hit": false,
      "t": 198856.9439999999,
      "d": 1296.4272749999946,
      "v": 100
    },
    {
      "midi": 52,
      "hit": false,
      "t": 198856.9439999999,
      "d": 1296.4272749999946,
      "v": 100
    },
    {
      "midi": 56,
      "hit": false,
      "t": 198856.9439999999,
      "d": 1296.4272749999946,
      "v": 100
    },
    {
      "midi": 61,
      "hit": false,
      "t": 198856.9439999999,
      "d": 1296.4272749999946,
      "v": 100
    },
    {
      "midi": 52,
      "hit": false,
      "t": 200153.3712749999,
      "d": 1251.7844625000143,
      "v": 100
    },
    {
      "midi": 56,
      "hit": false,
      "t": 200153.3712749999,
      "d": 1251.7844625000143,
      "v": 100
    },
    {
      "midi": 61,
      "hit": false,
      "t": 200153.3712749999,
      "d": 1251.7844625000143,
      "v": 100
    },
    {
      "midi": 52,
      "hit": false,
      "t": 200153.3712749999,
      "d": 1251.7844625000143,
      "v": 100
    },
    {
      "midi": 56,
      "hit": false,
      "t": 200153.3712749999,
      "d": 1251.7844625000143,
      "v": 100
    },
    {
      "midi": 61,
      "hit": false,
      "t": 200153.3712749999,
      "d": 1251.7844625000143,
      "v": 100
    },
    {
      "midi": 52,
      "hit": false,
      "t": 201428.3699999999,
      "d": 857.1419999999925,
      "v": 100
    },
    {
      "midi": 56,
      "hit": false,
      "t": 201428.3699999999,
      "d": 857.1419999999925,
      "v": 100
    },
    {
      "midi": 61,
      "hit": false,
      "t": 201428.3699999999,
      "d": 857.1419999999925,
      "v": 100
    },
    {
      "midi": 52,
      "hit": false,
      "t": 201428.3699999999,
      "d": 857.1419999999925,
      "v": 100
    },
    {
      "midi": 56,
      "hit": false,
      "t": 201428.3699999999,
      "d": 857.1419999999925,
      "v": 100
    },
    {
      "midi": 61,
      "hit": false,
      "t": 201428.3699999999,
      "d": 857.1419999999925,
      "v": 100
    },
    {
      "midi": 54,
      "hit": false,
      "t": 202285.5119999999,
      "d": 1296.4272749999946,
      "v": 100
    },
    {
      "midi": 57,
      "hit": false,
      "t": 202285.5119999999,
      "d": 1296.4272749999946,
      "v": 100
    },
    {
      "midi": 54,
      "hit": false,
      "t": 202285.5119999999,
      "d": 1296.4272749999946,
      "v": 100
    },
    {
      "midi": 57,
      "hit": false,
      "t": 202285.5119999999,
      "d": 1296.4272749999946,
      "v": 100
    },
    {
      "midi": 54,
      "hit": false,
      "t": 203581.9392749999,
      "d": 1251.7844625000143,
      "v": 100
    },
    {
      "midi": 57,
      "hit": false,
      "t": 203581.9392749999,
      "d": 1251.7844625000143,
      "v": 100
    },
    {
      "midi": 54,
      "hit": false,
      "t": 203581.9392749999,
      "d": 1251.7844625000143,
      "v": 100
    },
    {
      "midi": 57,
      "hit": false,
      "t": 203581.9392749999,
      "d": 1251.7844625000143,
      "v": 100
    },
    {
      "midi": 54,
      "hit": false,
      "t": 204856.9379999999,
      "d": 857.1419999999925,
      "v": 100
    },
    {
      "midi": 57,
      "hit": false,
      "t": 204856.9379999999,
      "d": 857.1419999999925,
      "v": 100
    },
    {
      "midi": 54,
      "hit": false,
      "t": 204856.9379999999,
      "d": 857.1419999999925,
      "v": 100
    },
    {
      "midi": 57,
      "hit": false,
      "t": 204856.9379999999,
      "d": 857.1419999999925,
      "v": 100
    },
    {
      "midi": 64,
      "hit": false,
      "t": 205714.0799999999,
      "d": 1714.283999999985,
      "v": 100
    },
    {
      "midi": 64,
      "hit": false,
      "t": 205714.0799999999,
      "d": 1714.283999999985,
      "v": 100
    },
    {
      "midi": 71,
      "hit": false,
      "t": 206153.3652749999,
      "d": 857.1419999999925,
      "v": 100
    },
    {
      "midi": 71,
      "hit": false,
      "t": 206153.3652749999,
      "d": 857.1419999999925,
      "v": 100
    },
    {
      "midi": 76,
      "hit": false,
      "t": 206571.2219999999,
      "d": 787.499212499999,
      "v": 100
    },
    {
      "midi": 76,
      "hit": false,
      "t": 206571.2219999999,
      "d": 787.499212499999,
      "v": 100
    },
    {
      "midi": 83,
      "hit": false,
      "t": 207010.5072749999,
      "d": 787.499212499999,
      "v": 100
    },
    {
      "midi": 83,
      "hit": false,
      "t": 207010.5072749999,
      "d": 787.499212499999,
      "v": 100
    },
    {
      "midi": 59,
      "hit": false,
      "t": 207428.36399999988,
      "d": 1714.2840000000142,
      "v": 100
    },
    {
      "midi": 59,
      "hit": false,
      "t": 207428.36399999988,
      "d": 1714.2840000000142,
      "v": 100
    },
    {
      "midi": 71,
      "hit": false,
      "t": 207867.6492749999,
      "d": 787.499212499999,
      "v": 100
    },
    {
      "midi": 71,
      "hit": false,
      "t": 207867.6492749999,
      "d": 787.499212499999,
      "v": 100
    },
    {
      "midi": 75,
      "hit": false,
      "t": 208285.50599999988,
      "d": 601.7851125000161,
      "v": 100
    },
    {
      "midi": 75,
      "hit": false,
      "t": 208285.50599999988,
      "d": 601.7851125000161,
      "v": 100
    },
    {
      "midi": 76,
      "hit": false,
      "t": 208724.79127499988,
      "d": 624.999375000014,
      "v": 100
    },
    {
      "midi": 76,
      "hit": false,
      "t": 208724.79127499988,
      "d": 624.999375000014,
      "v": 100
    },
    {
      "midi": 61,
      "hit": false,
      "t": 209142.6479999999,
      "d": 1714.2840000000142,
      "v": 100
    },
    {
      "midi": 61,
      "hit": false,
      "t": 209142.6479999999,
      "d": 1714.2840000000142,
      "v": 100
    },
    {
      "midi": 73,
      "hit": false,
      "t": 209581.9332749999,
      "d": 741.0706875000033,
      "v": 100
    },
    {
      "midi": 73,
      "hit": false,
      "t": 209581.9332749999,
      "d": 741.0706875000033,
      "v": 100
    },
    {
      "midi": 76,
      "hit": false,
      "t": 209999.7899999999,
      "d": 694.6421625000075,
      "v": 100
    },
    {
      "midi": 76,
      "hit": false,
      "t": 209999.7899999999,
      "d": 694.6421625000075,
      "v": 100
    },
    {
      "midi": 81,
      "hit": false,
      "t": 210439.0752749999,
      "d": 903.5705250000174,
      "v": 100
    },
    {
      "midi": 81,
      "hit": false,
      "t": 210439.0752749999,
      "d": 903.5705250000174,
      "v": 100
    },
    {
      "midi": 57,
      "hit": false,
      "t": 210856.9319999999,
      "d": 1714.2840000000142,
      "v": 100
    },
    {
      "midi": 57,
      "hit": false,
      "t": 210856.9319999999,
      "d": 1714.2840000000142,
      "v": 100
    },
    {
      "midi": 80,
      "hit": false,
      "t": 211296.21727499992,
      "d": 741.0706875000033,
      "v": 100
    },
    {
      "midi": 80,
      "hit": false,
      "t": 211296.21727499992,
      "d": 741.0706875000033,
      "v": 100
    },
    {
      "midi": 78,
      "hit": false,
      "t": 211714.0739999999,
      "d": 671.4279000000097,
      "v": 100
    },
    {
      "midi": 78,
      "hit": false,
      "t": 211714.0739999999,
      "d": 671.4279000000097,
      "v": 100
    },
    {
      "midi": 76,
      "hit": false,
      "t": 212153.3592749999,
      "d": 741.0706875000324,
      "v": 100
    },
    {
      "midi": 76,
      "hit": false,
      "t": 212153.3592749999,
      "d": 741.0706875000324,
      "v": 100
    },
    {
      "midi": 64,
      "hit": false,
      "t": 212571.21599999993,
      "d": 1714.283999999985,
      "v": 100
    },
    {
      "midi": 64,
      "hit": false,
      "t": 212571.21599999993,
      "d": 1714.283999999985,
      "v": 100
    },
    {
      "midi": 71,
      "hit": false,
      "t": 213010.50127499993,
      "d": 857.1419999999925,
      "v": 100
    },
    {
      "midi": 71,
      "hit": false,
      "t": 213010.50127499993,
      "d": 857.1419999999925,
      "v": 100
    },
    {
      "midi": 76,
      "hit": false,
      "t": 213428.35799999992,
      "d": 787.499212499999,
      "v": 100
    },
    {
      "midi": 76,
      "hit": false,
      "t": 213428.35799999992,
      "d": 787.499212499999,
      "v": 100
    },
    {
      "midi": 83,
      "hit": false,
      "t": 213867.64327499992,
      "d": 787.499212499999,
      "v": 100
    },
    {
      "midi": 83,
      "hit": false,
      "t": 213867.64327499992,
      "d": 787.499212499999,
      "v": 100
    },
    {
      "midi": 59,
      "hit": false,
      "t": 214285.4999999999,
      "d": 1714.2840000000142,
      "v": 100
    },
    {
      "midi": 59,
      "hit": false,
      "t": 214285.4999999999,
      "d": 1714.2840000000142,
      "v": 100
    },
    {
      "midi": 71,
      "hit": false,
      "t": 214724.78527499991,
      "d": 787.499212499999,
      "v": 100
    },
    {
      "midi": 71,
      "hit": false,
      "t": 214724.78527499991,
      "d": 787.499212499999,
      "v": 100
    },
    {
      "midi": 75,
      "hit": false,
      "t": 215142.6419999999,
      "d": 601.7851125000161,
      "v": 100
    },
    {
      "midi": 75,
      "hit": false,
      "t": 215142.6419999999,
      "d": 601.7851125000161,
      "v": 100
    },
    {
      "midi": 76,
      "hit": false,
      "t": 215581.9272749999,
      "d": 3823.210462500021,
      "v": 100
    },
    {
      "midi": 76,
      "hit": false,
      "t": 215581.9272749999,
      "d": 3823.210462500021,
      "v": 100
    },
    {
      "midi": 69,
      "hit": false,
      "t": 215999.78399999993,
      "d": 3382.1394750000036,
      "v": 100
    },
    {
      "midi": 57,
      "hit": false,
      "t": 215999.78399999993,
      "d": 3428.5679999999993,
      "v": 100
    },
    {
      "midi": 69,
      "hit": false,
      "t": 215999.78399999993,
      "d": 3382.1394750000036,
      "v": 100
    },
    {
      "midi": 57,
      "hit": false,
      "t": 215999.78399999993,
      "d": 3428.5679999999993,
      "v": 100
    },
    {
      "midi": 56,
      "hit": false,
      "t": 219428.35199999993,
      "d": 857.1419999999925,
      "v": 100
    },
    {
      "midi": 59,
      "hit": false,
      "t": 219428.35199999993,
      "d": 857.1419999999925,
      "v": 100
    },
    {
      "midi": 40,
      "hit": false,
      "t": 219428.35199999993,
      "d": 1735.7125499999966,
      "v": 100
    },
    {
      "midi": 52,
      "hit": false,
      "t": 219428.35199999993,
      "d": 1782.1410749999923,
      "v": 120
    },
    {
      "midi": 56,
      "hit": false,
      "t": 219428.35199999993,
      "d": 857.1419999999925,
      "v": 100
    },
    {
      "midi": 59,
      "hit": false,
      "t": 219428.35199999993,
      "d": 857.1419999999925,
      "v": 100
    },
    {
      "midi": 40,
      "hit": false,
      "t": 219428.35199999993,
      "d": 1735.7125499999966,
      "v": 100
    },
    {
      "midi": 52,
      "hit": false,
      "t": 219428.35199999993,
      "d": 1782.1410749999923,
      "v": 120
    },
    {
      "midi": 59,
      "hit": false,
      "t": 220285.49399999992,
      "d": 901.7848125000019,
      "v": 100
    },
    {
      "midi": 56,
      "hit": false,
      "t": 220285.49399999992,
      "d": 924.9990749999997,
      "v": 100
    },
    {
      "midi": 59,
      "hit": false,
      "t": 220285.49399999992,
      "d": 901.7848125000019,
      "v": 100
    },
    {
      "midi": 56,
      "hit": false,
      "t": 220285.49399999992,
      "d": 924.9990749999997,
      "v": 100
    },
    {
      "midi": 54,
      "hit": false,
      "t": 221142.6359999999,
      "d": 810.7134749999968,
      "v": 100
    },
    {
      "midi": 51,
      "hit": false,
      "t": 221142.6359999999,
      "d": 857.1419999999925,
      "v": 100
    },
    {
      "midi": 35,
      "hit": false,
      "t": 221142.6359999999,
      "d": 1667.8554749999894,
      "v": 100
    },
    {
      "midi": 47,
      "hit": false,
      "t": 221142.6359999999,
      "d": 1714.283999999985,
      "v": 120
    },
    {
      "midi": 54,
      "hit": false,
      "t": 221142.6359999999,
      "d": 810.7134749999968,
      "v": 100
    },
    {
      "midi": 51,
      "hit": false,
      "t": 221142.6359999999,
      "d": 857.1419999999925,
      "v": 100
    },
    {
      "midi": 35,
      "hit": false,
      "t": 221142.6359999999,
      "d": 1667.8554749999894,
      "v": 100
    },
    {
      "midi": 47,
      "hit": false,
      "t": 221142.6359999999,
      "d": 1714.283999999985,
      "v": 120
    },
    {
      "midi": 51,
      "hit": false,
      "t": 221999.7779999999,
      "d": 857.1419999999925,
      "v": 100
    },
    {
      "midi": 54,
      "hit": false,
      "t": 221999.7779999999,
      "d": 878.570550000004,
      "v": 100
    },
    {
      "midi": 51,
      "hit": false,
      "t": 221999.7779999999,
      "d": 857.1419999999925,
      "v": 100
    },
    {
      "midi": 54,
      "hit": false,
      "t": 221999.7779999999,
      "d": 878.570550000004,
      "v": 100
    },
    {
      "midi": 52,
      "hit": false,
      "t": 222856.9199999999,
      "d": 857.1420000000217,
      "v": 100
    },
    {
      "midi": 56,
      "hit": false,
      "t": 222856.9199999999,
      "d": 857.1420000000217,
      "v": 100
    },
    {
      "midi": 37,
      "hit": false,
      "t": 222856.9199999999,
      "d": 1714.2840000000142,
      "v": 100
    },
    {
      "midi": 49,
      "hit": false,
      "t": 222856.9199999999,
      "d": 1714.2840000000142,
      "v": 120
    },
    {
      "midi": 52,
      "hit": false,
      "t": 222856.9199999999,
      "d": 857.1420000000217,
      "v": 100
    },
    {
      "midi": 56,
      "hit": false,
      "t": 222856.9199999999,
      "d": 857.1420000000217,
      "v": 100
    },
    {
      "midi": 37,
      "hit": false,
      "t": 222856.9199999999,
      "d": 1714.2840000000142,
      "v": 100
    },
    {
      "midi": 49,
      "hit": false,
      "t": 222856.9199999999,
      "d": 1714.2840000000142,
      "v": 120
    },
    {
      "midi": 52,
      "hit": false,
      "t": 223714.06199999992,
      "d": 857.1419999999925,
      "v": 100
    },
    {
      "midi": 56,
      "hit": false,
      "t": 223714.06199999992,
      "d": 878.570550000004,
      "v": 100
    },
    {
      "midi": 52,
      "hit": false,
      "t": 223714.06199999992,
      "d": 857.1419999999925,
      "v": 100
    },
    {
      "midi": 56,
      "hit": false,
      "t": 223714.06199999992,
      "d": 878.570550000004,
      "v": 100
    },
    {
      "midi": 49,
      "hit": false,
      "t": 224571.2039999999,
      "d": 857.1420000000217,
      "v": 100
    },
    {
      "midi": 52,
      "hit": false,
      "t": 224571.2039999999,
      "d": 857.1420000000217,
      "v": 100
    },
    {
      "midi": 33,
      "hit": false,
      "t": 224571.2039999999,
      "d": 1714.2840000000142,
      "v": 100
    },
    {
      "midi": 45,
      "hit": false,
      "t": 224571.2039999999,
      "d": 1735.7125500000257,
      "v": 120
    },
    {
      "midi": 49,
      "hit": false,
      "t": 224571.2039999999,
      "d": 857.1420000000217,
      "v": 100
    },
    {
      "midi": 52,
      "hit": false,
      "t": 224571.2039999999,
      "d": 857.1420000000217,
      "v": 100
    },
    {
      "midi": 33,
      "hit": false,
      "t": 224571.2039999999,
      "d": 1714.2840000000142,
      "v": 100
    },
    {
      "midi": 45,
      "hit": false,
      "t": 224571.2039999999,
      "d": 1735.7125500000257,
      "v": 120
    },
    {
      "midi": 49,
      "hit": false,
      "t": 225428.34599999993,
      "d": 857.1419999999925,
      "v": 100
    },
    {
      "midi": 52,
      "hit": false,
      "t": 225428.34599999993,
      "d": 857.1419999999925,
      "v": 100
    },
    {
      "midi": 49,
      "hit": false,
      "t": 225428.34599999993,
      "d": 857.1419999999925,
      "v": 100
    },
    {
      "midi": 52,
      "hit": false,
      "t": 225428.34599999993,
      "d": 857.1419999999925,
      "v": 100
    },
    {
      "midi": 56,
      "hit": false,
      "t": 226285.48799999992,
      "d": 857.1420000000217,
      "v": 100
    },
    {
      "midi": 59,
      "hit": false,
      "t": 226285.48799999992,
      "d": 857.1420000000217,
      "v": 100
    },
    {
      "midi": 40,
      "hit": false,
      "t": 226285.48799999992,
      "d": 1735.7125500000257,
      "v": 100
    },
    {
      "midi": 52,
      "hit": false,
      "t": 226285.48799999992,
      "d": 1782.1410750000214,
      "v": 120
    },
    {
      "midi": 56,
      "hit": false,
      "t": 226285.48799999992,
      "d": 857.1420000000217,
      "v": 100
    },
    {
      "midi": 59,
      "hit": false,
      "t": 226285.48799999992,
      "d": 857.1420000000217,
      "v": 100
    },
    {
      "midi": 40,
      "hit": false,
      "t": 226285.48799999992,
      "d": 1735.7125500000257,
      "v": 100
    },
    {
      "midi": 52,
      "hit": false,
      "t": 226285.48799999992,
      "d": 1782.1410750000214,
      "v": 120
    },
    {
      "midi": 59,
      "hit": false,
      "t": 227142.62999999995,
      "d": 901.7848125000019,
      "v": 100
    },
    {
      "midi": 56,
      "hit": false,
      "t": 227142.62999999995,
      "d": 924.9990749999997,
      "v": 100
    },
    {
      "midi": 59,
      "hit": false,
      "t": 227142.62999999995,
      "d": 901.7848125000019,
      "v": 100
    },
    {
      "midi": 56,
      "hit": false,
      "t": 227142.62999999995,
      "d": 924.9990749999997,
      "v": 100
    },
    {
      "midi": 54,
      "hit": false,
      "t": 227999.77199999994,
      "d": 810.7134749999968,
      "v": 100
    },
    {
      "midi": 51,
      "hit": false,
      "t": 227999.77199999994,
      "d": 857.1419999999925,
      "v": 100
    },
    {
      "midi": 35,
      "hit": false,
      "t": 227999.77199999994,
      "d": 1667.8554749999894,
      "v": 100
    },
    {
      "midi": 47,
      "hit": false,
      "t": 227999.77199999994,
      "d": 1714.283999999985,
      "v": 120
    },
    {
      "midi": 54,
      "hit": false,
      "t": 227999.77199999994,
      "d": 810.7134749999968,
      "v": 100
    },
    {
      "midi": 51,
      "hit": false,
      "t": 227999.77199999994,
      "d": 857.1419999999925,
      "v": 100
    },
    {
      "midi": 35,
      "hit": false,
      "t": 227999.77199999994,
      "d": 1667.8554749999894,
      "v": 100
    },
    {
      "midi": 47,
      "hit": false,
      "t": 227999.77199999994,
      "d": 1714.283999999985,
      "v": 120
    },
    {
      "midi": 51,
      "hit": false,
      "t": 228856.91399999993,
      "d": 857.1419999999925,
      "v": 100
    },
    {
      "midi": 54,
      "hit": false,
      "t": 228856.91399999993,
      "d": 878.570550000004,
      "v": 100
    },
    {
      "midi": 51,
      "hit": false,
      "t": 228856.91399999993,
      "d": 857.1419999999925,
      "v": 100
    },
    {
      "midi": 54,
      "hit": false,
      "t": 228856.91399999993,
      "d": 878.570550000004,
      "v": 100
    },
    {
      "midi": 52,
      "hit": false,
      "t": 229714.05599999992,
      "d": 857.1420000000217,
      "v": 100
    },
    {
      "midi": 56,
      "hit": false,
      "t": 229714.05599999992,
      "d": 857.1420000000217,
      "v": 100
    },
    {
      "midi": 37,
      "hit": false,
      "t": 229714.05599999992,
      "d": 1714.2840000000142,
      "v": 100
    },
    {
      "midi": 49,
      "hit": false,
      "t": 229714.05599999992,
      "d": 1714.2840000000142,
      "v": 120
    },
    {
      "midi": 52,
      "hit": false,
      "t": 229714.05599999992,
      "d": 857.1420000000217,
      "v": 100
    },
    {
      "midi": 56,
      "hit": false,
      "t": 229714.05599999992,
      "d": 857.1420000000217,
      "v": 100
    },
    {
      "midi": 37,
      "hit": false,
      "t": 229714.05599999992,
      "d": 1714.2840000000142,
      "v": 100
    },
    {
      "midi": 49,
      "hit": false,
      "t": 229714.05599999992,
      "d": 1714.2840000000142,
      "v": 120
    },
    {
      "midi": 52,
      "hit": false,
      "t": 230571.19799999995,
      "d": 857.1419999999925,
      "v": 100
    },
    {
      "midi": 56,
      "hit": false,
      "t": 230571.19799999995,
      "d": 878.570550000004,
      "v": 100
    },
    {
      "midi": 52,
      "hit": false,
      "t": 230571.19799999995,
      "d": 857.1419999999925,
      "v": 100
    },
    {
      "midi": 56,
      "hit": false,
      "t": 230571.19799999995,
      "d": 878.570550000004,
      "v": 100
    },
    {
      "midi": 49,
      "hit": false,
      "t": 231428.33999999994,
      "d": 857.1420000000217,
      "v": 100
    },
    {
      "midi": 52,
      "hit": false,
      "t": 231428.33999999994,
      "d": 857.1420000000217,
      "v": 100
    },
    {
      "midi": 33,
      "hit": false,
      "t": 231428.33999999994,
      "d": 1714.2840000000142,
      "v": 100
    },
    {
      "midi": 45,
      "hit": false,
      "t": 231428.33999999994,
      "d": 1735.7125500000257,
      "v": 120
    },
    {
      "midi": 49,
      "hit": false,
      "t": 231428.33999999994,
      "d": 857.1420000000217,
      "v": 100
    },
    {
      "midi": 52,
      "hit": false,
      "t": 231428.33999999994,
      "d": 857.1420000000217,
      "v": 100
    },
    {
      "midi": 33,
      "hit": false,
      "t": 231428.33999999994,
      "d": 1714.2840000000142,
      "v": 100
    },
    {
      "midi": 45,
      "hit": false,
      "t": 231428.33999999994,
      "d": 1735.7125500000257,
      "v": 120
    },
    {
      "midi": 49,
      "hit": false,
      "t": 232285.48199999996,
      "d": 857.1419999999925,
      "v": 100
    },
    {
      "midi": 52,
      "hit": false,
      "t": 232285.48199999996,
      "d": 857.1419999999925,
      "v": 100
    },
    {
      "midi": 49,
      "hit": false,
      "t": 232285.48199999996,
      "d": 857.1419999999925,
      "v": 100
    },
    {
      "midi": 52,
      "hit": false,
      "t": 232285.48199999996,
      "d": 857.1419999999925,
      "v": 100
    },
    {
      "midi": 56,
      "hit": false,
      "t": 233142.62399999995,
      "d": 857.1420000000217,
      "v": 100
    },
    {
      "midi": 59,
      "hit": false,
      "t": 233142.62399999995,
      "d": 857.1420000000217,
      "v": 100
    },
    {
      "midi": 40,
      "hit": false,
      "t": 233142.62399999995,
      "d": 1735.7125500000257,
      "v": 100
    },
    {
      "midi": 52,
      "hit": false,
      "t": 233142.62399999995,
      "d": 1782.1410750000214,
      "v": 120
    },
    {
      "midi": 56,
      "hit": false,
      "t": 233142.62399999995,
      "d": 857.1420000000217,
      "v": 100
    },
    {
      "midi": 59,
      "hit": false,
      "t": 233142.62399999995,
      "d": 857.1420000000217,
      "v": 100
    },
    {
      "midi": 40,
      "hit": false,
      "t": 233142.62399999995,
      "d": 1735.7125500000257,
      "v": 100
    },
    {
      "midi": 52,
      "hit": false,
      "t": 233142.62399999995,
      "d": 1782.1410750000214,
      "v": 120
    },
    {
      "midi": 59,
      "hit": false,
      "t": 233999.76599999997,
      "d": 901.7848125000019,
      "v": 100
    },
    {
      "midi": 56,
      "hit": false,
      "t": 233999.76599999997,
      "d": 924.9990749999997,
      "v": 100
    },
    {
      "midi": 59,
      "hit": false,
      "t": 233999.76599999997,
      "d": 901.7848125000019,
      "v": 100
    },
    {
      "midi": 56,
      "hit": false,
      "t": 233999.76599999997,
      "d": 924.9990749999997,
      "v": 100
    },
    {
      "midi": 54,
      "hit": false,
      "t": 234856.90799999997,
      "d": 810.7134749999968,
      "v": 100
    },
    {
      "midi": 51,
      "hit": false,
      "t": 234856.90799999997,
      "d": 857.1419999999925,
      "v": 100
    },
    {
      "midi": 35,
      "hit": false,
      "t": 234856.90799999997,
      "d": 1667.8554749999894,
      "v": 100
    },
    {
      "midi": 47,
      "hit": false,
      "t": 234856.90799999997,
      "d": 1714.283999999985,
      "v": 120
    },
    {
      "midi": 54,
      "hit": false,
      "t": 234856.90799999997,
      "d": 810.7134749999968,
      "v": 100
    },
    {
      "midi": 51,
      "hit": false,
      "t": 234856.90799999997,
      "d": 857.1419999999925,
      "v": 100
    },
    {
      "midi": 35,
      "hit": false,
      "t": 234856.90799999997,
      "d": 1667.8554749999894,
      "v": 100
    },
    {
      "midi": 47,
      "hit": false,
      "t": 234856.90799999997,
      "d": 1714.283999999985,
      "v": 120
    },
    {
      "midi": 51,
      "hit": false,
      "t": 235714.04999999996,
      "d": 857.1419999999925,
      "v": 100
    },
    {
      "midi": 54,
      "hit": false,
      "t": 235714.04999999996,
      "d": 878.570550000004,
      "v": 100
    },
    {
      "midi": 51,
      "hit": false,
      "t": 235714.04999999996,
      "d": 857.1419999999925,
      "v": 100
    },
    {
      "midi": 54,
      "hit": false,
      "t": 235714.04999999996,
      "d": 878.570550000004,
      "v": 100
    },
    {
      "midi": 52,
      "hit": false,
      "t": 236571.19199999995,
      "d": 857.1420000000217,
      "v": 100
    },
    {
      "midi": 56,
      "hit": false,
      "t": 236571.19199999995,
      "d": 857.1420000000217,
      "v": 100
    },
    {
      "midi": 37,
      "hit": false,
      "t": 236571.19199999995,
      "d": 1714.2840000000142,
      "v": 100
    },
    {
      "midi": 49,
      "hit": false,
      "t": 236571.19199999995,
      "d": 1714.2840000000142,
      "v": 120
    },
    {
      "midi": 52,
      "hit": false,
      "t": 236571.19199999995,
      "d": 857.1420000000217,
      "v": 100
    },
    {
      "midi": 56,
      "hit": false,
      "t": 236571.19199999995,
      "d": 857.1420000000217,
      "v": 100
    },
    {
      "midi": 37,
      "hit": false,
      "t": 236571.19199999995,
      "d": 1714.2840000000142,
      "v": 100
    },
    {
      "midi": 49,
      "hit": false,
      "t": 236571.19199999995,
      "d": 1714.2840000000142,
      "v": 120
    },
    {
      "midi": 52,
      "hit": false,
      "t": 237428.33399999997,
      "d": 857.1419999999925,
      "v": 100
    },
    {
      "midi": 56,
      "hit": false,
      "t": 237428.33399999997,
      "d": 878.570550000004,
      "v": 100
    },
    {
      "midi": 52,
      "hit": false,
      "t": 237428.33399999997,
      "d": 857.1419999999925,
      "v": 100
    },
    {
      "midi": 56,
      "hit": false,
      "t": 237428.33399999997,
      "d": 878.570550000004,
      "v": 100
    },
    {
      "midi": 49,
      "hit": false,
      "t": 238285.47599999997,
      "d": 857.1420000000217,
      "v": 100
    },
    {
      "midi": 52,
      "hit": false,
      "t": 238285.47599999997,
      "d": 857.1420000000217,
      "v": 100
    },
    {
      "midi": 33,
      "hit": false,
      "t": 238285.47599999997,
      "d": 1714.2840000000142,
      "v": 100
    },
    {
      "midi": 45,
      "hit": false,
      "t": 238285.47599999997,
      "d": 1735.7125500000257,
      "v": 120
    },
    {
      "midi": 49,
      "hit": false,
      "t": 238285.47599999997,
      "d": 857.1420000000217,
      "v": 100
    },
    {
      "midi": 52,
      "hit": false,
      "t": 238285.47599999997,
      "d": 857.1420000000217,
      "v": 100
    },
    {
      "midi": 33,
      "hit": false,
      "t": 238285.47599999997,
      "d": 1714.2840000000142,
      "v": 100
    },
    {
      "midi": 45,
      "hit": false,
      "t": 238285.47599999997,
      "d": 1735.7125500000257,
      "v": 120
    },
    {
      "midi": 49,
      "hit": false,
      "t": 239142.618,
      "d": 857.1419999999925,
      "v": 100
    },
    {
      "midi": 52,
      "hit": false,
      "t": 239142.618,
      "d": 857.1419999999925,
      "v": 100
    },
    {
      "midi": 49,
      "hit": false,
      "t": 239142.618,
      "d": 857.1419999999925,
      "v": 100
    },
    {
      "midi": 52,
      "hit": false,
      "t": 239142.618,
      "d": 857.1419999999925,
      "v": 100
    },
    {
      "midi": 42,
      "hit": false,
      "t": 239999.75999999998,
      "d": 1714.2840000000142,
      "v": 100
    },
    {
      "midi": 57,
      "hit": false,
      "t": 239999.75999999998,
      "d": 1714.2840000000142,
      "v": 100
    },
    {
      "midi": 61,
      "hit": false,
      "t": 239999.75999999998,
      "d": 1735.7125500000257,
      "v": 100
    },
    {
      "midi": 54,
      "hit": false,
      "t": 239999.75999999998,
      "d": 1758.9268125000235,
      "v": 100
    },
    {
      "midi": 42,
      "hit": false,
      "t": 239999.75999999998,
      "d": 1714.2840000000142,
      "v": 100
    },
    {
      "midi": 57,
      "hit": false,
      "t": 239999.75999999998,
      "d": 1714.2840000000142,
      "v": 100
    },
    {
      "midi": 61,
      "hit": false,
      "t": 239999.75999999998,
      "d": 1735.7125500000257,
      "v": 100
    },
    {
      "midi": 54,
      "hit": false,
      "t": 239999.75999999998,
      "d": 1758.9268125000235,
      "v": 100
    },
    {
      "midi": 44,
      "hit": false,
      "t": 241714.044,
      "d": 1714.2840000000142,
      "v": 100
    },
    {
      "midi": 56,
      "hit": false,
      "t": 241714.044,
      "d": 1714.2840000000142,
      "v": 100
    },
    {
      "midi": 59,
      "hit": false,
      "t": 241714.044,
      "d": 1714.2840000000142,
      "v": 100
    },
    {
      "midi": 64,
      "hit": false,
      "t": 241714.044,
      "d": 1714.2840000000142,
      "v": 100
    },
    {
      "midi": 44,
      "hit": false,
      "t": 241714.044,
      "d": 1714.2840000000142,
      "v": 100
    },
    {
      "midi": 56,
      "hit": false,
      "t": 241714.044,
      "d": 1714.2840000000142,
      "v": 100
    },
    {
      "midi": 59,
      "hit": false,
      "t": 241714.044,
      "d": 1714.2840000000142,
      "v": 100
    },
    {
      "midi": 64,
      "hit": false,
      "t": 241714.044,
      "d": 1714.2840000000142,
      "v": 100
    },
    {
      "midi": 45,
      "hit": false,
      "t": 243428.328,
      "d": 3428.5679999999993,
      "v": 100
    },
    {
      "midi": 57,
      "hit": false,
      "t": 243428.328,
      "d": 3428.5679999999993,
      "v": 100
    },
    {
      "midi": 61,
      "hit": false,
      "t": 243428.328,
      "d": 3428.5679999999993,
      "v": 100
    },
    {
      "midi": 64,
      "hit": false,
      "t": 243428.328,
      "d": 3428.5679999999993,
      "v": 100
    },
    {
      "midi": 45,
      "hit": false,
      "t": 243428.328,
      "d": 3428.5679999999993,
      "v": 100
    },
    {
      "midi": 57,
      "hit": false,
      "t": 243428.328,
      "d": 3428.5679999999993,
      "v": 100
    },
    {
      "midi": 61,
      "hit": false,
      "t": 243428.328,
      "d": 3428.5679999999993,
      "v": 100
    },
    {
      "midi": 64,
      "hit": false,
      "t": 243428.328,
      "d": 3428.5679999999993,
      "v": 100
    },
    {
      "midi": 45,
      "hit": false,
      "t": 246856.896,
      "d": 1714.2840000000142,
      "v": 100
    },
    {
      "midi": 57,
      "hit": false,
      "t": 246856.896,
      "d": 1714.2840000000142,
      "v": 100
    },
    {
      "midi": 61,
      "hit": false,
      "t": 246856.896,
      "d": 1714.2840000000142,
      "v": 100
    },
    {
      "midi": 64,
      "hit": false,
      "t": 246856.896,
      "d": 1714.2840000000142,
      "v": 100
    },
    {
      "midi": 45,
      "hit": false,
      "t": 246856.896,
      "d": 1714.2840000000142,
      "v": 100
    },
    {
      "midi": 57,
      "hit": false,
      "t": 246856.896,
      "d": 1714.2840000000142,
      "v": 100
    },
    {
      "midi": 61,
      "hit": false,
      "t": 246856.896,
      "d": 1714.2840000000142,
      "v": 100
    },
    {
      "midi": 64,
      "hit": false,
      "t": 246856.896,
      "d": 1714.2840000000142,
      "v": 100
    },
    {
      "midi": 44,
      "hit": false,
      "t": 248571.18000000002,
      "d": 1714.2840000000142,
      "v": 100
    },
    {
      "midi": 56,
      "hit": false,
      "t": 248571.18000000002,
      "d": 1714.2840000000142,
      "v": 100
    },
    {
      "midi": 59,
      "hit": false,
      "t": 248571.18000000002,
      "d": 1714.2840000000142,
      "v": 100
    },
    {
      "midi": 64,
      "hit": false,
      "t": 248571.18000000002,
      "d": 1714.2840000000142,
      "v": 100
    },
    {
      "midi": 44,
      "hit": false,
      "t": 248571.18000000002,
      "d": 1714.2840000000142,
      "v": 100
    },
    {
      "midi": 56,
      "hit": false,
      "t": 248571.18000000002,
      "d": 1714.2840000000142,
      "v": 100
    },
    {
      "midi": 59,
      "hit": false,
      "t": 248571.18000000002,
      "d": 1714.2840000000142,
      "v": 100
    },
    {
      "midi": 64,
      "hit": false,
      "t": 248571.18000000002,
      "d": 1714.2840000000142,
      "v": 100
    },
    {
      "midi": 38,
      "hit": false,
      "t": 250285.46400000004,
      "d": 3428.5679999999993,
      "v": 100
    },
    {
      "midi": 50,
      "hit": false,
      "t": 250285.46400000004,
      "d": 3428.5679999999993,
      "v": 100
    },
    {
      "midi": 54,
      "hit": false,
      "t": 250285.46400000004,
      "d": 3428.5679999999993,
      "v": 100
    },
    {
      "midi": 57,
      "hit": false,
      "t": 250285.46400000004,
      "d": 3428.5679999999993,
      "v": 100
    },
    {
      "midi": 38,
      "hit": false,
      "t": 250285.46400000004,
      "d": 3428.5679999999993,
      "v": 100
    },
    {
      "midi": 50,
      "hit": false,
      "t": 250285.46400000004,
      "d": 3428.5679999999993,
      "v": 100
    },
    {
      "midi": 54,
      "hit": false,
      "t": 250285.46400000004,
      "d": 3428.5679999999993,
      "v": 100
    },
    {
      "midi": 57,
      "hit": false,
      "t": 250285.46400000004,
      "d": 3428.5679999999993,
      "v": 100
    },
    {
      "midi": 42,
      "hit": false,
      "t": 253714.03200000004,
      "d": 1714.283999999985,
      "v": 100
    },
    {
      "midi": 42,
      "hit": false,
      "t": 253714.03200000004,
      "d": 1714.283999999985,
      "v": 100
    },
    {
      "midi": 57,
      "hit": false,
      "t": 254153.31727500004,
      "d": 741.0706875000033,
      "v": 100
    },
    {
      "midi": 57,
      "hit": false,
      "t": 254153.31727500004,
      "d": 741.0706875000033,
      "v": 100
    },
    {
      "midi": 61,
      "hit": false,
      "t": 254571.17400000003,
      "d": 741.0706875000033,
      "v": 100
    },
    {
      "midi": 61,
      "hit": false,
      "t": 254571.17400000003,
      "d": 741.0706875000033,
      "v": 100
    },
    {
      "midi": 66,
      "hit": false,
      "t": 255010.45927500003,
      "d": 648.2136374999827,
      "v": 100
    },
    {
      "midi": 66,
      "hit": false,
      "t": 255010.45927500003,
      "d": 648.2136374999827,
      "v": 100
    },
    {
      "midi": 56,
      "hit": false,
      "t": 255428.31600000002,
      "d": 1157.1416999999783,
      "v": 100
    },
    {
      "midi": 64,
      "hit": false,
      "t": 255428.31600000002,
      "d": 1157.1416999999783,
      "v": 100
    },
    {
      "midi": 59,
      "hit": false,
      "t": 255428.31600000002,
      "d": 1203.570224999974,
      "v": 100
    },
    {
      "midi": 56,
      "hit": false,
      "t": 255428.31600000002,
      "d": 1157.1416999999783,
      "v": 100
    },
    {
      "midi": 64,
      "hit": false,
      "t": 255428.31600000002,
      "d": 1157.1416999999783,
      "v": 100
    },
    {
      "midi": 59,
      "hit": false,
      "t": 255428.31600000002,
      "d": 1203.570224999974,
      "v": 100
    },
    {
      "midi": 71,
      "hit": false,
      "t": 256285.458,
      "d": 555.3565874999622,
      "v": 100
    },
    {
      "midi": 71,
      "hit": false,
      "t": 256285.458,
      "d": 555.3565874999622,
      "v": 100
    },
    {
      "midi": 69,
      "hit": false,
      "t": 256724.743275,
      "d": 441.0709874999884,
      "v": 100
    },
    {
      "midi": 69,
      "hit": false,
      "t": 256724.743275,
      "d": 441.0709874999884,
      "v": 100
    },
    {
      "midi": 57,
      "hit": false,
      "t": 257142.59999999998,
      "d": 4285.709999999992,
      "v": 100
    },
    {
      "midi": 57,
      "hit": false,
      "t": 257142.59999999998,
      "d": 4285.709999999992,
      "v": 100
    },
    {
      "midi": 64,
      "hit": false,
      "t": 257581.88527499998,
      "d": 3869.6389874999877,
      "v": 100
    },
    {
      "midi": 64,
      "hit": false,
      "t": 257581.88527499998,
      "d": 3869.6389874999877,
      "v": 100
    },
    {
      "midi": 69,
      "hit": false,
      "t": 257999.74199999997,
      "d": 3428.5679999999993,
      "v": 100
    },
    {
      "midi": 69,
      "hit": false,
      "t": 257999.74199999997,
      "d": 3428.5679999999993,
      "v": 100
    },
    {
      "midi": 73,
      "hit": false,
      "t": 258439.02727499997,
      "d": 3012.496987499995,
      "v": 100
    },
    {
      "midi": 73,
      "hit": false,
      "t": 258439.02727499997,
      "d": 3012.496987499995,
      "v": 100
    }
  ]
}