{
  "jsonPath": "Unknown/Unknown/F-R David/words.json",
  "path": "Unknown\\Unknown\\F-R David\\Words.mid",
  "name": "Words",
  "difficulty": "Intermediate",
  "bpm": 121.00409195504295,
  "notes": [
    {
      "midi": 63,
      "hit": false,
      "t": 44626.59,
      "d": 414.2421895833395,
      "v": 1
    },
    {
      "midi": 65,
      "hit": false,
      "t": 44998.47825,
      "d": 367.7561583333372,
      "v": 1
    },
    {
      "midi": 66,
      "hit": false,
      "t": 45370.366500000004,
      "d": 739.6444083333336,
      "v": 1
    },
    {
      "midi": 65,
      "hit": false,
      "t": 46114.143000000004,
      "d": 2351.160158333332,
      "v": 1
    },
    {
      "midi": 54,
      "hit": false,
      "t": 48593.397999999994,
      "d": 473.12449583333364,
      "v": 119
    },
    {
      "midi": 58,
      "hit": false,
      "t": 48593.397999999994,
      "d": 473.12449583333364,
      "v": 127
    },
    {
      "midi": 49,
      "hit": false,
      "t": 48593.397999999994,
      "d": 476.22356458333525,
      "v": 119
    },
    {
      "midi": 49,
      "hit": false,
      "t": 49089.248999999996,
      "d": 411.1431208333306,
      "v": 122
    },
    {
      "midi": 53,
      "hit": false,
      "t": 49089.248999999996,
      "d": 411.1431208333306,
      "v": 122
    },
    {
      "midi": 56,
      "hit": false,
      "t": 49089.248999999996,
      "d": 411.1431208333306,
      "v": 127
    },
    {
      "midi": 44,
      "hit": false,
      "t": 49585.09999999999,
      "d": 1974.1067937499975,
      "v": 116
    },
    {
      "midi": 51,
      "hit": false,
      "t": 49585.09999999999,
      "d": 1974.1067937499975,
      "v": 103
    },
    {
      "midi": 60,
      "hit": false,
      "t": 49585.09999999999,
      "d": 1974.1067937499975,
      "v": 111
    },
    {
      "midi": 56,
      "hit": false,
      "t": 49585.09999999999,
      "d": 3957.5107937499924,
      "v": 111
    },
    {
      "midi": 49,
      "hit": false,
      "t": 51568.503999999986,
      "d": 1974.1067937499975,
      "v": 86
    },
    {
      "midi": 53,
      "hit": false,
      "t": 51568.503999999986,
      "d": 1974.1067937499975,
      "v": 82
    },
    {
      "midi": 61,
      "hit": false,
      "t": 51568.503999999986,
      "d": 1974.1067937499975,
      "v": 76
    },
    {
      "midi": 66,
      "hit": false,
      "t": 74377.65,
      "d": 491.718908333336,
      "v": 1
    },
    {
      "midi": 68,
      "hit": false,
      "t": 74873.501,
      "d": 739.6444083333336,
      "v": 1
    },
    {
      "midi": 70,
      "hit": false,
      "t": 75617.27750000001,
      "d": 1235.4954083333287,
      "v": 1
    },
    {
      "midi": 65,
      "hit": false,
      "t": 76856.90500000001,
      "d": 491.718908333336,
      "v": 1
    },
    {
      "midi": 63,
      "hit": false,
      "t": 77352.75600000002,
      "d": 987.5699083333311,
      "v": 1
    },
    {
      "midi": 49,
      "hit": false,
      "t": 90244.88199999998,
      "d": 473.12449583332636,
      "v": 124
    },
    {
      "midi": 58,
      "hit": false,
      "t": 90244.88199999998,
      "d": 496.88402291666716,
      "v": 127
    },
    {
      "midi": 54,
      "hit": false,
      "t": 90244.88199999998,
      "d": 569.1956270833325,
      "v": 127
    },
    {
      "midi": 53,
      "hit": false,
      "t": 90740.73299999998,
      "d": 455.56310625000333,
      "v": 116
    },
    {
      "midi": 56,
      "hit": false,
      "t": 90740.73299999998,
      "d": 465.89333541666565,
      "v": 96
    },
    {
      "midi": 49,
      "hit": false,
      "t": 90740.73299999998,
      "d": 473.12449583332636,
      "v": 109
    },
    {
      "midi": 44,
      "hit": false,
      "t": 91236.58399999997,
      "d": 1974.1067937500047,
      "v": 116
    },
    {
      "midi": 51,
      "hit": false,
      "t": 91236.58399999997,
      "d": 1974.1067937500047,
      "v": 103
    },
    {
      "midi": 60,
      "hit": false,
      "t": 91236.58399999997,
      "d": 1974.1067937500047,
      "v": 111
    },
    {
      "midi": 56,
      "hit": false,
      "t": 91236.58399999997,
      "d": 3957.5107937500143,
      "v": 111
    },
    {
      "midi": 49,
      "hit": false,
      "t": 93219.98799999998,
      "d": 1974.1067937500047,
      "v": 66
    },
    {
      "midi": 53,
      "hit": false,
      "t": 93219.98799999998,
      "d": 1974.1067937500047,
      "v": 62
    },
    {
      "midi": 61,
      "hit": false,
      "t": 93219.98799999998,
      "d": 1974.1067937500047,
      "v": 56
    },
    {
      "midi": 66,
      "hit": false,
      "t": 127929.55800000002,
      "d": 491.718908333336,
      "v": 1
    },
    {
      "midi": 68,
      "hit": false,
      "t": 128425.40900000003,
      "d": 739.6444083333336,
      "v": 1
    },
    {
      "midi": 70,
      "hit": false,
      "t": 129169.18550000004,
      "d": 1235.4954083333287,
      "v": 1
    },
    {
      "midi": 65,
      "hit": false,
      "t": 130408.81300000004,
      "d": 491.718908333336,
      "v": 1
    },
    {
      "midi": 63,
      "hit": false,
      "t": 130904.66400000005,
      "d": 1111.5326583333372,
      "v": 1
    },
    {
      "midi": 63,
      "hit": false,
      "t": 139829.98200000005,
      "d": 367.75615833332995,
      "v": 1
    },
    {
      "midi": 65,
      "hit": false,
      "t": 140201.87025000004,
      "d": 367.75615833332995,
      "v": 1
    },
    {
      "midi": 66,
      "hit": false,
      "t": 140573.75850000003,
      "d": 739.644408333319,
      "v": 1
    },
    {
      "midi": 65,
      "hit": false,
      "t": 141317.535,
      "d": 2351.1601583333395,
      "v": 1
    },
    {
      "midi": 66,
      "hit": false,
      "t": 159664.022,
      "d": 491.718908333336,
      "v": 1
    },
    {
      "midi": 68,
      "hit": false,
      "t": 160159.873,
      "d": 739.644408333319,
      "v": 1
    },
    {
      "midi": 70,
      "hit": false,
      "t": 160903.64949999997,
      "d": 1235.4954083333432,
      "v": 1
    },
    {
      "midi": 65,
      "hit": false,
      "t": 162143.27699999997,
      "d": 491.718908333336,
      "v": 1
    },
    {
      "midi": 63,
      "hit": false,
      "t": 162639.12799999997,
      "d": 987.5699083333311,
      "v": 1
    },
    {
      "midi": 63,
      "hit": false,
      "t": 171564.44599999997,
      "d": 367.75615833332995,
      "v": 1
    },
    {
      "midi": 65,
      "hit": false,
      "t": 171936.33424999996,
      "d": 367.75615833332995,
      "v": 1
    },
    {
      "midi": 66,
      "hit": false,
      "t": 172308.22249999995,
      "d": 739.644408333319,
      "v": 1
    },
    {
      "midi": 65,
      "hit": false,
      "t": 173051.99899999992,
      "d": 2475.1229083333455,
      "v": 1
    },
    {
      "midi": 66,
      "hit": false,
      "t": 175531.25399999993,
      "d": 491.718908333336,
      "v": 1
    },
    {
      "midi": 68,
      "hit": false,
      "t": 176027.10499999992,
      "d": 739.644408333319,
      "v": 1
    },
    {
      "midi": 70,
      "hit": false,
      "t": 176770.8814999999,
      "d": 1235.4954083333432,
      "v": 1
    },
    {
      "midi": 65,
      "hit": false,
      "t": 178010.5089999999,
      "d": 491.718908333336,
      "v": 1
    },
    {
      "midi": 63,
      "hit": false,
      "t": 178506.3599999999,
      "d": 1359.4581583333202,
      "v": 1
    },
    {
      "midi": 61,
      "hit": false,
      "t": 179869.95024999988,
      "d": 367.75615833332995,
      "v": 1
    },
    {
      "midi": 60,
      "hit": false,
      "t": 180241.83849999987,
      "d": 243.7934083333239,
      "v": 1
    },
    {
      "midi": 71,
      "hit": false,
      "t": 180489.76399999985,
      "d": 1483.4209083333262,
      "v": 1
    },
    {
      "midi": 66,
      "hit": false,
      "t": 181977.31699999984,
      "d": 543.3700541666476,
      "v": 1
    },
    {
      "midi": 65,
      "hit": false,
      "t": 182473.16799999983,
      "d": 1359.4581583333202,
      "v": 1
    },
    {
      "midi": 66,
      "hit": false,
      "t": 183836.7582499998,
      "d": 367.75615833332995,
      "v": 1
    },
    {
      "midi": 68,
      "hit": false,
      "t": 184208.6464999998,
      "d": 243.7934083333239,
      "v": 1
    },
    {
      "midi": 70,
      "hit": false,
      "t": 184456.57199999978,
      "d": 1483.4209083333262,
      "v": 1
    },
    {
      "midi": 61,
      "hit": false,
      "t": 185944.12499999977,
      "d": 491.718908333336,
      "v": 1
    },
    {
      "midi": 63,
      "hit": false,
      "t": 186439.97599999976,
      "d": 1359.4581583333202,
      "v": 1
    },
    {
      "midi": 65,
      "hit": false,
      "t": 187803.56624999974,
      "d": 367.75615833332995,
      "v": 1
    },
    {
      "midi": 66,
      "hit": false,
      "t": 188175.45449999973,
      "d": 739.644408333319,
      "v": 1
    },
    {
      "midi": 65,
      "hit": false,
      "t": 188919.2309999997,
      "d": 3466.8249083333358,
      "v": 1
    }
  ]
}