{
  "jsonPath": "Unknown/Unknown/Charles Chaplin/limelight.json",
  "path": "Unknown\\Unknown\\Charles Chaplin\\Limelight.mid",
  "name": "Limelight",
  "difficulty": "Advanced",
  "bpm": 100,
  "notes": [
    {
      "midi": 65,
      "hit": false,
      "t": 0,
      "d": 150,
      "v": 100
    },
    {
      "midi": 57,
      "hit": false,
      "t": 0,
      "d": 300,
      "v": 100
    },
    {
      "midi": 67,
      "hit": false,
      "t": 150,
      "d": 150,
      "v": 100
    },
    {
      "midi": 69,
      "hit": false,
      "t": 300,
      "d": 150,
      "v": 100
    },
    {
      "midi": 60,
      "hit": false,
      "t": 300,
      "d": 300,
      "v": 100
    },
    {
      "midi": 67,
      "hit": false,
      "t": 450,
      "d": 150,
      "v": 100
    },
    {
      "midi": 70,
      "hit": false,
      "t": 600,
      "d": 900,
      "v": 100
    },
    {
      "midi": 62,
      "hit": false,
      "t": 600,
      "d": 900,
      "v": 100
    },
    {
      "midi": 53,
      "hit": false,
      "t": 1200,
      "d": 1200,
      "v": 100
    },
    {
      "midi": 69,
      "hit": false,
      "t": 1500,
      "d": 300,
      "v": 100
    },
    {
      "midi": 60,
      "hit": false,
      "t": 1500,
      "d": 300,
      "v": 100
    },
    {
      "midi": 64,
      "hit": false,
      "t": 1800,
      "d": 300,
      "v": 100
    },
    {
      "midi": 55,
      "hit": false,
      "t": 1800,
      "d": 300,
      "v": 100
    },
    {
      "midi": 65,
      "hit": false,
      "t": 2100,
      "d": 300,
      "v": 100
    },
    {
      "midi": 57,
      "hit": false,
      "t": 2100,
      "d": 300,
      "v": 100
    },
    {
      "midi": 67,
      "hit": false,
      "t": 2400,
      "d": 2400,
      "v": 100
    },
    {
      "midi": 58,
      "hit": false,
      "t": 2400,
      "d": 2400,
      "v": 100
    },
    {
      "midi": 50,
      "hit": false,
      "t": 3000,
      "d": 600,
      "v": 100
    },
    {
      "midi": 53,
      "hit": false,
      "t": 3600,
      "d": 600,
      "v": 100
    },
    {
      "midi": 52,
      "hit": false,
      "t": 4200,
      "d": 600,
      "v": 100
    },
    {
      "midi": 64,
      "hit": false,
      "t": 4800,
      "d": 150,
      "v": 100
    },
    {
      "midi": 55,
      "hit": false,
      "t": 4800,
      "d": 300,
      "v": 100
    },
    {
      "midi": 65,
      "hit": false,
      "t": 4950,
      "d": 150,
      "v": 100
    },
    {
      "midi": 67,
      "hit": false,
      "t": 5100,
      "d": 150,
      "v": 100
    },
    {
      "midi": 58,
      "hit": false,
      "t": 5100,
      "d": 300,
      "v": 100
    },
    {
      "midi": 65,
      "hit": false,
      "t": 5250,
      "d": 150,
      "v": 100
    },
    {
      "midi": 69,
      "hit": false,
      "t": 5400,
      "d": 900,
      "v": 100
    },
    {
      "midi": 60,
      "hit": false,
      "t": 5400,
      "d": 900,
      "v": 100
    },
    {
      "midi": 48,
      "hit": false,
      "t": 6000,
      "d": 1200,
      "v": 100
    },
    {
      "midi": 67,
      "hit": false,
      "t": 6300,
      "d": 300,
      "v": 100
    },
    {
      "midi": 58,
      "hit": false,
      "t": 6300,
      "d": 300,
      "v": 100
    },
    {
      "midi": 62,
      "hit": false,
      "t": 6600,
      "d": 300,
      "v": 100
    },
    {
      "midi": 53,
      "hit": false,
      "t": 6600,
      "d": 300,
      "v": 100
    },
    {
      "midi": 64,
      "hit": false,
      "t": 6900,
      "d": 300,
      "v": 100
    },
    {
      "midi": 55,
      "hit": false,
      "t": 6900,
      "d": 300,
      "v": 100
    },
    {
      "midi": 65,
      "hit": false,
      "t": 7200,
      "d": 2400,
      "v": 100
    },
    {
      "midi": 57,
      "hit": false,
      "t": 7200,
      "d": 2400,
      "v": 100
    },
    {
      "midi": 48,
      "hit": false,
      "t": 7800,
      "d": 600,
      "v": 100
    },
    {
      "midi": 52,
      "hit": false,
      "t": 8400,
      "d": 600,
      "v": 100
    },
    {
      "midi": 50,
      "hit": false,
      "t": 9000,
      "d": 600,
      "v": 100
    },
    {
      "midi": 69,
      "hit": false,
      "t": 9600,
      "d": 150,
      "v": 100
    },
    {
      "midi": 57,
      "hit": false,
      "t": 9600,
      "d": 1800,
      "v": 100
    },
    {
      "midi": 60,
      "hit": false,
      "t": 9600,
      "d": 1800,
      "v": 100
    },
    {
      "midi": 53,
      "hit": false,
      "t": 9600,
      "d": 2400,
      "v": 100
    },
    {
      "midi": 70,
      "hit": false,
      "t": 9750,
      "d": 150,
      "v": 100
    },
    {
      "midi": 72,
      "hit": false,
      "t": 9900,
      "d": 150,
      "v": 100
    },
    {
      "midi": 69,
      "hit": false,
      "t": 10050,
      "d": 150,
      "v": 100
    },
    {
      "midi": 74,
      "hit": false,
      "t": 10200,
      "d": 150,
      "v": 100
    },
    {
      "midi": 72,
      "hit": false,
      "t": 10350,
      "d": 150,
      "v": 100
    },
    {
      "midi": 77,
      "hit": false,
      "t": 10500,
      "d": 150,
      "v": 100
    },
    {
      "midi": 76,
      "hit": false,
      "t": 10650,
      "d": 150,
      "v": 100
    },
    {
      "midi": 79,
      "hit": false,
      "t": 10800,
      "d": 150,
      "v": 100
    },
    {
      "midi": 77,
      "hit": false,
      "t": 10950,
      "d": 150,
      "v": 100
    },
    {
      "midi": 82,
      "hit": false,
      "t": 11100,
      "d": 750,
      "v": 100
    },
    {
      "midi": 58,
      "hit": false,
      "t": 11400,
      "d": 600,
      "v": 100
    },
    {
      "midi": 62,
      "hit": false,
      "t": 11400,
      "d": 600,
      "v": 100
    },
    {
      "midi": 77,
      "hit": false,
      "t": 11850,
      "d": 150,
      "v": 100
    },
    {
      "midi": 76,
      "hit": false,
      "t": 12000,
      "d": 1950,
      "v": 100
    },
    {
      "midi": 67,
      "hit": false,
      "t": 12600,
      "d": 1200,
      "v": 100
    },
    {
      "midi": 70,
      "hit": false,
      "t": 12600,
      "d": 1200,
      "v": 100
    },
    {
      "midi": 59,
      "hit": false,
      "t": 12600,
      "d": 200,
      "v": 100
    },
    {
      "midi": 57,
      "hit": false,
      "t": 12800,
      "d": 200,
      "v": 100
    },
    {
      "midi": 55,
      "hit": false,
      "t": 13000,
      "d": 200,
      "v": 100
    },
    {
      "midi": 60,
      "hit": false,
      "t": 13200,
      "d": 600,
      "v": 100
    },
    {
      "midi": 72,
      "hit": false,
      "t": 13950,
      "d": 150,
      "v": 100
    },
    {
      "midi": 74,
      "hit": false,
      "t": 14100,
      "d": 150,
      "v": 100
    },
    {
      "midi": 76,
      "hit": false,
      "t": 14250,
      "d": 150,
      "v": 100
    },
    {
      "midi": 74,
      "hit": false,
      "t": 14400,
      "d": 750,
      "v": 100
    },
    {
      "midi": 58,
      "hit": false,
      "t": 15000,
      "d": 4200,
      "v": 100
    },
    {
      "midi": 53,
      "hit": false,
      "t": 15000,
      "d": 600,
      "v": 100
    },
    {
      "midi": 70,
      "hit": false,
      "t": 15150,
      "d": 150,
      "v": 100
    },
    {
      "midi": 72,
      "hit": false,
      "t": 15300,
      "d": 150,
      "v": 100
    },
    {
      "midi": 74,
      "hit": false,
      "t": 15450,
      "d": 150,
      "v": 100
    },
    {
      "midi": 72,
      "hit": false,
      "t": 15600,
      "d": 300,
      "v": 100
    },
    {
      "midi": 52,
      "hit": false,
      "t": 15600,
      "d": 600,
      "v": 100
    },
    {
      "midi": 68,
      "hit": false,
      "t": 15900,
      "d": 300,
      "v": 100
    },
    {
      "midi": 76,
      "hit": false,
      "t": 16200,
      "d": 300,
      "v": 100
    },
    {
      "midi": 48,
      "hit": false,
      "t": 16200,
      "d": 600,
      "v": 100
    },
    {
      "midi": 74,
      "hit": false,
      "t": 16500,
      "d": 150,
      "v": 100
    },
    {
      "midi": 76,
      "hit": false,
      "t": 16650,
      "d": 150,
      "v": 100
    },
    {
      "midi": 74,
      "hit": false,
      "t": 16800,
      "d": 450,
      "v": 100
    },
    {
      "midi": 53,
      "hit": false,
      "t": 16800,
      "d": 600,
      "v": 100
    },
    {
      "midi": 72,
      "hit": false,
      "t": 17250,
      "d": 150,
      "v": 100
    },
    {
      "midi": 68,
      "hit": false,
      "t": 17400,
      "d": 1200,
      "v": 100
    },
    {
      "midi": 52,
      "hit": false,
      "t": 17400,
      "d": 600,
      "v": 100
    },
    {
      "midi": 50,
      "hit": false,
      "t": 18000,
      "d": 600,
      "v": 100
    },
    {
      "midi": 52,
      "hit": false,
      "t": 18600,
      "d": 600,
      "v": 100
    },
    {
      "midi": 60,
      "hit": false,
      "t": 18750,
      "d": 150,
      "v": 100
    },
    {
      "midi": 62,
      "hit": false,
      "t": 18900,
      "d": 150,
      "v": 100
    },
    {
      "midi": 64,
      "hit": false,
      "t": 19050,
      "d": 150,
      "v": 100
    },
    {
      "midi": 62,
      "hit": false,
      "t": 19200,
      "d": 750,
      "v": 100
    },
    {
      "midi": 48,
      "hit": false,
      "t": 19800,
      "d": 600,
      "v": 100
    },
    {
      "midi": 53,
      "hit": false,
      "t": 19800,
      "d": 600,
      "v": 100
    },
    {
      "midi": 58,
      "hit": false,
      "t": 19800,
      "d": 600,
      "v": 100
    },
    {
      "midi": 60,
      "hit": false,
      "t": 19950,
      "d": 150,
      "v": 100
    },
    {
      "midi": 62,
      "hit": false,
      "t": 20100,
      "d": 150,
      "v": 100
    },
    {
      "midi": 64,
      "hit": false,
      "t": 20250,
      "d": 150,
      "v": 100
    },
    {
      "midi": 62,
      "hit": false,
      "t": 20400,
      "d": 750,
      "v": 100
    },
    {
      "midi": 48,
      "hit": false,
      "t": 21000,
      "d": 1800,
      "v": 100
    },
    {
      "midi": 53,
      "hit": false,
      "t": 21000,
      "d": 1800,
      "v": 100
    },
    {
      "midi": 58,
      "hit": false,
      "t": 21000,
      "d": 1800,
      "v": 100
    },
    {
      "midi": 60,
      "hit": false,
      "t": 21150,
      "d": 150,
      "v": 100
    },
    {
      "midi": 62,
      "hit": false,
      "t": 21300,
      "d": 150,
      "v": 100
    },
    {
      "midi": 64,
      "hit": false,
      "t": 21450,
      "d": 150,
      "v": 100
    },
    {
      "midi": 62,
      "hit": false,
      "t": 21600,
      "d": 450,
      "v": 100
    },
    {
      "midi": 60,
      "hit": false,
      "t": 22050,
      "d": 150,
      "v": 100
    },
    {
      "midi": 70,
      "hit": false,
      "t": 22200,
      "d": 1050,
      "v": 100
    },
    {
      "midi": 50,
      "hit": false,
      "t": 22800,
      "d": 1200,
      "v": 100
    },
    {
      "midi": 53,
      "hit": false,
      "t": 22800,
      "d": 1200,
      "v": 100
    },
    {
      "midi": 58,
      "hit": false,
      "t": 22800,
      "d": 1200,
      "v": 100
    },
    {
      "midi": 69,
      "hit": false,
      "t": 23250,
      "d": 150,
      "v": 100
    },
    {
      "midi": 72,
      "hit": false,
      "t": 23400,
      "d": 150,
      "v": 100
    },
    {
      "midi": 70,
      "hit": false,
      "t": 23550,
      "d": 150,
      "v": 100
    },
    {
      "midi": 74,
      "hit": false,
      "t": 23700,
      "d": 150,
      "v": 100
    },
    {
      "midi": 72,
      "hit": false,
      "t": 23850,
      "d": 150,
      "v": 100
    },
    {
      "midi": 76,
      "hit": false,
      "t": 24000,
      "d": 2400,
      "v": 100
    },
    {
      "midi": 67,
      "hit": false,
      "t": 24600,
      "d": 1800,
      "v": 100
    },
    {
      "midi": 70,
      "hit": false,
      "t": 24600,
      "d": 1800,
      "v": 100
    },
    {
      "midi": 72,
      "hit": false,
      "t": 24600,
      "d": 1800,
      "v": 100
    },
    {
      "midi": 58,
      "hit": false,
      "t": 24600,
      "d": 200,
      "v": 100
    },
    {
      "midi": 57,
      "hit": false,
      "t": 24800,
      "d": 200,
      "v": 100
    },
    {
      "midi": 55,
      "hit": false,
      "t": 25000,
      "d": 200,
      "v": 100
    },
    {
      "midi": 60,
      "hit": false,
      "t": 25200,
      "d": 600,
      "v": 100
    },
    {
      "midi": 48,
      "hit": false,
      "t": 25800,
      "d": 600,
      "v": 100
    },
    {
      "midi": 65,
      "hit": false,
      "t": 26400,
      "d": 150,
      "v": 100
    },
    {
      "midi": 57,
      "hit": false,
      "t": 26400,
      "d": 300,
      "v": 100
    },
    {
      "midi": 67,
      "hit": false,
      "t": 26550,
      "d": 150,
      "v": 100
    },
    {
      "midi": 69,
      "hit": false,
      "t": 26700,
      "d": 150,
      "v": 100
    },
    {
      "midi": 60,
      "hit": false,
      "t": 26700,
      "d": 300,
      "v": 100
    },
    {
      "midi": 67,
      "hit": false,
      "t": 26850,
      "d": 150,
      "v": 100
    },
    {
      "midi": 70,
      "hit": false,
      "t": 27000,
      "d": 900,
      "v": 100
    },
    {
      "midi": 62,
      "hit": false,
      "t": 27000,
      "d": 900,
      "v": 100
    },
    {
      "midi": 53,
      "hit": false,
      "t": 27600,
      "d": 1200,
      "v": 100
    },
    {
      "midi": 69,
      "hit": false,
      "t": 27900,
      "d": 300,
      "v": 100
    },
    {
      "midi": 60,
      "hit": false,
      "t": 27900,
      "d": 300,
      "v": 100
    },
    {
      "midi": 64,
      "hit": false,
      "t": 28200,
      "d": 300,
      "v": 100
    },
    {
      "midi": 55,
      "hit": false,
      "t": 28200,
      "d": 300,
      "v": 100
    },
    {
      "midi": 65,
      "hit": false,
      "t": 28500,
      "d": 300,
      "v": 100
    },
    {
      "midi": 57,
      "hit": false,
      "t": 28500,
      "d": 300,
      "v": 100
    },
    {
      "midi": 67,
      "hit": false,
      "t": 28800,
      "d": 2400,
      "v": 100
    },
    {
      "midi": 58,
      "hit": false,
      "t": 28800,
      "d": 2400,
      "v": 100
    },
    {
      "midi": 50,
      "hit": false,
      "t": 29400,
      "d": 600,
      "v": 100
    },
    {
      "midi": 53,
      "hit": false,
      "t": 30000,
      "d": 600,
      "v": 100
    },
    {
      "midi": 52,
      "hit": false,
      "t": 30600,
      "d": 600,
      "v": 100
    },
    {
      "midi": 64,
      "hit": false,
      "t": 31200,
      "d": 150,
      "v": 100
    },
    {
      "midi": 55,
      "hit": false,
      "t": 31200,
      "d": 300,
      "v": 100
    },
    {
      "midi": 65,
      "hit": false,
      "t": 31350,
      "d": 150,
      "v": 100
    },
    {
      "midi": 67,
      "hit": false,
      "t": 31500,
      "d": 150,
      "v": 100
    },
    {
      "midi": 58,
      "hit": false,
      "t": 31500,
      "d": 300,
      "v": 100
    },
    {
      "midi": 65,
      "hit": false,
      "t": 31650,
      "d": 150,
      "v": 100
    },
    {
      "midi": 69,
      "hit": false,
      "t": 31800,
      "d": 900,
      "v": 100
    },
    {
      "midi": 60,
      "hit": false,
      "t": 31800,
      "d": 900,
      "v": 100
    },
    {
      "midi": 48,
      "hit": false,
      "t": 32400,
      "d": 1200,
      "v": 100
    },
    {
      "midi": 67,
      "hit": false,
      "t": 32700,
      "d": 300,
      "v": 100
    },
    {
      "midi": 58,
      "hit": false,
      "t": 32700,
      "d": 300,
      "v": 100
    },
    {
      "midi": 62,
      "hit": false,
      "t": 33000,
      "d": 300,
      "v": 100
    },
    {
      "midi": 53,
      "hit": false,
      "t": 33000,
      "d": 300,
      "v": 100
    },
    {
      "midi": 64,
      "hit": false,
      "t": 33300,
      "d": 300,
      "v": 100
    },
    {
      "midi": 55,
      "hit": false,
      "t": 33300,
      "d": 300,
      "v": 100
    },
    {
      "midi": 65,
      "hit": false,
      "t": 33600,
      "d": 2400,
      "v": 100
    },
    {
      "midi": 57,
      "hit": false,
      "t": 33600,
      "d": 2400,
      "v": 100
    },
    {
      "midi": 48,
      "hit": false,
      "t": 34200,
      "d": 600,
      "v": 100
    },
    {
      "midi": 52,
      "hit": false,
      "t": 34800,
      "d": 600,
      "v": 100
    },
    {
      "midi": 50,
      "hit": false,
      "t": 35400,
      "d": 600,
      "v": 100
    },
    {
      "midi": 69,
      "hit": false,
      "t": 36000,
      "d": 150,
      "v": 100
    },
    {
      "midi": 57,
      "hit": false,
      "t": 36000,
      "d": 1800,
      "v": 100
    },
    {
      "midi": 60,
      "hit": false,
      "t": 36000,
      "d": 1800,
      "v": 100
    },
    {
      "midi": 53,
      "hit": false,
      "t": 36000,
      "d": 2400,
      "v": 100
    },
    {
      "midi": 70,
      "hit": false,
      "t": 36150,
      "d": 150,
      "v": 100
    },
    {
      "midi": 72,
      "hit": false,
      "t": 36300,
      "d": 150,
      "v": 100
    },
    {
      "midi": 69,
      "hit": false,
      "t": 36450,
      "d": 150,
      "v": 100
    },
    {
      "midi": 74,
      "hit": false,
      "t": 36600,
      "d": 150,
      "v": 100
    },
    {
      "midi": 72,
      "hit": false,
      "t": 36750,
      "d": 150,
      "v": 100
    },
    {
      "midi": 77,
      "hit": false,
      "t": 36900,
      "d": 150,
      "v": 100
    },
    {
      "midi": 76,
      "hit": false,
      "t": 37050,
      "d": 150,
      "v": 100
    },
    {
      "midi": 79,
      "hit": false,
      "t": 37200,
      "d": 150,
      "v": 100
    },
    {
      "midi": 77,
      "hit": false,
      "t": 37350,
      "d": 150,
      "v": 100
    },
    {
      "midi": 82,
      "hit": false,
      "t": 37500,
      "d": 750,
      "v": 100
    },
    {
      "midi": 58,
      "hit": false,
      "t": 37800,
      "d": 600,
      "v": 100
    },
    {
      "midi": 62,
      "hit": false,
      "t": 37800,
      "d": 600,
      "v": 100
    },
    {
      "midi": 77,
      "hit": false,
      "t": 38250,
      "d": 150,
      "v": 100
    },
    {
      "midi": 76,
      "hit": false,
      "t": 38400,
      "d": 1950,
      "v": 100
    },
    {
      "midi": 67,
      "hit": false,
      "t": 39000,
      "d": 1800,
      "v": 100
    },
    {
      "midi": 70,
      "hit": false,
      "t": 39000,
      "d": 1800,
      "v": 100
    },
    {
      "midi": 58,
      "hit": false,
      "t": 39000,
      "d": 200,
      "v": 100
    },
    {
      "midi": 57,
      "hit": false,
      "t": 39200,
      "d": 200,
      "v": 100
    },
    {
      "midi": 55,
      "hit": false,
      "t": 39400,
      "d": 200,
      "v": 100
    },
    {
      "midi": 60,
      "hit": false,
      "t": 39600,
      "d": 600,
      "v": 100
    },
    {
      "midi": 72,
      "hit": false,
      "t": 40350,
      "d": 150,
      "v": 100
    },
    {
      "midi": 74,
      "hit": false,
      "t": 40500,
      "d": 150,
      "v": 100
    },
    {
      "midi": 76,
      "hit": false,
      "t": 40650,
      "d": 150,
      "v": 100
    },
    {
      "midi": 74,
      "hit": false,
      "t": 40800,
      "d": 750,
      "v": 100
    },
    {
      "midi": 58,
      "hit": false,
      "t": 41400,
      "d": 1800,
      "v": 100
    },
    {
      "midi": 53,
      "hit": false,
      "t": 41400,
      "d": 600,
      "v": 100
    },
    {
      "midi": 70,
      "hit": false,
      "t": 41550,
      "d": 150,
      "v": 100
    },
    {
      "midi": 72,
      "hit": false,
      "t": 41700,
      "d": 150,
      "v": 100
    },
    {
      "midi": 74,
      "hit": false,
      "t": 41850,
      "d": 150,
      "v": 100
    },
    {
      "midi": 72,
      "hit": false,
      "t": 42000,
      "d": 900,
      "v": 100
    },
    {
      "midi": 52,
      "hit": false,
      "t": 42000,
      "d": 600,
      "v": 100
    },
    {
      "midi": 48,
      "hit": false,
      "t": 42600,
      "d": 600,
      "v": 100
    },
    {
      "midi": 68,
      "hit": false,
      "t": 42900,
      "d": 300,
      "v": 100
    },
    {
      "midi": 76,
      "hit": false,
      "t": 43200,
      "d": 900,
      "v": 100
    },
    {
      "midi": 56,
      "hit": false,
      "t": 43200,
      "d": 1200,
      "v": 100
    },
    {
      "midi": 59,
      "hit": false,
      "t": 43200,
      "d": 1200,
      "v": 100
    },
    {
      "midi": 48,
      "hit": false,
      "t": 43800,
      "d": 600,
      "v": 100
    },
    {
      "midi": 67,
      "hit": false,
      "t": 44100,
      "d": 300,
      "v": 100
    },
    {
      "midi": 74,
      "hit": false,
      "t": 44400,
      "d": 600,
      "v": 100
    },
    {
      "midi": 55,
      "hit": false,
      "t": 44400,
      "d": 1200,
      "v": 100
    },
    {
      "midi": 58,
      "hit": false,
      "t": 44400,
      "d": 1200,
      "v": 100
    },
    {
      "midi": 72,
      "hit": false,
      "t": 45000,
      "d": 600,
      "v": 100
    },
    {
      "midi": 52,
      "hit": false,
      "t": 45000,
      "d": 600,
      "v": 100
    },
    {
      "midi": 76,
      "hit": false,
      "t": 45600,
      "d": 900,
      "v": 100
    },
    {
      "midi": 56,
      "hit": false,
      "t": 45600,
      "d": 1200,
      "v": 100
    },
    {
      "midi": 59,
      "hit": false,
      "t": 45600,
      "d": 1200,
      "v": 100
    },
    {
      "midi": 48,
      "hit": false,
      "t": 46200,
      "d": 600,
      "v": 100
    },
    {
      "midi": 67,
      "hit": false,
      "t": 46500,
      "d": 300,
      "v": 100
    },
    {
      "midi": 74,
      "hit": false,
      "t": 46800,
      "d": 600,
      "v": 100
    },
    {
      "midi": 55,
      "hit": false,
      "t": 46800,
      "d": 1200,
      "v": 100
    },
    {
      "midi": 58,
      "hit": false,
      "t": 46800,
      "d": 1200,
      "v": 100
    },
    {
      "midi": 76,
      "hit": false,
      "t": 47400,
      "d": 600,
      "v": 100
    },
    {
      "midi": 48,
      "hit": false,
      "t": 47400,
      "d": 600,
      "v": 100
    },
    {
      "midi": 69,
      "hit": false,
      "t": 48000,
      "d": 4800,
      "v": 100
    },
    {
      "midi": 77,
      "hit": false,
      "t": 48000,
      "d": 4800,
      "v": 100
    },
    {
      "midi": 53,
      "hit": false,
      "t": 48000,
      "d": 150,
      "v": 100
    },
    {
      "midi": 55,
      "hit": false,
      "t": 48150,
      "d": 150,
      "v": 100
    },
    {
      "midi": 57,
      "hit": false,
      "t": 48300,
      "d": 150,
      "v": 100
    },
    {
      "midi": 55,
      "hit": false,
      "t": 48450,
      "d": 150,
      "v": 100
    },
    {
      "midi": 58,
      "hit": false,
      "t": 48600,
      "d": 900,
      "v": 100
    },
    {
      "midi": 57,
      "hit": false,
      "t": 49500,
      "d": 300,
      "v": 100
    },
    {
      "midi": 52,
      "hit": false,
      "t": 49800,
      "d": 300,
      "v": 100
    },
    {
      "midi": 53,
      "hit": false,
      "t": 50100,
      "d": 300,
      "v": 100
    },
    {
      "midi": 60,
      "hit": false,
      "t": 50400,
      "d": 2400,
      "v": 100
    }
  ]
}