{
  "jsonPath": "Rock/Spanish Pop Rock/Pastora Soler/que-va-a-ser-de-mi.json",
  "path": "Rock\\Spanish Pop Rock\\Pastora Soler\\Que va a ser de mi.mid",
  "name": "Que va a ser de mi",
  "difficulty": "Advanced",
  "bpm": 60,
  "notes": [
    {
      "midi": 70,
      "hit": false,
      "t": 4020.8333333333335,
      "d": 104.16666666666652,
      "v": 103
    },
    {
      "midi": 71,
      "hit": false,
      "t": 4020.8333333333335,
      "d": 270.8333333333335,
      "v": 106
    },
    {
      "midi": 43,
      "hit": false,
      "t": 4031.25,
      "d": 2802.083333333334,
      "v": 111
    },
    {
      "midi": 74,
      "hit": false,
      "t": 4333.333333333334,
      "d": 333.33333333333303,
      "v": 87
    },
    {
      "midi": 62,
      "hit": false,
      "t": 4666.666666666667,
      "d": 2312.5,
      "v": 90
    },
    {
      "midi": 50,
      "hit": false,
      "t": 5000,
      "d": 2520.833333333334,
      "v": 91
    },
    {
      "midi": 55,
      "hit": false,
      "t": 5989.583333333334,
      "d": 1989.5833333333321,
      "v": 52
    },
    {
      "midi": 43,
      "hit": false,
      "t": 7010.416666666667,
      "d": 406.25,
      "v": 66
    },
    {
      "midi": 70,
      "hit": false,
      "t": 7333.333333333334,
      "d": 93.75,
      "v": 95
    },
    {
      "midi": 71,
      "hit": false,
      "t": 7333.333333333334,
      "d": 333.33333333333303,
      "v": 93
    },
    {
      "midi": 74,
      "hit": false,
      "t": 7666.666666666667,
      "d": 177.08333333333303,
      "v": 86
    },
    {
      "midi": 75,
      "hit": false,
      "t": 7989.583333333333,
      "d": 83.33333333333303,
      "v": 89
    },
    {
      "midi": 76,
      "hit": false,
      "t": 7989.583333333333,
      "d": 302.08333333333303,
      "v": 103
    },
    {
      "midi": 48,
      "hit": false,
      "t": 7989.583333333333,
      "d": 3541.666666666669,
      "v": 94
    },
    {
      "midi": 79,
      "hit": false,
      "t": 8322.916666666666,
      "d": 281.25,
      "v": 92
    },
    {
      "midi": 67,
      "hit": false,
      "t": 8656.25,
      "d": 2239.583333333334,
      "v": 98
    },
    {
      "midi": 55,
      "hit": false,
      "t": 8989.583333333334,
      "d": 2541.666666666668,
      "v": 69
    },
    {
      "midi": 60,
      "hit": false,
      "t": 9989.583333333334,
      "d": 1510.4166666666679,
      "v": 52
    },
    {
      "midi": 75,
      "hit": false,
      "t": 10989.583333333334,
      "d": 20.83333333333394,
      "v": 73
    },
    {
      "midi": 76,
      "hit": false,
      "t": 10989.583333333334,
      "d": 333.33333333333394,
      "v": 109
    },
    {
      "midi": 74,
      "hit": false,
      "t": 11312.500000000002,
      "d": 312.5,
      "v": 94
    },
    {
      "midi": 72,
      "hit": false,
      "t": 11645.833333333336,
      "d": 166.66666666666606,
      "v": 85
    },
    {
      "midi": 70,
      "hit": false,
      "t": 11979.16666666667,
      "d": 93.75,
      "v": 94
    },
    {
      "midi": 43,
      "hit": false,
      "t": 11979.16666666667,
      "d": 1593.7499999999982,
      "v": 102
    },
    {
      "midi": 71,
      "hit": false,
      "t": 11989.583333333336,
      "d": 312.5,
      "v": 91
    },
    {
      "midi": 74,
      "hit": false,
      "t": 12322.91666666667,
      "d": 322.91666666666606,
      "v": 97
    },
    {
      "midi": 62,
      "hit": false,
      "t": 12645.833333333336,
      "d": 1374.9999999999982,
      "v": 86
    },
    {
      "midi": 50,
      "hit": false,
      "t": 12989.583333333336,
      "d": 541.6666666666661,
      "v": 68
    },
    {
      "midi": 68,
      "hit": false,
      "t": 13989.583333333334,
      "d": 114.58333333333394,
      "v": 109
    },
    {
      "midi": 69,
      "hit": false,
      "t": 13989.583333333334,
      "d": 312.5,
      "v": 102
    },
    {
      "midi": 38,
      "hit": false,
      "t": 13989.583333333334,
      "d": 1458.333333333334,
      "v": 103
    },
    {
      "midi": 74,
      "hit": false,
      "t": 14322.916666666668,
      "d": 322.91666666666606,
      "v": 90
    },
    {
      "midi": 62,
      "hit": false,
      "t": 14645.833333333334,
      "d": 1208.333333333334,
      "v": 95
    },
    {
      "midi": 64,
      "hit": false,
      "t": 16000,
      "d": 468.75,
      "v": 107
    },
    {
      "midi": 72,
      "hit": false,
      "t": 16000,
      "d": 479.1666666666679,
      "v": 96
    },
    {
      "midi": 67,
      "hit": false,
      "t": 16000,
      "d": 520.8333333333358,
      "v": 107
    },
    {
      "midi": 48,
      "hit": false,
      "t": 16000,
      "d": 572.9166666666679,
      "v": 102
    },
    {
      "midi": 62,
      "hit": false,
      "t": 16645.833333333336,
      "d": 3041.666666666668,
      "v": 103
    },
    {
      "midi": 71,
      "hit": false,
      "t": 16645.833333333336,
      "d": 3041.666666666668,
      "v": 100
    },
    {
      "midi": 67,
      "hit": false,
      "t": 16645.833333333336,
      "d": 3052.0833333333358,
      "v": 98
    },
    {
      "midi": 43,
      "hit": false,
      "t": 16656.250000000004,
      "d": 2989.583333333332,
      "v": 101
    },
    {
      "midi": 72,
      "hit": false,
      "t": 19979.16666666667,
      "d": 520.8333333333358,
      "v": 91
    },
    {
      "midi": 64,
      "hit": false,
      "t": 19989.58333333334,
      "d": 500,
      "v": 102
    },
    {
      "midi": 67,
      "hit": false,
      "t": 19989.58333333334,
      "d": 552.0833333333358,
      "v": 107
    },
    {
      "midi": 48,
      "hit": false,
      "t": 19989.58333333334,
      "d": 604.1666666666679,
      "v": 100
    },
    {
      "midi": 62,
      "hit": false,
      "t": 20645.83333333334,
      "d": 2604.166666666668,
      "v": 105
    },
    {
      "midi": 67,
      "hit": false,
      "t": 20645.83333333334,
      "d": 2604.166666666668,
      "v": 100
    },
    {
      "midi": 71,
      "hit": false,
      "t": 20645.83333333334,
      "d": 3375,
      "v": 94
    },
    {
      "midi": 43,
      "hit": false,
      "t": 20656.250000000007,
      "d": 2604.166666666668,
      "v": 103
    },
    {
      "midi": 59,
      "hit": false,
      "t": 24000.000000000007,
      "d": 1333.3333333333321,
      "v": 67
    },
    {
      "midi": 43,
      "hit": false,
      "t": 24000.000000000007,
      "d": 1802.0833333333321,
      "v": 78
    },
    {
      "midi": 62,
      "hit": false,
      "t": 24000.000000000007,
      "d": 3625.0000000000036,
      "v": 79
    },
    {
      "midi": 67,
      "hit": false,
      "t": 24000.000000000007,
      "d": 3625.0000000000036,
      "v": 70
    },
    {
      "midi": 55,
      "hit": false,
      "t": 24989.58333333334,
      "d": 1000,
      "v": 75
    },
    {
      "midi": 59,
      "hit": false,
      "t": 25645.83333333334,
      "d": 364.5833333333321,
      "v": 40
    },
    {
      "midi": 43,
      "hit": false,
      "t": 25989.58333333334,
      "d": 1250,
      "v": 60
    },
    {
      "midi": 50,
      "hit": false,
      "t": 26979.16666666667,
      "d": 333.33333333333576,
      "v": 73
    },
    {
      "midi": 55,
      "hit": false,
      "t": 27322.916666666675,
      "d": 291.6666666666679,
      "v": 45
    },
    {
      "midi": 57,
      "hit": false,
      "t": 28000.00000000001,
      "d": 1156.25,
      "v": 64
    },
    {
      "midi": 47,
      "hit": false,
      "t": 28000.00000000001,
      "d": 1750,
      "v": 82
    },
    {
      "midi": 63,
      "hit": false,
      "t": 28000.00000000001,
      "d": 2927.083333333332,
      "v": 75
    },
    {
      "midi": 54,
      "hit": false,
      "t": 28979.16666666668,
      "d": 989.5833333333321,
      "v": 43
    },
    {
      "midi": 57,
      "hit": false,
      "t": 29312.50000000001,
      "d": 156.25,
      "v": 36
    },
    {
      "midi": 57,
      "hit": false,
      "t": 29656.25000000001,
      "d": 739.5833333333321,
      "v": 56
    },
    {
      "midi": 47,
      "hit": false,
      "t": 29989.583333333343,
      "d": 1406.25,
      "v": 65
    },
    {
      "midi": 57,
      "hit": false,
      "t": 30656.25000000001,
      "d": 510.41666666666424,
      "v": 46
    },
    {
      "midi": 54,
      "hit": false,
      "t": 30989.583333333343,
      "d": 552.0833333333321,
      "v": 85
    },
    {
      "midi": 66,
      "hit": false,
      "t": 31322.916666666675,
      "d": 572.9166666666679,
      "v": 112
    },
    {
      "midi": 63,
      "hit": false,
      "t": 31322.916666666675,
      "d": 656.2500000000036,
      "v": 113
    },
    {
      "midi": 57,
      "hit": false,
      "t": 31666.666666666675,
      "d": 104.16666666666788,
      "v": 47
    },
    {
      "midi": 67,
      "hit": false,
      "t": 31979.16666666668,
      "d": 3677.0833333333358,
      "v": 76
    },
    {
      "midi": 40,
      "hit": false,
      "t": 31989.583333333347,
      "d": 1874.9999999999964,
      "v": 90
    },
    {
      "midi": 59,
      "hit": false,
      "t": 31989.583333333347,
      "d": 3697.916666666668,
      "v": 85
    },
    {
      "midi": 47,
      "hit": false,
      "t": 32322.91666666668,
      "d": 697.9166666666642,
      "v": 69
    },
    {
      "midi": 52,
      "hit": false,
      "t": 32989.58333333334,
      "d": 739.5833333333358,
      "v": 74
    },
    {
      "midi": 55,
      "hit": false,
      "t": 33322.91666666668,
      "d": 583.3333333333285,
      "v": 54
    },
    {
      "midi": 47,
      "hit": false,
      "t": 33666.66666666668,
      "d": 322.91666666666424,
      "v": 59
    },
    {
      "midi": 40,
      "hit": false,
      "t": 33989.58333333334,
      "d": 1239.5833333333358,
      "v": 91
    },
    {
      "midi": 55,
      "hit": false,
      "t": 34520.83333333334,
      "d": 468.75,
      "v": 56
    },
    {
      "midi": 52,
      "hit": false,
      "t": 34979.16666666668,
      "d": 1000,
      "v": 78
    },
    {
      "midi": 55,
      "hit": false,
      "t": 35312.500000000015,
      "d": 375,
      "v": 55
    },
    {
      "midi": 57,
      "hit": false,
      "t": 35989.58333333334,
      "d": 1135.4166666666715,
      "v": 77
    },
    {
      "midi": 47,
      "hit": false,
      "t": 35989.58333333334,
      "d": 1812.5,
      "v": 86
    },
    {
      "midi": 63,
      "hit": false,
      "t": 35989.58333333334,
      "d": 3947.916666666657,
      "v": 77
    },
    {
      "midi": 54,
      "hit": false,
      "t": 37010.41666666668,
      "d": 864.5833333333285,
      "v": 54
    },
    {
      "midi": 57,
      "hit": false,
      "t": 37322.91666666668,
      "d": 125,
      "v": 61
    },
    {
      "midi": 47,
      "hit": false,
      "t": 37979.16666666667,
      "d": 1385.416666666657,
      "v": 62
    },
    {
      "midi": 57,
      "hit": false,
      "t": 37989.583333333336,
      "d": 187.5,
      "v": 56
    },
    {
      "midi": 57,
      "hit": false,
      "t": 38656.25,
      "d": 416.66666666666424,
      "v": 55
    },
    {
      "midi": 54,
      "hit": false,
      "t": 38979.166666666664,
      "d": 343.75,
      "v": 101
    },
    {
      "midi": 57,
      "hit": false,
      "t": 39645.83333333333,
      "d": 270.83333333333576,
      "v": 58
    },
    {
      "midi": 64,
      "hit": false,
      "t": 39989.583333333336,
      "d": 1145.8333333333358,
      "v": 89
    },
    {
      "midi": 60,
      "hit": false,
      "t": 39989.583333333336,
      "d": 1156.25,
      "v": 83
    },
    {
      "midi": 36,
      "hit": false,
      "t": 39989.583333333336,
      "d": 1822.9166666666642,
      "v": 100
    },
    {
      "midi": 55,
      "hit": false,
      "t": 40322.91666666667,
      "d": 677.0833333333358,
      "v": 58
    },
    {
      "midi": 48,
      "hit": false,
      "t": 40979.16666666667,
      "d": 947.9166666666642,
      "v": 84
    },
    {
      "midi": 67,
      "hit": false,
      "t": 41302.083333333336,
      "d": 239.58333333333576,
      "v": 103
    },
    {
      "midi": 63,
      "hit": false,
      "t": 41312.5,
      "d": 114.58333333333576,
      "v": 104
    },
    {
      "midi": 64,
      "hit": false,
      "t": 41312.5,
      "d": 343.75,
      "v": 103
    },
    {
      "midi": 62,
      "hit": false,
      "t": 41645.833333333336,
      "d": 260.41666666666424,
      "v": 85
    },
    {
      "midi": 67,
      "hit": false,
      "t": 41645.833333333336,
      "d": 281.25,
      "v": 60
    },
    {
      "midi": 36,
      "hit": false,
      "t": 41979.16666666667,
      "d": 1291.6666666666642,
      "v": 99
    },
    {
      "midi": 62,
      "hit": false,
      "t": 41979.16666666667,
      "d": 1364.5833333333285,
      "v": 96
    },
    {
      "midi": 67,
      "hit": false,
      "t": 41979.16666666667,
      "d": 4249.999999999985,
      "v": 86
    },
    {
      "midi": 48,
      "hit": false,
      "t": 42989.583333333336,
      "d": 885.4166666666642,
      "v": 101
    },
    {
      "midi": 60,
      "hit": false,
      "t": 43312.5,
      "d": 572.9166666666642,
      "v": 73
    },
    {
      "midi": 59,
      "hit": false,
      "t": 43979.166666666664,
      "d": 1125,
      "v": 90
    },
    {
      "midi": 62,
      "hit": false,
      "t": 43979.166666666664,
      "d": 1458.3333333333285,
      "v": 91
    },
    {
      "midi": 43,
      "hit": false,
      "t": 43979.166666666664,
      "d": 1854.166666666657,
      "v": 92
    },
    {
      "midi": 50,
      "hit": false,
      "t": 44666.666666666664,
      "d": 322.91666666666424,
      "v": 33
    },
    {
      "midi": 55,
      "hit": false,
      "t": 44979.166666666664,
      "d": 947.916666666657,
      "v": 78
    },
    {
      "midi": 59,
      "hit": false,
      "t": 45302.08333333333,
      "d": 458.3333333333285,
      "v": 66
    },
    {
      "midi": 62,
      "hit": false,
      "t": 45656.24999999999,
      "d": 562.5,
      "v": 67
    },
    {
      "midi": 43,
      "hit": false,
      "t": 45979.16666666666,
      "d": 1458.333333333343,
      "v": 86
    },
    {
      "midi": 70,
      "hit": false,
      "t": 46520.83333333332,
      "d": 125,
      "v": 101
    },
    {
      "midi": 74,
      "hit": false,
      "t": 46520.83333333332,
      "d": 218.75,
      "v": 102
    },
    {
      "midi": 71,
      "hit": false,
      "t": 46520.83333333332,
      "d": 250,
      "v": 99
    },
    {
      "midi": 74,
      "hit": false,
      "t": 46979.16666666666,
      "d": 614.583333333343,
      "v": 101
    },
    {
      "midi": 55,
      "hit": false,
      "t": 46979.16666666666,
      "d": 968.7500000000146,
      "v": 90
    },
    {
      "midi": 71,
      "hit": false,
      "t": 46999.99999999999,
      "d": 354.1666666666715,
      "v": 102
    },
    {
      "midi": 69,
      "hit": false,
      "t": 47302.08333333333,
      "d": 322.9166666666715,
      "v": 79
    },
    {
      "midi": 67,
      "hit": false,
      "t": 47614.583333333336,
      "d": 62.5,
      "v": 75
    },
    {
      "midi": 45,
      "hit": false,
      "t": 47979.16666666667,
      "d": 1812.5,
      "v": 106
    },
    {
      "midi": 61,
      "hit": false,
      "t": 47979.16666666667,
      "d": 1843.75,
      "v": 88
    },
    {
      "midi": 55,
      "hit": false,
      "t": 48510.41666666667,
      "d": 937.5,
      "v": 71
    },
    {
      "midi": 52,
      "hit": false,
      "t": 48979.16666666667,
      "d": 1052.0833333333285,
      "v": 69
    },
    {
      "midi": 55,
      "hit": false,
      "t": 49604.16666666667,
      "d": 260.41666666666424,
      "v": 66
    },
    {
      "midi": 55,
      "hit": false,
      "t": 49989.583333333336,
      "d": 500,
      "v": 77
    },
    {
      "midi": 61,
      "hit": false,
      "t": 49989.583333333336,
      "d": 531.25,
      "v": 76
    },
    {
      "midi": 45,
      "hit": false,
      "t": 49989.583333333336,
      "d": 833.3333333333358,
      "v": 94
    },
    {
      "midi": 55,
      "hit": false,
      "t": 50645.833333333336,
      "d": 427.08333333333576,
      "v": 99
    },
    {
      "midi": 64,
      "hit": false,
      "t": 50645.833333333336,
      "d": 1031.2500000000073,
      "v": 84
    },
    {
      "midi": 61,
      "hit": false,
      "t": 50645.833333333336,
      "d": 1052.083333333343,
      "v": 81
    },
    {
      "midi": 45,
      "hit": false,
      "t": 51000.00000000001,
      "d": 437.5,
      "v": 77
    },
    {
      "midi": 55,
      "hit": false,
      "t": 51312.50000000001,
      "d": 489.58333333333576,
      "v": 56
    },
    {
      "midi": 45,
      "hit": false,
      "t": 51822.91666666668,
      "d": 145.83333333333576,
      "v": 60
    },
    {
      "midi": 66,
      "hit": false,
      "t": 51979.16666666668,
      "d": 1666.666666666657,
      "v": 77
    },
    {
      "midi": 57,
      "hit": false,
      "t": 51989.58333333334,
      "d": 1145.8333333333285,
      "v": 81
    },
    {
      "midi": 62,
      "hit": false,
      "t": 51989.58333333334,
      "d": 1614.5833333333212,
      "v": 88
    },
    {
      "midi": 38,
      "hit": false,
      "t": 51989.58333333334,
      "d": 1781.2499999999927,
      "v": 86
    },
    {
      "midi": 45,
      "hit": false,
      "t": 52656.25000000001,
      "d": 291.66666666666424,
      "v": 45
    },
    {
      "midi": 50,
      "hit": false,
      "t": 52989.583333333336,
      "d": 635.4166666666642,
      "v": 77
    },
    {
      "midi": 57,
      "hit": false,
      "t": 53322.91666666667,
      "d": 208.33333333332848,
      "v": 64
    },
    {
      "midi": 45,
      "hit": false,
      "t": 53645.833333333336,
      "d": 312.5,
      "v": 72
    },
    {
      "midi": 68,
      "hit": false,
      "t": 53979.16666666667,
      "d": 125,
      "v": 110
    },
    {
      "midi": 74,
      "hit": false,
      "t": 53979.16666666667,
      "d": 541.6666666666715,
      "v": 103
    },
    {
      "midi": 69,
      "hit": false,
      "t": 53979.16666666667,
      "d": 625.0000000000073,
      "v": 107
    },
    {
      "midi": 38,
      "hit": false,
      "t": 53979.16666666667,
      "d": 1687.5,
      "v": 95
    },
    {
      "midi": 45,
      "hit": false,
      "t": 54312.50000000001,
      "d": 270.83333333333576,
      "v": 54
    },
    {
      "midi": 67,
      "hit": false,
      "t": 54645.83333333334,
      "d": 135.41666666666424,
      "v": 91
    },
    {
      "midi": 74,
      "hit": false,
      "t": 54645.83333333334,
      "d": 135.41666666666424,
      "v": 78
    },
    {
      "midi": 50,
      "hit": false,
      "t": 54645.83333333334,
      "d": 208.33333333332848,
      "v": 74
    },
    {
      "midi": 65,
      "hit": false,
      "t": 54979.16666666667,
      "d": 187.5,
      "v": 101
    },
    {
      "midi": 74,
      "hit": false,
      "t": 54979.16666666667,
      "d": 687.5,
      "v": 97
    },
    {
      "midi": 50,
      "hit": false,
      "t": 55010.41666666667,
      "d": 572.9166666666715,
      "v": 20
    },
    {
      "midi": 66,
      "hit": false,
      "t": 55145.833333333336,
      "d": 197.91666666667152,
      "v": 94
    },
    {
      "midi": 69,
      "hit": false,
      "t": 55312.50000000001,
      "d": 302.08333333333576,
      "v": 86
    },
    {
      "midi": 62,
      "hit": false,
      "t": 55656.25000000001,
      "d": 72.91666666666424,
      "v": 79
    },
    {
      "midi": 59,
      "hit": false,
      "t": 56000.00000000001,
      "d": 1750.0000000000073,
      "v": 84
    },
    {
      "midi": 67,
      "hit": false,
      "t": 56000.00000000001,
      "d": 1822.9166666666715,
      "v": 85
    },
    {
      "midi": 62,
      "hit": false,
      "t": 56000.00000000001,
      "d": 1906.2500000000073,
      "v": 94
    },
    {
      "midi": 43,
      "hit": false,
      "t": 56000.00000000001,
      "d": 2843.7500000000073,
      "v": 91
    },
    {
      "midi": 50,
      "hit": false,
      "t": 56979.16666666667,
      "d": 687.5000000000073,
      "v": 66
    },
    {
      "midi": 55,
      "hit": false,
      "t": 57645.83333333334,
      "d": 1093.7500000000073,
      "v": 61
    },
    {
      "midi": 62,
      "hit": false,
      "t": 57989.58333333335,
      "d": 1312.5,
      "v": 96
    },
    {
      "midi": 59,
      "hit": false,
      "t": 57989.58333333335,
      "d": 1489.5833333333358,
      "v": 97
    },
    {
      "midi": 67,
      "hit": false,
      "t": 57989.58333333335,
      "d": 1520.8333333333358,
      "v": 81
    },
    {
      "midi": 43,
      "hit": false,
      "t": 58989.58333333335,
      "d": 489.58333333333576,
      "v": 82
    },
    {
      "midi": 55,
      "hit": false,
      "t": 59322.916666666686,
      "d": 333.3333333333285,
      "v": 82
    },
    {
      "midi": 59,
      "hit": false,
      "t": 59645.83333333335,
      "d": 250,
      "v": 69
    },
    {
      "midi": 63,
      "hit": false,
      "t": 59968.75000000002,
      "d": 2947.9166666666642,
      "v": 85
    },
    {
      "midi": 57,
      "hit": false,
      "t": 59989.58333333336,
      "d": 1187.5,
      "v": 88
    },
    {
      "midi": 47,
      "hit": false,
      "t": 59989.58333333336,
      "d": 1854.1666666666642,
      "v": 96
    },
    {
      "midi": 54,
      "hit": false,
      "t": 60989.58333333336,
      "d": 937.5,
      "v": 61
    },
    {
      "midi": 57,
      "hit": false,
      "t": 61302.08333333336,
      "d": 229.16666666666424,
      "v": 57
    },
    {
      "midi": 57,
      "hit": false,
      "t": 61645.83333333336,
      "d": 875,
      "v": 70
    },
    {
      "midi": 47,
      "hit": false,
      "t": 61989.58333333336,
      "d": 1541.6666666666642,
      "v": 84
    },
    {
      "midi": 57,
      "hit": false,
      "t": 62656.25000000002,
      "d": 250,
      "v": 73
    },
    {
      "midi": 54,
      "hit": false,
      "t": 62989.58333333335,
      "d": 458.33333333333576,
      "v": 102
    },
    {
      "midi": 57,
      "hit": false,
      "t": 62989.58333333335,
      "d": 479.1666666666715,
      "v": 101
    },
    {
      "midi": 66,
      "hit": false,
      "t": 62989.58333333335,
      "d": 833.333333333343,
      "v": 102
    },
    {
      "midi": 63,
      "hit": false,
      "t": 62989.58333333335,
      "d": 927.083333333343,
      "v": 97
    },
    {
      "midi": 57,
      "hit": false,
      "t": 63645.83333333336,
      "d": 239.58333333333576,
      "v": 57
    },
    {
      "midi": 40,
      "hit": false,
      "t": 63979.16666666669,
      "d": 1833.3333333333358,
      "v": 106
    },
    {
      "midi": 59,
      "hit": false,
      "t": 63989.58333333336,
      "d": 1541.6666666666715,
      "v": 94
    },
    {
      "midi": 67,
      "hit": false,
      "t": 63989.58333333336,
      "d": 1802.0833333333285,
      "v": 87
    },
    {
      "midi": 55,
      "hit": false,
      "t": 64645.83333333336,
      "d": 520.8333333333358,
      "v": 57
    },
    {
      "midi": 47,
      "hit": false,
      "t": 64656.25000000002,
      "d": 927.0833333333358,
      "v": 62
    },
    {
      "midi": 52,
      "hit": false,
      "t": 64989.58333333336,
      "d": 812.5,
      "v": 74
    },
    {
      "midi": 55,
      "hit": false,
      "t": 65322.91666666669,
      "d": 802.0833333333503,
      "v": 65
    },
    {
      "midi": 59,
      "hit": false,
      "t": 65666.66666666669,
      "d": 312.50000000001455,
      "v": 53
    },
    {
      "midi": 40,
      "hit": false,
      "t": 65989.58333333337,
      "d": 1302.0833333333285,
      "v": 88
    },
    {
      "midi": 64,
      "hit": false,
      "t": 66302.08333333337,
      "d": 552.0833333333285,
      "v": 98
    },
    {
      "midi": 57,
      "hit": false,
      "t": 66312.50000000004,
      "d": 72.91666666667152,
      "v": 105
    },
    {
      "midi": 58,
      "hit": false,
      "t": 66312.50000000004,
      "d": 312.5,
      "v": 100
    },
    {
      "midi": 57,
      "hit": false,
      "t": 66645.83333333337,
      "d": 281.25,
      "v": 85
    },
    {
      "midi": 47,
      "hit": false,
      "t": 66979.1666666667,
      "d": 322.9166666666715,
      "v": 85
    },
    {
      "midi": 64,
      "hit": false,
      "t": 66979.1666666667,
      "d": 614.583333333343,
      "v": 85
    },
    {
      "midi": 57,
      "hit": false,
      "t": 66979.1666666667,
      "d": 656.2500000000146,
      "v": 86
    },
    {
      "midi": 52,
      "hit": false,
      "t": 67302.08333333337,
      "d": 645.833333333343,
      "v": 68
    },
    {
      "midi": 55,
      "hit": false,
      "t": 67645.83333333339,
      "d": 83.33333333332848,
      "v": 66
    },
    {
      "midi": 57,
      "hit": false,
      "t": 67979.16666666672,
      "d": 1270.833333333343,
      "v": 79
    },
    {
      "midi": 63,
      "hit": false,
      "t": 67979.16666666672,
      "d": 2218.75,
      "v": 79
    },
    {
      "midi": 47,
      "hit": false,
      "t": 67989.58333333339,
      "d": 1875,
      "v": 98
    },
    {
      "midi": 54,
      "hit": false,
      "t": 68989.58333333339,
      "d": 958.3333333333285,
      "v": 68
    },
    {
      "midi": 57,
      "hit": false,
      "t": 69656.25000000006,
      "d": 510.41666666665697,
      "v": 71
    },
    {
      "midi": 47,
      "hit": false,
      "t": 69989.58333333339,
      "d": 1531.25,
      "v": 91
    },
    {
      "midi": 57,
      "hit": false,
      "t": 70322.91666666672,
      "d": 552.0833333333285,
      "v": 98
    },
    {
      "midi": 71,
      "hit": false,
      "t": 70322.91666666672,
      "d": 552.0833333333285,
      "v": 109
    },
    {
      "midi": 63,
      "hit": false,
      "t": 70322.91666666672,
      "d": 593.75,
      "v": 104
    },
    {
      "midi": 66,
      "hit": false,
      "t": 70989.58333333339,
      "d": 364.5833333333285,
      "v": 74
    },
    {
      "midi": 54,
      "hit": false,
      "t": 70989.58333333339,
      "d": 489.5833333333285,
      "v": 74
    },
    {
      "midi": 63,
      "hit": false,
      "t": 70989.58333333339,
      "d": 645.8333333333285,
      "v": 81
    },
    {
      "midi": 57,
      "hit": false,
      "t": 70989.58333333339,
      "d": 906.25,
      "v": 93
    },
    {
      "midi": 67,
      "hit": false,
      "t": 71322.91666666672,
      "d": 322.9166666666715,
      "v": 79
    },
    {
      "midi": 69,
      "hit": false,
      "t": 71656.25000000006,
      "d": 83.33333333332848,
      "v": 76
    },
    {
      "midi": 64,
      "hit": false,
      "t": 71989.58333333339,
      "d": 1281.25,
      "v": 87
    },
    {
      "midi": 36,
      "hit": false,
      "t": 71989.58333333339,
      "d": 1895.8333333333285,
      "v": 106
    },
    {
      "midi": 60,
      "hit": false,
      "t": 71989.58333333339,
      "d": 3614.583333333343,
      "v": 91
    },
    {
      "midi": 55,
      "hit": false,
      "t": 72656.25000000006,
      "d": 520.8333333333285,
      "v": 66
    },
    {
      "midi": 48,
      "hit": false,
      "t": 73000.00000000006,
      "d": 979.166666666657,
      "v": 88
    },
    {
      "midi": 67,
      "hit": false,
      "t": 73322.91666666672,
      "d": 572.9166666666715,
      "v": 87
    },
    {
      "midi": 55,
      "hit": false,
      "t": 73322.91666666672,
      "d": 604.1666666666715,
      "v": 115
    },
    {
      "midi": 55,
      "hit": false,
      "t": 73989.58333333339,
      "d": 1229.1666666666715,
      "v": 76
    },
    {
      "midi": 64,
      "hit": false,
      "t": 73989.58333333339,
      "d": 1583.333333333343,
      "v": 82
    },
    {
      "midi": 36,
      "hit": false,
      "t": 74000.00000000006,
      "d": 1385.4166666666715,
      "v": 77
    },
    {
      "midi": 48,
      "hit": false,
      "t": 75000.00000000006,
      "d": 968.75,
      "v": 92
    },
    {
      "midi": 55,
      "hit": false,
      "t": 75322.91666666673,
      "d": 125,
      "v": 65
    },
    {
      "midi": 64,
      "hit": false,
      "t": 75645.8333333334,
      "d": 302.0833333333285,
      "v": 69
    },
    {
      "midi": 55,
      "hit": false,
      "t": 75656.25000000007,
      "d": 270.8333333333285,
      "v": 84
    },
    {
      "midi": 60,
      "hit": false,
      "t": 75656.25000000007,
      "d": 343.74999999998545,
      "v": 73
    },
    {
      "midi": 55,
      "hit": false,
      "t": 75989.58333333339,
      "d": 1114.583333333343,
      "v": 90
    },
    {
      "midi": 59,
      "hit": false,
      "t": 75989.58333333339,
      "d": 1885.416666666686,
      "v": 96
    },
    {
      "midi": 62,
      "hit": false,
      "t": 76000.00000000006,
      "d": 1270.833333333343,
      "v": 101
    },
    {
      "midi": 43,
      "hit": false,
      "t": 76000.00000000006,
      "d": 1802.083333333343,
      "v": 97
    },
    {
      "midi": 50,
      "hit": false,
      "t": 77000.00000000006,
      "d": 947.9166666666861,
      "v": 66
    },
    {
      "midi": 67,
      "hit": false,
      "t": 77302.0833333334,
      "d": 531.25,
      "v": 76
    },
    {
      "midi": 67,
      "hit": false,
      "t": 77979.16666666674,
      "d": 312.5,
      "v": 81
    },
    {
      "midi": 59,
      "hit": false,
      "t": 77989.58333333342,
      "d": 375,
      "v": 80
    },
    {
      "midi": 43,
      "hit": false,
      "t": 77989.58333333342,
      "d": 1562.5000000000146,
      "v": 91
    },
    {
      "midi": 57,
      "hit": false,
      "t": 78614.58333333342,
      "d": 93.75,
      "v": 102
    },
    {
      "midi": 62,
      "hit": false,
      "t": 78614.58333333342,
      "d": 260.4166666666715,
      "v": 100
    },
    {
      "midi": 58,
      "hit": false,
      "t": 78614.58333333342,
      "d": 291.6666666666715,
      "v": 91
    },
    {
      "midi": 62,
      "hit": false,
      "t": 78958.33333333342,
      "d": 656.2500000000146,
      "v": 87
    },
    {
      "midi": 57,
      "hit": false,
      "t": 78968.75000000009,
      "d": 927.083333333343,
      "v": 95
    },
    {
      "midi": 50,
      "hit": false,
      "t": 78979.16666666676,
      "d": 979.1666666666715,
      "v": 84
    },
    {
      "midi": 55,
      "hit": false,
      "t": 79645.83333333343,
      "d": 177.08333333332848,
      "v": 73
    },
    {
      "midi": 55,
      "hit": false,
      "t": 79989.58333333343,
      "d": 1083.3333333333285,
      "v": 84
    },
    {
      "midi": 45,
      "hit": false,
      "t": 79989.58333333343,
      "d": 1833.3333333333285,
      "v": 100
    },
    {
      "midi": 61,
      "hit": false,
      "t": 79989.58333333343,
      "d": 1937.5,
      "v": 77
    },
    {
      "midi": 64,
      "hit": false,
      "t": 80989.58333333343,
      "d": 927.0833333333285,
      "v": 70
    },
    {
      "midi": 52,
      "hit": false,
      "t": 80989.58333333343,
      "d": 968.75,
      "v": 69
    },
    {
      "midi": 55,
      "hit": false,
      "t": 81656.25000000009,
      "d": 187.5,
      "v": 52
    },
    {
      "midi": 61,
      "hit": false,
      "t": 81989.58333333343,
      "d": 1437.5,
      "v": 85
    },
    {
      "midi": 45,
      "hit": false,
      "t": 81989.58333333343,
      "d": 1895.833333333343,
      "v": 103
    },
    {
      "midi": 64,
      "hit": false,
      "t": 81989.58333333343,
      "d": 1895.833333333343,
      "v": 80
    },
    {
      "midi": 55,
      "hit": false,
      "t": 82645.83333333343,
      "d": 447.9166666666715,
      "v": 64
    },
    {
      "midi": 52,
      "hit": false,
      "t": 82989.58333333343,
      "d": 895.833333333343,
      "v": 91
    },
    {
      "midi": 55,
      "hit": false,
      "t": 83302.08333333343,
      "d": 447.9166666666715,
      "v": 58
    },
    {
      "midi": 61,
      "hit": false,
      "t": 83645.83333333343,
      "d": 270.83333333334303,
      "v": 65
    },
    {
      "midi": 59,
      "hit": false,
      "t": 83979.16666666677,
      "d": 1041.6666666666715,
      "v": 88
    },
    {
      "midi": 62,
      "hit": false,
      "t": 83979.16666666677,
      "d": 1614.5833333333285,
      "v": 91
    },
    {
      "midi": 43,
      "hit": false,
      "t": 83979.16666666677,
      "d": 1843.7499999999854,
      "v": 95
    },
    {
      "midi": 50,
      "hit": false,
      "t": 84645.83333333344,
      "d": 375,
      "v": 60
    },
    {
      "midi": 67,
      "hit": false,
      "t": 84989.58333333344,
      "d": 572.916666666657,
      "v": 69
    },
    {
      "midi": 55,
      "hit": false,
      "t": 84989.58333333344,
      "d": 635.416666666657,
      "v": 84
    },
    {
      "midi": 59,
      "hit": false,
      "t": 85322.91666666677,
      "d": 208.33333333332848,
      "v": 75
    },
    {
      "midi": 50,
      "hit": false,
      "t": 85645.83333333343,
      "d": 322.91666666665697,
      "v": 80
    },
    {
      "midi": 59,
      "hit": false,
      "t": 85645.83333333343,
      "d": 479.16666666665697,
      "v": 86
    },
    {
      "midi": 67,
      "hit": false,
      "t": 85645.83333333343,
      "d": 572.916666666657,
      "v": 81
    },
    {
      "midi": 62,
      "hit": false,
      "t": 85645.83333333343,
      "d": 656.2499999999854,
      "v": 91
    },
    {
      "midi": 43,
      "hit": false,
      "t": 85989.58333333342,
      "d": 1718.750000000029,
      "v": 108
    },
    {
      "midi": 59,
      "hit": false,
      "t": 86312.50000000009,
      "d": 197.91666666667152,
      "v": 52
    },
    {
      "midi": 67,
      "hit": false,
      "t": 86312.50000000009,
      "d": 250,
      "v": 61
    },
    {
      "midi": 65,
      "hit": false,
      "t": 86322.91666666676,
      "d": 250,
      "v": 49
    },
    {
      "midi": 50,
      "hit": false,
      "t": 86322.91666666676,
      "d": 343.75,
      "v": 68
    },
    {
      "midi": 59,
      "hit": false,
      "t": 86645.83333333343,
      "d": 208.33333333332848,
      "v": 78
    },
    {
      "midi": 67,
      "hit": false,
      "t": 86645.83333333343,
      "d": 250,
      "v": 82
    },
    {
      "midi": 65,
      "hit": false,
      "t": 86645.83333333343,
      "d": 260.4166666666715,
      "v": 83
    },
    {
      "midi": 55,
      "hit": false,
      "t": 86645.83333333343,
      "d": 1052.083333333343,
      "v": 85
    },
    {
      "midi": 59,
      "hit": false,
      "t": 86979.16666666677,
      "d": 208.33333333332848,
      "v": 92
    },
    {
      "midi": 67,
      "hit": false,
      "t": 86979.16666666677,
      "d": 250,
      "v": 95
    },
    {
      "midi": 65,
      "hit": false,
      "t": 86979.16666666677,
      "d": 260.4166666666715,
      "v": 95
    },
    {
      "midi": 65,
      "hit": false,
      "t": 87302.08333333344,
      "d": 260.4166666666715,
      "v": 86
    },
    {
      "midi": 59,
      "hit": false,
      "t": 87312.50000000012,
      "d": 208.33333333332848,
      "v": 90
    },
    {
      "midi": 67,
      "hit": false,
      "t": 87312.50000000012,
      "d": 239.58333333332848,
      "v": 93
    },
    {
      "midi": 59,
      "hit": false,
      "t": 87645.83333333344,
      "d": 104.16666666667152,
      "v": 93
    },
    {
      "midi": 65,
      "hit": false,
      "t": 87645.83333333344,
      "d": 114.58333333334303,
      "v": 82
    },
    {
      "midi": 67,
      "hit": false,
      "t": 87645.83333333344,
      "d": 114.58333333334303,
      "v": 88
    },
    {
      "midi": 36,
      "hit": false,
      "t": 88000.00000000013,
      "d": 5.208333333328483,
      "v": 104
    },
    {
      "midi": 55,
      "hit": false,
      "t": 88000.00000000013,
      "d": 5.208333333328483,
      "v": 109
    },
    {
      "midi": 60,
      "hit": false,
      "t": 88000.00000000013,
      "d": 5.208333333328483,
      "v": 107
    },
    {
      "midi": 64,
      "hit": false,
      "t": 88000.00000000013,
      "d": 5.208333333328483,
      "v": 106
    },
    {
      "midi": 55,
      "hit": false,
      "t": 88656.25000000013,
      "d": 427.0833333333285,
      "v": 69
    },
    {
      "midi": 48,
      "hit": false,
      "t": 88989.58333333346,
      "d": 947.9166666666861,
      "v": 103
    },
    {
      "midi": 55,
      "hit": false,
      "t": 89312.50000000013,
      "d": 479.1666666666715,
      "v": 66
    },
    {
      "midi": 60,
      "hit": false,
      "t": 89656.25000000013,
      "d": 270.83333333334303,
      "v": 62
    },
    {
      "midi": 64,
      "hit": false,
      "t": 89979.16666666682,
      "d": 979.1666666666861,
      "v": 97
    },
    {
      "midi": 55,
      "hit": false,
      "t": 89989.58333333349,
      "d": 510.4166666666715,
      "v": 102
    },
    {
      "midi": 60,
      "hit": false,
      "t": 89989.58333333349,
      "d": 958.333333333343,
      "v": 90
    },
    {
      "midi": 36,
      "hit": false,
      "t": 89989.58333333349,
      "d": 1187.5000000000146,
      "v": 97
    },
    {
      "midi": 55,
      "hit": false,
      "t": 90656.25000000016,
      "d": 218.75,
      "v": 67
    },
    {
      "midi": 55,
      "hit": false,
      "t": 90989.5833333335,
      "d": 458.3333333333285,
      "v": 110
    },
    {
      "midi": 60,
      "hit": false,
      "t": 90989.5833333335,
      "d": 822.9166666666715,
      "v": 87
    },
    {
      "midi": 67,
      "hit": false,
      "t": 91000.00000000017,
      "d": 302.0833333333285,
      "v": 98
    },
    {
      "midi": 48,
      "hit": false,
      "t": 91000.00000000017,
      "d": 885.4166666666715,
      "v": 101
    },
    {
      "midi": 64,
      "hit": false,
      "t": 91322.91666666683,
      "d": 520.833333333343,
      "v": 81
    },
    {
      "midi": 55,
      "hit": false,
      "t": 91645.8333333335,
      "d": 208.33333333334303,
      "v": 62
    },
    {
      "midi": 43,
      "hit": false,
      "t": 91979.16666666685,
      "d": 1875.0000000000146,
      "v": 100
    },
    {
      "midi": 57,
      "hit": false,
      "t": 91989.58333333352,
      "d": 104.16666666667152,
      "v": 111
    },
    {
      "midi": 59,
      "hit": false,
      "t": 91989.58333333352,
      "d": 1531.2500000000146,
      "v": 97
    },
    {
      "midi": 62,
      "hit": false,
      "t": 91989.58333333352,
      "d": 1937.5000000000146,
      "v": 102
    },
    {
      "midi": 55,
      "hit": false,
      "t": 92656.25000000019,
      "d": 437.5,
      "v": 76
    },
    {
      "midi": 50,
      "hit": false,
      "t": 92989.58333333352,
      "d": 958.333333333343,
      "v": 99
    },
    {
      "midi": 55,
      "hit": false,
      "t": 93322.91666666686,
      "d": 541.6666666666715,
      "v": 77
    },
    {
      "midi": 59,
      "hit": false,
      "t": 93645.83333333353,
      "d": 312.5,
      "v": 78
    },
    {
      "midi": 59,
      "hit": false,
      "t": 93979.16666666686,
      "d": 1916.6666666666715,
      "v": 75
    },
    {
      "midi": 43,
      "hit": false,
      "t": 93979.16666666686,
      "d": 1958.333333333343,
      "v": 110
    },
    {
      "midi": 55,
      "hit": false,
      "t": 93989.58333333353,
      "d": 687.5,
      "v": 102
    },
    {
      "midi": 67,
      "hit": false,
      "t": 93989.58333333353,
      "d": 812.5,
      "v": 87
    },
    {
      "midi": 62,
      "hit": false,
      "t": 94645.83333333353,
      "d": 270.8333333333285,
      "v": 83
    },
    {
      "midi": 55,
      "hit": false,
      "t": 94979.16666666686,
      "d": 125,
      "v": 87
    },
    {
      "midi": 50,
      "hit": false,
      "t": 94979.16666666686,
      "d": 968.7500000000146,
      "v": 100
    },
    {
      "midi": 55,
      "hit": false,
      "t": 95302.08333333353,
      "d": 583.3333333333285,
      "v": 86
    },
    {
      "midi": 62,
      "hit": false,
      "t": 95645.83333333353,
      "d": 302.08333333334303,
      "v": 88
    },
    {
      "midi": 64,
      "hit": false,
      "t": 95979.16666666688,
      "d": 1291.6666666666715,
      "v": 95
    },
    {
      "midi": 55,
      "hit": false,
      "t": 95989.58333333355,
      "d": 458.3333333333285,
      "v": 110
    },
    {
      "midi": 36,
      "hit": false,
      "t": 95989.58333333355,
      "d": 1802.083333333343,
      "v": 111
    },
    {
      "midi": 60,
      "hit": false,
      "t": 95989.58333333355,
      "d": 1927.083333333343,
      "v": 92
    },
    {
      "midi": 55,
      "hit": false,
      "t": 96645.83333333355,
      "d": 520.8333333333285,
      "v": 57
    },
    {
      "midi": 48,
      "hit": false,
      "t": 96989.58333333355,
      "d": 937.5000000000146,
      "v": 103
    },
    {
      "midi": 67,
      "hit": false,
      "t": 97312.50000000022,
      "d": 343.75,
      "v": 90
    },
    {
      "midi": 55,
      "hit": false,
      "t": 97312.50000000022,
      "d": 510.4166666666715,
      "v": 106
    },
    {
      "midi": 64,
      "hit": false,
      "t": 97645.83333333355,
      "d": 270.83333333334303,
      "v": 75
    },
    {
      "midi": 55,
      "hit": false,
      "t": 97979.16666666689,
      "d": 500,
      "v": 103
    },
    {
      "midi": 36,
      "hit": false,
      "t": 97979.16666666689,
      "d": 1166.666666666657,
      "v": 102
    },
    {
      "midi": 60,
      "hit": false,
      "t": 97979.16666666689,
      "d": 1208.3333333333285,
      "v": 85
    },
    {
      "midi": 64,
      "hit": false,
      "t": 97979.16666666689,
      "d": 1208.3333333333285,
      "v": 82
    },
    {
      "midi": 55,
      "hit": false,
      "t": 98645.83333333356,
      "d": 447.91666666665697,
      "v": 69
    },
    {
      "midi": 48,
      "hit": false,
      "t": 98979.16666666689,
      "d": 947.9166666666715,
      "v": 108
    },
    {
      "midi": 67,
      "hit": false,
      "t": 99312.50000000022,
      "d": 343.75,
      "v": 87
    },
    {
      "midi": 60,
      "hit": false,
      "t": 99312.50000000022,
      "d": 479.1666666666715,
      "v": 68
    },
    {
      "midi": 55,
      "hit": false,
      "t": 99312.50000000022,
      "d": 541.6666666666715,
      "v": 99
    },
    {
      "midi": 62,
      "hit": false,
      "t": 99645.83333333355,
      "d": 281.25000000001455,
      "v": 74
    },
    {
      "midi": 55,
      "hit": false,
      "t": 99979.16666666689,
      "d": 833.3333333333285,
      "v": 99
    },
    {
      "midi": 62,
      "hit": false,
      "t": 99979.16666666689,
      "d": 1312.5,
      "v": 90
    },
    {
      "midi": 43,
      "hit": false,
      "t": 99979.16666666689,
      "d": 1822.9166666666715,
      "v": 106
    },
    {
      "midi": 59,
      "hit": false,
      "t": 99979.16666666689,
      "d": 1906.25,
      "v": 97
    },
    {
      "midi": 50,
      "hit": false,
      "t": 100979.16666666689,
      "d": 968.75,
      "v": 94
    },
    {
      "midi": 55,
      "hit": false,
      "t": 101322.91666666689,
      "d": 312.5,
      "v": 75
    },
    {
      "midi": 62,
      "hit": false,
      "t": 101645.83333333356,
      "d": 260.41666666665697,
      "v": 90
    },
    {
      "midi": 43,
      "hit": false,
      "t": 101979.16666666689,
      "d": 1125.0000000000146,
      "v": 103
    },
    {
      "midi": 62,
      "hit": false,
      "t": 102302.08333333356,
      "d": 479.1666666666715,
      "v": 107
    },
    {
      "midi": 69,
      "hit": false,
      "t": 102312.50000000023,
      "d": 5.208333333328483,
      "v": 120
    },
    {
      "midi": 74,
      "hit": false,
      "t": 102312.50000000023,
      "d": 479.1666666666715,
      "v": 107
    },
    {
      "midi": 50,
      "hit": false,
      "t": 102322.91666666689,
      "d": 250,
      "v": 68
    },
    {
      "midi": 55,
      "hit": false,
      "t": 102645.83333333356,
      "d": 1270.833333333343,
      "v": 90
    },
    {
      "midi": 69,
      "hit": false,
      "t": 102854.1666666669,
      "d": 718.75,
      "v": 97
    },
    {
      "midi": 74,
      "hit": false,
      "t": 102979.1666666669,
      "d": 697.9166666666715,
      "v": 100
    },
    {
      "midi": 62,
      "hit": false,
      "t": 102979.1666666669,
      "d": 947.9166666666715,
      "v": 107
    },
    {
      "midi": 43,
      "hit": false,
      "t": 103302.08333333358,
      "d": 635.4166666666715,
      "v": 86
    },
    {
      "midi": 67,
      "hit": false,
      "t": 103645.83333333358,
      "d": 281.25,
      "v": 83
    },
    {
      "midi": 62,
      "hit": false,
      "t": 103979.16666666692,
      "d": 593.75,
      "v": 93
    },
    {
      "midi": 67,
      "hit": false,
      "t": 103979.16666666692,
      "d": 927.083333333343,
      "v": 86
    },
    {
      "midi": 48,
      "hit": false,
      "t": 103979.16666666692,
      "d": 968.7500000000146,
      "v": 100
    },
    {
      "midi": 64,
      "hit": false,
      "t": 104645.83333333359,
      "d": 312.50000000001455,
      "v": 75
    },
    {
      "midi": 67,
      "hit": false,
      "t": 104979.16666666693,
      "d": 1635.4166666666715,
      "v": 81
    },
    {
      "midi": 60,
      "hit": false,
      "t": 104979.16666666693,
      "d": 1677.083333333343,
      "v": 85
    },
    {
      "midi": 36,
      "hit": false,
      "t": 104979.16666666693,
      "d": 1802.083333333343,
      "v": 106
    },
    {
      "midi": 55,
      "hit": false,
      "t": 105645.8333333336,
      "d": 479.1666666666715,
      "v": 60
    },
    {
      "midi": 48,
      "hit": false,
      "t": 105989.5833333336,
      "d": 927.0833333333285,
      "v": 105
    },
    {
      "midi": 55,
      "hit": false,
      "t": 106322.91666666695,
      "d": 114.58333333332848,
      "v": 46
    },
    {
      "midi": 55,
      "hit": false,
      "t": 106656.25000000028,
      "d": 208.33333333332848,
      "v": 80
    },
    {
      "midi": 57,
      "hit": false,
      "t": 106979.16666666693,
      "d": 114.58333333332848,
      "v": 114
    },
    {
      "midi": 62,
      "hit": false,
      "t": 106979.16666666693,
      "d": 208.33333333332848,
      "v": 107
    },
    {
      "midi": 58,
      "hit": false,
      "t": 106979.16666666693,
      "d": 250,
      "v": 114
    },
    {
      "midi": 36,
      "hit": false,
      "t": 106979.16666666693,
      "d": 604.166666666657,
      "v": 103
    },
    {
      "midi": 62,
      "hit": false,
      "t": 107312.50000000026,
      "d": 5.208333333328483,
      "v": 83
    },
    {
      "midi": 57,
      "hit": false,
      "t": 107312.50000000026,
      "d": 333.3333333333285,
      "v": 99
    },
    {
      "midi": 62,
      "hit": false,
      "t": 107520.83333333359,
      "d": 291.6666666666715,
      "v": 68
    },
    {
      "midi": 48,
      "hit": false,
      "t": 107635.41666666692,
      "d": 312.5,
      "v": 84
    },
    {
      "midi": 55,
      "hit": false,
      "t": 107645.83333333359,
      "d": 218.75,
      "v": 87
    },
    {
      "midi": 55,
      "hit": false,
      "t": 107979.16666666692,
      "d": 541.6666666666715,
      "v": 97
    },
    {
      "midi": 62,
      "hit": false,
      "t": 107979.16666666692,
      "d": 1260.4166666666715,
      "v": 93
    },
    {
      "midi": 43,
      "hit": false,
      "t": 107979.16666666692,
      "d": 1875.0000000000146,
      "v": 104
    },
    {
      "midi": 55,
      "hit": false,
      "t": 108656.25000000026,
      "d": 218.75,
      "v": 54
    },
    {
      "midi": 55,
      "hit": false,
      "t": 108989.58333333359,
      "d": 177.08333333332848,
      "v": 84
    },
    {
      "midi": 50,
      "hit": false,
      "t": 108989.58333333359,
      "d": 937.5000000000146,
      "v": 103
    },
    {
      "midi": 67,
      "hit": false,
      "t": 108989.58333333359,
      "d": 1833.333333333343,
      "v": 80
    },
    {
      "midi": 61,
      "hit": false,
      "t": 109302.08333333359,
      "d": 62.5,
      "v": 101
    },
    {
      "midi": 60,
      "hit": false,
      "t": 109312.50000000026,
      "d": 354.1666666666715,
      "v": 83
    },
    {
      "midi": 59,
      "hit": false,
      "t": 109656.25000000026,
      "d": 385.4166666666715,
      "v": 100
    },
    {
      "midi": 55,
      "hit": false,
      "t": 109979.16666666693,
      "d": 906.25,
      "v": 117
    },
    {
      "midi": 43,
      "hit": false,
      "t": 109979.16666666693,
      "d": 1593.7500000000146,
      "v": 110
    },
    {
      "midi": 62,
      "hit": false,
      "t": 110614.5833333336,
      "d": 312.5,
      "v": 95
    },
    {
      "midi": 50,
      "hit": false,
      "t": 110968.75000000028,
      "d": 1010.4166666666715,
      "v": 106
    },
    {
      "midi": 55,
      "hit": false,
      "t": 110979.16666666695,
      "d": 31.25,
      "v": 80
    },
    {
      "midi": 67,
      "hit": false,
      "t": 111000.00000000028,
      "d": 802.083333333343,
      "v": 88
    },
    {
      "midi": 59,
      "hit": false,
      "t": 111000.00000000028,
      "d": 822.9166666666715,
      "v": 97
    },
    {
      "midi": 55,
      "hit": false,
      "t": 111177.08333333362,
      "d": 645.8333333333285,
      "v": 65
    },
    {
      "midi": 62,
      "hit": false,
      "t": 111645.83333333362,
      "d": 302.0833333333285,
      "v": 85
    },
    {
      "midi": 55,
      "hit": false,
      "t": 111979.16666666695,
      "d": 520.8333333333285,
      "v": 103
    },
    {
      "midi": 61,
      "hit": false,
      "t": 111979.16666666695,
      "d": 593.75,
      "v": 96
    },
    {
      "midi": 64,
      "hit": false,
      "t": 111979.16666666695,
      "d": 625,
      "v": 98
    },
    {
      "midi": 45,
      "hit": false,
      "t": 111979.16666666695,
      "d": 1843.75,
      "v": 114
    },
    {
      "midi": 55,
      "hit": false,
      "t": 112645.83333333362,
      "d": 52.08333333332848,
      "v": 74
    },
    {
      "midi": 61,
      "hit": false,
      "t": 112645.83333333362,
      "d": 52.08333333332848,
      "v": 69
    },
    {
      "midi": 66,
      "hit": false,
      "t": 112645.83333333362,
      "d": 83.33333333332848,
      "v": 91
    },
    {
      "midi": 55,
      "hit": false,
      "t": 112979.16666666695,
      "d": 479.1666666666715,
      "v": 95
    },
    {
      "midi": 52,
      "hit": false,
      "t": 112979.16666666695,
      "d": 1010.4166666666715,
      "v": 96
    },
    {
      "midi": 61,
      "hit": false,
      "t": 112979.16666666695,
      "d": 1500.0000000000146,
      "v": 97
    },
    {
      "midi": 64,
      "hit": false,
      "t": 113020.83333333362,
      "d": 1218.75,
      "v": 66
    },
    {
      "midi": 55,
      "hit": false,
      "t": 113645.83333333362,
      "d": 479.1666666666715,
      "v": 84
    },
    {
      "midi": 45,
      "hit": false,
      "t": 113989.58333333362,
      "d": 1937.500000000029,
      "v": 113
    },
    {
      "midi": 55,
      "hit": false,
      "t": 114312.50000000029,
      "d": 541.6666666666715,
      "v": 56
    },
    {
      "midi": 61,
      "hit": false,
      "t": 114645.83333333363,
      "d": 270.8333333333285,
      "v": 67
    },
    {
      "midi": 64,
      "hit": false,
      "t": 114979.16666666696,
      "d": 375.00000000001455,
      "v": 97
    },
    {
      "midi": 61,
      "hit": false,
      "t": 114979.16666666696,
      "d": 927.0833333333576,
      "v": 90
    },
    {
      "midi": 52,
      "hit": false,
      "t": 114989.58333333363,
      "d": 937.5000000000146,
      "v": 95
    },
    {
      "midi": 55,
      "hit": false,
      "t": 115312.5000000003,
      "d": 552.083333333343,
      "v": 66
    },
    {
      "midi": 64,
      "hit": false,
      "t": 115645.83333333365,
      "d": 302.0833333333285,
      "v": 80
    },
    {
      "midi": 57,
      "hit": false,
      "t": 115979.16666666698,
      "d": 447.9166666666715,
      "v": 109
    },
    {
      "midi": 62,
      "hit": false,
      "t": 115979.16666666698,
      "d": 1260.4166666666715,
      "v": 98
    },
    {
      "midi": 66,
      "hit": false,
      "t": 115979.16666666698,
      "d": 1291.6666666666715,
      "v": 96
    },
    {
      "midi": 38,
      "hit": false,
      "t": 115979.16666666698,
      "d": 1812.5,
      "v": 115
    },
    {
      "midi": 57,
      "hit": false,
      "t": 116645.83333333365,
      "d": 520.8333333333285,
      "v": 67
    },
    {
      "midi": 50,
      "hit": false,
      "t": 116989.58333333365,
      "d": 708.3333333333285,
      "v": 107
    },
    {
      "midi": 69,
      "hit": false,
      "t": 117322.91666666698,
      "d": 322.9166666666715,
      "v": 99
    },
    {
      "midi": 57,
      "hit": false,
      "t": 117322.91666666698,
      "d": 447.9166666666715,
      "v": 116
    },
    {
      "midi": 62,
      "hit": false,
      "t": 117322.91666666698,
      "d": 572.9166666666715,
      "v": 106
    },
    {
      "midi": 66,
      "hit": false,
      "t": 117645.83333333365,
      "d": 239.58333333332848,
      "v": 64
    },
    {
      "midi": 45,
      "hit": false,
      "t": 117645.83333333365,
      "d": 302.0833333333285,
      "v": 83
    },
    {
      "midi": 57,
      "hit": false,
      "t": 117979.16666666698,
      "d": 177.08333333332848,
      "v": 87
    },
    {
      "midi": 66,
      "hit": false,
      "t": 117979.16666666698,
      "d": 718.75,
      "v": 82
    },
    {
      "midi": 62,
      "hit": false,
      "t": 117979.16666666698,
      "d": 937.5,
      "v": 81
    },
    {
      "midi": 38,
      "hit": false,
      "t": 117979.16666666698,
      "d": 1791.6666666666715,
      "v": 108
    },
    {
      "midi": 45,
      "hit": false,
      "t": 118302.08333333363,
      "d": 375.00000000001455,
      "v": 90
    },
    {
      "midi": 57,
      "hit": false,
      "t": 118312.5000000003,
      "d": 166.66666666667152,
      "v": 67
    },
    {
      "midi": 57,
      "hit": false,
      "t": 118645.83333333365,
      "d": 208.33333333332848,
      "v": 76
    },
    {
      "midi": 50,
      "hit": false,
      "t": 118645.83333333365,
      "d": 708.333333333343,
      "v": 107
    },
    {
      "midi": 57,
      "hit": false,
      "t": 118979.16666666698,
      "d": 197.91666666667152,
      "v": 100
    },
    {
      "midi": 62,
      "hit": false,
      "t": 118979.16666666698,
      "d": 593.7500000000146,
      "v": 87
    },
    {
      "midi": 66,
      "hit": false,
      "t": 118979.16666666698,
      "d": 614.583333333343,
      "v": 87
    },
    {
      "midi": 57,
      "hit": false,
      "t": 119302.08333333365,
      "d": 239.58333333334303,
      "v": 90
    },
    {
      "midi": 45,
      "hit": false,
      "t": 119312.50000000032,
      "d": 458.3333333333285,
      "v": 94
    },
    {
      "midi": 57,
      "hit": false,
      "t": 119645.83333333365,
      "d": 218.75,
      "v": 113
    },
    {
      "midi": 62,
      "hit": false,
      "t": 119645.83333333365,
      "d": 229.16666666667152,
      "v": 100
    },
    {
      "midi": 66,
      "hit": false,
      "t": 119645.83333333365,
      "d": 229.16666666667152,
      "v": 87
    },
    {
      "midi": 50,
      "hit": false,
      "t": 120979.16666666699,
      "d": 687.5,
      "v": 67
    },
    {
      "midi": 55,
      "hit": false,
      "t": 121645.83333333366,
      "d": 1093.75,
      "v": 60
    },
    {
      "midi": 62,
      "hit": false,
      "t": 121989.58333333366,
      "d": 1302.0833333333285,
      "v": 96
    },
    {
      "midi": 59,
      "hit": false,
      "t": 121989.58333333366,
      "d": 1489.5833333333285,
      "v": 97
    },
    {
      "midi": 67,
      "hit": false,
      "t": 121989.58333333366,
      "d": 1520.8333333333285,
      "v": 80
    },
    {
      "midi": 43,
      "hit": false,
      "t": 122989.58333333366,
      "d": 489.5833333333285,
      "v": 83
    },
    {
      "midi": 55,
      "hit": false,
      "t": 123322.91666666699,
      "d": 333.33333333334303,
      "v": 83
    },
    {
      "midi": 59,
      "hit": false,
      "t": 123645.83333333366,
      "d": 250,
      "v": 68
    },
    {
      "midi": 63,
      "hit": false,
      "t": 123968.75000000032,
      "d": 2958.3333333333285,
      "v": 84
    },
    {
      "midi": 57,
      "hit": false,
      "t": 123989.58333333365,
      "d": 1187.5,
      "v": 89
    },
    {
      "midi": 47,
      "hit": false,
      "t": 123989.58333333365,
      "d": 1854.1666666666715,
      "v": 97
    },
    {
      "midi": 54,
      "hit": false,
      "t": 124989.58333333365,
      "d": 937.5,
      "v": 60
    },
    {
      "midi": 57,
      "hit": false,
      "t": 125302.08333333365,
      "d": 229.16666666667152,
      "v": 56
    },
    {
      "midi": 57,
      "hit": false,
      "t": 125645.83333333365,
      "d": 885.4166666666715,
      "v": 71
    },
    {
      "midi": 47,
      "hit": false,
      "t": 125989.58333333365,
      "d": 1541.666666666657,
      "v": 84
    },
    {
      "midi": 57,
      "hit": false,
      "t": 126656.25000000032,
      "d": 250,
      "v": 73
    },
    {
      "midi": 54,
      "hit": false,
      "t": 126989.58333333365,
      "d": 458.3333333333285,
      "v": 103
    },
    {
      "midi": 57,
      "hit": false,
      "t": 126989.58333333365,
      "d": 479.16666666665697,
      "v": 100
    },
    {
      "midi": 66,
      "hit": false,
      "t": 126989.58333333365,
      "d": 833.3333333333139,
      "v": 102
    },
    {
      "midi": 63,
      "hit": false,
      "t": 126989.58333333365,
      "d": 927.0833333333139,
      "v": 97
    },
    {
      "midi": 57,
      "hit": false,
      "t": 127645.83333333363,
      "d": 239.58333333332848,
      "v": 56
    },
    {
      "midi": 40,
      "hit": false,
      "t": 127979.16666666696,
      "d": 1833.333333333314,
      "v": 107
    },
    {
      "midi": 59,
      "hit": false,
      "t": 127989.58333333363,
      "d": 1541.666666666657,
      "v": 95
    },
    {
      "midi": 67,
      "hit": false,
      "t": 127989.58333333363,
      "d": 1802.083333333314,
      "v": 86
    },
    {
      "midi": 55,
      "hit": false,
      "t": 128645.83333333363,
      "d": 520.8333333333285,
      "v": 56
    },
    {
      "midi": 47,
      "hit": false,
      "t": 128656.2500000003,
      "d": 927.0833333333139,
      "v": 63
    },
    {
      "midi": 52,
      "hit": false,
      "t": 128989.58333333363,
      "d": 802.0833333333139,
      "v": 75
    },
    {
      "midi": 55,
      "hit": false,
      "t": 129322.91666666696,
      "d": 802.0833333333285,
      "v": 64
    },
    {
      "midi": 59,
      "hit": false,
      "t": 129666.66666666695,
      "d": 312.5,
      "v": 52
    },
    {
      "midi": 40,
      "hit": false,
      "t": 129989.58333333362,
      "d": 1302.0833333333285,
      "v": 89
    },
    {
      "midi": 64,
      "hit": false,
      "t": 130302.08333333362,
      "d": 552.0833333333285,
      "v": 98
    },
    {
      "midi": 57,
      "hit": false,
      "t": 130312.50000000029,
      "d": 62.5,
      "v": 105
    },
    {
      "midi": 58,
      "hit": false,
      "t": 130312.50000000029,
      "d": 312.5,
      "v": 101
    },
    {
      "midi": 57,
      "hit": false,
      "t": 130645.83333333362,
      "d": 281.25,
      "v": 84
    },
    {
      "midi": 47,
      "hit": false,
      "t": 130979.16666666695,
      "d": 322.91666666665697,
      "v": 85
    },
    {
      "midi": 64,
      "hit": false,
      "t": 130979.16666666695,
      "d": 614.5833333333139,
      "v": 84
    },
    {
      "midi": 57,
      "hit": false,
      "t": 130979.16666666695,
      "d": 645.8333333333139,
      "v": 86
    },
    {
      "midi": 52,
      "hit": false,
      "t": 131302.0833333336,
      "d": 645.833333333343,
      "v": 69
    },
    {
      "midi": 55,
      "hit": false,
      "t": 131645.8333333336,
      "d": 83.33333333334303,
      "v": 67
    },
    {
      "midi": 57,
      "hit": false,
      "t": 131979.16666666695,
      "d": 1270.833333333314,
      "v": 78
    },
    {
      "midi": 63,
      "hit": false,
      "t": 131979.16666666695,
      "d": 2218.75,
      "v": 78
    },
    {
      "midi": 47,
      "hit": false,
      "t": 131989.5833333336,
      "d": 1875,
      "v": 99
    },
    {
      "midi": 54,
      "hit": false,
      "t": 132989.5833333336,
      "d": 958.333333333343,
      "v": 69
    },
    {
      "midi": 57,
      "hit": false,
      "t": 133656.25000000026,
      "d": 510.41666666668607,
      "v": 70
    },
    {
      "midi": 47,
      "hit": false,
      "t": 133989.5833333336,
      "d": 1531.249999999971,
      "v": 90
    },
    {
      "midi": 57,
      "hit": false,
      "t": 134322.91666666695,
      "d": 552.083333333343,
      "v": 99
    },
    {
      "midi": 71,
      "hit": false,
      "t": 134322.91666666695,
      "d": 552.083333333343,
      "v": 109
    },
    {
      "midi": 63,
      "hit": false,
      "t": 134322.91666666695,
      "d": 593.75,
      "v": 104
    },
    {
      "midi": 66,
      "hit": false,
      "t": 134989.5833333336,
      "d": 364.58333333331393,
      "v": 75
    },
    {
      "midi": 63,
      "hit": false,
      "t": 134989.5833333336,
      "d": 645.8333333333139,
      "v": 80
    },
    {
      "midi": 57,
      "hit": false,
      "t": 134989.5833333336,
      "d": 906.2499999999709,
      "v": 93
    },
    {
      "midi": 54,
      "hit": false,
      "t": 135000.00000000026,
      "d": 479.16666666665697,
      "v": 74
    },
    {
      "midi": 67,
      "hit": false,
      "t": 135322.91666666692,
      "d": 322.91666666665697,
      "v": 78
    },
    {
      "midi": 69,
      "hit": false,
      "t": 135656.25000000023,
      "d": 83.33333333334303,
      "v": 77
    },
    {
      "midi": 64,
      "hit": false,
      "t": 135989.58333333358,
      "d": 1281.25,
      "v": 86
    },
    {
      "midi": 36,
      "hit": false,
      "t": 135989.58333333358,
      "d": 1895.833333333343,
      "v": 107
    },
    {
      "midi": 60,
      "hit": false,
      "t": 135989.58333333358,
      "d": 3614.583333333314,
      "v": 90
    },
    {
      "midi": 55,
      "hit": false,
      "t": 136656.25000000023,
      "d": 520.833333333343,
      "v": 67
    },
    {
      "midi": 48,
      "hit": false,
      "t": 137000.00000000023,
      "d": 979.1666666666861,
      "v": 89
    },
    {
      "midi": 67,
      "hit": false,
      "t": 137322.91666666692,
      "d": 572.916666666657,
      "v": 86
    },
    {
      "midi": 55,
      "hit": false,
      "t": 137322.91666666692,
      "d": 604.166666666657,
      "v": 114
    },
    {
      "midi": 55,
      "hit": false,
      "t": 137989.58333333358,
      "d": 1229.166666666657,
      "v": 77
    },
    {
      "midi": 64,
      "hit": false,
      "t": 137989.58333333358,
      "d": 1583.333333333314,
      "v": 82
    },
    {
      "midi": 36,
      "hit": false,
      "t": 138000.00000000023,
      "d": 1385.416666666657,
      "v": 77
    },
    {
      "midi": 48,
      "hit": false,
      "t": 139000.00000000023,
      "d": 968.7499999999709,
      "v": 93
    },
    {
      "midi": 55,
      "hit": false,
      "t": 139322.9166666669,
      "d": 125,
      "v": 64
    },
    {
      "midi": 64,
      "hit": false,
      "t": 139645.83333333355,
      "d": 291.66666666665697,
      "v": 69
    },
    {
      "midi": 55,
      "hit": false,
      "t": 139656.2500000002,
      "d": 270.83333333334303,
      "v": 84
    },
    {
      "midi": 60,
      "hit": false,
      "t": 139656.2500000002,
      "d": 333.33333333334303,
      "v": 72
    },
    {
      "midi": 55,
      "hit": false,
      "t": 139989.58333333355,
      "d": 1125,
      "v": 91
    },
    {
      "midi": 62,
      "hit": false,
      "t": 139989.58333333355,
      "d": 1281.25,
      "v": 100
    },
    {
      "midi": 43,
      "hit": false,
      "t": 139989.58333333355,
      "d": 1812.5,
      "v": 97
    },
    {
      "midi": 59,
      "hit": false,
      "t": 139989.58333333355,
      "d": 1895.833333333343,
      "v": 96
    },
    {
      "midi": 50,
      "hit": false,
      "t": 141000.0000000002,
      "d": 947.9166666666861,
      "v": 67
    },
    {
      "midi": 67,
      "hit": false,
      "t": 141312.5000000002,
      "d": 520.833333333343,
      "v": 77
    },
    {
      "midi": 67,
      "hit": false,
      "t": 141979.1666666669,
      "d": 322.91666666665697,
      "v": 80
    },
    {
      "midi": 59,
      "hit": false,
      "t": 141989.58333333355,
      "d": 375,
      "v": 81
    },
    {
      "midi": 43,
      "hit": false,
      "t": 141989.58333333355,
      "d": 1562.499999999971,
      "v": 90
    },
    {
      "midi": 57,
      "hit": false,
      "t": 142614.58333333355,
      "d": 93.75,
      "v": 102
    },
    {
      "midi": 62,
      "hit": false,
      "t": 142614.58333333355,
      "d": 260.41666666665697,
      "v": 101
    },
    {
      "midi": 58,
      "hit": false,
      "t": 142614.58333333355,
      "d": 291.66666666665697,
      "v": 91
    },
    {
      "midi": 62,
      "hit": false,
      "t": 142958.33333333355,
      "d": 656.2499999999709,
      "v": 86
    },
    {
      "midi": 57,
      "hit": false,
      "t": 142968.7500000002,
      "d": 927.0833333333139,
      "v": 95
    },
    {
      "midi": 50,
      "hit": false,
      "t": 142979.16666666686,
      "d": 979.166666666657,
      "v": 84
    },
    {
      "midi": 55,
      "hit": false,
      "t": 143645.83333333352,
      "d": 177.08333333334303,
      "v": 72
    },
    {
      "midi": 55,
      "hit": false,
      "t": 143989.58333333352,
      "d": 1083.333333333343,
      "v": 85
    },
    {
      "midi": 45,
      "hit": false,
      "t": 143989.58333333352,
      "d": 1843.750000000029,
      "v": 101
    },
    {
      "midi": 61,
      "hit": false,
      "t": 143989.58333333352,
      "d": 1927.083333333343,
      "v": 76
    },
    {
      "midi": 64,
      "hit": false,
      "t": 144989.58333333352,
      "d": 927.083333333343,
      "v": 71
    },
    {
      "midi": 52,
      "hit": false,
      "t": 144989.58333333352,
      "d": 968.75,
      "v": 68
    },
    {
      "midi": 55,
      "hit": false,
      "t": 145656.2500000002,
      "d": 187.5,
      "v": 53
    },
    {
      "midi": 61,
      "hit": false,
      "t": 145989.58333333352,
      "d": 1437.500000000029,
      "v": 84
    },
    {
      "midi": 45,
      "hit": false,
      "t": 145989.58333333352,
      "d": 1895.833333333343,
      "v": 102
    },
    {
      "midi": 64,
      "hit": false,
      "t": 145989.58333333352,
      "d": 1895.833333333343,
      "v": 81
    },
    {
      "midi": 55,
      "hit": false,
      "t": 146656.25000000017,
      "d": 447.91666666668607,
      "v": 64
    },
    {
      "midi": 52,
      "hit": false,
      "t": 146989.58333333352,
      "d": 895.833333333343,
      "v": 91
    },
    {
      "midi": 55,
      "hit": false,
      "t": 147312.5000000002,
      "d": 447.91666666665697,
      "v": 59
    },
    {
      "midi": 61,
      "hit": false,
      "t": 147656.2500000002,
      "d": 270.83333333331393,
      "v": 64
    },
    {
      "midi": 59,
      "hit": false,
      "t": 147989.58333333352,
      "d": 1447.916666666657,
      "v": 91
    },
    {
      "midi": 62,
      "hit": false,
      "t": 147989.58333333352,
      "d": 3375,
      "v": 100
    },
    {
      "midi": 43,
      "hit": false,
      "t": 148000.00000000017,
      "d": 1875,
      "v": 96
    },
    {
      "midi": 67,
      "hit": false,
      "t": 148000.00000000017,
      "d": 3322.916666666686,
      "v": 91
    },
    {
      "midi": 50,
      "hit": false,
      "t": 148687.50000000017,
      "d": 1354.166666666686,
      "v": 69
    },
    {
      "midi": 55,
      "hit": false,
      "t": 149020.83333333352,
      "d": 947.916666666657,
      "v": 92
    },
    {
      "midi": 59,
      "hit": false,
      "t": 149656.25000000017,
      "d": 541.6666666666861,
      "v": 64
    },
    {
      "midi": 43,
      "hit": false,
      "t": 150020.83333333352,
      "d": 1302.083333333343,
      "v": 79
    },
    {
      "midi": 50,
      "hit": false,
      "t": 150656.2500000002,
      "d": 385.41666666665697,
      "v": 67
    },
    {
      "midi": 55,
      "hit": false,
      "t": 151010.41666666686,
      "d": 312.5,
      "v": 90
    },
    {
      "midi": 59,
      "hit": false,
      "t": 151322.91666666686,
      "d": 374.9999999999709,
      "v": 106
    },
    {
      "midi": 62,
      "hit": false,
      "t": 151656.25000000017,
      "d": 114.58333333331393,
      "v": 105
    },
    {
      "midi": 55,
      "hit": false,
      "t": 152989.5833333335,
      "d": 1000.0000000000291,
      "v": 74
    },
    {
      "midi": 59,
      "hit": false,
      "t": 153656.25000000017,
      "d": 354.16666666668607,
      "v": 41
    },
    {
      "midi": 43,
      "hit": false,
      "t": 153989.58333333352,
      "d": 1250,
      "v": 61
    },
    {
      "midi": 50,
      "hit": false,
      "t": 154979.16666666686,
      "d": 333.33333333331393,
      "v": 72
    },
    {
      "midi": 55,
      "hit": false,
      "t": 155322.91666666683,
      "d": 291.66666666665697,
      "v": 45
    },
    {
      "midi": 57,
      "hit": false,
      "t": 156000.00000000015,
      "d": 1156.25,
      "v": 64
    },
    {
      "midi": 47,
      "hit": false,
      "t": 156000.00000000015,
      "d": 1750,
      "v": 82
    },
    {
      "midi": 63,
      "hit": false,
      "t": 156000.00000000015,
      "d": 2927.083333333343,
      "v": 75
    },
    {
      "midi": 54,
      "hit": false,
      "t": 156979.1666666668,
      "d": 989.583333333343,
      "v": 43
    },
    {
      "midi": 57,
      "hit": false,
      "t": 157312.50000000015,
      "d": 156.25,
      "v": 36
    },
    {
      "midi": 57,
      "hit": false,
      "t": 157656.25000000015,
      "d": 739.583333333343,
      "v": 56
    },
    {
      "midi": 47,
      "hit": false,
      "t": 157989.5833333335,
      "d": 1406.25,
      "v": 65
    },
    {
      "midi": 57,
      "hit": false,
      "t": 158656.25000000015,
      "d": 510.41666666668607,
      "v": 47
    },
    {
      "midi": 54,
      "hit": false,
      "t": 158989.5833333335,
      "d": 552.083333333343,
      "v": 84
    },
    {
      "midi": 66,
      "hit": false,
      "t": 159322.91666666683,
      "d": 572.916666666657,
      "v": 113
    },
    {
      "midi": 63,
      "hit": false,
      "t": 159322.91666666683,
      "d": 656.2499999999709,
      "v": 112
    },
    {
      "midi": 57,
      "hit": false,
      "t": 159677.0833333335,
      "d": 93.75,
      "v": 46
    },
    {
      "midi": 40,
      "hit": false,
      "t": 159989.58333333346,
      "d": 1875,
      "v": 91
    },
    {
      "midi": 67,
      "hit": false,
      "t": 159989.58333333346,
      "d": 3666.666666666686,
      "v": 77
    },
    {
      "midi": 59,
      "hit": false,
      "t": 159989.58333333346,
      "d": 3697.916666666686,
      "v": 84
    },
    {
      "midi": 47,
      "hit": false,
      "t": 160322.9166666668,
      "d": 697.916666666657,
      "v": 69
    },
    {
      "midi": 52,
      "hit": false,
      "t": 160989.58333333346,
      "d": 739.583333333343,
      "v": 74
    },
    {
      "midi": 55,
      "hit": false,
      "t": 161322.9166666668,
      "d": 583.3333333333139,
      "v": 54
    },
    {
      "midi": 47,
      "hit": false,
      "t": 161666.6666666668,
      "d": 322.91666666665697,
      "v": 59
    },
    {
      "midi": 40,
      "hit": false,
      "t": 161989.58333333346,
      "d": 1239.583333333343,
      "v": 91
    },
    {
      "midi": 55,
      "hit": false,
      "t": 162520.83333333346,
      "d": 468.75,
      "v": 56
    },
    {
      "midi": 52,
      "hit": false,
      "t": 162989.58333333346,
      "d": 989.583333333343,
      "v": 78
    },
    {
      "midi": 55,
      "hit": false,
      "t": 163312.50000000015,
      "d": 375,
      "v": 55
    },
    {
      "midi": 57,
      "hit": false,
      "t": 163989.58333333346,
      "d": 1135.416666666686,
      "v": 76
    },
    {
      "midi": 47,
      "hit": false,
      "t": 163989.58333333346,
      "d": 1812.5,
      "v": 87
    },
    {
      "midi": 63,
      "hit": false,
      "t": 163989.58333333346,
      "d": 3947.916666666657,
      "v": 76
    },
    {
      "midi": 54,
      "hit": false,
      "t": 165010.4166666668,
      "d": 864.5833333333139,
      "v": 55
    },
    {
      "midi": 57,
      "hit": false,
      "t": 165322.9166666668,
      "d": 125,
      "v": 60
    },
    {
      "midi": 47,
      "hit": false,
      "t": 165979.16666666677,
      "d": 1385.416666666657,
      "v": 63
    },
    {
      "midi": 57,
      "hit": false,
      "t": 165989.58333333343,
      "d": 187.5,
      "v": 57
    },
    {
      "midi": 57,
      "hit": false,
      "t": 166645.83333333343,
      "d": 427.08333333334303,
      "v": 54
    },
    {
      "midi": 54,
      "hit": false,
      "t": 166989.58333333343,
      "d": 343.75,
      "v": 101
    },
    {
      "midi": 57,
      "hit": false,
      "t": 167645.83333333343,
      "d": 270.83333333334303,
      "v": 58
    },
    {
      "midi": 64,
      "hit": false,
      "t": 167989.58333333346,
      "d": 1145.833333333343,
      "v": 89
    },
    {
      "midi": 60,
      "hit": false,
      "t": 167989.58333333346,
      "d": 1156.25,
      "v": 83
    },
    {
      "midi": 36,
      "hit": false,
      "t": 167989.58333333346,
      "d": 1833.333333333314,
      "v": 100
    },
    {
      "midi": 55,
      "hit": false,
      "t": 168322.9166666668,
      "d": 677.083333333343,
      "v": 58
    },
    {
      "midi": 48,
      "hit": false,
      "t": 168979.1666666668,
      "d": 947.916666666657,
      "v": 84
    },
    {
      "midi": 67,
      "hit": false,
      "t": 169302.08333333346,
      "d": 250,
      "v": 103
    },
    {
      "midi": 63,
      "hit": false,
      "t": 169312.50000000012,
      "d": 114.58333333334303,
      "v": 105
    },
    {
      "midi": 64,
      "hit": false,
      "t": 169312.50000000012,
      "d": 343.75,
      "v": 102
    },
    {
      "midi": 62,
      "hit": false,
      "t": 169645.83333333346,
      "d": 260.41666666665697,
      "v": 85
    },
    {
      "midi": 67,
      "hit": false,
      "t": 169645.83333333346,
      "d": 281.25,
      "v": 60
    },
    {
      "midi": 36,
      "hit": false,
      "t": 169979.1666666668,
      "d": 1291.666666666657,
      "v": 99
    },
    {
      "midi": 62,
      "hit": false,
      "t": 169979.1666666668,
      "d": 1364.583333333314,
      "v": 96
    },
    {
      "midi": 67,
      "hit": false,
      "t": 169979.1666666668,
      "d": 4249.999999999971,
      "v": 87
    },
    {
      "midi": 48,
      "hit": false,
      "t": 170989.58333333346,
      "d": 885.416666666657,
      "v": 100
    },
    {
      "midi": 60,
      "hit": false,
      "t": 171312.50000000012,
      "d": 572.916666666657,
      "v": 73
    },
    {
      "midi": 59,
      "hit": false,
      "t": 171979.16666666677,
      "d": 1135.416666666657,
      "v": 91
    },
    {
      "midi": 62,
      "hit": false,
      "t": 171979.16666666677,
      "d": 1447.916666666657,
      "v": 90
    },
    {
      "midi": 43,
      "hit": false,
      "t": 171979.16666666677,
      "d": 1854.166666666657,
      "v": 92
    },
    {
      "midi": 50,
      "hit": false,
      "t": 172666.66666666677,
      "d": 322.91666666665697,
      "v": 33
    },
    {
      "midi": 55,
      "hit": false,
      "t": 172979.16666666677,
      "d": 947.916666666657,
      "v": 78
    },
    {
      "midi": 59,
      "hit": false,
      "t": 173302.08333333343,
      "d": 458.33333333334303,
      "v": 66
    },
    {
      "midi": 62,
      "hit": false,
      "t": 173645.83333333343,
      "d": 572.9166666666861,
      "v": 67
    },
    {
      "midi": 43,
      "hit": false,
      "t": 173979.16666666677,
      "d": 1458.3333333333721,
      "v": 87
    },
    {
      "midi": 70,
      "hit": false,
      "t": 174520.83333333343,
      "d": 125,
      "v": 100
    },
    {
      "midi": 74,
      "hit": false,
      "t": 174520.83333333343,
      "d": 218.75,
      "v": 103
    },
    {
      "midi": 71,
      "hit": false,
      "t": 174520.83333333343,
      "d": 250,
      "v": 98
    },
    {
      "midi": 74,
      "hit": false,
      "t": 174979.16666666677,
      "d": 614.5833333333721,
      "v": 101
    },
    {
      "midi": 55,
      "hit": false,
      "t": 174979.16666666677,
      "d": 968.7500000000582,
      "v": 90
    },
    {
      "midi": 71,
      "hit": false,
      "t": 175000.00000000012,
      "d": 354.16666666668607,
      "v": 103
    },
    {
      "midi": 69,
      "hit": false,
      "t": 175302.08333333346,
      "d": 322.91666666668607,
      "v": 78
    },
    {
      "midi": 67,
      "hit": false,
      "t": 175614.5833333335,
      "d": 62.5,
      "v": 75
    },
    {
      "midi": 45,
      "hit": false,
      "t": 175968.75000000017,
      "d": 1822.916666666657,
      "v": 106
    },
    {
      "midi": 61,
      "hit": false,
      "t": 175979.16666666683,
      "d": 1843.75,
      "v": 88
    },
    {
      "midi": 55,
      "hit": false,
      "t": 176510.41666666683,
      "d": 937.5,
      "v": 71
    },
    {
      "midi": 52,
      "hit": false,
      "t": 176979.16666666683,
      "d": 1052.083333333314,
      "v": 69
    },
    {
      "midi": 55,
      "hit": false,
      "t": 177604.16666666683,
      "d": 260.41666666665697,
      "v": 66
    },
    {
      "midi": 55,
      "hit": false,
      "t": 177989.5833333335,
      "d": 500,
      "v": 77
    },
    {
      "midi": 61,
      "hit": false,
      "t": 177989.5833333335,
      "d": 531.25,
      "v": 77
    },
    {
      "midi": 45,
      "hit": false,
      "t": 177989.5833333335,
      "d": 833.333333333343,
      "v": 94
    },
    {
      "midi": 55,
      "hit": false,
      "t": 178645.8333333335,
      "d": 427.08333333334303,
      "v": 98
    },
    {
      "midi": 64,
      "hit": false,
      "t": 178645.8333333335,
      "d": 1031.250000000029,
      "v": 85
    },
    {
      "midi": 61,
      "hit": false,
      "t": 178645.8333333335,
      "d": 1052.0833333333721,
      "v": 80
    },
    {
      "midi": 45,
      "hit": false,
      "t": 178989.5833333335,
      "d": 447.91666666668607,
      "v": 76
    },
    {
      "midi": 55,
      "hit": false,
      "t": 179312.50000000017,
      "d": 500.0000000000291,
      "v": 57
    },
    {
      "midi": 45,
      "hit": false,
      "t": 179822.91666666686,
      "d": 145.83333333334303,
      "v": 61
    },
    {
      "midi": 66,
      "hit": false,
      "t": 179979.16666666686,
      "d": 1666.6666666666279,
      "v": 76
    },
    {
      "midi": 57,
      "hit": false,
      "t": 179989.58333333352,
      "d": 1145.833333333314,
      "v": 81
    },
    {
      "midi": 62,
      "hit": false,
      "t": 179989.58333333352,
      "d": 1614.5833333332848,
      "v": 88
    },
    {
      "midi": 38,
      "hit": false,
      "t": 179989.58333333352,
      "d": 1781.249999999971,
      "v": 86
    },
    {
      "midi": 45,
      "hit": false,
      "t": 180656.25000000017,
      "d": 291.66666666665697,
      "v": 45
    },
    {
      "midi": 50,
      "hit": false,
      "t": 180989.5833333335,
      "d": 635.416666666657,
      "v": 77
    },
    {
      "midi": 57,
      "hit": false,
      "t": 181322.91666666683,
      "d": 208.33333333331393,
      "v": 64
    },
    {
      "midi": 45,
      "hit": false,
      "t": 181645.8333333335,
      "d": 312.5,
      "v": 72
    },
    {
      "midi": 68,
      "hit": false,
      "t": 181979.16666666683,
      "d": 125,
      "v": 111
    },
    {
      "midi": 74,
      "hit": false,
      "t": 181979.16666666683,
      "d": 541.6666666666861,
      "v": 102
    },
    {
      "midi": 69,
      "hit": false,
      "t": 181979.16666666683,
      "d": 625.0000000000291,
      "v": 106
    },
    {
      "midi": 38,
      "hit": false,
      "t": 181979.16666666683,
      "d": 1687.500000000029,
      "v": 95
    },
    {
      "midi": 45,
      "hit": false,
      "t": 182312.50000000017,
      "d": 270.83333333334303,
      "v": 55
    },
    {
      "midi": 67,
      "hit": false,
      "t": 182645.83333333352,
      "d": 135.41666666665697,
      "v": 90
    },
    {
      "midi": 74,
      "hit": false,
      "t": 182645.83333333352,
      "d": 135.41666666665697,
      "v": 79
    },
    {
      "midi": 50,
      "hit": false,
      "t": 182645.83333333352,
      "d": 208.33333333331393,
      "v": 75
    },
    {
      "midi": 65,
      "hit": false,
      "t": 182968.75000000017,
      "d": 197.91666666668607,
      "v": 100
    },
    {
      "midi": 74,
      "hit": false,
      "t": 182979.16666666683,
      "d": 687.5000000000291,
      "v": 97
    },
    {
      "midi": 50,
      "hit": false,
      "t": 183000.00000000017,
      "d": 583.3333333333721,
      "v": 20
    },
    {
      "midi": 66,
      "hit": false,
      "t": 183145.83333333352,
      "d": 197.91666666668607,
      "v": 94
    },
    {
      "midi": 69,
      "hit": false,
      "t": 183312.5000000002,
      "d": 312.5,
      "v": 86
    },
    {
      "midi": 62,
      "hit": false,
      "t": 183656.2500000002,
      "d": 72.91666666665697,
      "v": 79
    },
    {
      "midi": 62,
      "hit": false,
      "t": 183989.58333333352,
      "d": 1916.666666666657,
      "v": 95
    },
    {
      "midi": 59,
      "hit": false,
      "t": 184000.00000000017,
      "d": 1750,
      "v": 84
    },
    {
      "midi": 67,
      "hit": false,
      "t": 184000.00000000017,
      "d": 1822.916666666657,
      "v": 85
    },
    {
      "midi": 43,
      "hit": false,
      "t": 184000.00000000017,
      "d": 2843.75,
      "v": 90
    },
    {
      "midi": 50,
      "hit": false,
      "t": 184979.16666666683,
      "d": 687.5,
      "v": 67
    },
    {
      "midi": 55,
      "hit": false,
      "t": 185645.8333333335,
      "d": 1093.750000000029,
      "v": 60
    },
    {
      "midi": 62,
      "hit": false,
      "t": 185989.58333333352,
      "d": 1312.5,
      "v": 97
    },
    {
      "midi": 59,
      "hit": false,
      "t": 185989.58333333352,
      "d": 1489.583333333343,
      "v": 96
    },
    {
      "midi": 67,
      "hit": false,
      "t": 185989.58333333352,
      "d": 1510.416666666686,
      "v": 80
    },
    {
      "midi": 43,
      "hit": false,
      "t": 186989.58333333352,
      "d": 489.58333333334303,
      "v": 83
    },
    {
      "midi": 55,
      "hit": false,
      "t": 187322.91666666686,
      "d": 333.33333333334303,
      "v": 83
    },
    {
      "midi": 59,
      "hit": false,
      "t": 187645.83333333355,
      "d": 250,
      "v": 68
    },
    {
      "midi": 63,
      "hit": false,
      "t": 187979.1666666669,
      "d": 2937.5,
      "v": 85
    },
    {
      "midi": 57,
      "hit": false,
      "t": 187989.58333333355,
      "d": 1177.083333333343,
      "v": 88
    },
    {
      "midi": 47,
      "hit": false,
      "t": 187989.58333333355,
      "d": 1854.166666666657,
      "v": 96
    },
    {
      "midi": 54,
      "hit": false,
      "t": 188989.58333333355,
      "d": 937.5,
      "v": 61
    },
    {
      "midi": 57,
      "hit": false,
      "t": 189302.08333333355,
      "d": 218.75,
      "v": 57
    },
    {
      "midi": 57,
      "hit": false,
      "t": 189645.83333333355,
      "d": 875,
      "v": 70
    },
    {
      "midi": 47,
      "hit": false,
      "t": 189989.58333333355,
      "d": 1541.666666666686,
      "v": 84
    },
    {
      "midi": 57,
      "hit": false,
      "t": 190656.2500000002,
      "d": 239.58333333334303,
      "v": 73
    },
    {
      "midi": 54,
      "hit": false,
      "t": 190989.58333333355,
      "d": 458.33333333334303,
      "v": 103
    },
    {
      "midi": 57,
      "hit": false,
      "t": 190989.58333333355,
      "d": 479.16666666668607,
      "v": 100
    },
    {
      "midi": 66,
      "hit": false,
      "t": 190989.58333333355,
      "d": 833.3333333333721,
      "v": 103
    },
    {
      "midi": 63,
      "hit": false,
      "t": 190989.58333333355,
      "d": 927.0833333333721,
      "v": 96
    },
    {
      "midi": 57,
      "hit": false,
      "t": 191645.83333333358,
      "d": 229.16666666668607,
      "v": 56
    },
    {
      "midi": 40,
      "hit": false,
      "t": 191979.16666666692,
      "d": 1833.333333333343,
      "v": 107
    },
    {
      "midi": 59,
      "hit": false,
      "t": 191989.58333333358,
      "d": 1541.666666666657,
      "v": 95
    },
    {
      "midi": 67,
      "hit": false,
      "t": 191989.58333333358,
      "d": 1802.083333333343,
      "v": 86
    },
    {
      "midi": 55,
      "hit": false,
      "t": 192645.83333333358,
      "d": 520.833333333343,
      "v": 57
    },
    {
      "midi": 47,
      "hit": false,
      "t": 192656.25000000023,
      "d": 927.083333333343,
      "v": 62
    },
    {
      "midi": 52,
      "hit": false,
      "t": 192989.58333333358,
      "d": 802.083333333343,
      "v": 74
    },
    {
      "midi": 55,
      "hit": false,
      "t": 193322.91666666692,
      "d": 791.666666666657,
      "v": 65
    },
    {
      "midi": 59,
      "hit": false,
      "t": 193666.66666666692,
      "d": 312.5,
      "v": 53
    },
    {
      "midi": 40,
      "hit": false,
      "t": 193989.58333333358,
      "d": 1302.083333333343,
      "v": 88
    },
    {
      "midi": 57,
      "hit": false,
      "t": 194312.50000000023,
      "d": 72.91666666665697,
      "v": 104
    },
    {
      "midi": 58,
      "hit": false,
      "t": 194312.50000000023,
      "d": 312.5,
      "v": 101
    },
    {
      "midi": 64,
      "hit": false,
      "t": 194312.50000000023,
      "d": 541.6666666666861,
      "v": 99
    },
    {
      "midi": 57,
      "hit": false,
      "t": 194645.83333333358,
      "d": 281.25,
      "v": 84
    },
    {
      "midi": 47,
      "hit": false,
      "t": 194979.16666666692,
      "d": 322.91666666665697,
      "v": 84
    },
    {
      "midi": 64,
      "hit": false,
      "t": 194979.16666666692,
      "d": 614.5833333333139,
      "v": 84
    },
    {
      "midi": 57,
      "hit": false,
      "t": 194979.16666666692,
      "d": 645.8333333333139,
      "v": 87
    },
    {
      "midi": 52,
      "hit": false,
      "t": 195312.50000000023,
      "d": 635.4166666666861,
      "v": 69
    },
    {
      "midi": 55,
      "hit": false,
      "t": 195645.83333333358,
      "d": 83.33333333334303,
      "v": 67
    },
    {
      "midi": 57,
      "hit": false,
      "t": 195979.16666666692,
      "d": 1270.833333333314,
      "v": 78
    },
    {
      "midi": 63,
      "hit": false,
      "t": 195979.16666666692,
      "d": 2218.75,
      "v": 79
    },
    {
      "midi": 47,
      "hit": false,
      "t": 195989.58333333358,
      "d": 1875,
      "v": 98
    },
    {
      "midi": 54,
      "hit": false,
      "t": 196989.58333333358,
      "d": 958.333333333343,
      "v": 68
    },
    {
      "midi": 57,
      "hit": false,
      "t": 197656.25000000023,
      "d": 510.41666666668607,
      "v": 71
    },
    {
      "midi": 47,
      "hit": false,
      "t": 197989.58333333358,
      "d": 1531.250000000029,
      "v": 91
    },
    {
      "midi": 57,
      "hit": false,
      "t": 198322.91666666692,
      "d": 552.083333333343,
      "v": 98
    },
    {
      "midi": 71,
      "hit": false,
      "t": 198322.91666666692,
      "d": 552.083333333343,
      "v": 109
    },
    {
      "midi": 63,
      "hit": false,
      "t": 198322.91666666692,
      "d": 604.1666666666861,
      "v": 104
    },
    {
      "midi": 66,
      "hit": false,
      "t": 198989.5833333336,
      "d": 364.58333333334303,
      "v": 75
    },
    {
      "midi": 54,
      "hit": false,
      "t": 198989.5833333336,
      "d": 500,
      "v": 75
    },
    {
      "midi": 63,
      "hit": false,
      "t": 198989.5833333336,
      "d": 645.833333333343,
      "v": 80
    },
    {
      "midi": 57,
      "hit": false,
      "t": 198989.5833333336,
      "d": 906.2499999999709,
      "v": 92
    },
    {
      "midi": 67,
      "hit": false,
      "t": 199322.91666666695,
      "d": 322.91666666665697,
      "v": 78
    },
    {
      "midi": 69,
      "hit": false,
      "t": 199656.25000000026,
      "d": 72.91666666665697,
      "v": 77
    },
    {
      "midi": 64,
      "hit": false,
      "t": 199989.58333333358,
      "d": 1281.25,
      "v": 87
    },
    {
      "midi": 36,
      "hit": false,
      "t": 199989.58333333358,
      "d": 1895.833333333343,
      "v": 107
    },
    {
      "midi": 60,
      "hit": false,
      "t": 199989.58333333358,
      "d": 3614.583333333314,
      "v": 90
    },
    {
      "midi": 55,
      "hit": false,
      "t": 200656.25000000023,
      "d": 520.833333333343,
      "v": 66
    },
    {
      "midi": 48,
      "hit": false,
      "t": 201000.00000000023,
      "d": 979.1666666666861,
      "v": 88
    },
    {
      "midi": 67,
      "hit": false,
      "t": 201322.91666666692,
      "d": 572.916666666657,
      "v": 87
    },
    {
      "midi": 55,
      "hit": false,
      "t": 201322.91666666692,
      "d": 604.166666666657,
      "v": 115
    },
    {
      "midi": 55,
      "hit": false,
      "t": 201989.58333333358,
      "d": 1229.166666666657,
      "v": 76
    },
    {
      "midi": 64,
      "hit": false,
      "t": 201989.58333333358,
      "d": 1583.333333333314,
      "v": 82
    },
    {
      "midi": 36,
      "hit": false,
      "t": 202000.00000000023,
      "d": 1385.416666666657,
      "v": 77
    },
    {
      "midi": 48,
      "hit": false,
      "t": 203000.00000000023,
      "d": 968.7499999999709,
      "v": 93
    },
    {
      "midi": 55,
      "hit": false,
      "t": 203322.9166666669,
      "d": 125,
      "v": 64
    },
    {
      "midi": 64,
      "hit": false,
      "t": 203645.83333333355,
      "d": 291.66666666665697,
      "v": 68
    },
    {
      "midi": 55,
      "hit": false,
      "t": 203656.2500000002,
      "d": 270.83333333334303,
      "v": 85
    },
    {
      "midi": 60,
      "hit": false,
      "t": 203656.2500000002,
      "d": 343.75,
      "v": 72
    },
    {
      "midi": 55,
      "hit": false,
      "t": 203989.58333333355,
      "d": 1114.583333333314,
      "v": 91
    },
    {
      "midi": 59,
      "hit": false,
      "t": 203989.58333333355,
      "d": 1885.4166666666279,
      "v": 97
    },
    {
      "midi": 62,
      "hit": false,
      "t": 204000.0000000002,
      "d": 1270.833333333314,
      "v": 101
    },
    {
      "midi": 43,
      "hit": false,
      "t": 204000.0000000002,
      "d": 1802.083333333314,
      "v": 96
    },
    {
      "midi": 50,
      "hit": false,
      "t": 205000.0000000002,
      "d": 947.9166666666279,
      "v": 66
    },
    {
      "midi": 67,
      "hit": false,
      "t": 205312.50000000017,
      "d": 520.833333333343,
      "v": 76
    },
    {
      "midi": 67,
      "hit": false,
      "t": 205979.16666666683,
      "d": 312.5,
      "v": 81
    },
    {
      "midi": 59,
      "hit": false,
      "t": 205989.5833333335,
      "d": 375,
      "v": 80
    },
    {
      "midi": 43,
      "hit": false,
      "t": 205989.5833333335,
      "d": 1562.499999999971,
      "v": 91
    },
    {
      "midi": 57,
      "hit": false,
      "t": 206614.5833333335,
      "d": 93.75,
      "v": 102
    },
    {
      "midi": 62,
      "hit": false,
      "t": 206614.5833333335,
      "d": 250,
      "v": 101
    },
    {
      "midi": 58,
      "hit": false,
      "t": 206614.5833333335,
      "d": 291.66666666665697,
      "v": 91
    },
    {
      "midi": 62,
      "hit": false,
      "t": 206958.3333333335,
      "d": 656.2499999999709,
      "v": 86
    },
    {
      "midi": 57,
      "hit": false,
      "t": 206968.75000000015,
      "d": 927.0833333333139,
      "v": 94
    },
    {
      "midi": 50,
      "hit": false,
      "t": 206979.1666666668,
      "d": 979.166666666657,
      "v": 85
    },
    {
      "midi": 55,
      "hit": false,
      "t": 207645.83333333346,
      "d": 177.08333333334303,
      "v": 72
    },
    {
      "midi": 64,
      "hit": false,
      "t": 208010.4166666668,
      "d": 1874.999999999971,
      "v": 107
    },
    {
      "midi": 61,
      "hit": false,
      "t": 208010.4166666668,
      "d": 1906.249999999971,
      "v": 103
    },
    {
      "midi": 45,
      "hit": false,
      "t": 208020.83333333346,
      "d": 1854.166666666657,
      "v": 110
    },
    {
      "midi": 55,
      "hit": false,
      "t": 208020.83333333346,
      "d": 1906.249999999971,
      "v": 105
    },
    {
      "midi": 55,
      "hit": false,
      "t": 214000.0000000001,
      "d": 1010.416666666657,
      "v": 104
    },
    {
      "midi": 62,
      "hit": false,
      "t": 214000.0000000001,
      "d": 1229.166666666657,
      "v": 102
    },
    {
      "midi": 67,
      "hit": false,
      "t": 214000.0000000001,
      "d": 1656.25,
      "v": 97
    },
    {
      "midi": 59,
      "hit": false,
      "t": 214000.0000000001,
      "d": 1864.583333333343,
      "v": 103
    },
    {
      "midi": 43,
      "hit": false,
      "t": 214010.41666666674,
      "d": 1906.250000000029,
      "v": 106
    },
    {
      "midi": 50,
      "hit": false,
      "t": 214958.3333333334,
      "d": 958.3333333333721,
      "v": 118
    },
    {
      "midi": 55,
      "hit": false,
      "t": 215260.41666666674,
      "d": 625.0000000000291,
      "v": 87
    },
    {
      "midi": 62,
      "hit": false,
      "t": 215625.0000000001,
      "d": 322.91666666668607,
      "v": 79
    },
    {
      "midi": 64,
      "hit": false,
      "t": 215989.58333333343,
      "d": 583.333333333343,
      "v": 102
    },
    {
      "midi": 55,
      "hit": false,
      "t": 215989.58333333343,
      "d": 593.75,
      "v": 121
    },
    {
      "midi": 60,
      "hit": false,
      "t": 215989.58333333343,
      "d": 614.583333333343,
      "v": 108
    },
    {
      "midi": 48,
      "hit": false,
      "t": 215989.58333333343,
      "d": 645.833333333343,
      "v": 114
    },
    {
      "midi": 62,
      "hit": false,
      "t": 216656.25000000012,
      "d": 7156.25,
      "v": 102
    },
    {
      "midi": 59,
      "hit": false,
      "t": 216656.25000000012,
      "d": 7177.083333333314,
      "v": 107
    },
    {
      "midi": 55,
      "hit": false,
      "t": 216656.25000000012,
      "d": 7187.499999999971,
      "v": 109
    },
    {
      "midi": 43,
      "hit": false,
      "t": 216677.08333333346,
      "d": 7145.833333333314,
      "v": 119
    }
  ]
}