{
  "jsonPath": "Rock/Pop Rock/Gwen Stefani/early-winter.json",
  "path": "Rock\\Pop Rock\\Gwen Stefani\\Early Winter.mid",
  "name": "Early Winter",
  "difficulty": "Advanced",
  "bpm": 113.00030886751091,
  "notes": [
    {
      "midi": 44,
      "hit": false,
      "t": 22523.435999999998,
      "d": 3592.279491666668,
      "v": 106
    },
    {
      "midi": 63,
      "hit": false,
      "t": 22523.435999999998,
      "d": 3592.279491666668,
      "v": 106
    },
    {
      "midi": 68,
      "hit": false,
      "t": 22523.435999999998,
      "d": 3592.279491666668,
      "v": 106
    },
    {
      "midi": 71,
      "hit": false,
      "t": 22523.435999999998,
      "d": 3592.279491666668,
      "v": 106
    },
    {
      "midi": 44,
      "hit": false,
      "t": 26277.342,
      "d": 1246.0882416666682,
      "v": 106
    },
    {
      "midi": 63,
      "hit": false,
      "t": 26277.342,
      "d": 1246.0882416666682,
      "v": 106
    },
    {
      "midi": 68,
      "hit": false,
      "t": 26277.342,
      "d": 1246.0882416666682,
      "v": 106
    },
    {
      "midi": 71,
      "hit": false,
      "t": 26277.342,
      "d": 1246.0882416666682,
      "v": 106
    },
    {
      "midi": 47,
      "hit": false,
      "t": 27528.644000000004,
      "d": 3592.279491666668,
      "v": 106
    },
    {
      "midi": 63,
      "hit": false,
      "t": 27528.644000000004,
      "d": 3592.279491666668,
      "v": 106
    },
    {
      "midi": 66,
      "hit": false,
      "t": 27528.644000000004,
      "d": 3592.279491666668,
      "v": 106
    },
    {
      "midi": 71,
      "hit": false,
      "t": 27528.644000000004,
      "d": 3592.279491666668,
      "v": 106
    },
    {
      "midi": 47,
      "hit": false,
      "t": 31282.550000000007,
      "d": 1246.0882416666682,
      "v": 106
    },
    {
      "midi": 63,
      "hit": false,
      "t": 31282.550000000007,
      "d": 1246.0882416666682,
      "v": 106
    },
    {
      "midi": 66,
      "hit": false,
      "t": 31282.550000000007,
      "d": 1246.0882416666682,
      "v": 106
    },
    {
      "midi": 71,
      "hit": false,
      "t": 31282.550000000007,
      "d": 1246.0882416666682,
      "v": 106
    },
    {
      "midi": 71,
      "hit": false,
      "t": 32533.85200000001,
      "d": 2497.390241666664,
      "v": 106
    },
    {
      "midi": 42,
      "hit": false,
      "t": 32533.85200000001,
      "d": 3435.8667416666613,
      "v": 106
    },
    {
      "midi": 61,
      "hit": false,
      "t": 32533.85200000001,
      "d": 3435.8667416666613,
      "v": 106
    },
    {
      "midi": 66,
      "hit": false,
      "t": 32533.85200000001,
      "d": 3435.8667416666613,
      "v": 106
    },
    {
      "midi": 42,
      "hit": false,
      "t": 36287.758,
      "d": 1246.0882416666645,
      "v": 106
    },
    {
      "midi": 61,
      "hit": false,
      "t": 36287.758,
      "d": 1246.0882416666645,
      "v": 106
    },
    {
      "midi": 66,
      "hit": false,
      "t": 36287.758,
      "d": 1246.0882416666645,
      "v": 106
    },
    {
      "midi": 70,
      "hit": false,
      "t": 36287.758,
      "d": 1246.0882416666645,
      "v": 106
    },
    {
      "midi": 59,
      "hit": false,
      "t": 37539.06,
      "d": 2340.9774916666647,
      "v": 106
    },
    {
      "midi": 64,
      "hit": false,
      "t": 37539.06,
      "d": 2340.9774916666647,
      "v": 106
    },
    {
      "midi": 68,
      "hit": false,
      "t": 37539.06,
      "d": 2340.9774916666647,
      "v": 106
    },
    {
      "midi": 40,
      "hit": false,
      "t": 37539.06,
      "d": 4374.343241666662,
      "v": 106
    },
    {
      "midi": 95,
      "hit": false,
      "t": 39885.25125,
      "d": 66.47541875000024,
      "v": 58
    },
    {
      "midi": 95,
      "hit": false,
      "t": 40198.07675,
      "d": 63.86853958333086,
      "v": 44
    },
    {
      "midi": 64,
      "hit": false,
      "t": 40354.489499999996,
      "d": 293.2739062499968,
      "v": 69
    },
    {
      "midi": 95,
      "hit": false,
      "t": 40354.489499999996,
      "d": 37.79974791666609,
      "v": 70
    },
    {
      "midi": 95,
      "hit": false,
      "t": 40510.90224999999,
      "d": 71.68917708333174,
      "v": 85
    },
    {
      "midi": 95,
      "hit": false,
      "t": 40667.31499999999,
      "d": 58.65478124999936,
      "v": 104
    },
    {
      "midi": 71,
      "hit": false,
      "t": 40667.314999999995,
      "d": 324.55645625000034,
      "v": 101
    },
    {
      "midi": 95,
      "hit": false,
      "t": 40823.727749999984,
      "d": 80.81325416666368,
      "v": 92
    },
    {
      "midi": 95,
      "hit": false,
      "t": 40980.14049999998,
      "d": 70.38573750000069,
      "v": 122
    },
    {
      "midi": 73,
      "hit": false,
      "t": 40980.140499999994,
      "d": 620.4372416666665,
      "v": 111
    },
    {
      "midi": 95,
      "hit": false,
      "t": 41136.55324999998,
      "d": 76.90293541666324,
      "v": 108
    },
    {
      "midi": 95,
      "hit": false,
      "t": 41292.96599999998,
      "d": 84.72357291666412,
      "v": 127
    },
    {
      "midi": 95,
      "hit": false,
      "t": 41449.378749999974,
      "d": 82.11669375000201,
      "v": 108
    },
    {
      "midi": 95,
      "hit": false,
      "t": 41605.79149999998,
      "d": 100.3648479166659,
      "v": 127
    },
    {
      "midi": 75,
      "hit": false,
      "t": 41605.79149999999,
      "d": 499.21736041666736,
      "v": 111
    },
    {
      "midi": 95,
      "hit": false,
      "t": 41762.20424999997,
      "d": 91.24077083333395,
      "v": 100
    },
    {
      "midi": 95,
      "hit": false,
      "t": 41918.61699999998,
      "d": 75.59949583333218,
      "v": 89
    },
    {
      "midi": 95,
      "hit": false,
      "t": 42075.02974999997,
      "d": 116.00612291666766,
      "v": 92
    },
    {
      "midi": 95,
      "hit": false,
      "t": 42231.442499999976,
      "d": 65.17197916666919,
      "v": 65
    },
    {
      "midi": 95,
      "hit": false,
      "t": 42387.85524999998,
      "d": 100.3648479166659,
      "v": 85
    },
    {
      "midi": 44,
      "hit": false,
      "t": 42544.268,
      "d": 3592.279491666668,
      "v": 106
    },
    {
      "midi": 63,
      "hit": false,
      "t": 42544.268,
      "d": 3592.279491666668,
      "v": 106
    },
    {
      "midi": 68,
      "hit": false,
      "t": 42544.268,
      "d": 3592.279491666668,
      "v": 106
    },
    {
      "midi": 71,
      "hit": false,
      "t": 42544.268,
      "d": 3592.279491666668,
      "v": 106
    },
    {
      "midi": 44,
      "hit": false,
      "t": 46298.174,
      "d": 1246.0882416666645,
      "v": 106
    },
    {
      "midi": 63,
      "hit": false,
      "t": 46298.174,
      "d": 1246.0882416666645,
      "v": 106
    },
    {
      "midi": 68,
      "hit": false,
      "t": 46298.174,
      "d": 1246.0882416666645,
      "v": 106
    },
    {
      "midi": 71,
      "hit": false,
      "t": 46298.174,
      "d": 1246.0882416666645,
      "v": 106
    },
    {
      "midi": 47,
      "hit": false,
      "t": 47549.475999999995,
      "d": 3592.279491666668,
      "v": 106
    },
    {
      "midi": 63,
      "hit": false,
      "t": 47549.475999999995,
      "d": 3592.279491666668,
      "v": 106
    },
    {
      "midi": 66,
      "hit": false,
      "t": 47549.475999999995,
      "d": 3592.279491666668,
      "v": 106
    },
    {
      "midi": 71,
      "hit": false,
      "t": 47549.475999999995,
      "d": 3592.279491666668,
      "v": 106
    },
    {
      "midi": 47,
      "hit": false,
      "t": 51303.382,
      "d": 1246.0882416666645,
      "v": 106
    },
    {
      "midi": 63,
      "hit": false,
      "t": 51303.382,
      "d": 1246.0882416666645,
      "v": 106
    },
    {
      "midi": 66,
      "hit": false,
      "t": 51303.382,
      "d": 1246.0882416666645,
      "v": 106
    },
    {
      "midi": 71,
      "hit": false,
      "t": 51303.382,
      "d": 1246.0882416666645,
      "v": 106
    },
    {
      "midi": 71,
      "hit": false,
      "t": 52554.683999999994,
      "d": 2497.390241666668,
      "v": 106
    },
    {
      "midi": 42,
      "hit": false,
      "t": 52554.683999999994,
      "d": 3435.866741666665,
      "v": 106
    },
    {
      "midi": 61,
      "hit": false,
      "t": 52554.683999999994,
      "d": 3435.866741666665,
      "v": 106
    },
    {
      "midi": 66,
      "hit": false,
      "t": 52554.683999999994,
      "d": 3435.866741666665,
      "v": 106
    },
    {
      "midi": 42,
      "hit": false,
      "t": 56308.58999999999,
      "d": 1246.0882416666645,
      "v": 106
    },
    {
      "midi": 61,
      "hit": false,
      "t": 56308.58999999999,
      "d": 1246.0882416666645,
      "v": 106
    },
    {
      "midi": 66,
      "hit": false,
      "t": 56308.58999999999,
      "d": 1246.0882416666645,
      "v": 106
    },
    {
      "midi": 70,
      "hit": false,
      "t": 56308.58999999999,
      "d": 1246.0882416666645,
      "v": 106
    },
    {
      "midi": 59,
      "hit": false,
      "t": 57559.891999999985,
      "d": 2340.9774916666647,
      "v": 106
    },
    {
      "midi": 64,
      "hit": false,
      "t": 57559.891999999985,
      "d": 2340.9774916666647,
      "v": 106
    },
    {
      "midi": 68,
      "hit": false,
      "t": 57559.891999999985,
      "d": 2340.9774916666647,
      "v": 106
    },
    {
      "midi": 40,
      "hit": false,
      "t": 57559.891999999985,
      "d": 4374.343241666662,
      "v": 106
    },
    {
      "midi": 64,
      "hit": false,
      "t": 60375.321499999984,
      "d": 293.2739062499968,
      "v": 69
    },
    {
      "midi": 71,
      "hit": false,
      "t": 60688.14699999998,
      "d": 324.55645625000034,
      "v": 101
    },
    {
      "midi": 73,
      "hit": false,
      "t": 61000.97249999998,
      "d": 620.4372416666665,
      "v": 111
    },
    {
      "midi": 75,
      "hit": false,
      "t": 61626.62349999998,
      "d": 499.21736041666736,
      "v": 111
    },
    {
      "midi": 44,
      "hit": false,
      "t": 62565.09999999998,
      "d": 2497.390241666668,
      "v": 106
    },
    {
      "midi": 63,
      "hit": false,
      "t": 62565.09999999998,
      "d": 2497.390241666668,
      "v": 106
    },
    {
      "midi": 68,
      "hit": false,
      "t": 62565.09999999998,
      "d": 2497.390241666668,
      "v": 106
    },
    {
      "midi": 71,
      "hit": false,
      "t": 62565.09999999998,
      "d": 2497.390241666668,
      "v": 106
    },
    {
      "midi": 47,
      "hit": false,
      "t": 65067.703999999976,
      "d": 1558.9137416666708,
      "v": 106
    },
    {
      "midi": 66,
      "hit": false,
      "t": 65067.703999999976,
      "d": 1558.9137416666708,
      "v": 106
    },
    {
      "midi": 71,
      "hit": false,
      "t": 65067.703999999976,
      "d": 1558.9137416666708,
      "v": 106
    },
    {
      "midi": 75,
      "hit": false,
      "t": 65067.703999999976,
      "d": 1558.9137416666708,
      "v": 106
    },
    {
      "midi": 47,
      "hit": false,
      "t": 66631.83149999999,
      "d": 933.2627416666655,
      "v": 106
    },
    {
      "midi": 66,
      "hit": false,
      "t": 66631.83149999999,
      "d": 933.2627416666655,
      "v": 106
    },
    {
      "midi": 71,
      "hit": false,
      "t": 66631.83149999999,
      "d": 933.2627416666655,
      "v": 106
    },
    {
      "midi": 75,
      "hit": false,
      "t": 66631.83149999999,
      "d": 933.2627416666655,
      "v": 106
    },
    {
      "midi": 42,
      "hit": false,
      "t": 67570.30799999999,
      "d": 1558.9137416666636,
      "v": 106
    },
    {
      "midi": 66,
      "hit": false,
      "t": 67570.30799999999,
      "d": 1558.9137416666636,
      "v": 106
    },
    {
      "midi": 70,
      "hit": false,
      "t": 67570.30799999999,
      "d": 1558.9137416666636,
      "v": 106
    },
    {
      "midi": 73,
      "hit": false,
      "t": 67570.30799999999,
      "d": 1558.9137416666636,
      "v": 106
    },
    {
      "midi": 42,
      "hit": false,
      "t": 69134.43549999999,
      "d": 933.2627416666655,
      "v": 106
    },
    {
      "midi": 66,
      "hit": false,
      "t": 69134.43549999999,
      "d": 933.2627416666655,
      "v": 106
    },
    {
      "midi": 70,
      "hit": false,
      "t": 69134.43549999999,
      "d": 933.2627416666655,
      "v": 106
    },
    {
      "midi": 73,
      "hit": false,
      "t": 69134.43549999999,
      "d": 933.2627416666655,
      "v": 106
    },
    {
      "midi": 40,
      "hit": false,
      "t": 70072.912,
      "d": 2497.390241666668,
      "v": 106
    },
    {
      "midi": 59,
      "hit": false,
      "t": 70072.912,
      "d": 2497.390241666668,
      "v": 106
    },
    {
      "midi": 64,
      "hit": false,
      "t": 70072.912,
      "d": 2497.390241666668,
      "v": 106
    },
    {
      "midi": 68,
      "hit": false,
      "t": 70072.912,
      "d": 2497.390241666668,
      "v": 106
    },
    {
      "midi": 44,
      "hit": false,
      "t": 72575.516,
      "d": 1558.9137416666636,
      "v": 106
    },
    {
      "midi": 59,
      "hit": false,
      "t": 72575.516,
      "d": 1558.9137416666636,
      "v": 106
    },
    {
      "midi": 63,
      "hit": false,
      "t": 72575.516,
      "d": 1558.9137416666636,
      "v": 106
    },
    {
      "midi": 68,
      "hit": false,
      "t": 72575.516,
      "d": 1558.9137416666636,
      "v": 106
    },
    {
      "midi": 44,
      "hit": false,
      "t": 74139.6435,
      "d": 933.2627416666655,
      "v": 106
    },
    {
      "midi": 59,
      "hit": false,
      "t": 74139.6435,
      "d": 933.2627416666655,
      "v": 106
    },
    {
      "midi": 63,
      "hit": false,
      "t": 74139.6435,
      "d": 933.2627416666655,
      "v": 106
    },
    {
      "midi": 68,
      "hit": false,
      "t": 74139.6435,
      "d": 933.2627416666655,
      "v": 106
    },
    {
      "midi": 47,
      "hit": false,
      "t": 75078.12000000001,
      "d": 1558.9137416666636,
      "v": 106
    },
    {
      "midi": 63,
      "hit": false,
      "t": 75078.12000000001,
      "d": 1558.9137416666636,
      "v": 106
    },
    {
      "midi": 66,
      "hit": false,
      "t": 75078.12000000001,
      "d": 1558.9137416666636,
      "v": 106
    },
    {
      "midi": 71,
      "hit": false,
      "t": 75078.12000000001,
      "d": 1558.9137416666636,
      "v": 106
    },
    {
      "midi": 47,
      "hit": false,
      "t": 76642.24750000001,
      "d": 933.2627416666655,
      "v": 106
    },
    {
      "midi": 63,
      "hit": false,
      "t": 76642.24750000001,
      "d": 933.2627416666655,
      "v": 106
    },
    {
      "midi": 66,
      "hit": false,
      "t": 76642.24750000001,
      "d": 933.2627416666655,
      "v": 106
    },
    {
      "midi": 71,
      "hit": false,
      "t": 76642.24750000001,
      "d": 933.2627416666655,
      "v": 106
    },
    {
      "midi": 42,
      "hit": false,
      "t": 77580.72400000002,
      "d": 2497.390241666668,
      "v": 106
    },
    {
      "midi": 61,
      "hit": false,
      "t": 77580.72400000002,
      "d": 2497.390241666668,
      "v": 106
    },
    {
      "midi": 66,
      "hit": false,
      "t": 77580.72400000002,
      "d": 2497.390241666668,
      "v": 106
    },
    {
      "midi": 70,
      "hit": false,
      "t": 77580.72400000002,
      "d": 2497.390241666668,
      "v": 106
    },
    {
      "midi": 40,
      "hit": false,
      "t": 80083.32800000002,
      "d": 2497.390241666668,
      "v": 106
    },
    {
      "midi": 59,
      "hit": false,
      "t": 80083.32800000002,
      "d": 2497.390241666668,
      "v": 106
    },
    {
      "midi": 64,
      "hit": false,
      "t": 80083.32800000002,
      "d": 2497.390241666668,
      "v": 106
    },
    {
      "midi": 68,
      "hit": false,
      "t": 80083.32800000002,
      "d": 2497.390241666668,
      "v": 106
    },
    {
      "midi": 40,
      "hit": false,
      "t": 82585.93200000003,
      "d": 2359.225645833343,
      "v": 120
    },
    {
      "midi": 52,
      "hit": false,
      "t": 82898.75750000004,
      "d": 715.5883312500082,
      "v": 120
    },
    {
      "midi": 59,
      "hit": false,
      "t": 83211.58300000004,
      "d": 591.7615708333324,
      "v": 120
    },
    {
      "midi": 64,
      "hit": false,
      "t": 83524.40850000005,
      "d": 435.3488208333292,
      "v": 120
    },
    {
      "midi": 52,
      "hit": false,
      "t": 83837.23400000004,
      "d": 428.8316229166667,
      "v": 120
    },
    {
      "midi": 68,
      "hit": false,
      "t": 84150.05950000005,
      "d": 788.5809479166637,
      "v": 120
    },
    {
      "midi": 52,
      "hit": false,
      "t": 84462.88500000004,
      "d": 619.1338020833355,
      "v": 120
    },
    {
      "midi": 59,
      "hit": false,
      "t": 84775.71050000004,
      "d": 200.7296958333318,
      "v": 120
    },
    {
      "midi": 61,
      "hit": false,
      "t": 85088.53600000004,
      "d": 826.3806958333444,
      "v": 120
    },
    {
      "midi": 30,
      "hit": false,
      "t": 85088.53600000004,
      "d": 1094.8892500000075,
      "v": 117
    },
    {
      "midi": 42,
      "hit": false,
      "t": 85088.53600000004,
      "d": 1094.8892500000075,
      "v": 117
    },
    {
      "midi": 66,
      "hit": false,
      "t": 85088.53600000004,
      "d": 1402.500991666675,
      "v": 120
    },
    {
      "midi": 70,
      "hit": false,
      "t": 85088.53600000004,
      "d": 1402.500991666675,
      "v": 120
    },
    {
      "midi": 54,
      "hit": false,
      "t": 85401.36150000004,
      "d": 494.00360208333586,
      "v": 120
    },
    {
      "midi": 54,
      "hit": false,
      "t": 86027.01250000004,
      "d": 314.12893958333007,
      "v": 120
    },
    {
      "midi": 61,
      "hit": false,
      "t": 86027.01250000004,
      "d": 357.14244583333493,
      "v": 120
    },
    {
      "midi": 30,
      "hit": false,
      "t": 86652.66350000004,
      "d": 933.2627416666655,
      "v": 117
    },
    {
      "midi": 42,
      "hit": false,
      "t": 86652.66350000004,
      "d": 933.2627416666655,
      "v": 117
    },
    {
      "midi": 54,
      "hit": false,
      "t": 86652.66350000004,
      "d": 933.2627416666655,
      "v": 120
    },
    {
      "midi": 61,
      "hit": false,
      "t": 86652.66350000004,
      "d": 933.2627416666655,
      "v": 120
    },
    {
      "midi": 66,
      "hit": false,
      "t": 86652.66350000004,
      "d": 933.2627416666655,
      "v": 120
    },
    {
      "midi": 71,
      "hit": false,
      "t": 86652.66350000004,
      "d": 933.2627416666655,
      "v": 120
    },
    {
      "midi": 70,
      "hit": false,
      "t": 87591.14000000004,
      "d": 471.84512916667154,
      "v": 120
    },
    {
      "midi": 66,
      "hit": false,
      "t": 87591.14000000004,
      "d": 595.6718895833328,
      "v": 120
    },
    {
      "midi": 54,
      "hit": false,
      "t": 87591.14000000004,
      "d": 606.0994062499958,
      "v": 120
    },
    {
      "midi": 30,
      "hit": false,
      "t": 87591.14000000004,
      "d": 782.0637500000157,
      "v": 117
    },
    {
      "midi": 42,
      "hit": false,
      "t": 87591.14000000004,
      "d": 782.0637500000157,
      "v": 117
    },
    {
      "midi": 61,
      "hit": false,
      "t": 87903.96550000005,
      "d": 329.77021458333184,
      "v": 111
    },
    {
      "midi": 66,
      "hit": false,
      "t": 88216.79100000004,
      "d": 67.77885833334585,
      "v": 81
    },
    {
      "midi": 66,
      "hit": false,
      "t": 88529.61650000006,
      "d": 505.7345583333372,
      "v": 120
    },
    {
      "midi": 54,
      "hit": false,
      "t": 88529.61650000006,
      "d": 680.3954625000042,
      "v": 120
    },
    {
      "midi": 71,
      "hit": false,
      "t": 88529.61650000006,
      "d": 724.7124083333329,
      "v": 120
    },
    {
      "midi": 61,
      "hit": false,
      "t": 88529.61650000006,
      "d": 727.319287499995,
      "v": 118
    },
    {
      "midi": 30,
      "hit": false,
      "t": 88529.61650000006,
      "d": 782.0637500000012,
      "v": 117
    },
    {
      "midi": 42,
      "hit": false,
      "t": 88529.61650000006,
      "d": 782.0637500000012,
      "v": 117
    },
    {
      "midi": 66,
      "hit": false,
      "t": 89155.26750000006,
      "d": 245.046641666675,
      "v": 60
    },
    {
      "midi": 54,
      "hit": false,
      "t": 89468.09300000007,
      "d": 620.4372416666738,
      "v": 120
    },
    {
      "midi": 61,
      "hit": false,
      "t": 89468.09300000007,
      "d": 620.4372416666738,
      "v": 120
    },
    {
      "midi": 66,
      "hit": false,
      "t": 89468.09300000007,
      "d": 620.4372416666738,
      "v": 120
    },
    {
      "midi": 70,
      "hit": false,
      "t": 89468.09300000007,
      "d": 620.4372416666738,
      "v": 120
    },
    {
      "midi": 30,
      "hit": false,
      "t": 89468.09300000007,
      "d": 625.6510000000126,
      "v": 117
    },
    {
      "midi": 42,
      "hit": false,
      "t": 89468.09300000007,
      "d": 625.6510000000126,
      "v": 117
    },
    {
      "midi": 68,
      "hit": false,
      "t": 90093.74400000008,
      "d": 654.3266708333249,
      "v": 120
    },
    {
      "midi": 59,
      "hit": false,
      "t": 90093.74400000008,
      "d": 671.271385416665,
      "v": 118
    },
    {
      "midi": 64,
      "hit": false,
      "t": 90093.74400000008,
      "d": 686.9126604166668,
      "v": 120
    },
    {
      "midi": 28,
      "hit": false,
      "t": 90093.74400000008,
      "d": 2339.674052083312,
      "v": 120
    },
    {
      "midi": 40,
      "hit": false,
      "t": 90093.74400000008,
      "d": 2339.674052083312,
      "v": 120
    },
    {
      "midi": 52,
      "hit": false,
      "t": 90719.39500000008,
      "d": 1058.3929416666651,
      "v": 106
    },
    {
      "midi": 68,
      "hit": false,
      "t": 91032.22050000008,
      "d": 531.803350000002,
      "v": 106
    },
    {
      "midi": 59,
      "hit": false,
      "t": 91032.22050000008,
      "d": 561.7824604166672,
      "v": 120
    },
    {
      "midi": 64,
      "hit": false,
      "t": 91032.22050000008,
      "d": 565.6927791666676,
      "v": 120
    },
    {
      "midi": 59,
      "hit": false,
      "t": 91657.87150000008,
      "d": 426.22474374999,
      "v": 120
    },
    {
      "midi": 64,
      "hit": false,
      "t": 91657.87150000008,
      "d": 765.1190354166465,
      "v": 120
    },
    {
      "midi": 68,
      "hit": false,
      "t": 91657.87150000008,
      "d": 793.7947062499734,
      "v": 111
    },
    {
      "midi": 52,
      "hit": false,
      "t": 91970.69700000007,
      "d": 477.0588874999812,
      "v": 106
    },
    {
      "midi": 59,
      "hit": false,
      "t": 92283.52250000006,
      "d": 156.4127499999886,
      "v": 96
    },
    {
      "midi": 37,
      "hit": false,
      "t": 92596.34800000006,
      "d": 1637.120116666687,
      "v": 120
    },
    {
      "midi": 49,
      "hit": false,
      "t": 92596.34800000006,
      "d": 1637.120116666687,
      "v": 120
    },
    {
      "midi": 56,
      "hit": false,
      "t": 92909.17350000006,
      "d": 890.2492354166752,
      "v": 118
    },
    {
      "midi": 68,
      "hit": false,
      "t": 93221.99900000007,
      "d": 224.19160833333444,
      "v": 111
    },
    {
      "midi": 64,
      "hit": false,
      "t": 93221.99900000007,
      "d": 229.40536666667322,
      "v": 120
    },
    {
      "midi": 59,
      "hit": false,
      "t": 93221.99900000007,
      "d": 238.52944375001243,
      "v": 118
    },
    {
      "midi": 59,
      "hit": false,
      "t": 93534.82450000008,
      "d": 405.369710416664,
      "v": 118
    },
    {
      "midi": 64,
      "hit": false,
      "t": 93534.82450000008,
      "d": 409.28002916666446,
      "v": 120
    },
    {
      "midi": 68,
      "hit": false,
      "t": 93534.82450000008,
      "d": 419.70754583332746,
      "v": 118
    },
    {
      "midi": 56,
      "hit": false,
      "t": 93847.65000000007,
      "d": 384.51467708333803,
      "v": 92
    },
    {
      "midi": 59,
      "hit": false,
      "t": 94160.47550000007,
      "d": 486.182964583335,
      "v": 120
    },
    {
      "midi": 64,
      "hit": false,
      "t": 94160.47550000007,
      "d": 763.8155958333373,
      "v": 120
    },
    {
      "midi": 68,
      "hit": false,
      "t": 94160.47550000007,
      "d": 795.0981458333408,
      "v": 120
    },
    {
      "midi": 56,
      "hit": false,
      "t": 94473.30100000008,
      "d": 428.8316229166521,
      "v": 111
    },
    {
      "midi": 37,
      "hit": false,
      "t": 94473.30100000008,
      "d": 437.95569999999134,
      "v": 111
    },
    {
      "midi": 49,
      "hit": false,
      "t": 94473.30100000008,
      "d": 437.95569999999134,
      "v": 111
    },
    {
      "midi": 59,
      "hit": false,
      "t": 94786.12650000007,
      "d": 139.4680354166776,
      "v": 100
    },
    {
      "midi": 61,
      "hit": false,
      "t": 95098.95200000008,
      "d": 826.3806958333444,
      "v": 120
    },
    {
      "midi": 30,
      "hit": false,
      "t": 95098.95200000008,
      "d": 1094.8892500000075,
      "v": 117
    },
    {
      "midi": 42,
      "hit": false,
      "t": 95098.95200000008,
      "d": 1094.8892500000075,
      "v": 117
    },
    {
      "midi": 66,
      "hit": false,
      "t": 95098.95200000008,
      "d": 1402.500991666675,
      "v": 120
    },
    {
      "midi": 70,
      "hit": false,
      "t": 95098.95200000008,
      "d": 1402.500991666675,
      "v": 120
    },
    {
      "midi": 54,
      "hit": false,
      "t": 95411.77750000008,
      "d": 494.00360208333586,
      "v": 120
    },
    {
      "midi": 54,
      "hit": false,
      "t": 96037.42850000008,
      "d": 314.12893958333007,
      "v": 120
    },
    {
      "midi": 61,
      "hit": false,
      "t": 96037.42850000008,
      "d": 357.14244583333493,
      "v": 120
    },
    {
      "midi": 30,
      "hit": false,
      "t": 96663.07950000008,
      "d": 933.2627416666655,
      "v": 117
    },
    {
      "midi": 42,
      "hit": false,
      "t": 96663.07950000008,
      "d": 933.2627416666655,
      "v": 117
    },
    {
      "midi": 54,
      "hit": false,
      "t": 96663.07950000008,
      "d": 933.2627416666655,
      "v": 120
    },
    {
      "midi": 61,
      "hit": false,
      "t": 96663.07950000008,
      "d": 933.2627416666655,
      "v": 120
    },
    {
      "midi": 66,
      "hit": false,
      "t": 96663.07950000008,
      "d": 933.2627416666655,
      "v": 120
    },
    {
      "midi": 71,
      "hit": false,
      "t": 96663.07950000008,
      "d": 933.2627416666655,
      "v": 120
    },
    {
      "midi": 70,
      "hit": false,
      "t": 97601.55600000008,
      "d": 471.84512916667154,
      "v": 120
    },
    {
      "midi": 66,
      "hit": false,
      "t": 97601.55600000008,
      "d": 595.6718895833328,
      "v": 120
    },
    {
      "midi": 54,
      "hit": false,
      "t": 97601.55600000008,
      "d": 606.0994062499958,
      "v": 120
    },
    {
      "midi": 30,
      "hit": false,
      "t": 97601.55600000008,
      "d": 782.0637500000157,
      "v": 117
    },
    {
      "midi": 42,
      "hit": false,
      "t": 97601.55600000008,
      "d": 782.0637500000157,
      "v": 117
    },
    {
      "midi": 61,
      "hit": false,
      "t": 97914.38150000009,
      "d": 329.77021458333184,
      "v": 111
    },
    {
      "midi": 66,
      "hit": false,
      "t": 98227.20700000008,
      "d": 67.77885833334585,
      "v": 81
    },
    {
      "midi": 66,
      "hit": false,
      "t": 98540.0325000001,
      "d": 505.7345583333372,
      "v": 120
    },
    {
      "midi": 54,
      "hit": false,
      "t": 98540.0325000001,
      "d": 680.3954625000042,
      "v": 120
    },
    {
      "midi": 71,
      "hit": false,
      "t": 98540.0325000001,
      "d": 724.7124083333329,
      "v": 120
    },
    {
      "midi": 61,
      "hit": false,
      "t": 98540.0325000001,
      "d": 727.319287499995,
      "v": 118
    },
    {
      "midi": 30,
      "hit": false,
      "t": 98540.0325000001,
      "d": 782.0637500000012,
      "v": 117
    },
    {
      "midi": 42,
      "hit": false,
      "t": 98540.0325000001,
      "d": 782.0637500000012,
      "v": 117
    },
    {
      "midi": 66,
      "hit": false,
      "t": 99165.6835000001,
      "d": 245.046641666675,
      "v": 60
    },
    {
      "midi": 54,
      "hit": false,
      "t": 99478.50900000011,
      "d": 620.4372416666738,
      "v": 120
    },
    {
      "midi": 61,
      "hit": false,
      "t": 99478.50900000011,
      "d": 620.4372416666738,
      "v": 120
    },
    {
      "midi": 66,
      "hit": false,
      "t": 99478.50900000011,
      "d": 620.4372416666738,
      "v": 120
    },
    {
      "midi": 70,
      "hit": false,
      "t": 99478.50900000011,
      "d": 620.4372416666738,
      "v": 120
    },
    {
      "midi": 30,
      "hit": false,
      "t": 99478.50900000011,
      "d": 625.6510000000126,
      "v": 117
    },
    {
      "midi": 42,
      "hit": false,
      "t": 99478.50900000011,
      "d": 625.6510000000126,
      "v": 117
    },
    {
      "midi": 68,
      "hit": false,
      "t": 100104.16000000012,
      "d": 654.3266708333249,
      "v": 120
    },
    {
      "midi": 59,
      "hit": false,
      "t": 100104.16000000012,
      "d": 671.271385416665,
      "v": 118
    },
    {
      "midi": 64,
      "hit": false,
      "t": 100104.16000000012,
      "d": 686.9126604166668,
      "v": 120
    },
    {
      "midi": 28,
      "hit": false,
      "t": 100104.16000000012,
      "d": 2339.674052083312,
      "v": 120
    },
    {
      "midi": 40,
      "hit": false,
      "t": 100104.16000000012,
      "d": 2339.674052083312,
      "v": 120
    },
    {
      "midi": 52,
      "hit": false,
      "t": 100729.81100000012,
      "d": 1058.3929416666651,
      "v": 106
    },
    {
      "midi": 68,
      "hit": false,
      "t": 101042.63650000012,
      "d": 531.803350000002,
      "v": 106
    },
    {
      "midi": 59,
      "hit": false,
      "t": 101042.63650000012,
      "d": 561.7824604166672,
      "v": 120
    },
    {
      "midi": 64,
      "hit": false,
      "t": 101042.63650000012,
      "d": 565.6927791666676,
      "v": 120
    },
    {
      "midi": 59,
      "hit": false,
      "t": 101668.28750000012,
      "d": 426.22474374999,
      "v": 120
    },
    {
      "midi": 64,
      "hit": false,
      "t": 101668.28750000012,
      "d": 765.1190354166465,
      "v": 120
    },
    {
      "midi": 68,
      "hit": false,
      "t": 101668.28750000012,
      "d": 793.7947062499734,
      "v": 111
    },
    {
      "midi": 52,
      "hit": false,
      "t": 101981.11300000011,
      "d": 477.0588874999812,
      "v": 106
    },
    {
      "midi": 59,
      "hit": false,
      "t": 102293.9385000001,
      "d": 156.4127499999886,
      "v": 96
    },
    {
      "midi": 37,
      "hit": false,
      "t": 102606.7640000001,
      "d": 1637.120116666687,
      "v": 120
    },
    {
      "midi": 49,
      "hit": false,
      "t": 102606.7640000001,
      "d": 1637.120116666687,
      "v": 120
    },
    {
      "midi": 56,
      "hit": false,
      "t": 102919.5895000001,
      "d": 890.2492354166752,
      "v": 118
    },
    {
      "midi": 68,
      "hit": false,
      "t": 103232.41500000011,
      "d": 224.19160833333444,
      "v": 111
    },
    {
      "midi": 64,
      "hit": false,
      "t": 103232.41500000011,
      "d": 229.40536666667322,
      "v": 120
    },
    {
      "midi": 59,
      "hit": false,
      "t": 103232.41500000011,
      "d": 238.52944375001243,
      "v": 118
    },
    {
      "midi": 59,
      "hit": false,
      "t": 103545.24050000012,
      "d": 405.369710416664,
      "v": 118
    },
    {
      "midi": 64,
      "hit": false,
      "t": 103545.24050000012,
      "d": 409.28002916666446,
      "v": 120
    },
    {
      "midi": 68,
      "hit": false,
      "t": 103545.24050000012,
      "d": 419.70754583332746,
      "v": 118
    },
    {
      "midi": 56,
      "hit": false,
      "t": 103858.06600000011,
      "d": 384.51467708333803,
      "v": 92
    },
    {
      "midi": 59,
      "hit": false,
      "t": 104170.89150000011,
      "d": 486.182964583335,
      "v": 120
    },
    {
      "midi": 64,
      "hit": false,
      "t": 104170.89150000011,
      "d": 763.8155958333373,
      "v": 120
    },
    {
      "midi": 68,
      "hit": false,
      "t": 104170.89150000011,
      "d": 795.0981458333408,
      "v": 120
    },
    {
      "midi": 56,
      "hit": false,
      "t": 104483.71700000012,
      "d": 428.8316229166521,
      "v": 111
    },
    {
      "midi": 37,
      "hit": false,
      "t": 104483.71700000012,
      "d": 437.95569999999134,
      "v": 111
    },
    {
      "midi": 49,
      "hit": false,
      "t": 104483.71700000012,
      "d": 437.95569999999134,
      "v": 111
    },
    {
      "midi": 59,
      "hit": false,
      "t": 104796.54250000011,
      "d": 139.4680354166776,
      "v": 100
    },
    {
      "midi": 61,
      "hit": false,
      "t": 105109.36800000012,
      "d": 826.3806958333444,
      "v": 120
    },
    {
      "midi": 30,
      "hit": false,
      "t": 105109.36800000012,
      "d": 1094.8892500000075,
      "v": 117
    },
    {
      "midi": 42,
      "hit": false,
      "t": 105109.36800000012,
      "d": 1094.8892500000075,
      "v": 117
    },
    {
      "midi": 66,
      "hit": false,
      "t": 105109.36800000012,
      "d": 1402.500991666675,
      "v": 120
    },
    {
      "midi": 70,
      "hit": false,
      "t": 105109.36800000012,
      "d": 1402.500991666675,
      "v": 120
    },
    {
      "midi": 54,
      "hit": false,
      "t": 105422.19350000012,
      "d": 494.00360208333586,
      "v": 120
    },
    {
      "midi": 54,
      "hit": false,
      "t": 106047.84450000012,
      "d": 314.12893958333007,
      "v": 120
    },
    {
      "midi": 61,
      "hit": false,
      "t": 106047.84450000012,
      "d": 357.14244583333493,
      "v": 120
    },
    {
      "midi": 30,
      "hit": false,
      "t": 106673.49550000012,
      "d": 933.2627416666655,
      "v": 117
    },
    {
      "midi": 42,
      "hit": false,
      "t": 106673.49550000012,
      "d": 933.2627416666655,
      "v": 117
    },
    {
      "midi": 54,
      "hit": false,
      "t": 106673.49550000012,
      "d": 933.2627416666655,
      "v": 120
    },
    {
      "midi": 61,
      "hit": false,
      "t": 106673.49550000012,
      "d": 933.2627416666655,
      "v": 120
    },
    {
      "midi": 66,
      "hit": false,
      "t": 106673.49550000012,
      "d": 933.2627416666655,
      "v": 120
    },
    {
      "midi": 71,
      "hit": false,
      "t": 106673.49550000012,
      "d": 933.2627416666655,
      "v": 120
    },
    {
      "midi": 70,
      "hit": false,
      "t": 107611.97200000013,
      "d": 471.84512916667154,
      "v": 120
    },
    {
      "midi": 66,
      "hit": false,
      "t": 107611.97200000013,
      "d": 595.6718895833328,
      "v": 120
    },
    {
      "midi": 54,
      "hit": false,
      "t": 107611.97200000013,
      "d": 606.0994062499958,
      "v": 120
    },
    {
      "midi": 30,
      "hit": false,
      "t": 107611.97200000013,
      "d": 782.0637500000157,
      "v": 117
    },
    {
      "midi": 42,
      "hit": false,
      "t": 107611.97200000013,
      "d": 782.0637500000157,
      "v": 117
    },
    {
      "midi": 61,
      "hit": false,
      "t": 107924.79750000013,
      "d": 329.77021458333184,
      "v": 111
    },
    {
      "midi": 66,
      "hit": false,
      "t": 108237.62300000012,
      "d": 67.77885833334585,
      "v": 81
    },
    {
      "midi": 66,
      "hit": false,
      "t": 108550.44850000014,
      "d": 505.7345583333372,
      "v": 120
    },
    {
      "midi": 54,
      "hit": false,
      "t": 108550.44850000014,
      "d": 680.3954625000042,
      "v": 120
    },
    {
      "midi": 71,
      "hit": false,
      "t": 108550.44850000014,
      "d": 724.7124083333329,
      "v": 120
    },
    {
      "midi": 61,
      "hit": false,
      "t": 108550.44850000014,
      "d": 727.319287499995,
      "v": 118
    },
    {
      "midi": 30,
      "hit": false,
      "t": 108550.44850000014,
      "d": 782.0637500000012,
      "v": 117
    },
    {
      "midi": 42,
      "hit": false,
      "t": 108550.44850000014,
      "d": 782.0637500000012,
      "v": 117
    },
    {
      "midi": 66,
      "hit": false,
      "t": 109176.09950000014,
      "d": 245.046641666675,
      "v": 60
    },
    {
      "midi": 54,
      "hit": false,
      "t": 109488.92500000015,
      "d": 620.4372416666738,
      "v": 120
    },
    {
      "midi": 61,
      "hit": false,
      "t": 109488.92500000015,
      "d": 620.4372416666738,
      "v": 120
    },
    {
      "midi": 66,
      "hit": false,
      "t": 109488.92500000015,
      "d": 620.4372416666738,
      "v": 120
    },
    {
      "midi": 70,
      "hit": false,
      "t": 109488.92500000015,
      "d": 620.4372416666738,
      "v": 120
    },
    {
      "midi": 30,
      "hit": false,
      "t": 109488.92500000015,
      "d": 625.6510000000126,
      "v": 117
    },
    {
      "midi": 42,
      "hit": false,
      "t": 109488.92500000015,
      "d": 625.6510000000126,
      "v": 117
    },
    {
      "midi": 68,
      "hit": false,
      "t": 110114.57600000016,
      "d": 654.3266708333249,
      "v": 120
    },
    {
      "midi": 59,
      "hit": false,
      "t": 110114.57600000016,
      "d": 671.271385416665,
      "v": 118
    },
    {
      "midi": 64,
      "hit": false,
      "t": 110114.57600000016,
      "d": 686.9126604166668,
      "v": 120
    },
    {
      "midi": 28,
      "hit": false,
      "t": 110114.57600000016,
      "d": 2339.674052083312,
      "v": 120
    },
    {
      "midi": 40,
      "hit": false,
      "t": 110114.57600000016,
      "d": 2339.674052083312,
      "v": 120
    },
    {
      "midi": 52,
      "hit": false,
      "t": 110740.22700000016,
      "d": 1058.3929416666651,
      "v": 106
    },
    {
      "midi": 68,
      "hit": false,
      "t": 111053.05250000017,
      "d": 531.803350000002,
      "v": 106
    },
    {
      "midi": 59,
      "hit": false,
      "t": 111053.05250000017,
      "d": 561.7824604166672,
      "v": 120
    },
    {
      "midi": 64,
      "hit": false,
      "t": 111053.05250000017,
      "d": 565.6927791666676,
      "v": 120
    },
    {
      "midi": 59,
      "hit": false,
      "t": 111678.70350000016,
      "d": 426.22474374999,
      "v": 120
    },
    {
      "midi": 64,
      "hit": false,
      "t": 111678.70350000016,
      "d": 765.1190354166465,
      "v": 120
    },
    {
      "midi": 68,
      "hit": false,
      "t": 111678.70350000016,
      "d": 793.7947062499734,
      "v": 111
    },
    {
      "midi": 52,
      "hit": false,
      "t": 111991.52900000016,
      "d": 477.0588874999812,
      "v": 106
    },
    {
      "midi": 59,
      "hit": false,
      "t": 112304.35450000015,
      "d": 156.4127499999886,
      "v": 96
    },
    {
      "midi": 37,
      "hit": false,
      "t": 112617.18000000014,
      "d": 1637.120116666687,
      "v": 120
    },
    {
      "midi": 49,
      "hit": false,
      "t": 112617.18000000014,
      "d": 1637.120116666687,
      "v": 120
    },
    {
      "midi": 56,
      "hit": false,
      "t": 112930.00550000014,
      "d": 890.2492354166752,
      "v": 118
    },
    {
      "midi": 68,
      "hit": false,
      "t": 113242.83100000015,
      "d": 224.19160833333444,
      "v": 111
    },
    {
      "midi": 64,
      "hit": false,
      "t": 113242.83100000015,
      "d": 229.40536666667322,
      "v": 120
    },
    {
      "midi": 59,
      "hit": false,
      "t": 113242.83100000015,
      "d": 238.52944375001243,
      "v": 118
    },
    {
      "midi": 59,
      "hit": false,
      "t": 113555.65650000016,
      "d": 405.369710416664,
      "v": 118
    },
    {
      "midi": 64,
      "hit": false,
      "t": 113555.65650000016,
      "d": 409.28002916666446,
      "v": 120
    },
    {
      "midi": 68,
      "hit": false,
      "t": 113555.65650000016,
      "d": 419.70754583332746,
      "v": 118
    },
    {
      "midi": 56,
      "hit": false,
      "t": 113868.48200000015,
      "d": 384.51467708333803,
      "v": 92
    },
    {
      "midi": 59,
      "hit": false,
      "t": 114181.30750000016,
      "d": 486.182964583335,
      "v": 120
    },
    {
      "midi": 64,
      "hit": false,
      "t": 114181.30750000016,
      "d": 763.8155958333373,
      "v": 120
    },
    {
      "midi": 68,
      "hit": false,
      "t": 114181.30750000016,
      "d": 795.0981458333408,
      "v": 120
    },
    {
      "midi": 56,
      "hit": false,
      "t": 114494.13300000016,
      "d": 428.8316229166521,
      "v": 111
    },
    {
      "midi": 37,
      "hit": false,
      "t": 114494.13300000016,
      "d": 437.95569999999134,
      "v": 111
    },
    {
      "midi": 49,
      "hit": false,
      "t": 114494.13300000016,
      "d": 437.95569999999134,
      "v": 111
    },
    {
      "midi": 59,
      "hit": false,
      "t": 114806.95850000015,
      "d": 139.4680354166776,
      "v": 100
    },
    {
      "midi": 61,
      "hit": false,
      "t": 115119.78400000016,
      "d": 826.3806958333444,
      "v": 120
    },
    {
      "midi": 30,
      "hit": false,
      "t": 115119.78400000016,
      "d": 1094.8892500000075,
      "v": 117
    },
    {
      "midi": 42,
      "hit": false,
      "t": 115119.78400000016,
      "d": 1094.8892500000075,
      "v": 117
    },
    {
      "midi": 66,
      "hit": false,
      "t": 115119.78400000016,
      "d": 1402.500991666675,
      "v": 120
    },
    {
      "midi": 70,
      "hit": false,
      "t": 115119.78400000016,
      "d": 1402.500991666675,
      "v": 120
    },
    {
      "midi": 54,
      "hit": false,
      "t": 115432.60950000017,
      "d": 494.00360208333586,
      "v": 120
    },
    {
      "midi": 54,
      "hit": false,
      "t": 116058.26050000016,
      "d": 314.12893958333007,
      "v": 120
    },
    {
      "midi": 61,
      "hit": false,
      "t": 116058.26050000016,
      "d": 357.14244583333493,
      "v": 120
    },
    {
      "midi": 30,
      "hit": false,
      "t": 116683.91150000016,
      "d": 933.2627416666655,
      "v": 117
    },
    {
      "midi": 42,
      "hit": false,
      "t": 116683.91150000016,
      "d": 933.2627416666655,
      "v": 117
    },
    {
      "midi": 54,
      "hit": false,
      "t": 116683.91150000016,
      "d": 933.2627416666655,
      "v": 120
    },
    {
      "midi": 61,
      "hit": false,
      "t": 116683.91150000016,
      "d": 933.2627416666655,
      "v": 120
    },
    {
      "midi": 66,
      "hit": false,
      "t": 116683.91150000016,
      "d": 933.2627416666655,
      "v": 120
    },
    {
      "midi": 71,
      "hit": false,
      "t": 116683.91150000016,
      "d": 933.2627416666655,
      "v": 120
    },
    {
      "midi": 39,
      "hit": false,
      "t": 117622.38800000017,
      "d": 1558.9137416666636,
      "v": 117
    },
    {
      "midi": 51,
      "hit": false,
      "t": 117622.38800000017,
      "d": 1558.9137416666636,
      "v": 117
    },
    {
      "midi": 66,
      "hit": false,
      "t": 117622.38800000017,
      "d": 1558.9137416666636,
      "v": 120
    },
    {
      "midi": 70,
      "hit": false,
      "t": 117622.38800000017,
      "d": 1558.9137416666636,
      "v": 120
    },
    {
      "midi": 39,
      "hit": false,
      "t": 119186.51550000017,
      "d": 933.2627416666655,
      "v": 117
    },
    {
      "midi": 51,
      "hit": false,
      "t": 119186.51550000017,
      "d": 933.2627416666655,
      "v": 117
    },
    {
      "midi": 66,
      "hit": false,
      "t": 119186.51550000017,
      "d": 933.2627416666655,
      "v": 120
    },
    {
      "midi": 70,
      "hit": false,
      "t": 119186.51550000017,
      "d": 933.2627416666655,
      "v": 120
    },
    {
      "midi": 75,
      "hit": false,
      "t": 119186.51550000017,
      "d": 933.2627416666655,
      "v": 101
    },
    {
      "midi": 71,
      "hit": false,
      "t": 120124.99200000017,
      "d": 654.3266708333249,
      "v": 120
    },
    {
      "midi": 64,
      "hit": false,
      "t": 120124.99200000017,
      "d": 671.271385416665,
      "v": 118
    },
    {
      "midi": 68,
      "hit": false,
      "t": 120124.99200000017,
      "d": 686.9126604166668,
      "v": 120
    },
    {
      "midi": 28,
      "hit": false,
      "t": 120124.99200000017,
      "d": 931.9593020833272,
      "v": 120
    },
    {
      "midi": 40,
      "hit": false,
      "t": 120124.99200000017,
      "d": 931.9593020833272,
      "v": 120
    },
    {
      "midi": 52,
      "hit": false,
      "t": 120750.64300000017,
      "d": 1058.3929416666651,
      "v": 106
    },
    {
      "midi": 28,
      "hit": false,
      "t": 121063.46850000016,
      "d": 1244.7848020833335,
      "v": 120
    },
    {
      "midi": 40,
      "hit": false,
      "t": 121063.46850000016,
      "d": 1244.7848020833335,
      "v": 120
    },
    {
      "midi": 71,
      "hit": false,
      "t": 121063.46850000016,
      "d": 1470.2798500000063,
      "v": 106
    },
    {
      "midi": 64,
      "hit": false,
      "t": 121063.46850000016,
      "d": 1500.2589604166715,
      "v": 120
    },
    {
      "midi": 68,
      "hit": false,
      "t": 121063.46850000016,
      "d": 1504.169279166672,
      "v": 120
    },
    {
      "midi": 52,
      "hit": false,
      "t": 122001.94500000017,
      "d": 477.05888749999576,
      "v": 106
    },
    {
      "midi": 64,
      "hit": false,
      "t": 122627.59600000017,
      "d": 620.4372416666738,
      "v": 118
    },
    {
      "midi": 68,
      "hit": false,
      "t": 122627.59600000017,
      "d": 620.4372416666738,
      "v": 120
    },
    {
      "midi": 71,
      "hit": false,
      "t": 122627.59600000017,
      "d": 620.4372416666738,
      "v": 120
    },
    {
      "midi": 28,
      "hit": false,
      "t": 122627.59600000017,
      "d": 931.9593020833418,
      "v": 120
    },
    {
      "midi": 40,
      "hit": false,
      "t": 122627.59600000017,
      "d": 931.9593020833418,
      "v": 120
    },
    {
      "midi": 71,
      "hit": false,
      "t": 123253.24700000018,
      "d": 307.6117416666675,
      "v": 120
    },
    {
      "midi": 52,
      "hit": false,
      "t": 123253.24700000018,
      "d": 1058.3929416666651,
      "v": 106
    },
    {
      "midi": 73,
      "hit": false,
      "t": 123566.07250000018,
      "d": 531.803350000002,
      "v": 106
    },
    {
      "midi": 64,
      "hit": false,
      "t": 123566.07250000018,
      "d": 561.7824604166672,
      "v": 120
    },
    {
      "midi": 68,
      "hit": false,
      "t": 123566.07250000018,
      "d": 565.6927791666676,
      "v": 120
    },
    {
      "midi": 28,
      "hit": false,
      "t": 123566.07250000018,
      "d": 1401.1975520833075,
      "v": 120
    },
    {
      "midi": 40,
      "hit": false,
      "t": 123566.07250000018,
      "d": 1401.1975520833075,
      "v": 120
    },
    {
      "midi": 64,
      "hit": false,
      "t": 124191.72350000018,
      "d": 426.22474374999,
      "v": 120
    },
    {
      "midi": 68,
      "hit": false,
      "t": 124191.72350000018,
      "d": 765.1190354166465,
      "v": 120
    },
    {
      "midi": 75,
      "hit": false,
      "t": 124191.72350000018,
      "d": 793.7947062499734,
      "v": 111
    },
    {
      "midi": 52,
      "hit": false,
      "t": 124504.54900000017,
      "d": 477.0588874999812,
      "v": 106
    },
    {
      "midi": 64,
      "hit": false,
      "t": 124817.37450000017,
      "d": 156.4127499999886,
      "v": 96
    },
    {
      "midi": 44,
      "hit": false,
      "t": 125130.20000000016,
      "d": 2966.6284916666627,
      "v": 106
    },
    {
      "midi": 59,
      "hit": false,
      "t": 125130.20000000016,
      "d": 2966.6284916666627,
      "v": 106
    },
    {
      "midi": 63,
      "hit": false,
      "t": 125130.20000000016,
      "d": 2966.6284916666627,
      "v": 106
    },
    {
      "midi": 68,
      "hit": false,
      "t": 125130.20000000016,
      "d": 2966.6284916666627,
      "v": 106
    },
    {
      "midi": 59,
      "hit": false,
      "t": 128258.45500000015,
      "d": 245.04664166666043,
      "v": 120
    },
    {
      "midi": 56,
      "hit": false,
      "t": 128258.45500000015,
      "d": 250.2603999999992,
      "v": 120
    },
    {
      "midi": 63,
      "hit": false,
      "t": 128258.45500000015,
      "d": 252.86727916666132,
      "v": 105
    },
    {
      "midi": 56,
      "hit": false,
      "t": 128571.28050000014,
      "d": 423.6178645833279,
      "v": 106
    },
    {
      "midi": 63,
      "hit": false,
      "t": 128571.28050000014,
      "d": 423.6178645833279,
      "v": 78
    },
    {
      "midi": 61,
      "hit": false,
      "t": 128571.28050000014,
      "d": 426.22474374999,
      "v": 120
    },
    {
      "midi": 56,
      "hit": false,
      "t": 129196.93150000012,
      "d": 757.2983979166602,
      "v": 120
    },
    {
      "midi": 63,
      "hit": false,
      "t": 129196.93150000012,
      "d": 791.1878270833258,
      "v": 120
    },
    {
      "midi": 47,
      "hit": false,
      "t": 130135.40800000011,
      "d": 2810.215741666674,
      "v": 106
    },
    {
      "midi": 59,
      "hit": false,
      "t": 130135.40800000011,
      "d": 2810.215741666674,
      "v": 106
    },
    {
      "midi": 63,
      "hit": false,
      "t": 130135.40800000011,
      "d": 2810.215741666674,
      "v": 106
    },
    {
      "midi": 66,
      "hit": false,
      "t": 130135.40800000011,
      "d": 2810.215741666674,
      "v": 106
    },
    {
      "midi": 71,
      "hit": false,
      "t": 133263.66300000012,
      "d": 151.19899166666437,
      "v": 111
    },
    {
      "midi": 66,
      "hit": false,
      "t": 133263.66300000012,
      "d": 165.5368270833278,
      "v": 111
    },
    {
      "midi": 63,
      "hit": false,
      "t": 133263.66300000012,
      "d": 173.3574645833287,
      "v": 120
    },
    {
      "midi": 66,
      "hit": false,
      "t": 133576.48850000012,
      "d": 494.00360208333586,
      "v": 120
    },
    {
      "midi": 73,
      "hit": false,
      "t": 133576.48850000012,
      "d": 496.6104812500125,
      "v": 120
    },
    {
      "midi": 75,
      "hit": false,
      "t": 134202.13950000014,
      "d": 656.933549999987,
      "v": 115
    },
    {
      "midi": 66,
      "hit": false,
      "t": 134202.13950000014,
      "d": 709.0711333333165,
      "v": 120
    },
    {
      "midi": 42,
      "hit": false,
      "t": 135140.61600000013,
      "d": 3435.8667416666576,
      "v": 106
    },
    {
      "midi": 66,
      "hit": false,
      "t": 135140.61600000013,
      "d": 3435.8667416666576,
      "v": 106
    },
    {
      "midi": 70,
      "hit": false,
      "t": 135140.61600000013,
      "d": 3435.8667416666576,
      "v": 106
    },
    {
      "midi": 73,
      "hit": false,
      "t": 135140.61600000013,
      "d": 3435.8667416666576,
      "v": 106
    },
    {
      "midi": 42,
      "hit": false,
      "t": 138894.5220000001,
      "d": 1246.0882416666718,
      "v": 106
    },
    {
      "midi": 70,
      "hit": false,
      "t": 138894.5220000001,
      "d": 1246.0882416666718,
      "v": 106
    },
    {
      "midi": 73,
      "hit": false,
      "t": 138894.5220000001,
      "d": 1246.0882416666718,
      "v": 106
    },
    {
      "midi": 78,
      "hit": false,
      "t": 138894.5220000001,
      "d": 1246.0882416666718,
      "v": 106
    },
    {
      "midi": 59,
      "hit": false,
      "t": 140145.8240000001,
      "d": 2340.9774916666793,
      "v": 106
    },
    {
      "midi": 64,
      "hit": false,
      "t": 140145.8240000001,
      "d": 2340.9774916666793,
      "v": 106
    },
    {
      "midi": 68,
      "hit": false,
      "t": 140145.8240000001,
      "d": 2340.9774916666793,
      "v": 106
    },
    {
      "midi": 40,
      "hit": false,
      "t": 140145.8240000001,
      "d": 4374.343241666647,
      "v": 106
    },
    {
      "midi": 95,
      "hit": false,
      "t": 142492.01524999997,
      "d": 66.47541874999297,
      "v": 58
    },
    {
      "midi": 95,
      "hit": false,
      "t": 142804.84074999997,
      "d": 63.86853958334541,
      "v": 44
    },
    {
      "midi": 95,
      "hit": false,
      "t": 142961.2535,
      "d": 37.79974791666609,
      "v": 70
    },
    {
      "midi": 68,
      "hit": false,
      "t": 142961.2535000001,
      "d": 185.08842083334457,
      "v": 81
    },
    {
      "midi": 64,
      "hit": false,
      "t": 142961.2535000001,
      "d": 293.2739062500186,
      "v": 69
    },
    {
      "midi": 95,
      "hit": false,
      "t": 143117.66624999998,
      "d": 71.6891770833463,
      "v": 85
    },
    {
      "midi": 95,
      "hit": false,
      "t": 143274.079,
      "d": 58.654781249992084,
      "v": 104
    },
    {
      "midi": 68,
      "hit": false,
      "t": 143274.0790000001,
      "d": 205.94345416667056,
      "v": 120
    },
    {
      "midi": 64,
      "hit": false,
      "t": 143274.0790000001,
      "d": 212.46065208333312,
      "v": 111
    },
    {
      "midi": 71,
      "hit": false,
      "t": 143274.0790000001,
      "d": 324.55645624999306,
      "v": 101
    },
    {
      "midi": 95,
      "hit": false,
      "t": 143430.49175,
      "d": 80.8132541666564,
      "v": 92
    },
    {
      "midi": 95,
      "hit": false,
      "t": 143586.90449999998,
      "d": 70.38573750000796,
      "v": 122
    },
    {
      "midi": 64,
      "hit": false,
      "t": 143586.90450000012,
      "d": 620.4372416666592,
      "v": 120
    },
    {
      "midi": 68,
      "hit": false,
      "t": 143586.90450000012,
      "d": 620.4372416666592,
      "v": 120
    },
    {
      "midi": 73,
      "hit": false,
      "t": 143586.90450000012,
      "d": 620.4372416666592,
      "v": 111
    },
    {
      "midi": 95,
      "hit": false,
      "t": 143743.31725,
      "d": 76.90293541667052,
      "v": 108
    },
    {
      "midi": 95,
      "hit": false,
      "t": 143899.73,
      "d": 84.7235729166714,
      "v": 127
    },
    {
      "midi": 95,
      "hit": false,
      "t": 144056.14275000003,
      "d": 82.11669374999474,
      "v": 108
    },
    {
      "midi": 95,
      "hit": false,
      "t": 144212.55550000002,
      "d": 100.36484791667317,
      "v": 127
    },
    {
      "midi": 64,
      "hit": false,
      "t": 144212.5555000001,
      "d": 933.2627416666655,
      "v": 120
    },
    {
      "midi": 68,
      "hit": false,
      "t": 144212.5555000001,
      "d": 933.2627416666655,
      "v": 120
    },
    {
      "midi": 75,
      "hit": false,
      "t": 144212.5555000001,
      "d": 933.2627416666655,
      "v": 111
    },
    {
      "midi": 95,
      "hit": false,
      "t": 144368.96825000003,
      "d": 91.24077083333395,
      "v": 100
    },
    {
      "midi": 95,
      "hit": false,
      "t": 144525.38100000002,
      "d": 75.59949583333218,
      "v": 89
    },
    {
      "midi": 95,
      "hit": false,
      "t": 144681.79375,
      "d": 116.00612291667494,
      "v": 92
    },
    {
      "midi": 95,
      "hit": false,
      "t": 144838.20650000003,
      "d": 65.17197916665464,
      "v": 65
    },
    {
      "midi": 95,
      "hit": false,
      "t": 144994.61925000002,
      "d": 100.36484791667317,
      "v": 85
    },
    {
      "midi": 44,
      "hit": false,
      "t": 145151.0320000001,
      "d": 2497.390241666668,
      "v": 106
    },
    {
      "midi": 63,
      "hit": false,
      "t": 145151.0320000001,
      "d": 2497.390241666668,
      "v": 106
    },
    {
      "midi": 68,
      "hit": false,
      "t": 145151.0320000001,
      "d": 2497.390241666668,
      "v": 106
    },
    {
      "midi": 71,
      "hit": false,
      "t": 145151.0320000001,
      "d": 2497.390241666668,
      "v": 106
    },
    {
      "midi": 47,
      "hit": false,
      "t": 147653.6360000001,
      "d": 1558.913741666678,
      "v": 106
    },
    {
      "midi": 66,
      "hit": false,
      "t": 147653.6360000001,
      "d": 1558.913741666678,
      "v": 106
    },
    {
      "midi": 71,
      "hit": false,
      "t": 147653.6360000001,
      "d": 1558.913741666678,
      "v": 106
    },
    {
      "midi": 75,
      "hit": false,
      "t": 147653.6360000001,
      "d": 1558.913741666678,
      "v": 106
    },
    {
      "midi": 47,
      "hit": false,
      "t": 149217.7635000001,
      "d": 933.2627416666655,
      "v": 106
    },
    {
      "midi": 66,
      "hit": false,
      "t": 149217.7635000001,
      "d": 933.2627416666655,
      "v": 106
    },
    {
      "midi": 71,
      "hit": false,
      "t": 149217.7635000001,
      "d": 933.2627416666655,
      "v": 106
    },
    {
      "midi": 75,
      "hit": false,
      "t": 149217.7635000001,
      "d": 933.2627416666655,
      "v": 106
    },
    {
      "midi": 42,
      "hit": false,
      "t": 150156.24000000008,
      "d": 1558.913741666678,
      "v": 106
    },
    {
      "midi": 66,
      "hit": false,
      "t": 150156.24000000008,
      "d": 1558.913741666678,
      "v": 106
    },
    {
      "midi": 70,
      "hit": false,
      "t": 150156.24000000008,
      "d": 1558.913741666678,
      "v": 106
    },
    {
      "midi": 73,
      "hit": false,
      "t": 150156.24000000008,
      "d": 1558.913741666678,
      "v": 106
    },
    {
      "midi": 42,
      "hit": false,
      "t": 151720.36750000008,
      "d": 933.2627416666655,
      "v": 106
    },
    {
      "midi": 66,
      "hit": false,
      "t": 151720.36750000008,
      "d": 933.2627416666655,
      "v": 106
    },
    {
      "midi": 70,
      "hit": false,
      "t": 151720.36750000008,
      "d": 933.2627416666655,
      "v": 106
    },
    {
      "midi": 73,
      "hit": false,
      "t": 151720.36750000008,
      "d": 933.2627416666655,
      "v": 106
    },
    {
      "midi": 40,
      "hit": false,
      "t": 152658.84400000007,
      "d": 2497.390241666668,
      "v": 106
    },
    {
      "midi": 59,
      "hit": false,
      "t": 152658.84400000007,
      "d": 2497.390241666668,
      "v": 106
    },
    {
      "midi": 64,
      "hit": false,
      "t": 152658.84400000007,
      "d": 2497.390241666668,
      "v": 106
    },
    {
      "midi": 68,
      "hit": false,
      "t": 152658.84400000007,
      "d": 2497.390241666668,
      "v": 106
    },
    {
      "midi": 44,
      "hit": false,
      "t": 155161.44800000006,
      "d": 1558.913741666678,
      "v": 106
    },
    {
      "midi": 59,
      "hit": false,
      "t": 155161.44800000006,
      "d": 1558.913741666678,
      "v": 106
    },
    {
      "midi": 63,
      "hit": false,
      "t": 155161.44800000006,
      "d": 1558.913741666678,
      "v": 106
    },
    {
      "midi": 68,
      "hit": false,
      "t": 155161.44800000006,
      "d": 1558.913741666678,
      "v": 106
    },
    {
      "midi": 44,
      "hit": false,
      "t": 156725.57550000006,
      "d": 933.2627416666655,
      "v": 106
    },
    {
      "midi": 59,
      "hit": false,
      "t": 156725.57550000006,
      "d": 933.2627416666655,
      "v": 106
    },
    {
      "midi": 63,
      "hit": false,
      "t": 156725.57550000006,
      "d": 933.2627416666655,
      "v": 106
    },
    {
      "midi": 68,
      "hit": false,
      "t": 156725.57550000006,
      "d": 933.2627416666655,
      "v": 106
    },
    {
      "midi": 47,
      "hit": false,
      "t": 157664.05200000005,
      "d": 1558.913741666678,
      "v": 106
    },
    {
      "midi": 63,
      "hit": false,
      "t": 157664.05200000005,
      "d": 1558.913741666678,
      "v": 106
    },
    {
      "midi": 66,
      "hit": false,
      "t": 157664.05200000005,
      "d": 1558.913741666678,
      "v": 106
    },
    {
      "midi": 71,
      "hit": false,
      "t": 157664.05200000005,
      "d": 1558.913741666678,
      "v": 106
    },
    {
      "midi": 47,
      "hit": false,
      "t": 159228.17950000006,
      "d": 933.2627416666655,
      "v": 106
    },
    {
      "midi": 63,
      "hit": false,
      "t": 159228.17950000006,
      "d": 933.2627416666655,
      "v": 106
    },
    {
      "midi": 66,
      "hit": false,
      "t": 159228.17950000006,
      "d": 933.2627416666655,
      "v": 106
    },
    {
      "midi": 71,
      "hit": false,
      "t": 159228.17950000006,
      "d": 933.2627416666655,
      "v": 106
    },
    {
      "midi": 42,
      "hit": false,
      "t": 160166.65600000005,
      "d": 2497.390241666668,
      "v": 106
    },
    {
      "midi": 61,
      "hit": false,
      "t": 160166.65600000005,
      "d": 2497.390241666668,
      "v": 106
    },
    {
      "midi": 66,
      "hit": false,
      "t": 160166.65600000005,
      "d": 2497.390241666668,
      "v": 106
    },
    {
      "midi": 70,
      "hit": false,
      "t": 160166.65600000005,
      "d": 2497.390241666668,
      "v": 106
    },
    {
      "midi": 40,
      "hit": false,
      "t": 162669.26000000004,
      "d": 2497.390241666668,
      "v": 106
    },
    {
      "midi": 59,
      "hit": false,
      "t": 162669.26000000004,
      "d": 2497.390241666668,
      "v": 106
    },
    {
      "midi": 64,
      "hit": false,
      "t": 162669.26000000004,
      "d": 2497.390241666668,
      "v": 106
    },
    {
      "midi": 68,
      "hit": false,
      "t": 162669.26000000004,
      "d": 2497.390241666668,
      "v": 106
    },
    {
      "midi": 44,
      "hit": false,
      "t": 165171.86400000003,
      "d": 2497.390241666668,
      "v": 106
    },
    {
      "midi": 63,
      "hit": false,
      "t": 165171.86400000003,
      "d": 2497.390241666668,
      "v": 106
    },
    {
      "midi": 68,
      "hit": false,
      "t": 165171.86400000003,
      "d": 2497.390241666668,
      "v": 106
    },
    {
      "midi": 71,
      "hit": false,
      "t": 165171.86400000003,
      "d": 2497.390241666668,
      "v": 106
    },
    {
      "midi": 47,
      "hit": false,
      "t": 167674.46800000002,
      "d": 1558.913741666678,
      "v": 106
    },
    {
      "midi": 66,
      "hit": false,
      "t": 167674.46800000002,
      "d": 1558.913741666678,
      "v": 106
    },
    {
      "midi": 71,
      "hit": false,
      "t": 167674.46800000002,
      "d": 1558.913741666678,
      "v": 106
    },
    {
      "midi": 75,
      "hit": false,
      "t": 167674.46800000002,
      "d": 1558.913741666678,
      "v": 106
    },
    {
      "midi": 47,
      "hit": false,
      "t": 169238.59550000002,
      "d": 933.2627416666655,
      "v": 106
    },
    {
      "midi": 66,
      "hit": false,
      "t": 169238.59550000002,
      "d": 933.2627416666655,
      "v": 106
    },
    {
      "midi": 71,
      "hit": false,
      "t": 169238.59550000002,
      "d": 933.2627416666655,
      "v": 106
    },
    {
      "midi": 75,
      "hit": false,
      "t": 169238.59550000002,
      "d": 933.2627416666655,
      "v": 106
    },
    {
      "midi": 42,
      "hit": false,
      "t": 170177.07200000001,
      "d": 1558.913741666678,
      "v": 106
    },
    {
      "midi": 66,
      "hit": false,
      "t": 170177.07200000001,
      "d": 1558.913741666678,
      "v": 106
    },
    {
      "midi": 70,
      "hit": false,
      "t": 170177.07200000001,
      "d": 1558.913741666678,
      "v": 106
    },
    {
      "midi": 73,
      "hit": false,
      "t": 170177.07200000001,
      "d": 1558.913741666678,
      "v": 106
    },
    {
      "midi": 42,
      "hit": false,
      "t": 171741.19950000002,
      "d": 933.2627416666655,
      "v": 106
    },
    {
      "midi": 66,
      "hit": false,
      "t": 171741.19950000002,
      "d": 933.2627416666655,
      "v": 106
    },
    {
      "midi": 70,
      "hit": false,
      "t": 171741.19950000002,
      "d": 933.2627416666655,
      "v": 106
    },
    {
      "midi": 73,
      "hit": false,
      "t": 171741.19950000002,
      "d": 933.2627416666655,
      "v": 106
    },
    {
      "midi": 40,
      "hit": false,
      "t": 172679.676,
      "d": 2497.390241666668,
      "v": 106
    },
    {
      "midi": 59,
      "hit": false,
      "t": 172679.676,
      "d": 2497.390241666668,
      "v": 106
    },
    {
      "midi": 64,
      "hit": false,
      "t": 172679.676,
      "d": 2497.390241666668,
      "v": 106
    },
    {
      "midi": 68,
      "hit": false,
      "t": 172679.676,
      "d": 2497.390241666668,
      "v": 106
    },
    {
      "midi": 44,
      "hit": false,
      "t": 175182.28,
      "d": 1558.913741666678,
      "v": 106
    },
    {
      "midi": 59,
      "hit": false,
      "t": 175182.28,
      "d": 1558.913741666678,
      "v": 106
    },
    {
      "midi": 63,
      "hit": false,
      "t": 175182.28,
      "d": 1558.913741666678,
      "v": 106
    },
    {
      "midi": 68,
      "hit": false,
      "t": 175182.28,
      "d": 1558.913741666678,
      "v": 106
    },
    {
      "midi": 44,
      "hit": false,
      "t": 176746.4075,
      "d": 933.2627416666655,
      "v": 106
    },
    {
      "midi": 59,
      "hit": false,
      "t": 176746.4075,
      "d": 933.2627416666655,
      "v": 106
    },
    {
      "midi": 63,
      "hit": false,
      "t": 176746.4075,
      "d": 933.2627416666655,
      "v": 106
    },
    {
      "midi": 68,
      "hit": false,
      "t": 176746.4075,
      "d": 933.2627416666655,
      "v": 106
    },
    {
      "midi": 47,
      "hit": false,
      "t": 177684.884,
      "d": 1558.913741666678,
      "v": 106
    },
    {
      "midi": 63,
      "hit": false,
      "t": 177684.884,
      "d": 1558.913741666678,
      "v": 106
    },
    {
      "midi": 66,
      "hit": false,
      "t": 177684.884,
      "d": 1558.913741666678,
      "v": 106
    },
    {
      "midi": 71,
      "hit": false,
      "t": 177684.884,
      "d": 1558.913741666678,
      "v": 106
    },
    {
      "midi": 47,
      "hit": false,
      "t": 179249.0115,
      "d": 933.2627416666655,
      "v": 106
    },
    {
      "midi": 63,
      "hit": false,
      "t": 179249.0115,
      "d": 933.2627416666655,
      "v": 106
    },
    {
      "midi": 66,
      "hit": false,
      "t": 179249.0115,
      "d": 933.2627416666655,
      "v": 106
    },
    {
      "midi": 71,
      "hit": false,
      "t": 179249.0115,
      "d": 933.2627416666655,
      "v": 106
    },
    {
      "midi": 42,
      "hit": false,
      "t": 180187.48799999998,
      "d": 2497.390241666668,
      "v": 106
    },
    {
      "midi": 61,
      "hit": false,
      "t": 180187.48799999998,
      "d": 2497.390241666668,
      "v": 106
    },
    {
      "midi": 66,
      "hit": false,
      "t": 180187.48799999998,
      "d": 2497.390241666668,
      "v": 106
    },
    {
      "midi": 70,
      "hit": false,
      "t": 180187.48799999998,
      "d": 2497.390241666668,
      "v": 106
    },
    {
      "midi": 40,
      "hit": false,
      "t": 182690.09199999998,
      "d": 2497.390241666668,
      "v": 106
    },
    {
      "midi": 59,
      "hit": false,
      "t": 182690.09199999998,
      "d": 2497.390241666668,
      "v": 106
    },
    {
      "midi": 64,
      "hit": false,
      "t": 182690.09199999998,
      "d": 2497.390241666668,
      "v": 106
    },
    {
      "midi": 68,
      "hit": false,
      "t": 182690.09199999998,
      "d": 2497.390241666668,
      "v": 106
    },
    {
      "midi": 40,
      "hit": false,
      "t": 185192.69599999997,
      "d": 2359.225645833387,
      "v": 120
    },
    {
      "midi": 52,
      "hit": false,
      "t": 185505.52149999997,
      "d": 715.5883312500082,
      "v": 120
    },
    {
      "midi": 59,
      "hit": false,
      "t": 185818.34699999998,
      "d": 591.7615708333324,
      "v": 120
    },
    {
      "midi": 64,
      "hit": false,
      "t": 186131.1725,
      "d": 435.3488208333438,
      "v": 120
    },
    {
      "midi": 52,
      "hit": false,
      "t": 186443.998,
      "d": 428.8316229166812,
      "v": 120
    },
    {
      "midi": 68,
      "hit": false,
      "t": 186756.8235,
      "d": 788.5809479166928,
      "v": 120
    },
    {
      "midi": 52,
      "hit": false,
      "t": 187069.649,
      "d": 619.13380208335,
      "v": 120
    },
    {
      "midi": 59,
      "hit": false,
      "t": 187382.4745,
      "d": 200.72969583334634,
      "v": 120
    },
    {
      "midi": 61,
      "hit": false,
      "t": 187695.30000000002,
      "d": 826.3806958333298,
      "v": 120
    },
    {
      "midi": 30,
      "hit": false,
      "t": 187695.30000000002,
      "d": 1094.8892499999783,
      "v": 117
    },
    {
      "midi": 42,
      "hit": false,
      "t": 187695.30000000002,
      "d": 1094.8892499999783,
      "v": 117
    },
    {
      "midi": 66,
      "hit": false,
      "t": 187695.30000000002,
      "d": 1402.5009916666313,
      "v": 120
    },
    {
      "midi": 70,
      "hit": false,
      "t": 187695.30000000002,
      "d": 1402.5009916666313,
      "v": 120
    },
    {
      "midi": 54,
      "hit": false,
      "t": 188008.12550000002,
      "d": 494.00360208333586,
      "v": 120
    },
    {
      "midi": 54,
      "hit": false,
      "t": 188633.7765,
      "d": 314.1289395833155,
      "v": 120
    },
    {
      "midi": 61,
      "hit": false,
      "t": 188633.7765,
      "d": 357.1424458333058,
      "v": 120
    },
    {
      "midi": 30,
      "hit": false,
      "t": 189259.4275,
      "d": 933.2627416666655,
      "v": 117
    },
    {
      "midi": 42,
      "hit": false,
      "t": 189259.4275,
      "d": 933.2627416666655,
      "v": 117
    },
    {
      "midi": 54,
      "hit": false,
      "t": 189259.4275,
      "d": 933.2627416666655,
      "v": 120
    },
    {
      "midi": 61,
      "hit": false,
      "t": 189259.4275,
      "d": 933.2627416666655,
      "v": 120
    },
    {
      "midi": 66,
      "hit": false,
      "t": 189259.4275,
      "d": 933.2627416666655,
      "v": 120
    },
    {
      "midi": 71,
      "hit": false,
      "t": 189259.4275,
      "d": 933.2627416666655,
      "v": 120
    },
    {
      "midi": 70,
      "hit": false,
      "t": 190197.90399999998,
      "d": 471.84512916667154,
      "v": 120
    },
    {
      "midi": 66,
      "hit": false,
      "t": 190197.90399999998,
      "d": 595.6718895833474,
      "v": 120
    },
    {
      "midi": 54,
      "hit": false,
      "t": 190197.90399999998,
      "d": 606.0994062500249,
      "v": 120
    },
    {
      "midi": 30,
      "hit": false,
      "t": 190197.90399999998,
      "d": 782.0637500000012,
      "v": 117
    },
    {
      "midi": 42,
      "hit": false,
      "t": 190197.90399999998,
      "d": 782.0637500000012,
      "v": 117
    },
    {
      "midi": 61,
      "hit": false,
      "t": 190510.7295,
      "d": 329.7702145833464,
      "v": 111
    },
    {
      "midi": 66,
      "hit": false,
      "t": 190823.555,
      "d": 67.7788583333313,
      "v": 81
    },
    {
      "midi": 66,
      "hit": false,
      "t": 191136.38049999997,
      "d": 505.73455833332264,
      "v": 120
    },
    {
      "midi": 54,
      "hit": false,
      "t": 191136.38049999997,
      "d": 680.3954624999897,
      "v": 120
    },
    {
      "midi": 71,
      "hit": false,
      "t": 191136.38049999997,
      "d": 724.7124083333183,
      "v": 120
    },
    {
      "midi": 61,
      "hit": false,
      "t": 191136.38049999997,
      "d": 727.319287499995,
      "v": 118
    },
    {
      "midi": 30,
      "hit": false,
      "t": 191136.38049999997,
      "d": 782.0637500000012,
      "v": 117
    },
    {
      "midi": 42,
      "hit": false,
      "t": 191136.38049999997,
      "d": 782.0637500000012,
      "v": 117
    },
    {
      "midi": 66,
      "hit": false,
      "t": 191762.03149999995,
      "d": 245.046641666675,
      "v": 60
    },
    {
      "midi": 54,
      "hit": false,
      "t": 192074.85699999996,
      "d": 620.4372416666592,
      "v": 120
    },
    {
      "midi": 61,
      "hit": false,
      "t": 192074.85699999996,
      "d": 620.4372416666592,
      "v": 120
    },
    {
      "midi": 66,
      "hit": false,
      "t": 192074.85699999996,
      "d": 620.4372416666592,
      "v": 120
    },
    {
      "midi": 70,
      "hit": false,
      "t": 192074.85699999996,
      "d": 620.4372416666592,
      "v": 120
    },
    {
      "midi": 30,
      "hit": false,
      "t": 192074.85699999996,
      "d": 625.6509999999835,
      "v": 117
    },
    {
      "midi": 42,
      "hit": false,
      "t": 192074.85699999996,
      "d": 625.6509999999835,
      "v": 117
    },
    {
      "midi": 68,
      "hit": false,
      "t": 192700.50799999994,
      "d": 654.3266708333394,
      "v": 120
    },
    {
      "midi": 59,
      "hit": false,
      "t": 192700.50799999994,
      "d": 671.2713854166795,
      "v": 118
    },
    {
      "midi": 64,
      "hit": false,
      "t": 192700.50799999994,
      "d": 686.9126604166813,
      "v": 120
    },
    {
      "midi": 28,
      "hit": false,
      "t": 192700.50799999994,
      "d": 2339.67405208337,
      "v": 120
    },
    {
      "midi": 40,
      "hit": false,
      "t": 192700.50799999994,
      "d": 2339.67405208337,
      "v": 120
    },
    {
      "midi": 52,
      "hit": false,
      "t": 193326.15899999996,
      "d": 1058.3929416666506,
      "v": 106
    },
    {
      "midi": 68,
      "hit": false,
      "t": 193638.98449999996,
      "d": 531.803350000002,
      "v": 106
    },
    {
      "midi": 59,
      "hit": false,
      "t": 193638.98449999996,
      "d": 561.7824604166672,
      "v": 120
    },
    {
      "midi": 64,
      "hit": false,
      "t": 193638.98449999996,
      "d": 565.692779166653,
      "v": 120
    },
    {
      "midi": 59,
      "hit": false,
      "t": 194264.63549999995,
      "d": 426.22474375000456,
      "v": 120
    },
    {
      "midi": 64,
      "hit": false,
      "t": 194264.63549999995,
      "d": 765.1190354166902,
      "v": 120
    },
    {
      "midi": 68,
      "hit": false,
      "t": 194264.63549999995,
      "d": 793.794706250017,
      "v": 111
    },
    {
      "midi": 52,
      "hit": false,
      "t": 194577.46099999995,
      "d": 477.05888750002487,
      "v": 106
    },
    {
      "midi": 59,
      "hit": false,
      "t": 194890.28649999996,
      "d": 156.4127500000177,
      "v": 96
    },
    {
      "midi": 37,
      "hit": false,
      "t": 195203.11199999996,
      "d": 1637.120116666687,
      "v": 120
    },
    {
      "midi": 49,
      "hit": false,
      "t": 195203.11199999996,
      "d": 1637.120116666687,
      "v": 120
    },
    {
      "midi": 56,
      "hit": false,
      "t": 195515.93749999997,
      "d": 890.2492354166461,
      "v": 118
    },
    {
      "midi": 68,
      "hit": false,
      "t": 195828.76299999998,
      "d": 224.1916083333199,
      "v": 111
    },
    {
      "midi": 64,
      "hit": false,
      "t": 195828.76299999998,
      "d": 229.4053666666441,
      "v": 120
    },
    {
      "midi": 59,
      "hit": false,
      "t": 195828.76299999998,
      "d": 238.52944374998333,
      "v": 118
    },
    {
      "midi": 59,
      "hit": false,
      "t": 196141.58849999995,
      "d": 405.3697104166786,
      "v": 118
    },
    {
      "midi": 64,
      "hit": false,
      "t": 196141.58849999995,
      "d": 409.28002916666446,
      "v": 120
    },
    {
      "midi": 68,
      "hit": false,
      "t": 196141.58849999995,
      "d": 419.707545833342,
      "v": 118
    },
    {
      "midi": 56,
      "hit": false,
      "t": 196454.41399999996,
      "d": 384.5146770833526,
      "v": 92
    },
    {
      "midi": 59,
      "hit": false,
      "t": 196767.23949999997,
      "d": 486.182964583335,
      "v": 120
    },
    {
      "midi": 64,
      "hit": false,
      "t": 196767.23949999997,
      "d": 763.8155958333518,
      "v": 120
    },
    {
      "midi": 68,
      "hit": false,
      "t": 196767.23949999997,
      "d": 795.0981458333554,
      "v": 120
    },
    {
      "midi": 56,
      "hit": false,
      "t": 197080.06499999997,
      "d": 428.8316229166812,
      "v": 111
    },
    {
      "midi": 37,
      "hit": false,
      "t": 197080.06499999997,
      "d": 437.95570000002044,
      "v": 111
    },
    {
      "midi": 49,
      "hit": false,
      "t": 197080.06499999997,
      "d": 437.95570000002044,
      "v": 111
    },
    {
      "midi": 59,
      "hit": false,
      "t": 197392.89049999998,
      "d": 139.4680354166776,
      "v": 100
    },
    {
      "midi": 61,
      "hit": false,
      "t": 197705.716,
      "d": 826.3806958333298,
      "v": 120
    },
    {
      "midi": 30,
      "hit": false,
      "t": 197705.716,
      "d": 1094.8892499999783,
      "v": 117
    },
    {
      "midi": 42,
      "hit": false,
      "t": 197705.716,
      "d": 1094.8892499999783,
      "v": 117
    },
    {
      "midi": 66,
      "hit": false,
      "t": 197705.716,
      "d": 1402.5009916666313,
      "v": 120
    },
    {
      "midi": 70,
      "hit": false,
      "t": 197705.716,
      "d": 1402.5009916666313,
      "v": 120
    },
    {
      "midi": 54,
      "hit": false,
      "t": 198018.5415,
      "d": 494.00360208333586,
      "v": 120
    },
    {
      "midi": 54,
      "hit": false,
      "t": 198644.19249999998,
      "d": 314.1289395833155,
      "v": 120
    },
    {
      "midi": 61,
      "hit": false,
      "t": 198644.19249999998,
      "d": 357.1424458333058,
      "v": 120
    },
    {
      "midi": 30,
      "hit": false,
      "t": 199269.84349999996,
      "d": 933.2627416666655,
      "v": 117
    },
    {
      "midi": 42,
      "hit": false,
      "t": 199269.84349999996,
      "d": 933.2627416666655,
      "v": 117
    },
    {
      "midi": 54,
      "hit": false,
      "t": 199269.84349999996,
      "d": 933.2627416666655,
      "v": 120
    },
    {
      "midi": 61,
      "hit": false,
      "t": 199269.84349999996,
      "d": 933.2627416666655,
      "v": 120
    },
    {
      "midi": 66,
      "hit": false,
      "t": 199269.84349999996,
      "d": 933.2627416666655,
      "v": 120
    },
    {
      "midi": 71,
      "hit": false,
      "t": 199269.84349999996,
      "d": 933.2627416666655,
      "v": 120
    },
    {
      "midi": 70,
      "hit": false,
      "t": 200208.31999999995,
      "d": 471.84512916667154,
      "v": 120
    },
    {
      "midi": 66,
      "hit": false,
      "t": 200208.31999999995,
      "d": 595.6718895833474,
      "v": 120
    },
    {
      "midi": 54,
      "hit": false,
      "t": 200208.31999999995,
      "d": 606.0994062500249,
      "v": 120
    },
    {
      "midi": 30,
      "hit": false,
      "t": 200208.31999999995,
      "d": 782.0637500000012,
      "v": 117
    },
    {
      "midi": 42,
      "hit": false,
      "t": 200208.31999999995,
      "d": 782.0637500000012,
      "v": 117
    },
    {
      "midi": 61,
      "hit": false,
      "t": 200521.14549999996,
      "d": 329.7702145833464,
      "v": 111
    },
    {
      "midi": 66,
      "hit": false,
      "t": 200833.97099999996,
      "d": 67.7788583333313,
      "v": 81
    },
    {
      "midi": 66,
      "hit": false,
      "t": 201146.79649999994,
      "d": 505.73455833332264,
      "v": 120
    },
    {
      "midi": 54,
      "hit": false,
      "t": 201146.79649999994,
      "d": 680.3954624999897,
      "v": 120
    },
    {
      "midi": 71,
      "hit": false,
      "t": 201146.79649999994,
      "d": 724.7124083333183,
      "v": 120
    },
    {
      "midi": 61,
      "hit": false,
      "t": 201146.79649999994,
      "d": 727.319287499995,
      "v": 118
    },
    {
      "midi": 30,
      "hit": false,
      "t": 201146.79649999994,
      "d": 782.0637500000012,
      "v": 117
    },
    {
      "midi": 42,
      "hit": false,
      "t": 201146.79649999994,
      "d": 782.0637500000012,
      "v": 117
    },
    {
      "midi": 66,
      "hit": false,
      "t": 201772.44749999992,
      "d": 245.046641666675,
      "v": 60
    },
    {
      "midi": 54,
      "hit": false,
      "t": 202085.27299999993,
      "d": 620.4372416666592,
      "v": 120
    },
    {
      "midi": 61,
      "hit": false,
      "t": 202085.27299999993,
      "d": 620.4372416666592,
      "v": 120
    },
    {
      "midi": 66,
      "hit": false,
      "t": 202085.27299999993,
      "d": 620.4372416666592,
      "v": 120
    },
    {
      "midi": 70,
      "hit": false,
      "t": 202085.27299999993,
      "d": 620.4372416666592,
      "v": 120
    },
    {
      "midi": 30,
      "hit": false,
      "t": 202085.27299999993,
      "d": 625.6509999999835,
      "v": 117
    },
    {
      "midi": 42,
      "hit": false,
      "t": 202085.27299999993,
      "d": 625.6509999999835,
      "v": 117
    },
    {
      "midi": 68,
      "hit": false,
      "t": 202710.9239999999,
      "d": 654.3266708333394,
      "v": 120
    },
    {
      "midi": 59,
      "hit": false,
      "t": 202710.9239999999,
      "d": 671.2713854166795,
      "v": 118
    },
    {
      "midi": 64,
      "hit": false,
      "t": 202710.9239999999,
      "d": 686.9126604166813,
      "v": 120
    },
    {
      "midi": 28,
      "hit": false,
      "t": 202710.9239999999,
      "d": 2339.67405208337,
      "v": 120
    },
    {
      "midi": 40,
      "hit": false,
      "t": 202710.9239999999,
      "d": 2339.67405208337,
      "v": 120
    },
    {
      "midi": 52,
      "hit": false,
      "t": 203336.57499999992,
      "d": 1058.3929416666506,
      "v": 106
    },
    {
      "midi": 68,
      "hit": false,
      "t": 203649.40049999993,
      "d": 531.803350000002,
      "v": 106
    },
    {
      "midi": 59,
      "hit": false,
      "t": 203649.40049999993,
      "d": 561.7824604166672,
      "v": 120
    },
    {
      "midi": 64,
      "hit": false,
      "t": 203649.40049999993,
      "d": 565.692779166653,
      "v": 120
    },
    {
      "midi": 59,
      "hit": false,
      "t": 204275.0514999999,
      "d": 426.22474375000456,
      "v": 120
    },
    {
      "midi": 64,
      "hit": false,
      "t": 204275.0514999999,
      "d": 765.1190354166902,
      "v": 120
    },
    {
      "midi": 68,
      "hit": false,
      "t": 204275.0514999999,
      "d": 793.794706250017,
      "v": 111
    },
    {
      "midi": 52,
      "hit": false,
      "t": 204587.87699999992,
      "d": 477.05888750002487,
      "v": 106
    },
    {
      "midi": 59,
      "hit": false,
      "t": 204900.70249999993,
      "d": 156.4127500000177,
      "v": 96
    },
    {
      "midi": 37,
      "hit": false,
      "t": 205213.52799999993,
      "d": 1637.120116666687,
      "v": 120
    },
    {
      "midi": 49,
      "hit": false,
      "t": 205213.52799999993,
      "d": 1637.120116666687,
      "v": 120
    },
    {
      "midi": 56,
      "hit": false,
      "t": 205526.35349999994,
      "d": 890.2492354166461,
      "v": 118
    },
    {
      "midi": 68,
      "hit": false,
      "t": 205839.17899999995,
      "d": 224.1916083333199,
      "v": 111
    },
    {
      "midi": 64,
      "hit": false,
      "t": 205839.17899999995,
      "d": 229.4053666666441,
      "v": 120
    },
    {
      "midi": 59,
      "hit": false,
      "t": 205839.17899999995,
      "d": 238.52944374998333,
      "v": 118
    },
    {
      "midi": 59,
      "hit": false,
      "t": 206152.00449999992,
      "d": 405.3697104166786,
      "v": 118
    },
    {
      "midi": 64,
      "hit": false,
      "t": 206152.00449999992,
      "d": 409.28002916666446,
      "v": 120
    },
    {
      "midi": 68,
      "hit": false,
      "t": 206152.00449999992,
      "d": 419.707545833342,
      "v": 118
    },
    {
      "midi": 56,
      "hit": false,
      "t": 206464.82999999993,
      "d": 384.5146770833526,
      "v": 92
    },
    {
      "midi": 59,
      "hit": false,
      "t": 206777.65549999994,
      "d": 486.182964583335,
      "v": 120
    },
    {
      "midi": 64,
      "hit": false,
      "t": 206777.65549999994,
      "d": 763.8155958333518,
      "v": 120
    },
    {
      "midi": 68,
      "hit": false,
      "t": 206777.65549999994,
      "d": 795.0981458333554,
      "v": 120
    },
    {
      "midi": 56,
      "hit": false,
      "t": 207090.48099999994,
      "d": 428.8316229166812,
      "v": 111
    },
    {
      "midi": 37,
      "hit": false,
      "t": 207090.48099999994,
      "d": 437.95570000002044,
      "v": 111
    },
    {
      "midi": 49,
      "hit": false,
      "t": 207090.48099999994,
      "d": 437.95570000002044,
      "v": 111
    },
    {
      "midi": 59,
      "hit": false,
      "t": 207403.30649999995,
      "d": 139.4680354166776,
      "v": 100
    },
    {
      "midi": 61,
      "hit": false,
      "t": 207716.13199999995,
      "d": 826.3806958333298,
      "v": 120
    },
    {
      "midi": 30,
      "hit": false,
      "t": 207716.13199999995,
      "d": 1094.8892499999783,
      "v": 117
    },
    {
      "midi": 42,
      "hit": false,
      "t": 207716.13199999995,
      "d": 1094.8892499999783,
      "v": 117
    },
    {
      "midi": 66,
      "hit": false,
      "t": 207716.13199999995,
      "d": 1402.5009916666313,
      "v": 120
    },
    {
      "midi": 70,
      "hit": false,
      "t": 207716.13199999995,
      "d": 1402.5009916666313,
      "v": 120
    },
    {
      "midi": 54,
      "hit": false,
      "t": 208028.95749999996,
      "d": 494.00360208333586,
      "v": 120
    },
    {
      "midi": 54,
      "hit": false,
      "t": 208654.60849999994,
      "d": 314.1289395833155,
      "v": 120
    },
    {
      "midi": 61,
      "hit": false,
      "t": 208654.60849999994,
      "d": 357.1424458333058,
      "v": 120
    },
    {
      "midi": 30,
      "hit": false,
      "t": 209280.25949999993,
      "d": 933.2627416666655,
      "v": 117
    },
    {
      "midi": 42,
      "hit": false,
      "t": 209280.25949999993,
      "d": 933.2627416666655,
      "v": 117
    },
    {
      "midi": 54,
      "hit": false,
      "t": 209280.25949999993,
      "d": 933.2627416666655,
      "v": 120
    },
    {
      "midi": 61,
      "hit": false,
      "t": 209280.25949999993,
      "d": 933.2627416666655,
      "v": 120
    },
    {
      "midi": 66,
      "hit": false,
      "t": 209280.25949999993,
      "d": 933.2627416666655,
      "v": 120
    },
    {
      "midi": 71,
      "hit": false,
      "t": 209280.25949999993,
      "d": 933.2627416666655,
      "v": 120
    },
    {
      "midi": 70,
      "hit": false,
      "t": 210218.73599999992,
      "d": 471.84512916667154,
      "v": 120
    },
    {
      "midi": 66,
      "hit": false,
      "t": 210218.73599999992,
      "d": 595.6718895833474,
      "v": 120
    },
    {
      "midi": 54,
      "hit": false,
      "t": 210218.73599999992,
      "d": 606.0994062500249,
      "v": 120
    },
    {
      "midi": 30,
      "hit": false,
      "t": 210218.73599999992,
      "d": 782.0637500000012,
      "v": 117
    },
    {
      "midi": 42,
      "hit": false,
      "t": 210218.73599999992,
      "d": 782.0637500000012,
      "v": 117
    },
    {
      "midi": 61,
      "hit": false,
      "t": 210531.56149999992,
      "d": 329.7702145833464,
      "v": 111
    },
    {
      "midi": 66,
      "hit": false,
      "t": 210844.38699999993,
      "d": 67.7788583333313,
      "v": 81
    },
    {
      "midi": 66,
      "hit": false,
      "t": 211157.2124999999,
      "d": 505.73455833332264,
      "v": 120
    },
    {
      "midi": 54,
      "hit": false,
      "t": 211157.2124999999,
      "d": 680.3954624999897,
      "v": 120
    },
    {
      "midi": 71,
      "hit": false,
      "t": 211157.2124999999,
      "d": 724.7124083333183,
      "v": 120
    },
    {
      "midi": 61,
      "hit": false,
      "t": 211157.2124999999,
      "d": 727.319287499995,
      "v": 118
    },
    {
      "midi": 30,
      "hit": false,
      "t": 211157.2124999999,
      "d": 782.0637500000012,
      "v": 117
    },
    {
      "midi": 42,
      "hit": false,
      "t": 211157.2124999999,
      "d": 782.0637500000012,
      "v": 117
    },
    {
      "midi": 66,
      "hit": false,
      "t": 211782.8634999999,
      "d": 245.046641666675,
      "v": 60
    },
    {
      "midi": 54,
      "hit": false,
      "t": 212095.6889999999,
      "d": 620.4372416666592,
      "v": 120
    },
    {
      "midi": 61,
      "hit": false,
      "t": 212095.6889999999,
      "d": 620.4372416666592,
      "v": 120
    },
    {
      "midi": 66,
      "hit": false,
      "t": 212095.6889999999,
      "d": 620.4372416666592,
      "v": 120
    },
    {
      "midi": 70,
      "hit": false,
      "t": 212095.6889999999,
      "d": 620.4372416666592,
      "v": 120
    },
    {
      "midi": 30,
      "hit": false,
      "t": 212095.6889999999,
      "d": 625.6509999999835,
      "v": 117
    },
    {
      "midi": 42,
      "hit": false,
      "t": 212095.6889999999,
      "d": 625.6509999999835,
      "v": 117
    },
    {
      "midi": 68,
      "hit": false,
      "t": 212721.33999999988,
      "d": 654.3266708333394,
      "v": 120
    },
    {
      "midi": 59,
      "hit": false,
      "t": 212721.33999999988,
      "d": 671.2713854166795,
      "v": 118
    },
    {
      "midi": 64,
      "hit": false,
      "t": 212721.33999999988,
      "d": 686.9126604166813,
      "v": 120
    },
    {
      "midi": 28,
      "hit": false,
      "t": 212721.33999999988,
      "d": 2339.67405208337,
      "v": 120
    },
    {
      "midi": 40,
      "hit": false,
      "t": 212721.33999999988,
      "d": 2339.67405208337,
      "v": 120
    },
    {
      "midi": 52,
      "hit": false,
      "t": 213346.9909999999,
      "d": 1058.3929416666506,
      "v": 106
    },
    {
      "midi": 68,
      "hit": false,
      "t": 213659.8164999999,
      "d": 531.803350000002,
      "v": 106
    },
    {
      "midi": 59,
      "hit": false,
      "t": 213659.8164999999,
      "d": 561.7824604166672,
      "v": 120
    },
    {
      "midi": 64,
      "hit": false,
      "t": 213659.8164999999,
      "d": 565.692779166653,
      "v": 120
    },
    {
      "midi": 59,
      "hit": false,
      "t": 214285.46749999988,
      "d": 426.22474375000456,
      "v": 120
    },
    {
      "midi": 64,
      "hit": false,
      "t": 214285.46749999988,
      "d": 765.1190354166902,
      "v": 120
    },
    {
      "midi": 68,
      "hit": false,
      "t": 214285.46749999988,
      "d": 793.794706250017,
      "v": 111
    },
    {
      "midi": 52,
      "hit": false,
      "t": 214598.2929999999,
      "d": 477.05888750002487,
      "v": 106
    },
    {
      "midi": 59,
      "hit": false,
      "t": 214911.1184999999,
      "d": 156.4127500000177,
      "v": 96
    },
    {
      "midi": 37,
      "hit": false,
      "t": 215223.9439999999,
      "d": 1637.120116666687,
      "v": 120
    },
    {
      "midi": 49,
      "hit": false,
      "t": 215223.9439999999,
      "d": 1637.120116666687,
      "v": 120
    },
    {
      "midi": 56,
      "hit": false,
      "t": 215536.7694999999,
      "d": 890.2492354166461,
      "v": 118
    },
    {
      "midi": 68,
      "hit": false,
      "t": 215849.5949999999,
      "d": 224.1916083333199,
      "v": 111
    },
    {
      "midi": 64,
      "hit": false,
      "t": 215849.5949999999,
      "d": 229.4053666666441,
      "v": 120
    },
    {
      "midi": 59,
      "hit": false,
      "t": 215849.5949999999,
      "d": 238.52944374998333,
      "v": 118
    },
    {
      "midi": 59,
      "hit": false,
      "t": 216162.4204999999,
      "d": 405.3697104166786,
      "v": 118
    },
    {
      "midi": 64,
      "hit": false,
      "t": 216162.4204999999,
      "d": 409.28002916666446,
      "v": 120
    },
    {
      "midi": 68,
      "hit": false,
      "t": 216162.4204999999,
      "d": 419.707545833342,
      "v": 118
    },
    {
      "midi": 56,
      "hit": false,
      "t": 216475.2459999999,
      "d": 384.5146770833526,
      "v": 92
    },
    {
      "midi": 59,
      "hit": false,
      "t": 216788.0714999999,
      "d": 486.182964583335,
      "v": 120
    },
    {
      "midi": 64,
      "hit": false,
      "t": 216788.0714999999,
      "d": 763.8155958333518,
      "v": 120
    },
    {
      "midi": 68,
      "hit": false,
      "t": 216788.0714999999,
      "d": 795.0981458333554,
      "v": 120
    },
    {
      "midi": 56,
      "hit": false,
      "t": 217100.8969999999,
      "d": 428.8316229166812,
      "v": 111
    },
    {
      "midi": 37,
      "hit": false,
      "t": 217100.8969999999,
      "d": 437.95570000002044,
      "v": 111
    },
    {
      "midi": 49,
      "hit": false,
      "t": 217100.8969999999,
      "d": 437.95570000002044,
      "v": 111
    },
    {
      "midi": 59,
      "hit": false,
      "t": 217413.72249999992,
      "d": 139.4680354166776,
      "v": 100
    },
    {
      "midi": 61,
      "hit": false,
      "t": 217726.54799999992,
      "d": 826.3806958333298,
      "v": 120
    },
    {
      "midi": 30,
      "hit": false,
      "t": 217726.54799999992,
      "d": 1094.8892499999783,
      "v": 117
    },
    {
      "midi": 42,
      "hit": false,
      "t": 217726.54799999992,
      "d": 1094.8892499999783,
      "v": 117
    },
    {
      "midi": 66,
      "hit": false,
      "t": 217726.54799999992,
      "d": 1402.5009916666313,
      "v": 120
    },
    {
      "midi": 70,
      "hit": false,
      "t": 217726.54799999992,
      "d": 1402.5009916666313,
      "v": 120
    },
    {
      "midi": 54,
      "hit": false,
      "t": 218039.37349999993,
      "d": 494.00360208333586,
      "v": 120
    },
    {
      "midi": 54,
      "hit": false,
      "t": 218665.0244999999,
      "d": 314.1289395833155,
      "v": 120
    },
    {
      "midi": 61,
      "hit": false,
      "t": 218665.0244999999,
      "d": 357.1424458333058,
      "v": 120
    },
    {
      "midi": 30,
      "hit": false,
      "t": 219290.6754999999,
      "d": 933.2627416666655,
      "v": 117
    },
    {
      "midi": 42,
      "hit": false,
      "t": 219290.6754999999,
      "d": 933.2627416666655,
      "v": 117
    },
    {
      "midi": 54,
      "hit": false,
      "t": 219290.6754999999,
      "d": 933.2627416666655,
      "v": 120
    },
    {
      "midi": 61,
      "hit": false,
      "t": 219290.6754999999,
      "d": 933.2627416666655,
      "v": 120
    },
    {
      "midi": 66,
      "hit": false,
      "t": 219290.6754999999,
      "d": 933.2627416666655,
      "v": 120
    },
    {
      "midi": 71,
      "hit": false,
      "t": 219290.6754999999,
      "d": 933.2627416666655,
      "v": 120
    },
    {
      "midi": 39,
      "hit": false,
      "t": 220229.15199999989,
      "d": 1558.913741666678,
      "v": 117
    },
    {
      "midi": 51,
      "hit": false,
      "t": 220229.15199999989,
      "d": 1558.913741666678,
      "v": 117
    },
    {
      "midi": 66,
      "hit": false,
      "t": 220229.15199999989,
      "d": 1558.913741666678,
      "v": 120
    },
    {
      "midi": 70,
      "hit": false,
      "t": 220229.15199999989,
      "d": 1558.913741666678,
      "v": 120
    },
    {
      "midi": 39,
      "hit": false,
      "t": 221793.2794999999,
      "d": 933.2627416666655,
      "v": 117
    },
    {
      "midi": 51,
      "hit": false,
      "t": 221793.2794999999,
      "d": 933.2627416666655,
      "v": 117
    },
    {
      "midi": 66,
      "hit": false,
      "t": 221793.2794999999,
      "d": 933.2627416666655,
      "v": 120
    },
    {
      "midi": 70,
      "hit": false,
      "t": 221793.2794999999,
      "d": 933.2627416666655,
      "v": 120
    },
    {
      "midi": 75,
      "hit": false,
      "t": 221793.2794999999,
      "d": 933.2627416666655,
      "v": 101
    },
    {
      "midi": 71,
      "hit": false,
      "t": 222731.75599999988,
      "d": 654.3266708333394,
      "v": 120
    },
    {
      "midi": 64,
      "hit": false,
      "t": 222731.75599999988,
      "d": 671.2713854166795,
      "v": 118
    },
    {
      "midi": 68,
      "hit": false,
      "t": 222731.75599999988,
      "d": 686.9126604166813,
      "v": 120
    },
    {
      "midi": 28,
      "hit": false,
      "t": 222731.75599999988,
      "d": 931.9593020833563,
      "v": 120
    },
    {
      "midi": 40,
      "hit": false,
      "t": 222731.75599999988,
      "d": 931.9593020833563,
      "v": 120
    },
    {
      "midi": 52,
      "hit": false,
      "t": 223357.4069999999,
      "d": 1058.3929416666797,
      "v": 106
    },
    {
      "midi": 28,
      "hit": false,
      "t": 223670.2324999999,
      "d": 1244.7848020833626,
      "v": 120
    },
    {
      "midi": 40,
      "hit": false,
      "t": 223670.2324999999,
      "d": 1244.7848020833626,
      "v": 120
    },
    {
      "midi": 71,
      "hit": false,
      "t": 223670.2324999999,
      "d": 1470.27985000005,
      "v": 106
    },
    {
      "midi": 64,
      "hit": false,
      "t": 223670.2324999999,
      "d": 1500.2589604167151,
      "v": 120
    },
    {
      "midi": 68,
      "hit": false,
      "t": 223670.2324999999,
      "d": 1504.169279166701,
      "v": 120
    },
    {
      "midi": 52,
      "hit": false,
      "t": 224608.70899999992,
      "d": 477.05888750002487,
      "v": 106
    },
    {
      "midi": 64,
      "hit": false,
      "t": 225234.35999999993,
      "d": 620.4372416666592,
      "v": 118
    },
    {
      "midi": 68,
      "hit": false,
      "t": 225234.35999999993,
      "d": 620.4372416666592,
      "v": 120
    },
    {
      "midi": 71,
      "hit": false,
      "t": 225234.35999999993,
      "d": 620.4372416666592,
      "v": 120
    },
    {
      "midi": 28,
      "hit": false,
      "t": 225234.35999999993,
      "d": 931.9593020833272,
      "v": 120
    },
    {
      "midi": 40,
      "hit": false,
      "t": 225234.35999999993,
      "d": 931.9593020833272,
      "v": 120
    },
    {
      "midi": 71,
      "hit": false,
      "t": 225860.0109999999,
      "d": 307.61174166668206,
      "v": 120
    },
    {
      "midi": 52,
      "hit": false,
      "t": 225860.0109999999,
      "d": 1058.3929416666506,
      "v": 106
    },
    {
      "midi": 73,
      "hit": false,
      "t": 226172.83649999992,
      "d": 531.803350000002,
      "v": 106
    },
    {
      "midi": 64,
      "hit": false,
      "t": 226172.83649999992,
      "d": 561.7824604166672,
      "v": 120
    },
    {
      "midi": 68,
      "hit": false,
      "t": 226172.83649999992,
      "d": 565.692779166653,
      "v": 120
    },
    {
      "midi": 28,
      "hit": false,
      "t": 226172.83649999992,
      "d": 1401.1975520833512,
      "v": 120
    },
    {
      "midi": 40,
      "hit": false,
      "t": 226172.83649999992,
      "d": 1401.1975520833512,
      "v": 120
    },
    {
      "midi": 64,
      "hit": false,
      "t": 226798.4874999999,
      "d": 426.22474375000456,
      "v": 120
    },
    {
      "midi": 68,
      "hit": false,
      "t": 226798.4874999999,
      "d": 765.1190354166902,
      "v": 120
    },
    {
      "midi": 75,
      "hit": false,
      "t": 226798.4874999999,
      "d": 793.794706250017,
      "v": 111
    },
    {
      "midi": 52,
      "hit": false,
      "t": 227111.3129999999,
      "d": 477.05888750002487,
      "v": 106
    },
    {
      "midi": 64,
      "hit": false,
      "t": 227424.1384999999,
      "d": 156.4127500000177,
      "v": 96
    },
    {
      "midi": 61,
      "hit": false,
      "t": 247757.79599999991,
      "d": 826.3806958333298,
      "v": 120
    },
    {
      "midi": 30,
      "hit": false,
      "t": 247757.79599999991,
      "d": 1094.8892499999783,
      "v": 117
    },
    {
      "midi": 42,
      "hit": false,
      "t": 247757.79599999991,
      "d": 1094.8892499999783,
      "v": 117
    },
    {
      "midi": 66,
      "hit": false,
      "t": 247757.79599999991,
      "d": 1402.5009916666313,
      "v": 120
    },
    {
      "midi": 70,
      "hit": false,
      "t": 247757.79599999991,
      "d": 1402.5009916666313,
      "v": 120
    },
    {
      "midi": 54,
      "hit": false,
      "t": 248070.62149999992,
      "d": 494.00360208333586,
      "v": 120
    },
    {
      "midi": 54,
      "hit": false,
      "t": 248696.2724999999,
      "d": 314.1289395833155,
      "v": 120
    },
    {
      "midi": 61,
      "hit": false,
      "t": 248696.2724999999,
      "d": 357.1424458333058,
      "v": 120
    },
    {
      "midi": 30,
      "hit": false,
      "t": 249321.9234999999,
      "d": 933.2627416666655,
      "v": 117
    },
    {
      "midi": 42,
      "hit": false,
      "t": 249321.9234999999,
      "d": 933.2627416666655,
      "v": 117
    },
    {
      "midi": 54,
      "hit": false,
      "t": 249321.9234999999,
      "d": 933.2627416666655,
      "v": 120
    },
    {
      "midi": 61,
      "hit": false,
      "t": 249321.9234999999,
      "d": 933.2627416666655,
      "v": 120
    },
    {
      "midi": 66,
      "hit": false,
      "t": 249321.9234999999,
      "d": 933.2627416666655,
      "v": 120
    },
    {
      "midi": 71,
      "hit": false,
      "t": 249321.9234999999,
      "d": 933.2627416666655,
      "v": 120
    },
    {
      "midi": 70,
      "hit": false,
      "t": 250260.39999999988,
      "d": 471.84512916667154,
      "v": 120
    },
    {
      "midi": 66,
      "hit": false,
      "t": 250260.39999999988,
      "d": 595.6718895833474,
      "v": 120
    },
    {
      "midi": 54,
      "hit": false,
      "t": 250260.39999999988,
      "d": 606.0994062500249,
      "v": 120
    },
    {
      "midi": 30,
      "hit": false,
      "t": 250260.39999999988,
      "d": 782.0637500000012,
      "v": 117
    },
    {
      "midi": 42,
      "hit": false,
      "t": 250260.39999999988,
      "d": 782.0637500000012,
      "v": 117
    },
    {
      "midi": 61,
      "hit": false,
      "t": 250573.22549999988,
      "d": 329.7702145833464,
      "v": 111
    },
    {
      "midi": 66,
      "hit": false,
      "t": 250886.0509999999,
      "d": 67.7788583333313,
      "v": 81
    },
    {
      "midi": 66,
      "hit": false,
      "t": 251198.87649999987,
      "d": 505.73455833332264,
      "v": 120
    },
    {
      "midi": 54,
      "hit": false,
      "t": 251198.87649999987,
      "d": 680.3954624999897,
      "v": 120
    },
    {
      "midi": 71,
      "hit": false,
      "t": 251198.87649999987,
      "d": 724.7124083333183,
      "v": 120
    },
    {
      "midi": 61,
      "hit": false,
      "t": 251198.87649999987,
      "d": 727.319287499995,
      "v": 118
    },
    {
      "midi": 30,
      "hit": false,
      "t": 251198.87649999987,
      "d": 782.0637500000012,
      "v": 117
    },
    {
      "midi": 42,
      "hit": false,
      "t": 251198.87649999987,
      "d": 782.0637500000012,
      "v": 117
    },
    {
      "midi": 66,
      "hit": false,
      "t": 251824.52749999985,
      "d": 245.046641666675,
      "v": 60
    },
    {
      "midi": 54,
      "hit": false,
      "t": 252137.35299999986,
      "d": 620.4372416666592,
      "v": 120
    },
    {
      "midi": 61,
      "hit": false,
      "t": 252137.35299999986,
      "d": 620.4372416666592,
      "v": 120
    },
    {
      "midi": 66,
      "hit": false,
      "t": 252137.35299999986,
      "d": 620.4372416666592,
      "v": 120
    },
    {
      "midi": 70,
      "hit": false,
      "t": 252137.35299999986,
      "d": 620.4372416666592,
      "v": 120
    },
    {
      "midi": 30,
      "hit": false,
      "t": 252137.35299999986,
      "d": 625.6509999999835,
      "v": 117
    },
    {
      "midi": 42,
      "hit": false,
      "t": 252137.35299999986,
      "d": 625.6509999999835,
      "v": 117
    },
    {
      "midi": 68,
      "hit": false,
      "t": 252763.00399999984,
      "d": 654.3266708333394,
      "v": 120
    },
    {
      "midi": 59,
      "hit": false,
      "t": 252763.00399999984,
      "d": 671.2713854166795,
      "v": 118
    },
    {
      "midi": 64,
      "hit": false,
      "t": 252763.00399999984,
      "d": 686.9126604166813,
      "v": 120
    },
    {
      "midi": 28,
      "hit": false,
      "t": 252763.00399999984,
      "d": 2339.67405208337,
      "v": 120
    },
    {
      "midi": 40,
      "hit": false,
      "t": 252763.00399999984,
      "d": 2339.67405208337,
      "v": 120
    },
    {
      "midi": 52,
      "hit": false,
      "t": 253388.65499999985,
      "d": 1058.3929416666506,
      "v": 106
    },
    {
      "midi": 68,
      "hit": false,
      "t": 253701.48049999986,
      "d": 531.803350000002,
      "v": 106
    },
    {
      "midi": 59,
      "hit": false,
      "t": 253701.48049999986,
      "d": 561.7824604166672,
      "v": 120
    },
    {
      "midi": 64,
      "hit": false,
      "t": 253701.48049999986,
      "d": 565.692779166653,
      "v": 120
    },
    {
      "midi": 59,
      "hit": false,
      "t": 254327.13149999984,
      "d": 426.22474375000456,
      "v": 120
    },
    {
      "midi": 64,
      "hit": false,
      "t": 254327.13149999984,
      "d": 765.1190354166902,
      "v": 120
    },
    {
      "midi": 68,
      "hit": false,
      "t": 254327.13149999984,
      "d": 793.794706250017,
      "v": 111
    },
    {
      "midi": 52,
      "hit": false,
      "t": 254639.95699999985,
      "d": 477.05888750002487,
      "v": 106
    },
    {
      "midi": 59,
      "hit": false,
      "t": 254952.78249999986,
      "d": 156.4127500000177,
      "v": 96
    },
    {
      "midi": 37,
      "hit": false,
      "t": 255265.60799999986,
      "d": 1637.120116666687,
      "v": 120
    },
    {
      "midi": 49,
      "hit": false,
      "t": 255265.60799999986,
      "d": 1637.120116666687,
      "v": 120
    },
    {
      "midi": 56,
      "hit": false,
      "t": 255578.43349999987,
      "d": 890.2492354166461,
      "v": 118
    },
    {
      "midi": 68,
      "hit": false,
      "t": 255891.25899999987,
      "d": 224.1916083333199,
      "v": 111
    },
    {
      "midi": 64,
      "hit": false,
      "t": 255891.25899999987,
      "d": 229.4053666666441,
      "v": 120
    },
    {
      "midi": 59,
      "hit": false,
      "t": 255891.25899999987,
      "d": 238.52944374998333,
      "v": 118
    },
    {
      "midi": 59,
      "hit": false,
      "t": 256204.08449999985,
      "d": 405.3697104166786,
      "v": 118
    },
    {
      "midi": 64,
      "hit": false,
      "t": 256204.08449999985,
      "d": 409.28002916666446,
      "v": 120
    },
    {
      "midi": 68,
      "hit": false,
      "t": 256204.08449999985,
      "d": 419.707545833342,
      "v": 118
    },
    {
      "midi": 56,
      "hit": false,
      "t": 256516.90999999986,
      "d": 384.5146770833526,
      "v": 92
    },
    {
      "midi": 59,
      "hit": false,
      "t": 256829.73549999986,
      "d": 486.182964583335,
      "v": 120
    },
    {
      "midi": 64,
      "hit": false,
      "t": 256829.73549999986,
      "d": 763.8155958333518,
      "v": 120
    },
    {
      "midi": 68,
      "hit": false,
      "t": 256829.73549999986,
      "d": 795.0981458333554,
      "v": 120
    },
    {
      "midi": 56,
      "hit": false,
      "t": 257142.56099999987,
      "d": 428.8316229166812,
      "v": 111
    },
    {
      "midi": 37,
      "hit": false,
      "t": 257142.56099999987,
      "d": 437.95570000002044,
      "v": 111
    },
    {
      "midi": 49,
      "hit": false,
      "t": 257142.56099999987,
      "d": 437.95570000002044,
      "v": 111
    },
    {
      "midi": 59,
      "hit": false,
      "t": 257455.38649999988,
      "d": 139.4680354166776,
      "v": 100
    },
    {
      "midi": 61,
      "hit": false,
      "t": 257768.21199999988,
      "d": 826.3806958333298,
      "v": 120
    },
    {
      "midi": 30,
      "hit": false,
      "t": 257768.21199999988,
      "d": 1094.8892499999783,
      "v": 117
    },
    {
      "midi": 42,
      "hit": false,
      "t": 257768.21199999988,
      "d": 1094.8892499999783,
      "v": 117
    },
    {
      "midi": 66,
      "hit": false,
      "t": 257768.21199999988,
      "d": 1402.5009916666313,
      "v": 120
    },
    {
      "midi": 70,
      "hit": false,
      "t": 257768.21199999988,
      "d": 1402.5009916666313,
      "v": 120
    },
    {
      "midi": 54,
      "hit": false,
      "t": 258081.0374999999,
      "d": 494.00360208333586,
      "v": 120
    },
    {
      "midi": 54,
      "hit": false,
      "t": 258706.68849999987,
      "d": 314.1289395833155,
      "v": 120
    },
    {
      "midi": 61,
      "hit": false,
      "t": 258706.68849999987,
      "d": 357.1424458333058,
      "v": 120
    },
    {
      "midi": 30,
      "hit": false,
      "t": 259332.33949999986,
      "d": 933.2627416666655,
      "v": 117
    },
    {
      "midi": 42,
      "hit": false,
      "t": 259332.33949999986,
      "d": 933.2627416666655,
      "v": 117
    },
    {
      "midi": 54,
      "hit": false,
      "t": 259332.33949999986,
      "d": 933.2627416666655,
      "v": 120
    },
    {
      "midi": 61,
      "hit": false,
      "t": 259332.33949999986,
      "d": 933.2627416666655,
      "v": 120
    },
    {
      "midi": 66,
      "hit": false,
      "t": 259332.33949999986,
      "d": 933.2627416666655,
      "v": 120
    },
    {
      "midi": 71,
      "hit": false,
      "t": 259332.33949999986,
      "d": 933.2627416666655,
      "v": 120
    },
    {
      "midi": 70,
      "hit": false,
      "t": 260270.81599999985,
      "d": 471.84512916667154,
      "v": 120
    },
    {
      "midi": 66,
      "hit": false,
      "t": 260270.81599999985,
      "d": 595.6718895833474,
      "v": 120
    },
    {
      "midi": 54,
      "hit": false,
      "t": 260270.81599999985,
      "d": 606.0994062500249,
      "v": 120
    },
    {
      "midi": 30,
      "hit": false,
      "t": 260270.81599999985,
      "d": 782.0637500000012,
      "v": 117
    },
    {
      "midi": 42,
      "hit": false,
      "t": 260270.81599999985,
      "d": 782.0637500000012,
      "v": 117
    },
    {
      "midi": 61,
      "hit": false,
      "t": 260583.64149999985,
      "d": 329.7702145833464,
      "v": 111
    },
    {
      "midi": 66,
      "hit": false,
      "t": 260896.46699999986,
      "d": 67.7788583333313,
      "v": 81
    },
    {
      "midi": 66,
      "hit": false,
      "t": 261209.29249999984,
      "d": 505.73455833332264,
      "v": 120
    },
    {
      "midi": 54,
      "hit": false,
      "t": 261209.29249999984,
      "d": 680.3954624999897,
      "v": 120
    },
    {
      "midi": 71,
      "hit": false,
      "t": 261209.29249999984,
      "d": 724.7124083333183,
      "v": 120
    },
    {
      "midi": 61,
      "hit": false,
      "t": 261209.29249999984,
      "d": 727.319287499995,
      "v": 118
    },
    {
      "midi": 30,
      "hit": false,
      "t": 261209.29249999984,
      "d": 782.0637500000012,
      "v": 117
    },
    {
      "midi": 42,
      "hit": false,
      "t": 261209.29249999984,
      "d": 782.0637500000012,
      "v": 117
    },
    {
      "midi": 66,
      "hit": false,
      "t": 261834.94349999982,
      "d": 245.046641666675,
      "v": 60
    },
    {
      "midi": 54,
      "hit": false,
      "t": 262147.76899999985,
      "d": 620.4372416666592,
      "v": 120
    },
    {
      "midi": 61,
      "hit": false,
      "t": 262147.76899999985,
      "d": 620.4372416666592,
      "v": 120
    },
    {
      "midi": 66,
      "hit": false,
      "t": 262147.76899999985,
      "d": 620.4372416666592,
      "v": 120
    },
    {
      "midi": 70,
      "hit": false,
      "t": 262147.76899999985,
      "d": 620.4372416666592,
      "v": 120
    },
    {
      "midi": 30,
      "hit": false,
      "t": 262147.76899999985,
      "d": 625.6510000000126,
      "v": 117
    },
    {
      "midi": 42,
      "hit": false,
      "t": 262147.76899999985,
      "d": 625.6510000000126,
      "v": 117
    },
    {
      "midi": 68,
      "hit": false,
      "t": 262773.41999999987,
      "d": 654.3266708333394,
      "v": 120
    },
    {
      "midi": 59,
      "hit": false,
      "t": 262773.41999999987,
      "d": 671.2713854166795,
      "v": 118
    },
    {
      "midi": 64,
      "hit": false,
      "t": 262773.41999999987,
      "d": 686.9126604166813,
      "v": 120
    },
    {
      "midi": 28,
      "hit": false,
      "t": 262773.41999999987,
      "d": 2339.674052083341,
      "v": 120
    },
    {
      "midi": 40,
      "hit": false,
      "t": 262773.41999999987,
      "d": 2339.674052083341,
      "v": 120
    },
    {
      "midi": 52,
      "hit": false,
      "t": 263399.0709999999,
      "d": 1058.3929416666506,
      "v": 106
    },
    {
      "midi": 68,
      "hit": false,
      "t": 263711.89649999986,
      "d": 531.803350000002,
      "v": 106
    },
    {
      "midi": 59,
      "hit": false,
      "t": 263711.89649999986,
      "d": 561.7824604166672,
      "v": 120
    },
    {
      "midi": 64,
      "hit": false,
      "t": 263711.89649999986,
      "d": 565.6927791666822,
      "v": 120
    },
    {
      "midi": 59,
      "hit": false,
      "t": 264337.54749999987,
      "d": 426.22474375000456,
      "v": 120
    },
    {
      "midi": 64,
      "hit": false,
      "t": 264337.54749999987,
      "d": 765.1190354166902,
      "v": 120
    },
    {
      "midi": 68,
      "hit": false,
      "t": 264337.54749999987,
      "d": 793.794706250017,
      "v": 111
    },
    {
      "midi": 52,
      "hit": false,
      "t": 264650.37299999985,
      "d": 477.05888750002487,
      "v": 106
    },
    {
      "midi": 59,
      "hit": false,
      "t": 264963.1984999999,
      "d": 156.4127500000177,
      "v": 96
    },
    {
      "midi": 37,
      "hit": false,
      "t": 265276.02399999986,
      "d": 1637.1201166665996,
      "v": 120
    },
    {
      "midi": 49,
      "hit": false,
      "t": 265276.02399999986,
      "d": 1637.1201166665996,
      "v": 120
    },
    {
      "midi": 56,
      "hit": false,
      "t": 265588.84949999984,
      "d": 890.2492354166461,
      "v": 118
    },
    {
      "midi": 68,
      "hit": false,
      "t": 265901.6749999998,
      "d": 224.1916083333199,
      "v": 111
    },
    {
      "midi": 64,
      "hit": false,
      "t": 265901.6749999998,
      "d": 229.40536666667322,
      "v": 120
    },
    {
      "midi": 59,
      "hit": false,
      "t": 265901.6749999998,
      "d": 238.52944374998333,
      "v": 118
    },
    {
      "midi": 59,
      "hit": false,
      "t": 266214.5004999998,
      "d": 405.3697104167077,
      "v": 118
    },
    {
      "midi": 64,
      "hit": false,
      "t": 266214.5004999998,
      "d": 409.28002916672267,
      "v": 120
    },
    {
      "midi": 68,
      "hit": false,
      "t": 266214.5004999998,
      "d": 419.7075458333711,
      "v": 118
    },
    {
      "midi": 56,
      "hit": false,
      "t": 266527.3259999998,
      "d": 384.5146770832944,
      "v": 92
    },
    {
      "midi": 59,
      "hit": false,
      "t": 266840.1514999998,
      "d": 486.182964583335,
      "v": 120
    },
    {
      "midi": 64,
      "hit": false,
      "t": 266840.1514999998,
      "d": 763.8155958332936,
      "v": 120
    },
    {
      "midi": 68,
      "hit": false,
      "t": 266840.1514999998,
      "d": 795.0981458332972,
      "v": 120
    },
    {
      "midi": 56,
      "hit": false,
      "t": 267152.9769999998,
      "d": 428.8316229166812,
      "v": 111
    },
    {
      "midi": 37,
      "hit": false,
      "t": 267152.9769999998,
      "d": 437.95569999999134,
      "v": 111
    },
    {
      "midi": 49,
      "hit": false,
      "t": 267152.9769999998,
      "d": 437.95569999999134,
      "v": 111
    },
    {
      "midi": 59,
      "hit": false,
      "t": 267465.8024999998,
      "d": 139.4680354166194,
      "v": 100
    },
    {
      "midi": 61,
      "hit": false,
      "t": 267778.6279999998,
      "d": 826.3806958333007,
      "v": 120
    },
    {
      "midi": 30,
      "hit": false,
      "t": 267778.6279999998,
      "d": 1094.8892500000075,
      "v": 117
    },
    {
      "midi": 42,
      "hit": false,
      "t": 267778.6279999998,
      "d": 1094.8892500000075,
      "v": 117
    },
    {
      "midi": 66,
      "hit": false,
      "t": 267778.6279999998,
      "d": 1402.5009916666895,
      "v": 120
    },
    {
      "midi": 70,
      "hit": false,
      "t": 267778.6279999998,
      "d": 1402.5009916666895,
      "v": 120
    },
    {
      "midi": 54,
      "hit": false,
      "t": 268091.45349999977,
      "d": 494.00360208330676,
      "v": 120
    },
    {
      "midi": 54,
      "hit": false,
      "t": 268717.1044999998,
      "d": 314.1289395833737,
      "v": 120
    },
    {
      "midi": 61,
      "hit": false,
      "t": 268717.1044999998,
      "d": 357.14244583336404,
      "v": 120
    },
    {
      "midi": 30,
      "hit": false,
      "t": 269342.7554999998,
      "d": 933.2627416666946,
      "v": 117
    },
    {
      "midi": 42,
      "hit": false,
      "t": 269342.7554999998,
      "d": 933.2627416666946,
      "v": 117
    },
    {
      "midi": 54,
      "hit": false,
      "t": 269342.7554999998,
      "d": 933.2627416666946,
      "v": 120
    },
    {
      "midi": 61,
      "hit": false,
      "t": 269342.7554999998,
      "d": 933.2627416666946,
      "v": 120
    },
    {
      "midi": 66,
      "hit": false,
      "t": 269342.7554999998,
      "d": 933.2627416666946,
      "v": 120
    },
    {
      "midi": 71,
      "hit": false,
      "t": 269342.7554999998,
      "d": 933.2627416666946,
      "v": 120
    },
    {
      "midi": 70,
      "hit": false,
      "t": 270281.23199999984,
      "d": 471.84512916667154,
      "v": 120
    },
    {
      "midi": 66,
      "hit": false,
      "t": 270281.23199999984,
      "d": 595.6718895833474,
      "v": 120
    },
    {
      "midi": 54,
      "hit": false,
      "t": 270281.23199999984,
      "d": 606.0994062499958,
      "v": 120
    },
    {
      "midi": 30,
      "hit": false,
      "t": 270281.23199999984,
      "d": 782.0637500000303,
      "v": 117
    },
    {
      "midi": 42,
      "hit": false,
      "t": 270281.23199999984,
      "d": 782.0637500000303,
      "v": 117
    },
    {
      "midi": 61,
      "hit": false,
      "t": 270594.0574999998,
      "d": 329.7702145833755,
      "v": 111
    },
    {
      "midi": 66,
      "hit": false,
      "t": 270906.88299999986,
      "d": 67.7788583333604,
      "v": 81
    },
    {
      "midi": 66,
      "hit": false,
      "t": 271219.7084999999,
      "d": 505.73455833335174,
      "v": 120
    },
    {
      "midi": 54,
      "hit": false,
      "t": 271219.7084999999,
      "d": 680.3954624999897,
      "v": 120
    },
    {
      "midi": 71,
      "hit": false,
      "t": 271219.7084999999,
      "d": 724.7124083333183,
      "v": 120
    },
    {
      "midi": 61,
      "hit": false,
      "t": 271219.7084999999,
      "d": 727.319287499995,
      "v": 118
    },
    {
      "midi": 30,
      "hit": false,
      "t": 271219.7084999999,
      "d": 782.0637499999721,
      "v": 117
    },
    {
      "midi": 42,
      "hit": false,
      "t": 271219.7084999999,
      "d": 782.0637499999721,
      "v": 117
    },
    {
      "midi": 66,
      "hit": false,
      "t": 271845.3594999999,
      "d": 245.04664166661678,
      "v": 60
    },
    {
      "midi": 54,
      "hit": false,
      "t": 272158.1849999999,
      "d": 620.4372416666592,
      "v": 120
    },
    {
      "midi": 61,
      "hit": false,
      "t": 272158.1849999999,
      "d": 620.4372416666592,
      "v": 120
    },
    {
      "midi": 66,
      "hit": false,
      "t": 272158.1849999999,
      "d": 620.4372416666592,
      "v": 120
    },
    {
      "midi": 70,
      "hit": false,
      "t": 272158.1849999999,
      "d": 620.4372416666592,
      "v": 120
    },
    {
      "midi": 30,
      "hit": false,
      "t": 272158.1849999999,
      "d": 625.6510000000126,
      "v": 117
    },
    {
      "midi": 42,
      "hit": false,
      "t": 272158.1849999999,
      "d": 625.6510000000126,
      "v": 117
    },
    {
      "midi": 68,
      "hit": false,
      "t": 272783.8359999999,
      "d": 654.3266708333394,
      "v": 120
    },
    {
      "midi": 59,
      "hit": false,
      "t": 272783.8359999999,
      "d": 671.2713854166795,
      "v": 118
    },
    {
      "midi": 64,
      "hit": false,
      "t": 272783.8359999999,
      "d": 686.9126604166813,
      "v": 120
    },
    {
      "midi": 28,
      "hit": false,
      "t": 272783.8359999999,
      "d": 2339.674052083341,
      "v": 120
    },
    {
      "midi": 40,
      "hit": false,
      "t": 272783.8359999999,
      "d": 2339.674052083341,
      "v": 120
    },
    {
      "midi": 52,
      "hit": false,
      "t": 273409.4869999999,
      "d": 1058.3929416666506,
      "v": 106
    },
    {
      "midi": 68,
      "hit": false,
      "t": 273722.3124999999,
      "d": 531.803350000002,
      "v": 106
    },
    {
      "midi": 59,
      "hit": false,
      "t": 273722.3124999999,
      "d": 561.7824604166672,
      "v": 120
    },
    {
      "midi": 64,
      "hit": false,
      "t": 273722.3124999999,
      "d": 565.6927791666822,
      "v": 120
    },
    {
      "midi": 59,
      "hit": false,
      "t": 274347.9634999999,
      "d": 426.22474375000456,
      "v": 120
    },
    {
      "midi": 64,
      "hit": false,
      "t": 274347.9634999999,
      "d": 765.1190354166902,
      "v": 120
    },
    {
      "midi": 68,
      "hit": false,
      "t": 274347.9634999999,
      "d": 793.794706250017,
      "v": 111
    },
    {
      "midi": 52,
      "hit": false,
      "t": 274660.7889999999,
      "d": 477.05888750002487,
      "v": 106
    },
    {
      "midi": 59,
      "hit": false,
      "t": 274973.6144999999,
      "d": 156.4127500000177,
      "v": 96
    },
    {
      "midi": 37,
      "hit": false,
      "t": 275286.4399999999,
      "d": 1637.1201166665996,
      "v": 120
    },
    {
      "midi": 49,
      "hit": false,
      "t": 275286.4399999999,
      "d": 1637.1201166665996,
      "v": 120
    },
    {
      "midi": 56,
      "hit": false,
      "t": 275599.26549999986,
      "d": 890.2492354166461,
      "v": 118
    },
    {
      "midi": 68,
      "hit": false,
      "t": 275912.09099999984,
      "d": 224.1916083333199,
      "v": 111
    },
    {
      "midi": 64,
      "hit": false,
      "t": 275912.09099999984,
      "d": 229.40536666667322,
      "v": 120
    },
    {
      "midi": 59,
      "hit": false,
      "t": 275912.09099999984,
      "d": 238.52944374998333,
      "v": 118
    },
    {
      "midi": 59,
      "hit": false,
      "t": 276224.9164999998,
      "d": 405.3697104167077,
      "v": 118
    },
    {
      "midi": 64,
      "hit": false,
      "t": 276224.9164999998,
      "d": 409.28002916672267,
      "v": 120
    },
    {
      "midi": 68,
      "hit": false,
      "t": 276224.9164999998,
      "d": 419.7075458333711,
      "v": 118
    },
    {
      "midi": 56,
      "hit": false,
      "t": 276537.74199999985,
      "d": 384.5146770832944,
      "v": 92
    },
    {
      "midi": 59,
      "hit": false,
      "t": 276850.56749999983,
      "d": 486.182964583335,
      "v": 120
    },
    {
      "midi": 64,
      "hit": false,
      "t": 276850.56749999983,
      "d": 763.8155958332936,
      "v": 120
    },
    {
      "midi": 68,
      "hit": false,
      "t": 276850.56749999983,
      "d": 795.0981458332972,
      "v": 120
    },
    {
      "midi": 56,
      "hit": false,
      "t": 277163.3929999998,
      "d": 428.8316229166812,
      "v": 111
    },
    {
      "midi": 37,
      "hit": false,
      "t": 277163.3929999998,
      "d": 437.95569999999134,
      "v": 111
    },
    {
      "midi": 49,
      "hit": false,
      "t": 277163.3929999998,
      "d": 437.95569999999134,
      "v": 111
    },
    {
      "midi": 59,
      "hit": false,
      "t": 277476.21849999984,
      "d": 139.4680354166194,
      "v": 100
    },
    {
      "midi": 61,
      "hit": false,
      "t": 277789.0439999998,
      "d": 826.3806958333007,
      "v": 120
    },
    {
      "midi": 30,
      "hit": false,
      "t": 277789.0439999998,
      "d": 1094.8892500000075,
      "v": 117
    },
    {
      "midi": 42,
      "hit": false,
      "t": 277789.0439999998,
      "d": 1094.8892500000075,
      "v": 117
    },
    {
      "midi": 66,
      "hit": false,
      "t": 277789.0439999998,
      "d": 1402.5009916666895,
      "v": 120
    },
    {
      "midi": 70,
      "hit": false,
      "t": 277789.0439999998,
      "d": 1402.5009916666895,
      "v": 120
    },
    {
      "midi": 54,
      "hit": false,
      "t": 278101.8694999998,
      "d": 494.00360208330676,
      "v": 120
    },
    {
      "midi": 54,
      "hit": false,
      "t": 278727.5204999998,
      "d": 314.1289395833737,
      "v": 120
    },
    {
      "midi": 61,
      "hit": false,
      "t": 278727.5204999998,
      "d": 357.14244583336404,
      "v": 120
    },
    {
      "midi": 30,
      "hit": false,
      "t": 279353.1714999998,
      "d": 933.2627416666946,
      "v": 117
    },
    {
      "midi": 42,
      "hit": false,
      "t": 279353.1714999998,
      "d": 933.2627416666946,
      "v": 117
    },
    {
      "midi": 54,
      "hit": false,
      "t": 279353.1714999998,
      "d": 933.2627416666946,
      "v": 120
    },
    {
      "midi": 61,
      "hit": false,
      "t": 279353.1714999998,
      "d": 933.2627416666946,
      "v": 120
    },
    {
      "midi": 66,
      "hit": false,
      "t": 279353.1714999998,
      "d": 933.2627416666946,
      "v": 120
    },
    {
      "midi": 71,
      "hit": false,
      "t": 279353.1714999998,
      "d": 933.2627416666946,
      "v": 120
    },
    {
      "midi": 39,
      "hit": false,
      "t": 280291.64799999987,
      "d": 1558.913741666649,
      "v": 117
    },
    {
      "midi": 51,
      "hit": false,
      "t": 280291.64799999987,
      "d": 1558.913741666649,
      "v": 117
    },
    {
      "midi": 66,
      "hit": false,
      "t": 280291.64799999987,
      "d": 1558.913741666649,
      "v": 120
    },
    {
      "midi": 70,
      "hit": false,
      "t": 280291.64799999987,
      "d": 1558.913741666649,
      "v": 120
    },
    {
      "midi": 39,
      "hit": false,
      "t": 281855.7754999999,
      "d": 933.2627416666946,
      "v": 117
    },
    {
      "midi": 51,
      "hit": false,
      "t": 281855.7754999999,
      "d": 933.2627416666946,
      "v": 117
    },
    {
      "midi": 66,
      "hit": false,
      "t": 281855.7754999999,
      "d": 933.2627416666946,
      "v": 120
    },
    {
      "midi": 70,
      "hit": false,
      "t": 281855.7754999999,
      "d": 933.2627416666946,
      "v": 120
    },
    {
      "midi": 75,
      "hit": false,
      "t": 281855.7754999999,
      "d": 933.2627416666946,
      "v": 101
    },
    {
      "midi": 71,
      "hit": false,
      "t": 282794.2519999999,
      "d": 654.3266708333394,
      "v": 120
    },
    {
      "midi": 64,
      "hit": false,
      "t": 282794.2519999999,
      "d": 671.2713854166795,
      "v": 118
    },
    {
      "midi": 68,
      "hit": false,
      "t": 282794.2519999999,
      "d": 686.9126604166813,
      "v": 120
    },
    {
      "midi": 28,
      "hit": false,
      "t": 282794.2519999999,
      "d": 931.9593020833563,
      "v": 120
    },
    {
      "midi": 40,
      "hit": false,
      "t": 282794.2519999999,
      "d": 931.9593020833563,
      "v": 120
    },
    {
      "midi": 52,
      "hit": false,
      "t": 283419.90299999993,
      "d": 1058.3929416667088,
      "v": 106
    },
    {
      "midi": 28,
      "hit": false,
      "t": 283732.72849999997,
      "d": 1244.7848020833335,
      "v": 120
    },
    {
      "midi": 40,
      "hit": false,
      "t": 283732.72849999997,
      "d": 1244.7848020833335,
      "v": 120
    },
    {
      "midi": 71,
      "hit": false,
      "t": 283732.72849999997,
      "d": 1470.2798499999917,
      "v": 106
    },
    {
      "midi": 64,
      "hit": false,
      "t": 283732.72849999997,
      "d": 1500.258960416657,
      "v": 120
    },
    {
      "midi": 68,
      "hit": false,
      "t": 283732.72849999997,
      "d": 1504.169279166672,
      "v": 120
    },
    {
      "midi": 52,
      "hit": false,
      "t": 284671.20499999996,
      "d": 477.05888750002487,
      "v": 106
    },
    {
      "midi": 64,
      "hit": false,
      "t": 285296.85599999997,
      "d": 620.4372416666592,
      "v": 118
    },
    {
      "midi": 68,
      "hit": false,
      "t": 285296.85599999997,
      "d": 620.4372416666592,
      "v": 120
    },
    {
      "midi": 71,
      "hit": false,
      "t": 285296.85599999997,
      "d": 620.4372416666592,
      "v": 120
    },
    {
      "midi": 28,
      "hit": false,
      "t": 285296.85599999997,
      "d": 931.9593020833563,
      "v": 120
    },
    {
      "midi": 40,
      "hit": false,
      "t": 285296.85599999997,
      "d": 931.9593020833563,
      "v": 120
    },
    {
      "midi": 71,
      "hit": false,
      "t": 285922.507,
      "d": 307.61174166668206,
      "v": 120
    },
    {
      "midi": 52,
      "hit": false,
      "t": 285922.507,
      "d": 1058.3929416667088,
      "v": 106
    },
    {
      "midi": 73,
      "hit": false,
      "t": 286235.3325,
      "d": 531.803350000002,
      "v": 106
    },
    {
      "midi": 64,
      "hit": false,
      "t": 286235.3325,
      "d": 561.7824604166672,
      "v": 120
    },
    {
      "midi": 68,
      "hit": false,
      "t": 286235.3325,
      "d": 565.6927791666822,
      "v": 120
    },
    {
      "midi": 28,
      "hit": false,
      "t": 286235.3325,
      "d": 1401.1975520833512,
      "v": 120
    },
    {
      "midi": 40,
      "hit": false,
      "t": 286235.3325,
      "d": 1401.1975520833512,
      "v": 120
    },
    {
      "midi": 64,
      "hit": false,
      "t": 286860.98350000003,
      "d": 426.22474375000456,
      "v": 120
    },
    {
      "midi": 68,
      "hit": false,
      "t": 286860.98350000003,
      "d": 765.1190354166902,
      "v": 120
    },
    {
      "midi": 75,
      "hit": false,
      "t": 286860.98350000003,
      "d": 793.794706250017,
      "v": 111
    },
    {
      "midi": 52,
      "hit": false,
      "t": 287173.809,
      "d": 477.05888750002487,
      "v": 106
    },
    {
      "midi": 64,
      "hit": false,
      "t": 287486.63450000004,
      "d": 156.4127500000177,
      "v": 96
    },
    {
      "midi": 61,
      "hit": false,
      "t": 287799.46,
      "d": 826.3806958333007,
      "v": 120
    },
    {
      "midi": 30,
      "hit": false,
      "t": 287799.46,
      "d": 1094.8892500000075,
      "v": 117
    },
    {
      "midi": 42,
      "hit": false,
      "t": 287799.46,
      "d": 1094.8892500000075,
      "v": 117
    },
    {
      "midi": 66,
      "hit": false,
      "t": 287799.46,
      "d": 1402.5009916666895,
      "v": 120
    },
    {
      "midi": 70,
      "hit": false,
      "t": 287799.46,
      "d": 1402.5009916666895,
      "v": 120
    },
    {
      "midi": 54,
      "hit": false,
      "t": 288112.2855,
      "d": 494.00360208330676,
      "v": 120
    },
    {
      "midi": 54,
      "hit": false,
      "t": 288737.9365,
      "d": 314.1289395833737,
      "v": 120
    },
    {
      "midi": 61,
      "hit": false,
      "t": 288737.9365,
      "d": 357.14244583336404,
      "v": 120
    },
    {
      "midi": 30,
      "hit": false,
      "t": 289363.5875,
      "d": 933.2627416666946,
      "v": 117
    },
    {
      "midi": 42,
      "hit": false,
      "t": 289363.5875,
      "d": 933.2627416666946,
      "v": 117
    },
    {
      "midi": 54,
      "hit": false,
      "t": 289363.5875,
      "d": 933.2627416666946,
      "v": 120
    },
    {
      "midi": 61,
      "hit": false,
      "t": 289363.5875,
      "d": 933.2627416666946,
      "v": 120
    },
    {
      "midi": 66,
      "hit": false,
      "t": 289363.5875,
      "d": 933.2627416666946,
      "v": 120
    },
    {
      "midi": 71,
      "hit": false,
      "t": 289363.5875,
      "d": 933.2627416666946,
      "v": 120
    },
    {
      "midi": 70,
      "hit": false,
      "t": 290302.0640000001,
      "d": 471.84512916667154,
      "v": 120
    },
    {
      "midi": 66,
      "hit": false,
      "t": 290302.0640000001,
      "d": 595.6718895833474,
      "v": 120
    },
    {
      "midi": 54,
      "hit": false,
      "t": 290302.0640000001,
      "d": 606.0994062499958,
      "v": 120
    },
    {
      "midi": 30,
      "hit": false,
      "t": 290302.0640000001,
      "d": 782.0637500000303,
      "v": 117
    },
    {
      "midi": 42,
      "hit": false,
      "t": 290302.0640000001,
      "d": 782.0637500000303,
      "v": 117
    },
    {
      "midi": 61,
      "hit": false,
      "t": 290614.88950000005,
      "d": 329.7702145833755,
      "v": 111
    },
    {
      "midi": 66,
      "hit": false,
      "t": 290927.7150000001,
      "d": 67.7788583333604,
      "v": 81
    },
    {
      "midi": 66,
      "hit": false,
      "t": 291240.5405000001,
      "d": 505.73455833335174,
      "v": 120
    },
    {
      "midi": 54,
      "hit": false,
      "t": 291240.5405000001,
      "d": 680.3954624999897,
      "v": 120
    },
    {
      "midi": 71,
      "hit": false,
      "t": 291240.5405000001,
      "d": 724.7124083333183,
      "v": 120
    },
    {
      "midi": 61,
      "hit": false,
      "t": 291240.5405000001,
      "d": 727.319287499995,
      "v": 118
    },
    {
      "midi": 30,
      "hit": false,
      "t": 291240.5405000001,
      "d": 782.0637499999721,
      "v": 117
    },
    {
      "midi": 42,
      "hit": false,
      "t": 291240.5405000001,
      "d": 782.0637499999721,
      "v": 117
    },
    {
      "midi": 66,
      "hit": false,
      "t": 291866.19150000013,
      "d": 245.04664166661678,
      "v": 60
    },
    {
      "midi": 54,
      "hit": false,
      "t": 292179.0170000001,
      "d": 620.4372416666592,
      "v": 120
    },
    {
      "midi": 61,
      "hit": false,
      "t": 292179.0170000001,
      "d": 620.4372416666592,
      "v": 120
    },
    {
      "midi": 66,
      "hit": false,
      "t": 292179.0170000001,
      "d": 620.4372416666592,
      "v": 120
    },
    {
      "midi": 70,
      "hit": false,
      "t": 292179.0170000001,
      "d": 620.4372416666592,
      "v": 120
    },
    {
      "midi": 30,
      "hit": false,
      "t": 292179.0170000001,
      "d": 625.6510000000126,
      "v": 117
    },
    {
      "midi": 42,
      "hit": false,
      "t": 292179.0170000001,
      "d": 625.6510000000126,
      "v": 117
    },
    {
      "midi": 68,
      "hit": false,
      "t": 292804.6680000001,
      "d": 654.3266708333394,
      "v": 120
    },
    {
      "midi": 59,
      "hit": false,
      "t": 292804.6680000001,
      "d": 671.2713854166795,
      "v": 118
    },
    {
      "midi": 64,
      "hit": false,
      "t": 292804.6680000001,
      "d": 686.9126604166813,
      "v": 120
    },
    {
      "midi": 28,
      "hit": false,
      "t": 292804.6680000001,
      "d": 2339.674052083341,
      "v": 120
    },
    {
      "midi": 40,
      "hit": false,
      "t": 292804.6680000001,
      "d": 2339.674052083341,
      "v": 120
    },
    {
      "midi": 52,
      "hit": false,
      "t": 293430.31900000013,
      "d": 1058.3929416666506,
      "v": 106
    },
    {
      "midi": 68,
      "hit": false,
      "t": 293743.1445000001,
      "d": 531.803350000002,
      "v": 106
    },
    {
      "midi": 59,
      "hit": false,
      "t": 293743.1445000001,
      "d": 561.7824604166672,
      "v": 120
    },
    {
      "midi": 64,
      "hit": false,
      "t": 293743.1445000001,
      "d": 565.6927791666822,
      "v": 120
    },
    {
      "midi": 59,
      "hit": false,
      "t": 294368.7955000001,
      "d": 426.22474375000456,
      "v": 120
    },
    {
      "midi": 64,
      "hit": false,
      "t": 294368.7955000001,
      "d": 765.1190354166902,
      "v": 120
    },
    {
      "midi": 68,
      "hit": false,
      "t": 294368.7955000001,
      "d": 793.794706250017,
      "v": 111
    },
    {
      "midi": 52,
      "hit": false,
      "t": 294681.6210000001,
      "d": 477.05888750002487,
      "v": 106
    },
    {
      "midi": 59,
      "hit": false,
      "t": 294994.44650000014,
      "d": 156.4127500000177,
      "v": 96
    },
    {
      "midi": 37,
      "hit": false,
      "t": 295307.2720000001,
      "d": 1637.1201166665996,
      "v": 120
    },
    {
      "midi": 49,
      "hit": false,
      "t": 295307.2720000001,
      "d": 1637.1201166665996,
      "v": 120
    },
    {
      "midi": 56,
      "hit": false,
      "t": 295620.0975000001,
      "d": 890.2492354166461,
      "v": 118
    },
    {
      "midi": 68,
      "hit": false,
      "t": 295932.92300000007,
      "d": 224.1916083333199,
      "v": 111
    },
    {
      "midi": 64,
      "hit": false,
      "t": 295932.92300000007,
      "d": 229.40536666667322,
      "v": 120
    },
    {
      "midi": 59,
      "hit": false,
      "t": 295932.92300000007,
      "d": 238.52944374998333,
      "v": 118
    },
    {
      "midi": 59,
      "hit": false,
      "t": 296245.74850000005,
      "d": 405.3697104167077,
      "v": 118
    },
    {
      "midi": 64,
      "hit": false,
      "t": 296245.74850000005,
      "d": 409.28002916672267,
      "v": 120
    },
    {
      "midi": 68,
      "hit": false,
      "t": 296245.74850000005,
      "d": 419.7075458333711,
      "v": 118
    },
    {
      "midi": 56,
      "hit": false,
      "t": 296558.5740000001,
      "d": 384.5146770832944,
      "v": 92
    },
    {
      "midi": 59,
      "hit": false,
      "t": 296871.39950000006,
      "d": 486.182964583335,
      "v": 120
    },
    {
      "midi": 64,
      "hit": false,
      "t": 296871.39950000006,
      "d": 763.8155958332936,
      "v": 120
    },
    {
      "midi": 68,
      "hit": false,
      "t": 296871.39950000006,
      "d": 795.0981458332972,
      "v": 120
    },
    {
      "midi": 56,
      "hit": false,
      "t": 297184.22500000003,
      "d": 428.8316229166812,
      "v": 111
    },
    {
      "midi": 37,
      "hit": false,
      "t": 297184.22500000003,
      "d": 437.95569999999134,
      "v": 111
    },
    {
      "midi": 49,
      "hit": false,
      "t": 297184.22500000003,
      "d": 437.95569999999134,
      "v": 111
    },
    {
      "midi": 59,
      "hit": false,
      "t": 297497.05050000007,
      "d": 139.4680354166194,
      "v": 100
    },
    {
      "midi": 61,
      "hit": false,
      "t": 297809.87600000005,
      "d": 826.3806958333007,
      "v": 120
    },
    {
      "midi": 30,
      "hit": false,
      "t": 297809.87600000005,
      "d": 1094.8892500000075,
      "v": 117
    },
    {
      "midi": 42,
      "hit": false,
      "t": 297809.87600000005,
      "d": 1094.8892500000075,
      "v": 117
    },
    {
      "midi": 66,
      "hit": false,
      "t": 297809.87600000005,
      "d": 1402.5009916666895,
      "v": 120
    },
    {
      "midi": 70,
      "hit": false,
      "t": 297809.87600000005,
      "d": 1402.5009916666895,
      "v": 120
    },
    {
      "midi": 54,
      "hit": false,
      "t": 298122.7015,
      "d": 494.00360208330676,
      "v": 120
    },
    {
      "midi": 54,
      "hit": false,
      "t": 298748.35250000004,
      "d": 314.1289395833737,
      "v": 120
    },
    {
      "midi": 61,
      "hit": false,
      "t": 298748.35250000004,
      "d": 357.14244583336404,
      "v": 120
    },
    {
      "midi": 30,
      "hit": false,
      "t": 299374.00350000005,
      "d": 933.2627416666946,
      "v": 117
    },
    {
      "midi": 42,
      "hit": false,
      "t": 299374.00350000005,
      "d": 933.2627416666946,
      "v": 117
    },
    {
      "midi": 54,
      "hit": false,
      "t": 299374.00350000005,
      "d": 933.2627416666946,
      "v": 120
    },
    {
      "midi": 61,
      "hit": false,
      "t": 299374.00350000005,
      "d": 933.2627416666946,
      "v": 120
    },
    {
      "midi": 66,
      "hit": false,
      "t": 299374.00350000005,
      "d": 933.2627416666946,
      "v": 120
    },
    {
      "midi": 71,
      "hit": false,
      "t": 299374.00350000005,
      "d": 933.2627416666946,
      "v": 120
    },
    {
      "midi": 70,
      "hit": false,
      "t": 300312.4800000001,
      "d": 471.84512916667154,
      "v": 120
    },
    {
      "midi": 66,
      "hit": false,
      "t": 300312.4800000001,
      "d": 595.6718895833474,
      "v": 120
    },
    {
      "midi": 54,
      "hit": false,
      "t": 300312.4800000001,
      "d": 606.0994062499958,
      "v": 120
    },
    {
      "midi": 30,
      "hit": false,
      "t": 300312.4800000001,
      "d": 782.0637500000303,
      "v": 117
    },
    {
      "midi": 42,
      "hit": false,
      "t": 300312.4800000001,
      "d": 782.0637500000303,
      "v": 117
    },
    {
      "midi": 61,
      "hit": false,
      "t": 300625.3055000001,
      "d": 329.7702145833755,
      "v": 111
    },
    {
      "midi": 66,
      "hit": false,
      "t": 300938.1310000001,
      "d": 67.7788583333604,
      "v": 81
    },
    {
      "midi": 66,
      "hit": false,
      "t": 301250.95650000015,
      "d": 505.73455833335174,
      "v": 120
    },
    {
      "midi": 54,
      "hit": false,
      "t": 301250.95650000015,
      "d": 680.3954624999897,
      "v": 120
    },
    {
      "midi": 71,
      "hit": false,
      "t": 301250.95650000015,
      "d": 724.7124083333183,
      "v": 120
    },
    {
      "midi": 61,
      "hit": false,
      "t": 301250.95650000015,
      "d": 727.319287499995,
      "v": 118
    },
    {
      "midi": 30,
      "hit": false,
      "t": 301250.95650000015,
      "d": 782.0637499999721,
      "v": 117
    },
    {
      "midi": 42,
      "hit": false,
      "t": 301250.95650000015,
      "d": 782.0637499999721,
      "v": 117
    },
    {
      "midi": 66,
      "hit": false,
      "t": 301876.60750000016,
      "d": 245.04664166661678,
      "v": 60
    },
    {
      "midi": 54,
      "hit": false,
      "t": 302189.43300000014,
      "d": 620.4372416666592,
      "v": 120
    },
    {
      "midi": 61,
      "hit": false,
      "t": 302189.43300000014,
      "d": 620.4372416666592,
      "v": 120
    },
    {
      "midi": 66,
      "hit": false,
      "t": 302189.43300000014,
      "d": 620.4372416666592,
      "v": 120
    },
    {
      "midi": 70,
      "hit": false,
      "t": 302189.43300000014,
      "d": 620.4372416666592,
      "v": 120
    },
    {
      "midi": 30,
      "hit": false,
      "t": 302189.43300000014,
      "d": 625.6510000000126,
      "v": 117
    },
    {
      "midi": 42,
      "hit": false,
      "t": 302189.43300000014,
      "d": 625.6510000000126,
      "v": 117
    },
    {
      "midi": 68,
      "hit": false,
      "t": 302815.08400000015,
      "d": 654.3266708333394,
      "v": 120
    },
    {
      "midi": 59,
      "hit": false,
      "t": 302815.08400000015,
      "d": 671.2713854166795,
      "v": 118
    },
    {
      "midi": 64,
      "hit": false,
      "t": 302815.08400000015,
      "d": 686.9126604166813,
      "v": 120
    },
    {
      "midi": 28,
      "hit": false,
      "t": 302815.08400000015,
      "d": 2339.674052083341,
      "v": 120
    },
    {
      "midi": 40,
      "hit": false,
      "t": 302815.08400000015,
      "d": 2339.674052083341,
      "v": 120
    },
    {
      "midi": 52,
      "hit": false,
      "t": 303440.73500000016,
      "d": 1058.3929416666506,
      "v": 106
    },
    {
      "midi": 68,
      "hit": false,
      "t": 303753.56050000014,
      "d": 531.803350000002,
      "v": 106
    },
    {
      "midi": 59,
      "hit": false,
      "t": 303753.56050000014,
      "d": 561.7824604166672,
      "v": 120
    },
    {
      "midi": 64,
      "hit": false,
      "t": 303753.56050000014,
      "d": 565.6927791666822,
      "v": 120
    },
    {
      "midi": 59,
      "hit": false,
      "t": 304379.21150000015,
      "d": 426.22474375000456,
      "v": 120
    },
    {
      "midi": 64,
      "hit": false,
      "t": 304379.21150000015,
      "d": 765.1190354166902,
      "v": 120
    },
    {
      "midi": 68,
      "hit": false,
      "t": 304379.21150000015,
      "d": 793.794706250017,
      "v": 111
    },
    {
      "midi": 52,
      "hit": false,
      "t": 304692.0370000001,
      "d": 477.05888750002487,
      "v": 106
    },
    {
      "midi": 59,
      "hit": false,
      "t": 305004.86250000016,
      "d": 156.4127500000177,
      "v": 96
    },
    {
      "midi": 37,
      "hit": false,
      "t": 305317.68800000014,
      "d": 1637.1201166665996,
      "v": 120
    },
    {
      "midi": 49,
      "hit": false,
      "t": 305317.68800000014,
      "d": 1637.1201166665996,
      "v": 120
    },
    {
      "midi": 56,
      "hit": false,
      "t": 305630.5135000001,
      "d": 890.2492354166461,
      "v": 118
    },
    {
      "midi": 68,
      "hit": false,
      "t": 305943.3390000001,
      "d": 224.1916083333199,
      "v": 111
    },
    {
      "midi": 64,
      "hit": false,
      "t": 305943.3390000001,
      "d": 229.40536666667322,
      "v": 120
    },
    {
      "midi": 59,
      "hit": false,
      "t": 305943.3390000001,
      "d": 238.52944374998333,
      "v": 118
    },
    {
      "midi": 59,
      "hit": false,
      "t": 306256.1645000001,
      "d": 405.3697104167077,
      "v": 118
    },
    {
      "midi": 64,
      "hit": false,
      "t": 306256.1645000001,
      "d": 409.28002916672267,
      "v": 120
    },
    {
      "midi": 68,
      "hit": false,
      "t": 306256.1645000001,
      "d": 419.7075458333711,
      "v": 118
    },
    {
      "midi": 56,
      "hit": false,
      "t": 306568.9900000001,
      "d": 384.5146770832944,
      "v": 92
    },
    {
      "midi": 59,
      "hit": false,
      "t": 306881.8155000001,
      "d": 486.182964583335,
      "v": 120
    },
    {
      "midi": 64,
      "hit": false,
      "t": 306881.8155000001,
      "d": 763.8155958332936,
      "v": 120
    },
    {
      "midi": 68,
      "hit": false,
      "t": 306881.8155000001,
      "d": 795.0981458332972,
      "v": 120
    },
    {
      "midi": 56,
      "hit": false,
      "t": 307194.64100000006,
      "d": 428.8316229166812,
      "v": 111
    },
    {
      "midi": 37,
      "hit": false,
      "t": 307194.64100000006,
      "d": 437.95569999999134,
      "v": 111
    },
    {
      "midi": 49,
      "hit": false,
      "t": 307194.64100000006,
      "d": 437.95569999999134,
      "v": 111
    },
    {
      "midi": 59,
      "hit": false,
      "t": 307507.4665000001,
      "d": 139.4680354166194,
      "v": 100
    },
    {
      "midi": 61,
      "hit": false,
      "t": 307820.2920000001,
      "d": 826.3806958333007,
      "v": 120
    },
    {
      "midi": 30,
      "hit": false,
      "t": 307820.2920000001,
      "d": 1094.8892500000075,
      "v": 117
    },
    {
      "midi": 42,
      "hit": false,
      "t": 307820.2920000001,
      "d": 1094.8892500000075,
      "v": 117
    },
    {
      "midi": 66,
      "hit": false,
      "t": 307820.2920000001,
      "d": 1402.5009916666895,
      "v": 120
    },
    {
      "midi": 70,
      "hit": false,
      "t": 307820.2920000001,
      "d": 1402.5009916666895,
      "v": 120
    },
    {
      "midi": 54,
      "hit": false,
      "t": 308133.11750000005,
      "d": 494.00360208330676,
      "v": 120
    },
    {
      "midi": 54,
      "hit": false,
      "t": 308758.76850000006,
      "d": 314.1289395833737,
      "v": 120
    },
    {
      "midi": 61,
      "hit": false,
      "t": 308758.76850000006,
      "d": 357.14244583336404,
      "v": 120
    },
    {
      "midi": 30,
      "hit": false,
      "t": 309384.4195000001,
      "d": 933.2627416666946,
      "v": 117
    },
    {
      "midi": 42,
      "hit": false,
      "t": 309384.4195000001,
      "d": 933.2627416666946,
      "v": 117
    },
    {
      "midi": 54,
      "hit": false,
      "t": 309384.4195000001,
      "d": 933.2627416666946,
      "v": 120
    },
    {
      "midi": 61,
      "hit": false,
      "t": 309384.4195000001,
      "d": 933.2627416666946,
      "v": 120
    },
    {
      "midi": 66,
      "hit": false,
      "t": 309384.4195000001,
      "d": 933.2627416666946,
      "v": 120
    },
    {
      "midi": 71,
      "hit": false,
      "t": 309384.4195000001,
      "d": 933.2627416666946,
      "v": 120
    },
    {
      "midi": 70,
      "hit": false,
      "t": 310322.8960000001,
      "d": 471.84512916667154,
      "v": 120
    },
    {
      "midi": 66,
      "hit": false,
      "t": 310322.8960000001,
      "d": 595.6718895833474,
      "v": 120
    },
    {
      "midi": 54,
      "hit": false,
      "t": 310322.8960000001,
      "d": 606.0994062499958,
      "v": 120
    },
    {
      "midi": 30,
      "hit": false,
      "t": 310322.8960000001,
      "d": 782.0637500000303,
      "v": 117
    },
    {
      "midi": 42,
      "hit": false,
      "t": 310322.8960000001,
      "d": 782.0637500000303,
      "v": 117
    },
    {
      "midi": 61,
      "hit": false,
      "t": 310635.7215000001,
      "d": 329.7702145833755,
      "v": 111
    },
    {
      "midi": 66,
      "hit": false,
      "t": 310948.54700000014,
      "d": 67.7788583333604,
      "v": 81
    },
    {
      "midi": 66,
      "hit": false,
      "t": 311261.3725000002,
      "d": 505.73455833335174,
      "v": 120
    },
    {
      "midi": 54,
      "hit": false,
      "t": 311261.3725000002,
      "d": 680.3954624999897,
      "v": 120
    },
    {
      "midi": 71,
      "hit": false,
      "t": 311261.3725000002,
      "d": 724.7124083333183,
      "v": 120
    },
    {
      "midi": 61,
      "hit": false,
      "t": 311261.3725000002,
      "d": 727.319287499995,
      "v": 118
    },
    {
      "midi": 30,
      "hit": false,
      "t": 311261.3725000002,
      "d": 782.0637499999721,
      "v": 117
    },
    {
      "midi": 42,
      "hit": false,
      "t": 311261.3725000002,
      "d": 782.0637499999721,
      "v": 117
    },
    {
      "midi": 66,
      "hit": false,
      "t": 311887.0235000002,
      "d": 245.04664166661678,
      "v": 60
    },
    {
      "midi": 54,
      "hit": false,
      "t": 312199.84900000016,
      "d": 620.4372416666592,
      "v": 120
    },
    {
      "midi": 61,
      "hit": false,
      "t": 312199.84900000016,
      "d": 620.4372416666592,
      "v": 120
    },
    {
      "midi": 66,
      "hit": false,
      "t": 312199.84900000016,
      "d": 620.4372416666592,
      "v": 120
    },
    {
      "midi": 70,
      "hit": false,
      "t": 312199.84900000016,
      "d": 620.4372416666592,
      "v": 120
    },
    {
      "midi": 30,
      "hit": false,
      "t": 312199.84900000016,
      "d": 625.6510000000126,
      "v": 117
    },
    {
      "midi": 42,
      "hit": false,
      "t": 312199.84900000016,
      "d": 625.6510000000126,
      "v": 117
    },
    {
      "midi": 68,
      "hit": false,
      "t": 312825.5000000002,
      "d": 654.3266708333394,
      "v": 120
    },
    {
      "midi": 59,
      "hit": false,
      "t": 312825.5000000002,
      "d": 671.2713854166795,
      "v": 118
    },
    {
      "midi": 64,
      "hit": false,
      "t": 312825.5000000002,
      "d": 686.9126604166813,
      "v": 120
    },
    {
      "midi": 28,
      "hit": false,
      "t": 312825.5000000002,
      "d": 2339.674052083341,
      "v": 120
    },
    {
      "midi": 40,
      "hit": false,
      "t": 312825.5000000002,
      "d": 2339.674052083341,
      "v": 120
    },
    {
      "midi": 52,
      "hit": false,
      "t": 313451.1510000002,
      "d": 1058.3929416666506,
      "v": 106
    },
    {
      "midi": 68,
      "hit": false,
      "t": 313763.97650000016,
      "d": 531.803350000002,
      "v": 106
    },
    {
      "midi": 59,
      "hit": false,
      "t": 313763.97650000016,
      "d": 561.7824604166672,
      "v": 120
    },
    {
      "midi": 64,
      "hit": false,
      "t": 313763.97650000016,
      "d": 565.6927791666822,
      "v": 120
    },
    {
      "midi": 59,
      "hit": false,
      "t": 314389.6275000002,
      "d": 426.22474375000456,
      "v": 120
    },
    {
      "midi": 64,
      "hit": false,
      "t": 314389.6275000002,
      "d": 765.1190354166902,
      "v": 120
    },
    {
      "midi": 68,
      "hit": false,
      "t": 314389.6275000002,
      "d": 793.794706250017,
      "v": 111
    },
    {
      "midi": 52,
      "hit": false,
      "t": 314702.45300000015,
      "d": 477.05888750002487,
      "v": 106
    },
    {
      "midi": 59,
      "hit": false,
      "t": 315015.2785000002,
      "d": 156.4127500000177,
      "v": 96
    },
    {
      "midi": 37,
      "hit": false,
      "t": 315328.10400000017,
      "d": 1637.1201166665996,
      "v": 120
    },
    {
      "midi": 49,
      "hit": false,
      "t": 315328.10400000017,
      "d": 1637.1201166665996,
      "v": 120
    },
    {
      "midi": 56,
      "hit": false,
      "t": 315640.92950000014,
      "d": 890.2492354166461,
      "v": 118
    },
    {
      "midi": 68,
      "hit": false,
      "t": 315953.7550000001,
      "d": 224.1916083333199,
      "v": 111
    },
    {
      "midi": 64,
      "hit": false,
      "t": 315953.7550000001,
      "d": 229.40536666667322,
      "v": 120
    },
    {
      "midi": 59,
      "hit": false,
      "t": 315953.7550000001,
      "d": 238.52944374998333,
      "v": 118
    },
    {
      "midi": 59,
      "hit": false,
      "t": 316266.5805000001,
      "d": 405.3697104167077,
      "v": 118
    },
    {
      "midi": 64,
      "hit": false,
      "t": 316266.5805000001,
      "d": 409.28002916672267,
      "v": 120
    },
    {
      "midi": 68,
      "hit": false,
      "t": 316266.5805000001,
      "d": 419.7075458333711,
      "v": 118
    },
    {
      "midi": 56,
      "hit": false,
      "t": 316579.40600000013,
      "d": 384.5146770832944,
      "v": 92
    },
    {
      "midi": 59,
      "hit": false,
      "t": 316892.2315000001,
      "d": 486.182964583335,
      "v": 120
    },
    {
      "midi": 64,
      "hit": false,
      "t": 316892.2315000001,
      "d": 763.8155958332936,
      "v": 120
    },
    {
      "midi": 68,
      "hit": false,
      "t": 316892.2315000001,
      "d": 795.0981458332972,
      "v": 120
    },
    {
      "midi": 56,
      "hit": false,
      "t": 317205.0570000001,
      "d": 428.8316229166812,
      "v": 111
    },
    {
      "midi": 37,
      "hit": false,
      "t": 317205.0570000001,
      "d": 437.95569999999134,
      "v": 111
    },
    {
      "midi": 49,
      "hit": false,
      "t": 317205.0570000001,
      "d": 437.95569999999134,
      "v": 111
    },
    {
      "midi": 59,
      "hit": false,
      "t": 317517.8825000001,
      "d": 139.4680354166194,
      "v": 100
    },
    {
      "midi": 61,
      "hit": false,
      "t": 317830.7080000001,
      "d": 826.3806958333007,
      "v": 120
    },
    {
      "midi": 30,
      "hit": false,
      "t": 317830.7080000001,
      "d": 1094.8892500000075,
      "v": 117
    },
    {
      "midi": 42,
      "hit": false,
      "t": 317830.7080000001,
      "d": 1094.8892500000075,
      "v": 117
    },
    {
      "midi": 66,
      "hit": false,
      "t": 317830.7080000001,
      "d": 1402.5009916666895,
      "v": 120
    },
    {
      "midi": 70,
      "hit": false,
      "t": 317830.7080000001,
      "d": 1402.5009916666895,
      "v": 120
    },
    {
      "midi": 54,
      "hit": false,
      "t": 318143.5335000001,
      "d": 494.00360208330676,
      "v": 120
    },
    {
      "midi": 54,
      "hit": false,
      "t": 318769.1845000001,
      "d": 314.1289395833737,
      "v": 120
    },
    {
      "midi": 61,
      "hit": false,
      "t": 318769.1845000001,
      "d": 357.14244583336404,
      "v": 120
    },
    {
      "midi": 30,
      "hit": false,
      "t": 319394.8355000001,
      "d": 933.2627416666946,
      "v": 117
    },
    {
      "midi": 42,
      "hit": false,
      "t": 319394.8355000001,
      "d": 933.2627416666946,
      "v": 117
    },
    {
      "midi": 54,
      "hit": false,
      "t": 319394.8355000001,
      "d": 933.2627416666946,
      "v": 120
    },
    {
      "midi": 61,
      "hit": false,
      "t": 319394.8355000001,
      "d": 933.2627416666946,
      "v": 120
    },
    {
      "midi": 66,
      "hit": false,
      "t": 319394.8355000001,
      "d": 933.2627416666946,
      "v": 120
    },
    {
      "midi": 71,
      "hit": false,
      "t": 319394.8355000001,
      "d": 933.2627416666946,
      "v": 120
    },
    {
      "midi": 70,
      "hit": false,
      "t": 320333.31200000015,
      "d": 471.84512916667154,
      "v": 120
    },
    {
      "midi": 66,
      "hit": false,
      "t": 320333.31200000015,
      "d": 595.6718895833474,
      "v": 120
    },
    {
      "midi": 54,
      "hit": false,
      "t": 320333.31200000015,
      "d": 606.0994062499958,
      "v": 120
    },
    {
      "midi": 30,
      "hit": false,
      "t": 320333.31200000015,
      "d": 782.0637500000303,
      "v": 117
    },
    {
      "midi": 42,
      "hit": false,
      "t": 320333.31200000015,
      "d": 782.0637500000303,
      "v": 117
    },
    {
      "midi": 61,
      "hit": false,
      "t": 320646.1375000001,
      "d": 329.7702145833755,
      "v": 111
    },
    {
      "midi": 66,
      "hit": false,
      "t": 320958.96300000016,
      "d": 67.7788583333604,
      "v": 81
    },
    {
      "midi": 66,
      "hit": false,
      "t": 321271.7885000002,
      "d": 505.73455833335174,
      "v": 120
    },
    {
      "midi": 54,
      "hit": false,
      "t": 321271.7885000002,
      "d": 680.3954624999897,
      "v": 120
    },
    {
      "midi": 71,
      "hit": false,
      "t": 321271.7885000002,
      "d": 724.7124083333183,
      "v": 120
    },
    {
      "midi": 61,
      "hit": false,
      "t": 321271.7885000002,
      "d": 727.319287499995,
      "v": 118
    },
    {
      "midi": 30,
      "hit": false,
      "t": 321271.7885000002,
      "d": 782.0637499999721,
      "v": 117
    },
    {
      "midi": 42,
      "hit": false,
      "t": 321271.7885000002,
      "d": 782.0637499999721,
      "v": 117
    },
    {
      "midi": 66,
      "hit": false,
      "t": 321897.4395000002,
      "d": 245.04664166661678,
      "v": 60
    },
    {
      "midi": 54,
      "hit": false,
      "t": 322210.2650000002,
      "d": 620.4372416666592,
      "v": 120
    },
    {
      "midi": 61,
      "hit": false,
      "t": 322210.2650000002,
      "d": 620.4372416666592,
      "v": 120
    },
    {
      "midi": 66,
      "hit": false,
      "t": 322210.2650000002,
      "d": 620.4372416666592,
      "v": 120
    },
    {
      "midi": 70,
      "hit": false,
      "t": 322210.2650000002,
      "d": 620.4372416666592,
      "v": 120
    },
    {
      "midi": 30,
      "hit": false,
      "t": 322210.2650000002,
      "d": 625.6510000000126,
      "v": 117
    },
    {
      "midi": 42,
      "hit": false,
      "t": 322210.2650000002,
      "d": 625.6510000000126,
      "v": 117
    },
    {
      "midi": 68,
      "hit": false,
      "t": 322835.9160000002,
      "d": 654.3266708333394,
      "v": 120
    },
    {
      "midi": 59,
      "hit": false,
      "t": 322835.9160000002,
      "d": 671.2713854166795,
      "v": 118
    },
    {
      "midi": 64,
      "hit": false,
      "t": 322835.9160000002,
      "d": 686.9126604166813,
      "v": 120
    },
    {
      "midi": 28,
      "hit": false,
      "t": 322835.9160000002,
      "d": 2339.674052083341,
      "v": 120
    },
    {
      "midi": 40,
      "hit": false,
      "t": 322835.9160000002,
      "d": 2339.674052083341,
      "v": 120
    },
    {
      "midi": 52,
      "hit": false,
      "t": 323461.5670000002,
      "d": 1058.3929416666506,
      "v": 106
    },
    {
      "midi": 68,
      "hit": false,
      "t": 323774.3925000002,
      "d": 531.803350000002,
      "v": 106
    },
    {
      "midi": 59,
      "hit": false,
      "t": 323774.3925000002,
      "d": 561.7824604166672,
      "v": 120
    },
    {
      "midi": 64,
      "hit": false,
      "t": 323774.3925000002,
      "d": 565.6927791666822,
      "v": 120
    },
    {
      "midi": 59,
      "hit": false,
      "t": 324400.0435000002,
      "d": 426.22474375000456,
      "v": 120
    },
    {
      "midi": 64,
      "hit": false,
      "t": 324400.0435000002,
      "d": 765.1190354166902,
      "v": 120
    },
    {
      "midi": 68,
      "hit": false,
      "t": 324400.0435000002,
      "d": 793.794706250017,
      "v": 111
    },
    {
      "midi": 52,
      "hit": false,
      "t": 324712.8690000002,
      "d": 477.05888750002487,
      "v": 106
    },
    {
      "midi": 59,
      "hit": false,
      "t": 325025.6945000002,
      "d": 156.4127500000177,
      "v": 96
    },
    {
      "midi": 37,
      "hit": false,
      "t": 325338.5200000002,
      "d": 1637.1201166665996,
      "v": 120
    },
    {
      "midi": 49,
      "hit": false,
      "t": 325338.5200000002,
      "d": 1637.1201166665996,
      "v": 120
    },
    {
      "midi": 56,
      "hit": false,
      "t": 325651.34550000017,
      "d": 890.2492354166461,
      "v": 118
    },
    {
      "midi": 68,
      "hit": false,
      "t": 325964.17100000015,
      "d": 224.1916083333199,
      "v": 111
    },
    {
      "midi": 64,
      "hit": false,
      "t": 325964.17100000015,
      "d": 229.40536666667322,
      "v": 120
    },
    {
      "midi": 59,
      "hit": false,
      "t": 325964.17100000015,
      "d": 238.52944374998333,
      "v": 118
    },
    {
      "midi": 59,
      "hit": false,
      "t": 326276.9965000001,
      "d": 405.3697104167077,
      "v": 118
    },
    {
      "midi": 64,
      "hit": false,
      "t": 326276.9965000001,
      "d": 409.28002916672267,
      "v": 120
    },
    {
      "midi": 68,
      "hit": false,
      "t": 326276.9965000001,
      "d": 419.7075458333711,
      "v": 118
    },
    {
      "midi": 56,
      "hit": false,
      "t": 326589.82200000016,
      "d": 384.5146770832944,
      "v": 92
    },
    {
      "midi": 59,
      "hit": false,
      "t": 326902.64750000014,
      "d": 486.182964583335,
      "v": 120
    },
    {
      "midi": 64,
      "hit": false,
      "t": 326902.64750000014,
      "d": 763.8155958332936,
      "v": 120
    },
    {
      "midi": 68,
      "hit": false,
      "t": 326902.64750000014,
      "d": 795.0981458332972,
      "v": 120
    },
    {
      "midi": 56,
      "hit": false,
      "t": 327215.4730000001,
      "d": 428.8316229166812,
      "v": 111
    },
    {
      "midi": 37,
      "hit": false,
      "t": 327215.4730000001,
      "d": 437.95569999999134,
      "v": 111
    },
    {
      "midi": 49,
      "hit": false,
      "t": 327215.4730000001,
      "d": 437.95569999999134,
      "v": 111
    },
    {
      "midi": 59,
      "hit": false,
      "t": 327528.29850000015,
      "d": 139.4680354166194,
      "v": 100
    },
    {
      "midi": 30,
      "hit": false,
      "t": 327841.1240000001,
      "d": 4999.994241666689,
      "v": 117
    },
    {
      "midi": 42,
      "hit": false,
      "t": 327841.1240000001,
      "d": 4999.994241666689,
      "v": 117
    },
    {
      "midi": 61,
      "hit": false,
      "t": 327841.1240000001,
      "d": 4999.994241666689,
      "v": 120
    },
    {
      "midi": 66,
      "hit": false,
      "t": 327841.1240000001,
      "d": 4999.994241666689,
      "v": 120
    },
    {
      "midi": 70,
      "hit": false,
      "t": 327841.1240000001,
      "d": 4999.994241666689,
      "v": 120
    }
  ]
}