{
  "jsonPath": "Soundtracks/French Movie Tunes/Chantal Goya/la-petite-fille-aux-allumettes.json",
  "path": "Soundtracks\\French Movie Tunes\\Chantal Goya\\La petite fille aux allumettes.mid",
  "name": "La petite fille aux allumettes",
  "difficulty": "Advanced",
  "bpm": 60,
  "notes": [
    {
      "midi": 60,
      "hit": false,
      "t": 4000,
      "d": 1000,
      "v": 58
    },
    {
      "midi": 62,
      "hit": false,
      "t": 4000,
      "d": 1000,
      "v": 59
    },
    {
      "midi": 64,
      "hit": false,
      "t": 4000,
      "d": 1000,
      "v": 52
    },
    {
      "midi": 67,
      "hit": false,
      "t": 4500,
      "d": 250,
      "v": 81
    },
    {
      "midi": 76,
      "hit": false,
      "t": 4500,
      "d": 250,
      "v": 99
    },
    {
      "midi": 67,
      "hit": false,
      "t": 4750,
      "d": 500,
      "v": 75
    },
    {
      "midi": 74,
      "hit": false,
      "t": 4750,
      "d": 500,
      "v": 102
    },
    {
      "midi": 59,
      "hit": false,
      "t": 5000,
      "d": 1000,
      "v": 62
    },
    {
      "midi": 67,
      "hit": false,
      "t": 5250,
      "d": 500,
      "v": 91
    },
    {
      "midi": 72,
      "hit": false,
      "t": 5250,
      "d": 500,
      "v": 88
    },
    {
      "midi": 71,
      "hit": false,
      "t": 5750,
      "d": 1000,
      "v": 83
    },
    {
      "midi": 72,
      "hit": false,
      "t": 5750,
      "d": 1000,
      "v": 86
    },
    {
      "midi": 79,
      "hit": false,
      "t": 5750,
      "d": 1250,
      "v": 75
    },
    {
      "midi": 57,
      "hit": false,
      "t": 6000,
      "d": 1000,
      "v": 62
    },
    {
      "midi": 67,
      "hit": false,
      "t": 7000,
      "d": 1000,
      "v": 61
    },
    {
      "midi": 72,
      "hit": false,
      "t": 7000,
      "d": 1000,
      "v": 68
    },
    {
      "midi": 45,
      "hit": false,
      "t": 7000,
      "d": 1000,
      "v": 57
    },
    {
      "midi": 50,
      "hit": false,
      "t": 8000,
      "d": 1000,
      "v": 65
    },
    {
      "midi": 53,
      "hit": false,
      "t": 8000,
      "d": 1000,
      "v": 70
    },
    {
      "midi": 60,
      "hit": false,
      "t": 8000,
      "d": 1000,
      "v": 66
    },
    {
      "midi": 69,
      "hit": false,
      "t": 8500,
      "d": 250,
      "v": 66
    },
    {
      "midi": 72,
      "hit": false,
      "t": 8500,
      "d": 250,
      "v": 72
    },
    {
      "midi": 77,
      "hit": false,
      "t": 8500,
      "d": 250,
      "v": 70
    },
    {
      "midi": 69,
      "hit": false,
      "t": 8750,
      "d": 250,
      "v": 77
    },
    {
      "midi": 72,
      "hit": false,
      "t": 8750,
      "d": 250,
      "v": 84
    },
    {
      "midi": 77,
      "hit": false,
      "t": 8750,
      "d": 250,
      "v": 82
    },
    {
      "midi": 50,
      "hit": false,
      "t": 9000,
      "d": 1000,
      "v": 60
    },
    {
      "midi": 53,
      "hit": false,
      "t": 9000,
      "d": 1000,
      "v": 58
    },
    {
      "midi": 60,
      "hit": false,
      "t": 9000,
      "d": 1000,
      "v": 69
    },
    {
      "midi": 77,
      "hit": false,
      "t": 9250,
      "d": 491.66666666666606,
      "v": 78
    },
    {
      "midi": 81,
      "hit": false,
      "t": 9250,
      "d": 491.66666666666606,
      "v": 93
    },
    {
      "midi": 72,
      "hit": false,
      "t": 9250,
      "d": 500,
      "v": 65
    },
    {
      "midi": 77,
      "hit": false,
      "t": 9750,
      "d": 491.66666666666606,
      "v": 74
    },
    {
      "midi": 81,
      "hit": false,
      "t": 9750,
      "d": 491.66666666666606,
      "v": 91
    },
    {
      "midi": 84,
      "hit": false,
      "t": 9750,
      "d": 491.66666666666606,
      "v": 82
    },
    {
      "midi": 55,
      "hit": false,
      "t": 10000,
      "d": 1000,
      "v": 74
    },
    {
      "midi": 77,
      "hit": false,
      "t": 10250,
      "d": 500,
      "v": 81
    },
    {
      "midi": 81,
      "hit": false,
      "t": 10250,
      "d": 500,
      "v": 86
    },
    {
      "midi": 84,
      "hit": false,
      "t": 10250,
      "d": 500,
      "v": 70
    },
    {
      "midi": 77,
      "hit": false,
      "t": 10750,
      "d": 500,
      "v": 83
    },
    {
      "midi": 81,
      "hit": false,
      "t": 10750,
      "d": 500,
      "v": 99
    },
    {
      "midi": 50,
      "hit": false,
      "t": 11000,
      "d": 1000,
      "v": 62
    },
    {
      "midi": 77,
      "hit": false,
      "t": 11250,
      "d": 250,
      "v": 74
    },
    {
      "midi": 83,
      "hit": false,
      "t": 11250,
      "d": 500,
      "v": 99
    },
    {
      "midi": 72,
      "hit": false,
      "t": 11750,
      "d": 750,
      "v": 64
    },
    {
      "midi": 76,
      "hit": false,
      "t": 11750,
      "d": 750,
      "v": 87
    },
    {
      "midi": 79,
      "hit": false,
      "t": 11750,
      "d": 750,
      "v": 93
    },
    {
      "midi": 60,
      "hit": false,
      "t": 12000,
      "d": 1000,
      "v": 58
    },
    {
      "midi": 62,
      "hit": false,
      "t": 12000,
      "d": 1000,
      "v": 59
    },
    {
      "midi": 64,
      "hit": false,
      "t": 12000,
      "d": 1000,
      "v": 52
    },
    {
      "midi": 67,
      "hit": false,
      "t": 12500,
      "d": 250,
      "v": 81
    },
    {
      "midi": 76,
      "hit": false,
      "t": 12500,
      "d": 250,
      "v": 99
    },
    {
      "midi": 67,
      "hit": false,
      "t": 12750,
      "d": 500,
      "v": 75
    },
    {
      "midi": 74,
      "hit": false,
      "t": 12750,
      "d": 500,
      "v": 102
    },
    {
      "midi": 59,
      "hit": false,
      "t": 13000,
      "d": 1000,
      "v": 62
    },
    {
      "midi": 67,
      "hit": false,
      "t": 13250,
      "d": 500,
      "v": 91
    },
    {
      "midi": 72,
      "hit": false,
      "t": 13250,
      "d": 500,
      "v": 88
    },
    {
      "midi": 71,
      "hit": false,
      "t": 13750,
      "d": 1000,
      "v": 96
    },
    {
      "midi": 72,
      "hit": false,
      "t": 13750,
      "d": 1000,
      "v": 99
    },
    {
      "midi": 79,
      "hit": false,
      "t": 13750,
      "d": 1250,
      "v": 87
    },
    {
      "midi": 57,
      "hit": false,
      "t": 14000,
      "d": 1000,
      "v": 62
    },
    {
      "midi": 67,
      "hit": false,
      "t": 15000,
      "d": 1000,
      "v": 83
    },
    {
      "midi": 72,
      "hit": false,
      "t": 15000,
      "d": 1000,
      "v": 91
    },
    {
      "midi": 45,
      "hit": false,
      "t": 15000,
      "d": 1000,
      "v": 57
    },
    {
      "midi": 50,
      "hit": false,
      "t": 16000,
      "d": 1000,
      "v": 65
    },
    {
      "midi": 53,
      "hit": false,
      "t": 16000,
      "d": 1000,
      "v": 70
    },
    {
      "midi": 60,
      "hit": false,
      "t": 16000,
      "d": 1000,
      "v": 66
    },
    {
      "midi": 69,
      "hit": false,
      "t": 16500,
      "d": 250,
      "v": 66
    },
    {
      "midi": 72,
      "hit": false,
      "t": 16500,
      "d": 250,
      "v": 72
    },
    {
      "midi": 77,
      "hit": false,
      "t": 16500,
      "d": 250,
      "v": 70
    },
    {
      "midi": 69,
      "hit": false,
      "t": 16750,
      "d": 250,
      "v": 77
    },
    {
      "midi": 72,
      "hit": false,
      "t": 16750,
      "d": 250,
      "v": 84
    },
    {
      "midi": 77,
      "hit": false,
      "t": 16750,
      "d": 250,
      "v": 82
    },
    {
      "midi": 50,
      "hit": false,
      "t": 17000,
      "d": 1000,
      "v": 60
    },
    {
      "midi": 53,
      "hit": false,
      "t": 17000,
      "d": 1000,
      "v": 58
    },
    {
      "midi": 60,
      "hit": false,
      "t": 17000,
      "d": 1000,
      "v": 69
    },
    {
      "midi": 77,
      "hit": false,
      "t": 17250,
      "d": 491.6666666666679,
      "v": 78
    },
    {
      "midi": 81,
      "hit": false,
      "t": 17250,
      "d": 491.6666666666679,
      "v": 93
    },
    {
      "midi": 72,
      "hit": false,
      "t": 17250,
      "d": 500,
      "v": 65
    },
    {
      "midi": 77,
      "hit": false,
      "t": 17750,
      "d": 491.6666666666679,
      "v": 74
    },
    {
      "midi": 81,
      "hit": false,
      "t": 17750,
      "d": 491.6666666666679,
      "v": 91
    },
    {
      "midi": 84,
      "hit": false,
      "t": 17750,
      "d": 491.6666666666679,
      "v": 82
    },
    {
      "midi": 55,
      "hit": false,
      "t": 18000,
      "d": 1000,
      "v": 74
    },
    {
      "midi": 77,
      "hit": false,
      "t": 18250,
      "d": 500,
      "v": 81
    },
    {
      "midi": 81,
      "hit": false,
      "t": 18250,
      "d": 500,
      "v": 86
    },
    {
      "midi": 84,
      "hit": false,
      "t": 18250,
      "d": 500,
      "v": 70
    },
    {
      "midi": 77,
      "hit": false,
      "t": 18750,
      "d": 500,
      "v": 71
    },
    {
      "midi": 81,
      "hit": false,
      "t": 18750,
      "d": 500,
      "v": 86
    },
    {
      "midi": 50,
      "hit": false,
      "t": 19000,
      "d": 1000,
      "v": 62
    },
    {
      "midi": 77,
      "hit": false,
      "t": 19250,
      "d": 250,
      "v": 74
    },
    {
      "midi": 83,
      "hit": false,
      "t": 19250,
      "d": 500,
      "v": 99
    },
    {
      "midi": 72,
      "hit": false,
      "t": 19750,
      "d": 750,
      "v": 64
    },
    {
      "midi": 76,
      "hit": false,
      "t": 19750,
      "d": 750,
      "v": 87
    },
    {
      "midi": 79,
      "hit": false,
      "t": 19750,
      "d": 750,
      "v": 93
    },
    {
      "midi": 48,
      "hit": false,
      "t": 20000,
      "d": 991.6666666666679,
      "v": 74
    },
    {
      "midi": 55,
      "hit": false,
      "t": 21000,
      "d": 991.6666666666679,
      "v": 69
    },
    {
      "midi": 72,
      "hit": false,
      "t": 21500,
      "d": 250,
      "v": 71
    },
    {
      "midi": 71,
      "hit": false,
      "t": 21750,
      "d": 250,
      "v": 51
    },
    {
      "midi": 64,
      "hit": false,
      "t": 22000,
      "d": 1250,
      "v": 78
    },
    {
      "midi": 72,
      "hit": false,
      "t": 22000,
      "d": 1250,
      "v": 74
    },
    {
      "midi": 45,
      "hit": false,
      "t": 22000,
      "d": 991.6666666666679,
      "v": 72
    },
    {
      "midi": 52,
      "hit": false,
      "t": 23000,
      "d": 991.6666666666679,
      "v": 62
    },
    {
      "midi": 55,
      "hit": false,
      "t": 23000,
      "d": 991.6666666666679,
      "v": 68
    },
    {
      "midi": 60,
      "hit": false,
      "t": 23000,
      "d": 991.6666666666679,
      "v": 68
    },
    {
      "midi": 72,
      "hit": false,
      "t": 23500,
      "d": 250,
      "v": 74
    },
    {
      "midi": 71,
      "hit": false,
      "t": 23750,
      "d": 250,
      "v": 66
    },
    {
      "midi": 64,
      "hit": false,
      "t": 24000,
      "d": 991.6666666666679,
      "v": 46
    },
    {
      "midi": 65,
      "hit": false,
      "t": 24000,
      "d": 991.6666666666679,
      "v": 63
    },
    {
      "midi": 72,
      "hit": false,
      "t": 24000,
      "d": 991.6666666666679,
      "v": 59
    },
    {
      "midi": 50,
      "hit": false,
      "t": 24000,
      "d": 1991.6666666666679,
      "v": 68
    },
    {
      "midi": 64,
      "hit": false,
      "t": 25000,
      "d": 991.6666666666679,
      "v": 51
    },
    {
      "midi": 65,
      "hit": false,
      "t": 25000,
      "d": 991.6666666666679,
      "v": 59
    },
    {
      "midi": 72,
      "hit": false,
      "t": 25000,
      "d": 991.6666666666679,
      "v": 59
    },
    {
      "midi": 59,
      "hit": false,
      "t": 26000,
      "d": 991.6666666666679,
      "v": 57
    },
    {
      "midi": 62,
      "hit": false,
      "t": 26000,
      "d": 991.6666666666679,
      "v": 65
    },
    {
      "midi": 65,
      "hit": false,
      "t": 26000,
      "d": 991.6666666666679,
      "v": 57
    },
    {
      "midi": 43,
      "hit": false,
      "t": 26000,
      "d": 991.6666666666679,
      "v": 59
    },
    {
      "midi": 55,
      "hit": false,
      "t": 27000,
      "d": 991.6666666666679,
      "v": 52
    },
    {
      "midi": 59,
      "hit": false,
      "t": 27000,
      "d": 991.6666666666679,
      "v": 63
    },
    {
      "midi": 62,
      "hit": false,
      "t": 27000,
      "d": 991.6666666666679,
      "v": 63
    },
    {
      "midi": 31,
      "hit": false,
      "t": 27000,
      "d": 991.6666666666679,
      "v": 64
    },
    {
      "midi": 60,
      "hit": false,
      "t": 28000,
      "d": 1000,
      "v": 55
    },
    {
      "midi": 62,
      "hit": false,
      "t": 28000,
      "d": 1000,
      "v": 73
    },
    {
      "midi": 67,
      "hit": false,
      "t": 28000,
      "d": 1000,
      "v": 69
    },
    {
      "midi": 48,
      "hit": false,
      "t": 28000,
      "d": 1000,
      "v": 74
    },
    {
      "midi": 55,
      "hit": false,
      "t": 29000,
      "d": 1000,
      "v": 69
    },
    {
      "midi": 72,
      "hit": false,
      "t": 29500,
      "d": 250,
      "v": 73
    },
    {
      "midi": 71,
      "hit": false,
      "t": 29750,
      "d": 250,
      "v": 65
    },
    {
      "midi": 64,
      "hit": false,
      "t": 30000,
      "d": 1250,
      "v": 73
    },
    {
      "midi": 72,
      "hit": false,
      "t": 30000,
      "d": 1250,
      "v": 79
    },
    {
      "midi": 45,
      "hit": false,
      "t": 30000,
      "d": 1000,
      "v": 72
    },
    {
      "midi": 52,
      "hit": false,
      "t": 31000,
      "d": 1000,
      "v": 62
    },
    {
      "midi": 55,
      "hit": false,
      "t": 31000,
      "d": 1000,
      "v": 68
    },
    {
      "midi": 60,
      "hit": false,
      "t": 31000,
      "d": 1000,
      "v": 68
    },
    {
      "midi": 72,
      "hit": false,
      "t": 31500,
      "d": 250,
      "v": 74
    },
    {
      "midi": 71,
      "hit": false,
      "t": 31750,
      "d": 250,
      "v": 60
    },
    {
      "midi": 62,
      "hit": false,
      "t": 32000,
      "d": 1991.6666666666642,
      "v": 64
    },
    {
      "midi": 65,
      "hit": false,
      "t": 32000,
      "d": 1991.6666666666642,
      "v": 79
    },
    {
      "midi": 72,
      "hit": false,
      "t": 32000,
      "d": 1991.6666666666642,
      "v": 79
    },
    {
      "midi": 50,
      "hit": false,
      "t": 32000,
      "d": 2000,
      "v": 69
    },
    {
      "midi": 57,
      "hit": false,
      "t": 33000,
      "d": 750,
      "v": 62
    },
    {
      "midi": 60,
      "hit": false,
      "t": 33000,
      "d": 750,
      "v": 74
    },
    {
      "midi": 65,
      "hit": false,
      "t": 33000,
      "d": 750,
      "v": 67
    },
    {
      "midi": 55,
      "hit": false,
      "t": 34000,
      "d": 750,
      "v": 74
    },
    {
      "midi": 60,
      "hit": false,
      "t": 34000,
      "d": 750,
      "v": 80
    },
    {
      "midi": 43,
      "hit": false,
      "t": 34000,
      "d": 1000,
      "v": 70
    },
    {
      "midi": 65,
      "hit": false,
      "t": 34000,
      "d": 1000,
      "v": 70
    },
    {
      "midi": 31,
      "hit": false,
      "t": 35000,
      "d": 1000,
      "v": 78
    },
    {
      "midi": 55,
      "hit": false,
      "t": 35000,
      "d": 1000,
      "v": 74
    },
    {
      "midi": 59,
      "hit": false,
      "t": 35000,
      "d": 1000,
      "v": 74
    },
    {
      "midi": 62,
      "hit": false,
      "t": 35000,
      "d": 1000,
      "v": 73
    },
    {
      "midi": 62,
      "hit": false,
      "t": 36000,
      "d": 1750,
      "v": 72
    },
    {
      "midi": 67,
      "hit": false,
      "t": 36000,
      "d": 1750,
      "v": 88
    },
    {
      "midi": 71,
      "hit": false,
      "t": 36000,
      "d": 1750,
      "v": 75
    },
    {
      "midi": 40,
      "hit": false,
      "t": 36000,
      "d": 2000,
      "v": 63
    },
    {
      "midi": 52,
      "hit": false,
      "t": 37750,
      "d": 250,
      "v": 48
    },
    {
      "midi": 61,
      "hit": false,
      "t": 38000,
      "d": 750,
      "v": 72
    },
    {
      "midi": 64,
      "hit": false,
      "t": 38000,
      "d": 750,
      "v": 74
    },
    {
      "midi": 45,
      "hit": false,
      "t": 38000,
      "d": 1000,
      "v": 57
    },
    {
      "midi": 67,
      "hit": false,
      "t": 38000,
      "d": 1000,
      "v": 62
    },
    {
      "midi": 33,
      "hit": false,
      "t": 39000,
      "d": 1000,
      "v": 75
    },
    {
      "midi": 55,
      "hit": false,
      "t": 39000,
      "d": 1000,
      "v": 75
    },
    {
      "midi": 61,
      "hit": false,
      "t": 39000,
      "d": 1000,
      "v": 72
    },
    {
      "midi": 64,
      "hit": false,
      "t": 39000,
      "d": 1000,
      "v": 75
    },
    {
      "midi": 53,
      "hit": false,
      "t": 40000,
      "d": 1241.6666666666642,
      "v": 60
    },
    {
      "midi": 38,
      "hit": false,
      "t": 40000,
      "d": 1250,
      "v": 63
    },
    {
      "midi": 57,
      "hit": false,
      "t": 40000,
      "d": 1250,
      "v": 73
    },
    {
      "midi": 62,
      "hit": false,
      "t": 40000,
      "d": 1250,
      "v": 72
    },
    {
      "midi": 55,
      "hit": false,
      "t": 41250,
      "d": 491.66666666666424,
      "v": 66
    },
    {
      "midi": 59,
      "hit": false,
      "t": 41250,
      "d": 491.66666666666424,
      "v": 68
    },
    {
      "midi": 64,
      "hit": false,
      "t": 41250,
      "d": 491.66666666666424,
      "v": 84
    },
    {
      "midi": 40,
      "hit": false,
      "t": 41250,
      "d": 500,
      "v": 66
    },
    {
      "midi": 56,
      "hit": false,
      "t": 41750,
      "d": 1241.6666666666642,
      "v": 79
    },
    {
      "midi": 41,
      "hit": false,
      "t": 41750,
      "d": 1250,
      "v": 77
    },
    {
      "midi": 60,
      "hit": false,
      "t": 41750,
      "d": 1250,
      "v": 88
    },
    {
      "midi": 65,
      "hit": false,
      "t": 41750,
      "d": 1250,
      "v": 84
    },
    {
      "midi": 43,
      "hit": false,
      "t": 43000,
      "d": 1000,
      "v": 63
    },
    {
      "midi": 55,
      "hit": false,
      "t": 43000,
      "d": 1000,
      "v": 77
    },
    {
      "midi": 64,
      "hit": false,
      "t": 44000,
      "d": 991.6666666666642,
      "v": 69
    },
    {
      "midi": 67,
      "hit": false,
      "t": 44000,
      "d": 991.6666666666642,
      "v": 86
    },
    {
      "midi": 74,
      "hit": false,
      "t": 44000,
      "d": 991.6666666666642,
      "v": 90
    },
    {
      "midi": 48,
      "hit": false,
      "t": 44000,
      "d": 433.33333333333576,
      "v": 80
    },
    {
      "midi": 36,
      "hit": false,
      "t": 44500,
      "d": 525,
      "v": 68
    },
    {
      "midi": 72,
      "hit": false,
      "t": 45000,
      "d": 491.66666666666424,
      "v": 97
    },
    {
      "midi": 43,
      "hit": false,
      "t": 45000,
      "d": 533.3333333333358,
      "v": 78
    },
    {
      "midi": 67,
      "hit": false,
      "t": 45500,
      "d": 491.66666666666424,
      "v": 88
    },
    {
      "midi": 48,
      "hit": false,
      "t": 45500,
      "d": 533.3333333333358,
      "v": 77
    },
    {
      "midi": 64,
      "hit": false,
      "t": 46000,
      "d": 991.6666666666642,
      "v": 77
    },
    {
      "midi": 67,
      "hit": false,
      "t": 46000,
      "d": 991.6666666666642,
      "v": 86
    },
    {
      "midi": 70,
      "hit": false,
      "t": 46000,
      "d": 991.6666666666642,
      "v": 82
    },
    {
      "midi": 36,
      "hit": false,
      "t": 46000,
      "d": 800,
      "v": 84
    },
    {
      "midi": 43,
      "hit": false,
      "t": 46750,
      "d": 316.66666666666424,
      "v": 60
    },
    {
      "midi": 58,
      "hit": false,
      "t": 47000,
      "d": 991.6666666666642,
      "v": 71
    },
    {
      "midi": 60,
      "hit": false,
      "t": 47000,
      "d": 991.6666666666642,
      "v": 93
    },
    {
      "midi": 64,
      "hit": false,
      "t": 47000,
      "d": 991.6666666666642,
      "v": 91
    },
    {
      "midi": 67,
      "hit": false,
      "t": 47000,
      "d": 991.6666666666642,
      "v": 86
    },
    {
      "midi": 48,
      "hit": false,
      "t": 47000,
      "d": 933.3333333333285,
      "v": 94
    },
    {
      "midi": 41,
      "hit": false,
      "t": 48000,
      "d": 2750,
      "v": 65
    },
    {
      "midi": 60,
      "hit": false,
      "t": 48000,
      "d": 2750,
      "v": 73
    },
    {
      "midi": 65,
      "hit": false,
      "t": 48000,
      "d": 2750,
      "v": 83
    },
    {
      "midi": 69,
      "hit": false,
      "t": 48000,
      "d": 2750,
      "v": 69
    },
    {
      "midi": 59,
      "hit": false,
      "t": 51000,
      "d": 750,
      "v": 75
    },
    {
      "midi": 62,
      "hit": false,
      "t": 51000,
      "d": 750,
      "v": 86
    },
    {
      "midi": 67,
      "hit": false,
      "t": 51000,
      "d": 750,
      "v": 71
    },
    {
      "midi": 41,
      "hit": false,
      "t": 51000,
      "d": 1000,
      "v": 69
    },
    {
      "midi": 59,
      "hit": false,
      "t": 52000,
      "d": 1750,
      "v": 63
    },
    {
      "midi": 64,
      "hit": false,
      "t": 52000,
      "d": 1750,
      "v": 74
    },
    {
      "midi": 40,
      "hit": false,
      "t": 52000,
      "d": 2000,
      "v": 66
    },
    {
      "midi": 67,
      "hit": false,
      "t": 52000,
      "d": 2000,
      "v": 74
    },
    {
      "midi": 60,
      "hit": false,
      "t": 54000,
      "d": 750,
      "v": 75
    },
    {
      "midi": 64,
      "hit": false,
      "t": 54000,
      "d": 750,
      "v": 78
    },
    {
      "midi": 69,
      "hit": false,
      "t": 54000,
      "d": 750,
      "v": 75
    },
    {
      "midi": 45,
      "hit": false,
      "t": 54000,
      "d": 2000,
      "v": 65
    },
    {
      "midi": 69,
      "hit": false,
      "t": 55000,
      "d": 250,
      "v": 75
    },
    {
      "midi": 72,
      "hit": false,
      "t": 55000,
      "d": 250,
      "v": 75
    },
    {
      "midi": 71,
      "hit": false,
      "t": 55250,
      "d": 250,
      "v": 75
    },
    {
      "midi": 74,
      "hit": false,
      "t": 55250,
      "d": 250,
      "v": 75
    },
    {
      "midi": 72,
      "hit": false,
      "t": 55500,
      "d": 500,
      "v": 75
    },
    {
      "midi": 76,
      "hit": false,
      "t": 55500,
      "d": 500,
      "v": 75
    },
    {
      "midi": 77,
      "hit": false,
      "t": 56000,
      "d": 1500,
      "v": 83
    },
    {
      "midi": 69,
      "hit": false,
      "t": 56000,
      "d": 1750,
      "v": 65
    },
    {
      "midi": 72,
      "hit": false,
      "t": 56000,
      "d": 1750,
      "v": 75
    },
    {
      "midi": 38,
      "hit": false,
      "t": 56000,
      "d": 2000,
      "v": 71
    },
    {
      "midi": 50,
      "hit": false,
      "t": 57750,
      "d": 250,
      "v": 63
    },
    {
      "midi": 59,
      "hit": false,
      "t": 58000,
      "d": 1000,
      "v": 86
    },
    {
      "midi": 62,
      "hit": false,
      "t": 58000,
      "d": 1000,
      "v": 84
    },
    {
      "midi": 67,
      "hit": false,
      "t": 58000,
      "d": 1000,
      "v": 84
    },
    {
      "midi": 43,
      "hit": false,
      "t": 58000,
      "d": 1250,
      "v": 71
    },
    {
      "midi": 59,
      "hit": false,
      "t": 59000,
      "d": 500,
      "v": 82
    },
    {
      "midi": 62,
      "hit": false,
      "t": 59000,
      "d": 500,
      "v": 91
    },
    {
      "midi": 43,
      "hit": false,
      "t": 59500,
      "d": 500,
      "v": 70
    },
    {
      "midi": 55,
      "hit": false,
      "t": 60000,
      "d": 1250,
      "v": 78
    },
    {
      "midi": 60,
      "hit": false,
      "t": 60000,
      "d": 1500,
      "v": 84
    },
    {
      "midi": 64,
      "hit": false,
      "t": 60000,
      "d": 1500,
      "v": 88
    },
    {
      "midi": 48,
      "hit": false,
      "t": 60000,
      "d": 2000,
      "v": 84
    },
    {
      "midi": 55,
      "hit": false,
      "t": 61500,
      "d": 250,
      "v": 78
    },
    {
      "midi": 60,
      "hit": false,
      "t": 61750,
      "d": 250,
      "v": 69
    },
    {
      "midi": 58,
      "hit": false,
      "t": 62000,
      "d": 750,
      "v": 91
    },
    {
      "midi": 64,
      "hit": false,
      "t": 62000,
      "d": 750,
      "v": 93
    },
    {
      "midi": 36,
      "hit": false,
      "t": 62000,
      "d": 1000,
      "v": 84
    },
    {
      "midi": 67,
      "hit": false,
      "t": 62000,
      "d": 1000,
      "v": 66
    },
    {
      "midi": 48,
      "hit": false,
      "t": 63000,
      "d": 1000,
      "v": 75
    },
    {
      "midi": 58,
      "hit": false,
      "t": 63000,
      "d": 1000,
      "v": 86
    },
    {
      "midi": 60,
      "hit": false,
      "t": 63000,
      "d": 1000,
      "v": 104
    },
    {
      "midi": 64,
      "hit": false,
      "t": 63000,
      "d": 1000,
      "v": 99
    },
    {
      "midi": 41,
      "hit": false,
      "t": 64000,
      "d": 2500,
      "v": 69
    },
    {
      "midi": 60,
      "hit": false,
      "t": 64000,
      "d": 2500,
      "v": 73
    },
    {
      "midi": 57,
      "hit": false,
      "t": 64000,
      "d": 2750,
      "v": 63
    },
    {
      "midi": 65,
      "hit": false,
      "t": 64000,
      "d": 2750,
      "v": 72
    },
    {
      "midi": 59,
      "hit": false,
      "t": 67000,
      "d": 500,
      "v": 79
    },
    {
      "midi": 62,
      "hit": false,
      "t": 67000,
      "d": 500,
      "v": 77
    },
    {
      "midi": 41,
      "hit": false,
      "t": 67000,
      "d": 1000,
      "v": 69
    },
    {
      "midi": 55,
      "hit": false,
      "t": 67500,
      "d": 500,
      "v": 88
    },
    {
      "midi": 55,
      "hit": false,
      "t": 68000,
      "d": 1500,
      "v": 73
    },
    {
      "midi": 59,
      "hit": false,
      "t": 68000,
      "d": 1750,
      "v": 83
    },
    {
      "midi": 64,
      "hit": false,
      "t": 68000,
      "d": 1750,
      "v": 79
    },
    {
      "midi": 40,
      "hit": false,
      "t": 68000,
      "d": 2000,
      "v": 70
    },
    {
      "midi": 47,
      "hit": false,
      "t": 69500,
      "d": 500,
      "v": 38
    },
    {
      "midi": 55,
      "hit": false,
      "t": 69750,
      "d": 250,
      "v": 64
    },
    {
      "midi": 55,
      "hit": false,
      "t": 70000,
      "d": 750,
      "v": 64
    },
    {
      "midi": 57,
      "hit": false,
      "t": 70000,
      "d": 1000,
      "v": 78
    },
    {
      "midi": 62,
      "hit": false,
      "t": 70000,
      "d": 1000,
      "v": 82
    },
    {
      "midi": 45,
      "hit": false,
      "t": 70000,
      "d": 2000,
      "v": 70
    },
    {
      "midi": 57,
      "hit": false,
      "t": 71000,
      "d": 750,
      "v": 88
    },
    {
      "midi": 55,
      "hit": false,
      "t": 71000,
      "d": 1000,
      "v": 79
    },
    {
      "midi": 61,
      "hit": false,
      "t": 71000,
      "d": 1000,
      "v": 82
    },
    {
      "midi": 57,
      "hit": false,
      "t": 72000,
      "d": 1250,
      "v": 78
    },
    {
      "midi": 60,
      "hit": false,
      "t": 72000,
      "d": 1250,
      "v": 91
    },
    {
      "midi": 65,
      "hit": false,
      "t": 72000,
      "d": 1250,
      "v": 83
    },
    {
      "midi": 38,
      "hit": false,
      "t": 72000,
      "d": 1750,
      "v": 74
    },
    {
      "midi": 50,
      "hit": false,
      "t": 73500,
      "d": 500,
      "v": 60
    },
    {
      "midi": 69,
      "hit": false,
      "t": 74000,
      "d": 500,
      "v": 74
    },
    {
      "midi": 77,
      "hit": false,
      "t": 74000,
      "d": 500,
      "v": 77
    },
    {
      "midi": 38,
      "hit": false,
      "t": 74000,
      "d": 2000,
      "v": 69
    },
    {
      "midi": 67,
      "hit": false,
      "t": 74500,
      "d": 1500,
      "v": 86
    },
    {
      "midi": 76,
      "hit": false,
      "t": 74500,
      "d": 1500,
      "v": 72
    },
    {
      "midi": 70,
      "hit": false,
      "t": 76000,
      "d": 1250,
      "v": 54
    },
    {
      "midi": 74,
      "hit": false,
      "t": 76000,
      "d": 1500,
      "v": 79
    },
    {
      "midi": 77,
      "hit": false,
      "t": 76000,
      "d": 1500,
      "v": 72
    },
    {
      "midi": 46,
      "hit": false,
      "t": 76000,
      "d": 4000,
      "v": 58
    },
    {
      "midi": 72,
      "hit": false,
      "t": 77500,
      "d": 500,
      "v": 62
    },
    {
      "midi": 81,
      "hit": false,
      "t": 77500,
      "d": 750,
      "v": 78
    },
    {
      "midi": 70,
      "hit": false,
      "t": 78250,
      "d": 1750,
      "v": 60
    },
    {
      "midi": 79,
      "hit": false,
      "t": 78250,
      "d": 1750,
      "v": 74
    },
    {
      "midi": 71,
      "hit": false,
      "t": 80000,
      "d": 1250,
      "v": 64
    },
    {
      "midi": 74,
      "hit": false,
      "t": 80000,
      "d": 1250,
      "v": 79
    },
    {
      "midi": 31,
      "hit": false,
      "t": 80000,
      "d": 4000,
      "v": 65
    },
    {
      "midi": 43,
      "hit": false,
      "t": 80000,
      "d": 4000,
      "v": 49
    },
    {
      "midi": 60,
      "hit": false,
      "t": 81500,
      "d": 500,
      "v": 51
    },
    {
      "midi": 59,
      "hit": false,
      "t": 82000,
      "d": 1750,
      "v": 77
    },
    {
      "midi": 48,
      "hit": false,
      "t": 84000,
      "d": 991.6666666666715,
      "v": 74
    },
    {
      "midi": 55,
      "hit": false,
      "t": 85000,
      "d": 991.6666666666715,
      "v": 69
    },
    {
      "midi": 72,
      "hit": false,
      "t": 85500,
      "d": 250,
      "v": 71
    },
    {
      "midi": 71,
      "hit": false,
      "t": 85750,
      "d": 250,
      "v": 51
    },
    {
      "midi": 64,
      "hit": false,
      "t": 86000,
      "d": 1250,
      "v": 78
    },
    {
      "midi": 72,
      "hit": false,
      "t": 86000,
      "d": 1250,
      "v": 74
    },
    {
      "midi": 45,
      "hit": false,
      "t": 86000,
      "d": 991.6666666666715,
      "v": 72
    },
    {
      "midi": 52,
      "hit": false,
      "t": 87000,
      "d": 991.6666666666715,
      "v": 62
    },
    {
      "midi": 55,
      "hit": false,
      "t": 87000,
      "d": 991.6666666666715,
      "v": 68
    },
    {
      "midi": 60,
      "hit": false,
      "t": 87000,
      "d": 991.6666666666715,
      "v": 68
    },
    {
      "midi": 72,
      "hit": false,
      "t": 87500,
      "d": 250,
      "v": 74
    },
    {
      "midi": 71,
      "hit": false,
      "t": 87750,
      "d": 250,
      "v": 66
    },
    {
      "midi": 64,
      "hit": false,
      "t": 88000,
      "d": 991.6666666666715,
      "v": 46
    },
    {
      "midi": 65,
      "hit": false,
      "t": 88000,
      "d": 991.6666666666715,
      "v": 63
    },
    {
      "midi": 72,
      "hit": false,
      "t": 88000,
      "d": 991.6666666666715,
      "v": 59
    },
    {
      "midi": 50,
      "hit": false,
      "t": 88000,
      "d": 1991.6666666666715,
      "v": 68
    },
    {
      "midi": 64,
      "hit": false,
      "t": 89000,
      "d": 991.6666666666715,
      "v": 51
    },
    {
      "midi": 65,
      "hit": false,
      "t": 89000,
      "d": 991.6666666666715,
      "v": 59
    },
    {
      "midi": 72,
      "hit": false,
      "t": 89000,
      "d": 991.6666666666715,
      "v": 59
    },
    {
      "midi": 59,
      "hit": false,
      "t": 90000,
      "d": 991.6666666666715,
      "v": 57
    },
    {
      "midi": 62,
      "hit": false,
      "t": 90000,
      "d": 991.6666666666715,
      "v": 65
    },
    {
      "midi": 65,
      "hit": false,
      "t": 90000,
      "d": 991.6666666666715,
      "v": 57
    },
    {
      "midi": 43,
      "hit": false,
      "t": 90000,
      "d": 991.6666666666715,
      "v": 59
    },
    {
      "midi": 55,
      "hit": false,
      "t": 91000,
      "d": 991.6666666666715,
      "v": 52
    },
    {
      "midi": 59,
      "hit": false,
      "t": 91000,
      "d": 991.6666666666715,
      "v": 63
    },
    {
      "midi": 62,
      "hit": false,
      "t": 91000,
      "d": 991.6666666666715,
      "v": 63
    },
    {
      "midi": 31,
      "hit": false,
      "t": 91000,
      "d": 991.6666666666715,
      "v": 64
    },
    {
      "midi": 60,
      "hit": false,
      "t": 92000,
      "d": 1000,
      "v": 55
    },
    {
      "midi": 62,
      "hit": false,
      "t": 92000,
      "d": 1000,
      "v": 73
    },
    {
      "midi": 67,
      "hit": false,
      "t": 92000,
      "d": 1000,
      "v": 69
    },
    {
      "midi": 48,
      "hit": false,
      "t": 92000,
      "d": 1000,
      "v": 74
    },
    {
      "midi": 55,
      "hit": false,
      "t": 93000,
      "d": 1000,
      "v": 69
    },
    {
      "midi": 72,
      "hit": false,
      "t": 93500,
      "d": 250,
      "v": 73
    },
    {
      "midi": 71,
      "hit": false,
      "t": 93750,
      "d": 250,
      "v": 65
    },
    {
      "midi": 64,
      "hit": false,
      "t": 94000,
      "d": 1250,
      "v": 73
    },
    {
      "midi": 72,
      "hit": false,
      "t": 94000,
      "d": 1250,
      "v": 79
    },
    {
      "midi": 45,
      "hit": false,
      "t": 94000,
      "d": 1000,
      "v": 72
    },
    {
      "midi": 52,
      "hit": false,
      "t": 95000,
      "d": 1000,
      "v": 62
    },
    {
      "midi": 55,
      "hit": false,
      "t": 95000,
      "d": 1000,
      "v": 68
    },
    {
      "midi": 60,
      "hit": false,
      "t": 95000,
      "d": 1000,
      "v": 68
    },
    {
      "midi": 72,
      "hit": false,
      "t": 95500,
      "d": 250,
      "v": 74
    },
    {
      "midi": 71,
      "hit": false,
      "t": 95750,
      "d": 250,
      "v": 60
    },
    {
      "midi": 62,
      "hit": false,
      "t": 96000,
      "d": 1991.6666666666715,
      "v": 64
    },
    {
      "midi": 65,
      "hit": false,
      "t": 96000,
      "d": 1991.6666666666715,
      "v": 79
    },
    {
      "midi": 72,
      "hit": false,
      "t": 96000,
      "d": 1991.6666666666715,
      "v": 79
    },
    {
      "midi": 50,
      "hit": false,
      "t": 96000,
      "d": 2000,
      "v": 69
    },
    {
      "midi": 57,
      "hit": false,
      "t": 97000,
      "d": 750,
      "v": 62
    },
    {
      "midi": 60,
      "hit": false,
      "t": 97000,
      "d": 750,
      "v": 74
    },
    {
      "midi": 65,
      "hit": false,
      "t": 97000,
      "d": 750,
      "v": 67
    },
    {
      "midi": 55,
      "hit": false,
      "t": 98000,
      "d": 750,
      "v": 74
    },
    {
      "midi": 60,
      "hit": false,
      "t": 98000,
      "d": 750,
      "v": 80
    },
    {
      "midi": 43,
      "hit": false,
      "t": 98000,
      "d": 1000,
      "v": 70
    },
    {
      "midi": 65,
      "hit": false,
      "t": 98000,
      "d": 1000,
      "v": 70
    },
    {
      "midi": 31,
      "hit": false,
      "t": 99000,
      "d": 1000,
      "v": 78
    },
    {
      "midi": 55,
      "hit": false,
      "t": 99000,
      "d": 1000,
      "v": 74
    },
    {
      "midi": 59,
      "hit": false,
      "t": 99000,
      "d": 1000,
      "v": 74
    },
    {
      "midi": 62,
      "hit": false,
      "t": 99000,
      "d": 1000,
      "v": 73
    },
    {
      "midi": 62,
      "hit": false,
      "t": 100000,
      "d": 1750,
      "v": 72
    },
    {
      "midi": 67,
      "hit": false,
      "t": 100000,
      "d": 1750,
      "v": 88
    },
    {
      "midi": 71,
      "hit": false,
      "t": 100000,
      "d": 1750,
      "v": 75
    },
    {
      "midi": 40,
      "hit": false,
      "t": 100000,
      "d": 2000,
      "v": 63
    },
    {
      "midi": 52,
      "hit": false,
      "t": 101750,
      "d": 250,
      "v": 48
    },
    {
      "midi": 61,
      "hit": false,
      "t": 102000,
      "d": 750,
      "v": 72
    },
    {
      "midi": 64,
      "hit": false,
      "t": 102000,
      "d": 750,
      "v": 74
    },
    {
      "midi": 45,
      "hit": false,
      "t": 102000,
      "d": 1000,
      "v": 57
    },
    {
      "midi": 67,
      "hit": false,
      "t": 102000,
      "d": 1000,
      "v": 62
    },
    {
      "midi": 33,
      "hit": false,
      "t": 103000,
      "d": 1000,
      "v": 75
    },
    {
      "midi": 55,
      "hit": false,
      "t": 103000,
      "d": 1000,
      "v": 75
    },
    {
      "midi": 61,
      "hit": false,
      "t": 103000,
      "d": 1000,
      "v": 72
    },
    {
      "midi": 64,
      "hit": false,
      "t": 103000,
      "d": 1000,
      "v": 75
    },
    {
      "midi": 53,
      "hit": false,
      "t": 104000,
      "d": 1241.6666666666715,
      "v": 60
    },
    {
      "midi": 38,
      "hit": false,
      "t": 104000,
      "d": 1250,
      "v": 63
    },
    {
      "midi": 57,
      "hit": false,
      "t": 104000,
      "d": 1250,
      "v": 73
    },
    {
      "midi": 62,
      "hit": false,
      "t": 104000,
      "d": 1250,
      "v": 72
    },
    {
      "midi": 55,
      "hit": false,
      "t": 105250,
      "d": 491.6666666666715,
      "v": 75
    },
    {
      "midi": 59,
      "hit": false,
      "t": 105250,
      "d": 491.6666666666715,
      "v": 78
    },
    {
      "midi": 64,
      "hit": false,
      "t": 105250,
      "d": 491.6666666666715,
      "v": 96
    },
    {
      "midi": 40,
      "hit": false,
      "t": 105250,
      "d": 500,
      "v": 75
    },
    {
      "midi": 56,
      "hit": false,
      "t": 105750,
      "d": 1241.6666666666715,
      "v": 90
    },
    {
      "midi": 41,
      "hit": false,
      "t": 105750,
      "d": 1250,
      "v": 88
    },
    {
      "midi": 60,
      "hit": false,
      "t": 105750,
      "d": 1250,
      "v": 101
    },
    {
      "midi": 65,
      "hit": false,
      "t": 105750,
      "d": 1250,
      "v": 96
    },
    {
      "midi": 43,
      "hit": false,
      "t": 107000,
      "d": 1000,
      "v": 63
    },
    {
      "midi": 55,
      "hit": false,
      "t": 107000,
      "d": 1000,
      "v": 77
    },
    {
      "midi": 64,
      "hit": false,
      "t": 108000,
      "d": 991.6666666666715,
      "v": 69
    },
    {
      "midi": 67,
      "hit": false,
      "t": 108000,
      "d": 991.6666666666715,
      "v": 86
    },
    {
      "midi": 74,
      "hit": false,
      "t": 108000,
      "d": 991.6666666666715,
      "v": 90
    },
    {
      "midi": 48,
      "hit": false,
      "t": 108066.66666666667,
      "d": 433.3333333333285,
      "v": 80
    },
    {
      "midi": 36,
      "hit": false,
      "t": 108491.66666666667,
      "d": 525,
      "v": 68
    },
    {
      "midi": 43,
      "hit": false,
      "t": 108975,
      "d": 533.333333333343,
      "v": 78
    },
    {
      "midi": 72,
      "hit": false,
      "t": 109000,
      "d": 491.6666666666715,
      "v": 97
    },
    {
      "midi": 48,
      "hit": false,
      "t": 109483.33333333334,
      "d": 533.3333333333285,
      "v": 77
    },
    {
      "midi": 67,
      "hit": false,
      "t": 109500,
      "d": 491.6666666666715,
      "v": 88
    },
    {
      "midi": 64,
      "hit": false,
      "t": 110000,
      "d": 991.6666666666715,
      "v": 77
    },
    {
      "midi": 67,
      "hit": false,
      "t": 110000,
      "d": 991.6666666666715,
      "v": 86
    },
    {
      "midi": 70,
      "hit": false,
      "t": 110000,
      "d": 991.6666666666715,
      "v": 82
    },
    {
      "midi": 36,
      "hit": false,
      "t": 110008.33333333334,
      "d": 799.9999999999854,
      "v": 84
    },
    {
      "midi": 43,
      "hit": false,
      "t": 110775,
      "d": 316.6666666666715,
      "v": 60
    },
    {
      "midi": 58,
      "hit": false,
      "t": 111000,
      "d": 991.6666666666715,
      "v": 71
    },
    {
      "midi": 60,
      "hit": false,
      "t": 111000,
      "d": 991.6666666666715,
      "v": 93
    },
    {
      "midi": 64,
      "hit": false,
      "t": 111000,
      "d": 991.6666666666715,
      "v": 91
    },
    {
      "midi": 67,
      "hit": false,
      "t": 111000,
      "d": 991.6666666666715,
      "v": 86
    },
    {
      "midi": 48,
      "hit": false,
      "t": 111050,
      "d": 933.333333333343,
      "v": 94
    },
    {
      "midi": 41,
      "hit": false,
      "t": 112000,
      "d": 2750,
      "v": 65
    },
    {
      "midi": 60,
      "hit": false,
      "t": 112000,
      "d": 2750,
      "v": 73
    },
    {
      "midi": 65,
      "hit": false,
      "t": 112000,
      "d": 2750,
      "v": 83
    },
    {
      "midi": 69,
      "hit": false,
      "t": 112000,
      "d": 2750,
      "v": 69
    },
    {
      "midi": 59,
      "hit": false,
      "t": 115000,
      "d": 750,
      "v": 67
    },
    {
      "midi": 62,
      "hit": false,
      "t": 115000,
      "d": 750,
      "v": 77
    },
    {
      "midi": 67,
      "hit": false,
      "t": 115000,
      "d": 750,
      "v": 63
    },
    {
      "midi": 41,
      "hit": false,
      "t": 115000,
      "d": 1000,
      "v": 62
    },
    {
      "midi": 59,
      "hit": false,
      "t": 116000,
      "d": 1750,
      "v": 54
    },
    {
      "midi": 64,
      "hit": false,
      "t": 116000,
      "d": 1750,
      "v": 63
    },
    {
      "midi": 40,
      "hit": false,
      "t": 116000,
      "d": 2000,
      "v": 56
    },
    {
      "midi": 67,
      "hit": false,
      "t": 116000,
      "d": 2000,
      "v": 63
    },
    {
      "midi": 60,
      "hit": false,
      "t": 118000,
      "d": 750,
      "v": 59
    },
    {
      "midi": 64,
      "hit": false,
      "t": 118000,
      "d": 750,
      "v": 61
    },
    {
      "midi": 69,
      "hit": false,
      "t": 118000,
      "d": 750,
      "v": 59
    },
    {
      "midi": 45,
      "hit": false,
      "t": 118000,
      "d": 2000,
      "v": 51
    },
    {
      "midi": 69,
      "hit": false,
      "t": 119000,
      "d": 250,
      "v": 56
    },
    {
      "midi": 72,
      "hit": false,
      "t": 119000,
      "d": 250,
      "v": 56
    },
    {
      "midi": 71,
      "hit": false,
      "t": 119250,
      "d": 250,
      "v": 56
    },
    {
      "midi": 74,
      "hit": false,
      "t": 119250,
      "d": 250,
      "v": 56
    },
    {
      "midi": 72,
      "hit": false,
      "t": 119500,
      "d": 500,
      "v": 55
    },
    {
      "midi": 76,
      "hit": false,
      "t": 119500,
      "d": 500,
      "v": 55
    },
    {
      "midi": 77,
      "hit": false,
      "t": 120000,
      "d": 1500,
      "v": 59
    },
    {
      "midi": 69,
      "hit": false,
      "t": 120000,
      "d": 1750,
      "v": 46
    },
    {
      "midi": 72,
      "hit": false,
      "t": 120000,
      "d": 1750,
      "v": 54
    },
    {
      "midi": 38,
      "hit": false,
      "t": 120000,
      "d": 2000,
      "v": 51
    },
    {
      "midi": 50,
      "hit": false,
      "t": 121750,
      "d": 250,
      "v": 41
    },
    {
      "midi": 59,
      "hit": false,
      "t": 122000,
      "d": 1000,
      "v": 55
    },
    {
      "midi": 62,
      "hit": false,
      "t": 122000,
      "d": 1000,
      "v": 54
    },
    {
      "midi": 67,
      "hit": false,
      "t": 122000,
      "d": 1000,
      "v": 54
    },
    {
      "midi": 43,
      "hit": false,
      "t": 122000,
      "d": 1250,
      "v": 46
    },
    {
      "midi": 59,
      "hit": false,
      "t": 123000,
      "d": 500,
      "v": 50
    },
    {
      "midi": 62,
      "hit": false,
      "t": 123000,
      "d": 500,
      "v": 55
    },
    {
      "midi": 43,
      "hit": false,
      "t": 123500,
      "d": 500,
      "v": 41
    },
    {
      "midi": 55,
      "hit": false,
      "t": 124000,
      "d": 1250,
      "v": 45
    },
    {
      "midi": 60,
      "hit": false,
      "t": 124000,
      "d": 1500,
      "v": 48
    },
    {
      "midi": 64,
      "hit": false,
      "t": 124000,
      "d": 1500,
      "v": 51
    },
    {
      "midi": 48,
      "hit": false,
      "t": 124000,
      "d": 2000,
      "v": 48
    },
    {
      "midi": 55,
      "hit": false,
      "t": 125500,
      "d": 250,
      "v": 40
    },
    {
      "midi": 60,
      "hit": false,
      "t": 125750,
      "d": 250,
      "v": 35
    },
    {
      "midi": 58,
      "hit": false,
      "t": 126000,
      "d": 750,
      "v": 45
    },
    {
      "midi": 64,
      "hit": false,
      "t": 126000,
      "d": 750,
      "v": 46
    },
    {
      "midi": 36,
      "hit": false,
      "t": 126000,
      "d": 1000,
      "v": 42
    },
    {
      "midi": 67,
      "hit": false,
      "t": 126000,
      "d": 1000,
      "v": 33
    },
    {
      "midi": 48,
      "hit": false,
      "t": 127000,
      "d": 1000,
      "v": 35
    },
    {
      "midi": 58,
      "hit": false,
      "t": 127000,
      "d": 1000,
      "v": 40
    },
    {
      "midi": 60,
      "hit": false,
      "t": 127000,
      "d": 1000,
      "v": 48
    },
    {
      "midi": 64,
      "hit": false,
      "t": 127000,
      "d": 1000,
      "v": 46
    },
    {
      "midi": 41,
      "hit": false,
      "t": 128000,
      "d": 2500,
      "v": 29
    },
    {
      "midi": 60,
      "hit": false,
      "t": 128000,
      "d": 2500,
      "v": 31
    },
    {
      "midi": 57,
      "hit": false,
      "t": 128000,
      "d": 2750,
      "v": 27
    },
    {
      "midi": 65,
      "hit": false,
      "t": 128000,
      "d": 2750,
      "v": 30
    },
    {
      "midi": 59,
      "hit": false,
      "t": 131000,
      "d": 500,
      "v": 26
    },
    {
      "midi": 62,
      "hit": false,
      "t": 131000,
      "d": 500,
      "v": 25
    },
    {
      "midi": 41,
      "hit": false,
      "t": 131000,
      "d": 1000,
      "v": 22
    },
    {
      "midi": 55,
      "hit": false,
      "t": 131500,
      "d": 500,
      "v": 27
    },
    {
      "midi": 55,
      "hit": false,
      "t": 132000,
      "d": 1500,
      "v": 21
    },
    {
      "midi": 59,
      "hit": false,
      "t": 132000,
      "d": 1750,
      "v": 24
    },
    {
      "midi": 64,
      "hit": false,
      "t": 132000,
      "d": 1750,
      "v": 22
    },
    {
      "midi": 40,
      "hit": false,
      "t": 132000,
      "d": 2000,
      "v": 20
    },
    {
      "midi": 47,
      "hit": false,
      "t": 133500,
      "d": 500,
      "v": 9
    },
    {
      "midi": 55,
      "hit": false,
      "t": 133750,
      "d": 250,
      "v": 14
    },
    {
      "midi": 55,
      "hit": false,
      "t": 134000,
      "d": 750,
      "v": 14
    },
    {
      "midi": 57,
      "hit": false,
      "t": 134000,
      "d": 1000,
      "v": 17
    },
    {
      "midi": 62,
      "hit": false,
      "t": 134000,
      "d": 1000,
      "v": 18
    },
    {
      "midi": 45,
      "hit": false,
      "t": 134000,
      "d": 2000,
      "v": 15
    },
    {
      "midi": 57,
      "hit": false,
      "t": 135000,
      "d": 750,
      "v": 15
    },
    {
      "midi": 55,
      "hit": false,
      "t": 135000,
      "d": 1000,
      "v": 14
    },
    {
      "midi": 61,
      "hit": false,
      "t": 135000,
      "d": 1000,
      "v": 14
    },
    {
      "midi": 57,
      "hit": false,
      "t": 136000,
      "d": 1250,
      "v": 11
    },
    {
      "midi": 60,
      "hit": false,
      "t": 136000,
      "d": 1250,
      "v": 13
    },
    {
      "midi": 65,
      "hit": false,
      "t": 136000,
      "d": 1250,
      "v": 12
    },
    {
      "midi": 38,
      "hit": false,
      "t": 136000,
      "d": 1750,
      "v": 11
    },
    {
      "midi": 50,
      "hit": false,
      "t": 137500,
      "d": 500,
      "v": 5
    },
    {
      "midi": 55,
      "hit": false,
      "t": 138000,
      "d": 1991.666666666657,
      "v": 4
    },
    {
      "midi": 59,
      "hit": false,
      "t": 138000,
      "d": 1991.666666666657,
      "v": 5
    },
    {
      "midi": 62,
      "hit": false,
      "t": 138000,
      "d": 1991.666666666657,
      "v": 5
    },
    {
      "midi": 65,
      "hit": false,
      "t": 138000,
      "d": 1991.666666666657,
      "v": 5
    },
    {
      "midi": 43,
      "hit": false,
      "t": 138000,
      "d": 2000,
      "v": 5
    }
  ]
}